mtllib material.mtl
usemtl material_0
v -0.32249630 0.93954800 0.34176830
v -0.32249630 2.00702600 0.34176830
v -0.34127810 2.00702600 0.32298680
v -0.34127810 0.93954800 0.32298680
v -0.32249630 2.00702600 0.34176830
v -0.32249630 2.04652600 0.34176820
v -0.34127810 2.04652600 0.32298680
v -0.34127810 2.00702600 0.32298680
v -0.60865410 2.00702600 0.05561079
v -0.63905940 2.04652600 0.02520399
v -0.63905940 0.91454800 0.02520395
v -0.60865410 0.93954800 0.05561073
v -0.34127810 0.93954800 0.32298680
v -0.34127810 0.91454800 0.32298680
v -0.32249630 0.93954800 0.34176830
v -0.32249630 0.91454800 0.34176830
v -0.29754030 2.04652600 0.34176830
v -0.32249630 2.04652600 0.34176820
v -0.32249630 2.00702600 0.34176830
v -0.29754030 2.00702600 0.34176830
v -0.32249630 0.93954800 0.34176830
v 0.00000000 2.04652600 0.34176820
v 0.00000000 2.00702600 0.34176820
v -0.29754030 0.93954800 0.34176830
v -0.32249630 0.91454800 0.34176830
v -0.29754030 0.91454800 0.34176830
v 0.29754030 2.00702600 0.34176830
v 0.00000000 0.93954800 0.34176830
v 0.00000000 0.91454800 0.34176830
v 0.29754030 0.91454800 0.34176830
v 0.29754030 0.93954800 0.34176830
v 0.32249630 0.91454800 0.34176830
v 0.32249630 0.93954800 0.34176830
v 0.29754030 2.04652600 0.34176830
v 0.32249630 2.00702600 0.34176830
v 0.32249630 2.04652600 0.34176820
v -0.34072200 0.88702020 0.38576830
v -0.29754030 0.83079900 0.38576830
v -0.34072200 0.83079900 0.38576830
v -0.29754030 0.88702020 0.38576830
v -0.34072200 0.91454800 0.38576830
v 0.00000000 0.83079900 0.38576820
v -0.29754030 0.91454800 0.38576830
v -0.34072200 0.93954800 0.38576830
v 0.00000000 0.88702020 0.38576820
v 0.29754030 0.88702020 0.38576830
v 0.29754030 0.83079900 0.38576830
v 0.34072200 0.88702020 0.38576830
v 0.34072200 0.83079900 0.38576830
v 0.34072200 0.91454800 0.38576830
v 0.29754030 0.91454800 0.38576830
v 0.34072200 0.93954800 0.38576830
v 0.00000000 0.91454800 0.38576820
v -0.29754030 0.93954800 0.38576830
v 0.00000000 0.93954800 0.38576820
v -0.29754030 2.00702600 0.38576830
v 0.29754030 0.93954800 0.38576830
v 0.29754030 2.00702600 0.38576830
v -0.34072200 2.00702600 0.38576830
v 0.34072200 2.00702600 0.38576830
v -0.29754030 2.04652600 0.38576830
v 0.00000000 2.04652600 0.38576820
v -0.34072200 2.04652600 0.38576830
v -0.34072200 2.08991400 0.38576830
v -0.29754030 2.08991400 0.38576830
v 0.00000000 2.00702600 0.38576820
v 0.00000000 2.08991400 0.38576820
v 0.29754030 2.08991400 0.38576830
v 0.29754030 2.04652600 0.38576830
v 0.34072200 2.04652600 0.38576830
v 0.34072200 2.08991400 0.38576830
v -0.37875490 0.95854810 0.33359340
v -0.36178400 0.95854810 0.31662290
v -0.36178400 1.98802600 0.31662290
v -0.37875490 1.98802600 0.33359340
v -0.61926080 1.98802600 0.09308752
v -0.60229000 1.98802600 0.07611687
v -0.60229000 0.95854810 0.07611683
v -0.61926080 0.95854810 0.09308752
v -0.27854000 0.95854810 0.37576830
v -0.27854000 0.95854810 0.35176830
v 0.00000000 0.95854810 0.35176830
v 0.00000000 0.95854810 0.37576820
v 0.27854000 0.95854810 0.37576830
v 0.27854000 0.95854810 0.35176830
v 0.00000000 1.98802600 0.37576820
v -0.27854000 1.98802600 0.35176830
v -0.27854000 1.98802600 0.37576830
v 0.00000000 1.98802600 0.35176820
v 0.27854000 1.98802600 0.35176830
v 0.27854000 1.98802600 0.37576830
v -0.61926080 0.95854810 0.09308752
v -0.60229000 0.95854810 0.07611683
v -0.36178400 0.95854810 0.31662290
v -0.37875490 0.95854810 0.33359340
v -0.37875490 1.98802600 0.33359340
v -0.36178400 1.98802600 0.31662290
v -0.60229000 1.98802600 0.07611687
v -0.61926080 1.98802600 0.09308752
v -0.27854000 1.98802600 0.37576830
v -0.27854000 1.98802600 0.35176830
v -0.27854000 0.95854810 0.35176830
v -0.27854000 0.95854810 0.37576830
v -0.63905940 0.91454800 -0.05687477
v -0.67017210 2.04652600 -0.05687498
v -0.67017210 0.91454820 -0.05687498
v -0.63905940 2.04652600 -0.05687473
v -0.67017210 2.08991400 -0.05687498
v -0.63905940 2.08991400 -0.05687473
v -0.32249700 2.08991400 -0.05687208
v -0.32249630 2.04652600 -0.05687212
v 0.00000000 2.08991400 -0.05687210
v 0.00000000 2.04652600 -0.05687210
v 0.32249630 2.04652600 -0.05687212
v 0.32249700 2.08991400 -0.05687208
v 0.63905940 2.04652600 -0.05687473
v 0.63905940 2.08991400 -0.05687473
v 0.67017210 2.08991400 -0.05687498
v 0.67017210 2.04652600 -0.05687498
v 0.63905940 0.91454800 -0.05687477
v 0.67017210 0.91454820 -0.05687498
v -0.63905940 2.04652600 0.02520399
v -0.32249630 2.04652600 -0.05687212
v -0.63905940 2.04652600 -0.05687473
v -0.32249630 2.04652600 0.02520668
v -0.34127810 2.04652600 0.32298680
v 0.00000000 2.04652600 -0.05687210
v -0.32249700 2.04652600 0.32298680
v -0.32249630 2.04652600 0.34176820
v -0.29754030 2.04652600 0.34176830
v 0.00000000 2.04652600 0.34176820
v 0.00000000 2.04652600 0.02520660
v 0.00000000 2.04652600 0.32298680
v 0.32249700 2.04652600 0.32298680
v 0.29754030 2.04652600 0.34176830
v 0.32249630 2.04652600 0.34176820
v 0.34127810 2.04652600 0.32298680
v 0.32249630 2.04652600 0.02520668
v 0.32249630 2.04652600 -0.05687212
v 0.63905940 2.04652600 0.02520399
v 0.63905940 2.04652600 -0.05687473
v -0.63905940 0.91454800 0.02520395
v -0.63905940 2.04652600 0.02520399
v -0.63905940 2.04652600 -0.05687473
v -0.63905940 0.91454800 -0.05687477
v -0.67017210 0.83079900 -0.08592508
v -0.63905940 0.88702020 -0.11513450
v -0.67017210 0.88702030 -0.11513480
v -0.63905940 0.83079900 -0.08592477
v -0.32249630 0.88702020 -0.11513180
v -0.32249630 0.83079900 -0.08592211
v 0.00000000 0.88702020 -0.11513190
v 0.00000000 0.83079900 -0.08592218
v 0.32249630 0.83079900 -0.08592211
v 0.32249630 0.88702020 -0.11513180
v 0.63905940 0.83079900 -0.08592477
v 0.63905940 0.88702020 -0.11513450
v 0.67017210 0.83079900 -0.08592508
v 0.67017210 0.88702030 -0.11513480
v -0.67017210 2.08991400 0.05631784
v -0.67017210 2.04652600 -0.05687498
v -0.67017210 2.08991400 -0.05687498
v -0.67017210 2.04652600 0.05631784
v -0.67017210 0.91454820 -0.05687498
v -0.67017210 0.91454800 0.05631786
v -0.67017210 0.88702020 0.05631786
v -0.67017210 0.88702030 -0.05687498
v -0.67017210 0.83079900 0.05631786
v -0.67017210 0.83079900 -0.05687498
v -0.67017210 0.83079900 -0.08592508
v -0.67017210 0.88702030 -0.11513480
v -0.67017210 0.91454820 -0.11513480
v -0.34072200 2.04652600 0.38576830
v -0.37239070 2.08991400 0.35409950
v -0.34072200 2.08991400 0.38576830
v -0.37239070 2.04652600 0.35409950
v -0.67017210 2.08991400 0.05631784
v -0.34072200 2.00702600 0.38576830
v -0.67017210 2.04652600 0.05631784
v -0.37239070 2.00702600 0.35409950
v -0.34072200 0.93954800 0.38576830
v -0.63976680 2.00702600 0.08672369
v -0.37239070 0.93954800 0.35409950
v -0.67017210 0.91454800 0.05631786
v -0.34072200 0.91454800 0.38576830
v -0.63976680 0.93954800 0.08672369
v -0.37239070 0.91454800 0.35409950
v -0.34072200 0.88702020 0.38576830
v -0.37239070 0.88702020 0.35409950
v -0.67017210 0.88702020 0.05631786
v -0.34072200 0.83079900 0.38576830
v -0.67017210 0.83079900 0.05631786
v -0.37239070 0.83079900 0.35409950
v -0.34127810 0.93954800 0.32298680
v -0.34127810 2.00702600 0.32298680
v -0.34834900 2.00702600 0.33005790
v -0.34834900 0.93954800 0.33005790
v -0.37239070 2.00702600 0.35409950
v -0.37239070 0.93954800 0.35409950
v -0.36531980 0.93954800 0.34702840
v -0.36531980 2.00702600 0.34702840
v -0.60865410 2.00702600 0.05561079
v -0.60865410 0.93954800 0.05561073
v -0.61572510 0.93954800 0.06268181
v -0.61572510 2.00702600 0.06268186
v -0.63976680 0.93954800 0.08672369
v -0.63976680 2.00702600 0.08672369
v -0.63269590 2.00702600 0.07965253
v -0.63269590 0.93954800 0.07965253
v -0.60865410 0.93954800 0.05561073
v -0.34127810 0.93954800 0.32298680
v -0.34834900 0.93954800 0.33005790
v -0.61572510 0.93954800 0.06268181
v -0.37239070 0.93954800 0.35409950
v -0.63976680 0.93954800 0.08672369
v -0.63269590 0.93954800 0.07965253
v -0.36531980 0.93954800 0.34702840
v -0.34127810 2.00702600 0.32298680
v -0.60865410 2.00702600 0.05561079
v -0.61572510 2.00702600 0.06268186
v -0.34834900 2.00702600 0.33005790
v -0.63976680 2.00702600 0.08672369
v -0.37239070 2.00702600 0.35409950
v -0.36531980 2.00702600 0.34702840
v -0.63269590 2.00702600 0.07965253
v -0.29754030 0.93954800 0.34176830
v 0.00000000 0.93954800 0.35176830
v -0.29754030 0.93954800 0.35176830
v 0.00000000 0.93954800 0.34176830
v 0.29754030 0.93954800 0.34176830
v 0.29754030 0.93954800 0.35176830
v 0.00000000 0.93954800 0.38576820
v -0.29754030 0.93954800 0.38576830
v -0.29754030 0.93954800 0.37576830
v 0.00000000 0.93954800 0.37576820
v 0.29754030 0.93954800 0.37576830
v 0.29754030 0.93954800 0.38576830
v 0.00000000 2.00702600 0.34176820
v -0.29754030 2.00702600 0.34176830
v -0.29754030 2.00702600 0.35176830
v 0.00000000 2.00702600 0.35176820
v 0.29754030 2.00702600 0.35176830
v 0.29754030 2.00702600 0.34176830
v -0.29754030 2.00702600 0.38576830
v 0.00000000 2.00702600 0.37576820
v -0.29754030 2.00702600 0.37576830
v 0.00000000 2.00702600 0.38576820
v 0.29754030 2.00702600 0.38576830
v 0.29754030 2.00702600 0.37576830
v -0.29754030 2.00702600 0.34176830
v -0.29754030 0.93954800 0.34176830
v -0.29754030 0.93954800 0.35176830
v -0.29754030 2.00702600 0.35176830
v -0.29754030 0.93954800 0.38576830
v -0.29754030 2.00702600 0.38576830
v -0.29754030 2.00702600 0.37576830
v -0.29754030 0.93954800 0.37576830
v -0.36531980 2.00702600 0.34702840
v -0.36531980 0.93954800 0.34702840
v -0.37875490 0.95854810 0.33359340
v -0.37875490 1.98802600 0.33359340
v -0.36531980 0.93954800 0.34702840
v -0.61926080 0.95854810 0.09308752
v -0.37875490 0.95854810 0.33359340
v -0.63269590 0.93954800 0.07965253
v -0.61926080 1.98802600 0.09308752
v -0.63269590 2.00702600 0.07965253
v -0.37875490 1.98802600 0.33359340
v -0.36531980 2.00702600 0.34702840
v -0.67017210 0.83079900 -0.05687498
v -0.63905940 0.83079900 -0.08592477
v -0.67017210 0.83079900 -0.08592508
v -0.63905940 0.83079900 -0.05687466
v -0.67017210 0.83079900 0.05631786
v -0.32249630 0.83079900 -0.08592211
v -0.63905940 0.83079900 0.02520430
v -0.37239070 0.83079900 0.35409950
v -0.32249630 0.83079900 0.34176830
v -0.34072200 0.83079900 0.38576830
v -0.29754030 0.83079900 0.38576830
v 0.00000000 0.83079900 0.38576820
v -0.32249630 0.83079900 -0.05687200
v 0.00000000 0.83079900 -0.08592218
v -0.32249630 0.83079900 0.02520693
v 0.00000000 0.83079900 -0.05687210
v 0.00000000 0.83079900 0.02520660
v 0.00000000 0.83079900 0.34176830
v 0.32249630 0.83079900 0.34176830
v 0.29754030 0.83079900 0.38576830
v 0.34072200 0.83079900 0.38576830
v 0.37239070 0.83079900 0.35409950
v 0.32249630 0.83079900 -0.05687200
v 0.32249630 0.83079900 -0.08592211
v 0.32249630 0.83079900 0.02520693
v 0.63905940 0.83079900 0.02520430
v 0.67017210 0.83079900 0.05631786
v 0.63905940 0.83079900 -0.05687466
v 0.63905940 0.83079900 -0.08592477
v 0.67017210 0.83079900 -0.05687498
v 0.67017210 0.83079900 -0.08592508
v -0.63905940 0.91454800 -0.05687477
v -0.67017210 0.91454820 -0.05687498
v -0.67017210 0.91454820 -0.11513480
v -0.63905940 0.91454800 -0.11513460
v -0.32249630 0.91454800 -0.05687200
v -0.32249630 0.91454800 -0.11513180
v -0.32249630 0.91454800 0.02520693
v -0.63905940 0.91454800 0.02520395
v -0.34127810 0.91454800 0.32298680
v 0.00000000 0.91454800 -0.05687210
v 0.00000000 0.91454800 -0.11513190
v 0.32249630 0.91454800 -0.11513180
v 0.00000000 0.91454800 0.02520660
v 0.00000000 0.91454800 0.32298680
v -0.32249630 0.91454800 0.32298680
v -0.32249630 0.91454800 0.34176830
v -0.29754030 0.91454800 0.34176830
v 0.00000000 0.91454800 0.34176830
v 0.29754030 0.91454800 0.34176830
v 0.32249630 0.91454800 -0.05687200
v 0.63905940 0.91454800 -0.11513460
v 0.32249630 0.91454800 0.32298680
v 0.32249630 0.91454800 0.34176830
v 0.34127810 0.91454800 0.32298680
v 0.32249630 0.91454800 0.02520693
v 0.63905940 0.91454800 0.02520395
v 0.63905940 0.91454800 -0.05687477
v 0.67017210 0.91454820 -0.11513480
v 0.67017210 0.91454820 -0.05687498
v -0.67017210 0.88702030 -0.11513480
v -0.63905940 0.91454800 -0.11513460
v -0.67017210 0.91454820 -0.11513480
v -0.63905940 0.88702020 -0.11513450
v -0.32249630 0.91454800 -0.11513180
v -0.32249630 0.88702020 -0.11513180
v 0.00000000 0.91454800 -0.11513190
v 0.00000000 0.88702020 -0.11513190
v 0.32249630 0.88702020 -0.11513180
v 0.32249630 0.91454800 -0.11513180
v 0.63905940 0.88702020 -0.11513450
v 0.63905940 0.91454800 -0.11513460
v 0.67017210 0.88702030 -0.11513480
v 0.67017210 0.91454820 -0.11513480
v 0.32249630 2.00702600 0.34176830
v 0.34127810 2.04652600 0.32298680
v 0.32249630 2.04652600 0.34176820
v 0.34127810 2.00702600 0.32298680
v 0.32249630 0.93954800 0.34176830
v 0.60865410 2.00702600 0.05561079
v 0.63905940 2.04652600 0.02520399
v 0.63905940 0.91454800 0.02520395
v 0.60865410 0.93954800 0.05561073
v 0.34127810 0.93954800 0.32298680
v 0.34127810 0.91454800 0.32298680
v 0.32249630 0.91454800 0.34176830
v 0.37875490 0.95854810 0.33359340
v 0.37875490 1.98802600 0.33359340
v 0.36178400 1.98802600 0.31662290
v 0.36178400 0.95854810 0.31662290
v 0.61926080 1.98802600 0.09308752
v 0.61926080 0.95854810 0.09308752
v 0.60229000 0.95854810 0.07611683
v 0.60229000 1.98802600 0.07611687
v 0.61926080 0.95854810 0.09308752
v 0.37875490 0.95854810 0.33359340
v 0.36178400 0.95854810 0.31662290
v 0.60229000 0.95854810 0.07611683
v 0.37875490 1.98802600 0.33359340
v 0.61926080 1.98802600 0.09308752
v 0.60229000 1.98802600 0.07611687
v 0.36178400 1.98802600 0.31662290
v 0.27854000 1.98802600 0.37576830
v 0.27854000 0.95854810 0.37576830
v 0.27854000 0.95854810 0.35176830
v 0.27854000 1.98802600 0.35176830
v 0.63905940 0.91454800 0.02520395
v 0.63905940 0.91454800 -0.05687477
v 0.63905940 2.04652600 -0.05687473
v 0.63905940 2.04652600 0.02520399
v 0.67017210 2.08991400 0.05631784
v 0.67017210 2.08991400 -0.05687498
v 0.67017210 2.04652600 -0.05687498
v 0.67017210 2.04652600 0.05631784
v 0.67017210 0.91454820 -0.05687498
v 0.67017210 0.91454800 0.05631786
v 0.67017210 0.88702020 0.05631786
v 0.67017210 0.88702030 -0.05687498
v 0.67017210 0.83079900 0.05631786
v 0.67017210 0.83079900 -0.05687498
v 0.67017210 0.83079900 -0.08592508
v 0.67017210 0.88702030 -0.11513480
v 0.67017210 0.91454820 -0.11513480
v 0.34072200 2.04652600 0.38576830
v 0.34072200 2.08991400 0.38576830
v 0.37239070 2.08991400 0.35409950
v 0.37239070 2.04652600 0.35409950
v 0.67017210 2.08991400 0.05631784
v 0.34072200 2.00702600 0.38576830
v 0.67017210 2.04652600 0.05631784
v 0.37239070 2.00702600 0.35409950
v 0.34072200 0.93954800 0.38576830
v 0.63976680 2.00702600 0.08672369
v 0.37239070 0.93954800 0.35409950
v 0.67017210 0.91454800 0.05631786
v 0.34072200 0.91454800 0.38576830
v 0.63976680 0.93954800 0.08672369
v 0.37239070 0.91454800 0.35409950
v 0.34072200 0.88702020 0.38576830
v 0.37239070 0.88702020 0.35409950
v 0.67017210 0.88702020 0.05631786
v 0.34072200 0.83079900 0.38576830
v 0.67017210 0.83079900 0.05631786
v 0.37239070 0.83079900 0.35409950
v 0.34127810 0.93954800 0.32298680
v 0.34834900 0.93954800 0.33005790
v 0.34834900 2.00702600 0.33005790
v 0.34127810 2.00702600 0.32298680
v 0.37239070 2.00702600 0.35409950
v 0.36531980 2.00702600 0.34702840
v 0.36531980 0.93954800 0.34702840
v 0.37239070 0.93954800 0.35409950
v 0.60865410 2.00702600 0.05561079
v 0.61572510 2.00702600 0.06268186
v 0.61572510 0.93954800 0.06268181
v 0.60865410 0.93954800 0.05561073
v 0.63976680 0.93954800 0.08672369
v 0.63269590 0.93954800 0.07965253
v 0.63269590 2.00702600 0.07965253
v 0.63976680 2.00702600 0.08672369
v 0.60865410 0.93954800 0.05561073
v 0.61572510 0.93954800 0.06268181
v 0.34834900 0.93954800 0.33005790
v 0.34127810 0.93954800 0.32298680
v 0.37239070 0.93954800 0.35409950
v 0.36531980 0.93954800 0.34702840
v 0.63269590 0.93954800 0.07965253
v 0.63976680 0.93954800 0.08672369
v 0.34127810 2.00702600 0.32298680
v 0.34834900 2.00702600 0.33005790
v 0.61572510 2.00702600 0.06268186
v 0.60865410 2.00702600 0.05561079
v 0.63976680 2.00702600 0.08672369
v 0.63269590 2.00702600 0.07965253
v 0.36531980 2.00702600 0.34702840
v 0.37239070 2.00702600 0.35409950
v 0.29754030 2.00702600 0.34176830
v 0.29754030 2.00702600 0.35176830
v 0.29754030 0.93954800 0.35176830
v 0.29754030 0.93954800 0.34176830
v 0.29754030 0.93954800 0.38576830
v 0.29754030 0.93954800 0.37576830
v 0.29754030 2.00702600 0.37576830
v 0.29754030 2.00702600 0.38576830
v 0.36531980 2.00702600 0.34702840
v 0.37875490 1.98802600 0.33359340
v 0.37875490 0.95854810 0.33359340
v 0.36531980 0.93954800 0.34702840
v 0.61572510 2.00702600 0.06268186
v 0.60229000 1.98802600 0.07611687
v 0.60229000 0.95854810 0.07611683
v 0.61572510 0.93954800 0.06268181
v 0.61572510 0.93954800 0.06268181
v 0.60229000 0.95854810 0.07611683
v 0.36178400 0.95854810 0.31662290
v 0.34834900 0.93954800 0.33005790
v 0.36178400 1.98802600 0.31662290
v 0.34834900 2.00702600 0.33005790
v 0.60229000 1.98802600 0.07611687
v 0.61572510 2.00702600 0.06268186
v 0.36531980 0.93954800 0.34702840
v 0.37875490 0.95854810 0.33359340
v 0.61926080 0.95854810 0.09308752
v 0.63269590 0.93954800 0.07965253
v 0.61926080 1.98802600 0.09308752
v 0.63269590 2.00702600 0.07965253
v 0.37875490 1.98802600 0.33359340
v 0.36531980 2.00702600 0.34702840
v -0.32249630 2.08991400 0.34176830
v -0.29754030 2.08991400 0.38576830
v -0.34072200 2.08991400 0.38576830
v -0.37239070 2.08991400 0.35409950
v -0.67017210 2.08991400 0.05631784
v 0.00000000 2.08991400 0.34176820
v 0.00000000 2.08991400 0.02520660
v 0.32249630 2.08991400 0.34176830
v 0.00000000 2.08991400 0.38576820
v 0.29754030 2.08991400 0.38576830
v 0.34072200 2.08991400 0.38576830
v 0.37239070 2.08991400 0.35409950
v 0.67017210 2.08991400 0.05631784
v -0.63905940 2.08991400 0.02520399
v -0.67017210 2.08991400 -0.05687498
v -0.63905940 2.08991400 -0.05687473
v -0.32249700 2.08991400 0.02520674
v -0.32249700 2.08991400 -0.05687208
v 0.00000000 2.08991400 -0.05687210
v 0.32249700 2.08991400 -0.05687208
v 0.32249700 2.08991400 0.02520674
v 0.63905940 2.08991400 -0.05687473
v 0.63905940 2.08991400 0.02520399
v 0.67017210 2.08991400 -0.05687498
v -0.29754030 0.93954800 0.35176830
v 0.00000000 0.93954800 0.35176830
v 0.00000000 0.95854810 0.35176830
v 0.29754030 0.93954800 0.35176830
v -0.27854000 0.95854810 0.35176830
v 0.27854000 0.95854810 0.35176830
v -0.29754030 2.00702600 0.35176830
v 0.29754030 2.00702600 0.35176830
v -0.27854000 1.98802600 0.35176830
v 0.27854000 1.98802600 0.35176830
v 0.00000000 2.00702600 0.35176820
v 0.00000000 1.98802600 0.35176820
v 0.00000000 0.93954800 0.37576820
v -0.27854000 0.95854810 0.37576830
v 0.00000000 0.95854810 0.37576820
v 0.27854000 0.95854810 0.37576830
v -0.29754030 0.93954800 0.37576830
v 0.29754030 0.93954800 0.37576830
v -0.27854000 1.98802600 0.37576830
v 0.27854000 1.98802600 0.37576830
v -0.29754030 2.00702600 0.37576830
v 0.29754030 2.00702600 0.37576830
v 0.00000000 1.98802600 0.37576820
v 0.00000000 2.00702600 0.37576820
v -0.34834900 0.93954800 0.33005790
v -0.34834900 2.00702600 0.33005790
v -0.36178400 1.98802600 0.31662290
v -0.36178400 0.95854810 0.31662290
v -0.60229000 1.98802600 0.07611687
v -0.61572510 0.93954800 0.06268181
v -0.61572510 2.00702600 0.06268186
v -0.60229000 0.95854810 0.07611683
vn 0.70710090 0.00000000 -0.70711260
vn 0.70710090 -0.00000020 -0.70711260
vn 0.70710300 -0.00000013 -0.70711060
vn 0.70710250 0.00000751 -0.70711090
vn 0.70710090 -0.00000020 -0.70711260
vn 0.70710020 -0.00000564 -0.70711330
vn 0.70710650 -0.00000035 -0.70710710
vn 0.70710300 -0.00000013 -0.70711060
vn 0.70711990 0.00000000 -0.70709360
vn 0.70712040 0.00000000 -0.70709310
vn 0.70712280 0.00000282 -0.70709080
vn 0.70712080 0.00000611 -0.70709270
vn 0.70710250 0.00000751 -0.70711090
vn 0.70710680 0.00002750 -0.70710660
vn 0.70710090 0.00000000 -0.70711260
vn 0.70710100 0.00000000 -0.70711240
vn -0.00000012 0.00000000 -1.00000000
vn 0.00000155 -0.00000097 -1.00000000
vn 0.00000000 0.00000000 -1.00000000
vn 0.00000000 0.00000000 -1.00000000
vn 0.00000000 0.00000000 -1.00000000
vn 0.00000000 0.00000000 -1.00000000
vn 0.00000000 0.00000000 -1.00000000
vn 0.00000000 0.00000000 -1.00000000
vn 0.00000000 0.00000000 -1.00000000
vn 0.00000000 0.00000000 -1.00000000
vn 0.00000000 0.00000000 -1.00000000
vn 0.00000000 0.00000000 -1.00000000
vn 0.00000000 0.00000000 -1.00000000
vn 0.00000000 0.00000000 -1.00000000
vn 0.00000000 0.00000000 -1.00000000
vn 0.00000000 0.00000000 -1.00000000
vn 0.00000000 0.00000000 -1.00000000
vn 0.00000012 0.00000000 -1.00000000
vn 0.00000000 0.00000000 -1.00000000
vn -0.00000155 -0.00000097 -1.00000000
vn 0.00000000 0.00000000 1.00000000
vn 0.00000024 0.00000000 1.00000000
vn 0.00000000 0.00000000 1.00000000
vn 0.00000021 0.00000000 1.00000000
vn 0.00000000 0.00000000 1.00000000
vn 0.00000000 0.00000000 1.00000000
vn 0.00000021 0.00000000 1.00000000
vn 0.00000000 0.00000000 1.00000000
vn 0.00000000 0.00000000 1.00000000
vn -0.00000021 0.00000000 1.00000000
vn -0.00000024 0.00000000 1.00000000
vn 0.00000000 0.00000000 1.00000000
vn 0.00000000 0.00000000 1.00000000
vn 0.00000000 0.00000000 1.00000000
vn -0.00000021 0.00000000 1.00000000
vn 0.00000000 0.00000000 1.00000000
vn 0.00000000 0.00000000 1.00000000
vn 0.00000000 0.00000000 1.00000000
vn 0.00000000 0.00000000 1.00000000
vn 0.00000000 0.00000000 1.00000000
vn 0.00000000 0.00000000 1.00000000
vn 0.00000000 0.00000000 1.00000000
vn 0.00000000 0.00000000 1.00000000
vn 0.00000000 0.00000000 1.00000000
vn 0.00000019 0.00000000 1.00000000
vn 0.00000000 0.00000000 1.00000000
vn -0.00000018 0.00000000 1.00000000
vn 0.00000047 0.00000000 1.00000000
vn 0.00000027 0.00000000 1.00000000
vn 0.00000000 0.00000000 1.00000000
vn 0.00000000 0.00000000 1.00000000
vn -0.00000031 0.00000000 1.00000000
vn -0.00000024 0.00000000 1.00000000
vn -0.00000018 0.00000000 1.00000000
vn -0.00000081 0.00000000 1.00000000
vn -0.70710100 0.00000000 -0.70711240
vn -0.70710100 0.00000000 -0.70711240
vn -0.70710100 0.00000000 -0.70711240
vn -0.70710100 0.00000000 -0.70711240
vn 0.70710360 0.00000000 0.70711000
vn 0.70710360 0.00000000 0.70711000
vn 0.70710360 0.00000000 0.70710990
vn 0.70710360 0.00000000 0.70711000
vn 0.00000000 1.00000000 0.00000000
vn 0.00000000 1.00000000 0.00000000
vn 0.00000000 1.00000000 0.00000000
vn 0.00000000 1.00000000 0.00000000
vn 0.00000000 1.00000000 0.00000000
vn 0.00000000 1.00000000 0.00000000
vn 0.00000000 -1.00000000 0.00000000
vn 0.00000000 -1.00000000 0.00000000
vn 0.00000000 -1.00000000 0.00000000
vn 0.00000000 -1.00000000 0.00000000
vn 0.00000000 -1.00000000 0.00000000
vn 0.00000000 -1.00000000 0.00000000
vn 0.00000000 1.00000000 -0.00000075
vn 0.00000000 1.00000000 -0.00000075
vn 0.00000000 1.00000000 -0.00000075
vn 0.00000000 1.00000000 -0.00000075
vn 0.00000000 -1.00000000 0.00000112
vn 0.00000000 -1.00000000 0.00000112
vn 0.00000000 -1.00000000 0.00000112
vn 0.00000000 -1.00000000 0.00000112
vn 1.00000000 0.00000000 0.00000000
vn 1.00000000 0.00000000 0.00000000
vn 1.00000000 0.00000000 0.00000000
vn 1.00000000 0.00000000 0.00000000
vn 0.00000728 0.00000000 -1.00000000
vn 0.00000730 0.00000000 -1.00000000
vn 0.00000728 0.00000000 -1.00000000
vn 0.00000758 0.00000013 -1.00000000
vn 0.00000791 0.00000000 -1.00000000
vn 0.00000828 0.00000040 -1.00000000
vn 0.00000412 0.00000044 -1.00000000
vn 0.00000412 0.00000044 -1.00000000
vn 0.00000000 0.00000044 -1.00000000
vn 0.00000000 0.00000044 -1.00000000
vn -0.00000412 0.00000044 -1.00000000
vn -0.00000412 0.00000044 -1.00000000
vn -0.00000763 0.00000013 -1.00000000
vn -0.00000828 0.00000040 -1.00000000
vn -0.00000791 0.00000000 -1.00000000
vn -0.00000737 0.00000000 -1.00000000
vn -0.00000735 0.00000000 -1.00000000
vn -0.00000735 0.00000000 -1.00000000
vn 0.00000000 -1.00000000 0.00000012
vn 0.00000000 -1.00000000 0.00000000
vn 0.00000000 -1.00000000 0.00000000
vn 0.00000000 -1.00000000 -0.00000018
vn 0.00000000 -1.00000000 0.00000022
vn 0.00000000 -1.00000000 0.00000000
vn 0.00000000 -1.00000000 -0.00000028
vn 0.00000000 -1.00000000 -0.00000743
vn 0.00000000 -1.00000000 -0.00000013
vn 0.00000000 -1.00000000 0.00000000
vn 0.00000000 -1.00000000 -0.00000032
vn 0.00000000 -1.00000000 -0.00000038
vn 0.00000000 -1.00000000 -0.00000022
vn 0.00000000 -1.00000000 -0.00000013
vn 0.00000000 -1.00000000 -0.00000743
vn 0.00000000 -1.00000000 0.00000000
vn 0.00000000 -1.00000000 -0.00000014
vn 0.00000000 -1.00000000 0.00000000
vn 0.00000000 -1.00000000 0.00000000
vn 0.00000000 -1.00000000 0.00000000
vn 1.00000000 0.00000000 0.00000000
vn 1.00000000 0.00000000 0.00000000
vn 1.00000000 0.00000000 0.00000000
vn 1.00000000 0.00000000 0.00000000
vn 0.00000755 -0.46103830 -0.88738020
vn 0.00000755 -0.46103760 -0.88738070
vn 0.00000755 -0.46103830 -0.88738020
vn 0.00000755 -0.46103760 -0.88738050
vn 0.00000361 -0.46103740 -0.88738070
vn 0.00000361 -0.46103740 -0.88738070
vn 0.00000000 -0.46103740 -0.88738070
vn 0.00000000 -0.46103750 -0.88738070
vn -0.00000361 -0.46103760 -0.88738050
vn -0.00000361 -0.46103760 -0.88738050
vn -0.00000755 -0.46103720 -0.88738080
vn -0.00000755 -0.46103710 -0.88738090
vn -0.00000755 -0.46103150 -0.88738380
vn -0.00000755 -0.46103150 -0.88738380
vn -1.00000000 0.00000000 0.00000000
vn -1.00000000 0.00000000 0.00000000
vn -1.00000000 0.00000000 0.00000000
vn -1.00000000 0.00000000 0.00000000
vn -1.00000000 0.00000000 0.00000000
vn -1.00000000 0.00000000 0.00000000
vn -1.00000000 0.00000000 0.00000000
vn -1.00000000 0.00000000 0.00000000
vn -1.00000000 0.00000000 0.00000000
vn -1.00000000 0.00000000 0.00000000
vn -1.00000000 0.00000497 0.00000000
vn -1.00000000 0.00000256 0.00000000
vn -1.00000000 0.00000000 0.00000000
vn -0.70710800 0.00000000 0.70710550
vn -0.70710780 0.00000000 0.70710570
vn -0.70710870 0.00000000 0.70710480
vn -0.70710660 0.00000000 0.70710680
vn -0.70710770 0.00000000 0.70710580
vn -0.70710730 0.00000000 0.70710620
vn -0.70711000 0.00000013 0.70710340
vn -0.70710680 0.00000000 0.70710680
vn -0.70710730 0.00000000 0.70710620
vn -0.70711120 0.00000019 0.70710230
vn -0.70710710 0.00000000 0.70710640
vn -0.70711120 0.00000017 0.70710240
vn -0.70710770 0.00000000 0.70710580
vn -0.70711180 0.00000020 0.70710170
vn -0.70710660 0.00000000 0.70710690
vn -0.70710770 0.00000000 0.70710580
vn -0.70710710 0.00000000 0.70710640
vn -0.70710710 0.00000000 0.70710640
vn -0.70710770 0.00000000 0.70710580
vn -0.70710730 0.00000000 0.70710620
vn -0.70710740 0.00000000 0.70710610
vn -0.70711450 0.00000000 -0.70709900
vn -0.70711450 0.00000000 -0.70709900
vn -0.70711450 0.00000000 -0.70709900
vn -0.70711450 0.00000000 -0.70709900
vn -0.70711450 0.00000000 -0.70709900
vn -0.70711450 0.00000000 -0.70709900
vn -0.70711450 0.00000000 -0.70709900
vn -0.70711450 0.00000000 -0.70709900
vn 0.70711430 0.00000000 0.70709930
vn 0.70711420 0.00000000 0.70709930
vn 0.70711430 0.00000000 0.70709930
vn 0.70711420 0.00000000 0.70709930
vn 0.70711820 0.00000000 0.70709530
vn 0.70711820 0.00000000 0.70709530
vn 0.70711820 0.00000000 0.70709530
vn 0.70711820 0.00000000 0.70709530
vn 0.00000000 1.00000000 0.00000000
vn 0.00000000 1.00000000 0.00000000
vn 0.00000000 1.00000000 0.00000000
vn 0.00000000 1.00000000 0.00000000
vn 0.00000000 1.00000000 0.00000000
vn 0.00000000 1.00000000 0.00000000
vn 0.00000000 1.00000000 0.00000000
vn 0.00000000 1.00000000 0.00000000
vn 0.00000000 -1.00000000 0.00000000
vn 0.00000000 -1.00000000 0.00000000
vn 0.00000000 -1.00000000 0.00000000
vn 0.00000000 -1.00000000 0.00000000
vn 0.00000000 -1.00000000 0.00000000
vn 0.00000000 -1.00000000 0.00000000
vn 0.00000000 -1.00000000 0.00000000
vn 0.00000000 -1.00000000 0.00000000
vn 0.00000000 1.00000000 0.00000000
vn 0.00000000 1.00000000 0.00000000
vn 0.00000000 1.00000000 0.00000000
vn 0.00000000 1.00000000 0.00000000
vn 0.00000000 1.00000000 0.00000000
vn 0.00000000 1.00000000 0.00000000
vn 0.00000000 1.00000000 0.00000000
vn 0.00000000 1.00000000 0.00000000
vn 0.00000000 1.00000000 0.00000000
vn 0.00000000 1.00000000 0.00000000
vn 0.00000000 1.00000000 0.00000000
vn 0.00000000 1.00000000 0.00000000
vn 0.00000000 -1.00000000 0.00000000
vn 0.00000000 -1.00000000 0.00000000
vn 0.00000000 -1.00000000 0.00000000
vn 0.00000000 -1.00000000 0.00000000
vn 0.00000000 -1.00000000 0.00000000
vn 0.00000000 -1.00000000 0.00000000
vn 0.00000000 -1.00000000 0.00000000
vn 0.00000000 -1.00000000 0.00000000
vn 0.00000000 -1.00000000 0.00000000
vn 0.00000000 -1.00000000 0.00000000
vn 0.00000000 -1.00000000 0.00000000
vn 0.00000000 -1.00000000 0.00000000
vn 1.00000000 0.00000000 0.00000000
vn 1.00000000 0.00000000 0.00000000
vn 1.00000000 0.00000000 0.00000000
vn 1.00000000 0.00000000 0.00000000
vn 1.00000000 0.00000000 0.00000000
vn 1.00000000 0.00000000 0.00000000
vn 1.00000000 0.00000000 0.00000000
vn 1.00000000 0.00000000 0.00000000
vn -0.70710560 -0.00000365 0.70710780
vn -0.70710610 0.00000000 0.70710740
vn -0.70710610 0.00000000 0.70710740
vn -0.70710570 -0.00000365 0.70710780
vn -0.70710610 0.00000000 0.70710740
vn -0.70710580 0.00000000 0.70710770
vn -0.70710610 0.00000000 0.70710740
vn -0.70710580 0.00000000 0.70710770
vn -0.70710530 -0.00000365 0.70710820
vn -0.70710540 -0.00000365 0.70710810
vn -0.70710570 -0.00000365 0.70710780
vn -0.70710560 -0.00000365 0.70710780
vn 0.00000000 -1.00000000 0.00000000
vn 0.00000000 -1.00000000 0.00000000
vn 0.00000000 -1.00000000 0.00000000
vn 0.00000000 -1.00000000 0.00000000
vn 0.00000000 -1.00000000 0.00000030
vn 0.00000000 -1.00000000 0.00000000
vn 0.00000000 -1.00000000 0.00000000
vn 0.00000000 -1.00000000 0.00000030
vn 0.00000000 -1.00000000 0.00000000
vn 0.00000000 -1.00000000 0.00000000
vn 0.00000000 -1.00000000 0.00000000
vn 0.00000000 -1.00000000 0.00000000
vn 0.00000000 -1.00000000 0.00000000
vn 0.00000000 -1.00000000 0.00000000
vn 0.00000000 -1.00000000 0.00000000
vn 0.00000000 -1.00000000 0.00000000
vn 0.00000000 -1.00000000 0.00000000
vn 0.00000000 -1.00000000 0.00000000
vn 0.00000000 -1.00000000 0.00000000
vn 0.00000000 -1.00000000 0.00000000
vn 0.00000000 -1.00000000 0.00000000
vn 0.00000000 -1.00000000 0.00000000
vn 0.00000000 -1.00000000 0.00000000
vn 0.00000000 -1.00000000 0.00000000
vn 0.00000000 -1.00000000 0.00000000
vn 0.00000000 -1.00000000 0.00000000
vn 0.00000000 -1.00000000 0.00000000
vn 0.00000000 -1.00000000 0.00000000
vn 0.00000000 -1.00000000 0.00000000
vn 0.00000000 -1.00000000 0.00000000
vn 0.00000000 -1.00000000 0.00000000
vn 0.00000000 1.00000000 0.00000000
vn 0.00000490 1.00000000 0.00000000
vn 0.00000490 1.00000000 0.00000000
vn 0.00000000 1.00000000 0.00000000
vn 0.00000000 1.00000000 0.00000000
vn 0.00000000 1.00000000 0.00000000
vn 0.00000000 1.00000000 0.00000000
vn 0.00000000 1.00000000 0.00000000
vn 0.00000000 1.00000000 0.00000000
vn 0.00000000 1.00000000 0.00000000
vn 0.00000000 1.00000000 0.00000000
vn 0.00000000 1.00000000 0.00000000
vn 0.00000000 1.00000000 0.00000000
vn 0.00000000 1.00000000 0.00000000
vn 0.00000000 1.00000000 0.00000000
vn 0.00000000 1.00000000 0.00000000
vn 0.00000000 1.00000000 0.00000000
vn 0.00000000 1.00000000 0.00000000
vn 0.00000000 1.00000000 0.00000000
vn 0.00000000 1.00000000 0.00000000
vn 0.00000000 1.00000000 0.00000000
vn 0.00000000 1.00000000 0.00000000
vn 0.00000000 1.00000000 0.00000000
vn 0.00000000 1.00000000 0.00000000
vn 0.00000000 1.00000000 0.00000000
vn 0.00000000 1.00000000 0.00000000
vn 0.00000000 1.00000000 0.00000000
vn -0.00000490 1.00000000 0.00000000
vn -0.00000490 1.00000000 0.00000000
vn 0.00000736 -0.00000139 -1.00000000
vn 0.00000855 -0.00000139 -1.00000000
vn 0.00000736 -0.00000139 -1.00000000
vn 0.00000855 -0.00000139 -1.00000000
vn 0.00000414 -0.00000034 -1.00000000
vn 0.00000414 -0.00000034 -1.00000000
vn 0.00000000 0.00000069 -1.00000000
vn 0.00000000 0.00000069 -1.00000000
vn -0.00000414 -0.00000034 -1.00000000
vn -0.00000414 -0.00000034 -1.00000000
vn -0.00000855 -0.00000139 -1.00000000
vn -0.00000855 -0.00000139 -1.00000000
vn -0.00000735 -0.00000139 -1.00000000
vn -0.00000735 -0.00000139 -1.00000000
vn -0.70710090 0.00000000 -0.70711260
vn -0.70710640 -0.00001767 -0.70710710
vn -0.70710020 0.00000000 -0.70711330
vn -0.70710300 -0.00000658 -0.70711060
vn -0.70710090 0.00000000 -0.70711260
vn -0.70711990 -0.00000465 -0.70709360
vn -0.70712040 -0.00000414 -0.70709310
vn -0.70712270 0.00000212 -0.70709080
vn -0.70712080 0.00000428 -0.70709270
vn -0.70710250 0.00000501 -0.70711100
vn -0.70710680 0.00001833 -0.70710680
vn -0.70710100 0.00000000 -0.70711240
vn 0.70710100 0.00000000 -0.70711240
vn 0.70710100 0.00000000 -0.70711240
vn 0.70710100 0.00000000 -0.70711240
vn 0.70710100 0.00000000 -0.70711240
vn -0.70710360 0.00000000 0.70711000
vn -0.70710360 0.00000000 0.70711000
vn -0.70710360 0.00000000 0.70710990
vn -0.70710360 0.00000000 0.70711000
vn 0.00000000 1.00000000 0.00000000
vn 0.00000000 1.00000000 0.00000000
vn 0.00000000 1.00000000 0.00000000
vn 0.00000000 1.00000000 0.00000000
vn 0.00000000 -1.00000000 0.00000000
vn 0.00000000 -1.00000000 0.00000000
vn 0.00000000 -1.00000000 0.00000000
vn 0.00000000 -1.00000000 0.00000000
vn -1.00000000 0.00000012 0.00000000
vn -1.00000000 0.00000012 0.00000000
vn -1.00000000 0.00000012 0.00000000
vn -1.00000000 0.00000012 0.00000000
vn -1.00000000 0.00000000 0.00000000
vn -1.00000000 0.00000000 0.00000000
vn -1.00000000 0.00000000 0.00000000
vn -1.00000000 0.00000000 0.00000000
vn 1.00000000 0.00000000 0.00000000
vn 1.00000000 0.00000000 0.00000000
vn 1.00000000 0.00000000 0.00000000
vn 1.00000000 0.00000000 0.00000000
vn 1.00000000 0.00000000 0.00000000
vn 1.00000000 0.00000000 0.00000000
vn 1.00000000 0.00000000 0.00000000
vn 1.00000000 0.00000000 0.00000000
vn 1.00000000 0.00000000 0.00000000
vn 1.00000000 0.00000000 0.00000000
vn 1.00000000 0.00000000 0.00000000
vn 1.00000000 0.00000000 0.00000000
vn 1.00000000 0.00000000 0.00000000
vn 0.70710800 0.00000000 0.70710550
vn 0.70710870 0.00000000 0.70710480
vn 0.70710780 0.00000000 0.70710570
vn 0.70710660 0.00000000 0.70710680
vn 0.70710770 0.00000000 0.70710580
vn 0.70710730 0.00000000 0.70710620
vn 0.70711010 0.00000000 0.70710340
vn 0.70710680 0.00000000 0.70710680
vn 0.70710730 0.00000000 0.70710620
vn 0.70711120 0.00000000 0.70710230
vn 0.70710710 0.00000000 0.70710640
vn 0.70711120 0.00000000 0.70710240
vn 0.70710770 0.00000000 0.70710580
vn 0.70711190 0.00000000 0.70710160
vn 0.70710660 0.00000000 0.70710690
vn 0.70710770 0.00000000 0.70710580
vn 0.70710710 0.00000000 0.70710640
vn 0.70710710 0.00000000 0.70710640
vn 0.70710770 0.00000000 0.70710580
vn 0.70710730 0.00000000 0.70710620
vn 0.70710740 0.00000000 0.70710610
vn 0.70711450 0.00000000 -0.70709900
vn 0.70711450 0.00000000 -0.70709900
vn 0.70711450 0.00000000 -0.70709900
vn 0.70711450 0.00000000 -0.70709900
vn 0.70711450 0.00000000 -0.70709900
vn 0.70711450 0.00000000 -0.70709900
vn 0.70711450 0.00000000 -0.70709900
vn 0.70711450 0.00000000 -0.70709900
vn -0.70711430 0.00000000 0.70709930
vn -0.70711420 0.00000000 0.70709930
vn -0.70711430 0.00000000 0.70709930
vn -0.70711420 0.00000000 0.70709930
vn -0.70711820 0.00000000 0.70709530
vn -0.70711820 0.00000000 0.70709530
vn -0.70711820 0.00000000 0.70709530
vn -0.70711820 0.00000000 0.70709530
vn 0.00000000 1.00000000 -0.00000262
vn 0.00000000 1.00000000 -0.00000262
vn 0.00000000 1.00000000 -0.00000262
vn 0.00000000 1.00000000 -0.00000262
vn 0.00000000 1.00000000 0.00000262
vn 0.00000000 1.00000000 0.00000262
vn 0.00000000 1.00000000 0.00000262
vn 0.00000000 1.00000000 0.00000262
vn 0.00000000 -1.00000000 0.00000525
vn 0.00000000 -1.00000000 0.00000525
vn 0.00000000 -1.00000000 0.00000525
vn 0.00000000 -1.00000000 0.00000525
vn 0.00000000 -1.00000000 -0.00000525
vn 0.00000000 -1.00000000 -0.00000525
vn 0.00000000 -1.00000000 -0.00000525
vn 0.00000000 -1.00000000 -0.00000525
vn -1.00000000 0.00000000 0.00000000
vn -1.00000000 0.00000000 0.00000000
vn -1.00000000 0.00000000 0.00000000
vn -1.00000000 0.00000000 0.00000000
vn -1.00000000 0.00000000 0.00000000
vn -1.00000000 0.00000000 0.00000000
vn -1.00000000 0.00000000 0.00000000
vn -1.00000000 0.00000000 0.00000000
vn 0.70710590 -0.00000068 0.70710760
vn 0.70710590 -0.00000068 0.70710770
vn 0.70710610 -0.00000023 0.70710740
vn 0.70710610 -0.00000023 0.70710740
vn -0.70710590 0.00000000 -0.70710760
vn -0.70710590 0.00000000 -0.70710750
vn -0.70710610 0.00000616 -0.70710740
vn -0.70710620 0.00000616 -0.70710730
vn -0.70710620 0.00000616 -0.70710730
vn -0.70710610 0.00000616 -0.70710740
vn -0.70710680 0.00000593 -0.70710680
vn -0.70710680 0.00000593 -0.70710680
vn -0.70710650 -0.00000023 -0.70710700
vn -0.70710660 -0.00000023 -0.70710690
vn -0.70710590 0.00000000 -0.70710750
vn -0.70710590 0.00000000 -0.70710760
vn 0.70710610 -0.00000023 0.70710740
vn 0.70710610 -0.00000023 0.70710740
vn 0.70710570 -0.00000023 0.70710780
vn 0.70710570 -0.00000023 0.70710780
vn 0.70710550 -0.00000068 0.70710810
vn 0.70710550 -0.00000068 0.70710800
vn 0.70710590 -0.00000068 0.70710770
vn 0.70710590 -0.00000068 0.70710760
vn 0.00000000 1.00000000 -0.00000020
vn 0.00000000 1.00000000 0.00000021
vn 0.00000000 1.00000000 0.00000315
vn 0.00000000 1.00000000 -0.00000229
vn 0.00000000 1.00000000 -0.00000237
vn 0.00000000 1.00000000 0.00000000
vn 0.00000000 1.00000000 0.00000000
vn 0.00000000 1.00000000 -0.00000021
vn 0.00000000 1.00000000 0.00000000
vn 0.00000000 1.00000000 0.00000000
vn 0.00000000 1.00000000 0.00000000
vn 0.00000000 1.00000000 -0.00000243
vn 0.00000000 1.00000000 -0.00000237
vn 0.00000000 1.00000000 -0.00000065
vn 0.00000000 1.00000000 0.00000000
vn 0.00000000 1.00000000 0.00000000
vn 0.00000000 1.00000000 0.00000000
vn 0.00000000 1.00000000 0.00000000
vn 0.00000000 1.00000000 0.00000000
vn 0.00000000 1.00000000 0.00000000
vn 0.00000000 1.00000000 0.00000000
vn 0.00000000 1.00000000 0.00000000
vn 0.00000000 1.00000000 -0.00000065
vn 0.00000000 1.00000000 0.00000000
vn -0.00000096 0.00000000 -1.00000000
vn 0.00000000 0.00000000 -1.00000000
vn 0.00000000 0.00000000 -1.00000000
vn 0.00000051 0.00000000 -1.00000000
vn -0.00000096 0.00000000 -1.00000000
vn 0.00000051 0.00000000 -1.00000000
vn -0.00000102 0.00000000 -1.00000000
vn 0.00000057 0.00000000 -1.00000000
vn -0.00000102 0.00000000 -1.00000000
vn 0.00000057 0.00000000 -1.00000000
vn 0.00000000 -0.00000013 -1.00000000
vn 0.00000000 -0.00000013 -1.00000000
vn 0.00000000 -0.00000026 1.00000000
vn 0.00000108 0.00000000 1.00000000
vn 0.00000000 -0.00000026 1.00000000
vn -0.00000072 0.00000000 1.00000000
vn 0.00000108 0.00000000 1.00000000
vn -0.00000072 0.00000000 1.00000000
vn 0.00000102 0.00000000 1.00000000
vn -0.00000066 0.00000000 1.00000000
vn 0.00000102 0.00000000 1.00000000
vn -0.00000066 0.00000000 1.00000000
vn 0.00000000 0.00000013 1.00000000
vn 0.00000000 0.00000013 1.00000000
vn 0.70710660 -0.00000365 -0.70710690
vn 0.70710620 0.00000365 -0.70710730
vn 0.70710620 0.00000365 -0.70710730
vn 0.70710660 -0.00000365 -0.70710680
vn 0.70710570 0.00000377 -0.70710780
vn 0.70710610 -0.00000353 -0.70710740
vn 0.70710570 0.00000377 -0.70710780
vn 0.70710620 -0.00000353 -0.70710730
vt -8.84353400 0.17053510
vt -10.64091000 0.17053510
vt -10.64091000 0.20215710
vt -8.84353400 0.20215700
vt -8.86794900 0.92830560
vt -8.80144000 0.92830470
vt -8.80144000 0.89668080
vt -8.86794900 0.89668180
vt -8.86794900 0.44648450
vt -8.80144000 0.39528750
vt -10.70742000 0.39528760
vt -10.66533000 0.44648460
vt -10.66533000 0.89668180
vt -10.70742000 0.89668190
vt -10.66533000 0.92830570
vt -10.70742000 0.92830570
vt -10.70742000 0.12851430
vt -10.70742000 0.17053510
vt -10.64091000 0.17053510
vt -10.64091000 0.12851430
vt -8.84353400 0.17053510
vt -10.70742000 -0.37247270
vt -10.64091000 -0.37247270
vt -8.84353400 0.12851430
vt -8.80144100 0.17053510
vt -8.80144100 0.12851430
vt -10.64091000 -0.87345890
vt -8.84353400 -0.37247280
vt -8.80144100 -0.37247280
vt -8.80144100 -0.87345880
vt -8.84353400 -0.87345890
vt -8.80144100 -0.91547960
vt -8.84353400 -0.91547970
vt -10.70742000 -0.87345890
vt -10.64091000 -0.91547970
vt -10.70742000 -0.91547970
vt -10.74953000 -1.84492400
vt -10.84419000 -1.91763300
vt -10.84419000 -1.84492400
vt -10.74953000 -1.91763200
vt -10.70318000 -1.84492400
vt -10.84419000 -2.41861900
vt -10.70318000 -1.91763200
vt -10.66108000 -1.84492400
vt -10.74953000 -2.41861800
vt -10.74953000 -2.91960500
vt -10.84419000 -2.91960500
vt -10.74953000 -2.99231300
vt -10.84419000 -2.99231300
vt -10.70318000 -2.99231300
vt -10.70318000 -2.91960500
vt -10.66108000 -2.99231300
vt -10.70318000 -2.41861900
vt -10.66108000 -1.91763200
vt -10.66108000 -2.41861900
vt -8.86370800 -1.91763300
vt -10.66108000 -2.91960500
vt -8.86370800 -2.91960500
vt -8.86370700 -1.84492400
vt -8.86370800 -2.99231300
vt -8.79719800 -1.91763300
vt -8.79719900 -2.41861900
vt -8.79719700 -1.84492400
vt -8.72414400 -1.84492500
vt -8.72414400 -1.91763300
vt -8.86370800 -2.41861900
vt -8.72414400 -2.41861900
vt -8.72414400 -2.91960500
vt -8.79719800 -2.91960500
vt -8.79719800 -2.99231300
vt -8.72414400 -2.99231300
vt -12.77713000 -2.16319300
vt -12.77713000 -2.13461900
vt -11.04373000 -2.13462000
vt -11.04373000 -2.16319400
vt -8.89994100 0.50958630
vt -8.89994100 0.48101230
vt -10.63333000 0.48101240
vt -10.63333000 0.50958640
vt -7.75816500 -2.74697000
vt -7.75816500 -2.78738000
vt -8.22716000 -2.78738000
vt -8.22716000 -2.74697000
vt -8.69615500 -2.74697000
vt -8.69615500 -2.78738000
vt -8.22716000 -2.88304600
vt -7.75816600 -2.84263700
vt -7.75816500 -2.88304700
vt -8.22716000 -2.84263700
vt -8.69615400 -2.84263700
vt -8.69615600 -2.88304700
vt -6.60711600 1.54207900
vt -6.57854000 1.51350500
vt -6.98349500 1.10855100
vt -7.01206900 1.13712500
vt -6.57854000 1.61367600
vt -6.60711500 1.58510200
vt -7.01207000 1.99005600
vt -6.98349400 2.01863000
vt -7.04005700 1.65367600
vt -7.04005800 1.61326600
vt -8.77345100 1.61326600
vt -8.77345100 1.65367600
vt -10.78780000 -0.44835660
vt -10.73541000 1.45762300
vt -10.73541000 -0.44835660
vt -10.78780000 1.45762300
vt -10.73541000 1.53067700
vt -10.78780000 1.53067700
vt -11.32081000 1.53067700
vt -11.32081000 1.45762300
vt -11.86382000 1.53067700
vt -11.86382000 1.45762300
vt -12.40683000 1.45762300
vt -12.40683000 1.53067700
vt -12.93984000 1.45762300
vt -12.93984000 1.53067700
vt -12.99223000 1.53067700
vt -12.99223000 1.45762300
vt -12.93984000 -0.44835660
vt -12.99223000 -0.44835640
vt -10.84018000 -0.82151410
vt -11.37320000 -0.68331610
vt -10.84018000 -0.68331240
vt -11.37320000 -0.82151780
vt -11.34157000 -1.32290700
vt -11.91620000 -0.68331620
vt -11.37320000 -1.32290700
vt -11.37320000 -1.35453100
vt -11.41522000 -1.35453100
vt -11.91620000 -1.35453100
vt -11.91620000 -0.82151790
vt -11.91620000 -1.32290700
vt -12.45921000 -1.32290700
vt -12.41719000 -1.35453100
vt -12.45921000 -1.35453100
vt -12.49083000 -1.32290700
vt -12.45921000 -0.82151780
vt -12.45921000 -0.68331610
vt -12.99223000 -0.82151410
vt -12.99223000 -0.68331240
vt -10.70742000 0.39528760
vt -8.80144000 0.39528750
vt -8.80144000 0.25708580
vt -10.70742000 0.25708590
vt -10.73541000 -0.63299270
vt -10.78780000 -0.53833100
vt -10.73541000 -0.53833100
vt -10.78780000 -0.63299270
vt -11.32081000 -0.53833090
vt -11.32081000 -0.63299260
vt -11.86382000 -0.53833100
vt -11.86382000 -0.63299270
vt -12.40683000 -0.63299260
vt -12.40683000 -0.53833090
vt -12.93984000 -0.63299270
vt -12.93984000 -0.53833100
vt -12.99223000 -0.63299250
vt -12.99223000 -0.53833080
vt -10.87218000 -1.69632800
vt -10.94523000 -1.50573900
vt -10.87218000 -1.50573900
vt -10.94524000 -1.69632800
vt -12.85121000 -1.50573800
vt -12.85121000 -1.69632800
vt -12.89756000 -1.69632800
vt -12.89756000 -1.50573800
vt -12.99223000 -1.69632800
vt -12.99223000 -1.50573900
vt -12.99223000 -1.45682500
vt -12.89756000 -1.40764300
vt -12.85121000 -1.40764300
vt -10.94524000 -2.25104300
vt -10.87218000 -2.19772100
vt -10.87218000 -2.25104300
vt -10.94524000 -2.19772100
vt -10.87218000 -1.69632800
vt -11.01174000 -2.25104300
vt -10.94524000 -1.69632800
vt -11.01174000 -2.19772100
vt -12.80912000 -2.25104300
vt -11.01174000 -1.74752400
vt -12.80912000 -2.19772100
vt -12.85121000 -1.69632800
vt -12.85121000 -2.25104300
vt -12.80912000 -1.74752400
vt -12.85121000 -2.19772100
vt -12.89756000 -2.25104300
vt -12.89756000 -2.19772100
vt -12.89756000 -1.69632800
vt -12.99223000 -2.25104300
vt -12.99223000 -1.69632800
vt -12.99223000 -2.19772100
vt -8.84353400 0.20215700
vt -10.64091000 0.20215710
vt -10.64091000 0.21406370
vt -8.84353400 0.21406360
vt -11.01174000 -2.19772100
vt -12.80912000 -2.19772100
vt -12.80912000 -2.18581500
vt -11.01174000 -2.18581500
vt -8.86794900 0.44648450
vt -10.66533000 0.44648460
vt -10.66533000 0.45839120
vt -8.86794900 0.45839120
vt -10.70742000 1.69747500
vt -8.91004500 1.69747500
vt -8.91004500 1.68556900
vt -10.70742000 1.68556900
vt -7.20409000 -2.48225600
vt -7.65428700 -2.93245300
vt -7.66619300 -2.92054700
vt -7.21599500 -2.47035000
vt -6.90277400 -2.41542100
vt -6.45257700 -1.96522500
vt -6.44067000 -1.97713100
vt -6.89086700 -2.42732700
vt -6.45257700 -1.92220200
vt -6.90277300 -1.47200400
vt -6.89086700 -1.46009900
vt -6.44067000 -1.91029700
vt -6.44067000 -0.96688100
vt -6.89086700 -1.41707700
vt -6.90277300 -1.40517000
vt -6.45257500 -0.95497330
vt -7.69418200 -2.49047500
vt -8.19516800 -2.47363800
vt -7.69418200 -2.47363800
vt -8.19516800 -2.49047500
vt -8.69615500 -2.49047500
vt -8.69615400 -2.47363800
vt -8.19516800 -2.54197000
vt -7.69418100 -2.54197000
vt -7.69418200 -2.55880800
vt -8.19516800 -2.55880800
vt -8.69615400 -2.55880800
vt -8.69615400 -2.54197000
vt -8.19516800 -2.61030400
vt -7.69418100 -2.61030400
vt -7.69418200 -2.62714300
vt -8.19516800 -2.62714200
vt -8.69615400 -2.62714200
vt -8.69615500 -2.61030400
vt -7.69418100 -2.69547500
vt -8.19516800 -2.67863700
vt -7.69418100 -2.67863700
vt -8.19516800 -2.69547500
vt -8.69615500 -2.69547500
vt -8.69615500 -2.67863700
vt -8.91004500 1.74049800
vt -10.70742000 1.74049800
vt -10.70742000 1.75733600
vt -8.91004500 1.75733600
vt -10.70742000 1.81719500
vt -8.91004500 1.81719500
vt -8.91004500 1.80035700
vt -10.70742000 1.80035700
vt -11.01174000 -2.18581500
vt -12.80912000 -2.18581500
vt -12.77713000 -2.16319300
vt -11.04373000 -2.16319400
vt -10.70742000 1.86021700
vt -10.67543000 2.28779200
vt -10.67543000 1.88283900
vt -10.70742000 2.31041400
vt -8.94203600 2.28779200
vt -8.91004500 2.31041400
vt -8.94203600 1.88283800
vt -8.91004500 1.86021700
vt -10.73541000 3.94311900
vt -10.78780000 3.99203200
vt -10.73541000 3.99203200
vt -10.78780000 3.94311800
vt -10.73541000 3.75252900
vt -11.32081000 3.99202700
vt -10.78780000 3.80491700
vt -11.23680000 3.25113700
vt -11.32081000 3.27190000
vt -11.29012000 3.19781300
vt -11.36283000 3.19781300
vt -11.86382000 3.19781300
vt -11.32081000 3.94311300
vt -11.86382000 3.99202700
vt -11.32081000 3.80491300
vt -11.86382000 3.94311300
vt -11.86382000 3.80491300
vt -11.86382000 3.27190000
vt -12.40683000 3.27190000
vt -12.36481000 3.19781300
vt -12.43751000 3.19781300
vt -12.49083000 3.25113700
vt -12.40683000 3.94311400
vt -12.40683000 3.99202800
vt -12.40683000 3.80491300
vt -12.93984000 3.80491800
vt -12.99223000 3.75252900
vt -12.93984000 3.94311800
vt -12.93984000 3.99203200
vt -12.99223000 3.94311900
vt -12.99223000 3.99203200
vt -10.78780000 1.67945500
vt -10.73541000 1.67945400
vt -10.73541000 1.58135800
vt -10.78780000 1.58135900
vt -11.32081000 1.67945900
vt -11.32081000 1.58136400
vt -11.32081000 1.81765900
vt -10.78780000 1.81765500
vt -11.28919000 2.31905000
vt -11.86382000 1.67945900
vt -11.86382000 1.58136400
vt -12.40683000 1.58136400
vt -11.86382000 1.81765900
vt -11.86382000 2.31905000
vt -11.32081000 2.31905000
vt -11.32081000 2.35067400
vt -11.36283000 2.35067400
vt -11.86382000 2.35067400
vt -12.36481000 2.35067400
vt -12.40683000 1.67945900
vt -12.93984000 1.58135900
vt -12.40683000 2.31905000
vt -12.40683000 2.35067400
vt -12.43845000 2.31905000
vt -12.40683000 1.81765900
vt -12.93984000 1.81765500
vt -12.93984000 1.67945500
vt -12.99223000 1.58135800
vt -12.99223000 1.67945400
vt -10.73541000 -0.53833100
vt -10.78780000 -0.49198050
vt -10.73541000 -0.49198050
vt -10.78780000 -0.53833100
vt -11.32081000 -0.49198040
vt -11.32081000 -0.53833090
vt -11.86382000 -0.49198050
vt -11.86382000 -0.53833100
vt -12.40683000 -0.53833090
vt -12.40683000 -0.49198040
vt -12.93984000 -0.53833100
vt -12.93984000 -0.49198050
vt -12.99223000 -0.53833080
vt -12.99223000 -0.49198030
vt -8.86794900 0.97132870
vt -8.80144000 1.00295100
vt -8.80144000 0.97132870
vt -8.86794900 1.00295100
vt -10.66533000 0.97132880
vt -8.86794900 1.45314800
vt -8.80144000 1.50434600
vt -10.70742000 1.50434600
vt -10.66533000 1.45314800
vt -10.66533000 1.00295100
vt -10.70742000 1.00295100
vt -10.70742000 0.97132890
vt -10.59709000 -1.04635200
vt -8.86370000 -1.04635100
vt -8.86370100 -1.07492600
vt -10.59709000 -1.07492600
vt -8.89994100 1.39004600
vt -10.63333000 1.39004600
vt -10.63333000 1.41862000
vt -8.89994100 1.41862000
vt -6.65173500 2.06165200
vt -7.05668800 2.46660600
vt -7.02811400 2.49518100
vt -6.62316100 2.09022700
vt -6.62316000 2.94315800
vt -7.02811400 2.53820400
vt -7.05668800 2.56677800
vt -6.65173500 2.97173100
vt -7.04005700 1.51760000
vt -8.77345100 1.51760000
vt -8.77345100 1.55801100
vt -7.04005700 1.55801100
vt -10.70742000 1.50434600
vt -10.70742000 1.64254800
vt -8.80144000 1.64254800
vt -8.80144000 1.50434600
vt -8.69214500 -1.51321700
vt -8.69214400 -1.70380600
vt -8.76520000 -1.70380600
vt -8.76520000 -1.51321700
vt -10.67118000 -1.70380600
vt -10.67118000 -1.51321700
vt -10.71753000 -1.51321700
vt -10.71753000 -1.70380600
vt -10.81219000 -1.51321700
vt -10.81219000 -1.70380600
vt -10.81219000 -1.75271900
vt -10.71753000 -1.80190200
vt -10.67118000 -1.80190200
vt -8.76520000 -0.95850090
vt -8.69214500 -0.95850090
vt -8.69214600 -1.01182400
vt -8.76520000 -1.01182400
vt -8.69214500 -1.51321700
vt -8.83170900 -0.95850090
vt -8.76520000 -1.51321700
vt -8.83170900 -1.01182400
vt -10.62909000 -0.95850090
vt -8.83170900 -1.46202000
vt -10.62909000 -1.01182400
vt -10.67118000 -1.51321700
vt -10.67118000 -0.95850090
vt -10.62909000 -1.46202000
vt -10.67118000 -1.01182400
vt -10.71753000 -0.95850090
vt -10.71753000 -1.01182400
vt -10.71753000 -1.51321700
vt -10.81219000 -0.95850090
vt -10.81219000 -1.51321700
vt -10.81219000 -1.01182400
vt -8.88205400 2.92643100
vt -8.88205400 2.93833700
vt -7.08467900 2.93833700
vt -7.08467900 2.92643100
vt -8.83170900 -1.01182400
vt -8.83170900 -1.02372900
vt -10.62909000 -1.02372900
vt -10.62909000 -1.01182400
vt -8.86794900 1.45314800
vt -8.86794900 1.44124200
vt -10.66533000 1.44124300
vt -10.66533000 1.45314800
vt -8.88205400 2.85809700
vt -8.88205400 2.87000500
vt -7.08467800 2.87000500
vt -7.08467900 2.85809700
vt -6.44067000 -0.90004560
vt -6.45257600 -0.91195110
vt -6.90277300 -0.46175400
vt -6.89086700 -0.44984820
vt -7.01207000 0.04337108
vt -7.00016300 0.05527776
vt -6.54996600 -0.39491960
vt -6.56187200 -0.40682610
vt -6.54996500 0.11020560
vt -6.56187200 0.09829980
vt -7.01206800 0.54849710
vt -7.00016300 0.56040270
vt -7.01207000 1.05362200
vt -7.00016300 1.06552900
vt -6.54996600 0.61533160
vt -6.56187200 0.60342590
vt -7.08467900 2.80167000
vt -7.08467800 2.78483400
vt -8.88205400 2.78483400
vt -8.88205400 2.80167000
vt -8.88205400 2.71650100
vt -8.88205400 2.73333800
vt -7.08467900 2.73333800
vt -7.08467800 2.71650100
vt -8.83170900 -1.02372900
vt -8.86370000 -1.04635100
vt -10.59709000 -1.04635200
vt -10.62909000 -1.02372900
vt -8.86794900 1.44124200
vt -8.89994100 1.41862000
vt -10.63333000 1.41862000
vt -10.66533000 1.44124300
vt -8.88205400 2.66500500
vt -8.85006200 2.64238400
vt -8.85006200 2.23742900
vt -8.88205400 2.21480800
vt -7.11666900 2.23742900
vt -7.08467900 2.21480800
vt -7.11666900 2.64238400
vt -7.08467900 2.66500500
vt -8.88205500 2.15934100
vt -8.85006300 2.13671900
vt -8.85006300 1.73176600
vt -8.88205500 1.70914400
vt -7.11667000 1.73176600
vt -7.08468000 1.70914400
vt -7.11667100 2.13671900
vt -7.08467900 2.15934100
vt -11.32081000 3.06925200
vt -11.36283000 3.14333700
vt -11.29012000 3.14333600
vt -11.23680000 3.09001400
vt -10.73541000 2.58862000
vt -11.86382000 3.06925100
vt -11.86382000 2.53623700
vt -12.40683000 3.06925200
vt -11.86382000 3.14333600
vt -12.36481000 3.14333700
vt -12.43751000 3.14333700
vt -12.49084000 3.09001500
vt -12.99223000 2.58862000
vt -10.78780000 2.53623200
vt -10.73541000 2.39803100
vt -10.78780000 2.39803200
vt -11.32081000 2.53623700
vt -11.32081000 2.39803600
vt -11.86382000 2.39803600
vt -12.40683000 2.39803600
vt -12.40683000 2.53623700
vt -12.93984000 2.39803200
vt -12.93984000 2.53623200
vt -12.99223000 2.39803100
vt -8.91004400 3.35540900
vt -8.91004400 2.85442300
vt -8.94203700 2.85442300
vt -8.91004400 2.35343600
vt -8.94203700 3.32341700
vt -8.94203700 2.38542700
vt -10.70742000 3.35540900
vt -10.70742000 2.35343600
vt -10.67543000 3.32341700
vt -10.67543000 2.38542700
vt -10.70742000 2.85442300
vt -10.67543000 2.85442300
vt -8.88205400 3.49104600
vt -8.85006200 3.96004000
vt -8.85006200 3.49104600
vt -8.85006200 3.02205200
vt -8.88205400 3.99203200
vt -8.88205400 2.99005900
vt -7.11666900 3.96004000
vt -7.11666900 3.02205200
vt -7.08467900 3.99203200
vt -7.08467900 2.99005900
vt -7.11666800 3.49104600
vt -7.08467800 3.49104600
vt -10.66533000 0.90858850
vt -8.86794900 0.90858840
vt -8.89994100 0.88596630
vt -10.63333000 0.88596640
vt -8.89994100 0.48101230
vt -10.66533000 0.45839120
vt -8.86794900 0.45839120
vt -10.63333000 0.48101240
f 3/3/3 2/2/2 1/1/1
f 4/4/4 3/3/3 1/1/1
f 7/7/7 6/6/6 5/5/5
f 8/8/8 7/7/7 5/5/5
f 8/8/8 9/9/9 7/7/7
f 9/9/9 10/10/10 7/7/7
f 11/11/11 10/10/10 9/9/9
f 12/12/12 11/11/11 9/9/9
f 11/11/11 12/12/12 13/13/13
f 14/14/14 11/11/11 13/13/13
f 14/14/14 13/13/13 15/15/15
f 16/16/16 14/14/14 15/15/15
f 19/19/19 18/18/18 17/17/17
f 20/20/20 19/19/19 17/17/17
f 21/21/21 19/19/19 20/20/20
f 20/20/20 17/17/17 22/22/22
f 23/23/23 20/20/20 22/22/22
f 24/24/24 21/21/21 20/20/20
f 25/25/25 21/21/21 24/24/24
f 26/26/26 25/25/25 24/24/24
f 27/27/27 23/23/23 22/22/22
f 26/26/26 24/24/24 28/28/28
f 29/29/29 26/26/26 28/28/28
f 30/30/30 29/29/29 28/28/28
f 31/31/31 30/30/30 28/28/28
f 32/32/32 30/30/30 31/31/31
f 33/33/33 32/32/32 31/31/31
f 33/33/33 31/31/31 27/27/27
f 34/34/34 27/27/27 22/22/22
f 35/35/35 33/33/33 27/27/27
f 35/35/35 27/27/27 34/34/34
f 36/36/36 35/35/35 34/34/34
f 39/39/39 38/38/38 37/37/37
f 38/38/38 40/40/40 37/37/37
f 37/37/37 40/40/40 41/41/41
f 38/38/38 42/42/42 40/40/40
f 40/40/40 43/43/43 41/41/41
f 41/41/41 43/43/43 44/44/44
f 42/42/42 45/45/45 40/40/40
f 40/40/40 45/45/45 43/43/43
f 45/45/45 42/42/42 46/46/46
f 42/42/42 47/47/47 46/46/46
f 46/46/46 47/47/47 48/48/48
f 47/47/47 49/49/49 48/48/48
f 46/46/46 48/48/48 50/50/50
f 51/51/51 46/46/46 50/50/50
f 45/45/45 46/46/46 51/51/51
f 51/51/51 50/50/50 52/52/52
f 45/45/45 53/53/53 43/43/43
f 53/53/53 45/45/45 51/51/51
f 43/43/43 54/54/54 44/44/44
f 43/43/43 53/53/53 54/54/54
f 53/53/53 55/55/55 54/54/54
f 44/44/44 54/54/54 56/56/56
f 55/55/55 53/53/53 57/57/57
f 53/53/53 51/51/51 57/57/57
f 57/57/57 51/51/51 52/52/52
f 57/57/57 52/52/52 58/58/58
f 59/59/59 44/44/44 56/56/56
f 52/52/52 60/60/60 58/58/58
f 59/59/59 56/56/56 61/61/61
f 61/61/61 56/56/56 62/62/62
f 63/63/63 59/59/59 61/61/61
f 64/64/64 63/63/63 61/61/61
f 65/65/65 64/64/64 61/61/61
f 65/65/65 61/61/61 62/62/62
f 56/56/56 66/66/66 62/62/62
f 66/66/66 58/58/58 62/62/62
f 67/67/67 65/65/65 62/62/62
f 68/68/68 67/67/67 62/62/62
f 58/58/58 60/60/60 69/69/69
f 58/58/58 69/69/69 62/62/62
f 69/69/69 68/68/68 62/62/62
f 60/60/60 70/70/70 69/69/69
f 71/71/71 68/68/68 69/69/69
f 70/70/70 71/71/71 69/69/69
f 74/74/74 73/73/73 72/72/72
f 75/75/75 74/74/74 72/72/72
f 78/78/78 77/77/77 76/76/76
f 79/79/79 78/78/78 76/76/76
f 82/82/82 81/81/81 80/80/80
f 83/83/83 82/82/82 80/80/80
f 82/82/82 83/83/83 84/84/84
f 85/85/85 82/82/82 84/84/84
f 88/88/88 87/87/87 86/86/86
f 87/87/87 89/89/89 86/86/86
f 89/89/89 90/90/90 86/86/86
f 90/90/90 91/91/91 86/86/86
f 94/94/94 93/93/93 92/92/92
f 95/95/95 94/94/94 92/92/92
f 98/98/98 97/97/97 96/96/96
f 99/99/99 98/98/98 96/96/96
f 102/102/102 101/101/101 100/100/100
f 103/103/103 102/102/102 100/100/100
f 106/106/106 105/105/105 104/104/104
f 105/105/105 107/107/107 104/104/104
f 105/105/105 108/108/108 107/107/107
f 108/108/108 109/109/109 107/107/107
f 107/107/107 109/109/109 110/110/110
f 111/111/111 107/107/107 110/110/110
f 111/111/111 110/110/110 112/112/112
f 113/113/113 111/111/111 112/112/112
f 114/114/114 113/113/113 112/112/112
f 115/115/115 114/114/114 112/112/112
f 116/116/116 114/114/114 115/115/115
f 117/117/117 116/116/116 115/115/115
f 117/117/117 118/118/118 116/116/116
f 118/118/118 119/119/119 116/116/116
f 116/116/116 119/119/119 120/120/120
f 119/119/119 121/121/121 120/120/120
f 124/124/124 123/123/123 122/122/122
f 123/123/123 125/125/125 122/122/122
f 122/122/122 125/125/125 126/126/126
f 123/123/123 127/127/127 125/125/125
f 125/125/125 128/128/128 126/126/126
f 129/129/129 126/126/126 128/128/128
f 130/130/130 129/129/129 128/128/128
f 130/130/130 128/128/128 131/131/131
f 127/127/127 132/132/132 125/125/125
f 125/125/125 132/132/132 128/128/128
f 128/128/128 133/133/133 131/131/131
f 132/132/132 133/133/133 128/128/128
f 133/133/133 134/134/134 131/131/131
f 133/133/133 132/132/132 134/134/134
f 134/134/134 135/135/135 131/131/131
f 136/136/136 135/135/135 134/134/134
f 137/137/137 136/136/136 134/134/134
f 132/132/132 127/127/127 138/138/138
f 132/132/132 138/138/138 134/134/134
f 134/134/134 138/138/138 137/137/137
f 127/127/127 139/139/139 138/138/138
f 138/138/138 140/140/140 137/137/137
f 138/138/138 139/139/139 140/140/140
f 139/139/139 141/141/141 140/140/140
f 144/144/144 143/143/143 142/142/142
f 145/145/145 144/144/144 142/142/142
f 148/148/148 147/147/147 146/146/146
f 147/147/147 149/149/149 146/146/146
f 147/147/147 150/150/150 149/149/149
f 150/150/150 151/151/151 149/149/149
f 150/150/150 152/152/152 151/151/151
f 152/152/152 153/153/153 151/151/151
f 153/153/153 152/152/152 154/154/154
f 152/152/152 155/155/155 154/154/154
f 154/154/154 155/155/155 156/156/156
f 155/155/155 157/157/157 156/156/156
f 156/156/156 157/157/157 158/158/158
f 157/157/157 159/159/159 158/158/158
f 162/162/162 161/161/161 160/160/160
f 161/161/161 163/163/163 160/160/160
f 161/161/161 164/164/164 163/163/163
f 164/164/164 165/165/165 163/163/163
f 166/166/166 165/165/165 164/164/164
f 167/167/167 166/166/166 164/164/164
f 168/168/168 166/166/166 167/167/167
f 169/169/169 168/168/168 167/167/167
f 170/170/170 169/169/169 167/167/167
f 171/171/171 170/170/170 167/167/167
f 171/171/171 167/167/167 164/164/164
f 172/172/172 171/171/171 164/164/164
f 175/175/175 174/174/174 173/173/173
f 174/174/174 176/176/176 173/173/173
f 174/174/174 177/177/177 176/176/176
f 173/173/173 176/176/176 178/178/178
f 177/177/177 179/179/179 176/176/176
f 176/176/176 180/180/180 178/178/178
f 178/178/178 180/180/180 181/181/181
f 179/179/179 182/182/182 176/176/176
f 182/182/182 180/180/180 176/176/176
f 180/180/180 183/183/183 181/181/181
f 179/179/179 184/184/184 182/182/182
f 185/185/185 181/181/181 183/183/183
f 184/184/184 186/186/186 182/182/182
f 183/183/183 186/186/186 187/187/187
f 187/187/187 185/185/185 183/183/183
f 186/186/186 184/184/184 187/187/187
f 188/188/188 185/185/185 187/187/187
f 187/187/187 184/184/184 189/189/189
f 189/189/189 188/188/188 187/187/187
f 184/184/184 190/190/190 189/189/189
f 191/191/191 188/188/188 189/189/189
f 189/189/189 190/190/190 192/192/192
f 193/193/193 191/191/191 189/189/189
f 193/193/193 189/189/189 192/192/192
f 196/196/196 195/195/195 194/194/194
f 197/197/197 196/196/196 194/194/194
f 200/200/200 199/199/199 198/198/198
f 201/201/201 200/200/200 198/198/198
f 204/204/204 203/203/203 202/202/202
f 205/205/205 204/204/204 202/202/202
f 208/208/208 207/207/207 206/206/206
f 209/209/209 208/208/208 206/206/206
f 212/212/212 211/211/211 210/210/210
f 213/213/213 212/212/212 210/210/210
f 216/216/216 215/215/215 214/214/214
f 217/217/217 216/216/216 214/214/214
f 220/220/220 219/219/219 218/218/218
f 221/221/221 220/220/220 218/218/218
f 224/224/224 223/223/223 222/222/222
f 225/225/225 224/224/224 222/222/222
f 228/228/228 227/227/227 226/226/226
f 227/227/227 229/229/229 226/226/226
f 229/229/229 227/227/227 230/230/230
f 227/227/227 231/231/231 230/230/230
f 234/234/234 233/233/233 232/232/232
f 235/235/235 234/234/234 232/232/232
f 236/236/236 235/235/235 232/232/232
f 237/237/237 236/236/236 232/232/232
f 240/240/240 239/239/239 238/238/238
f 241/241/241 240/240/240 238/238/238
f 242/242/242 241/241/241 238/238/238
f 243/243/243 242/242/242 238/238/238
f 246/246/246 245/245/245 244/244/244
f 245/245/245 247/247/247 244/244/244
f 247/247/247 245/245/245 248/248/248
f 245/245/245 249/249/249 248/248/248
f 252/252/252 251/251/251 250/250/250
f 253/253/253 252/252/252 250/250/250
f 256/256/256 255/255/255 254/254/254
f 257/257/257 256/256/256 254/254/254
f 260/260/260 259/259/259 258/258/258
f 261/261/261 260/260/260 258/258/258
f 264/264/264 263/263/263 262/262/262
f 263/263/263 265/265/265 262/262/262
f 263/263/263 266/266/266 265/265/265
f 266/266/266 267/267/267 265/265/265
f 266/266/266 268/268/268 267/267/267
f 268/268/268 269/269/269 267/267/267
f 272/272/272 271/271/271 270/270/270
f 271/271/271 273/273/273 270/270/270
f 270/270/270 273/273/273 274/274/274
f 271/271/271 275/275/275 273/273/273
f 273/273/273 276/276/276 274/274/274
f 274/274/274 276/276/276 277/277/277
f 276/276/276 278/278/278 277/277/277
f 279/279/279 277/277/277 278/278/278
f 280/280/280 279/279/279 278/278/278
f 280/280/280 278/278/278 281/281/281
f 275/275/275 282/282/282 273/273/273
f 273/273/273 282/282/282 276/276/276
f 275/275/275 283/283/283 282/282/282
f 282/282/282 284/284/284 276/276/276
f 276/276/276 284/284/284 278/278/278
f 283/283/283 285/285/285 282/282/282
f 282/282/282 285/285/285 284/284/284
f 284/284/284 286/286/286 278/278/278
f 285/285/285 286/286/286 284/284/284
f 278/278/278 287/287/287 281/281/281
f 286/286/286 287/287/287 278/278/278
f 287/287/287 288/288/288 281/281/281
f 287/287/287 286/286/286 288/288/288
f 288/288/288 289/289/289 281/281/281
f 290/290/290 289/289/289 288/288/288
f 291/291/291 290/290/290 288/288/288
f 285/285/285 283/283/283 292/292/292
f 283/283/283 293/293/293 292/292/292
f 286/286/286 285/285/285 294/294/294
f 286/286/286 294/294/294 288/288/288
f 285/285/285 292/292/292 294/294/294
f 288/288/288 295/295/295 291/291/291
f 294/294/294 295/295/295 288/288/288
f 294/294/294 292/292/292 295/295/295
f 295/295/295 296/296/296 291/291/291
f 292/292/292 293/293/293 297/297/297
f 292/292/292 297/297/297 295/295/295
f 295/295/295 297/297/297 296/296/296
f 293/293/293 298/298/298 297/297/297
f 297/297/297 299/299/299 296/296/296
f 297/297/297 298/298/298 299/299/299
f 298/298/298 300/300/300 299/299/299
f 303/303/303 302/302/302 301/301/301
f 304/304/304 303/303/303 301/301/301
f 304/304/304 301/301/301 305/305/305
f 306/306/306 304/304/304 305/305/305
f 305/305/305 301/301/301 307/307/307
f 301/301/301 308/308/308 307/307/307
f 308/308/308 309/309/309 307/307/307
f 306/306/306 305/305/305 310/310/310
f 311/311/311 306/306/306 310/310/310
f 312/312/312 311/311/311 310/310/310
f 310/310/310 305/305/305 313/313/313
f 305/305/305 307/307/307 313/313/313
f 313/313/313 307/307/307 314/314/314
f 309/309/309 315/315/315 307/307/307
f 307/307/307 315/315/315 314/314/314
f 309/309/309 316/316/316 315/315/315
f 316/316/316 317/317/317 315/315/315
f 314/314/314 315/315/315 317/317/317
f 318/318/318 314/314/314 317/317/317
f 314/314/314 318/318/318 319/319/319
f 320/320/320 312/312/312 310/310/310
f 320/320/320 310/310/310 313/313/313
f 321/321/321 312/312/312 320/320/320
f 322/322/322 314/314/314 319/319/319
f 319/319/319 323/323/323 322/322/322
f 323/323/323 324/324/324 322/322/322
f 325/325/325 313/313/313 314/314/314
f 322/322/322 325/325/325 314/314/314
f 322/322/322 324/324/324 325/325/325
f 325/325/325 320/320/320 313/313/313
f 324/324/324 326/326/326 325/325/325
f 326/326/326 327/327/327 325/325/325
f 327/327/327 320/320/320 325/325/325
f 327/327/327 321/321/321 320/320/320
f 328/328/328 321/321/321 327/327/327
f 329/329/329 328/328/328 327/327/327
f 332/332/332 331/331/331 330/330/330
f 331/331/331 333/333/333 330/330/330
f 331/331/331 334/334/334 333/333/333
f 334/334/334 335/335/335 333/333/333
f 334/334/334 336/336/336 335/335/335
f 336/336/336 337/337/337 335/335/335
f 337/337/337 336/336/336 338/338/338
f 336/336/336 339/339/339 338/338/338
f 338/338/338 339/339/339 340/340/340
f 339/339/339 341/341/341 340/340/340
f 340/340/340 341/341/341 342/342/342
f 341/341/341 343/343/343 342/342/342
f 346/346/346 345/345/345 344/344/344
f 345/345/345 347/347/347 344/344/344
f 344/344/344 347/347/347 348/348/348
f 349/349/349 347/347/347 345/345/345
f 350/350/350 349/349/349 345/345/345
f 350/350/350 351/351/351 349/349/349
f 351/351/351 352/352/352 349/349/349
f 352/352/352 351/351/351 353/353/353
f 347/347/347 353/353/353 348/348/348
f 351/351/351 354/354/354 353/353/353
f 353/353/353 354/354/354 348/348/348
f 354/354/354 355/355/355 348/348/348
f 358/358/358 357/357/357 356/356/356
f 359/359/359 358/358/358 356/356/356
f 362/362/362 361/361/361 360/360/360
f 363/363/363 362/362/362 360/360/360
f 366/366/366 365/365/365 364/364/364
f 367/367/367 366/366/366 364/364/364
f 370/370/370 369/369/369 368/368/368
f 371/371/371 370/370/370 368/368/368
f 374/374/374 373/373/373 372/372/372
f 375/375/375 374/374/374 372/372/372
f 378/378/378 377/377/377 376/376/376
f 379/379/379 378/378/378 376/376/376
f 382/382/382 381/381/381 380/380/380
f 383/383/383 382/382/382 380/380/380
f 384/384/384 382/382/382 383/383/383
f 385/385/385 384/384/384 383/383/383
f 385/385/385 386/386/386 384/384/384
f 386/386/386 387/387/387 384/384/384
f 386/386/386 388/388/388 387/387/387
f 388/388/388 389/389/389 387/387/387
f 389/389/389 390/390/390 387/387/387
f 390/390/390 391/391/391 387/387/387
f 387/387/387 391/391/391 384/384/384
f 391/391/391 392/392/392 384/384/384
f 395/395/395 394/394/394 393/393/393
f 396/396/396 395/395/395 393/393/393
f 397/397/397 395/395/395 396/396/396
f 396/396/396 393/393/393 398/398/398
f 399/399/399 397/397/397 396/396/396
f 400/400/400 396/396/396 398/398/398
f 400/400/400 398/398/398 401/401/401
f 402/402/402 399/399/399 396/396/396
f 400/400/400 402/402/402 396/396/396
f 403/403/403 400/400/400 401/401/401
f 404/404/404 399/399/399 402/402/402
f 401/401/401 405/405/405 403/403/403
f 406/406/406 404/404/404 402/402/402
f 406/406/406 403/403/403 407/407/407
f 405/405/405 407/407/407 403/403/403
f 404/404/404 406/406/406 407/407/407
f 405/405/405 408/408/408 407/407/407
f 404/404/404 407/407/407 409/409/409
f 408/408/408 409/409/409 407/407/407
f 410/410/410 404/404/404 409/409/409
f 408/408/408 411/411/411 409/409/409
f 410/410/410 409/409/409 412/412/412
f 411/411/411 413/413/413 409/409/409
f 409/409/409 413/413/413 412/412/412
f 416/416/416 415/415/415 414/414/414
f 417/417/417 416/416/416 414/414/414
f 420/420/420 419/419/419 418/418/418
f 421/421/421 420/420/420 418/418/418
f 424/424/424 423/423/423 422/422/422
f 425/425/425 424/424/424 422/422/422
f 428/428/428 427/427/427 426/426/426
f 429/429/429 428/428/428 426/426/426
f 432/432/432 431/431/431 430/430/430
f 433/433/433 432/432/432 430/430/430
f 436/436/436 435/435/435 434/434/434
f 437/437/437 436/436/436 434/434/434
f 440/440/440 439/439/439 438/438/438
f 441/441/441 440/440/440 438/438/438
f 444/444/444 443/443/443 442/442/442
f 445/445/445 444/444/444 442/442/442
f 448/448/448 447/447/447 446/446/446
f 449/449/449 448/448/448 446/446/446
f 452/452/452 451/451/451 450/450/450
f 453/453/453 452/452/452 450/450/450
f 456/456/456 455/455/455 454/454/454
f 457/457/457 456/456/456 454/454/454
f 460/460/460 459/459/459 458/458/458
f 461/461/461 460/460/460 458/458/458
f 464/464/464 463/463/463 462/462/462
f 465/465/465 464/464/464 462/462/462
f 466/466/466 464/464/464 465/465/465
f 467/467/467 466/466/466 465/465/465
f 468/468/468 466/466/466 467/467/467
f 469/469/469 468/468/468 467/467/467
f 472/472/472 471/471/471 470/470/470
f 473/473/473 472/472/472 470/470/470
f 474/474/474 472/472/472 473/473/473
f 475/475/475 474/474/474 473/473/473
f 476/476/476 474/474/474 475/475/475
f 477/477/477 476/476/476 475/475/475
f 480/480/480 479/479/479 478/478/478
f 481/481/481 480/480/480 478/478/478
f 481/481/481 478/478/478 482/482/482
f 483/483/483 478/478/478 479/479/479
f 483/483/483 484/484/484 478/478/478
f 484/484/484 483/483/483 485/485/485
f 486/486/486 483/483/483 479/479/479
f 483/483/483 486/486/486 487/487/487
f 485/485/485 483/483/483 487/487/487
f 487/487/487 488/488/488 485/485/485
f 488/488/488 489/489/489 485/485/485
f 485/485/485 489/489/489 490/490/490
f 478/478/478 491/491/491 482/482/482
f 492/492/492 482/482/482 491/491/491
f 493/493/493 492/492/492 491/491/491
f 478/478/478 494/494/494 491/491/491
f 493/493/493 491/491/491 494/494/494
f 484/484/484 494/494/494 478/478/478
f 495/495/495 493/493/493 494/494/494
f 495/495/495 494/494/494 484/484/484
f 496/496/496 495/495/495 484/484/484
f 497/497/497 496/496/496 484/484/484
f 498/498/498 497/497/497 484/484/484
f 498/498/498 484/484/484 485/485/485
f 499/499/499 497/497/497 498/498/498
f 500/500/500 485/485/485 490/490/490
f 498/498/498 485/485/485 500/500/500
f 500/500/500 499/499/499 498/498/498
f 490/490/490 501/501/501 500/500/500
f 501/501/501 499/499/499 500/500/500
f 504/504/504 503/503/503 502/502/502
f 503/503/503 504/504/504 505/505/505
f 506/506/506 504/504/504 502/502/502
f 504/504/504 507/507/507 505/505/505
f 506/506/506 502/502/502 508/508/508
f 505/505/505 507/507/507 509/509/509
f 510/510/510 506/506/506 508/508/508
f 507/507/507 511/511/511 509/509/509
f 510/510/510 508/508/508 512/512/512
f 509/509/509 511/511/511 512/512/512
f 513/513/513 510/510/510 512/512/512
f 511/511/511 513/513/513 512/512/512
f 516/516/516 515/515/515 514/514/514
f 517/517/517 516/516/516 514/514/514
f 515/515/515 518/518/518 514/514/514
f 519/519/519 517/517/517 514/514/514
f 515/515/515 520/520/520 518/518/518
f 521/521/521 517/517/517 519/519/519
f 520/520/520 522/522/522 518/518/518
f 523/523/523 521/521/521 519/519/519
f 520/520/520 524/524/524 522/522/522
f 524/524/524 521/521/521 523/523/523
f 524/524/524 525/525/525 522/522/522
f 525/525/525 524/524/524 523/523/523
f 528/528/528 527/527/527 526/526/526
f 529/529/529 528/528/528 526/526/526
f 528/528/528 530/530/530 527/527/527
f 529/529/529 526/526/526 531/531/531
f 530/530/530 532/532/532 527/527/527
f 533/533/533 529/529/529 531/531/531
f 533/533/533 531/531/531 532/532/532
f 530/530/530 533/533/533 532/532/532

