mtllib material.mtl
usemtl material_0
v -0.27854000 0.95854810 0.36876880
v -0.27854000 1.98802600 0.36876880
v 0.00000000 1.98802600 0.36876880
v 0.00000000 0.95854810 0.36876880
v 0.27854000 0.95854810 0.36876880
v 0.27854000 1.98802600 0.36876880
v -0.27854000 1.98802600 0.36876880
v -0.27854000 1.98802600 0.35876880
v 0.00000000 1.98802600 0.35876880
v 0.00000000 1.98802600 0.36876880
v 0.27854000 1.98802600 0.36876880
v 0.27854000 1.98802600 0.35876880
v -0.27854000 1.98802600 0.35876880
v -0.27854000 0.95854810 0.35876880
v 0.00000000 0.95854810 0.35876880
v 0.00000000 1.98802600 0.35876880
v 0.27854000 0.95854810 0.35876880
v 0.27854000 1.98802600 0.35876880
v -0.27854000 0.95854810 0.35876880
v -0.27854000 0.95854810 0.36876880
v 0.00000000 0.95854810 0.36876880
v 0.00000000 0.95854810 0.35876880
v 0.27854000 0.95854810 0.35876880
v 0.27854000 0.95854810 0.36876880
v 0.27854000 0.95854810 0.36876880
v 0.27854000 1.98802600 0.36876880
v 0.27854000 1.98802600 0.35876880
v 0.27854000 0.95854810 0.35876880
v -0.27854000 0.95854810 0.35876880
v -0.27854000 1.98802600 0.35876880
v -0.27854000 1.98802600 0.36876880
v -0.27854000 0.95854810 0.36876880
v -0.37372010 0.95854810 0.32859380
v -0.61424260 0.95854810 0.08807082
v -0.61424260 1.98802600 0.08807082
v -0.37372010 1.98802600 0.32859380
v -0.37372010 1.98802600 0.32859380
v -0.61424260 1.98802600 0.08807082
v -0.60717160 1.98802600 0.08099975
v -0.36664860 1.98802600 0.32152270
v -0.36664860 1.98802600 0.32152270
v -0.60717160 1.98802600 0.08099975
v -0.60717160 0.95854810 0.08099975
v -0.36664860 0.95854810 0.32152270
v -0.36664860 0.95854810 0.32152270
v -0.60717160 0.95854810 0.08099975
v -0.61424260 0.95854810 0.08807082
v -0.37372010 0.95854810 0.32859380
v -0.61424260 0.95854810 0.08807082
v -0.60717160 0.95854810 0.08099975
v -0.60717160 1.98802600 0.08099975
v -0.61424260 1.98802600 0.08807082
v -0.36664860 0.95854810 0.32152270
v -0.37372010 0.95854810 0.32859380
v -0.37372010 1.98802600 0.32859380
v -0.36664860 1.98802600 0.32152270
v 0.37372010 0.95854810 0.32859380
v 0.37372010 1.98802600 0.32859380
v 0.61424260 1.98802600 0.08807082
v 0.61424260 0.95854810 0.08807082
v 0.37372010 1.98802600 0.32859380
v 0.36664860 1.98802600 0.32152270
v 0.60717160 1.98802600 0.08099975
v 0.61424260 1.98802600 0.08807082
v 0.36664860 1.98802600 0.32152270
v 0.36664860 0.95854810 0.32152270
v 0.60717160 0.95854810 0.08099975
v 0.60717160 1.98802600 0.08099975
v 0.36664860 0.95854810 0.32152270
v 0.37372010 0.95854810 0.32859380
v 0.61424260 0.95854810 0.08807082
v 0.60717160 0.95854810 0.08099975
v 0.61424260 0.95854810 0.08807082
v 0.61424260 1.98802600 0.08807082
v 0.60717160 1.98802600 0.08099975
v 0.60717160 0.95854810 0.08099975
v 0.36664860 0.95854810 0.32152270
v 0.36664860 1.98802600 0.32152270
v 0.37372010 1.98802600 0.32859380
v 0.37372010 0.95854810 0.32859380
vn 0.00000000 0.00000000 1.00000000
vn 0.00000000 0.00000000 1.00000000
vn 0.00000000 0.00000000 1.00000000
vn 0.00000000 0.00000000 1.00000000
vn 0.00000000 0.00000000 1.00000000
vn 0.00000000 0.00000000 1.00000000
vn 0.00000000 1.00000000 0.00000000
vn 0.00000000 1.00000000 0.00000000
vn 0.00000000 1.00000000 0.00000000
vn 0.00000000 1.00000000 0.00000000
vn 0.00000000 1.00000000 0.00000000
vn 0.00000000 1.00000000 0.00000000
vn 0.00000000 0.00000000 -1.00000000
vn 0.00000000 0.00000000 -1.00000000
vn 0.00000000 0.00000000 -1.00000000
vn 0.00000000 0.00000000 -1.00000000
vn 0.00000000 0.00000000 -1.00000000
vn 0.00000000 0.00000000 -1.00000000
vn 0.00000000 -1.00000000 0.00000000
vn 0.00000000 -1.00000000 0.00000000
vn 0.00000000 -1.00000000 0.00000000
vn 0.00000000 -1.00000000 0.00000000
vn 0.00000000 -1.00000000 0.00000000
vn 0.00000000 -1.00000000 0.00000000
vn 1.00000000 0.00000000 0.00000000
vn 1.00000000 0.00000000 0.00000000
vn 1.00000000 0.00000000 0.00000000
vn 1.00000000 0.00000000 0.00000000
vn -1.00000000 0.00000000 0.00000000
vn -1.00000000 0.00000000 0.00000000
vn -1.00000000 0.00000000 0.00000000
vn -1.00000000 0.00000000 0.00000000
vn -0.70710740 0.00000000 0.70710610
vn -0.70710740 0.00000000 0.70710610
vn -0.70710740 0.00000000 0.70710610
vn -0.70710740 0.00000000 0.70710610
vn 0.00000000 1.00000000 -0.00001436
vn 0.00000000 1.00000000 -0.00001436
vn 0.00000000 1.00000000 -0.00001436
vn 0.00000000 1.00000000 -0.00001436
vn 0.70710660 0.00000000 -0.70710690
vn 0.70710660 0.00000000 -0.70710690
vn 0.70710660 0.00000000 -0.70710690
vn 0.70710660 0.00000000 -0.70710690
vn 0.00000000 -1.00000000 0.00000000
vn 0.00000000 -1.00000000 0.00000000
vn 0.00000000 -1.00000000 0.00000000
vn 0.00000000 -1.00000000 0.00000000
vn -0.70711420 0.00000000 -0.70709930
vn -0.70711420 0.00000000 -0.70709930
vn -0.70711420 0.00000000 -0.70709930
vn -0.70711420 0.00000000 -0.70709930
vn 0.70708400 0.00000000 0.70712950
vn 0.70708400 0.00000000 0.70712950
vn 0.70708400 0.00000000 0.70712950
vn 0.70708400 0.00000000 0.70712950
vn 0.70710740 0.00000000 0.70710610
vn 0.70710740 0.00000000 0.70710610
vn 0.70710740 0.00000000 0.70710610
vn 0.70710740 0.00000000 0.70710610
vn 0.00000000 1.00000000 -0.00001166
vn 0.00000000 1.00000000 -0.00001166
vn 0.00000000 1.00000000 -0.00001166
vn 0.00000000 1.00000000 -0.00001166
vn -0.70710660 0.00000000 -0.70710690
vn -0.70710660 0.00000000 -0.70710690
vn -0.70710660 0.00000000 -0.70710690
vn -0.70710660 0.00000000 -0.70710690
vn 0.00000000 -1.00000000 -0.00000381
vn 0.00000000 -1.00000000 -0.00000381
vn 0.00000000 -1.00000000 -0.00000381
vn 0.00000000 -1.00000000 -0.00000381
vn 0.70711420 0.00000000 -0.70709930
vn 0.70711420 0.00000000 -0.70709930
vn 0.70711420 0.00000000 -0.70709930
vn 0.70711420 0.00000000 -0.70709930
vn -0.70708400 0.00000000 0.70712950
vn -0.70708400 0.00000000 0.70712950
vn -0.70708400 0.00000000 0.70712950
vn -0.70708400 0.00000000 0.70712950
vt -20.21046000 1.69133700
vt -20.21046000 2.49561600
vt -19.99285000 2.49561600
vt -19.99285000 1.69133700
vt -19.77524000 1.69133700
vt -19.77524000 2.49561600
vt -16.05669000 1.99071300
vt -16.04888000 1.99071300
vt -16.04888000 1.77307100
vt -16.05669000 1.77307100
vt -16.05669000 1.55542800
vt -16.04888000 1.55542800
vt -19.22647000 1.69133700
vt -19.22647000 2.49561600
vt -19.00886000 2.49561600
vt -19.00886000 1.69133700
vt -18.79125000 2.49561600
vt -18.79125000 1.69133700
vt -16.01952000 2.95666100
vt -16.01170000 2.95666100
vt -16.01170000 2.73905000
vt -16.01952000 2.73905000
vt -16.01952000 2.52143900
vt -16.01170000 2.52143900
vt -18.48935000 1.69132200
vt -18.48935000 2.49563100
vt -18.48153000 2.49563100
vt -18.48153000 1.69132200
vt -18.42101000 1.69133500
vt -18.42101000 2.49561800
vt -18.41320000 2.49561800
vt -18.41320000 1.69133500
vt -17.34944000 1.72454300
vt -17.65980000 1.72454300
vt -17.65980000 2.68100000
vt -17.34944000 2.68100000
vt -23.04077000 3.05524900
vt -23.30181000 3.24319900
vt -23.29414000 3.24872500
vt -23.03310000 3.06077400
vt -17.02727000 2.68099900
vt -16.71690000 2.68099900
vt -16.71690000 1.72454500
vt -17.02727000 1.72454500
vt -23.67954000 3.05524900
vt -23.94058000 3.24319900
vt -23.93291000 3.24872500
vt -23.67187000 3.06077400
vt -17.65980000 1.72454300
vt -17.66893000 1.72454300
vt -17.66893000 2.68100000
vt -17.65980000 2.68100000
vt -17.35856000 1.72454300
vt -17.34944000 1.72454300
vt -17.34944000 2.68100000
vt -17.35856000 2.68100000
vt -16.39717000 1.72454400
vt -16.39717000 2.68099900
vt -16.08681000 2.68099900
vt -16.08681000 1.72454400
vt -24.07244000 3.50014300
vt -24.08011000 3.50566800
vt -23.81911000 3.69358600
vt -23.81144000 3.68806200
vt -15.44515000 2.64900100
vt -15.44515000 1.69254500
vt -15.75551000 1.69254500
vt -15.75551000 2.64900100
vt -23.17188000 3.69355800
vt -23.16421000 3.68803500
vt -23.42514000 3.50017000
vt -23.43280000 3.50569300
vt -16.08681000 1.72454400
vt -16.08681000 2.68099900
vt -16.07769000 2.68099900
vt -16.07769000 1.72454400
vt -16.38805000 1.72454400
vt -16.38805000 2.68099900
vt -16.39717000 2.68099900
vt -16.39717000 1.72454400
f 3/3/3 2/2/2 1/1/1
f 4/4/4 3/3/3 1/1/1
f 4/4/4 5/5/5 3/3/3
f 5/5/5 6/6/6 3/3/3
f 9/9/9 8/8/8 7/7/7
f 10/10/10 9/9/9 7/7/7
f 10/10/10 11/11/11 9/9/9
f 11/11/11 12/12/12 9/9/9
f 15/15/15 14/14/14 13/13/13
f 16/16/16 15/15/15 13/13/13
f 17/17/17 15/15/15 16/16/16
f 18/18/18 17/17/17 16/16/16
f 21/21/21 20/20/20 19/19/19
f 22/22/22 21/21/21 19/19/19
f 22/22/22 23/23/23 21/21/21
f 23/23/23 24/24/24 21/21/21
f 27/27/27 26/26/26 25/25/25
f 28/28/28 27/27/27 25/25/25
f 31/31/31 30/30/30 29/29/29
f 32/32/32 31/31/31 29/29/29
f 35/35/35 34/34/34 33/33/33
f 36/36/36 35/35/35 33/33/33
f 39/39/39 38/38/38 37/37/37
f 40/40/40 39/39/39 37/37/37
f 43/43/43 42/42/42 41/41/41
f 44/44/44 43/43/43 41/41/41
f 47/47/47 46/46/46 45/45/45
f 48/48/48 47/47/47 45/45/45
f 51/51/51 50/50/50 49/49/49
f 52/52/52 51/51/51 49/49/49
f 55/55/55 54/54/54 53/53/53
f 56/56/56 55/55/55 53/53/53
f 59/59/59 58/58/58 57/57/57
f 60/60/60 59/59/59 57/57/57
f 63/63/63 62/62/62 61/61/61
f 64/64/64 63/63/63 61/61/61
f 67/67/67 66/66/66 65/65/65
f 68/68/68 67/67/67 65/65/65
f 71/71/71 70/70/70 69/69/69
f 72/72/72 71/71/71 69/69/69
f 75/75/75 74/74/74 73/73/73
f 76/76/76 75/75/75 73/73/73
f 79/79/79 78/78/78 77/77/77
f 80/80/80 79/79/79 77/77/77

