# Blender 4.0.0
# www.blender.org
o decimated_mesh
v -0.001090 -0.107421 0.014181
v 0.014164 -0.107400 -0.000024
v 0.011148 -0.107628 0.010238
v -0.001090 -0.105778 0.013303
v 0.015850 -0.107412 -0.000017
v 0.015260 -0.107015 0.006662
v 0.006633 -0.107142 0.015222
v -0.001078 -0.107444 0.015886
v -0.001087 -0.105684 0.016841
v 0.013274 -0.105778 -0.000024
v 0.012858 -0.106933 0.010683
v 0.010770 -0.106966 0.012810
v 0.016858 -0.105801 0.000003
v 0.001060 -0.105778 0.016794
v 0.006564 -0.105915 0.015586
v -0.001089 0.105696 0.016846
v 0.006666 0.107099 0.015315
v 0.001060 0.105813 0.016781
v 0.016871 0.105742 0.000022
v 0.015242 0.107042 0.006606
v -0.001081 0.107453 0.015871
v -0.001090 0.105813 0.013303
v 0.013272 0.105813 -0.000024
v 0.015834 0.107465 -0.000014
v 0.012844 0.106944 0.010693
v 0.010846 0.106972 0.012746
v 0.008276 0.107553 0.013050
v -0.001090 0.107434 0.014182
v 0.014166 0.107434 -0.000024
v 0.012960 0.107583 0.007930
vn 0.6801 -0.0000 0.7331
vn -0.0127 -0.0001 0.9999
vn 0.2528 0.0011 0.9675
vn 0.8506 0.5144 0.1088
vn -0.0320 0.9992 -0.0235
vn 0.0927 -0.5659 0.8193
vn 0.2767 0.9571 0.0859
vn 0.4983 -0.2204 0.8385
vn -1.0000 -0.0029 0.0053
vn -0.6381 -0.3501 -0.6858
vn 0.8423 -0.5285 0.1058
vn -0.0017 -0.4772 0.8788
vn -0.6380 0.3514 -0.6852
vn 0.2462 0.9016 0.3557
vn 0.5508 0.0001 0.8346
vn 0.8625 0.0002 0.5060
vn 0.9724 -0.0001 0.2334
vn 0.7137 -0.0000 0.7004
vn 0.0847 0.5657 0.8202
vn 0.6802 -0.0000 0.7330
vn -0.0076 -0.0080 0.9999
vn -0.0039 -0.0021 1.0000
vn -0.0075 -0.0000 1.0000
vn -0.0060 0.0033 1.0000
vn -0.0125 0.0134 0.9998
vn 0.2145 0.0001 0.9767
vn 0.3205 -0.9236 0.2103
vn 0.2984 -0.9129 0.2785
vn 0.1981 -0.9419 0.2712
vn 0.2119 -0.9743 0.0767
vn -0.0183 0.9996 -0.0214
vn -0.0146 0.9998 -0.0156
vn -0.0140 0.9998 -0.0112
vn 0.3465 0.9106 0.2251
vn -0.0001 0.4851 0.8745
vn 0.0614 0.9693 0.2380
vn -1.0000 -0.0000 0.0004
vn -1.0000 0.0038 0.0072
vn -1.0000 -0.0057 0.0010
vn -1.0000 -0.0000 0.0009
vn -1.0000 0.0045 0.0006
vn -0.6333 -0.3646 -0.6826
vn 0.0510 -0.9885 0.1425
vn 0.2472 0.9417 0.2281
vn 0.2404 0.9441 0.2254
vn 0.0219 -0.0000 0.9998
vn 0.0301 0.0001 0.9995
vn -0.0212 -0.9997 -0.0133
vn -0.0265 -0.9992 -0.0300
vn -0.0073 -0.9997 -0.0243
vn -0.6321 0.3692 -0.6812
vn 0.5237 0.0008 0.8519
vn 0.8585 -0.0000 0.5129
vn 0.2003 -0.2679 0.9424
vn 0.9707 0.0001 0.2401
vn 0.7164 -0.0000 0.6977
vn -0.9999 -0.0089 0.0070
vn -1.0000 -0.0000 0.0012
vn -1.0000 -0.0000 0.0006
vn -1.0000 -0.0000 -0.0000
vn -0.6344 -0.3642 -0.6818
vn -0.6372 -0.3496 -0.6868
vn -0.0000 -0.0000 -1.0000
vn 0.0039 -0.0000 -1.0000
vn -1.0000 0.0070 0.0051
vn -0.0155 0.9998 -0.0112
vn -0.0204 0.9995 -0.0222
vn -0.0183 0.9996 -0.0196
vn -0.6335 0.3687 -0.6803
vn 0.0059 -0.0000 -1.0000
vn 0.0203 -0.0000 -0.9998
vn -0.6370 0.3508 -0.6865
vn -0.0123 0.9999 -0.0054
vn 0.0348 0.0001 -0.9994
s 0
f 4//1 10//1 23//1
f 19//2 23//2 13//2
f 18//3 15//3 17//3
f 24//4 20//4 19//4
f 29//5 27//5 30//5
f 14//6 8//6 7//6
f 20//7 24//7 30//7
f 7//8 12//8 15//8
f 21//9 28//9 22//9
f 1//10 10//10 2//10
f 13//11 6//11 5//11
f 9//12 8//12 14//12
f 23//13 28//13 29//13
f 17//14 26//14 27//14
f 26//15 15//15 12//15
f 25//16 6//16 20//16
f 19//17 6//17 13//17
f 25//18 12//18 11//18
f 17//19 21//19 18//19
f 4//20 23//20 22//20
f 13//21 10//21 5//21
f 5//22 10//22 2//22
f 10//23 13//23 23//23
f 23//24 24//24 29//24
f 24//25 23//25 19//25
f 18//26 14//26 15//26
f 6//27 11//27 3//27
f 11//28 12//28 3//28
f 12//29 7//29 3//29
f 5//30 6//30 3//30
f 24//31 29//31 30//31
f 29//32 28//32 27//32
f 28//33 21//33 27//33
f 30//34 25//34 20//34
f 21//35 16//35 18//35
f 17//36 27//36 21//36
f 22//37 4//37 16//37
f 4//38 1//38 8//38
f 9//39 4//39 8//39
f 9//40 16//40 4//40
f 16//41 21//41 22//41
f 1//42 4//42 10//42
f 7//43 8//43 3//43
f 26//44 25//44 30//44
f 30//45 27//45 26//45
f 16//46 9//46 14//46
f 14//47 18//47 16//47
f 3//48 8//48 1//48
f 1//49 2//49 3//49
f 2//50 5//50 3//50
f 23//51 22//51 28//51
f 26//52 17//52 15//52
f 25//53 11//53 6//53
f 15//54 14//54 7//54
f 19//55 20//55 6//55
f 25//56 26//56 12//56
f 8//57 9//57 1//57
f 9//58 16//58 1//58
f 16//59 28//59 1//59
f 28//60 22//60 4//60
f 28//60 4//60 1//60
f 4//61 2//61 1//61
f 4//62 10//62 2//62
f 10//63 23//63 29//63
f 10//63 29//63 2//63
f 29//64 5//64 2//64
f 21//65 28//65 16//65
f 21//66 30//66 28//66
f 30//67 24//67 28//67
f 24//68 29//68 28//68
f 29//69 22//69 28//69
f 29//70 24//70 5//70
f 24//71 13//71 5//71
f 23//72 22//72 29//72
f 25//56 26//56 11//56
f 26//18 12//18 11//18
f 27//73 30//73 21//73
f 19//74 13//74 24//74
