# Blender 4.0.0
# www.blender.org
o decimated_mesh
v 0.046731 0.016241 0.064793
v 0.091660 0.015069 0.062923
v 0.046734 0.015937 0.073409
v 0.100116 0.014851 0.069781
v 0.184867 0.010064 0.053874
v 0.046731 0.015588 0.062534
v 0.105785 0.012898 0.073149
v 0.183964 0.010195 0.057662
v 0.187460 0.009263 0.054134
v 0.187362 0.008374 0.051556
v 0.186460 0.007641 0.050164
v 0.046731 0.013942 0.074872
v 0.158581 0.010151 0.068435
v 0.144071 0.012700 0.068095
v 0.159937 0.012293 0.064345
v 0.178324 0.011130 0.057855
v 0.188937 0.007712 0.055803
v 0.189128 0.008096 0.052593
v 0.046731 0.012939 0.060934
v 0.046731 0.011408 0.075527
v 0.138315 0.010192 0.070628
v 0.158591 0.011460 0.066826
v 0.188006 0.006340 0.050742
v 0.187033 0.007656 0.057731
v 0.189715 0.005781 0.054109
v 0.189294 0.006340 0.052009
v 0.046731 -0.011398 0.075529
v 0.180727 0.010197 0.060736
v 0.178833 0.007785 0.063020
v 0.181776 0.008874 0.060940
v 0.181262 0.005966 0.062171
v 0.046731 -0.012816 0.060894
v 0.182197 -0.007538 0.061379
v 0.189342 -0.005792 0.051982
v 0.186420 -0.007620 0.050209
v 0.046731 -0.013932 0.074857
v 0.105287 -0.012763 0.073208
v 0.138343 -0.010185 0.070631
v 0.179189 -0.007598 0.062947
v 0.188153 -0.005570 0.050703
v 0.187476 -0.007573 0.057355
v 0.189072 -0.007789 0.055417
v 0.189574 -0.006330 0.054134
v 0.046730 -0.015905 0.063016
v 0.046733 -0.015924 0.073339
v 0.111306 -0.013447 0.071529
v 0.158623 -0.010128 0.068380
v 0.180685 -0.010147 0.060715
v 0.183849 -0.010139 0.057750
v 0.189014 -0.007947 0.052408
v 0.184524 -0.010080 0.054164
v 0.187320 -0.008307 0.051578
v 0.100857 -0.014795 0.069655
v 0.143318 -0.012697 0.068111
v 0.158571 -0.011379 0.066847
v 0.187460 -0.009160 0.054134
v 0.178295 -0.011063 0.057745
v 0.094295 -0.014967 0.062920
v 0.159363 -0.012263 0.064371
vn 1.0000 0.0005 -0.0000
vn 0.1022 -0.3998 0.9109
vn 0.1299 -0.9721 0.1953
vn 0.7116 0.0033 0.7026
vn 0.0139 0.9288 -0.3703
vn 0.2125 -0.7606 0.6134
vn 0.1205 0.7698 0.6269
vn 0.5203 -0.6502 0.5536
vn 0.5288 0.6540 0.5410
vn -0.0463 0.5165 -0.8550
vn 0.6455 0.7529 0.1285
vn 0.1641 -0.9863 0.0147
vn 0.4677 0.6202 -0.6298
vn 0.1014 0.3520 0.9305
vn 0.5129 0.8061 0.2952
vn 0.5866 0.3796 -0.7154
vn 0.9490 0.3014 0.0925
vn 0.9769 0.1449 -0.1572
vn 0.6712 0.2903 -0.6820
vn 0.4626 -0.0200 0.8864
vn 0.0323 -0.2563 0.9660
vn 0.3088 0.8956 -0.3203
vn 0.0322 0.9775 -0.2086
vn 0.5291 0.5224 0.6687
vn 0.4026 0.4425 0.8013
vn 0.2767 -0.5361 0.7976
vn 0.1101 -0.9244 0.3651
vn 0.0197 -0.9998 0.0064
vn 0.2759 0.5377 0.7967
vn 0.0020 -0.8495 -0.5275
vn 0.0531 -0.9922 0.1128
vn 0.4209 -0.4451 0.7904
vn -0.0420 -0.5656 -0.8236
vn 0.6061 -0.0047 0.7954
vn 0.1330 0.9701 0.2030
vn 0.5285 -0.4839 0.6976
vn 0.3321 0.0032 0.9432
vn 0.9452 -0.3264 -0.0009
vn 0.9727 -0.1776 -0.1493
vn 0.6898 -0.2399 -0.6830
vn 0.1103 -0.0025 0.9939
vn 0.5891 -0.3190 -0.7424
vn 0.4404 -0.6525 -0.6166
vn 0.0917 -0.8646 -0.4939
vn 0.1005 0.6703 0.7353
vn 0.0997 -0.6709 0.7348
vn 0.4921 -0.8286 0.2670
vn 0.6344 -0.7725 0.0284
vn 0.0463 -0.9153 0.4001
vn 0.7014 0.0110 -0.7127
vn 0.9077 -0.0026 0.4197
vn 0.0410 0.9990 -0.0188
vn 0.0846 -0.7793 0.6209
vn 0.3419 -0.8856 -0.3144
vn 0.0179 -0.9400 -0.3406
vn 0.2992 -0.9533 0.0407
vn 0.0481 0.8971 0.4392
vn 1.0000 -0.0008 -0.0004
vn 1.0000 -0.0000 -0.0000
vn 1.0000 0.0001 -0.0001
vn 1.0000 -0.0006 -0.0003
vn 1.0000 -0.0006 0.0022
vn 1.0000 0.0008 0.0032
vn 0.1184 -0.7713 0.6254
vn 0.1615 -0.9721 0.1699
vn 0.7716 -0.0091 0.6361
vn 0.0135 0.9606 -0.2775
vn 0.0340 0.5909 0.8060
vn 0.5322 -0.6733 0.5132
vn 0.5243 0.6488 0.5516
vn 0.1551 -0.9137 0.3756
vn 0.0999 0.8522 -0.5136
vn 0.0453 0.3536 0.9343
vn 0.2917 0.9558 0.0365
vn 0.3276 0.8894 -0.3189
vn 0.1637 0.9865 0.0049
vn 0.1592 0.9066 0.3907
vn 0.9807 0.0043 -0.1954
vn 0.9938 -0.0118 -0.1101
vn 0.0428 -0.9974 -0.0584
vn 0.0419 -0.9990 -0.0152
vn 0.0207 -0.9998 -0.0019
vn 0.6100 -0.0018 0.7924
vn 0.2781 -0.0035 -0.9606
vn 0.3554 0.0074 -0.9347
vn 0.0324 -0.9768 -0.2118
vn 0.1668 0.9704 0.1749
vn 0.0530 0.9918 0.1167
vn -0.0008 0.8371 -0.5471
vn 0.2585 0.0014 0.9660
vn 0.2557 -0.0021 0.9668
vn 0.1076 0.0003 0.9942
vn 0.0534 0.0001 0.9986
vn 0.0534 0.0002 0.9986
vn 0.2130 0.7573 0.6173
vn 0.0345 -0.6055 0.7951
vn 0.0589 -0.9366 0.3455
vn 0.7328 0.0044 -0.6804
vn 0.9349 -0.0101 0.3547
vn 0.0418 0.9973 -0.0604
vn 0.0260 0.9997 -0.0003
vn 0.0227 0.9991 0.0352
vn 0.0327 0.2501 0.9677
vn 0.0462 -0.3246 0.9447
vn 0.0473 -0.8542 0.5178
vn 0.2806 -0.9057 -0.3178
vn 0.1111 0.9224 0.3699
vn 0.0605 0.9043 0.4226
vn 0.5457 0.2430 0.8019
vn 0.4891 0.2653 0.8309
vn -0.0762 -0.0027 -0.9971
vn -0.0768 0.0015 -0.9970
vn 1.0000 -0.0000 0.0001
vn 1.0000 -0.0000 0.0005
vn 1.0000 -0.0000 -0.0003
vn 1.0000 0.0004 0.0009
vn 1.0000 -0.0017 -0.0002
vn 1.0000 0.0010 -0.0003
vn 0.0773 0.0008 0.9970
vn 0.0402 0.0015 0.9992
vn 0.0396 0.0001 0.9992
vn 0.0777 0.0002 0.9970
vn 0.0197 -0.9998 -0.0019
vn 0.0212 -0.9998 0.0049
s 0
f 27//1 45//1 32//1
f 38//2 37//2 47//2
f 48//3 59//3 57//3
f 41//4 17//4 24//4
f 5//5 6//5 2//5
f 47//6 55//6 48//6
f 22//7 14//7 13//7
f 49//8 41//8 48//8
f 8//9 24//9 17//9
f 11//10 19//10 6//10
f 9//11 17//11 18//11
f 57//12 51//12 49//12
f 10//13 18//13 11//13
f 7//14 21//14 13//14
f 8//15 17//15 9//15
f 11//16 18//16 23//16
f 17//17 25//17 18//17
f 18//18 25//18 26//18
f 18//19 26//19 23//19
f 33//20 31//20 39//20
f 27//21 36//21 37//21
f 9//22 10//22 5//22
f 16//23 5//23 2//23
f 28//24 30//24 24//24
f 28//25 29//25 30//25
f 39//26 47//26 48//26
f 55//27 54//27 59//27
f 44//28 58//28 53//28
f 28//29 13//29 29//29
f 35//30 51//30 44//30
f 59//31 54//31 53//31
f 48//32 33//32 39//32
f 32//33 35//33 44//33
f 31//34 33//34 41//34
f 16//35 15//35 28//35
f 33//36 48//36 41//36
f 39//37 31//37 29//37
f 43//38 42//38 50//38
f 43//39 50//39 34//39
f 34//40 50//40 40//40
f 38//41 47//41 13//41
f 35//42 40//42 50//42
f 35//43 50//43 52//43
f 51//44 35//44 52//44
f 13//45 14//45 7//45
f 37//46 54//46 47//46
f 42//47 49//47 56//47
f 42//48 56//48 50//48
f 46//49 45//49 53//49
f 26//50 40//50 23//50
f 42//51 25//51 17//51
f 4//52 15//52 2//52
f 46//53 54//53 37//53
f 56//54 52//54 50//54
f 58//55 44//55 51//55
f 49//56 51//56 56//56
f 4//57 3//57 7//57
f 3//58 20//58 1//58
f 20//59 19//59 1//59
f 1//60 19//60 6//60
f 19//59 20//59 32//59
f 44//61 32//61 45//61
f 36//62 45//62 27//62
f 27//59 32//59 20//59
f 20//63 3//63 12//63
f 54//64 55//64 47//64
f 57//65 49//65 48//65
f 41//66 42//66 17//66
f 1//67 2//67 6//67
f 12//68 7//68 3//68
f 49//69 42//69 41//69
f 8//70 28//70 24//70
f 59//71 48//71 55//71
f 5//72 10//72 11//72
f 38//73 27//73 37//73
f 8//74 9//74 5//74
f 9//75 18//75 10//75
f 8//76 5//76 16//76
f 22//77 28//77 15//77
f 34//78 26//78 25//78
f 25//79 43//79 34//79
f 58//80 57//80 59//80
f 59//81 53//81 58//81
f 53//82 45//82 44//82
f 41//83 24//83 31//83
f 35//84 11//84 40//84
f 11//85 23//85 40//85
f 57//86 58//86 51//86
f 28//87 8//87 16//87
f 15//88 4//88 14//88
f 11//89 6//89 5//89
f 29//90 13//90 39//90
f 47//91 39//91 13//91
f 13//92 21//92 38//92
f 21//93 20//93 27//93
f 38//94 21//94 27//94
f 13//95 28//95 22//95
f 45//96 37//96 36//96
f 53//97 54//97 46//97
f 26//98 34//98 40//98
f 42//99 43//99 25//99
f 16//100 2//100 15//100
f 4//101 2//101 1//101
f 1//102 3//102 4//102
f 12//103 20//103 7//103
f 20//104 21//104 7//104
f 37//105 45//105 46//105
f 56//106 51//106 52//106
f 15//107 14//107 22//107
f 7//108 14//108 4//108
f 24//109 30//109 31//109
f 30//110 29//110 31//110
f 35//111 32//111 11//111
f 32//112 19//112 11//112
f 6//113 32//113 19//113
f 6//114 44//114 32//114
f 6//115 45//115 44//115
f 6//116 36//116 45//116
f 6//59 27//59 36//59
f 6//59 20//59 27//59
f 6//59 12//59 20//59
f 6//117 3//117 12//117
f 6//118 1//118 3//118
f 37//119 21//119 7//119
f 20//120 37//120 7//120
f 27//121 37//121 20//121
f 38//122 21//122 37//122
f 58//123 45//123 44//123
f 58//124 53//124 45//124
