# Blender 4.0.0
# www.blender.org
o decimated_mesh
v 0.044328 0.022898 0.043006
v 0.035695 -0.022988 0.057070
v 0.037545 -0.021695 0.057092
v 0.038760 -0.018997 0.057084
v 0.038746 0.018993 0.057083
v 0.037753 0.021436 0.057084
v 0.036104 0.022931 0.057076
v -0.044444 0.022982 0.057084
v -0.059145 0.012649 0.057085
v -0.059351 -0.011397 0.057084
v -0.058624 -0.013192 0.057084
v -0.044446 -0.022975 0.057084
v 0.044304 -0.022875 0.043007
v 0.039383 -0.020510 0.055681
v 0.046600 0.019007 0.043005
v 0.039373 0.020511 0.055671
v -0.047443 0.023014 0.043014
v -0.049824 0.020549 0.043005
v -0.049882 -0.020442 0.043005
v -0.047405 -0.023029 0.043013
v 0.045857 -0.021061 0.043049
v 0.046600 -0.018997 0.043005
v 0.045860 0.021076 0.043025
vn 0.5393 -0.7773 0.3239
vn -0.0035 -0.0000 1.0000
vn 0.6898 -0.6147 0.3825
vn 0.6969 -0.3119 0.6458
vn 0.7179 0.2916 0.6322
vn 0.6454 0.7133 0.2732
vn -0.5706 0.8119 0.1235
vn -0.7163 0.6925 -0.0856
vn -0.5637 -0.8169 0.1217
vn -0.8658 -0.3507 -0.3570
vn -0.0002 -1.0000 0.0039
vn 0.0013 1.0000 -0.0017
vn 0.8737 0.0003 0.4865
vn -0.7191 -0.6888 -0.0917
vn 0.8452 -0.2944 0.4460
vn 0.8696 0.0923 0.4851
vn 0.8701 -0.0910 0.4844
vn -0.0211 0.0126 0.9997
vn 0.8441 0.2971 0.4463
vn -0.8342 0.0012 -0.5515
vn 0.0001 -0.0000 1.0000
vn -0.0038 -0.0000 1.0000
vn 0.0429 0.0254 -0.9988
vn 0.0005 -0.0000 1.0000
vn 0.0903 -0.0540 -0.9945
vn 0.0009 -0.0000 1.0000
vn 0.6971 -0.6057 0.3836
vn 0.7033 0.5960 0.3875
vn 0.6503 0.6587 0.3785
vn 0.0017 -1.0000 -0.0070
vn 0.0006 1.0000 0.0021
vn 0.8733 -0.0000 0.4872
vn -0.0000 -0.0000 1.0000
vn 0.0002 -0.0001 1.0000
vn -0.0028 -0.0001 1.0000
vn -0.0048 -0.0000 1.0000
vn -0.0082 -0.0037 1.0000
vn -0.8277 0.0071 -0.5612
vn 0.0001 -0.0038 1.0000
vn -0.8295 0.0012 -0.5586
vn -0.8357 0.0072 -0.5491
vn -0.0000 -0.0003 1.0000
vn -0.0001 -0.0000 1.0000
vn -0.0000 0.0001 1.0000
vn -0.0000 0.0002 1.0000
vn 0.0001 0.0054 1.0000
vn 0.6248 0.6910 0.3635
vn 0.6873 0.6159 0.3850
vn -0.0000 0.0005 1.0000
vn 0.0001 0.0034 1.0000
vn 0.8733 0.0003 0.4872
vn 0.8737 -0.0000 0.4865
vn -0.0001 -0.0002 1.0000
vn 0.0002 -0.0179 0.9998
vn 0.0067 -0.0000 1.0000
vn 0.0014 0.0002 1.0000
s 0
f 3//1 2//1 13//1
f 20//2 17//2 19//2
f 14//3 3//3 13//3
f 3//4 14//4 4//4
f 6//5 5//5 16//5
f 7//6 6//6 16//6
f 8//7 17//7 9//7
f 9//8 17//8 18//8
f 20//9 12//9 11//9
f 10//10 19//10 11//10
f 20//11 2//11 12//11
f 17//12 7//12 1//12
f 5//13 4//13 22//13
f 20//14 11//14 19//14
f 14//15 21//15 22//15
f 5//16 15//16 16//16
f 14//17 22//17 4//17
f 2//18 3//18 4//18
f 23//19 16//19 15//19
f 19//20 9//20 18//20
f 13//21 1//21 20//21
f 19//22 17//22 18//22
f 17//21 20//21 1//21
f 23//23 15//23 1//23
f 15//24 1//24 22//24
f 22//25 21//25 13//25
f 1//26 13//26 22//26
f 21//27 14//27 13//27
f 16//28 23//28 1//28
f 1//29 7//29 16//29
f 20//30 13//30 2//30
f 17//31 8//31 7//31
f 22//32 15//32 5//32
f 9//33 10//33 12//33
f 10//33 11//33 12//33
f 12//34 2//34 7//34
f 7//35 2//35 5//35
f 4//36 5//36 2//36
f 5//37 6//37 7//37
f 7//21 8//21 12//21
f 12//21 8//21 9//21
f 19//38 10//38 9//38
f 1//39 17//39 18//39
f 19//40 10//40 18//40
f 10//41 9//41 18//41
f 1//42 18//42 15//42
f 15//33 18//33 19//33
f 10//43 3//43 9//43
f 3//44 8//44 9//44
f 3//45 6//45 8//45
f 6//46 7//46 8//46
f 6//47 1//47 7//47
f 6//48 16//48 1//48
f 15//33 19//33 22//33
f 22//49 19//49 13//49
f 13//50 19//50 20//50
f 11//43 3//43 10//43
f 5//51 4//51 15//51
f 4//52 22//52 15//52
f 11//53 12//53 3//53
f 12//54 2//54 3//54
f 4//55 5//55 3//55
f 5//56 6//56 3//56
