# Blender 4.0.0
# www.blender.org
o decimated_mesh
v 0.052748 -0.019019 -0.000560
v 0.051584 -0.022426 -0.000477
v 0.053141 -0.019005 0.029072
v 0.052159 -0.022112 0.029072
v 0.050127 -0.018991 0.029072
v 0.050996 -0.018992 -0.000739
v 0.041507 -0.027080 -0.000736
v 0.038074 -0.027038 0.029072
v 0.044170 -0.027038 0.000917
v 0.044337 -0.027038 0.029072
v 0.038550 -0.027038 0.001025
vn 0.0564 -0.0664 -0.9962
vn 0.9534 -0.3013 -0.0125
vn -0.0000 -0.0000 1.0000
vn -0.5552 0.8316 -0.0094
vn 0.5278 -0.8494 -0.0031
vn 0.3593 -0.7467 -0.5597
vn 0.0005 -0.9997 0.0246
vn -0.0045 -1.0000 0.0005
vn 0.1004 -0.0586 -0.9932
vn 0.9461 -0.3235 -0.0150
vn -0.5444 0.8387 -0.0159
vn 0.5329 -0.8462 -0.0014
vn -0.4349 0.5100 -0.7422
vn -0.0000 -1.0000 -0.0000
vn -0.0155 -0.9999 -0.0004
vn -0.0156 -0.9999 0.0007
vn -0.0045 -1.0000 -0.0001
vn -0.0000 -1.0000 0.0014
vn 0.0158 -0.9999 -0.0001
vn -0.0143 -0.9999 -0.0002
s 0
f 2//1 7//1 6//1
f 1//2 3//2 4//2
f 5//3 8//3 10//3
f 11//4 8//4 5//4
f 9//5 2//5 10//5
f 2//6 9//6 7//6
f 9//7 11//7 7//7
f 5//8 1//8 3//8
f 1//9 2//9 6//9
f 4//10 2//10 1//10
f 10//3 4//3 5//3
f 4//3 3//3 5//3
f 5//11 6//11 11//11
f 2//12 4//12 10//12
f 7//13 11//13 6//13
f 9//14 10//14 11//14
f 10//14 8//14 11//14
f 6//15 1//15 5//15
f 1//16 3//16 6//16
f 6//17 3//17 5//17
f 8//18 7//18 10//18
f 7//19 9//19 10//19
f 7//20 8//20 11//20
