# Blender 4.0.0
# www.blender.org
o decimated_mesh
v -0.038065 0.027410 -0.000612
v -0.038051 0.029834 -0.000174
v 0.000045 0.027985 -0.000622
v -0.038065 0.026534 0.030415
v 0.000044 0.026917 0.030415
v 0.000044 0.030295 0.000741
v -0.038051 0.030250 0.030415
v 0.000044 0.030424 0.030415
vn -1.0000 0.0037 0.0001
vn 1.0000 0.0006 0.0001
vn -0.0000 -0.0000 1.0000
vn 0.0151 -0.9993 -0.0344
vn 0.0145 0.5081 -0.8612
vn -0.0029 0.1780 -0.9840
vn -1.0000 0.0059 -0.0001
vn 1.0000 -0.0000 -0.0000
vn 0.0100 -0.9996 -0.0282
vn -0.0120 0.9999 -0.0044
vn -0.0046 0.9999 -0.0136
vn 1.0000 0.0006 -0.0000
vn -0.0046 1.0000 -0.0044
vn -0.0118 0.9998 -0.0136
s 0
f 1//1 4//1 7//1
f 5//2 3//2 6//2
f 5//3 8//3 7//3
f 5//4 1//4 3//4
f 6//5 3//5 2//5
f 3//6 1//6 2//6
f 7//7 2//7 1//7
f 6//8 8//8 5//8
f 4//3 5//3 7//3
f 5//9 4//9 1//9
f 2//10 8//10 6//10
f 7//11 8//11 2//11
f 8//8 5//8 3//8
f 6//12 8//12 3//12
f 6//13 7//13 8//13
f 7//14 6//14 2//14
