# Blender 4.0.0
# www.blender.org
o decimated_mesh
v -0.084430 0.450040 -0.127684
v -0.084433 0.473995 -0.127475
v -0.148582 0.500938 0.188595
v -0.148577 0.419412 0.173377
v -0.561255 0.523466 -0.057527
v -0.551763 0.485939 -0.054007
v -0.084477 0.389249 -0.168485
v -0.235794 0.390575 -0.050672
v -0.171846 0.390575 -0.050672
v -0.556222 0.480309 -0.064555
v -0.084430 0.505749 -0.161665
v -0.409784 0.523424 0.029987
v -0.561822 0.491031 -0.063906
v -0.084500 0.388847 -0.226213
v -0.421741 0.423439 -0.084032
v -0.459527 0.419193 -0.205377
v -0.244559 0.390575 -0.076084
v -0.560660 0.483637 -0.069447
v -0.148592 0.510185 0.177281
v -0.566156 0.523437 -0.073519
v -0.397154 0.419062 -0.309914
v -0.256237 0.424390 -0.338275
v -0.084389 0.424300 -0.286160
v -0.368545 0.422159 -0.021057
v -0.562082 0.488146 -0.074637
v -0.084200 0.517278 -0.206500
v -0.148434 0.517213 0.140547
v -0.333216 0.481053 -0.462764
v -0.317461 0.425311 -0.338480
v -0.319078 0.480938 -0.463201
v -0.169573 0.488229 -0.381060
v -0.452231 0.436559 -0.267099
v -0.456108 0.425235 -0.245803
v -0.429524 0.425351 -0.291277
v -0.339617 0.485255 -0.459677
v -0.324948 0.491203 -0.470681
v -0.458082 0.471210 -0.272719
v -0.331342 0.523412 -0.471307
v -0.344130 0.523413 -0.460982
v -0.323258 0.523412 -0.471812
v -0.167000 0.523616 -0.381071
v -0.084430 0.510779 -0.235022
v -0.084438 0.481723 -0.289974
vn -0.2791 -0.9459 -0.1655
vn -0.0560 0.9807 0.1874
vn -0.1854 -0.9629 0.1961
vn -0.0000 -0.9918 0.1277
vn 0.1367 -0.9842 0.1125
vn -0.1409 0.8734 0.4662
vn -0.5136 -0.0496 0.8566
vn 0.0058 1.0000 -0.0070
vn -0.7360 -0.4167 0.5336
vn -0.7266 -0.1203 0.6764
vn 0.9723 -0.1309 0.1938
vn 0.4988 -0.0365 -0.8660
vn -0.9735 -0.2137 0.0810
vn -0.0979 -0.9936 -0.0572
vn -0.4324 -0.7067 0.5600
vn -0.7212 -0.5486 -0.4230
vn -0.3536 -0.8511 0.3880
vn 0.7276 -0.0531 -0.6839
vn -0.3028 0.7378 0.6033
vn 0.4832 0.8528 -0.1982
vn 0.1856 0.9783 -0.0920
vn 0.4304 -0.5208 -0.7372
vn -0.8349 -0.1171 -0.5378
vn -0.5616 -0.1274 -0.8175
vn -0.5319 -0.2072 -0.8210
vn -0.9553 -0.0409 0.2929
vn -0.6284 -0.5637 -0.5360
vn -0.6777 -0.7167 -0.1644
vn -0.9781 0.0017 -0.2082
vn -1.0000 0.0011 0.0078
vn -0.7562 -0.3741 -0.5368
vn -0.9917 -0.1162 0.0553
vn 0.7200 0.6810 0.1334
vn 0.0191 0.9611 0.2755
vn -0.9644 -0.1937 -0.1800
vn 0.8173 0.5570 0.1474
vn -0.4286 -0.7606 -0.4877
vn -0.3672 -0.9185 0.1465
vn 0.6942 0.6363 -0.3365
vn 0.4668 -0.3308 -0.8202
vn -0.2785 -0.9462 -0.1650
vn -0.1977 -0.9691 0.1473
vn -0.1521 0.8508 0.5029
vn -0.5047 -0.1584 0.8486
vn -0.0000 1.0000 -0.0000
vn 0.0029 1.0000 -0.0084
vn -0.8362 -0.4064 -0.3683
vn 0.5014 -0.0566 -0.8633
vn -0.5726 -0.8190 -0.0378
vn -0.0772 -0.9945 -0.0708
vn -0.8716 -0.2184 -0.4389
vn -0.3415 -0.9002 0.2702
vn -0.4795 0.2850 0.8300
vn 0.7282 -0.0448 -0.6839
vn -0.0296 -0.5997 -0.7997
vn 0.1848 0.9807 -0.0637
vn -0.8850 -0.0877 -0.4572
vn -0.8633 0.1004 -0.4947
vn -0.0720 -0.9134 -0.4006
vn -0.0200 -0.9132 -0.4070
vn -0.0124 -0.9133 -0.4072
vn -0.9787 0.0376 -0.2018
vn -0.8155 -0.2242 -0.5336
vn -1.0000 0.0005 -0.0016
vn -1.0000 -0.0008 0.0006
vn -1.0000 0.0030 -0.0043
vn -1.0000 0.0004 0.0006
vn -1.0000 -0.0002 -0.0003
vn -1.0000 0.0004 0.0004
vn -0.6251 -0.1004 -0.7741
vn -0.0006 1.0000 -0.0012
vn 0.0001 1.0000 -0.0000
vn 0.0016 1.0000 -0.0023
vn 0.0220 0.9997 0.0043
vn 0.0336 0.9992 0.0203
vn -0.0011 1.0000 -0.0002
vn -0.0623 -0.0317 -0.9976
vn -0.7792 -0.5629 -0.2755
vn 0.0137 0.9681 0.2501
vn -0.9601 -0.2169 -0.1764
vn -0.7935 -0.4399 0.4205
vn -1.0000 -0.0006 0.0031
vn -0.9996 -0.0263 0.0140
vn 0.0547 0.9984 0.0103
vn -0.9999 -0.0075 -0.0070
vn -1.0000 -0.0001 -0.0030
vn -1.0000 0.0017 -0.0014
vn -1.0000 0.0021 -0.0001
vn -1.0000 0.0037 0.0004
vn -0.1734 0.8478 0.5011
vn 0.7251 -0.0529 -0.6866
vn 0.7299 -0.0447 -0.6821
vn 0.5019 -0.0368 -0.8642
vn -0.0001 1.0000 -0.0020
vn -0.0007 1.0000 -0.0009
vn -0.0009 1.0000 -0.0006
vn -0.0000 1.0000 0.0005
vn 0.0188 0.9998 0.0116
vn 0.9591 0.2197 0.1787
vn 0.9647 0.1930 0.1793
vn -0.9800 0.0016 -0.1990
vn -0.9781 0.0381 -0.2045
vn -0.0000 0.9999 -0.0113
vn 0.0033 1.0000 -0.0070
vn 0.0210 0.9629 0.2692
vn 0.0135 0.9589 0.2835
vn -0.1160 0.8816 0.4574
vn 0.0082 1.0000 -0.0028
vn 0.4980 -0.0565 -0.8653
vn -0.0020 1.0000 -0.0012
vn 0.1895 0.9775 -0.0932
vn 0.1654 0.9846 -0.0570
s 0
f 33//1 34//1 21//1
f 27//2 12//2 19//2
f 4//3 24//3 8//3
f 4//4 8//4 9//4
f 4//5 9//5 7//5
f 23//6 30//6 22//6
f 6//7 3//7 5//7
f 7//8 14//8 9//8
f 6//9 13//9 10//9
f 13//10 6//10 5//10
f 1//11 4//11 7//11
f 36//12 41//12 31//12
f 18//13 13//13 25//13
f 16//14 21//14 17//14
f 4//15 6//15 10//15
f 33//16 32//16 34//16
f 24//17 4//17 10//17
f 43//18 31//18 41//18
f 19//19 12//19 3//19
f 26//20 42//20 41//20
f 15//21 17//21 16//21
f 30//22 31//22 23//22
f 35//23 37//23 39//23
f 36//24 35//24 38//24
f 35//25 36//25 28//25
f 20//26 13//26 5//26
f 28//27 34//27 35//27
f 33//28 16//28 18//28
f 4//29 2//29 1//29
f 42//30 14//30 26//30
f 35//31 34//31 32//31
f 20//32 25//32 13//32
f 26//33 27//33 19//33
f 21//34 14//34 22//34
f 19//35 11//35 2//35
f 19//36 11//36 26//36
f 21//37 34//37 28//37
f 10//38 16//38 15//38
f 41//39 42//39 43//39
f 30//40 36//40 31//40
f 21//41 16//41 33//41
f 15//42 8//42 24//42
f 23//43 22//43 14//43
f 6//44 4//44 3//44
f 8//45 9//45 17//45
f 17//46 9//46 14//46
f 33//47 25//47 32//47
f 40//48 41//48 36//48
f 16//49 10//49 18//49
f 21//50 14//50 17//50
f 37//51 32//51 25//51
f 15//52 24//52 10//52
f 12//53 5//53 3//53
f 43//54 23//54 31//54
f 30//55 28//55 36//55
f 17//56 15//56 8//56
f 25//57 20//57 37//57
f 20//58 39//58 37//58
f 29//59 21//59 28//59
f 28//60 30//60 29//60
f 30//61 22//61 29//61
f 3//62 2//62 4//62
f 35//63 32//63 37//63
f 14//64 42//64 23//64
f 43//65 23//65 42//65
f 26//66 14//66 11//66
f 7//67 1//67 11//67
f 11//68 1//68 2//68
f 7//69 11//69 14//69
f 38//70 35//70 39//70
f 41//71 40//71 39//71
f 38//45 39//45 40//45
f 39//72 20//72 12//72
f 5//73 12//73 20//73
f 12//74 27//74 26//74
f 26//75 41//75 12//75
f 41//76 39//76 12//76
f 36//77 38//77 40//77
f 33//78 18//78 25//78
f 21//79 22//79 29//79
f 19//80 2//80 3//80
f 18//81 10//81 13//81
f 23//82 26//82 43//82
f 43//83 26//83 42//83
f 41//84 27//84 26//84
f 11//85 26//85 2//85
f 2//86 26//86 1//86
f 1//87 26//87 7//87
f 7//88 26//88 23//88
f 7//89 23//89 14//89
f 14//90 23//90 30//90
f 31//91 41//91 23//91
f 41//92 43//92 23//92
f 31//93 40//93 41//93
f 40//94 38//94 41//94
f 38//95 39//95 41//95
f 39//96 5//96 41//96
f 5//97 12//97 41//97
f 12//98 27//98 41//98
f 3//99 11//99 19//99
f 3//100 2//100 11//100
f 3//101 2//101 1//101
f 3//102 1//102 4//102
f 9//103 7//103 8//103
f 8//104 7//104 14//104
f 21//105 14//105 29//105
f 29//106 14//106 22//106
f 22//107 14//107 30//107
f 8//108 14//108 17//108
f 36//109 40//109 31//109
f 20//110 5//110 39//110
f 15//111 8//111 16//111
f 16//112 8//112 17//112
