# Blender 4.0.0
# www.blender.org
o decimated_mesh
v -0.148593 0.390546 -0.144933
v -0.173521 0.390546 -0.045531
v -0.133493 0.389229 -0.122485
v -0.148593 0.307196 -0.144933
v -0.201720 0.390732 -0.146249
v 0.020119 0.292946 -0.122485
v 0.032576 0.236811 -0.135903
v -0.204162 0.390327 -0.046080
v -0.148568 0.341189 -0.002823
v 0.031963 0.242538 -0.037514
v -0.201470 0.249325 -0.066715
v -0.037479 0.236952 -0.134150
v -0.230107 0.390505 -0.085609
v -0.147695 0.253696 -0.002352
v -0.024842 0.244211 -0.002001
v -0.201147 0.249187 -0.054484
v -0.037120 0.201047 -0.071047
v 0.002915 0.209053 -0.099316
v -0.028974 0.183234 -0.002395
v -0.089657 0.210330 -0.001978
v -0.012589 0.183468 -0.002014
v 0.000889 0.183399 -0.042453
v 0.031662 0.207650 -0.093266
v 0.032035 0.182609 -0.030658
vn 0.5076 0.8099 -0.2939
vn 0.2851 0.2822 -0.9160
vn -0.0183 0.6489 0.7606
vn -0.0249 -0.1901 -0.9814
vn 0.5319 0.7588 0.3760
vn 0.5138 0.8197 0.2532
vn 0.5293 0.1066 0.8417
vn 0.9759 0.2181 -0.0066
vn 0.4459 0.5747 0.6862
vn -0.9804 -0.1957 0.0236
vn -0.3574 -0.9339 -0.0011
vn -0.4960 -0.6589 0.5655
vn -0.8350 -0.0505 0.5479
vn -0.3342 -0.6355 -0.6961
vn -0.6004 -0.3928 -0.6965
vn 0.0021 0.9984 0.0572
vn -0.3997 -0.8980 0.1841
vn -0.2593 -0.8401 -0.4765
vn 0.0498 -0.0000 -0.9988
vn -0.2770 -0.9375 -0.2104
vn 0.0780 -0.8237 -0.5617
vn -0.8802 -0.2338 -0.4129
vn 1.0000 0.0006 -0.0057
vn 0.9998 -0.0205 0.0074
vn 0.5390 0.0964 0.8368
vn -0.1722 -0.8566 -0.4864
vn -0.0169 -0.7899 -0.6130
vn 0.0231 0.9997 0.0060
vn -0.0141 0.9999 -0.0064
vn -0.0025 1.0000 0.0026
vn -0.0073 0.9999 0.0093
vn 0.0237 0.9997 -0.0048
vn 0.1165 -0.9219 -0.3694
vn 0.0418 -0.9113 -0.4096
vn -0.1100 -0.9045 -0.4120
vn -0.6946 -0.0575 0.7171
vn 0.0232 0.0049 -0.9997
vn -0.0039 0.0067 -1.0000
vn 0.0025 -0.0054 -1.0000
vn 0.0248 -0.0000 -0.9997
vn -0.2807 -0.9366 -0.2097
vn 0.4834 0.6996 0.5261
vn -0.6151 -0.0019 0.7884
vn 0.0035 1.0000 0.0009
vn 0.0634 0.9979 0.0159
vn 0.0024 -0.0054 -1.0000
vn 1.0000 0.0019 0.0061
vn 0.9944 -0.0960 -0.0443
vn 0.0186 0.9997 0.0180
vn -0.0131 0.9986 -0.0503
vn 0.0223 0.0653 -0.9976
vn -0.0004 0.0001 -1.0000
s 0
f 1//1 3//1 6//1
f 1//2 6//2 7//2
f 2//3 8//3 9//3
f 4//4 7//4 12//4
f 2//5 10//5 6//5
f 2//6 6//6 3//6
f 21//7 10//7 15//7
f 6//8 10//8 7//8
f 9//9 15//9 10//9
f 11//10 16//10 13//10
f 19//11 16//11 11//11
f 14//12 16//12 20//12
f 8//13 13//13 16//13
f 12//14 11//14 4//14
f 5//15 4//15 11//15
f 3//16 1//16 5//16
f 19//17 20//17 16//17
f 12//18 17//18 11//18
f 4//19 1//19 7//19
f 19//20 17//20 22//20
f 18//21 7//21 23//21
f 13//22 5//22 11//22
f 24//23 23//23 10//23
f 7//24 10//24 23//24
f 21//25 24//25 10//25
f 17//26 12//26 18//26
f 18//27 12//27 7//27
f 24//28 22//28 21//28
f 22//29 19//29 21//29
f 5//30 13//30 2//30
f 13//31 8//31 2//31
f 2//32 3//32 5//32
f 23//33 24//33 22//33
f 18//34 23//34 22//34
f 22//35 17//35 18//35
f 16//36 14//36 8//36
f 21//37 19//37 15//37
f 19//38 20//38 15//38
f 15//39 14//39 9//39
f 20//39 14//39 15//39
f 4//40 5//40 1//40
f 19//41 11//41 17//41
f 10//42 2//42 9//42
f 8//43 14//43 9//43
f 2//44 1//44 5//44
f 3//45 1//45 2//45
f 14//39 9//39 20//39
f 20//46 9//46 15//46
f 24//47 7//47 10//47
f 24//48 23//48 7//48
f 22//49 19//49 24//49
f 24//50 19//50 21//50
f 21//51 19//51 20//51
f 21//52 20//52 15//52
