# Blender 4.0.0
# www.blender.org
o decimated_mesh
v 0.068599 0.182987 -0.135391
v 0.113858 0.206791 -0.002021
v 0.113858 0.248442 -0.002021
v 0.131248 0.328594 -0.112438
v 0.172324 0.376396 -0.112438
v 0.112670 -0.001167 -0.135057
v 0.131248 0.248442 0.013748
v 0.193783 -0.001204 -0.002007
v 0.131248 0.279680 0.013748
v 0.222344 0.376396 0.013748
v 0.217774 0.376429 -0.112002
v 0.183457 0.248442 0.013748
v 0.199667 -0.000484 -0.002118
v 0.265410 0.376397 0.013554
v 0.179838 -0.000655 -0.077109
v 0.154582 -0.001722 -0.109453
v 0.126255 -0.001049 -0.135188
v 0.197175 -0.001905 -0.031089
v 0.249956 0.376396 -0.052668
vn -0.9470 -0.0000 0.3214
vn 0.1117 0.0339 -0.9932
vn -0.3307 0.2841 -0.9000
vn -0.0096 -0.0041 -0.9999
vn -0.7035 0.6626 0.2569
vn -0.9118 -0.2176 0.3483
vn 0.0083 -0.9993 -0.0353
vn -0.4214 -0.1619 0.8923
vn -0.9182 0.3750 0.1276
vn 0.0094 0.1129 -0.9936
vn -0.6718 -0.0000 0.7408
vn 0.0919 -0.0574 0.9941
vn -0.0000 1.0000 -0.0000
vn 0.7831 -0.1350 -0.6071
vn -0.0000 -0.0630 0.9980
vn 0.9240 -0.1490 -0.3521
vn 0.9828 -0.1683 -0.0763
vn 0.9632 -0.1472 -0.2248
vn 0.8714 -0.1314 -0.4727
vn -0.8113 -0.3117 0.4945
vn 0.6664 -0.1163 -0.7365
vn -0.7263 0.6241 0.2879
vn -0.0177 -0.9998 0.0073
vn 0.1221 -0.9918 0.0381
vn -0.0335 -0.9992 0.0201
vn -0.8947 0.4165 0.1615
vn -0.0007 1.0000 0.0010
vn 0.0264 -0.0619 0.9977
vn 0.0045 -0.0014 1.0000
vn -0.0000 -0.0000 1.0000
vn 0.1467 -0.9858 -0.0820
vn -0.7354 0.6319 0.2449
vn -0.0007 1.0000 0.0003
vn -0.6994 0.6588 0.2772
vn -0.0000 1.0000 0.0003
vn 0.0018 1.0000 -0.0004
s 0
f 1//1 2//1 3//1
f 1//2 11//2 17//2
f 1//3 4//3 5//3
f 6//4 1//4 17//4
f 10//5 4//5 9//5
f 1//6 6//6 2//6
f 6//7 17//7 16//7
f 2//8 8//8 7//8
f 3//9 4//9 1//9
f 1//10 5//10 11//10
f 3//11 7//11 9//11
f 12//12 13//12 14//12
f 5//13 10//13 19//13
f 16//14 11//14 15//14
f 7//15 8//15 12//15
f 19//16 18//16 15//16
f 14//17 13//17 18//17
f 19//18 14//18 18//18
f 15//19 11//19 19//19
f 6//20 8//20 2//20
f 17//21 11//21 16//21
f 10//22 5//22 4//22
f 16//23 18//23 6//23
f 18//24 13//24 8//24
f 8//25 6//25 18//25
f 3//26 9//26 4//26
f 3//11 2//11 7//11
f 14//13 19//13 10//13
f 19//27 11//27 5//27
f 8//28 13//28 12//28
f 12//29 14//29 10//29
f 10//30 9//30 12//30
f 9//30 7//30 12//30
f 16//31 15//31 18//31
f 9//32 5//32 4//32
f 10//33 11//33 5//33
f 9//34 10//34 5//34
f 10//35 14//35 11//35
f 14//36 19//36 11//36
