# Blender 4.0.0
# www.blender.org
o decimated_mesh
v 0.072072 0.070374 0.175834
v 0.084729 -0.000273 0.172755
v 0.105507 0.067236 0.165201
v 0.115152 -0.001148 0.159803
v 0.071979 0.004748 0.175630
v 0.071988 -0.001928 0.173864
v 0.128554 -0.000028 0.153288
v 0.128580 0.066639 0.153288
v 0.197435 -0.002117 0.050548
v 0.097822 0.218548 0.146718
v 0.081493 0.208401 0.153323
v 0.071975 0.218524 0.153154
v 0.164758 -0.001371 0.120534
v 0.166361 0.003316 0.120355
v 0.071980 -0.001854 0.168345
v 0.198079 -0.001238 -0.001990
v 0.204266 -0.000125 0.011560
v 0.204353 -0.000290 0.029597
v 0.152517 0.070296 0.134495
v 0.125509 0.218536 0.132654
v 0.193785 -0.001238 -0.001990
v 0.194935 -0.000223 0.068381
v 0.185858 -0.001313 0.088740
v 0.201476 0.004769 -0.001990
v 0.071979 0.218536 0.142466
v 0.137483 0.218536 0.124428
v 0.173442 0.217455 -0.001972
v 0.184143 0.217362 -0.001857
v 0.162567 0.218144 0.097209
v 0.186282 0.065847 0.089277
v 0.176054 0.073664 0.107051
v 0.195164 0.070939 0.069480
v 0.204057 0.065390 -0.001818
v 0.177738 0.217500 0.068312
v 0.185624 0.217451 0.033715
v 0.204301 0.067415 0.028559
vn 0.9683 0.1169 0.2206
vn 0.1527 -0.8950 0.4191
vn 0.7578 0.0189 0.6522
vn 0.2346 0.2363 0.9429
vn 0.5626 0.1127 0.8190
vn 0.7471 0.1143 0.6548
vn 0.7028 -0.6903 0.1719
vn 0.4574 -0.8753 0.1571
vn 0.8198 -0.4635 -0.3362
vn 0.8059 -0.2551 0.5343
vn 0.1009 0.9949 0.0096
vn 0.1165 -0.2539 0.9602
vn 0.2101 -0.9394 0.2708
vn 0.0108 0.0012 -0.9999
vn 0.2064 -0.9784 -0.0138
vn 0.4378 -0.0092 0.8990
vn 0.3042 0.0130 0.9525
vn 0.8162 0.0759 0.5728
vn 0.0087 1.0000 -0.0029
vn 0.8812 0.1084 0.4602
vn 0.4490 0.1308 0.8839
vn 0.3117 0.1322 0.9410
vn 0.9718 0.0044 0.2359
vn -1.0000 -0.0017 0.0014
vn 1.0000 -0.0014 0.0014
vn 1.0000 0.0007 0.0004
vn 1.0000 -0.0007 -0.0058
vn 0.2187 -0.0034 0.9758
vn 0.8505 -0.0096 0.5259
vn 0.8621 -0.0230 0.5062
vn 0.0701 0.9974 0.0146
vn 0.9135 -0.0090 0.4068
vn 0.9132 -0.0092 0.4073
vn 0.9717 0.1138 0.2071
vn 0.6018 0.1194 0.7897
vn 0.7309 0.1198 0.6719
vn 0.1421 0.1499 0.9784
vn 0.9756 -0.0409 -0.2157
vn -0.0065 1.0000 -0.0025
vn -0.0233 0.9991 -0.0351
vn -0.0137 0.9998 0.0133
vn -0.0044 1.0000 0.0004
vn -0.0000 -0.9999 -0.0167
vn -0.0023 0.0029 -1.0000
vn -0.0000 -0.0000 -1.0000
vn 0.0101 0.0010 -0.9999
vn 0.2269 -0.9739 -0.0100
vn 0.6176 -0.0002 0.7865
vn 0.6578 -0.0230 0.7528
vn 0.4588 -0.0002 0.8886
vn 0.3912 -0.0174 0.9201
vn 0.8114 0.0682 0.5805
vn 0.0009 1.0000 -0.0068
vn -0.0007 1.0000 0.0011
vn -0.0002 1.0000 -0.0014
vn -0.0000 1.0000 -0.0000
vn -0.0053 0.9998 -0.0193
vn 0.0156 0.9999 -0.0052
vn 0.8819 0.1135 0.4576
vn 0.8946 0.1168 0.4314
vn 0.6539 -0.1956 0.7308
vn 0.4576 0.1288 0.8798
vn 0.3009 0.1307 0.9447
vn 0.9758 -0.0065 0.2184
vn 1.0000 0.0007 -0.0048
vn 1.0000 0.0015 -0.0081
vn 0.9907 0.1298 -0.0416
vn 0.9921 0.1241 -0.0163
vn 0.3116 0.1308 0.9412
vn 0.2991 0.1337 0.9448
vn 0.9999 -0.0014 -0.0133
vn 0.0017 1.0000 0.0025
vn -0.0003 1.0000 -0.0011
vn 1.0000 -0.0000 0.0004
vn 1.0000 -0.0000 0.0001
vn 0.6026 0.1147 0.7898
vn 0.5620 0.1225 0.8180
vn 0.0338 -0.9983 0.0483
vn 0.0092 0.9999 -0.0059
vn 0.0088 0.9999 -0.0061
vn -0.0026 1.0000 -0.0093
vn 0.8167 0.0673 0.5732
vn -0.0167 -0.9997 -0.0156
vn -0.0146 -0.9998 -0.0133
vn 0.8110 0.0754 0.5802
vn 0.0166 -0.9997 0.0184
vn 0.0633 -0.9972 0.0402
vn 0.8499 -0.0175 0.5267
vn 0.0208 0.9998 -0.0034
vn 0.8807 0.1135 0.4598
vn 0.0178 0.0021 -0.9998
vn 0.0108 0.0015 -0.9999
vn -0.0001 0.0001 -1.0000
vn 0.8649 -0.0095 0.5019
vn 0.8818 0.1130 0.4578
vn 0.9135 -0.0092 0.4068
vn 0.9132 -0.0090 0.4074
vn 0.8960 0.1100 0.4303
vn 0.9760 0.0041 0.2176
vn 0.9717 -0.0068 0.2360
s 0
f 32//1 35//1 34//1
f 4//2 2//2 6//2
f 14//3 31//3 19//3
f 12//4 11//4 10//4
f 19//5 26//5 20//5
f 31//6 29//6 19//6
f 9//7 18//7 22//7
f 9//8 22//8 23//8
f 16//9 24//9 17//9
f 13//10 23//10 14//10
f 21//11 23//11 9//11
f 5//12 6//12 2//12
f 13//13 7//13 4//13
f 33//14 27//14 28//14
f 17//15 9//15 16//15
f 3//16 4//16 7//16
f 2//17 3//17 1//17
f 21//18 27//18 25//18
f 35//19 28//19 27//19
f 32//20 34//20 29//20
f 3//21 20//21 10//21
f 11//22 1//22 3//22
f 36//23 22//23 18//23
f 6//24 5//24 15//24
f 5//25 15//25 1//25
f 1//26 25//26 12//26
f 25//27 1//27 15//27
f 5//28 2//28 1//28
f 14//29 23//29 30//29
f 30//30 31//30 14//30
f 34//31 35//31 29//31
f 30//32 23//32 22//32
f 22//33 32//33 30//33
f 36//34 35//34 32//34
f 20//35 8//35 19//35
f 26//36 19//36 29//36
f 11//37 12//37 1//37
f 33//38 17//38 24//38
f 23//39 15//39 13//39
f 13//40 15//40 4//40
f 4//41 15//41 6//41
f 15//42 23//42 21//42
f 21//43 16//43 9//43
f 33//44 24//44 21//44
f 24//45 16//45 21//45
f 21//46 27//46 33//46
f 17//47 18//47 9//47
f 8//48 7//48 19//48
f 7//49 14//49 19//49
f 7//50 8//50 3//50
f 2//51 4//51 3//51
f 21//52 25//52 15//52
f 27//53 25//53 29//53
f 25//54 12//54 10//54
f 10//55 20//55 25//55
f 20//56 26//56 25//56
f 26//57 29//57 25//57
f 29//58 35//58 27//58
f 29//59 31//59 30//59
f 30//60 32//60 29//60
f 14//61 7//61 13//61
f 3//62 8//62 20//62
f 3//63 10//63 11//63
f 36//64 32//64 22//64
f 18//65 17//65 36//65
f 36//66 17//66 33//66
f 33//67 28//67 35//67
f 36//68 33//68 35//68
f 3//69 10//69 1//69
f 10//70 11//70 1//70
f 12//71 1//71 5//71
f 20//72 26//72 10//72
f 26//73 25//73 10//73
f 25//74 12//74 15//74
f 15//75 12//75 5//75
f 19//76 26//76 8//76
f 26//77 20//77 8//77
f 6//78 13//78 4//78
f 29//79 28//79 26//79
f 28//80 27//80 26//80
f 27//81 25//81 26//81
f 27//82 25//82 15//82
f 21//83 9//83 15//83
f 9//84 6//84 15//84
f 27//85 15//85 21//85
f 9//86 13//86 6//86
f 9//87 23//87 13//87
f 23//88 31//88 14//88
f 35//89 28//89 29//89
f 31//90 34//90 29//90
f 33//91 24//91 28//91
f 24//92 27//92 28//92
f 24//93 21//93 27//93
f 23//94 30//94 31//94
f 30//95 34//95 31//95
f 22//96 32//96 23//96
f 32//97 30//97 23//97
f 30//98 32//98 34//98
f 36//99 32//99 18//99
f 32//100 22//100 18//100
