# Blender 4.0.0
# www.blender.org
o decimated_mesh
v -0.148618 -0.001157 0.083017
v -0.204020 0.027204 0.013403
v -0.204017 -0.001437 0.010066
v -0.148595 0.070929 0.084159
v -0.204016 -0.001639 0.002201
v -0.181670 -0.001602 0.016207
v -0.174663 0.249308 0.013553
v -0.204016 0.249308 -0.056915
v -0.204006 0.249308 -0.067825
v -0.203958 0.029590 -0.053496
v -0.190652 0.027746 -0.046933
v -0.148579 -0.001421 0.072537
v -0.148595 0.249308 0.049115
v -0.185441 0.033114 -0.040560
v -0.148595 0.249308 0.029558
v -0.192281 0.249307 -0.061902
v -0.184200 0.249308 -0.053135
vn -1.0000 -0.0001 -0.0002
vn 0.1195 -0.8661 -0.4855
vn -0.9164 0.1209 0.3817
vn 0.7899 -0.0401 -0.6120
vn -0.7843 -0.0096 0.6203
vn 0.6672 -0.6347 -0.3899
vn -0.4501 0.0580 0.8911
vn 0.9442 -0.0556 -0.3247
vn -1.0000 -0.0000 -0.0000
vn 1.0000 -0.0004 0.0037
vn -1.0000 -0.0001 -0.0005
vn -0.8011 0.1154 0.5873
vn -0.8138 0.1072 0.5712
vn -1.0000 -0.0003 -0.0009
vn -1.0000 0.0002 -0.0009
vn 0.8475 -0.3631 -0.3871
vn 0.2754 -0.8562 -0.4371
vn 0.7347 -0.0403 -0.6772
vn -0.0107 -0.9999 0.0119
vn -0.0144 -0.9996 0.0256
vn -0.0372 -0.9990 0.0250
vn -0.0000 1.0000 -0.0000
vn -0.0000 1.0000 -0.0001
vn 0.0001 1.0000 -0.0000
vn -0.7943 -0.0704 0.6035
vn -0.4352 0.0575 0.8985
vn 0.9181 -0.0283 -0.3953
vn -1.0000 -0.0001 -0.0006
vn -1.0000 -0.0001 -0.0000
vn -0.0001 1.0000 -0.0000
vn -0.0287 -0.9993 0.0256
vn -0.0279 -0.9993 0.0251
vn -0.0006 -1.0000 0.0036
vn -0.4501 0.0569 0.8911
vn -0.4351 0.0585 0.8985
vn -1.0000 -0.0003 -0.0012
vn -1.0000 -0.0002 -0.0009
s 0
f 3//1 2//1 5//1
f 11//2 5//2 10//2
f 2//3 7//3 8//3
f 17//4 14//4 11//4
f 1//5 4//5 2//5
f 6//6 11//6 12//6
f 10//7 16//7 9//7
f 15//8 12//8 14//8
f 13//9 15//9 4//9
f 4//10 1//10 12//10
f 15//11 12//11 4//11
f 13//12 7//12 4//12
f 7//13 2//13 4//13
f 2//14 8//14 10//14
f 8//14 9//14 10//14
f 10//15 5//15 2//15
f 11//16 14//16 12//16
f 11//17 6//17 5//17
f 17//18 11//18 16//18
f 1//19 3//19 6//19
f 3//20 5//20 6//20
f 6//21 12//21 1//21
f 13//22 15//22 7//22
f 15//22 17//22 7//22
f 17//23 16//23 8//23
f 16//24 9//24 8//24
f 8//22 7//22 17//22
f 3//25 1//25 2//25
f 16//26 10//26 11//26
f 14//27 17//27 15//27
f 12//28 4//28 13//28
f 12//29 13//29 15//29
f 17//30 16//30 7//30
f 16//24 9//24 7//24
f 9//22 8//22 7//22
f 8//1 5//1 2//1
f 3//31 5//31 1//31
f 5//32 12//32 1//32
f 5//33 6//33 12//33
f 11//34 16//34 9//34
f 11//35 9//35 10//35
f 10//36 5//36 9//36
f 5//37 8//37 9//37
