# Blender 4.0.0
# www.blender.org
o decimated_mesh
v 0.020934 0.248449 0.098225
v 0.020189 0.271421 0.094406
v -0.081823 0.303915 0.094406
v 0.020915 0.209616 0.098230
v 0.062447 0.184325 0.025042
v 0.020189 0.254900 0.059420
v -0.081823 0.277696 -0.002763
v 0.067073 0.184397 0.011970
v 0.067230 0.184515 -0.001986
v 0.058936 0.183286 -0.022042
v -0.081455 0.228715 0.098223
v 0.044159 0.134842 0.011641
v -0.022938 0.103949 0.011505
v 0.011244 0.117535 0.021472
v -0.035746 0.253474 -0.002813
v 0.037460 0.183518 -0.040941
v -0.033088 0.152458 -0.065228
v -0.037708 0.140553 -0.068170
v -0.042525 0.135627 -0.066499
v -0.051752 0.127666 -0.055572
v 0.053487 0.149783 0.004264
v 0.050071 0.143050 -0.006299
v 0.042011 0.140545 -0.025151
v -0.081458 0.206214 -0.001986
v 0.022933 0.113197 0.011191
v 0.032620 0.123388 0.013957
v -0.040681 0.091362 -0.005168
v 0.048595 0.183461 -0.033086
v 0.026295 0.128972 -0.037424
v -0.027366 0.131511 -0.070596
v -0.025696 0.118063 -0.069648
v 0.033435 0.125036 -0.025657
v -0.070374 0.113279 -0.018102
v -0.070139 0.112858 -0.007741
v -0.055820 0.094795 -0.007200
v 0.014581 0.104366 0.000610
v 0.030684 0.114686 -0.002829
v -0.045690 0.084035 -0.017487
v -0.036713 0.121030 -0.069337
v -0.061031 0.097659 -0.035233
v 0.032206 0.116751 -0.010961
v 0.008635 0.105430 -0.037282
v -0.062198 0.092072 -0.025122
v -0.061698 0.093154 -0.015197
v -0.003470 0.092564 -0.006504
v -0.031834 0.081645 -0.021844
v -0.008861 0.102412 -0.051875
v -0.026348 0.104379 -0.065368
v -0.034986 0.102720 -0.065129
v -0.041843 0.105850 -0.064172
v -0.052293 0.094193 -0.048411
v -0.052015 0.083969 -0.038808
v -0.053466 0.083462 -0.028355
v -0.001257 0.093309 -0.025655
v -0.033240 0.080004 -0.031114
v 0.018141 0.104789 -0.016626
v -0.046392 0.080714 -0.031119
v -0.024979 0.093260 -0.055552
v -0.036914 0.091596 -0.057209
v -0.043632 0.092540 -0.056267
v -0.012627 0.094097 -0.045917
v -0.038891 0.083319 -0.047294
v -0.027544 0.084141 -0.043947
vn 0.0527 0.1654 0.9848
vn -1.0000 -0.0051 0.0012
vn 0.7082 -0.2319 -0.6668
vn 0.2939 0.9228 -0.2490
vn 0.9257 0.1874 0.3286
vn -0.2538 -0.7825 0.5686
vn 0.6204 -0.5035 0.6013
vn -0.8228 -0.4518 -0.3447
vn 0.7214 -0.4165 0.5533
vn 0.0932 0.4732 -0.8760
vn -0.7204 -0.6807 -0.1330
vn 0.1935 0.2928 -0.9364
vn -0.5180 0.2267 -0.8248
vn 0.1421 -0.9588 -0.2460
vn 0.9303 -0.3668 0.0074
vn 0.4987 -0.8089 -0.3114
vn 0.0111 -0.8614 0.5078
vn 0.4197 0.8208 -0.3876
vn 0.8697 -0.0004 0.4936
vn 0.3983 -0.9098 -0.1165
vn 0.4234 -0.0112 -0.9059
vn -0.5860 -0.0765 -0.8067
vn -0.1124 -0.6021 0.7905
vn -0.1872 0.0491 -0.9811
vn 0.9004 0.0996 0.4235
vn 0.5594 -0.7979 0.2245
vn -0.6090 -0.5593 0.5624
vn 0.5210 -0.8492 0.0867
vn -0.4258 -0.8350 0.3487
vn -0.7839 0.0604 -0.6180
vn -0.0896 -0.2311 -0.9688
vn 0.5676 -0.1681 -0.8059
vn -0.2422 -0.6328 0.7355
vn -0.9323 -0.3615 0.0064
vn 0.4701 -0.5509 -0.6896
vn 0.0470 -0.8206 0.5695
vn -0.4069 0.5787 -0.7068
vn 0.0318 -0.6419 0.7661
vn -0.0912 -0.9664 0.2402
vn -0.7416 -0.4908 0.4574
vn 0.0312 -0.2997 -0.9535
vn 0.3998 0.7244 -0.5616
vn 0.6541 -0.6998 0.2873
vn -0.8798 0.3283 0.3437
vn 0.7271 -0.3835 -0.5694
vn -0.2682 -0.9327 0.2411
vn 0.4775 0.7634 -0.4350
vn 0.8857 0.4640 0.0139
vn 0.1924 -0.6360 -0.7473
vn 0.0907 -0.5880 -0.8038
vn -0.2404 -0.2389 -0.9408
vn -0.1912 -0.5471 -0.8150
vn -0.3221 -0.4511 -0.8324
vn 0.5562 -0.6356 -0.5354
vn -0.2076 -0.9461 -0.2487
vn -0.3937 -0.9139 -0.0990
vn -0.7856 -0.1173 -0.6076
vn -0.1944 -0.7336 -0.6512
vn -0.8899 -0.0333 -0.4550
vn 0.1918 -0.7719 -0.6062
vn -0.3923 -0.7371 -0.5502
vn -0.6172 -0.5475 -0.5651
vn 0.6226 0.7076 -0.3342
vn -1.0000 -0.0048 0.0013
vn 0.6991 -0.2323 -0.6762
vn -0.2903 0.3343 -0.8967
vn -0.8037 -0.4188 -0.4227
vn 0.2982 -0.9466 0.1223
vn 0.8263 -0.5630 0.0147
vn 0.8262 -0.5633 0.0116
vn 0.2215 -0.7825 0.5819
vn -0.3614 0.0373 -0.9317
vn 0.9245 -0.3765 -0.0591
vn 0.5456 -0.7677 -0.3361
vn 0.0462 -0.8522 0.5211
vn 0.4259 0.8109 -0.4013
vn 0.6853 -0.6574 -0.3133
vn 0.2256 -0.7896 -0.5706
vn -0.0486 -0.0762 -0.9959
vn 0.8578 -0.5116 0.0486
vn -0.0529 -0.9818 -0.1826
vn -0.0134 0.2448 -0.9695
vn 0.6132 -0.4639 -0.6393
vn 0.6581 -0.4971 -0.5655
vn 0.5513 -0.8290 0.0935
vn 0.3934 -0.8344 0.3859
vn -0.3917 -0.8012 0.4524
vn 0.5842 -0.7572 -0.2923
vn 0.4978 -0.6427 -0.5823
vn 0.5443 -0.1645 -0.8226
vn 0.8241 -0.5201 -0.2243
vn 0.8393 -0.4544 -0.2984
vn -0.2452 -0.6282 0.7384
vn 0.3829 -0.9238 0.0083
vn 0.1251 -0.7720 0.6232
vn -0.6705 -0.3101 -0.6739
vn 0.6617 -0.7469 -0.0658
vn -0.4062 0.6099 -0.6805
vn -0.0000 0.0001 1.0000
vn -0.0098 0.0506 0.9987
vn -0.0530 -0.9819 0.1818
vn 0.5008 -0.8652 0.0242
vn 0.3749 0.7144 -0.5909
vn 0.7061 -0.6587 0.2600
vn -0.8842 0.3258 0.3347
vn -0.6760 -0.7281 0.1135
vn -0.8623 0.4059 -0.3029
vn -0.8696 0.3999 -0.2898
vn 0.4739 0.7608 -0.4434
vn 0.5475 -0.2735 -0.7908
vn -0.9272 -0.2722 -0.2575
vn -0.9024 -0.4212 0.0914
vn 0.5563 -0.3188 -0.7674
vn -0.8412 -0.1001 -0.5314
vn -0.7367 -0.0694 -0.6727
vn -0.8909 -0.0276 -0.4534
vn -0.8805 -0.0096 -0.4740
vn -0.9922 -0.1220 0.0274
vn -0.9924 -0.1214 0.0175
vn 0.4365 -0.7518 -0.4942
vn 0.6438 0.7000 -0.3091
vn 0.6758 -0.6583 -0.3314
vn -0.3792 0.6157 -0.6908
vn -0.4368 0.5977 -0.6723
vn -0.8641 0.4016 -0.3036
vn -0.8702 0.4042 -0.2817
vn 0.6481 0.6953 -0.3106
vn 0.6118 0.7152 -0.3378
vn 0.8829 -0.3307 -0.3335
vn 0.8811 -0.3239 -0.3445
vn 0.4811 0.7591 -0.4385
vn 0.4732 0.7616 -0.4428
s 0
f 1//1 2//1 3//1
f 7//2 24//2 11//2
f 28//3 10//3 23//3
f 2//4 7//4 3//4
f 2//5 5//5 8//5
f 38//6 27//6 35//6
f 4//7 26//7 12//7
f 40//8 52//8 43//8
f 12//9 5//9 4//9
f 17//10 7//10 16//10
f 53//11 43//11 52//11
f 16//12 30//12 17//12
f 7//13 18//13 19//13
f 62//14 63//14 55//14
f 9//15 8//15 21//15
f 54//16 63//16 61//16
f 27//17 38//17 46//17
f 6//18 7//18 2//18
f 5//19 1//19 4//19
f 63//20 54//20 55//20
f 16//21 31//21 30//21
f 19//22 39//22 50//22
f 4//23 11//23 13//23
f 18//24 30//24 39//24
f 5//25 2//25 1//25
f 25//26 36//26 37//26
f 11//27 44//27 35//27
f 36//28 45//28 56//28
f 38//29 44//29 53//29
f 19//30 20//30 7//30
f 39//31 31//31 49//31
f 16//32 28//32 29//32
f 13//33 35//33 27//33
f 33//34 43//34 34//34
f 58//35 48//35 47//35
f 13//36 27//36 45//36
f 26//37 25//37 14//37
f 14//38 4//38 13//38
f 57//39 46//39 38//39
f 34//40 44//40 11//40
f 31//41 48//41 49//41
f 16//42 15//42 28//42
f 26//43 25//43 37//43
f 10//44 22//44 9//44
f 32//45 29//45 23//45
f 38//46 53//46 57//46
f 15//47 10//47 28//47
f 8//48 9//48 2//48
f 48//49 58//49 59//49
f 48//50 59//50 49//50
f 49//51 50//51 39//51
f 49//52 59//52 60//52
f 49//53 60//53 50//53
f 42//54 61//54 47//54
f 52//55 62//55 57//55
f 52//56 57//56 53//56
f 51//57 20//57 50//57
f 62//58 60//58 59//58
f 20//59 40//59 33//59
f 58//60 62//60 59//60
f 60//61 62//61 52//61
f 60//62 52//62 51//62
f 6//63 2//63 9//63
f 11//64 3//64 7//64
f 29//65 28//65 23//65
f 18//66 7//66 17//66
f 40//67 51//67 52//67
f 46//68 55//68 45//68
f 12//69 37//69 22//69
f 37//70 41//70 22//70
f 14//71 45//71 25//71
f 18//72 39//72 19//72
f 22//73 9//73 21//73
f 61//74 42//74 54//74
f 46//75 45//75 27//75
f 6//76 15//76 7//76
f 41//77 56//77 32//77
f 62//78 58//78 63//78
f 39//79 30//79 31//79
f 22//80 21//80 12//80
f 62//81 55//81 57//81
f 17//82 30//82 18//82
f 29//83 42//83 47//83
f 42//84 29//84 32//84
f 56//85 37//85 36//85
f 25//86 45//86 36//86
f 38//87 35//87 44//87
f 42//88 56//88 54//88
f 61//89 58//89 47//89
f 31//90 16//90 29//90
f 22//91 41//91 32//91
f 23//92 22//92 32//92
f 13//93 11//93 35//93
f 54//94 45//94 55//94
f 14//95 13//95 45//95
f 51//96 50//96 60//96
f 41//97 37//97 56//97
f 26//98 14//98 4//98
f 11//99 4//99 1//99
f 1//100 3//100 11//100
f 57//101 55//101 46//101
f 56//102 45//102 54//102
f 16//103 7//103 15//103
f 37//104 12//104 26//104
f 23//105 22//105 10//105
f 53//106 44//106 43//106
f 8//107 21//107 5//107
f 5//108 21//108 12//108
f 15//109 6//109 10//109
f 29//110 48//110 31//110
f 43//111 33//111 40//111
f 34//112 43//112 44//112
f 48//113 29//113 47//113
f 40//114 20//114 51//114
f 20//115 19//115 50//115
f 33//116 24//116 20//116
f 24//117 7//117 20//117
f 11//118 24//118 34//118
f 24//119 33//119 34//119
f 58//120 61//120 63//120
f 9//121 10//121 6//121
f 42//122 32//122 56//122
f 14//123 4//123 25//123
f 25//124 4//124 26//124
f 12//125 5//125 8//125
f 21//126 12//126 8//126
f 9//127 10//127 2//127
f 10//128 6//128 2//128
f 23//129 9//129 22//129
f 23//130 10//130 9//130
f 28//131 6//131 10//131
f 28//132 15//132 6//132
