# Blender 4.0.0
# www.blender.org
o decimated_mesh
v 0.071809 0.209170 0.155240
v 0.071966 0.209163 0.144679
v 0.071967 -0.001865 0.168953
v -0.148595 0.206141 0.041375
v -0.148595 0.004739 0.067379
v -0.148595 0.206141 0.058555
v -0.109107 0.209163 0.098246
v 0.071925 -0.001718 0.174463
v -0.148595 -0.001429 0.073827
v -0.126103 0.206136 0.086632
v 0.071836 0.066887 0.176629
v 0.032853 0.091870 0.176898
v 0.057587 0.004760 0.177708
v -0.004402 -0.002276 0.174576
v -0.148254 -0.000861 0.084774
v 0.001099 0.004988 0.177651
v -0.064361 -0.001583 0.154685
v -0.119103 -0.001488 0.117894
v -0.137774 -0.001489 0.099019
v -0.058382 0.071426 0.157924
v -0.043623 0.209181 0.139616
v 0.010475 0.209171 0.156219
v -0.023482 -0.000249 0.172349
v -0.129625 0.006481 0.111874
v -0.128760 0.071749 0.112155
v -0.009911 0.068254 0.176520
v -0.045720 0.004760 0.164437
v -0.148595 0.070935 0.084169
vn -0.1428 -0.9058 0.3988
vn -0.0763 0.9971 -0.0000
vn -0.8159 0.0010 0.5782
vn -0.4135 0.1040 0.9046
vn -0.0010 0.0176 0.9998
vn 0.0015 1.0000 0.0003
vn -0.1415 -0.2931 0.9456
vn -0.3515 0.8928 0.2817
vn -0.3568 0.0235 0.9339
vn 0.2845 -0.6927 -0.6627
vn -0.8020 -0.1229 0.5846
vn 0.0046 -0.4398 0.8981
vn 0.9999 0.0024 0.0148
vn -0.3754 -0.2631 0.8887
vn -0.4632 -0.0014 0.8863
vn -0.9998 -0.0046 0.0181
vn -1.0000 -0.0000 -0.0000
vn -0.9991 0.0308 0.0295
vn -0.8251 0.0085 0.5649
vn 0.1016 0.1479 0.9838
vn -0.0945 0.1553 0.9833
vn -0.4226 0.1161 0.8989
vn -0.5370 0.1674 0.8268
vn -0.5273 0.1599 0.8345
vn -0.5763 0.1635 0.8007
vn -0.0016 -0.0132 0.9999
vn -0.0009 0.0177 0.9998
vn 0.0016 0.9995 -0.0326
vn 0.0590 0.9938 -0.0937
vn 0.0001 1.0000 0.0001
vn -0.0000 1.0000 -0.0006
vn -0.1348 -0.9893 0.0556
vn 0.0021 1.0000 -0.0003
vn -0.0043 1.0000 0.0042
vn 0.0073 -0.9996 0.0268
vn -0.0023 0.9991 0.0417
vn -0.5482 0.0037 0.8364
vn -0.5451 0.0074 0.8383
vn -0.6584 -0.3773 0.6513
vn 0.0157 0.1765 0.9842
vn -0.3334 0.0087 0.9427
vn -0.2070 -0.0185 0.9782
vn -0.2887 0.1773 0.9408
vn -0.3445 0.1599 0.9251
vn -0.0025 -0.3882 0.9216
vn -0.5546 -0.1091 0.8249
vn 1.0000 0.0011 0.0077
vn 1.0000 0.0010 0.0084
vn 0.2075 -0.0306 0.9778
vn -0.7735 0.1330 0.6197
vn -0.8125 0.1085 0.5727
vn -0.0000 1.0000 0.0005
vn 0.0002 1.0000 -0.0006
vn 0.0002 1.0000 -0.0007
vn -0.5266 0.1672 0.8335
vn -0.0171 0.0149 0.9997
vn 1.0000 0.0010 0.0086
vn 1.0000 0.0009 0.0077
vn -0.4230 0.1035 0.9002
vn 0.0165 0.9978 -0.0645
vn -0.5376 0.1607 0.8278
vn -0.0010 0.0090 1.0000
vn 0.0157 0.0138 0.9998
vn -0.0043 0.9999 0.0146
vn -0.4126 0.1166 0.9034
vn -0.8159 0.0083 0.5781
vn 0.0211 0.9994 -0.0288
vn 0.0135 0.9998 -0.0134
vn 0.0060 1.0000 -0.0002
vn -0.9995 -0.0045 0.0313
vn -0.8242 0.0009 0.5663
s 0
f 23//1 17//1 14//1
f 4//2 6//2 7//2
f 25//3 28//3 15//3
f 5//4 3//4 2//4
f 26//5 13//5 11//5
f 17//6 9//6 18//6
f 14//7 16//7 23//7
f 6//8 10//8 7//8
f 27//9 26//9 20//9
f 9//10 5//10 3//10
f 24//11 15//11 19//11
f 13//12 14//12 8//12
f 2//13 1//13 11//13
f 17//14 23//14 27//14
f 20//15 17//15 27//15
f 15//16 28//16 5//16
f 28//17 6//17 4//17
f 5//17 28//17 4//17
f 5//18 9//18 15//18
f 24//19 25//19 15//19
f 1//20 12//20 11//20
f 22//21 26//21 12//21
f 5//22 2//22 4//22
f 20//23 21//23 25//23
f 21//24 7//24 25//24
f 7//25 10//25 25//25
f 11//26 12//26 26//26
f 26//27 16//27 13//27
f 2//28 4//28 21//28
f 4//29 7//29 21//29
f 21//30 22//30 2//30
f 22//31 1//31 2//31
f 19//32 15//32 9//32
f 9//33 17//33 3//33
f 19//34 18//34 9//34
f 8//35 14//35 3//35
f 14//36 3//36 17//36
f 24//37 17//37 25//37
f 17//38 20//38 25//38
f 24//39 19//39 18//39
f 12//40 1//40 22//40
f 27//41 23//41 26//41
f 16//42 26//42 23//42
f 22//43 21//43 26//43
f 21//44 20//44 26//44
f 13//45 16//45 14//45
f 24//46 18//46 17//46
f 11//47 8//47 3//47
f 3//48 2//48 11//48
f 11//49 13//49 8//49
f 25//50 10//50 6//50
f 28//51 25//51 6//51
f 22//52 1//52 21//52
f 1//53 2//53 21//53
f 2//54 7//54 21//54
f 7//55 20//55 21//55
f 16//56 12//56 26//56
f 11//57 8//57 2//57
f 8//58 3//58 2//58
f 3//59 2//59 4//59
f 4//60 7//60 2//60
f 25//61 20//61 7//61
f 13//62 12//62 16//62
f 13//63 11//63 12//63
f 14//64 3//64 9//64
f 5//65 3//65 4//65
f 5//17 9//17 28//17
f 5//17 28//17 6//17
f 5//17 6//17 4//17
f 28//66 24//66 25//66
f 18//67 17//67 14//67
f 18//68 14//68 19//68
f 19//69 14//69 9//69
f 15//70 28//70 9//70
f 15//71 24//71 28//71
