# Blender 4.0.0
# www.blender.org
o decimated_mesh
v 0.020196 0.496072 0.260789
v 0.020195 0.504108 0.259135
v 0.020205 0.509468 0.252679
v -0.004138 0.502070 0.257701
v -0.002740 0.490708 0.257693
v 0.020202 0.426349 0.244407
v -0.025593 0.509855 0.245093
v -0.037233 0.502828 0.249692
v -0.040415 0.494764 0.249516
v -0.021174 0.426395 0.237738
v -0.090285 0.420500 0.210929
v 0.020205 0.426350 0.204143
v -0.066695 0.501978 0.239753
v -0.065732 0.426015 0.223381
v -0.148595 0.420500 0.125420
v -0.068382 0.509970 0.230360
v -0.090130 0.502177 0.228617
v -0.069895 0.492922 0.238279
v -0.094791 0.494146 0.226527
v -0.148555 0.420258 0.173851
v -0.148595 0.448447 -0.002401
v -0.115954 0.510112 0.204400
v -0.123958 0.501903 0.208103
v -0.109287 0.420500 0.201305
v -0.148412 0.500748 0.189770
v 0.020223 0.517637 0.219864
v 0.020205 0.433592 0.172673
v -0.148571 0.468660 -0.002854
v 0.020202 0.445907 0.164153
v -0.148595 0.509853 0.081015
v -0.148603 0.517862 0.134984
v -0.148570 0.510143 0.177879
v -0.148595 0.503467 0.057365
v 0.020204 0.507525 0.180442
v 0.020205 0.502135 0.171451
v 0.020205 0.467577 0.163737
vn 0.0749 0.9864 -0.1464
vn 1.0000 -0.0000 -0.0000
vn -0.1299 -0.0166 0.9914
vn -0.5650 -0.1591 0.8096
vn -0.0583 -0.9329 0.3555
vn -0.3348 -0.2246 0.9151
vn -0.1516 0.7047 0.6931
vn -0.0689 0.9878 0.1397
vn -0.4264 0.0120 0.9045
vn 0.3339 0.8085 -0.4847
vn 0.1646 0.9523 -0.2571
vn -0.2331 0.0709 0.9699
vn -0.0097 0.9999 0.0050
vn -0.4252 -0.2219 0.8775
vn -0.3206 0.1061 0.9413
vn -1.0000 -0.0004 0.0034
vn -0.2327 -0.6324 0.7389
vn -0.7024 0.0138 0.7117
vn -0.1371 0.9653 0.2221
vn -0.6261 0.4435 0.6413
vn -0.2114 0.7558 0.6198
vn 1.0000 0.0005 0.0018
vn 1.0000 0.0001 0.0001
vn 1.0000 -0.0003 0.0005
vn 1.0000 -0.0001 -0.0005
vn 1.0000 -0.0000 0.0001
vn 1.0000 -0.0001 -0.0004
vn -0.2148 -0.0271 0.9763
vn -0.0744 0.2010 0.9768
vn -0.5580 -0.1684 0.8125
vn -0.5857 -0.1717 0.7921
vn -0.1543 -0.2522 0.9553
vn -0.2299 -0.2277 0.9462
vn -0.0777 -0.2280 0.9705
vn -0.2957 -0.2424 0.9240
vn -0.1016 0.7655 0.6353
vn -0.0996 0.7620 0.6399
vn -0.1417 0.9742 0.1754
vn -0.0624 0.9800 0.1890
vn -0.0769 0.9863 0.1463
vn -0.0318 0.9699 0.2414
vn -0.3546 -0.0268 0.9346
vn -0.4291 0.0047 0.9032
vn 0.3261 0.8185 -0.4730
vn 0.1578 0.9565 -0.2454
vn -0.3903 0.6669 0.6348
vn -0.4520 0.6970 0.5567
vn -0.4526 0.6939 0.5600
vn -0.5174 0.0785 0.8521
vn 0.0507 -0.9981 -0.0346
vn 0.0529 -0.9986 -0.0000
vn -0.0000 1.0000 -0.0000
vn -0.4416 -0.2117 0.8719
vn -0.4034 -0.2131 0.8899
vn -1.0000 -0.0000 -0.0000
vn 1.0000 -0.0011 0.0011
vn -1.0000 0.0016 0.0008
vn -1.0000 -0.0001 -0.0001
vn -0.9998 -0.0206 -0.0030
vn -0.7021 0.0168 0.7118
vn -0.1343 0.9681 0.2117
vn -0.3023 0.6985 0.6486
vn -0.3153 0.7497 0.5819
vn -0.6943 -0.1568 0.7024
vn -0.2412 0.7173 0.6536
vn 1.0000 -0.0015 0.0002
vn 1.0000 0.0003 0.0008
vn 1.0000 -0.0001 0.0006
vn 1.0000 -0.0002 0.0001
vn 1.0000 -0.0002 -0.0000
vn 1.0000 -0.0000 -0.0004
vn 1.0000 -0.0001 -0.0002
vn 1.0000 0.0001 -0.0004
vn 1.0000 0.0016 -0.0009
vn -0.1015 0.7600 0.6420
vn -0.0988 0.7657 0.6355
vn -0.1323 0.9683 0.2117
vn -0.1453 0.9642 0.2219
vn 0.3395 0.8068 -0.4836
vn 0.3253 0.8187 -0.4731
vn -1.0000 0.0012 -0.0003
vn -1.0000 0.0001 -0.0001
vn -1.0000 -0.0001 -0.0000
vn -1.0000 -0.0002 0.0008
vn -1.0000 -0.0002 0.0007
vn -0.4290 0.0139 0.9032
vn -0.4268 0.0036 0.9044
vn -0.4007 -0.2228 0.8887
vn -0.4257 -0.2123 0.8796
vn 0.0162 0.9994 -0.0320
vn -0.0074 1.0000 0.0050
vn -0.5640 -0.1692 0.8082
vn -0.5878 -0.1560 0.7938
vn -0.9999 -0.0007 0.0128
s 0
f 30//1 31//1 26//1
f 36//2 34//2 12//2
f 4//3 5//3 1//3
f 20//4 24//4 25//4
f 6//5 10//5 11//5
f 14//6 9//6 18//6
f 4//7 7//7 8//7
f 26//8 31//8 16//8
f 19//9 18//9 17//9
f 35//10 33//10 34//10
f 30//11 34//11 33//11
f 9//12 4//12 8//12
f 24//13 15//13 20//13
f 14//14 18//14 19//14
f 8//15 13//15 9//15
f 31//16 15//16 25//16
f 10//17 14//17 11//17
f 29//18 36//18 28//18
f 15//19 12//19 27//19
f 21//20 27//20 29//20
f 8//21 7//21 16//21
f 3//22 2//22 1//22
f 1//23 6//23 12//23
f 12//2 27//2 36//2
f 1//24 26//24 3//24
f 29//25 36//25 27//25
f 36//26 35//26 34//26
f 34//27 26//27 12//27
f 1//24 12//24 26//24
f 4//28 9//28 5//28
f 2//29 4//29 1//29
f 19//30 23//30 24//30
f 23//31 25//31 24//31
f 10//32 6//32 5//32
f 10//33 5//33 9//33
f 6//34 1//34 5//34
f 14//35 10//35 9//35
f 4//36 2//36 3//36
f 3//37 7//37 4//37
f 31//38 32//38 22//38
f 16//39 7//39 26//39
f 22//40 16//40 31//40
f 3//41 26//41 7//41
f 9//42 13//42 18//42
f 13//43 17//43 18//43
f 35//44 28//44 33//44
f 30//45 26//45 34//45
f 23//46 17//46 22//46
f 22//47 32//47 25//47
f 25//48 23//48 22//48
f 19//49 17//49 23//49
f 15//50 12//50 11//50
f 12//51 6//51 11//51
f 15//52 24//52 11//52
f 19//53 24//53 11//53
f 11//54 14//54 19//54
f 30//55 33//55 15//55
f 15//55 33//55 21//55
f 33//56 21//56 28//56
f 15//57 20//57 25//57
f 30//58 15//58 31//58
f 32//59 31//59 25//59
f 29//60 28//60 21//60
f 15//61 27//61 21//61
f 17//62 13//62 16//62
f 16//63 22//63 17//63
f 28//64 36//64 35//64
f 13//65 8//65 16//65
f 3//66 2//66 26//66
f 2//67 1//67 26//67
f 1//68 6//68 26//68
f 6//69 12//69 26//69
f 12//70 27//70 26//70
f 27//71 29//71 26//71
f 29//72 36//72 26//72
f 36//73 35//73 26//73
f 35//74 34//74 26//74
f 4//75 2//75 7//75
f 2//76 3//76 7//76
f 15//77 12//77 21//77
f 21//78 12//78 27//78
f 28//79 34//79 35//79
f 28//80 33//80 34//80
f 33//81 31//81 30//81
f 33//82 21//82 31//82
f 21//83 15//83 31//83
f 15//84 20//84 31//84
f 20//85 32//85 31//85
f 17//86 19//86 13//86
f 19//87 18//87 13//87
f 14//88 18//88 11//88
f 18//89 19//89 11//89
f 24//90 11//90 20//90
f 20//91 11//91 15//91
f 24//92 23//92 20//92
f 23//93 25//93 20//93
f 25//94 32//94 20//94
