# Blender 4.0.0
# www.blender.org
o decimated_mesh
v 0.020219 0.468208 -0.254667
v 0.020182 0.426741 -0.251009
v 0.020222 0.494657 -0.252927
v 0.093220 0.501734 -0.238299
v 0.066069 0.502593 -0.245378
v 0.127663 0.496385 -0.224531
v 0.093999 0.426259 -0.226370
v 0.161379 0.376444 -0.170853
v 0.020245 0.510109 -0.245537
v 0.067784 0.510206 -0.237499
v 0.129068 0.503152 -0.222909
v 0.161379 0.376444 -0.123639
v 0.136250 0.426259 -0.204983
v 0.020219 0.426259 -0.207716
v 0.124026 0.510181 -0.217419
v 0.158376 0.502663 -0.206980
v 0.020219 0.431725 -0.175157
v 0.222384 0.376444 0.013748
v 0.020192 0.518110 -0.213906
v 0.189422 0.502691 -0.185107
v 0.166226 0.496851 -0.203232
v 0.264661 0.376444 0.013748
v 0.193093 0.447825 0.013746
v 0.020219 0.435420 -0.167214
v 0.191499 0.488351 -0.182802
v 0.168051 0.510311 -0.191059
v 0.020218 0.454447 -0.159127
v 0.244407 0.516947 0.013750
v 0.152160 0.516641 -0.172929
v 0.201398 0.496267 -0.175446
v 0.184998 0.376445 -0.151573
v 0.202980 0.504895 0.013749
v 0.256127 0.516032 0.013748
v 0.209556 0.509866 -0.154905
v 0.218954 0.503679 -0.156190
v 0.020219 0.508543 -0.177659
v 0.231143 0.494183 -0.144212
v 0.261711 0.376444 -0.010923
v 0.278903 0.423426 0.013749
v 0.197808 0.496372 0.013748
v 0.020219 0.502068 -0.167543
v 0.237214 0.516378 -0.068963
v 0.278358 0.510184 0.013748
v 0.237663 0.510170 -0.118775
v 0.233158 0.502151 -0.140691
v 0.254808 0.497153 -0.109767
v 0.273635 0.419827 -0.019047
v 0.262728 0.509967 -0.071118
v 0.289627 0.501013 0.013745
v 0.250602 0.503077 -0.114766
v 0.226961 0.376429 -0.098618
v 0.281826 0.496925 -0.044173
v 0.287939 0.496204 -0.008051
v 0.282269 0.504843 -0.029225
v 0.270217 0.502719 -0.076690
v 0.271159 0.495430 -0.075749
v 0.259382 0.423698 -0.066589
v 0.280255 0.502013 -0.047155
v 0.275961 0.509119 -0.031128
v 0.250385 0.376444 -0.051622
vn 0.2495 -0.0718 -0.9657
vn 0.4217 -0.3580 -0.8331
vn 0.7569 -0.2592 -0.5999
vn 0.2641 -0.5362 -0.8017
vn -0.0000 1.0000 -0.0000
vn 0.0002 0.0002 1.0000
vn 0.9731 -0.1581 -0.1678
vn 0.8792 -0.1996 -0.4327
vn 0.0129 0.9999 -0.0080
vn 0.9165 -0.2684 -0.2966
vn 0.2294 0.9721 -0.0484
vn 0.7382 0.1076 -0.6659
vn 0.5585 0.2430 -0.7931
vn 0.6960 -0.2302 -0.6802
vn -0.5403 -0.7629 0.3550
vn -0.4078 -0.9005 0.1512
vn 0.8217 0.0434 -0.5683
vn 0.8058 -0.2620 -0.5310
vn -0.7041 0.0684 0.7068
vn 0.0558 0.9971 -0.0518
vn -0.4804 0.7387 0.4728
vn 0.6188 -0.0451 -0.7843
vn 0.3861 0.1384 -0.9120
vn 0.9572 0.2431 -0.1571
vn 0.6128 0.7671 -0.1899
vn 0.6831 0.2858 -0.6721
vn 0.4091 0.7881 -0.4599
vn 0.1508 0.9811 -0.1209
vn 0.5884 0.7887 -0.1780
vn 0.6131 -0.2452 -0.7510
vn 0.2048 0.6812 -0.7028
vn -0.2686 0.9234 0.2741
vn 0.9895 -0.1368 -0.0465
vn -0.6502 0.3944 0.6493
vn 0.9500 -0.2880 -0.1210
vn -0.3328 -0.9430 -0.0000
vn 0.0737 0.4302 -0.8997
vn 0.9008 0.0608 -0.4299
vn 0.8640 0.2396 -0.4428
vn 0.2551 -0.0852 -0.9632
vn -0.0003 -1.0000 0.0001
vn -0.0003 1.0000 -0.0001
vn 0.0002 1.0000 0.0002
vn -0.0000 -0.0000 1.0000
vn 0.0001 -0.0000 1.0000
vn -0.0001 -0.0005 1.0000
vn -0.0000 -0.0001 1.0000
vn -0.0001 -0.0000 1.0000
vn 0.9768 -0.1629 -0.1390
vn 0.4549 0.8249 -0.3356
vn 0.0138 0.9999 -0.0084
vn 0.0778 0.9969 -0.0136
vn 0.9189 -0.3004 -0.2557
vn 0.2570 0.7026 -0.6635
vn 0.2265 0.7399 -0.6335
vn 0.9325 -0.1922 -0.3059
vn 0.9348 -0.1959 -0.2962
vn 0.2542 0.9665 -0.0365
vn 0.2386 0.9693 -0.0584
vn 0.1512 0.0649 -0.9864
vn 0.7248 0.0652 -0.6859
vn 0.6800 0.2125 -0.7017
vn 0.6951 -0.2393 -0.6779
vn 1.0000 0.0001 -0.0001
vn 1.0000 -0.0000 -0.0000
vn 1.0000 0.0002 -0.0007
vn 1.0000 0.0003 0.0003
vn -1.0000 0.0026 -0.0023
vn 1.0000 -0.0002 0.0009
vn 1.0000 -0.0010 -0.0009
vn 1.0000 0.0001 -0.0000
vn 0.4771 -0.1813 -0.8599
vn 0.4434 -0.1899 -0.8760
vn 0.3482 -0.1428 -0.9265
vn 0.0683 0.9794 -0.1902
vn 0.0686 0.9802 -0.1857
vn 0.0394 0.9687 -0.2450
vn 0.1306 0.9661 -0.2228
vn -0.4161 -0.8903 0.1848
vn 0.8224 0.1134 -0.5575
vn 0.5707 0.8196 -0.0499
vn 0.6307 0.7750 -0.0389
vn 0.1175 0.7013 -0.7032
vn 0.8313 -0.2261 -0.5077
vn 0.5814 -0.2395 -0.7776
vn 0.5670 -0.2211 -0.7935
vn 0.5327 0.7479 -0.3961
vn 0.4735 0.7970 -0.3750
vn 0.6194 -0.0252 -0.7846
vn 0.8545 -0.2976 -0.4258
vn -0.7070 0.1231 0.6964
vn 0.4120 0.6981 -0.5857
vn 0.3414 0.7184 -0.6061
vn 0.3367 0.7524 -0.5661
vn 0.3124 -0.1451 -0.9388
vn 0.9662 0.2149 -0.1425
vn 0.9481 0.2870 -0.1368
vn 0.6843 0.2808 -0.6730
vn 0.9432 0.0802 -0.3224
vn 0.9424 0.1048 -0.3178
vn 0.4382 0.7640 -0.4736
vn 0.2326 0.9654 -0.1182
vn 0.1846 0.9670 -0.1758
vn 0.6068 0.7721 -0.1886
vn 0.5533 0.7853 -0.2777
vn 0.5261 0.8053 -0.2733
vn -0.2464 0.9370 0.2475
vn 0.4770 0.0799 -0.8752
vn 0.4796 0.1091 -0.8707
vn 0.9523 -0.2831 -0.1139
vn -0.3304 -0.9438 -0.0102
vn 1.0000 -0.0005 0.0049
vn 1.0000 0.0047 -0.0008
vn 1.0000 0.0011 -0.0006
vn 1.0000 0.0003 -0.0005
vn 1.0000 0.0001 -0.0004
vn 1.0000 -0.0006 0.0011
vn -0.0008 1.0000 0.0010
vn 0.0002 1.0000 -0.0000
vn 0.6841 0.2854 -0.6712
vn 1.0000 -0.0001 -0.0006
vn 0.6840 0.2807 -0.6733
vn 1.0000 -0.0020 -0.0013
vn 0.0133 0.9999 -0.0080
vn 0.0139 0.9999 -0.0088
vn 0.4760 0.1103 -0.8725
vn 0.4808 0.0868 -0.8725
vn 0.6925 -0.2310 -0.6834
vn 0.6969 -0.2307 -0.6791
vn 0.8103 -0.2364 -0.5363
vn 0.8360 -0.2385 -0.4942
vn -0.0014 1.0000 0.0004
vn -0.0006 1.0000 0.0001
vn -0.0000 1.0000 -0.0001
vn 0.1564 0.9791 -0.1299
vn 0.1727 0.9672 -0.1863
vn -0.0000 -0.0004 1.0000
vn 0.0003 0.0010 1.0000
vn 0.9510 -0.2842 -0.1216
vn 0.9508 -0.2882 -0.1137
vn 0.5325 0.7537 -0.3852
vn 0.5045 0.7722 -0.3863
vn 0.9657 0.2049 -0.1593
vn 0.9536 0.2619 -0.1485
s 0
f 1//1 5//1 4//1
f 13//2 8//2 7//2
f 37//3 51//3 31//3
f 8//4 2//4 7//4
f 60//5 18//5 38//5
f 28//6 49//6 33//6
f 52//7 53//7 47//7
f 57//8 46//8 56//8
f 29//9 28//9 42//9
f 47//10 60//10 57//10
f 42//11 33//11 59//11
f 35//12 45//12 37//12
f 16//13 20//13 21//13
f 37//14 31//14 25//14
f 18//15 24//15 17//15
f 12//16 17//16 14//16
f 46//17 37//17 45//17
f 57//18 37//18 46//18
f 40//19 27//19 23//19
f 26//20 44//20 34//20
f 32//21 36//21 41//21
f 25//22 21//22 30//22
f 4//23 11//23 6//23
f 53//24 52//24 54//24
f 54//25 58//25 55//25
f 24//26 27//26 23//26
f 34//27 20//27 26//27
f 29//28 42//28 44//28
f 48//29 59//29 54//29
f 8//30 25//30 31//30
f 4//31 5//31 10//31
f 28//32 36//32 32//32
f 53//33 49//33 39//33
f 40//34 32//34 41//34
f 47//35 39//35 22//35
f 14//36 8//36 12//36
f 9//37 5//37 3//37
f 56//38 46//38 55//38
f 55//39 46//39 50//39
f 2//40 1//40 4//40
f 22//5 38//5 18//5
f 18//41 12//41 51//41
f 60//42 51//42 18//42
f 12//5 31//5 8//5
f 31//43 12//43 51//43
f 18//44 22//44 39//44
f 39//45 49//45 28//45
f 43//46 33//46 49//46
f 28//47 32//47 23//47
f 23//48 32//48 40//48
f 23//44 18//44 39//44
f 39//44 28//44 23//44
f 53//49 39//49 47//49
f 35//50 50//50 45//50
f 19//51 28//51 29//51
f 28//52 33//52 42//52
f 47//53 38//53 60//53
f 11//54 4//54 15//54
f 4//55 10//55 15//55
f 57//56 56//56 52//56
f 52//57 47//57 57//57
f 43//58 59//58 33//58
f 59//59 48//59 42//59
f 3//60 5//60 1//60
f 37//61 30//61 35//61
f 35//62 30//62 20//62
f 25//63 30//63 37//63
f 24//64 17//64 27//64
f 27//65 36//65 41//65
f 36//66 14//66 19//66
f 14//67 1//67 19//67
f 19//68 9//68 3//68
f 3//69 19//69 1//69
f 1//70 14//70 2//70
f 14//71 27//71 17//71
f 14//65 36//65 27//65
f 21//72 13//72 6//72
f 13//73 7//73 6//73
f 7//74 4//74 6//74
f 15//75 10//75 19//75
f 29//76 15//76 19//76
f 10//77 9//77 19//77
f 26//78 15//78 29//78
f 12//79 18//79 17//79
f 45//80 50//80 46//80
f 59//81 43//81 54//81
f 43//82 49//82 54//82
f 5//83 9//83 10//83
f 51//84 37//84 57//84
f 8//85 13//85 25//85
f 13//86 21//86 25//86
f 50//87 35//87 44//87
f 44//88 35//88 34//88
f 30//89 21//89 20//89
f 51//90 57//90 60//90
f 40//91 41//91 27//91
f 20//92 16//92 26//92
f 16//93 11//93 15//93
f 26//94 16//94 15//94
f 7//95 2//95 4//95
f 58//96 54//96 52//96
f 54//97 49//97 53//97
f 24//98 23//98 18//98
f 56//99 55//99 52//99
f 55//100 58//100 52//100
f 34//101 35//101 20//101
f 48//102 44//102 42//102
f 44//103 26//103 29//103
f 54//104 55//104 48//104
f 55//105 50//105 48//105
f 48//106 50//106 44//106
f 28//107 19//107 36//107
f 16//108 21//108 11//108
f 21//109 6//109 11//109
f 22//110 38//110 47//110
f 14//111 2//111 8//111
f 2//112 1//112 3//112
f 14//113 2//113 17//113
f 17//114 2//114 24//114
f 24//115 2//115 27//115
f 27//116 2//116 19//116
f 19//117 2//117 3//117
f 31//118 8//118 51//118
f 51//119 8//119 12//119
f 18//120 24//120 27//120
f 41//121 27//121 19//121
f 18//122 27//122 23//122
f 41//123 19//123 36//123
f 28//124 42//124 19//124
f 42//125 29//125 19//125
f 16//126 6//126 11//126
f 16//127 21//127 6//127
f 30//128 31//128 25//128
f 30//129 37//129 31//129
f 37//130 46//130 51//130
f 46//131 57//131 51//131
f 60//132 51//132 38//132
f 38//133 51//133 22//133
f 22//134 51//134 18//134
f 22//44 28//44 18//44
f 28//48 23//48 18//48
f 28//44 40//44 23//44
f 28//47 32//47 40//47
f 44//135 34//135 29//135
f 34//136 26//136 29//136
f 22//44 39//44 28//44
f 49//137 43//137 28//137
f 43//138 33//138 28//138
f 47//139 39//139 38//139
f 39//140 22//140 38//140
f 50//141 45//141 44//141
f 45//142 35//142 44//142
f 58//143 53//143 52//143
f 58//144 54//144 53//144
