mtllib material.mtl
usemtl material_0
v 0.23246050 0.00297558 0.14772820
v 0.23246050 -0.00297569 0.14772850
v -0.23356730 -0.00297569 0.14772850
v -0.23356730 0.00297558 0.14772820
v 0.23246050 -0.00148803 -0.00000065
v -0.23356740 -0.00148803 -0.00000065
v -0.23356730 -0.00297563 0.00148800
v 0.23246050 -0.00297563 0.00148800
v 0.23246050 -0.00297563 0.00148800
v 0.23246050 0.00297558 0.00148647
v 0.23246050 0.00148796 -0.00000035
v 0.23246050 -0.00148803 -0.00000065
v -0.23356740 -0.00148803 -0.00000065
v -0.23356740 0.00148787 -0.00000035
v -0.23356730 0.00297558 0.00148647
v -0.23356730 -0.00297563 0.00148800
v 0.23246050 0.00297558 0.00148647
v -0.23356730 0.00297558 0.00148647
v -0.23356740 0.00148787 -0.00000035
v 0.23246050 0.00148796 -0.00000035
v 0.23246050 0.00297558 0.00148647
v 0.23246050 0.00297558 0.14772820
v -0.23356730 0.00297558 0.14772820
v -0.23356730 0.00297558 0.00148647
v 0.23246050 -0.00297569 0.14772850
v 0.23246050 -0.00297563 0.00148800
v -0.23356730 -0.00297563 0.00148800
v -0.23356730 -0.00297569 0.14772850
v -0.23356730 -0.00297563 0.00148800
v -0.23356730 0.00297558 0.00148647
v -0.23356730 0.00297558 0.14772820
v -0.23356730 -0.00297569 0.14772850
v 0.23246050 -0.00297569 0.14772850
v 0.23246050 0.00297558 0.14772820
v 0.23246050 0.00297558 0.00148647
v 0.23246050 -0.00297563 0.00148800
vn 0.00000000 0.00005128 1.00000000
vn 0.00000000 0.00005128 1.00000000
vn 0.00000000 0.00005128 1.00000000
vn 0.00000000 0.00005128 1.00000000
vn 0.00000000 -0.31631960 -0.94865260
vn 0.00000000 -0.31631530 -0.94865410
vn 0.00000000 -0.99994930 -0.01006981
vn 0.00000000 -0.99994930 -0.01006958
vn 1.00000000 -0.00001226 0.00000000
vn 1.00000000 -0.00001226 0.00000000
vn 1.00000000 -0.00003024 0.00000000
vn 1.00000000 -0.00003024 0.00000000
vn -1.00000000 -0.00000097 0.00005128
vn -1.00000000 -0.00000097 0.00005128
vn -1.00000000 -0.00000128 0.00000019
vn -1.00000000 -0.00000128 0.00000019
vn 0.00000000 0.99994930 -0.01006967
vn 0.00000000 0.99994930 -0.01006990
vn 0.00000000 0.31607950 -0.94873270
vn 0.00000000 0.31608390 -0.94873120
vn 0.00000000 0.99994930 -0.01006967
vn 0.00000000 1.00000000 0.00000000
vn 0.00000000 1.00000000 0.00000000
vn 0.00000000 0.99994930 -0.01006990
vn 0.00000000 -1.00000000 -0.00000036
vn 0.00000000 -0.99994930 -0.01006958
vn 0.00000000 -0.99994930 -0.01006981
vn 0.00000000 -1.00000000 -0.00000036
vn -1.00000000 -0.00000128 0.00000019
vn -1.00000000 -0.00000128 0.00000019
vn -1.00000000 -0.00000128 0.00000000
vn -1.00000000 -0.00000128 0.00000000
vn 1.00000000 -0.00001219 0.00000000
vn 1.00000000 -0.00001219 0.00000000
vn 1.00000000 -0.00001226 0.00000000
vn 1.00000000 -0.00001226 0.00000000
vt 0.92093180 0.20198150
vt 0.91547490 0.20198150
vt 0.91547490 0.79801850
vt 0.92093180 0.79801850
vt 0.00782517 0.20387670
vt 0.00782517 0.79612330
vt 0.00918923 0.79801990
vt 0.00918923 0.20198010
vt 0.00918923 0.20198010
vt 0.00373237 0.20198010
vt 0.00509641 0.20387670
vt 0.00782517 0.20387670
vt 0.00782517 0.79612330
vt 0.00509644 0.79612330
vt 0.00373237 0.79801990
vt 0.00918923 0.79801990
vt 0.00373237 0.20198010
vt 0.00373237 0.79801990
vt 0.00509644 0.79612330
vt 0.00509641 0.20387670
vt 0.36776510 0.20197900
vt 0.10577040 0.20197910
vt 0.10577040 0.79802100
vt 0.36776510 0.79802110
vt 0.81876620 0.20197900
vt 0.55677210 0.20197900
vt 0.55677210 0.79802100
vt 0.81876630 0.79802100
vt 0.93221780 0.35278620
vt 0.93767460 0.35278640
vt 0.93767460 0.09079240
vt 0.93221780 0.09079185
vt 0.94533350 0.80151950
vt 0.95079030 0.80151890
vt 0.95079030 0.53952600
vt 0.94533350 0.53952710
f 3/3/3 2/2/2 1/1/1
f 4/4/4 3/3/3 1/1/1
f 7/7/7 6/6/6 5/5/5
f 8/8/8 7/7/7 5/5/5
f 11/11/11 10/10/10 9/9/9
f 12/12/12 11/11/11 9/9/9
f 15/15/15 14/14/14 13/13/13
f 16/16/16 15/15/15 13/13/13
f 19/19/19 18/18/18 17/17/17
f 20/20/20 19/19/19 17/17/17
f 19/19/19 20/20/20 5/5/5
f 6/6/6 19/19/19 5/5/5
f 23/23/23 22/22/22 21/21/21
f 24/24/24 23/23/23 21/21/21
f 27/27/27 26/26/26 25/25/25
f 28/28/28 27/27/27 25/25/25
f 31/31/31 30/30/30 29/29/29
f 32/32/32 31/31/31 29/29/29
f 35/35/35 34/34/34 33/33/33
f 36/36/36 35/35/35 33/33/33

