# Blender 4.0.0
# www.blender.org
o decimated_mesh
v 0.464357 0.128083 -0.021829
v 0.464325 0.135256 -0.023879
v 0.458570 0.131542 -0.022921
v 0.458346 0.125374 -0.022764
v 0.469555 0.125403 -0.022751
v 0.469792 0.131580 -0.023072
v 0.458345 0.136038 -0.026904
v 0.457515 0.122896 -0.031830
v 0.457753 0.136473 -0.030571
v 0.459115 0.120219 -0.028741
v 0.469844 0.135987 -0.026955
v 0.471134 0.128013 -0.025813
v 0.469324 0.120928 -0.026996
v 0.464351 0.138213 -0.030576
v 0.459110 0.120547 -0.033425
v 0.458120 0.130419 -0.038676
v 0.458346 0.136021 -0.034312
v 0.471555 0.132767 -0.030571
v 0.470102 0.136426 -0.033135
v 0.471451 0.125812 -0.031073
v 0.469471 0.120692 -0.033276
v 0.464399 0.135213 -0.037561
v 0.458771 0.124723 -0.038294
v 0.464461 0.122584 -0.036604
v 0.464380 0.128330 -0.039663
v 0.469894 0.131878 -0.038090
v 0.471261 0.128013 -0.035326
v 0.469655 0.125404 -0.038552
vn -0.0173 0.2747 0.9614
vn -0.1674 0.0312 0.9854
vn 0.0429 0.2747 0.9606
vn 0.1961 0.0433 0.9796
vn -0.2845 0.6276 0.7247
vn -0.9960 0.0092 0.0888
vn -0.9801 0.1018 0.1704
vn -0.9688 0.1755 -0.1750
vn 0.3151 0.6254 0.7139
vn 0.9296 -0.2779 0.2422
vn -0.0842 0.9117 0.4022
vn -0.2519 0.9554 0.1538
vn 0.0625 -0.9973 0.0389
vn -0.2521 0.9552 -0.1553
vn -0.0940 -0.7590 -0.6443
vn 0.8926 -0.0108 0.4508
vn 0.9538 0.1661 0.2505
vn 0.9428 0.2140 0.2555
vn 0.9104 0.4083 0.0670
vn 0.3283 0.9411 0.0806
vn 0.1037 0.9097 0.4021
vn 0.9975 -0.0198 0.0685
vn 0.9268 -0.3739 0.0357
vn -0.0003 -0.3258 0.9454
vn -0.0892 0.9150 -0.3936
vn -0.9666 -0.1255 -0.2233
vn -0.8718 -0.4001 -0.2825
vn -0.1833 -0.0867 -0.9792
vn -0.3192 0.5905 -0.7413
vn -0.0532 0.2917 -0.9550
vn 0.9987 -0.0112 -0.0504
vn 0.9572 0.1729 -0.2320
vn 0.1096 0.9136 -0.3916
vn 0.9405 -0.2828 -0.1883
vn -0.0580 -0.7597 0.6477
vn 0.0178 -0.5902 -0.8071
vn -0.9978 0.0233 -0.0626
vn 0.9486 0.2121 -0.2347
vn 0.3523 0.6820 -0.6409
vn 0.9293 -0.2910 -0.2275
vn 0.0849 0.2907 -0.9530
vn 0.2377 0.0605 -0.9694
vn -0.9906 0.0393 0.1312
vn 0.1559 -0.7394 -0.6550
vn -0.9215 -0.3447 0.1787
vn 0.0193 -0.8564 -0.5160
vn 0.0001 -0.3549 -0.9349
vn 0.9475 -0.2705 0.1704
vn 0.8955 -0.0013 -0.4450
vn 0.0149 -0.9974 -0.0699
vn -0.8383 -0.5440 -0.0371
vn 0.0009 -0.6882 0.7255
s 0
f 1//1 2//1 3//1
f 1//2 3//2 4//2
f 1//3 6//3 2//3
f 1//4 5//4 6//4
f 3//5 2//5 7//5
f 4//6 9//6 8//6
f 9//7 3//7 7//7
f 16//8 9//8 17//8
f 6//9 11//9 2//9
f 5//10 13//10 12//10
f 7//11 2//11 14//11
f 7//12 14//12 9//12
f 10//13 21//13 13//13
f 9//14 14//14 17//14
f 23//15 24//15 15//15
f 12//16 6//16 5//16
f 6//17 12//17 18//17
f 6//18 18//18 11//18
f 11//19 18//19 19//19
f 11//20 19//20 14//20
f 11//21 14//21 2//21
f 12//22 20//22 18//22
f 13//23 21//23 20//23
f 5//24 1//24 4//24
f 14//25 22//25 17//25
f 8//26 16//26 23//26
f 8//27 23//27 15//27
f 16//28 25//28 23//28
f 17//29 22//29 16//29
f 16//30 22//30 25//30
f 18//31 20//31 27//31
f 18//32 27//32 26//32
f 14//33 19//33 22//33
f 20//34 21//34 27//34
f 13//35 4//35 10//35
f 24//36 23//36 28//36
f 9//37 16//37 8//37
f 19//38 18//38 26//38
f 19//39 26//39 22//39
f 27//40 21//40 28//40
f 22//41 26//41 25//41
f 25//42 26//42 28//42
f 9//43 4//43 3//43
f 28//44 21//44 24//44
f 10//45 4//45 8//45
f 24//46 21//46 15//46
f 28//47 23//47 25//47
f 20//48 12//48 13//48
f 27//49 28//49 26//49
f 21//50 10//50 15//50
f 15//51 10//51 8//51
f 13//52 5//52 4//52
