# Blender 4.0.0
# www.blender.org
o decimated_mesh
v 0.005259 -0.166908 0.007189
v 0.000502 -0.166908 0.008696
v -0.004252 -0.166908 0.007410
v -0.006886 -0.188557 0.005783
v 0.000502 -0.185932 0.008419
v 0.007885 -0.188445 0.005300
v 0.008026 -0.163641 0.005120
v 0.000212 -0.162477 0.006810
v -0.007443 -0.163326 0.005212
v -0.009013 -0.185176 -0.000613
v 0.002715 -0.188976 0.006611
v 0.008387 -0.163049 -0.004368
v -0.008853 -0.166908 -0.002029
v 0.008550 -0.188743 -0.003913
v 0.000502 -0.162415 -0.006785
v -0.007534 -0.162644 -0.004287
v -0.007374 -0.168171 -0.005937
v -0.007822 -0.189029 -0.004217
v 0.003030 -0.164226 -0.009246
v -0.001963 -0.164082 -0.009324
v -0.002213 -0.188435 -0.009225
v 0.002977 -0.188484 -0.009211
vn 0.6888 -0.0085 -0.7249
vn -0.3260 -0.0313 0.9449
vn 0.2852 0.3287 0.9003
vn 0.2500 0.3930 0.8849
vn -0.2289 0.3685 0.9010
vn 0.0177 -0.9998 -0.0124
vn -0.0955 -0.5587 0.8239
vn -0.2456 0.3386 0.9083
vn 0.9974 -0.0051 0.0722
vn -0.9187 -0.3811 0.1040
vn -0.9510 -0.0140 0.3088
vn 0.2040 0.8767 -0.4356
vn 0.0026 -0.0041 -1.0000
vn -0.0091 -0.9918 -0.1277
vn 0.3789 -0.0349 0.9248
vn -0.1249 0.9895 0.0722
vn -0.9223 0.0857 -0.3767
vn -0.6265 0.2062 -0.7517
vn 0.0783 0.9969 0.0062
vn -0.9834 0.0226 0.1802
vn -0.9511 -0.0050 -0.3088
vn 0.2640 -0.3434 0.9013
vn -0.6625 -0.0474 -0.7476
vn 0.6735 -0.0025 -0.7391
vn -0.2610 -0.0140 0.9652
vn -0.9501 0.3105 0.0313
vn -0.1588 0.8890 -0.4294
vn 0.1123 -0.9929 0.0403
vn -0.0480 -0.9975 0.0515
vn 0.9992 0.0070 0.0385
vn 0.0326 0.8207 -0.5704
vn 0.0157 -0.0015 -0.9999
vn 0.0187 -0.9975 -0.0683
vn 0.3020 -0.0138 0.9532
vn 0.5970 0.0024 0.8022
vn -0.5624 0.0063 0.8268
vn -0.0273 0.9996 0.0040
vn -0.5318 0.0020 -0.8469
vn -0.9371 -0.0188 -0.3486
vn 0.1614 0.9846 0.0676
vn -0.9362 -0.0088 -0.3514
vn -0.9541 -0.0148 -0.2993
s 0
f 22//1 12//1 14//1
f 5//2 3//2 4//2
f 1//3 7//3 2//3
f 2//4 7//4 8//4
f 2//5 8//5 9//5
f 18//6 14//6 11//6
f 5//7 4//7 11//7
f 9//8 3//8 2//8
f 14//9 7//9 6//9
f 10//10 18//10 4//10
f 4//11 9//11 10//11
f 19//12 15//12 12//12
f 20//13 22//13 21//13
f 21//14 22//14 18//14
f 1//15 5//15 6//15
f 8//16 16//16 9//16
f 13//17 16//17 17//17
f 17//18 16//18 20//18
f 15//19 8//19 12//19
f 10//20 9//20 13//20
f 10//21 17//21 18//21
f 11//22 6//22 5//22
f 17//23 21//23 18//23
f 22//24 19//24 12//24
f 5//25 2//25 3//25
f 9//26 16//26 13//26
f 20//27 16//27 15//27
f 14//28 6//28 11//28
f 11//29 4//29 18//29
f 14//30 12//30 7//30
f 19//31 20//31 15//31
f 20//32 19//32 22//32
f 22//33 14//33 18//33
f 1//34 2//34 5//34
f 6//35 7//35 1//35
f 3//36 9//36 4//36
f 16//37 8//37 15//37
f 17//38 20//38 21//38
f 10//39 13//39 17//39
f 12//40 8//40 7//40
f 17//41 18//41 13//41
f 18//42 10//42 13//42
