# Blender 4.0.0
# www.blender.org
o decimated_mesh
v 0.352364 0.070558 0.027072
v 0.353568 0.072954 0.022344
v 0.353863 0.065502 0.022564
v 0.354197 0.063554 0.029308
v 0.363628 0.070927 0.049049
v 0.364867 0.077738 0.049054
v 0.354670 0.078869 0.029301
v 0.354886 0.083192 0.024474
v 0.358904 0.089261 0.022689
v 0.357160 0.073410 0.020476
v 0.358758 0.062386 0.020356
v 0.358399 0.053055 0.022688
v 0.354876 0.057911 0.024535
v 0.364610 0.064490 0.049314
v 0.366775 0.070927 0.051355
v 0.358068 0.089128 0.027557
v 0.362021 0.085197 0.020344
v 0.363112 0.050886 0.021124
v 0.359213 0.049874 0.024436
v 0.358633 0.052980 0.029992
v 0.371705 0.079856 0.052426
v 0.372775 0.059727 0.052454
v 0.368080 0.083978 0.049033
v 0.374784 0.097335 0.020451
v 0.377399 0.042660 0.020363
v 0.364502 0.044656 0.023907
v 0.360609 0.049001 0.027362
v 0.368669 0.057061 0.049538
v 0.376645 0.084860 0.052432
v 0.372236 0.088048 0.049312
v 0.368021 0.099023 0.027605
v 0.368413 0.098732 0.022938
v 0.391193 0.099839 0.020356
v 0.372150 0.039855 0.022919
v 0.369149 0.040685 0.026930
v 0.375250 0.050267 0.049052
v 0.387865 0.090211 0.051550
v 0.384151 0.051439 0.051964
v 0.378200 0.091616 0.049338
v 0.372777 0.101548 0.027174
v 0.373574 0.102036 0.023907
v 0.379920 0.102825 0.022589
v 0.387969 0.103436 0.022255
v 0.406510 0.048702 0.020540
v 0.398637 0.042642 0.020669
v 0.384107 0.037938 0.022241
v 0.404824 0.094713 0.020853
v 0.384909 0.036303 0.026506
v 0.373175 0.039802 0.029297
v 0.399408 0.057608 0.052374
v 0.404882 0.069050 0.052197
v 0.385803 0.093313 0.049292
v 0.398897 0.084129 0.052325
v 0.386707 0.047949 0.049798
v 0.378078 0.102172 0.029859
v 0.385456 0.104650 0.026894
v 0.408200 0.044400 0.023134
v 0.392227 0.038401 0.022242
v 0.414142 0.057314 0.020671
v 0.398614 0.102145 0.023418
v 0.406632 0.097912 0.023217
v 0.390550 0.036647 0.026514
v 0.395310 0.051909 0.051131
v 0.404824 0.061418 0.051333
v 0.409025 0.071212 0.049867
v 0.404934 0.079332 0.051337
v 0.393121 0.092623 0.049121
v 0.390742 0.104274 0.026945
v 0.416915 0.053818 0.023203
v 0.402728 0.039750 0.023720
v 0.418987 0.067997 0.022184
v 0.416916 0.087917 0.023575
v 0.413984 0.083169 0.020412
v 0.418328 0.077610 0.022250
v 0.402267 0.040069 0.028549
v 0.407616 0.058763 0.048580
v 0.398433 0.049593 0.048419
v 0.421038 0.070174 0.026529
v 0.401384 0.088335 0.048727
v 0.407380 0.082924 0.048253
v 0.397915 0.101905 0.029016
v 0.407670 0.044130 0.028478
v 0.401993 0.101026 0.026440
v 0.407233 0.097218 0.028602
v 0.416913 0.053823 0.028145
v 0.416663 0.087296 0.028863
vn 0.8793 -0.1204 -0.4608
vn 0.4406 0.4187 0.7940
vn -0.9622 -0.0460 -0.2685
vn 0.0587 0.8863 0.4594
vn -0.6667 0.2331 -0.7079
vn -0.5878 0.1064 0.8020
vn -0.1965 -0.0090 0.9805
vn -0.0531 0.9310 0.3612
vn -0.8245 0.3489 0.4456
vn 0.0714 0.9737 -0.2162
vn 0.0854 -0.4795 0.8734
vn 0.6227 -0.6318 0.4616
vn -0.7080 -0.2645 -0.6548
vn -0.8060 -0.4299 -0.4069
vn -0.8885 -0.3539 0.2920
vn -0.4758 0.1590 0.8650
vn -0.4257 -0.1404 0.8939
vn -0.8440 0.5202 -0.1307
vn -0.7868 0.4067 0.4643
vn 0.2650 -0.9601 0.0889
vn -0.1619 0.9660 -0.2013
vn -0.8070 -0.5473 0.2218
vn -0.8660 -0.4694 0.1721
vn -0.7745 -0.4085 0.4830
vn -0.4388 -0.0538 -0.8970
vn 0.0049 0.0020 1.0000
vn 0.2999 -0.4584 -0.8366
vn -0.3576 0.3520 0.8650
vn 0.8824 0.0831 -0.4632
vn -0.9002 0.3437 0.2674
vn -0.1315 -0.5219 -0.8428
vn -0.5384 -0.8092 -0.2352
vn 0.0689 -0.4173 0.9061
vn -0.1394 0.4386 0.8878
vn 0.3746 -0.4465 0.8126
vn 0.1759 -0.8739 0.4532
vn -0.4545 0.7562 0.4706
vn -0.5237 0.8464 -0.0968
vn -0.2338 0.5914 -0.7718
vn -0.1735 -0.6079 0.7748
vn -0.2267 0.9471 0.2273
vn 0.4309 -0.3905 0.8135
vn -0.1165 0.8854 0.4500
vn -0.6915 -0.7128 0.1173
vn 0.0830 -0.2689 0.9596
vn -0.1141 0.5339 0.8378
vn 0.6473 0.1925 0.7375
vn 0.5980 -0.7939 0.1097
vn 0.6490 -0.7604 0.0259
vn 0.5865 0.6288 -0.5106
vn 0.1439 0.9559 -0.2560
vn 0.2789 0.9594 0.0433
vn -0.4675 0.8838 0.0180
vn -0.0844 0.9518 -0.2949
vn 0.0718 0.0949 -0.9929
vn 0.2177 0.4975 -0.8397
vn 0.1623 0.8806 0.4452
vn 0.9696 -0.2446 0.0007
vn -0.5022 -0.1914 -0.8433
vn -0.9692 -0.2162 0.1177
vn -0.2645 -0.9600 0.0915
vn -0.6406 0.6235 0.4482
vn 0.0541 -0.8948 0.4432
vn 0.2226 0.0801 0.9716
vn 0.7011 -0.7056 0.1029
vn 0.4263 0.8125 0.3977
vn -0.4900 0.2551 0.8336
vn 0.1571 0.5675 -0.8082
vn 0.1861 -0.5763 -0.7958
vn -0.4716 0.1726 -0.8648
vn 0.1776 -0.6380 0.7492
vn 0.7186 0.6859 0.1150
vn 0.6184 -0.1497 0.7715
vn -0.2412 -0.3837 0.8914
vn 0.3029 0.5097 0.8052
vn -0.2679 -0.9634 -0.0010
vn 0.2803 0.9525 0.1189
vn 0.5647 -0.1409 -0.8131
vn 0.8897 0.0641 -0.4521
vn 0.5763 0.8162 0.0406
vn 0.9381 0.1674 -0.3032
vn 0.5707 0.1811 -0.8009
vn 0.3570 -0.8203 -0.4468
vn 0.3924 -0.3569 -0.8477
vn 0.4428 0.3913 0.8067
vn 0.1648 -0.9335 -0.3183
vn 0.3828 0.3366 -0.8603
vn 0.6422 0.6221 0.4477
vn 0.9686 0.2374 0.0743
vn 0.5414 -0.7127 0.4461
vn 0.0162 0.0002 0.9999
vn 0.8796 -0.1597 -0.4481
vn -0.2508 -0.3522 -0.9017
vn 0.0943 0.8888 0.4484
vn -0.0573 0.9285 0.3668
vn -0.5628 -0.5040 -0.6551
vn 0.6555 -0.6097 0.4456
vn -0.9616 0.2245 0.1579
vn -0.3847 -0.4466 -0.8078
vn -0.4600 -0.4456 -0.7680
vn -0.4564 -0.0443 -0.8887
vn 0.0005 -0.0017 1.0000
vn 0.0031 0.0016 1.0000
vn 0.0272 0.0024 0.9996
vn 0.8831 0.1161 -0.4546
vn 0.5269 -0.0995 0.8441
vn 0.0692 -0.4165 0.9065
vn 0.4269 -0.4414 0.7893
vn 0.1766 -0.8739 0.4529
vn 0.4604 0.0717 0.8848
vn -0.1898 0.8627 0.4687
vn 0.7340 -0.6792 0.0011
vn 0.7239 -0.6889 0.0369
vn -0.6893 -0.7142 0.1215
vn -0.2349 0.9681 0.0873
vn 0.0095 0.1432 0.9896
vn -0.8339 -0.3208 0.4491
vn -0.2858 0.3108 -0.9065
vn 0.6205 0.6426 -0.4495
vn 0.6238 0.6367 -0.4532
vn -0.0131 0.3650 0.9309
vn -0.0197 0.3451 0.9384
vn 0.8800 0.1641 0.4457
vn 0.8694 0.1852 0.4580
vn 0.4249 0.7760 0.4661
vn 0.4150 0.7844 0.4611
vn -0.9763 -0.1662 -0.1384
vn 0.6966 0.7173 0.0145
vn 0.9212 -0.1601 -0.3547
vn -0.2041 -0.8560 0.4749
vn -0.1547 -0.8788 0.4514
vn -0.6329 0.6345 0.4437
vn 0.7007 -0.7062 0.1010
vn -0.3980 0.3484 0.8486
vn 0.2167 0.4517 -0.8654
vn -0.1158 -0.1098 -0.9872
vn -0.4398 0.1715 -0.8816
vn -0.2098 0.5190 -0.8287
vn -0.3932 -0.2087 -0.8955
vn -0.1676 -0.9306 -0.3253
vn -0.4619 -0.2264 0.8575
vn -0.3464 -0.3964 0.8502
vn -0.0019 -0.0616 0.9981
vn 0.1913 0.4576 0.8683
vn -0.4382 -0.7744 0.4563
vn -0.5902 -0.0570 0.8053
vn -0.2839 0.3066 -0.9085
vn 0.3593 -0.7675 -0.5309
vn 0.2973 -0.4045 -0.8649
vn 0.3811 -0.3246 -0.8657
vn 0.8788 -0.1780 0.4428
vn 0.8768 -0.1465 0.4579
vn -0.2741 0.4519 0.8489
vn 0.0767 0.6195 0.7812
vn 0.4034 0.3854 -0.8299
vn 0.6143 0.6403 0.4612
vn 0.2619 -0.1105 0.9587
vn 0.3134 -0.0076 -0.9496
vn 0.4277 0.0355 -0.9032
vn -0.9729 0.1600 -0.1669
vn 0.4550 0.8707 -0.1865
vn -0.0008 -0.0004 1.0000
vn -0.0397 0.0051 -0.9992
vn -0.0084 0.0177 -0.9998
vn -0.0015 0.0013 1.0000
vn 0.0282 -0.0098 -0.9996
vn -0.0144 0.0118 0.9998
vn -0.0007 0.0006 1.0000
vn 0.0591 0.8910 0.4501
vn 0.0942 0.8854 0.4551
vn 0.0688 -0.4168 0.9064
vn 0.0692 -0.4176 0.9060
vn 0.3853 -0.8033 -0.4542
vn 0.3267 -0.8301 -0.4519
vn 0.2363 0.4876 -0.8405
vn 0.2080 0.4699 -0.8579
vn -0.0020 0.0006 1.0000
vn -0.0005 0.0003 1.0000
vn 0.7006 -0.7061 0.1029
vn 0.7012 -0.7058 0.1011
vn -0.0026 0.0013 1.0000
vn 0.0031 0.0004 1.0000
vn -0.0072 0.0053 1.0000
vn 0.0002 0.0005 1.0000
vn -0.0143 0.0398 0.9991
vn -0.0132 0.3533 0.9354
vn -0.0215 0.3760 0.9264
vn -0.0529 0.9290 0.3662
vn 0.8839 -0.1243 -0.4509
vn 0.8736 -0.1586 -0.4601
vn 0.8789 0.1151 -0.4629
vn 0.6385 0.6192 -0.4571
vn 0.6222 0.6355 -0.4571
vn 0.6111 0.6509 -0.4505
vn -0.0575 0.9313 0.3596
vn 0.8860 0.0865 -0.4556
s 0
f 6//1 1//1 7//1
f 79//2 53//2 80//2
f 1//3 2//3 3//3
f 56//4 67//4 68//4
f 2//5 8//5 9//5
f 5//6 15//6 6//6
f 21//7 15//7 22//7
f 62//8 58//8 46//8
f 7//9 6//9 16//9
f 68//10 43//10 56//10
f 54//11 63//11 38//11
f 82//12 76//12 77//12
f 12//13 13//13 3//13
f 13//14 12//14 19//14
f 4//15 13//15 20//15
f 15//16 21//16 6//16
f 15//17 14//17 22//17
f 9//18 8//18 16//18
f 6//19 23//19 16//19
f 75//20 62//20 70//20
f 42//21 41//21 56//21
f 19//22 27//22 20//22
f 19//23 20//23 13//23
f 14//24 20//24 28//24
f 3//25 10//25 11//25
f 50//26 53//26 29//26
f 70//27 45//27 57//27
f 21//28 29//28 30//28
f 14//29 4//29 1//29
f 16//30 8//30 7//30
f 34//31 25//31 46//31
f 26//32 34//32 35//32
f 24//33 33//33 42//33
f 29//34 37//34 39//34
f 77//35 50//35 63//35
f 62//36 77//36 54//36
f 30//37 39//37 31//37
f 32//38 31//38 41//38
f 32//39 41//39 42//39
f 38//40 36//40 54//40
f 56//41 40//41 55//41
f 76//42 64//42 50//42
f 52//43 56//43 55//43
f 27//44 19//44 26//44
f 63//45 50//45 38//45
f 37//46 52//46 39//46
f 80//47 66//47 65//47
f 82//48 75//48 70//48
f 70//49 57//49 82//49
f 35//50 27//50 20//50
f 68//51 60//51 43//51
f 68//52 83//52 60//52
f 40//53 41//53 31//53
f 42//54 56//54 43//54
f 73//55 33//55 47//55
f 61//56 47//56 33//56
f 68//57 67//57 81//57
f 78//58 85//58 69//58
f 3//59 11//59 12//59
f 13//60 4//60 1//60
f 35//61 48//61 49//61
f 30//62 16//62 23//62
f 62//63 54//63 48//63
f 51//64 66//64 53//64
f 32//65 31//65 16//65
f 83//66 81//66 84//66
f 6//67 21//67 23//67
f 60//68 33//68 43//68
f 45//69 70//69 58//69
f 10//70 2//70 9//70
f 77//71 63//71 54//71
f 84//72 86//72 72//72
f 64//73 76//73 65//73
f 36//74 38//74 22//74
f 67//75 53//75 79//75
f 48//76 35//76 34//76
f 81//77 83//77 68//77
f 59//78 71//78 69//78
f 71//79 74//79 78//79
f 61//80 83//80 84//80
f 74//81 72//81 78//81
f 73//82 72//82 74//82
f 55//83 39//83 31//83
f 69//84 57//84 44//84
f 66//85 80//85 53//85
f 62//86 58//86 70//86
f 72//87 73//87 47//87
f 84//88 80//88 86//88
f 72//89 86//89 78//89
f 82//90 77//90 75//90
f 73//91 45//91 44//91
f 1//92 6//92 5//92
f 34//93 18//93 25//93
f 56//94 52//94 67//94
f 62//95 46//95 48//95
f 26//96 19//96 12//96
f 82//97 85//97 76//97
f 8//98 1//98 7//98
f 34//99 26//99 18//99
f 26//100 12//100 18//100
f 3//101 2//101 10//101
f 29//102 21//102 50//102
f 50//103 21//103 22//103
f 50//104 51//104 53//104
f 14//105 1//105 5//105
f 64//106 65//106 51//106
f 42//107 33//107 43//107
f 77//108 76//108 50//108
f 62//109 75//109 77//109
f 51//110 65//110 66//110
f 39//111 52//111 55//111
f 57//112 69//112 85//112
f 85//113 82//113 57//113
f 35//114 27//114 26//114
f 40//115 56//115 41//115
f 37//116 29//116 53//116
f 20//117 14//117 4//117
f 9//118 32//118 24//118
f 35//119 20//119 36//119
f 36//120 20//120 28//120
f 25//121 58//121 45//121
f 46//122 58//122 25//122
f 78//123 86//123 65//123
f 86//124 80//124 65//124
f 79//125 84//125 67//125
f 84//126 81//126 67//126
f 3//127 13//127 1//127
f 61//128 84//128 72//128
f 78//129 69//129 71//129
f 54//130 36//130 49//130
f 48//131 54//131 49//131
f 30//132 31//132 16//132
f 32//133 16//133 9//133
f 21//134 30//134 23//134
f 60//135 61//135 33//135
f 18//136 11//136 25//136
f 17//137 10//137 9//137
f 24//138 32//138 42//138
f 11//139 18//139 12//139
f 48//140 34//140 46//140
f 14//141 28//141 22//141
f 28//142 36//142 22//142
f 50//143 22//143 38//143
f 67//144 37//144 53//144
f 49//145 36//145 35//145
f 14//146 15//146 5//146
f 24//147 17//147 9//147
f 55//148 31//148 40//148
f 57//149 45//149 44//149
f 44//150 59//150 69//150
f 85//151 78//151 76//151
f 78//152 65//152 76//152
f 39//153 30//153 29//153
f 37//154 67//154 52//154
f 61//155 72//155 47//155
f 84//156 79//156 80//156
f 64//157 51//157 50//157
f 71//158 59//158 73//158
f 74//159 71//159 73//159
f 8//160 2//160 1//160
f 83//161 61//161 60//161
f 25//162 73//162 11//162
f 11//163 10//163 17//163
f 17//164 24//164 33//164
f 33//165 11//165 73//165
f 73//166 59//166 44//166
f 45//167 73//167 25//167
f 11//168 33//168 17//168
f 52//169 68//169 56//169
f 67//170 68//170 52//170
f 33//171 43//171 24//171
f 24//172 43//172 42//172
f 31//173 40//173 39//173
f 39//174 40//174 55//174
f 61//175 47//175 60//175
f 47//176 33//176 60//176
f 73//177 33//177 25//177
f 25//178 33//178 17//178
f 9//179 32//179 31//179
f 9//180 31//180 16//180
f 21//181 22//181 29//181
f 22//182 50//182 29//182
f 44//183 73//183 25//183
f 11//184 25//184 17//184
f 44//185 25//185 45//185
f 45//186 25//186 46//186
f 45//187 46//187 58//187
f 58//188 46//188 48//188
f 1//189 7//189 5//189
f 5//190 7//190 6//190
f 5//191 14//191 4//191
f 20//192 28//192 27//192
f 27//193 28//193 36//193
f 27//194 36//194 35//194
f 62//195 58//195 48//195
f 4//196 1//196 5//196
