# Blender 4.0.0
# www.blender.org
o decimated_mesh
v -0.006530 0.167628 0.006191
v 0.000502 0.170822 0.008696
v 0.005259 0.170822 0.007189
v 0.002314 0.166564 0.006945
v 0.008092 0.167789 0.004801
v 0.007752 0.192500 0.005453
v 0.000502 0.189846 0.008419
v -0.006885 0.192405 0.005791
v -0.009204 0.171887 0.000037
v -0.007863 0.166266 -0.000552
v 0.008452 0.166851 -0.004207
v 0.000502 0.192944 0.006590
v -0.009029 0.189053 -0.000708
v -0.001057 0.166407 -0.007073
v 0.008599 0.192655 -0.003776
v -0.007679 0.193216 -0.000270
v -0.007433 0.167337 -0.005194
v -0.007259 0.192571 -0.005318
v 0.002901 0.168079 -0.009296
v -0.002441 0.168119 -0.009211
v -0.002217 0.192324 -0.009225
v 0.002986 0.192364 -0.009215
vn -0.1273 -0.4231 0.8971
vn 0.2920 -0.2549 0.9218
vn 0.3883 -0.3182 0.8649
vn -0.6270 0.0005 -0.7790
vn -0.0343 0.9994 0.0068
vn -0.3320 0.0105 0.9432
vn 0.0647 0.9976 0.0227
vn -0.9394 -0.2489 0.2360
vn 0.9992 -0.0064 0.0406
vn 0.1639 0.5017 0.8494
vn -0.1291 0.5043 0.8538
vn -0.9347 0.0047 -0.3554
vn 0.0187 0.9972 -0.0726
vn 0.3020 0.0138 0.9532
vn -0.9435 0.2889 0.1622
vn -0.9664 -0.2159 -0.1395
vn -0.9529 0.0229 0.3025
vn -0.2087 -0.9485 -0.2383
vn 0.0020 0.0033 -1.0000
vn -0.9407 0.3176 -0.1189
vn -0.2659 -0.8291 -0.4918
vn 0.6956 0.0080 -0.7184
vn -0.0874 0.9858 0.1433
vn -0.1350 -0.9657 0.2217
vn -0.0157 -0.7854 -0.6188
vn -0.6124 0.0052 -0.7906
vn -0.0404 0.9990 -0.0206
vn -0.3409 0.0137 0.9400
vn 0.0342 0.9994 -0.0012
vn 0.9957 0.0113 0.0916
vn 0.1610 -0.9049 -0.3940
vn -0.9482 -0.0041 -0.3176
vn -0.0531 0.9900 -0.1309
vn -0.0075 0.9946 -0.1036
vn 0.3684 0.0320 0.9291
vn 0.6371 -0.0116 0.7707
vn -0.9188 -0.0068 0.3946
vn -0.0160 -0.0005 -0.9999
vn 0.6757 0.0001 -0.7372
vn 0.2450 -0.9632 0.1101
vn -0.3310 0.0137 0.9435
vn -0.3396 0.0103 0.9405
vn -0.0256 0.9997 -0.0051
vn -0.0466 0.9989 -0.0000
s 0
f 2//1 1//1 4//1
f 2//2 4//2 3//2
f 3//3 4//3 5//3
f 18//4 20//4 17//4
f 11//5 10//5 4//5
f 1//6 7//6 8//6
f 15//7 12//7 6//7
f 1//8 9//8 10//8
f 15//9 5//9 11//9
f 7//10 6//10 12//10
f 7//11 12//11 8//11
f 17//12 13//12 18//12
f 16//13 15//13 22//13
f 3//14 7//14 2//14
f 8//15 16//15 13//15
f 9//16 17//16 10//16
f 9//17 8//17 13//17
f 10//18 17//18 14//18
f 22//19 19//19 21//19
f 13//20 16//20 18//20
f 17//21 20//21 14//21
f 11//22 22//22 15//22
f 16//23 8//23 12//23
f 10//24 4//24 1//24
f 20//25 19//25 14//25
f 18//26 21//26 20//26
f 14//27 10//27 11//27
f 1//28 2//28 7//28
f 15//29 16//29 12//29
f 15//30 6//30 5//30
f 19//31 11//31 14//31
f 17//32 9//32 13//32
f 21//33 18//33 16//33
f 22//34 21//34 16//34
f 3//35 6//35 7//35
f 3//36 5//36 6//36
f 9//37 1//37 8//37
f 19//38 20//38 21//38
f 11//39 19//39 22//39
f 5//40 4//40 11//40
f 7//41 8//41 2//41
f 8//42 1//42 2//42
f 10//43 4//43 14//43
f 14//44 4//44 11//44
