# Blender 4.0.0
# www.blender.org
o decimated_mesh
v 0.461909 -0.119340 -0.022132
v 0.458228 -0.116813 -0.022918
v 0.458627 -0.123326 -0.022781
v 0.469443 -0.123040 -0.022822
v 0.469406 -0.116997 -0.022811
v 0.458658 -0.112524 -0.032676
v 0.457905 -0.127883 -0.032889
v 0.458355 -0.127390 -0.026780
v 0.464546 -0.127285 -0.024205
v 0.469207 -0.112255 -0.028082
v 0.459371 -0.112150 -0.028093
v 0.458025 -0.121955 -0.038594
v 0.464735 -0.129955 -0.030545
v 0.470044 -0.127154 -0.026582
v 0.470926 -0.119340 -0.025815
v 0.469200 -0.112291 -0.032655
v 0.458900 -0.116228 -0.038169
v 0.464283 -0.119471 -0.039422
v 0.464495 -0.127057 -0.037768
v 0.470113 -0.127970 -0.033215
v 0.471481 -0.124096 -0.030570
v 0.471501 -0.119340 -0.033254
v 0.469517 -0.116641 -0.038227
v 0.469808 -0.123309 -0.038126
vn -0.2034 0.0081 0.9791
vn -0.9997 0.0249 0.0048
vn -0.2775 -0.6644 0.6939
vn -0.9277 0.3551 0.1152
vn 0.0082 -0.1673 0.9859
vn -0.3201 -0.9421 0.0996
vn -0.1429 -0.9137 0.3805
vn 0.3264 -0.6113 0.7210
vn -0.0173 0.8286 -0.5596
vn 0.9248 0.2994 0.2346
vn -0.0059 -0.7435 -0.6687
vn 0.9293 -0.3653 0.0546
vn -0.9754 0.1604 -0.1511
vn -0.1688 0.0987 -0.9807
vn -0.1540 -0.9187 -0.3636
vn -0.4107 -0.6279 -0.6611
vn -0.0441 -0.2140 -0.9758
vn 0.1885 -0.9031 0.3860
vn 0.3943 -0.9116 0.1162
vn 0.0095 0.3740 -0.9274
vn 0.9606 -0.1325 0.2444
vn 0.9963 0.0391 0.0770
vn -0.0219 0.9967 -0.0780
vn 0.1531 -0.9154 -0.3724
vn 0.9648 -0.1325 -0.2273
vn -0.9963 -0.0399 0.0766
vn 0.9443 -0.1361 0.2998
vn 0.9270 0.3193 -0.1966
vn 0.0825 -0.2101 -0.9742
vn 0.2251 -0.0049 -0.9743
vn 0.4135 -0.6475 -0.6401
vn -0.9972 0.0741 -0.0114
vn 0.0906 -0.0013 0.9959
vn 0.9634 0.2576 0.0744
vn 0.9505 0.3106 -0.0039
vn 0.0273 0.7886 -0.6142
vn -0.0072 -0.7421 -0.6702
vn 0.0122 -0.3223 0.9466
vn 0.9347 0.0355 -0.3537
vn 0.0107 0.9999 -0.0078
vn 0.9563 -0.1802 -0.2304
vn -0.0043 0.2911 0.9567
vn -0.9903 -0.0580 0.1264
vn 0.8936 0.0047 0.4488
vn -0.0072 -0.7435 -0.6687
vn -0.0058 -0.7423 -0.6701
s 0
f 1//1 2//1 3//1
f 2//2 12//2 7//2
f 3//3 8//3 9//3
f 2//4 11//4 6//4
f 4//5 1//5 3//5
f 7//6 13//6 8//6
f 8//7 13//7 9//7
f 9//8 14//8 4//8
f 16//9 17//9 6//9
f 5//10 15//10 10//10
f 10//11 5//11 2//11
f 21//12 14//12 20//12
f 6//13 17//13 12//13
f 12//14 17//14 18//14
f 7//15 19//15 13//15
f 7//16 12//16 19//16
f 12//17 18//17 19//17
f 9//18 13//18 14//18
f 14//19 13//19 20//19
f 18//20 17//20 23//20
f 14//21 21//21 15//21
f 15//22 21//22 22//22
f 11//23 16//23 6//23
f 13//24 19//24 20//24
f 21//25 24//25 22//25
f 2//26 7//26 8//26
f 15//27 4//27 14//27
f 22//28 23//28 16//28
f 18//29 24//29 19//29
f 18//30 23//30 24//30
f 19//31 24//31 20//31
f 2//32 6//32 12//32
f 4//33 5//33 1//33
f 15//34 22//34 10//34
f 22//35 16//35 10//35
f 16//36 23//36 17//36
f 10//37 2//37 11//37
f 9//38 4//38 3//38
f 24//39 23//39 22//39
f 11//40 10//40 16//40
f 20//41 24//41 21//41
f 5//42 2//42 1//42
f 8//43 3//43 2//43
f 15//44 5//44 4//44
f 10//45 5//45 11//45
f 11//46 5//46 2//46
