mtllib material.mtl
usemtl material_0
v 0.19395000 -0.28779000 -0.27739000
v 0.19395000 -0.28779000 -0.27740000
v 0.19396000 -0.28779000 -0.27740000
v 0.19396000 -0.28779000 -0.27739000
v 0.14272000 0.01453000 -0.45251000
v 0.14508000 -0.00849000 -0.43887000
v -0.18805000 -0.00849000 -0.43887000
v -0.18570000 0.01453000 -0.45251000
v -0.18570000 0.01574000 -0.01126000
v 0.14272000 0.01574000 -0.01126000
v 0.15097000 0.01453000 -0.00375000
v -0.19395000 0.01453000 -0.00375000
v -0.19395000 0.01453000 0.01143000
v 0.15097000 0.01453000 0.01143000
v -0.18570000 0.01453000 -0.45251000
v -0.19395000 0.01453000 -0.38406000
v -0.19395000 0.01453000 -0.46012000
v -0.18228000 0.01453000 -0.38406000
v -0.19395000 0.01453000 -0.37865000
v -0.18228000 0.01453000 -0.37865000
v 0.15097000 0.01453000 -0.37865000
v 0.13930000 0.01453000 -0.37865000
v 0.15097000 0.01453000 -0.38406000
v 0.13930000 0.01453000 -0.38406000
v 0.15097000 0.01453000 -0.46012000
v 0.14272000 0.01453000 -0.45251000
v -0.19395000 0.00698000 -0.46012000
v 0.15097000 0.01453000 -0.46012000
v -0.19395000 0.01453000 -0.46012000
v 0.15097000 0.00698000 -0.46012000
v 0.15097000 -0.00849000 -0.44942000
v -0.19395000 -0.00849000 -0.44942000
v -0.18570000 0.01574000 -0.01126000
v -0.18295000 -0.00849000 -0.37828000
v -0.18644000 -0.00849000 -0.01614000
v -0.18228000 0.01453000 -0.37865000
v -0.18228000 0.01453000 -0.38406000
v -0.18295000 -0.00849000 -0.38302000
v -0.18805000 -0.00849000 -0.43887000
v -0.18570000 0.01453000 -0.45251000
v 0.13930000 0.01453000 -0.38406000
v 0.14508000 -0.00849000 -0.43887000
v 0.14272000 0.01453000 -0.45251000
v 0.13998000 -0.00849000 -0.38302000
v 0.13997000 -0.00849000 -0.37828000
v 0.13930000 0.01453000 -0.37865000
v 0.14272000 0.01574000 -0.01126000
v 0.14347000 -0.00849000 -0.01614000
v -0.18644000 -0.00849000 -0.01614000
v 0.14347000 -0.00849000 -0.01614000
v 0.14272000 0.01574000 -0.01126000
v -0.18570000 0.01574000 -0.01126000
v -0.19395000 -0.00849000 0.00726000
v -0.19395000 0.01453000 0.01143000
v 0.15097000 0.01453000 0.01143000
v 0.15097000 -0.00849000 0.00726000
v -0.19395000 0.00698000 -0.46012000
v -0.19395000 0.01453000 -0.46012000
v -0.19395000 0.01453000 -0.38406000
v -0.19395000 -0.00849000 -0.44942000
v -0.19395000 -0.00849000 -0.38406000
v -0.19395000 -0.00849000 -0.37865000
v -0.19395000 0.01453000 -0.37865000
v -0.19395000 0.01453000 -0.00375000
v -0.19395000 -0.00849000 -0.00792000
v -0.19395000 -0.00849000 0.00726000
v -0.19395000 0.01453000 0.01143000
v 0.15097000 0.00698000 -0.46012000
v 0.15097000 -0.00849000 -0.44942000
v 0.15097000 -0.00849000 -0.38406000
v 0.15097000 0.01453000 -0.38406000
v 0.15097000 0.01453000 -0.46012000
v 0.15097000 0.01453000 -0.37865000
v 0.15097000 -0.00849000 -0.37865000
v 0.15097000 -0.00849000 -0.00792000
v 0.15097000 0.01453000 -0.00375000
v 0.15097000 0.01453000 0.01143000
v 0.15097000 -0.00849000 0.00726000
v -0.19395000 -0.00849000 -0.00792000
v -0.19395000 -0.00849000 0.00726000
v 0.15097000 -0.00849000 0.00726000
v 0.15097000 -0.00849000 -0.00792000
vn 0.00000000 1.00000000 0.00000000
vn 0.00000000 1.00000000 0.00000000
vn 0.00000000 1.00000000 0.00000000
vn 0.00000000 1.00000000 0.00000000
vn 0.00000000 0.50975290 0.86032090
vn 0.00000000 0.54799930 0.83647880
vn 0.00000000 0.54799930 0.83647880
vn 0.00000000 0.50975290 0.86032090
vn -0.03593003 0.99718610 0.06579412
vn 0.03592996 0.99718610 0.06579411
vn 0.01443351 0.99964110 0.02256903
vn -0.01443354 0.99964110 0.02256904
vn 0.00000000 1.00000000 0.00000000
vn 0.00000000 1.00000000 0.00000000
vn 0.00000000 1.00000000 0.00000000
vn 0.00000000 1.00000000 0.00000000
vn 0.00000000 1.00000000 0.00000000
vn 0.00000000 1.00000000 0.00000000
vn -0.06045384 0.99816920 -0.00188175
vn -0.06044779 0.99816950 -0.00188156
vn 0.06045370 0.99816920 -0.00188175
vn 0.06044767 0.99816950 -0.00188156
vn 0.00000000 1.00000000 0.00000000
vn 0.00000000 1.00000000 0.00000000
vn 0.00000000 1.00000000 0.00000000
vn 0.00000000 1.00000000 0.00000000
vn 0.00000000 -0.42155520 -0.90680270
vn 0.00000000 0.00000000 -1.00000000
vn 0.00000000 0.00000000 -1.00000000
vn 0.00000000 -0.42155520 -0.90680270
vn 0.00000000 -0.56879040 -0.82248250
vn 0.00000000 -0.56879040 -0.82248250
vn 0.99948040 -0.03079475 0.00952119
vn 0.99952270 -0.02931297 0.00974708
vn 0.99951910 -0.02939379 0.00987760
vn 0.99948240 -0.03077272 0.00938277
vn 0.99454160 -0.08295947 -0.06328310
vn 0.99590220 -0.05005891 -0.07531878
vn 0.99494030 -0.06291625 -0.07832797
vn 0.99387370 -0.08706621 -0.06807667
vn -0.99454150 -0.08296161 -0.06328303
vn -0.99494030 -0.06291761 -0.07832790
vn -0.99387360 -0.08706857 -0.06807660
vn -0.99590220 -0.05005975 -0.07531874
vn -0.99952270 -0.02931317 0.00974711
vn -0.99948240 -0.03077274 0.00938277
vn -0.99948040 -0.03079477 0.00952119
vn -0.99951910 -0.02939398 0.00987763
vn 0.00000000 0.19764590 -0.98027350
vn 0.00000000 0.19764590 -0.98027350
vn 0.00000000 0.19764520 -0.98027360
vn 0.00000000 0.19764520 -0.98027360
vn 0.00000000 -0.17802600 0.98402580
vn 0.00000000 -0.17802600 0.98402580
vn 0.00000000 -0.17802600 0.98402580
vn 0.00000000 -0.17802600 0.98402580
vn -1.00000000 0.00000000 0.00000000
vn -1.00000000 0.00000000 0.00000000
vn -1.00000000 0.00000000 0.00000000
vn -1.00000000 0.00000000 0.00000000
vn -1.00000000 0.00000000 0.00000000
vn -1.00000000 0.00000030 0.00000000
vn -1.00000000 0.00000011 0.00000000
vn -1.00000000 0.00000011 0.00000000
vn -1.00000000 0.00000029 0.00000000
vn -1.00000000 0.00000000 0.00000000
vn -1.00000000 0.00000000 0.00000000
vn 1.00000000 0.00000000 0.00000000
vn 1.00000000 0.00000000 0.00000000
vn 1.00000000 0.00000000 0.00000000
vn 1.00000000 0.00000000 0.00000000
vn 1.00000000 0.00000000 0.00000000
vn 1.00000000 0.00000000 0.00000000
vn 1.00000000 0.00000000 0.00000000
vn 1.00000000 0.00000000 0.00000000
vn 1.00000000 0.00000000 0.00000000
vn 1.00000000 0.00000000 0.00000000
vn 1.00000000 0.00000000 0.00000000
vn 0.00000000 -1.00000000 -0.00000350
vn 0.00000000 -1.00000000 -0.00000350
vn 0.00000000 -1.00000000 -0.00000350
vn 0.00000000 -1.00000000 -0.00000350
vt -170.88590000 -111.20600000
vt -170.88580000 -111.20600000
vt -170.88580000 -111.20610000
vt -170.88590000 -111.20610000
vt -170.12290000 -0.68082450
vt -170.17350000 -0.68955460
vt -170.17350000 0.54652440
vt -170.12290000 0.53779440
vt -171.15510000 -0.52776750
vt -170.28390000 -0.52776750
vt -170.26190000 -0.54766950
vt -171.17700000 -0.54766950
vt -171.17700000 -0.58793920
vt -170.26190000 -0.58793920
vt -171.15510000 0.64279780
vt -171.17700000 0.46121560
vt -171.17700000 0.66298870
vt -171.14600000 0.46121560
vt -171.17700000 0.44685720
vt -171.14600000 0.44685720
vt -170.26190000 0.44685720
vt -170.29290000 0.44685720
vt -170.26190000 0.46121560
vt -170.29290000 0.46121560
vt -170.26190000 0.66298870
vt -170.28390000 0.64279780
vt -170.26410000 0.42662970
vt -170.28550000 -0.55107300
vt -170.28550000 0.42662970
vt -170.26410000 -0.55107300
vt -170.22020000 -0.55107300
vt -170.22020000 0.42662970
vt -170.30670000 0.59857520
vt -170.37090000 -0.37444500
vt -170.37090000 0.58562410
vt -170.30990000 -0.37543450
vt -170.30990000 -0.38978390
vt -170.37090000 -0.38702800
vt -170.37090000 -0.53509710
vt -170.30990000 -0.57125150
vt -170.26640000 0.41707250
vt -170.32750000 0.56237320
vt -170.26640000 0.59852450
vt -170.32750000 0.41431690
vt -170.32750000 0.40173510
vt -170.26640000 0.40272440
vt -170.26320000 -0.57120080
vt -170.32750000 -0.55825080
vt -170.15080000 0.91412170
vt -170.15080000 0.03144327
vt -170.21570000 0.03343514
vt -170.21570000 0.91212990
vt -170.24190000 0.39846870
vt -170.18040000 0.39846870
vt -170.18040000 -0.52291200
vt -170.24190000 -0.52291200
vt -170.41280000 0.66203480
vt -170.39280000 0.66203480
vt -170.39280000 0.46056930
vt -170.45380000 0.63369370
vt -170.45380000 0.46056930
vt -170.45380000 0.44623280
vt -170.39280000 0.44623280
vt -170.39280000 -0.54677700
vt -170.45380000 -0.53574820
vt -170.45380000 -0.57595570
vt -170.39280000 -0.58698520
vt -170.37100000 -0.58710000
vt -170.41200000 -0.55875380
vt -170.41200000 -0.38559750
vt -170.35100000 -0.38559750
vt -170.35100000 -0.58710000
vt -170.35100000 -0.37125840
vt -170.41200000 -0.37125840
vt -170.41200000 0.61090300
vt -170.35100000 0.62193410
vt -170.35100000 0.66214950
vt -170.41200000 0.65111820
vt -170.19560000 0.39467990
vt -170.15540000 0.39467990
vt -170.15540000 -0.51912320
vt -170.19560000 -0.51912320
f 3/3/3 2/2/2 1/1/1
f 4/4/4 3/3/3 1/1/1
f 7/7/7 6/6/6 5/5/5
f 8/8/8 7/7/7 5/5/5
f 11/11/11 10/10/10 9/9/9
f 12/12/12 11/11/11 9/9/9
f 12/12/12 13/13/13 11/11/11
f 13/13/13 14/14/14 11/11/11
f 17/17/17 16/16/16 15/15/15
f 16/16/16 18/18/18 15/15/15
f 16/16/16 19/19/19 18/18/18
f 19/19/19 20/20/20 18/18/18
f 19/19/19 12/12/12 20/20/20
f 12/12/12 9/9/9 20/20/20
f 11/11/11 21/21/21 10/10/10
f 21/21/21 22/22/22 10/10/10
f 21/21/21 23/23/23 22/22/22
f 23/23/23 24/24/24 22/22/22
f 23/23/23 25/25/25 24/24/24
f 25/25/25 26/26/26 24/24/24
f 17/17/17 15/15/15 26/26/26
f 25/25/25 17/17/17 26/26/26
f 29/29/29 28/28/28 27/27/27
f 28/28/28 30/30/30 27/27/27
f 27/27/27 30/30/30 31/31/31
f 32/32/32 27/27/27 31/31/31
f 35/35/35 34/34/34 33/33/33
f 34/34/34 36/36/36 33/33/33
f 36/36/36 34/34/34 37/37/37
f 34/34/34 38/38/38 37/37/37
f 38/38/38 39/39/39 37/37/37
f 39/39/39 40/40/40 37/37/37
f 43/43/43 42/42/42 41/41/41
f 42/42/42 44/44/44 41/41/41
f 44/44/44 45/45/45 41/41/41
f 45/45/45 46/46/46 41/41/41
f 46/46/46 45/45/45 47/47/47
f 45/45/45 48/48/48 47/47/47
f 51/51/51 50/50/50 49/49/49
f 52/52/52 51/51/51 49/49/49
f 55/55/55 54/54/54 53/53/53
f 56/56/56 55/55/55 53/53/53
f 59/59/59 58/58/58 57/57/57
f 59/59/59 57/57/57 60/60/60
f 60/60/60 61/61/61 59/59/59
f 59/59/59 61/61/61 62/62/62
f 63/63/63 59/59/59 62/62/62
f 63/63/63 62/62/62 64/64/64
f 62/62/62 65/65/65 64/64/64
f 65/65/65 66/66/66 64/64/64
f 66/66/66 67/67/67 64/64/64
f 70/70/70 69/69/69 68/68/68
f 68/68/68 71/71/71 70/70/70
f 68/68/68 72/72/72 71/71/71
f 71/71/71 73/73/73 70/70/70
f 73/73/73 74/74/74 70/70/70
f 75/75/75 74/74/74 73/73/73
f 76/76/76 75/75/75 73/73/73
f 76/76/76 77/77/77 75/75/75
f 77/77/77 78/78/78 75/75/75
f 81/81/81 80/80/80 79/79/79
f 82/82/82 81/81/81 79/79/79

