# Blender 4.0.0
# www.blender.org
o decimated_mesh
v 0.036985 -0.007813 0.021530
v 0.034676 0.001331 0.024588
v 0.039062 0.001331 0.021530
v 0.039448 -0.007813 0.021530
v 0.015911 -0.007813 0.039648
v 0.015911 0.001331 0.041735
v 0.040680 0.001331 0.021530
v 0.015932 -0.007810 0.042135
v 0.015927 0.001330 0.043425
v 0.040551 -0.005758 0.021533
v 0.038818 -0.007798 0.023043
v 0.015912 -0.005869 0.043209
v 0.040187 0.001331 0.022981
v 0.039996 -0.005207 0.023142
v 0.029073 0.001330 0.035882
v 0.030236 -0.005183 0.034834
v 0.029116 -0.007796 0.034517
v 0.028669 -0.005472 0.035990
vn 0.0046 -1.0000 0.0041
vn 0.8215 -0.3893 0.4166
vn 0.9431 -0.0194 0.3319
vn 0.4930 -0.0272 0.8696
vn -0.0000 1.0000 -0.0000
vn -0.5672 0.1289 -0.8134
vn 0.4553 -0.4272 0.7811
vn -0.6494 0.0887 -0.7553
vn 0.8258 -0.4439 0.3478
vn 0.5975 -0.3439 0.7244
vn 0.0016 -1.0000 0.0010
vn 0.0023 -1.0000 0.0027
vn -0.0000 -1.0000 0.0096
vn -0.0000 -0.0013 1.0000
vn -0.0008 0.0002 1.0000
vn -0.0000 0.0004 1.0000
vn -0.9999 0.0019 0.0099
vn -1.0000 -0.0001 0.0004
vn -0.9998 -0.0154 0.0087
vn 0.9469 -0.0170 0.3212
vn 0.5960 -0.0227 0.8027
vn 0.4976 -0.0159 0.8672
vn 0.7108 -0.3766 0.5941
vn 0.7157 -0.3484 0.6053
vn 0.0001 1.0000 0.0002
vn 0.4562 -0.4119 0.7888
vn -0.6652 0.1661 -0.7280
vn 0.7677 -0.0067 0.6408
vn 0.7573 0.0302 0.6524
vn -0.0000 -0.0000 1.0000
vn -0.0000 -1.0000 -0.0000
vn -0.0031 0.0004 1.0000
vn 0.0220 -0.9996 0.0187
vn 0.0033 -1.0000 0.0039
vn 0.0007 -1.0000 0.0010
vn 0.7189 -0.3496 0.6008
vn 0.7076 -0.3758 0.5984
vn 0.4586 -0.4109 0.7879
vn 0.4525 -0.4279 0.7824
s 0
f 11//1 17//1 1//1
f 11//2 10//2 14//2
f 10//3 13//3 14//3
f 18//4 9//4 12//4
f 15//5 13//5 2//5
f 2//6 3//6 1//6
f 8//7 18//7 12//7
f 5//8 2//8 1//8
f 11//9 4//9 10//9
f 18//10 17//10 16//10
f 17//11 8//11 5//11
f 5//12 1//12 17//12
f 1//13 4//13 11//13
f 10//14 1//14 4//14
f 1//15 10//15 3//15
f 3//16 10//16 7//16
f 12//17 9//17 6//17
f 6//18 5//18 12//18
f 5//19 8//19 12//19
f 10//20 7//20 13//20
f 18//21 16//21 15//21
f 9//22 18//22 15//22
f 14//23 16//23 17//23
f 17//24 11//24 14//24
f 7//5 3//5 13//5
f 3//5 2//5 13//5
f 2//5 6//5 15//5
f 15//25 6//25 9//25
f 8//26 17//26 18//26
f 5//27 6//27 2//27
f 16//28 14//28 13//28
f 13//29 15//29 16//29
f 3//30 4//30 7//30
f 3//30 1//30 4//30
f 4//31 5//31 1//31
f 6//5 15//5 13//5
f 6//5 13//5 7//5
f 6//5 7//5 3//5
f 6//5 3//5 2//5
f 7//32 4//32 10//32
f 11//33 17//33 4//33
f 17//34 8//34 4//34
f 8//35 5//35 4//35
f 14//36 16//36 11//36
f 16//37 17//37 11//37
f 18//38 12//38 17//38
f 12//39 8//39 17//39
