# Blender 4.0.0
# www.blender.org
o decimated_mesh
v 0.018385 0.115883 0.000007
v 0.018386 0.113589 0.000007
v 0.032116 0.105856 -0.005702
v 0.032530 0.105540 0.000007
v 0.028347 0.105345 -0.017512
v 0.018385 0.108224 -0.017526
v 0.042561 0.090406 0.000007
v 0.040112 0.090296 -0.017543
v 0.018385 0.109975 -0.017526
v 0.044093 0.090406 0.000007
v 0.038075 0.096647 -0.017525
v 0.041609 0.096840 -0.007388
v 0.018380 0.115505 -0.004903
v 0.044016 0.090407 -0.008102
v 0.041706 0.096826 0.000007
vn -1.0000 -0.0002 0.0010
vn 0.0014 -0.0000 -1.0000
vn 0.3922 0.8426 -0.3690
vn -0.6758 -0.7048 0.2157
vn -0.6336 -0.7680 0.0932
vn 0.6879 0.7257 -0.0076
vn 0.8847 0.2847 -0.3692
vn 0.9361 0.3515 -0.0116
vn 0.5535 0.8055 -0.2116
vn 0.6464 0.7250 -0.2377
vn -1.0000 -0.0000 -0.0004
vn -1.0000 -0.0015 0.0005
vn -0.0000 -0.0000 1.0000
vn 0.0002 0.0002 -1.0000
vn 0.0001 -0.0000 -1.0000
vn 0.0015 0.0032 -1.0000
vn 0.0026 0.0041 -1.0000
vn -0.0000 1.0000 0.0001
vn -0.0199 0.9998 -0.0035
vn 0.6886 0.7251 -0.0098
vn 0.8777 0.3631 -0.3129
vn 0.9373 0.3485 -0.0089
vn 0.5712 0.8184 -0.0636
vn 0.5902 0.8072 0.0018
vn 0.6470 0.7240 -0.2393
vn -0.0003 -0.0002 1.0000
vn -0.0000 1.0000 -0.0063
vn 0.6886 0.7251 -0.0077
vn 0.6877 0.7259 -0.0097
vn -0.0008 -0.0000 -1.0000
vn 0.0045 0.0066 -1.0000
vn 0.0024 0.0035 -1.0000
vn -0.0292 0.9996 0.0003
s 0
f 2//1 1//1 13//1
f 6//2 9//2 5//2
f 13//3 5//3 9//3
f 2//4 6//4 7//4
f 6//5 8//5 7//5
f 3//6 15//6 12//6
f 14//7 8//7 11//7
f 15//8 14//8 12//8
f 3//9 5//9 13//9
f 5//10 3//10 12//10
f 13//11 9//11 6//11
f 6//12 2//12 13//12
f 15//13 4//13 7//13
f 4//14 2//14 1//14
f 2//15 4//15 7//15
f 7//13 10//13 15//13
f 5//16 11//16 8//16
f 8//17 6//17 5//17
f 14//18 7//18 10//18
f 7//19 14//19 8//19
f 3//20 4//20 15//20
f 11//21 12//21 14//21
f 15//22 10//22 14//22
f 13//23 1//23 3//23
f 1//24 4//24 3//24
f 12//25 11//25 5//25
f 2//26 7//26 1//26
f 7//13 10//13 4//13
f 7//13 4//13 1//13
f 8//27 7//27 10//27
f 10//13 15//13 4//13
f 15//28 12//28 4//28
f 12//29 3//29 4//29
f 9//30 8//30 6//30
f 11//31 9//31 5//31
f 11//32 8//32 9//32
f 14//33 8//33 10//33
