# Blender 4.0.0
# www.blender.org
o decimated_mesh
v 0.042580 0.094336 0.007680
v 0.042674 0.094335 0.000013
v 0.041668 0.096771 0.007235
v 0.041091 0.094335 0.000013
v 0.041644 0.096897 0.000013
v 0.000005 0.094335 0.041736
v 0.036795 0.096703 0.021039
v 0.037589 0.094338 0.021675
v 0.000023 0.094399 0.043393
v 0.000005 0.114582 0.017476
v 0.032323 0.105624 0.006004
v 0.027141 0.096770 0.032483
v 0.027987 0.094338 0.033101
v 0.017290 0.114638 0.000013
v 0.015942 0.116717 0.008776
v 0.028199 0.105871 0.016380
v 0.032528 0.105535 0.000013
v 0.014827 0.094338 0.040719
v 0.017795 0.116717 0.003594
v 0.014664 0.096703 0.039792
v 0.000026 0.097350 0.041816
v 0.017958 0.116717 0.000013
v 0.021510 0.105442 0.025165
v 0.000005 0.116717 0.016484
v 0.016388 0.116717 0.000013
v 0.012110 0.116717 0.013543
v 0.011667 0.106011 0.030227
v 0.000007 0.116718 0.018226
v 0.006542 0.116717 0.016929
v 0.000012 0.105700 0.032773
vn 0.8706 0.3828 0.3092
vn 0.5723 0.7930 0.2087
vn 0.6523 0.7210 0.2338
vn 0.6878 0.7258 0.0127
vn 0.1099 0.7923 0.6001
vn 0.3153 0.7948 0.5185
vn 0.9356 0.3528 0.0114
vn -0.0002 1.0000 -0.0002
vn 0.7033 0.3951 0.5910
vn 0.6750 0.3110 0.6691
vn 0.3447 0.7260 0.5951
vn 0.5454 0.6435 0.5371
vn 0.4707 0.7971 0.3783
vn 0.1414 0.4666 0.8731
vn 0.5304 0.7226 0.4432
vn 0.5346 0.7202 0.4421
vn -0.0000 1.0000 -0.0002
vn -0.0000 1.0000 -0.0000
vn -0.0001 1.0000 -0.0000
vn -1.0000 0.0017 0.0014
vn -0.9999 0.0065 0.0109
vn -0.9999 0.0066 0.0077
vn -1.0000 0.0008 0.0009
vn -1.0000 0.0006 0.0014
vn 0.8726 0.3766 0.3111
vn 0.5724 0.7941 0.2046
vn 0.6447 0.7261 0.2391
vn 0.6870 0.7266 0.0105
vn 0.1181 0.7952 0.5948
vn 0.3128 0.7956 0.5189
vn 0.6088 0.7933 0.0090
vn 0.6038 0.7967 0.0275
vn -0.0000 -0.0000 1.0000
vn 0.9278 0.3730 0.0035
vn 0.0002 -1.0000 0.0004
vn 0.0028 -0.9993 0.0386
vn -0.0002 1.0000 -0.0001
vn 0.0003 1.0000 -0.0001
vn 0.1666 0.3701 0.9140
vn 0.6777 0.2941 0.6740
vn 0.4692 0.3504 0.8106
vn 0.4686 0.3674 0.8034
vn 0.1253 0.7290 0.6729
vn 0.1271 0.7305 0.6710
vn 0.3480 0.7240 0.5955
vn 0.5454 0.6394 0.5419
vn 0.4654 0.7931 0.3930
vn 0.0005 1.0000 -0.0000
vn 0.6869 0.7267 0.0127
vn 0.6878 0.7258 0.0105
vn -1.0000 0.0021 0.0019
vn -1.0000 0.0016 0.0014
vn -1.0000 -0.0000 -0.0000
vn 0.5320 0.7206 0.4446
vn 0.5323 0.7230 0.4405
vn 0.3471 0.7261 0.5935
vn 0.3456 0.7243 0.5966
vn 0.0001 1.0000 0.0001
vn 0.3147 0.7957 0.5175
vn 0.3130 0.7951 0.5195
s 0
f 1//1 3//1 7//1
f 11//2 15//2 16//2
f 7//3 3//3 11//3
f 11//4 5//4 17//4
f 27//5 28//5 30//5
f 26//6 29//6 27//6
f 2//7 3//7 1//7
f 8//8 4//8 13//8
f 7//9 13//9 8//9
f 24//10 10//10 14//10
f 20//11 12//11 23//11
f 10//12 6//12 4//12
f 26//13 16//13 15//13
f 20//14 21//14 9//14
f 7//15 16//15 12//15
f 12//16 16//16 23//16
f 28//17 29//17 24//17
f 29//18 26//18 24//18
f 26//19 15//19 25//19
f 15//18 19//18 25//18
f 19//18 22//18 25//18
f 25//18 24//18 26//18
f 10//20 6//20 30//20
f 21//21 6//21 9//21
f 21//22 30//22 6//22
f 30//23 28//23 10//23
f 24//24 10//24 28//24
f 8//25 1//25 7//25
f 11//26 19//26 15//26
f 11//27 16//27 7//27
f 11//28 3//28 5//28
f 27//29 29//29 28//29
f 23//30 26//30 27//30
f 17//31 22//31 11//31
f 22//32 19//32 11//32
f 2//33 5//33 4//33
f 4//33 17//33 14//33
f 14//33 22//33 25//33
f 22//33 14//33 17//33
f 17//33 4//33 5//33
f 2//34 5//34 3//34
f 13//35 18//35 6//35
f 18//36 9//36 6//36
f 6//37 13//37 4//37
f 4//18 1//18 2//18
f 1//38 4//38 8//38
f 7//9 12//9 13//9
f 18//39 20//39 9//39
f 24//40 14//40 25//40
f 18//41 13//41 20//41
f 13//42 12//42 20//42
f 21//43 20//43 30//43
f 27//44 30//44 20//44
f 23//45 27//45 20//45
f 10//46 4//46 14//46
f 26//47 23//47 16//47
f 4//33 25//33 14//33
f 4//33 22//33 25//33
f 4//33 17//33 22//33
f 4//33 2//33 17//33
f 17//33 2//33 5//33
f 1//48 2//48 8//48
f 8//8 2//8 13//8
f 13//8 2//8 6//8
f 6//18 2//18 4//18
f 11//49 3//49 17//49
f 3//50 5//50 17//50
f 7//9 12//9 8//9
f 12//9 13//9 8//9
f 30//51 28//51 6//51
f 28//52 24//52 6//52
f 24//53 10//53 6//53
f 25//18 28//18 22//18
f 28//18 19//18 22//18
f 23//54 12//54 7//54
f 16//55 23//55 7//55
f 23//56 27//56 12//56
f 27//57 20//57 12//57
f 29//58 26//58 28//58
f 26//58 15//58 28//58
f 15//18 19//18 28//18
f 25//8 24//8 28//8
f 26//59 29//59 23//59
f 29//60 27//60 23//60
