# Blender 4.0.0
# www.blender.org
o decimated_mesh
v -0.027490 -0.008036 -0.035340
v -0.027490 -0.008036 -0.032285
v -0.027490 -0.007044 -0.036020
v -0.000329 -0.008036 -0.042552
v -0.000004 0.090393 -0.043172
v -0.027474 0.090393 -0.033185
v -0.000343 -0.008035 -0.044941
v -0.000023 0.090392 -0.044822
v -0.027474 0.090393 -0.035191
v -0.015951 -0.005906 -0.043168
v -0.015057 -0.007082 -0.042870
v -0.027474 0.086995 -0.036583
v -0.014760 -0.004662 -0.043703
v -0.015996 -0.008032 -0.041979
v -0.000328 -0.005984 -0.045963
v -0.000342 -0.004362 -0.046201
v -0.000008 0.086950 -0.046088
v -0.027489 -0.004701 -0.036770
v -0.016344 -0.004617 -0.043218
v -0.000871 0.085804 -0.046162
v -0.015650 0.090392 -0.041986
v -0.015986 0.086959 -0.043231
v -0.015026 0.086010 -0.043641
vn 0.0004 -1.0000 -0.0000
vn -0.1672 0.3507 -0.9214
vn -0.1695 0.1899 -0.9671
vn -0.1498 -0.5936 -0.7907
vn -0.4700 0.3415 -0.8139
vn -0.3914 0.0014 -0.9202
vn -0.1719 -0.2463 -0.9538
vn -0.0000 1.0000 -0.0001
vn -0.3417 -0.0048 -0.9398
vn -0.5040 -0.1867 -0.8433
vn -0.0003 -1.0000 -0.0003
vn -0.0003 -1.0000 -0.0008
vn 0.0839 0.0009 -0.9965
vn -0.2940 -0.1266 -0.9474
vn -0.1653 0.3400 -0.9258
vn -0.1707 0.2399 -0.9557
vn -0.1753 0.0002 -0.9845
vn -0.1707 -0.0006 -0.9853
vn -0.4695 0.3348 -0.8170
vn -0.2930 -0.0002 -0.9561
vn -0.3245 -0.4564 -0.8285
vn -0.1660 -0.1444 -0.9755
vn -1.0000 0.0002 -0.0000
vn -1.0000 0.0003 -0.0000
vn -1.0000 0.0002 -0.0002
vn -1.0000 -0.0000 -0.0000
vn -1.0000 0.0002 -0.0001
vn -0.0001 1.0000 -0.0005
vn -0.0000 1.0000 -0.0000
vn -0.3536 -0.0085 -0.9354
vn 0.9999 0.0096 0.0061
vn 1.0000 -0.0036 -0.0072
vn 0.9999 0.0088 -0.0120
vn 1.0000 -0.0033 0.0022
vn 0.9999 -0.0101 -0.0057
vn -0.4299 -0.5106 -0.7446
vn -0.1531 -0.4397 -0.8850
vn -0.1661 -0.3589 -0.9185
vn -0.4810 -0.2674 -0.8350
vn -0.4444 -0.4300 -0.7859
vn -0.5009 0.0019 -0.8655
vn -0.5007 0.0018 -0.8656
vn -1.0000 0.0001 -0.0003
vn -0.0003 -1.0000 -0.0012
vn -0.0000 -1.0000 -0.0000
vn -0.3536 -0.0047 -0.9354
vn -0.3417 -0.0085 -0.9398
vn -0.0000 1.0000 -0.0002
vn -0.4682 0.3416 -0.8149
vn -0.4713 0.3344 -0.8161
vn -1.0000 0.0002 -0.0005
vn -0.4885 -0.2661 -0.8310
vn -0.4912 -0.1831 -0.8516
vn 1.0000 -0.0034 -0.0017
vn 0.9965 -0.0035 -0.0833
s 0
f 2//1 1//1 14//1
f 8//2 22//2 21//2
f 20//3 23//3 17//3
f 14//4 11//4 7//4
f 12//5 21//5 22//5
f 22//6 23//6 19//6
f 15//7 10//7 13//7
f 6//8 5//8 21//8
f 6//9 5//9 4//9
f 19//10 10//10 3//10
f 14//11 7//11 4//11
f 4//12 2//12 14//12
f 20//13 17//13 16//13
f 10//14 19//14 13//14
f 8//15 17//15 22//15
f 22//16 17//16 23//16
f 13//17 23//17 20//17
f 20//18 16//18 13//18
f 12//19 9//19 21//19
f 23//20 13//20 19//20
f 10//21 11//21 14//21
f 13//22 16//22 15//22
f 18//23 3//23 2//23
f 3//24 1//24 2//24
f 2//25 6//25 12//25
f 6//26 9//26 12//26
f 12//27 18//27 2//27
f 8//28 21//28 5//28
f 21//29 9//29 6//29
f 6//30 4//30 2//30
f 15//31 16//31 4//31
f 16//32 17//32 4//32
f 17//33 8//33 5//33
f 5//34 4//34 17//34
f 4//35 7//35 15//35
f 14//36 1//36 3//36
f 7//37 11//37 15//37
f 11//38 10//38 15//38
f 3//39 18//39 19//39
f 3//40 10//40 14//40
f 12//41 22//41 18//41
f 22//42 19//42 18//42
f 2//23 6//23 9//23
f 2//23 9//23 1//23
f 9//25 18//25 1//25
f 18//43 3//43 1//43
f 14//44 4//44 1//44
f 4//45 2//45 1//45
f 4//46 2//46 5//46
f 5//47 2//47 6//47
f 6//29 5//29 9//29
f 5//48 21//48 9//48
f 21//49 22//49 9//49
f 22//50 12//50 9//50
f 12//51 18//51 9//51
f 10//52 3//52 18//52
f 19//53 10//53 18//53
f 15//54 17//54 4//54
f 16//55 17//55 15//55
