# Blender 4.0.0
# www.blender.org
o decimated_mesh
v 0.044120 0.090403 0.000007
v 0.042157 0.090406 0.000007
v 0.027494 0.090406 -0.033163
v 0.045254 0.087364 0.000007
v 0.043924 0.090405 -0.008479
v 0.027494 0.090406 -0.035171
v 0.027264 -0.003822 -0.035098
v 0.042310 -0.000054 0.000008
v 0.044976 0.087864 -0.008333
v 0.027475 0.086499 -0.036740
v 0.027682 0.001337 -0.036651
v 0.045260 0.086323 -0.008618
v 0.028725 0.090406 -0.034453
v 0.029075 0.086355 -0.035801
v 0.030082 -0.003830 -0.035066
v 0.043782 -0.003829 0.000007
v 0.030522 0.086469 -0.034525
v 0.045278 -0.003829 0.000007
v 0.040198 0.086315 -0.022848
v 0.038737 0.087288 -0.024392
v 0.045268 -0.003829 -0.008746
v 0.038738 0.090405 -0.022542
v 0.040185 -0.003829 -0.022984
vn -0.0000 -0.0000 1.0000
vn 0.7806 0.3189 -0.5375
vn 0.9369 0.3494 -0.0103
vn 0.8825 0.3394 -0.3255
vn 0.9825 0.1852 -0.0217
vn 0.8533 0.3327 -0.4014
vn -1.0000 0.0024 0.0029
vn 0.9170 0.2295 -0.3263
vn 0.0100 -0.2889 -0.9573
vn 1.0000 0.0003 0.0007
vn 0.7671 0.0001 -0.6415
vn 0.7628 0.1452 -0.6302
vn 0.9418 0.0006 -0.3362
vn 0.0012 1.0000 0.0001
vn 0.7174 0.3384 -0.6090
vn 0.0001 -0.0000 1.0000
vn -0.0000 -0.0001 1.0000
vn -0.0000 -1.0000 -0.0000
vn -0.0006 -1.0000 0.0001
vn -0.0027 -1.0000 0.0024
vn 0.5013 0.3119 -0.8071
vn 0.4766 0.3254 -0.8167
vn 0.9242 0.3813 -0.0213
vn 0.8799 0.3453 -0.3265
vn -1.0000 0.0051 -0.0000
vn 1.0000 0.0001 -0.0011
vn 0.7700 0.0009 -0.6380
vn 0.9422 0.0004 -0.3352
vn 0.6189 0.2956 -0.7277
vn 0.6616 0.0013 -0.7499
vn -0.9633 -0.0026 -0.2684
vn 0.9146 0.0061 -0.4043
vn 0.9191 0.0016 -0.3941
vn 0.0002 1.0000 -0.0001
vn 0.0001 1.0000 -0.0000
vn 0.0002 1.0000 -0.0000
vn 0.7152 0.3566 -0.6011
vn 0.5058 -0.0014 -0.8627
vn 0.5518 0.0005 -0.8340
vn 0.0002 -0.0000 1.0000
vn -0.0002 1.0000 0.0002
vn 0.0012 1.0000 -0.0005
vn 0.9146 0.0015 -0.4043
vn 0.8804 0.3457 -0.3247
vn 0.8821 0.3394 -0.3266
vn 0.9189 0.0059 -0.3945
vn 0.0001 -1.0000 -0.0000
vn 0.9422 0.0006 -0.3352
vn 0.9418 0.0004 -0.3362
vn 0.5059 0.0003 -0.8626
vn -0.0027 -1.0000 0.0011
vn 0.5501 -0.0007 -0.8351
vn 0.0002 -1.0000 -0.0001
s 0
f 18//1 4//1 2//1
f 19//2 20//2 22//2
f 1//3 4//3 9//3
f 19//4 22//4 5//4
f 4//5 12//5 9//5
f 16//6 7//6 8//6
f 10//7 7//7 3//7
f 9//8 12//8 19//8
f 11//9 15//9 7//9
f 18//10 12//10 4//10
f 23//11 15//11 17//11
f 20//12 19//12 17//12
f 12//13 21//13 23//13
f 2//14 1//14 5//14
f 20//15 17//15 13//15
f 4//1 1//1 2//1
f 2//16 8//16 18//16
f 8//17 16//17 18//17
f 21//18 18//18 16//18
f 16//19 7//19 23//19
f 23//20 7//20 15//20
f 23//18 21//18 16//18
f 14//21 10//21 13//21
f 10//22 6//22 13//22
f 9//23 5//23 1//23
f 9//24 19//24 5//24
f 6//25 10//25 3//25
f 18//26 21//26 12//26
f 19//27 23//27 17//27
f 23//28 19//28 12//28
f 14//29 13//29 17//29
f 15//30 14//30 17//30
f 10//31 11//31 7//31
f 3//32 2//32 7//32
f 2//33 8//33 7//33
f 5//34 22//34 2//34
f 22//35 13//35 3//35
f 13//36 6//36 3//36
f 3//34 2//34 22//34
f 13//37 22//37 20//37
f 14//38 15//38 10//38
f 15//39 11//39 10//39
f 2//40 8//40 16//40
f 2//1 16//1 18//1
f 5//41 6//41 1//41
f 6//36 3//36 1//36
f 3//42 2//42 1//42
f 3//43 2//43 8//43
f 22//44 5//44 9//44
f 19//45 22//45 9//45
f 22//34 6//34 5//34
f 22//34 13//34 6//34
f 7//46 3//46 8//46
f 16//18 15//18 18//18
f 15//47 21//47 18//47
f 21//48 19//48 12//48
f 21//49 23//49 19//49
f 14//50 11//50 10//50
f 15//51 16//51 7//51
f 11//52 14//52 15//52
f 23//53 21//53 15//53
