# Blender 4.0.0
# www.blender.org
o decimated_mesh
v -0.012368 0.113030 0.017512
v -0.012368 0.110940 0.017512
v -0.012368 0.118739 0.012100
v -0.027347 0.105865 0.017513
v -0.038932 0.090408 0.017512
v -0.038926 0.090410 -0.017526
v -0.018392 0.108221 -0.017526
v -0.012336 0.118678 0.009461
v -0.016209 0.118815 0.006459
v -0.040659 0.090408 0.017512
v -0.040646 0.090410 -0.017526
v -0.018392 0.109970 -0.017526
v -0.015638 0.118739 0.000003
v -0.017014 0.118856 0.000003
v -0.028572 0.105189 -0.017503
v -0.044001 0.090411 -0.008108
v -0.043994 0.090408 0.008133
v -0.041513 0.096979 -0.007327
v -0.041606 0.096921 0.007191
v -0.038093 0.096684 -0.017524
v -0.038058 0.096751 0.017511
vn -0.0000 0.0002 1.0000
vn 1.0000 -0.0000 0.0039
vn 0.8896 0.3370 -0.3084
vn -0.5258 0.7667 0.3684
vn -0.6315 0.7402 0.2310
vn 0.0754 0.8870 -0.4556
vn -0.9389 0.3443 0.0005
vn 0.0416 0.9991 -0.0081
vn -0.8780 0.3664 0.3079
vn -0.0035 0.0040 -1.0000
vn -0.3920 0.8326 -0.3912
vn -0.6552 0.7554 -0.0001
vn -0.3126 0.6535 0.6894
vn 0.9741 -0.1649 -0.1547
vn -0.0000 -0.0000 1.0000
vn 0.0001 -0.0001 1.0000
vn -0.0003 0.0002 1.0000
vn 0.9999 0.0110 0.0116
vn -0.6308 0.7413 0.2291
vn -0.6491 0.7558 0.0856
vn -0.6658 0.7461 -0.0013
vn -0.9350 0.3547 -0.0046
vn 0.0848 0.9964 -0.0043
vn 0.0527 0.9984 -0.0224
vn -0.0000 1.0000 -0.0000
vn -0.0003 1.0000 0.0002
vn 0.0002 1.0000 0.0001
vn -0.8789 0.3604 0.3126
vn -0.0000 0.0003 -1.0000
vn 0.0022 0.0001 -1.0000
vn -0.0023 -0.0000 -1.0000
vn -0.8796 0.3580 -0.3133
vn -0.8780 0.3688 -0.3051
vn -0.6110 0.7904 0.0437
vn 0.9757 -0.0000 -0.2190
vn -0.6244 0.7599 -0.1810
vn -0.6468 0.7247 -0.2378
vn 0.0847 0.9961 -0.0232
vn 0.0824 0.9964 -0.0220
vn 0.0129 0.9999 0.0047
vn -0.6116 0.7912 -0.0000
vn -0.6543 0.7543 0.0540
vn -0.0000 -0.0000 -1.0000
vn -0.0072 0.0106 -0.9999
vn -0.0005 0.0005 -1.0000
vn -0.0005 0.0004 1.0000
vn -0.6302 0.7407 0.2328
vn -0.6317 0.7405 0.2294
vn -0.0000 1.0000 0.0001
vn -0.0002 1.0000 0.0001
vn 0.0006 1.0000 0.0002
s 0
f 21//1 10//1 5//1
f 1//2 2//2 8//2
f 8//3 12//3 13//3
f 9//4 4//4 3//4
f 9//5 19//5 4//5
f 12//6 14//6 13//6
f 19//7 16//7 17//7
f 13//8 9//8 8//8
f 17//9 21//9 19//9
f 7//10 6//10 15//10
f 12//11 15//11 14//11
f 7//12 6//12 5//12
f 3//13 4//13 1//13
f 7//14 8//14 2//14
f 1//15 4//15 2//15
f 2//16 4//16 5//16
f 4//17 21//17 5//17
f 3//18 1//18 8//18
f 21//19 4//19 19//19
f 9//20 14//20 19//20
f 14//21 18//21 19//21
f 19//22 18//22 16//22
f 14//23 9//23 13//23
f 9//24 3//24 8//24
f 10//25 5//25 17//25
f 17//26 5//26 16//26
f 16//25 6//25 11//25
f 6//27 16//27 5//27
f 17//28 10//28 21//28
f 11//29 20//29 6//29
f 20//30 15//30 6//30
f 15//31 12//31 7//31
f 11//32 16//32 20//32
f 20//33 16//33 18//33
f 7//34 5//34 2//34
f 8//35 7//35 12//35
f 18//36 14//36 15//36
f 15//37 20//37 18//37
f 13//38 14//38 8//38
f 14//39 3//39 8//39
f 14//40 9//40 3//40
f 5//41 2//41 6//41
f 6//42 2//42 7//42
f 6//43 11//43 12//43
f 6//43 12//43 7//43
f 20//44 15//44 12//44
f 11//45 20//45 12//45
f 21//46 10//46 4//46
f 10//15 5//15 4//15
f 9//47 21//47 4//47
f 19//48 21//48 9//48
f 10//49 6//49 11//49
f 10//49 5//49 6//49
f 10//50 11//50 17//50
f 17//51 11//51 16//51
