# Blender 4.0.0
# www.blender.org
o decimated_mesh
v 0.000010 0.090406 -0.044797
v -0.000004 0.090406 -0.043172
v 0.038924 0.090409 -0.017528
v -0.000004 0.114949 -0.017250
v 0.040651 0.090409 -0.017528
v 0.018386 0.110313 -0.012434
v 0.000016 0.095258 -0.042997
v 0.012299 0.114464 -0.012433
v 0.015607 0.090405 -0.042005
v 0.028707 0.090408 -0.034466
v 0.038747 0.090409 -0.022490
v 0.018386 0.112395 -0.012434
v 0.027260 0.095901 -0.032992
v 0.038440 0.095977 -0.017538
v 0.037525 0.097370 -0.017569
v 0.012310 0.118115 -0.012455
v 0.000003 0.097424 -0.041716
v -0.000004 0.118099 -0.015974
v 0.014462 0.096002 -0.040219
v 0.027140 0.097244 -0.031956
v 0.037174 0.095762 -0.021327
v 0.029868 0.104022 -0.017559
v 0.000004 0.118205 -0.017584
v 0.009830 0.118099 -0.012434
v 0.021865 0.105020 -0.025516
v 0.014354 0.097205 -0.039437
v 0.035852 0.097324 -0.021506
v 0.006002 0.118099 -0.016551
vn -1.0000 0.0011 -0.0011
vn -0.0000 -0.2480 0.9688
vn 0.2230 -0.0000 0.9748
vn 0.4792 0.3329 0.8121
vn 0.4980 0.7670 -0.4047
vn 0.7405 0.5901 -0.3217
vn 0.6314 0.6721 0.3869
vn -0.4125 -0.6615 0.6263
vn -0.0063 1.0000 0.0059
vn -0.3344 -0.4905 0.8047
vn 0.4230 0.5202 -0.7419
vn 0.1656 0.3429 -0.9247
vn 0.6464 0.7438 0.1700
vn 0.3416 0.7769 -0.5290
vn -0.0085 -0.0059 -0.9999
vn -0.3302 -0.2241 0.9169
vn 0.3510 0.1410 0.9257
vn -1.0000 0.0022 -0.0047
vn -1.0000 0.0024 -0.0020
vn -0.9998 0.0047 -0.0185
vn -1.0000 0.0044 -0.0086
vn 0.8824 0.3498 -0.3147
vn 0.8806 0.3322 -0.3379
vn 0.5236 0.7283 -0.4421
vn 0.5292 0.7246 -0.4414
vn 0.0063 0.9978 0.0657
vn -0.0000 1.0000 -0.0000
vn 0.0001 1.0000 -0.0005
vn -0.0001 1.0000 0.0001
vn -0.0000 1.0000 0.0001
vn -0.0001 1.0000 -0.0000
vn -0.0000 1.0000 0.0002
vn 0.8012 0.5194 -0.2971
vn 0.6301 0.7257 -0.2763
vn 0.4620 0.3540 -0.8132
vn 0.4687 0.3420 -0.8145
vn -0.3383 -0.5454 0.7669
vn 0.4101 0.5798 -0.7040
vn 0.1144 0.7528 -0.6482
vn 0.1241 0.7549 -0.6439
vn 0.1619 0.3299 -0.9300
vn -0.3533 -0.3509 0.8672
vn 0.7199 0.3427 -0.6035
vn 0.7157 0.3507 -0.6040
vn 0.6640 0.4984 -0.5574
vn 0.6663 0.4919 -0.5604
vn 0.3454 0.7264 -0.5941
vn 0.2942 0.7569 -0.5836
vn 0.0001 -0.0000 1.0000
vn -0.0021 -0.0059 -1.0000
vn 0.1306 0.5485 -0.8259
vn 0.1429 0.5045 -0.8515
vn -1.0000 0.0027 -0.0086
vn -0.9993 0.0137 -0.0336
vn 0.1603 0.3432 -0.9255
vn 0.1663 0.3305 -0.9290
vn 0.0001 1.0000 -0.0002
vn 0.1393 0.5484 -0.8245
vn 0.1379 0.5048 -0.8521
vn -1.0000 0.0006 -0.0007
vn -1.0000 0.0052 -0.0045
vn -0.0003 1.0000 0.0002
vn -0.0000 1.0000 -0.0002
vn -0.0236 0.9976 0.0655
vn -0.0061 0.9995 0.0321
vn 0.0249 0.9988 -0.0421
vn -0.0002 -0.0003 -1.0000
vn -0.0084 -0.0127 -0.9999
vn 0.5265 0.7285 -0.4382
vn 0.5263 0.7250 -0.4443
s 0
f 2//1 4//1 17//1
f 3//2 5//2 6//2
f 5//3 12//3 6//3
f 14//4 15//4 12//4
f 16//5 22//5 25//5
f 21//6 27//6 15//6
f 12//7 15//7 16//7
f 3//8 4//8 2//8
f 16//9 28//9 24//9
f 4//10 6//10 8//10
f 26//11 13//11 19//11
f 7//12 9//12 1//12
f 22//13 16//13 15//13
f 28//14 16//14 25//14
f 16//15 8//15 24//15
f 24//16 18//16 8//16
f 5//17 14//17 12//17
f 4//18 18//18 23//18
f 23//19 17//19 4//19
f 17//20 7//20 2//20
f 7//21 1//21 2//21
f 14//22 5//22 21//22
f 5//23 11//23 21//23
f 22//24 27//24 20//24
f 20//25 25//25 22//25
f 28//26 23//26 18//26
f 18//27 24//27 28//27
f 9//28 2//28 10//28
f 10//29 3//29 11//29
f 11//30 3//30 5//30
f 3//31 10//31 2//31
f 9//32 1//32 2//32
f 14//33 21//33 15//33
f 15//34 27//34 22//34
f 19//35 13//35 9//35
f 10//36 9//36 13//36
f 4//37 3//37 6//37
f 26//38 20//38 13//38
f 26//39 17//39 23//39
f 23//40 28//40 26//40
f 19//41 9//41 7//41
f 8//42 18//42 4//42
f 11//43 10//43 21//43
f 10//44 13//44 21//44
f 27//45 21//45 20//45
f 21//46 13//46 20//46
f 26//47 25//47 20//47
f 26//48 28//48 25//48
f 8//49 6//49 12//49
f 12//50 8//50 16//50
f 19//51 7//51 26//51
f 7//52 17//52 26//52
f 2//53 17//53 1//53
f 17//54 7//54 1//54
f 7//55 19//55 1//55
f 19//56 9//56 1//56
f 9//57 2//57 3//57
f 26//58 19//58 17//58
f 19//59 7//59 17//59
f 4//60 18//60 17//60
f 18//61 23//61 17//61
f 10//62 9//62 11//62
f 11//62 9//62 5//62
f 5//63 9//63 3//63
f 18//64 24//64 23//64
f 24//65 16//65 23//65
f 16//66 28//66 23//66
f 12//67 8//67 24//67
f 12//68 24//68 16//68
f 22//69 27//69 25//69
f 27//70 20//70 25//70
