# Blender 4.0.0
# www.blender.org
o decimated_mesh
v 0.000212 0.001331 0.044771
v 0.000004 0.094334 0.041736
v 0.027704 0.001331 0.034767
v 0.000225 0.001331 0.046225
v 0.028427 0.094333 0.030046
v 0.000008 0.087096 0.046062
v 0.000018 0.094334 0.043333
v 0.027704 0.001331 0.036638
v 0.000930 0.085882 0.046145
v 0.028403 0.094328 0.032817
v 0.015788 0.086709 0.043373
v 0.015749 0.001331 0.043498
v 0.016397 0.085436 0.043219
v 0.028426 0.086722 0.036100
v 0.015023 0.094334 0.040678
vn -0.0000 -1.0000 -0.0000
vn 0.1694 0.1941 0.9662
vn 0.1660 0.3434 0.9244
vn 0.3418 0.0314 0.9393
vn -1.0000 -0.0023 -0.0028
vn 0.1730 -0.0005 0.9849
vn 0.0001 1.0000 0.0002
vn 0.0017 1.0000 0.0021
vn -0.0000 1.0000 -0.0000
vn -0.0869 0.0017 0.9962
vn 0.4977 -0.0010 0.8674
vn 0.5092 0.0011 0.8606
vn 0.1634 0.3479 0.9232
vn 0.2485 0.0013 0.9686
vn 1.0000 -0.0085 -0.0000
vn 0.9999 -0.0083 -0.0103
vn 0.9999 0.0068 0.0086
vn 0.3800 0.0440 0.9239
vn 0.4943 0.1322 0.8592
vn -1.0000 -0.0025 0.0086
vn -0.9999 0.0047 0.0090
vn 0.1833 0.0013 0.9831
vn 0.4696 0.3358 0.8165
vn 0.4746 0.3501 0.8076
vn 0.3802 0.0310 0.9244
vn -0.0000 1.0000 -0.0008
vn 0.0009 1.0000 0.0021
vn 0.3416 0.0450 0.9388
s 0
f 3//1 8//1 12//1
f 11//2 6//2 9//2
f 15//3 6//3 11//3
f 3//4 2//4 1//4
f 2//5 1//5 6//5
f 9//6 4//6 12//6
f 7//7 15//7 2//7
f 15//8 10//8 5//8
f 5//9 2//9 15//9
f 12//1 4//1 1//1
f 1//1 3//1 12//1
f 9//10 6//10 4//10
f 13//11 12//11 8//11
f 8//12 14//12 13//12
f 15//13 7//13 6//13
f 11//14 12//14 13//14
f 14//15 8//15 3//15
f 3//16 5//16 14//16
f 10//17 14//17 5//17
f 5//18 2//18 3//18
f 14//19 11//19 13//19
f 4//20 6//20 1//20
f 6//21 7//21 2//21
f 12//22 11//22 9//22
f 15//23 11//23 14//23
f 14//24 10//24 15//24
f 5//25 2//25 1//25
f 15//26 10//26 2//26
f 10//27 5//27 2//27
f 3//28 5//28 1//28
