# Blender 4.0.0
# www.blender.org
o decimated_mesh
v -0.000047 0.118315 0.017502
v 0.000002 0.114614 0.017512
v -0.038932 0.090409 0.017512
v -0.011664 0.106008 0.030232
v -0.005224 0.116504 0.017512
v 0.000002 0.090409 0.043173
v -0.040659 0.090409 0.017512
v -0.021408 0.105910 0.024511
v -0.000022 0.090408 0.044810
v -0.014260 0.096538 0.040015
v -0.000009 0.096997 0.042134
v -0.027686 0.105659 0.017509
v -0.027085 0.097285 0.031979
v -0.038759 0.090409 0.022471
v -0.036806 0.096568 0.021194
v -0.027258 0.095902 0.032992
v -0.037795 0.097091 0.017518
v -0.028719 0.090409 0.034451
v -0.015580 0.090409 0.042012
vn 0.9999 0.0039 0.0144
vn -0.0835 0.7534 0.6522
vn -0.2806 0.8052 0.5224
vn -0.5232 0.7280 0.4430
vn -0.4095 0.8479 0.3367
vn -0.1482 0.3724 0.9162
vn 0.4121 -0.6628 -0.6252
vn -0.4688 0.3411 0.8148
vn 1.0000 0.0020 0.0018
vn 0.9999 0.0133 0.0100
vn 0.0020 -0.0013 1.0000
vn -0.0001 -0.0002 1.0000
vn 0.0010 0.0028 1.0000
vn -0.0002 0.0004 1.0000
vn -0.0000 -0.0009 1.0000
vn -0.1236 0.7292 0.6731
vn -0.0000 1.0000 -0.0000
vn 0.0001 1.0000 -0.0001
vn -0.0000 1.0000 -0.0001
vn -0.0000 1.0000 0.0002
vn -0.3067 0.8045 0.5086
vn -0.5394 0.7189 0.4384
vn -0.6221 0.7343 0.2718
vn -0.6613 0.4955 0.5631
vn -0.7173 0.3522 0.6012
vn -0.7182 0.3506 0.6010
vn -0.1666 0.3377 0.9264
vn -0.3493 0.7341 0.5823
vn -0.3382 0.7194 0.6067
vn -0.4566 0.3630 0.8123
vn -0.4115 0.5716 0.7099
vn -0.8796 0.3768 0.2903
vn -0.8757 0.3473 0.3355
vn -0.0017 0.0028 1.0000
vn -0.0000 0.0004 1.0000
vn 0.0003 -0.0000 1.0000
vn 0.0076 -0.0160 0.9998
vn -0.0001 1.0000 0.0002
vn 0.0027 -0.0021 1.0000
vn 0.0001 1.0000 -0.0002
vn -0.7178 0.3506 0.6015
vn -0.7177 0.3522 0.6007
s 0
f 11//1 9//1 6//1
f 11//2 1//2 4//2
f 5//3 4//3 1//3
f 13//4 8//4 12//4
f 5//5 12//5 8//5
f 9//6 11//6 10//6
f 2//7 6//7 3//7
f 19//8 16//8 18//8
f 6//9 2//9 11//9
f 2//10 1//10 11//10
f 17//11 3//11 12//11
f 12//12 2//12 5//12
f 5//13 2//13 1//13
f 2//14 12//14 3//14
f 3//15 17//15 7//15
f 10//16 11//16 4//16
f 19//17 3//17 18//17
f 18//18 3//18 14//18
f 14//19 3//19 7//19
f 3//17 19//17 6//17
f 9//20 6//20 19//20
f 5//21 8//21 4//21
f 12//22 15//22 13//22
f 12//23 17//23 15//23
f 15//24 16//24 13//24
f 14//25 18//25 15//25
f 18//26 16//26 15//26
f 19//27 9//27 10//27
f 4//28 8//28 13//28
f 10//29 4//29 13//29
f 19//30 10//30 16//30
f 10//31 13//31 16//31
f 17//32 7//32 15//32
f 7//33 14//33 15//33
f 2//34 1//34 3//34
f 3//35 1//35 7//35
f 7//36 1//36 12//36
f 12//37 1//37 5//37
f 6//38 3//38 9//38
f 9//17 3//17 7//17
f 9//18 7//18 14//18
f 17//39 7//39 12//39
f 19//40 9//40 18//40
f 18//17 9//17 14//17
f 18//41 16//41 14//41
f 16//42 15//42 14//42
