# Blender 4.0.0
# www.blender.org
o decimated_mesh
v 0.005963 0.133512 -0.015994
v 0.011430 0.133296 -0.012981
v -0.000014 0.133286 -0.017311
v -0.006428 0.133469 -0.015920
v 0.011745 0.133358 -0.012446
v 0.006013 0.132412 -0.016246
v -0.005021 0.132482 -0.016484
v -0.011705 0.133367 -0.012549
v 0.012306 0.118101 -0.012434
v 0.011477 0.118101 -0.013384
v 0.005883 0.118101 -0.016556
v -0.000009 0.118105 -0.017647
v -0.006001 0.118109 -0.016508
v -0.011506 0.118109 -0.013332
v -0.012303 0.118109 -0.012430
vn 0.0002 0.9991 0.0431
vn -0.5386 0.0362 -0.8418
vn 0.2014 0.2277 -0.9527
vn -0.1664 0.0217 -0.9858
vn -0.1977 0.2583 -0.9456
vn 0.0003 1.0000 0.0005
vn 0.1820 0.0197 -0.9831
vn 0.7532 0.0272 -0.6572
vn 0.0002 0.0008 1.0000
vn 0.5131 0.0244 -0.8580
vn -0.0044 0.9886 -0.1503
vn -0.0034 0.9997 0.0250
vn -0.4997 0.0192 -0.8660
vn -0.1867 0.0144 -0.9823
vn -0.7492 0.0242 -0.6619
vn 0.0006 1.0000 -0.0011
vn 0.0006 1.0000 0.0001
vn -0.0000 1.0000 -0.0000
vn -0.0003 -1.0000 0.0004
vn 0.1771 0.0218 -0.9840
vn 0.4777 0.2170 -0.8513
vn 0.8609 0.0162 -0.5085
vn -0.3561 0.0258 -0.9341
vn 0.1492 0.9681 -0.2012
vn -0.0044 0.0080 1.0000
vn 0.4932 0.0144 -0.8698
vn 0.8598 0.0312 -0.5096
vn 0.7534 0.0198 -0.6573
vn 0.0003 1.0000 -0.0005
vn 0.0005 1.0000 0.0004
vn 0.0005 1.0000 0.0006
vn 0.0009 1.0000 0.0017
s 0
f 1//1 8//1 5//1
f 14//2 8//2 4//2
f 1//3 6//3 3//3
f 12//4 7//4 3//4
f 3//5 7//5 4//5
f 10//6 13//6 15//6
f 12//7 6//7 11//7
f 10//8 5//8 9//8
f 15//9 9//9 5//9
f 2//10 10//10 6//10
f 3//11 4//11 1//11
f 1//12 4//12 8//12
f 4//13 13//13 14//13
f 12//14 13//14 7//14
f 14//15 15//15 8//15
f 10//16 11//16 13//16
f 13//17 11//17 12//17
f 14//18 15//18 13//18
f 9//19 15//19 10//19
f 12//20 3//20 6//20
f 6//21 1//21 2//21
f 10//22 2//22 5//22
f 13//23 4//23 7//23
f 2//24 1//24 5//24
f 5//25 8//25 15//25
f 10//26 11//26 6//26
f 9//27 2//27 5//27
f 9//28 10//28 2//28
f 11//29 15//29 10//29
f 14//30 15//30 12//30
f 12//31 15//31 11//31
f 14//32 12//32 13//32
