# Blender 4.0.0
# www.blender.org
o decimated_mesh
v -0.027007 0.051039 0.037041
v -0.027008 -0.004903 0.036997
v -0.028250 0.090416 0.034807
v -0.028241 0.086792 0.036228
v -0.029630 0.085135 0.035468
v -0.028716 -0.005505 0.035939
v -0.028203 0.090406 0.032474
v -0.027007 -0.008036 0.032699
v -0.030549 0.086404 0.034514
v -0.029630 -0.003796 0.035468
v -0.042558 0.090406 0.000015
v -0.041873 -0.008045 0.000007
v -0.038736 0.087293 0.024390
v -0.030448 -0.005331 0.034541
v -0.029076 -0.007993 0.034397
v -0.044092 0.090406 0.000015
v -0.027010 -0.008023 0.035755
v -0.044379 -0.008045 0.000007
v -0.040215 0.086306 0.022817
v -0.039047 -0.006044 0.023950
v -0.044376 -0.008028 0.007340
v -0.044860 -0.007302 0.000007
v -0.038724 0.090405 0.022557
v -0.040126 -0.004849 0.023011
v -0.038745 -0.008030 0.022882
v -0.044956 0.088280 0.007601
v -0.045352 -0.005231 0.000007
v -0.045240 0.087657 0.000015
v -0.044694 -0.007324 0.008045
v -0.045185 0.086775 0.008686
v -0.039929 -0.007193 0.021549
v -0.044012 0.090405 0.008158
v -0.044518 -0.006060 0.010172
v -0.045257 -0.005027 0.008617
vn 0.9728 0.2312 -0.0162
vn -0.9140 0.4058 0.0009
vn -0.7093 0.3598 0.6061
vn 0.4065 0.3377 -0.8490
vn 0.5073 0.3998 -0.7634
vn -1.0000 -0.0000 -0.0002
vn 0.7659 0.0007 -0.6429
vn -1.0000 0.0008 0.0064
vn 0.7006 0.3934 -0.5953
vn 0.7493 0.0006 -0.6623
vn 0.9434 -0.0005 -0.3318
vn 0.7474 0.6072 -0.2696
vn 0.8859 -0.3332 -0.3226
vn -0.9145 -0.0064 0.4045
vn 0.6056 -0.1489 -0.7817
vn 0.8987 0.2840 -0.3342
vn 0.5144 -0.0000 -0.8576
vn 0.9699 0.2427 -0.0194
vn -0.9227 0.3854 0.0091
vn -0.0000 1.0000 0.0001
vn -0.0002 1.0000 0.0001
vn 0.0037 1.0000 -0.0041
vn 0.7638 -0.1408 -0.6300
vn 0.6308 0.1262 -0.7656
vn -0.7090 0.3623 0.6051
vn -1.0000 0.0009 -0.0008
vn -0.9873 -0.0116 0.1582
vn -0.9993 -0.0327 -0.0200
vn 0.7821 -0.3185 -0.5356
vn 0.7974 0.3752 -0.4727
vn 0.8064 0.3603 -0.4689
vn 0.8398 0.5429 -0.0017
vn 0.9047 0.4257 -0.0176
vn 0.7558 0.1909 -0.6264
vn 0.9248 0.2886 -0.2479
vn 0.7709 -0.0006 -0.6370
vn -0.0001 -0.0001 1.0000
vn -0.0000 0.0001 1.0000
vn 0.0002 -0.0001 1.0000
vn -0.0000 0.0002 1.0000
vn -0.9956 -0.0363 -0.0865
vn -0.9999 0.0012 0.0110
vn 0.6945 0.4197 -0.5845
vn 0.7201 -0.0000 -0.6938
vn 0.9857 -0.1669 -0.0232
vn 0.9419 0.0002 -0.3358
vn -0.0000 -1.0000 0.0024
vn -0.0012 -1.0000 0.0008
vn -0.0037 -1.0000 0.0012
vn -0.0173 -0.9998 0.0042
vn -0.0107 -0.9999 0.0122
vn 0.7387 0.6187 -0.2675
vn 0.8822 -0.3415 -0.3240
vn 0.9045 -0.3314 -0.2684
vn 0.8634 0.3992 -0.3085
vn -0.9103 -0.0101 0.4139
vn 0.6090 0.3524 -0.7106
vn 0.6015 -0.2905 -0.7442
vn 0.9287 0.1632 -0.3330
vn 0.5157 0.0398 -0.8559
vn 0.5038 0.0007 -0.8638
vn 0.4831 -0.0032 -0.8756
vn 0.0089 1.0000 -0.0039
vn -0.9145 -0.0102 0.4045
vn -0.0000 1.0000 -0.0003
vn -0.0016 1.0000 0.0004
vn -0.7086 0.3620 0.6056
vn -0.0040 -1.0000 0.0042
vn -0.0013 -1.0000 0.0010
vn -0.0000 -1.0000 0.0003
vn -0.9103 -0.0064 0.4139
vn -0.0000 -0.0001 1.0000
vn 0.0005 -0.0001 1.0000
vn -0.9227 0.3854 0.0029
vn -0.9147 0.4040 0.0090
vn -0.7099 0.3595 0.6056
vn -0.0372 -0.9987 0.0344
vn -0.0071 -1.0000 0.0024
vn -1.0000 0.0012 0.0065
vn -0.9999 0.0008 0.0110
s 0
f 22//1 27//1 34//1
f 32//2 28//2 26//2
f 3//3 23//3 13//3
f 2//4 17//4 6//4
f 6//5 17//5 15//5
f 1//6 8//6 2//6
f 14//7 24//7 9//7
f 28//8 34//8 30//8
f 15//9 20//9 14//9
f 10//10 14//10 9//10
f 30//11 19//11 34//11
f 29//12 31//12 21//12
f 32//13 19//13 30//13
f 7//14 11//14 12//14
f 9//15 4//15 5//15
f 24//16 31//16 33//16
f 5//17 1//17 10//17
f 22//18 34//18 29//18
f 32//19 16//19 28//19
f 11//20 16//20 32//20
f 32//20 23//20 11//20
f 11//21 23//21 7//21
f 23//22 3//22 7//22
f 13//23 9//23 19//23
f 14//24 10//24 6//24
f 13//25 9//25 3//25
f 2//26 8//26 17//26
f 8//27 1//27 7//27
f 7//28 1//28 3//28
f 13//29 19//29 23//29
f 31//30 20//30 25//30
f 20//31 31//31 24//31
f 22//32 21//32 18//32
f 29//33 21//33 22//33
f 24//34 14//34 20//34
f 29//35 34//35 33//35
f 19//36 9//36 24//36
f 22//37 12//37 27//37
f 27//37 12//37 28//37
f 28//38 11//38 16//38
f 11//39 28//39 12//39
f 12//40 22//40 18//40
f 4//41 3//41 1//41
f 28//42 27//42 34//42
f 25//43 20//43 15//43
f 10//44 9//44 5//44
f 28//45 26//45 30//45
f 24//46 34//46 19//46
f 18//47 12//47 21//47
f 12//48 8//48 25//48
f 21//49 12//49 25//49
f 17//50 15//50 8//50
f 15//51 25//51 8//51
f 21//52 31//52 25//52
f 19//53 32//53 23//53
f 32//54 30//54 26//54
f 33//55 31//55 29//55
f 7//56 12//56 8//56
f 6//57 15//57 14//57
f 3//58 4//58 9//58
f 24//59 33//59 34//59
f 10//60 2//60 6//60
f 2//61 10//61 1//61
f 1//62 5//62 4//62
f 11//63 3//63 7//63
f 8//64 7//64 11//64
f 11//65 16//65 3//65
f 16//66 23//66 3//66
f 23//67 9//67 3//67
f 17//68 25//68 8//68
f 25//69 18//69 8//69
f 18//70 12//70 8//70
f 12//71 8//71 11//71
f 12//37 11//37 22//37
f 22//72 11//72 16//72
f 22//73 16//73 28//73
f 28//74 26//74 16//74
f 26//75 32//75 16//75
f 32//20 23//20 16//20
f 13//76 9//76 23//76
f 15//77 25//77 17//77
f 21//78 18//78 25//78
f 27//37 22//37 28//37
f 27//79 30//79 28//79
f 34//80 30//80 27//80
