# Blender 4.0.0
# www.blender.org
o decimated_mesh
v 0.028001 0.051045 0.036666
v 0.027710 0.051045 0.034766
v 0.027690 0.001331 0.036144
v 0.038853 0.051045 0.023895
v 0.038853 0.001331 0.023902
v 0.032561 0.051044 0.026289
v 0.031012 0.001335 0.028408
v 0.038853 0.051045 0.021806
v 0.038747 0.001336 0.021625
vn 0.7389 -0.0117 0.6737
vn 0.9989 -0.0000 -0.0464
vn -0.0018 -1.0000 -0.0022
vn -0.0000 1.0000 -0.0000
vn -0.5803 0.0042 -0.8144
vn 0.7620 0.0001 0.6475
vn 1.0000 -0.0021 -0.0000
vn -0.0011 -1.0000 -0.0010
vn -0.9885 0.0046 0.1510
vn -0.9188 -0.0106 -0.3945
vn -0.8679 0.0059 -0.4967
vn -0.6593 -0.0115 -0.7518
vn 1.0000 -0.0000 -0.0000
vn -0.0001 1.0000 -0.0001
vn 0.9989 -0.0020 -0.0464
s 0
f 5//1 1//1 3//1
f 9//2 4//2 5//2
f 7//3 9//3 5//3
f 1//4 4//4 6//4
f 8//5 9//5 6//5
f 5//6 4//6 1//6
f 9//7 8//7 4//7
f 5//8 3//8 7//8
f 3//9 1//9 2//9
f 8//4 6//4 4//4
f 6//4 2//4 1//4
f 3//10 2//10 7//10
f 2//11 6//11 7//11
f 6//12 9//12 7//12
f 4//4 2//4 1//4
f 5//13 8//13 4//13
f 8//4 2//4 4//4
f 8//14 6//14 2//14
f 9//15 8//15 5//15
