# Blender 4.0.0
# www.blender.org
o decimated_mesh
v 0.008853 0.007459 -0.000005
v -0.008851 0.007446 -0.000005
v 0.008833 0.007262 0.002141
v -0.008820 0.007266 0.002141
v 0.008897 0.007105 0.002141
v -0.008887 0.007106 0.002141
v 0.008887 0.002615 -0.000005
v 0.008873 0.001536 0.002141
v -0.008875 0.002616 -0.000005
v -0.008856 0.001532 0.002141
v 0.008720 0.001443 0.002141
v 0.008720 0.002513 -0.000005
v -0.008708 0.001443 0.002141
v -0.008710 0.002513 -0.000005
vn -0.0000 -0.8949 -0.4462
vn 0.9998 0.0071 -0.0195
vn -0.0000 -0.0000 1.0000
vn -0.9222 0.3841 0.0455
vn 0.4767 -0.7867 -0.3922
vn -0.4738 -0.7883 -0.3925
vn 0.9254 0.3764 0.0429
vn -1.0000 -0.0056 0.0059
vn -0.0000 -0.8950 -0.4461
vn 1.0000 -0.0043 0.0044
vn 0.0004 -0.0000 1.0000
vn -0.0005 -0.0000 1.0000
vn -0.0000 -0.0000 -1.0000
vn 0.0002 -0.0000 -1.0000
vn -0.0001 -0.0000 -1.0000
vn 0.4807 -0.7847 -0.3915
vn -0.4876 -0.7811 -0.3901
vn 0.0002 0.9958 0.0911
vn -0.0007 0.9965 0.0836
vn -0.9999 0.0049 -0.0159
vn -0.0001 0.0002 1.0000
vn -0.0000 -0.0002 -1.0000
vn -0.0000 0.0007 1.0000
s 0
f 12//1 13//1 14//1
f 5//2 7//2 1//2
f 13//3 4//3 10//3
f 4//4 2//4 6//4
f 12//5 8//5 11//5
f 10//6 14//6 13//6
f 1//7 3//7 5//7
f 9//8 10//8 6//8
f 12//9 11//9 13//9
f 5//10 8//10 7//10
f 6//11 10//11 4//11
f 13//3 11//3 4//3
f 8//11 5//11 11//11
f 3//3 4//3 11//3
f 5//12 3//12 11//12
f 12//13 14//13 2//13
f 2//14 14//14 9//14
f 2//13 1//13 12//13
f 12//15 1//15 7//15
f 12//16 7//16 8//16
f 10//17 9//17 14//17
f 4//18 3//18 1//18
f 1//19 2//19 4//19
f 2//20 9//20 6//20
f 7//13 9//13 1//13
f 9//13 2//13 1//13
f 4//3 10//3 3//3
f 10//21 5//21 3//21
f 10//3 8//3 5//3
f 12//22 9//22 7//22
f 12//22 14//22 9//22
f 13//3 11//3 10//3
f 11//23 8//23 10//23
