# Blender 4.0.0
# www.blender.org
o decimated_mesh
v 0.008720 -0.002500 -0.000005
v -0.008806 -0.001834 0.001826
v 0.008823 -0.001842 0.001826
v 0.008886 -0.002606 -0.000005
v -0.008710 -0.002500 -0.000005
v 0.008896 -0.002019 0.001826
v -0.008848 -0.002571 -0.000005
v -0.008895 -0.002725 -0.000005
v -0.008890 -0.002034 0.001826
v 0.008898 -0.007396 0.001822
v 0.008825 -0.007560 0.001821
v 0.008902 -0.007298 -0.000005
v -0.008892 -0.007299 -0.000005
v -0.008894 -0.007317 0.001826
v -0.008817 -0.007456 -0.000005
v 0.008701 -0.007616 0.001632
v 0.008834 -0.007450 -0.000005
v -0.008828 -0.007599 0.001619
v 0.008831 -0.007601 0.001556
v -0.008814 -0.007561 0.001819
vn -0.0000 0.9398 -0.3418
vn 0.0002 -0.0000 1.0000
vn 0.9165 0.3794 -0.1269
vn -1.0000 -0.0007 -0.0014
vn 1.0000 0.0035 0.0026
vn 0.2009 -0.9676 0.1529
vn -0.4327 0.8398 -0.3280
vn -0.0011 -0.9826 0.1860
vn -0.9504 0.2918 -0.1076
vn -0.9413 -0.3132 0.1262
vn -0.9742 -0.2258 -0.0035
vn 0.0004 -0.9949 -0.1009
vn 0.0004 0.9411 -0.3382
vn 0.0010 -0.0000 1.0000
vn -0.0000 -0.0000 1.0000
vn -0.0017 0.0001 1.0000
vn 0.5103 0.7998 -0.3161
vn -0.9018 -0.4300 -0.0441
vn -1.0000 0.0008 0.0023
vn 1.0000 0.0003 -0.0058
vn 0.9560 -0.2931 -0.0134
vn 0.9126 -0.4072 -0.0375
vn -0.0000 -0.9591 0.2830
vn -0.0034 -0.0000 1.0000
vn -0.0001 -0.0013 1.0000
vn -0.0127 -0.0009 0.9999
vn 0.0050 -0.0007 1.0000
vn -0.0000 -0.0009 1.0000
vn 0.0845 -0.0014 0.9964
vn -0.9128 0.3858 -0.1343
vn 0.9113 -0.4034 0.0828
vn 0.0583 -0.9937 -0.0960
vn -0.0009 -0.9961 -0.0877
vn -0.0000 0.0003 -1.0000
vn -0.0000 -0.0000 -1.0000
vn -0.0001 -0.0293 0.9996
vn 0.0002 -0.0066 1.0000
vn 0.0002 -0.0008 1.0000
vn 1.0000 0.0035 -0.0068
vn 1.0000 0.0003 0.0024
vn -0.0000 -0.0009 -1.0000
vn -0.0000 -0.0005 -1.0000
s 0
f 2//1 1//1 5//1
f 1//2 17//2 4//2
f 6//3 4//3 3//3
f 14//4 8//4 13//4
f 12//5 4//5 10//5
f 19//6 11//6 16//6
f 5//7 7//7 2//7
f 16//8 20//8 18//8
f 9//9 7//9 8//9
f 14//10 18//10 20//10
f 18//11 14//11 13//11
f 15//12 17//12 16//12
f 2//13 3//13 1//13
f 4//14 17//14 12//14
f 17//15 1//15 15//15
f 13//15 5//15 8//15
f 8//15 5//15 7//15
f 5//15 15//15 1//15
f 13//16 15//16 5//16
f 3//17 4//17 1//17
f 15//18 18//18 13//18
f 9//19 8//19 14//19
f 4//20 6//20 10//20
f 12//21 10//21 19//21
f 19//22 17//22 12//22
f 16//23 11//23 20//23
f 9//24 14//24 2//24
f 20//25 11//25 2//25
f 3//26 11//26 10//26
f 10//27 6//27 3//27
f 3//28 2//28 11//28
f 20//29 2//29 14//29
f 9//30 2//30 7//30
f 11//31 19//31 10//31
f 19//32 16//32 17//32
f 16//33 18//33 15//33
f 14//15 3//15 2//15
f 1//34 4//34 5//34
f 4//35 7//35 5//35
f 4//35 8//35 7//35
f 20//36 11//36 14//36
f 11//37 10//37 14//37
f 10//38 3//38 14//38
f 6//39 12//39 4//39
f 12//35 13//35 4//35
f 13//35 8//35 4//35
f 12//40 6//40 10//40
f 12//41 15//41 13//41
f 17//42 15//42 12//42
