mtllib material.mtl
usemtl material_0
v 0.00000612 0.00000004 0.14991210
v 0.00000612 -0.00083757 0.14858280
v 0.00000612 -0.00083757 -0.14858310
v 0.00000612 0.00000004 -0.14991180
v 0.21061710 -0.00290985 0.14827390
v 0.21810210 -0.00108431 0.14827390
v 0.21810210 -0.00108431 -0.14827390
v 0.21061710 -0.00290985 -0.14827390
v 0.19167790 -0.00600024 0.14827390
v 0.19167790 -0.00600024 -0.14827390
v 0.16770480 -0.00939168 0.14827390
v 0.16770480 -0.00939168 -0.14827390
v 0.14369080 -0.01228787 0.14827390
v 0.14369080 -0.01228787 -0.14827390
v 0.11970400 -0.01494261 0.14827390
v 0.11970400 -0.01494261 -0.14827390
v 0.09571657 -0.01671980 0.14827390
v 0.09571657 -0.01671980 -0.14827390
v 0.07640718 -0.01747288 0.14827390
v 0.07640718 -0.01747288 -0.14827390
v 0.06001039 -0.01774294 0.14827390
v 0.06001039 -0.01774294 -0.14827390
v 0.04561830 -0.01765966 0.14827390
v 0.04561830 -0.01765966 -0.14827390
v 0.03122621 -0.01627171 0.14827390
v 0.03122621 -0.01627171 -0.14827390
v 0.01807527 -0.01282676 0.14827390
v 0.01807527 -0.01282676 -0.14827390
v 0.00821260 -0.00867440 0.14827390
v 0.00821260 -0.00867440 -0.14827390
v 0.00244203 -0.00427644 0.14827390
v 0.00244203 -0.00427644 -0.14827390
v 0.00091737 -0.00240810 -0.14848330
v 0.00091737 -0.00240810 0.14848300
v 0.00000612 -0.00083757 -0.14858310
v 0.00000612 -0.00083757 0.14858280
vn -1.00000000 0.00001076 0.00000000
vn -1.00000000 0.00001076 0.00000000
vn -1.00000000 0.00001076 0.00000000
vn -1.00000000 0.00001076 0.00000000
vn 0.18290050 -0.98313140 0.00000000
vn 0.23695520 -0.97152060 0.00000000
vn 0.23695520 -0.97152060 0.00000000
vn 0.18290050 -0.98313140 0.00000000
vn 0.14935270 -0.98878400 0.00000000
vn 0.14935270 -0.98878400 0.00000000
vn 0.12991640 -0.99152490 0.00000000
vn 0.12991640 -0.99152490 0.00000000
vn 0.11487660 -0.99337970 0.00000000
vn 0.11487660 -0.99337970 0.00000000
vn 0.09199089 -0.99575990 0.00000000
vn 0.09199089 -0.99575990 0.00000000
vn 0.05834059 -0.99829680 0.00000000
vn 0.05834059 -0.99829680 0.00000000
vn 0.02864240 -0.99958970 0.00000000
vn 0.02864240 -0.99958970 0.00000000
vn 0.00606662 -0.99998160 0.00000000
vn 0.00606662 -0.99998160 0.00000000
vn -0.05104577 -0.99869640 0.00000000
vn -0.05104577 -0.99869640 0.00000000
vn -0.17282700 -0.98495220 0.00000000
vn -0.17282700 -0.98495220 0.00000000
vn -0.31348030 -0.94959470 0.00000000
vn -0.31348030 -0.94959470 0.00000000
vn -0.47984940 -0.87735090 0.00000000
vn -0.47984940 -0.87735090 0.00000000
vn -0.65345380 -0.75696650 0.00000000
vn -0.65345380 -0.75696650 0.00000000
vn -0.81817850 -0.57496430 0.00000000
vn -0.81817850 -0.57496430 0.00000000
vn -0.86498460 -0.50179840 0.00000000
vn -0.86498460 -0.50179840 0.00000000
vt 2.16713200 0.25021900
vt 2.16713200 0.25021900
vt 2.16713200 0.49861990
vt 2.16713200 0.49861990
vt 2.00693000 0.25021900
vt 2.00123600 0.25021900
vt 2.00123600 0.49861990
vt 2.00693000 0.49861990
vt 2.02133600 0.25021900
vt 2.02133600 0.49861990
vt 2.03957100 0.25021900
vt 2.03957100 0.49861990
vt 2.05783800 0.25021900
vt 2.05783800 0.49861990
vt 2.07608400 0.25021900
vt 2.07608400 0.49861990
vt 2.09432900 0.25021900
vt 2.09432900 0.49861990
vt 2.10901700 0.25021900
vt 2.10901700 0.49861990
vt 2.12148900 0.25021900
vt 2.12148900 0.49861990
vt 2.13243700 0.25021900
vt 2.13243700 0.49861990
vt 2.14338400 0.25021900
vt 2.14338400 0.49861990
vt 2.15338800 0.25021900
vt 2.15338800 0.49861990
vt 2.16088900 0.25021900
vt 2.16088900 0.49861990
vt 2.16527900 0.25021900
vt 2.16527900 0.49861990
vt 2.16643900 0.49861990
vt 2.16643900 0.25021900
vt 2.16713200 0.49861990
vt 2.16713200 0.25021900
f 3/3/3 2/2/2 1/1/1
f 4/4/4 3/3/3 1/1/1
f 7/7/7 6/6/6 5/5/5
f 8/8/8 7/7/7 5/5/5
f 8/8/8 5/5/5 9/9/9
f 10/10/10 8/8/8 9/9/9
f 10/10/10 9/9/9 11/11/11
f 12/12/12 10/10/10 11/11/11
f 12/12/12 11/11/11 13/13/13
f 14/14/14 12/12/12 13/13/13
f 14/14/14 13/13/13 15/15/15
f 16/16/16 14/14/14 15/15/15
f 16/16/16 15/15/15 17/17/17
f 18/18/18 16/16/16 17/17/17
f 18/18/18 17/17/17 19/19/19
f 20/20/20 18/18/18 19/19/19
f 20/20/20 19/19/19 21/21/21
f 22/22/22 20/20/20 21/21/21
f 22/22/22 21/21/21 23/23/23
f 24/24/24 22/22/22 23/23/23
f 24/24/24 23/23/23 25/25/25
f 26/26/26 24/24/24 25/25/25
f 26/26/26 25/25/25 27/27/27
f 28/28/28 26/26/26 27/27/27
f 28/28/28 27/27/27 29/29/29
f 30/30/30 28/28/28 29/29/29
f 30/30/30 29/29/29 31/31/31
f 32/32/32 30/30/30 31/31/31
f 33/33/33 32/32/32 31/31/31
f 34/34/34 33/33/33 31/31/31
f 35/35/35 33/33/33 34/34/34
f 36/36/36 35/35/35 34/34/34

