# Blender 4.0.0
# www.blender.org
o decimated_mesh
v 0.050237 0.195271 -0.017719
v 0.047049 0.195333 -0.014295
v 0.068998 0.188212 -0.015173
v 0.070188 0.187492 -0.017759
v 0.068312 0.186279 -0.013001
v 0.070435 0.186088 -0.014594
v 0.068376 0.178848 -0.010093
v 0.068317 0.184824 -0.020244
v 0.047534 0.195280 -0.020187
v 0.044098 0.195272 -0.015035
v 0.047825 0.188657 -0.010094
v 0.064093 0.182843 -0.010111
v 0.069479 0.178882 -0.013992
v 0.061030 0.178828 -0.010111
v 0.065750 0.179695 -0.022584
v 0.052398 0.186446 -0.022566
v 0.047713 0.184448 -0.010111
v 0.042983 0.189010 -0.014181
v 0.057647 0.178827 -0.014154
v 0.070053 0.180403 -0.018026
v 0.042985 0.195272 -0.016904
v 0.042983 0.185140 -0.014181
v 0.042983 0.183992 -0.022566
v 0.058193 0.179684 -0.022566
v 0.042983 0.187956 -0.022566
v 0.044004 0.195265 -0.019883
vn 0.6451 -0.0000 -0.7641
vn 0.3070 0.9128 0.2693
vn 0.3616 0.9278 -0.0917
vn 0.7856 0.5860 0.1986
vn -0.3788 -0.8786 0.2908
vn -0.9176 0.2435 -0.3142
vn 0.2727 0.5464 -0.7919
vn -0.2203 0.5010 0.8369
vn 0.2491 0.6831 0.6865
vn 0.0024 -0.0018 -1.0000
vn -1.0000 0.0004 -0.0001
vn 0.3206 0.3476 0.8811
vn 0.0454 0.2830 -0.9580
vn 0.1782 0.4961 0.8498
vn 0.5357 0.5397 0.6494
vn -0.6211 0.2134 0.7541
vn -0.0000 -0.0000 -1.0000
vn 0.1696 0.3423 -0.9242
vn 0.7303 -0.0548 -0.6809
vn 0.4241 -0.8656 -0.2660
vn -0.8387 0.2174 0.4993
vn -0.2707 -0.9558 -0.1150
vn 0.3373 0.8671 -0.3665
vn 0.1794 0.5388 0.8231
vn 0.0011 -0.9948 -0.1014
vn -0.0816 0.3534 -0.9319
vn 0.6510 -0.0142 -0.7589
vn 0.9572 -0.1044 0.2699
vn -0.3697 -0.8760 0.3097
vn -0.3926 -0.9112 0.1247
vn -0.0008 0.0006 -1.0000
vn 0.0017 0.0040 -1.0000
vn -1.0000 -0.0000 -0.0000
vn -0.0028 1.0000 0.0079
vn -0.0047 1.0000 0.0036
vn 0.9879 -0.1232 0.0941
vn 0.9963 -0.0158 -0.0848
vn -0.0024 -0.0020 -1.0000
vn 0.1694 0.3375 -0.9259
vn 0.7948 0.0077 -0.6068
vn 0.0107 0.9999 -0.0082
vn 0.0023 1.0000 -0.0016
vn -0.0043 1.0000 -0.0015
vn -0.0180 0.9998 -0.0106
vn 0.0060 -0.9953 -0.0968
vn 0.5897 0.2988 0.7503
vn -0.0050 0.9999 -0.0095
vn -0.0111 0.9999 -0.0062
vn -0.0242 0.9996 0.0142
vn 0.6444 -0.0140 -0.7646
vn 0.0019 0.0040 -1.0000
vn -0.0042 -0.0089 -1.0000
vn 0.6523 -0.0000 -0.7580
vn 0.0024 0.0056 -1.0000
vn -0.0028 1.0000 0.0020
vn -0.0048 1.0000 0.0073
vn 0.0006 0.0039 -1.0000
vn -0.0008 -0.0000 -1.0000
vn -0.0024 -0.0083 -1.0000
s 0
f 22//1 18//1 11//1
f 1//2 2//2 3//2
f 1//3 3//3 4//3
f 3//4 6//4 4//4
f 19//5 17//5 22//5
f 26//6 25//6 21//6
f 4//7 8//7 9//7
f 2//8 10//8 11//8
f 2//9 5//9 3//9
f 12//10 7//10 14//10
f 18//11 21//11 25//11
f 7//12 5//12 12//12
f 25//13 9//13 16//13
f 11//14 12//14 5//14
f 5//15 6//15 3//15
f 11//16 10//16 18//16
f 24//17 23//17 16//17
f 16//18 9//18 8//18
f 8//19 20//19 15//19
f 15//20 20//20 13//20
f 10//21 21//21 18//21
f 19//22 23//22 24//22
f 4//23 9//23 1//23
f 5//24 2//24 11//24
f 15//25 19//25 24//25
f 9//26 25//26 26//26
f 22//27 11//27 17//27
f 6//28 7//28 13//28
f 19//29 14//29 17//29
f 22//30 23//30 19//30
f 12//31 14//31 11//31
f 17//32 11//32 14//32
f 25//33 23//33 22//33
f 22//33 18//33 25//33
f 7//34 13//34 14//34
f 14//35 13//35 19//35
f 13//36 20//36 6//36
f 20//37 4//37 6//37
f 25//17 16//17 23//17
f 16//38 15//38 24//38
f 8//39 15//39 16//39
f 4//40 20//40 8//40
f 1//41 9//41 2//41
f 26//42 21//42 10//42
f 9//43 26//43 10//43
f 10//44 2//44 9//44
f 15//45 13//45 19//45
f 5//46 7//46 6//46
f 9//47 26//47 2//47
f 26//48 21//48 2//48
f 21//49 10//49 2//49
f 18//50 11//50 17//50
f 17//51 11//51 7//51
f 7//52 11//52 12//52
f 22//53 18//53 17//53
f 14//54 17//54 7//54
f 14//55 7//55 19//55
f 19//56 7//56 13//56
f 15//57 25//57 16//57
f 15//58 23//58 25//58
f 24//59 23//59 15//59
