# Blender 4.0.0
# www.blender.org
o decimated_mesh
v -0.035215 0.187812 -0.003905
v -0.041744 0.185974 0.003710
v -0.049481 0.186309 0.000137
v -0.046052 0.187825 -0.003892
v -0.037332 0.182992 0.008153
v -0.035160 0.182536 0.008109
v -0.035129 0.183412 -0.003893
v -0.049452 0.182616 0.008206
v -0.049496 0.187138 -0.003893
v -0.035129 0.175960 0.008190
v -0.049496 0.183118 -0.003893
v -0.049496 0.177906 0.008190
vn -0.1918 0.9612 0.1983
vn -0.0229 0.8194 0.5727
vn 1.0000 0.0048 0.0029
vn -1.0000 -0.0000 0.0037
vn 0.0175 -0.8510 -0.5249
vn -0.1235 -0.9112 -0.3930
vn 0.0014 0.9718 0.2359
vn -0.0893 0.9549 0.2832
vn -0.1512 0.8986 0.4119
vn 0.9998 0.0195 0.0040
vn 0.2056 0.8964 0.3927
vn 0.1955 0.8930 0.4053
vn -0.9999 0.0094 0.0079
vn -1.0000 0.0030 0.0013
vn 0.0228 0.0124 0.9997
vn 0.0045 -0.0034 1.0000
vn 0.0007 0.0055 1.0000
vn -0.0012 -0.0026 -1.0000
vn -0.0000 0.0002 -1.0000
vn 0.0003 -0.0000 -1.0000
vn 0.0001 -0.0026 -1.0000
vn -0.0008 -0.0000 -1.0000
vn -0.0011 0.0072 -1.0000
vn -1.0000 -0.0000 -0.0000
vn -1.0000 0.0066 0.0050
vn 0.0042 0.0066 1.0000
vn -0.0005 -0.0034 1.0000
s 0
f 9//1 3//1 4//1
f 5//2 2//2 8//2
f 7//3 6//3 10//3
f 3//4 9//4 11//4
f 7//5 10//5 11//5
f 10//6 12//6 11//6
f 1//7 4//7 2//7
f 4//8 3//8 2//8
f 2//9 3//9 8//9
f 1//10 6//10 7//10
f 1//11 2//11 6//11
f 2//12 5//12 6//12
f 8//13 3//13 12//13
f 12//14 3//14 11//14
f 6//15 5//15 10//15
f 5//16 8//16 12//16
f 12//17 10//17 5//17
f 4//18 1//18 7//18
f 7//19 11//19 4//19
f 11//20 9//20 4//20
f 7//21 11//21 1//21
f 11//22 9//22 1//22
f 9//23 4//23 1//23
f 12//24 9//24 11//24
f 12//25 3//25 9//25
f 8//26 10//26 5//26
f 12//27 10//27 8//27
