# Blender 4.0.0
# www.blender.org
o decimated_mesh
v 0.019682 0.172604 0.000855
v 0.020064 0.171133 0.000872
v 0.020527 0.171537 0.003325
v 0.020216 0.174162 0.000855
v 0.021300 0.170471 0.000855
v 0.024717 0.169495 0.010928
v 0.050529 0.152521 0.018672
v 0.049305 0.152901 0.019389
v 0.028630 0.166390 0.013480
v 0.034983 0.163409 0.019281
v 0.024601 0.171799 0.009105
v 0.033034 0.165765 0.017624
v 0.050529 0.181354 0.000855
v 0.050531 0.152481 0.020440
v 0.049630 0.153058 0.021173
v 0.043706 0.156934 0.021380
v 0.037061 0.161210 0.019265
v 0.044101 0.158558 0.021782
v 0.028946 0.177840 0.008905
v 0.029481 0.175819 0.010822
v 0.050526 0.185758 0.000866
v 0.050533 0.153837 0.021528
v 0.046724 0.155216 0.021647
v 0.046762 0.157848 0.022267
v 0.024524 0.179945 0.000857
v 0.037920 0.171822 0.017585
v 0.031462 0.177493 0.010754
v 0.033748 0.181230 0.008498
v 0.040614 0.170054 0.018966
v 0.040396 0.173244 0.017504
v 0.050529 0.162326 0.021813
v 0.050516 0.165219 0.021396
v 0.036732 0.182317 0.008805
v 0.036654 0.183745 0.006811
v 0.031841 0.184934 0.000858
v 0.047799 0.186317 0.000855
v 0.043421 0.177748 0.015058
v 0.044357 0.175055 0.016823
v 0.041954 0.185784 0.004113
v 0.045422 0.177870 0.015198
v 0.040075 0.186794 0.000858
v 0.050530 0.173637 0.017399
v 0.048913 0.181521 0.010322
v 0.050525 0.181874 0.009102
v 0.050529 0.180266 0.011413
vn -0.8581 0.2944 0.4208
vn -0.0521 -0.2280 0.9723
vn 0.1360 0.7439 0.6544
vn -0.4068 -0.8855 -0.2246
vn -0.7090 -0.4424 0.5491
vn -0.5354 -0.8273 0.1700
vn 0.1921 -0.5159 -0.8348
vn -0.4382 -0.8850 0.1574
vn -0.4705 -0.8745 -0.1181
vn -0.6638 -0.6299 0.4033
vn -0.5435 -0.5181 0.6604
vn -0.3344 -0.1490 0.9306
vn -0.6121 0.4717 0.6347
vn -0.0887 -0.3265 0.9410
vn -0.4610 -0.7313 0.5026
vn 0.2271 -0.6098 0.7593
vn -0.3343 0.7600 0.5573
vn -0.3959 0.6399 0.6587
vn -0.4427 0.5527 0.7061
vn -0.2835 0.2837 0.9161
vn -0.2703 0.5996 0.7533
vn -0.6866 -0.6978 0.2040
vn -0.2103 -0.2210 0.9523
vn -0.0916 0.7548 0.6496
vn -0.0934 0.5229 0.8473
vn 0.1581 -0.0330 0.9869
vn -0.7655 0.3753 0.5227
vn -0.3898 0.4930 0.7778
vn -0.5588 -0.8264 0.0688
vn -0.1988 0.3971 0.8960
vn -0.0001 -0.0000 1.0000
vn -0.0004 -0.0001 1.0000
vn 0.0001 -0.0002 1.0000
vn -0.0000 -0.0006 1.0000
vn 0.0004 0.0002 1.0000
vn 0.0044 0.0025 -1.0000
vn 0.0001 -0.0003 1.0000
vn -0.0231 -0.0176 -0.9996
vn 0.2293 0.6524 0.7224
vn 1.0000 0.0009 0.0005
vn 1.0000 0.0032 0.0003
vn 1.0000 0.0001 -0.0000
vn 1.0000 0.0002 0.0040
vn 0.9999 0.0032 -0.0101
vn 1.0000 0.0005 -0.0016
vn 1.0000 -0.0008 -0.0010
vn 1.0000 -0.0000 -0.0000
vn -0.6059 0.4573 0.6510
vn -0.6885 0.5128 0.5129
vn -0.6890 0.5124 0.5126
vn -0.0123 0.4289 0.9033
vn 0.0040 0.3914 0.9202
vn -0.0332 0.4146 0.9094
vn -0.0497 0.1421 0.9886
vn -0.3989 0.7821 0.4788
vn -0.4987 0.7313 0.4653
vn -0.4796 0.7366 0.4769
vn -0.3080 -0.9512 -0.0210
vn -0.3276 0.6113 0.7204
vn -0.2950 0.5932 0.7490
vn -0.3009 0.6210 0.7237
vn -0.0191 0.8142 0.5803
vn -0.0161 0.8127 0.5825
vn -0.0207 0.8073 0.5897
vn -0.7438 -0.6228 0.2426
vn -0.3735 0.3069 0.8754
vn 0.1766 0.8706 0.4592
vn 0.1643 0.8894 0.4265
vn 0.1241 0.8975 0.4232
vn -0.2233 -0.1827 0.9575
vn 0.2448 0.7961 0.5534
vn -0.0913 0.5235 0.8471
vn -0.9451 -0.2433 0.2182
vn -0.7587 0.3966 0.5169
vn -0.6135 0.0470 0.7883
vn -0.4754 0.3715 0.7975
vn -0.4629 0.3786 0.8015
vn -0.1601 0.9129 0.3756
vn -0.2064 0.9139 0.3495
vn 0.0596 0.9626 0.2642
vn 0.0314 0.4907 0.8707
vn -0.5597 -0.8234 0.0938
vn -0.5603 -0.8246 0.0781
vn -0.1295 0.1811 0.9749
vn -0.1434 0.1942 0.9704
vn -0.1661 0.1867 0.9683
vn -0.0000 -0.0000 1.0000
vn -0.0000 0.0001 1.0000
vn -0.6887 0.5129 0.5125
vn 0.0003 -0.0006 1.0000
vn 0.0002 -0.0005 1.0000
vn -0.6888 0.5123 0.5129
vn 1.0000 -0.0007 -0.0011
vn 1.0000 -0.0006 -0.0010
vn 1.0000 0.0009 0.0001
vn 1.0000 0.0002 -0.0000
vn -0.6207 0.4672 0.6296
vn -0.5989 0.4621 0.6541
vn 0.0003 -0.0018 1.0000
vn 0.1573 0.8902 0.4276
vn 0.1807 0.8896 0.4195
vn 1.0000 0.0002 0.0002
vn 1.0000 0.0004 0.0012
vn 1.0000 0.0087 0.0042
vn -0.2806 0.6069 0.7436
vn -0.3037 0.5720 0.7620
vn -0.2828 0.5975 0.7504
vn -0.0194 0.8126 0.5825
vn -0.0183 0.8146 0.5797
vn 0.1439 0.8837 0.4454
vn 0.9998 0.0074 0.0191
vn 0.0142 0.4288 0.9033
vn -0.0242 0.4090 0.9122
s 0
f 1//1 3//1 4//1
f 23//2 22//2 24//2
f 40//3 45//3 43//3
f 5//4 7//4 8//4
f 6//5 9//5 10//5
f 16//6 8//6 15//6
f 7//7 5//7 13//7
f 8//8 14//8 15//8
f 5//9 8//9 2//9
f 9//10 17//10 10//10
f 10//11 17//11 16//11
f 10//12 16//12 18//12
f 20//13 11//13 6//13
f 15//14 22//14 23//14
f 15//15 23//15 16//15
f 15//16 14//16 22//16
f 34//17 28//17 33//17
f 19//18 27//18 28//18
f 20//19 27//19 19//19
f 29//20 26//20 10//20
f 27//21 26//21 33//21
f 2//22 9//22 6//22
f 24//23 16//23 23//23
f 33//24 37//24 40//24
f 38//25 37//25 30//25
f 31//26 24//26 22//26
f 11//27 3//27 6//27
f 27//28 20//28 26//28
f 8//29 9//29 2//29
f 30//30 26//30 29//30
f 1//31 5//31 4//31
f 4//32 5//32 25//32
f 25//33 5//33 35//33
f 35//34 13//34 41//34
f 41//35 13//35 36//35
f 36//36 21//36 13//36
f 13//37 35//37 5//37
f 5//38 2//38 1//38
f 40//39 42//39 45//39
f 21//40 44//40 13//40
f 44//41 45//41 13//41
f 45//42 42//42 13//42
f 42//43 32//43 7//43
f 32//44 31//44 7//44
f 31//45 22//45 7//45
f 22//46 14//46 7//46
f 7//47 13//47 42//47
f 20//48 19//48 11//48
f 25//49 4//49 11//49
f 11//50 19//50 25//50
f 29//51 32//51 42//51
f 42//52 38//52 29//52
f 38//53 30//53 29//53
f 24//54 31//54 32//54
f 34//55 35//55 28//55
f 35//56 25//56 19//56
f 19//57 28//57 35//57
f 14//58 8//58 7//58
f 30//59 37//59 26//59
f 37//60 33//60 26//60
f 33//61 28//61 27//61
f 43//62 39//62 33//62
f 39//63 34//63 33//63
f 33//64 40//64 43//64
f 6//65 3//65 2//65
f 12//66 10//66 26//66
f 36//67 39//67 21//67
f 21//68 39//68 43//68
f 21//69 43//69 44//69
f 24//70 18//70 16//70
f 45//71 44//71 43//71
f 38//72 40//72 37//72
f 2//73 3//73 1//73
f 11//74 4//74 3//74
f 6//75 10//75 12//75
f 20//76 6//76 12//76
f 26//77 20//77 12//77
f 34//78 39//78 41//78
f 41//79 35//79 34//79
f 36//80 41//80 39//80
f 42//81 40//81 38//81
f 8//82 16//82 17//82
f 17//83 9//83 8//83
f 18//84 24//84 32//84
f 32//85 29//85 18//85
f 29//86 10//86 18//86
f 4//87 1//87 13//87
f 13//88 1//88 5//88
f 19//89 25//89 4//89
f 25//90 4//90 35//90
f 35//91 4//91 36//91
f 36//87 4//87 13//87
f 11//92 19//92 4//92
f 22//93 14//93 13//93
f 14//94 7//94 13//94
f 21//95 45//95 13//95
f 45//96 22//96 13//96
f 11//97 6//97 19//97
f 6//98 20//98 19//98
f 41//99 35//99 36//99
f 39//100 44//100 36//100
f 44//101 21//101 36//101
f 45//102 42//102 22//102
f 42//103 31//103 22//103
f 44//104 45//104 21//104
f 37//105 33//105 27//105
f 26//106 30//106 27//106
f 30//107 37//107 27//107
f 33//108 43//108 34//108
f 43//109 39//109 34//109
f 43//110 44//110 39//110
f 42//111 32//111 31//111
f 38//112 32//112 42//112
f 38//113 29//113 32//113
