# Blender 4.0.0
# www.blender.org
o decimated_mesh
v 0.017368 0.172832 -0.022568
v 0.018354 0.171611 -0.028504
v 0.018598 0.169401 -0.028462
v 0.017687 0.170857 -0.022565
v 0.019581 0.171001 -0.030805
v 0.022501 0.167625 -0.036525
v 0.024665 0.164740 -0.039458
v 0.024094 0.179470 -0.028905
v 0.022977 0.178016 -0.029641
v 0.025238 0.166388 -0.040295
v 0.026200 0.164360 -0.041109
v 0.028644 0.161459 -0.042270
v 0.032618 0.159431 -0.042276
v 0.019840 0.170338 -0.022567
v 0.021960 0.179783 -0.022567
v 0.028679 0.182058 -0.030491
v 0.029579 0.184164 -0.028166
v 0.027743 0.164545 -0.042269
v 0.029365 0.172868 -0.040717
v 0.035077 0.183254 -0.022567
v 0.028616 0.185278 -0.022569
v 0.031366 0.183849 -0.030132
v 0.035864 0.179679 -0.038705
v 0.031630 0.171754 -0.042268
v 0.040102 0.168706 -0.042265
v 0.040102 0.176635 -0.036698
v 0.035054 0.187416 -0.022565
v 0.035077 0.185962 -0.028048
v 0.035978 0.178147 -0.040285
v 0.040155 0.181628 -0.037085
v 0.040065 0.176441 -0.042301
vn 0.9859 0.1112 0.1248
vn 0.4782 0.8670 -0.1403
vn -0.8841 -0.2939 -0.3632
vn -0.7377 0.4418 -0.5106
vn 0.2182 0.9069 -0.3605
vn -0.4292 0.7457 -0.5096
vn -0.5794 -0.1689 -0.7973
vn -0.7206 -0.3731 -0.5844
vn 0.3486 0.9064 -0.2388
vn -0.4788 0.2502 -0.8415
vn -0.0615 0.7144 -0.6971
vn -0.6484 0.5239 -0.5523
vn -0.8395 0.3122 -0.4447
vn -0.5520 0.7130 -0.4324
vn -0.5083 0.5995 -0.6182
vn -0.2781 0.8764 -0.3932
vn -0.6173 0.7477 -0.2448
vn 0.9444 0.0155 0.3286
vn -0.2965 0.9228 -0.2459
vn -0.2454 0.4356 -0.8660
vn -0.1898 0.8400 -0.5082
vn -0.8115 -0.0148 -0.5842
vn 0.0001 -0.0004 -1.0000
vn -0.0000 -0.0000 -1.0000
vn 0.0003 -0.0001 -1.0000
vn -0.0017 -0.0021 -1.0000
vn 0.0004 0.0006 -1.0000
vn -0.8737 0.0619 -0.4824
vn 0.9787 0.1588 0.1300
vn 0.4470 0.8765 -0.1788
vn -0.8063 0.5385 -0.2448
vn -0.8079 0.5338 -0.2495
vn -0.9040 -0.1077 -0.4138
vn -0.4052 0.7203 -0.5630
vn 1.0000 0.0048 -0.0069
vn 0.9999 -0.0110 -0.0063
vn -0.6942 0.6685 -0.2668
vn -0.4610 0.2487 -0.8518
vn -0.0514 0.7085 -0.7038
vn -0.5241 0.6157 -0.5884
vn -0.4712 0.6401 -0.6068
vn -0.5506 0.6731 -0.4937
vn -0.6089 0.7514 -0.2543
vn -0.6518 -0.7575 -0.0385
vn 0.9441 0.0052 0.3296
vn -0.3061 0.9222 -0.2362
vn -0.7391 -0.0828 -0.6685
vn -0.4947 0.5837 -0.6438
vn 0.0007 0.0007 -1.0000
vn -0.0019 -0.0003 -1.0000
vn -0.0010 0.0006 -1.0000
vn -0.0013 -0.0047 -1.0000
vn -0.3259 0.4752 -0.8173
vn -0.6033 0.0331 -0.7968
vn -0.1913 0.8388 -0.5097
vn -0.6787 0.3919 -0.6211
vn -0.6844 0.4190 -0.5967
vn -0.6821 0.4285 -0.5926
vn 0.9838 0.1113 0.1406
vn 0.9809 0.1591 0.1122
vn 0.0023 -0.0014 -1.0000
vn -0.8090 0.5345 -0.2444
vn -0.8056 0.5371 -0.2500
vn 0.4922 0.8597 -0.1364
vn 0.4478 0.8779 -0.1697
vn -0.0010 0.0011 -1.0000
vn -0.0005 0.0006 -1.0000
vn 0.0005 -0.0005 -1.0000
vn 0.0011 -0.0016 -1.0000
vn -0.0021 -0.0005 -1.0000
vn 0.0073 -0.0046 -1.0000
vn 0.9430 0.0052 0.3329
vn 0.9452 0.0153 0.3260
vn -0.4799 0.6363 -0.6040
vn -0.4552 0.6225 -0.6366
vn -0.0056 0.0031 -1.0000
vn 0.9997 0.0047 -0.0220
vn 0.9999 -0.0095 0.0135
vn -0.1894 0.8397 -0.5090
vn -0.1919 0.8391 -0.5089
s 0
f 4//1 3//1 2//1
f 3//2 4//2 13//2
f 3//3 6//3 7//3
f 9//4 5//4 2//4
f 4//5 14//5 13//5
f 22//6 16//6 17//6
f 11//7 18//7 12//7
f 11//8 12//8 7//8
f 28//9 27//9 30//9
f 18//10 10//10 19//10
f 30//11 29//11 23//11
f 13//12 20//12 25//12
f 20//13 26//13 25//13
f 17//14 16//14 8//14
f 16//15 23//15 29//15
f 22//16 17//16 28//16
f 8//17 15//17 21//17
f 30//18 20//18 26//18
f 17//19 27//19 28//19
f 24//20 29//20 31//20
f 30//21 23//21 22//21
f 10//22 7//22 6//22
f 21//23 20//23 15//23
f 20//24 14//24 15//24
f 15//25 14//25 1//25
f 1//26 14//26 4//26
f 27//27 20//27 21//27
f 6//28 2//28 5//28
f 4//29 2//29 1//29
f 3//30 13//30 12//30
f 2//31 1//31 9//31
f 1//32 15//32 9//32
f 2//33 6//33 3//33
f 22//34 23//34 16//34
f 25//35 31//35 26//35
f 31//36 30//36 26//36
f 8//37 9//37 15//37
f 24//38 18//38 19//38
f 30//39 31//39 29//39
f 19//40 9//40 16//40
f 29//41 19//41 16//41
f 9//42 8//42 16//42
f 21//43 17//43 8//43
f 7//44 12//44 3//44
f 30//45 27//45 20//45
f 21//46 27//46 17//46
f 10//47 11//47 7//47
f 13//48 14//48 20//48
f 25//49 13//49 24//49
f 13//50 12//50 18//50
f 18//51 24//51 13//51
f 24//52 31//52 25//52
f 19//53 29//53 24//53
f 10//54 18//54 11//54
f 22//55 28//55 30//55
f 10//56 6//56 19//56
f 6//57 5//57 19//57
f 9//58 19//58 5//58
f 2//59 1//59 3//59
f 3//60 1//60 4//60
f 4//61 1//61 15//61
f 15//62 2//62 1//62
f 15//63 9//63 2//63
f 12//64 3//64 4//64
f 12//65 4//65 13//65
f 14//66 4//66 20//66
f 20//67 4//67 27//67
f 27//68 4//68 15//68
f 27//69 15//69 21//69
f 18//70 31//70 13//70
f 31//71 25//71 13//71
f 26//72 27//72 20//72
f 26//73 30//73 27//73
f 16//74 23//74 19//74
f 23//75 29//75 19//75
f 24//76 31//76 18//76
f 31//77 30//77 25//77
f 30//78 26//78 25//78
f 30//79 23//79 28//79
f 23//80 22//80 28//80
