# Blender 4.0.0
# www.blender.org
o decimated_mesh
v -0.049548 0.182382 0.008755
v -0.049500 0.177514 0.008746
v -0.049500 0.156353 0.017974
v -0.070397 0.156353 0.008746
v -0.050845 0.180624 0.010874
v -0.049500 0.156353 0.021868
v -0.075672 0.156353 0.008746
v -0.049500 0.180172 0.011852
v -0.074216 0.156352 0.010763
v -0.074427 0.158065 0.010171
v -0.058706 0.175090 0.013662
v -0.075107 0.159238 0.008751
v -0.068451 0.161824 0.014962
v -0.056062 0.171632 0.017652
v -0.060615 0.177639 0.008746
v -0.049502 0.161441 0.021924
v -0.051447 0.162787 0.021684
v -0.065754 0.162297 0.017007
v -0.066281 0.164842 0.015680
v -0.065748 0.170096 0.012584
v -0.054602 0.169480 0.019256
v -0.049505 0.174862 0.016757
v -0.051314 0.165116 0.021404
v -0.062281 0.156348 0.019536
v -0.062160 0.158169 0.019338
v -0.064510 0.164442 0.017060
v -0.068311 0.168824 0.011434
v -0.067978 0.171518 0.008747
v -0.072481 0.165245 0.008751
v -0.049500 0.165468 0.021275
vn -0.0158 0.4334 0.9011
vn 0.9999 0.0098 -0.0084
vn 0.3752 -0.3705 -0.8497
vn -0.4647 0.4848 0.7410
vn -0.6779 0.1643 0.7166
vn -0.5923 0.0057 0.8057
vn -0.3151 0.2172 0.9239
vn -0.8312 0.1619 0.5319
vn -0.6959 0.3342 0.6357
vn -0.5395 0.6434 0.5431
vn -0.4334 0.1264 0.8923
vn -0.3781 0.3743 0.8467
vn -0.7311 0.5251 0.4357
vn -0.0379 0.1217 0.9918
vn -0.0194 0.4297 0.9028
vn -0.0000 -0.0000 1.0000
vn -0.0000 0.0019 -1.0000
vn -0.0000 -0.0017 1.0000
vn 0.0008 -0.0004 1.0000
vn 0.0014 -0.0003 1.0000
vn -0.0000 0.0001 1.0000
vn -1.0000 0.0005 -0.0004
vn -1.0000 -0.0002 0.0006
vn -1.0000 0.0004 -0.0010
vn -1.0000 -0.0004 -0.0000
vn -1.0000 -0.0003 -0.0007
vn -0.0000 1.0000 0.0003
vn 0.0003 -1.0000 -0.0007
vn 0.0004 -1.0000 -0.0000
vn 0.0001 1.0000 0.0004
vn -0.5440 0.4663 0.6976
vn -0.4633 0.4944 0.7354
vn -0.4672 0.4836 0.7401
vn -0.6028 -0.0127 0.7978
vn -0.1447 0.5261 0.8380
vn -0.3153 0.2174 0.9238
vn -0.8065 0.1020 0.5824
vn -0.7089 0.3382 0.6189
vn -0.6847 0.3388 0.6452
vn -0.7102 0.3104 0.6319
vn -0.5442 0.2966 0.7848
vn -0.6119 0.2624 0.7461
vn -0.5343 0.6428 0.5489
vn -0.5558 0.6206 0.5531
vn -0.1794 -0.0261 0.9834
vn -0.1296 -0.0108 0.9915
vn -0.3691 0.1920 0.9093
vn -0.1489 0.8037 0.5761
vn -0.2623 0.1220 0.9572
vn -0.2654 0.1302 0.9553
vn -0.3496 0.8148 0.4624
vn -0.3512 0.7685 0.5348
vn -0.2532 0.6975 0.6704
vn -0.2256 0.6573 0.7191
vn -0.2243 0.6614 0.7157
vn 0.0390 0.1589 0.9865
vn 0.0001 -0.0001 1.0000
vn -0.5367 0.6457 0.5432
vn -1.0000 -0.0021 -0.0032
vn -1.0000 -0.0000 -0.0000
vn -0.5377 0.6394 0.5496
vn -0.0000 1.0000 0.0005
vn 0.0071 -0.0031 1.0000
vn 0.0038 -0.0020 1.0000
vn 0.0003 1.0000 0.0001
vn -1.0000 -0.0003 -0.0056
vn -0.5923 -0.0032 0.8057
vn -0.7261 0.3174 0.6099
vn -0.7066 0.3166 0.6329
vn -0.6074 0.0307 0.7938
s 0
f 30//1 22//1 21//1
f 1//2 8//2 2//2
f 2//3 3//3 4//3
f 26//4 14//4 20//4
f 10//5 9//5 13//5
f 24//6 13//6 9//6
f 23//7 21//7 25//7
f 7//8 10//8 12//8
f 13//9 27//9 29//9
f 20//10 11//10 15//10
f 25//11 18//11 24//11
f 26//12 21//12 14//12
f 29//13 27//13 28//13
f 16//14 23//14 17//14
f 21//15 23//15 30//15
f 2//16 28//16 4//16
f 1//17 2//17 15//17
f 4//18 12//18 7//18
f 12//19 4//19 29//19
f 29//20 4//20 28//20
f 28//21 2//21 15//21
f 8//22 2//22 22//22
f 22//23 3//23 30//23
f 30//24 3//24 16//24
f 16//25 3//25 6//25
f 3//26 22//26 2//26
f 9//27 4//27 7//27
f 4//28 3//28 24//28
f 3//29 6//29 24//29
f 24//30 4//30 9//30
f 19//31 20//31 27//31
f 14//32 11//32 20//32
f 26//33 20//33 19//33
f 24//34 18//34 13//34
f 22//35 14//35 21//35
f 21//36 26//36 25//36
f 7//37 9//37 10//37
f 13//38 12//38 10//38
f 13//39 19//39 27//39
f 13//40 29//40 12//40
f 26//41 19//41 18//41
f 19//42 13//42 18//42
f 15//43 28//43 20//43
f 28//44 27//44 20//44
f 24//45 6//45 17//45
f 6//46 16//46 17//46
f 25//47 26//47 18//47
f 8//48 1//48 5//48
f 24//49 17//49 25//49
f 17//50 23//50 25//50
f 1//51 15//51 5//51
f 15//52 11//52 5//52
f 5//53 11//53 8//53
f 14//54 22//54 11//54
f 22//55 8//55 11//55
f 16//56 30//56 23//56
f 2//16 15//16 4//16
f 4//16 15//16 7//16
f 7//57 15//57 28//57
f 28//58 11//58 15//58
f 22//59 8//59 30//59
f 30//60 8//60 2//60
f 30//60 2//60 3//60
f 28//61 20//61 11//61
f 24//62 4//62 7//62
f 12//63 7//63 29//63
f 29//64 7//64 28//64
f 24//65 7//65 9//65
f 16//66 30//66 6//66
f 6//60 30//60 3//60
f 18//67 9//67 24//67
f 10//68 29//68 12//68
f 10//69 13//69 29//69
f 18//70 13//70 9//70
