# Blender 4.0.0
# www.blender.org
o decimated_mesh
v -0.035812 0.187681 -0.022166
v -0.035806 0.188908 -0.014362
v -0.051241 0.189521 -0.019809
v -0.035807 0.183565 -0.022165
v -0.056073 0.189463 -0.014308
v -0.035807 0.184821 -0.014295
v -0.057358 0.180695 -0.014295
v -0.062875 0.180463 -0.022162
v -0.062973 0.186769 -0.014320
v -0.047801 0.188063 -0.022129
v -0.062972 0.180695 -0.014295
v -0.057214 0.189483 -0.018082
v -0.062971 0.187046 -0.017753
v -0.062966 0.182028 -0.022165
vn 0.0259 0.8631 -0.5043
vn 0.1137 -0.9922 -0.0504
vn -1.0000 -0.0012 0.0002
vn -0.0000 -0.0040 -1.0000
vn 0.0937 0.9835 -0.1548
vn 0.1858 -0.9703 0.1548
vn -0.3067 0.6282 -0.7150
vn -0.3615 0.9254 0.1142
vn -1.0000 0.0003 0.0008
vn 0.0003 -0.0015 -1.0000
vn 0.0031 0.0162 0.9999
vn 0.0023 -0.0018 -1.0000
vn 0.0030 -0.0017 -1.0000
vn -0.0031 -0.0002 -1.0000
vn -0.0008 0.0059 -1.0000
vn -0.2374 0.6011 -0.7631
vn -0.3851 0.9199 0.0740
vn 0.0274 0.9990 0.0346
vn -0.0044 1.0000 0.0066
vn -0.0000 -0.9996 0.0295
vn -0.9982 -0.0583 -0.0106
vn -1.0000 -0.0003 -0.0008
vn -1.0000 -0.0001 -0.0005
vn -0.2146 0.6512 -0.7279
vn 0.0032 -0.0040 -1.0000
vn 0.0003 -0.0017 -1.0000
vn -1.0000 0.0003 -0.0001
vn -1.0000 -0.0012 0.0010
vn -0.0000 -0.0002 -1.0000
vn -0.0027 0.0126 -0.9999
vn -0.0000 -0.0000 -1.0000
vn -1.0000 -0.0006 -0.0005
vn -1.0000 -0.0002 -0.0008
vn 0.0001 -0.0019 -1.0000
s 0
f 10//1 3//1 1//1
f 7//2 8//2 4//2
f 6//3 1//3 4//3
f 9//4 7//4 11//4
f 1//5 3//5 2//5
f 4//6 6//6 7//6
f 14//7 13//7 12//7
f 12//8 9//8 5//8
f 1//9 6//9 2//9
f 7//10 5//10 6//10
f 5//11 6//11 2//11
f 5//12 7//12 9//12
f 14//13 10//13 8//13
f 10//14 1//14 4//14
f 4//15 8//15 10//15
f 10//16 14//16 12//16
f 12//17 13//17 9//17
f 5//18 2//18 3//18
f 3//19 12//19 5//19
f 7//20 11//20 8//20
f 8//21 11//21 14//21
f 14//22 11//22 13//22
f 9//23 13//23 11//23
f 10//24 12//24 3//24
f 9//25 5//25 11//25
f 11//26 5//26 6//26
f 6//27 2//27 4//27
f 4//28 2//28 1//28
f 4//29 14//29 1//29
f 14//30 10//30 1//30
f 11//31 6//31 7//31
f 13//32 14//32 9//32
f 14//33 11//33 9//33
f 8//34 14//34 4//34
