# Blender 4.0.0
# www.blender.org
o decimated_mesh
v 0.053175 0.186056 -0.022570
v 0.053175 0.181827 -0.022570
v 0.053194 0.184508 -0.027914
v 0.053173 0.158819 -0.045328
v 0.076460 0.158819 -0.022570
v 0.056843 0.184723 -0.022570
v 0.053164 0.158846 -0.049440
v 0.080641 0.158819 -0.022570
v 0.057938 0.181630 -0.030177
v 0.053180 0.179758 -0.036962
v 0.063576 0.181428 -0.022572
v 0.055503 0.164829 -0.048081
v 0.080175 0.158814 -0.024904
v 0.053172 0.174181 -0.042882
v 0.059257 0.170975 -0.042910
v 0.061972 0.174197 -0.037842
v 0.078732 0.164047 -0.022597
v 0.063429 0.177734 -0.031368
v 0.057800 0.169537 -0.044767
v 0.053173 0.166423 -0.047827
v 0.065746 0.158816 -0.044998
v 0.068201 0.177697 -0.022570
v 0.068515 0.174559 -0.029499
v 0.068152 0.169593 -0.036574
v 0.074115 0.166534 -0.031106
v 0.068284 0.164070 -0.040860
v 0.065112 0.165920 -0.042188
v 0.074235 0.158820 -0.036435
v 0.076427 0.158848 -0.033337
v 0.072416 0.171832 -0.026599
v 0.074793 0.160787 -0.034814
v 0.074140 0.171392 -0.022570
vn -0.0000 -1.0000 0.0019
vn -0.0003 -0.0011 -1.0000
vn 0.5706 0.5775 -0.5839
vn 0.8106 0.5079 -0.2915
vn 0.7073 0.5757 -0.4102
vn 0.1923 0.5275 -0.8275
vn 0.5836 0.7451 -0.3228
vn 0.6947 0.2070 -0.6888
vn -0.3297 -0.9071 0.2616
vn 0.4926 0.7993 -0.3440
vn 0.4607 0.3495 -0.8159
vn 0.9234 0.3362 -0.1849
vn 0.4244 0.7510 -0.5058
vn 0.0360 0.2080 -0.9775
vn 0.4001 0.8747 -0.2734
vn 0.5289 0.3526 -0.7720
vn -0.0000 -1.0000 -0.0065
vn 0.0002 1.0000 -0.0007
vn -0.0001 1.0000 0.0001
vn -0.0163 0.9999 0.0027
vn 0.0029 1.0000 0.0027
vn -0.0002 0.0003 -1.0000
vn -0.0000 -0.0000 -1.0000
vn -0.0000 -0.0053 -1.0000
vn -0.0085 -0.0016 -1.0000
vn 0.7261 0.3028 -0.6174
vn 0.5369 0.5428 -0.6458
vn 0.5684 0.5129 -0.6433
vn 0.5469 0.5424 -0.6377
vn 0.8108 0.5077 -0.2913
vn 0.6942 0.5719 -0.4371
vn 0.8526 0.3890 -0.3490
vn 0.8511 0.3654 -0.3769
vn 0.2362 0.4796 -0.8451
vn 0.5975 0.7403 -0.3082
vn 0.8254 0.3716 -0.4250
vn 0.3189 0.6116 -0.7240
vn 0.3319 0.0838 -0.9396
vn 0.7917 0.2388 -0.5623
vn 0.7194 0.4365 -0.5403
vn 0.7208 0.4339 -0.5405
vn 0.4571 0.3622 -0.8123
vn 0.4891 0.4606 -0.7407
vn 0.7084 0.6673 -0.2301
vn 0.6801 0.6789 -0.2766
vn 0.3005 0.8443 -0.4437
vn 0.3685 0.6825 -0.6312
vn 0.3554 0.6801 -0.6412
vn 0.4241 0.7519 -0.5048
vn 0.5842 0.6497 -0.4864
vn 0.5840 0.6500 -0.4863
vn 0.4165 0.8515 -0.3186
vn 1.0000 -0.0048 0.0010
vn 1.0000 0.0003 -0.0015
vn 1.0000 -0.0000 0.0002
vn 1.0000 -0.0007 -0.0020
vn 1.0000 -0.0005 0.0004
vn 1.0000 -0.0000 0.0034
vn 0.9997 -0.0208 0.0094
vn 1.0000 -0.0032 0.0017
vn 1.0000 -0.0006 0.0002
vn 1.0000 -0.0000 -0.0004
vn 1.0000 0.0019 -0.0020
vn -0.0019 -0.0031 -1.0000
vn 0.4206 0.8600 -0.2890
vn 0.3865 0.8725 -0.2990
vn 1.0000 -0.0018 0.0030
vn 0.0002 1.0000 -0.0000
vn 0.0007 1.0000 -0.0008
vn -0.0347 -0.0179 -0.9992
vn 0.8107 0.5079 -0.2913
vn 0.8106 0.5078 -0.2915
vn 0.5842 0.6499 -0.4862
vn 0.5840 0.6499 -0.4864
vn 0.5399 0.5489 -0.6381
vn 0.5432 0.5370 -0.6454
vn 0.4640 0.3614 -0.8087
vn 0.4539 0.3541 -0.8177
vn -0.0020 1.0000 0.0015
vn -0.0485 0.9985 0.0255
s 0
f 13//1 8//1 5//1
f 22//2 2//2 11//2
f 2//3 5//3 4//3
f 25//4 32//4 17//4
f 23//5 30//5 25//5
f 19//6 20//6 14//6
f 11//7 23//7 18//7
f 26//8 28//8 21//8
f 1//9 3//9 6//9
f 11//10 18//10 9//10
f 27//11 12//11 19//11
f 17//12 8//12 13//12
f 18//13 16//13 10//13
f 7//14 20//14 12//14
f 11//15 9//15 3//15
f 27//16 26//16 21//16
f 7//17 21//17 4//17
f 21//18 4//18 28//18
f 4//19 5//19 28//19
f 28//20 5//20 29//20
f 29//21 5//21 13//21
f 11//22 2//22 6//22
f 6//23 2//23 1//23
f 2//23 22//23 5//23
f 5//24 17//24 8//24
f 17//25 5//25 32//25
f 32//23 5//23 22//23
f 28//26 26//26 31//26
f 16//27 24//27 27//27
f 24//28 26//28 27//28
f 27//29 15//29 16//29
f 25//30 30//30 32//30
f 25//31 24//31 23//31
f 25//32 17//32 13//32
f 13//33 29//33 25//33
f 19//34 12//34 20//34
f 22//35 23//35 11//35
f 31//36 25//36 29//36
f 15//37 19//37 14//37
f 12//38 21//38 7//38
f 29//39 28//39 31//39
f 24//40 25//40 26//40
f 26//41 25//41 31//41
f 21//42 12//42 27//42
f 19//43 15//43 27//43
f 22//44 32//44 30//44
f 23//45 22//45 30//45
f 10//46 3//46 9//46
f 10//47 16//47 15//47
f 15//48 14//48 10//48
f 9//49 18//49 10//49
f 18//50 23//50 16//50
f 23//51 24//51 16//51
f 3//52 6//52 11//52
f 3//53 2//53 10//53
f 10//54 4//54 14//54
f 14//55 4//55 20//55
f 20//56 4//56 7//56
f 4//57 10//57 2//57
f 2//58 3//58 1//58
f 2//23 1//23 22//23
f 22//23 1//23 6//23
f 3//59 1//59 10//59
f 10//60 1//60 14//60
f 14//61 1//61 7//61
f 7//62 1//62 2//62
f 7//63 2//63 4//63
f 5//23 22//23 8//23
f 8//23 22//23 32//23
f 11//64 22//64 6//64
f 11//65 9//65 6//65
f 9//66 3//66 6//66
f 20//67 14//67 7//67
f 21//68 4//68 13//68
f 13//69 4//69 5//69
f 17//70 8//70 32//70
f 17//71 30//71 32//71
f 17//72 25//72 30//72
f 24//73 18//73 23//73
f 24//74 16//74 18//74
f 24//75 15//75 16//75
f 24//76 27//76 15//76
f 27//77 21//77 19//77
f 21//78 12//78 19//78
f 28//79 21//79 13//79
f 28//80 13//80 29//80
