# Blender 4.0.0
# www.blender.org
o decimated_mesh
v -0.067330 0.088041 0.010263
v -0.066674 0.088050 0.008031
v -0.064091 0.070132 0.008779
v -0.066162 0.078311 0.008744
v -0.067250 0.088052 0.013848
v -0.066065 0.079017 0.017198
v -0.065497 0.088058 0.008108
v -0.049424 0.045450 0.010876
v -0.066607 0.088057 0.015878
v -0.064390 0.070153 0.017346
v -0.045657 0.042732 0.013917
v -0.046599 0.042730 0.012175
v -0.064162 0.068854 0.010678
v -0.054654 0.050352 0.010831
v -0.058440 0.055914 0.010565
v -0.064989 0.071517 0.011979
v -0.057849 0.055489 0.019364
v -0.066025 0.085122 0.017156
v -0.065576 0.088057 0.015878
v -0.045265 0.042732 0.018168
v -0.048705 0.042736 0.012619
v -0.058315 0.055163 0.011979
v -0.046404 0.042732 0.019813
v -0.053731 0.049733 0.019308
v -0.065148 0.088057 0.014041
v -0.048056 0.042740 0.019580
vn -0.0000 1.0000 -0.0000
vn -0.9507 -0.3087 0.0277
vn 0.0629 0.0914 0.9938
vn -0.9019 0.0090 0.4319
vn 0.8367 0.3082 -0.4526
vn -0.9630 -0.2318 -0.1376
vn -0.1557 -0.1751 -0.9722
vn -0.9500 -0.2414 -0.1982
vn -0.2329 0.0082 0.9725
vn -0.9202 -0.3888 0.0443
vn -0.1716 -0.5639 -0.8078
vn -0.5149 -0.5554 -0.6530
vn -0.9870 -0.1587 0.0246
vn -0.8006 -0.5557 -0.2240
vn -0.9173 -0.3946 0.0538
vn 0.4969 0.2814 0.8209
vn 0.7642 0.3692 0.5289
vn -0.4284 -0.3147 0.8470
vn 0.8889 0.4088 0.2069
vn -0.8757 -0.3847 -0.2918
vn -0.7922 -0.6089 0.0418
vn -0.0023 1.0000 0.0003
vn -0.0066 1.0000 0.0022
vn -0.0124 0.9999 -0.0028
vn -0.0022 1.0000 -0.0017
vn 0.5235 0.1429 -0.8399
vn -0.3236 -0.0860 -0.9423
vn -0.2582 -0.2208 -0.9405
vn -0.9145 -0.3976 0.0752
vn -0.9532 -0.0131 0.3020
vn -0.0000 0.3992 0.9169
vn -0.9070 -0.3999 -0.1318
vn -0.9809 -0.1843 0.0627
vn -0.9923 -0.1218 0.0224
vn -0.9922 -0.1225 0.0216
vn -0.9153 -0.3938 0.0845
vn -0.1400 -0.0909 0.9860
vn -0.9570 -0.0709 -0.2813
vn -0.4250 -0.0653 0.9029
vn 0.0021 1.0000 -0.0019
vn 0.0028 1.0000 -0.0003
vn 0.0045 1.0000 0.0031
vn 0.0016 1.0000 -0.0008
vn 0.0917 -0.0301 -0.9953
vn 0.0656 -0.0322 -0.9973
vn -0.7758 -0.6268 0.0728
vn -0.8123 -0.5815 0.0459
vn -0.7846 -0.6153 0.0766
vn -0.0226 0.9997 -0.0025
vn -0.0055 1.0000 -0.0007
vn -0.0064 1.0000 -0.0009
vn -0.0000 1.0000 0.0001
vn 0.0006 1.0000 0.0001
vn -0.9162 -0.3970 0.0538
vn -0.9167 -0.3904 0.0847
vn -0.8106 -0.5806 0.0768
vn -0.0002 1.0000 -0.0002
vn -0.0017 1.0000 0.0002
vn 0.0024 1.0000 -0.0002
vn -0.7915 -0.6103 0.0337
vn -0.7914 -0.6097 0.0432
vn 0.0051 1.0000 -0.0011
s 0
f 9//1 19//1 25//1
f 10//2 16//2 13//2
f 18//3 17//3 23//3
f 6//4 18//4 9//4
f 7//5 11//5 12//5
f 13//6 16//6 4//6
f 3//7 8//7 14//7
f 4//8 3//8 13//8
f 17//9 18//9 6//9
f 13//10 22//10 10//10
f 12//11 21//11 8//11
f 8//12 21//12 14//12
f 4//13 16//13 6//13
f 15//14 14//14 22//14
f 25//15 7//15 11//15
f 19//16 18//16 23//16
f 19//17 23//17 20//17
f 17//18 24//18 26//18
f 20//19 25//19 19//19
f 3//20 15//20 13//20
f 14//21 21//21 24//21
f 25//22 7//22 5//22
f 1//23 7//23 2//23
f 1//24 5//24 7//24
f 5//25 9//25 25//25
f 8//26 7//26 12//26
f 4//27 2//27 3//27
f 15//28 3//28 14//28
f 22//29 17//29 10//29
f 6//30 9//30 5//30
f 19//31 9//31 18//31
f 22//32 13//32 15//32
f 16//33 10//33 6//33
f 6//34 5//34 1//34
f 1//35 4//35 6//35
f 25//36 11//36 20//36
f 26//37 23//37 17//37
f 2//38 4//38 1//38
f 10//39 17//39 6//39
f 12//40 21//40 11//40
f 11//41 26//41 20//41
f 20//42 26//42 23//42
f 26//43 11//43 21//43
f 7//44 8//44 3//44
f 3//45 2//45 7//45
f 26//46 24//46 21//46
f 24//47 17//47 14//47
f 17//48 22//48 14//48
f 5//49 2//49 1//49
f 9//50 7//50 5//50
f 7//51 2//51 5//51
f 19//52 7//52 9//52
f 19//53 25//53 7//53
f 25//54 7//54 20//54
f 20//55 7//55 11//55
f 22//56 24//56 17//56
f 23//57 20//57 12//57
f 12//58 20//58 11//58
f 23//59 12//59 21//59
f 21//60 22//60 14//60
f 21//61 24//61 22//61
f 26//62 23//62 21//62
