# Blender 4.0.0
# www.blender.org
o decimated_mesh
v 0.024111 0.151705 0.009580
v 0.022990 0.151714 0.003365
v 0.024688 0.151165 0.011105
v 0.031262 0.148795 0.011072
v 0.021786 0.151715 0.010356
v 0.034982 0.146939 0.011077
v 0.024674 0.150994 0.002575
v 0.022075 0.151054 0.011057
v 0.048461 0.133545 0.011644
v 0.020036 0.151715 0.009780
v 0.047368 0.137256 0.011326
v 0.020406 0.151735 0.002245
v 0.050006 0.133548 0.011618
v 0.018283 0.151715 0.007852
v 0.047673 0.137122 0.009720
v 0.033312 0.147174 0.002434
v 0.039758 0.142347 0.002653
v 0.047656 0.133545 0.009915
v 0.050461 0.133545 0.009915
v 0.049648 0.134613 0.011263
v 0.017609 0.151721 0.003451
v 0.020302 0.150632 0.002321
v 0.047591 0.136639 0.004449
v 0.047356 0.133544 0.005132
v 0.049989 0.133551 0.004591
v 0.043550 0.138432 0.002637
v 0.048347 0.133560 0.004265
vn 0.1325 0.1323 -0.9823
vn 0.5102 0.3606 -0.7808
vn -0.0432 0.7180 0.6947
vn -0.2359 0.6567 0.7163
vn 0.7894 0.6100 -0.0683
vn 0.7553 0.6493 0.0895
vn 0.1866 0.8913 -0.4131
vn -0.0010 -0.9998 -0.0196
vn 0.5230 0.8486 -0.0789
vn 0.0175 0.0598 0.9981
vn 0.5989 0.7953 -0.0940
vn 0.0058 1.0000 0.0058
vn 0.1289 0.3260 -0.9365
vn -0.5226 -0.8171 0.2435
vn 0.8937 0.3801 0.2385
vn 0.5095 0.4216 0.7501
vn -0.5028 -0.7430 0.4417
vn 0.4458 0.8930 -0.0618
vn 0.0924 0.1435 0.9853
vn -0.4737 -0.8077 -0.3511
vn -0.5279 -0.7006 0.4800
vn 0.5307 0.5169 -0.6717
vn -0.3956 -0.0265 -0.9181
vn -0.2686 -0.5326 -0.8026
vn 0.1920 -0.1358 -0.9720
vn -0.0036 0.0189 0.9998
vn 0.0096 0.0685 0.9976
vn 0.7889 0.6144 -0.0103
vn 0.7886 0.6110 -0.0693
vn -0.0000 1.0000 0.0011
vn 0.0018 -1.0000 0.0019
vn -0.0000 1.0000 0.0001
vn -0.0030 1.0000 -0.0002
vn 0.1032 0.9493 0.2970
vn 0.5275 0.8489 -0.0333
vn 0.0164 0.0587 0.9981
vn -0.0019 -0.0011 1.0000
vn -0.0157 -0.0574 0.9982
vn 0.6033 0.7924 -0.0899
vn 0.5992 0.7963 -0.0824
vn -0.0041 1.0000 0.0020
vn 0.0023 1.0000 -0.0021
vn 0.0021 1.0000 -0.0064
vn 0.0014 1.0000 0.0011
vn 0.6145 0.7873 0.0513
vn 0.3331 0.9214 0.2002
vn 0.4022 0.9124 -0.0758
vn 0.3660 0.9284 -0.0648
vn 0.3873 0.9199 -0.0622
vn -0.4250 -0.7549 -0.4995
vn -0.0028 1.0000 0.0025
vn -0.0009 1.0000 0.0026
vn 0.0048 1.0000 0.0016
vn 0.0084 1.0000 -0.0002
vn -0.0111 0.0102 0.9999
vn 0.0218 0.0673 0.9975
vn 0.5225 0.8520 -0.0330
vn 0.5284 0.8452 -0.0798
vn -0.0027 1.0000 0.0014
vn -0.0003 1.0000 -0.0002
vn 0.0013 1.0000 -0.0005
vn -0.0185 0.0057 0.9998
vn 0.0164 0.0526 0.9985
vn 0.0319 0.0749 0.9967
vn 0.0425 0.0879 0.9952
vn 0.6043 0.7925 -0.0821
vn 0.6002 0.7944 -0.0928
vn 0.7886 0.6111 -0.0683
vn 0.7894 0.6099 -0.0694
s 0
f 26//1 16//1 17//1
f 25//2 26//2 23//2
f 3//3 5//3 8//3
f 5//4 10//4 8//4
f 25//5 23//5 15//5
f 20//6 15//6 11//6
f 2//7 7//7 12//7
f 27//8 25//8 24//8
f 24//9 21//9 14//9
f 8//10 9//10 6//10
f 16//11 6//11 17//11
f 12//12 14//12 2//12
f 7//13 16//13 12//13
f 9//14 14//14 18//14
f 13//15 19//15 20//15
f 13//16 20//16 11//16
f 14//17 9//17 8//17
f 16//18 4//18 6//18
f 13//19 11//19 6//19
f 22//20 24//20 21//20
f 14//21 8//21 10//21
f 23//22 26//22 17//22
f 21//23 12//23 22//23
f 22//24 26//24 27//24
f 25//25 27//25 26//25
f 26//26 16//26 22//26
f 22//27 16//27 12//27
f 20//28 19//28 15//28
f 19//29 25//29 15//29
f 25//30 18//30 19//30
f 19//31 13//31 9//31
f 18//32 9//32 19//32
f 18//33 25//33 24//33
f 1//34 5//34 3//34
f 24//35 14//35 18//35
f 13//36 6//36 9//36
f 6//37 4//37 8//37
f 4//38 3//38 8//38
f 6//39 15//39 17//39
f 17//40 15//40 23//40
f 12//41 21//41 14//41
f 14//42 10//42 1//42
f 10//43 5//43 1//43
f 1//44 2//44 14//44
f 15//45 6//45 11//45
f 3//46 4//46 1//46
f 16//47 7//47 4//47
f 7//48 2//48 1//48
f 1//49 4//49 7//49
f 22//50 27//50 24//50
f 14//51 10//51 12//51
f 10//52 5//52 12//52
f 5//53 1//53 12//53
f 1//54 2//54 12//54
f 16//55 12//55 26//55
f 26//56 12//56 22//56
f 24//57 21//57 18//57
f 18//58 21//58 14//58
f 25//59 24//59 19//59
f 19//60 24//60 9//60
f 9//61 24//61 18//61
f 9//62 3//62 8//62
f 13//63 3//63 9//63
f 13//64 4//64 3//64
f 13//65 6//65 4//65
f 15//66 23//66 6//66
f 23//67 17//67 6//67
f 15//68 19//68 23//68
f 19//69 25//69 23//69
