# Blender 4.0.0
# www.blender.org
o decimated_mesh
v -0.045257 0.042732 0.018167
v -0.046398 0.042732 0.019812
v 0.000571 0.024250 0.020230
v -0.046439 0.042734 0.012182
v 0.000571 0.023988 0.015001
v -0.048099 0.042716 0.019464
v -0.039205 0.037479 0.021262
v 0.000571 0.023657 0.021757
v -0.036276 0.033915 0.021408
v 0.000549 0.022613 0.021773
v 0.000587 0.023007 0.012887
v -0.048788 0.042732 0.014080
v -0.047451 0.041593 0.019216
v -0.033154 0.031256 0.021407
v 0.000562 0.022142 0.020092
v -0.047623 0.041314 0.012599
v -0.048334 0.042732 0.012372
v -0.020466 0.025282 0.012895
v -0.033374 0.030838 0.012662
v -0.016685 0.024820 0.021743
v 0.000571 0.022069 0.014506
v -0.007189 0.022855 0.012974
v -0.033507 0.030598 0.014209
v -0.037237 0.033265 0.012897
v -0.018249 0.024866 0.021361
v -0.006310 0.023020 0.021292
v -0.001493 0.021938 0.016260
v -0.010431 0.023022 0.015257
v -0.018388 0.024439 0.014072
vn -0.2177 -0.5139 0.8298
vn -0.0010 1.0000 -0.0003
vn 0.3532 0.9030 0.2447
vn 0.0745 -0.9971 0.0131
vn 0.1414 0.4386 0.8875
vn 0.3417 0.8761 0.3401
vn 1.0000 -0.0041 -0.0016
vn 0.3611 0.8468 -0.3906
vn -0.4504 -0.4326 0.7811
vn -0.0280 0.5444 0.8384
vn 0.1278 0.1797 0.9754
vn -0.0911 -0.7022 0.7061
vn -0.5464 -0.6415 0.5385
vn 0.1152 0.1349 0.9841
vn 0.3754 0.9257 -0.0462
vn -0.5314 -0.8290 -0.1744
vn -0.3539 -0.4862 -0.7990
vn -0.8554 -0.4654 -0.2274
vn -0.1653 -0.9164 -0.3646
vn -0.1345 -0.8861 0.4436
vn -0.3867 -0.9057 -0.1739
vn -0.2005 -0.0041 0.9797
vn 0.5928 0.7996 -0.0956
vn -0.8608 -0.5070 0.0438
vn -0.0692 -0.9855 -0.1551
vn 0.0015 1.0000 0.0028
vn -0.0081 1.0000 -0.0056
vn -0.0050 1.0000 0.0013
vn 0.9997 -0.0206 0.0134
vn 1.0000 -0.0001 0.0017
vn 1.0000 -0.0042 0.0002
vn 1.0000 -0.0018 0.0083
vn 0.0973 0.2047 0.9740
vn -0.0183 0.0054 0.9998
vn 0.0003 0.0153 0.9999
vn 0.0020 0.0415 0.9991
vn 0.3732 0.9248 -0.0734
vn -0.0095 -0.0839 -0.9964
vn -0.0066 -0.0571 -0.9983
vn -0.0036 -0.0443 -0.9990
vn -0.3180 -0.2238 0.9213
vn -0.1071 -0.9881 0.1100
vn -0.1514 -0.9831 0.1031
vn -0.1297 -0.9876 0.0882
vn -0.1838 -0.9811 0.0610
vn 0.0113 -0.8653 -0.5011
vn -0.3761 -0.9245 0.0614
vn -0.3917 -0.9144 0.1027
vn -0.3773 -0.9261 0.0028
vn -0.0758 -0.9602 0.2688
vn -0.6127 -0.7888 0.0492
vn 0.6021 0.7919 -0.1019
vn -0.7212 -0.6869 0.0902
vn 0.1427 0.9893 0.0288
vn 0.0984 0.1478 0.9841
vn -0.0005 1.0000 0.0002
vn 0.0003 1.0000 0.0002
vn 0.1715 0.2390 0.9558
vn -0.7469 -0.6633 0.0474
vn -0.8505 -0.5150 0.1072
vn -0.0101 0.9999 0.0042
vn 0.9998 0.0181 -0.0009
vn 1.0000 0.0039 0.0015
vn 1.0000 -0.0085 0.0024
vn 0.9999 -0.0128 0.0019
vn 0.5931 0.7986 -0.1020
vn 0.5987 0.7967 -0.0824
vn 0.0025 0.0428 0.9991
vn 0.0020 0.0411 0.9992
vn 0.1106 0.9902 0.0847
vn 0.1525 0.9776 0.1450
vn -0.0379 -0.0449 0.9983
s 0
f 20//1 14//1 25//1
f 12//2 4//2 17//2
f 1//3 2//3 3//3
f 21//4 15//4 27//4
f 2//5 7//5 8//5
f 2//6 8//6 3//6
f 3//7 8//7 15//7
f 4//8 5//8 11//8
f 13//9 9//9 6//9
f 29//10 28//10 27//10
f 4//11 16//11 19//11
f 10//12 20//12 26//12
f 13//13 14//13 9//13
f 9//14 14//14 7//14
f 5//15 1//15 3//15
f 19//16 23//16 24//16
f 19//17 24//17 16//17
f 12//18 17//18 16//18
f 18//19 22//19 29//19
f 25//20 26//20 20//20
f 18//21 23//21 19//21
f 7//22 2//22 6//22
f 14//23 24//23 13//23
f 6//24 16//24 13//24
f 27//25 22//25 21//25
f 12//26 6//26 4//26
f 2//27 1//27 6//27
f 1//28 4//28 6//28
f 10//29 15//29 8//29
f 15//30 21//30 5//30
f 3//31 15//31 5//31
f 21//32 11//32 5//32
f 16//33 4//33 17//33
f 14//34 20//34 7//34
f 20//35 10//35 8//35
f 8//36 7//36 20//36
f 5//37 4//37 1//37
f 22//38 18//38 11//38
f 18//39 19//39 11//39
f 19//40 4//40 11//40
f 6//41 9//41 7//41
f 15//42 26//42 27//42
f 26//43 25//43 28//43
f 27//44 26//44 28//44
f 25//45 29//45 28//45
f 21//46 22//46 11//46
f 29//47 25//47 23//47
f 25//48 14//48 23//48
f 29//49 23//49 18//49
f 10//50 26//50 15//50
f 16//51 24//51 13//51
f 24//52 14//52 23//52
f 6//53 12//53 16//53
f 27//54 22//54 29//54
f 19//55 4//55 17//55
f 12//56 2//56 4//56
f 2//57 1//57 4//57
f 16//58 19//58 17//58
f 16//59 13//59 12//59
f 13//60 6//60 12//60
f 6//61 2//61 12//61
f 3//62 11//62 5//62
f 3//63 8//63 11//63
f 8//64 15//64 11//64
f 15//65 21//65 11//65
f 14//66 23//66 13//66
f 13//67 23//67 24//67
f 9//68 8//68 7//68
f 9//69 20//69 8//69
f 27//70 22//70 28//70
f 28//71 22//71 29//71
f 20//72 9//72 14//72
