# Blender 4.0.0
# www.blender.org
o decimated_mesh
v 0.000018 0.154514 0.002000
v 0.000027 0.155705 0.001985
v 0.020778 0.151698 0.002229
v 0.008038 0.152982 0.002632
v 0.000018 0.154006 0.003727
v 0.000024 0.156224 0.003704
v 0.017514 0.151717 0.003476
v 0.021521 0.151686 0.010376
v 0.000014 0.154613 0.009617
v 0.000021 0.156331 0.007810
v 0.018273 0.153494 0.002338
v 0.008632 0.155123 0.002594
v 0.022979 0.151717 0.003341
v 0.000018 0.155706 0.009729
v 0.005164 0.156066 0.007852
v 0.019817 0.153553 0.009307
v 0.023798 0.151715 0.009768
v 0.019104 0.153023 0.011093
v 0.003898 0.155084 0.010960
v 0.007916 0.155179 0.010951
v 0.012766 0.155124 0.009175
vn -1.0000 0.0025 -0.0011
vn 0.1659 0.8894 0.4259
vn 0.0974 0.6889 -0.7182
vn -0.1050 -0.9599 -0.2601
vn -0.1590 -0.9471 -0.2789
vn 0.1370 0.9879 -0.0731
vn 0.3697 0.5610 -0.7407
vn 0.2581 -0.0513 0.9647
vn -0.0191 0.8669 0.4981
vn 0.0007 0.0698 0.9976
vn 0.1131 0.9883 -0.1025
vn 0.0156 0.9507 0.3098
vn 0.3480 0.8519 0.3914
vn 0.1117 0.6190 -0.7774
vn 0.1975 0.9156 0.3502
vn 0.0854 0.9754 0.2033
vn -0.3149 -0.0959 0.9443
vn -0.0976 -0.7704 -0.6301
vn -1.0000 0.0042 0.0002
vn -1.0000 0.0031 -0.0009
vn -1.0000 0.0025 -0.0025
vn -1.0000 0.0073 0.0022
vn 0.0849 0.9541 -0.2874
vn 0.4237 0.9042 -0.0537
vn 0.3685 0.9253 -0.0895
vn 0.0092 -0.0131 -0.9999
vn 0.0320 0.1054 -0.9939
vn 0.0002 1.0000 0.0045
vn 0.0122 -0.9999 -0.0019
vn -0.0003 0.9999 -0.0160
vn 0.1123 0.9885 -0.1017
vn 0.1386 0.9874 -0.0759
vn 0.0518 0.9983 -0.0262
vn 0.1372 0.9868 -0.0863
vn 0.2182 0.9743 -0.0566
vn 0.1631 0.9813 -0.1026
vn 0.1124 0.7901 -0.6026
vn 0.0483 0.9708 0.2350
vn -1.0000 0.0072 -0.0040
vn -1.0000 -0.0020 -0.0006
vn -1.0000 0.0033 -0.0007
vn -1.0000 0.0042 -0.0009
vn -0.0096 1.0000 0.0024
vn 0.0062 1.0000 0.0010
vn 0.1300 0.9912 0.0257
vn 0.1284 0.9892 -0.0700
vn 0.1377 0.9853 -0.1014
vn 0.1263 0.7635 -0.6333
vn 0.0868 0.5884 -0.8039
s 0
f 5//1 9//1 6//1
f 18//2 21//2 20//2
f 2//3 12//3 11//3
f 4//4 3//4 7//4
f 4//5 5//5 1//5
f 4//6 9//6 8//6
f 3//7 11//7 13//7
f 18//8 8//8 17//8
f 20//9 14//9 19//9
f 18//10 20//10 19//10
f 12//11 6//11 15//11
f 10//12 14//12 20//12
f 17//13 16//13 18//13
f 18//14 8//14 9//14
f 21//15 18//15 16//15
f 20//16 21//16 15//16
f 19//17 14//17 9//17
f 3//18 4//18 1//18
f 14//19 10//19 9//19
f 10//20 6//20 9//20
f 6//21 2//21 5//21
f 2//22 1//22 5//22
f 6//23 12//23 2//23
f 17//24 13//24 16//24
f 13//25 11//25 16//25
f 3//26 1//26 2//26
f 2//27 11//27 3//27
f 8//28 13//28 7//28
f 17//29 8//29 13//29
f 7//30 13//30 3//30
f 9//31 4//31 5//31
f 4//32 8//32 7//32
f 10//33 15//33 6//33
f 15//34 21//34 12//34
f 21//35 16//35 11//35
f 12//36 21//36 11//36
f 18//37 9//37 19//37
f 10//38 20//38 15//38
f 1//39 6//39 2//39
f 5//40 9//40 1//40
f 9//41 10//41 1//41
f 10//42 6//42 1//42
f 13//43 3//43 8//43
f 8//44 3//44 7//44
f 4//45 5//45 7//45
f 7//46 5//46 8//46
f 8//47 5//47 9//47
f 8//48 9//48 19//48
f 18//49 8//49 19//49
