# Blender 4.0.0
# www.blender.org
o decimated_mesh
v 0.016385 0.172755 -0.014184
v 0.016260 0.174062 -0.014179
v 0.018769 0.171624 -0.002745
v 0.017820 0.171379 -0.014170
v 0.016422 0.173595 -0.011249
v 0.018389 0.173597 -0.001218
v 0.020086 0.171144 0.000854
v 0.018881 0.171347 -0.014179
v 0.021244 0.170499 0.000854
v 0.019650 0.173189 0.000848
v 0.023076 0.170842 0.000854
v 0.032809 0.184042 -0.014179
v 0.023080 0.180559 -0.001789
v 0.032809 0.180316 0.000854
v 0.032809 0.188090 -0.014179
v 0.024582 0.179996 0.000854
v 0.021102 0.181100 -0.014179
v 0.032696 0.185243 0.000864
v 0.030500 0.186110 -0.002585
v 0.029146 0.186010 -0.004350
v 0.032806 0.187222 -0.004156
v 0.027749 0.186323 -0.014178
vn -0.8103 0.5654 0.1541
vn -0.8835 -0.3811 0.2725
vn -0.0311 -0.9982 -0.0514
vn -0.8551 -0.1812 0.4858
vn 0.1835 -0.9794 -0.0841
vn 0.9993 0.0228 0.0308
vn -0.0091 -0.0199 -0.9998
vn -0.9946 -0.0957 0.0399
vn -0.4826 -0.8739 0.0588
vn -0.8827 -0.4488 0.1396
vn -0.4872 0.7218 0.4916
vn -0.6991 0.5061 0.5051
vn 0.6589 -0.7229 -0.2081
vn -0.3287 0.9413 0.0767
vn 0.0001 -0.0020 1.0000
vn -0.0016 0.0003 1.0000
vn 0.0016 0.0033 1.0000
vn -0.0004 0.0021 1.0000
vn -0.0000 -0.0000 1.0000
vn -0.5323 0.7638 0.3651
vn -0.8163 0.5617 0.1347
vn -0.8126 0.5606 0.1592
vn -0.9296 -0.3202 0.1823
vn -0.6139 0.7814 0.1121
vn -0.6305 0.7645 0.1341
vn -0.1982 0.9134 0.3557
vn 1.0000 0.0005 0.0001
vn 1.0000 -0.0000 0.0003
vn -0.0000 -0.0000 -1.0000
vn 0.0046 0.0045 -1.0000
vn -0.0000 0.0002 -1.0000
vn -0.0001 -0.0000 -1.0000
vn 0.0001 -0.0001 -1.0000
vn -0.4856 -0.8720 0.0614
vn -0.6906 -0.7196 0.0728
vn -0.4885 0.7545 0.4383
vn -0.6881 0.5063 0.5197
vn 0.6867 -0.7055 -0.1749
vn -0.3177 0.9287 0.1911
vn -0.3172 0.9448 0.0817
vn -0.0052 0.0035 -1.0000
vn -0.0005 0.0009 -1.0000
vn -0.0004 0.0007 -1.0000
vn 0.0003 -0.0000 -1.0000
vn 0.0013 -0.0014 -1.0000
vn 1.0000 0.0007 0.0004
vn 1.0000 -0.0000 -0.0000
vn -0.6915 0.5007 0.5207
vn -0.6963 0.5105 0.5045
vn -0.5055 0.7394 0.4447
vn 0.0001 -0.0008 1.0000
vn -0.0004 -0.0004 1.0000
vn -0.0018 0.0009 1.0000
vn -0.0041 0.0021 1.0000
vn 0.0020 -0.0020 1.0000
vn -0.4748 0.7333 0.4866
s 0
f 13//1 17//1 5//1
f 6//2 3//2 7//2
f 4//3 8//3 9//3
f 6//4 7//4 10//4
f 8//5 11//5 9//5
f 21//6 18//6 14//6
f 8//7 4//7 1//7
f 2//8 1//8 5//8
f 9//9 3//9 4//9
f 3//10 5//10 1//10
f 13//11 18//11 19//11
f 13//12 10//12 16//12
f 12//13 11//13 8//13
f 15//14 22//14 20//14
f 18//15 16//15 14//15
f 16//16 10//16 11//16
f 10//17 7//17 9//17
f 9//18 11//18 10//18
f 11//19 14//19 16//19
f 20//20 13//20 19//20
f 2//21 5//21 17//21
f 5//22 6//22 13//22
f 3//23 6//23 5//23
f 22//24 17//24 20//24
f 17//25 13//25 20//25
f 19//26 18//26 21//26
f 14//27 12//27 21//27
f 12//28 15//28 21//28
f 2//29 17//29 8//29
f 1//30 2//30 8//30
f 17//31 22//31 12//31
f 22//32 15//32 12//32
f 12//33 8//33 17//33
f 9//34 7//34 3//34
f 4//35 3//35 1//35
f 13//36 16//36 18//36
f 13//37 6//37 10//37
f 12//38 14//38 11//38
f 20//39 19//39 21//39
f 21//40 15//40 20//40
f 17//41 1//41 2//41
f 17//42 22//42 1//42
f 22//43 15//43 1//43
f 15//44 12//44 1//44
f 12//45 8//45 1//45
f 21//46 14//46 15//46
f 14//47 12//47 15//47
f 10//48 16//48 6//48
f 16//49 13//49 6//49
f 16//50 19//50 13//50
f 11//51 18//51 9//51
f 18//52 7//52 9//52
f 18//53 16//53 7//53
f 16//54 10//54 7//54
f 18//55 11//55 14//55
f 18//56 19//56 16//56
