# Blender 4.0.0
# www.blender.org
o decimated_mesh
v -0.073238 0.133700 -0.015606
v -0.075501 0.133869 -0.012969
v -0.071717 0.134070 -0.022165
v -0.076365 0.134423 -0.011733
v -0.074151 0.134009 -0.022162
v -0.071231 0.135423 -0.022165
v -0.070686 0.137495 0.001181
v -0.080465 0.140587 -0.012392
v -0.073583 0.134067 -0.008652
v -0.074332 0.134358 -0.005723
v -0.070464 0.139760 0.001180
v -0.071723 0.136199 0.001181
v -0.074147 0.137080 0.001173
v -0.078960 0.140804 -0.022164
v -0.075170 0.156350 0.001181
v -0.072886 0.136194 0.001181
v -0.077535 0.154682 -0.022165
v -0.079514 0.156350 0.001181
v -0.078521 0.156350 -0.014292
v -0.078338 0.143722 0.001153
v -0.083051 0.149020 -0.012595
v -0.082910 0.149011 -0.015419
v -0.081525 0.154682 -0.022165
v -0.082641 0.156372 -0.013867
v -0.081513 0.151122 -0.002665
v -0.081724 0.149071 -0.022164
v -0.080839 0.156351 -0.001762
v -0.080293 0.152345 0.001132
vn -0.0754 -0.9940 0.0792
vn 0.9411 -0.3380 0.0081
vn 0.8086 0.5722 0.1373
vn 0.2524 -0.9544 0.1591
vn -0.9870 0.0669 -0.1464
vn -0.0155 0.9793 -0.2016
vn 0.9951 -0.0978 -0.0145
vn -0.7675 -0.5889 0.2532
vn -0.9555 -0.2711 0.1162
vn -0.5457 -0.7743 0.3204
vn -0.9547 -0.2939 -0.0466
vn 0.0248 -0.9984 -0.0505
vn -0.9840 0.1015 0.1467
vn 0.5235 0.8444 -0.1134
vn -0.0000 1.0000 0.0003
vn 0.0037 -0.9666 0.2564
vn 0.7796 -0.6236 0.0571
vn -0.0009 0.0003 -1.0000
vn -0.6394 -0.7616 -0.1055
vn -0.1106 -0.9934 -0.0314
vn -0.4018 -0.9070 0.1260
vn -0.5647 0.8222 -0.0714
vn -0.9329 -0.2901 0.2136
vn -0.9335 -0.3252 -0.1510
vn -0.0137 -0.9986 0.0520
vn 0.8156 0.5586 0.1509
vn -0.8196 -0.5163 0.2482
vn -0.8187 -0.5181 0.2474
vn -0.9843 0.0347 -0.1728
vn -0.0000 0.9783 -0.2073
vn 0.0030 -0.0011 -1.0000
vn 0.0029 -0.0049 -1.0000
vn -0.0000 -0.0000 -1.0000
vn 0.0024 -0.0003 -1.0000
vn 0.0041 0.0012 -1.0000
vn -0.0000 0.0122 -0.9999
vn 0.0097 -0.0002 -1.0000
vn -0.9466 -0.3099 0.0887
vn -0.9561 0.0743 0.2833
vn -0.9875 0.0786 0.1363
vn 0.0055 1.0000 0.0009
vn 0.0002 1.0000 -0.0000
vn -0.9977 0.0469 -0.0498
vn -0.9105 -0.2056 0.3588
vn -0.0005 -0.0006 -1.0000
vn -0.0001 -0.0000 -1.0000
vn -0.0000 -0.0001 -1.0000
vn -0.5354 0.8411 -0.0769
vn -0.9371 -0.2824 0.2049
vn -0.8985 0.1699 0.4047
vn -0.9350 -0.3126 -0.1672
vn -0.5120 0.8561 -0.0706
vn 0.8072 0.5712 0.1487
vn -0.5509 0.8311 -0.0759
vn 0.8178 0.5587 0.1384
vn -0.0002 -0.0001 -1.0000
vn -0.9438 -0.3090 0.1177
vn -0.9588 -0.2720 0.0820
vn 0.0002 0.0001 1.0000
vn -0.0000 -0.0000 1.0000
vn -0.0083 -0.0027 1.0000
vn -0.0097 -0.0031 0.9999
vn 0.0053 1.0000 -0.0011
vn -0.0000 1.0000 0.0015
vn -0.0049 1.0000 0.0025
vn -0.0348 -0.0055 0.9994
s 0
f 10//1 2//1 9//1
f 3//2 6//2 7//2
f 8//3 5//3 14//3
f 12//4 10//4 9//4
f 23//5 22//5 24//5
f 19//6 23//6 24//6
f 7//7 6//7 11//7
f 4//8 10//8 13//8
f 11//9 15//9 17//9
f 10//10 16//10 13//10
f 8//11 21//11 22//11
f 1//12 5//12 3//12
f 24//13 25//13 27//13
f 15//14 17//14 19//14
f 27//15 18//15 15//15
f 16//16 10//16 12//16
f 7//17 12//17 3//17
f 6//18 3//18 5//18
f 5//19 2//19 4//19
f 1//20 2//20 5//20
f 4//21 2//21 10//21
f 1//22 9//22 12//22
f 8//23 20//23 25//23
f 22//24 14//24 8//24
f 1//25 9//25 2//25
f 5//26 8//26 4//26
f 13//27 20//27 8//27
f 8//28 4//28 13//28
f 23//29 26//29 22//29
f 19//30 17//30 23//30
f 20//31 11//31 13//31
f 13//32 7//32 16//32
f 16//33 7//33 12//33
f 7//34 13//34 11//34
f 11//35 20//35 15//35
f 15//36 28//36 18//36
f 28//37 15//37 20//37
f 11//38 17//38 6//38
f 25//39 28//39 27//39
f 24//40 21//40 25//40
f 24//41 27//41 19//41
f 19//42 27//42 15//42
f 24//43 22//43 21//43
f 20//44 28//44 25//44
f 5//45 14//45 6//45
f 14//46 26//46 17//46
f 26//47 23//47 17//47
f 17//46 6//46 14//46
f 1//48 12//48 3//48
f 25//49 21//49 8//49
f 28//50 18//50 27//50
f 22//51 26//51 14//51
f 3//52 1//52 9//52
f 4//53 5//53 14//53
f 12//54 3//54 9//54
f 8//55 4//55 14//55
f 26//46 6//46 14//46
f 26//56 23//56 6//56
f 23//33 17//33 6//33
f 17//57 6//57 15//57
f 15//58 6//58 11//58
f 11//59 15//59 7//59
f 15//60 18//60 16//60
f 15//60 16//60 12//60
f 15//60 12//60 7//60
f 18//61 13//61 16//61
f 18//62 20//62 13//62
f 19//63 24//63 15//63
f 24//64 18//64 15//64
f 24//65 27//65 18//65
f 28//66 20//66 18//66
