# Blender 4.0.0
# www.blender.org
o decimated_mesh
v -0.041938 0.181800 -0.037031
v -0.035907 0.179700 -0.038691
v -0.036901 0.177862 -0.040707
v -0.049744 0.176274 -0.042461
v -0.034439 0.180268 -0.037056
v -0.041145 0.174774 -0.043755
v -0.048036 0.174991 -0.043756
v -0.053241 0.179566 -0.037050
v -0.033004 0.175705 -0.040631
v -0.053244 0.173161 -0.043666
v -0.053241 0.174104 -0.037050
v -0.029372 0.172907 -0.040697
v -0.053241 0.165340 -0.043758
v -0.034646 0.158186 -0.043752
v -0.032845 0.159042 -0.042533
v -0.034019 0.170554 -0.043758
v -0.025711 0.164572 -0.037050
v -0.027392 0.174855 -0.037051
v -0.032470 0.158837 -0.043758
v -0.024268 0.164876 -0.037075
v -0.025009 0.165901 -0.040215
v -0.028856 0.161245 -0.042724
v -0.029909 0.163615 -0.043753
v -0.029921 0.161238 -0.043750
v -0.022879 0.167251 -0.037042
v -0.024393 0.165046 -0.039165
vn 0.7270 -0.2577 -0.6364
vn 0.0219 0.6925 -0.7211
vn 0.2349 0.5972 -0.7669
vn 0.3470 0.6015 -0.7196
vn -0.0038 0.0030 -1.0000
vn 0.4835 0.6290 -0.6088
vn -1.0000 -0.0004 0.0005
vn 0.5605 -0.5932 -0.5779
vn 0.8599 -0.5020 -0.0921
vn 0.1763 0.8700 -0.4605
vn 0.4166 -0.8673 0.2725
vn 0.2790 -0.9296 0.2408
vn 0.2716 0.4609 -0.8449
vn 0.6916 0.4098 -0.5947
vn 0.6826 -0.1827 -0.7076
vn 0.6900 -0.7170 -0.0994
vn 0.8399 -0.0574 -0.5397
vn -0.0017 -0.0000 1.0000
vn -0.0002 -0.0005 -1.0000
vn 0.0232 -0.0273 0.9994
vn 0.0024 0.0002 -1.0000
vn 0.0006 -0.0000 -1.0000
vn -0.0022 0.0057 -1.0000
vn -0.2057 0.5457 -0.8123
vn -0.0068 0.7057 -0.7084
vn 0.0619 0.7221 -0.6890
vn 0.0147 0.6922 -0.7216
vn -0.1921 -0.5548 0.8095
vn 0.2280 0.5918 -0.7732
vn 0.0047 -0.0016 -1.0000
vn 0.0003 -0.0001 -1.0000
vn -0.0213 0.0117 -0.9997
vn 0.0001 0.0002 -1.0000
vn -0.0007 -0.0005 -1.0000
vn 0.0003 -0.0005 -1.0000
vn 0.4804 0.6379 -0.6019
vn 0.4530 0.6337 -0.6271
vn -1.0000 -0.0000 0.0004
vn -0.1563 0.7957 -0.5851
vn 0.5868 -0.0042 -0.8098
vn 0.3259 0.4429 -0.8352
vn 0.2719 0.4597 -0.8454
vn 0.6833 0.3827 -0.6218
vn 0.4369 0.2582 -0.8617
vn 0.4890 0.2469 -0.8366
vn 0.1783 -0.7991 0.5741
vn -0.3711 0.6673 -0.6458
vn 0.5286 -0.8415 0.1117
vn 0.0006 0.0016 -1.0000
vn -0.0027 -0.0028 -1.0000
vn -0.0048 -0.0071 -1.0000
vn 0.0180 0.6944 -0.7194
vn 0.0217 0.6871 -0.7262
vn 0.0001 0.0009 -1.0000
vn -0.0001 0.0003 -1.0000
vn 0.2291 0.5916 -0.7730
vn 0.0007 0.0020 -1.0000
vn 0.4864 0.6328 -0.6024
vn 0.4744 0.6305 -0.6144
vn 0.0015 0.0002 -1.0000
vn -0.0000 -0.0000 -1.0000
vn 0.2316 0.6012 -0.7648
vn -0.0015 -0.0047 -1.0000
s 0
f 21//1 26//1 22//1
f 6//2 7//2 1//2
f 11//3 15//3 14//3
f 2//4 9//4 3//4
f 23//5 19//5 14//5
f 5//6 18//6 9//6
f 10//7 13//7 11//7
f 22//8 19//8 24//8
f 26//9 25//9 20//9
f 5//10 2//10 1//10
f 15//11 19//11 20//11
f 15//12 14//12 19//12
f 6//13 3//13 9//13
f 18//14 25//14 12//14
f 22//15 24//15 21//15
f 22//16 26//16 20//16
f 21//17 25//17 26//17
f 1//18 8//18 11//18
f 11//19 5//19 17//19
f 17//20 20//20 25//20
f 25//21 17//21 18//21
f 18//22 17//22 5//22
f 5//23 11//23 1//23
f 10//24 4//24 7//24
f 7//25 4//25 1//25
f 1//26 2//26 3//26
f 3//27 6//27 1//27
f 15//28 17//28 11//28
f 11//29 14//29 13//29
f 24//30 19//30 23//30
f 14//31 13//31 6//31
f 13//32 10//32 7//32
f 7//33 6//33 13//33
f 6//34 16//34 14//34
f 16//35 23//35 14//35
f 12//36 9//36 18//36
f 9//37 2//37 5//37
f 8//38 10//38 11//38
f 8//39 1//39 4//39
f 21//40 24//40 23//40
f 12//41 16//41 9//41
f 9//42 16//42 6//42
f 25//43 21//43 12//43
f 23//44 16//44 12//44
f 12//45 21//45 23//45
f 17//46 15//46 20//46
f 10//47 8//47 4//47
f 20//48 19//48 22//48
f 11//49 1//49 25//49
f 25//50 1//50 18//50
f 18//51 1//51 5//51
f 3//52 7//52 1//52
f 3//53 6//53 7//53
f 6//54 16//54 7//54
f 16//55 13//55 7//55
f 13//56 11//56 15//56
f 17//57 11//57 25//57
f 12//58 5//58 18//58
f 12//59 9//59 5//59
f 23//60 19//60 16//60
f 19//61 13//61 16//61
f 14//62 13//62 15//62
f 19//63 14//63 13//63
