# Blender 4.0.0
# www.blender.org
o decimated_mesh
v -0.032005 0.148490 0.009948
v -0.035125 0.146834 0.011087
v -0.032006 0.147804 0.011140
v -0.032020 0.147505 0.002422
v -0.033525 0.147055 0.002479
v -0.047359 0.137255 0.011326
v -0.047867 0.136940 0.009602
v -0.032007 0.146386 0.011144
v -0.032006 0.146245 0.002337
v -0.043527 0.138435 0.002636
v -0.039636 0.142422 0.002625
v -0.047581 0.136638 0.004450
v -0.050260 0.133599 0.011504
v -0.048223 0.133546 0.011621
v -0.032006 0.145678 0.003727
v -0.039194 0.140632 0.002695
v -0.048635 0.133543 0.004263
v -0.049160 0.134755 0.004672
v -0.047359 0.133545 0.005790
v -0.047153 0.134082 0.004270
v -0.050174 0.133546 0.005584
vn -0.6030 0.7925 -0.0917
vn -0.2883 0.9495 -0.1238
vn -0.4095 0.1272 -0.9034
vn -0.7879 0.6123 -0.0648
vn -0.0706 0.0660 -0.9953
vn -0.7754 0.6209 0.1153
vn 0.1265 -0.2236 -0.9664
vn -0.0493 0.0878 0.9949
vn -0.5029 0.3274 -0.8000
vn -0.5297 0.5150 -0.6740
vn 0.5917 -0.7820 -0.1958
vn 0.2815 -0.5337 -0.7974
vn 0.1754 -0.4706 -0.8647
vn -0.6510 -0.0263 -0.7586
vn 0.6244 -0.7776 0.0743
vn 0.5757 -0.7570 -0.3089
vn 0.3300 -0.9033 -0.2740
vn -0.0179 0.0031 0.9998
vn 1.0000 -0.0001 0.0012
vn 1.0000 -0.0008 0.0001
vn -0.9999 -0.0107 -0.0044
vn -1.0000 -0.0056 0.0028
vn -0.6041 0.7917 -0.0907
vn -0.5986 0.7970 -0.0800
vn -0.4871 0.8707 -0.0682
vn -0.8175 0.5757 -0.0170
vn -0.7685 0.6349 -0.0799
vn -0.0644 0.0536 -0.9965
vn -0.0575 0.0663 -0.9961
vn -0.2679 0.8350 0.4805
vn 0.0256 0.9997 0.0037
vn 0.0009 1.0000 -0.0088
vn 0.0005 1.0000 -0.0022
vn -0.6156 0.7872 0.0377
vn 0.6198 -0.7794 0.0919
vn 0.5787 -0.7686 -0.2727
vn -0.0544 0.0936 0.9941
vn -0.0110 0.0510 0.9986
vn -1.0000 0.0003 0.0001
vn -0.9999 -0.0112 0.0035
vn -0.0423 0.0817 0.9958
vn 0.0270 0.0031 0.9996
vn -0.0634 0.0554 -0.9964
vn -0.0828 0.0780 -0.9935
vn -0.6018 0.7902 -0.1156
vn -0.6012 0.7939 -0.0913
vn -0.6055 0.7918 -0.0800
vn -0.0521 0.0913 0.9945
vn -0.0545 0.0918 0.9943
vn 0.0263 0.9996 -0.0085
vn 0.0018 1.0000 -0.0006
vn -0.0017 1.0000 -0.0004
s 0
f 2//1 5//1 11//1
f 1//2 4//2 5//2
f 18//3 10//3 17//3
f 18//4 21//4 7//4
f 9//5 10//5 11//5
f 6//6 7//6 13//6
f 9//7 16//7 10//7
f 2//8 6//8 13//8
f 10//9 18//9 12//9
f 10//10 12//10 11//10
f 15//11 19//11 20//11
f 16//12 20//12 10//12
f 10//13 20//13 17//13
f 17//14 21//14 18//14
f 8//15 19//15 15//15
f 15//16 16//16 9//16
f 19//17 17//17 20//17
f 8//18 3//18 2//18
f 1//19 3//19 8//19
f 8//20 15//20 1//20
f 15//21 4//21 9//21
f 4//22 15//22 1//22
f 7//23 2//23 11//23
f 11//24 12//24 7//24
f 1//25 5//25 2//25
f 21//26 13//26 7//26
f 12//27 18//27 7//27
f 11//28 5//28 9//28
f 5//29 4//29 9//29
f 2//30 3//30 1//30
f 19//31 13//31 14//31
f 13//32 19//32 21//32
f 21//33 19//33 17//33
f 2//34 7//34 6//34
f 8//35 14//35 19//35
f 15//36 20//36 16//36
f 2//37 13//37 14//37
f 8//38 2//38 14//38
f 15//39 1//39 9//39
f 9//40 1//40 4//40
f 2//41 14//41 3//41
f 14//42 8//42 3//42
f 10//43 5//43 9//43
f 10//44 11//44 5//44
f 11//45 12//45 5//45
f 12//46 2//46 5//46
f 12//47 7//47 2//47
f 6//48 14//48 2//48
f 6//49 13//49 14//49
f 13//50 14//50 21//50
f 21//51 14//51 17//51
f 17//52 14//52 19//52
