# Blender 4.0.0
# www.blender.org
o decimated_mesh
v -0.067045 0.187950 -0.014295
v -0.062975 0.186788 -0.014305
v -0.066231 0.188459 -0.015408
v -0.068748 0.188393 -0.015303
v -0.069361 0.187031 -0.014305
v -0.066597 0.188560 -0.017681
v -0.068645 0.188394 -0.017919
v -0.070424 0.187348 -0.016392
v -0.062966 0.187089 -0.017772
v -0.062954 0.170842 -0.014404
v -0.070236 0.186414 -0.018187
v -0.070346 0.184847 -0.014299
v -0.070716 0.171086 -0.014287
v -0.065712 0.185968 -0.020311
v -0.067973 0.185763 -0.019975
v -0.070670 0.175355 -0.022165
v -0.070670 0.169448 -0.022165
v -0.062972 0.181989 -0.022165
v -0.062973 0.176405 -0.022162
v -0.062972 0.171180 -0.016991
vn -0.0066 0.9111 0.4120
vn -0.0240 0.9985 0.0482
vn -0.5193 0.8543 -0.0203
vn -0.6621 0.6133 0.4306
vn 0.4339 0.8975 0.0791
vn 0.2322 0.8090 0.5401
vn -0.9998 0.0185 0.0041
vn 0.0004 -0.0000 -1.0000
vn -0.6915 0.6085 -0.3893
vn -0.8060 0.3648 0.4661
vn -0.1710 0.5793 -0.7970
vn -0.4594 0.4712 -0.7529
vn -0.9972 0.0269 0.0695
vn -0.5351 0.3044 -0.7880
vn -0.0277 -0.9787 0.2033
vn 0.3985 0.5983 -0.6952
vn -0.2585 0.6439 0.7201
vn 0.3750 0.9268 -0.0193
vn -1.0000 -0.0013 0.0015
vn 0.2974 -0.9465 -0.1256
vn -0.1676 0.3191 -0.9328
vn 0.0149 -0.0062 0.9999
vn -0.0007 -0.0008 -1.0000
vn -0.0016 0.0027 -1.0000
vn -0.0064 0.0058 1.0000
vn -0.9841 0.0931 -0.1515
vn -0.0805 0.9967 -0.0030
vn -1.0000 -0.0000 -0.0059
vn 0.0004 -0.0005 -1.0000
vn 0.2797 0.7292 -0.6245
vn 0.5366 -0.5935 -0.5998
vn 0.9999 -0.0075 -0.0078
vn -1.0000 0.0003 -0.0006
vn -1.0000 0.0031 -0.0023
vn 0.0231 0.7160 -0.6978
vn -0.2198 0.2550 -0.9416
vn -0.0024 -0.0000 -1.0000
vn 0.0018 -0.0009 -1.0000
vn -1.0000 0.0003 0.0026
vn -1.0000 -0.0004 0.0017
vn -1.0000 -0.0013 -0.0027
vn -0.0000 -0.0000 -1.0000
vn 0.0009 -0.0005 -1.0000
s 0
f 1//1 3//1 4//1
f 6//2 4//2 3//2
f 4//3 7//3 8//3
f 4//4 8//4 5//4
f 3//5 2//5 9//5
f 1//6 2//6 3//6
f 16//7 13//7 8//7
f 19//8 17//8 16//8
f 8//9 7//9 11//9
f 8//10 12//10 5//10
f 7//11 14//11 15//11
f 7//12 15//12 11//12
f 12//13 8//13 13//13
f 11//14 15//14 16//14
f 13//15 17//15 10//15
f 9//16 18//16 14//16
f 4//17 5//17 1//17
f 9//18 6//18 3//18
f 2//19 19//19 10//19
f 17//20 20//20 10//20
f 15//21 14//21 18//21
f 10//22 2//22 13//22
f 13//23 12//23 2//23
f 2//24 12//24 1//24
f 12//25 1//25 5//25
f 11//26 16//26 8//26
f 6//27 7//27 4//27
f 16//28 17//28 13//28
f 18//29 19//29 16//29
f 6//30 9//30 14//30
f 20//31 17//31 19//31
f 10//32 20//32 19//32
f 19//33 2//33 18//33
f 18//34 2//34 9//34
f 14//35 7//35 6//35
f 18//36 16//36 15//36
f 2//37 13//37 1//37
f 1//38 13//38 12//38
f 19//39 10//39 18//39
f 18//40 10//40 9//40
f 9//41 10//41 2//41
f 18//42 17//42 16//42
f 18//43 19//43 17//43
