mtllib material.mtl
usemtl material_0
v -0.14797400 0.30174930 0.00010425
v -0.13671010 0.30173000 0.05673148
v -0.13671010 0.29866190 0.05673034
v -0.10463340 0.30171330 0.10473780
v -0.05662716 0.29863430 0.13681330
v -0.10463340 0.29864530 0.10473670
v 0.00000000 0.53494660 -0.14778920
v -0.05662712 0.30179670 -0.13660580
v 0.00000000 0.30180060 -0.14786970
v -0.05662712 0.53494260 -0.13652520
v -0.10463340 0.30178560 -0.10452910
v -0.10463340 0.53493160 -0.10444860
v -0.05662712 0.53606730 -0.13652490
v -0.10463340 0.53605620 -0.10444820
v -0.10463340 0.30178560 -0.10452910
v -0.13671010 0.29870100 -0.05652398
v -0.10463340 0.29871760 -0.10453020
v -0.13671010 0.30176900 -0.05652295
v -0.14797400 0.29868160 0.00010318
v 0.05662716 0.30170220 0.13681440
v 0.10463340 0.30171330 0.10473770
v 0.10463340 0.29864530 0.10473660
v 0.05662716 0.29863430 0.13681330
v 0.00000000 0.30169840 0.14807830
v 0.00000000 0.29863030 0.14807710
v -0.05662716 0.30170220 0.13681440
v -0.05662712 0.30179670 -0.13660580
v -0.10463340 0.30178560 -0.10452910
v -0.10463340 0.29871760 -0.10453020
v -0.05662712 0.29872870 -0.13660690
v 0.00000000 0.30180060 -0.14786970
v 0.00000000 0.29873260 -0.14787070
v 0.05662716 0.30179670 -0.13660580
v 0.05662716 0.29872870 -0.13660680
v 0.10463340 0.30178560 -0.10452910
v 0.05662716 0.30179670 -0.13660580
v 0.05662716 0.29872870 -0.13660680
v 0.10463340 0.29871760 -0.10453020
v 0.13671010 0.30176900 -0.05652287
v 0.10463340 0.30178560 -0.10452910
v 0.10463340 0.29871760 -0.10453020
v 0.13671010 0.29870100 -0.05652398
v 0.14797390 0.30174930 0.00010425
v 0.14797390 0.29868160 0.00010318
v -0.13671010 0.30173000 0.05673148
v -0.10463340 0.30171330 0.10473780
v -0.10463340 0.29864530 0.10473670
v -0.13671010 0.29866190 0.05673034
v 0.13671010 0.30173000 0.05673148
v 0.14797390 0.30174930 0.00010425
v 0.14797390 0.29868160 0.00010318
v 0.13671010 0.29866190 0.05673034
v 0.10463340 0.30171330 0.10473770
v 0.10463340 0.29864530 0.10473660
v -0.10052390 0.53605480 -0.10033870
v -0.10052390 0.29871620 -0.10042080
v -0.13134080 0.29870030 -0.05430001
v -0.13134080 0.53603880 -0.05421792
v -0.14216230 0.29868160 0.00010318
v -0.14216230 0.53602010 0.00018520
v -0.13134080 0.29866270 0.05450637
v -0.13134080 0.53600120 0.05458846
v 0.05440315 0.53597470 0.13152620
v 0.05440315 0.29863610 0.13144410
v 0.10052390 0.29864680 0.10062710
v 0.10052390 0.53598530 0.10070910
v 0.00000000 0.53597090 0.14234760
v 0.00000000 0.29863240 0.14226550
v -0.05440313 0.53597470 0.13152620
v -0.05440313 0.29863610 0.13144410
v -0.10052390 0.53598530 0.10070930
v -0.10052390 0.29864680 0.10062720
v -0.05440311 0.53606550 -0.13115570
v -0.10052390 0.29871620 -0.10042080
v -0.10052390 0.53605480 -0.10033870
v -0.05440311 0.29872680 -0.13123770
v 0.00000000 0.53606920 -0.14197710
v 0.00000000 0.29873060 -0.14205910
v 0.05440315 0.53606550 -0.13115570
v 0.05440315 0.29872680 -0.13123770
v 0.10052390 0.53605480 -0.10033870
v 0.10052390 0.29871620 -0.10042080
v 0.05440315 0.29872680 -0.13123770
v 0.05440315 0.53606550 -0.13115570
v 0.13134080 0.53603880 -0.05421792
v 0.13134080 0.29870030 -0.05429994
v 0.10052390 0.29871620 -0.10042080
v 0.10052390 0.53605480 -0.10033870
v 0.14216220 0.53602010 0.00018520
v 0.14216220 0.29868160 0.00010318
v -0.13134080 0.53600120 0.05458846
v -0.13134080 0.29866270 0.05450637
v -0.10052390 0.29864680 0.10062720
v -0.10052390 0.53598530 0.10070930
v 0.13134080 0.53600120 0.05458846
v 0.14216220 0.29868160 0.00010318
v 0.14216220 0.53602010 0.00018520
v 0.13134080 0.29866270 0.05450637
v 0.10052390 0.53598530 0.10070910
v 0.10052390 0.29864680 0.10062710
v 0.05662716 0.53606730 -0.13652490
v 0.05440315 0.53606550 -0.13115570
v 0.00000000 0.53606920 -0.14197710
v 0.00000000 0.53607120 -0.14778880
v -0.05440311 0.53606550 -0.13115570
v -0.05662712 0.53606730 -0.13652490
v -0.10052390 0.53605480 -0.10033870
v -0.10463340 0.53605620 -0.10444820
v -0.13134080 0.53603880 -0.05421792
v -0.13671010 0.53603960 -0.05644196
v -0.13671010 0.29866190 0.05673034
v -0.13134080 0.29866270 0.05450637
v -0.14216230 0.29868160 0.00010318
v -0.14797400 0.29868160 0.00010318
v 0.10463340 0.53605620 -0.10444820
v 0.05440315 0.53606550 -0.13115570
v 0.05662716 0.53606730 -0.13652490
v 0.10052390 0.53605480 -0.10033870
v 0.13671010 0.53603960 -0.05644196
v 0.13134080 0.53603880 -0.05421792
v 0.14797390 0.53602010 0.00018520
v 0.14216220 0.53602010 0.00018520
v -0.14797400 0.29868160 0.00010318
v -0.14216230 0.29868160 0.00010318
v -0.13134080 0.29870030 -0.05430001
v -0.13671010 0.29870100 -0.05652398
v -0.10052390 0.29871620 -0.10042080
v -0.10463340 0.29871760 -0.10453020
v 0.05662716 0.29872870 -0.13660680
v 0.10052390 0.29871620 -0.10042080
v 0.10463340 0.29871760 -0.10453020
v 0.05440315 0.29872680 -0.13123770
v 0.00000000 0.29873260 -0.14787070
v 0.00000000 0.29873060 -0.14205910
v -0.05662712 0.29872870 -0.13660690
v -0.05440311 0.29872680 -0.13123770
v -0.10463340 0.29871760 -0.10453020
v -0.10052390 0.29871620 -0.10042080
v 0.13671010 0.53600050 0.05681243
v 0.14216220 0.53602010 0.00018520
v 0.14797390 0.53602010 0.00018520
v 0.13134080 0.53600120 0.05458846
v 0.10463340 0.53598400 0.10481860
v 0.10052390 0.53598530 0.10070910
v 0.10463340 0.29871760 -0.10453020
v 0.10052390 0.29871620 -0.10042080
v 0.13134080 0.29870030 -0.05429994
v 0.13671010 0.29870100 -0.05652398
v 0.14216220 0.29868160 0.00010318
v 0.14797390 0.29868160 0.00010318
v 0.13134080 0.29866270 0.05450637
v 0.13671010 0.29866190 0.05673034
v 0.05662716 0.53597280 0.13689540
v 0.10052390 0.53598530 0.10070910
v 0.10463340 0.53598400 0.10481860
v 0.05440315 0.53597470 0.13152620
v 0.00000000 0.53596900 0.14815920
v 0.00000000 0.53597090 0.14234760
v -0.05662716 0.53597280 0.13689540
v -0.05440313 0.53597470 0.13152620
v -0.10463340 0.53598400 0.10481880
v -0.10052390 0.53598530 0.10070930
v 0.13671010 0.29866190 0.05673034
v 0.13134080 0.29866270 0.05450637
v 0.10052390 0.29864680 0.10062710
v 0.10463340 0.29864530 0.10473660
v 0.05440315 0.29863610 0.13144410
v 0.05662716 0.29863430 0.13681330
v 0.05662716 0.29863430 0.13681330
v 0.05440315 0.29863610 0.13144410
v 0.00000000 0.29863240 0.14226550
v 0.00000000 0.29863030 0.14807710
v -0.05440313 0.29863610 0.13144410
v -0.05662716 0.29863430 0.13681330
v -0.10052390 0.29864680 0.10062720
v -0.10463340 0.29864530 0.10473670
v -0.13134080 0.29866270 0.05450637
v -0.13671010 0.29866190 0.05673034
v -0.13671010 0.53600050 0.05681243
v -0.13134080 0.53600120 0.05458846
v -0.10052390 0.53598530 0.10070930
v -0.10463340 0.53598400 0.10481880
v -0.14797400 0.53602010 0.00018520
v -0.13134080 0.53600120 0.05458846
v -0.13671010 0.53600050 0.05681243
v -0.14216230 0.53602010 0.00018520
v -0.13671010 0.53603960 -0.05644196
v -0.13134080 0.53603880 -0.05421792
v 0.10463340 0.53485940 0.10481830
v 0.13671010 0.30173000 0.05673148
v 0.10463340 0.30171330 0.10473770
v 0.13671010 0.53487590 0.05681205
v 0.14797390 0.30174930 0.00010425
v 0.14797390 0.53489540 0.00018485
v 0.13671010 0.53600050 0.05681243
v 0.14797390 0.53602010 0.00018520
v 0.10463340 0.53598400 0.10481860
v -0.14797400 0.53489540 0.00018478
v -0.13671010 0.30173000 0.05673148
v -0.14797400 0.30174930 0.00010425
v -0.13671010 0.53491500 -0.05644238
v -0.13671010 0.53603960 -0.05644196
v -0.10463340 0.53605620 -0.10444820
v -0.13671010 0.30176900 -0.05652295
v -0.10463340 0.53493160 -0.10444860
v -0.10463340 0.30178560 -0.10452910
v -0.13671010 0.53487590 0.05681205
v -0.14797400 0.53602010 0.00018520
v -0.13671010 0.53600050 0.05681243
v 0.14797390 0.53489540 0.00018485
v 0.13671010 0.30176900 -0.05652287
v 0.14797390 0.30174930 0.00010425
v 0.13671010 0.53491500 -0.05644238
v 0.14797390 0.53602010 0.00018520
v 0.10463340 0.30178560 -0.10452910
v 0.13671010 0.53603960 -0.05644196
v 0.10463340 0.53493160 -0.10444860
v 0.10463340 0.53605620 -0.10444820
v -0.13671010 0.53487590 0.05681205
v -0.10463340 0.30171330 0.10473780
v -0.13671010 0.30173000 0.05673148
v -0.10463340 0.53485940 0.10481830
v -0.13671010 0.53600050 0.05681243
v -0.10463340 0.53598400 0.10481880
v -0.10463340 0.53485940 0.10481830
v -0.05662716 0.30170220 0.13681440
v -0.10463340 0.30171330 0.10473780
v -0.05662716 0.53484830 0.13689490
v -0.10463340 0.53598400 0.10481880
v -0.05662716 0.53597280 0.13689540
v 0.00000000 0.30169840 0.14807830
v 0.00000000 0.53484430 0.14815890
v 0.05662716 0.30170220 0.13681440
v 0.00000000 0.53596900 0.14815920
v 0.05662716 0.53484830 0.13689490
v 0.10463340 0.30171330 0.10473770
v 0.05662716 0.53597280 0.13689540
v 0.10463340 0.53485940 0.10481830
v 0.10463340 0.53598400 0.10481860
v 0.10463340 0.53493160 -0.10444860
v 0.05662716 0.30179670 -0.13660580
v 0.10463340 0.30178560 -0.10452910
v 0.05662716 0.53494260 -0.13652520
v 0.10463340 0.53605620 -0.10444820
v 0.05662716 0.53606730 -0.13652490
v 0.00000000 0.53607120 -0.14778880
v 0.05662716 0.53606730 -0.13652490
v 0.05662716 0.53494260 -0.13652520
v 0.05662716 0.30179670 -0.13660580
vn -1.00000000 0.00000000 0.00000000
vn -0.92387950 -0.00013234 0.38268330
vn -0.92388830 -0.00014052 0.38266240
vn -0.70710580 -0.00024434 0.70710760
vn -0.38269700 -0.00034445 0.92387390
vn -0.70709600 -0.00024621 0.70711740
vn 0.00000000 0.00034553 -1.00000000
vn -0.38268350 0.00031926 -0.92387940
vn 0.00000000 0.00034545 -1.00000000
vn -0.38268390 0.00031920 -0.92387930
vn -0.70710600 0.00024430 -0.70710740
vn -0.70710640 0.00024435 -0.70710710
vn -0.38268340 0.00031147 -0.92387940
vn -0.70706470 0.00023988 -0.70714880
vn -0.70710600 0.00024430 -0.70710740
vn -0.92387950 0.00013174 -0.38268340
vn -0.70712110 0.00024593 -0.70709230
vn -0.92387930 0.00013228 -0.38268400
vn -1.00000000 -0.00000424 -0.00000033
vn 0.38268290 -0.00031902 0.92387970
vn 0.70710680 -0.00024437 0.70710660
vn 0.70710500 -0.00025441 0.70710850
vn 0.38268410 -0.00031444 0.92387920
vn 0.00000055 -0.00034578 1.00000000
vn 0.00000000 -0.00037327 1.00000000
vn -0.38268170 -0.00031937 0.92388020
vn -0.38268350 0.00031926 -0.92387940
vn -0.70710600 0.00024430 -0.70710740
vn -0.70712110 0.00024593 -0.70709230
vn -0.38267910 0.00032255 -0.92388120
vn 0.00000000 0.00034545 -1.00000000
vn 0.00000070 0.00033588 -1.00000000
vn 0.38268420 0.00031909 -0.92387920
vn 0.38269830 0.00030771 -0.92387330
vn 0.70710680 0.00024425 -0.70710660
vn 0.38268420 0.00031909 -0.92387920
vn 0.38269830 0.00030771 -0.92387330
vn 0.70711250 0.00024622 -0.70710100
vn 0.92387970 0.00013232 -0.38268290
vn 0.70710680 0.00024425 -0.70710660
vn 0.70711250 0.00024622 -0.70710100
vn 0.92387680 0.00014053 -0.38269010
vn 1.00000000 0.00000000 0.00000000
vn 1.00000000 0.00001697 0.00000404
vn -0.92387950 -0.00013234 0.38268330
vn -0.70710580 -0.00024434 0.70710760
vn -0.70709600 -0.00024621 0.70711740
vn -0.92388830 -0.00014052 0.38266240
vn 0.92387990 -0.00013266 0.38268240
vn 1.00000000 0.00000000 0.00000000
vn 1.00000000 0.00001697 0.00000404
vn 0.92388220 -0.00014052 0.38267710
vn 0.70710680 -0.00024437 0.70710660
vn 0.70710500 -0.00025441 0.70710850
vn 0.70710720 -0.00024444 0.70710640
vn 0.70710670 -0.00024438 0.70710680
vn 0.92387940 -0.00013232 0.38268380
vn 0.92387940 -0.00013231 0.38268380
vn 1.00000000 0.00000000 0.00000024
vn 1.00000000 0.00000000 -0.00000010
vn 0.92387980 0.00013234 -0.38268280
vn 0.92387940 0.00013229 -0.38268380
vn -0.38268250 0.00031949 -0.92387990
vn -0.38268280 0.00031952 -0.92387970
vn -0.70710740 0.00024444 -0.70710600
vn -0.70710640 0.00024449 -0.70710700
vn -0.00000014 0.00034590 -1.00000000
vn -0.00000015 0.00034588 -1.00000000
vn 0.38268290 0.00031954 -0.92387970
vn 0.38268170 0.00031962 -0.92388010
vn 0.70710690 0.00024458 -0.70710660
vn 0.70710620 0.00024466 -0.70710720
vn 0.38268380 -0.00031925 0.92387930
vn 0.70710670 -0.00024438 0.70710680
vn 0.70710720 -0.00024444 0.70710640
vn 0.38268240 -0.00031927 0.92387990
vn 0.00000063 -0.00034555 1.00000000
vn -0.00000093 -0.00034557 1.00000000
vn -0.38268370 -0.00031925 0.92387930
vn -0.38268230 -0.00031924 0.92388000
vn -0.70710770 -0.00024432 0.70710590
vn -0.70710650 -0.00024433 0.70710700
vn -0.38268230 -0.00031924 0.92388000
vn -0.38268370 -0.00031925 0.92387930
vn -0.92387980 -0.00013224 0.38268270
vn -0.92387960 -0.00013235 0.38268330
vn -0.70710650 -0.00024433 0.70710700
vn -0.70710770 -0.00024432 0.70710590
vn -1.00000000 -0.00000013 0.00000000
vn -1.00000000 -0.00000016 0.00000023
vn 0.92387940 0.00013229 -0.38268380
vn 0.92387980 0.00013234 -0.38268280
vn 0.70710620 0.00024466 -0.70710720
vn 0.70710690 0.00024458 -0.70710660
vn -0.92387950 0.00013225 -0.38268340
vn -1.00000000 -0.00000016 0.00000023
vn -1.00000000 -0.00000013 0.00000000
vn -0.92387980 0.00013222 -0.38268270
vn -0.70710640 0.00024449 -0.70710700
vn -0.70710740 0.00024444 -0.70710600
vn 0.00000143 1.00000000 0.00035154
vn 0.00000148 1.00000000 0.00034958
vn 0.00000000 1.00000000 0.00035823
vn 0.00000000 1.00000000 0.00036029
vn -0.00000121 1.00000000 0.00034931
vn -0.00000131 1.00000000 0.00035154
vn -0.00000648 1.00000000 0.00035823
vn -0.00000585 1.00000000 0.00035960
vn 0.00001092 1.00000000 0.00034747
vn 0.00001097 1.00000000 0.00034762
vn 0.00001075 -1.00000000 -0.00034880
vn 0.00001101 -1.00000000 -0.00034845
vn 0.00000033 -1.00000000 -0.00034524
vn 0.00000000 -1.00000000 -0.00034552
vn 0.00000563 1.00000000 0.00033633
vn 0.00000148 1.00000000 0.00034958
vn 0.00000143 1.00000000 0.00035154
vn 0.00000524 1.00000000 0.00033711
vn -0.00001021 1.00000000 0.00035534
vn -0.00001048 1.00000000 0.00035694
vn -0.00000046 1.00000000 0.00034307
vn -0.00000040 1.00000000 0.00034314
vn 0.00000000 -1.00000000 -0.00034552
vn 0.00000033 -1.00000000 -0.00034524
vn 0.00000052 -1.00000000 -0.00034030
vn 0.00000073 -1.00000000 -0.00034140
vn 0.00000506 -1.00000000 -0.00033509
vn 0.00000491 -1.00000000 -0.00033771
vn 0.00000336 -1.00000000 -0.00035578
vn -0.00000576 -1.00000000 -0.00033303
vn -0.00000583 -1.00000000 -0.00033483
vn 0.00000377 -1.00000000 -0.00035463
vn 0.00000000 -1.00000000 -0.00036029
vn 0.00000000 -1.00000000 -0.00035793
vn -0.00000301 -1.00000000 -0.00034662
vn -0.00000278 -1.00000000 -0.00034317
vn 0.00000491 -1.00000000 -0.00033771
vn 0.00000506 -1.00000000 -0.00033509
vn -0.00001250 1.00000000 0.00034963
vn -0.00000040 1.00000000 0.00034314
vn -0.00000046 1.00000000 0.00034307
vn -0.00001322 1.00000000 0.00034983
vn -0.00001508 1.00000000 0.00034071
vn -0.00001501 1.00000000 0.00034117
vn -0.00000583 -1.00000000 -0.00033483
vn -0.00000576 -1.00000000 -0.00033303
vn -0.00000058 -1.00000000 -0.00035008
vn -0.00000039 -1.00000000 -0.00035090
vn 0.00000000 -1.00000000 -0.00034426
vn -0.00000042 -1.00000000 -0.00034399
vn -0.00001052 -1.00000000 -0.00034412
vn -0.00001063 -1.00000000 -0.00034365
vn -0.00000162 1.00000000 0.00034440
vn -0.00001501 1.00000000 0.00034117
vn -0.00001508 1.00000000 0.00034071
vn -0.00000121 1.00000000 0.00034672
vn 0.00000000 1.00000000 0.00037642
vn 0.00000000 1.00000000 0.00037727
vn 0.00000206 1.00000000 0.00033429
vn 0.00000229 1.00000000 0.00033308
vn 0.00001423 1.00000000 0.00034727
vn 0.00001438 1.00000000 0.00034720
vn -0.00001063 -1.00000000 -0.00034365
vn -0.00001052 -1.00000000 -0.00034412
vn -0.00000377 -1.00000000 -0.00034912
vn -0.00000345 -1.00000000 -0.00034768
vn 0.00000130 -1.00000000 -0.00034197
vn 0.00000138 -1.00000000 -0.00034057
vn 0.00000138 -1.00000000 -0.00034057
vn 0.00000130 -1.00000000 -0.00034197
vn 0.00000069 -1.00000000 -0.00034094
vn 0.00000051 -1.00000000 -0.00034002
vn -0.00000237 -1.00000000 -0.00033854
vn -0.00000225 -1.00000000 -0.00033853
vn 0.00000349 -1.00000000 -0.00034615
vn 0.00000390 -1.00000000 -0.00034687
vn 0.00001101 -1.00000000 -0.00034845
vn 0.00001075 -1.00000000 -0.00034880
vn 0.00001314 1.00000000 0.00034578
vn 0.00001255 1.00000000 0.00034497
vn 0.00001438 1.00000000 0.00034720
vn 0.00001423 1.00000000 0.00034727
vn 0.00000051 1.00000000 0.00034324
vn 0.00001255 1.00000000 0.00034497
vn 0.00001314 1.00000000 0.00034578
vn 0.00000036 1.00000000 0.00034287
vn 0.00001097 1.00000000 0.00034762
vn 0.00001092 1.00000000 0.00034747
vn 0.70710650 -0.00024431 0.70710690
vn 0.92387990 -0.00013266 0.38268240
vn 0.70710680 -0.00024437 0.70710660
vn 0.92387960 -0.00013219 0.38268320
vn 1.00000000 0.00000000 0.00000000
vn 1.00000000 0.00000000 0.00000022
vn 0.92389730 -0.00009584 0.38264040
vn 1.00000000 0.00000000 0.00001886
vn 0.70711340 -0.00023960 0.70710010
vn -1.00000000 0.00000000 0.00000000
vn -0.92387950 -0.00013234 0.38268330
vn -1.00000000 0.00000000 0.00000000
vn -0.92387940 0.00013246 -0.38268350
vn -0.92389640 0.00017927 -0.38264260
vn -0.70706470 0.00023988 -0.70714880
vn -0.92387930 0.00013228 -0.38268400
vn -0.70710640 0.00024435 -0.70710710
vn -0.70710600 0.00024430 -0.70710740
vn -0.92387980 -0.00013228 0.38268270
vn -1.00000000 -0.00000015 0.00000341
vn -0.92388910 -0.00013208 0.38266030
vn 1.00000000 0.00000000 0.00000022
vn 0.92387970 0.00013232 -0.38268290
vn 1.00000000 0.00000000 0.00000000
vn 0.92387970 0.00013214 -0.38268290
vn 1.00000000 0.00000000 0.00001886
vn 0.70710680 0.00024425 -0.70710660
vn 0.92388080 0.00009584 -0.38268040
vn 0.70710640 0.00024429 -0.70710720
vn 0.70711240 0.00021623 -0.70710100
vn -0.92387980 -0.00013228 0.38268270
vn -0.70710580 -0.00024434 0.70710760
vn -0.92387950 -0.00013234 0.38268330
vn -0.70710690 -0.00024443 0.70710660
vn -0.92388910 -0.00013208 0.38266030
vn -0.70710950 -0.00028767 0.70710400
vn -0.70710690 -0.00024443 0.70710660
vn -0.38268170 -0.00031937 0.92388020
vn -0.70710580 -0.00024434 0.70710760
vn -0.38268370 -0.00031944 0.92387940
vn -0.70710950 -0.00028767 0.70710400
vn -0.38265800 -0.00038299 0.92388990
vn 0.00000055 -0.00034578 1.00000000
vn -0.00000100 -0.00034541 1.00000000
vn 0.38268290 -0.00031902 0.92387970
vn 0.00000034 -0.00034188 1.00000000
vn 0.38268400 -0.00031928 0.92387920
vn 0.70710680 -0.00024437 0.70710660
vn 0.38265870 -0.00037108 0.92388970
vn 0.70710650 -0.00024431 0.70710690
vn 0.70711340 -0.00023960 0.70710010
vn 0.70710640 0.00024429 -0.70710720
vn 0.38268420 0.00031909 -0.92387920
vn 0.70710680 0.00024425 -0.70710660
vn 0.38268320 0.00031941 -0.92387960
vn 0.70711240 0.00021623 -0.70710100
vn 0.38268400 0.00033543 -0.92387920
vn -0.00000025 0.00034136 -1.00000000
vn 0.38268400 0.00033543 -0.92387920
vn 0.38268320 0.00031941 -0.92387960
vn 0.38268420 0.00031909 -0.92387920
vt 0.28253500 0.14279890
vt 0.22384800 0.14279890
vt 0.22384800 0.13961920
vt 0.55643110 0.14282060
vt 0.60686240 0.13959760
vt 0.55643110 0.13959760
vt 0.57497350 -0.30510710
vt 0.50741020 -0.51466490
vt 0.57497350 -0.51466490
vt 0.50741020 -0.30510710
vt 0.45013280 -0.51466490
vt 0.45013280 -0.30510710
vt 0.50741020 -0.30376520
vt 0.45013280 -0.30376520
vt 0.39097430 0.14279890
vt 0.34122190 0.13961920
vt 0.39097430 0.13961920
vt 0.34122190 0.14279890
vt 0.28253500 0.13961920
vt 0.72583810 0.14282060
vt 0.77626940 0.14282060
vt 0.77626940 0.13959760
vt 0.72583810 0.13959760
vt 0.66635030 0.14282060
vt 0.66635030 0.13959760
vt 0.60686240 0.14282060
vt 0.51252400 0.14279890
vt 0.46277150 0.14279890
vt 0.46277150 0.13961920
vt 0.51252400 0.13961920
vt 0.57121100 0.14279890
vt 0.57121100 0.13961920
vt 0.62989810 0.14279890
vt 0.62989810 0.13961920
vt 0.09582514 0.14289140
vt 0.04317810 0.14289140
vt 0.04317810 0.13952670
vt 0.09582514 0.13952670
vt 0.45350730 0.14282050
vt 0.50393830 0.14282050
vt 0.50393830 0.13959760
vt 0.45350730 0.13959760
vt 0.39401990 0.14282050
vt 0.39401990 0.13959760
vt 0.81056760 0.14289140
vt 0.75792050 0.14289140
vt 0.75792050 0.13952670
vt 0.81056760 0.13952670
vt 0.92128410 0.14282060
vt 0.98077200 0.14282060
vt 0.98077200 0.13959760
vt 0.92128410 0.13959760
vt 0.87085280 0.14282060
vt 0.87085280 0.13959760
vt 0.39492750 -0.30982990
vt 0.39492750 -0.52394030
vt 0.34001500 -0.52394030
vt 0.34001500 -0.30982990
vt 0.27524130 -0.52394030
vt 0.27524130 -0.30982990
vt 0.21046750 -0.52394030
vt 0.21046750 -0.30982990
vt 0.73200740 -0.30836980
vt 0.73200740 -0.52540040
vt 0.78766890 -0.52540040
vt 0.78766890 -0.30836980
vt 0.66635040 -0.30836980
vt 0.66635040 -0.52540040
vt 0.60069320 -0.30836980
vt 0.60069320 -0.52540040
vt 0.54503180 -0.30836980
vt 0.54503180 -0.52540040
vt 0.51373090 -0.30982990
vt 0.45881840 -0.52394030
vt 0.45881840 -0.30982990
vt 0.51373090 -0.52394030
vt 0.57850460 -0.30982990
vt 0.57850460 -0.52394030
vt 0.64327820 -0.30982990
vt 0.64327820 -0.52394030
vt 0.08272120 -0.30360270
vt 0.08272120 -0.53016750
vt 0.02461453 -0.53016750
vt 0.02461453 -0.30360270
vt 0.44370330 -0.30836980
vt 0.44370330 -0.52540040
vt 0.49936480 -0.52540040
vt 0.49936480 -0.30836980
vt 0.37804610 -0.30836980
vt 0.37804610 -0.52540040
vt 0.82913120 -0.30360270
vt 0.82913120 -0.53016750
vt 0.77102450 -0.53016750
vt 0.77102450 -0.30360270
vt 0.93108810 -0.30836980
vt 0.99674540 -0.52540040
vt 0.99674540 -0.30836980
vt 0.93108810 -0.52540040
vt 0.87542670 -0.30836980
vt 0.87542670 -0.52540040
vt 0.56281140 0.72885990
vt 0.56058740 0.72349060
vt 0.50618430 0.73431200
vt 0.50618430 0.74012370
vt 0.45178130 0.72349060
vt 0.44955730 0.72885990
vt 0.40566060 0.69267370
vt 0.40155110 0.69678320
vt 0.37484370 0.64655300
vt 0.36947440 0.64877700
vt 0.97101060 1.01751400
vt 0.97637980 1.01973800
vt 0.96555830 1.07414200
vt 0.95974670 1.07414200
vt 0.17573770 0.56544930
vt 0.12550740 0.59215680
vt 0.12773140 0.59752610
vt 0.17162820 0.56133990
vt 0.20781440 0.51744300
vt 0.20244510 0.51521900
vt 0.21907830 0.46081580
vt 0.21326660 0.46081580
vt 1.02138100 0.39666230
vt 1.02719200 0.39666230
vt 1.03801400 0.45106550
vt 1.03264500 0.45328960
vt 1.06883100 0.49718640
vt 1.06472100 0.50129590
vt 0.72297720 0.82110140
vt 0.76687380 0.78491530
vt 0.77098320 0.78902480
vt 0.72075320 0.81573210
vt 0.66635020 0.83236520
vt 0.66635020 0.82655350
vt 0.60972330 0.82110140
vt 0.61194740 0.81573210
vt 0.56171730 0.78902480
vt 0.56582680 0.78491530
vt 0.30005590 0.92150180
vt 0.30550810 0.97812910
vt 0.31131970 0.97812910
vt 0.29468660 0.92372580
vt 0.26797920 0.87349560
vt 0.26386980 0.87760510
vt 0.26797910 0.38804170
vt 0.26386960 0.38393230
vt 0.29468660 0.33781130
vt 0.30005600 0.34003530
vt 0.30550810 0.28340790
vt 0.31131980 0.28340790
vt 0.29468660 0.22900460
vt 0.30005600 0.22678050
vt 0.72297730 0.55368990
vt 0.76687400 0.58987610
vt 0.77098350 0.58576660
vt 0.72075330 0.55905910
vt 0.66635030 0.54242610
vt 0.66635030 0.54823770
vt 0.60972320 0.55368990
vt 0.61194720 0.55905910
vt 0.56171700 0.58576650
vt 0.56582650 0.58987600
vt 0.18528680 0.74854190
vt 0.17991750 0.75076590
vt 0.14910060 0.70464510
vt 0.15321000 0.70053560
vt 0.10297980 0.67382810
vt 0.10520380 0.66845890
vt 0.56281160 0.64593140
vt 0.56058750 0.65130060
vt 0.50618450 0.64047920
vt 0.50618450 0.63466750
vt 0.45178130 0.65130060
vt 0.44955720 0.64593140
vt 0.40566050 0.68211750
vt 0.40155100 0.67800800
vt 0.37484360 0.72823830
vt 0.36947430 0.72601430
vt 1.05517200 0.81269510
vt 1.06054200 0.81491920
vt 1.09135900 0.76879850
vt 1.08724900 0.76468900
vt 0.95974660 0.18739560
vt 0.97637990 0.13299220
vt 0.97101060 0.13076820
vt 0.96555830 0.18739560
vt 0.97101060 0.24402310
vt 0.97637990 0.24179910
vt 0.86254060 -0.30368720
vt 0.92059920 -0.51610310
vt 0.86254060 -0.51610310
vt 0.92059920 -0.30368720
vt 0.98908410 -0.51610310
vt 0.98908410 -0.30368720
vt 0.92059920 -0.30232700
vt 0.98908410 -0.30232700
vt 0.86254060 -0.30232700
vt 0.27877240 -0.30510710
vt 0.21120910 -0.51466490
vt 0.27877240 -0.51466490
vt 0.34633580 -0.30510710
vt 0.34633580 -0.30376520
vt 0.40361320 -0.30376520
vt 0.34633580 -0.51466490
vt 0.40361320 -0.30510710
vt 0.40361320 -0.51466490
vt 0.21120910 -0.30510710
vt 0.27877240 -0.30376520
vt 0.21120910 -0.30376520
vt 0.38570730 -0.30368720
vt 0.45419220 -0.51610310
vt 0.38570730 -0.51610310
vt 0.45419220 -0.30368720
vt 0.38570730 -0.30232700
vt 0.51225080 -0.51610310
vt 0.45419220 -0.30232700
vt 0.51225080 -0.30368720
vt 0.51225080 -0.30232700
vt 0.81454870 -0.29905130
vt 0.75393940 -0.52079870
vt 0.81454870 -0.52079870
vt 0.75393940 -0.29905130
vt 0.81454870 -0.29763140
vt 0.75393940 -0.29763140
vt 0.53980680 -0.30368720
vt 0.59786550 -0.51610310
vt 0.53980680 -0.51610310
vt 0.59786550 -0.30368720
vt 0.53980680 -0.30232700
vt 0.59786550 -0.30232700
vt 0.66635030 -0.51610310
vt 0.66635030 -0.30368720
vt 0.73483500 -0.51610310
vt 0.66635030 -0.30232700
vt 0.73483500 -0.30368720
vt 0.79289360 -0.51610310
vt 0.73483500 -0.30232700
vt 0.79289360 -0.30368720
vt 0.79289360 -0.30232700
vt 0.09980619 -0.29905130
vt 0.03919705 -0.52079870
vt 0.09980619 -0.52079870
vt 0.03919705 -0.29905130
vt 0.09980619 -0.29763140
vt 0.03919705 -0.29763140
vt 0.57497350 -0.30376520
vt 0.64253680 -0.30376520
vt 0.64253680 -0.30510710
vt 0.64253680 -0.51466490
f 3/3/3 2/2/2 1/1/1
f 6/6/6 5/5/5 4/4/4
f 9/9/9 8/8/8 7/7/7
f 8/8/8 11/11/11 10/10/10
f 11/11/11 12/12/12 10/10/10
f 10/10/10 12/12/12 13/13/13
f 12/12/12 14/14/14 13/13/13
f 17/17/17 16/16/16 15/15/15
f 16/16/16 18/18/18 15/15/15
f 16/16/16 19/19/19 18/18/18
f 19/19/19 1/1/1 18/18/18
f 19/19/19 3/3/3 1/1/1
f 22/22/22 21/21/21 20/20/20
f 23/23/23 22/22/22 20/20/20
f 23/23/23 20/20/20 24/24/24
f 25/25/25 23/23/23 24/24/24
f 25/25/25 24/24/24 26/26/26
f 5/5/5 25/25/25 26/26/26
f 5/5/5 26/26/26 4/4/4
f 29/29/29 28/28/28 27/27/27
f 30/30/30 29/29/29 27/27/27
f 30/30/30 27/27/27 31/31/31
f 32/32/32 30/30/30 31/31/31
f 32/32/32 31/31/31 33/33/33
f 34/34/34 32/32/32 33/33/33
f 37/37/37 36/36/36 35/35/35
f 38/38/38 37/37/37 35/35/35
f 41/41/41 40/40/40 39/39/39
f 42/42/42 41/41/41 39/39/39
f 42/42/42 39/39/39 43/43/43
f 44/44/44 42/42/42 43/43/43
f 47/47/47 46/46/46 45/45/45
f 48/48/48 47/47/47 45/45/45
f 51/51/51 50/50/50 49/49/49
f 52/52/52 51/51/51 49/49/49
f 52/52/52 49/49/49 53/53/53
f 54/54/54 52/52/52 53/53/53
f 57/57/57 56/56/56 55/55/55
f 58/58/58 57/57/57 55/55/55
f 59/59/59 57/57/57 58/58/58
f 60/60/60 59/59/59 58/58/58
f 61/61/61 59/59/59 60/60/60
f 62/62/62 61/61/61 60/60/60
f 65/65/65 64/64/64 63/63/63
f 66/66/66 65/65/65 63/63/63
f 63/63/63 64/64/64 67/67/67
f 64/64/64 68/68/68 67/67/67
f 67/67/67 68/68/68 69/69/69
f 68/68/68 70/70/70 69/69/69
f 69/69/69 70/70/70 71/71/71
f 70/70/70 72/72/72 71/71/71
f 75/75/75 74/74/74 73/73/73
f 74/74/74 76/76/76 73/73/73
f 73/73/73 76/76/76 77/77/77
f 76/76/76 78/78/78 77/77/77
f 77/77/77 78/78/78 79/79/79
f 78/78/78 80/80/80 79/79/79
f 83/83/83 82/82/82 81/81/81
f 84/84/84 83/83/83 81/81/81
f 87/87/87 86/86/86 85/85/85
f 88/88/88 87/87/87 85/85/85
f 85/85/85 86/86/86 89/89/89
f 86/86/86 90/90/90 89/89/89
f 93/93/93 92/92/92 91/91/91
f 94/94/94 93/93/93 91/91/91
f 97/97/97 96/96/96 95/95/95
f 96/96/96 98/98/98 95/95/95
f 95/95/95 98/98/98 99/99/99
f 98/98/98 100/100/100 99/99/99
f 103/103/103 102/102/102 101/101/101
f 104/104/104 103/103/103 101/101/101
f 105/105/105 103/103/103 104/104/104
f 106/106/106 105/105/105 104/104/104
f 107/107/107 105/105/105 106/106/106
f 108/108/108 107/107/107 106/106/106
f 109/109/109 107/107/107 108/108/108
f 110/110/110 109/109/109 108/108/108
f 113/113/113 112/112/112 111/111/111
f 114/114/114 113/113/113 111/111/111
f 117/117/117 116/116/116 115/115/115
f 116/116/116 118/118/118 115/115/115
f 115/115/115 118/118/118 119/119/119
f 118/118/118 120/120/120 119/119/119
f 119/119/119 120/120/120 121/121/121
f 120/120/120 122/122/122 121/121/121
f 125/125/125 124/124/124 123/123/123
f 126/126/126 125/125/125 123/123/123
f 127/127/127 125/125/125 126/126/126
f 128/128/128 127/127/127 126/126/126
f 131/131/131 130/130/130 129/129/129
f 130/130/130 132/132/132 129/129/129
f 129/129/129 132/132/132 133/133/133
f 132/132/132 134/134/134 133/133/133
f 133/133/133 134/134/134 135/135/135
f 134/134/134 136/136/136 135/135/135
f 135/135/135 136/136/136 137/137/137
f 136/136/136 138/138/138 137/137/137
f 141/141/141 140/140/140 139/139/139
f 140/140/140 142/142/142 139/139/139
f 139/139/139 142/142/142 143/143/143
f 142/142/142 144/144/144 143/143/143
f 147/147/147 146/146/146 145/145/145
f 148/148/148 147/147/147 145/145/145
f 149/149/149 147/147/147 148/148/148
f 150/150/150 149/149/149 148/148/148
f 151/151/151 149/149/149 150/150/150
f 152/152/152 151/151/151 150/150/150
f 155/155/155 154/154/154 153/153/153
f 154/154/154 156/156/156 153/153/153
f 153/153/153 156/156/156 157/157/157
f 156/156/156 158/158/158 157/157/157
f 157/157/157 158/158/158 159/159/159
f 158/158/158 160/160/160 159/159/159
f 159/159/159 160/160/160 161/161/161
f 160/160/160 162/162/162 161/161/161
f 165/165/165 164/164/164 163/163/163
f 166/166/166 165/165/165 163/163/163
f 167/167/167 165/165/165 166/166/166
f 168/168/168 167/167/167 166/166/166
f 171/171/171 170/170/170 169/169/169
f 172/172/172 171/171/171 169/169/169
f 173/173/173 171/171/171 172/172/172
f 174/174/174 173/173/173 172/172/172
f 175/175/175 173/173/173 174/174/174
f 176/176/176 175/175/175 174/174/174
f 177/177/177 175/175/175 176/176/176
f 178/178/178 177/177/177 176/176/176
f 181/181/181 180/180/180 179/179/179
f 182/182/182 181/181/181 179/179/179
f 185/185/185 184/184/184 183/183/183
f 184/184/184 186/186/186 183/183/183
f 183/183/183 186/186/186 187/187/187
f 186/186/186 188/188/188 187/187/187
f 191/191/191 190/190/190 189/189/189
f 190/190/190 192/192/192 189/189/189
f 190/190/190 193/193/193 192/192/192
f 193/193/193 194/194/194 192/192/192
f 192/192/192 194/194/194 195/195/195
f 194/194/194 196/196/196 195/195/195
f 192/192/192 195/195/195 197/197/197
f 189/189/189 192/192/192 197/197/197
f 200/200/200 199/199/199 198/198/198
f 200/200/200 198/198/198 201/201/201
f 201/201/201 198/198/198 202/202/202
f 201/201/201 202/202/202 203/203/203
f 204/204/204 200/200/200 201/201/201
f 205/205/205 201/201/201 203/203/203
f 204/204/204 201/201/201 205/205/205
f 206/206/206 204/204/204 205/205/205
f 199/199/199 207/207/207 198/198/198
f 198/198/198 207/207/207 208/208/208
f 198/198/198 208/208/208 202/202/202
f 207/207/207 209/209/209 208/208/208
f 212/212/212 211/211/211 210/210/210
f 211/211/211 213/213/213 210/210/210
f 210/210/210 213/213/213 214/214/214
f 211/211/211 215/215/215 213/213/213
f 213/213/213 216/216/216 214/214/214
f 215/215/215 217/217/217 213/213/213
f 213/213/213 217/217/217 216/216/216
f 217/217/217 218/218/218 216/216/216
f 221/221/221 220/220/220 219/219/219
f 220/220/220 222/222/222 219/219/219
f 219/219/219 222/222/222 223/223/223
f 222/222/222 224/224/224 223/223/223
f 227/227/227 226/226/226 225/225/225
f 226/226/226 228/228/228 225/225/225
f 225/225/225 228/228/228 229/229/229
f 228/228/228 230/230/230 229/229/229
f 226/226/226 231/231/231 228/228/228
f 231/231/231 232/232/232 228/228/228
f 228/228/228 232/232/232 230/230/230
f 231/231/231 233/233/233 232/232/232
f 232/232/232 234/234/234 230/230/230
f 233/233/233 235/235/235 232/232/232
f 232/232/232 235/235/235 234/234/234
f 233/233/233 236/236/236 235/235/235
f 235/235/235 237/237/237 234/234/234
f 236/236/236 238/238/238 235/235/235
f 235/235/235 238/238/238 237/237/237
f 238/238/238 239/239/239 237/237/237
f 242/242/242 241/241/241 240/240/240
f 241/241/241 243/243/243 240/240/240
f 240/240/240 243/243/243 244/244/244
f 243/243/243 245/245/245 244/244/244
f 8/8/8 10/10/10 7/7/7
f 7/7/7 10/10/10 246/246/246
f 10/10/10 13/13/13 246/246/246
f 7/7/7 246/246/246 247/247/247
f 248/248/248 7/7/7 247/247/247
f 9/9/9 7/7/7 248/248/248
f 249/249/249 9/9/9 248/248/248

