mtllib material.mtl
usemtl material_0
v -0.00049000 0.01000000 0.00051000
v -0.00049000 0.01000000 -0.00050000
v 0.00050000 0.01000000 -0.00050000
v 0.00050000 0.01000000 0.00051000
v -0.16742000 0.00000000 0.14152000
v -0.16742000 0.04751000 0.14152000
v -0.11959000 0.04751000 0.14152000
v -0.11959000 0.00000000 0.14152000
v -0.07175000 0.00000000 0.14152000
v -0.07175000 0.04751000 0.14152000
v -0.02391000 0.00000000 0.14152000
v -0.02391000 0.04751000 0.14152000
v 0.02392000 0.00000000 0.14152000
v 0.02392000 0.04751000 0.14152000
v 0.07176000 0.00000000 0.14152000
v 0.07176000 0.04751000 0.14152000
v 0.11960000 0.00000000 0.14152000
v 0.11960000 0.04751000 0.14152000
v 0.16743000 0.00000000 0.14152000
v 0.16743000 0.04751000 0.14152000
v -0.16742000 0.04751000 -0.14151000
v -0.16742000 0.00000000 -0.14151000
v -0.11959000 0.00000000 -0.14151000
v -0.11959000 0.04751000 -0.14151000
v -0.07175000 0.04751000 -0.14151000
v -0.07175000 0.00000000 -0.14151000
v -0.02391000 0.04751000 -0.14151000
v -0.02391000 0.00000000 -0.14151000
v 0.02392000 0.04751000 -0.14151000
v 0.02392000 0.00000000 -0.14151000
v 0.07176000 0.04751000 -0.14151000
v 0.07176000 0.00000000 -0.14151000
v 0.11960000 0.04751000 -0.14151000
v 0.11960000 0.00000000 -0.14151000
v 0.16743000 0.04751000 -0.14151000
v 0.16743000 0.00000000 -0.14151000
v -0.16742000 0.00000000 0.04718000
v -0.16742000 0.00000000 0.14152000
v -0.11959000 0.00000000 0.14152000
v -0.11959000 0.00000000 0.04718000
v -0.16742000 0.00000000 -0.04717000
v -0.07175000 0.00000000 0.04718000
v -0.07175000 0.00000000 0.14152000
v -0.11959000 0.00000000 -0.04717000
v -0.16742000 0.00000000 -0.14151000
v -0.11959000 0.00000000 -0.14151000
v -0.07175000 0.00000000 -0.04717000
v -0.07175000 0.00000000 -0.14151000
v -0.02391000 0.00000000 0.04718000
v -0.02391000 0.00000000 0.14152000
v -0.02391000 0.00000000 -0.04717000
v -0.02391000 0.00000000 -0.14151000
v 0.02392000 0.00000000 0.04718000
v 0.02392000 0.00000000 0.14152000
v 0.02392000 0.00000000 -0.04717000
v 0.02392000 0.00000000 -0.14151000
v 0.07176000 0.00000000 0.04718000
v 0.07176000 0.00000000 0.14152000
v 0.07176000 0.00000000 -0.04717000
v 0.07176000 0.00000000 -0.14151000
v 0.11960000 0.00000000 0.04718000
v 0.11960000 0.00000000 0.14152000
v 0.11960000 0.00000000 -0.04717000
v 0.11960000 0.00000000 -0.14151000
v 0.16743000 0.00000000 0.04718000
v 0.16743000 0.00000000 0.14152000
v 0.16743000 0.00000000 -0.04717000
v 0.16743000 0.00000000 -0.14151000
v 0.16743000 0.00000000 0.14152000
v 0.16743000 0.04751000 0.14152000
v 0.16743000 0.04751000 0.04718000
v 0.16743000 0.00000000 0.04718000
v 0.16743000 0.00000000 -0.04717000
v 0.16743000 0.04751000 -0.04717000
v 0.16743000 0.00000000 -0.14151000
v 0.16743000 0.04751000 -0.14151000
v -0.16742000 0.00000000 0.04718000
v -0.16742000 0.04751000 0.14152000
v -0.16742000 0.00000000 0.14152000
v -0.16742000 0.04751000 0.04718000
v -0.16742000 0.00000000 -0.04717000
v -0.16742000 0.04751000 -0.04717000
v -0.16742000 0.00000000 -0.14151000
v -0.16742000 0.04751000 -0.14151000
v -0.11916000 0.37372000 0.07303000
v -0.11916000 0.37372000 -0.07302000
v -0.09633000 0.37372000 -0.07302000
v -0.09633000 0.37372000 0.07303000
v 0.09715000 0.37372000 0.07303000
v 0.09715000 0.37372000 -0.07302000
v 0.12114000 0.37372000 -0.07302000
v 0.12114000 0.37372000 0.07303000
v -0.02459000 0.37372000 0.07303000
v -0.02459000 0.37372000 -0.07302000
v 0.02460000 0.37372000 -0.07302000
v 0.02460000 0.37372000 0.07303000
v -0.11916000 0.05939000 0.07303000
v -0.11916000 0.37372000 0.07303000
v -0.09633000 0.37372000 0.07303000
v -0.09633000 0.05939000 0.07303000
v -0.09633000 0.05939000 0.07303000
v -0.09633000 0.37372000 0.07303000
v -0.09633000 0.37372000 -0.07302000
v -0.09633000 0.05939000 -0.07302000
v -0.09633000 0.05939000 -0.07302000
v -0.09633000 0.37372000 -0.07302000
v -0.11916000 0.37372000 -0.07302000
v -0.11916000 0.05939000 -0.07302000
v -0.11916000 0.05939000 -0.07302000
v -0.11916000 0.37372000 -0.07302000
v -0.11916000 0.37372000 0.07303000
v -0.11916000 0.05939000 0.07303000
v 0.09715000 0.05939000 0.07303000
v 0.09715000 0.37372000 0.07303000
v 0.12114000 0.37372000 0.07303000
v 0.12114000 0.05939000 0.07303000
v 0.12114000 0.05939000 0.07303000
v 0.12114000 0.37372000 0.07303000
v 0.12114000 0.37372000 -0.07302000
v 0.12114000 0.05939000 -0.07302000
v 0.12114000 0.05939000 -0.07302000
v 0.12114000 0.37372000 -0.07302000
v 0.09715000 0.37372000 -0.07302000
v 0.09715000 0.05939000 -0.07302000
v 0.09715000 0.05939000 -0.07302000
v 0.09715000 0.37372000 -0.07302000
v 0.09715000 0.37372000 0.07303000
v 0.09715000 0.05939000 0.07303000
v -0.02459000 0.05939000 0.07303000
v -0.02459000 0.37372000 0.07303000
v 0.02460000 0.37372000 0.07303000
v 0.02460000 0.05939000 0.07303000
v 0.02460000 0.05939000 0.07303000
v 0.02460000 0.37372000 0.07303000
v 0.02460000 0.37372000 -0.07302000
v 0.02460000 0.05939000 -0.07302000
v 0.02460000 0.05939000 -0.07302000
v 0.02460000 0.37372000 -0.07302000
v -0.02459000 0.37372000 -0.07302000
v -0.02459000 0.05939000 -0.07302000
v -0.02459000 0.05939000 -0.07302000
v -0.02459000 0.37372000 -0.07302000
v -0.02459000 0.37372000 0.07303000
v -0.02459000 0.05939000 0.07303000
v 0.02420000 0.58022000 -0.01002000
v 0.01853000 0.58022000 -0.01852000
v 0.01897000 0.57874000 -0.01896000
v 0.02478000 0.57874000 -0.01026000
v 0.02620000 0.58022000 0.00000000
v 0.02682000 0.57874000 0.00000000
v 0.02420000 0.58022000 0.01003000
v 0.02478000 0.57874000 0.01027000
v 0.02478000 0.56182000 0.01027000
v 0.02682000 0.56182000 0.00000000
v 0.02654000 0.56007000 0.00001000
v 0.02478000 0.56182000 -0.01026000
v 0.02452000 0.56007000 -0.01015000
v 0.01897000 0.56182000 -0.01896000
v 0.01027000 0.57874000 -0.02477000
v 0.01027000 0.56182000 -0.02477000
v 0.01016000 0.56007000 -0.02451000
v 0.01877000 0.56007000 -0.01876000
v 0.01819000 0.55849000 -0.01818000
v 0.02377000 0.55849000 -0.00984000
v 0.02572000 0.55849000 0.00001000
v 0.02452000 0.56007000 0.01016000
v 0.02377000 0.55849000 0.00985000
v 0.01565000 0.54652000 0.00649000
v 0.01565000 0.54652000 -0.00648000
v 0.01198000 0.54652000 -0.01197000
v 0.01141000 0.54494000 -0.01140000
v 0.01694000 0.54652000 0.00001000
v 0.01490000 0.54494000 -0.00617000
v 0.01613000 0.54494000 0.00001000
v 0.01490000 0.54494000 0.00618000
v 0.01198000 0.54652000 0.01198000
v 0.01141000 0.54494000 0.01141000
v 0.01464000 0.54319000 0.00607000
v 0.01585000 0.54319000 0.00001000
v 0.01464000 0.37272000 0.00607000
v 0.01585000 0.37272000 0.00001000
v 0.01464000 0.54319000 -0.00606000
v 0.01464000 0.37272000 -0.00606000
v 0.01121000 0.54319000 -0.01120000
v 0.01121000 0.37272000 -0.01120000
v 0.00607000 0.54319000 -0.01463000
v 0.00618000 0.54494000 -0.01489000
v 0.00607000 0.37272000 -0.01463000
v 0.01003000 0.58022000 -0.02419000
v 0.00001000 0.58022000 -0.02619000
v -0.01002000 0.58022000 -0.02419000
v -0.01026000 0.57874000 -0.02477000
v 0.00001000 0.57874000 -0.02681000
v 0.01003000 0.58022000 -0.02419000
v 0.01027000 0.57874000 -0.02477000
v 0.01027000 0.56182000 -0.02477000
v 0.00001000 0.56182000 -0.02681000
v -0.01026000 0.56182000 -0.02477000
v -0.01015000 0.56007000 -0.02451000
v 0.00001000 0.56007000 -0.02653000
v 0.01016000 0.56007000 -0.02451000
v 0.00001000 0.55849000 -0.02571000
v 0.00985000 0.55849000 -0.02376000
v 0.00649000 0.54652000 -0.01564000
v -0.00984000 0.55849000 -0.02376000
v 0.00001000 0.54652000 -0.01693000
v -0.01818000 0.55849000 -0.01818000
v -0.01876000 0.56007000 -0.01876000
v -0.00648000 0.54652000 -0.01564000
v -0.01197000 0.54652000 -0.01197000
v -0.01140000 0.54494000 -0.01140000
v -0.00617000 0.54494000 -0.01489000
v 0.00001000 0.54494000 -0.01612000
v 0.00618000 0.54494000 -0.01489000
v -0.00606000 0.54319000 -0.01463000
v 0.00001000 0.54319000 -0.01584000
v 0.00607000 0.54319000 -0.01463000
v 0.00607000 0.37272000 -0.01463000
v 0.00001000 0.37272000 -0.01584000
v -0.00606000 0.37272000 -0.01463000
v -0.01002000 0.58022000 -0.02419000
v -0.01852000 0.58022000 -0.01852000
v -0.01896000 0.57874000 -0.01896000
v -0.01026000 0.57874000 -0.02477000
v -0.01026000 0.56182000 -0.02477000
v -0.01896000 0.56182000 -0.01896000
v -0.01876000 0.56007000 -0.01876000
v -0.01015000 0.56007000 -0.02451000
v -0.02451000 0.56007000 -0.01015000
v -0.02376000 0.55849000 -0.00984000
v -0.01818000 0.55849000 -0.01818000
v -0.01197000 0.54652000 -0.01197000
v -0.01489000 0.54494000 -0.00617000
v -0.01140000 0.54494000 -0.01140000
v -0.01463000 0.54319000 -0.00606000
v -0.01120000 0.54319000 -0.01120000
v -0.00617000 0.54494000 -0.01489000
v -0.00606000 0.54319000 -0.01463000
v -0.00606000 0.37272000 -0.01463000
v -0.01120000 0.37272000 -0.01120000
v -0.01463000 0.37272000 -0.00606000
v -0.01745000 0.58083000 -0.01745000
v -0.02419000 0.58022000 -0.01002000
v -0.01852000 0.58022000 -0.01852000
v -0.02281000 0.58083000 -0.00944000
v -0.02619000 0.58022000 0.00000000
v -0.02419000 0.58022000 0.01003000
v -0.01852000 0.58022000 0.01853000
v -0.01896000 0.57874000 0.01897000
v -0.02477000 0.57874000 0.01027000
v -0.02619000 0.58022000 0.00000000
v -0.02681000 0.57874000 0.00000000
v -0.02419000 0.58022000 -0.01002000
v -0.02681000 0.56182000 0.00000000
v -0.02477000 0.56182000 0.01027000
v -0.02451000 0.56007000 0.01016000
v -0.02477000 0.57874000 -0.01026000
v -0.02477000 0.56182000 -0.01026000
v -0.02653000 0.56007000 0.00000000
v -0.02376000 0.55849000 0.00985000
v -0.02571000 0.55849000 0.00000000
v -0.01693000 0.54652000 0.00000000
v -0.01564000 0.54652000 0.00649000
v -0.01489000 0.54494000 0.00618000
v -0.01564000 0.54652000 -0.00648000
v -0.01612000 0.54494000 0.00000000
v -0.01463000 0.54319000 0.00607000
v -0.01584000 0.54319000 0.00000000
v -0.01584000 0.37272000 0.00000000
v -0.01463000 0.37272000 0.00607000
v -0.01002000 0.58022000 0.02420000
v -0.01026000 0.57874000 0.02478000
v -0.01896000 0.56182000 0.01897000
v -0.01026000 0.56182000 0.02478000
v -0.01015000 0.56007000 0.02452000
v -0.01876000 0.56007000 0.01877000
v -0.01818000 0.55849000 0.01819000
v -0.01197000 0.54652000 0.01198000
v -0.01140000 0.54494000 0.01141000
v -0.01120000 0.54319000 0.01121000
v -0.01120000 0.37272000 0.01121000
v -0.00606000 0.54319000 0.01464000
v -0.00617000 0.54494000 0.01490000
v -0.00606000 0.37272000 0.01464000
v 0.00000000 0.58022000 0.02620000
v 0.01003000 0.58022000 0.02420000
v 0.01027000 0.57874000 0.02478000
v 0.00000000 0.57874000 0.02682000
v -0.01002000 0.58022000 0.02420000
v -0.01026000 0.57874000 0.02478000
v -0.01026000 0.56182000 0.02478000
v 0.00000000 0.56182000 0.02682000
v 0.00000000 0.56007000 0.02654000
v -0.01015000 0.56007000 0.02452000
v 0.00000000 0.55849000 0.02572000
v -0.00984000 0.55849000 0.02377000
v -0.01876000 0.56007000 0.01877000
v -0.01818000 0.55849000 0.01819000
v -0.01197000 0.54652000 0.01198000
v -0.00648000 0.54652000 0.01565000
v 0.00000000 0.54652000 0.01694000
v 0.00000000 0.54494000 0.01613000
v -0.00617000 0.54494000 0.01490000
v -0.01140000 0.54494000 0.01141000
v 0.00000000 0.54319000 0.01585000
v -0.00606000 0.54319000 0.01464000
v -0.00606000 0.37272000 0.01464000
v 0.00000000 0.37272000 0.01585000
v 0.01003000 0.58022000 0.02420000
v 0.01853000 0.58022000 0.01853000
v 0.01897000 0.57874000 0.01897000
v 0.01027000 0.57874000 0.02478000
v 0.01897000 0.56182000 0.01897000
v 0.01027000 0.56182000 0.02478000
v 0.01877000 0.56007000 0.01877000
v 0.01016000 0.56007000 0.02452000
v 0.01819000 0.55849000 0.01819000
v 0.01027000 0.56182000 0.02478000
v 0.01016000 0.56007000 0.02452000
v 0.00985000 0.55849000 0.02377000
v 0.01819000 0.55849000 0.01819000
v 0.01877000 0.56007000 0.01877000
v 0.00649000 0.54652000 0.01565000
v 0.01198000 0.54652000 0.01198000
v 0.01141000 0.54494000 0.01141000
v 0.00618000 0.54494000 0.01490000
v 0.00607000 0.54319000 0.01464000
v 0.00607000 0.37272000 0.01464000
v 0.01121000 0.37272000 0.01121000
v 0.01121000 0.54319000 0.01121000
v 0.00607000 0.37272000 0.01464000
v 0.00607000 0.54319000 0.01464000
v 0.00618000 0.54494000 0.01490000
v 0.01877000 0.56007000 -0.01876000
v 0.01819000 0.55849000 -0.01818000
v 0.01198000 0.54652000 -0.01197000
v 0.01141000 0.54494000 -0.01140000
v -0.00944000 0.58083000 -0.02281000
v 0.00000000 0.58083000 0.00000000
v -0.01002000 0.58022000 -0.02419000
v 0.00001000 0.58083000 -0.02469000
v 0.00001000 0.58022000 -0.02619000
v 0.00945000 0.58083000 -0.02281000
v 0.01003000 0.58022000 -0.02419000
v 0.01746000 0.58083000 -0.01745000
v 0.01853000 0.58022000 -0.01852000
v 0.02282000 0.58083000 -0.00944000
v 0.02420000 0.58022000 -0.01002000
v -0.02469000 0.58083000 0.00000000
v 0.02470000 0.58083000 0.00000000
v 0.02282000 0.58083000 0.00945000
v 0.02620000 0.58022000 0.00000000
v 0.02420000 0.58022000 0.01003000
v -0.02419000 0.58022000 0.01003000
v 0.01746000 0.58083000 0.01746000
v 0.01853000 0.58022000 0.01853000
v -0.02281000 0.58083000 0.00945000
v -0.01852000 0.58022000 0.01853000
v 0.00945000 0.58083000 0.02282000
v 0.01003000 0.58022000 0.02420000
v -0.01745000 0.58083000 0.01746000
v -0.01002000 0.58022000 0.02420000
v 0.00000000 0.58083000 0.02470000
v 0.00000000 0.58022000 0.02620000
v -0.00944000 0.58083000 0.02282000
vn 0.00000000 1.00000000 0.00000000
vn 0.00000000 1.00000000 0.00000000
vn 0.00000000 1.00000000 0.00000000
vn 0.00000000 1.00000000 0.00000000
vn 0.00000000 0.00000000 1.00000000
vn 0.00000000 0.00000000 1.00000000
vn 0.00000000 0.00000000 1.00000000
vn 0.00000000 0.00000000 1.00000000
vn 0.00000000 0.00000000 1.00000000
vn 0.00000000 0.00000000 1.00000000
vn 0.00000000 0.00000000 1.00000000
vn 0.00000000 0.00000000 1.00000000
vn 0.00000000 0.00000000 1.00000000
vn 0.00000000 0.00000000 1.00000000
vn 0.00000000 0.00000000 1.00000000
vn 0.00000000 0.00000000 1.00000000
vn 0.00000000 0.00000000 1.00000000
vn 0.00000000 0.00000000 1.00000000
vn 0.00000000 0.00000000 1.00000000
vn 0.00000000 0.00000000 1.00000000
vn 0.00000000 0.00000000 -1.00000000
vn 0.00000000 0.00000000 -1.00000000
vn 0.00000000 0.00000000 -1.00000000
vn 0.00000000 0.00000000 -1.00000000
vn 0.00000000 0.00000000 -1.00000000
vn 0.00000000 0.00000000 -1.00000000
vn 0.00000000 0.00000000 -1.00000000
vn 0.00000000 0.00000000 -1.00000000
vn 0.00000000 0.00000000 -1.00000000
vn 0.00000000 0.00000000 -1.00000000
vn 0.00000000 0.00000000 -1.00000000
vn 0.00000000 0.00000000 -1.00000000
vn 0.00000000 0.00000000 -1.00000000
vn 0.00000000 0.00000000 -1.00000000
vn 0.00000000 0.00000000 -1.00000000
vn 0.00000000 0.00000000 -1.00000000
vn 0.00000000 -1.00000000 0.00000000
vn 0.00000000 -1.00000000 0.00000000
vn 0.00000000 -1.00000000 0.00000000
vn 0.00000000 -1.00000000 0.00000000
vn 0.00000000 -1.00000000 0.00000000
vn 0.00000000 -1.00000000 0.00000000
vn 0.00000000 -1.00000000 0.00000000
vn 0.00000000 -1.00000000 0.00000000
vn 0.00000000 -1.00000000 0.00000000
vn 0.00000000 -1.00000000 0.00000000
vn 0.00000000 -1.00000000 0.00000000
vn 0.00000000 -1.00000000 0.00000000
vn 0.00000000 -1.00000000 0.00000000
vn 0.00000000 -1.00000000 0.00000000
vn 0.00000000 -1.00000000 0.00000000
vn 0.00000000 -1.00000000 0.00000000
vn 0.00000000 -1.00000000 0.00000000
vn 0.00000000 -1.00000000 0.00000000
vn 0.00000000 -1.00000000 0.00000000
vn 0.00000000 -1.00000000 0.00000000
vn 0.00000000 -1.00000000 0.00000000
vn 0.00000000 -1.00000000 0.00000000
vn 0.00000000 -1.00000000 0.00000000
vn 0.00000000 -1.00000000 0.00000000
vn 0.00000000 -1.00000000 0.00000000
vn 0.00000000 -1.00000000 0.00000000
vn 0.00000000 -1.00000000 0.00000000
vn 0.00000000 -1.00000000 0.00000000
vn 0.00000000 -1.00000000 0.00000000
vn 0.00000000 -1.00000000 0.00000000
vn 0.00000000 -1.00000000 0.00000000
vn 0.00000000 -1.00000000 0.00000000
vn 1.00000000 0.00000000 0.00000000
vn 1.00000000 0.00000000 0.00000000
vn 1.00000000 0.00000000 0.00000000
vn 1.00000000 0.00000000 0.00000000
vn 1.00000000 0.00000000 0.00000000
vn 1.00000000 0.00000000 0.00000000
vn 1.00000000 0.00000000 0.00000000
vn 1.00000000 0.00000000 0.00000000
vn -1.00000000 0.00000000 0.00000000
vn -1.00000000 0.00000000 0.00000000
vn -1.00000000 0.00000000 0.00000000
vn -1.00000000 0.00000000 0.00000000
vn -1.00000000 0.00000000 0.00000000
vn -1.00000000 0.00000000 0.00000000
vn -1.00000000 0.00000000 0.00000000
vn -1.00000000 0.00000000 0.00000000
vn 0.00000000 1.00000000 0.00000000
vn 0.00000000 1.00000000 0.00000000
vn 0.00000000 1.00000000 0.00000000
vn 0.00000000 1.00000000 0.00000000
vn 0.00000000 1.00000000 0.00000000
vn 0.00000000 1.00000000 0.00000000
vn 0.00000000 1.00000000 0.00000000
vn 0.00000000 1.00000000 0.00000000
vn 0.00000000 1.00000000 0.00000000
vn 0.00000000 1.00000000 0.00000000
vn 0.00000000 1.00000000 0.00000000
vn 0.00000000 1.00000000 0.00000000
vn 0.00000000 0.00000000 1.00000000
vn 0.00000000 0.00000000 1.00000000
vn 0.00000000 0.00000000 1.00000000
vn 0.00000000 0.00000000 1.00000000
vn 1.00000000 0.00000000 0.00000000
vn 1.00000000 0.00000000 0.00000000
vn 1.00000000 0.00000000 0.00000000
vn 1.00000000 0.00000000 0.00000000
vn 0.00000000 0.00000000 -1.00000000
vn 0.00000000 0.00000000 -1.00000000
vn 0.00000000 0.00000000 -1.00000000
vn 0.00000000 0.00000000 -1.00000000
vn -1.00000000 0.00000000 0.00000000
vn -1.00000000 0.00000000 0.00000000
vn -1.00000000 0.00000000 0.00000000
vn -1.00000000 0.00000000 0.00000000
vn 0.00000000 0.00000000 1.00000000
vn 0.00000000 0.00000000 1.00000000
vn 0.00000000 0.00000000 1.00000000
vn 0.00000000 0.00000000 1.00000000
vn 1.00000000 0.00000000 0.00000000
vn 1.00000000 0.00000000 0.00000000
vn 1.00000000 0.00000000 0.00000000
vn 1.00000000 0.00000000 0.00000000
vn 0.00000000 0.00000000 -1.00000000
vn 0.00000000 0.00000000 -1.00000000
vn 0.00000000 0.00000000 -1.00000000
vn 0.00000000 0.00000000 -1.00000000
vn -1.00000000 0.00000000 0.00000000
vn -1.00000000 0.00000000 0.00000000
vn -1.00000000 0.00000000 0.00000000
vn -1.00000000 0.00000000 0.00000000
vn 0.00000000 0.00000000 1.00000000
vn 0.00000000 0.00000000 1.00000000
vn 0.00000000 0.00000000 1.00000000
vn 0.00000000 0.00000000 1.00000000
vn 1.00000000 0.00000000 0.00000000
vn 1.00000000 0.00000000 0.00000000
vn 1.00000000 0.00000000 0.00000000
vn 1.00000000 0.00000000 0.00000000
vn 0.00000000 0.00000000 -1.00000000
vn 0.00000000 0.00000000 -1.00000000
vn 0.00000000 0.00000000 -1.00000000
vn 0.00000000 0.00000000 -1.00000000
vn -1.00000000 0.00000000 0.00000000
vn -1.00000000 0.00000000 0.00000000
vn -1.00000000 0.00000000 0.00000000
vn -1.00000000 0.00000000 0.00000000
vn 0.67501710 0.68276900 -0.27960400
vn 0.51663500 0.68276860 -0.51663850
vn 0.70674540 0.03196651 -0.70674540
vn 0.92340760 0.03196647 -0.38248750
vn 0.73063420 0.68276910 -0.00000141
vn 0.99948890 0.03196658 0.00000050
vn 0.67501960 0.68276940 0.27959710
vn 0.92340730 0.03196667 0.38248790
vn 0.92377920 -0.01472260 0.38264230
vn 0.99989160 -0.01472253 0.00000050
vn 0.95239310 -0.30487270 0.00000000
vn 0.92377940 -0.01472250 -0.38264200
vn 0.87989550 -0.30487240 -0.36446770
vn 0.70703040 -0.01472260 -0.70702990
vn 0.38248850 0.03196678 -0.92340700
vn 0.38264250 -0.01472269 -0.92377910
vn 0.36446460 -0.30487230 -0.87989690
vn 0.67344400 -0.30487340 -0.67344300
vn 0.57933490 -0.57335980 -0.57933530
vn 0.75693760 -0.57336030 -0.31353400
vn 0.81930340 -0.57336030 0.00000000
vn 0.87989770 -0.30487260 0.36446260
vn 0.75693740 -0.57335990 0.31353490
vn 0.75122190 -0.58209980 0.31116780
vn 0.75122200 -0.58210000 -0.31116740
vn 0.57496030 -0.58209950 -0.57496150
vn 0.66977440 -0.32061700 -0.66978130
vn 0.81311710 -0.58210020 0.00000000
vn 0.87510400 -0.32061840 -0.36248690
vn 0.94720820 -0.32061930 -0.00000097
vn 0.87510720 -0.32061910 0.36247860
vn 0.57495980 -0.58209940 0.57496230
vn 0.66978040 -0.32061990 0.66977390
vn 0.92387820 -0.00167992 0.38268280
vn 0.99999860 -0.00167992 0.00000038
vn 0.92387950 0.00000000 0.38268350
vn 1.00000000 0.00000000 0.00000041
vn 0.92387830 -0.00167992 -0.38268280
vn 0.92387960 0.00000000 -0.38268330
vn 0.70710610 -0.00167991 -0.70710550
vn 0.70710710 0.00000000 -0.70710640
vn 0.38268350 -0.00167992 -0.92387800
vn 0.36248020 -0.32061650 -0.87510750
vn 0.38268390 0.00000000 -0.92387930
vn 0.27960290 0.68277130 -0.67501530
vn 0.00000123 0.68276910 -0.73063420
vn -0.27960170 0.68276880 -0.67501810
vn -0.38248740 0.03196652 -0.92340760
vn 0.00000056 0.03196659 -0.99948890
vn 0.27960290 0.68277130 -0.67501530
vn 0.38248850 0.03196678 -0.92340700
vn 0.38264250 -0.01472269 -0.92377910
vn 0.00000049 -0.01472262 -0.99989160
vn -0.38264130 -0.01472254 -0.92377960
vn -0.36446710 -0.30487470 -0.87989500
vn 0.00000079 -0.30487140 -0.95239350
vn 0.36446460 -0.30487230 -0.87989690
vn 0.00000039 -0.57335960 -0.81930380
vn 0.31353380 -0.57335910 -0.75693850
vn 0.31116630 -0.58209910 -0.75122310
vn -0.31353360 -0.57336030 -0.75693770
vn 0.00000042 -0.58209930 -0.81311770
vn -0.57933480 -0.57336000 -0.57933550
vn -0.67344650 -0.30487470 -0.67343990
vn -0.31116570 -0.58209940 -0.75122310
vn -0.57495980 -0.58209920 -0.57496230
vn -0.66977630 -0.32061820 -0.66977880
vn -0.36248010 -0.32061750 -0.87510710
vn 0.00000095 -0.32061650 -0.94720910
vn 0.36248020 -0.32061650 -0.87510750
vn -0.38268230 -0.00167992 -0.92387850
vn 0.00000047 -0.00167992 -0.99999860
vn 0.38268350 -0.00167992 -0.92387800
vn 0.38268390 0.00000000 -0.92387930
vn 0.00000046 0.00000000 -1.00000000
vn -0.38268290 0.00000000 -0.92387970
vn -0.27960170 0.68276880 -0.67501810
vn -0.51663740 0.68276970 -0.51663460
vn -0.70674560 0.03196665 -0.70674530
vn -0.38248740 0.03196652 -0.92340760
vn -0.38264130 -0.01472254 -0.92377960
vn -0.70703010 -0.01472257 -0.70703030
vn -0.67344650 -0.30487470 -0.67343990
vn -0.36446710 -0.30487470 -0.87989500
vn -0.87989710 -0.30487330 -0.36446300
vn -0.75693770 -0.57336020 -0.31353390
vn -0.57933480 -0.57336000 -0.57933550
vn -0.57495980 -0.58209920 -0.57496230
vn -0.87510600 -0.32061860 -0.36248190
vn -0.66977630 -0.32061820 -0.66977880
vn -0.92387810 -0.00167991 -0.38268330
vn -0.70710530 -0.00167991 -0.70710620
vn -0.36248010 -0.32061750 -0.87510710
vn -0.38268230 -0.00167992 -0.92387850
vn -0.38268290 0.00000000 -0.92387970
vn -0.70710640 0.00000000 -0.70710710
vn -0.92387940 0.00000000 -0.38268390
vn -0.02126538 0.99954770 -0.02126567
vn -0.67501810 0.68276820 -0.27960310
vn -0.51663740 0.68276970 -0.51663460
vn -0.02778461 0.99954770 -0.01150892
vn -0.73063480 0.68276850 0.00000139
vn -0.67501680 0.68276770 0.27960780
vn -0.51663630 0.68276830 0.51663740
vn -0.70674530 0.03196652 0.70674560
vn -0.92340710 0.03196634 0.38248850
vn -0.73063480 0.68276850 0.00000139
vn -0.99948890 0.03196648 -0.00000028
vn -0.67501810 0.68276820 -0.27960310
vn -0.99989160 -0.01472252 -0.00000027
vn -0.92377960 -0.01472253 0.38264140
vn -0.87989720 -0.30487320 0.36446290
vn -0.92340730 0.03196647 -0.38248810
vn -0.92377950 -0.01472258 -0.38264170
vn -0.95239310 -0.30487280 0.00000000
vn -0.75693740 -0.57335990 0.31353500
vn -0.81930350 -0.57336010 0.00000133
vn -0.81311720 -0.58210000 0.00000144
vn -0.75122210 -0.58209960 0.31116780
vn -0.87510450 -0.32061820 0.36248580
vn -0.75122230 -0.58210000 -0.31116660
vn -0.94720830 -0.32061870 0.00000098
vn -0.92387830 -0.00167992 0.38268260
vn -0.99999860 -0.00167992 -0.00000029
vn -1.00000000 0.00000000 -0.00000032
vn -0.92387970 0.00000000 0.38268310
vn -0.27960290 0.68276820 0.67501830
vn -0.38248820 0.03196666 0.92340730
vn -0.70703090 -0.01472261 0.70702950
vn -0.38264210 -0.01472259 0.92377930
vn -0.36446600 -0.30487340 0.87989590
vn -0.67344690 -0.30487410 0.67343970
vn -0.57933500 -0.57335980 0.57933540
vn -0.57496070 -0.58209960 0.57496110
vn -0.66977580 -0.32061790 0.66977950
vn -0.70710590 -0.00167992 0.70710560
vn -0.70710690 0.00000000 0.70710660
vn -0.38268300 -0.00167993 0.92387820
vn -0.36248430 -0.32062130 0.87510410
vn -0.38268340 0.00000000 0.92387950
vn 0.00000043 0.68276860 0.73063470
vn 0.27960240 0.68277130 0.67501560
vn 0.38248770 0.03196660 0.92340740
vn 0.00000000 0.03196668 0.99948890
vn -0.27960290 0.68276820 0.67501830
vn -0.38248820 0.03196666 0.92340730
vn -0.38264210 -0.01472259 0.92377930
vn 0.00000000 -0.01472251 0.99989160
vn -0.00000050 -0.30487210 0.95239330
vn -0.36446600 -0.30487340 0.87989590
vn -0.00000022 -0.57336060 0.81930300
vn -0.31353380 -0.57336000 0.75693780
vn -0.67344690 -0.30487410 0.67343970
vn -0.57933500 -0.57335980 0.57933540
vn -0.57496070 -0.58209960 0.57496110
vn -0.31116670 -0.58210050 0.75122180
vn -0.00000015 -0.58210160 0.81311600
vn 0.00000091 -0.32062340 0.94720670
vn -0.36248430 -0.32062130 0.87510410
vn -0.66977580 -0.32061790 0.66977950
vn -0.00000016 -0.00167993 0.99999860
vn -0.38268300 -0.00167993 0.92387820
vn -0.38268340 0.00000000 0.92387950
vn -0.00000017 0.00000000 1.00000000
vn 0.27960240 0.68277130 0.67501560
vn 0.51663800 0.68277000 0.51663370
vn 0.70674510 0.03196656 0.70674570
vn 0.38248770 0.03196660 0.92340740
vn 0.70702970 -0.01472258 0.70703070
vn 0.38264150 -0.01472250 0.92377960
vn 0.67344430 -0.30487240 0.67344300
vn 0.36446380 -0.30487200 0.87989730
vn 0.57933410 -0.57335950 0.57933650
vn 0.38264150 -0.01472250 0.92377960
vn 0.36446380 -0.30487200 0.87989730
vn 0.31353380 -0.57336040 0.75693750
vn 0.57933410 -0.57335950 0.57933650
vn 0.67344430 -0.30487240 0.67344300
vn 0.31116680 -0.58210090 0.75122150
vn 0.57495980 -0.58209940 0.57496230
vn 0.66978040 -0.32061990 0.66977390
vn 0.36248280 -0.32062140 0.87510470
vn 0.38268270 -0.00167993 0.92387830
vn 0.38268320 0.00000000 0.92387960
vn 0.70710660 0.00000000 0.70710690
vn 0.70710580 -0.00167991 0.70710580
vn 0.38268320 0.00000000 0.92387960
vn 0.38268270 -0.00167993 0.92387830
vn 0.36248280 -0.32062140 0.87510470
vn 0.67344400 -0.30487340 -0.67344300
vn 0.57933490 -0.57335980 -0.57933530
vn 0.57496030 -0.58209950 -0.57496150
vn 0.66977440 -0.32061700 -0.66978130
vn -0.01150875 0.99954770 -0.02778469
vn 0.00000000 1.00000000 -0.00000022
vn -0.27960170 0.68276880 -0.67501810
vn 0.00000000 0.99954770 -0.03007516
vn 0.00000123 0.68276910 -0.73063420
vn 0.01150877 0.99954750 -0.02778652
vn 0.27960290 0.68277130 -0.67501530
vn 0.02126539 0.99954750 -0.02126739
vn 0.51663500 0.68276860 -0.51663850
vn 0.02778452 0.99954770 -0.01151065
vn 0.67501710 0.68276900 -0.27960400
vn -0.03007381 0.99954770 0.00000024
vn 0.03007379 0.99954770 -0.00000099
vn 0.02778459 0.99954770 0.01150891
vn 0.73063420 0.68276910 -0.00000141
vn 0.67501960 0.68276940 0.27959710
vn -0.67501680 0.68276770 0.27960780
vn 0.02126540 0.99954770 0.02126720
vn 0.51663800 0.68277000 0.51663370
vn -0.02778457 0.99954770 0.01150866
vn -0.51663630 0.68276830 0.51663740
vn 0.01150874 0.99954750 0.02778766
vn 0.27960240 0.68277130 0.67501560
vn -0.02126542 0.99954770 0.02126461
vn -0.27960290 0.68276820 0.67501830
vn 0.00000000 0.99954750 0.03007603
vn 0.00000043 0.68276860 0.73063470
vn -0.01150877 0.99954770 0.02778439
vt 0.44993020 0.46023090
vt 0.44993520 0.55926470
vt 0.54997750 0.55972560
vt 0.54989420 0.45975180
vt -34.22122000 0.38825770
vt -34.16642000 0.38825770
vt -34.16642000 0.33307690
vt -34.22122000 0.33307690
vt -34.22122000 0.27789610
vt -34.16642000 0.27789610
vt -34.22122000 0.22271520
vt -34.16642000 0.22271520
vt -34.22122000 0.16753440
vt -34.16642000 0.16753440
vt -34.22122000 0.11235370
vt -34.16642000 0.11235370
vt -34.22122000 0.05717285
vt -34.16642000 0.05717285
vt -34.22122000 0.00199203
vt -34.16642000 0.00199203
vt -34.16002000 0.38825770
vt -34.10523000 0.38825770
vt -34.10523000 0.33307690
vt -34.16002000 0.33307690
vt -34.16002000 0.27789610
vt -34.10523000 0.27789610
vt -34.16002000 0.22271520
vt -34.10523000 0.22271520
vt -34.16002000 0.16753450
vt -34.10523000 0.16753450
vt -34.16002000 0.11235370
vt -34.10523000 0.11235370
vt -34.16002000 0.05717285
vt -34.10523000 0.05717285
vt -34.16002000 0.00199203
vt -34.10523000 0.00199203
vt -33.88137000 0.38825770
vt -33.77255000 0.38825770
vt -33.77255000 0.33307690
vt -33.88137000 0.33307690
vt -33.99019000 0.38825770
vt -33.88137000 0.27789610
vt -33.77255000 0.27789610
vt -33.99019000 0.33307690
vt -34.09902000 0.38825770
vt -34.09902000 0.33307690
vt -33.99019000 0.27789610
vt -34.09902000 0.27789610
vt -33.88137000 0.22271520
vt -33.77255000 0.22271520
vt -33.99019000 0.22271520
vt -34.09902000 0.22271520
vt -33.88137000 0.16753440
vt -33.77255000 0.16753440
vt -33.99019000 0.16753440
vt -34.09902000 0.16753440
vt -33.88137000 0.11235370
vt -33.77255000 0.11235370
vt -33.99019000 0.11235370
vt -34.09902000 0.11235370
vt -33.88137000 0.05717285
vt -33.77255000 0.05717285
vt -33.99019000 0.05717285
vt -34.09902000 0.05717285
vt -33.88137000 0.00199203
vt -33.77255000 0.00199203
vt -33.99019000 0.00199203
vt -34.09902000 0.00199203
vt -34.15886000 0.71863750
vt -34.10406000 0.71863750
vt -34.10406000 0.60981230
vt -34.15886000 0.60981230
vt -34.15886000 0.50098720
vt -34.10406000 0.50098720
vt -34.15886000 0.39216200
vt -34.10406000 0.39216200
vt -34.21966000 0.50098710
vt -34.16486000 0.39216190
vt -34.21966000 0.39216190
vt -34.16486000 0.50098710
vt -34.21966000 0.60981230
vt -34.16486000 0.60981230
vt -34.21966000 0.71863750
vt -34.16486000 0.71863750
vt -33.99226000 0.75865740
vt -33.99226000 0.92713870
vt -33.96593000 0.92713870
vt -33.96593000 0.75865740
vt -33.95986000 0.75865740
vt -33.95986000 0.92713870
vt -33.93218000 0.92713870
vt -33.93218000 0.75865740
vt -33.92554000 0.75865740
vt -33.92554000 0.92713870
vt -33.86879000 0.92713870
vt -33.86879000 0.75865740
vt -33.76540000 0.00199203
vt -33.76540000 0.36458320
vt -33.73907000 0.36458320
vt -33.73907000 0.00199203
vt -33.73299000 0.00199203
vt -33.73299000 0.36458320
vt -33.56451000 0.36458320
vt -33.56451000 0.00199203
vt -33.53128000 0.36458320
vt -33.53128000 0.00199203
vt -33.55761000 0.00199203
vt -33.55761000 0.36458320
vt -33.52520000 0.00199203
vt -33.52520000 0.36458320
vt -33.35672000 0.36458320
vt -33.35672000 0.00199203
vt -33.34981000 0.00199203
vt -33.34981000 0.36458320
vt -33.32213000 0.36458320
vt -33.32213000 0.00199203
vt -33.41544000 0.36848750
vt -33.41544000 0.73107870
vt -33.24696000 0.73107870
vt -33.24696000 0.36848750
vt -33.42144000 0.73107870
vt -33.42144000 0.36848750
vt -33.44912000 0.36848750
vt -33.44912000 0.73107870
vt -33.62360000 0.36848750
vt -33.62360000 0.73107870
vt -33.45512000 0.73107870
vt -33.45512000 0.36848750
vt -33.68634000 0.36848750
vt -33.68634000 0.73107870
vt -33.62960000 0.73107870
vt -33.62960000 0.36848750
vt -33.86083000 0.39216190
vt -33.86083000 0.75475310
vt -33.69235000 0.75475310
vt -33.69235000 0.39216190
vt -33.86683000 0.75475310
vt -33.86683000 0.39216190
vt -33.92358000 0.39216190
vt -33.92358000 0.75475310
vt -34.09806000 0.39216190
vt -34.09806000 0.75475310
vt -33.92958000 0.75475310
vt -33.92958000 0.39216190
vt -34.18108000 0.96189250
vt -34.17128000 0.96189250
vt -34.17076000 0.96019220
vt -34.18081000 0.96019220
vt -34.19264000 0.96189250
vt -34.19264000 0.96019220
vt -34.20420000 0.96189250
vt -34.20448000 0.96019220
vt -34.20448000 0.94067270
vt -34.19264000 0.94067270
vt -34.19264000 0.93865050
vt -34.18081000 0.94067270
vt -34.18093000 0.93865050
vt -34.17076000 0.94067270
vt -34.16407000 0.96019220
vt -34.16407000 0.94067270
vt -34.16436000 0.93865050
vt -34.17100000 0.93865050
vt -34.17167000 0.93682340
vt -34.18129000 0.93682340
vt -34.19264000 0.93682340
vt -34.20436000 0.93865050
vt -34.20399000 0.93682340
vt -34.20012000 0.92302580
vt -34.18516000 0.92302580
vt -34.17882000 0.92302580
vt -34.17949000 0.92119870
vt -34.19264000 0.92302580
vt -34.18553000 0.92119870
vt -34.19264000 0.92119870
vt -34.19976000 0.92119870
vt -34.20646000 0.92302580
vt -34.20579000 0.92119870
vt -34.19963000 0.91917650
vt -34.19264000 0.91917650
vt -34.19963000 0.72254180
vt -34.19264000 0.72254180
vt -34.18565000 0.91917650
vt -34.18565000 0.72254180
vt -34.17972000 0.91917650
vt -34.17972000 0.72254180
vt -34.17575000 0.91917650
vt -34.17546000 0.92119870
vt -34.17575000 0.72254180
vt -34.16473000 0.96189250
vt -34.13457000 0.72254180
vt -34.14613000 0.72254180
vt -34.14640000 0.72424210
vt -34.13457000 0.72424210
vt -34.12300000 0.72254180
vt -34.12273000 0.72424210
vt -34.12273000 0.74376160
vt -34.13457000 0.74376160
vt -34.14640000 0.74376160
vt -34.14628000 0.74578370
vt -34.13457000 0.74578370
vt -34.12285000 0.74578370
vt -34.13457000 0.74761090
vt -34.12322000 0.74761090
vt -34.12709000 0.76140840
vt -34.14592000 0.74761090
vt -34.13457000 0.76140840
vt -34.15554000 0.74761090
vt -34.15622000 0.74578370
vt -34.14205000 0.76140840
vt -34.14839000 0.76140840
vt -34.14772000 0.76323560
vt -34.14169000 0.76323560
vt -34.13457000 0.76323560
vt -34.12745000 0.76323560
vt -34.14156000 0.76525780
vt -34.13457000 0.76525780
vt -34.12757000 0.76525780
vt -34.12757000 0.96189250
vt -34.13457000 0.96189250
vt -34.14156000 0.96189250
vt -34.10598000 0.99800810
vt -34.09943000 0.99800810
vt -34.09994000 0.99630780
vt -34.10665000 0.99630780
vt -34.10665000 0.97678830
vt -34.09994000 0.97678830
vt -34.09971000 0.97476610
vt -34.10635000 0.97476610
vt -34.08978000 0.97476610
vt -34.08942000 0.97293900
vt -34.09905000 0.97293900
vt -34.09188000 0.95914140
vt -34.08519000 0.95731430
vt -34.09122000 0.95731430
vt -34.08506000 0.95529210
vt -34.09099000 0.95529210
vt -34.09525000 0.95731430
vt -34.09495000 0.95529210
vt -34.09495000 0.75865740
vt -34.09099000 0.75865740
vt -34.08506000 0.75865740
vt -33.85255000 0.80901160
vt -33.86032000 0.80043510
vt -33.85378000 0.81023750
vt -33.85873000 0.79977170
vt -33.86263000 0.78887230
vt -34.06650000 0.99800810
vt -34.05671000 0.99800810
vt -34.05619000 0.99630780
vt -34.06623000 0.99630780
vt -34.07807000 0.99800810
vt -34.07807000 0.99630780
vt -34.08963000 0.99800810
vt -34.07807000 0.97678830
vt -34.06623000 0.97678830
vt -34.06636000 0.97476610
vt -34.08991000 0.99630780
vt -34.08991000 0.97678830
vt -34.07807000 0.97476610
vt -34.06672000 0.97293900
vt -34.07807000 0.97293900
vt -34.07807000 0.95914140
vt -34.07059000 0.95914140
vt -34.07095000 0.95731430
vt -34.08554000 0.95914140
vt -34.07807000 0.95731430
vt -34.07107000 0.95529210
vt -34.07807000 0.95529210
vt -34.07807000 0.75865740
vt -34.07107000 0.75865740
vt -34.05015000 0.99800810
vt -34.04949000 0.99630780
vt -34.05619000 0.97678830
vt -34.04949000 0.97678830
vt -34.04979000 0.97476610
vt -34.05642000 0.97476610
vt -34.05709000 0.97293900
vt -34.06425000 0.95914140
vt -34.06491000 0.95731430
vt -34.06514000 0.95529210
vt -34.06514000 0.75865740
vt -34.06118000 0.95529210
vt -34.06089000 0.95731430
vt -34.06118000 0.75865740
vt -34.02018000 0.99800810
vt -34.00863000 0.99800810
vt -34.00835000 0.99630780
vt -34.02018000 0.99630780
vt -34.03175000 0.99800810
vt -34.03202000 0.99630780
vt -34.03202000 0.97678830
vt -34.02018000 0.97678830
vt -34.02018000 0.97476610
vt -34.03190000 0.97476610
vt -34.02018000 0.97293900
vt -34.03154000 0.97293900
vt -34.04183000 0.97476610
vt -34.04116000 0.97293900
vt -34.03400000 0.95914140
vt -34.02766000 0.95914140
vt -34.02018000 0.95914140
vt -34.02018000 0.95731430
vt -34.02730000 0.95731430
vt -34.03334000 0.95731430
vt -34.02018000 0.95529210
vt -34.02718000 0.95529210
vt -34.02718000 0.75865740
vt -34.02018000 0.75865740
vt -34.22055000 0.96189250
vt -34.21401000 0.96189250
vt -34.21451000 0.96019220
vt -34.22122000 0.96019220
vt -34.21451000 0.94067270
vt -34.22122000 0.94067270
vt -34.21428000 0.93865050
vt -34.22092000 0.93865050
vt -34.21362000 0.93682340
vt -34.00835000 0.97678830
vt -34.00847000 0.97476610
vt -34.00883000 0.97293900
vt -33.99921000 0.97293900
vt -33.99854000 0.97476610
vt -34.01271000 0.95914140
vt -34.00637000 0.95914140
vt -34.00703000 0.95731430
vt -34.01307000 0.95731430
vt -34.01320000 0.95529210
vt -34.01320000 0.75865740
vt -34.20556000 0.72254180
vt -34.20556000 0.91917650
vt -34.20952000 0.72254180
vt -34.20952000 0.91917650
vt -34.20983000 0.92119870
vt -34.11293000 0.74578370
vt -34.11359000 0.74761090
vt -34.12075000 0.76140840
vt -34.12142000 0.76323560
vt -33.84331000 0.81518560
vt -33.83242000 0.78887230
vt -33.84398000 0.81678730
vt -33.83242000 0.81735360
vt -33.83242000 0.81908730
vt -33.82151000 0.81518560
vt -33.82085000 0.81678730
vt -33.81227000 0.80901160
vt -33.81105000 0.81023750
vt -33.80610000 0.79977170
vt -33.80450000 0.80043510
vt -33.86090000 0.78887230
vt -33.80394000 0.78887230
vt -33.80610000 0.77797300
vt -33.80220000 0.78887230
vt -33.80450000 0.77730960
vt -33.86032000 0.77730960
vt -33.81227000 0.76873300
vt -33.81105000 0.76750710
vt -33.85873000 0.77797300
vt -33.85378000 0.76750710
vt -33.82151000 0.76255910
vt -33.82085000 0.76095740
vt -33.85255000 0.76873300
vt -33.84398000 0.76095740
vt -33.83242000 0.76039110
vt -33.83242000 0.75865740
vt -33.84331000 0.76255910
f 3/3/3 2/2/2 1/1/1
f 4/4/4 3/3/3 1/1/1
f 7/7/7 6/6/6 5/5/5
f 8/8/8 7/7/7 5/5/5
f 8/8/8 9/9/9 7/7/7
f 9/9/9 10/10/10 7/7/7
f 9/9/9 11/11/11 10/10/10
f 11/11/11 12/12/12 10/10/10
f 11/11/11 13/13/13 12/12/12
f 13/13/13 14/14/14 12/12/12
f 13/13/13 15/15/15 14/14/14
f 15/15/15 16/16/16 14/14/14
f 15/15/15 17/17/17 16/16/16
f 17/17/17 18/18/18 16/16/16
f 17/17/17 19/19/19 18/18/18
f 19/19/19 20/20/20 18/18/18
f 23/23/23 22/22/22 21/21/21
f 24/24/24 23/23/23 21/21/21
f 24/24/24 25/25/25 23/23/23
f 25/25/25 26/26/26 23/23/23
f 25/25/25 27/27/27 26/26/26
f 27/27/27 28/28/28 26/26/26
f 27/27/27 29/29/29 28/28/28
f 29/29/29 30/30/30 28/28/28
f 29/29/29 31/31/31 30/30/30
f 31/31/31 32/32/32 30/30/30
f 31/31/31 33/33/33 32/32/32
f 33/33/33 34/34/34 32/32/32
f 33/33/33 35/35/35 34/34/34
f 35/35/35 36/36/36 34/34/34
f 39/39/39 38/38/38 37/37/37
f 40/40/40 39/39/39 37/37/37
f 40/40/40 37/37/37 41/41/41
f 40/40/40 42/42/42 39/39/39
f 42/42/42 43/43/43 39/39/39
f 44/44/44 40/40/40 41/41/41
f 40/40/40 44/44/44 42/42/42
f 44/44/44 41/41/41 45/45/45
f 46/46/46 44/44/44 45/45/45
f 44/44/44 46/46/46 47/47/47
f 44/44/44 47/47/47 42/42/42
f 46/46/46 48/48/48 47/47/47
f 42/42/42 49/49/49 43/43/43
f 42/42/42 47/47/47 49/49/49
f 49/49/49 50/50/50 43/43/43
f 47/47/47 48/48/48 51/51/51
f 47/47/47 51/51/51 49/49/49
f 48/48/48 52/52/52 51/51/51
f 49/49/49 53/53/53 50/50/50
f 49/49/49 51/51/51 53/53/53
f 53/53/53 54/54/54 50/50/50
f 51/51/51 52/52/52 55/55/55
f 51/51/51 55/55/55 53/53/53
f 52/52/52 56/56/56 55/55/55
f 53/53/53 57/57/57 54/54/54
f 53/53/53 55/55/55 57/57/57
f 57/57/57 58/58/58 54/54/54
f 55/55/55 56/56/56 59/59/59
f 55/55/55 59/59/59 57/57/57
f 56/56/56 60/60/60 59/59/59
f 57/57/57 61/61/61 58/58/58
f 57/57/57 59/59/59 61/61/61
f 61/61/61 62/62/62 58/58/58
f 59/59/59 60/60/60 63/63/63
f 59/59/59 63/63/63 61/61/61
f 60/60/60 64/64/64 63/63/63
f 61/61/61 65/65/65 62/62/62
f 61/61/61 63/63/63 65/65/65
f 65/65/65 66/66/66 62/62/62
f 63/63/63 67/67/67 65/65/65
f 63/63/63 64/64/64 67/67/67
f 64/64/64 68/68/68 67/67/67
f 71/71/71 70/70/70 69/69/69
f 72/72/72 71/71/71 69/69/69
f 72/72/72 73/73/73 71/71/71
f 73/73/73 74/74/74 71/71/71
f 73/73/73 75/75/75 74/74/74
f 75/75/75 76/76/76 74/74/74
f 79/79/79 78/78/78 77/77/77
f 78/78/78 80/80/80 77/77/77
f 77/77/77 80/80/80 81/81/81
f 80/80/80 82/82/82 81/81/81
f 81/81/81 82/82/82 83/83/83
f 82/82/82 84/84/84 83/83/83
f 87/87/87 86/86/86 85/85/85
f 88/88/88 87/87/87 85/85/85
f 91/91/91 90/90/90 89/89/89
f 92/92/92 91/91/91 89/89/89
f 95/95/95 94/94/94 93/93/93
f 96/96/96 95/95/95 93/93/93
f 99/99/99 98/98/98 97/97/97
f 100/100/100 99/99/99 97/97/97
f 103/103/103 102/102/102 101/101/101
f 104/104/104 103/103/103 101/101/101
f 107/107/107 106/106/106 105/105/105
f 108/108/108 107/107/107 105/105/105
f 111/111/111 110/110/110 109/109/109
f 112/112/112 111/111/111 109/109/109
f 115/115/115 114/114/114 113/113/113
f 116/116/116 115/115/115 113/113/113
f 119/119/119 118/118/118 117/117/117
f 120/120/120 119/119/119 117/117/117
f 123/123/123 122/122/122 121/121/121
f 124/124/124 123/123/123 121/121/121
f 127/127/127 126/126/126 125/125/125
f 128/128/128 127/127/127 125/125/125
f 131/131/131 130/130/130 129/129/129
f 132/132/132 131/131/131 129/129/129
f 135/135/135 134/134/134 133/133/133
f 136/136/136 135/135/135 133/133/133
f 139/139/139 138/138/138 137/137/137
f 140/140/140 139/139/139 137/137/137
f 143/143/143 142/142/142 141/141/141
f 144/144/144 143/143/143 141/141/141
f 147/147/147 146/146/146 145/145/145
f 148/148/148 147/147/147 145/145/145
f 145/145/145 149/149/149 148/148/148
f 149/149/149 150/150/150 148/148/148
f 150/150/150 149/149/149 151/151/151
f 152/152/152 150/150/150 151/151/151
f 150/150/150 152/152/152 153/153/153
f 154/154/154 150/150/150 153/153/153
f 148/148/148 150/150/150 154/154/154
f 155/155/155 154/154/154 153/153/153
f 147/147/147 148/148/148 156/156/156
f 156/156/156 148/148/148 154/154/154
f 154/154/154 155/155/155 157/157/157
f 156/156/156 154/154/154 157/157/157
f 158/158/158 147/147/147 156/156/156
f 159/159/159 147/147/147 158/158/158
f 160/160/160 159/159/159 158/158/158
f 161/161/161 160/160/160 158/158/158
f 162/162/162 161/161/161 158/158/158
f 162/162/162 158/158/158 156/156/156
f 157/157/157 162/162/162 156/156/156
f 163/163/163 162/162/162 157/157/157
f 157/157/157 155/155/155 164/164/164
f 164/164/164 163/163/163 157/157/157
f 155/155/155 165/165/165 164/164/164
f 165/165/165 155/155/155 166/166/166
f 167/167/167 165/165/165 166/166/166
f 167/167/167 168/168/168 165/165/165
f 164/164/164 169/169/169 163/163/163
f 169/169/169 170/170/170 163/163/163
f 171/171/171 170/170/170 169/169/169
f 165/165/165 172/172/172 164/164/164
f 172/172/172 169/169/169 164/164/164
f 168/168/168 172/172/172 165/165/165
f 169/169/169 172/172/172 173/173/173
f 173/173/173 171/171/171 169/169/169
f 174/174/174 172/172/172 168/168/168
f 172/172/172 174/174/174 173/173/173
f 175/175/175 174/174/174 168/168/168
f 175/175/175 168/168/168 176/176/176
f 177/177/177 175/175/175 176/176/176
f 178/178/178 175/175/175 177/177/177
f 178/178/178 179/179/179 175/175/175
f 179/179/179 174/174/174 175/175/175
f 179/179/179 178/178/178 180/180/180
f 181/181/181 179/179/179 180/180/180
f 174/174/174 179/179/179 182/182/182
f 182/182/182 179/179/179 181/181/181
f 173/173/173 174/174/174 182/182/182
f 183/183/183 182/182/182 181/181/181
f 182/182/182 184/184/184 173/173/173
f 184/184/184 182/182/182 183/183/183
f 184/184/184 171/171/171 173/173/173
f 185/185/185 184/184/184 183/183/183
f 184/184/184 186/186/186 171/171/171
f 186/186/186 184/184/184 185/185/185
f 186/186/186 187/187/187 171/171/171
f 188/188/188 186/186/186 185/185/185
f 159/159/159 189/189/189 146/146/146
f 147/147/147 159/159/159 146/146/146
f 192/192/192 191/191/191 190/190/190
f 193/193/193 192/192/192 190/190/190
f 193/193/193 190/190/190 194/194/194
f 195/195/195 193/193/193 194/194/194
f 193/193/193 195/195/195 196/196/196
f 192/192/192 193/193/193 197/197/197
f 197/197/197 193/193/193 196/196/196
f 198/198/198 192/192/192 197/197/197
f 199/199/199 198/198/198 197/197/197
f 200/200/200 197/197/197 196/196/196
f 200/200/200 199/199/199 197/197/197
f 201/201/201 200/200/200 196/196/196
f 202/202/202 200/200/200 201/201/201
f 203/203/203 202/202/202 201/201/201
f 203/203/203 204/204/204 202/202/202
f 205/205/205 199/199/199 200/200/200
f 202/202/202 205/205/205 200/200/200
f 204/204/204 206/206/206 202/202/202
f 202/202/202 206/206/206 205/205/205
f 205/205/205 207/207/207 199/199/199
f 207/207/207 208/208/208 199/199/199
f 205/205/205 209/209/209 207/207/207
f 206/206/206 209/209/209 205/205/205
f 209/209/209 210/210/210 207/207/207
f 211/211/211 210/210/210 209/209/209
f 212/212/212 211/211/211 209/209/209
f 212/212/212 209/209/209 206/206/206
f 213/213/213 206/206/206 204/204/204
f 213/213/213 212/212/212 206/206/206
f 214/214/214 213/213/213 204/204/204
f 215/215/215 212/212/212 213/213/213
f 216/216/216 213/213/213 214/214/214
f 216/216/216 215/215/215 213/213/213
f 217/217/217 216/216/216 214/214/214
f 216/216/216 217/217/217 218/218/218
f 219/219/219 216/216/216 218/218/218
f 215/215/215 216/216/216 219/219/219
f 220/220/220 215/215/215 219/219/219
f 223/223/223 222/222/222 221/221/221
f 224/224/224 223/223/223 221/221/221
f 223/223/223 224/224/224 225/225/225
f 226/226/226 223/223/223 225/225/225
f 227/227/227 226/226/226 225/225/225
f 228/228/228 227/227/227 225/225/225
f 227/227/227 229/229/229 226/226/226
f 230/230/230 229/229/229 227/227/227
f 231/231/231 230/230/230 227/227/227
f 231/231/231 232/232/232 230/230/230
f 234/234/234 233/233/233 232/232/232
f 235/235/235 233/233/233 234/234/234
f 236/236/236 235/235/235 234/234/234
f 236/236/236 234/234/234 237/237/237
f 238/238/238 236/236/236 237/237/237
f 236/236/236 238/238/238 239/239/239
f 240/240/240 236/236/236 239/239/239
f 235/235/235 236/236/236 240/240/240
f 241/241/241 235/235/235 240/240/240
f 244/244/244 243/243/243 242/242/242
f 243/243/243 245/245/245 242/242/242
f 243/243/243 246/246/246 245/245/245
f 249/249/249 248/248/248 247/247/247
f 250/250/250 249/249/249 247/247/247
f 250/250/250 247/247/247 251/251/251
f 252/252/252 250/250/250 251/251/251
f 252/252/252 251/251/251 253/253/253
f 250/250/250 252/252/252 254/254/254
f 255/255/255 250/250/250 254/254/254
f 256/256/256 255/255/255 254/254/254
f 257/257/257 252/252/252 253/253/253
f 257/257/257 253/253/253 222/222/222
f 223/223/223 257/257/257 222/222/222
f 257/257/257 223/223/223 226/226/226
f 252/252/252 257/257/257 258/258/258
f 258/258/258 257/257/257 226/226/226
f 254/254/254 252/252/252 258/258/258
f 229/229/229 258/258/258 226/226/226
f 259/259/259 256/256/256 254/254/254
f 259/259/259 254/254/254 258/258/258
f 229/229/229 259/259/259 258/258/258
f 260/260/260 256/256/256 259/259/259
f 261/261/261 259/259/259 229/229/229
f 261/261/261 260/260/260 259/259/259
f 230/230/230 261/261/261 229/229/229
f 261/261/261 262/262/262 260/260/260
f 262/262/262 263/263/263 260/260/260
f 264/264/264 263/263/263 262/262/262
f 230/230/230 265/265/265 261/261/261
f 265/265/265 262/262/262 261/261/261
f 232/232/232 265/265/265 230/230/230
f 233/233/233 265/265/265 232/232/232
f 266/266/266 264/264/264 262/262/262
f 266/266/266 262/262/262 265/265/265
f 233/233/233 266/266/266 265/265/265
f 267/267/267 264/264/264 266/266/266
f 268/268/268 266/266/266 233/233/233
f 268/268/268 267/267/267 266/266/266
f 235/235/235 268/268/268 233/233/233
f 268/268/268 235/235/235 241/241/241
f 269/269/269 268/268/268 241/241/241
f 267/267/267 268/268/268 269/269/269
f 270/270/270 267/267/267 269/269/269
f 272/272/272 271/271/271 248/248/248
f 249/249/249 272/272/272 248/248/248
f 272/272/272 249/249/249 273/273/273
f 274/274/274 272/272/272 273/273/273
f 275/275/275 274/274/274 273/273/273
f 276/276/276 275/275/275 273/273/273
f 273/273/273 249/249/249 255/255/255
f 276/276/276 273/273/273 255/255/255
f 249/249/249 250/250/250 255/255/255
f 256/256/256 276/276/276 255/255/255
f 277/277/277 276/276/276 256/256/256
f 260/260/260 277/277/277 256/256/256
f 260/260/260 263/263/263 277/277/277
f 263/263/263 278/278/278 277/277/277
f 279/279/279 278/278/278 263/263/263
f 264/264/264 279/279/279 263/263/263
f 280/280/280 279/279/279 264/264/264
f 267/267/267 280/280/280 264/264/264
f 280/280/280 267/267/267 270/270/270
f 281/281/281 280/280/280 270/270/270
f 280/280/280 282/282/282 279/279/279
f 282/282/282 280/280/280 281/281/281
f 282/282/282 283/283/283 279/279/279
f 284/284/284 282/282/282 281/281/281
f 287/287/287 286/286/286 285/285/285
f 288/288/288 287/287/287 285/285/285
f 288/288/288 285/285/285 289/289/289
f 290/290/290 288/288/288 289/289/289
f 288/288/288 290/290/290 291/291/291
f 292/292/292 288/288/288 291/291/291
f 293/293/293 292/292/292 291/291/291
f 294/294/294 293/293/293 291/291/291
f 295/295/295 293/293/293 294/294/294
f 296/296/296 295/295/295 294/294/294
f 296/296/296 294/294/294 297/297/297
f 298/298/298 296/296/296 297/297/297
f 298/298/298 299/299/299 296/296/296
f 296/296/296 300/300/300 295/295/295
f 299/299/299 300/300/300 296/296/296
f 300/300/300 301/301/301 295/295/295
f 302/302/302 301/301/301 300/300/300
f 303/303/303 300/300/300 299/299/299
f 303/303/303 302/302/302 300/300/300
f 304/304/304 303/303/303 299/299/299
f 305/305/305 302/302/302 303/303/303
f 306/306/306 305/305/305 303/303/303
f 305/305/305 306/306/306 307/307/307
f 308/308/308 305/305/305 307/307/307
f 311/311/311 310/310/310 309/309/309
f 312/312/312 311/311/311 309/309/309
f 152/152/152 151/151/151 310/310/310
f 311/311/311 152/152/152 310/310/310
f 152/152/152 311/311/311 313/313/313
f 153/153/153 152/152/152 313/313/313
f 313/313/313 311/311/311 314/314/314
f 311/311/311 312/312/312 314/314/314
f 166/166/166 153/153/153 313/313/313
f 166/166/166 155/155/155 153/153/153
f 315/315/315 313/313/313 314/314/314
f 315/315/315 166/166/166 313/313/313
f 316/316/316 315/315/315 314/314/314
f 167/167/167 166/166/166 315/315/315
f 317/317/317 167/167/167 315/315/315
f 317/317/317 176/176/176 167/167/167
f 176/176/176 168/168/168 167/167/167
f 287/287/287 288/288/288 292/292/292
f 318/318/318 287/287/287 292/292/292
f 319/319/319 318/318/318 292/292/292
f 293/293/293 319/319/319 292/292/292
f 320/320/320 319/319/319 293/293/293
f 295/295/295 320/320/320 293/293/293
f 295/295/295 301/301/301 320/320/320
f 320/320/320 321/321/321 319/319/319
f 321/321/321 322/322/322 319/319/319
f 320/320/320 323/323/323 321/321/321
f 301/301/301 323/323/323 320/320/320
f 323/323/323 324/324/324 321/321/321
f 325/325/325 324/324/324 323/323/323
f 326/326/326 325/325/325 323/323/323
f 326/326/326 323/323/323 301/301/301
f 302/302/302 326/326/326 301/301/301
f 327/327/327 326/326/326 302/302/302
f 305/305/305 327/327/327 302/302/302
f 327/327/327 305/305/305 308/308/308
f 328/328/328 327/327/327 308/308/308
f 180/180/180 178/178/178 329/329/329
f 178/178/178 330/330/330 329/329/329
f 329/329/329 330/330/330 331/331/331
f 330/330/330 178/178/178 177/177/177
f 330/330/330 332/332/332 331/331/331
f 330/330/330 177/177/177 333/333/333
f 332/332/332 330/330/330 333/333/333
f 203/203/203 201/201/201 334/334/334
f 335/335/335 203/203/203 334/334/334
f 335/335/335 336/336/336 203/203/203
f 336/336/336 204/204/204 203/203/203
f 214/214/214 204/204/204 336/336/336
f 337/337/337 214/214/214 336/336/336
f 244/244/244 242/242/242 338/338/338
f 338/338/338 242/242/242 339/339/339
f 340/340/340 244/244/244 338/338/338
f 242/242/242 245/245/245 339/339/339
f 340/340/340 338/338/338 341/341/341
f 341/341/341 338/338/338 339/339/339
f 342/342/342 340/340/340 341/341/341
f 342/342/342 341/341/341 343/343/343
f 343/343/343 341/341/341 339/339/339
f 344/344/344 342/342/342 343/343/343
f 344/344/344 343/343/343 345/345/345
f 345/345/345 343/343/343 339/339/339
f 346/346/346 344/344/344 345/345/345
f 346/346/346 345/345/345 347/347/347
f 345/345/345 339/339/339 347/347/347
f 348/348/348 346/346/346 347/347/347
f 245/245/245 349/349/349 339/339/339
f 339/339/339 350/350/350 347/347/347
f 347/347/347 350/350/350 348/348/348
f 351/351/351 350/350/350 339/339/339
f 350/350/350 352/352/352 348/348/348
f 352/352/352 350/350/350 351/351/351
f 246/246/246 349/349/349 245/245/245
f 353/353/353 352/352/352 351/351/351
f 246/246/246 354/354/354 349/349/349
f 353/353/353 351/351/351 355/355/355
f 355/355/355 351/351/351 339/339/339
f 356/356/356 353/353/353 355/355/355
f 354/354/354 357/357/357 349/349/349
f 349/349/349 357/357/357 339/339/339
f 354/354/354 358/358/358 357/357/357
f 356/356/356 355/355/355 359/359/359
f 359/359/359 355/355/355 339/339/339
f 360/360/360 356/356/356 359/359/359
f 358/358/358 361/361/361 357/357/357
f 357/357/357 361/361/361 339/339/339
f 358/358/358 362/362/362 361/361/361
f 360/360/360 359/359/359 363/363/363
f 363/363/363 359/359/359 339/339/339
f 364/364/364 360/360/360 363/363/363
f 361/361/361 365/365/365 339/339/339
f 362/362/362 365/365/365 361/361/361
f 365/365/365 363/363/363 339/339/339
f 364/364/364 363/363/363 365/365/365
f 362/362/362 364/364/364 365/365/365

