mtllib material.mtl
usemtl material_0
v -0.03209464 0.06581287 -0.00317590
v -0.03209205 0.06922094 -0.00158983
v -0.03550269 0.06581558 -0.00158983
v -0.03550269 0.06581558 0.01372206
v -0.03209205 0.06922094 0.01372206
v -0.03209464 0.06581287 0.01530836
v 0.03219666 0.06576309 -0.00317598
v 0.03560464 0.06576047 -0.00158983
v 0.03219930 0.06917114 -0.00158983
v 0.03219666 0.06576309 0.01530829
v 0.03219930 0.06917114 0.01372206
v 0.03560464 0.06576047 0.01372206
v -0.03219668 -0.06576309 -0.00317598
v -0.03560470 -0.06576046 -0.00158990
v -0.03219928 -0.06917107 -0.00158983
v -0.03219672 -0.06576309 0.01530829
v -0.03219928 -0.06917107 0.01372206
v -0.03560470 -0.06576040 0.01372198
v 0.03209470 -0.06581296 -0.00317606
v 0.03209199 -0.06922088 -0.00158990
v 0.03550263 -0.06581550 -0.00158983
v 0.03209470 -0.06581289 0.01530821
v 0.03550263 -0.06581550 0.01372206
v 0.03209199 -0.06922088 0.01372198
v -0.03209464 0.06581287 -0.00899027
v -0.03209201 0.06922084 -0.00773546
v -0.03550269 0.06581558 -0.00773546
v -0.03550269 0.06581558 -0.00439684
v -0.03209205 0.06922094 -0.00439684
v -0.03209464 0.06581287 -0.00314180
v 0.03219666 0.06576309 -0.00899034
v 0.03560464 0.06576047 -0.00773546
v 0.03219930 0.06917114 -0.00773546
v 0.03219666 0.06576309 -0.00314188
v 0.03219930 0.06917114 -0.00439684
v 0.03560464 0.06576047 -0.00439684
v -0.03219668 -0.06576309 -0.00899034
v -0.03560470 -0.06576046 -0.00773554
v -0.03219924 -0.06917112 -0.00773546
v -0.03219668 -0.06576309 -0.00314188
v -0.03219928 -0.06917107 -0.00439684
v -0.03560470 -0.06576046 -0.00439691
v 0.03209474 -0.06581296 -0.00899042
v 0.03209199 -0.06922094 -0.00773554
v 0.03550263 -0.06581558 -0.00773546
v 0.03209474 -0.06581296 -0.00314195
v 0.03550263 -0.06581558 -0.00439684
v 0.03209199 -0.06922088 -0.00439691
v -0.03560470 -0.06576046 -0.00158990
v -0.03550269 0.06581558 -0.00158983
v -0.03550269 0.06581558 0.01372206
v -0.03560470 -0.06576040 0.01372198
v 0.03209199 -0.06922088 -0.00158990
v -0.03219928 -0.06917107 -0.00158983
v -0.03219928 -0.06917107 0.01372206
v 0.03209199 -0.06922088 0.01372198
v 0.03209470 -0.06581289 0.01530821
v -0.03219672 -0.06576309 0.01530829
v -0.03209464 0.06581287 0.01530836
v 0.03219666 0.06576309 0.01530829
v -0.03209205 0.06922094 -0.00158983
v 0.03219930 0.06917114 -0.00158983
v 0.03219930 0.06917114 0.01372206
v -0.03209205 0.06922094 0.01372206
v 0.03560464 0.06576047 -0.00158983
v 0.03550263 -0.06581550 -0.00158983
v 0.03550263 -0.06581550 0.01372206
v 0.03560464 0.06576047 0.01372206
v 0.03219666 0.06576309 -0.00317598
v 0.03219930 0.06917114 -0.00158983
v -0.03209205 0.06922094 -0.00158983
v -0.03209464 0.06581287 -0.00317590
v -0.03550269 0.06581558 -0.00158983
v -0.03209205 0.06922094 -0.00158983
v -0.03209205 0.06922094 0.01372206
v -0.03550269 0.06581558 0.01372206
v -0.03209464 0.06581287 0.01530836
v -0.03209205 0.06922094 0.01372206
v 0.03219930 0.06917114 0.01372206
v 0.03219666 0.06576309 0.01530829
v 0.03560464 0.06576047 0.01372206
v 0.03219930 0.06917114 0.01372206
v 0.03219930 0.06917114 -0.00158983
v 0.03560464 0.06576047 -0.00158983
v 0.03209470 -0.06581296 -0.00317606
v 0.03550263 -0.06581550 -0.00158983
v 0.03560464 0.06576047 -0.00158983
v 0.03219666 0.06576309 -0.00317598
v 0.03219666 0.06576309 0.01530829
v 0.03560464 0.06576047 0.01372206
v 0.03550263 -0.06581550 0.01372206
v 0.03209470 -0.06581289 0.01530821
v 0.03209199 -0.06922088 0.01372198
v 0.03550263 -0.06581550 0.01372206
v 0.03550263 -0.06581550 -0.00158983
v 0.03209199 -0.06922088 -0.00158990
v -0.03219668 -0.06576309 -0.00317598
v -0.03219928 -0.06917107 -0.00158983
v 0.03209199 -0.06922088 -0.00158990
v 0.03209470 -0.06581296 -0.00317606
v 0.03209470 -0.06581289 0.01530821
v 0.03209199 -0.06922088 0.01372198
v -0.03219928 -0.06917107 0.01372206
v -0.03219672 -0.06576309 0.01530829
v -0.03560470 -0.06576040 0.01372198
v -0.03219928 -0.06917107 0.01372206
v -0.03219928 -0.06917107 -0.00158983
v -0.03560470 -0.06576046 -0.00158990
v -0.03209464 0.06581287 -0.00317590
v -0.03550269 0.06581558 -0.00158983
v -0.03560470 -0.06576046 -0.00158990
v -0.03219668 -0.06576309 -0.00317598
v -0.03219672 -0.06576309 0.01530829
v -0.03560470 -0.06576040 0.01372198
v -0.03550269 0.06581558 0.01372206
v -0.03209464 0.06581287 0.01530836
v 0.03219666 0.06576309 -0.00317598
v -0.03209464 0.06581287 -0.00317590
v -0.03219668 -0.06576309 -0.00317598
v 0.03209470 -0.06581296 -0.00317606
v -0.03560470 -0.06576046 -0.00773554
v -0.03550269 0.06581558 -0.00773546
v -0.03550269 0.06581558 -0.00439684
v -0.03560470 -0.06576046 -0.00439691
v 0.03209199 -0.06922094 -0.00773554
v -0.03219924 -0.06917112 -0.00773546
v -0.03219928 -0.06917107 -0.00439684
v 0.03209199 -0.06922088 -0.00439691
v 0.03209474 -0.06581296 -0.00314195
v -0.03219668 -0.06576309 -0.00314188
v -0.03209464 0.06581287 -0.00314180
v 0.03219666 0.06576309 -0.00314188
v -0.03209201 0.06922084 -0.00773546
v 0.03219930 0.06917114 -0.00773546
v 0.03219930 0.06917114 -0.00439684
v -0.03209205 0.06922094 -0.00439684
v 0.03560464 0.06576047 -0.00773546
v 0.03550263 -0.06581558 -0.00773546
v 0.03550263 -0.06581558 -0.00439684
v 0.03560464 0.06576047 -0.00439684
v 0.03219666 0.06576309 -0.00899034
v 0.03219930 0.06917114 -0.00773546
v -0.03209201 0.06922084 -0.00773546
v -0.03209464 0.06581287 -0.00899027
v -0.03550269 0.06581558 -0.00773546
v -0.03209201 0.06922084 -0.00773546
v -0.03209205 0.06922094 -0.00439684
v -0.03550269 0.06581558 -0.00439684
v -0.03209464 0.06581287 -0.00314180
v -0.03209205 0.06922094 -0.00439684
v 0.03219930 0.06917114 -0.00439684
v 0.03219666 0.06576309 -0.00314188
v 0.03560464 0.06576047 -0.00439684
v 0.03219930 0.06917114 -0.00439684
v 0.03219930 0.06917114 -0.00773546
v 0.03560464 0.06576047 -0.00773546
v 0.03209474 -0.06581296 -0.00899042
v 0.03550263 -0.06581558 -0.00773546
v 0.03560464 0.06576047 -0.00773546
v 0.03219666 0.06576309 -0.00899034
v 0.03219666 0.06576309 -0.00314188
v 0.03560464 0.06576047 -0.00439684
v 0.03550263 -0.06581558 -0.00439684
v 0.03209474 -0.06581296 -0.00314195
v 0.03209199 -0.06922088 -0.00439691
v 0.03550263 -0.06581558 -0.00439684
v 0.03550263 -0.06581558 -0.00773546
v 0.03209199 -0.06922094 -0.00773554
v -0.03219668 -0.06576309 -0.00899034
v -0.03219924 -0.06917112 -0.00773546
v 0.03209199 -0.06922094 -0.00773554
v 0.03209474 -0.06581296 -0.00899042
v 0.03209474 -0.06581296 -0.00314195
v 0.03209199 -0.06922088 -0.00439691
v -0.03219928 -0.06917107 -0.00439684
v -0.03219668 -0.06576309 -0.00314188
v -0.03560470 -0.06576046 -0.00439691
v -0.03219928 -0.06917107 -0.00439684
v -0.03219924 -0.06917112 -0.00773546
v -0.03560470 -0.06576046 -0.00773554
v -0.03209464 0.06581287 -0.00899027
v -0.03550269 0.06581558 -0.00773546
v -0.03560470 -0.06576046 -0.00773554
v -0.03219668 -0.06576309 -0.00899034
v -0.03219668 -0.06576309 -0.00314188
v -0.03560470 -0.06576046 -0.00439691
v -0.03550269 0.06581558 -0.00439684
v -0.03209464 0.06581287 -0.00314180
v 0.03219666 0.06576309 -0.00899034
v -0.03209464 0.06581287 -0.00899027
v -0.03219668 -0.06576309 -0.00899034
v 0.03209474 -0.06581296 -0.00899042
vn -0.38844540 0.38903530 -0.83532130
vn -0.38844540 0.38903530 -0.83532130
vn -0.38844540 0.38903530 -0.83532130
vn -0.38848000 0.38908360 0.83528280
vn -0.38848000 0.38908350 0.83528270
vn -0.38848000 0.38908350 0.83528270
vn 0.38905650 0.38845010 -0.83530920
vn 0.38905650 0.38845020 -0.83530930
vn 0.38905650 0.38845010 -0.83530920
vn 0.38907460 0.38845730 0.83529750
vn 0.38907460 0.38845730 0.83529750
vn 0.38907470 0.38845740 0.83529750
vn -0.38905200 -0.38846760 -0.83530320
vn -0.38905210 -0.38846750 -0.83530320
vn -0.38905210 -0.38846750 -0.83530320
vn -0.38912500 -0.38848040 0.83526330
vn -0.38912500 -0.38848040 0.83526330
vn -0.38912500 -0.38848040 0.83526330
vn 0.38848760 -0.38907750 -0.83528200
vn 0.38848760 -0.38907750 -0.83528200
vn 0.38848760 -0.38907750 -0.83528200
vn 0.38849020 -0.38909150 0.83527430
vn 0.38849020 -0.38909140 0.83527430
vn 0.38849020 -0.38909140 0.83527430
vn -0.32627770 0.32683850 -0.88697200
vn -0.32627770 0.32683850 -0.88697200
vn -0.32627770 0.32683850 -0.88697200
vn -0.32633970 0.32686390 0.88693990
vn -0.32633960 0.32686390 0.88693990
vn -0.32633960 0.32686390 0.88693990
vn 0.32685010 0.32632500 -0.88695040
vn 0.32685010 0.32632510 -0.88695040
vn 0.32685010 0.32632510 -0.88695040
vn 0.32687240 0.32634080 0.88693640
vn 0.32687240 0.32634070 0.88693640
vn 0.32687240 0.32634070 0.88693640
vn -0.32680160 -0.32634770 -0.88695990
vn -0.32680160 -0.32634770 -0.88695990
vn -0.32680170 -0.32634770 -0.88695990
vn -0.32692700 -0.32635170 0.88691220
vn -0.32692700 -0.32635180 0.88691220
vn -0.32692700 -0.32635170 0.88691220
vn 0.32633880 -0.32684860 -0.88694580
vn 0.32633880 -0.32684860 -0.88694580
vn 0.32633880 -0.32684860 -0.88694580
vn 0.32634290 -0.32687900 0.88693310
vn 0.32634290 -0.32687900 0.88693310
vn 0.32634290 -0.32687910 0.88693310
vn -0.99999980 0.00077512 0.00000000
vn -0.99999980 0.00077512 0.00000000
vn -0.99999980 0.00077512 0.00000000
vn -0.99999980 0.00077556 0.00000000
vn -0.00077477 -0.99999980 0.00000000
vn -0.00077477 -0.99999980 0.00000000
vn -0.00077477 -0.99999980 0.00000000
vn -0.00077476 -0.99999980 0.00000000
vn -0.00000182 -0.00000058 1.00000000
vn -0.00000182 -0.00000058 1.00000000
vn -0.00000182 -0.00000058 1.00000000
vn 0.00000000 -0.00000058 1.00000000
vn 0.00077461 0.99999980 0.00000000
vn 0.00077461 0.99999980 0.00000000
vn 0.00077461 0.99999980 0.00000000
vn 0.00077461 0.99999980 0.00000000
vn 0.99999980 -0.00077480 0.00000000
vn 0.99999980 -0.00077480 0.00000000
vn 0.99999980 -0.00077480 0.00000000
vn 0.99999980 -0.00077555 0.00000000
vn 0.00032832 0.42195410 -0.90661720
vn 0.00032832 0.42195410 -0.90661720
vn 0.00032832 0.42195410 -0.90661720
vn 0.00032674 0.42193210 -0.90662740
vn -0.70654830 0.70766480 0.00000000
vn -0.70654830 0.70766480 0.00000000
vn -0.70654830 0.70766480 0.00000000
vn -0.70656120 0.70765190 0.00000000
vn 0.00032830 0.42198060 0.90660480
vn 0.00032830 0.42198070 0.90660480
vn 0.00032830 0.42198070 0.90660480
vn 0.00032989 0.42197060 0.90660950
vn 0.70765970 0.70655350 0.00000000
vn 0.70765970 0.70655350 0.00000000
vn 0.70765970 0.70655350 0.00000000
vn 0.70765710 0.70655600 0.00000000
vn 0.42195850 -0.00032741 -0.90661510
vn 0.42195850 -0.00032741 -0.90661510
vn 0.42195850 -0.00032741 -0.90661510
vn 0.42198640 -0.00032624 -0.90660200
vn 0.42193890 -0.00032702 0.90662430
vn 0.42193890 -0.00032702 0.90662430
vn 0.42193890 -0.00032702 0.90662430
vn 0.42199080 -0.00032741 0.90660010
vn 0.70655460 -0.70765860 0.00000000
vn 0.70655450 -0.70765860 0.00000000
vn 0.70655450 -0.70765860 0.00000000
vn 0.70656120 -0.70765190 0.00000000
vn -0.00032674 -0.42195880 -0.90661480
vn -0.00032674 -0.42195890 -0.90661500
vn -0.00032674 -0.42195890 -0.90661480
vn -0.00032990 -0.42196100 -0.90661390
vn -0.00032516 -0.42197300 0.90660840
vn -0.00032516 -0.42197300 0.90660840
vn -0.00032516 -0.42197300 0.90660840
vn -0.00032674 -0.42197550 0.90660720
vn -0.70765270 -0.70656040 0.00000000
vn -0.70765270 -0.70656030 0.00000000
vn -0.70765280 -0.70656030 0.00000000
vn -0.70764160 -0.70657160 0.00000258
vn -0.42194750 0.00032779 -0.90662030
vn -0.42194750 0.00032779 -0.90662030
vn -0.42194750 0.00032779 -0.90662030
vn -0.42190190 0.00032780 -0.90664140
vn -0.42198470 0.00032625 0.90660290
vn -0.42198460 0.00032625 0.90660300
vn -0.42198460 0.00032625 0.90660300
vn -0.42197890 0.00032701 0.90660550
vn -0.00000428 0.00000058 -1.00000000
vn -0.00000428 0.00000058 -1.00000000
vn -0.00000428 0.00000058 -1.00000000
vn 0.00000000 0.00000058 -1.00000000
vn -0.99999980 0.00077520 0.00000000
vn -0.99999980 0.00077520 0.00000000
vn -0.99999980 0.00077520 0.00000000
vn -0.99999980 0.00077461 0.00000000
vn -0.00077476 -0.99999980 0.00002133
vn -0.00077476 -0.99999980 0.00002133
vn -0.00077476 -0.99999980 0.00002133
vn -0.00077475 -0.99999980 0.00000711
vn 0.00000041 -0.00000058 1.00000000
vn 0.00000041 -0.00000058 1.00000000
vn 0.00000041 -0.00000058 1.00000000
vn 0.00000000 -0.00000058 1.00000000
vn 0.00077312 0.99999980 0.00000000
vn 0.00077312 0.99999980 0.00000000
vn 0.00077312 0.99999980 0.00000000
vn 0.00077464 0.99999980 -0.00002844
vn 0.99999980 -0.00077461 0.00000000
vn 0.99999980 -0.00077461 0.00000000
vn 0.99999980 -0.00077461 0.00000000
vn 0.99999980 -0.00077547 0.00000000
vn 0.00026631 0.34553410 -0.93840620
vn 0.00026631 0.34553420 -0.93840620
vn 0.00026631 0.34553420 -0.93840610
vn 0.00026468 0.34551870 -0.93841180
vn -0.70652570 0.70768730 -0.00003556
vn -0.70652570 0.70768740 -0.00003556
vn -0.70652570 0.70768740 -0.00003556
vn -0.70656130 0.70765180 0.00000000
vn 0.00026630 0.34556520 0.93839470
vn 0.00026630 0.34556520 0.93839470
vn 0.00026630 0.34556520 0.93839470
vn 0.00026794 0.34555210 0.93839940
vn 0.70766370 0.70654950 0.00000000
vn 0.70766370 0.70654950 0.00000000
vn 0.70766370 0.70654950 0.00000000
vn 0.70765180 0.70656130 0.00000000
vn 0.34557740 -0.00026804 -0.93839020
vn 0.34557740 -0.00026804 -0.93839020
vn 0.34557740 -0.00026804 -0.93839020
vn 0.34553830 -0.00026704 -0.93840460
vn 0.34557130 -0.00026783 0.93839240
vn 0.34557130 -0.00026783 0.93839240
vn 0.34557130 -0.00026783 0.93839240
vn 0.34554510 -0.00026824 0.93840210
vn 0.70654270 -0.70767050 0.00000000
vn 0.70654270 -0.70767050 0.00000000
vn 0.70654270 -0.70767040 0.00000000
vn 0.70657320 -0.70764000 0.00001185
vn -0.00026957 -0.34553190 -0.93840690
vn -0.00026957 -0.34553190 -0.93840690
vn -0.00026957 -0.34553190 -0.93840690
vn -0.00026795 -0.34554020 -0.93840400
vn -0.00026468 -0.34555930 0.93839690
vn -0.00026468 -0.34555930 0.93839690
vn -0.00026468 -0.34555930 0.93839690
vn -0.00026467 -0.34555640 0.93839800
vn -0.70765600 -0.70655720 0.00000593
vn -0.70765600 -0.70655730 0.00000593
vn -0.70765600 -0.70655730 0.00000593
vn -0.70765180 -0.70656130 0.00000000
vn -0.34551150 0.00026823 -0.93841460
vn -0.34551150 0.00026823 -0.93841460
vn -0.34551150 0.00026823 -0.93841450
vn -0.34553520 0.00026863 -0.93840580
vn -0.34559320 0.00026763 0.93838440
vn -0.34559320 0.00026763 0.93838440
vn -0.34559320 0.00026763 0.93838440
vn -0.34553160 0.00026743 0.93840710
vn -0.00000056 0.00000058 -1.00000000
vn -0.00000056 0.00000058 -1.00000000
vn -0.00000056 0.00000058 -1.00000000
vn -0.00000289 0.00000058 -1.00000000
vt 0.27463120 0.48499320
vt 0.27463120 0.48854340
vt 0.27854760 0.48499320
vt 0.86091970 0.01500691
vt 0.85700320 0.01145660
vt 0.85700320 0.01500691
vt 0.01655481 0.48499320
vt 0.01263833 0.48499320
vt 0.01655481 0.48854350
vt 0.59892690 0.01500688
vt 0.59892690 0.01145657
vt 0.59501040 0.01500688
vt 0.27463110 0.01500690
vt 0.27854760 0.01500690
vt 0.27463120 0.01145659
vt 0.85700330 0.48499320
vt 0.85700330 0.48854340
vt 0.86091970 0.48499320
vt 0.01655476 0.01500681
vt 0.01655476 0.01145666
vt 0.01263842 0.01500681
vt 0.59892680 0.48499320
vt 0.59501040 0.48499320
vt 0.59892680 0.48854340
vt 0.56587490 0.48504550
vt 0.56587490 0.48849110
vt 0.56967590 0.48504550
vt 0.27848980 0.51495440
vt 0.27468900 0.51150910
vt 0.27468900 0.51495440
vt 0.30768300 0.48504560
vt 0.30388230 0.48504560
vt 0.30768300 0.48849100
vt 0.01649697 0.51495440
vt 0.01649697 0.51150900
vt 0.01269621 0.51495440
vt 0.56587510 0.01495446
vt 0.56967590 0.01495446
vt 0.56587510 0.01150904
vt 0.27468900 0.98504560
vt 0.27468900 0.98849100
vt 0.27848980 0.98504560
vt 0.30768290 0.01495436
vt 0.30768290 0.01150911
vt 0.30388230 0.01495436
vt 0.01649690 0.98504560
vt 0.01269625 0.98504560
vt 0.01649691 0.98849090
vt 0.32701460 0.64130750
vt 0.32701460 0.73340300
vt 0.34889050 0.73340300
vt 0.34889050 0.64130750
vt 0.90938670 0.40778910
vt 0.90938670 0.45278930
vt 0.93126270 0.45278920
vt 0.93126270 0.40778910
vt 0.69420220 0.31263690
vt 0.76172790 0.31263690
vt 0.76172790 0.18736310
vt 0.69420220 0.18736310
vt 0.42054770 0.58140210
vt 0.42054770 0.62640220
vt 0.44242360 0.62640220
vt 0.44242360 0.58140210
vt 0.90938670 0.12439970
vt 0.90938670 0.21649520
vt 0.93126270 0.21649520
vt 0.93126270 0.12439970
vt 0.11013370 0.48506440
vt 0.11013370 0.48847220
vt 0.18105230 0.48847220
vt 0.18105230 0.48506440
vt 0.42228790 0.51370190
vt 0.42228790 0.51771370
vt 0.44068340 0.51771370
vt 0.44068340 0.51370190
vt 0.76342470 0.01493565
vt 0.76342470 0.01152783
vt 0.69250550 0.01152783
vt 0.69250550 0.01493564
vt 0.55918500 0.55073140
vt 0.56361060 0.55073140
vt 0.56361060 0.53405590
vt 0.55918500 0.53405590
vt 0.01647623 0.18421620
vt 0.01271694 0.18421620
vt 0.01271694 0.31578380
vt 0.01647622 0.31578380
vt 0.59884830 0.18421650
vt 0.59508900 0.18421650
vt 0.59508900 0.31578350
vt 0.59884830 0.31578350
vt 0.92952230 0.34410080
vt 0.92952230 0.34008900
vt 0.91112700 0.34008900
vt 0.91112700 0.34410080
vt 0.18105210 0.01493564
vt 0.18105210 0.01152786
vt 0.11013400 0.01152786
vt 0.11013400 0.01493563
vt 0.69250570 0.48506440
vt 0.69250570 0.48847220
vt 0.76342450 0.48847220
vt 0.76342450 0.48506440
vt 0.34715030 0.51771370
vt 0.34715030 0.51370190
vt 0.32875480 0.51370190
vt 0.32875480 0.51771370
vt 0.27470980 0.31578340
vt 0.27846900 0.31578340
vt 0.27846900 0.18421660
vt 0.27470980 0.18421660
vt 0.85708180 0.31578450
vt 0.86084120 0.31578450
vt 0.86084120 0.18421560
vt 0.85708180 0.18421560
vt 0.11183010 0.31263690
vt 0.17935590 0.31263690
vt 0.17935590 0.18736310
vt 0.11183010 0.18736310
vt 0.49232160 0.64130740
vt 0.49232160 0.73340310
vt 0.49709140 0.73340310
vt 0.49709140 0.64130740
vt 0.98593050 0.10949430
vt 0.98593050 0.06449436
vt 0.98116070 0.06449436
vt 0.98116070 0.10949430
vt 0.11183010 0.81263690
vt 0.17935590 0.81263690
vt 0.17935590 0.68736310
vt 0.11183010 0.68736310
vt 0.53000030 0.60949460
vt 0.53000030 0.56449410
vt 0.52523030 0.56449410
vt 0.52523030 0.60949460
vt 0.98593060 0.39288400
vt 0.98593060 0.30078810
vt 0.98116060 0.30078810
vt 0.98116060 0.39288400
vt 0.40192570 0.48509350
vt 0.40192570 0.48844310
vt 0.47163240 0.48844310
vt 0.47163240 0.48509350
vt 0.52962070 0.67719450
vt 0.52962070 0.67318280
vt 0.52560990 0.67318280
vt 0.52560990 0.67719450
vt 0.18044660 0.51490650
vt 0.18044660 0.51155690
vt 0.11073930 0.51155690
vt 0.11073930 0.51490650
vt 0.59317480 0.51370200
vt 0.59317480 0.51771360
vt 0.59718570 0.51771360
vt 0.59718570 0.51370200
vt 0.30763010 0.18534090
vt 0.30393510 0.18534090
vt 0.30393510 0.31465910
vt 0.30763010 0.31465910
vt 0.01644410 0.68534060
vt 0.01274907 0.68534060
vt 0.01274906 0.81465920
vt 0.01644409 0.81465920
vt 0.98154010 0.17318270
vt 0.98154010 0.17719450
vt 0.98555110 0.17719450
vt 0.98555110 0.17318270
vt 0.47163270 0.01490654
vt 0.47163270 0.01155695
vt 0.40192550 0.01155695
vt 0.40192550 0.01490654
vt 0.11073960 0.98509340
vt 0.11073960 0.98844310
vt 0.18044640 0.98844310
vt 0.18044640 0.98509350
vt 0.49671190 0.51771360
vt 0.49671190 0.51370200
vt 0.49270110 0.51370200
vt 0.49270110 0.51771360
vt 0.56592790 0.31465990
vt 0.56962300 0.31465990
vt 0.56962310 0.18534020
vt 0.56592800 0.18534020
vt 0.27474190 0.81466040
vt 0.27843700 0.81466040
vt 0.27843700 0.68533960
vt 0.27474190 0.68533960
vt 0.40301620 0.31263690
vt 0.47054200 0.31263690
vt 0.47054200 0.18736310
vt 0.40301620 0.18736310
f 3/3/3 2/2/2 1/1/1
f 6/6/6 5/5/5 4/4/4
f 9/9/9 8/8/8 7/7/7
f 12/12/12 11/11/11 10/10/10
f 15/15/15 14/14/14 13/13/13
f 18/18/18 17/17/17 16/16/16
f 21/21/21 20/20/20 19/19/19
f 24/24/24 23/23/23 22/22/22
f 27/27/27 26/26/26 25/25/25
f 30/30/30 29/29/29 28/28/28
f 33/33/33 32/32/32 31/31/31
f 36/36/36 35/35/35 34/34/34
f 39/39/39 38/38/38 37/37/37
f 42/42/42 41/41/41 40/40/40
f 45/45/45 44/44/44 43/43/43
f 48/48/48 47/47/47 46/46/46
f 51/51/51 50/50/50 49/49/49
f 52/52/52 51/51/51 49/49/49
f 55/55/55 54/54/54 53/53/53
f 56/56/56 55/55/55 53/53/53
f 59/59/59 58/58/58 57/57/57
f 60/60/60 59/59/59 57/57/57
f 63/63/63 62/62/62 61/61/61
f 64/64/64 63/63/63 61/61/61
f 67/67/67 66/66/66 65/65/65
f 68/68/68 67/67/67 65/65/65
f 71/71/71 70/70/70 69/69/69
f 72/72/72 71/71/71 69/69/69
f 75/75/75 74/74/74 73/73/73
f 76/76/76 75/75/75 73/73/73
f 79/79/79 78/78/78 77/77/77
f 80/80/80 79/79/79 77/77/77
f 83/83/83 82/82/82 81/81/81
f 84/84/84 83/83/83 81/81/81
f 87/87/87 86/86/86 85/85/85
f 88/88/88 87/87/87 85/85/85
f 91/91/91 90/90/90 89/89/89
f 92/92/92 91/91/91 89/89/89
f 95/95/95 94/94/94 93/93/93
f 96/96/96 95/95/95 93/93/93
f 99/99/99 98/98/98 97/97/97
f 100/100/100 99/99/99 97/97/97
f 103/103/103 102/102/102 101/101/101
f 104/104/104 103/103/103 101/101/101
f 107/107/107 106/106/106 105/105/105
f 108/108/108 107/107/107 105/105/105
f 111/111/111 110/110/110 109/109/109
f 112/112/112 111/111/111 109/109/109
f 115/115/115 114/114/114 113/113/113
f 116/116/116 115/115/115 113/113/113
f 119/119/119 118/118/118 117/117/117
f 120/120/120 119/119/119 117/117/117
f 123/123/123 122/122/122 121/121/121
f 124/124/124 123/123/123 121/121/121
f 127/127/127 126/126/126 125/125/125
f 128/128/128 127/127/127 125/125/125
f 131/131/131 130/130/130 129/129/129
f 132/132/132 131/131/131 129/129/129
f 135/135/135 134/134/134 133/133/133
f 136/136/136 135/135/135 133/133/133
f 139/139/139 138/138/138 137/137/137
f 140/140/140 139/139/139 137/137/137
f 143/143/143 142/142/142 141/141/141
f 144/144/144 143/143/143 141/141/141
f 147/147/147 146/146/146 145/145/145
f 148/148/148 147/147/147 145/145/145
f 151/151/151 150/150/150 149/149/149
f 152/152/152 151/151/151 149/149/149
f 155/155/155 154/154/154 153/153/153
f 156/156/156 155/155/155 153/153/153
f 159/159/159 158/158/158 157/157/157
f 160/160/160 159/159/159 157/157/157
f 163/163/163 162/162/162 161/161/161
f 164/164/164 163/163/163 161/161/161
f 167/167/167 166/166/166 165/165/165
f 168/168/168 167/167/167 165/165/165
f 171/171/171 170/170/170 169/169/169
f 172/172/172 171/171/171 169/169/169
f 175/175/175 174/174/174 173/173/173
f 176/176/176 175/175/175 173/173/173
f 179/179/179 178/178/178 177/177/177
f 180/180/180 179/179/179 177/177/177
f 183/183/183 182/182/182 181/181/181
f 184/184/184 183/183/183 181/181/181
f 187/187/187 186/186/186 185/185/185
f 188/188/188 187/187/187 185/185/185
f 191/191/191 190/190/190 189/189/189
f 192/192/192 191/191/191 189/189/189

