# Blender 4.0.0
# www.blender.org
o decimated_mesh
v -0.854768 0.335062 0.448069
v -0.967406 0.328682 0.447186
v -0.858621 0.072582 0.447175
v -0.788520 0.202754 0.431233
v -0.837769 0.409702 0.429125
v -0.868374 0.390818 0.439177
v -0.944286 0.380792 0.441322
v -0.974450 0.410097 0.430051
v -0.959343 0.071807 0.446578
v -0.840276 0.469295 0.408522
v -0.968962 0.121703 0.446384
v -0.788869 0.058205 0.431204
v -0.837176 0.543326 0.357305
v -0.973753 0.469603 0.409252
v -0.978037 0.370390 0.431368
v -0.959644 0.053237 0.435865
v -0.866431 0.052610 0.436495
v -0.853402 0.549195 0.357485
v -0.836872 0.587242 0.292901
v -0.974715 0.542645 0.358583
v -0.977340 0.057712 0.431562
v -0.961145 0.046340 0.417590
v -0.866431 0.045125 0.418581
v -0.837011 0.625084 0.192181
v -0.837105 0.606014 0.253180
v -0.959331 0.548693 0.357156
v -0.788899 0.046055 0.410490
v -0.869000 0.600661 0.280469
v -0.788881 0.223426 -0.145422
v -0.847616 0.634392 0.112157
v -0.979582 0.536520 0.340701
v -0.974174 0.574822 0.317759
v -0.835226 0.626623 -0.145421
v -0.788881 0.041791 -0.145422
v -0.852648 0.637106 -0.145421
v -0.866431 0.638565 0.107120
v -0.960626 0.600590 0.277656
v -0.974419 0.605642 0.256598
v -0.959580 0.042545 -0.145422
v -0.960950 0.636955 0.108192
v -0.864727 0.628855 0.192187
v -0.974706 0.625705 0.194379
v -0.981838 0.069276 -0.145422
v -0.977058 0.052844 -0.145422
v -0.959456 0.638047 -0.145421
v -0.944286 0.630086 0.184942
v -0.978645 0.614414 0.184942
v -0.981096 0.608374 -0.145421
v -0.976121 0.628858 -0.145422
vn 0.0051 0.9935 0.1133
vn 0.5155 0.8569 -0.0010
vn 0.8450 0.2061 0.4934
vn -0.0057 0.8309 0.5564
vn -0.0127 0.9535 0.3011
vn -0.5077 -0.8615 0.0044
vn -0.0052 0.5507 0.8347
vn -0.5848 -0.1096 0.8038
vn 0.1053 0.3289 0.9385
vn -0.3190 -0.4697 0.8232
vn -0.9988 -0.0462 -0.0160
vn -0.0170 0.9998 0.0042
vn 0.2230 -0.0007 0.9748
vn -0.0145 0.1182 0.9929
vn 0.0059 0.3620 0.9322
vn 0.2916 0.7897 0.5398
vn -0.1199 0.9447 0.3052
vn 0.1443 0.8360 0.5294
vn -0.3098 -0.8809 0.3579
vn -0.9717 0.2360 0.0062
vn -0.0092 -0.4996 0.8662
vn -0.8251 0.0040 0.5650
vn -1.0000 0.0027 0.0052
vn 0.0963 -0.8586 0.5035
vn -0.1457 0.5626 0.8138
vn -0.1784 0.1878 0.9659
vn -0.4828 0.8757 0.0009
vn -0.9602 -0.2793 0.0019
vn -0.0059 -0.0033 1.0000
vn -0.0088 -0.9227 0.3855
vn -0.0000 -0.0000 -1.0000
vn -0.9543 0.2408 0.1772
vn -0.0129 -0.9999 0.0067
vn 0.1040 0.9460 0.3071
vn -0.9840 0.0781 0.1599
vn -0.9667 0.1372 0.2161
vn -0.9661 0.0952 0.2400
vn -0.0159 0.9956 0.0926
vn 0.6298 0.7767 0.0069
vn -0.3403 0.8392 0.4242
vn 0.0947 -0.4980 0.8620
vn 0.9117 0.2073 0.3548
vn 0.2150 0.9766 0.0061
vn 0.1921 0.2001 0.9608
vn -0.0174 0.8371 0.5468
vn 0.0242 0.8373 0.5462
vn -0.0457 0.9542 0.2955
vn -0.0101 0.9527 0.3038
vn -0.5708 -0.8210 0.0066
vn -0.0387 -0.0036 0.9992
vn 0.0059 0.5390 0.8423
vn 0.2081 0.5506 0.8084
vn 0.4602 0.1185 0.8798
vn 0.9792 0.1654 0.1174
vn -0.9920 -0.1262 -0.0039
vn -0.9934 -0.1142 -0.0058
vn -0.9953 -0.0915 -0.0330
vn 0.0088 0.9999 -0.0053
vn 0.2336 -0.0067 0.9723
vn 0.0069 0.1591 0.9872
vn -0.0186 0.3422 0.9395
vn -0.0212 0.3301 0.9437
vn -0.9445 0.3286 0.0010
vn -0.0016 -0.4711 0.8821
vn -0.7053 0.0870 0.7035
vn -0.8675 -0.0016 0.4974
vn -0.2445 0.7631 0.5982
vn -1.0000 0.0014 0.0074
vn -1.0000 -0.0022 0.0077
vn -0.9997 -0.0173 -0.0147
vn 0.1877 0.9763 0.1077
vn 0.1342 0.9862 0.0969
vn -1.0000 -0.0000 -0.0000
vn -1.0000 0.0023 0.0007
vn -1.0000 0.0024 -0.0000
vn 0.2082 0.8848 0.4169
vn -0.5950 0.8037 0.0099
vn -0.0077 -0.0026 1.0000
vn -0.0157 -0.9351 0.3542
vn 0.0512 -0.9215 0.3850
vn -0.0000 -0.0000 1.0000
vn -0.9741 0.2003 0.1048
vn -0.9612 0.2612 0.0887
vn -0.9825 0.1690 0.0786
vn 0.0044 1.0000 -0.0077
vn -0.0123 0.9999 -0.0025
vn 0.1288 0.9464 0.2961
vn -0.1076 0.9879 0.1118
vn 0.2219 -0.0066 0.9750
vn 0.2448 -0.0008 0.9696
vn -0.9935 -0.1142 -0.0035
vn -0.9931 -0.1173 -0.0058
vn -0.9893 -0.1391 -0.0450
vn -0.9871 -0.1471 -0.0637
vn -1.0000 -0.0000 0.0006
vn -0.0175 0.3344 0.9423
vn -0.0318 0.3301 0.9434
vn -1.0000 0.0025 -0.0001
vn 0.1932 0.9772 0.0881
vn 0.1340 0.9849 0.1097
vn -0.0128 0.9999 -0.0077
vn 0.0044 1.0000 -0.0053
vn -0.9999 -0.0022 0.0130
vn -1.0000 -0.0032 0.0077
vn -0.0001 -0.0000 -1.0000
vn -0.0171 0.8438 0.5364
vn -0.0077 0.8320 0.5547
vn -0.9996 0.0259 0.0069
vn -1.0000 0.0014 0.0033
vn -0.9717 0.2360 0.0029
vn -0.9460 0.3242 0.0069
s 0
f 36//1 46//1 41//1
f 30//2 33//2 35//2
f 5//3 4//3 10//3
f 28//4 26//4 18//4
f 41//5 46//5 37//5
f 22//6 44//6 39//6
f 18//7 26//7 14//7
f 11//8 21//8 9//8
f 6//9 5//9 10//9
f 9//10 21//10 16//10
f 25//11 24//11 19//11
f 36//12 45//12 40//12
f 4//13 3//13 12//13
f 1//14 7//14 2//14
f 6//15 10//15 14//15
f 19//16 18//16 13//16
f 42//17 38//17 37//17
f 19//18 28//18 18//18
f 21//19 22//19 16//19
f 48//20 42//20 49//20
f 17//21 9//21 16//21
f 15//22 11//22 2//22
f 43//23 15//23 47//23
f 12//24 17//24 27//24
f 20//25 14//25 26//25
f 7//26 8//26 2//26
f 49//27 40//27 45//27
f 21//28 43//28 44//28
f 3//29 1//29 9//29
f 17//30 16//30 23//30
f 43//31 48//31 29//31
f 31//32 20//32 32//32
f 23//33 22//33 39//33
f 25//34 41//34 28//34
f 31//35 15//35 14//35
f 20//36 31//36 14//36
f 15//37 8//37 14//37
f 36//38 40//38 46//38
f 30//39 24//39 33//39
f 38//40 32//40 37//40
f 17//41 12//41 3//41
f 10//42 4//42 13//42
f 36//43 30//43 35//43
f 1//44 5//44 6//44
f 28//45 37//45 26//45
f 37//46 32//46 26//46
f 42//47 37//47 46//47
f 37//48 28//48 41//48
f 22//49 21//49 44//49
f 9//50 2//50 11//50
f 14//51 10//51 18//51
f 10//52 13//52 18//52
f 4//53 5//53 1//53
f 13//54 4//54 19//54
f 4//55 19//55 29//55
f 29//56 24//56 33//56
f 29//57 19//57 24//57
f 36//58 35//58 45//58
f 4//59 1//59 3//59
f 1//60 6//60 7//60
f 8//61 7//61 6//61
f 14//62 8//62 6//62
f 48//63 47//63 42//63
f 17//64 3//64 9//64
f 2//65 8//65 15//65
f 15//66 21//66 11//66
f 26//67 32//67 20//67
f 48//68 43//68 47//68
f 43//69 21//69 15//69
f 15//70 31//70 47//70
f 36//71 41//71 30//71
f 41//72 24//72 30//72
f 27//73 29//73 34//73
f 29//74 27//74 4//74
f 27//75 12//75 4//75
f 28//76 19//76 25//76
f 49//77 42//77 40//77
f 1//78 2//78 9//78
f 16//79 22//79 23//79
f 27//80 17//80 23//80
f 48//31 49//31 45//31
f 45//31 35//31 48//31
f 48//31 35//31 33//31
f 33//31 29//31 48//31
f 29//81 39//81 34//81
f 43//31 29//31 39//31
f 39//31 44//31 43//31
f 32//82 38//82 31//82
f 38//83 42//83 47//83
f 47//84 31//84 38//84
f 34//85 39//85 27//85
f 27//86 39//86 23//86
f 25//87 24//87 41//87
f 40//88 42//88 46//88
f 3//89 12//89 1//89
f 12//90 4//90 1//90
f 29//91 4//91 33//91
f 33//92 4//92 24//92
f 24//93 4//93 25//93
f 25//94 4//94 19//94
f 12//75 4//75 34//75
f 34//95 4//95 29//95
f 14//96 7//96 6//96
f 14//97 8//97 7//97
f 27//98 12//98 34//98
f 39//31 33//31 29//31
f 39//31 35//31 33//31
f 30//99 36//99 24//99
f 36//100 41//100 24//100
f 27//101 34//101 23//101
f 23//102 34//102 39//102
f 31//103 21//103 15//103
f 31//104 43//104 21//104
f 43//31 48//31 39//31
f 48//105 49//105 39//105
f 49//31 45//31 39//31
f 45//31 35//31 39//31
f 37//106 32//106 28//106
f 32//107 26//107 28//107
f 47//108 48//108 31//108
f 48//109 43//109 31//109
f 47//110 49//110 48//110
f 47//111 42//111 49//111
