mtllib material.mtl
usemtl material_0
v 0.00000000 0.02339526 0.11416820
v 0.00000000 0.02201656 0.11562480
v -0.02131104 0.02197727 0.11407240
v 0.02131104 0.02197727 0.11407240
v -0.02102356 0.02335843 0.11260990
v -0.04516846 0.02332742 0.10770930
v -0.04518829 0.02194232 0.10920030
v -0.07005127 0.02190856 0.10172730
v -0.06937286 0.02330288 0.10045680
v -0.06905212 0.02339005 0.07151505
v -0.09379517 0.02186605 0.09379517
v -0.04441162 0.02339257 0.07954620
v -0.09271484 0.02327633 0.09271469
v -0.10099700 0.02190394 0.07221878
v -0.09974732 0.02330031 0.07149589
v -0.10829100 0.02193547 0.04600754
v -0.01984406 0.02339464 0.08556946
v -0.10681030 0.02332827 0.04587891
v -0.04360626 0.02282413 0.07779861
v -0.11146420 0.02335884 0.02236130
v -0.11294310 0.02196182 0.02273506
v -0.11514740 0.02198947 0.00000000
v -0.07861633 0.02339250 0.04598221
v -0.08541870 0.02339450 0.02233597
v -0.11369080 0.02339527 0.00000000
v -0.06762359 0.02279432 0.06992416
v -0.11146420 0.02335884 -0.02236130
v -0.11294310 0.02196182 -0.02273498
v -0.10829100 0.02193547 -0.04600754
v -0.08343261 0.02283247 0.02244301
v -0.08914581 0.02339603 0.00000000
v -0.08541870 0.02339450 -0.02233589
v -0.10681030 0.02332827 -0.04587891
v -0.07692260 0.02282036 0.04514450
v -0.09974732 0.02330031 -0.07149582
v -0.06905212 0.02339005 -0.07151505
v -0.10099700 0.02190394 -0.07221878
v -0.07861633 0.02339250 -0.04598221
v -0.08343261 0.02283247 -0.02244301
v -0.09271484 0.02327633 -0.09271469
v -0.09379517 0.02186605 -0.09379524
v -0.06937286 0.02330288 -0.10045680
v -0.07005127 0.02190856 -0.10172730
v -0.04516846 0.02332742 -0.10770930
v -0.04518829 0.02194232 -0.10920030
v -0.02131104 0.02197727 -0.11407230
v -0.08717804 0.02282876 0.00000000
v -0.06233703 0.01261619 0.00000000
v -0.05914917 0.01260884 0.01846420
v -0.05456085 0.01263141 0.03723557
v -0.05743073 0.01204890 0.01820007
v -0.05050232 0.01266505 0.05061889
v -0.02102356 0.02335843 -0.11260990
v 0.00000000 0.02339526 -0.11416820
v 0.00000000 0.02201656 -0.11562480
v 0.02131104 0.02197727 -0.11407230
v -0.04441162 0.02339257 -0.07954620
v -0.01984406 0.02339464 -0.08556946
v -0.04360626 0.02282413 -0.07779861
v -0.06762359 0.02279432 -0.06992416
v -0.07692260 0.02282036 -0.04514450
v -0.05914917 0.01260884 -0.01846420
v -0.05456085 0.01263141 -0.03723541
v -0.05743073 0.01204890 -0.01820007
v -0.05050232 0.01266505 -0.05061889
v -0.06059753 0.01204890 0.00000000
v -0.05284668 0.01204890 -0.03701179
v -0.04917297 0.01204890 -0.04917282
v -0.03479187 0.01204890 -0.05341965
v -0.03480988 0.01263169 -0.05520698
v -0.03933777 0.01204890 -0.01873474
v -0.01975464 0.02283378 -0.08363663
v 0.00000000 0.02282876 -0.08717850
v -0.01731689 0.01261152 -0.05943527
v -0.03779053 0.01204890 -0.03808258
v 0.00000000 0.02339603 -0.08914611
v 0.01984406 0.02339464 -0.08556946
v -0.01692200 0.01204891 -0.05775642
v 0.00000000 0.01204891 -0.06059723
v -0.01783600 0.01204891 -0.03918503
v -0.01877838 0.01204891 -0.01925705
v 0.00000000 0.01204891 -0.01965271
v -0.04054199 0.01204890 0.00000000
v 0.02102356 0.02335843 -0.11260990
v 0.04516876 0.02332742 -0.10770930
v 0.04518860 0.02194232 -0.10920030
v 0.07005127 0.02190856 -0.10172730
v 0.00000000 0.01204891 -0.03989944
v -0.01961670 0.01204891 0.00000000
v -0.03933777 0.01204890 0.01873474
v 0.04441162 0.02339257 -0.07954620
v 0.06905212 0.02339005 -0.07151505
v 0.04360657 0.02282413 -0.07779861
v 0.01783630 0.01204892 -0.03918503
v -0.01877838 0.01204891 0.01925705
v 0.00000000 0.01204891 0.01965271
v 0.06937317 0.02330288 -0.10045680
v 0.09379517 0.02186605 -0.09379524
v 0.09271453 0.02327633 -0.09271469
v 0.10099670 0.02190394 -0.07221878
v 0.09974732 0.02330031 -0.07149582
v 0.10829130 0.02193547 -0.04600754
v 0.10681090 0.02332827 -0.04587891
v 0.00000000 0.01204891 0.00000000
v 0.01961670 0.01204892 0.00000000
v 0.11146450 0.02335884 -0.02236130
v 0.11294310 0.02196182 -0.02273498
v 0.11514770 0.02198947 0.00000000
v 0.01877838 0.01204892 -0.01925705
v 0.07861663 0.02339250 -0.04598221
v 0.08541870 0.02339450 -0.02233589
v 0.11369110 0.02339527 0.00000000
v 0.06762359 0.02279432 -0.06992416
v 0.11146450 0.02335884 0.02236130
v 0.11294310 0.02196182 0.02273506
v 0.10829130 0.02193547 0.04600754
v 0.08343261 0.02283247 -0.02244301
v 0.08914581 0.02339603 0.00000000
v 0.08541870 0.02339450 0.02233597
v 0.10681090 0.02332827 0.04587891
v 0.07692291 0.02282036 -0.04514450
v 0.09974732 0.02330031 0.07149589
v 0.06905212 0.02339005 0.07151505
v 0.10099670 0.02190394 0.07221878
v 0.07861663 0.02339250 0.04598221
v 0.08343261 0.02283247 0.02244301
v 0.09271453 0.02327633 0.09271469
v 0.09379517 0.02186605 0.09379517
v 0.06937317 0.02330288 0.10045680
v 0.07005127 0.02190856 0.10172730
v 0.04516876 0.02332742 0.10770930
v 0.04518860 0.02194232 0.10920030
v 0.02102356 0.02335843 0.11260990
v 0.04441162 0.02339257 0.07954620
v 0.01984406 0.02339464 0.08556946
v 0.04360657 0.02282413 0.07779861
v 0.06762359 0.02279432 0.06992416
v 0.00000000 0.02339603 0.08914611
v 0.00000000 0.02282876 0.08717850
v 0.07692291 0.02282036 0.04514450
v 0.01975464 0.02283378 0.08363663
v -0.01975464 0.02283378 0.08363663
v -0.03480988 0.01263169 0.05520698
v -0.01731689 0.01261152 0.05943535
v -0.03479187 0.01204890 0.05341965
v -0.04917297 0.01204890 0.04917282
v -0.05284668 0.01204890 0.03701179
v -0.03779053 0.01204890 0.03808258
v -0.01692200 0.01204891 0.05775650
v 0.00000000 0.01204891 0.06059715
v -0.01783600 0.01204891 0.03918518
v 0.00000000 0.01261621 0.06233719
v 0.01731689 0.01261153 0.05943535
v 0.00000000 0.01204891 0.03989944
v 0.01783630 0.01204892 0.03918518
v 0.03481018 0.01263171 0.05520698
v 0.01692200 0.01204892 0.05775650
v 0.01877838 0.01204892 0.01925705
v 0.03479217 0.01204892 0.05341965
v 0.05050232 0.01266508 0.05061889
v 0.03779053 0.01204892 0.03808258
v 0.04054199 0.01204892 0.00000000
v 0.05456085 0.01263143 0.03723557
v 0.03933777 0.01204892 0.01873474
v 0.04917328 0.01204892 0.04917282
v 0.05284698 0.01204893 0.03701179
v 0.05914917 0.01260887 0.01846420
v 0.06233703 0.01261623 0.00000000
v 0.05743103 0.01204893 0.01820007
v 0.06059753 0.01204893 0.00000000
v 0.03933777 0.01204892 -0.01873474
v 0.08717834 0.02282876 0.00000000
v 0.05743103 0.01204893 -0.01820007
v 0.05914917 0.01260888 -0.01846420
v 0.05456085 0.01263143 -0.03723541
v 0.03779053 0.01204892 -0.03808258
v 0.05284698 0.01204893 -0.03701179
v 0.05050232 0.01266508 -0.05061889
v 0.01692200 0.01204892 -0.05775642
v 0.04917328 0.01204893 -0.04917282
v 0.03479217 0.01204892 -0.05341965
v 0.03481018 0.01263171 -0.05520698
v 0.01731689 0.01261153 -0.05943527
v 0.01975464 0.02283378 -0.08363663
v 0.00000000 0.01261621 -0.06233719
v -0.10753300 0.01988916 0.04606293
v -0.10037170 0.01986157 0.07186264
v -0.09327637 0.01983801 0.09327637
v -0.08066223 0.01583422 0.08064651
v -0.06971619 0.01986427 0.10108940
v -0.09310181 0.01583881 0.04076889
v -0.11218440 0.01991566 0.02260788
v -0.11435520 0.01994357 0.00000000
v -0.04505249 0.01989139 0.10848100
v -0.09622803 0.01580932 0.02011711
v -0.02120422 0.01992327 0.11333710
v -0.08883728 0.01378934 0.04030395
v -0.11218440 0.01991566 -0.02260788
v -0.10753300 0.01988916 -0.04606293
v -0.10037170 0.01986157 -0.07186264
v -0.09310181 0.01583881 -0.04076881
v -0.08066223 0.01583422 -0.08064651
v -0.09327637 0.01983801 -0.09327637
v -0.06971619 0.01986427 -0.10108950
v -0.09622803 0.01580932 -0.02011711
v -0.04505249 0.01989139 -0.10848100
v -0.09740509 0.01580746 0.00000000
v -0.09312500 0.01380984 0.00000000
v -0.08883728 0.01378934 -0.04030395
v -0.02120422 0.01992327 -0.11333710
v -0.09189880 0.01379836 0.02006264
v -0.09189880 0.01379836 -0.02006264
v -0.08113220 0.00517066 0.00000000
v -0.07731567 0.00525034 0.03964767
v -0.07994202 0.00519274 0.01983238
v -0.07729553 0.01377156 0.07727577
v -0.07731567 0.00525034 -0.03964767
v -0.07994202 0.00519274 -0.01983231
v -0.07696350 0.00385636 0.00000000
v -0.07729553 0.01377156 -0.07727577
v -0.07312255 0.00385636 0.03944672
v -0.06837036 0.00526671 0.06833877
v -0.07574219 0.00385636 0.01971970
v -0.03916596 0.01379353 0.08940048
v -0.03903259 0.00527077 0.07766312
v -0.06508728 0.00385636 0.06505600
v -0.03899048 0.00385636 0.07334869
v -0.03922394 0.00385636 0.04144653
v -0.03929626 0.01586633 0.09380051
v -0.01716186 0.01588697 0.09799729
v 0.00000000 0.01590443 0.09909240
v -0.01681885 0.01380293 0.09370712
v -0.01634216 0.00527422 0.08204757
v 0.00000000 0.00527695 0.08366287
v -0.01632263 0.00385636 0.07778976
v -0.01658630 0.00385636 0.04196533
v 0.00000000 0.01995946 0.11488570
v 0.02120422 0.01992327 0.11333710
v 0.00000000 0.01381314 0.09484123
v 0.01681885 0.01380293 0.09370712
v 0.01716186 0.01588697 0.09799729
v 0.04505249 0.01989139 0.10848100
v 0.03929657 0.01586633 0.09380051
v 0.08066223 0.01583422 0.08064651
v 0.03916626 0.01379353 0.08940048
v 0.06971619 0.01986427 0.10108940
v 0.09327637 0.01983801 0.09327637
v 0.10037170 0.01986157 0.07186264
v 0.10753330 0.01988916 0.04606293
v 0.09310181 0.01583881 0.04076889
v 0.11218410 0.01991566 0.02260788
v 0.11435490 0.01994357 0.00000000
v 0.09622833 0.01580932 0.02011711
v 0.08883759 0.01378934 0.04030395
v 0.07729553 0.01377156 0.07727577
v 0.11218410 0.01991566 -0.02260788
v 0.10753330 0.01988916 -0.04606293
v 0.10037170 0.01986157 -0.07186264
v 0.09310181 0.01583881 -0.04076881
v 0.08066223 0.01583422 -0.08064651
v 0.09327637 0.01983801 -0.09327637
v 0.06971619 0.01986427 -0.10108950
v 0.09622833 0.01580932 -0.02011711
v 0.04505249 0.01989139 -0.10848100
v 0.09740509 0.01580746 0.00000000
v 0.09312470 0.01380984 0.00000000
v 0.08883759 0.01378934 -0.04030395
v 0.02120422 0.01992327 -0.11333710
v 0.09189880 0.01379836 0.02006264
v 0.09189880 0.01379836 -0.02006264
v 0.00000000 0.01995946 -0.11488570
v 0.00000000 0.01590443 -0.09909240
v 0.01716186 0.01588697 -0.09799729
v 0.03929657 0.01586633 -0.09380051
v 0.01681885 0.01380293 -0.09370712
v 0.03916626 0.01379353 -0.08940048
v 0.07729553 0.01377156 -0.07727577
v 0.08113251 0.00517066 0.00000000
v 0.07731567 0.00525034 -0.03964767
v 0.07994232 0.00519274 -0.01983231
v 0.03903320 0.00527077 -0.07766312
v 0.06837036 0.00526671 -0.06833877
v 0.07312255 0.00385636 -0.03944672
v 0.01634216 0.00527422 -0.08204757
v 0.00000000 0.00527695 -0.08366287
v 0.06508728 0.00385636 -0.06505600
v 0.01632263 0.00385636 -0.07778961
v 0.03899048 0.00385636 -0.07334869
v 0.00000000 0.01381314 -0.09484123
v -0.01681885 0.01380293 -0.09370712
v -0.01716186 0.01588697 -0.09799729
v -0.03929626 0.01586633 -0.09380051
v -0.03916596 0.01379353 -0.08940048
v -0.01634216 0.00527422 -0.08204757
v -0.03903259 0.00527077 -0.07766312
v -0.01632263 0.00385636 -0.07778961
v -0.06837036 0.00526671 -0.06833877
v -0.07312255 0.00385636 -0.03944672
v -0.06508728 0.00385636 -0.06505600
v -0.03899048 0.00385636 -0.07334869
v 0.00000000 0.00385636 -0.07951187
v -0.07574219 0.00385636 -0.01971970
v -0.01658630 0.00385636 -0.04196533
v -0.03922394 0.00385636 -0.04144653
v 0.01658630 0.00385636 -0.04196533
v -0.03922394 0.00385636 0.00000000
v -0.03922272 0.00385636 -0.02026260
v -0.01658630 0.00385636 0.00000000
v -0.03922272 0.00385636 0.02026260
v -0.01659546 0.00385636 -0.02082313
v 0.00000000 0.00385636 -0.04280212
v -0.01659546 0.00385636 0.02082321
v 0.00000000 0.00385636 -0.02117981
v 0.01659546 0.00385636 -0.02082313
v 0.01658630 0.00385636 0.00000000
v 0.00000000 0.00385636 0.00000000
v 0.00000000 0.00385636 0.02117981
v 0.00000000 0.00385636 0.04280212
v 0.03922394 0.00385636 -0.04144653
v 0.03922272 0.00385636 -0.02026260
v 0.07574219 0.00385636 -0.01971970
v 0.03922394 0.00385636 0.00000000
v 0.07696350 0.00385636 0.00000000
v 0.01659546 0.00385636 0.02082321
v 0.03922272 0.00385636 0.02026260
v 0.07574219 0.00385636 0.01971970
v 0.07994232 0.00519274 0.01983238
v 0.03922394 0.00385636 0.04144653
v 0.01658630 0.00385636 0.04196533
v 0.07312255 0.00385636 0.03944672
v 0.07731567 0.00525034 0.03964767
v 0.06837036 0.00526671 0.06833877
v 0.03899048 0.00385636 0.07334869
v 0.00000000 0.00385636 0.07951187
v 0.01632263 0.00385636 0.07778976
v 0.03903320 0.00527077 0.07766312
v 0.06508728 0.00385636 0.06505600
v 0.01634216 0.00527422 0.08204757
vn 0.00000000 0.99840850 0.05639717
vn 0.00000070 0.20094240 0.97960300
vn -0.13893920 0.20520250 0.96880740
vn 0.13893880 0.20520510 0.96880700
vn -0.00846352 0.99852790 0.05357539
vn -0.01376078 0.99861540 0.05077357
vn -0.23790330 0.20197260 0.95005740
vn -0.29648640 0.19790340 0.93430730
vn -0.01664310 0.99862960 0.04961972
vn 0.00524205 0.99997090 -0.00554473
vn -0.67916590 0.17696550 0.71233200
vn 0.00403734 0.99986540 -0.01590194
vn -0.05124229 0.99724530 0.05362945
vn -0.93746870 0.19894900 0.28560750
vn -0.04796372 0.99872950 0.01545549
vn -0.95195630 0.20612600 0.22647600
vn 0.00284291 0.99985480 -0.01680388
vn -0.05149585 0.99858520 0.01325613
vn 0.10310370 0.92416390 -0.36781890
vn -0.05438423 0.99848060 0.00887475
vn -0.96844420 0.20231020 0.14555600
vn -0.98150810 0.19142060 -0.00000067
vn 0.01549970 0.99986890 -0.00468835
vn 0.01713376 0.99984860 -0.00301329
vn -0.05902449 0.99825650 -0.00000011
vn 0.23631090 0.93805650 -0.25339110
vn -0.05438263 0.99848070 -0.00887441
vn -0.96844020 0.20233100 -0.14555330
vn -0.95198050 0.20600830 -0.22648100
vn 0.36997660 0.92551740 -0.08083884
vn 0.01642454 0.99986510 -0.00000016
vn 0.01713213 0.99984870 0.00301292
vn -0.05149234 0.99858550 -0.01325534
vn 0.36957640 0.92213710 -0.11435270
vn -0.04796188 0.99872950 -0.01545494
vn 0.00524177 0.99997090 0.00554453
vn -0.93747990 0.19889040 -0.28561150
vn 0.01549885 0.99986890 0.00468803
vn 0.36997840 0.92551670 0.08083927
vn -0.05124087 0.99724540 -0.05362779
vn -0.67915270 0.17702130 -0.71233080
vn -0.01664281 0.99862960 -0.04961931
vn -0.29648460 0.19792530 -0.93430320
vn -0.01376067 0.99861540 -0.05077332
vn -0.23790170 0.20198670 -0.95005480
vn -0.13893890 0.20521360 -0.96880520
vn 0.37026920 0.92892450 -0.00000017
vn 0.37622410 0.92652870 0.00000000
vn 0.37402220 0.92377070 -0.08219008
vn 0.37478950 0.92007140 -0.11402410
vn 0.02969544 0.99953940 -0.00627045
vn 0.25052020 0.93341820 -0.25684650
vn -0.00846365 0.99852790 -0.05357529
vn 0.00000000 0.99840850 -0.05639726
vn -0.00000071 0.20094220 -0.97960310
vn 0.13893800 0.20520370 -0.96880730
vn 0.00403727 0.99986540 0.01590175
vn 0.00284291 0.99985480 0.01680399
vn 0.10310400 0.92416430 0.36781770
vn 0.23630810 0.93805780 0.25338910
vn 0.36957560 0.92213740 0.11435270
vn 0.37402510 0.92376940 0.08219079
vn 0.37479020 0.92007110 0.11402450
vn 0.02969328 0.99953940 0.00627004
vn 0.25051840 0.93341920 0.25684480
vn 0.03271696 0.99946470 -0.00000022
vn 0.03171801 0.99945920 0.00867753
vn 0.04092396 0.99818620 0.04415229
vn 0.00881917 0.99943920 0.03230252
vn 0.10284400 0.92202760 0.37321330
vn -0.00000027 1.00000000 0.00000000
vn 0.07780059 0.92499690 0.37192450
vn -0.00000083 0.92807660 0.37238920
vn 0.07997202 0.92311810 0.37610840
vn -0.00000024 1.00000000 0.00000000
vn 0.00000000 0.99988480 0.01517964
vn -0.00284286 0.99985480 0.01680366
vn 0.00588062 0.99957460 0.02856684
vn -0.00000023 0.99950210 0.03155252
vn -0.00000024 1.00000000 0.00000000
vn -0.00000024 1.00000000 0.00000000
vn -0.00000024 1.00000000 0.00000000
vn -0.00000029 1.00000000 0.00000000
vn 0.00846343 0.99852800 -0.05357473
vn 0.01376052 0.99861540 -0.05077296
vn 0.23790520 0.20196690 -0.95005820
vn 0.29648660 0.19791550 -0.93430460
vn -0.00000024 1.00000000 0.00000000
vn -0.00000024 1.00000000 0.00000000
vn -0.00000029 1.00000000 0.00000000
vn -0.00403725 0.99986540 0.01590185
vn -0.00524209 0.99997090 0.00554474
vn -0.10310460 0.92416400 0.36781830
vn -0.00000027 1.00000000 0.00000000
vn -0.00000024 1.00000000 0.00000000
vn -0.00000024 1.00000000 0.00000000
vn 0.01664282 0.99862960 -0.04961861
vn 0.67916840 0.17698350 -0.71232520
vn 0.05123999 0.99724540 -0.05362891
vn 0.93747380 0.19890970 -0.28561780
vn 0.04796049 0.99872960 -0.01545513
vn 0.95199290 0.20594740 -0.22648480
vn 0.05149420 0.99858530 -0.01325600
vn -0.00000025 1.00000000 0.00000000
vn -0.00000028 1.00000000 0.00000000
vn 0.05438637 0.99848050 -0.00887482
vn 0.96848430 0.20211840 -0.14555500
vn 0.98153150 0.19130030 -0.00000028
vn -0.00000029 1.00000000 0.00000000
vn -0.01549928 0.99986890 0.00468818
vn -0.01713290 0.99984870 0.00301304
vn 0.05902668 0.99825640 -0.00000020
vn -0.23630950 0.93805690 0.25339110
vn 0.05438273 0.99848070 0.00887421
vn 0.96846880 0.20219390 0.14555340
vn 0.95198170 0.20600100 0.22648290
vn -0.36997720 0.92551710 0.08083886
vn -0.01642373 0.99986520 0.00000000
vn -0.01713253 0.99984870 -0.00301300
vn 0.05149413 0.99858530 0.01325613
vn -0.36956710 0.92214120 0.11434970
vn 0.04796237 0.99872950 0.01545570
vn -0.00524198 0.99997090 -0.00554495
vn 0.93747870 0.19888450 0.28561960
vn -0.01549904 0.99986890 -0.00468812
vn -0.36997080 0.92551980 -0.08083751
vn 0.05124068 0.99724540 0.05362978
vn 0.67918630 0.17692360 0.71232290
vn 0.01664307 0.99862960 0.04961897
vn 0.29648970 0.19786730 0.93431380
vn 0.01376080 0.99861540 0.05077367
vn 0.23790710 0.20193510 0.95006440
vn 0.00846345 0.99852800 0.05357488
vn -0.00403740 0.99986540 -0.01590236
vn -0.00284289 0.99985480 -0.01680394
vn -0.10310440 0.92416350 -0.36781980
vn -0.23631220 0.93805540 -0.25339430
vn 0.00000000 0.99988480 -0.01517964
vn 0.00000000 0.92807510 -0.37239320
vn -0.36956730 0.92214100 -0.11435000
vn -0.07780083 0.92499540 -0.37192820
vn 0.07780061 0.92499680 -0.37192470
vn 0.10284390 0.92202690 -0.37321500
vn 0.07997216 0.92311740 -0.37610980
vn 0.00881910 0.99943920 -0.03230197
vn 0.04092135 0.99818640 -0.04415160
vn 0.03171804 0.99945920 -0.00867744
vn -0.00000026 1.00000000 0.00000000
vn 0.00588068 0.99957460 -0.02856782
vn -0.00000037 0.99950210 -0.03155470
vn -0.00000026 1.00000000 0.00000000
vn 0.00000000 0.92570540 -0.37824510
vn -0.07997181 0.92311710 -0.37611070
vn -0.00000024 1.00000000 0.00000000
vn -0.00000024 1.00000000 0.00000000
vn -0.10284350 0.92202770 -0.37321320
vn -0.00588118 0.99957460 -0.02856785
vn -0.00000026 1.00000000 0.00000000
vn -0.00881962 0.99943920 -0.03230257
vn -0.25051630 0.93342000 -0.25684370
vn -0.00000028 1.00000000 0.00000000
vn -0.00000030 1.00000000 0.00000000
vn -0.37479020 0.92007110 -0.11402420
vn -0.00000030 1.00000000 0.00000000
vn -0.04092863 0.99818610 -0.04415237
vn -0.03172367 0.99945900 -0.00867868
vn -0.37402730 0.92376840 -0.08219096
vn -0.37622240 0.92652940 0.00000012
vn -0.02970005 0.99953910 -0.00627115
vn -0.03271986 0.99946460 -0.00000023
vn -0.00000030 1.00000000 0.00000000
vn -0.37027380 0.92892270 0.00000031
vn -0.02969641 0.99953930 0.00627038
vn -0.37402810 0.92376810 0.08219111
vn -0.37478520 0.92007330 0.11402250
vn -0.00000029 1.00000000 0.00000000
vn -0.03171857 0.99945920 0.00867736
vn -0.25051190 0.93342200 0.25684060
vn -0.00588097 0.99957460 0.02856654
vn -0.04092438 0.99818630 0.04415113
vn -0.00881976 0.99943920 0.03230283
vn -0.10284380 0.92202800 0.37321220
vn -0.07997128 0.92311880 0.37610660
vn -0.07780024 0.92499740 0.37192330
vn -0.00000089 0.92570720 0.37824090
vn -0.32841770 -0.94097860 0.08185983
vn -0.29777490 -0.94818010 0.11083660
vn -0.24377310 -0.93549200 0.25579170
vn -0.17827090 -0.96761160 0.17873800
vn -0.10969950 -0.94855400 0.29700390
vn -0.28193330 -0.95691870 0.06942745
vn -0.34900710 -0.93594380 0.04693759
vn -0.34820870 -0.93741710 0.00000000
vn -0.08405092 -0.94296580 0.32210410
vn -0.28153130 -0.95896880 0.03345196
vn -0.04952334 -0.93366800 0.35469930
vn -0.53643220 -0.83361040 0.13165960
vn -0.34900200 -0.93594580 -0.04693723
vn -0.32841020 -0.94098140 -0.08185782
vn -0.29777420 -0.94818030 -0.11083630
vn -0.28193130 -0.95691940 -0.06942675
vn -0.17827090 -0.96761180 -0.17873700
vn -0.24378360 -0.93548730 -0.25579890
vn -0.10969880 -0.94855470 -0.29700220
vn -0.28153100 -0.95896890 -0.03345198
vn -0.08405026 -0.94296660 -0.32210190
vn -0.27786660 -0.96061960 0.00000000
vn -0.54422390 -0.83894010 -0.00000013
vn -0.53643050 -0.83361140 -0.13165970
vn -0.04952353 -0.93366770 -0.35470000
vn -0.54496260 -0.83661240 0.05563666
vn -0.54496140 -0.83661320 -0.05563651
vn -0.52752030 -0.84954240 0.00000000
vn -0.53339330 -0.83516680 0.13411970
vn -0.52719460 -0.84800090 0.05440823
vn -0.34802190 -0.86865030 0.35260100
vn -0.53339460 -0.83516580 -0.13412070
vn -0.52719250 -0.84800230 -0.05440782
vn -0.03402337 -0.99942100 0.00000000
vn -0.34802280 -0.86864930 -0.35260250
vn -0.04170403 -0.99907620 0.01036957
vn -0.37101600 -0.84990230 0.37418350
vn -0.03396711 -0.99941690 0.00346611
vn -0.14118180 -0.83293900 0.53505160
vn -0.14393390 -0.83594700 0.52959960
vn -0.04415587 -0.99802680 0.04464043
vn -0.01144387 -0.99903920 0.04230561
vn 0.00000000 -1.00000000 0.00000000
vn -0.07250625 -0.95705640 0.28068840
vn -0.03715820 -0.95761570 0.28564210
vn 0.00000022 -0.95787980 0.28716980
vn -0.07800335 -0.83178790 0.54958550
vn -0.07936911 -0.84262560 0.53261870
vn 0.00000000 -0.84002320 0.54255060
vn -0.00618990 -0.99922650 0.03883718
vn 0.00000000 -1.00000000 0.00000000
vn 0.00000036 -0.93150410 0.36373090
vn 0.04952298 -0.93366910 0.35469640
vn 0.00000000 -0.83058420 0.55689310
vn 0.07800192 -0.83179040 0.54958200
vn 0.03715787 -0.95761660 0.28563940
vn 0.08405016 -0.94296660 0.32210190
vn 0.07250682 -0.95705620 0.28068890
vn 0.17826890 -0.96761190 0.17873830
vn 0.14118210 -0.83293720 0.53505450
vn 0.10970020 -0.94855400 0.29700370
vn 0.24377880 -0.93548940 0.25579580
vn 0.29777220 -0.94818070 0.11083730
vn 0.32841240 -0.94098060 0.08185867
vn 0.28192530 -0.95692120 0.06942572
vn 0.34900450 -0.93594500 0.04693501
vn 0.34820740 -0.93741750 0.00000030
vn 0.28152550 -0.95897050 0.03344910
vn 0.53643180 -0.83361050 0.13166070
vn 0.34801870 -0.86865020 0.35260440
vn 0.34899300 -0.93594930 -0.04693357
vn 0.32841260 -0.94098050 -0.08185890
vn 0.29777600 -0.94817950 -0.11083820
vn 0.28192730 -0.95692060 -0.06942578
vn 0.17826790 -0.96761240 -0.17873700
vn 0.24378000 -0.93548920 -0.25579520
vn 0.10969870 -0.94855540 -0.29699990
vn 0.28152890 -0.95896950 -0.03344954
vn 0.08404952 -0.94296700 -0.32210060
vn 0.27785940 -0.96062170 0.00000000
vn 0.54422070 -0.83894200 -0.00000018
vn 0.53643390 -0.83360900 -0.13166070
vn 0.04952341 -0.93366800 -0.35469930
vn 0.54496740 -0.83660940 0.05563455
vn 0.54497430 -0.83660480 -0.05563566
vn -0.00000036 -0.93150380 -0.36373170
vn -0.00000022 -0.95787980 -0.28716980
vn 0.03715825 -0.95761580 -0.28564160
vn 0.07250627 -0.95705650 -0.28068790
vn 0.07800248 -0.83179180 -0.54957990
vn 0.14118320 -0.83293620 -0.53505560
vn 0.34801750 -0.86865000 -0.35260600
vn 0.52752750 -0.84953780 0.00000000
vn 0.53339420 -0.83516590 -0.13412170
vn 0.52719830 -0.84799870 -0.05440719
vn 0.14393550 -0.83594730 -0.52959860
vn 0.37101660 -0.84990050 -0.37418700
vn 0.04170426 -0.99907610 -0.01036969
vn 0.07936815 -0.84262940 -0.53261270
vn 0.00000019 -0.84002890 -0.54254180
vn 0.04415510 -0.99802690 -0.04463875
vn 0.00618970 -0.99922650 -0.03883626
vn 0.01144321 -0.99903930 -0.04230417
vn 0.00000014 -0.83058750 -0.55688810
vn -0.07800349 -0.83178900 -0.54958410
vn -0.03715831 -0.95761590 -0.28564130
vn -0.07250540 -0.95705730 -0.28068560
vn -0.14118250 -0.83293740 -0.53505400
vn -0.07936914 -0.84262710 -0.53261630
vn -0.14393490 -0.83594550 -0.52960160
vn -0.00618971 -0.99922650 -0.03883591
vn -0.37101810 -0.84990000 -0.37418650
vn -0.04170368 -0.99907620 -0.01036947
vn -0.04415518 -0.99802680 -0.04463941
vn -0.01144351 -0.99903930 -0.04230465
vn 0.00000000 -0.99923480 -0.03911119
vn -0.03396701 -0.99941690 -0.00346611
vn 0.00000000 -1.00000000 0.00000000
vn 0.00000000 -1.00000000 0.00000000
vn 0.00000000 -1.00000000 0.00000000
vn 0.00000000 -1.00000000 0.00000000
vn 0.00000000 -1.00000000 0.00000000
vn 0.00000000 -1.00000000 0.00000000
vn 0.00000000 -1.00000000 0.00000000
vn 0.00000000 -1.00000000 0.00000000
vn 0.00000000 -1.00000000 0.00000000
vn 0.00000000 -1.00000000 0.00000000
vn 0.00000000 -1.00000000 0.00000000
vn 0.00000000 -1.00000000 0.00000000
vn 0.00000000 -1.00000000 0.00000000
vn 0.00000000 -1.00000000 0.00000000
vn 0.00000000 -1.00000000 0.00000000
vn 0.00000000 -1.00000000 0.00000000
vn 0.00000000 -1.00000000 0.00000000
vn 0.00000000 -1.00000000 0.00000000
vn 0.03396762 -0.99941690 -0.00346634
vn 0.00000000 -1.00000000 0.00000000
vn 0.03402365 -0.99942100 0.00000000
vn 0.00000000 -1.00000000 0.00000000
vn 0.00000000 -1.00000000 0.00000000
vn 0.03396705 -0.99941690 0.00346623
vn 0.52719640 -0.84799990 0.05440689
vn 0.00000000 -1.00000000 0.00000000
vn 0.00000000 -1.00000000 0.00000000
vn 0.04170316 -0.99907620 0.01036946
vn 0.53339420 -0.83516590 0.13412170
vn 0.37101710 -0.84989990 0.37418780
vn 0.01144353 -0.99903920 0.04230505
vn 0.00000000 -0.99923480 0.03911131
vn 0.00618977 -0.99922650 0.03883658
vn 0.14393480 -0.83594700 0.52959920
vn 0.04415499 -0.99802680 0.04463965
vn 0.07936773 -0.84262730 0.53261620
vt 0.50000000 0.00629902
vt 0.50000000 0.00000024
vt 0.40746310 0.00671315
vt 0.59253690 0.00671315
vt 0.40871050 0.01303768
vt 0.30386540 0.03422928
vt 0.30377960 0.02778172
vt 0.19581990 0.06009769
vt 0.19876580 0.06559134
vt 0.20015810 0.19074540
vt 0.09271717 0.09439850
vt 0.30715370 0.15601610
vt 0.09740925 0.09907103
vt 0.06144619 0.18770240
vt 0.06687260 0.19082830
vt 0.02977180 0.30104830
vt 0.41383170 0.12996940
vt 0.03620148 0.30160450
vt 0.31064990 0.16357300
vt 0.01599312 0.40330240
vt 0.00957203 0.40168620
vt 0.00000000 0.50000020
vt 0.15862750 0.30115800
vt 0.12909030 0.40341210
vt 0.00632572 0.50000020
vt 0.20636270 0.19762470
vt 0.01599312 0.59669780
vt 0.00957203 0.59831400
vt 0.02977180 0.69895200
vt 0.13771530 0.40294910
vt 0.11290550 0.50000020
vt 0.12909030 0.59658840
vt 0.03620148 0.69839570
vt 0.16598130 0.30478020
vt 0.06687260 0.80917220
vt 0.20015810 0.80925490
vt 0.06144619 0.81229810
vt 0.15862750 0.69884250
vt 0.13771530 0.59705110
vt 0.09740925 0.90092950
vt 0.09271717 0.90560170
vt 0.19876580 0.93440910
vt 0.19581990 0.93990280
vt 0.30386540 0.96577120
vt 0.30377960 0.97221880
vt 0.40746310 0.99328710
vt 0.12144950 0.50000020
vt 0.22931860 0.50000020
vt 0.24316020 0.42015480
vt 0.26308250 0.33898140
vt 0.25062180 0.42129680
vt 0.28070640 0.28110720
vt 0.40871050 0.98696260
vt 0.50000000 0.99370150
vt 0.50000000 1.00000000
vt 0.59253690 0.99328710
vt 0.30715370 0.84398410
vt 0.41383170 0.87003110
vt 0.31064990 0.83642750
vt 0.20636270 0.80237560
vt 0.16598130 0.69522020
vt 0.24316020 0.57984570
vt 0.26308250 0.66101910
vt 0.25062180 0.57870360
vt 0.28070640 0.71889330
vt 0.23687170 0.50000020
vt 0.27052690 0.66005160
vt 0.28647800 0.71264000
vt 0.34892460 0.73100450
vt 0.34884640 0.73873350
vt 0.32918550 0.58101560
vt 0.41422080 0.86167260
vt 0.50000000 0.87698890
vt 0.42480470 0.75701810
vt 0.33590510 0.66468210
vt 0.50000000 0.88549760
vt 0.58616830 0.87003110
vt 0.42651940 0.74975820
vt 0.50000000 0.76204250
vt 0.42255210 0.66944980
vt 0.41845890 0.58327440
vt 0.50000000 0.58498500
vt 0.32395550 0.50000020
vt 0.59128950 0.98696260
vt 0.69613460 0.96577120
vt 0.69622040 0.97221880
vt 0.80418010 0.93990280
vt 0.50000000 0.67253880
vt 0.41481970 0.50000020
vt 0.32918550 0.41898490
vt 0.69284630 0.84398410
vt 0.79984280 0.80925490
vt 0.68935010 0.83642750
vt 0.57744790 0.66944980
vt 0.41845890 0.41672610
vt 0.50000000 0.41501550
vt 0.80123520 0.93440910
vt 0.90728190 0.90560170
vt 0.90258980 0.90092950
vt 0.93855290 0.81229810
vt 0.93312640 0.80917220
vt 0.97022820 0.69895200
vt 0.96380040 0.69839570
vt 0.50000000 0.50000020
vt 0.58518030 0.50000020
vt 0.98400690 0.59669780
vt 0.99042700 0.59831400
vt 1.00000000 0.50000020
vt 0.58154110 0.58327440
vt 0.84137340 0.69884250
vt 0.87090870 0.59658840
vt 0.99367520 0.50000020
vt 0.79363820 0.80237560
vt 0.98400690 0.40330240
vt 0.99042700 0.40168620
vt 0.97022820 0.30104830
vt 0.86228370 0.59705110
vt 0.88709450 0.50000020
vt 0.87090870 0.40341210
vt 0.96380040 0.30160450
vt 0.83401870 0.69522020
vt 0.93312640 0.19082830
vt 0.79984280 0.19074540
vt 0.93855290 0.18770240
vt 0.84137340 0.30115800
vt 0.86228370 0.40294910
vt 0.90258980 0.09907103
vt 0.90728190 0.09439850
vt 0.80123520 0.06559134
vt 0.80418010 0.06009769
vt 0.69613460 0.03422928
vt 0.69622040 0.02778172
vt 0.59128950 0.01303768
vt 0.69284630 0.15601610
vt 0.58616830 0.12996940
vt 0.68935010 0.16357300
vt 0.79363820 0.19762470
vt 0.50000000 0.11450290
vt 0.50000000 0.12301160
vt 0.83401870 0.30478020
vt 0.58577920 0.13832760
vt 0.41422080 0.13832760
vt 0.34884640 0.26126690
vt 0.42480470 0.24298240
vt 0.34892460 0.26899600
vt 0.28647800 0.28736040
vt 0.27052690 0.33994890
vt 0.33590510 0.33531830
vt 0.42651940 0.25024220
vt 0.50000000 0.23795800
vt 0.42255210 0.33055070
vt 0.50000000 0.23043350
vt 0.57519530 0.24298240
vt 0.50000000 0.32746170
vt 0.57744790 0.33055070
vt 0.65115360 0.26126690
vt 0.57348060 0.25024220
vt 0.58154110 0.41672610
vt 0.65107540 0.26899600
vt 0.71929360 0.28110720
vt 0.66409490 0.33531830
vt 0.67604450 0.50000020
vt 0.73691750 0.33898140
vt 0.67081450 0.41898490
vt 0.71352200 0.28736040
vt 0.72947310 0.33994890
vt 0.75683980 0.42015480
vt 0.77068140 0.50000020
vt 0.74937820 0.42129680
vt 0.76312830 0.50000020
vt 0.67081450 0.58101560
vt 0.87854960 0.50000020
vt 0.74937820 0.57870360
vt 0.75683980 0.57984570
vt 0.73691750 0.66101910
vt 0.66409490 0.66468210
vt 0.72947310 0.66005160
vt 0.71929360 0.71889330
vt 0.57348060 0.74975820
vt 0.71352200 0.71264000
vt 0.65107540 0.73100450
vt 0.65115360 0.73873350
vt 0.57519530 0.75701810
vt 0.58577920 0.86167260
vt 0.50000000 0.76956700
vt 0.03306484 0.30080890
vt 0.06416225 0.18924240
vt 0.09497166 0.09664226
vt 0.14974500 0.15125800
vt 0.19727520 0.06285620
vt 0.09572887 0.32370230
vt 0.01286888 0.40223620
vt 0.00344181 0.50000020
vt 0.30437090 0.03089261
vt 0.08215332 0.41300730
vt 0.40792660 0.00989318
vt 0.11424450 0.32571240
vt 0.01286888 0.59776400
vt 0.03306484 0.69919160
vt 0.06416225 0.81075790
vt 0.09572887 0.67629810
vt 0.14974500 0.84874250
vt 0.09497166 0.90335820
vt 0.19727520 0.93714430
vt 0.08215332 0.58699320
vt 0.30437090 0.96910790
vt 0.07704258 0.50000020
vt 0.09562969 0.50000020
vt 0.11424450 0.67428800
vt 0.40792660 0.99010730
vt 0.10095210 0.41324280
vt 0.10095210 0.58675770
vt 0.14770320 0.50000020
vt 0.16427520 0.32855060
vt 0.15287020 0.41423850
vt 0.16436290 0.16583420
vt 0.16427520 0.67144990
vt 0.15287020 0.58576200
vt 0.16580490 0.50000020
vt 0.16436290 0.83416630
vt 0.18248460 0.32941940
vt 0.20311930 0.20448090
vt 0.17110920 0.41472550
vt 0.32993320 0.11340310
vt 0.33050920 0.16415910
vt 0.21737480 0.21867660
vt 0.33069420 0.18281600
vt 0.32967950 0.32077170
vt 0.32936480 0.09437561
vt 0.42547800 0.07622743
vt 0.50000000 0.07149148
vt 0.42696760 0.09477973
vt 0.42903900 0.14519910
vt 0.50000000 0.13821430
vt 0.42912290 0.16361170
vt 0.42797850 0.31852790
vt 0.50000000 0.00319600
vt 0.59207340 0.00989318
vt 0.50000000 0.08987546
vt 0.57303240 0.09477973
vt 0.57452200 0.07622743
vt 0.69562910 0.03089261
vt 0.67063520 0.09437561
vt 0.85025410 0.15125800
vt 0.67006680 0.11340310
vt 0.80272480 0.06285620
vt 0.90502930 0.09664226
vt 0.93583870 0.18924240
vt 0.96693610 0.30080890
vt 0.90427210 0.32370230
vt 0.98713110 0.40223620
vt 0.99655720 0.50000020
vt 0.91784670 0.41300730
vt 0.88575550 0.32571240
vt 0.83563610 0.16583420
vt 0.98713110 0.59776400
vt 0.96693610 0.69919160
vt 0.93583870 0.81075790
vt 0.90427210 0.67629810
vt 0.85025410 0.84874250
vt 0.90502930 0.90335820
vt 0.80272480 0.93714430
vt 0.91784670 0.58699320
vt 0.69562910 0.96910790
vt 0.92295840 0.50000020
vt 0.90437130 0.50000020
vt 0.88575550 0.67428800
vt 0.59207340 0.99010730
vt 0.89904790 0.41324280
vt 0.89904790 0.58675770
vt 0.50000000 0.99680420
vt 0.50000000 0.92850880
vt 0.57452200 0.92377310
vt 0.67063520 0.90562490
vt 0.57303240 0.90522070
vt 0.67006680 0.88659740
vt 0.83563610 0.83416630
vt 0.85229680 0.50000020
vt 0.83572390 0.67144990
vt 0.84712980 0.58576200
vt 0.66949080 0.83584140
vt 0.79688070 0.79551960
vt 0.81751440 0.67058110
vt 0.57096100 0.85480140
vt 0.50000000 0.86178610
vt 0.78262520 0.78132390
vt 0.57087710 0.83638880
vt 0.66930580 0.81718440
vt 0.50000000 0.91012500
vt 0.42696760 0.90522070
vt 0.42547800 0.92377310
vt 0.32936480 0.90562490
vt 0.32993320 0.88659740
vt 0.42903900 0.85480140
vt 0.33050920 0.83584140
vt 0.42912290 0.83638880
vt 0.20311930 0.79551960
vt 0.18248460 0.67058110
vt 0.21737480 0.78132390
vt 0.33069420 0.81718440
vt 0.50000000 0.84383580
vt 0.17110920 0.58527470
vt 0.42797850 0.68147230
vt 0.32967950 0.67922850
vt 0.57202150 0.68147230
vt 0.32967950 0.50000020
vt 0.32968520 0.58762220
vt 0.42797850 0.50000020
vt 0.32968520 0.41237810
vt 0.42793850 0.59004640
vt 0.50000000 0.68509100
vt 0.42793850 0.40995410
vt 0.50000000 0.59158870
vt 0.57206150 0.59004640
vt 0.57202150 0.50000020
vt 0.50000000 0.50000020
vt 0.50000000 0.40841170
vt 0.50000000 0.31490950
vt 0.67032050 0.67922850
vt 0.67031480 0.58762220
vt 0.82888980 0.58527470
vt 0.67032050 0.50000020
vt 0.83419420 0.50000020
vt 0.57206150 0.40995410
vt 0.67031480 0.41237810
vt 0.82888980 0.41472550
vt 0.84712980 0.41423850
vt 0.67032050 0.32077170
vt 0.57202150 0.31852790
vt 0.81751440 0.32941940
vt 0.83572390 0.32855060
vt 0.79688070 0.20448090
vt 0.66930580 0.18281600
vt 0.50000000 0.15616460
vt 0.57087710 0.16361170
vt 0.66949080 0.16415910
vt 0.78262520 0.21867660
vt 0.57096100 0.14519910
f 3/3/3 2/2/2 1/1/1
f 2/2/2 4/4/4 1/1/1
f 5/5/5 3/3/3 1/1/1
f 3/3/3 5/5/5 6/6/6
f 7/7/7 3/3/3 6/6/6
f 7/7/7 6/6/6 8/8/8
f 6/6/6 9/9/9 8/8/8
f 10/10/10 9/9/9 6/6/6
f 8/8/8 9/9/9 11/11/11
f 12/12/12 6/6/6 5/5/5
f 12/12/12 10/10/10 6/6/6
f 9/9/9 13/13/13 11/11/11
f 14/14/14 11/11/11 13/13/13
f 15/15/15 13/13/13 9/9/9
f 15/15/15 14/14/14 13/13/13
f 10/10/10 15/15/15 9/9/9
f 16/16/16 14/14/14 15/15/15
f 17/17/17 12/12/12 5/5/5
f 17/17/17 5/5/5 1/1/1
f 18/18/18 16/16/16 15/15/15
f 18/18/18 15/15/15 10/10/10
f 12/12/12 17/17/17 19/19/19
f 12/12/12 19/19/19 10/10/10
f 16/16/16 18/18/18 20/20/20
f 21/21/21 16/16/16 20/20/20
f 22/22/22 21/21/21 20/20/20
f 23/23/23 18/18/18 10/10/10
f 24/24/24 20/20/20 18/18/18
f 23/23/23 24/24/24 18/18/18
f 25/25/25 22/22/22 20/20/20
f 25/25/25 20/20/20 24/24/24
f 19/19/19 26/26/26 10/10/10
f 23/23/23 10/10/10 26/26/26
f 22/22/22 25/25/25 27/27/27
f 28/28/28 22/22/22 27/27/27
f 29/29/29 28/28/28 27/27/27
f 24/24/24 23/23/23 30/30/30
f 31/31/31 25/25/25 24/24/24
f 31/31/31 24/24/24 30/30/30
f 27/27/27 25/25/25 32/32/32
f 25/25/25 31/31/31 32/32/32
f 33/33/33 29/29/29 27/27/27
f 27/27/27 32/32/32 33/33/33
f 34/34/34 23/23/23 26/26/26
f 23/23/23 34/34/34 30/30/30
f 29/29/29 33/33/33 35/35/35
f 35/35/35 33/33/33 36/36/36
f 37/37/37 29/29/29 35/35/35
f 32/32/32 38/38/38 33/33/33
f 33/33/33 38/38/38 36/36/36
f 32/32/32 31/31/31 39/39/39
f 38/38/38 32/32/32 39/39/39
f 37/37/37 35/35/35 40/40/40
f 41/41/41 37/37/37 40/40/40
f 40/40/40 35/35/35 42/42/42
f 40/40/40 42/42/42 41/41/41
f 35/35/35 36/36/36 42/42/42
f 42/42/42 43/43/43 41/41/41
f 42/42/42 44/44/44 43/43/43
f 42/42/42 36/36/36 44/44/44
f 44/44/44 45/45/45 43/43/43
f 46/46/46 45/45/45 44/44/44
f 31/31/31 47/47/47 39/39/39
f 47/47/47 48/48/48 39/39/39
f 47/47/47 31/31/31 30/30/30
f 48/48/48 47/47/47 30/30/30
f 49/49/49 48/48/48 30/30/30
f 49/49/49 30/30/30 34/34/34
f 50/50/50 49/49/49 34/34/34
f 50/50/50 34/34/34 26/26/26
f 48/48/48 49/49/49 51/51/51
f 51/51/51 49/49/49 50/50/50
f 52/52/52 50/50/50 26/26/26
f 52/52/52 26/26/26 19/19/19
f 53/53/53 46/46/46 44/44/44
f 46/46/46 53/53/53 54/54/54
f 55/55/55 46/46/46 54/54/54
f 56/56/56 55/55/55 54/54/54
f 44/44/44 57/57/57 53/53/53
f 36/36/36 57/57/57 44/44/44
f 57/57/57 58/58/58 53/53/53
f 53/53/53 58/58/58 54/54/54
f 59/59/59 57/57/57 36/36/36
f 58/58/58 57/57/57 59/59/59
f 60/60/60 59/59/59 36/36/36
f 36/36/36 38/38/38 60/60/60
f 38/38/38 61/61/61 60/60/60
f 61/61/61 38/38/38 39/39/39
f 39/39/39 62/62/62 61/61/61
f 48/48/48 62/62/62 39/39/39
f 61/61/61 63/63/63 60/60/60
f 62/62/62 63/63/63 61/61/61
f 62/62/62 48/48/48 64/64/64
f 62/62/62 64/64/64 63/63/63
f 60/60/60 65/65/65 59/59/59
f 63/63/63 65/65/65 60/60/60
f 48/48/48 66/66/66 64/64/64
f 66/66/66 48/48/48 51/51/51
f 64/64/64 67/67/67 63/63/63
f 65/65/65 63/63/63 68/68/68
f 63/63/63 67/67/67 68/68/68
f 68/68/68 69/69/69 65/65/65
f 68/68/68 67/67/67 69/69/69
f 65/65/65 70/70/70 59/59/59
f 69/69/69 70/70/70 65/65/65
f 67/67/67 64/64/64 71/71/71
f 64/64/64 66/66/66 71/71/71
f 59/59/59 70/70/70 72/72/72
f 72/72/72 58/58/58 59/59/59
f 72/72/72 73/73/73 58/58/58
f 70/70/70 74/74/74 72/72/72
f 70/70/70 69/69/69 74/74/74
f 72/72/72 74/74/74 73/73/73
f 67/67/67 75/75/75 69/69/69
f 75/75/75 67/67/67 71/71/71
f 73/73/73 76/76/76 58/58/58
f 58/58/58 76/76/76 54/54/54
f 76/76/76 77/77/77 54/54/54
f 76/76/76 73/73/73 77/77/77
f 69/69/69 78/78/78 74/74/74
f 78/78/78 69/69/69 75/75/75
f 78/78/78 79/79/79 74/74/74
f 80/80/80 78/78/78 75/75/75
f 78/78/78 80/80/80 79/79/79
f 71/71/71 81/81/81 75/75/75
f 81/81/81 80/80/80 75/75/75
f 81/81/81 82/82/82 80/80/80
f 81/81/81 71/71/71 83/83/83
f 66/66/66 83/83/83 71/71/71
f 77/77/77 84/84/84 54/54/54
f 84/84/84 56/56/56 54/54/54
f 56/56/56 84/84/84 85/85/85
f 86/86/86 56/56/56 85/85/85
f 86/86/86 85/85/85 87/87/87
f 80/80/80 88/88/88 79/79/79
f 82/82/82 88/88/88 80/80/80
f 89/89/89 81/81/81 83/83/83
f 81/81/81 89/89/89 82/82/82
f 83/83/83 66/66/66 90/90/90
f 66/66/66 51/51/51 90/90/90
f 91/91/91 85/85/85 84/84/84
f 91/91/91 92/92/92 85/85/85
f 77/77/77 91/91/91 84/84/84
f 91/91/91 77/77/77 93/93/93
f 91/91/91 93/93/93 92/92/92
f 88/88/88 94/94/94 79/79/79
f 88/88/88 82/82/82 94/94/94
f 95/95/95 89/89/89 83/83/83
f 90/90/90 95/95/95 83/83/83
f 89/89/89 95/95/95 96/96/96
f 92/92/92 97/97/97 85/85/85
f 85/85/85 97/97/97 87/87/87
f 87/87/87 97/97/97 98/98/98
f 97/97/97 99/99/99 98/98/98
f 100/100/100 98/98/98 99/99/99
f 101/101/101 99/99/99 97/97/97
f 101/101/101 100/100/100 99/99/99
f 92/92/92 101/101/101 97/97/97
f 102/102/102 100/100/100 101/101/101
f 103/103/103 102/102/102 101/101/101
f 103/103/103 101/101/101 92/92/92
f 104/104/104 89/89/89 96/96/96
f 89/89/89 104/104/104 82/82/82
f 104/104/104 105/105/105 82/82/82
f 105/105/105 104/104/104 96/96/96
f 102/102/102 103/103/103 106/106/106
f 107/107/107 102/102/102 106/106/106
f 108/108/108 107/107/107 106/106/106
f 105/105/105 109/109/109 82/82/82
f 82/82/82 109/109/109 94/94/94
f 110/110/110 103/103/103 92/92/92
f 111/111/111 106/106/106 103/103/103
f 110/110/110 111/111/111 103/103/103
f 112/112/112 108/108/108 106/106/106
f 112/112/112 106/106/106 111/111/111
f 110/110/110 92/92/92 113/113/113
f 93/93/93 113/113/113 92/92/92
f 108/108/108 112/112/112 114/114/114
f 115/115/115 108/108/108 114/114/114
f 116/116/116 115/115/115 114/114/114
f 111/111/111 110/110/110 117/117/117
f 118/118/118 112/112/112 111/111/111
f 118/118/118 111/111/111 117/117/117
f 114/114/114 112/112/112 119/119/119
f 112/112/112 118/118/118 119/119/119
f 120/120/120 116/116/116 114/114/114
f 114/114/114 119/119/119 120/120/120
f 121/121/121 110/110/110 113/113/113
f 110/110/110 121/121/121 117/117/117
f 116/116/116 120/120/120 122/122/122
f 122/122/122 120/120/120 123/123/123
f 124/124/124 116/116/116 122/122/122
f 119/119/119 125/125/125 120/120/120
f 120/120/120 125/125/125 123/123/123
f 119/119/119 118/118/118 126/126/126
f 125/125/125 119/119/119 126/126/126
f 124/124/124 122/122/122 127/127/127
f 128/128/128 124/124/124 127/127/127
f 127/127/127 122/122/122 129/129/129
f 127/127/127 129/129/129 128/128/128
f 122/122/122 123/123/123 129/129/129
f 129/129/129 130/130/130 128/128/128
f 129/129/129 131/131/131 130/130/130
f 129/129/129 123/123/123 131/131/131
f 131/131/131 132/132/132 130/130/130
f 4/4/4 132/132/132 131/131/131
f 133/133/133 4/4/4 131/131/131
f 4/4/4 133/133/133 1/1/1
f 131/131/131 134/134/134 133/133/133
f 123/123/123 134/134/134 131/131/131
f 133/133/133 135/135/135 1/1/1
f 134/134/134 135/135/135 133/133/133
f 136/136/136 134/134/134 123/123/123
f 135/135/135 134/134/134 136/136/136
f 123/123/123 125/125/125 137/137/137
f 137/137/137 136/136/136 123/123/123
f 135/135/135 138/138/138 1/1/1
f 139/139/139 138/138/138 135/135/135
f 138/138/138 17/17/17 1/1/1
f 138/138/138 139/139/139 17/17/17
f 125/125/125 140/140/140 137/137/137
f 140/140/140 125/125/125 126/126/126
f 141/141/141 135/135/135 136/136/136
f 141/141/141 139/139/139 135/135/135
f 139/139/139 142/142/142 17/17/17
f 17/17/17 142/142/142 19/19/19
f 143/143/143 19/19/19 142/142/142
f 143/143/143 52/52/52 19/19/19
f 144/144/144 143/143/143 142/142/142
f 144/144/144 142/142/142 139/139/139
f 143/143/143 145/145/145 52/52/52
f 145/145/145 143/143/143 144/144/144
f 145/145/145 146/146/146 52/52/52
f 50/50/50 52/52/52 146/146/146
f 147/147/147 50/50/50 146/146/146
f 147/147/147 146/146/146 145/145/145
f 147/147/147 51/51/51 50/50/50
f 51/51/51 147/147/147 90/90/90
f 147/147/147 148/148/148 90/90/90
f 148/148/148 147/147/147 145/145/145
f 95/95/95 90/90/90 148/148/148
f 145/145/145 149/149/149 148/148/148
f 149/149/149 145/145/145 144/144/144
f 150/150/150 149/149/149 144/144/144
f 151/151/151 95/95/95 148/148/148
f 149/149/149 151/151/151 148/148/148
f 151/151/151 149/149/149 150/150/150
f 96/96/96 95/95/95 151/151/151
f 152/152/152 150/150/150 144/144/144
f 152/152/152 144/144/144 139/139/139
f 153/153/153 152/152/152 139/139/139
f 150/150/150 152/152/152 153/153/153
f 141/141/141 153/153/153 139/139/139
f 154/154/154 96/96/96 151/151/151
f 154/154/154 151/151/151 150/150/150
f 96/96/96 154/154/154 155/155/155
f 155/155/155 154/154/154 150/150/150
f 156/156/156 153/153/153 141/141/141
f 136/136/136 156/156/156 141/141/141
f 157/157/157 150/150/150 153/153/153
f 157/157/157 155/155/155 150/150/150
f 158/158/158 96/96/96 155/155/155
f 158/158/158 105/105/105 96/96/96
f 156/156/156 159/159/159 153/153/153
f 159/159/159 157/157/157 153/153/153
f 160/160/160 156/156/156 136/136/136
f 159/159/159 156/156/156 160/160/160
f 137/137/137 160/160/160 136/136/136
f 155/155/155 157/157/157 161/161/161
f 158/158/158 155/155/155 161/161/161
f 157/157/157 159/159/159 161/161/161
f 105/105/105 158/158/158 162/162/162
f 109/109/109 105/105/105 162/162/162
f 163/163/163 160/160/160 137/137/137
f 140/140/140 163/163/163 137/137/137
f 164/164/164 158/158/158 161/161/161
f 158/158/158 164/164/164 162/162/162
f 165/165/165 159/159/159 160/160/160
f 160/160/160 163/163/163 165/165/165
f 166/166/166 161/161/161 159/159/159
f 165/165/165 166/166/166 159/159/159
f 161/161/161 166/166/166 164/164/164
f 163/163/163 166/166/166 165/165/165
f 167/167/167 163/163/163 140/140/140
f 126/126/126 167/167/167 140/140/140
f 168/168/168 167/167/167 126/126/126
f 169/169/169 166/166/166 163/163/163
f 167/167/167 169/169/169 163/163/163
f 166/166/166 169/169/169 164/164/164
f 167/167/167 168/168/168 169/169/169
f 169/169/169 170/170/170 164/164/164
f 170/170/170 162/162/162 164/164/164
f 168/168/168 170/170/170 169/169/169
f 162/162/162 170/170/170 171/171/171
f 171/171/171 109/109/109 162/162/162
f 172/172/172 168/168/168 126/126/126
f 118/118/118 172/172/172 126/126/126
f 172/172/172 118/118/118 117/117/117
f 168/168/168 172/172/172 117/117/117
f 170/170/170 168/168/168 173/173/173
f 170/170/170 173/173/173 171/171/171
f 174/174/174 168/168/168 117/117/117
f 168/168/168 174/174/174 173/173/173
f 174/174/174 117/117/117 121/121/121
f 175/175/175 174/174/174 121/121/121
f 173/173/173 174/174/174 175/175/175
f 175/175/175 121/121/121 113/113/113
f 109/109/109 171/171/171 176/176/176
f 94/94/94 109/109/109 176/176/176
f 173/173/173 177/177/177 171/171/171
f 177/177/177 173/173/173 175/175/175
f 177/177/177 176/176/176 171/171/171
f 178/178/178 175/175/175 113/113/113
f 178/178/178 113/113/113 93/93/93
f 179/179/179 94/94/94 176/176/176
f 94/94/94 179/179/179 79/79/79
f 177/177/177 175/175/175 180/180/180
f 175/175/175 178/178/178 180/180/180
f 176/176/176 177/177/177 181/181/181
f 177/177/177 180/180/180 181/181/181
f 181/181/181 179/179/179 176/176/176
f 181/181/181 180/180/180 178/178/178
f 182/182/182 178/178/178 93/93/93
f 182/182/182 181/181/181 178/178/178
f 179/179/179 181/181/181 183/183/183
f 79/79/79 179/179/179 183/183/183
f 181/181/181 182/182/182 183/183/183
f 182/182/182 93/93/93 184/184/184
f 183/183/183 182/182/182 184/184/184
f 77/77/77 184/184/184 93/93/93
f 73/73/73 184/184/184 77/77/77
f 183/183/183 184/184/184 73/73/73
f 185/185/185 79/79/79 183/183/183
f 185/185/185 183/183/183 73/73/73
f 79/79/79 185/185/185 74/74/74
f 74/74/74 185/185/185 73/73/73
f 186/186/186 16/16/16 21/21/21
f 16/16/16 186/186/186 14/14/14
f 186/186/186 187/187/187 14/14/14
f 14/14/14 187/187/187 11/11/11
f 187/187/187 188/188/188 11/11/11
f 8/8/8 11/11/11 188/188/188
f 188/188/188 187/187/187 189/189/189
f 190/190/190 188/188/188 189/189/189
f 190/190/190 8/8/8 188/188/188
f 7/7/7 8/8/8 190/190/190
f 186/186/186 191/191/191 187/187/187
f 191/191/191 189/189/189 187/187/187
f 192/192/192 186/186/186 21/21/21
f 191/191/191 186/186/186 192/192/192
f 193/193/193 192/192/192 21/21/21
f 22/22/22 193/193/193 21/21/21
f 193/193/193 22/22/22 28/28/28
f 194/194/194 7/7/7 190/190/190
f 194/194/194 190/190/190 189/189/189
f 195/195/195 191/191/191 192/192/192
f 192/192/192 193/193/193 195/195/195
f 194/194/194 196/196/196 7/7/7
f 196/196/196 3/3/3 7/7/7
f 3/3/3 196/196/196 2/2/2
f 191/191/191 197/197/197 189/189/189
f 197/197/197 191/191/191 195/195/195
f 198/198/198 193/193/193 28/28/28
f 199/199/199 198/198/198 28/28/28
f 29/29/29 199/199/199 28/28/28
f 199/199/199 29/29/29 37/37/37
f 200/200/200 199/199/199 37/37/37
f 200/200/200 37/37/37 41/41/41
f 199/199/199 201/201/201 198/198/198
f 201/201/201 199/199/199 200/200/200
f 202/202/202 201/201/201 200/200/200
f 200/200/200 203/203/203 202/202/202
f 203/203/203 200/200/200 41/41/41
f 41/41/41 43/43/43 203/203/203
f 43/43/43 204/204/204 203/203/203
f 203/203/203 204/204/204 202/202/202
f 43/43/43 45/45/45 204/204/204
f 193/193/193 198/198/198 205/205/205
f 201/201/201 205/205/205 198/198/198
f 45/45/45 206/206/206 204/204/204
f 204/204/204 206/206/206 202/202/202
f 207/207/207 193/193/193 205/205/205
f 193/193/193 207/207/207 195/195/195
f 207/207/207 208/208/208 195/195/195
f 208/208/208 207/207/207 205/205/205
f 201/201/201 209/209/209 205/205/205
f 209/209/209 201/201/201 202/202/202
f 210/210/210 206/206/206 45/45/45
f 46/46/46 210/210/210 45/45/45
f 210/210/210 46/46/46 55/55/55
f 208/208/208 211/211/211 195/195/195
f 211/211/211 197/197/197 195/195/195
f 212/212/212 208/208/208 205/205/205
f 209/209/209 212/212/212 205/205/205
f 211/211/211 208/208/208 213/213/213
f 208/208/208 212/212/212 213/213/213
f 197/197/197 211/211/211 214/214/214
f 215/215/215 211/211/211 213/213/213
f 211/211/211 215/215/215 214/214/214
f 197/197/197 214/214/214 216/216/216
f 197/197/197 216/216/216 189/189/189
f 212/212/212 209/209/209 217/217/217
f 212/212/212 218/218/218 213/213/213
f 218/218/218 212/212/212 217/217/217
f 215/215/215 213/213/213 219/219/219
f 213/213/213 218/218/218 219/219/219
f 217/217/217 209/209/209 220/220/220
f 220/220/220 209/209/209 202/202/202
f 214/214/214 215/215/215 221/221/221
f 214/214/214 222/222/222 216/216/216
f 214/214/214 221/221/221 222/222/222
f 223/223/223 215/215/215 219/219/219
f 215/215/215 223/223/223 221/221/221
f 216/216/216 224/224/224 189/189/189
f 222/222/222 225/225/225 216/216/216
f 225/225/225 224/224/224 216/216/216
f 221/221/221 226/226/226 222/222/222
f 225/225/225 222/222/222 226/226/226
f 226/226/226 221/221/221 227/227/227
f 227/227/227 225/225/225 226/226/226
f 221/221/221 223/223/223 228/228/228
f 221/221/221 228/228/228 227/227/227
f 224/224/224 229/229/229 189/189/189
f 229/229/229 194/194/194 189/189/189
f 229/229/229 230/230/230 194/194/194
f 230/230/230 196/196/196 194/194/194
f 230/230/230 231/231/231 196/196/196
f 232/232/232 230/230/230 229/229/229
f 224/224/224 232/232/232 229/229/229
f 230/230/230 232/232/232 231/231/231
f 224/224/224 225/225/225 233/233/233
f 232/232/232 224/224/224 233/233/233
f 233/233/233 234/234/234 232/232/232
f 233/233/233 225/225/225 235/235/235
f 225/225/225 227/227/227 235/235/235
f 234/234/234 233/233/233 235/235/235
f 236/236/236 235/235/235 227/227/227
f 228/228/228 236/236/236 227/227/227
f 231/231/231 237/237/237 196/196/196
f 196/196/196 237/237/237 2/2/2
f 237/237/237 238/238/238 2/2/2
f 237/237/237 231/231/231 238/238/238
f 238/238/238 4/4/4 2/2/2
f 4/4/4 238/238/238 132/132/132
f 232/232/232 239/239/239 231/231/231
f 234/234/234 239/239/239 232/232/232
f 239/239/239 240/240/240 231/231/231
f 239/239/239 234/234/234 240/240/240
f 231/231/231 241/241/241 238/238/238
f 240/240/240 241/241/241 231/231/231
f 238/238/238 242/242/242 132/132/132
f 238/238/238 241/241/241 242/242/242
f 241/241/241 240/240/240 243/243/243
f 241/241/241 243/243/243 242/242/242
f 242/242/242 243/243/243 244/244/244
f 243/243/243 245/245/245 244/244/244
f 240/240/240 245/245/245 243/243/243
f 132/132/132 242/242/242 246/246/246
f 246/246/246 242/242/242 244/244/244
f 130/130/130 132/132/132 246/246/246
f 130/130/130 246/246/246 247/247/247
f 247/247/247 246/246/246 244/244/244
f 128/128/128 130/130/130 247/247/247
f 247/247/247 248/248/248 128/128/128
f 248/248/248 247/247/247 244/244/244
f 248/248/248 124/124/124 128/128/128
f 248/248/248 249/249/249 124/124/124
f 249/249/249 116/116/116 124/124/124
f 116/116/116 249/249/249 115/115/115
f 250/250/250 249/249/249 248/248/248
f 244/244/244 250/250/250 248/248/248
f 249/249/249 251/251/251 115/115/115
f 249/249/249 250/250/250 251/251/251
f 251/251/251 252/252/252 115/115/115
f 252/252/252 108/108/108 115/115/115
f 108/108/108 252/252/252 107/107/107
f 250/250/250 253/253/253 251/251/251
f 252/252/252 251/251/251 253/253/253
f 254/254/254 250/250/250 244/244/244
f 250/250/250 254/254/254 253/253/253
f 255/255/255 254/254/254 244/244/244
f 245/245/245 255/255/255 244/244/244
f 252/252/252 256/256/256 107/107/107
f 256/256/256 257/257/257 107/107/107
f 257/257/257 102/102/102 107/107/107
f 102/102/102 257/257/257 100/100/100
f 257/257/257 258/258/258 100/100/100
f 100/100/100 258/258/258 98/98/98
f 259/259/259 257/257/257 256/256/256
f 257/257/257 259/259/259 258/258/258
f 259/259/259 260/260/260 258/258/258
f 261/261/261 258/258/258 260/260/260
f 258/258/258 261/261/261 98/98/98
f 87/87/87 98/98/98 261/261/261
f 262/262/262 87/87/87 261/261/261
f 262/262/262 261/261/261 260/260/260
f 86/86/86 87/87/87 262/262/262
f 256/256/256 252/252/252 263/263/263
f 263/263/263 259/259/259 256/256/256
f 264/264/264 86/86/86 262/262/262
f 264/264/264 262/262/262 260/260/260
f 252/252/252 265/265/265 263/263/263
f 265/265/265 252/252/252 253/253/253
f 266/266/266 265/265/265 253/253/253
f 265/265/265 266/266/266 263/263/263
f 267/267/267 259/259/259 263/263/263
f 259/259/259 267/267/267 260/260/260
f 264/264/264 268/268/268 86/86/86
f 268/268/268 56/56/56 86/86/86
f 56/56/56 268/268/268 55/55/55
f 269/269/269 266/266/266 253/253/253
f 254/254/254 269/269/269 253/253/253
f 266/266/266 270/270/270 263/263/263
f 270/270/270 267/267/267 263/263/263
f 268/268/268 271/271/271 55/55/55
f 272/272/272 271/271/271 268/268/268
f 271/271/271 210/210/210 55/55/55
f 271/271/271 272/272/272 210/210/210
f 273/273/273 268/268/268 264/264/264
f 273/273/273 272/272/272 268/268/268
f 274/274/274 273/273/273 264/264/264
f 274/274/274 264/264/264 260/260/260
f 275/275/275 273/273/273 274/274/274
f 273/273/273 275/275/275 272/272/272
f 276/276/276 274/274/274 260/260/260
f 276/276/276 275/275/275 274/274/274
f 267/267/267 277/277/277 260/260/260
f 277/277/277 276/276/276 260/260/260
f 270/270/270 266/266/266 278/278/278
f 266/266/266 269/269/269 278/278/278
f 267/267/267 270/270/270 279/279/279
f 267/267/267 279/279/279 277/277/277
f 280/280/280 270/270/270 278/278/278
f 270/270/270 280/280/280 279/279/279
f 281/281/281 276/276/276 277/277/277
f 279/279/279 282/282/282 277/277/277
f 282/282/282 281/281/281 277/277/277
f 279/279/279 283/283/283 282/282/282
f 279/279/279 280/280/280 283/283/283
f 275/275/275 276/276/276 284/284/284
f 276/276/276 281/281/281 284/284/284
f 284/284/284 285/285/285 275/275/275
f 281/281/281 282/282/282 286/286/286
f 283/283/283 286/286/286 282/282/282
f 284/284/284 281/281/281 287/287/287
f 285/285/285 284/284/284 287/287/287
f 288/288/288 281/281/281 286/286/286
f 286/286/286 283/283/283 288/288/288
f 281/281/281 288/288/288 287/287/287
f 285/285/285 289/289/289 275/275/275
f 275/275/275 289/289/289 272/272/272
f 289/289/289 290/290/290 272/272/272
f 289/289/289 285/285/285 290/290/290
f 290/290/290 291/291/291 272/272/272
f 272/272/272 291/291/291 210/210/210
f 210/210/210 291/291/291 206/206/206
f 291/291/291 292/292/292 206/206/206
f 291/291/291 290/290/290 292/292/292
f 206/206/206 292/292/292 202/202/202
f 292/292/292 293/293/293 202/202/202
f 290/290/290 293/293/293 292/292/292
f 293/293/293 220/220/220 202/202/202
f 293/293/293 290/290/290 294/294/294
f 285/285/285 294/294/294 290/290/290
f 293/293/293 295/295/295 220/220/220
f 295/295/295 293/293/293 294/294/294
f 294/294/294 285/285/285 296/296/296
f 295/295/295 294/294/294 296/296/296
f 295/295/295 297/297/297 220/220/220
f 297/297/297 217/217/217 220/220/220
f 298/298/298 217/217/217 297/297/297
f 218/218/218 217/217/217 298/298/298
f 297/297/297 295/295/295 299/299/299
f 299/299/299 298/298/298 297/297/297
f 295/295/295 300/300/300 299/299/299
f 300/300/300 295/295/295 296/296/296
f 298/298/298 299/299/299 300/300/300
f 285/285/285 301/301/301 296/296/296
f 301/301/301 285/285/285 287/287/287
f 302/302/302 218/218/218 298/298/298
f 218/218/218 302/302/302 219/219/219
f 296/296/296 303/303/303 300/300/300
f 303/303/303 296/296/296 301/301/301
f 304/304/304 298/298/298 300/300/300
f 302/302/302 298/298/298 304/304/304
f 303/303/303 304/304/304 300/300/300
f 287/287/287 305/305/305 301/301/301
f 305/305/305 287/287/287 288/288/288
f 306/306/306 219/219/219 302/302/302
f 219/219/219 306/306/306 223/223/223
f 307/307/307 302/302/302 304/304/304
f 307/307/307 306/306/306 302/302/302
f 308/308/308 306/306/306 307/307/307
f 306/306/306 309/309/309 223/223/223
f 306/306/306 308/308/308 309/309/309
f 223/223/223 309/309/309 228/228/228
f 310/310/310 307/307/307 304/304/304
f 303/303/303 310/310/310 304/304/304
f 310/310/310 308/308/308 307/307/307
f 311/311/311 303/303/303 301/301/301
f 303/303/303 311/311/311 310/310/310
f 305/305/305 311/311/311 301/301/301
f 309/309/309 312/312/312 228/228/228
f 308/308/308 312/312/312 309/309/309
f 312/312/312 236/236/236 228/228/228
f 311/311/311 313/313/313 310/310/310
f 310/310/310 313/313/313 308/308/308
f 311/311/311 305/305/305 314/314/314
f 313/313/313 311/311/311 314/314/314
f 313/313/313 314/314/314 315/315/315
f 313/313/313 316/316/316 308/308/308
f 316/316/316 313/313/313 315/315/315
f 316/316/316 317/317/317 308/308/308
f 317/317/317 312/312/312 308/308/308
f 317/317/317 316/316/316 315/315/315
f 318/318/318 236/236/236 312/312/312
f 317/317/317 318/318/318 312/312/312
f 314/314/314 305/305/305 319/319/319
f 319/319/319 305/305/305 288/288/288
f 283/283/283 319/319/319 288/288/288
f 320/320/320 314/314/314 319/319/319
f 315/315/315 314/314/314 320/320/320
f 283/283/283 321/321/321 319/319/319
f 321/321/321 320/320/320 319/319/319
f 280/280/280 321/321/321 283/283/283
f 322/322/322 320/320/320 321/321/321
f 322/322/322 315/315/315 320/320/320
f 321/321/321 280/280/280 323/323/323
f 323/323/323 322/322/322 321/321/321
f 280/280/280 278/278/278 323/323/323
f 324/324/324 317/317/317 315/315/315
f 318/318/318 317/317/317 324/324/324
f 315/315/315 322/322/322 325/325/325
f 324/324/324 315/315/315 325/325/325
f 322/322/322 323/323/323 326/326/326
f 325/325/325 322/322/322 326/326/326
f 278/278/278 327/327/327 323/323/323
f 327/327/327 326/326/326 323/323/323
f 269/269/269 327/327/327 278/278/278
f 324/324/324 325/325/325 328/328/328
f 325/325/325 326/326/326 328/328/328
f 329/329/329 318/318/318 324/324/324
f 329/329/329 324/324/324 328/328/328
f 326/326/326 327/327/327 330/330/330
f 326/326/326 330/330/330 328/328/328
f 327/327/327 269/269/269 331/331/331
f 327/327/327 331/331/331 330/330/330
f 269/269/269 254/254/254 331/331/331
f 331/331/331 254/254/254 255/255/255
f 332/332/332 331/331/331 255/255/255
f 330/330/330 331/331/331 332/332/332
f 328/328/328 330/330/330 333/333/333
f 329/329/329 328/328/328 333/333/333
f 318/318/318 329/329/329 334/334/334
f 236/236/236 318/318/318 334/334/334
f 235/235/235 236/236/236 334/334/334
f 334/334/334 234/234/234 235/235/235
f 329/329/329 335/335/335 334/334/334
f 234/234/234 334/334/334 335/335/335
f 335/335/335 329/329/329 333/333/333
f 336/336/336 332/332/332 255/255/255
f 333/333/333 336/336/336 335/335/335
f 245/245/245 336/336/336 255/255/255
f 337/337/337 330/330/330 332/332/332
f 330/330/330 337/337/337 333/333/333
f 336/336/336 333/333/333 337/337/337
f 332/332/332 336/336/336 337/337/337
f 338/338/338 234/234/234 335/335/335
f 336/336/336 338/338/338 335/335/335
f 336/336/336 245/245/245 338/338/338
f 234/234/234 338/338/338 240/240/240
f 245/245/245 240/240/240 338/338/338

