mtllib material.mtl
usemtl material_0
v -0.02001788 0.00761388 -0.08378436
v -0.02001788 0.00778595 -0.08378436
v -0.02001161 0.00778595 -0.07601031
v -0.02001161 0.00761388 -0.07601031
v -0.02001161 0.00761388 -0.07601031
v -0.01071331 0.00761388 -0.07601781
v -0.01071957 0.00761388 -0.08379185
v -0.02001788 0.00761388 -0.08378436
v -0.02001161 0.00761388 -0.07601031
v -0.02001161 0.00778595 -0.07601031
v -0.01071331 0.00778595 -0.07601781
v -0.01071331 0.00761388 -0.07601781
v -0.01071957 0.00761388 -0.08379185
v -0.01071957 0.00778595 -0.08379185
v -0.02001788 0.00778595 -0.08378436
v -0.02001788 0.00761388 -0.08378436
v -0.01071331 0.00761388 -0.07601781
v -0.01071331 0.00778595 -0.07601781
v -0.01071957 0.00778595 -0.08379185
v -0.01071957 0.00761388 -0.08379185
v -0.01889422 0.00890424 -0.07712951
v -0.02001161 0.00778595 -0.07601031
v -0.02001788 0.00778595 -0.08378436
v -0.01889869 0.00890424 -0.08266697
v -0.01889869 0.00890424 -0.08266697
v -0.02001788 0.00778595 -0.08378436
v -0.01071957 0.00778595 -0.08379185
v -0.01183697 0.00890424 -0.08267266
v -0.01183697 0.00890424 -0.08267266
v -0.01071957 0.00778595 -0.08379185
v -0.01071331 0.00778595 -0.07601781
v -0.01183250 0.00890424 -0.07713521
v -0.01183250 0.00890424 -0.07713521
v -0.01071331 0.00778595 -0.07601781
v -0.02001161 0.00778595 -0.07601031
v -0.01889422 0.00890424 -0.07712951
v -0.01889422 0.00890424 -0.07712951
v -0.01277326 0.00904424 -0.07807444
v -0.01183250 0.00890424 -0.07713521
v -0.01795498 0.00904424 -0.07807027
v -0.01795793 0.00904424 -0.08172772
v -0.01889869 0.00890424 -0.08266697
v -0.01889422 0.00890424 -0.07712951
v -0.01277621 0.00904424 -0.08173191
v -0.01183250 0.00890424 -0.07713521
v -0.01183697 0.00890424 -0.08267266
v -0.01183697 0.00890424 -0.08267266
v -0.01889869 0.00890424 -0.08266697
vn -0.99999980 0.00000000 0.00080649
vn -0.99999980 0.00000000 0.00080649
vn -0.99999980 0.00000000 0.00080649
vn -0.99999980 0.00000000 0.00080649
vn 0.00000000 -1.00000000 -0.00000018
vn 0.00000000 -1.00000000 -0.00000018
vn 0.00000000 -1.00000000 -0.00000018
vn 0.00000000 -1.00000000 -0.00000018
vn 0.00080689 0.00000000 0.99999980
vn 0.00080689 0.00000000 0.99999980
vn 0.00080689 0.00000000 0.99999980
vn 0.00080689 0.00000000 0.99999980
vn -0.00080609 0.00000000 -0.99999980
vn -0.00080609 0.00000000 -0.99999980
vn -0.00080609 0.00000000 -0.99999980
vn -0.00080609 0.00000000 -0.99999980
vn 0.99999980 0.00000000 -0.00080625
vn 0.99999980 0.00000000 -0.00080625
vn 0.99999980 0.00000000 -0.00080625
vn 0.99999980 0.00000000 -0.00080625
vn -0.44987340 0.89309220 0.00036288
vn -0.70710630 0.70710690 0.00057025
vn -0.70710630 0.70710690 0.00057025
vn -0.44987340 0.89309220 0.00036288
vn -0.00036263 0.89309240 -0.44987310
vn -0.00056998 0.70710760 -0.70710570
vn -0.00056998 0.70710760 -0.70710570
vn -0.00036263 0.89309240 -0.44987310
vn 0.44987300 0.89309240 -0.00036265
vn 0.70710590 0.70710740 -0.00057013
vn 0.70710590 0.70710740 -0.00057013
vn 0.44987300 0.89309240 -0.00036265
vn 0.00036263 0.89309230 0.44987320
vn 0.00056998 0.70710740 0.70710590
vn 0.00056998 0.70710740 0.70710590
vn 0.00036263 0.89309230 0.44987320
vn -0.05196096 0.95162550 0.30283490
vn 0.04938271 0.99756230 0.04930346
vn 0.05244896 0.95162550 0.30275070
vn -0.04930330 0.99756230 0.04938303
vn -0.04938285 0.99756230 -0.04930318
vn -0.30283500 0.95162550 -0.05196084
vn -0.30275080 0.95162550 0.05244931
vn 0.04930316 0.99756230 -0.04938276
vn 0.30283470 0.95162560 0.05196099
vn 0.30275050 0.95162560 -0.05244916
vn 0.05196081 0.95162560 -0.30283470
vn -0.05244911 0.95162560 -0.30275050
vt 2.43615200 1.37585900
vt 2.43615200 1.50208300
vt 2.56237700 1.50208200
vt 2.56237700 1.37585800
vt 2.43623700 0.13884800
vt 2.56237700 0.13872630
vt 2.56229300 0.01262255
vt 2.43615200 0.01274413
vt 2.43615200 0.76997550
vt 2.43615200 0.89620100
vt 2.56237700 0.89620100
vt 2.56237700 0.76997550
vt 2.43615200 0.61850490
vt 2.43615200 0.74473040
vt 2.56237700 0.74473040
vt 2.56237700 0.61850490
vt 2.43615200 1.67879900
vt 2.43615200 1.80502400
vt 2.56237700 1.80502400
vt 2.56237700 1.67880000
vt 2.54713400 0.27216390
vt 2.56229300 0.29031860
vt 2.56237700 0.16421470
vt 2.54719400 0.18234010
vt 2.54719400 0.18234010
vt 2.56237700 0.16421470
vt 2.43623700 0.16409320
vt 2.45139600 0.18224780
vt 2.45139600 0.18224780
vt 2.43623700 0.16409320
vt 2.43615200 0.29019690
vt 2.45133500 0.27207150
vt 2.45133500 0.27207150
vt 2.43615200 0.29019690
vt 2.56229300 0.29031860
vt 2.54713400 0.27216390
vt 2.54713400 0.27216390
vt 2.46519400 0.25823570
vt 2.45133500 0.27207150
vt 2.53329400 0.25830130
vt 2.53333600 0.19617590
vt 2.54719400 0.18234010
vt 2.54713400 0.27216390
vt 2.46523500 0.19611030
vt 2.45133500 0.27207150
vt 2.45139600 0.18224780
vt 2.45139600 0.18224780
vt 2.54719400 0.18234010
f 3/3/3 2/2/2 1/1/1
f 4/4/4 3/3/3 1/1/1
f 7/7/7 6/6/6 5/5/5
f 8/8/8 7/7/7 5/5/5
f 11/11/11 10/10/10 9/9/9
f 12/12/12 11/11/11 9/9/9
f 15/15/15 14/14/14 13/13/13
f 16/16/16 15/15/15 13/13/13
f 19/19/19 18/18/18 17/17/17
f 20/20/20 19/19/19 17/17/17
f 23/23/23 22/22/22 21/21/21
f 24/24/24 23/23/23 21/21/21
f 27/27/27 26/26/26 25/25/25
f 28/28/28 27/27/27 25/25/25
f 31/31/31 30/30/30 29/29/29
f 32/32/32 31/31/31 29/29/29
f 35/35/35 34/34/34 33/33/33
f 36/36/36 35/35/35 33/33/33
f 39/39/39 38/38/38 37/37/37
f 38/38/38 40/40/40 37/37/37
f 41/41/41 40/40/40 38/38/38
f 40/40/40 41/41/41 42/42/42
f 43/43/43 40/40/40 42/42/42
f 44/44/44 41/41/41 38/38/38
f 44/44/44 38/38/38 45/45/45
f 46/46/46 44/44/44 45/45/45
f 41/41/41 44/44/44 47/47/47
f 48/48/48 41/41/41 47/47/47

