mtllib material.mtl
usemtl material_0
v 0.00789593 0.00733462 -0.05757863
v 0.02121894 0.00733462 -0.05758937
v 0.02120996 0.00733462 -0.06872837
v 0.00788694 0.00733462 -0.06871763
v 0.00789593 0.00733462 -0.05757863
v 0.00789593 0.00806521 -0.05757863
v 0.02121894 0.00806521 -0.05758937
v 0.02121894 0.00733462 -0.05758937
v 0.02120996 0.00733462 -0.06872837
v 0.02120996 0.00806521 -0.06872837
v 0.00788694 0.00806521 -0.06871763
v 0.00788694 0.00733462 -0.06871763
v 0.02121894 0.00733462 -0.05758937
v 0.02121894 0.00806521 -0.05758937
v 0.02120996 0.00806521 -0.06872837
v 0.02120996 0.00733462 -0.06872837
v -0.02156847 0.00733462 -0.06859377
v -0.02156847 0.00806521 -0.06859377
v -0.02155949 0.00806521 -0.05745476
v -0.02155949 0.00733462 -0.05745476
v -0.02155949 0.00733462 -0.05745476
v -0.00823647 0.00733462 -0.05746551
v -0.00824545 0.00733462 -0.06860451
v -0.02156847 0.00733462 -0.06859377
v -0.02155949 0.00733462 -0.05745476
v -0.02155949 0.00806521 -0.05745476
v -0.00823647 0.00806521 -0.05746551
v -0.00823647 0.00733462 -0.05746551
v -0.00824545 0.00733462 -0.06860451
v -0.00824545 0.00806521 -0.06860451
v -0.02156847 0.00806521 -0.06859377
v -0.02156847 0.00733462 -0.06859377
v -0.00823647 0.00733462 -0.05746551
v -0.00823647 0.00806521 -0.05746551
v -0.00824545 0.00806521 -0.06860451
v -0.00824545 0.00733462 -0.06860451
v 0.00766231 0.00733462 -0.05552117
v 0.00766231 0.00806521 -0.05552117
v 0.00767130 0.00806521 -0.04438217
v 0.00767130 0.00733462 -0.04438217
v 0.00767130 0.00733462 -0.04438217
v 0.02099431 0.00733462 -0.04439291
v 0.02098533 0.00733462 -0.05553190
v 0.00766231 0.00733462 -0.05552117
v 0.00767130 0.00733462 -0.04438217
v 0.00767130 0.00806521 -0.04438217
v 0.02099431 0.00806521 -0.04439291
v 0.02099431 0.00733462 -0.04439291
v 0.02098533 0.00733462 -0.05553190
v 0.02098533 0.00806521 -0.05553190
v 0.00766231 0.00806521 -0.05552117
v 0.00766231 0.00733462 -0.05552117
v 0.02099431 0.00733462 -0.04439291
v 0.02099431 0.00806521 -0.04439291
v 0.02098533 0.00806521 -0.05553190
v 0.02098533 0.00733462 -0.05553190
v -0.00706539 0.00733462 -0.05545923
v -0.00706539 0.00806521 -0.05545923
v -0.00705641 0.00806521 -0.04432023
v -0.00705641 0.00733462 -0.04432023
v -0.00705641 0.00733462 -0.04432023
v 0.00626661 0.00733462 -0.04433098
v 0.00625762 0.00733462 -0.05546998
v -0.00706539 0.00733462 -0.05545923
v -0.00705641 0.00733462 -0.04432023
v -0.00705641 0.00806521 -0.04432023
v 0.00626661 0.00806521 -0.04433098
v 0.00626661 0.00733462 -0.04433098
v 0.00625762 0.00733462 -0.05546998
v 0.00625762 0.00806521 -0.05546998
v -0.00706539 0.00806521 -0.05545923
v -0.00706539 0.00733462 -0.05545923
v 0.00626661 0.00733462 -0.04433098
v 0.00626661 0.00806521 -0.04433098
v 0.00625762 0.00806521 -0.05546998
v 0.00625762 0.00733462 -0.05546998
v -0.02179310 0.00733462 -0.05539730
v -0.02179310 0.00806521 -0.05539730
v -0.02178412 0.00806521 -0.04425830
v -0.02178412 0.00733462 -0.04425830
v -0.02178412 0.00733462 -0.04425830
v -0.00846110 0.00733462 -0.04426904
v -0.00847008 0.00733462 -0.05540804
v -0.02179310 0.00733462 -0.05539730
v -0.02178412 0.00733462 -0.04425830
v -0.02178412 0.00806521 -0.04425830
v -0.00846110 0.00806521 -0.04426904
v -0.00846110 0.00733462 -0.04426904
v -0.00847008 0.00733462 -0.05540804
v -0.00847008 0.00806521 -0.05540804
v -0.02179310 0.00806521 -0.05539730
v -0.02179310 0.00733462 -0.05539730
v -0.00846110 0.00733462 -0.04426904
v -0.00846110 0.00806521 -0.04426904
v -0.00847008 0.00806521 -0.05540804
v -0.00847008 0.00733462 -0.05540804
v 0.00743769 0.00733462 -0.04232470
v 0.00743769 0.00806521 -0.04232470
v 0.00744667 0.00806520 -0.03118570
v 0.00744667 0.00733461 -0.03118570
v 0.00744667 0.00733461 -0.03118570
v 0.02076969 0.00733461 -0.03119645
v 0.02076070 0.00733462 -0.04233544
v 0.00743769 0.00733462 -0.04232470
v 0.00744667 0.00733461 -0.03118570
v 0.00744667 0.00806520 -0.03118570
v 0.02076969 0.00806520 -0.03119645
v 0.02076969 0.00733461 -0.03119645
v 0.02076070 0.00733462 -0.04233544
v 0.02076070 0.00806521 -0.04233544
v 0.00743769 0.00806521 -0.04232470
v 0.00743769 0.00733462 -0.04232470
v 0.02076969 0.00733461 -0.03119645
v 0.02076969 0.00806520 -0.03119645
v 0.02076070 0.00806521 -0.04233544
v 0.02076070 0.00733462 -0.04233544
v -0.00729002 0.00733462 -0.04226277
v -0.00729002 0.00806521 -0.04226277
v -0.00728104 0.00806520 -0.03112377
v -0.00728104 0.00733461 -0.03112377
v -0.00728104 0.00733461 -0.03112377
v 0.00604198 0.00733461 -0.03113451
v 0.00603300 0.00733462 -0.04227351
v -0.00729002 0.00733462 -0.04226277
v -0.00728104 0.00733461 -0.03112377
v -0.00728104 0.00806520 -0.03112377
v 0.00604198 0.00806520 -0.03113451
v 0.00604198 0.00733461 -0.03113451
v 0.00603300 0.00733462 -0.04227351
v 0.00603300 0.00806521 -0.04227351
v -0.00729002 0.00806521 -0.04226277
v -0.00729002 0.00733462 -0.04226277
v 0.00604198 0.00733461 -0.03113451
v 0.00604198 0.00806520 -0.03113451
v 0.00603300 0.00806521 -0.04227351
v 0.00603300 0.00733462 -0.04227351
v -0.02201773 0.00733462 -0.04220084
v -0.02201773 0.00806521 -0.04220084
v -0.02200875 0.00806520 -0.03106184
v -0.02200875 0.00733461 -0.03106184
v -0.02200875 0.00733461 -0.03106184
v -0.00868573 0.00733461 -0.03107258
v -0.00869471 0.00733462 -0.04221158
v -0.02201773 0.00733462 -0.04220084
v -0.02200875 0.00733461 -0.03106184
v -0.02200875 0.00806520 -0.03106184
v -0.00868573 0.00806520 -0.03107258
v -0.00868573 0.00733461 -0.03107258
v -0.00869471 0.00733462 -0.04221158
v -0.00869471 0.00806521 -0.04221158
v -0.02201773 0.00806521 -0.04220084
v -0.02201773 0.00733462 -0.04220084
v -0.00868573 0.00733461 -0.03107258
v -0.00868573 0.00806520 -0.03107258
v -0.00869471 0.00806521 -0.04221158
v -0.00869471 0.00733462 -0.04221158
v 0.00751930 0.00733461 -0.02918555
v 0.00751930 0.00806520 -0.02918555
v 0.00752829 0.00806520 -0.01804655
v 0.00752829 0.00733461 -0.01804655
v 0.00752829 0.00733461 -0.01804655
v 0.02085130 0.00733461 -0.01805729
v 0.02084232 0.00733461 -0.02919629
v 0.00751930 0.00733461 -0.02918555
v 0.00752829 0.00733461 -0.01804655
v 0.00752829 0.00806520 -0.01804655
v 0.02085130 0.00806520 -0.01805729
v 0.02085130 0.00733461 -0.01805729
v 0.02084232 0.00733461 -0.02919629
v 0.02084232 0.00806520 -0.02919629
v 0.00751930 0.00806520 -0.02918555
v 0.00751930 0.00733461 -0.02918555
v 0.02085130 0.00733461 -0.01805729
v 0.02085130 0.00806520 -0.01805729
v 0.02084232 0.00806520 -0.02919629
v 0.02084232 0.00733461 -0.02919629
v -0.00720841 0.00733461 -0.02912362
v -0.00720841 0.00806520 -0.02912362
v -0.00719942 0.00806520 -0.01798462
v -0.00719942 0.00733461 -0.01798462
v -0.00719942 0.00733461 -0.01798462
v 0.00612359 0.00733461 -0.01799536
v 0.00611461 0.00733461 -0.02913436
v -0.00720841 0.00733461 -0.02912362
v -0.00719942 0.00733461 -0.01798462
v -0.00719942 0.00806520 -0.01798462
v 0.00612359 0.00806520 -0.01799536
v 0.00612359 0.00733461 -0.01799536
v 0.00611461 0.00733461 -0.02913436
v 0.00611461 0.00806520 -0.02913436
v -0.00720841 0.00806520 -0.02912362
v -0.00720841 0.00733461 -0.02912362
v 0.00612359 0.00733461 -0.01799536
v 0.00612359 0.00806520 -0.01799536
v 0.00611461 0.00806520 -0.02913436
v 0.00611461 0.00733461 -0.02913436
v -0.02193611 0.00733461 -0.02906169
v -0.02193611 0.00806520 -0.02906169
v -0.02192713 0.00806520 -0.01792269
v -0.02192713 0.00733461 -0.01792269
v -0.02192713 0.00733461 -0.01792269
v -0.00860411 0.00733461 -0.01793343
v -0.00861310 0.00733461 -0.02907243
v -0.02193611 0.00733461 -0.02906169
v -0.02192713 0.00733461 -0.01792269
v -0.02192713 0.00806520 -0.01792269
v -0.00860411 0.00806520 -0.01793343
v -0.00860411 0.00733461 -0.01793343
v -0.00861310 0.00733461 -0.02907243
v -0.00861310 0.00806520 -0.02907243
v -0.02193611 0.00806520 -0.02906169
v -0.02193611 0.00733461 -0.02906169
v -0.00860411 0.00733461 -0.01793343
v -0.00860411 0.00806520 -0.01793343
v -0.00861310 0.00806520 -0.02907243
v -0.00861310 0.00733461 -0.02907243
v 0.00901332 0.00918350 -0.05869783
v 0.00789593 0.00806521 -0.05757863
v 0.00788694 0.00806521 -0.06871763
v 0.00900614 0.00918350 -0.06760024
v 0.00900614 0.00918350 -0.06760024
v 0.00788694 0.00806521 -0.06871763
v 0.02120996 0.00806521 -0.06872837
v 0.02009257 0.00918350 -0.06760918
v 0.02009257 0.00918350 -0.06760918
v 0.02120996 0.00806521 -0.06872837
v 0.02121894 0.00806521 -0.05758937
v 0.02009975 0.00918350 -0.05870677
v 0.02009975 0.00918350 -0.05870677
v 0.02121894 0.00806521 -0.05758937
v 0.00789593 0.00806521 -0.05757863
v 0.00901332 0.00918350 -0.05869783
v -0.02044210 0.00918350 -0.05857397
v -0.02155949 0.00806521 -0.05745476
v -0.02156847 0.00806521 -0.06859377
v -0.02044928 0.00918350 -0.06747638
v -0.02044928 0.00918350 -0.06747638
v -0.02156847 0.00806521 -0.06859377
v -0.00824545 0.00806521 -0.06860451
v -0.00936284 0.00918350 -0.06748532
v -0.00936284 0.00918350 -0.06748532
v -0.00824545 0.00806521 -0.06860451
v -0.00823647 0.00806521 -0.05746551
v -0.00935567 0.00918350 -0.05858291
v -0.00935567 0.00918350 -0.05858291
v -0.00823647 0.00806521 -0.05746551
v -0.02155949 0.00806521 -0.05745476
v -0.02044210 0.00918350 -0.05857397
v 0.00878869 0.00918350 -0.04550136
v 0.00767130 0.00806521 -0.04438217
v 0.00766231 0.00806521 -0.05552117
v 0.00878151 0.00918350 -0.05440377
v 0.00878151 0.00918350 -0.05440377
v 0.00766231 0.00806521 -0.05552117
v 0.02098533 0.00806521 -0.05553190
v 0.01986794 0.00918350 -0.05441271
v 0.01986794 0.00918350 -0.05441271
v 0.02098533 0.00806521 -0.05553190
v 0.02099431 0.00806521 -0.04439291
v 0.01987512 0.00918350 -0.04551030
v 0.01987512 0.00918350 -0.04551030
v 0.02099431 0.00806521 -0.04439291
v 0.00767130 0.00806521 -0.04438217
v 0.00878869 0.00918350 -0.04550136
v -0.00593902 0.00918350 -0.04543943
v -0.00705641 0.00806521 -0.04432023
v -0.00706539 0.00806521 -0.05545923
v -0.00594620 0.00918350 -0.05434183
v -0.00594620 0.00918350 -0.05434183
v -0.00706539 0.00806521 -0.05545923
v 0.00625762 0.00806521 -0.05546998
v 0.00514023 0.00918350 -0.05435077
v 0.00514023 0.00918350 -0.05435077
v 0.00625762 0.00806521 -0.05546998
v 0.00626661 0.00806521 -0.04433098
v 0.00514741 0.00918350 -0.04544837
v 0.00514741 0.00918350 -0.04544837
v 0.00626661 0.00806521 -0.04433098
v -0.00705641 0.00806521 -0.04432023
v -0.00593902 0.00918350 -0.04543943
v -0.02066673 0.00918350 -0.04537750
v -0.02178412 0.00806521 -0.04425830
v -0.02179310 0.00806521 -0.05539730
v -0.02067391 0.00918350 -0.05427991
v -0.02067391 0.00918350 -0.05427991
v -0.02179310 0.00806521 -0.05539730
v -0.00847008 0.00806521 -0.05540804
v -0.00958747 0.00918350 -0.05428885
v -0.00958747 0.00918350 -0.05428885
v -0.00847008 0.00806521 -0.05540804
v -0.00846110 0.00806521 -0.04426904
v -0.00958030 0.00918350 -0.04538644
v -0.00958030 0.00918350 -0.04538644
v -0.00846110 0.00806521 -0.04426904
v -0.02178412 0.00806521 -0.04425830
v -0.02066673 0.00918350 -0.04537750
v 0.00856406 0.00918350 -0.03230490
v 0.00744667 0.00806520 -0.03118570
v 0.00743769 0.00806521 -0.04232470
v 0.00855688 0.00918350 -0.04120730
v 0.00855688 0.00918350 -0.04120730
v 0.00743769 0.00806521 -0.04232470
v 0.02076070 0.00806521 -0.04233544
v 0.01964331 0.00918350 -0.04121624
v 0.01964331 0.00918350 -0.04121624
v 0.02076070 0.00806521 -0.04233544
v 0.02076969 0.00806520 -0.03119645
v 0.01965049 0.00918350 -0.03231384
v 0.01965049 0.00918350 -0.03231384
v 0.02076969 0.00806520 -0.03119645
v 0.00744667 0.00806520 -0.03118570
v 0.00856406 0.00918350 -0.03230490
v -0.00616365 0.00918350 -0.03224297
v -0.00728104 0.00806520 -0.03112377
v -0.00729002 0.00806521 -0.04226277
v -0.00617083 0.00918350 -0.04114538
v -0.00617083 0.00918350 -0.04114538
v -0.00729002 0.00806521 -0.04226277
v 0.00603300 0.00806521 -0.04227351
v 0.00491560 0.00918350 -0.04115432
v 0.00491560 0.00918350 -0.04115432
v 0.00603300 0.00806521 -0.04227351
v 0.00604198 0.00806520 -0.03113451
v 0.00492278 0.00918350 -0.03225191
v 0.00492278 0.00918350 -0.03225191
v 0.00604198 0.00806520 -0.03113451
v -0.00728104 0.00806520 -0.03112377
v -0.00616365 0.00918350 -0.03224297
v -0.02089136 0.00918350 -0.03218104
v -0.02200875 0.00806520 -0.03106184
v -0.02201773 0.00806521 -0.04220084
v -0.02089853 0.00918350 -0.04108344
v -0.02089853 0.00918350 -0.04108344
v -0.02201773 0.00806521 -0.04220084
v -0.00869471 0.00806521 -0.04221158
v -0.00981210 0.00918350 -0.04109238
v -0.00981210 0.00918350 -0.04109238
v -0.00869471 0.00806521 -0.04221158
v -0.00868573 0.00806520 -0.03107258
v -0.00980493 0.00918350 -0.03218998
v -0.00980493 0.00918350 -0.03218998
v -0.00868573 0.00806520 -0.03107258
v -0.02200875 0.00806520 -0.03106184
v -0.02089136 0.00918350 -0.03218104
v 0.00864568 0.00918349 -0.01916575
v 0.00752829 0.00806520 -0.01804655
v 0.00751930 0.00806520 -0.02918555
v 0.00863850 0.00918350 -0.02806816
v 0.00863850 0.00918350 -0.02806816
v 0.00751930 0.00806520 -0.02918555
v 0.02084232 0.00806520 -0.02919629
v 0.01972493 0.00918350 -0.02807710
v 0.01972493 0.00918350 -0.02807710
v 0.02084232 0.00806520 -0.02919629
v 0.02085130 0.00806520 -0.01805729
v 0.01973211 0.00918349 -0.01917468
v 0.01973211 0.00918349 -0.01917468
v 0.02085130 0.00806520 -0.01805729
v 0.00752829 0.00806520 -0.01804655
v 0.00864568 0.00918349 -0.01916575
v -0.00608203 0.00918349 -0.01910381
v -0.00719942 0.00806520 -0.01798462
v -0.00720841 0.00806520 -0.02912362
v -0.00608921 0.00918350 -0.02800622
v -0.00608921 0.00918350 -0.02800622
v -0.00720841 0.00806520 -0.02912362
v 0.00611461 0.00806520 -0.02913436
v 0.00499722 0.00918350 -0.02801516
v 0.00499722 0.00918350 -0.02801516
v 0.00611461 0.00806520 -0.02913436
v 0.00612359 0.00806520 -0.01799536
v 0.00500440 0.00918349 -0.01911275
v 0.00500440 0.00918349 -0.01911275
v 0.00612359 0.00806520 -0.01799536
v -0.00719942 0.00806520 -0.01798462
v -0.00608203 0.00918349 -0.01910381
v -0.02080974 0.00918349 -0.01904188
v -0.02192713 0.00806520 -0.01792269
v -0.02193611 0.00806520 -0.02906169
v -0.02081692 0.00918350 -0.02794429
v -0.02081692 0.00918350 -0.02794429
v -0.02193611 0.00806520 -0.02906169
v -0.00861310 0.00806520 -0.02907243
v -0.00973049 0.00918350 -0.02795323
v -0.00973049 0.00918350 -0.02795323
v -0.00861310 0.00806520 -0.02907243
v -0.00860411 0.00806520 -0.01793343
v -0.00972331 0.00918349 -0.01905082
v -0.00972331 0.00918349 -0.01905082
v -0.00860411 0.00806520 -0.01793343
v -0.02192713 0.00806520 -0.01792269
v -0.02080974 0.00918349 -0.01904188
v 0.00788694 0.00733462 -0.06871763
v 0.00788694 0.00806521 -0.06871763
v 0.00789593 0.00806521 -0.05757863
v 0.00789593 0.00733462 -0.05757863
v 0.00901332 0.00918350 -0.05869783
v 0.01915899 0.00932350 -0.05964601
v 0.02009975 0.00918350 -0.05870677
v 0.00995256 0.00932350 -0.05963859
v 0.00994690 0.00932350 -0.06666099
v 0.00900614 0.00918350 -0.06760024
v 0.00901332 0.00918350 -0.05869783
v 0.01915333 0.00932350 -0.06666842
v 0.02009975 0.00918350 -0.05870677
v 0.02009257 0.00918350 -0.06760918
v 0.02009257 0.00918350 -0.06760918
v 0.00900614 0.00918350 -0.06760024
v -0.02044210 0.00918350 -0.05857397
v -0.01029642 0.00932350 -0.05952215
v -0.00935567 0.00918350 -0.05858291
v -0.01950286 0.00932350 -0.05951473
v -0.01030209 0.00932350 -0.06654456
v -0.00935567 0.00918350 -0.05858291
v -0.00936284 0.00918350 -0.06748532
v -0.01950852 0.00932350 -0.06653713
v -0.00936284 0.00918350 -0.06748532
v -0.02044928 0.00918350 -0.06747638
v -0.02044928 0.00918350 -0.06747638
v -0.02044210 0.00918350 -0.05857397
v 0.00878869 0.00918350 -0.04550136
v 0.01893436 0.00932350 -0.04644955
v 0.01987512 0.00918350 -0.04551030
v 0.00972793 0.00932350 -0.04644212
v 0.00972227 0.00932350 -0.05346453
v 0.00878151 0.00918350 -0.05440377
v 0.00878869 0.00918350 -0.04550136
v 0.01892870 0.00932350 -0.05347195
v 0.01987512 0.00918350 -0.04551030
v 0.01986794 0.00918350 -0.05441271
v 0.01986794 0.00918350 -0.05441271
v 0.00878151 0.00918350 -0.05440377
v -0.00593902 0.00918350 -0.04543943
v 0.00420665 0.00932350 -0.04638761
v 0.00514741 0.00918350 -0.04544837
v -0.00499978 0.00932350 -0.04638019
v 0.00420099 0.00932350 -0.05341002
v 0.00514741 0.00918350 -0.04544837
v 0.00514023 0.00918350 -0.05435077
v -0.00500544 0.00932350 -0.05340260
v 0.00514023 0.00918350 -0.05435077
v -0.00594620 0.00918350 -0.05434183
v -0.00594620 0.00918350 -0.05434183
v -0.00593902 0.00918350 -0.04543943
v -0.02066673 0.00918350 -0.04537750
v -0.01052106 0.00932350 -0.04632568
v -0.00958030 0.00918350 -0.04538644
v -0.01972749 0.00932350 -0.04631826
v -0.01973315 0.00932350 -0.05334066
v -0.02067391 0.00918350 -0.05427991
v -0.02066673 0.00918350 -0.04537750
v -0.01052672 0.00932350 -0.05334809
v -0.00958030 0.00918350 -0.04538644
v -0.00958747 0.00918350 -0.05428885
v -0.00958747 0.00918350 -0.05428885
v -0.02067391 0.00918350 -0.05427991
v 0.00856406 0.00918350 -0.03230490
v 0.01870973 0.00932350 -0.03325308
v 0.01965049 0.00918350 -0.03231384
v 0.00950330 0.00932350 -0.03324566
v 0.01870407 0.00932350 -0.04027549
v 0.01965049 0.00918350 -0.03231384
v 0.01964331 0.00918350 -0.04121624
v 0.00949764 0.00932350 -0.04026806
v 0.01964331 0.00918350 -0.04121624
v 0.00855688 0.00918350 -0.04120730
v 0.00855688 0.00918350 -0.04120730
v 0.00856406 0.00918350 -0.03230490
v -0.00616365 0.00918350 -0.03224297
v 0.00398202 0.00932350 -0.03319115
v 0.00492278 0.00918350 -0.03225191
v -0.00522441 0.00932350 -0.03318373
v 0.00397636 0.00932350 -0.04021356
v 0.00492278 0.00918350 -0.03225191
v 0.00491560 0.00918350 -0.04115432
v -0.00523007 0.00932350 -0.04020613
v 0.00491560 0.00918350 -0.04115432
v -0.00617083 0.00918350 -0.04114538
v -0.00617083 0.00918350 -0.04114538
v -0.00616365 0.00918350 -0.03224297
v -0.02089136 0.00918350 -0.03218104
v -0.01074568 0.00932350 -0.03312922
v -0.00980493 0.00918350 -0.03218998
v -0.01995211 0.00932350 -0.03312179
v -0.01995778 0.00932350 -0.04014421
v -0.02089853 0.00918350 -0.04108344
v -0.02089136 0.00918350 -0.03218104
v -0.01075135 0.00932350 -0.04015163
v -0.00980493 0.00918350 -0.03218998
v -0.00981210 0.00918350 -0.04109238
v -0.00981210 0.00918350 -0.04109238
v -0.02089853 0.00918350 -0.04108344
v 0.00864568 0.00918349 -0.01916575
v 0.01879135 0.00932349 -0.02011393
v 0.01973211 0.00918349 -0.01917468
v 0.00958492 0.00932349 -0.02010650
v 0.01878569 0.00932350 -0.02713634
v 0.01973211 0.00918349 -0.01917468
v 0.01972493 0.00918350 -0.02807710
v 0.00957925 0.00932350 -0.02712891
v 0.01972493 0.00918350 -0.02807710
v 0.00863850 0.00918350 -0.02806816
v 0.00863850 0.00918350 -0.02806816
v 0.00864568 0.00918349 -0.01916575
v -0.00608203 0.00918349 -0.01910381
v 0.00406364 0.00932349 -0.02005199
v 0.00500440 0.00918349 -0.01911275
v -0.00514279 0.00932349 -0.02004457
v 0.00405798 0.00932350 -0.02707441
v 0.00500440 0.00918349 -0.01911275
v 0.00499722 0.00918350 -0.02801516
v -0.00514845 0.00932350 -0.02706698
v 0.00499722 0.00918350 -0.02801516
v -0.00608921 0.00918350 -0.02800622
v -0.00608921 0.00918350 -0.02800622
v -0.00608203 0.00918349 -0.01910381
v -0.02080974 0.00918349 -0.01904188
v -0.01066407 0.00932349 -0.01999006
v -0.00972331 0.00918349 -0.01905082
v -0.01987050 0.00932349 -0.01998264
v -0.01987616 0.00932350 -0.02700505
v -0.02081692 0.00918350 -0.02794429
v -0.02080974 0.00918349 -0.01904188
v -0.01066973 0.00932350 -0.02701248
v -0.00972331 0.00918349 -0.01905082
v -0.00973049 0.00918350 -0.02795323
v -0.00973049 0.00918350 -0.02795323
v -0.02081692 0.00918350 -0.02794429
vn 0.00000000 -1.00000000 -0.00000017
vn 0.00000000 -1.00000000 -0.00000017
vn 0.00000000 -1.00000000 -0.00000017
vn 0.00000000 -1.00000000 -0.00000017
vn 0.00080612 0.00000000 0.99999980
vn 0.00080612 0.00000000 0.99999980
vn 0.00080612 0.00000000 0.99999980
vn 0.00080612 0.00000000 0.99999980
vn -0.00080640 0.00000000 -0.99999980
vn -0.00080640 0.00000000 -0.99999980
vn -0.00080640 0.00000000 -0.99999980
vn -0.00080640 0.00000000 -0.99999980
vn 0.99999980 0.00000000 -0.00080633
vn 0.99999980 0.00000000 -0.00080633
vn 0.99999980 0.00000000 -0.00080633
vn 0.99999980 0.00000000 -0.00080633
vn -0.99999980 0.00000000 0.00080633
vn -0.99999980 0.00000000 0.00080633
vn -0.99999980 0.00000000 0.00080633
vn -0.99999980 0.00000000 0.00080633
vn 0.00000000 -1.00000000 -0.00000017
vn 0.00000000 -1.00000000 -0.00000017
vn 0.00000000 -1.00000000 -0.00000017
vn 0.00000000 -1.00000000 -0.00000017
vn 0.00080640 0.00000000 0.99999980
vn 0.00080640 0.00000000 0.99999980
vn 0.00080640 0.00000000 0.99999980
vn 0.00080640 0.00000000 0.99999980
vn -0.00080640 0.00000000 -0.99999980
vn -0.00080640 0.00000000 -0.99999980
vn -0.00080640 0.00000000 -0.99999980
vn -0.00080640 0.00000000 -0.99999980
vn 0.99999980 0.00000000 -0.00080633
vn 0.99999980 0.00000000 -0.00080633
vn 0.99999980 0.00000000 -0.00080633
vn 0.99999980 0.00000000 -0.00080633
vn -0.99999980 0.00000000 0.00080633
vn -0.99999980 0.00000000 0.00080633
vn -0.99999980 0.00000000 0.00080633
vn -0.99999980 0.00000000 0.00080633
vn 0.00000000 -1.00000000 -0.00000013
vn 0.00000000 -1.00000000 -0.00000013
vn 0.00000000 -1.00000000 -0.00000013
vn 0.00000000 -1.00000000 -0.00000013
vn 0.00080640 0.00000000 0.99999980
vn 0.00080640 0.00000000 0.99999980
vn 0.00080640 0.00000000 0.99999980
vn 0.00080640 0.00000000 0.99999980
vn -0.00080612 0.00000000 -0.99999980
vn -0.00080612 0.00000000 -0.99999980
vn -0.00080612 0.00000000 -0.99999980
vn -0.00080612 0.00000000 -0.99999980
vn 0.99999980 0.00000000 -0.00080633
vn 0.99999980 0.00000000 -0.00080633
vn 0.99999980 0.00000000 -0.00080633
vn 0.99999980 0.00000000 -0.00080633
vn -0.99999980 0.00000000 0.00080633
vn -0.99999980 0.00000000 0.00080633
vn -0.99999980 0.00000000 0.00080633
vn -0.99999980 0.00000000 0.00080633
vn 0.00000000 -1.00000000 -0.00000013
vn 0.00000000 -1.00000000 -0.00000013
vn 0.00000000 -1.00000000 -0.00000013
vn 0.00000000 -1.00000000 -0.00000013
vn 0.00080640 0.00000000 0.99999980
vn 0.00080640 0.00000000 0.99999980
vn 0.00080640 0.00000000 0.99999980
vn 0.00080640 0.00000000 0.99999980
vn -0.00080612 0.00000000 -0.99999980
vn -0.00080612 0.00000000 -0.99999980
vn -0.00080612 0.00000000 -0.99999980
vn -0.00080612 0.00000000 -0.99999980
vn 0.99999980 0.00000000 -0.00080633
vn 0.99999980 0.00000000 -0.00080633
vn 0.99999980 0.00000000 -0.00080633
vn 0.99999980 0.00000000 -0.00080633
vn -0.99999980 0.00000000 0.00080633
vn -0.99999980 0.00000000 0.00080633
vn -0.99999980 0.00000000 0.00080633
vn -0.99999980 0.00000000 0.00080633
vn 0.00000000 -1.00000000 -0.00000017
vn 0.00000000 -1.00000000 -0.00000017
vn 0.00000000 -1.00000000 -0.00000017
vn 0.00000000 -1.00000000 -0.00000017
vn 0.00080640 0.00000000 0.99999980
vn 0.00080640 0.00000000 0.99999980
vn 0.00080640 0.00000000 0.99999980
vn 0.00080640 0.00000000 0.99999980
vn -0.00080640 0.00000000 -0.99999980
vn -0.00080640 0.00000000 -0.99999980
vn -0.00080640 0.00000000 -0.99999980
vn -0.00080640 0.00000000 -0.99999980
vn 0.99999980 0.00000000 -0.00080633
vn 0.99999980 0.00000000 -0.00080633
vn 0.99999980 0.00000000 -0.00080633
vn 0.99999980 0.00000000 -0.00080633
vn -0.99999980 0.00000000 0.00080633
vn -0.99999980 0.00000000 0.00080633
vn -0.99999980 0.00000000 0.00080633
vn -0.99999980 0.00000000 0.00080633
vn 0.00000000 -1.00000000 -0.00000017
vn 0.00000000 -1.00000000 -0.00000017
vn 0.00000000 -1.00000000 -0.00000017
vn 0.00000000 -1.00000000 -0.00000017
vn 0.00080626 0.00000000 0.99999980
vn 0.00080626 0.00000000 0.99999980
vn 0.00080626 0.00000000 0.99999980
vn 0.00080626 0.00000000 0.99999980
vn -0.00080640 0.00000000 -0.99999980
vn -0.00080640 0.00000000 -0.99999980
vn -0.00080640 0.00000000 -0.99999980
vn -0.00080640 0.00000000 -0.99999980
vn 0.99999980 0.00000000 -0.00080633
vn 0.99999980 0.00000000 -0.00080633
vn 0.99999980 0.00000000 -0.00080633
vn 0.99999980 0.00000000 -0.00080633
vn -0.99999980 0.00000000 0.00080633
vn -0.99999980 0.00000000 0.00080633
vn -0.99999980 0.00000000 0.00080633
vn -0.99999980 0.00000000 0.00080633
vn 0.00000000 -1.00000000 -0.00000017
vn 0.00000000 -1.00000000 -0.00000017
vn 0.00000000 -1.00000000 -0.00000017
vn 0.00000000 -1.00000000 -0.00000017
vn 0.00080626 0.00000000 0.99999980
vn 0.00080626 0.00000000 0.99999980
vn 0.00080626 0.00000000 0.99999980
vn 0.00080626 0.00000000 0.99999980
vn -0.00080640 0.00000000 -0.99999980
vn -0.00080640 0.00000000 -0.99999980
vn -0.00080640 0.00000000 -0.99999980
vn -0.00080640 0.00000000 -0.99999980
vn 0.99999980 0.00000000 -0.00080629
vn 0.99999980 0.00000000 -0.00080629
vn 0.99999980 0.00000000 -0.00080629
vn 0.99999980 0.00000000 -0.00080629
vn -0.99999980 0.00000000 0.00080633
vn -0.99999980 0.00000000 0.00080633
vn -0.99999980 0.00000000 0.00080633
vn -0.99999980 0.00000000 0.00080633
vn 0.00000000 -1.00000000 -0.00000017
vn 0.00000000 -1.00000000 -0.00000017
vn 0.00000000 -1.00000000 -0.00000017
vn 0.00000000 -1.00000000 -0.00000017
vn 0.00080640 0.00000000 0.99999980
vn 0.00080640 0.00000000 0.99999980
vn 0.00080640 0.00000000 0.99999980
vn 0.00080640 0.00000000 0.99999980
vn -0.00080640 0.00000000 -0.99999980
vn -0.00080640 0.00000000 -0.99999980
vn -0.00080640 0.00000000 -0.99999980
vn -0.00080640 0.00000000 -0.99999980
vn 0.99999980 0.00000000 -0.00080633
vn 0.99999980 0.00000000 -0.00080633
vn 0.99999980 0.00000000 -0.00080633
vn 0.99999980 0.00000000 -0.00080633
vn -0.99999980 0.00000000 0.00080629
vn -0.99999980 0.00000000 0.00080629
vn -0.99999980 0.00000000 0.00080629
vn -0.99999980 0.00000000 0.00080629
vn 0.00000000 -1.00000000 -0.00000017
vn 0.00000000 -1.00000000 -0.00000017
vn 0.00000000 -1.00000000 -0.00000017
vn 0.00000000 -1.00000000 -0.00000017
vn 0.00080640 0.00000000 0.99999980
vn 0.00080640 0.00000000 0.99999980
vn 0.00080640 0.00000000 0.99999980
vn 0.00080640 0.00000000 0.99999980
vn -0.00080640 0.00000000 -0.99999980
vn -0.00080640 0.00000000 -0.99999980
vn -0.00080640 0.00000000 -0.99999980
vn -0.00080640 0.00000000 -0.99999980
vn 0.99999980 0.00000000 -0.00080633
vn 0.99999980 0.00000000 -0.00080633
vn 0.99999980 0.00000000 -0.00080633
vn 0.99999980 0.00000000 -0.00080633
vn -0.99999980 0.00000000 0.00080633
vn -0.99999980 0.00000000 0.00080633
vn -0.99999980 0.00000000 0.00080633
vn -0.99999980 0.00000000 0.00080633
vn 0.00000000 -1.00000000 -0.00000017
vn 0.00000000 -1.00000000 -0.00000017
vn 0.00000000 -1.00000000 -0.00000017
vn 0.00000000 -1.00000000 -0.00000017
vn 0.00080626 0.00000000 0.99999980
vn 0.00080626 0.00000000 0.99999980
vn 0.00080626 0.00000000 0.99999980
vn 0.00080626 0.00000000 0.99999980
vn -0.00080640 0.00000000 -0.99999980
vn -0.00080640 0.00000000 -0.99999980
vn -0.00080640 0.00000000 -0.99999980
vn -0.00080640 0.00000000 -0.99999980
vn 0.99999980 0.00000000 -0.00080633
vn 0.99999980 0.00000000 -0.00080633
vn 0.99999980 0.00000000 -0.00080633
vn 0.99999980 0.00000000 -0.00080633
vn -0.99999980 0.00000000 0.00080633
vn -0.99999980 0.00000000 0.00080633
vn -0.99999980 0.00000000 0.00080633
vn -0.99999980 0.00000000 0.00080633
vn 0.00000000 -1.00000000 -0.00000017
vn 0.00000000 -1.00000000 -0.00000017
vn 0.00000000 -1.00000000 -0.00000017
vn 0.00000000 -1.00000000 -0.00000017
vn 0.00080626 0.00000000 0.99999980
vn 0.00080626 0.00000000 0.99999980
vn 0.00080626 0.00000000 0.99999980
vn 0.00080626 0.00000000 0.99999980
vn -0.00080626 0.00000000 -0.99999980
vn -0.00080626 0.00000000 -0.99999980
vn -0.00080626 0.00000000 -0.99999980
vn -0.00080626 0.00000000 -0.99999980
vn 0.99999980 0.00000000 -0.00080633
vn 0.99999980 0.00000000 -0.00080633
vn 0.99999980 0.00000000 -0.00080633
vn 0.99999980 0.00000000 -0.00080633
vn -0.44987340 0.89309230 0.00036290
vn -0.70710630 0.70710690 0.00057026
vn -0.70710630 0.70710690 0.00057026
vn -0.44987340 0.89309230 0.00036290
vn -0.00036280 0.89309230 -0.44987310
vn -0.00057025 0.70710750 -0.70710580
vn -0.00057025 0.70710750 -0.70710580
vn -0.00036280 0.89309230 -0.44987310
vn 0.44987340 0.89309230 -0.00036258
vn 0.70710650 0.70710680 -0.00057004
vn 0.70710650 0.70710680 -0.00057004
vn 0.44987340 0.89309230 -0.00036258
vn 0.00036265 0.89309290 0.44987220
vn 0.00057001 0.70710870 0.70710460
vn 0.00057001 0.70710870 0.70710460
vn 0.00036265 0.89309290 0.44987220
vn -0.44987340 0.89309220 0.00036295
vn -0.70710630 0.70710690 0.00057034
vn -0.70710630 0.70710690 0.00057034
vn -0.44987340 0.89309220 0.00036295
vn -0.00036280 0.89309230 -0.44987310
vn -0.00057025 0.70710750 -0.70710580
vn -0.00057025 0.70710750 -0.70710580
vn -0.00036280 0.89309230 -0.44987310
vn 0.44987320 0.89309230 -0.00036258
vn 0.70710640 0.70710690 -0.00057004
vn 0.70710640 0.70710690 -0.00057004
vn 0.44987320 0.89309230 -0.00036258
vn 0.00036265 0.89309290 0.44987220
vn 0.00057001 0.70710870 0.70710460
vn 0.00057001 0.70710870 0.70710460
vn 0.00036265 0.89309290 0.44987220
vn -0.44987340 0.89309220 0.00036295
vn -0.70710640 0.70710690 0.00057034
vn -0.70710640 0.70710690 0.00057034
vn -0.44987340 0.89309220 0.00036295
vn -0.00036265 0.89309240 -0.44987310
vn -0.00057001 0.70710720 -0.70710610
vn -0.00057001 0.70710720 -0.70710610
vn -0.00036265 0.89309240 -0.44987310
vn 0.44987400 0.89309190 -0.00036248
vn 0.70710740 0.70710600 -0.00056989
vn 0.70710740 0.70710600 -0.00056989
vn 0.44987400 0.89309190 -0.00036248
vn 0.00036280 0.89309240 0.44987310
vn 0.00057025 0.70710730 0.70710600
vn 0.00057025 0.70710730 0.70710600
vn 0.00036280 0.89309240 0.44987310
vn -0.44987370 0.89309210 0.00036293
vn -0.70710680 0.70710660 0.00057030
vn -0.70710680 0.70710660 0.00057030
vn -0.44987370 0.89309210 0.00036293
vn -0.00036280 0.89309320 -0.44987160
vn -0.00057025 0.70710960 -0.70710370
vn -0.00057025 0.70710960 -0.70710370
vn -0.00036280 0.89309320 -0.44987160
vn 0.44987360 0.89309220 -0.00036255
vn 0.70710690 0.70710640 -0.00057000
vn 0.70710690 0.70710640 -0.00057000
vn 0.44987360 0.89309220 -0.00036255
vn 0.00036280 0.89309240 0.44987310
vn 0.00057025 0.70710730 0.70710600
vn 0.00057025 0.70710730 0.70710600
vn 0.00036280 0.89309240 0.44987310
vn -0.44987360 0.89309210 0.00036295
vn -0.70710660 0.70710680 0.00057034
vn -0.70710660 0.70710680 0.00057034
vn -0.44987360 0.89309210 0.00036295
vn -0.00036280 0.89309240 -0.44987310
vn -0.00057025 0.70710730 -0.70710600
vn -0.00057025 0.70710730 -0.70710600
vn -0.00036280 0.89309240 -0.44987310
vn 0.44987340 0.89309220 -0.00036253
vn 0.70710660 0.70710660 -0.00056997
vn 0.70710660 0.70710660 -0.00056997
vn 0.44987340 0.89309220 -0.00036253
vn 0.00036280 0.89309240 0.44987310
vn 0.00057025 0.70710730 0.70710600
vn 0.00057025 0.70710730 0.70710600
vn 0.00036280 0.89309240 0.44987310
vn -0.44987360 0.89309220 0.00036286
vn -0.70710660 0.70710680 0.00057026
vn -0.70710660 0.70710680 0.00057026
vn -0.44987360 0.89309220 0.00036286
vn -0.00036280 0.89309250 -0.44987290
vn -0.00057025 0.70710750 -0.70710580
vn -0.00057025 0.70710750 -0.70710580
vn -0.00036280 0.89309250 -0.44987290
vn 0.44987300 0.89309240 -0.00036267
vn 0.70710580 0.70710750 -0.00057011
vn 0.70710580 0.70710750 -0.00057011
vn 0.44987300 0.89309240 -0.00036267
vn 0.00036280 0.89309240 0.44987310
vn 0.00057025 0.70710730 0.70710600
vn 0.00057025 0.70710730 0.70710600
vn 0.00036280 0.89309240 0.44987310
vn -0.44987350 0.89309220 0.00036283
vn -0.70710650 0.70710680 0.00057023
vn -0.70710650 0.70710680 0.00057023
vn -0.44987350 0.89309220 0.00036283
vn -0.00036280 0.89309250 -0.44987290
vn -0.00057025 0.70710750 -0.70710580
vn -0.00057025 0.70710750 -0.70710580
vn -0.00036280 0.89309250 -0.44987290
vn 0.44987320 0.89309230 -0.00036265
vn 0.70710620 0.70710700 -0.00057008
vn 0.70710620 0.70710700 -0.00057008
vn 0.44987320 0.89309230 -0.00036265
vn 0.00036265 0.89309200 0.44987380
vn 0.00057001 0.70710600 0.70710730
vn 0.00057001 0.70710600 0.70710730
vn 0.00036265 0.89309200 0.44987380
vn -0.44987360 0.89309210 0.00036276
vn -0.70710660 0.70710660 0.00057012
vn -0.70710660 0.70710660 0.00057012
vn -0.44987360 0.89309210 0.00036276
vn -0.00036280 0.89309220 -0.44987360
vn -0.00057025 0.70710640 -0.70710690
vn -0.00057025 0.70710640 -0.70710690
vn -0.00036280 0.89309220 -0.44987360
vn 0.44987340 0.89309230 -0.00036262
vn 0.70710640 0.70710690 -0.00057004
vn 0.70710640 0.70710690 -0.00057004
vn 0.44987340 0.89309230 -0.00036262
vn 0.00036280 0.89309220 0.44987340
vn 0.00057025 0.70710660 0.70710660
vn 0.00057025 0.70710660 0.70710660
vn 0.00036280 0.89309220 0.44987340
vn -0.44987340 0.89309230 0.00036295
vn -0.70710620 0.70710700 0.00057034
vn -0.70710620 0.70710700 0.00057034
vn -0.44987340 0.89309230 0.00036295
vn -0.00036280 0.89309240 -0.44987300
vn -0.00057025 0.70710750 -0.70710580
vn -0.00057025 0.70710750 -0.70710580
vn -0.00036280 0.89309240 -0.44987300
vn 0.44987340 0.89309230 -0.00036258
vn 0.70710650 0.70710680 -0.00057004
vn 0.70710650 0.70710680 -0.00057004
vn 0.44987340 0.89309230 -0.00036258
vn 0.00036273 0.89309210 0.44987380
vn 0.00057013 0.70710640 0.70710690
vn 0.00057013 0.70710640 0.70710690
vn 0.00036273 0.89309210 0.44987380
vn -0.44987340 0.89309230 0.00036293
vn -0.70710630 0.70710690 0.00057030
vn -0.70710630 0.70710690 0.00057030
vn -0.44987340 0.89309230 0.00036293
vn -0.00036273 0.89309240 -0.44987300
vn -0.00057013 0.70710750 -0.70710580
vn -0.00057013 0.70710750 -0.70710580
vn -0.00036273 0.89309240 -0.44987300
vn 0.44987320 0.89309230 -0.00036255
vn 0.70710620 0.70710700 -0.00057000
vn 0.70710620 0.70710700 -0.00057000
vn 0.44987320 0.89309230 -0.00036255
vn 0.00036273 0.89309230 0.44987340
vn 0.00057013 0.70710690 0.70710640
vn 0.00057013 0.70710690 0.70710640
vn 0.00036273 0.89309230 0.44987340
vn -0.44987310 0.89309240 0.00036295
vn -0.70710570 0.70710760 0.00057034
vn -0.70710570 0.70710760 0.00057034
vn -0.44987310 0.89309240 0.00036295
vn -0.00036273 0.89309230 -0.44987340
vn -0.00057013 0.70710690 -0.70710640
vn -0.00057013 0.70710690 -0.70710640
vn -0.00036273 0.89309230 -0.44987340
vn 0.44987350 0.89309220 -0.00036253
vn 0.70710680 0.70710650 -0.00056997
vn 0.70710680 0.70710650 -0.00056997
vn 0.44987350 0.89309220 -0.00036253
vn 0.00036273 0.89309220 0.44987340
vn 0.00057013 0.70710690 0.70710640
vn 0.00057013 0.70710690 0.70710640
vn 0.00036273 0.89309220 0.44987340
vn -0.99999980 0.00000000 0.00080633
vn -0.99999980 0.00000000 0.00080633
vn -0.99999980 0.00000000 0.00080633
vn -0.99999980 0.00000000 0.00080633
vn -0.05196090 0.95162570 0.30283420
vn 0.04938273 0.99756230 0.04930329
vn 0.05244898 0.95162580 0.30275000
vn -0.04930326 0.99756230 0.04938285
vn -0.04938283 0.99756230 -0.04930319
vn -0.30283500 0.95162550 -0.05196084
vn -0.30275080 0.95162550 0.05244913
vn 0.04930316 0.99756230 -0.04938276
vn 0.30283490 0.95162550 0.05196084
vn 0.30275070 0.95162550 -0.05244914
vn 0.05196071 0.95162560 -0.30283470
vn -0.05244919 0.95162560 -0.30275060
vn -0.05196095 0.95162570 0.30283420
vn 0.04938268 0.99756230 0.04930329
vn 0.05244893 0.95162580 0.30275000
vn -0.04930330 0.99756230 0.04938287
vn 0.04930311 0.99756230 -0.04938276
vn 0.30283480 0.95162550 0.05196084
vn 0.30275070 0.95162550 -0.05244913
vn -0.04938288 0.99756230 -0.04930318
vn 0.05196067 0.95162560 -0.30283470
vn -0.05244924 0.95162560 -0.30275060
vn -0.30283500 0.95162550 -0.05196081
vn -0.30275080 0.95162550 0.05244917
vn -0.05196082 0.95162560 0.30283480
vn 0.04938275 0.99756230 0.04930331
vn 0.05244910 0.95162560 0.30275060
vn -0.04930325 0.99756230 0.04938288
vn -0.04938282 0.99756230 -0.04930297
vn -0.30283500 0.95162550 -0.05196059
vn -0.30275080 0.95162550 0.05244919
vn 0.04930318 0.99756230 -0.04938254
vn 0.30283530 0.95162530 0.05196093
vn 0.30275110 0.95162530 -0.05244885
vn 0.05196083 0.95162560 -0.30283470
vn -0.05244909 0.95162560 -0.30275050
vn -0.05196081 0.95162550 0.30283480
vn 0.04938270 0.99756230 0.04930330
vn 0.05244905 0.95162560 0.30275060
vn -0.04930324 0.99756230 0.04938288
vn 0.04930311 0.99756230 -0.04938256
vn 0.30283510 0.95162550 0.05196089
vn 0.30275090 0.95162550 -0.05244893
vn -0.04938282 0.99756230 -0.04930299
vn 0.05196065 0.95162590 -0.30283370
vn -0.05244916 0.95162590 -0.30274950
vn -0.30283510 0.95162550 -0.05196063
vn -0.30275090 0.95162550 0.05244917
vn -0.05196087 0.95162560 0.30283480
vn 0.04938269 0.99756230 0.04930330
vn 0.05244905 0.95162560 0.30275060
vn -0.04930329 0.99756230 0.04938288
vn -0.04938288 0.99756230 -0.04930299
vn -0.30283510 0.95162550 -0.05196061
vn -0.30275090 0.95162550 0.05244919
vn 0.04930311 0.99756230 -0.04938256
vn 0.30283500 0.95162550 0.05196089
vn 0.30275080 0.95162550 -0.05244891
vn 0.05196067 0.95162560 -0.30283470
vn -0.05244924 0.95162560 -0.30275050
vn -0.05196078 0.95162560 0.30283470
vn 0.04938278 0.99756230 0.04930322
vn 0.05244914 0.95162560 0.30275060
vn -0.04930322 0.99756230 0.04938280
vn 0.04930319 0.99756230 -0.04938264
vn 0.30283470 0.95162560 0.05196078
vn 0.30275050 0.95162560 -0.05244898
vn -0.04938281 0.99756230 -0.04930307
vn 0.05196075 0.95162560 -0.30283460
vn -0.05244916 0.95162560 -0.30275030
vn -0.30283510 0.95162550 -0.05196067
vn -0.30275090 0.95162550 0.05244912
vn -0.05196090 0.95162530 0.30283530
vn 0.04938271 0.99756230 0.04930321
vn 0.05244899 0.95162530 0.30275110
vn -0.04930324 0.99756230 0.04938279
vn 0.04930314 0.99756230 -0.04938264
vn 0.30283480 0.95162550 0.05196079
vn 0.30275070 0.95162560 -0.05244898
vn -0.04938281 0.99756230 -0.04930307
vn 0.05196070 0.95162560 -0.30283460
vn -0.05244916 0.95162560 -0.30275030
vn -0.30283500 0.95162550 -0.05196068
vn -0.30275080 0.95162550 0.05244908
vn -0.05196084 0.95162550 0.30283500
vn 0.04938273 0.99756230 0.04930323
vn 0.05244909 0.95162550 0.30275080
vn -0.04930326 0.99756230 0.04938279
vn -0.04938284 0.99756230 -0.04930307
vn -0.30283510 0.95162550 -0.05196073
vn -0.30275090 0.95162550 0.05244906
vn 0.04930314 0.99756230 -0.04938263
vn 0.30283490 0.95162550 0.05196082
vn 0.30275070 0.95162550 -0.05244896
vn 0.05196072 0.95162550 -0.30283510
vn -0.05244922 0.95162550 -0.30275090
vn -0.05196086 0.95162530 0.30283530
vn 0.04938274 0.99756230 0.04930339
vn 0.05244906 0.95162530 0.30275100
vn -0.04930325 0.99756230 0.04938297
vn 0.04930316 0.99756230 -0.04938266
vn 0.30283490 0.95162550 0.05196095
vn 0.30275070 0.95162550 -0.05244903
vn -0.04938283 0.99756230 -0.04930308
vn 0.05196072 0.95162560 -0.30283460
vn -0.05244919 0.95162560 -0.30275040
vn -0.30283500 0.95162550 -0.05196070
vn -0.30275070 0.95162550 0.05244927
vn -0.05196086 0.95162550 0.30283500
vn 0.04938269 0.99756230 0.04930339
vn 0.05244900 0.95162550 0.30275080
vn -0.04930325 0.99756230 0.04938296
vn 0.04930312 0.99756230 -0.04938265
vn 0.30283480 0.95162550 0.05196096
vn 0.30275060 0.95162560 -0.05244901
vn -0.04938282 0.99756230 -0.04930307
vn 0.05196072 0.95162560 -0.30283470
vn -0.05244913 0.95162560 -0.30275050
vn -0.30283500 0.95162550 -0.05196071
vn -0.30275080 0.95162550 0.05244925
vn -0.05196092 0.95162550 0.30283510
vn 0.04938269 0.99756230 0.04930340
vn 0.05244900 0.95162550 0.30275090
vn -0.04930330 0.99756230 0.04938297
vn -0.04938287 0.99756230 -0.04930307
vn -0.30283470 0.95162560 -0.05196068
vn -0.30275060 0.95162560 0.05244927
vn 0.04930312 0.99756230 -0.04938265
vn 0.30283500 0.95162550 0.05196099
vn 0.30275080 0.95162550 -0.05244900
vn 0.05196073 0.95162550 -0.30283490
vn -0.05244920 0.95162550 -0.30275070
vt 0.61983790 0.28917110
vt 0.89505340 0.28890590
vt 0.89486800 0.01377005
vt 0.61965240 0.01403543
vt 1.22553500 0.92144610
vt 1.22553500 1.04767200
vt 1.50093600 1.04767200
vt 1.50093600 0.92144610
vt 0.92259360 0.92144610
vt 0.92259360 1.04767200
vt 1.19799500 1.04767200
vt 1.19799500 0.92144610
vt 1.52847600 1.83027000
vt 1.52847600 1.95649500
vt 1.80387700 1.95649500
vt 1.80387700 1.83027000
vt 0.92259360 1.83027000
vt 0.92259360 1.95649500
vt 1.19799500 1.95649500
vt 1.19799500 1.83027000
vt 0.61983790 0.59211230
vt 0.89505340 0.59184690
vt 0.89486800 0.31671120
vt 0.61965240 0.31697660
vt 1.22553500 1.07291700
vt 1.22553500 1.19914200
vt 1.50093600 1.19914200
vt 1.50093600 1.07291700
vt 0.01377005 1.07291700
vt 0.01377005 1.19914200
vt 0.28917110 1.19914200
vt 0.28917110 1.07291700
vt 2.13435800 1.67879900
vt 2.13435800 1.80502400
vt 2.40975900 1.80502400
vt 2.40975900 1.67879900
vt 0.31671120 1.83027000
vt 0.31671120 1.95649500
vt 0.59211230 1.95649500
vt 0.59211230 1.83027000
vt 1.52866100 0.89505340
vt 1.80387700 0.89478810
vt 1.80369200 0.61965240
vt 1.52847600 0.61991770
vt 1.83141700 1.22438700
vt 1.83141700 1.35061300
vt 2.10681800 1.35061300
vt 2.10681800 1.22438700
vt 1.52847600 1.22438700
vt 1.52847600 1.35061300
vt 1.80387700 1.35061300
vt 1.80387700 1.22438700
vt 0.92259360 1.98174000
vt 0.92259360 2.03161800
vt 1.19799500 2.03161800
vt 1.19799500 1.98174000
vt 0.61965240 1.83027000
vt 0.61965240 1.88014800
vt 0.89505340 1.88014800
vt 0.89505340 1.83027000
vt 0.92277910 0.59211230
vt 1.19799500 0.59184690
vt 1.19780900 0.31671120
vt 0.92259360 0.31697650
vt 0.92259360 1.22438700
vt 0.92259360 1.35061300
vt 1.19799500 1.35061300
vt 1.19799500 1.22438700
vt 1.22553500 1.22438700
vt 1.22553500 1.35061300
vt 1.50093600 1.35061300
vt 1.50093600 1.22438700
vt 0.31671120 1.98174000
vt 0.31671120 2.03161800
vt 0.59211230 2.03161800
vt 0.59211230 1.98174000
vt 0.61965240 1.98174000
vt 0.61965240 2.10796600
vt 0.89505340 2.10796500
vt 0.89505340 1.98174000
vt 2.13454400 0.59211230
vt 2.40975900 0.59184690
vt 2.40957400 0.31671120
vt 2.13435800 0.31697660
vt 0.61965240 1.07291700
vt 0.61965240 1.19914200
vt 0.89505340 1.19914200
vt 0.89505340 1.07291700
vt 0.61965240 1.22438700
vt 0.61965240 1.35061300
vt 0.89505340 1.35061300
vt 0.89505340 1.22438700
vt 2.13435800 1.83027000
vt 2.13435800 1.88014800
vt 2.40975900 1.88014800
vt 2.40975900 1.83027000
vt 1.52847600 2.13321100
vt 1.52847600 2.25943600
vt 1.80387700 2.25943600
vt 1.80387700 2.13321100
vt 1.22572000 0.28917110
vt 1.50093600 0.28890580
vt 1.50075000 0.01377005
vt 1.22553500 0.01403543
vt 0.31671120 0.92144610
vt 0.31671120 1.04767200
vt 0.59211230 1.04767200
vt 0.59211230 0.92144610
vt 0.01377005 0.92144610
vt 0.01377005 1.04767200
vt 0.28917110 1.04767200
vt 0.28917110 0.92144610
vt 0.31671120 2.13321100
vt 0.31671120 2.25943600
vt 0.59211230 2.25943600
vt 0.59211230 2.13321100
vt 1.22553500 2.13321100
vt 1.22553500 2.25943600
vt 1.50093600 2.25943600
vt 1.50093600 2.13321100
vt 0.61983790 0.89505340
vt 0.89505340 0.89478810
vt 0.89486800 0.61965240
vt 0.61965240 0.61991780
vt 0.31671120 1.22438700
vt 0.31671120 1.27426600
vt 0.59211230 1.27426600
vt 0.59211230 1.22438700
vt 2.13435800 0.92144610
vt 2.13435800 1.04767200
vt 2.40975900 1.04767200
vt 2.40975900 0.92144610
vt 1.83141700 1.98174000
vt 1.83141700 2.10796500
vt 2.10681800 2.10796600
vt 2.10681800 1.98174000
vt 0.61965240 2.13321100
vt 0.61965240 2.18308900
vt 0.89505340 2.18308900
vt 0.89505340 2.13321100
vt 1.22572000 0.59211230
vt 1.50093600 0.59184690
vt 1.50075000 0.31671120
vt 1.22553500 0.31697660
vt 0.92259360 1.07291700
vt 0.92259360 1.19914200
vt 1.19799500 1.19914200
vt 1.19799500 1.07291700
vt 1.83141700 1.07291700
vt 1.83141700 1.12279500
vt 2.10681800 1.12279500
vt 2.10681800 1.07291700
vt 0.92259360 2.13321100
vt 0.92259360 2.25943600
vt 1.19799500 2.25943600
vt 1.19799500 2.13321100
vt 1.83141700 1.83027000
vt 1.83141700 1.95649500
vt 2.10681800 1.95649500
vt 2.10681800 1.83027000
vt 2.13454400 0.28917110
vt 2.40975900 0.28890570
vt 2.40957400 0.01377005
vt 2.13435800 0.01403543
vt 0.61965240 0.92144610
vt 0.61965240 0.97132440
vt 0.89505340 0.97132440
vt 0.89505340 0.92144610
vt 1.83141700 0.92144610
vt 1.83141700 1.04767200
vt 2.10681800 1.04767200
vt 2.10681800 0.92144610
vt 1.22553500 1.98174000
vt 1.22553500 2.10796500
vt 1.50093600 2.10796600
vt 1.50093600 1.98174000
vt 1.52847600 1.98174000
vt 1.52847600 2.10796600
vt 1.80387700 2.10796500
vt 1.80387700 1.98174000
vt 0.92277910 0.89505340
vt 1.19799500 0.89478810
vt 1.19780900 0.61965240
vt 0.92259360 0.61991780
vt 0.31671120 1.07291700
vt 0.31671120 1.19914200
vt 0.59211230 1.19914200
vt 0.59211230 1.07291700
vt 1.52847600 1.07291700
vt 1.52847600 1.19914200
vt 1.80387700 1.19914200
vt 1.80387700 1.07291700
vt 1.22553500 1.83027000
vt 1.22553500 1.95649500
vt 1.50093600 1.95649500
vt 1.50093600 1.83027000
vt 2.13435800 1.98174000
vt 2.13435800 2.10796600
vt 2.40975900 2.10796500
vt 2.40975900 1.98174000
vt 0.31689680 0.28917110
vt 0.59211230 0.28890580
vt 0.59192680 0.01377005
vt 0.31671120 0.01403538
vt 2.13435800 0.61850490
vt 2.13435800 0.74473040
vt 2.40975900 0.74473040
vt 2.40975900 0.61850490
vt 2.13435800 0.76997550
vt 2.13435800 0.89620100
vt 2.40975900 0.89620100
vt 2.40975900 0.76997550
vt 0.01377005 2.13321100
vt 0.01377005 2.18308900
vt 0.28917110 2.18308900
vt 0.28917110 2.13321100
vt 1.17472700 0.26152660
vt 1.19780900 0.28917110
vt 1.19799500 0.01403543
vt 1.17487500 0.04163530
vt 1.17487500 0.04163530
vt 1.19799500 0.01403543
vt 0.92277910 0.01377005
vt 0.94586120 0.04141446
vt 0.94586120 0.04141446
vt 0.92277910 0.01377005
vt 0.92259360 0.28890590
vt 0.94571290 0.26130590
vt 0.94571290 0.26130590
vt 0.92259360 0.28890590
vt 1.19780900 0.28917110
vt 1.17472700 0.26152660
vt 2.08355000 0.56446770
vt 2.10663300 0.59211230
vt 2.10681800 0.31697660
vt 2.08369900 0.34457640
vt 2.08369900 0.34457640
vt 2.10681800 0.31697660
vt 1.83160300 0.31671120
vt 1.85468500 0.34435560
vt 1.85468500 0.34435560
vt 1.83160300 0.31671120
vt 1.83141700 0.59184690
vt 1.85453700 0.56424700
vt 1.85453700 0.56424700
vt 1.83141700 0.59184690
vt 2.10663300 0.59211230
vt 2.08355000 0.56446770
vt 2.08355000 0.86740910
vt 2.10663300 0.89505340
vt 2.10681800 0.61991770
vt 2.08369900 0.64751750
vt 2.08369900 0.64751750
vt 2.10681800 0.61991770
vt 1.83160300 0.61965240
vt 1.85468500 0.64729680
vt 1.17032400 2.10796600
vt 1.19799500 2.03161800
vt 0.92259360 2.03161800
vt 0.95022010 2.10796600
vt 1.85453700 0.86718830
vt 1.83141700 0.89478810
vt 2.10663300 0.89505340
vt 2.08355000 0.86740910
vt 0.86738240 1.95649500
vt 0.89505340 1.88014800
vt 0.61965240 1.88014800
vt 0.64727910 1.95649500
vt 0.26605170 0.34457660
vt 0.28917110 0.31697650
vt 0.01395559 0.31671120
vt 0.03703770 0.34435570
vt 0.56444110 2.10796600
vt 0.59211230 2.03161800
vt 0.31671120 2.03161800
vt 0.34433770 2.10796600
vt 0.03688942 0.56424710
vt 0.01377005 0.59184690
vt 0.28898560 0.59211230
vt 0.26590350 0.56446790
vt 1.47766800 0.86740910
vt 1.50075000 0.89505340
vt 1.50093600 0.61991780
vt 1.47781600 0.64751770
vt 1.47781600 0.64751770
vt 1.50093600 0.61991780
vt 1.22572000 0.61965240
vt 1.24880200 0.64729680
vt 2.38208800 1.95649500
vt 2.40975900 1.88014800
vt 2.13435800 1.88014800
vt 2.16198500 1.95649500
vt 1.24865400 0.86718830
vt 1.22553500 0.89478810
vt 1.50075000 0.89505340
vt 1.47766800 0.86740910
vt 1.78060900 0.26152680
vt 1.80369200 0.28917110
vt 1.80387700 0.01403543
vt 1.78075800 0.04163529
vt 1.78075800 0.04163529
vt 1.80387700 0.01403543
vt 1.52866100 0.01377005
vt 1.55174400 0.04141445
vt 1.55174400 0.04141445
vt 1.52866100 0.01377005
vt 1.52847600 0.28890580
vt 1.55159500 0.26130590
vt 1.55159500 0.26130590
vt 1.52847600 0.28890580
vt 1.80369200 0.28917110
vt 1.78060900 0.26152680
vt 0.56884460 0.86740910
vt 0.59192680 0.89505340
vt 0.59211230 0.61991780
vt 0.56899290 0.64751770
vt 0.56899290 0.64751770
vt 0.59211230 0.61991780
vt 0.31689680 0.61965240
vt 0.33997890 0.64729680
vt 0.33997890 0.64729680
vt 0.31689680 0.61965240
vt 0.31671120 0.89478810
vt 0.33983060 0.86718830
vt 0.56897740 1.35061300
vt 0.59211230 1.27426600
vt 0.31671120 1.27426600
vt 0.33980890 1.35061300
vt 0.86738240 2.25943600
vt 0.89505340 2.18308900
vt 0.61965240 2.18308900
vt 0.64727880 2.25943600
vt 2.08368300 1.19914200
vt 2.10681800 1.12279500
vt 1.83141700 1.12279500
vt 1.85451500 1.19914200
vt 2.15764200 1.10170900
vt 2.13454400 1.07406400
vt 2.13435800 1.34920000
vt 2.15749300 1.32160000
vt 2.15749300 1.32160000
vt 2.13435800 1.34920000
vt 2.40975900 1.34946500
vt 2.38666200 1.32182100
vt 2.08355100 0.26152680
vt 2.10663300 0.28917110
vt 2.10681800 0.01403543
vt 2.08369900 0.04163529
vt 2.08369900 0.04163529
vt 2.10681800 0.01403543
vt 1.83160300 0.01377005
vt 1.85468500 0.04141445
vt 1.85468500 0.04141445
vt 1.83160300 0.01377005
vt 1.83141700 0.28890570
vt 1.85453700 0.26130600
vt 0.87191850 1.04767200
vt 0.89505340 0.97132440
vt 0.61965240 0.97132440
vt 0.64275010 1.04767200
vt 1.78060900 0.56446790
vt 1.80369200 0.59211230
vt 1.80387700 0.31697660
vt 1.78075800 0.34457650
vt 1.78075800 0.34457650
vt 1.80387700 0.31697660
vt 1.52866100 0.31671120
vt 1.55174400 0.34435560
vt 1.55174400 0.34435560
vt 1.52866100 0.31671120
vt 1.52847600 0.59184690
vt 1.55159500 0.56424710
vt 1.55159500 0.56424710
vt 1.52847600 0.59184690
vt 1.80369200 0.59211230
vt 1.78060900 0.56446790
vt 0.26590340 0.26152680
vt 0.28898560 0.28917110
vt 0.28917110 0.01403538
vt 0.26605170 0.04163520
vt 0.26605170 0.04163520
vt 0.28917110 0.01403538
vt 0.01395559 0.01377005
vt 0.03703769 0.04141441
vt 0.26150010 2.25943600
vt 0.28917110 2.18308900
vt 0.01377005 2.18308900
vt 0.04139649 2.25943600
vt 0.03688942 0.26130600
vt 0.01377005 0.28890580
vt 0.28898560 0.28917110
vt 0.26590340 0.26152680
vt 1.83141700 2.13321100
vt 1.83141700 2.25943600
vt 2.10681800 2.25943600
vt 2.10681800 2.13321100
vt 1.17472700 0.26152660
vt 0.96683780 0.24021550
vt 0.94571290 0.26130590
vt 1.15363000 0.24039560
vt 1.15375000 0.06272561
vt 1.17487500 0.04163530
vt 1.17472700 0.26152660
vt 0.96695760 0.06254549
vt 0.94571290 0.26130590
vt 0.94586120 0.04141446
vt 0.94586120 0.04141446
vt 1.17487500 0.04163530
vt 2.08355000 0.56446770
vt 1.87566100 0.54315670
vt 1.85453700 0.56424700
vt 2.06245400 0.54333670
vt 1.87578100 0.36548670
vt 1.85453700 0.56424700
vt 1.85468500 0.34435560
vt 2.06257400 0.36566670
vt 1.85468500 0.34435560
vt 2.08369900 0.34457640
vt 2.08369900 0.34457640
vt 2.08355000 0.56446770
vt 2.08355000 0.86740910
vt 1.87566100 0.84609790
vt 1.85453700 0.86718830
vt 2.06245400 0.84627800
vt 2.06257400 0.66860780
vt 2.08369900 0.64751750
vt 2.08355000 0.86740910
vt 1.87578100 0.66842780
vt 1.85453700 0.86718830
vt 1.85468500 0.64729680
vt 1.85468500 0.64729680
vt 2.08369900 0.64751750
vt 0.26590350 0.56446790
vt 0.05801432 0.54315670
vt 0.03688942 0.56424710
vt 0.24480700 0.54333690
vt 0.05813412 0.36548670
vt 0.03688942 0.56424710
vt 0.03703770 0.34435570
vt 0.24492680 0.36566690
vt 0.03703770 0.34435570
vt 0.26605170 0.34457660
vt 0.26605170 0.34457660
vt 0.26590350 0.56446790
vt 1.47766800 0.86740910
vt 1.26977900 0.84609790
vt 1.24865400 0.86718830
vt 1.45657200 0.84627800
vt 1.45669200 0.66860800
vt 1.47781600 0.64751770
vt 1.47766800 0.86740910
vt 1.26989900 0.66842780
vt 1.24865400 0.86718830
vt 1.24880200 0.64729680
vt 1.24880200 0.64729680
vt 1.47781600 0.64751770
vt 1.78060900 0.26152680
vt 1.57272000 0.24021560
vt 1.55159500 0.26130590
vt 1.75951300 0.24039570
vt 1.57284000 0.06254548
vt 1.55159500 0.26130590
vt 1.55174400 0.04141445
vt 1.75963300 0.06272560
vt 1.55174400 0.04141445
vt 1.78075800 0.04163529
vt 1.78075800 0.04163529
vt 1.78060900 0.26152680
vt 0.56884460 0.86740910
vt 0.36095550 0.84609800
vt 0.33983060 0.86718830
vt 0.54774820 0.84627810
vt 0.36107530 0.66842780
vt 0.33983060 0.86718830
vt 0.33997890 0.64729680
vt 0.54786800 0.66860800
vt 0.33997890 0.64729680
vt 0.56899290 0.64751770
vt 0.56899290 0.64751770
vt 0.56884460 0.86740910
vt 2.38666200 1.32182100
vt 2.17862600 1.30050200
vt 2.15749300 1.32160000
vt 2.36555800 1.30068300
vt 2.36567800 1.12302700
vt 2.38681000 1.10192900
vt 2.38666200 1.32182100
vt 2.17874500 1.12284700
vt 2.15749300 1.32160000
vt 2.15764200 1.10170900
vt 2.15764200 1.10170900
vt 2.38681000 1.10192900
vt 2.08355100 0.26152680
vt 1.87566100 0.24021560
vt 1.85453700 0.26130600
vt 2.06245400 0.24039570
vt 1.87578100 0.06254548
vt 1.85453700 0.26130600
vt 1.85468500 0.04141445
vt 2.06257400 0.06272560
vt 1.85468500 0.04141445
vt 2.08369900 0.04163529
vt 2.08369900 0.04163529
vt 2.08355100 0.26152680
vt 1.78060900 0.56446790
vt 1.57272000 0.54315680
vt 1.55159500 0.56424710
vt 1.75951300 0.54333690
vt 1.57284000 0.36548670
vt 1.55159500 0.56424710
vt 1.55174400 0.34435560
vt 1.75963300 0.36566680
vt 1.55174400 0.34435560
vt 1.78075800 0.34457650
vt 1.78075800 0.34457650
vt 1.78060900 0.56446790
vt 0.26590340 0.26152680
vt 0.05801432 0.24021560
vt 0.03688942 0.26130600
vt 0.24480700 0.24039570
vt 0.24492680 0.06272551
vt 0.26605170 0.04163520
vt 0.26590340 0.26152680
vt 0.05813412 0.06254543
vt 0.03688942 0.26130600
vt 0.03703769 0.04141441
vt 0.03703769 0.04141441
vt 0.26605170 0.04163520
f 3/3/3 2/2/2 1/1/1
f 4/4/4 3/3/3 1/1/1
f 7/7/7 6/6/6 5/5/5
f 8/8/8 7/7/7 5/5/5
f 11/11/11 10/10/10 9/9/9
f 12/12/12 11/11/11 9/9/9
f 15/15/15 14/14/14 13/13/13
f 16/16/16 15/15/15 13/13/13
f 19/19/19 18/18/18 17/17/17
f 20/20/20 19/19/19 17/17/17
f 23/23/23 22/22/22 21/21/21
f 24/24/24 23/23/23 21/21/21
f 27/27/27 26/26/26 25/25/25
f 28/28/28 27/27/27 25/25/25
f 31/31/31 30/30/30 29/29/29
f 32/32/32 31/31/31 29/29/29
f 35/35/35 34/34/34 33/33/33
f 36/36/36 35/35/35 33/33/33
f 39/39/39 38/38/38 37/37/37
f 40/40/40 39/39/39 37/37/37
f 43/43/43 42/42/42 41/41/41
f 44/44/44 43/43/43 41/41/41
f 47/47/47 46/46/46 45/45/45
f 48/48/48 47/47/47 45/45/45
f 51/51/51 50/50/50 49/49/49
f 52/52/52 51/51/51 49/49/49
f 55/55/55 54/54/54 53/53/53
f 56/56/56 55/55/55 53/53/53
f 59/59/59 58/58/58 57/57/57
f 60/60/60 59/59/59 57/57/57
f 63/63/63 62/62/62 61/61/61
f 64/64/64 63/63/63 61/61/61
f 67/67/67 66/66/66 65/65/65
f 68/68/68 67/67/67 65/65/65
f 71/71/71 70/70/70 69/69/69
f 72/72/72 71/71/71 69/69/69
f 75/75/75 74/74/74 73/73/73
f 76/76/76 75/75/75 73/73/73
f 79/79/79 78/78/78 77/77/77
f 80/80/80 79/79/79 77/77/77
f 83/83/83 82/82/82 81/81/81
f 84/84/84 83/83/83 81/81/81
f 87/87/87 86/86/86 85/85/85
f 88/88/88 87/87/87 85/85/85
f 91/91/91 90/90/90 89/89/89
f 92/92/92 91/91/91 89/89/89
f 95/95/95 94/94/94 93/93/93
f 96/96/96 95/95/95 93/93/93
f 99/99/99 98/98/98 97/97/97
f 100/100/100 99/99/99 97/97/97
f 103/103/103 102/102/102 101/101/101
f 104/104/104 103/103/103 101/101/101
f 107/107/107 106/106/106 105/105/105
f 108/108/108 107/107/107 105/105/105
f 111/111/111 110/110/110 109/109/109
f 112/112/112 111/111/111 109/109/109
f 115/115/115 114/114/114 113/113/113
f 116/116/116 115/115/115 113/113/113
f 119/119/119 118/118/118 117/117/117
f 120/120/120 119/119/119 117/117/117
f 123/123/123 122/122/122 121/121/121
f 124/124/124 123/123/123 121/121/121
f 127/127/127 126/126/126 125/125/125
f 128/128/128 127/127/127 125/125/125
f 131/131/131 130/130/130 129/129/129
f 132/132/132 131/131/131 129/129/129
f 135/135/135 134/134/134 133/133/133
f 136/136/136 135/135/135 133/133/133
f 139/139/139 138/138/138 137/137/137
f 140/140/140 139/139/139 137/137/137
f 143/143/143 142/142/142 141/141/141
f 144/144/144 143/143/143 141/141/141
f 147/147/147 146/146/146 145/145/145
f 148/148/148 147/147/147 145/145/145
f 151/151/151 150/150/150 149/149/149
f 152/152/152 151/151/151 149/149/149
f 155/155/155 154/154/154 153/153/153
f 156/156/156 155/155/155 153/153/153
f 159/159/159 158/158/158 157/157/157
f 160/160/160 159/159/159 157/157/157
f 163/163/163 162/162/162 161/161/161
f 164/164/164 163/163/163 161/161/161
f 167/167/167 166/166/166 165/165/165
f 168/168/168 167/167/167 165/165/165
f 171/171/171 170/170/170 169/169/169
f 172/172/172 171/171/171 169/169/169
f 175/175/175 174/174/174 173/173/173
f 176/176/176 175/175/175 173/173/173
f 179/179/179 178/178/178 177/177/177
f 180/180/180 179/179/179 177/177/177
f 183/183/183 182/182/182 181/181/181
f 184/184/184 183/183/183 181/181/181
f 187/187/187 186/186/186 185/185/185
f 188/188/188 187/187/187 185/185/185
f 191/191/191 190/190/190 189/189/189
f 192/192/192 191/191/191 189/189/189
f 195/195/195 194/194/194 193/193/193
f 196/196/196 195/195/195 193/193/193
f 199/199/199 198/198/198 197/197/197
f 200/200/200 199/199/199 197/197/197
f 203/203/203 202/202/202 201/201/201
f 204/204/204 203/203/203 201/201/201
f 207/207/207 206/206/206 205/205/205
f 208/208/208 207/207/207 205/205/205
f 211/211/211 210/210/210 209/209/209
f 212/212/212 211/211/211 209/209/209
f 215/215/215 214/214/214 213/213/213
f 216/216/216 215/215/215 213/213/213
f 219/219/219 218/218/218 217/217/217
f 220/220/220 219/219/219 217/217/217
f 223/223/223 222/222/222 221/221/221
f 224/224/224 223/223/223 221/221/221
f 227/227/227 226/226/226 225/225/225
f 228/228/228 227/227/227 225/225/225
f 231/231/231 230/230/230 229/229/229
f 232/232/232 231/231/231 229/229/229
f 235/235/235 234/234/234 233/233/233
f 236/236/236 235/235/235 233/233/233
f 239/239/239 238/238/238 237/237/237
f 240/240/240 239/239/239 237/237/237
f 243/243/243 242/242/242 241/241/241
f 244/244/244 243/243/243 241/241/241
f 247/247/247 246/246/246 245/245/245
f 248/248/248 247/247/247 245/245/245
f 251/251/251 250/250/250 249/249/249
f 252/252/252 251/251/251 249/249/249
f 255/255/255 254/254/254 253/253/253
f 256/256/256 255/255/255 253/253/253
f 259/259/259 258/258/258 257/257/257
f 260/260/260 259/259/259 257/257/257
f 263/263/263 262/262/262 261/261/261
f 264/264/264 263/263/263 261/261/261
f 267/267/267 266/266/266 265/265/265
f 268/268/268 267/267/267 265/265/265
f 271/271/271 270/270/270 269/269/269
f 272/272/272 271/271/271 269/269/269
f 275/275/275 274/274/274 273/273/273
f 276/276/276 275/275/275 273/273/273
f 279/279/279 278/278/278 277/277/277
f 280/280/280 279/279/279 277/277/277
f 283/283/283 282/282/282 281/281/281
f 284/284/284 283/283/283 281/281/281
f 287/287/287 286/286/286 285/285/285
f 288/288/288 287/287/287 285/285/285
f 291/291/291 290/290/290 289/289/289
f 292/292/292 291/291/291 289/289/289
f 295/295/295 294/294/294 293/293/293
f 296/296/296 295/295/295 293/293/293
f 299/299/299 298/298/298 297/297/297
f 300/300/300 299/299/299 297/297/297
f 303/303/303 302/302/302 301/301/301
f 304/304/304 303/303/303 301/301/301
f 307/307/307 306/306/306 305/305/305
f 308/308/308 307/307/307 305/305/305
f 311/311/311 310/310/310 309/309/309
f 312/312/312 311/311/311 309/309/309
f 315/315/315 314/314/314 313/313/313
f 316/316/316 315/315/315 313/313/313
f 319/319/319 318/318/318 317/317/317
f 320/320/320 319/319/319 317/317/317
f 323/323/323 322/322/322 321/321/321
f 324/324/324 323/323/323 321/321/321
f 327/327/327 326/326/326 325/325/325
f 328/328/328 327/327/327 325/325/325
f 331/331/331 330/330/330 329/329/329
f 332/332/332 331/331/331 329/329/329
f 335/335/335 334/334/334 333/333/333
f 336/336/336 335/335/335 333/333/333
f 339/339/339 338/338/338 337/337/337
f 340/340/340 339/339/339 337/337/337
f 343/343/343 342/342/342 341/341/341
f 344/344/344 343/343/343 341/341/341
f 347/347/347 346/346/346 345/345/345
f 348/348/348 347/347/347 345/345/345
f 351/351/351 350/350/350 349/349/349
f 352/352/352 351/351/351 349/349/349
f 355/355/355 354/354/354 353/353/353
f 356/356/356 355/355/355 353/353/353
f 359/359/359 358/358/358 357/357/357
f 360/360/360 359/359/359 357/357/357
f 363/363/363 362/362/362 361/361/361
f 364/364/364 363/363/363 361/361/361
f 367/367/367 366/366/366 365/365/365
f 368/368/368 367/367/367 365/365/365
f 371/371/371 370/370/370 369/369/369
f 372/372/372 371/371/371 369/369/369
f 375/375/375 374/374/374 373/373/373
f 376/376/376 375/375/375 373/373/373
f 379/379/379 378/378/378 377/377/377
f 380/380/380 379/379/379 377/377/377
f 383/383/383 382/382/382 381/381/381
f 384/384/384 383/383/383 381/381/381
f 387/387/387 386/386/386 385/385/385
f 388/388/388 387/387/387 385/385/385
f 391/391/391 390/390/390 389/389/389
f 392/392/392 391/391/391 389/389/389
f 395/395/395 394/394/394 393/393/393
f 396/396/396 395/395/395 393/393/393
f 399/399/399 398/398/398 397/397/397
f 398/398/398 400/400/400 397/397/397
f 401/401/401 400/400/400 398/398/398
f 400/400/400 401/401/401 402/402/402
f 403/403/403 400/400/400 402/402/402
f 404/404/404 401/401/401 398/398/398
f 404/404/404 398/398/398 405/405/405
f 406/406/406 404/404/404 405/405/405
f 401/401/401 404/404/404 407/407/407
f 408/408/408 401/401/401 407/407/407
f 411/411/411 410/410/410 409/409/409
f 410/410/410 412/412/412 409/409/409
f 412/412/412 410/410/410 413/413/413
f 413/413/413 410/410/410 414/414/414
f 415/415/415 413/413/413 414/414/414
f 416/416/416 412/412/412 413/413/413
f 416/416/416 413/413/413 417/417/417
f 418/418/418 416/416/416 417/417/417
f 412/412/412 416/416/416 419/419/419
f 420/420/420 412/412/412 419/419/419
f 423/423/423 422/422/422 421/421/421
f 422/422/422 424/424/424 421/421/421
f 424/424/424 422/422/422 425/425/425
f 424/424/424 425/425/425 426/426/426
f 427/427/427 424/424/424 426/426/426
f 422/422/422 428/428/428 425/425/425
f 428/428/428 422/422/422 429/429/429
f 430/430/430 428/428/428 429/429/429
f 425/425/425 428/428/428 431/431/431
f 432/432/432 425/425/425 431/431/431
f 435/435/435 434/434/434 433/433/433
f 434/434/434 436/436/436 433/433/433
f 434/434/434 437/437/437 436/436/436
f 437/437/437 434/434/434 438/438/438
f 439/439/439 437/437/437 438/438/438
f 437/437/437 440/440/440 436/436/436
f 440/440/440 437/437/437 441/441/441
f 442/442/442 440/440/440 441/441/441
f 436/436/436 440/440/440 443/443/443
f 444/444/444 436/436/436 443/443/443
f 447/447/447 446/446/446 445/445/445
f 446/446/446 448/448/448 445/445/445
f 448/448/448 446/446/446 449/449/449
f 448/448/448 449/449/449 450/450/450
f 451/451/451 448/448/448 450/450/450
f 446/446/446 452/452/452 449/449/449
f 452/452/452 446/446/446 453/453/453
f 454/454/454 452/452/452 453/453/453
f 449/449/449 452/452/452 455/455/455
f 456/456/456 449/449/449 455/455/455
f 459/459/459 458/458/458 457/457/457
f 458/458/458 460/460/460 457/457/457
f 458/458/458 461/461/461 460/460/460
f 461/461/461 458/458/458 462/462/462
f 463/463/463 461/461/461 462/462/462
f 461/461/461 464/464/464 460/460/460
f 464/464/464 461/461/461 465/465/465
f 466/466/466 464/464/464 465/465/465
f 460/460/460 464/464/464 467/467/467
f 468/468/468 460/460/460 467/467/467
f 471/471/471 470/470/470 469/469/469
f 470/470/470 472/472/472 469/469/469
f 472/472/472 470/470/470 473/473/473
f 473/473/473 470/470/470 474/474/474
f 475/475/475 473/473/473 474/474/474
f 476/476/476 472/472/472 473/473/473
f 476/476/476 473/473/473 477/477/477
f 478/478/478 476/476/476 477/477/477
f 472/472/472 476/476/476 479/479/479
f 480/480/480 472/472/472 479/479/479
f 483/483/483 482/482/482 481/481/481
f 482/482/482 484/484/484 481/481/481
f 485/485/485 484/484/484 482/482/482
f 484/484/484 485/485/485 486/486/486
f 487/487/487 484/484/484 486/486/486
f 488/488/488 485/485/485 482/482/482
f 488/488/488 482/482/482 489/489/489
f 490/490/490 488/488/488 489/489/489
f 485/485/485 488/488/488 491/491/491
f 492/492/492 485/485/485 491/491/491
f 495/495/495 494/494/494 493/493/493
f 494/494/494 496/496/496 493/493/493
f 496/496/496 494/494/494 497/497/497
f 497/497/497 494/494/494 498/498/498
f 499/499/499 497/497/497 498/498/498
f 500/500/500 496/496/496 497/497/497
f 500/500/500 497/497/497 501/501/501
f 502/502/502 500/500/500 501/501/501
f 496/496/496 500/500/500 503/503/503
f 504/504/504 496/496/496 503/503/503
f 507/507/507 506/506/506 505/505/505
f 506/506/506 508/508/508 505/505/505
f 506/506/506 509/509/509 508/508/508
f 509/509/509 506/506/506 510/510/510
f 511/511/511 509/509/509 510/510/510
f 509/509/509 512/512/512 508/508/508
f 512/512/512 509/509/509 513/513/513
f 514/514/514 512/512/512 513/513/513
f 508/508/508 512/512/512 515/515/515
f 516/516/516 508/508/508 515/515/515
f 519/519/519 518/518/518 517/517/517
f 518/518/518 520/520/520 517/517/517
f 520/520/520 518/518/518 521/521/521
f 520/520/520 521/521/521 522/522/522
f 523/523/523 520/520/520 522/522/522
f 518/518/518 524/524/524 521/521/521
f 524/524/524 518/518/518 525/525/525
f 526/526/526 524/524/524 525/525/525
f 521/521/521 524/524/524 527/527/527
f 528/528/528 521/521/521 527/527/527

