# Blender 4.0.0
# www.blender.org
o decimated_mesh
v 0.048111 0.041734 -0.030686
v 0.045465 0.015104 -0.027597
v 0.048066 0.028537 -0.030674
v 0.044501 0.041734 -0.038295
v 0.039407 0.041734 -0.030686
v 0.039906 0.011201 -0.033099
v 0.044752 0.021110 -0.036089
v 0.047517 0.024210 -0.030719
v 0.044757 0.027114 -0.037628
v 0.019461 0.008515 -0.027586
v -0.000000 0.041734 -0.049964
v -0.000005 0.008515 -0.033886
v 0.037787 0.011110 -0.035569
v 0.042212 0.015928 -0.035535
v 0.038347 0.008515 -0.027586
v 0.000035 0.041734 -0.057979
v 0.000012 0.008521 -0.048262
v 0.037773 0.008518 -0.031585
v 0.028141 0.008518 -0.040362
v 0.027646 0.010970 -0.043773
v 0.030322 0.015905 -0.046191
v 0.039953 0.015575 -0.037776
v 0.042838 0.020344 -0.037898
v 0.033785 0.022069 -0.046853
v 0.042458 0.025741 -0.040146
v 0.031019 0.022452 -0.048853
v -0.000000 0.024508 -0.057599
v 0.000027 0.017070 -0.055170
v 0.017043 0.011007 -0.048912
v 0.020045 0.015506 -0.051153
v 0.019439 0.021466 -0.054225
v 0.032082 0.027797 -0.049001
v 0.001121 0.027781 -0.058186
v 0.002272 0.022162 -0.057838
v 0.004150 0.041734 -0.058540
v -0.000000 0.011248 -0.051049
v 0.015565 0.008518 -0.046660
v 0.016347 0.017483 -0.053534
v 0.018716 0.027833 -0.055495
v 0.015627 0.022185 -0.055576
v 0.003339 0.027781 -0.058431
v 0.006303 0.025687 -0.058023
v 0.001784 0.012034 -0.052432
v 0.015927 0.013792 -0.051366
v 0.032279 0.041734 -0.048959
v 0.003639 0.017057 -0.055695
v 0.003475 0.011523 -0.052058
v 0.002292 0.008514 -0.049086
v 0.018869 0.041734 -0.055518
vn 0.7681 -0.0020 0.6404
vn 0.6309 -0.5758 -0.5200
vn 0.7491 -0.5533 -0.3644
vn -0.4030 0.3988 0.8238
vn -0.2970 0.2640 0.9177
vn 0.6981 -0.6806 -0.2226
vn 0.5146 -0.5858 -0.6261
vn 0.4341 -0.1112 -0.8940
vn -0.0000 0.0016 1.0000
vn 0.1626 -0.2362 -0.9580
vn 0.9035 -0.0035 -0.4286
vn 0.1454 -0.5464 -0.8248
vn 0.9070 -0.3042 -0.2913
vn -0.1324 -0.4135 -0.9008
vn -0.0272 0.1091 0.9937
vn -0.2212 -0.6976 -0.6815
vn 0.7707 -0.1587 -0.6171
vn 0.6575 0.0032 -0.7535
vn 0.6101 -0.3868 -0.6914
vn 0.4394 -0.0035 -0.8983
vn 0.1260 -0.0151 -0.9919
vn -0.3549 -0.5391 -0.7638
vn 0.5565 -0.6973 -0.4518
vn -0.2083 -0.1029 -0.9726
vn 0.4157 -0.3801 -0.8263
vn 0.0189 -0.5496 -0.8352
vn 0.9558 -0.1239 0.2667
vn 0.2003 -0.0047 -0.9797
vn 0.8142 -0.4396 -0.3793
vn -0.1350 0.0042 -0.9908
vn 0.6563 -0.2502 -0.7118
vn 0.5681 -0.1356 -0.8117
vn 0.9060 -0.1107 -0.4085
vn 0.3492 -0.5940 -0.7247
vn -0.4190 -0.0191 -0.9078
vn 0.6710 -0.4216 -0.6099
vn 0.2157 -0.1040 -0.9709
vn 0.4443 -0.7516 -0.4875
vn 0.4631 -0.6864 -0.5607
vn -0.0495 -0.6919 -0.7203
vn 0.1572 -0.3461 -0.9249
vn 0.1677 -0.3709 -0.9134
vn 0.2954 -0.7314 -0.6147
vn 0.2934 -0.7555 -0.5857
vn 0.6227 -0.5681 -0.5381
vn 0.2530 -0.3525 -0.9010
vn -0.3885 -0.2874 -0.8755
vn 0.5302 -0.5683 -0.6292
vn 0.4263 -0.1303 -0.8951
vn -0.0034 -1.0000 -0.0004
vn -0.0003 1.0000 -0.0001
vn -0.0000 1.0000 0.0001
vn -0.0001 1.0000 0.0001
vn -0.0000 1.0000 0.0007
vn 0.9033 -0.0038 -0.4290
vn 0.1605 -0.5135 -0.8429
vn 0.7080 -0.4086 -0.5760
vn -0.0000 0.1152 0.9933
vn -0.2493 -0.6859 -0.6836
vn 0.1553 -0.6173 -0.7712
vn 0.6484 -0.0069 -0.7613
vn 0.6759 -0.7305 -0.0976
vn 0.5929 -0.4076 -0.6945
vn 0.4370 -0.0063 -0.8994
vn -0.0000 1.0000 -0.0000
vn 0.2552 -0.5112 -0.8207
vn 0.7154 -0.2251 -0.6615
vn 0.2773 -0.5702 -0.7733
vn 0.6346 -0.0989 -0.7665
vn 0.3319 -0.4052 -0.8518
vn 0.5102 -0.3699 -0.7764
vn 0.4136 -0.3835 -0.8258
vn 1.0000 0.0022 -0.0049
vn 1.0000 -0.0052 -0.0006
vn -1.0000 -0.0059 -0.0012
vn 1.0000 0.0007 0.0018
vn -1.0000 0.0020 -0.0044
vn 0.2011 -0.0038 -0.9796
vn -0.1099 -0.0014 -0.9939
vn -0.1095 -0.0838 -0.9905
vn 0.7432 -0.0175 -0.6689
vn 0.1246 -0.7216 -0.6810
vn 0.1340 -0.7074 -0.6940
vn 0.9075 -0.1049 -0.4067
vn 0.3766 -0.5642 -0.7347
vn -0.1258 -0.5073 -0.8525
vn 0.0553 -0.1152 -0.9918
vn 0.3045 -0.1531 -0.9401
vn 0.9082 -0.1110 -0.4035
vn 0.9061 -0.1057 -0.4096
vn -1.0000 0.0001 -0.0001
vn -0.9997 -0.0111 -0.0224
vn -1.0000 -0.0001 -0.0003
vn -0.0000 1.0000 -0.0001
vn -0.0008 1.0000 0.0008
vn -0.0003 1.0000 0.0004
vn -0.2308 -0.6877 -0.6883
vn -0.2470 -0.6932 -0.6771
vn -0.0004 1.0000 0.0009
s 0
f 1//1 2//1 3//1
f 13//2 14//2 6//2
f 14//3 2//3 6//3
f 5//4 11//4 12//4
f 5//5 12//5 10//5
f 2//6 18//6 6//6
f 21//7 13//7 20//7
f 26//8 39//8 32//8
f 2//9 10//9 15//9
f 34//10 42//10 40//10
f 4//11 1//11 3//11
f 44//12 47//12 46//12
f 7//13 8//13 2//13
f 46//14 28//14 34//14
f 2//15 5//15 10//15
f 17//16 36//16 43//16
f 9//17 7//17 25//17
f 25//18 45//18 4//18
f 24//19 23//19 22//19
f 32//20 49//20 45//20
f 41//21 35//21 42//21
f 43//22 36//22 28//22
f 18//23 13//23 6//23
f 27//24 33//24 34//24
f 26//25 21//25 31//25
f 47//26 43//26 46//26
f 8//27 3//27 2//27
f 35//28 39//28 42//28
f 14//29 7//29 2//29
f 33//30 16//30 35//30
f 24//31 25//31 23//31
f 24//32 26//32 32//32
f 8//33 9//33 3//33
f 30//34 20//34 29//34
f 33//35 27//35 16//35
f 14//36 22//36 23//36
f 40//37 42//37 39//37
f 18//38 19//38 13//38
f 19//39 20//39 13//39
f 48//40 43//40 47//40
f 34//41 40//41 46//41
f 40//42 38//42 46//42
f 29//43 20//43 37//43
f 20//44 19//44 37//44
f 13//45 22//45 14//45
f 40//46 31//46 38//46
f 28//47 27//47 34//47
f 21//48 22//48 13//48
f 26//49 31//49 39//49
f 12//50 17//50 48//50
f 48//51 12//51 37//51
f 12//52 10//52 37//52
f 37//53 10//53 19//53
f 19//53 10//53 18//53
f 10//54 15//54 18//54
f 9//55 4//55 3//55
f 46//56 38//56 44//56
f 7//57 14//57 23//57
f 2//58 1//58 5//58
f 43//59 48//59 17//59
f 44//60 29//60 47//60
f 25//61 32//61 45//61
f 2//62 15//62 18//62
f 22//63 21//63 24//63
f 32//64 39//64 49//64
f 4//65 45//65 5//65
f 45//65 49//65 11//65
f 49//65 35//65 11//65
f 35//65 16//65 11//65
f 11//65 5//65 45//65
f 5//65 1//65 4//65
f 38//66 30//66 44//66
f 23//67 25//67 7//67
f 44//68 30//68 29//68
f 24//69 32//69 25//69
f 30//70 38//70 31//70
f 26//71 24//71 21//71
f 21//72 30//72 31//72
f 27//73 11//73 28//73
f 28//74 12//74 36//74
f 36//75 17//75 12//75
f 12//76 28//76 11//76
f 11//77 16//77 27//77
f 35//78 49//78 39//78
f 35//79 41//79 33//79
f 33//80 41//80 34//80
f 4//81 9//81 25//81
f 37//82 48//82 47//82
f 47//83 29//83 37//83
f 8//84 7//84 9//84
f 30//85 21//85 20//85
f 43//86 28//86 46//86
f 42//87 34//87 41//87
f 40//88 39//88 31//88
f 45//65 49//65 4//65
f 49//65 35//65 4//65
f 35//65 16//65 4//65
f 16//65 11//65 4//65
f 11//65 5//65 4//65
f 8//89 7//89 3//89
f 7//90 9//90 3//90
f 27//91 12//91 11//91
f 28//92 36//92 27//92
f 36//93 12//93 27//93
f 48//94 12//94 10//94
f 48//94 10//94 15//94
f 19//95 15//95 18//95
f 48//96 15//96 19//96
f 43//97 48//97 36//97
f 48//98 17//98 36//98
f 37//99 48//99 19//99
