# Blender 4.0.0
# www.blender.org
o decimated_mesh
v 0.004136 0.196652 -0.058262
v 0.000022 0.196666 -0.057740
v 0.002099 0.200260 -0.057814
v 0.003453 0.205869 -0.055585
v 0.006414 0.199190 -0.057658
v -0.000003 0.199377 -0.057319
v 0.000022 0.205386 -0.055226
v 0.015804 0.200186 -0.055557
v 0.001334 0.208690 -0.053623
v 0.019527 0.201950 -0.053861
v 0.018732 0.196673 -0.055350
v -0.000009 0.196654 -0.049658
v 0.003507 0.211526 -0.051680
v 0.016221 0.206532 -0.052924
v 0.000008 0.211410 -0.051108
v 0.019806 0.206993 -0.051317
v 0.032219 0.200335 -0.048122
v 0.032141 0.196662 -0.048787
v -0.000009 0.212921 -0.035097
v 0.041096 0.196655 -0.027776
v 0.017272 0.211258 -0.049115
v 0.028123 0.211399 -0.043700
v 0.030277 0.206835 -0.046162
v -0.000009 0.214887 -0.034349
v 0.020353 0.213885 -0.027776
v 0.051120 0.196653 -0.027775
v 0.015072 0.215661 -0.045156
v 0.042801 0.201142 -0.038445
v 0.003339 0.215962 -0.047118
v 0.026068 0.215502 -0.040053
v 0.037907 0.211255 -0.035679
v 0.040109 0.206817 -0.037881
v 0.043638 0.196668 -0.039016
v 0.044671 0.201912 -0.035882
v 0.012021 0.222506 -0.037385
v -0.000009 0.222838 -0.038565
v 0.005561 0.222755 -0.038359
v 0.019468 0.222654 -0.033769
v 0.026753 0.223000 -0.027776
v 0.040039 0.211174 -0.033387
v 0.042241 0.206718 -0.035583
v 0.007300 0.223299 -0.036662
v -0.000009 0.223303 -0.036675
v 0.036473 0.215553 -0.030767
v 0.047834 0.204821 -0.027767
v 0.050282 0.199689 -0.027776
v 0.020744 0.222354 -0.027775
v 0.014449 0.223272 -0.034452
v -0.000009 0.222716 -0.035088
v 0.023342 0.223210 -0.027776
v 0.036240 0.216166 -0.027776
v -0.000009 0.221139 -0.034464
vn -0.3798 0.5215 -0.7641
vn 0.6965 0.7117 -0.0914
vn 0.0346 0.7855 -0.6179
vn 0.2647 0.7728 -0.5768
vn 0.5206 0.5823 -0.6244
vn 0.1723 0.3609 -0.9166
vn -0.1254 0.0523 -0.9907
vn 0.1581 0.5981 -0.7857
vn -0.3002 -0.3615 0.8827
vn 0.6136 0.5717 -0.5446
vn -0.3687 -0.6200 0.6926
vn 0.1952 0.0577 -0.9791
vn 0.5803 0.8056 -0.1197
vn -0.1990 0.7243 -0.6602
vn -1.0000 -0.0000 -0.0000
vn 0.5937 0.3897 -0.7041
vn 0.2409 0.3584 -0.9019
vn 0.5284 0.7093 -0.4665
vn 0.6501 0.2147 -0.7289
vn 0.6864 0.3855 -0.6166
vn 0.1065 0.9370 -0.3327
vn 0.7342 0.5553 -0.3906
vn 0.3731 0.7824 -0.4986
vn 0.1439 0.7004 -0.6991
vn -0.3066 0.0140 0.9517
vn -0.0055 0.5681 -0.8229
vn 0.0234 0.9708 -0.2388
vn 0.0005 1.0000 0.0090
vn 0.4111 0.3924 -0.8228
vn 0.7821 0.4239 -0.4567
vn -0.1275 0.9302 0.3442
vn -0.3059 0.3502 0.8853
vn -0.2285 0.6940 0.6827
vn -0.0013 1.0000 -0.0009
vn -0.0003 1.0000 0.0023
vn -0.0013 1.0000 0.0008
vn 0.0002 1.0000 0.0012
vn -0.0002 1.0000 0.0004
vn -0.0036 -1.0000 -0.0014
vn 0.7003 0.6867 -0.1949
vn -0.2837 0.1446 -0.9479
vn 0.2796 0.7663 -0.5785
vn -0.1578 0.4811 -0.8624
vn 0.5285 0.5731 -0.6263
vn 0.3554 0.5868 -0.7276
vn 0.3698 0.5701 -0.7336
vn 0.1656 0.3686 -0.9147
vn 0.1184 0.3418 -0.9323
vn 0.4511 0.7327 -0.5095
vn 0.4314 0.7590 -0.4876
vn 0.4539 0.7082 -0.5408
vn 0.4244 0.1861 -0.8861
vn 0.4346 0.1516 -0.8878
vn -0.3041 -0.3385 0.8905
vn 0.3283 0.4109 -0.8505
vn 0.6096 0.5739 -0.5468
vn 0.2054 0.1141 -0.9720
vn -0.1368 0.7077 -0.6932
vn 0.1408 0.5615 -0.8154
vn 0.2757 0.5653 -0.7775
vn 1.0000 -0.0007 0.0044
vn 1.0000 -0.0039 -0.0006
vn -1.0000 -0.0087 -0.0039
vn 1.0000 -0.0011 0.0012
vn 1.0000 0.0004 0.0011
vn -0.0002 0.0001 -1.0000
vn -0.0000 -0.0000 -1.0000
vn -0.0000 -0.0011 1.0000
vn 0.0108 0.0033 0.9999
vn 0.0010 0.0002 -1.0000
vn -0.0000 0.0015 1.0000
vn 0.3199 0.2123 -0.9234
vn 0.6426 0.1233 -0.7562
vn 0.6141 0.3611 -0.7017
vn 0.6845 0.3862 -0.6184
vn 0.1505 0.9594 -0.2383
vn 0.1632 0.9132 -0.3735
vn 0.7554 0.2202 -0.6172
vn 0.1334 0.7130 -0.6884
vn 0.1242 0.7686 -0.6275
vn 0.1247 0.7683 -0.6278
vn -0.1453 0.6326 -0.7607
vn 0.0941 0.9158 -0.3904
vn -0.3077 0.0175 0.9513
vn 0.0011 0.9519 -0.3065
vn 0.0764 0.1653 -0.9833
vn 0.0613 0.9955 -0.0725
vn 0.0017 1.0000 0.0070
vn 0.4212 0.3749 -0.8259
vn 0.8049 0.3849 -0.4516
vn -0.3394 0.3106 -0.8879
vn -0.1504 0.3962 -0.9058
vn 0.3040 0.7165 -0.6279
vn 0.3034 0.7135 -0.6316
vn 0.8317 0.1549 -0.5332
vn 0.8115 0.2237 -0.5398
vn -0.0030 1.0000 0.0079
vn -0.0007 1.0000 0.0011
vn 0.0001 1.0000 -0.0002
vn -1.0000 0.0003 -0.0007
vn 0.0002 1.0000 -0.0005
vn 0.1674 0.3592 -0.9181
vn -0.0039 1.0000 0.0039
vn 0.8212 0.1648 -0.5463
vn 0.8287 0.2285 -0.5110
vn -1.0000 0.0031 -0.0042
vn 0.0009 0.9711 -0.2389
vn 0.0263 0.9437 -0.3298
vn -0.9998 0.0108 -0.0192
vn 0.0006 0.0006 -1.0000
vn 0.1714 0.3679 -0.9139
vn -0.0023 -0.0032 -1.0000
vn -0.0001 -0.0006 -1.0000
vn 0.0004 0.0001 -1.0000
vn 0.3022 0.7164 -0.6288
vn 0.3053 0.7136 -0.6306
s 0
f 15//1 9//1 7//1
f 45//2 44//2 51//2
f 36//3 37//3 29//3
f 35//4 38//4 27//4
f 31//5 23//5 22//5
f 5//6 4//6 14//6
f 1//7 2//7 3//7
f 14//8 13//8 21//8
f 25//9 19//9 20//9
f 32//10 40//10 41//10
f 12//11 20//11 19//11
f 11//12 1//12 5//12
f 39//13 51//13 44//13
f 29//14 15//14 36//14
f 19//15 24//15 36//15
f 17//16 23//16 32//16
f 14//17 10//17 8//17
f 31//18 44//18 40//18
f 28//19 33//19 17//19
f 28//20 41//20 34//20
f 35//21 42//21 48//21
f 45//22 41//22 40//22
f 38//23 39//23 30//23
f 27//24 21//24 13//24
f 47//25 24//25 25//25
f 9//26 13//26 4//26
f 43//27 37//27 36//27
f 42//28 43//28 50//28
f 23//29 10//29 16//29
f 45//30 34//30 41//30
f 43//31 49//31 50//31
f 49//32 52//32 47//32
f 49//33 47//33 50//33
f 1//34 12//34 11//34
f 11//35 12//35 18//35
f 18//36 20//36 33//36
f 26//37 33//37 20//37
f 20//38 18//38 12//38
f 2//39 1//39 12//39
f 40//40 44//40 45//40
f 3//41 2//41 6//41
f 30//42 27//42 38//42
f 7//43 9//43 4//43
f 31//44 32//44 23//44
f 21//45 22//45 16//45
f 22//46 23//46 16//46
f 8//47 5//47 14//47
f 3//48 4//48 5//48
f 44//49 31//49 30//49
f 39//50 44//50 30//50
f 31//51 22//51 30//51
f 10//52 17//52 11//52
f 17//53 18//53 11//53
f 25//54 24//54 19//54
f 10//55 14//55 16//55
f 32//56 31//56 40//56
f 5//57 8//57 11//57
f 29//58 13//58 15//58
f 4//59 13//59 14//59
f 21//60 16//60 14//60
f 15//61 12//61 7//61
f 7//62 12//62 6//62
f 6//63 2//63 12//63
f 12//64 15//64 19//64
f 24//15 52//15 36//15
f 52//15 49//15 43//15
f 36//15 52//15 43//15
f 36//65 19//65 15//65
f 47//66 39//66 25//66
f 25//67 51//67 20//67
f 20//68 26//68 45//68
f 46//69 45//69 26//69
f 45//70 20//70 51//70
f 51//67 25//67 39//67
f 47//71 39//71 50//71
f 10//72 11//72 8//72
f 17//73 33//73 18//73
f 32//74 28//74 17//74
f 28//75 32//75 41//75
f 48//76 39//76 38//76
f 38//77 35//77 48//77
f 34//78 33//78 28//78
f 13//79 29//79 27//79
f 29//80 37//80 35//80
f 29//81 35//81 27//81
f 13//82 9//82 15//82
f 35//83 37//83 42//83
f 47//84 52//84 24//84
f 43//85 42//85 37//85
f 3//86 5//86 1//86
f 39//87 48//87 50//87
f 48//88 42//88 50//88
f 23//89 17//89 10//89
f 45//90 46//90 34//90
f 3//91 6//91 7//91
f 4//92 3//92 7//92
f 22//93 21//93 27//93
f 30//94 22//94 27//94
f 34//95 46//95 33//95
f 46//96 26//96 33//96
f 11//97 1//97 18//97
f 18//98 1//98 26//98
f 26//99 1//99 12//99
f 19//15 24//15 52//15
f 19//15 52//15 49//15
f 19//15 49//15 43//15
f 19//15 43//15 36//15
f 19//15 36//15 12//15
f 36//100 6//100 12//100
f 26//101 12//101 20//101
f 4//102 8//102 5//102
f 33//103 18//103 26//103
f 33//104 34//104 26//104
f 34//105 46//105 26//105
f 15//106 6//106 36//106
f 43//107 42//107 36//107
f 42//108 37//108 36//108
f 15//109 7//109 6//109
f 45//110 20//110 25//110
f 14//111 8//111 4//111
f 51//112 45//112 39//112
f 39//113 45//113 47//113
f 47//114 45//114 25//114
f 30//115 21//115 27//115
f 30//116 22//116 21//116
