# Blender 4.0.0
# www.blender.org
o decimated_mesh
v 0.034343 0.214888 0.000036
v 0.018938 0.214988 0.028629
v 0.019105 0.221140 0.028628
v 0.034862 0.222487 0.000036
v 0.035097 0.212921 0.000036
v 0.036672 0.223305 0.000036
v 0.019720 0.222501 0.028628
v 0.019680 0.213152 0.028628
v 0.049214 0.198536 0.000036
v 0.038558 0.222841 0.000036
v 0.022494 0.223234 0.028628
v 0.040011 0.198536 0.028628
v 0.057651 0.198537 0.000113
v 0.035666 0.223310 0.011637
v 0.047117 0.215962 0.003336
v 0.025905 0.223014 0.028617
v 0.049647 0.198536 0.028628
v 0.044960 0.215765 0.015296
v 0.038355 0.222756 0.005558
v 0.033135 0.222661 0.020590
v 0.037398 0.222520 0.011802
v 0.049089 0.211298 0.017270
v 0.055094 0.198535 0.018566
v 0.048949 0.202414 0.028628
v 0.057806 0.200282 0.002090
v 0.039988 0.215546 0.026075
v 0.051629 0.211617 0.003268
v 0.043048 0.211794 0.028634
v 0.053755 0.202120 0.019630
v 0.055528 0.200271 0.015812
v 0.046810 0.206898 0.028628
v 0.055578 0.204710 0.000085
v 0.055606 0.205826 0.003473
v 0.051393 0.206990 0.019654
v 0.053234 0.205770 0.016396
v 0.053734 0.208558 0.001446
v 0.057963 0.198581 0.005123
v 0.051677 0.210803 0.000041
vn -0.0000 -0.0000 1.0000
vn 0.7335 0.5633 0.3803
vn -0.8801 0.0239 -0.4742
vn -0.6674 -0.6549 -0.3545
vn -0.2538 0.9593 -0.1235
vn -0.5737 -0.7980 -0.1847
vn -0.0000 1.0000 -0.0087
vn 0.9028 0.3502 0.2496
vn 0.7730 0.6178 -0.1443
vn 0.6264 0.7179 0.3036
vn 0.9979 -0.0187 -0.0619
vn 0.8123 0.5632 0.1516
vn 0.6279 0.7680 0.1258
vn 0.7894 0.5029 -0.3520
vn 0.6823 0.7112 -0.1693
vn 0.7945 0.5577 0.2400
vn 0.2470 0.9688 0.0209
vn 0.8350 0.3200 0.4476
vn 0.8243 0.5661 0.0016
vn 0.4749 0.7263 0.4970
vn 0.8161 0.3938 0.4230
vn 0.6179 0.7855 0.0348
vn 0.8644 0.1840 0.4680
vn -0.0000 0.0001 1.0000
vn -0.0003 0.0001 1.0000
vn 0.0091 -0.0014 -1.0000
vn -0.0004 -0.0004 1.0000
vn -0.0002 -0.0003 1.0000
vn 0.0007 -0.0006 1.0000
vn -0.0002 0.0012 1.0000
vn 0.0012 0.0004 1.0000
vn 0.0032 -0.0013 1.0000
vn 0.8510 0.4112 0.3268
vn 0.7252 0.5870 0.3599
vn -0.8754 0.0598 -0.4796
vn -0.0063 1.0000 0.0020
vn -0.0000 -1.0000 0.0001
vn -0.0001 -1.0000 -0.0000
vn 0.9185 0.2528 0.3041
vn 0.4845 0.7768 0.4023
vn 0.6293 0.7156 0.3033
vn 0.5715 0.7767 0.2648
vn 0.5742 0.7692 0.2805
vn 0.8018 0.5761 0.1586
vn 0.9179 0.3670 0.1510
vn 0.9318 0.3350 0.1398
vn 0.9248 0.3398 0.1712
vn 0.6948 0.7050 0.1421
vn 0.6882 0.7127 0.1358
vn 0.6276 0.7684 0.1251
vn 0.8940 0.2988 -0.3338
vn 0.1837 0.9753 0.1226
vn 0.3943 0.9018 0.1769
vn 0.6607 0.7199 -0.2128
vn 0.0645 0.9964 0.0545
vn -0.0072 1.0000 -0.0011
vn 0.2386 0.9708 0.0237
vn 0.8299 0.3353 0.4459
vn 0.9742 0.0867 0.2082
vn -0.8206 0.3709 -0.4348
vn -0.4021 0.8904 -0.2134
vn 0.4053 0.9091 0.0964
vn 0.8183 0.3903 0.4219
vn 0.8661 0.4727 -0.1628
vn 0.9084 0.3949 -0.1375
vn 0.8732 0.1571 0.4613
vn 0.8303 0.3355 0.4450
vn 0.8346 0.3198 0.4485
vn 0.0001 -0.0000 1.0000
vn -0.0002 -0.0002 1.0000
vn -0.0002 -0.0000 1.0000
vn 0.2386 0.9709 0.0202
vn -0.0001 1.0000 0.0001
vn -0.0007 -0.0003 1.0000
vn -0.0000 -0.0004 1.0000
vn 0.0037 0.0072 1.0000
vn -0.0001 0.0003 1.0000
vn -0.0002 0.0001 1.0000
vn 0.0013 0.0002 1.0000
vn 0.0037 0.0018 1.0000
vn 0.2540 0.9669 0.0242
vn -0.0439 0.9990 -0.0060
vn 0.8688 0.1886 0.4579
vn 0.8686 0.1563 0.4703
vn 0.8175 0.3899 0.4239
vn 0.8168 0.3942 0.4211
vn 0.9158 0.3641 0.1697
vn 0.9279 0.3378 0.1579
s 0
f 1//1 5//1 10//1
f 31//2 34//2 28//2
f 1//3 2//3 3//3
f 5//4 9//4 8//4
f 6//5 7//5 11//5
f 8//6 9//6 12//6
f 13//7 9//7 37//7
f 35//8 29//8 30//8
f 38//9 27//9 36//9
f 26//10 28//10 18//10
f 13//11 25//11 37//11
f 35//12 33//12 27//12
f 15//13 21//13 18//13
f 38//14 36//14 32//14
f 38//15 15//15 27//15
f 22//16 34//16 35//16
f 14//17 19//17 6//17
f 8//18 5//18 1//18
f 27//19 33//19 36//19
f 16//20 28//20 26//20
f 34//21 24//21 29//21
f 19//22 15//22 10//22
f 17//23 23//23 29//23
f 1//1 10//1 4//1
f 6//24 4//24 10//24
f 10//25 5//25 38//25
f 38//26 32//26 9//26
f 32//26 13//26 9//26
f 9//27 38//27 5//27
f 3//1 2//1 11//1
f 7//1 3//1 11//1
f 8//28 12//28 28//28
f 12//1 17//1 24//1
f 24//1 31//1 12//1
f 31//29 28//29 12//29
f 28//30 16//30 8//30
f 8//31 16//31 2//31
f 16//32 11//32 2//32
f 34//33 29//33 35//33
f 22//34 28//34 34//34
f 3//35 4//35 1//35
f 37//36 9//36 23//36
f 23//37 17//37 12//37
f 12//38 9//38 23//38
f 30//39 29//39 23//39
f 20//40 16//40 26//40
f 28//41 22//41 18//41
f 21//42 20//42 18//42
f 20//43 26//43 18//43
f 22//44 35//44 27//44
f 30//45 37//45 35//45
f 25//46 33//46 37//46
f 37//47 33//47 35//47
f 22//48 27//48 18//48
f 27//49 15//49 18//49
f 15//50 19//50 21//50
f 13//51 32//51 25//51
f 14//52 16//52 20//52
f 20//53 21//53 14//53
f 38//54 10//54 15//54
f 16//55 14//55 11//55
f 11//56 14//56 6//56
f 19//57 10//57 6//57
f 8//58 1//58 2//58
f 23//59 37//59 30//59
f 4//60 3//60 7//60
f 7//61 6//61 4//61
f 21//62 19//62 14//62
f 34//63 31//63 24//63
f 32//64 36//64 33//64
f 33//65 25//65 32//65
f 29//66 24//66 17//66
f 8//67 5//67 2//67
f 2//68 5//68 1//68
f 1//1 5//1 4//1
f 4//69 5//69 6//69
f 6//1 9//1 10//1
f 6//1 5//1 9//1
f 28//70 2//70 8//70
f 28//71 3//71 2//71
f 14//72 10//72 6//72
f 13//73 9//73 23//73
f 10//74 9//74 38//74
f 17//75 28//75 12//75
f 16//76 11//76 28//76
f 11//77 7//77 28//77
f 7//78 3//78 28//78
f 17//79 24//79 28//79
f 24//80 31//80 28//80
f 19//81 10//81 14//81
f 37//82 13//82 23//82
f 29//83 24//83 23//83
f 24//84 17//84 23//84
f 29//85 31//85 24//85
f 29//86 34//86 31//86
f 35//87 30//87 33//87
f 30//88 37//88 33//88
