# Blender 4.0.0
# www.blender.org
o decimated_mesh
v -0.045110 0.041734 -0.035708
v -0.039494 0.041734 -0.043475
v -0.034938 0.041734 -0.035708
v -0.000009 0.041734 -0.049967
v -0.000009 0.196654 -0.049661
v -0.034457 0.196654 -0.035708
v -0.044899 0.196631 -0.035710
v -0.000009 0.041734 -0.057911
v -0.000009 0.196600 -0.057709
v -0.026057 0.041734 -0.052551
v -0.010418 0.041734 -0.057833
v -0.019267 0.196636 -0.055832
v -0.039354 0.196602 -0.043313
vn -0.0000 1.0000 -0.0000
vn -0.0023 1.0000 -0.0054
vn -1.0000 -0.0000 -0.0000
vn -0.0970 0.0073 -0.9953
vn -0.3754 0.0018 -0.9269
vn -0.0000 -0.0000 -1.0000
vn -0.8104 0.0011 -0.5859
vn -0.0000 -1.0000 -0.0000
vn 0.0012 1.0000 -0.0067
vn -0.0005 1.0000 -0.0013
vn -0.0043 1.0000 -0.0041
vn -0.0075 0.0013 -1.0000
vn -0.3780 0.0012 -0.9258
vn 0.0002 -0.0000 -1.0000
vn -0.3200 -0.0060 -0.9474
vn -0.8079 0.0013 -0.5893
vn -0.5597 0.0070 -0.8287
vn -0.5289 0.0014 -0.8487
vn -0.5597 0.0014 -0.8287
vn -0.3780 0.0018 -0.9258
vn -0.3754 0.0012 -0.9269
vn -0.0023 1.0000 -0.0026
vn -0.0074 0.9999 -0.0092
vn -0.5289 0.0052 -0.8486
s 0
f 3//1 2//1 1//1
f 13//2 7//2 6//2
f 5//3 9//3 4//3
f 11//4 12//4 9//4
f 6//5 5//5 4//5
f 7//6 3//6 1//6
f 2//7 1//7 7//7
f 2//1 3//1 10//1
f 10//1 4//1 11//1
f 11//8 8//8 4//8
f 4//1 10//1 3//1
f 9//9 12//9 5//9
f 5//10 12//10 6//10
f 12//11 13//11 6//11
f 4//3 9//3 8//3
f 9//12 8//12 11//12
f 6//13 4//13 3//13
f 3//14 7//14 6//14
f 11//15 10//15 12//15
f 13//16 2//16 7//16
f 10//17 2//17 12//17
f 2//18 13//18 12//18
f 2//1 1//1 11//1
f 11//1 1//1 3//1
f 3//6 1//6 6//6
f 6//14 1//14 7//14
f 13//19 10//19 2//19
f 10//1 2//1 11//1
f 4//1 11//1 3//1
f 4//20 3//20 5//20
f 5//21 3//21 6//21
f 12//22 7//22 6//22
f 12//23 13//23 7//23
f 12//24 10//24 13//24
f 5//3 9//3 8//3
f 5//3 8//3 4//3
