# Blender 4.0.0
# www.blender.org
o decimated_mesh
v -0.000059 0.041734 0.058018
v -0.000009 0.041734 0.049965
v -0.000014 0.011086 0.037384
v -0.038768 0.041734 0.031473
v -0.000023 0.024802 0.057694
v -0.020165 0.011086 0.031470
v -0.047509 0.041734 0.031473
v -0.004307 0.041734 0.058518
v -0.004011 0.028220 0.058473
v -0.000055 0.017064 0.055181
v -0.000022 0.011094 0.050927
v -0.040238 0.011086 0.031477
v -0.044955 0.041734 0.037588
v -0.006667 0.024451 0.057782
v -0.002344 0.022169 0.057834
v -0.002289 0.013363 0.053465
v -0.043910 0.016679 0.031470
v -0.047398 0.027781 0.031473
v -0.018653 0.027761 0.055517
v -0.003632 0.017060 0.055700
v -0.002512 0.011087 0.051701
v -0.039412 0.011085 0.033864
v -0.042527 0.015517 0.034683
v -0.046375 0.021926 0.031470
v -0.044600 0.020193 0.035702
v -0.044840 0.023102 0.036663
v -0.044536 0.027205 0.037947
v -0.018871 0.041734 0.055518
v -0.018256 0.021382 0.054708
v -0.016392 0.017432 0.053511
v -0.032093 0.027881 0.049001
v -0.031017 0.022447 0.048856
v -0.016021 0.013757 0.051320
v -0.039958 0.015574 0.037773
v -0.042730 0.021115 0.038363
v -0.042574 0.025755 0.040030
v -0.032298 0.041734 0.048947
v -0.033584 0.021760 0.046879
v -0.020044 0.015508 0.051156
v -0.017188 0.011087 0.048901
v -0.027573 0.011086 0.043924
v -0.030323 0.015890 0.046183
v -0.042544 0.041734 0.040296
vn -0.0000 1.0000 -0.0000
vn -0.0000 -0.0001 1.0000
vn 0.4038 0.3474 -0.8463
vn 0.2776 0.1686 -0.9458
vn -0.6630 -0.4278 0.6143
vn -0.4115 -0.3811 0.8279
vn -0.1443 -0.5499 0.8227
vn -0.7468 -0.0096 0.6650
vn -0.2017 -0.0032 0.9794
vn -0.9312 -0.1813 0.3163
vn -0.2569 -0.5139 0.8185
vn -0.3771 -0.5620 0.7362
vn -0.5233 -0.5891 0.6158
vn -0.7436 -0.2643 0.6142
vn -0.8735 -0.4349 0.2188
vn -0.6451 -0.0115 0.7640
vn -0.5814 -0.1365 0.8021
vn -0.1696 -0.3000 0.9388
vn -0.4396 -0.0030 0.8982
vn -0.2201 -0.1362 0.9659
vn -0.8253 -0.5417 0.1594
vn -0.2811 -0.5740 0.7691
vn -0.7653 -0.5868 0.2645
vn -0.4344 -0.1099 0.8940
vn -0.1404 -0.5978 0.7893
vn -0.6531 -0.2366 0.7194
vn 0.0006 -0.0004 1.0000
vn -0.0000 -0.0000 1.0000
vn 0.0001 0.0001 -1.0000
vn -0.0003 -0.0016 -1.0000
vn 0.1314 -0.4100 0.9025
vn -0.6972 -0.4113 0.5872
vn -0.0001 1.0000 -0.0000
vn -0.0000 -1.0000 -0.0003
vn 0.0029 -1.0000 0.0005
vn 1.0000 -0.0055 0.0041
vn 1.0000 0.0051 0.0006
vn 1.0000 -0.0005 0.0008
vn 1.0000 0.0020 0.0061
vn -0.4150 -0.3749 0.8290
vn -0.3297 -0.4130 0.8490
vn -0.5022 -0.3715 0.7809
vn -0.1594 -0.5173 0.8408
vn -0.7295 -0.0041 0.6840
vn 0.1355 -0.0670 0.9885
vn 0.1763 -0.0184 0.9842
vn 0.1169 -0.0008 0.9931
vn -0.1976 -0.0076 0.9803
vn -0.6381 -0.5484 0.5405
vn -0.9354 -0.1636 0.3135
vn -0.1645 -0.3445 0.9243
vn -0.1681 -0.3578 0.9185
vn -0.3475 -0.5945 0.7252
vn -0.6154 -0.3813 0.6898
vn -0.5918 -0.4109 0.6935
vn 0.3789 -0.2873 0.8797
vn -0.5162 -0.5973 0.6138
vn -0.7259 -0.2109 0.6547
vn -0.8866 -0.4164 0.2013
vn 0.3157 -0.5494 0.7736
vn -0.7674 -0.1390 0.6259
vn -0.6495 -0.0066 0.7604
vn 0.1266 -0.4792 0.8685
vn -0.6331 -0.1115 0.7660
vn -0.4363 -0.0069 0.8998
vn -0.0783 -0.1260 0.9889
vn -0.1964 -0.0410 0.9797
vn 0.2368 -0.6094 0.7567
vn -0.4224 -0.1399 0.8956
vn -0.1458 -0.6285 0.7640
vn -0.9227 -0.0074 0.3855
vn -0.9150 -0.0164 0.4030
vn -0.9150 -0.0572 0.3994
vn -0.0000 1.0000 -0.0001
vn 1.0000 -0.0004 0.0009
vn 1.0000 -0.0004 0.0006
vn 0.0027 -0.0000 1.0000
vn -0.7468 -0.0051 0.6650
vn -0.7314 -0.0099 0.6818
vn -0.6489 -0.0114 0.7608
vn -0.6452 -0.0066 0.7640
vn -0.4120 -0.3764 0.8298
vn -0.4141 -0.3808 0.8267
vn 0.9996 -0.0122 0.0248
vn -0.0000 1.0000 0.0001
vn -0.5205 -0.5888 0.6184
vn -0.5199 -0.5961 0.6118
vn -0.0002 1.0000 0.0002
vn -0.6895 -0.4323 0.5811
vn -0.6766 -0.4040 0.6156
s 0
f 28//1 8//1 2//1
f 17//2 4//2 24//2
f 2//3 3//3 4//3
f 3//4 6//4 4//4
f 23//5 35//5 25//5
f 29//6 32//6 42//6
f 33//7 16//7 20//7
f 13//8 36//8 43//8
f 19//9 8//9 28//9
f 26//10 24//10 25//10
f 33//11 30//11 39//11
f 41//12 39//12 42//12
f 42//13 22//13 41//13
f 25//14 35//14 26//14
f 25//15 17//15 23//15
f 36//16 37//16 43//16
f 38//17 32//17 31//17
f 15//18 14//18 29//18
f 31//19 28//19 37//19
f 19//20 29//20 14//20
f 23//21 17//21 12//21
f 33//22 39//22 40//22
f 22//23 23//23 12//23
f 32//24 19//24 31//24
f 33//25 21//25 16//25
f 36//26 35//26 38//26
f 8//1 1//1 2//1
f 2//1 4//1 28//1
f 4//1 7//1 13//1
f 13//1 43//1 4//1
f 43//1 37//1 4//1
f 37//1 28//1 4//1
f 24//27 4//27 18//27
f 18//28 4//28 7//28
f 4//29 6//29 17//29
f 6//30 12//30 17//30
f 15//31 20//31 10//31
f 23//32 34//32 35//32
f 21//1 3//1 40//1
f 40//33 6//33 41//33
f 41//1 6//1 22//1
f 6//34 22//34 12//34
f 6//1 40//1 3//1
f 3//35 11//35 21//35
f 5//36 10//36 3//36
f 10//37 11//37 3//37
f 3//38 2//38 5//38
f 2//39 1//39 5//39
f 42//40 39//40 29//40
f 39//41 30//41 29//41
f 38//42 42//42 32//42
f 20//43 30//43 33//43
f 13//44 27//44 36//44
f 9//45 15//45 5//45
f 5//46 1//46 9//46
f 1//47 8//47 9//47
f 19//48 9//48 8//48
f 34//49 23//49 22//49
f 26//50 18//50 24//50
f 15//51 29//51 20//51
f 29//52 30//52 20//52
f 41//53 40//53 39//53
f 38//54 35//54 34//54
f 34//55 42//55 38//55
f 10//56 5//56 15//56
f 42//57 34//57 22//57
f 35//58 36//58 26//58
f 25//59 24//59 17//59
f 11//60 10//60 16//60
f 27//61 26//61 36//61
f 36//62 31//62 37//62
f 16//63 10//63 20//63
f 31//64 36//64 38//64
f 31//65 19//65 28//65
f 14//66 15//66 9//66
f 14//67 9//67 19//67
f 21//68 11//68 16//68
f 32//69 29//69 19//69
f 33//70 40//70 21//70
f 13//71 7//71 18//71
f 27//72 13//72 18//72
f 18//73 26//73 27//73
f 2//1 4//1 8//1
f 4//1 7//1 8//1
f 7//1 13//1 8//1
f 13//74 43//74 8//74
f 43//1 37//1 8//1
f 37//1 28//1 8//1
f 5//75 11//75 2//75
f 11//76 3//76 2//76
f 17//2 4//2 7//2
f 17//2 7//2 24//2
f 24//77 7//77 18//77
f 27//78 43//78 13//78
f 27//79 36//79 43//79
f 36//80 31//80 43//80
f 31//81 37//81 43//81
f 32//82 39//82 29//82
f 42//83 39//83 32//83
f 10//84 11//84 5//84
f 21//1 3//1 22//1
f 22//85 3//85 6//85
f 34//86 41//86 42//86
f 40//74 21//74 22//74
f 41//87 34//87 22//87
f 40//88 22//88 41//88
f 34//89 25//89 23//89
f 34//90 35//90 25//90
