# Blender 4.0.0
# www.blender.org
o decimated_mesh
v 0.031479 0.022655 0.046597
v 0.026808 0.022655 0.051390
v 0.031479 0.022666 0.037034
v 0.031479 0.011086 0.020146
v -0.000009 0.022666 0.048639
v 0.026083 0.017435 0.049681
v 0.031489 0.011171 0.040526
v -0.000009 0.011086 0.037381
v -0.000009 0.022646 0.057165
v 0.023037 0.011106 0.046480
v -0.000009 0.011104 0.050918
v 0.011171 0.022631 0.056905
v 0.010893 0.015994 0.054269
v 0.010115 0.011091 0.050829
v -0.000009 0.016482 0.054755
vn -0.2040 0.8074 -0.5536
vn 0.6913 -0.3372 0.6390
vn -0.0010 1.0000 0.0004
vn -0.3653 0.6489 -0.6674
vn 0.0012 1.0000 0.0012
vn -1.0000 -0.0000 -0.0000
vn 0.0063 -0.5809 0.8140
vn 0.2600 -0.5819 0.7706
vn 0.3008 -0.3629 0.8819
vn 0.0253 -0.3639 0.9311
vn 1.0000 0.0009 -0.0000
vn 1.0000 0.0007 -0.0005
vn 0.6805 -0.3118 0.6631
vn -0.0013 -1.0000 0.0013
vn -0.0005 1.0000 -0.0009
vn 0.0106 -0.9999 0.0041
vn 0.0003 1.0000 0.0009
vn 0.0014 1.0000 0.0023
vn -0.0000 1.0000 0.0043
vn -1.0000 -0.0000 0.0001
vn -1.0000 -0.0001 -0.0000
vn 0.4767 -0.5685 0.6705
vn 0.0107 -0.5754 0.8178
vn 0.2900 -0.5393 0.7906
vn 0.0211 -0.3698 0.9289
vn 0.3139 -0.3347 0.8885
vn -0.0015 1.0000 -0.0012
vn -0.0001 1.0000 -0.0003
vn 0.0002 1.0000 0.0023
vn 0.0016 1.0000 0.0089
vn 0.0249 -0.3699 0.9287
vn 0.0211 -0.3640 0.9312
vn -1.0000 -0.0003 0.0005
s 0
f 3//1 4//1 5//1
f 1//2 6//2 7//2
f 10//3 8//3 14//3
f 4//4 8//4 5//4
f 2//5 1//5 3//5
f 5//6 8//6 11//6
f 14//7 15//7 11//7
f 10//8 13//8 14//8
f 6//9 12//9 13//9
f 13//10 9//10 15//10
f 1//11 7//11 3//11
f 7//12 4//12 3//12
f 1//13 2//13 6//13
f 14//14 11//14 8//14
f 8//15 10//15 4//15
f 4//16 7//16 10//16
f 3//17 5//17 2//17
f 5//18 9//18 12//18
f 12//19 2//19 5//19
f 11//20 15//20 5//20
f 15//21 9//21 5//21
f 10//22 7//22 6//22
f 14//23 13//23 15//23
f 10//24 6//24 13//24
f 13//25 12//25 9//25
f 12//26 6//26 2//26
f 10//27 4//27 14//27
f 14//28 4//28 8//28
f 9//6 5//6 8//6
f 11//6 9//6 8//6
f 9//29 2//29 5//29
f 9//30 12//30 2//30
f 15//31 13//31 12//31
f 9//32 15//32 12//32
f 9//33 11//33 15//33
