# Blender 4.0.0
# www.blender.org
o decimated_mesh
v -0.027435 0.196711 0.050121
v -0.027437 0.200239 0.049582
v -0.031470 0.196713 0.049271
v -0.027435 0.196711 0.041324
v -0.028976 0.202476 0.048951
v -0.030929 0.199873 0.048969
v -0.027435 0.213726 0.020875
v -0.049651 0.196711 -0.000032
v -0.034646 0.213724 -0.000036
v -0.027435 0.205587 0.047475
v -0.029373 0.207055 0.046657
v -0.057697 0.196711 -0.000032
v -0.033350 0.201233 0.046893
v -0.027425 0.211962 0.043718
v -0.057453 0.196711 0.010667
v -0.044079 0.201706 0.036873
v -0.039102 0.211316 0.034431
v -0.041417 0.206728 0.036667
v -0.056474 0.201248 0.011623
v -0.057241 0.199632 -0.000032
v -0.043330 0.196735 0.039357
v -0.035756 0.215714 0.031333
v -0.027435 0.222389 0.021231
v -0.052181 0.196712 0.026263
v -0.051336 0.200461 0.026554
v -0.027454 0.222681 0.027643
v -0.033622 0.222617 0.019824
v -0.042540 0.215549 0.021727
v -0.034676 0.222365 -0.000030
v -0.055573 0.204501 0.008947
v -0.036646 0.222580 0.013692
v -0.049972 0.205778 0.024756
v -0.053770 0.207301 0.011139
v -0.027430 0.223284 0.025167
v -0.047410 0.210593 0.022925
v -0.051228 0.211194 0.009803
v -0.055552 0.204519 -0.000032
v -0.052037 0.210341 -0.000032
v -0.035950 0.223312 0.010752
v -0.038200 0.222729 0.007239
v -0.046730 0.215636 0.009188
v -0.036675 0.223301 -0.000032
v -0.038665 0.222810 -0.000031
vn -0.0000 1.0000 -0.0000
vn 0.6956 -0.6136 -0.3737
vn -0.2931 0.9556 0.0293
vn -0.7801 0.3706 0.5040
vn -0.6353 0.1357 0.7603
vn 0.0003 -0.0004 1.0000
vn -0.3259 0.9326 0.1551
vn -0.9452 0.3266 -0.0015
vn -0.7000 0.5470 0.4592
vn -0.5261 0.5809 0.6211
vn -0.6166 0.7584 0.2112
vn -0.1859 0.1461 0.9716
vn 0.1495 0.3625 0.9199
vn -0.6280 0.3612 0.6894
vn 0.9454 0.0035 -0.3260
vn -0.6320 0.7734 0.0490
vn 0.4190 0.8950 -0.1531
vn -0.8850 0.3361 0.3223
vn -0.9784 0.2033 0.0361
vn 0.8803 -0.3647 -0.3035
vn -0.4573 0.7177 0.5251
vn 0.5449 0.8175 -0.1865
vn -0.8657 0.4098 0.2873
vn -0.6817 0.7311 -0.0275
vn 0.0006 1.0000 -0.0000
vn 0.0014 1.0000 0.0004
vn 0.0018 1.0000 -0.0030
vn -0.2395 0.9708 0.0151
vn -0.5821 0.1755 0.7939
vn -0.0002 -0.0007 1.0000
vn -0.0000 0.0016 1.0000
vn -0.0002 -0.0001 -1.0000
vn -0.0000 -0.0001 -1.0000
vn -0.0000 -0.0000 -1.0000
vn -0.0001 -0.0000 -1.0000
vn -0.2161 0.9677 0.1296
vn 0.0210 0.5076 0.8614
vn -0.0406 0.4447 0.8947
vn -0.9582 0.2850 0.0235
vn -0.6061 0.6908 0.3943
vn 0.0056 1.0000 -0.0014
vn -0.7689 0.5881 0.2506
vn -1.0000 0.0045 -0.0087
vn -1.0000 -0.0023 0.0003
vn -1.0000 0.0009 -0.0013
vn -1.0000 0.0002 -0.0003
vn -1.0000 -0.0005 -0.0000
vn 1.0000 -0.0006 -0.0005
vn 1.0000 -0.0000 -0.0012
vn -0.6837 0.5681 0.4580
vn -0.5613 0.7816 0.2721
vn -0.5327 0.5724 0.6234
vn -0.6668 0.7099 0.2265
vn -0.6082 0.7765 0.1645
vn -0.6681 0.7082 0.2281
vn -0.7527 0.4198 0.5072
vn -0.1843 0.1246 0.9750
vn -0.2038 0.1476 0.9678
vn -0.6535 0.2574 0.7118
vn -0.8879 0.4129 0.2027
vn -0.5842 0.4270 0.6902
vn 0.9465 0.0132 -0.3224
vn -0.2932 0.9295 0.2238
vn -0.8561 0.5168 -0.0009
vn -0.8457 0.5335 0.0140
vn -0.8338 0.5516 0.0208
vn -0.4897 0.7848 0.3799
vn -0.5305 0.7668 0.3615
vn -0.5760 0.7160 0.3945
vn -0.9878 0.1542 0.0226
vn -0.4111 0.7581 0.5062
vn -0.9265 0.1833 0.3285
vn -0.9386 0.1355 0.3172
vn -0.7029 0.7113 -0.0039
vn -0.4242 0.8972 0.1230
vn -0.8177 0.1410 0.5581
vn -0.8188 0.1532 0.5532
vn -0.7983 0.5320 0.2822
vn -0.4793 0.3650 0.7981
vn -0.4790 0.3597 0.8007
vn -1.0000 -0.0016 -0.0055
vn -1.0000 0.0007 -0.0000
vn -1.0000 0.0003 0.0005
vn -0.9995 -0.0276 -0.0165
vn -0.4816 0.3613 0.7984
vn -0.4742 0.3612 0.8029
vn -1.0000 -0.0010 -0.0034
vn -0.1830 0.1482 0.9719
vn -0.1871 0.1470 0.9713
vn -0.2044 0.1276 0.9705
vn 0.0007 1.0000 -0.0008
vn 0.0001 1.0000 -0.0000
vn 0.0075 0.9999 -0.0068
vn -0.8202 0.1419 0.5542
vn -0.0002 -0.0000 -1.0000
vn -0.0000 -0.0003 -1.0000
vn -0.0003 0.0001 -1.0000
vn -0.0002 0.0001 -1.0000
vn -0.0003 0.0004 -1.0000
vn 0.0010 0.0007 -1.0000
vn -0.0006 0.0008 -1.0000
vn -0.6665 0.7099 0.2276
vn -0.6684 0.7083 0.2269
vn -0.8168 0.1548 0.5558
s 0
f 24//1 8//1 15//1
f 4//2 8//2 9//2
f 43//3 40//3 39//3
f 25//4 16//4 32//4
f 13//5 21//5 3//5
f 38//6 9//6 43//6
f 39//7 31//7 27//7
f 20//8 30//8 37//8
f 18//9 35//9 32//9
f 17//10 11//10 14//10
f 28//11 31//11 41//11
f 2//12 5//12 6//12
f 2//13 10//13 5//13
f 13//14 18//14 16//14
f 29//15 7//15 9//15
f 41//16 40//16 43//16
f 34//17 29//17 42//17
f 32//18 19//18 25//18
f 20//19 15//19 19//19
f 9//20 7//20 4//20
f 22//21 17//21 14//21
f 23//22 29//22 34//22
f 19//23 32//23 33//23
f 43//24 38//24 41//24
f 12//1 15//1 8//1
f 8//1 24//1 4//1
f 4//25 3//25 1//25
f 3//26 4//26 21//26
f 21//27 4//27 24//27
f 39//28 42//28 43//28
f 6//29 13//29 3//29
f 29//30 43//30 9//30
f 42//31 43//31 29//31
f 9//32 8//32 38//32
f 8//33 12//33 20//33
f 20//34 37//34 8//34
f 37//35 38//35 8//35
f 27//36 34//36 39//36
f 14//37 11//37 10//37
f 11//38 5//38 10//38
f 20//39 19//39 30//39
f 17//40 28//40 35//40
f 42//41 39//41 34//41
f 33//42 35//42 36//42
f 34//43 7//43 26//43
f 26//44 7//44 14//44
f 14//45 4//45 10//45
f 10//46 4//46 2//46
f 2//47 4//47 1//47
f 4//48 7//48 14//48
f 7//49 23//49 34//49
f 18//50 17//50 35//50
f 27//51 31//51 28//51
f 17//52 18//52 11//52
f 36//53 35//53 28//53
f 31//54 40//54 41//54
f 41//55 36//55 28//55
f 32//56 16//56 18//56
f 6//57 3//57 2//57
f 3//58 1//58 2//58
f 13//59 16//59 21//59
f 30//60 19//60 33//60
f 11//61 18//61 13//61
f 29//62 23//62 7//62
f 26//63 34//63 27//63
f 38//64 37//64 30//64
f 30//65 33//65 38//65
f 33//66 36//66 38//66
f 26//67 27//67 22//67
f 27//68 28//68 22//68
f 28//69 17//69 22//69
f 20//70 12//70 15//70
f 14//71 26//71 22//71
f 25//72 19//72 24//72
f 19//73 15//73 24//73
f 38//74 36//74 41//74
f 40//75 31//75 39//75
f 16//76 25//76 24//76
f 24//77 21//77 16//77
f 35//78 33//78 32//78
f 6//79 5//79 13//79
f 13//80 5//80 11//80
f 10//81 14//81 1//81
f 1//82 14//82 4//82
f 7//83 14//83 34//83
f 34//84 14//84 26//84
f 13//85 6//85 11//85
f 6//86 5//86 11//86
f 2//87 10//87 1//87
f 2//88 5//88 1//88
f 5//89 6//89 1//89
f 6//90 3//90 1//90
f 3//91 1//91 24//91
f 24//92 1//92 12//92
f 12//1 4//1 8//1
f 12//1 1//1 4//1
f 21//93 3//93 24//93
f 21//94 25//94 24//94
f 15//1 24//1 12//1
f 20//95 9//95 12//95
f 9//96 8//96 12//96
f 20//97 37//97 9//97
f 37//98 38//98 9//98
f 38//99 42//99 9//99
f 42//100 29//100 9//100
f 38//101 43//101 42//101
f 41//102 35//102 28//102
f 41//103 36//103 35//103
f 25//104 21//104 16//104
