# Blender 4.0.0
# www.blender.org
o decimated_mesh
v 0.057756 0.196629 0.000036
v 0.049659 0.196654 0.000036
v 0.057544 0.196608 -0.010687
v 0.035773 0.196654 -0.034391
v 0.049586 0.025629 0.000032
v 0.035780 0.196568 -0.044592
v 0.035773 0.041750 -0.034871
v 0.038891 0.025629 -0.030674
v 0.057690 0.025675 0.000032
v 0.052491 0.196637 -0.025781
v 0.043136 0.196660 -0.039537
v 0.035773 0.041750 -0.044962
v 0.047740 0.025629 -0.030674
v 0.043434 0.041871 -0.039549
v 0.057627 0.025729 -0.010335
v 0.051879 0.025638 -0.026848
vn -0.9399 -0.0966 0.3274
vn -0.9818 -0.1899 -0.0000
vn -0.0000 -0.6633 -0.7484
vn 0.9274 0.0012 -0.3741
vn 0.5569 -0.2797 -0.7820
vn 0.6630 -0.2159 -0.7168
vn 0.5664 0.0012 -0.8241
vn -0.0135 0.9999 -0.0008
vn -0.0057 1.0000 0.0052
vn -0.0008 1.0000 0.0003
vn -0.0000 1.0000 -0.0024
vn 1.0000 -0.0000 -0.0000
vn 1.0000 -0.0000 0.0007
vn 0.9483 -0.0002 -0.3175
vn 0.9444 -0.0013 -0.3287
vn 0.9298 -0.0004 -0.3681
vn -0.0000 -0.0000 1.0000
vn 0.5770 0.0019 -0.8167
vn 0.0058 1.0000 -0.0001
vn 0.0013 1.0000 -0.0005
vn 0.0003 1.0000 0.0015
vn -0.0067 0.9999 -0.0085
vn 0.0031 1.0000 -0.0020
vn 0.9998 0.0004 -0.0197
vn 1.0000 -0.0004 -0.0061
vn 0.8269 0.0016 -0.5623
vn 0.8330 0.0005 -0.5533
vn 0.0121 0.9999 -0.0022
vn 0.0029 1.0000 -0.0003
vn 0.0031 1.0000 -0.0004
vn 0.5770 0.0012 -0.8167
vn 0.5664 0.0019 -0.8241
vn -0.0006 1.0000 0.0002
vn 0.9274 -0.0004 -0.3741
vn -0.0057 1.0000 -0.0001
vn 0.9300 0.0011 -0.3675
vn -0.0000 1.0000 -0.0000
vn -0.0024 1.0000 0.0001
vn -0.0313 0.9995 0.0054
s 0
f 5//1 7//1 8//1
f 7//2 12//2 8//2
f 8//3 12//3 13//3
f 7//4 4//4 2//4
f 12//5 14//5 13//5
f 13//6 14//6 16//6
f 14//7 6//7 11//7
f 16//8 5//8 15//8
f 15//9 5//9 9//9
f 5//10 16//10 8//10
f 8//11 16//11 13//11
f 6//12 7//12 12//12
f 4//13 7//13 6//13
f 3//14 15//14 10//14
f 15//15 16//15 10//15
f 7//16 2//16 5//16
f 9//17 1//17 5//17
f 5//17 1//17 2//17
f 12//18 6//18 14//18
f 3//19 10//19 2//19
f 2//20 10//20 4//20
f 10//21 11//21 4//21
f 11//22 6//22 4//22
f 2//23 1//23 3//23
f 3//24 1//24 15//24
f 1//25 9//25 15//25
f 14//26 11//26 10//26
f 10//27 16//27 14//27
f 3//28 10//28 1//28
f 10//29 11//29 1//29
f 11//30 2//30 1//30
f 14//31 12//31 11//31
f 12//32 6//32 11//32
f 4//33 2//33 11//33
f 4//34 2//34 5//34
f 16//35 5//35 9//35
f 4//36 5//36 7//36
f 8//37 5//37 13//37
f 13//38 5//38 16//38
f 16//39 9//39 15//39
f 7//12 12//12 4//12
f 4//13 12//13 6//13
