# Blender 4.0.0
# www.blender.org
o decimated_mesh
v 0.029708 0.015108 -0.030675
v 0.019456 0.008515 -0.027584
v 0.038888 0.025627 -0.030675
v 0.043264 0.015297 -0.030691
v 0.038354 0.008515 -0.027584
v 0.033883 0.008515 0.000030
v 0.049584 0.025627 0.000030
v 0.049583 0.017337 -0.026207
v 0.044109 0.008515 -0.021832
v 0.048660 0.008644 0.000030
v 0.057626 0.025623 0.000030
v 0.051803 0.025626 -0.026999
v 0.046009 0.011024 -0.023842
v 0.051307 0.022266 -0.026745
v 0.048117 0.025500 -0.030673
v 0.057448 0.025628 -0.010545
v 0.048746 0.008614 -0.009103
v 0.057115 0.022393 0.000030
v 0.056647 0.021897 -0.011444
v 0.054268 0.015968 -0.010812
v 0.054709 0.016405 0.000030
vn -0.5076 0.4430 -0.7389
vn 0.0047 -0.4193 -0.9078
vn -0.6876 0.6309 0.3593
vn -0.6253 0.7494 0.2178
vn 0.0001 1.0000 -0.0000
vn 0.4975 -0.6323 -0.5939
vn 0.4750 -0.7406 -0.4753
vn 0.5932 -0.5545 -0.5837
vn 0.7833 -0.5512 -0.2874
vn 0.7987 -0.6017 -0.0082
vn 0.6720 -0.7008 -0.2393
vn 0.6143 -0.2909 -0.7335
vn 0.8739 -0.3825 -0.3000
vn 0.9386 -0.1240 -0.3220
vn 0.9276 -0.3729 -0.0226
vn 0.9876 -0.1562 -0.0167
vn 0.0002 0.0017 -1.0000
vn -0.0012 0.0011 -1.0000
vn -0.0000 -0.4244 -0.9055
vn -0.0087 1.0000 -0.0034
vn -0.0000 1.0000 -0.0000
vn -0.0093 0.9999 -0.0044
vn 0.0006 1.0000 0.0005
vn -0.0002 1.0000 -0.0001
vn 0.0138 0.9987 -0.0481
vn -0.0001 -0.0000 1.0000
vn -0.0000 -0.0000 1.0000
vn 0.7486 -0.6180 -0.2400
vn 0.7887 -0.6147 0.0094
vn 0.6998 -0.1562 -0.6970
vn 0.6093 -0.2935 -0.7366
vn 0.9304 -0.1623 -0.3286
vn 0.9271 -0.3742 -0.0217
vn 0.9788 -0.2026 -0.0312
vn 0.8840 -0.3437 -0.3168
vn 0.6121 -0.2898 -0.7358
vn 0.6144 -0.2948 -0.7318
vn -0.0000 1.0000 0.0001
vn -0.0001 1.0000 -0.0000
vn 0.0002 1.0000 -0.0002
vn 0.9270 -0.3743 -0.0226
vn 0.9276 -0.3729 -0.0218
vn -0.0119 0.9999 -0.0034
vn -0.0087 1.0000 -0.0041
vn -0.0002 0.0001 1.0000
vn -0.0000 -0.0001 1.0000
s 0
f 1//1 2//1 3//1
f 5//2 1//2 4//2
f 2//3 6//3 7//3
f 2//4 7//4 3//4
f 3//5 7//5 12//5
f 4//6 13//6 5//6
f 5//7 13//7 9//7
f 13//8 4//8 8//8
f 20//9 13//9 8//9
f 21//10 17//10 20//10
f 13//11 17//11 9//11
f 15//12 8//12 4//12
f 8//13 19//13 20//13
f 19//14 12//14 16//14
f 20//15 18//15 21//15
f 18//16 16//16 11//16
f 15//17 4//17 3//17
f 4//18 1//18 3//18
f 5//19 2//19 1//19
f 17//20 6//20 10//20
f 6//21 5//21 2//21
f 5//5 6//5 9//5
f 9//22 6//22 17//22
f 7//23 11//23 16//23
f 16//24 12//24 7//24
f 12//25 15//25 3//25
f 10//26 21//26 7//26
f 21//27 18//27 7//27
f 18//27 11//27 7//27
f 7//27 6//27 10//27
f 20//28 17//28 13//28
f 21//29 10//29 17//29
f 14//30 15//30 12//30
f 15//31 14//31 8//31
f 19//32 14//32 12//32
f 20//33 19//33 18//33
f 18//34 19//34 16//34
f 19//35 8//35 14//35
f 15//36 14//36 4//36
f 14//37 8//37 4//37
f 9//38 5//38 2//38
f 7//39 16//39 3//39
f 16//40 12//40 3//40
f 21//41 20//41 19//41
f 18//42 21//42 19//42
f 17//43 9//43 10//43
f 10//44 9//44 6//44
f 6//21 9//21 2//21
f 6//27 18//27 7//27
f 18//45 10//45 21//45
f 6//46 10//46 18//46
