# Blender 4.0.0
# www.blender.org
o decimated_mesh
v -0.030702 0.015106 -0.029679
v -0.030708 0.015128 -0.043202
v -0.030702 0.041734 -0.039390
v -0.042733 0.015107 -0.000034
v -0.034786 0.015108 -0.042188
v -0.030702 0.041734 -0.048099
v -0.049967 0.041734 -0.000033
v -0.035733 0.020310 -0.044638
v -0.038252 0.041734 -0.044538
v -0.057922 0.041734 -0.000033
v -0.053957 0.015105 -0.000105
v -0.030702 0.022357 -0.047051
v -0.037247 0.024844 -0.044840
v -0.058497 0.041734 -0.002088
v -0.055412 0.017575 -0.000089
v -0.037775 0.015573 -0.039959
v -0.048077 0.021946 -0.032204
v -0.038365 0.021117 -0.042730
v -0.030702 0.027152 -0.047945
v -0.055725 0.017083 -0.003661
v -0.054505 0.015106 -0.003294
v -0.045890 0.015143 -0.030089
v -0.040014 0.025724 -0.042584
v -0.058333 0.041734 -0.005561
v -0.057776 0.025234 -0.000042
v -0.057843 0.022199 -0.002267
v -0.054227 0.021554 -0.019486
v -0.058458 0.028148 -0.004143
v -0.053469 0.017402 -0.016480
v -0.051551 0.015133 -0.018485
v -0.055578 0.022183 -0.015625
v -0.049012 0.027839 -0.032066
v -0.057783 0.024450 -0.006667
v -0.055497 0.027839 -0.018716
v -0.048953 0.041734 -0.032294
v -0.055513 0.041734 -0.018887
vn -0.9180 -0.1359 -0.3725
vn -0.0002 1.0000 0.0005
vn -0.0000 1.0000 -0.0000
vn 0.0007 0.0002 -1.0000
vn -0.9716 -0.1025 -0.2132
vn -0.8982 -0.0034 -0.4395
vn -0.6169 -0.2394 -0.7498
vn -0.8447 -0.4064 -0.3484
vn -0.6130 -0.4253 -0.6658
vn -0.9444 -0.2872 -0.1598
vn -0.4062 -0.8354 -0.3704
vn -0.9630 -0.0087 0.2695
vn -0.4259 -0.0091 -0.9047
vn -0.7530 0.0026 -0.6580
vn -0.7231 -0.2382 -0.6484
vn -0.2262 -0.4576 -0.8599
vn -0.8726 -0.2371 -0.4271
vn -0.3727 -0.1700 -0.9122
vn -0.8915 -0.1267 -0.4350
vn -0.9799 -0.0117 -0.1989
vn -0.8523 -0.5029 0.1439
vn -0.9002 -0.3510 -0.2578
vn -0.0005 1.0000 0.0017
vn 0.0023 1.0000 0.0020
vn 0.0024 1.0000 -0.0007
vn -0.0044 1.0000 0.0016
vn 0.0016 1.0000 0.0006
vn -0.9888 -0.1271 -0.0784
vn 0.0001 1.0000 -0.0001
vn -0.0000 1.0000 0.0002
vn -0.0000 0.0005 -1.0000
vn -0.0059 -0.0080 1.0000
vn -0.0064 -0.0103 0.9999
vn -0.7660 -0.1067 -0.6339
vn -0.6947 -0.3795 -0.6111
vn -0.6966 -0.4075 -0.5905
vn -0.9792 -0.0436 -0.1981
vn -0.9403 -0.1526 -0.3041
vn -1.0000 0.0011 0.0004
vn -1.0000 0.0001 -0.0000
vn -1.0000 -0.0000 -0.0000
vn -0.8995 -0.0065 -0.4369
vn -0.6572 -0.2122 -0.7232
vn -0.8233 -0.3922 -0.4102
vn -0.8216 -0.4050 -0.4012
vn -0.5851 -0.4116 -0.6987
vn -0.9888 -0.0250 0.1468
vn -0.9908 -0.0652 0.1187
vn -0.4266 -0.0096 -0.9044
vn -0.7606 -0.0074 -0.6492
vn -0.2138 -0.4479 -0.8682
vn -0.8757 -0.2728 0.3984
vn -0.9269 -0.3410 -0.1567
vn -0.9125 -0.3721 -0.1698
vn -0.9989 0.0043 -0.0472
vn -0.3712 -0.1646 -0.9138
vn -0.8917 -0.1313 -0.4331
vn -0.9783 -0.0037 -0.2070
vn -0.8539 -0.4994 0.1467
vn -0.9018 -0.4103 0.1355
vn -0.8184 -0.5526 -0.1577
vn -0.8262 -0.5397 -0.1616
vn -0.6364 -0.0240 -0.7710
vn -0.3688 -0.1703 -0.9137
vn -0.3743 -0.1656 -0.9124
vn -0.4258 -0.0096 -0.9048
vn -0.2123 -0.4591 -0.8627
vn -0.2313 -0.4487 -0.8632
vn -0.5816 -0.4309 -0.6900
vn -0.6148 -0.4041 -0.6773
vn -0.4266 -0.0092 -0.9044
vn -0.0002 1.0000 -0.0001
vn 0.0001 1.0000 0.0001
vn 0.0006 1.0000 0.0004
vn 0.0055 1.0000 0.0028
vn 0.0086 1.0000 0.0050
vn -0.0001 1.0000 -0.0000
vn -0.0006 1.0000 -0.0001
vn -0.0000 -0.0000 -1.0000
vn 0.0009 0.0005 -1.0000
vn -0.8520 -0.5027 0.1463
vn -0.8540 -0.5000 0.1437
vn -0.8268 -0.5395 -0.1589
vn -0.8190 -0.5509 -0.1603
vn -0.8909 -0.1311 -0.4348
vn -0.8922 -0.1271 -0.4334
s 0
f 1//1 4//1 3//1
f 11//2 4//2 21//2
f 35//3 36//3 7//3
f 4//4 25//4 7//4
f 31//5 33//5 34//5
f 32//6 36//6 35//6
f 8//7 18//7 13//7
f 30//8 29//8 27//8
f 5//9 18//9 8//9
f 31//10 26//10 33//10
f 22//11 16//11 5//11
f 25//12 10//12 14//12
f 9//13 19//13 13//13
f 23//14 35//14 9//14
f 23//15 18//15 17//15
f 2//16 8//16 12//16
f 7//17 3//17 4//17
f 12//18 13//18 19//18
f 34//19 17//19 27//19
f 24//20 34//20 28//20
f 15//21 20//21 11//21
f 29//22 31//22 27//22
f 21//23 4//23 30//23
f 30//24 1//24 22//24
f 22//25 1//25 5//25
f 2//26 5//26 1//26
f 1//27 30//27 4//27
f 33//28 26//28 28//28
f 36//3 24//3 7//3
f 24//29 14//29 7//29
f 14//30 10//30 7//30
f 7//3 3//3 35//3
f 3//3 6//3 9//3
f 35//3 3//3 9//3
f 7//31 25//31 10//31
f 25//32 15//32 4//32
f 15//33 11//33 4//33
f 32//34 23//34 17//34
f 17//35 18//35 16//35
f 16//36 22//36 17//36
f 28//37 34//37 33//37
f 31//38 34//38 27//38
f 2//39 1//39 12//39
f 12//40 1//40 19//40
f 19//41 3//41 6//41
f 3//41 19//41 1//41
f 32//42 34//42 36//42
f 18//43 23//43 13//43
f 27//44 17//44 22//44
f 22//45 30//45 27//45
f 5//46 16//46 18//46
f 14//47 28//47 25//47
f 25//48 28//48 26//48
f 9//49 6//49 19//49
f 23//50 32//50 35//50
f 2//51 5//51 8//51
f 15//52 25//52 26//52
f 26//53 31//53 20//53
f 31//54 29//54 20//54
f 28//55 14//55 24//55
f 12//56 8//56 13//56
f 34//57 32//57 17//57
f 24//58 36//58 34//58
f 20//59 21//59 11//59
f 26//60 20//60 15//60
f 20//61 29//61 30//61
f 21//62 20//62 30//62
f 9//63 13//63 23//63
f 12//64 8//64 19//64
f 8//65 13//65 19//65
f 13//66 6//66 19//66
f 2//67 5//67 12//67
f 5//68 8//68 12//68
f 5//69 16//69 8//69
f 16//70 18//70 8//70
f 9//71 6//71 13//71
f 9//3 14//3 6//3
f 14//3 3//3 6//3
f 14//3 7//3 3//3
f 4//72 1//72 11//72
f 11//73 1//73 5//73
f 11//74 5//74 21//74
f 21//75 5//75 30//75
f 30//76 5//76 22//76
f 35//3 14//3 9//3
f 35//77 36//77 14//77
f 36//78 24//78 14//78
f 10//79 7//79 4//79
f 10//80 4//80 25//80
f 15//81 21//81 11//81
f 15//82 20//82 21//82
f 20//83 29//83 21//83
f 29//84 30//84 21//84
f 27//85 32//85 17//85
f 27//86 34//86 32//86
