# Blender 4.0.0
# www.blender.org
o decimated_mesh
v -0.385435 0.057186 -0.297521
v 0.372940 0.056625 -0.333117
v 0.372940 0.056547 -0.279693
v -0.385286 0.971818 -0.327172
v 0.372871 0.971879 -0.320920
vn -0.0008 -1.0000 -0.0015
vn 0.0082 -0.0324 -0.9994
vn 0.0082 0.0133 -0.9999
vn 0.0234 -0.0450 -0.9987
vn 1.0000 0.0001 -0.0000
vn -0.0469 -0.0324 -0.9984
vn 0.0235 -0.0324 -0.9992
vn 0.0082 -0.0450 -0.9990
s 0
f 1//1 2//1 3//1
f 1//2 4//2 5//2
f 2//3 4//3 5//3
f 1//4 5//4 3//4
f 5//5 3//5 2//5
f 2//6 1//6 4//6
f 3//7 1//7 4//7
f 3//8 4//8 5//8
