# Blender 4.0.0
# www.blender.org
o Fridge_17_FridgeBodyMesh_3a0c63c3_6_collision_20
v 0.364043 0.741919 0.264024
v 0.353856 0.741680 0.274339
v 0.364043 0.741680 0.274267
v 0.364043 0.741919 0.257402
v -0.353741 0.741680 0.274339
v 0.353856 0.728163 0.282489
v 0.364043 0.735332 0.278089
v 0.364043 0.728163 0.248917
v -0.353741 0.728163 0.249561
v -0.353741 0.741680 0.258828
v -0.353741 0.728163 0.282489
v 0.353856 0.709039 0.279834
v 0.364043 0.709039 0.279712
v 0.364043 0.728163 0.282344
v 0.001919 0.720483 0.281424
v 0.001919 0.709039 0.279837
v 0.364043 0.712317 0.250280
v -0.353741 0.728020 0.249577
v -0.353741 0.709039 0.279837
v 0.353856 0.697682 0.271690
v 0.364043 0.697682 0.271638
v 0.364043 0.709039 0.250800
v -0.353741 0.708961 0.252663
v -0.353741 0.697682 0.271690
v 0.364043 0.697617 0.259590
v 0.364043 0.702972 0.255223
v -0.353741 0.697682 0.261940
vn 0.0002 0.9997 0.0233
vn 1.0000 -0.0000 -0.0000
vn -0.0003 1.0000 -0.0000
vn -0.0000 0.9997 0.0231
vn 0.0061 0.5163 0.8564
vn -0.0000 0.5163 0.8564
vn 0.0071 0.5157 0.8567
vn -0.0008 0.5250 -0.8511
vn -0.0018 0.5655 -0.8248
vn -1.0000 -0.0000 -0.0000
vn -1.0000 0.0001 -0.0000
vn 0.0118 -0.1375 0.9904
vn 0.0141 -0.1363 0.9906
vn 0.0122 0.5105 0.8598
vn -0.0000 -0.1373 0.9905
vn -0.0000 -0.1374 0.9905
vn -0.0000 -0.1375 0.9905
vn -0.0009 -0.0858 -0.9963
vn -0.0015 -0.1140 -0.9935
vn 0.0042 -0.5827 0.8127
vn 0.0097 -0.5794 0.8150
vn -0.0000 -0.5827 0.8127
vn -0.0000 -0.5829 0.8126
vn -0.0025 -0.1564 -0.9877
vn -0.0025 -0.1598 -0.9871
vn -0.0000 -1.0000 0.0054
vn -0.0020 -0.5891 -0.8080
vn -0.0025 -0.6320 -0.7750
vn -0.0026 -0.6352 -0.7723
vn -0.0001 -1.0000 -0.0000
s 0
f 1//1 2//1 3//1
f 1//2 3//2 7//2
f 1//2 7//2 14//2
f 1//2 14//2 13//2
f 1//2 13//2 21//2
f 1//2 21//2 25//2
f 1//2 25//2 26//2
f 1//2 26//2 22//2
f 1//2 22//2 17//2
f 1//2 17//2 8//2
f 1//2 8//2 4//2
f 1//3 4//3 10//3
f 1//3 10//3 5//3
f 1//4 5//4 2//4
f 2//5 6//5 3//5
f 2//6 5//6 11//6
f 2//6 11//6 6//6
f 3//7 6//7 7//7
f 4//8 8//8 9//8
f 4//9 9//9 10//9
f 5//10 10//10 9//10
f 5//11 9//11 18//11
f 5//10 18//10 23//10
f 5//10 23//10 27//10
f 5//10 27//10 24//10
f 5//10 24//10 19//10
f 5//10 19//10 11//10
f 6//12 12//12 13//12
f 6//13 13//13 14//13
f 6//14 14//14 7//14
f 6//15 11//15 15//15
f 6//16 15//16 16//16
f 6//17 16//17 12//17
f 8//18 17//18 9//18
f 9//19 17//19 18//19
f 11//16 19//16 15//16
f 12//20 20//20 21//20
f 12//21 21//21 13//21
f 12//22 16//22 20//22
f 15//16 19//16 16//16
f 16//23 19//23 24//23
f 16//23 24//23 20//23
f 17//24 22//24 18//24
f 18//25 22//25 23//25
f 20//26 25//26 21//26
f 20//26 24//26 25//26
f 22//27 26//27 23//27
f 23//28 26//28 25//28
f 23//29 25//29 27//29
f 24//30 27//30 25//30
