# Blender 4.0.0
# www.blender.org
o decimated_mesh
v -0.455714 0.155760 0.331306
v -0.353763 0.110255 0.330501
v -0.453054 0.155737 0.316805
v -0.353741 0.111082 0.317815
v -0.522225 0.155761 0.330217
v -0.353746 0.087829 0.309880
v -0.353737 0.044886 0.330176
v -0.501557 0.155732 0.308825
v -0.503585 0.061109 0.332372
v -0.353741 0.036563 0.309571
v -0.532342 0.155754 0.310013
v -0.522375 0.066561 0.328283
v -0.531846 0.071811 0.309986
v -0.516148 0.047472 0.327275
v -0.494546 0.037259 0.309102
v -0.519329 0.046546 0.308934
vn 0.4088 0.9106 0.0601
vn -0.0058 -0.9272 0.3745
vn -0.1530 -0.3191 0.9353
vn -0.1538 -0.3202 0.9348
vn -0.2183 -0.0208 0.9757
vn -0.8890 -0.0084 0.4578
vn -0.2470 -0.1313 0.9601
vn -0.8793 -0.4429 0.1748
vn -0.3495 -0.9307 0.1076
vn 0.4070 0.9105 0.0732
vn -0.0224 -0.8827 0.4694
vn -1.0000 -0.0004 -0.0004
vn 1.0000 0.0001 -0.0002
vn -1.0000 0.0008 -0.0017
vn 0.0386 -0.0001 0.9993
vn -0.0062 0.0020 1.0000
vn -0.0034 -0.0060 1.0000
vn 0.0274 0.0040 0.9996
vn -0.0274 -0.0551 0.9981
vn -0.8941 -0.0054 0.4477
vn 0.0141 -0.0050 0.9999
vn 0.0105 0.0059 0.9999
vn -0.0164 0.0195 0.9997
vn 0.0002 1.0000 -0.0016
vn -0.0000 1.0000 -0.0013
vn 0.0007 1.0000 -0.0007
vn -0.8785 -0.3060 0.3669
vn -0.0221 -0.3321 0.9430
vn -0.0000 1.0000 -0.0004
vn 0.0003 1.0000 -0.0015
vn 0.0006 1.0000 -0.0040
vn 0.0386 -0.0053 0.9992
vn 0.0841 0.0002 0.9965
vn -0.1537 -0.3208 0.9346
vn -0.1533 -0.3191 0.9352
vn -0.0099 -0.0060 0.9999
vn -0.0037 0.0016 1.0000
vn -0.0033 0.0093 1.0000
vn -1.0000 -0.0000 0.0005
vn -1.0000 -0.0004 -0.0018
s 0
f 3//1 2//1 4//1
f 7//2 15//2 10//2
f 4//3 3//3 6//3
f 6//4 3//4 8//4
f 9//5 5//5 12//5
f 5//6 13//6 12//6
f 9//7 12//7 14//7
f 14//8 13//8 16//8
f 14//9 16//9 15//9
f 3//10 1//10 2//10
f 7//11 14//11 15//11
f 2//12 6//12 7//12
f 7//13 10//13 6//13
f 6//14 2//14 4//14
f 13//15 8//15 11//15
f 8//16 15//16 6//16
f 6//17 15//17 10//17
f 8//18 13//18 15//18
f 15//19 13//19 16//19
f 5//20 11//20 13//20
f 9//21 7//21 2//21
f 2//22 1//22 9//22
f 1//23 5//23 9//23
f 3//24 8//24 1//24
f 1//25 8//25 5//25
f 11//26 5//26 8//26
f 13//27 14//27 12//27
f 7//28 9//28 14//28
f 1//29 11//29 5//29
f 1//30 3//30 11//30
f 3//31 8//31 11//31
f 8//32 11//32 16//32
f 16//33 11//33 13//33
f 4//34 3//34 8//34
f 4//35 8//35 6//35
f 6//36 8//36 10//36
f 10//37 8//37 16//37
f 10//38 16//38 15//38
f 6//39 7//39 4//39
f 4//40 7//40 2//40
