# Blender 4.0.0
# www.blender.org
o decimated_mesh
v -0.506384 0.971595 -0.311316
v -0.000005 0.971651 -0.327571
v -0.506843 1.873007 -0.333431
v 0.000013 1.872994 -0.320689
v -0.506843 1.873007 -0.296602
vn -1.0000 -0.0005 -0.0000
vn 0.0251 0.0076 -0.9997
vn -0.0321 0.0076 -0.9995
vn -0.0000 1.0000 -0.0000
vn -0.0321 -0.0245 -0.9992
vn -0.0475 0.0163 -0.9987
vn -0.0321 0.0163 -0.9994
vn -0.0475 0.0076 -0.9988
s 0
f 3//1 1//1 5//1
f 2//2 3//2 4//2
f 4//3 2//3 1//3
f 4//4 3//4 5//4
f 2//5 1//5 3//5
f 4//6 1//6 5//6
f 1//7 5//7 2//7
f 2//8 5//8 4//8
