# Blender 4.0.0
# www.blender.org
o Fridge_17_FridgeBodyMesh_3a0c63c3_6_collision_17
v 0.430707 1.239153 0.327186
v 0.430707 1.225824 0.331074
v 0.430707 1.239153 0.319495
v -0.430600 1.239133 0.327182
v 0.430707 1.225520 0.331120
v -0.430600 1.225510 0.331118
v 0.430707 1.225520 0.314074
v -0.430600 1.225774 0.314131
v -0.430600 1.239133 0.319499
v -0.000031 1.168143 0.332761
v 0.430707 1.168143 0.332761
v -0.430600 1.168143 0.332759
v 0.430707 1.167848 0.313970
v -0.430600 1.225510 0.314076
v -0.430600 1.167899 0.332750
v 0.430707 1.149024 0.331124
v 0.430707 1.149024 0.314071
v -0.430600 1.149014 0.314073
v -0.430600 1.168143 0.313979
v -0.430600 1.149014 0.331120
v 0.430707 1.135370 0.327189
v -0.430600 1.148750 0.331081
v 0.430707 1.148699 0.314141
v -0.430600 1.135401 0.319497
v 0.430707 1.135370 0.319491
v -0.430600 1.135401 0.327182
vn 1.0000 0.0002 -0.0000
vn 1.0000 -0.0000 -0.0000
vn -0.0000 1.0000 -0.0000
vn -0.0000 0.2801 0.9600
vn -0.0001 0.2776 0.9607
vn -0.0000 0.1492 0.9888
vn -0.0000 0.3695 -0.9292
vn -0.0000 0.3728 -0.9279
vn -1.0000 -0.0000 -0.0000
vn -1.0000 0.0001 -0.0000
vn -0.0000 0.0286 0.9996
vn -0.0000 0.0018 -1.0000
vn -0.0000 0.2045 -0.9789
vn -0.0000 -0.0376 0.9993
vn -0.0000 -0.0452 0.9990
vn -0.0000 -0.0853 0.9964
vn -0.0000 -0.0054 -1.0000
vn -0.0000 -0.0049 -1.0000
vn -0.0000 0.0017 -1.0000
vn -0.0000 -0.0860 0.9963
vn -0.0000 -0.1446 0.9895
vn -0.0000 -0.2769 0.9609
vn -0.0000 -0.2102 -0.9776
vn -0.0001 -0.3702 -0.9290
vn -0.0000 -0.2804 0.9599
vn -0.0000 -1.0000 -0.0000
vn -0.0000 -0.3726 -0.9280
s 0
f 1//1 2//1 5//1
f 1//2 5//2 11//2
f 1//2 11//2 16//2
f 1//2 16//2 21//2
f 1//2 21//2 25//2
f 1//2 25//2 23//2
f 1//2 23//2 17//2
f 1//2 17//2 13//2
f 1//2 13//2 7//2
f 1//2 7//2 3//2
f 1//3 3//3 9//3
f 1//3 9//3 4//3
f 1//4 4//4 2//4
f 2//5 4//5 6//5
f 2//6 6//6 5//6
f 3//7 7//7 8//7
f 3//8 8//8 9//8
f 4//9 9//9 8//9
f 4//10 8//10 14//10
f 4//9 14//9 19//9
f 4//9 19//9 18//9
f 4//9 18//9 24//9
f 4//9 24//9 26//9
f 4//9 26//9 22//9
f 4//9 22//9 20//9
f 4//9 20//9 15//9
f 4//9 15//9 12//9
f 4//9 12//9 6//9
f 5//11 10//11 11//11
f 5//11 6//11 10//11
f 6//11 12//11 10//11
f 7//12 13//12 14//12
f 7//13 14//13 8//13
f 10//14 12//14 15//14
f 10//15 15//15 11//15
f 11//16 15//16 16//16
f 13//17 17//17 18//17
f 13//18 18//18 19//18
f 13//19 19//19 14//19
f 15//20 20//20 16//20
f 16//21 20//21 22//21
f 16//22 22//22 21//22
f 17//23 23//23 18//23
f 18//24 23//24 24//24
f 21//25 22//25 26//25
f 21//26 26//26 24//26
f 21//26 24//26 25//26
f 23//27 25//27 24//27
