# Blender 4.0.0
# www.blender.org
o decimated_mesh
v 0.531660 1.869558 0.315342
v 0.530685 1.868267 -0.206038
v 0.525320 1.894124 0.312442
v 0.519536 1.906306 -0.205987
v 0.521943 1.869505 0.330183
v 0.515494 1.904624 0.328218
v 0.430707 1.894076 -0.205882
v 0.430656 1.869251 0.332750
v 0.430707 1.915121 -0.205987
v 0.487786 1.913112 0.315253
v 0.430707 1.907410 0.329489
v 0.487786 1.914687 -0.205987
v 0.430707 1.913645 0.315253
vn 0.2552 0.9669 0.0029
vn 0.9596 0.2813 -0.0041
vn 0.8225 0.1812 0.5391
vn -0.2498 -0.9673 -0.0446
vn -1.0000 0.0014 0.0006
vn 0.8875 0.2728 0.3712
vn 0.0076 1.0000 0.0028
vn 0.0360 0.8696 0.4925
vn -0.0027 1.0000 0.0017
vn -0.0035 1.0000 -0.0025
vn 0.2907 0.9568 0.0052
vn 0.9683 0.2496 -0.0024
vn -0.0000 -0.0050 -1.0000
vn 0.0004 0.0014 -1.0000
vn -0.0017 -0.0005 -1.0000
vn 0.0177 0.0851 0.9962
vn 0.0279 0.0610 0.9978
vn 1.0000 -0.0000 -0.0000
vn 1.0000 -0.0011 -0.0000
vn 0.0093 1.0000 0.0030
vn 0.7359 0.6771 0.0077
vn 0.0085 0.9160 0.4011
vn -0.0092 1.0000 -0.0025
vn -0.0029 1.0000 -0.0024
vn -0.0029 -0.0050 -1.0000
vn -0.0000 0.0011 -1.0000
vn 1.0000 -0.0012 -0.0000
vn 1.0000 -0.0000 0.0001
s 0
f 10//1 4//1 12//1
f 3//2 2//2 4//2
f 1//3 6//3 5//3
f 2//4 8//4 7//4
f 8//5 11//5 13//5
f 3//6 6//6 1//6
f 13//7 12//7 9//7
f 10//8 11//8 6//8
f 1//9 8//9 5//9
f 8//10 1//10 2//10
f 10//11 6//11 4//11
f 3//12 1//12 2//12
f 9//13 12//13 7//13
f 12//14 4//14 2//14
f 7//15 12//15 2//15
f 11//16 8//16 6//16
f 8//17 5//17 6//17
f 13//18 7//18 9//18
f 7//19 13//19 8//19
f 13//20 10//20 12//20
f 4//21 6//21 3//21
f 10//22 13//22 11//22
f 5//23 1//23 2//23
f 8//24 5//24 2//24
f 7//25 9//25 2//25
f 9//26 12//26 2//26
f 13//27 8//27 9//27
f 9//28 8//28 7//28
