# Blender 4.0.0
# www.blender.org
o decimated_mesh
v 0.370692 0.064705 -0.326333
v 0.527540 0.065133 -0.260514
v 0.528521 0.971574 -0.263379
v 0.371671 0.971596 -0.321658
v 0.528720 0.971571 -0.328316
v 0.525346 0.064772 -0.327471
vn -0.3483 0.0033 0.9374
vn -0.0074 -0.0009 -1.0000
vn 0.9995 -0.0037 -0.0327
vn -0.3869 -0.0043 0.9221
vn 0.0002 1.0000 -0.0001
vn 0.0005 -1.0000 0.0054
vn -0.0424 0.0052 -0.9991
vn 1.0000 -0.0011 0.0031
s 0
f 4//1 2//1 3//1
f 1//2 5//2 6//2
f 5//3 2//3 6//3
f 4//4 1//4 2//4
f 4//5 3//5 5//5
f 2//6 1//6 6//6
f 1//7 4//7 5//7
f 5//8 3//8 2//8
