# Blender 4.0.0
# www.blender.org
o decimated_mesh
v 0.430707 1.914083 0.309633
v 0.430707 1.888942 0.309633
v -0.000216 1.897333 0.309437
v 0.430546 1.901103 -0.206112
v -0.000080 1.908106 -0.206024
vn 0.0195 0.9995 0.0236
vn -0.0388 0.9990 0.0209
vn 1.0000 -0.0000 -0.0003
vn 0.0163 0.9996 0.0209
vn 0.0163 0.9996 -0.0252
vn -0.0005 -0.0000 1.0000
vn 0.0195 0.9996 0.0209
vn 0.0163 0.9996 0.0236
s 0
f 4//1 3//1 2//1
f 1//2 5//2 3//2
f 2//3 4//3 1//3
f 3//4 4//4 5//4
f 1//5 4//5 5//5
f 2//6 1//6 3//6
f 3//7 2//7 5//7
f 5//8 2//8 4//8
