# Blender 4.0.0
# www.blender.org
o decimated_mesh
v -0.353741 0.056203 -0.010900
v -0.353741 0.038046 -0.010866
v -0.353740 0.111426 0.329453
v 0.001899 0.051877 -0.013242
v 0.001501 -0.010177 0.053213
v 0.001896 0.042957 0.328968
v -0.353862 0.041931 0.329080
v 0.001893 0.110204 0.330536
vn 0.0004 -0.0233 0.9997
vn -0.1365 -0.9906 0.0113
vn 0.0039 0.9859 -0.1673
vn -0.0031 -0.0054 1.0000
vn -1.0000 0.0018 -0.0003
vn -1.0000 -0.0000 -0.0004
vn 0.0239 -0.7308 -0.6822
vn 0.0110 0.9870 -0.1601
vn 1.0000 0.0001 -0.0014
vn 1.0000 -0.0054 0.0009
vn -0.0066 -0.0019 -1.0000
vn 0.0029 -0.9819 0.1892
vn 1.0000 -0.0000 -0.0000
vn 1.0000 -0.0066 -0.0002
vn 0.0109 0.9859 -0.1673
vn 0.0039 0.9871 -0.1602
s 0
f 8//1 7//1 6//1
f 2//2 5//2 7//2
f 4//3 3//3 8//3
f 8//4 3//4 7//4
f 3//5 1//5 7//5
f 1//6 2//6 7//6
f 5//7 2//7 4//7
f 4//8 1//8 3//8
f 6//9 5//9 8//9
f 8//10 5//10 4//10
f 2//11 1//11 4//11
f 6//12 7//12 5//12
f 8//13 6//13 4//13
f 6//14 5//14 4//14
f 1//15 8//15 4//15
f 1//16 3//16 8//16
