# Blender 4.0.0
# www.blender.org
o Fridge_17_FridgeBodyMesh_3a0c63c3_6_collision_6
v 0.530006 1.862553 -0.205998
v 0.532564 1.856710 -0.314502
v 0.532204 1.862553 -0.314502
v 0.511698 1.862553 -0.205998
v 0.529840 0.971659 -0.205998
v 0.532564 0.971659 -0.314502
v 0.488185 1.862553 -0.314502
v 0.488259 0.971659 -0.314502
v 0.513118 0.971659 -0.205998
vn 0.9979 0.0616 0.0202
vn -0.0000 1.0000 -0.0000
vn -0.0000 -0.0000 1.0000
vn 0.9997 -0.0002 0.0251
vn 0.9997 -0.0000 0.0236
vn -0.0000 -0.0000 -1.0000
vn -0.9773 -0.0001 0.2118
vn -0.9747 -0.0016 0.2233
vn -0.0000 -1.0000 -0.0000
s 0
f 1//1 2//1 3//1
f 1//2 3//2 7//2
f 1//2 7//2 4//2
f 1//3 4//3 9//3
f 1//3 9//3 5//3
f 1//4 5//4 6//4
f 1//5 6//5 2//5
f 2//6 6//6 8//6
f 2//6 8//6 7//6
f 2//6 7//6 3//6
f 4//7 7//7 8//7
f 4//8 8//8 9//8
f 5//9 9//9 8//9
f 5//9 8//9 6//9
