# Blender 4.0.0
# www.blender.org
o Fridge_17_FridgeBodyMesh_3a0c63c3_6_collision_11
v -0.385286 0.056547 -0.332885
v -0.385286 0.043418 -0.329450
v -0.385286 0.056547 -0.279652
v 0.372940 0.056547 -0.332885
v -0.385286 0.041081 -0.324627
v 0.372940 0.043418 -0.329450
v -0.385286 0.056208 -0.010900
v 0.372940 0.056547 -0.279652
v 0.001842 0.039513 -0.321381
v 0.001842 0.036895 -0.315960
v -0.385286 0.036895 -0.315960
v 0.372940 0.036924 -0.315992
v -0.385286 0.038042 -0.010900
v 0.001842 0.056208 -0.010900
v 0.372940 0.056208 -0.048501
v 0.353865 0.036895 -0.315929
v 0.372940 0.038042 -0.048564
v 0.001842 0.038042 -0.010900
v 0.372940 0.051505 -0.048501
v 0.372643 0.038042 -0.048501
vn -1.0000 -0.0000 -0.0000
vn -0.0000 1.0000 -0.0000
vn -0.0000 -0.2532 -0.9674
vn -0.0000 -0.8999 -0.4361
vn -0.0000 1.0000 0.0013
vn 1.0000 -0.0000 -0.0000
vn -0.0000 -0.9005 -0.4349
vn -0.0000 -0.9002 -0.4354
vn -0.0000 -0.9006 -0.4346
vn -0.0000 -0.0000 -1.0000
vn 0.0001 1.0000 0.0015
vn -0.0000 -0.9135 -0.4069
vn -0.0000 1.0000 -0.0038
vn 0.0015 -1.0000 0.0042
vn -0.0000 -1.0000 0.0038
vn -0.1008 -0.0000 -0.9949
vn 0.0009 -1.0000 0.0042
vn 0.0004 -1.0000 0.0043
vn 0.2077 -0.0046 0.9782
vn 0.1009 -0.0022 0.9949
vn -1.0000 -0.0065 -0.0000
s 0
f 1//1 2//1 5//1
f 1//1 5//1 11//1
f 1//1 11//1 13//1
f 1//1 13//1 7//1
f 1//1 7//1 3//1
f 1//2 3//2 8//2
f 1//2 8//2 4//2
f 1//3 4//3 6//3
f 1//3 6//3 2//3
f 2//4 6//4 5//4
f 3//5 7//5 14//5
f 3//5 14//5 8//5
f 4//6 8//6 15//6
f 4//6 15//6 19//6
f 4//6 19//6 17//6
f 4//6 17//6 12//6
f 4//6 12//6 6//6
f 5//7 9//7 10//7
f 5//7 10//7 11//7
f 5//8 6//8 9//8
f 6//9 12//9 10//9
f 6//7 10//7 9//7
f 7//10 18//10 13//10
f 7//10 14//10 18//10
f 8//11 14//11 15//11
f 10//12 12//12 16//12
f 11//13 13//13 10//13
f 12//14 17//14 16//14
f 13//13 16//13 10//13
f 13//15 16//15 18//15
f 14//16 19//16 18//16
f 14//16 15//16 19//16
f 16//17 17//17 20//17
f 16//18 20//18 18//18
f 17//19 19//19 20//19
f 18//20 20//20 19//20
f 2//21 5//21 11//21
f 2//1 11//1 13//1
f 2//1 13//1 7//1
f 2//1 7//1 3//1
f 2//1 3//1 1//1
f 3//2 8//2 4//2
f 3//2 4//2 1//2
f 4//3 6//3 2//3
f 4//3 2//3 1//3
f 7//5 14//5 8//5
f 7//5 8//5 3//5
f 8//6 15//6 19//6
f 8//6 19//6 17//6
f 8//6 17//6 12//6
f 8//6 12//6 6//6
f 8//6 6//6 4//6
f 13//10 14//10 18//10
f 13//10 7//10 14//10
f 16//2 10//2 11//2
f 16//13 11//13 13//13
f 18//16 15//16 19//16
f 18//16 14//16 15//16
