# Blender 4.0.0
# www.blender.org
o decimated_mesh
v -0.499170 0.038883 -0.010888
v -0.500169 0.039119 0.308825
v -0.526323 0.053806 0.308806
v -0.526340 0.051185 -0.010850
v -0.513110 0.155755 -0.010869
v -0.501513 0.155724 0.308830
v -0.529833 0.155755 -0.010869
v -0.531599 0.155756 0.308826
vn -0.9987 -0.0517 0.0005
vn -0.4896 -0.8719 0.0072
vn -0.0000 -0.0002 -1.0000
vn -0.0000 1.0000 -0.0000
vn 0.9923 0.1184 -0.0360
vn -0.0001 -0.0002 1.0000
vn 0.9999 0.0115 0.0031
vn -0.9994 -0.0334 -0.0055
vn -0.4125 -0.9110 -0.0006
vn -0.0014 -0.0000 -1.0000
vn 0.0011 1.0000 0.0001
vn -0.0008 -0.0000 1.0000
vn -0.0000 0.0002 -1.0000
vn -0.0015 -0.0002 -1.0000
s 0
f 8//1 4//1 3//1
f 4//2 2//2 3//2
f 4//3 7//3 5//3
f 7//4 8//4 5//4
f 1//5 5//5 6//5
f 6//6 8//6 3//6
f 2//7 1//7 6//7
f 8//8 7//8 4//8
f 4//9 1//9 2//9
f 5//10 1//10 4//10
f 8//11 6//11 5//11
f 2//12 6//12 3//12
f 7//13 5//13 1//13
f 4//14 7//14 1//14
