mtllib material.mtl
usemtl material_0
v 0.02439361 0.09377933 0.02906982
v 0.01882461 0.10165900 0.02243347
v 0.02206726 0.10165260 0.01851624
v 0.02632553 0.08559714 0.03137329
v 0.02859848 0.09375024 0.02399536
v 0.02603226 0.07693951 0.03155334
v 0.03084442 0.08559310 0.02588196
v 0.03082855 0.07812550 0.02586731
v 0.03559494 0.07693949 0.02015686
v 0.03546875 0.08559722 0.02047607
v 0.04033310 0.08559725 0.00711182
v 0.02935333 0.07516077 0.02463074
v 0.03172775 0.07311359 0.02176453
v 0.03172806 0.00365062 0.02176453
v 0.02694397 0.07311363 0.02746582
v 0.02694397 0.00365067 0.02746582
v 0.02603226 -0.00017527 0.03155334
v 0.02935333 0.00160351 0.02463074
v 0.03559494 -0.00017529 0.02015686
v 0.03082825 -0.00286041 0.02586731
v 0.02633545 -0.00512209 0.03138550
v 0.03085632 -0.00511568 0.02589111
v 0.03077438 -0.00581246 0.02582153
v 0.02622253 -0.00587248 0.03125122
v 0.03532928 -0.00587244 0.02039795
v 0.03548218 -0.00512210 0.02048462
v 0.04017502 -0.00587241 0.00708496
v 0.04034836 -0.00512206 0.00711426
v 0.02049438 0.10663820 0.00361328
v 0.01439423 0.11205300 0.00253845
v 0.01427917 0.11213050 0.00000000
v 0.01439423 0.11205290 -0.00253845
v 0.02049423 0.10663830 -0.00361328
v 0.01802277 0.10663820 -0.01040344
v 0.01265747 0.11205320 -0.00730774
v 0.01093842 0.11213060 -0.00917725
v 0.01562424 0.10667940 -0.01311035
v 0.01337631 0.10663830 -0.01594055
v 0.00939590 0.11205300 -0.01119629
v 0.02039627 0.10667940 0.00000000
v 0.02884048 0.10165910 -0.00508484
v 0.02884048 0.10165900 0.00508606
v 0.02880615 0.10165260 0.00000000
v 0.03737228 0.09377939 -0.00658875
v 0.03286545 0.09377931 -0.01897400
v 0.02536224 0.10165900 -0.01464172
v 0.02206726 0.10165250 -0.01851440
v 0.02859848 0.09375019 -0.02399658
v 0.02439361 0.09377933 -0.02907104
v 0.01882461 0.10165900 -0.02243347
v 0.03546875 0.08559719 -0.02047729
v 0.04033310 0.08559724 -0.00711182
v 0.03733200 0.09375029 0.00000122
v 0.03737228 0.09377940 0.00658997
v 0.04026413 0.08559322 0.00000000
v 0.04022384 0.07693957 -0.00743774
v 0.03286545 0.09377944 0.01897400
v 0.02536209 0.10165900 0.01464294
v 0.04022384 0.07693955 0.00743896
v 0.04024338 0.07812557 0.00000000
v 0.04022384 -0.00017531 0.00743896
v 0.03829483 0.07311365 0.00372192
v 0.03831726 0.07516085 0.00000000
v 0.03829452 0.00365064 0.00372192
v 0.03831726 0.00160352 0.00000000
v 0.04024338 -0.00286043 0.00000000
v 0.04022384 -0.00017534 -0.00743774
v 0.03829452 0.00365062 -0.00372192
v 0.03829483 0.07311368 -0.00372192
v 0.04028015 -0.00511567 0.00000000
v 0.03559494 -0.00017524 -0.02015808
v 0.03559494 0.07693943 -0.02015808
v 0.03548218 -0.00512199 -0.02048462
v 0.04034836 -0.00512202 -0.00711426
v 0.03532928 -0.00587242 -0.02039795
v 0.04017502 -0.00587239 -0.00708374
v 0.04017258 -0.00581249 0.00000000
v 0.01398331 0.00009031 -0.03841858
v 0.01398331 0.07517472 -0.03841858
v 0.00000000 0.07517472 -0.04088379
v 0.02603226 0.07693945 -0.03155334
v 0.02603226 -0.00017527 -0.03155334
v 0.01401276 -0.00512186 -0.03850098
v 0.00000000 0.00009031 -0.04088379
v 0.00000000 -0.00512195 -0.04097107
v 0.02632553 0.08559720 -0.03137329
v 0.01400757 0.08559716 -0.03848572
v 0.02439361 0.09377933 -0.02907104
v 0.01297928 0.09377930 -0.03566101
v 0.00000000 0.08559718 -0.04095581
v 0.00000000 0.09377931 -0.03794983
v -0.01400742 0.08559715 -0.03848572
v -0.01297913 0.09377927 -0.03566101
v -0.01398315 0.07517472 -0.03841858
v -0.01398315 0.00009031 -0.03841858
v -0.01401276 -0.00512165 -0.03850098
v -0.01395218 -0.00587223 -0.03833496
v 0.00000000 -0.00587235 -0.04079468
v -0.02622192 -0.00587210 -0.03124878
v -0.02633545 -0.00512148 -0.03138550
v -0.02603210 -0.00017535 -0.03155334
v 0.01395325 -0.00587239 -0.03833496
v 0.02633575 -0.00512185 -0.03138550
v 0.02622253 -0.00587238 -0.03124878
v -0.02603195 0.07693953 -0.03155334
v -0.02632538 0.08559718 -0.03137390
v -0.02439270 0.09377930 -0.02907104
v -0.04022384 -0.00017535 -0.00743774
v -0.03559387 0.07693948 -0.02015808
v -0.04022384 0.07693957 -0.00743774
v -0.03559402 -0.00017530 -0.02015808
v -0.04034821 -0.00512197 -0.00711426
v -0.03548111 -0.00512189 -0.02048462
v -0.04017456 -0.00587236 -0.00708374
v -0.03532822 -0.00587235 -0.02039795
v -0.03085602 -0.00511525 -0.02589111
v -0.03077332 -0.00581234 -0.02582153
v -0.02633545 -0.00512148 -0.03138550
v -0.02622192 -0.00587210 -0.03124878
v -0.03082779 -0.00286048 -0.02586731
v -0.02603210 -0.00017535 -0.03155334
v -0.02935211 0.00160340 -0.02463074
v -0.03172684 0.00365061 -0.02176453
v -0.02694244 0.00365060 -0.02746704
v -0.02603195 0.07693953 -0.03155334
v -0.02935196 0.07516072 -0.02463074
v -0.03172668 0.07311357 -0.02176453
v -0.02694244 0.07311357 -0.02746704
v -0.03082764 0.07812545 -0.02586731
v -0.03084351 0.08559316 -0.02588196
v -0.02632538 0.08559718 -0.03137390
v -0.03546768 0.08559715 -0.02047729
v -0.02859756 0.09375016 -0.02399658
v -0.02439270 0.09377930 -0.02907104
v -0.03286423 0.09377927 -0.01897400
v -0.04033295 0.08559709 -0.00711182
v -0.02206604 0.10165250 -0.01851440
v -0.01882339 0.10165900 -0.02243347
v -0.02536133 0.10165890 -0.01464172
v -0.03737152 0.09377930 -0.00658875
v -0.03733124 0.09375015 0.00000122
v -0.02880569 0.10165260 0.00000000
v -0.02632553 0.08559708 0.03137329
v -0.02439285 0.09377926 0.02906982
v -0.01297913 0.09377930 0.03566101
v -0.01400757 0.08559719 0.03848572
v -0.02603210 0.07693956 0.03155334
v -0.01398331 0.07517472 0.03841858
v -0.02603210 -0.00017537 0.03155334
v -0.01398331 0.00009031 0.03841858
v 0.00000000 0.07517472 0.04088379
v -0.02633545 -0.00512179 0.03138550
v 0.00000000 0.00009031 0.04088379
v -0.01401291 -0.00512187 0.03849975
v 0.00000000 -0.00512194 0.04097107
v 0.01398331 0.00009031 0.03841858
v -0.01395218 -0.00587235 0.03833374
v -0.02622192 -0.00587227 0.03125122
v 0.00000000 -0.00587235 0.04079407
v 0.00000000 0.09377934 0.03794861
v 0.00000000 0.08559725 0.04095581
v 0.01297897 0.09377933 0.03566101
v 0.01400757 0.08559721 0.03848572
v 0.02439361 0.09377933 0.02906982
v 0.02632553 0.08559714 0.03137329
v 0.01398331 0.07517472 0.03841858
v 0.02603226 0.07693951 0.03155334
v 0.02603226 -0.00017527 0.03155334
v 0.01401276 -0.00512205 0.03849975
v 0.02633545 -0.00512209 0.03138550
v 0.02622253 -0.00587248 0.03125122
v 0.01395325 -0.00587247 0.03833374
v 0.03084427 0.08559317 -0.02588196
v 0.02632553 0.08559720 -0.03137329
v 0.02603226 0.07693945 -0.03155334
v 0.03082855 0.07812531 -0.02586731
v 0.03172775 0.07311346 -0.02176453
v 0.02935318 0.07516049 -0.02463074
v 0.03172806 0.00365073 -0.02176453
v 0.02694397 0.07311347 -0.02746704
v 0.02603226 -0.00017527 -0.03155334
v 0.02935318 0.00160366 -0.02463074
v 0.02694397 0.00365072 -0.02746704
v 0.03082855 -0.00286031 -0.02586731
v 0.03085663 -0.00511554 -0.02589111
v 0.03077438 -0.00581256 -0.02582153
v 0.02622253 -0.00587238 -0.03124878
v -0.02884003 0.10165900 -0.00508484
v -0.02039505 0.10667930 0.00000000
v -0.02049316 0.10663820 -0.00361328
v -0.02884003 0.10165900 0.00508606
v -0.03737152 0.09377930 0.00658997
v -0.02536117 0.10165900 0.01464294
v -0.03286408 0.09377938 0.01897400
v -0.02206604 0.10165260 0.01851624
v -0.02859772 0.09375015 0.02399536
v -0.02439285 0.09377926 0.02906982
v -0.01882355 0.10165900 0.02243347
v -0.02049316 0.10663820 0.00361328
v -0.01427811 0.11213040 0.00000000
v -0.01439331 0.11205290 -0.00253784
v -0.01439316 0.11205300 0.00253845
v -0.01265655 0.11205320 -0.00730713
v -0.01265655 0.11205320 0.00730774
v -0.01802048 0.10663830 -0.01040344
v -0.01802048 0.10663830 0.01040344
v -0.01093719 0.11213070 -0.00917786
v -0.01562286 0.10667940 -0.01311035
v -0.01337601 0.10663820 -0.01594055
v -0.00939407 0.11205320 -0.01119629
v -0.01093704 0.11213070 0.00917786
v -0.01562302 0.10667940 0.01311035
v -0.01337616 0.10663820 0.01594055
v -0.00939423 0.11205310 0.01119629
v -0.01297913 0.09377930 0.03566101
v 0.00000000 0.10165900 0.02928528
v 0.00000000 0.09377934 0.03794861
v 0.01001648 0.10165900 0.02751831
v 0.01297897 0.09377933 0.03566101
v 0.01882461 0.10165900 0.02243347
v 0.02439361 0.09377933 0.02906982
v 0.01297928 0.09377930 -0.03566101
v 0.02439361 0.09377933 -0.02907104
v 0.01882461 0.10165900 -0.02243347
v 0.01001648 0.10165900 -0.02751892
v -0.02884003 0.10165900 -0.00508484
v -0.01802048 0.10663830 -0.01040344
v -0.02049316 0.10663820 -0.00361328
v -0.02536133 0.10165890 -0.01464172
v -0.01562286 0.10667940 -0.01311035
v -0.02206604 0.10165250 -0.01851440
v -0.01882339 0.10165900 -0.02243347
v -0.01337601 0.10663820 -0.01594055
v -0.00711670 0.10663820 -0.01955505
v -0.00499832 0.11205320 -0.01373413
v -0.00939407 0.11205320 -0.01119629
v 0.00000031 0.11205300 -0.01461609
v -0.01001556 0.10165900 -0.02751892
v -0.02439270 0.09377930 -0.02907104
v -0.01297913 0.09377927 -0.03566101
v 0.00000031 0.10663820 -0.02080994
v 0.00000000 0.10165900 -0.02928528
v 0.00000000 0.09377931 -0.03794983
v 0.00711746 0.10663830 -0.01955505
v 0.00499970 0.11205310 -0.01373413
v 0.00939590 0.11205300 -0.01119629
v 0.01337631 0.10663830 -0.01594055
v 0.01562424 0.10667940 -0.01311035
v 0.02206726 0.10165250 -0.01851440
v -0.02884003 0.10165900 0.00508606
v -0.02049316 0.10663820 0.00361328
v -0.01802048 0.10663830 0.01040344
v -0.02536117 0.10165900 0.01464294
v -0.01562302 0.10667940 0.01311035
v -0.02206604 0.10165260 0.01851624
v -0.01882355 0.10165900 0.02243347
v -0.01337616 0.10663820 0.01594055
v -0.00711655 0.10663820 0.01955505
v -0.00499832 0.11205310 0.01373413
v -0.00939423 0.11205310 0.01119629
v 0.00000031 0.11205290 0.01461487
v -0.01001556 0.10165900 0.02751831
v -0.02439285 0.09377926 0.02906982
v 0.00000031 0.10663820 0.02080994
v 0.00499970 0.11205310 0.01373413
v 0.00711746 0.10663820 0.01955505
v 0.00939590 0.11205300 0.01119629
v 0.01337631 0.10663820 0.01594055
v 0.01562424 0.10667940 0.01310913
v 0.02206726 0.10165260 0.01851624
v 0.02536209 0.10165900 0.01464294
v 0.01802246 0.10663830 0.01040466
v 0.02049438 0.10663820 0.00361328
v 0.02884048 0.10165900 0.00508606
v 0.02536224 0.10165900 -0.01464172
v 0.02884048 0.10165910 -0.00508484
v 0.02049423 0.10663830 -0.00361328
v 0.01802277 0.10663820 -0.01040344
v 0.01337631 0.10663820 0.01594055
v 0.00939590 0.11205300 0.01119629
v 0.01093857 0.11213060 0.00917786
v 0.01562424 0.10667940 0.01310913
v 0.01802246 0.10663830 0.01040466
v -0.03559402 -0.00017530 -0.02015808
v -0.03172684 0.00365061 -0.02176453
v -0.03172668 0.07311357 -0.02176453
v -0.03559387 0.07693948 -0.02015808
v -0.03559387 0.07693949 0.02015686
v -0.03172699 0.07311360 0.02176453
v -0.03172699 0.00365063 0.02176453
v -0.03559387 -0.00017528 0.02015686
v 0.03559494 -0.00017529 0.02015686
v 0.03172806 0.00365062 0.02176453
v 0.03172775 0.07311359 0.02176453
v 0.03559494 0.07693949 0.02015686
v 0.03559494 0.07693943 -0.02015808
v 0.03172775 0.07311346 -0.02176453
v 0.03172806 0.00365073 -0.02176453
v 0.03559494 -0.00017524 -0.02015808
v -0.04017227 -0.00581242 0.00000000
v -0.04028015 -0.00511547 0.00000000
v -0.04017456 -0.00587236 0.00708496
v -0.04024338 -0.00286047 0.00000000
v -0.04022384 -0.00017533 0.00743896
v -0.04034836 -0.00512194 0.00711426
v -0.03532837 -0.00587231 0.02039795
v -0.03831726 0.00160345 0.00000000
v -0.03548111 -0.00512201 0.02048462
v -0.03077332 -0.00581225 0.02582153
v -0.03829452 0.00365060 -0.00372192
v -0.03559387 -0.00017528 0.02015686
v -0.03085586 -0.00511541 0.02589111
v -0.02622192 -0.00587227 0.03125122
v -0.02633545 -0.00512179 0.03138550
v -0.02603210 -0.00017537 0.03155334
v -0.03082764 -0.00286050 0.02586731
v -0.02935226 0.00160336 0.02463074
v -0.03172699 0.00365063 0.02176453
v -0.02935226 0.07516084 0.02463074
v -0.03172699 0.07311360 0.02176453
v -0.03559387 0.07693949 0.02015686
v -0.04022384 0.07693952 0.00743896
v -0.02694260 0.00365054 0.02746582
v -0.02694260 0.07311367 0.02746582
v -0.02603210 0.07693956 0.03155334
v -0.03082764 0.07812553 0.02586731
v -0.02632553 0.08559708 0.03137329
v -0.03084366 0.08559302 0.02588196
v -0.03546768 0.08559714 0.02047607
v -0.04033295 0.08559709 0.00711182
v -0.04026413 0.08559299 0.00000000
v -0.04024338 0.07812552 0.00000000
v -0.03829452 0.07311368 -0.00372192
v -0.03831726 0.07516079 0.00000000
v -0.03829452 0.07311359 0.00372192
v -0.03829452 0.00365060 0.00372192
v 0.01265762 0.11205310 0.00730774
v 0.02633575 -0.00512185 -0.03138550
v 0.00000031 0.11207240 0.00000000
v 0.00000031 0.11205300 -0.01461609
v 0.00499970 0.11205310 -0.01373413
v 0.00939590 0.11205300 -0.01119629
v -0.00499832 0.11205320 -0.01373413
v 0.01093842 0.11213060 -0.00917725
v -0.00939407 0.11205320 -0.01119629
v 0.01265747 0.11205320 -0.00730774
v -0.01093719 0.11213070 -0.00917786
v 0.01439423 0.11205290 -0.00253845
v -0.01265655 0.11205320 -0.00730713
v 0.01427917 0.11213050 0.00000000
v -0.01439331 0.11205290 -0.00253784
v 0.01439423 0.11205300 0.00253845
v -0.01427811 0.11213040 0.00000000
v 0.01265762 0.11205310 0.00730774
v -0.01439316 0.11205300 0.00253845
v 0.01093857 0.11213060 0.00917786
v -0.01265655 0.11205320 0.00730774
v 0.00939590 0.11205300 0.01119629
v -0.01093704 0.11213070 0.00917786
v 0.00499970 0.11205310 0.01373413
v -0.00939423 0.11205310 0.01119629
v 0.00000031 0.11205290 0.01461487
v -0.00499832 0.11205310 0.01373413
v 0.01334625 -0.00668155 -0.03666992
v 0.02508255 -0.00668158 -0.02989319
v 0.02622253 -0.00587238 -0.03124878
v 0.01395325 -0.00587239 -0.03833496
v 0.03077438 -0.00581256 -0.02582153
v 0.00000000 -0.00668150 -0.03902039
v 0.00000000 -0.00587235 -0.04079468
v 0.02950424 -0.00665193 -0.02475708
v 0.03532928 -0.00587242 -0.02039795
v 0.00000031 -0.00649540 -0.00000122
v -0.01334549 -0.00668156 -0.03666992
v -0.01395218 -0.00587223 -0.03833496
v 0.03379364 -0.00668153 -0.01951233
v 0.04017502 -0.00587239 -0.00708374
v -0.02508209 -0.00668159 -0.02989319
v 0.03842850 -0.00668150 -0.00677612
v -0.02950348 -0.00665194 -0.02475708
v -0.02622192 -0.00587210 -0.03124878
v 0.04017258 -0.00581249 0.00000000
v -0.03077332 -0.00581234 -0.02582153
v 0.03851517 -0.00665188 0.00000000
v 0.04017502 -0.00587241 0.00708496
v -0.03379242 -0.00668152 -0.01951233
v -0.03532822 -0.00587235 -0.02039795
v 0.03842850 -0.00668149 0.00677673
v 0.03532928 -0.00587244 0.02039795
v -0.03842850 -0.00668151 -0.00677612
v -0.04017456 -0.00587236 -0.00708374
v 0.03379364 -0.00668149 0.01951050
v 0.03077438 -0.00581246 0.02582153
v -0.03851486 -0.00665191 0.00000000
v 0.02950455 -0.00665185 0.02475525
v 0.02508285 -0.00668153 0.02989319
v 0.02622253 -0.00587248 0.03125122
v 0.01395325 -0.00587247 0.03833374
v -0.04017227 -0.00581242 0.00000000
v 0.01334640 -0.00668153 0.03666870
v 0.00000000 -0.00587235 0.04079407
v 0.00000000 -0.00668150 0.03902039
v -0.01395218 -0.00587235 0.03833374
v -0.01334610 -0.00668154 0.03666870
v -0.02622192 -0.00587227 0.03125122
v -0.02508224 -0.00668155 0.02989319
v -0.03077332 -0.00581225 0.02582153
v -0.02950363 -0.00665185 0.02475525
v -0.03532837 -0.00587231 0.02039795
v -0.03379257 -0.00668147 0.01951050
v -0.04017456 -0.00587236 0.00708496
v -0.03842850 -0.00668152 0.00677612
vn 0.49674640 0.55896670 0.66392700
vn 0.37126820 0.78504660 0.49584450
vn 0.47367710 0.78589520 0.39749040
vn 0.58665820 0.16340460 0.79317790
vn 0.63191850 0.56523300 0.53027420
vn 0.58931220 -0.00598689 0.80788330
vn 0.75495090 0.16959170 0.63347280
vn 0.76031890 -0.12209370 0.63797200
vn 0.89770760 -0.00532193 0.44055960
vn 0.87938350 0.17120740 0.44426650
vn 0.95922160 0.17120800 0.22490380
vn 0.76440400 -0.06538159 0.64141380
vn 0.57254910 -0.01553122 0.81972340
vn 0.57263120 0.01540458 0.81966830
vn 0.90671010 -0.01553340 0.42146840
vn 0.90667140 0.01540129 0.42155650
vn 0.58612280 0.00721800 0.81019000
vn 0.76446620 0.06433189 0.64144590
vn 0.89745890 0.00676924 0.44104630
vn 0.75472470 0.17120880 0.63330730
vn 0.58462070 -0.01964645 0.81106880
vn 0.76597830 -0.01298349 0.64273520
vn 0.49642370 -0.76163380 0.41650620
vn 0.39030170 -0.75747580 0.52334990
vn 0.58296340 -0.75765090 0.29346000
vn 0.89836990 -0.02507475 0.43852340
vn 0.63526700 -0.75756990 0.15007840
vn 0.97008450 -0.02505177 0.24147130
vn 0.54445690 0.82909880 0.12712940
vn 0.64193440 0.75237340 0.14783300
vn 0.66501060 0.74683390 -0.00000980
vn 0.64192250 0.75238250 -0.14783760
vn 0.54444610 0.82910410 -0.12714050
vn 0.49879710 0.82909930 -0.25257830
vn 0.58676170 0.75235620 -0.29945100
vn 0.50946500 0.74682580 -0.42743040
vn 0.43909870 0.81942620 -0.36841960
vn 0.33535490 0.82910250 -0.44735480
vn 0.39681160 0.75232370 -0.52587980
vn 0.57322170 0.81940030 -0.00000441
vn 0.60316040 0.78502950 -0.14115990
vn 0.60316540 0.78502570 0.14115990
vn 0.61836530 0.78589080 0.00000068
vn 0.80731080 0.55895230 -0.18926600
vn 0.74011370 0.55895330 -0.37390220
vn 0.55279200 0.78503030 -0.27955030
vn 0.47369810 0.78591170 -0.39743300
vn 0.63194010 0.56524960 -0.53023090
vn 0.49676440 0.55895880 -0.66392030
vn 0.37130140 0.78505760 -0.49580230
vn 0.87938310 0.17121720 -0.44426350
vn 0.95922050 0.17122140 -0.22489840
vn 0.82492740 0.56523860 0.00000013
vn 0.80730890 0.55894810 0.18928660
vn 0.98551460 0.16959020 0.00000033
vn 0.97087280 -0.00532415 -0.23953630
vn 0.74012680 0.55892780 0.37391440
vn 0.55280230 0.78501950 0.27956030
vn 0.97086700 -0.00532312 0.23956000
vn 0.99251690 -0.12210680 0.00000037
vn 0.97099060 0.00677277 0.23902170
vn 0.96548350 -0.01553629 -0.26000050
vn 0.99786140 -0.06536428 0.00000022
vn 0.96551170 0.01540799 -0.25990350
vn 0.99792860 0.06433185 0.00000038
vn 0.98521630 0.17131520 0.00000027
vn 0.97099620 0.00677365 -0.23899890
vn 0.96549870 0.01540639 0.25995150
vn 0.96547090 -0.01553645 0.26004730
vn 0.99991500 -0.01304043 0.00000000
vn 0.89748610 0.00676988 -0.44099080
vn 0.89773550 -0.00532255 -0.44050290
vn 0.89838490 -0.02511704 -0.43849030
vn 0.97007480 -0.02508173 -0.24150740
vn 0.58303080 -0.75760220 -0.29345210
vn 0.63526230 -0.75758700 -0.15001330
vn 0.64797680 -0.76166000 -0.00000048
vn 0.33931880 0.00083007 -0.94067110
vn 0.34272240 -0.00057089 -0.93943650
vn 0.00000000 -0.00084023 -0.99999960
vn 0.58930120 -0.00598551 -0.80789120
vn 0.58611570 0.00722586 -0.81019520
vn 0.33809750 -0.01806915 -0.94093760
vn -0.00000020 0.00109240 -0.99999940
vn -0.00000386 -0.01424812 -0.99989860
vn 0.58665040 0.16336580 -0.79319160
vn 0.33257280 0.15447380 -0.93034030
vn 0.49676440 0.55895880 -0.66392030
vn 0.28346430 0.55962680 -0.77875920
vn -0.00001586 0.14918090 -0.98881000
vn -0.00001180 0.55963350 -0.82874020
vn -0.33258270 0.15447870 -0.93033600
vn -0.28348530 0.55963360 -0.77874660
vn -0.34273260 -0.00057144 -0.93943280
vn -0.33932700 0.00083007 -0.94066810
vn -0.33809610 -0.01810514 -0.94093750
vn -0.22182600 -0.76117570 -0.60942990
vn -0.00001141 -0.76126490 -0.64844110
vn -0.39042280 -0.75742050 -0.52333950
vn -0.58459120 -0.01983272 -0.81108560
vn -0.58612720 0.00722905 -0.81018680
vn 0.22184080 -0.76119760 -0.60939710
vn 0.58459910 -0.01978731 -0.81108090
vn 0.39040260 -0.75746170 -0.52329500
vn -0.58931580 -0.00599017 -0.80788050
vn -0.58665810 0.16337690 -0.79318370
vn -0.49676590 0.55898170 -0.66390000
vn -0.97098200 0.00677096 -0.23905670
vn -0.89770630 -0.00532570 -0.44056220
vn -0.97085890 -0.00532585 -0.23959280
vn -0.89745550 0.00676744 -0.44105300
vn -0.97006110 -0.02515934 -0.24155420
vn -0.89836560 -0.02517680 -0.43852630
vn -0.63525900 -0.75758480 -0.15003760
vn -0.58301750 -0.75760810 -0.29346310
vn -0.76602950 -0.01317213 -0.64267040
vn -0.49656680 -0.76144880 -0.41667400
vn -0.58459120 -0.01983272 -0.81108560
vn -0.39042280 -0.75742050 -0.52333950
vn -0.75476400 0.17122250 -0.63325690
vn -0.58612720 0.00722905 -0.81018680
vn -0.76448910 0.06432867 -0.64141910
vn -0.57247830 0.01540740 -0.81977510
vn -0.90671180 0.01540515 -0.42146940
vn -0.58931580 -0.00599017 -0.80788050
vn -0.76443900 -0.06536536 -0.64137380
vn -0.57239340 -0.01553320 -0.81983200
vn -0.90675220 -0.01553153 -0.42137790
vn -0.76032250 -0.12211830 -0.63796290
vn -0.75497360 0.16959180 -0.63344570
vn -0.58665810 0.16337690 -0.79318370
vn -0.87936720 0.17123910 -0.44428660
vn -0.63193910 0.56527530 -0.53020450
vn -0.49676590 0.55898170 -0.66390000
vn -0.74009810 0.55896950 -0.37390900
vn -0.95920340 0.17125560 -0.22494510
vn -0.47367700 0.78592920 -0.39742340
vn -0.37133470 0.78504850 -0.49579180
vn -0.55277810 0.78503610 -0.27956190
vn -0.80728790 0.55897620 -0.18929350
vn -0.82493420 0.56522890 -0.00000030
vn -0.61836670 0.78588960 0.00000221
vn -0.58668360 0.16340380 0.79315920
vn -0.49675880 0.55898060 0.66390620
vn -0.28344310 0.55965010 0.77875010
vn -0.33256880 0.15450790 0.93033610
vn -0.58932270 -0.00598907 0.80787550
vn -0.34270160 -0.00057141 0.93944420
vn -0.58613070 0.00722272 0.81018430
vn -0.33929570 0.00082317 0.94067940
vn 0.00000000 -0.00084022 0.99999960
vn -0.58462790 -0.01970264 0.81106230
vn 0.00000000 0.00108470 0.99999940
vn -0.33811580 -0.01813576 0.94092980
vn 0.00000081 -0.01439975 0.99989630
vn 0.33929510 0.00082194 0.94067970
vn -0.22178490 -0.76119520 0.60942050
vn -0.39031190 -0.75745420 0.52337340
vn 0.00000216 -0.76127720 0.64842660
vn 0.00000000 0.55965490 0.82872580
vn 0.00000000 0.14920830 0.98880580
vn 0.28343360 0.55964440 0.77875780
vn 0.33257730 0.15450790 0.93033310
vn 0.49674640 0.55896670 0.66392700
vn 0.58665820 0.16340460 0.79317790
vn 0.34270100 -0.00057099 0.93944440
vn 0.58931220 -0.00598689 0.80788330
vn 0.58612280 0.00721800 0.81019000
vn 0.33811550 -0.01810582 0.94093040
vn 0.58462070 -0.01964645 0.81106880
vn 0.39030170 -0.75747580 0.52334990
vn 0.22183140 -0.76120220 0.60939490
vn 0.75493770 0.16957810 -0.63349230
vn 0.58665040 0.16336580 -0.79319160
vn 0.58930120 -0.00598551 -0.80789120
vn 0.76030330 -0.12207090 -0.63799500
vn 0.57237120 -0.01553275 -0.81984750
vn 0.76444010 -0.06535604 -0.64137360
vn 0.57245340 0.01540580 -0.81979250
vn 0.90671250 -0.01552923 -0.42146320
vn 0.58611570 0.00722586 -0.81019520
vn 0.76448730 0.06432110 -0.64142170
vn 0.90667140 0.01540108 -0.42155640
vn 0.75474310 0.17118130 -0.63329290
vn 0.76600300 -0.01315201 -0.64270250
vn 0.49652170 -0.76148550 -0.41666060
vn 0.39040260 -0.75746170 -0.52329500
vn -0.60315810 0.78502810 -0.14117790
vn -0.57318310 0.81942740 0.00000538
vn -0.54441560 0.82912050 -0.12716460
vn -0.60316620 0.78502160 0.14117970
vn -0.80731180 0.55893590 0.18931030
vn -0.55277610 0.78503420 0.27957100
vn -0.74010970 0.55893790 0.37393300
vn -0.47368790 0.78590210 0.39746400
vn -0.63193210 0.56523810 0.53025250
vn -0.49675880 0.55898060 0.66390620
vn -0.37128150 0.78504470 0.49583770
vn -0.54442640 0.82911540 0.12715200
vn -0.66503890 0.74680870 0.00000751
vn -0.64193650 0.75236540 -0.14786430
vn -0.64197870 0.75232950 0.14786440
vn -0.58677380 0.75234340 -0.29945960
vn -0.58678070 0.75233230 0.29947360
vn -0.49877450 0.82910760 -0.25259580
vn -0.49877070 0.82911570 0.25257660
vn -0.50951660 0.74681460 -0.42738830
vn -0.43912600 0.81942770 -0.36838390
vn -0.33540000 0.82909350 -0.44733740
vn -0.39681730 0.75233180 -0.52586390
vn -0.50944050 0.74684490 0.42742600
vn -0.43905400 0.81946200 0.36839330
vn -0.33534190 0.82910310 0.44736330
vn -0.39678020 0.75234000 0.52588030
vn -0.28344310 0.55965010 0.77875010
vn -0.00000055 0.78559900 0.61873600
vn 0.00000000 0.55965490 0.82872580
vn 0.21161580 0.78560650 0.58141310
vn 0.28343360 0.55964440 0.77875780
vn 0.37126820 0.78504660 0.49584450
vn 0.49674640 0.55896670 0.66392700
vn 0.28346430 0.55962680 -0.77875920
vn 0.49676440 0.55895880 -0.66392030
vn 0.37130140 0.78505760 -0.49580230
vn 0.21163110 0.78561160 -0.58140050
vn -0.60315810 0.78502810 -0.14117790
vn -0.49877450 0.82910760 -0.25259580
vn -0.54441560 0.82912050 -0.12716460
vn -0.55277810 0.78503610 -0.27956190
vn -0.43912600 0.81942770 -0.36838390
vn -0.47367700 0.78592920 -0.39742340
vn -0.37133470 0.78504850 -0.49579180
vn -0.33540000 0.82909350 -0.44733740
vn -0.19119870 0.82921620 -0.52520810
vn -0.22519480 0.75286160 -0.61845510
vn -0.39681730 0.75233180 -0.52586390
vn -0.00002081 0.75288010 -0.65815770
vn -0.21164350 0.78561430 -0.58139260
vn -0.49676590 0.55898170 -0.66390000
vn -0.28348530 0.55963360 -0.77874660
vn 0.00000468 0.82921550 -0.55892910
vn 0.00001254 0.78560900 -0.61872330
vn -0.00001180 0.55963350 -0.82874020
vn 0.19118360 0.82921730 -0.52521180
vn 0.22516910 0.75286140 -0.61846460
vn 0.39681160 0.75232370 -0.52587980
vn 0.33535490 0.82910250 -0.44735480
vn 0.43909870 0.81942620 -0.36841960
vn 0.47369810 0.78591170 -0.39743300
vn -0.60316620 0.78502160 0.14117970
vn -0.54442640 0.82911540 0.12715200
vn -0.49877070 0.82911570 0.25257660
vn -0.55277610 0.78503420 0.27957100
vn -0.43905400 0.81946200 0.36839330
vn -0.47368790 0.78590210 0.39746400
vn -0.37128150 0.78504470 0.49583770
vn -0.33534190 0.82910310 0.44736330
vn -0.19117420 0.82921750 0.52521490
vn -0.22510470 0.75288980 0.61845370
vn -0.39678020 0.75234000 0.52588030
vn 0.00000000 0.75290750 0.65812630
vn -0.21161720 0.78561180 0.58140540
vn -0.49675880 0.55898060 0.66390620
vn 0.00000140 0.82921820 0.55892500
vn 0.22510710 0.75287720 0.61846800
vn 0.19117010 0.82921530 0.52521990
vn 0.39683140 0.75230990 0.52588470
vn 0.33533950 0.82910410 0.44736330
vn 0.43905420 0.81943500 0.36845310
vn 0.47367710 0.78589520 0.39749040
vn 0.55280230 0.78501950 0.27956030
vn 0.49878590 0.82910630 0.25257770
vn 0.54445690 0.82909880 0.12712940
vn 0.60316540 0.78502570 0.14115990
vn 0.55279200 0.78503030 -0.27955030
vn 0.60316040 0.78502950 -0.14115990
vn 0.54444610 0.82910410 -0.12714050
vn 0.49879710 0.82909930 -0.25257830
vn 0.33533950 0.82910410 0.44736330
vn 0.39683140 0.75230990 0.52588470
vn 0.50944250 0.74681450 0.42747670
vn 0.43905420 0.81943500 0.36845310
vn 0.49878590 0.82910630 0.25257770
vn -0.89745550 0.00676744 -0.44105300
vn -0.57247830 0.01540740 -0.81977510
vn -0.57239340 -0.01553320 -0.81983200
vn -0.89770630 -0.00532570 -0.44056220
vn -0.89769050 -0.00532089 0.44059450
vn -0.57256630 -0.01553065 0.81971130
vn -0.57264880 0.01540429 0.81965610
vn -0.89743900 0.00676944 0.44108670
vn 0.89745890 0.00676924 0.44104630
vn 0.57263120 0.01540458 0.81966830
vn 0.57254910 -0.01553122 0.81972340
vn 0.89770760 -0.00532193 0.44055960
vn 0.89773550 -0.00532255 -0.44050290
vn 0.57237120 -0.01553275 -0.81984750
vn 0.57245340 0.01540580 -0.81979250
vn 0.89748610 0.00676988 -0.44099080
vn -0.64801910 -0.76162400 -0.00000178
vn -0.99991380 -0.01313162 -0.00000696
vn -0.63523660 -0.75758990 0.15010600
vn -0.98521810 0.17130490 -0.00000396
vn -0.97097970 0.00677184 0.23906630
vn -0.97007200 -0.02511329 0.24151560
vn -0.58293010 -0.75767300 0.29346910
vn -0.99792780 0.06434396 0.00000042
vn -0.89834990 -0.02510940 0.43856250
vn -0.49642440 -0.76163580 0.41650170
vn -0.96550290 0.01540773 0.25993590
vn -0.89743900 0.00676944 0.44108670
vn -0.76601060 -0.01302881 0.64269580
vn -0.39031190 -0.75745420 0.52337340
vn -0.58462790 -0.01970264 0.81106230
vn -0.58613070 0.00722272 0.81018430
vn -0.75473680 0.17125950 0.63327910
vn -0.76445450 0.06434085 0.64145890
vn -0.57264880 0.01540429 0.81965610
vn -0.76440500 -0.06536978 0.64141390
vn -0.57256630 -0.01553065 0.81971130
vn -0.89769050 -0.00532089 0.44059450
vn -0.97085580 -0.00532162 0.23960510
vn -0.90671510 0.01540620 0.42146230
vn -0.90675600 -0.01553239 0.42136970
vn -0.58932270 -0.00598907 0.80787550
vn -0.76039000 -0.12209330 0.63788740
vn -0.58668360 0.16340380 0.79315920
vn -0.75499670 0.16959710 0.63341670
vn -0.87936800 0.17122890 0.44428870
vn -0.95920670 0.17123770 0.22494490
vn -0.98550760 0.16963180 0.00000033
vn -0.99251790 -0.12209830 0.00000000
vn -0.96547540 -0.01553545 0.26003090
vn -0.99786070 -0.06537612 -0.00000017
vn -0.96547930 -0.01553625 -0.26001610
vn -0.96550710 0.01540883 -0.25992010
vn 0.58674880 0.75236520 0.29945340
vn 0.58459910 -0.01978731 -0.81108090
vn 0.00044915 0.99999920 -0.00124449
vn 0.00044915 0.99999920 -0.00124449
vn 0.00044915 0.99999920 -0.00124449
vn 0.00044915 0.99999920 -0.00124449
vn -0.00042686 0.99999920 -0.00124271
vn -0.00314439 0.99999180 0.00259526
vn -0.00042686 0.99999920 -0.00124271
vn -0.00314439 0.99999180 0.00259526
vn 0.00312004 0.99999170 0.00262892
vn -0.00049053 0.99994520 -0.01046583
vn 0.00312004 0.99999170 0.00262893
vn -0.00049555 0.99994500 0.01047644
vn 0.00048950 0.99994520 -0.01046365
vn -0.00049555 0.99994500 0.01047644
vn 0.00048950 0.99994520 -0.01046365
vn -0.00312833 0.99999180 -0.00260557
vn 0.00049296 0.99994520 0.01046292
vn -0.00312833 0.99999180 -0.00260557
vn 0.00313741 0.99999170 -0.00260809
vn 0.00043676 0.99999920 0.00125039
vn 0.00313741 0.99999170 -0.00260809
vn 0.00043676 0.99999920 0.00125039
vn 0.00313741 0.99999170 -0.00260809
vn -0.00043096 0.99999920 0.00125128
vn -0.00043096 0.99999920 0.00125128
vn 0.00694759 -0.99979340 -0.01910322
vn 0.01290600 -0.99978430 -0.01627755
vn 0.39040260 -0.75746170 -0.52329500
vn 0.22184080 -0.76119760 -0.60939710
vn 0.49652170 -0.76148550 -0.41666060
vn -0.00000025 -0.99978800 -0.02059178
vn -0.00001141 -0.76126490 -0.64844110
vn 0.01334650 -0.99984820 -0.01119535
vn 0.58303080 -0.75760220 -0.29345210
vn 0.00058987 -0.99999990 0.00000063
vn -0.00695013 -0.99979340 -0.01910662
vn -0.22182600 -0.76117570 -0.60942990
vn 0.02270155 -0.99968300 -0.01088799
vn 0.63526230 -0.75758700 -0.15001330
vn -0.01290989 -0.99978410 -0.01628319
vn 0.02004188 -0.99979390 -0.00321959
vn -0.01335068 -0.99984810 -0.01119739
vn -0.39042280 -0.75742050 -0.52333950
vn 0.64797680 -0.76166000 -0.00000048
vn -0.49656680 -0.76144880 -0.41667400
vn 0.01017703 -0.99994830 0.00000080
vn 0.63526700 -0.75756990 0.15007840
vn -0.01298675 -0.99988440 -0.00790927
vn -0.58301750 -0.75760810 -0.29346310
vn 0.02004368 -0.99979390 0.00322131
vn 0.58296340 -0.75765090 0.29346000
vn -0.00816652 -0.99996240 -0.00290903
vn -0.63525900 -0.75758480 -0.15003760
vn 0.02270507 -0.99968290 0.01088992
vn 0.49642370 -0.76163380 0.41650620
vn -0.00300758 -0.99999550 0.00000140
vn 0.01334522 -0.99984820 0.01119382
vn 0.01290435 -0.99978430 0.01627181
vn 0.39030170 -0.75747580 0.52334990
vn 0.22183140 -0.76120220 0.60939490
vn -0.64801910 -0.76162400 -0.00000178
vn 0.00694748 -0.99979350 0.01909791
vn 0.00000216 -0.76127720 0.64842660
vn 0.00000061 -0.99978800 0.02059229
vn -0.22178490 -0.76119520 0.60942050
vn -0.00694905 -0.99979350 0.01910008
vn -0.39031190 -0.75745420 0.52337340
vn -0.01290868 -0.99978430 0.01627520
vn -0.49642440 -0.76163580 0.41650170
vn -0.01335137 -0.99984820 0.01119465
vn -0.58293010 -0.75767300 0.29346910
vn -0.01298838 -0.99988440 0.00791144
vn -0.63523660 -0.75758990 0.15010600
vn -0.00816505 -0.99996240 0.00291086
vt 3.33296200 0.49053850
vt 3.36809700 0.53225420
vt 3.38883100 0.53222050
vt 3.32076900 0.44722110
vt 3.35982700 0.49038450
vt 3.31981600 0.40138670
vt 3.34984300 0.44719980
vt 3.34991300 0.40766550
vt 3.38015000 0.40138660
vt 3.37845600 0.44722150
vt 3.44921200 0.44722170
vt 3.35646700 0.39196990
vt 3.37163700 0.38113190
vt 3.37163700 0.01338780
vt 3.34145500 0.38113220
vt 3.34145500 0.01338810
vt 3.31981600 -0.00686687
vt 3.35646700 0.00255022
vt 3.38015000 -0.00686696
vt 3.34991300 -0.02108228
vt 3.32070300 -0.03305584
vt 3.34978800 -0.03302190
vt 3.35015600 -0.03671074
vt 3.32141600 -0.03702849
vt 3.37887200 -0.03702825
vt 3.37841600 -0.03305590
vt 3.44935200 -0.03702807
vt 3.44919300 -0.03305569
vt 3.46773100 0.55861490
vt 3.47342400 0.58728120
vt 3.48686100 0.58769130
vt 3.50030100 0.58728080
vt 3.50599400 0.55861500
vt 3.54194200 0.55861490
vt 3.52555000 0.58728210
vt 3.53544600 0.58769230
vt 3.55626600 0.55883260
vt 3.57125100 0.55861510
vt 3.54613800 0.58728130
vt 3.48686100 0.55883290
vt 3.51378500 0.53225460
vt 3.45993600 0.53225430
vt 3.48686100 0.53222050
vt 3.52174500 0.49053880
vt 3.58731200 0.49053850
vt 3.56437700 0.53225420
vt 3.58488300 0.53222010
vt 3.61389800 0.49038420
vt 3.64076300 0.49053850
vt 3.60562800 0.53225420
vt 3.59527200 0.44722130
vt 3.52450900 0.44722160
vt 3.48685700 0.49038480
vt 3.45197200 0.49053890
vt 3.48686100 0.44720050
vt 3.52623900 0.40138710
vt 3.38641300 0.49053910
vt 3.40934400 0.53225450
vt 3.44748200 0.40138690
vt 3.48686100 0.40766580
vt 3.44748200 -0.00686708
vt 3.46715400 0.38113220
vt 3.48686100 0.39197030
vt 3.46715400 0.01338792
vt 3.48686100 0.00255022
vt 3.48686100 -0.02108234
vt 3.52623900 -0.00686720
vt 3.50656500 0.01338780
vt 3.50656500 0.38113240
vt 3.48686100 -0.03302187
vt 3.59357900 -0.00686666
vt 3.59357900 0.40138630
vt 3.59531200 -0.03305531
vt 3.52452400 -0.03305545
vt 3.59485200 -0.03702816
vt 3.52436600 -0.03702798
vt 3.48686100 -0.03671089
vt 3.98532500 0.92169960
vt 3.98532500 0.53994150
vt 3.91422800 0.53994150
vt 4.04658600 0.53096890
vt 4.04658600 0.92305000
vt 3.98547500 0.94820020
vt 3.91422800 0.92169960
vt 3.91422800 0.94820080
vt 4.04807700 0.48694960
vt 3.98544700 0.48694970
vt 4.03825400 0.44534850
vt 3.98022000 0.44534860
vt 3.91422800 0.48694960
vt 3.91422800 0.44534850
vt 3.84300900 0.48694980
vt 3.84823700 0.44534870
vt 3.84313200 0.53994150
vt 3.84313200 0.92169960
vt 3.84298200 0.94819920
vt 3.84329000 0.95201550
vt 3.91422800 0.95201610
vt 3.78090500 0.95201470
vt 3.78032800 0.94819840
vt 3.78187100 0.92305050
vt 3.98517100 0.95201640
vt 4.04812900 0.94820020
vt 4.04755400 0.95201640
vt 3.78187200 0.53096850
vt 3.78038000 0.48694960
vt 3.79020600 0.44534860
vt 3.14715300 -0.00686750
vt 3.07981200 0.40138590
vt 3.14715300 0.40138640
vt 3.07981200 -0.00686723
vt 3.14886700 -0.03305534
vt 3.07807900 -0.03305498
vt 3.14902600 -0.03702804
vt 3.07853900 -0.03702796
vt 3.04945400 -0.03301978
vt 3.04982600 -0.03671026
vt 3.02037400 -0.03305280
vt 3.02109100 -0.03702661
vt 3.04958300 -0.02108282
vt 3.01948300 -0.00686753
vt 3.05613000 0.00254935
vt 3.07130400 0.01338750
vt 3.04111500 0.01338744
vt 3.01948300 0.40138610
vt 3.05613000 0.39196890
vt 3.07130400 0.38113110
vt 3.04111500 0.38113110
vt 3.04958300 0.40766450
vt 3.04951000 0.44719920
vt 3.02043200 0.44722060
vt 3.07812000 0.44722040
vt 3.05949400 0.49038320
vt 3.03262900 0.49053750
vt 3.08608000 0.49053740
vt 3.14888200 0.44722020
vt 3.08850900 0.53221920
vt 3.06776400 0.53225330
vt 3.10901500 0.53225310
vt 3.15164600 0.49053750
vt 3.18653400 0.49038320
vt 3.18653100 0.53221950
vt 3.62896800 0.44453460
vt 3.63879500 0.48613590
vt 3.69682700 0.48613610
vt 3.69159800 0.44453510
vt 3.63046100 0.40051660
vt 3.69172100 0.39154340
vt 3.63046100 0.00843501
vt 3.69172100 0.00978582
vt 3.76281800 0.39154340
vt 3.62891800 -0.01671444
vt 3.76281800 0.00978582
vt 3.69157100 -0.01671489
vt 3.76281800 -0.01671523
vt 3.83391400 0.00978582
vt 3.69187900 -0.02053058
vt 3.62949500 -0.02053019
vt 3.76281800 -0.02053058
vt 3.76281800 0.48613630
vt 3.76281800 0.44453550
vt 3.82880900 0.48613630
vt 3.83403700 0.44453530
vt 3.88684300 0.48613620
vt 3.89666700 0.44453500
vt 3.83391400 0.39154340
vt 3.89517500 0.40051630
vt 3.89517500 0.00843553
vt 3.83406400 -0.01671579
vt 3.89671800 -0.01671600
vt 3.89614300 -0.02053127
vt 3.83376100 -0.02053118
vt 3.62388200 0.44720010
vt 3.65295600 0.44722150
vt 3.65390900 0.40138640
vt 3.62380800 0.40766450
vt 3.60208800 0.38113130
vt 3.61726200 0.39196840
vt 3.60208800 0.01338840
vt 3.63227300 0.38113140
vt 3.65390900 -0.00686681
vt 3.61726200 0.00255099
vt 3.63227300 0.01338831
vt 3.62380800 -0.02108175
vt 3.62393700 -0.03302115
vt 3.62356600 -0.03671128
vt 3.65230100 -0.03702793
vt 3.15960600 0.53225360
vt 3.18653100 0.55883140
vt 3.16739700 0.55861380
vt 3.21345500 0.53225330
vt 3.22141900 0.49053750
vt 3.26405000 0.53225350
vt 3.28697800 0.49053790
vt 3.28456000 0.53221950
vt 3.31356400 0.49038320
vt 3.34042900 0.49053730
vt 3.30529500 0.53225330
vt 3.20566100 0.55861360
vt 3.18653100 0.58769010
vt 3.17309400 0.58728000
vt 3.19996700 0.58728020
vt 3.14784500 0.58728120
vt 3.22521700 0.58728110
vt 3.13144900 0.55861410
vt 3.24160900 0.55861430
vt 3.13794100 0.58769150
vt 3.11712200 0.55883170
vt 3.10214000 0.55861400
vt 3.12725400 0.58728130
vt 3.23512000 0.58769150
vt 3.25593200 0.55883170
vt 3.27092200 0.55861360
vt 3.24580000 0.58728060
vt 3.10815600 0.53801890
vt 3.17755300 0.57210240
vt 3.17755300 0.52578320
vt 3.23110900 0.58155060
vt 3.24695000 0.53801890
vt 3.27820400 0.60873940
vt 3.30798000 0.57325470
vt 3.24695100 0.91935610
vt 3.30798000 0.88412030
vt 3.27820400 0.84863570
vt 3.23110900 0.87582430
vt 3.02335100 0.75587810
vt 3.08120200 0.78431570
vt 3.06798100 0.74800960
vt 3.04195000 0.80697360
vt 3.09402100 0.79878540
vt 3.05957000 0.82768390
vt 3.07690800 0.84863570
vt 3.10603500 0.81391660
vt 3.13950200 0.83324420
vt 3.15082800 0.80211940
vt 3.12732500 0.78855290
vt 3.17755500 0.80683610
vt 3.12400200 0.87582430
vt 3.04713000 0.88412030
vt 3.10815600 0.91935610
vt 3.17755500 0.83995680
vt 3.17755300 0.88526900
vt 3.17755300 0.93159570
vt 3.21561000 0.83324420
vt 3.20428600 0.80211940
vt 3.22779100 0.78855290
vt 3.24907300 0.81391660
vt 3.26109400 0.79878160
vt 3.29554200 0.82768390
vt 3.02335100 0.70149330
vt 3.06798100 0.70936550
vt 3.08120200 0.67305930
vt 3.04195200 0.65039400
vt 3.09402000 0.65859350
vt 3.05957000 0.62968010
vt 3.07690700 0.60873940
vt 3.10603400 0.64345470
vt 3.13950200 0.62413090
vt 3.15082800 0.65525570
vt 3.12732400 0.66882590
vt 3.17755500 0.65054280
vt 3.12400200 0.58155060
vt 3.04712900 0.57325470
vt 3.17755500 0.61741820
vt 3.20428400 0.65525570
vt 3.21561000 0.62413090
vt 3.22779100 0.66882590
vt 3.24907400 0.64345470
vt 3.26109400 0.65859350
vt 3.29554200 0.62968010
vt 3.31315900 0.65039780
vt 3.27391700 0.67305570
vt 3.28713300 0.70936550
vt 3.33175800 0.70149330
vt 3.31316100 0.80697360
vt 3.33175800 0.75587810
vt 3.28713200 0.74800960
vt 3.27391700 0.78431570
vt 3.40247000 0.55861490
vt 3.42759100 0.58728130
vt 3.43827400 0.58769180
vt 3.41745900 0.55883290
vt 3.43177900 0.55861510
vt 3.38868000 0.92743770
vt 3.40833100 0.90799680
vt 3.40833200 0.55502640
vt 3.38868200 0.53558520
vt 3.36462200 0.92744210
vt 3.38427200 0.90800080
vt 3.38427200 0.55502220
vt 3.36462200 0.53558080
vt 3.36021100 0.53558740
vt 3.34056300 0.55502810
vt 3.34056200 0.90799490
vt 3.36021100 0.92743570
vt 3.33615200 0.53559150
vt 3.31650300 0.55503210
vt 3.31650400 0.90798960
vt 3.33615200 0.92743020
vt 3.18653100 -0.03671071
vt 3.18653100 -0.03302097
vt 3.22404000 -0.03702798
vt 3.18653100 -0.02108282
vt 3.22590900 -0.00686741
vt 3.22419400 -0.03305522
vt 3.29451900 -0.03702778
vt 3.18653100 0.00254962
vt 3.29497500 -0.03305557
vt 3.32323600 -0.03670982
vt 3.16682700 0.01338744
vt 3.29324200 -0.00686708
vt 3.32360400 -0.03302070
vt 3.35197400 -0.03702751
vt 3.35268800 -0.03305441
vt 3.35357500 -0.00686759
vt 3.32347900 -0.02108294
vt 3.31692400 0.00254917
vt 3.30175800 0.01338762
vt 3.31692400 0.39196960
vt 3.30175800 0.38113130
vt 3.29324200 0.40138590
vt 3.22590900 0.40138610
vt 3.33193600 0.01338714
vt 3.33193600 0.38113170
vt 3.35357500 0.40138640
vt 3.32347900 0.40766490
vt 3.35262300 0.44722010
vt 3.32354900 0.44719850
vt 3.29493500 0.44722030
vt 3.22417900 0.44722020
vt 3.18653100 0.44719840
vt 3.18653100 0.40766490
vt 3.16682700 0.38113170
vt 3.18653100 0.39196930
vt 3.20623900 0.38113120
vt 3.20623900 0.01338744
vt 3.44817400 0.58728190
vt 3.65301800 -0.03305456
vt 3.17755500 0.72868570
vt 3.17755500 0.80683610
vt 3.20428600 0.80211940
vt 3.22779100 0.78855290
vt 3.15082800 0.80211940
vt 3.23603900 0.77775550
vt 3.12732500 0.78855290
vt 3.24523000 0.76776090
vt 3.11907400 0.77775920
vt 3.25451700 0.74225960
vt 3.10988000 0.76775710
vt 3.25390100 0.72868570
vt 3.10059500 0.74225590
vt 3.25451600 0.71511550
vt 3.10121100 0.72868570
vt 3.24523100 0.68961420
vt 3.10059600 0.71511550
vt 3.23604000 0.67961590
vt 3.10988000 0.68961420
vt 3.22779100 0.66882590
vt 3.11907500 0.67961220
vt 3.20428400 0.65525570
vt 3.12732400 0.66882590
vt 3.17755500 0.65054280
vt 3.15082800 0.65525570
vt 3.66527100 0.56203530
vt 3.72283100 0.59526940
vt 3.72842200 0.58861450
vt 3.66824700 0.55386300
vt 3.75074600 0.61523440
vt 3.59981500 0.55050150
vt 3.59981500 0.54180430
vt 3.74451700 0.62045410
vt 3.77308600 0.64183400
vt 3.59981600 0.74187400
vt 3.53436300 0.56203530
vt 3.53138700 0.55386300
vt 3.76555400 0.64618090
vt 3.79685100 0.70713280
vt 3.47680200 0.59526940
vt 3.78828500 0.70864320
vt 3.45511700 0.62045410
vt 3.47121100 0.58861450
vt 3.79683900 0.74187730
vt 3.44888900 0.61523440
vt 3.78871000 0.74187730
vt 3.79685100 0.77662520
vt 3.43408300 0.64618090
vt 3.42655000 0.64183400
vt 3.78828500 0.77511140
vt 3.77308600 0.84191730
vt 3.41134500 0.70864660
vt 3.40278200 0.70713280
vt 3.76555400 0.83756350
vt 3.75074600 0.86852030
vt 3.41092100 0.74187730
vt 3.74451800 0.86329030
vt 3.72283200 0.88848190
vt 3.72842200 0.89514370
vt 3.66824700 0.92988470
vt 3.40279200 0.74187730
vt 3.66527200 0.92171600
vt 3.59981500 0.94194700
vt 3.59981500 0.93325320
vt 3.53138700 0.92988470
vt 3.53436000 0.92171600
vt 3.47121100 0.89514370
vt 3.47680000 0.88848190
vt 3.44888900 0.86852030
vt 3.45511700 0.86329030
vt 3.42655000 0.84191730
vt 3.43408200 0.83756350
vt 3.40278200 0.77662520
vt 3.41134500 0.77510470
f 3/3/3 2/2/2 1/1/1
f 5/5/5 1/1/1 4/4/4
f 7/7/7 4/4/4 6/6/6
f 8/8/8 7/7/7 6/6/6
f 8/8/8 9/9/9 7/7/7
f 9/9/9 10/10/10 7/7/7
f 11/11/11 10/10/10 9/9/9
f 8/8/8 12/12/12 9/9/9
f 12/12/12 13/13/13 9/9/9
f 14/14/14 13/13/13 12/12/12
f 6/6/6 15/15/15 8/8/8
f 15/15/15 12/12/12 8/8/8
f 16/16/16 15/15/15 6/6/6
f 12/12/12 15/15/15 16/16/16
f 17/17/17 16/16/16 6/6/6
f 18/18/18 14/14/14 12/12/12
f 18/18/18 12/12/12 16/16/16
f 18/18/18 16/16/16 17/17/17
f 19/19/19 14/14/14 18/18/18
f 20/20/20 18/18/18 17/17/17
f 20/20/20 19/19/19 18/18/18
f 17/17/17 21/21/21 20/20/20
f 20/20/20 22/22/22 19/19/19
f 21/21/21 22/22/22 20/20/20
f 23/23/23 22/22/22 21/21/21
f 24/24/24 23/23/23 21/21/21
f 23/23/23 25/25/25 22/22/22
f 25/25/25 26/26/26 22/22/22
f 25/25/25 27/27/27 26/26/26
f 27/27/27 28/28/28 26/26/26
f 31/31/31 30/30/30 29/29/29
f 33/33/33 32/32/32 31/31/31
f 35/35/35 32/32/32 34/34/34
f 36/36/36 35/35/35 34/34/34
f 37/37/37 36/36/36 34/34/34
f 37/37/37 38/38/38 36/36/36
f 38/38/38 39/39/39 36/36/36
f 32/32/32 33/33/33 34/34/34
f 40/40/40 33/33/33 31/31/31
f 40/40/40 31/31/31 29/29/29
f 41/41/41 33/33/33 40/40/40
f 40/40/40 29/29/29 42/42/42
f 43/43/43 41/41/41 40/40/40
f 43/43/43 40/40/40 42/42/42
f 44/44/44 41/41/41 43/43/43
f 41/41/41 44/44/44 45/45/45
f 46/46/46 41/41/41 45/45/45
f 47/47/47 46/46/46 45/45/45
f 48/48/48 47/47/47 45/45/45
f 48/48/48 49/49/49 47/47/47
f 49/49/49 50/50/50 47/47/47
f 45/45/45 44/44/44 51/51/51
f 44/44/44 52/52/52 51/51/51
f 53/53/53 44/44/44 43/43/43
f 52/52/52 44/44/44 53/53/53
f 43/43/43 42/42/42 54/54/54
f 53/53/53 43/43/43 54/54/54
f 55/55/55 52/52/52 53/53/53
f 56/56/56 52/52/52 55/55/55
f 54/54/54 42/42/42 57/57/57
f 42/42/42 58/58/58 57/57/57
f 57/57/57 58/58/58 3/3/3
f 53/53/53 54/54/54 11/11/11
f 55/55/55 53/53/53 11/11/11
f 55/55/55 11/11/11 59/59/59
f 11/11/11 54/54/54 10/10/10
f 54/54/54 57/57/57 10/10/10
f 59/59/59 11/11/11 9/9/9
f 59/59/59 9/9/9 19/19/19
f 5/5/5 57/57/57 3/3/3
f 10/10/10 57/57/57 5/5/5
f 5/5/5 3/3/3 1/1/1
f 7/7/7 10/10/10 5/5/5
f 7/7/7 5/5/5 4/4/4
f 60/60/60 55/55/55 59/59/59
f 60/60/60 56/56/56 55/55/55
f 61/61/61 59/59/59 19/19/19
f 19/19/19 26/26/26 61/61/61
f 22/22/22 26/26/26 19/19/19
f 26/26/26 28/28/28 61/61/61
f 59/59/59 62/62/62 60/60/60
f 62/62/62 63/63/63 60/60/60
f 60/60/60 63/63/63 56/56/56
f 64/64/64 62/62/62 59/59/59
f 61/61/61 64/64/64 59/59/59
f 63/63/63 62/62/62 64/64/64
f 65/65/65 64/64/64 61/61/61
f 65/65/65 63/63/63 64/64/64
f 61/61/61 28/28/28 66/66/66
f 66/66/66 65/65/65 61/61/61
f 66/66/66 67/67/67 65/65/65
f 67/67/67 68/68/68 65/65/65
f 65/65/65 68/68/68 63/63/63
f 68/68/68 69/69/69 63/63/63
f 63/63/63 69/69/69 56/56/56
f 69/69/69 68/68/68 67/67/67
f 56/56/56 69/69/69 67/67/67
f 28/28/28 70/70/70 66/66/66
f 66/66/66 70/70/70 67/67/67
f 56/56/56 67/67/67 71/71/71
f 72/72/72 56/56/56 71/71/71
f 71/71/71 67/67/67 73/73/73
f 67/67/67 74/74/74 73/73/73
f 70/70/70 74/74/74 67/67/67
f 73/73/73 74/74/74 75/75/75
f 74/74/74 76/76/76 75/75/75
f 76/76/76 74/74/74 70/70/70
f 77/77/77 76/76/76 70/70/70
f 77/77/77 70/70/70 28/28/28
f 27/27/27 77/77/77 28/28/28
f 80/80/80 79/79/79 78/78/78
f 79/79/79 81/81/81 78/78/78
f 81/81/81 82/82/82 78/78/78
f 78/78/78 82/82/82 83/83/83
f 78/78/78 83/83/83 84/84/84
f 83/83/83 85/85/85 84/84/84
f 86/86/86 81/81/81 79/79/79
f 87/87/87 86/86/86 79/79/79
f 88/88/88 86/86/86 87/87/87
f 89/89/89 88/88/88 87/87/87
f 90/90/90 87/87/87 79/79/79
f 91/91/91 89/89/89 87/87/87
f 90/90/90 91/91/91 87/87/87
f 91/91/91 90/90/90 92/92/92
f 93/93/93 91/91/91 92/92/92
f 92/92/92 90/90/90 94/94/94
f 84/84/84 80/80/80 78/78/78
f 80/80/80 84/84/84 95/95/95
f 95/95/95 84/84/84 96/96/96
f 84/84/84 85/85/85 96/96/96
f 96/96/96 85/85/85 97/97/97
f 85/85/85 98/98/98 97/97/97
f 96/96/96 97/97/97 99/99/99
f 100/100/100 96/96/96 99/99/99
f 95/95/95 96/96/96 100/100/100
f 98/98/98 85/85/85 83/83/83
f 101/101/101 95/95/95 100/100/100
f 102/102/102 98/98/98 83/83/83
f 83/83/83 103/103/103 102/102/102
f 103/103/103 104/104/104 102/102/102
f 82/82/82 103/103/103 83/83/83
f 94/94/94 95/95/95 101/101/101
f 94/94/94 80/80/80 95/95/95
f 105/105/105 94/94/94 101/101/101
f 90/90/90 80/80/80 94/94/94
f 80/80/80 90/90/90 79/79/79
f 92/92/92 94/94/94 105/105/105
f 106/106/106 92/92/92 105/105/105
f 93/93/93 92/92/92 106/106/106
f 107/107/107 93/93/93 106/106/106
f 110/110/110 109/109/109 108/108/108
f 109/109/109 111/111/111 108/108/108
f 108/108/108 111/111/111 112/112/112
f 111/111/111 113/113/113 112/112/112
f 112/112/112 113/113/113 114/114/114
f 113/113/113 115/115/115 114/114/114
f 115/115/115 113/113/113 116/116/116
f 116/116/116 113/113/113 111/111/111
f 117/117/117 115/115/115 116/116/116
f 117/117/117 116/116/116 118/118/118
f 119/119/119 117/117/117 118/118/118
f 118/118/118 116/116/116 120/120/120
f 120/120/120 116/116/116 111/111/111
f 121/121/121 118/118/118 120/120/120
f 120/120/120 111/111/111 122/122/122
f 120/120/120 122/122/122 121/121/121
f 111/111/111 123/123/123 122/122/122
f 122/122/122 124/124/124 121/121/121
f 121/121/121 124/124/124 125/125/125
f 122/122/122 123/123/123 126/126/126
f 122/122/122 126/126/126 124/124/124
f 123/123/123 127/127/127 126/126/126
f 126/126/126 127/127/127 109/109/109
f 126/126/126 128/128/128 124/124/124
f 124/124/124 128/128/128 125/125/125
f 128/128/128 126/126/126 129/129/129
f 129/129/129 126/126/126 109/109/109
f 125/125/125 128/128/128 129/129/129
f 129/129/129 109/109/109 130/130/130
f 129/129/129 130/130/130 125/125/125
f 130/130/130 131/131/131 125/125/125
f 109/109/109 132/132/132 130/130/130
f 130/130/130 133/133/133 131/131/131
f 130/130/130 132/132/132 133/133/133
f 133/133/133 134/134/134 131/131/131
f 132/132/132 135/135/135 133/133/133
f 135/135/135 132/132/132 136/136/136
f 133/133/133 137/137/137 134/134/134
f 133/133/133 135/135/135 137/137/137
f 137/137/137 138/138/138 134/134/134
f 135/135/135 139/139/139 137/137/137
f 140/140/140 135/135/135 136/136/136
f 141/141/141 140/140/140 136/136/136
f 141/141/141 142/142/142 140/140/140
f 145/145/145 144/144/144 143/143/143
f 146/146/146 145/145/145 143/143/143
f 146/146/146 143/143/143 147/147/147
f 148/148/148 146/146/146 147/147/147
f 148/148/148 147/147/147 149/149/149
f 150/150/150 148/148/148 149/149/149
f 151/151/151 148/148/148 150/150/150
f 149/149/149 152/152/152 150/150/150
f 153/153/153 151/151/151 150/150/150
f 152/152/152 154/154/154 150/150/150
f 150/150/150 154/154/154 153/153/153
f 154/154/154 155/155/155 153/153/153
f 153/153/153 155/155/155 156/156/156
f 157/157/157 154/154/154 152/152/152
f 158/158/158 157/157/157 152/152/152
f 157/157/157 159/159/159 154/154/154
f 160/160/160 145/145/145 146/146/146
f 161/161/161 160/160/160 146/146/146
f 161/161/161 146/146/146 148/148/148
f 162/162/162 160/160/160 161/161/161
f 151/151/151 161/161/161 148/148/148
f 163/163/163 162/162/162 161/161/161
f 163/163/163 161/161/161 151/151/151
f 164/164/164 162/162/162 163/163/163
f 165/165/165 164/164/164 163/163/163
f 166/166/166 163/163/163 151/151/151
f 165/165/165 163/163/163 166/166/166
f 166/166/166 151/151/151 153/153/153
f 167/167/167 165/165/165 166/166/166
f 156/156/156 166/166/166 153/153/153
f 167/167/167 166/166/166 156/156/156
f 168/168/168 167/167/167 156/156/156
f 156/156/156 169/169/169 168/168/168
f 169/169/169 170/170/170 168/168/168
f 171/171/171 170/170/170 169/169/169
f 172/172/172 171/171/171 169/169/169
f 155/155/155 169/169/169 156/156/156
f 172/172/172 169/169/169 155/155/155
f 159/159/159 172/172/172 155/155/155
f 159/159/159 155/155/155 154/154/154
f 48/48/48 45/45/45 51/51/51
f 173/173/173 48/48/48 51/51/51
f 49/49/49 48/48/48 173/173/173
f 174/174/174 49/49/49 173/173/173
f 175/175/175 174/174/174 173/173/173
f 173/173/173 51/51/51 72/72/72
f 51/51/51 52/52/52 72/72/72
f 52/52/52 56/56/56 72/72/72
f 176/176/176 173/173/173 72/72/72
f 176/176/176 175/175/175 173/173/173
f 72/72/72 177/177/177 176/176/176
f 177/177/177 178/178/178 176/176/176
f 176/176/176 178/178/178 175/175/175
f 178/178/178 177/177/177 179/179/179
f 178/178/178 180/180/180 175/175/175
f 175/175/175 180/180/180 181/181/181
f 182/182/182 178/178/178 179/179/179
f 182/182/182 179/179/179 71/71/71
f 183/183/183 180/180/180 178/178/178
f 180/180/180 183/183/183 181/181/181
f 182/182/182 183/183/183 178/178/178
f 181/181/181 183/183/183 182/182/182
f 184/184/184 182/182/182 71/71/71
f 184/184/184 181/181/181 182/182/182
f 71/71/71 73/73/73 184/184/184
f 184/184/184 185/185/185 181/181/181
f 73/73/73 185/185/185 184/184/184
f 186/186/186 185/185/185 73/73/73
f 75/75/75 186/186/186 73/73/73
f 186/186/186 187/187/187 185/185/185
f 139/139/139 135/135/135 140/140/140
f 188/188/188 139/139/139 140/140/140
f 142/142/142 188/188/188 140/140/140
f 142/142/142 189/189/189 188/188/188
f 189/189/189 190/190/190 188/188/188
f 142/142/142 191/191/191 189/189/189
f 192/192/192 191/191/191 142/142/142
f 141/141/141 192/192/192 142/142/142
f 193/193/193 191/191/191 192/192/192
f 194/194/194 193/193/193 192/192/192
f 195/195/195 193/193/193 194/194/194
f 196/196/196 195/195/195 194/194/194
f 196/196/196 197/197/197 195/195/195
f 197/197/197 198/198/198 195/195/195
f 191/191/191 199/199/199 189/189/189
f 189/189/189 200/200/200 190/190/190
f 189/189/189 199/199/199 200/200/200
f 200/200/200 201/201/201 190/190/190
f 199/199/199 202/202/202 200/200/200
f 201/201/201 203/203/203 190/190/190
f 204/204/204 202/202/202 199/199/199
f 203/203/203 205/205/205 190/190/190
f 206/206/206 204/204/204 199/199/199
f 205/205/205 203/203/203 207/207/207
f 208/208/208 205/205/205 207/207/207
f 208/208/208 207/207/207 209/209/209
f 207/207/207 210/210/210 209/209/209
f 211/211/211 204/204/204 206/206/206
f 212/212/212 211/211/211 206/206/206
f 212/212/212 213/213/213 211/211/211
f 213/213/213 214/214/214 211/211/211
f 217/217/217 216/216/216 215/215/215
f 218/218/218 216/216/216 217/217/217
f 219/219/219 218/218/218 217/217/217
f 220/220/220 218/218/218 219/219/219
f 221/221/221 220/220/220 219/219/219
f 224/224/224 223/223/223 222/222/222
f 225/225/225 224/224/224 222/222/222
f 228/228/228 227/227/227 226/226/226
f 227/227/227 229/229/229 226/226/226
f 229/229/229 227/227/227 230/230/230
f 231/231/231 229/229/229 230/230/230
f 231/231/231 230/230/230 232/232/232
f 230/230/230 233/233/233 232/232/232
f 233/233/233 234/234/234 232/232/232
f 235/235/235 234/234/234 233/233/233
f 236/236/236 235/235/235 233/233/233
f 235/235/235 237/237/237 234/234/234
f 234/234/234 238/238/238 232/232/232
f 232/232/232 238/238/238 239/239/239
f 238/238/238 240/240/240 239/239/239
f 237/237/237 241/241/241 234/234/234
f 234/234/234 241/241/241 238/238/238
f 238/238/238 242/242/242 240/240/240
f 241/241/241 242/242/242 238/238/238
f 242/242/242 243/243/243 240/240/240
f 243/243/243 242/242/242 222/222/222
f 242/242/242 225/225/225 222/222/222
f 242/242/242 241/241/241 225/225/225
f 241/241/241 237/237/237 244/244/244
f 241/241/241 244/244/244 225/225/225
f 237/237/237 245/245/245 244/244/244
f 245/245/245 246/246/246 244/244/244
f 246/246/246 247/247/247 244/244/244
f 244/244/244 247/247/247 225/225/225
f 247/247/247 224/224/224 225/225/225
f 224/224/224 247/247/247 248/248/248
f 249/249/249 224/224/224 248/248/248
f 252/252/252 251/251/251 250/250/250
f 253/253/253 252/252/252 250/250/250
f 254/254/254 252/252/252 253/253/253
f 255/255/255 254/254/254 253/253/253
f 255/255/255 256/256/256 254/254/254
f 256/256/256 257/257/257 254/254/254
f 258/258/258 257/257/257 256/256/256
f 258/258/258 259/259/259 257/257/257
f 259/259/259 260/260/260 257/257/257
f 261/261/261 259/259/259 258/258/258
f 262/262/262 258/258/258 256/256/256
f 262/262/262 256/256/256 263/263/263
f 215/215/215 262/262/262 263/263/263
f 216/216/216 262/262/262 215/215/215
f 264/264/264 261/261/261 258/258/258
f 264/264/264 258/258/258 262/262/262
f 216/216/216 264/264/264 262/262/262
f 265/265/265 261/261/261 264/264/264
f 266/266/266 264/264/264 216/216/216
f 266/266/266 265/265/265 264/264/264
f 267/267/267 265/265/265 266/266/266
f 218/218/218 266/266/266 216/216/216
f 268/268/268 267/267/267 266/266/266
f 268/268/268 266/266/266 218/218/218
f 220/220/220 268/268/268 218/218/218
f 269/269/269 268/268/268 220/220/220
f 270/270/270 269/269/269 220/220/220
f 270/270/270 271/271/271 269/269/269
f 271/271/271 272/272/272 269/269/269
f 273/273/273 272/272/272 271/271/271
f 274/274/274 273/273/273 271/271/271
f 277/277/277 276/276/276 275/275/275
f 278/278/278 277/277/277 275/275/275
f 248/248/248 278/278/278 275/275/275
f 249/249/249 248/248/248 275/275/275
f 281/281/281 280/280/280 279/279/279
f 282/282/282 281/281/281 279/279/279
f 282/282/282 283/283/283 281/281/281
f 286/286/286 285/285/285 284/284/284
f 287/287/287 286/286/286 284/284/284
f 290/290/290 289/289/289 288/288/288
f 291/291/291 290/290/290 288/288/288
f 294/294/294 293/293/293 292/292/292
f 295/295/295 294/294/294 292/292/292
f 298/298/298 297/297/297 296/296/296
f 299/299/299 298/298/298 296/296/296
f 114/114/114 300/300/300 112/112/112
f 300/300/300 301/301/301 112/112/112
f 300/300/300 302/302/302 301/301/301
f 112/112/112 301/301/301 303/303/303
f 303/303/303 301/301/301 304/304/304
f 301/301/301 305/305/305 304/304/304
f 302/302/302 305/305/305 301/301/301
f 108/108/108 112/112/112 303/303/303
f 302/302/302 306/306/306 305/305/305
f 303/303/303 307/307/307 108/108/108
f 303/303/303 304/304/304 307/307/307
f 306/306/306 308/308/308 305/305/305
f 306/306/306 309/309/309 308/308/308
f 307/307/307 310/310/310 108/108/108
f 108/108/108 310/310/310 110/110/110
f 304/304/304 305/305/305 311/311/311
f 305/305/305 308/308/308 311/311/311
f 309/309/309 312/312/312 308/308/308
f 309/309/309 313/313/313 312/312/312
f 313/313/313 314/314/314 312/312/312
f 312/312/312 314/314/314 315/315/315
f 308/308/308 312/312/312 316/316/316
f 311/311/311 308/308/308 316/316/316
f 316/316/316 312/312/312 315/315/315
f 316/316/316 317/317/317 311/311/311
f 316/316/316 315/315/315 317/317/317
f 317/317/317 318/318/318 311/311/311
f 317/317/317 319/319/319 318/318/318
f 319/319/319 320/320/320 318/318/318
f 311/311/311 321/321/321 304/304/304
f 321/321/321 320/320/320 319/319/319
f 321/321/321 322/322/322 304/304/304
f 315/315/315 323/323/323 317/317/317
f 317/317/317 323/323/323 319/319/319
f 324/324/324 323/323/323 315/315/315
f 323/323/323 324/324/324 319/319/319
f 325/325/325 324/324/324 315/315/315
f 319/319/319 324/324/324 325/325/325
f 326/326/326 319/319/319 325/325/325
f 326/326/326 321/321/321 319/319/319
f 325/325/325 327/327/327 326/326/326
f 326/326/326 328/328/328 321/321/321
f 327/327/327 328/328/328 326/326/326
f 328/328/328 329/329/329 321/321/321
f 321/321/321 329/329/329 322/322/322
f 328/328/328 327/327/327 196/196/196
f 328/328/328 196/196/196 329/329/329
f 327/327/327 197/197/197 196/196/196
f 196/196/196 194/194/194 329/329/329
f 329/329/329 194/194/194 330/330/330
f 329/329/329 330/330/330 322/322/322
f 194/194/194 192/192/192 330/330/330
f 330/330/330 192/192/192 141/141/141
f 331/331/331 330/330/330 141/141/141
f 322/322/322 330/330/330 331/331/331
f 331/331/331 141/141/141 136/136/136
f 331/331/331 136/136/136 110/110/110
f 136/136/136 132/132/132 110/110/110
f 132/132/132 109/109/109 110/110/110
f 332/332/332 331/331/331 110/110/110
f 332/332/332 322/322/322 331/331/331
f 110/110/110 333/333/333 332/332/332
f 310/310/310 333/333/333 110/110/110
f 333/333/333 334/334/334 332/332/332
f 334/334/334 333/333/333 310/310/310
f 332/332/332 334/334/334 322/322/322
f 307/307/307 334/334/334 310/310/310
f 334/334/334 335/335/335 322/322/322
f 322/322/322 335/335/335 304/304/304
f 304/304/304 336/336/336 307/307/307
f 307/307/307 336/336/336 334/334/334
f 335/335/335 336/336/336 304/304/304
f 336/336/336 335/335/335 334/334/334
f 283/283/283 337/337/337 281/281/281
f 30/30/30 337/337/337 283/283/283
f 29/29/29 30/30/30 283/283/283
f 187/187/187 338/338/338 185/185/185
f 185/185/185 338/338/338 181/181/181
f 341/341/341 340/340/340 339/339/339
f 342/342/342 341/341/341 339/339/339
f 340/340/340 343/343/343 339/339/339
f 344/344/344 342/342/342 339/339/339
f 343/343/343 345/345/345 339/339/339
f 346/346/346 344/344/344 339/339/339
f 345/345/345 347/347/347 339/339/339
f 348/348/348 346/346/346 339/339/339
f 347/347/347 349/349/349 339/339/339
f 350/350/350 348/348/348 339/339/339
f 349/349/349 351/351/351 339/339/339
f 352/352/352 350/350/350 339/339/339
f 351/351/351 353/353/353 339/339/339
f 354/354/354 352/352/352 339/339/339
f 353/353/353 355/355/355 339/339/339
f 356/356/356 354/354/354 339/339/339
f 355/355/355 357/357/357 339/339/339
f 358/358/358 356/356/356 339/339/339
f 357/357/357 359/359/359 339/339/339
f 360/360/360 358/358/358 339/339/339
f 359/359/359 361/361/361 339/339/339
f 362/362/362 360/360/360 339/339/339
f 361/361/361 363/363/363 339/339/339
f 363/363/363 362/362/362 339/339/339
f 366/366/366 365/365/365 364/364/364
f 367/367/367 366/366/366 364/364/364
f 365/365/365 366/366/366 368/368/368
f 364/364/364 369/369/369 367/367/367
f 369/369/369 370/370/370 367/367/367
f 371/371/371 365/365/365 368/368/368
f 371/371/371 368/368/368 372/372/372
f 364/364/364 365/365/365 373/373/373
f 369/369/369 364/364/364 373/373/373
f 373/373/373 365/365/365 371/371/371
f 370/370/370 369/369/369 374/374/374
f 369/369/369 373/373/373 374/374/374
f 375/375/375 370/370/370 374/374/374
f 376/376/376 371/371/371 372/372/372
f 376/376/376 373/373/373 371/371/371
f 372/372/372 377/377/377 376/376/376
f 373/373/373 378/378/378 374/374/374
f 375/375/375 374/374/374 378/378/378
f 373/373/373 376/376/376 379/379/379
f 377/377/377 379/379/379 376/376/376
f 380/380/380 378/378/378 373/373/373
f 381/381/381 375/375/375 378/378/378
f 378/378/378 380/380/380 381/381/381
f 379/379/379 377/377/377 382/382/382
f 380/380/380 383/383/383 381/381/381
f 384/384/384 379/379/379 382/382/382
f 384/384/384 373/373/373 379/379/379
f 384/384/384 382/382/382 385/385/385
f 380/380/380 386/386/386 383/383/383
f 386/386/386 380/380/380 373/373/373
f 386/386/386 387/387/387 383/383/383
f 388/388/388 384/384/384 385/385/385
f 373/373/373 384/384/384 388/388/388
f 388/388/388 385/385/385 389/389/389
f 387/387/387 386/386/386 390/390/390
f 390/390/390 386/386/386 373/373/373
f 391/391/391 387/387/387 390/390/390
f 392/392/392 388/388/388 389/389/389
f 392/392/392 373/373/373 388/388/388
f 392/392/392 389/389/389 393/393/393
f 373/373/373 394/394/394 390/390/390
f 390/390/390 394/394/394 391/391/391
f 373/373/373 392/392/392 395/395/395
f 395/395/395 392/392/392 393/393/393
f 396/396/396 373/373/373 395/395/395
f 395/395/395 393/393/393 397/397/397
f 396/396/396 395/395/395 397/397/397
f 396/396/396 397/397/397 398/398/398
f 394/394/394 399/399/399 391/391/391
f 400/400/400 396/396/396 398/398/398
f 373/373/373 396/396/396 400/400/400
f 400/400/400 398/398/398 401/401/401
f 402/402/402 400/400/400 401/401/401
f 402/402/402 373/373/373 400/400/400
f 402/402/402 401/401/401 403/403/403
f 404/404/404 402/402/402 403/403/403
f 402/402/402 404/404/404 373/373/373
f 404/404/404 403/403/403 405/405/405
f 406/406/406 404/404/404 405/405/405
f 404/404/404 406/406/406 373/373/373
f 406/406/406 405/405/405 407/407/407
f 408/408/408 406/406/406 407/407/407
f 373/373/373 406/406/406 408/408/408
f 408/408/408 407/407/407 409/409/409
f 410/410/410 373/373/373 408/408/408
f 410/410/410 408/408/408 409/409/409
f 373/373/373 410/410/410 394/394/394
f 410/410/410 409/409/409 411/411/411
f 410/410/410 412/412/412 394/394/394
f 412/412/412 410/410/410 411/411/411
f 394/394/394 412/412/412 399/399/399
f 412/412/412 411/411/411 399/399/399

