mtllib material.mtl
usemtl material_0
v -0.00737145 0.00717086 0.00436981
v -0.00885065 0.00718000 0.00438565
v -0.00885065 0.00903359 0.00253206
v -0.00737145 0.00901775 0.00252292
v -0.00240125 0.00697192 0.00402524
v -0.00885065 0.00971206 0.00000000
v -0.00240125 0.00867318 0.00232398
v 0.05040986 0.00697192 0.00402524
v 0.05187403 0.00867318 0.00232398
v -0.00737145 0.00969377 0.00000000
v -0.00885065 0.00903359 -0.00253206
v -0.00737145 0.00901776 -0.00252292
v -0.00240125 0.00929590 0.00000000
v 0.05238478 0.00929590 0.00000000
v -0.00240125 0.00867319 -0.00232398
v 0.05187403 0.00867319 -0.00232398
v -0.00885065 0.00718000 -0.00438565
v -0.00737145 0.00717086 -0.00436981
v -0.00885065 0.00464795 -0.00506410
v -0.00737145 0.00464795 -0.00504581
v -0.00240125 0.00697192 -0.00402524
v -0.00240125 0.00464795 -0.00464794
v 0.05040986 0.00697192 -0.00402524
v 0.04949054 0.00464795 -0.00464794
v -0.00737145 0.00464795 -0.00504581
v -0.00885065 0.00464795 -0.00506410
v -0.00885063 0.00211590 -0.00438565
v -0.00737142 0.00212504 -0.00436981
v -0.00240125 0.00464795 -0.00464794
v -0.00240122 0.00232397 -0.00402524
v 0.04949054 0.00464795 -0.00464794
v 0.05040990 0.00232397 -0.00402524
v -0.00885063 0.00026230 -0.00253206
v -0.00737142 0.00027814 -0.00252292
v -0.00885061 -0.00041616 0.00000000
v -0.00240122 0.00062271 -0.00232398
v 0.05187406 0.00062271 -0.00232398
v -0.00737141 -0.00039788 0.00000000
v -0.00885063 0.00026230 0.00253204
v -0.00737142 0.00027814 0.00252290
v -0.00240121 0.00000000 0.00000000
v 0.05238481 0.00000000 0.00000000
v -0.00240122 0.00062271 0.00232396
v 0.05187406 0.00062271 0.00232396
v -0.00885063 0.00211589 0.00438565
v -0.00737142 0.00212503 0.00436981
v -0.00885063 0.00464794 0.00506410
v -0.00240122 0.00232397 0.00402524
v 0.05040990 0.00232397 0.00402524
v -0.00240122 0.00464794 0.00464794
v 0.04949058 0.00464794 0.00464794
v -0.00737142 0.00464794 0.00504582
vn 0.06370082 0.49898350 0.86426720
vn 0.00041056 0.49999800 0.86602650
vn 0.00041056 0.86602490 0.50000070
vn 0.06370085 0.86426620 0.49898500
vn 0.00722273 0.50235970 0.86462860
vn 0.00041056 1.00000000 0.00000077
vn 0.00708995 0.86711690 0.49805420
vn 0.00000000 0.55430700 0.83231230
vn 0.00000000 0.89605100 0.44395110
vn 0.06370100 0.99796900 0.00000090
vn 0.00041055 0.86602530 -0.50000020
vn 0.06370099 0.86426630 -0.49898480
vn 0.00703142 0.99997530 0.00000094
vn 0.00000000 1.00000000 0.00000098
vn 0.00708997 0.86711690 -0.49805410
vn 0.00000000 0.89605120 -0.44395080
vn 0.00041055 0.49999820 -0.86602640
vn 0.06370100 0.49898260 -0.86426760
vn 0.00041056 -0.00000078 -1.00000000
vn 0.06370086 0.00000084 -0.99796900
vn 0.00722268 0.50235890 -0.86462900
vn 0.00729746 0.00000081 -0.99997340
vn 0.00000000 0.55430780 -0.83231170
vn 0.00000000 -0.00000081 -1.00000000
vn 0.06370086 0.00000084 -0.99796900
vn 0.00041056 -0.00000078 -1.00000000
vn 0.00041055 -0.49999880 -0.86602600
vn 0.06370108 -0.49898190 -0.86426800
vn 0.00729746 0.00000081 -0.99997340
vn 0.00722264 -0.50235810 -0.86462950
vn 0.00000000 -0.00000081 -1.00000000
vn 0.00000000 -0.55430860 -0.83231120
vn 0.00041054 -0.86602550 -0.49999950
vn 0.06370085 -0.86426630 -0.49898490
vn 0.00041055 -1.00000000 -0.00000016
vn 0.00708999 -0.86711690 -0.49805430
vn 0.00000000 -0.89605120 -0.44395070
vn 0.06370099 -0.99796900 -0.00000019
vn 0.00041054 -0.86602580 0.49999930
vn 0.06370087 -0.86426650 0.49898450
vn 0.00703138 -0.99997530 0.00000000
vn 0.00000000 -1.00000000 -0.00000013
vn 0.00708998 -0.86711710 0.49805390
vn 0.00000000 -0.89605110 0.44395100
vn 0.00041055 -0.50000100 0.86602470
vn 0.06370113 -0.49898540 0.86426610
vn 0.00041056 -0.00000085 1.00000000
vn 0.00722270 -0.50236180 0.86462730
vn 0.00000000 -0.55431100 0.83230960
vn 0.00729737 0.00000081 0.99997340
vn 0.00000000 -0.00000087 1.00000000
vn 0.06370111 0.00000087 0.99796900
vt -29.91756000 0.74106310
vt -29.91756000 0.75274960
vt -29.90279000 0.75274960
vt -29.90279000 0.74086840
vt -29.91756000 0.70057380
vt -29.88306000 0.75274960
vt -29.90279000 0.70040900
vt -29.91756000 0.27046820
vt -29.90279000 0.25873800
vt -29.88306000 0.74069320
vt -29.86306000 0.75274960
vt -29.86306000 0.74051830
vt -29.88306000 0.70024770
vt -29.88306000 0.25442030
vt -29.86306000 0.70008640
vt -29.86306000 0.25841550
vt -29.84836000 0.75274960
vt -29.84836000 0.74047040
vt -29.82792000 0.75274960
vt -29.82811000 0.74022920
vt -29.84836000 0.69999300
vt -29.82875000 0.69972240
vt -29.84836000 0.26991170
vt -29.82871000 0.27680730
vt -30.04647000 0.74052260
vt -30.04663000 0.75274960
vt -30.02638000 0.75274960
vt -30.02638000 0.74071340
vt -30.04594000 0.70001500
vt -30.02638000 0.70023430
vt -30.04707000 0.27708720
vt -30.02638000 0.27014350
vt -30.01155000 0.75274960
vt -30.01155000 0.74072280
vt -29.99200000 0.75274960
vt -30.01155000 0.70028640
vt -30.01155000 0.25861070
vt -29.99200000 0.74084160
vt -29.97203000 0.75274960
vt -29.97203000 0.74096080
vt -29.99200000 0.70039560
vt -29.99200000 0.25456350
vt -29.97203000 0.70050590
vt -29.97203000 0.25883000
vt -29.95746000 0.75274960
vt -29.95746000 0.74111760
vt -29.93759000 0.75274960
vt -29.95746000 0.70062950
vt -29.95746000 0.27052180
vt -29.93759000 0.70064660
vt -29.93759000 0.27768510
vt -29.93759000 0.74115810
f 3/3/3 2/2/2 1/1/1
f 4/4/4 3/3/3 1/1/1
f 1/1/1 5/5/5 4/4/4
f 6/6/6 3/3/3 4/4/4
f 5/5/5 7/7/7 4/4/4
f 5/5/5 8/8/8 7/7/7
f 8/8/8 9/9/9 7/7/7
f 10/10/10 6/6/6 4/4/4
f 4/4/4 7/7/7 10/10/10
f 11/11/11 6/6/6 10/10/10
f 12/12/12 11/11/11 10/10/10
f 7/7/7 9/9/9 13/13/13
f 7/7/7 13/13/13 10/10/10
f 10/10/10 13/13/13 12/12/12
f 9/9/9 14/14/14 13/13/13
f 13/13/13 15/15/15 12/12/12
f 13/13/13 14/14/14 15/15/15
f 14/14/14 16/16/16 15/15/15
f 17/17/17 11/11/11 12/12/12
f 18/18/18 17/17/17 12/12/12
f 19/19/19 17/17/17 18/18/18
f 12/12/12 15/15/15 18/18/18
f 20/20/20 19/19/19 18/18/18
f 15/15/15 21/21/21 18/18/18
f 18/18/18 21/21/21 20/20/20
f 15/15/15 16/16/16 21/21/21
f 21/21/21 22/22/22 20/20/20
f 16/16/16 23/23/23 21/21/21
f 21/21/21 23/23/23 22/22/22
f 23/23/23 24/24/24 22/22/22
f 27/27/27 26/26/26 25/25/25
f 28/28/28 27/27/27 25/25/25
f 25/25/25 29/29/29 28/28/28
f 29/29/29 30/30/30 28/28/28
f 29/29/29 31/31/31 30/30/30
f 31/31/31 32/32/32 30/30/30
f 33/33/33 27/27/27 28/28/28
f 34/34/34 33/33/33 28/28/28
f 28/28/28 30/30/30 34/34/34
f 35/35/35 33/33/33 34/34/34
f 30/30/30 36/36/36 34/34/34
f 30/30/30 32/32/32 36/36/36
f 32/32/32 37/37/37 36/36/36
f 38/38/38 35/35/35 34/34/34
f 34/34/34 36/36/36 38/38/38
f 39/39/39 35/35/35 38/38/38
f 40/40/40 39/39/39 38/38/38
f 36/36/36 37/37/37 41/41/41
f 36/36/36 41/41/41 38/38/38
f 38/38/38 41/41/41 40/40/40
f 37/37/37 42/42/42 41/41/41
f 41/41/41 43/43/43 40/40/40
f 41/41/41 42/42/42 43/43/43
f 42/42/42 44/44/44 43/43/43
f 45/45/45 39/39/39 40/40/40
f 46/46/46 45/45/45 40/40/40
f 40/40/40 43/43/43 46/46/46
f 47/47/47 45/45/45 46/46/46
f 43/43/43 48/48/48 46/46/46
f 43/43/43 44/44/44 48/48/48
f 44/44/44 49/49/49 48/48/48
f 48/48/48 49/49/49 50/50/50
f 48/48/48 50/50/50 46/46/46
f 49/49/49 51/51/51 50/50/50
f 52/52/52 47/47/47 46/46/46
f 50/50/50 52/52/52 46/46/46
f 2/2/2 47/47/47 52/52/52
f 1/1/1 2/2/2 52/52/52
f 52/52/52 50/50/50 1/1/1
f 50/50/50 5/5/5 1/1/1
f 50/50/50 51/51/51 5/5/5
f 51/51/51 8/8/8 5/5/5

