mtllib material.mtl
usemtl material_0
v 0.01362070 0.00401739 0.00709515
v 0.01362097 0.00323462 0.00709518
v 0.01160098 0.00366283 0.00555476
v 0.01105085 0.00431653 0.00541262
v 0.01362057 0.00464794 0.00709513
v 0.01120600 0.00429094 0.00447378
v 0.01175601 0.00359793 0.00461593
v 0.01105089 0.00464794 0.00541263
v 0.01120609 0.00464794 0.00447378
v 0.01120600 0.00500506 0.00447378
v 0.01105085 0.00497946 0.00541262
v 0.01362070 0.00527870 0.00709515
v 0.01160098 0.00563338 0.00555476
v 0.01175601 0.00569830 0.00461593
v 0.01362097 0.00606173 0.00709518
v 0.02062762 0.00332094 0.00691349
v 0.01687951 0.00367026 0.00634782
v 0.01687934 0.00269082 0.00634780
v 0.02062762 0.00223575 0.00691349
v 0.02401094 0.00187530 0.00726950
v 0.02401094 0.00299607 0.00726950
v 0.02824768 0.00267015 0.00748347
v 0.02824768 0.00150131 0.00748347
v 0.03312260 0.00247436 0.00755492
v 0.03312260 0.00114617 0.00755492
v 0.03810316 0.00243494 0.00717141
v 0.03810316 0.00098146 0.00717141
v 0.04572205 0.00246937 0.00649068
v 0.04572205 0.00075965 0.00649068
v 0.01562122 0.00380634 0.00461616
v 0.01175601 0.00359793 0.00461593
v 0.01562145 0.00296750 0.00461616
v 0.01120600 0.00429094 0.00447378
v 0.01120609 0.00464794 0.00447378
v 0.01562111 0.00464794 0.00461615
v 0.01562122 0.00548982 0.00461616
v 0.01120600 0.00500506 0.00447378
v 0.01175601 0.00569830 0.00461593
v 0.01562145 0.00632894 0.00461616
v 0.01681950 0.00269133 0.00800230
v 0.01362097 0.00323462 0.00709518
v 0.01362070 0.00401739 0.00709515
v 0.01681920 0.00368984 0.00800224
v 0.02045452 0.00223575 0.00843518
v 0.02045452 0.00332094 0.00843518
v 0.02389949 0.00299607 0.00871294
v 0.02389949 0.00187530 0.00871294
v 0.01639832 0.00464794 0.00797235
v 0.01362057 0.00464794 0.00709513
v 0.02813623 0.00267015 0.00894943
v 0.02813623 0.00150131 0.00894943
v 0.03320861 0.00114617 0.00908739
v 0.03320861 0.00247436 0.00908739
v 0.03822269 0.00098146 0.00898034
v 0.03822269 0.00243494 0.00898034
v 0.04595111 0.00075965 0.00869392
v 0.04595111 0.00246937 0.00869392
v 0.04921905 0.00080894 0.00848617
v 0.04921903 0.00256321 0.00848617
v 0.05329306 0.00118151 0.00806646
v 0.05278664 0.00277349 0.00811863
v 0.05744507 0.00224946 0.00717035
v 0.05711958 0.00359552 0.00724059
v 0.05987358 0.00368270 0.00577746
v 0.05987358 0.00432619 0.00577746
v 0.05987358 0.00464794 0.00577746
v 0.05758657 0.00464797 0.00696881
v 0.05711958 0.00570071 0.00724059
v 0.05987358 0.00496979 0.00577746
v 0.05987358 0.00561350 0.00577746
v 0.05744507 0.00704723 0.00717035
v 0.05278664 0.00652302 0.00811863
v 0.05329306 0.00811553 0.00806646
v 0.04921903 0.00673336 0.00848617
v 0.04921905 0.00848822 0.00848617
v 0.04595111 0.00682724 0.00869392
v 0.04595111 0.00853753 0.00869392
v 0.03822269 0.00686168 0.00898034
v 0.03822269 0.00831564 0.00898034
v 0.03320861 0.00682225 0.00908739
v 0.03320861 0.00815088 0.00908739
v 0.02813623 0.00662639 0.00894943
v 0.02813623 0.00779562 0.00894943
v 0.02389949 0.00742151 0.00871294
v 0.02389949 0.00630036 0.00871294
v 0.02045452 0.00706093 0.00843518
v 0.02045452 0.00597538 0.00843518
v 0.01681920 0.00560636 0.00800224
v 0.01681950 0.00660521 0.00800230
v 0.01362070 0.00527870 0.00709515
v 0.01362097 0.00606173 0.00709518
v 0.04572205 0.00075965 0.00649068
v 0.04851726 0.00256321 0.00461022
v 0.04572205 0.00246937 0.00649068
v 0.04851726 0.00080894 0.00461022
v 0.04922063 0.00286842 0.00332393
v 0.04922063 0.00137089 0.00332393
v 0.04851726 0.00256321 0.00461022
v 0.04919657 0.00464833 0.00332393
v 0.04851726 0.00464829 0.00461022
v 0.04922063 0.00642825 0.00332393
v 0.04851726 0.00673336 0.00461022
v 0.04851726 0.00673336 0.00461022
v 0.04922063 0.00792627 0.00332393
v 0.04851726 0.00848822 0.00461022
v 0.04572205 0.00853753 0.00649068
v 0.04572205 0.00682724 0.00649068
v 0.05633257 0.00260058 0.00332379
v 0.05900403 0.00382406 0.00332376
v 0.05900403 0.00437338 0.00332376
v 0.05605059 0.00374964 0.00332380
v 0.05273565 0.00168893 0.00332385
v 0.05651224 0.00464806 0.00332379
v 0.05900403 0.00464803 0.00332376
v 0.05900403 0.00492278 0.00332376
v 0.05229871 0.00304792 0.00332386
v 0.04922063 0.00137089 0.00332393
v 0.04922063 0.00286842 0.00332393
v 0.04919657 0.00464833 0.00332393
v 0.05211951 0.00464833 0.00332387
v 0.04922063 0.00642825 0.00332393
v 0.05229871 0.00624868 0.00332386
v 0.04922063 0.00792627 0.00332393
v 0.05273565 0.00760812 0.00332385
v 0.05605059 0.00554673 0.00332380
v 0.05633257 0.00669617 0.00332379
v 0.05900403 0.00547228 0.00332376
v 0.05744507 0.00224946 0.00717035
v 0.05987358 0.00368270 0.00577746
v 0.05970740 0.00368270 0.00461002
v 0.05665181 0.00224946 0.00461006
v 0.05329306 0.00118151 0.00806646
v 0.05633257 0.00260058 0.00332379
v 0.05900403 0.00382406 0.00332376
v 0.05273565 0.00168893 0.00332385
v 0.05253770 0.00118151 0.00461013
v 0.04922063 0.00137089 0.00332393
v 0.04921905 0.00080894 0.00848617
v 0.04851726 0.00080894 0.00461022
v 0.04595111 0.00075965 0.00869392
v 0.04572205 0.00075965 0.00649068
v 0.03822269 0.00098146 0.00898034
v 0.03810316 0.00098146 0.00717141
v 0.03320861 0.00114617 0.00908739
v 0.03312260 0.00114617 0.00755492
v 0.02813623 0.00150131 0.00894943
v 0.02824768 0.00150131 0.00748347
v 0.02389949 0.00187530 0.00871294
v 0.02401094 0.00187530 0.00726950
v 0.02062762 0.00223575 0.00691349
v 0.02045452 0.00223575 0.00843518
v 0.01681950 0.00269133 0.00800230
v 0.01687934 0.00269082 0.00634780
v 0.01362097 0.00323462 0.00709518
v 0.01160098 0.00366283 0.00555476
v 0.01175601 0.00359793 0.00461593
v 0.01562145 0.00296750 0.00461616
v 0.01687951 0.00367026 0.00634782
v 0.01562145 0.00296750 0.00461616
v 0.01687934 0.00269082 0.00634780
v 0.01562122 0.00380634 0.00461616
v 0.01562111 0.00464794 0.00461615
v 0.01645886 0.00464794 0.00631797
v 0.01684935 0.00368005 0.00717503
v 0.01687951 0.00562595 0.00634782
v 0.01562122 0.00548982 0.00461616
v 0.01562145 0.00632894 0.00461616
v 0.01687934 0.00660572 0.00634780
v 0.01684935 0.00561616 0.00717503
v 0.01642859 0.00464794 0.00714516
v 0.01681920 0.00368984 0.00800224
v 0.01681920 0.00560636 0.00800224
v 0.01639832 0.00464794 0.00797235
v 0.04595111 0.00246937 0.00869392
v 0.04886815 0.00256321 0.00772346
v 0.04921903 0.00256321 0.00848617
v 0.04583658 0.00246937 0.00759230
v 0.04851726 0.00256321 0.00461022
v 0.03822269 0.00243494 0.00898034
v 0.04572205 0.00246937 0.00649068
v 0.03816293 0.00243494 0.00807587
v 0.03320861 0.00247436 0.00908739
v 0.03810316 0.00243494 0.00717141
v 0.03316561 0.00247436 0.00832116
v 0.02813623 0.00267015 0.00894943
v 0.03312260 0.00247436 0.00755492
v 0.02819195 0.00267015 0.00821645
v 0.02389949 0.00299607 0.00871294
v 0.02824768 0.00267015 0.00748347
v 0.02395522 0.00299607 0.00799122
v 0.02045452 0.00332094 0.00843518
v 0.02401094 0.00299607 0.00726950
v 0.02054107 0.00332094 0.00767433
v 0.01681920 0.00368984 0.00800224
v 0.02062762 0.00332094 0.00691349
v 0.01684935 0.00368005 0.00717503
v 0.01687951 0.00367026 0.00634782
v 0.02062762 0.00597538 0.00691349
v 0.01687934 0.00660572 0.00634780
v 0.01687951 0.00562595 0.00634782
v 0.02062762 0.00706093 0.00691349
v 0.02401094 0.00742151 0.00726950
v 0.02401094 0.00630036 0.00726950
v 0.02824768 0.00662639 0.00748347
v 0.02824768 0.00779562 0.00748347
v 0.03312260 0.00682225 0.00755492
v 0.03312260 0.00815088 0.00755492
v 0.03810316 0.00686168 0.00717141
v 0.03810316 0.00831564 0.00717141
v 0.04572205 0.00682724 0.00649068
v 0.04572205 0.00853753 0.00649068
v 0.05744507 0.00704723 0.00717035
v 0.05970740 0.00561350 0.00461002
v 0.05987358 0.00561350 0.00577746
v 0.05665181 0.00704723 0.00461006
v 0.05900403 0.00547228 0.00332376
v 0.05329306 0.00811553 0.00806646
v 0.05633257 0.00669617 0.00332379
v 0.05253770 0.00811553 0.00461013
v 0.04921905 0.00848822 0.00848617
v 0.05273565 0.00760812 0.00332385
v 0.04851726 0.00848822 0.00461022
v 0.04922063 0.00792627 0.00332393
v 0.04595111 0.00853753 0.00869392
v 0.04572205 0.00853753 0.00649068
v 0.03822269 0.00831564 0.00898034
v 0.03810316 0.00831564 0.00717141
v 0.03320861 0.00815088 0.00908739
v 0.03312260 0.00815088 0.00755492
v 0.02813623 0.00779562 0.00894943
v 0.02824768 0.00779562 0.00748347
v 0.02389949 0.00742151 0.00871294
v 0.02401094 0.00742151 0.00726950
v 0.02062762 0.00706093 0.00691349
v 0.02045452 0.00706093 0.00843518
v 0.01681950 0.00660521 0.00800230
v 0.01687934 0.00660572 0.00634780
v 0.01362097 0.00606173 0.00709518
v 0.01160098 0.00563338 0.00555476
v 0.01175601 0.00569830 0.00461593
v 0.01562145 0.00632894 0.00461616
v 0.04595111 0.00682724 0.00869392
v 0.04921903 0.00673336 0.00848617
v 0.04886815 0.00673336 0.00772346
v 0.04583658 0.00682724 0.00759230
v 0.03822269 0.00686168 0.00898034
v 0.04572205 0.00682724 0.00649068
v 0.04851726 0.00673336 0.00461022
v 0.03810316 0.00686168 0.00717141
v 0.03816293 0.00686168 0.00807587
v 0.03320861 0.00682225 0.00908739
v 0.03312260 0.00682225 0.00755492
v 0.03316561 0.00682225 0.00832116
v 0.02813623 0.00662639 0.00894943
v 0.02824768 0.00662639 0.00748347
v 0.02819195 0.00662639 0.00821645
v 0.02389949 0.00630036 0.00871294
v 0.02401094 0.00630036 0.00726950
v 0.02395522 0.00630036 0.00799122
v 0.02045452 0.00597538 0.00843518
v 0.02062762 0.00597538 0.00691349
v 0.02054107 0.00597538 0.00767433
v 0.01681920 0.00560636 0.00800224
v 0.01687951 0.00562595 0.00634782
v 0.01684935 0.00561616 0.00717503
v 0.05970740 0.00561350 0.00461002
v 0.05900403 0.00547228 0.00332376
v 0.05900403 0.00492278 0.00332376
v 0.05970740 0.00496979 0.00461002
v 0.05987358 0.00561350 0.00577746
v 0.05900403 0.00464803 0.00332376
v 0.05987358 0.00496979 0.00577746
v 0.05970740 0.00464794 0.00461002
v 0.05987358 0.00464794 0.00577746
v 0.05900403 0.00437338 0.00332376
v 0.05987358 0.00432619 0.00577746
v 0.05970740 0.00432619 0.00461002
v 0.05900403 0.00382406 0.00332376
v 0.05987358 0.00368270 0.00577746
v 0.05970740 0.00368270 0.00461002
v 0.04851726 0.00673336 0.00461022
v 0.04886815 0.00673336 0.00772346
v 0.04886815 0.00464829 0.00772346
v 0.04851726 0.00464829 0.00461022
v 0.04886815 0.00256321 0.00772346
v 0.04851726 0.00256321 0.00461022
v -0.07109178 0.00464792 -0.00069245
v -0.07219171 0.00430169 -0.00059968
v -0.07109178 0.00430169 -0.00059968
v -0.07219171 0.00464791 -0.00069245
v -0.07109178 0.00499415 -0.00059968
v -0.07219171 0.00499414 -0.00059968
v -0.07219171 0.00464791 -0.00069245
v -0.07247079 0.00442038 -0.00039410
v -0.07219171 0.00430169 -0.00059968
v -0.07247079 0.00464792 -0.00045507
v -0.07219171 0.00499414 -0.00059968
v -0.07247079 0.00487545 -0.00039410
v -0.07219171 0.00524760 -0.00034623
v -0.07247079 0.00504202 -0.00022753
v -0.07109178 0.00499415 0.00059968
v -0.07219171 0.00499414 0.00059968
v -0.07219171 0.00524760 0.00034623
v -0.07109178 0.00524760 0.00034623
v -0.07219171 0.00534037 0.00000000
v -0.07109178 0.00534037 0.00000000
v -0.07219171 0.00524760 -0.00034623
v -0.07109178 0.00524760 -0.00034623
v -0.07109178 0.00404824 0.00034623
v -0.07219171 0.00404823 0.00034623
v -0.07219171 0.00430169 0.00059968
v -0.07109178 0.00430169 0.00059968
v -0.07109178 0.00430169 -0.00059968
v -0.07219171 0.00430169 -0.00059968
v -0.07219171 0.00404823 -0.00034623
v -0.07109178 0.00404824 -0.00034623
v -0.07219171 0.00395546 0.00000000
v -0.07109178 0.00395547 0.00000000
v -0.07219171 0.00499414 -0.00059968
v -0.07109178 0.00499415 -0.00059968
v -0.07109178 0.00430169 0.00059968
v -0.07219171 0.00430169 0.00059968
v -0.07219171 0.00464791 0.00069245
v -0.07109178 0.00464792 0.00069245
v -0.07219171 0.00499414 0.00059968
v -0.07109178 0.00499415 0.00059968
v -0.07247079 0.00442038 0.00039410
v -0.07247079 0.00425382 0.00022753
v -0.07247079 0.00419285 0.00000000
v -0.07247079 0.00464792 0.00000000
v -0.07247079 0.00425382 -0.00022753
v -0.07247079 0.00487545 0.00039410
v -0.07247079 0.00464792 0.00045507
v -0.07247079 0.00510298 0.00000000
v -0.07247079 0.00504202 0.00022753
v -0.07219171 0.00499414 0.00059968
v -0.07219171 0.00524760 0.00034623
v -0.07219171 0.00534037 0.00000000
v -0.07219171 0.00404823 0.00034623
v -0.07219171 0.00430169 0.00059968
v -0.07219171 0.00464791 0.00069245
v -0.07219171 0.00404823 -0.00034623
v -0.07219171 0.00395546 0.00000000
v -0.06863379 0.00341566 -0.00213436
v -0.07085398 0.00390673 -0.00128378
v -0.07085398 0.00336414 -0.00074119
v -0.06863379 0.00251357 -0.00123227
v -0.07085398 0.00316554 -0.00000000
v -0.06554673 0.00169669 -0.00170390
v -0.06554673 0.00294403 -0.00295124
v -0.06863379 0.00218338 0.00000000
v -0.07085398 0.00336414 0.00074119
v -0.06863379 0.00251357 0.00123227
v -0.06554673 0.00169669 0.00170389
v -0.06554671 0.00124013 -0.00000000
v -0.06229462 0.00121812 0.00198020
v -0.06229462 0.00121812 -0.00198021
v -0.06229462 0.00266773 -0.00342982
v -0.05827381 0.00244690 -0.00381233
v -0.06229460 0.00068753 -0.00000000
v -0.05827381 0.00083562 -0.00220105
v -0.05785028 0.00237471 -0.00393736
v -0.05827378 0.00024585 0.00000000
v -0.05827381 0.00083561 0.00220104
v -0.05785028 0.00071059 -0.00227324
v -0.05785023 0.00010148 0.00000000
v -0.05785028 0.00071059 0.00227322
v -0.05499952 0.00061531 0.00232823
v -0.05499952 0.00061531 -0.00232825
v -0.05499952 0.00231970 -0.00403264
v -0.05222660 0.00227569 -0.00410886
v -0.05222660 0.00053909 -0.00237226
v -0.05499949 -0.00000854 0.00000000
v -0.05222657 -0.00009656 0.00000000
v -0.05222660 0.00053908 0.00237224
v -0.06863379 0.00588020 -0.00213436
v -0.07085398 0.00538911 -0.00128378
v -0.07085398 0.00464792 -0.00148238
v -0.06863379 0.00464793 -0.00246454
v -0.07085398 0.00390673 -0.00128378
v -0.06863379 0.00341566 -0.00213436
v -0.06554673 0.00294403 -0.00295124
v -0.06554673 0.00464793 -0.00340779
v -0.06554673 0.00635183 -0.00295124
v -0.06229462 0.00266773 -0.00342982
v -0.06229462 0.00464794 -0.00396040
v -0.06229462 0.00662814 -0.00342982
v -0.05827381 0.00684900 -0.00381233
v -0.05827381 0.00464795 -0.00440209
v -0.05827381 0.00244690 -0.00381233
v -0.05785028 0.00692118 -0.00393736
v -0.05785028 0.00464795 -0.00454646
v -0.05785028 0.00237471 -0.00393736
v -0.05499952 0.00231970 -0.00403264
v -0.05499953 0.00464795 -0.00465648
v -0.05499953 0.00697619 -0.00403264
v -0.05222661 0.00702020 -0.00410886
v -0.05222661 0.00464795 -0.00474450
v -0.05222660 0.00227569 -0.00410886
v -0.06863379 0.00678228 -0.00123227
v -0.07085398 0.00593170 -0.00074119
v -0.07085398 0.00538911 -0.00128378
v -0.06863379 0.00588020 -0.00213436
v -0.06554673 0.00635183 -0.00295124
v -0.06554673 0.00759918 -0.00170389
v -0.06229462 0.00662814 -0.00342982
v -0.06229462 0.00807775 -0.00198020
v -0.05827381 0.00846028 -0.00220104
v -0.05827381 0.00684900 -0.00381233
v -0.05785028 0.00858530 -0.00227324
v -0.05785028 0.00692118 -0.00393736
v -0.05499953 0.00697619 -0.00403264
v -0.05499953 0.00868059 -0.00232825
v -0.05222661 0.00875681 -0.00237226
v -0.05222661 0.00702020 -0.00410886
v -0.06863379 0.00588020 0.00213436
v -0.07085398 0.00538911 0.00128378
v -0.07085398 0.00593170 0.00074119
v -0.06863379 0.00678228 0.00123227
v -0.07085398 0.00613031 -0.00000000
v -0.06554673 0.00759917 0.00170390
v -0.06554673 0.00635183 0.00295124
v -0.06863379 0.00711247 0.00000000
v -0.06554673 0.00805573 -0.00000000
v -0.06229462 0.00807775 0.00198021
v -0.06229462 0.00662814 0.00342981
v -0.05827381 0.00684899 0.00381233
v -0.06229462 0.00860835 -0.00000000
v -0.05827381 0.00846027 0.00220106
v -0.05785028 0.00692118 0.00393736
v -0.05827381 0.00905004 0.00000000
v -0.05785028 0.00858530 0.00227324
v -0.05785028 0.00919442 0.00000000
v -0.05499953 0.00868058 0.00232825
v -0.05499953 0.00697619 0.00403264
v -0.05222661 0.00702020 0.00410886
v -0.05222661 0.00875680 0.00237226
v -0.05499953 0.00930444 0.00000000
v -0.05222661 0.00939245 0.00000000
v -0.06863379 0.00341566 0.00213436
v -0.07085398 0.00390673 0.00128378
v -0.07085398 0.00464792 0.00148239
v -0.06863379 0.00464793 0.00246455
v -0.07085398 0.00538911 0.00128378
v -0.06863379 0.00588020 0.00213436
v -0.06554673 0.00635183 0.00295124
v -0.06554673 0.00464793 0.00340780
v -0.06554673 0.00294403 0.00295124
v -0.06229462 0.00662814 0.00342981
v -0.06229462 0.00464794 0.00396041
v -0.06229462 0.00266773 0.00342981
v -0.05827381 0.00244690 0.00381233
v -0.05827381 0.00464794 0.00440209
v -0.05827381 0.00684899 0.00381233
v -0.05785028 0.00237471 0.00393736
v -0.05785028 0.00464794 0.00454646
v -0.05785028 0.00692118 0.00393736
v -0.05499953 0.00697619 0.00403264
v -0.05499952 0.00464794 0.00465648
v -0.05499952 0.00231970 0.00403264
v -0.05222661 0.00702020 0.00410886
v -0.05222660 0.00227569 0.00410886
v -0.05222660 0.00464794 0.00474450
v -0.07085398 0.00390673 0.00128378
v -0.06863379 0.00341566 0.00213436
v -0.06554673 0.00294403 0.00295124
v -0.06229462 0.00266773 0.00342981
v -0.05827381 0.00244690 0.00381233
v -0.05785028 0.00237471 0.00393736
v -0.05499952 0.00231970 0.00403264
v -0.05222660 0.00227569 0.00410886
v 0.06612942 0.00639893 -0.00101092
v 0.06693859 0.00546882 -0.00142169
v 0.06693859 0.00606968 -0.00082083
v 0.06612942 0.00565891 -0.00175095
v 0.05790222 0.00575930 -0.00192489
v 0.05790222 0.00657285 -0.00111135
v 0.06693860 0.00382722 0.00142164
v 0.06693860 0.00322636 0.00082077
v 0.06612944 0.00289709 0.00101087
v 0.06612944 0.00363712 0.00175090
v 0.05790223 0.00353662 0.00192489
v 0.05790223 0.00272306 0.00111133
v 0.05790222 0.00657285 0.00111133
v 0.06612943 0.00565891 0.00175090
v 0.05790222 0.00575929 0.00192489
v 0.06612942 0.00639893 0.00101087
v 0.05790222 0.00687063 0.00000000
v 0.06693859 0.00606968 0.00082077
v 0.06693859 0.00546882 0.00142164
v 0.06693859 0.00628961 -0.00000002
v 0.06612942 0.00666980 -0.00000002
v 0.05790223 0.00272306 -0.00111135
v 0.06612944 0.00363712 -0.00175095
v 0.05790223 0.00353662 -0.00192489
v 0.06612944 0.00289709 -0.00101092
v 0.05790223 0.00242528 0.00000000
v 0.06693860 0.00322636 -0.00082083
v 0.06693860 0.00382722 -0.00142169
v 0.06693860 0.00300642 -0.00000002
v 0.06612944 0.00262622 -0.00000002
v 0.05790223 0.00464796 0.00222268
v 0.06612944 0.00363712 0.00175090
v 0.05790223 0.00353662 0.00192489
v 0.06612944 0.00464801 0.00202176
v 0.05790222 0.00575929 0.00192489
v 0.06612943 0.00565891 0.00175090
v 0.06693859 0.00546882 0.00142164
v 0.06693860 0.00464802 0.00164156
v 0.06693860 0.00382722 0.00142164
v 0.05790222 0.00464796 -0.00222268
v 0.06612942 0.00565891 -0.00175095
v 0.05790222 0.00575930 -0.00192489
v 0.06612943 0.00464801 -0.00202181
v 0.05790223 0.00353662 -0.00192489
v 0.06612944 0.00363712 -0.00175095
v 0.06693860 0.00382722 -0.00142169
v 0.06693859 0.00464802 -0.00164162
v 0.06693859 0.00546882 -0.00142169
v -0.07085398 0.00613031 -0.00000000
v -0.07109178 0.00534037 0.00000000
v -0.07109178 0.00524760 -0.00034623
v -0.07085398 0.00593170 -0.00074119
v -0.07085398 0.00593170 0.00074119
v -0.07109178 0.00499415 -0.00059968
v -0.07109178 0.00524760 0.00034623
v -0.07085398 0.00538911 -0.00128378
v -0.07085398 0.00538911 0.00128378
v -0.07109178 0.00464792 -0.00069245
v -0.07109178 0.00499415 0.00059968
v -0.07085398 0.00464792 -0.00148238
v -0.07085398 0.00464792 0.00148239
v -0.07109178 0.00430169 -0.00059968
v -0.07109178 0.00464792 0.00069245
v -0.07085398 0.00390673 -0.00128378
v -0.07085398 0.00390673 0.00128378
v -0.07109178 0.00404824 -0.00034623
v -0.07109178 0.00430169 0.00059968
v -0.07085398 0.00336414 -0.00074119
v -0.07085398 0.00336414 0.00074119
v -0.07109178 0.00395547 0.00000000
v -0.07109178 0.00404824 0.00034623
v -0.07085398 0.00316554 -0.00000000
v 0.06726933 0.00504190 0.00068218
v 0.06693860 0.00464802 0.00164156
v 0.06693859 0.00546882 0.00142164
v 0.06726933 0.00464802 0.00078772
v 0.06693860 0.00382722 0.00142164
v 0.06726933 0.00533023 0.00039384
v 0.06693859 0.00606968 0.00082077
v 0.06726933 0.00464802 -0.00000003
v 0.06726933 0.00425415 0.00068218
v 0.06726933 0.00543576 -0.00000002
v 0.06726933 0.00396581 0.00039385
v 0.06693860 0.00322636 0.00082077
v 0.06693859 0.00628961 -0.00000002
v 0.06693860 0.00300642 -0.00000002
v 0.06726933 0.00533022 -0.00039390
v 0.06693859 0.00606968 -0.00082083
v 0.06726933 0.00386027 -0.00000002
v 0.06693860 0.00322636 -0.00082083
v 0.06726933 0.00504190 -0.00068223
v 0.06693859 0.00546882 -0.00142169
v 0.06726933 0.00396582 -0.00039390
v 0.06693860 0.00382722 -0.00142169
v 0.06726933 0.00464802 -0.00078777
v 0.06693859 0.00464802 -0.00164162
v 0.06726933 0.00425415 -0.00068223
vn -0.39896730 -0.05176259 0.91550300
vn -0.38696830 -0.05098075 0.92068260
vn -0.69062800 -0.28245220 0.66577300
vn -0.75710280 -0.21730730 0.61609480
vn -0.39029770 -0.00000017 0.92068870
vn -0.86668150 -0.48424910 -0.11985880
vn -0.76105820 -0.64171960 -0.09479681
vn -0.69160930 -0.00000023 0.72227180
vn -0.98661360 -0.00000016 -0.16307590
vn -0.86674760 0.48412820 -0.11986810
vn -0.75710590 0.21723130 0.61611790
vn -0.39896830 0.05174611 0.91550340
vn -0.38292840 0.89578850 0.22567400
vn -0.24424120 0.96955880 -0.01737943
vn -0.30683470 0.88516310 0.34976950
vn 0.12876430 -0.00000175 -0.99167530
vn 0.56883900 0.42926140 -0.70153900
vn 0.36962390 0.00000684 -0.92918150
vn 0.12583150 -0.00000154 -0.99205160
vn 0.07245510 0.00000000 -0.99737170
vn 0.07555534 0.00000000 -0.99714150
vn 0.03119292 0.00000000 -0.99951340
vn 0.02963804 0.00000000 -0.99956070
vn -0.03342268 0.00000000 -0.99944130
vn -0.03566140 0.00000000 -0.99936400
vn -0.08453115 0.00000000 -0.99642090
vn -0.08464844 0.00000000 -0.99641090
vn -0.25073340 0.00000000 -0.96805620
vn -0.24951610 0.00000000 -0.96837070
vn 0.38405120 0.00781462 -0.92327870
vn 0.00494443 -0.09064390 -0.99587110
vn 0.39844780 -0.05716390 -0.91540800
vn 0.02265442 -0.03192249 -0.99923360
vn 0.03223062 0.00000000 -0.99948050
vn 0.41721310 0.00000000 -0.90880870
vn 0.38405080 -0.00781181 -0.92327900
vn 0.02265364 0.03191452 -0.99923380
vn 0.00494452 0.09061403 -0.99587390
vn 0.39846270 0.05714344 -0.91540270
vn -0.17941040 -0.00001246 0.98377430
vn -0.38696830 -0.05098075 0.92068260
vn -0.39896730 -0.05176259 0.91550300
vn -0.21085860 -0.01166130 0.97744690
vn -0.09795035 0.00000362 0.99519130
vn -0.10050090 0.00000415 0.99493690
vn -0.06722780 0.00000000 0.99773760
vn -0.06582908 0.00000000 0.99783090
vn -0.28903400 -0.00000191 0.95731880
vn -0.39029770 -0.00000017 0.92068870
vn -0.04009140 0.00000000 0.99919600
vn -0.03887693 0.00000000 0.99924400
vn -0.00095484 0.00000000 0.99999950
vn -0.00210947 0.00000000 0.99999790
vn 0.03147952 0.00000000 0.99950440
vn 0.03133020 0.00000000 0.99950910
vn 0.04545437 0.00000000 0.99896630
vn 0.04552403 0.00000000 0.99896320
vn 0.08363562 0.00000036 0.99649640
vn 0.08484063 0.00000037 0.99639460
vn 0.15764060 0.00900850 0.98745550
vn 0.14732740 0.00732027 0.98906080
vn 0.27814050 0.02453521 0.96022700
vn 0.25954710 0.04165437 0.96483180
vn 0.60557530 0.04205587 0.79467590
vn 0.63567580 0.02989877 0.77137690
vn 0.61359420 0.00000011 0.78962150
vn 0.29616440 0.00000036 0.95513700
vn 0.25955600 -0.04164627 0.96482960
vn 0.63568070 -0.02988885 0.77137320
vn 0.60556780 -0.04204234 0.79468240
vn 0.27812640 -0.02452521 0.96023140
vn 0.14733180 -0.00731831 0.98906000
vn 0.15763570 -0.00900443 0.98745630
vn 0.08484080 -0.00000037 0.99639450
vn 0.08363537 -0.00000036 0.99649640
vn 0.04552408 0.00000000 0.99896320
vn 0.04545439 0.00000000 0.99896630
vn 0.03133027 0.00000000 0.99950910
vn 0.03147965 0.00000000 0.99950440
vn -0.00210966 0.00000000 0.99999790
vn -0.00095464 0.00000000 0.99999950
vn -0.04009165 0.00000000 0.99919600
vn -0.03887679 0.00000000 0.99924400
vn -0.06582884 0.00000000 0.99783090
vn -0.06722806 0.00000000 0.99773760
vn -0.09794991 -0.00000362 0.99519130
vn -0.10050130 -0.00000415 0.99493690
vn -0.21086130 0.01165813 0.97744650
vn -0.17940810 0.00001244 0.98377480
vn -0.39896830 0.05174611 0.91550340
vn -0.30683470 0.88516310 0.34976950
vn -0.24951610 0.00000000 -0.96837070
vn -0.67700630 0.00000000 -0.73597720
vn -0.25073340 0.00000000 -0.96805620
vn -0.64706000 0.00000000 -0.76243900
vn -0.87739130 0.00000000 -0.47977530
vn -0.87739130 0.00000000 -0.47977530
vn -0.88055060 -0.00547917 -0.47392040
vn -0.88056400 0.00000010 -0.47392750
vn -0.88056400 -0.00000010 -0.47392750
vn -0.87739150 0.00000000 -0.47977530
vn -0.88055070 0.00547918 -0.47392010
vn -0.67700450 0.00000000 -0.73597890
vn -0.87739130 0.00000000 -0.47977530
vn -0.64706000 0.00000000 -0.76243910
vn -0.24951650 0.00000000 -0.96837060
vn -0.25073420 0.00000000 -0.96805600
vn -0.00001603 0.00000245 -1.00000000
vn -0.00001346 0.00000301 -1.00000000
vn -0.00001307 0.00000027 -1.00000000
vn -0.00001626 0.00000124 -1.00000000
vn -0.00001904 0.00000116 -1.00000000
vn -0.00001541 0.00000000 -1.00000000
vn -0.00001252 0.00000000 -1.00000000
vn -0.00001318 -0.00000027 -1.00000000
vn -0.00001948 0.00000091 -1.00000000
vn -0.00002135 -0.00000015 -1.00000000
vn -0.00002135 -0.00000015 -1.00000000
vn -0.00002104 0.00000000 -1.00000000
vn -0.00001919 0.00000000 -1.00000000
vn -0.00002142 0.00000015 -1.00000000
vn -0.00001955 -0.00000091 -1.00000000
vn -0.00002142 0.00000015 -1.00000000
vn -0.00001912 -0.00000116 -1.00000000
vn -0.00001635 -0.00000124 -1.00000000
vn -0.00001617 -0.00000245 -1.00000000
vn -0.00001375 -0.00000301 -1.00000000
vn 0.30301710 -0.94978830 -0.07799216
vn 0.43765900 -0.89205710 -0.11264380
vn 0.42703310 -0.88572340 -0.18203540
vn 0.30155120 -0.94106140 -0.15320060
vn 0.16543780 -0.98541530 -0.03983831
vn 0.30215000 -0.89764990 -0.32082690
vn 0.39829940 -0.85861540 -0.32270300
vn 0.17185130 -0.92626480 -0.33541120
vn 0.15385210 -0.98097240 -0.11841740
vn 0.08525034 -0.93027150 -0.35682940
vn 0.06345622 -0.99790810 -0.01235499
vn 0.06810308 -0.99562630 -0.06395382
vn -0.01099919 -0.99993940 0.00054484
vn -0.00891505 -0.99996020 0.00031550
vn -0.03013439 -0.99954320 0.00233455
vn -0.03015801 -0.99954250 0.00233181
vn -0.05021821 -0.99873800 0.00083248
vn -0.05123948 -0.99868610 0.00076263
vn -0.07881876 -0.99688300 -0.00344169
vn -0.07841961 -0.99691500 -0.00329278
vn -0.09508950 -0.99543490 -0.00820207
vn -0.09504563 -0.99543920 -0.00819335
vn -0.11337760 -0.99350850 -0.00930728
vn -0.11337830 -0.99350830 -0.00930722
vn -0.14347520 -0.98950750 -0.01702360
vn -0.15269680 -0.98813770 -0.01635692
vn -0.17061900 -0.98496220 -0.02717556
vn -0.17168250 -0.98507940 -0.01199251
vn -0.17201780 -0.98506840 -0.00708365
vn -0.17201780 -0.98506840 -0.00708365
vn 0.56883900 0.42926140 -0.70153900
vn 0.39844780 -0.05716390 -0.91540800
vn 0.36962390 0.00000684 -0.92918150
vn 0.38405120 0.00781462 -0.92327870
vn 0.41721310 0.00000000 -0.90880870
vn 0.92737380 0.00000211 -0.37413610
vn 0.31221050 0.94997380 0.00861945
vn 0.56887990 -0.42914520 -0.70157690
vn 0.38405080 -0.00781181 -0.92327900
vn 0.39846270 0.05714344 -0.91540270
vn 0.36961530 -0.00000685 -0.92918480
vn 0.31230470 -0.94994280 0.00862206
vn 0.99942430 0.00000000 0.03392729
vn 0.30533020 0.95220910 0.00844385
vn 0.30542360 -0.95217910 0.00844715
vn 0.99942480 0.00000046 0.03391316
vn -0.01174944 0.99992810 0.00241803
vn -0.03057014 0.99951990 0.00503507
vn -0.02968889 0.99953170 0.00741147
vn -0.01453386 0.99989250 0.00198016
vn -0.03116114 0.99950850 0.00344106
vn -0.00026581 1.00000000 0.00009095
vn -0.01825664 0.99983140 0.00196506
vn -0.00013503 1.00000000 0.00008179
vn 0.02198908 0.99975820 -0.00011349
vn -0.00019574 1.00000000 0.00008616
vn 0.02268923 0.99974260 -0.00009860
vn 0.05627023 0.99841140 0.00288481
vn 0.02305627 0.99973410 -0.00009288
vn 0.05615478 0.99841810 0.00283925
vn 0.08420938 0.99642160 0.00727725
vn 0.05597959 0.99842810 0.00278105
vn 0.08431225 0.99641280 0.00728153
vn 0.09633018 0.99533810 0.00474660
vn 0.08447058 0.99639930 0.00729556
vn 0.09540613 0.99542740 0.00469373
vn 0.30533020 0.95220910 0.00844385
vn 0.09448670 0.99551560 0.00456855
vn 0.31221050 0.94997380 0.00861945
vn 0.56883900 0.42926140 -0.70153900
vn 0.12876460 0.00000175 -0.99167510
vn 0.36961530 -0.00000685 -0.92918480
vn 0.56887990 -0.42914520 -0.70157690
vn 0.12583090 0.00000154 -0.99205170
vn 0.07245452 0.00000000 -0.99737170
vn 0.07555576 0.00000000 -0.99714150
vn 0.03119313 0.00000000 -0.99951340
vn 0.02963773 0.00000000 -0.99956070
vn -0.03342243 0.00000000 -0.99944130
vn -0.03566189 0.00000000 -0.99936400
vn -0.08453114 0.00000000 -0.99642090
vn -0.08464845 0.00000000 -0.99641090
vn -0.25073420 0.00000000 -0.96805600
vn -0.24951650 0.00000000 -0.96837060
vn 0.30310870 0.94975720 -0.07801583
vn 0.42714800 0.88566630 -0.18204300
vn 0.43777490 0.89199650 -0.11267370
vn 0.30164250 0.94103130 -0.15320570
vn 0.39841390 0.85857490 -0.32266950
vn 0.16549170 0.98540570 -0.03985129
vn 0.30224490 0.89762940 -0.32079500
vn 0.15390220 0.98096420 -0.11841920
vn 0.06347738 0.99790670 -0.01235915
vn 0.17190920 0.92626290 -0.33538690
vn 0.06812575 0.99562470 -0.06395453
vn 0.08527917 0.93027450 -0.35681460
vn -0.01100296 0.99993930 0.00054511
vn -0.00891813 0.99996020 0.00031568
vn -0.03014445 0.99954280 0.00233551
vn -0.03016807 0.99954210 0.00233277
vn -0.05023494 0.99873720 0.00083290
vn -0.05125654 0.99868520 0.00076302
vn -0.07884488 0.99688100 -0.00344280
vn -0.07844559 0.99691300 -0.00329384
vn -0.09512097 0.99543190 -0.00820502
vn -0.09507708 0.99543610 -0.00819630
vn -0.11341500 0.99350410 -0.00931080
vn -0.11341570 0.99350400 -0.00931074
vn -0.14352210 0.98950060 -0.01702927
vn -0.15274660 0.98813000 -0.01636240
vn -0.30683470 0.88516310 0.34976950
vn -0.38292840 0.89578850 0.22567400
vn -0.24424120 0.96955880 -0.01737943
vn -0.17207340 0.98505870 -0.00708657
vn -0.01175339 -0.99992800 0.00241918
vn -0.02969891 -0.99953140 0.00741473
vn -0.03058048 -0.99951960 0.00503690
vn -0.01453877 -0.99989240 0.00198082
vn -0.00026587 -1.00000000 0.00009108
vn -0.01826282 -0.99983130 0.00196548
vn -0.03117169 -0.99950810 0.00344193
vn -0.00019578 -1.00000000 0.00008630
vn -0.00013505 -1.00000000 0.00008192
vn 0.02199643 -0.99975810 -0.00011391
vn 0.02306398 -0.99973400 -0.00009232
vn 0.02269683 -0.99974230 -0.00009855
vn 0.05628892 -0.99841030 0.00288536
vn 0.05599822 -0.99842700 0.00278201
vn 0.05617345 -0.99841700 0.00283999
vn 0.08423728 -0.99641920 0.00727970
vn 0.08449861 -0.99639680 0.00729788
vn 0.08434020 -0.99641040 0.00728391
vn 0.09636211 -0.99533500 0.00474865
vn 0.09451801 -0.99551270 0.00456983
vn 0.09543774 -0.99542430 0.00469541
vn 0.30542360 -0.95217910 0.00844715
vn 0.56887990 -0.42914520 -0.70157690
vn 0.31230470 -0.94994280 0.00862206
vn 0.94667860 0.00000000 -0.32217940
vn 0.87738710 0.00000000 -0.47978310
vn 0.87738710 0.00000000 -0.47978310
vn 0.94462440 0.00000000 -0.32815330
vn 0.60556780 -0.04204234 0.79468240
vn 0.87738670 0.00000000 -0.47978370
vn 0.63568070 -0.02988885 0.77137320
vn 0.94482500 0.00000000 -0.32757560
vn 0.61359420 0.00000011 0.78962150
vn 0.87738690 0.00000000 -0.47978340
vn 0.63567580 0.02989877 0.77137690
vn 0.94462360 0.00000000 -0.32815570
vn 0.87738690 0.00000000 -0.47978350
vn 0.60557530 0.04205587 0.79467590
vn 0.94668040 0.00000000 -0.32217410
vn -0.99370830 0.00000000 0.11199970
vn -0.99370830 0.00000000 0.11199970
vn -0.99370830 0.00000000 0.11199960
vn -0.99370830 0.00000000 0.11199960
vn -0.99370830 0.00000000 0.11199960
vn -0.99370830 0.00000000 0.11199960
vn 0.00000000 0.00000084 -1.00000000
vn -0.13321960 -0.49553520 -0.85831080
vn 0.00000237 -0.49998970 -0.86603130
vn -0.13321950 -0.00000085 -0.99108650
vn -0.00000252 0.49999080 -0.86603080
vn -0.13322240 0.49553390 -0.85831110
vn -0.13321950 -0.00000085 -0.99108650
vn -0.87685690 -0.24037420 -0.41634400
vn -0.13321960 -0.49553520 -0.85831080
vn -0.87685310 0.00000035 -0.48075840
vn -0.13322240 0.49553390 -0.85831110
vn -0.87685560 0.24037730 -0.41634480
vn -0.13322250 0.85830440 -0.49554530
vn -0.87685740 0.41634190 -0.24037550
vn -0.00000210 0.49998980 0.86603120
vn -0.13322150 0.49553470 0.85831080
vn -0.13322200 0.85830510 0.49554450
vn -0.00000330 0.86602530 0.50000030
vn -0.13322110 0.99108630 0.00000092
vn -0.00000393 1.00000000 0.00000097
vn -0.13322250 0.85830440 -0.49554530
vn -0.00000401 0.86602530 -0.50000020
vn 0.00000433 -0.86602510 0.50000070
vn -0.13321730 -0.85830590 0.49554430
vn -0.13321950 -0.49553570 0.85831050
vn 0.00000263 -0.49998920 0.86603160
vn 0.00000237 -0.49998970 -0.86603130
vn -0.13321960 -0.49553520 -0.85831080
vn -0.13321730 -0.85830550 -0.49554500
vn 0.00000351 -0.86602510 -0.50000040
vn -0.13321440 -0.99108730 -0.00000092
vn 0.00000413 -1.00000000 -0.00000098
vn -0.13322240 0.49553390 -0.85831110
vn -0.00000252 0.49999080 -0.86603080
vn 0.00000263 -0.49998920 0.86603160
vn -0.13321950 -0.49553570 0.85831050
vn -0.13321950 -0.00000059 0.99108650
vn 0.00000000 0.00000057 1.00000000
vn -0.13322150 0.49553470 0.85831080
vn -0.00000210 0.49998980 0.86603120
vn -0.87685670 -0.24037620 0.41634320
vn -0.87685810 -0.41634060 0.24037590
vn -0.87685650 -0.48075220 -0.00000054
vn -1.00000000 -0.00000120 0.00000000
vn -0.87685750 -0.41634170 -0.24037580
vn -0.87685550 0.24037970 0.41634370
vn -0.87685320 0.00000044 0.48075820
vn -0.87685670 0.48075170 0.00000031
vn -0.87685810 0.41634040 0.24037560
vn -0.13322150 0.49553470 0.85831080
vn -0.13322200 0.85830510 0.49554450
vn -0.13322110 0.99108630 0.00000092
vn -0.13321730 -0.85830590 0.49554430
vn -0.13321950 -0.49553570 0.85831050
vn -0.13321950 -0.00000059 0.99108650
vn -0.13321730 -0.85830550 -0.49554500
vn -0.13321440 -0.99108730 -0.00000092
vn -0.32758680 -0.47240910 -0.81823990
vn -0.49541880 -0.43432680 -0.75227690
vn -0.49541850 -0.75227740 -0.43432610
vn -0.32758610 -0.81823960 -0.47241010
vn -0.49541770 -0.86865480 -0.00000038
vn -0.22025780 -0.84475780 -0.48772000
vn -0.22025850 -0.48771910 -0.84475820
vn -0.32758440 -0.94482190 -0.00000091
vn -0.49541890 -0.75227700 0.43432650
vn -0.32758570 -0.81823990 0.47240980
vn -0.22025760 -0.84475790 0.48772000
vn -0.22025640 -0.97544200 -0.00000105
vn -0.13298820 -0.85833360 0.49555790
vn -0.13298820 -0.85833370 -0.49555750
vn -0.13298890 -0.49555740 -0.85833380
vn -0.13355870 -0.49551890 -0.85826750
vn -0.13298750 -0.99111770 -0.00000078
vn -0.13355790 -0.85826800 -0.49551820
vn -0.07455140 -0.49860680 -0.86361650
vn -0.13355790 -0.99104100 -0.00000061
vn -0.13355780 -0.85826800 0.49551830
vn -0.07455193 -0.86361490 -0.49860940
vn -0.07455079 -0.99721720 -0.00000028
vn -0.07455184 -0.86361490 0.49860950
vn -0.03513673 -0.86549090 0.49969090
vn -0.03513672 -0.86549070 -0.49969120
vn -0.03513663 -0.49968960 -0.86549160
vn -0.13504360 -0.49541900 -0.85809280
vn -0.13504260 -0.85809290 -0.49541920
vn -0.03513668 -0.99938250 -0.00000021
vn -0.13504400 -0.99083950 0.00000000
vn -0.13504240 -0.85809330 0.49541840
vn -0.32758840 0.47240980 -0.81823890
vn -0.49542120 0.43432410 -0.75227680
vn -0.49542030 -0.00000190 -0.86865340
vn -0.32758710 -0.00000067 -0.94482090
vn -0.49541880 -0.43432680 -0.75227690
vn -0.32758680 -0.47240910 -0.81823990
vn -0.22025850 -0.48771910 -0.84475820
vn -0.22025880 -0.00000015 -0.97544140
vn -0.22025970 0.48772090 -0.84475680
vn -0.13298890 -0.49555740 -0.85833380
vn -0.13298950 -0.00000012 -0.99111750
vn -0.13299040 0.49555910 -0.85833250
vn -0.13356130 0.49552120 -0.85826590
vn -0.13355930 0.00000029 -0.99104090
vn -0.13355870 -0.49551890 -0.85826750
vn -0.07455279 0.49860660 -0.86361650
vn -0.07455153 -0.00000013 -0.99721720
vn -0.07455140 -0.49860680 -0.86361650
vn -0.03513663 -0.49968960 -0.86549160
vn -0.03513668 -0.00000018 -0.99938250
vn -0.03513682 0.49968930 -0.86549180
vn -0.13504370 0.49541800 -0.85809340
vn -0.13504290 -0.00000079 -0.99083980
vn -0.13504360 -0.49541900 -0.85809280
vn -0.32758860 0.81823830 -0.47241060
vn -0.49542160 0.75227500 -0.43432680
vn -0.49542120 0.43432410 -0.75227680
vn -0.32758840 0.47240980 -0.81823890
vn -0.22025970 0.48772090 -0.84475680
vn -0.22025990 0.84475680 -0.48772070
vn -0.13299040 0.49555910 -0.85833250
vn -0.13299070 0.85833270 -0.49555880
vn -0.13356240 0.85826630 -0.49552000
vn -0.13356130 0.49552120 -0.85826590
vn -0.07455347 0.86361490 -0.49860920
vn -0.07455279 0.49860660 -0.86361650
vn -0.03513682 0.49968930 -0.86549180
vn -0.03513687 0.86549070 -0.49969130
vn -0.13504350 0.85809230 -0.49541990
vn -0.13504370 0.49541800 -0.85809340
vn -0.32758820 0.47241200 0.81823770
vn -0.49542140 0.43433030 0.75227310
vn -0.49542240 0.75227450 0.43432670
vn -0.32758920 0.81823800 0.47241080
vn -0.49542250 0.86865220 0.00000093
vn -0.22026020 0.84475670 0.48772080
vn -0.22025940 0.48772080 0.84475700
vn -0.32758940 0.94482020 0.00000089
vn -0.22026040 0.97544110 0.00000069
vn -0.13299110 0.85833230 0.49555920
vn -0.13299020 0.49555780 0.85833330
vn -0.13356060 0.49551880 0.85826720
vn -0.13299120 0.99111720 0.00000043
vn -0.13356150 0.85826580 0.49552110
vn -0.07455189 0.49860670 0.86361650
vn -0.13356210 0.99104040 0.00000037
vn -0.07455201 0.86361520 0.49860890
vn -0.07455259 0.99721710 0.00000096
vn -0.03513688 0.86549060 0.49969130
vn -0.03513700 0.49968940 0.86549160
vn -0.13504340 0.49541720 0.85809390
vn -0.13504370 0.85809210 0.49542030
vn -0.03513683 0.99938250 0.00000107
vn -0.13504350 0.99083970 0.00000110
vn -0.32758590 -0.47241370 0.81823750
vn -0.49541980 -0.43433110 0.75227370
vn -0.49542060 -0.00000027 0.86865320
vn -0.32758720 -0.00000070 0.94482090
vn -0.49542140 0.43433030 0.75227310
vn -0.32758820 0.47241200 0.81823770
vn -0.22025940 0.48772080 0.84475700
vn -0.22025830 -0.00000066 0.97544150
vn -0.22025760 -0.48772290 0.84475610
vn -0.13299020 0.49555780 0.85833330
vn -0.13298900 0.00000000 0.99111750
vn -0.13298860 -0.49556050 0.85833200
vn -0.13355870 -0.49552180 0.85826590
vn -0.13355940 0.00000038 0.99104080
vn -0.13356060 0.49551880 0.85826720
vn -0.07455148 -0.49860930 0.86361490
vn -0.07455169 -0.00000013 0.99721720
vn -0.07455189 0.49860670 0.86361650
vn -0.03513700 0.49968940 0.86549160
vn -0.03513692 -0.00000030 0.99938250
vn -0.03513690 -0.49969210 0.86549020
vn -0.13504340 0.49541720 0.85809390
vn -0.13504340 -0.49542050 0.85809200
vn -0.13504370 -0.00000099 0.99083970
vn -0.49541980 -0.43433110 0.75227370
vn -0.32758590 -0.47241370 0.81823750
vn -0.22025760 -0.48772290 0.84475610
vn -0.13298860 -0.49556050 0.85833200
vn -0.13355870 -0.49552180 0.85826590
vn -0.07455148 -0.49860930 0.86361490
vn -0.03513690 -0.49969210 0.86549020
vn -0.13504340 -0.49542050 0.85809200
vn 0.05678343 0.86462890 -0.49919180
vn 0.64411930 0.38246270 -0.66244450
vn 0.64412030 0.66244480 -0.38246060
vn 0.05678463 0.49919110 -0.86462930
vn 0.02440439 0.49984800 -0.86576930
vn 0.02440297 0.86576810 -0.49985010
vn 0.64412670 -0.38245890 0.66243950
vn 0.64412700 -0.66243820 0.38246060
vn 0.05679710 -0.86462710 0.49919340
vn 0.05679603 -0.49919350 0.86462710
vn 0.02441599 -0.49985270 0.86576610
vn 0.02441711 -0.86576720 0.49985100
vn 0.02440519 0.86576610 0.49985330
vn 0.05678913 0.49919440 0.86462710
vn 0.02440912 0.49985190 0.86576690
vn 0.05678530 0.86462750 0.49919410
vn 0.02440318 0.99970220 0.00000095
vn 0.64411800 0.66244690 0.38246080
vn 0.64412100 0.38246910 0.66243920
vn 0.64411970 0.76492470 -0.00000031
vn 0.05678352 0.99838650 0.00000030
vn 0.02441484 -0.86576810 -0.49984950
vn 0.05679164 -0.49918960 -0.86462970
vn 0.02441127 -0.49984820 -0.86576900
vn 0.05679505 -0.86462770 -0.49919270
vn 0.02441690 -0.99970180 0.00000026
vn 0.64412590 -0.66244080 -0.38245800
vn 0.64412500 -0.38245590 -0.66244280
vn 0.64412730 -0.76491840 -0.00000079
vn 0.05679696 -0.99838580 -0.00000038
vn 0.02441333 0.00000022 0.99970190
vn 0.05679603 -0.49919350 0.86462710
vn 0.02441599 -0.49985270 0.86576610
vn 0.05679365 0.00000086 0.99838590
vn 0.02440912 0.49985190 0.86576690
vn 0.05678913 0.49919440 0.86462710
vn 0.64412100 0.38246910 0.66243920
vn 0.64412660 0.00000455 0.76491890
vn 0.64412670 -0.38245890 0.66243950
vn 0.02440741 0.00000014 -0.99970200
vn 0.05678463 0.49919110 -0.86462930
vn 0.02440439 0.49984800 -0.86576930
vn 0.05678760 0.00000037 -0.99838630
vn 0.02441127 -0.49984820 -0.86576900
vn 0.05679164 -0.49918960 -0.86462970
vn 0.64412500 -0.38245590 -0.66244280
vn 0.64412270 0.00000572 -0.76492230
vn 0.64411930 0.38246270 -0.66244450
vn -0.49542250 0.86865220 0.00000093
vn -0.95755310 0.28825670 0.00000082
vn -0.95755230 0.24963960 -0.14413050
vn -0.49542160 0.75227500 -0.43432680
vn -0.49542240 0.75227450 0.43432670
vn -0.95755180 0.14413090 -0.24964130
vn -0.95755170 0.24964140 0.14413070
vn -0.49542120 0.43432410 -0.75227680
vn -0.49542140 0.43433030 0.75227310
vn -0.95755210 -0.00000328 -0.28826050
vn -0.95755230 0.14413020 0.24964000
vn -0.49542030 -0.00000190 -0.86865340
vn -0.49542060 -0.00000027 0.86865320
vn -0.95755090 -0.14413770 -0.24964120
vn -0.95755300 -0.00000015 0.28825720
vn -0.49541880 -0.43432680 -0.75227690
vn -0.49541980 -0.43433110 0.75227370
vn -0.95755090 -0.24964470 -0.14413090
vn -0.95755260 -0.14412740 0.24964040
vn -0.49541850 -0.75227740 -0.43432610
vn -0.49541890 -0.75227700 0.43432650
vn -0.95755160 -0.28826160 0.00000000
vn -0.95755170 -0.24964140 0.14413140
vn -0.49541770 -0.86865480 -0.00000038
vn 0.96529060 0.13059880 0.22618110
vn 0.64412660 0.00000455 0.76491890
vn 0.64412100 0.38246910 0.66243920
vn 0.96529260 0.00000901 0.26117070
vn 0.64412670 -0.38245890 0.66243950
vn 0.96529140 0.22618470 0.13058700
vn 0.64411800 0.66244690 0.38246080
vn 1.00000000 0.00000362 -0.00000101
vn 0.96529250 -0.13058460 0.22618160
vn 0.96529190 0.26117330 -0.00000038
vn 0.96529200 -0.22618250 0.13058630
vn 0.64412700 -0.66243820 0.38246060
vn 0.64411970 0.76492470 -0.00000031
vn 0.64412730 -0.76491840 -0.00000079
vn 0.96529150 0.22618420 -0.13058740
vn 0.64412030 0.66244480 -0.38246060
vn 0.96529200 -0.26117250 -0.00000063
vn 0.64412590 -0.66244080 -0.38245800
vn 0.96529100 0.13059080 -0.22618440
vn 0.64411930 0.38246270 -0.66244450
vn 0.96529200 -0.22618280 -0.13058530
vn 0.64412500 -0.38245590 -0.66244280
vn 0.96529170 0.00001292 -0.26117430
vn 0.64412270 0.00000572 -0.76492230
vn 0.96529260 -0.13058070 -0.22618310
vt -9.96170500 0.94827990
vt -9.96170400 0.94059370
vt -9.97683000 0.94479840
vt -9.97822700 0.95121740
vt -9.96170500 0.95447150
vt -9.98744600 0.95096590
vt -9.98605000 0.94416110
vt -9.97822600 0.95447150
vt -9.98744600 0.95447150
vt -9.98744600 0.95797820
vt -9.97822700 0.95772680
vt -9.96170500 0.96066520
vt -9.97683000 0.96414800
vt -9.98605000 0.96478530
vt -9.96170400 0.96835410
vt -9.43854000 0.34433570
vt -9.44127500 0.37367390
vt -9.43360700 0.37367550
vt -9.43004600 0.34433570
vt -9.42722400 0.31785290
vt -9.43599700 0.31785290
vt -9.43344600 0.28469010
vt -9.42429700 0.28469010
vt -9.43191300 0.24653170
vt -9.42151600 0.24653170
vt -9.43160400 0.20754640
vt -9.42022700 0.20754640
vt -9.43187400 0.14790970
vt -9.41849100 0.14790970
vt -9.76403000 0.89444250
vt -9.76240100 0.92467190
vt -9.75747000 0.89444070
vt -9.76781900 0.92897360
vt -9.77061300 0.92897280
vt -9.77061300 0.89444330
vt -9.77719700 0.89444250
vt -9.77340600 0.92897360
vt -9.77882700 0.92467190
vt -9.78375900 0.89444070
vt -9.72378700 0.57390110
vt -9.71950900 0.59908290
vt -9.71334700 0.59908500
vt -9.71592500 0.57390330
vt -9.72737300 0.54528250
vt -9.71883000 0.54528250
vt -9.72138800 0.51816030
vt -9.73021100 0.51816030
vt -9.70838300 0.57721700
vt -9.70838300 0.59908600
vt -9.72395400 0.48480470
vt -9.73315600 0.48480470
vt -9.73595200 0.44486990
vt -9.72549500 0.44486990
vt -9.73724800 0.40539420
vt -9.72580500 0.40539420
vt -9.73899500 0.34454860
vt -9.72553400 0.34454860
vt -9.73860600 0.31882020
vt -9.72479500 0.31882030
vt -9.73567400 0.28674550
vt -9.72314100 0.29073260
vt -9.72726500 0.25405700
vt -9.71666800 0.25661960
vt -9.71598100 0.23493740
vt -9.71091600 0.23493740
vt -9.70838300 0.23493740
vt -9.70838300 0.25294290
vt -9.70009400 0.25661960
vt -9.70584900 0.23493740
vt -9.70078100 0.23493740
vt -9.68949300 0.25405700
vt -9.69362000 0.29073260
vt -9.68108300 0.28674550
vt -9.69196400 0.31882030
vt -9.67814800 0.31882020
vt -9.69122500 0.34454860
vt -9.67776000 0.34454860
vt -9.69095400 0.40539420
vt -9.67950700 0.40539420
vt -9.69126400 0.44486990
vt -9.68080300 0.44486990
vt -9.69280600 0.48480470
vt -9.68360000 0.48480470
vt -9.68654600 0.51816030
vt -9.69537300 0.51816030
vt -9.68938500 0.54528250
vt -9.69793100 0.54528250
vt -9.70083700 0.57390330
vt -9.69297300 0.57390110
vt -9.70341600 0.59908500
vt -9.69725200 0.59908290
vt -9.68674800 0.87198450
vt -9.70301700 0.88759040
vt -9.68674800 0.88677850
vt -9.70301700 0.87241110
vt -9.71414900 0.89023130
vt -9.71414900 0.87727340
vt -9.70301700 0.88759040
vt -9.71414900 0.90563260
vt -9.70301700 0.90563220
vt -9.71414900 0.92103380
vt -9.70301700 0.92367390
vt -9.70301700 0.92367390
vt -9.71414900 0.93399580
vt -9.70301700 0.93885830
vt -9.68674800 0.93928500
vt -9.68674800 0.92448610
vt -9.33355600 0.59396640
vt -9.34311600 0.57309400
vt -9.34740700 0.57309400
vt -9.34253500 0.59616950
vt -9.32643400 0.62206980
vt -9.34955300 0.59256270
vt -9.34955300 0.57309400
vt -9.35170000 0.57309400
vt -9.33705100 0.62548370
vt -9.32394800 0.64953310
vt -9.33564900 0.64953310
vt -9.34955500 0.64972110
vt -9.34955500 0.62688390
vt -9.36346200 0.64953310
vt -9.36206000 0.62548370
vt -9.37516800 0.64953310
vt -9.37268000 0.62206980
vt -9.35657400 0.59616950
vt -9.36555500 0.59396640
vt -9.35599200 0.57309400
vt -9.93875100 0.26347170
vt -9.94976600 0.24426740
vt -9.95899800 0.24558150
vt -9.95899800 0.26974460
vt -9.93166500 0.29630490
vt -9.96916900 0.27226910
vt -9.96916900 0.25114360
vt -9.96916900 0.30071290
vt -9.95899700 0.30227840
vt -9.96916800 0.32850920
vt -9.92834700 0.32852160
vt -9.95899600 0.33407130
vt -9.92670300 0.35436400
vt -9.94412600 0.35617530
vt -9.92443800 0.41547890
vt -9.93874300 0.41642420
vt -9.92359300 0.45512940
vt -9.93571000 0.45580950
vt -9.92468300 0.49524100
vt -9.93627500 0.49435960
vt -9.92655300 0.52874430
vt -9.93796700 0.52786300
vt -9.94078300 0.55461780
vt -9.92875000 0.55598660
vt -9.93217300 0.58473180
vt -9.94525600 0.58425850
vt -9.93934600 0.61002520
vt -9.95152800 0.62599900
vt -9.95895100 0.62477300
vt -9.95894900 0.59420570
vt -9.83734700 0.89894270
vt -9.82270100 0.89299800
vt -9.83734700 0.89065750
vt -9.82270100 0.90009380
vt -9.82270100 0.90721290
vt -9.83709500 0.90721290
vt -9.84434500 0.89902540
vt -9.83734700 0.91548600
vt -9.82270100 0.91433460
vt -9.82270100 0.92143270
vt -9.83734700 0.92377390
vt -9.84434500 0.91540310
vt -9.84409200 0.90721290
vt -9.85134200 0.89910840
vt -9.85134200 0.91532030
vt -9.85108900 0.90721290
vt -9.60530200 0.19160630
vt -9.59771400 0.16880060
vt -9.60367700 0.16605730
vt -9.59668900 0.19250160
vt -9.57337600 0.17154390
vt -9.60754000 0.25202770
vt -9.58807700 0.19339710
vt -9.60047000 0.25249500
vt -9.60837700 0.29122830
vt -9.59339900 0.25296230
vt -9.60238700 0.29156440
vt -9.60729900 0.33088470
vt -9.59639600 0.29190080
vt -9.60156800 0.33044900
vt -9.60545000 0.36400780
vt -9.59583900 0.33001340
vt -9.59980800 0.36357220
vt -9.60327900 0.39094090
vt -9.59416600 0.36313650
vt -9.59733000 0.39026440
vt -9.59989500 0.41936230
vt -9.59138200 0.38958760
vt -9.59342700 0.41912640
vt -9.58696000 0.41889070
vt -9.36162400 0.34433330
vt -9.36655700 0.37367210
vt -9.35888900 0.37367050
vt -9.37012000 0.34433330
vt -9.37294200 0.31785120
vt -9.36416700 0.31785120
vt -9.36671900 0.28468930
vt -9.37587100 0.28468930
vt -9.36825200 0.24653210
vt -9.37865100 0.24653210
vt -9.36856100 0.20754810
vt -9.37994100 0.20754810
vt -9.36829100 0.14791300
vt -9.38167800 0.14791300
vt -9.84395200 0.26346480
vt -9.82370500 0.24557400
vt -9.83293700 0.24425980
vt -9.82370500 0.26973800
vt -9.81353300 0.25113630
vt -9.85103900 0.29629940
vt -9.81353400 0.27226250
vt -9.82370600 0.30227300
vt -9.85435800 0.32851730
vt -9.81353400 0.30070750
vt -9.82370600 0.33406720
vt -9.81353500 0.32850490
vt -9.85600100 0.35436070
vt -9.83857700 0.35617210
vt -9.85826600 0.41547810
vt -9.84396000 0.41642340
vt -9.85911200 0.45513020
vt -9.84699300 0.45581040
vt -9.85802200 0.49524330
vt -9.84642900 0.49436200
vt -9.85615100 0.52874800
vt -9.84473600 0.52786670
vt -9.84192000 0.55462240
vt -9.85395400 0.55599130
vt -9.85053200 0.58473750
vt -9.83744700 0.58426440
vt -9.84335700 0.61003210
vt -9.83117600 0.62600640
vt -9.82375100 0.62478050
vt -9.82375300 0.59421190
vt -9.48892700 0.19161030
vt -9.49055100 0.16606240
vt -9.49651300 0.16880550
vt -9.49753900 0.19250560
vt -9.48668800 0.25202940
vt -9.50615100 0.19340110
vt -9.52085200 0.17154870
vt -9.50083000 0.25296380
vt -9.49375800 0.25249660
vt -9.48585000 0.29122830
vt -9.49783100 0.29190070
vt -9.49184100 0.29156450
vt -9.48692900 0.33088310
vt -9.49839000 0.33001180
vt -9.49266000 0.33044740
vt -9.48877800 0.36400490
vt -9.50006200 0.36313360
vt -9.49442000 0.36356930
vt -9.49095000 0.39093690
vt -9.50284600 0.38958360
vt -9.49689800 0.39026030
vt -9.49433400 0.41935700
vt -9.50726800 0.41888550
vt -9.50080100 0.41912140
vt -9.91876100 0.95731900
vt -9.91990500 0.94690000
vt -9.92435600 0.94690000
vt -9.92397500 0.95731900
vt -9.91876100 0.96677540
vt -9.92658000 0.94690000
vt -9.92397500 0.96677540
vt -9.92658100 0.95731900
vt -9.92658100 0.96677540
vt -9.92880600 0.94690000
vt -9.92918800 0.96677540
vt -9.92918800 0.95731900
vt -9.93325500 0.94690000
vt -9.93440100 0.96677540
vt -9.93440100 0.95731900
vt -9.70301700 0.92367390
vt -9.67608000 0.92367390
vt -9.67608000 0.90563220
vt -9.70301700 0.90563220
vt -9.67608000 0.88759040
vt -9.70301700 0.88759040
vt -9.81292200 0.95162120
vt -9.81015000 0.96043250
vt -9.81015000 0.95162120
vt -9.81292200 0.96043250
vt -9.81569500 0.95162120
vt -9.81569500 0.96043250
vt -9.89674400 0.94724750
vt -9.89405800 0.94519910
vt -9.89590900 0.94413040
vt -9.89460700 0.94724760
vt -9.89590900 0.95036470
vt -9.89405800 0.94929620
vt -9.89362700 0.95264660
vt -9.89255900 0.95079570
vt -9.85671700 0.95180300
vt -9.86609900 0.95180300
vt -9.86609900 0.95396510
vt -9.85671700 0.95396510
vt -9.86609900 0.95691900
vt -9.85671700 0.95691900
vt -9.86609900 0.95987260
vt -9.85671700 0.95987260
vt -9.83064700 0.95987270
vt -9.84002900 0.95987270
vt -9.84002900 0.96203500
vt -9.83064700 0.96203500
vt -9.83064700 0.95180300
vt -9.84002900 0.95180300
vt -9.84002900 0.95396520
vt -9.83064700 0.95396520
vt -9.84002900 0.95691900
vt -9.83064700 0.95691900
vt -9.86609900 0.96203490
vt -9.85671700 0.96203490
vt -9.79704600 0.96064750
vt -9.79704600 0.96937180
vt -9.79430000 0.96937180
vt -9.79430000 0.96064750
vt -9.79155400 0.96937180
vt -9.79155400 0.96064750
vt -9.88696100 0.94519910
vt -9.88846100 0.94369950
vt -9.89051000 0.94315060
vt -9.89051000 0.94724760
vt -9.89255900 0.94369950
vt -9.88696100 0.94929620
vt -9.88641300 0.94724760
vt -9.89051000 0.95134450
vt -9.88846100 0.95079570
vt -9.88511100 0.95036470
vt -9.88739200 0.95264660
vt -9.89051000 0.95348180
vt -9.88739200 0.94184850
vt -9.88511100 0.94413040
vt -9.88427500 0.94724750
vt -9.89362700 0.94184850
vt -9.89051000 0.94101330
vt -9.28145900 0.23021330
vt -9.27413500 0.24933080
vt -9.26946300 0.24933080
vt -9.27369100 0.23021330
vt -9.26308100 0.24933080
vt -9.27775200 0.20363110
vt -9.28849300 0.20363110
vt -9.26308100 0.23021320
vt -9.25669800 0.24933080
vt -9.25247000 0.23021330
vt -9.24840800 0.20363110
vt -9.26308100 0.20363100
vt -9.24602900 0.17562790
vt -9.28013100 0.17562790
vt -9.29261400 0.17562790
vt -9.29590800 0.14100550
vt -9.26308100 0.17562770
vt -9.28203400 0.14100550
vt -9.29698500 0.13735860
vt -9.26308100 0.14100520
vt -9.24412700 0.14100550
vt -9.28265500 0.13735860
vt -9.26308100 0.13735820
vt -9.24350600 0.13735860
vt -9.24303200 0.11281120
vt -9.28312900 0.11281120
vt -9.29780500 0.11281120
vt -9.29846100 0.08893410
vt -9.28350700 0.08893410
vt -9.26308100 0.11281090
vt -9.26308100 0.08893388
vt -9.24265300 0.08893410
vt -9.14955300 0.22597530
vt -9.14561800 0.24376680
vt -9.13967900 0.24376680
vt -9.13967900 0.22597530
vt -9.13373900 0.24376680
vt -9.12980500 0.22597530
vt -9.12602500 0.20123730
vt -9.13967900 0.20123730
vt -9.15333300 0.20123730
vt -9.12381100 0.17517680
vt -9.13967900 0.17517680
vt -9.15554700 0.17517680
vt -9.15731700 0.14295610
vt -9.13967900 0.14295610
vt -9.12204100 0.14295610
vt -9.15789500 0.13956220
vt -9.13967900 0.13956220
vt -9.12146300 0.13956220
vt -9.12102100 0.11671780
vt -9.13967900 0.11671780
vt -9.15833600 0.11671780
vt -9.15868900 0.09449726
vt -9.13967900 0.09449726
vt -9.12066900 0.09449726
vt -9.10952200 0.56830760
vt -9.11375000 0.58742520
vt -9.10907800 0.58742520
vt -9.10175400 0.56830760
vt -9.09472000 0.54172520
vt -9.10546100 0.54172520
vt -9.09059900 0.51372180
vt -9.10308200 0.51372180
vt -9.10118000 0.47909910
vt -9.08730500 0.47909910
vt -9.10055800 0.47545230
vt -9.08622800 0.47545230
vt -9.08540800 0.45090480
vt -9.10008400 0.45090480
vt -9.09970600 0.42702760
vt -9.08475200 0.42702760
vt -9.13851200 0.56830760
vt -9.13118700 0.58742520
vt -9.12651500 0.58742520
vt -9.13074400 0.56830760
vt -9.12013200 0.58742520
vt -9.13480500 0.54172520
vt -9.14554500 0.54172520
vt -9.12013200 0.56830760
vt -9.12013200 0.54172520
vt -9.13718400 0.51372180
vt -9.14966600 0.51372180
vt -9.15296100 0.47909910
vt -9.12013200 0.51372180
vt -9.13908600 0.47909910
vt -9.15403700 0.47545230
vt -9.12013200 0.47909910
vt -9.13970800 0.47545230
vt -9.12013200 0.47545230
vt -9.14018100 0.45090480
vt -9.15485700 0.45090480
vt -9.15551300 0.42702760
vt -9.14056000 0.42702760
vt -9.12013200 0.45090480
vt -9.12013200 0.42702760
vt -9.25217800 0.56406970
vt -9.24824300 0.58186090
vt -9.24230400 0.58186090
vt -9.24230400 0.56406970
vt -9.23636400 0.58186090
vt -9.23243000 0.56406970
vt -9.22864900 0.53933190
vt -9.24230400 0.53933190
vt -9.25595800 0.53933190
vt -9.22643600 0.51327150
vt -9.24230400 0.51327150
vt -9.25817200 0.51327150
vt -9.25994100 0.48105100
vt -9.24230400 0.48105100
vt -9.22466600 0.48105100
vt -9.26051900 0.47765720
vt -9.24230400 0.47765720
vt -9.22408800 0.47765720
vt -9.22364600 0.45481300
vt -9.24230400 0.45481290
vt -9.26096100 0.45481290
vt -9.22329400 0.43259260
vt -9.26131300 0.43259240
vt -9.24230400 0.43259240
vt -9.25202600 0.24933080
vt -9.24470200 0.23021330
vt -9.23766800 0.20363110
vt -9.23354600 0.17562790
vt -9.23025300 0.14100550
vt -9.22917700 0.13735860
vt -9.22835600 0.11281120
vt -9.22769900 0.08893410
vt -9.48586500 0.63651890
vt -9.48234300 0.62958040
vt -9.48749500 0.62958040
vt -9.47951900 0.63651890
vt -9.47802800 0.70706580
vt -9.48500400 0.70706580
vt -9.55729100 0.62957720
vt -9.56244400 0.62957720
vt -9.56081400 0.63651600
vt -9.55446800 0.63651600
vt -9.55297600 0.70706870
vt -9.55995200 0.70706870
vt -9.50406300 0.70706580
vt -9.50954700 0.63651890
vt -9.51103900 0.70706580
vt -9.50320100 0.63651890
vt -9.49453400 0.70706580
vt -9.50157100 0.62958040
vt -9.50672300 0.62958040
vt -9.49453400 0.62958040
vt -9.49453400 0.63651890
vt -9.57901300 0.70706870
vt -9.58449700 0.63651600
vt -9.58598900 0.70706870
vt -9.57815200 0.63651600
vt -9.56948300 0.70706870
vt -9.57652200 0.62957720
vt -9.58167500 0.62957720
vt -9.56948300 0.62957720
vt -9.56948300 0.63651600
vt -9.43418300 0.64055010
vt -9.44225100 0.57488540
vt -9.44305300 0.64055010
vt -9.43418300 0.57488540
vt -9.42531300 0.64055030
vt -9.42611400 0.57488540
vt -9.42763100 0.56842710
vt -9.43418300 0.56842710
vt -9.44073400 0.56842710
vt -9.62983100 0.95298370
vt -9.63789900 0.88732670
vt -9.63870000 0.95298370
vt -9.62983200 0.88732670
vt -9.62096300 0.95298370
vt -9.62176500 0.88732670
vt -9.62328200 0.88086930
vt -9.62983200 0.88086930
vt -9.63638200 0.88086930
vt -9.95279500 0.89869060
vt -9.95911200 0.89869060
vt -9.95985400 0.90145930
vt -9.95438400 0.90461760
vt -9.95438400 0.89276360
vt -9.96188100 0.90348600
vt -9.95985400 0.89592190
vt -9.95872200 0.90895650
vt -9.95872200 0.88842480
vt -9.96464900 0.90422780
vt -9.96188100 0.89389510
vt -9.96464900 0.91054460
vt -9.96464900 0.88683650
vt -9.96741900 0.90348600
vt -9.96464900 0.89315340
vt -9.97057600 0.90895650
vt -9.97057600 0.88842480
vt -9.96944500 0.90145930
vt -9.96741900 0.89389510
vt -9.97491600 0.90461760
vt -9.97491600 0.89276360
vt -9.97018700 0.89869060
vt -9.96944500 0.89592190
vt -9.97650300 0.89869060
vt -9.90821500 0.90471710
vt -9.91593600 0.90154770
vt -9.91416500 0.90815260
vt -9.90906400 0.90154770
vt -9.91416500 0.89494280
vt -9.90589400 0.90703740
vt -9.90933000 0.91298760
vt -9.90272500 0.90154770
vt -9.90821500 0.89837820
vt -9.90272500 0.90788660
vt -9.90589400 0.89605800
vt -9.90933000 0.89010770
vt -9.90272500 0.91475750
vt -9.90272500 0.88833790
vt -9.89955600 0.90703740
vt -9.89612000 0.91298760
vt -9.90272500 0.89520870
vt -9.89612000 0.89010770
vt -9.89723600 0.90471710
vt -9.89128600 0.90815260
vt -9.89955600 0.89605800
vt -9.89128600 0.89494280
vt -9.89638600 0.90154770
vt -9.88951600 0.90154770
vt -9.89723600 0.89837820
f 3/3/3 2/2/2 1/1/1
f 4/4/4 3/3/3 1/1/1
f 1/1/1 5/5/5 4/4/4
f 4/4/4 6/6/6 3/3/3
f 6/6/6 7/7/7 3/3/3
f 4/4/4 8/8/8 6/6/6
f 5/5/5 8/8/8 4/4/4
f 8/8/8 9/9/9 6/6/6
f 9/9/9 8/8/8 10/10/10
f 8/8/8 5/5/5 11/11/11
f 8/8/8 11/11/11 10/10/10
f 5/5/5 12/12/12 11/11/11
f 10/10/10 11/11/11 13/13/13
f 13/13/13 11/11/11 12/12/12
f 14/14/14 10/10/10 13/13/13
f 15/15/15 13/13/13 12/12/12
f 18/18/18 17/17/17 16/16/16
f 19/19/19 18/18/18 16/16/16
f 20/20/20 19/19/19 16/16/16
f 21/21/21 20/20/20 16/16/16
f 21/21/21 22/22/22 20/20/20
f 22/22/22 23/23/23 20/20/20
f 22/22/22 24/24/24 23/23/23
f 24/24/24 25/25/25 23/23/23
f 24/24/24 26/26/26 25/25/25
f 26/26/26 27/27/27 25/25/25
f 26/26/26 28/28/28 27/27/27
f 28/28/28 29/29/29 27/27/27
f 32/32/32 31/31/31 30/30/30
f 31/31/31 33/33/33 30/30/30
f 33/33/33 34/34/34 30/30/30
f 34/34/34 35/35/35 30/30/30
f 35/35/35 34/34/34 36/36/36
f 34/34/34 37/37/37 36/36/36
f 37/37/37 38/38/38 36/36/36
f 38/38/38 39/39/39 36/36/36
f 42/42/42 41/41/41 40/40/40
f 43/43/43 42/42/42 40/40/40
f 43/43/43 40/40/40 44/44/44
f 45/45/45 43/43/43 44/44/44
f 46/46/46 45/45/45 44/44/44
f 47/47/47 46/46/46 44/44/44
f 42/42/42 43/43/43 48/48/48
f 49/49/49 42/42/42 48/48/48
f 46/46/46 47/47/47 50/50/50
f 47/47/47 51/51/51 50/50/50
f 51/51/51 52/52/52 50/50/50
f 52/52/52 53/53/53 50/50/50
f 52/52/52 54/54/54 53/53/53
f 54/54/54 55/55/55 53/53/53
f 54/54/54 56/56/56 55/55/55
f 56/56/56 57/57/57 55/55/55
f 56/56/56 58/58/58 57/57/57
f 58/58/58 59/59/59 57/57/57
f 58/58/58 60/60/60 59/59/59
f 60/60/60 61/61/61 59/59/59
f 60/60/60 62/62/62 61/61/61
f 62/62/62 63/63/63 61/61/61
f 62/62/62 64/64/64 63/63/63
f 64/64/64 65/65/65 63/63/63
f 63/63/63 65/65/65 66/66/66
f 67/67/67 63/63/63 66/66/66
f 68/68/68 67/67/67 66/66/66
f 69/69/69 68/68/68 66/66/66
f 69/69/69 70/70/70 68/68/68
f 70/70/70 71/71/71 68/68/68
f 68/68/68 71/71/71 72/72/72
f 71/71/71 73/73/73 72/72/72
f 72/72/72 73/73/73 74/74/74
f 73/73/73 75/75/75 74/74/74
f 74/74/74 75/75/75 76/76/76
f 75/75/75 77/77/77 76/76/76
f 76/76/76 77/77/77 78/78/78
f 77/77/77 79/79/79 78/78/78
f 78/78/78 79/79/79 80/80/80
f 79/79/79 81/81/81 80/80/80
f 80/80/80 81/81/81 82/82/82
f 81/81/81 83/83/83 82/82/82
f 83/83/83 84/84/84 82/82/82
f 84/84/84 85/85/85 82/82/82
f 85/85/85 84/84/84 86/86/86
f 87/87/87 85/85/85 86/86/86
f 88/88/88 87/87/87 86/86/86
f 89/89/89 88/88/88 86/86/86
f 90/90/90 88/88/88 89/89/89
f 91/91/91 90/90/90 89/89/89
f 88/88/88 90/90/90 48/48/48
f 90/90/90 49/49/49 48/48/48
f 94/94/94 93/93/93 92/92/92
f 93/93/93 95/95/95 92/92/92
f 93/93/93 96/96/96 95/95/95
f 96/96/96 97/97/97 95/95/95
f 99/99/99 96/96/96 98/98/98
f 100/100/100 99/99/99 98/98/98
f 101/101/101 99/99/99 100/100/100
f 102/102/102 101/101/101 100/100/100
f 104/104/104 101/101/101 103/103/103
f 105/105/105 104/104/104 103/103/103
f 105/105/105 103/103/103 106/106/106
f 103/103/103 107/107/107 106/106/106
f 110/110/110 109/109/109 108/108/108
f 111/111/111 110/110/110 108/108/108
f 111/111/111 108/108/108 112/112/112
f 111/111/111 113/113/113 110/110/110
f 113/113/113 114/114/114 110/110/110
f 114/114/114 113/113/113 115/115/115
f 116/116/116 111/111/111 112/112/112
f 116/116/116 112/112/112 117/117/117
f 118/118/118 116/116/116 117/117/117
f 118/118/118 119/119/119 116/116/116
f 116/116/116 120/120/120 111/111/111
f 119/119/119 120/120/120 116/116/116
f 120/120/120 113/113/113 111/111/111
f 120/120/120 119/119/119 121/121/121
f 122/122/122 120/120/120 121/121/121
f 113/113/113 120/120/120 122/122/122
f 122/122/122 121/121/121 123/123/123
f 124/124/124 122/122/122 123/123/123
f 125/125/125 113/113/113 122/122/122
f 125/125/125 122/122/122 124/124/124
f 113/113/113 125/125/125 115/115/115
f 126/126/126 125/125/125 124/124/124
f 115/115/115 125/125/125 126/126/126
f 127/127/127 115/115/115 126/126/126
f 130/130/130 129/129/129 128/128/128
f 131/131/131 130/130/130 128/128/128
f 131/131/131 128/128/128 132/132/132
f 131/131/131 133/133/133 130/130/130
f 133/133/133 134/134/134 130/130/130
f 135/135/135 133/133/133 131/131/131
f 136/136/136 131/131/131 132/132/132
f 136/136/136 135/135/135 131/131/131
f 137/137/137 135/135/135 136/136/136
f 136/136/136 132/132/132 138/138/138
f 139/139/139 137/137/137 136/136/136
f 139/139/139 136/136/136 138/138/138
f 139/139/139 138/138/138 140/140/140
f 141/141/141 139/139/139 140/140/140
f 141/141/141 140/140/140 142/142/142
f 143/143/143 141/141/141 142/142/142
f 143/143/143 142/142/142 144/144/144
f 145/145/145 143/143/143 144/144/144
f 145/145/145 144/144/144 146/146/146
f 147/147/147 145/145/145 146/146/146
f 147/147/147 146/146/146 148/148/148
f 149/149/149 147/147/147 148/148/148
f 149/149/149 148/148/148 150/150/150
f 148/148/148 151/151/151 150/150/150
f 151/151/151 152/152/152 150/150/150
f 152/152/152 153/153/153 150/150/150
f 152/152/152 154/154/154 153/153/153
f 154/154/154 155/155/155 153/153/153
f 155/155/155 156/156/156 153/153/153
f 156/156/156 157/157/157 153/153/153
f 160/160/160 159/159/159 158/158/158
f 159/159/159 161/161/161 158/158/158
f 158/158/158 161/161/161 162/162/162
f 163/163/163 158/158/158 162/162/162
f 164/164/164 158/158/158 163/163/163
f 165/165/165 163/163/163 162/162/162
f 166/166/166 165/165/165 162/162/162
f 166/166/166 167/167/167 165/165/165
f 167/167/167 168/168/168 165/165/165
f 165/165/165 169/169/169 163/163/163
f 170/170/170 164/164/164 163/163/163
f 169/169/169 170/170/170 163/163/163
f 171/171/171 164/164/164 170/170/170
f 169/169/169 172/172/172 170/170/170
f 173/173/173 171/171/171 170/170/170
f 172/172/172 173/173/173 170/170/170
f 176/176/176 175/175/175 174/174/174
f 175/175/175 177/177/177 174/174/174
f 175/175/175 178/178/178 177/177/177
f 174/174/174 177/177/177 179/179/179
f 178/178/178 180/180/180 177/177/177
f 177/177/177 181/181/181 179/179/179
f 177/177/177 180/180/180 181/181/181
f 179/179/179 181/181/181 182/182/182
f 180/180/180 183/183/183 181/181/181
f 181/181/181 184/184/184 182/182/182
f 181/181/181 183/183/183 184/184/184
f 182/182/182 184/184/184 185/185/185
f 183/183/183 186/186/186 184/184/184
f 184/184/184 187/187/187 185/185/185
f 184/184/184 186/186/186 187/187/187
f 185/185/185 187/187/187 188/188/188
f 186/186/186 189/189/189 187/187/187
f 187/187/187 190/190/190 188/188/188
f 187/187/187 189/189/189 190/190/190
f 188/188/188 190/190/190 191/191/191
f 189/189/189 192/192/192 190/190/190
f 190/190/190 193/193/193 191/191/191
f 190/190/190 192/192/192 193/193/193
f 191/191/191 193/193/193 194/194/194
f 192/192/192 195/195/195 193/193/193
f 193/193/193 196/196/196 194/194/194
f 193/193/193 195/195/195 196/196/196
f 195/195/195 197/197/197 196/196/196
f 200/200/200 199/199/199 198/198/198
f 199/199/199 201/201/201 198/198/198
f 201/201/201 202/202/202 198/198/198
f 202/202/202 203/203/203 198/198/198
f 204/204/204 203/203/203 202/202/202
f 205/205/205 204/204/204 202/202/202
f 206/206/206 204/204/204 205/205/205
f 207/207/207 206/206/206 205/205/205
f 208/208/208 206/206/206 207/207/207
f 209/209/209 208/208/208 207/207/207
f 210/210/210 208/208/208 209/209/209
f 211/211/211 210/210/210 209/209/209
f 214/214/214 213/213/213 212/212/212
f 213/213/213 215/215/215 212/212/212
f 213/213/213 216/216/216 215/215/215
f 212/212/212 215/215/215 217/217/217
f 216/216/216 218/218/218 215/215/215
f 215/215/215 219/219/219 217/217/217
f 215/215/215 218/218/218 219/219/219
f 217/217/217 219/219/219 220/220/220
f 218/218/218 221/221/221 219/219/219
f 219/219/219 222/222/222 220/220/220
f 219/219/219 221/221/221 222/222/222
f 221/221/221 223/223/223 222/222/222
f 220/220/220 222/222/222 224/224/224
f 222/222/222 225/225/225 224/224/224
f 224/224/224 225/225/225 226/226/226
f 225/225/225 227/227/227 226/226/226
f 226/226/226 227/227/227 228/228/228
f 227/227/227 229/229/229 228/228/228
f 228/228/228 229/229/229 230/230/230
f 229/229/229 231/231/231 230/230/230
f 230/230/230 231/231/231 232/232/232
f 231/231/231 233/233/233 232/232/232
f 232/232/232 233/233/233 234/234/234
f 235/235/235 232/232/232 234/234/234
f 236/236/236 235/235/235 234/234/234
f 237/237/237 236/236/236 234/234/234
f 238/238/238 236/236/236 237/237/237
f 239/239/239 238/238/238 237/237/237
f 240/240/240 239/239/239 237/237/237
f 241/241/241 240/240/240 237/237/237
f 244/244/244 243/243/243 242/242/242
f 245/245/245 244/244/244 242/242/242
f 245/245/245 242/242/242 246/246/246
f 245/245/245 247/247/247 244/244/244
f 247/247/247 248/248/248 244/244/244
f 249/249/249 247/247/247 245/245/245
f 250/250/250 245/245/245 246/246/246
f 250/250/250 249/249/249 245/245/245
f 250/250/250 246/246/246 251/251/251
f 252/252/252 249/249/249 250/250/250
f 253/253/253 250/250/250 251/251/251
f 253/253/253 252/252/252 250/250/250
f 253/253/253 251/251/251 254/254/254
f 255/255/255 252/252/252 253/253/253
f 256/256/256 253/253/253 254/254/254
f 256/256/256 255/255/255 253/253/253
f 256/256/256 254/254/254 257/257/257
f 258/258/258 255/255/255 256/256/256
f 259/259/259 256/256/256 257/257/257
f 259/259/259 258/258/258 256/256/256
f 259/259/259 257/257/257 260/260/260
f 261/261/261 258/258/258 259/259/259
f 262/262/262 259/259/259 260/260/260
f 262/262/262 261/261/261 259/259/259
f 262/262/262 260/260/260 263/263/263
f 264/264/264 261/261/261 262/262/262
f 265/265/265 262/262/262 263/263/263
f 265/265/265 264/264/264 262/262/262
f 268/268/268 267/267/267 266/266/266
f 269/269/269 268/268/268 266/266/266
f 266/266/266 270/270/270 269/269/269
f 271/271/271 268/268/268 269/269/269
f 270/270/270 272/272/272 269/269/269
f 273/273/273 271/271/271 269/269/269
f 269/269/269 272/272/272 273/273/273
f 272/272/272 274/274/274 273/273/273
f 275/275/275 271/271/271 273/273/273
f 274/274/274 276/276/276 273/273/273
f 277/277/277 275/275/275 273/273/273
f 276/276/276 277/277/277 273/273/273
f 278/278/278 275/275/275 277/277/277
f 276/276/276 279/279/279 277/277/277
f 280/280/280 278/278/278 277/277/277
f 279/279/279 280/280/280 277/277/277
f 283/283/283 282/282/282 281/281/281
f 284/284/284 283/283/283 281/281/281
f 285/285/285 283/283/283 284/284/284
f 286/286/286 285/285/285 284/284/284
f 289/289/289 288/288/288 287/287/287
f 288/288/288 290/290/290 287/287/287
f 287/287/287 290/290/290 291/291/291
f 290/290/290 292/292/292 291/291/291
f 295/295/295 294/294/294 293/293/293
f 294/294/294 296/296/296 293/293/293
f 293/293/293 296/296/296 297/297/297
f 296/296/296 298/298/298 297/297/297
f 297/297/297 298/298/298 299/299/299
f 298/298/298 300/300/300 299/299/299
f 303/303/303 302/302/302 301/301/301
f 304/304/304 303/303/303 301/301/301
f 305/305/305 303/303/303 304/304/304
f 306/306/306 305/305/305 304/304/304
f 307/307/307 305/305/305 306/306/306
f 308/308/308 307/307/307 306/306/306
f 311/311/311 310/310/310 309/309/309
f 312/312/312 311/311/311 309/309/309
f 315/315/315 314/314/314 313/313/313
f 316/316/316 315/315/315 313/313/313
f 317/317/317 315/315/315 316/316/316
f 318/318/318 317/317/317 316/316/316
f 310/310/310 317/317/317 318/318/318
f 309/309/309 310/310/310 318/318/318
f 319/319/319 307/307/307 308/308/308
f 320/320/320 319/319/319 308/308/308
f 323/323/323 322/322/322 321/321/321
f 324/324/324 323/323/323 321/321/321
f 325/325/325 323/323/323 324/324/324
f 326/326/326 325/325/325 324/324/324
f 329/329/329 328/328/328 327/327/327
f 330/330/330 329/329/329 327/327/327
f 331/331/331 329/329/329 330/330/330
f 294/294/294 331/331/331 330/330/330
f 296/296/296 294/294/294 330/330/330
f 298/298/298 296/296/296 330/330/330
f 330/330/330 327/327/327 332/332/332
f 327/327/327 333/333/333 332/332/332
f 298/298/298 330/330/330 334/334/334
f 330/330/330 332/332/332 334/334/334
f 300/300/300 298/298/298 334/334/334
f 332/332/332 335/335/335 334/334/334
f 335/335/335 332/332/332 336/336/336
f 337/337/337 335/335/335 336/336/336
f 334/334/334 335/335/335 337/337/337
f 338/338/338 334/334/334 337/337/337
f 300/300/300 334/334/334 338/338/338
f 299/299/299 300/300/300 338/338/338
f 327/327/327 328/328/328 339/339/339
f 340/340/340 327/327/327 339/339/339
f 333/333/333 327/327/327 340/340/340
f 341/341/341 333/333/333 340/340/340
f 332/332/332 333/333/333 341/341/341
f 336/336/336 332/332/332 341/341/341
f 331/331/331 294/294/294 295/295/295
f 342/342/342 331/331/331 295/295/295
f 329/329/329 331/331/331 342/342/342
f 343/343/343 329/329/329 342/342/342
f 328/328/328 329/329/329 343/343/343
f 339/339/339 328/328/328 343/343/343
f 346/346/346 345/345/345 344/344/344
f 347/347/347 346/346/346 344/344/344
f 348/348/348 346/346/346 347/347/347
f 347/347/347 344/344/344 349/349/349
f 344/344/344 350/350/350 349/349/349
f 351/351/351 348/348/348 347/347/347
f 352/352/352 348/348/348 351/351/351
f 353/353/353 352/352/352 351/351/351
f 354/354/354 353/353/353 351/351/351
f 351/351/351 347/347/347 355/355/355
f 355/355/355 354/354/354 351/351/351
f 347/347/347 349/349/349 355/355/355
f 356/356/356 354/354/354 355/355/355
f 349/349/349 350/350/350 357/357/357
f 350/350/350 358/358/358 357/357/357
f 357/357/357 358/358/358 359/359/359
f 355/355/355 349/349/349 360/360/360
f 360/360/360 356/356/356 355/355/355
f 349/349/349 357/357/357 360/360/360
f 361/361/361 357/357/357 359/359/359
f 360/360/360 357/357/357 361/361/361
f 361/361/361 359/359/359 362/362/362
f 356/356/356 360/360/360 363/363/363
f 363/363/363 360/360/360 361/361/361
f 364/364/364 356/356/356 363/363/363
f 365/365/365 361/361/361 362/362/362
f 363/363/363 361/361/361 365/365/365
f 364/364/364 363/363/363 366/366/366
f 366/366/366 363/363/363 365/365/365
f 367/367/367 364/364/364 366/366/366
f 368/368/368 367/367/367 366/366/366
f 369/369/369 365/365/365 362/362/362
f 370/370/370 369/369/369 362/362/362
f 370/370/370 371/371/371 369/369/369
f 371/371/371 372/372/372 369/369/369
f 373/373/373 366/366/366 365/365/365
f 369/369/369 373/373/373 365/365/365
f 369/369/369 372/372/372 373/373/373
f 373/373/373 368/368/368 366/366/366
f 372/372/372 374/374/374 373/373/373
f 373/373/373 374/374/374 368/368/368
f 374/374/374 375/375/375 368/368/368
f 378/378/378 377/377/377 376/376/376
f 379/379/379 378/378/378 376/376/376
f 380/380/380 378/378/378 379/379/379
f 381/381/381 380/380/380 379/379/379
f 381/381/381 379/379/379 382/382/382
f 379/379/379 376/376/376 383/383/383
f 379/379/379 383/383/383 382/382/382
f 376/376/376 384/384/384 383/383/383
f 382/382/382 383/383/383 385/385/385
f 383/383/383 384/384/384 386/386/386
f 383/383/383 386/386/386 385/385/385
f 384/384/384 387/387/387 386/386/386
f 386/386/386 387/387/387 388/388/388
f 385/385/385 386/386/386 389/389/389
f 389/389/389 386/386/386 388/388/388
f 390/390/390 385/385/385 389/389/389
f 389/389/389 388/388/388 391/391/391
f 390/390/390 389/389/389 392/392/392
f 392/392/392 389/389/389 391/391/391
f 393/393/393 390/390/390 392/392/392
f 394/394/394 393/393/393 392/392/392
f 395/395/395 392/392/392 391/391/391
f 395/395/395 394/394/394 392/392/392
f 396/396/396 395/395/395 391/391/391
f 396/396/396 397/397/397 395/395/395
f 397/397/397 398/398/398 395/395/395
f 395/395/395 398/398/398 394/394/394
f 398/398/398 399/399/399 394/394/394
f 402/402/402 401/401/401 400/400/400
f 403/403/403 402/402/402 400/400/400
f 403/403/403 400/400/400 404/404/404
f 400/400/400 405/405/405 404/404/404
f 404/404/404 405/405/405 406/406/406
f 405/405/405 407/407/407 406/406/406
f 406/406/406 407/407/407 408/408/408
f 409/409/409 406/406/406 408/408/408
f 409/409/409 408/408/408 410/410/410
f 411/411/411 409/409/409 410/410/410
f 412/412/412 411/411/411 410/410/410
f 413/413/413 412/412/412 410/410/410
f 413/413/413 414/414/414 412/412/412
f 414/414/414 415/415/415 412/412/412
f 418/418/418 417/417/417 416/416/416
f 419/419/419 418/418/418 416/416/416
f 420/420/420 418/418/418 419/419/419
f 419/419/419 416/416/416 421/421/421
f 416/416/416 422/422/422 421/421/421
f 423/423/423 420/420/420 419/419/419
f 401/401/401 420/420/420 423/423/423
f 400/400/400 401/401/401 423/423/423
f 400/400/400 423/423/423 405/405/405
f 423/423/423 419/419/419 424/424/424
f 423/423/423 424/424/424 405/405/405
f 419/419/419 421/421/421 424/424/424
f 405/405/405 424/424/424 407/407/407
f 421/421/421 422/422/422 425/425/425
f 422/422/422 426/426/426 425/425/425
f 425/425/425 426/426/426 427/427/427
f 424/424/424 421/421/421 428/428/428
f 424/424/424 428/428/428 407/407/407
f 421/421/421 425/425/425 428/428/428
f 429/429/429 425/425/425 427/427/427
f 428/428/428 425/425/425 429/429/429
f 429/429/429 427/427/427 430/430/430
f 407/407/407 428/428/428 431/431/431
f 431/431/431 428/428/428 429/429/429
f 408/408/408 407/407/407 431/431/431
f 432/432/432 429/429/429 430/430/430
f 431/431/431 429/429/429 432/432/432
f 408/408/408 431/431/431 433/433/433
f 433/433/433 431/431/431 432/432/432
f 410/410/410 408/408/408 433/433/433
f 413/413/413 410/410/410 433/433/433
f 434/434/434 432/432/432 430/430/430
f 435/435/435 434/434/434 430/430/430
f 435/435/435 436/436/436 434/434/434
f 436/436/436 437/437/437 434/434/434
f 438/438/438 433/433/433 432/432/432
f 434/434/434 438/438/438 432/432/432
f 434/434/434 437/437/437 438/438/438
f 438/438/438 413/413/413 433/433/433
f 437/437/437 439/439/439 438/438/438
f 438/438/438 439/439/439 413/413/413
f 439/439/439 414/414/414 413/413/413
f 442/442/442 441/441/441 440/440/440
f 443/443/443 442/442/442 440/440/440
f 444/444/444 442/442/442 443/443/443
f 445/445/445 444/444/444 443/443/443
f 445/445/445 443/443/443 446/446/446
f 443/443/443 440/440/440 447/447/447
f 443/443/443 447/447/447 446/446/446
f 440/440/440 448/448/448 447/447/447
f 446/446/446 447/447/447 449/449/449
f 447/447/447 448/448/448 450/450/450
f 447/447/447 450/450/450 449/449/449
f 448/448/448 451/451/451 450/450/450
f 450/450/450 451/451/451 452/452/452
f 449/449/449 450/450/450 453/453/453
f 453/453/453 450/450/450 452/452/452
f 454/454/454 449/449/449 453/453/453
f 453/453/453 452/452/452 455/455/455
f 454/454/454 453/453/453 456/456/456
f 456/456/456 453/453/453 455/455/455
f 457/457/457 454/454/454 456/456/456
f 458/458/458 457/457/457 456/456/456
f 459/459/459 456/456/456 455/455/455
f 459/459/459 458/458/458 456/456/456
f 460/460/460 459/459/459 455/455/455
f 461/461/461 458/458/458 459/459/459
f 460/460/460 462/462/462 459/459/459
f 463/463/463 461/461/461 459/459/459
f 462/462/462 463/463/463 459/459/459
f 464/464/464 352/352/352 353/353/353
f 465/465/465 464/464/464 353/353/353
f 465/465/465 353/353/353 466/466/466
f 353/353/353 354/354/354 466/466/466
f 466/466/466 354/354/354 467/467/467
f 354/354/354 356/356/356 467/467/467
f 467/467/467 356/356/356 364/364/364
f 468/468/468 467/467/467 364/364/364
f 468/468/468 364/364/364 367/367/367
f 469/469/469 468/468/468 367/367/367
f 470/470/470 469/469/469 367/367/367
f 368/368/368 470/470/470 367/367/367
f 368/368/368 375/375/375 470/470/470
f 375/375/375 471/471/471 470/470/470
f 474/474/474 473/473/473 472/472/472
f 473/473/473 475/475/475 472/472/472
f 472/472/472 475/475/475 476/476/476
f 477/477/477 472/472/472 476/476/476
f 480/480/480 479/479/479 478/478/478
f 481/481/481 480/480/480 478/478/478
f 480/480/480 481/481/481 482/482/482
f 483/483/483 480/480/480 482/482/482
f 486/486/486 485/485/485 484/484/484
f 485/485/485 487/487/487 484/484/484
f 484/484/484 487/487/487 488/488/488
f 489/489/489 487/487/487 485/485/485
f 490/490/490 489/489/489 485/485/485
f 489/489/489 491/491/491 487/487/487
f 487/487/487 492/492/492 488/488/488
f 491/491/491 492/492/492 487/487/487
f 488/488/488 492/492/492 477/477/477
f 491/491/491 474/474/474 492/492/492
f 492/492/492 472/472/472 477/477/477
f 474/474/474 472/472/472 492/492/492
f 495/495/495 494/494/494 493/493/493
f 494/494/494 496/496/496 493/493/493
f 493/493/493 496/496/496 497/497/497
f 496/496/496 494/494/494 498/498/498
f 494/494/494 499/499/499 498/498/498
f 496/496/496 498/498/498 500/500/500
f 496/496/496 501/501/501 497/497/497
f 501/501/501 496/496/496 500/500/500
f 497/497/497 501/501/501 483/483/483
f 501/501/501 500/500/500 479/479/479
f 501/501/501 480/480/480 483/483/483
f 480/480/480 501/501/501 479/479/479
f 504/504/504 503/503/503 502/502/502
f 503/503/503 505/505/505 502/502/502
f 502/502/502 505/505/505 506/506/506
f 505/505/505 507/507/507 506/506/506
f 507/507/507 505/505/505 508/508/508
f 505/505/505 509/509/509 508/508/508
f 505/505/505 503/503/503 509/509/509
f 503/503/503 510/510/510 509/509/509
f 513/513/513 512/512/512 511/511/511
f 512/512/512 514/514/514 511/511/511
f 511/511/511 514/514/514 515/515/515
f 514/514/514 516/516/516 515/515/515
f 516/516/516 514/514/514 517/517/517
f 514/514/514 518/518/518 517/517/517
f 514/514/514 512/512/512 518/518/518
f 512/512/512 519/519/519 518/518/518
f 522/522/522 521/521/521 520/520/520
f 523/523/523 522/522/522 520/520/520
f 520/520/520 521/521/521 524/524/524
f 525/525/525 522/522/522 523/523/523
f 521/521/521 526/526/526 524/524/524
f 527/527/527 525/525/525 523/523/523
f 524/524/524 526/526/526 528/528/528
f 529/529/529 525/525/525 527/527/527
f 526/526/526 530/530/530 528/528/528
f 531/531/531 529/529/529 527/527/527
f 528/528/528 530/530/530 532/532/532
f 533/533/533 529/529/529 531/531/531
f 530/530/530 534/534/534 532/532/532
f 535/535/535 533/533/533 531/531/531
f 532/532/532 534/534/534 536/536/536
f 537/537/537 533/533/533 535/535/535
f 534/534/534 538/538/538 536/536/536
f 539/539/539 537/537/537 535/535/535
f 536/536/536 538/538/538 540/540/540
f 541/541/541 537/537/537 539/539/539
f 538/538/538 542/542/542 540/540/540
f 543/543/543 541/541/541 539/539/539
f 540/540/540 542/542/542 543/543/543
f 542/542/542 541/541/541 543/543/543
f 546/546/546 545/545/545 544/544/544
f 545/545/545 547/547/547 544/544/544
f 545/545/545 548/548/548 547/547/547
f 544/544/544 549/549/549 546/546/546
f 549/549/549 550/550/550 546/546/546
f 544/544/544 547/547/547 551/551/551
f 549/549/549 544/544/544 551/551/551
f 548/548/548 552/552/552 547/547/547
f 547/547/547 552/552/552 551/551/551
f 553/553/553 549/549/549 551/551/551
f 549/549/549 553/553/553 550/550/550
f 552/552/552 554/554/554 551/551/551
f 548/548/548 555/555/555 552/552/552
f 555/555/555 554/554/554 552/552/552
f 553/553/553 556/556/556 550/550/550
f 555/555/555 557/557/557 554/554/554
f 553/553/553 558/558/558 556/556/556
f 558/558/558 553/553/553 551/551/551
f 558/558/558 559/559/559 556/556/556
f 557/557/557 560/560/560 554/554/554
f 554/554/554 560/560/560 551/551/551
f 557/557/557 561/561/561 560/560/560
f 558/558/558 562/562/562 559/559/559
f 562/562/562 558/558/558 551/551/551
f 562/562/562 563/563/563 559/559/559
f 561/561/561 564/564/564 560/560/560
f 560/560/560 564/564/564 551/551/551
f 561/561/561 565/565/565 564/564/564
f 563/563/563 562/562/562 566/566/566
f 566/566/566 562/562/562 551/551/551
f 567/567/567 563/563/563 566/566/566
f 564/564/564 568/568/568 551/551/551
f 565/565/565 568/568/568 564/564/564
f 568/568/568 566/566/566 551/551/551
f 567/567/567 566/566/566 568/568/568
f 565/565/565 567/567/567 568/568/568

