# Blender 4.0.0
# www.blender.org
o decimated_mesh
v 0.004358 -0.001051 0.000241
v 0.004361 -0.000540 0.000563
v 0.004295 -0.000540 0.000643
v 0.004295 -0.000805 0.000640
v 0.004349 -0.000873 0.000240
v 0.004245 -0.000695 0.000240
v 0.004081 -0.000547 0.000241
v 0.004335 -0.000924 0.000602
v 0.004297 -0.001089 0.000442
v -0.004356 -0.000907 0.000604
v -0.004295 -0.001085 0.000455
v -0.004295 -0.000805 0.000640
v -0.004083 -0.000549 0.000241
v -0.004295 -0.000540 0.000643
v -0.004358 -0.001045 0.000241
v -0.004361 -0.000540 0.000563
v -0.004334 -0.000829 0.000240
vn -0.7713 -0.0070 0.6364
vn -0.9999 -0.0117 0.0082
vn 0.9943 0.0531 -0.0928
vn 0.5769 0.6353 -0.5134
vn -0.0007 -0.9827 -0.1854
vn -0.6213 0.5573 -0.5508
vn -0.0005 -0.3327 0.9430
vn 0.7711 -0.0071 0.6366
vn -0.0000 -0.0111 0.9999
vn 0.7548 0.4420 -0.4847
vn 0.0117 -0.9999 0.0096
vn -0.9786 0.1063 -0.1761
vn 0.9948 -0.0581 0.0835
vn 0.8943 -0.4010 0.1984
vn -0.6011 0.0813 0.7950
vn -0.8782 -0.4461 0.1723
vn -0.0011 -0.6431 0.7658
vn -0.0008 -0.9832 -0.1827
vn 0.0007 -0.6961 0.7179
vn -0.0000 0.0004 1.0000
vn 0.0060 0.0033 1.0000
vn -0.0000 -0.0000 1.0000
vn -0.0008 0.0004 1.0000
vn 0.0041 0.0027 1.0000
vn -0.0000 -0.3023 0.9532
vn 0.7183 0.0231 0.6954
vn -0.0000 -0.0109 0.9999
vn 0.0002 -0.9998 0.0205
vn -0.0151 -0.9998 0.0124
vn -0.0000 -0.9999 0.0159
vn -0.0000 -0.9998 0.0198
vn -0.0000 -1.0000 -0.0000
vn 0.7711 0.0135 0.6366
vn -0.0007 -0.9832 -0.1827
vn -0.0008 -0.9827 -0.1854
vn -0.0000 0.0030 1.0000
vn -0.0000 0.0003 1.0000
vn -0.0000 -0.0002 1.0000
vn -0.0000 -0.0003 1.0000
vn -0.0000 -0.0018 1.0000
vn 0.0002 -0.9997 0.0256
vn -0.7699 0.0613 0.6353
vn 0.6699 -0.0082 0.7424
vn -0.4940 -0.0095 0.8694
s 0
f 16//1 12//1 14//1
f 16//2 15//2 10//2
f 2//3 1//3 5//3
f 2//4 6//4 7//4
f 9//5 11//5 15//5
f 13//6 17//6 16//6
f 8//7 12//7 10//7
f 4//8 2//8 3//8
f 14//9 4//9 3//9
f 5//10 6//10 2//10
f 7//11 2//11 3//11
f 16//12 17//12 15//12
f 1//13 2//13 8//13
f 8//14 9//14 1//14
f 16//15 10//15 12//15
f 11//16 10//16 15//16
f 11//17 8//17 10//17
f 1//18 9//18 15//18
f 9//19 8//19 11//19
f 13//20 1//20 7//20
f 6//21 1//21 5//21
f 1//22 13//22 15//22
f 13//23 17//23 15//23
f 7//24 1//24 6//24
f 8//25 4//25 12//25
f 4//26 8//26 2//26
f 14//27 12//27 4//27
f 7//28 14//28 13//28
f 13//29 14//29 16//29
f 14//30 7//30 3//30
f 7//31 2//31 16//31
f 16//32 3//32 14//32
f 16//32 2//32 3//32
f 3//33 8//33 2//33
f 9//34 11//34 1//34
f 11//35 15//35 1//35
f 15//36 1//36 5//36
f 15//37 5//37 17//37
f 17//38 5//38 6//38
f 17//39 6//39 13//39
f 13//40 6//40 7//40
f 13//41 7//41 16//41
f 10//42 14//42 16//42
f 4//43 8//43 3//43
f 14//27 12//27 3//27
f 12//9 4//9 3//9
f 12//44 14//44 10//44
