# Blender 4.0.0
# www.blender.org
o decimated_mesh
v 0.004361 0.001185 -0.000174
v 0.004360 -0.000919 0.000241
v 0.004361 0.001036 -0.000218
v 0.004287 0.001185 -0.000260
v 0.004246 0.001185 -0.000092
v 0.004351 -0.000673 0.000048
v 0.004341 0.000791 -0.000198
v 0.004091 0.001185 -0.000047
v 0.004295 -0.001048 0.000220
v 0.004160 -0.000589 0.000240
v -0.004295 -0.001048 0.000220
v -0.004341 0.000791 -0.000198
v -0.004099 0.001185 -0.000050
v -0.004352 -0.000674 0.000051
v -0.004362 0.001050 -0.000220
v -0.004150 -0.000569 0.000240
v -0.004361 0.001185 -0.000224
v -0.004247 0.001185 -0.000093
v -0.004362 -0.000944 0.000241
vn -0.0005 1.0000 -0.0006
vn 0.5733 0.1583 0.8039
vn 0.2738 0.1644 0.9476
vn -0.9973 -0.0152 -0.0722
vn -0.2842 0.1637 0.9447
vn -0.0002 -0.4171 -0.9089
vn -0.7455 -0.3668 -0.5565
vn 0.7424 0.1928 -0.6416
vn -0.0001 1.0000 0.0002
vn -0.0001 1.0000 -0.0005
vn -0.0000 1.0000 -0.0000
vn -0.0000 1.0000 -0.0004
vn 0.2701 0.1648 0.9486
vn -0.9947 0.0106 0.1020
vn 0.8158 -0.3369 -0.4702
vn 0.6840 -0.1165 -0.7201
vn -0.2774 0.1644 0.9466
vn -0.0003 0.1630 0.9866
vn 0.0004 0.1601 0.9871
vn -0.0000 0.0420 -0.9991
vn 0.1429 0.0853 -0.9861
vn 0.0001 0.0440 -0.9990
vn -0.1674 0.0921 -0.9816
vn -0.0003 -0.1673 -0.9859
vn -0.0041 -0.0675 -0.9977
vn 0.0004 -0.1635 -0.9866
vn -0.0782 -0.1656 -0.9831
vn -0.6916 -0.1157 -0.7129
vn -0.0000 -0.4129 -0.9108
vn 0.3152 -0.1050 -0.9432
vn 0.5106 -0.0325 -0.8592
vn -0.7493 0.1419 0.6468
vn 0.9977 -0.0134 -0.0666
vn 0.9998 -0.0031 0.0198
vn -0.0000 1.0000 -0.0002
vn -0.0000 1.0000 0.0001
vn -0.0000 1.0000 -0.0011
vn 0.2695 0.1644 0.9488
vn 0.2738 0.1648 0.9476
vn 1.0000 0.0010 0.0062
vn -0.0000 -0.1555 -0.9878
vn -0.0033 -0.0851 -0.9964
vn -0.0041 -0.0335 -0.9994
vn -0.9993 0.0084 0.0357
vn -0.0000 0.0028 1.0000
vn 0.0001 0.0013 1.0000
vn 0.9973 -0.0173 -0.0716
vn 0.0005 -0.1580 0.9874
vn -0.0000 -0.1656 -0.9862
vn -0.9970 -0.0172 -0.0751
vn -0.0000 -0.1995 0.9799
vn -0.0000 -0.4171 -0.9089
vn -0.0002 -0.4130 -0.9108
s 0
f 5//1 1//1 4//1
f 1//2 5//2 2//2
f 10//3 5//3 8//3
f 14//4 19//4 17//4
f 16//5 18//5 19//5
f 9//6 14//6 6//6
f 11//7 19//7 14//7
f 3//8 4//8 1//8
f 18//9 13//9 17//9
f 8//10 5//10 4//10
f 4//11 17//11 13//11
f 13//12 8//12 4//12
f 10//13 2//13 5//13
f 15//14 14//14 17//14
f 9//15 6//15 2//15
f 6//16 7//16 3//16
f 16//17 13//17 18//17
f 13//18 16//18 8//18
f 16//19 10//19 8//19
f 11//20 16//20 9//20
f 2//21 9//21 10//21
f 10//22 9//22 16//22
f 16//23 11//23 19//23
f 14//24 12//24 6//24
f 12//25 17//25 4//25
f 6//26 12//26 4//26
f 4//27 7//27 6//27
f 15//28 12//28 14//28
f 9//29 11//29 14//29
f 3//30 7//30 4//30
f 12//31 15//31 17//31
f 19//32 18//32 17//32
f 2//33 6//33 1//33
f 6//34 3//34 1//34
f 8//35 5//35 13//35
f 5//36 1//36 13//36
f 1//37 4//37 13//37
f 10//38 2//38 8//38
f 2//39 5//39 8//39
f 2//40 3//40 1//40
f 7//41 12//41 4//41
f 12//42 15//42 4//42
f 15//43 17//43 4//43
f 15//44 19//44 17//44
f 19//45 10//45 16//45
f 19//46 2//46 10//46
f 6//47 3//47 2//47
f 19//48 9//48 2//48
f 6//49 12//49 7//49
f 14//50 19//50 15//50
f 11//51 9//51 19//51
f 9//52 11//52 6//52
f 11//53 14//53 6//53
