# Blender 4.0.0
# www.blender.org
o decimated_mesh
v 0.004353 0.002577 0.000311
v 0.004351 0.003517 0.000129
v 0.004339 0.001838 0.000412
v 0.004381 0.003013 0.000107
v 0.004335 0.003424 0.000069
v -0.004296 0.003523 0.000121
v -0.004350 0.002065 0.000384
v 0.004296 0.001186 0.000486
v 0.004363 0.001459 0.000435
v 0.004356 0.001186 0.000393
v 0.004296 0.003116 -0.000023
v -0.004337 0.003419 0.000068
v -0.004381 0.003013 0.000107
v -0.004296 0.001186 0.000486
v 0.004213 0.002784 -0.000023
v -0.004362 0.003070 -0.000026
v -0.004362 0.001460 0.000435
v 0.004135 0.001186 0.000305
v -0.004355 0.001186 0.000392
v -0.004224 0.002801 -0.000023
v -0.004119 0.001186 0.000302
vn -0.0022 0.1770 0.9842
vn -0.0000 0.2858 -0.9583
vn -0.9869 -0.0382 -0.1567
vn 0.9869 -0.0850 -0.1371
vn -0.9837 0.1657 -0.0698
vn -0.0002 0.4603 -0.8878
vn -0.6020 -0.1673 0.7808
vn -0.9990 -0.0204 -0.0410
vn 0.6779 0.0863 0.7301
vn -0.3510 -0.2065 -0.9133
vn 0.8350 -0.1033 0.5405
vn -0.3600 0.0860 0.9290
vn 0.6026 -0.1503 -0.7837
vn -0.0004 -0.1970 -0.9804
vn -0.0003 0.1129 0.9936
vn -0.0000 0.1158 0.9933
vn 0.0003 0.1353 0.9908
vn -0.0007 0.1900 0.9818
vn -0.0010 0.2600 -0.9656
vn -0.8419 0.1257 0.5248
vn -0.9683 0.0406 0.2466
vn 0.7940 -0.1045 -0.5989
vn 0.0011 0.5469 -0.8372
vn -0.0000 -1.0000 -0.0000
vn -0.0002 -1.0000 -0.0002
vn -0.0000 1.0000 -0.0000
vn -0.0001 1.0000 0.0001
vn 0.3837 0.0792 0.9201
vn -0.0000 -0.0124 -0.9999
vn 0.0004 -0.0002 -1.0000
vn -0.8402 -0.1046 0.5322
vn 0.9990 -0.0199 -0.0401
vn 0.9723 0.0465 0.2291
vn 0.9806 0.0296 0.1939
vn -0.3748 -0.2024 -0.9048
vn 0.3637 -0.2043 -0.9088
vn 0.8611 0.0716 -0.5033
vn 0.0004 -0.2011 -0.9796
vn -0.8983 0.1381 0.4171
vn -0.9903 0.0972 -0.0997
vn -0.0002 0.1157 0.9933
vn 0.9310 0.0694 -0.3584
vn 0.8536 0.0458 -0.5189
vn -0.0000 0.1129 0.9936
vn -0.0000 1.0000 0.0002
vn -0.0000 1.0000 -0.0002
s 0
f 1//1 6//1 7//1
f 12//2 5//2 11//2
f 16//3 19//3 13//3
f 2//4 11//4 5//4
f 16//5 13//5 6//5
f 6//6 5//6 12//6
f 12//7 16//7 6//7
f 17//8 13//8 19//8
f 3//9 9//9 1//9
f 19//10 20//10 21//10
f 9//11 8//11 10//11
f 14//12 7//12 17//12
f 10//13 15//13 11//13
f 15//14 21//14 20//14
f 3//15 7//15 8//15
f 7//16 14//16 8//16
f 3//17 1//17 7//17
f 2//18 6//18 1//18
f 11//19 16//19 12//19
f 6//20 13//20 7//20
f 13//21 17//21 7//21
f 4//22 10//22 11//22
f 6//23 2//23 5//23
f 8//24 14//24 21//24
f 19//25 21//25 14//25
f 21//26 8//26 18//26
f 8//27 10//27 18//27
f 8//28 9//28 3//28
f 15//29 20//29 16//29
f 16//30 11//30 15//30
f 17//31 19//31 14//31
f 4//32 9//32 10//32
f 2//33 1//33 4//33
f 1//34 9//34 4//34
f 19//35 16//35 20//35
f 10//36 18//36 15//36
f 11//37 2//37 4//37
f 15//38 18//38 21//38
f 12//39 13//39 6//39
f 16//40 13//40 12//40
f 14//41 3//41 7//41
f 4//42 5//42 2//42
f 4//43 11//43 5//43
f 8//44 3//44 14//44
f 8//45 10//45 21//45
f 21//46 10//46 18//46
