# Blender 4.0.0
# www.blender.org
o decimated_mesh
v -0.142034 -0.009458 -0.019228
v -0.142035 0.001037 -0.019150
v 0.172200 -0.009482 -0.018250
v 0.172199 -0.011309 0.003073
v -0.142035 -0.011439 0.002791
v 0.172199 -0.009344 0.009041
v -0.142035 -0.009312 0.008849
v -0.142035 0.017056 -0.013459
v 0.172200 0.017170 -0.012763
v -0.142034 0.016583 0.012238
v 0.172199 0.015923 0.013006
v -0.142035 0.012366 0.013595
vn 0.0031 0.0075 -1.0000
vn -0.0006 -0.2139 0.9769
vn -1.0000 -0.0000 -0.0000
vn 0.0005 -0.9963 -0.0854
vn 0.0020 0.3348 -0.9423
vn 0.0020 0.9988 0.0483
vn -0.0003 -0.9436 0.3312
vn 0.0036 -0.1550 0.9879
vn -1.0000 -0.0001 -0.0000
vn -1.0000 0.0001 -0.0000
vn 1.0000 -0.0000 -0.0000
vn 0.0002 -0.9960 -0.0896
vn -0.0004 0.9998 0.0184
vn 0.0096 0.2016 -0.9794
vn -0.0017 0.3064 0.9519
vn 0.0001 -0.9498 0.3128
vn 1.0000 -0.0001 -0.0000
s 0
f 1//1 2//1 3//1
f 12//2 7//2 6//2
f 8//3 5//3 7//3
f 5//4 3//4 4//4
f 8//5 9//5 2//5
f 9//6 10//6 11//6
f 5//7 6//7 7//7
f 6//8 11//8 12//8
f 2//9 1//9 5//9
f 7//3 12//3 8//3
f 5//3 8//3 2//3
f 10//10 8//10 12//10
f 11//11 6//11 9//11
f 3//11 9//11 4//11
f 4//11 9//11 6//11
f 5//12 1//12 3//12
f 9//13 8//13 10//13
f 2//14 9//14 3//14
f 11//15 10//15 12//15
f 5//16 4//16 6//16
f 7//3 2//3 5//3
f 7//3 12//3 2//3
f 12//10 10//10 2//10
f 10//3 8//3 2//3
f 9//11 11//11 3//11
f 11//11 6//11 3//11
f 6//17 4//17 3//17
