mtllib material.mtl
usemtl material_0
v 0.01825638 0.06785578 -0.09178162
v 0.00000000 0.08245952 -0.09696083
v 0.00000000 0.06785577 -0.09357964
v 0.01891617 0.08245952 -0.09509758
v 0.03581116 0.06785580 -0.08645645
v 0.00000000 0.09411721 -0.09775596
v 0.03710510 0.08245952 -0.08957992
v 0.05199020 0.06785579 -0.07780869
v 0.01907104 0.09411723 -0.09587768
v 0.05386856 0.08245952 -0.08061981
v 0.06617127 0.06785585 -0.06617080
v 0.01884949 0.09525912 -0.09476280
v 0.00000000 0.09525911 -0.09661934
v 0.03740951 0.09411723 -0.09031478
v 0.06856170 0.08245952 -0.06856155
v 0.07780869 0.06785582 -0.05199013
v 0.03697433 0.09525916 -0.08926453
v 0.01820724 0.09540714 -0.09153465
v 0.00000000 0.09540717 -0.09332779
v 0.05431046 0.09411723 -0.08128120
v 0.08061981 0.08245952 -0.05386848
v 0.08645630 0.06785580 -0.03581131
v 0.05367889 0.09525916 -0.08033600
v 0.03571487 0.09540720 -0.08622368
v 0.01795746 0.09440434 -0.09027863
v 0.00000000 0.09440430 -0.09204719
v 0.06912384 0.09411725 -0.06912399
v 0.08957992 0.08245952 -0.03710533
v 0.09178101 0.06785576 -0.01825653
v 0.06831970 0.09525914 -0.06832008
v 0.05184967 0.09540720 -0.07759933
v 0.03522491 0.09440432 -0.08504051
v 0.08128113 0.09411721 -0.05431038
v 0.09509765 0.08245952 -0.01891609
v 0.09357956 0.06785580 -0.00000015
v 0.08033584 0.09525911 -0.05367889
v 0.06599259 0.09540719 -0.06599281
v 0.05113815 0.09440436 -0.07653442
v 0.09031494 0.09411720 -0.03740967
v 0.09696075 0.08245952 -0.00000015
v 0.09178177 0.06785578 0.01825630
v 0.08926468 0.09525911 -0.03697464
v 0.07759872 0.09540721 -0.05185020
v 0.06508698 0.09440437 -0.06508720
v 0.09587753 0.09411723 -0.01907135
v 0.09509781 0.08245952 0.01891586
v 0.08645645 0.06785578 0.03581116
v 0.09476272 0.09525913 -0.01884956
v 0.08622360 0.09540719 -0.03571502
v 0.07653381 0.09440433 -0.05113861
v 0.09775604 0.09411720 -0.00000015
v 0.08958007 0.08245952 0.03710510
v 0.07780869 0.06785580 0.05198990
v 0.09661957 0.09525913 -0.00000015
v 0.09153442 0.09540723 -0.01820740
v 0.08504058 0.09440438 -0.03522491
v 0.09587753 0.09411722 0.01907120
v 0.08061981 0.08245952 0.05386825
v 0.06617127 0.06785586 0.06617066
v 0.09476272 0.09525914 0.01884933
v 0.09332749 0.09540719 -0.00000015
v 0.09027847 0.09440443 -0.01795753
v 0.09031494 0.09411720 0.03740944
v 0.06856170 0.08245952 0.06856140
v 0.05199020 0.06785581 0.07780845
v 0.08926468 0.09525910 0.03697449
v 0.09153442 0.09540717 0.01820724
v 0.09204696 0.09440443 -0.00000015
v 0.08128113 0.09411720 0.05431015
v 0.05386856 0.08245952 0.08061966
v 0.03581116 0.06785577 0.08645622
v 0.08033584 0.09525910 0.05367867
v 0.08622360 0.09540718 0.03571487
v 0.09027847 0.09440433 0.01795731
v 0.06912384 0.09411724 0.06912376
v 0.03710525 0.08245952 0.08958000
v 0.01825638 0.06785578 0.09178139
v 0.06831970 0.09525917 0.06832008
v 0.07759872 0.09540718 0.05184998
v 0.08504058 0.09440435 0.03522476
v 0.05431046 0.09411722 0.08128098
v 0.01891617 0.08245952 0.09509742
v 0.00000000 0.06785576 0.09357940
v 0.05367889 0.09525915 0.08033584
v 0.06599259 0.09540717 0.06599266
v 0.07653381 0.09440433 0.05113854
v 0.03740951 0.09411723 0.09031456
v 0.00000000 0.08245952 0.09696052
v -0.01825638 0.06785578 0.09178139
v 0.03697433 0.09525911 0.08926445
v 0.05184967 0.09540716 0.07759918
v 0.06508698 0.09440438 0.06508705
v 0.01907104 0.09411721 0.09587745
v -0.01891601 0.08245952 0.09509742
v -0.03581131 0.06785578 0.08645622
v 0.01884933 0.09525911 0.09476265
v 0.03571487 0.09540715 0.08622345
v 0.05113815 0.09440433 0.07653435
v 0.00000000 0.09411721 0.09775581
v -0.03710510 0.08245952 0.08957985
v -0.05199005 0.06785577 0.07780831
v 0.00000000 0.09525911 0.09661918
v 0.01820709 0.09540719 0.09153435
v 0.03522491 0.09440432 0.08504036
v -0.01907120 0.09411720 0.09587738
v -0.05386871 0.08245952 0.08061958
v -0.06617066 0.06785572 0.06617066
v -0.01884979 0.09525909 0.09476257
v 0.00000000 0.09540717 0.09332763
v 0.01795746 0.09440432 0.09027839
v -0.03740936 0.09411722 0.09031456
v -0.06856186 0.08245952 0.06856132
v -0.07780853 0.06785575 0.05198982
v -0.03697449 0.09525912 0.08926437
v -0.01820740 0.09540716 0.09153442
v 0.00000000 0.09440430 0.09204712
v -0.05431046 0.09411723 0.08128098
v -0.08061996 0.08245952 0.05386825
v -0.08645645 0.06785578 0.03581116
v -0.05367874 0.09525912 0.08033584
v -0.03571548 0.09540711 0.08622345
v -0.01795761 0.09440429 0.09027847
v -0.06912384 0.09411722 0.06912369
v -0.08958023 0.08245952 0.03710502
v -0.09178131 0.06785576 0.01825630
v -0.06832046 0.09525911 0.06831993
v -0.05185013 0.09540713 0.07759903
v -0.03522522 0.09440430 0.08504028
v -0.08128098 0.09411720 0.05431015
v -0.09509765 0.08245952 0.01891586
v -0.09357926 0.06785573 -0.00000015
v -0.08033600 0.09525911 0.05367867
v -0.06599274 0.09540714 0.06599250
v -0.05113892 0.09440432 0.07653420
v -0.09031509 0.09411721 0.03740944
v -0.09696060 0.08245952 -0.00000015
v -0.09178131 0.06785576 -0.01825661
v -0.08926453 0.09525915 0.03697449
v -0.07759903 0.09540713 0.05184998
v -0.06508774 0.09440427 0.06508705
v -0.09587738 0.09411721 0.01907112
v -0.09509765 0.08245952 -0.01891617
v -0.08645645 0.06785580 -0.03581146
v -0.09476257 0.09525915 0.01884933
v -0.08622375 0.09540711 0.03571480
v -0.07653427 0.09440424 0.05113846
v -0.09775589 0.09411722 -0.00000015
v -0.08958023 0.08245952 -0.03710533
v -0.07780853 0.06785574 -0.05199028
v -0.09661926 0.09525909 -0.00000015
v -0.09153442 0.09540715 0.01820724
v -0.08504089 0.09440429 0.03522476
v -0.09587738 0.09411721 -0.01907143
v -0.08061996 0.08245952 -0.05386856
v -0.06617019 0.06785578 -0.06617088
v -0.09476257 0.09525911 -0.01884956
v -0.09332749 0.09540713 -0.00000015
v -0.09027816 0.09440424 0.01795731
v -0.09031449 0.09411723 -0.03740975
v -0.06856125 0.08245952 -0.06856163
v -0.05199005 0.06785583 -0.07780876
v -0.08926437 0.09525909 -0.03697472
v -0.09153442 0.09540711 -0.01820755
v -0.09204696 0.09440427 -0.00000015
v -0.08128098 0.09411720 -0.05431046
v -0.05386795 0.08245952 -0.08061989
v -0.03581131 0.06785579 -0.08645645
v -0.08033615 0.09525911 -0.05367897
v -0.08622330 0.09540708 -0.03571510
v -0.09027832 0.09440424 -0.01795761
v -0.06912384 0.09411720 -0.06912407
v -0.03710510 0.08245952 -0.08958000
v -0.01825607 0.06785578 -0.09178162
v -0.06832046 0.09525912 -0.06832024
v -0.07759888 0.09540711 -0.05185036
v -0.08504013 0.09440421 -0.03522514
v -0.05431046 0.09411722 -0.08128128
v -0.01891601 0.08245952 -0.09509765
v 0.00000000 0.06785577 -0.09357964
v 0.00000000 0.08245952 -0.09696083
v -0.03740936 0.09411722 -0.09031487
v -0.01907120 0.09411722 -0.09587768
v 0.00000000 0.09411721 -0.09775596
v 0.00000000 0.09525911 -0.09661934
v -0.01884979 0.09525914 -0.09476280
v 0.00000000 0.09540717 -0.09332779
v -0.05367874 0.09525913 -0.08033607
v -0.03697449 0.09525914 -0.08926453
v -0.01820740 0.09540715 -0.09153465
v 0.00000000 0.09440430 -0.09204719
v -0.03571533 0.09540718 -0.08622368
v -0.01795761 0.09440433 -0.09027863
v 0.00000000 0.08341300 -0.09122185
v -0.05185013 0.09540720 -0.07759933
v -0.01779617 0.08341300 -0.08946899
v 0.00000000 0.07053842 -0.08823539
v -0.03522522 0.09440435 -0.08504058
v -0.06599274 0.09540722 -0.06599281
v -0.05113892 0.09440436 -0.07653442
v -0.03490906 0.08341300 -0.08427803
v -0.01721344 0.07053843 -0.08654007
v -0.06508743 0.09440435 -0.06508728
v -0.05067962 0.08341303 -0.07584815
v -0.07653397 0.09440429 -0.05113876
v -0.06450348 0.08341303 -0.06450363
v -0.03376617 0.07053842 -0.08151901
v -0.01583740 0.05699671 -0.07962089
v 0.00000000 0.05699668 -0.08118080
v 0.00000000 0.04528617 -0.07171005
v -0.07584824 0.08341297 -0.05068024
v -0.04902084 0.07053847 -0.07336525
v -0.03106628 0.05699668 -0.07500129
v -0.01398987 0.04528616 -0.07033218
v 0.00000000 0.03138277 -0.06019424
v -0.04510147 0.05699671 -0.06749947
v -0.06239136 0.07053843 -0.06239204
v -0.08427780 0.08341294 -0.03490921
v -0.02744247 0.04528614 -0.06625145
v -0.01174332 0.03138276 -0.05903770
v -0.05740341 0.05699664 -0.05740364
v -0.07336502 0.07053839 -0.04902107
v -0.08946914 0.08341298 -0.01779663
v -0.03983978 0.04528611 -0.05962478
v -0.06749924 0.05699669 -0.04510170
v -0.08151901 0.07053845 -0.03376648
v -0.09122162 0.08341300 -0.00000015
v -0.02303558 0.03138275 -0.05561218
v -0.05070648 0.04528610 -0.05070679
v -0.07500137 0.05699669 -0.03106674
v -0.08653992 0.07053843 -0.01721405
v -0.08946914 0.08341299 0.01779632
v -0.03344192 0.03138272 -0.05004967
v -0.05962494 0.04528613 -0.03984009
v -0.07962112 0.05699664 -0.01583778
v -0.08823548 0.07053844 -0.00000015
v -0.08427780 0.08341296 0.03490891
v -0.04256409 0.03138272 -0.04256386
v -0.06625168 0.04528625 -0.02744240
v -0.08118057 0.05699662 -0.00000015
v -0.08653992 0.07053843 0.01721375
v -0.07584808 0.08341297 0.05068001
v -0.05004974 0.03138274 -0.03344223
v -0.07033218 0.04528625 -0.01399002
v -0.07962112 0.05699665 0.01583755
v -0.08151901 0.07053847 0.03376595
v -0.06450394 0.08341299 0.06450333
v -0.05561264 0.03138284 -0.02303551
v -0.07171021 0.04528626 -0.00000015
v -0.07500137 0.05699668 0.03106644
v -0.07336502 0.07053842 0.04902077
v -0.05068039 0.08341300 0.07584793
v -0.05903763 0.03138286 -0.01174347
v -0.07033218 0.04528628 0.01398979
v -0.06749924 0.05699671 0.04510139
v -0.06239197 0.07053842 0.06239174
v -0.03490906 0.08341302 0.08427780
v -0.06019440 0.03138285 -0.00000015
v -0.06625168 0.04528622 0.02744209
v -0.05740341 0.05699669 0.05740341
v -0.04902099 0.07053847 0.07336494
v -0.01779617 0.08341300 0.08946876
v -0.05903763 0.03138287 0.01174316
v -0.05962494 0.04528618 0.03983978
v -0.04510132 0.05699674 0.06749916
v -0.03376617 0.07053845 0.08151878
v 0.00000000 0.08341300 0.09122169
v -0.05561264 0.03138280 0.02303520
v -0.05070648 0.04528613 0.05070648
v -0.03106644 0.05699669 0.07500114
v -0.01721390 0.07053844 0.08653984
v 0.01779617 0.08341300 0.08946876
v -0.05004974 0.03138279 0.03344192
v -0.03983978 0.04528613 0.05962448
v -0.01583755 0.05699668 0.07962082
v 0.00000000 0.07053842 0.08823524
v 0.03490906 0.08341300 0.08427780
v -0.04256409 0.03138274 0.04256355
v -0.02744247 0.04528612 0.06625129
v 0.00000000 0.05699671 0.08118065
v 0.01721405 0.07053843 0.08653992
v 0.05067993 0.08341299 0.07584793
v -0.03344192 0.03138273 0.05004959
v -0.01399002 0.04528616 0.07033195
v 0.01583740 0.05699671 0.07962089
v 0.03376587 0.07053842 0.08151878
v 0.06450317 0.08341297 0.06450333
v -0.02303558 0.03138277 0.05561211
v 0.00000000 0.04528615 0.07170990
v 0.03106644 0.05699668 0.07500114
v 0.04902115 0.07053844 0.07336502
v 0.07584777 0.08341298 0.05068001
v -0.01174332 0.03138276 0.05903755
v 0.01398987 0.04528613 0.07033195
v 0.04510162 0.05699670 0.06749924
v 0.06239227 0.07053843 0.06239181
v 0.08427780 0.08341299 0.03490898
v 0.00000000 0.03138278 0.06019409
v 0.02744247 0.04528613 0.06625122
v 0.05740372 0.05699674 0.05740341
v 0.07336487 0.07053839 0.04902084
v 0.08946914 0.08341298 0.01779632
v 0.01174316 0.03138276 0.05903755
v 0.03983993 0.04528615 0.05962463
v 0.06749939 0.05699674 0.04510162
v 0.08151901 0.07053841 0.03376617
v 0.09122147 0.08341305 -0.00000015
v 0.02303528 0.03138271 0.05561203
v 0.05070679 0.04528624 0.05070656
v 0.07500137 0.05699676 0.03106651
v 0.08654007 0.07053842 0.01721375
v 0.08946884 0.08341307 -0.01779655
v 0.03344192 0.03138275 0.05004951
v 0.05962478 0.04528623 0.03983986
v 0.07962082 0.05699676 0.01583755
v 0.08823562 0.07053842 -0.00000015
v 0.08427780 0.08341302 -0.03490913
v 0.04256393 0.03138283 0.04256370
v 0.06625122 0.04528618 0.02744209
v 0.08118088 0.05699672 -0.00000015
v 0.08653961 0.07053842 -0.01721397
v 0.07584777 0.08341297 -0.05068008
v 0.05004944 0.03138281 0.03344200
v 0.07033218 0.04528608 0.01398971
v 0.07962082 0.05699665 -0.01583771
v 0.08151901 0.07053846 -0.03376625
v 0.06450302 0.08341297 -0.06450355
v 0.05561203 0.03138279 0.02303520
v 0.07171005 0.04528596 -0.00000015
v 0.07500122 0.05699668 -0.03106674
v 0.07336487 0.07053842 -0.04902107
v 0.05067993 0.08341300 -0.07584808
v 0.05903747 0.03138269 0.01174316
v 0.07033203 0.04528600 -0.01398994
v 0.06749924 0.05699671 -0.04510162
v 0.06239227 0.07053845 -0.06239197
v 0.03490906 0.08341300 -0.08427795
v 0.06019409 0.03138259 -0.00000015
v 0.06625122 0.04528611 -0.02744232
v 0.05740372 0.05699676 -0.05740356
v 0.04902115 0.07053842 -0.07336502
v 0.01779617 0.08341300 -0.08946899
v 0.00000000 0.08341300 -0.09122185
v 0.03376587 0.07053844 -0.08151901
v 0.01721405 0.07053842 -0.08654015
v 0.00000000 0.07053842 -0.08823539
v 0.00000000 0.05699668 -0.08118080
v 0.04510162 0.05699669 -0.06749947
v 0.05962478 0.04528618 -0.03984009
v 0.03106644 0.05699669 -0.07500122
v 0.01583740 0.05699670 -0.07962089
v 0.05070694 0.04528618 -0.05070679
v 0.01398987 0.04528615 -0.07033218
v 0.00000000 0.04528617 -0.07171005
v 0.03983993 0.04528615 -0.05962478
v 0.02744247 0.04528611 -0.06625137
v 0.01174316 0.03138278 -0.05903770
v 0.00000000 0.03138277 -0.06019424
v 0.00000000 0.01830469 -0.05294846
v 0.02303528 0.03138272 -0.05561218
v 0.01032974 0.01830468 -0.05193115
v 0.00000000 0.00711194 -0.04996895
v 0.00974838 0.00711196 -0.04900879
v 0.02026245 0.01830463 -0.04891800
v 0.01912216 0.00711189 -0.04616524
v 0.03344192 0.03138275 -0.05004967
v 0.02941650 0.01830467 -0.04402512
v 0.02776123 0.00711194 -0.04154778
v 0.04256393 0.03138280 -0.04256386
v 0.03744034 0.01830472 -0.03744034
v 0.03533340 0.00711197 -0.03533356
v 0.05004944 0.03138280 -0.03344223
v 0.04402481 0.01830469 -0.02941673
v 0.04154739 0.00711197 -0.02776131
v 0.05561203 0.03138272 -0.02303543
v 0.04891784 0.01830464 -0.02026260
v 0.04616516 0.00711189 -0.01912239
v 0.05903747 0.03138263 -0.01174339
v 0.05193115 0.01830456 -0.01032982
v 0.04900879 0.00711180 -0.00974853
v 0.05294846 0.01830452 -0.00000015
v 0.04996887 0.00711177 -0.00000015
v 0.05193115 0.01830462 0.01032959
v 0.04900879 0.00711185 0.00974831
v 0.04891784 0.01830470 0.02026237
v 0.04616516 0.00711196 0.01912216
v 0.04402481 0.01830471 0.02941650
v 0.04154739 0.00711199 0.02776108
v 0.03744034 0.01830473 0.03744018
v 0.03533340 0.00711200 0.03533340
v 0.02941650 0.01830468 0.04402496
v 0.02776123 0.00711197 0.04154754
v 0.02026245 0.01830464 0.04891792
v 0.01912231 0.00711189 0.04616516
v 0.01032959 0.01830466 0.05193108
v 0.00974838 0.00711190 0.04900863
v 0.00000000 0.01830469 0.05294830
v 0.00000000 0.00711194 0.04996879
v -0.01032989 0.01830469 0.05193108
v -0.00974853 0.00711194 0.04900863
v -0.02026276 0.01830467 0.04891792
v -0.01912247 0.00711193 0.04616516
v -0.02941650 0.01830463 0.04402496
v -0.02776123 0.00711189 0.04154754
v -0.03744049 0.01830466 0.03744011
v -0.03533356 0.00711192 0.03533333
v -0.04402527 0.01830471 0.02941643
v -0.04154770 0.00711195 0.02776100
v -0.04891846 0.01830472 0.02026237
v -0.04616577 0.00711197 0.01912216
v -0.05193115 0.01830478 0.01032959
v -0.04900894 0.00711202 0.00974831
v -0.05294861 0.01830476 -0.00000015
v -0.04996902 0.00711201 -0.00000015
v -0.05193130 0.01830476 -0.01032989
v -0.04900894 0.00711204 -0.00974861
v -0.04891846 0.01830475 -0.02026268
v -0.04616577 0.00711198 -0.01912247
v -0.04402527 0.01830466 -0.02941673
v -0.04154770 0.00711189 -0.02776131
v -0.03744049 0.01830463 -0.03744034
v -0.03533356 0.00711189 -0.03533348
v -0.02941650 0.01830463 -0.04402512
v -0.02776123 0.00711192 -0.04154770
v -0.02026276 0.01830466 -0.04891800
v -0.01912247 0.00711191 -0.04616524
v -0.01032974 0.01830467 -0.05193115
v -0.00974853 0.00711192 -0.04900879
v 0.00000000 0.01830469 -0.05294846
v 0.00000000 0.00711194 -0.04996895
v 0.00000000 0.00720092 -0.00000015
v 0.04900879 0.00711180 -0.00974853
v 0.04996887 0.00711177 -0.00000015
v 0.04616516 0.00711189 -0.01912239
v 0.04900879 0.00711185 0.00974831
v 0.04154739 0.00711197 -0.02776131
v 0.04616516 0.00711196 0.01912216
v 0.03533340 0.00711197 -0.03533356
v 0.04154739 0.00711199 0.02776108
v 0.02776123 0.00711194 -0.04154778
v 0.03533340 0.00711200 0.03533340
v 0.01912216 0.00711189 -0.04616524
v 0.02776123 0.00711197 0.04154754
v 0.00974838 0.00711196 -0.04900879
v 0.01912231 0.00711189 0.04616516
v 0.00000000 0.00711194 -0.04996895
v 0.00974838 0.00711190 0.04900863
v -0.00974853 0.00711192 -0.04900879
v 0.00000000 0.00711194 0.04996879
v -0.01912247 0.00711191 -0.04616524
v -0.00974853 0.00711194 0.04900863
v -0.02776123 0.00711192 -0.04154770
v -0.01912247 0.00711193 0.04616516
v -0.03533356 0.00711189 -0.03533348
v -0.02776123 0.00711189 0.04154754
v -0.04154770 0.00711189 -0.02776131
v -0.03533356 0.00711192 0.03533333
v -0.04616577 0.00711198 -0.01912247
v -0.04154770 0.00711195 0.02776100
v -0.04900894 0.00711204 -0.00974861
v -0.04616577 0.00711197 0.01912216
v -0.04996902 0.00711201 -0.00000015
v -0.04900894 0.00711202 0.00974831
vn 0.19006420 -0.22555010 -0.95551180
vn 0.00000094 -0.15549440 -0.98783680
vn 0.00000102 -0.22555610 -0.97423020
vn 0.19272070 -0.15549360 -0.96885520
vn 0.37282150 -0.22554520 -0.90007420
vn 0.00000075 0.02305487 -0.99973420
vn 0.37802800 -0.15549420 -0.91264250
vn 0.54124930 -0.22554400 -0.81004880
vn 0.19503880 0.02305263 -0.98052450
vn 0.54880880 -0.15549310 -0.82135910
vn 0.68888860 -0.22554270 -0.68888530
vn 0.05878042 0.95353240 -0.29550110
vn 0.00000015 0.95353260 -0.30128960
vn 0.38258080 0.02305166 -0.92363450
vn 0.69850790 -0.15548910 -0.69850550
vn 0.81004900 -0.22554600 -0.54124820
vn 0.11529480 0.95353380 -0.27835290
vn -0.03176975 0.98665210 0.15971360
vn 0.00000045 0.98665210 0.16284250
vn 0.55541990 0.02305854 -0.83125040
vn 0.82135840 -0.15549310 -0.54880990
vn 0.90007310 -0.22555990 -0.37281500
vn 0.16738440 0.95353470 -0.25050780
vn -0.06231884 0.98665190 0.15044730
vn -0.19195130 0.17873070 0.96499220
vn -0.00000019 0.17872890 0.98389830
vn 0.70691970 0.02306899 -0.70691750
vn 0.91264190 -0.15550330 -0.37802580
vn 0.95550660 -0.22557220 -0.19006450
vn 0.21303290 0.95353750 -0.21303350
vn -0.09046908 0.98665240 0.13539680
vn -0.37652590 0.17872770 0.90900200
vn 0.83124760 0.02306081 -0.55542390
vn 0.96885380 -0.15550620 -0.19271750
vn 0.97422790 -0.22556570 -0.00001229
vn 0.25050170 0.95353620 -0.16738440
vn -0.11513940 0.98665370 0.11514000
vn -0.54662730 0.17873000 0.81807950
vn 0.92363430 0.02304798 -0.38258140
vn 0.98783620 -0.15549840 -0.00000754
vn 0.95551180 -0.22555350 0.19006030
vn 0.27835010 0.95353420 -0.11529800
vn -0.13538810 0.98665400 0.09046552
vn -0.69572290 0.17873830 0.69571720
vn 0.98052450 0.02304830 -0.19503970
vn 0.96885680 -0.15549140 0.19271450
vn 0.90007090 -0.22554980 0.37282670
vn 0.29549750 0.95353360 -0.05877804
vn -0.15042600 0.98665560 0.06231136
vn -0.81807710 0.17872910 0.54663150
vn 0.99973420 0.02305071 -0.00000189
vn 0.91264080 -0.15549350 0.37803270
vn 0.81004760 -0.22554530 0.54125060
vn 0.30128770 0.95353330 0.00000014
vn -0.15968860 0.98665630 0.03176272
vn -0.90899970 0.17872870 0.37653090
vn 0.98052450 0.02305691 0.19503830
vn 0.82135750 -0.15549100 0.54881180
vn 0.68888890 -0.22554390 0.68888460
vn 0.29549260 0.95353530 0.05877661
vn -0.16281970 0.98665580 0.00000053
vn -0.96499430 0.17872920 0.19194280
vn 0.92363330 0.02305585 0.38258330
vn 0.69850840 -0.15548810 0.69850510
vn 0.54125080 -0.22555130 0.81004580
vn 0.27834680 0.95353530 0.11529750
vn -0.15970040 0.98665430 -0.03176504
vn -0.98389970 0.17872160 0.00000428
vn 0.83124710 0.02306139 0.55542460
vn 0.54881130 -0.15549230 0.82135760
vn 0.37282000 -0.22555810 0.90007150
vn 0.25050070 0.95353670 0.16738260
vn -0.15043300 0.98665450 -0.06231339
vn -0.96499670 0.17871660 -0.19194220
vn 0.70692100 0.02306542 0.70691640
vn 0.37802800 -0.15549390 0.91264250
vn 0.19005880 -0.22555660 0.95551130
vn 0.21303260 0.95353730 0.21303490
vn -0.13539050 0.98665360 -0.09046593
vn -0.90900030 0.17872140 -0.37653320
vn 0.55542300 0.02306072 0.83124820
vn 0.19271580 -0.15549420 0.96885610
vn 0.00000000 -0.22555440 0.97423060
vn 0.16738170 0.95353540 0.25050640
vn -0.11514160 0.98665310 -0.11514310
vn -0.81807800 0.17872460 -0.54663140
vn 0.38258050 0.02306086 0.92363430
vn -0.00000038 -0.15549510 0.98783670
vn -0.19006160 -0.22555200 0.95551190
vn 0.11529320 0.95353440 0.27835180
vn -0.09047125 0.98665200 -0.13539880
vn -0.69572220 0.17873400 -0.69571890
vn 0.19503550 0.02305447 0.98052520
vn -0.19271720 -0.15549290 0.96885610
vn -0.37282320 -0.22555260 0.90007150
vn 0.05877952 0.95353230 0.29550130
vn -0.06231568 0.98665230 -0.15044560
vn -0.54662690 0.17872760 -0.81808030
vn -0.00000095 0.02304904 0.99973430
vn -0.37802850 -0.15549370 0.91264250
vn -0.54125110 -0.22556030 0.81004310
vn -0.00000100 0.95353110 0.30129470
vn -0.03176764 0.98665210 -0.15971380
vn -0.37652310 0.17872260 -0.90900420
vn -0.19503860 0.02305026 0.98052470
vn -0.54881150 -0.15549720 0.82135650
vn -0.68888240 -0.22556630 0.68888370
vn -0.05878389 0.95353120 0.29550420
vn -0.00000099 0.98665200 -0.16284280
vn -0.19195290 0.17872380 -0.96499320
vn -0.38257910 0.02305225 0.92363510
vn -0.69850820 -0.15549650 0.69850340
vn -0.81003980 -0.22556420 0.54125430
vn -0.11529880 0.95353230 0.27835640
vn 0.03176937 0.98665140 -0.15971790
vn -0.00000122 0.17872690 -0.98389870
vn -0.55541990 0.02305465 0.83125040
vn -0.82135460 -0.15549660 0.54881460
vn -0.90007070 -0.22556280 0.37281940
vn -0.16738190 0.95353420 0.25051090
vn 0.06232061 0.98665130 -0.15045080
vn 0.19195270 0.17873420 -0.96499130
vn -0.70691960 0.02305549 0.70691800
vn -0.91264240 -0.15549890 0.37802650
vn -0.95551030 -0.22556670 0.19005230
vn -0.21304260 0.95353420 0.21303830
vn 0.09047428 0.98665060 -0.13540680
vn 0.37652090 0.17873300 -0.90900300
vn -0.83124560 0.02305811 0.55542700
vn -0.96885710 -0.15549910 0.19270680
vn -0.97422690 -0.22556990 0.00000000
vn -0.25050500 0.95353560 0.16738330
vn 0.11515280 0.98665060 -0.11515430
vn 0.54662220 0.17871710 -0.81808570
vn -0.92363460 0.02306393 0.38257940
vn -0.98783590 -0.15549930 0.00000000
vn -0.95551030 -0.22556680 -0.19005230
vn -0.27834390 0.95353620 0.11529630
vn 0.13541200 0.98664950 -0.09047929
vn 0.69572840 0.17870910 -0.69571910
vn -0.98052590 0.02306498 0.19503030
vn -0.96885730 -0.15549350 -0.19271050
vn -0.90007110 -0.22556160 -0.37281890
vn -0.29549070 0.95353600 0.05877378
vn 0.15046320 0.98664910 -0.06232368
vn 0.81808770 0.17871580 -0.54662000
vn -0.99973410 0.02305959 0.00000000
vn -0.91264430 -0.15548760 -0.37802640
vn -0.81003330 -0.22556090 -0.54126550
vn -0.30128190 0.95353510 -0.00000106
vn 0.15972640 0.98664990 -0.03177036
vn 0.90900420 0.17872830 -0.37652050
vn -0.98052430 0.02306883 -0.19503840
vn -0.82135140 -0.15549470 -0.54882000
vn -0.68888000 -0.22555390 -0.68889030
vn -0.29548630 0.95353720 -0.05877603
vn 0.16284920 0.98665090 -0.00000195
vn 0.96499700 0.17871620 -0.19194080
vn -0.92363390 0.02307094 -0.38258090
vn -0.69850160 -0.15550310 -0.69850870
vn -0.54126040 -0.22554230 -0.81004200
vn -0.27833870 0.95353870 -0.11528890
vn 0.15971930 0.98665110 0.03177065
vn 0.98390170 0.17871070 -0.00000222
vn -0.83124630 0.02304698 -0.55542650
vn -0.54881260 -0.15550000 -0.82135530
vn -0.37282250 -0.22554430 -0.90007390
vn -0.25050890 0.95353530 -0.16737860
vn 0.15045310 0.98665090 0.06232025
vn 0.96499620 0.17870980 0.19195080
vn -0.70691650 0.02302721 -0.70692220
vn -0.37802910 -0.15549560 -0.91264190
vn -0.19006210 -0.22555390 -0.95551130
vn -0.21305000 0.95353130 -0.21304400
vn 0.13539230 0.98665330 0.09046719
vn 0.90900500 0.17870630 0.37652880
vn -0.55542440 0.02303359 -0.83124790
vn -0.19271880 -0.15549520 -0.96885530
vn 0.00000102 -0.22555610 -0.97423020
vn 0.00000094 -0.15549440 -0.98783680
vn -0.38258140 0.02304694 -0.92363430
vn -0.19503850 0.02305287 -0.98052470
vn 0.00000075 0.02305487 -0.99973420
vn 0.00000015 0.95353260 -0.30128960
vn -0.05878250 0.95353250 -0.29550010
vn 0.00000045 0.98665210 0.16284250
vn -0.16738870 0.95353070 -0.25051970
vn -0.11530120 0.95353170 -0.27835750
vn 0.03176922 0.98665150 0.15971670
vn -0.00000019 0.17872890 0.98389830
vn 0.06231906 0.98665140 0.15045040
vn 0.19194930 0.17873340 0.96499210
vn 0.00000038 0.15621840 0.98772250
vn 0.09046765 0.98665240 0.13539760
vn 0.19269240 0.15622120 0.96874370
vn 0.00000101 0.34933460 0.93699800
vn 0.37652350 0.17873940 0.90900080
vn 0.11513830 0.98665390 0.11514000
vn 0.54662730 0.17874130 0.81807710
vn 0.37798400 0.15622190 0.91253660
vn 0.18279700 0.34933450 0.91899440
vn 0.69572200 0.17872990 0.69572010
vn 0.54874890 0.15622410 0.82126040
vn 0.81808710 0.17870970 0.54662260
vn 0.69842210 0.15622480 0.69842700
vn 0.35857090 0.34933390 0.86567470
vn 0.16414920 0.54040770 0.82523600
vn 0.00000078 0.54040870 0.84140260
vn 0.00000021 0.63326190 0.77393760
vn 0.82126200 0.15621180 0.54875000
vn 0.52057090 0.34932960 0.77908580
vn 0.32198700 0.54040810 0.77735660
vn 0.15098730 0.63326090 0.75906750
vn 0.00000000 0.57920480 0.81518210
vn 0.46745800 0.54040700 0.69960220
vn 0.66255450 0.34933190 0.66256210
vn 0.91253790 0.15620360 0.37798800
vn 0.29617370 0.63326090 0.71502570
vn 0.15903280 0.57920520 0.79951860
vn 0.59496240 0.54040420 0.59496490
vn 0.77908060 0.34933490 0.52057530
vn 0.96874550 0.15620780 0.19269490
vn 0.42997540 0.63326130 0.64350700
vn 0.69959900 0.54040380 0.46746640
vn 0.86567350 0.34933080 0.35857670
vn 0.98772410 0.15620850 -0.00000100
vn 0.31195860 0.57920560 0.75312860
vn 0.54725250 0.63326040 0.54726230
vn 0.77735520 0.54040560 0.32199460
vn 0.91899570 0.34933130 0.18279640
vn 0.96874550 0.15621250 -0.19269060
vn 0.45288910 0.57920210 0.67780260
vn 0.64350570 0.63325860 0.42998150
vn 0.82523790 0.54040600 0.16414520
vn 0.93699880 0.34933250 0.00000000
vn 0.91253540 0.15622040 -0.37798710
vn 0.57641550 0.57920310 0.57642760
vn 0.71502600 0.63326190 0.29617090
vn 0.84140370 0.54040700 -0.00000016
vn 0.91899570 0.34933110 -0.18279700
vn 0.82126460 0.15622270 -0.54874320
vn 0.67779880 0.57920190 0.45289510
vn 0.75906620 0.63326350 0.15098240
vn 0.82523810 0.54040580 -0.16414570
vn 0.86567370 0.34932980 -0.35857720
vn 0.69842830 0.15622390 -0.69842120
vn 0.75313230 0.57920430 0.31195230
vn 0.77393630 0.63326350 -0.00000052
vn 0.77735540 0.54040450 -0.32199620
vn 0.77908680 0.34933630 -0.52056490
vn 0.54874590 0.15622190 -0.82126300
vn 0.79952240 0.57920140 0.15902710
vn 0.75906640 0.63326350 -0.15098200
vn 0.69960040 0.54040630 -0.46746170
vn 0.66255660 0.34934180 -0.66255500
vn 0.37798190 0.15621980 -0.91253780
vn 0.81518200 0.57920500 -0.00000178
vn 0.71502550 0.63326190 -0.29617200
vn 0.59495830 0.54041090 -0.59496270
vn 0.52056480 0.34933950 -0.77908550
vn 0.19269440 0.15622130 -0.96874330
vn 0.79952170 0.57920260 -0.15902610
vn 0.64350500 0.63325860 -0.42998250
vn 0.46745720 0.54041000 -0.69960040
vn 0.35857340 0.34933360 -0.86567370
vn 0.00000016 0.15622070 -0.98772220
vn 0.75313200 0.57920480 -0.31195180
vn 0.54725380 0.63325940 -0.54726210
vn 0.32199390 0.54040770 -0.77735410
vn 0.18280020 0.34933100 -0.91899510
vn -0.19269480 0.15621780 -0.96874390
vn 0.67779830 0.57920180 -0.45289600
vn 0.42998110 0.63325900 -0.64350550
vn 0.16414880 0.54040750 -0.82523630
vn 0.00000153 0.34933190 -0.93699910
vn -0.37798600 0.15621510 -0.91253690
vn 0.57641970 0.57920140 -0.57642530
vn 0.29617740 0.63326080 -0.71502430
vn 0.00000155 0.54040810 -0.84140310
vn -0.18280160 0.34933030 -0.91899510
vn -0.54875110 0.15620640 -0.82126230
vn 0.45289450 0.57920010 -0.67780070
vn 0.15098640 0.63326220 -0.75906660
vn -0.16414850 0.54040910 -0.82523540
vn -0.35857230 0.34933080 -0.86567530
vn -0.69842930 0.15619960 -0.69842550
vn 0.31196010 0.57920390 -0.75312930
vn 0.00000075 0.63326290 -0.77393670
vn -0.32199040 0.54040810 -0.77735540
vn -0.52056520 0.34932720 -0.77909080
vn -0.82126140 0.15620390 -0.54875320
vn 0.15903080 0.57920340 -0.79952020
vn -0.15098800 0.63326320 -0.75906550
vn -0.46745300 0.54040970 -0.69960360
vn -0.66256480 0.34932090 -0.66255770
vn -0.91253320 0.15621090 -0.37799670
vn 0.00000028 0.57920380 -0.81518270
vn -0.29617310 0.63326340 -0.71502380
vn -0.59496110 0.54041130 -0.59495970
vn -0.77909070 0.34932190 -0.52056880
vn -0.96874590 0.15621030 -0.19269110
vn -0.15903360 0.57920430 -0.79951900
vn -0.42997450 0.63326380 -0.64350520
vn -0.69960290 0.54040930 -0.46745440
vn -0.86567340 0.34932860 -0.35857930
vn -0.98772370 0.15621130 0.00000798
vn -0.31195750 0.57920480 -0.75312970
vn -0.54725430 0.63326540 -0.54725460
vn -0.77735350 0.54041080 -0.32199020
vn -0.91899500 0.34933230 -0.18279860
vn -0.96874420 0.15621880 0.19269210
vn -0.45288790 0.57920500 -0.67780100
vn -0.64350610 0.63326680 -0.42996850
vn -0.82523340 0.54041100 -0.16415220
vn -0.93700050 0.34932810 0.00000831
vn -0.91253480 0.15621520 0.37799090
vn -0.57642040 0.57920810 -0.57641790
vn -0.71502140 0.63326630 -0.29617240
vn -0.84140380 0.54040690 0.00000310
vn -0.91899600 0.34932820 0.18280130
vn -0.82126130 0.15620290 0.54875360
vn -0.67780360 0.57920660 -0.45288180
vn -0.75906400 0.63326350 -0.15099380
vn -0.82523640 0.54040570 0.16415430
vn -0.86567600 0.34932820 0.35857340
vn -0.69842830 0.15619950 0.69842660
vn -0.75312720 0.57920590 -0.31196170
vn -0.77393690 0.63326280 0.00000027
vn -0.77735560 0.54040720 0.32199120
vn -0.77909020 0.34932370 0.52056850
vn -0.54875140 0.15620690 0.82126210
vn -0.79951610 0.57920580 -0.15904270
vn -0.75906430 0.63326330 0.15099390
vn -0.69960500 0.54040740 0.46745350
vn -0.66256530 0.34932070 0.66255740
vn -0.37798910 0.15621430 0.91253570
vn -0.81518150 0.57920560 -0.00000013
vn -0.71502300 0.63326410 0.29617350
vn -0.59496370 0.54040840 0.59495970
vn -0.52056610 0.34932700 0.77909030
vn -0.19269390 0.15621610 0.96874430
vn 0.00000038 0.15621840 0.98772250
vn -0.35857380 0.34933260 0.86567410
vn -0.18280130 0.34933390 0.91899380
vn 0.00000101 0.34933460 0.93699800
vn 0.00000078 0.54040870 0.84140260
vn -0.46745250 0.54040720 0.69960580
vn -0.64350920 0.63326320 0.42996930
vn -0.32198970 0.54040830 0.77735550
vn -0.16414940 0.54041050 0.82523430
vn -0.54725530 0.63326390 0.54725540
vn -0.15098850 0.63326150 0.75906670
vn 0.00000021 0.63326190 0.77393760
vn -0.42997190 0.63326360 0.64350710
vn -0.29617250 0.63326230 0.71502500
vn -0.15903370 0.57920600 0.79951780
vn 0.00000000 0.57920480 0.81518210
vn -0.00000034 0.39603040 0.91823740
vn -0.31195710 0.57920620 0.75312880
vn -0.17914020 0.39603160 0.90059300
vn 0.00000033 0.97396370 0.22670390
vn -0.04422003 0.97397050 0.22232010
vn -0.35139500 0.39602840 0.84834150
vn -0.08675428 0.97396470 0.20944350
vn -0.45288520 0.57920640 0.67780170
vn -0.51013930 0.39602650 0.76349260
vn -0.12593490 0.97397050 0.18847250
vn -0.57641760 0.57921050 0.57641820
vn -0.64929420 0.39603060 0.64928930
vn -0.16030700 0.97396300 0.16030480
vn -0.67780230 0.57920810 0.45288180
vn -0.76349190 0.39602930 0.51013820
vn -0.18846910 0.97397140 0.12593290
vn -0.75312770 0.57920520 0.31196150
vn -0.84833740 0.39602740 0.35140560
vn -0.20944480 0.97396340 0.08676355
vn -0.79951750 0.57920430 0.15904180
vn -0.90059400 0.39602660 0.17914620
vn -0.22231530 0.97397110 0.04422832
vn -0.91823970 0.39602520 -0.00000107
vn -0.22669750 0.97396520 -0.00000184
vn -0.90059400 0.39602650 -0.17914680
vn -0.22231580 0.97397090 -0.04423175
vn -0.84833770 0.39602730 -0.35140500
vn -0.20944530 0.97396330 -0.08676427
vn -0.76349350 0.39602900 -0.51013590
vn -0.18846990 0.97397160 -0.12593020
vn -0.64929550 0.39603130 -0.64928760
vn -0.16030930 0.97396280 -0.16030420
vn -0.51014190 0.39602650 -0.76349090
vn -0.12593640 0.97397080 -0.18846990
vn -0.35139620 0.39602710 -0.84834150
vn -0.08675674 0.97396390 -0.20944580
vn -0.17913680 0.39602990 -0.90059440
vn -0.04421825 0.97397140 -0.22231660
vn 0.00000024 0.39602980 -0.91823770
vn 0.00000116 0.97396400 -0.22670260
vn 0.17913480 0.39603120 -0.90059420
vn 0.04421996 0.97397100 -0.22231760
vn 0.35139800 0.39603000 -0.84833940
vn 0.08675499 0.97396430 -0.20944500
vn 0.51014580 0.39602710 -0.76348790
vn 0.12593040 0.97397160 -0.18846960
vn 0.64929000 0.39603000 -0.64929420
vn 0.16030650 0.97396300 -0.16030570
vn 0.76348440 0.39602830 -0.51015010
vn 0.18846700 0.97397230 -0.12592890
vn 0.84834250 0.39602910 -0.35139120
vn 0.20945260 0.97396250 -0.08675540
vn 0.90059830 0.39602630 -0.17912530
vn 0.22231820 0.97397100 -0.04421561
vn 0.91823830 0.39602830 -0.00000364
vn 0.22670360 0.97396380 -0.00000065
vn 0.90059820 0.39602660 0.17912580
vn 0.22231820 0.97397100 0.04421617
vn 0.84834170 0.39602890 0.35139360
vn 0.20945360 0.97396230 0.08675586
vn 0.76348360 0.39602900 0.51015060
vn 0.18846730 0.97397240 0.12592800
vn 0.64928500 0.39603130 0.64929820
vn 0.16030470 0.97396330 0.16030510
vn 0.51014100 0.39602730 0.76349110
vn 0.12593020 0.97397120 0.18847170
vn 0.35139630 0.39602960 0.84834020
vn 0.08675388 0.97396440 0.20944510
vn 0.17913740 0.39603110 0.90059380
vn 0.04422024 0.97397070 0.22231860
vn -0.00000034 0.39603040 0.91823740
vn 0.00000033 0.97396370 0.22670390
vn 0.00000061 1.00000000 -0.00000011
vn -0.22231530 0.97397110 0.04422832
vn -0.22669750 0.97396520 -0.00000184
vn -0.20944480 0.97396340 0.08676355
vn -0.22231580 0.97397090 -0.04423175
vn -0.18846910 0.97397140 0.12593290
vn -0.20944530 0.97396330 -0.08676427
vn -0.16030700 0.97396300 0.16030480
vn -0.18846990 0.97397160 -0.12593020
vn -0.12593490 0.97397050 0.18847250
vn -0.16030930 0.97396280 -0.16030420
vn -0.08675428 0.97396470 0.20944350
vn -0.12593640 0.97397080 -0.18846990
vn -0.04422003 0.97397050 0.22232010
vn -0.08675674 0.97396390 -0.20944580
vn 0.00000033 0.97396370 0.22670390
vn -0.04421825 0.97397140 -0.22231660
vn 0.04422024 0.97397070 0.22231860
vn 0.00000116 0.97396400 -0.22670260
vn 0.08675388 0.97396440 0.20944510
vn 0.04421996 0.97397100 -0.22231760
vn 0.12593020 0.97397120 0.18847170
vn 0.08675499 0.97396430 -0.20944500
vn 0.16030470 0.97396330 0.16030510
vn 0.12593040 0.97397160 -0.18846960
vn 0.18846730 0.97397240 0.12592800
vn 0.16030650 0.97396300 -0.16030570
vn 0.20945360 0.97396230 0.08675586
vn 0.18846700 0.97397230 -0.12592890
vn 0.22231820 0.97397100 0.04421617
vn 0.20945260 0.97396250 -0.08675540
vn 0.22670360 0.97396380 -0.00000065
vn 0.22231820 0.97397100 -0.04421561
vt -1.16768300 2.99942700
vt -1.26143200 2.95492900
vt -1.26143200 2.99944600
vt -1.16768100 2.95492500
vt -1.07393300 2.99939500
vt -1.26143200 2.93314700
vt -1.07393200 2.95490100
vt -0.98018100 2.99936200
vt -1.16768200 2.93314800
vt -0.98018070 2.95487500
vt -0.88642980 2.99934100
vt -1.16768200 2.92972200
vt -1.26143200 2.92972200
vt -1.07393100 2.93312500
vt -0.88643100 2.95485100
vt -0.79268150 2.99932200
vt -1.07393300 2.92970000
vt -1.16768200 2.92009300
vt -1.26143200 2.92009500
vt -0.98018050 2.93309700
vt -0.79268170 2.95482800
vt -0.69893120 2.99931300
vt -0.98018070 2.92967300
vt -1.07393200 2.92007100
vt -1.16768200 2.91530100
vt -1.26143200 2.91530400
vt -0.88643190 2.93307200
vt -0.69893210 2.95481700
vt -0.60518220 2.99933300
vt -0.88643290 2.92964600
vt -0.98018340 2.92004300
vt -1.07393100 2.91527900
vt -0.79268150 2.93304400
vt -0.60518140 2.95483700
vt -0.51143210 2.99937000
vt -0.79268190 2.92961500
vt -0.88643190 2.92001900
vt -0.98018410 2.91525200
vt -0.69893150 2.93302400
vt -0.51143210 2.95487200
vt -0.41768220 2.99941900
vt -0.69893150 2.92959700
vt -0.79268310 2.91998600
vt -0.88643220 2.91522700
vt -0.60518180 2.93304500
vt -0.41768250 2.95491800
vt -0.32393250 2.99948400
vt -0.60518150 2.92961800
vt -0.69893150 2.91997200
vt -0.79268260 2.91519300
vt -0.51143210 2.93308400
vt -0.32393230 2.95498500
vt -0.23018200 2.99953200
vt -0.51143210 2.92965800
vt -0.60518160 2.91999300
vt -0.69893150 2.91518100
vt -0.41768160 2.93314100
vt -0.23018210 2.95503700
vt -0.13643370 2.99954300
vt -0.41768220 2.92971400
vt -0.51143210 2.92002900
vt -0.60518150 2.91520200
vt -0.32393230 2.93321800
vt -0.13643230 2.95504900
vt -0.04268241 2.99953300
vt -0.32393220 2.92979300
vt -0.41768160 2.92008400
vt -0.51143210 2.91523600
vt -0.23018190 2.93327600
vt -0.04268259 2.95504200
vt 0.05106953 2.99951100
vt -0.23018180 2.92985300
vt -0.32393190 2.92016500
vt -0.41768220 2.91528900
vt -0.13643160 2.93329300
vt 0.05106869 2.95502000
vt 0.14481900 2.99948500
vt -0.13642980 2.92987100
vt -0.23018060 2.92022400
vt -0.32393210 2.91537000
vt -0.04268271 2.93328300
vt 0.14481780 2.95499600
vt 0.23856830 2.99947100
vt -0.04268259 2.92986000
vt -0.13643140 2.92023700
vt -0.23018030 2.91543000
vt 0.05106810 2.93326300
vt 0.23856830 2.95498900
vt 0.33231750 2.99948400
vt 0.05106953 2.92984000
vt -0.04267964 2.92023100
vt -0.13643120 2.91544400
vt 0.14481890 2.93324400
vt 0.33231800 2.95499600
vt 0.42606770 2.99951100
vt 0.14481900 2.92981800
vt 0.05106837 2.92021600
vt -0.04267937 2.91543900
vt 0.23856830 2.93322900
vt 0.42606810 2.95502000
vt 0.51981860 2.99953200
vt 0.23856830 2.92980800
vt 0.14481960 2.92019600
vt 0.05106798 2.91542500
vt 0.33231850 2.93324300
vt 0.51981970 2.95504100
vt 0.61356790 2.99954300
vt 0.33231990 2.92981900
vt 0.23856830 2.92018700
vt 0.14481880 2.91540400
vt 0.42606780 2.93326300
vt 0.61356960 2.95504900
vt 0.70731850 2.99953200
vt 0.42606770 2.92984100
vt 0.33231860 2.92019600
vt 0.23856830 2.91539800
vt 0.51981930 2.93328200
vt 0.70731890 2.95503600
vt 0.80106900 2.99948300
vt 0.51981850 2.92985900
vt 0.42607030 2.92021600
vt 0.33231850 2.91540400
vt 0.61356860 2.93329200
vt 0.80106930 2.95498400
vt 0.89481830 2.99941800
vt 0.61356950 2.92987100
vt 0.51981850 2.92023000
vt 0.42607000 2.91542600
vt 0.70731820 2.93327600
vt 0.89481910 2.95491700
vt 0.98856850 2.99936900
vt 0.70731880 2.92985200
vt 0.61356880 2.92023700
vt 0.51981960 2.91543900
vt 0.80106930 2.93321700
vt 0.98856870 2.95487100
vt 1.08231900 2.99933300
vt 0.80106830 2.92979200
vt 0.70731790 2.92022400
vt 0.61357050 2.91544400
vt 0.89481840 2.93313900
vt 1.08231800 2.95483700
vt 1.17606800 2.99931200
vt 0.89481860 2.92971500
vt 0.80106910 2.92016300
vt 0.70731850 2.91543000
vt 0.98856850 2.93308400
vt 1.17606800 2.95481600
vt 1.26981900 2.99932200
vt 0.98856870 2.92965700
vt 0.89481840 2.92008200
vt 0.80106960 2.91537000
vt 1.08231900 2.93304400
vt 1.26981800 2.95482700
vt 1.36357100 2.99934100
vt 1.08231800 2.92961800
vt 0.98856860 2.92002800
vt 0.89481860 2.91529000
vt 1.17606900 2.93302100
vt 1.36357000 2.95485000
vt 1.45731900 2.99936100
vt 1.17606900 2.92959800
vt 1.08231900 2.91999300
vt 0.98856860 2.91523600
vt 1.26981900 2.93304200
vt 1.45732000 2.95487500
vt 1.55106900 2.99939400
vt 1.26981800 2.92961600
vt 1.17606900 2.91996900
vt 1.08231800 2.91520100
vt 1.36356900 2.93307100
vt 1.55106900 2.95490100
vt 1.64482100 2.99942700
vt 1.36356700 2.92964700
vt 1.26982000 2.91998600
vt 1.17606900 2.91518200
vt 1.45731800 2.93309700
vt 1.64481900 2.95492400
vt 1.73856800 2.99944600
vt 1.73856800 2.95492900
vt 1.55106900 2.93312500
vt 1.64481800 2.93314600
vt 1.73856800 2.93314700
vt 1.73856800 2.92972100
vt 1.64481700 2.92972400
vt 1.73856800 2.92009500
vt 1.45731800 2.92967200
vt 1.55106900 2.92969800
vt 1.64481800 2.92009100
vt 1.73856800 2.91530400
vt 1.55106600 2.92007200
vt 1.64481800 2.91530200
vt 1.73856800 2.87538900
vt 1.45731800 2.92004300
vt 1.64482000 2.87538200
vt 1.73856800 2.82560400
vt 1.55106700 2.91527900
vt 1.36356800 2.92001700
vt 1.45731700 2.91525200
vt 1.55106900 2.87536500
vt 1.64482100 2.82560500
vt 1.36356700 2.91522700
vt 1.45732000 2.87534300
vt 1.26982000 2.91519300
vt 1.36356900 2.87531700
vt 1.55106900 2.82559500
vt 1.64481900 2.76475100
vt 1.73856800 2.76474700
vt 1.73856800 2.71954700
vt 1.26981800 2.87529000
vt 1.45731900 2.82557400
vt 1.55106900 2.76474400
vt 1.64481900 2.71954300
vt 1.73856800 2.64185500
vt 1.45731900 2.76472700
vt 1.36357100 2.82554900
vt 1.17606900 2.87527500
vt 1.55106600 2.71953500
vt 1.64481800 2.64185200
vt 1.36356900 2.76471200
vt 1.26981900 2.82552700
vt 1.08231900 2.87528700
vt 1.45731900 2.71952500
vt 1.26981800 2.76469600
vt 1.17606900 2.82551600
vt 0.98856840 2.87532500
vt 1.55106500 2.64184300
vt 1.36356900 2.71951200
vt 1.17606900 2.76469200
vt 1.08231900 2.82553300
vt 0.89481880 2.87537600
vt 1.45731900 2.64183400
vt 1.26981800 2.71950500
vt 1.08231900 2.76470200
vt 0.98856840 2.82556200
vt 0.80106820 2.87543700
vt 1.36356600 2.64182900
vt 1.17606800 2.71950500
vt 0.98856860 2.76472400
vt 0.89481840 2.82560800
vt 0.70731840 2.87548800
vt 1.26981800 2.64182400
vt 1.08231800 2.71951000
vt 0.89481840 2.76475200
vt 0.80106970 2.82565800
vt 0.61357000 2.87551100
vt 1.17606700 2.64182400
vt 0.98856870 2.71952200
vt 0.80106850 2.76478900
vt 0.70731860 2.82570200
vt 0.51982000 2.87551700
vt 1.08231900 2.64182400
vt 0.89481850 2.71953900
vt 0.70731890 2.76482200
vt 0.61356880 2.82573100
vt 0.42606810 2.87551100
vt 0.98856880 2.64182600
vt 0.80106970 2.71955800
vt 0.61356790 2.76484500
vt 0.51981820 2.82573600
vt 0.33231690 2.87550700
vt 0.89481860 2.64183200
vt 0.70731970 2.71958300
vt 0.51981760 2.76485700
vt 0.42606770 2.82574000
vt 0.23856830 2.87550600
vt 0.80107030 2.64184800
vt 0.61356830 2.71959400
vt 0.42606790 2.76486300
vt 0.33231820 2.82574100
vt 0.14481980 2.87550700
vt 0.70731930 2.64185700
vt 0.51981770 2.71960000
vt 0.33231790 2.76486400
vt 0.23856830 2.82574000
vt 0.05106843 2.87551100
vt 0.61357080 2.64186900
vt 0.42607020 2.71960400
vt 0.23856840 2.76485800
vt 0.14481770 2.82574100
vt -0.04268128 2.87551700
vt 0.51981740 2.64187300
vt 0.33231860 2.71960100
vt 0.14481950 2.76486400
vt 0.05107039 2.82574000
vt -0.13643060 2.87551000
vt 0.42607060 2.64187000
vt 0.23856840 2.71960900
vt 0.05106869 2.76486200
vt -0.04268211 2.82573600
vt -0.23018090 2.87548700
vt 0.33231850 2.64187200
vt 0.14481910 2.71960100
vt -0.04268155 2.76485700
vt -0.13643310 2.82573200
vt -0.32393140 2.87543800
vt 0.23856830 2.64187100
vt 0.05106628 2.71960300
vt -0.13643260 2.76484600
vt -0.23018130 2.82570200
vt -0.41768220 2.87537600
vt 0.14481930 2.64187200
vt -0.04268143 2.71960100
vt -0.23018120 2.76482200
vt -0.32393190 2.82565800
vt -0.51143210 2.87532500
vt 0.05106822 2.64186900
vt -0.13643270 2.71959400
vt -0.32393160 2.76478900
vt -0.41768200 2.82560900
vt -0.60518190 2.87528800
vt -0.04268071 2.64187400
vt -0.23018220 2.71958300
vt -0.41768140 2.76475200
vt -0.51143210 2.82556200
vt -0.69893210 2.87527500
vt -0.13643260 2.64186900
vt -0.32393190 2.71955700
vt -0.51143210 2.76472500
vt -0.60518230 2.82553200
vt -0.79268220 2.87529000
vt -0.23018090 2.64185600
vt -0.41768260 2.71953800
vt -0.60518210 2.76470100
vt -0.69893120 2.82551700
vt -0.88643310 2.87531600
vt -0.32393200 2.64184600
vt -0.51143210 2.71952100
vt -0.69893260 2.76469200
vt -0.79268240 2.82552700
vt -0.98018190 2.87534300
vt -0.41768190 2.64183100
vt -0.60518150 2.71950900
vt -0.79268150 2.76469600
vt -0.88643030 2.82555000
vt -1.07393200 2.87536500
vt -0.51143210 2.64182400
vt -0.69893210 2.71950400
vt -0.88643120 2.76471300
vt -0.98018070 2.82557400
vt -1.16768300 2.87538300
vt -1.26143200 2.87538800
vt -1.07393400 2.82559500
vt -1.16768100 2.82560500
vt -1.26143200 2.82560400
vt -1.26143100 2.76474700
vt -0.98018220 2.76472700
vt -0.79268150 2.71950500
vt -1.07393200 2.76474400
vt -1.16768300 2.76475100
vt -0.88643070 2.71951200
vt -1.16768200 2.71954300
vt -1.26143100 2.71954700
vt -0.98018190 2.71952500
vt -1.07393000 2.71953500
vt -1.16768300 2.64185200
vt -1.26143200 2.64185500
vt -1.26143200 2.56717300
vt -1.07393100 2.64184300
vt -1.16768200 2.56716900
vt -1.26143200 2.50211600
vt -1.16768200 2.50212800
vt -1.07393200 2.56716000
vt -1.07393200 2.50211700
vt -0.98018260 2.64183400
vt -0.98018190 2.56715100
vt -0.98018190 2.50210600
vt -0.88643070 2.64182900
vt -0.88643120 2.56714500
vt -0.88643220 2.50209500
vt -0.79268290 2.64182300
vt -0.79268260 2.56713700
vt -0.79268290 2.50207900
vt -0.69893190 2.64182200
vt -0.69893260 2.56713400
vt -0.69893200 2.50207100
vt -0.60518210 2.64182300
vt -0.60518190 2.56713200
vt -0.60518180 2.50206800
vt -0.51143230 2.56713100
vt -0.51143220 2.50206600
vt -0.41768230 2.56713600
vt -0.41768210 2.50206900
vt -0.32393150 2.56715000
vt -0.32393190 2.50208800
vt -0.23018130 2.56715900
vt -0.23018120 2.50209900
vt -0.13643220 2.56716400
vt -0.13643120 2.50210600
vt -0.04268128 2.56716100
vt -0.04268166 2.50210900
vt 0.05106872 2.56715400
vt 0.05106869 2.50209000
vt 0.14481890 2.56714700
vt 0.14481870 2.50208800
vt 0.23856830 2.56714500
vt 0.23856840 2.50209900
vt 0.33231900 2.56714700
vt 0.33231920 2.50208900
vt 0.42607060 2.56715500
vt 0.42607060 2.50209100
vt 0.51981790 2.56716200
vt 0.51981810 2.50210900
vt 0.61357020 2.56716400
vt 0.61356930 2.50210600
vt 0.70732000 2.56716000
vt 0.70732000 2.50209900
vt 0.80107020 2.56715200
vt 0.80107060 2.50209000
vt 0.89481900 2.56713800
vt 0.89481900 2.50207100
vt 0.98856900 2.56713200
vt 0.98856880 2.50206800
vt 1.08231900 2.56713300
vt 1.08231900 2.50207000
vt 1.17606700 2.56713700
vt 1.17606700 2.50207300
vt 1.26981800 2.56713800
vt 1.26981800 2.50208000
vt 1.36356700 2.56714500
vt 1.36356800 2.50209500
vt 1.45731900 2.56715100
vt 1.45731800 2.50210700
vt 1.55106500 2.56716100
vt 1.55106600 2.50211800
vt 1.64481700 2.56716900
vt 1.64481700 2.50212800
vt 1.73856800 2.56717400
vt 1.73856800 2.50211700
vt 0.25000000 2.25000000
vt 0.48843230 2.29742700
vt 0.49310340 2.25000000
vt 0.47459790 2.34303200
vt 0.48843230 2.20257300
vt 0.45213240 2.38506100
vt 0.47459790 2.15696900
vt 0.42190020 2.42190100
vt 0.45213240 2.11493900
vt 0.38506160 2.45213300
vt 0.42190020 2.07809900
vt 0.34303150 2.47459800
vt 0.38506160 2.04786700
vt 0.29742730 2.48843200
vt 0.34303150 2.02540100
vt 0.25000000 2.49310400
vt 0.29742730 2.01156800
vt 0.20257260 2.48843200
vt 0.25000000 2.00689600
vt 0.15696760 2.47459800
vt 0.20257260 2.01156800
vt 0.11493930 2.45213300
vt 0.15696760 2.02540100
vt 0.07809971 2.42190100
vt 0.11493930 2.04786700
vt 0.04786666 2.38506100
vt 0.07809971 2.07810000
vt 0.02539936 2.34303200
vt 0.04786666 2.11493900
vt 0.01156770 2.29742800
vt 0.02539936 2.15696900
vt 0.00689656 2.25000000
vt 0.01156770 2.20257300
f 3/3/3 2/2/2 1/1/1
f 2/2/2 4/4/4 1/1/1
f 1/1/1 4/4/4 5/5/5
f 2/2/2 6/6/6 4/4/4
f 4/4/4 7/7/7 5/5/5
f 5/5/5 7/7/7 8/8/8
f 6/6/6 9/9/9 4/4/4
f 4/4/4 9/9/9 7/7/7
f 7/7/7 10/10/10 8/8/8
f 8/8/8 10/10/10 11/11/11
f 9/9/9 6/6/6 12/12/12
f 6/6/6 13/13/13 12/12/12
f 9/9/9 14/14/14 7/7/7
f 7/7/7 14/14/14 10/10/10
f 10/10/10 15/15/15 11/11/11
f 11/11/11 15/15/15 16/16/16
f 9/9/9 12/12/12 17/17/17
f 14/14/14 9/9/9 17/17/17
f 18/18/18 12/12/12 13/13/13
f 19/19/19 18/18/18 13/13/13
f 14/14/14 20/20/20 10/10/10
f 10/10/10 20/20/20 15/15/15
f 15/15/15 21/21/21 16/16/16
f 16/16/16 21/21/21 22/22/22
f 14/14/14 17/17/17 23/23/23
f 20/20/20 14/14/14 23/23/23
f 24/24/24 17/17/17 12/12/12
f 18/18/18 24/24/24 12/12/12
f 18/18/18 19/19/19 25/25/25
f 19/19/19 26/26/26 25/25/25
f 20/20/20 27/27/27 15/15/15
f 15/15/15 27/27/27 21/21/21
f 21/21/21 28/28/28 22/22/22
f 22/22/22 28/28/28 29/29/29
f 20/20/20 23/23/23 30/30/30
f 27/27/27 20/20/20 30/30/30
f 31/31/31 23/23/23 17/17/17
f 24/24/24 31/31/31 17/17/17
f 24/24/24 18/18/18 32/32/32
f 18/18/18 25/25/25 32/32/32
f 27/27/27 33/33/33 21/21/21
f 21/21/21 33/33/33 28/28/28
f 28/28/28 34/34/34 29/29/29
f 29/29/29 34/34/34 35/35/35
f 27/27/27 30/30/30 36/36/36
f 33/33/33 27/27/27 36/36/36
f 37/37/37 30/30/30 23/23/23
f 31/31/31 37/37/37 23/23/23
f 31/31/31 24/24/24 38/38/38
f 24/24/24 32/32/32 38/38/38
f 33/33/33 39/39/39 28/28/28
f 28/28/28 39/39/39 34/34/34
f 34/34/34 40/40/40 35/35/35
f 35/35/35 40/40/40 41/41/41
f 33/33/33 36/36/36 42/42/42
f 39/39/39 33/33/33 42/42/42
f 43/43/43 36/36/36 30/30/30
f 37/37/37 43/43/43 30/30/30
f 37/37/37 31/31/31 44/44/44
f 31/31/31 38/38/38 44/44/44
f 39/39/39 45/45/45 34/34/34
f 34/34/34 45/45/45 40/40/40
f 40/40/40 46/46/46 41/41/41
f 41/41/41 46/46/46 47/47/47
f 39/39/39 42/42/42 48/48/48
f 45/45/45 39/39/39 48/48/48
f 49/49/49 42/42/42 36/36/36
f 43/43/43 49/49/49 36/36/36
f 43/43/43 37/37/37 50/50/50
f 37/37/37 44/44/44 50/50/50
f 45/45/45 51/51/51 40/40/40
f 40/40/40 51/51/51 46/46/46
f 46/46/46 52/52/52 47/47/47
f 47/47/47 52/52/52 53/53/53
f 48/48/48 54/54/54 45/45/45
f 54/54/54 51/51/51 45/45/45
f 55/55/55 48/48/48 42/42/42
f 49/49/49 55/55/55 42/42/42
f 49/49/49 43/43/43 56/56/56
f 43/43/43 50/50/50 56/56/56
f 51/51/51 57/57/57 46/46/46
f 46/46/46 57/57/57 52/52/52
f 52/52/52 58/58/58 53/53/53
f 53/53/53 58/58/58 59/59/59
f 51/51/51 54/54/54 60/60/60
f 57/57/57 51/51/51 60/60/60
f 61/61/61 54/54/54 48/48/48
f 55/55/55 61/61/61 48/48/48
f 62/62/62 55/55/55 49/49/49
f 56/56/56 62/62/62 49/49/49
f 57/57/57 63/63/63 52/52/52
f 52/52/52 63/63/63 58/58/58
f 58/58/58 64/64/64 59/59/59
f 59/59/59 64/64/64 65/65/65
f 57/57/57 60/60/60 66/66/66
f 63/63/63 57/57/57 66/66/66
f 67/67/67 60/60/60 54/54/54
f 61/61/61 67/67/67 54/54/54
f 68/68/68 61/61/61 55/55/55
f 62/62/62 68/68/68 55/55/55
f 63/63/63 69/69/69 58/58/58
f 58/58/58 69/69/69 64/64/64
f 64/64/64 70/70/70 65/65/65
f 65/65/65 70/70/70 71/71/71
f 63/63/63 66/66/66 72/72/72
f 69/69/69 63/63/63 72/72/72
f 73/73/73 66/66/66 60/60/60
f 67/67/67 73/73/73 60/60/60
f 67/67/67 61/61/61 74/74/74
f 61/61/61 68/68/68 74/74/74
f 69/69/69 75/75/75 64/64/64
f 64/64/64 75/75/75 70/70/70
f 70/70/70 76/76/76 71/71/71
f 71/71/71 76/76/76 77/77/77
f 69/69/69 72/72/72 78/78/78
f 75/75/75 69/69/69 78/78/78
f 79/79/79 72/72/72 66/66/66
f 73/73/73 79/79/79 66/66/66
f 73/73/73 67/67/67 80/80/80
f 67/67/67 74/74/74 80/80/80
f 75/75/75 81/81/81 70/70/70
f 70/70/70 81/81/81 76/76/76
f 76/76/76 82/82/82 77/77/77
f 77/77/77 82/82/82 83/83/83
f 75/75/75 78/78/78 84/84/84
f 81/81/81 75/75/75 84/84/84
f 85/85/85 78/78/78 72/72/72
f 79/79/79 85/85/85 72/72/72
f 79/79/79 73/73/73 86/86/86
f 73/73/73 80/80/80 86/86/86
f 81/81/81 87/87/87 76/76/76
f 76/76/76 87/87/87 82/82/82
f 82/82/82 88/88/88 83/83/83
f 83/83/83 88/88/88 89/89/89
f 81/81/81 84/84/84 90/90/90
f 87/87/87 81/81/81 90/90/90
f 91/91/91 84/84/84 78/78/78
f 85/85/85 91/91/91 78/78/78
f 85/85/85 79/79/79 92/92/92
f 79/79/79 86/86/86 92/92/92
f 87/87/87 93/93/93 82/82/82
f 82/82/82 93/93/93 88/88/88
f 88/88/88 94/94/94 89/89/89
f 89/89/89 94/94/94 95/95/95
f 87/87/87 90/90/90 96/96/96
f 93/93/93 87/87/87 96/96/96
f 97/97/97 90/90/90 84/84/84
f 91/91/91 97/97/97 84/84/84
f 91/91/91 85/85/85 98/98/98
f 85/85/85 92/92/92 98/98/98
f 93/93/93 99/99/99 88/88/88
f 88/88/88 99/99/99 94/94/94
f 94/94/94 100/100/100 95/95/95
f 95/95/95 100/100/100 101/101/101
f 93/93/93 96/96/96 102/102/102
f 99/99/99 93/93/93 102/102/102
f 103/103/103 96/96/96 90/90/90
f 97/97/97 103/103/103 90/90/90
f 97/97/97 91/91/91 104/104/104
f 91/91/91 98/98/98 104/104/104
f 99/99/99 105/105/105 94/94/94
f 94/94/94 105/105/105 100/100/100
f 100/100/100 106/106/106 101/101/101
f 101/101/101 106/106/106 107/107/107
f 99/99/99 102/102/102 108/108/108
f 105/105/105 99/99/99 108/108/108
f 109/109/109 102/102/102 96/96/96
f 103/103/103 109/109/109 96/96/96
f 103/103/103 97/97/97 110/110/110
f 97/97/97 104/104/104 110/110/110
f 105/105/105 111/111/111 100/100/100
f 100/100/100 111/111/111 106/106/106
f 106/106/106 112/112/112 107/107/107
f 107/107/107 112/112/112 113/113/113
f 105/105/105 108/108/108 114/114/114
f 111/111/111 105/105/105 114/114/114
f 115/115/115 108/108/108 102/102/102
f 109/109/109 115/115/115 102/102/102
f 109/109/109 103/103/103 116/116/116
f 103/103/103 110/110/110 116/116/116
f 111/111/111 117/117/117 106/106/106
f 106/106/106 117/117/117 112/112/112
f 112/112/112 118/118/118 113/113/113
f 113/113/113 118/118/118 119/119/119
f 111/111/111 114/114/114 120/120/120
f 117/117/117 111/111/111 120/120/120
f 121/121/121 114/114/114 108/108/108
f 115/115/115 121/121/121 108/108/108
f 115/115/115 109/109/109 122/122/122
f 109/109/109 116/116/116 122/122/122
f 117/117/117 123/123/123 112/112/112
f 112/112/112 123/123/123 118/118/118
f 118/118/118 124/124/124 119/119/119
f 119/119/119 124/124/124 125/125/125
f 117/117/117 120/120/120 126/126/126
f 123/123/123 117/117/117 126/126/126
f 127/127/127 120/120/120 114/114/114
f 121/121/121 127/127/127 114/114/114
f 121/121/121 115/115/115 128/128/128
f 115/115/115 122/122/122 128/128/128
f 123/123/123 129/129/129 118/118/118
f 118/118/118 129/129/129 124/124/124
f 124/124/124 130/130/130 125/125/125
f 125/125/125 130/130/130 131/131/131
f 123/123/123 126/126/126 132/132/132
f 129/129/129 123/123/123 132/132/132
f 133/133/133 126/126/126 120/120/120
f 127/127/127 133/133/133 120/120/120
f 127/127/127 121/121/121 134/134/134
f 121/121/121 128/128/128 134/134/134
f 129/129/129 135/135/135 124/124/124
f 124/124/124 135/135/135 130/130/130
f 130/130/130 136/136/136 131/131/131
f 131/131/131 136/136/136 137/137/137
f 129/129/129 132/132/132 138/138/138
f 135/135/135 129/129/129 138/138/138
f 139/139/139 132/132/132 126/126/126
f 133/133/133 139/139/139 126/126/126
f 133/133/133 127/127/127 140/140/140
f 127/127/127 134/134/134 140/140/140
f 135/135/135 141/141/141 130/130/130
f 130/130/130 141/141/141 136/136/136
f 136/136/136 142/142/142 137/137/137
f 137/137/137 142/142/142 143/143/143
f 135/135/135 138/138/138 144/144/144
f 141/141/141 135/135/135 144/144/144
f 145/145/145 138/138/138 132/132/132
f 139/139/139 145/145/145 132/132/132
f 139/139/139 133/133/133 146/146/146
f 133/133/133 140/140/140 146/146/146
f 141/141/141 147/147/147 136/136/136
f 136/136/136 147/147/147 142/142/142
f 142/142/142 148/148/148 143/143/143
f 143/143/143 148/148/148 149/149/149
f 141/141/141 144/144/144 150/150/150
f 147/147/147 141/141/141 150/150/150
f 151/151/151 144/144/144 138/138/138
f 145/145/145 151/151/151 138/138/138
f 145/145/145 139/139/139 152/152/152
f 139/139/139 146/146/146 152/152/152
f 147/147/147 153/153/153 142/142/142
f 142/142/142 153/153/153 148/148/148
f 148/148/148 154/154/154 149/149/149
f 149/149/149 154/154/154 155/155/155
f 147/147/147 150/150/150 156/156/156
f 153/153/153 147/147/147 156/156/156
f 157/157/157 150/150/150 144/144/144
f 151/151/151 157/157/157 144/144/144
f 151/151/151 145/145/145 158/158/158
f 145/145/145 152/152/152 158/158/158
f 153/153/153 159/159/159 148/148/148
f 148/148/148 159/159/159 154/154/154
f 154/154/154 160/160/160 155/155/155
f 155/155/155 160/160/160 161/161/161
f 153/153/153 156/156/156 162/162/162
f 159/159/159 153/153/153 162/162/162
f 163/163/163 156/156/156 150/150/150
f 157/157/157 163/163/163 150/150/150
f 157/157/157 151/151/151 164/164/164
f 151/151/151 158/158/158 164/164/164
f 159/159/159 165/165/165 154/154/154
f 154/154/154 165/165/165 160/160/160
f 160/160/160 166/166/166 161/161/161
f 161/161/161 166/166/166 167/167/167
f 159/159/159 162/162/162 168/168/168
f 165/165/165 159/159/159 168/168/168
f 169/169/169 162/162/162 156/156/156
f 163/163/163 169/169/169 156/156/156
f 163/163/163 157/157/157 170/170/170
f 157/157/157 164/164/164 170/170/170
f 165/165/165 171/171/171 160/160/160
f 160/160/160 171/171/171 166/166/166
f 166/166/166 172/172/172 167/167/167
f 167/167/167 172/172/172 173/173/173
f 165/165/165 168/168/168 174/174/174
f 171/171/171 165/165/165 174/174/174
f 175/175/175 168/168/168 162/162/162
f 169/169/169 175/175/175 162/162/162
f 169/169/169 163/163/163 176/176/176
f 163/163/163 170/170/170 176/176/176
f 171/171/171 177/177/177 166/166/166
f 166/166/166 177/177/177 172/172/172
f 172/172/172 178/178/178 173/173/173
f 173/173/173 178/178/178 179/179/179
f 178/178/178 180/180/180 179/179/179
f 172/172/172 181/181/181 178/178/178
f 177/177/177 181/181/181 172/172/172
f 178/178/178 182/182/182 180/180/180
f 181/181/181 182/182/182 178/178/178
f 182/182/182 183/183/183 180/180/180
f 183/183/183 182/182/182 184/184/184
f 182/182/182 185/185/185 184/184/184
f 182/182/182 181/181/181 185/185/185
f 186/186/186 184/184/184 185/185/185
f 177/177/177 171/171/171 187/187/187
f 171/171/171 174/174/174 187/187/187
f 181/181/181 177/177/177 188/188/188
f 181/181/181 188/188/188 185/185/185
f 177/177/177 187/187/187 188/188/188
f 189/189/189 186/186/186 185/185/185
f 189/189/189 185/185/185 188/188/188
f 186/186/186 189/189/189 190/190/190
f 191/191/191 188/188/188 187/187/187
f 191/191/191 189/189/189 188/188/188
f 189/189/189 192/192/192 190/190/190
f 189/189/189 191/191/191 192/192/192
f 190/190/190 192/192/192 193/193/193
f 194/194/194 187/187/187 174/174/174
f 194/194/194 191/191/191 187/187/187
f 192/192/192 195/195/195 193/193/193
f 193/193/193 195/195/195 196/196/196
f 191/191/191 197/197/197 192/192/192
f 191/191/191 194/194/194 197/197/197
f 192/192/192 197/197/197 195/195/195
f 198/198/198 194/194/194 174/174/174
f 198/198/198 174/174/174 168/168/168
f 175/175/175 198/198/198 168/168/168
f 194/194/194 199/199/199 197/197/197
f 194/194/194 198/198/198 199/199/199
f 197/197/197 200/200/200 195/195/195
f 197/197/197 199/199/199 200/200/200
f 195/195/195 201/201/201 196/196/196
f 195/195/195 200/200/200 201/201/201
f 198/198/198 175/175/175 202/202/202
f 198/198/198 202/202/202 199/199/199
f 199/199/199 203/203/203 200/200/200
f 199/199/199 202/202/202 203/203/203
f 175/175/175 204/204/204 202/202/202
f 175/175/175 169/169/169 204/204/204
f 169/169/169 176/176/176 204/204/204
f 202/202/202 204/204/204 205/205/205
f 202/202/202 205/205/205 203/203/203
f 200/200/200 203/203/203 206/206/206
f 200/200/200 206/206/206 201/201/201
f 201/201/201 207/207/207 196/196/196
f 207/207/207 208/208/208 196/196/196
f 208/208/208 207/207/207 209/209/209
f 204/204/204 176/176/176 210/210/210
f 204/204/204 210/210/210 205/205/205
f 203/203/203 205/205/205 211/211/211
f 203/203/203 211/211/211 206/206/206
f 212/212/212 207/207/207 201/201/201
f 206/206/206 212/212/212 201/201/201
f 207/207/207 213/213/213 209/209/209
f 207/207/207 212/212/212 213/213/213
f 214/214/214 209/209/209 213/213/213
f 215/215/215 212/212/212 206/206/206
f 211/211/211 215/215/215 206/206/206
f 205/205/205 216/216/216 211/211/211
f 205/205/205 210/210/210 216/216/216
f 176/176/176 217/217/217 210/210/210
f 176/176/176 170/170/170 217/217/217
f 212/212/212 218/218/218 213/213/213
f 212/212/212 215/215/215 218/218/218
f 219/219/219 214/214/214 213/213/213
f 219/219/219 213/213/213 218/218/218
f 220/220/220 215/215/215 211/211/211
f 216/216/216 220/220/220 211/211/211
f 210/210/210 221/221/221 216/216/216
f 210/210/210 217/217/217 221/221/221
f 170/170/170 222/222/222 217/217/217
f 170/170/170 164/164/164 222/222/222
f 215/215/215 223/223/223 218/218/218
f 215/215/215 220/220/220 223/223/223
f 224/224/224 220/220/220 216/216/216
f 221/221/221 224/224/224 216/216/216
f 217/217/217 225/225/225 221/221/221
f 217/217/217 222/222/222 225/225/225
f 164/164/164 226/226/226 222/222/222
f 164/164/164 158/158/158 226/226/226
f 227/227/227 218/218/218 223/223/223
f 227/227/227 219/219/219 218/218/218
f 220/220/220 228/228/228 223/223/223
f 220/220/220 224/224/224 228/228/228
f 229/229/229 224/224/224 221/221/221
f 225/225/225 229/229/229 221/221/221
f 222/222/222 230/230/230 225/225/225
f 222/222/222 226/226/226 230/230/230
f 158/158/158 231/231/231 226/226/226
f 158/158/158 152/152/152 231/231/231
f 232/232/232 227/227/227 223/223/223
f 232/232/232 223/223/223 228/228/228
f 224/224/224 233/233/233 228/228/228
f 224/224/224 229/229/229 233/233/233
f 234/234/234 229/229/229 225/225/225
f 230/230/230 234/234/234 225/225/225
f 226/226/226 235/235/235 230/230/230
f 226/226/226 231/231/231 235/235/235
f 152/152/152 236/236/236 231/231/231
f 152/152/152 146/146/146 236/236/236
f 237/237/237 232/232/232 228/228/228
f 237/237/237 228/228/228 233/233/233
f 229/229/229 238/238/238 233/233/233
f 229/229/229 234/234/234 238/238/238
f 239/239/239 234/234/234 230/230/230
f 235/235/235 239/239/239 230/230/230
f 231/231/231 240/240/240 235/235/235
f 231/231/231 236/236/236 240/240/240
f 146/146/146 241/241/241 236/236/236
f 146/146/146 140/140/140 241/241/241
f 242/242/242 237/237/237 233/233/233
f 242/242/242 233/233/233 238/238/238
f 234/234/234 243/243/243 238/238/238
f 234/234/234 239/239/239 243/243/243
f 244/244/244 239/239/239 235/235/235
f 240/240/240 244/244/244 235/235/235
f 236/236/236 245/245/245 240/240/240
f 236/236/236 241/241/241 245/245/245
f 140/140/140 246/246/246 241/241/241
f 140/140/140 134/134/134 246/246/246
f 247/247/247 242/242/242 238/238/238
f 247/247/247 238/238/238 243/243/243
f 239/239/239 248/248/248 243/243/243
f 239/239/239 244/244/244 248/248/248
f 249/249/249 244/244/244 240/240/240
f 245/245/245 249/249/249 240/240/240
f 241/241/241 250/250/250 245/245/245
f 241/241/241 246/246/246 250/250/250
f 134/134/134 251/251/251 246/246/246
f 134/134/134 128/128/128 251/251/251
f 252/252/252 247/247/247 243/243/243
f 252/252/252 243/243/243 248/248/248
f 244/244/244 253/253/253 248/248/248
f 244/244/244 249/249/249 253/253/253
f 254/254/254 249/249/249 245/245/245
f 250/250/250 254/254/254 245/245/245
f 246/246/246 255/255/255 250/250/250
f 246/246/246 251/251/251 255/255/255
f 128/128/128 256/256/256 251/251/251
f 128/128/128 122/122/122 256/256/256
f 257/257/257 252/252/252 248/248/248
f 257/257/257 248/248/248 253/253/253
f 249/249/249 258/258/258 253/253/253
f 249/249/249 254/254/254 258/258/258
f 259/259/259 254/254/254 250/250/250
f 255/255/255 259/259/259 250/250/250
f 251/251/251 260/260/260 255/255/255
f 251/251/251 256/256/256 260/260/260
f 122/122/122 261/261/261 256/256/256
f 122/122/122 116/116/116 261/261/261
f 262/262/262 257/257/257 253/253/253
f 262/262/262 253/253/253 258/258/258
f 254/254/254 263/263/263 258/258/258
f 254/254/254 259/259/259 263/263/263
f 264/264/264 259/259/259 255/255/255
f 260/260/260 264/264/264 255/255/255
f 256/256/256 265/265/265 260/260/260
f 256/256/256 261/261/261 265/265/265
f 116/116/116 266/266/266 261/261/261
f 116/116/116 110/110/110 266/266/266
f 267/267/267 262/262/262 258/258/258
f 267/267/267 258/258/258 263/263/263
f 259/259/259 268/268/268 263/263/263
f 259/259/259 264/264/264 268/268/268
f 269/269/269 264/264/264 260/260/260
f 265/265/265 269/269/269 260/260/260
f 261/261/261 270/270/270 265/265/265
f 261/261/261 266/266/266 270/270/270
f 110/110/110 271/271/271 266/266/266
f 110/110/110 104/104/104 271/271/271
f 272/272/272 267/267/267 263/263/263
f 272/272/272 263/263/263 268/268/268
f 264/264/264 273/273/273 268/268/268
f 264/264/264 269/269/269 273/273/273
f 274/274/274 269/269/269 265/265/265
f 270/270/270 274/274/274 265/265/265
f 266/266/266 275/275/275 270/270/270
f 266/266/266 271/271/271 275/275/275
f 104/104/104 276/276/276 271/271/271
f 104/104/104 98/98/98 276/276/276
f 277/277/277 272/272/272 268/268/268
f 277/277/277 268/268/268 273/273/273
f 269/269/269 278/278/278 273/273/273
f 269/269/269 274/274/274 278/278/278
f 279/279/279 274/274/274 270/270/270
f 275/275/275 279/279/279 270/270/270
f 271/271/271 280/280/280 275/275/275
f 271/271/271 276/276/276 280/280/280
f 98/98/98 281/281/281 276/276/276
f 98/98/98 92/92/92 281/281/281
f 282/282/282 277/277/277 273/273/273
f 282/282/282 273/273/273 278/278/278
f 274/274/274 283/283/283 278/278/278
f 274/274/274 279/279/279 283/283/283
f 284/284/284 279/279/279 275/275/275
f 280/280/280 284/284/284 275/275/275
f 276/276/276 285/285/285 280/280/280
f 276/276/276 281/281/281 285/285/285
f 92/92/92 286/286/286 281/281/281
f 92/92/92 86/86/86 286/286/286
f 287/287/287 282/282/282 278/278/278
f 287/287/287 278/278/278 283/283/283
f 279/279/279 288/288/288 283/283/283
f 279/279/279 284/284/284 288/288/288
f 289/289/289 284/284/284 280/280/280
f 285/285/285 289/289/289 280/280/280
f 281/281/281 290/290/290 285/285/285
f 281/281/281 286/286/286 290/290/290
f 86/86/86 291/291/291 286/286/286
f 86/86/86 80/80/80 291/291/291
f 292/292/292 287/287/287 283/283/283
f 292/292/292 283/283/283 288/288/288
f 284/284/284 293/293/293 288/288/288
f 284/284/284 289/289/289 293/293/293
f 294/294/294 289/289/289 285/285/285
f 290/290/290 294/294/294 285/285/285
f 286/286/286 295/295/295 290/290/290
f 286/286/286 291/291/291 295/295/295
f 80/80/80 296/296/296 291/291/291
f 80/80/80 74/74/74 296/296/296
f 297/297/297 292/292/292 288/288/288
f 297/297/297 288/288/288 293/293/293
f 289/289/289 298/298/298 293/293/293
f 289/289/289 294/294/294 298/298/298
f 299/299/299 294/294/294 290/290/290
f 295/295/295 299/299/299 290/290/290
f 291/291/291 300/300/300 295/295/295
f 291/291/291 296/296/296 300/300/300
f 74/74/74 301/301/301 296/296/296
f 74/74/74 68/68/68 301/301/301
f 302/302/302 297/297/297 293/293/293
f 302/302/302 293/293/293 298/298/298
f 294/294/294 303/303/303 298/298/298
f 294/294/294 299/299/299 303/303/303
f 304/304/304 299/299/299 295/295/295
f 300/300/300 304/304/304 295/295/295
f 296/296/296 305/305/305 300/300/300
f 296/296/296 301/301/301 305/305/305
f 68/68/68 306/306/306 301/301/301
f 68/68/68 62/62/62 306/306/306
f 307/307/307 302/302/302 298/298/298
f 307/307/307 298/298/298 303/303/303
f 299/299/299 308/308/308 303/303/303
f 299/299/299 304/304/304 308/308/308
f 309/309/309 304/304/304 300/300/300
f 305/305/305 309/309/309 300/300/300
f 301/301/301 310/310/310 305/305/305
f 301/301/301 306/306/306 310/310/310
f 62/62/62 311/311/311 306/306/306
f 62/62/62 56/56/56 311/311/311
f 312/312/312 307/307/307 303/303/303
f 312/312/312 303/303/303 308/308/308
f 304/304/304 313/313/313 308/308/308
f 304/304/304 309/309/309 313/313/313
f 314/314/314 309/309/309 305/305/305
f 310/310/310 314/314/314 305/305/305
f 306/306/306 315/315/315 310/310/310
f 306/306/306 311/311/311 315/315/315
f 56/56/56 316/316/316 311/311/311
f 56/56/56 50/50/50 316/316/316
f 317/317/317 312/312/312 308/308/308
f 317/317/317 308/308/308 313/313/313
f 309/309/309 318/318/318 313/313/313
f 309/309/309 314/314/314 318/318/318
f 319/319/319 314/314/314 310/310/310
f 315/315/315 319/319/319 310/310/310
f 311/311/311 320/320/320 315/315/315
f 311/311/311 316/316/316 320/320/320
f 50/50/50 321/321/321 316/316/316
f 50/50/50 44/44/44 321/321/321
f 322/322/322 317/317/317 313/313/313
f 322/322/322 313/313/313 318/318/318
f 314/314/314 323/323/323 318/318/318
f 314/314/314 319/319/319 323/323/323
f 319/319/319 315/315/315 324/324/324
f 315/315/315 320/320/320 324/324/324
f 316/316/316 325/325/325 320/320/320
f 316/316/316 321/321/321 325/325/325
f 44/44/44 326/326/326 321/321/321
f 44/44/44 38/38/38 326/326/326
f 327/327/327 322/322/322 318/318/318
f 327/327/327 318/318/318 323/323/323
f 319/319/319 328/328/328 323/323/323
f 319/319/319 324/324/324 328/328/328
f 329/329/329 324/324/324 320/320/320
f 325/325/325 329/329/329 320/320/320
f 321/321/321 330/330/330 325/325/325
f 321/321/321 326/326/326 330/330/330
f 38/38/38 331/331/331 326/326/326
f 38/38/38 32/32/32 331/331/331
f 332/332/332 327/327/327 323/323/323
f 332/332/332 323/323/323 328/328/328
f 324/324/324 333/333/333 328/328/328
f 324/324/324 329/329/329 333/333/333
f 334/334/334 329/329/329 325/325/325
f 330/330/330 334/334/334 325/325/325
f 326/326/326 335/335/335 330/330/330
f 326/326/326 331/331/331 335/335/335
f 32/32/32 336/336/336 331/331/331
f 32/32/32 25/25/25 336/336/336
f 337/337/337 332/332/332 328/328/328
f 337/337/337 328/328/328 333/333/333
f 329/329/329 338/338/338 333/333/333
f 329/329/329 334/334/334 338/338/338
f 339/339/339 334/334/334 330/330/330
f 335/335/335 339/339/339 330/330/330
f 331/331/331 340/340/340 335/335/335
f 331/331/331 336/336/336 340/340/340
f 25/25/25 341/341/341 336/336/336
f 25/25/25 26/26/26 341/341/341
f 26/26/26 342/342/342 341/341/341
f 336/336/336 341/341/341 343/343/343
f 336/336/336 343/343/343 340/340/340
f 341/341/341 342/342/342 344/344/344
f 341/341/341 344/344/344 343/343/343
f 342/342/342 345/345/345 344/344/344
f 345/345/345 346/346/346 344/344/344
f 340/340/340 347/347/347 335/335/335
f 347/347/347 339/339/339 335/335/335
f 334/334/334 339/339/339 348/348/348
f 334/334/334 348/348/348 338/338/338
f 343/343/343 349/349/349 340/340/340
f 349/349/349 347/347/347 340/340/340
f 344/344/344 350/350/350 343/343/343
f 346/346/346 350/350/350 344/344/344
f 350/350/350 349/349/349 343/343/343
f 339/339/339 347/347/347 351/351/351
f 339/339/339 351/351/351 348/348/348
f 350/350/350 346/346/346 352/352/352
f 346/346/346 353/353/353 352/352/352
f 347/347/347 349/349/349 354/354/354
f 347/347/347 354/354/354 351/351/351
f 349/349/349 350/350/350 355/355/355
f 350/350/350 352/352/352 355/355/355
f 349/349/349 355/355/355 354/354/354
f 356/356/356 352/352/352 353/353/353
f 357/357/357 356/356/356 353/353/353
f 357/357/357 358/358/358 356/356/356
f 359/359/359 355/355/355 352/352/352
f 356/356/356 359/359/359 352/352/352
f 358/358/358 360/360/360 356/356/356
f 356/356/356 360/360/360 359/359/359
f 358/358/358 361/361/361 360/360/360
f 361/361/361 362/362/362 360/360/360
f 360/360/360 362/362/362 363/363/363
f 360/360/360 363/363/363 359/359/359
f 362/362/362 364/364/364 363/363/363
f 359/359/359 365/365/365 355/355/355
f 365/365/365 354/354/354 355/355/355
f 359/359/359 363/363/363 365/365/365
f 363/363/363 364/364/364 366/366/366
f 363/363/363 366/366/366 365/365/365
f 364/364/364 367/367/367 366/366/366
f 365/365/365 368/368/368 354/354/354
f 365/365/365 366/366/366 368/368/368
f 368/368/368 351/351/351 354/354/354
f 366/366/366 367/367/367 369/369/369
f 366/366/366 369/369/369 368/368/368
f 367/367/367 370/370/370 369/369/369
f 368/368/368 371/371/371 351/351/351
f 368/368/368 369/369/369 371/371/371
f 371/371/371 348/348/348 351/351/351
f 369/369/369 370/370/370 372/372/372
f 369/369/369 372/372/372 371/371/371
f 370/370/370 373/373/373 372/372/372
f 371/371/371 374/374/374 348/348/348
f 371/371/371 372/372/372 374/374/374
f 374/374/374 338/338/338 348/348/348
f 372/372/372 373/373/373 375/375/375
f 372/372/372 375/375/375 374/374/374
f 373/373/373 376/376/376 375/375/375
f 374/374/374 377/377/377 338/338/338
f 374/374/374 375/375/375 377/377/377
f 377/377/377 333/333/333 338/338/338
f 377/377/377 337/337/337 333/333/333
f 375/375/375 376/376/376 378/378/378
f 375/375/375 378/378/378 377/377/377
f 377/377/377 378/378/378 337/337/337
f 376/376/376 379/379/379 378/378/378
f 378/378/378 380/380/380 337/337/337
f 378/378/378 379/379/379 380/380/380
f 337/337/337 380/380/380 332/332/332
f 379/379/379 381/381/381 380/380/380
f 380/380/380 382/382/382 332/332/332
f 380/380/380 381/381/381 382/382/382
f 332/332/332 382/382/382 327/327/327
f 381/381/381 383/383/383 382/382/382
f 382/382/382 384/384/384 327/327/327
f 382/382/382 383/383/383 384/384/384
f 327/327/327 384/384/384 322/322/322
f 383/383/383 385/385/385 384/384/384
f 384/384/384 386/386/386 322/322/322
f 384/384/384 385/385/385 386/386/386
f 322/322/322 386/386/386 317/317/317
f 385/385/385 387/387/387 386/386/386
f 386/386/386 388/388/388 317/317/317
f 386/386/386 387/387/387 388/388/388
f 317/317/317 388/388/388 312/312/312
f 387/387/387 389/389/389 388/388/388
f 388/388/388 390/390/390 312/312/312
f 388/388/388 389/389/389 390/390/390
f 312/312/312 390/390/390 307/307/307
f 389/389/389 391/391/391 390/390/390
f 390/390/390 392/392/392 307/307/307
f 390/390/390 391/391/391 392/392/392
f 307/307/307 392/392/392 302/302/302
f 391/391/391 393/393/393 392/392/392
f 392/392/392 394/394/394 302/302/302
f 392/392/392 393/393/393 394/394/394
f 302/302/302 394/394/394 297/297/297
f 393/393/393 395/395/395 394/394/394
f 394/394/394 396/396/396 297/297/297
f 394/394/394 395/395/395 396/396/396
f 297/297/297 396/396/396 292/292/292
f 395/395/395 397/397/397 396/396/396
f 396/396/396 398/398/398 292/292/292
f 396/396/396 397/397/397 398/398/398
f 292/292/292 398/398/398 287/287/287
f 397/397/397 399/399/399 398/398/398
f 398/398/398 400/400/400 287/287/287
f 398/398/398 399/399/399 400/400/400
f 287/287/287 400/400/400 282/282/282
f 399/399/399 401/401/401 400/400/400
f 400/400/400 402/402/402 282/282/282
f 400/400/400 401/401/401 402/402/402
f 282/282/282 402/402/402 277/277/277
f 401/401/401 403/403/403 402/402/402
f 402/402/402 404/404/404 277/277/277
f 402/402/402 403/403/403 404/404/404
f 277/277/277 404/404/404 272/272/272
f 403/403/403 405/405/405 404/404/404
f 404/404/404 406/406/406 272/272/272
f 404/404/404 405/405/405 406/406/406
f 272/272/272 406/406/406 267/267/267
f 405/405/405 407/407/407 406/406/406
f 406/406/406 408/408/408 267/267/267
f 406/406/406 407/407/407 408/408/408
f 267/267/267 408/408/408 262/262/262
f 407/407/407 409/409/409 408/408/408
f 408/408/408 410/410/410 262/262/262
f 408/408/408 409/409/409 410/410/410
f 262/262/262 410/410/410 257/257/257
f 409/409/409 411/411/411 410/410/410
f 410/410/410 412/412/412 257/257/257
f 410/410/410 411/411/411 412/412/412
f 257/257/257 412/412/412 252/252/252
f 411/411/411 413/413/413 412/412/412
f 412/412/412 414/414/414 252/252/252
f 412/412/412 413/413/413 414/414/414
f 252/252/252 414/414/414 247/247/247
f 413/413/413 415/415/415 414/414/414
f 414/414/414 416/416/416 247/247/247
f 414/414/414 415/415/415 416/416/416
f 247/247/247 416/416/416 242/242/242
f 415/415/415 417/417/417 416/416/416
f 416/416/416 418/418/418 242/242/242
f 416/416/416 417/417/417 418/418/418
f 242/242/242 418/418/418 237/237/237
f 417/417/417 419/419/419 418/418/418
f 418/418/418 420/420/420 237/237/237
f 418/418/418 419/419/419 420/420/420
f 237/237/237 420/420/420 232/232/232
f 419/419/419 421/421/421 420/420/420
f 420/420/420 422/422/422 232/232/232
f 420/420/420 421/421/421 422/422/422
f 232/232/232 422/422/422 227/227/227
f 421/421/421 423/423/423 422/422/422
f 422/422/422 424/424/424 227/227/227
f 422/422/422 423/423/423 424/424/424
f 227/227/227 424/424/424 219/219/219
f 423/423/423 425/425/425 424/424/424
f 424/424/424 426/426/426 219/219/219
f 424/424/424 425/425/425 426/426/426
f 219/219/219 426/426/426 214/214/214
f 425/425/425 427/427/427 426/426/426
f 426/426/426 428/428/428 214/214/214
f 426/426/426 427/427/427 428/428/428
f 427/427/427 429/429/429 428/428/428
f 432/432/432 431/431/431 430/430/430
f 431/431/431 433/433/433 430/430/430
f 434/434/434 432/432/432 430/430/430
f 433/433/433 435/435/435 430/430/430
f 436/436/436 434/434/434 430/430/430
f 435/435/435 437/437/437 430/430/430
f 438/438/438 436/436/436 430/430/430
f 437/437/437 439/439/439 430/430/430
f 440/440/440 438/438/438 430/430/430
f 439/439/439 441/441/441 430/430/430
f 442/442/442 440/440/440 430/430/430
f 441/441/441 443/443/443 430/430/430
f 444/444/444 442/442/442 430/430/430
f 443/443/443 445/445/445 430/430/430
f 446/446/446 444/444/444 430/430/430
f 445/445/445 447/447/447 430/430/430
f 448/448/448 446/446/446 430/430/430
f 447/447/447 449/449/449 430/430/430
f 450/450/450 448/448/448 430/430/430
f 449/449/449 451/451/451 430/430/430
f 452/452/452 450/450/450 430/430/430
f 451/451/451 453/453/453 430/430/430
f 454/454/454 452/452/452 430/430/430
f 453/453/453 455/455/455 430/430/430
f 456/456/456 454/454/454 430/430/430
f 455/455/455 457/457/457 430/430/430
f 458/458/458 456/456/456 430/430/430
f 457/457/457 459/459/459 430/430/430
f 460/460/460 458/458/458 430/430/430
f 459/459/459 461/461/461 430/430/430
f 462/462/462 460/460/460 430/430/430
f 461/461/461 462/462/462 430/430/430

