mtllib material.mtl
usemtl material_0
v -0.00063217 0.00036072 0.00063232
v -0.00063217 0.00036072 -0.00063232
v 0.00063232 0.00036072 -0.00063232
v 0.00063232 0.00036072 0.00063232
v -0.05615448 0.01979258 0.10481440
v -0.05615448 0.02198112 0.10481440
v -0.00138000 0.02198112 0.10481440
v -0.00138000 0.01979258 0.10481440
v -0.05615448 0.02198112 0.09359619
v -0.05615448 0.01979258 0.09359619
v -0.00138000 0.01979258 0.09359619
v -0.00138000 0.02198112 0.09359619
v -0.00138000 0.01979258 0.10481440
v -0.00138000 0.02198112 0.09359619
v -0.00138000 0.01979258 0.09359619
v -0.00138000 0.02198112 0.10481440
v -0.00181610 0.02255495 0.09403198
v -0.00181610 0.02255495 0.10437870
v -0.05615448 0.01979258 0.09359619
v -0.05615448 0.02198112 0.10481440
v -0.05615448 0.01979258 0.10481440
v -0.05615448 0.02198112 0.09359619
v -0.05571823 0.02255495 0.10437870
v -0.05571823 0.02255495 0.09403198
v -0.05615448 0.01979258 0.09046508
v -0.05615448 0.02198112 0.09046508
v 0.00000000 0.02198112 0.09046508
v 0.00000000 0.01979258 0.09046508
v 0.05615448 0.02198112 0.09046508
v 0.05615448 0.01979258 0.09046508
v -0.05615448 0.02198112 0.02839600
v -0.05615448 0.01979258 0.02839600
v 0.00000000 0.01979258 0.02839600
v 0.00000000 0.02198112 0.02839600
v 0.05615448 0.02198112 0.02839600
v 0.05615448 0.01979258 0.02839600
v 0.05615448 0.01979258 0.09046508
v 0.05615448 0.02198112 0.02839600
v 0.05615448 0.01979258 0.02839600
v 0.05615448 0.02198112 0.09046508
v 0.05571838 0.02255495 0.02883179
v 0.05571838 0.02255495 0.09002808
v -0.05615448 0.01979258 0.02839600
v -0.05615448 0.02198112 0.09046508
v -0.05615448 0.01979258 0.09046508
v -0.05615448 0.02198112 0.02839600
v -0.05571823 0.02255495 0.09002808
v -0.05571823 0.02255495 0.02883179
v 0.00101440 0.01979258 0.10481440
v 0.00101440 0.02198112 0.10481440
v 0.05615448 0.02198112 0.10481440
v 0.05615448 0.01979258 0.10481440
v 0.00101440 0.02198112 0.09359619
v 0.00101440 0.01979258 0.09359619
v 0.05615448 0.01979258 0.09359619
v 0.05615448 0.02198112 0.09359619
v 0.05615448 0.01979258 0.10481440
v 0.05615448 0.02198112 0.09359619
v 0.05615448 0.01979258 0.09359619
v 0.05615448 0.02198112 0.10481440
v 0.05571838 0.02255495 0.09403198
v 0.05571838 0.02255495 0.10437870
v 0.00101440 0.01979258 0.09359619
v 0.00101440 0.02198112 0.10481440
v 0.00101440 0.01979258 0.10481440
v 0.00101440 0.02198112 0.09359619
v 0.00145050 0.02255495 0.10437870
v 0.00145050 0.02255495 0.09403198
v -0.05615448 0.02198112 0.10481440
v -0.00181610 0.02255495 0.10437870
v -0.00138000 0.02198112 0.10481440
v -0.05571823 0.02255495 0.10437870
v -0.00225235 0.02272334 0.10394290
v -0.05528198 0.02272334 0.10394290
v -0.00225235 0.02272334 0.09446777
v -0.00181610 0.02255495 0.10437870
v -0.00181610 0.02255495 0.09403198
v -0.05528198 0.02272334 0.09446777
v -0.00181610 0.02255495 0.09403198
v -0.05571823 0.02255495 0.09403198
v -0.05571823 0.02255495 0.10437870
v -0.05571823 0.02255495 0.09403198
v -0.00138000 0.02198112 0.09359619
v -0.05615448 0.02198112 0.09359619
v 0.00000000 0.02198112 0.02839600
v -0.05571823 0.02255495 0.02883179
v -0.05615448 0.02198112 0.02839600
v 0.00000000 0.02255495 0.02883179
v 0.05615448 0.02198112 0.02839600
v -0.05528198 0.02272334 0.02926758
v 0.05571838 0.02255495 0.02883179
v 0.00000000 0.02272334 0.02926758
v 0.05528183 0.02272334 0.02926758
v 0.00101440 0.02198112 0.10481440
v 0.05571838 0.02255495 0.10437870
v 0.05615448 0.02198112 0.10481440
v 0.00145050 0.02255495 0.10437870
v 0.05528183 0.02272334 0.10394290
v 0.00188660 0.02272334 0.10394290
v 0.05528183 0.02272334 0.09446777
v 0.05571838 0.02255495 0.10437870
v 0.05571838 0.02255495 0.09403198
v 0.00188660 0.02272334 0.09446777
v 0.05571838 0.02255495 0.09403198
v 0.00145050 0.02255495 0.09403198
v 0.00145050 0.02255495 0.10437870
v 0.00145050 0.02255495 0.09403198
v 0.05615448 0.02198112 0.09359619
v 0.00101440 0.02198112 0.09359619
v -0.05571823 0.02255495 0.02883179
v -0.05528198 0.02272334 0.02926758
v -0.05528198 0.02272334 0.08959229
v -0.05571823 0.02255495 0.09002808
v 0.05571838 0.02255495 0.09002808
v 0.05528183 0.02272334 0.08959229
v 0.05528183 0.02272334 0.02926758
v 0.05571838 0.02255495 0.02883179
v -0.05571823 0.02255495 0.09002808
v -0.05528198 0.02272334 0.08959229
v 0.00000000 0.02272334 0.08959229
v 0.00000000 0.02255495 0.09002808
v -0.05615448 0.02198112 0.09046508
v 0.00000000 0.02198112 0.09046508
v 0.05615448 0.02198112 0.09046508
v 0.05571838 0.02255495 0.09002808
v 0.05528183 0.02272334 0.08959229
v -0.05528198 0.02272334 0.08959229
v -0.05411194 0.02280836 0.08895385
v 0.00000000 0.02280836 0.08895385
v 0.00000000 0.02272334 0.08959229
v 0.05528183 0.02272334 0.08959229
v 0.05411194 0.02280836 0.08895385
v 0.05528183 0.02272334 0.08959229
v 0.05411194 0.02280836 0.08895385
v 0.05411194 0.02280836 0.02990600
v 0.05528183 0.02272334 0.02926758
v 0.00000000 0.02272334 0.02926758
v -0.05411194 0.02280836 0.02990600
v -0.05528198 0.02272334 0.02926758
v 0.00000000 0.02280836 0.02990600
v 0.05528183 0.02272334 0.02926758
v 0.05411194 0.02280836 0.02990600
v -0.05528198 0.02272334 0.02926758
v -0.05411194 0.02280836 0.02990600
v -0.05411194 0.02280836 0.08895385
v -0.05528198 0.02272334 0.08959229
v -0.05411194 0.02280836 0.08895385
v -0.05411194 0.02176843 0.08895385
v 0.00000000 0.02176843 0.08895385
v 0.00000000 0.02280836 0.08895385
v 0.05411194 0.02280836 0.08895385
v 0.05411194 0.02176843 0.08895385
v 0.05411194 0.02280836 0.08895385
v 0.05411194 0.02176843 0.08895385
v 0.05411194 0.02176843 0.02990600
v 0.05411194 0.02280836 0.02990600
v 0.00000000 0.02280836 0.02990600
v -0.05411194 0.02176843 0.02990600
v -0.05411194 0.02280836 0.02990600
v 0.00000000 0.02176843 0.02990600
v 0.05411194 0.02280836 0.02990600
v 0.05411194 0.02176843 0.02990600
v -0.05411194 0.02280836 0.02990600
v -0.05411194 0.02176843 0.02990600
v -0.05411194 0.02176843 0.08895385
v -0.05411194 0.02280836 0.08895385
v -0.17001480 0.02201416 0.01296387
v -0.16977890 0.02201416 0.01411133
v -0.17039430 0.02157825 0.01435669
v -0.17066800 0.02157825 0.01302734
v -0.17001480 0.02201416 -0.13003300
v -0.17066800 0.02157825 -0.13009520
v -0.16977890 0.02201416 -0.13117920
v -0.17039430 0.02157825 -0.13142580
v -0.17066800 0.02014199 0.01302734
v -0.17039430 0.02014199 0.01435669
v -0.17066800 0.02014199 -0.13009520
v -0.16961470 0.02157825 0.01548584
v -0.17039430 0.02014199 -0.13142580
v -0.16961470 0.02014199 0.01548584
v -0.16844800 0.02157825 0.01623779
v -0.16844800 0.02014199 0.01623779
v -0.16961470 0.02014199 -0.13255370
v -0.16961470 0.02157825 -0.13255370
v -0.16844800 0.02014199 -0.13330690
v -0.16844800 0.02157825 -0.13330690
v -0.16977890 0.02201416 0.01411133
v -0.16961470 0.02157825 0.01548584
v -0.17039430 0.02157825 0.01435669
v -0.16914370 0.02201416 0.01502930
v -0.16844800 0.02157825 0.01623779
v -0.16819320 0.02201416 0.01564331
v -0.16707600 0.02157799 0.01650269
v -0.16700740 0.02201416 0.01587158
v -0.00000198 0.02157819 0.01650269
v 0.00000244 0.02201416 0.01587158
v 0.16707180 0.02157839 0.01650391
v -0.16271710 0.02201416 0.01397217
v -0.16425960 0.02201416 0.01367432
v -0.16562500 0.02201416 0.01279297
v 0.16701220 0.02201416 0.01587158
v 0.16844800 0.02157825 0.01623779
v -0.00000229 0.02201416 0.01397217
v -0.16653730 0.02201416 0.01147217
v -0.17001480 0.02201416 0.01296387
v -0.16592970 0.02157825 0.01122803
v -0.16684510 0.02201416 0.00997681
v -0.16515990 0.02157825 0.01234253
v -0.16400790 0.02157825 0.01308594
v -0.16264910 0.02157809 0.01334839
v -0.16684510 0.02201416 -0.12704470
v -0.17001480 0.02201416 -0.13003300
v -0.16977890 0.02201416 -0.13117920
v 0.00000198 0.02157830 0.01334717
v -0.16653730 0.02201416 -0.12854000
v 0.16271250 0.02201416 0.01397217
v 0.16265300 0.02157852 0.01334717
v 0.16425960 0.02201416 0.01367432
v 0.16400790 0.02157825 0.01308594
v 0.16819310 0.02201416 0.01564331
v 0.16961470 0.02157825 0.01548584
v 0.16562520 0.02201416 0.01279297
v 0.16515990 0.02157825 0.01234253
v 0.16914370 0.02201416 0.01502930
v 0.17039410 0.02157825 0.01435669
v 0.16977870 0.02201416 0.01411133
v 0.16653730 0.02201416 0.01147217
v 0.16592970 0.02157825 0.01122803
v 0.16684510 0.02201416 0.00997681
v 0.17001480 0.02201416 0.01296387
v 0.17001480 0.02201416 -0.13003300
v 0.16684510 0.02201416 -0.12704470
v 0.16653730 0.02201416 -0.12854000
v 0.16977870 0.02201416 -0.13117920
v 0.16562520 0.02201416 -0.12986080
v 0.16592970 0.02157825 -0.12829710
v 0.16515990 0.02157825 -0.12941160
v 0.16425960 0.02201416 -0.13074220
v 0.16400790 0.02157825 -0.13015500
v 0.16914370 0.02201416 -0.13209840
v 0.16271710 0.02201416 -0.13104000
v 0.16264910 0.02157809 -0.13041630
v 0.16961470 0.02157825 -0.13255370
v 0.17039410 0.02157825 -0.13142580
v 0.16844800 0.02157825 -0.13330690
v 0.16819310 0.02201416 -0.13271240
v 0.16707580 0.02157799 -0.13357180
v 0.16700740 0.02201416 -0.13293940
v 0.00000198 0.02157819 -0.13357180
v -0.00000229 0.02201416 -0.13293940
v -0.16707180 0.02157839 -0.13357180
v 0.00000244 0.02201416 -0.13104000
v -0.00000198 0.02157830 -0.13041630
v -0.16701220 0.02201416 -0.13293940
v -0.16844800 0.02157825 -0.13330690
v -0.16271250 0.02201416 -0.13104000
v -0.16265300 0.02157852 -0.13041500
v -0.16425960 0.02201416 -0.13074220
v -0.16400790 0.02157825 -0.13015500
v -0.16819320 0.02201416 -0.13271240
v -0.16961470 0.02157825 -0.13255370
v -0.16562500 0.02201416 -0.12986080
v -0.16515990 0.02157825 -0.12941160
v -0.16914370 0.02201416 -0.13209840
v -0.17039430 0.02157825 -0.13142580
v -0.16592970 0.02157825 -0.12829710
v 0.16592970 0.02157825 0.01122803
v 0.16684510 0.02201416 0.00997681
v 0.16653730 0.02201416 0.01147217
v 0.16620000 0.02157825 0.00991455
v 0.16684510 0.02201416 -0.12704470
v 0.16620000 0.02157825 -0.12698360
v 0.16653730 0.02201416 -0.12854000
v 0.16592970 0.02157825 -0.12829710
v 0.16620000 0.02062614 0.00991455
v 0.16592970 0.02062614 0.01122803
v 0.16620000 0.02062614 -0.12698360
v 0.16515990 0.02157825 0.01234253
v 0.16592970 0.02062614 -0.12829710
v 0.16515990 0.02062614 0.01234253
v 0.16400790 0.02157825 0.01308594
v 0.16400790 0.02062614 0.01308594
v 0.16515990 0.02062614 -0.12941160
v 0.16515990 0.02157825 -0.12941160
v 0.16400790 0.02062614 -0.13015500
v 0.16400790 0.02157825 -0.13015500
v -0.16592970 0.02157825 -0.12829710
v -0.16684510 0.02201416 -0.12704470
v -0.16653730 0.02201416 -0.12854000
v -0.16620000 0.02157825 -0.12698360
v -0.16684510 0.02201416 0.00997681
v -0.16620000 0.02157825 0.00991455
v -0.16653730 0.02201416 0.01147217
v -0.16592970 0.02157825 0.01122803
v -0.16620000 0.02062614 -0.12698360
v -0.16592970 0.02062614 -0.12829710
v -0.16620000 0.02062614 0.00991455
v -0.16515990 0.02157825 -0.12941160
v -0.16592970 0.02062614 0.01122803
v -0.16515990 0.02062614 -0.12941160
v -0.16400790 0.02157825 -0.13015500
v -0.16400790 0.02062614 -0.13015500
v -0.16515990 0.02062614 0.01234253
v -0.16515990 0.02157825 0.01234253
v -0.16400790 0.02062614 0.01308594
v -0.16400790 0.02157825 0.01308594
v 0.17039410 0.02157825 -0.13142580
v 0.17001480 0.02201416 -0.13003300
v 0.16977870 0.02201416 -0.13117920
v 0.17066820 0.02157825 -0.13009520
v 0.17001480 0.02201416 0.01296387
v 0.17066820 0.02157825 0.01302734
v 0.16977870 0.02201416 0.01411133
v 0.17039410 0.02157825 0.01435669
v 0.17066820 0.02014199 -0.13009520
v 0.17039410 0.02014199 -0.13142580
v 0.17066820 0.02014199 0.01302734
v 0.16961470 0.02157825 -0.13255370
v 0.17039410 0.02014199 0.01435669
v 0.16961470 0.02014199 -0.13255370
v 0.16844800 0.02157825 -0.13330690
v 0.16844800 0.02014199 -0.13330690
v 0.16961470 0.02014199 0.01548584
v 0.16961470 0.02157825 0.01548584
v 0.16844800 0.02014199 0.01623779
v 0.16844800 0.02157825 0.01623779
v -0.16844800 0.02014199 0.01623779
v -0.16844800 0.02157825 0.01623779
v -0.16707600 0.02157799 0.01650269
v -0.16707180 0.02014199 0.01650391
v -0.00000198 0.02157819 0.01650269
v 0.00000000 0.02014199 0.01650391
v 0.16707180 0.02157839 0.01650391
v 0.16707180 0.02014199 0.01650391
v 0.16844800 0.02157825 0.01623779
v 0.16844800 0.02014199 0.01623779
v -0.16844800 0.02157825 -0.13330690
v -0.16844800 0.02014199 -0.13330690
v -0.16707180 0.02014199 -0.13357180
v -0.16707180 0.02157839 -0.13357180
v 0.00000000 0.02014199 -0.13357180
v 0.00000198 0.02157819 -0.13357180
v 0.16707180 0.02014199 -0.13357180
v 0.16707580 0.02157799 -0.13357180
v 0.16844800 0.02014199 -0.13330690
v 0.16844800 0.02157825 -0.13330690
v -0.16264910 0.02062614 0.01334839
v -0.16400790 0.02157825 0.01308594
v -0.16400790 0.02062614 0.01308594
v -0.16264910 0.02157809 0.01334839
v 0.00000198 0.02157830 0.01334717
v 0.00000000 0.02062614 0.01334839
v 0.16265300 0.02157852 0.01334717
v 0.16264910 0.02062614 0.01334839
v 0.16400790 0.02062614 0.01308594
v 0.16400790 0.02157825 0.01308594
v -0.16265300 0.02157852 -0.13041500
v -0.16400790 0.02062614 -0.13015500
v -0.16400790 0.02157825 -0.13015500
v -0.16264910 0.02062614 -0.13041630
v 0.00000000 0.02062614 -0.13041750
v -0.00000198 0.02157830 -0.13041630
v 0.16264910 0.02062614 -0.13041630
v 0.16264910 0.02157809 -0.13041630
v 0.16400790 0.02157825 -0.13015500
v 0.16400790 0.02062614 -0.13015500
v -0.16400790 0.02062614 0.01308594
v 0.00000000 0.02062614 0.01334839
v -0.16264910 0.02062614 0.01334839
v 0.00000000 0.02062614 0.01308594
v 0.16264910 0.02062614 0.01334839
v -0.16515990 0.02062614 0.01234253
v 0.16400790 0.02062614 0.01308594
v 0.00000000 0.02062614 0.01234253
v -0.16592970 0.02062614 0.01122803
v 0.16515990 0.02062614 0.01234253
v 0.00000000 0.02062614 0.01122803
v -0.16620000 0.02062614 0.00991455
v 0.16592970 0.02062614 0.01122803
v 0.00000000 0.02062614 0.00991455
v -0.16620000 0.02062614 -0.12698360
v 0.16620000 0.02062614 0.00991455
v 0.00000000 0.02062614 -0.12698360
v -0.16592970 0.02062614 -0.12829710
v 0.16620000 0.02062614 -0.12698360
v 0.00000000 0.02062614 -0.12829710
v -0.16515990 0.02062614 -0.12941160
v 0.16592970 0.02062614 -0.12829710
v 0.00000000 0.02062614 -0.12941160
v -0.16400790 0.02062614 -0.13015500
v 0.16515990 0.02062614 -0.12941160
v 0.00000000 0.02062614 -0.13015500
v -0.16264910 0.02062614 -0.13041630
v 0.16400790 0.02062614 -0.13015500
v 0.00000000 0.02062614 -0.13041750
v 0.16264910 0.02062614 -0.13041630
vn 0.00000000 1.00000000 0.00000000
vn 0.00000000 1.00000000 0.00000000
vn 0.00000000 1.00000000 0.00000000
vn 0.00000000 1.00000000 0.00000000
vn 0.00000000 0.00000000 1.00000000
vn 0.00000000 0.10965920 0.99396920
vn 0.00000000 0.10967310 0.99396770
vn 0.00000000 0.00000000 1.00000000
vn 0.00000000 0.10965910 -0.99396920
vn 0.00000000 0.00000000 -1.00000000
vn 0.00000000 0.00000000 -1.00000000
vn 0.00000000 0.10967310 -0.99396770
vn 1.00000000 0.00000000 0.00000000
vn 0.99427250 0.10687480 0.00000000
vn 1.00000000 0.00000000 0.00000000
vn 0.99427250 0.10687480 0.00000000
vn 0.73105510 0.68231840 0.00000000
vn 0.73105510 0.68231840 0.00000000
vn -1.00000000 0.00000000 0.00000000
vn -0.99426280 0.10696500 0.00000000
vn -1.00000000 0.00000000 0.00000000
vn -0.99426280 0.10696500 0.00000000
vn -0.73087370 0.68251270 0.00000000
vn -0.73087370 0.68251270 0.00000000
vn 0.00000000 0.00000000 1.00000000
vn 0.00000000 0.11038510 0.99388890
vn 0.00000000 0.15578860 0.98779050
vn 0.00000000 0.00000000 1.00000000
vn 0.00000000 0.11039960 0.99388740
vn 0.00000000 0.00000000 1.00000000
vn 0.00000000 0.11003940 -0.99392720
vn 0.00000000 0.00000000 -1.00000000
vn 0.00000000 0.00000000 -1.00000000
vn 0.00000000 0.15536380 -0.98785730
vn 0.00000000 0.11005380 -0.99392560
vn 0.00000000 0.00000000 -1.00000000
vn 1.00000000 0.00000000 0.00000000
vn 0.99394270 0.10989970 0.00000000
vn 1.00000000 0.00000000 0.00000000
vn 0.99395510 0.10978770 0.00000000
vn 0.72673740 0.68691530 0.00000000
vn 0.72677270 0.68687800 0.00000000
vn -1.00000000 0.00000000 0.00000000
vn -0.99395600 0.10977940 0.00000000
vn -1.00000000 0.00000000 0.00000000
vn -0.99394360 0.10989130 0.00000000
vn -0.72688590 0.68675830 0.00000000
vn -0.72685060 0.68679550 0.00000000
vn 0.00000000 0.00000000 1.00000000
vn 0.00000000 0.10967810 0.99396720
vn 0.00000000 0.10967810 0.99396720
vn 0.00000000 0.00000000 1.00000000
vn 0.00000000 0.10967810 -0.99396720
vn 0.00000000 0.00000000 -1.00000000
vn 0.00000000 0.00000000 -1.00000000
vn 0.00000000 0.10967810 -0.99396720
vn 1.00000000 0.00000000 0.00000000
vn 0.99426720 0.10692420 0.00000000
vn 1.00000000 0.00000000 0.00000000
vn 0.99426720 0.10692420 0.00000000
vn 0.73087780 0.68250830 0.00000000
vn 0.73087780 0.68250830 0.00000000
vn -1.00000000 0.00000000 0.00000000
vn -0.99426970 0.10690020 0.00000000
vn -1.00000000 0.00000000 0.00000000
vn -0.99426970 0.10690020 0.00000000
vn -0.73102350 0.68235230 0.00000000
vn -0.73102350 0.68235230 0.00000000
vn 0.00000000 0.10965920 0.99396920
vn 0.00000000 0.68624160 0.72737380
vn 0.00000000 0.10967310 0.99396770
vn 0.00000000 0.68623690 0.72737810
vn 0.00453730 0.99968980 0.02448789
vn -0.00453713 0.99968980 0.02448789
vn 0.00453730 0.99968980 -0.02448789
vn 0.73105510 0.68231840 0.00000000
vn 0.73105510 0.68231840 0.00000000
vn -0.00453713 0.99968980 -0.02448789
vn 0.00000000 0.68624120 -0.72737410
vn -0.73087370 0.68251270 0.00000000
vn -0.73087370 0.68251270 0.00000000
vn 0.00000000 0.68623650 -0.72737850
vn 0.00000000 0.10967310 -0.99396770
vn 0.00000000 0.10965910 -0.99396920
vn 0.00000000 0.15536380 -0.98785730
vn 0.00000000 0.68677050 -0.72687440
vn 0.00000000 0.11003940 -0.99392720
vn 0.00000000 0.76066290 -0.64914720
vn 0.00000000 0.11005380 -0.99392560
vn 0.00000000 0.93278970 -0.36042090
vn 0.00000000 0.68674890 -0.72689480
vn 0.00000000 0.93278990 -0.36042090
vn 0.00000000 0.93278990 -0.36042090
vn 0.00000000 0.10967810 0.99396720
vn 0.00000000 0.68622170 0.72739240
vn 0.00000000 0.10967810 0.99396720
vn 0.00000000 0.68626220 0.72735410
vn 0.00450578 0.99968990 0.02449166
vn -0.00450754 0.99969010 0.02448665
vn 0.00450578 0.99968990 -0.02449159
vn 0.73087780 0.68250830 0.00000000
vn 0.73087780 0.68250830 0.00000000
vn -0.00450754 0.99969010 -0.02448657
vn 0.00000000 0.68622180 -0.72739240
vn -0.73102350 0.68235230 0.00000000
vn -0.73102350 0.68235230 0.00000000
vn 0.00000000 0.68626250 -0.72735390
vn 0.00000000 0.10967810 -0.99396720
vn 0.00000000 0.10967810 -0.99396720
vn -0.72685060 0.68679550 0.00000000
vn -0.36005900 0.93292950 0.00000000
vn -0.36005900 0.93292950 0.00000000
vn -0.72688590 0.68675830 0.00000000
vn 0.72677270 0.68687800 0.00000000
vn 0.35991480 0.93298520 0.00000000
vn 0.35991480 0.93298520 0.00000000
vn 0.72673740 0.68691530 0.00000000
vn 0.00000000 0.68751750 0.72616770
vn 0.00000000 0.93279030 0.36041930
vn 0.00000000 0.93279000 0.36042010
vn 0.00000000 0.76111330 0.64861900
vn 0.00000000 0.11038510 0.99388890
vn 0.00000000 0.15578860 0.98779050
vn 0.00000000 0.11039960 0.99388740
vn 0.00000000 0.68749580 0.72618830
vn 0.00000000 0.93278970 0.36042100
vn 0.00000000 0.99124920 0.13200380
vn 0.00000000 0.77090750 -0.63694700
vn 0.00000000 0.56030140 -0.82828880
vn 0.00000000 0.99124930 0.13200300
vn 0.00000000 0.99124940 0.13200220
vn 0.00000000 0.77089920 -0.63695700
vn 0.07247774 0.99737000 0.00000000
vn -0.51128120 0.85941340 0.00000000
vn -0.51128120 0.85941340 0.00000000
vn 0.07247774 0.99737000 0.00000000
vn 0.00000000 0.99124920 -0.13200380
vn 0.00000000 0.77090790 0.63694670
vn 0.00000000 0.99124910 -0.13200480
vn 0.00000000 0.56030160 0.82828870
vn 0.00000000 0.99124930 -0.13200270
vn 0.00000000 0.77089950 0.63695690
vn -0.07246514 0.99737100 0.00000000
vn 0.51122650 0.85944610 0.00000000
vn 0.51122650 0.85944610 0.00000000
vn -0.07246514 0.99737100 0.00000000
vn 0.00000000 0.77090750 -0.63694700
vn 0.00000000 0.00000000 -1.00000000
vn 0.00000000 0.00000000 -1.00000000
vn 0.00000000 0.56030140 -0.82828880
vn 0.00000000 0.77089920 -0.63695700
vn 0.00000000 0.00000000 -1.00000000
vn -0.51128120 0.85941340 0.00000000
vn -1.00000000 0.00000000 0.00000000
vn -1.00000000 0.00000000 0.00000000
vn -0.51128120 0.85941340 0.00000000
vn 0.00000000 0.56030160 0.82828870
vn 0.00000000 0.00000000 1.00000000
vn 0.00000000 0.77090790 0.63694670
vn 0.00000000 0.00000000 1.00000000
vn 0.00000000 0.77089950 0.63695690
vn 0.00000000 0.00000000 1.00000000
vn 0.51122650 0.85944610 0.00000000
vn 1.00000000 0.00000000 0.00000000
vn 1.00000000 0.00000000 0.00000000
vn 0.51122650 0.85944610 0.00000000
vn -0.19301940 0.98119490 0.00034245
vn -0.09659955 0.99446350 0.04136281
vn -0.88000600 0.29033320 0.37589360
vn -0.94827040 0.31745870 0.00176779
vn -0.19293210 0.98121200 -0.00034296
vn -0.94819520 0.31768320 -0.00176689
vn -0.09653181 0.99447190 -0.04131961
vn -0.88000240 0.29028010 -0.37594300
vn -0.99999820 0.00000000 0.00189503
vn -0.91918270 0.00000000 0.39383140
vn -0.99999820 0.00000000 -0.00189503
vn -0.66664060 0.28496870 0.68875490
vn -0.91918270 0.00000000 -0.39383140
vn -0.69494340 0.00000000 0.71906450
vn -0.35626840 0.28541170 0.88972630
vn -0.37169390 0.00008492 0.92835530
vn -0.69504480 0.00000000 -0.71896650
vn -0.66675400 0.28496160 -0.68864800
vn -0.37157850 0.00000000 -0.92840160
vn -0.35628310 0.28491400 -0.88987990
vn -0.09659955 0.99446350 0.04136281
vn -0.66664060 0.28496870 0.68875490
vn -0.88000600 0.29033320 0.37589360
vn -0.07159753 0.99464610 0.07451881
vn -0.35626840 0.28541170 0.88972630
vn -0.04264471 0.99324120 0.10795090
vn -0.00148281 0.30756520 0.95152580
vn -0.00051912 0.93316950 0.35943620
vn -0.00000144 0.31994900 0.94743470
vn -0.00000023 0.98520260 0.17139410
vn 0.00147275 0.30880570 0.95112410
vn 0.00018090 0.99450640 -0.10467530
vn 0.03892018 0.99463680 -0.09582670
vn 0.05717542 0.99663710 -0.05869834
vn 0.00052538 0.93356010 0.35842060
vn 0.35625380 0.28514390 0.88981800
vn -0.00000023 0.98570010 -0.16850910
vn 0.07501590 0.99666540 -0.03210297
vn -0.19301940 0.98119490 0.00034245
vn 0.81116830 0.46929990 -0.34894640
vn 0.07658985 0.99706260 -0.00015903
vn 0.61399990 0.46693560 -0.63637660
vn 0.33034920 0.45934410 -0.82454380
vn 0.00147241 0.42306430 -0.90609850
vn 0.07665353 0.99705780 0.00015884
vn -0.19293210 0.98121200 -0.00034296
vn -0.09653181 0.99447190 -0.04131961
vn -0.00000038 0.40995710 -0.91210480
vn 0.07503650 0.99666430 0.03208655
vn -0.00017917 0.99444710 -0.10523770
vn -0.00148449 0.42213540 -0.90653160
vn -0.03888851 0.99464180 -0.09578788
vn -0.33039890 0.45939750 -0.82449410
vn 0.04265527 0.99324910 0.10787400
vn 0.66666210 0.28496570 0.68873520
vn -0.05717216 0.99663760 -0.05869229
vn -0.61399590 0.46693670 -0.63637980
vn 0.07160625 0.99464480 0.07452843
vn 0.87998190 0.29035550 0.37593280
vn 0.09657201 0.99446650 0.04135486
vn -0.07500658 0.99666630 -0.03209849
vn -0.81117700 0.46928480 -0.34894640
vn -0.07658334 0.99706310 -0.00015901
vn 0.19300760 0.98119720 0.00034272
vn 0.19292110 0.98121420 -0.00034327
vn -0.07664716 0.99705830 0.00015885
vn -0.07504079 0.99666400 0.03208711
vn 0.09651987 0.99447320 -0.04131734
vn -0.05717333 0.99663850 0.05867594
vn -0.81129960 0.46901290 0.34902690
vn -0.61404190 0.46648680 0.63666530
vn -0.03892088 0.99463300 0.09586690
vn -0.33003370 0.45894640 0.82489140
vn 0.07161309 0.99464430 -0.07452786
vn -0.00018074 0.99450490 0.10469020
vn -0.00147282 0.42272140 0.90625850
vn 0.66677390 0.28498310 -0.68861970
vn 0.87998250 0.29029020 -0.37598210
vn 0.35656350 0.28523100 -0.88966610
vn 0.04266714 0.99323660 -0.10798420
vn 0.00147962 0.30756420 -0.95152620
vn 0.00051789 0.93330820 -0.35907600
vn -0.00000096 0.31994900 -0.94743470
vn 0.00000015 0.98521300 -0.17133380
vn -0.00146976 0.30879290 -0.95112820
vn 0.00000023 0.98569350 0.16854830
vn 0.00000105 0.40962400 0.91225440
vn -0.00052356 0.93362440 -0.35825290
vn -0.35628310 0.28491400 -0.88987990
vn 0.00017900 0.99444550 0.10525320
vn 0.00148609 0.42179410 0.90669040
vn 0.03887966 0.99464030 0.09580758
vn 0.33008160 0.45899670 0.82484440
vn -0.04266912 0.99324450 -0.10791150
vn -0.66675400 0.28496160 -0.68864800
vn 0.05717138 0.99663850 0.05867723
vn 0.61405180 0.46646950 0.63666820
vn -0.07160851 0.99464480 -0.07452599
vn -0.88000240 0.29028010 -0.37594300
vn 0.81130200 0.46900300 0.34903470
vn -0.81117700 0.46928480 -0.34894640
vn -0.07658334 0.99706310 -0.00015901
vn -0.07500658 0.99666630 -0.03209849
vn -0.90111180 0.43358320 -0.00180410
vn -0.07664716 0.99705830 0.00015885
vn -0.90121810 0.43336210 0.00180554
vn -0.07504079 0.99666400 0.03208711
vn -0.81129960 0.46901290 0.34902690
vn -0.99999810 0.00000000 -0.00195520
vn -0.91921660 0.00000000 -0.39375230
vn -0.99999810 0.00000000 0.00195520
vn -0.61399590 0.46693670 -0.63637980
vn -0.91921660 0.00000000 0.39375230
vn -0.69511090 0.00000000 -0.71890270
vn -0.33039890 0.45939750 -0.82449410
vn -0.37203860 -0.00012969 -0.92821720
vn -0.69495590 0.00000000 0.71905240
vn -0.61404190 0.46648680 0.63666530
vn -0.37131240 0.00000000 0.92850800
vn -0.33003370 0.45894640 0.82489140
vn 0.81130200 0.46900300 0.34903470
vn 0.07665353 0.99705780 0.00015884
vn 0.07503650 0.99666430 0.03208655
vn 0.90120360 0.43339210 0.00180543
vn 0.07658985 0.99706260 -0.00015903
vn 0.90109710 0.43361360 -0.00180408
vn 0.07501590 0.99666540 -0.03210297
vn 0.81116830 0.46929990 -0.34894640
vn 0.99999810 0.00000000 0.00195520
vn 0.91921660 0.00000000 0.39375230
vn 0.99999810 0.00000000 -0.00195520
vn 0.61405180 0.46646950 0.63666820
vn 0.91921660 0.00000000 -0.39375230
vn 0.69495590 0.00000000 0.71905240
vn 0.33008160 0.45899670 0.82484440
vn 0.37152640 -0.00013218 0.92842240
vn 0.69511090 0.00000000 -0.71890270
vn 0.61399990 0.46693560 -0.63637660
vn 0.37182190 0.00000000 -0.92830410
vn 0.33034920 0.45934410 -0.82454380
vn 0.87998250 0.29029020 -0.37598210
vn 0.19292110 0.98121420 -0.00034327
vn 0.09651987 0.99447320 -0.04131734
vn 0.94816990 0.31775880 -0.00176868
vn 0.19300760 0.98119720 0.00034272
vn 0.94824500 0.31753460 0.00176952
vn 0.09657201 0.99446650 0.04135486
vn 0.87998190 0.29035550 0.37593280
vn 0.99999820 0.00000000 -0.00189714
vn 0.91916210 0.00000000 -0.39387940
vn 0.99999820 0.00000000 0.00189715
vn 0.66677390 0.28498310 -0.68861970
vn 0.91916210 0.00000000 0.39387940
vn 0.69507310 0.00000000 -0.71893890
vn 0.35656350 0.28523100 -0.88966610
vn 0.37202030 -0.00013342 -0.92822460
vn 0.69497170 0.00000000 0.71903710
vn 0.66666210 0.28496570 0.68873520
vn 0.37157570 0.00000000 0.92840270
vn 0.35625380 0.28514390 0.88981800
vn -0.37169390 0.00008492 0.92835530
vn -0.35626840 0.28541170 0.88972630
vn -0.00148281 0.30756520 0.95152580
vn -0.00156799 0.00084448 0.99999850
vn -0.00000144 0.31994900 0.94743470
vn -0.00000159 0.00063728 0.99999990
vn 0.00147275 0.30880570 0.95112410
vn 0.00157358 0.00042147 0.99999870
vn 0.35625380 0.28514390 0.88981800
vn 0.37157570 0.00000000 0.92840270
vn -0.35628310 0.28491400 -0.88987990
vn -0.37157850 0.00000000 -0.92840160
vn -0.00157038 0.00000000 -0.99999880
vn -0.00146976 0.30879290 -0.95112820
vn -0.00000159 0.00000000 -1.00000000
vn -0.00000096 0.31994900 -0.94743470
vn 0.00156519 -0.00000216 -0.99999880
vn 0.00147962 0.30756420 -0.95152620
vn 0.37202030 -0.00013342 -0.92822460
vn 0.35656350 0.28523100 -0.88966610
vn 0.00159776 -0.00063577 -0.99999860
vn 0.33034920 0.45934410 -0.82454380
vn 0.37182190 0.00000000 -0.92830410
vn 0.00147241 0.42306430 -0.90609850
vn -0.00000038 0.40995710 -0.91210480
vn 0.00000000 -0.00096109 -0.99999950
vn -0.00148449 0.42213540 -0.90653160
vn -0.00158882 -0.00127345 -0.99999800
vn -0.37203860 -0.00012969 -0.92821720
vn -0.33039890 0.45939750 -0.82449410
vn 0.00148609 0.42179410 0.90669040
vn 0.37152640 -0.00013218 0.92842240
vn 0.33008160 0.45899670 0.82484440
vn 0.00159235 -0.00127347 0.99999800
vn 0.00000103 -0.00096108 0.99999950
vn 0.00000105 0.40962400 0.91225440
vn -0.00159914 -0.00063577 0.99999860
vn -0.00147282 0.42272140 0.90625850
vn -0.33003370 0.45894640 0.82489140
vn -0.37131240 0.00000000 0.92850800
vn 0.00000000 1.00000000 0.00000000
vn 0.00000000 1.00000000 0.00000000
vn 0.00000000 1.00000000 0.00000000
vn 0.00000000 1.00000000 0.00000000
vn 0.00000000 1.00000000 0.00000000
vn 0.00000000 1.00000000 0.00000000
vn 0.00000000 1.00000000 0.00000000
vn 0.00000000 1.00000000 0.00000000
vn 0.00000000 1.00000000 0.00000000
vn 0.00000000 1.00000000 0.00000000
vn 0.00000000 1.00000000 0.00000000
vn 0.00000000 1.00000000 -0.00000175
vn 0.00000000 1.00000000 -0.00000175
vn 0.00000000 1.00000000 -0.00000175
vn 0.00000000 1.00000000 0.00000175
vn 0.00000000 1.00000000 -0.00000175
vn 0.00000000 1.00000000 0.00000175
vn 0.00000000 1.00000000 0.00000000
vn 0.00000000 1.00000000 0.00000175
vn 0.00000000 1.00000000 0.00000000
vn 0.00000000 1.00000000 0.00000000
vn 0.00000000 1.00000000 0.00000000
vn 0.00000000 1.00000000 0.00000000
vn 0.00000000 1.00000000 0.00000000
vn 0.00000000 1.00000000 0.00000000
vn 0.00000000 1.00000000 0.00000000
vn 0.00000000 1.00000000 0.00000000
vn 0.00000000 1.00000000 0.00000000
vn 0.00000000 1.00000000 0.00000000
vn 0.00000000 1.00000000 0.00000000
vt -85.46436000 -19.67397000
vt -85.46436000 -18.67397000
vt -84.46436000 -18.67397000
vt -84.46436000 -19.67397000
vt -84.87941000 0.89630110
vt -84.87300000 0.89630090
vt -84.87300000 0.73663730
vt -84.87941000 0.73663750
vt -84.88970000 0.89648530
vt -84.88329000 0.89648280
vt -84.88329000 0.73645370
vt -84.88970000 0.73645620
vt -84.90153000 0.78402890
vt -84.89504000 0.75072920
vt -84.90153000 0.75072850
vt -84.89504000 0.78402960
vt -84.89333000 0.75202170
vt -84.89333000 0.78273580
vt -84.91319000 0.78436940
vt -84.90657000 0.75038760
vt -84.91319000 0.75038790
vt -84.90657000 0.78436920
vt -84.90483000 0.75170530
vt -84.90483000 0.78304980
vt -84.72299000 0.63391360
vt -84.71660000 0.63391480
vt -84.71660000 0.46913720
vt -84.72299000 0.46914590
vt -84.71660000 0.30436930
vt -84.72299000 0.30436830
vt -84.73329000 1.03552300
vt -84.72688000 1.03552300
vt -84.72688000 0.87143570
vt -84.73329000 0.87143580
vt -84.73330000 0.70734300
vt -84.72690000 0.70734290
vt -84.76057000 0.91820470
vt -84.75399000 0.73117640
vt -84.76056000 0.73117740
vt -84.75399000 0.91820350
vt -84.75229000 0.73248740
vt -84.75229000 0.91688630
vt -84.77213000 0.91792240
vt -84.76559000 0.73145850
vt -84.77213000 0.73145130
vt -84.76559000 0.91792950
vt -84.76389000 0.73276780
vt -84.76389000 0.91662000
vt -84.82818000 0.89766300
vt -84.82178000 0.89766460
vt -84.82178000 0.73609800
vt -84.82818000 0.73610050
vt -84.83848000 0.89748500
vt -84.83207000 0.89749160
vt -84.83207000 0.73627110
vt -84.83848000 0.73628000
vt -84.92477000 0.78430180
vt -84.91816000 0.75045530
vt -84.92477000 0.75045820
vt -84.91816000 0.78429880
vt -84.91643000 0.75176990
vt -84.91643000 0.78298600
vt -84.93624000 0.78387420
vt -84.92980000 0.75087810
vt -84.93624000 0.75087810
vt -84.92980000 0.78387420
vt -84.92812000 0.75215830
vt -84.92812000 0.78259720
vt -84.87266000 0.89898220
vt -84.87133000 0.73526500
vt -84.87266000 0.73395740
vt -84.87133000 0.89766430
vt -84.87002000 0.73657970
vt -84.87002000 0.89635180
vt -84.84146000 0.73658800
vt -84.87133000 0.73526500
vt -84.84016000 0.73527320
vt -84.84146000 0.89635030
vt -84.84016000 0.73527320
vt -84.84016000 0.89766660
vt -84.87133000 0.89766430
vt -84.84016000 0.89766660
vt -84.83884000 0.73395720
vt -84.83884000 0.89898190
vt -84.54489000 0.46914440
vt -84.54625000 0.64355120
vt -84.54489000 0.64491330
vt -84.54625000 0.46914380
vt -84.54489000 0.29337560
vt -84.54762000 0.64218070
vt -84.54625000 0.29473580
vt -84.54762000 0.46914440
vt -84.54762000 0.29610770
vt -84.82144000 0.90002890
vt -84.82010000 0.73504980
vt -84.82144000 0.73373470
vt -84.82010000 0.89871150
vt -84.81879000 0.73636900
vt -84.81879000 0.89740310
vt -84.79025000 0.73636780
vt -84.82010000 0.73504980
vt -84.78893000 0.73505230
vt -84.79025000 0.89739610
vt -84.78893000 0.73505230
vt -84.78893000 0.89871410
vt -84.82010000 0.89871150
vt -84.78893000 0.89871410
vt -84.78760000 0.73373220
vt -84.78760000 0.90003040
vt -84.54625000 0.64355120
vt -84.54762000 0.64218070
vt -84.73642000 0.64218000
vt -84.73779000 0.64354500
vt -84.73779000 0.29472950
vt -84.73642000 0.29610130
vt -84.54762000 0.29610770
vt -84.54625000 0.29473580
vt -84.73779000 0.64354500
vt -84.73642000 0.64218000
vt -84.73642000 0.46914380
vt -84.73779000 0.46913750
vt -84.73915000 0.64491270
vt -84.73915000 0.46914380
vt -84.73915000 0.29337500
vt -84.73779000 0.29472950
vt -84.73642000 0.29610130
vt -84.73642000 0.64218000
vt -84.73441000 0.63851380
vt -84.73441000 0.46914560
vt -84.73642000 0.46914380
vt -84.73642000 0.29610130
vt -84.73441000 0.29976720
vt -84.73642000 0.29610130
vt -84.73441000 0.29976720
vt -84.54962000 0.29976700
vt -84.54762000 0.29610770
vt -84.54762000 0.46914440
vt -84.54962000 0.63851360
vt -84.54762000 0.64218070
vt -84.54962000 0.46914550
vt -84.54762000 0.29610770
vt -84.54962000 0.29976700
vt -84.54762000 0.64218070
vt -84.54962000 0.63851360
vt -84.73441000 0.63851380
vt -84.73642000 0.64218000
vt -84.74059000 1.02611000
vt -84.73756000 1.02611100
vt -84.73756000 0.86682550
vt -84.74060000 0.86682910
vt -84.74060000 0.70754800
vt -84.73756000 0.70754440
vt -84.77612000 0.73512870
vt -84.77917000 0.73512820
vt -84.77917000 0.90744040
vt -84.77612000 0.90744080
vt -84.74527000 0.86682900
vt -84.74831000 1.02648200
vt -84.74527000 1.02648000
vt -84.74831000 0.86682740
vt -84.74527000 0.70717410
vt -84.74831000 0.70717250
vt -84.78383000 0.73479160
vt -84.78687000 0.73479930
vt -84.78687000 0.90776900
vt -84.78383000 0.90777710
vt -84.72512000 -0.05835071
vt -84.72512000 -0.06202550
vt -84.72650000 -0.06281316
vt -84.72650000 -0.05855525
vt -84.72512000 0.39942130
vt -84.72650000 0.39962460
vt -84.72512000 0.40309550
vt -84.72650000 0.40388380
vt -84.73111000 -0.05855623
vt -84.73111000 -0.06281415
vt -84.73111000 0.39962360
vt -84.72650000 -0.06642319
vt -84.73112000 0.40388680
vt -84.73111000 -0.06642994
vt -84.72650000 -0.06883594
vt -84.73111000 -0.06883711
vt -84.73111000 0.40750130
vt -84.72650000 0.40749260
vt -84.73111000 0.40990560
vt -84.72650000 0.40990670
vt -85.49149000 0.89793780
vt -85.49564000 0.89743660
vt -85.49224000 0.89978410
vt -85.49426000 0.89602540
vt -85.49792000 0.89392370
vt -85.49612000 0.89315400
vt -85.49872000 0.88977970
vt -85.49680000 0.88958290
vt -85.49872000 0.38607850
vt -85.49680000 0.38606580
vt -85.49872000 -0.11762330
vt -85.49108000 0.87664760
vt -85.49018000 0.88128830
vt -85.48753000 0.88540670
vt -85.49680000 -0.11744150
vt -85.49792000 -0.12177000
vt -85.49108000 0.38608680
vt -85.48355000 0.88816220
vt -85.48804000 0.89864650
vt -85.48281000 0.88633110
vt -85.47903000 0.88908930
vt -85.48618000 0.88401110
vt -85.48840000 0.88053920
vt -85.48920000 0.87644340
vt -85.06593000 0.88909180
vt -85.05692000 0.89864780
vt -85.05346000 0.89792970
vt -85.48918000 0.38607530
vt -85.06141000 0.88816310
vt -85.49108000 -0.10448320
vt -85.48918000 -0.10430120
vt -85.49018000 -0.10914490
vt -85.48840000 -0.10837890
vt -85.49612000 -0.12100010
vt -85.49564000 -0.12529100
vt -85.48753000 -0.11325480
vt -85.48618000 -0.11185760
vt -85.49426000 -0.12387110
vt -85.49224000 -0.12763840
vt -85.49149000 -0.12578270
vt -85.48355000 -0.11600920
vt -85.48281000 -0.11417840
vt -85.47903000 -0.11693780
vt -85.48804000 -0.12649500
vt -85.05692000 -0.12649390
vt -85.06594000 -0.11693540
vt -85.06141000 -0.11601240
vt -85.05346000 -0.12578520
vt -85.05743000 -0.11326300
vt -85.06214000 -0.11417840
vt -85.05878000 -0.11185850
vt -85.05479000 -0.10914470
vt -85.05655000 -0.10838640
vt -85.05069000 -0.12387260
vt -85.05387000 -0.10449480
vt -85.05577000 -0.10428940
vt -85.04932000 -0.12528400
vt -85.05273000 -0.12763990
vt -85.04704000 -0.12176690
vt -85.04884000 -0.12100120
vt -85.04623000 -0.11762700
vt -85.04815000 -0.11743020
vt -85.04623000 0.38607420
vt -85.04815000 0.38608690
vt -85.04623000 0.88977550
vt -85.05387000 0.38606600
vt -85.05577000 0.38608720
vt -85.04815000 0.88959410
vt -85.04704000 0.89392260
vt -85.05387000 0.87663600
vt -85.05577000 0.87645340
vt -85.05479000 0.88129430
vt -85.05655000 0.88053150
vt -85.04884000 0.89315300
vt -85.04932000 0.89744370
vt -85.05743000 0.88540820
vt -85.05878000 0.88401030
vt -85.05069000 0.89601800
vt -85.05273000 0.89979230
vt -85.06214000 0.88633110
vt -84.70741000 -0.06491551
vt -84.70596000 -0.06082241
vt -84.70596000 -0.06571652
vt -84.70739000 -0.06061782
vt -84.70596000 0.38767560
vt -84.70739000 0.38747820
vt -84.70596000 0.39257940
vt -84.70739000 0.39178000
vt -84.71051000 -0.06061809
vt -84.71051000 -0.06491569
vt -84.71051000 0.38747810
vt -84.70739000 -0.06856614
vt -84.71051000 0.39177980
vt -84.71051000 -0.06856632
vt -84.70739000 -0.07099450
vt -84.71051000 -0.07099463
vt -84.71051000 0.39543100
vt -84.70739000 0.39542140
vt -84.71051000 0.39785880
vt -84.70739000 0.39785890
vt -84.69888000 -0.06479864
vt -84.69746000 -0.06069542
vt -84.69746000 -0.06559329
vt -84.69888000 -0.06050123
vt -84.69746000 0.38756900
vt -84.69888000 0.38736120
vt -84.69746000 0.39246270
vt -84.69888000 0.39166270
vt -84.70200000 -0.06050137
vt -84.70200000 -0.06479882
vt -84.70200000 0.38736100
vt -84.69888000 -0.06844957
vt -84.70200000 0.39166250
vt -84.70200000 -0.06844975
vt -84.69888000 -0.07087724
vt -84.70200000 -0.07087746
vt -84.70200000 0.39530320
vt -84.69888000 0.39530330
vt -84.70200000 0.39774110
vt -84.69888000 0.39774130
vt -84.71630000 -0.06310658
vt -84.71490000 -0.05864064
vt -84.71490000 -0.06231499
vt -84.71630000 -0.05883764
vt -84.71490000 0.39971820
vt -84.71630000 0.39992330
vt -84.71490000 0.40339310
vt -84.71630000 0.40418130
vt -84.72089000 -0.05884555
vt -84.72089000 -0.06310484
vt -84.72089000 0.39991530
vt -84.71630000 -0.06672132
vt -84.72089000 0.40417340
vt -84.72089000 -0.06672356
vt -84.71630000 -0.06913534
vt -84.72089000 -0.06913757
vt -84.72089000 0.40779910
vt -84.71632000 0.40780130
vt -84.72089000 0.41021200
vt -84.71630000 0.41020440
vt -85.09824000 0.87503690
vt -85.09402000 0.87504350
vt -85.09404000 0.87102380
vt -85.09824000 0.87101020
vt -85.09402000 0.38169080
vt -85.09824000 0.38168840
vt -85.09402000 -0.10763390
vt -85.09824000 -0.10763360
vt -85.09402000 -0.11165930
vt -85.09824000 -0.11166020
vt -85.08802000 0.87602870
vt -85.08382000 0.87603630
vt -85.08382000 0.87198840
vt -85.08802000 0.87199620
vt -85.08382000 0.38169070
vt -85.08802000 0.38168720
vt -85.08382000 -0.10861680
vt -85.08802000 -0.10862760
vt -85.08382000 -0.11264930
vt -85.08802000 -0.11265710
vt -84.74477000 0.84976940
vt -84.74755000 0.85376910
vt -84.74477000 0.85376830
vt -84.74755000 0.84977590
vt -84.74755000 0.37167940
vt -84.74477000 0.37168030
vt -84.74755000 -0.10642120
vt -84.74477000 -0.10640910
vt -84.74477000 -0.11040800
vt -84.74755000 -0.11040150
vt -84.73626000 0.84835210
vt -84.73905000 0.85231630
vt -84.73626000 0.85231840
vt -84.73905000 0.84833130
vt -84.73905000 0.37167850
vt -84.73626000 0.37168220
vt -84.73907000 -0.10497030
vt -84.73627000 -0.10497110
vt -84.73626000 -0.10895710
vt -84.73905000 -0.10894950
vt -85.12512000 0.85711530
vt -85.12589000 0.37662440
vt -85.12589000 0.85314150
vt -85.12512000 0.37662180
vt -85.12589000 -0.09989685
vt -85.12294000 0.86049870
vt -85.12512000 -0.10387720
vt -85.12294000 0.37662210
vt -85.11967000 0.86275420
vt -85.12294000 -0.10725460
vt -85.11967000 0.37662420
vt -85.11583000 0.86354320
vt -85.11967000 -0.10950580
vt -85.11583000 0.37662260
vt -84.71477000 0.86354420
vt -85.11583000 -0.11029810
vt -84.71477000 0.37662360
vt -84.71092000 0.86274610
vt -84.71477000 -0.11029700
vt -84.71092000 0.37662200
vt -84.70766000 0.86049100
vt -84.71092000 -0.10950800
vt -84.70766000 0.37662410
vt -84.70547000 0.85712350
vt -84.70766000 -0.10725260
vt -84.70547000 0.37662430
vt -84.70472000 0.85314010
vt -84.70547000 -0.10387880
vt -84.70470000 0.37662180
vt -84.70472000 -0.09989420
f 3/3/3 2/2/2 1/1/1
f 4/4/4 3/3/3 1/1/1
f 7/7/7 6/6/6 5/5/5
f 8/8/8 7/7/7 5/5/5
f 11/11/11 10/10/10 9/9/9
f 12/12/12 11/11/11 9/9/9
f 15/15/15 14/14/14 13/13/13
f 14/14/14 16/16/16 13/13/13
f 14/14/14 17/17/17 16/16/16
f 17/17/17 18/18/18 16/16/16
f 21/21/21 20/20/20 19/19/19
f 20/20/20 22/22/22 19/19/19
f 20/20/20 23/23/23 22/22/22
f 23/23/23 24/24/24 22/22/22
f 27/27/27 26/26/26 25/25/25
f 28/28/28 27/27/27 25/25/25
f 29/29/29 27/27/27 28/28/28
f 30/30/30 29/29/29 28/28/28
f 33/33/33 32/32/32 31/31/31
f 34/34/34 33/33/33 31/31/31
f 34/34/34 35/35/35 33/33/33
f 35/35/35 36/36/36 33/33/33
f 39/39/39 38/38/38 37/37/37
f 38/38/38 40/40/40 37/37/37
f 38/38/38 41/41/41 40/40/40
f 41/41/41 42/42/42 40/40/40
f 45/45/45 44/44/44 43/43/43
f 44/44/44 46/46/46 43/43/43
f 44/44/44 47/47/47 46/46/46
f 47/47/47 48/48/48 46/46/46
f 51/51/51 50/50/50 49/49/49
f 52/52/52 51/51/51 49/49/49
f 55/55/55 54/54/54 53/53/53
f 56/56/56 55/55/55 53/53/53
f 59/59/59 58/58/58 57/57/57
f 58/58/58 60/60/60 57/57/57
f 58/58/58 61/61/61 60/60/60
f 61/61/61 62/62/62 60/60/60
f 65/65/65 64/64/64 63/63/63
f 64/64/64 66/66/66 63/63/63
f 64/64/64 67/67/67 66/66/66
f 67/67/67 68/68/68 66/66/66
f 71/71/71 70/70/70 69/69/69
f 70/70/70 72/72/72 69/69/69
f 70/70/70 73/73/73 72/72/72
f 73/73/73 74/74/74 72/72/72
f 73/73/73 75/75/75 74/74/74
f 75/75/75 73/73/73 76/76/76
f 77/77/77 75/75/75 76/76/76
f 75/75/75 78/78/78 74/74/74
f 78/78/78 75/75/75 79/79/79
f 74/74/74 78/78/78 80/80/80
f 81/81/81 74/74/74 80/80/80
f 82/82/82 78/78/78 79/79/79
f 82/82/82 79/79/79 83/83/83
f 84/84/84 82/82/82 83/83/83
f 87/87/87 86/86/86 85/85/85
f 86/86/86 88/88/88 85/85/85
f 85/85/85 88/88/88 89/89/89
f 86/86/86 90/90/90 88/88/88
f 88/88/88 91/91/91 89/89/89
f 90/90/90 92/92/92 88/88/88
f 88/88/88 92/92/92 91/91/91
f 92/92/92 93/93/93 91/91/91
f 96/96/96 95/95/95 94/94/94
f 95/95/95 97/97/97 94/94/94
f 95/95/95 98/98/98 97/97/97
f 98/98/98 99/99/99 97/97/97
f 98/98/98 100/100/100 99/99/99
f 100/100/100 98/98/98 101/101/101
f 102/102/102 100/100/100 101/101/101
f 100/100/100 103/103/103 99/99/99
f 103/103/103 100/100/100 104/104/104
f 99/99/99 103/103/103 105/105/105
f 106/106/106 99/99/99 105/105/105
f 107/107/107 103/103/103 104/104/104
f 107/107/107 104/104/104 108/108/108
f 109/109/109 107/107/107 108/108/108
f 112/112/112 111/111/111 110/110/110
f 113/113/113 112/112/112 110/110/110
f 116/116/116 115/115/115 114/114/114
f 117/117/117 116/116/116 114/114/114
f 120/120/120 119/119/119 118/118/118
f 121/121/121 120/120/120 118/118/118
f 121/121/121 118/118/118 122/122/122
f 123/123/123 121/121/121 122/122/122
f 123/123/123 124/124/124 121/121/121
f 124/124/124 125/125/125 121/121/121
f 121/121/121 125/125/125 120/120/120
f 125/125/125 126/126/126 120/120/120
f 129/129/129 128/128/128 127/127/127
f 130/130/130 129/129/129 127/127/127
f 130/130/130 131/131/131 129/129/129
f 131/131/131 132/132/132 129/129/129
f 135/135/135 134/134/134 133/133/133
f 136/136/136 135/135/135 133/133/133
f 139/139/139 138/138/138 137/137/137
f 138/138/138 140/140/140 137/137/137
f 137/137/137 140/140/140 141/141/141
f 140/140/140 142/142/142 141/141/141
f 145/145/145 144/144/144 143/143/143
f 146/146/146 145/145/145 143/143/143
f 149/149/149 148/148/148 147/147/147
f 150/150/150 149/149/149 147/147/147
f 150/150/150 151/151/151 149/149/149
f 151/151/151 152/152/152 149/149/149
f 155/155/155 154/154/154 153/153/153
f 156/156/156 155/155/155 153/153/153
f 159/159/159 158/158/158 157/157/157
f 158/158/158 160/160/160 157/157/157
f 157/157/157 160/160/160 161/161/161
f 160/160/160 162/162/162 161/161/161
f 165/165/165 164/164/164 163/163/163
f 166/166/166 165/165/165 163/163/163
f 169/169/169 168/168/168 167/167/167
f 170/170/170 169/169/169 167/167/167
f 167/167/167 171/171/171 170/170/170
f 171/171/171 172/172/172 170/170/170
f 172/172/172 171/171/171 173/173/173
f 174/174/174 172/172/172 173/173/173
f 169/169/169 170/170/170 175/175/175
f 176/176/176 169/169/169 175/175/175
f 175/175/175 170/170/170 177/177/177
f 170/170/170 172/172/172 177/177/177
f 178/178/178 169/169/169 176/176/176
f 179/179/179 177/177/177 172/172/172
f 174/174/174 179/179/179 172/172/172
f 180/180/180 178/178/178 176/176/176
f 181/181/181 178/178/178 180/180/180
f 182/182/182 181/181/181 180/180/180
f 183/183/183 179/179/179 174/174/174
f 184/184/184 183/183/183 174/174/174
f 185/185/185 183/183/183 184/184/184
f 186/186/186 185/185/185 184/184/184
f 189/189/189 188/188/188 187/187/187
f 188/188/188 190/190/190 187/187/187
f 188/188/188 191/191/191 190/190/190
f 191/191/191 192/192/192 190/190/190
f 191/191/191 193/193/193 192/192/192
f 193/193/193 194/194/194 192/192/192
f 193/193/193 195/195/195 194/194/194
f 195/195/195 196/196/196 194/194/194
f 195/195/195 197/197/197 196/196/196
f 194/194/194 198/198/198 192/192/192
f 198/198/198 194/194/194 196/196/196
f 192/192/192 199/199/199 190/190/190
f 198/198/198 199/199/199 192/192/192
f 190/190/190 200/200/200 187/187/187
f 199/199/199 200/200/200 190/190/190
f 197/197/197 201/201/201 196/196/196
f 197/197/197 202/202/202 201/201/201
f 203/203/203 198/198/198 196/196/196
f 203/203/203 196/196/196 201/201/201
f 200/200/200 204/204/204 187/187/187
f 187/187/187 204/204/204 205/205/205
f 206/206/206 204/204/204 200/200/200
f 204/204/204 207/207/207 205/205/205
f 208/208/208 206/206/206 200/200/200
f 208/208/208 200/200/200 199/199/199
f 209/209/209 208/208/208 199/199/199
f 209/209/209 199/199/199 198/198/198
f 210/210/210 209/209/209 198/198/198
f 210/210/210 198/198/198 203/203/203
f 207/207/207 211/211/211 205/205/205
f 211/211/211 212/212/212 205/205/205
f 212/212/212 211/211/211 213/213/213
f 214/214/214 210/210/210 203/203/203
f 211/211/211 215/215/215 213/213/213
f 214/214/214 203/203/203 216/216/216
f 217/217/217 214/214/214 216/216/216
f 216/216/216 203/203/203 201/201/201
f 216/216/216 218/218/218 217/217/217
f 218/218/218 216/216/216 201/201/201
f 218/218/218 219/219/219 217/217/217
f 220/220/220 218/218/218 201/201/201
f 202/202/202 220/220/220 201/201/201
f 202/202/202 221/221/221 220/220/220
f 218/218/218 222/222/222 219/219/219
f 222/222/222 218/218/218 220/220/220
f 222/222/222 223/223/223 219/219/219
f 221/221/221 224/224/224 220/220/220
f 224/224/224 222/222/222 220/220/220
f 221/221/221 225/225/225 224/224/224
f 225/225/225 226/226/226 224/224/224
f 222/222/222 227/227/227 223/223/223
f 227/227/227 222/222/222 224/224/224
f 226/226/226 227/227/227 224/224/224
f 227/227/227 228/228/228 223/223/223
f 229/229/229 227/227/227 226/226/226
f 230/230/230 229/229/229 226/226/226
f 229/229/229 230/230/230 231/231/231
f 232/232/232 229/229/229 231/231/231
f 233/233/233 232/232/232 231/231/231
f 234/234/234 233/233/233 231/231/231
f 235/235/235 233/233/233 234/234/234
f 233/233/233 235/235/235 236/236/236
f 235/235/235 237/237/237 236/236/236
f 235/235/235 238/238/238 237/237/237
f 238/238/238 239/239/239 237/237/237
f 240/240/240 235/235/235 234/234/234
f 238/238/238 235/235/235 240/240/240
f 238/238/238 241/241/241 239/239/239
f 241/241/241 242/242/242 239/239/239
f 240/240/240 234/234/234 243/243/243
f 234/234/234 244/244/244 243/243/243
f 240/240/240 243/243/243 245/245/245
f 246/246/246 238/238/238 240/240/240
f 246/246/246 240/240/240 245/245/245
f 241/241/241 238/238/238 246/246/246
f 245/245/245 247/247/247 246/246/246
f 247/247/247 248/248/248 246/246/246
f 248/248/248 241/241/241 246/246/246
f 248/248/248 247/247/247 249/249/249
f 250/250/250 248/248/248 249/249/249
f 241/241/241 248/248/248 250/250/250
f 250/250/250 249/249/249 251/251/251
f 242/242/242 241/241/241 252/252/252
f 252/252/252 241/241/241 250/250/250
f 253/253/253 242/242/242 252/252/252
f 254/254/254 250/250/250 251/251/251
f 252/252/252 250/250/250 254/254/254
f 254/254/254 251/251/251 255/255/255
f 253/253/253 252/252/252 256/256/256
f 256/256/256 252/252/252 254/254/254
f 257/257/257 253/253/253 256/256/256
f 256/256/256 258/258/258 257/257/257
f 258/258/258 256/256/256 254/254/254
f 258/258/258 259/259/259 257/257/257
f 260/260/260 254/254/254 255/255/255
f 260/260/260 258/258/258 254/254/254
f 260/260/260 255/255/255 261/261/261
f 258/258/258 262/262/262 259/259/259
f 262/262/262 258/258/258 260/260/260
f 262/262/262 263/263/263 259/259/259
f 264/264/264 260/260/260 261/261/261
f 264/264/264 262/262/262 260/260/260
f 264/264/264 261/261/261 265/265/265
f 213/213/213 264/264/264 265/265/265
f 213/213/213 215/215/215 264/264/264
f 215/215/215 262/262/262 264/264/264
f 262/262/262 215/215/215 263/263/263
f 215/215/215 266/266/266 263/263/263
f 269/269/269 268/268/268 267/267/267
f 268/268/268 270/270/270 267/267/267
f 268/268/268 271/271/271 270/270/270
f 271/271/271 272/272/272 270/270/270
f 272/272/272 271/271/271 273/273/273
f 274/274/274 272/272/272 273/273/273
f 267/267/267 270/270/270 275/275/275
f 270/270/270 272/272/272 275/275/275
f 276/276/276 267/267/267 275/275/275
f 272/272/272 277/277/277 275/275/275
f 278/278/278 267/267/267 276/276/276
f 279/279/279 277/277/277 272/272/272
f 274/274/274 279/279/279 272/272/272
f 280/280/280 278/278/278 276/276/276
f 281/281/281 278/278/278 280/280/280
f 282/282/282 281/281/281 280/280/280
f 283/283/283 279/279/279 274/274/274
f 284/284/284 283/283/283 274/274/274
f 285/285/285 283/283/283 284/284/284
f 286/286/286 285/285/285 284/284/284
f 289/289/289 288/288/288 287/287/287
f 288/288/288 290/290/290 287/287/287
f 288/288/288 291/291/291 290/290/290
f 291/291/291 292/292/292 290/290/290
f 292/292/292 291/291/291 293/293/293
f 294/294/294 292/292/292 293/293/293
f 290/290/290 295/295/295 287/287/287
f 290/290/290 292/292/292 295/295/295
f 295/295/295 296/296/296 287/287/287
f 292/292/292 297/297/297 295/295/295
f 287/287/287 296/296/296 298/298/298
f 297/297/297 292/292/292 299/299/299
f 292/292/292 294/294/294 299/299/299
f 296/296/296 300/300/300 298/298/298
f 298/298/298 300/300/300 301/301/301
f 300/300/300 302/302/302 301/301/301
f 299/299/299 294/294/294 303/303/303
f 294/294/294 304/304/304 303/303/303
f 303/303/303 304/304/304 305/305/305
f 304/304/304 306/306/306 305/305/305
f 309/309/309 308/308/308 307/307/307
f 308/308/308 310/310/310 307/307/307
f 310/310/310 308/308/308 311/311/311
f 312/312/312 310/310/310 311/311/311
f 312/312/312 311/311/311 313/313/313
f 314/314/314 312/312/312 313/313/313
f 310/310/310 315/315/315 307/307/307
f 315/315/315 316/316/316 307/307/307
f 315/315/315 310/310/310 317/317/317
f 310/310/310 312/312/312 317/317/317
f 307/307/307 316/316/316 318/318/318
f 317/317/317 312/312/312 319/319/319
f 312/312/312 314/314/314 319/319/319
f 316/316/316 320/320/320 318/318/318
f 318/318/318 320/320/320 321/321/321
f 320/320/320 322/322/322 321/321/321
f 319/319/319 314/314/314 323/323/323
f 314/314/314 324/324/324 323/323/323
f 323/323/323 324/324/324 325/325/325
f 324/324/324 326/326/326 325/325/325
f 329/329/329 328/328/328 327/327/327
f 330/330/330 329/329/329 327/327/327
f 331/331/331 329/329/329 330/330/330
f 332/332/332 331/331/331 330/330/330
f 333/333/333 331/331/331 332/332/332
f 334/334/334 333/333/333 332/332/332
f 335/335/335 333/333/333 334/334/334
f 336/336/336 335/335/335 334/334/334
f 339/339/339 338/338/338 337/337/337
f 340/340/340 339/339/339 337/337/337
f 341/341/341 339/339/339 340/340/340
f 342/342/342 341/341/341 340/340/340
f 343/343/343 341/341/341 342/342/342
f 344/344/344 343/343/343 342/342/342
f 345/345/345 343/343/343 344/344/344
f 346/346/346 345/345/345 344/344/344
f 349/349/349 348/348/348 347/347/347
f 348/348/348 350/350/350 347/347/347
f 350/350/350 351/351/351 347/347/347
f 351/351/351 352/352/352 347/347/347
f 351/351/351 353/353/353 352/352/352
f 353/353/353 354/354/354 352/352/352
f 354/354/354 353/353/353 355/355/355
f 353/353/353 356/356/356 355/355/355
f 359/359/359 358/358/358 357/357/357
f 358/358/358 360/360/360 357/357/357
f 360/360/360 361/361/361 357/357/357
f 361/361/361 362/362/362 357/357/357
f 361/361/361 363/363/363 362/362/362
f 363/363/363 364/364/364 362/362/362
f 364/364/364 363/363/363 365/365/365
f 363/363/363 366/366/366 365/365/365
f 369/369/369 368/368/368 367/367/367
f 368/368/368 370/370/370 367/367/367
f 370/370/370 368/368/368 371/371/371
f 367/367/367 370/370/370 372/372/372
f 373/373/373 370/370/370 371/371/371
f 370/370/370 374/374/374 372/372/372
f 374/374/374 370/370/370 373/373/373
f 372/372/372 374/374/374 375/375/375
f 376/376/376 374/374/374 373/373/373
f 374/374/374 377/377/377 375/375/375
f 377/377/377 374/374/374 376/376/376
f 375/375/375 377/377/377 378/378/378
f 379/379/379 377/377/377 376/376/376
f 377/377/377 380/380/380 378/378/378
f 380/380/380 377/377/377 379/379/379
f 378/378/378 380/380/380 381/381/381
f 382/382/382 380/380/380 379/379/379
f 380/380/380 383/383/383 381/381/381
f 383/383/383 380/380/380 382/382/382
f 381/381/381 383/383/383 384/384/384
f 385/385/385 383/383/383 382/382/382
f 383/383/383 386/386/386 384/384/384
f 386/386/386 383/383/383 385/385/385
f 384/384/384 386/386/386 387/387/387
f 388/388/388 386/386/386 385/385/385
f 386/386/386 389/389/389 387/387/387
f 389/389/389 386/386/386 388/388/388
f 387/387/387 389/389/389 390/390/390
f 391/391/391 389/389/389 388/388/388
f 389/389/389 392/392/392 390/390/390
f 392/392/392 389/389/389 391/391/391
f 390/390/390 392/392/392 393/393/393
f 394/394/394 392/392/392 391/391/391
f 392/392/392 395/395/395 393/393/393
f 395/395/395 392/392/392 394/394/394
f 396/396/396 395/395/395 394/394/394

