mtllib material.mtl
usemtl material_0
v -0.08753274 0.70970350 0.05983016
v -0.08647583 0.72774880 0.05890878
v -0.09158150 0.72811130 0.06215393
v -0.09269132 0.71006980 0.06310891
v -0.11593240 0.22483460 0.08458856
v -0.09517534 0.72848190 0.06727166
v -0.12251050 0.22530160 0.08876962
v -0.12551650 0.00935724 0.09939466
v -0.09632230 0.71044430 0.06827962
v -0.09671018 0.72880450 0.07348295
v -0.13077620 0.00973081 0.10273760
v -0.12598580 -0.00074092 0.10030650
v -0.13114510 -0.00037452 0.10358580
v -0.09787305 0.71077010 0.07455519
v -0.09595234 0.72902950 0.07984211
v -0.09710734 0.71099750 0.08098020
v -0.12714070 0.22577920 0.09536327
v -0.13447830 0.01011258 0.10800980
v -0.13477660 -0.00000000 0.10875730
v -0.12911810 0.22619480 0.10336580
v -0.12814170 0.22648480 0.11155890
v -0.13605950 0.01044481 0.11440850
v -0.13632760 0.00032580 0.11503390
v -0.13527880 0.01067666 0.12095940
v -0.13556180 0.00055328 0.12145980
v -0.09710734 0.71099750 0.08098020
v -0.09595234 0.72902950 0.07984211
v -0.09301721 0.72912300 0.08538103
v -0.09414188 0.71109200 0.08657639
v -0.12814170 0.22648480 0.11155890
v -0.08835167 0.72907050 0.08925647
v -0.12436020 0.22660530 0.11869520
v -0.13527880 0.01067666 0.12095940
v -0.08942800 0.71103910 0.09049194
v -0.08266607 0.72888050 0.09087843
v -0.13225520 0.01077291 0.12666540
v -0.13556180 0.00055328 0.12145980
v -0.13259590 0.00064791 0.12705690
v -0.08368357 0.71084690 0.09213070
v -0.07682576 0.72858130 0.08999997
v -0.07778290 0.71054460 0.09124310
v -0.11834920 0.22653780 0.12368830
v -0.12744890 0.01071909 0.13065770
v -0.12788140 0.00059483 0.13097300
v -0.11102380 0.22629280 0.12577800
v -0.10349930 0.22590730 0.12464610
v -0.12159180 0.01052325 0.13232860
v -0.12213590 0.00040277 0.13261200
v -0.11557540 0.01021497 0.13142360
v -0.11623430 0.00010018 0.13172430
v -0.07778290 0.71054460 0.09124310
v -0.07682576 0.72858130 0.08999997
v -0.07172016 0.72821890 0.08675481
v -0.07262441 0.71017850 0.08796443
v -0.10349930 0.22590730 0.12464610
v -0.06812636 0.72784810 0.08163700
v -0.09692125 0.22544020 0.12046520
v -0.11557540 0.01021497 0.13142360
v -0.06899338 0.70980390 0.08279364
v -0.06659148 0.72752570 0.07542573
v -0.11031570 0.00984156 0.12808060
v -0.11623430 0.00010018 0.13172430
v -0.11107500 -0.00026592 0.12844510
v -0.06744272 0.70947810 0.07651805
v -0.06734936 0.72730050 0.06906655
v -0.06820834 0.70925060 0.07009313
v -0.09229102 0.22496270 0.11387150
v -0.10661340 0.00945971 0.12280850
v -0.10744350 -0.00064044 0.12327360
v -0.09031361 0.22454710 0.10586890
v -0.09128994 0.22425730 0.09767584
v -0.10503240 0.00912740 0.11640990
v -0.10589250 -0.00096640 0.11699710
v -0.10581300 0.00889549 0.10985880
v -0.10665830 -0.00119366 0.11057110
v -0.06820834 0.70925060 0.07009313
v -0.06734936 0.72730050 0.06906655
v -0.07028446 0.72720720 0.06352772
v -0.07117385 0.70915630 0.06449693
v -0.09128994 0.22425730 0.09767584
v -0.07494999 0.72725930 0.05965219
v -0.09507149 0.22413680 0.09053953
v -0.10581300 0.00889549 0.10985880
v -0.07588765 0.70920920 0.06058139
v -0.08063568 0.72744950 0.05803030
v -0.10883670 0.00879923 0.10415290
v -0.10665830 -0.00119366 0.11057110
v -0.10962420 -0.00128836 0.10497400
v -0.08163215 0.70940130 0.05894262
v -0.08647583 0.72774880 0.05890878
v -0.08753274 0.70970350 0.05983016
v -0.10108250 0.22420420 0.08554652
v -0.11364300 0.00885312 0.10016060
v -0.11433880 -0.00123535 0.10105780
v -0.10840790 0.22444930 0.08345687
v -0.11593240 0.22483460 0.08458856
v -0.11950020 0.00904904 0.09848972
v -0.12008420 -0.00104314 0.09941883
v -0.12551650 0.00935724 0.09939466
v -0.12598580 -0.00074092 0.10030650
v -0.08647583 0.72774880 0.05890878
v -0.08063568 0.72744950 0.05803030
v -0.07494999 0.72725930 0.05965219
v -0.09158150 0.72811130 0.06215393
v -0.07028446 0.72720720 0.06352772
v -0.09517534 0.72848190 0.06727166
v -0.06734936 0.72730050 0.06906655
v -0.09671018 0.72880450 0.07348295
v -0.06659148 0.72752570 0.07542573
v -0.09595234 0.72902950 0.07984211
v -0.06812636 0.72784810 0.08163700
v -0.09301721 0.72912300 0.08538103
v -0.07172016 0.72821890 0.08675481
v -0.08835167 0.72907050 0.08925647
v -0.07682576 0.72858130 0.08999997
v -0.08266607 0.72888050 0.09087843
v -0.11433880 -0.00123535 0.10105780
v -0.12008420 -0.00104314 0.09941883
v -0.12598580 -0.00074092 0.10030650
v -0.13114510 -0.00037452 0.10358580
v -0.10962420 -0.00128836 0.10497400
v -0.13477660 -0.00000000 0.10875730
v -0.10665830 -0.00119366 0.11057110
v -0.13632760 0.00032580 0.11503390
v -0.10589250 -0.00096640 0.11699710
v -0.13556180 0.00055328 0.12145980
v -0.10744350 -0.00064044 0.12327360
v -0.13259590 0.00064791 0.12705690
v -0.11107500 -0.00026592 0.12844510
v -0.12788140 0.00059483 0.13097300
v -0.11623430 0.00010018 0.13172430
v -0.12213590 0.00040277 0.13261200
v 0.07870281 0.70970350 -0.06716385
v 0.07764590 0.72774880 -0.06624246
v 0.08275159 0.72811110 -0.06948762
v 0.08386138 0.71006970 -0.07044257
v 0.10710240 0.22483450 -0.09192209
v 0.08634542 0.72848190 -0.07460536
v 0.11368050 0.22530160 -0.09610318
v 0.11668660 0.00935721 -0.10672810
v 0.08749237 0.71044430 -0.07561335
v 0.08788027 0.72880440 -0.08081663
v 0.12194620 0.00973084 -0.11007110
v 0.11715590 -0.00074095 -0.10763990
v 0.12231520 -0.00037456 -0.11091920
v 0.08904310 0.71077010 -0.08188885
v 0.08712242 0.72902950 -0.08717582
v 0.08827742 0.71099750 -0.08831389
v 0.11831070 0.22577920 -0.10269690
v 0.12564840 0.01011254 -0.11534330
v 0.12594670 -0.00000011 -0.11609070
v 0.12028820 0.22619480 -0.11069940
v 0.11931180 0.22648470 -0.11889240
v 0.12722960 0.01044477 -0.12174190
v 0.12749760 0.00032576 -0.12236730
v 0.12644890 0.01067654 -0.12829280
v 0.12673180 0.00055332 -0.12879330
v 0.08827742 0.71099750 -0.08831389
v 0.08712242 0.72902950 -0.08717582
v 0.08418728 0.72912300 -0.09271475
v 0.08531196 0.71109200 -0.09391005
v 0.11931180 0.22648470 -0.11889240
v 0.07952174 0.72907050 -0.09659008
v 0.11553030 0.22660520 -0.12602870
v 0.12644890 0.01067654 -0.12829280
v 0.08059806 0.71103900 -0.09782562
v 0.07383614 0.72888050 -0.09821208
v 0.12342520 0.01077279 -0.13399890
v 0.12673180 0.00055332 -0.12879330
v 0.12376600 0.00064787 -0.13439030
v 0.07485364 0.71084690 -0.09946438
v 0.06799583 0.72858130 -0.09733360
v 0.06895297 0.71054460 -0.09857675
v 0.10951920 0.22653770 -0.13102180
v 0.11861900 0.01071905 -0.13799120
v 0.11905140 0.00059486 -0.13830640
v 0.10219380 0.22629270 -0.13311150
v 0.09466942 0.22590730 -0.13197970
v 0.11276180 0.01052321 -0.13966200
v 0.11330590 0.00040272 -0.13994540
v 0.10674550 0.01021493 -0.13875710
v 0.10740440 0.00010020 -0.13905780
v 0.06895297 0.71054460 -0.09857675
v 0.06799583 0.72858130 -0.09733360
v 0.06289023 0.72821890 -0.09408852
v 0.06379449 0.71017850 -0.09529810
v 0.09466942 0.22590730 -0.13197970
v 0.05929643 0.72784810 -0.08897070
v 0.08809129 0.22544020 -0.12779870
v 0.10674550 0.01021493 -0.13875710
v 0.06016344 0.70980390 -0.09012727
v 0.05776154 0.72752570 -0.08275942
v 0.10148580 0.00984158 -0.13541400
v 0.10740440 0.00010020 -0.13905780
v 0.10224500 -0.00026596 -0.13577860
v 0.05861279 0.70947810 -0.08385175
v 0.05851942 0.72730050 -0.07640023
v 0.05937840 0.70925060 -0.07742680
v 0.08346108 0.22496270 -0.12120500
v 0.09778351 0.00945967 -0.13014200
v 0.09861351 -0.00064049 -0.13060700
v 0.08148368 0.22454710 -0.11320240
v 0.08246000 0.22425730 -0.10500940
v 0.09620249 0.00912736 -0.12374330
v 0.09706257 -0.00096644 -0.12433050
v 0.09698308 0.00889545 -0.11719230
v 0.09782835 -0.00119377 -0.11790450
v 0.05937840 0.70925060 -0.07742680
v 0.05851942 0.72730050 -0.07640023
v 0.06145452 0.72720720 -0.07086138
v 0.06234391 0.70915630 -0.07183056
v 0.08246000 0.22425730 -0.10500940
v 0.06612007 0.72725950 -0.06698590
v 0.08624155 0.22413680 -0.09787311
v 0.09698308 0.00889545 -0.11719230
v 0.06705773 0.70920910 -0.06791507
v 0.07180575 0.72744950 -0.06536398
v 0.10000680 0.00879927 -0.11148630
v 0.09782835 -0.00119377 -0.11790450
v 0.10079420 -0.00128840 -0.11230740
v 0.07280222 0.70940130 -0.06627631
v 0.07764590 0.72774880 -0.06624246
v 0.07870281 0.70970350 -0.06716385
v 0.09225261 0.22420420 -0.09288003
v 0.10481300 0.00885309 -0.10749400
v 0.10550890 -0.00123532 -0.10839130
v 0.09957791 0.22444930 -0.09079035
v 0.10710240 0.22483450 -0.09192209
v 0.11067020 0.00904907 -0.10582310
v 0.11125420 -0.00104317 -0.10675230
v 0.11668660 0.00935721 -0.10672810
v 0.11715590 -0.00074095 -0.10763990
v 0.06799583 0.72858130 -0.09733360
v 0.07383614 0.72888050 -0.09821208
v 0.07952174 0.72907050 -0.09659008
v 0.06289023 0.72821890 -0.09408852
v 0.08418728 0.72912300 -0.09271475
v 0.05929643 0.72784810 -0.08897070
v 0.08712242 0.72902950 -0.08717582
v 0.05776154 0.72752570 -0.08275942
v 0.08788027 0.72880440 -0.08081663
v 0.05851942 0.72730050 -0.07640023
v 0.08634542 0.72848190 -0.07460536
v 0.06145452 0.72720720 -0.07086138
v 0.08275159 0.72811110 -0.06948762
v 0.06612007 0.72725950 -0.06698590
v 0.07764590 0.72774880 -0.06624246
v 0.07180575 0.72744950 -0.06536398
v 0.11905140 0.00059486 -0.13830640
v 0.11330590 0.00040272 -0.13994540
v 0.10740440 0.00010020 -0.13905780
v 0.10224500 -0.00026596 -0.13577860
v 0.12376600 0.00064787 -0.13439030
v 0.09861351 -0.00064049 -0.13060700
v 0.12673180 0.00055332 -0.12879330
v 0.09706257 -0.00096644 -0.12433050
v 0.12749760 0.00032576 -0.12236730
v 0.09782835 -0.00119377 -0.11790450
v 0.12594670 -0.00000011 -0.11609070
v 0.10079420 -0.00128840 -0.11230740
v 0.12231520 -0.00037456 -0.11091920
v 0.10550890 -0.00123532 -0.10839130
v 0.11715590 -0.00074095 -0.10763990
v 0.11125420 -0.00104317 -0.10675230
v -0.06791200 0.70970350 -0.08678457
v -0.06699059 0.72774880 -0.08572766
v -0.07023574 0.72811130 -0.09083334
v -0.07119076 0.71006970 -0.09194314
v -0.09267034 0.22483450 -0.11518410
v -0.07535352 0.72848190 -0.09442722
v -0.09685138 0.22530160 -0.12176230
v -0.10747640 0.00935721 -0.12476820
v -0.07636146 0.71044430 -0.09557415
v -0.08156477 0.72880440 -0.09596206
v -0.11081940 0.00973084 -0.13002790
v -0.10838820 -0.00074088 -0.12523760
v -0.11166750 -0.00037449 -0.13039690
v -0.08263698 0.71077010 -0.09712488
v -0.08792397 0.72902950 -0.09520423
v -0.08906201 0.71099740 -0.09635922
v -0.10344500 0.22577920 -0.12639250
v -0.11609160 0.01011254 -0.13373010
v -0.11683900 -0.00000004 -0.13402830
v -0.11144760 0.22619480 -0.12836990
v -0.11964070 0.22648470 -0.12739350
v -0.12249010 0.01044485 -0.13531130
v -0.12311550 0.00032576 -0.13557930
v -0.12904110 0.01067661 -0.13453050
v -0.12954150 0.00055332 -0.13481350
v -0.08906201 0.71099740 -0.09635922
v -0.08792397 0.72902950 -0.09520423
v -0.09346285 0.72912300 -0.09226909
v -0.09465822 0.71109200 -0.09339368
v -0.11964070 0.22648470 -0.12739350
v -0.09733827 0.72907050 -0.08760355
v -0.12677690 0.22660520 -0.12361200
v -0.12904110 0.01067661 -0.13453050
v -0.09857376 0.71103910 -0.08867982
v -0.09896024 0.72888050 -0.08191791
v -0.13474710 0.01077287 -0.13150690
v -0.12954150 0.00055332 -0.13481350
v -0.13513860 0.00064787 -0.13184760
v -0.10021250 0.71084690 -0.08293543
v -0.09808178 0.72858130 -0.07607760
v -0.09932494 0.71054460 -0.07703473
v -0.13177000 0.22653770 -0.11760090
v -0.13873940 0.01071905 -0.12670060
v -0.13905470 0.00059487 -0.12713310
v -0.13385970 0.22629270 -0.11027560
v -0.13272790 0.22590730 -0.10275110
v -0.14041030 0.01052321 -0.12084350
v -0.14069370 0.00040273 -0.12138760
v -0.13950530 0.01021501 -0.11482710
v -0.13980600 0.00010021 -0.11548610
v -0.09932494 0.71054460 -0.07703473
v -0.09808178 0.72858130 -0.07607760
v -0.09483665 0.72821890 -0.07097199
v -0.09604622 0.71017850 -0.07187624
v -0.13272790 0.22590730 -0.10275110
v -0.08971886 0.72784810 -0.06737827
v -0.12854700 0.22544020 -0.09617306
v -0.13950530 0.01021501 -0.11482710
v -0.09087545 0.70980390 -0.06824523
v -0.08350755 0.72752570 -0.06584334
v -0.13616230 0.00984159 -0.10956750
v -0.13980600 0.00010021 -0.11548610
v -0.13652680 -0.00026596 -0.11032670
v -0.08459990 0.70947800 -0.06669458
v -0.07714839 0.72730050 -0.06660125
v -0.07817495 0.70925060 -0.06746018
v -0.12195320 0.22496270 -0.09154280
v -0.13089020 0.00945968 -0.10586520
v -0.13135530 -0.00064048 -0.10669520
v -0.11395060 0.22454710 -0.08956539
v -0.10575760 0.22425730 -0.09054174
v -0.12449160 0.00912744 -0.10428410
v -0.12507880 -0.00096636 -0.10514420
v -0.11794050 0.00889552 -0.10506470
v -0.11865280 -0.00119369 -0.10591000
v -0.07817495 0.70925060 -0.06746018
v -0.07714839 0.72730050 -0.06660125
v -0.07160953 0.72720720 -0.06953631
v -0.07257874 0.70915630 -0.07042569
v -0.10575760 0.22425730 -0.09054174
v -0.06773404 0.72725930 -0.07420187
v -0.09862132 0.22413680 -0.09432329
v -0.11794050 0.00889552 -0.10506470
v -0.06866318 0.70920910 -0.07513949
v -0.06611213 0.72744950 -0.07988758
v -0.11223460 0.00879927 -0.10808850
v -0.11865280 -0.00119369 -0.10591000
v -0.11305570 -0.00128832 -0.10887590
v -0.06702445 0.70940130 -0.08088403
v -0.06699059 0.72774880 -0.08572766
v -0.06791200 0.70970350 -0.08678457
v -0.09362825 0.22420420 -0.10033430
v -0.10824230 0.00885316 -0.11289470
v -0.10913950 -0.00123531 -0.11359050
v -0.09153858 0.22444920 -0.10765970
v -0.09267034 0.22483450 -0.11518410
v -0.10657140 0.00904907 -0.11875190
v -0.10750060 -0.00104310 -0.11933590
v -0.10747640 0.00935721 -0.12476820
v -0.10838820 -0.00074088 -0.12523760
v -0.08792397 0.72902950 -0.09520423
v -0.08156477 0.72880440 -0.09596206
v -0.07535352 0.72848190 -0.09442722
v -0.09346285 0.72912300 -0.09226909
v -0.07023574 0.72811130 -0.09083334
v -0.09733827 0.72907050 -0.08760355
v -0.06699059 0.72774880 -0.08572766
v -0.09896024 0.72888050 -0.08191791
v -0.06611213 0.72744950 -0.07988758
v -0.09808178 0.72858130 -0.07607760
v -0.06773404 0.72725930 -0.07420187
v -0.09483665 0.72821890 -0.07097199
v -0.07160953 0.72720720 -0.06953631
v -0.08971886 0.72784810 -0.06737827
v -0.07714839 0.72730050 -0.06660125
v -0.08350755 0.72752570 -0.06584334
v -0.11683900 -0.00000004 -0.13402830
v -0.12311550 0.00032576 -0.13557930
v -0.12954150 0.00055332 -0.13481350
v -0.13513860 0.00064787 -0.13184760
v -0.11166750 -0.00037449 -0.13039690
v -0.13905470 0.00059487 -0.12713310
v -0.10838820 -0.00074088 -0.12523760
v -0.14069370 0.00040273 -0.12138760
v -0.10750060 -0.00104310 -0.11933590
v -0.13980600 0.00010021 -0.11548610
v -0.10913950 -0.00123531 -0.11359050
v -0.13652680 -0.00026596 -0.11032670
v -0.11305570 -0.00128832 -0.10887590
v -0.13135530 -0.00064048 -0.10669520
v -0.11865280 -0.00119369 -0.10591000
v -0.12507880 -0.00096636 -0.10514420
v 0.05908203 0.70970350 0.07945095
v 0.05816060 0.72774880 0.07839406
v 0.06140576 0.72811130 0.08349974
v 0.06236077 0.71006980 0.08460955
v 0.08384035 0.22483460 0.10785060
v 0.06652353 0.72848190 0.08709352
v 0.08802139 0.22530170 0.11442870
v 0.09864639 0.00935725 0.11743480
v 0.06753148 0.71044430 0.08824049
v 0.07273478 0.72880450 0.08862844
v 0.10198940 0.00973088 0.12269450
v 0.09955817 -0.00074084 0.11790420
v 0.10283750 -0.00037445 0.12306340
v 0.07380703 0.71077010 0.08979122
v 0.07909402 0.72902950 0.08787058
v 0.08023204 0.71099750 0.08902557
v 0.09461506 0.22577920 0.11905890
v 0.10726160 0.01011258 0.12639670
v 0.10800900 0.00000000 0.12669500
v 0.10261760 0.22619480 0.12103640
v 0.11081070 0.22648480 0.12006000
v 0.11366010 0.01044489 0.12797780
v 0.11428550 0.00032580 0.12824590
v 0.12021110 0.01067665 0.12719710
v 0.12071150 0.00055336 0.12748010
v 0.08023204 0.71099750 0.08902557
v 0.07909402 0.72902950 0.08787058
v 0.08463287 0.72912310 0.08493546
v 0.08582824 0.71109200 0.08606012
v 0.11081070 0.22648480 0.12006000
v 0.08850828 0.72907050 0.08026985
v 0.11794690 0.22660530 0.11627860
v 0.12021110 0.01067665 0.12719710
v 0.08974379 0.71103900 0.08134621
v 0.09013025 0.72888050 0.07458427
v 0.12591710 0.01077291 0.12417350
v 0.12071150 0.00055336 0.12748010
v 0.12630860 0.00064791 0.12451430
v 0.09138254 0.71084690 0.07560175
v 0.08925179 0.72858140 0.06874396
v 0.09049497 0.71054460 0.06970114
v 0.12294000 0.22653780 0.11026750
v 0.12990940 0.01071909 0.11936730
v 0.13022470 0.00059490 0.11979970
v 0.12502980 0.22629280 0.10294210
v 0.12389790 0.22590730 0.09541766
v 0.13158030 0.01052325 0.11351010
v 0.13186370 0.00040276 0.11405420
v 0.13067530 0.01021504 0.10749370
v 0.13097600 0.00010024 0.10815270
v 0.09049497 0.71054460 0.06970114
v 0.08925179 0.72858140 0.06874396
v 0.08600669 0.72821890 0.06363837
v 0.08721624 0.71017850 0.06454263
v 0.12389790 0.22590730 0.09541766
v 0.08088886 0.72784810 0.06004457
v 0.11971690 0.22544030 0.08883953
v 0.13067530 0.01021504 0.10749370
v 0.08204547 0.70980390 0.06091160
v 0.07467757 0.72752580 0.05850973
v 0.12733230 0.00984162 0.10223400
v 0.13097600 0.00010024 0.10815270
v 0.12769680 -0.00026593 0.10299330
v 0.07576993 0.70947800 0.05936093
v 0.06831841 0.72730050 0.05926758
v 0.06934496 0.70925060 0.06012658
v 0.11312330 0.22496270 0.08420931
v 0.12206020 0.00945971 0.09853178
v 0.12252530 -0.00064045 0.09936178
v 0.10512070 0.22454710 0.08223193
v 0.09692762 0.22425730 0.08320829
v 0.11566160 0.00912747 0.09695078
v 0.11624880 -0.00096633 0.09781084
v 0.10911060 0.00889556 0.09773134
v 0.10982280 -0.00119366 0.09857664
v 0.06934496 0.70925060 0.06012658
v 0.06831841 0.72730050 0.05926758
v 0.06277955 0.72720720 0.06220264
v 0.06374876 0.70915630 0.06309205
v 0.09692762 0.22425730 0.08320829
v 0.05890405 0.72725950 0.06686823
v 0.08979134 0.22413690 0.08698978
v 0.10911060 0.00889556 0.09773134
v 0.05983321 0.70920910 0.06780588
v 0.05728215 0.72744950 0.07255390
v 0.10340460 0.00879930 0.10075500
v 0.10982280 -0.00119366 0.09857664
v 0.10422570 -0.00128829 0.10154250
v 0.05819445 0.70940140 0.07355041
v 0.05816060 0.72774880 0.07839406
v 0.05908203 0.70970350 0.07945095
v 0.08479827 0.22420420 0.09300080
v 0.09941228 0.00885320 0.10556130
v 0.10030960 -0.00123528 0.10625710
v 0.08270860 0.22444930 0.10032610
v 0.08384035 0.22483460 0.10785060
v 0.09774141 0.00904911 0.11141850
v 0.09867056 -0.00104306 0.11200250
v 0.09864639 0.00935725 0.11743480
v 0.09955817 -0.00074084 0.11790420
v 0.06831841 0.72730050 0.05926758
v 0.07467757 0.72752580 0.05850973
v 0.08088886 0.72784810 0.06004457
v 0.06277955 0.72720720 0.06220264
v 0.08600669 0.72821890 0.06363837
v 0.05890405 0.72725950 0.06686823
v 0.08925179 0.72858140 0.06874396
v 0.05728215 0.72744950 0.07255390
v 0.09013025 0.72888050 0.07458427
v 0.05816060 0.72774880 0.07839406
v 0.08850828 0.72907050 0.08026985
v 0.06140576 0.72811130 0.08349974
v 0.08463287 0.72912310 0.08493546
v 0.06652353 0.72848190 0.08709352
v 0.07909402 0.72902950 0.08787058
v 0.07273478 0.72880450 0.08862844
v 0.12252530 -0.00064045 0.09936178
v 0.11624880 -0.00096633 0.09781084
v 0.10982280 -0.00119366 0.09857664
v 0.10422570 -0.00128829 0.10154250
v 0.12769680 -0.00026593 0.10299330
v 0.10030960 -0.00123528 0.10625710
v 0.13097600 0.00010024 0.10815270
v 0.09867056 -0.00104306 0.11200250
v 0.13186370 0.00040276 0.11405420
v 0.09955817 -0.00074084 0.11790420
v 0.13022470 0.00059490 0.11979970
v 0.10283750 -0.00037445 0.12306340
v 0.12630860 0.00064791 0.12451430
v 0.10800900 0.00000000 0.12669500
v 0.12071150 0.00055336 0.12748010
v 0.11428550 0.00032580 0.12824590
v -0.03806652 0.75267850 -0.14207820
v 0.00000320 0.75267830 -0.14708930
v 0.03807261 0.75267850 -0.14207660
v 0.00000333 0.75023550 -0.15267580
v 0.03951859 0.75023550 -0.14747260
v -0.07354198 0.75267850 -0.12738470
v -0.03951227 0.75023550 -0.14747430
v 0.00000338 0.74310360 -0.15504000
v -0.04012414 0.74310360 -0.14975810
v 0.07634073 0.75023560 -0.13221940
v 0.07354742 0.75267850 -0.12738160
v 0.04013057 0.74310360 -0.14975630
v -0.07633506 0.75023560 -0.13222270
v -0.07751717 0.74310360 -0.13427030
v -0.10400560 0.75267850 -0.10401010
v -0.04012414 0.72268030 -0.14975810
v 0.00000338 0.72268030 -0.15504010
v -0.07751717 0.72268030 -0.13427030
v 0.07752292 0.74310360 -0.13426700
v 0.10796040 0.75023560 -0.10795570
v 0.10401010 0.75267850 -0.10400560
v 0.04013057 0.72268030 -0.14975630
v -0.10962750 0.74310360 -0.10963220
v -0.10795570 0.75023550 -0.10796040
v -0.10962750 0.72268030 -0.10963220
v -0.12738150 0.75267850 -0.07354742
v 0.10963220 0.74310360 -0.10962760
v 0.13222270 0.75023560 -0.07633508
v 0.07752292 0.72268030 -0.13426700
v 0.12738470 0.75267850 -0.07354196
v -0.13426690 0.74310360 -0.07752293
v -0.13221940 0.75023560 -0.07634074
v -0.13426690 0.72268030 -0.07752292
v -0.14207660 0.75267850 -0.03807260
v 0.13427030 0.74310360 -0.07751719
v 0.14747430 0.75023560 -0.03951222
v 0.10963220 0.72268030 -0.10962760
v 0.14207820 0.75267850 -0.03806648
v -0.14975630 0.74310360 -0.04013054
v -0.14747260 0.75023560 -0.03951858
v -0.14975630 0.72268030 -0.04013053
v -0.14708930 0.75267850 -0.00000317
v 0.14975800 0.74310360 -0.04012408
v 0.15267570 0.75023560 0.00000326
v 0.13427030 0.72268030 -0.07751720
v 0.14708930 0.75267850 0.00000315
v -0.15504000 0.74310360 -0.00000339
v -0.15267570 0.75023560 -0.00000331
v -0.15504000 0.72268030 -0.00000339
v -0.14207810 0.75267850 0.03806639
v 0.15504000 0.74310360 0.00000328
v 0.14747260 0.75023560 0.03951853
v 0.14975800 0.72268030 -0.04012407
v 0.14207660 0.75267850 0.03807250
v -0.14975800 0.74310360 0.04012404
v -0.14747430 0.75023560 0.03951218
v -0.14975800 0.72268030 0.04012404
v -0.12738460 0.75267850 0.07354188
v 0.14975630 0.74310360 0.04013050
v 0.13221940 0.75023560 0.07634062
v 0.15504000 0.72268030 0.00000328
v 0.12738150 0.75267850 0.07354733
v -0.13427020 0.74310360 0.07751708
v -0.13222270 0.75023560 0.07633496
v -0.13427020 0.72268040 0.07751708
v -0.10401010 0.75267850 0.10400560
v 0.13426690 0.74310360 0.07752281
v 0.10795570 0.75023560 0.10796030
v 0.14975630 0.72268030 0.04013050
v 0.10400560 0.75267850 0.10401000
v -0.10963220 0.74310360 0.10962740
v -0.10796030 0.75023560 0.10795560
v -0.10963220 0.72268040 0.10962740
v -0.07354736 0.75267850 0.12738150
v 0.10962750 0.74310360 0.10963210
v 0.07633502 0.75023560 0.13222260
v 0.13426690 0.72268040 0.07752281
v 0.07354193 0.75267850 0.12738460
v -0.07752285 0.74310360 0.13426690
v -0.07634066 0.75023560 0.13221930
v -0.07752285 0.72268030 0.13426690
v -0.03807255 0.75267850 0.14207650
v 0.07751711 0.74310360 0.13427020
v 0.03951222 0.75023560 0.14747420
v 0.10962750 0.72268030 0.10963210
v 0.03806646 0.75267850 0.14207810
v -0.04013050 0.74310360 0.14975620
v -0.03951852 0.75023560 0.14747250
v -0.00000314 0.75267850 0.14708920
v -0.00000326 0.75023560 0.15267560
v 0.04012408 0.74310360 0.14975800
v -0.00000331 0.74310370 0.15503990
v -0.04013050 0.72268040 0.14975620
v 0.07751711 0.72268030 0.13427020
v -0.00000331 0.72268040 0.15503990
v 0.04012408 0.72268040 0.14975800
v -0.03954565 0.71781770 0.14757370
v -0.00000326 0.71781770 0.15278050
v 0.03953934 0.71781770 0.14757540
v 0.07638742 0.71781770 0.13231340
v 0.10802980 0.71781770 0.10803440
v -0.07639306 0.71781770 0.13231010
v 0.13231010 0.71781770 0.07639301
v -0.10803440 0.71781770 0.10802980
v 0.14757380 0.71781770 0.03954567
v -0.13231340 0.71781770 0.07638735
v 0.15278050 0.71781770 0.00000324
v -0.14757540 0.71781770 0.03953933
v 0.14757550 0.71781770 -0.03953934
v -0.15278050 0.71781770 -0.00000334
v 0.13231350 0.71781770 -0.07638745
v -0.14757380 0.71781770 -0.03954569
v 0.10803450 0.71781770 -0.10802980
v -0.13231020 0.71781770 -0.07639311
v 0.07639313 0.71781770 -0.13231020
v -0.10802980 0.71781770 -0.10803450
v 0.03954572 0.71781770 -0.14757380
v -0.07638745 0.71781770 -0.13231340
v 0.00000333 0.71781770 -0.15278050
v -0.03953939 0.71781770 -0.14757550
v 0.10416700 0.71593000 -0.10416250
v 0.07365836 0.71593000 -0.12757370
v 0.03813004 0.71592990 -0.14229090
v 0.00000321 0.71593000 -0.14731120
v -0.03812394 0.71592990 -0.14229250
v -0.07365290 0.71593000 -0.12757680
v -0.10416250 0.71593000 -0.10416700
v -0.12757370 0.71593000 -0.07365831
v 0.12757690 0.71593000 -0.07365285
v -0.14229090 0.71593000 -0.03813001
v 0.14229250 0.71593000 -0.03812388
v -0.14731120 0.71593000 -0.00000321
v 0.14731120 0.71593000 0.00000313
v -0.14229250 0.71593000 0.03812381
v 0.14229090 0.71593000 0.03813001
v -0.12757680 0.71593000 0.07365275
v 0.12757370 0.71593000 0.07365831
v -0.10416700 0.71593000 0.10416250
v 0.10416250 0.71593000 0.10416690
v -0.07365829 0.71593010 0.12757360
v 0.07365286 0.71593010 0.12757680
v -0.03812998 0.71593010 0.14229080
v 0.03812389 0.71593010 0.14229250
v -0.00000315 0.71593010 0.14731110
vn -0.35140180 -0.02719265 -0.93582980
vn -0.23207500 0.64354000 -0.72938160
vn -0.48333040 0.66662500 -0.56745290
vn -0.69045840 0.00418100 -0.72335990
vn -0.35230210 -0.03781333 -0.93512210
vn -0.64250870 0.68833510 -0.33671560
vn -0.69136410 -0.00796552 -0.72246260
vn -0.35202110 -0.05819969 -0.93418090
vn -0.90879060 0.03454712 -0.41582000
vn -0.70470330 0.70542320 -0.07597116
vn -0.69108260 -0.02780316 -0.72224090
vn -0.28972830 -0.69517280 -0.65786960
vn -0.53886800 -0.67679260 -0.50157040
vn -0.99610570 0.06039625 -0.06423108
vn -0.67157230 0.71631970 0.18941090
vn -0.95202490 0.07962352 0.29548020
vn -0.90970060 0.02063100 -0.41475190
vn -0.90982150 0.00137329 -0.41499760
vn -0.69959830 -0.65915670 -0.27581630
vn -0.99701270 0.04467944 -0.06300294
vn -0.95291770 0.06207627 0.29680700
vn -0.99765940 0.02566619 -0.06337925
vn -0.76516070 -0.64359770 -0.01763518
vn -0.95402250 0.04288027 0.29665210
vn -0.73504480 -0.63110110 0.24783160
vn -0.95202490 0.07962352 0.29548020
vn -0.67157230 0.71631970 0.18941090
vn -0.54047630 0.72003140 0.43524740
vn -0.77306010 0.08984740 0.62793750
vn -0.95291770 0.06207627 0.29680700
vn -0.31266770 0.71574470 0.62445840
vn -0.77397090 0.07071247 0.62926050
vn -0.95402250 0.04288027 0.29665210
vn -0.46326530 0.08804768 0.88183500
vn -0.01496373 0.70398350 0.71005870
vn -0.77522690 0.05099798 0.62962080
vn -0.73504480 -0.63110110 0.24783160
vn -0.60519000 -0.62339160 0.49510410
vn -0.06110473 0.07257449 0.99548940
vn 0.29187450 0.68726680 0.66518680
vn 0.35217230 0.04571825 0.93481790
vn -0.46429140 0.06808861 0.88306130
vn -0.46523370 0.04776322 0.88389830
vn -0.37660340 -0.62332780 0.68529710
vn -0.06230791 0.05295143 0.99665140
vn 0.35080690 0.02780295 0.93603500
vn -0.06260591 0.03232012 0.99751480
vn -0.07747625 -0.63318710 0.77011140
vn 0.35097310 0.00735527 0.93635670
vn 0.22926470 -0.65191780 0.72280070
vn 0.35217230 0.04571825 0.93481790
vn 0.29187450 0.68726680 0.66518680
vn 0.54338070 0.66891970 0.50723150
vn 0.69119810 0.01379503 0.72253370
vn 0.35080690 0.02780295 0.93603500
vn 0.70557520 0.65134790 0.27912270
vn 0.68997920 -0.00164794 0.72382730
vn 0.35097310 0.00735527 0.93635670
vn 0.90961040 -0.01709063 0.41511060
vn 0.77168070 0.63574550 0.01834437
vn 0.68996740 -0.02151607 0.72352060
vn 0.22926470 -0.65191780 0.72280070
vn 0.47813600 -0.67453280 0.56248680
vn 0.99704680 -0.04315372 0.06352486
vn 0.74128440 0.62302200 -0.24968210
vn 0.95307390 -0.06219871 -0.29627950
vn 0.90871250 -0.03003085 0.41634090
vn 0.90814100 -0.04925816 0.41575670
vn 0.63585410 -0.69580750 0.33397820
vn 0.99645420 -0.05395694 0.06455841
vn 0.95265960 -0.07150716 -0.29551020
vn 0.99527110 -0.07294060 0.06414898
vn 0.69743450 -0.71262560 0.07582764
vn 0.95106530 -0.09064313 -0.29539570
vn 0.66451040 -0.72352560 -0.18691300
vn 0.95307390 -0.06219871 -0.29627950
vn 0.74128440 0.62302200 -0.24968210
vn 0.61021990 0.61502470 -0.49937590
vn 0.77416600 -0.07190312 -0.62888550
vn 0.95265960 -0.07150716 -0.29551020
vn 0.37949240 0.61469010 -0.69147780
vn 0.77374290 -0.08047968 -0.62836710
vn 0.95106530 -0.09064313 -0.29539570
vn 0.46428870 -0.06955425 -0.88294860
vn 0.07757328 0.62454250 -0.77712880
vn 0.77212200 -0.10010220 -0.62754050
vn 0.66451040 -0.72352560 -0.18691300
vn 0.53458260 -0.72740270 -0.43024050
vn 0.06193967 -0.05377474 -0.99663010
vn -0.23207500 0.64354000 -0.72938160
vn -0.35140180 -0.02719265 -0.93582980
vn 0.46371350 -0.07819151 -0.88252810
vn 0.46260800 -0.09842435 -0.88108250
vn 0.30892920 -0.72339510 -0.61746440
vn 0.06120521 -0.06314414 -0.99612590
vn -0.35230210 -0.03781333 -0.93512210
vn 0.06089837 -0.08374522 -0.99462470
vn 0.01411044 -0.71185260 -0.70218710
vn -0.35202110 -0.05819969 -0.93418090
vn -0.28972830 -0.69517280 -0.65786960
vn -0.23207500 0.64354000 -0.72938160
vn 0.07757328 0.62454250 -0.77712880
vn 0.37949240 0.61469010 -0.69147780
vn -0.48333040 0.66662500 -0.56745290
vn 0.61021990 0.61502470 -0.49937590
vn -0.64250870 0.68833510 -0.33671560
vn 0.74128440 0.62302200 -0.24968210
vn -0.70470330 0.70542320 -0.07597116
vn 0.77168070 0.63574550 0.01834437
vn -0.67157230 0.71631970 0.18941090
vn 0.70557520 0.65134790 0.27912270
vn -0.54047630 0.72003140 0.43524740
vn 0.54338070 0.66891970 0.50723150
vn -0.31266770 0.71574470 0.62445840
vn 0.29187450 0.68726680 0.66518680
vn -0.01496373 0.70398350 0.71005870
vn 0.30892920 -0.72339510 -0.61746440
vn 0.01411044 -0.71185260 -0.70218710
vn -0.28972830 -0.69517280 -0.65786960
vn -0.53886800 -0.67679260 -0.50157040
vn 0.53458260 -0.72740270 -0.43024050
vn -0.69959830 -0.65915670 -0.27581630
vn 0.66451040 -0.72352560 -0.18691300
vn -0.76516070 -0.64359770 -0.01763518
vn 0.69743450 -0.71262560 0.07582764
vn -0.73504480 -0.63110110 0.24783160
vn 0.63585410 -0.69580750 0.33397820
vn -0.60519000 -0.62339160 0.49510410
vn 0.47813600 -0.67453280 0.56248680
vn -0.37660340 -0.62332780 0.68529710
vn 0.22926470 -0.65191780 0.72280070
vn -0.07747625 -0.63318710 0.77011140
vn 0.35140180 -0.02719235 0.93582980
vn 0.23207500 0.64354010 0.72938140
vn 0.48333040 0.66662520 0.56745270
vn 0.69045840 0.00418122 0.72335990
vn 0.35230220 -0.03781304 0.93512220
vn 0.64250870 0.68833520 0.33671530
vn 0.69136410 -0.00796530 0.72246260
vn 0.35202110 -0.05819939 0.93418090
vn 0.90879060 0.03454724 0.41582000
vn 0.70470330 0.70542320 0.07597093
vn 0.69108260 -0.02780294 0.72224090
vn 0.28972830 -0.69517250 0.65786990
vn 0.53886800 -0.67679250 0.50157070
vn 0.99610570 0.06039625 0.06423107
vn 0.67157240 0.71631970 -0.18941120
vn 0.95202490 0.07962341 -0.29548020
vn 0.90970060 0.02063111 0.41475190
vn 0.90982150 0.00137340 0.41499760
vn 0.69959830 -0.65915660 0.27581650
vn 0.99701270 0.04467944 0.06300292
vn 0.95291770 0.06207616 -0.29680700
vn 0.99765940 0.02566619 0.06337924
vn 0.76516070 -0.64359770 0.01763539
vn 0.95402250 0.04288016 -0.29665210
vn 0.73505900 -0.63108290 -0.24783620
vn 0.95202490 0.07962341 -0.29548020
vn 0.67157240 0.71631970 -0.18941120
vn 0.54047630 0.72003130 -0.43524760
vn 0.77306000 0.08984718 -0.62793760
vn 0.95291770 0.06207616 -0.29680700
vn 0.31266770 0.71574450 -0.62445870
vn 0.77397090 0.07071225 -0.62926050
vn 0.95402250 0.04288016 -0.29665210
vn 0.46326530 0.08804738 -0.88183500
vn 0.01496374 0.70398320 -0.71005890
vn 0.77522690 0.05099776 -0.62962080
vn 0.73505900 -0.63108290 -0.24783620
vn 0.60519000 -0.62339170 -0.49510380
vn 0.06110473 0.07257416 -0.99548940
vn -0.29187450 0.68726660 -0.66518710
vn -0.35217230 0.04571797 -0.93481790
vn 0.46429140 0.06808832 -0.88306130
vn 0.46523370 0.04776292 -0.88389830
vn 0.37660350 -0.62332810 -0.68529700
vn 0.06230791 0.05295111 -0.99665140
vn -0.35080690 0.02780265 -0.93603500
vn 0.06260592 0.03231980 -0.99751500
vn 0.07747624 -0.63318740 -0.77011120
vn -0.35097310 0.00735497 -0.93635670
vn -0.22926470 -0.65191800 -0.72280050
vn -0.35217230 0.04571797 -0.93481790
vn -0.29187450 0.68726660 -0.66518710
vn -0.54338070 0.66891950 -0.50723180
vn -0.69119810 0.01379481 -0.72253370
vn -0.35080690 0.02780265 -0.93603500
vn -0.70557520 0.65134790 -0.27912290
vn -0.68997920 -0.00164816 -0.72382730
vn -0.35097310 0.00735497 -0.93635670
vn -0.90961040 -0.01709075 -0.41511060
vn -0.77168070 0.63574550 -0.01834457
vn -0.68996740 -0.02151629 -0.72352060
vn -0.22926470 -0.65191800 -0.72280050
vn -0.47813600 -0.67453300 -0.56248660
vn -0.99704680 -0.04315372 -0.06352485
vn -0.74128430 0.62302210 0.24968180
vn -0.95307390 -0.06219859 0.29627950
vn -0.90871250 -0.03003097 -0.41634090
vn -0.90814100 -0.04925828 -0.41575670
vn -0.63585420 -0.69580750 -0.33397800
vn -0.99645420 -0.05395694 -0.06455839
vn -0.95265970 -0.07150705 0.29551020
vn -0.99527110 -0.07294060 -0.06414895
vn -0.69743450 -0.71262560 -0.07582741
vn -0.95106530 -0.09064302 0.29539580
vn -0.66451050 -0.72352550 0.18691330
vn -0.95307390 -0.06219859 0.29627950
vn -0.74128430 0.62302210 0.24968180
vn -0.61021980 0.61502490 0.49937560
vn -0.77416600 -0.07190290 0.62888550
vn -0.95265970 -0.07150705 0.29551020
vn -0.37949240 0.61469040 0.69147760
vn -0.77374290 -0.08047947 0.62836710
vn -0.95106530 -0.09064302 0.29539580
vn -0.46428870 -0.06955395 0.88294860
vn -0.07757326 0.62454270 0.77712850
vn -0.77212200 -0.10010200 0.62754050
vn -0.66451050 -0.72352550 0.18691330
vn -0.53458260 -0.72740250 0.43024070
vn -0.06193967 -0.05377442 0.99663010
vn 0.23207500 0.64354010 0.72938140
vn 0.35140180 -0.02719235 0.93582980
vn -0.46371350 -0.07819121 0.88252810
vn -0.46260800 -0.09842407 0.88108250
vn -0.30892920 -0.72339490 0.61746460
vn -0.06120522 -0.06314380 0.99612590
vn 0.35230220 -0.03781304 0.93512220
vn -0.06089837 -0.08374492 0.99462470
vn -0.01411046 -0.71185240 0.70218740
vn 0.35202110 -0.05819939 0.93418090
vn 0.28972830 -0.69517250 0.65786990
vn -0.29187450 0.68726660 -0.66518710
vn 0.01496374 0.70398320 -0.71005890
vn 0.31266770 0.71574450 -0.62445870
vn -0.54338070 0.66891950 -0.50723180
vn 0.54047630 0.72003130 -0.43524760
vn -0.70557520 0.65134790 -0.27912290
vn 0.67157240 0.71631970 -0.18941120
vn -0.77168070 0.63574550 -0.01834457
vn 0.70470330 0.70542320 0.07597093
vn -0.74128430 0.62302210 0.24968180
vn 0.64250870 0.68833520 0.33671530
vn -0.61021980 0.61502490 0.49937560
vn 0.48333040 0.66662520 0.56745270
vn -0.37949240 0.61469040 0.69147760
vn 0.23207500 0.64354010 0.72938140
vn -0.07757326 0.62454270 0.77712850
vn 0.37660350 -0.62332810 -0.68529700
vn 0.07747624 -0.63318740 -0.77011120
vn -0.22926470 -0.65191800 -0.72280050
vn -0.47813600 -0.67453300 -0.56248660
vn 0.60519000 -0.62339170 -0.49510380
vn -0.63585420 -0.69580750 -0.33397800
vn 0.73505900 -0.63108290 -0.24783620
vn -0.69743450 -0.71262560 -0.07582741
vn 0.76516070 -0.64359770 0.01763539
vn -0.66451050 -0.72352550 0.18691330
vn 0.69959830 -0.65915660 0.27581650
vn -0.53458260 -0.72740250 0.43024070
vn 0.53886800 -0.67679250 0.50157070
vn -0.30892920 -0.72339490 0.61746460
vn 0.28972830 -0.69517250 0.65786990
vn -0.01411046 -0.71185240 0.70218740
vn 0.93582980 -0.02719256 -0.35140170
vn 0.72938150 0.64354000 -0.23207510
vn 0.56745280 0.66662500 -0.48333040
vn 0.72336000 0.00418099 -0.69045840
vn 0.93512220 -0.03781325 -0.35230210
vn 0.33671550 0.68833510 -0.64250870
vn 0.72246260 -0.00796553 -0.69136410
vn 0.93418090 -0.05819960 -0.35202100
vn 0.41582000 0.03454703 -0.90879050
vn 0.07597128 0.70540770 -0.70471860
vn 0.72224090 -0.02780317 -0.69108260
vn 0.65786970 -0.69517270 -0.28972820
vn 0.50158100 -0.67677620 -0.53887900
vn 0.06423108 0.06039610 -0.99610570
vn -0.18941100 0.71631960 -0.67157250
vn -0.29548030 0.07962331 -0.95202490
vn 0.41475200 0.02063091 -0.90970060
vn 0.41499760 0.00137319 -0.90982140
vn 0.27581640 -0.65915680 -0.69959810
vn 0.06300293 0.04467927 -0.99701270
vn -0.29680700 0.06207607 -0.95291770
vn 0.06337924 0.02566603 -0.99765940
vn 0.01763528 -0.64359790 -0.76516060
vn -0.29667940 0.04287959 -0.95401390
vn -0.24783630 -0.63108300 -0.73505880
vn -0.29548030 0.07962331 -0.95202490
vn -0.18941100 0.71631960 -0.67157250
vn -0.43524750 0.72003130 -0.54047630
vn -0.62793940 0.08981691 -0.77306210
vn -0.29680700 0.06207607 -0.95291770
vn -0.62445860 0.71574460 -0.31266780
vn -0.62926050 0.07071225 -0.77397090
vn -0.29667940 0.04287959 -0.95401390
vn -0.88183500 0.08804745 -0.46326520
vn -0.71005880 0.70398330 -0.01496385
vn -0.62962080 0.05099775 -0.77522690
vn -0.24783630 -0.63108300 -0.73505880
vn -0.49510400 -0.62339170 -0.60518990
vn -0.99548940 0.07257432 -0.06110473
vn -0.66518700 0.68726680 0.29187430
vn -0.93481790 0.04571817 0.35217230
vn -0.88306130 0.06808839 -0.46429140
vn -0.88389840 0.04776302 -0.46523370
vn -0.68529710 -0.62332800 -0.37660330
vn -0.99665140 0.05295127 -0.06230792
vn -0.93603500 0.02780286 0.35080690
vn -0.99751500 0.03231996 -0.06260591
vn -0.77011130 -0.63318720 -0.07747613
vn -0.93635670 0.00735519 0.35097300
vn -0.72280060 -0.65191790 0.22926490
vn -0.93481790 0.04571817 0.35217230
vn -0.66518700 0.68726680 0.29187430
vn -0.50723170 0.66891970 0.54338060
vn -0.72253370 0.01379504 0.69119810
vn -0.93603500 0.02780286 0.35080690
vn -0.27912280 0.65134810 0.70557500
vn -0.72382740 -0.00164793 0.68997910
vn -0.93635670 0.00735519 0.35097300
vn -0.41511070 -0.01709054 0.90961040
vn -0.01834446 0.63574570 0.77168060
vn -0.72352060 -0.02151606 0.68996740
vn -0.72280060 -0.65191790 0.22926490
vn -0.56248670 -0.67453280 0.47813610
vn -0.06352486 -0.04315357 0.99704690
vn 0.24968200 0.62302220 0.74128430
vn 0.29627950 -0.06219850 0.95307390
vn -0.41634090 -0.03003076 0.90871250
vn -0.41575680 -0.04925807 0.90814100
vn -0.33397810 -0.69580740 0.63585440
vn -0.06455841 -0.05395678 0.99645420
vn 0.29551020 -0.07150695 0.95265960
vn -0.06414896 -0.07294042 0.99527110
vn -0.07582753 -0.71262540 0.69743460
vn 0.29539580 -0.09064293 0.95106530
vn 0.18691320 -0.72352550 0.66451050
vn 0.29627950 -0.06219850 0.95307390
vn 0.24968200 0.62302220 0.74128430
vn 0.49937580 0.61502490 0.61021970
vn 0.62888560 -0.07190289 0.77416600
vn 0.29551020 -0.07150695 0.95265960
vn 0.69147780 0.61469030 0.37949230
vn 0.62836710 -0.08047945 0.77374290
vn 0.29539580 -0.09064293 0.95106530
vn 0.88294860 -0.06955403 0.46428860
vn 0.77712860 0.62454260 0.07757317
vn 0.62754050 -0.10010200 0.77212200
vn 0.18691320 -0.72352550 0.66451050
vn 0.43024060 -0.72740250 0.53458260
vn 0.99663010 -0.05377457 0.06193966
vn 0.72938150 0.64354000 -0.23207510
vn 0.93582980 -0.02719256 -0.35140170
vn 0.88252810 -0.07819130 0.46371350
vn 0.88108250 -0.09842414 0.46260800
vn 0.61746440 -0.72339490 0.30892930
vn 0.99612590 -0.06314396 0.06120522
vn 0.93512220 -0.03781325 -0.35230210
vn 0.99462470 -0.08374506 0.06089838
vn 0.70218720 -0.71185250 0.01411057
vn 0.93418090 -0.05819960 -0.35202100
vn 0.65786970 -0.69517270 -0.28972820
vn -0.18941100 0.71631960 -0.67157250
vn 0.07597128 0.70540770 -0.70471860
vn 0.33671550 0.68833510 -0.64250870
vn -0.43524750 0.72003130 -0.54047630
vn 0.56745280 0.66662500 -0.48333040
vn -0.62445860 0.71574460 -0.31266780
vn 0.72938150 0.64354000 -0.23207510
vn -0.71005880 0.70398330 -0.01496385
vn 0.77712860 0.62454260 0.07757317
vn -0.66518700 0.68726680 0.29187430
vn 0.69147780 0.61469030 0.37949230
vn -0.50723170 0.66891970 0.54338060
vn 0.49937580 0.61502490 0.61021970
vn -0.27912280 0.65134810 0.70557500
vn 0.24968200 0.62302220 0.74128430
vn -0.01834446 0.63574570 0.77168060
vn 0.27581640 -0.65915680 -0.69959810
vn 0.01763528 -0.64359790 -0.76516060
vn -0.24783630 -0.63108300 -0.73505880
vn -0.49510400 -0.62339170 -0.60518990
vn 0.50158100 -0.67677620 -0.53887900
vn -0.68529710 -0.62332800 -0.37660330
vn 0.65786970 -0.69517270 -0.28972820
vn -0.77011130 -0.63318720 -0.07747613
vn 0.70218720 -0.71185250 0.01411057
vn -0.72280060 -0.65191790 0.22926490
vn 0.61746440 -0.72339490 0.30892930
vn -0.56248670 -0.67453280 0.47813610
vn 0.43024060 -0.72740250 0.53458260
vn -0.33397810 -0.69580740 0.63585440
vn 0.18691320 -0.72352550 0.66451050
vn -0.07582753 -0.71262540 0.69743460
vn -0.93582980 -0.02719243 0.35140170
vn -0.72938150 0.64354010 0.23207480
vn -0.56745290 0.66662510 0.48333020
vn -0.72336000 0.00418123 0.69045840
vn -0.93512220 -0.03781312 0.35230210
vn -0.33671550 0.68833530 0.64250860
vn -0.72246260 -0.00796530 0.69136410
vn -0.93418090 -0.05819947 0.35202100
vn -0.41582000 0.03454733 0.90879050
vn -0.07597127 0.70540800 0.70471820
vn -0.72224090 -0.02780293 0.69108260
vn -0.65786970 -0.69517250 0.28972840
vn -0.50157060 -0.67679260 0.53886810
vn -0.06423108 0.06039642 0.99610570
vn 0.18941110 0.71631990 0.67157230
vn 0.29548030 0.07962362 0.95202490
vn -0.41475200 0.02063121 0.90970060
vn -0.41499760 0.00137350 0.90982140
vn -0.27581640 -0.65915660 0.69959830
vn -0.06300293 0.04467960 0.99701270
vn 0.29680700 0.06207637 0.95291770
vn -0.06337924 0.02566635 0.99765940
vn -0.01763529 -0.64359760 0.76516080
vn 0.29667940 0.04287989 0.95401390
vn 0.24783630 -0.63108280 0.73505910
vn 0.29548030 0.07962362 0.95202490
vn 0.18941110 0.71631990 0.67157230
vn 0.43524750 0.72003140 0.54047620
vn 0.62793770 0.08984742 0.77306000
vn 0.29680700 0.06207637 0.95291770
vn 0.62445860 0.71574460 0.31266750
vn 0.62926050 0.07071248 0.77397090
vn 0.29667940 0.04287989 0.95401390
vn 0.88183500 0.08804758 0.46326520
vn 0.71005890 0.70398320 0.01496362
vn 0.62962080 0.05099799 0.77522690
vn 0.24783630 -0.63108280 0.73505910
vn 0.49510400 -0.62339160 0.60519000
vn 0.99548940 0.07257432 0.06110471
vn 0.66518700 0.68726670 -0.29187460
vn 0.93481790 0.04571804 -0.35217230
vn 0.88306130 0.06808852 0.46429140
vn 0.88389840 0.04776315 0.46523370
vn 0.68529710 -0.62332780 0.37660360
vn 0.99665140 0.05295127 0.06230790
vn 0.93603500 0.02780273 -0.35080690
vn 0.99751500 0.03231996 0.06260590
vn 0.77011130 -0.63318710 0.07747632
vn 0.93635670 0.00735505 -0.35097300
vn 0.72280060 -0.65191800 -0.22926460
vn 0.93481790 0.04571804 -0.35217230
vn 0.66518700 0.68726670 -0.29187460
vn 0.50723170 0.66891950 -0.54338080
vn 0.72253370 0.01379480 -0.69119810
vn 0.93603500 0.02780273 -0.35080690
vn 0.27912290 0.65134790 -0.70557520
vn 0.72382740 -0.00164817 -0.68997910
vn 0.93635670 0.00735505 -0.35097300
vn 0.41511070 -0.01709084 -0.90961040
vn 0.01834447 0.63574550 -0.77168080
vn 0.72352060 -0.02151630 -0.68996740
vn 0.72280060 -0.65191800 -0.22926460
vn 0.56248680 -0.67453300 -0.47813590
vn 0.06352486 -0.04315389 -0.99704680
vn -0.24968190 0.62302190 -0.74128440
vn -0.29627950 -0.06219880 -0.95307390
vn 0.41634090 -0.03003106 -0.90871250
vn 0.41575680 -0.04925837 -0.90814100
vn 0.33397810 -0.69580760 -0.63585410
vn 0.06455840 -0.05395710 -0.99645410
vn -0.29551020 -0.07150725 -0.95265960
vn 0.06414896 -0.07294077 -0.99527110
vn 0.07582752 -0.71262570 -0.69743440
vn -0.29539580 -0.09064323 -0.95106530
vn -0.18691320 -0.72352580 -0.66451030
vn -0.29627950 -0.06219880 -0.95307390
vn -0.24968190 0.62302190 -0.74128440
vn -0.49937580 0.61502470 -0.61022000
vn -0.62888560 -0.07190313 -0.77416590
vn -0.29551020 -0.07150725 -0.95265960
vn -0.69147780 0.61469020 -0.37949250
vn -0.62836700 -0.08047969 -0.77374270
vn -0.29539580 -0.09064323 -0.95106530
vn -0.88294860 -0.06955416 -0.46428860
vn -0.77712860 0.62454270 -0.07757337
vn -0.62754050 -0.10010220 -0.77212200
vn -0.18691320 -0.72352580 -0.66451030
vn -0.43024060 -0.72740270 -0.53458240
vn -0.99663010 -0.05377457 -0.06193966
vn -0.72938150 0.64354010 0.23207480
vn -0.93582980 -0.02719243 0.35140170
vn -0.88252810 -0.07819143 -0.46371350
vn -0.88108250 -0.09842428 -0.46260790
vn -0.61746450 -0.72339510 -0.30892910
vn -0.99612590 -0.06314396 -0.06120520
vn -0.93512220 -0.03781312 0.35230210
vn -0.99462470 -0.08374506 -0.06089835
vn -0.70218720 -0.71185250 -0.01411034
vn -0.93418090 -0.05819947 0.35202100
vn -0.65786970 -0.69517250 0.28972840
vn -0.24968190 0.62302190 -0.74128440
vn 0.01834447 0.63574550 -0.77168080
vn 0.27912290 0.65134790 -0.70557520
vn -0.49937580 0.61502470 -0.61022000
vn 0.50723170 0.66891950 -0.54338080
vn -0.69147780 0.61469020 -0.37949250
vn 0.66518700 0.68726670 -0.29187460
vn -0.77712860 0.62454270 -0.07757337
vn 0.71005890 0.70398320 0.01496362
vn -0.72938150 0.64354010 0.23207480
vn 0.62445860 0.71574460 0.31266750
vn -0.56745290 0.66662510 0.48333020
vn 0.43524750 0.72003140 0.54047620
vn -0.33671550 0.68833530 0.64250860
vn 0.18941110 0.71631990 0.67157230
vn -0.07597127 0.70540800 0.70471820
vn 0.33397810 -0.69580760 -0.63585410
vn 0.07582752 -0.71262570 -0.69743440
vn -0.18691320 -0.72352580 -0.66451030
vn -0.43024060 -0.72740270 -0.53458240
vn 0.56248680 -0.67453300 -0.47813590
vn -0.61746450 -0.72339510 -0.30892910
vn 0.72280060 -0.65191800 -0.22926460
vn -0.70218720 -0.71185250 -0.01411034
vn 0.77011130 -0.63318710 0.07747632
vn -0.65786970 -0.69517250 0.28972840
vn 0.68529710 -0.62332780 0.37660360
vn -0.50157060 -0.67679260 0.53886810
vn 0.49510400 -0.62339160 0.60519000
vn -0.27581640 -0.65915660 0.69959830
vn 0.24783630 -0.63108280 0.73505910
vn -0.01763529 -0.64359760 0.76516080
vn -0.04389049 0.97530010 -0.21647960
vn 0.01362620 0.97530380 -0.22044730
vn 0.07021644 0.97530010 -0.20942650
vn 0.04649043 0.65737160 -0.75213110
vn 0.23955230 0.65738390 -0.71446560
vn -0.09840645 0.97530200 -0.19774230
vn -0.14974040 0.65738390 -0.73852840
vn 0.06092557 0.15732730 -0.98566540
vn -0.19625890 0.15732450 -0.96784880
vn 0.41633320 0.65738340 -0.62810330
vn 0.12200980 0.97530200 -0.18411800
vn 0.31395810 0.15732450 -0.93631150
vn -0.33581130 0.65738340 -0.67459460
vn -0.44006760 0.15732670 -0.88407520
vn -0.14623550 0.97530680 -0.16550480
vn -0.19419440 -0.21207810 -0.95776390
vn 0.06029050 -0.21207760 -0.97539130
vn -0.43547060 -0.21207910 -0.87486450
vn 0.54559400 0.15732670 -0.82314970
vn 0.56469830 0.65739050 -0.49895260
vn 0.16550460 0.97530680 -0.14623560
vn 0.31066730 -0.21207810 -0.92655740
vn -0.65389010 0.15732440 -0.74005190
vn -0.49895240 0.65739040 -0.56469840
vn -0.64707370 -0.21207990 -0.73233720
vn -0.18411780 0.97530220 -0.12201000
vn 0.74005190 0.15732440 -0.65389000
vn 0.67459450 0.65738340 -0.33581140
vn 0.53989760 -0.21207910 -0.81457540
vn 0.19774220 0.97530220 -0.09840662
vn -0.82314990 0.15732680 -0.54559390
vn -0.62811230 0.65739100 -0.41630760
vn -0.81457540 -0.21207900 -0.53989740
vn -0.20942630 0.97530010 -0.07021658
vn 0.88407520 0.15732670 -0.44006750
vn 0.73852830 0.65738400 -0.14974050
vn 0.73233730 -0.21207990 -0.64707360
vn 0.21647950 0.97530010 -0.04389066
vn -0.93631150 0.15732470 -0.31395810
vn -0.71446550 0.65738400 -0.23955230
vn -0.92655750 -0.21207800 -0.31066730
vn -0.22044710 0.97530380 -0.01362635
vn 0.96784880 0.15732470 -0.19625890
vn 0.75213100 0.65737170 0.04649032
vn 0.87486450 -0.21207910 -0.43547050
vn 0.22044720 0.97530380 0.01362603
vn -0.98566530 0.15732750 -0.06092559
vn -0.75213100 0.65737160 -0.04649053
vn -0.97539130 -0.21207740 -0.06029047
vn -0.21647950 0.97530010 0.04389034
vn 0.98566530 0.15732750 0.06092552
vn 0.71446550 0.65738410 0.23955210
vn 0.95776390 -0.21207790 -0.19419430
vn 0.20942630 0.97530010 0.07021627
vn -0.96784880 0.15732470 0.19625890
vn -0.73852830 0.65738410 0.14974030
vn -0.95776390 -0.21207790 0.19419440
vn -0.19774210 0.97530220 0.09840630
vn 0.93631150 0.15732470 0.31395810
vn 0.62811230 0.65739110 0.41630740
vn 0.97539130 -0.21207740 0.06029054
vn 0.18411790 0.97530220 0.12200970
vn -0.88407520 0.15732690 0.44006750
vn -0.67459450 0.65738360 0.33581120
vn -0.87486450 -0.21207890 0.43547060
vn -0.16550460 0.97530690 0.14623530
vn 0.82314990 0.15732690 0.54559390
vn 0.49895240 0.65739070 0.56469820
vn 0.92655750 -0.21207790 0.31066730
vn 0.14623550 0.97530690 0.16550450
vn -0.74005190 0.15732460 0.65389000
vn -0.56469830 0.65739070 0.49895230
vn -0.73233730 -0.21207970 0.64707370
vn -0.12200980 0.97530220 0.18411770
vn 0.65389000 0.15732460 0.74005180
vn 0.33581130 0.65738370 0.67459430
vn 0.81457540 -0.21207890 0.53989760
vn 0.09840647 0.97530220 0.19774200
vn -0.54559390 0.15732700 0.82314970
vn -0.41630750 0.65739120 0.62811220
vn -0.53989760 -0.21207880 0.81457540
vn -0.07021642 0.97530010 0.20942610
vn 0.44006760 0.15732700 0.88407520
vn 0.14974040 0.65738420 0.73852820
vn 0.64707370 -0.21207970 0.73233730
vn 0.04389052 0.97530010 0.21647930
vn -0.31395810 0.15732480 0.93631140
vn -0.23955230 0.65738420 0.71446540
vn -0.01362618 0.97530380 0.22044700
vn -0.04649042 0.65737190 0.75213090
vn 0.19625890 0.15732480 0.96784880
vn -0.06092556 0.15732760 0.98566530
vn -0.31066730 -0.21207780 0.92655750
vn 0.43547060 -0.21207880 0.87486450
vn -0.06029051 -0.21207720 0.97539140
vn 0.19419440 -0.21207780 0.95776390
vn -0.21844230 -0.72657450 0.65143870
vn -0.04238893 -0.72657700 0.68577620
vn 0.13655300 -0.72657460 0.67338160
vn 0.30616330 -0.72657860 0.61509970
vn 0.45494200 -0.72657910 0.51488890
vn -0.37958390 -0.72657860 0.57271250
vn 0.57271240 -0.72657860 0.37958400
vn -0.51488880 -0.72657910 0.45494210
vn 0.65143870 -0.72657460 0.21844240
vn -0.61509960 -0.72657860 0.30616340
vn 0.68577620 -0.72657710 0.04238905
vn -0.67338140 -0.72657470 0.13655310
vn 0.67338140 -0.72657480 -0.13655290
vn -0.68577610 -0.72657710 -0.04238881
vn 0.61509950 -0.72657870 -0.30616310
vn -0.65143870 -0.72657470 -0.21844210
vn 0.51488880 -0.72657920 -0.45494190
vn -0.57271240 -0.72657870 -0.37958370
vn 0.37958380 -0.72657880 -0.57271220
vn -0.45494200 -0.72657920 -0.51488860
vn 0.21844230 -0.72657480 -0.65143850
vn -0.30616330 -0.72657880 -0.61509940
vn 0.04238991 -0.72656210 -0.68579210
vn -0.13655300 -0.72657480 -0.67338130
vn 0.13393480 -0.98389880 -0.11834110
vn 0.09873869 -0.98389760 -0.14898370
vn 0.05679919 -0.98389830 -0.16946380
vn 0.01102768 -0.98389490 -0.17840780
vn -0.03549689 -0.98389830 -0.17516880
vn -0.07963932 -0.98389760 -0.16000960
vn -0.11834130 -0.98389880 -0.13393470
vn -0.14898390 -0.98389750 -0.09873854
vn 0.16000970 -0.98389760 -0.07963915
vn -0.16946400 -0.98389820 -0.05679903
vn 0.17516890 -0.98389820 -0.03549671
vn -0.17840800 -0.98389480 -0.01102752
vn 0.17840800 -0.98389480 0.01102784
vn -0.17516890 -0.98389820 0.03549703
vn 0.16946400 -0.98389820 0.05679935
vn -0.16000970 -0.98389750 0.07963946
vn 0.14898390 -0.98389750 0.09873884
vn -0.13393480 -0.98389880 0.11834140
vn 0.11834120 -0.98389880 0.13393500
vn -0.09873870 -0.98389750 0.14898400
vn 0.07963928 -0.98389750 0.16000990
vn -0.05679920 -0.98389820 0.16946410
vn 0.03549686 -0.98389820 0.17516910
vn -0.01102769 -0.98389480 0.17840810
vt 0.86488160 0.00955132
vt 0.86488160 0.00000000
vt 0.86218920 0.00003718
vt 0.86216120 0.00958883
vt 0.86488160 0.26619120
vt 0.85899700 0.00007845
vt 0.86141260 0.26623900
vt 0.86280130 0.33941470
vt 0.85893620 0.00963055
vt 0.85579140 0.00011748
vt 0.86005640 0.33945250
vt 0.86265080 0.34471120
vt 0.85995830 0.34474840
vt 0.85569730 0.00967003
vt 0.85306010 0.00014847
vt 0.85293780 0.00970126
vt 0.85730000 0.26629220
vt 0.85680220 0.33949470
vt 0.85676620 0.34478970
vt 0.85316990 0.26634230
vt 0.84965100 0.26638220
vt 0.85353420 0.33953440
vt 0.85356060 0.34482870
vt 0.85074990 0.33956600
vt 0.85082930 0.34485970
vt 0.93840610 0.33365410
vt 0.93851940 0.34315900
vt 0.94080230 0.34332880
vt 0.94071260 0.33382560
vt 0.93536300 0.07825845
vt 0.94368400 0.34341440
vt 0.93830420 0.07847708
vt 0.93665970 0.00527892
vt 0.94362410 0.33391210
vt 0.94672570 0.34340310
vt 0.93898700 0.00545181
vt 0.93675350 0.00000000
vt 0.93903630 0.00016972
vt 0.94669740 0.33390070
vt 0.94946460 0.34329650
vt 0.94946450 0.33379290
vt 0.94201700 0.07858740
vt 0.94192480 0.00553929
vt 0.94191800 0.00025543
vt 0.94593600 0.07857288
vt 0.94946460 0.07843541
vt 0.94502570 0.00552775
vt 0.94495990 0.00024409
vt 0.94781770 0.00541900
vt 0.94769870 0.00013735
vt 0.86452790 0.75142770
vt 0.86465020 0.76097530
vt 0.86733600 0.76105280
vt 0.86724150 0.75150600
vt 0.86124040 0.49488720
vt 0.87052630 0.76110600
vt 0.86470080 0.49498700
vt 0.86239170 0.42168560
vt 0.87046470 0.75155970
vt 0.87373510 0.76112670
vt 0.86512980 0.42176460
vt 0.86247500 0.41639050
vt 0.86516080 0.41646810
vt 0.87370680 0.75158070
vt 0.87647410 0.76111190
vt 0.87647410 0.75156560
vt 0.86881100 0.49505560
vt 0.86838200 0.42181880
vt 0.86835100 0.41652130
vt 0.87294530 0.49508230
vt 0.87647410 0.49506330
vt 0.87165330 0.42183990
vt 0.87155990 0.41654200
vt 0.87444560 0.42182470
vt 0.87429890 0.41652720
vt 0.93536300 0.00953656
vt 0.93536290 0.00000000
vt 0.93305490 0.00008679
vt 0.93303100 0.00962422
vt 0.93536290 0.26577970
vt 0.93016000 0.00012524
vt 0.93238920 0.26589150
vt 0.93321720 0.33878750
vt 0.93010620 0.00966307
vt 0.92711920 0.00010939
vt 0.93086420 0.33887600
vt 0.93306200 0.34406840
vt 0.93075380 0.34415530
vt 0.92703390 0.00964700
vt 0.92439540 0.00004165
vt 0.92428200 0.00957863
vt 0.92865960 0.26594110
vt 0.92791300 0.33891510
vt 0.92785900 0.34419360
vt 0.92474190 0.26592060
vt 0.92123250 0.26583360
vt 0.92481300 0.33889910
vt 0.92481820 0.34417780
vt 0.92203620 0.33883000
vt 0.92209430 0.34411000
vt 0.75701330 0.77633790
vt 0.75397450 0.77624210
vt 0.75116690 0.77742030
vt 0.75982080 0.77769310
vt 0.74901830 0.77969320
vt 0.76196950 0.78010130
vt 0.74785530 0.78271450
vt 0.76313240 0.78319600
vt 0.74785530 0.78602450
vt 0.76313240 0.78650600
vt 0.74901820 0.78911920
vt 0.76196950 0.78952740
vt 0.75116690 0.79152740
vt 0.75982080 0.79180010
vt 0.75397440 0.79288260
vt 0.75701330 0.79297830
vt 0.66852930 0.42641200
vt 0.67133670 0.42759010
vt 0.67437560 0.42749440
vt 0.67718310 0.42613920
vt 0.66638050 0.42413910
vt 0.67933180 0.42373100
vt 0.66521760 0.42111780
vt 0.68049470 0.42063630
vt 0.66521760 0.41780780
vt 0.68049470 0.41732630
vt 0.66638050 0.41471310
vt 0.67933190 0.41430490
vt 0.66852930 0.41230480
vt 0.67718310 0.41203220
vt 0.67133670 0.41094970
vt 0.67437550 0.41085400
vt 0.86488160 0.00955132
vt 0.86488160 0.00000000
vt 0.86218920 0.00003718
vt 0.86216120 0.00958883
vt 0.86488160 0.26619120
vt 0.85899700 0.00007845
vt 0.86141260 0.26623900
vt 0.86280130 0.33941470
vt 0.85893620 0.00963055
vt 0.85579140 0.00011748
vt 0.86005640 0.33945250
vt 0.86265080 0.34471120
vt 0.85995830 0.34474840
vt 0.85569730 0.00967003
vt 0.85306010 0.00014847
vt 0.85293780 0.00970126
vt 0.85730000 0.26629220
vt 0.85680220 0.33949470
vt 0.85676620 0.34478970
vt 0.85316990 0.26634230
vt 0.84965100 0.26638220
vt 0.85353420 0.33953440
vt 0.85356060 0.34482870
vt 0.85074990 0.33956600
vt 0.85082930 0.34485970
vt 0.93840610 0.33365410
vt 0.93851940 0.34315900
vt 0.94080230 0.34332880
vt 0.94071260 0.33382560
vt 0.93536300 0.07825845
vt 0.94368400 0.34341440
vt 0.93830420 0.07847708
vt 0.93665970 0.00527892
vt 0.94362410 0.33391210
vt 0.94672570 0.34340310
vt 0.93898700 0.00545181
vt 0.93675350 0.00000000
vt 0.93903630 0.00016972
vt 0.94669740 0.33390070
vt 0.94946460 0.34329650
vt 0.94946450 0.33379290
vt 0.94201700 0.07858740
vt 0.94192480 0.00553929
vt 0.94191800 0.00025543
vt 0.94593600 0.07857288
vt 0.94946460 0.07843541
vt 0.94502570 0.00552775
vt 0.94495990 0.00024409
vt 0.94781770 0.00541900
vt 0.94769870 0.00013735
vt 0.86452790 0.75142770
vt 0.86465020 0.76097530
vt 0.86733600 0.76105280
vt 0.86724150 0.75150600
vt 0.86124040 0.49488720
vt 0.87052630 0.76110600
vt 0.86470080 0.49498700
vt 0.86239170 0.42168560
vt 0.87046470 0.75155970
vt 0.87373510 0.76112670
vt 0.86512980 0.42176460
vt 0.86247500 0.41639050
vt 0.86516080 0.41646810
vt 0.87370680 0.75158070
vt 0.87647410 0.76111190
vt 0.87647410 0.75156560
vt 0.86881100 0.49505560
vt 0.86838200 0.42181880
vt 0.86835100 0.41652130
vt 0.87294530 0.49508230
vt 0.87647410 0.49506330
vt 0.87165330 0.42183990
vt 0.87155990 0.41654200
vt 0.87444560 0.42182470
vt 0.87429890 0.41652720
vt 0.93536300 0.00953656
vt 0.93536290 0.00000000
vt 0.93305490 0.00008679
vt 0.93303100 0.00962422
vt 0.93536290 0.26577970
vt 0.93016000 0.00012524
vt 0.93238920 0.26589150
vt 0.93321720 0.33878750
vt 0.93010620 0.00966307
vt 0.92711920 0.00010939
vt 0.93086420 0.33887600
vt 0.93306200 0.34406840
vt 0.93075380 0.34415530
vt 0.92703390 0.00964700
vt 0.92439540 0.00004165
vt 0.92428200 0.00957863
vt 0.92865960 0.26594110
vt 0.92791300 0.33891510
vt 0.92785900 0.34419360
vt 0.92474190 0.26592060
vt 0.92123250 0.26583360
vt 0.92481300 0.33889910
vt 0.92481820 0.34417780
vt 0.92203620 0.33883000
vt 0.92209430 0.34411000
vt 0.75397440 0.79288260
vt 0.75701330 0.79297830
vt 0.75982080 0.79180010
vt 0.75116690 0.79152740
vt 0.76196950 0.78952740
vt 0.74901820 0.78911920
vt 0.76313240 0.78650600
vt 0.74785530 0.78602450
vt 0.76313240 0.78319600
vt 0.74785530 0.78271450
vt 0.76196950 0.78010130
vt 0.74901830 0.77969320
vt 0.75982080 0.77769310
vt 0.75116690 0.77742030
vt 0.75701330 0.77633790
vt 0.75397450 0.77624210
vt 0.67718310 0.41203220
vt 0.67437550 0.41085400
vt 0.67133670 0.41094970
vt 0.66852930 0.41230480
vt 0.67933190 0.41430490
vt 0.66638050 0.41471310
vt 0.68049470 0.41732630
vt 0.66521760 0.41780780
vt 0.68049470 0.42063630
vt 0.66521760 0.42111780
vt 0.67933180 0.42373100
vt 0.66638050 0.42413910
vt 0.67718310 0.42613920
vt 0.66852930 0.42641200
vt 0.67437560 0.42749440
vt 0.67133670 0.42759010
vt 0.86488160 0.00955132
vt 0.86488160 0.00000000
vt 0.86218920 0.00003718
vt 0.86216120 0.00958883
vt 0.86488160 0.26619120
vt 0.85899700 0.00007845
vt 0.86141260 0.26623900
vt 0.86280130 0.33941470
vt 0.85893620 0.00963055
vt 0.85579140 0.00011748
vt 0.86005640 0.33945250
vt 0.86265080 0.34471120
vt 0.85995830 0.34474840
vt 0.85569730 0.00967003
vt 0.85306010 0.00014847
vt 0.85293780 0.00970126
vt 0.85730000 0.26629220
vt 0.85680220 0.33949470
vt 0.85676620 0.34478970
vt 0.85316990 0.26634230
vt 0.84965100 0.26638220
vt 0.85353420 0.33953440
vt 0.85356060 0.34482870
vt 0.85074990 0.33956600
vt 0.85082930 0.34485970
vt 0.93840610 0.33365410
vt 0.93851940 0.34315900
vt 0.94080230 0.34332880
vt 0.94071260 0.33382560
vt 0.93536300 0.07825845
vt 0.94368400 0.34341440
vt 0.93830420 0.07847708
vt 0.93665970 0.00527892
vt 0.94362410 0.33391210
vt 0.94672570 0.34340310
vt 0.93898700 0.00545181
vt 0.93675350 0.00000000
vt 0.93903630 0.00016972
vt 0.94669740 0.33390070
vt 0.94946460 0.34329650
vt 0.94946450 0.33379290
vt 0.94201700 0.07858740
vt 0.94192480 0.00553929
vt 0.94191800 0.00025543
vt 0.94593600 0.07857288
vt 0.94946460 0.07843541
vt 0.94502570 0.00552775
vt 0.94495990 0.00024409
vt 0.94781770 0.00541900
vt 0.94769870 0.00013735
vt 0.86452790 0.75142770
vt 0.86465020 0.76097530
vt 0.86733600 0.76105280
vt 0.86724150 0.75150600
vt 0.86124040 0.49488720
vt 0.87052630 0.76110600
vt 0.86470080 0.49498700
vt 0.86239170 0.42168560
vt 0.87046470 0.75155970
vt 0.87373510 0.76112670
vt 0.86512980 0.42176460
vt 0.86247500 0.41639050
vt 0.86516080 0.41646810
vt 0.87370680 0.75158070
vt 0.87647410 0.76111190
vt 0.87647410 0.75156560
vt 0.86881100 0.49505560
vt 0.86838200 0.42181880
vt 0.86835100 0.41652130
vt 0.87294530 0.49508230
vt 0.87647410 0.49506330
vt 0.87165330 0.42183990
vt 0.87155990 0.41654200
vt 0.87444560 0.42182470
vt 0.87429890 0.41652720
vt 0.93536300 0.00953656
vt 0.93536290 0.00000000
vt 0.93305490 0.00008679
vt 0.93303100 0.00962422
vt 0.93536290 0.26577970
vt 0.93016000 0.00012524
vt 0.93238920 0.26589150
vt 0.93321720 0.33878750
vt 0.93010620 0.00966307
vt 0.92711920 0.00010939
vt 0.93086420 0.33887600
vt 0.93306200 0.34406840
vt 0.93075380 0.34415530
vt 0.92703390 0.00964700
vt 0.92439540 0.00004165
vt 0.92428200 0.00957863
vt 0.92865960 0.26594110
vt 0.92791300 0.33891510
vt 0.92785900 0.34419360
vt 0.92474190 0.26592060
vt 0.92123250 0.26583360
vt 0.92481300 0.33889910
vt 0.92481820 0.34417780
vt 0.92203620 0.33883000
vt 0.92209430 0.34411000
vt 0.76313240 0.78650600
vt 0.76313240 0.78319600
vt 0.76196950 0.78010130
vt 0.76196950 0.78952740
vt 0.75982080 0.77769310
vt 0.75982080 0.79180010
vt 0.75701330 0.77633790
vt 0.75701330 0.79297830
vt 0.75397450 0.77624210
vt 0.75397440 0.79288260
vt 0.75116690 0.77742030
vt 0.75116690 0.79152740
vt 0.74901830 0.77969320
vt 0.74901820 0.78911920
vt 0.74785530 0.78271450
vt 0.74785530 0.78602450
vt 0.67933180 0.42373100
vt 0.68049470 0.42063630
vt 0.68049470 0.41732630
vt 0.67933190 0.41430490
vt 0.67718310 0.42613920
vt 0.67718310 0.41203220
vt 0.67437560 0.42749440
vt 0.67437550 0.41085400
vt 0.67133670 0.42759010
vt 0.67133670 0.41094970
vt 0.66852930 0.42641200
vt 0.66852930 0.41230480
vt 0.66638050 0.42413910
vt 0.66638050 0.41471310
vt 0.66521760 0.42111780
vt 0.66521760 0.41780780
vt 0.86488160 0.00955132
vt 0.86488160 0.00000000
vt 0.86218920 0.00003718
vt 0.86216120 0.00958883
vt 0.86488160 0.26619120
vt 0.85899700 0.00007845
vt 0.86141260 0.26623900
vt 0.86280130 0.33941470
vt 0.85893620 0.00963055
vt 0.85579140 0.00011748
vt 0.86005640 0.33945250
vt 0.86265080 0.34471120
vt 0.85995830 0.34474840
vt 0.85569730 0.00967003
vt 0.85306010 0.00014847
vt 0.85293780 0.00970126
vt 0.85730000 0.26629220
vt 0.85680220 0.33949470
vt 0.85676620 0.34478970
vt 0.85316990 0.26634230
vt 0.84965100 0.26638220
vt 0.85353420 0.33953440
vt 0.85356060 0.34482870
vt 0.85074990 0.33956600
vt 0.85082930 0.34485970
vt 0.93840610 0.33365410
vt 0.93851940 0.34315900
vt 0.94080230 0.34332880
vt 0.94071260 0.33382560
vt 0.93536300 0.07825845
vt 0.94368400 0.34341440
vt 0.93830420 0.07847708
vt 0.93665970 0.00527892
vt 0.94362410 0.33391210
vt 0.94672570 0.34340310
vt 0.93898700 0.00545181
vt 0.93675350 0.00000000
vt 0.93903630 0.00016972
vt 0.94669740 0.33390070
vt 0.94946460 0.34329650
vt 0.94946450 0.33379290
vt 0.94201700 0.07858740
vt 0.94192480 0.00553929
vt 0.94191800 0.00025543
vt 0.94593600 0.07857288
vt 0.94946460 0.07843541
vt 0.94502570 0.00552775
vt 0.94495990 0.00024409
vt 0.94781770 0.00541900
vt 0.94769870 0.00013735
vt 0.86452790 0.75142770
vt 0.86465020 0.76097530
vt 0.86733600 0.76105280
vt 0.86724150 0.75150600
vt 0.86124040 0.49488720
vt 0.87052630 0.76110600
vt 0.86470080 0.49498700
vt 0.86239170 0.42168560
vt 0.87046470 0.75155970
vt 0.87373510 0.76112670
vt 0.86512980 0.42176460
vt 0.86247500 0.41639050
vt 0.86516080 0.41646810
vt 0.87370680 0.75158070
vt 0.87647410 0.76111190
vt 0.87647410 0.75156560
vt 0.86881100 0.49505560
vt 0.86838200 0.42181880
vt 0.86835100 0.41652130
vt 0.87294530 0.49508230
vt 0.87647410 0.49506330
vt 0.87165330 0.42183990
vt 0.87155990 0.41654200
vt 0.87444560 0.42182470
vt 0.87429890 0.41652720
vt 0.93536300 0.00953656
vt 0.93536290 0.00000000
vt 0.93305490 0.00008679
vt 0.93303100 0.00962422
vt 0.93536290 0.26577970
vt 0.93016000 0.00012524
vt 0.93238920 0.26589150
vt 0.93321720 0.33878750
vt 0.93010620 0.00966307
vt 0.92711920 0.00010939
vt 0.93086420 0.33887600
vt 0.93306200 0.34406840
vt 0.93075380 0.34415530
vt 0.92703390 0.00964700
vt 0.92439540 0.00004165
vt 0.92428200 0.00957863
vt 0.92865960 0.26594110
vt 0.92791300 0.33891510
vt 0.92785900 0.34419360
vt 0.92474190 0.26592060
vt 0.92123250 0.26583360
vt 0.92481300 0.33889910
vt 0.92481820 0.34417780
vt 0.92203620 0.33883000
vt 0.92209430 0.34411000
vt 0.74785530 0.78271450
vt 0.74785530 0.78602450
vt 0.74901820 0.78911920
vt 0.74901830 0.77969320
vt 0.75116690 0.79152740
vt 0.75116690 0.77742030
vt 0.75397440 0.79288260
vt 0.75397450 0.77624210
vt 0.75701330 0.79297830
vt 0.75701330 0.77633790
vt 0.75982080 0.79180010
vt 0.75982080 0.77769310
vt 0.76196950 0.78952740
vt 0.76196950 0.78010130
vt 0.76313240 0.78650600
vt 0.76313240 0.78319600
vt 0.66638050 0.41471310
vt 0.66521760 0.41780780
vt 0.66521760 0.42111780
vt 0.66638050 0.42413910
vt 0.66852930 0.41230480
vt 0.66852930 0.42641200
vt 0.67133670 0.41094970
vt 0.67133670 0.42759010
vt 0.67437550 0.41085400
vt 0.67437560 0.42749440
vt 0.67718310 0.41203220
vt 0.67718310 0.42613920
vt 0.67933190 0.41430490
vt 0.67933180 0.42373100
vt 0.68049470 0.41732630
vt 0.68049470 0.42063630
vt 0.00000000 0.00000000
vt 0.00000000 0.00000000
vt 0.00000000 0.00000000
vt 0.00000000 0.00000000
vt 0.00000000 0.00000000
vt 0.00000000 0.00000000
vt 0.00000000 0.00000000
vt 0.00000000 0.00000000
vt 0.00000000 0.00000000
vt 0.00000000 0.00000000
vt 0.00000000 0.00000000
vt 0.00000000 0.00000000
vt 0.00000000 0.00000000
vt 0.00000000 0.00000000
vt 0.00000000 0.00000000
vt 0.00000000 0.00000000
vt 0.00000000 0.00000000
vt 0.00000000 0.00000000
vt 0.00000000 0.00000000
vt 0.00000000 0.00000000
vt 0.00000000 0.00000000
vt 0.00000000 0.00000000
vt 0.00000000 0.00000000
vt 0.00000000 0.00000000
vt 0.00000000 0.00000000
vt 0.00000000 0.00000000
vt 0.00000000 0.00000000
vt 0.00000000 0.00000000
vt 0.00000000 0.00000000
vt 0.00000000 0.00000000
vt 0.00000000 0.00000000
vt 0.00000000 0.00000000
vt 0.00000000 0.00000000
vt 0.00000000 0.00000000
vt 0.00000000 0.00000000
vt 0.00000000 0.00000000
vt 0.00000000 0.00000000
vt 0.00000000 0.00000000
vt 0.00000000 0.00000000
vt 0.00000000 0.00000000
vt 0.00000000 0.00000000
vt 0.00000000 0.00000000
vt 0.00000000 0.00000000
vt 0.00000000 0.00000000
vt 0.00000000 0.00000000
vt 0.00000000 0.00000000
vt 0.00000000 0.00000000
vt 0.00000000 0.00000000
vt 0.00000000 0.00000000
vt 0.00000000 0.00000000
vt 0.00000000 0.00000000
vt 0.00000000 0.00000000
vt 0.00000000 0.00000000
vt 0.00000000 0.00000000
vt 0.00000000 0.00000000
vt 0.00000000 0.00000000
vt 0.00000000 0.00000000
vt 0.00000000 0.00000000
vt 0.00000000 0.00000000
vt 0.00000000 0.00000000
vt 0.00000000 0.00000000
vt 0.00000000 0.00000000
vt 0.00000000 0.00000000
vt 0.00000000 0.00000000
vt 0.00000000 0.00000000
vt 0.00000000 0.00000000
vt 0.00000000 0.00000000
vt 0.00000000 0.00000000
vt 0.00000000 0.00000000
vt 0.00000000 0.00000000
vt 0.00000000 0.00000000
vt 0.00000000 0.00000000
vt 0.00000000 0.00000000
vt 0.00000000 0.00000000
vt 0.00000000 0.00000000
vt 0.00000000 0.00000000
vt 0.00000000 0.00000000
vt 0.00000000 0.00000000
vt 0.00000000 0.00000000
vt 0.00000000 0.00000000
vt 0.00000000 0.00000000
vt 0.00000000 0.00000000
vt 0.00000000 0.00000000
vt 0.00000000 0.00000000
vt 0.00000000 0.00000000
vt 0.00000000 0.00000000
vt 0.00000000 0.00000000
vt 0.00000000 0.00000000
vt 0.00000000 0.00000000
vt 0.00000000 0.00000000
vt 0.00000000 0.00000000
vt 0.00000000 0.00000000
vt 0.00000000 0.00000000
vt 0.00000000 0.00000000
vt 0.00000000 0.00000000
vt 0.00000000 0.00000000
vt 0.00000000 0.00000000
vt 0.00000000 0.00000000
vt 0.00000000 0.00000000
vt 0.00000000 0.00000000
vt 0.00000000 0.00000000
vt 0.00000000 0.00000000
vt 0.00000000 0.00000000
vt 0.00000000 0.00000000
vt 0.00000000 0.00000000
vt 0.00000000 0.00000000
vt 0.00000000 0.00000000
vt 0.00000000 0.00000000
vt 0.00000000 0.00000000
vt 0.00000000 0.00000000
vt 0.00000000 0.00000000
vt 0.00000000 0.00000000
vt 0.00000000 0.00000000
vt 0.00000000 0.00000000
vt 0.00000000 0.00000000
vt 0.00000000 0.00000000
vt 0.00000000 0.00000000
vt 0.00000000 0.00000000
vt 0.00000000 0.00000000
vt 0.00000000 0.00000000
vt 0.00000000 0.00000000
vt 0.00000000 0.00000000
vt 0.00000000 0.00000000
vt 0.00000000 0.00000000
vt 0.00000000 0.00000000
vt 0.00000000 0.00000000
vt 0.00000000 0.00000000
vt 0.00000000 0.00000000
vt 0.00000000 0.00000000
vt 0.00000000 0.00000000
vt 0.00000000 0.00000000
vt 0.00000000 0.00000000
vt 0.00000000 0.00000000
vt 0.00000000 0.00000000
vt 0.00000000 0.00000000
vt 0.00000000 0.00000000
vt 0.00000000 0.00000000
vt 0.00000000 0.00000000
vt 0.00000000 0.00000000
vt 0.00000000 0.00000000
vt 0.00000000 0.00000000
vt 0.00000000 0.00000000
vt 0.00000000 0.00000000
vt 0.00000000 0.00000000
f 3/3/3 2/2/2 1/1/1
f 4/4/4 3/3/3 1/1/1
f 4/4/4 1/1/1 5/5/5
f 6/6/6 3/3/3 4/4/4
f 7/7/7 4/4/4 5/5/5
f 7/7/7 5/5/5 8/8/8
f 9/9/9 6/6/6 4/4/4
f 9/9/9 4/4/4 7/7/7
f 10/10/10 6/6/6 9/9/9
f 11/11/11 7/7/7 8/8/8
f 11/11/11 8/8/8 12/12/12
f 13/13/13 11/11/11 12/12/12
f 14/14/14 10/10/10 9/9/9
f 15/15/15 10/10/10 14/14/14
f 16/16/16 15/15/15 14/14/14
f 17/17/17 9/9/9 7/7/7
f 17/17/17 7/7/7 11/11/11
f 14/14/14 9/9/9 17/17/17
f 18/18/18 11/11/11 13/13/13
f 18/18/18 17/17/17 11/11/11
f 19/19/19 18/18/18 13/13/13
f 16/16/16 14/14/14 20/20/20
f 20/20/20 14/14/14 17/17/17
f 20/20/20 17/17/17 18/18/18
f 21/21/21 16/16/16 20/20/20
f 22/22/22 18/18/18 19/19/19
f 22/22/22 20/20/20 18/18/18
f 21/21/21 20/20/20 22/22/22
f 23/23/23 22/22/22 19/19/19
f 24/24/24 21/21/21 22/22/22
f 24/24/24 22/22/22 23/23/23
f 25/25/25 24/24/24 23/23/23
f 28/28/28 27/27/27 26/26/26
f 29/29/29 28/28/28 26/26/26
f 29/29/29 26/26/26 30/30/30
f 31/31/31 28/28/28 29/29/29
f 32/32/32 29/29/29 30/30/30
f 32/32/32 30/30/30 33/33/33
f 34/34/34 31/31/31 29/29/29
f 34/34/34 29/29/29 32/32/32
f 35/35/35 31/31/31 34/34/34
f 36/36/36 32/32/32 33/33/33
f 36/36/36 33/33/33 37/37/37
f 38/38/38 36/36/36 37/37/37
f 39/39/39 35/35/35 34/34/34
f 40/40/40 35/35/35 39/39/39
f 41/41/41 40/40/40 39/39/39
f 42/42/42 34/34/34 32/32/32
f 42/42/42 32/32/32 36/36/36
f 39/39/39 34/34/34 42/42/42
f 43/43/43 36/36/36 38/38/38
f 43/43/43 42/42/42 36/36/36
f 44/44/44 43/43/43 38/38/38
f 41/41/41 39/39/39 45/45/45
f 45/45/45 39/39/39 42/42/42
f 45/45/45 42/42/42 43/43/43
f 46/46/46 41/41/41 45/45/45
f 47/47/47 43/43/43 44/44/44
f 47/47/47 45/45/45 43/43/43
f 46/46/46 45/45/45 47/47/47
f 48/48/48 47/47/47 44/44/44
f 49/49/49 46/46/46 47/47/47
f 49/49/49 47/47/47 48/48/48
f 50/50/50 49/49/49 48/48/48
f 53/53/53 52/52/52 51/51/51
f 54/54/54 53/53/53 51/51/51
f 54/54/54 51/51/51 55/55/55
f 56/56/56 53/53/53 54/54/54
f 57/57/57 54/54/54 55/55/55
f 57/57/57 55/55/55 58/58/58
f 59/59/59 56/56/56 54/54/54
f 59/59/59 54/54/54 57/57/57
f 60/60/60 56/56/56 59/59/59
f 61/61/61 57/57/57 58/58/58
f 61/61/61 58/58/58 62/62/62
f 63/63/63 61/61/61 62/62/62
f 64/64/64 60/60/60 59/59/59
f 65/65/65 60/60/60 64/64/64
f 66/66/66 65/65/65 64/64/64
f 67/67/67 59/59/59 57/57/57
f 67/67/67 57/57/57 61/61/61
f 64/64/64 59/59/59 67/67/67
f 68/68/68 61/61/61 63/63/63
f 68/68/68 67/67/67 61/61/61
f 69/69/69 68/68/68 63/63/63
f 66/66/66 64/64/64 70/70/70
f 70/70/70 64/64/64 67/67/67
f 70/70/70 67/67/67 68/68/68
f 71/71/71 66/66/66 70/70/70
f 72/72/72 68/68/68 69/69/69
f 72/72/72 70/70/70 68/68/68
f 71/71/71 70/70/70 72/72/72
f 73/73/73 72/72/72 69/69/69
f 74/74/74 71/71/71 72/72/72
f 74/74/74 72/72/72 73/73/73
f 75/75/75 74/74/74 73/73/73
f 78/78/78 77/77/77 76/76/76
f 79/79/79 78/78/78 76/76/76
f 79/79/79 76/76/76 80/80/80
f 81/81/81 78/78/78 79/79/79
f 82/82/82 79/79/79 80/80/80
f 82/82/82 80/80/80 83/83/83
f 84/84/84 81/81/81 79/79/79
f 84/84/84 79/79/79 82/82/82
f 85/85/85 81/81/81 84/84/84
f 86/86/86 82/82/82 83/83/83
f 86/86/86 83/83/83 87/87/87
f 88/88/88 86/86/86 87/87/87
f 89/89/89 85/85/85 84/84/84
f 90/90/90 85/85/85 89/89/89
f 91/91/91 90/90/90 89/89/89
f 92/92/92 84/84/84 82/82/82
f 92/92/92 82/82/82 86/86/86
f 89/89/89 84/84/84 92/92/92
f 93/93/93 86/86/86 88/88/88
f 93/93/93 92/92/92 86/86/86
f 94/94/94 93/93/93 88/88/88
f 91/91/91 89/89/89 95/95/95
f 95/95/95 89/89/89 92/92/92
f 95/95/95 92/92/92 93/93/93
f 96/96/96 91/91/91 95/95/95
f 97/97/97 93/93/93 94/94/94
f 97/97/97 95/95/95 93/93/93
f 96/96/96 95/95/95 97/97/97
f 98/98/98 97/97/97 94/94/94
f 99/99/99 96/96/96 97/97/97
f 99/99/99 97/97/97 98/98/98
f 100/100/100 99/99/99 98/98/98
f 103/103/103 102/102/102 101/101/101
f 101/101/101 104/104/104 103/103/103
f 104/104/104 105/105/105 103/103/103
f 104/104/104 106/106/106 105/105/105
f 106/106/106 107/107/107 105/105/105
f 106/106/106 108/108/108 107/107/107
f 108/108/108 109/109/109 107/107/107
f 108/108/108 110/110/110 109/109/109
f 110/110/110 111/111/111 109/109/109
f 110/110/110 112/112/112 111/111/111
f 112/112/112 113/113/113 111/111/111
f 112/112/112 114/114/114 113/113/113
f 114/114/114 115/115/115 113/113/113
f 114/114/114 116/116/116 115/115/115
f 119/119/119 118/118/118 117/117/117
f 117/117/117 120/120/120 119/119/119
f 117/117/117 121/121/121 120/120/120
f 121/121/121 122/122/122 120/120/120
f 121/121/121 123/123/123 122/122/122
f 123/123/123 124/124/124 122/122/122
f 123/123/123 125/125/125 124/124/124
f 125/125/125 126/126/126 124/124/124
f 125/125/125 127/127/127 126/126/126
f 127/127/127 128/128/128 126/126/126
f 127/127/127 129/129/129 128/128/128
f 129/129/129 130/130/130 128/128/128
f 129/129/129 131/131/131 130/130/130
f 131/131/131 132/132/132 130/130/130
f 135/135/135 134/134/134 133/133/133
f 136/136/136 135/135/135 133/133/133
f 136/136/136 133/133/133 137/137/137
f 138/138/138 135/135/135 136/136/136
f 139/139/139 136/136/136 137/137/137
f 139/139/139 137/137/137 140/140/140
f 141/141/141 138/138/138 136/136/136
f 141/141/141 136/136/136 139/139/139
f 142/142/142 138/138/138 141/141/141
f 143/143/143 139/139/139 140/140/140
f 143/143/143 140/140/140 144/144/144
f 145/145/145 143/143/143 144/144/144
f 146/146/146 142/142/142 141/141/141
f 147/147/147 142/142/142 146/146/146
f 148/148/148 147/147/147 146/146/146
f 149/149/149 141/141/141 139/139/139
f 149/149/149 139/139/139 143/143/143
f 146/146/146 141/141/141 149/149/149
f 150/150/150 143/143/143 145/145/145
f 150/150/150 149/149/149 143/143/143
f 151/151/151 150/150/150 145/145/145
f 148/148/148 146/146/146 152/152/152
f 152/152/152 146/146/146 149/149/149
f 152/152/152 149/149/149 150/150/150
f 153/153/153 148/148/148 152/152/152
f 154/154/154 150/150/150 151/151/151
f 154/154/154 152/152/152 150/150/150
f 153/153/153 152/152/152 154/154/154
f 155/155/155 154/154/154 151/151/151
f 156/156/156 153/153/153 154/154/154
f 156/156/156 154/154/154 155/155/155
f 157/157/157 156/156/156 155/155/155
f 160/160/160 159/159/159 158/158/158
f 161/161/161 160/160/160 158/158/158
f 161/161/161 158/158/158 162/162/162
f 163/163/163 160/160/160 161/161/161
f 164/164/164 161/161/161 162/162/162
f 164/164/164 162/162/162 165/165/165
f 166/166/166 163/163/163 161/161/161
f 166/166/166 161/161/161 164/164/164
f 167/167/167 163/163/163 166/166/166
f 168/168/168 164/164/164 165/165/165
f 168/168/168 165/165/165 169/169/169
f 170/170/170 168/168/168 169/169/169
f 171/171/171 167/167/167 166/166/166
f 172/172/172 167/167/167 171/171/171
f 173/173/173 172/172/172 171/171/171
f 174/174/174 166/166/166 164/164/164
f 174/174/174 164/164/164 168/168/168
f 171/171/171 166/166/166 174/174/174
f 175/175/175 168/168/168 170/170/170
f 175/175/175 174/174/174 168/168/168
f 176/176/176 175/175/175 170/170/170
f 173/173/173 171/171/171 177/177/177
f 177/177/177 171/171/171 174/174/174
f 177/177/177 174/174/174 175/175/175
f 178/178/178 173/173/173 177/177/177
f 179/179/179 175/175/175 176/176/176
f 179/179/179 177/177/177 175/175/175
f 178/178/178 177/177/177 179/179/179
f 180/180/180 179/179/179 176/176/176
f 181/181/181 178/178/178 179/179/179
f 181/181/181 179/179/179 180/180/180
f 182/182/182 181/181/181 180/180/180
f 185/185/185 184/184/184 183/183/183
f 186/186/186 185/185/185 183/183/183
f 186/186/186 183/183/183 187/187/187
f 188/188/188 185/185/185 186/186/186
f 189/189/189 186/186/186 187/187/187
f 189/189/189 187/187/187 190/190/190
f 191/191/191 188/188/188 186/186/186
f 191/191/191 186/186/186 189/189/189
f 192/192/192 188/188/188 191/191/191
f 193/193/193 189/189/189 190/190/190
f 193/193/193 190/190/190 194/194/194
f 195/195/195 193/193/193 194/194/194
f 196/196/196 192/192/192 191/191/191
f 197/197/197 192/192/192 196/196/196
f 198/198/198 197/197/197 196/196/196
f 199/199/199 191/191/191 189/189/189
f 199/199/199 189/189/189 193/193/193
f 196/196/196 191/191/191 199/199/199
f 200/200/200 193/193/193 195/195/195
f 200/200/200 199/199/199 193/193/193
f 201/201/201 200/200/200 195/195/195
f 198/198/198 196/196/196 202/202/202
f 202/202/202 196/196/196 199/199/199
f 202/202/202 199/199/199 200/200/200
f 203/203/203 198/198/198 202/202/202
f 204/204/204 200/200/200 201/201/201
f 204/204/204 202/202/202 200/200/200
f 203/203/203 202/202/202 204/204/204
f 205/205/205 204/204/204 201/201/201
f 206/206/206 203/203/203 204/204/204
f 206/206/206 204/204/204 205/205/205
f 207/207/207 206/206/206 205/205/205
f 210/210/210 209/209/209 208/208/208
f 211/211/211 210/210/210 208/208/208
f 211/211/211 208/208/208 212/212/212
f 213/213/213 210/210/210 211/211/211
f 214/214/214 211/211/211 212/212/212
f 214/214/214 212/212/212 215/215/215
f 216/216/216 213/213/213 211/211/211
f 216/216/216 211/211/211 214/214/214
f 217/217/217 213/213/213 216/216/216
f 218/218/218 214/214/214 215/215/215
f 218/218/218 215/215/215 219/219/219
f 220/220/220 218/218/218 219/219/219
f 221/221/221 217/217/217 216/216/216
f 222/222/222 217/217/217 221/221/221
f 223/223/223 222/222/222 221/221/221
f 224/224/224 216/216/216 214/214/214
f 224/224/224 214/214/214 218/218/218
f 221/221/221 216/216/216 224/224/224
f 225/225/225 218/218/218 220/220/220
f 225/225/225 224/224/224 218/218/218
f 226/226/226 225/225/225 220/220/220
f 223/223/223 221/221/221 227/227/227
f 227/227/227 221/221/221 224/224/224
f 227/227/227 224/224/224 225/225/225
f 228/228/228 223/223/223 227/227/227
f 229/229/229 225/225/225 226/226/226
f 229/229/229 227/227/227 225/225/225
f 228/228/228 227/227/227 229/229/229
f 230/230/230 229/229/229 226/226/226
f 231/231/231 228/228/228 229/229/229
f 231/231/231 229/229/229 230/230/230
f 232/232/232 231/231/231 230/230/230
f 235/235/235 234/234/234 233/233/233
f 233/233/233 236/236/236 235/235/235
f 236/236/236 237/237/237 235/235/235
f 236/236/236 238/238/238 237/237/237
f 238/238/238 239/239/239 237/237/237
f 238/238/238 240/240/240 239/239/239
f 240/240/240 241/241/241 239/239/239
f 240/240/240 242/242/242 241/241/241
f 242/242/242 243/243/243 241/241/241
f 242/242/242 244/244/244 243/243/243
f 244/244/244 245/245/245 243/243/243
f 244/244/244 246/246/246 245/245/245
f 246/246/246 247/247/247 245/245/245
f 246/246/246 248/248/248 247/247/247
f 251/251/251 250/250/250 249/249/249
f 249/249/249 252/252/252 251/251/251
f 249/249/249 253/253/253 252/252/252
f 253/253/253 254/254/254 252/252/252
f 253/253/253 255/255/255 254/254/254
f 255/255/255 256/256/256 254/254/254
f 255/255/255 257/257/257 256/256/256
f 257/257/257 258/258/258 256/256/256
f 257/257/257 259/259/259 258/258/258
f 259/259/259 260/260/260 258/258/258
f 259/259/259 261/261/261 260/260/260
f 261/261/261 262/262/262 260/260/260
f 261/261/261 263/263/263 262/262/262
f 263/263/263 264/264/264 262/262/262
f 267/267/267 266/266/266 265/265/265
f 268/268/268 267/267/267 265/265/265
f 268/268/268 265/265/265 269/269/269
f 270/270/270 267/267/267 268/268/268
f 271/271/271 268/268/268 269/269/269
f 271/271/271 269/269/269 272/272/272
f 273/273/273 270/270/270 268/268/268
f 273/273/273 268/268/268 271/271/271
f 274/274/274 270/270/270 273/273/273
f 275/275/275 271/271/271 272/272/272
f 275/275/275 272/272/272 276/276/276
f 277/277/277 275/275/275 276/276/276
f 278/278/278 274/274/274 273/273/273
f 279/279/279 274/274/274 278/278/278
f 280/280/280 279/279/279 278/278/278
f 281/281/281 273/273/273 271/271/271
f 281/281/281 271/271/271 275/275/275
f 278/278/278 273/273/273 281/281/281
f 282/282/282 275/275/275 277/277/277
f 282/282/282 281/281/281 275/275/275
f 283/283/283 282/282/282 277/277/277
f 280/280/280 278/278/278 284/284/284
f 284/284/284 278/278/278 281/281/281
f 284/284/284 281/281/281 282/282/282
f 285/285/285 280/280/280 284/284/284
f 286/286/286 282/282/282 283/283/283
f 286/286/286 284/284/284 282/282/282
f 285/285/285 284/284/284 286/286/286
f 287/287/287 286/286/286 283/283/283
f 288/288/288 285/285/285 286/286/286
f 288/288/288 286/286/286 287/287/287
f 289/289/289 288/288/288 287/287/287
f 292/292/292 291/291/291 290/290/290
f 293/293/293 292/292/292 290/290/290
f 293/293/293 290/290/290 294/294/294
f 295/295/295 292/292/292 293/293/293
f 296/296/296 293/293/293 294/294/294
f 296/296/296 294/294/294 297/297/297
f 298/298/298 295/295/295 293/293/293
f 298/298/298 293/293/293 296/296/296
f 299/299/299 295/295/295 298/298/298
f 300/300/300 296/296/296 297/297/297
f 300/300/300 297/297/297 301/301/301
f 302/302/302 300/300/300 301/301/301
f 303/303/303 299/299/299 298/298/298
f 304/304/304 299/299/299 303/303/303
f 305/305/305 304/304/304 303/303/303
f 306/306/306 298/298/298 296/296/296
f 306/306/306 296/296/296 300/300/300
f 303/303/303 298/298/298 306/306/306
f 307/307/307 300/300/300 302/302/302
f 307/307/307 306/306/306 300/300/300
f 308/308/308 307/307/307 302/302/302
f 305/305/305 303/303/303 309/309/309
f 309/309/309 303/303/303 306/306/306
f 309/309/309 306/306/306 307/307/307
f 310/310/310 305/305/305 309/309/309
f 311/311/311 307/307/307 308/308/308
f 311/311/311 309/309/309 307/307/307
f 310/310/310 309/309/309 311/311/311
f 312/312/312 311/311/311 308/308/308
f 313/313/313 310/310/310 311/311/311
f 313/313/313 311/311/311 312/312/312
f 314/314/314 313/313/313 312/312/312
f 317/317/317 316/316/316 315/315/315
f 318/318/318 317/317/317 315/315/315
f 318/318/318 315/315/315 319/319/319
f 320/320/320 317/317/317 318/318/318
f 321/321/321 318/318/318 319/319/319
f 321/321/321 319/319/319 322/322/322
f 323/323/323 320/320/320 318/318/318
f 323/323/323 318/318/318 321/321/321
f 324/324/324 320/320/320 323/323/323
f 325/325/325 321/321/321 322/322/322
f 325/325/325 322/322/322 326/326/326
f 327/327/327 325/325/325 326/326/326
f 328/328/328 324/324/324 323/323/323
f 329/329/329 324/324/324 328/328/328
f 330/330/330 329/329/329 328/328/328
f 331/331/331 323/323/323 321/321/321
f 331/331/331 321/321/321 325/325/325
f 328/328/328 323/323/323 331/331/331
f 332/332/332 325/325/325 327/327/327
f 332/332/332 331/331/331 325/325/325
f 333/333/333 332/332/332 327/327/327
f 330/330/330 328/328/328 334/334/334
f 334/334/334 328/328/328 331/331/331
f 334/334/334 331/331/331 332/332/332
f 335/335/335 330/330/330 334/334/334
f 336/336/336 332/332/332 333/333/333
f 336/336/336 334/334/334 332/332/332
f 335/335/335 334/334/334 336/336/336
f 337/337/337 336/336/336 333/333/333
f 338/338/338 335/335/335 336/336/336
f 338/338/338 336/336/336 337/337/337
f 339/339/339 338/338/338 337/337/337
f 342/342/342 341/341/341 340/340/340
f 343/343/343 342/342/342 340/340/340
f 343/343/343 340/340/340 344/344/344
f 345/345/345 342/342/342 343/343/343
f 346/346/346 343/343/343 344/344/344
f 346/346/346 344/344/344 347/347/347
f 348/348/348 345/345/345 343/343/343
f 348/348/348 343/343/343 346/346/346
f 349/349/349 345/345/345 348/348/348
f 350/350/350 346/346/346 347/347/347
f 350/350/350 347/347/347 351/351/351
f 352/352/352 350/350/350 351/351/351
f 353/353/353 349/349/349 348/348/348
f 354/354/354 349/349/349 353/353/353
f 355/355/355 354/354/354 353/353/353
f 356/356/356 348/348/348 346/346/346
f 356/356/356 346/346/346 350/350/350
f 353/353/353 348/348/348 356/356/356
f 357/357/357 350/350/350 352/352/352
f 357/357/357 356/356/356 350/350/350
f 358/358/358 357/357/357 352/352/352
f 355/355/355 353/353/353 359/359/359
f 359/359/359 353/353/353 356/356/356
f 359/359/359 356/356/356 357/357/357
f 360/360/360 355/355/355 359/359/359
f 361/361/361 357/357/357 358/358/358
f 361/361/361 359/359/359 357/357/357
f 360/360/360 359/359/359 361/361/361
f 362/362/362 361/361/361 358/358/358
f 363/363/363 360/360/360 361/361/361
f 363/363/363 361/361/361 362/362/362
f 364/364/364 363/363/363 362/362/362
f 367/367/367 366/366/366 365/365/365
f 365/365/365 368/368/368 367/367/367
f 368/368/368 369/369/369 367/367/367
f 368/368/368 370/370/370 369/369/369
f 370/370/370 371/371/371 369/369/369
f 370/370/370 372/372/372 371/371/371
f 372/372/372 373/373/373 371/371/371
f 372/372/372 374/374/374 373/373/373
f 374/374/374 375/375/375 373/373/373
f 374/374/374 376/376/376 375/375/375
f 376/376/376 377/377/377 375/375/375
f 376/376/376 378/378/378 377/377/377
f 378/378/378 379/379/379 377/377/377
f 378/378/378 380/380/380 379/379/379
f 383/383/383 382/382/382 381/381/381
f 381/381/381 384/384/384 383/383/383
f 381/381/381 385/385/385 384/384/384
f 385/385/385 386/386/386 384/384/384
f 385/385/385 387/387/387 386/386/386
f 387/387/387 388/388/388 386/386/386
f 387/387/387 389/389/389 388/388/388
f 389/389/389 390/390/390 388/388/388
f 389/389/389 391/391/391 390/390/390
f 391/391/391 392/392/392 390/390/390
f 391/391/391 393/393/393 392/392/392
f 393/393/393 394/394/394 392/392/392
f 393/393/393 395/395/395 394/394/394
f 395/395/395 396/396/396 394/394/394
f 399/399/399 398/398/398 397/397/397
f 400/400/400 399/399/399 397/397/397
f 400/400/400 397/397/397 401/401/401
f 402/402/402 399/399/399 400/400/400
f 403/403/403 400/400/400 401/401/401
f 403/403/403 401/401/401 404/404/404
f 405/405/405 402/402/402 400/400/400
f 405/405/405 400/400/400 403/403/403
f 406/406/406 402/402/402 405/405/405
f 407/407/407 403/403/403 404/404/404
f 407/407/407 404/404/404 408/408/408
f 409/409/409 407/407/407 408/408/408
f 410/410/410 406/406/406 405/405/405
f 411/411/411 406/406/406 410/410/410
f 412/412/412 411/411/411 410/410/410
f 413/413/413 405/405/405 403/403/403
f 413/413/413 403/403/403 407/407/407
f 410/410/410 405/405/405 413/413/413
f 414/414/414 407/407/407 409/409/409
f 414/414/414 413/413/413 407/407/407
f 415/415/415 414/414/414 409/409/409
f 412/412/412 410/410/410 416/416/416
f 416/416/416 410/410/410 413/413/413
f 416/416/416 413/413/413 414/414/414
f 417/417/417 412/412/412 416/416/416
f 418/418/418 414/414/414 415/415/415
f 418/418/418 416/416/416 414/414/414
f 417/417/417 416/416/416 418/418/418
f 419/419/419 418/418/418 415/415/415
f 420/420/420 417/417/417 418/418/418
f 420/420/420 418/418/418 419/419/419
f 421/421/421 420/420/420 419/419/419
f 424/424/424 423/423/423 422/422/422
f 425/425/425 424/424/424 422/422/422
f 425/425/425 422/422/422 426/426/426
f 427/427/427 424/424/424 425/425/425
f 428/428/428 425/425/425 426/426/426
f 428/428/428 426/426/426 429/429/429
f 430/430/430 427/427/427 425/425/425
f 430/430/430 425/425/425 428/428/428
f 431/431/431 427/427/427 430/430/430
f 432/432/432 428/428/428 429/429/429
f 432/432/432 429/429/429 433/433/433
f 434/434/434 432/432/432 433/433/433
f 435/435/435 431/431/431 430/430/430
f 436/436/436 431/431/431 435/435/435
f 437/437/437 436/436/436 435/435/435
f 438/438/438 430/430/430 428/428/428
f 438/438/438 428/428/428 432/432/432
f 435/435/435 430/430/430 438/438/438
f 439/439/439 432/432/432 434/434/434
f 439/439/439 438/438/438 432/432/432
f 440/440/440 439/439/439 434/434/434
f 437/437/437 435/435/435 441/441/441
f 441/441/441 435/435/435 438/438/438
f 441/441/441 438/438/438 439/439/439
f 442/442/442 437/437/437 441/441/441
f 443/443/443 439/439/439 440/440/440
f 443/443/443 441/441/441 439/439/439
f 442/442/442 441/441/441 443/443/443
f 444/444/444 443/443/443 440/440/440
f 445/445/445 442/442/442 443/443/443
f 445/445/445 443/443/443 444/444/444
f 446/446/446 445/445/445 444/444/444
f 449/449/449 448/448/448 447/447/447
f 450/450/450 449/449/449 447/447/447
f 450/450/450 447/447/447 451/451/451
f 452/452/452 449/449/449 450/450/450
f 453/453/453 450/450/450 451/451/451
f 453/453/453 451/451/451 454/454/454
f 455/455/455 452/452/452 450/450/450
f 455/455/455 450/450/450 453/453/453
f 456/456/456 452/452/452 455/455/455
f 457/457/457 453/453/453 454/454/454
f 457/457/457 454/454/454 458/458/458
f 459/459/459 457/457/457 458/458/458
f 460/460/460 456/456/456 455/455/455
f 461/461/461 456/456/456 460/460/460
f 462/462/462 461/461/461 460/460/460
f 463/463/463 455/455/455 453/453/453
f 463/463/463 453/453/453 457/457/457
f 460/460/460 455/455/455 463/463/463
f 464/464/464 457/457/457 459/459/459
f 464/464/464 463/463/463 457/457/457
f 465/465/465 464/464/464 459/459/459
f 462/462/462 460/460/460 466/466/466
f 466/466/466 460/460/460 463/463/463
f 466/466/466 463/463/463 464/464/464
f 467/467/467 462/462/462 466/466/466
f 468/468/468 464/464/464 465/465/465
f 468/468/468 466/466/466 464/464/464
f 467/467/467 466/466/466 468/468/468
f 469/469/469 468/468/468 465/465/465
f 470/470/470 467/467/467 468/468/468
f 470/470/470 468/468/468 469/469/469
f 471/471/471 470/470/470 469/469/469
f 474/474/474 473/473/473 472/472/472
f 475/475/475 474/474/474 472/472/472
f 475/475/475 472/472/472 476/476/476
f 477/477/477 474/474/474 475/475/475
f 478/478/478 475/475/475 476/476/476
f 478/478/478 476/476/476 479/479/479
f 480/480/480 477/477/477 475/475/475
f 480/480/480 475/475/475 478/478/478
f 481/481/481 477/477/477 480/480/480
f 482/482/482 478/478/478 479/479/479
f 482/482/482 479/479/479 483/483/483
f 484/484/484 482/482/482 483/483/483
f 485/485/485 481/481/481 480/480/480
f 486/486/486 481/481/481 485/485/485
f 487/487/487 486/486/486 485/485/485
f 488/488/488 480/480/480 478/478/478
f 488/488/488 478/478/478 482/482/482
f 485/485/485 480/480/480 488/488/488
f 489/489/489 482/482/482 484/484/484
f 489/489/489 488/488/488 482/482/482
f 490/490/490 489/489/489 484/484/484
f 487/487/487 485/485/485 491/491/491
f 491/491/491 485/485/485 488/488/488
f 491/491/491 488/488/488 489/489/489
f 492/492/492 487/487/487 491/491/491
f 493/493/493 489/489/489 490/490/490
f 493/493/493 491/491/491 489/489/489
f 492/492/492 491/491/491 493/493/493
f 494/494/494 493/493/493 490/490/490
f 495/495/495 492/492/492 493/493/493
f 495/495/495 493/493/493 494/494/494
f 496/496/496 495/495/495 494/494/494
f 499/499/499 498/498/498 497/497/497
f 497/497/497 500/500/500 499/499/499
f 500/500/500 501/501/501 499/499/499
f 500/500/500 502/502/502 501/501/501
f 502/502/502 503/503/503 501/501/501
f 502/502/502 504/504/504 503/503/503
f 504/504/504 505/505/505 503/503/503
f 504/504/504 506/506/506 505/505/505
f 506/506/506 507/507/507 505/505/505
f 506/506/506 508/508/508 507/507/507
f 508/508/508 509/509/509 507/507/507
f 508/508/508 510/510/510 509/509/509
f 510/510/510 511/511/511 509/509/509
f 510/510/510 512/512/512 511/511/511
f 515/515/515 514/514/514 513/513/513
f 513/513/513 516/516/516 515/515/515
f 513/513/513 517/517/517 516/516/516
f 517/517/517 518/518/518 516/516/516
f 517/517/517 519/519/519 518/518/518
f 519/519/519 520/520/520 518/518/518
f 519/519/519 521/521/521 520/520/520
f 521/521/521 522/522/522 520/520/520
f 521/521/521 523/523/523 522/522/522
f 523/523/523 524/524/524 522/522/522
f 523/523/523 525/525/525 524/524/524
f 525/525/525 526/526/526 524/524/524
f 525/525/525 527/527/527 526/526/526
f 527/527/527 528/528/528 526/526/526
f 531/531/531 530/530/530 529/529/529
f 529/529/529 530/530/530 532/532/532
f 530/530/530 531/531/531 533/533/533
f 532/532/532 530/530/530 533/533/533
f 529/529/529 534/534/534 531/531/531
f 535/535/535 529/529/529 532/532/532
f 534/534/534 529/529/529 535/535/535
f 532/532/532 533/533/533 536/536/536
f 535/535/535 532/532/532 537/537/537
f 532/532/532 536/536/536 537/537/537
f 533/533/533 531/531/531 538/538/538
f 534/534/534 539/539/539 531/531/531
f 531/531/531 539/539/539 538/538/538
f 533/533/533 540/540/540 536/536/536
f 533/533/533 538/538/538 540/540/540
f 541/541/541 534/534/534 535/535/535
f 535/535/535 537/537/537 542/542/542
f 541/541/541 535/535/535 542/542/542
f 534/534/534 543/543/543 539/539/539
f 543/543/543 534/534/534 541/541/541
f 537/537/537 536/536/536 544/544/544
f 536/536/536 540/540/540 545/545/545
f 536/536/536 545/545/545 544/544/544
f 542/542/542 537/537/537 546/546/546
f 537/537/537 544/544/544 546/546/546
f 538/538/538 547/547/547 540/540/540
f 538/538/538 539/539/539 548/548/548
f 538/538/538 548/548/548 547/547/547
f 543/543/543 549/549/549 539/539/539
f 539/539/539 549/549/549 548/548/548
f 540/540/540 550/550/550 545/545/545
f 540/540/540 547/547/547 550/550/550
f 541/541/541 542/542/542 551/551/551
f 552/552/552 543/543/543 541/541/541
f 552/552/552 541/541/541 551/551/551
f 542/542/542 546/546/546 553/553/553
f 551/551/551 542/542/542 553/553/553
f 543/543/543 554/554/554 549/549/549
f 554/554/554 543/543/543 552/552/552
f 548/548/548 555/555/555 547/547/547
f 548/548/548 549/549/549 556/556/556
f 548/548/548 556/556/556 555/555/555
f 547/547/547 557/557/557 550/550/550
f 547/547/547 555/555/555 557/557/557
f 554/554/554 558/558/558 549/549/549
f 549/549/549 558/558/558 556/556/556
f 552/552/552 551/551/551 559/559/559
f 560/560/560 554/554/554 552/552/552
f 560/560/560 552/552/552 559/559/559
f 551/551/551 553/553/553 561/561/561
f 559/559/559 551/551/551 561/561/561
f 554/554/554 562/562/562 558/558/558
f 562/562/562 554/554/554 560/560/560
f 556/556/556 563/563/563 555/555/555
f 556/556/556 558/558/558 564/564/564
f 556/556/556 564/564/564 563/563/563
f 555/555/555 565/565/565 557/557/557
f 555/555/555 563/563/563 565/565/565
f 562/562/562 566/566/566 558/558/558
f 558/558/558 566/566/566 564/564/564
f 560/560/560 559/559/559 567/567/567
f 568/568/568 562/562/562 560/560/560
f 568/568/568 560/560/560 567/567/567
f 559/559/559 561/561/561 569/569/569
f 567/567/567 559/559/559 569/569/569
f 562/562/562 570/570/570 566/566/566
f 570/570/570 562/562/562 568/568/568
f 564/564/564 571/571/571 563/563/563
f 564/564/564 566/566/566 572/572/572
f 564/564/564 572/572/572 571/571/571
f 563/563/563 573/573/573 565/565/565
f 563/563/563 571/571/571 573/573/573
f 570/570/570 574/574/574 566/566/566
f 566/566/566 574/574/574 572/572/572
f 568/568/568 567/567/567 575/575/575
f 576/576/576 570/570/570 568/568/568
f 576/576/576 568/568/568 575/575/575
f 567/567/567 569/569/569 577/577/577
f 575/575/575 567/567/567 577/577/577
f 570/570/570 578/578/578 574/574/574
f 578/578/578 570/570/570 576/576/576
f 572/572/572 579/579/579 571/571/571
f 572/572/572 574/574/574 580/580/580
f 572/572/572 580/580/580 579/579/579
f 571/571/571 581/581/581 573/573/573
f 571/571/571 579/579/579 581/581/581
f 578/578/578 582/582/582 574/574/574
f 574/574/574 582/582/582 580/580/580
f 576/576/576 575/575/575 583/583/583
f 584/584/584 578/578/578 576/576/576
f 584/584/584 576/576/576 583/583/583
f 575/575/575 577/577/577 585/585/585
f 583/583/583 575/575/575 585/585/585
f 578/578/578 586/586/586 582/582/582
f 586/586/586 578/578/578 584/584/584
f 580/580/580 587/587/587 579/579/579
f 580/580/580 582/582/582 588/588/588
f 580/580/580 588/588/588 587/587/587
f 579/579/579 589/589/589 581/581/581
f 579/579/579 587/587/587 589/589/589
f 586/586/586 590/590/590 582/582/582
f 582/582/582 590/590/590 588/588/588
f 584/584/584 583/583/583 591/591/591
f 592/592/592 586/586/586 584/584/584
f 592/592/592 584/584/584 591/591/591
f 583/583/583 585/585/585 593/593/593
f 591/591/591 583/583/583 593/593/593
f 586/586/586 594/594/594 590/590/590
f 594/594/594 586/586/586 592/592/592
f 588/588/588 595/595/595 587/587/587
f 588/588/588 590/590/590 596/596/596
f 588/588/588 596/596/596 595/595/595
f 587/587/587 597/597/597 589/589/589
f 587/587/587 595/595/595 597/597/597
f 594/594/594 598/598/598 590/590/590
f 590/590/590 598/598/598 596/596/596
f 592/592/592 591/591/591 599/599/599
f 600/600/600 594/594/594 592/592/592
f 600/600/600 592/592/592 599/599/599
f 591/591/591 593/593/593 601/601/601
f 599/599/599 591/591/591 601/601/601
f 594/594/594 602/602/602 598/598/598
f 602/602/602 594/594/594 600/600/600
f 596/596/596 603/603/603 595/595/595
f 596/596/596 598/598/598 604/604/604
f 596/596/596 604/604/604 603/603/603
f 595/595/595 605/605/605 597/597/597
f 595/595/595 603/603/603 605/605/605
f 602/602/602 606/606/606 598/598/598
f 598/598/598 606/606/606 604/604/604
f 600/600/600 599/599/599 607/607/607
f 608/608/608 602/602/602 600/600/600
f 608/608/608 600/600/600 607/607/607
f 599/599/599 601/601/601 609/609/609
f 607/607/607 599/599/599 609/609/609
f 602/602/602 610/610/610 606/606/606
f 610/610/610 602/602/602 608/608/608
f 604/604/604 611/611/611 603/603/603
f 604/604/604 606/606/606 612/612/612
f 604/604/604 612/612/612 611/611/611
f 603/603/603 613/613/613 605/605/605
f 603/603/603 611/611/611 613/613/613
f 610/610/610 614/614/614 606/606/606
f 606/606/606 614/614/614 612/612/612
f 608/608/608 607/607/607 615/615/615
f 616/616/616 610/610/610 608/608/608
f 616/616/616 608/608/608 615/615/615
f 610/610/610 617/617/617 614/614/614
f 617/617/617 610/610/610 616/616/616
f 614/614/614 617/617/617 618/618/618
f 612/612/612 614/614/614 618/618/618
f 618/618/618 617/617/617 616/616/616
f 612/612/612 619/619/619 611/611/611
f 612/612/612 618/618/618 619/619/619
f 618/618/618 616/616/616 620/620/620
f 616/616/616 615/615/615 620/620/620
f 618/618/618 620/620/620 619/619/619
f 615/615/615 607/607/607 621/621/621
f 607/607/607 609/609/609 621/621/621
f 611/611/611 619/619/619 622/622/622
f 611/611/611 622/622/622 613/613/613
f 620/620/620 615/615/615 623/623/623
f 615/615/615 621/621/621 623/623/623
f 619/619/619 620/620/620 624/624/624
f 619/619/619 624/624/624 622/622/622
f 620/620/620 623/623/623 624/624/624
f 621/621/621 609/609/609 625/625/625
f 623/623/623 621/621/621 626/626/626
f 621/621/621 625/625/625 626/626/626
f 624/624/624 623/623/623 627/627/627
f 623/623/623 626/626/626 627/627/627
f 622/622/622 624/624/624 628/628/628
f 624/624/624 627/627/627 628/628/628
f 613/613/613 622/622/622 629/629/629
f 622/622/622 628/628/628 629/629/629
f 609/609/609 630/630/630 625/625/625
f 609/609/609 601/601/601 630/630/630
f 613/613/613 629/629/629 631/631/631
f 605/605/605 613/613/613 631/631/631
f 601/601/601 632/632/632 630/630/630
f 601/601/601 593/593/593 632/632/632
f 605/605/605 631/631/631 633/633/633
f 597/597/597 605/605/605 633/633/633
f 593/593/593 634/634/634 632/632/632
f 593/593/593 585/585/585 634/634/634
f 597/597/597 633/633/633 635/635/635
f 589/589/589 597/597/597 635/635/635
f 585/585/585 636/636/636 634/634/634
f 585/585/585 577/577/577 636/636/636
f 589/589/589 635/635/635 637/637/637
f 581/581/581 589/589/589 637/637/637
f 577/577/577 638/638/638 636/636/636
f 577/577/577 569/569/569 638/638/638
f 581/581/581 637/637/637 639/639/639
f 573/573/573 581/581/581 639/639/639
f 569/569/569 640/640/640 638/638/638
f 569/569/569 561/561/561 640/640/640
f 573/573/573 639/639/639 641/641/641
f 565/565/565 573/573/573 641/641/641
f 561/561/561 642/642/642 640/640/640
f 561/561/561 553/553/553 642/642/642
f 565/565/565 641/641/641 643/643/643
f 557/557/557 565/565/565 643/643/643
f 553/553/553 644/644/644 642/642/642
f 553/553/553 546/546/546 644/644/644
f 557/557/557 643/643/643 645/645/645
f 550/550/550 557/557/557 645/645/645
f 546/546/546 646/646/646 644/644/644
f 546/546/546 544/544/544 646/646/646
f 550/550/550 645/645/645 647/647/647
f 545/545/545 550/550/550 647/647/647
f 544/544/544 545/545/545 648/648/648
f 544/544/544 648/648/648 646/646/646
f 545/545/545 647/647/647 648/648/648
f 641/641/641 649/649/649 643/643/643
f 643/643/643 650/650/650 645/645/645
f 649/649/649 650/650/650 643/643/643
f 645/645/645 651/651/651 647/647/647
f 650/650/650 651/651/651 645/645/645
f 647/647/647 652/652/652 648/648/648
f 651/651/651 652/652/652 647/647/647
f 652/652/652 653/653/653 648/648/648
f 648/648/648 653/653/653 646/646/646
f 653/653/653 652/652/652 651/651/651
f 653/653/653 654/654/654 646/646/646
f 651/651/651 654/654/654 653/653/653
f 651/651/651 650/650/650 654/654/654
f 646/646/646 654/654/654 644/644/644
f 650/650/650 655/655/655 654/654/654
f 654/654/654 655/655/655 644/644/644
f 650/650/650 649/649/649 655/655/655
f 644/644/644 655/655/655 642/642/642
f 655/655/655 656/656/656 642/642/642
f 649/649/649 656/656/656 655/655/655
f 642/642/642 656/656/656 640/640/640
f 649/649/649 657/657/657 656/656/656
f 657/657/657 649/649/649 641/641/641
f 639/639/639 657/657/657 641/641/641
f 656/656/656 658/658/658 640/640/640
f 657/657/657 658/658/658 656/656/656
f 640/640/640 658/658/658 638/638/638
f 659/659/659 657/657/657 639/639/639
f 657/657/657 659/659/659 658/658/658
f 637/637/637 659/659/659 639/639/639
f 658/658/658 660/660/660 638/638/638
f 659/659/659 660/660/660 658/658/658
f 638/638/638 660/660/660 636/636/636
f 661/661/661 659/659/659 637/637/637
f 659/659/659 661/661/661 660/660/660
f 635/635/635 661/661/661 637/637/637
f 660/660/660 662/662/662 636/636/636
f 661/661/661 662/662/662 660/660/660
f 636/636/636 662/662/662 634/634/634
f 663/663/663 661/661/661 635/635/635
f 661/661/661 663/663/663 662/662/662
f 633/633/633 663/663/663 635/635/635
f 662/662/662 664/664/664 634/634/634
f 663/663/663 664/664/664 662/662/662
f 634/634/634 664/664/664 632/632/632
f 665/665/665 663/663/663 633/633/633
f 663/663/663 665/665/665 664/664/664
f 631/631/631 665/665/665 633/633/633
f 664/664/664 666/666/666 632/632/632
f 665/665/665 666/666/666 664/664/664
f 632/632/632 666/666/666 630/630/630
f 667/667/667 665/665/665 631/631/631
f 665/665/665 667/667/667 666/666/666
f 629/629/629 667/667/667 631/631/631
f 666/666/666 668/668/668 630/630/630
f 667/667/667 668/668/668 666/666/666
f 630/630/630 668/668/668 625/625/625
f 669/669/669 667/667/667 629/629/629
f 667/667/667 669/669/669 668/668/668
f 628/628/628 669/669/669 629/629/629
f 668/668/668 670/670/670 625/625/625
f 669/669/669 670/670/670 668/668/668
f 625/625/625 670/670/670 626/626/626
f 671/671/671 669/669/669 628/628/628
f 669/669/669 671/671/671 670/670/670
f 627/627/627 671/671/671 628/628/628
f 626/626/626 672/672/672 627/627/627
f 670/670/670 672/672/672 626/626/626
f 671/671/671 672/672/672 670/670/670
f 672/672/672 671/671/671 627/627/627

