mtllib material.mtl
usemtl material_0
v 2.45839700 0.90603010 0.58959590
v 2.45839700 0.08000023 0.58959590
v 0.58960080 0.08000023 0.58959590
v 0.58960080 0.90603010 0.58959590
v 0.58960080 0.90603010 0.58959590
v 0.58960080 0.08000023 0.58959590
v 0.58960080 0.08000023 1.21920100
v 0.58960080 0.90603010 1.21920100
v 0.58960080 0.08000023 1.21920100
v -0.00000122 0.90603010 1.21920100
v 0.58960080 0.90603010 1.21920100
v -0.00000122 0.08013044 1.21920100
v 2.47736200 0.08026107 0.57063480
v 2.47736200 0.00026093 0.57063480
v 0.57063840 0.00026093 0.57063480
v 0.57063840 0.08026107 0.57063480
v 0.56960080 0.08013054 1.19920000
v 0.56960080 0.00013039 1.19920000
v -0.00000122 0.00000000 1.19920100
v -0.00000122 0.08013044 1.19920100
v 2.47736200 0.00026093 0.57063480
v 3.04800200 0.00000000 0.00000000
v -0.00000122 0.00000000 0.00000000
v 0.57063840 0.00026093 0.57063480
v 2.45839700 0.90603010 0.58959590
v 2.45839700 0.90603010 1.21920100
v 2.45839700 0.08000023 1.21920100
v 2.45839700 0.08000023 0.58959590
v 2.45839700 0.08000023 1.21920100
v 2.45839700 0.90603010 1.21920100
v 3.04800200 0.90603010 1.21920100
v 3.04800200 0.08013082 1.21920100
v 0.57063840 0.00026093 0.57063480
v 2.47736200 0.00026093 0.57063480
v 3.04800200 0.00000000 0.00000000
v -0.00000122 0.00000000 0.00000000
v 3.04800200 0.90603010 0.00000000
v -0.00000122 0.90603040 0.00000000
v -0.00000122 0.00000000 0.00000000
v 3.04800200 0.00000000 0.00000000
v 2.47839700 0.08013054 1.19920000
v 3.04800200 0.08013082 1.19920100
v 3.04800200 -0.00000000 1.19920100
v 2.47839700 0.00013039 1.19920000
v 0.58960080 0.08000023 1.21920100
v -0.00000122 0.08013044 1.19920100
v -0.00000122 0.08013044 1.21920100
v 0.56960080 0.08013054 1.19920000
v 0.57063840 0.08026107 0.57063480
v 0.58960080 0.08000023 0.58959590
v 2.45839700 0.08000023 0.58959590
v 2.47736200 0.08026107 0.57063480
v 2.47839700 0.08013054 1.19920000
v 2.45839700 0.08000023 1.21920100
v 3.04800200 0.08013082 1.21920100
v 3.04800200 0.08013082 1.19920100
v 2.47736200 0.08026107 0.57063480
v 2.47839700 0.08013054 1.19920000
v 2.47839700 0.00013039 1.19920000
v 2.47736200 0.00026093 0.57063480
v 2.47736200 0.00026093 0.57063480
v 2.47839700 0.00013039 1.19920000
v 3.04800200 -0.00000000 1.19920100
v 3.04800200 0.00000000 0.00000000
v 3.04800200 0.00000000 0.00000000
v 3.04800200 -0.00000000 1.19920100
v 3.04800200 0.08013082 1.19920100
v 3.04800200 0.90603010 0.00000000
v 3.04800200 0.08013082 1.21920100
v 3.04800200 0.90603010 1.21920100
v -0.00000122 0.90603010 1.21920100
v -0.00000122 0.08013044 1.21920100
v -0.00000122 0.08013044 1.19920100
v -0.00000122 0.90603040 0.00000000
v -0.00000122 0.00000000 1.19920100
v -0.00000122 0.00000000 0.00000000
v -0.00000122 0.00000000 0.00000000
v -0.00000122 0.00000000 1.19920100
v 0.56960080 0.00013039 1.19920000
v 0.57063840 0.00026093 0.57063480
v 0.57063840 0.00026093 0.57063480
v 0.56960080 0.00013039 1.19920000
v 0.56960080 0.08013054 1.19920000
v 0.57063840 0.08026107 0.57063480
vn 0.00000000 0.00000000 1.00000000
vn 0.00000000 0.00000000 1.00000000
vn 0.00000000 0.00000000 1.00000000
vn 0.00000000 0.00000000 1.00000000
vn 1.00000000 0.00000000 0.00000000
vn 1.00000000 0.00000000 0.00000000
vn 1.00000000 0.00000000 0.00000000
vn 1.00000000 0.00000000 0.00000000
vn 0.00000000 0.00000000 1.00000000
vn 0.00000000 0.00000000 1.00000000
vn 0.00000000 0.00000000 1.00000000
vn 0.00000000 0.00000000 1.00000000
vn 0.00000000 0.00000000 1.00000000
vn 0.00000000 0.00000000 1.00000000
vn 0.00000000 0.00000000 1.00000000
vn 0.00000000 0.00000000 1.00000000
vn 0.00000214 0.00000000 1.00000000
vn 0.00000214 0.00000000 1.00000000
vn 0.00000214 0.00000000 1.00000000
vn 0.00000214 0.00000000 1.00000000
vn 0.00000000 -0.99999990 0.00045725
vn 0.00000000 -0.99999990 0.00045725
vn 0.00000000 -0.99999990 0.00045725
vn 0.00000000 -0.99999990 0.00045725
vn -1.00000000 0.00000000 0.00000000
vn -1.00000000 0.00000000 0.00000000
vn -1.00000000 0.00000000 0.00000000
vn -1.00000000 0.00000000 0.00000000
vn 0.00000000 0.00000000 1.00000000
vn 0.00000000 0.00000000 1.00000000
vn 0.00000000 0.00000000 1.00000000
vn 0.00000000 0.00000000 1.00000000
vn 0.00000000 -0.99999990 0.00045725
vn 0.00000000 -0.99999990 0.00045725
vn 0.00000000 -0.99999990 0.00045725
vn 0.00000000 -0.99999990 0.00045725
vn 0.00000000 0.00000000 -1.00000000
vn 0.00000000 0.00000000 -1.00000000
vn 0.00000000 0.00000000 -1.00000000
vn 0.00000000 0.00000000 -1.00000000
vn -0.00000215 0.00000000 1.00000000
vn -0.00000215 0.00000000 1.00000000
vn -0.00000215 0.00000000 1.00000000
vn -0.00000215 0.00000000 1.00000000
vn -0.00515806 -0.99998550 -0.00161318
vn -0.00011224 -0.99999490 -0.00320156
vn -0.00011224 -0.99999490 -0.00320156
vn -0.00515659 -0.99998550 -0.00161364
vn -0.00253763 -0.99994410 -0.01026826
vn -0.00253347 -0.99994410 -0.01027398
vn 0.00253328 -0.99994410 -0.01027424
vn 0.00253784 -0.99994410 -0.01026797
vn 0.00515679 -0.99998550 -0.00161348
vn 0.00515825 -0.99998550 -0.00161302
vn 0.00011289 -0.99999490 -0.00320116
vn 0.00011289 -0.99999490 -0.00320116
vn -0.99999870 0.00000000 0.00164685
vn -0.99999870 0.00000000 0.00164685
vn -0.99999870 0.00000000 0.00164685
vn -0.99999870 0.00000000 0.00164685
vn -0.00037882 -1.00000000 -0.00007121
vn -0.00037882 -1.00000000 -0.00007121
vn -0.00037882 -1.00000000 -0.00007121
vn -0.00037882 -1.00000000 -0.00007121
vn 1.00000000 0.00000000 0.00000000
vn 1.00000000 0.00000000 0.00000000
vn 1.00000000 0.00000307 0.00000000
vn 1.00000000 0.00000201 0.00000000
vn 1.00000000 0.00000611 0.00000000
vn 1.00000000 0.00000569 0.00000000
vn -1.00000000 0.00000071 0.00000000
vn -1.00000000 0.00000076 0.00000000
vn -1.00000000 0.00000038 0.00000000
vn -1.00000000 0.00000025 0.00000000
vn -1.00000000 0.00000000 0.00000000
vn -1.00000000 0.00000000 0.00000000
vn 0.00037882 -1.00000000 -0.00007120
vn 0.00037882 -1.00000000 -0.00007120
vn 0.00037882 -1.00000000 -0.00007120
vn 0.00037882 -1.00000000 -0.00007120
vn 0.99999870 0.00000000 0.00165074
vn 0.99999870 0.00000000 0.00165074
vn 0.99999870 0.00000000 0.00165074
vn 0.99999870 0.00000000 0.00165074
vt -18.46432000 0.96971120
vt -18.46432000 0.32437710
vt -19.92432000 0.32437710
vt -19.92432000 0.96971130
vt -20.03299000 0.43794060
vt -19.38765000 0.43794060
vt -19.38765000 -0.05393982
vt -20.03299000 -0.05393982
vt -19.38765000 0.29308130
vt -20.03299000 -0.16754150
vt -20.03299000 0.29308130
vt -19.38775000 -0.16754150
vt -18.45335000 0.57946400
vt -18.45335000 0.51696210
vt -19.94298000 0.51696210
vt -19.94298000 0.57946400
vt -19.70865000 0.31193540
vt -19.70865000 0.24943540
vt -20.15365000 0.24933430
vt -20.15365000 0.31193540
vt -18.56907000 0.38379480
vt -18.12325000 -0.06200975
vt -20.50451000 -0.06200993
vt -20.05869000 0.38379480
vt -20.20415000 -0.21661000
vt -20.20415000 0.27527050
vt -19.55881000 0.27527050
vt -19.55881000 -0.21661000
vt -19.55881000 -0.07106781
vt -20.20415000 -0.07106602
vt -20.20415000 0.38956260
vt -19.55891000 0.38956260
vt -20.05869000 0.50688740
vt -18.56907000 0.50688750
vt -18.12325000 0.06108099
vt -20.50451000 0.06108093
vt -18.12325000 0.08716589
vt -20.50451000 0.08716583
vt -20.50451000 0.79500200
vt -18.12325000 0.79500200
vt -20.15365000 0.33512690
vt -19.70865000 0.33512690
vt -19.70865000 0.27252580
vt -20.15365000 0.27262690
vt -20.04392000 0.28461070
vt -20.50457000 0.26898570
vt -20.50457000 0.28461070
vt -20.05955000 0.26898570
vt -20.05873000 -0.22210690
vt -20.04392000 -0.20729450
vt -18.58384000 -0.20729250
vt -18.56903000 -0.22210690
vt -18.56821000 0.26898580
vt -18.58384000 0.28461080
vt -18.12319000 0.28461070
vt -18.12319000 0.26898570
vt -20.10699000 0.26555250
vt -19.61592000 0.26545140
vt -19.61592000 0.20295140
vt -20.10699000 0.20305250
vt -19.72553000 0.21773340
vt -20.21660000 0.21854400
vt -20.21660000 0.66354940
vt -19.27972000 0.66354940
vt -19.03481000 0.43140220
vt -19.97169000 0.43140220
vt -19.97169000 0.49400330
vt -19.03481000 1.13923500
vt -19.98732000 0.49400330
vt -19.98732000 1.13923500
vt -19.27394000 0.94989400
vt -19.27394000 0.30466080
vt -19.28956000 0.30466080
vt -20.22644000 0.94989400
vt -19.28956000 0.24205970
vt -20.22644000 0.24205970
vt -19.27972000 0.09640312
vt -20.21659000 0.09640312
vt -20.21659000 0.54140470
vt -19.72553000 0.54221920
vt -19.69159000 0.22624400
vt -20.18266000 0.22614290
vt -20.18266000 0.28864290
vt -19.69159000 0.28874400
f 3/3/3 2/2/2 1/1/1
f 4/4/4 3/3/3 1/1/1
f 7/7/7 6/6/6 5/5/5
f 8/8/8 7/7/7 5/5/5
f 11/11/11 10/10/10 9/9/9
f 10/10/10 12/12/12 9/9/9
f 15/15/15 14/14/14 13/13/13
f 16/16/16 15/15/15 13/13/13
f 19/19/19 18/18/18 17/17/17
f 20/20/20 19/19/19 17/17/17
f 23/23/23 22/22/22 21/21/21
f 24/24/24 23/23/23 21/21/21
f 27/27/27 26/26/26 25/25/25
f 28/28/28 27/27/27 25/25/25
f 31/31/31 30/30/30 29/29/29
f 32/32/32 31/31/31 29/29/29
f 35/35/35 34/34/34 33/33/33
f 36/36/36 35/35/35 33/33/33
f 39/39/39 38/38/38 37/37/37
f 40/40/40 39/39/39 37/37/37
f 43/43/43 42/42/42 41/41/41
f 44/44/44 43/43/43 41/41/41
f 47/47/47 46/46/46 45/45/45
f 46/46/46 48/48/48 45/45/45
f 45/45/45 48/48/48 49/49/49
f 50/50/50 45/45/45 49/49/49
f 50/50/50 49/49/49 51/51/51
f 49/49/49 52/52/52 51/51/51
f 52/52/52 53/53/53 51/51/51
f 53/53/53 54/54/54 51/51/51
f 54/54/54 53/53/53 55/55/55
f 53/53/53 56/56/56 55/55/55
f 59/59/59 58/58/58 57/57/57
f 60/60/60 59/59/59 57/57/57
f 63/63/63 62/62/62 61/61/61
f 64/64/64 63/63/63 61/61/61
f 67/67/67 66/66/66 65/65/65
f 68/68/68 67/67/67 65/65/65
f 69/69/69 67/67/67 68/68/68
f 70/70/70 69/69/69 68/68/68
f 73/73/73 72/72/72 71/71/71
f 74/74/74 73/73/73 71/71/71
f 75/75/75 73/73/73 74/74/74
f 76/76/76 75/75/75 74/74/74
f 79/79/79 78/78/78 77/77/77
f 80/80/80 79/79/79 77/77/77
f 83/83/83 82/82/82 81/81/81
f 84/84/84 83/83/83 81/81/81

