# Blender 4.0.0
# www.blender.org
o decimated_mesh
v -0.051261 0.002418 -0.000469
v -0.050717 -0.000884 -0.000431
v -0.050419 0.000916 0.003033
v -0.050567 0.004306 0.001394
v -0.047193 0.000940 0.004677
v -0.047588 0.002474 0.004794
v -0.049020 0.004008 0.003389
v -0.050676 0.004421 -0.000479
v -0.048946 0.005836 0.001469
v -0.047892 0.005821 0.003109
v -0.050128 -0.000851 -0.000479
v -0.044883 0.001743 0.004982
v -0.049142 0.005303 -0.000478
v -0.046469 0.006265 0.002228
v -0.044894 0.003625 -0.000479
v -0.044894 0.003286 0.005144
v -0.047751 0.005875 0.000556
v -0.044894 0.006064 0.003564
v -0.044894 0.006376 0.002078
v -0.044894 0.005444 -0.000479
v -0.044906 0.004800 0.004618
vn -0.0012 -0.0023 -1.0000
vn -0.0981 -0.1008 0.9901
vn -0.4455 -0.1816 0.8767
vn -0.9573 0.2798 0.0731
vn -0.6501 0.4937 0.5776
vn -0.6348 0.6525 0.4138
vn -0.4898 0.8522 -0.1840
vn -0.4064 0.3811 0.8304
vn 0.3069 -0.9396 0.1515
vn 0.0771 -0.9546 0.2876
vn 0.6285 -0.7350 -0.2546
vn -0.0942 -0.1046 0.9900
vn -0.1099 0.9728 0.2041
vn -0.1310 0.9830 -0.1287
vn -0.2132 0.9476 -0.2379
vn -0.2159 0.3189 0.9229
vn -0.2304 -0.8552 0.4643
vn -0.1660 0.6325 0.7565
vn -0.2968 0.4077 0.8635
vn -0.9999 0.0108 0.0019
vn -1.0000 -0.0077 -0.0000
vn -1.0000 0.0029 -0.0029
vn -1.0000 -0.0077 -0.0005
vn -1.0000 -0.0000 0.0002
vn -0.0796 -0.0245 -0.9965
vn 0.0044 -0.0063 -1.0000
vn -0.0003 -0.0000 -1.0000
vn -0.0021 0.0024 -1.0000
vn -0.9733 -0.1583 0.1661
vn 0.0178 0.9395 -0.3421
vn -0.0298 0.8909 -0.4533
vn -0.7426 0.2649 0.6151
vn -0.9593 0.0879 0.2684
vn -0.0237 0.9074 0.4197
vn -0.6859 0.7227 0.0844
vn -0.2121 0.9664 0.1452
vn -0.0846 0.9828 -0.1642
vn -0.5877 0.1747 0.7900
vn -0.0128 -0.0013 -0.9999
vn -0.0000 -0.0000 -1.0000
vn -0.0003 0.0018 -1.0000
vn -1.0000 -0.0000 0.0022
vn -1.0000 -0.0019 0.0009
vn -1.0000 -0.0031 -0.0010
vn -0.9999 -0.0065 -0.0114
vn -0.1204 0.9508 0.2853
vn -0.0490 0.9775 0.2052
vn -0.9992 -0.0197 -0.0346
s 0
f 13//1 15//1 1//1
f 5//2 16//2 6//2
f 3//3 5//3 6//3
f 4//4 8//4 1//4
f 4//5 7//5 10//5
f 4//6 10//6 9//6
f 8//7 9//7 13//7
f 7//8 6//8 10//8
f 11//9 12//9 5//9
f 11//10 5//10 2//10
f 11//11 15//11 12//11
f 12//12 16//12 5//12
f 19//13 10//13 18//13
f 9//14 14//14 17//14
f 9//15 17//15 13//15
f 16//16 21//16 6//16
f 2//17 5//17 3//17
f 10//18 21//18 18//18
f 10//19 6//19 21//19
f 18//20 19//20 21//20
f 21//21 12//21 16//21
f 19//22 15//22 21//22
f 12//23 21//23 15//23
f 15//24 19//24 20//24
f 2//25 1//25 11//25
f 1//26 8//26 13//26
f 13//27 20//27 15//27
f 15//28 11//28 1//28
f 2//29 3//29 1//29
f 17//30 19//30 20//30
f 20//31 13//31 17//31
f 4//32 3//32 7//32
f 4//33 1//33 3//33
f 19//34 14//34 10//34
f 9//35 8//35 4//35
f 14//36 9//36 10//36
f 19//37 17//37 14//37
f 3//38 6//38 7//38
f 8//39 11//39 1//39
f 8//40 20//40 15//40
f 8//40 15//40 11//40
f 13//41 20//41 8//41
f 15//42 12//42 20//42
f 20//43 12//43 19//43
f 19//44 12//44 18//44
f 18//45 12//45 16//45
f 18//46 14//46 10//46
f 14//47 18//47 19//47
f 21//48 18//48 16//48
