# Blender 4.0.0
# www.blender.org
o decimated_mesh
v -0.341777 -0.003822 -0.103919
v -0.339195 0.006924 -0.107868
v -0.337608 0.013323 -0.105853
v -0.349040 0.002599 -0.103998
v -0.348178 0.011205 -0.104231
v -0.336150 0.017009 -0.102941
v 0.337608 0.013323 -0.105853
v 0.339612 0.006707 -0.107741
v 0.337608 -0.000299 -0.105913
v 0.342146 -0.003870 -0.103527
v -0.355934 0.002491 -0.096358
v -0.342253 0.018107 -0.098827
v 0.338054 0.017800 -0.101463
v 0.348548 0.010861 -0.104275
v 0.348287 0.002005 -0.104188
v -0.355418 -0.003671 -0.087051
v -0.358761 0.006673 -0.087475
v -0.355717 0.010855 -0.096796
v -0.348764 0.017354 -0.095603
v -0.341937 0.019536 -0.090722
v 0.348180 0.017228 -0.096697
v 0.355899 0.002559 -0.096523
v 0.355475 -0.003516 -0.087295
v -0.351709 0.017997 -0.087429
v 0.342517 0.019524 -0.089520
v 0.355776 0.010910 -0.096574
v 0.358790 0.006838 -0.087363
v -0.357165 0.012970 -0.085907
v 0.350263 0.018324 -0.088389
v -0.355688 -0.003506 0.177904
v -0.358761 0.006876 0.178666
v -0.349626 0.018630 0.179048
v 0.353929 0.016524 -0.085907
v 0.357165 0.012970 -0.085907
v -0.341464 -0.003835 0.195264
v 0.355096 -0.003841 0.178403
v -0.357165 0.012970 0.177097
v -0.355914 0.002479 0.187574
v -0.355718 0.010869 0.187959
v 0.358706 0.006793 0.178866
v 0.356814 -0.000996 0.177248
v -0.340537 0.018864 0.188449
v 0.341479 0.019510 0.181442
v 0.342051 -0.003875 0.194786
v -0.353929 0.016524 0.177097
v -0.348174 0.011196 0.195435
v -0.348072 0.017234 0.187966
v 0.357165 0.012970 0.177097
v 0.355853 0.002590 0.187789
v 0.355781 0.010824 0.187772
v -0.336132 0.016903 0.194226
v 0.351720 0.018001 0.178542
v -0.349064 0.002592 0.195187
v -0.339420 0.007066 0.198983
v 0.348106 0.017232 0.187953
v 0.348591 0.010856 0.195455
v -0.337608 0.013323 0.197042
v 0.338137 0.017821 0.192611
v 0.337608 -0.000299 0.197103
v 0.348282 0.002019 0.195396
v 0.339365 0.006598 0.199007
v 0.337608 0.013323 0.197042
vn -0.0000 0.3004 -0.9538
vn -0.0000 0.2962 0.9551
vn -0.9589 -0.2838 0.0002
vn 0.0004 -0.5551 -0.8318
vn -0.2089 0.3406 -0.9167
vn -0.2414 0.6586 -0.7127
vn 0.0008 0.7018 0.7124
vn -0.0003 -0.3228 0.9465
vn 0.5633 -0.6485 0.5120
vn -0.3704 0.0120 -0.9288
vn 0.3234 0.7321 -0.5995
vn 0.0007 0.7001 -0.7140
vn 0.2511 0.6649 -0.7035
vn 0.2064 0.3259 -0.9226
vn -0.2404 -0.2835 -0.9284
vn 0.2155 -0.3038 -0.9280
vn 0.2200 -0.3330 -0.9169
vn 0.0025 -1.0000 -0.0000
vn 0.7291 0.0067 -0.6843
vn -0.3623 0.7472 -0.5572
vn -0.2191 0.9574 0.1880
vn 0.0003 0.9897 -0.1430
vn -0.5459 0.6551 0.5222
vn 0.3697 -0.0200 -0.9290
vn -0.9385 -0.3096 -0.1529
vn 0.1169 0.9852 0.1254
vn 0.9512 0.0090 0.3084
vn -0.5373 0.6691 -0.5134
vn -0.9517 0.0086 -0.3069
vn -0.9419 0.2835 -0.1803
vn -0.6934 0.6845 -0.2252
vn 0.1530 0.9882 0.0004
vn -0.7423 -0.0158 -0.6699
vn -0.9674 0.2533 -0.0000
vn 0.6162 0.7297 0.2963
vn 0.9405 -0.3022 -0.1557
vn -0.4401 0.8979 0.0013
vn 0.9398 0.2914 -0.1787
vn 0.7211 0.6567 -0.2208
vn -0.9436 -0.2909 0.1580
vn -0.9388 0.2926 0.1817
vn -0.7207 0.6564 0.2230
vn 0.9519 0.0122 -0.3061
vn 0.5557 0.6509 0.5173
vn 0.9666 0.2561 -0.0000
vn 0.9473 -0.2670 0.1771
vn 0.9412 0.2862 0.1796
vn 0.1314 0.9780 -0.1620
vn -0.1830 0.9727 -0.1424
vn 0.6788 0.7343 0.0016
vn 0.9717 -0.2362 0.0003
vn -0.5635 -0.6439 -0.5176
vn -0.3709 0.0115 0.9286
vn 0.3238 0.7312 0.6005
vn -0.6778 0.7353 -0.0016
vn 0.6927 0.6844 0.2275
vn -0.9513 0.0080 0.3081
vn 0.5508 0.6520 -0.5211
vn -0.2411 0.6596 0.7119
vn -0.5073 0.8335 0.2188
vn -0.0010 -0.3448 -0.9387
vn 0.0006 -0.5432 0.8396
vn 0.2178 -0.3255 0.9201
vn 0.5639 -0.6470 -0.5132
vn -0.2085 0.3442 0.9154
vn 0.2510 0.6643 0.7041
vn 0.2155 -0.3105 0.9258
vn 0.3668 -0.0190 0.9301
vn 0.2062 0.3236 0.9235
vn 0.0003 0.2746 -0.9616
vn 0.0002 0.2804 0.9599
vn -0.9515 -0.3076 -0.0008
vn -0.2401 -0.2728 0.9316
vn -0.0000 0.6184 0.7859
vn -0.0012 -0.2658 0.9640
vn -0.2932 0.7454 0.5987
vn 0.5540 -0.7069 0.4397
vn -0.2159 0.8626 0.4574
vn -0.0000 0.6199 -0.7847
vn -0.0239 -0.9997 0.0006
vn -0.0001 -1.0000 -0.0000
vn 0.0280 -0.9996 -0.0012
vn -0.0111 -0.9999 -0.0000
vn -0.6285 0.7244 -0.2834
vn 0.7103 -0.0279 -0.7034
vn 0.1991 0.9584 0.2045
vn -0.0002 0.9848 -0.1735
vn -0.0005 0.9468 0.3218
vn 0.8561 -0.5167 0.0006
vn 0.6165 0.7357 -0.2805
vn 0.5556 0.7948 -0.2442
vn 0.0006 0.9887 0.1497
vn 0.7096 -0.0295 0.7040
vn 0.1460 0.9893 0.0006
vn -0.2065 0.9649 -0.1620
vn -0.9694 0.2456 -0.0002
vn -0.0284 0.9996 0.0025
vn -0.0000 1.0000 0.0001
vn -0.0009 1.0000 0.0024
vn 0.8717 -0.4342 0.2271
vn 0.1791 0.9621 -0.2058
vn 0.7301 0.0078 0.6833
vn 0.9702 0.2421 0.0003
vn 0.4415 0.8973 -0.0013
vn -0.0006 0.9659 -0.2588
vn -0.1559 0.9878 -0.0011
vn -0.5578 -0.6536 0.5115
vn -0.5442 -0.7190 0.4323
vn 0.7394 0.6733 -0.0000
vn 0.9524 -0.3050 -0.0019
vn -0.5510 -0.7096 -0.4392
vn -0.7041 0.0524 0.7082
vn -0.7394 0.6733 -0.0000
vn -0.6139 0.7370 0.2826
vn -0.7025 0.0512 -0.7099
vn 0.0001 -0.2525 -0.9676
vn -0.7432 -0.0134 0.6689
vn 0.5543 -0.7067 -0.4397
vn -0.2862 0.7308 -0.6197
vn 0.1464 0.9699 -0.1947
vn -0.0009 -0.3227 0.9465
vn -0.1926 0.9676 -0.1630
vn -0.2026 0.9678 -0.1491
vn 0.1752 0.9694 -0.1718
vn -0.0002 -0.2661 0.9640
vn 0.1465 0.9707 0.1906
vn 0.1858 0.9710 0.1507
s 0
f 7//1 2//1 3//1
f 54//2 62//2 57//2
f 17//3 30//3 31//3
f 1//4 9//4 10//4
f 2//5 5//5 3//5
f 3//6 5//6 6//6
f 62//7 58//7 51//7
f 35//8 61//8 54//8
f 44//9 49//9 60//9
f 2//10 4//10 5//10
f 21//11 14//11 13//11
f 6//12 13//12 7//12
f 7//13 13//13 14//13
f 7//14 14//14 8//14
f 2//15 1//15 4//15
f 8//16 15//16 9//16
f 9//17 15//17 10//17
f 10//18 36//18 44//18
f 14//19 26//19 22//19
f 5//20 19//20 12//20
f 47//21 42//21 32//21
f 20//22 25//22 13//22
f 46//23 47//23 39//23
f 8//24 14//24 15//24
f 11//25 16//25 17//25
f 55//26 52//26 58//26
f 49//27 40//27 50//27
f 18//28 19//28 5//28
f 17//29 18//29 11//29
f 17//30 28//30 18//30
f 18//31 28//31 24//31
f 25//32 52//32 29//32
f 4//33 11//33 18//33
f 28//34 31//34 37//34
f 55//35 50//35 52//35
f 22//36 27//36 23//36
f 24//37 45//37 32//37
f 26//38 34//38 27//38
f 26//39 33//39 34//39
f 30//40 38//40 31//40
f 31//41 39//41 37//41
f 37//42 39//42 45//42
f 27//43 22//43 26//43
f 55//44 56//44 50//44
f 48//45 27//45 34//45
f 40//46 49//46 41//46
f 40//47 48//47 50//47
f 13//48 29//48 21//48
f 19//49 24//49 12//49
f 48//50 33//50 52//50
f 41//51 27//51 40//51
f 1//52 11//52 4//52
f 46//53 53//53 54//53
f 56//54 55//54 58//54
f 28//55 45//55 24//55
f 48//56 52//56 50//56
f 39//57 31//57 38//57
f 21//58 26//58 14//58
f 51//59 46//59 57//59
f 47//60 32//60 45//60
f 2//61 9//61 1//61
f 35//62 44//62 59//62
f 44//63 60//63 59//63
f 10//64 15//64 22//64
f 46//65 54//65 57//65
f 58//66 62//66 56//66
f 59//67 60//67 61//67
f 60//68 56//68 61//68
f 56//69 62//69 61//69
f 7//70 8//70 2//70
f 54//71 61//71 62//71
f 17//72 16//72 30//72
f 54//73 53//73 35//73
f 57//74 62//74 51//74
f 35//75 59//75 61//75
f 46//76 51//76 47//76
f 44//77 36//77 49//77
f 47//78 51//78 42//78
f 7//79 3//79 6//79
f 30//80 16//80 35//80
f 1//81 10//81 35//81
f 23//82 36//82 10//82
f 44//81 35//81 10//81
f 35//83 16//83 1//83
f 18//84 24//84 19//84
f 22//85 15//85 14//85
f 58//86 52//86 43//86
f 13//87 12//87 20//87
f 42//88 51//88 58//88
f 23//89 41//89 36//89
f 21//90 33//90 26//90
f 29//91 33//91 21//91
f 43//92 42//92 58//92
f 56//93 60//93 49//93
f 25//94 43//94 52//94
f 24//95 20//95 12//95
f 28//96 17//96 31//96
f 20//97 32//97 42//97
f 25//98 20//98 43//98
f 43//99 20//99 42//99
f 41//100 49//100 36//100
f 29//101 13//101 25//101
f 56//102 49//102 50//102
f 48//103 40//103 27//103
f 33//104 29//104 52//104
f 6//105 12//105 13//105
f 20//106 24//106 32//106
f 53//107 38//107 35//107
f 38//108 30//108 35//108
f 48//109 34//109 33//109
f 41//110 23//110 27//110
f 1//111 16//111 11//111
f 53//112 46//112 39//112
f 28//113 37//113 45//113
f 47//114 45//114 39//114
f 18//115 5//115 4//115
f 2//116 8//116 9//116
f 53//117 39//117 38//117
f 22//118 23//118 10//118
f 12//119 6//119 5//119
f 25//120 21//120 13//120
f 59//121 54//121 35//121
f 20//122 12//122 19//122
f 24//123 20//123 19//123
f 29//124 21//124 25//124
f 59//125 61//125 54//125
f 58//126 55//126 43//126
f 55//127 52//127 43//127
