# Blender 4.0.0
# www.blender.org
o Cloth_8_cloth_1_1_collision_11
v 0.043651 0.009170 0.031337
v 0.042904 0.009170 0.031589
v 0.042904 0.009251 0.032083
v 0.043315 0.009170 0.032083
v 0.042634 0.009170 0.032083
v 0.042453 0.009170 0.032535
v 0.042904 0.009170 0.032610
vn -0.0547 0.9853 -0.1621
vn 0.1936 0.9772 0.0871
vn -0.0000 -1.0000 -0.0000
vn -0.2848 0.9459 -0.1556
vn -0.2864 0.9512 -0.1151
vn -0.0253 0.9880 0.1526
vn 0.1922 0.9699 0.1498
s 0
f 1//1 2//1 3//1
f 1//2 3//2 4//2
f 1//3 4//3 7//3
f 1//3 7//3 6//3
f 1//3 6//3 5//3
f 1//3 5//3 2//3
f 2//4 5//4 3//4
f 3//5 5//5 6//5
f 3//6 6//6 7//6
f 3//7 7//7 4//7
