# Blender 4.0.0
# www.blender.org
o decimated_mesh
v -0.025494 0.005567 -0.031428
v -0.025490 0.010528 -0.029894
v -0.025494 0.005567 0.004773
v -0.095599 0.005565 -0.021751
v -0.080333 0.009836 -0.023921
v -0.066591 0.012316 -0.023389
v -0.108364 0.005567 0.004773
v -0.025494 0.007648 0.004773
v -0.093882 0.007605 -0.021599
v -0.025494 0.011006 -0.027153
v -0.059931 0.018777 -0.013350
v -0.087107 0.015211 -0.001093
v -0.090965 0.009609 -0.020893
v -0.097389 0.005567 -0.019961
v -0.047513 0.019094 0.004789
v -0.064874 0.019314 0.004746
v -0.084532 0.013223 -0.014727
v -0.066845 0.019240 0.000882
vn 0.1071 -0.2938 0.9498
vn 0.1485 -0.8777 0.4557
vn -0.5417 0.8055 -0.2404
vn 0.2025 -0.2414 0.9491
vn 0.5933 -0.5436 0.5937
vn -0.0127 -0.9996 0.0257
vn -0.1676 -0.9770 0.1318
vn 0.1367 0.0146 0.9905
vn -0.4593 -0.8834 -0.0929
vn 0.2719 -0.8609 -0.4302
vn -0.1756 0.9689 -0.1744
vn 0.2303 -0.6040 0.7630
vn -0.0000 1.0000 -0.0000
vn -1.0000 -0.0000 -0.0000
vn -1.0000 0.0001 -0.0000
vn -1.0000 0.0013 -0.0016
vn 0.0897 -0.6577 0.7479
vn 0.3300 -0.9232 0.1969
vn -0.0000 0.0019 1.0000
vn -0.0007 -0.0000 -1.0000
vn -0.0026 -0.0054 1.0000
vn 0.1393 -0.8722 0.4689
vn -0.5413 0.8316 -0.1239
vn 0.2022 -0.9757 -0.0844
vn -0.0128 -0.9996 0.0263
vn 0.0451 -0.8534 0.5193
vn -0.1517 -0.9737 0.1697
vn 0.1886 -0.9203 0.3427
vn 0.4445 -0.8809 0.1626
vn -0.2111 0.9682 -0.1340
vn -0.0000 1.0000 -0.0001
vn 0.0023 1.0000 0.0010
vn -1.0000 0.0008 -0.0000
vn -1.0000 -0.0000 -0.0001
vn -1.0000 -0.0048 -0.0005
vn -0.0000 -0.0012 1.0000
vn -0.2071 0.9617 -0.1793
vn -0.1823 0.9759 -0.1203
vn -0.0024 0.0094 1.0000
vn -0.5158 0.8282 -0.2193
vn -0.5719 0.7800 -0.2538
s 0
f 1//1 2//1 5//1
f 5//2 11//2 13//2
f 14//3 7//3 13//3
f 9//4 4//4 5//4
f 4//5 9//5 14//5
f 15//6 16//6 18//6
f 10//7 15//7 11//7
f 4//8 1//8 5//8
f 10//9 8//9 15//9
f 7//10 12//10 16//10
f 17//11 12//11 18//11
f 9//12 5//12 13//12
f 4//13 3//13 1//13
f 10//14 3//14 8//14
f 1//15 3//15 10//15
f 1//16 10//16 2//16
f 6//17 5//17 2//17
f 13//18 17//18 12//18
f 16//19 7//19 3//19
f 3//20 15//20 8//20
f 3//21 15//21 16//21
f 6//22 11//22 5//22
f 9//23 14//23 13//23
f 18//24 16//24 12//24
f 15//25 18//25 11//25
f 11//26 6//26 2//26
f 10//27 11//27 2//27
f 17//28 13//28 11//28
f 12//29 7//29 13//29
f 11//30 17//30 18//30
f 3//31 4//31 7//31
f 7//32 4//32 14//32
f 2//33 1//33 3//33
f 8//34 2//34 3//34
f 10//35 2//35 8//35
f 15//36 7//36 3//36
f 17//37 12//37 11//37
f 12//38 18//38 11//38
f 16//39 7//39 15//39
f 13//40 9//40 7//40
f 9//41 14//41 7//41
