# Blender 4.0.0
# www.blender.org
o decimated_mesh
v -0.108355 0.005567 0.004773
v -0.125414 0.005563 0.010461
v -0.025494 0.005567 0.004773
v -0.125079 0.007444 0.013036
v -0.064228 0.019354 0.004731
v -0.025494 0.007649 0.004773
v -0.025494 0.005567 0.059349
v -0.114884 0.010455 0.015846
v -0.025494 0.008981 0.034679
v -0.045023 0.019004 0.010604
v -0.042057 0.005573 0.055303
v -0.042015 0.007306 0.054349
v -0.125160 0.005679 0.015545
v -0.125237 0.007530 0.015558
v -0.025480 0.007955 0.054943
v -0.053136 0.019256 0.019689
v -0.075782 0.009567 0.036995
v -0.114466 0.009766 0.018453
v -0.047219 0.019012 0.004781
v -0.073990 0.005567 0.041111
vn -0.2321 0.7996 -0.5539
vn -0.2170 0.9488 -0.2294
vn -0.2086 0.4757 0.8545
vn -0.9978 -0.0417 0.0507
vn -0.4468 -0.0248 0.8943
vn -0.3237 0.6043 0.7281
vn -0.2227 0.7107 -0.6673
vn 0.4936 0.8688 -0.0387
vn -1.0000 -0.0000 -0.0000
vn -0.2703 0.9615 -0.0497
vn 0.0201 0.9998 -0.0084
vn -0.0516 0.8781 0.4758
vn -0.2679 0.9199 0.2863
vn -0.1472 0.9823 0.1156
vn -0.1532 0.9341 0.3225
vn 0.0004 -0.0000 1.0000
vn -0.0000 -0.0031 -1.0000
vn -0.0031 -0.0055 1.0000
vn -0.0077 0.9997 -0.0225
vn -0.0000 1.0000 -0.0000
vn -0.0001 1.0000 -0.0001
vn 0.0003 1.0000 -0.0000
vn 0.0042 1.0000 -0.0039
vn 0.4109 0.9105 0.0458
vn -0.3835 0.4526 0.8051
vn -0.3454 0.5935 0.7270
vn -0.3203 0.6470 0.6920
vn 0.4566 0.8731 -0.1709
vn -1.0000 0.0083 0.0012
vn 0.0230 0.9997 -0.0072
vn -0.9616 0.2657 -0.0692
vn -0.0491 0.9393 0.3396
vn 0.2009 0.9677 0.1526
vn -0.1257 0.9539 0.2725
vn -0.1222 0.9256 0.3583
vn -0.0031 -0.0066 1.0000
vn -0.0011 -0.0000 1.0000
vn -0.0000 1.0000 0.0007
vn 0.0001 1.0000 -0.0004
vn 0.0140 0.9996 -0.0235
vn -0.1524 0.9491 0.2755
vn -0.1510 0.9335 0.3251
vn -1.0000 -0.0077 0.0003
vn -1.0000 -0.0000 0.0003
vn -1.0000 0.0062 -0.0000
vn -0.3398 0.5963 0.7273
vn -0.3194 0.6667 0.6735
vn 0.0010 1.0000 -0.0026
vn -0.3614 0.4565 0.8130
vn -0.3338 0.5993 0.7276
s 0
f 2//1 4//1 5//1
f 5//2 4//2 8//2
f 7//3 12//3 11//3
f 2//4 13//4 14//4
f 13//5 20//5 14//5
f 20//6 11//6 17//6
f 1//7 2//7 5//7
f 6//8 10//8 9//8
f 3//9 9//9 6//9
f 8//10 4//10 14//10
f 16//11 19//11 5//11
f 7//12 15//12 12//12
f 18//13 8//13 14//13
f 8//14 16//14 5//14
f 16//15 8//15 17//15
f 19//16 3//16 6//16
f 3//17 1//17 5//17
f 5//18 3//18 19//18
f 2//19 13//19 1//19
f 1//20 20//20 3//20
f 20//21 11//21 3//21
f 3//22 11//22 7//22
f 20//23 1//23 13//23
f 10//24 15//24 9//24
f 11//25 12//25 17//25
f 17//26 18//26 20//26
f 18//27 14//27 20//27
f 10//28 6//28 19//28
f 9//29 7//29 15//29
f 7//9 9//9 3//9
f 16//30 10//30 19//30
f 14//31 4//31 2//31
f 15//32 16//32 12//32
f 15//33 10//33 16//33
f 18//34 17//34 8//34
f 17//35 12//35 16//35
f 19//36 5//36 6//36
f 6//37 5//37 3//37
f 3//38 1//38 2//38
f 3//20 2//20 7//20
f 7//39 2//39 20//39
f 20//40 2//40 13//40
f 18//41 16//41 8//41
f 18//42 17//42 16//42
f 9//43 6//43 15//43
f 15//44 6//44 3//44
f 15//45 3//45 7//45
f 20//46 17//46 14//46
f 17//47 18//47 14//47
f 11//48 7//48 20//48
f 11//49 12//49 20//49
f 12//50 17//50 20//50
