# Blender 4.0.0
# www.blender.org
o decimated_mesh
v -0.088449 0.001974 -0.065511
v -0.088434 -0.000747 -0.065575
v -0.091059 0.001962 -0.062876
v -0.091295 0.002383 -0.061007
v -0.068165 0.002095 -0.063239
v -0.091165 -0.000788 -0.062717
v -0.089727 -0.001287 -0.061542
v -0.006444 0.005566 -0.043719
v -0.091815 0.000526 -0.060482
v -0.067301 -0.000883 -0.063051
v -0.071527 -0.001452 -0.061542
v -0.006444 0.005566 -0.024362
v -0.006515 0.001838 -0.046848
v -0.045844 0.001983 -0.058653
v -0.093614 0.002030 -0.036721
v -0.094012 0.002719 -0.024361
v -0.089792 0.004066 -0.035618
v -0.045877 -0.000743 -0.058897
v -0.089727 -0.001281 -0.024362
v -0.006444 -0.000936 -0.024362
v -0.033813 0.005566 -0.024362
v -0.006444 0.000481 -0.046890
v -0.093967 -0.000733 -0.024360
v -0.043147 -0.001470 -0.055591
v -0.007932 -0.000584 -0.047166
v -0.006441 -0.001114 -0.045435
vn -0.7228 -0.0121 -0.6909
vn 0.1112 0.0236 -0.9935
vn 0.0039 0.9961 -0.0879
vn -0.0470 0.9937 0.1013
vn -0.9568 0.0201 -0.2900
vn 0.0041 -0.9999 0.0122
vn 0.2268 0.6236 -0.7481
vn -0.7416 0.6681 -0.0611
vn 0.0480 -0.9716 -0.2317
vn -0.2494 0.9375 -0.2426
vn -0.1818 -0.9653 -0.1876
vn -0.9847 -0.1619 -0.0643
vn 1.0000 -0.0000 0.0002
vn 0.1032 0.8705 -0.4812
vn -0.0136 0.9978 -0.0653
vn -0.9603 0.2204 -0.1709
vn 0.2920 -0.1638 -0.9423
vn 0.2009 0.0848 -0.9759
vn 0.5265 -0.5723 -0.6287
vn -0.7105 0.0124 -0.7035
vn -0.9354 -0.3470 -0.0678
vn -0.0036 0.9864 -0.1641
vn -0.9654 0.2451 -0.0886
vn -0.3121 -0.9498 -0.0214
vn 0.1904 -0.0065 -0.9817
vn 0.1183 -0.0281 -0.9926
vn -0.3935 0.9185 -0.0376
vn -0.0091 -1.0000 0.0002
vn -0.0015 -1.0000 0.0039
vn 0.0074 -0.9999 0.0084
vn -0.1282 -0.9917 0.0002
vn 0.0277 -0.9586 -0.2836
vn 0.0565 -0.9643 -0.2587
vn 0.0874 -0.9554 -0.2822
vn 0.2897 0.0445 -0.9561
vn 0.2868 0.0818 -0.9545
vn -0.0005 -0.0004 -1.0000
vn -0.0000 -0.0000 -1.0000
vn -0.0000 0.0001 -1.0000
vn -0.0090 -0.9907 -0.1356
vn 0.1231 -0.9143 -0.3859
vn -0.9994 -0.0131 -0.0315
vn -0.9973 -0.0506 -0.0534
vn -0.9994 -0.0091 0.0334
vn 1.0000 0.0005 -0.0000
vn -0.0000 1.0000 -0.0000
vn -0.0291 0.9987 -0.0411
vn -0.0168 0.9948 -0.1009
vn 0.0210 0.9708 -0.2390
vn -0.0243 0.9976 -0.0647
vn -1.0000 -0.0008 0.0012
vn -0.9946 -0.0548 0.0877
vn -0.0209 0.9993 -0.0295
vn -0.0000 0.0036 -1.0000
vn -0.0000 -0.0003 -1.0000
vn -0.0000 -0.0004 -1.0000
s 0
f 3//1 2//1 6//1
f 2//2 1//2 5//2
f 1//3 4//3 5//3
f 17//4 16//4 21//4
f 6//5 9//5 3//5
f 24//6 20//6 19//6
f 8//7 13//7 14//7
f 4//8 15//8 16//8
f 10//9 24//9 11//9
f 3//10 4//10 1//10
f 7//11 6//11 2//11
f 23//12 15//12 9//12
f 12//13 20//13 26//13
f 14//14 5//14 8//14
f 4//15 17//15 21//15
f 9//16 4//16 3//16
f 22//17 25//17 18//17
f 14//18 18//18 5//18
f 22//19 26//19 25//19
f 3//20 1//20 2//20
f 6//21 23//21 9//21
f 4//22 8//22 5//22
f 9//23 15//23 4//23
f 7//24 23//24 6//24
f 5//25 18//25 10//25
f 10//26 2//26 5//26
f 4//27 16//27 17//27
f 7//28 11//28 19//28
f 11//29 24//29 19//29
f 24//30 26//30 20//30
f 19//31 23//31 7//31
f 2//32 10//32 11//32
f 10//33 18//33 24//33
f 18//34 26//34 24//34
f 22//35 18//35 13//35
f 13//36 18//36 14//36
f 23//37 16//37 19//37
f 19//38 21//38 20//38
f 20//38 21//38 12//38
f 21//39 19//39 16//39
f 11//40 7//40 2//40
f 25//41 26//41 18//41
f 23//42 16//42 15//42
f 13//43 22//43 26//43
f 13//44 26//44 8//44
f 8//45 12//45 26//45
f 12//46 8//46 21//46
f 8//47 4//47 21//47
f 4//48 8//48 1//48
f 8//49 5//49 1//49
f 17//50 8//50 4//50
f 26//51 8//51 22//51
f 22//52 8//52 13//52
f 17//53 21//53 8//53
f 20//54 19//54 23//54
f 20//38 23//38 12//38
f 12//55 23//55 21//55
f 21//56 23//56 16//56
