# Blender 4.0.0
# www.blender.org
o decimated_mesh
v 0.018047 0.211866 -0.023588
v 0.018041 0.211791 -0.015798
v 0.018041 0.227884 -0.019898
v 0.024140 0.211791 0.000008
v 0.018041 0.227884 -0.023939
v 0.020855 0.213703 -0.022033
v 0.022056 0.211778 -0.019873
v 0.026762 0.227884 0.000008
v 0.030220 0.211846 -0.000027
v 0.020855 0.227884 -0.022033
v 0.030340 0.227884 -0.000064
v 0.027444 0.211853 -0.012493
v 0.027506 0.227884 -0.012624
vn -0.0000 1.0000 -0.0000
vn 0.9755 -0.0056 -0.2201
vn 0.5608 -0.0000 -0.8280
vn 0.6250 -0.3771 -0.6835
vn 0.7987 -0.1543 -0.5816
vn 0.9224 -0.1503 -0.3559
vn 0.8221 -0.0079 -0.5693
vn 1.0000 0.0002 0.0007
vn -0.0042 1.0000 -0.0071
vn -0.0090 1.0000 0.0026
vn -0.0077 1.0000 0.0030
vn -0.0129 -0.9999 -0.0097
vn -0.0001 1.0000 -0.0000
vn 0.9761 -0.0078 -0.2173
vn 0.0201 0.0021 0.9998
vn 0.0058 -0.0009 1.0000
vn 0.4936 -0.0189 -0.8695
vn 0.9112 -0.1017 -0.3992
vn 0.8166 -0.0000 -0.5772
vn 1.0000 0.0004 -0.0000
vn -0.0212 0.9998 0.0053
vn -0.0090 1.0000 0.0003
vn 0.0022 1.0000 -0.0009
vn 1.0000 0.0004 0.0007
vn -0.9059 0.1476 0.3969
vn -0.9291 0.0913 0.3585
vn 1.0000 -0.0000 -0.0000
s 0
f 3//1 8//1 13//1
f 11//2 12//2 13//2
f 6//3 5//3 10//3
f 1//4 6//4 7//4
f 6//5 12//5 7//5
f 8//6 4//6 2//6
f 6//7 13//7 12//7
f 2//8 1//8 3//8
f 7//9 2//9 12//9
f 12//10 4//10 9//10
f 4//11 12//11 2//11
f 1//12 7//12 2//12
f 11//13 13//13 8//13
f 13//1 10//1 3//1
f 10//1 5//1 3//1
f 11//14 9//14 12//14
f 9//15 11//15 8//15
f 8//16 4//16 9//16
f 6//17 1//17 5//17
f 8//18 2//18 3//18
f 6//19 10//19 13//19
f 5//20 3//20 1//20
f 12//21 7//21 9//21
f 9//22 7//22 4//22
f 4//23 7//23 2//23
f 2//24 1//24 5//24
f 8//25 3//25 4//25
f 3//26 2//26 4//26
f 3//27 2//27 5//27
f 3//13 8//13 11//13
f 3//1 11//1 13//1
