# Blender 4.0.0
# www.blender.org
o decimated_mesh
v 0.000092 0.280604 0.014698
v 0.006168 0.270732 0.011068
v 0.000052 0.280662 0.009658
v 0.000113 0.260670 0.009237
v 0.009425 0.280668 0.011825
v 0.005639 0.260671 0.007409
v 0.009400 0.270492 0.008288
v 0.010113 0.280658 0.000287
v 0.000054 0.260691 0.005335
v 0.012242 0.271807 0.004720
v 0.005464 0.260690 0.000285
v 0.008914 0.260673 0.002496
v 0.013003 0.280662 0.000287
v 0.012878 0.272275 0.000286
v 0.012531 0.280662 0.004861
v 0.009139 0.260680 0.000289
vn 0.9898 -0.0345 0.1383
vn 0.1455 -0.2612 0.9542
vn 0.9471 -0.3038 0.1037
vn 0.9127 -0.0362 0.4071
vn -0.0005 1.0000 -0.0009
vn -1.0000 -0.0018 0.0079
vn 0.2953 -0.3402 0.8928
vn -0.6739 0.1569 -0.7220
vn 0.6094 -0.2991 0.7343
vn 0.7928 -0.3383 0.5069
vn 0.9946 -0.0148 0.1026
vn 0.9474 -0.3055 0.0955
vn 0.2911 -0.1671 0.9420
vn -0.0033 0.9999 0.0115
vn -0.0000 1.0000 -0.0009
vn -0.0013 1.0000 -0.0002
vn 0.0015 1.0000 0.0054
vn 0.0025 1.0000 0.0026
vn 0.0028 1.0000 0.0035
vn 0.0034 1.0000 0.0026
vn -0.0000 -0.0000 -1.0000
vn 0.0009 -0.0005 -1.0000
vn 0.0001 0.0001 -1.0000
vn -0.9999 -0.0052 0.0151
vn -0.6732 0.1564 -0.7228
vn 0.6187 -0.2592 0.7416
vn 0.8009 -0.1983 0.5650
vn 0.7809 -0.3456 0.5203
vn 0.0024 1.0000 0.0002
vn -0.0005 1.0000 -0.0007
vn -0.0013 1.0000 -0.0018
vn -0.6731 0.1568 -0.7227
vn -0.6740 0.1562 -0.7221
vn 0.0051 1.0000 0.0053
vn 0.0028 1.0000 0.0039
vn 0.0023 1.0000 0.0035
vn -0.0002 1.0000 0.0001
s 0
f 14//1 15//1 10//1
f 1//2 4//2 2//2
f 12//3 14//3 10//3
f 15//4 5//4 10//4
f 8//5 3//5 5//5
f 9//6 1//6 3//6
f 6//7 2//7 4//7
f 9//8 8//8 11//8
f 7//9 2//9 6//9
f 7//10 12//10 10//10
f 14//11 13//11 15//11
f 12//12 16//12 14//12
f 5//13 1//13 2//13
f 1//14 5//14 3//14
f 5//15 15//15 8//15
f 15//16 13//16 8//16
f 6//17 9//17 4//17
f 9//18 6//18 11//18
f 11//19 12//19 16//19
f 12//20 11//20 6//20
f 8//21 13//21 14//21
f 14//22 16//22 11//22
f 11//23 8//23 14//23
f 4//24 1//24 9//24
f 9//25 3//25 8//25
f 7//26 5//26 2//26
f 7//27 10//27 5//27
f 7//28 6//28 12//28
f 15//29 13//29 5//29
f 13//30 3//30 5//30
f 13//31 8//31 3//31
f 8//32 11//32 3//32
f 11//33 9//33 3//33
f 11//34 9//34 4//34
f 11//35 4//35 16//35
f 16//36 4//36 12//36
f 12//37 4//37 6//37
