# Blender 4.0.0
# www.blender.org
o decimated_mesh
v -0.000038 0.227925 0.030215
v 0.000002 0.227925 0.027037
v 0.000002 0.212288 0.024221
v -0.020564 0.227925 0.017035
v -0.000005 0.212346 0.029924
v -0.018162 0.212289 0.017038
v -0.024596 0.227925 0.017035
v -0.001496 0.213704 0.030144
v -0.024392 0.212292 0.017050
v -0.009233 0.212300 0.028671
v -0.021271 0.213970 0.021638
v -0.011371 0.227927 0.028103
v -0.021007 0.227926 0.021794
v -0.020949 0.212292 0.021420
v -0.014250 0.212307 0.026399
vn -0.1887 0.0099 0.9820
vn 1.0000 -0.0003 0.0014
vn 0.4317 0.1598 -0.8877
vn 0.3672 0.0562 -0.9284
vn -0.0004 -1.0000 0.0002
vn 0.0020 0.0005 1.0000
vn -0.1272 -0.2930 0.9476
vn 0.1297 -0.0182 0.9914
vn -0.7655 -0.2248 0.6029
vn -0.5825 -0.2133 0.7844
vn -0.1831 0.0139 0.9830
vn 0.9999 0.0018 0.0126
vn 0.0010 1.0000 -0.0023
vn 0.0014 1.0000 0.0002
vn 0.0036 -0.9999 0.0101
vn -0.0013 1.0000 -0.0013
vn -0.0000 0.0009 1.0000
vn 0.0002 1.0000 -0.0000
vn 0.0001 1.0000 -0.0003
vn -0.0000 1.0000 -0.0000
vn -0.0001 1.0000 -0.0001
vn -0.4125 -0.0233 0.9107
vn -0.5592 0.0126 0.8289
vn -0.5478 0.0010 0.8366
vn -0.7983 0.0084 0.6022
vn -0.8251 -0.0103 0.5650
vn -0.0000 1.0000 -0.0002
vn -0.0003 1.0000 0.0002
vn -0.5478 0.0097 0.8365
vn 0.0074 0.9999 -0.0131
vn 0.0004 1.0000 -0.0018
vn -0.0000 0.0002 1.0000
vn 0.0020 0.0010 1.0000
vn -0.5611 0.0014 0.8278
vn 0.0002 1.0000 -0.0004
s 0
f 8//1 12//1 10//1
f 2//2 5//2 3//2
f 2//3 3//3 4//3
f 3//4 6//4 4//4
f 14//5 9//5 6//5
f 9//6 6//6 4//6
f 8//7 10//7 5//7
f 1//8 8//8 5//8
f 14//9 11//9 9//9
f 15//10 11//10 14//10
f 1//11 12//11 8//11
f 1//12 5//12 2//12
f 6//13 15//13 3//13
f 15//14 10//14 3//14
f 5//15 10//15 3//15
f 15//16 6//16 14//16
f 9//17 4//17 7//17
f 12//18 1//18 2//18
f 2//19 4//19 12//19
f 4//20 7//20 13//20
f 13//21 12//21 4//21
f 15//22 10//22 12//22
f 15//23 12//23 11//23
f 12//24 13//24 11//24
f 13//25 7//25 11//25
f 7//26 9//26 11//26
f 4//27 7//27 12//27
f 7//28 13//28 12//28
f 13//29 15//29 12//29
f 15//30 10//30 14//30
f 14//31 10//31 3//31
f 6//32 4//32 7//32
f 6//33 7//33 9//33
f 11//34 15//34 13//34
f 14//35 3//35 6//35
