# Blender 4.0.0
# www.blender.org
o decimated_mesh
v 0.018041 0.227884 -0.019899
v 0.018041 0.211791 -0.015800
v -0.000005 0.227884 -0.026819
v -0.000005 0.211791 -0.024051
v 0.018013 0.211827 -0.023785
v 0.000072 0.227881 -0.030138
v 0.000022 0.211921 -0.029866
v 0.011117 0.211880 -0.028082
v 0.017275 0.227889 -0.025273
vn 1.0000 -0.0009 -0.0035
vn -0.9997 0.0027 -0.0231
vn -0.3483 0.2314 0.9084
vn -0.4108 0.1546 0.8985
vn -0.0000 -0.9998 -0.0223
vn 0.1587 -0.0173 -0.9872
vn 0.9895 0.0324 -0.1410
vn -1.0000 -0.0008 -0.0046
vn -0.0002 1.0000 -0.0010
vn -0.0004 1.0000 0.0010
vn 0.0023 -0.9999 -0.0160
vn 0.0021 -1.0000 -0.0046
vn 0.5278 -0.0543 -0.8476
vn 0.2715 0.0641 -0.9603
s 0
f 5//1 1//1 2//1
f 3//2 6//2 7//2
f 1//3 3//3 2//3
f 2//4 3//4 4//4
f 7//5 8//5 4//5
f 6//6 8//6 7//6
f 5//7 9//7 1//7
f 4//8 3//8 7//8
f 9//9 6//9 3//9
f 3//10 1//10 9//10
f 8//11 5//11 4//11
f 2//12 4//12 5//12
f 5//13 8//13 9//13
f 6//14 9//14 8//14
