# Blender 4.0.0
# www.blender.org
o decimated_mesh
v 0.000005 0.211215 0.021592
v 0.016486 0.211215 0.015217
v 0.000057 0.211272 0.029827
v 0.000005 0.227927 0.027037
v 0.016366 0.211566 0.024934
v 0.016486 0.227927 0.021090
v 0.000043 0.227927 0.030214
v 0.016486 0.227927 0.024977
v 0.009654 0.211341 0.028275
v 0.010868 0.227928 0.028253
vn 0.9999 -0.0044 0.0125
vn -0.3245 0.2930 -0.8994
vn 0.1596 -0.0103 0.9871
vn 0.0002 1.0000 -0.0000
vn -0.0001 1.0000 -0.0002
vn -0.0001 1.0000 -0.0000
vn 0.5036 -0.0060 0.8639
vn 1.0000 -0.0073 -0.0000
vn -0.9999 -0.0011 0.0120
vn -1.0000 -0.0021 0.0063
vn -0.3428 0.3114 -0.8863
vn 0.1782 -0.0227 0.9837
vn 0.4463 -0.0314 0.8943
vn -0.0083 0.9999 -0.0068
vn -0.0047 0.9999 -0.0121
vn 0.0517 -0.9980 0.0366
vn -0.0026 1.0000 -0.0068
vn -0.3452 0.2907 -0.8924
vn -0.3223 0.3138 -0.8931
vn 1.0000 -0.0000 -0.0000
vn 0.9999 -0.0074 0.0126
vn -0.0096 0.9998 -0.0146
vn 0.1597 -0.0228 0.9869
vn 0.1783 -0.0117 0.9839
s 0
f 6//1 5//1 2//1
f 6//2 1//2 4//2
f 10//3 3//3 9//3
f 10//4 8//4 6//4
f 6//5 4//5 10//5
f 7//6 10//6 4//6
f 8//7 10//7 5//7
f 8//8 5//8 6//8
f 3//9 7//9 4//9
f 4//10 1//10 3//10
f 6//11 2//11 1//11
f 10//12 7//12 3//12
f 10//13 9//13 5//13
f 9//14 1//14 3//14
f 1//15 9//15 2//15
f 9//16 2//16 5//16
f 2//17 1//17 3//17
f 4//18 2//18 1//18
f 4//19 6//19 2//19
f 6//20 8//20 2//20
f 8//21 5//21 2//21
f 9//22 2//22 3//22
f 9//23 7//23 3//23
f 10//24 7//24 9//24
