# Blender 4.0.0
# www.blender.org
o decimated_mesh
v -0.002003 0.290113 -0.009103
v -0.001699 0.280663 -0.012302
v -0.002003 0.290113 -0.013347
v -0.010248 0.290113 0.006702
v -0.006596 0.280717 0.006728
v -0.013237 0.290113 0.006702
v -0.012048 0.280713 0.006657
v -0.008035 0.280663 -0.010471
v -0.009075 0.290112 -0.010563
v -0.013237 0.285435 0.006702
v -0.012914 0.280639 -0.003208
v -0.012651 0.290113 -0.004494
vn 0.2757 0.1144 0.9544
vn 0.8607 0.0450 0.5071
vn 0.0012 1.0000 0.0041
vn -0.0000 1.0000 -0.0000
vn 0.9659 0.2442 -0.0866
vn 0.8261 0.0964 0.5552
vn -0.8379 -0.3269 -0.4371
vn -0.9986 -0.0000 -0.0523
vn 0.3658 0.0493 0.9294
vn -0.0056 1.0000 -0.0043
vn -0.0006 1.0000 -0.0074
vn -0.9995 -0.0322 -0.0000
vn -0.0026 0.0017 1.0000
vn -0.0000 -0.0000 1.0000
vn 0.0129 0.0129 -0.9998
vn -0.0001 1.0000 -0.0000
vn -0.0001 1.0000 -0.0002
vn -0.9670 0.0531 -0.2490
vn -0.9988 0.0218 -0.0432
vn -0.0002 1.0000 -0.0002
vn -0.0000 0.0027 1.0000
vn -0.0038 -0.0000 1.0000
vn -0.9995 -0.0000 -0.0326
vn -0.9984 0.0206 -0.0523
s 0
f 8//1 2//1 3//1
f 11//2 9//2 12//2
f 11//3 2//3 8//3
f 4//4 1//4 12//4
f 7//5 11//5 10//5
f 8//6 9//6 11//6
f 5//7 4//7 1//7
f 10//8 6//8 12//8
f 8//9 3//9 9//9
f 2//10 11//10 5//10
f 7//11 5//11 11//11
f 2//12 1//12 3//12
f 5//13 4//13 10//13
f 4//14 6//14 10//14
f 10//15 5//15 7//15
f 1//16 3//16 9//16
f 9//17 12//17 1//17
f 12//4 6//4 4//4
f 2//18 5//18 1//18
f 11//19 10//19 12//19
f 9//20 12//20 3//20
f 12//4 6//4 3//4
f 6//4 4//4 1//4
f 6//4 1//4 3//4
f 4//21 6//21 5//21
f 6//22 10//22 5//22
f 10//23 6//23 11//23
f 6//24 12//24 11//24
