# Blender 4.0.0
# www.blender.org
o decimated_mesh
v -0.039695 0.174654 0.161856
v -0.039695 0.174654 0.196551
v -0.039334 0.168277 0.197641
v -0.039277 0.173531 0.200477
v -0.039283 0.180804 0.197799
v -0.037025 0.168013 0.205205
v -0.039293 0.168048 0.161856
v -0.036800 0.180795 0.205676
v -0.036094 0.186464 0.195355
v -0.036325 0.162284 0.195052
v -0.037387 0.165272 0.199005
v -0.035113 0.167084 0.207036
v -0.036442 0.170931 0.207187
v -0.036926 0.174351 0.207065
v -0.039291 0.180813 0.161856
v -0.034224 0.185958 0.202749
v -0.033077 0.161055 0.202328
v -0.030458 0.165958 0.210634
v -0.035990 0.186615 0.161856
v -0.030073 0.181091 0.212408
v -0.033140 0.187428 0.200816
v -0.033146 0.188128 0.195693
v -0.036359 0.162168 0.161856
v -0.034720 0.160883 0.197311
v -0.030015 0.168285 0.212632
v -0.031366 0.174105 0.212847
v -0.028933 0.185556 0.208901
v -0.029234 0.187662 0.205438
v -0.030689 0.188119 0.201459
v -0.033144 0.188149 0.161856
v -0.032832 0.160367 0.198688
v -0.026779 0.160942 0.208557
v -0.028233 0.166394 0.212279
v -0.021483 0.168225 0.215074
v -0.026868 0.172072 0.214599
v -0.028039 0.175199 0.214357
v -0.021326 0.180722 0.215020
v -0.026381 0.186651 0.209512
v 0.033143 0.188149 0.161856
v -0.025777 0.188127 0.206372
v -0.034533 0.160423 0.161856
v -0.023142 0.160308 0.207573
v -0.020866 0.172203 0.215885
v 0.033144 0.188122 0.195761
v 0.036092 0.186489 0.161856
v -0.019765 0.188111 0.208794
v -0.019972 0.160847 0.210587
v -0.019346 0.162740 0.212157
v -0.021625 0.175045 0.215989
v -0.019055 0.186512 0.211611
v 0.030687 0.188119 0.201459
v 0.035557 0.186761 0.196431
v 0.028800 0.187898 0.205363
v 0.033147 0.187417 0.200852
v 0.036764 0.185597 0.194092
v 0.020099 0.188108 0.208779
v 0.021545 0.168201 0.215047
v 0.021584 0.174335 0.216063
v 0.021254 0.180747 0.215022
v 0.026418 0.186674 0.209439
v 0.034264 0.185870 0.202802
v 0.039282 0.180804 0.197799
v 0.018972 0.186655 0.211463
v 0.034582 0.160466 0.161855
v 0.018409 0.160325 0.208826
v 0.025776 0.160331 0.206372
v 0.020251 0.160885 0.210556
v 0.019239 0.162530 0.212029
v 0.029073 0.185519 0.208809
v 0.036955 0.180893 0.205284
v 0.039290 0.180813 0.161856
v 0.026764 0.160948 0.208581
v 0.029511 0.167823 0.212726
v 0.028020 0.171700 0.214142
v 0.028065 0.175244 0.214341
v 0.029908 0.180861 0.212571
v 0.034658 0.180880 0.208092
v 0.036835 0.174904 0.207172
v 0.039276 0.173502 0.200467
v 0.039694 0.174654 0.196551
v 0.032368 0.160322 0.198852
v 0.030484 0.165978 0.210624
v 0.031117 0.171579 0.212713
v 0.039694 0.174654 0.161856
v 0.036358 0.162169 0.161856
v 0.033083 0.161000 0.202225
v 0.034728 0.167997 0.207960
v 0.031296 0.174700 0.212798
v 0.036810 0.171411 0.206804
v 0.039332 0.168282 0.197635
v 0.034714 0.160893 0.197364
v 0.036317 0.162247 0.194918
v 0.034819 0.165824 0.206056
v 0.036964 0.167955 0.205244
v 0.037386 0.165272 0.199005
v 0.039291 0.168049 0.161856
vn -0.0000 -0.0000 1.0000
vn 0.3148 0.9268 0.2047
vn -0.8692 0.4945 -0.0005
vn 0.2403 -0.5698 0.7859
vn -0.9415 0.0885 0.3251
vn 0.7981 0.5519 0.2416
vn 0.6789 -0.4677 0.5660
vn -0.8942 0.4477 -0.0019
vn -0.6127 -0.4446 0.6534
vn 0.9921 0.0424 0.1184
vn -0.5784 0.6012 0.5514
vn -0.6844 -0.2632 0.6799
vn -0.7959 -0.5663 0.2142
vn -0.0051 -0.9834 0.1814
vn 0.4699 0.8027 0.3673
vn 0.4618 0.8786 0.1214
vn 0.6921 -0.7218 0.0026
vn 0.6177 -0.4268 0.6605
vn -0.6946 -0.5736 0.4342
vn -0.4983 0.8589 0.1180
vn 0.9981 -0.0608 -0.0000
vn -0.6908 -0.7231 0.0032
vn 0.7976 -0.5654 0.2099
vn 0.9979 0.0655 -0.0000
vn -0.2153 0.5598 0.8002
vn -0.3002 0.9451 0.1295
vn -0.3608 -0.9206 0.1497
vn -0.0023 -0.0371 0.9993
vn 0.4061 -0.5854 0.7017
vn 0.7019 0.1486 0.6966
vn 0.6531 -0.2768 0.7049
vn -0.4250 0.6239 0.6559
vn -0.0940 -0.9581 0.2704
vn 0.0777 -0.9698 0.2310
vn -0.9984 -0.0567 -0.0008
vn -0.5040 0.7178 0.4804
vn 0.1682 0.9128 0.3722
vn 0.8934 0.4493 -0.0019
vn 0.7607 0.1813 0.6233
vn 0.1380 0.8457 0.5156
vn 0.4166 -0.0561 0.9074
vn 0.6266 0.7443 0.2312
vn -0.9978 0.0668 0.0002
vn -0.2470 -0.0174 0.9689
vn -0.0004 0.5074 0.8617
vn 0.2187 0.5613 0.7982
vn 0.3016 0.9445 0.1306
vn 0.0001 1.0000 0.0009
vn 0.0005 -0.1999 0.9798
vn 0.7466 -0.2458 0.6182
vn 0.0011 0.1683 0.9857
vn 0.8610 -0.4434 0.2490
vn -0.6334 0.7444 0.2112
vn 0.8221 0.5488 0.1512
vn -0.8606 -0.4453 0.2472
vn 0.7124 -0.0598 0.6993
vn -0.2419 -0.5711 0.7845
vn 0.2639 -0.0573 0.9629
vn -0.7005 0.1731 0.6923
vn -0.7314 -0.2772 0.6231
vn -0.4292 -0.5401 0.7239
vn -0.3179 0.9218 0.2220
vn -0.2674 -0.2597 0.9279
vn 0.2609 -0.2411 0.9348
vn 0.4248 0.6136 0.6656
vn 0.8712 0.4908 -0.0046
vn 0.5525 -0.6302 0.5455
vn -0.1859 -0.9677 0.1704
vn -0.5575 -0.6196 0.5525
vn 0.2430 -0.9700 0.0108
vn -0.2233 0.8980 0.3791
vn 0.0012 -0.6666 0.7454
vn 0.5579 0.5796 0.5940
vn 0.9358 -0.0436 0.3498
vn -0.1689 0.9726 -0.1598
vn -0.8589 -0.4923 0.1413
vn -0.4098 -0.1284 0.9031
vn -0.3913 -0.0755 0.9171
vn -0.9921 0.0425 0.1178
vn 0.9498 0.1066 0.2941
vn -0.1312 0.8477 0.5141
vn 0.0001 -0.0000 -1.0000
vn 0.0004 -0.0002 -1.0000
vn 0.0002 0.0001 1.0000
vn 0.4906 0.8714 0.0007
vn 0.4911 0.8711 0.0007
vn 0.2212 -0.1607 0.9619
vn 0.8593 -0.4921 0.1395
vn 0.7184 -0.5724 0.3952
vn -0.8711 0.4910 0.0003
vn 0.2457 -0.5583 0.7924
vn -0.9480 0.1093 0.2990
vn 0.0003 -0.4698 0.8828
vn 0.0004 -0.4694 0.8830
vn 0.7976 0.5537 0.2392
vn -0.8949 0.4463 -0.0022
vn 0.9947 -0.0404 0.0943
vn -0.5958 0.5847 0.5506
vn 0.6992 0.7149 0.0052
vn 0.2149 -0.5254 0.8232
vn -0.7720 -0.5743 0.2725
vn -0.7745 -0.5606 0.2931
vn 0.0003 0.8794 0.4760
vn -0.0013 0.8696 0.4938
vn 0.0011 -0.9518 0.3067
vn 0.6511 -0.7590 0.0067
vn 0.6183 -0.5032 0.6037
vn 0.9984 -0.0568 -0.0008
vn -0.6626 -0.7490 0.0062
vn 0.7751 -0.5597 0.2932
vn 0.7728 -0.5735 0.2719
vn 0.9978 0.0668 0.0002
vn -0.2189 0.5573 0.8009
vn -0.7203 -0.0773 0.6893
vn 0.4453 0.1329 0.8855
vn 0.6747 0.1783 0.7162
vn 0.7032 -0.1974 0.6831
vn 0.4430 0.7539 0.4851
vn 0.4916 0.7345 0.4678
vn 0.0805 -0.9688 0.2346
vn -0.9982 -0.0608 -0.0000
vn -0.6784 -0.1837 0.7114
vn -0.4402 0.7496 0.4942
vn -0.9348 -0.0865 0.3445
vn -0.9479 -0.1433 0.2844
vn 0.8948 0.4465 -0.0025
vn 0.4238 -0.0488 0.9045
vn -0.4746 0.8802 0.0005
vn -0.4918 0.8707 0.0024
vn -0.9979 0.0655 -0.0000
vn -0.2543 -0.4041 0.8787
vn -0.2025 -0.5201 0.8297
vn 0.0014 0.5164 0.8563
vn 0.2153 0.5636 0.7975
vn -0.1779 0.9681 0.1762
vn 0.0569 0.9949 0.0838
vn -0.0008 1.0000 0.0003
vn -0.0003 1.0000 0.0008
vn -0.0000 1.0000 0.0008
vn 0.0006 1.0000 0.0006
vn -0.0058 1.0000 0.0041
vn 0.0036 1.0000 -0.0024
vn 0.0041 -0.1634 0.9865
vn -0.2711 -0.9625 0.0111
vn -0.0002 0.1602 0.9871
vn 0.4073 -0.1710 0.8971
vn 0.7168 -0.0783 0.6928
vn -0.2320 -0.5899 0.7735
vn -0.7079 0.1620 0.6875
vn 0.9380 -0.1071 0.3297
vn 0.9463 -0.1462 0.2883
vn -0.8007 0.5430 0.2531
vn -0.7979 0.5531 0.2397
vn -0.4038 -0.5868 0.7019
vn -0.2388 0.1757 0.9551
vn -0.2709 0.2167 0.9379
vn -0.4674 0.8100 0.3541
vn 0.8852 0.4652 0.0003
vn 0.5527 -0.6311 0.5442
vn -0.1336 -0.9812 0.1391
vn -0.5634 -0.6331 0.5308
vn 0.3084 -0.9431 0.1243
vn -0.1568 0.9051 0.3953
vn -0.4465 0.1382 0.8840
vn -0.0009 -0.6384 0.7697
vn -0.2023 0.9629 -0.1785
vn -0.9947 -0.0402 0.0944
vn -0.2032 -0.1653 0.9651
vn 0.2638 0.2101 0.9414
vn 0.2311 0.1675 0.9584
vn 0.9419 0.0838 0.3253
vn -0.8969 -0.1116 0.4279
vn -0.2068 -0.0908 0.9742
vn -0.0050 -1.0000 -0.0013
vn -0.0006 1.0000 0.0028
vn 0.0031 1.0000 0.0041
vn 0.0016 -1.0000 0.0025
vn -0.0005 1.0000 0.0027
vn 0.6225 0.5918 0.5121
vn 0.5791 0.6141 0.5363
vn -0.0006 1.0000 0.0038
vn -0.0000 -0.0001 1.0000
vn -0.0000 1.0000 0.0005
vn 0.0002 1.0000 0.0008
vn 0.9984 -0.0567 -0.0000
vn 0.9981 -0.0608 -0.0007
vn -0.8949 0.4464 -0.0019
vn -0.8942 0.4478 -0.0022
vn -0.1784 0.9713 -0.1575
vn -0.0004 1.0000 -0.0008
vn 0.0001 1.0000 0.0025
vn 0.8933 0.4495 -0.0025
vn 0.8948 0.4465 -0.0018
vn -0.9982 -0.0608 -0.0008
vn -0.9984 -0.0566 -0.0000
vn -0.0008 1.0000 0.0006
vn 0.0002 1.0000 0.0007
vn 0.0001 1.0000 0.0064
vn 0.0003 1.0000 0.0019
vn -0.1924 0.9641 -0.1832
vn -0.2182 0.5609 0.7986
vn 0.2435 -0.5703 0.7845
vn 0.2366 -0.5633 0.7917
vn -0.2264 -0.5766 0.7850
vn -0.2382 -0.5901 0.7714
vn -0.5514 -0.6306 0.5461
vn -0.5694 -0.6167 0.5436
vn -0.5849 0.5882 0.5585
vn -0.5863 0.6007 0.5435
vn -0.2159 0.5568 0.8021
vn 0.0004 -0.4698 0.8828
vn 0.0003 -0.4694 0.8830
vn -0.0002 0.1684 0.9857
vn 0.0009 0.1603 0.9871
s 0
f 1//1 41//1 30//1
f 54//2 51//2 53//2
f 15//3 9//3 19//3
f 72//4 73//4 68//4
f 4//5 14//5 8//5
f 61//6 70//6 62//6
f 87//7 93//7 94//7
f 96//8 92//8 90//8
f 12//9 18//9 25//9
f 80//10 62//10 79//10
f 20//11 16//11 8//11
f 12//12 25//12 13//12
f 11//13 10//13 24//13
f 65//14 47//14 42//14
f 61//15 54//15 53//15
f 52//16 44//16 54//16
f 92//17 64//17 85//17
f 82//18 87//18 73//18
f 12//19 6//19 17//19
f 22//20 9//20 21//20
f 80//21 96//21 84//21
f 41//22 10//22 23//22
f 91//23 92//23 95//23
f 71//24 80//24 84//24
f 38//25 20//25 37//25
f 21//26 29//26 22//26
f 24//27 31//27 17//27
f 43//28 58//28 49//28
f 82//29 73//29 72//29
f 78//30 77//30 88//30
f 87//31 83//31 73//31
f 20//32 38//32 27//32
f 47//33 32//33 42//33
f 65//34 66//34 67//34
f 2//35 7//35 3//35
f 28//36 16//36 27//36
f 60//37 53//37 56//37
f 7//38 3//38 10//38
f 70//39 77//39 78//39
f 56//40 63//40 60//40
f 83//41 75//41 74//41
f 61//42 52//42 54//42
f 15//43 2//43 5//43
f 36//44 35//44 49//44
f 59//45 50//45 37//45
f 59//46 76//46 60//46
f 51//47 54//47 44//47
f 46//48 56//48 39//48
f 57//49 43//49 34//49
f 89//50 87//50 94//50
f 49//51 58//51 37//51
f 90//52 94//52 95//52
f 21//53 9//53 16//53
f 55//54 52//54 62//54
f 6//55 3//55 11//55
f 83//56 78//56 88//56
f 32//57 47//57 48//57
f 75//58 58//58 74//58
f 20//59 8//59 26//59
f 12//60 13//60 6//60
f 18//61 33//61 25//61
f 29//62 21//62 28//62
f 34//63 35//63 25//63
f 73//64 74//64 57//64
f 60//65 76//65 69//65
f 55//66 71//66 45//66
f 93//67 82//67 72//67
f 17//68 31//68 32//68
f 32//69 12//69 17//69
f 91//70 81//70 64//70
f 38//71 40//71 28//71
f 68//72 47//72 67//72
f 76//73 77//73 69//73
f 79//74 78//74 89//74
f 81//75 72//75 86//75
f 11//76 3//76 10//76
f 35//77 26//77 25//77
f 36//78 26//78 35//78
f 4//79 5//79 2//79
f 70//80 79//80 62//80
f 50//81 46//81 38//81
f 71//1 39//1 84//1
f 84//82 96//82 64//82
f 96//83 85//83 64//83
f 64//1 39//1 41//1
f 23//84 41//84 7//84
f 1//1 30//1 15//1
f 15//1 30//1 19//1
f 30//1 41//1 39//1
f 45//1 39//1 71//1
f 39//1 64//1 84//1
f 7//1 41//1 1//1
f 52//85 45//85 39//85
f 39//86 44//86 52//86
f 57//87 74//87 58//87
f 95//88 92//88 90//88
f 93//89 86//89 94//89
f 15//90 5//90 9//90
f 68//91 67//91 72//91
f 5//92 4//92 8//92
f 57//93 34//93 68//93
f 68//94 34//94 48//94
f 52//95 61//95 62//95
f 85//96 92//96 96//96
f 79//97 90//97 80//97
f 27//98 16//98 20//98
f 45//99 52//99 55//99
f 68//100 73//100 57//100
f 24//101 17//101 11//101
f 17//102 6//102 11//102
f 56//103 46//103 63//103
f 63//104 46//104 50//104
f 65//105 67//105 47//105
f 92//106 91//106 64//106
f 82//107 93//107 87//107
f 80//108 90//108 96//108
f 41//109 24//109 10//109
f 94//110 86//110 95//110
f 86//111 91//111 95//111
f 71//112 62//112 80//112
f 50//113 38//113 37//113
f 14//114 13//114 26//114
f 88//115 76//115 75//115
f 77//116 76//116 88//116
f 87//117 89//117 83//117
f 60//118 69//118 53//118
f 69//119 61//119 53//119
f 72//120 67//120 66//120
f 2//121 1//121 7//121
f 25//122 26//122 13//122
f 38//123 28//123 27//123
f 6//124 14//124 4//124
f 4//125 3//125 6//125
f 7//126 10//126 23//126
f 83//127 88//127 75//127
f 22//128 30//128 19//128
f 19//129 9//129 22//129
f 15//130 1//130 2//130
f 25//131 33//131 34//131
f 33//132 48//132 34//132
f 59//133 63//133 50//133
f 60//134 63//134 59//134
f 28//135 40//135 29//135
f 56//136 53//136 51//136
f 51//137 44//137 56//137
f 44//138 39//138 56//138
f 39//139 30//139 46//139
f 30//140 22//140 46//140
f 22//141 29//141 40//141
f 40//142 46//142 22//142
f 57//143 58//143 43//143
f 24//144 41//144 31//144
f 59//145 37//145 58//145
f 74//146 73//146 83//146
f 83//147 89//147 78//147
f 48//148 33//148 32//148
f 8//149 14//149 26//149
f 89//150 94//150 79//150
f 94//151 90//151 79//151
f 5//152 8//152 16//152
f 16//153 9//153 5//153
f 18//154 32//154 33//154
f 36//155 49//155 37//155
f 37//156 20//156 36//156
f 16//157 28//157 21//157
f 55//158 62//158 71//158
f 72//159 86//159 93//159
f 31//160 42//160 32//160
f 18//161 12//161 32//161
f 91//162 86//162 81//162
f 38//163 46//163 40//163
f 36//164 20//164 26//164
f 68//165 48//165 47//165
f 72//166 81//166 66//166
f 3//167 4//167 2//167
f 43//168 35//168 34//168
f 76//169 59//169 75//169
f 59//170 58//170 75//170
f 70//171 78//171 79//171
f 14//172 6//172 13//172
f 35//173 43//173 49//173
f 31//174 41//174 42//174
f 41//175 65//175 64//175
f 64//176 65//176 81//176
f 81//177 66//177 65//177
f 65//178 41//178 42//178
f 77//179 70//179 61//179
f 61//180 69//180 77//180
f 39//1 64//1 45//1
f 45//1 64//1 71//1
f 71//1 64//1 84//1
f 81//181 64//181 41//181
f 41//182 64//182 23//182
f 23//1 64//1 7//1
f 7//1 64//1 1//1
f 1//1 64//1 15//1
f 15//1 64//1 19//1
f 19//1 64//1 30//1
f 30//1 64//1 39//1
f 44//85 45//85 39//85
f 30//183 40//183 39//183
f 40//184 44//184 39//184
f 44//86 52//86 45//86
f 80//185 90//185 84//185
f 90//186 96//186 84//186
f 90//187 96//187 85//187
f 90//188 85//188 92//188
f 86//189 81//189 66//189
f 65//190 81//190 42//190
f 42//191 81//191 41//191
f 10//192 23//192 3//192
f 3//193 23//193 7//193
f 3//194 1//194 7//194
f 3//195 2//195 1//195
f 22//196 40//196 30//196
f 40//197 51//197 44//197
f 46//198 56//198 40//198
f 56//199 51//199 40//199
f 72//200 86//200 66//200
f 20//201 50//201 38//201
f 73//202 67//202 72//202
f 73//203 68//203 67//203
f 48//204 33//204 47//204
f 33//205 32//205 47//205
f 18//206 17//206 32//206
f 18//207 12//207 17//207
f 20//208 27//208 8//208
f 27//209 16//209 8//209
f 20//210 37//210 50//210
f 57//211 48//211 68//211
f 57//212 34//212 48//212
f 49//213 59//213 37//213
f 49//214 58//214 59//214
