# Blender 4.0.0
# www.blender.org
o decimated_mesh
v 0.019141 0.159566 0.182675
v 0.018997 0.159567 0.187096
v 0.017516 0.150829 0.183402
v 0.017472 0.150935 0.186195
v 0.013272 0.150876 0.173060
v 0.014398 0.159567 0.171775
v 0.015958 0.149961 0.184278
v 0.014792 0.151034 0.193000
v 0.015043 0.159567 0.196537
v 0.012316 0.151085 0.197769
v 0.010906 0.150899 0.170975
v 0.010582 0.149725 0.173572
v 0.010507 0.149735 0.195964
v 0.013091 0.159566 0.198957
v 0.002177 0.159569 0.204019
v 0.000039 0.151053 0.202763
v 0.002166 0.150828 0.167423
v 0.011094 0.159567 0.169140
v 0.002159 0.149683 0.199259
v -0.000001 0.149714 0.169266
v 0.001224 0.159567 0.165266
v -0.001173 0.159567 0.204109
v -0.012282 0.151047 0.197747
v -0.001960 0.150854 0.167329
v -0.001527 0.159567 0.165295
v -0.010490 0.149737 0.196016
v -0.013278 0.159567 0.198778
v -0.016121 0.159567 0.194036
v -0.014919 0.151014 0.192688
v -0.003682 0.149804 0.199006
v -0.010564 0.149729 0.173523
v -0.010892 0.150850 0.171043
v -0.017473 0.150935 0.186195
v -0.011995 0.159567 0.169349
v -0.015960 0.149960 0.184278
v -0.019248 0.159565 0.185867
v -0.017506 0.150811 0.183389
v -0.013260 0.150927 0.173019
v -0.018863 0.159567 0.181217
v -0.014399 0.159567 0.171395
vn 0.9062 -0.1995 -0.3728
vn -0.0000 1.0000 -0.0000
vn -0.0104 -0.2269 -0.9739
vn 0.5035 -0.8630 0.0408
vn -0.4230 -0.8775 0.2261
vn 0.9066 -0.1840 0.3797
vn 0.0267 -0.1523 0.9880
vn -0.3981 -0.1558 0.9040
vn 0.9837 -0.1771 0.0322
vn -0.0057 1.0000 0.0014
vn 0.7688 -0.1571 0.6199
vn -0.8466 -0.1603 0.5076
vn -0.3796 0.9107 -0.1628
vn 0.3747 0.9126 0.1636
vn 0.6289 0.2229 0.7448
vn 0.0061 -0.8591 -0.5118
vn 0.6138 -0.1762 -0.7695
vn -0.3542 -0.1959 -0.9144
vn 0.3677 -0.2253 0.9023
vn -0.1924 -0.8680 0.4577
vn -0.0239 -0.9968 0.0768
vn 0.3703 -0.2001 -0.9071
vn -0.8931 -0.1940 -0.4059
vn 0.3082 -0.8806 -0.3599
vn -0.5010 -0.8643 0.0438
vn -0.9156 -0.1745 0.3623
vn -0.3638 0.9187 0.1535
vn -0.1868 0.8713 -0.4538
vn 0.9028 -0.1750 -0.3929
vn 0.0008 1.0000 0.0011
vn -0.0007 1.0000 0.0011
vn -0.0003 1.0000 -0.0002
vn 0.0002 1.0000 -0.0000
vn -0.0000 1.0000 0.0001
vn -0.0014 1.0000 0.0003
vn -0.0001 1.0000 -0.0001
vn 0.0001 1.0000 -0.0000
vn 0.0205 -0.2375 -0.9712
vn 0.3817 0.9101 -0.1613
vn 0.3836 0.9093 -0.1615
vn 0.9109 -0.1987 0.3616
vn 0.8662 -0.2128 0.4521
vn 0.1569 0.9122 0.3784
vn 0.1581 0.9075 0.3891
vn -0.3696 -0.1962 0.9082
vn -0.0344 -0.9377 0.3458
vn -0.9817 -0.1723 -0.0813
vn -0.3236 -0.8776 -0.3537
vn 0.9832 -0.1810 0.0226
vn 0.0418 0.9991 -0.0005
vn 0.0013 1.0000 -0.0003
vn 0.0041 1.0000 0.0007
vn -0.0008 1.0000 -0.0005
vn 0.0427 -0.9991 0.0006
vn -0.8695 -0.1938 0.4544
vn 0.6475 -0.1928 -0.7372
vn 0.4244 -0.8759 0.2297
vn -0.3880 0.9070 -0.1635
vn 0.3939 0.9017 0.1782
vn 0.6316 0.2241 0.7422
vn -0.3742 -0.2222 -0.9003
vn -0.1597 0.9067 0.3903
vn -0.1573 0.9162 0.3685
vn 0.4150 -0.1633 0.8950
vn -0.1937 -0.8574 0.4769
vn 0.3590 -0.1871 -0.9144
vn -0.8994 -0.2313 -0.3709
vn -0.9795 -0.2006 0.0203
vn -0.9179 -0.1844 0.3514
vn -0.3990 0.8990 0.1805
vn -0.1874 0.8674 -0.4609
vn 0.0005 1.0000 -0.0001
vn -0.4046 0.8985 0.1701
vn -0.3620 0.9181 0.1615
vn 0.0001 1.0000 -0.0001
vn -0.3899 0.9056 -0.1668
vn -0.3820 0.9101 -0.1606
vn -0.1528 0.9151 0.3732
vn -0.1657 0.9061 0.3893
vn -0.0064 1.0000 -0.0005
vn -0.0015 1.0000 0.0011
vn -0.0000 1.0000 -0.0001
vn -0.0001 1.0000 -0.0000
vn -0.0002 1.0000 -0.0000
vn -0.0002 1.0000 0.0001
vn -0.0007 1.0000 0.0016
vn -0.1891 0.8678 -0.4594
vn -0.1841 0.8725 -0.4526
vn 0.0018 1.0000 0.0009
vn 0.1546 0.9118 0.3805
vn 0.0043 1.0000 -0.0003
vn 0.6288 0.2242 0.7446
vn 0.6318 0.2228 0.7424
vn -0.9194 -0.1757 0.3520
vn -0.9137 -0.1854 0.3616
vn 0.1611 0.9072 0.3886
vn 0.3737 0.9122 0.1679
vn 0.3841 0.9089 -0.1623
vn 0.3823 0.9100 -0.1608
vn 0.3970 0.9015 0.1726
s 0
f 5//1 1//1 3//1
f 40//2 6//2 18//2
f 21//3 24//3 25//3
f 3//4 4//4 7//4
f 26//5 23//5 29//5
f 8//6 2//6 9//6
f 22//7 16//7 15//7
f 23//8 22//8 27//8
f 4//9 1//9 2//9
f 13//10 20//10 19//10
f 10//11 9//11 14//11
f 28//12 23//12 27//12
f 7//13 8//13 4//13
f 31//14 38//14 37//14
f 40//15 38//15 32//15
f 17//16 20//16 24//16
f 18//17 6//17 11//17
f 34//18 25//18 24//18
f 10//19 15//19 16//19
f 23//20 26//20 30//20
f 19//21 30//21 26//21
f 18//22 11//22 17//22
f 38//23 39//23 40//23
f 12//24 11//24 5//24
f 33//25 37//25 35//25
f 29//26 36//26 33//26
f 3//27 5//27 12//27
f 16//28 10//28 19//28
f 5//29 6//29 1//29
f 15//30 14//30 9//30
f 22//31 15//31 28//31
f 9//32 2//32 1//32
f 1//33 6//33 9//33
f 18//34 21//34 25//34
f 25//2 34//2 40//2
f 40//2 39//2 28//2
f 28//35 39//35 36//35
f 28//2 27//2 22//2
f 28//36 15//36 6//36
f 9//37 6//37 15//37
f 6//2 40//2 28//2
f 25//2 40//2 18//2
f 21//38 17//38 24//38
f 33//39 29//39 35//39
f 35//40 29//40 26//40
f 8//41 4//41 2//41
f 9//42 10//42 8//42
f 32//43 20//43 24//43
f 20//44 32//44 31//44
f 23//45 16//45 22//45
f 30//46 19//46 16//46
f 39//47 37//47 36//47
f 31//48 38//48 32//48
f 4//49 3//49 1//49
f 26//50 31//50 35//50
f 31//51 26//51 20//51
f 26//52 19//52 20//52
f 20//53 13//53 12//53
f 12//54 7//54 13//54
f 28//55 29//55 23//55
f 11//56 6//56 5//56
f 8//57 10//57 13//57
f 13//58 8//58 7//58
f 31//59 37//59 35//59
f 40//60 32//60 34//60
f 24//61 32//61 34//61
f 12//62 11//62 20//62
f 20//63 11//63 17//63
f 14//64 15//64 10//64
f 16//65 23//65 30//65
f 21//66 18//66 17//66
f 38//67 37//67 39//67
f 36//68 37//68 33//68
f 29//69 28//69 36//69
f 3//70 12//70 7//70
f 19//71 10//71 13//71
f 6//72 2//72 1//72
f 7//73 3//73 5//73
f 7//74 5//74 12//74
f 18//75 15//75 6//75
f 15//37 2//37 6//37
f 15//33 9//33 2//33
f 8//76 4//76 13//76
f 13//77 4//77 7//77
f 20//78 12//78 17//78
f 17//79 12//79 11//79
f 13//80 12//80 19//80
f 19//81 12//81 20//81
f 21//82 15//82 18//82
f 21//82 25//82 15//82
f 25//82 34//82 15//82
f 34//82 40//82 15//82
f 40//83 39//83 15//83
f 39//84 28//84 15//84
f 28//85 27//85 15//85
f 27//86 22//86 15//86
f 10//87 13//87 16//87
f 16//88 13//88 19//88
f 19//89 20//89 31//89
f 31//90 20//90 24//90
f 26//91 19//91 31//91
f 32//92 34//92 38//92
f 38//93 34//93 40//93
f 36//94 33//94 28//94
f 33//95 29//95 28//95
f 31//96 24//96 32//96
f 35//97 31//97 38//97
f 29//98 26//98 33//98
f 33//99 26//99 35//99
f 35//100 38//100 37//100
