# Blender 4.0.0
# www.blender.org
o decimated_mesh
v -0.032433 0.142796 -0.023423
v -0.032191 0.042080 -0.023927
v -0.032369 0.142796 0.024680
v -0.031096 0.142796 -0.025402
v -0.030637 0.000905 -0.021788
v -0.032002 0.142796 0.026472
v -0.030713 0.000888 0.021935
v -0.028234 0.002798 -0.024813
v -0.029752 -0.001055 -0.023540
v -0.032006 0.040740 0.026000
v -0.029746 -0.001149 0.023786
v -0.028181 0.000680 0.024761
v -0.015407 -0.001015 -0.028280
v 0.029726 -0.001150 0.023791
v 0.027988 0.001056 0.024881
v -0.015956 0.142796 -0.030069
v 0.000075 0.003096 -0.030431
v 0.000059 0.000401 -0.029901
v 0.031976 0.142796 0.026447
v 0.032005 0.040740 0.026000
v -0.000000 -0.001109 -0.028736
v 0.032367 0.142796 0.024680
v 0.029754 -0.001061 -0.023507
v 0.030710 0.000867 0.021938
v 0.015384 -0.001010 -0.028287
v 0.030636 0.000905 -0.021788
v 0.000435 0.142796 -0.031852
v 0.032189 0.042080 -0.023927
v 0.032432 0.142796 -0.023423
v 0.028232 0.002798 -0.024813
v 0.015954 0.142796 -0.030069
v 0.031094 0.142796 -0.025402
vn -0.0000 1.0000 -0.0000
vn 0.9126 -0.0555 -0.4051
vn 0.2946 -0.0100 -0.9556
vn -0.9999 -0.0117 0.0013
vn 0.9109 -0.0710 0.4064
vn 0.9129 -0.4082 -0.0019
vn -0.1343 -0.0128 -0.9909
vn 0.4630 -0.0718 0.8834
vn -0.0062 -1.0000 -0.0043
vn 0.0010 -0.4423 0.8969
vn -0.9698 -0.0066 -0.2437
vn 0.1142 -0.0104 -0.9934
vn 0.9999 -0.0117 0.0013
vn -0.9031 -0.4295 -0.0007
vn -0.9147 -0.0553 -0.4004
vn 0.0852 -0.1928 -0.9775
vn -0.4654 -0.0717 0.8822
vn -0.2946 -0.0100 -0.9556
vn -0.3161 -0.0105 -0.9487
vn 0.8499 -0.0047 0.5269
vn -0.8499 -0.0047 0.5269
vn 0.9697 -0.0066 -0.2443
vn -0.9139 -0.0704 0.3998
vn 0.3161 -0.0105 -0.9487
vn 0.0001 1.0000 0.0002
vn 0.0001 1.0000 -0.0000
vn -0.0001 1.0000 0.0002
vn 0.2646 -0.0130 -0.9643
vn -0.9999 -0.0127 -0.0017
vn 0.8987 -0.4386 -0.0003
vn -0.1082 -0.0098 -0.9941
vn -0.0029 -1.0000 -0.0019
vn -0.0000 -1.0000 -0.0008
vn 0.0066 -1.0000 -0.0045
vn 0.0022 -1.0000 -0.0020
vn -0.3077 -0.1868 -0.9330
vn 0.3091 -0.1932 -0.9312
vn -0.0019 -0.0311 0.9995
vn 0.0111 -0.0114 0.9999
vn 0.0004 -0.0046 1.0000
vn -0.0001 -0.4704 0.8825
vn 0.9797 0.0009 -0.2005
vn -0.0849 -0.1919 -0.9777
vn 0.1353 -0.0128 -0.9907
vn 0.9999 -0.0127 -0.0017
vn -0.9119 -0.4105 -0.0017
vn -0.2645 -0.0130 -0.9643
vn -0.5801 -0.0401 -0.8136
vn -0.8285 0.0008 -0.5600
vn -0.2283 -0.0043 0.9736
vn -0.9763 0.0007 -0.2162
vn 0.0270 -0.6112 -0.7910
vn -0.0272 -0.6098 -0.7921
vn 0.8285 0.0008 -0.5600
vn 0.5887 -0.0411 -0.8073
vn -1.0000 -0.0024 0.0013
vn -1.0000 -0.0035 0.0036
vn -0.9993 -0.0378 -0.0018
vn -0.9995 -0.0327 0.0028
vn -0.0000 -0.0046 1.0000
vn -0.0000 -0.0282 0.9996
vn -0.0070 -0.9995 -0.0297
vn -0.0022 -1.0000 -0.0020
vn 1.0000 -0.0035 0.0036
vn 1.0000 -0.0024 0.0013
vn 0.0004 -0.0044 1.0000
vn 0.9995 -0.0327 0.0028
vn 0.0074 -0.9994 -0.0328
vn 0.0020 -1.0000 -0.0019
vn 0.9993 -0.0378 -0.0017
s 0
f 22//1 31//1 19//1
f 28//2 26//2 23//2
f 30//3 31//3 32//3
f 1//4 7//4 3//4
f 14//5 24//5 20//5
f 24//6 23//6 26//6
f 13//7 16//7 17//7
f 20//8 15//8 14//8
f 13//9 21//9 11//9
f 12//10 14//10 15//10
f 10//11 3//11 7//11
f 17//12 27//12 31//12
f 24//13 29//13 22//13
f 7//14 9//14 11//14
f 2//15 9//15 5//15
f 17//16 25//16 18//16
f 11//17 12//17 10//17
f 16//18 8//18 4//18
f 4//19 8//19 2//19
f 28//20 29//20 26//20
f 1//21 2//21 5//21
f 22//22 20//22 24//22
f 10//23 7//23 11//23
f 32//24 28//24 30//24
f 27//1 16//1 6//1
f 16//25 4//25 1//25
f 1//1 3//1 16//1
f 16//26 3//26 6//26
f 6//1 19//1 27//1
f 22//1 29//1 31//1
f 32//27 31//27 29//27
f 31//1 27//1 19//1
f 30//28 25//28 31//28
f 1//29 5//29 7//29
f 24//30 14//30 23//30
f 27//31 17//31 16//31
f 23//32 14//32 25//32
f 14//33 11//33 21//33
f 25//34 14//34 21//34
f 11//35 9//35 13//35
f 8//36 13//36 9//36
f 25//37 30//37 23//37
f 10//38 12//38 15//38
f 15//39 19//39 10//39
f 19//40 6//40 10//40
f 12//41 11//41 14//41
f 10//42 3//42 6//42
f 18//43 13//43 17//43
f 31//44 25//44 17//44
f 24//45 26//45 29//45
f 7//46 5//46 9//46
f 16//47 13//47 8//47
f 9//48 2//48 8//48
f 2//49 1//49 4//49
f 19//50 15//50 20//50
f 22//51 20//51 19//51
f 25//52 21//52 18//52
f 21//53 13//53 18//53
f 32//54 29//54 28//54
f 28//55 23//55 30//55
f 2//56 3//56 1//56
f 10//57 3//57 2//57
f 5//58 7//58 2//58
f 7//59 10//59 2//59
f 22//1 31//1 16//1
f 22//1 16//1 3//1
f 6//1 22//1 3//1
f 31//1 27//1 16//1
f 20//60 6//60 10//60
f 15//61 20//61 10//61
f 13//62 21//62 9//62
f 21//63 11//63 9//63
f 6//1 19//1 22//1
f 20//64 28//64 22//64
f 28//65 29//65 22//65
f 20//66 19//66 6//66
f 24//67 28//67 20//67
f 25//68 23//68 21//68
f 23//69 14//69 21//69
f 24//70 26//70 28//70
