mtllib material.mtl
usemtl material_0
v -0.03002000 0.01548000 0.06371000
v -0.03031000 0.01548000 0.07375000
v -0.03187000 0.01393000 0.07374000
v 0.04823000 -0.02045000 0.03369000
v -0.04879000 -0.02028000 0.03334000
v -0.04867000 -0.02175000 0.03468000
v 0.03124000 -0.01623000 0.06300000
v 0.02704000 -0.01492000 0.05790000
v 0.03187000 -0.01489000 0.06169000
v 0.02469000 0.01627000 0.06254000
v 0.02636000 0.01627000 0.05912000
v 0.02522000 0.01495000 0.05833000
v 0.02400000 0.01492000 0.06092000
v -0.03057000 0.00407000 0.06174000
v -0.03056000 -0.01491000 0.06175000
v -0.03191000 -0.01491000 0.06309000
v 0.02600000 -0.02036000 0.07302000
v 0.02771000 -0.02036000 0.07209000
v 0.02640000 -0.02173000 0.07173000
v -0.03057000 0.01491000 0.06174000
v -0.03192000 0.01491000 0.06308000
v -0.03057000 0.01625000 0.06308000
v 0.02703000 0.01495000 0.05790000
v 0.02522000 0.01495000 0.05833000
v 0.02636000 0.01627000 0.05912000
v -0.03577000 -0.01210000 0.06615000
v -0.04486000 -0.01206000 0.04246000
v -0.04589000 -0.01372000 0.04417000
v -0.06343000 0.01206000 0.06827000
v -0.06467000 0.01206000 0.06627000
v -0.06269000 0.01372000 0.06642000
v -0.06467000 -0.01206000 0.06627000
v -0.06343000 -0.01206000 0.06827000
v -0.06268000 -0.01372000 0.06642000
v 0.18661000 0.00687000 0.05097000
v 0.18847000 -0.00672000 0.05204000
v 0.18847000 0.00682000 0.05204000
v 0.18661000 -0.00677000 0.05097000
v 0.17911000 -0.00788000 0.05357000
v 0.17910000 0.00797000 0.05356000
v 0.15761000 0.00952000 0.05704000
v 0.15762000 -0.00943000 0.05705000
v 0.10524000 0.01175000 0.06090000
v 0.10525000 -0.01169000 0.06090000
v 0.02531000 -0.01386000 0.06234000
v 0.02531000 0.01389000 0.06233000
v 0.02434000 0.01287000 0.06281000
v 0.02530000 0.01546000 0.06390000
v 0.02434000 0.01461000 0.06427000
v 0.02435000 -0.01284000 0.06282000
v 0.02434000 -0.01458000 0.06428000
v 0.02531000 -0.01543000 0.06391000
v 0.18847000 0.00682000 0.05204000
v 0.18742000 0.00846000 0.05392000
v 0.18701000 0.00847000 0.05245000
v 0.18874000 0.00678000 0.05323000
v 0.18874000 -0.00669000 0.05324000
v 0.18847000 -0.00672000 0.05204000
v 0.18702000 -0.00837000 0.05244000
v 0.18743000 -0.00836000 0.05393000
v -0.03001000 0.01393000 0.06215000
v 0.02338000 0.01392000 0.06235000
v 0.02338000 0.01549000 0.06392000
v -0.03002000 0.01548000 0.06371000
v -0.03031000 0.01548000 0.07375000
v 0.02334000 0.01549000 0.07305000
v 0.02334000 0.01392000 0.07462000
v -0.03032000 0.01393000 0.07530000
v -0.03001000 -0.01547000 0.06371000
v 0.02338000 -0.01546000 0.06392000
v 0.02339000 -0.01389000 0.06235000
v -0.03001000 -0.01392000 0.06216000
v -0.03031000 -0.01392000 0.07530000
v 0.02334000 -0.01389000 0.07463000
v 0.02335000 -0.01546000 0.07306000
v -0.03031000 -0.01547000 0.07375000
v 0.02527000 -0.01543000 0.07303000
v 0.02431000 -0.01458000 0.07270000
v 0.02431000 -0.01282000 0.07415000
v 0.02527000 -0.01386000 0.07460000
v 0.02431000 -0.01458000 0.07270000
v 0.02335000 -0.01546000 0.07306000
v 0.02334000 -0.01389000 0.07463000
v 0.02431000 -0.01282000 0.07415000
v 0.02430000 0.01286000 0.07415000
v 0.02334000 0.01392000 0.07462000
v 0.02334000 0.01549000 0.07305000
v 0.02431000 0.01461000 0.07269000
v -0.03032000 0.01393000 0.07530000
v -0.03031000 -0.01392000 0.07530000
v 0.02431000 0.01461000 0.07269000
v 0.02527000 0.01546000 0.07302000
v 0.02526000 0.01389000 0.07459000
v 0.02430000 0.01286000 0.07415000
v 0.02435000 -0.01284000 0.06282000
v 0.02338000 -0.01546000 0.06392000
v 0.02434000 -0.01458000 0.06428000
v 0.02339000 -0.01389000 0.06235000
v 0.02338000 0.01392000 0.06235000
v 0.02434000 0.01287000 0.06281000
v -0.03001000 -0.01392000 0.06216000
v -0.03001000 0.01393000 0.06215000
v 0.02434000 0.01461000 0.06427000
v 0.02338000 0.01549000 0.06392000
v -0.03031000 0.01548000 0.07375000
v 0.02434000 0.01461000 0.06427000
v 0.02431000 0.01461000 0.07269000
v -0.03031000 -0.01547000 0.07375000
v 0.02431000 -0.01458000 0.07270000
v 0.02434000 -0.01458000 0.06428000
v 0.10520000 -0.01169000 0.07215000
v 0.10519000 0.01175000 0.07215000
v 0.15785000 0.00951000 0.06724000
v 0.15786000 -0.00942000 0.06724000
v 0.18030000 0.00806000 0.06105000
v 0.18030000 -0.00797000 0.06105000
v 0.02527000 -0.01543000 0.07303000
v 0.02531000 -0.01543000 0.06391000
v 0.02434000 -0.01458000 0.06428000
v 0.02431000 -0.01458000 0.07270000
v 0.02431000 0.01461000 0.07269000
v 0.02434000 0.01461000 0.06427000
v 0.02530000 0.01546000 0.06390000
v 0.02527000 0.01546000 0.07302000
v 0.10512000 0.01333000 0.07059000
v 0.10527000 0.01332000 0.06246000
v 0.15769000 0.01107000 0.05860000
v 0.15773000 0.01108000 0.06569000
v 0.17946000 0.00955000 0.05507000
v 0.18006000 0.00960000 0.05944000
v 0.18742000 0.00846000 0.05392000
v 0.18701000 0.00847000 0.05245000
v 0.18661000 0.00687000 0.05097000
v 0.18847000 0.00682000 0.05204000
v 0.17910000 0.00797000 0.05356000
v 0.18797000 -0.00679000 0.05533000
v 0.18797000 0.00688000 0.05532000
v 0.18006000 0.00960000 0.05944000
v 0.18030000 0.00806000 0.06105000
v 0.18030000 -0.00797000 0.06105000
v 0.18847000 -0.00672000 0.05204000
v 0.18661000 -0.00677000 0.05097000
v 0.18702000 -0.00837000 0.05244000
v 0.17947000 -0.00946000 0.05507000
v 0.17911000 -0.00788000 0.05357000
v 0.15762000 -0.00943000 0.05705000
v 0.15769000 -0.01099000 0.05860000
v 0.10528000 -0.01325000 0.06246000
v 0.10525000 -0.01169000 0.06090000
v 0.02531000 -0.01543000 0.06391000
v 0.02531000 -0.01386000 0.06234000
v -0.03032000 0.01393000 0.07530000
v -0.03186000 -0.01392000 0.07374000
v -0.03031000 -0.01392000 0.07530000
v -0.03031000 -0.01547000 0.07375000
v 0.15785000 0.00951000 0.06724000
v 0.18030000 0.00806000 0.06105000
v 0.10512000 0.01333000 0.07059000
v 0.10519000 0.01175000 0.07215000
v 0.02527000 0.01546000 0.07302000
v 0.02526000 0.01389000 0.07459000
v 0.15769000 0.01107000 0.05860000
v 0.10527000 0.01332000 0.06246000
v 0.10524000 0.01175000 0.06090000
v 0.15761000 0.00952000 0.05704000
v 0.17946000 0.00955000 0.05507000
v 0.18006000 -0.00951000 0.05944000
v 0.18006000 -0.00951000 0.05944000
v 0.18743000 -0.00836000 0.05393000
v 0.17947000 -0.00946000 0.05507000
v 0.15769000 -0.01099000 0.05860000
v 0.15774000 -0.01100000 0.06570000
v 0.18030000 -0.00797000 0.06105000
v 0.15786000 -0.00942000 0.06724000
v 0.10520000 -0.01169000 0.07215000
v 0.10513000 -0.01326000 0.07059000
v 0.02527000 -0.01386000 0.07460000
v 0.02527000 -0.01543000 0.07303000
v 0.10513000 -0.01326000 0.07059000
v 0.02527000 -0.01543000 0.07303000
v 0.02531000 0.01389000 0.06233000
v 0.02770000 0.02039000 0.07208000
v 0.02764000 0.01760000 0.07207000
v 0.02602000 0.01759000 0.07301000
v 0.02599000 0.02039000 0.07301000
v 0.02599000 0.02039000 0.07301000
v -0.03494000 0.02038000 0.07279000
v -0.03708000 0.02175000 0.07150000
v 0.02639000 0.02176000 0.07172000
v 0.02770000 0.02039000 0.07208000
v 0.02600000 -0.02036000 0.07302000
v 0.02602000 -0.01757000 0.07302000
v 0.02765000 -0.01756000 0.07209000
v 0.02771000 -0.02036000 0.07209000
v -0.03708000 -0.02174000 0.07152000
v -0.03493000 -0.02037000 0.07280000
v 0.04921000 -0.02045000 0.03528000
v 0.04822000 -0.00406000 0.03369000
v 0.04823000 -0.02045000 0.03369000
v 0.04921000 -0.00406000 0.03528000
v 0.04822000 0.02048000 0.03368000
v 0.04921000 0.02048000 0.03528000
v 0.04758000 -0.02173000 0.03512000
v 0.04171000 -0.02173000 0.04587000
v -0.04668000 -0.02175000 0.04556000
v -0.04318000 -0.02175000 0.06043000
v 0.03355000 -0.02173000 0.06048000
v 0.02640000 -0.02173000 0.07173000
v -0.03708000 -0.02174000 0.07152000
v -0.04892000 0.02040000 0.03333000
v 0.04822000 0.02048000 0.03368000
v 0.04757000 0.02176000 0.03511000
v -0.04868000 0.02174000 0.03467000
v 0.02565000 0.01627000 0.07165000
v -0.03063000 0.01626000 0.07149000
v -0.03200000 0.01760000 0.07280000
v 0.02602000 0.01759000 0.07301000
v 0.02718000 0.01627000 0.07014000
v 0.02764000 0.01760000 0.07207000
v 0.03124000 0.01627000 0.06299000
v 0.03426000 0.01727000 0.06207000
v 0.03187000 0.01492000 0.06169000
v -0.03063000 0.01626000 0.07149000
v -0.03195000 0.01494000 0.07149000
v -0.03191000 0.00407000 0.06308000
v -0.03195000 0.01494000 0.07149000
v -0.03194000 0.00408000 0.07149000
v -0.03194000 -0.01494000 0.07149000
v -0.03194000 0.00408000 0.07149000
v -0.03194000 -0.01494000 0.07149000
v -0.03331000 -0.01620000 0.07280000
v -0.03332000 0.00407000 0.07280000
v -0.03195000 0.01494000 0.07149000
v -0.03333000 0.01621000 0.07280000
v -0.03194000 -0.01494000 0.07149000
v -0.03057000 -0.01625000 0.06309000
v -0.03062000 -0.01625000 0.07149000
v -0.03062000 -0.01625000 0.07149000
v 0.02602000 -0.01757000 0.07302000
v -0.03199000 -0.01761000 0.07281000
v 0.02565000 -0.01624000 0.07166000
v 0.02765000 -0.01756000 0.07209000
v 0.02719000 -0.01623000 0.07014000
v 0.03427000 -0.01724000 0.06208000
v 0.03187000 -0.01489000 0.06169000
v 0.02637000 -0.01624000 0.05913000
v 0.02470000 -0.01624000 0.06255000
v 0.02295000 -0.01624000 0.06331000
v -0.03062000 -0.01625000 0.07149000
v 0.02400000 -0.01489000 0.06092000
v -0.03057000 -0.01625000 0.06309000
v 0.02241000 -0.01491000 0.06194000
v -0.03056000 -0.01491000 0.06175000
v 0.03187000 0.01492000 0.06169000
v 0.02469000 0.01627000 0.06254000
v 0.02294000 0.01627000 0.06331000
v -0.03057000 0.01625000 0.06308000
v 0.03426000 0.00409000 0.06208000
v 0.03427000 -0.01724000 0.06208000
v 0.03187000 -0.01489000 0.06169000
v 0.03187000 0.00409000 0.06169000
v 0.03426000 0.01727000 0.06207000
v 0.02704000 -0.01492000 0.05790000
v 0.03187000 0.01492000 0.06169000
v 0.02703000 0.00409000 0.05790000
v 0.02703000 0.01495000 0.05790000
v 0.02522000 -0.01492000 0.05833000
v 0.02240000 0.01493000 0.06193000
v -0.03057000 0.01491000 0.06174000
v 0.02400000 0.01492000 0.06092000
v 0.02400000 -0.01489000 0.06092000
v 0.02522000 -0.01492000 0.05833000
v 0.02637000 -0.01624000 0.05913000
v 0.02470000 -0.01624000 0.06255000
v 0.02703000 0.00409000 0.05790000
v 0.02704000 -0.01492000 0.05790000
v 0.02522000 -0.01492000 0.05833000
v 0.02522000 0.00408000 0.05833000
v 0.02703000 0.01495000 0.05790000
v 0.02522000 0.01495000 0.05833000
v 0.02241000 0.00408000 0.06194000
v 0.02241000 -0.01491000 0.06194000
v -0.03056000 -0.01491000 0.06175000
v -0.03057000 0.00407000 0.06174000
v 0.02240000 0.01493000 0.06193000
v -0.03057000 0.01491000 0.06174000
v 0.04823000 -0.02045000 0.03369000
v -0.04885000 -0.00401000 0.03333000
v -0.04879000 -0.02028000 0.03334000
v 0.04822000 -0.00406000 0.03369000
v -0.04892000 0.02040000 0.03333000
v 0.04822000 0.02048000 0.03368000
v 0.02522000 0.00408000 0.05833000
v 0.02522000 -0.01492000 0.05833000
v 0.02400000 -0.01489000 0.06092000
v 0.02400000 0.00409000 0.06092000
v 0.02522000 0.01495000 0.05833000
v 0.02241000 -0.01491000 0.06194000
v 0.02400000 0.01492000 0.06092000
v 0.02241000 0.00408000 0.06194000
v 0.02240000 0.01493000 0.06193000
v -0.03200000 0.01760000 0.07280000
v -0.03494000 0.02038000 0.07279000
v -0.03333000 0.01621000 0.07280000
v -0.03063000 0.01626000 0.07149000
v -0.03195000 0.01494000 0.07149000
v -0.03667000 0.01929000 0.07279000
v -0.03332000 0.00407000 0.07280000
v -0.03835000 0.02045000 0.07185000
v -0.03708000 0.02175000 0.07150000
v -0.03836000 0.00410000 0.07184000
v -0.03667000 0.00407000 0.07279000
v -0.03836000 -0.02040000 0.07183000
v -0.03331000 -0.01620000 0.07280000
v -0.03666000 -0.01928000 0.07279000
v -0.03708000 -0.02174000 0.07152000
v -0.03493000 -0.02037000 0.07280000
v -0.03199000 -0.01761000 0.07281000
v -0.03194000 -0.01494000 0.07149000
v -0.03062000 -0.01625000 0.07149000
v 0.02771000 -0.02036000 0.07209000
v 0.02765000 -0.01756000 0.07209000
v 0.03427000 -0.01724000 0.06208000
v 0.03489000 -0.02038000 0.06096000
v 0.04326000 -0.02042000 0.04596000
v 0.04323000 -0.01721000 0.04600000
v 0.04921000 -0.02045000 0.03528000
v 0.04323000 -0.00406000 0.04600000
v 0.03426000 0.00409000 0.06208000
v 0.04734000 -0.01721000 0.03864000
v 0.04921000 -0.00406000 0.03528000
v 0.04737000 -0.00406000 0.03858000
v 0.04921000 0.02048000 0.03528000
v 0.04740000 0.01724000 0.03851000
v 0.04325000 0.02045000 0.04596000
v 0.04323000 0.01724000 0.04600000
v 0.03426000 0.01727000 0.06207000
v 0.03488000 0.02041000 0.06096000
v 0.02770000 0.02039000 0.07208000
v 0.02764000 0.01760000 0.07207000
v 0.02639000 0.02176000 0.07172000
v 0.04921000 -0.02045000 0.03528000
v 0.04823000 -0.02045000 0.03369000
v 0.04758000 -0.02173000 0.03512000
v 0.04326000 -0.02042000 0.04596000
v 0.04171000 -0.02173000 0.04587000
v 0.03355000 -0.02173000 0.06048000
v 0.02640000 -0.02173000 0.07173000
v -0.04879000 -0.02028000 0.03334000
v -0.05002000 -0.02028000 0.03478000
v -0.04867000 -0.02175000 0.03468000
v -0.05002000 -0.00408000 0.03478000
v -0.04885000 -0.00401000 0.03333000
v -0.05002000 0.02027000 0.03478000
v -0.04892000 0.02040000 0.03333000
v -0.04868000 0.02174000 0.03467000
v 0.04822000 0.02048000 0.03368000
v 0.04921000 0.02048000 0.03528000
v 0.04757000 0.02176000 0.03511000
v 0.04170000 0.02176000 0.04587000
v 0.04325000 0.02045000 0.04596000
v 0.03354000 0.02176000 0.06048000
v -0.03835000 0.02045000 0.07185000
v -0.04319000 0.02175000 0.06042000
v -0.03708000 0.02175000 0.07150000
v -0.04451000 0.02041000 0.06077000
v -0.04809000 0.02033000 0.04561000
v -0.04669000 0.02174000 0.04556000
v -0.04668000 -0.02175000 0.04556000
v -0.04808000 -0.02034000 0.04561000
v -0.05002000 -0.00408000 0.03478000
v -0.04451000 -0.02040000 0.06078000
v -0.04318000 -0.02175000 0.06043000
v -0.03708000 -0.02174000 0.07152000
v -0.03836000 -0.02040000 0.07183000
v -0.03836000 0.00410000 0.07184000
v -0.04451000 0.00408000 0.06078000
v -0.04809000 -0.00407000 0.04561000
v 0.03354000 0.02176000 0.06048000
v 0.02639000 0.02176000 0.07172000
v -0.03708000 0.02175000 0.07150000
v -0.04319000 0.02175000 0.06042000
v -0.04669000 0.02174000 0.04556000
v 0.04170000 0.02176000 0.04587000
v 0.05172000 0.02104000 0.03416000
v 0.05173000 -0.02101000 0.03417000
v 0.03843000 -0.02901000 0.03412000
v 0.03842000 0.02904000 0.03411000
v -0.03847000 0.02902000 0.03383000
v -0.03845000 -0.02903000 0.03384000
v -0.05176000 0.02102000 0.03378000
v -0.05175000 -0.02103000 0.03379000
v 0.05173000 -0.02101000 0.03417000
v 0.05175000 -0.02101000 0.00000000
v 0.03846000 -0.02901000 -0.00004000
v 0.03843000 -0.02901000 0.03412000
v 0.05174000 0.02104000 0.00000000
v 0.05172000 0.02104000 0.03416000
v 0.03842000 0.02904000 0.03411000
v 0.03845000 0.02904000 -0.00005000
v -0.05176000 0.02102000 0.03378000
v -0.05175000 -0.02103000 0.03379000
v -0.05172000 -0.02103000 -0.00037000
v -0.05173000 0.02102000 -0.00038000
v 0.05174000 0.02104000 0.00000000
v 0.05175000 -0.02101000 0.00000000
v 0.05173000 -0.02101000 0.03417000
v 0.05172000 0.02104000 0.03416000
v -0.03847000 0.02902000 0.03383000
v -0.05176000 0.02102000 0.03378000
v -0.05173000 0.02102000 -0.00038000
v -0.03844000 0.02902000 -0.00033000
v -0.03843000 -0.02903000 -0.00032000
v -0.05172000 -0.02103000 -0.00037000
v -0.05175000 -0.02103000 0.03379000
v -0.03845000 -0.02903000 0.03384000
v 0.03845000 0.02904000 -0.00005000
v 0.03842000 0.02904000 0.03411000
v -0.03847000 0.02902000 0.03383000
v -0.03844000 0.02902000 -0.00033000
v -0.03845000 -0.02903000 0.03384000
v 0.03843000 -0.02901000 0.03412000
v 0.03846000 -0.02901000 -0.00004000
v -0.03843000 -0.02903000 -0.00032000
v -0.03577000 0.01212000 0.06615000
v -0.03577000 -0.01210000 0.06615000
v -0.03678000 -0.01210000 0.06819000
v -0.03679000 0.01212000 0.06819000
v -0.03806000 0.01373000 0.06629000
v -0.04589000 0.01372000 0.04416000
v -0.04484000 0.01202000 0.04250000
v -0.03577000 0.01212000 0.06615000
v -0.03679000 0.01212000 0.06819000
v -0.03679000 0.01212000 0.06819000
v -0.03806000 0.01373000 0.06629000
v -0.04589000 0.01372000 0.04416000
v -0.06343000 0.01206000 0.06827000
v -0.06343000 -0.01206000 0.06827000
v -0.06467000 -0.01206000 0.06627000
v -0.06467000 0.01206000 0.06627000
v -0.06467000 0.01206000 0.06627000
v -0.04723000 0.01202000 0.04272000
v -0.04484000 0.01202000 0.04250000
v -0.03805000 -0.01371000 0.06629000
v -0.03678000 -0.01210000 0.06819000
v -0.04589000 -0.01372000 0.04417000
v -0.04721000 -0.01206000 0.04268000
v -0.06467000 -0.01206000 0.06627000
v -0.04486000 -0.01206000 0.04246000
v -0.03805000 -0.01371000 0.06629000
v -0.03678000 -0.01210000 0.06819000
v -0.04486000 -0.01206000 0.04246000
v -0.04484000 0.01202000 0.04250000
v -0.04723000 0.01202000 0.04272000
v -0.04721000 -0.01206000 0.04268000
v -0.03678000 -0.01210000 0.06819000
v -0.06343000 -0.01206000 0.06827000
v -0.06343000 0.01206000 0.06827000
v -0.03679000 0.01212000 0.06819000
v -0.04484000 0.01202000 0.04250000
v -0.04486000 -0.01206000 0.04246000
v -0.03577000 -0.01210000 0.06615000
v -0.03577000 0.01212000 0.06615000
v -0.06467000 0.01206000 0.06627000
v -0.06467000 -0.01206000 0.06627000
v -0.04721000 -0.01206000 0.04268000
v -0.04723000 0.01202000 0.04272000
v -0.03157000 -0.01392000 0.06370000
v -0.03001000 -0.01547000 0.06371000
v -0.03001000 -0.01392000 0.06216000
v -0.03157000 0.01393000 0.06370000
v -0.03001000 0.01393000 0.06215000
vn -0.02553535 0.99049000 -0.13519500
vn -0.11690840 0.76071940 0.63846560
vn -0.99353760 0.04731477 0.10317110
vn 0.00711317 -0.71179930 -0.70234690
vn -0.12002470 -0.65466390 -0.74633040
vn -0.01567254 -0.99146340 -0.12943980
vn 0.14364170 0.96397220 0.22388570
vn 0.08693044 0.20409010 0.97508470
vn -0.42925270 0.72308470 0.54119370
vn 0.05073738 -0.99762640 0.04655619
vn -0.02202135 -0.97749240 0.20981810
vn 0.35307780 -0.19833840 0.91432930
vn 0.54438330 -0.74380740 0.38781120
vn 0.70483650 0.00026562 0.70936980
vn 0.20726720 0.58683710 0.78272760
vn 0.98913480 0.05925272 0.13454200
vn 0.00741517 -0.32162040 0.94683960
vn 0.77242700 -0.31285910 0.55269860
vn 0.11170910 -0.71086160 0.69440390
vn 0.13021390 -0.63839040 0.75861850
vn 0.98651210 -0.09837764 0.13082710
vn 0.02111599 -0.99112460 0.13124820
vn 0.00530719 -0.30969400 0.95082150
vn 0.35307780 -0.19833840 0.91432930
vn -0.02202135 -0.97749240 0.20981810
vn 0.61881310 -0.75704710 -0.20964290
vn 0.61780420 -0.75225290 -0.22898370
vn 0.02645136 -0.98467940 -0.17235640
vn -0.54229480 0.44490250 0.71272590
vn -0.84936410 0.02266886 0.52732020
vn -0.17297940 0.98376610 0.04777512
vn -0.84934360 -0.02287126 0.52734460
vn -0.54232200 -0.44478860 0.71277620
vn -0.17074970 -0.98407040 0.04949789
vn -0.18025930 0.07389513 -0.98083950
vn 0.73429510 -0.06133129 -0.67605420
vn 0.73373480 0.06171605 -0.67662720
vn -0.18036300 -0.07401022 -0.98081170
vn -0.18868000 -0.08591346 -0.97827340
vn -0.18866160 0.08581187 -0.97828580
vn -0.09085012 0.07128257 -0.99331020
vn -0.09082935 -0.07155176 -0.99329270
vn -0.03695301 -0.00013632 -0.99931690
vn -0.03695446 -0.00013633 -0.99931690
vn -0.02041529 -0.06015582 -0.99798030
vn -0.02043999 0.05989536 -0.99799540
vn -0.46491270 0.02565890 -0.88498470
vn 0.01420344 0.98888780 -0.14798350
vn -0.68928010 0.71460070 -0.11932620
vn -0.46491650 -0.02610860 -0.88496950
vn -0.68898300 -0.71493830 -0.11902000
vn 0.01461567 -0.98894200 -0.14758050
vn 0.73373480 0.06171605 -0.67662720
vn 0.34832300 0.91645560 0.19692680
vn 0.07335252 0.92539880 -0.37182840
vn 0.98863600 0.05975929 0.13794080
vn 0.98860900 -0.05936822 0.13830270
vn 0.73429510 -0.06133129 -0.67605420
vn 0.07409792 -0.92523990 -0.37207620
vn 0.34778480 -0.91679920 0.19627780
vn -0.27402850 0.52976940 -0.80265350
vn 0.00916907 0.05352548 -0.99852440
vn 0.01373386 0.99023780 -0.13871050
vn -0.02553535 0.99049000 -0.13519500
vn -0.11690840 0.76071940 0.63846560
vn 0.01478631 0.99043880 0.13715870
vn 0.01809297 0.05410561 0.99837130
vn -0.01497559 0.05190052 0.99853990
vn -0.02513771 -0.99053530 -0.13493640
vn 0.01414126 -0.99026350 -0.13848530
vn 0.00919152 -0.05384770 -0.99850680
vn -0.27380850 -0.53009590 -0.80251310
vn -0.01495171 -0.05161590 0.99855510
vn 0.01811498 -0.05381462 0.99838660
vn 0.01521048 -0.99039780 0.13740790
vn -0.11651370 -0.76073700 0.63851680
vn 0.01520536 -0.99988270 0.00187198
vn -0.68786240 -0.71609370 0.11855510
vn -0.43835680 -0.02551114 0.89843900
vn 0.02792631 -0.05854351 0.99789420
vn 0.70119380 -0.70280680 0.11995790
vn 0.01521048 -0.99039780 0.13740790
vn 0.01811498 -0.05381462 0.99838660
vn 0.45904140 -0.02498589 0.88806340
vn 0.45906750 0.02544464 0.88803700
vn 0.01809297 0.05410561 0.99837130
vn 0.01478631 0.99043880 0.13715870
vn 0.70093720 0.70315710 0.11940360
vn -0.01497559 0.05190052 0.99853990
vn -0.01495171 -0.05161590 0.99855510
vn -0.68808500 0.71592720 0.11826810
vn 0.01479672 0.99988910 0.00166411
vn 0.02789695 0.05883035 0.99787810
vn -0.43841760 0.02568210 0.89840440
vn 0.45550330 -0.02551686 -0.88986830
vn 0.01414126 -0.99026350 -0.13848530
vn 0.70096350 -0.70386840 -0.11497520
vn 0.00919152 -0.05384770 -0.99850680
vn 0.00916907 0.05352548 -0.99852440
vn 0.45549090 0.02540959 -0.88987770
vn 0.00363468 -0.00017471 -0.99999340
vn 0.00363468 -0.00017471 -0.99999340
vn 0.70073210 0.70405490 -0.11524420
vn 0.01373386 0.99023780 -0.13871050
vn -0.00019924 1.00000000 -0.00008327
vn 0.70073210 0.70405490 -0.11524420
vn 0.70093720 0.70315710 0.11940360
vn 0.00021093 -1.00000000 0.00014277
vn 0.70119380 -0.70280680 0.11995790
vn 0.70096350 -0.70386840 -0.11497520
vn 0.05412927 -0.06040994 0.99670490
vn 0.05410303 0.06071935 0.99668760
vn 0.14071170 0.06995140 0.98757640
vn 0.14074560 -0.06956697 0.98759870
vn 0.35406960 0.08165289 0.93164780
vn 0.35410370 -0.08120497 0.93167400
vn 0.01520536 -0.99988270 0.00187198
vn 0.01461567 -0.98894200 -0.14758050
vn -0.68898300 -0.71493830 -0.11902000
vn -0.68786240 -0.71609370 0.11855510
vn -0.68808500 0.71592720 0.11826810
vn -0.68928010 0.71460070 -0.11932620
vn 0.01420344 0.98888780 -0.14798350
vn 0.01479672 0.99988910 0.00166411
vn 0.03219749 0.99948150 -0.00046246
vn 0.03288019 0.99945920 -0.00049274
vn 0.04888088 0.99879970 -0.00312687
vn 0.07404390 0.98096420 0.17951750
vn 0.07755288 0.99690610 -0.01279548
vn 0.16445410 0.96381150 0.20981490
vn 0.34832300 0.91645560 0.19692680
vn 0.07335252 0.92539880 -0.37182840
vn -0.18025930 0.07389513 -0.98083950
vn 0.73373480 0.06171605 -0.67662720
vn -0.18866160 0.08581187 -0.97828580
vn 0.66905210 -0.07647005 0.73927090
vn 0.66897000 0.07701977 0.73928820
vn 0.16445410 0.96381150 0.20981490
vn 0.35406960 0.08165289 0.93164780
vn 0.35410370 -0.08120497 0.93167400
vn 0.73429510 -0.06133129 -0.67605420
vn -0.18036300 -0.07401022 -0.98081170
vn 0.07409792 -0.92523990 -0.37207620
vn -0.08450142 -0.69973150 -0.70939080
vn -0.18868000 -0.08591346 -0.97827340
vn -0.09082935 -0.07155176 -0.99329270
vn -0.03334804 -0.70576080 -0.70766490
vn 0.02679265 -0.98745490 -0.15561170
vn -0.00494276 -0.70740500 -0.70679120
vn 0.01461567 -0.98894200 -0.14758050
vn -0.02041529 -0.06015582 -0.99798030
vn -0.01497559 0.05190052 0.99853990
vn -0.99351660 -0.04771547 0.10318990
vn -0.01495171 -0.05161590 0.99855510
vn -0.11651370 -0.76073700 0.63851680
vn 0.14071170 0.06995140 0.98757640
vn 0.35406960 0.08165289 0.93164780
vn 0.06219652 0.70452320 0.70695020
vn 0.05410303 0.06071935 0.99668760
vn 0.04045592 0.70548210 0.70757220
vn 0.02789695 0.05883035 0.99787810
vn -0.03359897 0.70567860 -0.70773500
vn -0.00451911 0.70690060 -0.70729840
vn -0.00525397 0.70691270 -0.70728130
vn -0.09085012 0.07128257 -0.99331020
vn -0.08430061 0.70046100 -0.70869450
vn 0.16478830 -0.96374400 0.20986280
vn 0.16478830 -0.96374400 0.20986280
vn 0.34778480 -0.91679920 0.19627780
vn 0.07804912 -0.99687190 -0.01243908
vn 0.04930925 -0.99877960 -0.00280864
vn 0.07444897 -0.98088830 0.17976490
vn 0.35410370 -0.08120497 0.93167400
vn 0.14074560 -0.06956697 0.98759870
vn 0.05412927 -0.06040994 0.99670490
vn 0.06248240 -0.70438840 0.70705930
vn 0.02792631 -0.05854351 0.99789420
vn 0.04074778 -0.70531450 0.70772240
vn 0.03261574 -0.99946790 -0.00021513
vn 0.01520536 -0.99988270 0.00187198
vn -0.02043999 0.05989536 -0.99799540
vn 0.77232380 0.31347570 0.55249330
vn 0.80388800 0.00548931 0.59475540
vn 0.01193544 0.00012903 0.99992880
vn 0.00722060 0.32194590 0.94673050
vn 0.00722060 0.32194590 0.94673050
vn -0.00644498 0.48721570 0.87325780
vn -0.19049630 0.71318830 0.67459140
vn 0.11126440 0.71203040 0.69327710
vn 0.77232380 0.31347570 0.55249330
vn 0.00741517 -0.32162040 0.94683960
vn 0.01283521 0.28187650 0.95936480
vn 0.80380200 -0.00517112 0.59487440
vn 0.77242700 -0.31285910 0.55269860
vn -0.19339560 -0.70913660 0.67802910
vn -0.00639993 -0.48666050 0.87356780
vn 0.84991680 0.00013513 -0.52691690
vn 0.84990390 0.00011201 -0.52693750
vn 0.84991680 0.00013513 -0.52691690
vn 0.84990390 0.00011201 -0.52693760
vn 0.84989540 0.00009656 -0.52695150
vn 0.84989540 0.00009656 -0.52695140
vn 0.02028688 -0.98499970 -0.17135930
vn 0.01616429 -0.99982870 0.00901247
vn 0.00021064 -1.00000000 0.00010561
vn 0.00021351 -1.00000000 0.00015000
vn 0.01642827 -0.99981650 0.00986170
vn 0.00021053 -1.00000000 0.00030696
vn 0.00021053 -1.00000000 0.00030696
vn -0.17727040 0.64328860 -0.74481860
vn 0.00732502 0.72825090 -0.68527150
vn 0.01999849 0.98635430 -0.16341760
vn -0.01589204 0.99161670 -0.12823380
vn 0.00380331 -0.98258830 0.18575710
vn 0.02158418 -0.98198580 0.18771790
vn 0.00208983 -0.15229980 0.98833220
vn 0.01249592 -0.71257430 0.70148530
vn 0.21942160 -0.96331850 0.15450460
vn 0.45117990 -0.81509170 0.36340370
vn 0.14490980 -0.96355870 0.22484620
vn 0.46668340 -0.80911350 0.35713030
vn 0.40296890 -0.53253980 0.74432360
vn 0.02158418 -0.98198580 0.18771790
vn 0.70656750 -0.70762830 0.00496096
vn 0.99017410 0.00025893 0.13984070
vn 0.99999340 0.00033440 0.00362802
vn 0.99999320 0.00024315 0.00367486
vn 0.99999320 0.00019103 0.00370162
vn 0.69001700 0.00037617 0.72379300
vn 0.67413510 0.03235025 0.73789930
vn 0.12639120 0.01274483 0.99189850
vn 0.24190180 0.00025507 0.97030070
vn 0.66156610 -0.05183092 0.74809340
vn 0.12089740 -0.01891308 0.99248490
vn 0.70613290 0.70806250 0.00485498
vn 0.02069660 0.99122870 0.13052700
vn 0.02363004 0.99972080 0.00002821
vn 0.00882943 0.69916930 0.71490160
vn 0.01283521 0.28187650 0.95936480
vn 0.00201454 0.15290730 0.98823850
vn 0.00333892 0.98242710 0.18661670
vn 0.44846470 0.81669760 0.36315910
vn 0.21813430 0.96372970 0.15376060
vn 0.46499960 0.81071820 0.35568410
vn 0.40233430 0.53350660 0.74397430
vn -0.02267514 0.97756680 0.20940150
vn 0.04994107 0.99768270 0.04620784
vn 0.00126592 0.99542660 0.09552196
vn 0.02363004 0.99972080 0.00002821
vn 0.54406570 0.74437100 0.38717480
vn 0.02069660 0.99122870 0.13052700
vn 0.00779245 0.71657860 0.69746290
vn 0.20726720 0.58683710 0.78272760
vn -0.42881850 -0.72298870 0.54166600
vn 0.05073738 -0.99762640 0.04655619
vn 0.00169021 -0.99538390 0.09595848
vn 0.02111599 -0.99112460 0.13124820
vn -0.16015290 0.00013357 0.98709230
vn -0.16012550 0.00011164 0.98709670
vn -0.45530310 0.00004362 0.89033650
vn -0.49363480 0.00004039 0.86966930
vn -0.16019910 0.00017041 0.98708470
vn -0.61703370 -0.00000086 0.78693670
vn -0.45063180 0.00006876 0.89271000
vn -0.61698620 -0.00000080 0.78697400
vn -0.61690280 -0.00000069 0.78703930
vn 0.30877460 0.12335450 0.94310230
vn 0.00803087 -0.71493320 0.69914670
vn 0.13021390 -0.63839040 0.75861850
vn 0.54438330 -0.74380740 0.38781120
vn 0.54406570 0.74437100 0.38717480
vn 0.30877460 0.12335450 0.94310230
vn -0.02267514 0.97756680 0.20940150
vn 0.04994107 0.99768270 0.04620784
vn 0.23169570 0.00019423 0.97278830
vn 0.08693044 0.20409010 0.97508470
vn 0.30877460 0.12335450 0.94310230
vn 0.23169580 0.00019425 0.97278830
vn 0.00530719 -0.30969400 0.95082150
vn 0.35307780 -0.19833840 0.91432930
vn 0.01510220 0.00014795 0.99988590
vn 0.01498978 0.00016548 0.99988760
vn -0.00362867 0.00015957 0.99999340
vn -0.00362498 0.00014196 0.99999340
vn 0.01502603 0.00011713 0.99988710
vn -0.00361852 0.00011113 0.99999340
vn 0.00363523 -0.00014149 -0.99999340
vn 0.00363271 -0.00014300 -0.99999340
vn 0.00363523 -0.00014149 -0.99999340
vn 0.00363271 -0.00014300 -0.99999340
vn 0.00363103 -0.00014401 -0.99999340
vn 0.00363103 -0.00014401 -0.99999340
vn 0.90501650 0.00023799 0.42537640
vn 0.90499880 0.00027350 0.42541390
vn 0.78877930 0.00029803 0.61467660
vn 0.78874020 0.00026996 0.61472650
vn 0.90504750 0.00017582 0.42531060
vn 0.01498978 0.00016548 0.99988760
vn 0.78862110 0.00022086 0.61487950
vn 0.01510220 0.00014795 0.99988590
vn 0.01502603 0.00011713 0.99988710
vn 0.00208983 -0.15229980 0.98833220
vn -0.00644498 0.48721570 0.87325780
vn 0.12089740 -0.01891308 0.99248490
vn 0.02158418 -0.98198580 0.18771790
vn 0.66156610 -0.05183092 0.74809340
vn -0.28557540 0.03271394 0.95779770
vn 0.24190180 0.00025507 0.97030070
vn -0.84313760 0.08235593 0.53135350
vn -0.19049630 0.71318830 0.67459140
vn -0.83823560 -0.00011617 0.54530810
vn -0.20122880 0.00002124 0.97954430
vn -0.84535180 -0.05663628 0.53119930
vn 0.12639120 0.01274483 0.99189850
vn -0.29307480 -0.02255020 0.95582360
vn -0.19339560 -0.70913660 0.67802910
vn -0.00639993 -0.48666050 0.87356780
vn 0.00201454 0.15290730 0.98823850
vn 0.67413510 0.03235025 0.73789930
vn 0.00882943 0.69916930 0.71490160
vn 0.77242700 -0.31285910 0.55269860
vn 0.80380200 -0.00517112 0.59487440
vn 0.86945500 -0.00043851 0.49401190
vn 0.82632090 -0.28682040 0.48469340
vn 0.87336220 0.00027232 0.48707120
vn 0.87335590 0.00032093 0.48708250
vn 0.87333940 0.00029759 0.48711210
vn 0.87334590 0.00030953 0.48710050
vn 0.87335590 0.00030828 0.48708250
vn 0.87333280 0.00030648 0.48712380
vn 0.87331960 0.00027809 0.48714760
vn 0.87331650 0.00028212 0.48715340
vn 0.87331830 0.00026065 0.48715010
vn 0.87331460 0.00026249 0.48715650
vn 0.87333540 0.00021987 0.48711930
vn 0.87333570 0.00027299 0.48711890
vn 0.86945370 0.00101058 0.49401360
vn 0.82632240 0.28689780 0.48464500
vn 0.77232380 0.31347570 0.55249330
vn 0.80388800 0.00548931 0.59475540
vn 0.11126440 0.71203040 0.69327710
vn 0.59013200 -0.75498280 0.28591140
vn 0.00711317 -0.71179930 -0.70234690
vn 0.02028688 -0.98499970 -0.17135930
vn 0.59057380 -0.73696120 0.32880180
vn 0.01616429 -0.99982870 0.00901247
vn 0.01642827 -0.99981650 0.00986170
vn 0.11170910 -0.71086160 0.69440390
vn -0.12002470 -0.65466390 -0.74633040
vn -0.99544730 -0.06963991 0.06507514
vn -0.01567254 -0.99146340 -0.12943980
vn -0.78011690 -0.00150671 -0.62563190
vn -0.78045540 -0.00149619 -0.62520960
vn -0.99681750 0.04668168 0.06461923
vn -0.17727040 0.64328860 -0.74481860
vn -0.01589204 0.99161670 -0.12823380
vn 0.00732502 0.72825090 -0.68527150
vn 0.59032420 0.75485660 0.28584740
vn 0.01999849 0.98635430 -0.16341760
vn 0.01574555 0.99983800 0.00872655
vn 0.59096220 0.73659730 0.32891960
vn 0.01601123 0.99982590 0.00958390
vn -0.84313760 0.08235593 0.53135350
vn -0.01904729 0.99979500 0.00686368
vn -0.19049630 0.71318830 0.67459140
vn -0.94052390 0.06405126 0.33363500
vn -0.97721200 0.05658076 0.20458600
vn -0.01713019 0.99984750 0.00339021
vn -0.69978920 -0.69882680 0.14810840
vn -0.97558810 -0.06634376 0.20934740
vn -0.98443970 -0.00020202 0.17572220
vn -0.93207710 -0.05423523 0.35817720
vn -0.66463900 -0.70452490 0.24879630
vn -0.19339560 -0.70913660 0.67802910
vn -0.84535180 -0.05663628 0.53119930
vn -0.83823560 -0.00011617 0.54530810
vn -0.93749430 -0.00013102 0.34800040
vn -0.97826220 -0.00016806 0.20737150
vn 0.01601123 0.99982590 0.00958390
vn -0.00021912 1.00000000 -0.00008580
vn -0.00021912 1.00000000 -0.00008580
vn -0.01904729 0.99979500 0.00686368
vn -0.01713019 0.99984750 0.00339021
vn 0.01574555 0.99983800 0.00872655
vn -0.00363283 0.00015779 0.99999340
vn -0.00363283 0.00015779 0.99999340
vn -0.00363625 0.00014742 0.99999340
vn -0.00363625 0.00014742 0.99999340
vn -0.00363953 0.00014633 0.99999340
vn -0.00363953 0.00014633 0.99999340
vn -0.00366963 0.00014550 0.99999330
vn -0.00366963 0.00014550 0.99999330
vn 0.51563260 -0.85680970 0.00039811
vn 0.51563260 -0.85680970 0.00039811
vn 0.08828171 -0.99609550 0.00007000
vn 0.08878358 -0.99605090 0.00007038
vn 0.51533560 0.85698840 0.00039200
vn 0.51533550 0.85698840 0.00039200
vn 0.08837404 0.99608740 0.00003920
vn 0.08786885 0.99613200 0.00003878
vn -0.99999960 -0.00019861 -0.00078615
vn -0.99999960 -0.00019861 -0.00078615
vn -0.99999960 -0.00019861 -0.00078615
vn -0.99999960 -0.00019861 -0.00078615
vn 0.99999980 0.00020713 0.00077720
vn 0.99999980 0.00020713 0.00077720
vn 0.99999980 0.00020713 0.00077720
vn 0.99999980 0.00020713 0.00077720
vn -0.08829438 0.99609440 -0.00010248
vn -0.51570530 0.85676580 -0.00043480
vn -0.51570530 0.85676580 -0.00043480
vn -0.08879513 0.99604990 -0.00010288
vn -0.08837618 -0.99608720 -0.00006681
vn -0.51530270 -0.85700810 -0.00040023
vn -0.51530280 -0.85700810 -0.00040023
vn -0.08786224 -0.99613260 -0.00006640
vn 0.08786885 0.99613200 0.00003878
vn 0.08837404 0.99608740 0.00003920
vn -0.08829438 0.99609440 -0.00010248
vn -0.08879513 0.99604990 -0.00010288
vn -0.08786224 -0.99613260 -0.00006640
vn 0.08878358 -0.99605090 0.00007038
vn 0.08828171 -0.99609550 0.00007000
vn -0.08837618 -0.99608720 -0.00006681
vn 0.89542860 0.00023125 0.44520510
vn 0.89542860 0.00023125 0.44520510
vn 0.89542860 0.00023125 0.44520510
vn 0.89542860 0.00023125 0.44520510
vn 0.13196060 0.98453780 0.11520230
vn 0.02608334 0.98443540 -0.17380040
vn 0.61967700 0.75026250 -0.23044850
vn 0.62062290 0.75513260 -0.21119150
vn 0.02761147 0.76227090 0.64666890
vn 0.02761147 0.76227090 0.64666890
vn 0.13196060 0.98453780 0.11520230
vn 0.02608334 0.98443540 -0.17380040
vn -0.54229480 0.44490250 0.71272590
vn -0.54232200 -0.44478860 0.71277620
vn -0.84934360 -0.02287126 0.52734460
vn -0.84936410 0.02266886 0.52732020
vn -0.54523060 0.73228920 -0.40801500
vn -0.38302410 0.45924880 -0.80148800
vn -0.09173781 0.02386890 -0.99549710
vn 0.13115720 -0.98454350 0.11606860
vn 0.02793412 -0.76218000 0.64676220
vn 0.02645136 -0.98467940 -0.17235640
vn -0.37899850 -0.45810840 -0.80405030
vn -0.54105000 -0.73751600 -0.40414720
vn -0.09173958 -0.02092404 -0.99556310
vn 0.13115720 -0.98454350 0.11606860
vn 0.02793412 -0.76218000 0.64676220
vn -0.09173958 -0.02092404 -0.99556310
vn -0.09173781 0.02386890 -0.99549710
vn -0.38302410 0.45924880 -0.80148800
vn -0.37899850 -0.45810840 -0.80405030
vn 0.00288425 0.00010160 0.99999580
vn 0.00288425 0.00010160 0.99999580
vn 0.00288425 0.00010160 0.99999580
vn 0.00288425 0.00010160 0.99999580
vn 0.93365590 -0.00018497 -0.35817120
vn 0.93365590 -0.00018497 -0.35817110
vn 0.93365590 -0.00018497 -0.35817120
vn 0.93365590 -0.00018497 -0.35817120
vn -0.80377510 -0.00007771 -0.59493320
vn -0.80377510 -0.00007771 -0.59493320
vn -0.80377510 -0.00007771 -0.59493320
vn -0.80377510 -0.00007771 -0.59493320
vn -0.98690690 -0.04846830 -0.15383630
vn -0.02513771 -0.99053530 -0.13493640
vn -0.27380850 -0.53009590 -0.80251310
vn -0.98692890 0.04800415 -0.15384020
vn -0.27402850 0.52976940 -0.80265350
vt -143.72190000 0.95327880
vt -143.69550000 0.95327790
vt -143.69550000 0.94919210
vt -143.16250000 0.35530930
vt -143.16340000 0.59875920
vt -143.16000000 0.59847560
vt -143.26130000 0.34905340
vt -143.24800000 0.35998480
vt -143.25790000 0.34741790
vt -143.74870000 0.95630010
vt -143.73890000 0.95629960
vt -143.73660000 0.95252480
vt -143.74400000 0.95245580
vt -143.75970000 0.92053290
vt -143.75970000 0.87065010
vt -143.76320000 0.87065010
vt -143.06380000 0.41108650
vt -143.06610000 0.40680580
vt -143.06700000 0.41007660
vt -143.75970000 0.94901020
vt -143.76320000 0.94901020
vt -143.76320000 0.95253990
vt -143.34190000 0.35998720
vt -143.34070000 0.36470540
vt -143.33870000 0.36172450
vt -143.40050000 0.57053570
vt -143.33800000 0.57065600
vt -143.34250000 0.56626740
vt -143.58660000 0.79556790
vt -143.58140000 0.79878280
vt -143.58180000 0.79364060
vt -143.43420000 0.63926390
vt -143.42910000 0.63605510
vt -143.43380000 0.63412490
vt -143.83910000 0.08913890
vt -143.80530000 0.08450398
vt -143.83890000 0.08451143
vt -143.80520000 0.08913243
vt -143.80240000 0.10774720
vt -143.84180000 0.10775510
vt -143.84560000 0.16108480
vt -143.79860000 0.16107440
vt -143.85120000 0.29102670
vt -143.79300000 0.29101320
vt -143.78760000 0.48936460
vt -143.85650000 0.48937950
vt -143.85390000 0.49177130
vt -143.86040000 0.48939340
vt -143.85830000 0.49178520
vt -143.79010000 0.49175730
vt -143.78580000 0.49177030
vt -143.78370000 0.48937650
vt -143.22360000 0.62417750
vt -143.22930000 0.62917790
vt -143.22480000 0.62920910
vt -143.22720000 0.62406880
vt -143.22720000 0.58301920
vt -143.22360000 0.58292570
vt -143.22480000 0.57789300
vt -143.22930000 0.57792620
vt -143.91570000 0.64133020
vt -143.91620000 0.50170670
vt -143.92030000 0.50172140
vt -143.91970000 0.64134500
vt -143.94600000 0.64211850
vt -143.94420000 0.50180940
vt -143.94830000 0.50182410
vt -143.95000000 0.64213100
vt -143.59130000 0.69551500
vt -143.59080000 0.55648450
vt -143.59490000 0.55647190
vt -143.59540000 0.69550250
vt -143.56120000 0.69629980
vt -143.56290000 0.55658880
vt -143.56700000 0.55657210
vt -143.56520000 0.69628310
vt -143.75370000 0.46624860
vt -143.75160000 0.46863500
vt -143.74730000 0.46864790
vt -143.74980000 0.46626350
vt -143.75160000 0.46863500
vt -143.75380000 0.47102930
vt -143.74990000 0.47104420
vt -143.74730000 0.46864790
vt -143.68350000 0.46866280
vt -143.68090000 0.47105810
vt -143.67700000 0.47104420
vt -143.67920000 0.46865090
vt -143.68090000 0.60422600
vt -143.75000000 0.60421010
vt -143.67920000 0.46865090
vt -143.67710000 0.46626450
vt -143.68100000 0.46627640
vt -143.68350000 0.46866280
vt -143.79010000 0.49175730
vt -143.78360000 0.49415710
vt -143.78580000 0.49177030
vt -143.78750000 0.49414420
vt -143.85650000 0.49415810
vt -143.85390000 0.49177130
vt -143.78750000 0.62663400
vt -143.85660000 0.62664790
vt -143.85830000 0.49178520
vt -143.86040000 0.49417200
vt -143.94600000 0.64211850
vt -143.92120000 0.49920600
vt -143.94320000 0.49928780
vt -143.56520000 0.69628310
vt -143.56790000 0.55406120
vt -143.58990000 0.55397980
vt -143.74440000 0.26788600
vt -143.68630000 0.26789940
vt -143.69180000 0.13719650
vt -143.73880000 0.13718610
vt -143.69540000 0.08148503
vt -143.73520000 0.08147657
vt -143.56710000 0.55155860
vt -143.59080000 0.55146880
vt -143.58990000 0.55397980
vt -143.56790000 0.55406120
vt -143.94320000 0.49928780
vt -143.92120000 0.49920600
vt -143.92020000 0.49668440
vt -143.94410000 0.49677240
vt -143.93770000 0.28796180
vt -143.91650000 0.28755720
vt -143.90640000 0.15049090
vt -143.92490000 0.15037770
vt -143.89710000 0.09355360
vt -143.90860000 0.09199616
vt -143.89410000 0.07274106
vt -143.89030000 0.07383105
vt -143.88640000 0.07487705
vt -143.88920000 0.06999934
vt -143.89320000 0.09449476
vt -143.23360000 0.58272490
vt -143.23360000 0.62437620
vt -143.24610000 0.63266400
vt -143.25100000 0.62796620
vt -143.25100000 0.57912920
vt -143.64880000 0.05236878
vt -143.65160000 0.05725664
vt -143.64770000 0.05618373
vt -143.64080000 0.07596202
vt -143.64480000 0.07690474
vt -143.63570000 0.13319730
vt -143.63160000 0.13298940
vt -143.62150000 0.27028050
vt -143.62560000 0.27036030
vt -143.61770000 0.47975180
vt -143.62180000 0.47973920
vt -143.69140000 0.94919320
vt -143.69550000 0.87594940
vt -143.69140000 0.87595080
vt -143.69540000 0.87186310
vt -143.92900000 0.15006120
vt -143.91280000 0.09136313
vt -143.93770000 0.28796180
vt -143.94180000 0.28777310
vt -143.94410000 0.49677240
vt -143.94820000 0.49678500
vt -143.90640000 0.15049090
vt -143.91650000 0.28755720
vt -143.91240000 0.28763680
vt -143.90230000 0.15069630
vt -143.89710000 0.09355360
vt -143.24610000 0.57443160
vt -143.62940000 0.07439782
vt -143.64380000 0.05511504
vt -143.64080000 0.07596202
vt -143.63160000 0.13298940
vt -143.61300000 0.13287600
vt -143.62520000 0.07376793
vt -143.60890000 0.13256110
vt -143.59610000 0.27049680
vt -143.60020000 0.27068580
vt -143.58970000 0.47985680
vt -143.59380000 0.47984000
vt -143.60020000 0.27068580
vt -143.59380000 0.47984000
vt -143.91610000 0.49667180
vt -143.37160000 0.36476430
vt -143.37860000 0.36489880
vt -143.37860000 0.36896590
vt -143.37160000 0.36903810
vt -143.22850000 0.09313183
vt -143.22800000 0.24594100
vt -143.22470000 0.25129840
vt -143.22530000 0.09212267
vt -143.22620000 0.08885196
vt -143.47360000 0.36901610
vt -143.46670000 0.36896890
vt -143.46660000 0.36489080
vt -143.47360000 0.36474220
vt -143.06760000 0.56937400
vt -143.06430000 0.56399900
vt -143.84800000 0.87238190
vt -143.84360000 0.91663090
vt -143.84370000 0.87238280
vt -143.84800000 0.91663220
vt -143.84360000 0.98285080
vt -143.84790000 0.98285210
vt -143.15890000 0.35692460
vt -143.13190000 0.37165140
vt -143.13270000 0.59347680
vt -143.09540000 0.58470230
vt -143.09520000 0.39214540
vt -143.06700000 0.41007660
vt -143.06760000 0.56937400
vt -143.12900000 0.28100430
vt -143.12990000 0.03738887
vt -143.13350000 0.03900512
vt -143.13240000 0.28039520
vt -143.30610000 0.36358470
vt -143.30650000 0.50982990
vt -143.30310000 0.51338990
vt -143.30260000 0.36261610
vt -143.31000000 0.35959140
vt -143.30500000 0.35839780
vt -143.32860000 0.34905520
vt -143.33100000 0.34120190
vt -143.33200000 0.34742000
vt -143.78530000 0.95254490
vt -143.78530000 0.94909110
vt -143.76320000 0.92053290
vt -143.78530000 0.94909110
vt -143.78530000 0.92053450
vt -143.78540000 0.87057260
vt -143.78530000 0.92053450
vt -143.78540000 0.87057260
vt -143.78880000 0.86724360
vt -143.78880000 0.92053190
vt -143.78530000 0.94909110
vt -143.78880000 0.95242170
vt -143.78540000 0.87057260
vt -143.76330000 0.86712220
vt -143.78540000 0.86712560
vt -143.28340000 0.50984790
vt -143.28730000 0.36263480
vt -143.28680000 0.51340630
vt -143.28380000 0.36358280
vt -143.28490000 0.35840350
vt -143.27980000 0.35958690
vt -143.25890000 0.34119070
vt -143.25790000 0.34741790
vt -143.25120000 0.36172020
vt -143.26010000 0.36605570
vt -143.26210000 0.37061210
vt -143.28340000 0.50984790
vt -143.25590000 0.36786830
vt -143.26150000 0.50970210
vt -143.25850000 0.37200170
vt -143.25800000 0.50969170
vt -143.33200000 0.34742000
vt -143.32980000 0.36605730
vt -143.32780000 0.37061100
vt -143.32840000 0.50968620
vt -143.80100000 0.92389300
vt -143.80100000 0.86728140
vt -143.80740000 0.87352220
vt -143.80740000 0.92389430
vt -143.80110000 0.95889620
vt -143.82020000 0.87344850
vt -143.80740000 0.95265250
vt -143.82020000 0.92389170
vt -143.82020000 0.95271500
vt -143.24910000 0.36470360
vt -143.33140000 0.37202120
vt -143.33190000 0.50967370
vt -143.33400000 0.36786960
vt -143.74410000 0.86720650
vt -143.73660000 0.86713630
vt -143.73890000 0.86336560
vt -143.74870000 0.86336270
vt -143.82020000 0.92389170
vt -143.82020000 0.87344850
vt -143.82500000 0.87344930
vt -143.82510000 0.92388770
vt -143.82020000 0.95271500
vt -143.82510000 0.95271400
vt -143.64340000 0.70756730
vt -143.69040000 0.70754750
vt -143.69030000 0.83862350
vt -143.64340000 0.83863340
vt -143.61650000 0.70758120
vt -143.61660000 0.83863940
vt -143.26470000 0.03902818
vt -143.30540000 0.27922390
vt -143.26520000 0.27905430
vt -143.30530000 0.03903661
vt -143.36580000 0.27939450
vt -143.36600000 0.03905050
vt -143.73660000 0.92147150
vt -143.73660000 0.86713630
vt -143.74410000 0.86720650
vt -143.74400000 0.92147350
vt -143.73660000 0.95252480
vt -143.74700000 0.86715060
vt -143.74400000 0.95245580
vt -143.74700000 0.92146180
vt -143.74690000 0.95248360
vt -143.37860000 0.51429950
vt -143.37160000 0.52166860
vt -143.38210000 0.51762060
vt -143.38190000 0.51086690
vt -143.38520000 0.51416790
vt -143.37430000 0.52599760
vt -143.41240000 0.51759950
vt -143.37140000 0.53020830
vt -143.36820000 0.52702060
vt -143.41240000 0.53022430
vt -143.41240000 0.52599160
vt -143.47380000 0.53023240
vt -143.46320000 0.51757540
vt -143.47100000 0.52597860
vt -143.47710000 0.52701570
vt -143.47370000 0.52164850
vt -143.46680000 0.51428140
vt -143.46010000 0.51415290
vt -143.46340000 0.51084980
vt -143.94730000 0.87264740
vt -143.94730000 0.88020490
vt -143.92030000 0.88105440
vt -143.91730000 0.87258200
vt -143.87680000 0.87246920
vt -143.87690000 0.88114990
vt -143.84800000 0.87238190
vt -143.87690000 0.91663300
vt -143.92030000 0.93860540
vt -143.85700000 0.88114550
vt -143.84800000 0.91663220
vt -143.85680000 0.91663220
vt -143.84790000 0.98285210
vt -143.85670000 0.97409230
vt -143.87680000 0.98277070
vt -143.87690000 0.97409340
vt -143.92030000 0.97418940
vt -143.91720000 0.98265800
vt -143.94730000 0.98259260
vt -143.94720000 0.97506590
vt -143.94630000 0.98630130
vt -143.84800000 0.87238190
vt -143.84370000 0.87238280
vt -143.84750000 0.86893790
vt -143.87680000 0.87246920
vt -143.87650000 0.86893870
vt -143.91600000 0.86893870
vt -143.94630000 0.86894220
vt -143.81950000 0.73073910
vt -143.81570000 0.73073910
vt -143.81600000 0.72693400
vt -143.81570000 0.77265540
vt -143.81950000 0.77281840
vt -143.81580000 0.83563100
vt -143.81950000 0.83596530
vt -143.81600000 0.83943610
vt -143.84360000 0.98285080
vt -143.84790000 0.98285210
vt -143.84750000 0.98629830
vt -143.87650000 0.98630210
vt -143.87680000 0.98277070
vt -143.91590000 0.98630210
vt -143.71980000 0.83610420
vt -143.74940000 0.83945080
vt -143.72080000 0.83945660
vt -143.74850000 0.83600440
vt -143.78770000 0.83579130
vt -143.78790000 0.83944090
vt -143.78790000 0.72693790
vt -143.78770000 0.73059210
vt -143.81570000 0.77265540
vt -143.74850000 0.73042060
vt -143.74940000 0.72694220
vt -143.72070000 0.72695620
vt -143.71990000 0.73042110
vt -143.71990000 0.79379700
vt -143.74850000 0.79374390
vt -143.78770000 0.77265980
vt -143.19710000 0.07420106
vt -143.22530000 0.09212267
vt -143.22470000 0.25129840
vt -143.19690000 0.26662680
vt -143.15970000 0.27539960
vt -143.16040000 0.05372237
vt -143.42930000 0.04146567
vt -143.53340000 0.04144286
vt -143.55320000 0.07432941
vt -143.40950000 0.07435916
vt -143.40960000 0.26459810
vt -143.55320000 0.26456730
vt -143.42940000 0.29748220
vt -143.53340000 0.29746030
vt -143.52050000 0.37614440
vt -143.50050000 0.37614500
vt -143.50030000 0.35393890
vt -143.52040000 0.35393950
vt -143.50040000 0.49289090
vt -143.52050000 0.49289030
vt -143.52040000 0.51508520
vt -143.50030000 0.51508270
vt -143.52960000 0.49287330
vt -143.52960000 0.37613350
vt -143.54970000 0.37613240
vt -143.54970000 0.49287050
vt -143.50040000 0.49289090
vt -143.50050000 0.37614500
vt -143.52050000 0.37614440
vt -143.52050000 0.49289030
vt -143.52950000 0.51508160
vt -143.52960000 0.49287330
vt -143.54970000 0.49287050
vt -143.54960000 0.51507790
vt -143.54960000 0.35394190
vt -143.54970000 0.37613240
vt -143.52960000 0.37613350
vt -143.52950000 0.35394190
vt -143.18700000 0.34936090
vt -143.20480000 0.34942840
vt -143.20410000 0.53966450
vt -143.18630000 0.53960110
vt -143.21690000 0.53965780
vt -143.21620000 0.34942600
vt -143.23410000 0.34936250
vt -143.23470000 0.53959430
vt -143.40050000 0.63440910
vt -143.40050000 0.57053570
vt -143.40590000 0.57053120
vt -143.40590000 0.63441150
vt -143.40090000 0.63865760
vt -143.34250000 0.63864620
vt -143.33810000 0.63415860
vt -143.40050000 0.63440910
vt -143.40590000 0.63441150
vt -143.58640000 0.72653810
vt -143.58140000 0.72982780
vt -143.52410000 0.75013100
vt -143.61060000 0.93966110
vt -143.67140000 0.93964900
vt -143.67140000 0.94277750
vt -143.61060000 0.94278960
vt -143.58140000 0.79878280
vt -143.52040000 0.75360760
vt -143.51980000 0.74739990
vt -143.43420000 0.57035160
vt -143.42930000 0.56706600
vt -143.49150000 0.59064220
vt -143.49530000 0.59405850
vt -143.43420000 0.63926390
vt -143.49590000 0.58799580
vt -143.40090000 0.56628410
vt -143.40590000 0.57053120
vt -143.25990000 0.61493300
vt -143.25980000 0.53957380
vt -143.26730000 0.53957500
vt -143.26720000 0.61493490
vt -143.67150000 0.87243060
vt -143.67140000 0.93964900
vt -143.61060000 0.93966110
vt -143.61040000 0.87244370
vt -143.33810000 0.63415860
vt -143.33800000 0.57065600
vt -143.40050000 0.57053570
vt -143.40050000 0.63440910
vt -143.32190000 0.53945810
vt -143.32190000 0.61493900
vt -143.26720000 0.61493490
vt -143.26730000 0.53957500
vt -143.72190000 0.87594360
vt -143.72190000 0.87185910
vt -143.72600000 0.87594360
vt -143.72190000 0.94918970
vt -143.72600000 0.94918970
f 3/3/3 2/2/2 1/1/1
f 6/6/6 5/5/5 4/4/4
f 9/9/9 8/8/8 7/7/7
f 12/12/12 11/11/11 10/10/10
f 13/13/13 12/12/12 10/10/10
f 16/16/16 15/15/15 14/14/14
f 19/19/19 18/18/18 17/17/17
f 22/22/22 21/21/21 20/20/20
f 25/25/25 24/24/24 23/23/23
f 28/28/28 27/27/27 26/26/26
f 31/31/31 30/30/30 29/29/29
f 34/34/34 33/33/33 32/32/32
f 37/37/37 36/36/36 35/35/35
f 36/36/36 38/38/38 35/35/35
f 35/35/35 38/38/38 39/39/39
f 40/40/40 35/35/35 39/39/39
f 40/40/40 39/39/39 41/41/41
f 39/39/39 42/42/42 41/41/41
f 43/43/43 41/41/41 42/42/42
f 44/44/44 43/43/43 42/42/42
f 44/44/44 45/45/45 43/43/43
f 45/45/45 46/46/46 43/43/43
f 47/47/47 46/46/46 45/45/45
f 46/46/46 47/47/47 48/48/48
f 47/47/47 49/49/49 48/48/48
f 50/50/50 47/47/47 45/45/45
f 51/51/51 50/50/50 45/45/45
f 52/52/52 51/51/51 45/45/45
f 55/55/55 54/54/54 53/53/53
f 54/54/54 56/56/56 53/53/53
f 56/56/56 57/57/57 53/53/53
f 57/57/57 58/58/58 53/53/53
f 59/59/59 58/58/58 57/57/57
f 60/60/60 59/59/59 57/57/57
f 63/63/63 62/62/62 61/61/61
f 64/64/64 63/63/63 61/61/61
f 67/67/67 66/66/66 65/65/65
f 68/68/68 67/67/67 65/65/65
f 71/71/71 70/70/70 69/69/69
f 72/72/72 71/71/71 69/69/69
f 75/75/75 74/74/74 73/73/73
f 76/76/76 75/75/75 73/73/73
f 79/79/79 78/78/78 77/77/77
f 80/80/80 79/79/79 77/77/77
f 83/83/83 82/82/82 81/81/81
f 84/84/84 83/83/83 81/81/81
f 83/83/83 84/84/84 85/85/85
f 86/86/86 83/83/83 85/85/85
f 87/87/87 86/86/86 85/85/85
f 88/88/88 87/87/87 85/85/85
f 86/86/86 89/89/89 83/83/83
f 89/89/89 90/90/90 83/83/83
f 93/93/93 92/92/92 91/91/91
f 94/94/94 93/93/93 91/91/91
f 97/97/97 96/96/96 95/95/95
f 96/96/96 98/98/98 95/95/95
f 98/98/98 99/99/99 95/95/95
f 99/99/99 100/100/100 95/95/95
f 98/98/98 101/101/101 99/99/99
f 101/101/101 102/102/102 99/99/99
f 100/100/100 99/99/99 103/103/103
f 99/99/99 104/104/104 103/103/103
f 64/64/64 105/105/105 66/66/66
f 63/63/63 64/64/64 66/66/66
f 106/106/106 63/63/63 66/66/66
f 107/107/107 106/106/106 66/66/66
f 108/108/108 69/69/69 70/70/70
f 75/75/75 108/108/108 70/70/70
f 75/75/75 70/70/70 109/109/109
f 70/70/70 110/110/110 109/109/109
f 94/94/94 79/79/79 93/93/93
f 79/79/79 80/80/80 93/93/93
f 93/93/93 80/80/80 111/111/111
f 112/112/112 93/93/93 111/111/111
f 112/112/112 111/111/111 113/113/113
f 111/111/111 114/114/114 113/113/113
f 113/113/113 114/114/114 115/115/115
f 114/114/114 116/116/116 115/115/115
f 119/119/119 118/118/118 117/117/117
f 120/120/120 119/119/119 117/117/117
f 123/123/123 122/122/122 121/121/121
f 124/124/124 123/123/123 121/121/121
f 123/123/123 124/124/124 125/125/125
f 126/126/126 123/123/123 125/125/125
f 126/126/126 125/125/125 127/127/127
f 125/125/125 128/128/128 127/127/127
f 127/127/127 128/128/128 129/129/129
f 128/128/128 130/130/130 129/129/129
f 130/130/130 131/131/131 129/129/129
f 131/131/131 132/132/132 129/129/129
f 132/132/132 134/134/134 133/133/133
f 132/132/132 133/133/133 135/135/135
f 136/136/136 60/60/60 57/57/57
f 136/136/136 57/57/57 56/56/56
f 137/137/137 136/136/136 56/56/56
f 54/54/54 137/137/137 56/56/56
f 137/137/137 54/54/54 138/138/138
f 139/139/139 137/137/137 138/138/138
f 136/136/136 137/137/137 139/139/139
f 140/140/140 136/136/136 139/139/139
f 143/143/143 142/142/142 141/141/141
f 142/142/142 143/143/143 144/144/144
f 145/145/145 142/142/142 144/144/144
f 145/145/145 144/144/144 146/146/146
f 144/144/144 147/147/147 146/146/146
f 147/147/147 148/148/148 146/146/146
f 148/148/148 149/149/149 146/146/146
f 148/148/148 150/150/150 149/149/149
f 150/150/150 151/151/151 149/149/149
f 3/3/3 152/152/152 2/2/2
f 3/3/3 153/153/153 152/152/152
f 153/153/153 154/154/154 152/152/152
f 153/153/153 155/155/155 154/154/154
f 157/157/157 130/130/130 156/156/156
f 130/130/130 128/128/128 156/156/156
f 128/128/128 158/158/158 156/156/156
f 158/158/158 159/159/159 156/156/156
f 158/158/158 160/160/160 159/159/159
f 160/160/160 161/161/161 159/159/159
f 164/164/164 163/163/163 162/162/162
f 165/165/165 164/164/164 162/162/162
f 135/135/135 165/165/165 162/162/162
f 166/166/166 135/135/135 162/162/162
f 166/166/166 132/132/132 135/135/135
f 60/60/60 136/136/136 140/140/140
f 167/167/167 60/60/60 140/140/140
f 143/143/143 169/169/169 168/168/168
f 170/170/170 143/143/143 168/168/168
f 171/171/171 170/170/170 168/168/168
f 172/172/172 171/171/171 168/168/168
f 168/168/168 173/173/173 172/172/172
f 173/173/173 174/174/174 172/172/172
f 174/174/174 175/175/175 172/172/172
f 148/148/148 171/171/171 172/172/172
f 175/175/175 176/176/176 172/172/172
f 175/175/175 177/177/177 176/176/176
f 177/177/177 178/178/178 176/176/176
f 179/179/179 148/148/148 172/172/172
f 179/179/179 180/180/180 148/148/148
f 180/180/180 150/150/150 148/148/148
f 181/181/181 123/123/123 163/163/163
f 164/164/164 181/181/181 163/163/163
f 184/184/184 183/183/183 182/182/182
f 185/185/185 184/184/184 182/182/182
f 188/188/188 187/187/187 186/186/186
f 189/189/189 188/188/188 186/186/186
f 189/189/189 186/186/186 190/190/190
f 193/193/193 192/192/192 191/191/191
f 194/194/194 193/193/193 191/191/191
f 196/196/196 195/195/195 19/19/19
f 17/17/17 196/196/196 19/19/19
f 199/199/199 198/198/198 197/197/197
f 198/198/198 200/200/200 197/197/197
f 198/198/198 201/201/201 200/200/200
f 201/201/201 202/202/202 200/200/200
f 203/203/203 6/6/6 4/4/4
f 6/6/6 203/203/203 204/204/204
f 205/205/205 6/6/6 204/204/204
f 206/206/206 205/205/205 204/204/204
f 207/207/207 206/206/206 204/204/204
f 206/206/206 207/207/207 208/208/208
f 209/209/209 206/206/206 208/208/208
f 212/212/212 211/211/211 210/210/210
f 213/213/213 212/212/212 210/210/210
f 216/216/216 215/215/215 214/214/214
f 217/217/217 216/216/216 214/214/214
f 217/217/217 214/214/214 218/218/218
f 219/219/219 217/217/217 218/218/218
f 218/218/218 220/220/220 219/219/219
f 220/220/220 221/221/221 219/219/219
f 222/222/222 221/221/221 220/220/220
f 21/21/21 22/22/22 223/223/223
f 224/224/224 21/21/21 223/223/223
f 21/21/21 225/225/225 20/20/20
f 225/225/225 14/14/14 20/20/20
f 225/225/225 21/21/21 226/226/226
f 225/225/225 16/16/16 14/14/14
f 227/227/227 225/225/225 226/226/226
f 16/16/16 225/225/225 227/227/227
f 228/228/228 16/16/16 227/227/227
f 231/231/231 230/230/230 229/229/229
f 232/232/232 231/231/231 229/229/229
f 232/232/232 229/229/229 233/233/233
f 234/234/234 232/232/232 233/233/233
f 237/237/237 236/236/236 235/235/235
f 236/236/236 16/16/16 235/235/235
f 16/16/16 236/236/236 15/15/15
f 240/240/240 239/239/239 238/238/238
f 239/239/239 241/241/241 238/238/238
f 239/239/239 242/242/242 241/241/241
f 242/242/242 243/243/243 241/241/241
f 242/242/242 244/244/244 243/243/243
f 244/244/244 7/7/7 243/243/243
f 7/7/7 244/244/244 245/245/245
f 7/7/7 246/246/246 243/243/243
f 246/246/246 247/247/247 243/243/243
f 243/243/243 247/247/247 241/241/241
f 247/247/247 248/248/248 241/241/241
f 241/241/241 248/248/248 249/249/249
f 248/248/248 247/247/247 250/250/250
f 248/248/248 251/251/251 249/249/249
f 252/252/252 248/248/248 250/250/250
f 251/251/251 248/248/248 253/253/253
f 248/248/248 252/252/252 253/253/253
f 25/25/25 23/23/23 254/254/254
f 220/220/220 25/25/25 254/254/254
f 220/220/220 218/218/218 25/25/25
f 218/218/218 255/255/255 25/25/25
f 256/256/256 255/255/255 218/218/218
f 214/214/214 256/256/256 218/218/218
f 257/257/257 256/256/256 214/214/214
f 215/215/215 257/257/257 214/214/214
f 260/260/260 259/259/259 258/258/258
f 261/261/261 260/260/260 258/258/258
f 261/261/261 258/258/258 262/262/262
f 260/260/260 261/261/261 263/263/263
f 264/264/264 261/261/261 262/262/262
f 261/261/261 265/265/265 263/263/263
f 261/261/261 264/264/264 265/265/265
f 264/264/264 266/266/266 265/265/265
f 8/8/8 246/246/246 7/7/7
f 246/246/246 8/8/8 267/267/267
f 257/257/257 269/269/269 268/268/268
f 256/256/256 257/257/257 268/268/268
f 256/256/256 268/268/268 255/255/255
f 268/268/268 270/270/270 255/255/255
f 273/273/273 272/272/272 271/271/271
f 274/274/274 273/273/273 271/271/271
f 277/277/277 276/276/276 275/275/275
f 278/278/278 277/277/277 275/275/275
f 278/278/278 275/275/275 279/279/279
f 280/280/280 278/278/278 279/279/279
f 283/283/283 282/282/282 281/281/281
f 284/284/284 283/283/283 281/281/281
f 284/284/284 281/281/281 285/285/285
f 286/286/286 284/284/284 285/285/285
f 289/289/289 288/288/288 287/287/287
f 288/288/288 290/290/290 287/287/287
f 288/288/288 291/291/291 290/290/290
f 291/291/291 292/292/292 290/290/290
f 295/295/295 294/294/294 293/293/293
f 296/296/296 295/295/295 293/293/293
f 296/296/296 293/293/293 297/297/297
f 298/298/298 295/295/295 296/296/296
f 299/299/299 296/296/296 297/297/297
f 300/300/300 298/298/298 296/296/296
f 300/300/300 296/296/296 299/299/299
f 301/301/301 300/300/300 299/299/299
f 302/302/302 184/184/184 185/185/185
f 303/303/303 302/302/302 185/185/185
f 304/304/304 302/302/302 303/303/303
f 302/302/302 304/304/304 305/305/305
f 304/304/304 306/306/306 305/305/305
f 307/307/307 304/304/304 303/303/303
f 308/308/308 304/304/304 307/307/307
f 309/309/309 307/307/307 303/303/303
f 310/310/310 309/309/309 303/303/303
f 309/309/309 311/311/311 307/307/307
f 312/312/312 308/308/308 307/307/307
f 311/311/311 312/312/312 307/307/307
f 311/311/311 313/313/313 312/312/312
f 314/314/314 308/308/308 312/312/312
f 313/313/313 315/315/315 312/312/312
f 315/315/315 314/314/314 312/312/312
f 313/313/313 316/316/316 315/315/315
f 316/316/316 317/317/317 315/315/315
f 318/318/318 314/314/314 315/315/315
f 317/317/317 318/318/318 315/315/315
f 314/314/314 318/318/318 319/319/319
f 318/318/318 320/320/320 319/319/319
f 192/192/192 318/318/318 317/317/317
f 191/191/191 192/192/192 317/317/317
f 323/323/323 322/322/322 321/321/321
f 324/324/324 323/323/323 321/321/321
f 324/324/324 325/325/325 323/323/323
f 325/325/325 326/326/326 323/323/323
f 326/326/326 325/325/325 327/327/327
f 326/326/326 328/328/328 323/323/323
f 328/328/328 329/329/329 323/323/323
f 330/330/330 326/326/326 327/327/327
f 330/330/330 327/327/327 331/331/331
f 326/326/326 330/330/330 332/332/332
f 332/332/332 330/330/330 331/331/331
f 328/328/328 326/326/326 332/332/332
f 332/332/332 331/331/331 333/333/333
f 334/334/334 332/332/332 333/333/333
f 328/328/328 332/332/332 334/334/334
f 334/334/334 333/333/333 335/335/335
f 328/328/328 336/336/336 329/329/329
f 336/336/336 328/328/328 334/334/334
f 336/336/336 334/334/334 335/335/335
f 336/336/336 337/337/337 329/329/329
f 336/336/336 335/335/335 337/337/337
f 335/335/335 338/338/338 337/337/337
f 338/338/338 339/339/339 337/337/337
f 339/339/339 340/340/340 337/337/337
f 339/339/339 338/338/338 341/341/341
f 344/344/344 343/343/343 342/342/342
f 344/344/344 342/342/342 345/345/345
f 346/346/346 344/344/344 345/345/345
f 346/346/346 345/345/345 347/347/347
f 345/345/345 324/324/324 347/347/347
f 347/347/347 324/324/324 321/321/321
f 348/348/348 347/347/347 321/321/321
f 351/351/351 350/350/350 349/349/349
f 350/350/350 352/352/352 349/349/349
f 352/352/352 353/353/353 349/349/349
f 352/352/352 354/354/354 353/353/353
f 354/354/354 355/355/355 353/353/353
f 354/354/354 356/356/356 355/355/355
f 359/359/359 358/358/358 357/357/357
f 358/358/358 359/359/359 360/360/360
f 361/361/361 358/358/358 360/360/360
f 338/338/338 361/361/361 360/360/360
f 362/362/362 338/338/338 360/360/360
f 338/338/338 362/362/362 341/341/341
f 365/365/365 364/364/364 363/363/363
f 364/364/364 366/366/366 363/363/363
f 366/366/366 364/364/364 367/367/367
f 364/364/364 368/368/368 367/367/367
f 368/368/368 356/356/356 367/367/367
f 356/356/356 354/354/354 367/367/367
f 350/350/350 351/351/351 369/369/369
f 370/370/370 350/350/350 369/369/369
f 371/371/371 350/350/350 370/370/370
f 372/372/372 370/370/370 369/369/369
f 373/373/373 372/372/372 369/369/369
f 372/372/372 373/373/373 374/374/374
f 375/375/375 372/372/372 374/374/374
f 372/372/372 375/375/375 376/376/376
f 377/377/377 372/372/372 376/376/376
f 370/370/370 372/372/372 377/377/377
f 377/377/377 376/376/376 363/363/363
f 366/366/366 377/377/377 363/363/363
f 378/378/378 370/370/370 377/377/377
f 378/378/378 377/377/377 366/366/366
f 378/378/378 371/371/371 370/370/370
f 367/367/367 378/378/378 366/366/366
f 378/378/378 367/367/367 371/371/371
f 367/367/367 354/354/354 371/371/371
f 381/381/381 380/380/380 379/379/379
f 382/382/382 381/381/381 379/379/379
f 383/383/383 382/382/382 379/379/379
f 384/384/384 383/383/383 379/379/379
f 384/384/384 212/212/212 383/383/383
f 212/212/212 213/213/213 383/383/383
f 387/387/387 386/386/386 385/385/385
f 388/388/388 387/387/387 385/385/385
f 387/387/387 388/388/388 389/389/389
f 390/390/390 387/387/387 389/389/389
f 389/389/389 391/391/391 390/390/390
f 391/391/391 392/392/392 390/390/390
f 395/395/395 394/394/394 393/393/393
f 396/396/396 395/395/395 393/393/393
f 399/399/399 398/398/398 397/397/397
f 400/400/400 399/399/399 397/397/397
f 403/403/403 402/402/402 401/401/401
f 404/404/404 403/403/403 401/401/401
f 407/407/407 406/406/406 405/405/405
f 408/408/408 407/407/407 405/405/405
f 411/411/411 410/410/410 409/409/409
f 412/412/412 411/411/411 409/409/409
f 415/415/415 414/414/414 413/413/413
f 416/416/416 415/415/415 413/413/413
f 419/419/419 418/418/418 417/417/417
f 420/420/420 419/419/419 417/417/417
f 423/423/423 422/422/422 421/421/421
f 424/424/424 423/423/423 421/421/421
f 427/427/427 426/426/426 425/425/425
f 428/428/428 427/427/427 425/425/425
f 431/431/431 430/430/430 429/429/429
f 432/432/432 431/431/431 429/429/429
f 429/429/429 433/433/433 432/432/432
f 31/31/31 29/29/29 434/434/434
f 435/435/435 31/31/31 434/434/434
f 436/436/436 31/31/31 435/435/435
f 439/439/439 438/438/438 437/437/437
f 440/440/440 439/439/439 437/437/437
f 31/31/31 436/436/436 441/441/441
f 436/436/436 442/442/442 441/441/441
f 443/443/443 442/442/442 436/436/436
f 445/445/445 33/33/33 444/444/444
f 33/33/33 34/34/34 444/444/444
f 34/34/34 446/446/446 444/444/444
f 447/447/447 446/446/446 34/34/34
f 448/448/448 447/447/447 34/34/34
f 446/446/446 447/447/447 449/449/449
f 450/450/450 28/28/28 26/26/26
f 450/450/450 26/26/26 451/451/451
f 454/454/454 453/453/453 452/452/452
f 455/455/455 454/454/454 452/452/452
f 458/458/458 457/457/457 456/456/456
f 459/459/459 458/458/458 456/456/456
f 462/462/462 461/461/461 460/460/460
f 463/463/463 462/462/462 460/460/460
f 466/466/466 465/465/465 464/464/464
f 467/467/467 466/466/466 464/464/464
f 155/155/155 153/153/153 468/468/468
f 469/469/469 155/155/155 468/468/468
f 468/468/468 153/153/153 3/3/3
f 468/468/468 470/470/470 469/469/469
f 471/471/471 468/468/468 3/3/3
f 470/470/470 468/468/468 471/471/471
f 471/471/471 3/3/3 1/1/1
f 472/472/472 470/470/470 471/471/471
f 471/471/471 1/1/1 472/472/472

