mtllib material.mtl
usemtl material_0
v 0.82217000 0.50077000 -0.24943000
v 0.82217000 0.70636000 0.23766000
v 0.82217000 0.70636000 -0.24943000
v 0.82217000 0.50077000 0.23766000
v 0.82217000 0.29518000 -0.24943000
v 0.82217000 0.29518000 0.23766000
v 0.82217000 0.08959000 -0.24943000
v 0.82217000 0.08959000 0.23766000
v 0.82217000 0.00001000 -0.24943000
v 0.82217000 0.00001000 0.23766000
v 0.41730000 0.28691000 0.23766000
v 0.41730000 0.28691000 -0.17291000
v 0.41730000 0.09786000 -0.17291000
v 0.41730000 0.09786000 0.23766000
v -0.00121000 0.50077000 -0.24943000
v 0.41048000 0.70636000 -0.24943000
v -0.00121000 0.70636000 -0.24943000
v 0.41048000 0.50077000 -0.24943000
v 0.82217000 0.70636000 -0.24943000
v -0.00121000 0.29518000 -0.24943000
v 0.82217000 0.50077000 -0.24943000
v 0.41048000 0.29518000 -0.24943000
v -0.00121000 0.08959000 -0.24943000
v 0.82217000 0.29518000 -0.24943000
v 0.41048000 0.08959000 -0.24943000
v -0.00121000 0.00001000 -0.24943000
v 0.82217000 0.08959000 -0.24943000
v 0.41048000 0.00001000 -0.24943000
v 0.82217000 0.00001000 -0.24943000
v 0.82217000 0.00001000 0.23766000
v 0.82217000 0.00001000 -0.24943000
v 0.41048000 0.00001000 -0.24943000
v 0.41048000 0.00001000 0.23766000
v -0.00121000 0.00001000 -0.24943000
v 0.41048000 0.00000000 0.24446000
v 0.82899000 0.00000000 0.24445000
v -0.00804000 0.00000000 0.24446000
v -0.00121000 0.00001000 0.23765000
v -0.00804000 0.00001000 -0.25623000
v 0.41048000 0.70636000 0.23766000
v 0.82217000 0.70636000 -0.24943000
v 0.82217000 0.70636000 0.23766000
v 0.41048000 0.70636000 -0.24943000
v -0.00121000 0.70636000 0.23765000
v -0.00121000 0.70636000 -0.24943000
v 0.41048000 0.00001000 0.23766000
v -0.00121000 0.00001000 0.23765000
v -0.00121000 0.08959000 0.23765000
v 0.41048000 0.08959000 0.23766000
v 0.82217000 0.00001000 0.23766000
v 0.82217000 0.08959000 0.23766000
v 0.40365000 0.09786000 0.23766000
v 0.00561000 0.09786000 0.23766000
v -0.00121000 0.29518000 0.23765000
v 0.40365000 0.28691000 0.23766000
v 0.00561000 0.28691000 0.23766000
v 0.41048000 0.29518000 0.23766000
v 0.41730000 0.09786000 0.23766000
v 0.41730000 0.28691000 0.23766000
v 0.81534000 0.09786000 0.23766000
v 0.81534000 0.28691000 0.23766000
v 0.82217000 0.29518000 0.23766000
v 0.40365000 0.30345000 0.23766000
v 0.00561000 0.30345000 0.23766000
v -0.00121000 0.50077000 0.23765000
v 0.40365000 0.49250000 0.23766000
v 0.00561000 0.49250000 0.23766000
v 0.41048000 0.50077000 0.23766000
v 0.41730000 0.30345000 0.23766000
v 0.41730000 0.49250000 0.23766000
v 0.81534000 0.30345000 0.23766000
v 0.81534000 0.49250000 0.23766000
v 0.82217000 0.50077000 0.23766000
v 0.40365000 0.50904000 0.23766000
v 0.00561000 0.50904000 0.23766000
v -0.00121000 0.70636000 0.23765000
v 0.00561000 0.69809000 0.23766000
v 0.41048000 0.70636000 0.23766000
v 0.40365000 0.69809000 0.23766000
v 0.81534000 0.50904000 0.23766000
v 0.81534000 0.69809000 0.23766000
v 0.41730000 0.50904000 0.23766000
v 0.82217000 0.70636000 0.23766000
v 0.41730000 0.69809000 0.23766000
v 0.41730000 0.50904000 0.23766000
v 0.41730000 0.50904000 -0.17291000
v 0.81534000 0.50904000 -0.17291000
v 0.81534000 0.50904000 0.23766000
v 0.41048000 0.00001000 -0.25623000
v 0.82899000 0.00001000 -0.25623000
v 0.82899000 0.08959000 -0.25623000
v 0.41048000 0.08959000 -0.25623000
v -0.00804000 0.00001000 -0.25623000
v -0.00804000 0.08959000 -0.25623000
v 0.82899000 0.00001000 -0.25623000
v 0.82899000 0.00000000 0.24445000
v 0.82899000 0.08959000 0.24445000
v 0.82899000 0.08959000 -0.25623000
v 0.41048000 0.00000000 0.24446000
v -0.00804000 0.00000000 0.24446000
v -0.00804000 0.08959000 0.24446000
v 0.41048000 0.08959000 0.24446000
v 0.82899000 0.00000000 0.24445000
v 0.82899000 0.08959000 0.24445000
v -0.00804000 0.00000000 0.24446000
v -0.00804000 0.00001000 -0.25623000
v -0.00804000 0.08959000 -0.25623000
v -0.00804000 0.08959000 0.24446000
v -0.00121000 0.08959000 0.23765000
v 0.41048000 0.08959000 0.24446000
v -0.00804000 0.08959000 0.24446000
v 0.41048000 0.08959000 0.23766000
v 0.82899000 0.08959000 0.24445000
v 0.82217000 0.08959000 0.23766000
v 0.82899000 0.08959000 -0.25623000
v 0.82217000 0.08959000 -0.24943000
v -0.00121000 0.00001000 -0.24943000
v 0.41048000 0.00001000 -0.25623000
v -0.00804000 0.00001000 -0.25623000
v 0.41048000 0.00001000 -0.24943000
v 0.82899000 0.00001000 -0.25623000
v 0.82217000 0.00001000 -0.24943000
v 0.82899000 0.00000000 0.24445000
v 0.82217000 0.00001000 0.23766000
v -0.00121000 0.08959000 -0.24943000
v -0.00121000 0.08959000 0.23765000
v -0.00804000 0.08959000 0.24446000
v -0.00804000 0.08959000 -0.25623000
v 0.41048000 0.08959000 -0.24943000
v 0.41048000 0.08959000 -0.25623000
v 0.82217000 0.08959000 -0.24943000
v 0.82899000 0.08959000 -0.25623000
v 0.41730000 0.30345000 0.23766000
v 0.41730000 0.30345000 -0.17291000
v 0.81534000 0.30345000 -0.17291000
v 0.81534000 0.30345000 0.23766000
v 0.00561000 0.50904000 0.23766000
v 0.00561000 0.50904000 -0.17291000
v 0.40365000 0.50904000 -0.17291000
v 0.40365000 0.50904000 0.23766000
v 0.41730000 0.09786000 0.23766000
v 0.41730000 0.09786000 -0.17291000
v 0.81534000 0.09786000 -0.17291000
v 0.81534000 0.09786000 0.23766000
v 0.41730000 0.69809000 0.23766000
v 0.41730000 0.69809000 -0.17291000
v 0.41730000 0.50904000 -0.17291000
v 0.41730000 0.50904000 0.23766000
v 0.40365000 0.50904000 -0.17291000
v 0.00561000 0.50904000 -0.17291000
v 0.00561000 0.69809000 -0.17291000
v 0.40365000 0.69809000 -0.17291000
v 0.81534000 0.50904000 -0.17291000
v 0.41730000 0.50904000 -0.17291000
v 0.41730000 0.69809000 -0.17291000
v 0.81534000 0.69809000 -0.17291000
v 0.81534000 0.09786000 -0.17291000
v 0.41730000 0.09786000 -0.17291000
v 0.41730000 0.28691000 -0.17291000
v 0.81534000 0.28691000 -0.17291000
v 0.81534000 0.30345000 -0.17291000
v 0.41730000 0.30345000 -0.17291000
v 0.41730000 0.49250000 -0.17291000
v 0.81534000 0.49250000 -0.17291000
v 0.40365000 0.09786000 -0.17291000
v 0.00561000 0.09786000 -0.17291000
v 0.00561000 0.28691000 -0.17291000
v 0.40365000 0.28691000 -0.17291000
v 0.40365000 0.30345000 -0.17291000
v 0.00561000 0.30345000 -0.17291000
v 0.00561000 0.49250000 -0.17291000
v 0.40365000 0.49250000 -0.17291000
v 0.81534000 0.49250000 0.23766000
v 0.81534000 0.49250000 -0.17291000
v 0.41730000 0.49250000 -0.17291000
v 0.41730000 0.49250000 0.23766000
v 0.81534000 0.28691000 0.23766000
v 0.81534000 0.28691000 -0.17291000
v 0.41730000 0.28691000 -0.17291000
v 0.41730000 0.28691000 0.23766000
v 0.00561000 0.09786000 0.23766000
v 0.00561000 0.09786000 -0.17291000
v 0.40365000 0.09786000 -0.17291000
v 0.40365000 0.09786000 0.23766000
v 0.00561000 0.49250000 0.23766000
v 0.00561000 0.49250000 -0.17291000
v 0.00561000 0.30345000 -0.17291000
v 0.00561000 0.30345000 0.23766000
v 0.00561000 0.28691000 0.23766000
v 0.00561000 0.28691000 -0.17291000
v 0.00561000 0.09786000 -0.17291000
v 0.00561000 0.09786000 0.23766000
v 0.40365000 0.69809000 0.23766000
v 0.40365000 0.69809000 -0.17291000
v 0.00561000 0.69809000 -0.17291000
v 0.00561000 0.69809000 0.23766000
v 0.40365000 0.30345000 0.23766000
v 0.40365000 0.30345000 -0.17291000
v 0.40365000 0.49250000 -0.17291000
v 0.40365000 0.49250000 0.23766000
v 0.81534000 0.69809000 0.23766000
v 0.81534000 0.69809000 -0.17291000
v 0.41730000 0.69809000 -0.17291000
v 0.41730000 0.69809000 0.23766000
v 0.40365000 0.09786000 0.23766000
v 0.40365000 0.09786000 -0.17291000
v 0.40365000 0.28691000 -0.17291000
v 0.40365000 0.28691000 0.23766000
v 0.00561000 0.69809000 0.23766000
v 0.00561000 0.69809000 -0.17291000
v 0.00561000 0.50904000 -0.17291000
v 0.00561000 0.50904000 0.23766000
v 0.81534000 0.30345000 0.23766000
v 0.81534000 0.30345000 -0.17291000
v 0.81534000 0.49250000 -0.17291000
v 0.81534000 0.49250000 0.23766000
v 0.00561000 0.30345000 0.23766000
v 0.00561000 0.30345000 -0.17291000
v 0.40365000 0.30345000 -0.17291000
v 0.40365000 0.30345000 0.23766000
v 0.81534000 0.50904000 0.23766000
v 0.81534000 0.50904000 -0.17291000
v 0.81534000 0.69809000 -0.17291000
v 0.81534000 0.69809000 0.23766000
v 0.81534000 0.09786000 0.23766000
v 0.81534000 0.09786000 -0.17291000
v 0.81534000 0.28691000 -0.17291000
v 0.81534000 0.28691000 0.23766000
v 0.40365000 0.28691000 0.23766000
v 0.40365000 0.28691000 -0.17291000
v 0.00561000 0.28691000 -0.17291000
v 0.00561000 0.28691000 0.23766000
v 0.40365000 0.50904000 0.23766000
v 0.40365000 0.50904000 -0.17291000
v 0.40365000 0.69809000 -0.17291000
v 0.40365000 0.69809000 0.23766000
v 0.41730000 0.49250000 0.23766000
v 0.41730000 0.49250000 -0.17291000
v 0.41730000 0.30345000 -0.17291000
v 0.41730000 0.30345000 0.23766000
v 0.40365000 0.49250000 0.23766000
v 0.40365000 0.49250000 -0.17291000
v 0.00561000 0.49250000 -0.17291000
v 0.00561000 0.49250000 0.23766000
v -0.00121000 0.50077000 -0.24943000
v -0.00121000 0.70636000 0.23765000
v -0.00121000 0.70636000 -0.24943000
v -0.00121000 0.50077000 0.23765000
v -0.00121000 0.29518000 -0.24943000
v -0.00121000 0.29518000 0.23765000
v -0.00121000 0.08959000 -0.24943000
v -0.00121000 0.08959000 0.23765000
v -0.00121000 0.00001000 -0.24943000
v -0.00121000 0.00001000 0.23765000
v -0.40608000 0.28691000 0.23765000
v -0.40608000 0.28691000 -0.17291000
v -0.40608000 0.09786000 -0.17291000
v -0.40608000 0.09786000 0.23765000
v -0.82459000 0.50077000 0.23766000
v -0.82459000 0.70636000 -0.24943000
v -0.82459000 0.70636000 0.23766000
v -0.82459000 0.50077000 -0.24943000
v -0.82459000 0.29518000 0.23766000
v -0.82459000 0.29518000 -0.24943000
v -0.82459000 0.08959000 0.23766000
v -0.82459000 0.08959000 -0.24943000
v -0.82459000 0.00001000 0.23766000
v -0.82459000 0.00001000 -0.24943000
v -0.82459000 0.50077000 -0.24943000
v -0.41290000 0.70636000 -0.24943000
v -0.82459000 0.70636000 -0.24943000
v -0.41290000 0.50077000 -0.24943000
v -0.00121000 0.70636000 -0.24943000
v -0.82459000 0.29518000 -0.24943000
v -0.00121000 0.50077000 -0.24943000
v -0.41290000 0.29518000 -0.24943000
v -0.82459000 0.08959000 -0.24943000
v -0.00121000 0.29518000 -0.24943000
v -0.41290000 0.08959000 -0.24943000
v -0.82459000 0.00001000 -0.24943000
v -0.00121000 0.08959000 -0.24943000
v -0.41290000 0.00001000 -0.24943000
v -0.00121000 0.00001000 -0.24943000
v -0.00121000 0.00001000 0.23765000
v -0.00121000 0.00001000 -0.24943000
v -0.41290000 0.00001000 -0.24943000
v -0.41290000 0.00001000 0.23765000
v -0.82459000 0.00001000 -0.24943000
v -0.41290000 0.00000000 0.24445000
v 0.00561000 0.00000000 0.24445000
v -0.83141000 0.00000000 0.24446000
v -0.82459000 0.00001000 0.23766000
v -0.83141000 0.00001000 -0.25623000
v -0.41290000 0.70636000 0.23765000
v -0.00121000 0.70636000 -0.24943000
v -0.00121000 0.70636000 0.23765000
v -0.41290000 0.70636000 -0.24943000
v -0.82459000 0.70636000 0.23766000
v -0.82459000 0.70636000 -0.24943000
v -0.41290000 0.00001000 0.23765000
v -0.82459000 0.00001000 0.23766000
v -0.82459000 0.08959000 0.23766000
v -0.41290000 0.08959000 0.23765000
v -0.00121000 0.00001000 0.23765000
v -0.00121000 0.08959000 0.23765000
v -0.41972000 0.09786000 0.23766000
v -0.81777000 0.09786000 0.23765000
v -0.82459000 0.29518000 0.23766000
v -0.41972000 0.28691000 0.23766000
v -0.81777000 0.28691000 0.23765000
v -0.41290000 0.29518000 0.23765000
v -0.40608000 0.09786000 0.23765000
v -0.40608000 0.28691000 0.23765000
v -0.00803000 0.09786000 0.23766000
v -0.00803000 0.28691000 0.23766000
v -0.00121000 0.29518000 0.23765000
v -0.41972000 0.30345000 0.23766000
v -0.81777000 0.30345000 0.23765000
v -0.82459000 0.50077000 0.23766000
v -0.41972000 0.49250000 0.23766000
v -0.81777000 0.49250000 0.23765000
v -0.41290000 0.50077000 0.23765000
v -0.40608000 0.30345000 0.23765000
v -0.40608000 0.49250000 0.23765000
v -0.00803000 0.30345000 0.23766000
v -0.00803000 0.49250000 0.23766000
v -0.00121000 0.50077000 0.23765000
v -0.41972000 0.50904000 0.23766000
v -0.81777000 0.50904000 0.23765000
v -0.82459000 0.70636000 0.23766000
v -0.81777000 0.69809000 0.23765000
v -0.41290000 0.70636000 0.23765000
v -0.41972000 0.69809000 0.23766000
v -0.00803000 0.50904000 0.23766000
v -0.00803000 0.69809000 0.23766000
v -0.40608000 0.50904000 0.23765000
v -0.00121000 0.70636000 0.23765000
v -0.40608000 0.69809000 0.23765000
v -0.40608000 0.50904000 0.23765000
v -0.40608000 0.50904000 -0.17291000
v -0.00803000 0.50904000 -0.17291000
v -0.00803000 0.50904000 0.23766000
v -0.41290000 0.00001000 -0.25623000
v 0.00561000 0.00001000 -0.25623000
v 0.00561000 0.08959000 -0.25623000
v -0.41290000 0.08959000 -0.25623000
v -0.83141000 0.00001000 -0.25623000
v -0.83141000 0.08959000 -0.25623000
v 0.00561000 0.00001000 -0.25623000
v 0.00561000 0.00000000 0.24445000
v 0.00561000 0.08959000 0.24445000
v 0.00561000 0.08959000 -0.25623000
v -0.41290000 0.00000000 0.24445000
v -0.83141000 0.00000000 0.24446000
v -0.83141000 0.08959000 0.24446000
v -0.41290000 0.08959000 0.24445000
v 0.00561000 0.00000000 0.24445000
v 0.00561000 0.08959000 0.24445000
v -0.83141000 0.00000000 0.24446000
v -0.83141000 0.00001000 -0.25623000
v -0.83141000 0.08959000 -0.25623000
v -0.83141000 0.08959000 0.24446000
v -0.82459000 0.08959000 0.23766000
v -0.41290000 0.08959000 0.24445000
v -0.83141000 0.08959000 0.24446000
v -0.41290000 0.08959000 0.23765000
v 0.00561000 0.08959000 0.24445000
v -0.00121000 0.08959000 0.23765000
v 0.00561000 0.08959000 -0.25623000
v -0.00121000 0.08959000 -0.24943000
v -0.82459000 0.00001000 -0.24943000
v -0.41290000 0.00001000 -0.25623000
v -0.83141000 0.00001000 -0.25623000
v -0.41290000 0.00001000 -0.24943000
v 0.00561000 0.00001000 -0.25623000
v -0.00121000 0.00001000 -0.24943000
v 0.00561000 0.00000000 0.24445000
v -0.00121000 0.00001000 0.23765000
v -0.82459000 0.08959000 -0.24943000
v -0.82459000 0.08959000 0.23766000
v -0.83141000 0.08959000 0.24446000
v -0.83141000 0.08959000 -0.25623000
v -0.41290000 0.08959000 -0.24943000
v -0.41290000 0.08959000 -0.25623000
v -0.00121000 0.08959000 -0.24943000
v 0.00561000 0.08959000 -0.25623000
v -0.40608000 0.30345000 0.23765000
v -0.40608000 0.30345000 -0.17291000
v -0.00803000 0.30345000 -0.17291000
v -0.00803000 0.30345000 0.23766000
v -0.81777000 0.50904000 0.23765000
v -0.81777000 0.50904000 -0.17291000
v -0.41972000 0.50904000 -0.17291000
v -0.41972000 0.50904000 0.23766000
v -0.40608000 0.09786000 0.23765000
v -0.40608000 0.09786000 -0.17291000
v -0.00803000 0.09786000 -0.17291000
v -0.00803000 0.09786000 0.23766000
v -0.40608000 0.69809000 0.23765000
v -0.40608000 0.69809000 -0.17291000
v -0.40608000 0.50904000 -0.17291000
v -0.40608000 0.50904000 0.23765000
v -0.41972000 0.50904000 -0.17291000
v -0.81777000 0.50904000 -0.17291000
v -0.81777000 0.69809000 -0.17291000
v -0.41972000 0.69809000 -0.17291000
v -0.00803000 0.50904000 -0.17291000
v -0.40608000 0.50904000 -0.17291000
v -0.40608000 0.69809000 -0.17291000
v -0.00803000 0.69809000 -0.17291000
v -0.00803000 0.09786000 -0.17291000
v -0.40608000 0.09786000 -0.17291000
v -0.40608000 0.28691000 -0.17291000
v -0.00803000 0.28691000 -0.17291000
v -0.00803000 0.30345000 -0.17291000
v -0.40608000 0.30345000 -0.17291000
v -0.40608000 0.49250000 -0.17291000
v -0.00803000 0.49250000 -0.17291000
v -0.41972000 0.09786000 -0.17291000
v -0.81777000 0.09786000 -0.17291000
v -0.81777000 0.28691000 -0.17291000
v -0.41972000 0.28691000 -0.17291000
v -0.41972000 0.30345000 -0.17291000
v -0.81777000 0.30345000 -0.17291000
v -0.81777000 0.49250000 -0.17291000
v -0.41972000 0.49250000 -0.17291000
v -0.00803000 0.49250000 0.23766000
v -0.00803000 0.49250000 -0.17291000
v -0.40608000 0.49250000 -0.17291000
v -0.40608000 0.49250000 0.23765000
v -0.00803000 0.28691000 0.23766000
v -0.00803000 0.28691000 -0.17291000
v -0.40608000 0.28691000 -0.17291000
v -0.40608000 0.28691000 0.23765000
v -0.81777000 0.09786000 0.23765000
v -0.81777000 0.09786000 -0.17291000
v -0.41972000 0.09786000 -0.17291000
v -0.41972000 0.09786000 0.23766000
v -0.81777000 0.49250000 0.23765000
v -0.81777000 0.49250000 -0.17291000
v -0.81777000 0.30345000 -0.17291000
v -0.81777000 0.30345000 0.23765000
v -0.81777000 0.28691000 0.23765000
v -0.81777000 0.28691000 -0.17291000
v -0.81777000 0.09786000 -0.17291000
v -0.81777000 0.09786000 0.23765000
v -0.41972000 0.69809000 0.23766000
v -0.41972000 0.69809000 -0.17291000
v -0.81777000 0.69809000 -0.17291000
v -0.81777000 0.69809000 0.23765000
v -0.41972000 0.30345000 0.23766000
v -0.41972000 0.30345000 -0.17291000
v -0.41972000 0.49250000 -0.17291000
v -0.41972000 0.49250000 0.23766000
v -0.00803000 0.69809000 0.23766000
v -0.00803000 0.69809000 -0.17291000
v -0.40608000 0.69809000 -0.17291000
v -0.40608000 0.69809000 0.23765000
v -0.41972000 0.09786000 0.23766000
v -0.41972000 0.09786000 -0.17291000
v -0.41972000 0.28691000 -0.17291000
v -0.41972000 0.28691000 0.23766000
v -0.81777000 0.69809000 0.23765000
v -0.81777000 0.69809000 -0.17291000
v -0.81777000 0.50904000 -0.17291000
v -0.81777000 0.50904000 0.23765000
v -0.00803000 0.30345000 0.23766000
v -0.00803000 0.30345000 -0.17291000
v -0.00803000 0.49250000 -0.17291000
v -0.00803000 0.49250000 0.23766000
v -0.81777000 0.30345000 0.23765000
v -0.81777000 0.30345000 -0.17291000
v -0.41972000 0.30345000 -0.17291000
v -0.41972000 0.30345000 0.23766000
v -0.00803000 0.50904000 0.23766000
v -0.00803000 0.50904000 -0.17291000
v -0.00803000 0.69809000 -0.17291000
v -0.00803000 0.69809000 0.23766000
v -0.00803000 0.09786000 0.23766000
v -0.00803000 0.09786000 -0.17291000
v -0.00803000 0.28691000 -0.17291000
v -0.00803000 0.28691000 0.23766000
v -0.41972000 0.28691000 0.23766000
v -0.41972000 0.28691000 -0.17291000
v -0.81777000 0.28691000 -0.17291000
v -0.81777000 0.28691000 0.23765000
v -0.41972000 0.50904000 0.23766000
v -0.41972000 0.50904000 -0.17291000
v -0.41972000 0.69809000 -0.17291000
v -0.41972000 0.69809000 0.23766000
v -0.40608000 0.49250000 0.23765000
v -0.40608000 0.49250000 -0.17291000
v -0.40608000 0.30345000 -0.17291000
v -0.40608000 0.30345000 0.23765000
v -0.41972000 0.49250000 0.23766000
v -0.41972000 0.49250000 -0.17291000
v -0.81777000 0.49250000 -0.17291000
v -0.81777000 0.49250000 0.23765000
vn 1.00000000 0.00000000 0.00000000
vn 1.00000000 0.00000000 0.00000000
vn 1.00000000 0.00000000 0.00000000
vn 1.00000000 0.00000000 0.00000000
vn 1.00000000 0.00000000 0.00000000
vn 1.00000000 0.00000000 0.00000000
vn 1.00000000 0.00000000 0.00000000
vn 1.00000000 0.00000000 0.00000000
vn 1.00000000 0.00000000 0.00000000
vn 1.00000000 0.00000000 0.00000000
vn 1.00000000 0.00000000 0.00000000
vn 1.00000000 0.00000000 0.00000000
vn 1.00000000 0.00000000 0.00000000
vn 1.00000000 0.00000000 0.00000000
vn 0.00000000 0.00000000 -1.00000000
vn 0.00000000 0.00000000 -1.00000000
vn 0.00000000 0.00000000 -1.00000000
vn 0.00000000 0.00000000 -1.00000000
vn 0.00000000 0.00000000 -1.00000000
vn 0.00000000 0.00000000 -1.00000000
vn 0.00000000 0.00000000 -1.00000000
vn 0.00000000 0.00000000 -1.00000000
vn 0.00000000 0.00000000 -1.00000000
vn 0.00000000 0.00000000 -1.00000000
vn 0.00000000 0.00000000 -1.00000000
vn 0.00000000 0.00000000 -1.00000000
vn 0.00000000 0.00000000 -1.00000000
vn 0.00000000 0.00000000 -1.00000000
vn 0.00000000 0.00000000 -1.00000000
vn 0.00000000 -1.00000000 0.00000000
vn 0.00000000 -1.00000000 0.00000000
vn 0.00000000 -1.00000000 0.00000000
vn 0.00000000 -1.00000000 0.00000000
vn 0.00000000 -1.00000000 0.00000000
vn 0.00000000 -1.00000000 0.00000000
vn 0.00000000 -1.00000000 0.00000000
vn 0.00000000 -1.00000000 0.00000000
vn 0.00000000 -1.00000000 0.00000000
vn 0.00000000 -1.00000000 0.00000000
vn 0.00000000 1.00000000 0.00000000
vn 0.00000000 1.00000000 0.00000000
vn 0.00000000 1.00000000 0.00000000
vn 0.00000000 1.00000000 0.00000000
vn 0.00000000 1.00000000 0.00000000
vn 0.00000000 1.00000000 0.00000000
vn 0.00000000 0.00000000 1.00000000
vn 0.00000000 0.00000000 1.00000000
vn 0.00000000 0.00000000 1.00000000
vn 0.00000000 0.00000000 1.00000000
vn 0.00000000 0.00000000 1.00000000
vn 0.00000000 0.00000000 1.00000000
vn 0.00000000 0.00000151 1.00000000
vn 0.00000000 0.00000151 1.00000000
vn 0.00000371 0.00000000 1.00000000
vn 0.00000000 0.00000000 1.00000000
vn 0.00000371 0.00000000 1.00000000
vn 0.00000000 0.00000000 1.00000000
vn 0.00000000 0.00000000 1.00000000
vn 0.00000000 0.00000000 1.00000000
vn 0.00000000 0.00000000 1.00000000
vn 0.00000000 0.00000000 1.00000000
vn 0.00000000 0.00000000 1.00000000
vn 0.00000000 0.00000000 1.00000000
vn 0.00000371 0.00000000 1.00000000
vn 0.00000371 0.00000000 1.00000000
vn 0.00000000 0.00000000 1.00000000
vn 0.00000371 0.00000000 1.00000000
vn 0.00000000 0.00000000 1.00000000
vn 0.00000000 0.00000000 1.00000000
vn 0.00000000 0.00000000 1.00000000
vn 0.00000000 0.00000000 1.00000000
vn 0.00000000 0.00000000 1.00000000
vn 0.00000000 0.00000000 1.00000000
vn 0.00000000 0.00000000 1.00000000
vn 0.00000371 0.00000000 1.00000000
vn 0.00000000 -0.00000151 1.00000000
vn 0.00000000 -0.00000151 1.00000000
vn 0.00000000 -0.00000151 1.00000000
vn 0.00000000 -0.00000151 1.00000000
vn 0.00000000 0.00000000 1.00000000
vn 0.00000000 0.00000000 1.00000000
vn 0.00000000 0.00000000 1.00000000
vn 0.00000000 0.00000000 1.00000000
vn 0.00000000 0.00000000 1.00000000
vn 0.00000000 1.00000000 0.00000000
vn 0.00000000 1.00000000 0.00000000
vn 0.00000000 1.00000000 0.00000000
vn 0.00000000 1.00000000 0.00000000
vn 0.00000000 0.00000000 -1.00000000
vn 0.00000000 0.00000000 -1.00000000
vn 0.00000000 0.00000000 -1.00000000
vn 0.00000000 0.00000000 -1.00000000
vn 0.00000000 0.00000000 -1.00000000
vn 0.00000000 0.00000000 -1.00000000
vn 1.00000000 0.00000000 0.00000000
vn 1.00000000 0.00000000 0.00000000
vn 1.00000000 0.00000000 0.00000000
vn 1.00000000 0.00000000 0.00000000
vn 0.00000000 0.00000000 1.00000000
vn 0.00000000 0.00000000 1.00000000
vn 0.00000000 0.00000000 1.00000000
vn 0.00000000 0.00000000 1.00000000
vn 0.00000000 0.00000000 1.00000000
vn 0.00000000 0.00000000 1.00000000
vn -1.00000000 0.00000000 0.00000000
vn -1.00000000 0.00000000 0.00000000
vn -1.00000000 0.00000000 0.00000000
vn -1.00000000 0.00000000 0.00000000
vn 0.00000000 1.00000000 0.00000000
vn 0.00000000 1.00000000 0.00000000
vn 0.00000000 1.00000000 0.00000000
vn 0.00000000 1.00000000 0.00000000
vn 0.00000000 1.00000000 0.00000000
vn 0.00000000 1.00000000 0.00000000
vn -0.00000204 1.00000000 0.00000000
vn -0.00000204 1.00000000 0.00000000
vn 0.00000000 -1.00000000 0.00000000
vn 0.00000000 -1.00000000 0.00000000
vn 0.00000000 -1.00000000 0.00000000
vn 0.00000000 -1.00000000 0.00000000
vn 0.00000000 -1.00000000 0.00000000
vn 0.00000000 -1.00000000 0.00000000
vn 0.00000000 -1.00000000 0.00000000
vn 0.00000000 -1.00000000 0.00000000
vn 0.00000125 1.00000000 0.00000000
vn 0.00000000 1.00000000 0.00000000
vn 0.00000000 1.00000000 0.00000000
vn 0.00000125 1.00000000 0.00000000
vn 0.00000000 1.00000000 0.00000000
vn 0.00000000 1.00000000 0.00000000
vn -0.00000204 1.00000000 0.00000000
vn -0.00000204 1.00000000 0.00000000
vn 0.00000000 1.00000000 0.00000000
vn 0.00000000 1.00000000 0.00000000
vn 0.00000000 1.00000000 0.00000000
vn 0.00000000 1.00000000 0.00000000
vn 0.00000000 1.00000000 0.00000000
vn 0.00000000 1.00000000 0.00000000
vn 0.00000000 1.00000000 0.00000000
vn 0.00000000 1.00000000 0.00000000
vn 0.00000000 1.00000000 0.00000000
vn 0.00000000 1.00000000 0.00000000
vn 0.00000000 1.00000000 0.00000000
vn 0.00000000 1.00000000 0.00000000
vn 1.00000000 0.00000000 0.00000000
vn 1.00000000 0.00000000 0.00000000
vn 1.00000000 0.00000000 0.00000000
vn 1.00000000 0.00000000 0.00000000
vn 0.00000000 0.00000000 1.00000000
vn 0.00000000 0.00000000 1.00000000
vn 0.00000000 0.00000000 1.00000000
vn 0.00000000 0.00000000 1.00000000
vn 0.00000000 0.00000000 1.00000000
vn 0.00000000 0.00000000 1.00000000
vn 0.00000000 0.00000000 1.00000000
vn 0.00000000 0.00000000 1.00000000
vn 0.00000000 0.00000000 1.00000000
vn 0.00000000 0.00000000 1.00000000
vn 0.00000000 0.00000000 1.00000000
vn 0.00000000 0.00000000 1.00000000
vn 0.00000000 0.00000000 1.00000000
vn 0.00000000 0.00000000 1.00000000
vn 0.00000000 0.00000000 1.00000000
vn 0.00000000 0.00000000 1.00000000
vn 0.00000000 0.00000000 1.00000000
vn 0.00000000 0.00000000 1.00000000
vn 0.00000000 0.00000000 1.00000000
vn 0.00000000 0.00000000 1.00000000
vn 0.00000000 0.00000000 1.00000000
vn 0.00000000 0.00000000 1.00000000
vn 0.00000000 0.00000000 1.00000000
vn 0.00000000 0.00000000 1.00000000
vn 0.00000000 -1.00000000 0.00000000
vn 0.00000000 -1.00000000 0.00000000
vn 0.00000000 -1.00000000 0.00000000
vn 0.00000000 -1.00000000 0.00000000
vn 0.00000000 -1.00000000 0.00000000
vn 0.00000000 -1.00000000 0.00000000
vn 0.00000000 -1.00000000 0.00000000
vn 0.00000000 -1.00000000 0.00000000
vn 0.00000000 1.00000000 0.00000000
vn 0.00000000 1.00000000 0.00000000
vn 0.00000000 1.00000000 0.00000000
vn 0.00000000 1.00000000 0.00000000
vn 1.00000000 0.00000000 0.00000000
vn 1.00000000 0.00000000 0.00000000
vn 1.00000000 0.00000000 0.00000000
vn 1.00000000 0.00000000 0.00000000
vn 1.00000000 0.00000000 0.00000000
vn 1.00000000 0.00000000 0.00000000
vn 1.00000000 0.00000000 0.00000000
vn 1.00000000 0.00000000 0.00000000
vn 0.00000000 -1.00000000 0.00000000
vn 0.00000000 -1.00000000 0.00000000
vn 0.00000000 -1.00000000 0.00000000
vn 0.00000000 -1.00000000 0.00000000
vn -1.00000000 0.00000000 0.00000000
vn -1.00000000 0.00000000 0.00000000
vn -1.00000000 0.00000000 0.00000000
vn -1.00000000 0.00000000 0.00000000
vn 0.00000000 -1.00000000 0.00000000
vn 0.00000000 -1.00000000 0.00000000
vn 0.00000000 -1.00000000 0.00000000
vn 0.00000000 -1.00000000 0.00000000
vn -1.00000000 0.00000000 0.00000000
vn -1.00000000 0.00000000 0.00000000
vn -1.00000000 0.00000000 0.00000000
vn -1.00000000 0.00000000 0.00000000
vn 1.00000000 0.00000000 0.00000000
vn 1.00000000 0.00000000 0.00000000
vn 1.00000000 0.00000000 0.00000000
vn 1.00000000 0.00000000 0.00000000
vn -1.00000000 0.00000000 0.00000000
vn -1.00000000 0.00000000 0.00000000
vn -1.00000000 0.00000000 0.00000000
vn -1.00000000 0.00000000 0.00000000
vn 0.00000000 1.00000000 0.00000000
vn 0.00000000 1.00000000 0.00000000
vn 0.00000000 1.00000000 0.00000000
vn 0.00000000 1.00000000 0.00000000
vn -1.00000000 0.00000000 0.00000000
vn -1.00000000 0.00000000 0.00000000
vn -1.00000000 0.00000000 0.00000000
vn -1.00000000 0.00000000 0.00000000
vn -1.00000000 0.00000000 0.00000000
vn -1.00000000 0.00000000 0.00000000
vn -1.00000000 0.00000000 0.00000000
vn -1.00000000 0.00000000 0.00000000
vn 0.00000000 -1.00000000 0.00000000
vn 0.00000000 -1.00000000 0.00000000
vn 0.00000000 -1.00000000 0.00000000
vn 0.00000000 -1.00000000 0.00000000
vn -1.00000000 0.00000000 0.00000000
vn -1.00000000 0.00000000 0.00000000
vn -1.00000000 0.00000000 0.00000000
vn -1.00000000 0.00000000 0.00000000
vn 1.00000000 0.00000000 0.00000000
vn 1.00000000 0.00000000 0.00000000
vn 1.00000000 0.00000000 0.00000000
vn 1.00000000 0.00000000 0.00000000
vn 0.00000000 -1.00000000 0.00000000
vn 0.00000000 -1.00000000 0.00000000
vn 0.00000000 -1.00000000 0.00000000
vn 0.00000000 -1.00000000 0.00000000
vn 1.00000000 0.00000000 0.00000000
vn 1.00000000 0.00000000 0.00000000
vn 1.00000000 0.00000000 0.00000000
vn 1.00000000 0.00000000 0.00000000
vn 1.00000000 0.00000000 0.00000000
vn 1.00000000 0.00000000 0.00000000
vn 1.00000000 0.00000000 0.00000000
vn 1.00000000 0.00000000 0.00000000
vn 1.00000000 0.00000000 0.00000000
vn 1.00000000 0.00000000 0.00000000
vn 1.00000000 0.00000000 0.00000000
vn 1.00000000 0.00000000 0.00000000
vn 1.00000000 0.00000000 0.00000000
vn 1.00000000 0.00000000 0.00000000
vn -1.00000000 0.00000000 0.00000000
vn -1.00000000 0.00000000 0.00000000
vn -1.00000000 0.00000000 0.00000000
vn -1.00000000 0.00000000 0.00000000
vn -1.00000000 0.00000000 0.00000000
vn -1.00000000 0.00000000 0.00000000
vn -1.00000000 0.00000000 0.00000000
vn -1.00000000 0.00000000 0.00000000
vn -1.00000000 0.00000000 0.00000000
vn -1.00000000 0.00000000 0.00000000
vn 0.00000000 0.00000000 -1.00000000
vn 0.00000000 0.00000000 -1.00000000
vn 0.00000000 0.00000000 -1.00000000
vn 0.00000000 0.00000000 -1.00000000
vn 0.00000000 0.00000000 -1.00000000
vn 0.00000000 0.00000000 -1.00000000
vn 0.00000000 0.00000000 -1.00000000
vn 0.00000000 0.00000000 -1.00000000
vn 0.00000000 0.00000000 -1.00000000
vn 0.00000000 0.00000000 -1.00000000
vn 0.00000000 0.00000000 -1.00000000
vn 0.00000000 0.00000000 -1.00000000
vn 0.00000000 0.00000000 -1.00000000
vn 0.00000000 0.00000000 -1.00000000
vn 0.00000000 0.00000000 -1.00000000
vn 0.00000000 -1.00000000 0.00000000
vn 0.00000000 -1.00000000 0.00000000
vn 0.00000000 -1.00000000 0.00000000
vn 0.00000000 -1.00000000 0.00000000
vn 0.00000000 -1.00000000 0.00000000
vn 0.00000000 -1.00000000 0.00000000
vn 0.00000000 -1.00000000 0.00000000
vn 0.00000000 -1.00000000 0.00000000
vn 0.00000000 -1.00000000 0.00000000
vn -0.00000014 -1.00000000 0.00000000
vn 0.00000000 1.00000000 0.00000000
vn 0.00000000 1.00000000 0.00000000
vn 0.00000000 1.00000000 0.00000000
vn 0.00000000 1.00000000 0.00000000
vn 0.00000000 1.00000000 0.00000000
vn 0.00000000 1.00000000 0.00000000
vn 0.00000000 0.00000000 1.00000000
vn 0.00000000 0.00000000 1.00000000
vn 0.00000000 0.00000000 1.00000000
vn 0.00000000 0.00000000 1.00000000
vn 0.00000000 0.00000000 1.00000000
vn 0.00000000 0.00000000 1.00000000
vn 0.00000000 0.00000076 1.00000000
vn 0.00000000 0.00000076 1.00000000
vn 0.00000000 0.00000000 1.00000000
vn 0.00000000 0.00000000 1.00000000
vn 0.00000000 0.00000000 1.00000000
vn 0.00000000 0.00000000 1.00000000
vn 0.00000000 0.00000000 1.00000000
vn 0.00000000 0.00000000 1.00000000
vn 0.00000000 0.00000000 1.00000000
vn 0.00000000 0.00000000 1.00000000
vn 0.00000000 0.00000000 1.00000000
vn 0.00000000 0.00000000 1.00000000
vn 0.00000000 0.00000000 1.00000000
vn 0.00000000 0.00000000 1.00000000
vn 0.00000000 0.00000000 1.00000000
vn 0.00000000 0.00000000 1.00000000
vn 0.00000000 0.00000000 1.00000000
vn 0.00000000 0.00000000 1.00000000
vn 0.00000000 0.00000000 1.00000000
vn 0.00000000 0.00000000 1.00000000
vn 0.00000000 0.00000000 1.00000000
vn 0.00000000 0.00000000 1.00000000
vn 0.00000000 0.00000000 1.00000000
vn 0.00000000 0.00000000 1.00000000
vn 0.00000000 -0.00000076 1.00000000
vn 0.00000000 -0.00000076 1.00000000
vn 0.00000000 -0.00000076 1.00000000
vn 0.00000000 -0.00000076 1.00000000
vn 0.00000000 0.00000000 1.00000000
vn 0.00000000 0.00000000 1.00000000
vn 0.00000000 0.00000000 1.00000000
vn 0.00000000 0.00000000 1.00000000
vn 0.00000000 0.00000000 1.00000000
vn 0.00000000 1.00000000 0.00000000
vn 0.00000000 1.00000000 0.00000000
vn 0.00000000 1.00000000 0.00000000
vn 0.00000000 1.00000000 0.00000000
vn 0.00000000 0.00000000 -1.00000000
vn 0.00000000 0.00000000 -1.00000000
vn 0.00000000 0.00000000 -1.00000000
vn 0.00000000 0.00000000 -1.00000000
vn 0.00000000 0.00000000 -1.00000000
vn 0.00000000 0.00000000 -1.00000000
vn 1.00000000 0.00000000 0.00000000
vn 1.00000000 0.00000000 0.00000000
vn 1.00000000 0.00000000 0.00000000
vn 1.00000000 0.00000000 0.00000000
vn 0.00000000 0.00000000 1.00000000
vn 0.00000000 0.00000000 1.00000000
vn 0.00000000 0.00000000 1.00000000
vn 0.00000000 0.00000000 1.00000000
vn 0.00000000 0.00000000 1.00000000
vn 0.00000000 0.00000000 1.00000000
vn -1.00000000 0.00000000 0.00000000
vn -1.00000000 0.00000000 0.00000000
vn -1.00000000 0.00000000 0.00000000
vn -1.00000000 0.00000000 0.00000000
vn 0.00000000 1.00000000 0.00000000
vn 0.00000000 1.00000000 0.00000000
vn 0.00000000 1.00000000 0.00000000
vn 0.00000000 1.00000000 0.00000000
vn 0.00000000 1.00000000 0.00000000
vn 0.00000000 1.00000000 0.00000000
vn -0.00000080 1.00000000 0.00000000
vn -0.00000080 1.00000000 0.00000000
vn 0.00000000 -1.00000000 0.00000000
vn 0.00000000 -1.00000000 0.00000000
vn -0.00000014 -1.00000000 0.00000000
vn 0.00000000 -1.00000000 0.00000000
vn 0.00000000 -1.00000000 0.00000000
vn 0.00000000 -1.00000000 0.00000000
vn 0.00000000 -1.00000000 0.00000000
vn 0.00000000 -1.00000000 0.00000000
vn 0.00000068 1.00000000 0.00000000
vn 0.00000000 1.00000000 0.00000000
vn 0.00000000 1.00000000 0.00000000
vn 0.00000068 1.00000000 0.00000000
vn 0.00000000 1.00000000 0.00000000
vn 0.00000000 1.00000000 0.00000000
vn -0.00000080 1.00000000 0.00000000
vn -0.00000080 1.00000000 0.00000000
vn 0.00000000 1.00000000 0.00000000
vn 0.00000000 1.00000000 0.00000000
vn 0.00000000 1.00000000 0.00000000
vn 0.00000000 1.00000000 0.00000000
vn 0.00000000 1.00000000 0.00000000
vn 0.00000000 1.00000000 0.00000000
vn 0.00000000 1.00000000 0.00000000
vn 0.00000000 1.00000000 0.00000000
vn 0.00000000 1.00000000 0.00000000
vn 0.00000000 1.00000000 0.00000000
vn 0.00000000 1.00000000 0.00000000
vn 0.00000000 1.00000000 0.00000000
vn 1.00000000 0.00000000 0.00000000
vn 1.00000000 0.00000000 0.00000000
vn 1.00000000 0.00000000 0.00000000
vn 1.00000000 0.00000000 0.00000000
vn 0.00000000 0.00000000 1.00000000
vn 0.00000000 0.00000000 1.00000000
vn 0.00000000 0.00000000 1.00000000
vn 0.00000000 0.00000000 1.00000000
vn 0.00000000 0.00000000 1.00000000
vn 0.00000000 0.00000000 1.00000000
vn 0.00000000 0.00000000 1.00000000
vn 0.00000000 0.00000000 1.00000000
vn 0.00000000 0.00000000 1.00000000
vn 0.00000000 0.00000000 1.00000000
vn 0.00000000 0.00000000 1.00000000
vn 0.00000000 0.00000000 1.00000000
vn 0.00000000 0.00000000 1.00000000
vn 0.00000000 0.00000000 1.00000000
vn 0.00000000 0.00000000 1.00000000
vn 0.00000000 0.00000000 1.00000000
vn 0.00000000 0.00000000 1.00000000
vn 0.00000000 0.00000000 1.00000000
vn 0.00000000 0.00000000 1.00000000
vn 0.00000000 0.00000000 1.00000000
vn 0.00000000 0.00000000 1.00000000
vn 0.00000000 0.00000000 1.00000000
vn 0.00000000 0.00000000 1.00000000
vn 0.00000000 0.00000000 1.00000000
vn 0.00000000 -1.00000000 0.00000000
vn 0.00000000 -1.00000000 0.00000000
vn 0.00000000 -1.00000000 0.00000000
vn 0.00000000 -1.00000000 0.00000000
vn 0.00000000 -1.00000000 0.00000000
vn 0.00000000 -1.00000000 0.00000000
vn 0.00000000 -1.00000000 0.00000000
vn 0.00000000 -1.00000000 0.00000000
vn 0.00000000 1.00000000 0.00000000
vn 0.00000000 1.00000000 0.00000000
vn 0.00000000 1.00000000 0.00000000
vn 0.00000000 1.00000000 0.00000000
vn 1.00000000 0.00000000 0.00000000
vn 1.00000000 0.00000000 0.00000000
vn 1.00000000 0.00000000 0.00000000
vn 1.00000000 0.00000000 0.00000000
vn 1.00000000 0.00000000 0.00000000
vn 1.00000000 0.00000000 0.00000000
vn 1.00000000 0.00000000 0.00000000
vn 1.00000000 0.00000000 0.00000000
vn 0.00000000 -1.00000000 0.00000000
vn 0.00000000 -1.00000000 0.00000000
vn 0.00000000 -1.00000000 0.00000000
vn 0.00000000 -1.00000000 0.00000000
vn -1.00000000 0.00000000 0.00000000
vn -1.00000000 0.00000000 0.00000000
vn -1.00000000 0.00000000 0.00000000
vn -1.00000000 0.00000000 0.00000000
vn 0.00000000 -1.00000000 0.00000000
vn 0.00000000 -1.00000000 0.00000000
vn 0.00000000 -1.00000000 0.00000000
vn 0.00000000 -1.00000000 0.00000000
vn -1.00000000 0.00000000 0.00000000
vn -1.00000000 0.00000000 0.00000000
vn -1.00000000 0.00000000 0.00000000
vn -1.00000000 0.00000000 0.00000000
vn 1.00000000 0.00000000 0.00000000
vn 1.00000000 0.00000000 0.00000000
vn 1.00000000 0.00000000 0.00000000
vn 1.00000000 0.00000000 0.00000000
vn -1.00000000 0.00000000 0.00000000
vn -1.00000000 0.00000000 0.00000000
vn -1.00000000 0.00000000 0.00000000
vn -1.00000000 0.00000000 0.00000000
vn 0.00000000 1.00000000 0.00000000
vn 0.00000000 1.00000000 0.00000000
vn 0.00000000 1.00000000 0.00000000
vn 0.00000000 1.00000000 0.00000000
vn -1.00000000 0.00000000 0.00000000
vn -1.00000000 0.00000000 0.00000000
vn -1.00000000 0.00000000 0.00000000
vn -1.00000000 0.00000000 0.00000000
vn -1.00000000 0.00000000 0.00000000
vn -1.00000000 0.00000000 0.00000000
vn -1.00000000 0.00000000 0.00000000
vn -1.00000000 0.00000000 0.00000000
vn 0.00000000 -1.00000000 0.00000000
vn 0.00000000 -1.00000000 0.00000000
vn 0.00000000 -1.00000000 0.00000000
vn 0.00000000 -1.00000000 0.00000000
vn -1.00000000 0.00000000 0.00000000
vn -1.00000000 0.00000000 0.00000000
vn -1.00000000 0.00000000 0.00000000
vn -1.00000000 0.00000000 0.00000000
vn 1.00000000 0.00000000 0.00000000
vn 1.00000000 0.00000000 0.00000000
vn 1.00000000 0.00000000 0.00000000
vn 1.00000000 0.00000000 0.00000000
vn 0.00000000 -1.00000000 0.00000000
vn 0.00000000 -1.00000000 0.00000000
vn 0.00000000 -1.00000000 0.00000000
vn 0.00000000 -1.00000000 0.00000000
vt 0.75997910 0.61349150
vt 1.11806700 0.73776080
vt 0.75997910 0.73776080
vt 1.11806700 0.61349140
vt 0.75997910 0.48922200
vt 1.11806700 0.48922200
vt 0.75997910 0.36495270
vt 1.11806700 0.36495270
vt 0.75997910 0.31080170
vt 1.11806700 0.31080170
vt 0.11806730 0.48422210
vt -0.18376660 0.48422210
vt -0.18376660 0.36995270
vt 0.11806730 0.36995270
vt 0.59216490 0.61349140
vt 0.38632000 0.73776080
vt 0.59216490 0.73776080
vt 0.38632000 0.61349140
vt 0.18047510 0.73776080
vt 0.59216490 0.48922200
vt 0.18047510 0.61349150
vt 0.38632000 0.48922200
vt 0.59216490 0.36495270
vt 0.18047510 0.48922200
vt 0.38632000 0.36495270
vt 0.59216490 0.31080170
vt 0.18047510 0.36495270
vt 0.38632000 0.31080170
vt 0.18047510 0.31080170
vt 0.18047510 0.11806730
vt 0.18047510 -0.24002090
vt 0.38632000 -0.24002090
vt 0.38632000 0.11806730
vt 0.59216490 -0.24002090
vt 0.38632000 0.12306730
vt 0.17706400 0.12306730
vt 0.59557600 0.12306730
vt 0.59216490 0.11806730
vt 0.59557600 -0.24502090
vt 0.38632000 0.11806730
vt 0.18047510 -0.24002090
vt 0.18047510 0.11806730
vt 0.38632000 -0.24002090
vt 0.59216490 0.11806730
vt 0.59216490 -0.24002090
vt 0.38632000 0.31080170
vt 0.59216490 0.31080170
vt 0.59216490 0.36495270
vt 0.38632000 0.36495270
vt 0.18047510 0.31080170
vt 0.18047510 0.36495270
vt 0.38973120 0.36995270
vt 0.58875380 0.36995270
vt 0.59216490 0.48922200
vt 0.38973120 0.48422210
vt 0.58875380 0.48422210
vt 0.38632000 0.48922200
vt 0.38290890 0.36995270
vt 0.38290890 0.48422210
vt 0.18388620 0.36995270
vt 0.18388620 0.48422210
vt 0.18047510 0.48922200
vt 0.38973120 0.49422200
vt 0.58875380 0.49422200
vt 0.59216490 0.61349140
vt 0.38973120 0.60849140
vt 0.58875380 0.60849140
vt 0.38632000 0.61349140
vt 0.38290890 0.49422200
vt 0.38290890 0.60849140
vt 0.18388620 0.49422200
vt 0.18388620 0.60849140
vt 0.18047510 0.61349140
vt 0.38973120 0.61849140
vt 0.58875380 0.61849140
vt 0.59216490 0.73776080
vt 0.58875380 0.73276080
vt 0.38632000 0.73776080
vt 0.38973120 0.73276080
vt 0.18388620 0.61849140
vt 0.18388620 0.73276080
vt 0.38290890 0.61849140
vt 0.18047510 0.73776080
vt 0.38290890 0.73276080
vt 0.38290890 0.11806730
vt 0.38290890 -0.18376660
vt 0.18388620 -0.18376660
vt 0.18388620 0.11806730
vt 0.38632000 0.31080170
vt 0.17706400 0.31080170
vt 0.17706400 0.36495270
vt 0.38632000 0.36495270
vt 0.59557600 0.31080170
vt 0.59557600 0.36495270
vt 0.75497910 0.31080170
vt 1.12306700 0.31080170
vt 1.12306700 0.36495270
vt 0.75497910 0.36495270
vt 0.38632000 0.31080170
vt 0.59557600 0.31080170
vt 0.59557600 0.36495270
vt 0.38632000 0.36495270
vt 0.17706400 0.31080170
vt 0.17706400 0.36495270
vt 0.12306730 0.31080170
vt -0.24502090 0.31080170
vt -0.24502090 0.36495270
vt 0.12306730 0.36495270
vt 0.59216490 0.11806730
vt 0.38632000 0.12306730
vt 0.59557600 0.12306730
vt 0.38632000 0.11806730
vt 0.17706400 0.12306730
vt 0.18047510 0.11806730
vt 0.17706400 -0.24502090
vt 0.18047510 -0.24002090
vt 0.59216490 0.75997910
vt 0.38632000 0.75497910
vt 0.59557600 0.75497910
vt 0.38632000 0.75997910
vt 0.17706400 0.75497910
vt 0.18047510 0.75997910
vt 0.17706400 1.12306700
vt 0.18047510 1.11806700
vt 0.59216490 0.75997910
vt 0.59216490 1.11806700
vt 0.59557600 1.12306700
vt 0.59557600 0.75497910
vt 0.38632000 0.75997910
vt 0.38632000 0.75497910
vt 0.18047510 0.75997910
vt 0.17706400 0.75497910
vt 0.38290890 0.11806730
vt 0.38290890 -0.18376660
vt 0.18388620 -0.18376660
vt 0.18388620 0.11806730
vt 0.58875380 0.11806730
vt 0.58875380 -0.18376660
vt 0.38973120 -0.18376660
vt 0.38973120 0.11806730
vt 0.38290890 0.11806730
vt 0.38290890 -0.18376660
vt 0.18388620 -0.18376660
vt 0.18388620 0.11806730
vt 0.11806730 0.73276080
vt -0.18376660 0.73276080
vt -0.18376660 0.61849140
vt 0.11806730 0.61849140
vt 0.38973120 0.61849140
vt 0.58875380 0.61849140
vt 0.58875380 0.73276080
vt 0.38973120 0.73276080
vt 0.18388620 0.61849140
vt 0.38290890 0.61849140
vt 0.38290890 0.73276080
vt 0.18388620 0.73276080
vt 0.18388620 0.36995270
vt 0.38290890 0.36995270
vt 0.38290890 0.48422210
vt 0.18388620 0.48422210
vt 0.18388620 0.49422200
vt 0.38290890 0.49422200
vt 0.38290890 0.60849140
vt 0.18388620 0.60849140
vt 0.38973120 0.36995270
vt 0.58875380 0.36995270
vt 0.58875380 0.48422210
vt 0.38973120 0.48422210
vt 0.38973120 0.49422200
vt 0.58875380 0.49422200
vt 0.58875380 0.60849140
vt 0.38973120 0.60849140
vt 0.18388620 0.11806730
vt 0.18388620 -0.18376660
vt 0.38290890 -0.18376660
vt 0.38290890 0.11806730
vt 0.18388620 0.11806730
vt 0.18388620 -0.18376660
vt 0.38290890 -0.18376660
vt 0.38290890 0.11806730
vt 0.58875380 0.11806730
vt 0.58875380 -0.18376660
vt 0.38973120 -0.18376660
vt 0.38973120 0.11806730
vt 0.11806730 0.60849140
vt -0.18376660 0.60849140
vt -0.18376660 0.49422200
vt 0.11806730 0.49422200
vt 0.11806730 0.48422210
vt -0.18376660 0.48422210
vt -0.18376660 0.36995270
vt 0.11806730 0.36995270
vt 0.38973120 0.11806730
vt 0.38973120 -0.18376660
vt 0.58875380 -0.18376660
vt 0.58875380 0.11806730
vt 0.11806730 0.49422200
vt -0.18376660 0.49422200
vt -0.18376660 0.60849140
vt 0.11806730 0.60849140
vt 0.18388620 0.11806730
vt 0.18388620 -0.18376660
vt 0.38290890 -0.18376660
vt 0.38290890 0.11806730
vt 0.11806730 0.36995270
vt -0.18376660 0.36995270
vt -0.18376660 0.48422210
vt 0.11806730 0.48422210
vt 0.11806730 0.73276080
vt -0.18376660 0.73276080
vt -0.18376660 0.61849140
vt 0.11806730 0.61849140
vt 0.11806730 0.49422200
vt -0.18376660 0.49422200
vt -0.18376660 0.60849140
vt 0.11806730 0.60849140
vt 0.58875380 0.11806730
vt 0.58875380 -0.18376660
vt 0.38973120 -0.18376660
vt 0.38973120 0.11806730
vt 0.11806730 0.61849140
vt -0.18376660 0.61849140
vt -0.18376660 0.73276080
vt 0.11806730 0.73276080
vt 0.11806730 0.36995270
vt -0.18376660 0.36995270
vt -0.18376660 0.48422210
vt 0.11806730 0.48422210
vt 0.38973120 0.11806730
vt 0.38973120 -0.18376660
vt 0.58875380 -0.18376660
vt 0.58875380 0.11806730
vt 0.11806730 0.61849140
vt -0.18376660 0.61849140
vt -0.18376660 0.73276080
vt 0.11806730 0.73276080
vt 0.11806730 0.60849140
vt -0.18376660 0.60849140
vt -0.18376660 0.49422200
vt 0.11806730 0.49422200
vt 0.38973120 0.11806730
vt 0.38973120 -0.18376660
vt 0.58875380 -0.18376660
vt 0.58875380 0.11806730
vt 0.75997910 0.61349150
vt 1.11806700 0.73776080
vt 0.75997910 0.73776080
vt 1.11806700 0.61349140
vt 0.75997910 0.48922200
vt 1.11806700 0.48922200
vt 0.75997910 0.36495270
vt 1.11806700 0.36495270
vt 0.75997910 0.31080170
vt 1.11806700 0.31080170
vt 0.11806730 0.48422210
vt -0.18376660 0.48422210
vt -0.18376660 0.36995270
vt 0.11806730 0.36995270
vt 0.11806730 0.61349140
vt -0.24002090 0.73776080
vt 0.11806730 0.73776080
vt -0.24002090 0.61349140
vt 0.11806730 0.48922200
vt -0.24002090 0.48922200
vt 0.11806730 0.36495270
vt -0.24002090 0.36495270
vt 0.11806730 0.31080170
vt -0.24002090 0.31080170
vt 0.59216490 0.61349140
vt 0.38632000 0.73776080
vt 0.59216490 0.73776080
vt 0.38632000 0.61349140
vt 0.18047510 0.73776080
vt 0.59216490 0.48922200
vt 0.18047510 0.61349150
vt 0.38632000 0.48922200
vt 0.59216490 0.36495270
vt 0.18047510 0.48922200
vt 0.38632000 0.36495270
vt 0.59216490 0.31080170
vt 0.18047510 0.36495270
vt 0.38632000 0.31080170
vt 0.18047510 0.31080170
vt 0.18047510 0.11806730
vt 0.18047510 -0.24002090
vt 0.38632000 -0.24002090
vt 0.38632000 0.11806730
vt 0.59216490 -0.24002090
vt 0.38632000 0.12306730
vt 0.17706400 0.12306730
vt 0.59557600 0.12306730
vt 0.59216490 0.11806730
vt 0.59557600 -0.24502090
vt 0.38632000 0.11806730
vt 0.18047510 -0.24002090
vt 0.18047510 0.11806730
vt 0.38632000 -0.24002090
vt 0.59216490 0.11806730
vt 0.59216490 -0.24002090
vt 0.38632000 0.31080170
vt 0.59216490 0.31080170
vt 0.59216490 0.36495270
vt 0.38632000 0.36495270
vt 0.18047510 0.31080170
vt 0.18047510 0.36495270
vt 0.38973120 0.36995270
vt 0.58875380 0.36995270
vt 0.59216490 0.48922200
vt 0.38973120 0.48422210
vt 0.58875380 0.48422210
vt 0.38632000 0.48922200
vt 0.38290890 0.36995270
vt 0.38290890 0.48422210
vt 0.18388620 0.36995270
vt 0.18388620 0.48422210
vt 0.18047510 0.48922200
vt 0.38973120 0.49422200
vt 0.58875380 0.49422200
vt 0.59216490 0.61349140
vt 0.38973120 0.60849140
vt 0.58875380 0.60849140
vt 0.38632000 0.61349140
vt 0.38290890 0.49422200
vt 0.38290890 0.60849140
vt 0.18388620 0.49422200
vt 0.18388620 0.60849140
vt 0.18047510 0.61349140
vt 0.38973120 0.61849140
vt 0.58875380 0.61849140
vt 0.59216490 0.73776080
vt 0.58875380 0.73276080
vt 0.38632000 0.73776080
vt 0.38973120 0.73276080
vt 0.18388620 0.61849140
vt 0.18388620 0.73276080
vt 0.38290890 0.61849140
vt 0.18047510 0.73776080
vt 0.38290890 0.73276080
vt 0.38290890 0.11806730
vt 0.38290890 -0.18376660
vt 0.18388620 -0.18376660
vt 0.18388620 0.11806730
vt 0.38632000 0.31080170
vt 0.17706400 0.31080170
vt 0.17706400 0.36495270
vt 0.38632000 0.36495270
vt 0.59557600 0.31080170
vt 0.59557600 0.36495270
vt 0.75497910 0.31080170
vt 1.12306700 0.31080170
vt 1.12306700 0.36495270
vt 0.75497910 0.36495270
vt 0.38632000 0.31080170
vt 0.59557600 0.31080170
vt 0.59557600 0.36495270
vt 0.38632000 0.36495270
vt 0.17706400 0.31080170
vt 0.17706400 0.36495270
vt 0.12306730 0.31080170
vt -0.24502090 0.31080170
vt -0.24502090 0.36495270
vt 0.12306730 0.36495270
vt 0.59216490 0.11806730
vt 0.38632000 0.12306730
vt 0.59557600 0.12306730
vt 0.38632000 0.11806730
vt 0.17706400 0.12306730
vt 0.18047510 0.11806730
vt 0.17706400 -0.24502090
vt 0.18047510 -0.24002090
vt 0.59216490 0.75997910
vt 0.38632000 0.75497910
vt 0.59557600 0.75497910
vt 0.38632000 0.75997910
vt 0.17706400 0.75497910
vt 0.18047510 0.75997910
vt 0.17706400 1.12306700
vt 0.18047510 1.11806700
vt 0.59216490 0.75997910
vt 0.59216490 1.11806700
vt 0.59557600 1.12306700
vt 0.59557600 0.75497910
vt 0.38632000 0.75997910
vt 0.38632000 0.75497910
vt 0.18047510 0.75997910
vt 0.17706400 0.75497910
vt 0.38290890 0.11806730
vt 0.38290890 -0.18376660
vt 0.18388620 -0.18376660
vt 0.18388620 0.11806730
vt 0.58875380 0.11806730
vt 0.58875380 -0.18376660
vt 0.38973120 -0.18376660
vt 0.38973120 0.11806730
vt 0.38290890 0.11806730
vt 0.38290890 -0.18376660
vt 0.18388620 -0.18376660
vt 0.18388620 0.11806730
vt 0.11806730 0.73276080
vt -0.18376660 0.73276080
vt -0.18376660 0.61849140
vt 0.11806730 0.61849140
vt 0.38973120 0.61849140
vt 0.58875380 0.61849140
vt 0.58875380 0.73276080
vt 0.38973120 0.73276080
vt 0.18388620 0.61849140
vt 0.38290890 0.61849140
vt 0.38290890 0.73276080
vt 0.18388620 0.73276080
vt 0.18388620 0.36995270
vt 0.38290890 0.36995270
vt 0.38290890 0.48422210
vt 0.18388620 0.48422210
vt 0.18388620 0.49422200
vt 0.38290890 0.49422200
vt 0.38290890 0.60849140
vt 0.18388620 0.60849140
vt 0.38973120 0.36995270
vt 0.58875380 0.36995270
vt 0.58875380 0.48422210
vt 0.38973120 0.48422210
vt 0.38973120 0.49422200
vt 0.58875380 0.49422200
vt 0.58875380 0.60849140
vt 0.38973120 0.60849140
vt 0.18388620 0.11806730
vt 0.18388620 -0.18376660
vt 0.38290890 -0.18376660
vt 0.38290890 0.11806730
vt 0.18388620 0.11806730
vt 0.18388620 -0.18376660
vt 0.38290890 -0.18376660
vt 0.38290890 0.11806730
vt 0.58875380 0.11806730
vt 0.58875380 -0.18376660
vt 0.38973120 -0.18376660
vt 0.38973120 0.11806730
vt 0.11806730 0.60849140
vt -0.18376660 0.60849140
vt -0.18376660 0.49422200
vt 0.11806730 0.49422200
vt 0.11806730 0.48422210
vt -0.18376660 0.48422210
vt -0.18376660 0.36995270
vt 0.11806730 0.36995270
vt 0.38973120 0.11806730
vt 0.38973120 -0.18376660
vt 0.58875380 -0.18376660
vt 0.58875380 0.11806730
vt 0.11806730 0.49422200
vt -0.18376660 0.49422200
vt -0.18376660 0.60849140
vt 0.11806730 0.60849140
vt 0.18388620 0.11806730
vt 0.18388620 -0.18376660
vt 0.38290890 -0.18376660
vt 0.38290890 0.11806730
vt 0.11806730 0.36995270
vt -0.18376660 0.36995270
vt -0.18376660 0.48422210
vt 0.11806730 0.48422210
vt 0.11806730 0.73276080
vt -0.18376660 0.73276080
vt -0.18376660 0.61849140
vt 0.11806730 0.61849140
vt 0.11806730 0.49422200
vt -0.18376660 0.49422200
vt -0.18376660 0.60849140
vt 0.11806730 0.60849140
vt 0.58875380 0.11806730
vt 0.58875380 -0.18376660
vt 0.38973120 -0.18376660
vt 0.38973120 0.11806730
vt 0.11806730 0.61849140
vt -0.18376660 0.61849140
vt -0.18376660 0.73276080
vt 0.11806730 0.73276080
vt 0.11806730 0.36995270
vt -0.18376660 0.36995270
vt -0.18376660 0.48422210
vt 0.11806730 0.48422210
vt 0.38973120 0.11806730
vt 0.38973120 -0.18376660
vt 0.58875380 -0.18376660
vt 0.58875380 0.11806730
vt 0.11806730 0.61849140
vt -0.18376660 0.61849140
vt -0.18376660 0.73276080
vt 0.11806730 0.73276080
vt 0.11806730 0.60849140
vt -0.18376660 0.60849140
vt -0.18376660 0.49422200
vt 0.11806730 0.49422200
vt 0.38973120 0.11806730
vt 0.38973120 -0.18376660
vt 0.58875380 -0.18376660
vt 0.58875380 0.11806730
f 3/3/3 2/2/2 1/1/1
f 2/2/2 4/4/4 1/1/1
f 1/1/1 4/4/4 5/5/5
f 4/4/4 6/6/6 5/5/5
f 5/5/5 6/6/6 7/7/7
f 6/6/6 8/8/8 7/7/7
f 7/7/7 8/8/8 9/9/9
f 8/8/8 10/10/10 9/9/9
f 13/13/13 12/12/12 11/11/11
f 14/14/14 13/13/13 11/11/11
f 17/17/17 16/16/16 15/15/15
f 16/16/16 18/18/18 15/15/15
f 16/16/16 19/19/19 18/18/18
f 15/15/15 18/18/18 20/20/20
f 19/19/19 21/21/21 18/18/18
f 18/18/18 22/22/22 20/20/20
f 18/18/18 21/21/21 22/22/22
f 20/20/20 22/22/22 23/23/23
f 21/21/21 24/24/24 22/22/22
f 22/22/22 25/25/25 23/23/23
f 22/22/22 24/24/24 25/25/25
f 23/23/23 25/25/25 26/26/26
f 24/24/24 27/27/27 25/25/25
f 25/25/25 28/28/28 26/26/26
f 25/25/25 27/27/27 28/28/28
f 27/27/27 29/29/29 28/28/28
f 32/32/32 31/31/31 30/30/30
f 33/33/33 32/32/32 30/30/30
f 34/34/34 32/32/32 33/33/33
f 35/35/35 33/33/33 30/30/30
f 36/36/36 35/35/35 30/30/30
f 35/35/35 37/37/37 33/33/33
f 38/38/38 34/34/34 33/33/33
f 37/37/37 38/38/38 33/33/33
f 39/39/39 34/34/34 38/38/38
f 37/37/37 39/39/39 38/38/38
f 42/42/42 41/41/41 40/40/40
f 41/41/41 43/43/43 40/40/40
f 40/40/40 43/43/43 44/44/44
f 43/43/43 45/45/45 44/44/44
f 48/48/48 47/47/47 46/46/46
f 49/49/49 48/48/48 46/46/46
f 49/49/49 46/46/46 50/50/50
f 51/51/51 49/49/49 50/50/50
f 48/48/48 49/49/49 52/52/52
f 53/53/53 48/48/48 52/52/52
f 54/54/54 48/48/48 53/53/53
f 52/52/52 49/49/49 55/55/55
f 56/56/56 54/54/54 53/53/53
f 55/55/55 57/57/57 56/56/56
f 49/49/49 57/57/57 55/55/55
f 57/57/57 54/54/54 56/56/56
f 57/57/57 49/49/49 58/58/58
f 59/59/59 57/57/57 58/58/58
f 58/58/58 49/49/49 60/60/60
f 49/49/49 51/51/51 60/60/60
f 60/60/60 51/51/51 61/61/61
f 51/51/51 62/62/62 61/61/61
f 61/61/61 62/62/62 59/59/59
f 62/62/62 57/57/57 59/59/59
f 54/54/54 57/57/57 63/63/63
f 64/64/64 54/54/54 63/63/63
f 65/65/65 54/54/54 64/64/64
f 63/63/63 57/57/57 66/66/66
f 67/67/67 65/65/65 64/64/64
f 66/66/66 68/68/68 67/67/67
f 57/57/57 68/68/68 66/66/66
f 68/68/68 65/65/65 67/67/67
f 68/68/68 57/57/57 69/69/69
f 70/70/70 68/68/68 69/69/69
f 69/69/69 57/57/57 71/71/71
f 57/57/57 62/62/62 71/71/71
f 71/71/71 62/62/62 72/72/72
f 62/62/62 73/73/73 72/72/72
f 72/72/72 73/73/73 70/70/70
f 73/73/73 68/68/68 70/70/70
f 65/65/65 68/68/68 74/74/74
f 75/75/75 65/65/65 74/74/74
f 76/76/76 65/65/65 75/75/75
f 77/77/77 76/76/76 75/75/75
f 78/78/78 76/76/76 77/77/77
f 74/74/74 68/68/68 79/79/79
f 79/79/79 78/78/78 77/77/77
f 68/68/68 78/78/78 79/79/79
f 68/68/68 73/73/73 80/80/80
f 80/80/80 73/73/73 81/81/81
f 82/82/82 68/68/68 80/80/80
f 78/78/78 68/68/68 82/82/82
f 73/73/73 83/83/83 81/81/81
f 84/84/84 78/78/78 82/82/82
f 81/81/81 83/83/83 84/84/84
f 83/83/83 78/78/78 84/84/84
f 87/87/87 86/86/86 85/85/85
f 88/88/88 87/87/87 85/85/85
f 91/91/91 90/90/90 89/89/89
f 92/92/92 91/91/91 89/89/89
f 92/92/92 89/89/89 93/93/93
f 94/94/94 92/92/92 93/93/93
f 97/97/97 96/96/96 95/95/95
f 98/98/98 97/97/97 95/95/95
f 101/101/101 100/100/100 99/99/99
f 102/102/102 101/101/101 99/99/99
f 102/102/102 99/99/99 103/103/103
f 104/104/104 102/102/102 103/103/103
f 107/107/107 106/106/106 105/105/105
f 108/108/108 107/107/107 105/105/105
f 111/111/111 110/110/110 109/109/109
f 110/110/110 112/112/112 109/109/109
f 110/110/110 113/113/113 112/112/112
f 113/113/113 114/114/114 112/112/112
f 113/113/113 115/115/115 114/114/114
f 115/115/115 116/116/116 114/114/114
f 119/119/119 118/118/118 117/117/117
f 118/118/118 120/120/120 117/117/117
f 118/118/118 121/121/121 120/120/120
f 121/121/121 122/122/122 120/120/120
f 121/121/121 123/123/123 122/122/122
f 123/123/123 124/124/124 122/122/122
f 127/127/127 126/126/126 125/125/125
f 128/128/128 127/127/127 125/125/125
f 128/128/128 125/125/125 129/129/129
f 130/130/130 128/128/128 129/129/129
f 130/130/130 129/129/129 131/131/131
f 132/132/132 130/130/130 131/131/131
f 135/135/135 134/134/134 133/133/133
f 136/136/136 135/135/135 133/133/133
f 139/139/139 138/138/138 137/137/137
f 140/140/140 139/139/139 137/137/137
f 143/143/143 142/142/142 141/141/141
f 144/144/144 143/143/143 141/141/141
f 147/147/147 146/146/146 145/145/145
f 148/148/148 147/147/147 145/145/145
f 151/151/151 150/150/150 149/149/149
f 152/152/152 151/151/151 149/149/149
f 155/155/155 154/154/154 153/153/153
f 156/156/156 155/155/155 153/153/153
f 159/159/159 158/158/158 157/157/157
f 160/160/160 159/159/159 157/157/157
f 163/163/163 162/162/162 161/161/161
f 164/164/164 163/163/163 161/161/161
f 167/167/167 166/166/166 165/165/165
f 168/168/168 167/167/167 165/165/165
f 171/171/171 170/170/170 169/169/169
f 172/172/172 171/171/171 169/169/169
f 175/175/175 174/174/174 173/173/173
f 176/176/176 175/175/175 173/173/173
f 179/179/179 178/178/178 177/177/177
f 180/180/180 179/179/179 177/177/177
f 183/183/183 182/182/182 181/181/181
f 184/184/184 183/183/183 181/181/181
f 187/187/187 186/186/186 185/185/185
f 188/188/188 187/187/187 185/185/185
f 191/191/191 190/190/190 189/189/189
f 192/192/192 191/191/191 189/189/189
f 195/195/195 194/194/194 193/193/193
f 196/196/196 195/195/195 193/193/193
f 199/199/199 198/198/198 197/197/197
f 200/200/200 199/199/199 197/197/197
f 203/203/203 202/202/202 201/201/201
f 204/204/204 203/203/203 201/201/201
f 207/207/207 206/206/206 205/205/205
f 208/208/208 207/207/207 205/205/205
f 211/211/211 210/210/210 209/209/209
f 212/212/212 211/211/211 209/209/209
f 215/215/215 214/214/214 213/213/213
f 216/216/216 215/215/215 213/213/213
f 219/219/219 218/218/218 217/217/217
f 220/220/220 219/219/219 217/217/217
f 223/223/223 222/222/222 221/221/221
f 224/224/224 223/223/223 221/221/221
f 227/227/227 226/226/226 225/225/225
f 228/228/228 227/227/227 225/225/225
f 231/231/231 230/230/230 229/229/229
f 232/232/232 231/231/231 229/229/229
f 235/235/235 234/234/234 233/233/233
f 236/236/236 235/235/235 233/233/233
f 239/239/239 238/238/238 237/237/237
f 240/240/240 239/239/239 237/237/237
f 243/243/243 242/242/242 241/241/241
f 244/244/244 243/243/243 241/241/241
f 247/247/247 246/246/246 245/245/245
f 246/246/246 248/248/248 245/245/245
f 245/245/245 248/248/248 249/249/249
f 248/248/248 250/250/250 249/249/249
f 249/249/249 250/250/250 251/251/251
f 250/250/250 252/252/252 251/251/251
f 251/251/251 252/252/252 253/253/253
f 252/252/252 254/254/254 253/253/253
f 257/257/257 256/256/256 255/255/255
f 258/258/258 257/257/257 255/255/255
f 261/261/261 260/260/260 259/259/259
f 260/260/260 262/262/262 259/259/259
f 259/259/259 262/262/262 263/263/263
f 262/262/262 264/264/264 263/263/263
f 263/263/263 264/264/264 265/265/265
f 264/264/264 266/266/266 265/265/265
f 265/265/265 266/266/266 267/267/267
f 266/266/266 268/268/268 267/267/267
f 271/271/271 270/270/270 269/269/269
f 270/270/270 272/272/272 269/269/269
f 270/270/270 273/273/273 272/272/272
f 269/269/269 272/272/272 274/274/274
f 273/273/273 275/275/275 272/272/272
f 272/272/272 276/276/276 274/274/274
f 272/272/272 275/275/275 276/276/276
f 274/274/274 276/276/276 277/277/277
f 275/275/275 278/278/278 276/276/276
f 276/276/276 279/279/279 277/277/277
f 276/276/276 278/278/278 279/279/279
f 277/277/277 279/279/279 280/280/280
f 278/278/278 281/281/281 279/279/279
f 279/279/279 282/282/282 280/280/280
f 279/279/279 281/281/281 282/282/282
f 281/281/281 283/283/283 282/282/282
f 286/286/286 285/285/285 284/284/284
f 287/287/287 286/286/286 284/284/284
f 288/288/288 286/286/286 287/287/287
f 289/289/289 287/287/287 284/284/284
f 290/290/290 289/289/289 284/284/284
f 289/289/289 291/291/291 287/287/287
f 292/292/292 288/288/288 287/287/287
f 291/291/291 292/292/292 287/287/287
f 293/293/293 288/288/288 292/292/292
f 291/291/291 293/293/293 292/292/292
f 296/296/296 295/295/295 294/294/294
f 295/295/295 297/297/297 294/294/294
f 294/294/294 297/297/297 298/298/298
f 297/297/297 299/299/299 298/298/298
f 302/302/302 301/301/301 300/300/300
f 303/303/303 302/302/302 300/300/300
f 303/303/303 300/300/300 304/304/304
f 305/305/305 303/303/303 304/304/304
f 302/302/302 303/303/303 306/306/306
f 307/307/307 302/302/302 306/306/306
f 308/308/308 302/302/302 307/307/307
f 306/306/306 303/303/303 309/309/309
f 310/310/310 308/308/308 307/307/307
f 309/309/309 311/311/311 310/310/310
f 303/303/303 311/311/311 309/309/309
f 311/311/311 308/308/308 310/310/310
f 311/311/311 303/303/303 312/312/312
f 313/313/313 311/311/311 312/312/312
f 312/312/312 303/303/303 314/314/314
f 303/303/303 305/305/305 314/314/314
f 314/314/314 305/305/305 315/315/315
f 305/305/305 316/316/316 315/315/315
f 315/315/315 316/316/316 313/313/313
f 316/316/316 311/311/311 313/313/313
f 308/308/308 311/311/311 317/317/317
f 318/318/318 308/308/308 317/317/317
f 319/319/319 308/308/308 318/318/318
f 317/317/317 311/311/311 320/320/320
f 321/321/321 319/319/319 318/318/318
f 320/320/320 322/322/322 321/321/321
f 311/311/311 322/322/322 320/320/320
f 322/322/322 319/319/319 321/321/321
f 322/322/322 311/311/311 323/323/323
f 324/324/324 322/322/322 323/323/323
f 323/323/323 311/311/311 325/325/325
f 311/311/311 316/316/316 325/325/325
f 325/325/325 316/316/316 326/326/326
f 316/316/316 327/327/327 326/326/326
f 326/326/326 327/327/327 324/324/324
f 327/327/327 322/322/322 324/324/324
f 319/319/319 322/322/322 328/328/328
f 329/329/329 319/319/319 328/328/328
f 330/330/330 319/319/319 329/329/329
f 331/331/331 330/330/330 329/329/329
f 332/332/332 330/330/330 331/331/331
f 328/328/328 322/322/322 333/333/333
f 333/333/333 332/332/332 331/331/331
f 322/322/322 332/332/332 333/333/333
f 322/322/322 327/327/327 334/334/334
f 334/334/334 327/327/327 335/335/335
f 336/336/336 322/322/322 334/334/334
f 332/332/332 322/322/322 336/336/336
f 327/327/327 337/337/337 335/335/335
f 338/338/338 332/332/332 336/336/336
f 335/335/335 337/337/337 338/338/338
f 337/337/337 332/332/332 338/338/338
f 341/341/341 340/340/340 339/339/339
f 342/342/342 341/341/341 339/339/339
f 345/345/345 344/344/344 343/343/343
f 346/346/346 345/345/345 343/343/343
f 346/346/346 343/343/343 347/347/347
f 348/348/348 346/346/346 347/347/347
f 351/351/351 350/350/350 349/349/349
f 352/352/352 351/351/351 349/349/349
f 355/355/355 354/354/354 353/353/353
f 356/356/356 355/355/355 353/353/353
f 356/356/356 353/353/353 357/357/357
f 358/358/358 356/356/356 357/357/357
f 361/361/361 360/360/360 359/359/359
f 362/362/362 361/361/361 359/359/359
f 365/365/365 364/364/364 363/363/363
f 364/364/364 366/366/366 363/363/363
f 364/364/364 367/367/367 366/366/366
f 367/367/367 368/368/368 366/366/366
f 367/367/367 369/369/369 368/368/368
f 369/369/369 370/370/370 368/368/368
f 373/373/373 372/372/372 371/371/371
f 372/372/372 374/374/374 371/371/371
f 372/372/372 375/375/375 374/374/374
f 375/375/375 376/376/376 374/374/374
f 375/375/375 377/377/377 376/376/376
f 377/377/377 378/378/378 376/376/376
f 381/381/381 380/380/380 379/379/379
f 382/382/382 381/381/381 379/379/379
f 382/382/382 379/379/379 383/383/383
f 384/384/384 382/382/382 383/383/383
f 384/384/384 383/383/383 385/385/385
f 386/386/386 384/384/384 385/385/385
f 389/389/389 388/388/388 387/387/387
f 390/390/390 389/389/389 387/387/387
f 393/393/393 392/392/392 391/391/391
f 394/394/394 393/393/393 391/391/391
f 397/397/397 396/396/396 395/395/395
f 398/398/398 397/397/397 395/395/395
f 401/401/401 400/400/400 399/399/399
f 402/402/402 401/401/401 399/399/399
f 405/405/405 404/404/404 403/403/403
f 406/406/406 405/405/405 403/403/403
f 409/409/409 408/408/408 407/407/407
f 410/410/410 409/409/409 407/407/407
f 413/413/413 412/412/412 411/411/411
f 414/414/414 413/413/413 411/411/411
f 417/417/417 416/416/416 415/415/415
f 418/418/418 417/417/417 415/415/415
f 421/421/421 420/420/420 419/419/419
f 422/422/422 421/421/421 419/419/419
f 425/425/425 424/424/424 423/423/423
f 426/426/426 425/425/425 423/423/423
f 429/429/429 428/428/428 427/427/427
f 430/430/430 429/429/429 427/427/427
f 433/433/433 432/432/432 431/431/431
f 434/434/434 433/433/433 431/431/431
f 437/437/437 436/436/436 435/435/435
f 438/438/438 437/437/437 435/435/435
f 441/441/441 440/440/440 439/439/439
f 442/442/442 441/441/441 439/439/439
f 445/445/445 444/444/444 443/443/443
f 446/446/446 445/445/445 443/443/443
f 449/449/449 448/448/448 447/447/447
f 450/450/450 449/449/449 447/447/447
f 453/453/453 452/452/452 451/451/451
f 454/454/454 453/453/453 451/451/451
f 457/457/457 456/456/456 455/455/455
f 458/458/458 457/457/457 455/455/455
f 461/461/461 460/460/460 459/459/459
f 462/462/462 461/461/461 459/459/459
f 465/465/465 464/464/464 463/463/463
f 466/466/466 465/465/465 463/463/463
f 469/469/469 468/468/468 467/467/467
f 470/470/470 469/469/469 467/467/467
f 473/473/473 472/472/472 471/471/471
f 474/474/474 473/473/473 471/471/471
f 477/477/477 476/476/476 475/475/475
f 478/478/478 477/477/477 475/475/475
f 481/481/481 480/480/480 479/479/479
f 482/482/482 481/481/481 479/479/479
f 485/485/485 484/484/484 483/483/483
f 486/486/486 485/485/485 483/483/483
f 489/489/489 488/488/488 487/487/487
f 490/490/490 489/489/489 487/487/487
f 493/493/493 492/492/492 491/491/491
f 494/494/494 493/493/493 491/491/491
f 497/497/497 496/496/496 495/495/495
f 498/498/498 497/497/497 495/495/495

