# Blender 4.0.0
# www.blender.org
o decimated_mesh
v 0.026990 0.860540 0.025426
v 0.025137 0.848420 0.025376
v 0.021676 0.860531 0.025472
v 0.021609 0.848424 0.025472
v 0.013003 0.860531 0.001707
v 0.022136 0.860496 0.008545
v 0.013243 0.848418 0.002558
v 0.018660 0.848420 0.005830
vn 0.0271 -0.0001 0.9996
vn 0.9394 -0.0052 -0.3428
vn -0.5164 0.0499 0.8549
vn -0.9304 0.1985 0.3083
vn 0.0086 -0.0054 0.9999
vn 0.0053 1.0000 -0.0019
vn -0.0017 1.0000 -0.0021
vn -0.0005 1.0000 0.0002
vn 0.0011 1.0000 -0.0007
vn 0.9393 -0.0055 -0.3429
vn -0.5993 -0.0074 0.8005
vn -0.9511 0.1443 0.2731
vn 0.0073 1.0000 -0.0047
vn -0.0017 1.0000 0.0006
vn 0.0086 -0.0000 1.0000
vn 0.0271 -0.0082 0.9996
vn 0.9394 -0.0055 -0.3428
vn 0.9393 -0.0052 -0.3429
s 0
f 2//1 3//1 4//1
f 5//2 3//2 4//2
f 5//3 7//3 8//3
f 2//4 6//4 8//4
f 2//5 1//5 3//5
f 5//6 3//6 6//6
f 6//7 3//7 1//7
f 8//8 7//8 2//8
f 4//9 2//9 7//9
f 5//10 4//10 7//10
f 5//11 8//11 6//11
f 2//12 1//12 6//12
f 6//13 5//13 1//13
f 5//14 3//14 1//14
f 3//15 4//15 1//15
f 4//16 2//16 1//16
f 7//17 5//17 3//17
f 7//18 3//18 4//18
