# Blender 4.0.0
# www.blender.org
o decimated_mesh
v 0.024921 0.822006 0.015808
v 0.001171 0.821904 -0.000632
v 0.027473 0.822612 0.025470
v 0.018698 0.822196 0.006138
v 0.024419 0.822322 0.025520
v 0.021795 0.822478 0.009810
v 0.025217 0.823843 0.015181
v 0.001259 0.823917 -0.001611
v 0.006198 0.822300 -0.000509
v 0.013530 0.822294 0.002298
v 0.001257 0.825311 0.003777
v 0.018547 0.848428 0.005734
v 0.023113 0.848423 0.017335
v 0.011346 0.848428 0.000958
v 0.001256 0.848423 0.001120
v 0.021738 0.825131 0.025517
v 0.024720 0.848423 0.025501
v 0.008919 0.823922 -0.000052
v 0.001256 0.848421 0.003923
v 0.021608 0.848423 0.025517
vn 0.5964 -0.0089 -0.8027
vn 0.9743 0.1011 -0.2015
vn 0.8409 0.0203 -0.5409
vn 0.4169 -0.8630 -0.2853
vn 0.1994 0.0206 -0.9797
vn 0.0818 -0.9730 -0.2160
vn 0.8385 -0.2922 -0.4599
vn 0.0565 -0.4387 -0.8968
vn 0.0948 -0.9948 0.0374
vn -0.5995 -0.5718 0.5600
vn 0.3387 -0.3185 -0.8853
vn 0.7645 -0.0055 -0.6446
vn 0.1992 -0.0584 -0.9782
vn 0.7277 0.0044 -0.6859
vn 0.4518 -0.0080 -0.8921
vn 0.5527 0.0035 -0.8334
vn 0.0548 -0.9936 -0.0989
vn 0.0322 -0.9987 -0.0403
vn 0.9992 -0.0387 0.0104
vn 1.0000 0.0001 -0.0000
vn 1.0000 0.0001 0.0003
vn 0.9758 0.1043 -0.1920
vn -0.0160 0.1107 -0.9937
vn 0.0081 -0.0004 1.0000
vn 0.0051 -0.0000 1.0000
vn 0.0150 0.0153 0.9998
vn -0.0005 1.0000 0.0009
vn -0.0001 1.0000 -0.0000
vn 0.0001 1.0000 -0.0000
vn -0.0005 1.0000 0.0006
vn -0.0005 1.0000 0.0008
vn 0.9439 -0.2323 -0.2348
vn -0.5641 -0.6480 0.5118
vn -0.0177 -0.9993 0.0317
vn 0.9248 0.1111 -0.3639
vn 0.7279 0.0040 -0.6857
vn -0.9998 -0.0002 0.0197
vn -1.0000 0.0032 -0.0000
vn -0.9973 0.0080 -0.0733
vn 0.0164 0.0005 0.9999
vn 0.0051 0.0007 1.0000
vn -0.0010 -0.0000 1.0000
vn 0.7279 0.0044 -0.6857
vn 0.7277 0.0040 -0.6859
vn -0.0011 1.0000 0.0009
vn -0.0004 1.0000 0.0003
vn -0.0005 1.0000 0.0007
vn 0.0008 1.0000 0.0001
s 0
f 10//1 12//1 4//1
f 13//2 3//2 7//2
f 12//3 7//3 6//3
f 1//4 4//4 6//4
f 14//5 18//5 8//5
f 2//6 9//6 10//6
f 7//7 1//7 6//7
f 8//8 9//8 2//8
f 3//9 5//9 1//9
f 11//10 5//10 16//10
f 18//11 10//11 9//11
f 4//12 12//12 6//12
f 18//13 9//13 8//13
f 11//14 19//14 20//14
f 18//15 14//15 10//15
f 10//16 14//16 12//16
f 10//17 4//17 2//17
f 2//18 4//18 1//18
f 2//19 8//19 11//19
f 11//20 15//20 19//20
f 15//21 11//21 8//21
f 13//22 17//22 3//22
f 15//23 14//23 8//23
f 3//24 17//24 16//24
f 17//25 20//25 16//25
f 16//26 5//26 3//26
f 15//27 19//27 14//27
f 19//28 20//28 13//28
f 17//29 13//29 20//29
f 13//30 12//30 19//30
f 12//31 14//31 19//31
f 7//32 3//32 1//32
f 11//33 2//33 5//33
f 5//34 2//34 1//34
f 7//35 12//35 13//35
f 11//36 20//36 16//36
f 11//37 19//37 2//37
f 19//38 15//38 2//38
f 15//39 8//39 2//39
f 3//40 17//40 5//40
f 17//41 20//41 5//41
f 20//42 16//42 5//42
f 16//43 11//43 19//43
f 16//44 19//44 20//44
f 20//45 15//45 19//45
f 20//46 12//46 15//46
f 12//47 14//47 15//47
f 20//48 13//48 12//48
