# Blender 4.0.0
# www.blender.org
o decimated_mesh
v 0.000042 1.018833 -0.211674
v 0.000003 1.016951 -0.210678
v 0.008478 1.015781 -0.209501
v 0.003351 1.018691 -0.212501
v 0.000015 1.018494 -0.215406
v 0.000003 1.014656 -0.211399
v 0.010967 1.005231 -0.204478
v 0.013796 1.010426 -0.207579
v 0.009878 1.015412 -0.210127
v 0.008526 1.016261 -0.213458
v 0.007675 1.015344 -0.215265
v 0.014142 1.005246 -0.204419
v 0.011773 1.013737 -0.211052
v 0.011670 1.012552 -0.213102
v 0.008169 1.012879 -0.215156
v 0.000003 1.013798 -0.213771
v 0.010410 1.005243 -0.209785
v 0.015151 1.005275 -0.207970
v 0.013907 1.010460 -0.210887
v 0.011708 1.009394 -0.212873
v 0.013859 1.005205 -0.210509
v 0.000003 1.014734 -0.215776
vn 0.4326 0.9000 0.0538
vn 0.1669 0.8348 0.5247
vn 0.2236 0.5184 0.8254
vn 0.9672 0.2518 0.0350
vn 0.4448 0.6593 0.6062
vn 0.3545 0.8969 0.2642
vn 0.6845 -0.0584 -0.7266
vn -0.0580 0.4677 0.8820
vn -0.0185 0.4263 0.9044
vn 0.0048 0.9995 -0.0298
vn 0.7050 0.6712 0.2291
vn 0.0688 -0.0305 -0.9972
vn 0.3273 0.7716 -0.5455
vn 0.3194 0.8474 -0.4241
vn 0.7256 0.5793 -0.3714
vn 0.6561 0.5020 -0.5635
vn 0.9366 0.2260 0.2679
vn -0.6487 -0.7581 0.0665
vn -0.6519 -0.2271 0.7235
vn 0.8368 0.5465 0.0336
vn 0.7983 0.5032 -0.3310
vn 0.5012 -0.0567 -0.8635
vn 0.1616 -0.4207 -0.8927
vn 0.0201 0.9957 -0.0905
vn -0.5036 -0.7828 -0.3654
vn 0.8911 -0.0405 -0.4521
vn 0.5094 0.0639 -0.8582
vn -0.1632 -0.6484 -0.7436
vn -1.0000 0.0029 0.0013
vn -1.0000 0.0021 -0.0008
vn -1.0000 0.0007 -0.0022
vn -0.9997 0.0234 0.0052
vn -0.0616 -0.5499 -0.8329
vn 0.6815 -0.0448 -0.7305
vn -0.0686 0.4157 0.9069
vn -0.0078 1.0000 0.0031
vn -0.0046 1.0000 0.0068
vn 0.0584 0.0975 -0.9935
vn -0.7151 -0.6574 0.2377
vn 0.6425 0.7634 -0.0662
vn -1.0000 0.0031 -0.0014
vn -1.0000 -0.0000 -0.0000
vn 0.0112 0.9999 0.0010
vn -0.0044 1.0000 -0.0064
vn -0.0446 0.9990 -0.0046
s 0
f 10//1 4//1 9//1
f 1//2 3//2 4//2
f 3//3 12//3 8//3
f 19//4 8//4 18//4
f 3//5 8//5 9//5
f 3//6 9//6 4//6
f 20//7 19//7 21//7
f 2//8 3//8 1//8
f 3//9 7//9 12//9
f 17//10 18//10 21//10
f 9//11 8//11 13//11
f 15//12 22//12 11//12
f 10//13 11//13 5//13
f 10//14 5//14 4//14
f 10//15 13//15 14//15
f 10//16 14//16 11//16
f 18//17 8//17 12//17
f 7//18 16//18 17//18
f 7//19 2//19 6//19
f 8//20 19//20 13//20
f 13//21 19//21 14//21
f 15//22 14//22 20//22
f 15//23 20//23 21//23
f 5//24 1//24 4//24
f 22//25 17//25 16//25
f 18//26 21//26 19//26
f 14//27 15//27 11//27
f 22//28 21//28 17//28
f 22//29 16//29 5//29
f 16//30 6//30 5//30
f 6//31 2//31 5//31
f 2//32 1//32 5//32
f 21//33 22//33 15//33
f 20//34 14//34 19//34
f 2//35 7//35 3//35
f 7//36 18//36 17//36
f 18//37 7//37 12//37
f 5//38 11//38 22//38
f 6//39 16//39 7//39
f 9//40 13//40 10//40
f 22//41 2//41 5//41
f 22//42 16//42 6//42
f 22//42 6//42 2//42
f 17//43 7//43 21//43
f 21//44 7//44 12//44
f 21//45 12//45 18//45
