# Blender 4.0.0
# www.blender.org
o decimated_mesh
v -0.000187 0.863369 -0.006187
v 0.000010 0.860540 -0.001069
v -0.012917 0.860530 0.000970
v -0.013933 0.863695 -0.002589
v 0.000006 0.867181 -0.005284
v -0.011720 0.866337 -0.003391
v 0.000010 0.860540 0.003595
v -0.021112 0.866390 0.002561
v -0.014809 0.868070 0.000098
v -0.015383 0.860540 0.008537
v 0.000010 0.868041 0.002307
v -0.015751 0.868041 0.008537
v -0.021655 0.864378 0.002626
v -0.021374 0.860516 0.008463
v -0.025750 0.863719 0.008534
v -0.025095 0.867300 0.008514
vn -0.1714 0.2354 -0.9567
vn -0.1814 -0.7599 -0.6242
vn -0.0008 1.0000 -0.0000
vn -0.0018 -0.0084 1.0000
vn -0.5250 0.1876 -0.8302
vn -0.8205 0.1471 -0.5524
vn 0.3630 0.1578 0.9183
vn 0.3056 0.0150 0.9520
vn -0.5482 0.1208 -0.8276
vn -0.5323 -0.7176 -0.4491
vn -0.8006 0.1974 -0.5657
vn 0.4556 0.7257 0.5155
vn 1.0000 0.0003 -0.0006
vn 1.0000 -0.0000 -0.0000
vn 0.9976 -0.0365 -0.0586
vn -0.2543 -0.0798 -0.9638
vn -0.0005 1.0000 -0.0015
vn -0.0040 1.0000 -0.0027
vn -0.1470 0.8278 -0.5414
vn -0.4246 0.6030 -0.6754
vn 0.0187 0.9935 -0.1125
vn -0.0791 0.9969 -0.0054
vn 0.0014 1.0000 0.0036
vn 0.0178 0.0023 0.9998
vn -0.0122 -0.0006 0.9999
vn -0.3738 0.8463 -0.3795
vn -0.0751 -0.8740 -0.4802
vn 0.4007 0.7729 0.4921
vn -0.0011 1.0000 -0.0000
vn -0.0006 1.0000 0.0011
vn 0.4279 0.7631 0.4843
vn 0.4238 0.7335 0.5315
vn -0.0039 0.9999 -0.0120
vn -0.0121 -0.0385 0.9992
vn -0.0029 0.0061 1.0000
vn -0.0003 -0.0000 1.0000
s 0
f 1//1 6//1 5//1
f 3//2 4//2 1//2
f 3//3 7//3 2//3
f 16//4 14//4 12//4
f 6//5 4//5 8//5
f 15//6 16//6 13//6
f 7//7 11//7 12//7
f 7//8 12//8 10//8
f 4//9 13//9 8//9
f 13//10 14//10 15//10
f 13//11 16//11 8//11
f 14//12 3//12 4//12
f 5//13 11//13 2//13
f 11//14 7//14 2//14
f 2//15 1//15 5//15
f 1//16 4//16 6//16
f 7//17 3//17 10//17
f 3//18 14//18 10//18
f 5//19 6//19 9//19
f 9//20 6//20 8//20
f 5//21 9//21 11//21
f 9//22 16//22 12//22
f 12//23 11//23 9//23
f 15//24 14//24 16//24
f 14//25 10//25 12//25
f 16//26 9//26 8//26
f 2//27 3//27 1//27
f 14//28 4//28 13//28
f 7//29 2//29 14//29
f 14//30 2//30 3//30
f 14//31 3//31 13//31
f 13//32 3//32 4//32
f 10//33 7//33 14//33
f 10//34 15//34 14//34
f 15//35 12//35 16//35
f 15//36 10//36 12//36
