# Blender 4.0.0
# www.blender.org
o decimated_mesh
v -0.013060 0.822390 0.001534
v -0.013468 0.822375 0.005480
v 0.001275 0.821965 -0.001460
v 0.001165 0.826135 0.004314
v 0.001390 0.848490 0.002954
v -0.013232 0.848440 0.001603
v -0.013337 0.848418 0.006042
vn 0.2467 -0.7834 0.5704
vn -0.0310 -0.9995 -0.0068
vn 0.0850 -0.0219 0.9961
vn 0.0902 0.1631 -0.9825
vn 0.9996 -0.0085 0.0252
vn 0.2046 0.0574 0.9772
vn -0.9997 0.0055 -0.0238
vn -0.9947 -0.0063 -0.1028
vn -0.2044 0.0013 -0.9789
vn -0.0039 1.0000 0.0051
s 0
f 3//1 4//1 2//1
f 3//2 2//2 1//2
f 4//3 7//3 2//3
f 5//4 3//4 6//4
f 5//5 4//5 3//5
f 7//6 4//6 5//6
f 2//7 7//7 6//7
f 1//8 2//8 6//8
f 6//9 3//9 1//9
f 5//10 6//10 7//10
