# Blender 4.0.0
# www.blender.org
o decimated_mesh
v 0.029164 0.868041 0.025585
v 0.023167 0.868041 0.025595
v 0.026905 0.868042 0.014512
v 0.022819 0.871358 0.016135
v 0.024445 0.871424 0.025592
v 0.000010 0.875394 0.025595
v 0.000010 0.868041 0.002310
v 0.000015 0.878231 0.025595
v 0.000024 0.868041 -0.003548
v 0.020677 0.868040 0.004951
v 0.017191 0.874552 0.019013
v 0.016970 0.871490 0.007972
v 0.013295 0.874707 0.013390
v 0.010733 0.876996 0.025591
v 0.017632 0.874792 0.025594
v 0.000023 0.870822 0.000117
v 0.006804 0.877743 0.025595
v 0.008506 0.871408 0.002541
v 0.009522 0.875158 0.011896
v 0.007888 0.877380 0.020365
v 0.004844 0.877104 0.016394
v 0.000015 0.877447 0.016446
v 0.011386 0.868058 -0.001383
v 0.000021 0.874588 0.007244
v 0.006425 0.874528 0.008399
vn 0.5109 0.7925 -0.3330
vn 0.2406 0.8895 -0.3884
vn -0.0001 -1.0000 -0.0000
vn -0.0000 -0.0001 1.0000
vn -0.2898 -0.9127 0.2882
vn 0.0717 0.9959 -0.0543
vn -1.0000 0.0031 -0.0019
vn 0.3866 0.8840 -0.2627
vn 0.0883 0.8918 -0.4437
vn 0.1866 0.9820 -0.0295
vn 0.5793 0.8083 -0.1052
vn 0.0620 0.9535 -0.2949
vn 0.4828 0.8101 -0.3328
vn 0.2437 0.8975 -0.3676
vn -0.0015 1.0000 -0.0000
vn -0.0004 1.0000 0.0034
vn -0.0003 1.0000 -0.0000
vn -0.0000 1.0000 0.0001
vn 0.0003 0.0008 1.0000
vn 0.0007 -0.0019 1.0000
vn 0.0017 0.0002 1.0000
vn 0.0007 0.0006 1.0000
vn -0.0007 -0.0005 1.0000
vn 0.0692 0.9901 -0.1220
vn 0.2790 0.9568 -0.0817
vn 0.2661 0.9509 -0.1581
vn 0.3010 0.8231 -0.4816
vn 0.3397 0.7992 -0.4959
vn 0.0510 0.9951 -0.0852
vn -1.0000 0.0028 -0.0024
vn -1.0000 0.0010 -0.0003
vn -1.0000 0.0018 -0.0001
vn -1.0000 0.0027 -0.0015
vn 0.1132 0.7916 -0.6005
vn 0.1150 0.7956 -0.5948
vn 0.3039 0.9511 -0.0551
vn 0.3830 0.8918 -0.2407
vn 0.0722 0.8818 -0.4660
vn 0.1924 0.9577 -0.2141
vn 0.1986 0.9567 -0.2127
vn 0.2598 0.8838 -0.3892
vn 0.4423 0.8947 -0.0623
vn 0.4585 0.8846 -0.0850
vn 0.5960 0.7938 -0.1215
vn 0.0647 0.9530 -0.2961
vn 0.1247 0.9513 -0.2818
vn -0.0029 1.0000 0.0071
vn -0.0000 1.0000 -0.0000
vn -0.0006 1.0000 0.0002
vn 0.0648 0.9535 -0.2943
vn 0.0623 0.9531 -0.2961
vn 0.0001 0.0001 1.0000
vn 0.2425 0.8944 -0.3758
vn 0.2509 0.8975 -0.3627
vn -0.0000 -0.0000 1.0000
vn 0.0032 0.0117 0.9999
s 0
f 3//1 10//1 4//1
f 12//2 18//2 25//2
f 2//3 7//3 10//3
f 17//4 8//4 6//4
f 2//5 6//5 7//5
f 8//6 17//6 20//6
f 24//7 16//7 7//7
f 12//8 13//8 4//8
f 24//9 25//9 18//9
f 14//10 20//10 17//10
f 5//11 1//11 4//11
f 25//12 24//12 21//12
f 12//13 4//13 10//13
f 25//14 13//14 12//14
f 9//15 7//15 23//15
f 23//16 7//16 10//16
f 10//17 2//17 3//17
f 3//18 2//18 1//18
f 6//19 2//19 14//19
f 17//20 6//20 14//20
f 1//21 5//21 2//21
f 5//22 15//22 2//22
f 15//23 14//23 2//23
f 22//24 20//24 21//24
f 20//25 14//25 11//25
f 11//26 13//26 20//26
f 18//27 12//27 23//27
f 12//28 10//28 23//28
f 20//29 22//29 8//29
f 16//30 9//30 7//30
f 7//31 6//31 22//31
f 22//32 6//32 8//32
f 22//33 24//33 7//33
f 9//34 16//34 23//34
f 16//35 18//35 23//35
f 11//36 14//36 15//36
f 13//37 11//37 4//37
f 18//38 16//38 24//38
f 21//39 20//39 19//39
f 20//40 13//40 19//40
f 13//41 25//41 19//41
f 11//42 15//42 5//42
f 5//43 4//43 11//43
f 1//44 3//44 4//44
f 24//45 22//45 21//45
f 21//46 19//46 25//46
f 23//47 9//47 10//47
f 10//48 9//48 7//48
f 3//49 10//49 1//49
f 1//48 10//48 2//48
f 2//4 8//4 6//4
f 21//50 25//50 22//50
f 25//51 24//51 22//51
f 15//52 8//52 2//52
f 25//53 19//53 12//53
f 19//54 13//54 12//54
f 15//55 17//55 8//55
f 14//56 17//56 15//56
