# Blender 4.0.0
# www.blender.org
o decimated_mesh
v -0.029190 0.868041 0.025596
v -0.023152 0.868041 0.025595
v 0.000010 0.875394 0.025595
v 0.000010 0.868041 0.048817
v -0.026733 0.868041 0.037146
v 0.000010 0.878191 0.025595
v -0.000004 0.868041 0.054658
v -0.022770 0.871393 0.034882
v -0.021098 0.873340 0.025595
v -0.017129 0.874517 0.032307
v -0.006505 0.877434 0.032279
v -0.000003 0.870904 0.050888
v -0.017236 0.871447 0.042984
v 0.000004 0.877328 0.035166
v -0.008593 0.871436 0.048519
v -0.011400 0.868060 0.052465
v -0.020529 0.868041 0.046247
v -0.009431 0.877365 0.025602
v 0.000002 0.874549 0.043960
v -0.006417 0.874535 0.042691
v -0.012484 0.874847 0.038062
vn -0.0006 0.0001 1.0000
vn -0.2897 0.9125 0.2889
vn 1.0000 0.0029 0.0022
vn -0.1155 0.7938 0.5971
vn -0.3771 0.8913 0.2517
vn -0.1031 0.9580 0.2677
vn -0.2631 0.9590 0.1053
vn 0.0008 -0.0000 1.0000
vn 0.0005 -0.0015 1.0000
vn -0.0003 0.0003 -1.0000
vn -0.0000 1.0000 -0.0000
vn 0.0005 1.0000 -0.0037
vn 0.0017 1.0000 -0.0000
vn -0.0001 1.0000 -0.0001
vn 1.0000 0.0027 0.0025
vn 1.0000 0.0012 0.0004
vn 1.0000 -0.0000 0.0006
vn 1.0000 0.0018 0.0008
vn -0.4945 0.8011 0.3371
vn -0.4921 0.8052 0.3308
vn -0.5973 0.7919 0.1270
vn -0.5462 0.8341 0.0765
vn -0.0892 0.8929 0.4413
vn -0.0733 0.8826 0.4643
vn -0.1143 0.7912 0.6008
vn -0.2442 0.8920 0.3804
vn -0.2439 0.8911 0.3827
vn -0.3260 0.9450 0.0270
vn -0.0235 0.9957 0.0898
vn -0.0871 0.9958 0.0279
vn -0.3080 0.8200 0.4825
vn -0.3384 0.8007 0.4943
vn -0.3775 0.8906 0.2536
vn -0.4441 0.8896 0.1065
vn -0.1541 0.9515 0.2663
vn -0.0616 0.9517 0.3008
vn -0.2612 0.9526 0.1562
vn 0.0001 -0.0002 1.0000
vn -0.0000 -0.0000 1.0000
vn -0.0001 1.0000 0.0001
vn -0.0000 1.0000 -0.0001
vn 0.0001 1.0000 -0.0001
vn 0.0012 -0.0052 1.0000
vn 1.0000 -0.0000 -0.0000
vn -0.3781 0.8907 0.2523
vn 0.0032 1.0000 -0.0077
vn -0.3763 0.8914 0.2525
s 0
f 9//1 2//1 18//1
f 2//2 4//2 3//2
f 19//3 12//3 4//3
f 16//4 12//4 15//4
f 21//5 8//5 13//5
f 14//6 11//6 20//6
f 18//7 10//7 11//7
f 18//8 3//8 6//8
f 3//9 18//9 2//9
f 2//10 1//10 9//10
f 2//11 17//11 4//11
f 17//12 16//12 4//12
f 7//13 4//13 16//13
f 17//11 2//11 5//11
f 5//14 2//14 1//14
f 12//15 7//15 4//15
f 4//16 3//16 14//16
f 3//17 6//17 14//17
f 14//18 19//18 4//18
f 5//19 17//19 13//19
f 8//20 5//20 13//20
f 1//21 5//21 8//21
f 8//22 9//22 1//22
f 19//23 20//23 15//23
f 15//24 12//24 19//24
f 16//25 7//25 12//25
f 20//26 21//26 13//26
f 15//27 20//27 13//27
f 9//28 10//28 18//28
f 14//29 6//29 11//29
f 6//30 18//30 11//30
f 15//31 13//31 16//31
f 13//32 17//32 16//32
f 21//33 10//33 8//33
f 9//34 8//34 10//34
f 11//35 21//35 20//35
f 19//36 14//36 20//36
f 10//37 21//37 11//37
f 9//38 2//38 6//38
f 6//39 2//39 3//39
f 4//40 2//40 1//40
f 4//11 1//11 7//11
f 7//41 1//41 17//41
f 17//42 1//42 5//42
f 18//43 9//43 6//43
f 4//44 3//44 6//44
f 14//18 19//18 6//18
f 19//18 4//18 6//18
f 13//45 10//45 8//45
f 16//46 7//46 17//46
f 13//47 21//47 10//47
