# Blender 4.0.0
# www.blender.org
o decimated_mesh
v -0.015135 0.860552 0.008661
v -0.020872 0.860540 0.008540
v -0.015751 0.868041 0.008537
v -0.026101 0.863507 0.008678
v -0.023201 0.868041 0.008537
v -0.023154 0.868041 0.025593
v -0.021708 0.860538 0.025592
v -0.024502 0.860540 0.014591
v -0.029924 0.863314 0.015930
v -0.026283 0.866188 0.008714
v -0.030150 0.867516 0.025596
v -0.026830 0.860528 0.025587
v -0.030952 0.864082 0.025580
v -0.029910 0.866084 0.015834
v -0.026904 0.868041 0.014655
vn -0.0047 -0.0035 1.0000
vn -0.0000 1.0000 -0.0000
vn 0.9175 0.1767 0.3564
vn -0.9721 0.2273 -0.0572
vn -0.4786 -0.8298 -0.2869
vn -0.4727 -0.8754 -0.1010
vn -0.9944 0.0015 -0.1060
vn -0.8827 -0.0536 -0.4668
vn 0.0005 -0.0010 1.0000
vn -0.0010 -0.0003 1.0000
vn -0.0748 0.9969 0.0256
vn -0.0010 1.0000 0.0005
vn -0.0018 1.0000 0.0007
vn -0.0022 1.0000 -0.0015
vn -0.5998 0.7439 -0.2948
vn -0.5037 0.8083 -0.3048
vn 0.9143 0.0819 0.3968
vn -0.0630 0.0092 -0.9980
vn -0.0000 -0.0004 -1.0000
vn 0.0211 -0.0148 -0.9997
vn -0.0323 -0.0104 -0.9994
vn -0.5767 0.8062 -0.1324
vn -0.4911 -0.8246 -0.2809
vn -0.6529 -0.7574 -0.0093
vn -0.8909 -0.0111 -0.4540
vn 0.9290 0.0825 0.3608
vn -0.0023 1.0000 -0.0000
vn -0.0018 1.0000 -0.0000
vn 0.0032 1.0000 0.0018
vn 0.9033 0.1740 0.3920
vn 0.0005 -0.0000 1.0000
vn -0.0010 -0.0017 1.0000
s 0
f 12//1 11//1 13//1
f 6//2 3//2 15//2
f 7//3 1//3 6//3
f 13//4 11//4 14//4
f 8//5 4//5 2//5
f 8//6 12//6 9//6
f 14//7 9//7 13//7
f 10//8 4//8 9//8
f 11//9 12//9 6//9
f 6//10 12//10 7//10
f 3//2 5//2 15//2
f 15//11 11//11 6//11
f 1//12 8//12 7//12
f 12//13 7//13 8//13
f 8//14 1//14 2//14
f 14//15 15//15 10//15
f 15//16 5//16 10//16
f 1//17 3//17 6//17
f 10//18 5//18 4//18
f 5//19 3//19 2//19
f 3//20 1//20 2//20
f 2//21 4//21 5//21
f 11//22 15//22 14//22
f 8//23 9//23 4//23
f 13//24 9//24 12//24
f 9//25 14//25 10//25
f 3//26 7//26 1//26
f 7//27 1//27 2//27
f 7//28 2//28 12//28
f 12//29 2//29 8//29
f 5//2 15//2 6//2
f 5//2 6//2 3//2
f 6//30 7//30 3//30
f 6//31 11//31 7//31
f 11//32 12//32 7//32
