# Blender 4.0.0
# www.blender.org
o decimated_mesh
v 0.013465 0.860540 0.005768
v 0.013400 0.860539 0.001275
v 0.013295 0.848395 0.001483
v -0.019140 0.860538 0.005711
v 0.013465 0.848424 0.005784
v -0.018524 0.848421 0.005759
v 0.002205 0.860548 -0.001194
v -0.011440 0.848417 0.000995
v -0.012491 0.860538 0.000744
vn -0.0001 1.0000 -0.0000
vn 0.1307 0.0319 0.9909
vn 0.9992 -0.0001 -0.0396
vn -0.2154 0.0186 0.9764
vn 0.5981 0.0336 0.8007
vn 0.0017 -0.0039 -1.0000
vn -0.0008 -1.0000 0.0003
vn -0.0004 1.0000 0.0018
vn -0.0192 0.1984 0.9799
vn 0.9999 -0.0089 -0.0146
vn 0.0010 1.0000 -0.0069
vn -0.0001 1.0000 -0.0009
vn 0.5569 0.0654 0.8280
vn 0.0008 -0.0014 -1.0000
vn -0.0008 1.0000 -0.0008
vn -0.0001 1.0000 0.0012
vn 0.0009 1.0000 0.0005
vn 0.9999 -0.0000 -0.0146
vn 0.9992 -0.0093 -0.0395
vn -0.0001 1.0000 -0.0068
s 0
f 4//1 1//1 9//1
f 8//2 7//2 9//2
f 3//3 1//3 5//3
f 7//4 3//4 2//4
f 9//5 4//5 6//5
f 1//6 6//6 4//6
f 2//7 1//7 7//7
f 7//8 9//8 1//8
f 7//9 8//9 3//9
f 3//10 2//10 1//10
f 8//11 5//11 3//11
f 5//12 8//12 6//12
f 9//13 6//13 8//13
f 6//14 1//14 5//14
f 9//15 4//15 7//15
f 4//16 1//16 7//16
f 3//17 8//17 6//17
f 5//18 2//18 1//18
f 5//19 3//19 2//19
f 5//20 3//20 6//20
