# Blender 4.0.0
# www.blender.org
o decimated_mesh
v -0.011556 -0.007499 0.015178
v -0.011591 -0.006031 0.014760
v -0.014058 -0.026098 0.014404
v -0.011556 -0.018370 0.015178
v -0.010602 -0.018372 0.014441
v -0.011219 -0.026096 0.014441
v -0.013887 -0.006939 0.013372
v -0.010658 -0.025686 0.014449
v -0.011556 -0.003956 0.008830
v -0.011593 -0.003955 0.011263
v -0.018502 -0.026095 0.000003
v -0.014687 -0.003956 -0.000003
v -0.013984 -0.005924 0.012516
v -0.020091 -0.026096 0.000011
v -0.017863 -0.006929 0.007295
v -0.016175 -0.003955 0.000003
v -0.016973 -0.006018 0.008145
v -0.018635 -0.026096 0.007569
v -0.019264 -0.006613 0.000007
v -0.015064 -0.003955 0.006111
v -0.018027 -0.005955 0.005020
vn -0.9995 -0.0271 -0.0153
vn -0.2953 -0.0000 0.9554
vn -0.0008 -1.0000 0.0001
vn 0.9811 0.0740 0.1786
vn -0.6043 0.0482 0.7953
vn -0.5657 0.2131 0.7966
vn -0.8044 0.5231 0.2818
vn -0.9365 0.2929 0.1928
vn 0.5681 -0.7714 -0.2866
vn -0.0009 -0.0993 0.9951
vn -0.6000 0.7698 0.2178
vn -0.4029 0.7870 0.4673
vn 0.9415 -0.0474 -0.3337
vn -0.5846 0.4898 0.6468
vn -0.4957 0.8068 0.3215
vn 0.9824 -0.0077 -0.1868
vn -0.9811 0.0417 0.1889
vn 0.6114 -0.0000 0.7913
vn -0.9963 -0.0790 -0.0335
vn -0.0003 -1.0000 0.0001
vn 0.8706 -0.1502 -0.4685
vn -0.0128 -0.0017 0.9999
vn 0.0001 -1.0000 -0.0001
vn 0.0006 -1.0000 -0.0001
vn 0.0007 -1.0000 -0.0008
vn -0.6511 0.7565 0.0614
vn -0.5830 0.8055 0.1061
vn -0.8362 0.0369 0.5472
vn -0.8302 0.0414 0.5560
vn -0.5012 0.7967 0.3378
vn -0.0048 -0.0000 -1.0000
vn -0.0022 0.0001 -1.0000
vn -0.0042 0.0037 -1.0000
vn -0.9808 0.0422 0.1904
vn 0.6114 -0.0038 0.7913
vn -0.7999 0.2930 0.5238
vn -0.7722 0.3651 0.5201
vn -0.8361 0.0415 0.5471
vn -0.8303 0.0374 0.5561
vn -0.0006 -1.0000 0.0001
vn 0.0007 -1.0000 -0.0004
vn -0.0127 -0.0955 0.9953
vn 0.0537 -0.0925 0.9943
vn -0.9973 -0.0719 -0.0153
vn -0.9958 -0.0786 -0.0459
vn -0.4905 0.8063 0.3305
vn -0.5081 0.7955 0.3302
vn 0.0006 -1.0000 -0.0003
vn -0.0008 -1.0000 0.0003
vn -0.0004 -1.0000 0.0001
vn -0.0000 -1.0000 -0.0001
s 0
f 9//1 2//1 10//1
f 1//2 3//2 4//2
f 20//3 16//3 12//3
f 1//4 5//4 2//4
f 3//5 1//5 7//5
f 2//6 7//6 1//6
f 21//7 15//7 17//7
f 21//8 19//8 15//8
f 6//9 11//9 8//9
f 3//10 8//10 4//10
f 20//11 21//11 17//11
f 13//12 2//12 10//12
f 8//13 12//13 9//13
f 2//14 13//14 7//14
f 17//15 13//15 10//15
f 8//16 9//16 5//16
f 18//17 19//17 14//17
f 5//18 1//18 4//18
f 9//19 5//19 2//19
f 12//20 9//20 20//20
f 20//20 9//20 10//20
f 8//21 11//21 12//21
f 6//22 8//22 3//22
f 6//23 18//23 11//23
f 18//24 14//24 11//24
f 18//25 6//25 3//25
f 19//26 21//26 16//26
f 16//27 21//27 20//27
f 7//28 15//28 3//28
f 3//29 15//29 18//29
f 17//30 10//30 20//30
f 19//31 11//31 14//31
f 11//32 19//32 12//32
f 12//33 19//33 16//33
f 15//34 19//34 18//34
f 5//35 4//35 8//35
f 15//36 7//36 17//36
f 17//37 7//37 13//37
f 15//38 18//38 7//38
f 18//39 3//39 7//39
f 18//40 14//40 3//40
f 14//41 6//41 3//41
f 6//42 4//42 3//42
f 6//43 8//43 4//43
f 9//44 5//44 10//44
f 10//45 5//45 2//45
f 10//46 20//46 13//46
f 20//47 17//47 13//47
f 11//48 6//48 14//48
f 12//49 9//49 16//49
f 16//50 9//50 10//50
f 16//51 10//51 20//51
