# Blender 4.0.0
# www.blender.org
o decimated_mesh
v 0.027638 -0.033771 -0.000002
v 0.027698 -0.034538 0.000811
v 0.027702 -0.035262 0.000743
v 0.027466 -0.035868 0.000520
v 0.027698 -0.035350 -0.000004
v 0.025526 -0.033728 0.010438
v 0.025709 -0.034447 0.010499
v 0.026583 -0.035156 0.006561
v 0.025430 -0.036089 0.010372
v 0.026751 -0.036291 0.002945
v 0.027333 -0.036083 -0.000002
v 0.026029 -0.033724 -0.000004
v 0.025629 -0.035380 0.010599
v 0.026328 -0.036964 -0.000000
v 0.021190 -0.036795 -0.000004
v 0.015690 -0.036782 0.014466
v 0.021282 -0.033724 0.014465
v 0.024499 -0.034967 0.012644
v 0.022680 -0.036194 0.014465
v 0.024058 -0.037091 0.010174
v 0.021214 -0.037251 -0.000005
v 0.015726 -0.037227 0.014467
v 0.023160 -0.034464 0.014467
v 0.023043 -0.035532 0.014467
v 0.025516 -0.037282 -0.000005
v 0.022865 -0.033724 0.014467
v 0.021093 -0.037119 0.014467
v 0.019775 -0.037331 0.014467
vn 0.5736 -0.8097 0.1241
vn 0.9470 0.2576 0.1919
vn 0.0001 -0.0002 1.0000
vn 0.8940 -0.4459 -0.0450
vn 0.7256 -0.6815 0.0951
vn 0.4719 -0.8630 0.1802
vn 0.9722 -0.0595 0.2264
vn 0.7696 -0.3881 0.5070
vn 0.8532 -0.4947 0.1653
vn -0.9323 -0.0773 -0.3534
vn 0.9979 0.0117 -0.0629
vn 0.9753 0.0949 0.1993
vn -0.0015 -0.0006 1.0000
vn -0.7915 0.0864 -0.6050
vn 0.5247 -0.7838 0.3323
vn 0.4767 -0.8172 0.3239
vn -0.0257 -0.9996 -0.0081
vn 0.5457 -0.8306 0.1113
vn 0.6572 -0.7498 0.0768
vn 0.9426 0.2749 0.1895
vn 0.0002 -0.0002 1.0000
vn 0.0017 0.0018 -1.0000
vn -0.0018 -0.0019 -1.0000
vn -0.0010 -0.0014 -1.0000
vn 0.0063 -0.0008 -1.0000
vn 0.9263 -0.3747 0.0397
vn 0.5277 -0.8316 0.1732
vn 0.7755 -0.3790 0.5050
vn 0.7676 -0.4224 0.4820
vn -0.9337 -0.0480 -0.3549
vn 0.9992 0.0386 -0.0091
vn 0.9819 -0.0121 0.1891
vn -0.0002 0.0007 1.0000
vn -0.0011 0.0022 1.0000
vn 0.0004 0.0005 1.0000
vn 0.0010 0.0005 1.0000
vn -0.0037 -0.0022 1.0000
vn -0.0012 0.0002 1.0000
vn -0.0011 -1.0000 -0.0004
vn 0.0292 0.9996 0.0017
vn 0.0001 -1.0000 0.0008
vn 0.3639 -0.9289 0.0695
vn 0.1576 -0.9822 0.1025
vn 0.0869 -0.9957 0.0311
vn 0.8019 0.2773 0.5293
vn 0.8037 0.3199 0.5018
vn 0.8153 0.2520 0.5213
vn 0.8929 -0.4131 0.1793
vn 0.9248 -0.3234 0.2005
vn 0.9037 -0.3893 0.1781
vn 0.8730 -0.0230 0.4871
vn -0.0072 -1.0000 -0.0062
vn 1.0000 0.0063 -0.0053
vn 0.9071 -0.3798 0.1814
vn 0.8940 -0.4122 0.1755
vn 0.0049 -0.0052 -1.0000
vn 0.0001 0.0001 -1.0000
vn 0.9985 0.0386 -0.0376
vn 0.7762 -0.3789 0.5039
vn 0.7591 -0.4178 0.4992
vn 0.0127 -0.0171 -0.9998
vn 0.0001 -0.0003 1.0000
vn 0.5250 -0.8272 0.2003
vn 0.4739 -0.8667 0.1555
vn 0.0001 -1.0000 -0.0000
vn -0.0019 -1.0000 -0.0004
vn 0.7920 0.3153 0.5227
vn 0.8112 0.2599 0.5239
vn 0.7779 -0.3737 0.5052
vn 0.0002 0.0001 1.0000
vn -0.0001 -0.0000 1.0000
vn -0.0002 0.0003 1.0000
vn 0.0007 -0.0014 1.0000
vn 0.0054 -0.0072 1.0000
vn -0.0015 0.0029 1.0000
s 0
f 20//1 10//1 9//1
f 7//2 2//2 6//2
f 25//3 12//3 21//3
f 5//4 4//4 11//4
f 10//5 11//5 4//5
f 17//6 16//6 15//6
f 7//7 13//7 8//7
f 19//8 9//8 18//8
f 9//9 10//9 4//9
f 22//10 16//10 21//10
f 3//11 1//11 2//11
f 8//12 2//12 7//12
f 23//13 26//13 17//13
f 23//14 18//14 24//14
f 19//15 20//15 9//15
f 20//16 19//16 27//16
f 21//17 28//17 22//17
f 20//18 14//18 10//18
f 14//19 11//19 10//19
f 1//20 6//20 2//20
f 15//21 21//21 12//21
f 1//22 5//22 12//22
f 5//23 11//23 12//23
f 11//24 14//24 12//24
f 14//25 25//25 12//25
f 5//26 3//26 4//26
f 17//27 15//27 12//27
f 13//28 18//28 9//28
f 18//29 24//29 19//29
f 16//30 15//30 21//30
f 3//31 5//31 1//31
f 8//32 3//32 2//32
f 22//33 28//33 17//33
f 16//34 22//34 17//34
f 28//35 27//35 17//35
f 27//36 19//36 17//36
f 19//37 24//37 17//37
f 24//38 23//38 17//38
f 12//39 6//39 17//39
f 1//40 12//40 6//40
f 26//41 17//41 6//41
f 20//42 25//42 14//42
f 27//43 28//43 20//43
f 28//44 25//44 20//44
f 6//45 26//45 18//45
f 26//46 23//46 18//46
f 18//47 7//47 6//47
f 3//48 8//48 4//48
f 8//49 13//49 9//49
f 4//50 8//50 9//50
f 13//51 7//51 18//51
f 21//52 25//52 28//52
f 5//53 2//53 3//53
f 8//54 9//54 3//54
f 9//55 4//55 3//55
f 11//56 25//56 5//56
f 25//57 12//57 5//57
f 1//58 2//58 5//58
f 13//59 24//59 9//59
f 24//60 19//60 9//60
f 14//61 25//61 11//61
f 15//3 25//3 12//3
f 21//62 25//62 15//62
f 15//63 12//63 16//63
f 16//64 12//64 17//64
f 17//65 12//65 26//65
f 26//66 12//66 6//66
f 26//67 23//67 6//67
f 23//68 18//68 6//68
f 18//69 24//69 13//69
f 23//70 26//70 24//70
f 26//71 22//71 24//71
f 22//72 28//72 24//72
f 28//73 27//73 24//73
f 27//74 19//74 24//74
f 22//75 26//75 17//75
