# Blender 4.0.0
# www.blender.org
o decimated_mesh
v -0.011555 -0.003956 0.008833
v -0.011577 -0.006643 0.011402
v -0.013034 -0.003943 0.009196
v -0.010861 -0.001782 0.009206
v -0.009295 -0.000772 0.009193
v 0.000131 0.000527 0.009199
v 0.000131 -0.000447 0.009199
v -0.011555 -0.008541 0.013849
v -0.011555 -0.008541 0.015177
v -0.011528 -0.006978 0.015164
v -0.011562 -0.006054 0.014725
v -0.004348 0.000418 0.009220
v 0.000132 -0.008541 0.018130
v -0.008775 -0.005935 0.016611
v -0.009840 -0.001758 0.010414
v -0.005230 -0.000847 0.012092
v 0.000131 0.000376 0.010259
v 0.000130 -0.006125 0.018912
v 0.000125 -0.000934 0.013374
v 0.000130 -0.008541 0.019266
v -0.007592 -0.008541 0.017798
v -0.007696 -0.006872 0.017716
v -0.006763 -0.005928 0.017656
v 0.000130 -0.007498 0.019265
v -0.003617 -0.006933 0.018683
v -0.001700 -0.005984 0.018729
v -0.005585 -0.001490 0.012880
v -0.000977 -0.007498 0.019194
v -0.000977 -0.008541 0.019192
vn -0.1806 -0.6789 -0.7117
vn 1.0000 -0.0008 0.0023
vn -0.5515 0.0160 0.8340
vn 0.0313 -0.0000 -0.9995
vn -0.3157 0.7327 0.6029
vn -0.4789 -0.6957 -0.5354
vn -0.9520 -0.3061 -0.0000
vn -0.0763 0.2593 0.9628
vn -0.5359 0.3465 0.7699
vn -0.5610 0.6876 0.4610
vn -0.1904 -0.0019 0.9817
vn 0.2196 -0.7699 -0.5993
vn -0.0000 -1.0000 -0.0000
vn -0.0767 0.9209 0.3822
vn -0.0640 0.0011 0.9979
vn -0.1292 0.7430 0.6567
vn -0.4115 0.4559 0.7892
vn -0.1450 0.2120 -0.9665
vn -0.9672 0.0186 0.2534
vn -0.2181 0.2742 0.9366
vn -0.3983 0.7404 0.5415
vn 0.2245 -0.6744 -0.7034
vn -0.4937 0.7709 0.4025
vn 1.0000 0.0020 0.0017
vn 1.0000 -0.0000 -0.0001
vn 1.0000 -0.0017 0.0013
vn 1.0000 0.0010 0.0001
vn 1.0000 0.0008 0.0008
vn -0.0257 0.1301 -0.9912
vn -0.0072 0.1000 -0.9950
vn -0.5543 0.0063 0.8323
vn -0.3398 0.7983 0.4973
vn -0.3378 0.8001 0.4957
vn -0.1287 0.7964 0.5909
vn -0.1370 0.2305 0.9634
vn -0.0620 0.2486 0.9666
vn -0.5322 0.3136 0.7864
vn -0.2302 0.0334 0.9726
vn -0.2062 -0.0291 0.9781
vn -0.0811 0.9188 0.3863
vn -0.0669 -0.0020 0.9978
vn -0.1310 0.7422 0.6573
vn -0.0122 0.7295 0.6839
vn -0.2293 0.2351 -0.9445
vn -0.9505 0.1044 0.2928
vn -0.1911 0.3419 0.9201
vn -0.3782 0.7269 0.5733
vn -0.6421 0.6435 0.4166
vn 0.2569 -0.7161 -0.6490
vn -0.2220 0.9156 0.3353
vn -0.0235 0.9898 0.1405
vn -0.3384 0.8001 0.4954
vn -0.0799 0.9210 0.3813
vn 1.0000 0.0001 -0.0001
vn -0.5516 0.0066 0.8341
vn -0.5544 0.0161 0.8321
vn -0.4082 0.7230 0.5573
vn -0.3723 0.7388 0.5618
vn -0.3389 0.7984 0.4978
vn -0.0777 0.9190 0.3864
vn 1.0000 0.0056 0.0043
vn -0.0000 -1.0000 0.0001
s 0
f 1//1 2//1 3//1
f 24//2 20//2 13//2
f 10//3 9//3 21//3
f 1//4 6//4 7//4
f 27//5 14//5 23//5
f 3//6 2//6 8//6
f 3//7 8//7 9//7
f 26//8 28//8 18//8
f 10//9 14//9 11//9
f 4//10 11//10 15//10
f 29//11 28//11 25//11
f 2//12 13//12 8//12
f 29//13 13//13 20//13
f 16//14 19//14 12//14
f 28//15 20//15 24//15
f 27//16 26//16 19//16
f 14//17 22//17 23//17
f 4//18 5//18 1//18
f 10//19 3//19 9//19
f 23//20 22//20 25//20
f 27//21 11//21 14//21
f 2//22 1//22 7//22
f 5//23 4//23 15//23
f 13//24 7//24 19//24
f 7//25 6//25 17//25
f 17//26 19//26 7//26
f 19//27 18//27 13//27
f 18//28 24//28 13//28
f 5//29 12//29 1//29
f 12//30 6//30 1//30
f 21//31 22//31 10//31
f 16//32 5//32 27//32
f 15//33 27//33 5//33
f 27//34 19//34 16//34
f 26//35 25//35 28//35
f 28//36 24//36 18//36
f 10//37 22//37 14//37
f 22//38 21//38 25//38
f 21//39 29//39 25//39
f 29//13 21//13 13//13
f 13//13 21//13 8//13
f 21//13 9//13 8//13
f 17//40 12//40 19//40
f 28//41 29//41 20//41
f 27//42 23//42 26//42
f 19//43 26//43 18//43
f 3//44 4//44 1//44
f 10//45 11//45 3//45
f 26//46 23//46 25//46
f 27//47 15//47 11//47
f 3//48 11//48 4//48
f 7//49 13//49 2//49
f 12//50 5//50 16//50
f 12//51 17//51 6//51
f 15//52 16//52 5//52
f 16//53 17//53 12//53
f 17//54 13//54 6//54
f 13//25 7//25 6//25
f 17//28 18//28 13//28
f 20//13 21//13 13//13
f 21//55 22//55 9//55
f 22//56 10//56 9//56
f 14//57 15//57 11//57
f 14//58 27//58 15//58
f 27//59 16//59 15//59
f 19//60 17//60 16//60
f 19//61 18//61 17//61
f 20//62 29//62 21//62
