# Blender 4.0.0
# www.blender.org
o decimated_mesh
v 0.015454 -0.018372 -0.009155
v 0.019358 -0.018373 -0.000002
v 0.017116 -0.018388 -0.009007
v 0.021797 -0.015100 -0.000010
v 0.011518 -0.004185 -0.009155
v 0.015431 -0.018373 0.009191
v 0.021798 -0.014108 0.004951
v 0.021925 -0.010489 -0.007344
v 0.021798 -0.014045 -0.005082
v 0.013484 -0.004139 -0.009053
v 0.011927 -0.004743 0.009191
v 0.016987 -0.018392 0.009095
v 0.021799 -0.007367 -0.004973
v 0.016358 -0.006045 -0.009160
v 0.013752 -0.004751 0.009168
v 0.016290 -0.004185 0.000003
v 0.021797 -0.011852 0.007258
v 0.016291 -0.005999 0.009199
v 0.021798 -0.006395 0.000040
v 0.021797 -0.009651 0.007238
v 0.021798 -0.007269 0.004842
vn -0.0011 -0.0003 -1.0000
vn 0.4286 0.8870 -0.1720
vn 0.0611 -0.0049 0.9981
vn 0.7955 -0.5933 -0.1234
vn 0.9685 0.2490 0.0012
vn 0.7781 -0.4489 0.4393
vn 0.7963 -0.5932 0.1185
vn 0.3155 0.0076 -0.9489
vn 0.3707 0.9222 -0.1103
vn 0.6015 0.4985 -0.6242
vn 0.3432 0.0115 0.9392
vn 0.3720 0.9144 0.1595
vn 0.5850 0.5750 0.5719
vn 0.0487 0.1291 -0.9904
vn 0.0888 -0.0069 -0.9960
vn -0.0099 -0.9999 0.0041
vn -0.0122 -0.9999 -0.0052
vn -0.0001 -1.0000 -0.0001
vn 1.0000 -0.0000 -0.0001
vn 1.0000 -0.0001 0.0001
vn 1.0000 -0.0002 -0.0000
vn 0.9985 -0.0011 0.0547
vn 1.0000 -0.0000 0.0004
vn 1.0000 0.0002 -0.0000
vn 0.0124 0.0494 0.9987
vn -0.0020 -0.0005 1.0000
vn 0.7726 -0.3603 -0.5228
vn 0.7472 -0.6383 -0.1850
vn 0.9635 0.2673 -0.0134
vn 0.0050 0.9980 0.0630
vn -0.0237 0.9996 0.0124
vn -0.0609 0.9976 0.0317
vn 0.4209 0.8626 0.2806
vn 0.7395 -0.6454 0.1914
vn 0.4958 0.7703 -0.4010
vn 0.3405 0.0086 0.9402
vn 0.3662 0.9155 0.1668
vn 0.3466 0.0086 0.9380
vn 0.3422 0.0114 0.9396
vn -0.0119 -0.9999 -0.0001
vn -0.0095 -1.0000 -0.0003
vn 0.0072 -1.0000 -0.0002
vn 0.9999 -0.0080 0.0080
vn 1.0000 0.0003 0.0088
vn 0.9999 0.0080 0.0083
vn 0.9684 0.2489 -0.0140
vn 0.9636 0.2674 0.0012
vn 0.9998 -0.0211 0.0042
vn 0.9988 0.0474 -0.0091
vn 0.9997 0.0232 0.0043
vn 0.9991 -0.0413 -0.0085
vn 0.3748 0.9121 0.1661
vn 0.3668 0.9168 0.1582
s 0
f 1//1 5//1 14//1
f 19//2 13//2 10//2
f 6//3 12//3 18//3
f 2//4 9//4 4//4
f 11//5 6//5 1//5
f 17//6 12//6 7//6
f 7//7 2//7 4//7
f 14//8 8//8 3//8
f 16//9 19//9 10//9
f 8//10 14//10 13//10
f 17//11 18//11 12//11
f 21//12 16//12 15//12
f 21//13 18//13 20//13
f 5//14 10//14 14//14
f 14//15 3//15 1//15
f 3//16 2//16 1//16
f 2//17 12//17 6//17
f 6//18 1//18 2//18
f 7//19 4//19 21//19
f 21//20 4//20 19//20
f 4//21 9//21 13//21
f 8//22 13//22 9//22
f 13//20 19//20 4//20
f 21//23 20//23 7//23
f 17//24 7//24 20//24
f 15//25 11//25 18//25
f 11//26 6//26 18//26
f 8//27 9//27 3//27
f 2//28 3//28 9//28
f 11//29 1//29 5//29
f 15//30 16//30 11//30
f 16//31 10//31 5//31
f 11//32 16//32 5//32
f 18//33 21//33 15//33
f 7//34 12//34 2//34
f 10//35 13//35 14//35
f 17//36 20//36 18//36
f 21//37 19//37 16//37
f 17//38 20//38 12//38
f 20//39 18//39 12//39
f 6//40 1//40 12//40
f 1//41 3//41 12//41
f 3//42 2//42 12//42
f 7//43 8//43 17//43
f 8//44 20//44 17//44
f 8//45 21//45 20//45
f 11//46 6//46 5//46
f 5//47 6//47 1//47
f 4//48 8//48 7//48
f 13//49 19//49 8//49
f 19//50 21//50 8//50
f 4//51 9//51 8//51
f 19//52 15//52 21//52
f 19//53 16//53 15//53
