# Blender 4.0.0
# www.blender.org
o decimated_mesh
v -0.027764 -0.034459 0.000022
v -0.027435 -0.033363 0.000013
v -0.027467 -0.035083 0.002262
v -0.027532 -0.035993 0.000008
v -0.026433 -0.035087 0.007457
v -0.026397 -0.032911 0.004179
v -0.025538 -0.035635 0.010581
v -0.025634 -0.034365 0.010665
v -0.025457 -0.033724 0.010571
v -0.025370 -0.036135 0.010441
v -0.025179 -0.032942 0.010205
v -0.020114 -0.026097 0.000010
v -0.022696 -0.036180 0.014439
v -0.024429 -0.035225 0.012617
v -0.023186 -0.034473 0.014442
v -0.018590 -0.026098 0.007694
v -0.018508 -0.026097 0.000002
v -0.026096 -0.037089 0.000003
v -0.024102 -0.037080 0.010133
v -0.023070 -0.035516 0.014442
v -0.022566 -0.033034 0.014442
v -0.011218 -0.026097 0.014442
v -0.021154 -0.037219 0.000002
v -0.024838 -0.037345 0.000002
v -0.021138 -0.037127 0.014441
v -0.014049 -0.026102 0.014436
v -0.015693 -0.037226 0.014442
v -0.019651 -0.037337 0.014442
vn -0.8367 0.0628 0.5440
vn -0.9576 0.2170 0.1897
vn -0.9615 -0.0897 0.2597
vn -0.0002 -1.0000 -0.0001
vn -0.9025 0.3902 0.1825
vn -0.8055 -0.0898 0.5857
vn -0.8754 0.3521 0.3312
vn 0.0280 -0.9995 -0.0110
vn -0.0017 -0.0007 1.0000
vn -0.8732 0.2077 0.4409
vn -0.7563 -0.4274 0.4953
vn -0.9408 0.2834 0.1858
vn -0.7852 0.3387 0.5185
vn -0.9848 -0.1494 0.0886
vn -0.1390 -0.9867 0.0848
vn -0.4909 -0.8068 0.3288
vn -0.5105 -0.7931 0.3323
vn -0.9544 0.2301 0.1903
vn -0.6864 0.7131 0.1425
vn -0.7010 0.7064 0.0980
vn -0.6855 0.7153 0.1360
vn -0.7411 0.4817 0.4676
vn 0.0001 -1.0000 -0.0001
vn -0.0017 1.0000 0.0018
vn -0.8962 0.4041 0.1833
vn -0.9109 -0.3622 0.1974
vn -0.9065 -0.3817 0.1802
vn -0.8996 -0.3974 0.1811
vn -0.6021 -0.7902 0.1141
vn -0.5758 -0.8096 0.1140
vn 0.0342 -0.9993 -0.0117
vn -0.5924 0.7100 0.3808
vn -0.5807 0.7138 0.3916
vn -0.0038 -0.0093 0.9999
vn 0.0161 0.0033 0.9999
vn 0.0012 -0.0008 1.0000
vn 0.0046 -0.0011 1.0000
vn 0.0002 -0.0025 1.0000
vn 0.0005 -0.0023 1.0000
vn -0.0004 -0.0002 1.0000
vn -0.0000 -0.0000 1.0000
vn -0.0022 0.0009 1.0000
vn 0.0003 0.0005 1.0000
vn 0.0023 -0.0008 1.0000
vn 0.0084 0.0009 1.0000
vn -0.8656 -0.0978 0.4911
vn -0.7691 -0.3990 0.4993
vn -0.7577 -0.4171 0.5019
vn -0.9398 0.2868 0.1859
vn -0.7897 0.2970 0.5368
vn -0.1999 -0.9790 0.0402
vn -0.0889 -0.9955 0.0326
vn 0.0342 -0.9993 -0.0134
vn -0.0001 0.0001 -1.0000
vn -0.0002 -1.0000 0.0001
vn -0.0009 0.0005 -1.0000
vn -0.0022 0.0014 -1.0000
vn -0.0027 0.0018 -1.0000
vn -0.0046 0.0042 -1.0000
vn 0.0002 -1.0000 -0.0001
vn -0.0022 0.0036 1.0000
vn -0.0000 0.0001 1.0000
vn -0.0001 -0.0005 1.0000
vn -0.0001 0.0022 1.0000
vn 0.0280 -0.9996 -0.0095
vn -0.0375 0.0031 -0.9993
vn -0.7821 0.3373 0.5239
vn -0.7973 0.2974 0.5252
vn -0.0054 -0.0069 1.0000
vn -0.7610 -0.4120 0.5012
vn -0.7542 -0.4262 0.4995
vn -0.9584 0.2121 0.1910
vn -0.9556 0.2259 0.1892
s 0
f 15//1 8//1 14//1
f 1//2 5//2 8//2
f 8//3 5//3 7//3
f 12//4 17//4 16//4
f 9//5 6//5 2//5
f 15//6 14//6 20//6
f 27//7 22//7 23//7
f 28//8 23//8 27//8
f 13//9 25//9 21//9
f 17//10 23//10 22//10
f 13//11 20//11 14//11
f 8//12 2//12 1//12
f 8//13 15//13 21//13
f 1//14 4//14 3//14
f 19//15 28//15 25//15
f 25//16 13//16 19//16
f 13//17 10//17 19//17
f 1//18 3//18 5//18
f 11//19 16//19 6//19
f 6//20 12//20 2//20
f 16//21 12//21 6//21
f 11//22 9//22 21//22
f 22//23 16//23 17//23
f 26//24 22//24 16//24
f 11//25 6//25 9//25
f 7//26 5//26 10//26
f 5//27 3//27 4//27
f 10//28 5//28 4//28
f 4//29 18//29 10//29
f 18//30 19//30 10//30
f 24//31 23//31 28//31
f 11//32 21//32 16//32
f 21//33 26//33 16//33
f 4//34 18//34 1//34
f 1//35 18//35 2//35
f 2//36 23//36 12//36
f 12//37 23//37 17//37
f 23//38 2//38 24//38
f 24//39 2//39 18//39
f 25//40 28//40 21//40
f 28//41 27//41 21//41
f 27//42 22//42 26//42
f 26//43 21//43 27//43
f 21//44 15//44 13//44
f 15//45 20//45 13//45
f 7//46 14//46 8//46
f 7//47 10//47 14//47
f 10//48 13//48 14//48
f 8//49 9//49 2//49
f 21//50 9//50 8//50
f 19//51 18//51 24//51
f 24//52 28//52 19//52
f 27//53 24//53 23//53
f 24//54 17//54 23//54
f 12//55 17//55 22//55
f 24//56 18//56 17//56
f 18//57 4//57 17//57
f 4//58 2//58 17//58
f 2//59 12//59 17//59
f 12//60 22//60 16//60
f 26//61 21//61 22//61
f 21//41 27//41 22//41
f 21//62 15//62 27//62
f 15//41 20//41 27//41
f 20//63 25//63 27//63
f 25//64 28//64 27//64
f 28//65 24//65 27//65
f 1//66 2//66 4//66
f 9//67 15//67 21//67
f 9//68 8//68 15//68
f 13//69 25//69 20//69
f 14//70 10//70 20//70
f 10//71 13//71 20//71
f 5//72 8//72 3//72
f 8//73 1//73 3//73
