# Blender 4.0.0
# www.blender.org
o decimated_mesh
v -0.000019 -0.034474 -0.027667
v -0.000024 -0.032995 -0.027195
v -0.000026 -0.035520 -0.027594
v -0.001147 -0.034467 -0.027578
v -0.000019 -0.036312 -0.027196
v -0.001293 -0.036192 -0.027169
v -0.004719 -0.035046 -0.026996
v -0.000019 -0.037021 -0.026244
v -0.009923 -0.034973 -0.025985
v -0.008294 -0.033987 -0.026111
v -0.007439 -0.032932 -0.025751
v -0.000026 -0.026074 -0.020065
v -0.010857 -0.036200 -0.025072
v -0.007634 -0.036118 -0.025961
v -0.011742 -0.034969 -0.025106
v -0.000022 -0.026074 -0.018447
v -0.000019 -0.037352 -0.024468
v -0.009852 -0.037088 -0.024217
v -0.010896 -0.032997 -0.024937
v -0.012936 -0.026074 -0.013153
v -0.016385 -0.037183 -0.013152
v -0.000019 -0.037282 -0.021547
v -0.007826 -0.026074 -0.018513
v -0.009278 -0.037310 -0.023343
v -0.019040 -0.036110 -0.019688
v -0.019325 -0.035322 -0.019874
v -0.019596 -0.034456 -0.019663
v -0.014978 -0.026074 -0.013153
v -0.017575 -0.037353 -0.013152
v -0.020182 -0.036101 -0.018302
v -0.020392 -0.035197 -0.018694
v -0.019214 -0.033818 -0.019784
v -0.019119 -0.032841 -0.019176
v -0.014257 -0.026074 -0.014171
v -0.018149 -0.037083 -0.018723
v -0.020166 -0.033763 -0.018630
v -0.023407 -0.033035 -0.013152
v -0.022085 -0.037085 -0.013151
v -0.023752 -0.035942 -0.013154
v -0.024048 -0.034474 -0.013152
v -0.020701 -0.037322 -0.013152
vn -0.8150 0.1608 -0.5567
vn -0.1385 -0.1326 -0.9815
vn -0.5685 0.0214 -0.8224
vn -0.1177 -0.8144 -0.5682
vn -0.7108 -0.3938 -0.5828
vn -0.6858 0.4316 -0.5860
vn -0.0625 -0.9955 -0.0713
vn -0.4126 -0.3204 -0.8527
vn 0.3767 -0.1169 0.9189
vn 0.4421 -0.2391 0.8645
vn 0.3927 -0.7124 0.5816
vn -0.7591 -0.3994 -0.5141
vn -0.5730 0.7120 -0.4059
vn -0.0310 -0.9826 -0.1832
vn -0.3211 -0.8196 -0.4744
vn -0.0000 -1.0000 -0.0000
vn 0.1358 -0.9515 0.2759
vn -0.5163 -0.3683 -0.7731
vn -0.7435 -0.0718 -0.6649
vn 0.0022 0.0005 -1.0000
vn -0.4926 0.4940 -0.7165
vn -0.5527 0.1770 -0.8144
vn -0.1737 0.7102 -0.6822
vn -0.8328 -0.1673 -0.5276
vn -0.0617 -0.4482 -0.8918
vn 0.0033 -1.0000 -0.0015
vn -0.7852 0.3498 -0.5111
vn -0.1639 0.3638 -0.9169
vn -0.0726 0.3028 -0.9503
vn -0.4651 -0.8219 -0.3289
vn -0.4650 -0.8008 -0.3776
vn -0.5309 -0.7744 -0.3442
vn -0.0784 -0.0685 -0.9946
vn -0.1859 0.1839 -0.9652
vn -0.7241 0.3179 -0.6121
vn -0.0885 -0.7991 -0.5947
vn -0.1166 -0.7975 -0.5920
vn -0.1518 -0.7690 -0.6209
vn -0.8168 0.1467 -0.5580
vn -0.6960 -0.4157 -0.5855
vn -0.1672 -0.9788 -0.1185
vn -0.1148 -0.9783 -0.1725
vn -0.2244 -0.4660 -0.8559
vn 0.3932 -0.7131 0.5804
vn -0.5853 0.7087 -0.3938
vn -0.0319 -0.9737 -0.2257
vn -0.4202 0.2547 -0.8709
vn -0.3316 -0.8000 -0.5000
vn -0.0000 -1.0000 0.0001
vn -0.0000 1.0000 -0.0000
vn -0.1683 0.4378 -0.8832
vn -0.2110 0.4645 -0.8600
vn -0.5095 -0.3878 -0.7681
vn -0.0000 -0.0001 -1.0000
vn -0.0032 0.0011 -1.0000
vn -0.0004 -0.0004 -1.0000
vn 0.0001 -0.0000 -1.0000
vn -0.5242 0.2933 -0.7995
vn -0.1364 0.7155 -0.6852
vn -0.1286 0.7116 -0.6907
vn -0.1766 -0.3916 -0.9030
vn -0.1815 -0.3814 -0.9064
vn -0.1509 -0.3095 -0.9388
vn -0.7065 0.5141 -0.4864
vn -0.9999 -0.0127 -0.0094
vn -0.9999 0.0069 0.0125
vn -1.0000 -0.0019 -0.0034
vn -1.0000 -0.0006 0.0003
vn -1.0000 -0.0010 0.0027
vn -1.0000 -0.0010 -0.0000
vn -1.0000 -0.0012 -0.0003
vn -0.1856 0.1724 -0.9674
vn -0.2757 0.3407 -0.8989
vn -0.0099 -0.9999 -0.0123
vn -0.0016 -0.9997 0.0241
vn -0.9994 0.0083 0.0325
vn -1.0000 -0.0043 0.0038
vn -1.0000 -0.0033 0.0027
vn -1.0000 -0.0001 -0.0001
vn -1.0000 -0.0000 0.0001
vn -1.0000 -0.0002 -0.0001
vn -1.0000 0.0001 -0.0000
vn -0.0268 -0.9827 -0.1832
vn -0.0390 -0.9744 -0.2213
vn -0.1126 -0.8118 -0.5729
vn -0.1230 -0.7924 -0.5974
vn 0.3922 -0.7132 0.5810
vn 0.0001 -0.0002 -1.0000
vn -0.0000 -0.0002 -1.0000
vn -0.0001 -0.0001 -1.0000
vn -0.0001 0.0008 -1.0000
vn 0.0156 -0.9996 0.0241
vn -0.0057 -0.9999 -0.0088
vn -0.3172 -0.8189 -0.4783
vn -0.3355 -0.8004 -0.4967
vn 0.3935 -0.7125 0.5809
vn -0.0001 -0.0003 -1.0000
vn -0.0000 0.0021 -1.0000
vn 0.0035 0.0025 -1.0000
vn -0.7041 -0.4139 -0.5771
vn -0.7022 -0.3932 -0.5936
s 0
f 40//1 36//1 27//1
f 3//2 7//2 4//2
f 15//3 26//3 27//3
f 14//4 6//4 8//4
f 30//5 26//5 25//5
f 33//6 32//6 36//6
f 24//7 41//7 35//7
f 9//8 13//8 15//8
f 16//9 20//9 21//9
f 16//10 21//10 22//10
f 34//11 33//11 23//11
f 30//12 39//12 31//12
f 33//13 28//13 34//13
f 18//14 8//14 17//14
f 25//15 13//15 18//15
f 23//16 20//16 34//16
f 22//17 21//17 29//17
f 25//18 26//18 15//18
f 27//19 26//19 31//19
f 39//20 37//20 38//20
f 32//21 33//21 19//21
f 15//22 27//22 32//22
f 11//23 19//23 23//23
f 39//24 40//24 31//24
f 3//25 5//25 6//25
f 24//26 22//26 29//26
f 40//27 37//27 36//27
f 10//28 2//28 4//28
f 2//29 1//29 4//29
f 35//30 38//30 30//30
f 25//31 35//31 30//31
f 38//32 39//32 30//32
f 1//33 3//33 4//33
f 10//34 4//34 9//34
f 27//35 36//35 32//35
f 5//36 8//36 6//36
f 8//37 18//37 14//37
f 18//38 13//38 14//38
f 31//39 40//39 27//39
f 30//40 31//40 26//40
f 38//41 35//41 41//41
f 35//42 18//42 24//42
f 9//43 14//43 13//43
f 19//44 23//44 33//44
f 33//45 37//45 28//45
f 17//46 24//46 18//46
f 19//47 9//47 15//47
f 18//48 35//48 25//48
f 28//49 34//49 20//49
f 20//49 23//49 16//49
f 12//50 23//50 16//50
f 11//51 2//51 10//51
f 10//52 19//52 11//52
f 13//53 25//53 15//53
f 20//54 21//54 28//54
f 28//54 21//54 37//54
f 37//55 39//55 40//55
f 38//56 37//56 41//56
f 41//54 37//54 29//54
f 29//57 37//57 21//57
f 32//58 19//58 15//58
f 23//59 12//59 11//59
f 12//60 2//60 11//60
f 6//61 14//61 7//61
f 7//62 14//62 9//62
f 7//63 3//63 6//63
f 36//64 37//64 33//64
f 8//65 3//65 5//65
f 3//66 8//66 1//66
f 1//67 8//67 2//67
f 2//68 22//68 12//68
f 12//69 22//69 16//69
f 22//70 2//70 17//70
f 17//71 2//71 8//71
f 9//72 4//72 7//72
f 19//73 10//73 9//73
f 29//74 41//74 24//74
f 24//75 17//75 22//75
f 5//76 1//76 3//76
f 2//77 1//77 12//77
f 12//78 1//78 16//78
f 16//79 1//79 8//79
f 8//80 1//80 5//80
f 23//49 16//49 28//49
f 28//16 16//16 20//16
f 22//81 16//81 8//81
f 22//82 8//82 17//82
f 17//83 24//83 8//83
f 24//84 18//84 8//84
f 18//85 6//85 8//85
f 18//86 14//86 6//86
f 19//87 23//87 34//87
f 34//49 23//49 28//49
f 37//88 28//88 38//88
f 38//89 28//89 20//89
f 38//90 20//90 21//90
f 38//91 21//91 29//91
f 29//92 17//92 22//92
f 29//93 24//93 17//93
f 35//94 13//94 18//94
f 35//95 25//95 13//95
f 33//96 19//96 34//96
f 40//97 37//97 38//97
f 41//98 38//98 29//98
f 40//99 38//99 39//99
f 30//100 31//100 25//100
f 31//101 26//101 25//101
