# Blender 4.0.0
# www.blender.org
o decimated_mesh
v 0.031840 0.001604 0.021828
v 0.031629 0.000200 0.020867
v 0.031858 0.001717 -0.026325
v 0.031448 0.015570 -0.024785
v 0.031386 0.015578 0.033104
v 0.031023 0.015578 0.035846
v 0.031062 0.000040 0.022496
v 0.030573 0.015578 0.037153
v 0.030860 -0.000697 0.021902
v 0.031548 0.000200 -0.026545
v 0.030961 0.015568 -0.026171
v 0.029799 0.015578 0.038062
v 0.029824 -0.000841 0.020867
v 0.029824 -0.000279 0.022845
v 0.030840 -0.000662 -0.027442
v 0.031103 0.000693 -0.027624
v 0.030692 0.008875 -0.027326
v 0.029452 0.014466 -0.027174
v -0.029826 -0.000841 0.020867
v -0.029826 -0.000279 0.022845
v -0.030938 -0.000669 0.021904
v 0.016869 -0.000627 -0.031963
v 0.027612 0.000700 -0.028862
v -0.029871 0.015578 0.038077
v 0.016470 0.014693 -0.031121
v -0.031631 0.000200 0.020867
v 0.004442 -0.000650 -0.033517
v 0.015769 0.001644 -0.032410
v -0.031841 0.001606 0.021859
v -0.031046 0.015578 0.035964
v -0.030814 -0.000677 -0.027486
v 0.000007 0.000253 -0.034000
v 0.006521 0.000533 -0.033476
v 0.015061 0.015581 -0.031076
v -0.031827 0.001580 -0.026394
v -0.031550 0.000200 -0.026545
v -0.031105 0.000725 -0.027624
v 0.000050 0.001639 -0.034126
v 0.010963 0.014799 -0.031929
v -0.031447 0.015578 0.032717
v -0.031450 0.015569 -0.024811
v -0.027614 0.000692 -0.028869
v -0.016866 -0.000618 -0.031982
v -0.004483 -0.000643 -0.033517
v 0.000006 0.013855 -0.033189
v 0.000014 0.015579 -0.032738
v -0.031075 0.013965 -0.026319
v -0.030720 0.008424 -0.027353
v -0.006523 0.000533 -0.033476
v -0.029531 0.014414 -0.027149
v -0.015600 0.001754 -0.032453
v -0.010965 0.014797 -0.031929
v -0.030839 0.015585 -0.026220
v -0.015116 0.015580 -0.031073
v -0.016340 0.014660 -0.031170
vn 0.9018 -0.3280 0.2814
vn 0.8596 -0.4424 0.2555
vn -0.9520 0.0596 -0.3004
vn -0.0004 -0.9234 0.3839
vn -0.0004 -0.9903 0.1387
vn 0.8589 -0.2286 -0.4583
vn 0.8969 -0.1218 -0.4252
vn 0.8416 0.0605 -0.5368
vn -0.1415 0.0899 -0.9858
vn 0.2847 0.0724 -0.9559
vn 0.9996 0.0295 0.0004
vn -0.8623 -0.3347 0.3801
vn -0.0976 0.4517 -0.8868
vn 0.0811 -0.1079 -0.9909
vn -0.8879 -0.3464 0.3026
vn -0.8037 -0.3924 0.4473
vn -0.1367 -0.2034 -0.9695
vn -0.2751 0.3899 -0.8788
vn 0.4809 0.1303 -0.8670
vn -0.2969 -0.2399 -0.9243
vn 0.8315 0.0619 -0.5520
vn 0.9798 -0.2000 -0.0017
vn 0.7583 -0.6519 -0.0013
vn -0.8581 -0.2238 -0.4622
vn 0.2709 0.4180 -0.8671
vn -0.0004 -0.4731 -0.8810
vn -0.8923 -0.1320 -0.4317
vn -0.2645 0.4419 -0.8572
vn -0.7972 0.0610 -0.6006
vn -0.2852 0.0728 -0.9557
vn 0.0892 0.2513 -0.9638
vn -0.8443 0.0545 -0.5331
vn 0.3563 -0.6441 0.6769
vn 0.1054 0.0747 -0.9916
vn -0.0890 0.2520 -0.9636
vn -0.9996 0.0282 0.0001
vn -0.3436 -0.6511 0.6768
vn -0.4979 0.1247 -0.8582
vn -0.0000 1.0000 -0.0000
vn -0.9805 -0.1966 -0.0017
vn 0.9112 -0.2671 0.3136
vn -0.7670 -0.6416 -0.0018
vn -0.0000 -1.0000 -0.0035
vn 0.1446 0.2780 -0.9496
vn 0.2971 -0.2552 -0.9201
vn 0.3281 -0.1879 -0.9258
vn 0.0002 -0.6927 0.7212
vn -0.0000 -0.6924 0.7215
vn -0.9069 0.1559 -0.3916
vn -0.0000 -0.9143 0.4052
vn -0.0000 -0.9866 0.1634
vn -0.1075 0.0741 -0.9914
vn -0.1107 0.0756 -0.9910
vn -0.1016 0.0760 -0.9919
vn 0.3340 0.0510 -0.9412
vn 0.2828 -0.0513 -0.9578
vn 0.2918 0.0785 -0.9533
vn 0.2912 0.0906 -0.9524
vn -0.1529 -0.9882 -0.0002
vn 0.9995 0.0316 0.0011
vn 0.9887 -0.0733 0.1307
vn 0.1365 -0.2061 -0.9690
vn 0.1232 -0.1336 -0.9833
vn 0.0891 -0.0927 -0.9917
vn -0.0894 -0.0873 -0.9922
vn -0.1222 -0.1300 -0.9840
vn -0.0803 -0.1049 -0.9912
vn -0.3328 -0.1609 -0.9292
vn 0.9889 -0.1483 -0.0000
vn 0.7732 -0.6342 -0.0008
vn 0.9415 0.0647 -0.3308
vn -0.1411 0.2871 -0.9474
vn -0.2824 -0.0394 -0.9585
vn -0.2913 0.0781 -0.9534
vn -0.3350 0.0499 -0.9409
vn -0.2919 0.0905 -0.9522
vn 0.1389 -0.9903 -0.0007
vn -0.6561 0.5068 -0.5592
vn 0.3562 -0.6467 0.6745
vn 0.0978 0.4536 -0.8858
vn 0.1125 0.0764 -0.9907
vn 0.1076 0.0740 -0.9914
vn 0.1462 0.0894 -0.9852
vn -0.9902 -0.0670 0.1222
vn -0.9996 0.0269 -0.0003
vn -0.4984 0.1282 -0.8574
vn 0.0044 0.9999 0.0133
vn -0.0008 1.0000 -0.0002
vn 0.0001 1.0000 -0.0000
vn 0.0007 1.0000 -0.0001
vn 0.0016 1.0000 -0.0026
vn -0.0001 1.0000 0.0001
vn -0.9890 -0.1477 -0.0002
vn 0.8907 -0.2949 0.3459
vn 0.2622 0.4593 -0.8487
vn -0.7813 -0.6241 -0.0013
vn 0.0031 -1.0000 -0.0035
vn -0.0026 -1.0000 -0.0049
vn -0.0008 -1.0000 -0.0040
vn -0.0013 -1.0000 -0.0037
vn 0.0025 -1.0000 -0.0047
vn 0.7735 -0.6338 -0.0013
vn 0.9126 -0.2617 0.3140
vn 0.8912 -0.2961 0.3437
vn 0.7586 -0.6515 -0.0008
vn 0.0047 -0.9997 -0.0223
vn 0.0004 -1.0000 -0.0037
vn 0.2913 0.0695 -0.9541
vn 0.2870 0.0789 -0.9547
vn -0.0000 1.0000 -0.0009
vn 0.3674 -0.6432 0.6718
vn 0.3534 -0.6474 0.6752
vn -0.0004 -0.9866 0.1629
vn -0.0000 -0.9904 0.1383
vn 0.0845 -0.1140 -0.9899
vn 0.1224 -0.1810 -0.9758
vn 0.0001 -1.0000 -0.0036
vn -0.0008 -1.0000 -0.0089
vn 0.1291 -0.1307 -0.9830
vn -0.0000 -1.0000 -0.0034
vn 0.1084 0.0508 -0.9928
vn 0.1082 0.0758 -0.9912
vn 0.1074 0.0764 -0.9913
vn -0.0001 1.0000 -0.0013
vn -0.0267 0.9996 -0.0002
vn -0.0005 1.0000 0.0001
vn -0.0000 1.0000 0.0001
vn -0.4957 0.1277 -0.8590
vn -0.5107 0.1261 -0.8504
vn 0.0002 -0.6924 0.7215
vn -0.0000 -0.6927 0.7212
vn -0.0059 -0.9995 -0.0313
vn -0.1214 -0.1767 -0.9768
vn -0.0843 -0.1118 -0.9902
vn 0.0838 -0.0926 -0.9922
vn -0.0834 -0.0875 -0.9927
vn -0.1059 0.0454 -0.9933
vn -0.1054 0.0757 -0.9915
vn -0.1071 0.0779 -0.9912
vn -0.2874 0.0784 -0.9546
vn -0.2908 0.0702 -0.9542
vn -0.1280 -0.1269 -0.9836
s 0
f 1//1 7//1 2//1
f 2//2 7//2 9//2
f 47//3 35//3 41//3
f 9//4 20//4 21//4
f 9//5 21//5 13//5
f 10//6 15//6 16//6
f 10//7 16//7 3//7
f 3//8 16//8 11//8
f 55//9 52//9 51//9
f 17//10 23//10 25//10
f 1//11 3//11 4//11
f 30//12 29//12 21//12
f 46//13 52//13 54//13
f 33//14 27//14 38//14
f 21//15 29//15 26//15
f 21//16 24//16 30//16
f 44//17 51//17 49//17
f 53//18 55//18 50//18
f 18//19 11//19 17//19
f 42//20 43//20 31//20
f 17//21 11//21 16//21
f 3//22 2//22 10//22
f 9//23 10//23 2//23
f 31//24 36//24 37//24
f 18//25 25//25 11//25
f 27//26 44//26 32//26
f 36//27 35//27 37//27
f 55//28 53//28 54//28
f 47//29 48//29 37//29
f 48//30 55//30 42//30
f 39//31 45//31 46//31
f 35//32 47//32 37//32
f 7//33 14//33 9//33
f 28//34 33//34 39//34
f 45//35 52//35 46//35
f 41//36 29//36 40//36
f 21//37 20//37 24//37
f 50//38 47//38 53//38
f 40//39 5//39 46//39
f 26//40 35//40 36//40
f 7//41 6//41 8//41
f 21//42 36//42 31//42
f 13//43 19//43 27//43
f 25//44 39//44 34//44
f 22//45 23//45 15//45
f 23//46 16//46 15//46
f 24//47 20//47 12//47
f 20//48 14//48 12//48
f 53//49 47//49 41//49
f 9//50 14//50 20//50
f 19//51 13//51 21//51
f 52//52 45//52 49//52
f 45//53 38//53 49//53
f 49//54 51//54 52//54
f 16//55 23//55 17//55
f 23//56 22//56 28//56
f 23//57 28//57 25//57
f 25//58 18//58 17//58
f 21//59 31//59 19//59
f 4//60 5//60 1//60
f 5//61 6//61 1//61
f 33//62 28//62 27//62
f 28//63 22//63 27//63
f 27//64 32//64 38//64
f 38//65 32//65 44//65
f 44//66 43//66 51//66
f 38//67 44//67 49//67
f 31//68 37//68 42//68
f 3//69 1//69 2//69
f 9//70 15//70 10//70
f 3//71 11//71 4//71
f 54//72 52//72 55//72
f 51//73 43//73 42//73
f 55//74 51//74 42//74
f 42//75 37//75 48//75
f 50//76 55//76 48//76
f 15//77 9//77 13//77
f 8//78 7//78 12//78
f 7//79 12//79 14//79
f 46//80 34//80 39//80
f 38//81 45//81 33//81
f 45//82 39//82 33//82
f 39//83 25//83 28//83
f 29//84 30//84 40//84
f 35//85 29//85 41//85
f 50//86 48//86 47//86
f 54//87 53//87 41//87
f 41//88 40//88 54//88
f 54//89 40//89 46//89
f 24//39 12//39 40//39
f 40//39 12//39 5//39
f 8//89 6//89 12//89
f 6//89 5//89 12//89
f 5//90 4//90 34//90
f 11//91 34//91 4//91
f 34//92 46//92 5//92
f 40//39 30//39 24//39
f 26//93 29//93 35//93
f 7//94 1//94 6//94
f 25//95 34//95 11//95
f 21//96 26//96 36//96
f 31//97 43//97 19//97
f 43//98 44//98 19//98
f 44//99 27//99 19//99
f 22//100 15//100 13//100
f 27//101 22//101 13//101
f 2//102 15//102 10//102
f 6//103 8//103 1//103
f 8//104 7//104 1//104
f 9//105 15//105 2//105
f 27//106 22//106 15//106
f 13//107 27//107 15//107
f 23//108 28//108 17//108
f 28//109 25//109 17//109
f 46//110 53//110 34//110
f 53//89 5//89 34//89
f 53//89 6//89 5//89
f 53//89 8//89 6//89
f 53//89 12//89 8//89
f 12//111 9//111 7//111
f 12//112 14//112 9//112
f 21//113 19//113 9//113
f 19//114 13//114 9//114
f 32//115 33//115 27//115
f 33//116 22//116 27//116
f 13//117 31//117 27//117
f 31//118 44//118 27//118
f 33//119 28//119 22//119
f 19//120 31//120 13//120
f 33//121 38//121 28//121
f 38//122 39//122 28//122
f 38//123 45//123 39//123
f 54//124 53//124 46//124
f 41//125 40//125 53//125
f 40//126 30//126 53//126
f 30//92 24//92 53//92
f 24//127 12//127 53//127
f 50//128 48//128 53//128
f 48//129 47//129 53//129
f 24//130 14//130 12//130
f 24//131 20//131 14//131
f 31//132 43//132 44//132
f 43//133 49//133 44//133
f 49//134 32//134 44//134
f 38//135 33//135 32//135
f 49//136 38//136 32//136
f 49//137 51//137 38//137
f 51//138 45//138 38//138
f 51//139 52//139 45//139
f 51//140 48//140 55//140
f 51//141 42//141 48//141
f 51//142 49//142 43//142
