mtllib material.mtl
usemtl material_0
v -0.00079916 -0.02494293 0.00079926
v -0.00079916 -0.02494293 -0.00079903
v 0.00079918 -0.02494293 -0.00079903
v 0.00079918 -0.02494293 0.00079926
v 0.60383000 -0.36710930 0.04628540
v 0.60383000 0.37567840 0.04628540
v 0.60383000 0.37567840 -0.00000061
v 0.60383000 -0.36710930 -0.00000061
v -0.60382950 -0.36710930 -0.00000061
v -0.60382950 0.37567840 -0.00000061
v -0.60382950 0.37567840 0.04628540
v -0.60382950 -0.36710930 0.04628540
v 0.00000031 -0.36710930 -0.00000061
v 0.60383000 -0.36710930 -0.00000061
v 0.60383000 0.37567840 -0.00000061
v 0.00000031 0.37567840 -0.00000061
v -0.60382950 -0.36710930 -0.00000061
v -0.60382950 0.37567840 -0.00000061
v 0.60383000 0.37567840 0.04628540
v 0.00000031 0.37567840 -0.00000061
v 0.60383000 0.37567840 -0.00000061
v 0.00000031 0.37567840 0.04628540
v -0.60382950 0.37567840 -0.00000061
v -0.60382950 0.37567840 0.04628540
v 0.60383000 0.37567840 0.04628540
v 0.57682990 0.35288390 0.06842590
v 0.00000031 0.35288390 0.06842590
v 0.00000031 0.37567840 0.04628540
v -0.60382950 0.37567840 0.04628540
v -0.57682960 0.35288390 0.06842590
v -0.60382950 0.37567840 0.04628540
v -0.57682960 0.35288390 0.06842590
v -0.57682960 -0.28838750 0.06842590
v -0.60382950 -0.36710930 0.04628540
v 0.00000031 -0.36710930 0.04628540
v 0.57682990 -0.28838750 0.06842590
v 0.60383000 -0.36710930 0.04628540
v 0.00000031 -0.28838750 0.06842590
v -0.60382950 -0.36710930 0.04628540
v -0.57682960 -0.28838750 0.06842590
v 0.60383000 -0.36710930 0.04628540
v 0.57682990 -0.28838750 0.06842590
v 0.57682990 0.35288390 0.06842590
v 0.60383000 0.37567840 0.04628540
vn 0.00000000 1.00000000 0.00000000
vn 0.00000000 1.00000000 0.00000000
vn 0.00000000 1.00000000 0.00000000
vn 0.00000000 1.00000000 0.00000000
vn 0.99998800 0.00000000 0.00491863
vn 1.00000000 0.00000000 0.00000000
vn 1.00000000 0.00000000 0.00000000
vn 1.00000000 0.00000000 0.00000000
vn -1.00000000 0.00000000 0.00000000
vn -1.00000000 0.00000000 0.00000000
vn -1.00000000 0.00000000 0.00000000
vn -0.99998800 0.00000000 0.00491891
vn 0.00000000 0.00000000 -1.00000000
vn 0.00000000 0.00000000 -1.00000000
vn 0.00000000 0.00000000 -1.00000000
vn 0.00000000 0.00000000 -1.00000000
vn 0.00000000 0.00000000 -1.00000000
vn 0.00000000 0.00000000 -1.00000000
vn 0.00000000 1.00000000 0.00000000
vn 0.00000000 1.00000000 0.00000000
vn 0.00000000 1.00000000 0.00000000
vn 0.00000000 1.00000000 0.00000000
vn 0.00000000 1.00000000 0.00000000
vn 0.00000000 1.00000000 0.00000000
vn 0.00000000 0.69674220 0.71732160
vn 0.00000000 0.69674220 0.71732160
vn 0.00000000 0.69674220 0.71732160
vn 0.00000000 0.69674220 0.71732160
vn 0.00000000 0.69674220 0.71732160
vn 0.00000000 0.69674220 0.71732170
vn -0.63409010 0.00000000 0.77325920
vn -0.63409010 0.00000000 0.77325910
vn -0.63409010 0.00000000 0.77325910
vn -0.63409010 0.00000000 0.77325920
vn 0.00000000 -0.27074540 0.96265100
vn 0.00000000 -0.27074550 0.96265100
vn 0.00000000 -0.27074540 0.96265100
vn 0.00000000 -0.27074540 0.96265100
vn 0.00000000 -0.27074530 0.96265100
vn 0.00000000 -0.27074530 0.96265100
vn 0.63408670 0.00000000 0.77326200
vn 0.63408670 0.00000000 0.77326200
vn 0.63408670 0.00000000 0.77326200
vn 0.63408670 0.00000000 0.77326200
vt -43.72327000 -18.17474000
vt -43.72327000 -18.17342000
vt -43.72195000 -18.17342000
vt -43.72195000 -18.17474000
vt -43.34437000 0.73395100
vt -44.91887000 0.73394690
vt -44.91887000 0.83205680
vt -43.34437000 0.83205630
vt -43.34436000 0.74980510
vt -44.91889000 0.74980830
vt -44.91889000 0.84792040
vt -43.34436000 0.84791710
vt -44.32332000 1.00929000
vt -43.14397000 1.00928600
vt -43.14397000 -0.44146820
vt -44.32332000 -0.44146750
vt -45.50268000 1.00929000
vt -45.50268000 -0.44147390
vt -43.06487000 0.59955450
vt -44.32332000 0.69602000
vt -43.06487000 0.69601990
vt -44.32332000 0.59955450
vt -45.58177000 0.69602000
vt -45.58177000 0.59955450
vt -43.06487000 0.59955450
vt -43.12114000 0.55341140
vt -44.32333000 0.55341090
vt -44.32332000 0.59955450
vt -45.58177000 0.59955450
vt -45.52551000 0.55341090
vt -44.91889000 0.84792040
vt -44.87057000 0.89485870
vt -43.51123000 0.89485450
vt -43.34436000 0.84791710
vt -44.32332000 0.61339780
vt -43.17506000 0.77010530
vt -43.12132000 0.61339720
vt -44.32332000 0.77010570
vt -45.52534000 0.61340160
vt -45.47158000 0.77010610
vt -43.34437000 0.73395100
vt -43.51124000 0.68701450
vt -44.87056000 0.68701520
vt -44.91887000 0.73394690
f 3/3/3 2/2/2 1/1/1
f 4/4/4 3/3/3 1/1/1
f 7/7/7 6/6/6 5/5/5
f 8/8/8 7/7/7 5/5/5
f 11/11/11 10/10/10 9/9/9
f 12/12/12 11/11/11 9/9/9
f 15/15/15 14/14/14 13/13/13
f 16/16/16 15/15/15 13/13/13
f 16/16/16 13/13/13 17/17/17
f 18/18/18 16/16/16 17/17/17
f 21/21/21 20/20/20 19/19/19
f 20/20/20 22/22/22 19/19/19
f 20/20/20 23/23/23 22/22/22
f 23/23/23 24/24/24 22/22/22
f 27/27/27 26/26/26 25/25/25
f 28/28/28 27/27/27 25/25/25
f 28/28/28 29/29/29 27/27/27
f 29/29/29 30/30/30 27/27/27
f 33/33/33 32/32/32 31/31/31
f 34/34/34 33/33/33 31/31/31
f 37/37/37 36/36/36 35/35/35
f 36/36/36 38/38/38 35/35/35
f 35/35/35 38/38/38 39/39/39
f 38/38/38 40/40/40 39/39/39
f 43/43/43 42/42/42 41/41/41
f 44/44/44 43/43/43 41/41/41

