mtllib material.mtl
usemtl material_0
v 0.01487486 -0.03750835 -0.02604851
v 0.01443631 -0.04378346 -0.02615990
v 0.01281443 -0.05082942 -0.02665914
v 0.01487486 -0.03750835 -0.02604851
v 0.01281443 -0.05082942 -0.02665914
v 0.01443631 -0.04378346 -0.02615990
v -0.01382512 -0.05142832 -0.02618936
v -0.01116878 -0.05397032 -0.02921333
v -0.01342583 -0.05481019 -0.02713042
v -0.01779050 -0.04322308 -0.02550333
v -0.01157584 -0.04159640 -0.03041793
v -0.00746270 -0.05353977 -0.03020864
v -0.01536203 -0.03152103 -0.02577911
v -0.01973068 -0.03721523 -0.02194837
v -0.00583224 -0.04671004 -0.02938305
v -0.00443954 -0.05497850 -0.02645931
v -0.00837534 -0.03844429 -0.02893857
v -0.00333522 -0.04519258 -0.02584895
v -0.00099880 -0.05521868 -0.02567309
v -0.01638589 -0.02553507 -0.02061244
v -0.02177279 -0.03047866 -0.01540691
v -0.02497693 -0.01448589 -0.01132779
v -0.02012387 -0.01540893 -0.01400171
v -0.02811941 -0.02073319 -0.01049994
v -0.03159824 -0.01404931 -0.00384679
v -0.03683466 -0.00802765 0.00196894
v -0.01395904 -0.02294811 -0.01878032
v 0.00034345 -0.04108617 -0.02919997
v 0.00254436 -0.05406930 -0.02855604
v -0.03689789 0.00088407 -0.00192876
v -0.03914621 -0.00439493 0.00772631
v -0.00463088 -0.03819067 -0.02373450
v -0.00791184 -0.03044608 -0.01892076
v -0.00959298 -0.02387610 -0.01266131
v -0.02775497 -0.00324161 -0.00870313
v -0.03110350 0.01179416 -0.00116734
v -0.04406988 0.00913246 0.01043373
v -0.04581731 0.00286155 0.01707878
v -0.02529329 0.00002502 -0.00688002
v -0.03652812 0.01549165 0.00137526
v -0.04337650 0.01536403 0.02018685
v -0.04885394 0.01247327 0.02518910
v -0.03724078 0.02491038 0.00345250
v -0.04385908 0.02356146 0.02527737
v -0.05021349 0.01951636 0.03041794
v -0.03917807 0.02608197 0.00981510
v -0.04061314 0.03160268 0.01793724
v -0.03438995 0.03611636 0.01630531
v -0.02931772 0.02140097 0.00288902
v -0.02711090 0.03490582 0.02135130
v -0.02307471 0.02171696 0.01579981
v -0.01756891 0.03699689 0.02344711
v -0.02133326 0.01636752 0.01071885
v -0.02026858 0.00366563 0.00303061
v -0.01699687 0.01338414 0.00601658
v -0.01584093 -0.00620449 -0.00356561
v -0.01074173 -0.01582040 -0.00515968
v -0.01214392 -0.00520940 -0.00266063
v 0.00096042 -0.01079296 -0.01216025
v -0.00497382 -0.02353371 -0.01309244
v -0.00461151 -0.03045010 -0.01891430
v 0.00024307 -0.02312866 -0.02110707
v -0.00023826 -0.03342056 -0.02631107
v 0.00311264 -0.03609750 -0.02848791
v -0.01464611 0.00354019 0.00243816
v -0.00332244 0.00951413 -0.00661166
v 0.00357105 -0.02216981 -0.02066050
v 0.00485282 -0.04162960 -0.02862832
v 0.00933962 -0.03343492 -0.02145727
v 0.00717536 -0.04758824 -0.02453118
v 0.01045486 -0.03573762 -0.02203495
v 0.00730780 -0.05556122 -0.02509718
v 0.00958266 -0.02730990 -0.01378327
v -0.00832550 0.01273702 -0.00308620
v -0.00784404 0.02669529 -0.00618320
v 0.01274517 -0.05431487 -0.02778749
v 0.01688308 -0.05533578 -0.02532559
v 0.01824436 -0.04765005 -0.02223892
v 0.02503878 -0.03728230 -0.02279222
v 0.02271222 -0.03345297 -0.02372310
v 0.02409687 -0.02481287 -0.02161547
v 0.02945418 -0.02737280 -0.01552149
v 0.02997731 -0.01540315 -0.01785074
v 0.03528868 -0.01947274 -0.01284803
v 0.03274676 -0.01000758 -0.01423287
v 0.03948019 -0.00928685 -0.00594419
v 0.02111481 -0.02294592 -0.02092521
v 0.01738847 -0.02812654 -0.02064325
v 0.02823328 -0.00741454 -0.01429315
v 0.01668626 -0.02379219 -0.01079716
v 0.02474832 -0.00722149 -0.01203944
v 0.02848977 0.00500828 -0.01136268
v 0.02340619 -0.00274420 -0.00310780
v 0.01562925 -0.01685536 -0.00412900
v 0.03943467 0.00207289 -0.00749577
v 0.04380677 0.00453736 -0.00203900
v 0.03717317 0.00895743 -0.00967528
v 0.03473793 0.02320207 -0.00751166
v 0.04143544 0.01583081 0.00186750
v 0.04651718 0.01848522 0.00767788
v 0.04731395 0.02179045 0.01071543
v 0.03323424 0.00933808 -0.01174362
v 0.02944189 0.01749678 -0.00886041
v 0.00716611 -0.01537710 -0.00856061
v 0.02457661 0.00931246 -0.00390669
v 0.03646247 0.04074745 0.00302588
v 0.04237526 0.03315162 0.00828574
v 0.05021348 0.02908950 0.01208274
v 0.02992073 0.03607334 -0.00133510
v 0.03070826 0.04369254 0.00339394
v 0.02173303 0.04054490 0.01356461
v 0.01860723 0.02134304 0.00608339
v 0.01849405 0.01071796 0.00038727
v 0.02022735 0.03359882 0.00979567
v 0.01450448 0.02659154 0.00775210
v 0.01702135 -0.00703716 -0.00075726
v 0.01161103 -0.00510374 -0.00143436
v 0.00756053 0.01931482 0.00062856
v 0.00716021 0.00652419 -0.00469747
v 0.01163191 0.03458861 0.01102076
v 0.01176798 0.04574700 0.01466796
v 0.00469557 0.03437262 0.00010805
v 0.00649273 0.05355833 0.00835636
v 0.00031099 0.00122535 -0.00839170
v 0.00148718 0.00921527 -0.00741389
v -0.00300734 0.03798430 -0.00396458
v 0.00012932 0.05556121 0.00702900
v -0.00736300 0.05406145 0.00949200
v 0.00164241 0.02821826 -0.00678888
v -0.00600940 -0.00306096 -0.00766251
v -0.00970285 0.04330107 0.00360125
v -0.01344130 0.04609915 0.01684241
v -0.01408654 0.02708363 0.00176456
v -0.01482601 0.03436217 0.01468374
v -0.01382512 -0.05142832 -0.02618936
v -0.01342583 -0.05481019 -0.02713042
v -0.01116878 -0.05397032 -0.02921333
v -0.01779050 -0.04322308 -0.02550333
v -0.01157584 -0.04159640 -0.03041793
v -0.00746270 -0.05353977 -0.03020864
v -0.01536203 -0.03152103 -0.02577911
v -0.01973068 -0.03721523 -0.02194837
v -0.00583224 -0.04671004 -0.02938305
v -0.00443954 -0.05497850 -0.02645931
v -0.00837534 -0.03844429 -0.02893857
v -0.00333522 -0.04519258 -0.02584895
v -0.00099880 -0.05521868 -0.02567309
v -0.01638589 -0.02553507 -0.02061244
v -0.02177279 -0.03047866 -0.01540691
v -0.02497693 -0.01448589 -0.01132779
v -0.02012387 -0.01540893 -0.01400171
v -0.02811941 -0.02073319 -0.01049994
v -0.03159824 -0.01404931 -0.00384679
v -0.03683466 -0.00802765 0.00196894
v -0.01395904 -0.02294811 -0.01878032
v 0.00034345 -0.04108617 -0.02919997
v 0.00254436 -0.05406930 -0.02855604
v -0.03689789 0.00088407 -0.00192876
v -0.03914621 -0.00439493 0.00772631
v -0.00463088 -0.03819067 -0.02373450
v -0.00791184 -0.03044608 -0.01892076
v -0.00959298 -0.02387610 -0.01266131
v -0.02775497 -0.00324161 -0.00870313
v -0.03110350 0.01179416 -0.00116734
v -0.04406988 0.00913246 0.01043373
v -0.04581731 0.00286155 0.01707878
v -0.02529329 0.00002502 -0.00688002
v -0.03652812 0.01549165 0.00137526
v -0.04337650 0.01536403 0.02018685
v -0.04885394 0.01247327 0.02518910
v -0.03724078 0.02491038 0.00345250
v -0.04385908 0.02356146 0.02527737
v -0.05021349 0.01951636 0.03041794
v -0.03917807 0.02608197 0.00981510
v -0.04061314 0.03160268 0.01793724
v -0.03438995 0.03611636 0.01630531
v -0.02931772 0.02140097 0.00288902
v -0.02711090 0.03490582 0.02135130
v -0.02307471 0.02171696 0.01579981
v -0.01756891 0.03699689 0.02344711
v -0.02133326 0.01636752 0.01071885
v -0.02026858 0.00366563 0.00303061
v -0.01699687 0.01338414 0.00601658
v -0.01584093 -0.00620449 -0.00356561
v -0.01074173 -0.01582040 -0.00515968
v -0.01214392 -0.00520940 -0.00266063
v 0.00096042 -0.01079296 -0.01216025
v -0.00497382 -0.02353371 -0.01309244
v -0.00461151 -0.03045010 -0.01891430
v 0.00024307 -0.02312866 -0.02110707
v -0.00023826 -0.03342056 -0.02631107
v 0.00311264 -0.03609750 -0.02848791
v -0.01464611 0.00354019 0.00243816
v -0.00332244 0.00951413 -0.00661166
v 0.00357105 -0.02216981 -0.02066050
v 0.00485282 -0.04162960 -0.02862832
v 0.00933962 -0.03343492 -0.02145727
v 0.00717536 -0.04758824 -0.02453118
v 0.01045486 -0.03573762 -0.02203495
v 0.00730780 -0.05556122 -0.02509718
v 0.00958266 -0.02730990 -0.01378327
v -0.00832550 0.01273702 -0.00308620
v -0.00784404 0.02669529 -0.00618320
v 0.01274517 -0.05431487 -0.02778749
v 0.01688308 -0.05533578 -0.02532559
v 0.01824436 -0.04765005 -0.02223892
v 0.02503878 -0.03728230 -0.02279222
v 0.02271222 -0.03345297 -0.02372310
v 0.02409687 -0.02481287 -0.02161547
v 0.02945418 -0.02737280 -0.01552149
v 0.02997731 -0.01540315 -0.01785074
v 0.03528868 -0.01947274 -0.01284803
v 0.03274676 -0.01000758 -0.01423287
v 0.03948019 -0.00928685 -0.00594419
v 0.02111481 -0.02294592 -0.02092521
v 0.01738847 -0.02812654 -0.02064325
v 0.02823328 -0.00741454 -0.01429315
v 0.01668626 -0.02379219 -0.01079716
v 0.02474832 -0.00722149 -0.01203944
v 0.02848977 0.00500828 -0.01136268
v 0.02340619 -0.00274420 -0.00310780
v 0.01562925 -0.01685536 -0.00412900
v 0.03943467 0.00207289 -0.00749577
v 0.04380677 0.00453736 -0.00203900
v 0.03717317 0.00895743 -0.00967528
v 0.03473793 0.02320207 -0.00751166
v 0.04143544 0.01583081 0.00186750
v 0.04651718 0.01848522 0.00767788
v 0.04731395 0.02179045 0.01071543
v 0.03323424 0.00933808 -0.01174362
v 0.02944189 0.01749678 -0.00886041
v 0.00716611 -0.01537710 -0.00856061
v 0.02457661 0.00931246 -0.00390669
v 0.03646247 0.04074745 0.00302588
v 0.04237526 0.03315162 0.00828574
v 0.05021348 0.02908950 0.01208274
v 0.02992073 0.03607334 -0.00133510
v 0.03070826 0.04369254 0.00339394
v 0.02173303 0.04054490 0.01356461
v 0.01860723 0.02134304 0.00608339
v 0.01849405 0.01071796 0.00038727
v 0.02022735 0.03359882 0.00979567
v 0.01450448 0.02659154 0.00775210
v 0.01702135 -0.00703716 -0.00075726
v 0.01161103 -0.00510374 -0.00143436
v 0.00756053 0.01931482 0.00062856
v 0.00716021 0.00652419 -0.00469747
v 0.01163191 0.03458861 0.01102076
v 0.01176798 0.04574700 0.01466796
v 0.00469557 0.03437262 0.00010805
v 0.00649273 0.05355833 0.00835636
v 0.00031099 0.00122535 -0.00839170
v 0.00148718 0.00921527 -0.00741389
v -0.00300734 0.03798430 -0.00396458
v 0.00012932 0.05556121 0.00702900
v -0.00736300 0.05406145 0.00949200
v 0.00164241 0.02821826 -0.00678888
v -0.00600940 -0.00306096 -0.00766251
v -0.00970285 0.04330107 0.00360125
v -0.01344130 0.04609915 0.01684241
v -0.01408654 0.02708363 0.00176456
v -0.01482601 0.03436217 0.01468374
vn 0.20875330 -0.21406360 0.95425310
vn -0.41609320 0.09366232 0.90448530
vn -0.04168916 -0.21064300 0.97667380
vn -0.20875330 0.21406360 -0.95425310
vn 0.04168916 0.21064300 -0.97667380
vn 0.41609320 -0.09366232 -0.90448530
vn 0.82364390 0.26288980 0.50249350
vn 0.53231690 0.08823130 0.84193470
vn 0.69644930 -0.11487430 0.70835180
vn 0.67444250 -0.01214650 0.73822750
vn 0.20792920 -0.12595370 0.97000060
vn -0.32755920 0.08612445 0.94089720
vn 0.35268090 -0.45827750 0.81584180
vn 0.77723960 -0.20994340 0.59314610
vn -0.58690260 -0.07196266 0.80645320
vn -0.52224510 0.02487331 0.85243260
vn -0.43611790 -0.41637190 0.79776910
vn -0.09448743 -0.06265575 0.99355240
vn 0.23722370 0.06674507 0.96915940
vn 0.43279500 -0.45327330 0.77925070
vn 0.73792320 -0.16697030 0.65390390
vn 0.58816710 -0.12497620 0.79902470
vn -0.10303290 -0.52358790 0.84571860
vn 0.57522320 -0.18372460 0.79709690
vn 0.74633890 -0.05148523 0.66357180
vn 0.86318240 0.18497860 0.46978620
vn -0.40584190 -0.66265930 0.62942430
vn 0.33164880 -0.06744659 0.94098880
vn -0.04565718 0.09122295 0.99478320
vn 0.74909470 -0.01730430 0.66223680
vn 0.91167600 0.21055350 0.35286540
vn 0.00009156 -0.50902320 0.86075280
vn -0.38497200 -0.63245390 0.67215980
vn -0.29105720 -0.70962150 0.64165650
vn 0.28358640 -0.28254860 0.91637610
vn -0.14896440 -0.37233470 0.91606580
vn 0.93900940 -0.08505647 0.33320670
vn 0.92868450 -0.03253395 0.36944120
vn -0.35543000 -0.53793630 0.76439120
vn 0.57348760 -0.15683840 0.80406080
vn 0.88312470 -0.26414080 0.38771190
vn 0.72133030 -0.31502300 0.61680080
vn 0.40474400 -0.54067590 0.73746310
vn 0.87059510 -0.22401200 0.43804430
vn 0.71122640 -0.32533770 0.62314710
vn 0.88252080 -0.32188490 0.34285150
vn 0.82540000 -0.38326390 0.41451590
vn -0.01257387 -0.76364870 0.64550950
vn -0.51480230 -0.44665230 0.73176530
vn -0.36433870 -0.54147230 0.75767080
vn -0.23734850 -0.62955160 0.73981790
vn 0.67560670 -0.35329170 0.64710160
vn -0.13092940 -0.59815510 0.79061240
vn -0.28626780 -0.53255570 0.79651430
vn 0.66201870 -0.24857730 0.70706480
vn -0.38408620 -0.49426100 0.77986150
vn 0.00744659 -0.48134280 0.87650080
vn 0.31867990 -0.29044960 0.90226500
vn -0.04388583 -0.40525710 0.91314880
vn 0.47445190 -0.53140060 0.70178970
vn 0.42888580 -0.51290490 0.74363000
vn 0.42016200 -0.47952230 0.77040390
vn 0.49911490 -0.37407660 0.78163350
vn -0.20725560 -0.32258730 0.92357060
vn 0.40273910 -0.29424110 0.86673150
vn 0.38188300 -0.05267547 0.92270830
vn -0.41616650 -0.53732960 0.73354100
vn -0.54330070 -0.02102751 0.83927470
vn -0.47060710 -0.49068870 0.73331690
vn -0.61379660 -0.00103751 0.78946350
vn 0.28230660 -0.40984800 0.86736820
vn -0.12857770 -0.16791690 0.97738000
vn -0.48302840 -0.59363010 0.64365130
vn 0.66339960 0.08606474 0.74329920
vn 0.48100620 -0.11099660 0.86966250
vn -0.02822980 -0.30735370 0.95117650
vn -0.53206370 -0.24009080 0.81195120
vn -0.56610800 0.12998310 0.81401860
vn -0.49120280 0.03015288 0.87052310
vn -0.35225580 -0.11286090 0.92907390
vn -0.36802740 -0.19870840 0.90833400
vn -0.71409140 0.06091670 0.69739720
vn -0.39836510 -0.19333800 0.89661900
vn -0.68890800 0.02456801 0.72443230
vn -0.53734210 -0.18720130 0.82232540
vn -0.78019110 0.02447644 0.62506220
vn 0.36971530 -0.45282020 0.81133500
vn 0.70622550 -0.54386060 0.45327830
vn 0.14621730 -0.35777590 0.92228900
vn 0.52243110 -0.63742820 0.56634870
vn 0.74100400 -0.38734850 0.54852000
vn 0.57475920 -0.17960260 0.79837000
vn 0.72327320 -0.22056180 0.65439160
vn 0.13138710 -0.50485570 0.85314610
vn -0.75845830 0.01739594 0.65148930
vn -0.79665390 -0.14835580 0.58594640
vn -0.65274050 -0.15027550 0.74252740
vn -0.38607220 -0.34432130 0.85579850
vn -0.78071630 -0.18967780 0.59540270
vn -0.77097500 -0.21967680 0.59777890
vn -0.71982020 -0.18036690 0.67031840
vn -0.12357180 -0.19135450 0.97371130
vn 0.48168180 -0.26475240 0.83539740
vn -0.61278740 -0.37532030 0.69543240
vn 0.74211080 -0.12174200 0.65912850
vn -0.47417580 -0.42354450 0.77185960
vn -0.73801930 -0.18183430 0.64981830
vn -0.43434640 0.00381502 0.90073780
vn 0.32991420 -0.46932650 0.81907830
vn 0.40017400 -0.51279150 0.75954320
vn 0.37166220 -0.43218150 0.82163640
vn 0.25364680 -0.40944820 0.87636490
vn 0.10660170 -0.28306060 0.95315940
vn 0.53571280 -0.43487550 0.72380600
vn -0.31937820 -0.37599030 0.86984410
vn 0.15970710 -0.24232240 0.95696060
vn -0.46941800 -0.13431550 0.87270050
vn -0.58935310 -0.24030680 0.77130760
vn -0.45942820 -0.15299000 0.87493990
vn -0.49246050 -0.36177650 0.79158090
vn -0.62778300 -0.22840670 0.74412290
vn -0.70654990 -0.27601550 0.65161540
vn -0.59905450 -0.32127180 0.73342910
vn -0.09250274 -0.17124130 0.98087700
vn -0.23749670 -0.12491300 0.96332340
vn 0.02252312 -0.43755270 0.89891060
vn 0.00576820 -0.53101020 0.84734590
vn 0.61338720 -0.49280330 0.61717180
vn -0.42955040 -0.18964290 0.88290540
vn 0.51863800 -0.11172950 0.84766220
vn 0.73431630 -0.39003200 0.55556700
vn 0.91804560 -0.23350170 0.32042030
vn 0.87477240 -0.16596340 0.45522460
vn 0.94244060 -0.20359520 0.26524460
vn -0.82364390 -0.26288980 -0.50249350
vn -0.69644930 0.11487430 -0.70835180
vn -0.53231690 -0.08823130 -0.84193470
vn -0.67444250 0.01214650 -0.73822750
vn -0.20792920 0.12595370 -0.97000060
vn 0.32755920 -0.08612445 -0.94089720
vn -0.35268090 0.45827750 -0.81584180
vn -0.77723960 0.20994340 -0.59314610
vn 0.58690260 0.07196266 -0.80645320
vn 0.52224510 -0.02487331 -0.85243260
vn 0.43611790 0.41637190 -0.79776910
vn 0.09448743 0.06265575 -0.99355240
vn -0.23722370 -0.06674507 -0.96915940
vn -0.43279500 0.45327330 -0.77925070
vn -0.73792320 0.16697030 -0.65390390
vn -0.58816710 0.12497620 -0.79902470
vn 0.10303290 0.52358790 -0.84571860
vn -0.57522320 0.18372460 -0.79709690
vn -0.74633890 0.05148523 -0.66357180
vn -0.86318240 -0.18497860 -0.46978620
vn 0.40584190 0.66265930 -0.62942430
vn -0.33164880 0.06744659 -0.94098880
vn 0.04565718 -0.09122295 -0.99478320
vn -0.74909470 0.01730430 -0.66223680
vn -0.91167600 -0.21055350 -0.35286540
vn -0.00009156 0.50902320 -0.86075280
vn 0.38497200 0.63245390 -0.67215980
vn 0.29105720 0.70962150 -0.64165650
vn -0.28358640 0.28254860 -0.91637610
vn 0.14896440 0.37233470 -0.91606580
vn -0.93900940 0.08505647 -0.33320670
vn -0.92868450 0.03253395 -0.36944120
vn 0.35543000 0.53793630 -0.76439120
vn -0.57348760 0.15683840 -0.80406080
vn -0.88312470 0.26414080 -0.38771190
vn -0.72133030 0.31502300 -0.61680080
vn -0.40474400 0.54067590 -0.73746310
vn -0.87059510 0.22401200 -0.43804430
vn -0.71122640 0.32533770 -0.62314710
vn -0.88252080 0.32188490 -0.34285150
vn -0.82540000 0.38326390 -0.41451590
vn 0.01257387 0.76364870 -0.64550950
vn 0.51480230 0.44665230 -0.73176530
vn 0.36433870 0.54147230 -0.75767080
vn 0.23734850 0.62955160 -0.73981790
vn -0.67560670 0.35329170 -0.64710160
vn 0.13092940 0.59815510 -0.79061240
vn 0.28626780 0.53255570 -0.79651430
vn -0.66201870 0.24857730 -0.70706480
vn 0.38408620 0.49426100 -0.77986150
vn -0.00744659 0.48134280 -0.87650080
vn -0.31867990 0.29044960 -0.90226500
vn 0.04388583 0.40525710 -0.91314880
vn -0.47445190 0.53140060 -0.70178970
vn -0.42888580 0.51290490 -0.74363000
vn -0.42016200 0.47952230 -0.77040390
vn -0.49911490 0.37407660 -0.78163350
vn 0.20725560 0.32258730 -0.92357060
vn -0.40273910 0.29424110 -0.86673150
vn -0.38188300 0.05267547 -0.92270830
vn 0.41616650 0.53732960 -0.73354100
vn 0.54330070 0.02102751 -0.83927470
vn 0.47060710 0.49068870 -0.73331690
vn 0.61379660 0.00103751 -0.78946350
vn -0.28230660 0.40984800 -0.86736820
vn 0.12857770 0.16791690 -0.97738000
vn 0.48302840 0.59363010 -0.64365130
vn -0.66339960 -0.08606474 -0.74329920
vn -0.48100620 0.11099660 -0.86966250
vn 0.02822980 0.30735370 -0.95117650
vn 0.53206370 0.24009080 -0.81195120
vn 0.56610800 -0.12998310 -0.81401860
vn 0.49120280 -0.03015288 -0.87052310
vn 0.35225580 0.11286090 -0.92907390
vn 0.36802740 0.19870840 -0.90833400
vn 0.71409140 -0.06091670 -0.69739720
vn 0.39836510 0.19333800 -0.89661900
vn 0.68890800 -0.02456801 -0.72443230
vn 0.53734210 0.18720130 -0.82232540
vn 0.78019110 -0.02447644 -0.62506220
vn -0.36971530 0.45282020 -0.81133500
vn -0.70622550 0.54386060 -0.45327830
vn -0.14621730 0.35777590 -0.92228900
vn -0.52243110 0.63742820 -0.56634870
vn -0.74100400 0.38734850 -0.54852000
vn -0.57475920 0.17960260 -0.79837000
vn -0.72327320 0.22056180 -0.65439160
vn -0.13138710 0.50485570 -0.85314610
vn 0.75845830 -0.01739594 -0.65148930
vn 0.79665390 0.14835580 -0.58594640
vn 0.65274050 0.15027550 -0.74252740
vn 0.38607220 0.34432130 -0.85579850
vn 0.78071630 0.18967780 -0.59540270
vn 0.77097500 0.21967680 -0.59777890
vn 0.71982020 0.18036690 -0.67031840
vn 0.12357180 0.19135450 -0.97371130
vn -0.48168180 0.26475240 -0.83539740
vn 0.61278740 0.37532030 -0.69543240
vn -0.74211080 0.12174200 -0.65912850
vn 0.47417580 0.42354450 -0.77185960
vn 0.73801930 0.18183430 -0.64981830
vn 0.43434640 -0.00381502 -0.90073780
vn -0.32991420 0.46932650 -0.81907830
vn -0.40017400 0.51279150 -0.75954320
vn -0.37166220 0.43218150 -0.82163640
vn -0.25364680 0.40944820 -0.87636490
vn -0.10660170 0.28306060 -0.95315940
vn -0.53571280 0.43487550 -0.72380600
vn 0.31937820 0.37599030 -0.86984410
vn -0.15970710 0.24232240 -0.95696060
vn 0.46941800 0.13431550 -0.87270050
vn 0.58935310 0.24030680 -0.77130760
vn 0.45942820 0.15299000 -0.87493990
vn 0.49246050 0.36177650 -0.79158090
vn 0.62778300 0.22840670 -0.74412290
vn 0.70654990 0.27601550 -0.65161540
vn 0.59905450 0.32127180 -0.73342910
vn 0.09250274 0.17124130 -0.98087700
vn 0.23749670 0.12491300 -0.96332340
vn -0.02252312 0.43755270 -0.89891060
vn -0.00576820 0.53101020 -0.84734590
vn -0.61338720 0.49280330 -0.61717180
vn 0.42955040 0.18964290 -0.88290540
vn -0.51863800 0.11172950 -0.84766220
vn -0.73431630 0.39003200 -0.55556700
vn -0.91804560 0.23350170 -0.32042030
vn -0.87477240 0.16596340 -0.45522460
vn -0.94244060 0.20359520 -0.26524460
vt 0.13584250 0.55698440
vt 0.14021680 0.54361310
vt 0.14441120 0.52236340
vt 0.13584250 0.55698440
vt 0.14441120 0.52236340
vt 0.14021680 0.54361310
vt 0.23712650 0.52356020
vt 0.22598200 0.51678200
vt 0.23425860 0.51438790
vt 0.24510570 0.54656540
vt 0.22660940 0.54742710
vt 0.21562330 0.51770320
vt 0.23430730 0.57385530
vt 0.25030860 0.56437550
vt 0.21150000 0.53848650
vt 0.20262830 0.51470540
vt 0.21715250 0.55831790
vt 0.19988840 0.54164240
vt 0.19386760 0.51437260
vt 0.24100230 0.59401970
vt 0.25937770 0.58937780
vt 0.26606830 0.63213710
vt 0.24747570 0.62965100
vt 0.27580760 0.61789790
vt 0.29098220 0.64040520
vt 0.30749330 0.66129450
vt 0.23136680 0.60315900
vt 0.18867780 0.55065240
vt 0.18155350 0.51687200
vt 0.29327380 0.67971960
vt 0.32241250 0.67443260
vt 0.20256940 0.56396040
vt 0.21055760 0.58875390
vt 0.21549260 0.61278750
vt 0.26815410 0.66667690
vt 0.27639620 0.71024000
vt 0.32384580 0.71270630
vt 0.34543320 0.70242470
vt 0.25986010 0.67641940
vt 0.29128960 0.71811440
vt 0.33899560 0.73817300
vt 0.36085080 0.73422880
vt 0.29336690 0.73964740
vt 0.34426540 0.76312570
vt 0.36840420 0.75783010
vt 0.30724740 0.75418320
vt 0.31465430 0.77329120
vt 0.29436470 0.78230940
vt 0.27553290 0.73364480
vt 0.26933570 0.78977810
vt 0.25607000 0.76243890
vt 0.24594640 0.80329250
vt 0.24842190 0.74072280
vt 0.24157640 0.69817420
vt 0.23120370 0.72578350
vt 0.23134470 0.66423660
vt 0.21786980 0.64076850
vt 0.22039860 0.66869210
vt 0.17882390 0.63992400
vt 0.20359510 0.61192290
vt 0.20145090 0.58853790
vt 0.18444560 0.59932040
vt 0.18664280 0.57142840
vt 0.17960640 0.56367790
vt 0.22671680 0.69848630
vt 0.18416440 0.70532300
vt 0.17304490 0.60166870
vt 0.17541270 0.54978170
vt 0.15535150 0.57468510
vt 0.16321780 0.53772720
vt 0.14920740 0.56762050
vt 0.16617540 0.51247490
vt 0.15068490 0.60277070
vt 0.20367400 0.71446720
vt 0.18568270 0.74736930
vt 0.14983900 0.51027060
vt 0.13591460 0.50632150
vt 0.12788330 0.52836050
vt 0.10708610 0.55390290
vt 0.11436660 0.56391660
vt 0.10411530 0.58689800
vt 0.08632755 0.57976090
vt 0.08521327 0.61092630
vt 0.06785211 0.59987260
vt 0.07319058 0.62735660
vt 0.04647222 0.62966220
vt 0.11118160 0.59559710
vt 0.12768590 0.58632650
vt 0.08627722 0.63450020
vt 0.13174120 0.61047740
vt 0.09645786 0.63904360
vt 0.08053471 0.66935090
vt 0.10987360 0.66188040
vt 0.13414310 0.63157930
vt 0.04469710 0.65735750
vt 0.02914081 0.66535820
vt 0.05613867 0.67642930
vt 0.05113296 0.71475880
vt 0.02628853 0.69854140
vt 0.00980887 0.70385410
vt -0.00034939 0.71920240
vt 0.06711282 0.67873370
vt 0.07214977 0.70443260
vt 0.15574430 0.63296410
vt 0.09627879 0.68805400
vt 0.03939124 0.76153960
vt 0.01647112 0.74672160
vt -0.00782136 0.73737170
vt 0.06736102 0.74624630
vt 0.05623607 0.77360820
vt 0.09104934 0.78669670
vt 0.10811600 0.73354540
vt 0.11803240 0.70057150
vt 0.09751755 0.76461780
vt 0.12041700 0.74995990
vt 0.12863090 0.65694950
vt 0.14089200 0.66154540
vt 0.14003920 0.72994980
vt 0.14917340 0.68818480
vt 0.12019490 0.77307880
vt 0.11659600 0.80145870
vt 0.14753690 0.76496680
vt 0.14295190 0.81746890
vt 0.17735440 0.67868150
vt 0.16876370 0.70102130
vt 0.17183550 0.77218550
vt 0.16075120 0.82236110
vt 0.18237510 0.82317530
vt 0.16341930 0.74905900
vt 0.19642890 0.66825090
vt 0.18990010 0.79329780
vt 0.21474570 0.81657150
vt 0.21061660 0.75893520
vt 0.22551230 0.78476880
vt 0.23712650 0.52356020
vt 0.23425860 0.51438790
vt 0.22598200 0.51678200
vt 0.24510570 0.54656540
vt 0.22660940 0.54742710
vt 0.21562330 0.51770320
vt 0.23430730 0.57385530
vt 0.25030860 0.56437550
vt 0.21150000 0.53848650
vt 0.20262830 0.51470540
vt 0.21715250 0.55831790
vt 0.19988840 0.54164240
vt 0.19386760 0.51437260
vt 0.24100230 0.59401970
vt 0.25937770 0.58937780
vt 0.26606830 0.63213710
vt 0.24747570 0.62965100
vt 0.27580760 0.61789790
vt 0.29098220 0.64040520
vt 0.30749330 0.66129450
vt 0.23136680 0.60315900
vt 0.18867780 0.55065240
vt 0.18155350 0.51687200
vt 0.29327380 0.67971960
vt 0.32241250 0.67443260
vt 0.20256940 0.56396040
vt 0.21055760 0.58875390
vt 0.21549260 0.61278750
vt 0.26815410 0.66667690
vt 0.27639620 0.71024000
vt 0.32384580 0.71270630
vt 0.34543320 0.70242470
vt 0.25986010 0.67641940
vt 0.29128960 0.71811440
vt 0.33899560 0.73817300
vt 0.36085080 0.73422880
vt 0.29336690 0.73964740
vt 0.34426540 0.76312570
vt 0.36840420 0.75783010
vt 0.30724740 0.75418320
vt 0.31465430 0.77329120
vt 0.29436470 0.78230940
vt 0.27553290 0.73364480
vt 0.26933570 0.78977810
vt 0.25607000 0.76243890
vt 0.24594640 0.80329250
vt 0.24842190 0.74072280
vt 0.24157640 0.69817420
vt 0.23120370 0.72578350
vt 0.23134470 0.66423660
vt 0.21786980 0.64076850
vt 0.22039860 0.66869210
vt 0.17882390 0.63992400
vt 0.20359510 0.61192290
vt 0.20145090 0.58853790
vt 0.18444560 0.59932040
vt 0.18664280 0.57142840
vt 0.17960640 0.56367790
vt 0.22671680 0.69848630
vt 0.18416440 0.70532300
vt 0.17304490 0.60166870
vt 0.17541270 0.54978170
vt 0.15535150 0.57468510
vt 0.16321780 0.53772720
vt 0.14920740 0.56762050
vt 0.16617540 0.51247490
vt 0.15068490 0.60277070
vt 0.20367400 0.71446720
vt 0.18568270 0.74736930
vt 0.14983900 0.51027060
vt 0.13591460 0.50632150
vt 0.12788330 0.52836050
vt 0.10708610 0.55390290
vt 0.11436660 0.56391660
vt 0.10411530 0.58689800
vt 0.08632755 0.57976090
vt 0.08521327 0.61092630
vt 0.06785211 0.59987260
vt 0.07319058 0.62735660
vt 0.04647222 0.62966220
vt 0.11118160 0.59559710
vt 0.12768590 0.58632650
vt 0.08627722 0.63450020
vt 0.13174120 0.61047740
vt 0.09645786 0.63904360
vt 0.08053471 0.66935090
vt 0.10987360 0.66188040
vt 0.13414310 0.63157930
vt 0.04469710 0.65735750
vt 0.02914081 0.66535820
vt 0.05613867 0.67642930
vt 0.05113296 0.71475880
vt 0.02628853 0.69854140
vt 0.00980887 0.70385410
vt -0.00034939 0.71920240
vt 0.06711282 0.67873370
vt 0.07214977 0.70443260
vt 0.15574430 0.63296410
vt 0.09627879 0.68805400
vt 0.03939124 0.76153960
vt 0.01647112 0.74672160
vt -0.00782136 0.73737170
vt 0.06736102 0.74624630
vt 0.05623607 0.77360820
vt 0.09104934 0.78669670
vt 0.10811600 0.73354540
vt 0.11803240 0.70057150
vt 0.09751755 0.76461780
vt 0.12041700 0.74995990
vt 0.12863090 0.65694950
vt 0.14089200 0.66154540
vt 0.14003920 0.72994980
vt 0.14917340 0.68818480
vt 0.12019490 0.77307880
vt 0.11659600 0.80145870
vt 0.14753690 0.76496680
vt 0.14295190 0.81746890
vt 0.17735440 0.67868150
vt 0.16876370 0.70102130
vt 0.17183550 0.77218550
vt 0.16075120 0.82236110
vt 0.18237510 0.82317530
vt 0.16341930 0.74905900
vt 0.19642890 0.66825090
vt 0.18990010 0.79329780
vt 0.21474570 0.81657150
vt 0.21061660 0.75893520
vt 0.22551230 0.78476880
f 3/3/3 2/2/2 1/1/1
f 6/6/6 5/5/5 4/4/4
f 9/9/9 8/8/8 7/7/7
f 8/8/8 10/10/10 7/7/7
f 11/11/11 10/10/10 8/8/8
f 12/12/12 11/11/11 8/8/8
f 11/11/11 13/13/13 10/10/10
f 10/10/10 13/13/13 14/14/14
f 15/15/15 11/11/11 12/12/12
f 16/16/16 15/15/15 12/12/12
f 15/15/15 17/17/17 11/11/11
f 17/17/17 13/13/13 11/11/11
f 18/18/18 15/15/15 16/16/16
f 18/18/18 17/17/17 15/15/15
f 19/19/19 18/18/18 16/16/16
f 14/14/14 13/13/13 20/20/20
f 21/21/21 14/14/14 20/20/20
f 20/20/20 22/22/22 21/21/21
f 20/20/20 23/23/23 22/22/22
f 22/22/22 24/24/24 21/21/21
f 22/22/22 25/25/25 24/24/24
f 22/22/22 26/26/26 25/25/25
f 27/27/27 20/20/20 13/13/13
f 17/17/17 27/27/27 13/13/13
f 27/27/27 23/23/23 20/20/20
f 19/19/19 28/28/28 18/18/18
f 29/29/29 28/28/28 19/19/19
f 22/22/22 30/30/30 26/26/26
f 30/30/30 31/31/31 26/26/26
f 18/18/18 32/32/32 17/17/17
f 18/18/18 28/28/28 32/32/32
f 33/33/33 27/27/27 17/17/17
f 32/32/32 33/33/33 17/17/17
f 34/34/34 23/23/23 27/27/27
f 33/33/33 34/34/34 27/27/27
f 35/35/35 30/30/30 22/22/22
f 23/23/23 35/35/35 22/22/22
f 35/35/35 36/36/36 30/30/30
f 30/30/30 37/37/37 31/31/31
f 37/37/37 38/38/38 31/31/31
f 23/23/23 39/39/39 35/35/35
f 39/39/39 36/36/36 35/35/35
f 30/30/30 40/40/40 37/37/37
f 36/36/36 40/40/40 30/30/30
f 37/37/37 41/41/41 38/38/38
f 41/41/41 42/42/42 38/38/38
f 40/40/40 43/43/43 37/37/37
f 36/36/36 43/43/43 40/40/40
f 43/43/43 41/41/41 37/37/37
f 41/41/41 44/44/44 42/42/42
f 44/44/44 45/45/45 42/42/42
f 44/44/44 41/41/41 46/46/46
f 43/43/43 46/46/46 41/41/41
f 47/47/47 44/44/44 46/46/46
f 46/46/46 48/48/48 47/47/47
f 43/43/43 48/48/48 46/46/46
f 48/48/48 43/43/43 49/49/49
f 36/36/36 49/49/49 43/43/43
f 50/50/50 48/48/48 49/49/49
f 49/49/49 51/51/51 50/50/50
f 51/51/51 52/52/52 50/50/50
f 49/49/49 53/53/53 51/51/51
f 53/53/53 49/49/49 36/36/36
f 53/53/53 52/52/52 51/51/51
f 54/54/54 53/53/53 36/36/36
f 54/54/54 36/36/36 39/39/39
f 55/55/55 52/52/52 53/53/53
f 55/55/55 53/53/53 54/54/54
f 56/56/56 54/54/54 39/39/39
f 56/56/56 39/39/39 23/23/23
f 57/57/57 56/56/56 23/23/23
f 34/34/34 57/57/57 23/23/23
f 58/58/58 54/54/54 56/56/56
f 58/58/58 56/56/56 57/57/57
f 59/59/59 58/58/58 57/57/57
f 60/60/60 57/57/57 34/34/34
f 57/57/57 60/60/60 59/59/59
f 60/60/60 34/34/34 33/33/33
f 61/61/61 60/60/60 33/33/33
f 61/61/61 33/33/33 32/32/32
f 62/62/62 60/60/60 61/61/61
f 60/60/60 62/62/62 59/59/59
f 63/63/63 61/61/61 32/32/32
f 63/63/63 62/62/62 61/61/61
f 63/63/63 32/32/32 28/28/28
f 64/64/64 62/62/62 63/63/63
f 28/28/28 64/64/64 63/63/63
f 65/65/65 54/54/54 58/58/58
f 66/66/66 65/65/65 58/58/58
f 65/65/65 55/55/55 54/54/54
f 67/67/67 59/59/59 62/62/62
f 64/64/64 67/67/67 62/62/62
f 68/68/68 64/64/64 28/28/28
f 29/29/29 68/68/68 28/28/28
f 69/69/69 64/64/64 68/68/68
f 64/64/64 69/69/69 67/67/67
f 70/70/70 68/68/68 29/29/29
f 70/70/70 69/69/69 68/68/68
f 70/70/70 71/71/71 69/69/69
f 72/72/72 70/70/70 29/29/29
f 72/72/72 71/71/71 70/70/70
f 69/69/69 73/73/73 67/67/67
f 73/73/73 69/69/69 71/71/71
f 66/66/66 74/74/74 65/65/65
f 74/74/74 55/55/55 65/65/65
f 74/74/74 75/75/75 55/55/55
f 75/75/75 74/74/74 66/66/66
f 72/72/72 3/3/3 71/71/71
f 72/72/72 76/76/76 3/3/3
f 77/77/77 3/3/3 76/76/76
f 78/78/78 3/3/3 77/77/77
f 3/3/3 78/78/78 2/2/2
f 78/78/78 79/79/79 2/2/2
f 3/3/3 1/1/1 71/71/71
f 2/2/2 79/79/79 80/80/80
f 2/2/2 80/80/80 1/1/1
f 80/80/80 79/79/79 81/81/81
f 1/1/1 80/80/80 81/81/81
f 81/81/81 79/79/79 82/82/82
f 81/81/81 82/82/82 83/83/83
f 82/82/82 84/84/84 83/83/83
f 83/83/83 84/84/84 85/85/85
f 84/84/84 86/86/86 85/85/85
f 1/1/1 81/81/81 87/87/87
f 81/81/81 83/83/83 87/87/87
f 1/1/1 88/88/88 71/71/71
f 1/1/1 87/87/87 88/88/88
f 87/87/87 83/83/83 89/89/89
f 83/83/83 85/85/85 89/89/89
f 71/71/71 88/88/88 90/90/90
f 90/90/90 73/73/73 71/71/71
f 88/88/88 87/87/87 91/91/91
f 87/87/87 89/89/89 91/91/91
f 88/88/88 91/91/91 90/90/90
f 91/91/91 89/89/89 92/92/92
f 89/89/89 85/85/85 92/92/92
f 90/90/90 91/91/91 93/93/93
f 91/91/91 92/92/92 93/93/93
f 73/73/73 90/90/90 94/94/94
f 90/90/90 93/93/93 94/94/94
f 85/85/85 86/86/86 95/95/95
f 86/86/86 96/96/96 95/95/95
f 85/85/85 95/95/95 97/97/97
f 95/95/95 96/96/96 97/97/97
f 96/96/96 98/98/98 97/97/97
f 96/96/96 99/99/99 98/98/98
f 96/96/96 100/100/100 99/99/99
f 99/99/99 100/100/100 98/98/98
f 98/98/98 100/100/100 101/101/101
f 97/97/97 102/102/102 85/85/85
f 92/92/92 85/85/85 102/102/102
f 97/97/97 98/98/98 102/102/102
f 102/102/102 103/103/103 92/92/92
f 102/102/102 98/98/98 103/103/103
f 73/73/73 94/94/94 104/104/104
f 73/73/73 104/104/104 67/67/67
f 67/67/67 104/104/104 59/59/59
f 92/92/92 103/103/103 105/105/105
f 93/93/93 92/92/92 105/105/105
f 106/106/106 98/98/98 101/101/101
f 101/101/101 107/107/107 106/106/106
f 108/108/108 107/107/107 101/101/101
f 98/98/98 106/106/106 109/109/109
f 98/98/98 109/109/109 103/103/103
f 106/106/106 110/110/110 109/109/109
f 110/110/110 111/111/111 109/109/109
f 105/105/105 103/103/103 112/112/112
f 103/103/103 109/109/109 112/112/112
f 93/93/93 105/105/105 113/113/113
f 105/105/105 112/112/112 113/113/113
f 109/109/109 111/111/111 114/114/114
f 109/109/109 114/114/114 112/112/112
f 114/114/114 111/111/111 115/115/115
f 114/114/114 115/115/115 112/112/112
f 93/93/93 113/113/113 116/116/116
f 94/94/94 93/93/93 116/116/116
f 94/94/94 116/116/116 117/117/117
f 116/116/116 113/113/113 117/117/117
f 104/104/104 94/94/94 117/117/117
f 113/113/113 112/112/112 118/118/118
f 112/112/112 115/115/115 118/118/118
f 113/113/113 119/119/119 117/117/117
f 117/117/117 119/119/119 104/104/104
f 113/113/113 118/118/118 119/119/119
f 115/115/115 111/111/111 120/120/120
f 111/111/111 121/121/121 120/120/120
f 115/115/115 120/120/120 122/122/122
f 120/120/120 121/121/121 122/122/122
f 115/115/115 122/122/122 118/118/118
f 121/121/121 123/123/123 122/122/122
f 119/119/119 124/124/124 104/104/104
f 59/59/59 104/104/104 124/124/124
f 119/119/119 118/118/118 125/125/125
f 119/119/119 125/125/125 124/124/124
f 122/122/122 123/123/123 126/126/126
f 123/123/123 127/127/127 126/126/126
f 126/126/126 127/127/127 128/128/128
f 122/122/122 129/129/129 118/118/118
f 118/118/118 129/129/129 125/125/125
f 129/129/129 122/122/122 126/126/126
f 59/59/59 124/124/124 130/130/130
f 130/130/130 58/58/58 59/59/59
f 130/130/130 66/66/66 58/58/58
f 124/124/124 66/66/66 130/130/130
f 125/125/125 66/66/66 124/124/124
f 125/125/125 129/129/129 66/66/66
f 129/129/129 75/75/75 66/66/66
f 129/129/129 126/126/126 75/75/75
f 131/131/131 126/126/126 128/128/128
f 75/75/75 126/126/126 131/131/131
f 131/131/131 128/128/128 132/132/132
f 75/75/75 131/131/131 133/133/133
f 55/55/55 75/75/75 133/133/133
f 52/52/52 55/55/55 133/133/133
f 134/134/134 131/131/131 132/132/132
f 133/133/133 131/131/131 134/134/134
f 134/134/134 52/52/52 133/133/133
f 134/134/134 132/132/132 52/52/52
f 137/137/137 136/136/136 135/135/135
f 138/138/138 137/137/137 135/135/135
f 138/138/138 139/139/139 137/137/137
f 139/139/139 140/140/140 137/137/137
f 141/141/141 139/139/139 138/138/138
f 141/141/141 138/138/138 142/142/142
f 139/139/139 143/143/143 140/140/140
f 143/143/143 144/144/144 140/140/140
f 145/145/145 143/143/143 139/139/139
f 141/141/141 145/145/145 139/139/139
f 143/143/143 146/146/146 144/144/144
f 145/145/145 146/146/146 143/143/143
f 146/146/146 147/147/147 144/144/144
f 141/141/141 142/142/142 148/148/148
f 142/142/142 149/149/149 148/148/148
f 150/150/150 148/148/148 149/149/149
f 151/151/151 148/148/148 150/150/150
f 152/152/152 150/150/150 149/149/149
f 153/153/153 150/150/150 152/152/152
f 154/154/154 150/150/150 153/153/153
f 148/148/148 155/155/155 141/141/141
f 155/155/155 145/145/145 141/141/141
f 151/151/151 155/155/155 148/148/148
f 156/156/156 147/147/147 146/146/146
f 156/156/156 157/157/157 147/147/147
f 158/158/158 150/150/150 154/154/154
f 159/159/159 158/158/158 154/154/154
f 160/160/160 146/146/146 145/145/145
f 156/156/156 146/146/146 160/160/160
f 155/155/155 161/161/161 145/145/145
f 161/161/161 160/160/160 145/145/145
f 151/151/151 162/162/162 155/155/155
f 162/162/162 161/161/161 155/155/155
f 158/158/158 163/163/163 150/150/150
f 163/163/163 151/151/151 150/150/150
f 164/164/164 163/163/163 158/158/158
f 165/165/165 158/158/158 159/159/159
f 166/166/166 165/165/165 159/159/159
f 167/167/167 151/151/151 163/163/163
f 164/164/164 167/167/167 163/163/163
f 168/168/168 158/158/158 165/165/165
f 168/168/168 164/164/164 158/158/158
f 169/169/169 165/165/165 166/166/166
f 170/170/170 169/169/169 166/166/166
f 171/171/171 168/168/168 165/165/165
f 171/171/171 164/164/164 168/168/168
f 169/169/169 171/171/171 165/165/165
f 172/172/172 169/169/169 170/170/170
f 173/173/173 172/172/172 170/170/170
f 169/169/169 172/172/172 174/174/174
f 174/174/174 171/171/171 169/169/169
f 172/172/172 175/175/175 174/174/174
f 176/176/176 174/174/174 175/175/175
f 176/176/176 171/171/171 174/174/174
f 171/171/171 176/176/176 177/177/177
f 177/177/177 164/164/164 171/171/171
f 176/176/176 178/178/178 177/177/177
f 179/179/179 177/177/177 178/178/178
f 180/180/180 179/179/179 178/178/178
f 181/181/181 177/177/177 179/179/179
f 177/177/177 181/181/181 164/164/164
f 180/180/180 181/181/181 179/179/179
f 181/181/181 182/182/182 164/164/164
f 164/164/164 182/182/182 167/167/167
f 180/180/180 183/183/183 181/181/181
f 181/181/181 183/183/183 182/182/182
f 182/182/182 184/184/184 167/167/167
f 167/167/167 184/184/184 151/151/151
f 184/184/184 185/185/185 151/151/151
f 185/185/185 162/162/162 151/151/151
f 182/182/182 186/186/186 184/184/184
f 184/184/184 186/186/186 185/185/185
f 186/186/186 187/187/187 185/185/185
f 185/185/185 188/188/188 162/162/162
f 188/188/188 185/185/185 187/187/187
f 162/162/162 188/188/188 161/161/161
f 188/188/188 189/189/189 161/161/161
f 161/161/161 189/189/189 160/160/160
f 188/188/188 190/190/190 189/189/189
f 190/190/190 188/188/188 187/187/187
f 189/189/189 191/191/191 160/160/160
f 190/190/190 191/191/191 189/189/189
f 160/160/160 191/191/191 156/156/156
f 190/190/190 192/192/192 191/191/191
f 192/192/192 156/156/156 191/191/191
f 182/182/182 193/193/193 186/186/186
f 193/193/193 194/194/194 186/186/186
f 183/183/183 193/193/193 182/182/182
f 187/187/187 195/195/195 190/190/190
f 195/195/195 192/192/192 190/190/190
f 192/192/192 196/196/196 156/156/156
f 196/196/196 157/157/157 156/156/156
f 192/192/192 197/197/197 196/196/196
f 197/197/197 192/192/192 195/195/195
f 196/196/196 198/198/198 157/157/157
f 197/197/197 198/198/198 196/196/196
f 199/199/199 198/198/198 197/197/197
f 198/198/198 200/200/200 157/157/157
f 199/199/199 200/200/200 198/198/198
f 201/201/201 197/197/197 195/195/195
f 197/197/197 201/201/201 199/199/199
f 202/202/202 194/194/194 193/193/193
f 183/183/183 202/202/202 193/193/193
f 203/203/203 202/202/202 183/183/183
f 202/202/202 203/203/203 194/194/194
f 5/5/5 200/200/200 199/199/199
f 204/204/204 200/200/200 5/5/5
f 5/5/5 205/205/205 204/204/204
f 5/5/5 206/206/206 205/205/205
f 206/206/206 5/5/5 6/6/6
f 207/207/207 206/206/206 6/6/6
f 4/4/4 5/5/5 199/199/199
f 207/207/207 6/6/6 208/208/208
f 208/208/208 6/6/6 4/4/4
f 207/207/207 208/208/208 209/209/209
f 208/208/208 4/4/4 209/209/209
f 207/207/207 209/209/209 210/210/210
f 210/210/210 209/209/209 211/211/211
f 212/212/212 210/210/210 211/211/211
f 212/212/212 211/211/211 213/213/213
f 214/214/214 212/212/212 213/213/213
f 209/209/209 4/4/4 215/215/215
f 211/211/211 209/209/209 215/215/215
f 216/216/216 4/4/4 199/199/199
f 215/215/215 4/4/4 216/216/216
f 211/211/211 215/215/215 217/217/217
f 213/213/213 211/211/211 217/217/217
f 216/216/216 199/199/199 218/218/218
f 201/201/201 218/218/218 199/199/199
f 215/215/215 216/216/216 219/219/219
f 217/217/217 215/215/215 219/219/219
f 219/219/219 216/216/216 218/218/218
f 217/217/217 219/219/219 220/220/220
f 213/213/213 217/217/217 220/220/220
f 219/219/219 218/218/218 221/221/221
f 220/220/220 219/219/219 221/221/221
f 218/218/218 201/201/201 222/222/222
f 221/221/221 218/218/218 222/222/222
f 214/214/214 213/213/213 223/223/223
f 224/224/224 214/214/214 223/223/223
f 223/223/223 213/213/213 225/225/225
f 224/224/224 223/223/223 225/225/225
f 226/226/226 224/224/224 225/225/225
f 227/227/227 224/224/224 226/226/226
f 228/228/228 224/224/224 227/227/227
f 228/228/228 227/227/227 226/226/226
f 228/228/228 226/226/226 229/229/229
f 230/230/230 225/225/225 213/213/213
f 213/213/213 220/220/220 230/230/230
f 226/226/226 225/225/225 230/230/230
f 231/231/231 230/230/230 220/220/220
f 226/226/226 230/230/230 231/231/231
f 222/222/222 201/201/201 232/232/232
f 232/232/232 201/201/201 195/195/195
f 232/232/232 195/195/195 187/187/187
f 231/231/231 220/220/220 233/233/233
f 220/220/220 221/221/221 233/233/233
f 226/226/226 234/234/234 229/229/229
f 235/235/235 229/229/229 234/234/234
f 235/235/235 236/236/236 229/229/229
f 234/234/234 226/226/226 237/237/237
f 237/237/237 226/226/226 231/231/231
f 238/238/238 234/234/234 237/237/237
f 239/239/239 238/238/238 237/237/237
f 231/231/231 233/233/233 240/240/240
f 237/237/237 231/231/231 240/240/240
f 233/233/233 221/221/221 241/241/241
f 240/240/240 233/233/233 241/241/241
f 239/239/239 237/237/237 242/242/242
f 242/242/242 237/237/237 240/240/240
f 239/239/239 242/242/242 243/243/243
f 243/243/243 242/242/242 240/240/240
f 241/241/241 221/221/221 244/244/244
f 221/221/221 222/222/222 244/244/244
f 244/244/244 222/222/222 245/245/245
f 241/241/241 244/244/244 245/245/245
f 222/222/222 232/232/232 245/245/245
f 240/240/240 241/241/241 246/246/246
f 243/243/243 240/240/240 246/246/246
f 247/247/247 241/241/241 245/245/245
f 247/247/247 245/245/245 232/232/232
f 246/246/246 241/241/241 247/247/247
f 239/239/239 243/243/243 248/248/248
f 249/249/249 239/239/239 248/248/248
f 248/248/248 243/243/243 250/250/250
f 249/249/249 248/248/248 250/250/250
f 250/250/250 243/243/243 246/246/246
f 251/251/251 249/249/249 250/250/250
f 252/252/252 247/247/247 232/232/232
f 232/232/232 187/187/187 252/252/252
f 246/246/246 247/247/247 253/253/253
f 253/253/253 247/247/247 252/252/252
f 251/251/251 250/250/250 254/254/254
f 255/255/255 251/251/251 254/254/254
f 255/255/255 254/254/254 256/256/256
f 257/257/257 250/250/250 246/246/246
f 257/257/257 246/246/246 253/253/253
f 250/250/250 257/257/257 254/254/254
f 252/252/252 187/187/187 258/258/258
f 186/186/186 258/258/258 187/187/187
f 194/194/194 258/258/258 186/186/186
f 194/194/194 252/252/252 258/258/258
f 194/194/194 253/253/253 252/252/252
f 257/257/257 253/253/253 194/194/194
f 203/203/203 257/257/257 194/194/194
f 254/254/254 257/257/257 203/203/203
f 254/254/254 259/259/259 256/256/256
f 254/254/254 203/203/203 259/259/259
f 256/256/256 259/259/259 260/260/260
f 259/259/259 203/203/203 261/261/261
f 203/203/203 183/183/183 261/261/261
f 183/183/183 180/180/180 261/261/261
f 259/259/259 262/262/262 260/260/260
f 259/259/259 261/261/261 262/262/262
f 180/180/180 262/262/262 261/261/261
f 260/260/260 262/262/262 180/180/180

