# Blender 4.0.0
# www.blender.org
o decimated_mesh
v -0.046186 0.093503 -0.086722
v -0.046221 0.094573 -0.086514
v -0.054806 0.094344 -0.082176
v -0.054619 0.096208 -0.080039
v -0.068176 0.094456 -0.071146
v -0.046187 0.096292 -0.084488
v -0.054318 0.082425 -0.081521
v -0.069846 0.093104 -0.069742
v -0.071315 0.094433 -0.067987
v -0.068564 0.096233 -0.068589
v -0.046186 0.081567 -0.085681
v -0.069159 0.081340 -0.069118
v -0.053065 0.068376 -0.078411
v -0.082140 0.094328 -0.054870
v -0.080323 0.096244 -0.054196
v -0.046190 0.068327 -0.082207
v -0.064046 0.068498 -0.069491
v -0.051070 0.066869 -0.078279
v -0.056767 0.066875 -0.074343
v -0.066492 0.066895 -0.066490
v -0.086162 0.094295 -0.047310
v -0.084054 0.096232 -0.047310
v -0.079810 0.096418 -0.047308
v -0.046196 0.096293 -0.080252
v -0.046186 0.066872 -0.080974
v -0.074346 0.066878 -0.056769
v -0.078408 0.068374 -0.053064
v -0.067838 0.068392 -0.065985
v -0.081496 0.082481 -0.054371
v -0.046186 0.066817 -0.071302
v -0.081567 0.068358 -0.047320
v -0.070640 0.066817 -0.047310
v -0.046190 0.094663 -0.078296
v -0.080243 0.066913 -0.047310
v -0.085056 0.081463 -0.047310
v -0.077785 0.094779 -0.047310
vn -0.5634 -0.4443 -0.6965
vn -0.6154 -0.2231 -0.7560
vn -0.6366 -0.0711 -0.7679
vn -0.3953 -0.5850 -0.7082
vn -0.5305 -0.6547 -0.5385
vn -0.4389 -0.6364 -0.6343
vn -0.7692 -0.0685 -0.6353
vn -0.4705 -0.0677 -0.8798
vn -0.8859 -0.0763 -0.4576
vn 0.0010 0.0010 -1.0000
vn -0.5598 0.6915 -0.4565
vn -0.6893 -0.1766 -0.7026
vn -0.6816 -0.6273 -0.3767
vn -0.0276 0.9993 -0.0233
vn -0.0026 -1.0000 -0.0057
vn -0.7026 0.1436 -0.6969
vn 1.0000 -0.0000 0.0005
vn -0.6217 0.7077 -0.3357
vn -0.6345 -0.3355 -0.6963
vn -0.5599 -0.4694 -0.6828
vn -0.3267 0.7233 -0.6083
vn -0.3264 0.7263 -0.6049
vn 0.0036 1.0000 -0.0002
vn -0.8524 -0.2301 -0.4695
vn -0.8560 -0.2275 -0.4643
vn -0.4592 0.6890 -0.5607
vn -0.4514 0.6993 -0.5543
vn -0.5417 0.6496 -0.5334
vn -0.6162 -0.2222 -0.7556
vn -0.6044 -0.0773 -0.7929
vn -0.6352 -0.0683 -0.7693
vn -0.3875 -0.5966 -0.7028
vn -0.5326 -0.6510 -0.5409
vn -0.7929 -0.0784 -0.6044
vn -0.7677 -0.0714 -0.6368
vn -0.4487 0.1565 -0.8799
vn -0.4605 -0.0771 -0.8843
vn -0.8807 -0.0676 -0.4688
vn -0.0001 -0.0069 -1.0000
vn -0.0000 -0.0000 -1.0000
vn -0.0004 0.0003 1.0000
vn -0.0000 0.0009 -1.0000
vn -0.5552 0.6968 -0.4541
vn -0.4625 -0.2249 -0.8576
vn -0.4717 -0.2305 -0.8511
vn -0.6896 -0.1762 -0.7025
vn -0.5996 -0.7089 -0.3713
vn -0.6554 -0.2402 -0.7160
vn -0.0437 0.9988 -0.0221
vn -0.0142 0.9998 -0.0162
vn -0.0312 0.9987 -0.0402
vn 0.0051 1.0000 0.0052
vn -0.0100 -0.9999 -0.0025
vn 0.0039 1.0000 0.0049
vn 0.0046 1.0000 0.0031
vn -0.0042 -1.0000 -0.0046
vn -0.6831 -0.4693 -0.5595
vn -0.6990 -0.4376 -0.5655
vn -0.7545 -0.2224 -0.6175
vn -0.7557 -0.2259 -0.6147
vn 0.9977 0.0428 -0.0529
vn -1.0000 -0.0002 -0.0002
vn -1.0000 -0.0028 -0.0000
vn -1.0000 0.0004 0.0004
vn -1.0000 -0.0000 -0.0005
vn 1.0000 0.0065 0.0022
vn -0.6373 0.6935 -0.3360
vn -1.0000 -0.0000 -0.0000
vn -1.0000 -0.0000 0.0001
vn -1.0000 -0.0003 -0.0005
vn 0.0042 1.0000 0.0043
vn -0.6895 -0.1765 -0.7024
vn -0.6894 -0.1762 -0.7026
vn -1.0000 0.0017 0.0054
vn -0.6156 -0.2223 -0.7561
vn -0.6360 -0.0778 -0.7678
vn -0.6323 -0.0683 -0.7717
vn -0.6364 -0.0154 -0.7712
vn -0.4574 0.6897 -0.5614
vn -0.5328 -0.6508 -0.5408
vn -0.0009 -0.0002 -1.0000
vn 0.0047 1.0000 0.0046
vn -0.5499 -0.4854 -0.6797
vn 0.0102 0.9999 0.0100
vn -0.5304 -0.6546 -0.5387
vn -0.5710 -0.4337 -0.6970
vn -0.6161 -0.2234 -0.7553
vn -0.7562 -0.2226 -0.6154
vn -0.7676 -0.0786 -0.6361
vn -0.7538 -0.2262 -0.6170
vn -0.7717 -0.0685 -0.6323
vn -0.7712 -0.0119 -0.6365
vn -0.4535 0.6983 -0.5538
vn 0.0003 -0.0000 -1.0000
vn 0.0001 -0.0000 -1.0000
vn 0.0116 0.0038 -0.9999
vn -0.6803 -0.4840 -0.5505
vn -0.6970 -0.4340 -0.5708
s 0
f 19//1 20//1 17//1
f 12//2 7//2 17//2
f 5//3 7//3 12//3
f 18//4 13//4 16//4
f 33//5 36//5 23//5
f 13//6 18//6 19//6
f 29//7 14//7 9//7
f 7//8 3//8 1//8
f 21//9 29//9 35//9
f 35//10 32//10 31//10
f 9//11 14//11 15//11
f 32//12 33//12 30//12
f 27//13 34//13 31//13
f 10//14 15//14 23//14
f 18//15 25//15 30//15
f 9//16 5//16 8//16
f 33//17 1//17 6//17
f 15//18 14//18 22//18
f 28//19 17//19 20//19
f 17//20 13//20 19//20
f 2//21 3//21 6//21
f 3//22 4//22 6//22
f 6//23 23//23 24//23
f 27//24 31//24 29//24
f 31//25 35//25 29//25
f 10//26 4//26 3//26
f 3//27 5//27 10//27
f 5//28 9//28 10//28
f 7//29 13//29 17//29
f 12//30 8//30 5//30
f 5//31 3//31 7//31
f 25//32 18//32 16//32
f 33//33 23//33 24//33
f 8//34 12//34 9//34
f 12//35 29//35 9//35
f 3//36 2//36 1//36
f 1//37 11//37 7//37
f 14//38 29//38 21//38
f 34//39 31//39 32//39
f 32//40 35//40 36//40
f 35//40 21//40 36//40
f 23//41 22//41 21//41
f 23//42 36//42 21//42
f 15//43 10//43 9//43
f 11//44 16//44 7//44
f 16//45 13//45 7//45
f 36//46 33//46 32//46
f 26//47 34//47 27//47
f 12//48 17//48 28//48
f 15//49 22//49 23//49
f 23//50 6//50 10//50
f 4//51 10//51 6//51
f 30//52 20//52 32//52
f 32//53 34//53 26//53
f 20//54 26//54 32//54
f 20//55 30//55 19//55
f 19//56 18//56 30//56
f 27//57 28//57 26//57
f 26//58 28//58 20//58
f 28//59 27//59 29//59
f 29//60 12//60 28//60
f 1//61 2//61 6//61
f 33//62 11//62 30//62
f 30//63 16//63 25//63
f 16//64 30//64 11//64
f 11//65 33//65 1//65
f 6//66 24//66 33//66
f 14//67 21//67 22//67
f 30//68 1//68 25//68
f 25//69 1//69 11//69
f 33//70 1//70 30//70
f 32//71 30//71 19//71
f 33//72 30//72 36//72
f 36//73 30//73 32//73
f 16//74 25//74 11//74
f 13//75 12//75 7//75
f 12//76 8//76 7//76
f 8//77 3//77 7//77
f 8//78 5//78 3//78
f 5//79 4//79 3//79
f 24//80 33//80 36//80
f 36//81 32//81 23//81
f 23//40 32//40 34//40
f 26//82 32//82 19//82
f 20//83 13//83 19//83
f 26//84 19//84 20//84
f 24//85 36//85 23//85
f 20//86 17//86 13//86
f 17//87 12//87 13//87
f 27//88 29//88 12//88
f 29//89 8//89 12//89
f 28//90 27//90 12//90
f 29//91 14//91 8//91
f 14//92 9//92 8//92
f 5//93 10//93 4//93
f 21//94 23//94 35//94
f 35//95 23//95 34//95
f 35//96 34//96 31//96
f 27//97 20//97 26//97
f 27//98 28//98 20//98
