# Blender 4.0.0
# www.blender.org
o decimated_mesh
v -0.027426 0.008282 -0.043311
v -0.026790 0.058155 -0.078549
v -0.026740 0.014725 -0.045614
v -0.027414 0.008285 -0.039115
v -0.026686 0.016572 -0.043552
v -0.046184 0.008285 -0.010232
v -0.046221 0.058097 -0.068865
v -0.026740 0.058157 -0.075601
v -0.046184 0.008285 -0.021940
v -0.026740 0.031929 -0.052640
v -0.046184 0.058162 -0.065701
v -0.036309 0.008285 -0.036300
v -0.043182 0.008285 -0.027667
vn 0.9478 -0.1919 -0.2545
vn -0.0000 1.0000 -0.0000
vn -0.8113 -0.4012 -0.4252
vn 0.8193 0.2130 0.5324
vn -0.9948 0.0874 -0.0519
vn 0.7807 0.3203 0.5365
vn -0.9999 0.0100 0.0114
vn 0.6432 0.5043 0.5761
vn 0.3224 0.7039 0.6329
vn -0.6818 -0.4905 -0.5428
vn -0.0002 1.0000 -0.0007
vn -0.9997 0.0149 0.0170
vn -1.0000 0.0013 0.0033
vn -0.9998 0.0079 0.0194
vn -0.9960 0.0891 0.0029
vn -1.0000 -0.0000 -0.0000
vn -0.0002 1.0000 -0.0009
vn -0.0131 0.9997 -0.0204
vn -0.5228 -0.5369 -0.6621
vn -0.3766 -0.5313 -0.7588
vn -0.0011 1.0000 -0.0007
vn 0.0002 1.0000 -0.0000
vn 0.0004 1.0000 0.0002
vn 0.0010 1.0000 0.0008
vn -0.9943 0.1069 0.0028
vn -0.9970 0.0688 -0.0352
vn -0.9999 0.0126 0.0113
vn -1.0000 -0.0007 -0.0000
vn -0.9998 0.0117 0.0170
vn -0.9998 0.0113 0.0164
vn -0.9999 -0.0110 -0.0126
s 0
f 1//1 2//1 3//1
f 4//2 13//2 6//2
f 13//3 9//3 7//3
f 4//4 5//4 6//4
f 5//5 3//5 1//5
f 10//6 6//6 5//6
f 7//7 9//7 11//7
f 6//8 10//8 8//8
f 6//9 8//9 11//9
f 7//10 12//10 13//10
f 6//2 13//2 9//2
f 13//2 4//2 12//2
f 12//11 4//11 1//11
f 8//12 2//12 10//12
f 2//13 3//13 10//13
f 10//14 3//14 5//14
f 5//15 1//15 4//15
f 6//16 11//16 9//16
f 11//17 8//17 2//17
f 11//18 2//18 7//18
f 1//19 12//19 7//19
f 2//20 1//20 7//20
f 4//21 1//21 6//21
f 6//22 1//22 9//22
f 9//23 1//23 13//23
f 13//24 1//24 12//24
f 3//25 1//25 4//25
f 3//26 4//26 5//26
f 11//27 7//27 6//27
f 7//28 9//28 6//28
f 8//29 2//29 3//29
f 8//30 3//30 5//30
f 8//31 5//31 10//31
