# Blender 4.0.0
# www.blender.org
o decimated_mesh
v 0.042358 0.006056 -0.000014
v 0.042358 0.007942 -0.000014
v 0.050257 0.006363 -0.000011
v 0.046651 0.006263 0.019203
v 0.042358 0.021988 0.032711
v 0.048952 0.006229 0.011889
v 0.076169 0.057857 0.032672
v 0.042358 0.016980 0.032711
v 0.049032 0.031474 0.032711
v 0.084693 0.066224 -0.000011
v 0.087138 0.066219 0.000006
v 0.080726 0.066223 0.032709
v 0.042331 0.006439 0.027585
v 0.078075 0.066224 0.032708
v 0.082091 0.056576 -0.000004
v 0.085384 0.066226 0.017087
vn -0.7835 0.5691 -0.2495
vn 0.4690 -0.3872 0.7938
vn -0.0005 1.0000 -0.0001
vn 0.8085 -0.5296 0.2568
vn 0.0004 -0.0000 -1.0000
vn -0.7582 0.6337 -0.1534
vn -1.0000 -0.0000 0.0053
vn -1.0000 0.0020 -0.0009
vn -1.0000 -0.0000 -0.0010
vn -0.7940 0.5587 -0.2398
vn 0.8420 -0.5228 0.1329
vn 0.8414 -0.5335 0.0862
vn 0.8823 -0.4619 0.0908
vn 0.7482 -0.5317 0.3968
vn 0.0001 1.0000 0.0002
vn 0.0020 1.0000 -0.0002
vn 0.8276 -0.5207 0.2097
vn 0.8491 -0.4636 0.2531
vn 0.0017 -0.0012 -1.0000
vn 0.0069 -0.0026 -1.0000
vn 0.0004 -0.0001 -1.0000
vn -0.0003 -0.0042 1.0000
vn 0.0072 -0.0059 1.0000
vn -0.0000 -0.0000 1.0000
vn 0.0026 -0.0012 1.0000
vn -0.0139 -0.9998 0.0139
vn 0.0389 -0.9992 -0.0071
vn 0.0113 -0.9999 0.0082
vn 0.0001 -0.0000 -1.0000
vn 0.0004 -0.0002 -1.0000
vn 0.0188 -0.0146 0.9997
vn 0.0002 -0.0001 1.0000
vn -0.0003 0.0003 1.0000
vn 0.0024 -0.0014 -1.0000
s 0
f 2//1 9//1 10//1
f 13//2 7//2 8//2
f 10//3 14//3 16//3
f 7//4 4//4 6//4
f 3//5 1//5 2//5
f 9//6 14//6 10//6
f 8//7 5//7 13//7
f 5//8 2//8 13//8
f 2//9 1//9 13//9
f 2//10 5//10 9//10
f 16//11 6//11 15//11
f 6//12 3//12 15//12
f 15//13 11//13 16//13
f 7//14 13//14 4//14
f 14//15 12//15 16//15
f 16//16 11//16 10//16
f 6//17 16//17 7//17
f 7//18 16//18 12//18
f 2//19 10//19 15//19
f 11//20 15//20 10//20
f 15//21 3//21 2//21
f 7//22 12//22 14//22
f 14//23 9//23 7//23
f 9//24 5//24 8//24
f 7//25 9//25 8//25
f 13//26 1//26 4//26
f 1//27 3//27 6//27
f 6//28 4//28 1//28
f 10//29 1//29 2//29
f 10//30 3//30 1//30
f 12//31 8//31 7//31
f 12//32 9//32 8//32
f 12//33 14//33 9//33
f 15//34 3//34 10//34
