# Blender 4.0.0
# www.blender.org
o decimated_mesh
v -0.000591 0.008261 -0.051346
v -0.000527 0.006621 -0.050487
v -0.011917 0.006212 -0.048921
v -0.009114 0.008289 -0.050404
v 0.012702 0.008272 -0.049566
v -0.020226 0.008262 -0.047187
v -0.028100 0.008278 -0.042942
v -0.036423 0.008285 -0.036181
v -0.043294 0.008267 -0.027511
v -0.046183 0.008269 -0.022066
v 0.010702 0.007312 -0.049673
v 0.011888 0.006198 -0.048932
v -0.012653 0.007221 -0.049192
v -0.019024 0.006284 -0.046725
v 0.048343 0.008296 -0.000021
v 0.019731 0.007497 -0.047115
v 0.018888 0.006231 -0.046743
v -0.029040 0.006219 -0.041296
v -0.013906 0.008258 -0.000028
v -0.046186 0.007943 -0.000026
v -0.036720 0.006832 -0.034765
v -0.041078 0.006274 -0.029357
v 0.029069 0.006239 -0.041288
v 0.000986 0.006165 -0.049448
v 0.048343 0.006076 -0.000021
v 0.048343 0.008296 -0.016244
v -0.046186 0.006043 -0.000026
v 0.020158 0.008296 -0.047175
v 0.027545 0.008284 -0.043269
v 0.048341 0.006188 -0.012695
v 0.047156 0.007357 -0.019482
v -0.046180 0.006241 -0.019819
v 0.036281 0.008298 -0.036338
v 0.034760 0.006832 -0.036721
v 0.046815 0.006285 -0.018845
v 0.047177 0.008296 -0.020167
v 0.041328 0.006228 -0.029009
v 0.043244 0.008282 -0.027603
vn 0.5964 -0.2833 -0.7511
vn 0.6357 -0.5079 -0.5813
vn -0.2708 -0.4285 -0.8620
vn 0.0056 -1.0000 -0.0066
vn -0.0001 -0.0000 -1.0000
vn -0.7513 -0.2834 -0.5960
vn 0.7686 -0.4892 -0.4122
vn 0.4454 -0.3015 -0.8431
vn 0.0230 -0.9030 -0.4289
vn -0.0989 -0.4648 -0.8799
vn 0.4231 -0.8012 -0.4232
vn 0.0923 -0.4591 -0.8836
vn -0.4275 -0.4372 -0.7912
vn -0.6774 -0.4379 -0.5911
vn 0.2978 -0.2288 -0.9268
vn -0.4257 -0.7985 -0.4256
vn 0.5906 -0.4354 -0.6794
vn -0.2737 -0.1675 -0.9471
vn 0.4318 -0.4408 -0.7870
vn -0.5829 -0.5030 -0.6381
vn 0.2235 -0.3641 -0.9041
vn -0.7837 -0.4616 -0.4156
vn 0.7484 -0.2890 -0.5970
vn 0.9342 -0.2238 -0.2777
vn -0.2851 -0.3792 -0.8803
vn 0.0148 -0.9999 -0.0088
vn 0.0003 -1.0000 -0.0021
vn 0.0121 0.9999 0.0100
vn 0.0149 0.9998 0.0105
vn -0.0324 -0.9969 -0.0718
vn -0.0039 -1.0000 -0.0078
vn -0.0027 1.0000 -0.0064
vn -0.0040 1.0000 0.0058
vn 0.0730 -0.9968 -0.0338
vn -0.0046 1.0000 0.0062
vn -0.0033 -1.0000 -0.0056
vn 0.1311 -0.1634 -0.9778
vn 0.0001 -0.0017 -1.0000
vn 0.0001 -0.0000 -1.0000
vn 0.7882 -0.4405 -0.4299
vn -0.0187 -0.9256 -0.3781
vn -0.1023 -0.4827 -0.8698
vn -1.0000 -0.0000 -0.0003
vn -1.0000 -0.0016 -0.0002
vn 0.2778 -0.3788 -0.8828
vn 0.2557 -0.4254 -0.8681
vn 0.0928 -0.4815 -0.8715
vn -0.4250 -0.4429 -0.7894
vn -0.5985 -0.3154 -0.7364
vn -0.0011 1.0000 -0.0005
vn 0.0008 1.0000 0.0014
vn -0.0028 1.0000 -0.0012
vn -0.0008 1.0000 -0.0002
vn 0.0035 1.0000 0.0010
vn -0.0024 1.0000 0.0004
vn 0.0019 1.0000 -0.0002
vn 0.0010 1.0000 0.0001
vn -0.0009 1.0000 0.0013
vn 0.0004 1.0000 -0.0001
vn 0.0098 -0.9998 -0.0148
vn 0.0003 1.0000 0.0015
vn -0.0010 1.0000 -0.0013
vn -0.0006 1.0000 0.0002
vn -0.0006 1.0000 -0.0000
vn 1.0000 -0.0000 -0.0002
vn 1.0000 -0.0010 -0.0000
vn 0.8317 -0.3394 -0.4394
vn -0.1936 -0.3833 -0.9031
vn 0.4100 -0.4977 -0.7643
vn -0.7748 -0.4761 -0.4161
vn 0.8818 -0.4142 -0.2253
vn 0.9005 -0.3741 -0.2217
vn 0.0015 0.9998 -0.0173
vn -0.0078 0.9998 -0.0182
vn -0.0020 1.0000 -0.0036
vn -0.0002 1.0000 -0.0001
vn 0.0013 0.9999 -0.0140
vn 0.2677 -0.3762 -0.8870
vn -0.0032 1.0000 0.0049
vn 0.2708 -0.4331 -0.8597
vn -0.0100 0.9998 0.0171
vn -0.0053 1.0000 0.0064
vn -0.0087 0.9999 -0.0049
vn -0.0005 1.0000 0.0008
vn -0.0002 1.0000 0.0001
vn 0.0077 0.9999 -0.0116
vn -1.0000 -0.0000 -0.0001
vn -1.0000 -0.0018 -0.0003
vn 0.0138 0.9999 0.0100
vn 0.0171 0.9998 0.0126
vn -0.0006 1.0000 0.0014
vn 0.0002 1.0000 -0.0000
vn 0.0001 -0.0191 -0.9998
vn 0.0003 1.0000 -0.0001
vn 0.0133 0.9999 -0.0088
s 0
f 33//1 23//1 29//1
f 34//2 33//2 37//2
f 13//3 3//3 14//3
f 23//4 37//4 25//4
f 19//5 27//5 20//5
f 8//6 22//6 9//6
f 31//7 35//7 37//7
f 28//8 29//8 16//8
f 2//9 12//9 24//9
f 2//10 4//10 1//10
f 23//11 34//11 37//11
f 11//12 2//12 1//12
f 18//13 7//13 6//13
f 8//14 21//14 22//14
f 28//15 16//15 5//15
f 18//16 22//16 21//16
f 23//17 33//17 34//17
f 13//18 6//18 4//18
f 29//19 23//19 16//19
f 21//20 8//20 18//20
f 5//21 12//21 11//21
f 10//22 9//22 32//22
f 37//23 33//23 38//23
f 26//24 31//24 36//24
f 6//25 13//25 14//25
f 30//26 25//26 37//26
f 25//27 27//27 24//27
f 27//28 22//28 32//28
f 27//29 18//29 22//29
f 18//30 14//30 3//30
f 3//31 24//31 18//31
f 24//32 17//32 12//32
f 17//33 25//33 23//33
f 37//34 35//34 30//34
f 17//35 24//35 25//35
f 27//36 18//36 24//36
f 11//37 1//37 5//37
f 27//38 19//38 25//38
f 19//39 15//39 25//39
f 38//40 31//40 37//40
f 3//41 2//41 24//41
f 2//42 3//42 4//42
f 32//43 27//43 20//43
f 10//44 32//44 20//44
f 12//45 5//45 17//45
f 5//46 16//46 17//46
f 11//47 12//47 2//47
f 6//48 14//48 18//48
f 8//49 7//49 18//49
f 33//50 29//50 19//50
f 29//51 28//51 19//51
f 19//52 28//52 5//52
f 5//53 1//53 19//53
f 1//54 4//54 19//54
f 4//55 6//55 19//55
f 6//56 7//56 19//56
f 7//57 8//57 19//57
f 8//58 9//58 19//58
f 9//59 10//59 19//59
f 10//60 19//60 20//60
f 38//61 33//61 19//61
f 36//62 38//62 19//62
f 26//63 36//63 19//63
f 15//64 26//64 19//64
f 25//65 30//65 15//65
f 15//66 30//66 26//66
f 31//67 38//67 36//67
f 13//68 4//68 3//68
f 23//69 17//69 16//69
f 22//70 32//70 9//70
f 31//71 30//71 35//71
f 30//72 31//72 26//72
f 4//73 5//73 1//73
f 6//74 7//74 4//74
f 7//75 8//75 4//75
f 8//76 28//76 4//76
f 28//77 5//77 4//77
f 16//78 12//78 5//78
f 12//79 24//79 25//79
f 16//80 17//80 12//80
f 17//81 12//81 23//81
f 23//82 12//82 25//82
f 9//83 10//83 8//83
f 10//84 15//84 8//84
f 15//85 33//85 8//85
f 33//85 28//85 8//85
f 33//86 29//86 28//86
f 20//87 10//87 27//87
f 10//88 32//88 27//88
f 32//89 27//89 18//89
f 25//39 27//39 15//39
f 15//39 27//39 20//39
f 32//90 18//90 22//90
f 19//91 15//91 10//91
f 26//92 33//92 15//92
f 19//93 15//93 20//93
f 26//94 36//94 33//94
f 36//95 38//95 33//95
