# Blender 4.0.0
# www.blender.org
o decimated_mesh
v -0.070635 0.066803 -0.047310
v -0.086069 0.066872 -0.037253
v -0.080226 0.066890 -0.047300
v -0.084994 0.066814 -0.000016
v -0.091865 0.066882 -0.019651
v -0.087997 0.068797 -0.035244
v -0.082120 0.066901 -0.044965
v -0.077790 0.094781 -0.047307
v -0.091987 0.068566 -0.021838
v -0.081623 0.068539 -0.047308
v -0.091384 0.094967 -0.000016
v -0.094020 0.066898 -0.000021
v -0.093882 0.068737 -0.010154
v -0.090286 0.082218 -0.037866
v -0.079521 0.096247 -0.047307
v -0.095876 0.082176 -0.019810
v -0.093034 0.096268 -0.000016
v -0.085057 0.081463 -0.047307
v -0.097904 0.082129 -0.000021
v -0.090427 0.094462 -0.039158
v -0.086163 0.094322 -0.047303
v -0.092140 0.094308 -0.035004
v -0.096479 0.093294 -0.020528
v -0.096163 0.094727 -0.020738
v -0.097790 0.094329 -0.010140
v -0.096191 0.096339 -0.000016
v -0.093837 0.096224 -0.023499
v -0.089655 0.096245 -0.036579
v -0.098683 0.093304 -0.000018
v -0.083809 0.096385 -0.047307
v -0.095830 0.096259 -0.012105
v -0.098252 0.094903 -0.000022
vn -0.9931 -0.0692 -0.0947
vn -0.9524 -0.0762 -0.2950
vn -0.6491 -0.5518 -0.5237
vn 0.0002 0.0003 -1.0000
vn -0.9708 0.1933 -0.1418
vn 0.0227 0.9997 0.0069
vn -0.8804 -0.4643 -0.0963
vn -0.9392 -0.2132 -0.2691
vn -0.8593 -0.2283 -0.4577
vn -0.8848 -0.0589 -0.4621
vn -0.6067 0.7272 -0.3211
vn -0.7428 0.6636 -0.0891
vn -0.8055 -0.5301 -0.2649
vn -0.9473 0.1690 -0.2721
vn -0.5715 0.8203 -0.0225
vn -0.6810 0.7007 -0.2126
vn -0.8723 -0.4098 -0.2667
vn 0.6357 0.7507 0.1798
vn -0.9351 -0.2146 -0.2820
vn -0.8306 -0.3579 -0.4266
vn -0.0247 0.9997 -0.0074
vn -0.9525 -0.2648 -0.1506
vn -0.9910 -0.0615 -0.1189
vn -0.9920 -0.0752 -0.1019
vn -0.9541 -0.0706 -0.2909
vn 0.0006 0.0001 -1.0000
vn 0.0001 0.0002 1.0000
vn 0.0002 0.0007 -1.0000
vn -0.0065 0.0045 1.0000
vn 0.0322 0.9994 0.0088
vn -0.9639 0.2598 -0.0588
vn -0.9226 -0.0510 -0.3823
vn -0.9295 -0.2377 -0.2821
vn -0.8615 -0.2349 -0.4502
vn -0.8749 -0.0751 -0.4785
vn -0.6208 0.7077 -0.3372
vn -0.7355 0.6737 -0.0719
vn 0.0053 1.0000 0.0012
vn 0.0104 0.9999 0.0091
vn 0.0091 1.0000 0.0024
vn 0.0056 1.0000 0.0015
vn -0.0093 -1.0000 -0.0002
vn -0.0001 -0.0000 -1.0000
vn -0.0005 0.0003 -1.0000
vn -0.0004 -0.0015 -1.0000
vn -0.0000 -0.0000 -1.0000
vn -0.0001 0.0001 -1.0000
vn -0.0010 -0.0055 -1.0000
vn -0.7008 0.6777 -0.2230
vn -0.6907 0.6748 -0.2598
vn 0.6095 0.7735 0.1738
vn -0.9311 -0.2230 -0.2887
vn -0.8218 -0.3782 -0.4261
vn -0.0425 0.9990 -0.0102
vn -0.0298 0.9995 -0.0079
vn -0.6286 0.7696 -0.1123
vn -0.9674 -0.2467 -0.0580
vn -0.9713 -0.2160 -0.1001
vn -0.9562 -0.2506 -0.1514
vn 0.0091 0.9999 0.0070
vn -0.0000 0.0001 -1.0000
vn 0.0001 0.0001 -1.0000
vn -0.9335 -0.2387 -0.2674
vn -0.9351 -0.2122 -0.2839
vn 0.0054 1.0000 0.0014
vn -0.8219 -0.3823 -0.4223
vn 0.0291 0.9994 0.0186
vn 0.0058 1.0000 0.0014
vn -0.8271 -0.3628 -0.4293
vn -0.0019 0.0002 -1.0000
vn -0.0505 0.9986 -0.0145
vn -0.0399 0.9992 -0.0100
vn -0.0328 0.9994 -0.0076
vn 0.0001 -0.0000 1.0000
vn -0.0006 -0.0002 1.0000
vn -0.9329 -0.2246 -0.2815
vn -0.9327 -0.2156 -0.2892
vn -0.6820 0.6985 -0.2169
vn -0.6970 0.6835 -0.2166
vn -0.0007 -0.0002 1.0000
vn -0.0019 -0.0004 1.0000
s 0
f 19//1 29//1 25//1
f 22//2 14//2 16//2
f 3//3 7//3 10//3
f 29//4 11//4 19//4
f 24//5 23//5 25//5
f 17//6 30//6 26//6
f 13//7 5//7 12//7
f 4//8 11//8 8//8
f 10//9 14//9 18//9
f 14//10 20//10 21//10
f 30//11 20//11 28//11
f 31//12 24//12 25//12
f 6//13 2//13 5//13
f 22//14 23//14 24//14
f 26//15 31//15 32//15
f 22//16 24//16 28//16
f 9//17 6//17 5//17
f 15//18 11//18 8//18
f 9//19 14//19 6//19
f 10//20 7//20 2//20
f 26//21 27//21 31//21
f 9//22 5//22 13//22
f 23//23 16//23 25//23
f 16//24 19//24 25//24
f 16//25 23//25 22//25
f 19//26 4//26 12//26
f 4//26 19//26 11//26
f 11//27 17//27 26//27
f 11//28 29//28 26//28
f 26//29 32//29 29//29
f 17//30 15//30 30//30
f 32//31 25//31 29//31
f 14//32 22//32 20//32
f 4//33 8//33 1//33
f 10//34 6//34 14//34
f 21//35 18//35 14//35
f 21//36 20//36 30//36
f 25//37 32//37 31//37
f 5//38 1//38 2//38
f 2//39 1//39 7//39
f 7//40 1//40 3//40
f 1//41 5//41 4//41
f 12//42 5//42 4//42
f 10//43 18//43 1//43
f 18//44 21//44 8//44
f 8//45 21//45 30//45
f 15//46 8//46 30//46
f 8//47 1//47 18//47
f 1//48 3//48 10//48
f 27//49 28//49 24//49
f 28//50 20//50 22//50
f 15//51 17//51 11//51
f 9//52 16//52 14//52
f 2//53 6//53 10//53
f 26//54 30//54 28//54
f 28//55 27//55 26//55
f 24//56 31//56 27//56
f 12//57 19//57 13//57
f 19//58 16//58 13//58
f 16//59 9//59 13//59
f 2//60 1//60 3//60
f 18//43 30//43 1//43
f 30//61 15//61 1//61
f 15//62 8//62 1//62
f 8//63 1//63 11//63
f 11//64 1//64 4//64
f 4//65 1//65 2//65
f 6//66 7//66 2//66
f 7//67 2//67 3//67
f 4//68 2//68 5//68
f 7//69 6//69 10//69
f 21//70 30//70 18//70
f 28//71 27//71 30//71
f 27//72 31//72 30//72
f 31//73 26//73 30//73
f 26//74 4//74 11//74
f 26//75 12//75 4//75
f 9//76 16//76 6//76
f 16//77 14//77 6//77
f 22//78 27//78 28//78
f 22//79 24//79 27//79
f 29//80 12//80 26//80
f 29//81 19//81 12//81
