# Blender 4.0.0
# www.blender.org
o decimated_mesh
v 0.022013 0.096286 -0.089828
v 0.026172 0.067496 -0.090060
v -0.024132 0.096270 -0.089402
v 0.022005 0.094321 -0.088027
v 0.025574 0.066874 -0.089967
v 0.022013 0.067571 -0.082229
v 0.022022 0.096267 -0.093905
v 0.019428 0.066886 -0.091902
v 0.021831 0.068567 -0.091987
v 0.020836 0.082417 -0.095694
v -0.012617 0.096252 -0.095780
v -0.000011 0.067571 -0.085379
v -0.024148 0.066846 -0.089983
v 0.021983 0.094196 -0.096088
v 0.019842 0.094868 -0.096237
v 0.012444 0.096250 -0.095788
v 0.000013 0.066915 -0.094085
v -0.000060 0.095207 -0.098056
v -0.024073 0.096228 -0.093680
v -0.024130 0.067901 -0.089469
v 0.010138 0.094328 -0.097788
v -0.000029 0.093255 -0.098691
v -0.021426 0.094499 -0.096175
v -0.019526 0.066890 -0.091897
v -0.010136 0.094325 -0.097789
v -0.024088 0.069306 -0.091477
v 0.000005 0.082216 -0.097927
v -0.024130 0.093291 -0.095284
v -0.019808 0.082176 -0.095878
v -0.024130 0.083207 -0.094654
vn 0.9831 0.1238 -0.1349
vn -0.9995 0.0273 -0.0141
vn 0.0066 0.6756 0.7372
vn 0.8790 0.1012 0.4659
vn 0.6960 -0.6121 0.3754
vn -0.2880 -0.0597 -0.9558
vn 0.0005 -0.9960 0.0898
vn -0.1672 -0.0023 0.9859
vn -0.0202 0.2118 0.9771
vn -0.0759 -0.8442 0.5307
vn 0.3503 -0.2186 -0.9108
vn 0.1057 -0.2421 -0.9645
vn 0.6011 -0.0851 -0.7947
vn -0.1024 -0.0745 -0.9919
vn -0.1205 0.7515 -0.6486
vn -0.2190 -0.2497 -0.9432
vn -0.1566 -0.4306 0.8888
vn 0.1407 0.2342 -0.9619
vn 0.1070 -0.0781 -0.9912
vn 0.2704 -0.4301 -0.8614
vn -0.0521 0.3082 -0.9499
vn -0.4509 0.4348 -0.7796
vn -0.0009 1.0000 -0.0047
vn -0.9996 -0.0094 -0.0276
vn -0.9998 0.0205 -0.0067
vn -1.0000 -0.0001 -0.0002
vn -1.0000 -0.0000 -0.0003
vn -0.0001 0.9087 -0.4175
vn -0.2852 -0.0605 -0.9565
vn -0.1415 0.0198 0.9897
vn -0.3128 -0.2125 -0.9257
vn 0.1387 -0.2468 -0.9591
vn 0.1079 -0.2450 -0.9635
vn -0.1421 -0.0425 -0.9889
vn -0.0959 -0.0690 -0.9930
vn 0.1140 0.8014 -0.5872
vn -0.0993 -0.2424 -0.9651
vn -0.1074 -0.2524 -0.9616
vn 0.2654 0.6970 -0.6661
vn 0.0805 0.6707 -0.7374
vn 0.0773 0.6728 -0.7358
vn 0.1414 -0.0468 -0.9888
vn 0.0954 -0.0684 -0.9931
vn 0.2854 -0.4053 -0.8685
vn 0.9897 0.1430 0.0016
vn 0.0517 0.3097 -0.9494
vn -0.0006 0.9999 0.0135
vn -0.0017 -0.9996 -0.0268
vn 0.0013 1.0000 0.0021
vn -0.3308 -0.4838 -0.8103
vn 0.9777 0.1400 0.1567
vn -0.0781 0.6696 -0.7386
vn -0.0970 0.6559 -0.7486
vn 0.0001 1.0000 -0.0063
vn -0.0039 0.9999 -0.0099
vn -0.0004 1.0000 -0.0035
vn -0.0002 1.0000 -0.0047
vn 0.0001 1.0000 -0.0096
vn -1.0000 0.0006 -0.0006
vn -0.9994 -0.0001 0.0356
vn -0.0006 1.0000 0.0079
vn -1.0000 -0.0003 -0.0050
vn -0.0002 0.9999 0.0155
vn -0.9972 -0.0197 -0.0728
s 0
f 14//1 7//1 2//1
f 3//2 19//2 28//2
f 1//3 3//3 4//3
f 2//4 4//4 6//4
f 2//5 6//5 5//5
f 23//6 30//6 28//6
f 6//7 13//7 5//7
f 12//8 3//8 20//8
f 3//9 6//9 4//9
f 6//10 12//10 13//10
f 9//11 10//11 2//11
f 17//12 27//12 10//12
f 10//13 14//13 2//13
f 29//14 25//14 27//14
f 23//15 19//15 11//15
f 24//16 26//16 29//16
f 12//17 20//17 13//17
f 15//18 14//18 21//18
f 10//19 27//19 21//19
f 9//20 5//20 8//20
f 18//21 22//21 25//21
f 19//22 23//22 28//22
f 1//23 7//23 16//23
f 30//24 26//24 20//24
f 26//25 13//25 20//25
f 20//26 3//26 30//26
f 28//27 30//27 3//27
f 11//28 16//28 18//28
f 23//29 29//29 30//29
f 12//30 6//30 3//30
f 26//31 30//31 29//31
f 9//32 8//32 10//32
f 8//33 17//33 10//33
f 23//34 25//34 29//34
f 25//35 22//35 27//35
f 15//36 16//36 7//36
f 29//37 27//37 17//37
f 17//38 24//38 29//38
f 15//39 7//39 14//39
f 15//40 21//40 16//40
f 21//41 18//41 16//41
f 21//42 14//42 10//42
f 27//43 22//43 21//43
f 9//44 2//44 5//44
f 7//45 1//45 2//45
f 18//46 21//46 22//46
f 5//47 17//47 13//47
f 17//48 13//48 24//48
f 17//49 5//49 8//49
f 26//50 24//50 13//50
f 4//51 2//51 1//51
f 11//52 18//52 25//52
f 25//53 23//53 11//53
f 16//54 11//54 1//54
f 19//55 3//55 11//55
f 3//56 1//56 11//56
f 7//57 11//57 1//57
f 16//58 11//58 7//58
f 28//59 13//59 3//59
f 13//60 20//60 3//60
f 13//61 5//61 8//61
f 30//62 13//62 28//62
f 17//63 13//63 8//63
f 30//64 26//64 13//64
