# Blender 4.0.0
# www.blender.org
o decimated_mesh
v -0.065461 0.058002 0.046322
v -0.075467 0.057992 0.026832
v -0.068672 0.057941 0.046342
v -0.010017 0.008285 0.046319
v -0.052554 0.031892 0.026832
v -0.021702 0.008285 0.046320
v -0.078096 0.057991 0.026824
v -0.039130 0.008285 0.027398
v -0.043575 0.016796 0.026782
v -0.076687 0.057986 0.031512
v -0.043318 0.008283 0.027407
v -0.027664 0.008285 0.043182
v -0.036296 0.008285 0.036315
v -0.045570 0.014724 0.026832
vn -0.6315 -0.7042 0.3245
vn -0.5751 -0.5049 0.6437
vn 0.0179 0.0073 0.9998
vn 0.0021 0.0733 0.9973
vn -0.0000 1.0000 -0.0000
vn -0.2134 -0.1606 -0.9637
vn -0.5318 -0.2185 0.8182
vn -0.7970 -0.5548 0.2388
vn -0.7449 -0.5332 0.4010
vn 0.0061 0.0053 1.0000
vn -0.5360 -0.3214 0.7806
vn -0.4262 -0.4035 0.8097
vn -0.0006 -0.0002 1.0000
vn -0.0032 -0.0028 1.0000
vn -0.0492 0.0717 0.9962
vn -0.0006 1.0000 0.0002
vn 0.0001 -0.0000 1.0000
vn -0.6623 -0.5373 0.5223
vn -0.0025 1.0000 0.0008
vn -0.0003 1.0000 0.0013
vn -0.0188 0.9997 0.0131
vn -0.5423 -0.4912 0.6816
vn -0.0003 1.0000 -0.0003
vn -0.0051 1.0000 0.0028
vn 0.0061 0.0067 1.0000
vn -0.0119 -0.0104 0.9999
vn -0.0032 -0.0037 1.0000
vn 0.0141 0.0108 0.9998
vn 0.0001 -0.0004 1.0000
vn -0.0000 1.0000 -0.0002
vn -0.0006 1.0000 0.0010
vn -0.0322 0.0554 0.9979
vn 0.0021 0.0896 0.9960
vn 0.0002 1.0000 -0.0003
vn 0.0007 1.0000 -0.0008
s 0
f 1//1 2//1 4//1
f 2//2 5//2 4//2
f 5//3 14//3 9//3
f 9//4 11//4 8//4
f 12//5 6//5 4//5
f 14//6 11//6 7//6
f 4//7 9//7 8//7
f 11//8 10//8 7//8
f 10//9 11//9 3//9
f 3//10 6//10 1//10
f 5//11 9//11 4//11
f 6//12 3//12 12//12
f 14//13 5//13 7//13
f 2//14 7//14 5//14
f 11//15 9//15 14//15
f 12//5 8//5 13//5
f 13//16 8//16 11//16
f 8//5 12//5 4//5
f 4//17 1//17 6//17
f 11//18 13//18 3//18
f 1//19 2//19 10//19
f 2//20 7//20 10//20
f 10//21 3//21 1//21
f 13//22 12//22 3//22
f 2//23 7//23 1//23
f 7//24 10//24 1//24
f 3//25 4//25 1//25
f 5//26 2//26 9//26
f 9//27 2//27 7//27
f 9//28 7//28 14//28
f 6//29 4//29 3//29
f 6//30 4//30 11//30
f 11//31 4//31 8//31
f 8//32 9//32 14//32
f 8//33 14//33 11//33
f 6//34 11//34 12//34
f 12//35 11//35 13//35
