# Blender 4.0.0
# www.blender.org
o decimated_mesh
v -0.003910 0.098817 0.180348
v -0.000930 0.095361 0.184213
v 0.011398 0.095619 0.181105
v 0.010543 0.096479 0.178595
v -0.006810 0.098469 0.178734
v -0.006834 0.097348 0.182016
v -0.006832 0.094854 0.184692
v 0.013841 0.091670 0.184294
v 0.022391 0.091233 0.180041
v 0.022904 0.091691 0.176503
v 0.010316 0.095890 0.175084
v -0.006827 0.097448 0.175143
v 0.009143 0.089711 0.184681
v 0.022158 0.087603 0.184098
v 0.025890 0.088397 0.180938
v 0.029962 0.087544 0.176817
v 0.008914 0.095204 0.173036
v 0.023375 0.089714 0.172783
v -0.006834 0.095732 0.172771
v -0.006840 0.087817 0.184409
v 0.041596 0.061110 0.180121
v 0.035609 0.079763 0.180909
v 0.037753 0.080628 0.177810
v -0.006834 0.093309 0.172027
v 0.045101 0.061102 0.179623
v 0.043554 0.066578 0.180691
v 0.041945 0.070872 0.180396
v 0.036367 0.080948 0.172856
v 0.036345 0.077384 0.169538
v -0.006834 0.088250 0.172631
v 0.041461 0.061102 0.167092
v 0.037825 0.061102 0.178294
v 0.047836 0.061102 0.177956
v 0.046978 0.066515 0.176937
v 0.037151 0.081148 0.175028
v 0.046692 0.068352 0.172346
v 0.043039 0.070722 0.169280
v 0.044864 0.061102 0.167081
v -0.006834 0.085106 0.179078
v 0.049692 0.061102 0.175041
v 0.046147 0.069499 0.174729
v 0.048216 0.061119 0.168783
v -0.006834 0.086004 0.175182
v 0.038460 0.061102 0.168494
v 0.035026 0.061103 0.173519
v 0.049809 0.061102 0.171450
vn 0.7070 0.5949 -0.3824
vn -0.2808 0.9089 0.3083
vn 0.7895 0.6111 -0.0563
vn 0.9030 0.3880 0.1847
vn 0.9196 0.3917 0.0301
vn 0.1349 0.7881 0.6006
vn -1.0000 0.0005 -0.0004
vn 0.4338 0.2782 -0.8570
vn 0.4922 0.8513 0.1817
vn 0.4770 0.5346 0.6977
vn -0.4263 -0.8065 0.4097
vn 0.3871 0.6760 0.6271
vn 0.0570 0.2495 0.9667
vn 0.7197 0.2370 0.6526
vn 0.0854 0.9508 -0.2979
vn 0.7882 0.4924 0.3690
vn -0.1776 -0.1166 -0.9772
vn -0.3177 -0.6819 0.6588
vn 0.5967 0.7504 -0.2845
vn 0.1261 0.3744 -0.9187
vn 0.4200 0.6170 -0.6655
vn 0.5436 0.5701 -0.6160
vn 0.2192 0.2567 -0.9413
vn 0.1370 0.9755 -0.1722
vn 0.3299 0.8503 -0.4101
vn 0.8214 0.2286 0.5226
vn -0.4914 -0.8037 -0.3356
vn 0.5202 -0.0195 0.8538
vn -0.3679 -0.4937 -0.7879
vn -0.5073 -0.8398 -0.1935
vn 0.7367 0.4504 0.5045
vn 0.6732 0.4458 0.5900
vn -0.0075 0.7316 0.6817
vn 0.0040 0.7470 0.6649
vn -0.4529 -0.8512 0.2653
vn 0.3811 0.9082 0.1730
vn 0.3796 0.9072 0.1814
vn 0.9208 0.3895 0.0228
vn -0.0005 1.0000 -0.0006
vn -0.0033 1.0000 0.0022
vn -0.0001 1.0000 -0.0000
vn -0.0074 1.0000 0.0045
vn 0.0104 0.9999 0.0003
vn -0.0000 1.0000 -0.0000
vn 0.0022 1.0000 -0.0013
vn -0.9998 0.0194 -0.0008
vn -1.0000 -0.0012 0.0039
vn -1.0000 0.0002 0.0020
vn -1.0000 0.0007 0.0003
vn -1.0000 0.0001 -0.0000
vn -1.0000 0.0012 -0.0017
vn -1.0000 -0.0020 -0.0011
vn 0.0552 0.0647 0.9964
vn 0.0361 0.1099 0.9933
vn 0.7849 0.6090 -0.1139
vn -0.0123 -0.0403 0.9991
vn 0.3427 0.7094 0.6159
vn 0.3513 0.6876 0.6354
vn 0.5722 0.7047 0.4195
vn 0.5286 0.7672 0.3634
vn 0.0829 0.9263 -0.3675
vn 0.7054 0.3080 0.6383
vn 0.0367 0.9612 -0.2734
vn 0.3293 0.9275 -0.1767
vn -0.4545 -0.6685 -0.5887
vn 0.1850 0.9474 0.2614
vn 0.7277 0.4204 -0.5420
vn 0.7889 0.3972 -0.4688
vn 0.0016 -0.1557 0.9878
vn 0.0416 -0.1184 0.9921
vn 0.0231 -0.1318 0.9910
vn 0.1386 -0.1517 0.9787
vn 0.0370 0.8095 -0.5859
vn 0.3316 0.1877 0.9246
vn 0.3235 0.1769 0.9295
vn 0.5531 0.6207 0.5557
vn 0.3033 0.8213 -0.4831
vn 0.6641 0.7476 -0.0036
vn 0.5077 0.7489 -0.4260
vn 0.4842 0.7965 -0.3621
vn 0.1659 0.6796 0.7145
vn 0.0331 0.2413 -0.9699
vn 0.0259 0.2934 -0.9556
vn 0.7268 0.6086 -0.3184
vn 0.0025 -0.1478 0.9890
vn 0.0032 -0.1476 0.9890
vn -1.0000 0.0055 -0.0010
vn -1.0000 0.0006 -0.0001
vn -1.0000 0.0010 0.0018
vn -1.0000 0.0001 -0.0004
vn -1.0000 -0.0001 -0.0005
vn -1.0000 -0.0005 -0.0005
vn -1.0000 -0.0014 -0.0003
vn 0.0024 -0.1480 0.9890
vn 0.0032 -0.1468 0.9892
vn 0.0001 1.0000 0.0002
vn 0.0013 1.0000 -0.0074
vn 0.3253 0.1807 0.9282
vn -0.0120 0.9998 0.0137
vn -0.0001 1.0000 0.0002
vn 0.0001 1.0000 -0.0002
vn 0.9194 0.3928 0.0209
vn 0.9205 0.3896 0.0301
vn 0.3434 0.1917 0.9194
s 0
f 37//1 28//1 36//1
f 1//2 5//2 6//2
f 23//3 41//3 35//3
f 40//4 41//4 34//4
f 36//5 40//5 46//5
f 2//6 3//6 1//6
f 12//7 39//7 7//7
f 38//8 37//8 42//8
f 10//9 9//9 16//9
f 15//10 14//10 22//10
f 32//11 20//11 39//11
f 14//12 15//12 9//12
f 7//13 8//13 2//13
f 34//14 26//14 33//14
f 1//15 11//15 12//15
f 41//16 23//16 34//16
f 24//17 31//17 30//17
f 21//18 20//18 32//18
f 16//19 35//19 28//19
f 18//20 29//20 17//20
f 28//21 29//21 18//21
f 28//22 37//22 29//22
f 29//23 37//23 38//23
f 11//24 1//24 4//24
f 11//25 10//25 18//25
f 40//26 34//26 33//26
f 44//27 45//27 43//27
f 33//28 26//28 25//28
f 30//29 31//29 44//29
f 43//30 45//30 39//30
f 34//31 23//31 27//31
f 27//32 23//32 22//32
f 6//33 7//33 2//33
f 2//34 1//34 6//34
f 45//35 32//35 39//35
f 10//36 4//36 9//36
f 4//37 3//37 9//37
f 36//38 41//38 40//38
f 45//39 21//39 44//39
f 45//40 32//40 21//40
f 25//41 38//41 31//41
f 38//42 40//42 42//42
f 42//43 40//43 46//43
f 40//44 38//44 33//44
f 33//44 38//44 25//44
f 25//45 44//45 21//45
f 25//44 31//44 44//44
f 6//46 5//46 12//46
f 12//47 19//47 24//47
f 24//48 30//48 12//48
f 12//49 30//49 39//49
f 30//50 43//50 39//50
f 20//51 7//51 39//51
f 7//52 6//52 12//52
f 13//53 14//53 8//53
f 8//54 7//54 13//54
f 36//55 35//55 41//55
f 20//56 13//56 7//56
f 9//57 3//57 8//57
f 8//58 14//58 9//58
f 23//59 16//59 15//59
f 16//60 9//60 15//60
f 12//61 11//61 17//61
f 34//62 27//62 26//62
f 12//63 5//63 1//63
f 4//64 10//64 11//64
f 44//65 43//65 30//65
f 4//66 1//66 3//66
f 36//67 42//67 37//67
f 46//68 42//68 36//68
f 13//69 20//69 21//69
f 21//70 26//70 14//70
f 13//71 21//71 14//71
f 25//72 26//72 21//72
f 12//73 17//73 19//73
f 26//74 27//74 14//74
f 27//75 22//75 14//75
f 23//76 15//76 22//76
f 18//77 17//77 11//77
f 23//78 35//78 16//78
f 16//79 28//79 18//79
f 18//80 10//80 16//80
f 3//81 2//81 8//81
f 29//82 24//82 17//82
f 24//83 19//83 17//83
f 35//84 36//84 28//84
f 31//85 29//85 24//85
f 29//86 31//86 38//86
f 19//87 6//87 12//87
f 19//88 20//88 6//88
f 20//89 7//89 6//89
f 24//90 20//90 19//90
f 24//91 30//91 20//91
f 30//92 43//92 20//92
f 43//93 39//93 20//93
f 38//94 29//94 24//94
f 38//95 24//95 31//95
f 45//96 32//96 46//96
f 46//44 32//44 25//44
f 25//97 32//97 21//97
f 26//98 22//98 14//98
f 42//99 38//99 46//99
f 46//100 38//100 31//100
f 46//44 31//44 44//44
f 46//101 44//101 45//101
f 40//41 46//41 33//41
f 33//44 46//44 25//44
f 36//102 41//102 46//102
f 41//103 40//103 46//103
f 27//104 22//104 26//104
