# Blender 4.0.0
# www.blender.org
o decimated_mesh
v 0.180900 0.008673 0.176599
v 0.180523 0.002828 0.176601
v 0.180103 0.004979 0.188405
v 0.178004 0.013413 0.176623
v 0.176373 0.008585 0.212471
v 0.176610 0.005160 0.216692
v 0.177666 0.000463 0.189564
v 0.174877 0.015061 0.176597
v 0.170787 0.014453 0.220117
v 0.173018 0.012698 0.222570
v 0.174847 0.007440 0.223967
v 0.174641 0.003138 0.222780
v 0.173505 0.000797 0.222667
v 0.172801 -0.002017 0.212759
v 0.167423 0.015073 0.225407
v 0.173228 0.004365 0.228245
v 0.169241 -0.002033 0.227290
v 0.170335 -0.002507 0.176594
v 0.176496 -0.002062 0.176594
v 0.169282 0.015975 0.176594
v 0.121334 -0.002420 0.296392
v 0.152424 0.014879 0.263818
v 0.158197 0.007629 0.264910
v 0.155232 0.012749 0.265602
v 0.154767 -0.002012 0.263037
v 0.121335 0.004641 0.176594
v 0.121335 0.015865 0.176594
v 0.155330 0.009186 0.268526
v 0.158530 0.004409 0.264329
v 0.155427 0.000844 0.266435
v 0.133266 -0.002026 0.291969
v 0.121339 -0.001989 0.304382
v 0.121333 0.015565 0.299063
v 0.155059 0.005150 0.270486
v 0.127916 0.000899 0.302680
v 0.125129 -0.001778 0.301844
v 0.121356 0.014770 0.303478
v 0.128812 0.008815 0.303627
v 0.126479 0.012797 0.303126
v 0.121340 0.000765 0.307869
v 0.130061 0.005201 0.303231
v 0.121337 0.012494 0.307489
v 0.121334 0.003337 0.309601
v 0.121335 0.006973 0.310215
v 0.126487 0.005021 0.306562
vn 0.6611 -0.7328 0.1611
vn 0.9968 -0.0643 0.0472
vn 0.8863 -0.4493 0.1123
vn 0.4170 -0.7134 0.5632
vn 0.8321 0.4355 0.3434
vn 0.9258 0.0277 0.3771
vn 0.1580 -0.9753 0.1547
vn 0.7043 0.4618 0.5391
vn 0.7999 -0.5036 0.3264
vn 0.5716 0.4233 0.7029
vn 0.1441 0.9878 0.0582
vn 0.5630 0.3657 0.7412
vn 1.0000 0.0004 0.0048
vn 0.0528 -0.9972 0.0537
vn 0.6352 -0.4013 0.6599
vn 0.3460 0.8153 0.4643
vn 0.7805 -0.3918 0.4872
vn 0.4296 0.8413 0.3281
vn 0.9189 0.3616 0.1580
vn 0.7330 -0.6088 0.3034
vn 0.7799 0.2048 0.5914
vn 0.1611 0.9866 0.0244
vn 0.0008 -0.0003 -1.0000
vn 0.7072 -0.7033 0.0731
vn 0.6336 -0.6053 0.4818
vn 0.5367 -0.1405 0.8320
vn 0.8712 0.0015 0.4910
vn 0.8492 0.5184 0.1002
vn 0.8879 -0.4375 0.1418
vn 0.8770 -0.4666 0.1149
vn 0.8863 -0.4491 0.1134
vn 0.4691 -0.6685 0.5771
vn 0.8541 0.3889 0.3455
vn 0.9258 0.0361 0.3763
vn 0.2350 0.9713 0.0357
vn 0.9779 0.1712 0.1197
vn 0.9681 0.2182 0.1227
vn 0.9553 0.2535 0.1521
vn 0.6990 0.4766 0.5331
vn 0.9541 -0.1213 0.2739
vn 0.9556 -0.1201 0.2692
vn 0.8179 -0.4653 0.3383
vn 0.8479 -0.4265 0.3150
vn 0.4653 0.8834 0.0561
vn 0.5650 0.8217 0.0741
vn 0.7179 -0.4283 0.5488
vn 0.7117 -0.4482 0.5409
vn 1.0000 0.0001 -0.0000
vn 1.0000 -0.0000 -0.0000
vn 1.0000 0.0002 -0.0006
vn 1.0000 0.0003 0.0028
vn 1.0000 -0.0002 0.0004
vn 1.0000 -0.0013 -0.0054
vn 1.0000 -0.0010 0.0004
vn 0.6171 0.2087 0.7587
vn 0.6697 0.1518 0.7269
vn 0.0222 -0.9997 0.0098
vn 0.0721 -0.9974 0.0086
vn 0.0468 -0.9988 0.0104
vn 0.0215 -0.9997 0.0093
vn 0.0452 -0.9984 0.0331
vn 0.5577 -0.4627 0.6891
vn 0.5560 -0.4596 0.6926
vn 0.8877 0.4463 0.1131
vn 0.3615 0.8875 0.2856
vn 0.7731 -0.5515 0.3134
vn 0.7729 0.2344 0.5897
vn -0.0023 0.9998 0.0184
vn 0.0248 0.9997 0.0024
vn 0.0084 0.9999 0.0083
vn -0.0000 -0.0000 1.0000
vn 0.0006 -0.0000 -1.0000
vn 0.0161 0.0148 -0.9998
vn -0.0001 0.0014 -1.0000
vn 0.0004 0.0001 -1.0000
vn 0.8075 -0.5800 0.1073
vn 0.7707 -0.6349 0.0541
vn 0.2162 0.9611 0.1720
vn 0.5387 -0.7048 0.4616
vn 0.5983 -0.6669 0.4443
vn 0.7945 0.3981 0.4585
vn 0.8082 0.2124 0.5493
vn 0.4387 0.8813 0.1758
vn 0.5041 0.8384 0.2073
vn 0.4702 0.8620 0.1892
vn 0.8890 -0.4439 0.1126
vn 0.8850 -0.4517 0.1127
vn 0.0228 -0.9997 0.0098
vn 0.0219 -0.9997 0.0097
vn -0.0023 1.0000 0.0024
vn 0.0428 0.9989 0.0201
vn 0.7298 -0.6163 0.2959
vn 0.7682 -0.5557 0.3179
vn 1.0000 0.0015 -0.0007
vn 0.0498 0.9985 0.0245
vn 0.6982 0.4763 0.5344
vn 0.7057 0.4610 0.5380
vn 0.8220 -0.4604 0.3354
vn 0.7998 -0.5009 0.3309
vn 1.0000 -0.0008 -0.0008
vn 0.9996 -0.0251 -0.0097
vn 1.0000 -0.0001 -0.0003
vn 1.0000 0.0053 -0.0045
vn 0.5547 -0.4639 0.6908
vn 0.5579 -0.4582 0.6919
vn 0.7747 0.2334 0.5877
vn 0.7783 0.2039 0.5938
s 0
f 13//1 17//1 14//1
f 1//2 3//2 2//2
f 3//3 6//3 7//3
f 36//4 40//4 32//4
f 23//5 10//5 24//5
f 16//6 23//6 29//6
f 36//7 32//7 31//7
f 28//8 24//8 39//8
f 16//9 29//9 30//9
f 39//10 42//10 38//10
f 18//11 26//11 21//11
f 42//12 44//12 38//12
f 40//13 37//13 42//13
f 31//14 32//14 21//14
f 35//15 41//15 45//15
f 39//16 37//16 42//16
f 29//17 34//17 30//17
f 24//18 22//18 39//18
f 5//19 10//19 11//19
f 17//20 13//20 30//20
f 28//21 38//21 41//21
f 15//22 8//22 20//22
f 1//23 2//23 18//23
f 14//24 19//24 7//24
f 30//25 35//25 31//25
f 44//26 43//26 45//26
f 34//27 29//27 23//27
f 10//28 1//28 4//28
f 6//29 12//29 13//29
f 13//30 7//30 6//30
f 7//31 2//31 3//31
f 35//32 40//32 36//32
f 23//33 11//33 10//33
f 16//34 11//34 23//34
f 9//35 8//35 15//35
f 3//36 1//36 6//36
f 1//37 5//37 6//37
f 5//38 11//38 6//38
f 39//39 38//39 28//39
f 11//40 16//40 12//40
f 12//41 6//41 11//41
f 30//42 13//42 16//42
f 13//43 12//43 16//43
f 8//44 9//44 4//44
f 10//45 4//45 9//45
f 34//46 41//46 35//46
f 35//47 30//47 34//47
f 33//48 21//48 27//48
f 27//49 21//49 26//49
f 21//50 33//50 32//50
f 40//51 42//51 43//51
f 42//52 44//52 43//52
f 37//53 32//53 33//53
f 37//54 40//54 32//54
f 44//55 45//55 38//55
f 45//56 41//56 38//56
f 21//57 18//57 17//57
f 18//58 19//58 14//58
f 17//59 18//59 14//59
f 17//60 25//60 21//60
f 25//61 31//61 21//61
f 43//62 40//62 45//62
f 40//63 35//63 45//63
f 1//64 10//64 5//64
f 22//65 37//65 39//65
f 30//66 25//66 17//66
f 41//67 34//67 28//67
f 20//68 27//68 15//68
f 27//69 33//69 22//69
f 22//70 15//70 27//70
f 18//71 20//71 26//71
f 26//71 20//71 27//71
f 20//72 8//72 18//72
f 8//73 4//73 1//73
f 2//74 19//74 18//74
f 8//75 1//75 18//75
f 7//76 13//76 14//76
f 19//77 2//77 7//77
f 37//78 22//78 33//78
f 36//79 31//79 35//79
f 31//80 25//80 30//80
f 23//81 24//81 28//81
f 34//82 23//82 28//82
f 22//83 9//83 15//83
f 24//84 10//84 22//84
f 10//85 9//85 22//85
f 3//86 6//86 2//86
f 6//87 7//87 2//87
f 26//71 18//71 27//71
f 27//71 18//71 20//71
f 17//88 25//88 18//88
f 25//89 21//89 18//89
f 21//48 26//48 33//48
f 33//49 26//49 27//49
f 33//90 20//90 27//90
f 33//91 15//91 20//91
f 13//92 25//92 17//92
f 13//93 30//93 25//93
f 32//94 21//94 43//94
f 43//48 21//48 33//48
f 33//95 22//95 15//95
f 39//96 38//96 24//96
f 38//97 28//97 24//97
f 16//98 29//98 13//98
f 29//99 30//99 13//99
f 44//100 33//100 42//100
f 42//101 33//101 37//101
f 43//102 33//102 44//102
f 40//103 32//103 43//103
f 40//104 35//104 43//104
f 35//105 45//105 43//105
f 38//106 34//106 28//106
f 41//107 34//107 38//107
