mtllib material.mtl
usemtl material_0
v -0.23356730 0.00297557 -0.14772880
v -0.23356730 -0.00297562 -0.14772820
v 0.23246050 -0.00297562 -0.14772820
v 0.23246050 0.00297557 -0.14772880
v -0.23356740 -0.00148797 0.00000010
v 0.23246050 -0.00148797 0.00000010
v 0.23246050 -0.00297558 -0.00148733
v -0.23356730 -0.00297566 -0.00148764
v -0.23356730 -0.00297566 -0.00148764
v -0.23356730 0.00297557 -0.00148733
v -0.23356740 0.00148792 0.00000010
v -0.23356740 -0.00148797 0.00000010
v 0.23246050 -0.00148797 0.00000010
v 0.23246050 0.00148792 0.00000010
v 0.23246050 0.00297557 -0.00148733
v 0.23246050 -0.00297558 -0.00148733
v -0.23356730 0.00297557 -0.00148733
v 0.23246050 0.00297557 -0.00148733
v 0.23246050 0.00148792 0.00000010
v -0.23356740 0.00148792 0.00000010
v -0.23356730 0.00297557 -0.00148733
v -0.23356730 0.00297557 -0.14772880
v 0.23246050 0.00297557 -0.14772880
v 0.23246050 0.00297557 -0.00148733
v -0.23356730 -0.00297562 -0.14772820
v -0.23356730 -0.00297566 -0.00148764
v 0.23246050 -0.00297558 -0.00148733
v 0.23246050 -0.00297562 -0.14772820
v 0.23246050 -0.00297558 -0.00148733
v 0.23246050 0.00297557 -0.00148733
v 0.23246050 0.00297557 -0.14772880
v 0.23246050 -0.00297562 -0.14772820
v -0.23356730 -0.00297562 -0.14772820
v -0.23356730 0.00297557 -0.14772880
v -0.23356730 0.00297557 -0.00148733
v -0.23356730 -0.00297566 -0.00148764
vn 0.00000000 -0.00010256 -1.00000000
vn 0.00000000 -0.00010256 -1.00000000
vn 0.00000000 -0.00010256 -1.00000000
vn 0.00000000 -0.00010256 -1.00000000
vn -0.00000017 -0.31617320 0.94870140
vn -0.00000017 -0.31617760 0.94870010
vn 0.00000000 -0.99994930 0.01006967
vn 0.00000000 -0.99994930 0.01006989
vn -1.00000000 0.00000787 -0.00000019
vn -1.00000000 0.00000787 -0.00000019
vn -1.00000000 -0.00000097 -0.00005127
vn -1.00000000 -0.00000097 -0.00005127
vn 1.00000000 0.00000000 0.00000000
vn 1.00000000 0.00000000 0.00000000
vn 1.00000000 0.00000000 0.00000000
vn 1.00000000 0.00000000 0.00000000
vn 0.00000000 0.99994930 0.01007003
vn 0.00000000 0.99994930 0.01006980
vn 0.00000000 0.31614670 0.94871030
vn 0.00000000 0.31614230 0.94871180
vn 0.00000000 0.99994930 0.01007003
vn 0.00000000 1.00000000 0.00000000
vn 0.00000000 1.00000000 0.00000000
vn 0.00000000 0.99994930 0.01006980
vn 0.00000000 -1.00000000 0.00000000
vn 0.00000000 -0.99994930 0.01006989
vn 0.00000000 -0.99994930 0.01006967
vn 0.00000000 -1.00000000 0.00000000
vn 1.00000000 0.00000000 0.00000000
vn 1.00000000 0.00000000 0.00000000
vn 1.00000000 0.00000000 0.00000000
vn 1.00000000 0.00000000 0.00000000
vn -1.00000000 0.00000790 0.00000000
vn -1.00000000 0.00000790 0.00000000
vn -1.00000000 0.00000787 -0.00000019
vn -1.00000000 0.00000787 -0.00000019
vt -0.58859090 -0.55870430
vt -0.59404770 -0.55870420
vt -0.59404770 0.03733297
vt -0.58859070 0.03733295
vt 0.32178740 -0.55680910
vt 0.32178740 0.03543755
vt 0.32315150 0.03733417
vt 0.32315150 -0.55870570
vt 0.32315150 -0.55870570
vt 0.31769470 -0.55870570
vt 0.31905870 -0.55680910
vt 0.32178740 -0.55680910
vt 0.32178740 0.03543755
vt 0.31905870 0.03543755
vt 0.31769470 0.03733417
vt 0.32315150 0.03733417
vt 0.31769470 -0.55870570
vt 0.31769470 0.03733417
vt 0.31905870 0.03543755
vt 0.31905870 -0.55680910
vt 0.21844930 -0.55870660
vt -0.04354534 -0.55870660
vt -0.04354536 0.03733537
vt 0.21844930 0.03733537
vt -0.22722340 -0.55870660
vt -0.48921690 -0.55870660
vt -0.48921740 0.03733526
vt -0.22722340 0.03733522
vt -0.60533370 -0.11347240
vt -0.61079060 -0.11347240
vt -0.61079060 0.14852240
vt -0.60533370 0.14852190
vt -0.61844940 -0.56220550
vt -0.62390630 -0.56220600
vt -0.62390630 -0.30021120
vt -0.61844940 -0.30021340
f 3/3/3 2/2/2 1/1/1
f 4/4/4 3/3/3 1/1/1
f 7/7/7 6/6/6 5/5/5
f 8/8/8 7/7/7 5/5/5
f 11/11/11 10/10/10 9/9/9
f 12/12/12 11/11/11 9/9/9
f 15/15/15 14/14/14 13/13/13
f 16/16/16 15/15/15 13/13/13
f 19/19/19 18/18/18 17/17/17
f 20/20/20 19/19/19 17/17/17
f 19/19/19 20/20/20 5/5/5
f 6/6/6 19/19/19 5/5/5
f 23/23/23 22/22/22 21/21/21
f 24/24/24 23/23/23 21/21/21
f 27/27/27 26/26/26 25/25/25
f 28/28/28 27/27/27 25/25/25
f 31/31/31 30/30/30 29/29/29
f 32/32/32 31/31/31 29/29/29
f 35/35/35 34/34/34 33/33/33
f 36/36/36 35/35/35 33/33/33

