mtllib material.mtl
usemtl material_0
v 0.00653191 0.00327067 -0.01576950
v 0.00000001 0.03485604 -0.01706871
v 0.00000001 0.00327067 -0.01706871
v -0.15993090 0.02891686 0.15262560
v -0.14792370 0.03050046 0.14397020
v -0.15825500 0.03050046 0.15430140
v -0.14959960 0.02891686 0.14229420
v -0.01057860 0.03050046 0.00662498
v -0.16105070 0.02654684 0.15150580
v -0.01225443 0.02891686 0.00494911
v -0.15071930 0.02654684 0.14117450
v -0.01337424 0.02654684 0.00382935
v -0.16144400 0.02375121 0.15111250
v -0.15111270 0.02375121 0.14078120
v -0.01376756 0.02375121 0.00343605
v -0.15111270 0.00437090 0.14078120
v -0.01376756 0.00437090 0.00343605
v -0.16144400 0.00437090 0.15111250
v -0.15111270 -0.00000000 0.14078120
v -0.16144400 -0.00000000 0.15111250
v -0.15430140 0.03050046 0.15825510
v -0.14229420 0.02891686 0.14959970
v -0.15262550 0.02891686 0.15993100
v -0.14397010 0.03050046 0.14792380
v -0.00494907 0.02891686 0.01225449
v -0.15627820 0.03105655 0.15627830
v -0.00662497 0.03050046 0.01057861
v -0.14594690 0.03105655 0.14594700
v -0.00860178 0.03105655 0.00860176
v -0.15111260 0.00000001 0.16144390
v -0.14078130 0.00000001 0.15111260
v -0.14594690 0.00000000 0.14594700
v -0.15627820 0.00000000 0.15627830
v -0.15111270 -0.00000000 0.14078120
v -0.16144400 -0.00000000 0.15111250
v -0.00382933 0.02654684 0.01337425
v -0.14117450 0.02654684 0.15071940
v -0.00343610 0.02375121 0.01376747
v -0.15150570 0.02654684 0.16105070
v -0.14078130 0.02375121 0.15111260
v -0.00343610 0.00437090 0.01376747
v -0.15111260 0.02375121 0.16144390
v -0.15111260 0.00437090 0.16144390
v -0.14078130 0.00437090 0.15111260
v -0.15111260 0.00000001 0.16144390
v -0.14078130 0.00000001 0.15111260
v -0.14078130 0.00437090 0.15111260
v -0.00343610 0.00437090 0.01376747
v -0.00860178 0.00437090 0.00860176
v -0.14594690 0.00437090 0.14594700
v -0.01376756 0.00437090 0.00343605
v -0.15111270 0.00437090 0.14078120
v -0.15111260 0.00437090 0.16144390
v -0.15111260 0.00000001 0.16144390
v -0.15627820 0.00000000 0.15627830
v -0.15627820 0.00437090 0.15627830
v -0.16144400 -0.00000000 0.15111250
v -0.15111260 0.02375121 0.16144390
v -0.16144400 0.00437090 0.15111250
v -0.15627820 0.02375121 0.15627830
v -0.15150570 0.02654684 0.16105070
v -0.16144400 0.02375121 0.15111250
v -0.15262550 0.02891686 0.15993100
v -0.16105070 0.02654684 0.15150580
v -0.15430140 0.03050046 0.15825510
v -0.15993090 0.02891686 0.15262560
v -0.15627820 0.03105655 0.15627830
v -0.15825500 0.03050046 0.15430140
v -0.14594690 0.00437090 0.14594700
v -0.14078130 0.00000001 0.15111260
v -0.14078130 0.00437090 0.15111260
v -0.14594690 0.00000000 0.14594700
v -0.15111270 0.00437090 0.14078120
v -0.15111270 -0.00000000 0.14078120
v -0.15262560 0.02891686 -0.15993090
v -0.14397010 0.03050046 -0.14792370
v -0.15430140 0.03050046 -0.15825510
v -0.14229430 0.02891686 -0.14959970
v -0.00662501 0.03050046 -0.01057861
v -0.15150580 0.02654684 -0.16105060
v -0.00494912 0.02891686 -0.01225456
v -0.14117450 0.02654684 -0.15071940
v -0.00382937 0.02654684 -0.01337418
v -0.15111240 0.02375121 -0.16144410
v -0.14078120 0.02375121 -0.15111280
v -0.00343604 0.02375121 -0.01376762
v -0.14078120 0.00437090 -0.15111280
v -0.00343604 0.00437090 -0.01376762
v -0.15111240 0.00437090 -0.16144410
v -0.14078120 -0.00000000 -0.15111280
v -0.15111240 -0.00000000 -0.16144410
v -0.15825510 0.03050046 -0.15430140
v -0.14959970 0.02891686 -0.14229430
v -0.15993100 0.02891686 -0.15262560
v -0.14792380 0.03050046 -0.14397010
v -0.01225454 0.02891686 -0.00494911
v -0.15627830 0.03105655 -0.15627820
v -0.01057864 0.03050046 -0.00662491
v -0.14594700 0.03105655 -0.14594700
v -0.00860183 0.03105655 -0.00860176
v -0.16144390 0.00000001 -0.15111260
v -0.15111260 0.00000001 -0.14078130
v -0.14594700 0.00000000 -0.14594700
v -0.15627830 0.00000000 -0.15627820
v -0.14078120 -0.00000000 -0.15111280
v -0.15111240 -0.00000000 -0.16144410
v -0.01337428 0.02654684 -0.00382935
v -0.15071940 0.02654684 -0.14117450
v -0.01376751 0.02375121 -0.00343613
v -0.16105070 0.02654684 -0.15150580
v -0.15111260 0.02375121 -0.14078130
v -0.01376751 0.00437090 -0.00343613
v -0.16144390 0.02375121 -0.15111260
v -0.16144390 0.00437090 -0.15111260
v -0.15111260 0.00437090 -0.14078130
v -0.16144390 0.00000001 -0.15111260
v -0.15111260 0.00000001 -0.14078130
v -0.15111260 0.00437090 -0.14078130
v -0.01376751 0.00437090 -0.00343613
v -0.00860183 0.00437090 -0.00860176
v -0.14594700 0.00437090 -0.14594700
v -0.00343604 0.00437090 -0.01376762
v -0.14078120 0.00437090 -0.15111280
v -0.16144390 0.00437090 -0.15111260
v -0.16144390 0.00000001 -0.15111260
v -0.15627830 0.00000000 -0.15627820
v -0.15627830 0.00437090 -0.15627820
v -0.15111240 -0.00000000 -0.16144410
v -0.16144390 0.02375121 -0.15111260
v -0.15111240 0.00437090 -0.16144410
v -0.15627830 0.02375121 -0.15627820
v -0.16105070 0.02654684 -0.15150580
v -0.15111240 0.02375121 -0.16144410
v -0.15993100 0.02891686 -0.15262560
v -0.15150580 0.02654684 -0.16105060
v -0.15825510 0.03050046 -0.15430140
v -0.15262560 0.02891686 -0.15993090
v -0.15627830 0.03105655 -0.15627820
v -0.15430140 0.03050046 -0.15825510
v -0.14594700 0.00437090 -0.14594700
v -0.15111260 0.00000001 -0.14078130
v -0.15111260 0.00437090 -0.14078130
v -0.14594700 0.00000000 -0.14594700
v -0.14078120 0.00437090 -0.15111280
v -0.14078120 -0.00000000 -0.15111280
v 0.00450946 0.21383290 -0.01088676
v 0.00000001 0.43428740 -0.01178398
v 0.00000001 0.21383290 -0.01178398
v 0.00450946 0.43428740 -0.01088676
v 0.00833239 0.21383290 -0.00833237
v 0.00833239 0.43428740 -0.00833237
v 0.01088678 0.21383290 -0.00450943
v 0.01088678 0.43428740 -0.00450943
v 0.01178377 0.21383290 0.00000000
v 0.01178377 0.43428740 0.00000000
v 0.00000001 0.21383290 -0.01178398
v 0.00000001 0.43428740 -0.01178398
v -0.00450945 0.43428740 -0.01088676
v -0.00450945 0.21383290 -0.01088676
v -0.00833238 0.43428740 -0.00833237
v -0.00833238 0.21383290 -0.00833237
v -0.01088678 0.43428740 -0.00450943
v -0.01088678 0.21383290 -0.00450943
v -0.01178377 0.43428740 0.00000000
v -0.01178377 0.21383290 0.00000000
v -0.01088678 0.43428740 0.00450943
v -0.01088678 0.21383290 0.00450943
v -0.00833238 0.43428740 0.00833221
v -0.00833238 0.21383290 0.00833221
v -0.00450945 0.43428740 0.01088669
v -0.00450945 0.21383290 0.01088669
v -0.00000000 0.43428740 0.01178383
v -0.00000000 0.21383290 0.01178383
v 0.00450945 0.43428740 0.01088669
v 0.00450945 0.21383290 0.01088669
v 0.00833238 0.43428740 0.00833221
v 0.00833238 0.21383290 0.00833221
v 0.01088678 0.43428740 0.00450943
v 0.01088678 0.21383290 0.00450943
v 0.00653191 0.03485604 -0.01576950
v 0.01206940 0.00327067 -0.01206947
v 0.01206940 0.03485604 -0.01206947
v 0.01576942 0.00327067 -0.00653198
v 0.01576942 0.03485604 -0.00653198
v 0.01706870 0.00327067 0.00000000
v 0.01706870 0.03485604 0.00000008
v 0.00000001 0.00327067 -0.01706871
v 0.00000001 0.03485604 -0.01706871
v -0.00653190 0.03485604 -0.01576950
v -0.00653190 0.00327067 -0.01576950
v -0.01206939 0.03485604 -0.01206947
v -0.01206939 0.00327067 -0.01206947
v -0.01576942 0.03485604 -0.00653198
v -0.01576942 0.00327067 -0.00653198
v -0.01706870 0.03485604 0.00000008
v -0.01706870 0.00327067 0.00000000
v -0.01576943 0.03485604 0.00653183
v -0.01576943 0.00327067 0.00653183
v -0.01206940 0.03485604 0.01206924
v -0.01206940 0.00327067 0.01206924
v -0.00653191 0.03485604 0.01576942
v -0.00653191 0.00327067 0.01576942
v -0.00000000 0.03485604 0.01706879
v -0.00000000 0.00327067 0.01706879
v 0.00653191 0.03485604 0.01576942
v 0.00653191 0.00327067 0.01576942
v 0.01206939 0.03485604 0.01206924
v 0.01206939 0.00327067 0.01206924
v 0.01576942 0.03485604 0.00653183
v 0.01576942 0.00327067 0.00653183
v -0.00586128 0.03485604 -0.01415047
v -0.00586128 0.21474910 -0.01415047
v -0.01083024 0.21474910 -0.01083031
v -0.01083024 0.03485604 -0.01083031
v -0.01415040 0.21474910 -0.00586128
v -0.01415039 0.03485604 -0.00586128
v -0.01531628 0.21474910 0.00000000
v -0.01531628 0.03485604 0.00000008
v -0.01415040 0.21474910 0.00586128
v -0.01415040 0.03485604 0.00586128
v -0.01083025 0.21474910 0.01083023
v -0.01083025 0.03485604 0.01083023
v 0.00000001 0.03485604 -0.01531639
v 0.00000001 0.21474910 -0.01531639
v 0.00586129 0.03485604 -0.01415047
v 0.00000001 0.21474910 -0.01531639
v 0.00000001 0.03485604 -0.01531639
v 0.00586129 0.21474910 -0.01415047
v 0.01083025 0.03485604 -0.01083031
v 0.01083025 0.21474910 -0.01083031
v 0.01415040 0.03485604 -0.00586128
v 0.01415040 0.21474910 -0.00586128
v 0.01531628 0.03485604 0.00000008
v 0.01531628 0.21474910 0.00000000
v 0.01415040 0.03485604 0.00586128
v 0.01415040 0.21474910 0.00586128
v 0.01083024 0.03485604 0.01083023
v 0.01083024 0.21474910 0.01083023
v 0.00586128 0.03485604 0.01415039
v 0.00586128 0.21474910 0.01415039
v -0.00000000 0.03485604 0.01531631
v -0.00000000 0.21474910 0.01531631
v -0.00586129 0.03485604 0.01415039
v -0.00586129 0.21474910 0.01415039
v 0.01706870 0.00327067 0.00000000
v 0.01576942 0.00327067 -0.00653198
v 0.01206940 0.00327067 -0.01206947
v 0.00000000 0.00327067 0.00000000
v 0.01576942 0.00327067 0.00653183
v 0.01206939 0.00327067 0.01206924
v 0.00653191 0.00327067 0.01576942
v -0.00000000 0.00327067 0.01706879
v 0.00000001 0.00327067 -0.01706871
v 0.00653191 0.00327067 -0.01576950
v -0.01206940 0.00327067 0.01206924
v -0.00653191 0.00327067 0.01576942
v -0.01206939 0.00327067 -0.01206947
v -0.00653190 0.00327067 -0.01576950
v -0.01706870 0.00327067 0.00000000
v -0.01576943 0.00327067 0.00653183
v -0.01576942 0.00327067 -0.00653198
v 0.15993110 0.02891686 -0.15262560
v 0.14792390 0.03050046 -0.14397010
v 0.15825520 0.03050046 -0.15430140
v 0.14959980 0.02891686 -0.14229440
v 0.01057872 0.03050046 -0.00662506
v 0.16105080 0.02654684 -0.15150600
v 0.01225462 0.02891686 -0.00494919
v 0.15071950 0.02654684 -0.14117450
v 0.01337436 0.02654684 -0.00382950
v 0.16144410 0.02375121 -0.15111260
v 0.15111280 0.02375121 -0.14078130
v 0.01376767 0.02375121 -0.00343613
v 0.15111280 0.00437090 -0.14078130
v 0.01376767 0.00437090 -0.00343613
v 0.16144410 0.00437090 -0.15111260
v 0.15111280 -0.00000000 -0.14078130
v 0.16144410 -0.00000000 -0.15111260
v 0.15430160 0.03050046 -0.15825510
v 0.14229440 0.02891686 -0.14959970
v 0.15262570 0.02891686 -0.15993100
v 0.14397030 0.03050046 -0.14792400
v 0.00494919 0.02891686 -0.01225456
v 0.15627840 0.03105655 -0.15627820
v 0.00662509 0.03050046 -0.01057861
v 0.14594710 0.03105655 -0.14594700
v 0.00860191 0.03105655 -0.00860191
v 0.15111270 0.00000001 -0.16144410
v 0.14078140 0.00000001 -0.15111270
v 0.14594710 0.00000000 -0.14594700
v 0.15627840 0.00000000 -0.15627820
v 0.15111280 -0.00000000 -0.14078130
v 0.16144410 -0.00000000 -0.15111260
v 0.00382945 0.02654684 -0.01337433
v 0.14117460 0.02654684 -0.15071940
v 0.00343620 0.02375121 -0.01376762
v 0.15150590 0.02654684 -0.16105080
v 0.14078140 0.02375121 -0.15111270
v 0.00343620 0.00437090 -0.01376762
v 0.15111270 0.02375121 -0.16144410
v 0.15111270 0.00437090 -0.16144410
v 0.14078140 0.00437090 -0.15111270
v 0.15111270 0.00000001 -0.16144410
v 0.14078140 0.00000001 -0.15111270
v 0.14078140 0.00437090 -0.15111270
v 0.00343620 0.00437090 -0.01376762
v 0.00860191 0.00437090 -0.00860191
v 0.14594710 0.00437090 -0.14594700
v 0.01376767 0.00437090 -0.00343613
v 0.15111280 0.00437090 -0.14078130
v 0.15111270 0.00437090 -0.16144410
v 0.15111270 0.00000001 -0.16144410
v 0.15627840 0.00000000 -0.15627820
v 0.15627840 0.00437090 -0.15627820
v 0.16144410 -0.00000000 -0.15111260
v 0.15111270 0.02375121 -0.16144410
v 0.16144410 0.00437090 -0.15111260
v 0.15627840 0.02375121 -0.15627820
v 0.15150590 0.02654684 -0.16105080
v 0.16144410 0.02375121 -0.15111260
v 0.15262570 0.02891686 -0.15993100
v 0.16105080 0.02654684 -0.15150600
v 0.15430160 0.03050046 -0.15825510
v 0.15993110 0.02891686 -0.15262560
v 0.15627840 0.03105655 -0.15627820
v 0.15825520 0.03050046 -0.15430140
v 0.14594710 0.00437090 -0.14594700
v 0.14078140 0.00000001 -0.15111270
v 0.14078140 0.00437090 -0.15111270
v 0.14594710 0.00000000 -0.14594700
v 0.15111280 0.00437090 -0.14078130
v 0.15111280 -0.00000000 -0.14078130
v 0.15262560 0.02891686 0.15993090
v 0.14397020 0.03050046 0.14792370
v 0.15430150 0.03050046 0.15825500
v 0.14229430 0.02891686 0.14959960
v 0.00662507 0.03050046 0.01057861
v 0.15150590 0.02654684 0.16105060
v 0.00494917 0.02891686 0.01225449
v 0.14117460 0.02654684 0.15071940
v 0.00382943 0.02654684 0.01337425
v 0.15111260 0.02375121 0.16144390
v 0.14078130 0.02375121 0.15111270
v 0.00343615 0.02375121 0.01376747
v 0.14078130 0.00437090 0.15111270
v 0.00343615 0.00437090 0.01376747
v 0.15111260 0.00437090 0.16144390
v 0.14078130 -0.00000000 0.15111270
v 0.15111260 -0.00000000 0.16144390
v 0.15825510 0.03050046 0.15430140
v 0.14959970 0.02891686 0.14229420
v 0.15993100 0.02891686 0.15262560
v 0.14792380 0.03050046 0.14397010
v 0.01225459 0.02891686 0.00494904
v 0.15627830 0.03105655 0.15627820
v 0.01057870 0.03050046 0.00662498
v 0.14594700 0.03105655 0.14594690
v 0.00860188 0.03105655 0.00860176
v 0.16144410 0.00000001 0.15111250
v 0.15111280 0.00000001 0.14078120
v 0.14594700 0.00000000 0.14594690
v 0.15627830 0.00000000 0.15627820
v 0.14078130 -0.00000000 0.15111270
v 0.15111260 -0.00000000 0.16144390
v 0.01337433 0.02654684 0.00382935
v 0.15071950 0.02654684 0.14117450
v 0.01376761 0.02375121 0.00343605
v 0.16105080 0.02654684 0.15150580
v 0.15111280 0.02375121 0.14078120
v 0.01376761 0.00437090 0.00343605
v 0.16144410 0.02375121 0.15111250
v 0.16144410 0.00437090 0.15111250
v 0.15111280 0.00437090 0.14078120
v 0.16144410 0.00000001 0.15111250
v 0.15111280 0.00000001 0.14078120
v 0.15111280 0.00437090 0.14078120
v 0.01376761 0.00437090 0.00343605
v 0.00860188 0.00437090 0.00860176
v 0.14594700 0.00437090 0.14594690
v 0.00343615 0.00437090 0.01376747
v 0.14078130 0.00437090 0.15111270
v 0.16144410 0.00437090 0.15111250
v 0.16144410 0.00000001 0.15111250
v 0.15627830 0.00000000 0.15627820
v 0.15627830 0.00437090 0.15627820
v 0.15111260 -0.00000000 0.16144390
v 0.16144410 0.02375121 0.15111250
v 0.15111260 0.00437090 0.16144390
v 0.15627830 0.02375121 0.15627820
v 0.16105080 0.02654684 0.15150580
v 0.15111260 0.02375121 0.16144390
v 0.15993100 0.02891686 0.15262560
v 0.15150590 0.02654684 0.16105060
v 0.15825510 0.03050046 0.15430140
v 0.15262560 0.02891686 0.15993090
v 0.15627830 0.03105655 0.15627820
v 0.15430150 0.03050046 0.15825500
v 0.14594700 0.00437090 0.14594690
v 0.15111280 0.00000001 0.14078120
v 0.15111280 0.00437090 0.14078120
v 0.14594700 0.00000000 0.14594690
v 0.14078130 0.00437090 0.15111270
v 0.14078130 -0.00000000 0.15111270
v 0.00000000 0.21474910 0.00000000
v 0.01083025 0.21474910 -0.01083031
v 0.01415040 0.21474910 -0.00586128
v 0.00586129 0.21474910 -0.01415047
v 0.01531628 0.21474910 0.00000000
v 0.00000001 0.21474910 -0.01531639
v 0.01415040 0.21474910 0.00586128
v -0.00586128 0.21474910 -0.01415047
v 0.01083024 0.21474910 0.01083023
v -0.01083024 0.21474910 -0.01083031
v 0.00586128 0.21474910 0.01415039
v -0.01415040 0.21474910 -0.00586128
v -0.00000000 0.21474910 0.01531631
v -0.01531628 0.21474910 0.00000000
v -0.00586129 0.21474910 0.01415039
v -0.01415040 0.21474910 0.00586128
v -0.01083025 0.21474910 0.01083023
v 0.00450946 0.21383290 -0.01088676
v 0.00000001 0.21383290 -0.01178398
v 0.00000000 0.21383290 0.00000000
v 0.00833239 0.21383290 -0.00833237
v -0.00450945 0.21383290 -0.01088676
v 0.01088678 0.21383290 -0.00450943
v -0.00833238 0.21383290 -0.00833237
v 0.01178377 0.21383290 0.00000000
v -0.01088678 0.21383290 -0.00450943
v 0.01088678 0.21383290 0.00450943
v -0.01178377 0.21383290 0.00000000
v 0.00833238 0.21383290 0.00833221
v -0.01088678 0.21383290 0.00450943
v 0.00450945 0.21383290 0.01088669
v -0.00833238 0.21383290 0.00833221
v -0.00000000 0.21383290 0.01178383
v -0.00450945 0.21383290 0.01088669
v 0.01083025 0.03485604 -0.01083031
v 0.01206940 0.03485604 -0.01206947
v 0.01576942 0.03485604 -0.00653198
v 0.01415040 0.03485604 -0.00586128
v 0.00586129 0.03485604 -0.01415047
v 0.01706870 0.03485604 0.00000008
v 0.00653191 0.03485604 -0.01576950
v 0.01531628 0.03485604 0.00000008
v 0.00000001 0.03485604 -0.01531639
v 0.01576942 0.03485604 0.00653183
v 0.00000001 0.03485604 -0.01706871
v 0.01415040 0.03485604 0.00586128
v -0.00586128 0.03485604 -0.01415047
v 0.01206939 0.03485604 0.01206924
v -0.00653190 0.03485604 -0.01576950
v 0.01083024 0.03485604 0.01083023
v -0.01083024 0.03485604 -0.01083031
v 0.00653191 0.03485604 0.01576942
v -0.01206939 0.03485604 -0.01206947
v 0.00586128 0.03485604 0.01415039
v -0.01415039 0.03485604 -0.00586128
v -0.00000000 0.03485604 0.01706879
v -0.01576942 0.03485604 -0.00653198
v -0.00000000 0.03485604 0.01531631
v -0.01531628 0.03485604 0.00000008
v -0.00653191 0.03485604 0.01576942
v -0.01706870 0.03485604 0.00000008
v -0.00586129 0.03485604 0.01415039
v -0.01415040 0.03485604 0.00586128
v -0.01206940 0.03485604 0.01206924
v -0.01576943 0.03485604 0.00653183
v -0.01083025 0.03485604 0.01083023
vn 0.38267530 0.00000000 -0.92388300
vn 0.00000000 0.00000000 -1.00000000
vn 0.00000000 0.00000000 -1.00000000
vn -0.50000110 0.70710660 -0.49999900
vn -0.27059720 0.92388010 -0.27059690
vn -0.27059590 0.92388090 -0.27059530
vn -0.50000020 0.70710660 -0.49999980
vn -0.27059750 0.92387990 -0.27059730
vn -0.65327730 0.38270120 -0.65327520
vn -0.50000020 0.70710660 -0.49999990
vn -0.65327600 0.38270240 -0.65327580
vn -0.65327570 0.38270330 -0.65327570
vn -0.70688430 0.02507602 -0.70688460
vn -0.70688460 0.02507594 -0.70688430
vn -0.70688460 0.02507593 -0.70688430
vn -0.70710690 0.00000000 -0.70710660
vn -0.70710690 0.00000000 -0.70710660
vn -0.70710660 0.00000000 -0.70710690
vn -0.70710690 0.00000000 -0.70710660
vn -0.70710690 0.00000000 -0.70710660
vn 0.27059480 0.92388110 0.27059630
vn 0.49999920 0.70710770 0.49999930
vn 0.49999680 0.70710900 0.50000000
vn 0.27059540 0.92388110 0.27059540
vn 0.49999930 0.70710770 0.49999930
vn -0.00000063 1.00000000 0.00000000
vn 0.27059500 0.92388140 0.27059480
vn 0.00000010 1.00000000 0.00000010
vn 0.00000011 1.00000000 0.00000000
vn 0.00000013 -1.00000000 0.00000013
vn 0.00000013 -1.00000000 0.00000013
vn 0.00000025 -1.00000000 0.00000025
vn 0.00000025 -1.00000000 0.00000025
vn 0.00000038 -1.00000000 0.00000038
vn 0.00000038 -1.00000000 0.00000038
vn 0.65328350 0.38267610 0.65328390
vn 0.65328350 0.38267550 0.65328410
vn 0.70688450 0.02506677 0.70688480
vn 0.65328500 0.38266680 0.65328780
vn 0.70688430 0.02506673 0.70688500
vn 0.70710660 0.00000000 0.70710690
vn 0.70688290 0.02506429 0.70688650
vn 0.70710480 0.00000000 0.70710870
vn 0.70710640 0.00000000 0.70710710
vn 0.70710490 0.00000000 0.70710860
vn 0.70710490 0.00000000 0.70710860
vn 0.00000000 -1.00000000 0.00000000
vn 0.00000000 -1.00000000 0.00000000
vn 0.00000022 -1.00000000 0.00000020
vn 0.00000022 -1.00000000 0.00000020
vn 0.00000040 -1.00000000 0.00000040
vn 0.00000040 -1.00000000 0.00000040
vn -0.70710500 0.00000000 0.70710850
vn -0.70710950 0.00000000 0.70710410
vn -0.70710430 0.00000000 0.70710930
vn -0.70710610 0.00000000 0.70710740
vn -0.70709900 0.00000000 0.70711450
vn -0.70710260 -0.00000101 0.70711090
vn -0.70710740 0.00000000 0.70710610
vn -0.70710620 0.00000000 0.70710720
vn -0.70709200 -0.00000905 0.70712160
vn -0.70710780 0.00000078 0.70710570
vn -0.70710250 -0.00000161 0.70711090
vn -0.70709650 0.00000700 0.70711700
vn -0.70711310 0.00000584 0.70710030
vn -0.70710530 0.00000292 0.70710820
vn -0.70711360 0.00000233 0.70709990
vn -0.70711400 -0.00000117 0.70709940
vn 0.70710830 0.00000000 -0.70710530
vn 0.70711280 0.00000000 -0.70710060
vn 0.70711280 0.00000000 -0.70710070
vn 0.70710820 0.00000000 -0.70710530
vn 0.70710370 0.00000000 -0.70710990
vn 0.70710370 0.00000000 -0.70710990
vn 0.49999930 0.70710560 -0.50000210
vn 0.27059440 0.92388160 -0.27059450
vn 0.27059480 0.92388110 -0.27059630
vn 0.50000100 0.70710550 -0.50000080
vn 0.27059320 0.92388240 -0.27059320
vn 0.65327270 0.38271420 -0.65327220
vn 0.50000180 0.70710460 -0.50000130
vn 0.65327530 0.38270580 -0.65327450
vn 0.65327540 0.38270570 -0.65327450
vn 0.70688420 0.02508030 -0.70688440
vn 0.70688460 0.02507909 -0.70688430
vn 0.70688460 0.02507977 -0.70688430
vn 0.70710690 0.00000000 -0.70710660
vn 0.70710690 0.00000000 -0.70710660
vn 0.70710640 0.00000000 -0.70710710
vn 0.70710650 0.00000000 -0.70710700
vn 0.70710650 0.00000000 -0.70710700
vn -0.27059850 0.92387940 0.27059790
vn -0.50000360 0.70710180 0.50000330
vn -0.50000450 0.70710060 0.50000420
vn -0.27059770 0.92387980 0.27059740
vn -0.50000250 0.70710350 0.50000220
vn 0.00000108 1.00000000 -0.00000050
vn -0.27059640 0.92388050 0.27059610
vn 0.00000012 1.00000000 0.00000000
vn -0.00000079 1.00000000 0.00000082
vn -0.00000013 -1.00000000 0.00000013
vn -0.00000013 -1.00000000 0.00000013
vn -0.00000025 -1.00000000 0.00000025
vn -0.00000025 -1.00000000 0.00000025
vn -0.00000038 -1.00000000 0.00000038
vn -0.00000038 -1.00000000 0.00000038
vn -0.65328100 0.38268540 0.65328070
vn -0.65328060 0.38268680 0.65328050
vn -0.70688440 0.02507020 0.70688460
vn -0.65328030 0.38268490 0.65328180
vn -0.70688450 0.02507039 0.70688460
vn -0.70710660 0.00000000 0.70710690
vn -0.70688500 0.02507033 0.70688400
vn -0.70710750 0.00000000 0.70710610
vn -0.70710660 0.00000000 0.70710690
vn -0.70710800 0.00000000 0.70710560
vn -0.70710800 0.00000000 0.70710560
vn 0.00000000 -1.00000000 0.00000000
vn 0.00000000 -1.00000000 0.00000000
vn -0.00000022 -1.00000000 0.00000020
vn -0.00000022 -1.00000000 0.00000020
vn -0.00000040 -1.00000000 0.00000040
vn -0.00000040 -1.00000000 0.00000040
vn -0.70710390 0.00000000 -0.70710960
vn -0.70710890 0.00000000 -0.70710470
vn -0.70710660 0.00000000 -0.70710690
vn -0.70710810 0.00000000 -0.70710550
vn -0.70710440 0.00000000 -0.70710910
vn -0.70710240 -0.00000026 -0.70711110
vn -0.70711210 0.00000000 -0.70710140
vn -0.70710790 0.00000011 -0.70710560
vn -0.70709880 -0.00000233 -0.70711460
vn -0.70711420 0.00000000 -0.70709930
vn -0.70709670 0.00000233 -0.70711680
vn -0.70711610 0.00000000 -0.70709740
vn -0.70709450 0.00000700 -0.70711900
vn -0.70711300 -0.00000058 -0.70710050
vn -0.70710210 0.00000292 -0.70711140
vn -0.70710980 -0.00000117 -0.70710370
vn 0.70711120 0.00000000 0.70710220
vn 0.70710830 0.00000000 0.70710530
vn 0.70710820 0.00000000 0.70710530
vn 0.70711120 0.00000000 0.70710220
vn 0.70711430 0.00000000 0.70709920
vn 0.70711430 0.00000000 0.70709920
vn 0.38271090 0.00000000 -0.92386820
vn 0.00000000 0.00000000 -1.00000000
vn 0.00000000 0.00000000 -1.00000000
vn 0.38271090 0.00000000 -0.92386820
vn 0.70710610 0.00000000 -0.70710750
vn 0.70710610 0.00000000 -0.70710750
vn 0.92387990 0.00000000 -0.38268260
vn 0.92387990 0.00000000 -0.38268260
vn 1.00000000 0.00000000 0.00000039
vn 1.00000000 0.00000000 0.00000039
vn 0.00000000 0.00000000 -1.00000000
vn 0.00000000 0.00000000 -1.00000000
vn -0.38271060 0.00000000 -0.92386820
vn -0.38271060 0.00000000 -0.92386820
vn -0.70710570 0.00000000 -0.70710780
vn -0.70710570 0.00000000 -0.70710780
vn -0.92387950 0.00000000 -0.38268340
vn -0.92387950 0.00000000 -0.38268340
vn -1.00000000 0.00000000 -0.00000028
vn -1.00000000 0.00000000 -0.00000028
vn -0.92387630 0.00000000 0.38269150
vn -0.92387630 0.00000000 0.38269150
vn -0.70710610 0.00000000 0.70710750
vn -0.70710610 0.00000000 0.70710750
vn -0.38271080 0.00000000 0.92386820
vn -0.38271080 0.00000000 0.92386820
vn 0.00000000 0.00000000 1.00000000
vn 0.00000000 0.00000000 1.00000000
vn 0.38271080 0.00000000 0.92386820
vn 0.38271080 0.00000000 0.92386820
vn 0.70710590 0.00000000 0.70710770
vn 0.70710590 0.00000000 0.70710770
vn 0.92387620 0.00000000 0.38269170
vn 0.92387620 0.00000000 0.38269170
vn 0.38267530 0.00000000 -0.92388300
vn 0.70710580 0.00000000 -0.70710770
vn 0.70710580 0.00000000 -0.70710770
vn 0.92388120 0.00000015 -0.38267970
vn 0.92388120 0.00000015 -0.38267970
vn 1.00000000 0.00000000 -0.00000021
vn 1.00000000 0.00000000 0.00000040
vn 0.00000000 0.00000000 -1.00000000
vn 0.00000000 0.00000000 -1.00000000
vn -0.38267510 0.00000000 -0.92388300
vn -0.38267510 0.00000000 -0.92388300
vn -0.70710560 0.00000000 -0.70710800
vn -0.70710560 0.00000000 -0.70710800
vn -0.92388080 0.00000014 -0.38268040
vn -0.92388080 0.00000014 -0.38268040
vn -1.00000000 0.00000000 -0.00000060
vn -1.00000000 0.00000000 -0.00000120
vn -0.92387760 -0.00000012 0.38268810
vn -0.92387760 -0.00000012 0.38268810
vn -0.70710940 0.00000000 0.70710410
vn -0.70710940 0.00000000 0.70710410
vn -0.38270060 0.00000000 0.92387250
vn -0.38270060 0.00000000 0.92387250
vn 0.00000000 0.00000000 1.00000000
vn 0.00000000 0.00000000 1.00000000
vn 0.38270060 0.00000000 0.92387250
vn 0.38270060 0.00000000 0.92387250
vn 0.70710940 0.00000000 0.70710410
vn 0.70710940 0.00000000 0.70710410
vn 0.92387760 0.00000000 0.38268830
vn 0.92387760 0.00000000 0.38268820
vn -0.38268850 0.00000000 -0.92387750
vn -0.38268850 0.00000000 -0.92387750
vn -0.70711160 0.00000000 -0.70710190
vn -0.70711160 0.00000000 -0.70710190
vn -0.92387980 0.00000000 -0.38268280
vn -0.92387980 0.00000000 -0.38268280
vn -1.00000000 0.00000000 -0.00000051
vn -1.00000000 0.00000000 -0.00000040
vn -0.92388000 0.00000000 0.38268230
vn -0.92388000 0.00000000 0.38268230
vn -0.70710890 0.00000000 0.70710470
vn -0.70710890 0.00000000 0.70710470
vn 0.00000000 0.00000000 -1.00000000
vn 0.00000000 0.00000000 -1.00000000
vn 0.38268860 0.00000000 -0.92387740
vn 0.00000000 0.00000000 -1.00000000
vn 0.00000000 0.00000000 -1.00000000
vn 0.38268860 0.00000000 -0.92387740
vn 0.70711190 0.00000000 -0.70710160
vn 0.70711190 0.00000000 -0.70710160
vn 0.92388000 0.00000000 -0.38268220
vn 0.92388000 0.00000000 -0.38268220
vn 1.00000000 0.00000000 0.00000055
vn 1.00000000 0.00000000 0.00000045
vn 0.92387990 0.00000000 0.38268260
vn 0.92387990 0.00000000 0.38268260
vn 0.70710880 0.00000000 0.70710470
vn 0.70710880 0.00000000 0.70710470
vn 0.38268850 0.00000000 0.92387750
vn 0.38268850 0.00000000 0.92387750
vn 0.00000000 0.00000000 1.00000000
vn 0.00000000 0.00000000 1.00000000
vn -0.38268860 0.00000000 0.92387740
vn -0.38268860 0.00000000 0.92387740
vn 0.00000000 -1.00000000 0.00000000
vn 0.00000000 -1.00000000 0.00000000
vn 0.00000000 -1.00000000 0.00000000
vn 0.00000000 -1.00000000 0.00000000
vn 0.00000000 -1.00000000 0.00000000
vn 0.00000000 -1.00000000 0.00000000
vn 0.00000000 -1.00000000 0.00000000
vn 0.00000000 -1.00000000 0.00000000
vn 0.00000000 -1.00000000 0.00000000
vn 0.00000000 -1.00000000 0.00000000
vn 0.00000000 -1.00000000 0.00000000
vn 0.00000000 -1.00000000 0.00000000
vn 0.00000000 -1.00000000 0.00000000
vn 0.00000000 -1.00000000 0.00000000
vn 0.00000000 -1.00000000 0.00000000
vn 0.00000000 -1.00000000 0.00000000
vn 0.00000000 -1.00000000 0.00000000
vn 0.50000730 0.70709500 0.50000940
vn 0.27059830 0.92387930 0.27059840
vn 0.27059740 0.92387920 0.27059970
vn 0.50000380 0.70710120 0.50000400
vn 0.27059720 0.92388000 0.27059720
vn 0.65327850 0.38269120 0.65327990
vn 0.50000240 0.70710310 0.50000270
vn 0.65327690 0.38269950 0.65327670
vn 0.65327750 0.38269770 0.65327720
vn 0.70688470 0.02507371 0.70688440
vn 0.70688460 0.02507406 0.70688450
vn 0.70688460 0.02507369 0.70688450
vn 0.70710690 0.00000000 0.70710660
vn 0.70710680 0.00000000 0.70710680
vn 0.70710770 0.00000000 0.70710580
vn 0.70711050 0.00000000 0.70710300
vn 0.70711050 0.00000000 0.70710300
vn -0.27059380 0.92388150 -0.27059580
vn -0.49999980 0.70710650 -0.50000070
vn -0.50000180 0.70710310 -0.50000340
vn -0.27059660 0.92388010 -0.27059750
vn -0.50000090 0.70710480 -0.50000180
vn -0.00000027 1.00000000 -0.00000027
vn -0.27059700 0.92387990 -0.27059770
vn -0.00000217 1.00000000 -0.00000274
vn -0.00000111 1.00000000 -0.00000173
vn -0.00000013 -1.00000000 -0.00000013
vn -0.00000013 -1.00000000 -0.00000013
vn -0.00000025 -1.00000000 -0.00000025
vn -0.00000025 -1.00000000 -0.00000025
vn -0.00000038 -1.00000000 -0.00000038
vn -0.00000038 -1.00000000 -0.00000038
vn -0.65327900 0.38269110 -0.65327950
vn -0.65327940 0.38269060 -0.65327940
vn -0.70688420 0.02507161 -0.70688490
vn -0.65328230 0.38268990 -0.65327690
vn -0.70688450 0.02507126 -0.70688460
vn -0.70710640 0.00000000 -0.70710720
vn -0.70688850 0.02507182 -0.70688060
vn -0.70711060 0.00000000 -0.70710280
vn -0.70710680 0.00000000 -0.70710680
vn -0.70711120 0.00000000 -0.70710240
vn -0.70711120 0.00000000 -0.70710240
vn 0.00000000 -1.00000000 0.00000000
vn 0.00000000 -1.00000000 0.00000000
vn -0.00000022 -1.00000000 -0.00000024
vn -0.00000022 -1.00000000 -0.00000024
vn -0.00000040 -1.00000000 -0.00000044
vn -0.00000040 -1.00000000 -0.00000044
vn 0.70711700 0.00000000 -0.70709650
vn 0.70711360 0.00000000 -0.70710000
vn 0.70710760 0.00000000 -0.70710590
vn 0.70710700 0.00000000 -0.70710650
vn 0.70710160 0.00000000 -0.70711200
vn 0.70711640 0.00000075 -0.70709710
vn 0.70709720 0.00000000 -0.70711630
vn 0.70710700 0.00000000 -0.70710650
vn 0.70710610 0.00000671 -0.70710740
vn 0.70709690 -0.00000105 -0.70711650
vn 0.70711470 0.00000336 -0.70709880
vn 0.70710300 -0.00000934 -0.70711050
vn 0.70712320 0.00000000 -0.70709030
vn 0.70709990 -0.00000233 -0.70711360
vn 0.70711000 0.00000233 -0.70710350
vn 0.70709670 0.00000467 -0.70711680
vn -0.70710820 0.00000000 0.70710530
vn -0.70710690 0.00000000 0.70710660
vn -0.70710690 0.00000000 0.70710660
vn -0.70710830 0.00000000 0.70710530
vn -0.70710950 0.00000000 0.70710400
vn -0.70710950 0.00000000 0.70710400
vn -0.50000370 0.70710270 0.50000210
vn -0.27059560 0.92388120 0.27059500
vn -0.27059540 0.92388140 0.27059450
vn -0.49999960 0.70710720 0.49999960
vn -0.27059520 0.92388140 0.27059460
vn -0.65327850 0.38269120 0.65327980
vn -0.49999940 0.70710750 0.49999950
vn -0.65327860 0.38269230 0.65327910
vn -0.65327880 0.38269220 0.65327910
vn -0.70688190 0.02507437 0.70688700
vn -0.70688460 0.02507227 0.70688460
vn -0.70688470 0.02507191 0.70688440
vn -0.70710680 0.00000000 0.70710680
vn -0.70710690 0.00000000 0.70710660
vn -0.70710410 0.00000000 0.70710930
vn -0.70710420 0.00000000 0.70710930
vn -0.70710420 0.00000000 0.70710930
vn 0.27059860 0.92387950 -0.27059740
vn 0.49999940 0.70710760 -0.49999940
vn 0.50000170 0.70710800 -0.49999660
vn 0.27059670 0.92388030 -0.27059670
vn 0.49999930 0.70710750 -0.49999970
vn 0.00000097 1.00000000 -0.00000096
vn 0.27059610 0.92388060 -0.27059620
vn 0.00000000 1.00000000 -0.00000034
vn 0.00000000 1.00000000 -0.00000031
vn 0.00000013 -1.00000000 -0.00000013
vn 0.00000013 -1.00000000 -0.00000013
vn 0.00000025 -1.00000000 -0.00000025
vn 0.00000025 -1.00000000 -0.00000025
vn 0.00000038 -1.00000000 -0.00000038
vn 0.00000038 -1.00000000 -0.00000038
vn 0.65327890 0.38269160 -0.65327910
vn 0.65327920 0.38269170 -0.65327880
vn 0.70688460 0.02507279 -0.70688430
vn 0.65328140 0.38269670 -0.65327380
vn 0.70688470 0.02507286 -0.70688440
vn 0.70710690 0.00000000 -0.70710660
vn 0.70688560 0.02507277 -0.70688350
vn 0.70710750 0.00000000 -0.70710610
vn 0.70710690 0.00000000 -0.70710660
vn 0.70710800 0.00000000 -0.70710560
vn 0.70710800 0.00000000 -0.70710560
vn 0.00000000 -1.00000000 0.00000000
vn 0.00000000 -1.00000000 0.00000000
vn 0.00000022 -1.00000000 -0.00000020
vn 0.00000022 -1.00000000 -0.00000020
vn 0.00000040 -1.00000000 -0.00000037
vn 0.00000040 -1.00000000 -0.00000037
vn 0.70710340 0.00000000 0.70711020
vn 0.70709900 0.00000000 0.70711450
vn 0.70710530 0.00000000 0.70710820
vn 0.70710250 0.00000000 0.70711100
vn 0.70711160 0.00000000 0.70710190
vn 0.70710380 -0.00000075 0.70710970
vn 0.70710180 0.00000000 0.70711170
vn 0.70710210 -0.00000019 0.70711140
vn 0.70709960 -0.00000671 0.70711390
vn 0.70710060 -0.00000072 0.70711290
vn 0.70709790 -0.00000277 0.70711560
vn 0.70710890 -0.00000642 0.70710470
vn 0.70709630 0.00000117 0.70711720
vn 0.70710800 -0.00000029 0.70710550
vn 0.70710160 0.00000350 0.70711190
vn 0.70710700 0.00000584 0.70710650
vn -0.70710770 0.00000000 -0.70710590
vn -0.70709840 0.00000000 -0.70711520
vn -0.70709840 0.00000000 -0.70711510
vn -0.70710770 0.00000000 -0.70710590
vn -0.70711700 0.00000000 -0.70709660
vn -0.70711690 0.00000000 -0.70709660
vn 0.00000000 1.00000000 0.00000000
vn 0.00000000 1.00000000 0.00000025
vn 0.00000000 1.00000000 0.00000212
vn 0.00000000 1.00000000 -0.00000162
vn 0.00000000 1.00000000 0.00000106
vn 0.00000000 1.00000000 -0.00000081
vn 0.00000000 1.00000000 0.00000000
vn 0.00000000 1.00000000 0.00000000
vn 0.00000000 1.00000000 0.00000000
vn 0.00000000 1.00000000 0.00000000
vn 0.00000000 1.00000000 0.00000000
vn 0.00000000 1.00000000 0.00000000
vn 0.00000000 1.00000000 0.00000000
vn 0.00000000 1.00000000 0.00000000
vn 0.00000000 1.00000000 -0.00000015
vn 0.00000000 1.00000000 0.00000000
vn 0.00000000 1.00000000 0.00000000
vn 0.00000000 -1.00000000 0.00000000
vn 0.00000000 -1.00000000 -0.00000090
vn 0.00000000 -1.00000000 -0.00000025
vn 0.00000000 -1.00000000 -0.00000045
vn 0.00000000 -1.00000000 -0.00000179
vn 0.00000000 -1.00000000 -0.00000090
vn 0.00000000 -1.00000000 -0.00000056
vn 0.00000000 -1.00000000 0.00000045
vn 0.00000000 -1.00000000 0.00000067
vn 0.00000000 -1.00000000 0.00000179
vn 0.00000000 -1.00000000 -0.00000056
vn 0.00000000 -1.00000000 0.00000090
vn 0.00000000 -1.00000000 -0.00000179
vn 0.00000000 -1.00000000 0.00000000
vn 0.00000000 -1.00000000 -0.00000090
vn 0.00000000 -1.00000000 0.00000000
vn 0.00000000 -1.00000000 0.00000000
vn 0.00000000 1.00000000 0.00000069
vn 0.00000000 1.00000000 0.00000069
vn 0.00000000 1.00000000 -0.00000041
vn 0.00000000 1.00000000 -0.00000041
vn 0.00000000 1.00000000 0.00000092
vn 0.00000000 1.00000000 0.00000000
vn 0.00000000 1.00000000 0.00000092
vn 0.00000000 1.00000000 0.00000000
vn 0.00000000 1.00000000 -0.00000072
vn 0.00000000 1.00000000 0.00000000
vn 0.00000000 1.00000000 -0.00000072
vn 0.00000000 1.00000000 0.00000000
vn 0.00000000 1.00000000 -0.00000014
vn 0.00000000 1.00000000 -0.00000041
vn 0.00000000 1.00000000 -0.00000014
vn 0.00000000 1.00000000 -0.00000041
vn 0.00000000 1.00000000 0.00000096
vn 0.00000000 1.00000000 0.00000075
vn 0.00000000 1.00000000 0.00000096
vn 0.00000000 1.00000000 0.00000075
vn 0.00000000 1.00000000 0.00000027
vn 0.00000000 1.00000000 0.00000082
vn 0.00000000 1.00000000 0.00000027
vn 0.00000000 1.00000000 0.00000082
vn 0.00000000 1.00000000 0.00000000
vn 0.00000000 1.00000000 -0.00000042
vn 0.00000000 1.00000000 0.00000000
vn 0.00000000 1.00000000 -0.00000042
vn 0.00000000 1.00000000 -0.00000041
vn 0.00000000 1.00000000 -0.00000075
vn 0.00000000 1.00000000 -0.00000041
vn 0.00000000 1.00000000 -0.00000075
vt -19.58645000 0.71008770
vt -19.55856000 0.84493550
vt -19.55856000 0.71008770
vt -19.04328000 0.41644630
vt -19.10214000 0.42282700
vt -19.04328000 0.42282740
vt -19.10214000 0.41644730
vt -19.88460000 0.42282720
vt -19.04328000 0.40689780
vt -19.88460000 0.41644610
vt -19.10214000 0.40689880
vt -19.88460000 0.40689900
vt -19.04328000 0.39563550
vt -19.10214000 0.39563520
vt -19.88460000 0.39563540
vt -19.10214000 0.31756630
vt -19.88460000 0.31756650
vt -19.04328000 0.31756530
vt -19.10214000 0.29995760
vt -19.04328000 0.29995670
vt -19.04328000 0.44535090
vt -19.10214000 0.45173030
vt -19.04328000 0.45173060
vt -19.10214000 0.44535060
vt -19.88460000 0.45173060
vt -19.04328000 0.43408730
vt -19.88460000 0.44535080
vt -19.10214000 0.43408830
vt -19.88460000 0.43408710
vt -19.17957000 0.84723430
vt -19.23664000 0.84723430
vt -19.23664000 0.87577130
vt -19.17957000 0.87577130
vt -19.23664000 0.90430910
vt -19.17957000 0.90430910
vt -19.88460000 0.46127680
vt -19.10214000 0.46127640
vt -19.88460000 0.47254040
vt -19.04328000 0.46127680
vt -19.10214000 0.47254010
vt -19.88460000 0.55060920
vt -19.04328000 0.47254040
vt -19.04328000 0.55060940
vt -19.10214000 0.55060900
vt -19.04328000 0.56821800
vt -19.10214000 0.56821760
vt -19.12305000 0.59366060
vt -19.12305000 -0.16507230
vt -19.15159000 -0.16507230
vt -19.15159000 0.59366060
vt -19.18012000 -0.16507230
vt -19.18012000 0.59366060
vt -19.46802000 0.73335030
vt -19.46802000 0.71627660
vt -19.49655000 0.71627660
vt -19.49655000 0.73335030
vt -19.52509000 0.71627660
vt -19.46802000 0.80905410
vt -19.52509000 0.73335030
vt -19.49655000 0.80905410
vt -19.47019000 0.81997450
vt -19.52509000 0.80905410
vt -19.47638000 0.82923240
vt -19.52292000 0.81997450
vt -19.48563000 0.83541800
vt -19.51673000 0.82923240
vt -19.49655000 0.83759040
vt -19.50747000 0.83541800
vt -19.18886000 0.87577140
vt -19.17179000 0.84723610
vt -19.18886000 0.84723610
vt -19.17179000 0.87577140
vt -19.18886000 0.90430710
vt -19.17179000 0.90430710
vt -19.04328000 0.42676110
vt -19.10214000 0.43631170
vt -19.04328000 0.43631180
vt -19.10214000 0.42676230
vt -19.88460000 0.43631190
vt -19.04328000 0.42038370
vt -19.88460000 0.42676110
vt -19.10214000 0.42038350
vt -19.88460000 0.42038370
vt -19.04328000 0.40912230
vt -19.10214000 0.40912220
vt -19.88460000 0.40912240
vt -19.10214000 0.33105100
vt -19.88460000 0.33105120
vt -19.04328000 0.33105120
vt -19.10214000 0.31344230
vt -19.04328000 0.31344250
vt -19.04328000 0.45883320
vt -19.10214000 0.46838370
vt -19.04328000 0.46838390
vt -19.10214000 0.45883430
vt -19.88460000 0.46838400
vt -19.04328000 0.44757320
vt -19.88460000 0.45883320
vt -19.10214000 0.44757300
vt -19.88460000 0.44757320
vt -19.18012000 0.90430840
vt -19.12305000 0.90430840
vt -19.12305000 0.87577210
vt -19.18012000 0.87577210
vt -19.12305000 0.84723510
vt -19.18012000 0.84723510
vt -19.88460000 0.47476150
vt -19.10214000 0.47476240
vt -19.88460000 0.48602290
vt -19.04328000 0.47476260
vt -19.10214000 0.48602240
vt -19.88459000 0.56409410
vt -19.04328000 0.48602260
vt -19.04328000 0.56409510
vt -19.10214000 0.56409490
vt -19.04328000 0.58170380
vt -19.10214000 0.58170350
vt -19.08407000 0.59366090
vt -19.08407000 -0.16507270
vt -19.11261000 -0.16507270
vt -19.11261000 0.59366090
vt -19.14115000 -0.16507270
vt -19.14115000 0.59366090
vt -19.42904000 0.73334990
vt -19.42904000 0.71627590
vt -19.45757000 0.71627590
vt -19.45757000 0.73334990
vt -19.48611000 0.71627590
vt -19.42904000 0.80905470
vt -19.48611000 0.73334990
vt -19.45757000 0.80905470
vt -19.43121000 0.81997520
vt -19.48611000 0.80905470
vt -19.43740000 0.82923330
vt -19.48394000 0.81997520
vt -19.44665000 0.83541900
vt -19.47775000 0.82923330
vt -19.45757000 0.83759130
vt -19.46849000 0.83541900
vt -19.11527000 0.84383140
vt -19.13234000 0.87236680
vt -19.11527000 0.87236680
vt -19.13234000 0.84383140
vt -19.11527000 0.81529520
vt -19.13234000 0.81529520
vt -20.19189000 0.71500840
vt -19.25070000 0.69575620
vt -20.19189000 0.69575630
vt -19.25070000 0.71500830
vt -20.19189000 0.72591330
vt -19.25070000 0.72591320
vt -20.19189000 0.74223580
vt -19.25070000 0.74223580
vt -20.19189000 0.76148690
vt -19.25070000 0.76148680
vt -20.19189000 0.95868020
vt -19.25070000 0.95868000
vt -19.25070000 0.93942890
vt -20.19189000 0.93942900
vt -19.25070000 0.92852310
vt -20.19189000 0.92852320
vt -19.25070000 0.91220050
vt -20.19189000 0.91220060
vt -19.25070000 0.89295170
vt -20.19189000 0.89295040
vt -19.25070000 0.87369600
vt -20.19189000 0.87369610
vt -19.25070000 0.85737670
vt -20.19189000 0.85737680
vt -19.25070000 0.84647090
vt -20.19189000 0.84647100
vt -19.25070000 0.82721750
vt -20.19189000 0.82721760
vt -19.25070000 0.80796770
vt -20.19189000 0.80796780
vt -19.25070000 0.79706050
vt -20.19189000 0.79706050
vt -19.25070000 0.78074030
vt -20.19189000 0.78074030
vt -19.58645000 0.84493550
vt -19.60225000 0.71008770
vt -19.60225000 0.84493550
vt -19.62589000 0.71008770
vt -19.62589000 0.84493550
vt -19.65377000 0.71008770
vt -19.65377000 0.84493550
vt -19.93941000 0.71008770
vt -19.93941000 0.84493550
vt -19.91152000 0.84493550
vt -19.91152000 0.71008770
vt -19.89572000 0.84493550
vt -19.89572000 0.71008770
vt -19.87208000 0.84493550
vt -19.87208000 0.71008770
vt -19.84419000 0.84493550
vt -19.84419000 0.71008770
vt -19.81631000 0.84493550
vt -19.81631000 0.71008770
vt -19.79267000 0.84493550
vt -19.79267000 0.71008770
vt -19.77687000 0.84493550
vt -19.77687000 0.71008770
vt -19.74898000 0.84493550
vt -19.74898000 0.71008770
vt -19.72110000 0.84493550
vt -19.72110000 0.71008770
vt -19.70530000 0.84493550
vt -19.70530000 0.71008770
vt -19.68166000 0.84493550
vt -19.68166000 0.71008770
vt -19.72103000 0.14164490
vt -18.95301000 0.14164480
vt -18.95301000 0.12746730
vt -19.72103000 0.12746750
vt -18.95301000 0.10625310
vt -19.72103000 0.10625320
vt -18.95301000 0.08122900
vt -19.72103000 0.08122912
vt -18.95301000 0.05620721
vt -19.72103000 0.05620733
vt -18.95301000 0.03499296
vt -19.72103000 0.03499302
vt -19.72103000 0.16666660
vt -18.95301000 0.16666660
vt -19.72103000 -0.15005400
vt -18.95301000 -0.17507820
vt -19.72103000 -0.17507810
vt -18.95301000 -0.15005410
vt -19.72103000 -0.13587890
vt -18.95301000 -0.13587900
vt -19.72103000 -0.11466460
vt -18.95301000 -0.11466470
vt -19.72103000 -0.08964050
vt -18.95301000 -0.08964059
vt -19.72103000 -0.06461641
vt -18.95301000 -0.06461650
vt -19.72103000 -0.04340443
vt -18.95301000 -0.04340455
vt -19.72103000 -0.02922931
vt -18.95301000 -0.02922943
vt -19.72103000 -0.00420520
vt -18.95301000 -0.00420394
vt -19.72103000 0.02082023
vt -18.95301000 0.02082014
vt -19.71257000 0.79023020
vt -19.71765000 0.76471470
vt -19.73210000 0.74308360
vt -19.77925000 0.79023020
vt -19.71765000 0.81574490
vt -19.73210000 0.83737550
vt -19.75373000 0.85182930
vt -19.77925000 0.85690520
vt -19.77925000 0.72355480
vt -19.75373000 0.72863020
vt -19.82639000 0.83737550
vt -19.80476000 0.85182930
vt -19.82639000 0.74308360
vt -19.80476000 0.72863020
vt -19.84592000 0.79023020
vt -19.84085000 0.81574490
vt -19.84085000 0.76471470
vt -19.04328000 0.21000300
vt -19.10214000 0.21638260
vt -19.04328000 0.21638270
vt -19.10214000 0.21000290
vt -19.88460000 0.21637950
vt -19.04328000 0.20045690
vt -19.88460000 0.21000080
vt -19.10214000 0.20045680
vt -19.88460000 0.20045230
vt -19.04328000 0.18919560
vt -19.10214000 0.18919540
vt -19.88460000 0.18919230
vt -19.10214000 0.11112220
vt -19.88459000 0.11111990
vt -19.04328000 0.11112460
vt -19.10214000 0.09351581
vt -19.04328000 0.09351599
vt -19.04328000 0.23890630
vt -19.10214000 0.24528700
vt -19.04328000 0.24528730
vt -19.10214000 0.23890750
vt -19.88460000 0.24528280
vt -19.04328000 0.22764630
vt -19.88460000 0.23890530
vt -19.10214000 0.22764620
vt -19.88460000 0.22764170
vt -19.12361000 0.87236790
vt -19.06653000 0.87236790
vt -19.06653000 0.84383100
vt -19.12361000 0.84383100
vt -19.06653000 0.81529360
vt -19.12361000 0.81529360
vt -19.88460000 0.25483120
vt -19.10214000 0.25483310
vt -19.88460000 0.26609250
vt -19.04328000 0.25483350
vt -19.10214000 0.26609670
vt -19.88460000 0.34416590
vt -19.04328000 0.26609800
vt -19.04328000 0.34416810
vt -19.10214000 0.34416770
vt -19.04328000 0.36177680
vt -19.10214000 0.36177640
vt -19.10217000 -0.16507220
vt -19.10217000 0.59366040
vt -19.07363000 0.59366040
vt -19.07363000 -0.16507220
vt -19.04509000 0.59366040
vt -19.04509000 -0.16507220
vt -19.44713000 0.82051750
vt -19.44713000 0.83759130
vt -19.41859000 0.83759130
vt -19.41859000 0.82051750
vt -19.39006000 0.83759130
vt -19.44713000 0.74481260
vt -19.39006000 0.82051750
vt -19.41859000 0.74481260
vt -19.44496000 0.73389190
vt -19.39006000 0.74481260
vt -19.43877000 0.72463410
vt -19.39223000 0.73389190
vt -19.42952000 0.71844790
vt -19.39842000 0.72463410
vt -19.41859000 0.71627590
vt -19.40767000 0.71844790
vt -19.05875000 0.84383130
vt -19.07582000 0.87236950
vt -19.05875000 0.87236950
vt -19.07582000 0.84383130
vt -19.05875000 0.81529290
vt -19.07582000 0.81529290
vt -19.88460000 0.03376810
vt -19.82574000 0.02421744
vt -19.88460000 0.02421734
vt -19.82574000 0.03376827
vt -19.04328000 0.02421734
vt -19.88460000 0.04014561
vt -19.04328000 0.03376815
vt -19.82574000 0.04014575
vt -19.04328000 0.04014531
vt -19.88460000 0.05140698
vt -19.82574000 0.05140713
vt -19.04328000 0.05140634
vt -19.82574000 0.12947840
vt -19.04328000 0.12947890
vt -19.88460000 0.12947820
vt -19.82574000 0.14708700
vt -19.88460000 0.14708680
vt -19.88460000 0.00169604
vt -19.82574000 -0.00785463
vt -19.88460000 -0.00785473
vt -19.82574000 0.00169620
vt -19.04328000 -0.00785473
vt -19.88460000 0.01295599
vt -19.04328000 0.00169608
vt -19.82574000 0.01295617
vt -19.04328000 0.01295602
vt -19.01001000 0.81529450
vt -19.06709000 0.81529450
vt -19.06709000 0.84383110
vt -19.01001000 0.84383110
vt -19.06709000 0.87236770
vt -19.01001000 0.87236770
vt -19.04328000 -0.01423216
vt -19.82574000 -0.01423201
vt -19.04328000 -0.02549350
vt -19.88460000 -0.01423219
vt -19.82574000 -0.02549332
vt -19.04328000 -0.10356460
vt -19.88460000 -0.02549347
vt -19.88460000 -0.10356470
vt -19.82574000 -0.10356450
vt -19.88460000 -0.12117330
vt -19.82574000 -0.12117450
vt -19.06319000 -0.16507280
vt -19.06319000 0.59366120
vt -19.03465000 0.59366120
vt -19.03465000 -0.16507280
vt -19.00611000 0.59366120
vt -19.00611000 -0.16507280
vt -19.35108000 0.73335060
vt -19.35108000 0.71627690
vt -19.37962000 0.71627690
vt -19.37962000 0.73335060
vt -19.40815000 0.71627690
vt -19.35108000 0.80905430
vt -19.40815000 0.73335060
vt -19.37962000 0.80905430
vt -19.35325000 0.81997450
vt -19.40815000 0.80905430
vt -19.35944000 0.82923250
vt -19.40598000 0.81997450
vt -19.36870000 0.83541810
vt -19.39979000 0.82923250
vt -19.37962000 0.83759030
vt -19.39054000 0.83541810
vt -19.00223000 0.84383120
vt -19.01930000 0.87236700
vt -19.00223000 0.87236700
vt -19.01930000 0.84383120
vt -19.00223000 0.81529550
vt -19.01930000 0.81529550
vt -19.18778000 0.14247620
vt -19.14548000 0.10017190
vt -19.16488000 0.08720121
vt -19.13251000 0.11958060
vt -19.18778000 0.08264816
vt -19.12795000 0.14247660
vt -19.21067000 0.08720121
vt -19.13250000 0.16537190
vt -19.23009000 0.10017110
vt -19.14547000 0.18478150
vt -19.24306000 0.11958090
vt -19.16488000 0.19775130
vt -19.24761000 0.14247600
vt -19.18778000 0.20230430
vt -19.24305000 0.16537230
vt -19.21067000 0.19775130
vt -19.23009000 0.18478080
vt -19.23803000 0.05852365
vt -19.24153000 0.07613882
vt -19.19550000 0.07613808
vt -19.22805000 0.04359147
vt -19.23803000 0.09375432
vt -19.21312000 0.03361207
vt -19.22805000 0.10868760
vt -19.19550000 0.03010657
vt -19.21312000 0.11866420
vt -19.17789000 0.03361201
vt -19.19550000 0.12217090
vt -19.16295000 0.04359177
vt -19.17789000 0.11866540
vt -19.15297000 0.05852368
vt -19.16295000 0.10868790
vt -19.14947000 0.07613802
vt -19.15297000 0.09375438
vt -19.81879000 0.83253590
vt -19.81396000 0.83737660
vt -19.79950000 0.81574540
vt -19.80583000 0.81312560
vt -19.83821000 0.84550570
vt -19.79443000 0.79022980
vt -19.83559000 0.85183000
vt -19.80127000 0.79022980
vt -19.86110000 0.85005970
vt -19.79950000 0.76471500
vt -19.86110000 0.85690550
vt -19.80583000 0.76733390
vt -19.88400000 0.84550570
vt -19.81396000 0.74308430
vt -19.88662000 0.85183000
vt -19.81880000 0.74792410
vt -19.90341000 0.83253590
vt -19.83559000 0.72863040
vt -19.90825000 0.83737660
vt -19.83821000 0.73495470
vt -19.91638000 0.81312560
vt -19.86110000 0.72355450
vt -19.92270000 0.81574540
vt -19.86110000 0.73040030
vt -19.92093000 0.79022980
vt -19.88662000 0.72863040
vt -19.92778000 0.79022980
vt -19.88400000 0.73495470
vt -19.91638000 0.76733390
vt -19.90825000 0.74308430
vt -19.92270000 0.76471500
vt -19.90341000 0.74792410
f 3/3/3 2/2/2 1/1/1
f 6/6/6 5/5/5 4/4/4
f 5/5/5 7/7/7 4/4/4
f 5/5/5 8/8/8 7/7/7
f 4/4/4 7/7/7 9/9/9
f 8/8/8 10/10/10 7/7/7
f 7/7/7 11/11/11 9/9/9
f 7/7/7 10/10/10 11/11/11
f 10/10/10 12/12/12 11/11/11
f 9/9/9 11/11/11 13/13/13
f 11/11/11 12/12/12 14/14/14
f 11/11/11 14/14/14 13/13/13
f 12/12/12 15/15/15 14/14/14
f 14/14/14 16/16/16 13/13/13
f 14/14/14 15/15/15 16/16/16
f 15/15/15 17/17/17 16/16/16
f 16/16/16 18/18/18 13/13/13
f 16/16/16 19/19/19 18/18/18
f 19/19/19 20/20/20 18/18/18
f 23/23/23 22/22/22 21/21/21
f 22/22/22 24/24/24 21/21/21
f 22/22/22 25/25/25 24/24/24
f 21/21/21 24/24/24 26/26/26
f 25/25/25 27/27/27 24/24/24
f 24/24/24 28/28/28 26/26/26
f 24/24/24 27/27/27 28/28/28
f 26/26/26 28/28/28 6/6/6
f 27/27/27 29/29/29 28/28/28
f 28/28/28 5/5/5 6/6/6
f 28/28/28 29/29/29 5/5/5
f 29/29/29 8/8/8 5/5/5
f 32/32/32 31/31/31 30/30/30
f 33/33/33 32/32/32 30/30/30
f 34/34/34 32/32/32 33/33/33
f 35/35/35 34/34/34 33/33/33
f 36/36/36 25/25/25 22/22/22
f 37/37/37 36/36/36 22/22/22
f 37/37/37 22/22/22 23/23/23
f 38/38/38 36/36/36 37/37/37
f 39/39/39 37/37/37 23/23/23
f 40/40/40 38/38/38 37/37/37
f 40/40/40 37/37/37 39/39/39
f 41/41/41 38/38/38 40/40/40
f 42/42/42 40/40/40 39/39/39
f 42/42/42 43/43/43 40/40/40
f 44/44/44 41/41/41 40/40/40
f 43/43/43 44/44/44 40/40/40
f 43/43/43 45/45/45 44/44/44
f 45/45/45 46/46/46 44/44/44
f 49/49/49 48/48/48 47/47/47
f 50/50/50 49/49/49 47/47/47
f 51/51/51 49/49/49 50/50/50
f 52/52/52 51/51/51 50/50/50
f 55/55/55 54/54/54 53/53/53
f 56/56/56 55/55/55 53/53/53
f 57/57/57 55/55/55 56/56/56
f 56/56/56 53/53/53 58/58/58
f 59/59/59 57/57/57 56/56/56
f 60/60/60 56/56/56 58/58/58
f 59/59/59 56/56/56 60/60/60
f 60/60/60 58/58/58 61/61/61
f 62/62/62 59/59/59 60/60/60
f 63/63/63 60/60/60 61/61/61
f 62/62/62 60/60/60 64/64/64
f 60/60/60 63/63/63 65/65/65
f 60/60/60 66/66/66 64/64/64
f 67/67/67 60/60/60 65/65/65
f 66/66/66 60/60/60 68/68/68
f 60/60/60 67/67/67 68/68/68
f 71/71/71 70/70/70 69/69/69
f 70/70/70 72/72/72 69/69/69
f 69/69/69 72/72/72 73/73/73
f 72/72/72 74/74/74 73/73/73
f 77/77/77 76/76/76 75/75/75
f 76/76/76 78/78/78 75/75/75
f 76/76/76 79/79/79 78/78/78
f 75/75/75 78/78/78 80/80/80
f 79/79/79 81/81/81 78/78/78
f 78/78/78 82/82/82 80/80/80
f 78/78/78 81/81/81 82/82/82
f 81/81/81 83/83/83 82/82/82
f 80/80/80 82/82/82 84/84/84
f 82/82/82 83/83/83 85/85/85
f 82/82/82 85/85/85 84/84/84
f 83/83/83 86/86/86 85/85/85
f 85/85/85 87/87/87 84/84/84
f 85/85/85 86/86/86 87/87/87
f 86/86/86 88/88/88 87/87/87
f 87/87/87 89/89/89 84/84/84
f 87/87/87 90/90/90 89/89/89
f 90/90/90 91/91/91 89/89/89
f 94/94/94 93/93/93 92/92/92
f 93/93/93 95/95/95 92/92/92
f 93/93/93 96/96/96 95/95/95
f 92/92/92 95/95/95 97/97/97
f 96/96/96 98/98/98 95/95/95
f 95/95/95 99/99/99 97/97/97
f 95/95/95 98/98/98 99/99/99
f 97/97/97 99/99/99 77/77/77
f 98/98/98 100/100/100 99/99/99
f 99/99/99 76/76/76 77/77/77
f 99/99/99 100/100/100 76/76/76
f 100/100/100 79/79/79 76/76/76
f 103/103/103 102/102/102 101/101/101
f 104/104/104 103/103/103 101/101/101
f 105/105/105 103/103/103 104/104/104
f 106/106/106 105/105/105 104/104/104
f 107/107/107 96/96/96 93/93/93
f 108/108/108 107/107/107 93/93/93
f 108/108/108 93/93/93 94/94/94
f 109/109/109 107/107/107 108/108/108
f 110/110/110 108/108/108 94/94/94
f 111/111/111 109/109/109 108/108/108
f 111/111/111 108/108/108 110/110/110
f 112/112/112 109/109/109 111/111/111
f 113/113/113 111/111/111 110/110/110
f 113/113/113 114/114/114 111/111/111
f 115/115/115 112/112/112 111/111/111
f 114/114/114 115/115/115 111/111/111
f 114/114/114 116/116/116 115/115/115
f 116/116/116 117/117/117 115/115/115
f 120/120/120 119/119/119 118/118/118
f 121/121/121 120/120/120 118/118/118
f 122/122/122 120/120/120 121/121/121
f 123/123/123 122/122/122 121/121/121
f 126/126/126 125/125/125 124/124/124
f 127/127/127 126/126/126 124/124/124
f 128/128/128 126/126/126 127/127/127
f 127/127/127 124/124/124 129/129/129
f 130/130/130 128/128/128 127/127/127
f 131/131/131 127/127/127 129/129/129
f 130/130/130 127/127/127 131/131/131
f 131/131/131 129/129/129 132/132/132
f 133/133/133 130/130/130 131/131/131
f 134/134/134 131/131/131 132/132/132
f 133/133/133 131/131/131 135/135/135
f 131/131/131 134/134/134 136/136/136
f 131/131/131 137/137/137 135/135/135
f 138/138/138 131/131/131 136/136/136
f 137/137/137 131/131/131 139/139/139
f 131/131/131 138/138/138 139/139/139
f 142/142/142 141/141/141 140/140/140
f 141/141/141 143/143/143 140/140/140
f 140/140/140 143/143/143 144/144/144
f 143/143/143 145/145/145 144/144/144
f 148/148/148 147/147/147 146/146/146
f 147/147/147 149/149/149 146/146/146
f 146/146/146 149/149/149 150/150/150
f 149/149/149 151/151/151 150/150/150
f 150/150/150 151/151/151 152/152/152
f 151/151/151 153/153/153 152/152/152
f 152/152/152 153/153/153 154/154/154
f 153/153/153 155/155/155 154/154/154
f 158/158/158 157/157/157 156/156/156
f 159/159/159 158/158/158 156/156/156
f 160/160/160 158/158/158 159/159/159
f 161/161/161 160/160/160 159/159/159
f 162/162/162 160/160/160 161/161/161
f 163/163/163 162/162/162 161/161/161
f 164/164/164 162/162/162 163/163/163
f 165/165/165 164/164/164 163/163/163
f 166/166/166 164/164/164 165/165/165
f 167/167/167 166/166/166 165/165/165
f 168/168/168 166/166/166 167/167/167
f 169/169/169 168/168/168 167/167/167
f 170/170/170 168/168/168 169/169/169
f 171/171/171 170/170/170 169/169/169
f 172/172/172 170/170/170 171/171/171
f 173/173/173 172/172/172 171/171/171
f 174/174/174 172/172/172 173/173/173
f 175/175/175 174/174/174 173/173/173
f 176/176/176 174/174/174 175/175/175
f 177/177/177 176/176/176 175/175/175
f 178/178/178 176/176/176 177/177/177
f 179/179/179 178/178/178 177/177/177
f 155/155/155 178/178/178 179/179/179
f 154/154/154 155/155/155 179/179/179
f 2/2/2 180/180/180 1/1/1
f 1/1/1 180/180/180 181/181/181
f 180/180/180 182/182/182 181/181/181
f 181/181/181 182/182/182 183/183/183
f 182/182/182 184/184/184 183/183/183
f 183/183/183 184/184/184 185/185/185
f 184/184/184 186/186/186 185/185/185
f 189/189/189 188/188/188 187/187/187
f 190/190/190 189/189/189 187/187/187
f 191/191/191 189/189/189 190/190/190
f 192/192/192 191/191/191 190/190/190
f 193/193/193 191/191/191 192/192/192
f 194/194/194 193/193/193 192/192/192
f 195/195/195 193/193/193 194/194/194
f 196/196/196 195/195/195 194/194/194
f 197/197/197 195/195/195 196/196/196
f 198/198/198 197/197/197 196/196/196
f 199/199/199 197/197/197 198/198/198
f 200/200/200 199/199/199 198/198/198
f 201/201/201 199/199/199 200/200/200
f 202/202/202 201/201/201 200/200/200
f 203/203/203 201/201/201 202/202/202
f 204/204/204 203/203/203 202/202/202
f 205/205/205 203/203/203 204/204/204
f 206/206/206 205/205/205 204/204/204
f 207/207/207 205/205/205 206/206/206
f 208/208/208 207/207/207 206/206/206
f 209/209/209 207/207/207 208/208/208
f 210/210/210 209/209/209 208/208/208
f 186/186/186 209/209/209 210/210/210
f 185/185/185 186/186/186 210/210/210
f 213/213/213 212/212/212 211/211/211
f 214/214/214 213/213/213 211/211/211
f 215/215/215 213/213/213 214/214/214
f 216/216/216 215/215/215 214/214/214
f 217/217/217 215/215/215 216/216/216
f 218/218/218 217/217/217 216/216/216
f 219/219/219 217/217/217 218/218/218
f 220/220/220 219/219/219 218/218/218
f 221/221/221 219/219/219 220/220/220
f 222/222/222 221/221/221 220/220/220
f 212/212/212 224/224/224 223/223/223
f 211/211/211 212/212/212 223/223/223
f 227/227/227 226/226/226 225/225/225
f 226/226/226 228/228/228 225/225/225
f 225/225/225 228/228/228 229/229/229
f 228/228/228 230/230/230 229/229/229
f 229/229/229 230/230/230 231/231/231
f 230/230/230 232/232/232 231/231/231
f 231/231/231 232/232/232 233/233/233
f 232/232/232 234/234/234 233/233/233
f 233/233/233 234/234/234 235/235/235
f 234/234/234 236/236/236 235/235/235
f 235/235/235 236/236/236 237/237/237
f 236/236/236 238/238/238 237/237/237
f 237/237/237 238/238/238 239/239/239
f 238/238/238 240/240/240 239/239/239
f 239/239/239 240/240/240 241/241/241
f 240/240/240 242/242/242 241/241/241
f 241/241/241 242/242/242 243/243/243
f 242/242/242 244/244/244 243/243/243
f 243/243/243 244/244/244 222/222/222
f 244/244/244 221/221/221 222/222/222
f 247/247/247 246/246/246 245/245/245
f 248/248/248 247/247/247 245/245/245
f 248/248/248 245/245/245 249/249/249
f 250/250/250 248/248/248 249/249/249
f 250/250/250 251/251/251 248/248/248
f 251/251/251 252/252/252 248/248/248
f 248/248/248 253/253/253 247/247/247
f 253/253/253 254/254/254 247/247/247
f 248/248/248 252/252/252 255/255/255
f 252/252/252 256/256/256 255/255/255
f 248/248/248 257/257/257 253/253/253
f 257/257/257 258/258/258 253/253/253
f 248/248/248 255/255/255 259/259/259
f 248/248/248 259/259/259 257/257/257
f 255/255/255 260/260/260 259/259/259
f 259/259/259 261/261/261 257/257/257
f 264/264/264 263/263/263 262/262/262
f 263/263/263 265/265/265 262/262/262
f 263/263/263 266/266/266 265/265/265
f 262/262/262 265/265/265 267/267/267
f 266/266/266 268/268/268 265/265/265
f 265/265/265 269/269/269 267/267/267
f 265/265/265 268/268/268 269/269/269
f 268/268/268 270/270/270 269/269/269
f 267/267/267 269/269/269 271/271/271
f 269/269/269 270/270/270 272/272/272
f 269/269/269 272/272/272 271/271/271
f 270/270/270 273/273/273 272/272/272
f 272/272/272 274/274/274 271/271/271
f 272/272/272 273/273/273 274/274/274
f 273/273/273 275/275/275 274/274/274
f 274/274/274 276/276/276 271/271/271
f 274/274/274 277/277/277 276/276/276
f 277/277/277 278/278/278 276/276/276
f 281/281/281 280/280/280 279/279/279
f 280/280/280 282/282/282 279/279/279
f 280/280/280 283/283/283 282/282/282
f 279/279/279 282/282/282 284/284/284
f 283/283/283 285/285/285 282/282/282
f 282/282/282 286/286/286 284/284/284
f 282/282/282 285/285/285 286/286/286
f 284/284/284 286/286/286 264/264/264
f 285/285/285 287/287/287 286/286/286
f 286/286/286 263/263/263 264/264/264
f 286/286/286 287/287/287 263/263/263
f 287/287/287 266/266/266 263/263/263
f 290/290/290 289/289/289 288/288/288
f 291/291/291 290/290/290 288/288/288
f 292/292/292 290/290/290 291/291/291
f 293/293/293 292/292/292 291/291/291
f 294/294/294 283/283/283 280/280/280
f 295/295/295 294/294/294 280/280/280
f 295/295/295 280/280/280 281/281/281
f 296/296/296 294/294/294 295/295/295
f 297/297/297 295/295/295 281/281/281
f 298/298/298 296/296/296 295/295/295
f 298/298/298 295/295/295 297/297/297
f 299/299/299 296/296/296 298/298/298
f 300/300/300 298/298/298 297/297/297
f 300/300/300 301/301/301 298/298/298
f 302/302/302 299/299/299 298/298/298
f 301/301/301 302/302/302 298/298/298
f 301/301/301 303/303/303 302/302/302
f 303/303/303 304/304/304 302/302/302
f 307/307/307 306/306/306 305/305/305
f 308/308/308 307/307/307 305/305/305
f 309/309/309 307/307/307 308/308/308
f 310/310/310 309/309/309 308/308/308
f 313/313/313 312/312/312 311/311/311
f 314/314/314 313/313/313 311/311/311
f 315/315/315 313/313/313 314/314/314
f 314/314/314 311/311/311 316/316/316
f 317/317/317 315/315/315 314/314/314
f 318/318/318 314/314/314 316/316/316
f 317/317/317 314/314/314 318/318/318
f 318/318/318 316/316/316 319/319/319
f 320/320/320 317/317/317 318/318/318
f 321/321/321 318/318/318 319/319/319
f 320/320/320 318/318/318 322/322/322
f 318/318/318 321/321/321 323/323/323
f 318/318/318 324/324/324 322/322/322
f 325/325/325 318/318/318 323/323/323
f 324/324/324 318/318/318 326/326/326
f 318/318/318 325/325/325 326/326/326
f 329/329/329 328/328/328 327/327/327
f 328/328/328 330/330/330 327/327/327
f 327/327/327 330/330/330 331/331/331
f 330/330/330 332/332/332 331/331/331
f 335/335/335 334/334/334 333/333/333
f 334/334/334 336/336/336 333/333/333
f 334/334/334 337/337/337 336/336/336
f 333/333/333 336/336/336 338/338/338
f 337/337/337 339/339/339 336/336/336
f 336/336/336 340/340/340 338/338/338
f 336/336/336 339/339/339 340/340/340
f 339/339/339 341/341/341 340/340/340
f 338/338/338 340/340/340 342/342/342
f 340/340/340 341/341/341 343/343/343
f 340/340/340 343/343/343 342/342/342
f 341/341/341 344/344/344 343/343/343
f 343/343/343 345/345/345 342/342/342
f 343/343/343 344/344/344 345/345/345
f 344/344/344 346/346/346 345/345/345
f 345/345/345 347/347/347 342/342/342
f 345/345/345 348/348/348 347/347/347
f 348/348/348 349/349/349 347/347/347
f 352/352/352 351/351/351 350/350/350
f 351/351/351 353/353/353 350/350/350
f 351/351/351 354/354/354 353/353/353
f 350/350/350 353/353/353 355/355/355
f 354/354/354 356/356/356 353/353/353
f 353/353/353 357/357/357 355/355/355
f 353/353/353 356/356/356 357/357/357
f 355/355/355 357/357/357 335/335/335
f 356/356/356 358/358/358 357/357/357
f 357/357/357 334/334/334 335/335/335
f 357/357/357 358/358/358 334/334/334
f 358/358/358 337/337/337 334/334/334
f 361/361/361 360/360/360 359/359/359
f 362/362/362 361/361/361 359/359/359
f 363/363/363 361/361/361 362/362/362
f 364/364/364 363/363/363 362/362/362
f 365/365/365 354/354/354 351/351/351
f 366/366/366 365/365/365 351/351/351
f 366/366/366 351/351/351 352/352/352
f 367/367/367 365/365/365 366/366/366
f 368/368/368 366/366/366 352/352/352
f 369/369/369 367/367/367 366/366/366
f 369/369/369 366/366/366 368/368/368
f 370/370/370 367/367/367 369/369/369
f 371/371/371 369/369/369 368/368/368
f 371/371/371 372/372/372 369/369/369
f 373/373/373 370/370/370 369/369/369
f 372/372/372 373/373/373 369/369/369
f 372/372/372 374/374/374 373/373/373
f 374/374/374 375/375/375 373/373/373
f 378/378/378 377/377/377 376/376/376
f 379/379/379 378/378/378 376/376/376
f 380/380/380 378/378/378 379/379/379
f 381/381/381 380/380/380 379/379/379
f 384/384/384 383/383/383 382/382/382
f 385/385/385 384/384/384 382/382/382
f 386/386/386 384/384/384 385/385/385
f 385/385/385 382/382/382 387/387/387
f 388/388/388 386/386/386 385/385/385
f 389/389/389 385/385/385 387/387/387
f 388/388/388 385/385/385 389/389/389
f 389/389/389 387/387/387 390/390/390
f 391/391/391 388/388/388 389/389/389
f 392/392/392 389/389/389 390/390/390
f 391/391/391 389/389/389 393/393/393
f 389/389/389 392/392/392 394/394/394
f 389/389/389 395/395/395 393/393/393
f 396/396/396 389/389/389 394/394/394
f 395/395/395 389/389/389 397/397/397
f 389/389/389 396/396/396 397/397/397
f 400/400/400 399/399/399 398/398/398
f 399/399/399 401/401/401 398/398/398
f 398/398/398 401/401/401 402/402/402
f 401/401/401 403/403/403 402/402/402
f 406/406/406 405/405/405 404/404/404
f 405/405/405 407/407/407 404/404/404
f 408/408/408 406/406/406 404/404/404
f 407/407/407 409/409/409 404/404/404
f 410/410/410 408/408/408 404/404/404
f 409/409/409 411/411/411 404/404/404
f 412/412/412 410/410/410 404/404/404
f 411/411/411 413/413/413 404/404/404
f 414/414/414 412/412/412 404/404/404
f 413/413/413 415/415/415 404/404/404
f 416/416/416 414/414/414 404/404/404
f 415/415/415 417/417/417 404/404/404
f 418/418/418 416/416/416 404/404/404
f 417/417/417 419/419/419 404/404/404
f 420/420/420 418/418/418 404/404/404
f 419/419/419 420/420/420 404/404/404
f 423/423/423 422/422/422 421/421/421
f 424/424/424 423/423/423 421/421/421
f 422/422/422 423/423/423 425/425/425
f 423/423/423 424/424/424 426/426/426
f 423/423/423 427/427/427 425/425/425
f 428/428/428 423/423/423 426/426/426
f 427/427/427 423/423/423 429/429/429
f 423/423/423 428/428/428 430/430/430
f 423/423/423 431/431/431 429/429/429
f 432/432/432 423/423/423 430/430/430
f 431/431/431 423/423/423 433/433/433
f 423/423/423 432/432/432 434/434/434
f 423/423/423 435/435/435 433/433/433
f 436/436/436 423/423/423 434/434/434
f 435/435/435 423/423/423 437/437/437
f 423/423/423 436/436/436 437/437/437
f 440/440/440 439/439/439 438/438/438
f 441/441/441 440/440/440 438/438/438
f 438/438/438 439/439/439 442/442/442
f 443/443/443 440/440/440 441/441/441
f 439/439/439 444/444/444 442/442/442
f 445/445/445 443/443/443 441/441/441
f 442/442/442 444/444/444 446/446/446
f 447/447/447 443/443/443 445/445/445
f 444/444/444 448/448/448 446/446/446
f 449/449/449 447/447/447 445/445/445
f 446/446/446 448/448/448 450/450/450
f 451/451/451 447/447/447 449/449/449
f 448/448/448 452/452/452 450/450/450
f 453/453/453 451/451/451 449/449/449
f 450/450/450 452/452/452 454/454/454
f 455/455/455 451/451/451 453/453/453
f 452/452/452 456/456/456 454/454/454
f 457/457/457 455/455/455 453/453/453
f 454/454/454 456/456/456 458/458/458
f 459/459/459 455/455/455 457/457/457
f 456/456/456 460/460/460 458/458/458
f 461/461/461 459/459/459 457/457/457
f 458/458/458 460/460/460 462/462/462
f 463/463/463 459/459/459 461/461/461
f 460/460/460 464/464/464 462/462/462
f 465/465/465 463/463/463 461/461/461
f 462/462/462 464/464/464 466/466/466
f 467/467/467 463/463/463 465/465/465
f 464/464/464 468/468/468 466/466/466
f 469/469/469 467/467/467 465/465/465
f 466/466/466 468/468/468 469/469/469
f 468/468/468 467/467/467 469/469/469

