# Blender 4.0.0
# www.blender.org
o decimated_mesh
v 0.000056 0.155445 0.002737
v -0.001000 0.155423 0.002045
v -0.005837 0.155126 0.002459
v -0.013156 0.152856 0.003160
v 0.000044 0.154465 0.003066
v 0.000087 0.154457 0.001643
v -0.015985 0.153735 0.002266
v -0.016337 0.153653 0.002614
v -0.034269 0.145186 0.003870
v 0.013171 0.152855 0.003160
v 0.002513 0.155333 0.002119
v 0.011818 0.152934 0.001679
v -0.012098 0.152976 0.001705
v -0.028109 0.149064 0.002418
v -0.032970 0.146671 0.002768
v -0.037104 0.143780 0.003897
v -0.020171 0.152364 0.002580
v 0.034279 0.145186 0.003870
v 0.016045 0.153731 0.002301
v 0.018735 0.151432 0.001785
v -0.032970 0.146671 0.002361
v -0.019229 0.152672 0.002206
v 0.037114 0.143780 0.003897
v 0.032688 0.146843 0.002770
v 0.020501 0.152290 0.002453
v 0.016407 0.153645 0.002608
v 0.005817 0.155128 0.002440
v 0.018789 0.152676 0.002123
v -0.046267 0.135886 0.003298
v -0.047050 0.136639 0.003851
v -0.054593 0.126521 0.005377
v -0.062675 0.111031 0.006727
v -0.065511 0.096832 0.008140
v 0.065521 0.096832 0.008140
v 0.064135 0.108046 0.006757
v 0.062685 0.111031 0.006727
v 0.032980 0.146671 0.002361
v 0.028355 0.148938 0.002376
v -0.052699 0.128122 0.003849
v -0.051106 0.131235 0.003795
v -0.057009 0.123875 0.005327
v -0.064170 0.107943 0.006748
v -0.058527 0.121322 0.005466
v -0.066928 0.091197 0.008133
v -0.065534 0.079910 0.009587
v -0.060884 0.063122 0.011091
v -0.046267 0.041912 0.012864
v 0.046277 0.041912 0.012864
v 0.060900 0.063123 0.011086
v 0.065562 0.079785 0.009589
v 0.066950 0.090987 0.008158
v 0.058537 0.121322 0.005466
v 0.057049 0.123831 0.005340
v 0.054486 0.126638 0.005372
v 0.047053 0.136647 0.003871
v 0.046277 0.135886 0.003298
v -0.061053 0.114471 0.005127
v -0.058758 0.120904 0.005085
v -0.065524 0.101326 0.006666
v -0.067046 0.089075 0.007935
v -0.067052 0.088660 0.008303
v -0.051076 0.046659 0.012428
v -0.032565 0.030963 0.013864
v 0.000023 0.023356 0.014581
v 0.051291 0.046935 0.012420
v 0.032874 0.031179 0.013858
v 0.067061 0.088669 0.008304
v 0.067061 0.089066 0.007941
v 0.064405 0.106542 0.006335
v 0.065571 0.101047 0.006632
v 0.058763 0.120912 0.005086
v 0.051055 0.131316 0.003788
v 0.052709 0.128122 0.003849
v 0.061600 0.064441 0.009529
v -0.061576 0.064411 0.009530
v -0.064461 0.105990 0.006311
v -0.065511 0.076660 0.009573
v -0.064383 0.071121 0.009914
v -0.058774 0.056941 0.011153
v -0.046985 0.041086 0.012397
v -0.057037 0.053893 0.010919
v -0.037170 0.033979 0.012322
v -0.013516 0.024835 0.014396
v -0.000107 0.022317 0.014234
v 0.012896 0.024878 0.014455
v 0.046971 0.041057 0.012392
v 0.057014 0.053845 0.010936
v 0.058766 0.056904 0.011156
v 0.027988 0.028753 0.013861
v 0.032880 0.031248 0.012390
v 0.039194 0.035310 0.012323
v 0.064401 0.071157 0.009922
v 0.065521 0.076654 0.009566
v 0.061038 0.114563 0.005126
v 0.065559 0.096649 0.006642
v 0.065578 0.080645 0.008071
v 0.058537 0.056476 0.010773
v -0.058527 0.056476 0.010773
v -0.065556 0.080560 0.008077
v -0.065586 0.097759 0.006576
v -0.066958 0.086875 0.008072
v -0.064159 0.069808 0.009448
v -0.042776 0.037902 0.012305
v -0.032786 0.031218 0.012390
v -0.027102 0.028365 0.013846
v -0.019643 0.025280 0.013993
v -0.000181 0.022325 0.013459
v 0.016006 0.024077 0.013967
v 0.019703 0.025299 0.013991
v 0.044726 0.039596 0.012162
v 0.064161 0.069792 0.009448
v 0.066966 0.086864 0.008073
v 0.054567 0.051139 0.010845
v 0.051494 0.048085 0.010941
v -0.000184 0.023329 0.013090
v -0.052723 0.049290 0.010849
v -0.013334 0.025007 0.013049
v -0.016212 0.024099 0.013712
v -0.020158 0.025447 0.013666
v -0.016010 0.024072 0.013946
v -0.006197 0.022710 0.013819
v -0.013606 0.023916 0.013514
v 0.006006 0.022682 0.013820
v 0.020168 0.025447 0.013666
v 0.013390 0.025002 0.013048
v 0.016126 0.024078 0.013684
vn 0.0836 0.3176 0.9445
vn 0.9750 0.2018 -0.0935
vn 0.9970 0.0512 0.0573
vn 0.1484 -0.2465 -0.9577
vn -0.3201 -0.2401 0.9165
vn 0.3833 -0.9143 0.1309
vn 0.3567 0.7300 0.5830
vn -0.1734 0.4938 0.8521
vn -0.3058 0.1545 0.9395
vn -0.5731 0.8195 -0.0000
vn -0.8531 0.3016 -0.4257
vn -0.3088 0.9470 -0.0882
vn -0.3143 0.7277 0.6097
vn 0.2250 0.5911 0.7746
vn -0.0748 0.1261 -0.9892
vn 0.0796 -0.1589 0.9841
vn 0.0025 0.0868 0.9962
vn -0.2248 0.3071 0.9247
vn 0.2839 0.6808 -0.6752
vn 0.3681 0.2900 -0.8834
vn -0.3640 -0.0816 -0.9278
vn -0.3599 0.2794 -0.8902
vn 0.8657 -0.4988 0.0416
vn -0.7960 -0.1772 -0.5788
vn -0.7851 0.5913 -0.1844
vn -0.6004 0.5370 0.5926
vn -0.2712 -0.2401 -0.9321
vn 0.1278 0.2669 -0.9552
vn 0.3432 0.2493 0.9056
vn -0.7601 0.3717 0.5330
vn -0.6849 0.1713 0.7082
vn -0.3198 0.0792 0.9442
vn 0.6946 0.1720 0.6985
vn 0.2724 -0.0827 0.9586
vn 0.7493 0.3694 0.5496
vn 0.2815 0.8170 -0.5032
vn -0.7137 0.4630 -0.5257
vn -0.3155 0.7288 0.6077
vn -0.8663 -0.4974 0.0449
vn -0.3098 -0.9375 0.1582
vn 0.2873 -0.2737 0.9179
vn 0.0013 0.0874 0.9962
vn -0.8598 0.5092 -0.0387
vn 0.3209 -0.9467 0.0266
vn 0.5846 0.5267 0.6171
vn 0.7858 0.5926 -0.1772
vn 0.0298 0.4127 -0.9104
vn 0.8588 0.3051 -0.4116
vn -0.9479 0.1970 -0.2504
vn -0.7963 0.2426 -0.5542
vn -0.7695 0.0295 -0.6380
vn -0.9410 0.0829 -0.3282
vn -0.4339 0.0302 -0.9005
vn -0.6721 -0.0080 0.7404
vn -0.7897 -0.2640 0.5538
vn -0.6745 -0.4307 0.5996
vn -0.7628 -0.5618 0.3201
vn 0.0509 -0.3224 0.9452
vn 0.0386 0.1066 0.9936
vn 0.2189 0.3017 0.9279
vn 0.7617 -0.5614 0.3235
vn 0.6744 -0.4295 0.6005
vn 0.7928 -0.2659 0.5485
vn 0.6983 -0.0143 0.7157
vn 0.9544 0.0875 -0.2855
vn 0.7162 0.4659 -0.5196
vn 0.3020 -0.1587 -0.9400
vn -0.0533 -0.3719 0.9268
vn 0.4165 -0.2945 -0.8601
vn -0.4392 -0.3013 -0.8463
vn -0.0872 -0.7117 -0.6970
vn -0.9484 -0.0896 0.3042
vn -0.8508 -0.2988 0.4323
vn -0.5310 -0.8447 -0.0669
vn -0.1211 -0.2162 -0.9688
vn -0.1597 -0.3422 0.9260
vn 0.1372 -0.9890 0.0549
vn 0.3520 0.8145 0.4612
vn -0.0699 0.5834 0.8091
vn 0.8510 -0.2991 0.4317
vn 0.3530 -0.0113 0.9356
vn 0.9472 -0.0890 0.3081
vn 0.6437 -0.0035 -0.7653
vn 0.7705 -0.3766 -0.5143
vn -0.7708 -0.3766 -0.5138
vn 0.7952 -0.1774 -0.5799
vn 0.3692 -0.0822 -0.9257
vn 0.3458 -0.3980 -0.8497
vn -0.5584 -0.5135 -0.6515
vn -0.1369 0.9860 0.0947
vn -0.1964 -0.6011 -0.7746
vn -0.0830 0.3161 0.9451
vn 0.4775 -0.6390 -0.6030
vn 0.3014 0.7114 0.6349
vn 0.3227 0.1096 -0.9401
vn 0.6429 -0.5639 -0.5184
vn 0.2067 -0.6195 -0.7573
vn -0.3245 0.2428 0.9142
vn -0.9110 0.3955 0.1168
vn -0.1016 -0.7799 -0.6176
vn 0.3280 0.0808 0.9412
vn -0.0995 0.8066 -0.5826
vn 0.3094 0.9457 -0.0994
vn 0.0743 0.6191 0.7818
vn 0.0531 0.4167 0.9075
vn 0.0322 0.3175 0.9477
vn 0.9126 0.1807 0.3667
vn 0.1051 0.8255 -0.5546
vn -0.2847 -0.2723 0.9191
vn -0.3028 -0.1592 -0.9397
vn 0.3831 -0.8922 -0.2390
vn 0.4442 -0.8950 -0.0405
vn 0.9784 -0.1950 0.0679
vn 0.9299 -0.1787 -0.3216
vn -0.0381 0.1065 0.9936
vn -0.2554 0.2154 0.9425
vn -0.5827 0.8117 -0.0403
vn -0.0640 -0.9979 -0.0043
vn -0.1374 -0.9905 0.0033
vn 0.5825 0.8118 -0.0398
vn 0.5592 0.8274 0.0523
vn 0.0596 -0.4397 -0.8962
vn 0.0884 -0.3731 -0.9236
vn 0.0396 -0.3447 -0.9379
vn -0.9068 0.1808 0.3808
vn -0.3183 0.9477 -0.0223
vn -0.3612 0.7386 0.5692
vn -0.0931 -0.7337 0.6731
vn -0.9968 -0.0440 -0.0673
vn 0.2013 -0.2949 -0.9341
vn -0.4169 0.1980 -0.8871
vn -0.0969 0.2198 -0.9707
vn 0.0764 -0.1462 0.9863
vn -0.1667 0.0683 -0.9836
vn 0.0082 0.0764 0.9970
vn -0.0011 -0.0331 -0.9995
vn 0.0059 0.0969 0.9953
vn -0.0072 0.0976 0.9952
vn 0.0190 0.0551 0.9983
vn -0.0026 0.0871 0.9962
vn 0.0012 0.0869 0.9962
vn -0.0194 0.0628 0.9978
vn 0.1651 0.0670 -0.9840
vn 0.0067 0.0979 0.9952
vn -0.0279 0.0477 0.9985
vn 0.0004 0.0884 0.9961
vn -0.0007 0.0885 0.9961
vn -0.0000 0.0885 0.9961
vn -0.0080 -0.0916 -0.9958
vn -0.0102 0.0738 0.9972
vn 0.0095 0.0753 0.9971
vn -0.0000 0.0251 0.9997
vn 0.0071 0.0861 0.9963
vn 0.0096 -0.0919 -0.9957
vn 0.0027 -0.0889 -0.9960
vn -0.0034 0.0869 0.9962
vn -0.0018 0.0872 0.9962
vn 0.3299 0.3299 -0.8845
vn 0.8603 0.5085 -0.0372
vn 0.9977 -0.0459 -0.0490
vn -0.4119 -0.0729 -0.9083
vn 0.0961 0.3703 0.9239
vn 0.0911 0.3828 0.9193
vn 0.0459 0.3824 0.9229
vn 0.0447 0.3448 0.9376
vn -0.3219 0.3195 -0.8912
vn 0.0708 0.2583 -0.9635
vn 0.1249 0.2547 -0.9589
vn 0.0573 0.9973 0.0464
vn 0.0273 0.9970 -0.0729
vn 0.1380 -0.1695 -0.9758
vn -0.3291 0.0809 0.9408
vn -0.9779 -0.1943 0.0769
vn -0.9325 -0.1782 -0.3142
vn 0.9113 0.3954 0.1148
vn 0.0895 -0.7145 0.6939
vn -0.3800 -0.8884 -0.2574
vn -0.3810 -0.9149 0.1331
vn -0.4278 -0.8992 -0.0917
vn 0.5719 -0.7771 0.2628
vn 0.5404 -0.8406 -0.0376
vn -0.3235 -0.9459 0.0266
vn 0.3326 -0.0083 0.9430
vn 0.3237 -0.2423 0.9146
vn -0.2684 -0.0820 0.9598
vn 0.0012 0.0907 0.9959
vn 0.0145 0.0735 0.9972
vn 0.0076 0.0783 0.9969
vn 0.0173 0.0847 0.9963
vn 0.0070 0.0950 0.9954
vn 0.0661 0.1519 0.9862
vn -0.0070 0.0731 0.9973
vn -0.0000 0.0582 0.9983
vn 0.0071 0.0728 0.9973
vn -0.0000 0.0879 0.9961
vn -0.0658 0.1513 0.9863
vn -0.0073 0.0953 0.9954
vn -0.0144 0.0852 0.9963
vn -0.0255 0.0658 0.9975
vn 0.0024 0.0939 0.9956
vn -0.0024 0.1027 0.9947
vn -0.0014 0.0873 0.9962
vn -0.0001 0.0879 0.9961
vn -0.0024 0.0831 0.9965
vn -0.0049 0.0799 0.9968
vn 0.0002 0.0880 0.9961
vn 0.4202 0.2010 -0.8849
vn 0.3105 -0.9419 0.1281
vn 0.0594 0.3983 -0.9153
vn 0.0723 0.3458 -0.9355
vn 0.0504 0.3658 -0.9293
vn -0.3188 -0.0064 0.9478
vn -0.3373 -0.0091 0.9413
vn -0.9978 0.0517 0.0405
vn 0.8387 0.2819 -0.4660
vn 0.0821 -0.2671 0.9602
vn 0.0522 -0.3646 0.9297
vn 0.2403 0.2086 0.9480
vn 0.2949 0.1527 0.9433
vn 0.3214 -0.2600 -0.9106
vn -0.3211 0.1085 -0.9408
vn 0.0584 -0.9982 -0.0160
vn -0.0515 -0.3108 0.9491
vn -0.0837 -0.2886 0.9538
vn -0.5701 -0.8142 0.1096
vn -0.5643 -0.7556 0.3327
vn 0.4214 0.0404 -0.9060
vn -0.3752 0.0214 -0.9267
vn 0.9128 -0.3956 -0.1014
vn -0.3051 -0.3783 -0.8740
vn -0.2070 -0.2999 -0.9312
vn -0.0515 0.3341 -0.9411
vn -0.0535 0.4012 -0.9144
vn -0.0795 0.2958 -0.9519
vn 0.4392 0.8962 -0.0622
vn -0.0757 -0.1496 0.9858
vn 0.1359 0.9839 0.1160
vn 0.4180 -0.0723 -0.9056
vn 0.3942 -0.4222 -0.8163
vn -0.0567 0.9969 0.0551
vn -0.9118 -0.3960 -0.1086
vn -0.0320 0.3182 0.9475
vn -0.0522 0.4145 0.9086
vn -0.4416 0.8972 -0.0000
vn -0.3732 0.9073 -0.1937
vn 0.2910 0.0741 0.9539
vn 0.3070 -0.0031 -0.9517
vn 0.0816 -0.6641 -0.7432
vn 0.0005 0.0883 0.9961
vn 0.0063 0.1094 0.9940
vn -0.0063 0.1093 0.9940
vn -0.0005 0.0883 0.9961
vn -0.0000 0.0877 0.9961
vn -0.0571 0.3868 -0.9204
vn -0.0461 0.3395 -0.9395
vn 0.0165 0.0985 0.9950
vn -0.0000 0.0874 0.9962
vn 0.0006 0.0870 0.9962
vn 0.3195 0.0810 0.9441
vn -0.0170 0.0988 0.9950
vn -0.0002 0.0872 0.9962
vn 0.0012 0.0756 0.9971
vn 0.0106 0.0687 0.9976
vn -0.0755 0.1474 -0.9862
vn 0.0016 0.0833 0.9965
vn -0.1744 0.3757 -0.9102
vn 0.0765 -0.1491 0.9859
vn 0.0035 0.0833 0.9965
vn -0.0005 0.0867 0.9962
vn 0.0473 -0.3220 0.9455
vn 0.0545 -0.3573 0.9324
vn 0.0153 0.0731 0.9972
vn 0.3516 0.0756 0.9331
vn -0.3289 -0.0065 0.9444
vn -0.0137 0.0739 0.9972
vn -0.0024 0.0838 0.9965
vn -0.3430 -0.0119 0.9393
vn 0.1356 0.2827 -0.9496
vn 0.1239 0.2548 -0.9590
vn 0.0001 0.0878 0.9961
vn -0.0211 0.0575 0.9981
vn -0.0002 0.0879 0.9961
vn 0.0016 0.0881 0.9961
vn 0.0060 0.0869 0.9962
vn 0.0201 0.0810 0.9965
vn 0.0393 0.0382 0.9985
vn -0.0264 0.0777 0.9966
vn 0.0921 -0.1842 0.9786
vn 0.0170 0.0711 0.9973
vn -0.0064 0.0668 0.9977
vn -0.0470 -0.3114 0.9491
vn -0.0568 -0.3624 0.9303
vn -0.0393 0.0382 0.9985
vn -0.0010 0.0880 0.9961
vn -0.0030 0.0890 0.9960
vn -0.0158 0.1535 0.9880
vn -0.0000 0.0882 0.9961
vn 0.0170 0.1580 0.9873
vn 0.0877 0.3724 0.9239
vn 0.0971 0.3955 0.9133
vn 0.0049 0.0903 0.9959
vn 0.0490 0.3817 0.9230
vn 0.0410 0.3449 0.9378
s 0
f 10//1 18//1 26//1
f 70//2 69//2 35//2
f 51//3 67//3 68//3
f 91//4 90//4 114//4
f 80//5 47//5 62//5
f 89//6 109//6 124//6
f 24//7 18//7 23//7
f 9//8 8//8 17//8
f 42//9 33//9 32//9
f 16//10 15//10 21//10
f 57//11 42//11 58//11
f 22//12 8//12 7//12
f 15//13 9//13 14//13
f 18//14 25//14 26//14
f 22//15 13//15 14//15
f 89//16 66//16 85//16
f 114//17 94//17 125//17
f 16//18 30//18 31//18
f 28//19 25//19 38//19
f 56//20 55//20 72//20
f 101//21 100//21 99//21
f 30//22 29//22 40//22
f 88//23 87//23 97//23
f 101//24 99//24 102//24
f 30//25 40//25 41//25
f 30//26 41//26 31//26
f 116//27 81//27 75//27
f 38//28 37//28 20//28
f 53//29 36//29 52//29
f 32//30 43//30 42//30
f 42//31 44//31 33//31
f 61//32 33//32 44//32
f 34//33 51//33 35//33
f 88//34 49//34 65//34
f 36//35 35//35 52//35
f 25//36 28//36 19//36
f 40//37 58//37 41//37
f 14//38 9//38 17//38
f 81//39 79//39 98//39
f 106//40 118//40 120//40
f 86//41 48//41 66//41
f 33//42 46//42 4//42
f 41//43 58//43 43//43
f 109//44 126//44 124//44
f 54//45 53//45 55//45
f 55//46 53//46 72//46
f 11//47 6//47 2//47
f 35//48 94//48 71//48
f 42//49 76//49 59//49
f 42//50 57//50 76//50
f 59//51 100//51 60//51
f 59//52 60//52 44//52
f 59//53 76//53 100//53
f 61//54 77//54 45//54
f 46//55 78//55 79//55
f 62//56 79//56 81//56
f 62//57 81//57 80//57
f 84//58 108//58 64//58
f 54//59 34//59 36//59
f 23//60 54//60 55//60
f 65//61 86//61 87//61
f 65//62 87//62 88//62
f 49//63 88//63 92//63
f 67//64 50//64 93//64
f 68//65 70//65 51//65
f 71//66 72//66 53//66
f 74//67 96//67 111//67
f 120//68 64//68 83//68
f 97//69 87//69 74//69
f 81//70 98//70 75//70
f 121//71 122//71 107//71
f 61//72 101//72 77//72
f 79//73 78//73 102//73
f 82//74 104//74 63//74
f 104//75 82//75 116//75
f 63//76 105//76 106//76
f 108//77 123//77 126//77
f 38//78 25//78 24//78
f 1//79 3//79 8//79
f 88//80 111//80 92//80
f 92//81 93//81 50//81
f 67//82 93//82 112//82
f 68//83 95//83 70//83
f 74//84 111//84 97//84
f 98//85 102//85 75//85
f 96//86 112//86 111//86
f 95//87 112//87 96//87
f 86//88 110//88 114//88
f 80//89 81//89 116//89
f 7//90 8//90 3//90
f 104//91 118//91 119//91
f 8//92 9//92 4//92
f 86//93 91//93 110//93
f 18//94 24//94 25//94
f 71//95 94//95 73//95
f 86//96 113//96 87//96
f 90//97 124//97 126//97
f 41//98 43//98 32//98
f 43//99 58//99 42//99
f 121//100 118//100 122//100
f 67//101 34//101 50//101
f 7//102 3//102 2//102
f 26//103 25//103 19//103
f 27//104 1//104 26//104
f 26//105 1//105 10//105
f 5//106 10//106 1//106
f 35//107 51//107 70//107
f 19//108 11//108 27//108
f 80//109 63//109 47//109
f 99//110 75//110 102//110
f 124//111 90//111 89//111
f 90//112 66//112 89//112
f 93//113 92//113 111//113
f 112//114 93//114 111//114
f 33//115 31//115 32//115
f 32//116 31//116 41//116
f 21//117 30//117 16//117
f 121//118 107//118 84//118
f 120//119 118//119 121//119
f 55//120 37//120 23//120
f 37//121 24//121 23//121
f 126//122 107//122 125//122
f 125//123 90//123 126//123
f 115//124 125//124 107//124
f 44//125 42//125 59//125
f 22//126 17//126 8//126
f 15//127 16//127 9//127
f 121//128 84//128 120//128
f 61//129 60//129 101//129
f 91//130 114//130 110//130
f 58//131 40//131 39//131
f 13//132 21//132 14//132
f 109//133 89//133 85//133
f 40//134 29//134 39//134
f 29//135 13//135 21//135
f 13//136 6//136 12//136
f 12//137 94//137 20//137
f 13//138 39//138 57//138
f 29//139 39//139 13//139
f 100//140 116//140 57//140
f 57//141 12//141 13//141
f 20//142 56//142 37//142
f 56//143 72//143 73//143
f 73//144 20//144 94//144
f 56//145 20//145 73//145
f 57//146 117//146 12//146
f 125//147 94//147 12//147
f 117//148 125//148 12//148
f 116//149 75//149 99//149
f 117//150 116//150 104//150
f 90//151 114//151 125//151
f 125//152 117//152 115//152
f 94//153 114//153 95//153
f 74//154 114//154 96//154
f 114//155 95//155 96//155
f 116//156 100//156 99//156
f 117//157 57//157 116//157
f 56//158 37//158 55//158
f 53//159 52//159 71//159
f 112//160 68//160 67//160
f 101//161 60//161 100//161
f 122//162 117//162 118//162
f 118//163 117//163 104//163
f 117//164 122//164 115//164
f 115//165 122//165 107//165
f 30//166 21//166 29//166
f 20//167 12//167 28//167
f 28//168 38//168 20//168
f 27//169 11//169 1//169
f 11//170 2//170 1//170
f 113//171 114//171 74//171
f 61//172 45//172 33//172
f 78//173 77//173 102//173
f 101//174 102//174 77//174
f 52//175 35//175 71//175
f 108//176 84//176 123//176
f 104//177 119//177 105//177
f 119//178 106//178 105//178
f 105//179 63//179 104//179
f 86//180 66//180 91//180
f 66//181 90//181 91//181
f 106//182 119//182 118//182
f 50//183 49//183 92//183
f 86//184 65//184 48//184
f 79//185 62//185 46//185
f 66//186 48//186 85//186
f 48//187 65//187 49//187
f 85//188 48//188 49//188
f 34//189 49//189 50//189
f 34//190 54//190 10//190
f 54//191 23//191 18//191
f 18//192 10//192 54//192
f 5//193 4//193 10//193
f 4//194 9//194 31//194
f 10//195 4//195 85//195
f 9//196 16//196 31//196
f 31//197 33//197 4//197
f 33//198 45//198 46//198
f 46//199 62//199 47//199
f 47//200 63//200 83//200
f 83//201 64//201 85//201
f 49//202 34//202 10//202
f 85//203 49//203 10//203
f 85//204 46//204 83//204
f 46//205 47//205 83//205
f 46//206 85//206 4//206
f 73//207 72//207 71//207
f 109//208 108//208 126//208
f 11//209 19//209 12//209
f 19//210 28//210 12//210
f 12//211 6//211 11//211
f 77//212 78//212 45//212
f 45//213 78//213 46//213
f 61//214 44//214 60//214
f 35//215 69//215 94//215
f 108//216 109//216 85//216
f 85//217 64//217 108//217
f 36//218 53//218 54//218
f 35//219 36//219 34//219
f 113//220 74//220 87//220
f 58//221 39//221 57//221
f 123//222 84//222 107//222
f 120//223 84//223 64//223
f 106//224 120//224 83//224
f 103//225 82//225 63//225
f 63//226 80//226 103//226
f 70//227 94//227 69//227
f 57//228 100//228 76//228
f 97//229 111//229 88//229
f 103//230 80//230 116//230
f 116//231 82//231 103//231
f 7//232 2//232 6//232
f 6//233 13//233 7//233
f 13//234 22//234 7//234
f 24//235 37//235 38//235
f 63//236 106//236 83//236
f 27//237 26//237 19//237
f 95//238 68//238 112//238
f 114//239 113//239 86//239
f 3//240 1//240 2//240
f 102//241 98//241 79//241
f 4//242 5//242 1//242
f 8//243 4//243 1//243
f 14//244 21//244 15//244
f 17//245 22//245 14//245
f 67//246 51//246 34//246
f 94//247 70//247 95//247
f 123//248 107//248 126//248
f 34//249 18//249 5//249
f 18//250 10//250 5//250
f 4//251 9//251 5//251
f 9//252 33//252 5//252
f 33//253 34//253 5//253
f 13//254 7//254 2//254
f 6//255 13//255 2//255
f 54//256 18//256 34//256
f 33//257 85//257 34//257
f 85//258 49//258 34//258
f 50//259 51//259 34//259
f 31//260 33//260 9//260
f 46//261 85//261 33//261
f 20//262 12//262 13//262
f 39//263 13//263 21//263
f 21//264 22//264 13//264
f 20//265 13//265 39//265
f 21//266 14//266 22//266
f 109//267 66//267 85//267
f 66//268 49//268 85//268
f 46//269 64//269 85//269
f 64//270 84//270 85//270
f 84//271 108//271 85//271
f 66//272 65//272 49//272
f 67//273 51//273 50//273
f 77//274 46//274 45//274
f 47//275 63//275 46//275
f 63//276 64//276 46//276
f 77//277 78//277 46//277
f 38//278 37//278 28//278
f 37//279 20//279 28//279
f 90//195 20//195 104//195
f 104//280 20//280 39//280
f 37//281 20//281 73//281
f 73//282 20//282 90//282
f 104//283 39//283 99//283
f 99//284 39//284 100//284
f 100//285 39//285 57//285
f 29//286 39//286 21//286
f 95//287 94//287 73//287
f 89//288 66//288 109//288
f 48//289 65//289 66//289
f 63//290 83//290 64//290
f 83//291 84//291 64//291
f 83//292 120//292 84//292
f 56//293 37//293 73//293
f 73//294 90//294 95//294
f 95//295 90//295 114//295
f 125//296 90//296 115//296
f 115//297 90//297 104//297
f 115//298 104//298 117//298
f 117//299 104//299 122//299
f 122//300 104//300 118//300
f 116//301 104//301 99//301
f 122//302 107//302 117//302
f 117//303 107//303 115//303
