# Blender 4.0.0
# www.blender.org
o Alarm_Clock_1_alarm_clock_1_2_collision_1
v 0.000493 0.013016 0.000297
v 0.000252 0.012854 0.001104
v 0.000493 0.012424 0.000297
v 0.000409 0.012981 -0.000693
v -0.000483 0.013016 0.000297
v 0.000252 0.012586 0.001104
v -0.000242 0.012854 0.001104
v -0.000483 0.012424 0.000297
v 0.000409 0.012459 -0.000693
v -0.000399 0.012981 -0.000693
v -0.000242 0.012586 0.001104
v -0.000399 0.012459 -0.000693
vn 0.9579 -0.0000 0.2870
vn 0.9964 -0.0000 -0.0845
vn -0.0000 0.9994 -0.0353
vn -0.0000 0.9803 0.1974
vn -0.0000 -0.0000 1.0000
vn -0.0000 -0.9803 0.1973
vn -0.0000 -0.9994 -0.0352
vn -0.0000 -0.0000 -1.0000
vn -0.9964 -0.0000 -0.0845
vn -0.9579 -0.0000 0.2870
s 0
f 1//1 2//1 6//1
f 1//1 6//1 3//1
f 1//2 3//2 9//2
f 1//2 9//2 4//2
f 1//3 4//3 10//3
f 1//3 10//3 5//3
f 1//4 5//4 7//4
f 1//4 7//4 2//4
f 2//5 7//5 11//5
f 2//5 11//5 6//5
f 3//6 6//6 11//6
f 3//6 11//6 8//6
f 3//7 8//7 12//7
f 3//7 12//7 9//7
f 4//8 9//8 12//8
f 4//8 12//8 10//8
f 5//9 10//9 12//9
f 5//9 12//9 8//9
f 5//10 8//10 11//10
f 5//10 11//10 7//10
