mtllib material.mtl
usemtl material_0
v 0.00000000 -0.00830000 0.04969000
v 0.00000000 -0.00830000 0.04968000
v 0.00001000 -0.00830000 0.04968000
v 0.00001000 -0.00830000 0.04969000
v -0.42624000 1.25366000 0.32292000
v -0.44718000 1.23540000 0.32292000
v -0.43843000 1.80873000 0.32292000
v 0.40710000 1.11395000 0.31879000
v 0.41832000 1.10417000 0.31879000
v 0.41832000 1.10417000 -0.17663000
v 0.40710000 1.11395000 -0.17663000
v 0.40710000 1.10417000 -0.18698000
v -0.41831000 1.10417000 -0.17663000
v -0.40709000 1.11395000 -0.17663000
v -0.40709000 1.10417000 -0.18698000
v 0.08678000 0.88414000 -0.16808000
v 0.07956000 0.86927000 -0.16819000
v 0.07587000 0.86927000 -0.16449000
v -0.40709000 0.13752000 -0.18698000
v -0.41831000 0.13752000 -0.17663000
v 0.40710000 1.27036000 -0.18698000
v -0.40709000 1.27036000 -0.18698000
v -0.40792000 1.77516000 -0.18698000
v 0.40793000 1.77516000 -0.18698000
v 0.40123000 1.78930000 -0.18698000
v -0.40122000 1.78930000 -0.18698000
v 0.39142000 1.79786000 -0.18698000
v -0.39141000 1.79786000 -0.18698000
v 0.37520000 1.80372000 -0.18698000
v -0.37519000 1.80372000 -0.18698000
v 0.45198000 1.81576000 0.31879000
v 0.45198000 1.23122000 0.31879000
v 0.44719000 1.23540000 0.32292000
v 0.44719000 1.81158000 0.32292000
v 0.43844000 1.80873000 0.32292000
v 0.42625000 1.25366000 0.32292000
v 0.42310000 1.78064000 0.32292000
v 0.42310000 1.26863000 0.32292000
v -0.37519000 1.80372000 -0.18698000
v 0.37949000 1.81276000 -0.17663000
v 0.37520000 1.80372000 -0.18698000
v -0.37948000 1.81276000 -0.17663000
v 0.37949000 1.81276000 0.31879000
v 0.39571000 1.80690000 -0.17663000
v 0.39571000 1.80690000 0.31879000
v -0.37948000 1.81276000 0.31879000
v -0.39570000 1.80690000 0.31879000
v -0.39570000 1.80690000 -0.17663000
v -0.42310000 1.26863000 0.32292000
v -0.40907000 1.25640000 0.32292000
v 0.40908000 1.25640000 0.32292000
v -0.45197000 1.23122000 0.31879000
v 0.45198000 1.23122000 0.31879000
v -0.45197000 1.23122000 0.31879000
v -0.45197000 1.81576000 0.31879000
v -0.44718000 1.81158000 0.32292000
v -0.42310000 1.78064000 0.32292000
v -0.37948000 1.81276000 0.31879000
v -0.38147000 1.81693000 0.32292000
v 0.38148000 1.81693000 0.32292000
v 0.37949000 1.81276000 0.31879000
v 0.39571000 1.80690000 0.31879000
v 0.41832000 1.27036000 0.31879000
v 0.40710000 1.26057000 0.31879000
v 0.40710000 1.26057000 -0.17663000
v 0.41832000 1.27036000 -0.17663000
v 0.40710000 1.27036000 -0.18698000
v -0.40709000 1.26057000 0.31879000
v -0.41831000 1.27036000 0.31879000
v -0.41831000 1.27036000 -0.17663000
v -0.40709000 1.26057000 -0.17663000
v -0.40709000 1.27036000 -0.18698000
v -0.39570000 1.80690000 0.31879000
v -0.41159000 1.79305000 0.31879000
v -0.41638000 1.79478000 0.32292000
v -0.39768000 1.81108000 0.32292000
v 0.41832000 1.27036000 0.31879000
v 0.42310000 1.26863000 0.32292000
v 0.40908000 1.25640000 0.32292000
v 0.40710000 1.26057000 0.31879000
v -0.40907000 1.25640000 0.32292000
v -0.40709000 1.26057000 0.31879000
v -0.42310000 1.26863000 0.32292000
v -0.41831000 1.27036000 0.31879000
v -0.41831000 1.77891000 0.31879000
v -0.41831000 1.27036000 0.31879000
v -0.42310000 1.26863000 0.32292000
v -0.42310000 1.78064000 0.32292000
v 0.41832000 1.27036000 0.31879000
v 0.41832000 1.77891000 0.31879000
v 0.42310000 1.78064000 0.32292000
v 0.42310000 1.26863000 0.32292000
v 0.41160000 1.79305000 0.31879000
v 0.39769000 1.81108000 0.32292000
v 0.41639000 1.79478000 0.32292000
v -0.39141000 1.79786000 -0.18698000
v -0.40122000 1.78930000 -0.18698000
v -0.41159000 1.79305000 -0.17663000
v 0.40123000 1.78930000 -0.18698000
v 0.41160000 1.79305000 -0.17663000
v 0.39142000 1.79786000 -0.18698000
v 0.40793000 1.77516000 -0.18698000
v 0.41832000 1.77891000 -0.17663000
v -0.40792000 1.77516000 -0.18698000
v -0.41831000 1.77891000 -0.17663000
v 0.44313000 1.83439000 0.31879000
v 0.43834000 1.83022000 0.32292000
v 0.42176000 1.84211000 0.31879000
v 0.41697000 1.83794000 0.32292000
v -0.42175000 1.84211000 0.31879000
v -0.41696000 1.83794000 0.32292000
v -0.44312000 1.83439000 0.31879000
v -0.43833000 1.83022000 0.32292000
v -0.41960000 1.82063000 0.32292000
v 0.42735000 1.81389000 0.32292000
v 0.41639000 1.79478000 0.32292000
v 0.42587000 1.81934000 0.32292000
v 0.41961000 1.82063000 0.32292000
v 0.39769000 1.81108000 0.32292000
v 0.41370000 1.83030000 0.32292000
v 0.38148000 1.81693000 0.32292000
v -0.38147000 1.81693000 0.32292000
v -0.41369000 1.83030000 0.32292000
v -0.39768000 1.81108000 0.32292000
v -0.41638000 1.79478000 0.32292000
v -0.42734000 1.81389000 0.32292000
v -0.42586000 1.81934000 0.32292000
v -0.41831000 1.77891000 -0.17663000
v -0.41831000 1.27036000 -0.17663000
v -0.41831000 1.27036000 0.31879000
v -0.41831000 1.77891000 0.31879000
v -0.41159000 1.79305000 -0.17663000
v -0.40709000 1.27036000 -0.18698000
v 0.40710000 1.27036000 -0.18698000
v 0.40710000 1.26057000 -0.17663000
v -0.40709000 1.26057000 -0.17663000
v 0.41832000 1.27036000 -0.17663000
v 0.41832000 1.77891000 0.31879000
v 0.41832000 1.27036000 0.31879000
v 0.41832000 1.77891000 -0.17663000
v 0.41160000 1.79305000 0.31879000
v 0.41160000 1.79305000 -0.17663000
v 0.39571000 1.80690000 0.31879000
v 0.39571000 1.80690000 -0.17663000
v 0.40710000 1.26057000 0.31879000
v -0.40709000 1.26057000 0.31879000
v -0.41159000 1.79305000 0.31879000
v -0.39570000 1.80690000 0.31879000
v -0.39570000 1.80690000 -0.17663000
v -0.40122000 1.78930000 -0.18698000
v 0.40123000 1.78930000 -0.18698000
v 0.41639000 1.79478000 0.32292000
v 0.41160000 1.79305000 0.31879000
v -0.41638000 1.79478000 0.32292000
v -0.41159000 1.79305000 0.31879000
v -0.08677000 1.25663000 -0.18836000
v 0.08678000 1.25663000 -0.18836000
v 0.08678000 1.81524000 -0.18836000
v -0.08677000 1.81524000 -0.18836000
v 0.08259000 1.25663000 -0.16421000
v -0.08258000 1.25663000 -0.16421000
v -0.08258000 1.81524000 -0.16421000
v 0.08259000 1.81524000 -0.16421000
v 0.08678000 1.25663000 -0.16808000
v 0.08678000 1.25663000 -0.18836000
v -0.08677000 1.25663000 -0.18836000
v -0.08677000 1.25663000 -0.16808000
v 0.08259000 1.25663000 -0.16421000
v -0.08258000 1.25663000 -0.16421000
v 0.08678000 1.25663000 -0.16808000
v 0.08678000 1.81524000 -0.16808000
v 0.08678000 1.81524000 -0.18836000
v 0.08678000 1.25663000 -0.18836000
v -0.08677000 1.81524000 -0.16808000
v -0.08677000 1.81524000 -0.18836000
v 0.08678000 1.81524000 -0.18836000
v 0.08678000 1.81524000 -0.16808000
v -0.08258000 1.81524000 -0.16421000
v 0.08259000 1.81524000 -0.16421000
v -0.08677000 1.81524000 -0.16808000
v -0.08677000 1.25663000 -0.16808000
v -0.08677000 1.25663000 -0.18836000
v -0.08677000 1.81524000 -0.18836000
v -0.08258000 1.25663000 -0.16421000
v -0.08677000 1.25663000 -0.16808000
v -0.08677000 1.81524000 -0.16808000
v -0.08258000 1.81524000 -0.16421000
v 0.08259000 1.81524000 -0.16421000
v 0.08678000 1.81524000 -0.16808000
v 0.08678000 1.25663000 -0.16808000
v 0.08259000 1.25663000 -0.16421000
v -0.40907000 1.11813000 0.32292000
v -0.42310000 1.10590000 0.32292000
v -0.44718000 1.13913000 0.32292000
v -0.44718000 0.14175000 0.32292000
v -0.42310000 0.13335000 0.32292000
v -0.45197000 1.14330000 0.31879000
v -0.43731000 0.12096000 0.32292000
v -0.45197000 0.13667000 0.31879000
v -0.44240000 0.11652000 0.31879000
v -0.41346000 0.11235000 0.32292000
v -0.41929000 0.10817000 0.31879000
v -0.27118000 0.10817000 0.31879000
v -0.27118000 0.11235000 0.32292000
v -0.27118000 0.13335000 0.32292000
v -0.09039000 0.10817000 0.31879000
v -0.09039000 0.11235000 0.32292000
v -0.09039000 0.13335000 0.32292000
v 0.09040000 0.10817000 0.31879000
v 0.09040000 0.11235000 0.32292000
v 0.09040000 0.13335000 0.32292000
v 0.27119000 0.13335000 0.32292000
v 0.27119000 0.11235000 0.32292000
v 0.27119000 0.10817000 0.31879000
v 0.42310000 0.13335000 0.32292000
v 0.41347000 0.11235000 0.32292000
v 0.41930000 0.10817000 0.31879000
v 0.43732000 0.12096000 0.32292000
v 0.44241000 0.11652000 0.31879000
v 0.44719000 0.14175000 0.32292000
v 0.45198000 0.13667000 0.31879000
v 0.44719000 1.13913000 0.32292000
v 0.45198000 1.14330000 0.31879000
v 0.42310000 1.10590000 0.32292000
v 0.40908000 1.11813000 0.32292000
v -0.41831000 1.10417000 0.31879000
v -0.40709000 1.11395000 0.31879000
v -0.41831000 0.13752000 -0.17663000
v -0.27118000 0.13752000 0.31879000
v -0.41831000 0.13752000 0.31879000
v -0.27118000 0.13752000 -0.17663000
v -0.40709000 0.13752000 -0.18698000
v -0.09039000 0.13752000 0.31879000
v -0.27118000 0.13752000 -0.18698000
v -0.09039000 0.13752000 -0.17663000
v -0.09039000 0.13752000 -0.18698000
v 0.09040000 0.13752000 0.31879000
v 0.09040000 0.13752000 -0.17663000
v 0.09040000 0.13752000 -0.18698000
v 0.27119000 0.13752000 -0.18698000
v 0.27119000 0.13752000 -0.17663000
v 0.27119000 0.13752000 0.31879000
v 0.41832000 0.13752000 0.31879000
v 0.41832000 0.13752000 -0.17663000
v 0.40710000 0.13752000 -0.18698000
v -0.41831000 1.10417000 0.31879000
v -0.42310000 1.10590000 0.32292000
v -0.40907000 1.11813000 0.32292000
v -0.40709000 1.11395000 0.31879000
v 0.40710000 1.11395000 0.31879000
v 0.40908000 1.11813000 0.32292000
v 0.42310000 1.10590000 0.32292000
v 0.41832000 1.10417000 0.31879000
v 0.42310000 0.13335000 0.32292000
v 0.27119000 0.13752000 0.31879000
v 0.41832000 0.13752000 0.31879000
v 0.27119000 0.13335000 0.32292000
v 0.09040000 0.13335000 0.32292000
v 0.09040000 0.13752000 0.31879000
v -0.09039000 0.13752000 0.31879000
v -0.09039000 0.13335000 0.32292000
v -0.27118000 0.13752000 0.31879000
v -0.27118000 0.13335000 0.32292000
v -0.41831000 0.13752000 0.31879000
v -0.42310000 0.13335000 0.32292000
v -0.08677000 0.88414000 -0.18836000
v 0.08678000 1.11989000 -0.18836000
v -0.08677000 1.11989000 -0.18836000
v 0.08678000 0.88414000 -0.18836000
v 0.07956000 0.86927000 -0.18809000
v -0.07955000 0.86927000 -0.18809000
v 0.08259000 0.88414000 -0.16421000
v -0.08258000 1.11989000 -0.16421000
v 0.08259000 1.11989000 -0.16421000
v -0.08258000 0.88414000 -0.16421000
v -0.07586000 0.86927000 -0.16449000
v 0.07587000 0.86927000 -0.16449000
v 0.07956000 0.86927000 -0.16819000
v 0.07956000 0.86927000 -0.18809000
v -0.07955000 0.86927000 -0.18809000
v -0.07955000 0.86927000 -0.16819000
v 0.07587000 0.86927000 -0.16449000
v -0.07586000 0.86927000 -0.16449000
v 0.08678000 1.11989000 -0.16808000
v 0.08678000 1.11989000 -0.18836000
v 0.08678000 0.88414000 -0.18836000
v 0.07956000 0.86927000 -0.18809000
v -0.08677000 1.11989000 -0.16808000
v -0.08677000 1.11989000 -0.18836000
v 0.08678000 1.11989000 -0.18836000
v 0.08678000 1.11989000 -0.16808000
v -0.08258000 1.11989000 -0.16421000
v 0.08259000 1.11989000 -0.16421000
v -0.08677000 1.11989000 -0.16808000
v -0.08677000 0.88414000 -0.18836000
v -0.08677000 1.11989000 -0.18836000
v -0.08677000 0.88414000 -0.16808000
v -0.07955000 0.86927000 -0.18809000
v -0.07955000 0.86927000 -0.16819000
v -0.08258000 0.88414000 -0.16421000
v -0.08677000 1.11989000 -0.16808000
v -0.08258000 1.11989000 -0.16421000
v -0.07586000 0.86927000 -0.16449000
v 0.08259000 1.11989000 -0.16421000
v 0.08678000 1.11989000 -0.16808000
v 0.08259000 0.88414000 -0.16421000
v -0.41831000 1.10417000 -0.17663000
v -0.41831000 0.13752000 -0.17663000
v -0.41831000 0.13752000 0.31879000
v -0.41831000 1.10417000 0.31879000
v 0.41832000 1.10417000 0.31879000
v 0.41832000 0.13752000 0.31879000
v 0.41832000 0.13752000 -0.17663000
v 0.41832000 1.10417000 -0.17663000
v 0.41832000 0.13752000 -0.17663000
v 0.40710000 0.13752000 -0.18698000
v -0.41831000 0.13752000 0.31879000
v -0.42310000 0.13335000 0.32292000
v -0.42310000 1.10590000 0.32292000
v -0.41831000 1.10417000 0.31879000
v 0.42310000 0.13335000 0.32292000
v 0.41832000 0.13752000 0.31879000
v 0.41832000 1.10417000 0.31879000
v 0.42310000 1.10590000 0.32292000
v 0.27119000 1.11813000 0.32292000
v 0.27119000 1.11395000 0.31879000
v 0.09040000 1.11395000 0.31879000
v 0.09040000 1.11813000 0.32292000
v -0.09039000 1.11813000 0.32292000
v -0.09039000 1.11395000 0.31879000
v -0.27118000 1.11813000 0.32292000
v -0.27118000 1.11395000 0.31879000
v 0.27119000 1.14330000 0.31879000
v 0.45198000 1.14330000 0.31879000
v 0.27119000 1.13913000 0.32292000
v 0.09040000 1.13913000 0.32292000
v 0.09040000 1.14330000 0.31879000
v -0.09039000 1.14330000 0.31879000
v -0.09039000 1.13913000 0.32292000
v -0.27118000 1.14330000 0.31879000
v -0.27118000 1.13913000 0.32292000
v -0.45197000 1.14330000 0.31879000
v 0.27119000 1.11813000 0.32292000
v 0.09040000 1.11813000 0.32292000
v -0.09039000 1.11813000 0.32292000
v -0.27118000 1.11813000 0.32292000
v -0.27118000 1.10417000 -0.18698000
v -0.40709000 1.10417000 -0.18698000
v -0.40709000 1.11395000 -0.17663000
v -0.27118000 1.11395000 -0.17663000
v -0.40709000 1.11395000 0.31879000
v -0.09039000 1.10417000 -0.18698000
v -0.27118000 1.11395000 0.31879000
v -0.09039000 1.11395000 -0.17663000
v -0.09039000 1.11395000 0.31879000
v 0.09040000 1.10417000 -0.18698000
v 0.09040000 1.11395000 -0.17663000
v 0.09040000 1.11395000 0.31879000
v 0.27119000 1.11395000 0.31879000
v 0.27119000 1.11395000 -0.17663000
v 0.27119000 1.10417000 -0.18698000
v 0.40710000 1.10417000 -0.18698000
v 0.40710000 1.11395000 -0.17663000
v 0.40710000 1.11395000 0.31879000
v -0.27118000 1.10417000 -0.18698000
v -0.40709000 0.13752000 -0.18698000
v -0.40709000 1.10417000 -0.18698000
v -0.27118000 0.13752000 -0.18698000
v -0.26520000 0.15253000 -0.19182000
v -0.26520000 1.09895000 -0.19182000
v -0.09637000 1.09895000 -0.19182000
v -0.09637000 0.15253000 -0.19182000
v -0.09039000 0.13752000 -0.18698000
v -0.09039000 1.10417000 -0.18698000
v 0.09040000 1.10417000 -0.18698000
v 0.09040000 0.13752000 -0.18698000
v 0.09638000 0.15253000 -0.19182000
v 0.09638000 1.09895000 -0.19182000
v 0.26521000 1.09895000 -0.19182000
v 0.26521000 0.15253000 -0.19182000
v 0.27119000 0.13752000 -0.18698000
v 0.27119000 1.10417000 -0.18698000
v 0.40710000 0.13752000 -0.18698000
v 0.40710000 1.10417000 -0.18698000
v 0.26521000 1.09895000 -0.19182000
v 0.09638000 1.09895000 -0.19182000
v -0.09637000 1.09895000 -0.19182000
v -0.26520000 1.09895000 -0.19182000
v 0.05999000 1.06375000 -0.16697000
v 0.06135000 1.07126000 -0.16697000
v 0.05999000 1.07878000 -0.16697000
v 0.05609000 1.05714000 -0.16697000
v 0.05609000 1.08539000 -0.16697000
v 0.05012000 1.05223000 -0.16697000
v 0.05012000 1.09029000 -0.16697000
v 0.04280000 1.04962000 -0.16697000
v 0.04280000 1.09290000 -0.16697000
v 0.03501000 1.04962000 -0.16697000
v 0.03501000 1.09290000 -0.16697000
v 0.02768000 1.05223000 -0.16697000
v 0.02768000 1.09029000 -0.16697000
v 0.02171000 1.05714000 -0.16697000
v 0.02171000 1.08539000 -0.16697000
v 0.01782000 1.06375000 -0.16697000
v 0.01782000 1.07878000 -0.16697000
v 0.01646000 1.07126000 -0.16697000
v 0.01646000 1.07126000 -0.14075000
v 0.01782000 1.06375000 -0.14075000
v 0.01782000 1.06375000 -0.16697000
v 0.01646000 1.07126000 -0.16697000
v 0.01782000 1.07878000 -0.14075000
v 0.01782000 1.07878000 -0.16697000
v 0.02171000 1.08539000 -0.14075000
v 0.02171000 1.08539000 -0.16697000
v 0.02171000 1.05714000 -0.14075000
v 0.02171000 1.05714000 -0.16697000
v 0.02768000 1.05223000 -0.14075000
v 0.02768000 1.05223000 -0.16697000
v 0.02768000 1.05223000 -0.14075000
v 0.03501000 1.04962000 -0.16697000
v 0.02768000 1.05223000 -0.16697000
v 0.03501000 1.04962000 -0.14075000
v 0.04280000 1.04962000 -0.16697000
v 0.04280000 1.04962000 -0.14075000
v 0.05012000 1.05223000 -0.16697000
v 0.05012000 1.05223000 -0.14075000
v 0.05012000 1.05223000 -0.14075000
v 0.05609000 1.05714000 -0.14075000
v 0.05609000 1.05714000 -0.16697000
v 0.05012000 1.05223000 -0.16697000
v 0.05999000 1.06375000 -0.16697000
v 0.05999000 1.06375000 -0.14075000
v 0.06135000 1.07126000 -0.16697000
v 0.06135000 1.07126000 -0.14075000
v 0.05999000 1.07878000 -0.16697000
v 0.05999000 1.07878000 -0.14075000
v 0.05609000 1.08539000 -0.16697000
v 0.05609000 1.08539000 -0.14075000
v 0.05012000 1.09029000 -0.14075000
v 0.05012000 1.09029000 -0.16697000
v 0.05012000 1.09029000 -0.14075000
v 0.04280000 1.09290000 -0.16697000
v 0.05012000 1.09029000 -0.16697000
v 0.04280000 1.09290000 -0.14075000
v 0.03501000 1.09290000 -0.16697000
v 0.03501000 1.09290000 -0.14075000
v 0.02768000 1.09029000 -0.16697000
v 0.02768000 1.09029000 -0.14075000
v 0.02768000 1.09029000 -0.14075000
v 0.02768000 1.09029000 -0.16697000
v 0.05592000 1.07733000 -0.13730000
v 0.05702000 1.07126000 -0.13730000
v 0.05592000 1.06520000 -0.13730000
v 0.05278000 1.08266000 -0.13730000
v 0.05278000 1.05986000 -0.13730000
v 0.04796000 1.08662000 -0.13730000
v 0.05609000 1.08539000 -0.14075000
v 0.05012000 1.09029000 -0.14075000
v 0.04796000 1.05590000 -0.13730000
v 0.04205000 1.08873000 -0.13730000
v 0.05012000 1.05223000 -0.14075000
v 0.05609000 1.05714000 -0.14075000
v 0.04205000 1.05380000 -0.13730000
v 0.03576000 1.08873000 -0.13730000
v 0.03576000 1.05380000 -0.13730000
v 0.02985000 1.08662000 -0.13730000
v 0.02985000 1.05590000 -0.13730000
v 0.02503000 1.08266000 -0.13730000
v 0.02768000 1.09029000 -0.14075000
v 0.02171000 1.08539000 -0.14075000
v 0.02503000 1.05986000 -0.13730000
v 0.02188000 1.07733000 -0.13730000
v 0.02171000 1.05714000 -0.14075000
v 0.02768000 1.05223000 -0.14075000
v 0.02188000 1.06520000 -0.13730000
v 0.02079000 1.07126000 -0.13730000
v 0.01782000 1.06375000 -0.14075000
v 0.02503000 1.05986000 -0.13730000
v 0.02171000 1.05714000 -0.14075000
v 0.02188000 1.06520000 -0.13730000
v 0.01646000 1.07126000 -0.14075000
v 0.02079000 1.07126000 -0.13730000
v 0.01782000 1.07878000 -0.14075000
v 0.02188000 1.07733000 -0.13730000
v 0.02171000 1.08539000 -0.14075000
v 0.02503000 1.08266000 -0.13730000
v 0.02768000 1.05223000 -0.14075000
v 0.02985000 1.05590000 -0.13730000
v 0.03576000 1.05380000 -0.13730000
v 0.03501000 1.04962000 -0.14075000
v 0.04205000 1.05380000 -0.13730000
v 0.04280000 1.04962000 -0.14075000
v 0.04796000 1.05590000 -0.13730000
v 0.05012000 1.05223000 -0.14075000
v 0.05609000 1.05714000 -0.14075000
v 0.05278000 1.05986000 -0.13730000
v 0.05592000 1.06520000 -0.13730000
v 0.05999000 1.06375000 -0.14075000
v 0.05702000 1.07126000 -0.13730000
v 0.06135000 1.07126000 -0.14075000
v 0.05592000 1.07733000 -0.13730000
v 0.05999000 1.07878000 -0.14075000
v 0.05278000 1.08266000 -0.13730000
v 0.05609000 1.08539000 -0.14075000
v 0.05012000 1.09029000 -0.14075000
v 0.04796000 1.08662000 -0.13730000
v 0.04205000 1.08873000 -0.13730000
v 0.04280000 1.09290000 -0.14075000
v 0.03576000 1.08873000 -0.13730000
v 0.03501000 1.09290000 -0.14075000
v 0.02985000 1.08662000 -0.13730000
v 0.02768000 1.09029000 -0.14075000
v -0.38790000 0.28647000 -0.14667000
v -0.04297000 0.28647000 -0.14667000
v -0.04297000 0.17648000 -0.07062000
v -0.38790000 0.17648000 -0.07062000
v -0.02041000 0.28647000 -0.16148000
v -0.02041000 0.14147000 -0.16148000
v -0.02041000 0.14147000 0.31402000
v -0.02041000 0.26230000 0.31402000
v -0.02041000 0.27155000 0.31208000
v -0.02041000 0.27939000 0.30654000
v -0.02041000 0.28463000 0.29824000
v -0.02041000 0.28647000 0.28846000
v -0.41046000 0.26230000 0.31402000
v -0.41046000 0.14147000 0.31402000
v -0.41046000 0.14147000 -0.16148000
v -0.41046000 0.28647000 -0.16148000
v -0.41046000 0.27155000 0.31208000
v -0.41046000 0.27939000 0.30654000
v -0.41046000 0.28463000 0.29824000
v -0.41046000 0.28647000 0.28846000
v -0.38790000 0.17371000 0.29175000
v -0.04297000 0.17371000 -0.06520000
v -0.04297000 0.17371000 0.29175000
v -0.38790000 0.17371000 -0.06520000
v -0.03935000 0.17662000 -0.06704000
v -0.39152000 0.17662000 -0.06704000
v -0.39152000 0.16786000 0.30803000
v -0.39152000 0.15877000 0.31402000
v -0.39152000 0.26230000 0.31402000
v -0.39408000 0.17371000 0.29772000
v -0.39152000 0.17662000 -0.06704000
v -0.39152000 0.28647000 -0.14318000
v -0.39152000 0.27155000 0.31208000
v -0.39152000 0.27939000 0.30654000
v -0.39152000 0.28463000 0.29824000
v -0.39152000 0.28647000 0.28846000
v -0.39408000 0.17371000 0.29772000
v -0.03935000 0.16786000 0.30803000
v -0.39152000 0.16786000 0.30803000
v -0.03679000 0.17371000 0.29772000
v -0.04297000 0.17371000 0.29175000
v -0.04297000 0.17371000 -0.06520000
v -0.03935000 0.17662000 -0.06704000
v -0.38790000 0.17371000 0.29175000
v -0.39152000 0.17662000 -0.06704000
v -0.38790000 0.17371000 -0.06520000
v -0.39152000 0.15877000 0.31402000
v -0.03935000 0.15877000 0.31402000
v -0.03935000 0.26230000 0.31402000
v -0.03935000 0.15877000 0.31402000
v -0.03935000 0.16786000 0.30803000
v -0.03679000 0.17371000 0.29772000
v -0.03935000 0.17662000 -0.06704000
v -0.03935000 0.28647000 -0.14318000
v -0.03935000 0.27155000 0.31208000
v -0.03935000 0.27939000 0.30654000
v -0.03935000 0.28463000 0.29824000
v -0.03935000 0.28647000 0.28846000
v -0.02403000 0.28647000 -0.16497000
v -0.40684000 0.28647000 -0.16497000
v -0.40684000 0.14147000 -0.16497000
v -0.02403000 0.14147000 -0.16497000
v -0.02041000 0.14147000 -0.16148000
v -0.02403000 0.14147000 -0.16497000
v -0.40684000 0.14147000 -0.16497000
v -0.41046000 0.14147000 -0.16148000
v -0.02041000 0.14147000 0.31402000
v -0.41046000 0.14147000 0.31402000
v -0.02041000 0.28647000 -0.16148000
v -0.02403000 0.28647000 -0.16497000
v -0.02403000 0.14147000 -0.16497000
v -0.02041000 0.14147000 -0.16148000
v -0.41046000 0.14147000 -0.16148000
v -0.40684000 0.14147000 -0.16497000
v -0.40684000 0.28647000 -0.16497000
v -0.41046000 0.28647000 -0.16148000
v -0.38790000 0.17648000 -0.07062000
v -0.39152000 0.17662000 -0.06704000
v -0.39152000 0.28647000 -0.14318000
v -0.38790000 0.28647000 -0.14667000
v -0.04297000 0.28647000 -0.14667000
v -0.03935000 0.28647000 -0.14318000
v -0.03935000 0.17662000 -0.06704000
v -0.04297000 0.17648000 -0.07062000
v -0.39152000 0.28463000 0.29824000
v -0.39152000 0.27939000 0.30654000
v -0.41046000 0.27939000 0.30654000
v -0.41046000 0.28463000 0.29824000
v -0.39152000 0.28647000 0.28846000
v -0.41046000 0.28647000 0.28846000
v -0.41046000 0.28647000 -0.16148000
v -0.39152000 0.28647000 -0.14318000
v -0.38790000 0.28647000 -0.14667000
v -0.40684000 0.28647000 -0.16497000
v -0.04297000 0.28647000 -0.14667000
v -0.02403000 0.28647000 -0.16497000
v -0.03935000 0.28647000 -0.14318000
v -0.02041000 0.28647000 -0.16148000
v -0.02041000 0.28647000 0.28846000
v -0.03935000 0.28647000 0.28846000
v -0.03935000 0.28463000 0.29824000
v -0.02041000 0.28463000 0.29824000
v -0.03935000 0.27939000 0.30654000
v -0.02041000 0.27939000 0.30654000
v -0.39152000 0.27155000 0.31208000
v -0.41046000 0.27155000 0.31208000
v -0.39152000 0.27155000 0.31208000
v -0.41046000 0.26230000 0.31402000
v -0.41046000 0.27155000 0.31208000
v -0.39152000 0.26230000 0.31402000
v -0.41046000 0.14147000 0.31402000
v -0.39152000 0.15877000 0.31402000
v -0.03935000 0.15877000 0.31402000
v -0.02041000 0.14147000 0.31402000
v -0.02041000 0.26230000 0.31402000
v -0.03935000 0.26230000 0.31402000
v -0.02041000 0.27155000 0.31208000
v -0.03935000 0.27155000 0.31208000
v -0.02041000 0.27155000 0.31208000
v -0.03935000 0.27155000 0.31208000
v 0.03401000 0.28647000 -0.14667000
v 0.37893000 0.28647000 -0.14667000
v 0.37893000 0.17648000 -0.07062000
v 0.03401000 0.17648000 -0.07062000
v 0.40150000 0.28647000 -0.16148000
v 0.40150000 0.14147000 -0.16148000
v 0.40150000 0.14147000 0.31402000
v 0.40150000 0.26230000 0.31402000
v 0.40150000 0.27155000 0.31208000
v 0.40150000 0.27939000 0.30654000
v 0.40150000 0.28463000 0.29824000
v 0.40150000 0.28647000 0.28846000
v 0.01144000 0.26230000 0.31402000
v 0.01144000 0.14147000 0.31402000
v 0.01144000 0.14147000 -0.16148000
v 0.01144000 0.28647000 -0.16148000
v 0.01144000 0.27155000 0.31208000
v 0.01144000 0.27939000 0.30654000
v 0.01144000 0.28463000 0.29824000
v 0.01144000 0.28647000 0.28846000
v 0.03401000 0.17371000 0.29175000
v 0.37893000 0.17371000 -0.06520000
v 0.37893000 0.17371000 0.29175000
v 0.03401000 0.17371000 -0.06520000
v 0.38255000 0.17662000 -0.06704000
v 0.03038000 0.17662000 -0.06704000
v 0.03038000 0.16786000 0.30803000
v 0.03038000 0.15877000 0.31402000
v 0.03038000 0.26230000 0.31402000
v 0.02782000 0.17371000 0.29772000
v 0.03038000 0.17662000 -0.06704000
v 0.03038000 0.28647000 -0.14318000
v 0.03038000 0.27155000 0.31208000
v 0.03038000 0.27939000 0.30654000
v 0.03038000 0.28463000 0.29824000
v 0.03038000 0.28647000 0.28846000
v 0.02782000 0.17371000 0.29772000
v 0.38255000 0.16786000 0.30803000
v 0.03038000 0.16786000 0.30803000
v 0.38511000 0.17371000 0.29772000
v 0.37893000 0.17371000 0.29175000
v 0.37893000 0.17371000 -0.06520000
v 0.38255000 0.17662000 -0.06704000
v 0.03401000 0.17371000 0.29175000
v 0.03038000 0.17662000 -0.06704000
v 0.03401000 0.17371000 -0.06520000
v 0.03038000 0.15877000 0.31402000
v 0.38255000 0.15877000 0.31402000
v 0.38255000 0.26230000 0.31402000
v 0.38255000 0.15877000 0.31402000
v 0.38255000 0.16786000 0.30803000
v 0.38511000 0.17371000 0.29772000
v 0.38255000 0.17662000 -0.06704000
v 0.38255000 0.28647000 -0.14318000
v 0.38255000 0.27155000 0.31208000
v 0.38255000 0.27939000 0.30654000
v 0.38255000 0.28463000 0.29824000
v 0.38255000 0.28647000 0.28846000
v 0.39788000 0.28647000 -0.16497000
v 0.01506000 0.28647000 -0.16497000
v 0.01506000 0.14147000 -0.16497000
v 0.39788000 0.14147000 -0.16497000
v 0.40150000 0.14147000 -0.16148000
v 0.39788000 0.14147000 -0.16497000
v 0.01506000 0.14147000 -0.16497000
v 0.01144000 0.14147000 -0.16148000
v 0.40150000 0.14147000 0.31402000
v 0.01144000 0.14147000 0.31402000
v 0.40150000 0.28647000 -0.16148000
v 0.39788000 0.28647000 -0.16497000
v 0.39788000 0.14147000 -0.16497000
v 0.40150000 0.14147000 -0.16148000
v 0.01144000 0.14147000 -0.16148000
v 0.01506000 0.14147000 -0.16497000
v 0.01506000 0.28647000 -0.16497000
v 0.01144000 0.28647000 -0.16148000
v 0.03401000 0.17648000 -0.07062000
v 0.03038000 0.17662000 -0.06704000
v 0.03038000 0.28647000 -0.14318000
v 0.03401000 0.28647000 -0.14667000
v 0.37893000 0.28647000 -0.14667000
v 0.38255000 0.28647000 -0.14318000
v 0.38255000 0.17662000 -0.06704000
v 0.37893000 0.17648000 -0.07062000
v 0.03038000 0.28463000 0.29824000
v 0.03038000 0.27939000 0.30654000
v 0.01144000 0.27939000 0.30654000
v 0.01144000 0.28463000 0.29824000
v 0.03038000 0.28647000 0.28846000
v 0.01144000 0.28647000 0.28846000
v 0.01144000 0.28647000 -0.16148000
v 0.03038000 0.28647000 -0.14318000
v 0.03401000 0.28647000 -0.14667000
v 0.01506000 0.28647000 -0.16497000
v 0.37893000 0.28647000 -0.14667000
v 0.39788000 0.28647000 -0.16497000
v 0.38255000 0.28647000 -0.14318000
v 0.40150000 0.28647000 -0.16148000
v 0.40150000 0.28647000 0.28846000
v 0.38255000 0.28647000 0.28846000
v 0.38255000 0.28463000 0.29824000
v 0.40150000 0.28463000 0.29824000
v 0.38255000 0.27939000 0.30654000
v 0.40150000 0.27939000 0.30654000
v 0.03038000 0.27155000 0.31208000
v 0.01144000 0.27155000 0.31208000
v 0.03038000 0.27155000 0.31208000
v 0.01144000 0.26230000 0.31402000
v 0.01144000 0.27155000 0.31208000
v 0.03038000 0.26230000 0.31402000
v 0.01144000 0.14147000 0.31402000
v 0.03038000 0.15877000 0.31402000
v 0.38255000 0.15877000 0.31402000
v 0.40150000 0.14147000 0.31402000
v 0.40150000 0.26230000 0.31402000
v 0.38255000 0.26230000 0.31402000
v 0.40150000 0.27155000 0.31208000
v 0.38255000 0.27155000 0.31208000
v 0.40150000 0.27155000 0.31208000
v 0.38255000 0.27155000 0.31208000
vn 0.00000000 1.00000000 0.00000000
vn 0.00000000 1.00000000 0.00000000
vn 0.00000000 1.00000000 0.00000000
vn 0.00000000 1.00000000 0.00000000
vn 0.00000000 0.00000000 1.00000000
vn -0.12891460 -0.20902820 0.96937510
vn 0.00000000 0.00000000 1.00000000
vn -0.06635270 -0.99779620 0.00000000
vn -0.65719060 -0.75372450 0.00000000
vn -0.77248610 -0.29040910 0.56473680
vn -0.06553019 -0.99768160 0.01836280
vn -0.06974310 -0.01004349 0.99751450
vn 0.77249470 -0.29040420 0.56472770
vn 0.06553005 -0.99768160 0.01836274
vn 0.06974295 -0.01004350 0.99751450
vn 0.98527250 -0.02708813 0.16883230
vn 0.88686820 -0.42991110 0.16923720
vn 0.65683930 -0.31678720 0.68425740
vn 0.07017586 0.00000000 0.99753460
vn 0.67802400 0.00000000 0.73503980
vn -0.01239694 0.01990948 0.99972490
vn 0.01239694 0.01990948 0.99972490
vn 0.01464519 -0.00015860 0.99989270
vn -0.01464520 -0.00015860 0.99989270
vn -0.01558444 -0.01268600 0.99979810
vn 0.01558480 -0.01268636 0.99979810
vn 0.00000000 0.00000000 1.00000000
vn 0.00000000 0.00000000 1.00000000
vn 0.00000000 0.00000000 1.00000000
vn 0.00000000 0.00000000 1.00000000
vn 0.64545610 0.01694021 0.76360950
vn 0.65404240 0.00000000 0.75645780
vn 0.12890960 -0.20902920 0.96937560
vn 0.22123800 0.00206188 0.97521770
vn 0.00000000 0.00000000 1.00000000
vn 0.00000000 0.00000000 1.00000000
vn -0.07295360 -0.00106759 0.99733470
vn -0.06587409 0.00145209 0.99782690
vn 0.00460551 -0.75225100 0.65886050
vn -0.00759151 -0.99986520 0.01455639
vn -0.00460545 -0.75225100 0.65886060
vn 0.00759152 -0.99986520 0.01455639
vn -0.00755581 -0.99997150 0.00000000
vn -0.52272960 -0.85234330 0.01626947
vn -0.52319750 -0.85221150 0.00000000
vn 0.00755581 -0.99997150 0.00000000
vn 0.52320100 -0.85220930 0.00000000
vn 0.52273320 -0.85234110 0.01626939
vn 0.06587307 0.00145203 0.99782690
vn 0.00105618 0.07249894 0.99736790
vn -0.00105620 0.07249644 0.99736820
vn 0.00000000 -0.70412730 0.71007360
vn 0.00000000 -0.70412730 0.71007370
vn -0.65409020 0.00000000 0.75641660
vn -0.64550100 0.01694260 0.76357160
vn -0.22124550 0.00206189 0.97521600
vn 0.07295325 -0.00106758 0.99733480
vn 0.00420670 -0.70312260 0.71105610
vn 0.00077901 -0.07887107 0.99688450
vn -0.00077896 -0.07887354 0.99688430
vn -0.00420679 -0.70312220 0.71105670
vn -0.35890120 -0.56568770 0.74242000
vn -0.65725470 0.75366860 0.00000000
vn -0.01185462 0.99992980 0.00000000
vn -0.01169712 0.99974770 0.01917560
vn -0.79010100 0.43702440 0.42982570
vn -0.01239694 0.01990948 0.99972490
vn 0.01185462 0.99992980 0.00000000
vn 0.65726520 0.75365930 0.00000000
vn 0.79010740 0.43701540 0.42982300
vn 0.01169713 0.99974770 0.01917560
vn 0.01239694 0.01990948 0.99972490
vn 0.35890620 -0.56568950 0.74241610
vn 0.49648830 -0.43015600 0.75396640
vn 0.11034570 -0.08460486 0.99028580
vn 0.07980266 -0.13016460 0.98827560
vn -0.65050430 0.01675060 0.75931780
vn -0.06587409 0.00145209 0.99782690
vn -0.00105620 0.07249644 0.99736820
vn -0.00872891 0.70204950 0.71207470
vn 0.00105618 0.07249894 0.99736790
vn 0.00872942 0.70204930 0.71207480
vn 0.06587307 0.00145203 0.99782690
vn 0.65048100 0.01675029 0.75933780
vn 0.65246980 -0.00750797 0.75777750
vn 0.65048100 0.01675029 0.75933780
vn 0.06587307 0.00145203 0.99782690
vn 0.07295325 -0.00106758 0.99733480
vn -0.65050430 0.01675060 0.75931780
vn -0.65249400 -0.00750797 0.75775680
vn -0.07295360 -0.00106759 0.99733470
vn -0.06587409 0.00145209 0.99782690
vn -0.49650580 -0.43016090 0.75395210
vn -0.07980096 -0.13016100 0.98827620
vn -0.11034780 -0.08460691 0.99028530
vn 0.36886730 -0.61887620 0.69349060
vn 0.01558480 -0.01268636 0.99979810
vn 0.77845020 -0.62747930 0.01688105
vn -0.01558444 -0.01268600 0.99979810
vn -0.77845030 -0.62747920 0.01688120
vn -0.36886700 -0.61887090 0.69349550
vn -0.01464520 -0.00015860 0.99989270
vn -0.69043110 -0.00950887 0.72333560
vn 0.01464519 -0.00015860 0.99989270
vn 0.69043640 -0.00950908 0.72333060
vn 0.37304400 0.40157180 0.83640800
vn 0.17977170 0.21495960 0.95993470
vn 0.01358907 0.69615640 0.71776160
vn 0.00125463 0.27033140 0.96276650
vn -0.01358904 0.69615620 0.71776170
vn -0.00125466 0.27033650 0.96276510
vn -0.37304980 0.40157500 0.83640380
vn -0.17976970 0.21495790 0.95993530
vn 0.00000000 0.00000000 1.00000000
vn 0.00000023 0.00000000 1.00000000
vn -0.11034780 -0.08460691 0.99028530
vn 0.00000021 0.00000000 1.00000000
vn 0.00000060 0.00000000 1.00000000
vn -0.07980096 -0.13016100 0.98827620
vn 0.00000000 0.00000000 1.00000000
vn -0.00077896 -0.07887354 0.99688430
vn 0.00077901 -0.07887107 0.99688450
vn 0.00000000 0.00000000 1.00000000
vn 0.07980266 -0.13016460 0.98827560
vn 0.11034570 -0.08460486 0.99028580
vn 0.00000011 0.00000000 1.00000000
vn 0.00000000 0.00000000 1.00000000
vn 0.99991740 -0.01285200 0.00000000
vn 1.00000000 0.00000000 0.00000000
vn 1.00000000 0.00000000 0.00000000
vn 0.99991740 -0.01285200 0.00000000
vn 0.77845020 -0.62747930 0.01688105
vn 0.01239694 0.01990948 0.99972490
vn -0.01239694 0.01990948 0.99972490
vn -0.01169712 0.99974770 0.01917560
vn 0.01169713 0.99974770 0.01917560
vn -1.00000000 0.00000000 0.00000000
vn -0.99991740 -0.01285143 0.00000000
vn -1.00000000 0.00000000 0.00000000
vn -0.99991740 -0.01285143 0.00000000
vn -0.77800430 -0.62825890 0.00000000
vn -0.77845030 -0.62747920 0.01688120
vn -0.52319750 -0.85221150 0.00000000
vn -0.52272960 -0.85234330 0.01626947
vn -0.01185462 0.99992980 0.00000000
vn 0.01185462 0.99992980 0.00000000
vn 0.77800430 -0.62825890 0.00000000
vn 0.52320100 -0.85220930 0.00000000
vn 0.52273320 -0.85234110 0.01626939
vn 0.01558480 -0.01268636 0.99979810
vn -0.01558444 -0.01268600 0.99979810
vn -0.11034780 -0.08460691 0.99028530
vn -0.49650580 -0.43016090 0.75395210
vn 0.11034570 -0.08460486 0.99028580
vn 0.49648830 -0.43015600 0.75396640
vn 0.00000000 0.00000000 -1.00000000
vn 0.00000000 0.00000000 -1.00000000
vn 0.00000000 0.00000000 -1.00000000
vn 0.00000000 0.00000000 -1.00000000
vn 0.02280655 0.00000000 0.99973980
vn -0.02280659 0.00000000 0.99973980
vn -0.02280659 0.00000000 0.99973980
vn 0.02280655 0.00000000 0.99973980
vn 0.00000000 -1.00000000 -0.00000621
vn 0.00000000 -1.00000000 -0.00000621
vn 0.00000000 -1.00000000 -0.00000621
vn 0.00000000 -1.00000000 -0.00000621
vn 0.00000000 -1.00000000 -0.00000621
vn 0.00000000 -1.00000000 -0.00000621
vn 1.00000000 0.00000000 0.00000000
vn 1.00000000 0.00000000 0.00000000
vn 1.00000000 0.00000000 0.00000000
vn 1.00000000 0.00000000 0.00000000
vn 0.00000000 1.00000000 0.00000311
vn 0.00000000 1.00000000 0.00000311
vn 0.00000000 1.00000000 0.00000311
vn 0.00000000 1.00000000 0.00000311
vn 0.00000000 1.00000000 0.00000311
vn 0.00000000 1.00000000 0.00000311
vn -1.00000000 0.00000000 0.00000000
vn -1.00000000 0.00000000 0.00000000
vn -1.00000000 0.00000000 0.00000000
vn -1.00000000 0.00000000 0.00000000
vn -0.02280659 0.00000000 0.99973980
vn -0.67798630 0.00000000 0.73507460
vn -0.67798630 0.00000000 0.73507460
vn -0.02280659 0.00000000 0.99973980
vn 0.02280655 0.00000000 0.99973980
vn 0.67795960 0.00000000 0.73509910
vn 0.67795960 0.00000000 0.73509910
vn 0.02280655 0.00000000 0.99973980
vn 0.00623112 -0.07769720 0.99695750
vn 0.07943705 -0.00092970 0.99683940
vn -0.29658020 0.05526349 0.95340770
vn -0.16499450 -0.00088251 0.98629410
vn 0.10252560 0.01420352 0.99462900
vn -0.65404250 0.00000000 0.75645770
vn -0.20091960 -0.24040720 0.94965030
vn -0.64624180 -0.01269732 0.76302700
vn -0.35726170 -0.38396860 0.85142940
vn -0.00459807 -0.18784530 0.98218780
vn -0.07033110 -0.65114570 0.75568690
vn 0.00000000 -0.70412650 0.71007460
vn 0.00000000 -0.16147050 0.98687750
vn 0.00000000 0.16320750 0.98659180
vn 0.00000000 -0.70412620 0.71007480
vn 0.00000000 -0.16223540 0.98675220
vn 0.00000000 0.16223560 0.98675200
vn 0.00000000 -0.70412650 0.71007470
vn 0.00000000 -0.16223540 0.98675220
vn 0.00000000 0.16223560 0.98675200
vn 0.00000000 0.16320750 0.98659180
vn 0.00000000 -0.16147060 0.98687750
vn 0.00000000 -0.70412680 0.71007420
vn -0.10252220 0.01420386 0.99462930
vn 0.00459781 -0.18784810 0.98218740
vn 0.07033527 -0.65114030 0.75569120
vn 0.20091750 -0.24040480 0.94965140
vn 0.35725970 -0.38397020 0.85142970
vn 0.16499320 -0.00088255 0.98629420
vn 0.64624180 -0.01269781 0.76302700
vn 0.29657610 0.05526270 0.95340900
vn 0.65404250 0.00000000 0.75645770
vn -0.07943504 -0.00092973 0.99683960
vn -0.00623133 -0.07769503 0.99695780
vn 0.65720120 -0.75371520 0.00000000
vn 0.06635258 -0.99779620 0.00000000
vn 0.00000000 1.00000000 0.00000000
vn 0.00000000 1.00000000 0.00000000
vn 0.00000000 1.00000000 0.00000000
vn 0.00000000 1.00000000 0.00000000
vn 0.00000000 1.00000000 0.00000000
vn 0.00000000 1.00000000 0.00000000
vn 0.00000000 1.00000000 0.00000000
vn 0.00000000 1.00000000 0.00000000
vn 0.00000000 1.00000000 0.00000000
vn 0.00000000 1.00000000 0.00000000
vn 0.00000000 1.00000000 0.00000000
vn 0.00000000 1.00000000 0.00000000
vn 0.00000000 1.00000000 0.00000000
vn 0.00000000 1.00000000 0.00000000
vn 0.00000000 1.00000000 0.00000000
vn 0.00000000 1.00000000 0.00000000
vn 0.00000000 1.00000000 0.00000000
vn 0.00000000 1.00000000 0.00000000
vn 0.65216920 -0.00893514 0.75802080
vn 0.07943705 -0.00092970 0.99683940
vn 0.00623112 -0.07769720 0.99695750
vn 0.04788877 -0.69178060 0.72051810
vn -0.04788675 -0.69178070 0.72051800
vn -0.00623133 -0.07769503 0.99695780
vn -0.07943504 -0.00092973 0.99683960
vn -0.65219280 -0.00893544 0.75800050
vn -0.10252220 0.01420386 0.99462930
vn 0.00000000 0.70412900 0.71007220
vn 0.00000000 0.70412810 0.71007280
vn 0.00000000 0.16320750 0.98659180
vn 0.00000000 0.16223560 0.98675200
vn 0.00000000 0.70412970 0.71007130
vn 0.00000000 0.70412940 0.71007160
vn 0.00000000 0.16223560 0.98675200
vn 0.00000000 0.70412920 0.71007190
vn 0.00000000 0.16320750 0.98659180
vn 0.00000000 0.70412930 0.71007170
vn 0.10252560 0.01420352 0.99462900
vn 0.00000000 -0.00076600 -0.99999980
vn 0.00000000 0.00000000 -1.00000000
vn 0.00000000 0.00000000 -1.00000000
vn 0.00000000 -0.00076602 -0.99999980
vn 0.00000000 -0.01854793 -0.99982800
vn 0.00000000 -0.01854793 -0.99982800
vn 0.02342978 -0.00153718 0.99972430
vn -0.02280658 0.00000000 0.99973980
vn 0.02280653 0.00000000 0.99973980
vn -0.02342987 -0.00153722 0.99972430
vn 0.00000000 -0.01854916 0.99982800
vn 0.00000000 -0.01854916 0.99982800
vn 0.00000000 -1.00000000 -0.00000224
vn 0.00000000 -1.00000000 -0.00000224
vn 0.00000000 -1.00000000 -0.00000224
vn 0.00000000 -1.00000000 -0.00000224
vn 0.00000000 -1.00000000 -0.00000224
vn 0.00000000 -1.00000000 -0.00000224
vn 1.00000000 0.00000000 0.00000000
vn 1.00000000 0.00000000 0.00000000
vn 0.99960120 -0.02823945 0.00000000
vn 0.89965330 -0.43660530 0.00000000
vn 0.00000000 1.00000000 0.00000155
vn 0.00000000 1.00000000 0.00000155
vn 0.00000000 1.00000000 0.00000155
vn 0.00000000 1.00000000 0.00000155
vn 0.00000000 1.00000000 0.00000155
vn 0.00000000 1.00000000 0.00000155
vn -1.00000000 0.00000000 0.00000000
vn -0.99960120 -0.02824068 0.00000000
vn -1.00000000 0.00000000 0.00000000
vn -0.98527440 -0.02708944 0.16882050
vn -0.89964560 -0.43662080 0.00000000
vn -0.88686130 -0.42992800 0.16923050
vn -0.02342987 -0.00153722 0.99972430
vn -0.67798600 0.00000000 0.73507480
vn -0.02280658 0.00000000 0.99973980
vn -0.65684710 -0.31681090 0.68423880
vn 0.02280653 0.00000000 0.99973980
vn 0.67795930 0.00000000 0.73509950
vn 0.02342978 -0.00153718 0.99972430
vn 1.00000000 0.00000000 0.00000000
vn 1.00000000 0.00000000 0.00000000
vn 1.00000000 0.00000000 0.00000000
vn 1.00000000 0.00000000 0.00000000
vn -1.00000000 0.00000000 0.00000000
vn -1.00000000 0.00000000 0.00000000
vn -1.00000000 0.00000000 0.00000000
vn -1.00000000 0.00000000 0.00000000
vn -0.67801390 0.00000000 0.73504900
vn -0.07017604 0.00000000 0.99753460
vn 0.65404360 0.00000000 0.75645690
vn 0.10252560 0.01420352 0.99462900
vn 0.07943705 -0.00092970 0.99683940
vn 0.65216920 -0.00893514 0.75802080
vn -0.10252220 0.01420386 0.99462930
vn -0.65406740 0.00000000 0.75643620
vn -0.65219280 -0.00893544 0.75800050
vn -0.07943504 -0.00092973 0.99683960
vn 0.00000000 -0.15432040 0.98802100
vn 0.00000000 -0.70414980 0.71005130
vn 0.00000000 -0.70414840 0.71005280
vn 0.00000000 -0.16223560 0.98675200
vn 0.00000000 -0.16223570 0.98675200
vn 0.00000000 -0.70414780 0.71005350
vn 0.00000000 -0.15432050 0.98802080
vn 0.00000000 -0.70414970 0.71005150
vn 0.00000000 0.70412930 0.71007180
vn 0.00000000 0.70413260 0.71006860
vn 0.00000000 0.17049850 0.98535790
vn 0.00000000 0.16223390 0.98675240
vn 0.00000000 0.70412530 0.71007570
vn 0.00000000 0.70412480 0.71007630
vn 0.00000000 0.16223400 0.98675240
vn 0.00000000 0.70412880 0.71007230
vn 0.00000000 0.17049850 0.98535790
vn 0.00000000 0.70413300 0.71006820
vn 0.00000000 -0.15432040 0.98802100
vn 0.00000000 -0.16223560 0.98675200
vn 0.00000000 -0.16223570 0.98675200
vn 0.00000000 -0.15432050 0.98802080
vn 0.00000000 -0.72061890 0.69333140
vn 0.06974295 -0.01004350 0.99751450
vn 0.06553005 -0.99768160 0.01836274
vn 0.00000000 -0.99981300 0.01934082
vn 0.06635258 -0.99779620 0.00000000
vn 0.00000000 -0.72128840 0.69263480
vn 0.00000000 -1.00000000 0.00000000
vn 0.00000000 -0.99981300 0.01934087
vn 0.00000000 -1.00000000 0.00000000
vn 0.00000000 -0.72128840 0.69263480
vn 0.00000000 -0.99981300 0.01934090
vn 0.00000000 -1.00000000 0.00000000
vn 0.00000000 -1.00000000 0.00000000
vn 0.00000000 -0.99981300 0.01934090
vn 0.00000000 -0.72061840 0.69333190
vn -0.06974310 -0.01004349 0.99751450
vn -0.06553019 -0.99768160 0.01836280
vn -0.06635270 -0.99779620 0.00000000
vn 0.02124343 0.00000000 0.99977440
vn 0.07017586 0.00000000 0.99753460
vn 0.06974295 -0.01004350 0.99751450
vn 0.01031168 0.00480517 0.99993530
vn 0.04538478 0.00601149 0.99895140
vn 0.03768916 -0.00721658 0.99926350
vn -0.03768883 -0.00721663 0.99926350
vn -0.04538443 0.00601153 0.99895160
vn -0.00780577 0.00363731 0.99996290
vn -0.01607632 0.00000000 0.99987080
vn 0.01607633 0.00000000 0.99987080
vn 0.00780578 0.00363732 0.99996290
vn 0.04538440 0.00601153 0.99895160
vn 0.03768880 -0.00721668 0.99926350
vn -0.03768874 -0.00721668 0.99926350
vn -0.04538432 0.00601153 0.99895160
vn -0.01031196 0.00480514 0.99993530
vn -0.02124376 0.00000000 0.99977440
vn -0.07017604 0.00000000 0.99753460
vn -0.06974310 -0.01004349 0.99751450
vn -0.03768874 -0.00721668 0.99926350
vn 0.03768880 -0.00721668 0.99926350
vn -0.03768883 -0.00721663 0.99926350
vn 0.03768916 -0.00721658 0.99926350
vn 0.00000000 0.00000000 -1.00000000
vn 0.00000000 0.00000000 -1.00000000
vn 0.00000000 0.00000000 -1.00000000
vn 0.00000000 0.00000000 -1.00000000
vn 0.00000000 0.00000000 -1.00000000
vn 0.00000000 0.00000000 -1.00000000
vn 0.00000000 0.00000000 -1.00000000
vn 0.00000000 0.00000000 -1.00000000
vn 0.00000000 0.00000000 -1.00000000
vn 0.00000000 0.00000000 -1.00000000
vn 0.00000000 0.00000000 -1.00000000
vn 0.00000000 0.00000000 -1.00000000
vn 0.00000000 0.00000000 -1.00000000
vn 0.00000000 0.00000000 -1.00000000
vn 0.00000000 0.00000000 -1.00000000
vn 0.00000000 0.00000000 -1.00000000
vn 0.00000000 0.00000000 -1.00000000
vn 0.00000000 0.00000000 -1.00000000
vn -1.00000000 0.00000000 0.00000000
vn -0.93734930 -0.34839110 0.00000000
vn -0.93734930 -0.34839110 0.00000000
vn -1.00000000 0.00000000 0.00000000
vn -0.93734770 0.34839510 0.00000193
vn -0.93734770 0.34839510 0.00000193
vn -0.75934800 0.65068480 0.00000576
vn -0.75934640 0.65068660 0.00000576
vn -0.75933960 -0.65069450 0.00000000
vn -0.75933960 -0.65069450 0.00000000
vn -0.49217460 -0.87049660 0.00000000
vn -0.49217460 -0.87049660 0.00000000
vn -0.49217460 -0.87049660 0.00000000
vn -0.17017190 -0.98541440 0.00000000
vn -0.49217460 -0.87049660 0.00000000
vn -0.17017190 -0.98541440 0.00000000
vn 0.17015990 -0.98541650 -0.00000190
vn 0.17015990 -0.98541650 -0.00000190
vn 0.49216580 -0.87050150 -0.00000762
vn 0.49216440 -0.87050220 -0.00000762
vn 0.49216440 -0.87050220 -0.00000762
vn 0.75934420 -0.65068920 -0.00000863
vn 0.75934580 -0.65068730 -0.00000863
vn 0.49216580 -0.87050150 -0.00000762
vn 0.93735070 -0.34838680 -0.00000290
vn 0.93735070 -0.34838680 -0.00000290
vn 1.00000000 0.00000000 0.00000000
vn 1.00000000 0.00000000 0.00000000
vn 0.93734770 0.34839510 0.00000097
vn 0.93734770 0.34839510 0.00000097
vn 0.75934640 0.65068660 0.00000480
vn 0.75934800 0.65068480 0.00000480
vn 0.49216930 0.87049940 0.00000572
vn 0.49216860 0.87049990 0.00000572
vn 0.49216930 0.87049940 0.00000572
vn 0.17015500 0.98541730 0.00000190
vn 0.49216860 0.87049990 0.00000572
vn 0.17015500 0.98541730 0.00000190
vn -0.17015500 0.98541730 0.00000190
vn -0.17015500 0.98541730 0.00000190
vn -0.49216840 0.87050000 0.00000572
vn -0.49216930 0.87049940 0.00000572
vn -0.49216930 0.87049940 0.00000572
vn -0.49216840 0.87050000 0.00000572
vn 0.02632171 0.00981559 0.99960540
vn 0.02805629 -0.00000021 0.99960640
vn 0.02632196 -0.00981540 0.99960540
vn 0.02138218 0.01838176 0.99960240
vn 0.02138300 -0.01838218 0.99960240
vn 0.01390029 0.02466496 0.99959920
vn 0.47648400 0.40671960 0.77944990
vn 0.31055130 0.54715320 0.77729090
vn 0.01389948 -0.02466544 0.99959920
vn 0.00481535 0.02797628 0.99959700
vn 0.31054930 -0.54718020 0.77727280
vn 0.47649590 -0.40671980 0.77944250
vn 0.00481484 -0.02797605 0.99959700
vn -0.00481485 0.02797654 0.99959700
vn -0.00481457 -0.02797609 0.99959700
vn -0.01390017 0.02466572 0.99959920
vn -0.01389961 -0.02466612 0.99959920
vn -0.02138120 0.01838167 0.99960240
vn -0.31055080 0.54715870 0.77728730
vn -0.47648480 0.40672850 0.77944480
vn -0.02138182 -0.01838239 0.99960240
vn -0.02632257 0.00981598 0.99960540
vn -0.47651210 -0.40674170 0.77942120
vn -0.31056290 -0.54719230 0.77725880
vn -0.02632257 -0.00981584 0.99960540
vn -0.02805436 -0.00000019 0.99960640
vn -0.58528230 -0.21669780 0.78133650
vn -0.02138182 -0.01838239 0.99960240
vn -0.47651210 -0.40674170 0.77942120
vn -0.02632257 -0.00981584 0.99960540
vn -0.62316320 0.00000550 0.78209180
vn -0.02805436 -0.00000019 0.99960640
vn -0.58526710 0.21670020 0.78134720
vn -0.02632257 0.00981598 0.99960540
vn -0.47648480 0.40672850 0.77944480
vn -0.02138120 0.01838167 0.99960240
vn -0.31056290 -0.54719230 0.77725880
vn -0.01389961 -0.02466612 0.99959920
vn -0.00481457 -0.02797609 0.99959700
vn -0.10775530 -0.62162390 0.77586900
vn 0.00481484 -0.02797605 0.99959700
vn 0.10774590 -0.62162180 0.77587190
vn 0.01389948 -0.02466544 0.99959920
vn 0.31054930 -0.54718020 0.77727280
vn 0.47649590 -0.40671980 0.77944250
vn 0.02138300 -0.01838218 0.99960240
vn 0.02632196 -0.00981540 0.99960540
vn 0.58526900 -0.21668920 0.78134880
vn 0.02805629 -0.00000021 0.99960640
vn 0.62315100 0.00000521 0.78210160
vn 0.02632171 0.00981559 0.99960540
vn 0.58525890 0.21669570 0.78135450
vn 0.02138218 0.01838176 0.99960240
vn 0.47648400 0.40671960 0.77944990
vn 0.31055130 0.54715320 0.77729090
vn 0.01390029 0.02466496 0.99959920
vn 0.00481535 0.02797628 0.99959700
vn 0.10774870 0.62159290 0.77589450
vn -0.00481485 0.02797654 0.99959700
vn -0.10775350 0.62159570 0.77589170
vn -0.01390017 0.02466572 0.99959920
vn -0.31055080 0.54715870 0.77728730
vn 0.00628906 0.56877930 0.82246610
vn -0.00628916 0.56877930 0.82246610
vn -0.01017483 0.58549400 0.81061300
vn 0.01017492 0.58549390 0.81061300
vn 1.00000000 0.00000000 0.00000000
vn 1.00000000 0.00000000 0.00000000
vn 1.00000000 0.00000000 0.00000000
vn 1.00000000 0.00000000 0.00000000
vn 1.00000000 0.00000000 0.00000000
vn 1.00000000 0.00000000 0.00000000
vn 1.00000000 0.00000000 0.00000000
vn 1.00000000 0.00000000 0.00000000
vn -1.00000000 0.00000018 0.00000000
vn -1.00000000 0.00000018 0.00000000
vn -1.00000000 0.00000018 0.00000000
vn -1.00000000 0.00000018 0.00000000
vn -1.00000000 0.00000018 0.00000000
vn -1.00000000 0.00000018 0.00000000
vn -1.00000000 0.00000018 0.00000000
vn -1.00000000 0.00000018 0.00000000
vn 0.00609541 0.99998140 0.00010389
vn -0.00516770 0.99995770 0.00761744
vn -0.00609541 0.99998140 0.00010389
vn 0.00516774 0.99995770 0.00761744
vn -0.40427550 0.89699070 0.17879890
vn 0.40428850 0.89698660 0.17878990
vn 0.99994680 -0.01031382 -0.00024086
vn 0.99994680 -0.01031382 -0.00024086
vn 0.99994680 -0.01031382 -0.00024086
vn 0.99994680 -0.01031382 -0.00024086
vn 0.99994680 -0.01031382 -0.00024086
vn 0.99994680 -0.01031382 -0.00024086
vn 0.99994680 -0.01031382 -0.00024086
vn 0.99994680 -0.01031382 -0.00024086
vn 0.99994680 -0.01031382 -0.00024086
vn 0.99994680 -0.01031382 -0.00024086
vn 0.04954300 0.94152320 0.33328600
vn 0.00000000 0.74783440 0.66388520
vn 0.00000000 0.74783550 0.66388400
vn -0.04954230 0.94152310 0.33328650
vn -0.00609541 0.99998140 0.00010389
vn -0.00516770 0.99995770 0.00761744
vn -0.40427550 0.89699070 0.17879890
vn 0.00609541 0.99998140 0.00010389
vn 0.40428850 0.89698660 0.17878990
vn 0.00516774 0.99995770 0.00761744
vn 0.00000000 0.12959110 0.99156760
vn 0.00000000 0.12959220 0.99156730
vn -0.99994680 -0.01031263 -0.00024084
vn -0.99994680 -0.01031263 -0.00024084
vn -0.99994680 -0.01031263 -0.00024084
vn -0.99994680 -0.01031263 -0.00024084
vn -0.99994680 -0.01031263 -0.00024084
vn -0.99994680 -0.01031263 -0.00024084
vn -0.99994680 -0.01031263 -0.00024084
vn -0.99994680 -0.01031263 -0.00024084
vn -0.99994680 -0.01031263 -0.00024084
vn -0.99994680 -0.01031263 -0.00024084
vn 0.00905296 0.00000000 -0.99995900
vn -0.00905294 0.00000000 -0.99995900
vn -0.00905294 0.00000000 -0.99995900
vn 0.00905296 0.00000000 -0.99995900
vn 0.00000000 -1.00000000 0.00000000
vn 0.00000000 -1.00000000 0.00000000
vn 0.00000000 -1.00000000 0.00000000
vn 0.00000000 -1.00000000 0.00000000
vn 0.00000000 -1.00000000 0.00000000
vn 0.00000000 -1.00000000 0.00000000
vn 0.69475880 0.00000000 -0.71924280
vn 0.00905296 0.00000000 -0.99995900
vn 0.00905296 0.00000000 -0.99995900
vn 0.69475880 0.00000000 -0.71924280
vn -0.69469830 0.00000000 -0.71930130
vn -0.00905294 0.00000000 -0.99995900
vn -0.00905294 0.00000000 -0.99995900
vn -0.69469830 0.00000000 -0.71930130
vn 0.01017492 0.58549390 0.81061300
vn 0.40428850 0.89698660 0.17878990
vn 0.63143840 0.44139930 0.63753600
vn 0.00628906 0.56877930 0.82246610
vn -0.00628916 0.56877930 0.82246610
vn -0.63140560 0.44141590 0.63755710
vn -0.40427550 0.89699070 0.17879890
vn -0.01017483 0.58549400 0.81061300
vn 0.00000000 0.93115990 0.36461110
vn 0.00000000 0.72667840 0.68697770
vn 0.00000000 0.72667840 0.68697770
vn 0.00000000 0.93115990 0.36461110
vn 0.00000000 0.99999170 0.00408267
vn 0.00000000 0.99999170 0.00408267
vn 0.00000000 1.00000000 0.00000000
vn 0.00000000 1.00000000 0.00000000
vn 0.00000000 1.00000000 0.00000000
vn 0.00000000 1.00000000 0.00000000
vn 0.00000000 1.00000000 0.00000000
vn 0.00000000 1.00000000 0.00000000
vn 0.00000000 1.00000000 0.00000000
vn 0.00000000 1.00000000 0.00000000
vn 0.00000000 0.99999170 0.00408267
vn 0.00000000 0.99999170 0.00408267
vn 0.00000000 0.93115990 0.36461110
vn 0.00000000 0.93115990 0.36461110
vn 0.00000000 0.72667880 0.68697730
vn 0.00000000 0.72667880 0.68697730
vn 0.00000000 0.40140860 0.91589910
vn 0.00000000 0.40140860 0.91589910
vn 0.00000000 0.40140860 0.91589910
vn 0.00000000 0.01603231 0.99987150
vn 0.00000000 0.40140860 0.91589910
vn 0.00000000 0.01603231 0.99987150
vn 0.00000000 0.00000000 1.00000000
vn 0.00000000 0.12959110 0.99156760
vn 0.00000000 0.12959220 0.99156730
vn 0.00000000 0.00000000 1.00000000
vn 0.00000000 0.01603231 0.99987150
vn 0.00000000 0.01603231 0.99987150
vn 0.00000000 0.40140830 0.91589920
vn 0.00000000 0.40140830 0.91589920
vn 0.00000000 0.40140830 0.91589920
vn 0.00000000 0.40140830 0.91589920
vn 0.00628896 0.56877920 0.82246630
vn -0.00628895 0.56877920 0.82246630
vn -0.01017500 0.58549380 0.81061300
vn 0.01017502 0.58549380 0.81061300
vn 1.00000000 0.00000000 0.00000000
vn 1.00000000 0.00000000 0.00000000
vn 1.00000000 0.00000000 0.00000000
vn 1.00000000 0.00000000 0.00000000
vn 1.00000000 0.00000000 0.00000000
vn 1.00000000 0.00000000 0.00000000
vn 1.00000000 0.00000000 0.00000000
vn 1.00000000 0.00000000 0.00000000
vn -1.00000000 0.00000000 0.00000000
vn -1.00000000 0.00000000 0.00000000
vn -1.00000000 0.00000000 0.00000000
vn -1.00000000 0.00000000 0.00000000
vn -1.00000000 0.00000000 0.00000000
vn -1.00000000 0.00000000 0.00000000
vn -1.00000000 0.00000000 0.00000000
vn -1.00000000 0.00000000 0.00000000
vn 0.00609541 0.99998140 0.00010389
vn -0.00516781 0.99995770 0.00761739
vn -0.00609550 0.99998140 0.00010388
vn 0.00516779 0.99995770 0.00761739
vn -0.40431130 0.89697730 0.17878500
vn 0.40430300 0.89698170 0.17878170
vn 0.99994680 -0.01031508 -0.00024089
vn 0.99994680 -0.01031508 -0.00024089
vn 0.99994680 -0.01031508 -0.00024089
vn 0.99994680 -0.01031508 -0.00024089
vn 0.99994680 -0.01031508 -0.00024089
vn 0.99994680 -0.01031508 -0.00024089
vn 0.99994680 -0.01031508 -0.00024089
vn 0.99994680 -0.01031508 -0.00024089
vn 0.99994680 -0.01031508 -0.00024089
vn 0.99994680 -0.01031508 -0.00024089
vn 0.04954390 0.94152320 0.33328590
vn 0.00000000 0.74783550 0.66388410
vn 0.00000000 0.74783660 0.66388280
vn -0.04954211 0.94152220 0.33328900
vn -0.00609550 0.99998140 0.00010388
vn -0.00516781 0.99995770 0.00761739
vn -0.40431130 0.89697730 0.17878500
vn 0.00609541 0.99998140 0.00010389
vn 0.40430300 0.89698170 0.17878170
vn 0.00516779 0.99995770 0.00761739
vn 0.00000000 0.12959050 0.99156760
vn 0.00000000 0.12959220 0.99156730
vn -0.99994680 -0.01031411 -0.00024086
vn -0.99994680 -0.01031411 -0.00024086
vn -0.99994680 -0.01031411 -0.00024086
vn -0.99994680 -0.01031411 -0.00024086
vn -0.99994680 -0.01031411 -0.00024086
vn -0.99994680 -0.01031411 -0.00024086
vn -0.99994680 -0.01031411 -0.00024086
vn -0.99994680 -0.01031411 -0.00024086
vn -0.99994680 -0.01031411 -0.00024086
vn -0.99994680 -0.01031411 -0.00024086
vn 0.00905296 0.00000000 -0.99995900
vn -0.00905295 0.00000000 -0.99995900
vn -0.00905295 0.00000000 -0.99995900
vn 0.00905296 0.00000000 -0.99995900
vn 0.00000000 -1.00000000 0.00000000
vn 0.00000000 -1.00000000 0.00000000
vn 0.00000000 -1.00000000 0.00000000
vn 0.00000000 -1.00000000 0.00000000
vn 0.00000000 -1.00000000 0.00000000
vn 0.00000000 -1.00000000 0.00000000
vn 0.69475880 0.00000000 -0.71924280
vn 0.00905296 0.00000000 -0.99995900
vn 0.00905296 0.00000000 -0.99995900
vn 0.69475880 0.00000000 -0.71924280
vn -0.69472860 0.00000000 -0.71927200
vn -0.00905295 0.00000000 -0.99995900
vn -0.00905295 0.00000000 -0.99995900
vn -0.69472860 0.00000000 -0.71927200
vn 0.01017502 0.58549380 0.81061300
vn 0.40430300 0.89698170 0.17878170
vn 0.63146960 0.44138660 0.63751390
vn 0.00628896 0.56877920 0.82246630
vn -0.00628895 0.56877920 0.82246630
vn -0.63146940 0.44138680 0.63751400
vn -0.40431130 0.89697730 0.17878500
vn -0.01017500 0.58549380 0.81061300
vn 0.00000000 0.93116020 0.36461020
vn 0.00000000 0.72667900 0.68697720
vn 0.00000000 0.72667900 0.68697720
vn 0.00000000 0.93116020 0.36461020
vn 0.00000000 0.99999170 0.00408265
vn 0.00000000 0.99999170 0.00408265
vn 0.00000000 1.00000000 0.00000000
vn 0.00000000 1.00000000 0.00000000
vn 0.00000000 1.00000000 0.00000000
vn 0.00000000 1.00000000 0.00000000
vn 0.00000000 1.00000000 0.00000000
vn 0.00000000 1.00000000 0.00000000
vn 0.00000000 1.00000000 0.00000000
vn 0.00000000 1.00000000 0.00000000
vn 0.00000000 0.99999170 0.00408267
vn 0.00000000 0.99999170 0.00408267
vn 0.00000000 0.93115990 0.36461110
vn 0.00000000 0.93115990 0.36461110
vn 0.00000000 0.72667900 0.68697720
vn 0.00000000 0.72667900 0.68697720
vn 0.00000000 0.40140840 0.91589920
vn 0.00000000 0.40140840 0.91589920
vn 0.00000000 0.40140840 0.91589920
vn 0.00000000 0.01603230 0.99987150
vn 0.00000000 0.40140840 0.91589920
vn 0.00000000 0.01603230 0.99987150
vn 0.00000000 0.00000000 1.00000000
vn 0.00000000 0.12959050 0.99156760
vn 0.00000000 0.12959220 0.99156730
vn 0.00000000 0.00000000 1.00000000
vn 0.00000000 0.01603231 0.99987150
vn 0.00000000 0.01603231 0.99987150
vn 0.00000000 0.40140830 0.91589920
vn 0.00000000 0.40140830 0.91589920
vn 0.00000000 0.40140830 0.91589920
vn 0.00000000 0.40140830 0.91589920
vt -88.45274000 -111.55160000
vt -88.45274000 -111.55160000
vt -88.45274000 -111.55160000
vt -88.45274000 -111.55160000
vt -90.98575000 2.45739200
vt -91.03232000 2.51078600
vt -89.57044000 2.48845800
vt -90.02137000 2.30998700
vt -90.02137000 2.28555100
vt -91.25872000 2.28555100
vt -91.25872000 2.30998700
vt -91.28458000 2.28555100
vt -90.19865000 2.28554800
vt -90.19865000 2.30998400
vt -90.17279000 2.28554800
vt -91.06798000 1.37868100
vt -91.06768000 1.34040900
vt -91.07721000 1.34040900
vt -90.17279000 -0.12872310
vt -90.19865000 -0.12872310
vt -91.74671000 0.37076520
vt -91.74671000 2.38521100
vt -90.49773000 2.38727500
vt -90.49773000 0.36870070
vt -90.46276000 0.38527350
vt -90.46276000 2.37070200
vt -90.44157000 0.40955950
vt -90.44157000 2.34641600
vt -90.42706000 0.44968500
vt -90.42706000 2.30629100
vt -89.55252000 0.21817990
vt -91.04292000 0.21817990
vt -91.03232000 0.23038650
vt -89.56319000 0.23038650
vt -89.57044000 0.25271330
vt -90.98575000 0.28377890
vt -89.64212000 0.29180290
vt -90.94754000 0.29180290
vt -91.55830000 2.31513700
vt -91.53251000 0.43526410
vt -91.55830000 0.44596090
vt -91.53251000 2.32583200
vt -90.29847000 0.43526410
vt -91.53251000 0.39486590
vt -90.29847000 0.39486590
vt -90.29847000 2.32583200
vt -90.29847000 2.36623000
vt -91.53251000 2.36623000
vt -90.94754000 2.44936900
vt -90.97875000 2.41360900
vt -90.97875000 0.32756270
vt -91.04292000 2.52299200
vt -91.04292000 0.21817990
vt -91.04292000 2.52299200
vt -89.55252000 2.52299200
vt -89.56319000 2.51078600
vt -89.64212000 2.44936900
vt -90.29847000 2.32583200
vt -90.28812000 2.33077300
vt -90.28812000 0.43032500
vt -90.29847000 0.43526410
vt -90.29847000 0.39486590
vt -90.14622000 0.92957260
vt -90.14622000 0.90490920
vt -91.39489000 0.90490920
vt -91.39489000 0.92957260
vt -91.42097000 0.92957260
vt -91.24878000 0.89246280
vt -91.24878000 0.91712670
vt -90.00011000 0.91712670
vt -90.00011000 0.89246280
vt -89.97403000 0.91712670
vt -90.29847000 2.36623000
vt -90.29847000 2.40580700
vt -90.28812000 2.41773400
vt -90.28812000 2.37117100
vt -91.06412000 0.32100440
vt -91.07439000 0.30909240
vt -91.07439000 0.34398910
vt -91.06412000 0.34892370
vt -91.07439000 2.37969100
vt -91.06412000 2.37475700
vt -91.07439000 2.41458800
vt -91.06412000 2.40267600
vt -91.24878000 2.19888000
vt -91.24878000 0.91712670
vt -91.25921000 0.91276500
vt -91.25921000 2.20323800
vt -90.14622000 0.92957260
vt -90.14622000 2.21132500
vt -90.13579000 2.21568300
vt -90.13579000 0.92521150
vt -90.29847000 0.35528930
vt -90.28812000 0.38992580
vt -90.28812000 0.34336410
vt -91.55830000 2.35553400
vt -91.55830000 2.37998500
vt -91.53251000 2.40580700
vt -91.55830000 0.38111230
vt -91.53251000 0.35528930
vt -91.55830000 0.40556280
vt -91.42097000 2.20188900
vt -91.39489000 2.21132500
vt -89.97403000 2.18944400
vt -90.00011000 2.19888000
vt -89.50500000 0.24074880
vt -89.51566000 0.25295520
vt -89.48534000 0.29523590
vt -89.49601000 0.30744340
vt -89.48534000 2.44593700
vt -89.49601000 2.43373000
vt -89.50500000 2.50042300
vt -89.51566000 2.48821600
vt -89.54013000 2.44046400
vt -89.55734000 0.28098400
vt -89.60603000 0.30893060
vt -89.54341000 0.28476120
vt -89.54013000 0.30070780
vt -89.56447000 0.35659090
vt -89.51546000 0.31579260
vt -89.54957000 0.39794310
vt -89.54957000 2.34322900
vt -89.51546000 2.42537800
vt -89.56447000 2.38457900
vt -89.60603000 2.43224100
vt -89.55734000 2.46018700
vt -89.54341000 2.45641000
vt -90.00011000 2.19888000
vt -90.00011000 0.91712670
vt -91.24878000 0.91712670
vt -91.24878000 2.19888000
vt -90.00011000 2.23452000
vt -89.80567000 2.37475700
vt -89.80567000 0.34892370
vt -89.83144000 0.34892370
vt -89.83144000 2.37475700
vt -91.39489000 0.92957260
vt -90.14622000 2.21132500
vt -90.14622000 0.92957260
vt -91.39489000 2.21132500
vt -90.14622000 2.24696600
vt -91.39489000 2.24696600
vt -90.14622000 2.28188300
vt -91.39489000 2.28188300
vt -91.06412000 0.34892370
vt -91.06412000 2.37475700
vt -91.24878000 2.23452000
vt -91.24878000 2.26943700
vt -90.00011000 2.26943700
vt -89.97403000 2.22508400
vt -91.42097000 2.23753000
vt -90.13579000 2.25132400
vt -90.14622000 2.24696600
vt -91.25921000 2.23887800
vt -91.24878000 2.23452000
vt -91.18824000 2.28631100
vt -90.75884000 2.28631100
vt -90.75884000 0.90420210
vt -91.18824000 0.90420210
vt -90.71004000 0.90418180
vt -91.11870000 0.90418180
vt -91.11870000 2.28633100
vt -90.71004000 2.28633100
vt -90.99918000 1.61485900
vt -91.04942000 1.61485900
vt -91.04942000 2.04421900
vt -90.99918000 2.04421900
vt -90.98965000 1.62522200
vt -90.98965000 2.03385600
vt -90.90031000 0.87845110
vt -90.90031000 2.31206200
vt -90.84824000 2.31206200
vt -90.84824000 0.87845110
vt -91.02618000 2.04425300
vt -90.97601000 2.04425300
vt -90.97601000 1.61482500
vt -91.02618000 1.61482500
vt -91.03577000 2.03388800
vt -91.03577000 1.62519000
vt -90.84452000 2.31211400
vt -90.84452000 0.87839880
vt -90.89658000 0.87839880
vt -90.89658000 2.31211400
vt -90.83460000 0.87839880
vt -90.84452000 0.87839880
vt -90.84452000 2.31211400
vt -90.83460000 2.31211400
vt -90.91022000 2.31206200
vt -90.90031000 2.31206200
vt -90.90031000 0.87845110
vt -90.91022000 0.87845110
vt -92.07310000 2.34829000
vt -92.10885000 2.31713000
vt -92.17020000 2.40180500
vt -92.17020000 -0.13954110
vt -92.10885000 -0.16093860
vt -92.18240000 2.41244100
vt -92.14505000 -0.19251300
vt -92.18240000 -0.15249170
vt -92.15801000 -0.20382560
vt -92.08427000 -0.21445380
vt -92.09916000 -0.22508990
vt -91.72171000 -0.22508990
vt -91.72171000 -0.21445380
vt -91.72171000 -0.16093860
vt -91.26108000 -0.22508990
vt -91.26108000 -0.21445380
vt -91.26108000 -0.16093860
vt -90.80045000 -0.22508990
vt -90.80045000 -0.21445380
vt -90.80045000 -0.16093860
vt -90.33975000 -0.16093860
vt -90.33975000 -0.21445380
vt -90.33975000 -0.22508990
vt -89.95267000 -0.16093860
vt -89.97726000 -0.21445380
vt -89.96237000 -0.22508990
vt -89.91648000 -0.19251300
vt -89.90352000 -0.20382560
vt -89.89132000 -0.13954110
vt -89.87913000 -0.15249170
vt -89.89132000 2.40180500
vt -89.87913000 2.41244100
vt -89.95267000 2.31713000
vt -89.98843000 2.34829000
vt -91.43600000 2.28554800
vt -91.43600000 2.30998400
vt -89.99434000 2.40282400
vt -91.22225000 2.03817900
vt -91.22225000 2.40282400
vt -89.99434000 2.03817900
vt -89.96868000 2.37501500
vt -91.22225000 1.59010400
vt -89.96868000 2.03817900
vt -89.99434000 1.59010400
vt -89.96868000 1.59010400
vt -91.22225000 1.14203100
vt -89.99434000 1.14203100
vt -89.96868000 1.14203100
vt -89.96868000 0.69395470
vt -89.99434000 0.69395470
vt -91.22225000 0.69395470
vt -91.22225000 0.32930970
vt -89.99434000 0.32930970
vt -89.96868000 0.35712060
vt -90.13121000 2.40784500
vt -90.12092000 2.41976800
vt -90.12092000 2.38483900
vt -90.13121000 2.37990000
vt -90.13121000 0.35223660
vt -90.12092000 0.34729660
vt -90.12092000 0.31236840
vt -90.13121000 0.32429110
vt -91.23249000 0.31744530
vt -91.22225000 0.69395470
vt -91.22225000 0.32930970
vt -91.23249000 0.69395470
vt -91.23249000 1.14203100
vt -91.22225000 1.14203100
vt -91.22225000 1.59010400
vt -91.23249000 1.59010400
vt -91.22225000 2.03817900
vt -91.23249000 2.03817900
vt -91.22225000 2.40282400
vt -91.23249000 2.41469100
vt -91.35606000 1.93615000
vt -90.92664000 1.35285700
vt -91.35606000 1.35285700
vt -90.92664000 1.93615000
vt -90.94447000 1.97294500
vt -91.33817000 1.97294500
vt -90.87770000 1.38963800
vt -91.28637000 1.97296000
vt -90.87770000 1.97296000
vt -91.28637000 1.38963800
vt -91.26972000 1.35284100
vt -90.89434000 1.35284100
vt -90.95866000 1.63058500
vt -91.00787000 1.63058500
vt -91.00787000 2.02412200
vt -90.95866000 2.02412200
vt -90.94950000 1.63971800
vt -90.94950000 2.01498900
vt -91.06798000 1.98539300
vt -91.01577000 1.98539300
vt -91.01577000 1.37868100
vt -91.01648000 1.34040900
vt -91.01260000 2.04430600
vt -90.96241000 2.04430600
vt -90.96241000 1.61477200
vt -91.01260000 1.61477200
vt -91.02213000 2.03393800
vt -91.02213000 1.62514000
vt -91.01207000 1.98540300
vt -91.06428000 1.37867100
vt -91.06428000 1.98540300
vt -91.01207000 1.37867100
vt -91.06357000 1.34039800
vt -91.01237000 1.34039800
vt -91.00213000 1.37867100
vt -91.01207000 1.98540300
vt -91.00213000 1.98540300
vt -91.00284000 1.34039800
vt -91.07792000 1.98539300
vt -91.06798000 1.98539300
vt -91.07792000 1.37868100
vt -90.19865000 2.28554800
vt -90.19865000 -0.12872310
vt -91.43600000 -0.12872310
vt -91.43600000 2.28554800
vt -90.02137000 2.28555100
vt -90.02137000 -0.12872650
vt -91.25872000 -0.12872650
vt -91.25872000 2.28555100
vt -91.25872000 -0.12872650
vt -91.28458000 -0.12872650
vt -91.43600000 -0.12872310
vt -91.44633000 -0.13914870
vt -91.44633000 2.28986600
vt -91.43600000 2.28554800
vt -90.01103000 -0.13915210
vt -90.02137000 -0.12872650
vt -90.02137000 2.28555100
vt -90.01103000 2.28987000
vt -90.12092000 0.69070050
vt -90.13121000 0.69070050
vt -90.13121000 1.14094700
vt -90.12092000 1.14094700
vt -90.12092000 1.59119000
vt -90.13121000 1.59119000
vt -90.12092000 2.04143400
vt -90.13121000 2.04143400
vt -90.33975000 2.41244100
vt -89.87913000 2.41244100
vt -90.33975000 2.40180500
vt -90.80045000 2.40180500
vt -90.80045000 2.41244100
vt -91.26108000 2.41244100
vt -91.26108000 2.40180500
vt -91.72171000 2.41244100
vt -91.72171000 2.40180500
vt -92.18240000 2.41244100
vt -90.33975000 2.34829000
vt -90.80045000 2.34829000
vt -91.26108000 2.34829000
vt -91.72171000 2.34829000
vt -91.39084000 2.04143400
vt -91.39084000 2.37990000
vt -91.36506000 2.37990000
vt -91.36506000 2.04143400
vt -90.13121000 2.37990000
vt -91.39084000 1.59119000
vt -90.13121000 2.04143400
vt -91.36506000 1.59119000
vt -90.13121000 1.59119000
vt -91.39084000 1.14094700
vt -91.36506000 1.14094700
vt -90.13121000 1.14094700
vt -90.13121000 0.69070050
vt -91.36506000 0.69070050
vt -91.39084000 0.69070050
vt -91.39084000 0.35223660
vt -91.36506000 0.35223660
vt -90.13121000 0.35223660
vt -91.11382000 2.28431600
vt -91.45156000 -0.11770840
vt -91.45156000 2.28431600
vt -91.11382000 -0.11770840
vt -91.09898000 -0.08043122
vt -91.09898000 2.27135000
vt -90.67950000 2.27135000
vt -90.67950000 -0.08043122
vt -90.66460000 -0.11770840
vt -90.66460000 2.28431600
vt -90.21538000 2.28431600
vt -90.21538000 -0.11770840
vt -90.20049000 -0.08043122
vt -90.20049000 2.27135000
vt -89.78099000 2.27135000
vt -89.78099000 -0.08043122
vt -89.76609000 -0.11770840
vt -89.76609000 2.28431600
vt -89.42841000 -0.11770840
vt -89.42841000 2.28431600
vt -91.40282000 0.70560500
vt -91.40282000 1.12604200
vt -91.40282000 1.60609400
vt -91.40282000 2.02653100
vt -90.94351000 1.75784900
vt -90.96209000 1.75450000
vt -90.98067000 1.75784900
vt -90.92711000 1.76749700
vt -90.99707000 1.76749700
vt -90.91495000 1.78227600
vt -91.00923000 1.78227600
vt -90.90853000 1.80040600
vt -91.01565000 1.80040600
vt -90.90853000 1.81970000
vt -91.01565000 1.81970000
vt -90.91495000 1.83783000
vt -91.00923000 1.83783000
vt -90.92711000 1.85261000
vt -90.99707000 1.85261000
vt -90.94351000 1.86225800
vt -90.98067000 1.86225800
vt -90.96209000 1.86560800
vt -90.89757000 1.80902100
vt -90.89757000 1.78822600
vt -90.97012000 1.78822600
vt -90.97012000 1.80902100
vt -90.89757000 1.82981500
vt -90.97012000 1.82981500
vt -90.89757000 1.84810000
vt -90.97012000 1.84810100
vt -90.89757000 1.76994000
vt -90.97012000 1.76994000
vt -90.89757000 1.75636800
vt -90.97012000 1.75636800
vt -90.92612000 1.83782200
vt -90.90717000 1.76978900
vt -90.92612000 1.76978900
vt -90.90717000 1.83782200
vt -90.88691000 1.76978900
vt -90.88691000 1.83782200
vt -90.86789000 1.76978900
vt -90.86789000 1.83782200
vt -90.97620000 1.75631500
vt -90.97620000 1.76990100
vt -90.90358000 1.76990200
vt -90.90358000 1.75631600
vt -90.90358000 1.78820600
vt -90.97620000 1.78820600
vt -90.90358000 1.80902200
vt -90.97620000 1.80902200
vt -90.90358000 1.82983700
vt -90.97620000 1.82983700
vt -90.90358000 1.84814100
vt -90.97620000 1.84814000
vt -90.97620000 1.86172700
vt -90.90358000 1.86172800
vt -90.85420000 1.77869500
vt -90.87325000 1.84683300
vt -90.85420000 1.84683300
vt -90.87325000 1.77869500
vt -90.89348000 1.84683300
vt -90.89348000 1.77869500
vt -90.91251000 1.84683300
vt -90.91251000 1.77869500
vt -90.89757000 1.86167300
vt -90.97012000 1.86167400
vt -90.86974000 1.82480200
vt -90.86695000 1.80955200
vt -90.86974000 1.79430300
vt -90.87759000 1.83821100
vt -90.87759000 1.78089300
vt -90.88975000 1.84816400
vt -90.86929000 1.84506200
vt -90.88431000 1.85739500
vt -90.88975000 1.77094000
vt -90.90457000 1.85346100
vt -90.88431000 1.76170900
vt -90.86929000 1.77404300
vt -90.90457000 1.76564500
vt -90.92039000 1.85346100
vt -90.92039000 1.76564500
vt -90.93528000 1.84816400
vt -90.93528000 1.77094000
vt -90.94737000 1.83821100
vt -90.94072000 1.85739500
vt -90.95573000 1.84506200
vt -90.94737000 1.78089300
vt -90.95529000 1.82480200
vt -90.95573000 1.77404300
vt -90.94072000 1.76171100
vt -90.95529000 1.79430300
vt -90.95802000 1.80955200
vt -90.89757000 1.78822600
vt -90.88803000 1.77747900
vt -90.89757000 1.76994000
vt -90.88803000 1.79223800
vt -90.89757000 1.80902100
vt -90.88803000 1.80902000
vt -90.89757000 1.82981500
vt -90.88803000 1.82580300
vt -90.89757000 1.84810000
vt -90.88803000 1.84056000
vt -90.92612000 1.83782200
vt -90.92050000 1.84677300
vt -90.90520000 1.84677300
vt -90.90717000 1.83782200
vt -90.88887000 1.84677300
vt -90.88691000 1.83782200
vt -90.87350000 1.84677300
vt -90.86789000 1.83782200
vt -90.97620000 1.76990100
vt -90.98575000 1.77744800
vt -90.98575000 1.79222200
vt -90.97620000 1.78820600
vt -90.98575000 1.80902100
vt -90.97620000 1.80902200
vt -90.98575000 1.82582100
vt -90.97620000 1.82983700
vt -90.98575000 1.84059300
vt -90.97620000 1.84814000
vt -90.85420000 1.77869500
vt -90.85983000 1.76973000
vt -90.87521000 1.76973000
vt -90.87325000 1.77869500
vt -90.89150000 1.76973000
vt -90.89348000 1.77869500
vt -90.90689000 1.76973000
vt -90.91251000 1.77869500
vt -90.80572000 2.30836700
vt -89.90428000 2.30836700
vt -89.90428000 2.10958300
vt -90.80572000 2.10958300
vt -90.33046000 0.98588840
vt -90.68978000 0.98588840
vt -90.68978000 2.16428900
vt -90.39034000 2.16428900
vt -90.36743000 2.15946400
vt -90.34800000 2.14573000
vt -90.33501000 2.12518000
vt -90.33046000 2.10093300
vt -90.33968000 0.97300600
vt -90.63911000 0.97300600
vt -90.63911000 2.15137500
vt -90.27979000 2.15137500
vt -90.31676000 0.97783110
vt -90.29733000 0.99156480
vt -90.28435000 1.01211500
vt -90.27979000 1.03636100
vt -90.80572000 1.16252000
vt -89.90428000 2.09543700
vt -89.90428000 1.16252000
vt -90.80572000 2.09543700
vt -89.89480000 2.10022900
vt -90.81520000 2.10022900
vt -90.69961000 2.29393700
vt -90.72216000 2.30879700
vt -90.46537000 2.30879700
vt -90.68510000 2.26836700
vt -90.67788000 1.36363400
vt -90.40543000 1.17478100
vt -90.44243000 2.30396800
vt -90.42298000 2.29022100
vt -90.40999000 2.26965400
vt -90.40543000 2.24538600
vt -91.45564000 1.26691600
vt -90.48928000 1.23883200
vt -91.44864000 1.23883200
vt -90.48228000 1.26691600
vt -90.49915000 1.28318400
vt -90.49915000 2.25560500
vt -90.48928000 2.26060100
vt -91.43877000 1.28318400
vt -91.44864000 2.26060100
vt -91.43877000 2.25560500
vt -91.44864000 1.22251100
vt -90.48928000 1.22251100
vt -90.51018000 1.16611400
vt -90.76698000 1.16611400
vt -90.74442000 1.18097400
vt -90.72990000 1.20654300
vt -90.72269000 2.11125800
vt -90.45024000 2.30010800
vt -90.48724000 1.17094300
vt -90.46780000 1.18468900
vt -90.45480000 1.20525600
vt -90.45024000 1.22952300
vt -91.01615000 1.26826100
vt -91.01615000 2.21538100
vt -90.65737000 2.21538100
vt -90.65737000 1.26826100
vt -89.88915000 1.00009300
vt -89.89806000 0.99143740
vt -90.84525000 0.99143740
vt -90.85423000 1.00009300
vt -89.88915000 2.17659700
vt -90.85423000 2.17659700
vt -90.33046000 0.98588840
vt -90.33046000 0.97721740
vt -90.68978000 0.97721740
vt -90.68978000 0.98588840
vt -90.63911000 2.15137500
vt -90.63911000 2.16004500
vt -90.27979000 2.16004500
vt -90.27979000 2.15137500
vt -90.67823000 1.35475700
vt -90.67788000 1.36363400
vt -90.40543000 1.17478100
vt -90.40543000 1.16610300
vt -90.45024000 2.30878600
vt -90.45024000 2.30010800
vt -90.72269000 2.11125800
vt -90.72304000 2.12013500
vt -90.81520000 1.14555600
vt -90.81520000 1.12388500
vt -90.86470000 1.12388500
vt -90.86470000 1.14555600
vt -90.81520000 1.17112800
vt -90.86470000 1.17112800
vt -90.86470000 2.34705100
vt -90.81520000 2.29922400
vt -90.80572000 2.30836700
vt -90.85522000 2.35619400
vt -89.90428000 2.30836700
vt -89.85471000 2.35619400
vt -89.89480000 2.29922400
vt -89.84530000 2.34705100
vt -89.84530000 1.17112800
vt -89.89480000 1.17112800
vt -89.89480000 1.14555600
vt -89.84530000 1.14555600
vt -89.89480000 1.12388500
vt -89.84530000 1.12388500
vt -90.81520000 1.10940000
vt -90.86470000 1.10940000
vt -90.58244000 2.17500000
vt -90.60532000 2.22189100
vt -90.58244000 2.22189100
vt -90.60532000 2.17500000
vt -90.90437000 2.22189100
vt -90.86154000 2.17500000
vt -90.86154000 1.30339400
vt -90.90437000 1.25650500
vt -90.60532000 1.25650500
vt -90.60532000 1.30339400
vt -90.58244000 1.25650500
vt -90.58244000 1.30339400
vt -89.84530000 1.10940000
vt -89.89480000 1.10940000
vt -90.92999000 2.31547300
vt -90.02851000 2.31547300
vt -90.02851000 2.11669600
vt -90.92999000 2.11669600
vt -90.10438000 0.99916650
vt -90.46371000 0.99916650
vt -90.46371000 2.17753700
vt -90.16427000 2.17753700
vt -90.14135000 2.17271200
vt -90.12192000 2.15897800
vt -90.10894000 2.13842800
vt -90.10438000 2.11418200
vt -90.11359000 0.99049940
vt -90.41303000 0.99049940
vt -90.41303000 2.16886400
vt -90.05370000 2.16886400
vt -90.09068000 0.99532450
vt -90.07125000 1.00905800
vt -90.05827000 1.02960800
vt -90.05370000 1.05385500
vt -90.92999000 1.16967200
vt -90.02851000 2.10255100
vt -90.02851000 1.16967200
vt -90.92999000 2.10255100
vt -90.01904000 2.10734200
vt -90.93946000 2.10734200
vt -90.78923000 2.29395200
vt -90.81179000 2.30881300
vt -90.55499000 2.30881300
vt -90.77472000 2.26838200
vt -90.76750000 1.36362400
vt -90.49506000 1.17476500
vt -90.53206000 2.30398400
vt -90.51261000 2.29023700
vt -90.49962000 2.26966900
vt -90.49506000 2.24540000
vt -91.57002000 1.08864100
vt -90.60373000 1.06055900
vt -91.56303000 1.06055900
vt -90.59673000 1.08864100
vt -90.61361000 1.10490700
vt -90.61361000 2.07725500
vt -90.60373000 2.08225100
vt -91.55315000 1.10490700
vt -91.56303000 2.08225100
vt -91.55315000 2.07725500
vt -91.56303000 1.04423900
vt -90.60373000 1.04423900
vt -90.59981000 1.17856000
vt -90.85660000 1.17856000
vt -90.83405000 1.19342000
vt -90.81953000 1.21898900
vt -90.81232000 2.12370600
vt -90.53987000 2.31255600
vt -90.57687000 1.18338900
vt -90.55743000 1.19713400
vt -90.54443000 1.21770200
vt -90.53987000 1.24196900
vt -91.06615000 1.26823400
vt -91.06615000 2.21540800
vt -90.70742000 2.21540800
vt -90.70742000 1.26823400
vt -89.74814000 1.14918700
vt -89.75711000 1.14053000
vt -90.70427000 1.14053000
vt -90.71324000 1.14918700
vt -89.74814000 2.32565500
vt -90.71324000 2.32565500
vt -90.10438000 0.99916650
vt -90.10438000 0.99049730
vt -90.46371000 0.99049730
vt -90.46371000 0.99916650
vt -90.41303000 2.16886400
vt -90.41303000 2.17753500
vt -90.05370000 2.17753500
vt -90.05370000 2.16886400
vt -90.76785000 1.35474600
vt -90.76750000 1.36362400
vt -90.49506000 1.17476500
vt -90.49506000 1.16608600
vt -90.53987000 2.32123300
vt -90.53987000 2.31255600
vt -90.81232000 2.12370600
vt -90.81267000 2.13258300
vt -90.93946000 1.15270900
vt -90.93946000 1.13103900
vt -90.98897000 1.13103900
vt -90.98897000 1.15270900
vt -90.93946000 1.17827900
vt -90.98897000 1.17827900
vt -90.98897000 2.35415400
vt -90.93946000 2.30632900
vt -90.92999000 2.31547300
vt -90.97948000 2.36329800
vt -90.02851000 2.31547300
vt -89.97901000 2.36329800
vt -90.01904000 2.30632900
vt -89.96953000 2.35415400
vt -89.96953000 1.17827900
vt -90.01904000 1.17827900
vt -90.01904000 1.15270900
vt -89.96953000 1.15270900
vt -90.01904000 1.13103900
vt -89.96953000 1.13103900
vt -90.93946000 1.11655400
vt -90.98897000 1.11655400
vt -90.62793000 2.17511800
vt -90.65081000 2.22202200
vt -90.62793000 2.22202200
vt -90.65081000 2.17511800
vt -90.94995000 2.22202200
vt -90.90717000 2.17511800
vt -90.90717000 1.30327600
vt -90.94995000 1.25637400
vt -90.65081000 1.25637400
vt -90.65081000 1.30327600
vt -90.62793000 1.25637400
vt -90.62793000 1.30327600
vt -89.96953000 1.11655400
vt -90.01904000 1.11655400
f 3/3/3 2/2/2 1/1/1
f 4/4/4 3/3/3 1/1/1
f 7/7/7 6/6/6 5/5/5
f 10/10/10 9/9/9 8/8/8
f 11/11/11 10/10/10 8/8/8
f 12/12/12 10/10/10 11/11/11
f 15/15/15 14/14/14 13/13/13
f 18/18/18 17/17/17 16/16/16
f 20/20/20 19/19/19 15/15/15
f 13/13/13 20/20/20 15/15/15
f 23/23/23 22/22/22 21/21/21
f 24/24/24 23/23/23 21/21/21
f 24/24/24 25/25/25 23/23/23
f 25/25/25 26/26/26 23/23/23
f 25/25/25 27/27/27 26/26/26
f 27/27/27 28/28/28 26/26/26
f 27/27/27 29/29/29 28/28/28
f 29/29/29 30/30/30 28/28/28
f 33/33/33 32/32/32 31/31/31
f 34/34/34 33/33/33 31/31/31
f 33/33/33 34/34/34 35/35/35
f 35/35/35 36/36/36 33/33/33
f 35/35/35 37/37/37 36/36/36
f 37/37/37 38/38/38 36/36/36
f 41/41/41 40/40/40 39/39/39
f 40/40/40 42/42/42 39/39/39
f 40/40/40 43/43/43 42/42/42
f 43/43/43 40/40/40 44/44/44
f 45/45/45 43/43/43 44/44/44
f 43/43/43 46/46/46 42/42/42
f 42/42/42 46/46/46 47/47/47
f 48/48/48 42/42/42 47/47/47
f 50/50/50 49/49/49 5/5/5
f 50/50/50 5/5/5 6/6/6
f 51/51/51 50/50/50 6/6/6
f 36/36/36 51/51/51 6/6/6
f 51/51/51 36/36/36 38/38/38
f 6/6/6 33/33/33 36/36/36
f 33/33/33 6/6/6 52/52/52
f 53/53/53 33/33/33 52/52/52
f 56/56/56 55/55/55 54/54/54
f 6/6/6 56/56/56 54/54/54
f 7/7/7 56/56/56 6/6/6
f 49/49/49 57/57/57 7/7/7
f 7/7/7 5/5/5 49/49/49
f 60/60/60 59/59/59 58/58/58
f 61/61/61 60/60/60 58/58/58
f 60/60/60 61/61/61 62/62/62
f 65/65/65 64/64/64 63/63/63
f 66/66/66 65/65/65 63/63/63
f 67/67/67 65/65/65 66/66/66
f 70/70/70 69/69/69 68/68/68
f 71/71/71 70/70/70 68/68/68
f 72/72/72 70/70/70 71/71/71
f 75/75/75 74/74/74 73/73/73
f 76/76/76 75/75/75 73/73/73
f 73/73/73 58/58/58 76/76/76
f 58/58/58 59/59/59 76/76/76
f 79/79/79 78/78/78 77/77/77
f 80/80/80 79/79/79 77/77/77
f 79/79/79 80/80/80 81/81/81
f 80/80/80 82/82/82 81/81/81
f 83/83/83 81/81/81 82/82/82
f 84/84/84 83/83/83 82/82/82
f 87/87/87 86/86/86 85/85/85
f 88/88/88 87/87/87 85/85/85
f 91/91/91 90/90/90 89/89/89
f 92/92/92 91/91/91 89/89/89
f 95/95/95 94/94/94 93/93/93
f 94/94/94 62/62/62 93/93/93
f 94/94/94 60/60/60 62/62/62
f 98/98/98 97/97/97 96/96/96
f 48/48/48 98/98/98 96/96/96
f 48/48/48 96/96/96 39/39/39
f 42/42/42 48/48/48 39/39/39
f 100/100/100 44/44/44 99/99/99
f 44/44/44 101/101/101 99/99/99
f 44/44/44 40/40/40 101/101/101
f 40/40/40 41/41/41 101/101/101
f 103/103/103 102/102/102 67/67/67
f 66/66/66 103/103/103 67/67/67
f 70/70/70 72/72/72 104/104/104
f 105/105/105 70/70/70 104/104/104
f 34/34/34 31/31/31 106/106/106
f 107/107/107 34/34/34 106/106/106
f 107/107/107 106/106/106 108/108/108
f 35/35/35 34/34/34 107/107/107
f 109/109/109 107/107/107 108/108/108
f 109/109/109 108/108/108 110/110/110
f 111/111/111 109/109/109 110/110/110
f 110/110/110 112/112/112 111/111/111
f 112/112/112 113/113/113 111/111/111
f 111/111/111 113/113/113 114/114/114
f 112/112/112 55/55/55 113/113/113
f 55/55/55 56/56/56 113/113/113
f 113/113/113 56/56/56 7/7/7
f 107/107/107 115/115/115 35/35/35
f 35/35/35 115/115/115 37/37/37
f 115/115/115 116/116/116 37/37/37
f 107/107/107 117/117/117 115/115/115
f 116/116/116 115/115/115 117/117/117
f 117/117/117 107/107/107 109/109/109
f 117/117/117 118/118/118 116/116/116
f 109/109/109 118/118/118 117/117/117
f 118/118/118 119/119/119 116/116/116
f 109/109/109 120/120/120 118/118/118
f 119/119/119 118/118/118 120/120/120
f 120/120/120 109/109/109 111/111/111
f 121/121/121 119/119/119 120/120/120
f 111/111/111 121/121/121 120/120/120
f 111/111/111 122/122/122 121/121/121
f 111/111/111 123/123/123 122/122/122
f 114/114/114 123/123/123 111/111/111
f 123/123/123 114/114/114 122/122/122
f 114/114/114 124/124/124 122/122/122
f 125/125/125 124/124/124 114/114/114
f 114/114/114 126/126/126 125/125/125
f 125/125/125 126/126/126 7/7/7
f 57/57/57 125/125/125 7/7/7
f 113/113/113 7/7/7 126/126/126
f 113/113/113 127/127/127 114/114/114
f 126/126/126 127/127/127 113/113/113
f 114/114/114 127/127/127 126/126/126
f 130/130/130 129/129/129 128/128/128
f 131/131/131 130/130/130 128/128/128
f 131/131/131 128/128/128 132/132/132
f 135/135/135 134/134/134 133/133/133
f 136/136/136 135/135/135 133/133/133
f 139/139/139 138/138/138 137/137/137
f 138/138/138 140/140/140 137/137/137
f 140/140/140 138/138/138 141/141/141
f 142/142/142 140/140/140 141/141/141
f 141/141/141 143/143/143 142/142/142
f 143/143/143 144/144/144 142/142/142
f 145/145/145 135/135/135 136/136/136
f 146/146/146 145/145/145 136/136/136
f 149/149/149 148/148/148 147/147/147
f 132/132/132 149/149/149 147/147/147
f 147/147/147 131/131/131 132/132/132
f 150/150/150 132/132/132 105/105/105
f 104/104/104 150/150/150 105/105/105
f 142/142/142 151/151/151 102/102/102
f 103/103/103 142/142/142 102/102/102
f 90/90/90 91/91/91 152/152/152
f 153/153/153 90/90/90 152/152/152
f 155/155/155 154/154/154 88/88/88
f 85/85/85 155/155/155 88/88/88
f 158/158/158 157/157/157 156/156/156
f 159/159/159 158/158/158 156/156/156
f 162/162/162 161/161/161 160/160/160
f 163/163/163 162/162/162 160/160/160
f 166/166/166 165/165/165 164/164/164
f 164/164/164 167/167/167 166/166/166
f 164/164/164 168/168/168 167/167/167
f 168/168/168 169/169/169 167/167/167
f 172/172/172 171/171/171 170/170/170
f 173/173/173 172/172/172 170/170/170
f 176/176/176 175/175/175 174/174/174
f 174/174/174 177/177/177 176/176/176
f 174/174/174 178/178/178 177/177/177
f 178/178/178 179/179/179 177/177/177
f 182/182/182 181/181/181 180/180/180
f 183/183/183 182/182/182 180/180/180
f 186/186/186 185/185/185 184/184/184
f 187/187/187 186/186/186 184/184/184
f 190/190/190 189/189/189 188/188/188
f 191/191/191 190/190/190 188/188/188
f 194/194/194 193/193/193 192/192/192
f 194/194/194 195/195/195 193/193/193
f 195/195/195 196/196/196 193/193/193
f 194/194/194 197/197/197 195/195/195
f 195/195/195 198/198/198 196/196/196
f 197/197/197 199/199/199 195/195/195
f 198/198/198 195/195/195 199/199/199
f 200/200/200 198/198/198 199/199/199
f 201/201/201 198/198/198 200/200/200
f 202/202/202 201/201/201 200/200/200
f 198/198/198 201/201/201 196/196/196
f 201/201/201 202/202/202 203/203/203
f 196/196/196 201/201/201 204/204/204
f 204/204/204 201/201/201 203/203/203
f 205/205/205 196/196/196 204/204/204
f 204/204/204 203/203/203 206/206/206
f 205/205/205 204/204/204 207/207/207
f 207/207/207 204/204/204 206/206/206
f 208/208/208 205/205/205 207/207/207
f 207/207/207 206/206/206 209/209/209
f 208/208/208 207/207/207 210/210/210
f 210/210/210 207/207/207 209/209/209
f 211/211/211 208/208/208 210/210/210
f 211/211/211 210/210/210 212/212/212
f 210/210/210 209/209/209 213/213/213
f 210/210/210 213/213/213 212/212/212
f 209/209/209 214/214/214 213/213/213
f 215/215/215 212/212/212 213/213/213
f 216/216/216 213/213/213 214/214/214
f 216/216/216 215/215/215 213/213/213
f 217/217/217 216/216/216 214/214/214
f 216/216/216 218/218/218 215/215/215
f 218/218/218 216/216/216 217/217/217
f 219/219/219 218/218/218 217/217/217
f 220/220/220 218/218/218 219/219/219
f 221/221/221 220/220/220 219/219/219
f 218/218/218 220/220/220 215/215/215
f 222/222/222 220/220/220 221/221/221
f 215/215/215 220/220/220 222/222/222
f 223/223/223 222/222/222 221/221/221
f 224/224/224 215/215/215 222/222/222
f 222/222/222 225/225/225 224/224/224
f 226/226/226 13/13/13 14/14/14
f 227/227/227 226/226/226 14/14/14
f 230/230/230 229/229/229 228/228/228
f 229/229/229 231/231/231 228/228/228
f 228/228/228 231/231/231 232/232/232
f 231/231/231 229/229/229 233/233/233
f 231/231/231 234/234/234 232/232/232
f 235/235/235 231/231/231 233/233/233
f 234/234/234 231/231/231 235/235/235
f 236/236/236 234/234/234 235/235/235
f 235/235/235 233/233/233 237/237/237
f 236/236/236 235/235/235 238/238/238
f 238/238/238 235/235/235 237/237/237
f 239/239/239 236/236/236 238/238/238
f 239/239/239 238/238/238 240/240/240
f 238/238/238 237/237/237 241/241/241
f 238/238/238 241/241/241 240/240/240
f 237/237/237 242/242/242 241/241/241
f 241/241/241 242/242/242 243/243/243
f 244/244/244 241/241/241 243/243/243
f 240/240/240 241/241/241 244/244/244
f 245/245/245 240/240/240 244/244/244
f 248/248/248 247/247/247 246/246/246
f 249/249/249 248/248/248 246/246/246
f 252/252/252 251/251/251 250/250/250
f 253/253/253 252/252/252 250/250/250
f 256/256/256 255/255/255 254/254/254
f 255/255/255 257/257/257 254/254/254
f 258/258/258 257/257/257 255/255/255
f 259/259/259 258/258/258 255/255/255
f 259/259/259 260/260/260 258/258/258
f 260/260/260 261/261/261 258/258/258
f 260/260/260 262/262/262 261/261/261
f 262/262/262 263/263/263 261/261/261
f 263/263/263 262/262/262 264/264/264
f 265/265/265 263/263/263 264/264/264
f 268/268/268 267/267/267 266/266/266
f 267/267/267 269/269/269 266/266/266
f 269/269/269 270/270/270 266/266/266
f 270/270/270 271/271/271 266/266/266
f 274/274/274 273/273/273 272/272/272
f 273/273/273 275/275/275 272/272/272
f 275/275/275 276/276/276 272/272/272
f 276/276/276 277/277/277 272/272/272
f 280/280/280 279/279/279 278/278/278
f 278/278/278 281/281/281 280/280/280
f 278/278/278 282/282/282 281/281/281
f 282/282/282 283/283/283 281/281/281
f 285/285/285 284/284/284 16/16/16
f 286/286/286 285/285/285 16/16/16
f 16/16/16 17/17/17 286/286/286
f 17/17/17 287/287/287 286/286/286
f 290/290/290 289/289/289 288/288/288
f 288/288/288 291/291/291 290/290/290
f 288/288/288 292/292/292 291/291/291
f 292/292/292 293/293/293 291/291/291
f 296/296/296 295/295/295 294/294/294
f 295/295/295 297/297/297 294/294/294
f 295/295/295 298/298/298 297/297/297
f 298/298/298 299/299/299 297/297/297
f 302/302/302 301/301/301 300/300/300
f 301/301/301 297/297/297 300/300/300
f 297/297/297 299/299/299 300/300/300
f 299/299/299 303/303/303 300/300/300
f 16/16/16 305/305/305 304/304/304
f 306/306/306 16/16/16 304/304/304
f 306/306/306 18/18/18 16/16/16
f 309/309/309 308/308/308 307/307/307
f 310/310/310 309/309/309 307/307/307
f 313/313/313 312/312/312 311/311/311
f 314/314/314 313/313/313 311/311/311
f 12/12/12 316/316/316 315/315/315
f 10/10/10 12/12/12 315/315/315
f 319/319/319 318/318/318 317/317/317
f 320/320/320 319/319/319 317/317/317
f 323/323/323 322/322/322 321/321/321
f 324/324/324 323/323/323 321/321/321
f 250/250/250 251/251/251 325/325/325
f 326/326/326 250/250/250 325/325/325
f 327/327/327 326/326/326 325/325/325
f 328/328/328 327/327/327 325/325/325
f 328/328/328 329/329/329 327/327/327
f 329/329/329 330/330/330 327/327/327
f 329/329/329 331/331/331 330/330/330
f 331/331/331 332/332/332 330/330/330
f 249/249/249 332/332/332 331/331/331
f 248/248/248 249/249/249 331/331/331
f 222/222/222 334/334/334 333/333/333
f 335/335/335 222/222/222 333/333/333
f 336/336/336 335/335/335 333/333/333
f 337/337/337 336/336/336 333/333/333
f 337/337/337 338/338/338 336/336/336
f 338/338/338 339/339/339 336/336/336
f 338/338/338 340/340/340 339/339/339
f 340/340/340 341/341/341 339/339/339
f 194/194/194 341/341/341 340/340/340
f 342/342/342 194/194/194 340/340/340
f 225/225/225 222/222/222 335/335/335
f 343/343/343 225/225/225 335/335/335
f 344/344/344 343/343/343 335/335/335
f 336/336/336 344/344/344 335/335/335
f 336/336/336 339/339/339 344/344/344
f 339/339/339 345/345/345 344/344/344
f 339/339/339 341/341/341 345/345/345
f 341/341/341 346/346/346 345/345/345
f 192/192/192 346/346/346 341/341/341
f 194/194/194 192/192/192 341/341/341
f 349/349/349 348/348/348 347/347/347
f 350/350/350 349/349/349 347/347/347
f 351/351/351 349/349/349 350/350/350
f 350/350/350 347/347/347 352/352/352
f 353/353/353 351/351/351 350/350/350
f 354/354/354 350/350/350 352/352/352
f 353/353/353 350/350/350 354/354/354
f 355/355/355 353/353/353 354/354/354
f 354/354/354 352/352/352 356/356/356
f 355/355/355 354/354/354 357/357/357
f 357/357/357 354/354/354 356/356/356
f 358/358/358 355/355/355 357/357/357
f 358/358/358 357/357/357 359/359/359
f 357/357/357 356/356/356 360/360/360
f 357/357/357 360/360/360 359/359/359
f 356/356/356 361/361/361 360/360/360
f 361/361/361 362/362/362 360/360/360
f 362/362/362 363/363/363 360/360/360
f 360/360/360 363/363/363 359/359/359
f 363/363/363 364/364/364 359/359/359
f 367/367/367 366/366/366 365/365/365
f 366/366/366 368/368/368 365/365/365
f 365/365/365 368/368/368 369/369/369
f 370/370/370 365/365/365 369/369/369
f 371/371/371 370/370/370 369/369/369
f 372/372/372 369/369/369 368/368/368
f 372/372/372 371/371/371 369/369/369
f 373/373/373 372/372/372 368/368/368
f 372/372/372 373/373/373 371/371/371
f 373/373/373 374/374/374 371/371/371
f 374/374/374 373/373/373 375/375/375
f 373/373/373 376/376/376 375/375/375
f 375/375/375 376/376/376 377/377/377
f 378/378/378 375/375/375 377/377/377
f 379/379/379 378/378/378 377/377/377
f 380/380/380 377/377/377 376/376/376
f 380/380/380 379/379/379 377/377/377
f 381/381/381 380/380/380 376/376/376
f 380/380/380 381/381/381 379/379/379
f 381/381/381 382/382/382 379/379/379
f 382/382/382 381/381/381 383/383/383
f 384/384/384 382/382/382 383/383/383
f 386/386/386 385/385/385 361/361/361
f 356/356/356 386/386/386 361/361/361
f 388/388/388 387/387/387 352/352/352
f 347/347/347 388/388/388 352/352/352
f 391/391/391 390/390/390 389/389/389
f 389/389/389 392/392/392 391/391/391
f 392/392/392 393/393/393 391/391/391
f 392/392/392 394/394/394 393/393/393
f 394/394/394 395/395/395 393/393/393
f 394/394/394 396/396/396 395/395/395
f 396/396/396 397/397/397 395/395/395
f 396/396/396 398/398/398 397/397/397
f 398/398/398 399/399/399 397/397/397
f 398/398/398 400/400/400 399/399/399
f 400/400/400 401/401/401 399/399/399
f 400/400/400 402/402/402 401/401/401
f 402/402/402 403/403/403 401/401/401
f 402/402/402 404/404/404 403/403/403
f 404/404/404 405/405/405 403/403/403
f 404/404/404 406/406/406 405/405/405
f 409/409/409 408/408/408 407/407/407
f 410/410/410 409/409/409 407/407/407
f 410/410/410 407/407/407 411/411/411
f 412/412/412 410/410/410 411/411/411
f 412/412/412 411/411/411 413/413/413
f 414/414/414 412/412/412 413/413/413
f 416/416/416 415/415/415 408/408/408
f 409/409/409 416/416/416 408/408/408
f 418/418/418 417/417/417 415/415/415
f 416/416/416 418/418/418 415/415/415
f 421/421/421 420/420/420 419/419/419
f 420/420/420 422/422/422 419/419/419
f 420/420/420 423/423/423 422/422/422
f 423/423/423 424/424/424 422/422/422
f 423/423/423 425/425/425 424/424/424
f 425/425/425 426/426/426 424/424/424
f 429/429/429 428/428/428 427/427/427
f 430/430/430 429/429/429 427/427/427
f 429/429/429 431/431/431 428/428/428
f 431/431/431 432/432/432 428/428/428
f 431/431/431 433/433/433 432/432/432
f 433/433/433 434/434/434 432/432/432
f 433/433/433 435/435/435 434/434/434
f 435/435/435 436/436/436 434/434/434
f 435/435/435 437/437/437 436/436/436
f 437/437/437 438/438/438 436/436/436
f 440/440/440 439/439/439 438/438/438
f 437/437/437 440/440/440 438/438/438
f 443/443/443 442/442/442 441/441/441
f 442/442/442 444/444/444 441/441/441
f 442/442/442 445/445/445 444/444/444
f 445/445/445 446/446/446 444/444/444
f 445/445/445 447/447/447 446/446/446
f 447/447/447 448/448/448 446/446/446
f 414/414/414 413/413/413 449/449/449
f 450/450/450 414/414/414 449/449/449
f 453/453/453 452/452/452 451/451/451
f 451/451/451 454/454/454 453/453/453
f 454/454/454 455/455/455 453/453/453
f 454/454/454 456/456/456 455/455/455
f 456/456/456 454/454/454 457/457/457
f 458/458/458 456/456/456 457/457/457
f 456/456/456 459/459/459 455/455/455
f 456/456/456 460/460/460 459/459/459
f 455/455/455 459/459/459 461/461/461
f 462/462/462 455/455/455 461/461/461
f 460/460/460 463/463/463 459/459/459
f 460/460/460 464/464/464 463/463/463
f 464/464/464 465/465/465 463/463/463
f 464/464/464 466/466/466 465/465/465
f 466/466/466 467/467/467 465/465/465
f 466/466/466 468/468/468 467/467/467
f 468/468/468 466/466/466 469/469/469
f 470/470/470 468/468/468 469/469/469
f 468/468/468 471/471/471 467/467/467
f 468/468/468 472/472/472 471/471/471
f 467/467/467 471/471/471 473/473/473
f 474/474/474 467/467/467 473/473/473
f 472/472/472 475/475/475 471/471/471
f 472/472/472 476/476/476 475/475/475
f 479/479/479 478/478/478 477/477/477
f 478/478/478 480/480/480 477/477/477
f 477/477/477 480/480/480 481/481/481
f 480/480/480 482/482/482 481/481/481
f 481/481/481 482/482/482 483/483/483
f 482/482/482 484/484/484 483/483/483
f 483/483/483 484/484/484 485/485/485
f 484/484/484 486/486/486 485/485/485
f 489/489/489 488/488/488 487/487/487
f 490/490/490 489/489/489 487/487/487
f 491/491/491 489/489/489 490/490/490
f 492/492/492 491/491/491 490/490/490
f 493/493/493 491/491/491 492/492/492
f 494/494/494 493/493/493 492/492/492
f 497/497/497 496/496/496 495/495/495
f 498/498/498 497/497/497 495/495/495
f 499/499/499 497/497/497 498/498/498
f 500/500/500 499/499/499 498/498/498
f 501/501/501 499/499/499 500/500/500
f 502/502/502 501/501/501 500/500/500
f 503/503/503 501/501/501 502/502/502
f 504/504/504 503/503/503 502/502/502
f 507/507/507 506/506/506 505/505/505
f 508/508/508 507/507/507 505/505/505
f 509/509/509 507/507/507 508/508/508
f 510/510/510 509/509/509 508/508/508
f 511/511/511 509/509/509 510/510/510
f 512/512/512 511/511/511 510/510/510
f 515/515/515 514/514/514 513/513/513
f 516/516/516 515/515/515 513/513/513
f 519/519/519 518/518/518 517/517/517
f 517/517/517 520/520/520 519/519/519
f 517/517/517 521/521/521 520/520/520
f 517/517/517 522/522/522 521/521/521
f 517/517/517 523/523/523 522/522/522
f 517/517/517 524/524/524 523/523/523
f 527/527/527 526/526/526 525/525/525
f 525/525/525 528/528/528 527/527/527
f 525/525/525 529/529/529 528/528/528
f 529/529/529 530/530/530 528/528/528
f 530/530/530 531/531/531 528/528/528
f 531/531/531 532/532/532 528/528/528
f 535/535/535 534/534/534 533/533/533
f 534/534/534 536/536/536 533/533/533
f 536/536/536 534/534/534 515/515/515
f 537/537/537 515/515/515 534/534/534
f 516/516/516 536/536/536 515/515/515
f 538/538/538 536/536/536 516/516/516
f 541/541/541 540/540/540 539/539/539
f 539/539/539 542/542/542 541/541/541
f 542/542/542 543/543/543 541/541/541
f 543/543/543 544/544/544 541/541/541
f 544/544/544 545/545/545 541/541/541
f 544/544/544 546/546/546 545/545/545
f 544/544/544 547/547/547 546/546/546
f 544/544/544 548/548/548 547/547/547
f 551/551/551 550/550/550 549/549/549
f 550/550/550 552/552/552 549/549/549
f 552/552/552 553/553/553 549/549/549
f 554/554/554 553/553/553 552/552/552
f 555/555/555 554/554/554 552/552/552
f 553/553/553 556/556/556 549/549/549
f 549/549/549 556/556/556 557/557/557
f 556/556/556 558/558/558 557/557/557
f 550/550/550 551/551/551 559/559/559
f 560/560/560 550/550/550 559/559/559
f 563/563/563 562/562/562 561/561/561
f 561/561/561 564/564/564 563/563/563
f 561/561/561 565/565/565 564/564/564
f 561/561/561 566/566/566 565/565/565
f 561/561/561 567/567/567 566/566/566
f 567/567/567 568/568/568 566/566/566
f 568/568/568 569/569/569 566/566/566
f 569/569/569 570/570/570 566/566/566
f 573/573/573 572/572/572 571/571/571
f 574/574/574 573/573/573 571/571/571
f 577/577/577 576/576/576 575/575/575
f 575/575/575 578/578/578 577/577/577
f 575/575/575 579/579/579 578/578/578
f 579/579/579 580/580/580 578/578/578
f 583/583/583 582/582/582 581/581/581
f 584/584/584 583/583/583 581/581/581
f 587/587/587 586/586/586 585/585/585
f 588/588/588 587/587/587 585/585/585
f 591/591/591 590/590/590 589/589/589
f 592/592/592 591/591/591 589/589/589
f 595/595/595 594/594/594 593/593/593
f 596/596/596 595/595/595 593/593/593
f 599/599/599 598/598/598 597/597/597
f 600/600/600 599/599/599 597/597/597
f 600/600/600 597/597/597 601/601/601
f 602/602/602 600/600/600 601/601/601
f 603/603/603 602/602/602 601/601/601
f 604/604/604 603/603/603 601/601/601
f 604/604/604 605/605/605 603/603/603
f 605/605/605 606/606/606 603/603/603
f 605/605/605 607/607/607 606/606/606
f 607/607/607 608/608/608 606/606/606
f 608/608/608 607/607/607 609/609/609
f 610/610/610 608/608/608 609/609/609
f 611/611/611 610/610/610 609/609/609
f 612/612/612 611/611/611 609/609/609
f 612/612/612 613/613/613 611/611/611
f 613/613/613 614/614/614 611/611/611
f 613/613/613 615/615/615 614/614/614
f 615/615/615 616/616/616 614/614/614
f 618/618/618 617/617/617 598/598/598
f 599/599/599 618/618/618 598/598/598
f 621/621/621 620/620/620 619/619/619
f 620/620/620 622/622/622 619/619/619
f 622/622/622 620/620/620 623/623/623
f 624/624/624 622/622/622 623/623/623
f 625/625/625 624/624/624 623/623/623
f 626/626/626 625/625/625 623/623/623
f 625/625/625 626/626/626 627/627/627
f 628/628/628 625/625/625 627/627/627
f 628/628/628 627/627/627 629/629/629
f 630/630/630 628/628/628 629/629/629
f 632/632/632 631/631/631 616/616/616
f 615/615/615 632/632/632 616/616/616
f 635/635/635 634/634/634 633/633/633
f 636/636/636 635/635/635 633/633/633
f 639/639/639 638/638/638 637/637/637
f 637/637/637 640/640/640 639/639/639
f 637/637/637 641/641/641 640/640/640
f 637/637/637 642/642/642 641/641/641
f 637/637/637 643/643/643 642/642/642
f 637/637/637 644/644/644 643/643/643
f 647/647/647 646/646/646 645/645/645
f 645/645/645 648/648/648 647/647/647
f 645/645/645 649/649/649 648/648/648
f 649/649/649 650/650/650 648/648/648
f 650/650/650 651/651/651 648/648/648
f 651/651/651 652/652/652 648/648/648
f 655/655/655 654/654/654 653/653/653
f 654/654/654 656/656/656 653/653/653
f 656/656/656 654/654/654 635/635/635
f 657/657/657 635/635/635 654/654/654
f 636/636/636 656/656/656 635/635/635
f 658/658/658 656/656/656 636/636/636
f 661/661/661 660/660/660 659/659/659
f 659/659/659 662/662/662 661/661/661
f 662/662/662 663/663/663 661/661/661
f 663/663/663 664/664/664 661/661/661
f 664/664/664 665/665/665 661/661/661
f 664/664/664 666/666/666 665/665/665
f 664/664/664 667/667/667 666/666/666
f 664/664/664 668/668/668 667/667/667
f 671/671/671 670/670/670 669/669/669
f 670/670/670 672/672/672 669/669/669
f 672/672/672 673/673/673 669/669/669
f 674/674/674 673/673/673 672/672/672
f 675/675/675 674/674/674 672/672/672
f 673/673/673 676/676/676 669/669/669
f 669/669/669 676/676/676 677/677/677
f 676/676/676 678/678/678 677/677/677
f 670/670/670 671/671/671 679/679/679
f 680/680/680 670/670/670 679/679/679
f 683/683/683 682/682/682 681/681/681
f 681/681/681 684/684/684 683/683/683
f 681/681/681 685/685/685 684/684/684
f 681/681/681 686/686/686 685/685/685
f 681/681/681 687/687/687 686/686/686
f 687/687/687 688/688/688 686/686/686
f 688/688/688 689/689/689 686/686/686
f 689/689/689 690/690/690 686/686/686
f 693/693/693 692/692/692 691/691/691
f 694/694/694 693/693/693 691/691/691
f 697/697/697 696/696/696 695/695/695
f 695/695/695 698/698/698 697/697/697
f 695/695/695 699/699/699 698/698/698
f 699/699/699 700/700/700 698/698/698
f 703/703/703 702/702/702 701/701/701
f 704/704/704 703/703/703 701/701/701
f 707/707/707 706/706/706 705/705/705
f 708/708/708 707/707/707 705/705/705
f 711/711/711 710/710/710 709/709/709
f 712/712/712 711/711/711 709/709/709
f 715/715/715 714/714/714 713/713/713
f 716/716/716 715/715/715 713/713/713
f 719/719/719 718/718/718 717/717/717
f 720/720/720 719/719/719 717/717/717
f 720/720/720 717/717/717 721/721/721
f 722/722/722 720/720/720 721/721/721
f 723/723/723 722/722/722 721/721/721
f 724/724/724 723/723/723 721/721/721
f 724/724/724 725/725/725 723/723/723
f 725/725/725 726/726/726 723/723/723
f 725/725/725 727/727/727 726/726/726
f 727/727/727 728/728/728 726/726/726
f 728/728/728 727/727/727 729/729/729
f 730/730/730 728/728/728 729/729/729
f 731/731/731 730/730/730 729/729/729
f 732/732/732 731/731/731 729/729/729
f 732/732/732 733/733/733 731/731/731
f 733/733/733 734/734/734 731/731/731
f 733/733/733 735/735/735 734/734/734
f 735/735/735 736/736/736 734/734/734
f 738/738/738 737/737/737 718/718/718
f 719/719/719 738/738/738 718/718/718
f 741/741/741 740/740/740 739/739/739
f 740/740/740 742/742/742 739/739/739
f 742/742/742 740/740/740 743/743/743
f 744/744/744 742/742/742 743/743/743
f 745/745/745 744/744/744 743/743/743
f 746/746/746 745/745/745 743/743/743
f 745/745/745 746/746/746 747/747/747
f 748/748/748 745/745/745 747/747/747
f 748/748/748 747/747/747 749/749/749
f 750/750/750 748/748/748 749/749/749
f 752/752/752 751/751/751 736/736/736
f 735/735/735 752/752/752 736/736/736

