mtllib material.mtl
usemtl material_0
v -0.00050000 0.00001000 0.00051000
v -0.00050000 0.00001000 -0.00050000
v 0.00051000 0.00001000 -0.00050000
v 0.00051000 0.00001000 0.00051000
v 0.09991000 0.03506000 0.04162000
v 0.09803000 0.02879000 0.03059000
v 0.09797000 0.03323000 0.04225000
v -0.03184000 0.08639000 0.00656000
v -0.02994000 0.08830000 -0.00873000
v -0.02992000 0.08830000 0.00557000
v 0.02995000 0.08121000 -0.01583000
v 0.02993000 0.01340000 -0.01583000
v 0.03184000 0.01337000 -0.01394000
v -0.03310000 0.08937000 0.00764000
v -0.03287000 0.01148000 -0.01677000
v -0.02994000 0.01338000 -0.01583000
v -0.03183000 0.01339000 -0.01392000
v 0.03288000 0.01148000 -0.01677000
v 0.03184000 0.01337000 -0.01394000
v 0.02993000 0.01340000 -0.01583000
v 0.03274000 0.01148000 -0.00377000
v 0.02996000 0.01337000 -0.00484000
v 0.03184000 0.01340000 -0.00676000
v -0.03273000 0.01148000 -0.00377000
v -0.03183000 0.01338000 -0.00675000
v -0.02993000 0.01339000 -0.00484000
v -0.09796000 0.03323000 0.04225000
v -0.09798000 0.02881000 0.03063000
v -0.09990000 0.03054000 0.02996000
v -0.09990000 0.03506000 0.04162000
v -0.09802000 0.03574000 0.04342000
v -0.09802000 0.03574000 0.04342000
v 0.09797000 0.03579000 0.04341000
v 0.09797000 0.03323000 0.04225000
v -0.09796000 0.03323000 0.04225000
v -0.09796000 0.15332000 0.00279000
v -0.09990000 0.15258000 0.00100000
v -0.09990000 0.14818000 -0.01065000
v 0.09991000 0.03059000 0.02999000
v 0.09991000 0.14821000 -0.01070000
v 0.09991000 0.15258000 0.00100000
v 0.09797000 0.03579000 0.04341000
v 0.09791000 0.15326000 0.00281000
v 0.09797000 0.15441000 0.00037000
v -0.09806000 0.14995000 -0.01132000
v -0.09796000 0.15441000 0.00037000
v -0.09796000 0.15441000 0.00037000
v 0.09797000 0.15441000 0.00037000
v 0.09791000 0.15326000 0.00281000
v -0.09796000 0.15332000 0.00279000
v 0.09804000 0.14997000 -0.01129000
v -0.09637000 0.03063000 0.02800000
v -0.09684000 0.14649000 -0.01216000
v 0.09685000 0.14649000 -0.01216000
v 0.09637000 0.03063000 0.02800000
v -0.03284000 0.07633000 0.01216000
v -0.03188000 0.07892000 0.00926000
v -0.03183000 0.08630000 -0.00667000
v -0.02994000 0.08561000 -0.01332000
v -0.03184000 0.07908000 0.00038000
v -0.03000000 0.07704000 0.01028000
v -0.02995000 0.07712000 0.00226000
v -0.03184000 0.07636000 -0.00425000
v -0.03183000 0.08356000 -0.01131000
v -0.03183000 0.07911000 -0.01386000
v -0.03183000 0.07194000 -0.00679000
v -0.03183000 0.01339000 -0.01392000
v -0.03183000 0.01338000 -0.00675000
v -0.03273000 0.01148000 -0.00377000
v -0.03287000 0.01148000 -0.01677000
v -0.02992000 0.08830000 0.00557000
v 0.03309000 0.08935000 0.00765000
v -0.03310000 0.08937000 0.00764000
v 0.02993000 0.08830000 0.00557000
v 0.02999000 0.08830000 -0.00877000
v -0.02994000 0.08830000 -0.00873000
v 0.02997000 0.08561000 -0.01334000
v -0.02994000 0.08561000 -0.01332000
v 0.03187000 0.07883000 0.00929000
v 0.02993000 0.07710000 0.00228000
v 0.02999000 0.07696000 0.01032000
v 0.03184000 0.07910000 0.00038000
v 0.02993000 0.07441000 -0.00232000
v 0.03185000 0.08639000 0.00656000
v 0.03281000 0.07623000 0.01219000
v 0.03309000 0.08935000 0.00765000
v 0.02993000 0.08830000 0.00557000
v 0.03184000 0.08634000 -0.00674000
v 0.02999000 0.08830000 -0.00877000
v 0.03184000 0.08358000 -0.01134000
v 0.02997000 0.08561000 -0.01334000
v 0.03184000 0.07637000 -0.00425000
v 0.03184000 0.07911000 -0.01386000
v 0.03184000 0.07194000 -0.00679000
v 0.02993000 0.07000000 -0.00484000
v 0.02996000 0.01337000 -0.00484000
v 0.03184000 0.01340000 -0.00676000
v 0.03288000 0.01148000 -0.01677000
v 0.03274000 0.01148000 -0.00377000
v -0.02994000 0.01338000 -0.01583000
v -0.02994000 0.08121000 -0.01583000
v -0.02994000 0.08121000 -0.01583000
v 0.02997000 0.08561000 -0.01334000
v -0.02994000 0.08561000 -0.01332000
v 0.02995000 0.08121000 -0.01583000
v 0.02993000 0.01340000 -0.01583000
v -0.02994000 0.01338000 -0.01583000
v -0.03287000 0.01148000 -0.01677000
v 0.03288000 0.01148000 -0.01677000
v 0.02993000 0.07000000 -0.00484000
v -0.02993000 0.07441000 -0.00234000
v 0.02993000 0.07441000 -0.00232000
v -0.02992000 0.07001000 -0.00484000
v -0.02993000 0.01339000 -0.00484000
v 0.02996000 0.01337000 -0.00484000
v 0.03274000 0.01148000 -0.00377000
v -0.03273000 0.01148000 -0.00377000
v -0.02992000 0.07001000 -0.00484000
v -0.02993000 0.01339000 -0.00484000
v -0.02993000 0.07441000 -0.00234000
v -0.09806000 0.14995000 -0.01132000
v 0.09804000 0.14997000 -0.01129000
v -0.09798000 0.02881000 0.03063000
v -0.09796000 0.03323000 0.04225000
v 0.09797000 0.03323000 0.04225000
v 0.09803000 0.02879000 0.03059000
v -0.09684000 0.14649000 -0.01216000
v -0.03310000 0.08937000 0.00764000
v 0.03309000 0.08935000 0.00765000
v -0.09637000 0.03063000 0.02800000
v -0.09806000 0.14995000 -0.01132000
v -0.09990000 0.14818000 -0.01065000
v 0.09804000 0.14997000 -0.01129000
v 0.09685000 0.14649000 -0.01216000
v 0.09991000 0.14821000 -0.01070000
v 0.03281000 0.07623000 0.01219000
v 0.09637000 0.03063000 0.02800000
v -0.03284000 0.07633000 0.01216000
v -0.09637000 0.03063000 0.02800000
v -0.09990000 0.03054000 0.02996000
v 0.09637000 0.03063000 0.02800000
v 0.09991000 0.03059000 0.02999000
v 0.03187000 0.07883000 0.00929000
v 0.02999000 0.07696000 0.01032000
v 0.03281000 0.07623000 0.01219000
v -0.03284000 0.07633000 0.01216000
v -0.03000000 0.07704000 0.01028000
v -0.03188000 0.07892000 0.00926000
v -0.02995000 0.07712000 0.00226000
v 0.02993000 0.07710000 0.00228000
v -0.02993000 0.07441000 -0.00234000
v 0.02993000 0.07441000 -0.00232000
v -0.08807000 0.06073000 0.03479000
v -0.08514000 0.06342000 0.03017000
v 0.08510000 0.06345000 0.03016000
v 0.08802000 0.06076000 0.03478000
v 0.08802000 0.06076000 0.03478000
v 0.08510000 0.06345000 0.03016000
v 0.08506000 0.13849000 0.00423000
v 0.08798000 0.14387000 0.00606000
v 0.08798000 0.14387000 0.00606000
v 0.08506000 0.13849000 0.00423000
v -0.08511000 0.13853000 0.00422000
v -0.08803000 0.14392000 0.00604000
v -0.08803000 0.14392000 0.00604000
v -0.08511000 0.13853000 0.00422000
v -0.08514000 0.06342000 0.03017000
v -0.08807000 0.06073000 0.03479000
v -0.09802000 0.03574000 0.04342000
v -0.08807000 0.06073000 0.03479000
v 0.08802000 0.06076000 0.03478000
v 0.09797000 0.03579000 0.04341000
v -0.09796000 0.15332000 0.00279000
v 0.08798000 0.14387000 0.00606000
v -0.08803000 0.14392000 0.00604000
v 0.09791000 0.15326000 0.00281000
vn 0.00000000 1.00000000 0.00000000
vn 0.00000000 1.00000000 0.00000000
vn 0.00000000 1.00000000 0.00000000
vn 0.00000000 1.00000000 0.00000000
vn 0.99155990 0.02962149 0.12621970
vn 0.00917463 -0.97326420 0.22950500
vn 0.00879596 -0.87890540 0.47691490
vn -0.98648110 0.09398973 -0.13424250
vn -0.02828741 0.98928660 -0.14321980
vn -0.03125362 0.99464880 -0.09847405
vn 0.02072403 0.03525935 -0.99916330
vn 0.02989659 0.02204688 -0.99930990
vn 0.97776320 0.02993525 -0.20756440
vn -0.00061290 -0.32442690 -0.94591060
vn -0.00258172 0.99989590 -0.01419656
vn -0.02981151 0.02208495 -0.99931140
vn -0.97782560 0.02965779 -0.20730990
vn 0.00257404 0.99989580 -0.01420090
vn 0.97776320 0.02993525 -0.20756440
vn 0.02989659 0.02204688 -0.99930990
vn 0.00121718 0.99997230 0.00734278
vn 0.03035157 0.02958652 0.99910130
vn 0.98189110 0.03075767 0.18693280
vn -0.00121876 0.99997220 0.00735064
vn -0.98183450 0.03101507 0.18718760
vn -0.03047317 0.02952936 0.99909930
vn -0.00868358 -0.87814080 0.47832340
vn -0.00920658 -0.97355350 0.22827380
vn -0.97910130 -0.07991863 -0.18701270
vn -0.99187400 0.02874572 0.12393430
vn -0.31612520 -0.19083680 0.92932560
vn -0.31612520 -0.19083680 0.92932560
vn 0.31342970 -0.18651980 0.93111340
vn 0.00879596 -0.87890540 0.47691490
vn -0.00868358 -0.87814080 0.47832340
vn -0.31631230 0.74374940 0.58888320
vn -0.99081580 0.05700282 0.12261640
vn -0.98305050 -0.04709261 -0.17718320
vn 0.97889540 -0.08028963 -0.18792930
vn 0.98318820 -0.04689389 -0.17647100
vn 0.99052610 0.05780236 0.12456690
vn 0.31342970 -0.18651980 0.93111340
vn 0.31378650 0.74132770 0.59327170
vn 0.00858208 0.97264240 -0.23214900
vn -0.00904310 0.86463580 -0.50231780
vn -0.00857703 0.97295240 -0.23084640
vn -0.00857703 0.97295240 -0.23084640
vn 0.00858208 0.97264240 -0.23214900
vn 0.31378650 0.74132770 0.59327170
vn -0.31631230 0.74374940 0.58888320
vn 0.00906456 0.86421380 -0.50304310
vn -0.04195940 -0.39743640 -0.91666980
vn -0.03880946 -0.26681110 -0.96296720
vn 0.03901770 -0.26717170 -0.96285870
vn 0.04162705 -0.39792910 -0.91647120
vn -0.00051758 -0.32974970 -0.94406840
vn -0.95655540 -0.23374340 -0.17425760
vn -0.95969000 0.27954410 -0.02915621
vn -0.04062372 0.70572920 -0.70731600
vn -0.99455890 -0.10051910 0.02735908
vn -0.02045917 -0.99255840 -0.12003880
vn -0.04366472 -0.97934940 0.19740320
vn -0.99333940 -0.08204701 0.08090195
vn -0.98353690 0.12742550 -0.12813250
vn -0.93041940 0.00808208 -0.36640750
vn -0.99532300 -0.00689879 0.09635655
vn -0.97782560 0.02965779 -0.20730990
vn -0.98183450 0.03101507 0.18718760
vn -0.00121876 0.99997220 0.00735064
vn -0.00258172 0.99989590 -0.01419656
vn -0.03125362 0.99464880 -0.09847405
vn 0.00062455 -0.32441500 -0.94591460
vn -0.00061290 -0.32442690 -0.94591060
vn 0.03109523 0.99468510 -0.09815640
vn 0.02793473 0.98928580 -0.14329430
vn -0.02828741 0.98928660 -0.14321980
vn 0.03976102 0.70596130 -0.70713330
vn -0.04062372 0.70572920 -0.70731600
vn 0.95639370 -0.23538620 -0.17292910
vn 0.04279505 -0.97944840 0.19710280
vn 0.01865136 -0.99256930 -0.12024290
vn 0.99456170 -0.10050490 0.02730616
vn 0.05037695 -0.70654180 0.70587590
vn 0.98708960 0.09249103 -0.13076600
vn 0.00051255 -0.32975990 -0.94406470
vn 0.00062455 -0.32441500 -0.94591460
vn 0.03109523 0.99468510 -0.09815640
vn 0.96016310 0.27802770 -0.02806275
vn 0.02793473 0.98928580 -0.14329430
vn 0.98392350 0.12478710 -0.12776080
vn 0.03976102 0.70596130 -0.70713330
vn 0.99325480 -0.08230066 0.08167902
vn 0.92973120 0.00791629 -0.36815380
vn 0.99535920 -0.00690056 0.09598114
vn 0.04359642 -0.04047022 0.99822920
vn 0.03035157 0.02958652 0.99910130
vn 0.98189110 0.03075767 0.18693280
vn 0.00257404 0.99989580 -0.01420090
vn 0.00121718 0.99997230 0.00734278
vn -0.02981151 0.02208495 -0.99931140
vn -0.02085167 0.03520285 -0.99916270
vn -0.02085167 0.03520285 -0.99916270
vn 0.03976102 0.70596130 -0.70713330
vn -0.04062372 0.70572920 -0.70731600
vn 0.02072403 0.03525935 -0.99916330
vn 0.02989659 0.02204688 -0.99930990
vn -0.02981151 0.02208495 -0.99931140
vn -0.00258172 0.99989590 -0.01419656
vn 0.00257404 0.99989580 -0.01420090
vn 0.04359642 -0.04047022 0.99822920
vn -0.05030645 -0.70681690 0.70560540
vn 0.05037695 -0.70654180 0.70587590
vn -0.04345624 -0.04053156 0.99823280
vn -0.03047317 0.02952936 0.99909930
vn 0.03035157 0.02958652 0.99910130
vn 0.00121718 0.99997230 0.00734278
vn -0.00121876 0.99997220 0.00735064
vn -0.04345624 -0.04053156 0.99823280
vn -0.03047317 0.02952936 0.99909930
vn -0.05030645 -0.70681690 0.70560540
vn -0.00904310 0.86463580 -0.50231780
vn 0.00906456 0.86421380 -0.50304310
vn -0.00920658 -0.97355350 0.22827380
vn -0.00868358 -0.87814080 0.47832340
vn 0.00879596 -0.87890540 0.47691490
vn 0.00917463 -0.97326420 0.22950500
vn -0.03880946 -0.26681110 -0.96296720
vn -0.00061290 -0.32442690 -0.94591060
vn 0.00062455 -0.32441500 -0.94591460
vn -0.04195940 -0.39743640 -0.91666980
vn -0.00904310 0.86463580 -0.50231780
vn -0.98305050 -0.04709261 -0.17718320
vn 0.00906456 0.86421380 -0.50304310
vn 0.03901770 -0.26717170 -0.96285870
vn 0.98318820 -0.04689389 -0.17647100
vn 0.00051255 -0.32975990 -0.94406470
vn 0.04162705 -0.39792910 -0.91647120
vn -0.00051758 -0.32974970 -0.94406840
vn -0.04195940 -0.39743640 -0.91666980
vn -0.97910130 -0.07991863 -0.18701270
vn 0.04162705 -0.39792910 -0.91647120
vn 0.97889540 -0.08028963 -0.18792930
vn 0.95639370 -0.23538620 -0.17292910
vn 0.01865136 -0.99256930 -0.12024290
vn 0.00051255 -0.32975990 -0.94406470
vn -0.00051758 -0.32974970 -0.94406840
vn -0.02045917 -0.99255840 -0.12003880
vn -0.95655540 -0.23374340 -0.17425760
vn -0.04366472 -0.97934940 0.19740320
vn 0.04279505 -0.97944840 0.19710280
vn -0.05030645 -0.70681690 0.70560540
vn 0.05037695 -0.70654180 0.70587590
vn -0.00011885 0.86404320 0.50341760
vn -0.00011885 0.86404320 0.50341760
vn -0.00011885 0.86404320 0.50341760
vn -0.00011885 0.86404320 0.50341760
vn -0.76604930 0.20961610 0.60764250
vn -0.76604940 0.20961610 0.60764240
vn -0.76604940 0.20961610 0.60764240
vn -0.76604940 0.20961610 0.60764240
vn -0.00016747 -0.32068310 0.94718650
vn -0.00016747 -0.32068310 0.94718650
vn -0.00016747 -0.32068320 0.94718650
vn -0.00016747 -0.32068310 0.94718650
vn 0.76581750 0.20971580 0.60790040
vn 0.76581750 0.20971580 0.60790040
vn 0.76581730 0.20971580 0.60790040
vn 0.76581750 0.20971580 0.60790040
vn 0.00000832 0.32662910 0.94515260
vn 0.00003279 0.32662650 0.94515340
vn 0.00004372 0.32662790 0.94515310
vn 0.00001110 0.32662950 0.94515250
vn 0.00005045 0.32664290 0.94514780
vn 0.00006729 0.32664500 0.94514720
vn 0.00005045 0.32664290 0.94514780
vn 0.00006729 0.32664500 0.94514720
vt -20.18429000 -5.24351800
vt -20.18429000 -5.24053400
vt -20.18131000 -5.24053400
vt -20.18131000 -5.24351800
vt -19.64001000 0.65791920
vt -19.61668000 0.64465970
vt -19.64135000 0.65405150
vt -19.86984000 0.78115970
vt -19.90164000 0.78512990
vt -19.87190000 0.78512990
vt -19.95217000 0.77069360
vt -19.95217000 0.62966450
vt -19.95610000 0.62960930
vt -19.86761000 0.78734960
vt -20.19187000 0.83397760
vt -20.19391000 0.82758380
vt -20.19808000 0.83172200
vt -20.20610000 0.82710610
vt -20.21318000 0.82970160
vt -20.20844000 0.83450380
vt -20.23560000 0.80356500
vt -20.24236000 0.80616920
vt -20.23778000 0.81082610
vt -20.22745000 0.82751300
vt -20.22544000 0.83417380
vt -20.22116000 0.82991400
vt -19.70026000 0.65415330
vt -19.72483000 0.64480750
vt -19.72622000 0.64847040
vt -19.70161000 0.65801640
vt -19.69778000 0.65946010
vt -19.91612000 0.49727480
vt -19.91602000 0.09120244
vt -19.92133000 0.09120244
vt -19.92133000 0.49716400
vt -19.78365000 0.90791540
vt -19.78742000 0.90635170
vt -19.81206000 0.89707020
vt -19.61541000 0.64847060
vt -19.52934000 0.89729830
vt -19.55409000 0.90654440
vt -19.64380000 0.65947180
vt -19.55792000 0.90799300
vt -19.55276000 0.91041740
vt -19.81348000 0.90080770
vt -19.78876000 0.91022000
vt -20.01369000 0.49276890
vt -20.01369000 0.09595215
vt -20.01863000 0.09606996
vt -20.01859000 0.49276890
vt -19.52808000 0.90102210
vt -19.73038000 0.64865180
vt -19.81524000 0.89349400
vt -19.52624000 0.89367150
vt -19.61120000 0.64853880
vt -19.85821000 0.76022950
vt -19.86423000 0.76561250
vt -19.89735000 0.78096310
vt -19.91118000 0.77952160
vt -19.88269000 0.76594310
vt -19.86211000 0.76170950
vt -19.87879000 0.76186790
vt -19.89232000 0.76029350
vt -19.90699000 0.77526060
vt -19.91230000 0.76601610
vt -19.89761000 0.75110230
vt -19.91243000 0.62937770
vt -19.89751000 0.62936160
vt -19.89132000 0.62540550
vt -19.91834000 0.62540560
vt -20.27926000 0.76009280
vt -20.28341000 0.63412680
vt -20.28339000 0.76646050
vt -20.27926000 0.64044930
vt -20.25058000 0.64032020
vt -20.25066000 0.76014230
vt -20.24144000 0.64035890
vt -20.24149000 0.76014230
vt -20.00442000 0.76576290
vt -19.98984000 0.76216390
vt -20.00656000 0.76185640
vt -19.98588000 0.76630600
vt -19.98027000 0.75655000
vt -19.99874000 0.78148440
vt -20.01046000 0.76033500
vt -20.00100000 0.78762190
vt -19.99669000 0.78545710
vt -19.97108000 0.78136380
vt -19.96686000 0.78545710
vt -19.96151000 0.77562210
vt -19.95735000 0.77984700
vt -19.97626000 0.76063390
vt -19.95627000 0.76633710
vt -19.97097000 0.75141850
vt -19.97502000 0.74739290
vt -19.97502000 0.62960310
vt -19.97103000 0.62966880
vt -19.95023000 0.62568090
vt -19.97726000 0.62568080
vt -19.91640000 0.62935290
vt -19.91640000 0.77037110
vt -20.18616000 0.64795710
vt -20.06845000 0.63931030
vt -20.18616000 0.63931030
vt -20.06849000 0.64795710
vt -20.06853000 0.78118370
vt -20.18615000 0.78121680
vt -20.19192000 0.78494670
vt -20.06273000 0.78494670
vt -20.29019000 0.84149550
vt -20.28151000 0.95928170
vt -20.28152000 0.84149090
vt -20.29018000 0.95925350
vt -20.40158000 0.95926700
vt -20.40163000 0.84143090
vt -20.40534000 0.83594980
vt -20.40534000 0.96479350
vt -19.89355000 0.74708390
vt -19.89355000 0.62937450
vt -19.88834000 0.75624690
vt -19.99000000 0.49296530
vt -19.99006000 0.09582564
vt -20.42522000 0.50048230
vt -20.40142000 0.50045370
vt -20.40142000 0.09939022
vt -20.42530000 0.09927121
vt -20.32260000 0.49442700
vt -20.20787000 0.36641470
vt -20.20782000 0.23347690
vt -20.08989000 0.49347840
vt -20.32955000 0.49688150
vt -20.32599000 0.50056710
vt -20.32957000 0.10303100
vt -20.32260000 0.10541540
vt -20.32604000 0.09927548
vt -20.18147000 0.23403340
vt -20.08988000 0.10637410
vt -20.18167000 0.36589770
vt -20.43060000 0.49718410
vt -20.42657000 0.50440890
vt -20.43060000 0.10267080
vt -20.42653000 0.09543504
vt -20.31237000 0.63528520
vt -20.31030000 0.63906940
vt -20.30652000 0.63340060
vt -20.30659000 0.76559030
vt -20.31037000 0.75986930
vt -20.31243000 0.76364510
vt -20.32653000 0.75975880
vt -20.32648000 0.63919740
vt -20.33577000 0.75972850
vt -20.33575000 0.63920170
vt -19.86436000 0.47666020
vt -19.85879000 0.47060170
vt -19.85872000 0.11787820
vt -19.86429000 0.11181930
vt -19.86429000 0.11181930
vt -19.85872000 0.11787820
vt -19.70325000 0.11795520
vt -19.69209000 0.11190500
vt -19.69209000 0.11190500
vt -19.70325000 0.11795520
vt -19.70315000 0.47053090
vt -19.69199000 0.47658170
vt -19.69199000 0.47658170
vt -19.70315000 0.47053090
vt -19.85879000 0.47060170
vt -19.86436000 0.47666020
vt -19.91612000 0.49727480
vt -19.86436000 0.47666020
vt -19.86429000 0.11181930
vt -19.91602000 0.09120244
vt -19.67253000 0.49716400
vt -19.69209000 0.11190500
vt -19.69199000 0.47658170
vt -19.67264000 0.09132355
f 3/3/3 2/2/2 1/1/1
f 4/4/4 3/3/3 1/1/1
f 7/7/7 6/6/6 5/5/5
f 10/10/10 9/9/9 8/8/8
f 13/13/13 12/12/12 11/11/11
f 14/14/14 10/10/10 8/8/8
f 17/17/17 16/16/16 15/15/15
f 20/20/20 19/19/19 18/18/18
f 23/23/23 22/22/22 21/21/21
f 26/26/26 25/25/25 24/24/24
f 29/29/29 28/28/28 27/27/27
f 30/30/30 29/29/29 27/27/27
f 31/31/31 30/30/30 27/27/27
f 34/34/34 33/33/33 32/32/32
f 35/35/35 34/34/34 32/32/32
f 31/31/31 36/36/36 30/30/30
f 36/36/36 37/37/37 30/30/30
f 30/30/30 37/37/37 29/29/29
f 37/37/37 38/38/38 29/29/29
f 6/6/6 39/39/39 5/5/5
f 39/39/39 40/40/40 5/5/5
f 40/40/40 41/41/41 5/5/5
f 5/5/5 41/41/41 42/42/42
f 42/42/42 7/7/7 5/5/5
f 41/41/41 43/43/43 42/42/42
f 43/43/43 41/41/41 44/44/44
f 45/45/45 38/38/38 37/37/37
f 46/46/46 45/45/45 37/37/37
f 36/36/36 46/46/46 37/37/37
f 49/49/49 48/48/48 47/47/47
f 50/50/50 49/49/49 47/47/47
f 40/40/40 51/51/51 44/44/44
f 41/41/41 40/40/40 44/44/44
f 52/52/52 29/29/29 38/38/38
f 53/53/53 52/52/52 38/38/38
f 39/39/39 55/55/55 54/54/54
f 40/40/40 39/39/39 54/54/54
f 57/57/57 56/56/56 14/14/14
f 8/8/8 57/57/57 14/14/14
f 8/8/8 58/58/58 57/57/57
f 9/9/9 58/58/58 8/8/8
f 58/58/58 9/9/9 59/59/59
f 58/58/58 60/60/60 57/57/57
f 57/57/57 60/60/60 61/61/61
f 60/60/60 62/62/62 61/61/61
f 62/62/62 60/60/60 63/63/63
f 63/63/63 60/60/60 58/58/58
f 64/64/64 58/58/58 59/59/59
f 64/64/64 63/63/63 58/58/58
f 64/64/64 59/59/59 65/65/65
f 66/66/66 63/63/63 64/64/64
f 65/65/65 66/66/66 64/64/64
f 65/65/65 67/67/67 66/66/66
f 67/67/67 68/68/68 66/66/66
f 69/69/69 68/68/68 67/67/67
f 70/70/70 69/69/69 67/67/67
f 73/73/73 72/72/72 71/71/71
f 72/72/72 74/74/74 71/71/71
f 74/74/74 75/75/75 71/71/71
f 75/75/75 76/76/76 71/71/71
f 76/76/76 75/75/75 77/77/77
f 78/78/78 76/76/76 77/77/77
f 81/81/81 80/80/80 79/79/79
f 80/80/80 82/82/82 79/79/79
f 82/82/82 80/80/80 83/83/83
f 79/79/79 82/82/82 84/84/84
f 85/85/85 79/79/79 84/84/84
f 86/86/86 85/85/85 84/84/84
f 86/86/86 84/84/84 87/87/87
f 84/84/84 88/88/88 87/87/87
f 82/82/82 88/88/88 84/84/84
f 88/88/88 89/89/89 87/87/87
f 89/89/89 88/88/88 90/90/90
f 88/88/88 82/82/82 90/90/90
f 91/91/91 89/89/89 90/90/90
f 91/91/91 90/90/90 11/11/11
f 92/92/92 82/82/82 83/83/83
f 82/82/82 92/92/92 90/90/90
f 90/90/90 93/93/93 11/11/11
f 90/90/90 92/92/92 93/93/93
f 93/93/93 13/13/13 11/11/11
f 92/92/92 83/83/83 94/94/94
f 92/92/92 94/94/94 93/93/93
f 83/83/83 95/95/95 94/94/94
f 95/95/95 96/96/96 94/94/94
f 96/96/96 97/97/97 94/94/94
f 94/94/94 97/97/97 93/93/93
f 97/97/97 13/13/13 93/93/93
f 13/13/13 97/97/97 98/98/98
f 97/97/97 99/99/99 98/98/98
f 100/100/100 67/67/67 65/65/65
f 101/101/101 100/100/100 65/65/65
f 59/59/59 101/101/101 65/65/65
f 104/104/104 103/103/103 102/102/102
f 103/103/103 105/105/105 102/102/102
f 105/105/105 106/106/106 102/102/102
f 106/106/106 107/107/107 102/102/102
f 107/107/107 106/106/106 108/108/108
f 106/106/106 109/109/109 108/108/108
f 112/112/112 111/111/111 110/110/110
f 111/111/111 113/113/113 110/110/110
f 113/113/113 114/114/114 110/110/110
f 114/114/114 115/115/115 110/110/110
f 115/115/115 114/114/114 116/116/116
f 114/114/114 117/117/117 116/116/116
f 68/68/68 119/119/119 118/118/118
f 66/66/66 68/68/68 118/118/118
f 63/63/63 66/66/66 118/118/118
f 120/120/120 63/63/63 118/118/118
f 120/120/120 62/62/62 63/63/63
f 122/122/122 121/121/121 47/47/47
f 48/48/48 122/122/122 47/47/47
f 125/125/125 124/124/124 123/123/123
f 126/126/126 125/125/125 123/123/123
f 129/129/129 128/128/128 127/127/127
f 127/127/127 128/128/128 130/130/130
f 132/132/132 131/131/131 127/127/127
f 131/131/131 133/133/133 127/127/127
f 133/133/133 134/134/134 127/127/127
f 133/133/133 135/135/135 134/134/134
f 134/134/134 129/129/129 127/127/127
f 136/136/136 129/129/129 134/134/134
f 137/137/137 136/136/136 134/134/134
f 138/138/138 136/136/136 137/137/137
f 130/130/130 138/138/138 137/137/137
f 128/128/128 138/138/138 130/130/130
f 123/123/123 140/140/140 139/139/139
f 139/139/139 141/141/141 123/123/123
f 141/141/141 126/126/126 123/123/123
f 142/142/142 126/126/126 141/141/141
f 145/145/145 144/144/144 143/143/143
f 145/145/145 146/146/146 144/144/144
f 146/146/146 147/147/147 144/144/144
f 146/146/146 148/148/148 147/147/147
f 147/147/147 149/149/149 144/144/144
f 149/149/149 150/150/150 144/144/144
f 150/150/150 149/149/149 151/151/151
f 152/152/152 150/150/150 151/151/151
f 155/155/155 154/154/154 153/153/153
f 156/156/156 155/155/155 153/153/153
f 159/159/159 158/158/158 157/157/157
f 160/160/160 159/159/159 157/157/157
f 163/163/163 162/162/162 161/161/161
f 164/164/164 163/163/163 161/161/161
f 167/167/167 166/166/166 165/165/165
f 168/168/168 167/167/167 165/165/165
f 171/171/171 170/170/170 169/169/169
f 172/172/172 171/171/171 169/169/169
f 169/169/169 170/170/170 173/173/173
f 174/174/174 171/171/171 172/172/172
f 170/170/170 175/175/175 173/173/173
f 176/176/176 174/174/174 172/172/172
f 173/173/173 175/175/175 176/176/176
f 175/175/175 174/174/174 176/176/176

