# Blender 4.0.0
# www.blender.org
o decimated_mesh
v 0.005435 0.095017 0.007375
v 0.005434 0.095118 0.007367
v 0.005309 0.095167 0.007539
v 0.005309 0.094968 0.007543
v 0.005420 0.095038 0.007696
v 0.005393 0.095076 0.006731
v 0.005101 0.095168 0.006641
v 0.004887 0.095169 0.008133
v 0.005101 0.094967 0.006641
v 0.004887 0.094966 0.008132
v 0.004586 0.095119 0.006083
v 0.004523 0.095173 0.006256
v 0.004657 0.095078 0.008474
v 0.004996 0.095072 0.008289
v 0.004592 0.094965 0.006248
v 0.005264 0.095031 0.006553
v 0.004813 0.095025 0.008359
v 0.003982 0.095169 0.008387
v 0.004523 0.095014 0.006078
v 0.004805 0.095061 0.006153
v 0.003970 0.094966 0.008385
v 0.003849 0.095020 0.008513
v 0.003729 0.095173 0.006271
v 0.003176 0.095163 0.007796
v 0.003717 0.094962 0.006278
v 0.003176 0.094971 0.007796
v 0.003177 0.095171 0.006880
v 0.003457 0.095067 0.008282
v 0.003577 0.095026 0.006131
v 0.003176 0.094964 0.006879
v 0.003056 0.095035 0.007921
v 0.002999 0.095120 0.007026
v 0.002999 0.095014 0.007026
v 0.003046 0.095039 0.006743
vn -0.4203 0.8226 -0.3829
vn -0.0001 1.0000 -0.0013
vn 0.2739 -0.1207 -0.9542
vn -0.2787 0.9575 0.0742
vn 0.3819 -0.8661 0.3225
vn -0.9980 -0.0000 0.0636
vn 0.3208 0.9443 -0.0735
vn 0.4611 0.8873 -0.0074
vn -0.3308 0.9407 0.0755
vn 0.2299 0.8910 0.3915
vn 0.4170 0.7869 -0.4548
vn 0.2437 -0.9003 -0.3607
vn 0.0001 1.0000 0.0022
vn 0.2722 0.9589 -0.0802
vn 0.0860 -0.8515 0.5172
vn 0.0104 0.9210 0.3893
vn -0.1017 0.9375 -0.3329
vn 0.4201 -0.4544 0.7855
vn 0.4182 0.8737 0.2487
vn 0.3378 0.8843 -0.3224
vn 0.4741 0.8143 0.3349
vn -0.3810 -0.9135 -0.1430
vn 0.9979 0.0036 -0.0651
vn -0.3488 0.8007 0.4871
vn 0.0866 0.9469 0.3097
vn -0.3906 -0.7699 0.5047
vn 0.4617 -0.8801 -0.1109
vn -0.0543 0.0791 -0.9954
vn -0.1898 0.9761 0.1055
vn -0.1686 -0.9558 0.2407
vn -0.1801 -0.9555 0.2338
vn -0.0131 -0.9999 0.0084
vn 0.0006 1.0000 -0.0023
vn 0.0033 -1.0000 -0.0001
vn 0.0045 -1.0000 0.0001
vn 0.5991 0.7719 0.2126
vn 0.0749 -0.9591 0.2731
vn 0.3573 -0.8692 0.3417
vn 0.2467 0.9684 -0.0376
vn -0.9868 -0.0000 -0.1621
vn 0.3957 0.7804 -0.4842
vn 0.2485 -0.9024 -0.3521
vn -0.0001 1.0000 0.0014
vn 0.0043 1.0000 0.0001
vn 0.0082 1.0000 0.0006
vn -0.0014 1.0000 0.0031
vn 0.0123 -0.9999 -0.0079
vn 0.0267 0.9624 0.2703
vn -0.0132 0.6963 -0.7176
vn 0.9988 0.0118 0.0465
vn 0.3002 -0.9300 0.2121
vn -0.0108 0.6514 0.7587
vn 0.0755 -0.8900 0.4497
vn 0.2189 -0.9348 -0.2798
vn -0.2250 -0.9536 -0.1999
vn -0.3796 0.7718 0.5102
vn -0.7302 0.6833 0.0045
vn -0.2934 -0.9269 -0.2342
vn 0.4562 -0.8863 0.0796
vn -0.4866 0.8156 -0.3130
vn -0.4315 0.8147 -0.3873
vn -0.2161 -0.9393 0.2665
vn 0.0319 0.9277 0.3719
vn 0.0064 0.9606 0.2778
vn -0.0003 1.0000 -0.0018
vn 0.0010 1.0000 -0.0019
vn -0.0993 0.7378 -0.6676
vn -0.4289 0.8147 -0.3902
vn 0.3526 0.8456 -0.4007
vn -0.0055 0.9530 -0.3029
vn 0.3881 0.8219 -0.4169
vn 0.5136 0.6663 -0.5406
vn 0.2696 0.9629 -0.0080
vn -0.4234 0.8225 -0.3798
vn -0.0021 1.0000 0.0024
vn 0.2896 0.9548 -0.0663
vn 0.3231 0.9428 -0.0825
vn 0.0094 1.0000 -0.0011
vn 0.0058 1.0000 0.0011
vn -0.3266 0.9414 0.0838
vn -0.2890 0.9551 0.0658
vn 0.5005 0.8079 0.3112
vn 0.3883 0.8800 0.2736
vn -0.2662 0.7504 0.6050
vn 0.4271 0.9029 -0.0476
vn -0.2666 0.9638 0.0073
vn -0.2411 0.9161 0.3202
vn -0.6702 0.7335 0.1129
vn -0.4334 0.8030 0.4091
s 0
f 27//1 29//1 34//1
f 10//2 30//2 21//2
f 19//3 11//3 20//3
f 1//4 16//4 4//4
f 14//5 10//5 5//5
f 33//6 31//6 32//6
f 6//7 7//7 3//7
f 31//8 26//8 30//8
f 9//9 4//9 16//9
f 8//10 13//10 14//10
f 11//11 7//11 16//11
f 20//12 15//12 19//12
f 12//13 23//13 8//13
f 3//14 2//14 6//14
f 22//15 17//15 13//15
f 29//16 25//16 15//16
f 29//17 12//17 11//17
f 14//18 13//18 17//18
f 8//19 14//19 5//19
f 16//20 20//20 11//20
f 5//21 3//21 8//21
f 34//22 30//22 33//22
f 1//23 6//23 2//23
f 22//24 24//24 31//24
f 13//25 8//25 18//25
f 22//26 28//26 31//26
f 16//27 6//27 1//27
f 11//28 19//28 29//28
f 31//29 27//29 32//29
f 7//30 12//30 11//30
f 22//31 26//31 21//31
f 21//32 26//32 30//32
f 30//33 10//33 25//33
f 10//34 25//34 15//34
f 15//34 9//34 10//34
f 9//35 4//35 10//35
f 5//36 2//36 3//36
f 17//37 21//37 10//37
f 14//38 17//38 10//38
f 31//39 30//39 33//39
f 33//40 32//40 34//40
f 6//41 16//41 7//41
f 20//42 16//42 15//42
f 18//43 8//43 27//43
f 7//44 8//44 3//44
f 7//45 12//45 8//45
f 23//46 27//46 8//46
f 27//47 18//47 24//47
f 29//48 15//48 19//48
f 29//49 23//49 12//49
f 1//50 2//50 5//50
f 5//51 10//51 4//51
f 22//52 13//52 18//52
f 17//53 22//53 21//53
f 9//54 15//54 16//54
f 25//55 30//55 29//55
f 22//56 18//56 24//56
f 31//57 24//57 27//57
f 34//58 29//58 30//58
f 4//59 1//59 5//59
f 34//60 32//60 27//60
f 29//61 27//61 23//61
f 22//62 31//62 26//62
f 25//63 19//63 29//63
f 15//64 19//64 25//64
f 10//65 25//65 21//65
f 21//66 25//66 30//66
f 23//67 11//67 29//67
f 34//68 23//68 29//68
f 7//69 20//69 11//69
f 23//70 12//70 11//70
f 7//71 6//71 20//71
f 6//72 16//72 20//72
f 26//73 30//73 33//73
f 34//74 27//74 23//74
f 27//75 18//75 23//75
f 18//13 8//13 23//13
f 3//76 2//76 7//76
f 2//77 6//77 7//77
f 12//78 3//78 7//78
f 8//79 3//79 12//79
f 1//80 16//80 9//80
f 1//81 9//81 4//81
f 3//82 14//82 5//82
f 3//83 8//83 14//83
f 18//84 28//84 22//84
f 31//85 26//85 33//85
f 32//86 24//86 27//86
f 24//87 28//87 18//87
f 31//88 24//88 32//88
f 24//89 31//89 28//89
