# Blender 4.0.0
# www.blender.org
o decimated_mesh
v -0.003006 0.095119 -0.002754
v -0.003003 0.095014 -0.002743
v -0.003176 0.095170 -0.002791
v -0.003176 0.094965 -0.002791
v -0.003565 0.095169 -0.003330
v -0.003176 0.095159 -0.001872
v -0.003043 0.095112 -0.001948
v -0.003582 0.094965 -0.003343
v -0.003045 0.095036 -0.002933
v -0.003178 0.094976 -0.001870
v -0.003427 0.095059 -0.003474
v -0.003600 0.095021 -0.003522
v -0.003998 0.095067 -0.003664
v -0.003924 0.095160 -0.001318
v -0.003063 0.095061 -0.001737
v -0.004497 0.094981 -0.003565
v -0.004446 0.095029 -0.003688
v -0.003924 0.094974 -0.001319
v -0.005101 0.095173 -0.002983
v -0.004739 0.095172 -0.001450
v -0.004077 0.095067 -0.001148
v -0.003812 0.095067 -0.001158
v -0.005101 0.094962 -0.002983
v -0.004865 0.095024 -0.001316
v -0.004738 0.094963 -0.001450
v -0.005313 0.095168 -0.002161
v -0.005316 0.094967 -0.002164
v -0.005392 0.095043 -0.002931
v -0.005251 0.095030 -0.003137
v -0.004636 0.095045 -0.003665
v -0.005438 0.095115 -0.002117
v -0.005442 0.095015 -0.002214
v -0.005404 0.095056 -0.001927
vn 0.2873 -0.9058 -0.3115
vn 0.0176 -0.8723 0.4887
vn -0.9840 -0.1020 0.1458
vn -0.4222 0.9005 -0.1035
vn -0.4220 0.9007 -0.1036
vn -0.0127 0.9999 -0.0067
vn -0.3148 -0.9210 0.2297
vn 0.4463 0.8585 0.2525
vn -0.0976 0.9383 0.3317
vn 0.3054 -0.2258 -0.9251
vn 0.0581 -0.9379 -0.3420
vn -0.1020 0.7176 0.6889
vn 0.0999 -0.8295 -0.5496
vn 0.4677 0.8165 -0.3386
vn -0.1312 0.9146 0.3825
vn -0.0478 -0.9257 0.3753
vn 0.0662 0.9879 -0.1402
vn -0.2805 -0.9575 -0.0676
vn 0.1851 0.9521 0.2434
vn 0.3435 0.9389 0.0237
vn -0.2823 0.9098 0.3044
vn -0.3222 0.8871 0.3304
vn 0.0127 0.9999 0.0068
vn 0.9899 -0.1261 0.0647
vn 0.9985 0.0304 0.0459
vn 0.3247 -0.9070 -0.2680
vn 0.3168 -0.9318 -0.1772
vn 0.2838 -0.9357 -0.2096
vn -0.0459 -0.8947 0.4442
vn 0.2542 -0.9047 0.3418
vn 0.2622 -0.9000 0.3482
vn 0.0907 0.8313 -0.5484
vn -0.0073 -0.9991 -0.0410
vn 0.0063 1.0000 -0.0035
vn -0.0025 1.0000 -0.0005
vn -0.0107 0.9999 -0.0121
vn -0.0104 -0.9999 0.0036
vn 0.3032 0.8729 0.3823
vn 0.2579 0.9021 0.3459
vn 0.9768 0.0031 -0.2142
vn -0.9922 0.1053 -0.0664
vn 0.3457 0.8205 -0.4553
vn 0.4207 0.8693 -0.2594
vn 0.0208 0.8693 0.4938
vn -0.1274 -0.9047 -0.4065
vn -0.3730 0.8321 -0.4105
vn -0.2903 -0.9469 -0.1383
vn 0.2347 0.9324 0.2748
vn 0.2861 0.9581 0.0117
vn 0.5376 -0.8402 0.0707
vn 0.2733 -0.9619 0.0123
vn -0.3376 -0.9394 -0.0602
vn -0.4351 0.8303 -0.3482
vn -0.2487 -0.9485 0.1964
vn 0.0567 -0.9516 -0.3022
vn -0.4137 -0.8920 0.1821
vn -0.4901 0.7784 0.3922
vn -0.0101 0.9999 0.0035
vn 0.0112 0.9999 0.0124
vn -0.0067 1.0000 0.0034
vn -0.0535 0.9675 -0.2473
vn 0.0026 1.0000 0.0005
vn -0.0018 1.0000 0.0025
vn -0.0113 0.9999 -0.0121
vn -0.0015 1.0000 -0.0007
vn 0.6497 0.6259 -0.4314
vn 0.3850 0.8737 -0.2972
vn 0.3269 0.9148 -0.2372
vn -0.0116 0.9998 -0.0134
vn 0.1949 0.9525 0.2341
vn 0.1743 0.8560 -0.4868
vn -0.0333 0.9671 -0.2522
vn -0.0460 0.9756 -0.2145
vn 0.0019 1.0000 -0.0028
vn 0.0015 1.0000 0.0007
vn 0.0115 0.9999 0.0124
vn 0.0117 0.9998 0.0132
vn -0.4222 0.9005 -0.1036
vn 0.2243 0.9309 0.2885
vn -0.1778 0.7428 0.6455
vn -0.4474 0.7813 0.4353
vn -0.0248 0.7231 -0.6903
vn -0.4220 0.9007 -0.1035
vn -0.0587 0.8972 0.4378
vn -0.3077 0.9196 0.2441
vn -0.3881 0.8591 0.3336
s 0
f 8//1 12//1 11//1
f 21//2 18//2 22//2
f 31//3 32//3 33//3
f 26//4 19//4 28//4
f 28//5 31//5 26//5
f 25//6 18//6 8//6
f 33//7 27//7 24//7
f 6//8 15//8 7//8
f 13//9 17//9 11//9
f 12//10 13//10 11//10
f 17//11 12//11 16//11
f 14//12 20//12 24//12
f 17//13 13//13 12//13
f 5//14 3//14 9//14
f 21//15 14//15 24//15
f 18//16 24//16 25//16
f 30//17 19//17 17//17
f 27//18 28//18 23//18
f 30//19 29//19 23//19
f 6//20 7//20 1//20
f 24//21 26//21 31//21
f 33//22 24//22 31//22
f 20//23 14//23 5//23
f 15//24 2//24 7//24
f 2//25 1//25 7//25
f 11//26 9//26 8//26
f 9//27 2//27 4//27
f 8//28 9//28 4//28
f 21//29 24//29 18//29
f 18//30 10//30 22//30
f 10//31 15//31 22//31
f 11//32 17//32 5//32
f 16//33 8//33 23//33
f 8//34 18//34 4//34
f 23//35 25//35 8//35
f 4//36 18//36 10//36
f 25//37 27//37 23//37
f 22//38 15//38 6//38
f 14//39 22//39 6//39
f 9//40 1//40 2//40
f 32//41 31//41 28//41
f 1//42 9//42 3//42
f 9//43 11//43 5//43
f 21//44 22//44 14//44
f 30//45 17//45 16//45
f 30//46 29//46 19//46
f 28//47 29//47 23//47
f 30//48 23//48 16//48
f 3//49 6//49 1//49
f 15//50 10//50 2//50
f 10//51 4//51 2//51
f 32//52 28//52 27//52
f 29//53 28//53 19//53
f 24//54 27//54 25//54
f 8//55 16//55 12//55
f 33//56 32//56 27//56
f 20//57 26//57 24//57
f 19//58 26//58 20//58
f 14//59 6//59 3//59
f 3//60 5//60 14//60
f 5//61 17//61 19//61
f 20//62 5//62 19//62
f 23//63 4//63 8//63
f 10//64 4//64 25//64
f 25//65 4//65 23//65
f 11//66 1//66 9//66
f 11//67 5//67 1//67
f 5//68 3//68 1//68
f 18//69 10//69 25//69
f 29//70 23//70 16//70
f 13//71 5//71 11//71
f 13//72 30//72 5//72
f 30//73 19//73 5//73
f 19//74 3//74 5//74
f 19//75 20//75 3//75
f 20//76 6//76 3//76
f 20//77 14//77 6//77
f 31//78 19//78 28//78
f 30//79 29//79 16//79
f 21//80 20//80 24//80
f 20//81 33//81 24//81
f 17//82 30//82 13//82
f 31//83 26//83 19//83
f 21//84 14//84 20//84
f 26//85 31//85 20//85
f 31//86 33//86 20//86
