# Blender 4.0.0
# www.blender.org
o decimated_mesh
v 0.001238 0.095123 -0.004823
v 0.001235 0.095012 -0.004820
v 0.001059 0.095166 -0.005101
v 0.001059 0.095173 -0.004728
v 0.001096 0.094963 -0.004858
v 0.001184 0.095034 -0.005219
v 0.000984 0.095106 -0.005653
v 0.000834 0.095163 -0.005652
v 0.000819 0.095160 -0.004040
v 0.000842 0.094972 -0.005641
v 0.001169 0.095044 -0.004426
v 0.000976 0.095038 -0.004006
v 0.000819 0.094975 -0.004040
v 0.000866 0.095096 -0.005807
v 0.000965 0.095062 -0.005781
v 0.000343 0.095105 -0.006035
v 0.000289 0.095170 -0.005871
v 0.000004 0.095169 -0.003733
v 0.000127 0.095115 -0.003608
v 0.000289 0.094965 -0.005871
v 0.000001 0.095048 -0.006176
v 0.000587 0.095059 -0.005973
v 0.000784 0.095046 -0.003837
v 0.000096 0.095019 -0.003606
v 0.000004 0.094966 -0.003732
v 0.000379 0.095065 -0.003654
v -0.000096 0.095019 -0.003606
v -0.000289 0.095170 -0.005871
v -0.000841 0.095163 -0.005642
v -0.000824 0.095162 -0.004059
v -0.000289 0.094965 -0.005871
v -0.000846 0.094974 -0.005647
v -0.000383 0.095067 -0.003655
v -0.000787 0.095047 -0.003836
v -0.000820 0.094972 -0.004057
v -0.000205 0.095107 -0.006090
v -0.000588 0.095059 -0.005972
v -0.000979 0.095040 -0.004009
v -0.001096 0.095172 -0.004856
v -0.001088 0.094962 -0.004902
v -0.001185 0.095034 -0.005216
v -0.000966 0.095072 -0.005781
v -0.000866 0.095038 -0.005807
v -0.001237 0.095122 -0.004831
v -0.001163 0.095081 -0.004397
v -0.001221 0.095017 -0.004686
v -0.001232 0.095014 -0.004908
vn -0.3429 -0.9390 0.0268
vn -0.3002 0.9454 -0.1266
vn 0.0382 0.9991 -0.0209
vn 0.9912 -0.0294 -0.1291
vn -0.5342 0.8254 -0.1828
vn 0.1538 -0.9071 -0.3917
vn -0.3180 -0.9407 -0.1182
vn 0.8155 0.4991 -0.2930
vn 0.4890 0.8520 0.1872
vn 0.4126 -0.8879 -0.2034
vn -0.1982 0.7062 0.6797
vn 0.3283 0.8770 -0.3509
vn 0.3799 0.5307 -0.7577
vn 0.2992 0.6908 -0.6583
vn 0.1429 0.9355 -0.3233
vn -0.4479 0.7607 0.4698
vn 0.1405 0.9308 -0.3374
vn -0.2041 0.8929 -0.4013
vn -0.2788 -0.8957 0.3464
vn 0.1998 0.8406 0.5035
vn 0.2966 0.3814 -0.8756
vn 0.1894 0.9601 -0.2057
vn -0.1534 -0.9071 -0.3920
vn -0.2245 0.7853 -0.5770
vn -0.1380 0.9438 -0.3002
vn -0.2301 -0.7691 0.5962
vn -0.3129 0.2516 -0.9159
vn -0.3052 0.7250 0.6175
vn -0.1732 0.0342 -0.9843
vn 0.2540 0.8407 0.4782
vn -0.2787 0.7485 -0.6017
vn -0.3533 0.9262 0.1315
vn -0.4853 0.8644 -0.1315
vn 0.5754 0.7778 -0.2530
vn -0.0008 1.0000 0.0031
vn 0.3100 -0.9441 -0.1119
vn -0.4464 -0.8648 -0.2298
vn -0.7364 -0.6138 0.2846
vn -0.3770 -0.5974 -0.7078
vn 0.0003 -1.0000 0.0027
vn -0.9955 -0.0821 0.0477
vn 0.2603 0.9653 -0.0205
vn -0.3486 -0.9241 0.1564
vn 0.4624 0.7380 0.4914
vn 0.3428 -0.9281 0.1451
vn -0.3198 0.9396 -0.1223
vn -0.3613 0.8974 -0.2534
vn 0.2043 -0.8967 -0.3926
vn 0.1648 -0.9154 -0.3672
vn -0.3357 -0.9353 -0.1115
vn 0.5526 0.7907 0.2635
vn 0.3804 0.8921 0.2440
vn -0.1950 0.8570 0.4769
vn 0.3828 0.8757 -0.2942
vn 0.1713 0.9183 -0.3570
vn -0.0039 0.9294 -0.3692
vn 0.1363 0.9462 -0.2936
vn -0.1479 0.9335 -0.3265
vn 0.1825 0.9536 0.2395
vn -0.0000 0.9281 -0.3724
vn 0.1636 0.9149 0.3690
vn 0.1428 0.9240 0.3547
vn -0.0000 -0.9649 -0.2625
vn -0.9877 0.0570 -0.1456
vn -0.9796 0.0965 0.1760
vn -0.1427 0.9263 -0.3488
vn -0.0000 0.9202 -0.3915
vn 0.2807 -0.8899 0.3596
vn -0.3057 0.9415 0.1415
vn -0.5173 0.7903 0.3285
vn 0.6334 0.7556 -0.1669
vn 0.3476 0.9261 -0.1469
vn -0.3686 -0.8771 -0.3080
vn 0.0219 0.9994 0.0272
vn 0.0205 0.9997 -0.0167
vn -0.0000 1.0000 -0.0028
vn -0.0211 0.9996 -0.0186
vn -0.0005 1.0000 -0.0022
vn -0.0152 0.9997 0.0172
vn -0.0000 -0.0211 -0.9998
vn 0.3565 -0.9292 -0.0976
vn 0.9856 -0.0205 0.1677
vn -0.0143 -0.9998 0.0163
vn -0.0268 -0.9993 -0.0246
vn -0.0000 -1.0000 -0.0025
vn 0.0212 -0.9996 -0.0186
vn 0.0004 -1.0000 -0.0020
vn 0.0194 -0.9996 0.0212
vn -0.2499 -0.9640 0.0905
vn 0.3337 0.9330 0.1347
vn 0.5450 0.7990 0.2541
vn 0.7464 0.6203 -0.2412
vn 0.4488 0.8800 -0.1555
vn 0.1226 0.9475 0.2955
vn 0.2550 0.8304 0.4953
vn 0.2647 0.8220 0.5043
vn -0.3281 0.9356 -0.1306
vn -0.3031 0.9458 -0.1167
vn 0.3889 0.8517 -0.3511
vn 0.3333 0.8901 -0.3109
vn 0.0384 0.9334 -0.3569
vn -0.0000 0.9606 -0.2781
vn -0.3107 0.9433 0.1172
vn -0.3491 0.9288 -0.1240
vn -0.1255 0.8574 0.4992
vn -0.1608 0.9071 0.3890
vn -0.1138 0.2855 0.9516
vn -0.1539 0.9241 -0.3498
vn -0.1274 0.9429 -0.3078
vn 0.0503 0.8763 -0.4792
vn -0.4469 0.8774 -0.1743
vn -0.3696 0.9170 0.1501
vn -0.7344 0.6337 -0.2433
vn -0.2575 0.8395 0.4784
vn 0.1505 0.9289 -0.3383
vn 0.1263 0.9452 -0.3011
vn 0.1587 0.9113 0.3799
vn 0.1571 0.9225 0.3525
s 0
f 40//1 46//1 47//1
f 5//2 11//2 2//2
f 3//3 8//3 4//3
f 1//4 2//4 6//4
f 39//5 29//5 41//5
f 21//6 22//6 20//6
f 32//7 40//7 41//7
f 6//8 15//8 7//8
f 11//9 4//9 9//9
f 10//10 15//10 6//10
f 18//11 34//11 27//11
f 15//12 8//12 7//12
f 15//13 22//13 14//13
f 14//14 22//14 16//14
f 17//15 8//15 16//15
f 34//16 30//16 38//16
f 25//17 35//17 34//17
f 36//18 42//18 29//18
f 35//19 34//19 38//19
f 18//20 23//20 9//20
f 22//21 21//21 16//21
f 28//22 21//22 36//22
f 37//23 21//23 31//23
f 23//24 24//24 26//24
f 25//25 24//25 23//25
f 27//26 33//26 34//26
f 21//27 37//27 36//27
f 19//28 18//28 27//28
f 19//29 26//29 24//29
f 26//30 23//30 19//30
f 37//31 42//31 36//31
f 45//32 30//32 39//32
f 29//33 42//33 41//33
f 3//34 1//34 6//34
f 18//35 4//35 39//35
f 5//36 10//36 6//36
f 32//37 41//37 42//37
f 38//38 45//38 46//38
f 37//39 43//39 42//39
f 25//40 40//40 5//40
f 44//41 47//41 46//41
f 1//42 3//42 4//42
f 35//43 38//43 46//43
f 23//44 12//44 9//44
f 12//45 13//45 11//45
f 13//46 11//46 5//46
f 41//47 44//47 39//47
f 22//48 15//48 10//48
f 10//49 20//49 22//49
f 47//50 41//50 40//50
f 9//51 12//51 11//51
f 11//52 1//52 4//52
f 18//53 30//53 34//53
f 15//54 14//54 8//54
f 14//55 16//55 8//55
f 16//56 21//56 17//56
f 25//57 34//57 27//57
f 29//58 28//58 36//58
f 18//59 19//59 23//59
f 28//60 17//60 21//60
f 31//61 37//61 32//61
f 37//62 43//62 32//62
f 21//63 20//63 31//63
f 41//64 47//64 44//64
f 45//65 44//65 46//65
f 25//66 23//66 13//66
f 25//67 27//67 24//67
f 13//68 12//68 23//68
f 39//69 44//69 45//69
f 45//70 38//70 30//70
f 6//71 7//71 3//71
f 3//72 7//72 8//72
f 42//73 43//73 32//73
f 9//74 4//74 18//74
f 8//75 17//75 4//75
f 17//76 28//76 4//76
f 28//77 29//77 39//77
f 28//78 39//78 4//78
f 39//79 30//79 18//79
f 24//80 27//80 19//80
f 6//81 2//81 5//81
f 11//82 2//82 1//82
f 35//83 40//83 25//83
f 32//84 31//84 40//84
f 31//85 20//85 40//85
f 20//86 10//86 5//86
f 20//87 5//87 40//87
f 5//88 13//88 25//88
f 40//89 35//89 46//89
f 4//90 9//90 1//90
f 9//91 11//91 1//91
f 6//92 7//92 1//92
f 7//93 3//93 1//93
f 18//94 19//94 9//94
f 19//95 26//95 9//95
f 26//96 23//96 9//96
f 13//97 11//97 2//97
f 13//98 2//98 5//98
f 15//99 14//99 7//99
f 14//100 8//100 7//100
f 16//101 36//101 17//101
f 36//102 28//102 17//102
f 44//103 30//103 39//103
f 29//104 44//104 39//104
f 33//105 19//105 18//105
f 30//106 33//106 18//106
f 33//107 27//107 19//107
f 24//108 23//108 13//108
f 24//109 13//109 25//109
f 21//110 36//110 16//110
f 42//111 44//111 29//111
f 45//112 30//112 44//112
f 42//113 41//113 44//113
f 34//114 33//114 30//114
f 34//115 27//115 35//115
f 35//116 27//116 25//116
f 31//117 37//117 43//117
f 43//118 32//118 31//118
