# Blender 4.0.0
# www.blender.org
o decimated_mesh
v 0.005441 0.095115 -0.002123
v 0.005313 0.095168 -0.002163
v 0.005442 0.095015 -0.002214
v 0.005406 0.095058 -0.001932
v 0.005314 0.094967 -0.002160
v 0.005101 0.095173 -0.002983
v 0.004739 0.095172 -0.001450
v 0.004871 0.095023 -0.001317
v 0.004739 0.094963 -0.001450
v 0.005101 0.094962 -0.002983
v 0.005396 0.095044 -0.002926
v 0.003924 0.095160 -0.001319
v 0.004077 0.095068 -0.001148
v 0.003921 0.094976 -0.001314
v 0.005245 0.095029 -0.003142
v 0.003572 0.095169 -0.003343
v 0.003812 0.095068 -0.001158
v 0.003565 0.094965 -0.003328
v 0.004478 0.094982 -0.003575
v 0.003589 0.095113 -0.003520
v 0.003064 0.095061 -0.001740
v 0.003179 0.095159 -0.001870
v 0.003187 0.094973 -0.001870
v 0.004452 0.095030 -0.003688
v 0.004636 0.095046 -0.003666
v 0.003998 0.095067 -0.003664
v 0.003176 0.095170 -0.002791
v 0.003047 0.095105 -0.001906
v 0.003176 0.094965 -0.002791
v 0.003478 0.095033 -0.003494
v 0.003005 0.095121 -0.002751
v 0.003002 0.095015 -0.002737
v 0.003045 0.095036 -0.002933
vn 0.3271 -0.9157 0.2333
vn -0.2757 0.9612 0.0123
vn 0.2799 -0.9577 -0.0666
vn 0.0146 0.9999 -0.0083
vn 0.1023 0.7118 0.6948
vn 0.0468 -0.9278 0.3702
vn 0.0454 -0.8931 0.4475
vn -0.2237 0.9371 0.2680
vn -0.3442 0.8204 -0.4567
vn -0.0173 0.8724 0.4885
vn -0.0692 0.9881 -0.1371
vn 0.1264 -0.9024 -0.4120
vn 0.2835 0.9093 0.3045
vn 0.0768 0.9925 -0.0949
vn -0.0963 -0.8761 -0.4724
vn -0.2542 0.9047 0.3418
vn -0.4281 0.8612 0.2740
vn -0.2860 -0.9355 -0.2075
vn 0.4124 0.9052 -0.1031
vn 0.4163 0.9034 -0.1024
vn 0.9830 -0.1137 0.1443
vn -0.3164 0.1352 -0.9389
vn -0.2726 -0.9621 0.0118
vn -0.9980 0.0380 0.0502
vn -0.0127 0.9999 0.0066
vn 0.4160 -0.8899 0.1872
vn 0.3323 -0.9413 -0.0593
vn -0.3872 0.9213 0.0361
vn -0.9766 0.0011 -0.2151
vn -0.0003 1.0000 -0.0056
vn -0.0129 0.9999 -0.0089
vn 0.0074 -0.9991 -0.0423
vn 0.0102 -0.9999 0.0035
vn 0.0023 1.0000 -0.0006
vn 0.2905 -0.9471 -0.1361
vn -0.0752 -0.9360 -0.3437
vn 0.4887 0.7805 0.3898
vn 0.9952 0.0755 -0.0621
vn 0.2401 -0.9520 0.1900
vn -0.0209 -0.8682 0.4957
vn -0.1794 0.9541 0.2400
vn 0.3145 0.8921 0.3245
vn -0.0770 -0.9240 -0.3745
vn -0.4690 0.8163 -0.3372
vn -0.6019 0.7420 -0.2951
vn -0.4987 0.7746 -0.3889
vn 0.1324 0.9160 0.3787
vn 0.3789 0.8285 -0.4124
vn 0.4328 0.8261 -0.3610
vn -0.3091 0.8692 0.3859
vn -0.2653 -0.8974 0.3526
vn -0.2592 -0.9010 0.3477
vn -0.3211 -0.9312 -0.1726
vn -0.2969 -0.9285 -0.2231
vn 0.0331 0.9532 -0.3006
vn -0.5266 -0.8471 0.0716
vn -0.9906 -0.1195 0.0669
vn 0.0100 0.9999 0.0034
vn 0.0558 0.9671 -0.2481
vn 0.0068 1.0000 0.0032
vn -0.0106 0.9999 0.0120
vn -0.0027 1.0000 0.0005
vn 0.4164 0.9033 -0.1032
vn 0.4120 0.9055 -0.1013
vn 0.3075 0.9199 0.2433
vn 0.3845 0.8627 0.3284
vn 0.4468 0.7826 0.4336
vn -0.0015 1.0000 0.0007
vn 0.0479 0.9755 -0.2145
vn -0.0019 1.0000 -0.0030
vn 0.0579 0.8983 0.4356
vn 0.1802 0.7394 0.6487
vn -0.0112 0.9999 0.0121
vn -0.0116 0.9998 0.0134
vn 0.0123 0.9997 -0.0223
vn 0.0087 0.9999 -0.0092
vn 0.0015 1.0000 -0.0007
vn 0.0018 1.0000 0.0016
vn -0.1887 0.9543 0.2317
vn -0.2154 0.9352 0.2811
vn -0.3201 0.9188 -0.2309
vn 0.0220 0.7073 -0.7066
vn 0.0318 0.9641 -0.2635
vn -0.0013 0.9527 -0.3038
vn -0.4014 0.8606 -0.3133
vn -0.5770 0.6849 -0.4449
vn -0.5870 0.6688 -0.4562
s 0
f 8//1 5//1 4//1
f 27//2 31//2 22//2
f 10//3 11//3 5//3
f 18//4 14//4 9//4
f 7//5 12//5 8//5
f 9//6 8//6 14//6
f 13//7 14//7 8//7
f 25//8 19//8 10//8
f 33//9 31//9 27//9
f 13//10 12//10 17//10
f 6//11 25//11 24//11
f 25//12 19//12 24//12
f 2//13 8//13 1//13
f 26//14 20//14 24//14
f 26//15 24//15 30//15
f 12//16 22//16 17//16
f 21//17 22//17 28//17
f 18//18 29//18 33//18
f 1//19 11//19 2//19
f 11//20 6//20 2//20
f 3//21 1//21 4//21
f 26//22 30//22 20//22
f 32//23 29//23 23//23
f 28//24 31//24 32//24
f 16//25 12//25 7//25
f 5//26 3//26 4//26
f 11//27 3//27 5//27
f 31//28 28//28 22//28
f 32//29 31//29 33//29
f 14//30 18//30 23//30
f 23//31 18//31 29//31
f 18//32 19//32 10//32
f 10//33 5//33 9//33
f 18//34 9//34 10//34
f 15//35 11//35 10//35
f 30//36 19//36 18//36
f 2//37 7//37 8//37
f 1//38 3//38 11//38
f 9//39 5//39 8//39
f 13//40 17//40 14//40
f 25//41 10//41 15//41
f 4//42 1//42 8//42
f 30//43 24//43 19//43
f 27//44 16//44 33//44
f 16//45 20//45 30//45
f 33//46 16//46 30//46
f 13//47 8//47 12//47
f 6//48 15//48 25//48
f 11//49 15//49 6//49
f 22//50 21//50 17//50
f 17//51 21//51 23//51
f 14//52 17//52 23//52
f 32//53 33//53 29//53
f 33//54 30//54 18//54
f 16//55 24//55 20//55
f 23//56 21//56 32//56
f 32//57 21//57 28//57
f 7//58 2//58 6//58
f 24//59 16//59 6//59
f 16//60 27//60 12//60
f 27//61 22//61 12//61
f 7//62 6//62 16//62
f 11//63 6//63 1//63
f 6//64 2//64 1//64
f 2//65 7//65 1//65
f 7//66 4//66 1//66
f 7//67 8//67 4//67
f 27//68 7//68 6//68
f 25//69 16//69 6//69
f 16//70 27//70 6//70
f 12//71 13//71 7//71
f 13//72 8//72 7//72
f 27//73 22//73 7//73
f 22//74 12//74 7//74
f 14//75 9//75 23//75
f 23//76 9//76 29//76
f 29//77 9//77 10//77
f 29//78 10//78 18//78
f 19//79 10//79 15//79
f 19//80 15//80 25//80
f 16//81 31//81 27//81
f 24//82 26//82 25//82
f 26//83 16//83 25//83
f 26//84 20//84 16//84
f 20//85 31//85 16//85
f 20//86 33//86 31//86
f 30//87 33//87 20//87
