# Blender 4.0.0
# www.blender.org
o decimated_mesh
v 0.000031 0.095006 -0.001235
v -0.000010 0.095124 -0.001237
v -0.000136 0.094962 -0.001078
v -0.000405 0.095040 -0.001175
v -0.000136 0.095172 -0.001078
v 0.000400 0.095039 -0.001175
v -0.000797 0.094967 -0.000803
v -0.000920 0.095033 -0.000907
v -0.000803 0.095167 -0.000797
v 0.000755 0.095169 -0.000853
v 0.000817 0.095039 -0.000989
v 0.000803 0.094967 -0.000797
v 0.000971 0.095033 -0.000837
v -0.001123 0.094966 0.000024
v -0.001173 0.095040 -0.000410
v -0.001079 0.095172 -0.000135
v 0.001174 0.095040 -0.000408
v 0.001079 0.094963 -0.000135
v -0.001237 0.095011 -0.000012
v -0.001235 0.095129 0.000031
v 0.001079 0.095172 -0.000136
v 0.001238 0.095011 -0.000000
v -0.000761 0.094965 0.000841
v -0.000797 0.095167 0.000803
v 0.000841 0.094964 0.000757
v -0.001175 0.095040 0.000405
v -0.000976 0.095035 0.000833
v 0.000732 0.095170 0.000855
v 0.001234 0.095130 0.000032
v 0.001170 0.095060 0.000437
v 0.000919 0.095033 0.000908
v -0.000817 0.095039 0.000989
v -0.000136 0.095172 0.001078
v 0.000136 0.094962 0.001078
v -0.000408 0.095040 0.001174
v -0.000000 0.095011 0.001238
v 0.000000 0.095124 0.001235
v 0.000408 0.095040 0.001174
vn 0.1542 0.0248 0.9877
vn 0.9878 -0.0102 0.1556
vn 0.9860 0.0719 -0.1507
vn 0.1565 0.0427 -0.9867
vn 0.0650 -0.9777 -0.1996
vn -0.2226 0.8289 -0.5132
vn 0.5012 0.8342 -0.2302
vn -0.5547 0.7849 0.2761
vn 0.1365 -0.9368 -0.3221
vn 0.0032 1.0000 -0.0004
vn -0.1998 0.9777 0.0650
vn 0.0002 1.0000 -0.0000
vn 0.1896 0.9795 0.0681
vn 0.5166 0.8106 0.2757
vn -0.3049 -0.8932 0.3306
vn -0.3106 -0.9424 -0.1240
vn -0.1542 0.0248 0.9877
vn -0.0659 -0.9685 0.2400
vn 0.0640 0.9686 0.2403
vn -0.2528 0.8511 -0.4601
vn -0.3122 0.7514 -0.5814
vn 0.4837 0.8417 -0.2399
vn 0.5273 0.8082 -0.2623
vn 0.4938 0.7298 -0.4728
vn -0.5428 0.7984 0.2605
vn -0.4714 0.7483 0.4667
vn -0.1786 -0.9135 -0.3656
vn -0.1247 -0.9150 -0.3836
vn -0.1466 -0.9306 -0.3354
vn -0.3284 0.9342 0.1394
vn 0.3853 -0.9144 -0.1244
vn -0.3352 0.9307 0.1465
vn 0.2689 0.7538 -0.5995
vn 0.2475 0.7732 -0.5839
vn 0.3133 0.9399 -0.1357
vn -0.3960 -0.9102 0.1217
vn 0.3158 0.9387 -0.1383
vn 0.1495 -0.9305 -0.3345
vn 0.2761 -0.9075 -0.3165
vn 0.0654 0.9678 -0.2431
vn 0.0038 -1.0000 0.0027
vn 0.0024 1.0000 0.0007
vn -0.0098 -0.9999 -0.0055
vn 0.0085 -0.9999 -0.0106
vn 0.0003 -1.0000 -0.0001
vn -0.2439 0.8094 0.5341
vn -0.2466 0.8472 0.4706
vn -0.2209 0.8275 0.5162
vn -0.0110 0.9999 0.0083
vn 0.0031 1.0000 0.0029
vn 0.0062 1.0000 -0.0076
vn -0.0127 0.9998 -0.0124
vn -0.0003 1.0000 -0.0000
vn -0.9860 0.0664 -0.1532
vn -0.5791 0.7562 -0.3046
vn -0.4844 0.8415 -0.2394
vn -0.5167 0.8271 -0.2214
vn 0.1639 -0.9269 0.3378
vn 0.1244 -0.9146 0.3847
vn 0.1507 -0.9335 0.3254
vn -0.1410 -0.0612 -0.9881
vn 0.2911 0.9338 0.2081
vn -0.9880 -0.0430 0.1483
vn -0.1180 -0.9345 0.3359
vn -0.1728 -0.9057 0.3872
vn 0.4198 -0.8925 0.1649
vn 0.4320 -0.8837 0.1801
vn 0.2403 -0.9685 0.0659
vn 0.2484 0.7811 0.5729
vn 0.3358 0.7010 0.6292
vn -0.3292 -0.9365 -0.1209
vn -0.3514 -0.9212 -0.1671
vn 0.4308 0.8752 0.2202
vn 0.5095 0.8263 -0.2403
vn 0.4585 0.8633 -0.2111
vn 0.5024 0.8058 0.3135
vn -0.3274 0.9339 0.1433
vn -0.3394 0.9295 0.1447
vn 0.0026 1.0000 -0.0003
vn 0.0037 1.0000 -0.0000
vn -0.1851 0.8841 0.4290
vn -0.2460 0.8091 0.5337
vn -0.2482 0.8019 0.5435
vn -0.2548 0.8032 -0.5385
vn -0.1821 0.8909 -0.4160
vn 0.3133 0.9397 -0.1372
vn 0.3179 0.9381 -0.1379
vn -0.4426 0.8762 -0.1909
vn -0.5409 0.7974 0.2676
vn -0.5312 0.8125 -0.2401
vn -0.5765 0.7692 0.2758
s 0
f 38//1 37//1 36//1
f 22//2 29//2 30//2
f 17//3 29//3 22//3
f 1//4 2//4 6//4
f 1//5 12//5 3//5
f 9//6 5//6 4//6
f 10//7 21//7 17//7
f 24//8 20//8 26//8
f 12//9 1//9 6//9
f 34//10 3//10 14//10
f 16//11 20//11 24//11
f 33//12 21//12 5//12
f 21//13 28//13 29//13
f 29//14 28//14 31//14
f 32//15 27//15 23//15
f 7//16 14//16 15//16
f 36//17 37//17 35//17
f 36//18 23//18 34//18
f 28//19 33//19 37//19
f 2//20 4//20 5//20
f 4//21 8//21 9//21
f 29//22 17//22 21//22
f 17//23 13//23 10//23
f 13//24 11//24 10//24
f 26//25 27//25 24//25
f 27//26 32//26 24//26
f 8//27 4//27 7//27
f 4//28 1//28 3//28
f 7//29 4//29 3//29
f 13//30 12//30 17//30
f 17//31 22//31 18//31
f 12//32 18//32 17//32
f 11//33 6//33 10//33
f 6//34 2//34 10//34
f 27//35 23//35 26//35
f 26//36 19//36 14//36
f 23//37 14//37 26//37
f 6//38 11//38 12//38
f 11//39 13//39 12//39
f 10//40 2//40 5//40
f 18//41 25//41 34//41
f 34//42 14//42 23//42
f 14//43 7//43 3//43
f 3//44 12//44 18//44
f 18//45 34//45 3//45
f 32//46 35//46 24//46
f 35//47 37//47 33//47
f 24//48 35//48 33//48
f 16//49 24//49 33//49
f 33//50 28//50 21//50
f 21//51 10//51 5//51
f 5//52 9//52 16//52
f 16//53 33//53 5//53
f 19//54 20//54 15//54
f 8//55 15//55 9//55
f 15//56 20//56 16//56
f 9//57 15//57 16//57
f 31//58 38//58 25//58
f 38//59 36//59 34//59
f 25//60 38//60 34//60
f 2//61 1//61 4//61
f 31//62 30//62 29//62
f 20//63 19//63 26//63
f 23//64 36//64 35//64
f 35//65 32//65 23//65
f 22//66 30//66 25//66
f 30//67 31//67 25//67
f 25//68 18//68 22//68
f 28//69 37//69 38//69
f 38//70 31//70 28//70
f 19//71 15//71 14//71
f 15//72 8//72 7//72
f 28//73 30//73 29//73
f 17//74 10//74 29//74
f 10//75 21//75 29//75
f 28//76 31//76 30//76
f 12//77 18//77 13//77
f 13//78 18//78 17//78
f 23//79 34//79 3//79
f 23//80 3//80 14//80
f 24//81 37//81 33//81
f 24//82 32//82 37//82
f 32//83 35//83 37//83
f 4//84 9//84 2//84
f 9//85 5//85 2//85
f 27//86 23//86 14//86
f 27//87 14//87 26//87
f 9//88 20//88 16//88
f 20//89 27//89 24//89
f 15//90 20//90 9//90
f 20//91 26//91 27//91
