# Blender 4.0.0
# www.blender.org
o decimated_mesh
v 0.008301 0.095012 -0.001228
v 0.008474 0.095123 -0.001233
v 0.008566 0.095017 -0.001220
v 0.008388 0.094965 -0.001114
v 0.008384 0.095170 -0.001108
v 0.008869 0.095070 -0.001160
v 0.009259 0.095041 -0.000978
v 0.009197 0.094977 -0.000835
v 0.007618 0.094971 -0.000850
v 0.008023 0.095039 -0.001180
v 0.007482 0.095040 -0.000961
v 0.007618 0.095163 -0.000850
v 0.009193 0.095158 -0.000840
v 0.007402 0.094966 -0.000402
v 0.007409 0.095170 -0.000405
v 0.009552 0.094972 -0.000006
v 0.007190 0.094995 -0.000001
v 0.009553 0.095163 0.000005
v 0.009443 0.095068 -0.000762
v 0.007298 0.095090 -0.000598
v 0.007190 0.095139 0.000000
v 0.009661 0.095030 -0.000140
v 0.007401 0.094965 0.000390
v 0.007099 0.095069 -0.000143
v 0.007395 0.095168 0.000388
v 0.009660 0.095032 0.000151
v 0.009193 0.094977 0.000840
v 0.007290 0.095044 0.000579
v 0.007101 0.095064 0.000142
v 0.009216 0.095154 0.000838
v 0.009440 0.095067 0.000765
v 0.009259 0.095042 0.000978
v 0.007623 0.094972 0.000856
v 0.007621 0.095164 0.000854
v 0.008389 0.094965 0.001113
v 0.007495 0.095045 0.000970
v 0.008311 0.095013 0.001231
v 0.008385 0.095169 0.001113
v 0.008866 0.095067 0.001161
v 0.008566 0.095017 0.001220
v 0.008023 0.095039 0.001180
v 0.008464 0.095125 0.001233
vn -0.2142 0.8528 -0.4763
vn 0.2521 -0.7155 -0.6516
vn 0.1323 0.9454 -0.2977
vn 0.1523 0.9163 0.3704
vn 0.4785 -0.8781 0.0094
vn 0.0001 1.0000 0.0003
vn -0.1246 0.9576 -0.2597
vn 0.1674 0.9645 -0.2042
vn 0.1415 0.9093 0.3913
vn 0.3797 0.9100 -0.1667
vn 0.7740 0.6331 -0.0026
vn 0.4378 0.8820 0.1746
vn -0.3869 0.9060 0.1716
vn 0.2042 0.7925 0.5746
vn -0.2000 0.8268 0.5258
vn -0.4468 0.8813 -0.1538
vn -0.6196 -0.7849 -0.0088
vn 0.6453 0.7402 0.1889
vn 0.0056 -1.0000 -0.0001
vn -0.3995 -0.9051 0.1454
vn -0.4041 0.8889 0.2157
vn -0.8554 -0.3423 -0.3887
vn -0.3823 0.9087 -0.1676
vn -0.1539 0.1987 0.9679
vn -0.2089 0.7734 -0.5985
vn -0.1359 0.9249 0.3552
vn 0.2471 -0.7317 0.6352
vn 0.1426 0.9327 -0.3314
vn 0.1758 0.9565 -0.2327
vn 0.1815 0.9490 0.2579
vn -0.6304 0.7761 0.0140
vn -0.2215 0.8560 0.4670
vn -0.1478 0.1831 -0.9719
vn 0.1835 0.0523 0.9816
vn 0.1468 0.8983 -0.4142
vn 0.0469 -0.0782 0.9958
vn -0.1385 -0.9904 -0.0018
vn 0.0194 0.9997 -0.0139
vn 0.0059 1.0000 0.0003
vn -0.0164 0.9996 -0.0226
vn -0.0026 1.0000 0.0021
vn -0.0130 0.9998 0.0163
vn 0.0247 0.9995 0.0202
vn -0.1379 0.9200 -0.3668
vn 0.1279 0.9479 0.2917
vn 0.0320 -0.0984 -0.9946
vn 0.6538 0.7339 -0.1842
vn 0.4250 0.7793 -0.4606
vn -0.1390 0.9903 -0.0004
vn -0.3314 -0.9280 -0.1704
vn 0.4610 0.8687 0.1811
vn 0.3973 -0.8892 -0.2270
vn -0.2987 0.9403 0.1632
vn 0.1763 0.9547 0.2397
vn -0.2036 0.7875 0.5818
vn -0.3977 0.9056 -0.1470
vn -0.5228 0.8125 -0.2579
vn -0.2425 0.9373 -0.2502
vn 0.1856 0.0356 -0.9820
vn 0.4055 0.8975 0.1733
vn 0.4490 0.7590 0.4716
vn 0.0191 -0.9997 0.0139
vn -0.0153 -0.9997 0.0208
vn -0.0021 -1.0000 -0.0015
vn -0.0141 -0.9997 -0.0179
vn 0.0198 -0.9997 -0.0150
vn -0.0000 -1.0000 -0.0001
vn 0.3610 0.9141 -0.1846
vn 0.3458 0.9203 -0.1830
vn -0.4413 -0.8846 0.1508
vn -0.4994 0.8264 0.2601
vn -0.5211 0.8127 0.2609
vn -0.5412 0.8098 0.2264
vn 0.0314 -0.9182 0.3950
vn -0.2962 0.9417 -0.1592
vn 0.3943 -0.8897 0.2302
vn -0.2031 0.8384 -0.5058
vn -0.1239 0.9576 0.2601
vn 0.0290 -0.9164 -0.3991
vn 0.2026 0.7915 -0.5766
vn 0.1991 0.8745 -0.4422
vn -0.2143 0.7987 -0.5623
vn -0.1584 0.8807 -0.4463
vn 0.1072 0.9536 -0.2813
vn 0.3062 0.7921 -0.5280
vn -0.1533 0.9250 0.3477
vn -0.1106 0.9535 0.2805
vn 0.1529 0.9145 0.3745
vn 0.1117 0.9462 0.3037
vn 0.1551 0.9131 0.3770
vn -0.2327 0.7818 -0.5785
vn -0.4585 0.8194 -0.3441
vn -0.3518 0.9188 -0.1791
vn -0.3911 0.8998 0.1932
vn -0.3208 0.9362 0.1435
vn 0.4493 0.8750 0.1803
vn 0.1106 0.9528 0.2827
vn -0.1541 0.8876 0.4341
vn 0.2052 0.8658 0.4563
vn 0.3015 0.7863 0.5393
vn -0.3866 0.9026 -0.1893
vn -0.3197 0.9369 -0.1412
vn -0.1096 0.9531 -0.2822
vn 0.1122 0.9440 -0.3104
vn 0.3506 0.9191 -0.1797
vn 0.4427 0.8803 0.1706
vn -0.4545 0.8733 0.1757
vn -0.5017 0.8276 0.2518
vn -0.2194 0.7923 0.5693
vn -0.2211 0.7857 0.5777
vn -0.5093 0.8210 0.2581
vn -0.5153 0.8139 0.2684
vn -0.1573 0.9205 -0.3577
vn 0.1486 0.9155 -0.3739
vn 0.1674 0.9035 -0.3945
vn 0.3574 0.9146 -0.1890
s 0
f 2//1 10//1 5//1
f 3//2 6//2 7//2
f 36//3 37//3 35//3
f 1//4 10//4 11//4
f 16//5 22//5 26//5
f 5//6 15//6 38//6
f 35//7 40//7 32//7
f 2//8 7//8 6//8
f 11//9 9//9 4//9
f 18//10 19//10 13//10
f 22//11 18//11 26//11
f 17//12 11//12 24//12
f 8//13 16//13 19//13
f 38//14 32//14 30//14
f 38//15 36//15 41//15
f 20//16 24//16 21//16
f 24//17 17//17 29//17
f 31//18 26//18 18//18
f 4//19 16//19 35//19
f 23//20 28//20 17//20
f 21//21 29//21 28//21
f 11//22 24//22 20//22
f 16//23 27//23 31//23
f 37//24 42//24 41//24
f 5//25 11//25 12//25
f 4//26 8//26 7//26
f 32//27 39//27 40//27
f 36//28 41//28 37//28
f 5//29 7//29 2//29
f 32//30 42//30 39//30
f 21//31 24//31 29//31
f 41//32 42//32 38//32
f 10//33 2//33 1//33
f 39//34 42//34 40//34
f 36//35 35//35 33//35
f 37//36 40//36 42//36
f 17//37 14//37 23//37
f 18//38 13//38 5//38
f 18//39 5//39 38//39
f 12//40 15//40 5//40
f 15//41 25//41 38//41
f 25//42 34//42 38//42
f 38//43 30//43 18//43
f 35//44 32//44 27//44
f 11//45 4//45 1//45
f 3//46 1//46 2//46
f 22//47 19//47 18//47
f 19//48 7//48 13//48
f 25//49 15//49 21//49
f 11//50 9//50 14//50
f 14//51 11//51 17//51
f 7//52 19//52 8//52
f 19//53 16//53 22//53
f 38//54 42//54 32//54
f 38//55 34//55 36//55
f 21//56 15//56 20//56
f 15//57 12//57 11//57
f 20//58 15//58 11//58
f 3//59 2//59 6//59
f 18//60 30//60 31//60
f 30//61 32//61 31//61
f 27//62 35//62 16//62
f 23//63 35//63 33//63
f 23//64 14//64 4//64
f 14//65 9//65 4//65
f 4//66 8//66 16//66
f 35//67 23//67 4//67
f 23//68 36//68 33//68
f 36//69 23//69 28//69
f 28//70 29//70 17//70
f 28//71 36//71 25//71
f 36//72 34//72 25//72
f 25//73 21//73 28//73
f 35//74 40//74 37//74
f 26//75 16//75 31//75
f 31//76 32//76 27//76
f 5//77 10//77 11//77
f 4//78 7//78 3//78
f 3//79 4//79 1//79
f 5//80 13//80 7//80
f 13//81 6//81 2//81
f 10//82 12//82 2//82
f 12//83 5//83 2//83
f 5//84 13//84 2//84
f 7//85 6//85 13//85
f 7//86 3//86 8//86
f 8//87 3//87 4//87
f 9//88 1//88 10//88
f 4//89 1//89 9//89
f 9//90 10//90 11//90
f 11//91 12//91 10//91
f 11//92 20//92 12//92
f 20//93 15//93 12//93
f 22//94 19//94 8//94
f 22//95 8//95 16//95
f 14//96 11//96 24//96
f 42//97 30//97 38//97
f 34//98 42//98 38//98
f 42//99 39//99 30//99
f 39//100 32//100 30//100
f 27//101 31//101 26//101
f 27//102 26//102 16//102
f 27//103 35//103 40//103
f 37//104 35//104 33//104
f 33//105 23//105 28//105
f 17//106 14//106 24//106
f 29//107 25//107 21//107
f 29//108 34//108 25//108
f 34//109 36//109 42//109
f 36//110 41//110 42//110
f 29//111 28//111 34//111
f 28//112 36//112 34//112
f 40//113 32//113 27//113
f 41//114 37//114 33//114
f 41//115 33//115 36//115
f 36//116 33//116 28//116
