# Blender 4.0.0
# www.blender.org
o decimated_mesh
v -0.008295 0.095013 -0.001229
v -0.008480 0.095123 -0.001233
v -0.008381 0.094965 -0.001112
v -0.008566 0.095017 -0.001220
v -0.008390 0.095170 -0.001117
v -0.008023 0.095039 -0.001180
v -0.007496 0.095045 -0.000970
v -0.007618 0.094971 -0.000850
v -0.009193 0.094977 -0.000840
v -0.009260 0.095040 -0.000977
v -0.007618 0.095163 -0.000850
v -0.008869 0.095065 -0.001160
v -0.009197 0.095158 -0.000835
v -0.007396 0.094966 -0.000387
v -0.007402 0.095168 -0.000402
v -0.007294 0.095046 -0.000593
v -0.007190 0.094995 0.000001
v -0.009553 0.094972 0.000003
v -0.009443 0.095067 -0.000762
v -0.007190 0.095139 -0.000001
v -0.009552 0.095163 -0.000004
v -0.007101 0.095066 -0.000146
v -0.007410 0.094965 0.000409
v -0.009661 0.095029 -0.000144
v -0.007404 0.095170 0.000393
v -0.007102 0.095064 0.000153
v -0.007299 0.095046 0.000602
v -0.009660 0.095033 0.000150
v -0.009216 0.094980 0.000839
v -0.009193 0.095158 0.000840
v -0.007495 0.095045 0.000970
v -0.007621 0.094971 0.000854
v -0.007623 0.095163 0.000856
v -0.009443 0.095069 0.000760
v -0.008074 0.095031 0.001194
v -0.008385 0.094965 0.001112
v -0.009258 0.095041 0.000978
v -0.008388 0.095170 0.001112
v -0.008459 0.095011 0.001236
v -0.008866 0.095067 0.001161
v -0.008465 0.095124 0.001233
vn 0.2119 0.8383 -0.5024
vn -0.1535 0.9200 0.3606
vn -0.1295 0.9538 -0.2712
vn 0.3799 0.9098 0.1674
vn -0.0004 1.0000 -0.0001
vn -0.2386 -0.7565 -0.6089
vn 0.0001 1.0000 -0.0000
vn 0.2023 0.7944 0.5728
vn -0.1933 0.9384 -0.2866
vn 0.1359 0.9227 -0.3609
vn -0.1386 0.9904 -0.0010
vn 0.3056 0.9379 -0.1645
vn 0.2054 0.7930 -0.5735
vn -0.4453 0.8822 0.1533
vn -0.7735 0.6338 -0.0056
vn 0.1509 0.2115 -0.9657
vn 0.3921 0.8954 -0.2108
vn 0.1210 0.9598 0.2532
vn -0.4334 0.8881 -0.1531
vn -0.6199 0.7847 0.0005
vn 0.5280 0.8195 0.2228
vn -0.3867 0.9062 -0.1710
vn -0.6414 -0.7671 -0.0074
vn -0.4818 -0.8762 0.0103
vn -0.3775 0.9110 0.1658
vn -0.1790 0.9526 0.2460
vn -0.1455 0.9040 0.4021
vn -0.2145 -0.7911 0.5728
vn -0.1795 0.9520 0.2481
vn -0.2097 0.7967 -0.5669
vn 0.2488 0.8429 0.4771
vn -0.1476 0.8975 -0.4155
vn 0.2872 0.9447 0.1584
vn -0.3916 -0.8923 -0.2248
vn -0.0343 -0.1004 -0.9944
vn 0.0888 -0.9148 0.3940
vn 0.0161 0.9996 0.0225
vn 0.0028 1.0000 -0.0022
vn 0.0143 0.9997 -0.0181
vn -0.0199 0.9997 -0.0148
vn -0.0192 0.9997 0.0138
vn -0.0059 1.0000 -0.0001
vn 0.0188 0.9997 0.0139
vn -0.0145 0.9997 0.0182
vn -0.0021 1.0000 0.0014
vn -0.0148 0.9997 -0.0208
vn 0.0252 0.9995 -0.0206
vn 0.0056 1.0000 -0.0000
vn 0.2030 0.7853 0.5849
vn 0.1260 0.9517 -0.2801
vn 0.4079 0.8963 -0.1740
vn -0.4242 -0.8701 0.2509
vn 0.2024 0.8242 -0.5288
vn -0.4062 0.9017 0.1480
vn -0.3639 0.9128 0.1853
vn -0.3483 0.9193 0.1835
vn -0.1878 0.0256 -0.9819
vn -0.1796 0.0145 0.9836
vn 0.4854 0.8341 -0.2619
vn 0.5259 0.8088 -0.2630
vn 0.5332 0.8161 -0.2231
vn 0.1347 0.9218 0.3636
vn -0.3476 0.9193 -0.1847
vn -0.3663 0.9116 -0.1864
vn -0.3998 0.9045 -0.1484
vn 0.5213 0.8133 0.2585
vn 0.4810 0.8381 0.2575
vn 0.3943 0.8946 0.2103
vn -0.4262 0.7803 -0.4577
vn -0.6570 0.7301 -0.1876
vn -0.6394 0.7468 0.1829
vn -0.4246 0.7792 0.4610
vn 0.1061 0.0314 0.9939
vn -0.2060 0.7921 0.5746
vn -0.1314 0.9482 0.2891
vn -0.0273 -0.9189 -0.3936
vn -0.1806 0.9530 -0.2433
vn 0.1386 0.9903 -0.0019
vn 0.1739 0.8592 -0.4812
vn 0.2118 0.8009 -0.5601
vn -0.2146 0.8605 -0.4621
vn -0.1160 0.9494 -0.2920
vn 0.4928 0.8342 -0.2473
vn 0.5025 0.8260 -0.2556
vn 0.5145 0.8115 -0.2772
vn 0.2170 0.7962 -0.5648
vn -0.1635 0.9078 0.3861
vn -0.1558 0.9127 0.3778
vn -0.1118 0.9465 0.3028
vn 0.1550 0.9223 0.3541
vn 0.1060 0.9551 0.2765
vn -0.2975 0.7958 -0.5274
vn -0.1115 0.9510 0.2884
vn 0.1529 0.8884 0.4329
vn 0.4867 0.8392 0.2426
vn 0.4454 0.8784 0.1733
vn 0.4437 0.8797 -0.1712
vn -0.3535 0.9179 0.1804
vn -0.3600 0.9135 0.1897
vn 0.3119 0.9400 0.1386
vn 0.3847 0.9032 0.1903
vn 0.3314 0.9325 -0.1435
vn 0.4137 0.8882 -0.2000
vn -0.2047 0.8673 0.4538
vn -0.3007 0.7926 0.5305
vn 0.2364 0.7170 0.6557
vn 0.2196 0.7905 0.5718
vn 0.5103 0.8155 0.2731
vn 0.4997 0.8282 0.2537
vn -0.1147 0.9414 -0.3173
vn 0.1124 0.9510 -0.2881
vn -0.3537 0.9178 -0.1805
vn 0.1495 0.9222 -0.3566
vn -0.1745 0.9040 -0.3904
vn -0.3615 0.9124 -0.1920
s 0
f 5//1 6//1 2//1
f 1//2 7//2 6//2
f 36//3 35//3 31//3
f 18//4 9//4 19//4
f 38//5 25//5 5//5
f 4//6 10//6 12//6
f 36//7 23//7 3//7
f 31//8 38//8 35//8
f 2//9 12//9 10//9
f 36//10 29//10 37//10
f 14//11 23//11 17//11
f 34//12 18//12 28//12
f 7//13 5//13 11//13
f 16//14 17//14 22//14
f 21//15 24//15 28//15
f 1//16 2//16 6//16
f 20//17 22//17 16//17
f 3//18 4//18 10//18
f 17//19 27//19 26//19
f 17//20 26//20 22//20
f 25//21 27//21 20//21
f 13//22 19//22 21//22
f 22//23 26//23 20//23
f 24//24 18//24 28//24
f 21//25 34//25 30//25
f 38//26 37//26 41//26
f 3//27 8//27 7//27
f 37//28 39//28 40//28
f 37//29 40//29 41//29
f 5//30 10//30 13//30
f 35//31 38//31 41//31
f 36//32 31//32 32//32
f 24//33 18//33 19//33
f 19//34 10//34 9//34
f 2//35 1//35 4//35
f 35//36 39//36 36//36
f 33//37 25//37 38//37
f 25//38 15//38 5//38
f 15//39 11//39 5//39
f 5//40 13//40 21//40
f 21//41 30//41 38//41
f 21//42 38//42 5//42
f 18//43 3//43 9//43
f 8//44 3//44 14//44
f 14//45 3//45 23//45
f 23//46 36//46 32//46
f 36//47 18//47 29//47
f 18//48 36//48 3//48
f 31//49 33//49 38//49
f 36//50 37//50 39//50
f 18//51 34//51 29//51
f 29//52 37//52 34//52
f 7//53 6//53 5//53
f 17//54 16//54 14//54
f 14//55 7//55 8//55
f 16//56 7//56 14//56
f 2//57 4//57 12//57
f 39//58 41//58 40//58
f 16//59 7//59 15//59
f 7//60 11//60 15//60
f 15//61 20//61 16//61
f 3//62 10//62 9//62
f 27//63 23//63 31//63
f 31//64 23//64 32//64
f 23//65 27//65 17//65
f 25//66 33//66 31//66
f 31//67 27//67 25//67
f 27//68 26//68 20//68
f 10//69 19//69 13//69
f 19//70 24//70 21//70
f 28//71 34//71 21//71
f 34//72 37//72 30//72
f 35//73 41//73 39//73
f 38//74 30//74 37//74
f 3//75 7//75 1//75
f 3//76 4//76 1//76
f 5//77 2//77 10//77
f 20//78 15//78 25//78
f 5//79 11//79 2//79
f 11//80 6//80 2//80
f 12//81 13//81 2//81
f 13//82 5//82 2//82
f 15//83 22//83 11//83
f 22//84 16//84 11//84
f 16//85 7//85 11//85
f 7//86 6//86 11//86
f 7//87 6//87 8//87
f 8//88 6//88 1//88
f 8//89 1//89 3//89
f 9//90 4//90 10//90
f 3//91 4//91 9//91
f 10//92 13//92 12//92
f 30//93 41//93 38//93
f 41//94 33//94 38//94
f 33//95 26//95 25//95
f 26//96 20//96 25//96
f 20//97 22//97 15//97
f 14//98 16//98 8//98
f 8//99 16//99 7//99
f 18//100 9//100 24//100
f 24//101 9//101 19//101
f 18//102 28//102 29//102
f 29//103 28//103 34//103
f 40//104 41//104 30//104
f 37//105 40//105 30//105
f 35//106 31//106 41//106
f 31//107 33//107 41//107
f 31//108 27//108 33//108
f 27//109 26//109 33//109
f 32//110 36//110 35//110
f 39//111 36//111 29//111
f 27//112 23//112 32//112
f 39//113 29//113 37//113
f 32//114 35//114 31//114
f 32//115 31//115 27//115
