# Blender 4.0.0
# www.blender.org
o decimated_mesh
v 0.014471 -0.033722 0.022895
v 0.014487 -0.033724 0.021213
v 0.014487 -0.032951 0.022454
v 0.000020 -0.033724 0.026162
v 0.014492 -0.025577 0.010701
v 0.010829 -0.032932 0.024909
v 0.010655 -0.033718 0.025379
v 0.000027 -0.033704 0.027502
v 0.000020 -0.026127 0.018462
v 0.008121 -0.025550 0.017988
v 0.014476 -0.025551 0.013514
v 0.000020 -0.025550 0.018268
v 0.000026 -0.025550 0.019661
v 0.000029 -0.032869 0.027114
vn 1.0000 -0.0054 -0.0054
vn 0.9998 -0.0148 0.0094
vn -0.2051 -0.7736 -0.5996
vn -0.3300 -0.6720 -0.6629
vn -0.4446 -0.2849 -0.8492
vn -0.1456 -0.7059 -0.6932
vn -1.0000 0.0051 0.0056
vn 1.0000 -0.0031 -0.0035
vn 1.0000 -0.0014 -0.0043
vn 1.0000 0.0064 0.0054
vn 1.0000 0.0009 -0.0004
vn -0.0007 -1.0000 0.0007
vn 0.0016 -0.9999 0.0143
vn 0.0007 -1.0000 0.0020
vn -0.0000 -1.0000 -0.0001
vn 0.0064 -0.9999 0.0094
vn 0.0001 -1.0000 0.0039
vn 0.5072 0.4200 0.7526
vn 0.5102 0.3555 0.7832
vn 0.4095 0.7030 0.5815
vn 0.4002 0.7006 0.5908
vn 0.1788 0.4140 0.8926
vn 0.1786 0.4754 0.8614
vn -0.1436 -0.7043 -0.6952
vn 0.0030 -1.0000 0.0094
vn 1.0000 0.0079 0.0054
vn 1.0000 -0.0002 0.0003
vn -0.0000 -1.0000 0.0003
vn 1.0000 -0.0000 -0.0000
vn 1.0000 -0.0042 -0.0043
vn 0.0003 -1.0000 0.0007
vn 0.0007 -1.0000 0.0029
vn 1.0000 -0.0052 -0.0056
vn -0.1433 -0.7061 -0.6934
vn -0.1459 -0.7045 -0.6945
s 0
f 9//1 14//1 4//1
f 3//2 1//2 2//2
f 2//3 4//3 5//3
f 4//4 9//4 5//4
f 9//5 12//5 5//5
f 6//6 14//6 13//6
f 8//7 14//7 4//7
f 14//8 9//8 13//8
f 13//9 9//9 12//9
f 2//10 5//10 11//10
f 11//11 3//11 2//11
f 1//12 7//12 2//12
f 7//13 8//13 4//13
f 4//14 2//14 7//14
f 13//15 12//15 10//15
f 10//16 5//16 11//16
f 12//17 5//17 10//17
f 3//18 6//18 1//18
f 6//19 7//19 1//19
f 11//20 10//20 3//20
f 10//21 6//21 3//21
f 8//22 7//22 14//22
f 7//23 6//23 14//23
f 6//24 13//24 10//24
f 12//25 5//25 11//25
f 11//26 3//26 5//26
f 3//27 2//27 5//27
f 10//28 12//28 11//28
f 9//29 12//29 4//29
f 4//30 12//30 13//30
f 1//31 4//31 2//31
f 1//32 7//32 4//32
f 14//33 4//33 13//33
f 13//34 10//34 14//34
f 14//35 10//35 6//35
