# Blender 4.0.0
# www.blender.org
o decimated_mesh
v 0.000336 -0.034458 -0.027679
v -0.001218 -0.034503 -0.027578
v 0.000180 -0.033024 -0.027212
v 0.000201 -0.035549 -0.027577
v -0.003701 -0.033959 -0.026993
v -0.000822 -0.032957 -0.027089
v 0.000196 -0.036303 -0.027239
v -0.008937 -0.034534 -0.026084
v -0.008904 -0.033953 -0.025957
v 0.004694 -0.035039 -0.027004
v 0.000030 -0.037096 -0.026100
v -0.010636 -0.034515 -0.025601
v 0.000081 -0.025722 -0.019719
v -0.010627 -0.032935 -0.024969
v 0.003627 -0.033940 -0.027000
v 0.009926 -0.034997 -0.025984
v 0.007868 -0.036165 -0.025885
v 0.010844 -0.036216 -0.025066
v 0.000024 -0.025731 -0.018324
v -0.009981 -0.031163 -0.023315
v -0.010640 -0.031045 -0.022724
v 0.008109 -0.025731 -0.018120
v 0.010677 -0.032876 -0.024942
v 0.008823 -0.033934 -0.025964
v 0.011744 -0.034984 -0.025102
v 0.000024 -0.037356 -0.024395
v -0.010640 -0.034518 -0.024165
v 0.009908 -0.037119 -0.024138
v -0.010640 -0.031045 -0.020761
v 0.010772 -0.025731 -0.014417
v 0.011120 -0.033623 -0.025098
v 0.000024 -0.037356 -0.022319
v 0.000024 -0.037216 -0.021495
v 0.019031 -0.036131 -0.019683
v 0.009287 -0.037307 -0.023356
v 0.013550 -0.025734 -0.014425
v 0.018730 -0.033016 -0.019664
v 0.019323 -0.034113 -0.019856
v 0.019329 -0.035320 -0.019880
v 0.015962 -0.037308 -0.014411
v 0.020222 -0.033842 -0.018642
v 0.020069 -0.034489 -0.019112
v 0.020216 -0.036090 -0.018290
v 0.020283 -0.035220 -0.018845
v 0.018162 -0.037117 -0.018638
v 0.022511 -0.032934 -0.014416
v 0.019403 -0.032850 -0.018874
v 0.023184 -0.034219 -0.014417
v 0.022646 -0.036244 -0.014417
v 0.023184 -0.035314 -0.014426
v 0.021057 -0.037187 -0.014416
vn 0.0053 -1.0000 -0.0000
vn -0.1909 -0.4007 -0.8961
vn 0.2265 -0.4715 -0.8523
vn 0.8332 0.0038 -0.5530
vn -0.1420 0.7150 -0.6846
vn 0.1791 -0.3922 -0.9023
vn 0.5142 -0.3758 -0.7710
vn -0.0618 -0.0852 -0.9944
vn -0.2171 -0.6396 -0.7374
vn 0.6842 -0.4291 -0.5897
vn -0.2795 0.8327 -0.4780
vn -0.1392 -0.7101 0.6902
vn 0.5773 0.7180 -0.3888
vn 0.7565 0.3970 -0.5198
vn -0.3311 0.2469 0.9107
vn 0.2678 0.3466 -0.8990
vn 0.1121 -0.8112 -0.5740
vn 0.4265 0.1980 -0.8826
vn -0.2572 -0.9664 -0.0000
vn 0.4141 -0.3277 -0.8492
vn -0.0000 -1.0000 -0.0000
vn -0.2797 -0.9465 0.1607
vn 0.4647 -0.8036 -0.3718
vn -0.2560 -0.1143 0.9599
vn 0.4447 -0.8957 -0.0000
vn 0.1918 0.1896 -0.9630
vn 0.7444 0.2687 -0.6113
vn -0.4045 0.6985 -0.5904
vn -0.2391 -0.9598 -0.1472
vn -1.0000 0.0037 -0.0088
vn 0.1666 0.5184 -0.8387
vn 0.7102 0.0173 -0.7038
vn -0.0378 0.7154 -0.6977
vn -0.3353 -0.6595 0.6728
vn 0.5676 0.0189 -0.8231
vn 0.6811 0.4217 -0.5986
vn 0.0237 -0.9996 -0.0179
vn 0.0049 -1.0000 -0.0038
vn 0.8356 0.0445 -0.5475
vn -0.1487 0.7032 -0.6953
vn -0.2173 -0.7860 -0.5788
vn 0.1650 -0.4216 -0.8916
vn 0.1607 -0.4048 -0.9002
vn 0.5078 -0.3937 -0.7662
vn 0.5089 0.4077 -0.7582
vn 0.4953 0.4490 -0.7437
vn 0.7035 -0.4009 -0.5868
vn 0.1426 0.3204 -0.9365
vn -0.1385 -0.7095 0.6909
vn -0.2647 0.2218 -0.9385
vn -0.1902 0.2215 -0.9564
vn -0.1875 0.1832 -0.9650
vn -0.1469 0.3324 -0.9316
vn -0.0941 0.3222 -0.9420
vn -0.0703 0.3019 -0.9507
vn -0.1653 0.5280 -0.8330
vn -0.1873 0.4542 -0.8710
vn 0.7320 0.4939 -0.4693
vn 0.3036 0.3311 -0.8934
vn 0.1130 -0.8231 -0.5566
vn 0.1534 -0.7808 -0.6056
vn -0.2572 -0.9664 -0.0027
vn -0.0012 -1.0000 0.0008
vn 0.0002 -1.0000 -0.0067
vn 0.4661 -0.8195 -0.3333
vn 0.4809 -0.8107 -0.3340
vn -0.2973 0.3559 -0.8860
vn 0.0289 -0.9769 -0.2119
vn 0.0276 -0.9882 -0.1506
vn 0.1378 -0.1090 -0.9844
vn 0.3206 -0.8197 -0.4747
vn 0.3269 -0.8079 -0.4904
vn 0.4437 -0.8961 0.0120
vn 0.1856 0.2099 -0.9599
vn 0.1730 0.1713 -0.9699
vn -0.0010 0.0004 -1.0000
vn 0.0285 -0.0076 0.9996
vn 0.0014 -0.0004 1.0000
vn 0.0001 -0.0012 -1.0000
vn -0.0028 -0.0018 -1.0000
vn -0.0799 -0.9827 0.1668
vn 0.1031 -0.9826 -0.1544
vn 0.0476 -0.9976 -0.0493
vn 0.3976 0.7044 -0.5880
vn 0.3986 0.7053 -0.5862
vn 0.4549 0.7102 -0.5373
vn -1.0000 0.0066 -0.0031
vn -1.0000 -0.0000 -0.0000
vn 0.1794 0.4764 -0.8607
vn 0.8095 0.2081 -0.5490
vn 0.7529 -0.4393 -0.4900
vn 0.7675 -0.3859 -0.5119
vn 0.7362 -0.0316 -0.6760
vn -0.3176 -0.6328 0.7062
vn 0.5323 0.2463 -0.8099
vn 0.6301 0.4510 -0.6321
vn -0.1830 -0.2495 -0.9509
vn 0.1739 0.4524 -0.8747
vn 0.1907 0.2152 -0.9578
vn 0.1867 0.1847 -0.9649
vn -0.1384 -0.7101 0.6903
vn -0.1393 -0.7096 0.6907
vn 0.1752 0.5079 -0.8434
vn 0.2871 0.3560 -0.8893
vn 0.2954 0.3227 -0.8992
vn 0.1164 -0.8081 -0.5774
vn 0.1088 -0.8232 -0.5573
vn -0.1766 0.4218 -0.8893
vn -0.1807 0.5097 -0.8411
vn 0.4420 -0.8969 0.0119
vn 0.0024 -1.0000 -0.0066
vn -0.0012 -1.0000 0.0006
vn -0.0014 -1.0000 0.0012
vn 0.3295 -0.8080 -0.4884
vn 0.3180 -0.8194 -0.4770
vn 0.0384 -0.9781 -0.2047
vn 0.0221 -0.9883 -0.1507
vn -1.0000 0.0013 -0.0031
vn -0.9998 0.0115 -0.0155
vn 0.4460 -0.8950 -0.0000
vn -0.0003 -0.0006 -1.0000
vn -0.0028 -0.0047 -1.0000
vn 0.6926 -0.4001 -0.6002
vn 0.6960 -0.4236 -0.5797
vn 0.0058 -1.0000 -0.0045
vn 0.0030 -1.0000 -0.0000
vn -0.0010 0.0003 -1.0000
vn 0.7662 0.4020 -0.5014
vn 0.7235 0.4808 -0.4952
vn 0.8315 0.0409 -0.5540
vn 0.8361 0.0038 -0.5486
s 0
f 32//1 26//1 35//1
f 4//2 7//2 8//2
f 16//3 18//3 17//3
f 42//4 48//4 50//4
f 6//5 20//5 13//5
f 10//6 16//6 17//6
f 25//7 39//7 34//7
f 2//8 1//8 4//8
f 7//9 12//9 8//9
f 43//10 39//10 44//10
f 13//11 20//11 21//11
f 13//12 3//12 23//12
f 47//13 36//13 46//13
f 47//14 46//14 48//14
f 19//15 29//15 30//15
f 16//16 23//16 31//16
f 28//17 11//17 17//17
f 16//18 31//18 25//18
f 27//19 26//19 32//19
f 25//20 18//20 16//20
f 19//21 22//21 30//21
f 27//22 32//22 33//22
f 34//23 43//23 45//23
f 29//24 40//24 30//24
f 29//25 21//25 13//25
f 15//26 24//26 10//26
f 41//27 42//27 38//27
f 21//28 20//28 14//28
f 11//29 26//29 12//29
f 21//30 14//30 27//30
f 24//31 15//31 23//31
f 42//32 39//32 38//32
f 6//33 13//33 3//33
f 33//34 29//34 27//34
f 39//35 25//35 38//35
f 47//36 41//36 38//36
f 35//37 51//37 40//37
f 40//38 32//38 35//38
f 50//39 44//39 42//39
f 6//40 14//40 20//40
f 12//41 7//41 11//41
f 17//42 7//42 10//42
f 7//43 4//43 10//43
f 34//44 18//44 25//44
f 38//45 31//45 37//45
f 31//46 23//46 37//46
f 43//47 34//47 39//47
f 15//48 1//48 3//48
f 13//49 23//49 22//49
f 12//50 9//50 8//50
f 9//51 5//51 8//51
f 5//52 2//52 8//52
f 5//53 6//53 2//53
f 6//54 3//54 2//54
f 3//55 1//55 2//55
f 5//56 9//56 14//56
f 14//57 6//57 5//57
f 48//58 41//58 47//58
f 16//59 24//59 23//59
f 7//60 17//60 11//60
f 17//61 18//61 28//61
f 27//62 12//62 26//62
f 36//63 30//63 22//63
f 22//64 19//64 13//64
f 51//65 45//65 43//65
f 49//66 51//66 43//66
f 14//67 9//67 12//67
f 28//68 35//68 26//68
f 26//69 11//69 28//69
f 1//70 10//70 4//70
f 18//71 34//71 28//71
f 28//72 34//72 45//72
f 29//73 13//73 19//73
f 16//74 10//74 24//74
f 10//75 1//75 15//75
f 51//76 46//76 49//76
f 49//77 50//77 48//77
f 48//78 46//78 49//78
f 46//79 40//79 36//79
f 30//80 36//80 40//80
f 40//76 46//76 51//76
f 40//81 33//81 32//81
f 28//82 45//82 35//82
f 51//83 35//83 45//83
f 23//84 22//84 37//84
f 22//85 36//85 37//85
f 36//86 47//86 37//86
f 14//87 12//87 27//87
f 27//88 29//88 21//88
f 3//89 23//89 15//89
f 42//90 41//90 48//90
f 49//91 43//91 50//91
f 50//92 43//92 44//92
f 42//93 44//93 39//93
f 33//94 40//94 29//94
f 31//95 38//95 25//95
f 38//96 37//96 47//96
f 8//97 2//97 4//97
f 3//98 24//98 15//98
f 24//99 16//99 15//99
f 16//100 10//100 15//100
f 13//101 3//101 22//101
f 22//102 3//102 23//102
f 23//103 24//103 3//103
f 23//104 31//104 24//104
f 31//105 16//105 24//105
f 28//106 7//106 17//106
f 28//107 11//107 7//107
f 9//108 6//108 5//108
f 9//109 14//109 6//109
f 21//110 13//110 19//110
f 19//111 13//111 30//111
f 30//112 13//112 36//112
f 36//113 13//113 22//113
f 34//114 45//114 18//114
f 45//115 28//115 18//115
f 35//116 11//116 28//116
f 35//117 26//117 11//117
f 27//118 21//118 12//118
f 21//119 14//119 12//119
f 29//120 21//120 19//120
f 40//121 30//121 46//121
f 46//122 30//122 36//122
f 44//123 34//123 39//123
f 44//124 43//124 34//124
f 40//125 26//125 35//125
f 40//126 32//126 26//126
f 51//127 40//127 49//127
f 49//76 40//76 46//76
f 48//128 41//128 46//128
f 41//129 47//129 46//129
f 48//130 44//130 42//130
f 48//131 50//131 44//131
