# Blender 4.0.0
# www.blender.org
o decimated_mesh
v 0.011259 -0.026096 -0.014416
v 0.014078 -0.026100 -0.014408
v 0.015719 -0.037237 -0.014416
v 0.021169 -0.037235 0.000048
v 0.018515 -0.026096 0.000048
v 0.020118 -0.026095 0.000041
v 0.027405 -0.033283 0.000040
v 0.022609 -0.033047 -0.014415
v 0.024853 -0.037346 0.000048
v 0.026417 -0.032917 -0.004194
v 0.018594 -0.026096 -0.007713
v 0.025215 -0.032963 -0.010216
v 0.019663 -0.037338 -0.014416
v 0.026028 -0.037119 0.000047
v 0.027781 -0.034434 0.000026
v 0.025474 -0.033729 -0.010576
v 0.023216 -0.034482 -0.014416
v 0.021138 -0.037124 -0.014413
v 0.024245 -0.037120 -0.009610
v 0.027484 -0.035090 -0.002257
v 0.025651 -0.034372 -0.010660
v 0.024441 -0.035228 -0.012620
v 0.027551 -0.036009 0.000038
v 0.026446 -0.035093 -0.007454
v 0.025544 -0.035607 -0.010613
v 0.023095 -0.035525 -0.014416
v 0.025359 -0.036161 -0.010470
v 0.022724 -0.036192 -0.014412
vn 0.8742 0.2083 -0.4386
vn 0.0001 -1.0000 0.0001
vn 0.5970 -0.7942 -0.1131
vn 0.9857 -0.1441 -0.0869
vn 0.9613 -0.0932 -0.2592
vn 0.8763 0.3508 -0.3302
vn 0.8039 -0.0933 -0.5874
vn 0.8365 0.0640 -0.5442
vn -0.0257 -0.9996 0.0098
vn 0.7867 0.3331 -0.5198
vn 0.9585 0.2126 -0.1898
vn 0.9056 -0.3838 -0.1806
vn 0.7568 -0.4242 -0.4974
vn 0.9125 0.3666 -0.1814
vn 0.9338 0.3066 -0.1843
vn -0.0029 -0.0012 -1.0000
vn -0.0116 0.0013 -0.9999
vn 0.0015 -0.0010 -1.0000
vn -0.0000 -0.0000 -1.0000
vn 0.0027 0.0011 -1.0000
vn -0.0004 0.0006 -1.0000
vn 0.0008 0.0007 1.0000
vn 0.0040 0.0010 1.0000
vn 0.0001 0.0018 1.0000
vn 0.0007 0.0014 1.0000
vn -0.0008 -0.0071 -1.0000
vn -0.0204 0.0057 -0.9998
vn 0.0017 1.0000 -0.0018
vn -0.0001 -1.0000 0.0001
vn 0.4810 -0.8181 -0.3151
vn 0.4744 -0.8253 -0.3063
vn 0.8650 -0.0936 -0.4929
vn 0.5850 -0.8038 -0.1079
vn 0.6861 0.7134 -0.1423
vn 0.6985 0.7083 -0.1019
vn 0.6849 0.7161 -0.1347
vn 0.5920 0.7099 -0.3816
vn 0.5807 0.7135 -0.3921
vn 0.1890 -0.9814 -0.0348
vn 0.0769 -0.9966 -0.0281
vn 0.1433 -0.9854 -0.0920
vn 0.7443 0.4731 -0.4714
vn -0.0302 -0.9995 0.0103
vn 0.7912 0.2883 -0.5393
vn 0.9539 0.2316 -0.1906
vn 0.8978 -0.4012 -0.1816
vn 0.9119 -0.3573 -0.2022
vn 0.7750 -0.3879 -0.4989
vn 0.7579 -0.4150 -0.5034
vn 0.9019 0.3912 -0.1830
vn 0.9413 0.2834 -0.1832
vn -0.0000 0.0001 -1.0000
vn -0.0257 -0.9996 0.0087
vn -0.0302 -0.9995 0.0115
vn 0.0001 -1.0000 -0.0000
vn 0.0027 0.0044 -1.0000
vn 0.7833 0.3317 -0.5257
vn 0.7994 0.2889 -0.5267
vn 0.0058 -0.0083 -0.9999
vn 0.0019 -0.0036 -1.0000
vn 0.7608 -0.4105 -0.5027
vn 0.7548 -0.4231 -0.5012
vn -0.0002 -0.0038 -1.0000
vn -0.0003 -0.0001 -1.0000
vn -0.0017 -0.0011 -1.0000
vn -0.0040 -0.0039 -1.0000
vn 0.9341 0.3067 -0.1828
vn 0.9408 0.2836 -0.1858
vn 0.9557 0.2256 -0.1891
vn 0.9598 0.2050 -0.1918
vn 0.0065 -0.0007 1.0000
vn 0.0414 0.0012 0.9991
s 0
f 1//1 5//1 4//1
f 6//2 5//2 11//2
f 23//3 19//3 27//3
f 20//4 15//4 23//4
f 21//5 24//5 25//5
f 3//6 1//6 4//6
f 26//7 17//7 22//7
f 21//8 22//8 17//8
f 13//9 4//9 3//9
f 21//10 17//10 8//10
f 15//11 24//11 21//11
f 24//12 20//12 23//12
f 28//13 26//13 22//13
f 10//14 7//14 16//14
f 21//15 7//15 15//15
f 8//16 17//16 28//16
f 17//17 26//17 28//17
f 28//18 18//18 8//18
f 18//18 13//18 8//18
f 13//19 3//19 8//19
f 3//20 1//20 2//20
f 2//21 8//21 3//21
f 7//22 6//22 4//22
f 6//23 5//23 4//23
f 4//24 9//24 7//24
f 9//25 14//25 7//25
f 15//26 23//26 14//26
f 15//27 14//27 7//27
f 11//28 2//28 1//28
f 1//29 11//29 5//29
f 28//30 27//30 18//30
f 18//31 27//31 19//31
f 25//32 22//32 21//32
f 14//33 19//33 23//33
f 12//34 11//34 10//34
f 10//35 6//35 7//35
f 11//36 6//36 10//36
f 12//37 8//37 11//37
f 8//38 2//38 11//38
f 19//39 14//39 9//39
f 9//40 13//40 19//40
f 18//41 19//41 13//41
f 12//42 16//42 8//42
f 9//43 4//43 13//43
f 8//44 16//44 21//44
f 15//45 20//45 24//45
f 23//46 27//46 24//46
f 27//47 25//47 24//47
f 25//48 27//48 22//48
f 27//49 28//49 22//49
f 16//50 12//50 10//50
f 21//51 16//51 7//51
f 1//19 8//19 3//19
f 8//52 17//52 3//52
f 17//19 26//19 3//19
f 26//19 13//19 3//19
f 13//53 9//53 3//53
f 9//54 4//54 3//54
f 5//55 1//55 6//55
f 6//29 1//29 11//29
f 2//56 8//56 1//56
f 16//57 17//57 8//57
f 16//58 21//58 17//58
f 28//59 18//59 26//59
f 18//60 13//60 26//60
f 22//61 27//61 26//61
f 27//62 28//62 26//62
f 14//63 9//63 4//63
f 14//64 4//64 5//64
f 14//65 5//65 7//65
f 7//66 5//66 6//66
f 7//67 15//67 16//67
f 15//68 21//68 16//68
f 15//69 20//69 21//69
f 20//70 24//70 21//70
f 23//71 7//71 14//71
f 23//72 15//72 7//72
