# Blender 4.0.0
# www.blender.org
o decimated_mesh
v 0.019233 -0.006700 0.000660
v 0.018052 -0.005944 0.004832
v 0.018138 -0.006831 0.006323
v 0.019263 -0.006607 -0.000307
v 0.019357 -0.008141 0.000096
v 0.014137 -0.001539 -0.000006
v 0.012481 -0.001010 0.005131
v 0.018135 -0.006825 -0.006326
v 0.018045 -0.005955 -0.004878
v 0.017040 -0.006073 0.008049
v 0.017277 -0.006893 0.008380
v 0.018024 -0.008132 0.006929
v 0.014944 -0.007531 -0.011917
v 0.017963 -0.007529 -0.007130
v 0.012983 -0.000724 -0.000001
v 0.012484 -0.001011 -0.005119
v 0.016279 -0.006092 0.009232
v 0.016790 -0.008139 0.009231
v 0.012719 -0.007511 -0.011916
v 0.010286 0.000407 0.000076
v 0.017162 -0.006678 -0.008449
v 0.017018 -0.006077 -0.008093
v 0.015314 -0.008144 0.009231
v 0.014501 -0.006151 -0.011912
v 0.015086 -0.006682 -0.011560
v 0.009427 0.000374 0.004086
v -0.000132 -0.001561 -0.011916
v -0.000130 -0.000449 0.009231
v 0.009379 -0.000843 0.009229
v 0.009437 0.000374 -0.004070
v -0.000132 -0.000318 -0.011916
v -0.000130 0.000548 0.009222
v 0.009896 -0.001665 -0.010241
v 0.006997 0.000376 0.007515
v 0.009220 -0.000815 -0.009356
v 0.006995 0.000376 -0.007511
v -0.000131 0.000528 -0.009702
v 0.007153 -0.001527 -0.011916
v 0.004121 0.000435 0.009229
v 0.003713 0.000453 -0.009372
v 0.005134 -0.000773 -0.011916
vn 0.7380 0.6691 0.0877
vn 0.6980 0.7111 -0.0845
vn 0.8448 0.3912 0.3652
vn 0.3394 0.9147 0.2195
vn 0.5571 0.7323 0.3916
vn 0.7177 0.1786 0.6731
vn 0.6514 0.7213 -0.2356
vn 0.8387 0.4122 -0.3557
vn 0.6358 0.2063 -0.7438
vn 0.3402 0.9144 -0.2197
vn 0.9818 0.0030 0.1899
vn 0.4156 0.6599 -0.6260
vn 0.1896 -0.9746 -0.1192
vn 0.5704 0.7276 -0.3811
vn 0.3876 0.9178 -0.0865
vn -0.4458 -0.8947 0.0279
vn 0.7601 0.4197 0.4961
vn 0.0200 0.9998 -0.0068
vn -1.0000 0.0001 0.0001
vn 0.2220 0.9135 0.3410
vn -0.0524 -0.9984 -0.0235
vn 0.7960 0.5393 -0.2749
vn 0.6517 0.7216 0.2337
vn 0.2130 0.9214 -0.3250
vn 0.8454 -0.0311 -0.5332
vn 0.9967 0.0711 0.0380
vn 0.6614 0.7373 -0.1377
vn 0.7991 0.5358 0.2726
vn 0.3133 0.9235 0.2213
vn 0.5689 0.7303 0.3781
vn -0.0000 -0.0000 -1.0000
vn 0.0012 0.0011 -1.0000
vn -0.0003 0.0030 -1.0000
vn 0.5738 0.8127 -0.1016
vn 0.9820 0.0108 -0.1886
vn 0.9826 -0.0312 -0.1830
vn -0.0014 0.0085 1.0000
vn 0.0003 0.0006 1.0000
vn -0.0000 -0.0007 1.0000
vn -0.0006 -0.0003 1.0000
vn -0.0001 0.0001 1.0000
vn 0.3118 0.9242 -0.2207
vn 0.9168 0.1004 0.3866
vn 0.9815 0.0098 0.1914
vn 0.3074 0.8232 -0.4772
vn 0.3452 0.7944 -0.4997
vn 0.8906 0.2302 -0.3921
vn 0.5124 0.7804 -0.3585
vn 0.5635 0.7306 -0.3855
vn 0.3828 0.9195 -0.0890
vn 0.5744 0.8122 0.1016
vn 0.7338 0.4678 -0.4926
vn 0.7296 0.4796 -0.4875
vn -0.4197 -0.9064 0.0477
vn 0.8994 0.3970 -0.1829
vn 0.7033 0.7070 0.0746
vn 0.6609 0.7378 0.1371
vn 0.0265 0.9995 0.0153
vn 0.0347 0.9991 0.0238
vn 0.0256 0.9996 0.0137
vn 0.0126 0.9999 -0.0011
vn 0.0234 0.9996 -0.0126
vn 0.0384 0.9989 -0.0267
vn 0.8810 -0.0220 0.4727
vn 0.0487 0.9331 -0.3564
vn 0.0790 0.9146 -0.3965
vn -1.0000 -0.0001 0.0005
vn -1.0000 0.0004 0.0001
vn -0.0092 -0.9988 -0.0474
vn 0.0065 -1.0000 0.0026
vn 0.0036 -1.0000 -0.0009
vn 0.3854 0.9184 0.0901
vn 0.3872 0.9177 0.0891
vn 0.9001 0.3954 0.1832
vn 0.2122 0.9175 -0.3365
vn 0.8280 0.0940 -0.5528
vn 0.9817 0.0103 0.1901
vn 0.9815 0.0037 0.1914
vn 0.0120 -0.9999 0.0037
vn 0.0036 -1.0000 0.0013
vn 0.9813 -0.0216 -0.1912
vn 0.9827 0.0119 -0.1846
vn -0.0003 -0.0005 1.0000
vn -0.4455 -0.8941 0.0470
vn -0.4200 -0.9072 0.0244
vn -0.0004 -0.0008 -1.0000
vn -0.0000 0.0001 -1.0000
vn 0.0001 0.0002 -1.0000
vn 0.0031 0.0041 -1.0000
vn -0.0000 0.0005 1.0000
vn 0.0002 0.0009 1.0000
vn -1.0000 -0.0001 0.0001
vn -1.0000 0.0010 0.0001
vn 0.2075 0.9216 -0.3281
vn 0.2170 0.9183 -0.3313
vn 0.5671 0.7267 -0.3878
vn 0.7293 0.4778 -0.4898
vn 0.7351 0.4673 -0.4912
vn 0.5672 0.7307 -0.3799
vn 0.0202 0.9998 -0.0092
vn 0.0258 0.9996 -0.0131
vn 0.3867 0.9179 -0.0893
vn 0.3830 0.9198 -0.0856
s 0
f 1//1 4//1 2//1
f 6//2 4//2 9//2
f 3//3 10//3 11//3
f 29//4 7//4 26//4
f 17//5 7//5 29//5
f 11//6 17//6 18//6
f 16//7 9//7 22//7
f 8//8 21//8 22//8
f 13//9 24//9 25//9
f 16//10 35//10 30//10
f 1//11 3//11 12//11
f 24//12 38//12 33//12
f 13//13 14//13 5//13
f 33//14 16//14 24//14
f 30//15 20//15 16//15
f 28//16 19//16 23//16
f 10//17 17//17 11//17
f 37//18 30//18 40//18
f 37//19 28//19 32//19
f 29//20 34//20 39//20
f 23//21 19//21 5//21
f 22//22 9//22 8//22
f 2//23 7//23 10//23
f 40//24 35//24 41//24
f 14//25 13//25 21//25
f 5//26 4//26 1//26
f 16//27 6//27 9//27
f 10//28 3//28 2//28
f 26//29 34//29 29//29
f 17//30 10//30 7//30
f 19//31 27//31 38//31
f 41//31 27//31 31//31
f 41//31 38//31 27//31
f 38//32 24//32 19//32
f 24//33 13//33 19//33
f 15//34 6//34 16//34
f 5//35 14//35 4//35
f 4//36 14//36 8//36
f 39//37 32//37 28//37
f 28//38 23//38 39//38
f 17//39 23//39 18//39
f 17//40 29//40 23//40
f 29//41 39//41 23//41
f 36//42 30//42 35//42
f 11//43 12//43 3//43
f 12//44 5//44 1//44
f 41//45 35//45 38//45
f 35//46 33//46 38//46
f 14//47 21//47 8//47
f 33//48 35//48 16//48
f 16//49 22//49 24//49
f 15//50 16//50 20//50
f 7//51 6//51 15//51
f 24//52 22//52 21//52
f 21//53 25//53 24//53
f 28//54 27//54 19//54
f 9//55 4//55 8//55
f 4//56 6//56 2//56
f 6//57 7//57 2//57
f 32//58 39//58 26//58
f 39//59 34//59 26//59
f 26//60 20//60 32//60
f 32//61 20//61 37//61
f 20//62 30//62 37//62
f 30//63 36//63 40//63
f 18//64 12//64 11//64
f 37//65 40//65 31//65
f 31//66 40//66 41//66
f 37//67 31//67 27//67
f 27//68 28//68 37//68
f 19//69 13//69 5//69
f 5//70 12//70 23//70
f 12//71 18//71 23//71
f 20//72 26//72 7//72
f 7//73 15//73 20//73
f 3//74 1//74 2//74
f 40//75 36//75 35//75
f 25//76 21//76 13//76
f 1//77 3//77 5//77
f 3//78 12//78 5//78
f 12//79 18//79 5//79
f 18//80 23//80 5//80
f 14//81 8//81 5//81
f 8//82 4//82 5//82
f 17//83 28//83 23//83
f 28//84 27//84 23//84
f 27//85 19//85 23//85
f 27//86 13//86 19//86
f 31//87 41//87 13//87
f 41//88 38//88 13//88
f 38//89 24//89 13//89
f 27//31 31//31 13//31
f 29//90 39//90 17//90
f 39//91 28//91 17//91
f 32//19 31//19 28//19
f 31//92 27//92 28//92
f 32//93 37//93 31//93
f 40//94 36//94 41//94
f 36//95 35//95 41//95
f 33//96 22//96 24//96
f 22//97 25//97 24//97
f 22//98 21//98 25//98
f 33//99 16//99 22//99
f 20//100 40//100 37//100
f 20//101 30//101 40//101
f 30//102 15//102 16//102
f 30//103 20//103 15//103
