mtllib material.mtl
usemtl material_0
v 0.03358452 0.00621674 0.04609846
v 0.04939746 0.00712504 0.02174250
v 0.04288367 0.00860879 0.03204757
v 0.03797206 0.00029213 0.04652153
v 0.05300808 0.00301717 0.03509323
v 0.04526292 0.00123924 0.04155818
v 0.03388897 0.00455043 0.04650149
v 0.04395195 0.00639818 0.03240601
v 0.05013030 0.00547977 0.02209390
v 0.03660400 0.00153067 0.04456919
v 0.04314421 0.00248174 0.03881859
v 0.05133069 0.00166895 0.03321293
v -0.02978003 0.00126259 -0.05271941
v -0.06920380 0.00132588 -0.06242638
v -0.04630059 0.00136730 -0.05784748
v -0.09101582 0.00132180 -0.06121856
v -0.06904607 0.00166630 -0.03283086
v -0.08833858 0.00130238 -0.06447682
v -0.09236857 0.00307237 -0.03501788
v -0.09295121 0.00134021 -0.02232953
v -0.05364633 0.00334652 -0.03797054
v -0.03615774 0.00194988 -0.03636106
v -0.03575162 0.00145466 -0.01872649
v -0.01630795 0.00252632 -0.03551814
v -0.01653725 0.00221855 -0.04677983
v -0.06390701 0.00248481 -0.02469422
v -0.05762576 0.00040865 0.00667232
v -0.08109792 0.00113338 -0.00945130
v -0.09348600 0.00238505 -0.01159051
v -0.08853923 0.00487037 -0.01106538
v -0.06665675 0.00077338 0.00212191
v -0.06856867 0.00410823 -0.00397786
v -0.08105273 0.00531143 -0.01497713
v -0.02214201 0.00449492 -0.02634034
v 0.00103516 0.00108729 -0.02035253
v -0.01975543 0.00173997 -0.01282129
v -0.03227866 0.00169142 0.02626594
v -0.04256833 0.00217248 -0.00722037
v -0.03902243 0.00427015 0.00443591
v -0.05836237 0.00334793 0.00987136
v -0.04371245 0.00151242 0.02386408
v -0.04071304 0.00362151 0.01709282
v -0.00231471 0.00123677 -0.04534565
v -0.01239734 0.00065277 -0.04751943
v 0.01720879 0.00140619 -0.04612272
v -0.04822900 0.00621938 -0.00827448
v -0.05196553 0.00210716 0.01748225
v -0.05466540 0.00477794 -0.01911846
v -0.06892008 0.00467945 -0.01826089
v -0.05231369 0.00994215 -0.01627649
v -0.03766739 0.01011070 0.02338249
v -0.04717039 0.01371368 0.01359703
v -0.06383396 0.01376010 -0.00766687
v -0.07781348 0.01121715 -0.00191814
v -0.03536247 0.01051036 0.03484843
v -0.06082559 0.01038893 0.01855142
v -0.03122204 0.00378364 0.04270816
v -0.02169192 0.00139668 0.04063263
v -0.01324399 0.00166790 0.03477571
v -0.02482964 0.00145674 0.05715688
v -0.04677240 0.00196550 0.03745821
v -0.07130764 0.00899188 0.00550218
v -0.07534488 0.00215566 0.01157753
v -0.09285973 0.00277646 0.00226204
v -0.07353459 0.00139450 0.03719134
v -0.06829146 0.00251506 0.02359431
v -0.03388469 0.00225274 0.05486037
v -0.10718120 0.00188127 0.01961091
v -0.11261940 0.00104558 0.01121103
v -0.11934300 0.00216259 0.01588734
v -0.11215730 0.00671153 0.01876352
v -0.12403920 0.00509398 0.01396414
v -0.09252538 0.00291603 0.02982820
v -0.06522065 0.00245729 0.04335268
v -0.10266710 0.00844299 0.02116341
v -0.10681270 0.00906352 0.01547213
v -0.10240030 0.00444203 0.00705976
v -0.12601650 -0.00084535 0.00515115
v -0.08883043 0.00476214 0.03053101
v -0.08450111 0.00586219 0.01183854
v -0.10419960 0.00075890 -0.00054793
v -0.07471600 0.00733939 0.03609894
v -0.06561748 0.00768390 0.02573019
v -0.05824095 0.00453582 0.04408712
v -0.04136425 0.00559656 0.05221904
v -0.03306193 0.00787219 0.04408897
v -0.03171812 0.00565580 0.05077562
v -0.10232040 -0.00117789 -0.01949798
v -0.13015460 -0.00137804 -0.01187560
v -0.12838410 -0.00134122 -0.01594430
v -0.09104758 0.00649433 -0.02126250
v -0.08647346 0.01266286 -0.00135992
v -0.06628396 0.01664904 0.00270788
v -0.08295989 0.01077056 -0.01468705
v -0.06918996 0.00875424 -0.02351987
v -0.05896684 0.01624694 -0.01282455
v -0.05203285 0.00929650 -0.02468606
v -0.04585571 0.01657267 0.01031896
v -0.05370865 0.01665968 0.01948174
v -0.04517179 0.01067863 -0.01551153
v -0.03379458 0.00794195 -0.02701106
v -0.04032391 0.00616365 -0.00854735
v -0.03360007 0.00477148 -0.01930490
v -0.02559704 0.00832801 -0.02682549
v -0.02395106 0.00503139 0.03841272
v -0.03334566 0.00653292 0.00755200
v -0.02992115 0.00479060 0.01903981
v -0.01507074 0.00635763 -0.01349932
v -0.02440273 0.00926897 -0.03110856
v -0.01040479 0.00518329 -0.04029236
v -0.00978611 0.00484617 -0.00188641
v 0.01203857 0.00538348 -0.03074505
v 0.00573367 0.00487843 -0.04884359
v -0.00759195 0.00508161 0.01697060
v -0.00846447 0.00515955 0.06170832
v 0.00894376 0.00441760 0.04444503
v 0.01424142 0.00596982 0.00766763
v 0.01708020 0.00569844 -0.04369730
v 0.02891065 0.00077829 -0.05490840
v 0.01518784 0.00534012 -0.01866846
v 0.02429058 0.01535144 -0.02814861
v 0.03024714 0.01340409 -0.04266974
v -0.01665271 0.00274607 0.06264036
v -0.00877919 0.00170763 0.06190887
v -0.00670819 0.00318812 0.06530235
v 0.00796336 0.00570414 0.06389825
v 0.00948613 0.00249490 0.06578477
v 0.01528105 0.00401820 0.05566341
v 0.01579847 0.00144562 0.05860128
v 0.00866365 0.00139143 0.04564818
v 0.00434047 0.00127948 0.01670559
v 0.01580000 0.00413167 0.03523355
v 0.01767316 0.00217829 0.00009549
v 0.01926839 0.00256810 -0.02850153
v 0.02368427 0.00084095 0.02082426
v 0.02713879 0.00614578 0.05099126
v 0.03418792 -0.00003245 -0.03279972
v 0.03244184 0.00392868 -0.04661465
v 0.04186677 0.00007774 -0.01528098
v 0.04477982 0.00145942 0.01098526
v 0.05655576 0.00065385 -0.03345893
v 0.06298976 0.00145831 0.01971353
v 0.02000971 0.00999759 0.04101593
v 0.06763312 0.00129513 -0.05078787
v 0.04353974 0.00165839 -0.05039751
v 0.08204416 0.00165319 -0.03456821
v 0.08670022 0.00257845 -0.05130009
v 0.11229890 0.00131443 -0.05316685
v 0.03154965 0.00281786 -0.00000766
v 0.07104416 0.00337091 0.01416321
v 0.07829426 0.00146399 0.00158709
v 0.07567497 0.00536530 0.00741410
v 0.06035741 0.00731576 0.01925972
v 0.05575425 0.00410530 0.00543864
v 0.10435440 0.00152844 -0.02310717
v 0.09378673 0.00246301 -0.00937448
v 0.12963770 0.00183513 -0.04796239
v 0.12806350 0.00139047 -0.05216030
v 0.11413390 0.00277615 -0.03018901
v 0.12512880 0.00814253 -0.03694597
v 0.11765530 0.01293165 -0.03581574
v 0.11287840 0.01299189 -0.03615373
v 0.10364120 0.00638183 -0.01832293
v 0.09531462 0.00648184 -0.01745832
v 0.09546451 0.00559993 -0.03822602
v 0.07544214 0.00463427 -0.01519796
v 0.06794209 0.00319545 -0.03857980
v 0.08249618 0.00914768 -0.00708811
v 0.04388234 0.00364661 -0.03613292
v 0.02923362 0.00409508 -0.01846900
v 0.03020468 0.00294553 -0.03524828
v 0.01856379 0.00725786 -0.03991025
v 0.02174887 0.00631293 0.00921295
v 0.02245375 0.00424357 0.03387440
v 0.03162245 0.01313130 0.02291442
v 0.02318304 0.00773948 0.03872123
v 0.03252557 0.01130498 0.01304344
v 0.01958869 0.01522963 0.02998054
v 0.02901633 0.01290423 -0.03027943
v 0.04656072 0.00947769 -0.04283887
v 0.01303149 0.00728558 0.02651971
v 0.03162324 0.01680962 0.01306846
v 0.03227978 0.01633277 0.02077731
v 0.04078384 0.01393953 0.00946054
v 0.04859415 0.01107431 -0.00278513
v 0.05208042 0.01216049 -0.03613775
v 0.07231425 0.01210135 -0.03670809
v 0.07646152 0.00900497 -0.04480859
v 0.08286142 0.01308722 -0.04543668
v 0.02755703 0.01468117 -0.00192617
v 0.04648351 0.01870927 -0.00544974
v 0.05726196 0.01574857 -0.01180907
v 0.06372810 0.01290136 -0.02184724
v 0.05891965 0.01723757 -0.01936687
v 0.04317536 0.01539563 -0.01686040
v 0.07486501 0.01773551 -0.04000557
v 0.08460012 0.01292916 -0.04835047
v 0.05258911 0.01708711 -0.03489669
v 0.06004631 0.01946910 -0.02807634
v 0.05952158 0.01323038 -0.04418127
v 0.06847787 0.00122712 -0.05538787
v 0.08237560 0.00244668 -0.05588102
v 0.07895601 -0.00154680 -0.06880128
v 0.04584169 -0.00073849 -0.06028625
v 0.03174237 0.00440941 -0.00000839
v 0.06076304 0.00896520 0.01970613
v 0.05562795 0.00567004 0.00524331
v 0.07700319 0.00725635 0.00888380
v 0.07251301 0.00327033 0.01549047
v 0.06788998 0.00467388 -0.03859284
v 0.07503712 0.00618280 -0.01542021
v 0.06348977 -0.00007415 0.02019097
v 0.07915308 0.00003346 0.00236386
v 0.02775057 0.00766348 0.05184574
v 0.04486477 -0.00011604 0.01103817
v 0.08244620 0.01094339 -0.00702663
v 0.09541432 0.00816441 -0.01724869
v 0.09511381 0.00705046 -0.03827729
v 0.09555428 0.00260593 -0.00734377
v 0.08205521 0.00007547 -0.03461531
v 0.05656958 -0.00092506 -0.03359499
v 0.10471490 -0.00002580 -0.02275308
v 0.10458110 0.00743300 -0.01716335
v 0.11538100 0.00260454 -0.02858425
v 0.11290580 0.01451936 -0.03513858
v 0.04387007 0.00513282 -0.03615619
v 0.11792750 0.01357639 -0.03449155
v 0.12607370 0.00792056 -0.03560865
v 0.13017170 0.00041614 -0.04742520
v 0.03044003 0.00444424 -0.03537623
v 0.02418742 0.00636899 -0.03897548
v 0.02951373 0.00565517 -0.01848513
v 0.11226670 -0.00016393 -0.05314686
v 0.12806870 -0.00005145 -0.05202619
v 0.08670603 0.00109499 -0.05137894
v 0.06765817 -0.00020357 -0.05047301
v 0.02535313 0.00643796 0.00923935
v 0.04352732 0.00037472 -0.04968138
v 0.03253045 0.00234777 -0.04650773
v 0.01729184 -0.00008899 -0.04628126
v 0.03418252 -0.00162672 -0.03297233
v 0.04182218 -0.00150487 -0.01524508
v 0.01920929 0.00098320 -0.02846090
v 0.02345836 -0.00073663 0.02089051
v 0.00096258 -0.00049609 -0.02037897
v 0.01754601 0.00059317 0.00012537
v -0.00242291 -0.00025121 -0.04477833
v 0.01579440 0.00251373 0.03524030
v 0.00455106 -0.00029367 0.01671023
v 0.01768146 -0.00002469 0.06102844
v 0.00888372 -0.00018254 0.04558518
v -0.01322944 0.00009069 0.03477064
v -0.03248101 0.00010710 0.02619091
v -0.01257424 -0.00035764 -0.04647247
v -0.01660798 0.00071999 -0.04619711
v -0.02970912 -0.00022125 -0.05262478
v -0.01637864 0.00094978 -0.03537071
v -0.00883302 0.00014338 0.06228466
v -0.04628034 -0.00010744 -0.05793763
v -0.06919445 -0.00015226 -0.06246738
v -0.08833916 -0.00014909 -0.06447163
v -0.09106205 -0.00013872 -0.06117151
v -0.06896792 0.00007618 -0.03274324
v -0.09246217 0.00158939 -0.03507311
v -0.09304490 -0.00014800 -0.02236379
v -0.09382357 0.00108340 -0.01035508
v -0.08919788 0.00569226 -0.00919465
v -0.08161157 -0.00020277 -0.00831438
v -0.05788347 -0.00124065 0.00706743
v -0.06823712 0.00056482 0.00416811
v -0.08107644 0.00680291 -0.01499870
v -0.06902510 0.00562394 -0.00344444
v -0.06893811 0.00611835 -0.01857885
v -0.05563200 0.00624790 -0.01889136
v -0.06039189 0.00421435 0.01207620
v -0.04515360 -0.00022841 0.02514137
v -0.05338703 0.00309995 0.01872703
v -0.05050325 0.00745809 -0.00757112
v -0.05379836 0.00897637 -0.01566172
v -0.04212496 0.00917452 0.02491709
v -0.04778422 0.01203013 0.01365488
v -0.06390387 0.01224648 -0.00766516
v -0.07700801 0.01000637 -0.00285042
v -0.03813950 0.00666383 0.03457940
v -0.05970783 0.00933967 0.01747723
v -0.09259984 0.00130767 0.00186626
v -0.03194873 0.00185907 0.04267714
v -0.11260460 -0.00042989 0.01135221
v -0.11988880 0.00107944 0.01725581
v -0.12498630 0.00708516 0.01476618
v -0.10765670 0.00040707 0.02066999
v -0.07370470 -0.00021045 0.03753154
v -0.07483727 0.00064264 0.01107112
v -0.11289990 0.00707016 0.02030863
v -0.06990951 0.00849149 0.00426867
v -0.06776242 0.00102316 0.02311052
v -0.04648672 0.00040010 0.03698232
v -0.09347709 0.00261286 0.03161452
v -0.12619360 0.00059953 0.00472843
v -0.10270870 0.01020493 0.02161292
v -0.13017170 0.00008241 -0.01189329
v -0.12839600 0.00010941 -0.01593998
v -0.10279510 0.00026917 -0.01964707
v -0.09161448 0.00784303 -0.02167284
v -0.10471170 0.00234514 -0.00067943
v -0.10225500 0.00592211 0.00643930
v -0.10673980 0.01074555 0.01514268
v -0.08478389 0.00752196 0.01198144
v -0.06934693 0.01005102 -0.02422395
v -0.08711861 0.01417969 -0.00113485
v -0.08916417 0.00634542 0.03123587
v -0.08330030 0.01224243 -0.01518084
v -0.05197963 0.01071101 -0.02523525
v -0.05890503 0.01780785 -0.01328666
v -0.06664532 0.01821651 0.00298717
v -0.04513179 0.01805817 0.01017565
v -0.04447573 0.01216817 -0.01565763
v -0.03361615 0.00948772 -0.02679427
v -0.06593302 0.00923539 0.02611817
v -0.05393617 0.01823469 0.01994440
v -0.03951647 0.00762156 -0.00855940
v -0.02569000 0.00980385 -0.02639095
v -0.03315938 0.00637965 -0.01906400
v -0.02421941 0.01073217 -0.03096613
v -0.01501850 0.00794741 -0.01333616
v -0.01020810 0.00666072 -0.04031984
v 0.00577515 0.00634952 -0.04909291
v 0.01149335 0.00695527 -0.03075421
v 0.02888174 0.00220657 -0.05557360
v -0.03264686 0.00797396 0.00735576
v -0.00982658 0.00642488 -0.00176476
v -0.02931725 0.00633921 0.01889835
v 0.01665382 0.00720935 -0.04424337
v 0.04580691 0.00067948 -0.06071033
v 0.07886656 -0.00015718 -0.06916936
v 0.06837717 0.00259478 -0.05629031
v 0.08226778 0.00370308 -0.05677186
v 0.08516134 0.01457283 -0.04897310
v 0.08453029 0.01293766 -0.04416042
v 0.02990567 0.01480100 -0.04346982
v 0.05941134 0.01450786 -0.04514209
v 0.02363549 0.01687223 -0.02822999
v 0.07547921 0.01957312 -0.03999970
v 0.05240937 0.01865009 -0.03521750
v 0.07686445 0.00772704 -0.04409740
v 0.04666425 0.00811732 -0.04224996
v 0.01454948 0.00687003 -0.01859599
v 0.07274772 0.01061009 -0.03622850
v 0.06005443 0.02110614 -0.02797888
v 0.04295771 0.01697867 -0.01689072
v 0.05951218 0.01882400 -0.01894692
v 0.02695279 0.01618402 -0.00193366
v 0.01349144 0.00744205 0.00759927
v 0.04669166 0.02041005 -0.00527083
v 0.06530235 0.01254805 -0.02074248
v 0.05873275 0.01636195 -0.01082567
v 0.03140499 0.01852597 0.01307713
v 0.04943896 0.00956846 -0.00212963
v 0.04286957 0.01416312 0.01093775
v -0.00760098 0.00665905 0.01698119
v 0.00835209 0.00599270 0.04457794
v -0.02342645 0.00658544 0.03838269
v 0.05208929 0.01058097 -0.03587422
v 0.02960162 0.01129709 -0.03011455
v 0.03313101 0.00981384 0.01322676
v 0.03363741 0.01264080 0.02407854
v -0.00859490 0.00674163 0.06212188
v -0.03298735 0.00944229 0.04457419
v 0.03306532 0.01776282 0.02136528
v 0.01910878 0.01711179 0.03030686
v 0.02559907 0.00538765 0.03379817
v 0.02496458 0.00859491 0.03900607
v 0.02044036 0.01161647 0.04157232
v 0.01191738 0.00841758 0.02625996
v 0.01561255 0.00559100 0.05628998
v 0.00837374 0.00725225 0.06466525
v 0.01055322 0.00192401 0.06832524
v -0.00710096 0.00306345 0.06799514
v -0.01753535 0.00251093 0.06546210
v -0.03163460 0.00720423 0.05131583
v -0.02488023 -0.00015480 0.05726946
v -0.03521684 0.00152220 0.05866156
v -0.04165408 0.00693596 0.05323031
v -0.05848427 0.00599924 0.04477077
v -0.06615587 0.00226714 0.04538544
v -0.07507747 0.00890881 0.03683835
v -0.02182669 -0.00018601 0.04071018
v -0.04061894 0.00203431 0.01690789
v -0.03920138 0.00263114 0.00449617
v -0.03583369 -0.00014323 -0.01870441
v -0.04243355 0.00059350 -0.00714534
v -0.06391151 0.00090155 -0.02463587
v -0.01975887 0.00016435 -0.01300270
v -0.02213046 0.00288862 -0.02635447
v -0.03613102 0.00036074 -0.03644648
v -0.05349997 0.00162532 -0.03782878
vn 0.13037970 0.98453560 -0.11700740
vn -0.03528018 0.99910150 0.02348189
vn -0.45113330 0.87830600 -0.15829510
vn 0.44307710 -0.63453260 0.63328590
vn 0.67676100 0.21683850 0.70354510
vn 0.54415320 -0.24889100 0.80121820
vn 0.36574560 -0.60380330 0.70827380
vn 0.29462990 -0.95308490 0.06944460
vn 0.01236021 -0.99807800 -0.06072648
vn -0.43652100 0.67145330 -0.59883200
vn 0.16535440 0.94249840 0.29043860
vn -0.47399180 0.41752180 -0.77524660
vn 0.26569590 0.63717730 -0.72347130
vn 0.10651100 0.70915880 -0.69695710
vn 0.17133560 0.72870730 -0.66304590
vn -0.70206180 0.64855160 -0.29409210
vn 0.00109850 0.99947140 -0.03249485
vn -0.29747190 0.61653330 -0.72896990
vn -0.64446290 0.76460440 -0.00689615
vn -0.68243890 0.73079190 -0.01484339
vn -0.11393030 0.98974850 -0.08612538
vn -0.01352023 0.99988390 -0.00702655
vn -0.03146490 0.99933800 0.01825994
vn 0.05472110 0.99573810 -0.07423767
vn 0.09076393 0.67153900 -0.73538920
vn 0.00659188 0.99916040 -0.04043648
vn 0.13288060 0.95766510 -0.25538290
vn 0.25144440 0.91006770 -0.32947330
vn -0.64407730 0.73293980 -0.21900620
vn -0.29511990 0.27840360 -0.91399980
vn 0.62683170 0.42762380 -0.65132180
vn 0.13538430 -0.95260140 -0.27243640
vn -0.31236670 -0.59106290 -0.74368790
vn -0.00799605 0.99994060 0.00740145
vn 0.00363159 0.99995840 0.00836662
vn 0.01397741 0.99662810 0.08085187
vn 0.01705981 0.99889490 0.04379731
vn -0.08768034 0.99421520 -0.06203388
vn 0.11792440 0.99205830 -0.04375073
vn 0.56329480 -0.38728630 -0.72986870
vn 0.59204670 0.66668010 -0.45278950
vn -0.06903382 0.99009210 0.12227850
vn 0.08499534 0.60261820 -0.79349050
vn 0.03827110 0.01449697 -0.99916220
vn -0.04620649 0.67897710 -0.73270390
vn 0.86097650 -0.43518170 -0.26331810
vn 0.91487190 0.24410090 0.32159630
vn 0.24247130 -0.56673570 -0.78741240
vn -0.11331830 -0.79340080 -0.59805870
vn 0.45363650 0.51966450 -0.72399080
vn 0.93103870 0.18578960 -0.31408460
vn 0.22718520 0.97310210 -0.03819979
vn -0.26982130 0.81548430 -0.51203690
vn -0.50099830 0.82044130 -0.27545740
vn 0.59594770 0.74307080 0.30445360
vn -0.33882780 0.86039850 0.38067060
vn 0.08163926 0.99426140 0.06913275
vn 0.05505700 0.99826910 -0.02067952
vn 0.00112904 0.99999930 -0.00046411
vn 0.10629780 0.96611910 -0.23519060
vn -0.15427500 0.94606990 0.28486990
vn -0.69895300 0.34409790 0.62694590
vn -0.30384760 0.90568700 0.29564800
vn -0.37621050 0.74493580 -0.55094120
vn 0.12290040 0.96350970 -0.23779120
vn -0.27076600 0.93046540 0.24681950
vn 0.18915560 0.36251240 -0.91258140
vn 0.24784790 0.83765280 -0.48673320
vn -0.40629780 0.58528510 -0.70168600
vn -0.30205220 -0.24118950 -0.92227540
vn 0.38414670 -0.51047110 -0.76931820
vn -0.52194170 -0.83689650 0.16486680
vn 0.44777330 0.26666170 -0.85345800
vn 0.35105680 0.26693200 -0.89750000
vn 0.08371481 -0.93681140 -0.33967080
vn -0.01590044 -0.98826740 0.15190370
vn 0.01376417 -0.91167270 0.41068670
vn -0.48385490 -0.78424360 0.38838960
vn 0.25159790 -0.81685410 -0.51908360
vn 0.19107860 -0.96165630 -0.19673870
vn 0.26521410 -0.94748970 0.17867460
vn 0.23493760 -0.86721570 -0.43902290
vn 0.21079480 -0.94498290 -0.25014550
vn 0.19632830 -0.89581060 -0.39872090
vn 0.23386900 -0.64184270 -0.73030350
vn -0.17502770 -0.95863930 -0.22444610
vn -0.02182098 -0.93344060 -0.35806800
vn 0.22114160 -0.79420420 -0.56598250
vn -0.75266680 -0.65601720 -0.05598234
vn -0.46562640 -0.63081880 -0.62069290
vn 0.24088830 -0.79723920 -0.55351820
vn 0.38567630 -0.91259750 -0.13571880
vn 0.18836600 -0.97531900 -0.11519980
vn 0.21915770 -0.92838820 0.30010860
vn 0.05670439 -0.94297960 -0.32798500
vn -0.04156706 -0.95771970 0.28468420
vn -0.13339990 -0.89234040 -0.43119980
vn -0.33830050 -0.93930650 0.05706162
vn 0.13403810 -0.94957130 -0.28345750
vn -0.37670130 -0.91981440 0.10971590
vn -0.13385560 -0.59232740 -0.79450050
vn -0.47507050 -0.87873100 0.04625874
vn -0.23213080 -0.94534750 -0.22898340
vn -0.22910550 -0.75342570 -0.61632820
vn -0.16681960 -0.98583420 -0.01738242
vn -0.57373890 -0.81186620 0.10815240
vn -0.35636650 -0.92955260 0.09452441
vn 0.01394731 -0.99241030 -0.12217730
vn -0.71598450 -0.47669460 -0.51002790
vn -0.40907960 -0.70282650 -0.58196990
vn 0.01297068 -0.99960960 -0.02474492
vn 0.27394420 -0.96150960 0.02130488
vn -0.28175600 -0.75572140 -0.59118420
vn 0.01663284 -0.99985620 -0.00329038
vn 0.08838339 -0.95198860 -0.29309740
vn 0.17780320 -0.98097380 -0.07795218
vn 0.31151050 -0.94991020 0.02514008
vn 0.21742100 -0.92674600 0.30638210
vn -0.17536420 -0.95777300 -0.22785580
vn 0.38082240 -0.92317550 -0.05216496
vn 0.38731830 -0.92073030 0.04733238
vn 0.20978950 -0.85480450 0.47465520
vn 0.32926690 0.07396460 -0.94133550
vn 0.03946152 0.96908800 -0.24353890
vn 0.17490580 0.04935203 -0.98334750
vn -0.22288340 -0.85588120 -0.46668030
vn -0.41673980 0.29857850 -0.85859110
vn -0.16330900 -0.91633780 -0.36558880
vn -0.56820580 0.49721810 -0.65568020
vn -0.10101680 0.99424050 0.03579691
vn -0.06479298 0.99771050 -0.01938501
vn -0.05194410 0.99863750 0.00500137
vn 0.04138307 0.99913970 0.00273214
vn 0.02621569 0.99899300 -0.03641191
vn 0.15244260 0.98755230 -0.03875186
vn -0.42113490 -0.63614170 -0.64650540
vn 0.03393716 0.99596290 0.08310322
vn -0.19620910 0.80294520 -0.56283300
vn -0.00439502 0.99980280 -0.01937032
vn -0.02569701 0.99918870 -0.03100753
vn -0.00485266 0.99890210 0.04659608
vn -0.25001380 0.93950840 -0.23413060
vn -0.07623763 -0.93832450 -0.33724620
vn -0.03347958 0.62568260 -0.77935910
vn -0.12341890 0.31253570 -0.94185420
vn -0.01495464 0.99976040 0.01598186
vn -0.03146579 0.73590730 -0.67635080
vn -0.00265543 0.67852620 -0.73457140
vn -0.14472200 -0.98947200 0.00082749
vn -0.72569420 0.09772811 -0.68104120
vn -0.29234190 0.89956440 -0.32453060
vn -0.60059760 -0.64932440 -0.46654060
vn -0.21286930 -0.94692920 -0.24085630
vn 0.06204601 -0.99375580 0.09273433
vn -0.18473320 0.96684940 -0.17628320
vn -0.67157440 0.22213090 -0.70685630
vn 0.57782130 0.76435650 -0.28614960
vn 0.44445930 0.58078040 -0.68201910
vn -0.62802250 0.36339420 -0.68813700
vn 0.17780510 0.76233970 -0.62227270
vn 0.14163760 0.33346890 -0.93206080
vn -0.00460860 -0.09114571 -0.99582690
vn -0.52456740 -0.49758300 -0.69082570
vn -0.01699871 -0.98053140 -0.19562500
vn 0.19712500 -0.67464860 -0.71133050
vn 0.14093810 -0.98570540 0.09231140
vn 0.00518823 -0.71931160 -0.69466820
vn -0.02252299 -0.99547100 -0.09235962
vn -0.06381617 -0.71017170 -0.70113020
vn -0.18973730 -0.98177370 -0.01096328
vn -0.08569840 -0.87902840 -0.46900400
vn -0.75312260 0.04622449 -0.65625440
vn -0.99809520 -0.03890029 -0.04788147
vn -0.87479410 -0.48301640 0.03781994
vn -0.86865120 0.12585240 -0.47917260
vn -0.79623930 -0.60486820 0.01173520
vn -0.33800740 0.92897370 -0.15086080
vn 0.26078440 -0.95623230 -0.13270720
vn -0.23011400 0.96799190 -0.10019620
vn -0.08133297 0.32808360 -0.94114090
vn 0.73823070 -0.66129370 0.13306410
vn 0.10928970 -0.99391510 -0.01372645
vn -0.44115070 -0.82215700 -0.35978310
vn -0.75043730 -0.03397427 -0.66006800
vn -0.44525050 0.83121340 -0.33292100
vn -0.00323521 0.98479090 -0.17371350
vn -0.19150610 0.94476530 -0.26597750
vn -0.10379600 0.09615473 -0.98993970
vn -0.15564880 -0.78654810 -0.59759140
vn 0.39464250 -0.91845860 0.02628828
vn -0.13001060 -0.98455400 -0.11726260
vn -0.75755540 -0.37745440 -0.53257680
vn -0.80167780 0.21077080 -0.55936430
vn -0.37013160 -0.88687680 -0.27649980
vn 0.11896260 -0.99137950 0.05490576
vn -0.35316280 -0.93554690 0.00529565
vn 0.59754160 -0.76251390 0.24802540
vn 0.10642040 -0.96778580 0.22817810
vn -0.03512689 -0.99752190 -0.06095947
vn 0.07736595 -0.78649970 0.61272570
vn 0.06766231 -0.84438580 0.53144570
vn 0.67236490 -0.65128240 0.35179080
vn 0.44671060 -0.72664270 -0.52195780
vn -0.18305370 -0.88389840 -0.43036610
vn 0.14496490 0.98942740 -0.00431141
vn 0.20719380 0.95657560 0.20502190
vn -0.06283841 0.99357100 -0.09417030
vn 0.56842530 0.66659960 0.48222150
vn 0.70795270 -0.13098530 0.69400700
vn -0.06659339 0.66633220 -0.74267540
vn -0.14117980 0.98563920 -0.09264744
vn 0.27601690 -0.91996840 0.27833920
vn 0.32447770 -0.87691430 0.35459210
vn 0.38142850 0.72161590 0.57773950
vn 0.02594133 -0.99914430 0.03221396
vn -0.02725387 0.99860580 0.04520772
vn 0.02496451 0.98237070 0.18526910
vn -0.12885270 0.68818580 -0.71400080
vn 0.68842880 -0.13357130 0.71289870
vn 0.01535125 -0.99976880 -0.01505515
vn 0.00534095 -0.99890980 -0.04637405
vn 0.21189630 -0.95618210 0.20202950
vn 0.50017610 0.57736960 0.64534350
vn 0.64200680 -0.30954500 0.70143350
vn 0.15100730 0.97749750 -0.14729350
vn -0.04834306 0.71328490 -0.69920490
vn 0.35658240 0.89075110 0.28180040
vn 0.86565270 0.25509920 0.43077790
vn 0.87305690 -0.48620900 -0.03704577
vn 0.18655990 0.58090650 -0.79230230
vn 0.23124390 -0.69640510 -0.67937190
vn 0.15009440 0.98861560 0.01052403
vn 0.00094604 -0.70538410 -0.70882460
vn 0.48059090 -0.62624280 -0.61388320
vn -0.03927822 -0.68656450 -0.72600710
vn -0.01190249 -0.78503660 -0.61933500
vn 0.99671280 0.03824608 0.07142101
vn -0.15470300 -0.91258480 -0.37849180
vn -0.07825185 -0.68122740 -0.72787760
vn -0.01391667 -0.72678670 -0.68672230
vn -0.03311340 -0.99594290 -0.08367336
vn 0.00448649 -0.99980120 0.01942787
vn -0.02581927 -0.99901620 0.03605527
vn -0.15213830 -0.98751440 0.04085593
vn -0.00363155 -0.99995860 -0.00833754
vn -0.04101815 -0.99915340 -0.00317623
vn 0.00796548 -0.86153340 -0.50763830
vn 0.06006167 -0.99819440 -0.00077512
vn 0.06552497 -0.99766480 0.01926896
vn 0.53575930 -0.50673530 0.67541190
vn 0.09821127 -0.99443220 -0.03820044
vn -0.00073228 -0.99999980 0.00030006
vn -0.01116974 -0.99865350 -0.05065987
vn -0.12973700 -0.98160030 -0.14010430
vn 0.03265511 -0.89413270 -0.44660990
vn 0.26222300 -0.74873190 -0.60880200
vn -0.05508728 -0.99569770 0.07450775
vn -0.03689788 -0.96950570 0.24227560
vn 0.18534560 -0.65980700 -0.72821810
vn 0.10895270 -0.68470500 -0.72063050
vn -0.30073610 -0.61202230 -0.73142770
vn -0.72491190 -0.63725250 -0.26155700
vn -0.00176991 -0.99944910 0.03314105
vn -0.76860290 -0.63717510 -0.05707522
vn -0.72272200 -0.68832780 -0.06227238
vn -0.85397890 -0.34262430 0.39157190
vn -0.57410250 0.64255540 0.50747310
vn -0.28492770 -0.87978240 0.38052480
vn -0.12595200 -0.96463070 0.23156810
vn -0.64255330 -0.30133410 0.70450200
vn -0.29054640 0.78362040 -0.54911010
vn -0.14106020 0.95374010 0.26548390
vn -0.11905390 0.55843780 -0.82095890
vn -0.20896490 0.67336950 -0.70915960
vn -0.58608950 0.37845350 0.71643010
vn -0.50455490 -0.73754860 0.44882790
vn -0.73532410 0.29837650 0.60849810
vn -0.87894520 0.39962730 0.26029460
vn -0.88075920 0.15347220 -0.44800620
vn -0.79644140 -0.55584970 0.23814340
vn -0.34275840 -0.93941930 0.00279478
vn -0.40181470 -0.62351940 -0.67064790
vn -0.10272630 -0.37774890 -0.92019190
vn -0.50749880 -0.84318020 -0.17746050
vn 0.31901320 -0.87158460 -0.37225100
vn -0.21485730 -0.62639880 -0.74930690
vn -0.04730426 -0.99793660 -0.04341363
vn -0.35793230 -0.77491030 -0.52095920
vn -0.65671030 -0.61700180 0.43363620
vn -0.85771330 0.51013800 0.06393068
vn -0.24857820 -0.83718130 0.48717180
vn -0.12683880 -0.96154870 0.24358990
vn 0.30082430 -0.90761480 -0.29281420
vn -0.37288470 0.30983920 0.87461800
vn 0.73090010 -0.20121790 -0.65214750
vn 0.26707540 -0.93214760 -0.24448240
vn 0.15595010 -0.94854830 -0.27556460
vn -0.45140570 -0.20182200 0.86919550
vn -0.84920300 0.52583880 0.04845546
vn -0.07547307 0.93984740 0.33315270
vn -0.77457640 0.62778800 -0.07689974
vn -0.49154680 0.59290420 -0.63784530
vn -0.28904820 0.46673040 -0.83583120
vn -0.35320240 0.48130230 -0.80224440
vn -0.26740740 0.94633050 -0.18152620
vn -0.00592109 0.90796130 -0.41901230
vn 0.04550356 0.98049350 -0.19121210
vn -0.18897380 0.96179870 0.19807120
vn -0.12286970 0.31522070 -0.94103070
vn -0.38731770 0.91149730 0.13841140
vn -0.24281050 0.83715300 0.49012040
vn -0.21800060 0.92856260 -0.30041160
vn 0.01944011 0.46538070 -0.88489710
vn 0.04013310 0.95781720 -0.28456200
vn -0.18763000 0.97540750 0.11565090
vn 0.34139100 0.93813990 -0.05784214
vn 0.37389360 0.92108140 -0.10868600
vn 0.08606331 0.77260610 -0.62902550
vn -0.20951570 0.94532290 0.24993570
vn -0.13455650 0.94974000 0.28264550
vn 0.47011030 0.88133340 -0.04741127
vn -0.34868180 0.92280710 -0.16385390
vn 0.22504590 0.94747730 0.22724680
vn -0.49199550 0.76668070 -0.41248180
vn -0.01272675 0.99235020 0.12279700
vn -0.31621300 0.68797470 -0.65322290
vn -0.28803850 0.60954800 -0.73856960
vn -0.27452170 0.96132620 -0.02213434
vn -0.24650050 0.26586410 -0.93196240
vn 0.57213960 0.81284050 -0.10930070
vn -0.01178033 0.99961070 0.02529479
vn 0.35630840 0.92960910 -0.09418753
vn -0.21598550 0.92740960 -0.30538800
vn -0.21015630 0.44015890 -0.87298030
vn 0.38536640 0.38195620 -0.84000130
vn -0.06747810 0.84520510 -0.53016500
vn 0.74024400 0.42111500 -0.52411940
vn 0.72222540 0.46426220 -0.51269000
vn 0.96077790 -0.17314650 0.21662410
vn -0.20978820 0.85373320 -0.47658010
vn -0.07742779 0.78708860 -0.61196120
vn -0.38771980 0.92053780 -0.04778614
vn 0.33632430 0.94172370 -0.00650575
vn -0.10745870 0.96773450 -0.22790900
vn 0.31364880 -0.92004590 -0.23481930
vn -0.00064080 -0.94722110 -0.32058040
vn -0.37911100 0.92384680 0.05274227
vn 0.22144770 -0.92955270 0.29477560
vn 0.01422189 0.99842810 0.05421286
vn -0.11878290 0.99138800 -0.05513894
vn 0.36921800 0.88709470 0.27702200
vn -0.39452340 0.91847220 -0.02757202
vn -0.30787870 0.95110790 -0.02458294
vn 0.12345130 0.98670950 0.10565950
vn 0.80847660 -0.19074890 0.55675890
vn 0.75785510 0.37478150 0.53403600
vn -0.10321730 0.99449370 0.01812623
vn 0.43163450 -0.84681030 0.31081180
vn 0.76103440 0.05619074 0.64627330
vn -0.01583944 0.99987020 0.00297186
vn -0.17200480 0.98180080 0.08050801
vn 0.16343090 0.98638080 0.01852958
vn 0.00463910 -0.98454250 0.17508430
vn 0.36571080 -0.92656870 0.08789856
vn 0.33750810 -0.92560880 0.17127980
vn 0.86879500 -0.11865770 0.48074470
vn -0.08655094 0.95357590 0.28844750
vn 0.17020610 0.95894640 0.22682990
vn 0.40950220 0.84784620 0.33684530
vn -0.26005230 0.95578970 0.13725400
vn 0.82577710 0.55793270 0.08248157
vn 0.71723460 0.69556680 0.04197074
vn 0.08533038 0.93207030 0.35208490
vn -0.75140800 0.64600710 -0.13439070
vn 0.17856720 0.90941290 0.37560890
vn 0.23267540 0.87403710 0.42652240
vn 0.39168610 -0.23067370 0.89071420
vn -0.17352920 -0.04288379 0.98389460
vn -0.31608350 -0.07585661 0.94569400
vn 0.02877899 0.94122050 0.33656440
vn -0.04931855 -0.98655560 0.15580650
vn -0.23197630 -0.30085830 0.92502500
vn -0.18171070 0.79663880 0.57649620
vn -0.19791590 0.88885750 0.41323320
vn -0.38756590 -0.16606390 0.90676100
vn -0.22102240 0.88192030 0.41637220
vn -0.03918600 -0.99910710 0.01579754
vn 0.05429311 -0.99238140 -0.11059580
vn -0.11377500 -0.99255120 0.04355919
vn 0.03042771 -0.99938040 -0.01769077
vn 0.08771167 -0.99424490 0.06151339
vn -0.00674444 -0.99915540 0.04053275
vn -0.01400786 -0.99657660 -0.08147889
vn 0.00732481 -0.99994470 -0.00755607
vn 0.01516820 -0.99984650 0.00877330
vn 0.10394780 -0.99173550 0.07520267
vt 0.61104030 0.47299410
vt 0.71878680 0.41886080
vt 0.67501250 0.44211930
vt 0.59465230 0.42971730
vt 0.66207990 0.39702830
vt 0.63445160 0.41727810
vt 0.61104030 0.47299410
vt 0.67501250 0.44211930
vt 0.71878680 0.41886080
vt 0.59465230 0.42971730
vt 0.63445160 0.41727810
vt 0.66207990 0.39702830
vt 0.28842630 0.05302705
vt 0.11757190 0.01270054
vt 0.21657080 0.03081754
vt 0.02450899 0.01608694
vt 0.11766000 0.14065140
vt 0.03544259 0.00430964
vt 0.01369498 0.12994010
vt 0.01520027 0.17584800
vt 0.19061290 0.11674540
vt 0.26572430 0.12340060
vt 0.28233610 0.20858340
vt 0.34212680 0.12764360
vt 0.34724930 0.07387868
vt 0.13619620 0.18563280
vt 0.17223040 0.32911570
vt 0.05210956 0.25990010
vt 0.00095497 0.23743550
vt 0.00916624 0.26352450
vt 0.12132290 0.32146730
vt 0.08539903 0.33775140
vt 0.00770240 0.30443530
vt 0.32548610 0.16085310
vt 0.43863030 0.18851480
vt 0.33631430 0.22154720
vt 0.30595190 0.39177360
vt 0.24294840 0.25681590
vt 0.26330850 0.31032520
vt 0.15755020 0.36838720
vt 0.25428490 0.41065270
vt 0.27000370 0.36464380
vt 0.40911040 0.07525627
vt 0.36506620 0.07268248
vt 0.49289420 0.06473078
vt 0.09040575 0.42565510
vt 0.20166280 0.40855230
vt 0.02498385 0.41458820
vt 0.01106181 0.35857050
vt 0.03739101 0.43085470
vt 0.22066170 0.45466140
vt 0.16099370 0.46856770
vt 0.05018745 0.48761590
vt 0.04937359 0.55314870
vt 0.28524280 0.47512300
vt 0.16150920 0.51761510
vt 0.33923580 0.48480440
vt 0.36973140 0.46750780
vt 0.40748430 0.41858640
vt 0.40581290 0.52165040
vt 0.27414170 0.53023210
vt 0.09075782 0.54267390
vt 0.10843320 0.58292580
vt 0.04477974 0.63520560
vt 0.21600910 0.62672280
vt 0.16770790 0.57657680
vt 0.37796310 0.55133030
vt 0.08658557 0.73454350
vt 0.03715435 0.72996290
vt 0.04052259 0.76991750
vt 0.08580174 0.76785850
vt 0.04118271 0.80643530
vt 0.15503650 0.69513760
vt 0.26323070 0.62039800
vt 0.13466590 0.75647460
vt 0.11928590 0.78782930
vt 0.14601860 0.83018490
vt 0.04619282 0.86410870
vt 0.17971690 0.70469600
vt 0.21916170 0.77732860
vt 0.15181510 0.87540230
vt 0.23898690 0.67020260
vt 0.28082250 0.71128370
vt 0.29639510 0.62482550
vt 0.36124330 0.58337690
vt 0.38103720 0.61395820
vt 0.40460580 0.58119000
vt 0.16260570 0.93590290
vt 0.04851107 0.93519590
vt 0.05882301 0.94815490
vt 0.22541170 0.92915580
vt 0.23280520 0.83860300
vt 0.30258890 0.80061990
vt 0.25804490 0.89394750
vt 0.31947240 0.91569890
vt 0.35318400 0.85144280
vt 0.39258220 0.89974020
vt 0.38710960 0.75315780
vt 0.33946540 0.72661500
vt 0.41429120 0.85200620
vt 0.46623020 0.87895250
vt 0.43433730 0.81764500
vt 0.47281710 0.85075630
vt 0.50698330 0.87770890
vt 0.43284520 0.62908520
vt 0.43827300 0.75205590
vt 0.44565360 0.69546250
vt 0.52489400 0.82380360
vt 0.51889810 0.89196070
vt 0.58476240 0.91062290
vt 0.53925720 0.75905960
vt 0.66802550 0.84697460
vt 0.66552050 0.92996360
vt 0.52741020 0.67886070
vt 0.46703720 0.53603610
vt 0.55150780 0.56076720
vt 0.61999200 0.69384060
vt 0.71040480 0.89296230
vt 0.76859160 0.93584280
vt 0.66476900 0.78916420
vt 0.72317320 0.81311110
vt 0.76460160 0.86832680
vt 0.44151050 0.52426430
vt 0.45777170 0.50205030
vt 0.47042910 0.51525950
vt 0.50719890 0.51305450
vt 0.50463440 0.50133770
vt 0.53451230 0.51495990
vt 0.52211450 0.48910070
vt 0.49178570 0.43599750
vt 0.46439480 0.33214650
vt 0.52043780 0.39470770
vt 0.51020230 0.26259730
vt 0.50565300 0.14235740
vt 0.55043820 0.34237580
vt 0.57570880 0.48917000
vt 0.57139990 0.10601090
vt 0.55908190 0.05352480
vt 0.59883050 0.19820230
vt 0.62552230 0.30099600
vt 0.67192810 0.11310080
vt 0.70197150 0.33403490
vt 0.59574630 0.53857160
vt 0.71215140 0.03174876
vt 0.60790330 0.04011675
vt 0.78147450 0.09929124
vt 0.79884870 0.02482525
vt 0.90148710 0.00582159
vt 0.80114900 0.48791890
vt 0.74619570 0.31891830
vt 0.77721830 0.26113810
vt 0.79677610 0.29675880
vt 0.73138870 0.37499880
vt 0.78961710 0.39422450
vt 0.88272670 0.14351030
vt 0.84341250 0.21398750
vt 0.98133890 0.01985666
vt 0.96935120 0.00192978
vt 0.93396250 0.11522420
vt 0.98571520 0.08602403
vt 0.98631510 0.12795560
vt 0.97984850 0.16773730
vt 0.90077810 0.18059810
vt 0.89398560 0.22706530
vt 0.98813670 0.23297060
vt 0.88064350 0.30690650
vt 0.98332990 0.35128930
vt 0.85229500 0.28181700
vt 0.96846360 0.46362600
vt 0.89088700 0.51777270
vt 0.96862790 0.51297020
vt 0.98010690 0.54152470
vt 0.77063910 0.53782700
vt 0.65811200 0.51666880
vt 0.68460330 0.58269050
vt 0.62502310 0.52472070
vt 0.74656280 0.58329730
vt 0.62349870 0.58772050
vt 0.94284550 0.56843200
vt 0.99139760 0.64028230
vt 0.59229370 0.61848800
vt 0.69256950 0.65385730
vt 0.69339760 0.60193400
vt 0.75304880 0.62461820
vt 0.81559270 0.64507690
vt 0.95825310 0.66217380
vt 0.95827140 0.75766750
vt 0.99908970 0.77145470
vt 0.99546140 0.81132140
vt 0.70839830 0.71696350
vt 0.78593110 0.69496580
vt 0.83814390 0.69479840
vt 0.89213690 0.71968330
vt 0.85444590 0.73738710
vt 0.78101310 0.75054360
vt 0.94296010 0.80746260
vt 0.99667900 0.83938660
vt 0.84771260 0.80346680
vt 0.86724850 0.77244560
vt 0.88389530 0.84646270
vt 0.92521010 0.89578860
vt 0.99433720 0.89692830
vt 0.98730410 0.94997420
vt 0.84483210 0.94610520
vt 0.80114900 0.48791890
vt 0.73138870 0.37499880
vt 0.78961710 0.39422450
vt 0.79677610 0.29675880
vt 0.74619570 0.31891830
vt 0.98332990 0.35128930
vt 0.88064350 0.30690650
vt 0.70197150 0.33403490
vt 0.77721830 0.26113810
vt 0.57570880 0.48917000
vt 0.62552230 0.30099600
vt 0.85229500 0.28181700
vt 0.89398560 0.22706530
vt 0.98813670 0.23297060
vt 0.84341250 0.21398750
vt 0.78147450 0.09929124
vt 0.67192810 0.11310080
vt 0.88272670 0.14351030
vt 0.90077810 0.18059810
vt 0.93396250 0.11522420
vt 0.97984850 0.16773730
vt 0.96846360 0.46362600
vt 0.98631510 0.12795560
vt 0.98571520 0.08602403
vt 0.98133890 0.01985666
vt 0.96862790 0.51297020
vt 0.98010690 0.54152470
vt 0.89088700 0.51777270
vt 0.90148710 0.00582159
vt 0.96935120 0.00192978
vt 0.79884870 0.02482525
vt 0.71215140 0.03174876
vt 0.77063910 0.53782700
vt 0.60790330 0.04011675
vt 0.55908190 0.05352480
vt 0.49289420 0.06473078
vt 0.57139990 0.10601090
vt 0.59883050 0.19820230
vt 0.50565300 0.14235740
vt 0.55043820 0.34237580
vt 0.43863030 0.18851480
vt 0.51020230 0.26259730
vt 0.40911040 0.07525627
vt 0.52043780 0.39470770
vt 0.46439480 0.33214650
vt 0.52211450 0.48910070
vt 0.49178570 0.43599750
vt 0.40748430 0.41858640
vt 0.30595190 0.39177360
vt 0.36506620 0.07268248
vt 0.34724930 0.07387868
vt 0.28842630 0.05302705
vt 0.34212680 0.12764360
vt 0.45777170 0.50205030
vt 0.21657080 0.03081754
vt 0.11757190 0.01270054
vt 0.03544259 0.00430964
vt 0.02450899 0.01608694
vt 0.11766000 0.14065140
vt 0.01369498 0.12994010
vt 0.01520027 0.17584800
vt 0.00095497 0.23743550
vt 0.00916624 0.26352450
vt 0.05210956 0.25990010
vt 0.17223040 0.32911570
vt 0.12132290 0.32146730
vt 0.00770240 0.30443530
vt 0.08539903 0.33775140
vt 0.01106181 0.35857050
vt 0.02498385 0.41458820
vt 0.15755020 0.36838720
vt 0.25428490 0.41065270
vt 0.20166280 0.40855230
vt 0.09040575 0.42565510
vt 0.03739101 0.43085470
vt 0.22066170 0.45466140
vt 0.16099370 0.46856770
vt 0.05018745 0.48761590
vt 0.04937359 0.55314870
vt 0.28524280 0.47512300
vt 0.16150920 0.51761510
vt 0.04477974 0.63520560
vt 0.33923580 0.48480440
vt 0.03715435 0.72996290
vt 0.04052259 0.76991750
vt 0.04118271 0.80643530
vt 0.08658557 0.73454350
vt 0.21600910 0.62672280
vt 0.10843320 0.58292580
vt 0.08580174 0.76785850
vt 0.09075782 0.54267390
vt 0.16770790 0.57657680
vt 0.27414170 0.53023210
vt 0.15503650 0.69513760
vt 0.04619282 0.86410870
vt 0.13466590 0.75647460
vt 0.04851107 0.93519590
vt 0.05882301 0.94815490
vt 0.16260570 0.93590290
vt 0.22541170 0.92915580
vt 0.15181510 0.87540230
vt 0.14601860 0.83018490
vt 0.11928590 0.78782930
vt 0.21916170 0.77732860
vt 0.31947240 0.91569890
vt 0.23280520 0.83860300
vt 0.17971690 0.70469600
vt 0.25804490 0.89394750
vt 0.39258220 0.89974020
vt 0.35318400 0.85144280
vt 0.30258890 0.80061990
vt 0.38710960 0.75315780
vt 0.41429120 0.85200620
vt 0.46623020 0.87895250
vt 0.28082250 0.71128370
vt 0.33946540 0.72661500
vt 0.43433730 0.81764500
vt 0.50698330 0.87770890
vt 0.47281710 0.85075630
vt 0.51889810 0.89196070
vt 0.52489400 0.82380360
vt 0.58476240 0.91062290
vt 0.66552050 0.92996360
vt 0.66802550 0.84697460
vt 0.76859160 0.93584280
vt 0.43827300 0.75205590
vt 0.53925720 0.75905960
vt 0.44565360 0.69546250
vt 0.71040480 0.89296230
vt 0.84483210 0.94610520
vt 0.98730410 0.94997420
vt 0.92521010 0.89578860
vt 0.99433720 0.89692830
vt 0.99667900 0.83938660
vt 0.99546140 0.81132140
vt 0.76460160 0.86832680
vt 0.88389530 0.84646270
vt 0.72317320 0.81311110
vt 0.94296010 0.80746260
vt 0.84771260 0.80346680
vt 0.99908970 0.77145470
vt 0.99139760 0.64028230
vt 0.66476900 0.78916420
vt 0.95827140 0.75766750
vt 0.86724850 0.77244560
vt 0.78101310 0.75054360
vt 0.85444590 0.73738710
vt 0.70839830 0.71696350
vt 0.61999200 0.69384060
vt 0.78593110 0.69496580
vt 0.89213690 0.71968330
vt 0.83814390 0.69479840
vt 0.69256950 0.65385730
vt 0.81559270 0.64507690
vt 0.75304880 0.62461820
vt 0.52741020 0.67886070
vt 0.55150780 0.56076720
vt 0.43284520 0.62908520
vt 0.95825310 0.66217380
vt 0.94284550 0.56843200
vt 0.74656280 0.58329730
vt 0.68460330 0.58269050
vt 0.46703720 0.53603610
vt 0.38103720 0.61395820
vt 0.69339760 0.60193400
vt 0.62349870 0.58772050
vt 0.65811200 0.51666880
vt 0.62502310 0.52472070
vt 0.59574630 0.53857160
vt 0.59229370 0.61848800
vt 0.53451230 0.51495990
vt 0.50719890 0.51305450
vt 0.50463440 0.50133770
vt 0.47042910 0.51525950
vt 0.44151050 0.52426430
vt 0.40460580 0.58119000
vt 0.40581290 0.52165040
vt 0.37796310 0.55133030
vt 0.36124330 0.58337690
vt 0.29639510 0.62482550
vt 0.26323070 0.62039800
vt 0.23898690 0.67020260
vt 0.36973140 0.46750780
vt 0.27000370 0.36464380
vt 0.26330850 0.31032520
vt 0.28233610 0.20858340
vt 0.24294840 0.25681590
vt 0.13619620 0.18563280
vt 0.33631430 0.22154720
vt 0.32548610 0.16085310
vt 0.26572430 0.12340060
vt 0.19061290 0.11674540
f 3/3/3 2/2/2 1/1/1
f 6/6/6 5/5/5 4/4/4
f 9/9/9 8/8/8 7/7/7
f 12/12/12 11/11/11 10/10/10
f 15/15/15 14/14/14 13/13/13
f 16/16/16 13/13/13 14/14/14
f 13/13/13 16/16/16 17/17/17
f 14/14/14 18/18/18 16/16/16
f 17/17/17 16/16/16 19/19/19
f 20/20/20 17/17/17 19/19/19
f 13/13/13 17/17/17 21/21/21
f 22/22/22 13/13/13 21/21/21
f 21/21/21 17/17/17 22/22/22
f 22/22/22 17/17/17 23/23/23
f 13/13/13 22/22/22 24/24/24
f 24/24/24 25/25/25 13/13/13
f 26/26/26 17/17/17 20/20/20
f 23/23/23 17/17/17 26/26/26
f 26/26/26 20/20/20 27/27/27
f 27/27/27 20/20/20 28/28/28
f 28/28/28 20/20/20 29/29/29
f 28/28/28 29/29/29 30/30/30
f 30/30/30 31/31/31 28/28/28
f 31/31/31 27/27/27 28/28/28
f 30/30/30 32/32/32 31/31/31
f 30/30/30 33/33/33 32/32/32
f 24/24/24 22/22/22 34/34/34
f 34/34/34 22/22/22 23/23/23
f 24/24/24 34/34/34 35/35/35
f 34/34/34 36/36/36 35/35/35
f 23/23/23 36/36/36 34/34/34
f 36/36/36 37/37/37 35/35/35
f 23/23/23 37/37/37 36/36/36
f 26/26/26 38/38/38 23/23/23
f 26/26/26 27/27/27 38/38/38
f 38/38/38 39/39/39 23/23/23
f 39/39/39 37/37/37 23/23/23
f 38/38/38 27/27/27 39/39/39
f 31/31/31 40/40/40 27/27/27
f 32/32/32 40/40/40 31/31/31
f 41/41/41 27/27/27 40/40/40
f 41/41/41 42/42/42 27/27/27
f 27/27/27 42/42/42 39/39/39
f 37/37/37 39/39/39 42/42/42
f 41/41/41 37/37/37 42/42/42
f 24/24/24 35/35/35 43/43/43
f 43/43/43 25/25/25 24/24/24
f 43/43/43 44/44/44 25/25/25
f 45/45/45 43/43/43 35/35/35
f 46/46/46 40/40/40 32/32/32
f 40/40/40 47/47/47 41/41/41
f 40/40/40 46/46/46 47/47/47
f 46/46/46 32/32/32 48/48/48
f 32/32/32 33/33/33 48/48/48
f 48/48/48 33/33/33 49/49/49
f 48/48/48 50/50/50 46/46/46
f 46/46/46 51/51/51 47/47/47
f 47/47/47 51/51/51 41/41/41
f 52/52/52 46/46/46 50/50/50
f 51/51/51 46/46/46 52/52/52
f 52/52/52 50/50/50 53/53/53
f 53/53/53 54/54/54 52/52/52
f 52/52/52 55/55/55 51/51/51
f 51/51/51 55/55/55 41/41/41
f 52/52/52 56/56/56 55/55/55
f 54/54/54 56/56/56 52/52/52
f 55/55/55 57/57/57 41/41/41
f 56/56/56 57/57/57 55/55/55
f 58/58/58 41/41/41 57/57/57
f 41/41/41 58/58/58 37/37/37
f 37/37/37 58/58/58 59/59/59
f 37/37/37 59/59/59 35/35/35
f 57/57/57 60/60/60 58/58/58
f 58/58/58 60/60/60 59/59/59
f 57/57/57 56/56/56 61/61/61
f 57/57/57 61/61/61 60/60/60
f 56/56/56 54/54/54 62/62/62
f 62/62/62 54/54/54 63/63/63
f 63/63/63 54/54/54 64/64/64
f 64/64/64 65/65/65 63/63/63
f 66/66/66 56/56/56 62/62/62
f 63/63/63 66/66/66 62/62/62
f 66/66/66 61/61/61 56/56/56
f 63/63/63 65/65/65 66/66/66
f 61/61/61 66/66/66 65/65/65
f 60/60/60 61/61/61 67/67/67
f 61/61/61 65/65/65 67/67/67
f 68/68/68 65/65/65 64/64/64
f 69/69/69 68/68/68 64/64/64
f 68/68/68 69/69/69 70/70/70
f 68/68/68 70/70/70 71/71/71
f 70/70/70 72/72/72 71/71/71
f 73/73/73 65/65/65 68/68/68
f 71/71/71 73/73/73 68/68/68
f 74/74/74 67/67/67 65/65/65
f 65/65/65 73/73/73 74/74/74
f 71/71/71 72/72/72 75/75/75
f 73/73/73 71/71/71 75/75/75
f 75/75/75 72/72/72 76/76/76
f 77/77/77 76/76/76 72/72/72
f 76/76/76 77/77/77 75/75/75
f 72/72/72 78/78/78 77/77/77
f 75/75/75 79/79/79 73/73/73
f 75/75/75 77/77/77 80/80/80
f 79/79/79 75/75/75 80/80/80
f 81/81/81 77/77/77 78/78/78
f 80/80/80 77/77/77 81/81/81
f 73/73/73 79/79/79 82/82/82
f 74/74/74 73/73/73 82/82/82
f 82/82/82 79/79/79 83/83/83
f 80/80/80 83/83/83 79/79/79
f 74/74/74 82/82/82 84/84/84
f 82/82/82 83/83/83 84/84/84
f 85/85/85 74/74/74 84/84/84
f 74/74/74 85/85/85 67/67/67
f 86/86/86 85/85/85 84/84/84
f 84/84/84 83/83/83 86/86/86
f 67/67/67 85/85/85 87/87/87
f 85/85/85 86/86/86 87/87/87
f 81/81/81 78/78/78 88/88/88
f 88/88/88 78/78/78 89/89/89
f 89/89/89 90/90/90 88/88/88
f 88/88/88 91/91/91 81/81/81
f 81/81/81 92/92/92 80/80/80
f 91/91/91 92/92/92 81/81/81
f 93/93/93 83/83/83 80/80/80
f 80/80/80 92/92/92 93/93/93
f 91/91/91 94/94/94 92/92/92
f 94/94/94 91/91/91 95/95/95
f 94/94/94 96/96/96 92/92/92
f 96/96/96 94/94/94 95/95/95
f 93/93/93 92/92/92 96/96/96
f 95/95/95 97/97/97 96/96/96
f 93/93/93 96/96/96 98/98/98
f 93/93/93 98/98/98 99/99/99
f 83/83/83 93/93/93 99/99/99
f 86/86/86 83/83/83 99/99/99
f 99/99/99 98/98/98 86/86/86
f 100/100/100 96/96/96 97/97/97
f 98/98/98 96/96/96 100/100/100
f 101/101/101 100/100/100 97/97/97
f 100/100/100 101/101/101 102/102/102
f 102/102/102 98/98/98 100/100/100
f 101/101/101 103/103/103 102/102/102
f 103/103/103 101/101/101 104/104/104
f 98/98/98 105/105/105 86/86/86
f 86/86/86 105/105/105 87/87/87
f 98/98/98 102/102/102 106/106/106
f 106/106/106 102/102/102 103/103/103
f 98/98/98 106/106/106 107/107/107
f 107/107/107 105/105/105 98/98/98
f 106/106/106 103/103/103 107/107/107
f 103/103/103 104/104/104 108/108/108
f 104/104/104 109/109/109 108/108/108
f 110/110/110 108/108/108 109/109/109
f 107/107/107 103/103/103 111/111/111
f 108/108/108 111/111/111 103/103/103
f 112/112/112 108/108/108 110/110/110
f 108/108/108 112/112/112 111/111/111
f 110/110/110 113/113/113 112/112/112
f 114/114/114 105/105/105 107/107/107
f 114/114/114 107/107/107 111/111/111
f 87/87/87 105/105/105 115/115/115
f 115/115/115 105/105/105 114/114/114
f 116/116/116 115/115/115 114/114/114
f 114/114/114 111/111/111 117/117/117
f 114/114/114 117/117/117 116/116/116
f 118/118/118 112/112/112 113/113/113
f 118/118/118 113/113/113 119/119/119
f 112/112/112 120/120/120 111/111/111
f 120/120/120 117/117/117 111/111/111
f 121/121/121 112/112/112 118/118/118
f 121/121/121 120/120/120 112/112/112
f 122/122/122 118/118/118 119/119/119
f 118/118/118 122/122/122 121/121/121
f 123/123/123 87/87/87 115/115/115
f 87/87/87 123/123/123 67/67/67
f 60/60/60 67/67/67 123/123/123
f 123/123/123 124/124/124 60/60/60
f 124/124/124 59/59/59 60/60/60
f 115/115/115 125/125/125 123/123/123
f 124/124/124 123/123/123 125/125/125
f 125/125/125 115/115/115 126/126/126
f 126/126/126 115/115/115 116/116/116
f 127/127/127 125/125/125 126/126/126
f 125/125/125 127/127/127 124/124/124
f 128/128/128 127/127/127 126/126/126
f 128/128/128 126/126/126 116/116/116
f 129/129/129 124/124/124 127/127/127
f 127/127/127 128/128/128 129/129/129
f 59/59/59 124/124/124 130/130/130
f 130/130/130 124/124/124 129/129/129
f 130/130/130 131/131/131 59/59/59
f 131/131/131 35/35/35 59/59/59
f 131/131/131 130/130/130 132/132/132
f 130/130/130 129/129/129 132/132/132
f 131/131/131 133/133/133 35/35/35
f 132/132/132 133/133/133 131/131/131
f 35/35/35 133/133/133 134/134/134
f 45/45/45 35/35/35 134/134/134
f 133/133/133 132/132/132 135/135/135
f 135/135/135 134/134/134 133/133/133
f 132/132/132 129/129/129 10/10/10
f 135/135/135 132/132/132 10/10/10
f 128/128/128 136/136/136 129/129/129
f 129/129/129 136/136/136 10/10/10
f 12/12/12 10/10/10 136/136/136
f 134/134/134 137/137/137 45/45/45
f 137/137/137 138/138/138 45/45/45
f 135/135/135 139/139/139 134/134/134
f 134/134/134 139/139/139 137/137/137
f 135/135/135 10/10/10 140/140/140
f 139/139/139 135/135/135 140/140/140
f 140/140/140 10/10/10 11/11/11
f 139/139/139 141/141/141 137/137/137
f 137/137/137 141/141/141 138/138/138
f 140/140/140 141/141/141 139/139/139
f 140/140/140 11/11/11 142/142/142
f 11/11/11 12/12/12 142/142/142
f 140/140/140 142/142/142 141/141/141
f 143/143/143 136/136/136 128/128/128
f 128/128/128 116/116/116 143/143/143
f 144/144/144 138/138/138 141/141/141
f 144/144/144 145/145/145 138/138/138
f 144/144/144 141/141/141 146/146/146
f 146/146/146 141/141/141 142/142/142
f 147/147/147 144/144/144 146/146/146
f 148/148/148 147/147/147 146/146/146
f 136/136/136 7/7/7 12/12/12
f 7/7/7 136/136/136 143/143/143
f 7/7/7 8/8/8 12/12/12
f 8/8/8 9/9/9 12/12/12
f 149/149/149 9/9/9 7/7/7
f 150/150/150 142/142/142 12/12/12
f 146/146/146 142/142/142 151/151/151
f 142/142/142 150/150/150 151/151/151
f 152/152/152 151/151/151 150/150/150
f 150/150/150 12/12/12 153/153/153
f 9/9/9 153/153/153 12/12/12
f 150/150/150 153/153/153 152/152/152
f 153/153/153 9/9/9 154/154/154
f 154/154/154 9/9/9 149/149/149
f 154/154/154 152/152/152 153/153/153
f 148/148/148 146/146/146 155/155/155
f 151/151/151 155/155/155 146/146/146
f 151/151/151 152/152/152 156/156/156
f 155/155/155 151/151/151 156/156/156
f 157/157/157 148/148/148 155/155/155
f 148/148/148 157/157/157 158/158/158
f 157/157/157 155/155/155 159/159/159
f 156/156/156 159/159/159 155/155/155
f 159/159/159 160/160/160 157/157/157
f 159/159/159 161/161/161 160/160/160
f 162/162/162 161/161/161 159/159/159
f 163/163/163 159/159/159 156/156/156
f 163/163/163 162/162/162 159/159/159
f 164/164/164 163/163/163 156/156/156
f 162/162/162 163/163/163 164/164/164
f 156/156/156 152/152/152 164/164/164
f 162/162/162 164/164/164 165/165/165
f 165/165/165 164/164/164 166/166/166
f 165/165/165 166/166/166 167/167/167
f 164/164/164 152/152/152 168/168/168
f 164/164/164 168/168/168 166/166/166
f 166/166/166 168/168/168 152/152/152
f 154/154/154 166/166/166 152/152/152
f 154/154/154 167/167/167 166/166/166
f 149/149/149 167/167/167 154/154/154
f 169/169/169 167/167/167 149/149/149
f 170/170/170 169/169/169 149/149/149
f 169/169/169 170/170/170 171/171/171
f 171/171/171 170/170/170 172/172/172
f 170/170/170 149/149/149 173/173/173
f 172/172/172 170/170/170 173/173/173
f 173/173/173 149/149/149 174/174/174
f 173/173/173 174/174/174 175/175/175
f 174/174/174 149/149/149 7/7/7
f 176/176/176 174/174/174 7/7/7
f 175/175/175 174/174/174 176/176/176
f 7/7/7 143/143/143 176/176/176
f 176/176/176 143/143/143 175/175/175
f 172/172/172 173/173/173 177/177/177
f 175/175/175 177/177/177 173/173/173
f 143/143/143 178/178/178 175/175/175
f 178/178/178 143/143/143 116/116/116
f 179/179/179 172/172/172 177/177/177
f 172/172/172 179/179/179 180/180/180
f 116/116/116 181/181/181 178/178/178
f 181/181/181 116/116/116 117/117/117
f 181/181/181 182/182/182 178/178/178
f 181/181/181 117/117/117 182/182/182
f 178/178/178 183/183/183 175/175/175
f 182/182/182 183/183/183 178/178/178
f 184/184/184 175/175/175 183/183/183
f 177/177/177 175/175/175 184/184/184
f 184/184/184 183/183/183 182/182/182
f 179/179/179 177/177/177 185/185/185
f 185/185/185 177/177/177 184/184/184
f 186/186/186 180/180/180 179/179/179
f 186/186/186 179/179/179 185/185/185
f 186/186/186 187/187/187 180/180/180
f 185/185/185 187/187/187 186/186/186
f 187/187/187 188/188/188 180/180/180
f 189/189/189 188/188/188 187/187/187
f 190/190/190 182/182/182 117/117/117
f 190/190/190 117/117/117 120/120/120
f 120/120/120 121/121/121 190/190/190
f 184/184/184 182/182/182 191/191/191
f 191/191/191 182/182/182 190/190/190
f 184/184/184 192/192/192 185/185/185
f 192/192/192 184/184/184 191/191/191
f 187/187/187 185/185/185 193/193/193
f 193/193/193 185/185/185 192/192/192
f 189/189/189 187/187/187 193/193/193
f 192/192/192 194/194/194 193/193/193
f 194/194/194 192/192/192 191/191/191
f 194/194/194 189/189/189 193/193/193
f 191/191/191 190/190/190 195/195/195
f 195/195/195 190/190/190 121/121/121
f 195/195/195 194/194/194 191/191/191
f 189/189/189 194/194/194 196/196/196
f 197/197/197 189/189/189 196/196/196
f 198/198/198 195/195/195 121/121/121
f 198/198/198 121/121/121 122/122/122
f 195/195/195 199/199/199 194/194/194
f 196/196/196 194/194/194 199/199/199
f 198/198/198 199/199/199 195/195/195
f 196/196/196 199/199/199 198/198/198
f 198/198/198 200/200/200 196/196/196
f 197/197/197 196/196/196 200/200/200
f 200/200/200 198/198/198 122/122/122
f 200/200/200 201/201/201 197/197/197
f 201/201/201 200/200/200 122/122/122
f 202/202/202 197/197/197 201/201/201
f 122/122/122 119/119/119 201/201/201
f 203/203/203 202/202/202 201/201/201
f 119/119/119 204/204/204 201/201/201
f 204/204/204 203/203/203 201/201/201
f 3/3/3 1/1/1 5/5/5
f 2/2/2 3/3/3 5/5/5
f 2/2/2 205/205/205 1/1/1
f 206/206/206 2/2/2 5/5/5
f 2/2/2 207/207/207 205/205/205
f 2/2/2 206/206/206 207/207/207
f 208/208/208 207/207/207 206/206/206
f 5/5/5 209/209/209 206/206/206
f 206/206/206 209/209/209 208/208/208
f 210/210/210 205/205/205 207/207/207
f 211/211/211 207/207/207 208/208/208
f 210/210/210 207/207/207 211/211/211
f 212/212/212 209/209/209 5/5/5
f 213/213/213 208/208/208 209/209/209
f 209/209/209 212/212/212 213/213/213
f 5/5/5 6/6/6 212/212/212
f 1/1/1 214/214/214 5/5/5
f 4/4/4 5/5/5 214/214/214
f 6/6/6 215/215/215 212/212/212
f 4/4/4 215/215/215 6/6/6
f 216/216/216 211/211/211 208/208/208
f 208/208/208 217/217/217 216/216/216
f 216/216/216 217/217/217 211/211/211
f 211/211/211 218/218/218 210/210/210
f 217/217/217 218/218/218 211/211/211
f 208/208/208 213/213/213 219/219/219
f 208/208/208 219/219/219 217/217/217
f 212/212/212 220/220/220 213/213/213
f 212/212/212 215/215/215 221/221/221
f 221/221/221 220/220/220 212/212/212
f 213/213/213 222/222/222 219/219/219
f 222/222/222 213/213/213 220/220/220
f 223/223/223 217/217/217 219/219/219
f 224/224/224 223/223/223 219/219/219
f 224/224/224 219/219/219 222/222/222
f 223/223/223 225/225/225 217/217/217
f 217/217/217 225/225/225 218/218/218
f 225/225/225 223/223/223 224/224/224
f 218/218/218 165/165/165 210/210/210
f 162/162/162 165/165/165 218/218/218
f 225/225/225 162/162/162 218/218/218
f 165/165/165 167/167/167 210/210/210
f 161/161/161 162/162/162 225/225/225
f 210/210/210 167/167/167 226/226/226
f 167/167/167 169/169/169 226/226/226
f 210/210/210 226/226/226 205/205/205
f 227/227/227 161/161/161 225/225/225
f 227/227/227 225/225/225 224/224/224
f 160/160/160 161/161/161 227/227/227
f 228/228/228 160/160/160 227/227/227
f 227/227/227 224/224/224 228/228/228
f 157/157/157 160/160/160 228/228/228
f 228/228/228 224/224/224 229/229/229
f 229/229/229 157/157/157 228/228/228
f 222/222/222 229/229/229 224/224/224
f 158/158/158 157/157/157 229/229/229
f 226/226/226 169/169/169 230/230/230
f 169/169/169 171/171/171 230/230/230
f 230/230/230 171/171/171 231/231/231
f 171/171/171 172/172/172 231/231/231
f 232/232/232 226/226/226 230/230/230
f 232/232/232 230/230/230 231/231/231
f 226/226/226 232/232/232 205/205/205
f 233/233/233 229/229/229 222/222/222
f 220/220/220 233/233/233 222/222/222
f 234/234/234 158/158/158 229/229/229
f 229/229/229 233/233/233 234/234/234
f 148/148/148 158/158/158 234/234/234
f 233/233/233 148/148/148 234/234/234
f 147/147/147 148/148/148 233/233/233
f 235/235/235 147/147/147 233/233/233
f 235/235/235 233/233/233 220/220/220
f 144/144/144 147/147/147 235/235/235
f 236/236/236 235/235/235 220/220/220
f 236/236/236 144/144/144 235/235/235
f 145/145/145 144/144/144 236/236/236
f 221/221/221 236/236/236 220/220/220
f 205/205/205 232/232/232 237/237/237
f 232/232/232 231/231/231 237/237/237
f 238/238/238 145/145/145 236/236/236
f 138/138/138 145/145/145 238/238/238
f 238/238/238 236/236/236 239/239/239
f 239/239/239 138/138/138 238/238/238
f 239/239/239 236/236/236 221/221/221
f 45/45/45 138/138/138 239/239/239
f 240/240/240 45/45/45 239/239/239
f 43/43/43 45/45/45 240/240/240
f 221/221/221 241/241/241 239/239/239
f 239/239/239 241/241/241 240/240/240
f 221/221/221 242/242/242 241/241/241
f 221/221/221 215/215/215 242/242/242
f 242/242/242 243/243/243 241/241/241
f 241/241/241 243/243/243 240/240/240
f 244/244/244 242/242/242 215/215/215
f 242/242/242 244/244/244 243/243/243
f 4/4/4 244/244/244 215/215/215
f 245/245/245 240/240/240 243/243/243
f 246/246/246 245/245/245 243/243/243
f 243/243/243 244/244/244 246/246/246
f 247/247/247 240/240/240 245/245/245
f 247/247/247 43/43/43 240/240/240
f 44/44/44 43/43/43 247/247/247
f 248/248/248 244/244/244 4/4/4
f 248/248/248 246/246/246 244/244/244
f 246/246/246 249/249/249 245/245/245
f 246/246/246 248/248/248 249/249/249
f 250/250/250 248/248/248 4/4/4
f 214/214/214 250/250/250 4/4/4
f 251/251/251 249/249/249 248/248/248
f 250/250/250 251/251/251 248/248/248
f 249/249/249 251/251/251 252/252/252
f 245/245/245 249/249/249 252/252/252
f 252/252/252 253/253/253 245/245/245
f 254/254/254 44/44/44 247/247/247
f 25/25/25 44/44/44 254/254/254
f 255/255/255 25/25/25 254/254/254
f 254/254/254 247/247/247 255/255/255
f 13/13/13 25/25/25 255/255/255
f 256/256/256 13/13/13 255/255/255
f 15/15/15 13/13/13 256/256/256
f 255/255/255 257/257/257 256/256/256
f 255/255/255 247/247/247 257/257/257
f 245/245/245 257/257/257 247/247/247
f 258/258/258 251/251/251 250/250/250
f 258/258/258 252/252/252 251/251/251
f 259/259/259 15/15/15 256/256/256
f 14/14/14 15/15/15 259/259/259
f 260/260/260 14/14/14 259/259/259
f 260/260/260 259/259/259 256/256/256
f 18/18/18 14/14/14 260/260/260
f 261/261/261 18/18/18 260/260/260
f 16/16/16 18/18/18 261/261/261
f 261/261/261 260/260/260 262/262/262
f 262/262/262 16/16/16 261/261/261
f 256/256/256 262/262/262 260/260/260
f 262/262/262 256/256/256 263/263/263
f 19/19/19 16/16/16 262/262/262
f 264/264/264 19/19/19 262/262/262
f 262/262/262 263/263/263 264/264/264
f 263/263/263 265/265/265 264/264/264
f 20/20/20 19/19/19 264/264/264
f 265/265/265 20/20/20 264/264/264
f 29/29/29 20/20/20 265/265/265
f 266/266/266 29/29/29 265/265/265
f 30/30/30 29/29/29 266/266/266
f 267/267/267 30/30/30 266/266/266
f 33/33/33 30/30/30 267/267/267
f 265/265/265 268/268/268 266/266/266
f 266/266/266 268/268/268 267/267/267
f 265/265/265 269/269/269 268/268/268
f 269/269/269 270/270/270 268/268/268
f 270/270/270 267/267/267 268/268/268
f 271/271/271 33/33/33 267/267/267
f 49/49/49 33/33/33 271/271/271
f 272/272/272 267/267/267 270/270/270
f 271/271/271 267/267/267 272/272/272
f 273/273/273 49/49/49 271/271/271
f 48/48/48 49/49/49 273/273/273
f 271/271/271 274/274/274 273/273/273
f 274/274/274 48/48/48 273/273/273
f 271/271/271 272/272/272 274/274/274
f 50/50/50 48/48/48 274/274/274
f 275/275/275 272/272/272 270/270/270
f 275/275/275 270/270/270 269/269/269
f 269/269/269 276/276/276 275/275/275
f 277/277/277 275/275/275 276/276/276
f 275/275/275 278/278/278 272/272/272
f 272/272/272 278/278/278 274/274/274
f 278/278/278 275/275/275 277/277/277
f 279/279/279 50/50/50 274/274/274
f 279/279/279 274/274/274 278/278/278
f 53/53/53 50/50/50 279/279/279
f 280/280/280 278/278/278 277/277/277
f 280/280/280 277/277/277 276/276/276
f 278/278/278 281/281/281 279/279/279
f 278/278/278 280/280/280 281/281/281
f 282/282/282 53/53/53 279/279/279
f 279/279/279 281/281/281 282/282/282
f 283/283/283 282/282/282 281/281/281
f 54/54/54 53/53/53 282/282/282
f 283/283/283 54/54/54 282/282/282
f 64/64/64 54/54/54 283/283/283
f 284/284/284 281/281/281 280/280/280
f 284/284/284 280/280/280 276/276/276
f 285/285/285 281/281/281 284/284/284
f 285/285/285 283/283/283 281/281/281
f 286/286/286 64/64/64 283/283/283
f 69/69/69 64/64/64 286/286/286
f 287/287/287 284/284/284 276/276/276
f 287/287/287 285/285/285 284/284/284
f 288/288/288 69/69/69 286/286/286
f 70/70/70 69/69/69 288/288/288
f 289/289/289 70/70/70 288/288/288
f 72/72/72 70/70/70 289/289/289
f 290/290/290 72/72/72 289/289/289
f 78/78/78 72/72/72 290/290/290
f 288/288/288 291/291/291 289/289/289
f 291/291/291 288/288/288 286/286/286
f 292/292/292 291/291/291 286/286/286
f 283/283/283 293/293/293 286/286/286
f 292/292/292 286/286/286 293/293/293
f 289/289/289 291/291/291 294/294/294
f 290/290/290 289/289/289 294/294/294
f 283/283/283 295/295/295 293/293/293
f 283/283/283 285/285/285 295/295/295
f 296/296/296 293/293/293 295/295/295
f 285/285/285 296/296/296 295/295/295
f 292/292/292 293/293/293 296/296/296
f 297/297/297 296/296/296 285/285/285
f 296/296/296 297/297/297 292/292/292
f 285/285/285 287/287/287 297/297/297
f 298/298/298 294/294/294 291/291/291
f 292/292/292 298/298/298 291/291/291
f 299/299/299 78/78/78 290/290/290
f 89/89/89 78/78/78 299/299/299
f 294/294/294 298/298/298 300/300/300
f 290/290/290 294/294/294 300/300/300
f 301/301/301 89/89/89 299/299/299
f 90/90/90 89/89/89 301/301/301
f 302/302/302 90/90/90 301/301/301
f 88/88/88 90/90/90 302/302/302
f 302/302/302 301/301/301 303/303/303
f 303/303/303 88/88/88 302/302/302
f 299/299/299 303/303/303 301/301/301
f 91/91/91 88/88/88 303/303/303
f 304/304/304 91/91/91 303/303/303
f 95/95/95 91/91/91 304/304/304
f 299/299/299 305/305/305 303/303/303
f 304/304/304 303/303/303 305/305/305
f 299/299/299 290/290/290 306/306/306
f 306/306/306 305/305/305 299/299/299
f 290/290/290 300/300/300 307/307/307
f 307/307/307 306/306/306 290/290/290
f 306/306/306 307/307/307 300/300/300
f 306/306/306 308/308/308 305/305/305
f 306/306/306 300/300/300 308/308/308
f 309/309/309 95/95/95 304/304/304
f 97/97/97 95/95/95 309/309/309
f 310/310/310 304/304/304 305/305/305
f 310/310/310 305/305/305 308/308/308
f 300/300/300 311/311/311 308/308/308
f 311/311/311 300/300/300 298/298/298
f 304/304/304 312/312/312 309/309/309
f 312/312/312 304/304/304 310/310/310
f 313/313/313 97/97/97 309/309/309
f 101/101/101 97/97/97 313/313/313
f 312/312/312 314/314/314 309/309/309
f 314/314/314 312/312/312 310/310/310
f 313/313/313 309/309/309 314/314/314
f 310/310/310 308/308/308 315/315/315
f 310/310/310 315/315/315 314/314/314
f 314/314/314 315/315/315 316/316/316
f 314/314/314 316/316/316 317/317/317
f 314/314/314 317/317/317 313/313/313
f 318/318/318 101/101/101 313/313/313
f 317/317/317 318/318/318 313/313/313
f 104/104/104 101/101/101 318/318/318
f 319/319/319 308/308/308 311/311/311
f 319/319/319 315/315/315 308/308/308
f 316/316/316 315/315/315 320/320/320
f 315/315/315 319/319/319 320/320/320
f 318/318/318 317/317/317 321/321/321
f 316/316/316 321/321/321 317/317/317
f 322/322/322 104/104/104 318/318/318
f 109/109/109 104/104/104 322/322/322
f 323/323/323 318/318/318 321/321/321
f 318/318/318 323/323/323 322/322/322
f 324/324/324 109/109/109 322/322/322
f 110/110/110 109/109/109 324/324/324
f 324/324/324 322/322/322 325/325/325
f 322/322/322 323/323/323 325/325/325
f 326/326/326 110/110/110 324/324/324
f 325/325/325 326/326/326 324/324/324
f 113/113/113 110/110/110 326/326/326
f 327/327/327 113/113/113 326/326/326
f 119/119/119 113/113/113 327/327/327
f 325/325/325 328/328/328 326/326/326
f 327/327/327 326/326/326 328/328/328
f 329/329/329 119/119/119 327/327/327
f 204/204/204 119/119/119 329/329/329
f 321/321/321 330/330/330 323/323/323
f 321/321/321 316/316/316 330/330/330
f 331/331/331 325/325/325 323/323/323
f 328/328/328 325/325/325 331/331/331
f 323/323/323 330/330/330 332/332/332
f 330/330/330 316/316/316 332/332/332
f 323/323/323 332/332/332 331/331/331
f 328/328/328 333/333/333 327/327/327
f 327/327/327 333/333/333 329/329/329
f 334/334/334 204/204/204 329/329/329
f 203/203/203 204/204/204 334/334/334
f 335/335/335 203/203/203 334/334/334
f 202/202/202 203/203/203 335/335/335
f 334/334/334 329/329/329 336/336/336
f 335/335/335 334/334/334 336/336/336
f 337/337/337 202/202/202 335/335/335
f 337/337/337 335/335/335 336/336/336
f 197/197/197 202/202/202 337/337/337
f 338/338/338 197/197/197 337/337/337
f 338/338/338 337/337/337 336/336/336
f 189/189/189 197/197/197 338/338/338
f 339/339/339 189/189/189 338/338/338
f 188/188/188 189/189/189 339/339/339
f 333/333/333 340/340/340 329/329/329
f 329/329/329 340/340/340 336/336/336
f 336/336/336 341/341/341 338/338/338
f 341/341/341 336/336/336 340/340/340
f 340/340/340 333/333/333 342/342/342
f 328/328/328 342/342/342 333/333/333
f 343/343/343 338/338/338 341/341/341
f 339/339/339 338/338/338 343/343/343
f 344/344/344 341/341/341 340/340/340
f 342/342/342 344/344/344 340/340/340
f 341/341/341 344/344/344 343/343/343
f 345/345/345 188/188/188 339/339/339
f 180/180/180 188/188/188 345/345/345
f 346/346/346 180/180/180 345/345/345
f 172/172/172 180/180/180 346/346/346
f 231/231/231 172/172/172 346/346/346
f 347/347/347 342/342/342 328/328/328
f 347/347/347 328/328/328 331/331/331
f 345/345/345 339/339/339 348/348/348
f 345/345/345 348/348/348 346/346/346
f 349/349/349 343/343/343 344/344/344
f 350/350/350 344/344/344 342/342/342
f 349/349/349 344/344/344 350/350/350
f 351/351/351 343/343/343 349/349/349
f 351/351/351 339/339/339 343/343/343
f 349/349/349 350/350/350 351/351/351
f 342/342/342 347/347/347 352/352/352
f 352/352/352 350/350/350 342/342/342
f 353/353/353 347/347/347 331/331/331
f 353/353/353 352/352/352 347/347/347
f 352/352/352 354/354/354 350/350/350
f 351/351/351 350/350/350 354/354/354
f 339/339/339 351/351/351 355/355/355
f 348/348/348 339/339/339 355/355/355
f 351/351/351 356/356/356 355/355/355
f 356/356/356 351/351/351 354/354/354
f 357/357/357 354/354/354 352/352/352
f 357/357/357 352/352/352 353/353/353
f 358/358/358 348/348/348 355/355/355
f 358/358/358 355/355/355 356/356/356
f 359/359/359 356/356/356 354/354/354
f 357/357/357 359/359/359 354/354/354
f 356/356/356 359/359/359 358/358/358
f 331/331/331 360/360/360 353/353/353
f 353/353/353 360/360/360 361/361/361
f 332/332/332 360/360/360 331/331/331
f 362/362/362 360/360/360 332/332/332
f 362/362/362 332/332/332 316/316/316
f 348/348/348 358/358/358 363/363/363
f 348/348/348 363/363/363 346/346/346
f 346/346/346 363/363/363 364/364/364
f 364/364/364 363/363/363 358/358/358
f 364/364/364 231/231/231 346/346/346
f 365/365/365 364/364/364 358/358/358
f 231/231/231 364/364/364 365/365/365
f 365/365/365 358/358/358 359/359/359
f 366/366/366 365/365/365 359/359/359
f 237/237/237 231/231/231 365/365/365
f 365/365/365 366/366/366 237/237/237
f 362/362/362 367/367/367 360/360/360
f 367/367/367 361/361/361 360/360/360
f 362/362/362 316/316/316 368/368/368
f 316/316/316 320/320/320 368/368/368
f 319/319/319 368/368/368 320/320/320
f 366/366/366 359/359/359 369/369/369
f 369/369/369 359/359/359 357/357/357
f 369/369/369 357/357/357 370/370/370
f 369/369/369 370/370/370 366/366/366
f 371/371/371 237/237/237 366/366/366
f 205/205/205 237/237/237 371/371/371
f 205/205/205 371/371/371 1/1/1
f 371/371/371 366/366/366 372/372/372
f 371/371/371 372/372/372 1/1/1
f 373/373/373 372/372/372 366/366/366
f 373/373/373 1/1/1 372/372/372
f 370/370/370 373/373/373 366/366/366
f 214/214/214 1/1/1 373/373/373
f 357/357/357 374/374/374 370/370/370
f 353/353/353 374/374/374 357/357/357
f 361/361/361 374/374/374 353/353/353
f 374/374/374 361/361/361 370/370/370
f 373/373/373 370/370/370 361/361/361
f 214/214/214 373/373/373 375/375/375
f 361/361/361 375/375/375 373/373/373
f 214/214/214 375/375/375 250/250/250
f 376/376/376 375/375/375 361/361/361
f 367/367/367 376/376/376 361/361/361
f 375/375/375 377/377/377 250/250/250
f 377/377/377 375/375/375 376/376/376
f 258/258/258 250/250/250 377/377/377
f 378/378/378 377/377/377 376/376/376
f 367/367/367 378/378/378 376/376/376
f 377/377/377 378/378/378 258/258/258
f 378/378/378 367/367/367 379/379/379
f 379/379/379 258/258/258 378/378/378
f 380/380/380 379/379/379 367/367/367
f 362/362/362 380/380/380 367/367/367
f 362/362/362 368/368/368 380/380/380
f 258/258/258 379/379/379 381/381/381
f 252/252/252 258/258/258 381/381/381
f 379/379/379 380/380/380 382/382/382
f 382/382/382 381/381/381 379/379/379
f 368/368/368 383/383/383 380/380/380
f 383/383/383 382/382/382 380/380/380
f 383/383/383 368/368/368 384/384/384
f 319/319/319 384/384/384 368/368/368
f 385/385/385 383/383/383 384/384/384
f 383/383/383 385/385/385 382/382/382
f 319/319/319 386/386/386 384/384/384
f 386/386/386 385/385/385 384/384/384
f 311/311/311 386/386/386 319/319/319
f 311/311/311 298/298/298 386/386/386
f 298/298/298 385/385/385 386/386/386
f 298/298/298 292/292/292 385/385/385
f 382/382/382 385/385/385 292/292/292
f 292/292/292 297/297/297 382/382/382
f 297/297/297 381/381/381 382/382/382
f 297/297/297 287/287/287 381/381/381
f 381/381/381 387/387/387 252/252/252
f 381/381/381 287/287/287 387/387/387
f 387/387/387 253/253/253 252/252/252
f 276/276/276 387/387/387 287/287/287
f 387/387/387 276/276/276 253/253/253
f 253/253/253 276/276/276 388/388/388
f 388/388/388 276/276/276 269/269/269
f 389/389/389 253/253/253 388/388/388
f 388/388/388 269/269/269 389/389/389
f 253/253/253 389/389/389 390/390/390
f 269/269/269 391/391/391 389/389/389
f 389/389/389 391/391/391 390/390/390
f 269/269/269 392/392/392 391/391/391
f 391/391/391 392/392/392 390/390/390
f 265/265/265 392/392/392 269/269/269
f 263/263/263 392/392/392 265/265/265
f 263/263/263 390/390/390 392/392/392
f 253/253/253 390/390/390 393/393/393
f 253/253/253 393/393/393 245/245/245
f 393/393/393 394/394/394 245/245/245
f 393/393/393 390/390/390 394/394/394
f 394/394/394 257/257/257 245/245/245
f 395/395/395 394/394/394 390/390/390
f 395/395/395 257/257/257 394/394/394
f 263/263/263 395/395/395 390/390/390
f 395/395/395 256/256/256 257/257/257
f 263/263/263 256/256/256 396/396/396
f 256/256/256 395/395/395 396/396/396
f 263/263/263 396/396/396 395/395/395

