mtllib material.mtl
usemtl material_0
v 0.00617709 -0.00485765 0.10375960
v -0.00001828 -0.00117659 0.10516380
v -0.00001828 -0.00109985 0.10375960
v 0.00617679 -0.00320105 0.10375960
v -0.00001828 -0.00102311 0.10516380
v -0.00001828 -0.00094637 0.10375960
v 0.00617709 -0.00154445 0.10375960
v -0.00001828 -0.00086963 0.10516380
v -0.00001828 -0.00079289 0.10375960
v 0.12757820 0.00598835 0.10683540
v 0.12690490 0.00672435 0.10630640
v 0.12690490 0.00672435 -0.10630640
v 0.12757820 0.00598835 -0.10683540
v 0.08582034 0.00598835 0.10683540
v 0.12690490 0.00672435 0.10630640
v 0.12757820 0.00598835 0.10683540
v 0.08548098 0.00672435 0.10630640
v 0.07167239 0.00672435 0.10630640
v 0.07190249 0.00598835 0.10683540
v 0.05786441 0.00672435 0.10630640
v 0.05798281 0.00598835 0.10683540
v 0.04406405 0.00598835 0.10683540
v 0.04405581 0.00672435 0.10630640
v 0.03369632 0.00672435 0.10630640
v 0.03360690 0.00598835 0.10683540
v 0.02333682 0.00672435 0.10630640
v 0.02314944 0.00598835 0.10683540
v 0.01297733 0.00672435 0.10630640
v 0.01269290 0.00598835 0.10683540
v 0.00779758 0.00672435 0.10630640
v 0.00746402 0.00598835 0.10683540
v 0.00223575 0.00598835 0.10683540
v 0.00261874 0.00672435 0.10630640
v 0.12680240 0.00287361 0.10683540
v 0.12610320 0.00378035 0.10630640
v 0.12610320 0.00378035 -0.10630640
v 0.12680240 0.00287361 -0.10683540
v 0.08512393 0.00287361 0.10683540
v 0.12610320 0.00378035 0.10630640
v 0.12680240 0.00287361 0.10683540
v 0.08470339 0.00378035 0.10630640
v 0.07090304 0.00378035 0.10630640
v 0.07123110 0.00287361 0.10683540
v 0.05710299 0.00378035 0.10630640
v 0.05733768 0.00287361 0.10683540
v 0.04344516 0.00287361 0.10683540
v 0.04330233 0.00378035 0.10630640
v 0.03278659 0.00378035 0.10630640
v 0.03280032 0.00287361 0.10683540
v 0.02227145 0.00378035 0.10630640
v 0.02215610 0.00287361 0.10683540
v 0.01175510 0.00378035 0.10630640
v 0.01151126 0.00287361 0.10683540
v 0.00649722 0.00378035 0.10630640
v 0.00618900 0.00287361 0.10683540
v 0.00086734 0.00287361 0.10683540
v 0.00123935 0.00378035 0.10630640
v 0.12661110 -0.00000024 0.10683540
v 0.12574130 0.00083635 0.10630640
v 0.12573090 0.00083635 -0.10630640
v 0.12661110 -0.00000024 -0.10683540
v 0.08489627 -0.00000024 0.10624790
v 0.12574130 0.00083635 0.10630640
v 0.12661110 -0.00000024 0.10683540
v 0.08434176 0.00083635 0.10630640
v 0.12664980 0.00157236 0.10683540
v 0.08497195 0.00157235 0.10683540
v 0.07107913 0.00151618 0.10683540
v 0.07054111 0.00083635 0.10630640
v 0.07099063 -0.00033135 0.10624790
v 0.05718631 0.00156460 0.10683540
v 0.05674136 0.00083635 0.10630640
v 0.05708591 -0.00027617 0.10624790
v 0.04318118 -0.00000024 0.10624790
v 0.04294192 0.00083635 0.10630640
v 0.04329409 0.00157235 0.10683540
v 0.03257480 0.00157235 0.10683540
v 0.03225742 0.00083635 0.10630640
v 0.03239871 -0.00000024 0.10624790
v 0.02185458 0.00157235 0.10683540
v 0.02157352 0.00083635 0.10630640
v 0.02161563 -0.00000024 0.10624790
v 0.01113620 0.00157235 0.10683540
v 0.01088931 0.00083635 0.10630640
v 0.01083255 -0.00000024 0.10624790
v 0.00577579 0.00157235 0.10683540
v 0.00554782 0.00083635 0.10630640
v 0.00544040 -0.00000024 0.10624790
v 0.00004916 -0.00000024 0.10624790
v 0.00020572 0.00083635 0.10630640
v 0.00041599 0.00157235 0.10683540
v 0.08592715 0.00819635 0.10630640
v 0.12823790 0.00893234 0.10683540
v 0.12724950 0.00819635 0.10630640
v 0.08669375 0.00893234 0.10683540
v 0.07284610 0.00893234 0.10683540
v 0.07215243 0.00819635 0.10630640
v 0.05899783 0.00893234 0.10683540
v 0.05837771 0.00819635 0.10630640
v 0.04460391 0.00819635 0.10630640
v 0.04514987 0.00893235 0.10683540
v 0.03476382 0.00893235 0.10683540
v 0.03427280 0.00819635 0.10630640
v 0.02437717 0.00893235 0.10683540
v 0.02394199 0.00819635 0.10630640
v 0.01399173 0.00893235 0.10683540
v 0.01361148 0.00819635 0.10630640
v 0.00879855 0.00893235 0.10683540
v 0.00844608 0.00819635 0.10630640
v 0.00328128 0.00819635 0.10630640
v 0.00360599 0.00893235 0.10683540
v 0.12724950 0.00819635 0.10630640
v 0.12823790 0.00893234 0.10683540
v 0.12823790 0.00893234 -0.10683540
v 0.12724950 0.00819635 -0.10630640
v 0.08629489 0.00746035 0.10683540
v 0.12796330 0.00746035 0.10683540
v 0.07240542 0.00746035 0.10683540
v 0.05851565 0.00746035 0.10683540
v 0.04462527 0.00746035 0.10683540
v 0.03420779 0.00746035 0.10683540
v 0.02379092 0.00746035 0.10683540
v 0.01337314 0.00746035 0.10683540
v 0.00816531 0.00746035 0.10683540
v 0.00295627 0.00746035 0.10683540
v 0.12796330 0.00746035 0.10683540
v 0.12796330 0.00746035 -0.10683540
v 0.12796330 0.00746035 0.10683540
v 0.08629489 0.00746035 0.10683540
v 0.07240542 0.00746035 0.10683540
v 0.05851565 0.00746035 0.10683540
v 0.04462527 0.00746035 0.10683540
v 0.03420779 0.00746035 0.10683540
v 0.02379092 0.00746035 0.10683540
v 0.01337314 0.00746035 0.10683540
v 0.00816531 0.00746035 0.10683540
v 0.00295627 0.00746035 0.10683540
v 0.12796330 0.00746035 0.10683540
v 0.12796330 0.00746035 -0.10683540
v 0.08501834 0.00508161 0.10630640
v 0.12757820 0.00598835 0.10683540
v 0.12644200 0.00508161 0.10630640
v 0.08582034 0.00598835 0.10683540
v 0.07190249 0.00598835 0.10683540
v 0.07121097 0.00508161 0.10630640
v 0.05798281 0.00598835 0.10683540
v 0.05740329 0.00508161 0.10630640
v 0.04359469 0.00508161 0.10630640
v 0.04406405 0.00598835 0.10683540
v 0.03360690 0.00598835 0.10683540
v 0.03315280 0.00508161 0.10630640
v 0.02314944 0.00598835 0.10683540
v 0.02271121 0.00508161 0.10630640
v 0.01269290 0.00598835 0.10683540
v 0.01226901 0.00508161 0.10630640
v 0.00746402 0.00598835 0.10683540
v 0.00704746 0.00508161 0.10630640
v 0.00182681 0.00508161 0.10630640
v 0.00223575 0.00598835 0.10683540
v 0.12644200 0.00508161 0.10630640
v 0.12757820 0.00598835 0.10683540
v 0.12757820 0.00598835 -0.10683540
v 0.12644200 0.00508161 -0.10630640
v 0.08545870 0.00451634 0.10683540
v 0.12716950 0.00451634 0.10683540
v 0.07155490 0.00451634 0.10683540
v 0.05765079 0.00451634 0.10683540
v 0.04374728 0.00451635 0.10683540
v 0.03320285 0.00451635 0.10683540
v 0.02265750 0.00451635 0.10683540
v 0.01211307 0.00451635 0.10683540
v 0.00683994 0.00451635 0.10683540
v 0.00156711 0.00451635 0.10683540
v 0.12716950 0.00451634 0.10683540
v 0.12716950 0.00451634 -0.10683540
v 0.12716950 0.00451634 0.10683540
v 0.08545870 0.00451634 0.10683540
v 0.07155490 0.00451634 0.10683540
v 0.05765079 0.00451634 0.10683540
v 0.04374728 0.00451635 0.10683540
v 0.03320285 0.00451635 0.10683540
v 0.02265750 0.00451635 0.10683540
v 0.01211307 0.00451635 0.10683540
v 0.00683994 0.00451635 0.10683540
v 0.00156711 0.00451635 0.10683540
v 0.12716950 0.00451634 0.10683540
v 0.12716950 0.00451634 -0.10683540
v 0.12583350 0.00230835 0.10630640
v 0.12680240 0.00287361 0.10683540
v 0.12680240 0.00287361 -0.10683540
v 0.12583350 0.00230835 -0.10630640
v 0.08497195 0.00157235 0.10683540
v 0.12583350 0.00230835 0.10630640
v 0.12664980 0.00157236 0.10683540
v 0.08445193 0.00230835 0.10630640
v 0.12680240 0.00287361 0.10683540
v 0.08512393 0.00287361 0.10683540
v 0.07123110 0.00287361 0.10683540
v 0.07065890 0.00230349 0.10630640
v 0.07107913 0.00151618 0.10683540
v 0.05733768 0.00287361 0.10683540
v 0.05686526 0.00230835 0.10630640
v 0.05718631 0.00156460 0.10683540
v 0.04329409 0.00157235 0.10683540
v 0.04307193 0.00230835 0.10630640
v 0.04344516 0.00287361 0.10683540
v 0.03280032 0.00287361 0.10683540
v 0.03246921 0.00230835 0.10630640
v 0.03257480 0.00157235 0.10683540
v 0.02215610 0.00287361 0.10683540
v 0.02186618 0.00230835 0.10630640
v 0.02185458 0.00157235 0.10683540
v 0.01151126 0.00287361 0.10683540
v 0.01126407 0.00230835 0.10630640
v 0.01113620 0.00157235 0.10683540
v 0.00618900 0.00287361 0.10683540
v 0.00596286 0.00230835 0.10630640
v 0.00577579 0.00157235 0.10683540
v 0.00041599 0.00157235 0.10683540
v 0.00066104 0.00230835 0.10630640
v 0.00086734 0.00287361 0.10683540
v 0.12664980 0.00157236 0.10683540
v 0.12664980 0.00157236 -0.10683540
v 0.12664980 0.00157236 0.10683540
v 0.12664980 0.00157236 -0.10683540
v 0.12483980 -0.00062026 -0.10516380
v 0.12498260 -0.00095730 -0.10375960
v 0.12498260 -0.00095730 0.10375960
v 0.12483980 -0.00062026 0.10516380
v 0.12483980 -0.00062026 0.10516380
v 0.12498260 -0.00095730 0.10375960
v 0.08460421 -0.00095729 0.10375960
v 0.08489627 -0.00062026 0.10516380
v 0.07088504 -0.00167339 0.10375960
v 0.07099063 -0.00062026 0.10516380
v 0.05716525 -0.00186471 0.10375960
v 0.05708591 -0.00062026 0.10516380
v 0.04344668 -0.00201451 0.10375960
v 0.04318118 -0.00062026 0.10516380
v 0.03280795 -0.00222279 0.10375960
v 0.03239780 -0.00062026 0.10516380
v 0.02216800 -0.00217375 0.10375960
v 0.02161563 -0.00062026 0.10516380
v 0.01152957 -0.00186788 0.10375960
v 0.01083255 -0.00062026 0.10516380
v 0.00540652 -0.00062026 0.10516380
v -0.00001828 -0.00062026 0.10516380
v 0.00544040 -0.00000024 0.10624790
v 0.00004916 -0.00000024 0.10624790
v 0.01083255 -0.00000024 0.10624790
v 0.02161563 -0.00000024 0.10624790
v 0.03239871 -0.00000024 0.10624790
v 0.04318118 -0.00000024 0.10624790
v 0.05708591 -0.00027617 0.10624790
v 0.07099063 -0.00033135 0.10624790
v 0.08489627 -0.00000024 0.10624790
v 0.08489627 -0.00062026 0.10516380
v 0.12661110 -0.00000024 0.10683540
v 0.12483980 -0.00062026 0.10516380
v 0.12661110 -0.00000024 -0.10683540
v 0.12483980 -0.00062026 -0.10516380
v 0.12483980 -0.00062026 0.10516380
v 0.12661110 -0.00000024 0.10683540
v 0.04344668 -0.00752831 0.10375960
v 0.04318118 -0.00883086 0.10516380
v 0.03239871 -0.00975596 0.10516380
v 0.03280795 -0.00824933 0.10375960
v 0.02161563 -0.00946170 0.10516380
v 0.02216800 -0.00800411 0.10375960
v 0.01083255 -0.00762650 0.10516380
v 0.01152957 -0.00647478 0.10375960
v 0.00540652 -0.00568595 0.10516380
v 0.05716525 -0.00583021 0.10375960
v 0.05708591 -0.00648896 0.10516380
v 0.07088504 -0.00332005 0.10375960
v 0.07099063 -0.00364681 0.10516380
v 0.08460421 -0.00192186 0.10375960
v 0.08489627 -0.00216300 0.10516380
v 0.12498260 -0.00192186 0.10375960
v 0.12582400 -0.00216300 0.10516380
v 0.12498260 -0.00192186 -0.10375960
v 0.12582400 -0.00216300 -0.10516380
v 0.12582400 -0.00216300 0.10516380
v 0.12498260 -0.00192186 0.10375960
v 0.07099063 -0.00295347 0.10516380
v 0.05708560 -0.00468109 0.10516380
v 0.04318118 -0.00616580 0.10516380
v 0.03239780 -0.00674269 0.10516380
v 0.02161563 -0.00654652 0.10516380
v 0.01083255 -0.00532305 0.10516380
v 0.00540652 -0.00402936 0.10516380
v -0.00001828 -0.00102311 0.10516380
v 0.08489627 -0.00168072 0.10516380
v 0.12582400 -0.00168072 0.10516380
v 0.12582400 -0.00168072 -0.10516380
v 0.12582400 -0.00168072 0.10516380
v 0.07088504 -0.00255165 0.10375960
v 0.07099063 -0.00295347 0.10516380
v 0.05708560 -0.00468109 0.10516380
v 0.05716525 -0.00379956 0.10375960
v 0.04318118 -0.00616580 0.10516380
v 0.04344668 -0.00476924 0.10375960
v 0.03239780 -0.00674269 0.10516380
v 0.03280795 -0.00523606 0.10375960
v 0.02161563 -0.00654652 0.10516380
v 0.02216800 -0.00508893 0.10375960
v 0.01083255 -0.00532305 0.10516380
v 0.01152957 -0.00417133 0.10375960
v 0.00540652 -0.00402936 0.10516380
v 0.08460421 -0.00143958 0.10375960
v 0.08489627 -0.00168072 0.10516380
v 0.12498260 -0.00143958 0.10375960
v 0.12582400 -0.00168072 0.10516380
v 0.12498260 -0.00143958 -0.10375960
v 0.12582400 -0.00168072 -0.10516380
v 0.12582400 -0.00168072 0.10516380
v 0.12498260 -0.00143958 0.10375960
v 0.07099063 -0.00212184 0.10516380
v 0.05708591 -0.00284580 0.10516380
v 0.04318118 -0.00337384 0.10516380
v 0.03239871 -0.00372942 0.10516380
v 0.02161563 -0.00363134 0.10516380
v 0.01083255 -0.00301960 0.10516380
v 0.00540652 -0.00237275 0.10516380
v -0.00001828 -0.00086963 0.10516380
v 0.08489657 -0.00119844 0.10516380
v 0.12582400 -0.00119844 0.10516380
v 0.12582400 -0.00119844 -0.10516380
v 0.12582400 -0.00119844 0.10516380
v 0.12582400 -0.00119844 0.10516380
v 0.08489657 -0.00119844 0.10516380
v 0.07099063 -0.00212184 0.10516380
v 0.05708591 -0.00284580 0.10516380
v 0.04318118 -0.00337384 0.10516380
v 0.03239871 -0.00372942 0.10516380
v 0.02161563 -0.00363134 0.10516380
v 0.01083255 -0.00301960 0.10516380
v 0.00540652 -0.00237275 0.10516380
v 0.12582400 -0.00119844 -0.10516380
v 0.12582400 -0.00119844 0.10516380
v 0.08582034 0.00598835 -0.10683540
v 0.12757820 0.00598835 -0.10683540
v 0.12690490 0.00672435 -0.10630640
v 0.08548098 0.00672435 -0.10630640
v 0.07167239 0.00672435 -0.10630640
v 0.07190249 0.00598835 -0.10683540
v 0.05786441 0.00672435 -0.10630640
v 0.05798281 0.00598835 -0.10683540
v 0.04406405 0.00598835 -0.10683540
v 0.04405581 0.00672435 -0.10630640
v 0.03369632 0.00672435 -0.10630640
v 0.03360690 0.00598835 -0.10683540
v 0.02333682 0.00672435 -0.10630640
v 0.02314944 0.00598835 -0.10683540
v 0.01297733 0.00672435 -0.10630640
v 0.01269290 0.00598835 -0.10683540
v 0.00779758 0.00672435 -0.10630640
v 0.00746402 0.00598835 -0.10683540
v 0.00223575 0.00598835 -0.10683540
v 0.00261874 0.00672435 -0.10630640
v 0.08512393 0.00287361 -0.10683540
v 0.12680240 0.00287361 -0.10683540
v 0.12610320 0.00378035 -0.10630640
v 0.08470339 0.00378035 -0.10630640
v 0.07090304 0.00378035 -0.10630640
v 0.07123110 0.00287361 -0.10683540
v 0.05710299 0.00378035 -0.10630640
v 0.05733768 0.00287361 -0.10683540
v 0.04344516 0.00287361 -0.10683540
v 0.04330233 0.00378035 -0.10630640
v 0.03278659 0.00378035 -0.10630640
v 0.03280032 0.00287361 -0.10683540
v 0.02227145 0.00378035 -0.10630640
v 0.02215610 0.00287361 -0.10683540
v 0.01175510 0.00378035 -0.10630640
v 0.01151126 0.00287361 -0.10683540
v 0.00649722 0.00378035 -0.10630640
v 0.00618900 0.00287361 -0.10683540
v 0.00086734 0.00287361 -0.10683540
v 0.00123935 0.00378035 -0.10630640
v 0.08489627 -0.00000024 -0.10624790
v 0.12661110 -0.00000024 -0.10683540
v 0.12573090 0.00083635 -0.10630640
v 0.08434176 0.00083635 -0.10630640
v 0.12664980 0.00157236 -0.10683540
v 0.08497195 0.00157235 -0.10683540
v 0.07107913 0.00151618 -0.10683540
v 0.07054111 0.00083635 -0.10630640
v 0.07099063 -0.00033135 -0.10624790
v 0.05718631 0.00156460 -0.10683540
v 0.05674136 0.00083635 -0.10630640
v 0.05708591 -0.00027617 -0.10624790
v 0.04318118 -0.00000024 -0.10624790
v 0.04294192 0.00083635 -0.10630640
v 0.04329409 0.00157235 -0.10683540
v 0.03257480 0.00157235 -0.10683540
v 0.03225742 0.00083635 -0.10630640
v 0.03239871 -0.00000024 -0.10624790
v 0.02185458 0.00157235 -0.10683540
v 0.02157352 0.00083635 -0.10630640
v 0.02161563 -0.00000024 -0.10624790
v 0.01113620 0.00157235 -0.10683540
v 0.01088931 0.00083635 -0.10630640
v 0.01083255 -0.00000024 -0.10624790
v 0.00577579 0.00157235 -0.10683540
v 0.00554782 0.00083635 -0.10630640
v 0.00544040 -0.00000024 -0.10624790
v 0.00004916 -0.00000024 -0.10624790
v 0.00020572 0.00083635 -0.10630640
v 0.00041599 0.00157235 -0.10683540
v 0.08592715 0.00819635 -0.10630640
v 0.12724950 0.00819635 -0.10630640
v 0.12823790 0.00893234 -0.10683540
v 0.08669375 0.00893234 -0.10683540
v 0.07284610 0.00893234 -0.10683540
v 0.07215243 0.00819635 -0.10630640
v 0.05899783 0.00893234 -0.10683540
v 0.05837771 0.00819635 -0.10630640
v 0.04460391 0.00819635 -0.10630640
v 0.04514987 0.00893235 -0.10683540
v 0.03476382 0.00893235 -0.10683540
v 0.03427280 0.00819635 -0.10630640
v 0.02437717 0.00893235 -0.10683540
v 0.02394199 0.00819635 -0.10630640
v 0.01399173 0.00893235 -0.10683540
v 0.01361148 0.00819635 -0.10630640
v 0.00879855 0.00893235 -0.10683540
v 0.00844608 0.00819635 -0.10630640
v 0.00328128 0.00819635 -0.10630640
v 0.00360599 0.00893235 -0.10683540
v 0.08629489 0.00746035 -0.10683540
v 0.12796330 0.00746035 -0.10683540
v 0.07240542 0.00746035 -0.10683540
v 0.05851565 0.00746035 -0.10683540
v 0.04462527 0.00746035 -0.10683540
v 0.03420779 0.00746035 -0.10683540
v 0.02379092 0.00746035 -0.10683540
v 0.01337314 0.00746035 -0.10683540
v 0.00816531 0.00746035 -0.10683540
v 0.00295627 0.00746035 -0.10683540
v 0.12796330 0.00746035 -0.10683540
v 0.08629489 0.00746035 -0.10683540
v 0.07240542 0.00746035 -0.10683540
v 0.05851565 0.00746035 -0.10683540
v 0.04462527 0.00746035 -0.10683540
v 0.03420779 0.00746035 -0.10683540
v 0.02379092 0.00746035 -0.10683540
v 0.01337314 0.00746035 -0.10683540
v 0.00816531 0.00746035 -0.10683540
v 0.00295627 0.00746035 -0.10683540
v 0.08501834 0.00508161 -0.10630640
v 0.12644200 0.00508161 -0.10630640
v 0.12757820 0.00598835 -0.10683540
v 0.08582034 0.00598835 -0.10683540
v 0.07190249 0.00598835 -0.10683540
v 0.07121097 0.00508161 -0.10630640
v 0.05798281 0.00598835 -0.10683540
v 0.05740329 0.00508161 -0.10630640
v 0.04359469 0.00508161 -0.10630640
v 0.04406405 0.00598835 -0.10683540
v 0.03360690 0.00598835 -0.10683540
v 0.03315280 0.00508161 -0.10630640
v 0.02314944 0.00598835 -0.10683540
v 0.02271121 0.00508161 -0.10630640
v 0.01269290 0.00598835 -0.10683540
v 0.01226901 0.00508161 -0.10630640
v 0.00746402 0.00598835 -0.10683540
v 0.00704746 0.00508161 -0.10630640
v 0.00182681 0.00508161 -0.10630640
v 0.00223575 0.00598835 -0.10683540
v 0.08545870 0.00451634 -0.10683540
v 0.12716950 0.00451634 -0.10683540
v 0.07155490 0.00451634 -0.10683540
v 0.05765079 0.00451634 -0.10683540
v 0.04374728 0.00451635 -0.10683540
v 0.03320285 0.00451635 -0.10683540
v 0.02265750 0.00451635 -0.10683540
v 0.01211307 0.00451635 -0.10683540
v 0.00683994 0.00451635 -0.10683540
v 0.00156711 0.00451635 -0.10683540
v 0.12716950 0.00451634 -0.10683540
v 0.08545870 0.00451634 -0.10683540
v 0.07155490 0.00451634 -0.10683540
v 0.05765079 0.00451634 -0.10683540
v 0.04374728 0.00451635 -0.10683540
v 0.03320285 0.00451635 -0.10683540
v 0.02265750 0.00451635 -0.10683540
v 0.01211307 0.00451635 -0.10683540
v 0.00683994 0.00451635 -0.10683540
v 0.00156711 0.00451635 -0.10683540
v 0.08445193 0.00230835 -0.10630640
v 0.12583350 0.00230835 -0.10630640
v 0.12680240 0.00287361 -0.10683540
v 0.08512393 0.00287361 -0.10683540
v 0.07123110 0.00287361 -0.10683540
v 0.07065890 0.00230349 -0.10630640
v 0.05733768 0.00287361 -0.10683540
v 0.05686526 0.00230835 -0.10630640
v 0.04307193 0.00230835 -0.10630640
v 0.04344516 0.00287361 -0.10683540
v 0.03280032 0.00287361 -0.10683540
v 0.03246921 0.00230835 -0.10630640
v 0.02215610 0.00287361 -0.10683540
v 0.02186618 0.00230835 -0.10630640
v 0.01151126 0.00287361 -0.10683540
v 0.01126407 0.00230835 -0.10630640
v 0.00618900 0.00287361 -0.10683540
v 0.00596286 0.00230835 -0.10630640
v 0.00066104 0.00230835 -0.10630640
v 0.00086734 0.00287361 -0.10683540
v 0.08497195 0.00157235 -0.10683540
v 0.12664980 0.00157236 -0.10683540
v 0.07107913 0.00151618 -0.10683540
v 0.05718631 0.00156460 -0.10683540
v 0.04329409 0.00157235 -0.10683540
v 0.03257480 0.00157235 -0.10683540
v 0.02185458 0.00157235 -0.10683540
v 0.01113620 0.00157235 -0.10683540
v 0.00577579 0.00157235 -0.10683540
v 0.00041599 0.00157235 -0.10683540
v 0.12483980 -0.00062026 -0.10516380
v 0.08460421 -0.00095729 -0.10375960
v 0.12498260 -0.00095730 -0.10375960
v 0.08489627 -0.00062026 -0.10516380
v 0.07088504 -0.00167339 -0.10375960
v 0.07099063 -0.00062026 -0.10516380
v 0.05716525 -0.00186471 -0.10375960
v 0.05708591 -0.00062026 -0.10516380
v 0.04344668 -0.00201451 -0.10375960
v 0.04318118 -0.00062026 -0.10516380
v 0.03280795 -0.00222279 -0.10375960
v 0.03239780 -0.00062026 -0.10516380
v 0.02216800 -0.00217375 -0.10375960
v 0.02161563 -0.00062026 -0.10516380
v 0.01152957 -0.00186788 -0.10375960
v 0.01083255 -0.00062026 -0.10516380
v 0.00617709 -0.00154445 -0.10375960
v 0.00540652 -0.00062026 -0.10516380
v -0.00001828 -0.00079289 -0.10375960
v -0.00001828 -0.00062026 -0.10516380
v 0.00544040 -0.00000024 -0.10624790
v 0.00004916 -0.00000024 -0.10624790
v 0.01083255 -0.00000024 -0.10624790
v 0.02161563 -0.00000024 -0.10624790
v 0.03239871 -0.00000024 -0.10624790
v 0.04318118 -0.00000024 -0.10624790
v 0.05708591 -0.00027617 -0.10624790
v 0.07099063 -0.00033135 -0.10624790
v 0.08489627 -0.00000024 -0.10624790
v 0.08489627 -0.00062026 -0.10516380
v 0.12661110 -0.00000024 -0.10683540
v 0.12483980 -0.00062026 -0.10516380
v 0.12498260 -0.00192186 -0.10375960
v 0.08489627 -0.00216300 -0.10516380
v 0.12582400 -0.00216300 -0.10516380
v 0.08460421 -0.00192186 -0.10375960
v 0.07099063 -0.00364681 -0.10516380
v 0.07088504 -0.00332005 -0.10375960
v 0.05708591 -0.00648896 -0.10516380
v 0.05716525 -0.00583021 -0.10375960
v 0.04318118 -0.00883086 -0.10516380
v 0.04344668 -0.00752831 -0.10375960
v 0.03239871 -0.00975596 -0.10516380
v 0.03280795 -0.00824933 -0.10375960
v 0.02161563 -0.00946170 -0.10516380
v 0.02216800 -0.00800411 -0.10375960
v 0.01083255 -0.00762650 -0.10516380
v 0.01152957 -0.00647478 -0.10375960
v 0.00540652 -0.00568595 -0.10516380
v 0.00617709 -0.00485765 -0.10375960
v -0.00001828 -0.00117659 -0.10516380
v -0.00001828 -0.00109985 -0.10375960
v 0.12582400 -0.00168072 -0.10516380
v 0.08489627 -0.00168072 -0.10516380
v 0.07099063 -0.00295347 -0.10516380
v 0.05708560 -0.00468109 -0.10516380
v 0.04318118 -0.00616580 -0.10516380
v 0.03239780 -0.00674269 -0.10516380
v 0.02161563 -0.00654652 -0.10516380
v 0.01083255 -0.00532305 -0.10516380
v 0.00540652 -0.00402936 -0.10516380
v -0.00001828 -0.00102311 -0.10516380
v 0.12498260 -0.00143958 -0.10375960
v 0.08489627 -0.00168072 -0.10516380
v 0.12582400 -0.00168072 -0.10516380
v 0.08460421 -0.00143958 -0.10375960
v 0.07099063 -0.00295347 -0.10516380
v 0.07088504 -0.00255165 -0.10375960
v 0.05708560 -0.00468109 -0.10516380
v 0.05716525 -0.00379956 -0.10375960
v 0.04318118 -0.00616580 -0.10516380
v 0.04344668 -0.00476924 -0.10375960
v 0.03239780 -0.00674269 -0.10516380
v 0.03280795 -0.00523606 -0.10375960
v 0.02161563 -0.00654652 -0.10516380
v 0.02216800 -0.00508893 -0.10375960
v 0.01083255 -0.00532305 -0.10516380
v 0.01152957 -0.00417133 -0.10375960
v 0.00540652 -0.00402936 -0.10516380
v 0.00617679 -0.00320105 -0.10375960
v -0.00001828 -0.00102311 -0.10516380
v -0.00001828 -0.00094637 -0.10375960
v 0.12582400 -0.00119844 -0.10516380
v 0.08489657 -0.00119844 -0.10516380
v 0.07099063 -0.00212184 -0.10516380
v 0.05708591 -0.00284580 -0.10516380
v 0.04318118 -0.00337384 -0.10516380
v 0.03239871 -0.00372942 -0.10516380
v 0.02161563 -0.00363134 -0.10516380
v 0.01083255 -0.00301960 -0.10516380
v 0.00540652 -0.00237275 -0.10516380
v -0.00001828 -0.00086963 -0.10516380
v 0.07099063 -0.00212184 -0.10516380
v 0.05708591 -0.00284580 -0.10516380
v 0.04318118 -0.00337384 -0.10516380
v 0.03239871 -0.00372942 -0.10516380
v 0.02161563 -0.00363134 -0.10516380
v 0.01083255 -0.00301960 -0.10516380
v 0.00540652 -0.00237275 -0.10516380
v -0.00001828 -0.00086963 -0.10516380
v 0.08489657 -0.00119844 -0.10516380
v 0.12582400 -0.00119844 -0.10516380
vn 0.14545840 0.06971672 0.98690490
vn 0.53418360 0.75086180 0.38839990
vn 0.15529660 -0.05277862 0.98645690
vn 0.10388030 0.05069926 0.99329680
vn 0.38206270 0.84389580 0.37665360
vn 0.17450560 -0.03451960 0.98405090
vn 0.07373802 0.01838859 0.99710820
vn 0.17872070 0.92111950 0.34582920
vn 0.16808270 -0.01778922 0.98561240
vn 0.73791210 0.67489680 0.00000000
vn 0.97386430 -0.22713070 0.00000000
vn 0.97386430 -0.22713070 0.00000000
vn 0.73791210 0.67489680 0.00000000
vn 0.00000016 0.58362730 0.81202170
vn 0.00000000 -0.03430394 0.99941150
vn 0.00000017 0.58362790 0.81202110
vn 0.00000000 0.05190509 0.99865200
vn 0.00000000 0.00037586 1.00000000
vn -0.00000014 0.58362600 0.81202260
vn 0.00000000 0.00038138 1.00000000
vn -0.00000027 0.58362820 0.81202110
vn 0.00000021 0.58362810 0.81202110
vn 0.00000000 0.01901880 0.99981920
vn 0.00000000 0.00069190 0.99999980
vn 0.00000000 0.58363050 0.81201940
vn 0.00000000 0.00069042 0.99999980
vn 0.00000000 0.58362980 0.81201980
vn 0.00000029 0.05587296 0.99843790
vn -0.00000014 0.58362530 0.81202320
vn -0.00000019 0.00069586 0.99999980
vn -0.00000039 0.58362690 0.81202190
vn 0.00000000 0.58363050 0.81201930
vn 0.00000000 0.16899070 0.98561770
vn 0.79195890 0.61057460 0.00000000
vn 0.97848840 -0.20630160 0.00000000
vn 0.97848840 -0.20630160 0.00000000
vn 0.79195890 0.61057460 0.00000000
vn 0.00000000 0.50391390 0.86375390
vn 0.00000000 -0.03941574 0.99922290
vn 0.00000000 0.50391350 0.86375420
vn 0.00000000 0.03839200 0.99926280
vn 0.00000000 -0.00012668 1.00000000
vn 0.00000000 0.50391330 0.86375430
vn 0.00000016 -0.00012588 1.00000000
vn 0.00000019 0.50391200 0.86375500
vn 0.00000026 0.50391820 0.86375140
vn 0.00000015 0.00985948 0.99995140
vn 0.00000000 0.00151435 0.99999890
vn 0.00000000 0.50391440 0.86375370
vn 0.00000000 0.00151085 0.99999890
vn 0.00000000 0.50391160 0.86375530
vn 0.00000000 0.04307455 0.99907180
vn 0.00000000 0.50391300 0.86375440
vn 0.00000000 0.00152656 0.99999880
vn 0.00000000 0.50391860 0.86375120
vn 0.00000000 0.50392410 0.86374800
vn 0.00000000 0.13825910 0.99039600
vn 0.69098640 0.72286780 -0.00001798
vn 0.99961480 -0.02775043 -0.00002600
vn 0.99961750 -0.02765908 -0.00002600
vn 0.69098640 0.72286780 -0.00001798
vn -0.00569809 0.21704400 0.97614510
vn -0.00364142 -0.19313630 0.98116520
vn -0.00681467 0.26532120 0.96413600
vn -0.00159235 -0.24756130 0.96887090
vn 0.00000000 -0.58362390 0.81202420
vn 0.00015215 -0.58558960 0.81060760
vn 0.00048563 -0.59955530 0.80033310
vn -0.00004467 -0.31105940 0.95039050
vn 0.00036305 -0.05516186 0.99847740
vn -0.00073074 -0.59499220 0.80373110
vn -0.00043968 -0.31623220 0.94868170
vn -0.00028179 -0.05446733 0.99851550
vn -0.00040992 -0.06313755 0.99800470
vn -0.00019782 -0.33686260 0.94155380
vn -0.00011080 -0.58496390 0.81105940
vn -0.00000039 -0.58362960 0.81201990
vn -0.00000020 -0.34956050 0.93691380
vn -0.00000014 -0.06974292 0.99756500
vn 0.00000026 -0.58362500 0.81202330
vn 0.00000028 -0.34955210 0.93691690
vn 0.00000013 -0.06974257 0.99756500
vn 0.00000014 -0.58361950 0.81202730
vn 0.00000000 -0.33991640 0.94045570
vn 0.00000000 -0.06974172 0.99756500
vn -0.00000075 -0.58363540 0.81201570
vn 0.00000000 -0.34956610 0.93691170
vn 0.00000059 -0.06974150 0.99756500
vn 0.00000140 -0.06974204 0.99756500
vn 0.00000080 -0.31377380 0.94949780
vn 0.00000000 -0.58364250 0.81201070
vn 0.00000000 0.04434066 0.99901650
vn 0.00000000 -0.58363140 0.81201870
vn 0.00000000 -0.02448998 0.99970010
vn 0.00000000 -0.58363170 0.81201860
vn 0.00000000 -0.58363160 0.81201860
vn 0.00000000 0.00054221 0.99999990
vn -0.00000016 -0.58362950 0.81202010
vn -0.00000021 0.00053977 0.99999990
vn -0.00000012 0.01794247 0.99983910
vn -0.00000037 -0.58362840 0.81202090
vn 0.00000000 -0.58362050 0.81202660
vn 0.00000000 0.00053872 0.99999990
vn 0.00000014 -0.58363060 0.81201930
vn 0.00000016 0.00053459 0.99999990
vn 0.00000031 -0.58363220 0.81201820
vn 0.00000012 0.05108989 0.99869410
vn -0.00000051 -0.58363190 0.81201840
vn -0.00000051 0.00054440 0.99999990
vn -0.00000064 0.15595130 0.98776480
vn -0.00000134 -0.58361490 0.81203050
vn 0.98644330 -0.16410240 0.00000000
vn 0.59714110 -0.80213620 0.00000000
vn 0.59714110 -0.80213620 0.00000000
vn 0.98644330 -0.16410240 0.00000000
vn 0.00000000 0.58362850 0.81202080
vn 0.00000000 0.58362690 0.81202200
vn 0.00000000 0.58363110 0.81201890
vn 0.00000000 0.58362500 0.81202330
vn 0.00000000 0.58363080 0.81201910
vn 0.00000000 0.58362620 0.81202250
vn 0.00000000 0.58362500 0.81202330
vn 0.00000000 0.58363130 0.81201880
vn 0.00000000 0.58363250 0.81201790
vn 0.00000000 0.58363290 0.81201760
vn 0.71781880 0.69622990 0.00000000
vn 0.71781880 0.69622990 0.00000000
vn -0.00000017 -0.58362790 0.81202120
vn -0.00000015 -0.58362820 0.81202110
vn 0.00000000 -0.58363030 0.81201950
vn 0.00000021 -0.58362690 0.81202190
vn -0.00000011 -0.58362660 0.81202210
vn -0.00000027 -0.58363180 0.81201840
vn 0.00000000 -0.58362790 0.81202110
vn 0.00000018 -0.58363100 0.81201890
vn 0.00000050 -0.58362660 0.81202210
vn 0.00000000 -0.58361360 0.81203140
vn 0.57074580 -0.82112680 0.00000000
vn 0.57074580 -0.82112680 0.00000000
vn 0.00000000 0.01897334 0.99982010
vn 0.00000000 -0.50391180 0.86375510
vn -0.00000010 -0.01086333 0.99994100
vn 0.00000000 -0.50391260 0.86375470
vn 0.00000000 -0.50391590 0.86375280
vn 0.00000015 -0.00019761 1.00000000
vn 0.00000017 -0.50391300 0.86375440
vn 0.00000000 -0.00020355 1.00000000
vn 0.00000000 0.00810477 0.99996720
vn 0.00000000 -0.50391330 0.86375420
vn 0.00000000 -0.50391270 0.86375460
vn 0.00000000 0.00151041 0.99999890
vn 0.00000000 -0.50391200 0.86375500
vn 0.00000000 0.00150308 0.99999890
vn 0.00000000 -0.50391290 0.86375450
vn 0.00000000 0.04747327 0.99887250
vn 0.00000000 -0.50390740 0.86375760
vn 0.00000000 0.00151622 0.99999890
vn 0.00000000 0.16928520 0.98556710
vn 0.00000000 -0.50393100 0.86374400
vn 0.97551970 -0.21991220 0.00000000
vn 0.62377520 -0.78160390 0.00000000
vn 0.62377520 -0.78160390 0.00000000
vn 0.97551970 -0.21991220 0.00000000
vn -0.00000019 0.68328950 0.73014750
vn -0.00000020 0.68328950 0.73014760
vn 0.00000000 0.68329000 0.73014700
vn 0.00000000 0.68328810 0.73014890
vn 0.00000000 0.68328940 0.73014770
vn 0.00000000 0.68329310 0.73014410
vn 0.00000000 0.68328760 0.73014930
vn 0.00000000 0.68329220 0.73014500
vn 0.00000000 0.68329450 0.73014280
vn 0.00000000 0.68328930 0.73014770
vn 0.61344860 0.78973450 0.00000000
vn 0.61344860 0.78973450 0.00000000
vn 0.00000000 -0.58363060 0.81201930
vn 0.00000000 -0.58363060 0.81201920
vn 0.00000000 -0.58362970 0.81201990
vn 0.00000000 -0.58362710 0.81202180
vn 0.00000000 -0.58362880 0.81202060
vn 0.00000000 -0.58362870 0.81202080
vn 0.00000000 -0.58363350 0.81201720
vn 0.00000000 -0.58362980 0.81201980
vn 0.00000000 -0.58362160 0.81202580
vn 0.00000000 -0.58361690 0.81202920
vn 0.56818540 -0.82290050 0.00000000
vn 0.56818540 -0.82290050 0.00000000
vn 0.99347820 -0.11402250 0.00000000
vn 0.50370810 -0.86387390 0.00000000
vn 0.50370810 -0.86387390 0.00000000
vn 0.99347820 -0.11402250 0.00000000
vn -0.00018441 0.58163070 0.81345290
vn 0.00000000 -0.02801012 0.99960760
vn 0.00000000 0.58363230 0.81201800
vn -0.00033399 0.03076446 0.99952660
vn 0.00000000 -0.68328680 0.73015020
vn 0.00001330 -0.68312150 0.73030470
vn 0.00004827 -0.68175880 0.73157710
vn 0.00013395 0.00013452 1.00000000
vn -0.00039249 0.56952530 0.82197370
vn -0.00008069 -0.68219030 0.73117460
vn 0.00034900 -0.00007194 1.00000000
vn 0.00073458 0.57380840 0.81898920
vn 0.00010427 0.58236260 0.81292920
vn 0.00005602 0.00802533 0.99996780
vn 0.00000000 -0.68329120 0.73014600
vn 0.00000000 -0.68329260 0.73014470
vn 0.00000000 0.00143552 0.99999900
vn 0.00000000 0.58362890 0.81202050
vn -0.00000021 -0.68328610 0.73015070
vn -0.00000025 0.00143466 0.99999900
vn 0.00000000 0.58363090 0.81201910
vn -0.00000013 -0.68329270 0.73014460
vn 0.00000000 0.04067407 0.99917240
vn -0.00000010 0.58363580 0.81201560
vn 0.00000000 -0.68329350 0.73014380
vn 0.00000012 0.00142959 0.99999900
vn 0.00000074 0.58362190 0.81202550
vn 0.00000130 0.58360370 0.81203860
vn 0.00000029 0.13263430 0.99116500
vn -0.00000153 -0.68328680 0.73015000
vn 0.66955320 0.74276410 0.00000000
vn 0.66955320 0.74276410 0.00000000
vn 0.62734990 -0.77873750 -0.00001632
vn 0.62734990 -0.77873740 -0.00001632
vn 0.92067620 0.39032720 0.00000000
vn 0.52478090 0.85123740 0.00000000
vn 0.52478090 0.85123740 0.00000000
vn 0.92067620 0.39032720 0.00000000
vn 0.00000000 -0.97238210 0.23339440
vn 0.00000012 0.67512610 0.73770230
vn -0.01967121 0.00757226 0.99977790
vn 0.00523442 -0.95966740 0.28108940
vn -0.02873286 0.01051402 0.99953190
vn 0.01030429 -0.88704250 0.46157300
vn -0.01479112 0.00077201 0.99989030
vn 0.00071831 -0.83588800 0.54889960
vn -0.00953732 -0.00104788 0.99995400
vn 0.00136433 -0.78800680 0.61566510
vn -0.00353346 0.00537237 0.99997940
vn 0.00127050 -0.75491410 0.65582240
vn 0.00714877 0.00539968 0.99995990
vn -0.00399592 -0.76616450 0.64263210
vn 0.01992149 0.00163601 0.99980030
vn -0.00927438 -0.80245870 0.59663560
vn -0.02672462 -0.88179640 0.47087270
vn -0.03473939 -0.90987570 0.41342400
vn 0.00000047 -0.86806760 0.49644600
vn 0.00000000 -0.86806920 0.49644330
vn 0.00000000 -0.86806430 0.49645170
vn -0.00000023 -0.86806640 0.49644820
vn 0.00000000 -0.86806580 0.49644910
vn -0.00498359 -0.89426290 0.44751440
vn -0.00559423 -0.93831330 0.34574120
vn 0.00468482 -0.94216900 0.33510530
vn -0.00006925 -0.91356030 0.40670330
vn -0.00003398 -0.91358870 0.40663950
vn -0.00296365 -0.91120870 0.41193430
vn -0.00296365 -0.91120870 0.41193430
vn 0.33029330 -0.94387830 0.00000000
vn 0.33029330 -0.94387830 0.00000000
vn 0.33029330 -0.94387830 0.00000000
vn 0.33029330 -0.94387830 0.00000000
vn -0.01789453 0.01977463 0.99964430
vn -0.08488061 0.76525510 0.63810640
vn -0.01295222 0.69693120 0.71702090
vn -0.00439725 0.02051213 0.99978000
vn 0.06930552 0.69580580 0.71487830
vn 0.01170874 0.02713571 0.99956320
vn 0.16127640 0.71516180 0.68009820
vn 0.02690739 0.00095842 0.99963750
vn 0.41282640 0.75555940 0.50862970
vn -0.03325962 0.01565906 0.99932410
vn -0.14687420 0.87397680 0.46324130
vn -0.03220435 -0.01791738 0.99932060
vn -0.14095180 0.95254070 0.26981270
vn -0.00474121 -0.01612948 0.99985860
vn -0.02156513 0.98374090 0.17829430
vn 0.00000000 -0.00000031 1.00000000
vn 0.00000000 0.98557260 0.16925290
vn 1.00000000 -0.00000058 0.00000000
vn 0.27524100 0.96137530 0.00000000
vn 0.27524100 0.96137530 0.00000000
vn 1.00000000 -0.00000058 0.00000000
vn 0.11519540 -0.93467650 0.33631830
vn 0.10863980 -0.80674310 0.58082960
vn 0.06456052 -0.71722580 0.69384370
vn 0.01061078 -0.69202600 0.72179450
vn -0.06179465 -0.72617430 0.68472790
vn -0.15710430 -0.79986290 0.57925620
vn -0.42532760 -0.87080590 0.24656370
vn -0.49815990 -0.85583130 0.13924650
vn 0.01961240 -0.98431660 0.17531760
vn 0.00000000 -0.98557320 0.16924970
vn 0.27523370 -0.96137740 0.00000000
vn 0.27523370 -0.96137740 0.00000000
vn -0.03428054 -0.00245942 0.99940920
vn -0.09101922 0.94091890 0.32617040
vn -0.08191376 0.83905250 0.53784850
vn -0.02842347 0.00543566 0.99958120
vn -0.05085995 0.73841010 0.67243120
vn -0.01480976 0.01009622 0.99983930
vn -0.00827668 0.69164620 0.72218910
vn -0.00221007 0.01287841 0.99991460
vn 0.04493961 0.70249160 0.71027180
vn 0.00884858 0.01642040 0.99982600
vn 0.10701440 0.73606560 0.66839770
vn 0.02284076 0.00108495 0.99973850
vn 0.29161760 0.82200370 0.48915140
vn -0.00912013 -0.01221040 0.99988390
vn -0.01780147 0.98292990 0.18311670
vn 0.00000000 0.00000977 1.00000000
vn 0.00000000 0.98557280 0.16925230
vn 1.00000000 0.00000019 0.00000000
vn 0.27523920 0.96137570 0.00000000
vn 0.27523920 0.96137570 0.00000000
vn 1.00000000 0.00000019 0.00000000
vn 0.06830417 -0.94084410 0.33188390
vn 0.05200583 -0.82966360 0.55583610
vn 0.03410449 -0.72927830 0.68336660
vn 0.00726940 -0.69046210 0.72333190
vn -0.03380730 -0.72084520 0.69227120
vn -0.08509780 -0.78878580 0.60874880
vn -0.24485430 -0.91266190 0.32725320
vn -0.30036010 -0.92881130 0.21701030
vn 0.01496455 -0.98347650 0.18041600
vn 0.00000000 -0.98557290 0.16925180
vn 0.27523740 -0.96137630 0.00000000
vn 0.27523740 -0.96137630 0.00000000
vn 0.00000000 0.98557250 0.16925350
vn -0.01219918 0.98254310 0.18563490
vn -0.04364324 0.93473480 0.35265590
vn -0.02370525 0.82775710 0.56058570
vn -0.01869516 0.73581890 0.67692030
vn -0.00522969 0.69348300 0.72045400
vn 0.01961211 0.70893470 0.70500120
vn 0.04771909 0.75587950 0.65296940
vn 0.13673050 0.88043080 0.45403350
vn 0.27523920 0.96137570 0.00000000
vn 0.27523920 0.96137570 0.00000000
vn 0.00000000 0.58362690 -0.81202190
vn 0.00000010 0.58362760 -0.81202140
vn 0.00000000 -0.03430392 -0.99941150
vn 0.00000000 0.05190500 -0.99865200
vn 0.00000000 0.00037598 -1.00000000
vn -0.00000021 0.58362570 -0.81202280
vn 0.00000000 0.00038176 -1.00000000
vn -0.00000027 0.58362830 -0.81202090
vn 0.00000028 0.58362820 -0.81202100
vn 0.00000000 0.01901906 -0.99981920
vn -0.00000011 0.00069172 -0.99999980
vn 0.00000000 0.58363020 -0.81201950
vn 0.00000000 0.00069049 -0.99999980
vn 0.00000000 0.58362980 -0.81201980
vn 0.00000046 0.05587326 -0.99843780
vn -0.00000018 0.58362530 -0.81202310
vn -0.00000019 0.00069564 -0.99999980
vn -0.00000052 0.58362660 -0.81202210
vn 0.00000000 0.58363030 -0.81201960
vn 0.00000000 0.16899020 -0.98561770
vn 0.00000000 0.50391410 -0.86375370
vn 0.00000000 0.50391360 -0.86375410
vn 0.00000000 -0.03941598 -0.99922290
vn 0.00000000 0.03839198 -0.99926280
vn 0.00000000 -0.00012659 -1.00000000
vn 0.00000000 0.50391350 -0.86375420
vn 0.00000000 -0.00012570 -1.00000000
vn 0.00000011 0.50391210 -0.86375490
vn 0.00000016 0.50391830 -0.86375140
vn 0.00000000 0.00985982 -0.99995140
vn 0.00000000 0.00151447 -0.99999890
vn 0.00000000 0.50391450 -0.86375360
vn 0.00000000 0.00151073 -0.99999890
vn 0.00000000 0.50391140 -0.86375530
vn 0.00000000 0.04307451 -0.99907180
vn 0.00000000 0.50391320 -0.86375430
vn 0.00000000 0.00152650 -0.99999880
vn 0.00000000 0.50391880 -0.86375110
vn 0.00000000 0.50392430 -0.86374790
vn 0.00000000 0.13825910 -0.99039600
vn -0.00569872 0.21700070 -0.97615480
vn -0.00681565 0.26527790 -0.96414800
vn -0.00364226 -0.19311930 -0.98116850
vn -0.00159234 -0.24757850 -0.96886650
vn 0.00000000 -0.58362250 -0.81202510
vn 0.00015211 -0.58558880 -0.81060830
vn 0.00048572 -0.59955530 -0.80033310
vn -0.00004455 -0.31105930 -0.95039050
vn 0.00036331 -0.05516186 -0.99847740
vn -0.00073079 -0.59499220 -0.80373110
vn -0.00043974 -0.31623220 -0.94868170
vn -0.00028179 -0.05446734 -0.99851550
vn -0.00040984 -0.06313756 -0.99800470
vn -0.00019780 -0.33686270 -0.94155380
vn -0.00011093 -0.58496410 -0.81105920
vn -0.00000039 -0.58363010 -0.81201960
vn -0.00000014 -0.34956070 -0.93691370
vn 0.00000000 -0.06974294 -0.99756500
vn 0.00000026 -0.58362510 -0.81202320
vn 0.00000021 -0.34955210 -0.93691690
vn 0.00000000 -0.06974256 -0.99756500
vn 0.00000014 -0.58361930 -0.81202730
vn 0.00000000 -0.33991640 -0.94045570
vn 0.00000000 -0.06974170 -0.99756500
vn -0.00000055 -0.58363570 -0.81201570
vn 0.00000010 -0.34956600 -0.93691170
vn 0.00000057 -0.06974152 -0.99756500
vn 0.00000106 -0.06974207 -0.99756500
vn 0.00000083 -0.31377370 -0.94949780
vn 0.00000048 -0.58364250 -0.81201080
vn 0.00000000 0.04434037 -0.99901650
vn 0.00000000 -0.02449031 -0.99970010
vn 0.00000000 -0.58363150 -0.81201860
vn 0.00000000 -0.58363180 -0.81201850
vn 0.00000000 -0.58363190 -0.81201840
vn 0.00000000 0.00054224 -0.99999990
vn -0.00000016 -0.58362980 -0.81201980
vn -0.00000021 0.00053963 -0.99999990
vn -0.00000012 0.01794248 -0.99983910
vn -0.00000037 -0.58362850 -0.81202080
vn 0.00000000 -0.58362050 -0.81202660
vn 0.00000000 0.00053862 -0.99999990
vn 0.00000024 -0.58363060 -0.81201930
vn 0.00000027 0.00053473 -0.99999990
vn 0.00000052 -0.58363190 -0.81201840
vn 0.00000021 0.05109013 -0.99869410
vn -0.00000051 -0.58363190 -0.81201830
vn -0.00000051 0.00054440 -0.99999990
vn -0.00000064 0.15595140 -0.98776480
vn -0.00000134 -0.58361480 -0.81203070
vn 0.00000000 0.58362820 -0.81202090
vn 0.00000000 0.58362660 -0.81202210
vn 0.00000000 0.58363120 -0.81201880
vn 0.00000000 0.58362500 -0.81202330
vn 0.00000000 0.58363080 -0.81201910
vn 0.00000000 0.58362610 -0.81202260
vn 0.00000000 0.58362500 -0.81202330
vn 0.00000000 0.58363130 -0.81201880
vn 0.00000000 0.58363270 -0.81201770
vn 0.00000000 0.58363330 -0.81201740
vn -0.00000012 -0.58362780 -0.81202120
vn -0.00000011 -0.58362820 -0.81202110
vn 0.00000014 -0.58363060 -0.81201930
vn 0.00000035 -0.58362690 -0.81202190
vn -0.00000018 -0.58362630 -0.81202250
vn -0.00000044 -0.58363170 -0.81201850
vn 0.00000000 -0.58362800 -0.81202110
vn 0.00000030 -0.58363090 -0.81201910
vn 0.00000083 -0.58362640 -0.81202230
vn 0.00000000 -0.58361390 -0.81203140
vn 0.00000000 0.01897303 -0.99982010
vn 0.00000000 -0.01086359 -0.99994100
vn 0.00000000 -0.50391190 -0.86375510
vn 0.00000000 -0.50391260 -0.86375470
vn 0.00000014 -0.50391590 -0.86375280
vn 0.00000021 -0.00019768 -1.00000000
vn 0.00000029 -0.50391300 -0.86375450
vn 0.00000018 -0.00020350 -1.00000000
vn 0.00000000 0.00810480 -0.99996720
vn 0.00000000 -0.50391350 -0.86375420
vn 0.00000000 -0.50391290 -0.86375450
vn 0.00000000 0.00151032 -0.99999890
vn 0.00000000 -0.50391220 -0.86375490
vn 0.00000000 0.00150317 -0.99999890
vn 0.00000000 -0.50391300 -0.86375450
vn 0.00000000 0.04747356 -0.99887250
vn 0.00000000 -0.50390740 -0.86375760
vn 0.00000000 0.00151638 -0.99999890
vn 0.00000000 0.16928530 -0.98556710
vn 0.00000000 -0.50393090 -0.86374400
vn -0.00000010 0.68328930 -0.73014780
vn -0.00000012 0.68328920 -0.73014780
vn 0.00000000 0.68328970 -0.73014740
vn 0.00000000 0.68328820 -0.73014870
vn 0.00000015 0.68328960 -0.73014750
vn 0.00000000 0.68329320 -0.73014400
vn 0.00000000 0.68328790 -0.73014910
vn 0.00000000 0.68329240 -0.73014480
vn 0.00000000 0.68329470 -0.73014280
vn 0.00000000 0.68328950 -0.73014750
vn 0.00000000 -0.58363060 -0.81201920
vn 0.00000000 -0.58363070 -0.81201910
vn 0.00000000 -0.58362970 -0.81201990
vn 0.00000000 -0.58362690 -0.81202190
vn 0.00000000 -0.58362870 -0.81202070
vn 0.00000000 -0.58362840 -0.81202080
vn 0.00000000 -0.58363340 -0.81201730
vn 0.00000000 -0.58362980 -0.81201980
vn 0.00000000 -0.58362170 -0.81202560
vn 0.00000000 -0.58361700 -0.81202910
vn -0.00033397 0.03076435 -0.99952660
vn 0.00000000 -0.02801056 -0.99960760
vn 0.00000000 -0.68328680 -0.73015020
vn 0.00001330 -0.68312150 -0.73030480
vn 0.00004827 -0.68175850 -0.73157730
vn 0.00013392 0.00013444 -1.00000000
vn -0.00008079 -0.68219020 -0.73117470
vn 0.00034877 -0.00007212 -1.00000000
vn 0.00005589 0.00802498 -0.99996780
vn -0.00000020 -0.68329120 -0.73014590
vn 0.00000000 -0.68329270 -0.73014460
vn 0.00000000 0.00143578 -0.99999900
vn -0.00000030 -0.68328580 -0.73015090
vn -0.00000028 0.00143491 -0.99999900
vn -0.00000019 -0.68329260 -0.73014460
vn 0.00000012 0.04067383 -0.99917240
vn 0.00000044 -0.68329340 -0.73014380
vn 0.00000037 0.00142953 -0.99999900
vn 0.00000048 0.13263430 -0.99116500
vn -0.00000114 -0.68328650 -0.73015030
vn -0.00018444 0.58163060 -0.81345310
vn 0.00000000 0.58363220 -0.81201820
vn -0.00039245 0.56952540 -0.82197360
vn 0.00073443 0.57380830 -0.81898930
vn 0.00010416 0.58236240 -0.81292940
vn 0.00000000 0.58362880 -0.81202050
vn 0.00000000 0.58363100 -0.81201890
vn 0.00000000 0.58363590 -0.81201550
vn 0.00000074 0.58362200 -0.81202550
vn 0.00000130 0.58360370 -0.81203850
vn 0.00000000 -0.97238220 -0.23339430
vn -0.01967108 0.00757270 -0.99977790
vn 0.00000010 0.67512640 -0.73770210
vn 0.00523445 -0.95966740 -0.28108940
vn -0.02873279 0.01051422 -0.99953190
vn 0.01030430 -0.88704230 -0.46157300
vn -0.01479134 0.00077201 -0.99989030
vn 0.00071832 -0.83588800 -0.54889960
vn -0.00953733 -0.00104800 -0.99995400
vn 0.00136433 -0.78800680 -0.61566510
vn -0.00353325 0.00537240 -0.99997940
vn 0.00127052 -0.75491410 -0.65582240
vn 0.00714866 0.00539967 -0.99995990
vn -0.00399588 -0.76616450 -0.64263210
vn 0.01992130 0.00163602 -0.99980030
vn -0.00927457 -0.80245870 -0.59663560
vn 0.07373753 0.01838865 -0.99710820
vn -0.02672486 -0.88179640 -0.47087260
vn 0.16808250 -0.01778898 -0.98561240
vn -0.03473940 -0.90987580 -0.41342380
vn 0.00000040 -0.86806770 -0.49644590
vn 0.00000022 -0.86806920 -0.49644300
vn 0.00000000 -0.86806430 -0.49645170
vn -0.00000014 -0.86806640 -0.49644820
vn 0.00000000 -0.86806580 -0.49644910
vn -0.00498359 -0.89426290 -0.44751440
vn -0.00559420 -0.93831330 -0.34574120
vn 0.00468475 -0.94216900 -0.33510530
vn -0.00006929 -0.91355990 -0.40670430
vn -0.00003403 -0.91358830 -0.40664030
vn -0.00296366 -0.91120820 -0.41193540
vn -0.00296366 -0.91120820 -0.41193540
vn 0.00000000 -0.00000031 -1.00000000
vn -0.02156512 0.98374090 -0.17829430
vn 0.00000000 0.98557260 -0.16925280
vn -0.00474160 -0.01612964 -0.99985860
vn -0.14095180 0.95254070 -0.26981260
vn -0.03220497 -0.01791753 -0.99932060
vn -0.14687400 0.87397680 -0.46324130
vn -0.03325963 0.01565906 -0.99932410
vn -0.08488017 0.76525520 -0.63810650
vn -0.01789452 0.01977467 -0.99964430
vn -0.01295193 0.69693120 -0.71702100
vn -0.00439724 0.02051215 -0.99978000
vn 0.06930555 0.69580580 -0.71487830
vn 0.01170890 0.02713573 -0.99956320
vn 0.16127640 0.71516190 -0.68009820
vn 0.02690721 0.00095842 -0.99963750
vn 0.41282640 0.75555950 -0.50862960
vn 0.14545760 0.06971715 -0.98690500
vn 0.53418360 0.75086180 -0.38839990
vn 0.15529620 -0.05277754 -0.98645720
vn 0.00000000 -0.98557310 -0.16924990
vn 0.01961230 -0.98431650 -0.17531760
vn 0.11519500 -0.93467650 -0.33631830
vn 0.10863970 -0.80674310 -0.58082960
vn 0.06456010 -0.71722590 -0.69384370
vn 0.01061056 -0.69202600 -0.72179460
vn -0.06179453 -0.72617440 -0.68472790
vn -0.15710490 -0.79986270 -0.57925610
vn -0.42532830 -0.87080540 -0.24656370
vn -0.49816040 -0.85583100 -0.13924650
vn 0.00000000 0.00000946 -1.00000000
vn -0.01780147 0.98292990 -0.18311670
vn 0.00000000 0.98557280 -0.16925240
vn -0.00912037 -0.01221055 -0.99988390
vn -0.09101938 0.94091900 -0.32617020
vn -0.03428088 -0.00245956 -0.99940920
vn -0.08191416 0.83905240 -0.53784860
vn -0.02842378 0.00543566 -0.99958120
vn -0.05086027 0.73841010 -0.67243120
vn -0.01481012 0.01009619 -0.99983930
vn -0.00827674 0.69164620 -0.72218910
vn -0.00221022 0.01287841 -0.99991460
vn 0.04493961 0.70249150 -0.71027180
vn 0.00884869 0.01642035 -0.99982600
vn 0.10701440 0.73606560 -0.66839770
vn 0.02284093 0.00108481 -0.99973850
vn 0.29161760 0.82200370 -0.48915140
vn 0.10388030 0.05069911 -0.99329680
vn 0.38206270 0.84389580 -0.37665380
vn 0.17450550 -0.03452005 -0.98405090
vn 0.00000000 -0.98557290 -0.16925180
vn 0.01496449 -0.98347650 -0.18041590
vn 0.06830408 -0.94084410 -0.33188380
vn 0.05200589 -0.82966360 -0.55583620
vn 0.03410435 -0.72927830 -0.68336670
vn 0.00726932 -0.69046210 -0.72333190
vn -0.03380710 -0.72084520 -0.69227110
vn -0.08509765 -0.78878600 -0.60874880
vn -0.24485430 -0.91266190 -0.32725300
vn -0.30036010 -0.92881130 -0.21701030
vn -0.04364324 0.93473480 -0.35265590
vn -0.02370556 0.82775700 -0.56058570
vn -0.01869507 0.73581890 -0.67692030
vn -0.00522950 0.69348300 -0.72045400
vn 0.01961196 0.70893480 -0.70500120
vn 0.04771899 0.75587950 -0.65296940
vn 0.13673050 0.88043080 -0.45403360
vn 0.17872070 0.92111950 -0.34582920
vn -0.01219917 0.98254310 -0.18563480
vn 0.00000000 0.98557250 -0.16925340
vt 1.09868400 0.09354100
vt 1.11851900 0.03759342
vt 1.13626900 0.03759342
vt 1.14677800 0.09354150
vt 1.15736700 0.03759342
vt 1.17824200 0.03759372
vt 1.19381600 0.09354150
vt 1.19880300 0.03759342
vt 1.20906800 0.03759342
vt 1.40491100 0.93351230
vt 1.42820300 0.93351190
vt 1.42820300 0.94166000
vt 1.40491100 0.94166000
vt 1.40491100 0.92305960
vt 1.42820300 0.93134360
vt 1.40491100 0.93134360
vt 1.42820300 0.91947290
vt 1.42820300 0.77396500
vt 1.40491100 0.77638350
vt 1.42820400 0.62845730
vt 1.40491100 0.62970730
vt 1.40491100 0.48303210
vt 1.42820400 0.48295010
vt 1.42820400 0.37378320
vt 1.40491100 0.37283660
vt 1.42820400 0.26461740
vt 1.40491100 0.26264110
vt 1.42820400 0.14948860
vt 1.40491100 0.14948880
vt 1.42820400 0.09354100
vt 1.40491100 0.09354100
vt 1.40491100 0.03759372
vt 1.42820400 0.03759316
vt 1.30633800 0.93351230
vt 1.33503400 0.93351230
vt 1.33503400 0.94166030
vt 1.30633800 0.94166030
vt 1.30633800 0.91571410
vt 1.33503400 0.93134360
vt 1.30633800 0.93134360
vt 1.33503400 0.91128180
vt 1.33503400 0.76585690
vt 1.30633800 0.76931350
vt 1.33503400 0.62043240
vt 1.30633800 0.62291280
vt 1.30633800 0.47651210
vt 1.33503400 0.47500760
vt 1.33503500 0.36419490
vt 1.30633800 0.36434200
vt 1.33503400 0.25338270
vt 1.30633800 0.25217190
vt 1.33503400 0.14948860
vt 1.30633800 0.14948880
vt 1.33503400 0.09354100
vt 1.30633800 0.09354150
vt 1.30633800 0.03759372
vt 1.33503400 0.03759342
vt 1.21959500 0.93351190
vt 1.24186500 0.93351190
vt 1.24186500 0.94166030
vt 1.21960600 0.94169820
vt 1.21959500 0.91331480
vt 1.24186400 0.93134360
vt 1.21959500 0.93134360
vt 1.24186500 0.90747180
vt 1.26515700 0.93134360
vt 1.26515700 0.91411200
vt 1.26337900 0.76771470
vt 1.24186500 0.76204930
vt 1.21959600 0.76678620
vt 1.26491100 0.62131730
vt 1.24186500 0.61662640
vt 1.21959600 0.62025800
vt 1.21959600 0.47372970
vt 1.24186500 0.47120400
vt 1.26515700 0.47491930
vt 1.26515700 0.36195910
vt 1.24186500 0.35861790
vt 1.21959600 0.36010030
vt 1.26515700 0.24899890
vt 1.24186500 0.24603200
vt 1.21959600 0.24647120
vt 1.26515700 0.14948860
vt 1.24186500 0.14948880
vt 1.21959600 0.14948880
vt 1.26515700 0.09354100
vt 1.24186500 0.09354150
vt 1.21959600 0.09354150
vt 1.21959600 0.03759342
vt 1.24186500 0.03759342
vt 1.26515700 0.03759342
vt 1.47478800 0.92417690
vt 1.49808000 0.93134410
vt 1.47478800 0.93134360
vt 1.49808000 0.92657210
vt 1.49808000 0.78633210
vt 1.47478800 0.77902530
vt 1.49808000 0.64040430
vt 1.47478800 0.63387390
vt 1.47478800 0.48872240
vt 1.49808100 0.49447500
vt 1.49808100 0.38502850
vt 1.47478800 0.37985910
vt 1.49808100 0.27558200
vt 1.47478800 0.27099530
vt 1.49808100 0.14948860
vt 1.47478800 0.14948860
vt 1.49808100 0.09354100
vt 1.47478800 0.09354100
vt 1.47478800 0.03759316
vt 1.49808100 0.03759372
vt 1.47478800 0.93351190
vt 1.49808100 0.93351140
vt 1.49808000 0.94166040
vt 1.47478800 0.94166000
vt 1.45149600 0.92805370
vt 1.45149600 0.93134320
vt 1.45149600 0.78168510
vt 1.45149600 0.63531790
vt 1.45149600 0.48895090
vt 1.45149600 0.37917430
vt 1.45149600 0.26939910
vt 1.45149600 0.14948830
vt 1.45149600 0.09354100
vt 1.45149600 0.03759372
vt 1.45149600 0.93351230
vt 1.45149600 0.94166000
vt 1.45149600 0.93134320
vt 1.45149600 0.92805370
vt 1.45149600 0.78168510
vt 1.45149600 0.63531790
vt 1.45149600 0.48895090
vt 1.45149600 0.37917430
vt 1.45149600 0.26939910
vt 1.45149600 0.14948830
vt 1.45149600 0.09354100
vt 1.45149600 0.03759372
vt 1.45149600 0.93351230
vt 1.45149600 0.94166000
vt 1.37621500 0.91460420
vt 1.40491100 0.93134360
vt 1.37621500 0.93134360
vt 1.40491100 0.92305960
vt 1.40491100 0.77638350
vt 1.37621600 0.76910070
vt 1.40491100 0.62970730
vt 1.37621600 0.62359670
vt 1.37621600 0.47809300
vt 1.40491100 0.48303210
vt 1.40491100 0.37283660
vt 1.37621600 0.36805500
vt 1.40491100 0.26264110
vt 1.37621600 0.25801690
vt 1.40491100 0.14948880
vt 1.37621600 0.14948860
vt 1.40491100 0.09354100
vt 1.37621600 0.09354100
vt 1.37621600 0.03759316
vt 1.40491100 0.03759372
vt 1.37621500 0.93351190
vt 1.40491100 0.93351230
vt 1.40491100 0.94166000
vt 1.37621500 0.94166030
vt 1.35832600 0.91924210
vt 1.35832600 0.93134360
vt 1.35832600 0.77272830
vt 1.35832600 0.62621360
vt 1.35832700 0.47970000
vt 1.35832700 0.36857850
vt 1.35832700 0.25745700
vt 1.35832700 0.14948860
vt 1.35832700 0.09354100
vt 1.35832700 0.03759316
vt 1.35832600 0.93351230
vt 1.35832600 0.94166030
vt 1.35832600 0.93134360
vt 1.35832600 0.91924210
vt 1.35832600 0.77272830
vt 1.35832600 0.62621360
vt 1.35832700 0.47970000
vt 1.35832700 0.36857850
vt 1.35832700 0.25745700
vt 1.35832700 0.14948860
vt 1.35832700 0.09354100
vt 1.35832700 0.03759316
vt 1.35832600 0.93351230
vt 1.35832600 0.94166030
vt 1.28844900 0.93351190
vt 1.30633800 0.93351230
vt 1.30633800 0.94166030
vt 1.28844900 0.94166030
vt 1.26515700 0.91411200
vt 1.28845000 0.93134360
vt 1.26515700 0.93134360
vt 1.28845000 0.90864010
vt 1.30633800 0.93134360
vt 1.30633800 0.91571410
vt 1.30633800 0.76931350
vt 1.28829500 0.76328660
vt 1.26337900 0.76771470
vt 1.30633800 0.62291280
vt 1.28844900 0.61793300
vt 1.26491100 0.62131730
vt 1.26515700 0.47491930
vt 1.28844900 0.47257920
vt 1.30633800 0.47651210
vt 1.30633800 0.36434200
vt 1.28845000 0.36084950
vt 1.26515700 0.36195910
vt 1.30633800 0.25217190
vt 1.28845000 0.24912010
vt 1.26515700 0.24899890
vt 1.30633800 0.14948880
vt 1.28845000 0.14948860
vt 1.26515700 0.14948860
vt 1.30633800 0.09354150
vt 1.28845000 0.09354150
vt 1.26515700 0.09354100
vt 1.26515700 0.03759342
vt 1.28845000 0.03759372
vt 1.30633800 0.03759372
vt 1.26515700 0.93351230
vt 1.26515700 0.94166030
vt 1.26515700 0.93351230
vt 1.26515700 0.94166030
vt 1.19737800 0.94166030
vt 1.17701900 0.94166030
vt 1.17701900 0.93351190
vt 1.19737700 0.93351190
vt 1.19737800 0.93134360
vt 1.17701900 0.93134360
vt 1.17701900 0.91024010
vt 1.19737800 0.91331480
vt 1.16969300 0.76566850
vt 1.19737800 0.76678620
vt 1.15424400 0.62109670
vt 1.18834900 0.62025800
vt 1.13332000 0.47652450
vt 1.16614400 0.47372970
vt 1.13076400 0.36441250
vt 1.17406300 0.36010030
vt 1.15555200 0.25230070
vt 1.18792800 0.24647150
vt 1.17968100 0.14948880
vt 1.20231500 0.14948880
vt 1.20956700 0.09354100
vt 1.21618800 0.03759342
vt 1.21959600 0.09354150
vt 1.21959600 0.03759342
vt 1.21959600 0.14948880
vt 1.21959600 0.24647120
vt 1.21959600 0.36010030
vt 1.21959600 0.47372970
vt 1.21959600 0.62025800
vt 1.21959600 0.76678620
vt 1.21959500 0.91331480
vt 1.19737800 0.91331480
vt 1.21959500 0.93134360
vt 1.19737800 0.93134360
vt 1.21960600 0.94169820
vt 1.19737800 0.94166030
vt 1.19737700 0.93351190
vt 1.21959500 0.93351190
vt 1.04590000 0.47652470
vt 1.02806000 0.47372970
vt 1.01356100 0.36010030
vt 1.03594400 0.36441250
vt 1.01817300 0.24647150
vt 1.04370400 0.25230070
vt 1.04693700 0.14948860
vt 1.07333900 0.14948880
vt 1.07735100 0.09354100
vt 1.07509100 0.62109670
vt 1.06476500 0.62025800
vt 1.10778100 0.76566850
vt 1.10110600 0.76678620
vt 1.13633900 0.91024010
vt 1.13141400 0.91331480
vt 1.13633900 0.93134360
vt 1.13141400 0.93134360
vt 1.13634000 0.94166030
vt 1.13141400 0.94166030
vt 1.13141400 0.93351230
vt 1.13634000 0.93351190
vt 1.11526800 0.76678620
vt 1.08727900 0.62025760
vt 1.06339300 0.47372970
vt 1.05616400 0.36010030
vt 1.06928100 0.24647150
vt 1.09751300 0.14948880
vt 1.12348400 0.09354100
vt 1.15736700 0.03759342
vt 1.14126500 0.91331480
vt 1.14126500 0.93134360
vt 1.14126500 0.94166030
vt 1.14126400 0.93351190
vt 1.12347600 0.76566850
vt 1.11526800 0.76678620
vt 1.08727900 0.62025760
vt 1.10109500 0.62109670
vt 1.06339300 0.47372970
vt 1.08399400 0.47652470
vt 1.05616400 0.36010030
vt 1.07636600 0.36441250
vt 1.06928100 0.24647150
vt 1.09089800 0.25230070
vt 1.09751300 0.14948880
vt 1.12416000 0.14948880
vt 1.12348400 0.09354100
vt 1.14619000 0.91024010
vt 1.14126500 0.91331480
vt 1.14619000 0.93134360
vt 1.14126500 0.93134360
vt 1.14619000 0.94166030
vt 1.14126500 0.94166030
vt 1.14126400 0.93351190
vt 1.14619000 0.93351190
vt 1.13679700 0.76678620
vt 1.12300900 0.62025800
vt 1.10700000 0.47372970
vt 1.10362100 0.35583230
vt 1.12137800 0.24647120
vt 1.14865800 0.14948880
vt 1.17272200 0.09354150
vt 1.19880300 0.03759342
vt 1.15565800 0.91331480
vt 1.15565800 0.93134360
vt 1.15565800 0.94166030
vt 1.15565800 0.93351190
vt 1.15565800 0.93134360
vt 1.15565800 0.91331480
vt 1.13679700 0.76678620
vt 1.12300900 0.62025800
vt 1.10700000 0.47372970
vt 1.10362100 0.35583230
vt 1.12137800 0.24647120
vt 1.14865800 0.14948880
vt 1.17272200 0.09354150
vt 1.15565800 0.94166030
vt 1.15565800 0.93351190
vt 1.40491100 0.92305960
vt 1.40491100 0.93134360
vt 1.42820300 0.93134360
vt 1.42820300 0.91947290
vt 1.42820300 0.77396500
vt 1.40491100 0.77638350
vt 1.42820400 0.62845730
vt 1.40491100 0.62970730
vt 1.40491100 0.48303210
vt 1.42820400 0.48295010
vt 1.42820400 0.37378320
vt 1.40491100 0.37283660
vt 1.42820400 0.26461740
vt 1.40491100 0.26264110
vt 1.42820400 0.14948860
vt 1.40491100 0.14948880
vt 1.42820400 0.09354100
vt 1.40491100 0.09354100
vt 1.40491100 0.03759372
vt 1.42820400 0.03759316
vt 1.30633800 0.91571410
vt 1.30633800 0.93134360
vt 1.33503400 0.93134360
vt 1.33503400 0.91128180
vt 1.33503400 0.76585690
vt 1.30633800 0.76931350
vt 1.33503400 0.62043240
vt 1.30633800 0.62291280
vt 1.30633800 0.47651210
vt 1.33503400 0.47500760
vt 1.33503500 0.36419490
vt 1.30633800 0.36434200
vt 1.33503400 0.25338270
vt 1.30633800 0.25217190
vt 1.33503400 0.14948860
vt 1.30633800 0.14948880
vt 1.33503400 0.09354100
vt 1.30633800 0.09354150
vt 1.30633800 0.03759372
vt 1.33503400 0.03759342
vt 1.21959500 0.91331480
vt 1.21992200 0.93194700
vt 1.24186400 0.93134360
vt 1.24186500 0.90747180
vt 1.26515700 0.93134360
vt 1.26515700 0.91411200
vt 1.26337900 0.76771470
vt 1.24186500 0.76204930
vt 1.21959600 0.76678620
vt 1.26491100 0.62131730
vt 1.24186500 0.61662640
vt 1.21959600 0.62025800
vt 1.21959600 0.47372970
vt 1.24186500 0.47120400
vt 1.26515700 0.47491930
vt 1.26515700 0.36195910
vt 1.24186500 0.35861790
vt 1.21959600 0.36010030
vt 1.26515700 0.24899890
vt 1.24186500 0.24603200
vt 1.21959600 0.24647120
vt 1.26515700 0.14948860
vt 1.24186500 0.14948880
vt 1.21959600 0.14948880
vt 1.26515700 0.09354100
vt 1.24186500 0.09354150
vt 1.21959600 0.09354150
vt 1.21959600 0.03759342
vt 1.24186500 0.03759342
vt 1.26515700 0.03759342
vt 1.47478800 0.92417690
vt 1.47478800 0.93134360
vt 1.49808000 0.93134410
vt 1.49808000 0.92657210
vt 1.49808000 0.78633210
vt 1.47478800 0.77902530
vt 1.49808000 0.64040430
vt 1.47478800 0.63387390
vt 1.47478800 0.48872240
vt 1.49808100 0.49447500
vt 1.49808100 0.38502850
vt 1.47478800 0.37985910
vt 1.49808100 0.27558200
vt 1.47478800 0.27099530
vt 1.49808100 0.14948860
vt 1.47478800 0.14948860
vt 1.49808100 0.09354100
vt 1.47478800 0.09354100
vt 1.47478800 0.03759316
vt 1.49808100 0.03759372
vt 1.45149600 0.92805370
vt 1.45149600 0.93134320
vt 1.45149600 0.78168510
vt 1.45149600 0.63531790
vt 1.45149600 0.48895090
vt 1.45149600 0.37917430
vt 1.45149600 0.26939910
vt 1.45149600 0.14948830
vt 1.45149600 0.09354100
vt 1.45149600 0.03759372
vt 1.45149600 0.93134320
vt 1.45149600 0.92805370
vt 1.45149600 0.78168510
vt 1.45149600 0.63531790
vt 1.45149600 0.48895090
vt 1.45149600 0.37917430
vt 1.45149600 0.26939910
vt 1.45149600 0.14948830
vt 1.45149600 0.09354100
vt 1.45149600 0.03759372
vt 1.37621500 0.91460420
vt 1.37621500 0.93134360
vt 1.40491100 0.93134360
vt 1.40491100 0.92305960
vt 1.40491100 0.77638350
vt 1.37621600 0.76910070
vt 1.40491100 0.62970730
vt 1.37621600 0.62359670
vt 1.37621600 0.47809300
vt 1.40491100 0.48303210
vt 1.40491100 0.37283660
vt 1.37621600 0.36805500
vt 1.40491100 0.26264110
vt 1.37621600 0.25801690
vt 1.40491100 0.14948880
vt 1.37621600 0.14948860
vt 1.40491100 0.09354100
vt 1.37621600 0.09354100
vt 1.37621600 0.03759316
vt 1.40491100 0.03759372
vt 1.35832600 0.91924210
vt 1.35832600 0.93134360
vt 1.35832600 0.77272830
vt 1.35832600 0.62621360
vt 1.35832700 0.47970000
vt 1.35832700 0.36857850
vt 1.35832700 0.25745700
vt 1.35832700 0.14948860
vt 1.35832700 0.09354100
vt 1.35832700 0.03759316
vt 1.35832600 0.93134360
vt 1.35832600 0.91924210
vt 1.35832600 0.77272830
vt 1.35832600 0.62621360
vt 1.35832700 0.47970000
vt 1.35832700 0.36857850
vt 1.35832700 0.25745700
vt 1.35832700 0.14948860
vt 1.35832700 0.09354100
vt 1.35832700 0.03759316
vt 1.28845000 0.90864010
vt 1.28845000 0.93134360
vt 1.30633800 0.93134360
vt 1.30633800 0.91571410
vt 1.30633800 0.76931350
vt 1.28829500 0.76328660
vt 1.30633800 0.62291280
vt 1.28844900 0.61793300
vt 1.28844900 0.47257920
vt 1.30633800 0.47651210
vt 1.30633800 0.36434200
vt 1.28845000 0.36084950
vt 1.30633800 0.25217190
vt 1.28845000 0.24912010
vt 1.30633800 0.14948880
vt 1.28845000 0.14948860
vt 1.30633800 0.09354150
vt 1.28845000 0.09354150
vt 1.28845000 0.03759372
vt 1.30633800 0.03759372
vt 1.26515700 0.91411200
vt 1.26515700 0.93134360
vt 1.26337900 0.76771470
vt 1.26491100 0.62131730
vt 1.26515700 0.47491930
vt 1.26515700 0.36195910
vt 1.26515700 0.24899890
vt 1.26515700 0.14948860
vt 1.26515700 0.09354100
vt 1.26515700 0.03759342
vt 1.19737800 0.93134360
vt 1.17701900 0.91024010
vt 1.17701900 0.93134360
vt 1.19737800 0.91331480
vt 1.16969300 0.76566850
vt 1.19737800 0.76678620
vt 1.15424400 0.62109670
vt 1.18834900 0.62025800
vt 1.13332000 0.47652450
vt 1.16614400 0.47372970
vt 1.13076400 0.36441250
vt 1.17406300 0.36010030
vt 1.15555200 0.25230070
vt 1.18792800 0.24647150
vt 1.17968100 0.14948880
vt 1.20231500 0.14948880
vt 1.19381600 0.09354150
vt 1.20956700 0.09354100
vt 1.20906800 0.03759342
vt 1.21618800 0.03759342
vt 1.21959600 0.09354150
vt 1.21959600 0.03759342
vt 1.21959600 0.14948880
vt 1.21959600 0.24647120
vt 1.21959600 0.36010030
vt 1.21959600 0.47372970
vt 1.21959600 0.62025800
vt 1.21959600 0.76678620
vt 1.21959500 0.91331480
vt 1.19737800 0.91331480
vt 1.21992200 0.93194700
vt 1.19737800 0.93134360
vt 1.13633900 0.93134360
vt 1.13141400 0.91331480
vt 1.13141400 0.93134360
vt 1.13633900 0.91024010
vt 1.10110600 0.76678620
vt 1.10778100 0.76566850
vt 1.06476500 0.62025800
vt 1.07509100 0.62109670
vt 1.02806000 0.47372970
vt 1.04590000 0.47652470
vt 1.01356100 0.36010030
vt 1.03594400 0.36441250
vt 1.01817300 0.24647150
vt 1.04370400 0.25230070
vt 1.04693700 0.14948860
vt 1.07333900 0.14948880
vt 1.07735100 0.09354100
vt 1.09868400 0.09354100
vt 1.11851900 0.03759342
vt 1.13626900 0.03759342
vt 1.14126500 0.93134360
vt 1.14126500 0.91331480
vt 1.11526800 0.76678620
vt 1.08727900 0.62025760
vt 1.06339300 0.47372970
vt 1.05616400 0.36010030
vt 1.06928100 0.24647150
vt 1.09751300 0.14948880
vt 1.12348400 0.09354100
vt 1.15736700 0.03759342
vt 1.14619000 0.93134360
vt 1.14126500 0.91331480
vt 1.14126500 0.93134360
vt 1.14619000 0.91024010
vt 1.11526800 0.76678620
vt 1.12347600 0.76566850
vt 1.08727900 0.62025760
vt 1.10109500 0.62109670
vt 1.06339300 0.47372970
vt 1.08399400 0.47652470
vt 1.05616400 0.36010030
vt 1.07636600 0.36441250
vt 1.06928100 0.24647150
vt 1.09089800 0.25230070
vt 1.09751300 0.14948880
vt 1.12416000 0.14948880
vt 1.12348400 0.09354100
vt 1.14677800 0.09354150
vt 1.15736700 0.03759342
vt 1.17824200 0.03759372
vt 1.15565800 0.93134360
vt 1.15565800 0.91331480
vt 1.13679700 0.76678620
vt 1.12300900 0.62025800
vt 1.10700000 0.47372970
vt 1.10362100 0.35583230
vt 1.12137800 0.24647120
vt 1.14865800 0.14948880
vt 1.17272200 0.09354150
vt 1.19880300 0.03759342
vt 1.13679700 0.76678620
vt 1.12300900 0.62025800
vt 1.10700000 0.47372970
vt 1.10362100 0.35583230
vt 1.12137800 0.24647120
vt 1.14865800 0.14948880
vt 1.17272200 0.09354150
vt 1.19880300 0.03759342
vt 1.15565800 0.91331480
vt 1.15565800 0.93134360
f 3/3/3 2/2/2 1/1/1
f 6/6/6 5/5/5 4/4/4
f 9/9/9 8/8/8 7/7/7
f 12/12/12 11/11/11 10/10/10
f 13/13/13 12/12/12 10/10/10
f 16/16/16 15/15/15 14/14/14
f 15/15/15 17/17/17 14/14/14
f 14/14/14 17/17/17 18/18/18
f 19/19/19 14/14/14 18/18/18
f 19/19/19 18/18/18 20/20/20
f 21/21/21 19/19/19 20/20/20
f 21/21/21 20/20/20 22/22/22
f 20/20/20 23/23/23 22/22/22
f 22/22/22 23/23/23 24/24/24
f 25/25/25 22/22/22 24/24/24
f 25/25/25 24/24/24 26/26/26
f 27/27/27 25/25/25 26/26/26
f 27/27/27 26/26/26 28/28/28
f 29/29/29 27/27/27 28/28/28
f 29/29/29 28/28/28 30/30/30
f 31/31/31 29/29/29 30/30/30
f 31/31/31 30/30/30 32/32/32
f 30/30/30 33/33/33 32/32/32
f 36/36/36 35/35/35 34/34/34
f 37/37/37 36/36/36 34/34/34
f 40/40/40 39/39/39 38/38/38
f 39/39/39 41/41/41 38/38/38
f 38/38/38 41/41/41 42/42/42
f 43/43/43 38/38/38 42/42/42
f 43/43/43 42/42/42 44/44/44
f 45/45/45 43/43/43 44/44/44
f 45/45/45 44/44/44 46/46/46
f 44/44/44 47/47/47 46/46/46
f 46/46/46 47/47/47 48/48/48
f 49/49/49 46/46/46 48/48/48
f 49/49/49 48/48/48 50/50/50
f 51/51/51 49/49/49 50/50/50
f 51/51/51 50/50/50 52/52/52
f 53/53/53 51/51/51 52/52/52
f 53/53/53 52/52/52 54/54/54
f 55/55/55 53/53/53 54/54/54
f 55/55/55 54/54/54 56/56/56
f 54/54/54 57/57/57 56/56/56
f 60/60/60 59/59/59 58/58/58
f 61/61/61 60/60/60 58/58/58
f 64/64/64 63/63/63 62/62/62
f 63/63/63 65/65/65 62/62/62
f 63/63/63 66/66/66 65/65/65
f 66/66/66 67/67/67 65/65/65
f 65/65/65 67/67/67 68/68/68
f 62/62/62 65/65/65 69/69/69
f 69/69/69 65/65/65 68/68/68
f 70/70/70 62/62/62 69/69/69
f 69/69/69 68/68/68 71/71/71
f 70/70/70 69/69/69 72/72/72
f 72/72/72 69/69/69 71/71/71
f 73/73/73 70/70/70 72/72/72
f 73/73/73 72/72/72 74/74/74
f 72/72/72 71/71/71 75/75/75
f 72/72/72 75/75/75 74/74/74
f 71/71/71 76/76/76 75/75/75
f 75/75/75 76/76/76 77/77/77
f 74/74/74 75/75/75 78/78/78
f 78/78/78 75/75/75 77/77/77
f 79/79/79 74/74/74 78/78/78
f 78/78/78 77/77/77 80/80/80
f 79/79/79 78/78/78 81/81/81
f 81/81/81 78/78/78 80/80/80
f 82/82/82 79/79/79 81/81/81
f 81/81/81 80/80/80 83/83/83
f 82/82/82 81/81/81 84/84/84
f 84/84/84 81/81/81 83/83/83
f 85/85/85 82/82/82 84/84/84
f 84/84/84 83/83/83 86/86/86
f 85/85/85 84/84/84 87/87/87
f 87/87/87 84/84/84 86/86/86
f 88/88/88 85/85/85 87/87/87
f 88/88/88 87/87/87 89/89/89
f 87/87/87 90/90/90 89/89/89
f 87/87/87 86/86/86 90/90/90
f 86/86/86 91/91/91 90/90/90
f 94/94/94 93/93/93 92/92/92
f 93/93/93 95/95/95 92/92/92
f 92/92/92 95/95/95 96/96/96
f 97/97/97 92/92/92 96/96/96
f 97/97/97 96/96/96 98/98/98
f 99/99/99 97/97/97 98/98/98
f 99/99/99 98/98/98 100/100/100
f 98/98/98 101/101/101 100/100/100
f 100/100/100 101/101/101 102/102/102
f 103/103/103 100/100/100 102/102/102
f 103/103/103 102/102/102 104/104/104
f 105/105/105 103/103/103 104/104/104
f 105/105/105 104/104/104 106/106/106
f 107/107/107 105/105/105 106/106/106
f 107/107/107 106/106/106 108/108/108
f 109/109/109 107/107/107 108/108/108
f 109/109/109 108/108/108 110/110/110
f 108/108/108 111/111/111 110/110/110
f 114/114/114 113/113/113 112/112/112
f 115/115/115 114/114/114 112/112/112
f 117/117/117 94/94/94 116/116/116
f 94/94/94 92/92/92 116/116/116
f 116/116/116 92/92/92 97/97/97
f 118/118/118 116/116/116 97/97/97
f 118/118/118 97/97/97 99/99/99
f 119/119/119 118/118/118 99/99/99
f 119/119/119 99/99/99 120/120/120
f 99/99/99 100/100/100 120/120/120
f 120/120/120 100/100/100 103/103/103
f 121/121/121 120/120/120 103/103/103
f 121/121/121 103/103/103 105/105/105
f 122/122/122 121/121/121 105/105/105
f 122/122/122 105/105/105 107/107/107
f 123/123/123 122/122/122 107/107/107
f 123/123/123 107/107/107 109/109/109
f 124/124/124 123/123/123 109/109/109
f 124/124/124 109/109/109 125/125/125
f 109/109/109 110/110/110 125/125/125
f 115/115/115 112/112/112 126/126/126
f 127/127/127 115/115/115 126/126/126
f 15/15/15 128/128/128 17/17/17
f 128/128/128 129/129/129 17/17/17
f 17/17/17 129/129/129 130/130/130
f 18/18/18 17/17/17 130/130/130
f 18/18/18 130/130/130 131/131/131
f 20/20/20 18/18/18 131/131/131
f 20/20/20 131/131/131 23/23/23
f 131/131/131 132/132/132 23/23/23
f 23/23/23 132/132/132 133/133/133
f 24/24/24 23/23/23 133/133/133
f 24/24/24 133/133/133 134/134/134
f 26/26/26 24/24/24 134/134/134
f 26/26/26 134/134/134 135/135/135
f 28/28/28 26/26/26 135/135/135
f 28/28/28 135/135/135 136/136/136
f 30/30/30 28/28/28 136/136/136
f 30/30/30 136/136/136 33/33/33
f 136/136/136 137/137/137 33/33/33
f 139/139/139 138/138/138 11/11/11
f 12/12/12 139/139/139 11/11/11
f 142/142/142 141/141/141 140/140/140
f 141/141/141 143/143/143 140/140/140
f 140/140/140 143/143/143 144/144/144
f 145/145/145 140/140/140 144/144/144
f 145/145/145 144/144/144 146/146/146
f 147/147/147 145/145/145 146/146/146
f 147/147/147 146/146/146 148/148/148
f 146/146/146 149/149/149 148/148/148
f 148/148/148 149/149/149 150/150/150
f 151/151/151 148/148/148 150/150/150
f 151/151/151 150/150/150 152/152/152
f 153/153/153 151/151/151 152/152/152
f 153/153/153 152/152/152 154/154/154
f 155/155/155 153/153/153 154/154/154
f 155/155/155 154/154/154 156/156/156
f 157/157/157 155/155/155 156/156/156
f 157/157/157 156/156/156 158/158/158
f 156/156/156 159/159/159 158/158/158
f 162/162/162 161/161/161 160/160/160
f 163/163/163 162/162/162 160/160/160
f 165/165/165 142/142/142 164/164/164
f 142/142/142 140/140/140 164/164/164
f 164/164/164 140/140/140 145/145/145
f 166/166/166 164/164/164 145/145/145
f 166/166/166 145/145/145 147/147/147
f 167/167/167 166/166/166 147/147/147
f 167/167/167 147/147/147 168/168/168
f 147/147/147 148/148/148 168/168/168
f 168/168/168 148/148/148 151/151/151
f 169/169/169 168/168/168 151/151/151
f 169/169/169 151/151/151 153/153/153
f 170/170/170 169/169/169 153/153/153
f 170/170/170 153/153/153 155/155/155
f 171/171/171 170/170/170 155/155/155
f 171/171/171 155/155/155 157/157/157
f 172/172/172 171/171/171 157/157/157
f 172/172/172 157/157/157 173/173/173
f 157/157/157 158/158/158 173/173/173
f 163/163/163 160/160/160 174/174/174
f 175/175/175 163/163/163 174/174/174
f 39/39/39 176/176/176 41/41/41
f 176/176/176 177/177/177 41/41/41
f 41/41/41 177/177/177 178/178/178
f 42/42/42 41/41/41 178/178/178
f 42/42/42 178/178/178 179/179/179
f 44/44/44 42/42/42 179/179/179
f 44/44/44 179/179/179 47/47/47
f 179/179/179 180/180/180 47/47/47
f 47/47/47 180/180/180 181/181/181
f 48/48/48 47/47/47 181/181/181
f 48/48/48 181/181/181 182/182/182
f 50/50/50 48/48/48 182/182/182
f 50/50/50 182/182/182 183/183/183
f 52/52/52 50/50/50 183/183/183
f 52/52/52 183/183/183 184/184/184
f 54/54/54 52/52/52 184/184/184
f 54/54/54 184/184/184 57/57/57
f 184/184/184 185/185/185 57/57/57
f 187/187/187 186/186/186 35/35/35
f 36/36/36 187/187/187 35/35/35
f 190/190/190 189/189/189 188/188/188
f 191/191/191 190/190/190 188/188/188
f 194/194/194 193/193/193 192/192/192
f 193/193/193 195/195/195 192/192/192
f 193/193/193 196/196/196 195/195/195
f 196/196/196 197/197/197 195/195/195
f 195/195/195 197/197/197 198/198/198
f 192/192/192 195/195/195 199/199/199
f 199/199/199 195/195/195 198/198/198
f 200/200/200 192/192/192 199/199/199
f 199/199/199 198/198/198 201/201/201
f 200/200/200 199/199/199 202/202/202
f 202/202/202 199/199/199 201/201/201
f 203/203/203 200/200/200 202/202/202
f 203/203/203 202/202/202 204/204/204
f 202/202/202 201/201/201 205/205/205
f 202/202/202 205/205/205 204/204/204
f 201/201/201 206/206/206 205/205/205
f 205/205/205 206/206/206 207/207/207
f 204/204/204 205/205/205 208/208/208
f 208/208/208 205/205/205 207/207/207
f 209/209/209 204/204/204 208/208/208
f 208/208/208 207/207/207 210/210/210
f 209/209/209 208/208/208 211/211/211
f 211/211/211 208/208/208 210/210/210
f 212/212/212 209/209/209 211/211/211
f 211/211/211 210/210/210 213/213/213
f 212/212/212 211/211/211 214/214/214
f 214/214/214 211/211/211 213/213/213
f 215/215/215 212/212/212 214/214/214
f 214/214/214 213/213/213 216/216/216
f 215/215/215 214/214/214 217/217/217
f 217/217/217 214/214/214 216/216/216
f 218/218/218 215/215/215 217/217/217
f 218/218/218 217/217/217 219/219/219
f 217/217/217 220/220/220 219/219/219
f 217/217/217 216/216/216 220/220/220
f 216/216/216 221/221/221 220/220/220
f 191/191/191 188/188/188 222/222/222
f 223/223/223 191/191/191 222/222/222
f 225/225/225 224/224/224 59/59/59
f 60/60/60 225/225/225 59/59/59
f 228/228/228 227/227/227 226/226/226
f 229/229/229 228/228/228 226/226/226
f 232/232/232 231/231/231 230/230/230
f 233/233/233 232/232/232 230/230/230
f 234/234/234 232/232/232 233/233/233
f 235/235/235 234/234/234 233/233/233
f 236/236/236 234/234/234 235/235/235
f 237/237/237 236/236/236 235/235/235
f 238/238/238 236/236/236 237/237/237
f 239/239/239 238/238/238 237/237/237
f 240/240/240 238/238/238 239/239/239
f 241/241/241 240/240/240 239/239/239
f 242/242/242 240/240/240 241/241/241
f 243/243/243 242/242/242 241/241/241
f 244/244/244 242/242/242 243/243/243
f 245/245/245 244/244/244 243/243/243
f 7/7/7 244/244/244 245/245/245
f 246/246/246 7/7/7 245/245/245
f 9/9/9 7/7/7 246/246/246
f 247/247/247 9/9/9 246/246/246
f 247/247/247 246/246/246 248/248/248
f 249/249/249 247/247/247 248/248/248
f 248/248/248 246/246/246 250/250/250
f 246/246/246 245/245/245 250/250/250
f 250/250/250 245/245/245 251/251/251
f 245/245/245 243/243/243 251/251/251
f 251/251/251 243/243/243 252/252/252
f 243/243/243 241/241/241 252/252/252
f 252/252/252 241/241/241 253/253/253
f 241/241/241 239/239/239 253/253/253
f 253/253/253 239/239/239 254/254/254
f 239/239/239 237/237/237 254/254/254
f 254/254/254 237/237/237 255/255/255
f 237/237/237 235/235/235 255/255/255
f 255/255/255 235/235/235 256/256/256
f 235/235/235 257/257/257 256/256/256
f 256/256/256 257/257/257 258/258/258
f 257/257/257 259/259/259 258/258/258
f 262/262/262 261/261/261 260/260/260
f 263/263/263 262/262/262 260/260/260
f 266/266/266 265/265/265 264/264/264
f 267/267/267 266/266/266 264/264/264
f 268/268/268 266/266/266 267/267/267
f 269/269/269 268/268/268 267/267/267
f 270/270/270 268/268/268 269/269/269
f 271/271/271 270/270/270 269/269/269
f 272/272/272 270/270/270 271/271/271
f 1/1/1 272/272/272 271/271/271
f 2/2/2 272/272/272 1/1/1
f 264/264/264 265/265/265 273/273/273
f 265/265/265 274/274/274 273/273/273
f 273/273/273 274/274/274 275/275/275
f 274/274/274 276/276/276 275/275/275
f 275/275/275 276/276/276 277/277/277
f 276/276/276 278/278/278 277/277/277
f 277/277/277 278/278/278 279/279/279
f 278/278/278 280/280/280 279/279/279
f 283/283/283 282/282/282 281/281/281
f 284/284/284 283/283/283 281/281/281
f 273/273/273 275/275/275 285/285/285
f 286/286/286 273/273/273 285/285/285
f 264/264/264 273/273/273 286/286/286
f 287/287/287 264/264/264 286/286/286
f 267/267/267 264/264/264 287/287/287
f 288/288/288 267/267/267 287/287/287
f 269/269/269 267/267/267 288/288/288
f 289/289/289 269/269/269 288/288/288
f 271/271/271 269/269/269 289/289/289
f 290/290/290 271/271/271 289/289/289
f 1/1/1 271/271/271 290/290/290
f 291/291/291 1/1/1 290/290/290
f 3/3/3 1/1/1 291/291/291
f 292/292/292 3/3/3 291/291/291
f 285/285/285 275/275/275 293/293/293
f 275/275/275 277/277/277 293/293/293
f 293/293/293 277/277/277 294/294/294
f 277/277/277 279/279/279 294/294/294
f 284/284/284 281/281/281 295/295/295
f 296/296/296 284/284/284 295/295/295
f 299/299/299 298/298/298 297/297/297
f 300/300/300 299/299/299 297/297/297
f 301/301/301 299/299/299 300/300/300
f 302/302/302 301/301/301 300/300/300
f 303/303/303 301/301/301 302/302/302
f 304/304/304 303/303/303 302/302/302
f 305/305/305 303/303/303 304/304/304
f 306/306/306 305/305/305 304/304/304
f 307/307/307 305/305/305 306/306/306
f 308/308/308 307/307/307 306/306/306
f 309/309/309 307/307/307 308/308/308
f 4/4/4 309/309/309 308/308/308
f 5/5/5 309/309/309 4/4/4
f 297/297/297 298/298/298 310/310/310
f 298/298/298 311/311/311 310/310/310
f 310/310/310 311/311/311 312/312/312
f 311/311/311 313/313/313 312/312/312
f 316/316/316 315/315/315 314/314/314
f 317/317/317 316/316/316 314/314/314
f 300/300/300 297/297/297 318/318/318
f 319/319/319 300/300/300 318/318/318
f 302/302/302 300/300/300 319/319/319
f 320/320/320 302/302/302 319/319/319
f 304/304/304 302/302/302 320/320/320
f 321/321/321 304/304/304 320/320/320
f 306/306/306 304/304/304 321/321/321
f 322/322/322 306/306/306 321/321/321
f 308/308/308 306/306/306 322/322/322
f 323/323/323 308/308/308 322/322/322
f 4/4/4 308/308/308 323/323/323
f 324/324/324 4/4/4 323/323/323
f 6/6/6 4/4/4 324/324/324
f 325/325/325 6/6/6 324/324/324
f 318/318/318 297/297/297 326/326/326
f 297/297/297 310/310/310 326/326/326
f 326/326/326 310/310/310 327/327/327
f 310/310/310 312/312/312 327/327/327
f 317/317/317 314/314/314 328/328/328
f 329/329/329 317/317/317 328/328/328
f 331/331/331 330/330/330 231/231/231
f 232/232/232 331/331/331 231/231/231
f 332/332/332 331/331/331 232/232/232
f 234/234/234 332/332/332 232/232/232
f 333/333/333 332/332/332 234/234/234
f 236/236/236 333/333/333 234/234/234
f 334/334/334 333/333/333 236/236/236
f 238/238/238 334/334/334 236/236/236
f 335/335/335 334/334/334 238/238/238
f 240/240/240 335/335/335 238/238/238
f 336/336/336 335/335/335 240/240/240
f 242/242/242 336/336/336 240/240/240
f 337/337/337 336/336/336 242/242/242
f 244/244/244 337/337/337 242/242/242
f 338/338/338 337/337/337 244/244/244
f 7/7/7 338/338/338 244/244/244
f 8/8/8 338/338/338 7/7/7
f 340/340/340 339/339/339 227/227/227
f 228/228/228 340/340/340 227/227/227
f 343/343/343 342/342/342 341/341/341
f 344/344/344 343/343/343 341/341/341
f 344/344/344 341/341/341 345/345/345
f 341/341/341 346/346/346 345/345/345
f 345/345/345 346/346/346 347/347/347
f 346/346/346 348/348/348 347/347/347
f 347/347/347 348/348/348 349/349/349
f 350/350/350 347/347/347 349/349/349
f 350/350/350 349/349/349 351/351/351
f 349/349/349 352/352/352 351/351/351
f 351/351/351 352/352/352 353/353/353
f 352/352/352 354/354/354 353/353/353
f 353/353/353 354/354/354 355/355/355
f 354/354/354 356/356/356 355/355/355
f 355/355/355 356/356/356 357/357/357
f 356/356/356 358/358/358 357/357/357
f 357/357/357 358/358/358 359/359/359
f 360/360/360 357/357/357 359/359/359
f 363/363/363 362/362/362 361/361/361
f 364/364/364 363/363/363 361/361/361
f 364/364/364 361/361/361 365/365/365
f 361/361/361 366/366/366 365/365/365
f 365/365/365 366/366/366 367/367/367
f 366/366/366 368/368/368 367/367/367
f 367/367/367 368/368/368 369/369/369
f 370/370/370 367/367/367 369/369/369
f 370/370/370 369/369/369 371/371/371
f 369/369/369 372/372/372 371/371/371
f 371/371/371 372/372/372 373/373/373
f 372/372/372 374/374/374 373/373/373
f 373/373/373 374/374/374 375/375/375
f 374/374/374 376/376/376 375/375/375
f 375/375/375 376/376/376 377/377/377
f 376/376/376 378/378/378 377/377/377
f 377/377/377 378/378/378 379/379/379
f 380/380/380 377/377/377 379/379/379
f 383/383/383 382/382/382 381/381/381
f 384/384/384 383/383/383 381/381/381
f 385/385/385 383/383/383 384/384/384
f 386/386/386 385/385/385 384/384/384
f 386/386/386 384/384/384 387/387/387
f 384/384/384 381/381/381 388/388/388
f 384/384/384 388/388/388 387/387/387
f 381/381/381 389/389/389 388/388/388
f 387/387/387 388/388/388 390/390/390
f 388/388/388 389/389/389 391/391/391
f 388/388/388 391/391/391 390/390/390
f 389/389/389 392/392/392 391/391/391
f 391/391/391 392/392/392 393/393/393
f 390/390/390 391/391/391 394/394/394
f 394/394/394 391/391/391 393/393/393
f 395/395/395 390/390/390 394/394/394
f 395/395/395 394/394/394 396/396/396
f 394/394/394 393/393/393 397/397/397
f 394/394/394 397/397/397 396/396/396
f 393/393/393 398/398/398 397/397/397
f 396/396/396 397/397/397 399/399/399
f 397/397/397 398/398/398 400/400/400
f 397/397/397 400/400/400 399/399/399
f 398/398/398 401/401/401 400/400/400
f 399/399/399 400/400/400 402/402/402
f 400/400/400 401/401/401 403/403/403
f 400/400/400 403/403/403 402/402/402
f 401/401/401 404/404/404 403/403/403
f 402/402/402 403/403/403 405/405/405
f 403/403/403 404/404/404 406/406/406
f 403/403/403 406/406/406 405/405/405
f 404/404/404 407/407/407 406/406/406
f 406/406/406 407/407/407 408/408/408
f 409/409/409 406/406/406 408/408/408
f 405/405/405 406/406/406 409/409/409
f 410/410/410 405/405/405 409/409/409
f 413/413/413 412/412/412 411/411/411
f 414/414/414 413/413/413 411/411/411
f 414/414/414 411/411/411 415/415/415
f 411/411/411 416/416/416 415/415/415
f 415/415/415 416/416/416 417/417/417
f 416/416/416 418/418/418 417/417/417
f 417/417/417 418/418/418 419/419/419
f 420/420/420 417/417/417 419/419/419
f 420/420/420 419/419/419 421/421/421
f 419/419/419 422/422/422 421/421/421
f 421/421/421 422/422/422 423/423/423
f 422/422/422 424/424/424 423/423/423
f 423/423/423 424/424/424 425/425/425
f 424/424/424 426/426/426 425/425/425
f 425/425/425 426/426/426 427/427/427
f 426/426/426 428/428/428 427/427/427
f 427/427/427 428/428/428 429/429/429
f 430/430/430 427/427/427 429/429/429
f 412/412/412 432/432/432 431/431/431
f 411/411/411 412/412/412 431/431/431
f 411/411/411 431/431/431 416/416/416
f 431/431/431 433/433/433 416/416/416
f 416/416/416 433/433/433 418/418/418
f 433/433/433 434/434/434 418/418/418
f 418/418/418 434/434/434 435/435/435
f 419/419/419 418/418/418 435/435/435
f 419/419/419 435/435/435 422/422/422
f 435/435/435 436/436/436 422/422/422
f 422/422/422 436/436/436 424/424/424
f 436/436/436 437/437/437 424/424/424
f 424/424/424 437/437/437 426/426/426
f 437/437/437 438/438/438 426/426/426
f 426/426/426 438/438/438 428/428/428
f 438/438/438 439/439/439 428/428/428
f 428/428/428 439/439/439 440/440/440
f 429/429/429 428/428/428 440/440/440
f 441/441/441 343/343/343 344/344/344
f 442/442/442 441/441/441 344/344/344
f 442/442/442 344/344/344 443/443/443
f 344/344/344 345/345/345 443/443/443
f 443/443/443 345/345/345 444/444/444
f 345/345/345 347/347/347 444/444/444
f 444/444/444 347/347/347 350/350/350
f 445/445/445 444/444/444 350/350/350
f 445/445/445 350/350/350 446/446/446
f 350/350/350 351/351/351 446/446/446
f 446/446/446 351/351/351 447/447/447
f 351/351/351 353/353/353 447/447/447
f 447/447/447 353/353/353 448/448/448
f 353/353/353 355/355/355 448/448/448
f 448/448/448 355/355/355 449/449/449
f 355/355/355 357/357/357 449/449/449
f 449/449/449 357/357/357 360/360/360
f 450/450/450 449/449/449 360/360/360
f 453/453/453 452/452/452 451/451/451
f 454/454/454 453/453/453 451/451/451
f 454/454/454 451/451/451 455/455/455
f 451/451/451 456/456/456 455/455/455
f 455/455/455 456/456/456 457/457/457
f 456/456/456 458/458/458 457/457/457
f 457/457/457 458/458/458 459/459/459
f 460/460/460 457/457/457 459/459/459
f 460/460/460 459/459/459 461/461/461
f 459/459/459 462/462/462 461/461/461
f 461/461/461 462/462/462 463/463/463
f 462/462/462 464/464/464 463/463/463
f 463/463/463 464/464/464 465/465/465
f 464/464/464 466/466/466 465/465/465
f 465/465/465 466/466/466 467/467/467
f 466/466/466 468/468/468 467/467/467
f 467/467/467 468/468/468 469/469/469
f 470/470/470 467/467/467 469/469/469
f 452/452/452 472/472/472 471/471/471
f 451/451/451 452/452/452 471/471/471
f 451/451/451 471/471/471 456/456/456
f 471/471/471 473/473/473 456/456/456
f 456/456/456 473/473/473 458/458/458
f 473/473/473 474/474/474 458/458/458
f 458/458/458 474/474/474 475/475/475
f 459/459/459 458/458/458 475/475/475
f 459/459/459 475/475/475 462/462/462
f 475/475/475 476/476/476 462/462/462
f 462/462/462 476/476/476 464/464/464
f 476/476/476 477/477/477 464/464/464
f 464/464/464 477/477/477 466/466/466
f 477/477/477 478/478/478 466/466/466
f 466/466/466 478/478/478 468/468/468
f 478/478/478 479/479/479 468/468/468
f 468/468/468 479/479/479 480/480/480
f 469/469/469 468/468/468 480/480/480
f 481/481/481 363/363/363 364/364/364
f 482/482/482 481/481/481 364/364/364
f 482/482/482 364/364/364 483/483/483
f 364/364/364 365/365/365 483/483/483
f 483/483/483 365/365/365 484/484/484
f 365/365/365 367/367/367 484/484/484
f 484/484/484 367/367/367 370/370/370
f 485/485/485 484/484/484 370/370/370
f 485/485/485 370/370/370 486/486/486
f 370/370/370 371/371/371 486/486/486
f 486/486/486 371/371/371 487/487/487
f 371/371/371 373/373/373 487/487/487
f 487/487/487 373/373/373 488/488/488
f 373/373/373 375/375/375 488/488/488
f 488/488/488 375/375/375 489/489/489
f 375/375/375 377/377/377 489/489/489
f 489/489/489 377/377/377 380/380/380
f 490/490/490 489/489/489 380/380/380
f 493/493/493 492/492/492 491/491/491
f 494/494/494 493/493/493 491/491/491
f 494/494/494 491/491/491 495/495/495
f 491/491/491 496/496/496 495/495/495
f 495/495/495 496/496/496 497/497/497
f 496/496/496 498/498/498 497/497/497
f 497/497/497 498/498/498 499/499/499
f 500/500/500 497/497/497 499/499/499
f 500/500/500 499/499/499 501/501/501
f 499/499/499 502/502/502 501/501/501
f 501/501/501 502/502/502 503/503/503
f 502/502/502 504/504/504 503/503/503
f 503/503/503 504/504/504 505/505/505
f 504/504/504 506/506/506 505/505/505
f 505/505/505 506/506/506 507/507/507
f 506/506/506 508/508/508 507/507/507
f 507/507/507 508/508/508 509/509/509
f 510/510/510 507/507/507 509/509/509
f 492/492/492 512/512/512 511/511/511
f 491/491/491 492/492/492 511/511/511
f 491/491/491 511/511/511 496/496/496
f 511/511/511 513/513/513 496/496/496
f 496/496/496 513/513/513 498/498/498
f 513/513/513 514/514/514 498/498/498
f 498/498/498 514/514/514 515/515/515
f 499/499/499 498/498/498 515/515/515
f 499/499/499 515/515/515 502/502/502
f 515/515/515 516/516/516 502/502/502
f 502/502/502 516/516/516 504/504/504
f 516/516/516 517/517/517 504/504/504
f 504/504/504 517/517/517 506/506/506
f 517/517/517 518/518/518 506/506/506
f 506/506/506 518/518/518 508/508/508
f 518/518/518 519/519/519 508/508/508
f 508/508/508 519/519/519 520/520/520
f 509/509/509 508/508/508 520/520/520
f 523/523/523 522/522/522 521/521/521
f 522/522/522 524/524/524 521/521/521
f 522/522/522 525/525/525 524/524/524
f 525/525/525 526/526/526 524/524/524
f 525/525/525 527/527/527 526/526/526
f 527/527/527 528/528/528 526/526/526
f 527/527/527 529/529/529 528/528/528
f 529/529/529 530/530/530 528/528/528
f 529/529/529 531/531/531 530/530/530
f 531/531/531 532/532/532 530/530/530
f 531/531/531 533/533/533 532/532/532
f 533/533/533 534/534/534 532/532/532
f 533/533/533 535/535/535 534/534/534
f 535/535/535 536/536/536 534/534/534
f 535/535/535 537/537/537 536/536/536
f 537/537/537 538/538/538 536/536/536
f 537/537/537 539/539/539 538/538/538
f 539/539/539 540/540/540 538/538/538
f 538/538/538 540/540/540 541/541/541
f 540/540/540 542/542/542 541/541/541
f 538/538/538 541/541/541 543/543/543
f 536/536/536 538/538/538 543/543/543
f 536/536/536 543/543/543 544/544/544
f 534/534/534 536/536/536 544/544/544
f 534/534/534 544/544/544 545/545/545
f 532/532/532 534/534/534 545/545/545
f 532/532/532 545/545/545 546/546/546
f 530/530/530 532/532/532 546/546/546
f 530/530/530 546/546/546 547/547/547
f 528/528/528 530/530/530 547/547/547
f 528/528/528 547/547/547 548/548/548
f 526/526/526 528/528/528 548/548/548
f 526/526/526 548/548/548 549/549/549
f 550/550/550 526/526/526 549/549/549
f 550/550/550 549/549/549 551/551/551
f 552/552/552 550/550/550 551/551/551
f 555/555/555 554/554/554 553/553/553
f 554/554/554 556/556/556 553/553/553
f 554/554/554 557/557/557 556/556/556
f 557/557/557 558/558/558 556/556/556
f 557/557/557 559/559/559 558/558/558
f 559/559/559 560/560/560 558/558/558
f 559/559/559 561/561/561 560/560/560
f 561/561/561 562/562/562 560/560/560
f 561/561/561 563/563/563 562/562/562
f 563/563/563 564/564/564 562/562/562
f 563/563/563 565/565/565 564/564/564
f 565/565/565 566/566/566 564/564/564
f 565/565/565 567/567/567 566/566/566
f 567/567/567 568/568/568 566/566/566
f 567/567/567 569/569/569 568/568/568
f 569/569/569 570/570/570 568/568/568
f 569/569/569 571/571/571 570/570/570
f 571/571/571 572/572/572 570/570/570
f 553/553/553 556/556/556 573/573/573
f 556/556/556 574/574/574 573/573/573
f 556/556/556 558/558/558 574/574/574
f 558/558/558 575/575/575 574/574/574
f 558/558/558 560/560/560 575/575/575
f 560/560/560 576/576/576 575/575/575
f 560/560/560 562/562/562 576/576/576
f 562/562/562 577/577/577 576/576/576
f 562/562/562 564/564/564 577/577/577
f 564/564/564 578/578/578 577/577/577
f 564/564/564 566/566/566 578/578/578
f 566/566/566 579/579/579 578/578/578
f 566/566/566 568/568/568 579/579/579
f 568/568/568 580/580/580 579/579/579
f 568/568/568 570/570/570 580/580/580
f 570/570/570 581/581/581 580/580/580
f 570/570/570 572/572/572 581/581/581
f 572/572/572 582/582/582 581/581/581
f 585/585/585 584/584/584 583/583/583
f 584/584/584 586/586/586 583/583/583
f 584/584/584 587/587/587 586/586/586
f 587/587/587 588/588/588 586/586/586
f 587/587/587 589/589/589 588/588/588
f 589/589/589 590/590/590 588/588/588
f 589/589/589 591/591/591 590/590/590
f 591/591/591 592/592/592 590/590/590
f 591/591/591 593/593/593 592/592/592
f 593/593/593 594/594/594 592/592/592
f 593/593/593 595/595/595 594/594/594
f 595/595/595 596/596/596 594/594/594
f 595/595/595 597/597/597 596/596/596
f 597/597/597 598/598/598 596/596/596
f 597/597/597 599/599/599 598/598/598
f 599/599/599 600/600/600 598/598/598
f 599/599/599 601/601/601 600/600/600
f 601/601/601 602/602/602 600/600/600
f 583/583/583 586/586/586 603/603/603
f 586/586/586 604/604/604 603/603/603
f 586/586/586 588/588/588 604/604/604
f 588/588/588 605/605/605 604/604/604
f 588/588/588 590/590/590 605/605/605
f 590/590/590 606/606/606 605/605/605
f 590/590/590 592/592/592 606/606/606
f 592/592/592 607/607/607 606/606/606
f 592/592/592 594/594/594 607/607/607
f 594/594/594 608/608/608 607/607/607
f 594/594/594 596/596/596 608/608/608
f 596/596/596 609/609/609 608/608/608
f 596/596/596 598/598/598 609/609/609
f 598/598/598 610/610/610 609/609/609
f 598/598/598 600/600/600 610/610/610
f 600/600/600 611/611/611 610/610/610
f 600/600/600 602/602/602 611/611/611
f 602/602/602 612/612/612 611/611/611
f 613/613/613 525/525/525 522/522/522
f 613/613/613 614/614/614 525/525/525
f 614/614/614 527/527/527 525/525/525
f 614/614/614 615/615/615 527/527/527
f 615/615/615 529/529/529 527/527/527
f 615/615/615 616/616/616 529/529/529
f 616/616/616 531/531/531 529/529/529
f 616/616/616 617/617/617 531/531/531
f 617/617/617 533/533/533 531/531/531
f 617/617/617 618/618/618 533/533/533
f 618/618/618 535/535/535 533/533/533
f 618/618/618 619/619/619 535/535/535
f 619/619/619 537/537/537 535/535/535
f 619/619/619 620/620/620 537/537/537
f 620/620/620 539/539/539 537/537/537
f 621/621/621 613/613/613 522/522/522
f 621/621/621 522/522/522 523/523/523
f 622/622/622 621/621/621 523/523/523

