# Blender 4.0.0
# www.blender.org
o decimated_mesh
v -0.020415 0.014614 0.012637
v -0.020369 0.014614 0.014112
v -0.019735 0.014614 0.012637
v -0.020344 0.005848 0.012637
v -0.012460 0.014614 0.019735
v -0.012460 0.002380 0.018008
v -0.018008 0.002380 0.012637
v -0.012460 0.014614 0.020415
v -0.012460 0.002380 0.018922
v -0.018922 0.002380 0.012637
v -0.014120 0.014614 0.020365
v -0.012460 0.005848 0.020346
v -0.014154 0.002383 0.018900
v -0.020343 0.005905 0.013988
v -0.018792 0.006119 0.017959
v -0.014051 0.006033 0.020350
v -0.018872 0.002380 0.014092
v -0.017891 0.003113 0.017891
v -0.018096 0.006220 0.018736
v -0.017692 0.002393 0.017686
v -0.018489 0.014614 0.018478
vn 0.0001 -0.0000 1.0000
vn -0.9227 -0.3841 0.0318
vn -0.0036 1.0000 -0.0023
vn 0.0015 -0.0079 1.0000
vn -0.6919 -0.1010 0.7149
vn -0.9995 -0.0034 0.0317
vn -0.0000 1.0000 -0.0000
vn -0.3964 0.0096 0.9180
vn -0.7100 -0.2278 0.6663
vn -0.9185 0.0086 0.3953
vn -0.0126 -0.3798 0.9250
vn -0.0000 -0.0001 1.0000
vn -0.0000 -0.0000 1.0000
vn -0.9252 -0.3792 0.0164
vn -0.0000 1.0000 -0.0002
vn 0.0026 1.0000 -0.0027
vn 0.0019 1.0000 -0.0000
vn 0.0024 1.0000 0.0008
vn -0.8866 -0.2883 0.3618
vn -0.9541 -0.2878 0.0824
vn -0.0304 -0.0020 0.9995
vn -0.6950 -0.0981 0.7123
vn -1.0000 -0.0081 0.0009
vn -0.3055 -0.3441 0.8878
vn -0.8857 -0.3609 0.2922
vn -1.0000 -0.0000 -0.0000
vn -1.0000 -0.0000 -0.0001
vn 0.0554 -0.2586 0.9644
vn -0.3669 -0.2818 0.8866
vn -0.3709 -0.0046 0.9287
vn -0.9313 -0.0079 0.3642
vn -0.7436 -0.0144 0.6685
vn -0.0404 -0.3679 0.9290
vn 0.0002 -0.0000 1.0000
vn -0.8870 -0.3358 0.3170
vn -0.8904 -0.2750 0.3626
vn -0.6948 -0.1006 0.7122
vn -0.6922 -0.0977 0.7151
vn 0.0002 1.0000 -0.0002
vn 0.0020 1.0000 -0.0026
vn 0.0043 1.0000 -0.0049
vn -0.3113 -0.3384 0.8880
vn -0.3679 -0.2664 0.8909
s 0
f 3//1 4//1 7//1
f 10//2 17//2 14//2
f 20//3 7//3 17//3
f 8//4 16//4 12//4
f 7//5 6//5 5//5
f 1//6 14//6 2//6
f 5//7 3//7 21//7
f 11//8 21//8 19//8
f 19//9 15//9 18//9
f 21//10 2//10 15//10
f 9//11 12//11 13//11
f 10//12 7//12 4//12
f 4//13 3//13 1//13
f 4//14 10//14 14//14
f 17//15 7//15 10//15
f 7//16 20//16 6//16
f 6//17 13//17 9//17
f 13//18 6//18 20//18
f 14//19 20//19 15//19
f 20//20 18//20 15//20
f 8//21 11//21 16//21
f 7//22 5//22 3//22
f 1//23 4//23 14//23
f 13//24 16//24 20//24
f 14//25 17//25 20//25
f 1//7 2//7 3//7
f 2//7 21//7 3//7
f 21//7 11//7 5//7
f 11//7 8//7 5//7
f 12//26 6//26 9//26
f 6//27 12//27 5//27
f 5//26 12//26 8//26
f 18//28 20//28 19//28
f 20//29 16//29 19//29
f 19//30 16//30 11//30
f 2//31 14//31 15//31
f 15//32 19//32 21//32
f 12//33 16//33 13//33
f 3//13 10//13 7//13
f 3//13 1//13 10//13
f 10//34 1//34 4//34
f 20//35 18//35 14//35
f 18//36 15//36 14//36
f 8//7 5//7 2//7
f 5//7 3//7 2//7
f 21//7 11//7 2//7
f 11//7 8//7 2//7
f 5//37 3//37 6//37
f 6//38 3//38 7//38
f 7//7 9//7 6//7
f 7//7 10//7 9//7
f 9//39 10//39 17//39
f 9//40 17//40 13//40
f 13//41 17//41 20//41
f 16//42 18//42 20//42
f 16//43 19//43 18//43
f 12//27 8//27 9//27
f 9//26 5//26 6//26
f 9//26 8//26 5//26
