# Blender 4.0.0
# www.blender.org
o decimated_mesh
v 0.012912 0.014616 0.020415
v 0.014048 0.014616 0.020384
v 0.012912 0.014616 0.019730
v 0.012912 0.005927 0.020368
v 0.014077 0.006008 0.020335
v 0.018421 0.014616 0.016647
v 0.019489 0.005889 0.012887
v 0.016979 0.001735 0.012887
v 0.012913 0.001734 0.016976
v 0.017971 0.006143 0.018788
v 0.019342 0.014616 0.016647
v 0.018657 0.001735 0.012887
v 0.012913 0.001734 0.018657
v 0.020299 0.005840 0.013999
v 0.020330 0.005817 0.012881
v 0.014118 0.003790 0.019488
v 0.017157 0.002313 0.017908
v 0.017877 0.003049 0.017872
v 0.018445 0.014616 0.018495
v 0.018685 0.006264 0.018160
v 0.017761 0.001735 0.015716
v 0.013928 0.001743 0.018619
v 0.017901 0.002299 0.017157
v 0.015565 0.001734 0.017848
v 0.018640 0.001749 0.013918
vn -0.7012 0.1490 -0.6973
vn 0.8910 -0.2982 0.3424
vn 0.8915 -0.3669 0.2658
vn 0.6640 -0.2309 0.7112
vn 0.9946 0.1007 0.0255
vn -1.0000 -0.0000 -0.0002
vn 0.3123 -0.8924 0.3257
vn 0.6609 -0.0110 0.7504
vn 0.0271 -0.0054 0.9996
vn 0.0270 0.3959 -0.9179
vn -0.4656 0.3015 -0.8320
vn 0.5898 -0.5470 0.5941
vn 0.9321 -0.0077 0.3622
vn 0.2626 -0.7807 0.5671
vn 0.3692 -0.0041 0.9293
vn 0.3011 -0.3352 0.8927
vn 0.5431 -0.7985 0.2595
vn -0.0000 1.0000 -0.0001
vn -0.0000 1.0000 -0.0000
vn -0.0001 1.0000 -0.0001
vn 0.0377 -0.3934 0.9186
vn 0.0517 -0.3553 0.9333
vn 0.0063 -0.3778 0.9259
vn 0.8917 -0.2576 0.3721
vn 0.0073 -0.0015 1.0000
vn -0.0000 -0.0000 1.0000
vn -1.0000 -0.0002 -0.0000
vn -1.0000 -0.0000 -0.0000
vn -0.0100 0.9999 0.0027
vn -0.0002 1.0000 0.0005
vn 0.0023 1.0000 -0.0070
vn -0.0091 1.0000 -0.0000
vn -0.0003 1.0000 0.0001
vn -0.0000 0.9999 -0.0133
vn 0.3111 -0.8950 0.3198
vn 0.0291 -0.0057 0.9996
vn -0.0000 0.3957 -0.9184
vn 0.3626 -0.2812 0.8885
vn 0.3296 -0.2774 0.9024
vn -0.4787 0.2892 -0.8290
vn 0.8994 0.0084 0.4370
vn 0.3948 0.0097 0.9187
vn 0.2636 -0.3975 0.8789
vn 0.9251 -0.3793 0.0201
vn 0.9259 -0.3762 0.0335
vn -0.0000 1.0000 0.0001
vn 0.3471 -0.2951 0.8902
vn 0.3630 -0.2748 0.8903
vn 0.0071 -0.0043 1.0000
vn -0.0000 1.0000 0.0003
vn -0.0000 0.0015 1.0000
vn -0.0001 1.0000 0.0002
vn -0.0103 0.9994 -0.0339
vn -0.0443 0.9989 -0.0140
vn -0.0009 1.0000 -0.0003
s 0
f 3//1 8//1 9//1
f 18//2 23//2 14//2
f 23//3 25//3 14//3
f 20//4 10//4 18//4
f 11//5 14//5 15//5
f 3//6 9//6 4//6
f 24//7 23//7 17//7
f 19//8 10//8 20//8
f 4//9 2//9 1//9
f 7//10 11//10 15//10
f 7//11 3//11 6//11
f 17//12 23//12 18//12
f 11//13 20//13 14//13
f 17//14 22//14 24//14
f 2//15 5//15 10//15
f 16//16 17//16 5//16
f 23//17 21//17 25//17
f 11//18 6//18 19//18
f 6//19 3//19 2//19
f 3//19 1//19 2//19
f 2//20 19//20 6//20
f 22//21 16//21 13//21
f 16//22 5//22 4//22
f 13//23 16//23 4//23
f 20//24 18//24 14//24
f 15//25 7//25 12//25
f 12//26 7//26 8//26
f 13//27 4//27 9//27
f 4//28 1//28 3//28
f 25//29 8//29 21//29
f 21//30 9//30 24//30
f 24//31 9//31 22//31
f 22//32 9//32 13//32
f 9//33 21//33 8//33
f 8//34 25//34 12//34
f 24//35 21//35 23//35
f 4//36 5//36 2//36
f 7//37 6//37 11//37
f 5//38 17//38 10//38
f 17//39 18//39 10//39
f 7//40 8//40 3//40
f 19//41 20//41 11//41
f 10//42 19//42 2//42
f 16//43 22//43 17//43
f 12//44 15//44 25//44
f 15//45 14//45 25//45
f 2//46 19//46 1//46
f 19//19 3//19 1//19
f 6//18 3//18 19//18
f 17//47 18//47 5//47
f 18//48 10//48 5//48
f 15//49 7//49 8//49
f 12//50 8//50 9//50
f 15//51 8//51 12//51
f 12//52 9//52 24//52
f 24//19 9//19 13//19
f 24//53 13//53 22//53
f 25//54 12//54 21//54
f 21//55 12//55 24//55
