# Blender 4.0.0
# www.blender.org
o decimated_mesh
v 0.000002 0.000913 -0.017154
v 0.000002 0.001815 -0.017154
v -0.013950 -0.000186 -0.014581
v -0.018047 0.001451 -0.014593
v -0.018643 0.002181 -0.014594
v 0.017091 0.003071 -0.017154
v 0.014136 0.000952 -0.017153
v -0.014586 -0.000192 -0.013904
v -0.018814 0.002183 -0.014110
v -0.018923 0.002378 0.000007
v 0.000002 0.002378 0.018927
v 0.017746 0.001733 0.015731
v 0.018648 0.001723 0.013730
v 0.018662 0.001733 0.000007
v 0.017091 0.001978 -0.017154
v -0.018868 0.002372 0.014152
v -0.017902 0.002361 0.017225
v -0.017195 0.002357 0.017917
v -0.014150 0.002374 0.018871
v -0.013598 -0.000419 -0.013581
v -0.018548 0.001550 -0.013564
v 0.013717 0.001696 0.018637
v 0.015704 0.001733 0.017766
v 0.018010 0.001430 0.014630
v 0.017070 0.000985 -0.014407
v 0.014574 -0.000182 -0.013976
v 0.013995 -0.000159 -0.014643
v 0.014129 0.001372 0.018154
v 0.013988 -0.000179 0.014584
v 0.014587 -0.000186 0.013966
v 0.018213 0.001362 0.013608
v 0.016836 0.000741 -0.013542
v 0.013610 -0.000413 -0.013611
v -0.018607 0.001638 0.013608
v -0.018015 0.001300 0.014229
v -0.014141 0.001308 0.018072
v -0.013611 0.001638 0.018606
v -0.014637 -0.000157 0.013997
v -0.013900 -0.000209 0.014523
v 0.013607 -0.000414 0.013608
v -0.013614 -0.000417 0.013592
vn -0.1360 -0.0000 -0.9907
vn -0.0607 0.8261 -0.5602
vn -0.0000 -0.9761 0.2174
vn 0.9958 -0.0000 -0.0912
vn -0.0002 -0.0000 -1.0000
vn -0.7807 -0.5624 -0.2724
vn -0.3219 -0.8888 0.3262
vn -0.1416 -0.3606 -0.9219
vn 0.3509 -0.8778 0.3262
vn 0.3493 -0.8640 -0.3627
vn -0.0130 0.9998 0.0130
vn 0.0012 -0.8506 0.5257
vn 0.0524 0.9855 0.1611
vn 0.6406 0.7679 0.0012
vn -0.2582 -0.4898 0.8327
vn 0.3978 -0.9054 -0.1483
vn -0.8326 -0.4890 0.2599
vn 0.6002 -0.7813 0.1711
vn -0.2455 -0.9694 0.0008
vn 0.1644 -0.9717 0.1694
vn -0.6742 -0.6879 0.2688
vn -0.2675 -0.6773 0.6854
vn -0.0001 -0.9741 -0.2261
vn 0.2267 -0.9740 -0.0000
vn 0.9576 -0.2732 -0.0916
vn 0.6596 -0.7509 -0.0339
vn 0.3926 -0.9197 0.0011
vn 0.0001 -1.0000 0.0001
vn -0.9411 -0.3380 0.0035
vn -0.1685 -0.9716 -0.1662
vn -0.4970 -0.8678 0.0017
vn -0.3961 -0.9182 -0.0007
vn -0.4079 -0.9062 -0.1117
vn -0.4024 -0.9155 0.0004
vn 0.0005 -0.9724 0.2335
vn 0.0025 -0.9145 -0.4046
vn -0.0000 -0.9196 -0.3929
vn -0.7379 -0.6038 -0.3016
vn -0.1430 -0.1195 -0.9825
vn -0.0000 -0.0000 -1.0000
vn -0.0000 -0.0003 -1.0000
vn -0.0036 -0.3418 0.9397
vn -0.0002 -0.3951 0.9186
vn 0.7425 -0.5784 0.3379
vn -0.3155 -0.8801 0.3548
vn -0.3244 -0.8878 0.3265
vn -0.3498 -0.8672 0.3543
vn 0.0001 -0.9195 0.3930
vn 0.0009 -0.9172 0.3984
vn 0.3190 -0.6377 0.7011
vn -0.3489 -0.8754 -0.3347
vn 0.3409 -0.8757 0.3419
vn 0.2935 -0.8810 0.3710
vn 0.3426 -0.8753 0.3412
vn 0.3510 -0.8744 -0.3349
vn 0.3107 -0.8946 -0.3212
vn -0.0090 0.9999 -0.0091
vn 0.0466 0.9981 0.0412
vn -0.0259 0.9996 -0.0140
vn -0.0282 0.9995 -0.0140
vn -0.0007 1.0000 0.0004
vn -0.0003 1.0000 0.0003
vn -0.0060 1.0000 0.0057
vn -0.0107 0.9998 0.0163
vn 0.0432 0.9986 0.0289
vn 0.0003 -0.8297 0.5582
vn -0.2234 -0.9747 -0.0001
vn -0.1826 -0.9701 0.1599
vn 0.0004 -0.9710 -0.2392
vn 0.4002 -0.9057 0.1397
vn 0.2333 -0.9724 -0.0002
vn 0.6383 -0.7698 -0.0000
vn 0.5142 -0.8576 -0.0065
vn 0.1657 -0.9701 -0.1774
vn 0.3777 -0.9259 -0.0003
vn 0.0002 -1.0000 -0.0000
vn -0.9215 -0.3883 -0.0018
vn -0.9151 -0.4033 -0.0007
vn -0.0000 -0.0006 -1.0000
vn 0.3568 -0.8794 -0.3153
vn 0.3423 -0.8806 -0.3276
vn 0.3047 -0.8772 -0.3711
vn -0.3961 -0.9182 0.0004
vn -0.4025 -0.9154 -0.0005
vn -0.0190 0.9998 0.0005
vn 0.0966 0.9946 0.0385
vn -0.0126 0.9999 0.0078
vn -0.0087 0.9999 0.0118
vn -0.0004 0.9998 0.0190
vn 0.0435 0.9983 0.0398
vn -0.3198 -0.8786 0.3547
vn -0.3388 -0.8768 0.3412
vn -0.3560 -0.8766 0.3237
vn 0.3418 -0.8760 0.3404
vn 0.0443 0.9980 0.0443
vn 0.3411 -0.8756 0.3421
vn 0.0004 -0.8503 0.5263
vn 0.0011 -0.8294 0.5587
s 0
f 1//1 5//1 2//1
f 2//2 5//2 6//2
f 40//3 39//3 41//3
f 6//4 14//4 15//4
f 6//5 15//5 7//5
f 5//6 21//6 9//6
f 36//7 18//7 35//7
f 3//8 4//8 1//8
f 24//9 12//9 30//9
f 27//10 7//10 25//10
f 6//11 10//11 11//11
f 36//12 22//12 37//12
f 23//13 11//13 22//13
f 13//14 14//14 6//14
f 37//15 19//15 18//15
f 32//16 26//16 25//16
f 17//17 16//17 34//17
f 24//18 31//18 13//18
f 41//19 38//19 8//19
f 30//20 29//20 40//20
f 17//21 34//21 35//21
f 18//22 36//22 37//22
f 3//23 33//23 20//23
f 33//24 30//24 40//24
f 25//25 15//25 14//25
f 32//26 25//26 14//26
f 32//27 31//27 30//27
f 40//28 41//28 20//28
f 34//29 16//29 10//29
f 8//30 3//30 20//30
f 34//31 21//31 35//31
f 35//32 21//32 38//32
f 21//33 4//33 8//33
f 38//34 21//34 8//34
f 40//35 29//35 39//35
f 7//36 27//36 1//36
f 27//37 3//37 1//37
f 21//38 5//38 4//38
f 5//39 1//39 4//39
f 7//40 1//40 2//40
f 6//41 7//41 2//41
f 19//42 37//42 11//42
f 37//43 22//43 11//43
f 13//44 12//44 24//44
f 39//45 36//45 38//45
f 18//46 17//46 35//46
f 35//47 38//47 36//47
f 39//48 29//48 36//48
f 29//49 28//49 36//49
f 28//50 23//50 22//50
f 8//51 4//51 3//51
f 12//52 23//52 30//52
f 23//53 28//53 29//53
f 30//54 23//54 29//54
f 25//55 26//55 27//55
f 15//56 25//56 7//56
f 23//57 12//57 13//57
f 13//58 6//58 11//58
f 6//59 5//59 10//59
f 5//60 9//60 10//60
f 10//61 16//61 19//61
f 10//62 19//62 11//62
f 16//63 17//63 19//63
f 19//64 17//64 18//64
f 11//65 23//65 13//65
f 36//66 28//66 22//66
f 8//67 20//67 41//67
f 38//68 41//68 39//68
f 3//69 27//69 33//69
f 31//70 24//70 30//70
f 33//71 26//71 30//71
f 13//72 31//72 14//72
f 31//73 32//73 14//73
f 26//74 33//74 27//74
f 30//75 26//75 32//75
f 33//76 40//76 20//76
f 9//77 21//77 10//77
f 21//78 34//78 10//78
f 2//40 6//40 15//40
f 2//40 15//40 1//40
f 15//79 7//79 1//79
f 25//80 26//80 15//80
f 26//81 27//81 15//81
f 27//82 7//82 15//82
f 38//83 35//83 8//83
f 35//84 21//84 8//84
f 16//85 6//85 10//85
f 12//86 13//86 6//86
f 16//87 17//87 6//87
f 17//88 19//88 6//88
f 19//89 11//89 6//89
f 11//90 12//90 6//90
f 36//91 18//91 38//91
f 18//92 17//92 38//92
f 17//93 35//93 38//93
f 12//94 29//94 30//94
f 11//95 23//95 12//95
f 23//96 29//96 12//96
f 28//97 37//97 36//97
f 28//98 22//98 37//98
