# Blender 4.0.0
# www.blender.org
o decimated_mesh
v 0.000002 0.066364 0.015364
v 0.000003 0.066335 0.014573
v 0.000004 0.062110 0.020040
v -0.008572 0.066351 0.011649
v 0.000003 0.060259 0.019739
v 0.000002 0.064326 0.015498
v -0.010091 0.066364 0.011647
v 0.000003 0.060249 0.020426
v -0.017941 0.057256 0.017489
v -0.017941 0.061281 0.011647
v -0.010797 0.063806 0.011646
v -0.017941 0.062265 0.011647
v -0.017943 0.061322 0.014352
v -0.009677 0.060316 0.020318
v -0.013144 0.060245 0.019980
v -0.014421 0.060285 0.019595
v -0.017939 0.059581 0.017487
v -0.013825 0.060852 0.019450
v -0.003804 0.066365 0.015060
v -0.007957 0.066364 0.013334
v -0.006738 0.062331 0.019537
vn 0.0063 0.9999 -0.0129
vn 0.1667 -0.9859 -0.0139
vn 0.2045 -0.8061 -0.5553
vn -0.0679 -0.5722 0.8173
vn -0.2838 -0.3028 0.9098
vn -0.5143 0.0013 0.8576
vn -0.0130 -0.6597 0.7514
vn -0.1282 0.5665 0.8140
vn 0.2529 -0.7155 -0.6512
vn -0.0534 0.7387 0.6719
vn -0.4422 0.8470 0.2951
vn -0.4486 0.7811 0.4343
vn -0.2198 0.8201 0.5283
vn 0.0091 0.9999 -0.0115
vn 0.0039 0.9999 -0.0096
vn 0.0031 0.9993 -0.0375
vn -0.0001 0.0003 -1.0000
vn -0.0001 0.0001 -1.0000
vn 0.0015 -0.0004 -1.0000
vn -0.3392 0.8372 0.4291
vn -0.3957 0.8286 0.3960
vn -0.0096 0.2031 0.9791
vn 0.3254 -0.3961 -0.8586
vn -1.0000 -0.0000 -0.0009
vn -1.0000 -0.0012 -0.0009
vn -1.0000 0.0009 0.0020
vn -0.0570 0.3718 0.9266
vn 1.0000 -0.0006 0.0008
vn 1.0000 -0.0004 -0.0008
vn 1.0000 -0.0001 -0.0007
vn 1.0000 0.0001 0.0023
vn 0.2712 -0.6946 -0.6663
vn -0.0247 0.7507 0.6602
vn -0.2409 0.4706 0.8488
vn 0.3102 -0.2704 -0.9114
vn -0.1711 0.7851 0.5953
vn -0.0895 0.6055 0.7908
vn -0.4807 0.6546 0.5835
vn -0.0516 0.7585 0.6496
vn 0.0001 1.0000 -0.0004
vn -0.0002 1.0000 0.0003
vn -0.0260 0.7395 0.6727
vn -0.0950 0.4772 0.8737
vn -0.0534 0.4276 0.9024
vn 1.0000 0.0031 0.0022
vn 0.0146 0.9992 -0.0375
vn 0.0091 0.9997 -0.0248
vn 1.0000 -0.0004 -0.0005
vn 1.0000 -0.0021 -0.0024
s 0
f 2//1 4//1 19//1
f 5//2 8//2 9//2
f 5//3 9//3 10//3
f 15//4 9//4 14//4
f 9//5 15//5 16//5
f 9//6 16//6 17//6
f 14//7 9//7 8//7
f 21//8 18//8 15//8
f 11//9 5//9 10//9
f 3//10 1//10 19//10
f 12//11 13//11 7//11
f 18//12 13//12 17//12
f 20//13 18//13 19//13
f 7//14 20//14 4//14
f 20//15 19//15 4//15
f 19//16 1//16 2//16
f 11//17 10//17 12//17
f 12//18 7//18 11//18
f 4//19 11//19 7//19
f 18//20 20//20 7//20
f 13//21 18//21 7//21
f 8//22 3//22 14//22
f 11//23 2//23 6//23
f 13//24 12//24 10//24
f 10//25 9//25 13//25
f 9//26 17//26 13//26
f 15//27 3//27 21//27
f 3//28 8//28 5//28
f 5//29 6//29 3//29
f 3//30 6//30 1//30
f 6//31 2//31 1//31
f 11//32 6//32 5//32
f 21//33 3//33 19//33
f 18//34 16//34 15//34
f 2//35 11//35 4//35
f 18//36 21//36 19//36
f 3//37 15//37 14//37
f 18//38 17//38 16//38
f 21//39 1//39 19//39
f 1//40 7//40 19//40
f 7//41 20//41 19//41
f 3//42 1//42 21//42
f 15//43 14//43 21//43
f 14//44 3//44 21//44
f 3//45 2//45 1//45
f 2//46 4//46 1//46
f 4//47 7//47 1//47
f 5//48 2//48 3//48
f 5//49 6//49 2//49
