# Blender 4.0.0
# www.blender.org
o decimated_mesh
v -0.011520 0.066034 -0.008961
v -0.012783 0.066040 -0.008957
v -0.014627 0.066027 0.000002
v -0.019588 0.061861 -0.008965
v -0.015448 0.066041 0.000002
v -0.012391 0.064413 -0.008962
v -0.015635 0.064163 0.000002
v -0.015204 0.066041 -0.003578
v -0.019617 0.062628 0.000002
v -0.019605 0.062312 -0.006460
v -0.019622 0.060788 0.000002
v -0.019622 0.059793 -0.008961
vn -0.0001 -0.0000 1.0000
vn 0.0010 -0.0018 -1.0000
vn 0.0046 1.0000 0.0018
vn -0.5091 0.8295 -0.2295
vn 0.8414 -0.4550 0.2918
vn 0.6320 -0.7465 0.2079
vn -1.0000 0.0074 -0.0008
vn 0.5361 -0.8390 0.0931
vn -0.6330 0.7730 -0.0431
vn 0.0001 -0.0000 1.0000
vn -0.0007 0.0031 -1.0000
vn -0.0036 0.0024 -1.0000
vn 0.0172 0.9999 0.0012
vn 0.0064 1.0000 0.0030
vn 0.8423 -0.4532 0.2917
vn -1.0000 0.0028 -0.0019
vn -0.9998 0.0164 -0.0099
vn -0.6310 0.7748 -0.0390
vn -0.5811 0.8002 -0.1482
vn 0.0003 0.0003 -1.0000
vn -0.0036 0.0077 -1.0000
vn 0.0046 1.0000 0.0012
vn 0.0172 0.9998 0.0067
vn 0.0009 1.0000 0.0001
vn -0.6294 0.7759 -0.0428
vn -0.6331 0.7731 -0.0389
vn -1.0000 0.0028 -0.0003
vn -1.0000 0.0087 -0.0022
s 0
f 5//1 9//1 7//1
f 6//2 12//2 4//2
f 2//3 8//3 1//3
f 8//4 2//4 4//4
f 6//5 3//5 7//5
f 6//6 7//6 11//6
f 12//7 11//7 10//7
f 6//8 11//8 12//8
f 9//9 5//9 8//9
f 11//1 7//1 9//1
f 7//10 3//10 5//10
f 4//11 2//11 6//11
f 6//12 2//12 1//12
f 8//13 5//13 3//13
f 3//14 1//14 8//14
f 6//15 1//15 3//15
f 9//16 10//16 11//16
f 10//17 4//17 12//17
f 8//18 10//18 9//18
f 8//19 4//19 10//19
f 6//20 4//20 1//20
f 4//21 2//21 1//21
f 2//22 5//22 1//22
f 5//23 3//23 1//23
f 8//24 5//24 2//24
f 8//25 10//25 5//25
f 10//26 9//26 5//26
f 11//27 9//27 12//27
f 9//28 10//28 12//28
