# Blender 4.0.0
# www.blender.org
o decimated_mesh
v -0.020453 0.057923 -0.013625
v -0.019684 0.057922 -0.013597
v -0.013604 0.057922 -0.019684
v -0.012830 0.006149 -0.019612
v -0.020414 0.014619 -0.013597
v -0.013604 0.057922 -0.020417
v -0.019684 0.014619 -0.013597
v -0.019202 0.006149 -0.014603
v -0.020118 0.006153 -0.014619
v -0.012826 0.006154 -0.020371
v -0.018789 0.057907 -0.017828
v -0.014263 0.057922 -0.020321
v -0.014091 0.006157 -0.020347
v -0.018774 0.006156 -0.017988
v -0.018097 0.057921 -0.018562
v -0.018197 0.057525 -0.018632
v -0.018196 0.006153 -0.018639
vn 0.0062 0.9997 0.0255
vn 0.0184 0.1189 -0.9927
vn 0.6169 -0.0581 0.7849
vn -0.4030 0.2558 -0.8787
vn -0.9628 -0.0010 -0.2703
vn -0.6672 -0.0110 -0.7448
vn -0.0000 -0.0000 1.0000
vn -0.1444 -0.0000 -0.9895
vn -0.7480 0.0001 -0.6637
vn 0.9999 0.0150 -0.0000
vn -0.0192 -0.0012 -0.9998
vn -0.0000 1.0000 -0.0000
vn -0.0001 1.0000 0.0002
vn 0.0012 1.0000 -0.0034
vn -0.0046 1.0000 -0.0046
vn -0.0000 0.1198 -0.9928
vn -0.9298 0.0011 -0.3682
vn -0.9288 0.0009 -0.3705
vn -0.6991 0.2914 -0.6529
vn -0.7075 -0.0000 -0.7067
vn -0.0020 -1.0000 -0.0071
vn -0.0010 -1.0000 -0.0012
vn -0.0020 -1.0000 -0.0070
vn 0.0043 1.0000 0.0027
vn 0.0096 0.9999 0.0034
vn -0.3841 0.0001 -0.9233
vn -0.3944 -0.0008 -0.9189
vn -0.0366 0.0006 0.9993
vn -0.8049 0.0016 -0.5934
vn 0.9999 0.0150 0.0052
vn -0.0003 1.0000 -0.0003
vn 0.0010 1.0000 0.0002
vn -0.0431 0.9989 -0.0209
vn -0.6596 -0.0000 -0.7516
vn -0.7074 -0.0116 -0.7067
vn 0.0184 0.1204 -0.9926
vn 0.0126 0.9999 0.0060
vn 0.0043 1.0000 0.0021
vn -0.0000 0.1179 -0.9930
vn -0.3841 -0.0008 -0.9233
vn -0.3945 0.0001 -0.9189
s 0
f 3//1 15//1 11//1
f 7//2 8//2 9//2
f 4//3 7//3 8//3
f 16//4 15//4 12//4
f 5//5 1//5 9//5
f 3//6 4//6 7//6
f 2//7 5//7 7//7
f 12//8 6//8 13//8
f 14//9 16//9 17//9
f 10//10 6//10 3//10
f 13//11 6//11 10//11
f 6//12 12//12 3//12
f 12//13 15//13 3//13
f 11//14 1//14 2//14
f 2//15 3//15 11//15
f 7//16 9//16 5//16
f 9//17 1//17 11//17
f 11//18 14//18 9//18
f 11//19 15//19 16//19
f 3//20 7//20 2//20
f 13//21 10//21 4//21
f 4//22 8//22 17//22
f 13//23 4//23 17//23
f 9//24 8//24 14//24
f 14//25 8//25 17//25
f 17//26 16//26 13//26
f 13//27 16//27 12//27
f 2//28 1//28 5//28
f 14//29 11//29 16//29
f 3//30 4//30 10//30
f 2//12 3//12 6//12
f 2//12 6//12 12//12
f 2//31 12//31 15//31
f 2//32 15//32 1//32
f 15//33 11//33 1//33
f 7//34 2//34 4//34
f 4//35 2//35 3//35
f 8//36 9//36 5//36
f 14//37 9//37 17//37
f 17//38 9//38 8//38
f 8//39 5//39 7//39
f 13//40 17//40 12//40
f 17//41 16//41 12//41
