# Blender 4.0.0
# www.blender.org
o decimated_mesh
v 0.012914 0.078194 0.008138
v 0.012087 0.078191 0.008138
v 0.014391 0.078143 0.000003
v 0.014035 0.077887 0.008133
v 0.013666 0.078186 0.007203
v 0.011314 0.077975 0.008138
v 0.015270 0.078214 0.000005
v 0.015636 0.077984 0.003673
v 0.013888 0.077931 0.000003
v 0.014607 0.066512 0.000003
v 0.012098 0.066512 0.008138
v 0.015590 0.077823 0.004722
v 0.014231 0.077477 0.008137
v 0.015327 0.066512 0.000003
v 0.013192 0.066512 0.008127
v 0.015755 0.077403 0.004533
v 0.014808 0.077068 0.006999
v 0.016385 0.077788 0.000004
v 0.016383 0.077123 0.000850
v 0.015034 0.066512 0.003792
vn 0.0003 -0.0011 1.0000
vn 0.9066 0.1839 0.3797
vn 0.2595 0.9445 0.2012
vn -0.0804 0.9964 -0.0286
vn 0.0013 0.0059 -1.0000
vn 0.1792 0.9828 0.0438
vn 0.9159 -0.0987 0.3891
vn 0.9819 -0.0768 0.1734
vn 0.7832 0.6086 0.1273
vn -0.0003 -1.0000 -0.0001
vn 0.9931 -0.0932 -0.0712
vn -0.2686 0.9598 -0.0817
vn -0.0030 0.9999 -0.0106
vn 0.9416 0.2983 0.1563
vn 0.9538 0.0600 0.2942
vn 0.9702 0.1896 0.1511
vn 0.3572 0.9338 0.0229
vn 0.3668 0.9181 0.1501
vn 0.0005 -0.0000 1.0000
vn 0.0107 -0.0019 0.9999
vn 0.0001 -0.0019 1.0000
vn 0.0076 0.0119 0.9999
vn 0.8991 0.2248 0.3757
vn -0.3855 0.9140 -0.1269
vn -0.0000 -0.0001 1.0000
vn -0.0002 -0.0000 1.0000
vn -0.0002 0.0005 1.0000
vn 0.9340 -0.0855 0.3470
vn 0.8762 -0.0834 0.4747
vn 0.8362 0.4012 0.3738
vn -0.0000 -1.0000 -0.0001
vn -0.0000 -1.0000 0.0001
vn 0.9915 -0.1048 0.0768
vn 0.0064 1.0000 0.0053
vn 0.9515 0.0651 0.3008
vn 0.3742 0.9141 0.1565
vn 0.0001 -0.0002 1.0000
vn 0.9518 0.0599 0.3009
vn 0.9535 0.0652 0.2941
vn -0.0000 -0.0000 1.0000
vn -0.0030 1.0000 0.0016
vn 0.0011 -0.0001 1.0000
vn 0.0207 0.9997 0.0085
vn 0.0003 -0.0000 -1.0000
vn -0.0000 -0.0000 -1.0000
vn 0.8999 0.2137 0.3801
vn 0.3802 0.9116 0.1563
vn 0.3650 0.9187 0.1510
vn 0.9083 0.1871 0.3741
s 0
f 2//1 6//1 13//1
f 16//2 12//2 13//2
f 1//3 4//3 5//3
f 7//4 3//4 2//4
f 3//5 7//5 18//5
f 5//6 8//6 7//6
f 20//7 17//7 15//7
f 20//8 19//8 16//8
f 8//9 12//9 18//9
f 11//10 10//10 20//10
f 19//11 14//11 18//11
f 3//12 6//12 2//12
f 2//13 1//13 5//13
f 16//14 18//14 12//14
f 11//15 10//15 9//15
f 19//16 18//16 16//16
f 8//17 18//17 7//17
f 4//18 12//18 5//18
f 6//19 11//19 13//19
f 11//20 15//20 13//20
f 2//21 13//21 1//21
f 4//22 1//22 13//22
f 17//23 16//23 13//23
f 6//24 3//24 9//24
f 18//25 10//25 14//25
f 10//26 18//26 9//26
f 9//27 18//27 3//27
f 20//28 16//28 17//28
f 13//29 15//29 17//29
f 13//30 12//30 4//30
f 14//31 20//31 10//31
f 20//32 15//32 11//32
f 19//33 20//33 14//33
f 5//34 7//34 2//34
f 11//35 9//35 6//35
f 8//36 5//36 12//36
f 1//37 2//37 6//37
f 9//38 6//38 10//38
f 10//39 6//39 11//39
f 11//40 1//40 6//40
f 7//41 2//41 1//41
f 11//42 13//42 1//42
f 5//43 7//43 1//43
f 18//44 14//44 3//44
f 14//45 10//45 9//45
f 14//45 9//45 3//45
f 17//46 12//46 13//46
f 12//47 8//47 4//47
f 8//48 5//48 4//48
f 16//49 12//49 17//49
