# Blender 4.0.0
# www.blender.org
o decimated_mesh
v -0.018695 0.002189 -0.014547
v -0.017311 0.002191 -0.014601
v -0.019276 0.014616 -0.014601
v -0.019736 0.014615 0.012636
v -0.018008 0.002379 0.012636
v -0.020139 0.014616 -0.014601
v -0.018923 0.002379 0.012636
v -0.020326 0.005926 -0.014129
v -0.020383 0.014617 -0.014071
v -0.020086 0.005915 -0.014601
v -0.020418 0.014615 0.012636
v -0.020373 0.006011 0.012636
vn -0.9900 -0.1398 -0.0167
vn -0.0000 1.0000 -0.0009
vn 0.0013 -1.0000 0.0070
vn -0.9089 -0.0032 -0.4171
vn -0.9167 -0.3996 -0.0049
vn -0.9874 -0.1561 -0.0242
vn -0.0000 -0.0000 1.0000
vn -0.0001 1.0000 0.0001
vn 0.0005 1.0000 0.0001
vn -0.0000 -1.0000 0.0070
vn -0.8469 -0.3224 -0.4230
vn -0.8912 -0.0055 -0.4535
vn -1.0000 -0.0052 -0.0013
vn -1.0000 -0.0065 -0.0017
vn -0.0000 -0.0000 -1.0000
vn -0.0001 -0.0000 -1.0000
vn -0.0391 -0.0291 -0.9988
vn -0.9287 -0.3708 -0.0005
vn -0.9876 -0.1562 -0.0167
vn -0.9899 -0.1397 -0.0244
s 0
f 5//1 4//1 3//1
f 3//2 6//2 9//2
f 2//3 5//3 1//3
f 6//4 8//4 9//4
f 1//5 7//5 8//5
f 5//6 3//6 2//6
f 4//7 11//7 12//7
f 12//7 7//7 5//7
f 5//7 4//7 12//7
f 9//8 11//8 4//8
f 4//9 3//9 9//9
f 5//10 7//10 1//10
f 1//11 8//11 10//11
f 6//12 10//12 8//12
f 11//13 9//13 12//13
f 8//14 12//14 9//14
f 10//15 6//15 3//15
f 3//16 2//16 10//16
f 2//17 1//17 10//17
f 12//18 8//18 7//18
f 6//15 3//15 2//15
f 6//16 2//16 10//16
f 3//19 2//19 4//19
f 4//20 2//20 5//20
f 4//7 12//7 7//7
f 4//7 7//7 5//7
