# Blender 4.0.0
# www.blender.org
o decimated_mesh
v 0.000005 0.078206 0.015169
v 0.012084 0.078191 0.008139
v 0.010821 0.078179 0.010970
v 0.000005 0.078143 0.014390
v 0.013397 0.078133 0.008140
v 0.000005 0.077932 0.013888
v 0.000007 0.077833 0.016347
v 0.003689 0.078176 0.015091
v 0.011450 0.077906 0.011465
v 0.011266 0.077957 0.008139
v 0.000841 0.077126 0.016385
v 0.004689 0.077859 0.015580
v 0.003189 0.077958 0.015752
v 0.008065 0.078160 0.013335
v 0.014173 0.077747 0.008146
v 0.012096 0.066513 0.008139
v 0.000005 0.077152 0.016410
v 0.004591 0.077416 0.015754
v 0.011645 0.077329 0.011655
v 0.008413 0.077817 0.013962
v 0.000005 0.066504 0.014608
v 0.013152 0.066513 0.008139
v 0.003758 0.066504 0.015038
v 0.000005 0.066504 0.015328
v 0.014023 0.077077 0.008592
v 0.007877 0.066508 0.013335
v 0.007071 0.077101 0.014771
v 0.008592 0.077067 0.014023
v 0.010967 0.066513 0.010965
vn -0.0457 0.9957 -0.0806
vn 0.0320 0.0913 0.9953
vn 0.3862 0.2717 0.8815
vn 0.9767 -0.0890 0.1952
vn 1.0000 -0.0000 -0.0000
vn -0.2429 0.8474 -0.4721
vn 0.1309 0.5593 0.8185
vn 0.3559 -0.0988 0.9293
vn 0.0242 0.9440 0.3289
vn 0.6062 -0.0925 0.7899
vn 0.4373 0.1764 0.8819
vn 0.2460 0.9465 0.2087
vn 0.5676 0.4241 0.7056
vn 0.7097 0.4249 0.5619
vn 0.4539 0.0560 0.8893
vn 0.0766 -0.1047 0.9915
vn -0.1998 0.9036 -0.3790
vn 0.7833 -0.0884 0.6153
vn 0.0088 0.9999 0.0129
vn 0.7797 0.2167 0.5875
vn -0.0000 -0.0006 1.0000
vn -0.0024 -0.0002 1.0000
vn -0.0020 0.0064 1.0000
vn -0.0004 0.0140 0.9999
vn 0.3844 0.2621 0.8852
vn -1.0000 0.0040 0.0035
vn 1.0000 0.0001 -0.0000
vn 0.5889 0.2044 0.7819
vn 0.3806 -0.0894 0.9204
vn 0.4378 -0.0879 0.8948
vn 0.0142 0.9531 0.3022
vn 0.6151 -0.0886 0.7834
vn 0.2104 0.9444 0.2527
vn -0.0001 -1.0000 -0.0000
vn -0.0003 1.0000 0.0009
vn -0.0000 1.0000 -0.0000
vn -0.0027 1.0000 -0.0011
vn -0.0001 1.0000 0.0020
vn 0.1713 -0.0775 0.9822
vn 0.1810 0.9015 0.3930
vn 0.1354 0.9346 0.3289
vn 0.1046 0.9185 0.3813
vn 0.4224 0.8534 0.3056
vn 0.2601 0.9005 0.3486
vn 0.1507 0.3316 0.9313
vn 0.4714 0.0342 0.8812
vn 0.0260 -0.1010 0.9945
vn 0.1450 0.2230 0.9640
vn 0.7878 -0.0911 0.6091
vn 0.0443 0.9987 0.0242
vn 0.0085 0.9999 0.0125
vn -0.0048 1.0000 0.0023
vn 1.0000 -0.0000 -0.0001
vn 0.0086 0.9998 0.0155
vn 0.0052 1.0000 0.0068
vn 0.0128 0.9997 0.0229
vn -0.0010 -0.0001 1.0000
vn -0.0000 -0.0000 1.0000
vn -0.0001 -0.0000 1.0000
vn 0.4544 0.0330 0.8902
vn 0.4710 0.0555 0.8804
vn -0.0000 1.0000 0.0014
vn 0.3804 -0.0957 0.9199
vn 0.3575 -0.0883 0.9297
vn -0.0008 1.0000 0.0003
vn -0.0073 -0.0000 1.0000
vn -0.0046 1.0000 -0.0036
s 0
f 2//1 4//1 1//1
f 7//2 17//2 11//2
f 12//3 27//3 20//3
f 15//4 25//4 22//4
f 21//5 17//5 24//5
f 2//6 10//6 6//6
f 7//7 12//7 13//7
f 27//8 18//8 26//8
f 8//9 7//9 13//9
f 29//10 28//10 26//10
f 27//11 28//11 20//11
f 9//12 5//12 3//12
f 9//13 20//13 19//13
f 9//14 19//14 15//14
f 10//15 6//15 21//15
f 11//16 24//16 23//16
f 4//17 2//17 6//17
f 29//18 25//18 19//18
f 8//19 14//19 2//19
f 19//20 25//20 15//20
f 15//21 16//21 22//21
f 16//22 15//22 10//22
f 10//23 15//23 2//23
f 2//24 15//24 5//24
f 18//25 27//25 12//25
f 7//26 1//26 17//26
f 1//27 17//27 4//27
f 4//27 17//27 6//27
f 6//5 17//5 21//5
f 28//28 19//28 20//28
f 23//29 26//29 18//29
f 27//30 26//30 28//30
f 8//31 1//31 7//31
f 29//32 19//32 28//32
f 3//33 14//33 9//33
f 24//34 21//34 23//34
f 21//35 26//35 16//35
f 16//36 29//36 22//36
f 29//37 16//37 26//37
f 26//38 21//38 23//38
f 11//39 23//39 18//39
f 12//40 20//40 14//40
f 14//41 8//41 12//41
f 8//42 13//42 12//42
f 15//43 5//43 9//43
f 20//44 9//44 14//44
f 7//45 18//45 12//45
f 10//46 21//46 16//46
f 11//47 17//47 24//47
f 11//48 18//48 7//48
f 29//49 22//49 25//49
f 3//50 5//50 2//50
f 2//51 1//51 8//51
f 3//52 2//52 14//52
f 4//5 21//5 6//5
f 4//5 24//5 21//5
f 4//5 1//5 24//5
f 24//53 1//53 17//53
f 8//54 3//54 1//54
f 3//55 2//55 1//55
f 14//56 3//56 8//56
f 5//57 2//57 22//57
f 22//58 10//58 16//58
f 22//59 2//59 10//59
f 10//60 6//60 16//60
f 16//61 6//61 21//61
f 16//62 21//62 23//62
f 26//63 27//63 23//63
f 27//64 18//64 23//64
f 16//62 23//62 22//62
f 22//65 23//65 26//65
f 15//66 5//66 22//66
f 29//67 22//67 26//67
