# Blender 4.0.0
# www.blender.org
o decimated_mesh
v 0.016512 0.014620 0.019399
v 0.016979 0.001740 0.012884
v 0.018313 0.005894 0.016644
v 0.019256 0.005887 0.016638
v 0.016705 0.014620 -0.019317
v 0.017091 0.000944 -0.014140
v 0.017092 0.000888 0.000003
v 0.018660 0.001724 0.012862
v 0.018057 0.014620 0.018747
v 0.017887 0.057855 0.018750
v 0.016511 0.057931 0.019341
v 0.017099 0.006080 -0.019109
v 0.017097 0.002285 -0.017913
v 0.019649 0.062590 0.000250
v 0.016703 0.057934 -0.019255
v 0.020316 0.005940 0.014060
v 0.019381 0.006228 0.016541
v 0.018445 0.014620 0.018444
v 0.018427 0.057167 0.018425
v 0.018751 0.057691 0.017973
v 0.018340 0.057950 0.018297
v 0.018449 0.006619 -0.018442
v 0.018027 0.006173 -0.018742
v 0.019647 0.060709 0.013380
v 0.019644 0.062282 0.006146
v 0.019713 0.060850 -0.012799
v 0.019714 0.062070 -0.006754
v 0.017928 0.057891 -0.018739
v 0.018196 0.001378 -0.013975
v 0.020387 0.006543 0.014041
v 0.018749 0.057833 -0.017940
v 0.017871 0.003033 -0.017864
v 0.017910 0.002319 -0.017153
v 0.020226 0.061633 -0.000258
v 0.020032 0.060277 -0.012799
v 0.018428 0.057173 -0.018423
v 0.018611 0.001643 -0.013610
v 0.020320 0.057934 0.014260
v 0.020238 0.059537 0.013457
v 0.018777 0.006122 -0.017977
v 0.020333 0.006104 -0.014150
v 0.018842 0.002270 -0.014209
v 0.020084 0.061859 0.001939
v 0.020305 0.057964 -0.014321
v 0.020386 0.058725 0.013453
v 0.020287 0.005679 -0.013599
v 0.020277 0.059576 -0.012799
v 0.020423 0.058112 -0.013444
vn -0.6999 -0.3424 0.6268
vn 0.0034 -0.3005 0.9538
vn 0.3887 0.0015 0.9214
vn -0.0082 -0.9978 0.0659
vn 0.3832 -0.1668 0.9085
vn -0.7604 0.6486 0.0333
vn 0.7274 -0.0736 0.6822
vn 0.4458 -0.8951 0.0039
vn 0.9999 0.0064 0.0133
vn -0.8372 0.5468 -0.0041
vn 0.3884 0.0013 -0.9215
vn 0.2677 0.8117 0.5192
vn 0.6151 0.0006 0.7884
vn 0.2355 0.8398 -0.4892
vn -0.4656 0.8675 -0.1749
vn 0.9236 -0.3834 -0.0005
vn -0.0006 -0.6718 0.7407
vn 0.9911 0.0001 -0.1335
vn 0.9274 -0.0986 0.3608
vn 0.8554 0.3515 -0.3805
vn 0.3682 0.7656 0.5276
vn 0.5786 -0.5596 -0.5934
vn -0.7148 0.6969 -0.0584
vn 0.7970 0.4437 -0.4098
vn 0.8173 0.0006 -0.5762
vn 0.6736 -0.6899 -0.2650
vn 0.7972 -0.5441 -0.2616
vn 0.6876 -0.2270 -0.6897
vn -0.9922 -0.1248 -0.0004
vn 0.9730 0.1673 -0.1592
vn 0.7921 0.4275 0.4356
vn 0.6117 -0.1054 0.7840
vn -0.4190 0.8872 0.1931
vn 0.3314 -0.2837 -0.8999
vn 0.8569 0.5156 0.0025
vn 0.9300 0.3624 0.0606
vn 0.9536 0.1724 0.2467
vn 0.5343 0.6815 -0.5001
vn 0.8938 -0.3431 -0.2889
vn 0.5373 -0.8434 0.0016
vn 0.5790 0.0005 -0.8153
vn 0.6740 0.1921 0.7133
vn 0.8948 -0.0015 0.4465
vn 0.3946 0.0012 0.9188
vn -1.0000 -0.0000 -0.0050
vn 0.9994 0.0338 0.0050
vn -0.9994 -0.0333 -0.0134
vn 0.9996 0.0295 0.0033
vn 0.3656 -0.9308 -0.0037
vn 0.9944 0.1052 -0.0132
vn 0.9835 0.1791 0.0265
vn 0.9999 -0.0001 -0.0117
vn 1.0000 -0.0017 -0.0019
vn 0.6929 0.1749 -0.6995
vn 0.9428 0.3295 -0.0502
vn 0.4034 0.0008 -0.9150
vn 0.3683 -0.0057 -0.9297
vn 0.5174 0.0020 0.8558
vn 0.8885 -0.2812 -0.3626
vn 0.9034 -0.2770 -0.3273
vn 0.9227 -0.3829 -0.0446
vn 0.9305 -0.3663 0.0025
vn 0.0037 -0.6716 0.7409
vn 0.3867 -0.8741 -0.2938
vn 0.3325 -0.8888 -0.3152
vn 0.9023 -0.2272 0.3663
vn 0.8958 0.3132 -0.3152
vn -0.9860 -0.0495 -0.1591
vn 0.8399 -0.4257 0.3366
vn 0.8324 0.0009 -0.5542
vn 0.6944 -0.1905 -0.6939
vn 0.9940 -0.1095 -0.0002
vn 0.9930 -0.1178 0.0001
vn 0.3774 -0.2667 -0.8868
vn 0.8484 0.5284 -0.0313
vn 0.8271 0.5612 0.0299
vn 0.8862 0.4528 0.0981
vn 0.9680 0.2483 0.0371
vn 0.9212 -0.0005 0.3892
vn 0.9277 0.0010 0.3734
vn 0.9152 -0.3529 -0.1948
vn 0.9966 0.0010 0.0822
vn 0.8882 0.2413 0.3911
vn 0.9187 -0.0008 -0.3950
vn 0.9263 0.0008 -0.3767
vn 0.9394 0.3390 -0.0512
vn 0.8696 0.4840 -0.0979
vn 0.7060 0.5207 0.4800
vn 0.5351 0.0011 -0.8448
vn 0.6786 0.1919 0.7090
vn 0.8125 0.0006 0.5830
vn 0.9995 0.0301 0.0050
vn 0.9994 0.0347 0.0031
vn 0.3887 0.0012 0.9214
vn 0.3946 0.0015 0.9188
vn 0.0037 -0.6722 0.7404
vn -0.0006 -0.6709 0.7416
vn 0.8905 -0.2960 -0.3456
vn 0.9277 -0.0004 0.3733
vn 0.9211 0.0004 0.3892
vn 0.9985 0.0555 0.0001
vn 0.9187 0.0008 -0.3950
vn 0.8903 -0.2745 -0.3633
vn 0.9263 -0.0007 -0.3767
vn 1.0000 -0.0000 0.0014
s 0
f 1//1 2//1 3//1
f 1//2 3//2 4//2
f 1//3 9//3 10//3
f 2//4 7//4 8//4
f 4//5 9//5 1//5
f 11//6 25//6 14//6
f 4//7 17//7 18//7
f 7//8 29//8 8//8
f 48//9 34//9 30//9
f 11//10 14//10 15//10
f 5//11 15//11 28//11
f 11//12 10//12 24//12
f 19//13 9//13 18//13
f 26//14 28//14 15//14
f 15//15 27//15 26//15
f 37//16 46//16 8//16
f 3//17 8//17 4//17
f 41//18 44//18 48//18
f 16//19 30//19 17//19
f 44//20 31//20 35//20
f 21//21 24//21 10//21
f 13//22 32//22 33//22
f 27//23 15//23 14//23
f 26//24 35//24 31//24
f 36//25 40//25 22//25
f 29//26 33//26 37//26
f 33//27 42//27 37//27
f 23//28 40//28 32//28
f 6//29 7//29 2//29
f 48//30 44//30 47//30
f 20//31 39//31 24//31
f 9//32 4//32 18//32
f 25//33 11//33 24//33
f 32//34 13//34 12//34
f 43//35 34//35 14//35
f 39//36 43//36 25//36
f 45//37 39//37 38//37
f 26//38 31//38 28//38
f 42//39 33//39 41//39
f 8//40 29//40 37//40
f 36//41 22//41 23//41
f 21//42 10//42 19//42
f 20//43 18//43 17//43
f 11//44 1//44 10//44
f 15//45 5//45 1//45
f 1//46 2//46 5//46
f 13//47 6//47 5//47
f 6//48 5//48 2//48
f 1//45 11//45 15//45
f 7//49 6//49 29//49
f 47//50 34//50 48//50
f 34//51 39//51 45//51
f 45//52 30//52 34//52
f 30//53 41//53 48//53
f 28//54 31//54 36//54
f 47//55 35//55 34//55
f 28//56 23//56 5//56
f 23//57 12//57 5//57
f 19//58 10//58 9//58
f 41//59 33//59 40//59
f 33//60 32//60 40//60
f 42//61 46//61 37//61
f 46//62 16//62 8//62
f 3//63 2//63 8//63
f 29//64 6//64 33//64
f 6//65 13//65 33//65
f 16//66 17//66 4//66
f 47//67 44//67 35//67
f 12//68 13//68 5//68
f 16//69 4//69 8//69
f 36//70 31//70 40//70
f 23//71 22//71 40//71
f 41//72 30//72 46//72
f 16//73 46//73 30//73
f 23//74 32//74 12//74
f 14//75 34//75 27//75
f 14//76 25//76 43//76
f 25//77 24//77 39//77
f 39//78 34//78 43//78
f 30//79 38//79 20//79
f 20//80 17//80 30//80
f 46//81 42//81 41//81
f 30//82 45//82 38//82
f 39//83 20//83 38//83
f 44//84 41//84 31//84
f 40//85 31//85 41//85
f 34//86 35//86 27//86
f 35//87 26//87 27//87
f 24//88 21//88 20//88
f 23//89 28//89 36//89
f 20//90 21//90 19//90
f 20//91 19//91 18//91
f 5//92 1//92 6//92
f 6//93 1//93 2//93
f 9//94 11//94 1//94
f 9//95 10//95 11//95
f 8//96 4//96 2//96
f 4//97 3//97 2//97
f 32//98 41//98 33//98
f 30//99 38//99 17//99
f 38//100 20//100 17//100
f 45//101 48//101 34//101
f 44//102 40//102 31//102
f 41//103 32//103 40//103
f 44//104 41//104 40//104
f 48//105 45//105 30//105
