# Blender 4.0.0
# www.blender.org
o decimated_mesh
v -1.033195 -0.623758 0.067526
v -0.995689 -0.624385 0.067526
v -1.033075 -0.623910 0.129308
v -1.044441 -0.619055 0.067522
v -0.995689 -0.611773 0.067526
v -0.995692 -0.623204 0.141630
v -1.041003 -0.620437 0.141667
v -1.035932 -0.568489 0.067526
v -1.014331 -0.568489 0.141812
v -0.995689 -0.590522 0.141812
v -1.045980 -0.610406 0.141698
v -1.047155 -0.568489 0.067526
v -1.046485 -0.568491 0.141726
vn -0.0000 -0.0001 1.0000
vn 1.0000 -0.0001 -0.0000
vn -0.3994 -0.9168 0.0014
vn 0.0001 -1.0000 -0.0000
vn -0.7453 -0.6306 0.2167
vn -0.0009 -0.0035 1.0000
vn 0.0136 -0.9998 0.0159
vn -0.9999 -0.0121 0.0090
vn -0.0000 -0.0000 -1.0000
vn -0.0003 -0.0000 1.0000
vn 1.0000 -0.0000 -0.0000
vn -0.0591 -0.9703 0.2348
vn -0.3858 -0.9226 -0.0015
vn -0.0000 -1.0000 -0.0000
vn -0.8952 -0.4444 0.0332
vn -0.7189 -0.6683 0.1912
vn -0.0027 -0.0007 1.0000
vn 0.0005 -0.0056 1.0000
vn -0.0017 -0.0014 1.0000
vn -0.0167 -0.9999 -0.0024
vn -0.9985 -0.0536 -0.0145
vn -0.0004 -0.0001 1.0000
vn -0.0000 -0.0000 1.0000
vn -0.7163 -0.6660 0.2083
vn -0.7507 -0.6352 0.1817
s 0
f 4//1 8//1 12//1
f 10//2 6//2 5//2
f 4//3 3//3 7//3
f 9//4 13//4 8//4
f 10//5 9//5 8//5
f 11//6 7//6 10//6
f 3//7 2//7 6//7
f 11//8 13//8 12//8
f 8//9 5//9 1//9
f 5//9 2//9 1//9
f 8//10 4//10 1//10
f 6//11 2//11 5//11
f 7//12 3//12 6//12
f 4//13 1//13 3//13
f 12//14 8//14 13//14
f 4//15 7//15 11//15
f 10//16 8//16 5//16
f 9//17 13//17 11//17
f 7//18 6//18 10//18
f 10//19 9//19 11//19
f 3//20 1//20 2//20
f 12//21 4//21 11//21
f 1//22 12//22 4//22
f 1//23 8//23 12//23
f 8//24 5//24 9//24
f 9//25 5//25 10//25
f 12//14 8//14 9//14
f 12//4 9//4 13//4
