# Blender 4.0.0
# www.blender.org
o decimated_mesh
v -1.046429 0.396210 0.141672
v -1.042038 0.396210 0.151118
v -1.045539 -0.608504 0.141798
v -1.040793 -0.617956 0.148507
v -1.031825 -0.608229 0.152923
v -0.505854 0.396210 0.141856
v -1.040592 -0.620405 0.141911
v -0.505854 0.396210 0.153764
v -0.505907 -0.622619 0.141813
v -0.505908 -0.617016 0.151185
vn -0.9068 -0.0007 0.4215
vn -0.9178 -0.3805 0.1132
vn 0.0033 -0.0025 1.0000
vn -0.0011 -0.8583 0.5132
vn -0.0003 0.0001 1.0000
vn -0.0000 1.0000 -0.0000
vn -1.0000 0.0001 -0.0001
vn -1.0000 0.0001 -0.0000
vn -0.0038 -0.4104 0.9119
vn -0.4393 -0.0029 0.8984
vn -0.8180 -0.0025 0.5752
vn -0.0049 0.0017 1.0000
vn -0.0038 -0.9375 0.3480
vn -0.0000 -0.0000 1.0000
vn -0.0002 -0.0096 -1.0000
vn -0.0003 -0.0000 1.0000
vn -0.0000 0.0001 1.0000
s 0
f 3//1 2//1 1//1
f 7//2 4//2 3//2
f 5//3 10//3 8//3
f 4//4 9//4 10//4
f 3//5 6//5 1//5
f 8//6 6//6 2//6
f 6//6 1//6 2//6
f 9//7 10//7 6//7
f 6//8 10//8 8//8
f 5//9 4//9 10//9
f 2//10 4//10 5//10
f 3//11 4//11 2//11
f 8//12 2//12 5//12
f 4//13 7//13 9//13
f 6//14 3//14 9//14
f 9//15 7//15 3//15
f 6//16 1//16 9//16
f 9//17 1//17 3//17
f 8//8 6//8 9//8
f 8//7 9//7 10//7
