# Blender 4.0.0
# www.blender.org
o decimated_mesh
v 0.009286 0.338915 0.068245
v 0.005589 -0.497540 0.069274
v 0.005531 0.338915 -0.003467
v -0.001270 0.338915 0.068245
v 0.007147 -0.497540 -0.001687
v -0.049346 -0.497539 0.006969
v -0.048085 0.338917 -0.000014
v -0.044624 -0.497540 -0.004597
vn 0.9997 -0.0044 0.0220
vn -0.7501 -0.0053 0.6613
vn -0.0000 -1.0000 -0.0000
vn -0.0643 0.0052 -0.9979
vn -0.9258 -0.0018 -0.3780
vn -0.0000 1.0000 -0.0000
vn 0.9986 0.0018 -0.0523
vn -0.8247 0.0060 0.5656
vn -0.0000 0.0012 1.0000
vn -0.0000 -1.0000 0.0001
vn 0.0561 -0.0020 -0.9984
vn -0.0001 -1.0000 -0.0000
s 0
f 5//1 1//1 2//1
f 4//2 6//2 2//2
f 2//3 6//3 5//3
f 3//4 8//4 7//4
f 7//5 8//5 6//5
f 7//6 4//6 3//6
f 4//6 1//6 3//6
f 5//7 3//7 1//7
f 4//8 7//8 6//8
f 2//9 1//9 4//9
f 8//10 5//10 6//10
f 3//11 5//11 8//11
f 8//3 5//3 2//3
f 6//12 8//12 2//12
f 7//6 4//6 1//6
f 3//6 7//6 1//6
