# Blender 4.0.0
# www.blender.org
o Fridge_17_Mesh_8f481464_6_collision_10
v -0.505854 0.534565 0.141638
v -0.505854 0.531410 0.150754
v -0.505854 0.534565 0.138275
v -0.985526 0.534565 0.141638
v -0.505854 0.523856 0.153573
v -0.985526 0.531410 0.150754
v -0.985526 0.525250 0.153055
v -0.505854 0.519225 0.138275
v -0.985526 0.534565 0.138275
v -0.505854 0.522515 0.154073
v -0.985526 0.522515 0.154073
v -0.505854 0.396253 0.141856
v -0.985526 0.519225 0.138275
v -0.505854 0.396253 0.153765
v -0.985526 0.396320 0.153765
v -0.977732 0.396253 0.153765
v -0.985526 0.396253 0.141856
v -0.985526 0.396253 0.145435
vn 1.0000 -0.0000 -0.0000
vn -0.0000 1.0000 -0.0000
vn -0.0000 0.9450 0.3270
vn -0.0000 0.3499 0.9368
vn -0.0000 0.3496 0.9369
vn -0.0000 -0.0000 -1.0000
vn -1.0000 -0.0000 -0.0000
vn -0.0000 0.3492 0.9370
vn -0.0000 0.3487 0.9372
vn -0.0000 -0.0291 -0.9996
vn -0.0000 -0.0024 1.0000
vn -0.0000 -1.0000 -0.0000
vn -0.0087 -0.9999 0.0081
s 0
f 1//1 2//1 5//1
f 1//1 5//1 10//1
f 1//1 10//1 14//1
f 1//1 14//1 12//1
f 1//1 12//1 8//1
f 1//1 8//1 3//1
f 1//2 3//2 9//2
f 1//2 9//2 4//2
f 1//3 4//3 6//3
f 1//3 6//3 2//3
f 2//4 6//4 7//4
f 2//5 7//5 5//5
f 3//6 8//6 13//6
f 3//6 13//6 9//6
f 4//7 9//7 13//7
f 4//7 13//7 17//7
f 4//7 17//7 18//7
f 4//7 18//7 15//7
f 4//7 15//7 11//7
f 4//7 11//7 7//7
f 4//7 7//7 6//7
f 5//8 7//8 10//8
f 7//9 11//9 10//9
f 8//10 12//10 17//10
f 8//10 17//10 13//10
f 10//11 11//11 16//11
f 10//11 16//11 14//11
f 11//11 15//11 16//11
f 12//12 14//12 16//12
f 12//12 16//12 18//12
f 12//12 18//12 17//12
f 15//13 18//13 16//13
