# Blender 4.0.0
# www.blender.org
o decimated_mesh
v 0.009021 -0.552888 0.138766
v -0.006136 -0.552888 0.138766
v 0.007085 -0.551692 0.068187
v -0.051090 -0.619634 0.068100
v -0.049283 -0.608147 0.138766
v 0.005894 -0.621312 0.068288
v 0.006628 -0.619781 0.138563
v -0.049306 -0.623642 0.138533
vn -0.7530 0.6450 -0.1301
vn 0.0688 -0.9974 0.0210
vn 0.9998 -0.0171 -0.0101
vn -0.0000 0.9999 0.0169
vn -0.0000 -0.0030 1.0000
vn 0.0031 -0.0024 1.0000
vn 0.0005 -0.0150 0.9999
vn -0.7857 0.6135 -0.0796
vn -0.9997 0.0011 0.0254
vn -0.0292 -0.9980 -0.0561
vn 0.0033 -0.0015 -1.0000
vn 0.9990 -0.0357 -0.0280
vn -0.0000 -0.0000 1.0000
vn 0.0030 -0.0031 1.0000
vn 0.9993 -0.0357 -0.0096
vn 0.9995 -0.0171 -0.0277
s 0
f 4//1 2//1 3//1
f 8//2 6//2 7//2
f 7//3 6//3 3//3
f 3//4 2//4 1//4
f 7//5 1//5 2//5
f 2//6 5//6 7//6
f 5//7 8//7 7//7
f 4//8 5//8 2//8
f 5//9 4//9 8//9
f 8//10 4//10 6//10
f 4//11 3//11 6//11
f 3//12 1//12 7//12
f 2//13 5//13 1//13
f 5//14 7//14 1//14
f 7//15 6//15 1//15
f 6//16 3//16 1//16
