# Blender 4.0.0
# www.blender.org
o Fridge_17_Mesh_8f481464_6_collision_1
v -0.505810 -0.126735 0.141856
v -0.049300 -0.126735 0.141856
v -0.505810 -0.126735 0.153765
v -0.505810 0.519159 0.138334
v -0.049300 -0.126735 0.153765
v -0.049300 0.519159 0.138334
v -0.505810 0.522525 0.154073
v -0.505810 0.534565 0.138334
v -0.049300 0.522525 0.154073
v -0.049300 0.534565 0.138334
v -0.049300 0.531199 0.150828
v -0.505810 0.531393 0.150754
v -0.505810 0.534565 0.141637
v -0.049300 0.534565 0.141637
v -0.049300 0.531393 0.150754
vn -0.0000 -1.0000 -0.0000
vn -1.0000 -0.0000 -0.0000
vn -0.0000 -0.0055 -1.0000
vn 1.0000 -0.0000 -0.0000
vn -0.0000 -0.0005 1.0000
vn -0.0000 -0.0000 -1.0000
vn -0.0000 0.3503 0.9366
vn -0.0000 0.3505 0.9366
vn -0.0000 1.0000 -0.0000
vn -0.0000 0.3561 0.9345
vn -0.0000 0.9445 0.3286
s 0
f 1//1 2//1 5//1
f 1//1 5//1 3//1
f 1//2 3//2 7//2
f 1//2 7//2 12//2
f 1//2 12//2 13//2
f 1//2 13//2 8//2
f 1//2 8//2 4//2
f 1//3 4//3 6//3
f 1//3 6//3 2//3
f 2//4 6//4 10//4
f 2//4 10//4 14//4
f 2//4 14//4 15//4
f 2//4 15//4 11//4
f 2//4 11//4 9//4
f 2//4 9//4 5//4
f 3//5 5//5 9//5
f 3//5 9//5 7//5
f 4//6 8//6 10//6
f 4//6 10//6 6//6
f 7//7 9//7 11//7
f 7//8 11//8 12//8
f 8//9 13//9 14//9
f 8//9 14//9 10//9
f 11//10 15//10 12//10
f 12//11 15//11 14//11
f 12//11 14//11 13//11
