# Blender 4.0.0
# www.blender.org
o decimated_mesh
v -0.049294 -0.126735 0.141857
v -0.005918 -0.126735 0.138675
v -0.049294 -0.126735 0.153765
v -0.049306 0.529960 0.152476
v -0.049297 0.535100 0.134937
v -0.005918 -0.126735 0.153330
v 0.009851 0.520482 0.134251
v 0.003736 0.529374 0.150697
v 0.002554 0.533522 0.135969
vn -0.0000 -1.0000 -0.0000
vn 0.9350 -0.0123 0.3543
vn 0.0197 0.9628 0.2696
vn 0.0336 0.0035 0.9994
vn -1.0000 -0.0000 -0.0005
vn 0.9997 -0.0244 -0.0000
vn 0.8744 0.4807 0.0652
vn 0.0142 0.0105 0.9998
vn 0.0236 0.9594 0.2812
vn 0.0100 0.0020 0.9999
vn -1.0000 -0.0000 -0.0000
vn 0.0241 0.1438 -0.9893
vn 0.0732 0.0050 0.9973
vn 0.0200 0.9594 0.2812
vn 0.0239 0.9628 0.2693
vn 0.0132 0.0065 0.9999
vn 0.0732 0.0104 0.9973
s 0
f 6//1 1//1 2//1
f 7//2 8//2 6//2
f 9//3 4//3 8//3
f 4//4 6//4 8//4
f 5//5 1//5 4//5
f 2//6 7//6 6//6
f 7//7 9//7 8//7
f 1//8 7//8 5//8
f 6//1 3//1 1//1
f 9//9 5//9 4//9
f 4//10 3//10 6//10
f 3//11 4//11 1//11
f 5//12 9//12 7//12
f 7//13 1//13 2//13
f 8//14 5//14 4//14
f 9//15 5//15 8//15
f 7//16 5//16 2//16
f 2//17 5//17 1//17
f 2//1 6//1 3//1
f 2//1 3//1 1//1
