# Blender 4.0.0
# www.blender.org
o Fridge_17_Mesh_8f481464_6_collision_6
v -0.505866 0.534025 0.012822
v -0.049300 0.533945 0.012410
v -0.985526 0.534025 0.012822
v -0.505866 0.520348 0.012822
v -0.049300 0.532312 0.004074
v -0.505866 0.533945 0.012410
v -0.049300 0.520214 0.012410
v -0.985526 0.532312 0.004074
v -0.985526 0.520348 0.012822
v -0.977461 0.478500 0.012351
v -0.060572 0.478929 0.012351
v -0.049300 0.529228 -0.002470
v -0.049483 0.476078 0.011963
v -0.049300 0.476085 0.011952
v -0.985526 0.529154 -0.002620
v -0.985526 0.476459 0.011949
v -0.049300 0.475583 0.011947
v -0.049300 0.529154 -0.002621
v -0.505866 0.529154 -0.002621
v -0.985526 0.527126 -0.003258
v -0.985526 0.473127 0.004074
v -0.049300 0.465666 0.004074
v -0.049300 0.522523 -0.004695
v -0.985526 0.522523 -0.004695
v -0.985526 0.478788 -0.003139
v -0.049300 0.470370 0.000865
v -0.049300 0.511061 -0.005805
v -0.505866 0.520796 -0.004862
v -0.985526 0.511061 -0.005805
v -0.985526 0.488143 -0.004844
v -0.049300 0.477992 -0.003478
v -0.049300 0.477711 -0.003387
v -0.049300 0.499605 -0.005805
v -0.985526 0.499612 -0.005805
v -0.049300 0.488404 -0.005032
v -0.049300 0.488143 -0.004997
v -0.505866 0.499605 -0.005805
vn -0.0000 0.9816 -0.1911
vn -0.0000 0.9815 -0.1915
vn -0.0000 -0.0000 1.0000
vn 0.0009 -0.0000 1.0000
vn -0.0000 0.9814 -0.1922
vn 1.0000 -0.0000 -0.0000
vn 1.0000 -0.0001 -0.0000
vn -1.0000 -0.0001 -0.0000
vn -1.0000 -0.0000 -0.0000
vn -0.0000 0.9814 -0.1921
vn -0.0000 -0.0112 0.9999
vn -0.0000 -0.0113 0.9999
vn 0.0009 -0.0017 1.0000
vn -0.0000 0.9045 -0.4264
vn 0.0324 -0.0102 0.9994
vn 0.0600 -0.0104 0.9981
vn -0.0000 0.9044 -0.4267
vn -0.0449 -0.0199 0.9988
vn -0.0002 -0.1930 0.9812
vn 0.0001 -0.1199 0.9928
vn 0.0293 -0.0223 0.9993
vn -0.0000 0.8994 -0.4372
vn -0.0000 0.9016 -0.4325
vn 0.0600 -0.0109 0.9981
vn -0.0000 0.3002 -0.9539
vn -0.0073 -0.9209 0.3897
vn -0.0006 -0.6218 0.7832
vn -0.0000 0.2984 -0.9544
vn -0.0000 0.2994 -0.9541
vn -0.0000 0.2979 -0.9546
vn -0.0063 -0.7866 -0.6174
vn -0.0015 -0.5635 -0.8261
vn -0.0000 0.0964 -0.9953
vn -0.0000 0.0967 -0.9953
vn -0.0005 -0.1793 -0.9838
vn -0.0006 -0.3087 -0.9512
vn -0.0008 -0.5012 -0.8653
vn -0.0000 -0.0000 -1.0000
vn -0.0002 -0.0835 -0.9965
vn -0.0002 -0.1316 -0.9913
vn -0.0002 -0.1480 -0.9890
vn -0.0000 -0.0689 -0.9976
s 0
f 1//1 2//1 6//1
f 1//2 6//2 3//2
f 1//3 3//3 9//3
f 1//3 9//3 4//3
f 1//4 4//4 7//4
f 1//4 7//4 2//4
f 2//5 5//5 8//5
f 2//5 8//5 6//5
f 2//6 7//6 14//6
f 2//6 14//6 17//6
f 2//6 17//6 22//6
f 2//6 22//6 26//6
f 2//6 26//6 32//6
f 2//6 32//6 31//6
f 2//6 31//6 36//6
f 2//6 36//6 35//6
f 2//6 35//6 33//6
f 2//6 33//6 27//6
f 2//6 27//6 23//6
f 2//6 23//6 18//6
f 2//7 18//7 12//7
f 2//6 12//6 5//6
f 3//8 8//8 15//8
f 3//9 15//9 20//9
f 3//9 20//9 24//9
f 3//9 24//9 29//9
f 3//9 29//9 34//9
f 3//9 34//9 30//9
f 3//9 30//9 25//9
f 3//9 25//9 21//9
f 3//9 21//9 16//9
f 3//9 16//9 9//9
f 3//10 6//10 8//10
f 4//11 9//11 10//11
f 4//12 10//12 11//12
f 4//13 11//13 7//13
f 5//14 12//14 8//14
f 7//15 11//15 13//15
f 7//16 13//16 14//16
f 8//17 12//17 15//17
f 9//18 16//18 10//18
f 10//19 16//19 17//19
f 10//20 17//20 11//20
f 11//21 17//21 13//21
f 12//22 18//22 19//22
f 12//23 19//23 15//23
f 13//24 17//24 14//24
f 15//25 19//25 20//25
f 16//26 21//26 22//26
f 16//27 22//27 17//27
f 18//28 23//28 20//28
f 18//29 20//29 19//29
f 20//30 23//30 24//30
f 21//31 25//31 22//31
f 22//32 25//32 26//32
f 23//33 27//33 28//33
f 23//34 28//34 24//34
f 24//33 28//33 29//33
f 25//35 30//35 31//35
f 25//36 31//36 32//36
f 25//37 32//37 26//37
f 27//38 33//38 37//38
f 27//38 37//38 34//38
f 27//38 34//38 29//38
f 27//33 29//33 28//33
f 30//39 34//39 35//39
f 30//40 35//40 36//40
f 30//41 36//41 31//41
f 33//42 35//42 37//42
f 34//42 37//42 35//42
