# Blender 4.0.0
# www.blender.org
o Fridge_17_Mesh_8f481464_6_collision_18
v 0.009514 0.515753 0.068250
v -0.004615 0.515753 0.068250
v 0.010101 0.511061 0.019470
v 0.009853 0.514143 0.019470
v 0.009724 0.515753 0.019470
v -0.005422 0.515753 0.019470
v -0.007176 0.407832 0.019470
v -0.007021 0.373590 0.019470
v -0.001264 0.338915 0.068250
v 0.009731 0.511061 0.068250
v 0.012317 0.407901 0.019470
v -0.002711 0.338915 0.019470
v 0.009289 0.338915 0.068250
v 0.012275 0.373521 0.019470
v 0.012288 0.384358 0.019470
v 0.009806 0.338915 0.019470
v 0.011225 0.357958 0.019470
v 0.012260 0.372863 0.019470
vn -0.0000 -0.0000 1.0000
vn 0.9968 0.0802 0.0043
vn 0.9968 0.0803 0.0043
vn -0.0000 1.0000 -0.0000
vn -0.9997 0.0162 0.0165
vn -0.9980 -0.0045 0.0624
vn -0.9944 -0.0188 0.1040
vn 0.9989 0.0463 0.0076
vn 0.9997 0.0215 0.0076
vn -0.0000 -0.0000 -1.0000
vn -0.9919 -0.1233 0.0294
vn 0.9982 -0.0026 0.0593
vn -0.9985 0.0012 -0.0555
vn 0.9972 -0.0743 0.0106
vn 0.9975 -0.0692 0.0126
vn 0.9987 -0.0232 0.0447
vn 0.0002 -0.0000 1.0000
s 0
f 1//1 2//1 9//1
f 1//1 9//1 13//1
f 1//1 13//1 10//1
f 1//2 3//2 4//2
f 1//3 4//3 5//3
f 1//4 5//4 6//4
f 1//4 6//4 2//4
f 2//5 6//5 7//5
f 2//6 7//6 8//6
f 2//7 8//7 9//7
f 1//8 10//8 3//8
f 3//9 10//9 11//9
f 3//1 15//1 11//1
f 3//1 14//1 15//1
f 3//1 18//1 14//1
f 3//1 17//1 18//1
f 3//1 16//1 17//1
f 3//1 12//1 16//1
f 3//1 8//1 12//1
f 3//1 7//1 8//1
f 3//1 6//1 7//1
f 3//1 5//1 6//1
f 3//10 5//10 4//10
f 9//11 8//11 12//11
f 9//4 16//4 12//4
f 9//4 13//4 16//4
f 10//12 13//12 14//12
f 10//13 15//13 14//13
f 10//13 11//13 15//13
f 13//14 16//14 17//14
f 13//15 17//15 18//15
f 13//16 18//16 14//16
f 2//1 9//1 13//1
f 2//1 13//1 10//1
f 2//1 10//1 1//1
f 3//3 5//3 1//3
f 5//4 6//4 2//4
f 5//4 2//4 1//4
f 14//13 10//13 11//13
f 11//17 18//17 14//17
f 11//1 17//1 18//1
f 11//1 16//1 17//1
f 11//1 12//1 16//1
f 11//1 8//1 12//1
f 11//1 7//1 8//1
f 11//1 6//1 7//1
f 11//1 5//1 6//1
f 11//1 3//1 5//1
f 12//4 13//4 16//4
f 12//4 9//4 13//4
