# Blender 4.0.0
# www.blender.org
o decimated_mesh
v -0.985532 0.534563 0.074209
v -1.032491 0.534118 0.074208
v -0.985532 0.521957 0.074209
v -0.985532 0.534173 0.012178
v -1.043545 0.530530 0.012093
v -1.047169 0.511881 0.074206
v -0.985532 0.520105 0.012025
v -1.046704 0.511483 0.012090
v -1.044268 0.529449 0.074211
vn -0.0625 0.9970 -0.0464
vn -1.0000 -0.0000 -0.0000
vn -0.0000 -0.0000 1.0000
vn -0.1613 0.9869 -0.0075
vn -0.9865 0.1637 -0.0084
vn 0.0008 0.0109 -0.9999
vn -0.0011 0.0003 -1.0000
vn -0.0095 0.9999 -0.0063
vn 0.0004 -0.0004 1.0000
vn -0.0000 -0.0001 1.0000
vn -0.3685 0.9295 0.0119
vn -0.1395 0.9898 -0.0295
vn -0.9866 0.1629 -0.0087
vn -0.0000 0.0006 1.0000
vn -0.9865 0.1636 -0.0086
vn -0.9866 0.1629 -0.0084
vn -0.0000 -0.0003 1.0000
vn -0.1613 0.9865 -0.0294
vn -0.1396 0.9902 -0.0074
s 0
f 2//1 4//1 5//1
f 4//2 7//2 3//2
f 3//3 1//3 2//3
f 8//4 6//4 3//4
f 6//5 5//5 8//5
f 5//6 4//6 7//6
f 7//7 8//7 5//7
f 2//8 1//8 4//8
f 4//2 3//2 1//2
f 2//9 9//9 6//9
f 6//10 3//10 2//10
f 9//11 2//11 5//11
f 8//12 3//12 7//12
f 6//13 9//13 5//13
f 9//3 3//3 1//3
f 3//2 1//2 7//2
f 7//2 1//2 4//2
f 2//14 9//14 1//14
f 5//15 8//15 9//15
f 8//16 6//16 9//16
f 6//17 3//17 9//17
f 6//18 3//18 7//18
f 6//19 7//19 8//19
