# Blender 4.0.0
# www.blender.org
o decimated_mesh
v -0.049397 -0.555478 0.004624
v -0.049399 -0.569567 -0.004212
v -0.995548 -0.568511 -0.005108
v -0.995488 -0.568493 0.011815
v -0.049399 -0.565432 0.011948
v -0.995548 -0.623775 0.012436
v -0.049399 -0.624334 0.015316
v -0.995548 -0.618224 -0.004226
v -0.049399 -0.619396 -0.003296
vn 0.0014 0.5313 -0.8472
vn -0.0138 0.9999 -0.0010
vn -0.0020 0.5926 0.8055
vn 0.0009 -0.0177 -0.9998
vn -0.0009 -0.9487 -0.3161
vn -1.0000 0.0001 0.0036
vn -1.0000 0.0011 0.0003
vn 0.0010 -0.0184 -0.9998
vn -0.0030 0.0112 0.9999
vn -0.0003 0.0571 0.9984
vn -1.0000 -0.0000 -0.0000
vn -1.0000 0.0002 -0.0000
vn 0.0002 -0.9666 -0.2564
vn -1.0000 -0.0000 -0.0003
vn -1.0000 -0.0000 0.0003
vn -1.0000 0.0011 0.0036
s 0
f 1//1 2//1 3//1
f 1//2 3//2 4//2
f 1//3 4//3 5//3
f 2//4 8//4 3//4
f 9//5 6//5 8//5
f 3//6 8//6 4//6
f 6//7 4//7 8//7
f 2//8 9//8 8//8
f 6//9 7//9 4//9
f 7//10 5//10 4//10
f 9//11 5//11 2//11
f 1//12 2//12 5//12
f 5//11 9//11 7//11
f 9//13 7//13 6//13
f 5//14 1//14 7//14
f 7//11 1//11 9//11
f 9//15 1//15 2//15
f 8//11 6//11 3//11
f 6//16 4//16 3//16
