# Blender 4.0.0
# www.blender.org
o decimated_mesh
v -0.013845 0.092432 -0.007687
v -0.007809 0.092432 -0.013782
v -0.014209 0.092432 -0.007687
v -0.007814 0.092432 -0.014183
v -0.007809 0.086970 -0.013325
v -0.007992 0.082556 -0.013142
v -0.014201 0.077990 -0.007688
v -0.013409 0.082488 -0.007687
v -0.013937 0.078000 -0.007682
v -0.007809 0.078050 -0.013819
v -0.014039 0.092432 -0.008130
v -0.014027 0.078148 -0.008165
v -0.013855 0.077753 -0.008085
v -0.007844 0.077905 -0.014116
v -0.008371 0.092432 -0.013852
v -0.008348 0.078040 -0.013864
vn 0.0007 0.0001 -1.0000
vn -0.9999 0.0011 0.0126
vn -0.9192 0.0217 -0.3931
vn -0.5111 -0.0029 -0.8595
vn -0.6969 -0.0306 -0.7165
vn -0.7912 -0.4316 -0.4332
vn 0.5265 -0.6724 0.5203
vn 0.0217 -0.8502 0.5259
vn -0.7104 0.0011 -0.7038
vn -0.9391 -0.0005 -0.3437
vn -0.6494 -0.4119 -0.6393
vn 0.0220 -0.0037 -0.9998
vn -0.0000 -0.0000 -1.0000
vn -0.0000 1.0000 -0.0000
vn -0.9928 -0.0066 0.1192
vn -0.9998 0.0021 0.0193
vn -0.4476 -0.0000 -0.8942
vn -0.7095 0.0001 -0.7047
vn -0.7093 -0.0587 -0.7024
vn 0.3894 -0.8448 0.3668
vn -0.7084 -0.0005 -0.7058
vn -0.9336 0.0001 -0.3584
vn -0.4360 -0.7770 -0.4541
vn -0.7058 0.0771 -0.7042
vn -0.7076 0.0825 -0.7017
vn -0.7055 0.0823 -0.7039
vn -0.0068 -0.0003 -1.0000
vn -0.0000 -0.0003 -1.0000
vn 0.0218 0.0001 -0.9998
vn -0.9934 0.0025 0.1148
vn -0.9999 -0.0001 0.0126
vn -1.0000 -0.0000 -0.0004
vn -0.7079 0.0767 -0.7021
vn -0.4483 -0.0032 -0.8939
vn -0.5111 -0.0001 -0.8595
s 0
f 7//1 3//1 8//1
f 4//2 5//2 2//2
f 10//3 6//3 5//3
f 15//4 4//4 14//4
f 5//5 8//5 1//5
f 12//6 13//6 7//6
f 13//7 10//7 9//7
f 7//8 13//8 9//8
f 15//9 12//9 11//9
f 12//10 7//10 3//10
f 16//11 13//11 12//11
f 9//12 7//12 8//12
f 8//13 3//13 1//13
f 4//14 15//14 2//14
f 15//14 11//14 2//14
f 2//14 11//14 1//14
f 11//14 3//14 1//14
f 5//15 14//15 10//15
f 14//16 5//16 4//16
f 16//17 15//17 14//17
f 8//18 5//18 6//18
f 5//19 1//19 2//19
f 13//20 14//20 10//20
f 15//21 16//21 12//21
f 3//22 11//22 12//22
f 16//23 14//23 13//23
f 10//24 9//24 6//24
f 6//25 9//25 8//25
f 10//26 9//26 8//26
f 8//27 9//27 1//27
f 1//28 9//28 3//28
f 3//29 9//29 7//29
f 14//30 10//30 4//30
f 4//31 10//31 2//31
f 2//32 10//32 5//32
f 6//33 10//33 8//33
f 2//14 11//14 3//14
f 2//14 3//14 1//14
f 16//34 4//34 14//34
f 15//35 4//35 16//35
