# Blender 4.0.0
# www.blender.org
o decimated_mesh
v -0.013781 0.092445 0.007810
v -0.015894 0.092445 -0.000002
v -0.014174 0.092445 0.007810
v -0.013325 0.086970 0.007810
v -0.016233 0.092445 0.000003
v -0.015419 0.082570 -0.000002
v -0.016185 0.077777 0.000002
v -0.014146 0.077988 0.007809
v -0.013364 0.082452 0.007810
v -0.013839 0.077996 0.007811
v -0.014187 0.077784 0.007497
v -0.015992 0.077805 0.000000
v -0.014108 0.077788 0.006994
vn -0.0000 1.0000 -0.0000
vn -0.0132 -0.0006 -0.9999
vn -0.9602 0.1154 0.2544
vn 0.9622 0.0801 -0.2603
vn -0.9669 -0.0032 0.2550
vn -0.0201 0.8380 -0.5453
vn -0.4758 0.8770 -0.0669
vn 0.9471 0.1979 -0.2527
vn -0.0075 0.0005 -1.0000
vn -0.0049 0.0001 -1.0000
vn -0.9522 0.1016 0.2880
vn -0.9599 0.1079 0.2588
vn 0.9670 -0.0082 -0.2546
vn 0.9581 0.0461 -0.2828
vn -0.9676 -0.0019 0.2527
vn -0.0052 0.0007 1.0000
vn -0.0014 -0.0000 1.0000
vn -0.0000 -0.0000 1.0000
vn -0.0005 -0.0001 1.0000
vn -0.0217 0.9998 0.0049
vn -0.1437 0.9888 0.0411
vn -0.9416 0.2207 0.2541
vn -0.9584 0.1152 0.2613
vn -0.9616 0.1026 0.2546
vn 0.0012 -0.0000 1.0000
vn 0.0004 -0.0000 1.0000
vn -0.0051 -0.0001 1.0000
vn -0.9669 -0.0019 0.2550
vn -0.9675 -0.0032 0.2527
vn -0.0074 -0.0001 -1.0000
vn -0.0025 -0.0001 -1.0000
vn -0.0132 -0.0000 -0.9999
s 0
f 3//1 1//1 2//1
f 5//2 2//2 6//2
f 9//3 6//3 12//3
f 2//4 1//4 4//4
f 3//5 5//5 7//5
f 10//6 11//6 8//6
f 10//7 13//7 11//7
f 11//8 7//8 8//8
f 5//1 3//1 2//1
f 6//9 12//9 7//9
f 7//10 5//10 6//10
f 9//11 13//11 10//11
f 13//12 9//12 12//12
f 9//13 6//13 4//13
f 6//14 2//14 4//14
f 8//15 3//15 7//15
f 10//16 9//16 8//16
f 9//17 4//17 8//17
f 4//18 1//18 3//18
f 3//19 8//19 4//19
f 11//20 13//20 7//20
f 13//21 12//21 7//21
f 13//22 10//22 12//22
f 12//23 10//23 6//23
f 6//24 10//24 9//24
f 9//25 4//25 10//25
f 4//26 1//26 10//26
f 1//18 3//18 10//18
f 3//27 8//27 10//27
f 3//28 5//28 8//28
f 5//29 7//29 8//29
f 7//30 2//30 12//30
f 2//31 6//31 12//31
f 5//32 2//32 7//32
