# Blender 4.0.0
# www.blender.org
o decimated_mesh
v -0.015894 0.092445 -0.000003
v -0.016232 0.092445 -0.000007
v -0.013393 0.086970 -0.007687
v -0.013845 0.092445 -0.007687
v -0.016181 0.077794 -0.000008
v -0.014209 0.092445 -0.007687
v -0.015419 0.082570 -0.000003
v -0.013929 0.078014 -0.007689
v -0.013409 0.082488 -0.007687
v -0.015990 0.077806 -0.000005
v -0.014157 0.077794 -0.006771
v -0.014193 0.077985 -0.007687
v -0.014170 0.077774 -0.007488
vn -0.0117 -0.0006 0.9999
vn -0.9681 -0.0011 -0.2507
vn -0.0000 -0.0000 -1.0000
vn -0.9632 -0.0796 -0.2568
vn -0.7087 0.7055 -0.0062
vn -0.0863 0.9960 -0.0251
vn -0.0064 -0.0001 1.0000
vn -0.0178 0.0017 0.9998
vn -0.9670 -0.0033 -0.2547
vn -0.0108 0.0019 -0.9999
vn -0.9591 -0.0461 -0.2793
vn -0.9674 0.0036 -0.2531
vn 0.9126 0.3277 0.2444
vn -0.9601 0.1022 -0.2602
vn -0.9704 0.1129 -0.2136
vn -0.9607 0.1151 -0.2525
vn -0.0590 0.9981 -0.0185
vn -0.0000 1.0000 -0.0000
vn -0.0680 0.6803 0.7297
vn -0.0117 -0.0001 0.9999
vn -0.0027 -0.0001 1.0000
vn -0.9670 -0.0011 -0.2547
vn -0.9680 -0.0033 -0.2507
vn -0.0177 -0.0002 0.9998
vn -0.9588 0.1149 -0.2598
vn -0.9619 0.1040 -0.2527
vn 0.0055 -0.0000 -1.0000
vn 0.0022 0.0002 -1.0000
vn -0.0000 0.0002 -1.0000
vn -0.0106 -0.0000 -0.9999
s 0
f 7//1 1//1 2//1
f 5//2 6//2 12//2
f 6//3 4//3 3//3
f 3//4 1//4 4//4
f 8//5 13//5 11//5
f 10//6 11//6 13//6
f 2//7 5//7 7//7
f 7//8 5//8 10//8
f 5//9 2//9 6//9
f 3//3 9//3 12//3
f 9//10 8//10 12//10
f 12//3 6//3 3//3
f 1//11 3//11 7//11
f 7//12 3//12 9//12
f 5//13 13//13 12//13
f 10//14 9//14 11//14
f 9//15 8//15 11//15
f 9//16 10//16 7//16
f 10//17 13//17 5//17
f 4//18 6//18 1//18
f 6//18 2//18 1//18
f 12//19 13//19 8//19
f 2//20 10//20 1//20
f 10//21 7//21 1//21
f 4//18 6//18 2//18
f 4//18 2//18 1//18
f 6//22 12//22 2//22
f 12//23 5//23 2//23
f 5//24 10//24 2//24
f 11//25 10//25 7//25
f 11//26 7//26 9//26
f 9//27 8//27 3//27
f 8//28 4//28 3//28
f 8//29 6//29 4//29
f 8//30 12//30 6//30
