# Blender 4.0.0
# www.blender.org
o decimated_mesh
v 0.007557 0.094906 0.012616
v 0.007557 0.094896 0.013920
v 0.007558 0.093261 0.013899
v 0.007558 0.093261 0.014243
v -0.000002 0.093261 0.015894
v -0.000002 0.094906 0.014797
v 0.000010 0.093261 0.016238
v 0.000004 0.094910 0.015873
v 0.000715 0.094867 0.015784
v 0.007558 0.094261 0.014225
v 0.000238 0.094202 0.016202
v 0.000000 0.094435 0.016175
vn -0.0000 1.0000 -0.0000
vn -0.0010 1.0000 -0.0036
vn 0.2606 0.0180 0.9653
vn 1.0000 0.0015 -0.0001
vn 1.0000 -0.0000 -0.0000
vn 1.0000 0.0002 -0.0006
vn 0.1363 0.5306 0.8366
vn 0.0040 1.0000 0.0080
vn -0.9999 0.0123 0.0056
vn -1.0000 0.0012 0.0018
vn -0.9993 -0.0069 0.0358
vn 0.2145 0.5419 0.8126
vn 0.2219 0.5999 0.7687
vn 0.2554 -0.0251 0.9665
vn 0.2333 0.4212 0.8764
vn 0.2410 0.3864 0.8903
vn 0.2621 0.3714 0.8907
vn 0.1051 0.9106 0.3997
vn -0.0621 0.0528 0.9967
vn 0.2037 0.6023 0.7718
vn 0.2335 0.5394 0.8090
vn 0.2368 0.4209 0.8757
vn 0.2371 0.4057 0.8827
vn 0.2414 0.3519 0.9044
s 0
f 5//1 4//1 3//1
f 1//2 6//2 8//2
f 4//3 10//3 11//3
f 2//4 10//4 1//4
f 10//5 4//5 3//5
f 3//6 1//6 10//6
f 4//1 5//1 7//1
f 12//7 9//7 8//7
f 8//8 2//8 1//8
f 12//9 8//9 6//9
f 6//10 5//10 12//10
f 5//11 7//11 12//11
f 3//12 6//12 5//12
f 6//13 3//13 1//13
f 7//14 4//14 11//14
f 11//15 10//15 2//15
f 9//16 11//16 2//16
f 12//17 11//17 9//17
f 8//18 9//18 2//18
f 7//19 11//19 12//19
f 3//20 1//20 5//20
f 5//21 1//21 6//21
f 9//22 10//22 2//22
f 9//23 12//23 10//23
f 12//24 11//24 10//24
f 4//1 3//1 7//1
f 7//1 3//1 5//1
