# Blender 4.0.0
# www.blender.org
o decimated_mesh
v -0.000006 0.094416 -0.016185
v -0.000015 0.093261 -0.016237
v -0.000648 0.094216 -0.016095
v -0.007807 0.094241 -0.014166
v -0.000003 0.093261 -0.015894
v -0.000007 0.094911 -0.015867
v -0.000680 0.094866 -0.015795
v -0.000003 0.094906 -0.014797
v -0.007804 0.094907 -0.012368
v -0.007809 0.093261 -0.013783
v -0.007808 0.094900 -0.013840
v -0.007809 0.093261 -0.014175
vn -1.0000 0.0027 -0.0000
vn -0.1269 0.5345 -0.8356
vn 0.2507 -0.5371 0.8054
vn 0.2008 -0.6389 0.7426
vn -0.2556 -0.0256 -0.9664
vn 1.0000 0.0052 -0.0044
vn -0.0002 1.0000 0.0049
vn -1.0000 0.0029 0.0004
vn -1.0000 -0.0036 0.0028
vn -0.0000 1.0000 -0.0000
vn -0.2602 0.0101 -0.9655
vn -0.1524 0.0459 -0.9872
vn 0.9994 -0.0056 -0.0347
vn 1.0000 0.0023 -0.0034
vn -0.0014 1.0000 -0.0051
vn -0.2374 0.3980 -0.8861
vn -0.2368 0.4306 -0.8709
vn -0.2471 0.3965 -0.8841
vn -0.1052 0.9105 -0.3999
vn -0.2406 0.3695 -0.8976
vn -0.2372 0.4088 -0.8812
vn -1.0000 0.0008 0.0028
vn -1.0000 0.0007 -0.0000
vn -0.9999 0.0028 -0.0103
vn -0.0028 1.0000 -0.0051
vn 0.0017 1.0000 0.0049
s 0
f 4//1 12//1 10//1
f 1//2 7//2 6//2
f 5//3 8//3 9//3
f 5//4 9//4 10//4
f 2//5 12//5 3//5
f 1//6 6//6 8//6
f 6//7 11//7 8//7
f 10//8 9//8 4//8
f 9//9 11//9 4//9
f 10//10 5//10 12//10
f 12//10 5//10 2//10
f 4//11 3//11 12//11
f 3//12 1//12 2//12
f 2//13 1//13 5//13
f 5//14 1//14 8//14
f 9//15 8//15 11//15
f 3//16 4//16 7//16
f 7//17 4//17 11//17
f 1//18 3//18 7//18
f 11//19 6//19 7//19
f 5//10 2//10 10//10
f 10//10 2//10 12//10
f 4//20 1//20 3//20
f 4//21 7//21 1//21
f 9//22 11//22 10//22
f 11//23 12//23 10//23
f 11//24 4//24 12//24
f 11//25 9//25 6//25
f 9//26 8//26 6//26
