# Blender 4.0.0
# www.blender.org
o decimated_mesh
v -0.012588 0.094906 0.007810
v -0.013781 0.092445 0.007810
v -0.014649 0.094906 -0.000002
v -0.014174 0.092445 0.007810
v -0.015894 0.092445 -0.000002
v -0.015853 0.094906 -0.000002
v -0.013874 0.094852 0.007810
v -0.014167 0.094861 0.006773
v -0.016222 0.092445 -0.000002
v -0.016108 0.094563 -0.000002
v -0.015853 0.094906 0.000161
v -0.015810 0.094893 0.000483
v -0.015456 0.094863 0.001952
v -0.015125 0.094853 0.003211
v -0.016222 0.092445 0.000161
v -0.015829 0.094906 0.000314
v -0.015785 0.094871 0.000693
v -0.014175 0.094052 0.007810
v -0.016222 0.092765 0.000161
v -0.016154 0.094388 0.000162
v -0.014175 0.094246 0.007770
v -0.016095 0.094216 0.000648
v -0.016223 0.094052 -0.000002
v -0.016223 0.094052 0.000161
vn -1.0000 -0.0004 -0.0006
vn -0.0204 0.9998 0.0088
vn -0.6559 0.7341 0.1758
vn -0.8027 0.5964 -0.0000
vn -0.0000 -1.0000 -0.0000
vn -0.0000 -0.0000 1.0000
vn -0.9660 0.0015 0.2587
vn -0.8295 0.5402 0.1417
vn -0.9624 0.1975 0.1864
vn -0.3253 0.9413 0.0897
vn -0.8413 0.4912 0.2256
vn 0.8715 -0.4316 -0.2328
vn -0.8855 0.3992 0.2379
vn -0.4184 0.9009 0.1157
vn -0.9769 0.2123 -0.0233
vn -0.0071 0.0027 1.0000
vn -0.0421 0.9989 0.0204
vn -0.8755 0.4244 0.2310
vn -0.0000 1.0000 -0.0000
vn -0.0401 0.9990 0.0173
vn -0.5720 0.8058 0.1535
vn -0.8845 0.4019 0.2371
vn -0.8859 0.3984 0.2378
vn -0.8739 0.4172 0.2495
vn -0.4270 0.8968 0.1162
vn -0.4771 0.1794 0.8603
vn -0.8675 0.4387 0.2346
vn -0.0000 -0.0000 -1.0000
vn -0.8247 0.5499 0.1323
vn -0.8245 0.5503 0.1317
vn -0.8364 0.5255 0.1559
vn -0.8761 0.4309 0.2161
vn -0.8794 0.4155 0.2324
vn -0.8820 0.4082 0.2353
vn -0.9749 0.2192 -0.0384
vn -0.9795 0.2015 -0.0000
vn -0.8969 0.3714 0.2401
vn -0.9643 0.0526 0.2596
vn -0.9659 -0.0006 0.2589
vn -0.9660 -0.0018 0.2586
vn -1.0000 -0.0004 -0.0000
vn -0.9672 -0.0004 0.2541
s 0
f 23//1 9//1 15//1 19//1 24//1
f 6//2 11//2 16//2 7//2 1//2 3//2
f 8//3 17//3 13//3
f 10//4 11//4 6//4
f 4//5 15//5 9//5 5//5 2//5
f 10//6 23//6 9//6 5//6 3//6 6//6
f 4//7 18//7 21//7 22//7 24//7 19//7 15//7
f 12//8 16//8 11//8 10//8 17//8
f 24//9 22//9 20//9
f 12//10 17//10 8//10 7//10
f 8//11 13//11 14//11
f 2//12 5//12 3//12 1//12
f 14//13 13//13 17//13 10//13 20//13 22//13 21//13 7//13 8//13
f 16//14 12//14 7//14
f 24//15 20//15 10//15 23//15
f 4//16 2//16 1//16 7//16 21//16 18//16
f 8//17 7//17 1//17
f 7//6 18//6 4//6
f 7//6 4//6 2//6
f 7//6 2//6 1//6
f 2//18 1//18 3//18
f 3//19 6//19 11//19
f 3//19 11//19 16//19
f 3//19 16//19 1//19
f 16//20 8//20 1//20
f 12//21 17//21 8//21
f 14//22 20//22 8//22
f 20//23 21//23 8//23
f 21//24 7//24 8//24
f 16//25 12//25 8//25
f 21//26 18//26 7//26
f 4//19 9//19 15//19
f 4//19 5//19 9//19
f 4//19 2//19 5//19
f 5//27 2//27 3//27
f 5//28 9//28 23//28
f 5//28 23//28 10//28
f 5//28 10//28 6//28
f 5//28 6//28 3//28
f 11//29 10//29 16//29
f 10//30 12//30 16//30
f 10//31 17//31 12//31
f 10//32 20//32 17//32
f 20//33 13//33 17//33
f 20//34 14//34 13//34
f 10//35 23//35 20//35
f 23//36 24//36 20//36
f 22//37 21//37 20//37
f 22//38 18//38 21//38
f 22//39 4//39 18//39
f 22//40 15//40 4//40
f 9//41 15//41 24//41
f 9//41 24//41 23//41
f 15//42 22//42 24//42
