# Blender 4.0.0
# www.blender.org
o decimated_mesh
v 0.016223 0.094052 -0.000003
v 0.016127 0.094541 0.000002
v 0.016202 0.094194 0.000239
v 0.016235 0.092445 0.000005
v 0.015868 0.094912 0.000002
v 0.015793 0.094867 0.000683
v 0.014142 0.094242 0.007871
v 0.015894 0.092445 -0.000003
v 0.014656 0.094906 -0.000003
v 0.013748 0.092445 0.007873
v 0.012508 0.094906 0.007871
v 0.013824 0.094897 0.007872
v 0.014153 0.092445 0.007873
vn -0.0000 -0.0000 -1.0000
vn 0.8138 0.5671 0.1272
vn 0.9655 0.0060 0.2605
vn 0.8741 0.4236 0.2376
vn -0.0000 -1.0000 -0.0000
vn 0.8676 0.4373 0.2367
vn 0.0041 0.0044 -1.0000
vn 0.0055 0.0101 -0.9999
vn 0.0211 -0.0043 -0.9998
vn 0.9806 0.1940 -0.0280
vn 0.9965 0.0079 0.0828
vn -0.0044 1.0000 0.0007
vn 0.0067 1.0000 0.0018
vn 0.9666 -0.0158 0.2558
vn 0.8918 0.3846 0.2382
vn 0.8918 0.3708 0.2591
vn 0.3930 0.9137 0.1038
vn 0.8680 0.4366 0.2365
vn 0.0004 0.0009 1.0000
vn -0.0000 0.0010 1.0000
vn -0.0012 -0.0030 1.0000
vn 0.9012 0.3604 0.2409
vn 0.0071 0.0010 1.0000
vn -0.0000 0.0001 1.0000
vn 0.8677 0.4373 0.2364
vn 0.8679 0.4366 0.2368
vn 0.0041 0.0075 -1.0000
vn 0.0148 0.0119 -0.9998
vn 0.8825 0.4056 0.2379
vn 0.0067 1.0000 0.0036
vn -0.0012 0.0001 1.0000
vn -0.0044 1.0000 -0.0012
s 0
f 8//1 9//1 1//1
f 5//2 6//2 2//2
f 3//3 7//3 13//3
f 6//4 12//4 7//4
f 13//5 10//5 8//5
f 9//6 11//6 10//6
f 5//7 2//7 9//7
f 2//8 1//8 9//8
f 1//9 4//9 8//9
f 2//10 3//10 1//10
f 1//11 3//11 4//11
f 12//12 5//12 9//12
f 9//13 11//13 12//13
f 13//14 4//14 3//14
f 7//15 3//15 6//15
f 3//16 2//16 6//16
f 4//5 13//5 8//5
f 5//17 12//17 6//17
f 9//18 10//18 8//18
f 11//19 10//19 7//19
f 10//20 13//20 7//20
f 7//21 12//21 11//21
f 2//22 7//22 3//22
f 7//23 12//23 13//23
f 12//24 10//24 13//24
f 10//25 8//25 11//25
f 11//26 8//26 9//26
f 9//27 5//27 1//27
f 5//28 2//28 1//28
f 6//29 7//29 2//29
f 5//30 11//30 12//30
f 11//31 10//31 12//31
f 11//32 5//32 9//32
