# Blender 4.0.0
# www.blender.org
o decimated_mesh
v -0.012712 0.094906 -0.007687
v -0.013845 0.092445 -0.007687
v -0.013865 0.094902 -0.007687
v -0.014209 0.092445 -0.007687
v -0.014649 0.094906 -0.000003
v -0.016090 0.092422 -0.000006
v -0.016217 0.094345 -0.000011
v -0.015912 0.094899 -0.000022
v -0.014197 0.094246 -0.007687
vn -0.0060 0.0022 1.0000
vn -0.9692 -0.0646 -0.2375
vn -0.0000 -0.0000 -1.0000
vn 0.8854 -0.4077 0.2232
vn -0.0156 0.0292 0.9995
vn -0.0000 -1.0000 -0.0030
vn -0.9670 0.0063 -0.2545
vn -0.8677 0.4399 -0.2315
vn -0.8540 0.4664 -0.2307
vn -0.0040 1.0000 -0.0010
vn -0.0057 1.0000 -0.0012
vn 0.8388 -0.4869 0.2437
vn -0.8672 0.4396 -0.2338
vn -0.8545 0.4668 -0.2280
s 0
f 6//1 5//1 7//1
f 4//2 6//2 7//2
f 2//3 4//3 9//3
f 5//4 2//4 1//4
f 8//5 7//5 5//5
f 2//6 6//6 4//6
f 9//7 4//7 7//7
f 1//3 9//3 3//3
f 1//3 2//3 9//3
f 8//8 3//8 9//8
f 7//9 8//9 9//9
f 1//10 3//10 5//10
f 3//11 8//11 5//11
f 5//12 6//12 2//12
f 2//3 3//3 1//3
f 4//3 3//3 2//3
f 4//3 9//3 3//3
f 9//13 7//13 3//13
f 7//14 8//14 3//14
