# Blender 4.0.0
# www.blender.org
o decimated_mesh
v 0.007689 0.094252 -0.014200
v 0.007687 0.091631 -0.014208
v 0.007992 0.094002 -0.014114
v 0.008132 0.091631 -0.014036
v 0.008347 0.094238 -0.013866
v 0.008022 0.094807 -0.013832
v 0.007689 0.094900 -0.013881
v 0.007687 0.091631 -0.013844
v 0.008125 0.094906 -0.013601
v 0.007687 0.094906 -0.012592
v 0.013823 0.091631 -0.007731
v 0.014197 0.091631 -0.007731
v 0.012671 0.094906 -0.007731
v 0.013871 0.094223 -0.008349
v 0.013599 0.094905 -0.008129
v 0.014205 0.094193 -0.007736
v 0.013870 0.094898 -0.007731
v 0.013883 0.091631 -0.008335
v 0.013832 0.094814 -0.008016
v 0.014125 0.091631 -0.007952
vn 0.2764 0.0028 -0.9610
vn 0.4368 0.3004 -0.8479
vn 0.8423 0.3057 -0.4439
vn 1.0000 -0.0007 0.0017
vn 0.7040 -0.0116 -0.7101
vn 0.5691 0.0068 -0.8223
vn 0.8457 0.0011 -0.5337
vn 0.0009 1.0000 -0.0008
vn 0.5193 0.6786 -0.5195
vn -0.6812 -0.2616 0.6838
vn 0.6462 0.4066 -0.6459
vn 0.3603 -0.0092 -0.9328
vn 0.4435 0.2391 -0.8638
vn -1.0000 0.0003 -0.0016
vn 1.0000 -0.0009 0.0003
vn 0.2987 0.8229 -0.4834
vn 0.4729 0.8263 -0.3058
vn 0.7067 -0.0004 -0.7075
vn 0.8784 0.0128 -0.4777
vn -0.0000 1.0000 -0.0000
vn -0.0000 -1.0000 -0.0000
vn -0.0000 -0.0022 -1.0000
vn -0.0043 -0.0015 -1.0000
vn -0.0003 0.0072 -1.0000
vn -0.0098 0.9999 -0.0049
vn 0.0004 1.0000 -0.0005
vn 0.0071 0.9999 0.0136
vn 0.5203 0.6772 -0.5204
vn 0.9509 -0.0036 -0.3094
vn -0.6780 -0.2386 0.6952
vn 0.6459 0.4076 -0.6455
vn 0.8763 0.4186 -0.2385
vn 0.2456 0.4291 -0.8692
vn 1.0000 -0.0001 0.0003
vn 1.0000 -0.0009 0.0018
vn -0.0000 1.0000 0.0001
vn -0.0000 -0.0000 -1.0000
vn -0.0003 -0.0001 -1.0000
vn 0.6458 0.4076 -0.6456
vn 0.6462 0.4065 -0.6458
vn -0.0199 -0.0021 -0.9998
s 0
f 2//1 1//1 3//1
f 5//2 1//2 6//2
f 16//3 14//3 19//3
f 8//4 1//4 10//4
f 5//5 18//5 4//5
f 4//6 3//6 5//6
f 14//7 20//7 18//7
f 15//8 9//8 13//8
f 6//9 15//9 19//9
f 11//10 10//10 8//10
f 6//11 19//11 14//11
f 3//12 4//12 2//12
f 5//13 3//13 1//13
f 7//14 1//14 10//14
f 1//15 8//15 2//15
f 7//16 9//16 6//16
f 15//17 17//17 19//17
f 5//18 14//18 18//18
f 14//19 16//19 20//19
f 4//20 11//20 18//20
f 18//20 11//20 20//20
f 20//21 12//21 11//21
f 11//20 4//20 8//20
f 2//21 4//21 8//21
f 12//22 11//22 16//22
f 11//23 13//23 16//23
f 16//24 13//24 17//24
f 9//25 7//25 10//25
f 10//26 13//26 9//26
f 17//27 15//27 13//27
f 6//28 9//28 15//28
f 12//29 20//29 16//29
f 11//30 13//30 10//30
f 14//31 5//31 6//31
f 16//32 19//32 17//32
f 6//33 1//33 7//33
f 8//34 2//34 10//34
f 10//35 2//35 1//35
f 4//20 8//20 20//20
f 20//20 8//20 11//20
f 18//36 4//36 20//36
f 12//37 11//37 13//37
f 12//38 13//38 17//38
f 19//39 5//39 6//39
f 19//40 14//40 5//40
f 17//41 16//41 12//41
