# Blender 4.0.0
# www.blender.org
o RoboTHOR_salt_pepper_shaker_bnyd_pepper_v_robothor_salt_pepper_
v -0.000003 0.094906 -0.015850
v -0.000161 0.094906 -0.015850
v 0.000161 0.094906 -0.015850
v 0.000310 0.094906 -0.015828
v 0.000481 0.094906 -0.015785
v 0.002734 0.094906 -0.015183
v 0.007567 0.094906 -0.013888
v 0.007750 0.094906 -0.013826
v 0.007930 0.094906 -0.013733
v 0.008104 0.094906 -0.013612
v 0.013581 0.094906 -0.008138
v 0.013734 0.094906 -0.007927
v 0.013789 0.094906 -0.007836
v 0.013886 0.094906 -0.007563
v 0.015782 0.094906 -0.000481
v 0.015825 0.094906 -0.000313
v 0.000000 0.094906 0.014795
v -0.000310 0.094906 -0.015825
v -0.000481 0.094998 -0.015608
v -0.000161 0.095032 -0.015608
v 0.000000 0.094976 -0.015726
v 0.000161 0.095032 -0.015611
v 0.000481 0.094998 -0.015611
v 0.005310 0.094995 -0.014323
v 0.006601 0.094983 -0.014000
v 0.007567 0.095013 -0.013677
v 0.007759 0.095189 -0.013221
v 0.008544 0.094953 -0.013054
v 0.013374 0.094953 -0.008224
v 0.013218 0.095188 -0.007753
v 0.013678 0.095012 -0.007563
v 0.014000 0.094982 -0.006598
v 0.015608 0.094998 -0.000481
v 0.015512 0.094912 -0.001446
v 0.015841 0.094918 -0.000161
v 0.000000 0.094906 0.015850
v 0.015841 0.094918 0.000000
v 0.015841 0.094918 0.000158
v -0.000481 0.094906 -0.015782
v -0.002737 0.094906 -0.015180
v -0.006598 0.094983 -0.014000
v -0.005658 0.095121 -0.013982
v -0.000829 0.095122 -0.015270
v -0.000736 0.095190 -0.015152
v -0.000161 0.095200 -0.015201
v 0.000000 0.095032 -0.015611
v -0.000481 0.095197 -0.015176
v 0.000161 0.095200 -0.015204
v 0.000481 0.095197 -0.015176
v 0.000739 0.095190 -0.015152
v 0.000829 0.095122 -0.015270
v 0.004345 0.095115 -0.014348
v 0.006927 0.095113 -0.013656
v 0.005655 0.095122 -0.013982
v 0.006828 0.095187 -0.013535
v 0.007874 0.095198 -0.013019
v 0.008076 0.095189 -0.012905
v 0.007567 0.095196 -0.013252
v 0.007567 0.095216 -0.013035
v 0.012902 0.095188 -0.008072
v 0.013032 0.095217 -0.007563
v 0.013249 0.095196 -0.007563
v 0.013532 0.095186 -0.006815
v 0.013017 0.095198 -0.007871
v 0.013656 0.095111 -0.006921
v 0.014345 0.095114 -0.004345
v 0.015270 0.095125 -0.000835
v 0.015608 0.095034 -0.000161
v 0.015825 0.094906 0.000310
v -0.000161 0.094906 0.015847
v 0.015782 0.094906 0.000478
v 0.013886 0.094906 0.007563
v 0.013789 0.094906 0.007833
v 0.013581 0.094906 0.008138
v 0.008104 0.094906 0.013609
v 0.007837 0.094906 0.013789
v 0.007564 0.094906 0.013882
v 0.002737 0.094906 0.015180
v 0.000481 0.094906 0.015782
v 0.000310 0.094906 0.015825
v 0.015608 0.095034 0.000158
v 0.015608 0.094998 0.000478
v -0.007529 0.094906 -0.013895
v -0.007564 0.095013 -0.013677
v -0.006927 0.095112 -0.013656
v -0.004519 0.095181 -0.014165
v -0.006825 0.095187 -0.013535
v -0.001999 0.095187 -0.014823
v -0.005565 0.095190 -0.013864
v -0.003057 0.095193 -0.014515
v -0.000161 0.095221 -0.014965
v 0.000000 0.095200 -0.015204
v -0.000481 0.095218 -0.014965
v -0.006598 0.095195 -0.013556
v -0.005310 0.095197 -0.013885
v 0.000161 0.095221 -0.014965
v 0.000481 0.095218 -0.014965
v 0.005310 0.095197 -0.013888
v 0.006601 0.095195 -0.013559
v 0.001769 0.095195 -0.014847
v 0.003057 0.095193 -0.014518
v 0.005565 0.095190 -0.013864
v 0.001999 0.095187 -0.014823
v 0.003259 0.095184 -0.014494
v 0.004519 0.095181 -0.014165
v 0.012712 0.095217 -0.007886
v 0.006601 0.095214 -0.013358
v 0.006276 0.095219 -0.013358
v 0.007244 0.095218 -0.013035
v 0.012390 0.095221 -0.007886
v 0.012712 0.095221 -0.007563
v 0.013032 0.095221 -0.007241
v 0.013355 0.095220 -0.006275
v 0.013355 0.095215 -0.006598
v 0.013557 0.095194 -0.006598
v 0.013861 0.095189 -0.005558
v 0.014823 0.095188 -0.002002
v 0.014162 0.095180 -0.004519
v 0.015152 0.095190 -0.000745
v 0.015177 0.095197 -0.000481
v 0.015363 0.095134 -0.000161
v -0.000310 0.094906 0.015822
v 0.015270 0.095125 0.000832
v 0.013997 0.094982 0.006595
v 0.013532 0.095186 0.006815
v 0.013675 0.095012 0.007563
v 0.013693 0.094940 0.007895
v 0.013218 0.095188 0.007753
v 0.011763 0.094953 0.009835
v 0.008544 0.094954 0.013051
v 0.007756 0.095189 0.013221
v 0.007896 0.094940 0.013693
v 0.007564 0.095013 0.013677
v 0.006598 0.094983 0.013997
v 0.004345 0.095114 0.014348
v 0.000481 0.094998 0.015608
v 0.000161 0.094918 0.015844
v 0.015363 0.095134 0.000158
v 0.015174 0.095197 0.000478
v 0.015152 0.095190 0.000742
v -0.007837 0.094906 -0.013789
v -0.007756 0.095189 -0.013221
v -0.007564 0.095196 -0.013249
v -0.000161 0.095221 -0.014320
v 0.000000 0.095221 -0.014965
v -0.001446 0.095220 -0.014643
v -0.012390 0.095221 -0.007883
v -0.006598 0.095214 -0.013355
v -0.005310 0.095217 -0.013677
v -0.004022 0.095219 -0.014000
v -0.002734 0.095220 -0.014320
v 0.000161 0.095221 -0.014323
v 0.012067 0.095221 -0.007241
v 0.001446 0.095220 -0.014643
v 0.002734 0.095220 -0.014323
v 0.000000 0.095221 -0.014804
v 0.004022 0.095219 -0.014000
v 0.005310 0.095217 -0.013677
v 0.011424 0.095222 -0.006598
v 0.012712 0.095221 -0.007241
v 0.013032 0.095221 0.007244
v 0.002415 0.095227 -0.001127
v 0.013355 0.095220 0.006272
v 0.014966 0.095218 -0.000161
v 0.014643 0.095219 -0.001446
v 0.014320 0.095219 -0.002734
v 0.014000 0.095219 -0.004022
v 0.013678 0.095217 -0.005310
v 0.013886 0.095197 -0.005310
v 0.014848 0.095195 -0.001769
v 0.014643 0.095215 -0.001769
v 0.014966 0.095217 -0.000481
v 0.015202 0.095199 -0.000161
v -0.000161 0.095032 0.015605
v -0.000481 0.094998 0.015605
v -0.000481 0.094906 0.015779
v 0.000000 0.095032 0.015608
v 0.014345 0.095114 0.004342
v 0.014823 0.095188 0.001999
v 0.013554 0.095194 0.006595
v 0.013246 0.095196 0.007563
v 0.013861 0.095189 0.005555
v 0.013032 0.095217 0.007563
v 0.013017 0.095198 0.007871
v 0.008076 0.095189 0.012902
v 0.007874 0.095198 0.013016
v 0.007564 0.095216 0.013035
v 0.007564 0.095196 0.013249
v 0.006828 0.095187 0.013535
v 0.006927 0.095112 0.013656
v 0.003259 0.095184 0.014494
v 0.001999 0.095187 0.014823
v 0.000829 0.095122 0.015266
v 0.005655 0.095121 0.013982
v 0.000736 0.095190 0.015152
v 0.000161 0.095032 0.015608
v 0.015202 0.095199 0.000158
v 0.014963 0.095217 0.000478
v 0.014643 0.095215 0.001766
v 0.013355 0.095215 0.006595
v 0.013886 0.095197 0.005307
v 0.014845 0.095195 0.001766
v -0.007927 0.094906 -0.013733
v -0.008104 0.094906 -0.013609
v -0.007871 0.095198 -0.013019
v -0.007564 0.095216 -0.013032
v -0.008221 0.094954 -0.013373
v -0.010155 0.094954 -0.011443
v -0.008395 0.095189 -0.012582
v -0.000161 0.095228 -0.000481
v 0.000161 0.095228 -0.000161
v 0.000000 0.095222 -0.013358
v 0.000000 0.095221 -0.014323
v -0.012067 0.095221 -0.007241
v -0.006276 0.095219 -0.013355
v -0.012712 0.095217 -0.007883
v -0.012712 0.095221 -0.007560
v -0.007241 0.095218 -0.013032
v -0.007886 0.095216 -0.012712
v 0.000161 0.095222 -0.013358
v 0.002092 0.095227 -0.001127
v 0.012709 0.095221 0.007244
v 0.012709 0.095221 0.007563
v 0.002415 0.095227 0.001124
v 0.000646 0.095228 -0.000003
v 0.013675 0.095217 0.005307
v 0.013997 0.095219 0.004019
v 0.014320 0.095219 0.002731
v 0.014643 0.095219 0.001443
v 0.014963 0.095218 0.000158
v 0.014966 0.095218 -0.000003
v -0.000161 0.095200 0.015201
v -0.000481 0.095197 0.015176
v -0.000739 0.095190 0.015152
v -0.000829 0.095122 0.015266
v -0.004345 0.095115 0.014348
v -0.001769 0.094985 0.015285
v -0.002734 0.094906 0.015180
v 0.012709 0.095217 0.007883
v 0.007244 0.095218 0.013035
v 0.006276 0.095219 0.013355
v 0.006598 0.095214 0.013355
v 0.011744 0.095217 0.008848
v 0.012390 0.095221 0.007883
v 0.006598 0.095195 0.013553
v 0.005565 0.095190 0.013864
v 0.000481 0.095197 0.015176
v 0.000161 0.095200 0.015201
v -0.010121 0.095198 -0.010766
v -0.013374 0.094953 -0.008221
v -0.010649 0.095188 -0.010326
v -0.013017 0.095198 -0.007868
v -0.000161 0.095228 -0.000158
v 0.000161 0.095228 0.000158
v -0.011424 0.095222 -0.006595
v -0.012712 0.095221 -0.007241
v -0.013032 0.095217 -0.007560
v -0.013032 0.095221 -0.007241
v 0.011424 0.095222 0.006595
v 0.012390 0.095221 0.007244
v 0.002092 0.095227 0.001124
v 0.012067 0.095221 0.007244
v 0.000161 0.095221 0.014965
v -0.000161 0.095221 0.014965
v -0.000481 0.095218 0.014965
v 0.000000 0.095210 0.015086
v -0.005310 0.095197 0.013888
v -0.001769 0.095195 0.014847
v -0.005568 0.095190 0.013864
v -0.001999 0.095187 0.014823
v -0.004522 0.095181 0.014165
v -0.006825 0.095187 0.013535
v -0.005658 0.095122 0.013982
v -0.006598 0.094983 0.014000
v -0.007557 0.094906 0.013888
v 0.001446 0.095220 0.014640
v 0.002734 0.095220 0.014320
v 0.004022 0.095219 0.013997
v 0.005310 0.095217 0.013677
v 0.000481 0.095218 0.014965
v 0.005310 0.095197 0.013882
v -0.013609 0.094906 -0.008100
v -0.013218 0.095188 -0.007750
v -0.012579 0.095188 -0.008392
v -0.009814 0.095223 -0.005630
v -0.007886 0.095224 -0.004342
v -0.000161 0.095228 0.000158
v 0.000000 0.095221 0.013842
v 0.000161 0.095222 0.013355
v -0.000161 0.095228 0.000481
v -0.000161 0.095221 0.014320
v -0.012712 0.095221 0.007241
v -0.013035 0.095221 0.007241
v -0.013246 0.095196 -0.007560
v -0.013355 0.095215 -0.006595
v -0.013355 0.095220 -0.006272
v 0.000161 0.095221 0.014320
v 0.000000 0.095221 0.014807
v 0.000000 0.095221 0.014965
v -0.012390 0.095221 0.007883
v -0.001446 0.095220 0.014643
v -0.002734 0.095220 0.014320
v -0.004025 0.095219 0.014000
v -0.005310 0.095217 0.013677
v -0.006598 0.095214 0.013355
v -0.006598 0.095195 0.013556
v -0.007564 0.095013 0.013677
v -0.006927 0.095113 0.013656
v -0.007564 0.095196 0.013249
v -0.007756 0.095189 0.013221
v -0.007750 0.094906 0.013826
v -0.013730 0.094906 -0.007927
v -0.013678 0.095012 -0.007560
v -0.013532 0.095186 -0.006815
v -0.007886 0.095224 0.004345
v -0.009814 0.095223 0.005633
v -0.011424 0.095222 0.006598
v -0.012070 0.095221 0.007241
v -0.012712 0.095221 0.007563
v -0.013035 0.095217 0.007563
v -0.013355 0.095220 0.006275
v -0.013557 0.095194 -0.006595
v -0.013886 0.095197 -0.005307
v -0.015177 0.095197 -0.000481
v -0.013678 0.095217 -0.005307
v -0.013997 0.095219 -0.004019
v -0.014320 0.095219 -0.002731
v -0.014323 0.095219 0.002734
v -0.007564 0.095216 0.013035
v -0.007241 0.095218 0.013035
v -0.006276 0.095219 0.013355
v -0.007874 0.095198 0.013019
v -0.010649 0.095188 0.010329
v -0.013374 0.094953 0.008224
v -0.010798 0.094953 0.010800
v -0.008221 0.094954 0.013373
v -0.008122 0.094906 0.013597
v -0.013789 0.094906 -0.007836
v -0.013886 0.094906 -0.007560
v -0.013997 0.094982 -0.006595
v -0.013982 0.095119 -0.005652
v -0.013861 0.095189 -0.005555
v -0.015270 0.095125 -0.000832
v -0.014162 0.095180 -0.004516
v -0.014823 0.095188 -0.002002
v -0.012712 0.095217 0.007883
v -0.013355 0.095215 0.006598
v -0.013249 0.095196 0.007563
v -0.013218 0.095188 0.007750
v -0.013020 0.095198 0.007868
v -0.013997 0.095219 0.004022
v -0.013678 0.095217 0.005310
v -0.015152 0.095190 -0.000745
v -0.014845 0.095195 -0.001769
v -0.015608 0.095034 -0.000158
v -0.015363 0.095134 -0.000158
v -0.015202 0.095199 -0.000158
v -0.014966 0.095217 -0.000481
v -0.014643 0.095215 -0.001769
v -0.014966 0.095218 -0.000158
v -0.014966 0.095218 0.000158
v -0.014966 0.095217 0.000481
v -0.007927 0.094906 0.013733
v -0.012899 0.095188 0.008072
v -0.015180 0.094906 -0.002734
v -0.015608 0.094998 -0.000481
v -0.014345 0.095114 -0.004342
v -0.015177 0.095197 0.000481
v -0.013886 0.095197 0.005310
v -0.013557 0.095194 0.006598
v -0.013532 0.095186 0.006815
v -0.013678 0.095012 0.007563
v -0.013613 0.094906 0.008103
v -0.014643 0.095215 0.001769
v -0.015726 0.094977 0.000000
v -0.015608 0.095034 0.000158
v -0.015366 0.095134 0.000000
v -0.015205 0.095199 0.000000
v -0.015205 0.095199 0.000158
v -0.015782 0.094906 -0.000481
v -0.015825 0.094906 -0.000310
v -0.015366 0.095134 0.000158
v -0.015152 0.095190 0.000745
v -0.014848 0.095195 0.001769
v -0.013861 0.095189 0.005558
v -0.014823 0.095188 0.002005
v -0.014494 0.095184 0.003262
v -0.014165 0.095181 0.004519
v -0.014348 0.095115 0.004345
v -0.013982 0.095120 0.005652
v -0.013886 0.094906 0.007557
v -0.013827 0.094906 0.007747
v -0.014323 0.094995 0.005310
v -0.013997 0.094983 0.006598
v -0.013734 0.094906 0.007927
v -0.015841 0.094918 0.000000
v -0.015608 0.094999 0.000481
v -0.015273 0.095125 0.000832
v -0.015850 0.094906 -0.000158
v -0.015853 0.094906 0.000158
v -0.015124 0.095178 0.000959
v -0.015183 0.094906 0.002731
v -0.015825 0.094906 0.000310
v -0.015785 0.094906 0.000481
vn 0.0002 -1.0000 -0.0010
vn 0.0001 -1.0000 -0.0000
vn 0.0001 -1.0000 -0.0006
vn 0.0001 -1.0000 -0.0004
vn -0.0000 -1.0000 0.0002
vn -0.0000 -1.0000 -0.0002
vn -0.0000 -1.0000 -0.0001
vn -0.0000 -1.0000 -0.0000
vn -0.0000 -1.0000 0.0001
vn 0.0845 0.9927 -0.0860
vn -0.0008 1.0000 -0.0000
vn -0.0000 1.0000 -0.0000
vn -0.0000 -1.0000 0.0003
vn -0.0000 -1.0000 0.0004
vn -0.0723 0.8979 -0.4342
vn -0.0954 0.8833 -0.4591
vn -0.0281 0.8869 -0.4610
vn -0.0000 0.8721 -0.4893
vn -0.0002 0.8721 -0.4894
vn 0.0953 0.8808 -0.4637
vn 0.0624 0.9017 -0.4278
vn 0.0233 0.8846 -0.4657
vn 0.1175 0.8792 -0.4617
vn 0.1233 0.8786 -0.4613
vn 0.1230 0.8795 -0.4597
vn 0.1235 0.8788 -0.4610
vn 0.1233 0.8794 -0.4599
vn 0.1225 0.8852 -0.4489
vn 0.1515 0.8816 -0.4471
vn 0.2036 0.8964 -0.3937
vn 0.2737 0.8778 -0.3930
vn 0.3358 0.8788 -0.3391
vn 0.3475 0.8708 -0.3476
vn 0.3389 0.8777 -0.3388
vn 0.3358 0.8827 -0.3287
vn 0.3864 0.8793 -0.2784
vn 0.3432 0.9148 -0.2130
vn 0.4468 0.8807 -0.1575
vn 0.4490 0.8850 -0.1232
vn 0.4646 0.8767 -0.1244
vn 0.4647 0.8767 -0.1244
vn 0.4673 0.8753 -0.1249
vn 0.4649 0.8766 -0.1245
vn 0.4651 0.8770 -0.1206
vn 0.4623 0.8791 -0.1157
vn -0.0007 1.0000 0.0001
vn 1.0000 -0.0000 -0.0000
vn -0.1176 0.8791 -0.4619
vn -0.1232 0.8785 -0.4616
vn -0.1227 0.8800 -0.4589
vn -0.1209 0.8838 -0.4520
vn -0.1198 0.8857 -0.4485
vn -0.1024 0.8951 -0.4340
vn -0.0968 0.8968 -0.4317
vn -0.0075 0.9243 -0.3815
vn -0.0086 0.8982 -0.4396
vn -0.0668 0.9142 -0.3998
vn -0.0367 0.9237 -0.3813
vn -0.0000 0.8982 -0.4396
vn 0.0403 0.9236 -0.3811
vn 0.0657 0.9156 -0.3967
vn 0.0971 0.8976 -0.4300
vn -0.0000 0.9244 -0.3815
vn 0.1038 0.8955 -0.4329
vn 0.1185 0.8876 -0.4450
vn 0.1210 0.8836 -0.4523
vn 0.1211 0.8843 -0.4510
vn 0.1224 0.8854 -0.4485
vn 0.1208 0.8856 -0.4486
vn 0.1209 0.8861 -0.4474
vn 0.1957 0.8848 -0.4229
vn 0.1229 0.8879 -0.4434
vn 0.1344 0.9046 -0.4046
vn 0.1104 0.9878 -0.1101
vn 0.3349 0.8808 -0.3346
vn 0.3354 0.8804 -0.3354
vn 0.0729 0.9722 -0.2225
vn 0.0523 0.9946 -0.0893
vn 0.0597 0.9949 -0.0818
vn 0.3324 0.8829 -0.3317
vn 0.3332 0.8833 -0.3298
vn 0.0952 0.9937 -0.0588
vn 0.2566 0.9628 -0.0842
vn 0.4017 0.9061 -0.1326
vn 0.4193 0.8870 -0.1932
vn 0.1166 0.9865 -0.1151
vn 0.0881 0.9939 -0.0659
vn 0.4368 0.8912 -0.1222
vn 0.4440 0.8877 -0.1215
vn 0.4452 0.8873 -0.1200
vn 0.4567 0.8811 -0.1224
vn 0.4427 0.8886 -0.1197
vn 0.4441 0.8904 -0.0997
vn 0.4380 0.8934 -0.1001
vn 0.4464 0.8948 -0.0000
vn 0.0843 0.9927 0.0858
vn -0.4965 0.1563 -0.8538
vn 0.1042 0.9775 0.1834
vn -0.2136 0.5976 -0.7728
vn 0.1016 0.9168 0.3863
vn 0.0001 -1.0000 0.0004
vn 0.0001 -1.0000 0.0002
vn 0.0691 -0.4994 0.8636
vn 0.4465 0.8948 0.0002
vn 0.4442 0.8903 0.1000
vn 0.4618 0.8794 0.1155
vn -0.1249 0.8761 -0.4656
vn -0.1240 0.8826 -0.4535
vn -0.1227 0.8846 -0.4499
vn -0.1212 0.8854 -0.4487
vn -0.1173 0.8907 -0.4392
vn -0.1201 0.8877 -0.4444
vn -0.1170 0.8920 -0.4367
vn -0.1131 0.8972 -0.4268
vn -0.1145 0.8955 -0.4300
vn -0.0870 0.9415 -0.3255
vn -0.0475 0.9829 -0.1776
vn -0.0471 0.9831 -0.1767
vn -0.0017 0.9961 -0.0880
vn -0.0073 0.9244 -0.3815
vn -0.0153 0.9951 -0.0980
vn -0.0078 0.9961 -0.0879
vn -0.0457 0.9845 -0.1694
vn -0.0440 0.9853 -0.1649
vn -0.0344 0.9913 -0.1271
vn -0.0263 0.9948 -0.0981
vn 0.0078 0.9962 -0.0869
vn 0.0161 0.9951 -0.0979
vn -0.0000 0.9962 -0.0869
vn 0.0262 0.9949 -0.0978
vn 0.0341 0.9910 -0.1295
vn 0.0384 0.9891 -0.1423
vn 0.0463 0.9835 -0.1749
vn 0.0477 0.9826 -0.1794
vn 0.0566 0.9757 -0.2116
vn 0.0821 0.9480 -0.3075
vn 0.0967 0.9269 -0.3626
vn 0.1134 0.8973 -0.4267
vn 0.1138 0.8969 -0.4274
vn 0.1142 0.8961 -0.4289
vn 0.1150 0.8948 -0.4314
vn 0.1155 0.8945 -0.4318
vn 0.1189 0.8893 -0.4415
vn 0.1203 0.8873 -0.4453
vn 0.0529 0.9839 -0.1706
vn 0.1055 0.9122 -0.3959
vn 0.1027 0.9173 -0.3848
vn 0.0571 0.9757 -0.2115
vn 0.0586 0.9965 -0.0588
vn 0.0654 0.9957 -0.0651
vn 0.1103 0.9878 -0.1102
vn 0.1144 0.9869 -0.1139
vn 0.0294 0.9949 -0.0969
vn 0.0286 0.9956 -0.0895
vn 0.0126 0.9991 -0.0413
vn 0.0080 0.9997 -0.0233
vn 0.0080 0.9999 -0.0085
vn 0.0095 0.9999 -0.0100
vn 0.0124 0.9998 -0.0125
vn 0.0379 0.9992 -0.0123
vn 0.0527 0.9985 -0.0160
vn 0.0954 0.9950 -0.0302
vn 0.0653 0.9958 -0.0648
vn 0.0126 0.9998 -0.0126
vn 0.0126 0.9998 -0.0123
vn 0.1020 0.9943 -0.0310
vn 0.1972 0.9785 -0.0612
vn 0.2427 0.9678 -0.0662
vn 0.3306 0.9396 -0.0887
vn 0.4019 0.9093 -0.1082
vn 0.4326 0.8940 -0.1165
vn 0.4353 0.8926 -0.1173
vn 0.4393 0.8905 -0.1187
vn 0.4280 0.8988 -0.0943
vn 0.4233 0.8988 -0.1137
vn 0.4170 0.9021 -0.1111
vn 0.3921 0.9179 -0.0611
vn 0.3775 0.9252 -0.0377
vn 0.3778 0.9259 -0.0000
vn 0.4647 0.8772 0.1204
vn 0.4645 0.8768 0.1243
vn 0.4572 0.8809 0.1226
vn 0.4524 0.8835 0.1217
vn 0.4450 0.8873 0.1211
vn 0.4440 0.8877 0.1218
vn 0.4418 0.8832 0.1574
vn 0.4202 0.8914 0.1698
vn 0.3716 0.8808 0.2935
vn 0.3326 0.8828 0.3317
vn 0.3456 0.8723 0.3459
vn 0.3486 0.8699 0.3489
vn 0.3355 0.8788 0.3393
vn 0.2950 0.8786 0.3756
vn 0.1557 0.8758 0.4568
vn 0.1754 0.8896 0.4218
vn 0.1244 0.8798 0.4588
vn 0.1249 0.8767 0.4645
vn 0.1225 0.8810 0.4569
vn 0.1223 0.8812 0.4567
vn 0.1231 0.8786 0.4614
vn 0.1214 0.8789 0.4614
vn 0.1298 0.8501 0.5103
vn 0.3775 0.9251 0.0414
vn 0.3866 0.9205 0.0562
vn 0.4280 0.8988 0.0943
vn 0.4385 0.8931 0.1003
vn -0.1564 0.8764 -0.4555
vn -0.2152 0.9129 -0.3468
vn -0.1952 0.8848 -0.4231
vn -0.1345 0.9044 -0.4050
vn -0.1236 0.8885 -0.4419
vn -0.1029 0.9165 -0.3865
vn -0.0525 0.9798 -0.1929
vn -0.0921 0.9344 -0.3441
vn -0.0669 0.9765 -0.2050
vn -0.0495 0.9859 -0.1599
vn -0.0002 1.0000 -0.0006
vn -0.0002 1.0000 -0.0007
vn -0.0002 0.9962 -0.0868
vn -0.0078 0.9995 -0.0299
vn -0.0006 1.0000 -0.0011
vn -0.0003 1.0000 -0.0006
vn -0.0257 0.9951 -0.0952
vn -0.0258 0.9950 -0.0965
vn -0.0183 0.9976 -0.0675
vn -0.0106 0.9992 -0.0395
vn -0.0080 0.9995 -0.0302
vn -0.0294 0.9948 -0.0970
vn -0.0264 0.9949 -0.0971
vn 0.0003 1.0000 -0.0006
vn 0.0003 1.0000 -0.0005
vn 0.0005 1.0000 -0.0008
vn 0.0006 1.0000 -0.0011
vn 0.0066 0.9996 -0.0292
vn 0.0079 0.9995 -0.0302
vn -0.0000 1.0000 -0.0006
vn 0.0001 1.0000 -0.0006
vn 0.0121 0.9989 -0.0447
vn 0.0180 0.9977 -0.0661
vn 0.0218 0.9964 -0.0818
vn 0.0256 0.9951 -0.0951
vn 0.0263 0.9950 -0.0968
vn 0.0512 0.9800 -0.1921
vn 0.0430 0.9860 -0.1609
vn 0.0126 0.9990 -0.0431
vn 0.0112 0.9992 -0.0389
vn 0.0072 0.9996 -0.0256
vn 0.0016 1.0000 -0.0045
vn 0.0007 1.0000 -0.0011
vn 0.0007 1.0000 -0.0012
vn 0.0004 1.0000 -0.0004
vn 0.0006 1.0000 -0.0004
vn 0.0012 1.0000 -0.0000
vn 0.0006 1.0000 -0.0000
vn 0.0013 1.0000 -0.0000
vn 0.0017 1.0000 -0.0000
vn 0.0031 1.0000 -0.0004
vn 0.0261 0.9996 -0.0068
vn 0.0502 0.9986 -0.0136
vn 0.0572 0.9982 -0.0160
vn 0.0968 0.9950 -0.0260
vn 0.0984 0.9948 -0.0264
vn 0.1020 0.9944 -0.0279
vn 0.1379 0.9898 -0.0371
vn 0.1687 0.9846 -0.0451
vn 0.2136 0.9752 -0.0578
vn 0.2872 0.9548 -0.0769
vn 0.1524 0.9875 -0.0404
vn 0.1186 0.9924 -0.0321
vn 0.0933 0.9953 -0.0248
vn 0.0927 0.9954 -0.0245
vn 0.0927 0.9956 -0.0116
vn 0.3701 0.9284 -0.0328
vn 0.3703 0.9289 -0.0000
vn -0.0954 0.8833 0.4591
vn -0.0724 0.8979 0.4342
vn -0.0089 0.8873 0.4611
vn -0.1176 0.8791 0.4619
vn -0.0091 0.8872 0.4613
vn -0.0461 0.8863 0.4607
vn 0.4493 0.8851 0.1211
vn 0.4170 0.9021 0.1110
vn 0.4240 0.8984 0.1140
vn 0.4373 0.8916 0.1179
vn 0.4448 0.8875 0.1205
vn 0.1820 0.9817 0.0562
vn 0.2355 0.9688 0.0770
vn 0.4041 0.9049 0.1334
vn 0.3092 0.9473 0.0832
vn 0.2183 0.9740 0.0597
vn 0.4152 0.8936 0.1705
vn 0.0966 0.9937 0.0575
vn 0.0881 0.9939 0.0659
vn 0.1180 0.9860 0.1175
vn 0.3319 0.8832 0.3313
vn 0.3335 0.8818 0.3334
vn 0.3352 0.8804 0.3354
vn 0.0599 0.9949 0.0816
vn 0.0510 0.9946 0.0906
vn 0.0667 0.9767 0.2038
vn 0.1350 0.9042 0.4051
vn 0.1760 0.8914 0.4176
vn 0.1104 0.9878 0.1102
vn 0.1233 0.8872 0.4447
vn 0.1224 0.8831 0.4529
vn 0.1219 0.8834 0.4526
vn 0.1157 0.8930 0.4348
vn 0.1160 0.8920 0.4369
vn 0.1178 0.8886 0.4433
vn 0.1210 0.8853 0.4490
vn 0.1201 0.8868 0.4462
vn 0.1154 0.8943 0.4323
vn 0.1109 0.8922 0.4377
vn 0.0970 0.8967 0.4318
vn 0.0969 0.8958 0.4339
vn -0.0000 0.9000 0.4359
vn 0.3701 0.9283 0.0364
vn 0.0927 0.9956 0.0125
vn 0.0927 0.9954 0.0243
vn 0.0953 0.9951 0.0254
vn 0.0980 0.9948 0.0262
vn 0.1252 0.9916 0.0335
vn 0.1423 0.9891 0.0378
vn 0.1512 0.9877 0.0406
vn 0.1650 0.9853 0.0443
vn 0.1911 0.9802 0.0516
vn 0.2841 0.9558 0.0762
vn -0.2754 0.8776 -0.3924
vn -0.0589 0.9950 -0.0813
vn -0.0508 0.9947 -0.0893
vn -0.3319 0.8789 -0.3427
vn -0.3350 0.8804 -0.3355
vn -0.3335 0.8819 -0.3332
vn -0.1106 0.9877 -0.1105
vn -0.0286 0.9956 -0.0895
vn -0.0001 1.0000 -0.0005
vn -0.0000 1.0000 -0.0005
vn -0.0003 1.0000 -0.0005
vn -0.0018 1.0000 -0.0058
vn -0.0007 1.0000 -0.0011
vn -0.0122 0.9998 -0.0124
vn -0.0004 1.0000 -0.0005
vn -0.0007 1.0000 -0.0012
vn -0.0080 0.9999 -0.0085
vn -0.0122 0.9998 -0.0125
vn -0.0128 0.9990 -0.0435
vn -0.0128 0.9990 -0.0421
vn -0.0110 0.9992 -0.0382
vn -0.0064 0.9997 -0.0225
vn 0.0005 1.0000 -0.0000
vn 0.0005 1.0000 -0.0002
vn 0.0006 1.0000 0.0004
vn 0.0125 0.9998 0.0123
vn 0.0385 0.9992 0.0124
vn 0.0006 1.0000 -0.0001
vn 0.0529 0.9985 0.0160
vn 0.0577 0.9982 0.0160
vn 0.0522 0.9985 0.0141
vn 0.0289 0.9996 0.0076
vn 0.0031 1.0000 0.0004
vn 0.0015 1.0000 -0.0001
vn 0.0014 1.0000 -0.0000
vn 0.0182 0.9998 -0.0042
vn 0.0829 0.9966 -0.0000
vn 0.0829 0.9966 -0.0042
vn 0.0183 0.9998 -0.0043
vn 0.0319 0.9995 -0.0081
vn 0.0719 0.9972 -0.0191
vn 0.0885 0.9958 -0.0236
vn -0.0368 0.9227 0.3838
vn -0.0663 0.9132 0.4021
vn -0.0967 0.8954 0.4346
vn -0.0076 0.9233 0.3840
vn -0.1073 0.8920 0.4392
vn -0.1192 0.8855 0.4491
vn -0.1210 0.8825 0.4544
vn -0.1226 0.8791 0.4606
vn -0.1227 0.8786 0.4616
vn -0.0000 0.9244 0.3815
vn 0.1036 0.9941 0.0314
vn 0.1036 0.9942 0.0285
vn 0.0967 0.9948 0.0306
vn 0.0125 0.9998 0.0126
vn 0.0198 0.9997 0.0130
vn 0.0586 0.9965 0.0588
vn 0.0650 0.9958 0.0648
vn 0.1104 0.9877 0.1104
vn 0.0081 0.9997 0.0238
vn 0.0127 0.9990 0.0422
vn 0.0288 0.9955 0.0908
vn 0.0122 0.9993 0.0339
vn 0.0124 0.9998 0.0125
vn 0.0095 0.9999 0.0103
vn 0.0081 0.9999 0.0086
vn 0.0296 0.9947 0.0985
vn 0.0460 0.9876 0.1503
vn 0.0479 0.9833 0.1757
vn 0.0841 0.9449 0.3165
vn 0.0889 0.9391 0.3319
vn 0.1038 0.9151 0.3897
vn 0.1204 0.8865 0.4467
vn 0.1152 0.8931 0.4348
vn 0.0666 0.9142 0.3997
vn 0.0468 0.9833 0.1757
vn 0.0367 0.9238 0.3812
vn 0.0818 0.9966 0.0016
vn 0.0818 0.9966 0.0042
vn 0.0183 0.9998 0.0042
vn 0.0190 0.9998 0.0045
vn 0.0354 0.9993 0.0091
vn 0.0719 0.9972 0.0194
vn 0.0771 0.9968 0.0203
vn 0.0896 0.9957 0.0239
vn -0.3594 0.8612 -0.3593
vn -0.3487 0.8698 -0.3492
vn -0.1105 0.9878 -0.1102
vn -0.0652 0.9958 -0.0649
vn -0.0585 0.9966 -0.0587
vn -0.0581 0.9966 -0.0587
vn -0.0080 0.9997 -0.0230
vn -0.3532 0.8666 -0.3526
vn -0.3331 0.8822 -0.3327
vn -0.3324 0.8829 -0.3318
vn -0.1130 0.9872 -0.1128
vn -0.1108 0.9876 -0.1108
vn -0.0001 1.0000 -0.0000
vn -0.0003 1.0000 -0.0004
vn -0.0004 1.0000 -0.0006
vn -0.0004 1.0000 -0.0004
vn -0.0655 0.9957 -0.0649
vn -0.0125 0.9998 -0.0124
vn -0.0655 0.9957 -0.0652
vn -0.0125 0.9998 -0.0123
vn -0.0007 1.0000 -0.0005
vn 0.0004 1.0000 0.0005
vn 0.0005 1.0000 0.0001
vn 0.0004 1.0000 0.0004
vn 0.0003 1.0000 0.0005
vn 0.0005 1.0000 0.0008
vn 0.0124 0.9998 0.0126
vn 0.0006 1.0000 0.0001
vn -0.0078 0.9961 0.0879
vn -0.0152 0.9951 0.0979
vn -0.0000 0.9960 0.0890
vn -0.0007 0.9961 0.0879
vn -0.0262 0.9948 0.0980
vn -0.0379 0.9893 0.1411
vn -0.0466 0.9834 0.1752
vn -0.0495 0.9813 0.1859
vn -0.0949 0.9303 0.3544
vn -0.1152 0.8935 0.4339
vn -0.1153 0.8935 0.4341
vn -0.1165 0.8933 0.4342
vn -0.1165 0.8932 0.4343
vn -0.1213 0.8840 0.4515
vn -0.1220 0.8812 0.4568
vn -0.1151 0.8939 0.4332
vn -0.1224 0.8802 0.4585
vn -0.1244 0.8766 0.4649
vn 0.0007 1.0000 0.0011
vn 0.0016 1.0000 0.0044
vn 0.0072 0.9996 0.0256
vn 0.0104 0.9993 0.0364
vn 0.0127 0.9990 0.0433
vn 0.0259 0.9949 0.0971
vn 0.0261 0.9950 0.0966
vn 0.0268 0.9948 0.0985
vn 0.0006 1.0000 0.0011
vn 0.0331 0.9916 0.1254
vn 0.0412 0.9873 0.1532
vn 0.0264 0.9948 0.0980
vn 0.0153 0.9951 0.0980
vn 0.0078 0.9961 0.0880
vn 0.0006 0.9961 0.0881
vn -0.3423 0.8814 -0.3257
vn -0.3320 0.8836 -0.3302
vn -0.3321 0.8831 -0.3313
vn -0.1153 0.9867 -0.1148
vn -0.0881 0.9939 -0.0659
vn -0.1174 0.9862 -0.1166
vn -0.0005 1.0000 -0.0004
vn -0.0005 1.0000 -0.0002
vn -0.0006 1.0000 -0.0000
vn 0.0001 1.0000 0.0005
vn 0.0003 1.0000 0.0004
vn -0.0001 1.0000 0.0005
vn -0.0000 1.0000 0.0005
vn -0.0005 1.0000 -0.0003
vn -0.0005 1.0000 -0.0000
vn -0.0007 1.0000 -0.0000
vn -0.0965 0.9937 -0.0577
vn -0.0966 0.9949 -0.0306
vn -0.0525 0.9985 -0.0160
vn -0.0381 0.9992 -0.0123
vn -0.0012 1.0000 -0.0000
vn 0.0003 1.0000 0.0006
vn 0.0001 1.0000 0.0006
vn -0.0000 1.0000 0.0006
vn -0.0000 0.9962 0.0872
vn 0.0079 0.9995 0.0300
vn 0.0038 0.9999 0.0162
vn -0.0003 1.0000 0.0006
vn -0.0006 1.0000 0.0011
vn -0.0078 0.9995 0.0299
vn -0.0002 0.9962 0.0872
vn -0.0002 1.0000 0.0007
vn -0.0080 0.9995 0.0302
vn -0.0104 0.9992 0.0385
vn -0.0190 0.9973 0.0706
vn -0.0253 0.9953 0.0938
vn -0.0254 0.9953 0.0940
vn -0.0266 0.9949 0.0970
vn -0.0427 0.9862 0.1599
vn -0.0438 0.9856 0.1631
vn -0.0526 0.9798 0.1930
vn -0.0995 0.9224 0.3731
vn -0.0985 0.9238 0.3699
vn -0.1238 0.8893 0.4402
vn -0.1200 0.8885 0.4430
vn -0.0497 0.9858 0.1605
vn -0.0669 0.9765 0.2051
vn -0.1343 0.9046 0.4046
vn -0.1215 0.8853 0.4489
vn -0.1228 0.8847 0.4498
vn -0.1235 0.8835 0.4519
vn -0.1455 0.8806 0.4510
vn 0.0116 0.9990 0.0430
vn 0.0157 0.9982 0.0575
vn -0.3898 0.8799 -0.2715
vn -0.4198 0.8864 -0.1950
vn -0.4018 0.9060 -0.1330
vn -0.2350 0.9689 -0.0771
vn -0.0005 1.0000 0.0002
vn -0.0005 1.0000 0.0004
vn -0.0003 1.0000 0.0005
vn -0.0007 1.0000 0.0005
vn -0.0004 1.0000 0.0006
vn -0.0004 1.0000 0.0004
vn -0.0124 0.9998 0.0122
vn -0.0380 0.9992 0.0122
vn -0.1900 0.9800 -0.0595
vn -0.1021 0.9943 -0.0313
vn -0.1021 0.9944 -0.0279
vn -0.0987 0.9948 -0.0265
vn -0.0957 0.9951 -0.0255
vn -0.0570 0.9982 -0.0159
vn -0.0489 0.9987 -0.0133
vn -0.0310 0.9995 -0.0081
vn -0.0013 1.0000 -0.0000
vn -0.0109 0.9999 0.0116
vn -0.0080 0.9999 0.0085
vn -0.0007 1.0000 0.0012
vn -0.0007 1.0000 0.0011
vn -0.0018 1.0000 0.0058
vn -0.0062 0.9997 0.0217
vn -0.0111 0.9992 0.0385
vn -0.0128 0.9990 0.0435
vn -0.0128 0.9990 0.0425
vn -0.0287 0.9955 0.0908
vn -0.0294 0.9949 0.0969
vn -0.1959 0.8848 0.4229
vn -0.2049 0.8980 0.3894
vn -0.0510 0.9946 0.0906
vn -0.0591 0.9948 0.0824
vn -0.1144 0.9868 0.1142
vn -0.3336 0.8818 0.3334
vn -0.3344 0.8811 0.3344
vn -0.3352 0.8804 0.3355
vn -0.2744 0.8777 0.3928
vn -0.3312 0.9183 -0.2170
vn -0.4471 0.8808 -0.1558
vn -0.4493 0.8850 -0.1219
vn -0.4472 0.8862 -0.1212
vn -0.4435 0.8881 -0.1207
vn -0.2372 0.9693 -0.0645
vn -0.4358 0.8923 -0.1174
vn -0.4280 0.8964 -0.1151
vn -0.4230 0.8990 -0.1136
vn -0.2998 0.9506 -0.0809
vn -0.0123 0.9998 0.0125
vn -0.0124 0.9998 0.0125
vn -0.0530 0.9985 0.0159
vn -0.0966 0.9949 0.0303
vn -0.0965 0.9935 0.0602
vn -0.0899 0.9937 0.0667
vn -0.0657 0.9957 0.0655
vn -0.0580 0.9966 0.0582
vn -0.0210 0.9996 0.0206
vn -0.0322 0.9994 0.0085
vn -0.0485 0.9987 0.0131
vn -0.0569 0.9983 0.0159
vn -0.2149 0.9749 -0.0578
vn -0.1513 0.9877 -0.0405
vn -0.1462 0.9885 -0.0396
vn -0.1430 0.9890 -0.0387
vn -0.3926 0.9177 -0.0612
vn -0.3777 0.9252 -0.0374
vn -0.3701 0.9284 -0.0325
vn -0.0923 0.9957 -0.0114
vn -0.0923 0.9954 -0.0244
vn -0.0933 0.9953 -0.0248
vn -0.1502 0.9878 -0.0401
vn -0.0856 0.9961 -0.0229
vn -0.0614 0.9980 -0.0163
vn -0.0361 0.9993 -0.0094
vn -0.0180 0.9998 -0.0042
vn -0.0014 1.0000 -0.0000
vn -0.0181 0.9998 0.0042
vn -0.0400 0.9991 0.0105
vn -0.0080 0.9997 0.0233
vn -0.1116 0.9875 0.1115
vn -0.1190 0.9858 0.1182
vn -0.3312 0.8839 0.3301
vn -0.3459 0.8722 0.3458
vn -0.3319 0.8843 0.3285
vn -0.3379 0.8829 0.3259
vn -0.3433 0.8743 0.3431
vn -0.3353 0.8804 0.3354
vn -0.4602 0.8792 -0.1234
vn -0.4561 0.8815 -0.1224
vn -0.4556 0.8818 -0.1224
vn -0.4495 0.8851 -0.1211
vn -0.4489 0.8853 -0.1210
vn -0.4447 0.8876 -0.1198
vn -0.2744 0.9588 -0.0740
vn -0.4368 0.8941 -0.0993
vn -0.4294 0.8981 -0.0949
vn -0.4189 0.9012 -0.1115
vn -0.4265 0.8972 -0.1147
vn -0.0964 0.9950 0.0258
vn -0.0986 0.9948 0.0264
vn -0.1020 0.9944 0.0278
vn -0.1020 0.9943 0.0310
vn -0.1960 0.9787 0.0609
vn -0.2632 0.9609 0.0865
vn -0.1209 0.9854 0.1195
vn -0.4008 0.9065 0.1328
vn -0.4182 0.8874 0.1938
vn -0.3899 0.8814 0.2668
vn -0.0623 0.9979 0.0166
vn -0.0869 0.9960 0.0231
vn -0.0931 0.9953 0.0247
vn -0.4361 0.8999 -0.0004
vn -0.3818 0.9242 -0.0004
vn -0.3819 0.9242 -0.0004
vn -0.3779 0.9258 -0.0074
vn -0.4650 0.8799 -0.0977
vn -0.4670 0.8838 -0.0292
vn -0.3703 0.9289 -0.0073
vn -0.3703 0.9289 -0.0072
vn -0.0825 0.9966 -0.0017
vn -0.0825 0.9966 -0.0041
vn -0.0814 0.9967 -0.0000
vn -0.0814 0.9967 0.0041
vn -0.0923 0.9957 0.0123
vn -0.0923 0.9954 0.0244
vn -0.4646 0.8768 -0.1241
vn -0.4649 0.8774 -0.1183
vn -0.4362 0.8970 -0.0712
vn -0.3698 0.9284 0.0360
vn -0.3815 0.9233 0.0438
vn -0.3923 0.9178 0.0612
vn -0.1524 0.9875 0.0403
vn -0.1186 0.9924 0.0319
vn -0.1366 0.9899 0.0373
vn -0.2415 0.9682 0.0658
vn -0.1685 0.9847 0.0450
vn -0.2146 0.9750 0.0578
vn -0.3153 0.9452 0.0851
vn -0.3372 0.9370 0.0910
vn -0.3435 0.9346 0.0924
vn -0.4326 0.8939 0.1172
vn -0.4403 0.8898 0.1198
vn -0.4421 0.8888 0.1206
vn -0.4517 0.8810 0.1407
vn -0.3895 0.8987 0.2015
vn -0.4438 0.8880 0.1208
vn -0.4479 0.8858 0.1216
vn -0.4505 0.8843 0.1223
vn -0.4523 0.8833 0.1230
vn -0.4561 0.8890 -0.0402
vn -0.4563 0.8893 0.0312
vn -0.4628 0.8861 0.0245
vn -0.4401 0.8925 0.0987
vn -0.4222 0.9022 0.0885
vn -0.4607 0.8821 0.0976
vn -0.3703 0.9289 -0.0004
vn -0.7390 0.6736 -0.0073
vn -0.3700 0.9290 -0.0000
vn -0.4105 0.9055 0.1072
vn -0.3982 0.9112 0.1059
vn -0.2569 0.9640 0.0691
vn -0.4126 0.9042 0.1101
vn -0.4149 0.9031 0.1111
vn -0.4158 0.9026 0.1112
vn -0.4319 0.8944 0.1164
vn -0.4516 0.8839 0.1215
vn -0.4534 0.8828 0.1231
vn -0.4660 0.8759 0.1253
vn -0.4599 0.8794 0.1231
vn -0.0000 1.0000 0.0007
vn -0.4606 0.8823 0.0974
vn -0.4593 0.8799 0.1217
vn -0.4601 0.8793 0.1231
vn 0.4648 0.8775 0.1182
vn 0.4406 0.8904 0.1142
vn -0.6063 0.7953 -0.0000
vn -0.6076 0.7942 0.0001
vn 0.4464 0.8949 -0.0000
vn 0.4416 0.8899 -0.1144
vn 0.4652 0.8772 -0.1184
vn 0.0001 -1.0000 0.0003
vn -0.0150 0.6251 0.7804
vn -0.0000 -1.0000 -0.0006
vn -0.0000 -1.0000 -0.0004
vn -0.0000 -0.0000 -1.0000
vn 0.0001 -1.0000 -0.0008
vn 0.4975 0.7980 0.3401
vn 0.1235 0.8773 0.4638
vn 0.1274 0.8685 0.4790
vn 0.0940 0.8976 0.4306
vn 0.0988 0.8956 0.4338
vn -0.0087 0.8976 0.4407
vn -0.0275 0.8870 0.4610
vn -0.0766 0.8847 0.4599
vn 0.3442 0.8734 0.3444
vn 0.3482 0.8702 0.3485
vn 0.3286 0.8090 0.4874
vn -0.0766 0.8847 -0.4599
vn -0.0001 0.8722 -0.4892
vn 0.0678 0.8828 -0.4648
vn 0.0961 0.8885 -0.4487
vn 0.1246 0.8760 -0.4659
vn 0.1207 0.8832 -0.4532
vn 0.1799 0.8903 -0.4184
vn 0.2151 0.8836 -0.4158
vn 0.3988 0.8830 -0.2475
vn 0.4143 0.8931 -0.1755
vn -0.0959 0.8885 0.4488
vn 0.3350 0.8806 0.3353
vn 0.3351 0.8806 0.3350
vn -0.1238 0.8763 -0.4656
vn -0.0959 0.8885 -0.4488
vn 0.3354 0.8804 -0.3353
vn 0.0261 0.9950 0.0967
vn -0.0257 0.9951 -0.0954
vn -0.2499 0.8806 -0.4026
vn -0.1775 0.8909 -0.4180
vn -0.1781 0.8909 0.4178
vn -0.3340 0.8815 0.3339
vn -0.2182 0.8834 0.4147
vn -0.3352 0.8805 -0.3350
vn -0.0126 0.9998 -0.0146
vn -0.3339 0.8815 0.3339
vn -0.3405 0.8765 0.3403
vn -0.3458 0.8723 0.3457
vn -0.3344 0.8809 -0.3350
vn -0.4112 0.8864 0.2127
vn -0.4139 0.8927 0.1781
vn -0.3950 0.8815 -0.2588
vn -0.4139 0.8935 -0.1740
vn -0.4564 0.8896 0.0185
vn -0.4627 0.8860 0.0304
vn -0.4613 0.8832 0.0848
vn -0.4536 0.8858 0.0980
vn -0.4529 0.8861 -0.0984
vn -0.4659 0.8816 -0.0761
vn -0.4669 0.8835 -0.0391
vn -0.4564 0.8896 -0.0192
vn -0.4600 0.8812 0.1087
s 0
f 1//1 3//1 4//1
f 1//2 4//2 5//2
f 1//3 5//3 6//3
f 1//4 6//4 7//4
f 1//5 7//5 8//5
f 1//6 8//6 9//6
f 1//7 9//7 10//7
f 1//8 10//8 11//8
f 1//7 11//7 12//7
f 1//5 12//5 13//5
f 1//8 13//8 14//8
f 1//8 14//8 15//8
f 1//9 15//9 16//9
f 1//10 35//10 16//10
f 1//11 17//11 35//11
f 1//12 36//12 17//12
f 1//12 70//12 36//12
f 1//8 70//8 122//8
f 1//8 122//8 176//8
f 1//8 176//8 238//8
f 1//8 238//8 275//8
f 1//8 275//8 311//8
f 1//8 311//8 363//8
f 1//8 363//8 337//8
f 1//8 337//8 373//8
f 1//8 373//8 395//8
f 1//8 395//8 392//8
f 1//8 392//8 391//8
f 1//8 391//8 402//8
f 1//8 402//8 404//8
f 1//8 404//8 403//8
f 1//8 403//8 400//8
f 1//8 400//8 399//8
f 1//8 399//8 381//8
f 1//8 381//8 380//8
f 1//8 380//8 365//8
f 1//8 365//8 339//8
f 1//9 339//9 338//9
f 1//7 338//7 312//7
f 1//8 312//8 282//8
f 1//8 282//8 204//8
f 1//5 204//5 203//5
f 1//6 203//6 141//6
f 1//13 141//13 83//13
f 1//6 83//6 40//6
f 1//5 40//5 39//5
f 1//14 39//14 18//14
f 1//8 18//8 2//8
f 2//15 18//15 19//15
f 2//16 19//16 20//16
f 2//17 20//17 21//17
f 2//18 21//18 1//18
f 1//19 21//19 3//19
f 3//20 22//20 23//20
f 3//21 23//21 4//21
f 3//22 21//22 22//22
f 4//23 23//23 5//23
f 5//24 23//24 6//24
f 6//25 23//25 24//25
f 6//26 24//26 7//26
f 7//27 24//27 25//27
f 7//28 25//28 26//28
f 7//29 26//29 8//29
f 8//30 26//30 9//30
f 10//31 9//31 27//31
f 10//32 27//32 28//32
f 10//33 28//33 11//33
f 11//34 28//34 29//34
f 11//35 29//35 30//35
f 11//36 30//36 12//36
f 13//37 12//37 31//37
f 13//38 31//38 14//38
f 14//39 31//39 32//39
f 14//40 32//40 33//40
f 14//41 33//41 34//41
f 14//42 34//42 15//42
f 15//43 34//43 33//43
f 15//44 33//44 16//44
f 16//45 33//45 35//45
f 35//46 36//46 38//46
f 35//11 17//11 36//11
f 35//47 37//47 38//47
f 18//48 39//48 19//48
f 19//49 39//49 40//49
f 19//50 40//50 41//50
f 19//51 41//51 42//51
f 19//52 42//52 43//52
f 19//53 43//53 44//53
f 19//54 44//54 20//54
f 20//55 45//55 46//55
f 20//56 46//56 21//56
f 20//57 44//57 47//57
f 20//58 47//58 45//58
f 21//59 46//59 22//59
f 22//60 48//60 49//60
f 22//61 49//61 50//61
f 22//62 50//62 23//62
f 22//63 46//63 92//63
f 22//63 92//63 48//63
f 23//64 50//64 51//64
f 23//65 51//65 52//65
f 23//66 52//66 24//66
f 24//67 52//67 25//67
f 25//68 53//68 26//68
f 25//69 52//69 54//69
f 25//70 54//70 53//70
f 26//71 27//71 9//71
f 26//72 53//72 55//72
f 26//73 55//73 27//73
f 27//74 56//74 57//74
f 27//75 57//75 29//75
f 27//76 29//76 28//76
f 27//77 55//77 58//77
f 27//78 58//78 59//78
f 27//79 59//79 56//79
f 29//80 57//80 60//80
f 29//81 60//81 30//81
f 30//82 61//82 62//82
f 30//83 62//83 63//83
f 30//84 63//84 31//84
f 30//85 31//85 12//85
f 30//86 60//86 64//86
f 30//87 64//87 61//87
f 31//88 63//88 65//88
f 31//89 65//89 32//89
f 32//90 66//90 67//90
f 32//91 67//91 33//91
f 32//92 65//92 66//92
f 33//93 68//93 35//93
f 33//94 67//94 68//94
f 35//95 68//95 81//95
f 35//95 81//95 37//95
f 38//96 36//96 69//96
f 36//8 69//8 71//8
f 36//8 71//8 72//8
f 36//8 72//8 73//8
f 36//97 127//97 73//97
f 36//98 74//98 127//98
f 36//12 75//12 74//12
f 36//99 132//99 75//99
f 36//100 76//100 132//100
f 36//9 76//9 77//9
f 36//101 77//101 78//101
f 36//102 78//102 79//102
f 36//101 79//101 80//101
f 36//103 80//103 137//103
f 37//104 81//104 38//104
f 38//105 81//105 82//105
f 38//106 82//106 69//106
f 40//107 83//107 41//107
f 41//108 83//108 84//108
f 41//109 84//109 85//109
f 41//110 85//110 42//110
f 42//111 86//111 43//111
f 42//112 85//112 87//112
f 42//113 87//113 86//113
f 43//114 88//114 44//114
f 43//115 86//115 88//115
f 44//116 88//116 89//116
f 44//117 89//117 90//117
f 44//118 90//118 47//118
f 45//119 91//119 92//119
f 45//120 92//120 46//120
f 45//121 47//121 93//121
f 45//122 93//122 91//122
f 47//123 90//123 89//123
f 47//124 89//124 94//124
f 47//125 94//125 95//125
f 47//126 95//126 93//126
f 48//127 96//127 97//127
f 48//128 97//128 49//128
f 48//129 92//129 145//129
f 48//129 145//129 96//129
f 49//130 97//130 98//130
f 49//131 98//131 99//131
f 49//132 99//132 100//132
f 49//133 100//133 50//133
f 50//134 100//134 101//134
f 50//135 101//135 102//135
f 50//136 102//136 55//136
f 50//137 55//137 103//137
f 50//138 103//138 51//138
f 51//139 103//139 104//139
f 51//140 104//140 105//140
f 51//141 105//141 52//141
f 52//142 105//142 55//142
f 52//143 55//143 54//143
f 53//144 54//144 55//144
f 55//145 99//145 58//145
f 55//146 105//146 104//146
f 55//147 104//147 103//147
f 55//148 102//148 99//148
f 56//149 59//149 106//149
f 56//150 106//150 64//150
f 56//151 64//151 57//151
f 57//152 64//152 60//152
f 58//153 99//153 107//153
f 58//154 107//154 59//154
f 59//155 107//155 108//155
f 59//156 108//156 109//156
f 59//157 109//157 110//157
f 59//158 110//158 111//158
f 59//159 111//159 106//159
f 61//160 112//160 113//160
f 61//161 113//161 114//161
f 61//162 114//162 62//162
f 61//163 64//163 106//163
f 61//164 106//164 111//164
f 61//165 111//165 112//165
f 62//166 114//166 115//166
f 62//167 115//167 63//167
f 63//168 115//168 116//168
f 63//169 116//169 117//169
f 63//170 117//170 118//170
f 63//171 118//171 67//171
f 63//172 67//172 66//172
f 63//173 66//173 65//173
f 67//174 119//174 68//174
f 67//175 118//175 117//175
f 67//176 117//176 119//176
f 68//177 119//177 120//177
f 68//178 120//178 121//178
f 68//179 121//179 138//179
f 68//179 138//179 81//179
f 69//180 82//180 71//180
f 71//181 82//181 72//181
f 72//182 82//182 123//182
f 72//183 123//183 124//183
f 72//184 124//184 125//184
f 72//185 125//185 126//185
f 72//186 126//186 73//186
f 73//187 126//187 127//187
f 74//188 127//188 128//188
f 74//189 128//189 129//189
f 74//190 129//190 75//190
f 75//191 129//191 130//191
f 75//192 130//192 131//192
f 75//193 131//193 132//193
f 76//194 133//194 77//194
f 76//195 132//195 133//195
f 77//196 133//196 134//196
f 77//197 134//197 78//197
f 78//198 134//198 135//198
f 78//199 135//199 136//199
f 78//200 136//200 79//200
f 79//201 136//201 137//201
f 79//202 137//202 80//202
f 81//203 138//203 139//203
f 81//204 139//204 140//204
f 81//205 140//205 123//205
f 81//206 123//206 82//206
f 84//207 83//207 141//207
f 84//208 141//208 203//208
f 84//209 203//209 142//209
f 84//210 142//210 87//210
f 84//211 87//211 85//211
f 86//212 87//212 88//212
f 87//213 94//213 89//213
f 87//214 89//214 88//214
f 87//215 142//215 143//215
f 87//216 143//216 94//216
f 91//217 144//217 156//217
f 91//218 156//218 145//218
f 91//219 145//219 92//219
f 91//220 93//220 146//220
f 91//221 146//221 147//221
f 91//222 147//222 144//222
f 93//223 95//223 148//223
f 93//224 148//224 149//224
f 93//225 149//225 150//225
f 93//226 150//226 151//226
f 93//227 151//227 146//227
f 94//228 143//228 148//228
f 94//229 148//229 95//229
f 96//230 152//230 153//230
f 96//231 153//231 111//231
f 96//232 111//232 110//232
f 96//233 110//233 154//233
f 96//234 154//234 155//234
f 96//235 155//235 97//235
f 96//236 145//236 156//236
f 96//237 156//237 152//237
f 97//238 155//238 157//238
f 97//239 157//239 158//239
f 97//240 158//240 107//240
f 97//241 107//241 98//241
f 98//242 107//242 99//242
f 99//243 102//243 101//243
f 99//244 101//244 100//244
f 107//245 158//245 108//245
f 108//246 158//246 157//246
f 108//247 157//247 155//247
f 108//248 155//248 154//248
f 108//249 154//249 110//249
f 108//250 110//250 109//250
f 111//251 153//251 159//251
f 111//251 159//251 160//251
f 111//252 160//252 112//252
f 112//253 161//253 163//253
f 112//253 163//253 113//253
f 112//254 160//254 162//254
f 112//254 162//254 224//254
f 112//254 224//254 161//254
f 113//255 163//255 231//255
f 113//255 231//255 164//255
f 113//256 164//256 165//256
f 113//257 165//257 166//257
f 113//258 166//258 167//258
f 113//259 167//259 168//259
f 113//260 168//260 114//260
f 114//261 168//261 120//261
f 114//262 120//262 169//262
f 114//263 169//263 115//263
f 115//264 169//264 170//264
f 115//265 170//265 119//265
f 115//266 119//266 116//266
f 116//267 119//267 117//267
f 119//268 170//268 120//268
f 120//269 170//269 169//269
f 120//270 168//270 171//270
f 120//271 171//271 172//271
f 120//272 172//272 173//272
f 120//273 173//273 121//273
f 121//274 173//274 197//274
f 121//274 197//274 138//274
f 70//275 174//275 175//275
f 70//276 175//276 122//276
f 70//277 36//277 174//277
f 122//278 175//278 176//278
f 36//279 177//279 174//279
f 36//280 137//280 177//280
f 123//281 178//281 124//281
f 123//282 140//282 179//282
f 123//283 179//283 125//283
f 123//284 125//284 178//284
f 124//285 178//285 125//285
f 125//286 180//286 181//286
f 125//287 181//287 128//287
f 125//288 128//288 126//288
f 125//289 179//289 182//289
f 125//290 182//290 180//290
f 126//291 128//291 127//291
f 128//292 181//292 183//292
f 128//293 183//293 184//293
f 128//294 184//294 185//294
f 128//295 185//295 129//295
f 129//296 185//296 131//296
f 129//297 131//297 130//297
f 131//298 186//298 187//298
f 131//299 187//299 188//299
f 131//300 188//300 189//300
f 131//301 189//301 133//301
f 131//302 133//302 132//302
f 131//303 185//303 186//303
f 133//304 189//304 190//304
f 133//305 190//305 134//305
f 134//306 190//306 135//306
f 135//307 191//307 192//307
f 135//308 192//308 193//308
f 135//309 193//309 136//309
f 135//310 190//310 194//310
f 135//311 194//311 189//311
f 135//312 189//312 191//312
f 136//313 193//313 195//313
f 136//314 195//314 196//314
f 136//315 196//315 137//315
f 137//316 196//316 177//316
f 138//317 197//317 139//317
f 139//318 197//318 198//318
f 139//319 198//319 199//319
f 139//320 199//320 200//320
f 139//321 200//321 201//321
f 139//322 201//322 202//322
f 139//323 202//323 140//323
f 140//324 202//324 201//324
f 140//325 201//325 180//325
f 140//326 180//326 182//326
f 140//327 182//327 179//327
f 203//328 204//328 142//328
f 142//329 205//329 206//329
f 142//330 206//330 143//330
f 142//331 204//331 207//331
f 142//332 207//332 208//332
f 142//333 208//333 209//333
f 142//334 209//334 205//334
f 143//335 206//335 148//335
f 144//336 210//336 211//336
f 144//337 211//337 212//337
f 144//337 212//337 213//337
f 144//337 213//337 156//337
f 144//222 147//222 214//222
f 144//338 214//338 210//338
f 146//339 151//339 215//339
f 146//340 215//340 147//340
f 147//341 216//341 217//341
f 147//342 217//342 214//342
f 147//343 215//343 218//343
f 147//344 218//344 206//344
f 147//345 206//345 219//345
f 147//341 219//341 216//341
f 148//346 215//346 149//346
f 148//347 206//347 215//347
f 149//348 215//348 150//348
f 150//349 215//349 151//349
f 152//231 220//231 153//231
f 152//337 156//337 213//337
f 152//337 213//337 212//337
f 152//337 212//337 220//337
f 153//231 220//231 211//231
f 153//231 211//231 159//231
f 159//350 211//350 160//350
f 160//351 211//351 221//351
f 160//254 221//254 162//254
f 161//352 222//352 223//352
f 161//353 223//353 183//353
f 161//354 183//354 163//354
f 161//254 224//254 261//254
f 161//254 261//254 222//254
f 162//355 221//355 211//355
f 162//254 211//254 225//254
f 162//254 225//254 224//254
f 163//356 183//356 200//356
f 163//357 200//357 226//357
f 163//358 226//358 227//358
f 163//359 227//359 228//359
f 163//360 228//360 229//360
f 163//361 229//361 230//361
f 163//362 230//362 231//362
f 164//363 172//363 165//363
f 164//364 231//364 197//364
f 164//364 197//364 173//364
f 164//365 173//365 172//365
f 165//366 172//366 166//366
f 166//367 172//367 167//367
f 167//368 172//368 168//368
f 168//369 172//369 171//369
f 174//370 232//370 233//370
f 174//371 233//371 234//371
f 174//372 234//372 175//372
f 174//373 177//373 232//373
f 175//374 234//374 235//374
f 175//375 235//375 236//375
f 175//376 236//376 237//376
f 175//377 237//377 238//377
f 175//378 238//378 176//378
f 177//379 196//379 248//379
f 177//379 248//379 232//379
f 180//380 200//380 181//380
f 180//381 201//381 200//381
f 181//382 200//382 183//382
f 183//383 223//383 239//383
f 183//384 239//384 187//384
f 183//385 187//385 186//385
f 183//386 186//386 184//386
f 184//387 186//387 185//387
f 187//388 240//388 241//388
f 187//389 241//389 242//389
f 187//390 242//390 188//390
f 187//391 239//391 243//391
f 187//392 243//392 223//392
f 187//393 223//393 244//393
f 187//394 244//394 240//394
f 188//395 242//395 245//395
f 188//396 245//396 189//396
f 189//397 245//397 246//397
f 189//398 246//398 195//398
f 189//399 195//399 192//399
f 189//400 192//400 191//400
f 189//401 194//401 190//401
f 192//402 195//402 193//402
f 195//403 247//403 196//403
f 195//404 246//404 247//404
f 196//405 247//405 248//405
f 197//406 231//406 230//406
f 197//407 230//407 198//407
f 198//408 230//408 229//408
f 198//409 229//409 228//409
f 198//410 228//410 227//410
f 198//411 227//411 226//411
f 198//412 226//412 199//412
f 199//413 226//413 200//413
f 204//414 282//414 208//414
f 204//415 208//415 207//415
f 205//416 209//416 249//416
f 205//417 249//417 216//417
f 205//418 216//418 219//418
f 205//419 219//419 206//419
f 206//420 218//420 215//420
f 208//421 282//421 250//421
f 208//422 250//422 209//422
f 209//423 250//423 251//423
f 209//424 251//424 252//424
f 209//425 252//425 249//425
f 210//338 214//338 253//338
f 210//336 253//336 211//336
f 211//254 254//254 225//254
f 211//337 220//337 212//337
f 211//426 253//426 287//426
f 211//426 287//426 254//426
f 214//427 255//427 253//427
f 214//428 217//428 256//428
f 214//429 256//429 255//429
f 216//430 252//430 257//430
f 216//431 257//431 217//431
f 216//432 249//432 252//432
f 217//433 257//433 258//433
f 217//434 258//434 256//434
f 222//435 259//435 260//435
f 222//435 260//435 223//435
f 222//436 261//436 259//436
f 223//437 260//437 262//437
f 223//438 262//438 263//438
f 223//439 263//439 244//439
f 223//440 243//440 239//440
f 224//254 225//254 254//254
f 224//441 254//441 261//441
f 232//442 264//442 265//442
f 232//443 265//443 233//443
f 232//444 248//444 266//444
f 232//445 266//445 264//445
f 233//446 265//446 267//446
f 233//447 267//447 268//447
f 233//448 268//448 234//448
f 234//449 268//449 269//449
f 234//450 269//450 270//450
f 234//451 270//451 235//451
f 235//452 270//452 236//452
f 236//453 271//453 272//453
f 236//454 272//454 273//454
f 236//455 273//455 274//455
f 236//456 274//456 237//456
f 236//457 270//457 271//457
f 237//458 274//458 238//458
f 238//459 274//459 275//459
f 240//460 244//460 241//460
f 241//460 244//460 276//460
f 241//461 276//461 277//461
f 241//462 277//462 278//462
f 241//463 278//463 279//463
f 241//464 279//464 242//464
f 242//465 279//465 280//465
f 242//466 280//466 281//466
f 242//467 281//467 245//467
f 244//468 263//468 276//468
f 245//469 281//469 247//469
f 245//470 247//470 246//470
f 247//471 281//471 280//471
f 247//472 280//472 248//472
f 248//473 280//473 263//473
f 248//474 263//474 266//474
f 282//475 283//475 250//475
f 250//476 283//476 284//476
f 250//477 284//477 251//477
f 251//478 284//478 252//478
f 252//479 283//479 257//479
f 252//480 284//480 283//480
f 253//481 255//481 285//481
f 253//482 285//482 286//482
f 253//483 286//483 315//483
f 253//483 315//483 287//483
f 254//484 288//484 289//484
f 254//438 289//438 262//438
f 254//485 262//485 259//485
f 254//436 259//436 261//436
f 254//486 287//486 290//486
f 254//486 290//486 291//486
f 254//487 291//487 288//487
f 255//488 256//488 286//488
f 255//489 286//489 285//489
f 256//483 292//483 315//483
f 256//483 315//483 286//483
f 256//490 258//490 293//490
f 256//490 293//490 292//490
f 257//491 283//491 294//491
f 257//492 294//492 295//492
f 257//493 295//493 296//493
f 257//494 296//494 258//494
f 258//495 296//495 293//495
f 259//437 262//437 260//437
f 262//438 289//438 297//438
f 262//496 297//496 263//496
f 263//497 297//497 298//497
f 263//498 298//498 299//498
f 263//499 299//499 266//499
f 263//500 280//500 277//500
f 263//501 277//501 276//501
f 264//502 291//502 300//502
f 264//503 300//503 301//503
f 264//504 301//504 265//504
f 264//505 266//505 299//505
f 264//506 299//506 298//506
f 264//502 298//502 291//502
f 265//507 301//507 302//507
f 265//508 302//508 303//508
f 265//509 303//509 304//509
f 265//510 304//510 267//510
f 267//511 304//511 305//511
f 267//512 305//512 306//512
f 267//513 306//513 268//513
f 268//514 306//514 269//514
f 269//515 306//515 272//515
f 269//516 272//516 271//516
f 269//517 271//517 270//517
f 272//518 307//518 308//518
f 272//519 308//519 273//519
f 272//520 306//520 309//520
f 272//521 309//521 310//521
f 272//522 310//522 307//522
f 273//523 308//523 274//523
f 274//524 308//524 307//524
f 274//525 307//525 275//525
f 275//526 307//526 311//526
f 277//527 280//527 278//527
f 278//528 280//528 279//528
f 282//529 312//529 283//529
f 283//530 312//530 313//530
f 283//531 313//531 314//531
f 283//532 314//532 294//532
f 287//533 315//533 316//533
f 287//534 316//534 317//534
f 287//535 317//535 318//535
f 287//535 318//535 290//535
f 288//487 298//487 297//487
f 288//487 297//487 289//487
f 288//487 291//487 298//487
f 290//535 318//535 291//535
f 291//502 318//502 300//502
f 292//536 293//536 319//536
f 292//537 319//537 318//537
f 292//538 318//538 317//538
f 292//533 317//533 315//533
f 293//539 320//539 319//539
f 293//495 296//495 321//495
f 293//540 321//540 320//540
f 294//541 314//541 322//541
f 294//542 322//542 295//542
f 295//543 322//543 323//543
f 295//544 323//544 324//544
f 295//545 324//545 325//545
f 295//546 325//546 296//546
f 296//547 325//547 326//547
f 296//548 326//548 327//548
f 296//549 327//549 328//549
f 296//549 328//549 321//549
f 300//537 318//537 319//537
f 300//550 319//550 329//550
f 300//551 329//551 330//551
f 300//552 330//552 331//552
f 300//553 331//553 301//553
f 301//554 331//554 302//554
f 302//555 331//555 303//555
f 303//556 331//556 304//556
f 304//557 331//557 305//557
f 305//558 331//558 329//558
f 305//559 329//559 309//559
f 305//560 309//560 306//560
f 307//561 310//561 363//561
f 307//562 363//562 311//562
f 309//563 329//563 310//563
f 310//564 329//564 332//564
f 310//565 332//565 333//565
f 310//566 333//566 334//566
f 310//567 334//567 335//567
f 310//568 335//568 336//568
f 310//568 336//568 337//568
f 310//569 337//569 363//569
f 312//570 338//570 313//570
f 313//571 338//571 339//571
f 313//572 339//572 340//572
f 313//573 340//573 341//573
f 313//574 341//574 314//574
f 314//575 342//575 322//575
f 314//576 341//576 343//576
f 314//577 343//577 344//577
f 314//578 344//578 345//578
f 314//579 345//579 342//579
f 315//489 317//489 316//489
f 319//580 346//580 329//580
f 319//581 320//581 346//581
f 320//582 321//582 347//582
f 320//583 347//583 348//583
f 320//584 348//584 349//584
f 320//585 349//585 350//585
f 320//586 350//586 332//586
f 320//587 332//587 329//587
f 320//588 329//588 346//588
f 321//589 328//589 351//589
f 321//590 351//590 352//590
f 321//591 352//591 347//591
f 322//592 342//592 353//592
f 322//593 353//593 354//593
f 322//594 354//594 324//594
f 322//595 324//595 323//595
f 324//596 353//596 355//596
f 324//597 355//597 356//597
f 324//598 356//598 357//598
f 324//599 357//599 358//599
f 324//600 358//600 359//600
f 324//601 359//601 325//601
f 324//602 354//602 353//602
f 325//603 359//603 358//603
f 325//604 358//604 326//604
f 326//605 358//605 327//605
f 327//606 358//606 360//606
f 327//607 360//607 328//607
f 328//607 360//607 361//607
f 328//608 361//608 362//608
f 328//609 362//609 351//609
f 329//610 331//610 330//610
f 332//611 350//611 333//611
f 333//612 350//612 364//612
f 333//613 364//613 334//613
f 334//614 373//614 335//614
f 334//615 364//615 349//615
f 334//616 349//616 373//616
f 335//617 373//617 337//617
f 335//618 337//618 336//618
f 339//619 365//619 366//619
f 339//620 366//620 343//620
f 339//621 343//621 340//621
f 340//622 343//622 367//622
f 340//623 367//623 341//623
f 341//624 367//624 343//624
f 342//625 345//625 353//625
f 343//626 366//626 355//626
f 343//627 355//627 353//627
f 343//628 353//628 345//628
f 343//629 345//629 344//629
f 347//630 352//630 368//630
f 347//631 368//631 369//631
f 347//632 369//632 370//632
f 347//633 370//633 348//633
f 348//634 370//634 371//634
f 348//635 371//635 349//635
f 349//636 364//636 350//636
f 349//637 371//637 372//637
f 349//638 372//638 395//638
f 349//639 395//639 373//639
f 351//640 362//640 352//640
f 352//641 362//641 374//641
f 352//642 374//642 368//642
f 355//643 375//643 376//643
f 355//644 376//644 382//644
f 355//645 382//645 377//645
f 355//646 377//646 356//646
f 355//647 366//647 399//647
f 355//648 399//648 375//648
f 356//649 377//649 378//649
f 356//650 378//650 357//650
f 357//651 378//651 360//651
f 357//652 360//652 358//652
f 360//653 378//653 379//653
f 360//653 379//653 361//653
f 361//654 379//654 362//654
f 362//655 379//655 368//655
f 362//656 368//656 374//656
f 365//657 380//657 366//657
f 366//658 380//658 381//658
f 366//659 381//659 399//659
f 368//660 379//660 382//660
f 368//661 382//661 376//661
f 368//662 376//662 383//662
f 368//663 383//663 384//663
f 368//664 384//664 369//664
f 369//665 384//665 370//665
f 370//666 385//666 371//666
f 370//667 384//667 383//667
f 370//668 383//668 385//668
f 371//669 385//669 386//669
f 371//670 386//670 387//670
f 371//671 387//671 388//671
f 371//672 388//672 389//672
f 371//673 389//673 390//673
f 371//674 390//674 372//674
f 372//675 391//675 392//675
f 372//676 392//676 395//676
f 372//677 390//677 389//677
f 372//678 389//678 393//678
f 372//679 393//679 394//679
f 372//680 394//680 391//680
f 375//681 399//681 396//681
f 375//682 396//682 400//682
f 375//683 400//683 376//683
f 376//684 397//684 398//684
f 376//685 398//685 383//685
f 376//686 400//686 397//686
f 377//687 382//687 378//687
f 399//688 400//688 396//688
f 378//689 382//689 379//689
f 383//690 398//690 401//690
f 383//691 401//691 386//691
f 383//692 386//692 385//692
f 386//693 401//693 398//693
f 386//694 398//694 387//694
f 387//695 398//695 388//695
f 388//696 398//696 389//696
f 389//697 398//697 393//697
f 391//698 394//698 393//698
f 391//699 393//699 402//699
f 393//700 398//700 402//700
f 400//701 403//701 404//701
f 400//702 404//702 397//702
f 397//703 404//703 398//703
f 398//704 404//704 402//704
f 82//705 71//705 38//705
f 71//706 69//706 38//706
f 69//707 38//707 16//707
f 16//708 38//708 35//708
f 37//709 35//709 68//709
f 37//95 68//95 81//95
f 36//12 16//12 17//12
f 36//12 69//12 16//12
f 15//710 35//710 16//710
f 17//12 16//12 1//12
f 15//711 33//711 35//711
f 78//712 80//712 36//712
f 137//713 70//713 36//713
f 70//8 122//8 176//8
f 70//8 176//8 238//8
f 70//714 238//714 275//714
f 70//715 275//715 311//715
f 70//9 311//9 363//9
f 70//7 363//7 337//7
f 70//8 337//8 373//8
f 70//8 373//8 395//8
f 70//8 395//8 392//8
f 70//9 392//9 391//9
f 70//8 391//8 402//8
f 70//8 402//8 404//8
f 70//9 404//9 403//9
f 70//7 403//7 400//7
f 70//8 400//8 399//8
f 70//8 399//8 381//8
f 70//7 381//7 380//7
f 70//8 380//8 365//8
f 70//8 365//8 339//8
f 70//8 339//8 338//8
f 70//8 338//8 312//8
f 70//8 312//8 282//8
f 70//8 282//8 204//8
f 70//8 204//8 203//8
f 70//8 203//8 141//8
f 70//8 141//8 83//8
f 70//8 83//8 40//8
f 70//8 40//8 18//8
f 70//8 18//8 2//8
f 70//8 2//8 1//8
f 70//12 17//12 1//12
f 70//12 36//12 17//12
f 73//8 74//8 36//8
f 75//8 76//8 36//8
f 2//716 3//716 1//716
f 4//717 6//717 1//717
f 34//41 32//41 33//41
f 173//364 164//364 231//364
f 173//364 231//364 197//364
f 127//718 74//718 73//718
f 136//719 137//719 78//719
f 137//720 80//720 78//720
f 136//721 195//721 137//721
f 195//722 196//722 137//722
f 177//723 174//723 137//723
f 174//724 70//724 137//724
f 174//725 122//725 70//725
f 129//726 130//726 74//726
f 130//727 75//727 74//727
f 132//728 76//728 75//728
f 18//729 20//729 2//729
f 21//730 3//730 2//730
f 22//731 4//731 3//731
f 22//732 23//732 4//732
f 23//733 24//733 4//733
f 24//734 6//734 4//734
f 26//735 27//735 8//735
f 27//736 9//736 8//736
f 30//737 13//737 12//737
f 30//738 31//738 13//738
f 32//40 34//40 14//40
f 164//255 113//255 163//255
f 164//255 163//255 231//255
f 113//253 112//253 161//253
f 113//253 161//253 163//253
f 175//739 122//739 174//739
f 185//740 130//740 129//740
f 185//741 131//741 130//741
f 40//742 19//742 18//742
f 19//743 20//743 18//743
f 46//63 92//63 48//63
f 46//63 48//63 22//63
f 57//744 28//744 27//744
f 57//744 29//744 28//744
f 259//254 222//254 161//254
f 112//254 159//254 259//254
f 112//254 259//254 161//254
f 187//440 239//440 223//440
f 222//437 259//437 223//437
f 259//435 262//435 223//435
f 92//129 145//129 96//129
f 92//129 96//129 48//129
f 160//254 159//254 112//254
f 254//438 297//438 259//438
f 297//438 262//438 259//438
f 159//254 225//254 259//254
f 225//254 254//254 259//254
f 279//745 281//745 242//745
f 281//745 279//745 280//745
f 298//535 300//535 264//535
f 95//223 149//223 93//223
f 148//746 149//746 95//746
f 147//338 156//338 91//338
f 153//231 152//231 159//231
f 152//231 211//231 159//231
f 211//254 225//254 159//254
f 287//486 298//486 254//486
f 298//484 297//484 254//484
f 291//537 318//537 298//537
f 318//502 300//502 298//502
f 287//487 291//487 298//487
f 203//747 142//747 141//747
f 142//748 84//748 141//748
f 147//222 214//222 156//222
f 214//428 144//428 156//428
f 144//337 253//337 156//337
f 253//336 211//336 156//336
f 211//337 152//337 156//337
f 206//341 216//341 147//341
f 315//533 317//533 287//533
f 317//535 291//535 287//535
f 317//535 318//535 291//535
f 310//749 311//749 307//749
f 333//750 335//750 310//750
f 363//751 311//751 310//751
f 207//752 209//752 142//752
f 219//753 216//753 206//753
f 255//338 144//338 214//338
f 255//338 253//338 144//338
f 255//482 286//482 253//482
f 286//483 255//483 317//483
f 286//483 317//483 315//483
f 255//483 256//483 292//483
f 255//483 292//483 317//483
f 334//754 335//754 333//754
f 334//755 337//755 335//755
f 334//756 373//756 337//756
f 207//757 208//757 209//757
f 392//758 395//758 349//758
f 372//759 392//759 349//759
f 312//760 338//760 283//760
f 338//761 313//761 283//761
f 377//645 355//645 376//645
f 377//644 376//644 382//644
f 375//762 396//762 376//762
f 396//763 400//763 376//763
f 400//764 403//764 376//764
f 403//765 397//765 376//765
f 366//766 381//766 355//766
f 381//767 399//767 355//767
f 399//768 396//768 355//768
f 396//769 375//769 355//769
f 377//650 378//650 357//650
f 377//649 357//649 356//649
f 404//770 397//770 403//770
