# Blender 4.0.0
# www.blender.org
o decimated_mesh
v 0.019350 0.008846 -0.025871
v 0.009642 0.008846 -0.030097
v 0.019350 0.008846 -0.033001
v 0.019348 0.170557 -0.045827
v 0.009631 0.169955 -0.045504
v 0.009642 0.008846 -0.035618
v 0.014993 0.008860 -0.035397
v 0.019340 0.095373 -0.044232
v 0.019350 0.171667 -0.048360
v 0.009642 0.171637 -0.047647
v 0.009643 0.170750 -0.050944
v 0.019350 0.168203 -0.051553
v 0.009642 0.168203 -0.051556
v 0.019348 0.170667 -0.050947
vn 1.0000 0.0007 -0.0008
vn 0.0254 0.1224 0.9922
vn 0.0079 0.9328 -0.3604
vn -0.0008 1.0000 0.0019
vn 0.4786 -0.1130 -0.8708
vn 0.0003 -0.1000 -0.9950
vn -0.3976 0.0873 0.9134
vn -1.0000 -0.0001 -0.0000
vn 0.0003 0.2336 -0.9723
vn 1.0000 0.0001 -0.0000
vn 1.0000 -0.0001 0.0003
vn 1.0000 -0.0003 0.0004
vn 1.0000 -0.0001 -0.0012
vn -0.0220 0.9654 -0.2598
vn -0.0027 1.0000 -0.0000
vn 0.0033 1.0000 -0.0000
vn 0.0414 -0.1036 -0.9938
vn 0.0040 -0.0995 -0.9950
vn -1.0000 0.0009 -0.0021
vn -1.0000 0.0046 -0.0016
vn -1.0000 -0.0002 -0.0018
vn -0.0282 0.7865 0.6169
vn 0.0017 0.2388 -0.9711
vn 0.0266 0.9157 0.4010
vn -0.0000 1.0000 -0.0000
vn 1.0000 -0.0000 -0.0000
vn 1.0000 0.0001 0.0005
vn -0.0032 0.9999 0.0117
vn 1.0000 -0.0010 -0.0086
vn 0.0086 -0.1000 -0.9949
vn 0.0003 -0.0995 -0.9950
s 0
f 14//1 9//1 12//1
f 1//2 4//2 5//2
f 11//3 9//3 14//3
f 1//4 7//4 2//4
f 3//5 7//5 8//5
f 13//6 12//6 8//6
f 2//7 1//7 5//7
f 6//8 2//8 5//8
f 11//9 12//9 13//9
f 1//10 3//10 8//10
f 8//11 12//11 4//11
f 9//12 4//12 12//12
f 4//13 1//13 8//13
f 11//14 10//14 9//14
f 6//15 2//15 7//15
f 7//16 1//16 3//16
f 8//17 7//17 6//17
f 6//18 13//18 8//18
f 13//19 5//19 11//19
f 11//20 5//20 10//20
f 13//21 6//21 5//21
f 10//22 5//22 4//22
f 11//23 14//23 12//23
f 10//24 4//24 9//24
f 2//25 3//25 6//25
f 2//25 1//25 3//25
f 3//26 12//26 1//26
f 12//26 9//26 1//26
f 9//27 4//27 1//27
f 6//28 3//28 7//28
f 8//29 12//29 3//29
f 8//30 6//30 12//30
f 6//31 13//31 12//31
