# Blender 4.0.0
# www.blender.org
o decimated_mesh
v -0.025805 0.005751 0.025907
v -0.025805 0.005380 0.000008
v -0.025805 0.003755 0.000008
v -0.035984 0.000701 0.006817
v -0.037925 0.005751 0.000008
v -0.035878 0.000853 0.000007
v -0.025815 0.000682 0.024607
v -0.037759 0.005749 0.005108
v -0.037297 0.001145 0.004774
v -0.037360 0.000982 0.000008
vn 0.2749 -0.9541 -0.1191
vn -0.8348 -0.2750 0.4769
vn -0.0866 -0.9960 -0.0236
vn -0.3706 -0.9281 0.0366
vn -0.0005 -0.0001 -1.0000
vn -0.0000 0.0002 -1.0000
vn 0.0001 -0.0000 -1.0000
vn -1.0000 -0.0000 -0.0004
vn -1.0000 0.0020 -0.0000
vn 0.0361 -0.9991 -0.0217
vn -0.9942 -0.1022 0.0322
vn -0.9929 -0.1176 0.0172
vn 0.0247 0.9996 -0.0143
vn 0.0305 0.9995 -0.0007
vn -0.8602 -0.1251 0.4944
vn -0.8602 -0.1224 0.4951
vn -0.8605 -0.1224 0.4946
vn -0.8599 -0.1253 0.4949
vn -1.0000 0.0020 -0.0002
vn -1.0000 -0.0000 -0.0000
vn 0.0305 0.9994 -0.0143
vn -0.0007 1.0000 0.0003
s 0
f 3//1 7//1 6//1
f 4//2 7//2 9//2
f 6//3 4//3 10//3
f 9//4 10//4 4//4
f 10//5 5//5 6//5
f 5//6 2//6 6//6
f 2//7 3//7 6//7
f 7//8 2//8 3//8
f 2//9 7//9 1//9
f 6//10 7//10 4//10
f 8//11 5//11 9//11
f 5//12 10//12 9//12
f 1//13 2//13 8//13
f 2//14 5//14 8//14
f 1//15 8//15 7//15
f 8//16 9//16 7//16
f 8//17 9//17 1//17
f 9//18 7//18 1//18
f 7//19 1//19 3//19
f 3//20 1//20 2//20
f 2//21 5//21 1//21
f 5//22 8//22 1//22
