# Blender 4.0.0
# www.blender.org
o decimated_mesh
v -0.018620 0.168204 0.051554
v -0.018620 0.170419 0.051087
v -0.024268 0.169256 0.051353
v -0.023081 0.170889 0.050656
v -0.025800 0.169266 0.050483
v -0.025806 0.171045 0.049383
v -0.018636 0.069322 0.041486
v -0.018618 0.171687 0.048854
v -0.025777 0.171700 0.047375
v -0.025805 0.171123 0.044053
v -0.018620 0.008846 0.033421
v -0.018621 0.170902 0.046242
v -0.018620 0.008846 0.026416
v -0.025804 0.169573 0.042804
v -0.025805 0.061011 0.036230
v -0.025807 0.008846 0.015580
v -0.018614 0.169270 0.045349
v -0.023379 0.008846 0.030562
v -0.025805 0.008846 0.026535
vn -0.3239 0.5609 0.7619
vn -0.0541 -0.1011 0.9934
vn -0.4330 0.4730 0.7673
vn -1.0000 -0.0000 0.0001
vn -0.0433 0.4188 0.9071
vn 0.8316 0.0651 -0.5515
vn 0.8527 0.0955 -0.5136
vn -0.0000 -1.0000 -0.0000
vn 0.2484 0.6080 -0.7541
vn 1.0000 -0.0001 0.0009
vn 0.3139 0.4566 -0.8324
vn 0.0373 0.9845 -0.1716
vn 0.1164 0.9511 -0.2860
vn 0.3354 0.1573 -0.9289
vn -1.0000 -0.0000 0.0002
vn -1.0000 -0.0000 0.0006
vn -0.9999 0.0109 0.0010
vn -0.9997 -0.0154 -0.0196
vn -0.9999 -0.0083 0.0099
vn -0.4915 -0.1137 0.8635
vn -0.4958 -0.1166 0.8606
vn -0.4990 -0.1130 0.8592
vn -0.5116 -0.1137 0.8517
vn -0.0898 0.9472 0.3079
vn -0.0000 1.0000 -0.0000
vn 0.0440 0.8686 0.4936
vn 1.0000 0.0003 0.0014
vn -1.0000 0.0002 -0.0009
vn -1.0000 -0.0003 -0.0000
vn -1.0000 0.0003 -0.0022
vn 1.0000 0.0054 -0.0028
vn 0.0037 0.2063 0.9785
vn -0.0568 0.9573 0.2834
vn -0.9999 0.0015 -0.0128
vn -1.0000 0.0001 -0.0009
vn -0.4915 -0.1130 0.8635
vn -0.4988 -0.1131 0.8593
vn -0.4973 -0.1148 0.8599
vn -1.0000 -0.0000 -0.0000
vn -0.5115 -0.1163 0.8514
vn -1.0000 -0.0005 0.0045
vn -1.0000 -0.0000 -0.0002
vn -1.0000 0.0001 -0.0005
vn -0.9989 0.0459 0.0005
s 0
f 3//1 4//1 6//1
f 1//2 3//2 7//2
f 3//3 6//3 5//3
f 14//4 16//4 15//4
f 3//5 2//5 4//5
f 16//6 17//6 13//6
f 15//7 18//7 19//7
f 19//8 16//8 13//8
f 10//9 12//9 14//9
f 17//10 8//10 1//10
f 12//11 17//11 14//11
f 8//12 10//12 9//12
f 8//13 12//13 10//13
f 16//14 14//14 17//14
f 19//15 15//15 16//15
f 15//16 5//16 14//16
f 14//17 5//17 9//17
f 6//18 9//18 5//18
f 9//19 10//19 14//19
f 5//20 15//20 3//20
f 15//21 18//21 7//21
f 3//22 15//22 7//22
f 18//23 11//23 7//23
f 6//24 4//24 9//24
f 13//25 18//25 11//25
f 18//25 13//25 19//25
f 4//26 2//26 8//26
f 2//27 1//27 8//27
f 1//28 17//28 7//28
f 7//29 13//29 11//29
f 13//30 7//30 17//30
f 8//31 17//31 12//31
f 3//32 1//32 2//32
f 4//33 8//33 9//33
f 7//34 1//34 11//34
f 11//35 1//35 17//35
f 3//36 5//36 7//36
f 5//37 15//37 7//37
f 15//38 11//38 7//38
f 19//25 11//25 13//25
f 13//39 11//39 17//39
f 15//40 18//40 11//40
f 18//25 11//25 19//25
f 6//41 15//41 5//41
f 6//39 19//39 15//39
f 6//15 16//15 19//15
f 6//42 10//42 16//42
f 10//43 14//43 16//43
f 6//44 9//44 10//44
