# Blender 4.0.0
# www.blender.org
o Television_2_1_television_2_3_collision_2
v 0.537108 -0.292497 0.069734
v 0.561554 -0.292497 0.069734
v 0.537108 -0.290971 0.079969
v 0.537108 -0.288936 0.062779
v 0.573637 -0.291543 0.069734
v 0.573637 -0.290271 0.079064
v 0.561554 -0.290971 0.079969
v 0.561554 -0.288936 0.062779
v 0.573637 -0.288681 0.062945
v 0.561554 -0.281368 0.084692
v 0.537108 -0.281368 0.084412
v 0.537108 0.351185 0.062742
v 0.561554 0.350868 0.062742
v 0.580121 -0.288045 0.063305
v 0.580779 -0.288999 0.069734
v 0.580709 -0.288872 0.077362
v 0.573637 -0.281368 0.082767
v 0.574281 -0.281813 0.062861
v 0.580336 -0.281368 0.063108
v 0.561554 -0.269286 0.085444
v 0.537108 -0.269604 0.085229
v 0.537108 0.353984 0.062742
v 0.561554 0.353984 0.062742
v 0.574281 0.346925 0.062845
v 0.581897 -0.281368 0.069734
v 0.581226 -0.281368 0.078165
v 0.573637 -0.269286 0.083176
v 0.580336 0.346543 0.063108
v 0.537108 -0.269286 0.085248
v 0.561554 -0.245184 0.086177
v 0.537108 0.357163 0.069734
v 0.573637 0.353729 0.062926
v 0.561554 0.357163 0.069734
v 0.581897 0.334397 0.069734
v 0.581621 -0.201814 0.073217
v 0.581226 -0.269286 0.078174
v 0.573637 -0.233102 0.083549
v 0.561554 -0.233102 0.086521
v 0.580121 0.353157 0.063303
v 0.581888 0.346543 0.069734
v 0.561554 -0.201814 0.086521
v 0.561554 0.286130 0.086519
v 0.537108 0.322315 0.084959
v 0.537108 0.355637 0.079652
v 0.573637 0.356336 0.069734
v 0.561554 0.355637 0.079652
v 0.573637 0.355128 0.078889
v 0.581226 0.346543 0.078151
v 0.581226 0.334397 0.078174
v 0.578096 -0.201814 0.080395
v 0.573637 -0.201814 0.083551
v 0.580779 0.353984 0.069734
v 0.580709 0.353920 0.077339
v 0.573637 0.286130 0.083551
v 0.573637 0.334397 0.083176
v 0.561554 0.298213 0.086177
v 0.537108 0.346543 0.084208
v 0.537108 0.355446 0.079766
v 0.561554 0.346543 0.084429
v 0.573637 0.346543 0.082592
v 0.561554 0.334397 0.085029
vn -0.0000 -0.9891 0.1475
vn -1.0000 -0.0000 -0.0000
vn -1.0000 0.0001 -0.0000
vn -0.0000 -0.8901 -0.4558
vn 0.0780 -0.9878 0.1347
vn 0.0682 -0.9868 0.1471
vn 0.0250 -0.8898 -0.4556
vn 0.0726 -0.9191 -0.3874
vn -0.0000 -0.4413 0.8973
vn -0.0104 -0.4199 0.9075
vn -0.0000 -0.0001 -1.0000
vn 0.1113 -0.9158 -0.3860
vn 0.3305 -0.9281 -0.1715
vn 0.3355 -0.9419 0.0188
vn 0.2228 -0.9659 0.1317
vn 0.2857 -0.3681 0.8848
vn 0.1455 -0.3800 0.9135
vn 0.0924 -0.4395 0.8935
vn 0.0140 -0.0135 -0.9998
vn 0.0064 -0.0001 -1.0000
vn 0.0419 -0.0161 -0.9990
vn 0.0586 -0.0315 -0.9978
vn 0.1570 -0.0613 0.9857
vn -0.0079 -0.0621 0.9980
vn -0.0114 -0.0693 0.9975
vn -0.0000 -0.0000 -1.0000
vn 0.0080 -0.0000 -1.0000
vn 0.9727 -0.0381 -0.2291
vn 0.9821 -0.1439 -0.1218
vn 0.9894 -0.1449 0.0115
vn 0.9939 -0.0770 0.0791
vn 0.5143 -0.1262 0.8482
vn 0.5183 -0.0290 0.8547
vn 0.1843 -0.0333 0.9823
vn 0.0407 -0.0000 -0.9992
vn 0.0434 -0.0000 -0.9991
vn 0.9734 -0.0000 -0.2293
vn -0.0080 -0.0585 0.9983
vn 0.1843 -0.0299 0.9824
vn -0.0080 -0.0304 0.9995
vn -0.0000 0.9103 -0.4139
vn -0.0000 0.9103 -0.4140
vn 0.0155 0.0134 -0.9998
vn 0.0255 0.9100 -0.4138
vn 0.0444 0.0162 -0.9989
vn 0.9969 -0.0000 0.0791
vn 0.9969 -0.0000 0.0792
vn 0.9968 -0.0001 0.0793
vn 0.5759 -0.0006 0.8175
vn 0.5414 -0.0087 0.8407
vn 0.2389 -0.0100 0.9710
vn 0.1880 -0.0280 0.9818
vn 0.0608 0.0315 -0.9977
vn 0.9729 0.0383 -0.2279
vn 0.9737 0.0007 -0.2280
vn -0.0099 -0.0285 0.9995
vn -0.0520 -0.0000 0.9986
vn -0.0629 0.0005 0.9980
vn -0.0000 0.9884 0.1521
vn 0.0638 0.9320 -0.3569
vn 0.1027 0.9289 -0.3557
vn 0.0512 0.9871 0.1519
vn 0.0677 0.9891 0.1306
vn 0.9969 0.0007 0.0784
vn 0.9969 0.0002 0.0792
vn 0.9968 -0.0000 0.0793
vn 0.5786 -0.0000 0.8156
vn 0.5778 -0.0001 0.8162
vn 0.5777 -0.0001 0.8162
vn 0.2389 -0.0001 0.9710
vn 0.2387 -0.0000 0.9711
vn 0.3093 0.9387 -0.1523
vn 0.9820 0.1464 -0.1192
vn 0.9890 0.1474 0.0104
vn 0.9939 0.0783 0.0782
vn 0.2385 -0.0000 0.9711
vn 0.2385 0.0075 0.9711
vn 0.1613 0.0279 0.9865
vn -0.0219 0.0283 0.9994
vn -0.0192 0.0310 0.9993
vn -0.0000 0.5131 0.8583
vn 0.1943 0.9725 0.1284
vn 0.3129 0.9497 0.0108
vn 0.0005 0.4650 0.8853
vn 0.0753 0.4637 0.8828
vn 0.1382 0.3923 0.9094
vn 0.2597 0.3825 0.8867
vn 0.5046 0.0415 0.8623
vn 0.5448 0.0065 0.8385
vn 0.5714 0.0016 0.8206
vn 0.5008 0.1294 0.8558
vn 0.5781 -0.0000 0.8160
vn 0.5778 -0.0000 0.8162
vn 0.1515 0.0313 0.9880
vn 0.1514 0.0475 0.9873
vn -0.0178 0.0317 0.9993
vn -0.0081 0.4464 0.8948
vn -0.0090 0.0494 0.9987
vn 0.1501 0.0488 0.9875
s 0
f 1//1 2//1 7//1
f 1//1 7//1 3//1
f 1//2 3//2 11//2
f 1//2 11//2 21//2
f 1//3 21//3 29//3
f 1//2 29//2 43//2
f 1//2 43//2 57//2
f 1//2 57//2 58//2
f 1//2 58//2 44//2
f 1//2 44//2 31//2
f 1//2 31//2 22//2
f 1//2 22//2 12//2
f 1//2 12//2 4//2
f 1//4 4//4 8//4
f 1//4 8//4 2//4
f 2//5 5//5 6//5
f 2//6 6//6 7//6
f 2//7 8//7 9//7
f 2//8 9//8 5//8
f 3//9 7//9 10//9
f 3//10 10//10 11//10
f 4//11 12//11 13//11
f 4//11 13//11 8//11
f 5//12 9//12 14//12
f 5//13 14//13 15//13
f 5//14 15//14 16//14
f 5//15 16//15 6//15
f 6//16 16//16 17//16
f 6//17 17//17 10//17
f 6//18 10//18 7//18
f 8//19 18//19 9//19
f 8//20 13//20 18//20
f 9//21 18//21 19//21
f 9//22 19//22 14//22
f 10//23 17//23 20//23
f 10//24 20//24 21//24
f 10//25 21//25 11//25
f 12//26 22//26 23//26
f 12//26 23//26 13//26
f 13//27 23//27 24//27
f 13//27 24//27 18//27
f 14//28 19//28 25//28
f 14//29 25//29 15//29
f 15//30 25//30 16//30
f 16//31 25//31 26//31
f 16//32 26//32 17//32
f 17//33 26//33 27//33
f 17//34 27//34 20//34
f 18//35 24//35 19//35
f 19//36 24//36 28//36
f 19//37 28//37 34//37
f 19//37 34//37 25//37
f 20//38 29//38 21//38
f 20//39 27//39 30//39
f 20//40 30//40 29//40
f 22//41 31//41 33//41
f 22//42 33//42 23//42
f 23//43 32//43 24//43
f 23//44 33//44 32//44
f 24//45 32//45 28//45
f 25//46 34//46 35//46
f 25//47 35//47 36//47
f 25//48 36//48 26//48
f 26//49 36//49 37//49
f 26//50 37//50 27//50
f 27//51 37//51 38//51
f 27//52 38//52 30//52
f 28//53 32//53 39//53
f 28//54 39//54 40//54
f 28//55 40//55 34//55
f 29//56 30//56 38//56
f 29//57 38//57 41//57
f 29//57 41//57 42//57
f 29//58 42//58 43//58
f 31//59 44//59 46//59
f 31//59 46//59 33//59
f 32//60 33//60 45//60
f 32//61 45//61 39//61
f 33//62 46//62 47//62
f 33//63 47//63 45//63
f 34//64 40//64 48//64
f 34//65 48//65 49//65
f 34//47 49//47 35//47
f 35//66 49//66 36//66
f 36//67 49//67 50//67
f 36//68 50//68 51//68
f 36//69 51//69 37//69
f 37//70 51//70 38//70
f 38//71 51//71 54//71
f 38//71 54//71 41//71
f 39//72 45//72 52//72
f 39//73 52//73 40//73
f 40//74 52//74 53//74
f 40//75 53//75 48//75
f 41//76 54//76 42//76
f 42//77 54//77 55//77
f 42//78 55//78 56//78
f 42//79 56//79 43//79
f 43//80 56//80 57//80
f 44//81 58//81 46//81
f 45//82 47//82 53//82
f 45//83 53//83 52//83
f 46//84 58//84 59//84
f 46//85 59//85 47//85
f 47//86 59//86 60//86
f 47//87 60//87 53//87
f 48//88 60//88 55//88
f 48//89 55//89 54//89
f 48//90 54//90 49//90
f 48//91 53//91 60//91
f 49//92 54//92 50//92
f 50//93 54//93 51//93
f 55//94 61//94 56//94
f 55//95 60//95 61//95
f 56//96 61//96 57//96
f 57//97 59//97 58//97
f 57//98 61//98 59//98
f 59//99 61//99 60//99
