# Blender 4.0.0
# www.blender.org
o decimated_mesh
v 0.537108 0.355535 0.064025
v 0.537107 0.354612 0.082266
v -0.537082 0.356214 0.063514
v -0.537081 0.347853 0.086065
v 0.537098 0.298358 0.074064
v -0.537084 0.298208 0.074313
vn 0.0003 -0.2303 0.9731
vn -0.0047 0.9376 0.3477
vn 0.0004 -0.1729 -0.9849
vn -1.0000 -0.0000 -0.0000
vn 1.0000 -0.0002 0.0001
vn 0.0006 0.9987 0.0506
vn 0.0044 -0.1443 0.9895
vn -0.0002 -0.1830 -0.9831
s 0
f 6//1 5//1 4//1
f 2//2 3//2 4//2
f 5//3 3//3 1//3
f 3//4 6//4 4//4
f 2//5 5//5 1//5
f 2//6 1//6 3//6
f 4//7 5//7 2//7
f 5//8 6//8 3//8
