# Blender 4.0.0
# www.blender.org
o Television_2_1_television_2_3_collision_5
v -0.581892 -0.281368 0.069734
v -0.580335 -0.281368 0.063108
v -0.580116 -0.288045 0.063305
v -0.580778 -0.288999 0.069734
v -0.580703 -0.288872 0.077362
v -0.581221 -0.281368 0.078165
v -0.581221 -0.269286 0.078174
v -0.581892 0.346543 0.069734
v -0.574282 -0.281813 0.062861
v -0.573633 -0.288681 0.062945
v -0.580335 0.346543 0.063108
v -0.574282 0.346925 0.062845
v -0.573633 -0.291543 0.069734
v -0.573633 -0.290271 0.079064
v -0.573633 -0.281368 0.082767
v -0.573633 -0.269286 0.083176
v -0.573633 -0.233102 0.083549
v -0.573633 -0.201814 0.083551
v -0.576765 -0.201814 0.081333
v -0.581221 0.334397 0.078174
v -0.581221 0.346543 0.078151
v -0.580703 0.353920 0.077339
v -0.580778 0.353984 0.069734
v -0.580116 0.353157 0.063303
v -0.561558 -0.288936 0.062779
v -0.561558 0.350868 0.062742
v -0.561558 -0.292497 0.069734
v -0.573633 0.353729 0.062926
v -0.561558 0.353984 0.062742
v -0.561558 -0.290971 0.079969
v -0.561558 -0.281368 0.084692
v -0.561558 -0.269286 0.085444
v -0.561558 -0.245184 0.086177
v -0.561558 -0.233102 0.086521
v -0.573633 0.286130 0.083551
v -0.573633 0.334397 0.083176
v -0.573633 0.346543 0.082592
v -0.573633 0.355128 0.078889
v -0.573633 0.356336 0.069734
v -0.537082 -0.288936 0.062779
v -0.537082 0.351185 0.062742
v -0.537082 -0.292497 0.069734
v -0.561558 0.357163 0.069734
v -0.537082 0.353984 0.062742
v -0.537082 -0.290971 0.079969
v -0.537082 -0.281368 0.084412
v -0.537082 -0.269286 0.085248
v -0.561558 -0.201814 0.086521
v -0.561558 0.286130 0.086519
v -0.561558 0.334397 0.085029
v -0.561558 0.298213 0.086177
v -0.561558 0.346543 0.084429
v -0.561558 0.355637 0.079652
v -0.537082 0.357163 0.069734
v -0.537082 0.355701 0.079382
v -0.537082 0.322315 0.084959
v -0.537082 0.346543 0.084208
v -0.537082 0.355637 0.079652
vn -0.9728 -0.0387 -0.2286
vn -0.9821 -0.1434 -0.1224
vn -0.9894 -0.1445 0.0121
vn -0.9939 -0.0770 0.0791
vn -0.9968 -0.0001 0.0793
vn -0.9969 -0.0000 0.0793
vn -0.9735 -0.0000 -0.2287
vn -0.0419 -0.0162 -0.9990
vn -0.0586 -0.0315 -0.9978
vn -0.0434 -0.0000 -0.9991
vn -0.0407 -0.0000 -0.9992
vn -0.1113 -0.9158 -0.3860
vn -0.3304 -0.9281 -0.1717
vn -0.3353 -0.9419 0.0190
vn -0.2228 -0.9659 0.1317
vn -0.2857 -0.3680 0.8848
vn -0.5144 -0.1263 0.8482
vn -0.5183 -0.0290 0.8547
vn -0.5414 -0.0087 0.8407
vn -0.5760 -0.0006 0.8175
vn -0.5778 -0.0001 0.8162
vn -0.5780 -0.0000 0.8160
vn -0.5783 -0.0000 0.8159
vn -0.9968 0.0001 0.0795
vn -0.9938 0.0785 0.0792
vn -0.9889 0.1481 0.0109
vn -0.9818 0.1470 -0.1200
vn -0.9727 0.0390 -0.2286
vn -0.0140 -0.0135 -0.9998
vn -0.0080 -0.0000 -1.0000
vn -0.0064 -0.0001 -1.0000
vn -0.0250 -0.8898 -0.4556
vn -0.0726 -0.9191 -0.3874
vn -0.0608 0.0315 -0.9977
vn -0.0444 0.0162 -0.9989
vn -0.0155 0.0135 -0.9998
vn -0.0780 -0.9878 0.1347
vn -0.0682 -0.9868 0.1471
vn -0.0925 -0.4394 0.8935
vn -0.1456 -0.3800 0.9135
vn -0.1571 -0.0613 0.9857
vn -0.1844 -0.0333 0.9823
vn -0.1844 -0.0299 0.9824
vn -0.1881 -0.0280 0.9818
vn -0.2390 -0.0100 0.9710
vn -0.2390 -0.0001 0.9710
vn -0.2388 -0.0000 0.9711
vn -0.5781 -0.0000 0.8159
vn -0.5715 0.0016 0.8206
vn -0.5449 0.0065 0.8385
vn -0.5047 0.0415 0.8623
vn -0.5009 0.1294 0.8558
vn -0.1943 0.9725 0.1284
vn -0.3128 0.9498 0.0110
vn -0.2598 0.3825 0.8867
vn -0.3091 0.9387 -0.1525
vn -0.1027 0.9289 -0.3557
vn -0.0000 -0.8901 -0.4558
vn -0.0000 -0.0001 -1.0000
vn -0.0000 -0.0000 -1.0000
vn -0.0000 -0.9891 0.1475
vn -0.0638 0.9320 -0.3569
vn -0.0255 0.9100 -0.4138
vn -0.0000 0.9103 -0.4139
vn -0.0000 -0.4413 0.8973
vn 0.0104 -0.4199 0.9075
vn 0.0114 -0.0690 0.9976
vn 0.0080 -0.0621 0.9980
vn 0.0080 -0.0304 0.9995
vn 0.0099 -0.0285 0.9995
vn 0.0520 -0.0000 0.9986
vn -0.2387 -0.0000 0.9711
vn -0.2387 0.0075 0.9711
vn -0.1515 0.0475 0.9873
vn -0.1614 0.0279 0.9865
vn -0.1516 0.0313 0.9879
vn -0.1502 0.0488 0.9875
vn -0.1383 0.3923 0.9094
vn -0.0512 0.9871 0.1519
vn -0.0677 0.9891 0.1306
vn -0.0754 0.4637 0.8828
vn 1.0000 -0.0000 -0.0000
vn -0.0009 0.9884 0.1521
vn -0.0000 0.9887 0.1499
vn 0.0629 0.0005 0.9980
vn 0.0218 0.0283 0.9994
vn 0.0090 0.0494 0.9987
vn 0.0178 0.0317 0.9993
vn 0.0192 0.0310 0.9993
vn 0.0081 0.4479 0.8941
vn -0.0000 0.4650 0.8853
vn -0.0000 0.9734 0.2291
s 0
f 1//1 2//1 3//1
f 1//2 3//2 4//2
f 1//3 4//3 5//3
f 1//4 5//4 6//4
f 1//5 6//5 7//5
f 1//6 7//6 20//6
f 1//6 20//6 8//6
f 1//7 8//7 11//7
f 1//7 11//7 2//7
f 2//8 9//8 10//8
f 2//9 10//9 3//9
f 2//10 11//10 12//10
f 2//11 12//11 9//11
f 3//12 10//12 13//12
f 3//13 13//13 4//13
f 4//14 13//14 5//14
f 5//15 13//15 14//15
f 5//16 14//16 15//16
f 5//17 15//17 6//17
f 6//18 15//18 16//18
f 6//19 16//19 17//19
f 6//20 17//20 7//20
f 7//21 17//21 18//21
f 7//22 18//22 19//22
f 7//23 19//23 20//23
f 8//24 20//24 21//24
f 8//25 21//25 22//25
f 8//26 22//26 23//26
f 8//27 23//27 24//27
f 8//28 24//28 11//28
f 9//29 25//29 10//29
f 9//30 12//30 26//30
f 9//31 26//31 25//31
f 10//32 25//32 27//32
f 10//33 27//33 13//33
f 11//34 24//34 28//34
f 11//35 28//35 12//35
f 12//36 28//36 29//36
f 12//30 29//30 26//30
f 13//37 27//37 14//37
f 14//38 27//38 30//38
f 14//39 30//39 31//39
f 14//40 31//40 15//40
f 15//41 31//41 32//41
f 15//42 32//42 16//42
f 16//43 32//43 33//43
f 16//44 33//44 34//44
f 16//45 34//45 17//45
f 17//46 34//46 18//46
f 18//47 34//47 48//47
f 18//47 48//47 35//47
f 18//22 35//22 19//22
f 19//48 35//48 20//48
f 20//49 35//49 21//49
f 21//50 35//50 36//50
f 21//51 36//51 37//51
f 21//52 37//52 22//52
f 22//53 38//53 39//53
f 22//54 39//54 23//54
f 22//55 37//55 38//55
f 23//56 39//56 24//56
f 24//57 39//57 28//57
f 25//58 40//58 42//58
f 25//58 42//58 27//58
f 25//59 26//59 40//59
f 26//60 29//60 44//60
f 26//60 44//60 41//60
f 26//59 41//59 40//59
f 27//61 42//61 45//61
f 27//61 45//61 30//61
f 28//62 39//62 43//62
f 28//63 43//63 29//63
f 29//64 43//64 54//64
f 29//64 54//64 44//64
f 30//65 45//65 31//65
f 31//66 45//66 46//66
f 31//67 46//67 47//67
f 31//68 47//68 32//68
f 32//69 47//69 33//69
f 33//70 47//70 34//70
f 34//71 47//71 48//71
f 35//72 48//72 49//72
f 35//73 49//73 36//73
f 36//74 50//74 37//74
f 36//75 49//75 51//75
f 36//76 51//76 50//76
f 37//77 50//77 52//77
f 37//78 52//78 38//78
f 38//79 53//79 43//79
f 38//80 43//80 39//80
f 38//81 52//81 53//81
f 40//82 41//82 44//82
f 40//82 44//82 54//82
f 40//82 54//82 55//82
f 40//82 55//82 58//82
f 40//82 58//82 57//82
f 40//82 57//82 56//82
f 40//82 56//82 47//82
f 40//82 47//82 46//82
f 40//82 46//82 45//82
f 40//82 45//82 42//82
f 43//83 53//83 55//83
f 43//84 55//84 54//84
f 47//85 56//85 49//85
f 47//71 49//71 48//71
f 49//86 56//86 51//86
f 50//87 57//87 52//87
f 50//88 51//88 57//88
f 51//89 56//89 57//89
f 52//90 57//90 58//90
f 52//91 58//91 53//91
f 53//92 58//92 55//92
