# Blender 4.0.0
# www.blender.org
o decimated_mesh
v 0.481459 1.988316 0.062085
v 0.519519 1.988316 0.051072
v 0.489541 0.010466 0.062043
v 0.521574 -0.000627 0.047470
v 0.468714 0.010466 0.057150
v 0.482160 -0.005695 0.052043
v 0.453044 1.988316 0.047229
v 0.451958 -0.004581 0.041367
v 0.443697 1.988316 0.022540
v 0.499348 -0.010736 0.031153
v 0.520346 1.988316 -0.050653
v 0.444048 0.012211 -0.024583
v 0.475772 -0.011811 -0.032767
v 0.521353 -0.002634 -0.044977
v 0.482160 -0.005695 -0.052043
v 0.510368 0.010466 -0.056200
v 0.453770 -0.002563 -0.044581
v 0.489541 0.010466 -0.062043
v 0.481459 1.988316 -0.062086
v 0.448275 1.988316 -0.041891
v 0.468714 0.010466 -0.057150
vn 0.2821 0.0011 -0.9594
vn -0.5199 0.0012 -0.8542
vn -0.2287 -0.0010 -0.9735
vn -0.9975 0.0015 -0.0709
vn -0.2047 -0.4457 0.8714
vn 0.1668 -0.5728 0.8026
vn -0.4633 0.0008 0.8862
vn -0.3037 -0.5075 0.8063
vn 0.1222 -0.9570 -0.2632
vn 0.1839 -0.9816 -0.0513
vn 0.1596 -0.9217 0.3537
vn -0.0930 -0.9826 0.1606
vn 1.0000 0.0010 0.0081
vn -0.1941 -0.9147 -0.3546
vn 0.1883 -0.5775 -0.7944
vn 0.2318 -0.5135 -0.8262
vn -0.8999 -0.0019 -0.4361
vn -0.2718 -0.4882 -0.8293
vn -0.2047 -0.4457 -0.8714
vn -0.9352 -0.0005 0.3541
vn 0.4138 -0.0012 0.9104
vn -0.2287 -0.0010 0.9735
vn -0.0000 1.0000 -0.0000
vn 0.2701 0.0013 -0.9628
vn -0.6433 -0.0007 -0.7656
vn -0.9930 -0.0030 0.1183
vn -0.6848 -0.0018 0.7287
vn -0.3738 -0.9271 -0.0296
vn -0.8533 -0.5206 -0.0302
vn -0.1160 -0.9915 0.0595
vn 0.4024 -0.9153 0.0189
vn 1.0000 0.0005 -0.0024
vn 0.7137 -0.0016 -0.7004
vn 0.2780 0.0011 0.9606
vn 0.2821 0.0013 -0.9594
vn 0.2701 0.0011 -0.9628
s 0
f 11//1 18//1 19//1
f 21//2 20//2 19//2
f 19//3 18//3 21//3
f 20//4 12//4 9//4
f 3//5 5//5 6//5
f 3//6 6//6 4//6
f 7//7 5//7 1//7
f 5//8 8//8 6//8
f 14//9 13//9 15//9
f 10//10 13//10 14//10
f 10//11 4//11 6//11
f 10//12 6//12 8//12
f 11//13 2//13 4//13
f 13//14 17//14 15//14
f 15//15 18//15 14//15
f 14//16 18//16 16//16
f 12//17 20//17 17//17
f 17//18 21//18 15//18
f 15//19 21//19 18//19
f 8//20 7//20 9//20
f 2//21 3//21 4//21
f 1//22 5//22 3//22
f 2//23 11//23 9//23
f 9//23 11//23 20//23
f 20//23 11//23 19//23
f 9//23 7//23 1//23
f 9//23 1//23 2//23
f 11//24 16//24 18//24
f 21//25 17//25 20//25
f 12//26 8//26 9//26
f 7//27 8//27 5//27
f 8//28 17//28 13//28
f 17//29 8//29 12//29
f 10//30 8//30 13//30
f 4//31 10//31 14//31
f 14//32 11//32 4//32
f 11//33 14//33 16//33
f 2//34 1//34 3//34
f 20//23 7//23 1//23
f 2//23 20//23 1//23
f 2//23 11//23 20//23
f 9//23 7//23 20//23
f 16//35 19//35 11//35
f 16//36 18//36 19//36
