# Blender 4.0.0
# www.blender.org
o decimated_mesh
v -0.451059 1.799898 0.330476
v -0.450517 1.410786 0.331785
v -0.413278 1.410803 0.324618
v -0.428480 1.410801 0.101915
v -0.423290 1.797353 0.102001
v -0.412000 1.410801 0.101915
v -0.379427 1.799685 0.101915
v -0.383666 1.799682 0.322795
vn -0.9927 -0.0018 -0.1206
vn -0.9963 0.0835 -0.0191
vn 0.0004 -1.0000 -0.0000
vn -0.9953 0.0134 -0.0954
vn -0.0531 0.9986 -0.0010
vn 0.0020 0.9999 -0.0109
vn -0.9971 0.0759 -0.0057
vn 0.0020 -0.0002 1.0000
vn -0.0000 -0.0002 1.0000
vn -0.0000 -1.0000 -0.0000
vn 0.1890 -0.0098 0.9819
vn 0.1133 0.0035 0.9936
vn -0.9954 -0.0017 -0.0954
vn -0.9965 0.0835 -0.0057
vn -0.9969 0.0758 -0.0191
vn 0.0032 1.0000 0.0001
vn -0.0531 0.9984 -0.0176
vn -0.9926 0.0134 -0.1208
vn 0.0020 -0.0003 1.0000
vn -0.0000 -0.0000 1.0000
s 0
f 5//1 2//1 1//1
f 8//2 7//2 6//2
f 2//3 4//3 3//3
f 5//4 4//4 2//4
f 8//5 7//5 5//5
f 1//6 8//6 5//6
f 8//7 6//7 3//7
f 7//8 5//8 6//8
f 6//9 5//9 4//9
f 4//10 6//10 3//10
f 8//11 2//11 3//11
f 2//12 8//12 1//12
f 1//13 4//13 2//13
f 6//14 3//14 7//14
f 7//15 3//15 8//15
f 7//16 1//16 8//16
f 7//17 5//17 1//17
f 5//18 4//18 1//18
f 5//19 4//19 7//19
f 7//20 4//20 6//20
