# Blender 4.0.0
# www.blender.org
o decimated_mesh
v -0.411998 0.643331 0.101863
v -0.369180 0.643363 -0.196869
v -0.428487 0.643331 0.101863
v -0.368689 0.127821 0.101987
v -0.427587 0.643331 -0.177600
v -0.427730 0.137883 0.101863
v -0.408807 0.643331 -0.196286
v -0.369756 0.137605 -0.196203
v -0.426608 0.138182 -0.178223
v -0.369759 0.128666 -0.180255
v -0.408645 0.136981 -0.195408
v -0.410040 0.129780 -0.174507
v -0.411205 0.128781 0.101863
vn -0.0204 -0.0017 -0.9998
vn 0.9865 0.0829 0.1414
vn -0.0031 -0.0056 1.0000
vn 1.0000 -0.0071 -0.0038
vn -1.0000 -0.0019 -0.0040
vn -0.0730 -0.9414 -0.3292
vn -0.6913 -0.0015 -0.7225
vn -0.4514 -0.8923 -0.0051
vn -0.3689 -0.8709 -0.3247
vn -0.0282 -0.9996 -0.0037
vn -0.0008 1.0000 -0.0008
vn -0.0147 -0.0013 -0.9999
vn -0.0000 0.0002 1.0000
vn -0.0021 -0.0000 1.0000
vn 1.0000 -0.0011 -0.0036
vn -1.0000 -0.0015 -0.0032
vn 0.0040 -0.8723 -0.4889
vn -0.7053 -0.0005 -0.7089
vn -0.4825 -0.8759 -0.0029
vn -0.0226 -0.9997 -0.0029
vn -0.0000 1.0000 -0.0000
vn -0.0005 1.0000 -0.0000
vn -0.0000 1.0000 0.0001
s 0
f 7//1 8//1 11//1
f 1//2 4//2 2//2
f 4//3 6//3 13//3
f 4//4 10//4 8//4
f 6//5 5//5 9//5
f 11//6 10//6 12//6
f 9//7 7//7 11//7
f 13//8 9//8 12//8
f 9//9 11//9 12//9
f 10//10 13//10 12//10
f 2//11 7//11 5//11
f 7//12 2//12 8//12
f 4//13 1//13 3//13
f 3//14 6//14 4//14
f 4//15 8//15 2//15
f 6//16 3//16 5//16
f 11//17 8//17 10//17
f 9//18 5//18 7//18
f 13//19 6//19 9//19
f 10//20 4//20 13//20
f 5//21 3//21 1//21
f 1//22 2//22 5//22
f 5//22 3//22 2//22
f 3//23 1//23 2//23
