# Blender 4.0.0
# www.blender.org
o decimated_mesh
v -0.023740 1.794834 -0.141490
v -0.039119 1.535566 -0.152718
v 0.346556 1.794414 -0.166586
v 0.346815 1.535209 -0.186504
v 0.346556 1.794414 -0.197094
v -0.361169 1.535345 -0.189191
v -0.361206 1.794880 -0.181768
vn -0.1185 -0.0284 0.9926
vn 0.0011 1.0000 -0.0000
vn -0.0871 0.0483 -0.9950
vn 0.0038 -0.0408 -0.9992
vn 1.0000 0.0010 -0.0000
vn -0.0002 -1.0000 0.0080
vn -0.1124 -0.0363 0.9930
vn 0.0006 1.0000 -0.0037
vn -0.0673 0.0764 -0.9948
vn -0.0216 0.0286 -0.9994
vn -0.0675 0.0472 -0.9966
vn -0.0869 0.0762 -0.9933
s 0
f 6//1 1//1 7//1
f 1//2 3//2 5//2
f 2//3 1//3 4//3
f 6//4 5//4 4//4
f 5//5 3//5 4//5
f 6//6 4//6 2//6
f 6//7 2//7 1//7
f 5//8 7//8 1//8
f 3//9 4//9 1//9
f 6//10 7//10 5//10
f 2//11 1//11 3//11
f 3//12 4//12 2//12
