# Blender 4.0.0
# www.blender.org
o decimated_mesh
v -0.428482 1.016606 0.101915
v -0.427611 1.104875 0.101916
v -0.411999 1.016606 0.101915
v -0.452049 1.016607 0.328592
v -0.449988 1.143373 0.328409
v -0.388229 1.124014 0.101889
v -0.413278 1.016642 0.324708
v -0.386463 1.142775 0.331396
v -0.410309 1.122286 0.101915
v -0.434837 1.016606 0.333075
vn 0.3591 -0.1254 0.9248
vn -0.9948 0.0160 -0.1010
vn -0.0000 1.0000 -0.0002
vn 0.0132 0.9966 -0.0816
vn -0.9763 0.2161 -0.0101
vn -0.0467 0.0312 0.9984
vn -0.6969 0.6925 -0.1866
vn -0.9946 0.0098 -0.1034
vn -0.0007 1.0000 0.0025
vn -0.0009 1.0000 -0.0001
vn -0.0777 0.9913 -0.1059
vn -0.2520 0.0055 0.9677
vn -0.9781 0.2082 -0.0056
vn -0.0013 0.0012 -1.0000
vn 0.0006 0.0001 1.0000
vn -0.0000 -0.0000 1.0000
vn -0.0000 0.0002 1.0000
vn -0.0000 1.0000 -0.0000
vn 0.0007 -0.0000 1.0000
vn -0.9780 0.2084 -0.0095
vn -0.9764 0.2161 -0.0056
vn -0.0017 1.0000 -0.0002
s 0
f 8//1 10//1 7//1
f 2//2 4//2 5//2
f 1//3 7//3 3//3
f 8//4 6//4 5//4
f 8//5 6//5 3//5
f 5//6 10//6 8//6
f 9//7 2//7 5//7
f 2//8 1//8 4//8
f 7//9 4//9 10//9
f 4//10 7//10 1//10
f 5//11 6//11 9//11
f 5//12 4//12 10//12
f 8//13 3//13 7//13
f 2//14 9//14 6//14
f 6//15 2//15 3//15
f 3//16 2//16 1//16
f 6//17 1//17 3//17
f 3//18 1//18 10//18
f 10//18 1//18 4//18
f 2//19 1//19 6//19
f 8//20 6//20 7//20
f 7//21 6//21 3//21
f 7//22 3//22 10//22
