# Blender 4.0.0
# www.blender.org
o decimated_mesh
v -0.428813 1.535598 -0.157217
v -0.426513 1.535598 -0.179227
v -0.409550 1.535598 -0.157111
v -0.426027 1.785859 -0.176026
v -0.419529 1.758818 -0.186985
v -0.360756 1.535609 -0.181120
v -0.409253 1.535598 -0.195960
v -0.408330 1.786393 -0.195490
v -0.426678 1.785155 -0.157133
v -0.408034 1.810030 -0.157165
v -0.407810 1.807805 -0.177944
v -0.392236 1.804963 -0.193881
v -0.360747 1.535598 -0.197153
v -0.361050 1.822141 -0.156772
v -0.387523 1.818790 -0.164932
v -0.379333 1.814965 -0.184253
v -0.360750 1.816459 -0.184359
v -0.360738 1.806915 -0.195962
vn 0.4403 -0.0756 0.8947
vn -0.7705 0.6329 -0.0761
vn -0.2329 0.8909 0.3898
vn -0.8509 0.0084 -0.5252
vn -0.5543 0.5356 -0.6371
vn -0.8002 0.5997 -0.0052
vn -0.6106 0.0037 -0.7919
vn -0.4229 0.9005 -0.1010
vn 1.0000 -0.0000 0.0006
vn -0.3105 0.8360 -0.4525
vn -0.0000 1.0000 -0.0000
vn -0.0793 0.9709 -0.2258
vn -0.0898 0.7484 -0.6571
vn -0.0655 0.7706 -0.6339
vn -0.9946 0.0033 -0.1039
vn -0.9994 0.0086 -0.0341
vn -0.6515 0.4902 -0.5790
vn -0.0118 0.0044 -0.9999
vn -0.0246 0.0020 -0.9997
vn -0.6961 -0.0032 -0.7180
vn -0.2952 0.9057 -0.3044
vn -0.0744 0.1499 -0.9859
vn -0.7379 0.0935 -0.6684
vn -1.0000 -0.0004 -0.0078
vn -0.9998 0.0160 -0.0142
vn -0.0000 1.0000 -0.0007
vn -0.0002 1.0000 -0.0000
vn -0.0615 0.9775 -0.2020
vn -0.0108 0.0094 0.9999
vn -0.0055 -0.0003 1.0000
vn -0.0053 -0.0003 1.0000
vn -0.0004 1.0000 -0.0007
vn -0.0000 1.0000 0.0004
vn -1.0000 -0.0000 -0.0010
vn -0.9999 -0.0001 -0.0108
s 0
f 3//1 6//1 14//1
f 10//2 11//2 4//2
f 14//3 15//3 10//3
f 5//4 2//4 4//4
f 8//5 11//5 12//5
f 9//6 10//6 4//6
f 7//7 5//7 8//7
f 10//8 15//8 11//8
f 6//9 13//9 18//9
f 12//10 11//10 16//10
f 2//11 3//11 7//11
f 15//12 17//12 16//12
f 12//13 16//13 18//13
f 16//14 17//14 18//14
f 4//15 2//15 1//15
f 1//16 9//16 4//16
f 8//17 4//17 11//17
f 18//18 13//18 8//18
f 13//19 7//19 8//19
f 7//20 2//20 5//20
f 16//21 11//21 15//21
f 18//22 8//22 12//22
f 8//23 5//23 4//23
f 14//24 18//24 6//24
f 17//25 18//25 14//25
f 7//26 6//26 13//26
f 6//27 7//27 3//27
f 2//11 1//11 3//11
f 15//28 14//28 17//28
f 10//29 9//29 14//29
f 9//30 1//30 3//30
f 3//31 14//31 9//31
f 2//11 1//11 7//11
f 7//11 1//11 13//11
f 13//32 1//32 6//32
f 6//33 1//33 3//33
f 18//34 6//34 17//34
f 17//35 6//35 14//35
