# Blender 4.0.0
# www.blender.org
o decimated_mesh
v -0.350529 1.076599 -0.199920
v -0.350502 1.118708 -0.187717
v -0.021096 1.126564 -0.195110
v -0.350555 1.108086 0.101892
v -0.021117 1.074298 -0.197917
v -0.350555 1.124124 0.101892
v -0.021107 1.108086 0.101892
v -0.021107 1.124124 0.101892
vn -0.0076 -0.9946 0.1038
vn -0.0000 1.0000 0.0082
vn -0.0000 -0.0000 1.0000
vn -0.0282 0.2782 -0.9601
vn -1.0000 -0.0000 -0.0000
vn -1.0000 0.0007 -0.0002
vn -1.0000 -0.0000 -0.0002
vn -0.0000 -0.9937 0.1120
vn 0.0064 0.0536 -0.9985
vn -0.0243 0.9995 -0.0187
vn -1.0000 0.0004 -0.0000
vn -1.0000 -0.0000 -0.0001
s 0
f 5//1 4//1 1//1
f 3//2 6//2 8//2
f 6//3 7//3 8//3
f 3//4 1//4 2//4
f 8//5 5//5 7//5
f 1//6 4//6 2//6
f 4//7 6//7 2//7
f 5//8 7//8 4//8
f 1//9 3//9 5//9
f 3//10 2//10 6//10
f 6//3 4//3 7//3
f 3//11 5//11 8//11
f 4//12 6//12 1//12
f 6//6 2//6 1//6
f 8//5 3//5 7//5
f 7//11 3//11 5//11
