# Blender 4.0.0
# www.blender.org
o Fridge_17_FridgeBodyMesh_3a0c63c3_3_collision_21
v 0.182937 0.127394 -0.052949
v 0.182937 0.127394 0.101892
v 0.182937 0.186117 -0.052949
v 0.370651 0.127394 -0.052949
v 0.182937 0.183881 0.101892
v 0.370651 0.127394 0.101892
v 0.370651 0.206185 -0.052949
v 0.370651 0.195666 0.101892
v 0.370651 0.202260 0.019636
vn -1.0000 -0.0000 -0.0000
vn -0.0000 -0.0000 -1.0000
vn -0.0000 -1.0000 -0.0000
vn -0.0000 -0.0000 1.0000
vn -0.1063 0.9942 0.0144
vn 1.0000 -0.0000 -0.0000
vn -0.0625 0.9949 0.0798
vn -0.0739 0.9958 0.0539
s 0
f 1//1 2//1 5//1
f 1//1 5//1 3//1
f 1//2 3//2 7//2
f 1//2 7//2 4//2
f 1//3 4//3 6//3
f 1//3 6//3 2//3
f 2//4 6//4 8//4
f 2//4 8//4 5//4
f 3//5 5//5 7//5
f 4//6 7//6 9//6
f 4//6 9//6 8//6
f 4//6 8//6 6//6
f 5//7 8//7 9//7
f 5//8 9//8 7//8
