# Blender 4.0.0
# www.blender.org
o decimated_mesh
v -0.350555 1.124127 0.101892
v -0.408662 1.123330 0.101891
v -0.350555 1.108082 0.101892
v -0.348722 1.120916 -0.147344
v -0.424147 1.053387 0.101892
v -0.411972 1.055059 -0.147340
v -0.420045 1.116722 -0.147341
v -0.427390 1.105400 0.101891
v -0.428487 1.055052 -0.147340
vn -0.9905 0.1356 -0.0230
vn -0.0587 0.9980 -0.0238
vn 0.0004 -1.0000 -0.0067
vn -0.6915 0.7223 0.0124
vn 0.5963 -0.8024 0.0237
vn -0.0000 -0.0000 1.0000
vn -0.9979 -0.0622 0.0170
vn -0.0000 -0.0000 -1.0000
vn 1.0000 -0.0000 0.0074
vn -0.0137 0.9998 -0.0130
vn 0.7209 -0.6924 -0.0304
vn -0.0000 -0.0001 -1.0000
s 0
f 9//1 8//1 7//1
f 2//2 4//2 7//2
f 5//3 9//3 6//3
f 8//4 2//4 7//4
f 6//5 3//5 5//5
f 5//6 3//6 2//6
f 3//6 1//6 2//6
f 8//6 5//6 2//6
f 9//7 5//7 8//7
f 4//8 6//8 7//8
f 6//8 9//8 7//8
f 4//9 1//9 3//9
f 2//10 1//10 4//10
f 6//11 4//11 3//11
f 6//12 9//12 4//12
f 9//8 7//8 4//8
f 5//6 1//6 2//6
f 5//6 3//6 1//6
