# Blender 4.0.0
# www.blender.org
o decimated_mesh
v -0.278765 1.228234 0.330780
v -0.450822 1.279421 0.330822
v -0.449860 1.228610 0.327745
v -0.278836 1.269251 0.325546
v -0.397822 1.251657 0.101915
v -0.278830 1.252840 0.101915
v -0.428412 1.278888 0.101914
v -0.425619 1.263122 0.101933
v -0.278830 1.270743 0.101915
vn -0.3752 -0.9094 -0.1793
vn 0.0379 0.1266 0.9912
vn -0.0178 -0.0608 0.9980
vn -0.0004 -0.9948 -0.1016
vn -0.9761 -0.1731 -0.1312
vn -0.0000 -0.0000 1.0000
vn -1.0000 -0.0017 0.0001
vn -1.0000 -0.0000 -0.0000
vn 0.0544 0.9985 0.0067
vn 0.0591 0.9982 0.0035
vn -0.9952 -0.0129 -0.0974
vn 0.0099 -0.9942 -0.1069
vn -0.0012 -0.0014 -1.0000
vn -1.0000 -0.0000 0.0003
vn -1.0000 -0.0018 -0.0000
vn 0.0592 0.9982 0.0067
vn 0.0544 0.9985 0.0030
s 0
f 8//1 5//1 3//1
f 1//2 4//2 2//2
f 2//3 3//3 1//3
f 5//4 1//4 3//4
f 3//5 7//5 8//5
f 9//6 5//6 6//6
f 1//7 4//7 6//7
f 6//8 4//8 9//8
f 4//9 9//9 7//9
f 7//10 2//10 4//10
f 7//11 3//11 2//11
f 5//12 6//12 1//12
f 5//13 8//13 7//13
f 7//6 5//6 9//6
f 6//14 1//14 9//14
f 9//15 1//15 4//15
f 4//16 9//16 2//16
f 9//17 7//17 2//17
f 7//6 5//6 6//6
f 7//6 6//6 9//6
