# Blender 4.0.0
# www.blender.org
o decimated_mesh
v 0.182937 0.126928 -0.154229
v 0.396254 0.126603 -0.154169
v 0.182931 0.133001 -0.193020
v 0.424843 0.134695 -0.178855
v 0.182937 0.294953 -0.154004
v 0.410187 0.137923 -0.195276
v 0.426551 0.135620 -0.154009
v 0.428937 0.643350 -0.153477
v 0.182937 0.643331 -0.183122
v 0.182937 0.643331 -0.201993
v 0.182937 0.154496 -0.201376
v 0.409044 0.643331 -0.196167
v 0.426532 0.643331 -0.179008
vn -0.0014 -0.3623 -0.9320
vn 0.7004 0.0003 -0.7138
vn 0.0258 -0.0013 -0.9997
vn 0.0036 0.0056 -1.0000
vn 1.0000 -0.0000 -0.0000
vn 0.0015 0.9880 0.1547
vn -0.1192 0.0827 0.9894
vn 0.9956 -0.0033 -0.0938
vn -0.0191 0.9777 0.2093
vn 0.0267 -0.0017 -0.9996
vn 0.7458 -0.0027 -0.6662
vn -0.0007 -0.0010 1.0000
vn 0.0003 0.0013 -1.0000
vn 1.0000 -0.0004 -0.0002
vn -0.0235 0.9577 0.2867
vn 0.2852 -0.9583 0.0161
vn -0.0000 1.0000 -0.0000
vn -0.0000 1.0000 -0.0004
vn 0.0008 1.0000 -0.0008
vn 0.9976 -0.0046 -0.0684
vn -0.0183 0.9655 0.2597
vn 1.0000 -0.0000 -0.0002
vn 1.0000 -0.0000 -0.0001
vn 1.0000 -0.0000 0.0008
vn -0.0619 0.9674 0.2454
vn 0.0003 0.0168 -0.9999
vn 0.0009 0.0013 -1.0000
vn -0.0001 1.0000 -0.0000
s 0
f 11//1 6//1 3//1
f 6//2 12//2 13//2
f 12//3 11//3 10//3
f 2//4 5//4 7//4
f 10//5 5//5 11//5
f 3//6 1//6 2//6
f 5//7 8//7 9//7
f 4//8 13//8 8//8
f 3//9 4//9 6//9
f 12//10 6//10 11//10
f 13//11 4//11 6//11
f 8//12 5//12 7//12
f 5//13 2//13 1//13
f 1//14 3//14 11//14
f 1//5 11//5 5//5
f 5//5 10//5 9//5
f 3//15 2//15 4//15
f 4//16 7//16 2//16
f 12//17 10//17 9//17
f 9//18 8//18 12//18
f 12//19 8//19 13//19
f 7//20 4//20 8//20
f 6//21 3//21 2//21
f 1//22 3//22 5//22
f 5//23 3//23 9//23
f 9//5 3//5 10//5
f 10//24 3//24 11//24
f 4//25 6//25 2//25
f 7//26 2//26 1//26
f 7//27 1//27 5//27
f 8//28 10//28 9//28
f 8//18 12//18 10//18
