# Blender 4.0.0
# www.blender.org
o decimated_mesh
v 0.029779 0.018243 0.007485
v 0.029920 0.019026 0.004403
v 0.030047 0.017744 0.005911
v 0.029710 0.019746 0.007477
v 0.029924 0.019593 0.004380
v 0.032278 0.015476 0.004360
v 0.038705 0.006040 0.007458
v 0.037070 0.022991 0.001130
v 0.033470 0.021254 0.001127
v 0.031291 0.019777 0.002492
v 0.031398 0.018497 0.002564
v 0.030742 0.019737 0.007482
v 0.038705 0.023131 0.003278
v 0.038705 0.023314 0.002152
v 0.033365 0.020271 0.000870
v 0.032911 0.018905 0.001164
v 0.038703 0.007494 0.005130
v 0.038705 0.009218 0.007482
v 0.038709 0.022992 0.001034
v 0.036339 0.020467 0.000342
v 0.035641 0.018202 0.000827
v 0.036573 0.012641 0.002881
v 0.038698 0.017090 0.001353
v 0.038708 0.011594 0.002779
vn -0.9722 -0.2125 -0.0983
vn 0.0748 -0.2503 -0.9653
vn -0.4341 0.8998 -0.0434
vn -0.7678 -0.5983 -0.2294
vn -0.5154 -0.4933 -0.7008
vn -0.8091 -0.0173 -0.5874
vn -0.7894 -0.1002 -0.6057
vn 0.0040 0.7744 0.6327
vn -0.1855 0.2673 -0.9456
vn -0.6326 0.2584 -0.7301
vn -0.6756 0.5985 -0.4306
vn -0.6212 0.0380 -0.7827
vn -0.6617 -0.0972 -0.7434
vn 0.3569 0.2702 0.8942
vn 0.0013 0.0010 1.0000
vn -0.0164 0.9607 -0.2771
vn -0.0560 0.3126 -0.9482
vn -0.2742 -0.4782 -0.8344
vn -0.2838 0.9463 0.1548
vn -0.9976 0.0049 -0.0691
vn 0.1624 0.1587 0.9739
vn 0.3301 -0.0516 -0.9425
vn -0.8061 -0.5897 0.0497
vn 0.0818 -0.2330 -0.9690
vn -0.7434 -0.4883 -0.4572
vn -0.7763 -0.5112 -0.3689
vn -0.4798 0.8740 -0.0765
vn -0.5417 -0.5146 -0.6646
vn -0.1616 0.3367 -0.9277
vn -0.5890 -0.5327 -0.6076
vn 1.0000 -0.0015 -0.0001
vn 1.0000 0.0005 -0.0055
vn 1.0000 -0.0019 0.0019
vn 1.0000 0.0078 0.0013
vn 1.0000 0.0002 0.0008
vn 1.0000 -0.0002 -0.0010
vn -0.0050 0.0051 1.0000
vn -0.0074 -0.0076 0.9999
vn -0.2829 0.9467 0.1541
vn -0.9973 -0.0458 -0.0571
vn -0.7039 -0.6028 -0.3757
vn 0.1605 0.1566 0.9745
vn 0.2068 0.3692 0.9060
vn 0.2246 0.3704 0.9013
vn 1.0000 0.0005 0.0017
vn 1.0000 -0.0030 -0.0027
vn 1.0000 -0.0002 0.0006
vn 1.0000 -0.0000 0.0007
vn 0.9998 -0.0030 -0.0190
vn 0.1611 0.1592 0.9740
vn 0.1627 0.1558 0.9743
vn 0.2057 0.3638 0.9085
vn 0.2288 0.3794 0.8965
s 0
f 1//1 2//1 3//1
f 21//2 23//2 24//2
f 4//3 8//3 9//3
f 3//4 6//4 7//4
f 16//5 22//5 11//5
f 2//6 5//6 10//6
f 2//7 10//7 11//7
f 4//8 12//8 13//8
f 20//9 15//9 9//9
f 9//10 15//10 10//10
f 9//11 10//11 5//11
f 10//12 15//12 16//12
f 10//13 16//13 11//13
f 12//14 18//14 13//14
f 12//15 1//15 18//15
f 14//16 19//16 8//16
f 8//17 19//17 20//17
f 22//18 24//18 17//18
f 13//19 8//19 4//19
f 4//20 5//20 2//20
f 15//21 21//21 20//21
f 19//22 23//22 20//22
f 1//23 3//23 7//23
f 21//24 20//24 23//24
f 6//25 2//25 11//25
f 2//26 6//26 3//26
f 9//27 5//27 4//27
f 17//28 11//28 22//28
f 8//29 20//29 9//29
f 6//30 11//30 17//30
f 17//31 24//31 18//31
f 24//32 23//32 13//32
f 23//33 19//33 13//33
f 14//34 13//34 19//34
f 13//35 18//35 24//35
f 7//36 17//36 18//36
f 12//37 4//37 1//37
f 1//38 7//38 18//38
f 13//39 14//39 8//39
f 2//40 1//40 4//40
f 6//41 17//41 7//41
f 21//42 15//42 16//42
f 16//43 22//43 21//43
f 21//44 22//44 24//44
f 18//45 19//45 13//45
f 17//46 24//46 7//46
f 24//47 18//47 7//47
f 24//48 19//48 18//48
f 24//49 23//49 19//49
f 21//50 20//50 16//50
f 16//51 20//51 15//51
f 21//52 16//52 24//52
f 24//53 16//53 22//53
