# Blender 4.0.0
# www.blender.org
o decimated_mesh
v -0.076463 0.097925 0.013808
v -0.075798 0.097924 0.012330
v -0.075125 0.107986 0.011202
v -0.075126 0.102565 0.011273
v -0.076346 0.097925 0.017161
v -0.075052 0.109631 0.016344
v -0.075031 0.109494 0.012088
v -0.073545 0.112789 0.011108
v -0.073593 0.102654 0.011282
v -0.068989 0.120606 0.009883
v -0.075715 0.097926 0.018590
v -0.075042 0.105507 0.017988
v -0.070487 0.120608 0.014966
v -0.070337 0.120604 0.010981
v -0.064790 0.097925 0.014374
v -0.073448 0.110543 0.018052
v -0.069893 0.120605 0.016587
v -0.057877 0.120603 0.012590
v -0.064798 0.097925 0.015094
v -0.074231 0.097925 0.019326
v -0.057883 0.120599 0.013430
v -0.071572 0.112303 0.018301
v -0.065990 0.097925 0.016262
v -0.072074 0.097924 0.019244
v -0.066915 0.120603 0.017480
v -0.064105 0.120608 0.016698
vn 0.9567 -0.2912 0.0057
vn -0.9177 0.3745 -0.1323
vn -0.8297 -0.0071 -0.5582
vn -0.8785 0.2814 -0.3861
vn -0.8612 0.3978 0.3164
vn -0.9090 0.1126 0.4012
vn 0.0377 0.0641 0.9972
vn 0.2345 -0.1352 -0.9627
vn -0.6135 0.2396 -0.7525
vn -0.4709 0.1378 -0.8714
vn -0.4051 0.1166 0.9068
vn 0.1747 -0.2901 -0.9409
vn -0.9918 0.1252 -0.0260
vn -0.9219 0.3859 -0.0350
vn 0.4642 -0.0556 0.8840
vn -0.3604 0.2579 0.8964
vn 0.0001 1.0000 -0.0000
vn 0.6908 -0.1589 0.7053
vn 0.0001 1.0000 0.0018
vn -0.0015 1.0000 0.0008
vn 0.0009 1.0000 -0.0009
vn -0.0007 1.0000 0.0041
vn 0.0013 1.0000 0.0001
vn -0.0023 1.0000 -0.0009
vn 0.9567 -0.2909 0.0117
vn -0.1852 -0.0127 -0.9826
vn -0.9382 0.1263 0.3222
vn -0.7691 0.3497 0.5349
vn 0.0629 0.0632 0.9960
vn 0.2537 -0.1525 -0.9552
vn -0.2780 0.2477 0.9281
vn -0.4411 0.1099 0.8907
vn -0.7683 0.2355 0.5951
vn -0.9931 0.1123 0.0344
vn -0.9978 0.0662 -0.0070
vn -0.9240 0.3821 -0.0168
vn 0.4395 -0.0538 0.8966
vn -0.2327 0.1119 0.9661
vn 0.0185 -0.2246 -0.9743
vn -0.0007 -1.0000 0.0013
vn 0.0003 1.0000 -0.0000
vn -0.0000 1.0000 -0.0000
vn -0.0000 1.0000 0.0001
vn -0.0003 -1.0000 -0.0013
vn -0.9118 0.0150 -0.4104
vn 0.2682 0.0139 0.9633
vn 0.0103 -0.0803 -0.9967
vn -0.9925 0.1215 -0.0088
vn -0.9904 0.1103 -0.0829
vn 0.0002 1.0000 -0.0001
vn -0.0001 1.0000 -0.0000
vn -0.0001 1.0000 -0.0001
vn -0.0006 1.0000 0.0040
vn -0.0006 1.0000 0.0020
vn 0.0001 1.0000 -0.0003
vn 0.0005 1.0000 -0.0006
vn 0.0036 1.0000 0.0041
s 0
f 21//1 15//1 18//1
f 14//2 8//2 7//2
f 2//3 3//3 4//3
f 3//4 7//4 8//4
f 13//5 6//5 17//5
f 11//6 12//6 5//6
f 24//7 22//7 20//7
f 10//8 18//8 9//8
f 8//9 14//9 10//9
f 8//10 10//10 3//10
f 20//11 16//11 12//11
f 2//12 9//12 15//12
f 3//13 1//13 6//13
f 7//14 13//14 14//14
f 26//15 23//15 21//15
f 16//16 22//16 17//16
f 5//17 24//17 2//17
f 21//18 23//18 19//18
f 17//19 25//19 13//19
f 25//20 26//20 10//20
f 26//21 21//21 10//21
f 18//22 10//22 21//22
f 25//23 10//23 13//23
f 14//24 13//24 10//24
f 21//25 19//25 15//25
f 10//26 4//26 3//26
f 6//27 5//27 12//27
f 16//28 17//28 6//28
f 24//29 25//29 22//29
f 18//30 15//30 9//30
f 22//31 25//31 17//31
f 12//32 11//32 20//32
f 6//33 12//33 16//33
f 5//34 6//34 1//34
f 6//35 7//35 3//35
f 7//36 6//36 13//36
f 26//37 24//37 23//37
f 16//38 20//38 22//38
f 4//39 9//39 2//39
f 11//40 5//40 24//40
f 5//41 2//41 1//41
f 2//42 23//42 15//42
f 19//42 15//42 23//42
f 23//43 2//43 24//43
f 24//44 20//44 11//44
f 3//45 2//45 1//45
f 24//46 26//46 25//46
f 4//47 10//47 9//47
f 6//48 7//48 1//48
f 7//49 3//49 1//49
f 2//50 1//50 24//50
f 24//17 1//17 5//17
f 15//43 2//43 24//43
f 15//51 24//51 19//51
f 19//52 24//52 23//52
f 25//53 26//53 17//53
f 26//54 13//54 17//54
f 26//55 10//55 13//55
f 26//56 18//56 10//56
f 21//57 18//57 26//57
