# Blender 4.0.0
# www.blender.org
o decimated_mesh
v 0.029827 0.017934 0.007495
v 0.029893 0.019181 0.009796
v 0.029871 0.019691 0.009796
v 0.029732 0.019747 0.007482
v 0.031664 0.021219 0.011462
v 0.038392 0.024573 0.011484
v 0.039980 0.024819 0.007494
v 0.031442 0.020292 0.011581
v 0.031249 0.018973 0.011329
v 0.033203 0.021393 0.013101
v 0.035071 0.022994 0.013140
v 0.040832 0.024769 0.007514
v 0.040414 0.003747 0.007502
v 0.043461 -0.000287 0.008817
v 0.042817 0.000970 0.009921
v 0.033155 0.020031 0.013045
v 0.035730 0.021526 0.013497
v 0.040371 0.024746 0.010079
v 0.041612 0.024123 0.007479
v 0.044645 0.000853 0.011355
v 0.037143 0.023001 0.013108
v 0.037935 0.021936 0.013076
v 0.039918 0.024025 0.011184
v 0.041632 0.022682 0.009631
v 0.044533 -0.000785 0.007482
v 0.044410 -0.000931 0.008802
v 0.044603 -0.000733 0.010132
v 0.046771 0.000906 0.011384
v 0.048296 0.002497 0.007501
v 0.046806 0.008058 0.008369
v 0.046408 -0.000766 0.008358
v 0.045514 -0.000785 0.010060
v 0.046780 0.002992 0.011310
v 0.048529 0.002282 0.007885
v 0.046510 -0.000633 0.007482
v 0.048582 0.001014 0.009860
v 0.048480 0.000899 0.007575
v 0.048598 0.000832 0.008802
vn 0.9969 0.0520 -0.0586
vn 0.5659 0.1894 0.8024
vn 0.6428 0.0244 0.7656
vn -0.5791 0.6637 0.4735
vn 0.7646 0.3494 0.5416
vn 0.8825 0.2724 -0.3834
vn -0.5755 -0.4245 0.6990
vn 0.0759 -0.9870 -0.1417
vn -0.7506 -0.0316 0.6599
vn 0.6360 0.7621 0.1210
vn 0.4591 0.3160 0.8303
vn 0.0141 0.2419 0.9702
vn 0.1692 0.0960 0.9809
vn -0.7005 -0.6352 -0.3254
vn 0.3424 0.5299 0.7759
vn 0.3710 0.7006 0.6095
vn 0.8428 0.4508 0.2941
vn -0.0110 -0.1077 0.9941
vn -0.5484 -0.8118 0.2007
vn -0.6665 -0.6548 0.3565
vn 0.0084 0.7154 0.6987
vn -0.4426 0.8885 -0.1214
vn -0.1611 0.1640 0.9732
vn 0.7584 0.2496 0.6020
vn 0.9290 0.3114 0.2000
vn 0.0902 -0.9953 0.0366
vn -0.5577 -0.8177 -0.1427
vn 0.5013 -0.8270 0.2545
vn 0.4624 -0.7337 0.4979
vn -0.7666 0.2585 0.5878
vn -0.7741 -0.5472 0.3183
vn -0.1528 -0.0353 0.9876
vn 0.0276 -0.6109 0.7912
vn -0.6534 -0.0484 0.7555
vn 0.9048 0.2935 0.3087
vn -0.0044 0.0065 1.0000
vn 0.0279 0.0880 -0.9957
vn 0.0059 -0.0087 0.9999
vn 0.0007 0.0012 1.0000
vn 0.0764 -0.0375 -0.9964
vn 0.0007 -0.0065 1.0000
vn -0.0006 -0.0050 1.0000
vn 0.0003 0.0007 1.0000
vn 0.6145 -0.7875 -0.0484
vn 0.5997 -0.7938 -0.1008
vn -0.6786 0.7322 0.0587
vn 0.9406 0.2947 -0.1686
vn 0.5632 -0.8129 0.1482
vn 0.1874 -0.0003 0.9823
vn 0.2632 0.0330 0.9642
vn -0.5544 -0.4990 0.6660
vn 0.0586 -0.9928 -0.1045
vn -0.7476 -0.0171 0.6640
vn 0.9978 0.0425 -0.0514
vn -0.8013 -0.5979 0.0226
vn -0.7919 -0.5783 0.1964
vn 0.9953 -0.0135 -0.0960
vn -0.0909 -0.1414 0.9858
vn -0.4405 0.8903 -0.1154
vn -0.0606 0.9975 0.0374
vn 0.0586 0.9981 0.0194
vn 0.8709 0.0779 -0.4852
vn 0.7501 0.2484 0.6130
vn -0.0441 -0.9872 0.1536
vn -0.4457 0.8942 -0.0412
vn 0.9510 0.2712 0.1487
vn 0.9987 0.0513 0.0062
vn -0.7182 0.2545 0.6476
vn 0.0046 -0.6187 0.7856
vn -0.6506 -0.0081 0.7594
vn -0.5004 -0.3688 0.7833
vn -0.6870 -0.4838 0.5422
vn 0.9974 0.0425 -0.0589
vn -0.4430 0.8893 -0.1138
vn -0.4402 0.8898 -0.1204
vn 0.0046 -0.0117 0.9999
vn 0.0003 0.0002 1.0000
vn 0.0002 0.0001 1.0000
vn 0.0101 0.0073 0.9999
vn 0.9970 0.0520 -0.0565
vn -0.0081 -0.0015 1.0000
vn 0.6136 -0.7831 -0.1015
vn 0.5956 -0.8015 -0.0527
vn 0.0304 0.0232 0.9993
vn 0.0043 -0.6108 0.7918
vn 0.0256 -0.6281 0.7777
s 0
f 1//1 4//1 3//1
f 22//2 33//2 23//2
f 36//3 33//3 28//3
f 5//4 10//4 11//4
f 23//5 24//5 18//5
f 19//6 34//6 29//6
f 15//7 20//7 9//7
f 31//8 25//8 35//8
f 9//9 3//9 2//9
f 12//10 18//10 19//10
f 23//11 21//11 22//11
f 11//12 17//12 21//12
f 17//13 22//13 21//13
f 13//14 25//14 14//14
f 6//15 21//15 23//15
f 6//16 23//16 18//16
f 18//17 24//17 19//17
f 20//18 28//18 17//18
f 14//19 26//19 27//19
f 14//20 27//20 15//20
f 21//21 6//21 11//21
f 5//22 6//22 7//22
f 17//23 11//23 10//23
f 36//24 24//24 33//24
f 24//25 30//25 19//25
f 32//26 26//26 31//26
f 25//27 26//27 14//27
f 32//28 31//28 36//28
f 32//29 36//29 28//29
f 8//30 5//30 3//30
f 2//31 1//31 15//31
f 10//32 16//32 17//32
f 32//33 20//33 27//33
f 16//34 8//34 9//34
f 30//35 24//35 36//35
f 4//36 1//36 7//36
f 7//37 12//37 19//37
f 1//38 19//38 7//38
f 19//39 1//39 29//39
f 37//40 35//40 29//40
f 29//41 25//41 35//41
f 25//42 29//42 13//42
f 13//43 29//43 1//43
f 35//44 37//44 31//44
f 37//45 38//45 31//45
f 5//46 4//46 3//46
f 34//47 19//47 30//47
f 31//48 38//48 36//48
f 28//49 22//49 17//49
f 22//50 28//50 33//50
f 15//51 27//51 20//51
f 31//52 26//52 25//52
f 9//53 8//53 3//53
f 3//54 2//54 1//54
f 14//55 1//55 13//55
f 15//56 1//56 14//56
f 38//57 37//57 34//57
f 16//58 20//58 17//58
f 7//59 4//59 5//59
f 6//60 18//60 7//60
f 18//61 12//61 7//61
f 37//62 29//62 34//62
f 23//63 33//63 24//63
f 32//64 27//64 26//64
f 6//65 5//65 11//65
f 34//66 30//66 36//66
f 38//67 34//67 36//67
f 8//68 10//68 5//68
f 32//69 28//69 20//69
f 16//70 10//70 8//70
f 9//71 20//71 16//71
f 2//72 15//72 9//72
f 2//73 4//73 3//73
f 5//74 6//74 4//74
f 6//75 7//75 4//75
f 7//76 4//76 19//76
f 19//77 4//77 35//77
f 35//78 4//78 25//78
f 25//79 4//79 1//79
f 1//80 4//80 2//80
f 29//81 19//81 35//81
f 37//82 38//82 35//82
f 38//83 31//83 35//83
f 13//84 25//84 1//84
f 27//85 28//85 20//85
f 32//86 28//86 27//86
