# Blender 4.0.0
# www.blender.org
o decimated_mesh
v -0.039114 0.037082 0.020544
v -0.014837 0.026207 0.021309
v -0.039382 0.037082 0.019570
v -0.040800 0.037082 0.021741
v -0.013041 0.025187 0.021957
v -0.013041 0.025187 0.020992
v -0.054026 0.037082 0.017445
v -0.050245 0.037086 0.024799
v -0.040938 0.025187 0.018636
v -0.050873 0.033640 0.017462
v -0.030856 0.025187 0.025447
v -0.042980 0.026970 0.017969
v -0.054313 0.035194 0.017485
v -0.045037 0.027707 0.017932
v -0.055095 0.035294 0.017691
v -0.052609 0.037081 0.024904
v -0.042486 0.025231 0.019736
v -0.050102 0.031090 0.017936
v -0.054845 0.034628 0.018828
v -0.056820 0.037085 0.018433
v -0.056090 0.037082 0.017478
v -0.054413 0.037079 0.024596
v -0.037800 0.025192 0.025796
v -0.054600 0.034899 0.022921
v -0.053217 0.035541 0.024674
v -0.042020 0.025191 0.023375
v -0.055247 0.035885 0.023276
v -0.040854 0.025202 0.024923
v -0.056203 0.037074 0.023039
v -0.048424 0.030992 0.024669
vn 0.2482 0.5931 0.7659
vn 0.4941 0.8694 -0.0000
vn -0.2818 -0.3857 -0.8785
vn 0.4092 0.9055 -0.1127
vn 0.3420 0.8068 0.4818
vn 0.3929 0.8205 -0.4152
vn -0.0163 -0.0187 -0.9997
vn 0.1031 0.0465 -0.9936
vn 0.0811 -0.2667 -0.9604
vn 0.1408 0.1958 -0.9705
vn -0.5680 -0.7171 0.4039
vn -0.2629 -0.3036 0.9158
vn -0.1672 -0.5079 -0.8450
vn -0.2782 -0.2648 -0.9233
vn -0.5350 -0.5643 0.6288
vn -0.7827 -0.5878 0.2047
vn -0.5234 -0.7833 -0.3353
vn -0.7072 -0.4579 -0.5387
vn -0.2359 -0.2496 0.9392
vn -0.0165 -0.0952 -0.9953
vn -0.6138 -0.3519 0.7067
vn -0.7834 -0.6153 0.0877
vn -0.1348 -0.0939 0.9864
vn 0.0498 0.1351 0.9896
vn 0.0020 1.0000 0.0021
vn -0.0029 1.0000 0.0003
vn -0.0011 1.0000 0.0004
vn -0.0020 1.0000 0.0005
vn 0.0002 1.0000 -0.0006
vn -0.0000 1.0000 -0.0000
vn 0.0001 1.0000 -0.0030
vn -0.2169 -0.3238 -0.9209
vn -0.0152 -0.0189 -0.9997
vn -0.0000 -1.0000 -0.0000
vn 0.0007 1.0000 -0.0010
vn -0.0070 -0.9999 0.0128
vn 0.0001 1.0000 -0.0008
vn -0.0335 -0.9994 -0.0069
vn 0.1146 0.1001 -0.9884
vn -0.6060 -0.7372 -0.2989
vn 0.1805 0.3442 0.9214
vn 0.3793 0.8691 0.3174
vn -0.7461 -0.6328 -0.2071
vn -0.5585 -0.7116 0.4262
vn -0.6026 -0.7968 -0.0444
vn -0.5285 -0.5727 0.6267
vn -0.0754 -0.1523 -0.9855
vn -0.5645 -0.4021 0.7209
vn -0.3848 -0.7686 -0.5111
vn -0.7978 -0.5936 0.1055
vn -0.1678 -0.0803 0.9825
vn -0.6110 -0.7885 0.0695
vn -0.6070 -0.7898 0.0886
vn 0.0436 0.1287 0.9907
vn -0.0017 1.0000 0.0017
vn -0.0019 1.0000 0.0047
vn 0.0008 1.0000 0.0011
vn 0.0003 1.0000 -0.0001
vn 0.0002 1.0000 -0.0003
vn -0.0054 1.0000 0.0031
vn 0.0004 1.0000 -0.0028
vn 0.0007 1.0000 -0.0018
vn 0.0005 1.0000 -0.0007
vn 0.0002 1.0000 -0.0011
vn -0.6070 -0.7917 0.0690
vn -0.6105 -0.7870 0.0887
vn -0.5382 -0.5753 0.6159
vn -0.5318 -0.5610 0.6344
s 0
f 4//1 8//1 5//1
f 6//2 2//2 5//2
f 13//3 18//3 15//3
f 1//4 2//4 3//4
f 1//5 4//5 5//5
f 2//6 6//6 3//6
f 7//7 13//7 21//7
f 10//8 6//8 12//8
f 9//9 12//9 6//9
f 6//10 7//10 3//10
f 30//11 24//11 26//11
f 28//12 23//12 30//12
f 9//13 14//13 12//13
f 13//14 15//14 21//14
f 25//15 24//15 30//15
f 27//16 29//16 24//16
f 14//17 17//17 18//17
f 15//18 20//18 21//18
f 23//19 25//19 30//19
f 12//20 14//20 10//20
f 22//21 29//21 27//21
f 20//22 19//22 24//22
f 16//23 25//23 23//23
f 23//24 11//24 8//24
f 20//25 29//25 7//25
f 7//26 29//26 22//26
f 22//27 16//27 7//27
f 16//28 8//28 7//28
f 8//29 4//29 7//29
f 4//30 1//30 3//30
f 7//30 4//30 3//30
f 7//31 21//31 20//31
f 13//32 14//32 18//32
f 7//33 10//33 13//33
f 5//34 11//34 6//34
f 11//35 9//35 23//35
f 6//34 11//34 9//34
f 23//36 28//36 26//36
f 9//37 26//37 23//37
f 26//38 17//38 9//38
f 10//39 7//39 6//39
f 15//40 18//40 19//40
f 11//41 5//41 8//41
f 1//42 5//42 2//42
f 15//43 19//43 20//43
f 26//44 28//44 30//44
f 17//45 19//45 18//45
f 25//46 27//46 24//46
f 14//47 13//47 10//47
f 25//48 22//48 27//48
f 17//49 14//49 9//49
f 24//50 29//50 20//50
f 16//51 22//51 25//51
f 26//52 24//52 17//52
f 19//53 17//53 24//53
f 16//54 23//54 8//54
f 20//55 22//55 8//55
f 22//56 16//56 8//56
f 4//57 1//57 8//57
f 1//58 3//58 8//58
f 3//59 20//59 8//59
f 29//60 22//60 20//60
f 3//61 21//61 20//61
f 26//62 23//62 11//62
f 26//63 11//63 9//63
f 7//64 21//64 3//64
f 17//65 26//65 19//65
f 26//66 24//66 19//66
f 30//67 27//67 24//67
f 30//68 25//68 27//68
