# Blender 4.0.0
# www.blender.org
o decimated_mesh
v -0.055403 0.053680 0.019822
v -0.055640 0.053733 0.018790
v -0.039244 0.037130 0.019599
v -0.040802 0.037083 0.021741
v -0.039142 0.037101 0.020621
v -0.063584 0.053783 0.023394
v -0.066795 0.053777 0.015757
v -0.050428 0.037083 0.024843
v -0.067872 0.053785 0.015891
v -0.055801 0.037084 0.017351
v -0.066706 0.053790 0.023191
v -0.066888 0.050776 0.016119
v -0.053982 0.037084 0.024770
v -0.063198 0.046242 0.016380
v -0.056719 0.037110 0.017916
v -0.067067 0.050610 0.017144
v -0.068514 0.053784 0.016525
v -0.067842 0.053783 0.021989
v -0.066450 0.051375 0.022935
v -0.068393 0.053783 0.020480
v -0.066991 0.050809 0.021461
v -0.056262 0.037099 0.023050
vn -0.1240 -0.1151 -0.9856
vn 0.2574 0.2082 -0.9436
vn -0.5560 -0.3909 0.7335
vn -0.0083 -1.0000 0.0020
vn -0.0205 0.0704 0.9973
vn 0.2918 0.3084 0.9054
vn -0.9084 -0.4167 0.0352
vn 0.3677 0.4194 0.8300
vn 0.7142 0.6980 -0.0513
vn -0.8439 -0.3183 0.4319
vn -0.7659 -0.6002 -0.2306
vn -0.6151 -0.5340 -0.5801
vn -0.6762 -0.2730 -0.6843
vn -0.8699 -0.4400 -0.2228
vn -0.8921 -0.3132 0.3255
vn 0.1345 -0.0061 -0.9909
vn -0.7235 -0.5126 0.4623
vn 0.0007 1.0000 -0.0011
vn -0.7180 -0.1480 0.6802
vn -0.2896 -0.1309 0.9481
vn -0.0000 1.0000 0.0001
vn 0.0003 1.0000 -0.0000
vn -0.0281 -0.9996 0.0004
vn -0.0053 0.9998 0.0182
vn 0.0078 0.9996 0.0277
vn -0.0648 0.0449 0.9969
vn -0.9116 -0.4102 0.0278
vn -0.7895 -0.6098 0.0690
vn -0.7941 -0.6063 0.0419
vn 0.4790 0.5044 0.7184
vn 0.7089 0.6938 -0.1270
vn -0.4742 -0.4625 -0.7492
vn -0.0741 -0.1172 -0.9903
vn 0.0708 -0.0485 -0.9963
vn 0.0025 1.0000 -0.0041
vn -0.0100 0.9999 0.0036
vn 0.0319 0.9985 0.0442
vn 0.0047 1.0000 -0.0028
vn 0.0084 0.9999 0.0099
vn 0.0039 1.0000 -0.0000
vn 0.0023 1.0000 -0.0012
vn -0.0019 1.0000 -0.0005
vn -0.0045 1.0000 0.0002
vn 0.0001 1.0000 -0.0000
vn 0.0002 1.0000 0.0007
vn 0.0048 1.0000 -0.0026
vn 0.0061 0.9999 -0.0081
vn -0.0067 0.9996 0.0292
vn -0.0032 0.9999 0.0114
s 0
f 7//1 12//1 9//1
f 2//2 3//2 7//2
f 13//3 19//3 22//3
f 10//4 13//4 22//4
f 8//5 6//5 13//5
f 8//6 4//6 6//6
f 20//7 16//7 21//7
f 1//8 6//8 4//8
f 3//9 1//9 5//9
f 21//10 19//10 18//10
f 12//11 15//11 16//11
f 14//12 15//12 12//12
f 12//13 17//13 9//13
f 16//14 17//14 12//14
f 18//15 20//15 21//15
f 10//16 7//16 3//16
f 21//17 22//17 19//17
f 7//18 20//18 6//18
f 19//19 11//19 18//19
f 19//20 13//20 11//20
f 4//21 10//21 8//21
f 10//22 13//22 8//22
f 22//23 15//23 10//23
f 10//24 4//24 3//24
f 5//25 3//25 4//25
f 6//26 11//26 13//26
f 20//27 17//27 16//27
f 22//28 21//28 15//28
f 21//29 16//29 15//29
f 4//30 5//30 1//30
f 3//31 2//31 1//31
f 15//32 14//32 10//32
f 14//33 12//33 7//33
f 7//34 10//34 14//34
f 11//35 6//35 20//35
f 18//36 11//36 20//36
f 6//37 1//37 2//37
f 2//38 7//38 6//38
f 7//39 9//39 17//39
f 17//40 20//40 7//40
f 6//41 9//41 11//41
f 9//42 17//42 11//42
f 17//43 20//43 11//43
f 10//44 13//44 4//44
f 4//45 13//45 8//45
f 2//46 9//46 6//46
f 2//47 7//47 9//47
f 3//48 10//48 5//48
f 5//49 10//49 4//49
