# Blender 4.0.0
# www.blender.org
o decimated_mesh
v -0.048341 0.002180 0.007394
v -0.047813 0.000397 0.007386
v -0.046722 0.006458 0.006170
v -0.047072 0.002365 0.005937
v -0.046922 0.000583 0.006068
v -0.046523 -0.000543 0.006699
v -0.043436 0.016375 0.004539
v -0.045090 -0.000582 0.006245
v -0.040352 0.022972 0.002516
v -0.046006 -0.000743 0.007385
v -0.041714 0.024479 0.006308
v -0.041692 0.022790 0.004635
v -0.038739 0.022231 0.000922
v -0.044483 -0.000790 0.007378
v -0.041603 0.024137 0.007385
v -0.040848 0.024699 0.007385
v -0.040019 0.024548 0.002945
v -0.038723 0.017219 0.001365
v -0.038723 0.011677 0.002756
v -0.038724 0.023204 0.001274
v -0.040431 0.004238 0.006299
v -0.038723 0.007828 0.004837
v -0.039801 0.024718 0.007385
v -0.038702 0.005924 0.007389
v -0.038723 0.023347 0.003196
vn -0.7423 -0.1109 -0.6608
vn -0.7564 0.1014 -0.6462
vn -0.6659 -0.5305 -0.5246
vn -0.2674 -0.5418 -0.7968
vn -0.8244 0.3929 -0.4075
vn -0.0180 0.9991 -0.0373
vn -0.6777 0.0931 -0.7294
vn -0.5274 -0.8357 0.1533
vn 0.5519 -0.5262 -0.6470
vn -0.9045 0.2419 -0.3512
vn -0.0943 -0.9725 -0.2129
vn -0.9389 0.2882 0.1884
vn 0.7441 -0.6404 -0.1900
vn 0.3978 -0.4363 -0.8071
vn -0.6022 0.3259 -0.7287
vn -0.5697 0.7645 0.3017
vn 0.6422 -0.6155 -0.4568
vn 0.6796 0.7310 -0.0612
vn 0.6989 0.7132 -0.0534
vn 0.7568 -0.5210 -0.3948
vn 0.9712 0.0568 0.2314
vn -0.0003 -0.0006 1.0000
vn 0.0004 0.0003 1.0000
vn 0.0050 0.0072 1.0000
vn 0.0011 -0.0039 1.0000
vn 0.0017 -0.0031 1.0000
vn -0.0005 0.0001 1.0000
vn -0.1688 0.9835 -0.0650
vn -0.7906 -0.2318 -0.5668
vn -0.6864 0.1063 -0.7194
vn -0.6659 0.0990 -0.7394
vn -0.0622 -0.2430 -0.9680
vn -0.0612 -0.2437 -0.9679
vn -0.8309 0.2335 -0.5051
vn -0.8164 0.3062 -0.4897
vn -0.9206 0.2594 -0.2919
vn -0.9278 0.2563 -0.2709
vn -0.0312 -0.9859 -0.1641
vn -0.6072 0.2784 -0.7442
vn 1.0000 -0.0017 -0.0067
vn -1.0000 -0.0024 0.0081
vn -0.9999 0.0155 -0.0007
vn -1.0000 -0.0007 0.0022
vn 0.9999 -0.0069 -0.0130
vn -0.3394 -0.0972 -0.9356
vn -0.3606 -0.0832 -0.9290
vn 0.0004 0.0002 1.0000
vn -0.0003 0.0005 1.0000
vn -0.0013 0.0008 1.0000
vn -0.9249 0.2614 -0.2760
vn -0.9156 0.2536 -0.3119
vn -0.0026 -0.0050 1.0000
vn 0.0012 -0.0019 1.0000
vn 0.0046 -0.0056 1.0000
vn -1.0000 -0.0001 0.0033
vn -1.0000 -0.0011 0.0005
vn -0.7166 0.1245 -0.6863
vn -0.6763 0.0993 -0.7299
vn -0.6759 0.0991 -0.7303
vn -0.9992 0.0005 0.0407
s 0
f 1//1 4//1 5//1
f 1//2 3//2 4//2
f 2//3 5//3 6//3
f 5//4 8//4 6//4
f 12//5 11//5 17//5
f 23//6 17//6 16//6
f 7//7 9//7 13//7
f 6//8 10//8 2//8
f 21//9 8//9 22//9
f 7//10 3//10 1//10
f 10//11 6//11 8//11
f 11//12 1//12 15//12
f 21//13 24//13 14//13
f 8//14 19//14 22//14
f 9//15 17//15 20//15
f 11//16 15//16 16//16
f 8//17 21//17 14//17
f 17//18 23//18 20//18
f 20//19 23//19 25//19
f 21//20 22//20 24//20
f 23//21 24//21 25//21
f 16//22 15//22 23//22
f 15//23 1//23 24//23
f 14//24 2//24 10//24
f 1//25 2//25 14//25
f 14//26 24//26 1//26
f 24//27 23//27 15//27
f 16//28 17//28 11//28
f 1//29 5//29 2//29
f 13//30 4//30 7//30
f 4//31 3//31 7//31
f 18//32 19//32 5//32
f 19//33 8//33 5//33
f 9//34 7//34 12//34
f 12//35 17//35 9//35
f 1//36 11//36 7//36
f 11//37 12//37 7//37
f 14//38 10//38 8//38
f 9//39 20//39 13//39
f 19//40 18//40 24//40
f 18//41 25//41 13//41
f 25//42 20//42 13//42
f 25//43 18//43 24//43
f 22//44 19//44 24//44
f 18//45 5//45 4//45
f 4//46 13//46 18//46
f 24//47 23//47 1//47
f 23//48 16//48 1//48
f 16//49 15//49 1//49
f 11//50 12//50 1//50
f 12//51 7//51 1//51
f 2//52 10//52 1//52
f 10//53 24//53 1//53
f 10//54 14//54 24//54
f 18//55 24//55 20//55
f 20//56 24//56 25//56
f 9//57 3//57 7//57
f 9//58 4//58 3//58
f 9//59 13//59 4//59
f 13//60 18//60 20//60
