# Blender 4.0.0
# www.blender.org
o decimated_mesh
v 0.000001 0.089680 0.013635
v 0.000001 0.089680 0.012008
v -0.005275 0.089684 0.013331
v -0.005849 0.089680 0.007743
v -0.000003 0.094669 0.007081
v -0.004997 0.093003 0.012978
v -0.006807 0.089732 0.007741
v -0.001522 0.094560 0.006272
v -0.002109 0.094628 0.012937
v -0.003789 0.094919 0.011787
v -0.006812 0.089709 0.011637
v -0.003448 0.094604 0.006283
v -0.000033 0.096302 0.007721
v 0.000001 0.094564 0.013064
v -0.001478 0.096303 0.011362
v -0.004153 0.095073 0.010148
v -0.005795 0.093152 0.010446
v -0.006838 0.090257 0.010470
v -0.005555 0.093480 0.008865
v -0.005323 0.093237 0.007456
v 0.000001 0.096308 0.011570
vn -0.0192 -0.9998 0.0026
vn -1.0000 -0.0001 0.0006
vn 0.4606 -0.6236 -0.6317
vn -0.9388 0.3361 -0.0754
vn 0.4150 -0.5795 -0.7014
vn -0.3530 0.6443 0.6784
vn -0.9060 0.3662 -0.2124
vn -0.0135 -0.2782 -0.9604
vn 0.4235 0.3374 -0.8407
vn -0.3096 0.7107 0.6317
vn 0.0101 0.6344 -0.7730
vn -0.7333 0.1325 0.6669
vn -0.4793 0.8575 0.1871
vn -0.3766 0.9089 -0.1789
vn -0.9252 0.3349 0.1783
vn -0.6208 0.2012 -0.7577
vn -0.0559 0.1244 0.9907
vn -0.7547 0.6161 0.2256
vn -0.0537 -0.9985 -0.0059
vn 0.0005 1.0000 -0.0007
vn 0.0007 1.0000 -0.0000
vn -0.0034 1.0000 -0.0015
vn 0.9997 0.0218 -0.0088
vn -1.0000 0.0005 0.0006
vn 1.0000 -0.0000 -0.0000
vn -0.9987 -0.0515 -0.0015
vn -0.9385 0.3376 -0.0721
vn -0.6457 0.7351 -0.2069
vn -0.6637 0.7111 -0.2320
vn -0.0119 -0.2789 -0.9602
vn -0.3593 0.9222 -0.1428
vn -0.1019 0.7016 0.7052
vn -0.0571 0.1104 0.9922
vn -0.0533 0.1160 0.9918
vn -0.0260 0.6502 0.7593
vn -0.7584 0.6515 0.0201
vn -0.7128 0.6502 0.2630
vn -0.8820 0.3640 0.2993
vn 0.0008 1.0000 -0.0008
vn -0.0000 1.0000 -0.0000
vn -1.0000 -0.0000 -0.0000
vn -1.0000 0.0001 0.0008
vn -0.7313 0.6274 0.2674
vn -0.7238 0.6532 0.2222
s 0
f 3//1 11//1 4//1
f 2//2 14//2 5//2
f 2//3 4//3 5//3
f 18//4 19//4 7//4
f 4//5 8//5 5//5
f 6//6 9//6 10//6
f 19//7 20//7 7//7
f 12//8 4//8 7//8
f 5//9 8//9 13//9
f 9//10 15//10 10//10
f 13//11 8//11 12//11
f 11//12 3//12 6//12
f 10//13 15//13 16//13
f 13//14 12//14 16//14
f 11//15 17//15 18//15
f 7//16 20//16 12//16
f 14//17 9//17 6//17
f 16//18 6//18 10//18
f 11//19 7//19 4//19
f 4//20 3//20 2//20
f 2//21 3//21 1//21
f 13//22 15//22 21//22
f 13//23 21//23 5//23
f 5//24 14//24 21//24
f 14//25 1//25 2//25
f 18//26 7//26 11//26
f 18//27 17//27 19//27
f 16//28 12//28 19//28
f 12//29 20//29 19//29
f 12//30 8//30 4//30
f 16//31 15//31 13//31
f 15//32 9//32 21//32
f 6//33 3//33 1//33
f 1//34 14//34 6//34
f 14//35 21//35 9//35
f 17//36 16//36 19//36
f 16//37 17//37 6//37
f 17//38 11//38 6//38
f 3//39 1//39 4//39
f 4//40 1//40 2//40
f 2//41 14//41 21//41
f 5//42 2//42 21//42
f 10//43 17//43 6//43
f 16//44 17//44 10//44
