# Blender 4.0.0
# www.blender.org
o decimated_mesh
v 0.001255 0.020292 -0.029704
v 0.001267 0.021884 -0.029672
v 0.002513 0.020292 -0.029793
v 0.005048 0.022950 -0.030199
v 0.004181 0.021962 -0.029941
v 0.005098 0.021378 -0.030341
v 0.001237 0.022883 -0.030330
v 0.006978 0.024755 -0.037212
v 0.006996 0.022147 -0.032066
v 0.006177 0.024660 -0.037229
v 0.006949 0.023033 -0.032005
v 0.005017 0.008449 -0.037227
v 0.001302 0.003421 -0.037206
v 0.003155 0.004510 -0.037221
v 0.007734 0.021783 -0.035284
v 0.001255 0.008514 -0.037229
v 0.007567 0.022844 -0.037228
v 0.006654 0.015278 -0.037219
vn 0.0920 -0.0036 0.9957
vn 0.3599 -0.0730 0.9301
vn 0.0642 -0.4053 0.9119
vn -0.8167 0.2490 -0.5206
vn -0.1189 0.9787 0.1671
vn 0.2499 0.9189 0.3052
vn -0.9984 0.0067 0.0554
vn -0.0386 0.5495 0.8346
vn 0.6892 -0.0130 0.7244
vn 0.0857 0.1805 0.9798
vn 0.2448 -0.4047 0.8811
vn 0.0702 -0.0208 0.9973
vn -0.7042 0.3371 -0.6248
vn -0.7098 0.3346 -0.6199
vn 0.2829 -0.1995 0.9382
vn 0.9528 0.2934 0.0781
vn 0.9444 0.3106 0.1079
vn -0.0255 0.9698 0.2425
vn -0.9441 0.2266 -0.2394
vn -0.9429 0.2287 -0.2423
vn 0.9817 -0.1187 -0.1491
vn -1.0000 -0.0049 0.0076
vn -0.9999 -0.0091 0.0143
vn 0.0195 0.0146 -0.9997
vn -0.0010 -0.0011 -1.0000
vn 0.0005 0.0010 -1.0000
vn 0.0005 -0.0018 -1.0000
vn -0.0052 -0.0045 -1.0000
vn 0.0029 -0.0009 -1.0000
vn 0.9749 0.0367 0.2196
vn 0.6817 -0.0448 0.7303
vn 0.3445 -0.3883 0.8547
vn -0.7043 0.3361 -0.6253
vn -0.7116 0.3354 -0.6174
vn -0.9432 0.2275 -0.2422
vn 0.0003 -0.0001 -1.0000
vn 0.0005 -0.0002 -1.0000
vn -0.9452 0.2269 -0.2349
vn 0.0197 -0.0036 -0.9998
s 0
f 3//1 5//1 2//1
f 5//2 6//2 4//2
f 1//3 13//3 3//3
f 16//4 7//4 10//4
f 7//5 8//5 10//5
f 4//6 11//6 8//6
f 1//7 2//7 7//7
f 4//8 7//8 2//8
f 4//9 9//9 11//9
f 5//10 4//10 2//10
f 3//11 13//11 14//11
f 1//12 3//12 2//12
f 12//13 6//13 9//13
f 6//14 12//14 14//14
f 5//15 3//15 6//15
f 17//16 8//16 15//16
f 8//17 11//17 15//17
f 8//18 7//18 4//18
f 9//19 18//19 12//19
f 15//20 18//20 9//20
f 15//21 18//21 17//21
f 7//22 16//22 1//22
f 1//23 16//23 13//23
f 8//24 17//24 10//24
f 17//25 18//25 10//25
f 18//26 12//26 16//26
f 12//27 14//27 16//27
f 13//28 16//28 14//28
f 16//29 10//29 18//29
f 9//30 15//30 11//30
f 4//31 6//31 9//31
f 14//32 6//32 3//32
f 14//33 6//33 9//33
f 14//34 9//34 12//34
f 12//35 9//35 15//35
f 17//36 16//36 10//36
f 17//37 12//37 16//37
f 12//38 15//38 18//38
f 18//39 12//39 17//39
