# Blender 4.0.0
# www.blender.org
o decimated_mesh
v 0.000004 0.167050 0.010354
v -0.000174 0.166403 0.012946
v -0.006933 0.166227 0.011403
v 0.006749 0.166278 0.011331
v 0.000440 0.166597 0.006180
v -0.006941 0.165738 0.007134
v -0.006945 0.164737 0.013442
v 0.020132 0.163189 0.013405
v 0.015501 0.164549 0.012977
v 0.018892 0.164671 0.011414
v -0.003406 0.166279 0.006287
v -0.006941 0.165073 0.006036
v 0.003074 0.163750 0.013782
v 0.020120 0.164355 0.011575
v 0.000959 0.165227 0.005784
v -0.006941 0.163733 0.006007
v 0.020132 0.161058 0.013958
v 0.015381 0.164576 0.006202
v 0.017790 0.164569 0.008056
v 0.020132 0.161716 0.006101
v -0.006941 0.161843 0.013689
v 0.020132 0.158701 0.013558
v 0.020132 0.163869 0.007236
v 0.020132 0.163281 0.006132
v -0.006941 0.154314 0.009361
v 0.020132 0.152359 0.009493
v -0.006941 0.154314 0.010060
v 0.020132 0.152149 0.010278
v 0.020132 0.152873 0.011325
v -0.006941 0.155619 0.011186
vn 0.0523 0.4575 0.8877
vn 0.1212 0.9339 0.3363
vn -1.0000 0.0020 0.0005
vn -0.2473 0.8289 -0.5017
vn 0.1323 0.9769 -0.1680
vn -0.0323 0.0218 -0.9992
vn 1.0000 0.0001 -0.0000
vn 0.0410 0.3576 -0.9330
vn -0.0200 -0.3408 -0.9399
vn -0.1537 0.7981 0.5826
vn 0.0202 0.0201 -0.9996
vn 0.2275 0.8593 -0.4581
vn -0.0791 0.9684 0.2366
vn -0.0098 0.0033 0.9999
vn -0.0684 -0.9639 -0.2573
vn -0.0797 -0.9968 -0.0000
vn -0.0702 -0.8205 0.5673
vn -0.0700 -0.6518 0.7552
vn -0.0553 0.3559 -0.9329
vn -0.1293 0.9885 -0.0791
vn 0.0750 0.9662 0.2466
vn 0.0318 0.3356 0.9415
vn -0.0031 0.2970 0.9549
vn 0.0296 0.2513 0.9675
vn 0.1074 0.9147 0.3896
vn 0.1701 0.8826 0.4383
vn -0.0359 0.2648 -0.9636
vn 0.0408 0.2916 -0.9557
vn -0.0147 -0.1673 0.9858
vn 0.0369 0.1880 -0.9815
vn -1.0000 -0.0000 -0.0000
vn -1.0000 -0.0019 -0.0071
vn -1.0000 -0.0011 0.0019
vn -1.0000 -0.0000 0.0001
vn -1.0000 0.0001 -0.0000
vn -0.0054 -0.1192 -0.9929
vn 0.2498 0.9624 -0.1069
vn 0.2621 0.9581 -0.1153
vn 0.1944 0.8279 0.5261
vn 1.0000 -0.0000 -0.0000
vn 1.0000 -0.0000 -0.0002
vn 1.0000 -0.0017 0.0031
vn 1.0000 0.0040 0.0004
vn 1.0000 -0.0019 -0.0079
vn 0.0388 0.3728 -0.9271
vn 0.1255 0.9878 -0.0925
vn 0.1268 0.9875 -0.0941
vn 0.1313 0.9886 -0.0733
vn -0.0217 -0.3354 -0.9418
vn 0.1955 0.9483 -0.2501
vn -0.0254 0.0852 0.9960
vn -0.0850 0.9896 -0.1164
vn -0.1766 0.9779 -0.1118
vn 0.1262 0.9879 -0.0900
vn 0.1256 0.9876 -0.0942
vn -1.0000 0.0089 0.0008
vn 0.2484 0.9623 -0.1109
vn -1.0000 -0.0000 -0.0005
vn -1.0000 0.0008 -0.0005
vn -1.0000 -0.0004 -0.0000
vn -1.0000 -0.0007 0.0009
vn -1.0000 -0.0011 0.0027
vn -1.0000 -0.0002 -0.0005
vn 1.0000 0.0002 0.0001
vn 0.9999 0.0128 0.0015
vn 0.2612 0.9594 -0.1065
vn 1.0000 -0.0000 0.0001
vn 1.0000 -0.0000 -0.0001
vn 0.0426 0.3728 -0.9270
vn 0.0370 0.3576 -0.9331
s 0
f 8//1 9//1 2//1
f 10//2 4//2 9//2
f 3//3 16//3 21//3
f 6//4 11//4 12//4
f 19//5 18//5 5//5
f 12//6 15//6 16//6
f 29//7 28//7 26//7
f 22//8 29//8 30//8
f 25//9 20//9 26//9
f 2//10 3//10 7//10
f 20//11 15//11 24//11
f 18//12 23//12 24//12
f 3//13 2//13 1//13
f 21//14 17//14 13//14
f 25//15 26//15 28//15
f 25//16 28//16 27//16
f 27//17 28//17 29//17
f 27//18 29//18 30//18
f 12//19 11//19 5//19
f 11//20 3//20 1//20
f 2//21 4//21 1//21
f 8//22 2//22 13//22
f 7//23 13//23 2//23
f 13//24 17//24 8//24
f 2//25 9//25 4//25
f 9//26 14//26 10//26
f 15//27 12//27 5//27
f 5//28 18//28 15//28
f 21//29 22//29 17//29
f 18//30 24//30 15//30
f 30//31 21//31 16//31
f 21//32 7//32 3//32
f 3//33 6//33 16//33
f 6//31 12//31 16//31
f 16//34 25//34 30//34
f 25//35 27//35 30//35
f 20//36 16//36 15//36
f 23//37 19//37 14//37
f 19//38 10//38 14//38
f 14//39 9//39 8//39
f 26//40 20//40 22//40
f 29//40 26//40 22//40
f 23//41 20//41 24//41
f 23//42 14//42 20//42
f 20//43 14//43 17//43
f 14//44 8//44 17//44
f 17//40 22//40 20//40
f 22//45 30//45 21//45
f 19//46 5//46 4//46
f 1//47 4//47 5//47
f 4//48 10//48 19//48
f 25//49 16//49 20//49
f 23//50 18//50 19//50
f 13//51 7//51 21//51
f 1//52 5//52 11//52
f 11//53 6//53 3//53
f 4//54 19//54 1//54
f 19//55 5//55 1//55
f 6//56 7//56 3//56
f 10//57 23//57 19//57
f 16//58 7//58 12//58
f 7//59 6//59 12//59
f 25//60 27//60 7//60
f 27//61 30//61 7//61
f 30//62 21//62 7//62
f 16//63 25//63 7//63
f 17//64 23//64 8//64
f 23//65 14//65 8//65
f 14//66 23//66 10//66
f 17//67 22//67 23//67
f 22//40 29//40 23//40
f 29//40 28//40 23//40
f 28//68 26//68 23//68
f 26//68 20//68 23//68
f 29//69 30//69 21//69
f 29//70 21//70 22//70
