# Blender 4.0.0
# www.blender.org
o decimated_mesh
v 0.854576 0.637026 -0.145399
v 0.845627 0.750674 -0.340716
v 0.840692 0.762749 -0.313080
v 0.837259 0.761586 -0.290469
v 0.788808 0.752445 -0.275106
v 0.854792 0.042511 -0.145480
v 0.841453 0.766378 -0.372705
v 0.825903 0.774984 -0.356868
v 0.788824 0.763914 -0.291342
v 0.835714 0.627193 -0.145480
v 0.788849 0.715145 -0.242414
v 0.844442 0.748440 -0.415701
v 0.788819 0.041792 -0.145480
v 0.825223 0.773978 -0.380078
v 0.788856 0.777068 -0.366306
v 0.788819 0.223453 -0.145480
v 0.841454 0.727896 -0.434622
v 0.838017 0.761283 -0.429396
v 0.854814 0.626262 -0.418627
v 0.825020 0.724542 -0.445125
v 0.821959 0.750497 -0.437839
v 0.788819 0.763316 -0.430462
v 0.854943 0.072449 -0.419297
v 0.788818 0.044163 -0.356312
v 0.854781 0.046063 -0.396419
v 0.788762 0.722631 -0.446721
v 0.840498 0.058905 -0.412807
v 0.788819 0.750674 -0.438525
v 0.788819 0.069336 -0.381644
v 0.854464 0.054316 -0.413487
v 0.788819 0.053382 -0.375202
vn -0.3494 -0.0750 -0.9340
vn -0.2899 -0.8056 -0.5167
vn -0.0046 0.0005 1.0000
vn 0.7705 0.0010 -0.6375
vn 0.5397 -0.0086 -0.8418
vn -0.8574 0.0996 0.5049
vn 0.5282 0.8471 0.0583
vn -0.3109 0.6263 0.7149
vn 1.0000 0.0007 -0.0004
vn 0.0214 0.2804 -0.9596
vn -0.3247 0.6170 0.7168
vn 0.9735 0.2144 0.0801
vn 0.2324 0.8773 0.4199
vn 0.5024 0.1840 -0.8448
vn 0.9483 0.3158 0.0313
vn 0.9360 0.3145 0.1583
vn 0.0459 -0.0374 -0.9982
vn 0.0203 0.5376 -0.8429
vn -0.5359 -0.3161 -0.7829
vn 0.0109 -0.9999 -0.0112
vn 0.2854 0.2901 -0.9134
vn 0.9256 0.3680 -0.0892
vn 0.0114 0.9849 0.1728
vn 0.0437 0.9807 0.1904
vn 0.4611 0.8809 -0.1071
vn 0.4427 0.8952 -0.0518
vn -0.0000 -0.0000 -1.0000
vn 0.0004 0.0001 -1.0000
vn 0.0288 0.8164 0.5767
vn 0.0613 0.7609 0.6460
vn 1.0000 -0.0019 0.0001
vn 1.0000 -0.0013 -0.0003
vn -1.0000 0.0038 -0.0059
vn 1.0000 0.0001 -0.0001
vn 1.0000 -0.0000 -0.0000
vn 1.0000 -0.0000 0.0001
vn 1.0000 -0.0001 -0.0004
vn -1.0000 0.0014 -0.0000
vn 0.0279 0.2732 -0.9615
vn 0.9410 0.1447 -0.3057
vn 0.9648 0.0878 -0.2477
vn -0.1440 -0.2985 -0.9435
vn 0.0037 0.9778 -0.2096
vn 0.0452 0.9702 -0.2380
vn 0.0676 0.9967 -0.0452
vn 0.2341 0.8737 0.4264
vn 0.9962 0.0850 -0.0183
vn 0.9972 0.0749 -0.0021
vn 1.0000 0.0004 0.0006
vn 1.0000 -0.0063 -0.0001
vn 0.9986 -0.0383 -0.0370
vn 1.0000 0.0002 0.0009
vn 0.9764 0.2150 -0.0218
vn 0.4196 0.9010 0.1101
vn 0.0415 0.5768 -0.8158
vn 0.0202 -0.9997 -0.0142
vn -0.5270 -0.0843 -0.8457
vn 0.0012 -0.0000 -1.0000
vn -0.0000 0.0001 -1.0000
vn 1.0000 0.0004 0.0009
vn 1.0000 -0.0004 -0.0017
vn 1.0000 -0.0000 -0.0003
vn 1.0000 -0.0000 -0.0002
vn 1.0000 0.0001 -0.0000
vn 1.0000 0.0002 0.0006
vn 1.0000 0.0001 0.0003
vn 1.0000 0.0001 0.0001
vn 1.0000 -0.0014 -0.0000
vn 0.2361 0.8733 0.4262
vn 0.2302 0.8778 0.4202
vn 1.0000 -0.0025 -0.0000
s 0
f 23//1 27//1 26//1
f 31//2 27//2 30//2
f 16//3 1//3 10//3
f 19//4 23//4 17//4
f 17//5 23//5 20//5
f 11//6 16//6 10//6
f 8//7 3//7 7//7
f 5//8 11//8 1//8
f 11//9 26//9 5//9
f 21//10 26//10 28//10
f 1//11 11//11 10//11
f 2//12 3//12 1//12
f 25//13 30//13 31//13
f 17//14 20//14 18//14
f 7//15 3//15 2//15
f 4//16 1//16 3//16
f 20//17 23//17 26//17
f 22//18 21//18 28//18
f 27//19 31//19 29//19
f 24//20 6//20 13//20
f 21//21 18//21 20//21
f 18//22 7//22 12//22
f 15//23 9//23 8//23
f 8//24 9//24 4//24
f 18//25 14//25 7//25
f 14//26 8//26 7//26
f 16//27 6//27 13//27
f 6//28 16//28 1//28
f 9//29 5//29 4//29
f 5//30 1//30 4//30
f 9//31 26//31 15//31
f 15//32 26//32 22//32
f 28//33 26//33 22//33
f 26//34 16//34 29//34
f 16//35 24//35 29//35
f 31//36 29//36 24//36
f 24//35 16//35 13//35
f 16//37 26//37 11//37
f 5//38 9//38 26//38
f 21//39 20//39 26//39
f 17//40 18//40 12//40
f 12//41 19//41 17//41
f 30//42 27//42 23//42
f 22//43 15//43 14//43
f 18//44 22//44 14//44
f 14//45 15//45 8//45
f 25//46 31//46 24//46
f 19//47 12//47 2//47
f 2//48 1//48 19//48
f 1//49 6//49 23//49
f 6//50 25//50 23//50
f 25//51 30//51 23//51
f 23//52 19//52 1//52
f 2//53 12//53 7//53
f 8//54 4//54 3//54
f 22//55 18//55 21//55
f 24//56 25//56 6//56
f 29//57 26//57 27//57
f 16//58 1//58 13//58
f 13//59 1//59 6//59
f 6//60 19//60 1//60
f 5//61 11//61 16//61
f 5//62 16//62 26//62
f 26//63 16//63 13//63
f 26//64 13//64 24//64
f 23//65 19//65 6//65
f 29//66 26//66 31//66
f 31//67 26//67 24//67
f 9//68 26//68 22//68
f 31//69 24//69 30//69
f 30//70 24//70 25//70
f 15//71 9//71 22//71
