# Blender 4.0.0
# www.blender.org
o decimated_mesh
v 0.016932 0.006855 -0.027359
v 0.024876 0.006855 -0.027359
v 0.031818 0.006855 0.000008
v 0.050803 0.170789 0.000008
v 0.036669 0.168821 -0.027358
v 0.037857 0.006855 0.000008
v 0.037607 0.170696 -0.027359
v 0.037696 0.006855 -0.005108
v 0.056518 0.168979 0.000008
v 0.056394 0.168906 -0.005156
v 0.040488 0.171456 -0.027358
v 0.043536 0.168922 -0.027356
v 0.056034 0.170035 -0.004265
v 0.055690 0.170705 0.000008
v 0.053719 0.171485 0.000008
v 0.054737 0.170666 -0.006540
v 0.054974 0.171131 -0.004167
v 0.042709 0.170674 -0.027356
vn 0.0004 -0.0003 -1.0000
vn -0.8217 0.4111 0.3948
vn -0.2534 0.9600 0.1189
vn 0.1059 0.9930 -0.0523
vn 0.8868 -0.1027 -0.4506
vn -0.2306 0.9668 0.1104
vn 0.6946 0.6897 -0.2047
vn 0.9017 0.4323 0.0048
vn 0.9932 -0.1143 -0.0222
vn 0.8622 -0.0996 -0.4967
vn 0.0006 -0.0001 -1.0000
vn 0.0004 -0.0000 -1.0000
vn -0.0000 -0.0000 -1.0000
vn 0.0007 -0.0006 -1.0000
vn -0.0000 0.0001 -1.0000
vn -0.0001 -0.0000 -1.0000
vn -0.0000 -0.0000 1.0000
vn 0.0001 -0.0000 1.0000
vn -0.0000 1.0000 0.0001
vn -0.0000 -1.0000 -0.0000
vn -0.0000 1.0000 -0.0000
vn 0.8735 -0.1064 -0.4751
vn 0.3677 0.9294 0.0318
vn 0.8023 0.5058 -0.3170
vn 0.3260 0.9259 -0.1907
vn 0.3717 0.9033 -0.2144
vn 0.9461 0.3229 -0.0273
vn 0.9929 -0.1146 -0.0314
vn 0.8610 -0.0991 -0.4988
vn 0.7157 0.6965 -0.0516
vn 0.8016 0.3782 -0.4630
vn 0.7978 0.3877 -0.4618
vn -0.0001 1.0000 0.0001
vn 0.8739 -0.1012 -0.4754
vn 0.8864 -0.1080 -0.4500
vn -0.0009 0.0001 -1.0000
vn 0.0006 -0.0000 -1.0000
vn 0.0001 -0.0001 1.0000
vn 0.0005 -0.0002 -1.0000
vn 0.8012 0.3780 -0.4638
vn 0.7979 0.3885 -0.4609
s 0
f 5//1 11//1 12//1
f 4//2 7//2 5//2
f 4//3 11//3 7//3
f 17//4 11//4 15//4
f 5//5 4//5 3//5
f 4//6 15//6 11//6
f 13//7 16//7 17//7
f 9//8 13//8 14//8
f 9//9 6//9 10//9
f 10//10 8//10 2//10
f 11//11 18//11 12//11
f 12//12 2//12 5//12
f 2//13 1//13 5//13
f 7//14 11//14 5//14
f 15//15 14//15 9//15
f 15//16 9//16 4//16
f 4//17 3//17 6//17
f 6//18 9//18 4//18
f 8//19 3//19 6//19
f 3//20 1//20 2//20
f 2//21 3//21 8//21
f 5//22 3//22 1//22
f 15//23 14//23 17//23
f 16//24 13//24 10//24
f 11//25 17//25 18//25
f 18//26 17//26 16//26
f 9//27 10//27 13//27
f 8//28 10//28 6//28
f 2//29 12//29 10//29
f 14//30 13//30 17//30
f 18//31 16//31 12//31
f 16//32 10//32 12//32
f 2//33 6//33 8//33
f 2//21 3//21 6//21
f 3//34 1//34 4//34
f 4//35 1//35 5//35
f 5//36 7//36 1//36
f 7//13 2//13 1//13
f 7//37 12//37 2//37
f 14//18 15//18 4//18
f 9//38 14//38 4//38
f 11//39 12//39 7//39
f 18//40 10//40 12//40
f 18//41 16//41 10//41
