# Blender 4.0.0
# www.blender.org
o decimated_mesh
v -0.056526 0.168972 0.000008
v -0.056403 0.169247 -0.004998
v -0.055706 0.170696 0.000008
v -0.054986 0.171135 -0.004003
v -0.054709 0.170703 -0.006533
v -0.044940 0.168969 -0.024900
v -0.037758 0.007415 -0.005104
v -0.037929 0.007415 0.000008
v -0.053722 0.171485 0.000008
v -0.041674 0.171437 -0.024900
v -0.044054 0.170752 -0.024896
v -0.032142 0.007415 0.000008
v -0.051107 0.170956 0.000008
v -0.039145 0.170744 -0.024900
v -0.020265 0.007415 -0.024900
v -0.026363 0.007415 -0.024900
v -0.038158 0.169054 -0.024900
v -0.050087 0.169312 0.000008
vn -0.0001 -0.0000 1.0000
vn -0.7792 0.6227 -0.0717
vn -0.1061 0.9929 -0.0532
vn -0.7338 0.6518 -0.1916
vn -0.9031 0.4294 0.0015
vn 0.8982 0.0994 0.4283
vn -0.7947 0.3960 -0.4601
vn -0.0000 1.0000 0.0001
vn -0.3389 0.9205 -0.1942
vn -0.0001 -0.0001 -1.0000
vn 0.7994 0.4669 0.3780
vn 0.1974 0.9759 0.0936
vn -0.0000 -0.0000 1.0000
vn -0.0000 0.0001 -1.0000
vn 0.0001 -0.0000 -1.0000
vn -0.0001 0.0002 -1.0000
vn -0.9930 -0.1143 -0.0306
vn -0.9929 -0.1144 -0.0331
vn 0.8978 0.0995 0.4290
vn -0.8624 -0.0990 -0.4964
vn -0.8629 -0.0992 -0.4956
vn -0.7806 0.4280 -0.4556
vn 0.0001 1.0000 -0.0000
vn -0.0000 1.0000 -0.0000
vn -0.3694 0.9286 0.0354
vn -0.2734 0.9484 -0.1605
vn -0.0000 -0.0000 -1.0000
vn -0.0001 -0.0000 -1.0000
vn -0.0029 0.0037 -1.0000
vn -0.0000 -0.0001 -1.0000
vn 0.7880 0.4889 0.3743
vn 0.2624 0.9577 0.1179
vn -0.0000 -0.0002 1.0000
vn -0.8629 -0.0991 -0.4956
vn -0.7806 0.4320 -0.4518
vn -0.7935 0.3954 -0.4626
vn 0.0002 1.0000 0.0001
vn -0.8624 -0.0992 -0.4964
s 0
f 1//1 8//1 18//1
f 3//2 4//2 2//2
f 4//3 9//3 10//3
f 2//4 4//4 5//4
f 2//5 1//5 3//5
f 17//6 12//6 15//6
f 6//7 5//7 11//7
f 8//8 12//8 7//8
f 4//9 11//9 5//9
f 6//10 14//10 17//10
f 14//11 18//11 17//11
f 13//12 10//12 9//12
f 8//13 12//13 18//13
f 1//14 9//14 13//14
f 18//15 1//15 13//15
f 9//16 1//16 3//16
f 8//17 1//17 2//17
f 7//18 8//18 2//18
f 17//19 18//19 12//19
f 7//20 2//20 16//20
f 6//21 16//21 2//21
f 6//22 2//22 5//22
f 7//23 12//23 16//23
f 16//24 12//24 15//24
f 4//25 3//25 9//25
f 4//26 10//26 11//26
f 17//27 15//27 16//27
f 6//28 17//28 16//28
f 11//29 10//29 6//29
f 6//30 10//30 14//30
f 14//31 13//31 18//31
f 13//32 14//32 10//32
f 18//33 3//33 1//33
f 6//34 7//34 2//34
f 5//35 11//35 2//35
f 11//36 6//36 2//36
f 7//37 8//37 16//37
f 16//24 8//24 15//24
f 15//24 8//24 12//24
f 13//13 9//13 18//13
f 9//13 3//13 18//13
f 16//38 7//38 6//38
f 10//28 16//28 6//28
f 10//27 15//27 16//27
f 10//27 17//27 15//27
f 17//27 10//27 14//27
