# Blender 4.0.0
# www.blender.org
o decimated_mesh
v -0.013985 0.007418 0.029174
v -0.013984 0.007417 0.035222
v 0.013891 0.007415 0.029213
v -0.013987 0.170503 0.045936
v 0.013891 0.167984 0.045300
v 0.013886 0.007416 0.035229
v 0.013891 0.168977 0.051377
v -0.013987 0.169562 0.051258
v -0.013987 0.171410 0.049472
v 0.013891 0.170587 0.046155
v 0.013891 0.171485 0.048605
v 0.013891 0.170700 0.050542
vn 1.0000 -0.0000 -0.0000
vn 0.0065 0.3121 -0.9500
vn -0.0063 -0.0984 0.9951
vn 0.0092 0.9267 0.3757
vn 0.0053 0.4361 0.8999
vn -0.0103 0.9685 -0.2486
vn -0.0135 0.1022 -0.9947
vn 1.0000 -0.0001 0.0007
vn 0.0001 1.0000 -0.0001
vn -0.0000 1.0000 0.0001
vn -0.0003 -0.0995 0.9950
vn -1.0000 -0.0000 -0.0000
vn -0.0099 0.6947 0.7192
vn -0.0001 0.9389 -0.3441
vn 0.0014 0.0997 -0.9950
vn 1.0000 -0.0000 -0.0001
vn 0.0001 1.0000 0.0001
vn -0.0000 1.0000 -0.0001
s 0
f 12//1 7//1 11//1
f 5//2 4//2 10//2
f 7//3 8//3 2//3
f 11//4 9//4 12//4
f 8//5 7//5 12//5
f 11//6 4//6 9//6
f 5//7 1//7 4//7
f 7//1 6//1 5//1
f 5//8 6//8 3//8
f 5//1 10//1 7//1
f 10//1 11//1 7//1
f 1//9 6//9 3//9
f 6//10 1//10 2//10
f 6//11 7//11 2//11
f 4//12 1//12 2//12
f 2//12 8//12 4//12
f 8//12 9//12 4//12
f 9//13 8//13 12//13
f 11//14 10//14 4//14
f 5//15 3//15 1//15
f 3//16 5//16 10//16
f 11//1 12//1 10//1
f 12//1 7//1 10//1
f 7//1 6//1 10//1
f 6//8 3//8 10//8
f 3//17 1//17 2//17
f 3//18 2//18 6//18
