# Blender 4.0.0
# www.blender.org
o decimated_mesh
v 0.002783 -0.000938 -0.027359
v 0.002783 -0.000938 0.000008
v 0.002783 0.005501 -0.027359
v 0.002783 0.005438 0.000008
v 0.035800 -0.000601 0.000008
v 0.016935 0.006855 -0.027359
v 0.024873 0.006855 -0.027359
v 0.021386 -0.000827 -0.027358
v 0.037858 0.006855 0.000008
v 0.037161 0.001516 0.000008
v 0.034960 -0.000691 -0.004265
v 0.037704 0.006850 -0.005145
v 0.036037 -0.000128 -0.005249
v 0.024228 0.001612 -0.027358
v 0.023297 -0.000088 -0.027346
v 0.036843 0.001166 -0.004915
vn 1.0000 -0.0000 -0.0000
vn -0.0000 -0.0000 1.0000
vn 0.8606 -0.1499 -0.4867
vn 0.9911 -0.1294 -0.0295
vn 0.4163 -0.9070 -0.0629
vn -0.0000 1.0000 0.0002
vn 0.0384 0.9989 -0.0285
vn 0.8497 -0.5272 -0.0092
vn 0.3192 -0.9300 -0.1822
vn 0.7813 -0.4312 -0.4513
vn 0.0001 -0.0001 -1.0000
vn -0.0000 -0.0000 -1.0000
vn -0.0000 -0.0001 -1.0000
vn -0.0001 -0.0002 -1.0000
vn 0.0117 -0.0140 -0.9998
vn 0.8611 -0.1060 -0.4974
vn 0.9870 -0.1515 -0.0528
vn -0.0952 0.9955 0.0023
vn -0.0404 0.9992 0.0004
vn -0.0355 0.9988 0.0334
vn -0.0102 0.9999 -0.0029
vn -0.0060 1.0000 -0.0000
vn 0.8412 -0.5405 -0.0157
vn 0.3540 -0.9123 -0.2058
vn 0.8024 -0.3818 -0.4586
vn 0.0001 -0.0002 -1.0000
vn 0.0078 -1.0000 0.0013
vn -0.0003 -0.0000 -1.0000
vn 0.0102 -0.9998 0.0189
vn 0.0019 1.0000 -0.0009
vn -0.0000 1.0000 -0.0000
vn 0.8506 -0.5256 -0.0174
vn 0.8413 -0.5405 -0.0107
vn -0.0404 0.9987 0.0309
s 0
f 4//1 2//1 1//1
f 4//2 2//2 5//2
f 16//3 14//3 12//3
f 12//4 9//4 10//4
f 13//5 5//5 11//5
f 12//6 7//6 6//6
f 8//7 5//7 11//7
f 16//8 5//8 13//8
f 11//9 8//9 13//9
f 13//10 15//10 14//10
f 4//1 1//1 3//1
f 10//2 9//2 5//2
f 9//2 4//2 5//2
f 8//11 1//11 6//11
f 1//12 3//12 6//12
f 6//13 7//13 14//13
f 8//14 6//14 14//14
f 14//15 15//15 8//15
f 7//16 12//16 14//16
f 10//17 16//17 12//17
f 3//18 4//18 6//18
f 4//19 9//19 12//19
f 6//20 4//20 12//20
f 5//21 8//21 2//21
f 2//22 8//22 1//22
f 16//23 10//23 5//23
f 15//24 13//24 8//24
f 14//25 16//25 13//25
f 2//1 3//1 4//1
f 2//1 1//1 3//1
f 3//12 6//12 7//12
f 3//12 7//12 1//12
f 7//26 8//26 1//26
f 11//27 2//27 8//27
f 7//28 14//28 8//28
f 11//29 5//29 2//29
f 5//2 9//2 2//2
f 9//2 4//2 2//2
f 9//30 12//30 7//30
f 6//31 9//31 7//31
f 16//32 10//32 13//32
f 10//33 5//33 13//33
f 9//34 6//34 4//34
