# Blender 4.0.0
# www.blender.org
o decimated_mesh
v 0.025713 0.167974 0.050362
v 0.027369 0.168901 0.049503
v 0.032458 0.167596 0.046326
v 0.025713 0.169628 0.050136
v 0.032466 0.169330 0.046235
v 0.025714 0.170690 0.049587
v 0.032189 0.170631 0.045567
v 0.030931 0.170716 0.046531
v 0.025716 0.051394 0.034717
v 0.050156 0.169096 0.015787
v 0.030849 0.171379 0.044464
v 0.050194 0.167991 0.015768
v 0.025713 0.171439 0.047437
v 0.025713 0.001662 0.024791
v 0.049359 0.170690 0.015768
v 0.047177 0.171432 0.015769
v 0.025713 0.171383 0.045771
v 0.025731 -0.000107 0.023157
v 0.030897 0.001455 0.015768
v 0.044453 0.170759 0.015768
v 0.025713 0.170817 0.044034
v 0.025717 -0.000674 0.020642
v 0.029766 -0.000215 0.015767
v 0.043496 0.169227 0.015768
v 0.028169 -0.000789 0.015768
v 0.025713 0.169337 0.043001
v 0.025713 -0.000921 0.015768
v 0.025713 0.007619 0.015768
vn 0.5565 0.4703 0.6850
vn 0.8618 -0.0993 0.4974
vn 1.0000 -0.0000 -0.0000
vn 0.4012 0.1245 0.9075
vn 0.1811 0.9386 0.2937
vn 0.5058 -0.1105 0.8555
vn -0.0000 0.0001 1.0000
vn 0.0536 -0.9973 0.0506
vn -0.2366 0.9570 -0.1677
vn -0.7815 0.3570 -0.5117
vn -0.8336 0.0917 -0.5447
vn 0.7521 -0.5096 0.4180
vn 0.4636 0.3918 0.7947
vn -0.7389 0.4616 -0.4908
vn 0.8612 -0.0998 0.4984
vn 0.8646 0.0209 0.5021
vn 0.8611 -0.0998 0.4985
vn 0.8645 0.0225 0.5021
vn -1.0000 -0.0000 0.0001
vn -1.0000 0.0012 0.0009
vn 1.0000 0.0001 0.0001
vn 1.0000 -0.0001 -0.0000
vn 1.0000 -0.0000 -0.0003
vn 1.0000 -0.0000 -0.0008
vn -0.9998 -0.0198 0.0101
vn 1.0000 0.0008 0.0005
vn 0.7925 0.4035 0.4573
vn 0.7930 0.4021 0.4577
vn 0.7841 -0.4166 0.4601
vn 0.0192 0.9997 0.0128
vn 0.1848 0.9280 0.3235
vn 0.2792 0.9176 0.2831
vn 0.5054 -0.1148 0.8552
vn -0.0493 0.9982 -0.0337
vn -0.4216 0.8621 -0.2813
vn 0.0050 0.0142 0.9999
vn -0.0202 -0.0179 0.9996
vn -0.0001 -0.0000 1.0000
vn 0.0011 -0.0014 1.0000
vn -0.0002 -0.0000 1.0000
vn -0.0000 -0.0000 1.0000
vn -0.0002 -0.0004 1.0000
vn 0.5368 0.0417 0.8427
vn 0.3165 0.9306 0.1842
vn 0.3474 0.9163 0.1994
vn 0.3324 -0.9240 0.1891
vn 0.3493 -0.9145 0.2040
vn 0.4757 0.4036 0.7816
vn 0.4812 0.3628 0.7980
vn 1.0000 0.0002 -0.0013
vn 1.0000 -0.0000 -0.0001
vn 0.8617 -0.0999 0.4974
vn 0.8611 -0.0997 0.4985
vn 0.8602 -0.0999 0.5001
vn 1.0000 0.0036 -0.0010
vn 0.8645 0.0224 0.5021
vn 0.4709 0.3800 0.7962
vn 0.4601 0.4074 0.7889
vn 1.0000 -0.0003 0.0001
vn 1.0000 -0.0001 0.0001
vn -0.0011 0.0001 1.0000
vn 0.8645 0.0209 0.5021
vn 0.0003 -0.0000 1.0000
vn -0.0621 -0.0193 0.9979
vn -0.0003 0.0024 1.0000
vn 0.0001 -0.0000 1.0000
vn 0.3460 0.9164 0.2012
vn 0.3166 0.9310 0.1819
vn 0.0002 -0.0000 1.0000
vn -0.0003 -0.0000 1.0000
s 0
f 8//1 5//1 7//1
f 9//2 14//2 19//2
f 1//3 26//3 17//3
f 2//4 4//4 1//4
f 8//5 11//5 13//5
f 2//6 1//6 3//6
f 12//7 20//7 24//7
f 27//8 25//8 22//8
f 17//9 16//9 20//9
f 24//10 26//10 21//10
f 24//11 28//11 26//11
f 19//12 18//12 23//12
f 8//13 6//13 2//13
f 20//14 24//14 21//14
f 19//15 12//15 9//15
f 12//16 10//16 3//16
f 9//17 12//17 3//17
f 10//18 5//18 3//18
f 9//3 26//3 1//3
f 1//19 4//19 13//19
f 6//20 13//20 4//20
f 13//21 1//21 17//21
f 17//22 26//22 21//22
f 26//23 9//23 28//23
f 28//24 22//24 27//24
f 22//25 18//25 14//25
f 28//26 14//26 22//26
f 14//22 28//22 9//22
f 5//27 10//27 7//27
f 7//28 10//28 15//28
f 18//29 19//29 14//29
f 16//30 13//30 11//30
f 13//31 6//31 8//31
f 8//32 7//32 11//32
f 9//33 3//33 1//33
f 17//34 13//34 16//34
f 21//35 17//35 20//35
f 16//36 10//36 15//36
f 12//37 10//37 16//37
f 12//38 28//38 19//38
f 28//38 25//38 19//38
f 25//39 23//39 19//39
f 25//40 28//40 27//40
f 28//41 12//41 24//41
f 20//42 12//42 16//42
f 5//43 2//43 3//43
f 7//44 15//44 16//44
f 16//45 11//45 7//45
f 25//46 23//46 22//46
f 23//47 18//47 22//47
f 4//48 2//48 6//48
f 2//49 5//49 8//49
f 14//50 1//50 9//50
f 13//51 1//51 14//51
f 19//52 12//52 14//52
f 12//53 3//53 14//53
f 3//54 9//54 14//54
f 13//3 14//3 27//3
f 27//55 14//55 22//55
f 12//56 5//56 3//56
f 8//57 4//57 2//57
f 8//58 6//58 4//58
f 17//59 13//59 21//59
f 21//60 13//60 26//60
f 26//3 13//3 28//3
f 28//3 13//3 27//3
f 23//61 19//61 12//61
f 10//62 5//62 12//62
f 23//63 12//63 15//63
f 15//64 12//64 10//64
f 23//65 27//65 25//65
f 28//66 27//66 23//66
f 24//66 28//66 23//66
f 7//67 15//67 11//67
f 15//68 16//68 11//68
f 15//69 16//69 23//69
f 23//70 16//70 20//70
f 24//69 23//69 20//69
