# Blender 4.0.0
# www.blender.org
o decimated_mesh
v 0.002783 0.007415 -0.035275
v 0.002783 0.001722 -0.034653
v -0.012792 0.002558 -0.034791
v -0.012671 0.000235 -0.034135
v -0.014883 0.001036 -0.034133
v 0.002783 0.005438 0.000008
v 0.002783 -0.000089 -0.033875
v 0.002783 -0.000937 0.000008
v -0.037923 0.007415 0.000008
v -0.014829 -0.000265 -0.033211
v -0.022614 0.001368 -0.029691
v -0.014838 0.007406 -0.035123
v -0.034683 -0.000846 0.000008
v 0.002783 -0.000937 -0.031548
v -0.037164 0.001532 0.000008
v -0.014498 -0.000856 -0.031548
v -0.022295 -0.000073 -0.029134
v -0.037764 0.007407 -0.005170
v -0.021315 -0.000705 -0.028139
v -0.023314 0.007421 -0.030050
v -0.036995 0.001273 -0.004134
v -0.036240 0.001455 -0.006478
v -0.036145 -0.000279 0.000008
v -0.035911 -0.000260 -0.005194
vn -0.0000 0.0001 1.0000
vn -0.3657 -0.9055 -0.2151
vn -0.0085 -0.1086 -0.9940
vn -0.1965 -0.1492 -0.9691
vn -0.3613 -0.9323 -0.0196
vn -0.4458 -0.4072 -0.7971
vn 0.0272 0.9987 0.0423
vn -0.8555 -0.1286 -0.5016
vn -0.2077 -0.5713 -0.7940
vn -0.1858 -0.9369 -0.2961
vn -0.1006 -0.2753 -0.9561
vn -0.8716 -0.4901 -0.0049
vn -0.9340 -0.1701 -0.3141
vn -0.0035 -0.9395 -0.3425
vn -0.5106 -0.1096 -0.8528
vn -0.9913 -0.1278 -0.0302
vn -0.0060 -0.2721 -0.9623
vn -0.8641 -0.3970 -0.3093
vn -0.0184 -0.9998 0.0075
vn 0.0072 -0.3948 -0.9188
vn -0.0000 -0.0000 1.0000
vn -0.0002 -0.0001 1.0000
vn -0.7586 -0.4773 -0.4435
vn -0.8102 -0.3588 -0.4636
vn 1.0000 -0.0000 -0.0000
vn 1.0000 -0.0001 -0.0000
vn -0.0099 -0.8697 -0.4935
vn 0.0053 -0.0660 -0.9978
vn -0.4390 -0.5316 -0.7244
vn 0.0451 0.9986 0.0268
vn 0.0485 0.9988 -0.0001
vn -0.0001 0.9984 0.0559
vn -0.8594 -0.1104 -0.4992
vn -0.2061 -0.9050 -0.3721
vn -0.8286 -0.5585 -0.0393
vn -0.0044 -0.9425 -0.3342
vn -0.4981 -0.1297 -0.8573
vn -0.9910 -0.1297 -0.0324
vn -0.0047 -1.0000 -0.0000
vn -0.0024 -1.0000 -0.0062
vn -0.1491 -0.9859 -0.0757
vn 0.0030 -0.1086 -0.9941
vn -0.0086 -0.0718 -0.9974
vn -0.0006 1.0000 -0.0041
vn 0.0003 1.0000 0.0004
vn 0.0484 0.9973 0.0559
vn -0.0039 1.0000 -0.0017
vn -0.0024 -1.0000 -0.0000
vn -0.0324 -0.9993 -0.0204
vn -0.0047 -1.0000 -0.0027
vn -0.4148 -0.5375 -0.7342
vn -0.4681 -0.4071 -0.7843
vn -0.8050 -0.3606 -0.4712
vn -0.7637 -0.4742 -0.4381
vn -0.2198 -0.9068 -0.3597
vn -0.1707 -0.9386 -0.2997
s 0
f 15//1 23//1 13//1
f 17//2 19//2 24//2
f 2//3 12//3 1//3
f 12//4 3//4 5//4
f 24//5 13//5 23//5
f 10//6 17//6 11//6
f 20//7 6//7 12//7
f 11//8 22//8 20//8
f 10//9 5//9 4//9
f 16//10 17//10 10//10
f 5//11 3//11 4//11
f 21//12 23//12 15//12
f 18//13 22//13 21//13
f 10//14 7//14 14//14
f 11//15 20//15 12//15
f 9//16 18//16 15//16
f 3//17 2//17 4//17
f 22//18 24//18 21//18
f 19//19 16//19 8//19
f 4//20 2//20 7//20
f 13//21 8//21 6//21
f 9//21 13//21 6//21
f 9//22 15//22 13//22
f 22//23 11//23 24//23
f 11//24 17//24 24//24
f 1//25 6//25 14//25
f 6//25 8//25 14//25
f 14//26 7//26 2//26
f 1//25 14//25 2//25
f 7//27 10//27 4//27
f 2//28 3//28 12//28
f 11//29 5//29 10//29
f 20//30 18//30 6//30
f 9//31 6//31 18//31
f 6//32 1//32 12//32
f 18//33 20//33 22//33
f 16//34 19//34 17//34
f 21//35 24//35 23//35
f 14//36 16//36 10//36
f 12//37 5//37 11//37
f 18//38 21//38 15//38
f 16//39 14//39 8//39
f 8//40 13//40 19//40
f 19//41 13//41 24//41
f 6//25 2//25 1//25
f 2//42 3//42 1//42
f 3//43 12//43 1//43
f 12//44 20//44 1//44
f 20//45 9//45 1//45
f 9//46 6//46 1//46
f 8//25 2//25 6//25
f 8//25 14//25 2//25
f 18//47 9//47 20//47
f 13//48 14//48 8//48
f 19//49 16//49 13//49
f 16//50 14//50 13//50
f 10//51 17//51 5//51
f 17//52 11//52 5//52
f 17//53 22//53 11//53
f 17//54 24//54 22//54
f 17//55 10//55 19//55
f 10//56 16//56 19//56
