# Blender 4.0.0
# www.blender.org
o decimated_mesh
v -0.052268 0.000418 -0.142802
v -0.046775 0.034812 -0.137903
v -0.047275 -0.030308 -0.138774
v -0.165369 0.000227 -0.134351
v 0.047221 -0.035849 -0.137324
v -0.117268 -0.033197 -0.133757
v 0.052825 0.036418 -0.137046
v 0.113973 0.033950 -0.133840
v 0.165648 0.000435 -0.134174
v 0.117050 -0.033170 -0.133757
v -0.163569 -0.032773 -0.129867
v -0.244839 -0.016758 -0.117061
v -0.246441 0.000715 -0.118166
v -0.163734 0.033761 -0.129761
v -0.244839 0.017275 -0.117061
v 0.164338 0.033855 -0.129482
v 0.163860 -0.032902 -0.129664
v -0.246326 -0.031977 -0.112880
v -0.249783 -0.024741 -0.109954
v -0.249783 0.025310 -0.109926
v -0.246163 0.033268 -0.112730
v -0.059701 0.066137 -0.123750
v 0.246351 0.032320 -0.112674
v 0.245936 0.003504 -0.118368
v 0.245115 -0.012504 -0.117256
v 0.246371 -0.030994 -0.112963
v 0.245443 -0.053768 -0.103629
v 0.165012 -0.061151 -0.117285
v -0.166169 -0.061597 -0.117029
v -0.246070 -0.053374 -0.103746
v -0.261760 -0.023428 -0.089802
v -0.261046 0.003042 -0.094067
v -0.261760 0.024024 -0.089774
v -0.245565 0.056717 -0.102534
v -0.165555 0.062082 -0.117187
v 0.047221 0.067983 -0.123221
v 0.163035 0.061995 -0.117312
v 0.245987 0.056190 -0.102043
v -0.067548 -0.066547 -0.122636
v -0.245689 -0.077618 -0.085354
v -0.261529 -0.043183 -0.081421
v 0.261597 0.023525 -0.089579
v 0.260882 0.003042 -0.093732
v 0.261652 -0.023008 -0.089635
v 0.245609 -0.078233 -0.084339
v 0.050628 -0.066733 -0.123758
v -0.167264 -0.088920 -0.095014
v -0.261523 0.044822 -0.080549
v -0.245740 0.078699 -0.084525
v -0.167264 0.089516 -0.095014
v 0.245395 0.079423 -0.083799
v 0.261398 -0.043577 -0.080654
v 0.261432 -0.060953 -0.067031
v 0.164078 -0.089157 -0.095237
v -0.261685 -0.075343 -0.047516
v -0.261540 -0.061164 -0.067226
v -0.275234 -0.017263 -0.045592
v -0.261540 0.061680 -0.067170
v -0.166934 0.106007 -0.072577
v 0.164078 0.089673 -0.095182
v 0.261707 0.045688 -0.078765
v 0.261420 -0.075457 -0.047098
v 0.245407 -0.096735 -0.058842
v -0.050437 -0.094827 -0.100892
v -0.164696 -0.108379 -0.068595
v -0.245799 -0.096510 -0.059019
v -0.275180 0.015936 -0.045658
v -0.245740 0.097892 -0.057195
v -0.047275 0.095398 -0.100895
v -0.164077 0.110813 -0.065414
v 0.047221 0.095372 -0.100868
v 0.245543 0.097252 -0.058558
v 0.261377 0.061418 -0.066919
v 0.275516 0.016667 -0.043778
v 0.275419 -0.014104 -0.044535
v 0.163569 -0.109127 -0.067633
v -0.261666 0.075857 -0.047349
v 0.164918 0.110712 -0.065282
v 0.261587 0.075741 -0.046666
v 0.274834 -0.030371 -0.036859
v 0.047221 -0.094829 -0.100951
v -0.049514 -0.116056 -0.071319
v -0.245945 -0.106612 -0.033038
v -0.275881 -0.000021 -0.045698
v -0.275724 0.032484 -0.030908
v -0.245989 0.106900 -0.033757
v -0.166238 0.122673 -0.033984
v 0.245955 0.107036 -0.032803
v 0.162865 -0.122073 -0.034935
v 0.047221 -0.116021 -0.071462
v -0.166494 -0.122034 -0.033333
v -0.249618 -0.103678 -0.025251
v -0.261816 -0.084321 -0.023868
v -0.275462 -0.038753 -0.022748
v -0.280901 0.000306 0.000173
v -0.163448 0.126814 0.000234
v -0.047364 0.116556 -0.071339
v 0.162705 0.122866 -0.034253
v 0.274720 -0.041505 -0.020370
v 0.261652 -0.083590 -0.025251
v 0.246373 -0.106748 -0.031184
v 0.164328 -0.126062 -0.000521
v -0.163657 -0.126096 -0.000701
v -0.245529 -0.111393 -0.000263
v -0.261853 -0.086674 -0.002950
v -0.249618 0.104169 -0.025251
v -0.261815 0.084369 -0.025251
v -0.245419 0.112141 0.000516
v 0.163505 0.126762 -0.000295
v 0.261698 0.084317 -0.023958
v 0.275076 0.040421 -0.020899
v 0.280885 0.000524 0.000543
v 0.260937 -0.087791 -0.002981
v 0.245520 -0.111364 -0.000207
v 0.046984 -0.129107 -0.038426
v -0.047275 -0.128284 -0.040747
v -0.274959 0.044190 -0.014326
v -0.249618 0.104221 0.024808
v -0.245919 0.107206 0.032780
v -0.046496 0.130105 -0.036723
v 0.047221 0.117798 -0.068536
v 0.245239 0.112021 -0.000036
v 0.163797 -0.122261 0.033436
v -0.166769 -0.122060 0.033086
v -0.261838 -0.084231 0.023494
v -0.249618 -0.103731 0.024808
v -0.261101 0.088649 0.002538
v -0.262328 0.083846 0.024111
v -0.163406 0.122656 0.033077
v -0.051758 0.134457 0.001242
v 0.162992 0.122602 0.034599
v 0.047221 0.128748 -0.040525
v 0.262177 -0.083308 0.022803
v 0.246274 -0.106885 0.030592
v 0.049088 -0.133909 -0.001204
v -0.245223 -0.100107 0.050506
v -0.245832 -0.106581 0.032738
v -0.275315 -0.044179 0.000402
v -0.275165 0.039515 0.024081
v -0.275222 0.044943 0.006730
v -0.261861 0.075714 0.047385
v -0.245788 0.096429 0.059874
v 0.260882 0.088308 0.002538
v 0.275201 0.034338 0.031217
v 0.274942 0.045160 0.005917
v 0.274724 -0.045131 0.007376
v 0.245560 -0.096268 0.059225
v -0.046503 -0.133995 -0.000505
v -0.048897 -0.129232 0.036883
v -0.164077 -0.110165 0.064748
v -0.262592 -0.073876 0.046467
v -0.275727 -0.025285 0.035945
v -0.274721 -0.041057 0.022293
v -0.275557 0.020293 0.041400
v -0.165566 0.109905 0.064686
v 0.246188 0.107472 0.030664
v 0.245559 0.097233 0.058340
v 0.261267 -0.077235 0.043649
v 0.164243 -0.109573 0.066181
v -0.166604 -0.105359 0.072023
v -0.246032 -0.095519 0.059740
v -0.274948 -0.005513 0.048816
v -0.166377 0.089332 0.094505
v 0.262202 0.083663 0.023434
v 0.165206 0.109361 0.067259
v 0.274813 0.008537 0.047653
v -0.165826 -0.088842 0.094841
v -0.246015 -0.078082 0.083823
v -0.261650 0.061864 0.066922
v -0.245734 0.078651 0.084196
v -0.245797 0.061020 0.098655
v -0.051230 0.129511 0.038180
v 0.261634 0.075715 0.047015
v 0.274873 -0.013552 0.045724
v 0.274453 -0.035849 0.030354
v 0.245799 -0.077966 0.084038
v -0.112598 -0.094409 0.094516
v -0.047275 -0.115915 0.070908
v -0.261595 -0.061190 0.066811
v -0.262070 0.043358 0.080491
v -0.166080 0.062413 0.116485
v -0.047661 0.117123 0.070143
v 0.245609 0.078828 0.083924
v 0.047221 0.116616 0.071075
v 0.261432 -0.061006 0.066616
v 0.047221 -0.115942 0.070936
v 0.047746 -0.129167 0.037289
v 0.245617 -0.054751 0.102562
v 0.164078 -0.089157 0.094794
v -0.049497 -0.094724 0.100567
v -0.245579 -0.053991 0.103150
v -0.261882 -0.042778 0.080596
v -0.262033 -0.022203 0.089608
v -0.262309 0.022500 0.089188
v -0.245406 0.050476 0.105300
v -0.108478 0.089936 0.100452
v -0.050531 0.095286 0.100779
v 0.261487 0.061654 0.066699
v 0.164078 0.089726 0.094822
v 0.261707 0.023892 0.089304
v 0.261639 -0.043738 0.079860
v 0.164996 -0.061645 0.116569
v -0.249783 -0.024741 0.109567
v -0.262313 -0.003304 0.091700
v -0.249838 0.025310 0.109567
v -0.159982 0.033236 0.130089
v -0.246272 0.033023 0.112229
v 0.261652 0.043509 0.080516
v 0.245789 0.054139 0.103159
v 0.246456 0.031192 0.112752
v 0.246249 -0.031540 0.112539
v -0.051561 -0.067418 0.122703
v -0.246218 -0.031993 0.112324
v -0.163820 -0.033330 0.129210
v -0.246446 -0.000190 0.117682
v -0.244784 0.017065 0.116590
v -0.048545 0.067425 0.123394
v 0.164223 0.061941 0.116937
v 0.246225 -0.000232 0.117731
v 0.260992 -0.002473 0.093512
v 0.261707 -0.023270 0.089276
v 0.244730 -0.016417 0.116590
v 0.163692 -0.032902 0.129307
v 0.058345 -0.065492 0.123396
v -0.165284 -0.061501 0.116665
v -0.245223 -0.012661 0.116841
v -0.164537 -0.001730 0.133961
v 0.164057 0.033069 0.129359
v 0.244730 0.017039 0.116590
v 0.165570 0.000142 0.133784
v 0.109936 -0.033673 0.133675
v -0.113093 -0.033486 0.133425
v -0.048252 0.034526 0.137575
v 0.117270 0.033792 0.133314
v 0.047737 -0.034299 0.137406
v -0.047275 0.003042 0.142038
v 0.045563 -0.001112 0.142385
vn 0.9599 0.2035 -0.1929
vn -0.0026 0.4109 -0.9117
vn 0.9506 0.3104 0.0090
vn -0.1792 -0.9166 -0.3574
vn -0.0622 0.6263 0.7771
vn -0.0594 -0.8143 0.5774
vn -0.8439 0.4978 -0.2003
vn -0.8339 -0.5128 0.2039
vn 0.0281 0.9331 0.3586
vn -0.1820 -0.9219 0.3421
vn -0.1842 0.8486 -0.4959
vn 0.1868 -0.6075 -0.7721
vn -0.1882 -0.3913 0.9008
vn -0.0688 0.6321 -0.7718
vn 0.8441 -0.2263 0.4860
vn -0.0720 0.4009 -0.9133
vn -0.1882 0.3825 0.9046
vn -0.8541 -0.0697 0.5153
vn -0.9563 0.2577 -0.1379
vn -0.9572 -0.0207 -0.2888
vn -0.7101 -0.6534 0.2624
vn 0.0347 0.9934 -0.1091
vn 0.8545 0.0752 0.5140
vn -0.7376 0.1132 0.6657
vn 0.1817 0.1392 0.9735
vn 0.9565 -0.2662 0.1193
vn -0.9566 -0.2850 -0.0607
vn 0.1894 -0.3906 0.9008
vn 0.8322 -0.5513 -0.0592
vn -0.0738 0.9271 0.3675
vn 0.0026 0.1404 0.9901
vn -0.8521 -0.2141 -0.4776
vn 0.9574 0.2689 0.1052
vn -0.1814 0.6208 0.7627
vn -0.8349 0.4451 -0.3237
vn 0.0660 0.9307 -0.3598
vn -0.0682 0.8133 -0.5778
vn 0.1850 -0.7917 0.5822
vn -0.8368 -0.4431 0.3215
vn -0.0668 0.9912 -0.1145
vn 0.1808 0.9185 -0.3518
vn 0.8330 0.5125 0.2086
vn -0.0650 -0.1401 -0.9880
vn -0.8500 0.5236 -0.0588
vn 0.0375 -0.6974 0.7157
vn -0.0704 -0.7138 0.6968
vn -0.1821 0.6112 -0.7703
vn -0.9574 0.1741 -0.2306
vn 0.9594 0.0039 -0.2821
vn -0.8598 -0.0585 -0.5072
vn -0.7457 0.1159 -0.6561
vn 0.9509 -0.3093 0.0081
vn 0.0682 -0.9907 -0.1177
vn -0.7385 -0.1171 0.6640
vn 0.9554 -0.2478 -0.1607
vn -0.7368 0.6700 0.0911
vn -0.1856 -0.7997 -0.5710
vn 0.9569 -0.1514 -0.2479
vn 0.1954 -0.0779 -0.9776
vn -0.9919 0.1202 0.0408
vn -0.0678 0.1379 0.9881
vn 0.0395 -0.0695 -0.9968
vn 0.1773 -0.9767 -0.1207
vn -0.0593 -0.9912 -0.1182
vn -0.1861 -0.7929 0.5803
vn -0.1898 -0.3874 -0.9022
vn 0.1886 0.6044 0.7740
vn -0.8296 0.5571 0.0382
vn -0.0642 0.9298 -0.3623
vn -0.8370 0.3396 -0.4290
vn -0.1802 0.1314 0.9748
vn -0.1700 0.8133 0.5565
vn 0.1825 -0.7964 -0.5765
vn -0.1978 0.2409 -0.9502
vn -0.0699 -0.6314 0.7723
vn 0.0720 0.6306 -0.7727
vn 0.0014 0.9325 0.3612
vn -0.1868 0.7929 -0.5800
vn 0.1894 0.3834 0.9040
vn 0.1841 0.7981 0.5737
vn -0.0804 -0.3995 -0.9132
vn -0.0006 -0.8124 -0.5831
vn 0.1859 -0.6119 0.7688
vn -0.8550 0.0504 0.5162
vn -0.1877 -0.6126 0.7678
vn -0.1812 0.1421 -0.9731
vn -0.9546 -0.2822 0.0958
vn -0.8348 -0.3353 0.4367
vn 0.0856 0.1418 -0.9862
vn -0.1887 0.3883 -0.9020
vn -0.1892 -0.9720 -0.1394
vn -0.9592 -0.2012 -0.1989
vn 0.1808 0.8020 -0.5694
vn -0.7446 -0.1161 0.6573
vn 0.8454 0.0777 -0.5285
vn 0.8362 0.5455 -0.0564
vn 0.0677 0.8151 -0.5754
vn -0.1824 0.9171 -0.3544
vn 0.8488 -0.2203 -0.4806
vn 0.8365 -0.5448 0.0588
vn 0.0347 0.3457 -0.9377
vn 0.0001 -0.9920 0.1264
vn 0.8426 0.3458 -0.4130
vn -0.8424 -0.2285 0.4880
vn -0.8356 -0.5484 0.0313
vn -0.8335 0.3521 0.4258
vn 0.1930 0.3970 -0.8973
vn 0.0342 0.9906 0.1322
vn -0.8330 -0.5140 -0.2045
vn -0.8512 0.0591 -0.5215
vn -0.1756 0.9789 -0.1042
vn 0.8522 -0.0705 -0.5184
vn 0.1861 -0.9729 0.1370
vn 0.8279 -0.5278 0.1899
vn -0.0740 0.7623 0.6429
vn 0.0398 0.6314 0.7744
vn 0.9915 0.0992 -0.0840
vn 0.1886 -0.3790 -0.9060
vn -0.1755 0.9145 0.3646
vn 0.0687 0.8112 0.5807
vn 0.0654 -0.9283 0.3659
vn 0.1873 0.9717 -0.1438
vn 0.8373 0.5426 0.0677
vn -0.9924 -0.0371 0.1170
vn 0.1986 -0.2088 -0.9576
vn -0.0397 -0.0811 0.9959
vn 0.1837 0.9205 0.3448
vn -0.0660 0.3945 0.9165
vn -0.1995 -0.2132 0.9564
vn 0.8400 0.5026 -0.2043
vn 0.8398 -0.3367 0.4258
vn -0.0678 -0.8115 -0.5804
vn -0.9596 -0.1188 0.2552
vn 0.9905 -0.0902 0.1037
vn -0.8351 0.5138 0.1963
vn -0.1918 -0.8482 0.4937
vn -0.9582 -0.2192 0.1837
vn -0.8438 0.2308 0.4845
vn 0.8515 0.2265 -0.4728
vn 0.8039 -0.0821 -0.5890
vn 0.1848 0.6099 -0.7707
vn -0.0689 0.9887 0.1334
vn 0.8431 -0.0794 0.5319
vn -0.0004 -0.8137 0.5813
vn -0.9953 0.0440 -0.0860
vn 0.0607 -0.1442 0.9877
vn 0.9914 -0.1114 -0.0684
vn 0.9568 0.1874 -0.2222
vn 0.9555 0.2360 -0.1768
vn 0.0678 0.4159 -0.9069
vn 0.0798 0.3988 -0.9136
vn 0.0642 0.4099 -0.9099
vn 0.0014 0.4014 -0.9159
vn 0.9511 0.3085 -0.0172
vn 0.9564 0.2883 -0.0462
vn -0.1768 -0.9148 -0.3633
vn -0.0724 0.6108 0.7885
vn -0.0859 0.6296 0.7722
vn -0.0807 -0.8061 0.5863
vn -0.0532 -0.8416 0.5375
vn -0.0702 -0.8264 0.5587
vn -0.0714 -0.9279 -0.3659
vn -0.0705 -0.9290 -0.3633
vn -0.8344 0.5124 -0.2030
vn -0.8338 0.5136 -0.2022
vn -0.8338 -0.5130 0.2039
vn -0.8339 -0.5081 0.2155
vn -0.1766 -0.9164 0.3593
vn -0.8322 -0.5533 -0.0346
vn -0.8464 -0.5290 -0.0610
vn 0.1848 -0.6117 -0.7692
vn -0.7171 -0.6906 0.0941
vn -0.1914 -0.3825 0.9039
vn 0.0004 0.6323 -0.7747
vn -0.0068 0.6173 -0.7867
vn -0.0721 0.6242 -0.7779
vn 0.8463 -0.2297 0.4807
vn -0.0675 0.3875 -0.9194
vn -0.1841 0.3705 0.9104
vn -0.8489 -0.0583 0.5254
vn -0.9538 0.2414 -0.1787
vn -0.9530 0.2806 -0.1145
vn 0.9927 -0.0002 -0.1203
vn 0.8355 0.4445 -0.3230
vn 0.8372 0.4443 -0.3187
vn -0.9629 0.0533 0.2645
vn -0.9593 0.0275 0.2812
vn -0.9582 0.1194 0.2601
vn -0.9547 -0.0377 -0.2952
vn -0.9559 0.0427 -0.2905
vn -0.9577 0.0260 -0.2866
vn 0.8336 -0.5095 -0.2135
vn 0.8408 -0.5043 -0.1966
vn -0.7273 0.6802 -0.0919
vn 0.0357 0.9928 -0.1147
vn 0.8454 0.0618 0.5306
vn -0.0009 -0.9307 0.3658
vn -0.0004 -0.9312 0.3645
vn -0.0650 -0.9282 0.3664
vn -0.0682 -0.9320 0.3560
vn 0.1949 0.0814 0.9774
vn 0.9535 -0.2494 0.1694
vn 0.9565 -0.2665 0.1189
vn -0.9535 -0.2993 -0.0354
vn -0.9526 -0.2825 -0.1125
vn 0.1899 -0.3921 0.9001
vn 0.8410 -0.5359 -0.0741
vn -0.0734 0.9266 0.3688
vn 0.0698 0.1141 0.9910
vn 0.0855 0.1366 0.9869
vn 0.0261 0.2009 0.9793
vn -0.8461 -0.2165 -0.4871
vn -0.8455 -0.2156 -0.4885
vn 0.9561 0.2700 0.1140
vn -0.1827 0.6238 0.7599
vn 0.0590 -0.3922 0.9180
vn 0.0730 -0.4118 0.9084
vn 0.0799 -0.4008 0.9127
vn -0.8299 0.4566 -0.3206
vn 0.0293 0.0271 -0.9992
vn 0.0671 0.9293 -0.3633
vn 0.1332 0.7976 -0.5882
vn -0.0694 0.8111 -0.5808
vn 0.1799 -0.8003 0.5720
vn -0.8349 -0.4477 0.3201
vn -0.0643 0.9904 -0.1224
vn -0.9596 0.1989 0.1990
vn -0.9576 0.1842 0.2217
vn -0.9552 0.2365 0.1780
vn 0.2006 0.1871 -0.9616
vn 0.1825 0.9198 -0.3473
vn 0.8404 0.5072 0.1912
vn -0.0842 -0.1387 -0.9868
vn -0.0737 -0.1237 -0.9896
vn -0.8326 0.5528 -0.0353
vn 0.0724 -0.6205 0.7809
vn 0.0061 -0.6294 0.7770
vn -0.9923 -0.0853 -0.0901
vn -0.9934 -0.0380 -0.1084
vn -0.1873 0.6216 -0.7606
vn -0.9566 0.1806 -0.2288
vn -0.9550 0.1292 -0.2668
vn 0.9572 -0.0172 -0.2888
vn 0.9575 0.0249 -0.2873
vn -0.9942 -0.0990 0.0411
vn -0.9908 -0.1241 0.0545
vn -0.9919 -0.1247 -0.0229
vn -0.8563 -0.0533 -0.5138
vn -0.7622 -0.1060 -0.6386
vn 0.9556 -0.2923 -0.0383
vn 0.9531 -0.3016 -0.0263
vn 0.0640 -0.9893 -0.1312
vn 0.9524 -0.2824 -0.1152
vn 0.9536 -0.2436 -0.1767
vn -0.9921 0.0947 0.0827
vn -0.1845 -0.7982 -0.5734
vn 0.9559 0.0209 0.2931
vn 0.9584 -0.0250 0.2842
vn 0.9587 -0.0222 0.2836
vn 0.8334 -0.4504 -0.3202
vn 0.8365 -0.4433 -0.3221
vn 0.9553 -0.1281 -0.2663
vn 0.9539 -0.1841 -0.2371
vn 0.1840 -0.1415 -0.9727
vn 0.0745 -0.6184 -0.7823
vn 0.0684 -0.6338 -0.7705
vn -0.9915 0.1286 -0.0170
vn -0.9918 0.1211 -0.0398
vn -0.0730 0.1192 0.9902
vn 0.0871 -0.1381 -0.9866
vn 0.0281 -0.1255 -0.9917
vn 0.1848 -0.9728 -0.1399
vn -0.0000 -0.9918 -0.1279
vn -0.0052 -0.9901 -0.1404
vn -0.0664 -0.9881 -0.1389
vn -0.1877 -0.7955 0.5761
vn -0.1891 -0.3852 -0.9032
vn -0.1973 -0.2418 -0.9501
vn 0.1846 0.6126 0.7685
vn 0.6973 0.1072 0.7087
vn -0.8475 0.5263 0.0690
vn -0.0013 0.9314 -0.3641
vn -0.0014 0.9312 -0.3644
vn -0.0660 0.9321 -0.3563
vn -0.8388 0.3410 -0.4244
vn -0.1929 0.0804 0.9779
vn -0.1822 0.7936 0.5805
vn 0.1836 -0.7980 -0.5739
vn 0.9527 0.2826 -0.1114
vn -0.0737 -0.6213 0.7801
vn 0.0683 0.6215 -0.7805
vn 0.0689 0.9261 0.3708
vn 0.0355 0.9620 0.2707
vn -0.1928 0.8030 -0.5639
vn 0.1906 0.3870 0.9021
vn 0.1834 0.7971 0.5753
vn -0.9536 -0.1269 -0.2729
vn -0.0260 -0.3508 -0.9361
vn -0.0093 -0.4030 -0.9152
vn -0.0723 -0.4108 -0.9088
vn -0.0004 -0.8121 -0.5836
vn 0.0678 -0.8089 -0.5840
vn 0.0672 -0.8102 -0.5823
vn 0.1851 -0.6137 0.7676
vn -0.7394 0.1128 0.6637
vn -0.8550 0.0505 0.5161
vn -0.7405 -0.1098 -0.6631
vn -0.1973 0.2413 0.9502
vn -0.1867 -0.6106 0.7696
vn 0.9529 0.2433 0.1810
vn 0.9561 0.1829 0.2287
vn -0.1946 0.0840 -0.9773
vn -0.9523 -0.3039 0.0286
vn -0.9566 -0.2836 0.0664
vn -0.7534 0.1146 -0.6475
vn -0.8367 -0.3366 0.4321
vn 0.0560 0.0962 -0.9938
vn 0.0063 0.1400 -0.9901
vn 0.0395 0.0442 -0.9982
vn -0.1911 0.3955 -0.8984
vn 0.1816 -0.1421 0.9730
vn 0.1941 -0.0868 0.9771
vn -0.9520 0.3053 -0.0226
vn -0.9511 0.3087 0.0146
vn -0.9520 0.3054 -0.0228
vn 0.8420 -0.4434 0.3073
vn 0.8373 -0.4438 0.3193
vn -0.1763 -0.9786 -0.1065
vn 0.0254 0.3959 0.9179
vn 0.0835 0.3934 0.9156
vn 0.0387 0.4535 0.8904
vn -0.9551 -0.1832 -0.2328
vn -0.9546 -0.2385 -0.1786
vn 0.8318 0.4514 0.3231
vn 0.8343 0.4457 0.3246
vn 0.1814 0.8027 -0.5681
vn -0.0301 -0.6060 0.7949
vn 0.8523 0.0896 -0.5154
vn 0.8320 0.5509 -0.0657
vn 0.0004 0.8131 -0.5821
vn 0.0381 0.8657 -0.4991
vn 0.8355 0.3377 0.4335
vn 0.8378 0.3393 0.4277
vn 0.9572 -0.1236 0.2618
vn 0.9589 -0.1799 0.2195
vn 0.9602 -0.1706 0.2213
vn 0.7106 -0.1146 0.6942
vn -0.1810 0.9160 -0.3581
vn 0.1835 0.9732 0.1385
vn 0.1759 0.9772 0.1191
vn 0.8441 -0.2324 -0.4831
vn 0.9910 0.1266 0.0440
vn 0.9908 0.1342 -0.0187
vn 0.8386 -0.5421 0.0539
vn -0.0269 -0.6565 -0.7538
vn -0.8554 0.2247 -0.4666
vn -0.8433 0.2278 -0.4867
vn -0.8424 0.2265 -0.4889
vn -0.0640 -0.9916 0.1126
vn -0.0670 -0.9903 0.1219
vn 0.0018 -0.9925 0.1223
vn 0.8367 0.3405 -0.4289
vn -0.8393 -0.2232 0.4957
vn -0.8424 -0.2281 0.4882
vn -0.8478 -0.5280 0.0492
vn -0.8399 0.3332 0.4285
vn 0.1911 0.4018 -0.8956
vn -0.8327 -0.4483 -0.3251
vn -0.8343 -0.4446 -0.3260
vn 0.1835 -0.9202 0.3458
vn 0.1804 -0.9180 0.3532
vn 0.0363 0.9923 0.1188
vn 0.1972 -0.2351 0.9518
vn -0.7305 -0.6771 -0.0895
vn -0.8352 -0.5119 -0.2011
vn -0.8352 -0.5126 -0.1992
vn -0.0765 0.8153 0.5740
vn -0.0728 0.8218 0.5650
vn -0.8593 0.0743 -0.5060
vn -0.1958 -0.0850 0.9770
vn -0.1857 -0.1502 0.9711
vn 0.1859 0.1437 -0.9720
vn -0.1924 0.9705 -0.1452
vn 0.8442 -0.0589 -0.5328
vn -0.1744 0.9768 0.1239
vn -0.1826 0.9723 0.1459
vn 0.1766 -0.9779 0.1122
vn 0.1845 -0.9221 -0.3403
vn 0.1773 -0.9163 -0.3590
vn -0.1910 -0.5952 -0.7806
vn -0.1830 -0.6123 -0.7691
vn -0.1908 -0.9716 0.1399
vn -0.1753 -0.9793 0.1008
vn 0.8414 -0.4995 0.2062
vn 0.0378 0.6224 0.7818
vn -0.8319 0.4484 0.3269
vn -0.8308 0.4485 0.3297
vn -0.1954 0.5177 0.8330
vn 0.1915 -0.3874 -0.9018
vn -0.1731 0.9174 0.3583
vn -0.0014 0.8144 0.5803
vn 0.0378 0.7486 0.6619
vn 0.0673 -0.9306 0.3597
vn 0.1972 0.2341 0.9520
vn 0.1766 0.9774 -0.1163
vn 0.8378 -0.3359 -0.4305
vn 0.8370 -0.3353 -0.4325
vn -0.0740 0.1388 -0.9876
vn -0.0700 0.1516 -0.9860
vn 0.8306 0.5540 0.0564
vn 0.9588 0.1183 0.2581
vn 0.9613 0.1376 0.2386
vn -0.9924 0.0119 0.1229
vn -0.0823 -0.1500 0.9852
vn -0.0252 -0.1499 0.9884
vn 0.1781 0.9161 0.3593
vn 0.0630 -0.9903 0.1242
vn 0.0668 -0.9915 0.1120
vn -0.0709 0.4093 0.9096
vn 0.8473 0.2256 0.4808
vn 0.8445 0.2209 0.4879
vn 0.0010 -0.9285 -0.3714
vn -0.0002 -0.9297 -0.3683
vn 0.0671 -0.9278 -0.3670
vn 0.0674 -0.9282 -0.3661
vn 0.8350 0.5134 -0.1980
vn 0.8386 -0.3357 0.4290
vn -0.0703 -0.8064 -0.5871
vn -0.9605 -0.1243 0.2491
vn -0.9576 -0.0457 0.2845
vn 0.9903 -0.1244 0.0619
vn -0.1956 -0.0797 -0.9774
vn -0.1813 -0.1421 -0.9731
vn -0.8297 0.5173 0.2098
vn -0.8351 0.5143 0.1950
vn 0.9916 -0.0086 0.1293
vn -0.1758 -0.8876 0.4256
vn -0.9583 -0.2194 0.1829
vn -0.9570 -0.1833 0.2249
vn -0.8505 0.2300 0.4731
vn -0.8331 0.2725 0.4814
vn -0.8379 0.2182 0.5003
vn -0.0697 -0.4133 0.9079
vn 0.0014 -0.4093 0.9124
vn -0.0250 -0.3421 0.9393
vn -0.0770 -0.4022 0.9123
vn 0.8504 0.2248 -0.4757
vn 0.0620 -0.3956 -0.9163
vn 0.0822 -0.3972 -0.9141
vn 0.0715 -0.4121 -0.9083
vn 0.9913 0.0600 0.1175
vn -0.0755 -0.6238 -0.7780
vn -0.0085 -0.6127 -0.7903
vn -0.0708 -0.6346 -0.7696
vn -0.0005 -0.6302 -0.7764
vn -0.9567 0.2770 0.0898
vn -0.9541 0.2762 0.1157
vn 0.1846 0.6095 -0.7710
vn -0.8388 -0.3373 -0.4273
vn -0.8390 -0.3368 -0.4273
vn -0.0662 0.9899 0.1254
vn 0.9541 0.1274 -0.2709
vn 0.8470 -0.0863 0.5245
vn 0.0677 -0.8120 0.5797
vn 0.0374 -0.7507 0.6596
vn -0.9926 0.0544 -0.1090
vn 0.0822 -0.1384 0.9870
vn 0.0722 -0.1220 0.9899
vn 0.9923 -0.0802 -0.0943
vn 0.9905 -0.1363 -0.0180
vn 0.0395 -0.0423 -0.9983
vn 0.0077 -0.1288 -0.9916
vn -0.0503 -0.3827 -0.9225
vn 0.0543 -0.0908 -0.9944
vn -0.0096 -0.4023 -0.9154
vn -0.8459 0.2125 -0.4892
vn -0.8457 0.2244 -0.4842
vn -0.8426 0.2327 -0.4857
vn 0.0684 0.6308 -0.7729
vn 0.0719 0.6212 -0.7803
vn 0.1914 0.3971 -0.8976
vn 0.8467 0.0914 -0.5241
vn 0.8532 0.0749 -0.5162
vn 0.8531 -0.0564 -0.5187
vn 0.8455 -0.0722 -0.5291
vn 0.1920 -0.3789 -0.9053
vn 0.1888 -0.3877 -0.9023
vn -0.8461 -0.2178 -0.4865
vn -0.8467 -0.2162 -0.4862
vn -0.8469 -0.2066 -0.4899
vn -0.1856 -0.7981 -0.5733
vn -0.1845 -0.7998 -0.5712
vn -0.8388 -0.3370 -0.4276
vn -0.8390 -0.3372 -0.4271
vn -0.9554 -0.0217 -0.2944
vn -0.9562 0.0271 -0.2916
vn -0.8392 0.3376 -0.4265
vn -0.8372 0.3426 -0.4263
vn -0.0684 0.8044 -0.5902
vn -0.0656 0.8113 -0.5810
vn -0.9580 0.0428 -0.2836
vn 0.0061 0.8217 -0.5699
vn 0.0651 0.8199 -0.5687
vn 0.1929 0.4016 -0.8952
vn 0.1837 -0.7963 -0.5764
vn 0.1825 -0.7982 -0.5741
vn -0.9573 -0.0377 -0.2865
vn -0.0002 -0.9285 -0.3714
vn -0.0705 -0.9279 -0.3660
vn -0.0713 -0.9289 -0.3634
vn 0.0009 -0.9297 -0.3683
vn -0.8347 -0.5130 -0.2005
vn -0.8355 -0.5122 -0.1991
vn -0.9931 0.0439 -0.1090
vn -0.0686 0.8409 -0.5368
vn -0.9928 0.0597 -0.1036
vn 0.0660 0.9293 -0.3633
vn 0.0669 0.9306 -0.3598
vn 0.1810 0.9201 -0.3475
vn 0.1826 0.9181 -0.3517
vn 0.8357 0.4463 -0.3201
vn 0.8374 0.4421 -0.3213
vn 0.8375 0.3505 -0.4191
vn 0.8442 0.3336 -0.4196
vn -0.0605 -0.9884 -0.1391
vn -0.0666 -0.9908 -0.1175
vn -0.9912 -0.1242 0.0446
vn -0.9914 -0.1157 0.0606
vn -0.8345 0.5114 -0.2054
vn -0.8357 0.5106 -0.2023
vn 0.0098 0.9936 -0.1125
vn -0.9520 0.3052 -0.0228
vn 0.0353 0.9980 -0.0528
vn 0.0568 0.9917 -0.1151
vn 0.8401 0.5061 -0.1952
vn 0.8356 0.5090 -0.2067
vn -0.0642 -0.9904 0.1221
vn -0.0670 -0.9914 0.1123
vn -0.9520 0.3054 -0.0226
vn -0.8357 0.5148 -0.1913
vn -0.0689 0.9897 0.1254
vn -0.0665 0.9888 0.1334
vn 0.9565 -0.2663 0.1189
vn 0.9564 -0.2664 0.1194
vn -0.0004 -0.9307 0.3658
vn -0.0009 -0.9312 0.3645
vn -0.8275 -0.5217 0.2076
vn -0.8340 -0.5118 0.2059
vn -0.8359 -0.5102 0.2025
vn -0.8369 -0.4450 0.3185
vn -0.8352 -0.4451 0.3229
vn -0.8394 -0.2298 0.4925
vn -0.8407 -0.2262 0.4919
vn -0.8435 -0.2206 0.4897
vn -0.8462 0.2133 0.4884
vn -0.8428 0.2202 0.4912
vn -0.8365 0.2375 0.4938
vn -0.8355 0.5136 0.1954
vn -0.8349 0.5141 0.1964
vn -0.0738 0.9266 0.3687
vn -0.0734 0.9271 0.3675
vn 0.8358 0.3412 0.4302
vn 0.8383 0.3351 0.4300
vn 0.8445 0.2273 0.4849
vn 0.8477 0.2188 0.4832
vn 0.8480 -0.0777 0.5243
vn 0.8547 0.0592 0.5157
vn 0.8466 0.0772 0.5266
vn 0.8437 -0.0872 0.5296
vn 0.8465 -0.2248 0.4826
vn 0.8442 -0.2310 0.4838
vn 0.8420 -0.5070 0.1845
vn 0.8317 -0.5135 0.2112
vn -0.0676 -0.8235 0.5632
vn -0.0696 -0.8433 0.5329
vn -0.1820 -0.8483 0.4972
vn -0.1844 -0.8865 0.4243
vn -0.1891 0.3704 0.9094
vn -0.1853 0.3832 0.9049
vn -0.0764 0.8217 0.5648
vn -0.0730 0.8154 0.5743
vn 0.1895 0.3871 0.9023
vn 0.1909 0.3833 0.9037
vn -0.0634 -0.1194 0.9908
vn 0.0379 0.6314 0.7745
vn 0.0398 0.6224 0.7817
vn -0.0253 -0.1861 0.9822
vn -0.0104 -0.1490 0.9888
s 0
f 111//1 74//1 73//1
f 2//2 22//2 36//2
f 143//3 164//3 145//3
f 66//4 91//4 83//4
f 197//5 196//5 217//5
f 177//6 178//6 190//6
f 106//7 86//7 68//7
f 137//8 161//8 125//8
f 132//9 120//9 98//9
f 124//10 136//10 137//10
f 59//11 68//11 70//11
f 28//12 27//12 45//12
f 214//13 191//13 225//13
f 50//14 69//14 22//14
f 221//15 188//15 201//15
f 14//16 35//16 22//16
f 181//17 207//17 206//17
f 193//18 203//18 204//18
f 77//19 85//19 117//19
f 32//20 31//20 57//20
f 137//21 136//21 161//21
f 130//22 109//22 120//22
f 210//23 219//23 220//23
f 215//24 216//24 207//24
f 229//25 228//25 230//25
f 158//26 133//26 146//26
f 93//27 138//27 94//27
f 202//28 211//28 223//28
f 101//29 113//29 114//29
f 182//30 172//30 155//30
f 233//31 236//31 237//31
f 19//32 18//32 30//32
f 145//33 164//33 144//33
f 171//34 181//34 163//34
f 49//35 58//35 77//35
f 78//36 121//36 98//36
f 70//37 69//37 50//37
f 147//38 176//38 189//38
f 168//39 151//39 161//39
f 130//40 87//40 96//40
f 98//41 88//41 72//41
f 156//42 157//42 173//42
f 3//43 6//43 1//43
f 127//44 106//44 107//44
f 189//45 224//45 190//45
f 167//46 177//46 190//46
f 50//47 35//47 34//47
f 67//48 85//48 48//48
f 75//49 43//49 74//49
f 19//50 31//50 32//50
f 21//51 15//51 13//51
f 133//52 113//52 146//52
f 89//53 102//53 135//53
f 226//54 215//54 213//54
f 99//55 62//55 80//55
f 108//56 118//56 119//56
f 65//57 40//57 47//57
f 52//58 75//58 80//58
f 9//59 24//59 25//59
f 95//60 139//60 140//60
f 236//61 233//61 206//61
f 9//62 10//62 1//62
f 114//63 102//63 89//63
f 103//64 91//64 116//64
f 168//65 160//65 167//65
f 18//66 29//66 30//66
f 218//67 209//67 183//67
f 127//68 118//68 108//68
f 120//69 97//69 70//69
f 48//70 58//70 49//70
f 227//71 206//71 216//71
f 142//72 163//72 155//72
f 45//73 63//73 76//73
f 21//74 14//74 15//74
f 167//75 190//75 212//75
f 71//76 37//76 36//76
f 182//77 184//77 172//77
f 49//78 59//78 50//78
f 210//79 209//79 218//79
f 183//80 157//80 165//80
f 29//81 11//81 6//81
f 90//82 82//82 64//82
f 176//83 188//83 202//83
f 205//84 194//84 204//84
f 191//85 168//85 167//85
f 4//86 15//86 14//86
f 151//87 153//87 125//87
f 168//88 191//88 192//88
f 8//89 16//89 9//89
f 21//90 35//90 14//90
f 83//91 91//91 104//91
f 94//92 57//92 56//92
f 51//93 60//93 78//93
f 203//94 213//94 215//94
f 23//95 42//95 43//95
f 143//96 110//96 122//96
f 78//97 60//97 71//97
f 87//98 68//98 86//98
f 52//99 26//99 44//99
f 134//100 114//100 133//100
f 5//101 3//101 10//101
f 187//102 149//102 148//102
f 38//103 51//103 61//103
f 203//104 193//104 213//104
f 105//105 104//105 126//105
f 171//106 170//106 169//106
f 37//107 38//107 16//107
f 131//108 130//108 172//108
f 83//109 55//109 66//109
f 32//110 20//110 13//110
f 108//111 96//111 87//111
f 26//112 24//112 43//112
f 134//113 123//113 114//113
f 133//114 158//114 147//114
f 197//115 163//115 196//115
f 197//116 217//116 218//116
f 111//117 112//117 74//117
f 26//118 27//118 28//118
f 119//119 142//119 155//119
f 199//120 165//120 184//120
f 187//121 159//121 186//121
f 88//122 98//122 122//122
f 143//123 156//123 164//123
f 95//124 152//124 162//124
f 26//125 17//125 25//125
f 232//126 237//126 227//126
f 157//127 156//127 131//127
f 206//128 233//128 217//128
f 214//129 226//129 213//129
f 72//130 88//130 110//130
f 176//131 185//131 201//131
f 82//132 65//132 64//132
f 192//133 193//133 162//133
f 112//134 174//134 175//134
f 128//135 141//135 119//135
f 160//136 136//136 150//136
f 151//137 179//137 152//137
f 194//138 205//138 195//138
f 42//139 38//139 61//139
f 25//140 24//140 26//140
f 38//141 60//141 51//141
f 130//142 96//142 172//142
f 211//143 221//143 220//143
f 190//144 178//144 186//144
f 85//145 67//145 84//145
f 237//146 235//146 231//146
f 99//147 80//147 112//147
f 61//148 73//148 74//148
f 73//149 79//149 111//149
f 36//150 37//150 8//150
f 37//151 16//151 8//151
f 8//152 7//152 36//152
f 7//153 2//153 36//153
f 110//154 143//154 145//154
f 111//155 110//155 145//155
f 66//156 65//156 91//156
f 181//157 217//157 196//157
f 196//158 163//158 181//158
f 177//159 167//159 160//159
f 177//160 160//160 150//160
f 150//161 178//161 177//161
f 116//162 91//162 82//162
f 91//163 65//163 82//163
f 77//164 107//164 68//164
f 107//165 106//165 68//165
f 161//166 151//166 125//166
f 125//167 126//167 137//167
f 124//168 150//168 136//168
f 92//169 104//169 105//169
f 105//170 93//170 92//170
f 45//171 54//171 28//171
f 137//172 126//172 104//172
f 214//173 213//173 191//173
f 71//174 36//174 69//174
f 36//175 22//175 69//175
f 22//176 35//176 50//176
f 211//177 188//177 221//177
f 2//178 14//178 22//178
f 181//179 195//179 207//179
f 203//180 215//180 204//180
f 77//181 58//181 85//181
f 117//182 107//182 77//182
f 112//183 75//183 74//183
f 79//184 73//184 72//184
f 73//185 51//185 72//185
f 154//186 162//186 194//186
f 162//187 204//187 194//187
f 180//188 154//188 194//188
f 57//189 84//189 32//189
f 84//190 67//190 32//190
f 67//191 33//191 32//191
f 101//192 63//192 62//192
f 62//193 100//193 101//193
f 108//194 86//194 106//194
f 109//195 98//195 120//195
f 220//196 200//196 210//196
f 149//197 187//197 186//197
f 186//198 178//198 149//198
f 178//199 150//199 149//199
f 150//200 124//200 149//200
f 219//201 229//201 230//201
f 185//202 158//202 175//202
f 175//203 158//203 146//203
f 93//204 105//204 138//204
f 94//205 55//205 93//205
f 202//206 188//206 211//206
f 101//207 100//207 113//207
f 172//208 129//208 155//208
f 237//209 230//209 234//209
f 230//210 228//210 234//210
f 234//211 233//211 237//211
f 41//212 31//212 30//212
f 31//213 19//213 30//213
f 173//214 144//214 164//214
f 170//215 171//215 163//215
f 231//216 235//216 224//216
f 224//217 202//217 231//217
f 202//218 223//218 231//218
f 68//219 49//219 77//219
f 78//220 97//220 121//220
f 121//221 132//221 98//221
f 50//222 59//222 70//222
f 70//223 97//223 69//223
f 189//224 159//224 147//224
f 179//225 151//225 168//225
f 120//226 87//226 130//226
f 139//227 154//227 169//227
f 154//228 180//228 169//228
f 169//229 141//229 139//229
f 24//230 16//230 23//230
f 78//231 98//231 72//231
f 173//232 164//232 156//232
f 6//233 11//233 4//233
f 4//234 1//234 6//234
f 127//235 108//235 106//235
f 202//236 224//236 189//236
f 224//237 212//237 190//237
f 94//238 95//238 57//238
f 95//239 84//239 57//239
f 34//240 49//240 50//240
f 58//241 48//241 85//241
f 48//242 33//242 67//242
f 44//243 43//243 75//243
f 43//244 42//244 74//244
f 138//245 153//245 152//245
f 152//246 95//246 138//246
f 95//247 94//247 138//247
f 32//248 13//248 19//248
f 19//249 13//249 18//249
f 100//250 99//250 146//250
f 113//251 100//251 146//251
f 115//252 89//252 135//252
f 100//253 62//253 99//253
f 62//254 53//254 80//254
f 139//255 95//255 154//255
f 65//256 66//256 40//256
f 200//257 220//257 166//257
f 220//258 221//258 174//258
f 166//259 220//259 174//259
f 63//260 45//260 62//260
f 45//261 53//261 62//261
f 52//262 44//262 75//262
f 53//263 52//263 80//263
f 25//264 17//264 9//264
f 46//265 28//265 54//265
f 81//266 46//266 54//266
f 140//267 117//267 95//267
f 117//268 85//268 95//268
f 227//269 236//269 206//269
f 17//270 10//270 9//270
f 10//271 3//271 1//271
f 101//272 114//272 89//272
f 115//273 135//273 148//273
f 116//274 115//274 148//274
f 148//275 103//275 116//275
f 168//276 161//276 160//276
f 18//277 11//277 29//277
f 18//278 12//278 11//278
f 183//279 199//279 218//279
f 229//280 219//280 210//280
f 127//281 128//281 118//281
f 120//282 132//282 121//282
f 120//283 121//283 97//283
f 87//284 120//284 70//284
f 49//285 34//285 48//285
f 216//286 215//286 227//286
f 142//287 170//287 163//287
f 54//288 45//288 76//288
f 79//289 110//289 111//289
f 212//290 225//290 167//290
f 71//291 60//291 37//291
f 184//292 165//292 131//292
f 131//293 172//293 184//293
f 49//294 68//294 59//294
f 228//295 210//295 218//295
f 199//296 183//296 165//296
f 31//297 41//297 57//297
f 6//298 5//298 39//298
f 5//299 46//299 39//299
f 39//300 29//300 6//300
f 64//301 81//301 90//301
f 81//302 54//302 76//302
f 90//303 81//303 76//303
f 189//304 176//304 202//304
f 215//305 207//305 205//305
f 204//306 215//306 205//306
f 18//307 13//307 12//307
f 216//308 206//308 207//308
f 225//309 191//309 167//309
f 173//310 198//310 144//310
f 198//311 208//311 144//311
f 13//312 15//312 4//312
f 105//313 125//313 138//313
f 138//314 125//314 153//314
f 20//315 21//315 13//315
f 192//316 179//316 168//316
f 7//317 8//317 9//317
f 2//318 7//318 1//318
f 9//319 1//319 7//319
f 21//320 34//320 35//320
f 223//321 222//321 230//321
f 222//322 219//322 230//322
f 127//323 107//323 117//323
f 128//324 127//324 140//324
f 127//325 117//325 140//325
f 158//326 185//326 147//326
f 185//327 176//327 147//327
f 91//328 103//328 104//328
f 217//329 233//329 234//329
f 234//330 228//330 218//330
f 218//331 217//331 234//331
f 57//332 41//332 56//332
f 56//333 55//333 94//333
f 157//334 183//334 173//334
f 183//335 198//335 173//335
f 78//336 72//336 51//336
f 227//337 237//337 236//337
f 43//338 24//338 23//338
f 88//339 122//339 110//339
f 69//340 97//340 71//340
f 97//341 78//341 71//341
f 208//342 198//342 183//342
f 183//343 209//343 208//343
f 221//344 201//344 174//344
f 201//345 185//345 175//345
f 175//346 174//346 201//346
f 211//347 219//347 222//347
f 87//348 70//348 68//348
f 156//349 122//349 131//349
f 122//350 109//350 131//350
f 52//351 27//351 26//351
f 144//352 112//352 145//352
f 112//353 111//353 145//353
f 113//354 133//354 114//354
f 5//355 6//355 3//355
f 34//356 21//356 20//356
f 20//357 33//357 34//357
f 33//358 48//358 34//358
f 149//359 124//359 103//359
f 148//360 149//360 103//360
f 148//361 135//361 187//361
f 73//362 61//362 51//362
f 193//363 192//363 191//363
f 191//364 213//364 193//364
f 125//365 105//365 126//365
f 169//366 180//366 171//366
f 38//367 23//367 16//367
f 40//368 66//368 55//368
f 55//369 56//369 40//369
f 134//370 147//370 123//370
f 147//371 159//371 123//371
f 131//372 109//372 130//372
f 211//373 222//373 223//373
f 92//374 83//374 104//374
f 92//375 93//375 83//375
f 93//376 55//376 83//376
f 182//377 155//377 197//377
f 163//378 197//378 155//378
f 32//379 33//379 20//379
f 215//380 226//380 227//380
f 226//381 214//381 227//381
f 16//382 24//382 9//382
f 86//383 108//383 87//383
f 43//384 44//384 26//384
f 129//385 96//385 108//385
f 108//386 119//386 129//386
f 123//387 102//387 114//387
f 63//388 101//388 89//388
f 89//389 76//389 63//389
f 40//390 30//390 29//390
f 40//391 29//391 47//391
f 137//392 104//392 124//392
f 104//393 103//393 124//393
f 134//394 133//394 147//394
f 218//395 199//395 197//395
f 141//396 169//396 142//396
f 169//397 170//397 142//397
f 171//398 195//398 181//398
f 17//399 26//399 28//399
f 129//400 119//400 155//400
f 182//401 197//401 184//401
f 197//402 199//402 184//402
f 187//403 123//403 159//403
f 228//404 229//404 210//404
f 98//405 109//405 122//405
f 52//406 53//406 45//406
f 45//407 27//407 52//407
f 1//408 4//408 14//408
f 14//409 2//409 1//409
f 143//410 122//410 156//410
f 200//411 166//411 208//411
f 166//412 144//412 208//412
f 162//413 154//413 95//413
f 227//414 214//414 232//414
f 232//415 235//415 237//415
f 131//416 165//416 157//416
f 187//417 135//417 123//417
f 135//418 102//418 123//418
f 217//419 181//419 206//419
f 210//420 200//420 209//420
f 200//421 208//421 209//421
f 115//422 116//422 82//422
f 82//423 90//423 115//423
f 90//424 76//424 115//424
f 115//425 76//425 89//425
f 110//426 79//426 72//426
f 188//427 176//427 201//427
f 47//428 64//428 65//428
f 152//429 192//429 162//429
f 193//430 204//430 162//430
f 146//431 112//431 175//431
f 12//432 13//432 4//432
f 12//433 4//433 11//433
f 141//434 142//434 119//434
f 128//435 119//435 118//435
f 112//436 166//436 174//436
f 160//437 161//437 136//437
f 152//438 153//438 151//438
f 179//439 192//439 152//439
f 205//440 207//440 195//440
f 171//441 180//441 195//441
f 180//442 194//442 195//442
f 225//443 212//443 232//443
f 224//444 235//444 212//444
f 235//445 232//445 212//445
f 232//446 214//446 225//446
f 42//447 23//447 38//447
f 5//448 10//448 46//448
f 10//449 17//449 28//449
f 46//450 10//450 28//450
f 166//451 112//451 144//451
f 29//452 39//452 47//452
f 39//453 46//453 64//453
f 47//454 39//454 64//454
f 46//455 81//455 64//455
f 140//456 139//456 128//456
f 139//457 141//457 128//457
f 38//458 37//458 60//458
f 40//459 56//459 30//459
f 56//460 41//460 30//460
f 129//461 172//461 96//461
f 74//462 42//462 61//462
f 220//463 219//463 211//463
f 159//464 189//464 186//464
f 189//465 190//465 186//465
f 95//466 85//466 84//466
f 223//467 230//467 231//467
f 230//468 237//468 231//468
f 75//469 112//469 80//469
f 146//470 99//470 112//470
f 9//471 5//471 1//471
f 5//472 3//472 1//472
f 3//473 39//473 6//473
f 10//474 5//474 9//474
f 39//475 3//475 5//475
f 20//476 33//476 21//476
f 33//477 48//477 21//477
f 48//478 34//478 21//478
f 71//479 60//479 36//479
f 60//480 37//480 36//480
f 37//481 23//481 16//481
f 23//482 42//482 24//482
f 42//483 43//483 24//483
f 43//484 44//484 24//484
f 44//485 26//485 24//485
f 26//486 27//486 17//486
f 27//487 28//487 17//487
f 30//488 41//488 18//488
f 41//489 31//489 18//489
f 31//490 19//490 18//490
f 66//491 40//491 47//491
f 65//492 66//492 47//492
f 56//493 41//493 40//493
f 41//494 30//494 40//494
f 31//495 84//495 32//495
f 84//496 33//496 32//496
f 48//497 58//497 34//497
f 58//498 49//498 34//498
f 59//499 69//499 50//499
f 59//500 97//500 69//500
f 84//501 67//501 33//501
f 97//502 121//502 71//502
f 121//503 78//503 71//503
f 38//504 23//504 37//504
f 45//505 63//505 54//505
f 63//506 76//506 54//506
f 57//507 84//507 31//507
f 90//508 116//508 82//508
f 116//509 65//509 82//509
f 116//510 91//510 65//510
f 115//511 116//511 90//511
f 83//512 92//512 55//512
f 92//513 93//513 55//513
f 95//514 67//514 84//514
f 70//515 97//515 59//515
f 95//516 85//516 67//516
f 132//517 78//517 121//517
f 132//518 98//518 78//518
f 98//519 88//519 78//519
f 88//520 72//520 78//520
f 72//521 79//521 51//521
f 79//522 73//522 51//522
f 73//523 38//523 51//523
f 73//524 61//524 38//524
f 148//525 91//525 116//525
f 148//526 103//526 91//526
f 138//527 153//527 95//527
f 153//528 152//528 95//528
f 77//529 86//529 68//529
f 107//530 86//530 77//530
f 130//531 132//531 120//531
f 140//532 107//532 117//532
f 130//533 109//533 132//533
f 109//534 98//534 132//534
f 110//535 79//535 88//535
f 79//536 72//536 88//536
f 149//537 124//537 148//537
f 124//538 103//538 148//538
f 127//539 107//539 140//539
f 107//540 106//540 86//540
f 96//541 129//541 130//541
f 129//542 172//542 130//542
f 133//543 146//543 175//543
f 158//544 133//544 175//544
f 186//545 178//545 187//545
f 178//546 149//546 187//546
f 161//547 126//547 137//547
f 161//548 151//548 126//548
f 151//549 125//549 126//549
f 161//550 179//550 151//550
f 161//551 168//551 179//551
f 191//552 213//552 192//552
f 213//553 203//553 192//553
f 203//554 193//554 192//554
f 205//555 180//555 194//555
f 205//556 207//556 180//556
f 207//557 195//557 180//557
f 119//558 118//558 141//558
f 118//559 128//559 141//559
f 155//560 182//560 129//560
f 182//561 172//561 129//561
f 183//562 209//562 198//562
f 209//563 208//563 198//563
f 209//564 210//564 208//564
f 210//565 200//565 208//565
f 219//566 221//566 220//566
f 200//567 219//567 220//567
f 210//568 219//568 200//568
f 219//569 211//569 221//569
f 211//570 201//570 221//570
f 211//571 188//571 201//571
f 158//572 134//572 133//572
f 147//573 134//573 158//573
f 177//574 160//574 178//574
f 160//575 150//575 178//575
f 160//576 161//576 150//576
f 161//577 136//577 150//577
f 206//578 195//578 207//578
f 206//579 181//579 195//579
f 163//580 182//580 155//580
f 163//581 197//581 182//581
f 218//582 228//582 209//582
f 228//583 210//583 209//583
f 232//584 236//584 227//584
f 217//585 199//585 197//585
f 217//586 218//586 199//586
f 235//587 236//587 232//587
f 235//588 237//588 236//588
