# Blender 4.0.0
# www.blender.org
o decimated_mesh
v 0.559533 0.281453 0.032216
v 0.550102 0.284065 0.003769
v 0.543231 0.281237 0.032201
v 0.561491 0.282555 0.015275
v 0.530185 0.282234 0.000172
v 0.530185 0.281567 0.007533
v 0.559595 0.279992 -0.004978
v 0.564772 0.273223 0.015056
v 0.530185 0.279788 -0.005773
v 0.565211 -0.271537 0.015691
v 0.559268 -0.279962 -0.005355
v 0.561443 -0.282703 0.015311
v 0.529905 -0.282349 0.003946
v 0.543072 -0.280955 0.032201
v 0.559295 -0.281620 0.032135
v 0.550111 -0.284064 0.003806
v 0.530185 -0.279788 -0.005773
vn 0.0483 -0.9964 0.0703
vn 0.2735 0.9507 -0.1459
vn 0.9345 0.3316 -0.1294
vn 0.0004 -0.9128 -0.4083
vn -0.9996 -0.0000 -0.0288
vn 0.9364 0.3262 0.1294
vn -0.9064 -0.0022 0.4225
vn 0.9410 -0.0004 0.3383
vn 0.0050 0.9086 -0.4177
vn 0.9396 -0.3123 -0.1403
vn 0.9624 -0.0004 -0.2716
vn 0.9367 -0.3209 0.1402
vn -0.1108 0.9912 0.0718
vn 0.0596 0.9956 0.0717
vn 0.0144 -0.0000 -0.9999
vn -0.0163 0.9247 -0.3804
vn -0.0835 -0.9630 -0.2562
vn 0.2710 -0.9501 -0.1545
vn 1.0000 -0.0005 0.0001
vn 1.0000 -0.0000 -0.0000
vn 0.0041 -0.0000 1.0000
vn -0.0009 -0.0001 1.0000
vn -0.8840 0.0002 0.4675
vn 0.9566 0.0011 0.2915
vn 0.9682 0.0005 -0.2501
vn -0.0133 0.9953 0.0958
vn -0.1073 0.9902 0.0898
vn 0.0270 0.0007 -0.9996
vn -0.0403 -0.9943 0.0989
vn -0.0836 -0.9926 0.0879
vn -0.0009 -0.0000 1.0000
vn 0.0041 -0.0001 1.0000
vn -0.1045 0.9918 0.0734
vn -0.1440 0.9855 0.0893
vn 1.0000 -0.0005 0.0002
vn 1.0000 -0.0005 -0.0000
s 0
f 16//1 12//1 15//1
f 7//2 2//2 4//2
f 4//3 8//3 7//3
f 16//4 17//4 11//4
f 9//5 17//5 13//5
f 4//6 1//6 8//6
f 14//7 6//7 13//7
f 10//8 1//8 15//8
f 9//9 2//9 7//9
f 10//10 12//10 11//10
f 7//11 10//11 11//11
f 10//12 15//12 12//12
f 3//13 2//13 6//13
f 4//14 2//14 1//14
f 9//15 11//15 17//15
f 5//16 2//16 9//16
f 16//17 13//17 17//17
f 11//18 12//18 16//18
f 13//19 9//19 6//19
f 6//20 9//20 5//20
f 3//21 14//21 15//21
f 15//22 1//22 3//22
f 14//23 3//23 6//23
f 10//24 8//24 1//24
f 7//25 8//25 10//25
f 1//26 2//26 3//26
f 2//27 5//27 6//27
f 9//28 7//28 11//28
f 16//29 15//29 14//29
f 14//30 13//30 16//30
f 3//31 14//31 1//31
f 14//32 15//32 1//32
f 5//33 3//33 2//33
f 5//34 6//34 3//34
f 13//35 9//35 5//35
f 13//36 5//36 6//36
