# Blender 4.0.0
# www.blender.org
o decimated_mesh
v 0.000049 0.283003 0.049674
v -0.419425 0.282185 0.058675
v 0.000049 0.280142 0.062605
v -0.419419 0.238527 0.035457
v 0.000047 0.239427 0.038004
v -0.419423 0.256406 0.061910
v 0.000049 0.256406 0.061910
vn -0.0095 -0.0293 0.9995
vn -0.0199 0.4694 -0.8827
vn -0.0000 -0.8153 0.5790
vn 1.0000 -0.0000 -0.0000
vn 1.0000 -0.0000 -0.0001
vn -1.0000 -0.0001 -0.0001
vn -0.0000 0.1245 0.9922
vn 0.0053 0.2587 -0.9659
vn 0.0027 0.9764 0.2160
vn -0.0016 -0.8285 0.5600
vn 1.0000 -0.0001 -0.0000
vn -0.0087 0.1245 0.9922
vn -0.0000 -0.0293 0.9996
s 0
f 2//1 7//1 3//1
f 1//2 4//2 2//2
f 6//3 5//3 7//3
f 3//4 7//4 1//4
f 5//5 1//5 7//5
f 2//6 4//6 6//6
f 2//7 6//7 7//7
f 1//8 5//8 4//8
f 3//9 1//9 2//9
f 6//10 4//10 5//10
f 3//11 5//11 1//11
f 2//12 6//12 3//12
f 6//13 7//13 3//13
f 7//5 5//5 3//5
