# Blender 4.0.0
# www.blender.org
o decimated_mesh
v -0.564773 -0.273218 0.015028
v -0.559505 -0.279864 -0.005310
v -0.561491 -0.282622 0.014793
v -0.565214 0.271523 0.015768
v -0.559332 0.280006 -0.005129
v -0.549920 -0.284159 0.004038
v -0.559554 -0.281414 0.032213
v -0.561444 0.282704 0.015299
v -0.509754 -0.281119 -0.004734
v -0.559171 0.281836 0.032176
v -0.550055 0.284085 0.003785
v -0.509779 -0.281567 0.007477
v -0.543267 -0.281344 0.032199
v -0.509758 0.281006 -0.005197
v -0.543067 0.280956 0.032201
v -0.509779 0.281567 0.007477
vn -0.9363 -0.3234 -0.1369
vn -0.0184 -0.9155 -0.4018
vn -0.9355 -0.3297 0.1269
vn -0.9402 0.3112 -0.1383
vn -0.0608 0.9964 0.0594
vn -0.0190 0.9165 -0.3996
vn -0.9385 0.0007 0.3452
vn 0.0009 0.0001 1.0000
vn -0.9361 0.3216 0.1426
vn 0.0116 -0.0008 -0.9999
vn -0.9626 0.0004 -0.2708
vn -0.5939 -0.0000 -0.8045
vn 0.0534 0.9940 0.0959
vn 0.0542 0.9938 0.0976
vn 0.0044 -0.9951 0.0985
vn -0.2705 0.9504 -0.1535
vn -0.2722 -0.9493 -0.1571
vn -0.9570 -0.0012 0.2901
vn -0.0015 -0.0000 1.0000
vn -0.0616 -0.9952 0.0759
vn -0.0014 0.0003 -1.0000
vn -0.9681 -0.0004 -0.2507
vn -0.5963 0.0002 -0.8028
vn -1.0000 -0.0000 -0.0016
vn -1.0000 -0.0000 -0.0021
vn 0.0664 0.9968 -0.0440
vn 0.0675 -0.9971 -0.0365
vn 0.0569 -0.9947 0.0860
vn -0.0015 0.0001 1.0000
vn 0.0009 -0.0000 1.0000
vn -0.5963 -0.0000 -0.8028
vn -0.5939 0.0002 -0.8045
s 0
f 1//1 2//1 3//1
f 2//2 9//2 6//2
f 3//3 7//3 1//3
f 4//4 8//4 5//4
f 11//5 8//5 10//5
f 11//6 14//6 5//6
f 4//7 7//7 10//7
f 10//8 7//8 13//8
f 4//9 10//9 8//9
f 2//10 14//10 9//10
f 2//11 4//11 5//11
f 16//12 12//12 13//12
f 16//13 11//13 10//13
f 10//14 15//14 16//14
f 13//15 7//15 6//15
f 5//16 8//16 11//16
f 6//17 3//17 2//17
f 4//18 1//18 7//18
f 13//19 15//19 10//19
f 6//20 7//20 3//20
f 2//21 5//21 14//21
f 2//22 1//22 4//22
f 16//23 13//23 15//23
f 16//24 14//24 12//24
f 14//25 9//25 12//25
f 16//26 14//26 11//26
f 9//27 12//27 6//27
f 12//28 13//28 6//28
f 7//29 15//29 10//29
f 13//30 15//30 7//30
f 15//31 16//31 12//31
f 12//25 16//25 9//25
f 9//24 16//24 14//24
f 13//32 15//32 12//32
