# Blender 4.0.0
# www.blender.org
o decimated_mesh
v -0.558964 0.281724 0.031828
v -0.432330 0.067864 0.034733
v -0.429923 0.240071 0.033407
v -0.561254 0.067863 0.032547
v -0.558031 0.273565 0.038908
v -0.432330 0.067864 0.043387
v -0.419196 0.248026 0.035912
v -0.546400 0.279857 0.051365
v -0.418950 0.279863 0.063021
v -0.419464 0.281822 0.048415
v -0.545973 0.067864 0.051970
v -0.515656 0.279905 0.062030
v -0.447767 0.067865 0.061958
v -0.526273 0.282893 0.054990
v -0.419464 0.283023 0.056004
v -0.516375 0.067864 0.062295
vn -0.0000 1.0000 -0.0000
vn -0.0050 0.9116 0.4109
vn 0.0179 0.9876 -0.1562
vn 0.2350 -0.0108 -0.9719
vn 0.0775 0.2029 -0.9761
vn 0.1106 0.3456 -0.9318
vn 0.0049 0.0012 1.0000
vn 0.7646 -0.1071 0.6356
vn -0.3294 0.0020 0.9442
vn -0.2265 0.7258 0.6496
vn -0.7649 0.3701 0.5273
vn -0.7310 0.0005 0.6823
vn 0.0001 1.0000 -0.0000
vn -0.0000 -1.0000 -0.0000
vn -0.0036 0.9185 0.3953
vn -0.0103 -0.0036 0.9999
vn -0.3277 0.0023 0.9448
vn -0.9896 0.0111 0.1432
vn 0.0111 -0.0035 -0.9999
vn 0.0170 -0.0079 -0.9998
vn 0.9949 -0.0695 0.0726
vn 0.9974 -0.0727 -0.0000
vn 0.9993 0.0199 -0.0325
vn 0.9927 0.1194 -0.0189
vn -0.1826 0.9607 0.2092
vn -0.0008 0.9988 -0.0493
vn -0.7859 -0.0068 0.6183
vn 0.0049 -0.0057 1.0000
vn -0.0103 0.0013 0.9999
vn -0.0049 0.9179 0.3969
vn -0.0038 0.9117 0.4109
s 0
f 4//1 16//1 2//1
f 9//2 15//2 14//2
f 1//3 15//3 10//3
f 2//4 3//4 7//4
f 3//5 1//5 7//5
f 7//6 1//6 10//6
f 13//7 12//7 16//7
f 6//8 9//8 13//8
f 16//9 8//9 11//9
f 12//10 14//10 8//10
f 1//11 5//11 8//11
f 5//12 11//12 8//12
f 2//13 13//13 6//13
f 13//1 2//1 16//1
f 16//14 11//14 4//14
f 12//15 9//15 14//15
f 9//16 12//16 13//16
f 16//17 12//17 8//17
f 5//18 1//18 4//18
f 1//19 3//19 4//19
f 3//20 2//20 4//20
f 9//21 6//21 7//21
f 6//22 2//22 7//22
f 10//23 9//23 7//23
f 10//24 15//24 9//24
f 14//25 1//25 8//25
f 14//26 15//26 1//26
f 5//27 4//27 11//27
f 2//1 4//1 6//1
f 6//1 4//1 13//1
f 13//1 4//1 16//1
f 9//28 16//28 13//28
f 9//29 12//29 16//29
f 12//30 15//30 14//30
f 12//31 9//31 15//31
