# Blender 4.0.0
# www.blender.org
o decimated_mesh
v 0.525351 0.282835 0.055662
v 0.559501 0.281567 0.032006
v 0.000090 0.283031 0.056004
v 0.000088 0.279897 0.063014
v 0.515628 0.279921 0.062033
v 0.000090 0.281835 0.048415
v 0.546443 0.279815 0.051467
v 0.000081 0.241055 0.035248
v 0.514197 0.238673 0.062958
v 0.545968 0.238938 0.051954
v 0.557999 0.273580 0.038911
v 0.000090 0.256406 0.061909
v 0.000090 0.240571 0.044840
v 0.561246 0.238944 0.032565
vn 0.7848 -0.0397 0.6184
vn -0.0267 -0.7329 0.6799
vn 0.2345 0.6976 0.6771
vn -0.0041 0.9878 -0.1557
vn -0.0037 -0.0470 0.9989
vn 0.7707 0.3276 0.5466
vn -0.0278 0.3071 -0.9513
vn 0.1788 0.9619 0.2066
vn 0.3243 0.0100 0.9459
vn 0.7357 -0.0005 0.6773
vn -0.0048 -0.0133 -0.9999
vn 0.0019 0.9987 0.0505
vn 0.0038 0.9999 0.0148
vn 0.0113 -0.9999 0.0086
vn -1.0000 -0.0010 0.0009
vn -1.0000 -0.0001 0.0004
vn -1.0000 0.0005 -0.0001
vn -1.0000 0.0003 -0.0001
vn 0.0006 0.9129 0.4081
vn 0.0008 0.9089 0.4169
vn 0.0019 0.0224 0.9997
vn 0.9648 0.0429 0.2595
vn 0.3272 0.0074 0.9449
vn 0.0003 0.9986 -0.0530
vn 1.0000 -0.0002 -0.0000
vn 1.0000 -0.0003 0.0001
vn 0.0040 0.9987 0.0505
vn 0.0032 0.9999 0.0139
s 0
f 11//1 10//1 14//1
f 12//2 13//2 9//2
f 1//3 5//3 7//3
f 2//4 6//4 3//4
f 4//5 12//5 9//5
f 7//6 11//6 2//6
f 8//7 6//7 2//7
f 2//8 1//8 7//8
f 9//9 7//9 5//9
f 11//10 7//10 10//10
f 14//11 8//11 2//11
f 13//12 9//12 8//12
f 8//13 9//13 14//13
f 10//14 9//14 14//14
f 13//15 12//15 8//15
f 12//16 4//16 8//16
f 6//17 4//17 3//17
f 6//18 8//18 4//18
f 3//19 4//19 1//19
f 4//20 5//20 1//20
f 5//21 4//21 9//21
f 2//22 11//22 14//22
f 9//23 10//23 7//23
f 2//24 3//24 1//24
f 6//25 3//25 8//25
f 8//26 3//26 4//26
f 14//27 8//27 13//27
f 14//28 13//28 9//28
