# Blender 4.0.0
# www.blender.org
o decimated_mesh
v -0.571851 -0.294062 0.073222
v -0.577784 0.006394 0.072905
v -0.581761 -0.295981 0.071585
v -0.596819 -0.359770 0.054439
v -0.571841 0.006391 -0.006635
v -0.606233 -0.371332 0.048082
v -0.571841 -0.348004 0.058546
v -0.605923 0.006391 -0.005248
v -0.609485 -0.364017 0.039846
v -0.572037 -0.371843 0.048381
v -0.608583 0.006389 0.049430
v -0.609727 0.006391 0.003627
v -0.605266 -0.370611 -0.004361
v -0.608906 -0.364017 0.003627
v -0.571852 -0.371287 -0.004462
vn -0.8866 -0.4619 -0.0227
vn -0.0000 1.0000 -0.0000
vn -0.1145 -0.2326 0.9658
vn -0.0032 -0.0058 -1.0000
vn -0.4330 -0.1372 0.8909
vn -0.6062 0.0045 0.7953
vn -0.0203 -0.9997 -0.0141
vn -0.1625 -0.0022 0.9867
vn -0.9108 -0.0026 -0.4129
vn 0.0336 -0.3923 0.9192
vn -0.9997 0.0018 0.0250
vn -0.9075 -0.4197 -0.0145
vn -0.9323 -0.0071 0.3617
vn -0.0001 1.0000 -0.0000
vn -0.0350 -0.2624 0.9643
vn -0.0407 -0.0024 -0.9992
vn -0.0148 -0.4725 0.8812
vn -0.6816 -0.0069 0.7317
vn -0.0149 -0.9998 -0.0106
vn 0.9970 0.0198 0.0745
vn -1.0000 -0.0000 -0.0000
vn -1.0000 -0.0003 0.0003
vn 0.9999 -0.0097 0.0034
vn -0.9191 -0.0020 -0.3940
vn -0.9999 -0.0022 -0.0160
vn -1.0000 -0.0001 -0.0004
vn -1.0000 -0.0000 0.0002
vn -0.0002 1.0000 0.0001
s 0
f 6//1 14//1 13//1
f 12//2 11//2 5//2
f 1//3 3//3 4//3
f 13//4 5//4 15//4
f 6//5 4//5 3//5
f 3//6 2//6 11//6
f 6//7 13//7 15//7
f 1//8 2//8 3//8
f 14//9 8//9 13//9
f 7//10 4//10 10//10
f 12//11 9//11 11//11
f 6//12 9//12 14//12
f 11//13 9//13 6//13
f 2//14 5//14 11//14
f 5//2 8//2 12//2
f 1//15 4//15 7//15
f 13//16 8//16 5//16
f 10//17 4//17 6//17
f 11//18 6//18 3//18
f 15//19 10//19 6//19
f 2//20 1//20 5//20
f 5//21 15//21 1//21
f 1//22 15//22 7//22
f 7//23 10//23 15//23
f 14//24 12//24 8//24
f 12//25 14//25 9//25
f 7//26 1//26 5//26
f 15//27 7//27 5//27
f 8//2 2//2 5//2
f 8//2 12//2 2//2
f 12//28 11//28 2//28
