# Blender 4.0.0
# www.blender.org
o decimated_mesh
v 0.000098 0.357867 0.008564
v 0.000096 0.350990 0.072262
v 0.000098 0.382113 0.008564
v 0.610005 0.346334 0.008559
v 0.000098 0.357631 0.072323
v 0.582471 0.346436 0.072058
v 0.000099 0.381390 0.048368
v 0.579478 0.357243 0.071921
v 0.608472 0.346435 0.049099
v 0.606090 0.368130 0.051748
v 0.605156 0.380582 0.047944
v 0.606311 0.380753 0.008554
v 0.609456 0.372618 0.039858
vn 0.8912 0.4527 0.0281
vn -1.0000 0.0003 0.0003
vn -0.0188 -0.9940 -0.1073
vn 0.6618 -0.0188 0.7495
vn 0.0013 1.0000 0.0044
vn 0.5527 0.1634 0.8172
vn 0.9528 0.0685 0.2957
vn 0.0014 0.7158 0.6983
vn -0.0000 -0.0000 1.0000
vn 0.9296 0.1697 0.3273
vn 0.9917 0.1064 -0.0720
vn 1.0000 -0.0000 -0.0000
vn 1.0000 -0.0001 -0.0000
vn -0.0078 -1.0000 -0.0018
vn 0.0022 -1.0000 0.0026
vn 0.0022 0.9998 0.0182
vn 0.0010 0.7100 0.7042
vn 0.5014 0.2870 0.8163
vn -0.0000 0.0001 1.0000
vn 0.9990 -0.0242 0.0378
vn 0.0007 -0.0091 1.0000
vn 0.0005 0.0127 0.9999
vn 0.0022 1.0000 0.0044
vn 0.0013 0.9998 0.0182
vn 0.0007 0.0128 0.9999
vn 0.0003 -0.0091 1.0000
s 0
f 12//1 11//1 13//1
f 5//2 7//2 2//2
f 1//3 4//3 2//3
f 6//4 9//4 10//4
f 12//5 7//5 11//5
f 6//6 10//6 8//6
f 10//7 9//7 13//7
f 8//8 11//8 7//8
f 4//9 3//9 1//9
f 11//10 10//10 13//10
f 13//11 4//11 12//11
f 7//12 1//12 3//12
f 1//13 7//13 2//13
f 2//14 4//14 6//14
f 9//15 6//15 4//15
f 12//16 3//16 7//16
f 7//17 5//17 8//17
f 11//18 8//18 10//18
f 3//19 4//19 12//19
f 13//20 9//20 4//20
f 8//21 5//21 2//21
f 2//22 6//22 8//22
f 4//19 12//19 1//19
f 1//9 12//9 3//9
f 3//23 11//23 12//23
f 3//24 7//24 11//24
f 2//12 1//12 3//12
f 2//13 3//13 7//13
f 5//25 6//25 8//25
f 5//26 2//26 6//26
