# Blender 4.0.0
# www.blender.org
o decimated_mesh
v 0.572441 -0.280536 0.074163
v 0.572442 -0.279464 0.064219
v -0.571729 -0.279733 0.064320
v -0.571729 -0.280901 0.073416
v 0.572441 -0.360505 0.041402
v -0.571729 -0.362324 0.041430
v -0.571729 -0.348012 0.058551
v -0.571729 -0.372484 0.046533
v 0.572441 -0.373164 0.046395
vn -0.0002 -0.4408 0.8976
vn -0.0001 0.2710 -0.9626
vn -0.0004 0.9919 0.1273
vn 1.0000 -0.0000 -0.0000
vn -0.0006 -0.2163 0.9763
vn -0.0004 -0.4488 -0.8936
vn -0.0004 0.2671 -0.9637
vn -1.0000 -0.0000 -0.0000
vn -0.0002 0.9942 0.1072
vn 1.0000 -0.0000 0.0001
vn 0.0039 -0.2872 0.9579
vn 0.0006 -0.3669 -0.9302
s 0
f 8//1 9//1 7//1
f 3//2 2//2 5//2
f 1//3 3//3 4//3
f 5//4 2//4 1//4
f 7//5 1//5 4//5
f 6//6 9//6 8//6
f 6//7 3//7 5//7
f 3//8 6//8 4//8
f 7//8 6//8 8//8
f 7//8 4//8 6//8
f 1//9 2//9 3//9
f 1//10 9//10 5//10
f 7//11 9//11 1//11
f 6//12 5//12 9//12
f 1//4 9//4 2//4
f 9//10 5//10 2//10
