# Blender 4.0.0
# www.blender.org
o decimated_mesh
v 0.042351 0.006531 -0.050581
v 0.042351 0.006531 -0.050049
v 0.043555 0.006533 -0.050043
v 0.042351 0.044933 -0.050049
v 0.060506 0.109923 -0.050049
v 0.043256 0.100517 -0.071930
v 0.060955 0.100411 -0.064542
v 0.058203 0.100492 -0.065863
v 0.042351 0.109841 -0.063613
v 0.042351 0.077867 -0.067143
v 0.050032 0.022287 -0.050054
v 0.062955 0.099694 -0.062956
v 0.042356 0.100567 -0.072085
v 0.059925 0.102315 -0.064414
v 0.062950 0.101173 -0.062937
v 0.064845 0.100574 -0.060503
v 0.062190 0.110577 -0.050048
v 0.042351 0.110455 -0.065036
v 0.064112 0.110014 -0.050047
v 0.042364 0.110423 -0.066116
v 0.042347 0.106173 -0.069802
v 0.059007 0.106562 -0.062801
v 0.061262 0.106650 -0.061262
v 0.069162 0.100465 -0.050062
v 0.058755 0.110661 -0.058952
v 0.042351 0.109771 -0.067449
v 0.059817 0.109896 -0.059690
v 0.062797 0.106661 -0.058919
v 0.061163 0.109827 -0.057651
v 0.058108 0.109880 -0.060880
v 0.055149 0.040608 -0.050049
v 0.066634 0.106373 -0.050049
vn 1.0000 0.0026 -0.0023
vn -0.0001 -0.0002 -1.0000
vn 0.4388 0.8601 -0.2603
vn 0.8083 -0.2256 -0.5439
vn 0.3989 -0.2074 -0.8932
vn 0.0014 -1.0000 -0.0000
vn 0.1778 0.3715 -0.9113
vn 0.7706 0.3903 -0.5038
vn -0.5908 0.1650 0.7898
vn -0.3268 0.8405 0.4323
vn -0.2916 0.8783 0.3788
vn 0.7127 0.5363 -0.4521
vn 0.3158 0.5382 -0.7815
vn 0.2799 0.9549 -0.0990
vn 0.8534 0.3800 -0.3568
vn 0.3006 0.8445 -0.4431
vn 0.5084 0.3913 -0.7671
vn 0.1553 -0.2102 -0.9652
vn 0.7789 0.5397 -0.3194
vn 0.4214 0.2861 -0.8606
vn 0.0158 0.9995 -0.0290
vn 1.0000 -0.0001 0.0007
vn 1.0000 -0.0000 -0.0000
vn 0.9996 0.0262 0.0114
vn 0.9998 -0.0209 0.0004
vn 1.0000 -0.0012 -0.0000
vn 0.0016 0.0029 -1.0000
vn 0.0005 0.0009 -1.0000
vn -0.0005 0.0006 1.0000
vn -0.0012 0.0003 -1.0000
vn -0.0007 -0.0000 -1.0000
vn 0.0044 -0.0025 -1.0000
vn 0.0001 0.0003 -1.0000
vn 0.4076 0.8952 -0.1801
vn 0.8093 -0.2254 -0.5425
vn 0.3677 -0.2063 -0.9068
vn 0.4142 -0.2405 -0.8778
vn 0.3799 -0.2096 -0.9010
vn 0.7903 0.0108 -0.6126
vn 0.3510 0.3787 -0.8564
vn 0.3476 0.3851 -0.8549
vn 0.3095 0.3952 -0.8649
vn 0.4753 0.5459 -0.6900
vn 0.4620 0.5349 -0.7074
vn 0.1681 0.8927 -0.4181
vn 0.1768 0.8835 -0.4338
vn 0.7688 0.3915 -0.5056
vn 0.6996 0.5459 -0.4609
vn 0.3263 0.5170 -0.7913
vn 0.8603 0.3689 -0.3518
vn 0.5119 0.3304 -0.7930
vn 0.5195 0.3991 -0.7555
vn 0.7847 0.5324 -0.3175
vn 0.6240 0.0124 -0.7813
vn -0.0224 0.9996 0.0181
vn 0.9025 -0.2113 -0.3754
vn 0.5483 -0.2260 -0.8052
vn 0.5542 -0.2260 -0.8011
vn 1.0000 -0.0007 -0.0003
vn 1.0000 -0.0015 0.0004
vn 0.3210 0.5180 -0.7928
vn 0.3475 0.3975 -0.8492
vn 0.3462 0.3786 -0.8584
vn 1.0000 0.0004 0.0031
vn 1.0000 0.0003 0.0011
vn 1.0000 -0.0000 -0.0002
vn 1.0000 -0.0001 -0.0006
vn -0.0188 0.9997 0.0166
vn -0.0017 0.9996 -0.0292
vn 0.9988 -0.0477 0.0135
vn 0.1748 0.8838 -0.4340
vn 0.3211 0.5383 -0.7792
vn 0.5061 0.3995 -0.7643
vn 0.3520 0.3558 -0.8657
vn 0.5189 0.3922 -0.7596
vn 0.3726 -0.2099 -0.9040
vn 0.3984 -0.2123 -0.8923
vn 0.0044 -0.0000 -1.0000
vn 0.0005 -0.0001 -1.0000
vn 0.1700 0.8922 -0.4185
vn 0.7039 0.5380 -0.4637
vn 0.4175 -0.2138 -0.8832
vn -0.0076 0.0024 -1.0000
vn -0.0009 0.0002 -1.0000
vn -0.0007 0.0001 -1.0000
vn 0.7799 0.5404 -0.3158
vn 0.7828 0.5329 -0.3213
vn 0.7080 0.5454 -0.4487
vn -0.0037 0.0006 -1.0000
s 0
f 13//1 21//1 9//1
f 31//2 4//2 24//2
f 29//3 27//3 25//3
f 11//4 12//4 31//4
f 3//5 1//5 10//5
f 1//6 3//6 2//6
f 21//7 6//7 13//7
f 16//8 15//8 28//8
f 9//9 4//9 5//9
f 5//10 17//10 9//10
f 9//11 17//11 18//11
f 23//12 27//12 29//12
f 21//13 30//13 22//13
f 25//14 17//14 19//14
f 16//15 28//15 32//15
f 25//16 27//16 30//16
f 22//17 23//17 15//17
f 10//18 13//18 6//18
f 19//19 32//19 28//19
f 7//20 8//20 14//20
f 20//21 18//21 17//21
f 13//22 9//22 10//22
f 10//23 4//23 1//23
f 1//23 4//23 2//23
f 4//23 10//23 9//23
f 18//24 9//24 20//24
f 20//25 9//25 26//25
f 26//26 9//26 21//26
f 24//27 5//27 32//27
f 32//28 5//28 19//28
f 19//29 17//29 5//29
f 5//30 24//30 4//30
f 4//31 11//31 2//31
f 11//32 3//32 2//32
f 11//33 4//33 31//33
f 19//34 29//34 25//34
f 16//35 31//35 12//35
f 6//36 8//36 10//36
f 8//37 7//37 10//37
f 7//38 3//38 10//38
f 16//39 12//39 15//39
f 21//40 22//40 6//40
f 6//41 22//41 8//41
f 14//42 8//42 22//42
f 30//43 27//43 23//43
f 23//44 22//44 30//44
f 30//45 26//45 25//45
f 25//46 26//46 20//46
f 15//47 23//47 28//47
f 28//48 23//48 29//48
f 26//49 30//49 21//49
f 16//50 32//50 24//50
f 7//51 14//51 15//51
f 14//52 22//52 15//52
f 29//53 19//53 28//53
f 15//54 12//54 7//54
f 25//55 20//55 17//55
f 31//56 16//56 24//56
f 3//57 7//57 11//57
f 12//58 11//58 7//58
f 9//59 21//59 18//59
f 18//60 21//60 26//60
f 26//61 22//61 21//61
f 22//62 14//62 21//62
f 14//63 6//63 21//63
f 13//64 21//64 10//64
f 10//65 21//65 1//65
f 1//23 21//23 2//23
f 2//66 21//66 4//66
f 4//67 21//67 9//67
f 17//68 25//68 18//68
f 25//69 20//69 18//69
f 20//70 18//70 26//70
f 20//71 30//71 26//71
f 30//72 22//72 26//72
f 23//73 14//73 22//73
f 8//74 6//74 14//74
f 23//75 15//75 14//75
f 8//76 1//76 10//76
f 8//77 3//77 1//77
f 3//78 2//78 4//78
f 3//79 4//79 19//79
f 19//79 4//79 5//79
f 30//80 20//80 25//80
f 27//81 28//81 23//81
f 3//82 8//82 7//82
f 11//83 3//83 31//83
f 31//84 3//84 32//84
f 32//85 3//85 19//85
f 32//86 29//86 19//86
f 32//87 28//87 29//87
f 28//88 27//88 29//88
f 24//89 31//89 32//89
