# Blender 4.0.0
# www.blender.org
o decimated_mesh
v -0.076504 0.100334 -0.010895
v -0.075554 0.100705 -0.021668
v -0.076491 0.100558 -0.010895
v -0.070195 0.105092 -0.042896
v -0.057896 0.006680 -0.010919
v -0.072011 0.100491 -0.042904
v -0.048659 0.006681 -0.010895
v -0.074431 0.105814 -0.010895
v -0.067161 0.109894 -0.042897
v -0.072166 0.109726 -0.010900
v -0.053395 0.006681 -0.035387
v -0.041084 0.006681 -0.040550
v -0.041084 0.008704 -0.042900
v -0.070994 0.109935 -0.021806
v -0.067942 0.109928 -0.040216
v -0.041084 0.006681 -0.042900
v -0.070548 0.110352 -0.010903
v -0.065463 0.110569 -0.042891
v -0.050386 0.006681 -0.042900
v -0.063225 0.109665 -0.042900
v -0.068628 0.109773 -0.010895
vn -0.0000 -0.0000 1.0000
vn -0.9766 -0.1940 -0.0929
vn -0.0000 1.0000 -0.0000
vn -0.9488 -0.2081 -0.2377
vn 0.3740 0.9255 0.0600
vn 1.0000 -0.0000 -0.0000
vn -0.8562 0.4956 -0.1458
vn -0.0009 0.0003 -1.0000
vn -0.0004 0.0091 -1.0000
vn 0.0004 0.0001 -1.0000
vn -0.0000 -0.0000 -1.0000
vn -0.0026 0.0029 -1.0000
vn -0.0015 0.0022 1.0000
vn -0.0026 -0.0008 1.0000
vn -0.0016 0.0096 1.0000
vn -0.9078 -0.2093 -0.3635
vn -0.9944 0.0617 -0.0857
vn -0.0001 1.0000 -0.0000
vn -0.9686 -0.1876 -0.1629
vn -0.9312 -0.2763 -0.2379
vn -0.2197 0.9752 -0.0283
vn -0.3665 0.9229 -0.1183
vn -0.3006 0.9524 -0.0502
vn -0.3609 0.9324 -0.0209
vn 0.2880 0.9562 0.0523
vn -0.8196 0.5178 -0.2453
vn -0.9626 -0.2052 -0.1771
vn -0.9668 -0.1998 -0.1593
vn -0.8877 0.4363 -0.1473
vn -0.8720 0.4740 -0.1221
vn -0.9186 0.3628 -0.1569
vn -0.9284 0.3638 -0.0758
vn -0.8936 0.4402 -0.0876
vn 0.0002 1.0000 0.0001
vn -0.9523 -0.1844 -0.2433
vn -0.9623 -0.2061 -0.1774
vn -0.9639 -0.2114 -0.1620
vn -0.8913 0.4386 -0.1151
vn -0.8893 0.4373 -0.1341
vn 0.0002 -0.0000 -1.0000
vn -0.0089 0.0054 -0.9999
vn -0.0008 0.0012 -1.0000
vn -0.8625 0.4993 -0.0831
vn -0.8642 0.4822 -0.1435
s 0
f 3//1 1//1 21//1
f 2//2 5//2 1//2
f 19//3 12//3 16//3
f 13//4 7//4 20//4
f 20//5 18//5 21//5
f 12//6 16//6 13//6
f 2//7 8//7 10//7
f 4//8 9//8 20//8
f 9//9 18//9 20//9
f 20//10 13//10 6//10
f 13//11 16//11 19//11
f 6//11 13//11 19//11
f 4//12 20//12 6//12
f 10//13 8//13 21//13
f 8//1 3//1 21//1
f 1//14 5//14 7//14
f 7//1 21//1 1//1
f 17//15 10//15 21//15
f 19//16 11//16 6//16
f 2//17 1//17 3//17
f 12//3 11//3 7//3
f 11//18 5//18 7//18
f 11//3 12//3 19//3
f 21//19 20//19 7//19
f 7//20 13//20 12//20
f 17//21 18//21 14//21
f 18//22 9//22 15//22
f 14//23 18//23 15//23
f 14//24 10//24 17//24
f 17//25 21//25 18//25
f 9//26 4//26 15//26
f 6//27 11//27 5//27
f 2//28 6//28 5//28
f 14//29 15//29 2//29
f 15//30 4//30 2//30
f 4//31 6//31 2//31
f 2//32 3//32 8//32
f 10//33 14//33 2//33
f 11//34 5//34 19//34
f 19//3 5//3 16//3
f 16//18 5//18 12//18
f 12//18 5//18 7//18
f 12//35 7//35 21//35
f 12//36 21//36 13//36
f 13//37 21//37 20//37
f 8//38 14//38 2//38
f 14//39 4//39 2//39
f 6//11 16//11 19//11
f 6//40 13//40 16//40
f 4//41 9//41 6//41
f 9//42 20//42 6//42
f 14//43 8//43 10//43
f 15//44 4//44 14//44
