# Blender 4.0.0
# www.blender.org
o decimated_mesh
v 0.071207 0.110336 0.000006
v 0.066372 0.110516 -0.040527
v 0.072558 0.110013 0.000006
v 0.069603 0.110412 -0.021497
v 0.064799 0.110080 -0.040537
v 0.069959 0.109937 0.000006
v 0.063849 0.109001 -0.040535
v 0.071060 0.109861 -0.021864
v 0.072055 0.109795 -0.011093
v 0.067790 0.109982 -0.040537
v 0.068987 0.108409 0.000006
v 0.075095 0.106125 0.000001
v 0.070190 0.106177 -0.040537
v 0.042977 0.008096 -0.040537
v 0.050849 0.008096 0.000006
v 0.051572 0.008096 -0.040537
v 0.075376 0.101303 -0.021474
v 0.058882 0.008096 0.000006
v 0.077248 0.100406 0.000005
v 0.075288 0.100284 -0.023718
v 0.072352 0.100481 -0.040535
v 0.076525 0.100470 -0.010819
v 0.053586 0.008097 -0.035535
v 0.057741 0.008096 -0.014543
v 0.067293 0.076147 -0.040537
vn -0.0001 0.0003 1.0000
vn -0.0000 1.0000 -0.0000
vn -0.7467 0.6580 0.0974
vn 0.9647 -0.2006 -0.1707
vn 0.9766 -0.1949 -0.0909
vn 0.9872 0.1273 -0.0965
vn -0.2674 0.9628 0.0374
vn 0.0208 0.9998 0.0020
vn 0.4781 0.8774 -0.0389
vn -0.0001 -0.0000 -1.0000
vn 0.9620 -0.1990 -0.1868
vn 0.2327 0.9724 -0.0139
vn 0.0002 -0.0000 1.0000
vn -0.0000 -0.0000 1.0000
vn -0.0012 -0.0011 -1.0000
vn -0.0005 0.0009 -1.0000
vn 0.0001 0.0001 1.0000
vn -0.0000 1.0000 -0.0002
vn -0.0001 1.0000 0.0001
vn 0.3471 0.9373 -0.0303
vn 0.3416 0.9383 -0.0537
vn 0.3517 0.9345 -0.0546
vn 0.9597 -0.2073 -0.1899
vn 0.9647 -0.2005 -0.1708
vn 0.9779 -0.1946 -0.0767
vn 0.9783 -0.1963 -0.0665
vn -0.3045 0.9516 0.0406
vn 0.9070 -0.2095 -0.3653
vn 0.0001 -0.0017 -1.0000
vn -0.0008 -0.0208 0.9998
vn -0.0003 -0.0002 -1.0000
vn -0.0004 -0.0005 -1.0000
vn 0.0001 0.0001 -1.0000
vn -0.0000 -0.0000 -1.0000
vn -0.8380 0.5336 0.1140
vn 0.9762 -0.1765 -0.1263
vn -0.9342 -0.3517 0.0603
vn 0.9007 0.4299 -0.0635
vn 0.8980 0.4274 -0.1047
vn 0.8732 0.4300 -0.2295
vn 0.8915 0.4460 -0.0797
vn 0.9233 0.3503 -0.1571
vn -0.8371 -0.5279 0.1431
vn 0.8985 0.4209 -0.1249
vn 0.8364 0.5460 -0.0486
vn 0.9715 -0.2009 -0.1261
vn 0.9666 -0.1748 -0.1877
vn 0.0001 -0.0001 1.0000
vn 0.0067 0.0031 1.0000
vn -0.2674 0.9629 0.0362
vn -0.3045 0.9516 0.0421
vn -0.0024 0.0005 -1.0000
vn 0.9777 -0.1957 -0.0767
vn 0.9786 -0.1947 -0.0665
vn 0.8702 0.4866 -0.0775
vn 0.8910 0.4454 -0.0884
vn 0.8878 0.4419 -0.1285
vn 0.3516 0.9345 -0.0555
vn 0.3418 0.9383 -0.0529
vn 0.9263 0.3701 -0.0710
vn 0.0002 0.0001 -1.0000
vn -0.0002 -0.0004 -1.0000
vn 0.0003 -0.0000 -1.0000
vn -0.0014 1.0000 0.0003
vn 0.9647 -0.2005 -0.1705
vn 0.9647 -0.2006 -0.1708
vn 0.9227 0.3501 -0.1615
vn 0.9476 0.2754 -0.1622
s 0
f 3//1 1//1 11//1
f 15//2 24//2 14//2
f 6//3 5//3 7//3
f 25//4 20//4 24//4
f 24//5 20//5 22//5
f 20//6 17//6 22//6
f 6//7 2//7 5//7
f 1//8 4//8 2//8
f 9//9 8//9 3//9
f 7//10 25//10 14//10
f 15//11 14//11 7//11
f 1//12 3//12 4//12
f 11//13 15//13 19//13
f 15//14 18//14 19//14
f 19//15 11//15 12//15
f 12//16 11//16 3//16
f 1//17 6//17 11//17
f 16//18 14//18 23//18
f 23//19 14//19 24//19
f 24//2 15//2 18//2
f 4//20 3//20 8//20
f 8//21 10//21 4//21
f 10//22 2//22 4//22
f 23//23 25//23 24//23
f 25//24 21//24 20//24
f 18//25 24//25 19//25
f 22//26 19//26 24//26
f 6//27 1//27 2//27
f 16//28 25//28 23//28
f 10//29 7//29 5//29
f 5//30 10//30 2//30
f 10//31 13//31 7//31
f 13//32 21//32 7//32
f 21//33 25//33 7//33
f 25//34 16//34 14//34
f 11//35 6//35 7//35
f 15//36 7//36 11//36
f 19//37 12//37 22//37
f 22//38 17//38 9//38
f 12//39 22//39 9//39
f 17//40 20//40 8//40
f 9//41 17//41 8//41
f 20//42 21//42 13//42
f 13//43 8//43 10//43
f 20//44 13//44 8//44
f 9//45 3//45 12//45
f 7//46 11//46 14//46
f 14//47 11//47 15//47
f 15//14 18//14 11//14
f 18//13 19//13 11//13
f 19//48 3//48 11//48
f 19//49 12//49 3//49
f 2//50 5//50 1//50
f 5//51 6//51 1//51
f 5//52 14//52 7//52
f 16//2 18//2 24//2
f 16//2 15//2 18//2
f 16//2 14//2 15//2
f 5//34 16//34 14//34
f 24//53 22//53 18//53
f 22//54 19//54 18//54
f 12//55 8//55 9//55
f 12//56 17//56 8//56
f 17//57 13//57 8//57
f 10//58 2//58 8//58
f 2//59 4//59 8//59
f 22//60 17//60 12//60
f 10//61 13//61 5//61
f 13//62 21//62 5//62
f 21//63 25//63 5//63
f 25//34 16//34 5//34
f 23//64 16//64 24//64
f 25//65 21//65 24//65
f 21//66 20//66 24//66
f 21//67 13//67 17//67
f 20//68 21//68 17//68
