# Blender 4.0.0
# www.blender.org
o decimated_mesh
v -0.070268 0.099693 0.047081
v -0.068919 0.100621 0.050642
v -0.070101 0.101315 0.047081
v -0.064576 0.100395 0.060915
v -0.065097 0.100574 0.060022
v -0.062955 0.099693 0.062955
v -0.062926 0.101222 0.062946
v -0.061068 0.100397 0.064481
v -0.051927 0.021463 0.047081
v -0.059991 0.100660 0.065074
v -0.067723 0.106580 0.047080
v -0.061263 0.106649 0.061262
v -0.047765 0.006532 0.047163
v -0.062803 0.106587 0.058997
v -0.058931 0.106606 0.062823
v -0.059739 0.109939 0.059728
v -0.044851 0.100392 0.071263
v -0.061139 0.109883 0.057610
v -0.057607 0.109888 0.061138
v -0.058816 0.110676 0.058824
v -0.044848 0.006531 0.047081
v -0.065351 0.109958 0.047085
v -0.063693 0.110559 0.047083
v -0.044841 0.006536 0.049325
v -0.044848 0.036089 0.047081
v -0.044850 0.110466 0.065016
v -0.044852 0.109908 0.066324
v -0.044848 0.106374 0.068752
v -0.044848 0.110290 0.063495
v -0.061681 0.109872 0.047081
v -0.044848 0.109746 0.062475
vn -0.9389 0.0965 0.3304
vn -0.7797 0.0181 0.6259
vn -0.0000 -0.0000 1.0000
vn -0.8130 -0.2237 0.5375
vn 0.9001 0.2110 -0.3811
vn -0.1603 0.9058 0.3922
vn 0.1136 0.9869 -0.1142
vn 0.0238 0.9995 -0.0199
vn -0.3450 -0.4483 0.8246
vn -0.7756 0.5442 0.3199
vn -0.2652 0.8620 0.4321
vn -0.7805 0.3821 0.4947
vn -0.5064 0.3934 0.7673
vn -0.3526 0.3857 0.8526
vn 0.6676 0.1523 -0.7288
vn 0.3043 0.8918 -0.3348
vn 0.4004 0.8085 -0.4312
vn 0.7105 0.6428 -0.2863
vn -0.3373 0.9307 0.1416
vn -0.3901 0.9080 0.1530
vn -0.0280 -0.0133 -0.9995
vn -0.0005 0.0005 1.0000
vn 0.0010 -0.0022 1.0000
vn 0.0010 0.0003 1.0000
vn -0.7990 -0.2257 0.5573
vn -0.8542 0.3821 0.3525
vn -0.8512 0.3845 0.3574
vn -0.8539 0.3854 0.3499
vn -0.4551 0.5406 0.7076
vn -0.4594 0.5452 0.7013
vn -0.1589 0.9081 0.3873
vn -0.6993 0.5468 0.4605
vn -0.7088 0.5399 0.4541
vn -0.0003 -1.0000 0.0023
vn -0.3772 -0.2108 0.9018
vn -0.7857 0.5305 0.3182
vn -0.5605 -0.2256 0.7968
vn -0.5788 -0.2271 0.7832
vn -0.6326 0.0162 0.7743
vn -1.0000 -0.0002 0.0005
vn 1.0000 -0.0000 -0.0034
vn -1.0000 0.0001 -0.0003
vn -1.0000 0.0006 0.0003
vn -1.0000 0.0027 -0.0014
vn -1.0000 -0.0014 -0.0008
vn -1.0000 0.0007 -0.0009
vn -0.7965 0.3008 0.5245
vn -0.7654 0.3928 0.5097
vn -0.5157 0.3187 0.7953
vn -0.4928 0.3836 0.7810
vn -0.3470 0.3632 0.8647
vn -0.4319 0.8629 0.2625
vn -0.3197 0.5315 0.7844
vn -0.3200 0.5362 0.7811
vn 0.9128 0.1423 -0.3828
vn -0.9025 -0.2116 0.3750
vn -0.9216 -0.0998 0.3750
vn -0.8150 -0.2242 0.5343
vn -0.8613 -0.2184 0.4588
vn -0.8530 0.3854 0.3519
vn -0.8530 0.3853 0.3519
vn -0.8683 0.3460 0.3556
vn -0.7991 -0.2248 0.5576
vn -0.7023 0.5409 0.4627
vn -0.7054 0.5462 0.4517
vn -0.7832 0.5313 0.3230
vn -0.7770 0.5452 0.3148
vn 0.0023 -0.0032 1.0000
vn 0.0005 -0.0013 1.0000
vn -1.0000 -0.0002 0.0009
vn -1.0000 -0.0001 0.0001
vn -1.0000 0.0001 -0.0011
vn -1.0000 -0.0001 0.0003
vn -1.0000 0.0001 -0.0009
vn -0.3730 -0.2112 0.9035
vn -0.4302 -0.2159 0.8765
vn -0.3212 0.5317 0.7837
vn -0.4535 0.5449 0.7053
vn -0.4608 0.5413 0.7033
vn -0.3947 0.9040 0.1644
vn -0.3378 0.9320 0.1310
vn -0.1581 0.9083 0.3874
vn -1.0000 -0.0024 -0.0022
vn -0.3186 0.5364 0.7815
vn -0.1610 0.9055 0.3925
s 0
f 1//1 2//1 3//1
f 7//2 4//2 6//2
f 30//3 1//3 25//3
f 13//4 6//4 9//4
f 1//5 4//5 9//5
f 26//6 20//6 19//6
f 26//7 29//7 23//7
f 26//8 23//8 20//8
f 8//9 17//9 10//9
f 11//10 14//10 22//10
f 19//11 20//11 16//11
f 5//12 7//12 14//12
f 15//13 12//13 7//13
f 28//14 15//14 10//14
f 25//15 30//15 31//15
f 23//16 29//16 30//16
f 29//17 31//17 30//17
f 5//18 4//18 2//18
f 22//19 18//19 23//19
f 18//20 20//20 23//20
f 13//21 9//21 21//21
f 9//3 25//3 1//3
f 21//3 25//3 9//3
f 1//3 30//3 3//3
f 3//22 30//22 11//22
f 11//23 30//23 22//23
f 22//24 30//24 23//24
f 4//25 9//25 6//25
f 14//26 11//26 2//26
f 11//27 3//27 2//27
f 2//28 5//28 14//28
f 19//29 16//29 12//29
f 12//30 15//30 19//30
f 19//31 27//31 26//31
f 14//32 12//32 18//32
f 12//33 16//33 18//33
f 21//34 24//34 13//34
f 8//35 24//35 17//35
f 18//36 22//36 14//36
f 24//37 8//37 6//37
f 6//38 13//38 24//38
f 7//39 6//39 8//39
f 17//40 25//40 24//40
f 25//41 24//41 21//41
f 25//42 17//42 31//42
f 17//43 28//43 31//43
f 29//44 31//44 26//44
f 27//45 31//45 28//45
f 27//46 26//46 31//46
f 4//47 7//47 5//47
f 7//48 12//48 14//48
f 8//49 10//49 7//49
f 10//50 15//50 7//50
f 10//51 17//51 28//51
f 18//52 16//52 20//52
f 27//53 19//53 15//53
f 15//54 28//54 27//54
f 2//55 4//55 1//55
f 9//56 5//56 1//56
f 5//57 2//57 1//57
f 3//3 25//3 30//3
f 3//3 21//3 25//3
f 3//3 9//3 21//3
f 3//3 1//3 9//3
f 13//58 4//58 9//58
f 4//59 5//59 9//59
f 14//60 11//60 5//60
f 11//61 3//61 5//61
f 3//62 2//62 5//62
f 6//63 4//63 13//63
f 12//64 16//64 14//64
f 16//65 18//65 14//65
f 18//66 11//66 14//66
f 18//67 22//67 11//67
f 22//68 11//68 23//68
f 23//69 11//69 30//69
f 31//70 25//70 24//70
f 31//71 24//71 29//71
f 29//72 24//72 26//72
f 26//73 24//73 28//73
f 28//74 24//74 17//74
f 17//75 10//75 24//75
f 10//76 8//76 24//76
f 28//77 19//77 15//77
f 19//78 16//78 15//78
f 16//79 12//79 15//79
f 20//80 22//80 18//80
f 20//81 23//81 22//81
f 20//82 27//82 26//82
f 27//83 26//83 28//83
f 27//84 19//84 28//84
f 27//85 20//85 19//85
