# Blender 4.0.0
# www.blender.org
o decimated_mesh
v 0.042351 0.006531 -0.050047
v 0.043503 0.006531 -0.050047
v 0.042327 0.006535 -0.040522
v 0.042351 0.044935 -0.050047
v 0.051206 0.006531 -0.040537
v 0.063863 0.108937 -0.040531
v 0.060442 0.109889 -0.050042
v 0.049866 0.006531 -0.043609
v 0.056510 0.046015 -0.050047
v 0.050518 0.023847 -0.050047
v 0.047402 0.006543 -0.047462
v 0.064447 0.109916 -0.040575
v 0.071989 0.100503 -0.043016
v 0.061939 0.110556 -0.050045
v 0.069168 0.100497 -0.050046
v 0.072356 0.100582 -0.040543
v 0.064248 0.062472 -0.040537
v 0.065051 0.110538 -0.042655
v 0.066556 0.110472 -0.040537
v 0.063506 0.110540 -0.048203
v 0.064058 0.110028 -0.050046
v 0.070344 0.104939 -0.042639
v 0.067979 0.109882 -0.040548
v 0.070561 0.105397 -0.040537
v 0.066902 0.105845 -0.050047
vn -0.0010 -0.0004 -1.0000
vn 0.0071 -0.0485 -0.9988
vn -0.3843 0.9092 0.1600
vn 0.7539 -0.1586 -0.6375
vn 0.9233 0.3443 -0.1704
vn 0.8687 0.3517 -0.3488
vn 0.8953 -0.2143 -0.3905
vn -0.2529 0.9447 0.2088
vn 0.9689 -0.2061 -0.1372
vn 0.0702 0.9973 -0.0191
vn 0.0137 0.9999 -0.0034
vn 0.2369 0.9520 -0.1937
vn 0.5397 -0.2186 -0.8130
vn 0.8503 0.4892 -0.1944
vn 0.8003 0.5138 -0.3090
vn 0.0014 1.0000 0.0022
vn 0.0004 1.0000 -0.0002
vn -0.0022 1.0000 -0.0004
vn -0.0000 1.0000 -0.0046
vn -0.0000 -0.0000 -1.0000
vn -0.0011 -0.0006 -1.0000
vn -0.0003 0.0002 -1.0000
vn -0.0009 -0.0028 -1.0000
vn 1.0000 -0.0000 0.0025
vn 0.9025 -0.2513 -0.3498
vn 0.0017 -0.0004 1.0000
vn -0.0013 0.0001 -1.0000
vn -0.0001 0.0013 -1.0000
vn -0.0030 -0.0043 -1.0000
vn 0.0080 0.0382 -0.9992
vn -0.0010 0.0001 -1.0000
vn -0.4004 0.9003 0.1708
vn 0.9231 0.3548 -0.1483
vn 0.8607 0.3646 -0.3553
vn 0.9041 -0.2100 -0.3721
vn 0.9078 -0.2085 -0.3640
vn 0.9044 -0.2109 -0.3710
vn 0.3767 0.9154 -0.1417
vn 0.3785 0.9146 -0.1422
vn 0.8018 -0.4930 -0.3378
vn 0.8262 -0.2234 -0.5172
vn 0.8204 -0.2261 -0.5252
vn 0.7846 0.5336 -0.3157
vn 0.0004 1.0000 -0.0004
vn -0.0011 0.0002 -1.0000
vn -0.0007 0.0001 -1.0000
vn -0.0024 0.0008 -1.0000
vn -0.0002 0.0001 -1.0000
vn -0.0000 1.0000 -0.0000
vn -0.0026 0.0004 -1.0000
vn -0.0117 -0.0093 -0.9999
vn -0.0014 -0.0011 -1.0000
vn 0.9266 0.3455 -0.1486
vn 0.9188 0.3552 -0.1723
vn 0.0352 -0.0652 -0.9972
vn -0.4007 0.9009 0.1669
vn -0.3793 0.9110 0.1620
vn 0.0002 -0.0000 -1.0000
vn 0.0001 -0.0000 -1.0000
vn -0.0089 0.9999 0.0088
s 0
f 21//1 25//1 7//1
f 6//2 12//2 23//2
f 7//3 12//3 18//3
f 4//4 6//4 3//4
f 16//5 22//5 24//5
f 15//6 22//6 13//6
f 5//7 8//7 9//7
f 12//8 19//8 18//8
f 13//9 16//9 17//9
f 20//10 18//10 19//10
f 18//11 20//11 14//11
f 21//12 14//12 20//12
f 10//13 11//13 2//13
f 24//14 22//14 23//14
f 22//15 25//15 23//15
f 11//16 3//16 8//16
f 8//17 3//17 5//17
f 3//18 11//18 1//18
f 1//19 11//19 2//19
f 15//20 9//20 4//20
f 15//21 7//21 25//21
f 9//20 10//20 4//20
f 10//20 2//20 1//20
f 1//20 4//20 10//20
f 4//22 7//22 15//22
f 14//23 21//23 7//23
f 3//24 1//24 4//24
f 7//25 6//25 4//25
f 5//26 17//26 3//26
f 17//27 6//27 16//27
f 16//28 6//28 24//28
f 24//29 6//29 23//29
f 19//30 23//30 12//30
f 6//31 17//31 3//31
f 18//32 14//32 7//32
f 16//33 13//33 22//33
f 15//34 25//34 22//34
f 9//35 15//35 17//35
f 15//36 13//36 17//36
f 17//37 5//37 9//37
f 20//38 19//38 21//38
f 19//39 23//39 21//39
f 12//40 6//40 7//40
f 9//41 8//41 10//41
f 10//42 8//42 11//42
f 25//43 21//43 23//43
f 1//44 3//44 5//44
f 17//45 3//45 24//45
f 24//46 3//46 6//46
f 7//47 14//47 4//47
f 14//48 25//48 4//48
f 25//20 9//20 2//20
f 25//20 2//20 1//20
f 25//20 1//20 4//20
f 2//49 5//49 8//49
f 2//49 1//49 5//49
f 16//50 17//50 24//50
f 23//51 24//51 19//51
f 19//52 24//52 6//52
f 16//53 13//53 24//53
f 13//54 22//54 24//54
f 19//55 6//55 12//55
f 12//56 14//56 7//56
f 21//48 25//48 14//48
f 12//57 18//57 14//57
f 15//58 9//58 25//58
f 9//59 10//59 2//59
f 11//60 2//60 8//60
