# Blender 4.0.0
# www.blender.org
o decimated_mesh
v -0.072888 0.100580 0.037405
v -0.071990 0.100459 0.043001
v -0.070342 0.100572 0.047071
v -0.070345 0.104939 0.042638
v -0.052671 0.006535 0.037392
v -0.068665 0.104715 0.047079
v -0.065348 0.110009 0.047070
v -0.067794 0.109896 0.041194
v -0.070780 0.106050 0.037405
v -0.044737 0.006564 0.037361
v -0.053475 0.027345 0.047079
v -0.063468 0.110566 0.047075
v -0.066832 0.110567 0.037416
v -0.044848 0.006531 0.047079
v -0.061651 0.109798 0.047081
v -0.068346 0.109913 0.037403
v -0.044848 0.036092 0.047079
v -0.048096 0.006532 0.047003
v -0.064921 0.109771 0.037398
vn -0.8395 0.5288 0.1248
vn 0.3864 0.9127 -0.1330
vn -0.0015 0.0005 -1.0000
vn 0.0016 -0.0026 1.0000
vn -0.9665 -0.2078 0.1506
vn -0.8790 -0.2287 0.4184
vn 0.9259 0.2111 -0.3133
vn 0.9999 -0.0000 0.0114
vn 0.8516 0.1667 -0.4969
vn -0.8014 0.5028 0.3239
vn -0.8537 0.4904 0.1750
vn -0.2830 0.9540 0.0987
vn -0.3961 0.9161 0.0619
vn -0.2802 0.9549 0.0983
vn 0.3801 0.9154 -0.1323
vn -0.0006 0.0209 -0.9998
vn 0.0039 0.0004 1.0000
vn 0.0008 -0.0000 1.0000
vn -0.0000 -0.0000 1.0000
vn -0.0009 -0.0002 1.0000
vn -0.0232 -0.0096 0.9997
vn -0.0030 -0.0000 1.0000
vn -0.0028 0.0035 1.0000
vn -0.0001 0.0001 1.0000
vn -0.8698 0.3512 0.3466
vn -0.8722 0.3482 0.3436
vn -0.0036 1.0000 0.0020
vn 0.0003 1.0000 0.0034
vn -0.9045 -0.2083 0.3722
vn -0.9044 -0.2083 0.3724
vn -0.9222 0.3555 0.1521
vn -0.9231 0.3517 0.1557
vn -0.7980 0.5060 0.3273
vn 0.0039 0.0007 1.0000
vn 0.0010 -0.0002 1.0000
vn -0.0036 1.0000 0.0034
vn 0.0004 1.0000 0.0001
vn -0.8002 0.5021 0.3279
vn -0.7998 0.5058 0.3232
vn 0.0001 -0.0000 1.0000
vn -0.0001 -0.0000 1.0000
vn -0.0003 -0.0000 1.0000
vn -0.0032 -0.0006 1.0000
vn -0.0020 0.0024 1.0000
vn -0.0043 0.0045 1.0000
s 0
f 9//1 8//1 16//1
f 19//2 12//2 15//2
f 1//3 9//3 19//3
f 6//4 3//4 15//4
f 5//5 2//5 1//5
f 18//6 11//6 5//6
f 19//7 15//7 17//7
f 14//8 10//8 17//8
f 10//9 19//9 17//9
f 6//10 7//10 8//10
f 9//11 4//11 8//11
f 12//12 13//12 7//12
f 16//13 8//13 13//13
f 8//14 7//14 13//14
f 19//15 13//15 12//15
f 9//3 16//3 19//3
f 16//16 13//16 19//16
f 19//17 5//17 10//17
f 1//18 5//18 19//18
f 14//19 17//19 11//19
f 17//20 15//20 3//20
f 14//21 11//21 18//21
f 12//22 7//22 15//22
f 7//23 6//23 15//23
f 3//24 11//24 17//24
f 6//25 4//25 3//25
f 4//26 2//26 3//26
f 18//27 10//27 5//27
f 10//28 18//28 14//28
f 3//29 2//29 11//29
f 2//30 5//30 11//30
f 9//31 1//31 4//31
f 1//32 2//32 4//32
f 8//33 4//33 6//33
f 10//34 1//34 5//34
f 19//35 1//35 10//35
f 14//36 10//36 5//36
f 14//37 5//37 18//37
f 6//38 7//38 4//38
f 7//39 8//39 4//39
f 17//40 15//40 14//40
f 15//41 11//41 14//41
f 15//42 6//42 11//42
f 6//43 3//43 11//43
f 15//44 12//44 6//44
f 12//45 7//45 6//45
