# Blender 4.0.0
# www.blender.org
o Bowl_28_bowl_28_1_collision_9
v -0.042085 0.006531 0.037403
v -0.044640 0.008765 0.037398
v -0.045124 0.008765 0.037403
v -0.052615 0.006531 0.037403
v -0.042330 0.006531 0.034670
v -0.050345 0.008765 -0.010895
v -0.053134 0.008765 0.037403
v -0.052909 0.007794 0.037403
v -0.053492 0.008765 0.036495
v -0.053098 0.006531 0.036136
v -0.048057 0.006531 -0.010895
v -0.058231 0.008765 -0.010895
v -0.053729 0.008765 0.035767
v -0.053558 0.007120 0.035195
v -0.053162 0.006531 0.035965
v -0.057785 0.006531 -0.010895
v -0.058541 0.008765 -0.006886
v -0.058161 0.008415 -0.010895
v -0.054049 0.008765 0.034486
v -0.053697 0.006531 0.033829
v -0.053606 0.006531 0.034297
v -0.053510 0.006531 0.034788
v -0.058254 0.006531 -0.004825
v -0.058896 0.008765 -0.002295
v -0.055006 0.008765 0.029536
v -0.053794 0.006531 0.033332
v -0.058352 0.006531 -0.003557
v -0.059012 0.008765 -0.000763
v -0.058463 0.006531 -0.002116
v -0.058836 0.007883 -0.000763
v -0.054173 0.006531 0.031370
v -0.055961 0.008765 0.024600
v -0.059013 0.008765 0.000768
v -0.058566 0.006531 -0.000763
v -0.056243 0.006531 0.020667
v -0.056821 0.008765 0.020152
v -0.058720 0.007883 0.002300
v -0.058896 0.008765 0.002300
v -0.058566 0.006531 0.000768
v -0.058553 0.006531 0.000948
v -0.058437 0.006531 0.002475
v -0.056685 0.006817 0.018695
v -0.057131 0.006531 0.016067
v -0.057144 0.008765 0.018478
v -0.058660 0.008765 0.005359
v -0.058180 0.006531 0.005803
v -0.057315 0.008765 0.017594
v -0.057439 0.008765 0.016946
v -0.057419 0.007883 0.016067
v -0.057383 0.006531 0.014715
v -0.058147 0.008765 0.012011
v -0.057741 0.006531 0.011486
v -0.057605 0.008765 0.016067
v -0.057416 0.006531 0.014535
v -0.058087 0.008765 0.012781
v -0.057618 0.006531 0.013008
v -0.057891 0.007883 0.013008
v -0.057722 0.008765 0.015419
v -0.057697 0.007883 0.014535
v -0.057595 0.006531 0.013188
v -0.058069 0.008765 0.013008
v -0.057876 0.008765 0.014549
v -0.057959 0.008765 0.013892
vn 0.0098 0.0133 0.9999
vn -0.0000 -0.0000 1.0000
vn -0.0000 -1.0000 -0.0000
vn 0.6571 0.7515 -0.0590
vn 0.6451 0.7603 -0.0762
vn -0.0000 1.0000 -0.0000
vn -0.9094 -0.2112 0.3584
vn -0.9123 -0.2169 0.3472
vn 0.6958 0.7129 -0.0875
vn -0.0000 -0.0000 -1.0000
vn -0.9093 -0.2111 0.3586
vn -0.9313 -0.2020 0.3031
vn -0.9255 -0.2112 0.3144
vn -0.9126 -0.2169 0.3465
vn -0.9780 -0.1946 -0.0756
vn -0.9541 -0.1818 0.2382
vn -0.9606 -0.2060 0.1866
vn -0.9603 -0.2070 0.1870
vn -0.9600 -0.2080 0.1876
vn -0.9249 -0.2644 0.2734
vn -0.9778 -0.1952 -0.0755
vn -0.9779 -0.1951 -0.0755
vn -0.9608 -0.2058 0.1859
vn -0.9607 -0.2058 0.1860
vn -0.9778 -0.1953 -0.0754
vn -0.9778 -0.1954 -0.0753
vn -0.9779 -0.1953 -0.0743
vn -0.9780 -0.1949 -0.0741
vn -0.9608 -0.2059 0.1858
vn -0.9807 -0.1954 -0.0011
vn -0.9806 -0.1959 -0.0008
vn -0.9608 -0.2060 0.1858
vn -0.9608 -0.2059 0.1857
vn -0.9780 -0.1949 0.0751
vn -0.9805 -0.1964 -0.0000
vn -0.9780 -0.1959 0.0722
vn -0.9778 -0.1957 0.0743
vn -0.9779 -0.1953 0.0749
vn -0.9605 -0.2074 0.1855
vn -0.9609 -0.2058 0.1855
vn -0.9779 -0.1952 0.0753
vn -0.9779 -0.1949 0.0752
vn -0.9778 -0.1954 0.0755
vn -0.9609 -0.2058 0.1854
vn -0.9612 -0.2052 0.1844
vn -0.9614 -0.2050 0.1838
vn -0.9622 -0.2052 0.1792
vn -0.9778 -0.1953 0.0755
vn -0.9778 -0.1955 0.0756
vn -0.9623 -0.2026 0.1813
vn -0.9631 -0.2028 0.1769
vn -0.9628 -0.2036 0.1776
vn -0.9778 -0.1955 0.0757
vn -0.9771 -0.1976 0.0787
vn -0.9774 -0.1967 0.0779
vn -0.9637 -0.2015 0.1751
vn -0.9642 -0.2009 0.1732
vn -0.9708 -0.2023 0.1289
vn -0.9773 -0.1966 0.0785
vn -0.9719 -0.1991 0.1255
vn -0.9727 -0.1972 0.1226
vn -0.9729 -0.1967 0.1214
vn -0.9732 -0.1957 0.1204
vn -0.9650 -0.1987 0.1710
vn -0.9718 -0.1993 0.1259
s 0
f 1//1 2//1 3//1
f 1//2 3//2 7//2
f 1//2 7//2 8//2
f 1//2 8//2 4//2
f 1//3 4//3 10//3
f 1//3 10//3 15//3
f 1//3 15//3 22//3
f 1//3 22//3 21//3
f 1//3 21//3 20//3
f 1//3 20//3 26//3
f 1//3 26//3 31//3
f 1//3 31//3 35//3
f 1//3 35//3 43//3
f 1//3 43//3 50//3
f 1//3 50//3 54//3
f 1//3 54//3 60//3
f 1//3 60//3 56//3
f 1//3 56//3 52//3
f 1//3 52//3 46//3
f 1//3 46//3 41//3
f 1//3 41//3 40//3
f 1//3 40//3 39//3
f 1//3 39//3 34//3
f 1//3 34//3 29//3
f 1//3 29//3 27//3
f 1//3 27//3 23//3
f 1//3 23//3 16//3
f 1//3 16//3 11//3
f 1//3 11//3 5//3
f 1//4 5//4 2//4
f 2//5 5//5 6//5
f 2//6 6//6 12//6
f 2//6 12//6 17//6
f 2//6 17//6 24//6
f 2//6 24//6 28//6
f 2//6 28//6 33//6
f 2//6 33//6 38//6
f 2//6 38//6 45//6
f 2//6 45//6 51//6
f 2//6 51//6 55//6
f 2//6 55//6 61//6
f 2//6 61//6 63//6
f 2//6 63//6 62//6
f 2//6 62//6 58//6
f 2//6 58//6 53//6
f 2//6 53//6 48//6
f 2//6 48//6 47//6
f 2//6 47//6 44//6
f 2//6 44//6 36//6
f 2//6 36//6 32//6
f 2//6 32//6 25//6
f 2//6 25//6 19//6
f 2//6 19//6 13//6
f 2//6 13//6 9//6
f 2//6 9//6 7//6
f 2//6 7//6 3//6
f 4//7 8//7 9//7
f 4//8 9//8 10//8
f 5//9 11//9 6//9
f 6//10 11//10 16//10
f 6//10 16//10 18//10
f 6//10 18//10 12//10
f 7//11 9//11 8//11
f 9//12 13//12 14//12
f 9//13 14//13 15//13
f 9//14 15//14 10//14
f 12//15 18//15 17//15
f 13//16 19//16 14//16
f 14//17 19//17 20//17
f 14//18 20//18 21//18
f 14//19 21//19 22//19
f 14//20 22//20 15//20
f 16//21 23//21 18//21
f 17//22 18//22 24//22
f 18//21 23//21 24//21
f 19//23 25//23 26//23
f 19//24 26//24 20//24
f 23//25 27//25 24//25
f 24//26 27//26 29//26
f 24//27 29//27 30//27
f 24//28 30//28 28//28
f 25//29 31//29 26//29
f 25//29 32//29 31//29
f 28//30 30//30 33//30
f 29//27 34//27 30//27
f 30//31 34//31 33//31
f 31//32 32//32 35//32
f 32//33 36//33 35//33
f 33//34 37//34 38//34
f 33//35 34//35 39//35
f 33//36 39//36 40//36
f 33//37 40//37 41//37
f 33//38 41//38 37//38
f 35//33 36//33 42//33
f 35//39 42//39 43//39
f 36//40 44//40 42//40
f 37//41 41//41 45//41
f 37//42 45//42 38//42
f 41//43 46//43 45//43
f 42//40 44//40 47//40
f 42//44 47//44 43//44
f 43//45 47//45 48//45
f 43//46 48//46 49//46
f 43//47 49//47 50//47
f 45//48 46//48 51//48
f 46//49 52//49 51//49
f 48//50 53//50 49//50
f 49//51 53//51 54//51
f 49//52 54//52 50//52
f 51//53 52//53 55//53
f 52//54 56//54 57//54
f 52//55 57//55 55//55
f 53//56 58//56 54//56
f 54//57 58//57 59//57
f 54//58 59//58 60//58
f 55//59 57//59 61//59
f 56//60 60//60 62//60
f 56//61 62//61 63//61
f 56//62 63//62 57//62
f 57//63 63//63 61//63
f 58//64 62//64 59//64
f 59//65 62//65 60//65
