# Blender 4.0.0
# www.blender.org
o decimated_mesh
v 0.043259 0.007091 0.050208
v 0.043251 0.048128 0.050209
v 0.060918 0.100407 0.064573
v 0.050220 0.023270 0.050219
v 0.058347 0.100559 0.065785
v 0.062956 0.099693 0.062956
v 0.062939 0.101227 0.062924
v 0.059924 0.102318 0.064414
v 0.064552 0.100451 0.060961
v 0.060472 0.109905 0.050209
v 0.043251 0.100388 0.071893
v 0.065813 0.100559 0.058282
v 0.064412 0.102318 0.059927
v 0.043251 0.108875 0.062820
v 0.061262 0.106646 0.061263
v 0.069130 0.100252 0.050216
v 0.043251 0.110031 0.063578
v 0.062131 0.110563 0.050209
v 0.062724 0.106742 0.058948
v 0.059737 0.109932 0.059732
v 0.058941 0.106607 0.062809
v 0.054913 0.039777 0.050209
v 0.061210 0.109804 0.057619
v 0.058849 0.110695 0.058717
v 0.057697 0.109827 0.061136
v 0.043251 0.110542 0.065132
v 0.063240 0.110340 0.050209
v 0.043250 0.106453 0.069352
v 0.066499 0.106500 0.050210
v 0.045144 0.110436 0.065037
v 0.043253 0.109896 0.066969
v 0.064262 0.109799 0.050210
vn 1.0000 0.0001 -0.0002
vn 0.0640 0.9818 0.1789
vn -0.0000 0.0002 1.0000
vn 0.3197 0.5390 0.7793
vn 0.4221 0.2906 0.8587
vn 0.5557 -0.2260 0.8001
vn -0.2886 0.6587 -0.6948
vn -0.5421 0.4609 -0.7027
vn -0.3319 0.8368 -0.4354
vn 0.1963 0.9787 0.0606
vn -0.0192 0.9996 -0.0229
vn 0.5184 0.4015 0.7550
vn 0.8598 0.2951 0.4166
vn -0.5892 0.1642 -0.7911
vn 0.4593 0.5428 0.7031
vn 0.6263 0.0229 0.7793
vn 0.7878 0.3425 0.5119
vn 0.3519 0.3852 0.8531
vn 0.8659 0.3649 0.3422
vn 0.7520 -0.5700 0.3310
vn 0.0694 0.9411 0.3309
vn 0.7834 0.5315 0.3222
vn 0.7845 0.5285 0.3244
vn 1.0000 -0.0000 -0.0000
vn 1.0000 0.0002 -0.0005
vn 1.0000 0.0002 0.0001
vn 1.0000 -0.0009 -0.0003
vn 1.0000 0.0008 -0.0007
vn 0.7766 0.0214 0.6296
vn -0.0001 0.0007 1.0000
vn -0.0001 -0.0000 1.0000
vn 0.0006 0.0013 1.0000
vn -0.0001 -0.0001 1.0000
vn 0.0003 0.0005 1.0000
vn -0.0015 -0.0000 1.0000
vn -0.0006 0.0002 1.0000
vn 0.3195 0.5312 0.7847
vn 0.7049 0.5409 0.4588
vn 0.6979 0.5461 0.4634
vn 0.5228 -0.2255 0.8221
vn -0.2408 0.9219 -0.3034
vn -0.3744 0.2099 -0.9032
vn 0.5117 0.3317 0.7926
vn 0.5055 0.3921 0.7686
vn 0.4577 0.5411 0.7055
vn 0.7549 0.4028 0.5177
vn 0.7702 0.3925 0.5026
vn 0.3460 0.3626 0.8653
vn 0.3109 0.3949 0.8645
vn 0.7966 -0.2262 0.5605
vn 0.8007 -0.2255 0.5550
vn 0.8505 0.3866 0.3568
vn 0.8635 0.3982 0.3096
vn 0.8978 -0.2111 0.3864
vn 0.4191 0.8901 0.1792
vn 0.4435 0.8585 0.2573
vn 0.4599 0.8677 0.1888
vn 0.1734 0.8914 0.4188
vn 0.2521 0.8666 0.4307
vn 0.1688 0.8995 0.4029
vn 1.0000 0.0002 -0.0006
vn 1.0000 0.0001 -0.0001
vn 0.3462 0.3635 0.8649
vn 0.3498 0.3977 0.8482
vn 0.3216 0.5315 0.7837
vn 0.3175 0.5394 0.7799
vn 1.0000 -0.0019 -0.0017
vn 1.0000 -0.0003 -0.0001
vn 1.0000 -0.0000 0.0001
vn 0.0002 -0.0000 1.0000
vn 0.4063 -0.2136 0.8884
vn 0.3687 -0.2104 0.9054
vn 0.0001 -0.0000 1.0000
vn -0.0000 -0.0000 1.0000
vn -0.0004 0.0001 1.0000
vn -0.0003 -0.0000 1.0000
vn -0.0085 0.0030 1.0000
vn 0.5178 0.3933 0.7598
vn 0.5030 0.4018 0.7652
vn 0.4599 0.5413 0.7039
vn 0.4571 0.5427 0.7046
vn 0.8644 0.3670 0.3436
vn -0.0017 0.0003 1.0000
vn 0.8449 0.4009 0.3540
vn 0.9010 -0.2119 0.3786
vn 0.8872 -0.2134 0.4090
vn 0.7601 0.3938 0.5170
vn 0.7661 0.4033 0.5005
vn 0.7005 0.5416 0.4648
vn 0.7026 0.5456 0.4569
s 0
f 26//1 14//1 17//1
f 26//2 30//2 24//2
f 10//3 27//3 18//3
f 21//4 31//4 28//4
f 5//5 3//5 8//5
f 4//6 6//6 3//6
f 3//7 11//7 5//7
f 14//8 17//8 10//8
f 10//9 17//9 18//9
f 27//10 18//10 24//10
f 24//11 18//11 26//11
f 8//12 7//12 21//12
f 12//13 13//13 9//13
f 10//14 2//14 14//14
f 15//15 25//15 21//15
f 7//16 3//16 6//16
f 7//17 9//17 13//17
f 21//18 28//18 5//18
f 12//19 16//19 29//19
f 9//20 16//20 12//20
f 26//21 31//21 30//21
f 32//22 23//22 29//22
f 19//23 29//23 23//23
f 14//24 11//24 2//24
f 2//25 11//25 1//25
f 14//26 28//26 11//26
f 28//27 14//27 31//27
f 31//28 14//28 26//28
f 7//29 6//29 9//29
f 27//30 10//30 32//30
f 32//31 10//31 29//31
f 10//32 16//32 29//32
f 16//33 2//33 22//33
f 22//34 2//34 4//34
f 4//35 2//35 1//35
f 2//36 16//36 10//36
f 25//37 31//37 21//37
f 23//38 20//38 15//38
f 15//39 19//39 23//39
f 3//40 1//40 4//40
f 18//41 17//41 26//41
f 1//42 11//42 3//42
f 3//43 7//43 8//43
f 7//44 15//44 21//44
f 20//45 25//45 15//45
f 13//46 19//46 7//46
f 19//47 15//47 7//47
f 28//48 11//48 5//48
f 5//49 8//49 21//49
f 6//50 4//50 22//50
f 9//51 6//51 22//51
f 29//52 19//52 12//52
f 12//53 19//53 13//53
f 22//54 16//54 9//54
f 27//55 24//55 23//55
f 23//56 24//56 20//56
f 23//57 32//57 27//57
f 31//58 25//58 30//58
f 25//59 20//59 24//59
f 30//60 25//60 24//60
f 2//61 28//61 1//61
f 1//62 28//62 11//62
f 5//63 8//63 28//63
f 8//64 21//64 28//64
f 21//65 25//65 28//65
f 25//66 31//66 28//66
f 31//67 28//67 26//67
f 26//68 28//68 17//68
f 17//69 28//69 14//69
f 14//69 28//69 2//69
f 10//70 2//70 1//70
f 3//71 5//71 1//71
f 5//72 11//72 1//72
f 10//73 1//73 18//73
f 18//74 1//74 27//74
f 27//75 1//75 32//75
f 32//31 1//31 29//31
f 29//76 1//76 22//76
f 22//77 1//77 4//77
f 7//78 15//78 8//78
f 15//79 21//79 8//79
f 15//80 20//80 21//80
f 20//81 25//81 21//81
f 13//82 12//82 29//82
f 16//83 29//83 22//83
f 19//84 13//84 29//84
f 16//85 12//85 22//85
f 12//86 9//86 22//86
f 13//87 15//87 7//87
f 13//88 19//88 15//88
f 19//89 20//89 15//89
f 19//90 23//90 20//90
