# Blender 4.0.0
# www.blender.org
o decimated_mesh
v -0.003328 0.167861 -0.000001
v -0.002787 0.167861 0.001556
v -0.002787 0.167861 -0.001557
v -0.001814 0.167859 -0.002666
v -0.001190 0.141641 -0.002320
v -0.002756 0.158862 -0.001477
v -0.002756 0.158862 0.001477
v -0.001445 0.147629 0.002508
v -0.001812 0.167860 0.002661
v 0.000154 0.144836 -0.003093
v 0.000093 0.167861 0.003174
v 0.000106 0.144405 0.003067
v 0.004484 0.120596 -0.003133
v -0.002148 0.145620 -0.001078
v -0.003056 0.153470 -0.000010
v 0.004459 0.120596 0.003134
v 0.001836 0.167861 0.002617
v 0.007455 0.120594 0.002465
v -0.002164 0.145754 0.001053
v 0.000093 0.167861 -0.003175
v 0.001075 0.127302 -0.002316
v -0.001124 0.134231 0.000061
v 0.002882 0.167861 0.001310
v -0.001047 0.139787 0.002192
v 0.007467 0.120595 -0.002460
v 0.000805 0.124191 -0.000064
v 0.003380 0.167861 0.000001
v 0.008118 0.120595 0.001164
v 0.002832 0.120596 0.002465
v 0.001159 0.126810 0.002296
v 0.001836 0.167861 -0.002618
v 0.002853 0.120595 -0.002484
v 0.001992 0.120594 -0.001080
v 0.008119 0.120595 -0.001164
v 0.001982 0.120595 0.001046
v 0.002882 0.167861 -0.001310
vn -0.9950 -0.0998 -0.0005
vn -0.0002 1.0000 -0.0000
vn -0.9500 -0.3122 -0.0043
vn 0.3044 0.0331 -0.9520
vn -0.9066 -0.1931 -0.3753
vn -0.8338 -0.2082 -0.5114
vn -0.3419 -0.0595 -0.9379
vn 0.8865 0.1000 0.4517
vn 0.7776 0.0906 -0.6222
vn 0.3044 0.0331 0.9520
vn -0.9445 -0.0062 -0.3285
vn 0.2203 0.0196 -0.9752
vn -0.9888 -0.0989 0.1115
vn 0.7775 0.0904 0.6223
vn -0.0008 1.0000 0.0001
vn -0.0406 -0.0046 0.9992
vn 0.8887 0.1001 -0.4474
vn -0.8382 -0.2121 0.5024
vn -0.9891 -0.0997 -0.1080
vn -0.7100 -0.0182 0.7040
vn -0.2600 -0.0046 0.9656
vn -0.9650 -0.0184 0.2614
vn -0.0000 1.0000 -0.0000
vn -0.0010 1.0000 -0.0000
vn -0.0006 1.0000 0.0009
vn 0.0014 1.0000 -0.0002
vn -0.0003 1.0000 -0.0002
vn 0.0001 1.0000 -0.0000
vn 0.0007 1.0000 -0.0000
vn -0.0003 1.0000 -0.0004
vn -0.9212 -0.1726 -0.3488
vn -0.8979 -0.1419 -0.4168
vn -0.9325 -0.1180 -0.3413
vn -0.3685 -0.0744 -0.9266
vn -0.3846 -0.0610 -0.9211
vn -0.4574 -0.0226 -0.8890
vn 0.9302 0.0986 0.3537
vn -0.8593 -0.0641 0.5074
vn -0.8650 -0.0552 0.4987
vn -0.0298 -0.0037 -0.9995
vn -0.9208 -0.0539 -0.3863
vn -0.9645 -0.0181 -0.2636
vn -0.8677 -0.0547 -0.4940
vn -0.2576 -0.0041 -0.9662
vn -0.0004 1.0000 -0.0000
vn 0.0005 1.0000 0.0001
vn 0.0002 1.0000 -0.0007
vn 0.0008 -1.0000 -0.0001
vn -0.0005 1.0000 -0.0000
vn -0.9168 -0.1919 0.3501
vn -0.8952 -0.1487 0.4201
vn -0.9378 -0.1130 0.3283
vn -0.9229 -0.1815 0.3395
vn -0.6793 -0.0259 -0.7334
vn -0.7519 -0.0085 -0.6593
vn -0.4441 -0.0586 0.8941
vn -0.4252 -0.0650 0.9028
vn -0.3795 -0.0772 0.9220
vn -0.3539 -0.0620 0.9332
vn -0.3639 -0.0136 0.9313
vn 0.2179 0.0193 0.9758
vn 0.9304 0.0988 -0.3531
vn -0.7499 -0.0084 0.6615
vn -0.9226 -0.0540 0.3819
vn -0.9446 -0.0062 0.3282
vn -0.0001 1.0000 -0.0000
vn 0.0001 1.0000 0.0006
vn 0.9301 0.1020 -0.3529
vn 0.0009 1.0000 -0.0006
vn 0.0001 1.0000 -0.0002
vn -0.0007 1.0000 0.0006
vn 0.0002 1.0000 -0.0012
vn 0.0001 1.0000 0.0002
vn 0.0009 1.0000 0.0006
vn 0.9299 0.1019 0.3535
vn 0.8890 0.0971 -0.4475
vn 0.8868 0.0968 0.4519
vn 0.0003 1.0000 -0.0010
vn 0.0003 1.0000 -0.0004
vn 0.0003 1.0000 0.0014
vn -0.0008 1.0000 -0.0002
s 0
f 27//1 34//1 28//1
f 23//2 36//2 9//2
f 35//3 26//3 33//3
f 20//4 31//4 25//4
f 21//5 33//5 26//5
f 33//6 21//6 32//6
f 10//7 13//7 21//7
f 27//8 18//8 28//8
f 31//9 36//9 25//9
f 11//10 18//10 17//10
f 1//11 3//11 6//11
f 25//12 13//12 20//12
f 19//13 15//13 22//13
f 17//14 18//14 23//14
f 13//15 33//15 16//15
f 11//16 12//16 16//16
f 25//17 27//17 34//17
f 35//18 29//18 30//18
f 15//19 14//19 22//19
f 9//20 7//20 8//20
f 11//21 9//21 12//21
f 7//22 1//22 15//22
f 17//23 23//23 11//23
f 23//24 27//24 36//24
f 36//23 31//23 20//23
f 20//25 4//25 36//25
f 4//26 3//26 9//26
f 36//27 4//27 9//27
f 1//28 2//28 3//28
f 2//29 9//29 3//29
f 9//30 11//30 23//30
f 26//31 22//31 21//31
f 21//32 22//32 5//32
f 22//33 14//33 5//33
f 32//34 21//34 13//34
f 21//35 5//35 10//35
f 5//36 4//36 10//36
f 27//37 23//37 18//37
f 24//38 8//38 19//38
f 8//39 7//39 19//39
f 10//40 20//40 13//40
f 6//41 14//41 15//41
f 15//42 1//42 6//42
f 14//43 6//43 5//43
f 10//44 4//44 20//44
f 34//45 25//45 28//45
f 18//46 13//46 16//46
f 16//47 35//47 29//47
f 16//27 33//27 35//27
f 32//48 13//48 33//48
f 13//29 18//29 25//29
f 28//49 25//49 18//49
f 26//50 35//50 30//50
f 30//51 24//51 22//51
f 22//52 24//52 19//52
f 22//53 26//53 30//53
f 4//54 5//54 6//54
f 6//55 3//55 4//55
f 8//56 24//56 12//56
f 24//57 30//57 12//57
f 30//58 29//58 16//58
f 12//59 30//59 16//59
f 12//60 9//60 8//60
f 18//61 11//61 16//61
f 25//62 36//62 27//62
f 2//63 7//63 9//63
f 15//64 19//64 7//64
f 7//65 2//65 1//65
f 2//66 27//66 1//66
f 27//66 3//66 1//66
f 9//67 27//67 2//67
f 34//68 36//68 27//68
f 36//69 31//69 27//69
f 31//70 20//70 27//70
f 20//71 4//71 27//71
f 4//72 3//72 27//72
f 9//27 11//27 27//27
f 11//73 17//73 27//73
f 17//74 23//74 27//74
f 23//75 28//75 27//75
f 28//49 34//49 18//49
f 18//45 34//45 25//45
f 25//76 36//76 34//76
f 18//77 28//77 23//77
f 16//78 18//78 29//78
f 29//79 18//79 33//79
f 33//23 18//23 25//23
f 33//80 25//80 13//80
f 35//81 29//81 33//81
