# Blender 4.0.0
# www.blender.org
o decimated_mesh
v 0.138194 -0.005187 -0.020046
v 0.138194 -0.009710 -0.018834
v -0.164355 -0.009532 -0.018120
v 0.138194 -0.011455 0.002702
v -0.164355 -0.010387 0.007829
v 0.138194 0.016796 -0.014320
v -0.164356 0.017035 -0.012860
v 0.138194 -0.009303 0.008860
v -0.164355 0.016354 0.012326
v -0.164355 0.012511 0.013562
v 0.138194 0.016211 0.012947
vn -0.0045 0.2520 -0.9677
vn -0.0024 -0.2588 -0.9659
vn -0.0024 -0.2429 0.9700
vn 1.0000 -0.0000 -0.0000
vn 0.0004 0.9996 0.0270
vn -0.0041 -0.9994 -0.0330
vn -0.0090 0.1942 -0.9809
vn -1.0000 -0.0000 -0.0000
vn 0.0039 -0.1582 0.9874
vn 0.0009 0.9998 0.0214
vn 0.0023 -0.9440 0.3299
vn -0.0008 -0.9967 -0.0808
vn -0.0018 0.3062 0.9520
s 0
f 7//1 6//1 1//1
f 1//2 2//2 3//2
f 8//3 10//3 5//3
f 6//4 11//4 8//4
f 11//5 7//5 9//5
f 3//6 4//6 5//6
f 3//7 7//7 1//7
f 9//8 7//8 5//8
f 7//8 3//8 5//8
f 5//8 10//8 9//8
f 8//9 11//9 10//9
f 4//4 2//4 1//4
f 8//4 4//4 6//4
f 4//4 1//4 6//4
f 11//10 6//10 7//10
f 4//11 8//11 5//11
f 3//12 2//12 4//12
f 11//13 9//13 10//13
f 6//4 8//4 1//4
f 8//4 2//4 1//4
f 4//4 2//4 8//4
f 5//8 10//8 7//8
f 10//8 9//8 7//8
