# Blender 4.0.0
# www.blender.org
o decimated_mesh
v -0.049850 -0.000537 -0.030393
v -0.049850 0.000768 -0.030393
v -0.049850 0.000759 0.003618
v 0.052182 -0.000392 -0.032140
v -0.049850 -0.000538 0.003618
v 0.060733 0.000276 0.003622
v 0.053704 0.000905 -0.032145
vn -1.0000 -0.0000 -0.0000
vn -0.0013 1.0000 0.0003
vn -0.0000 -0.0000 1.0000
vn 0.0044 0.9999 0.0167
vn 0.6420 -0.7539 -0.1394
vn 0.0074 -0.9998 0.0169
vn 0.0014 -1.0000 -0.0000
vn -0.0171 -0.0000 -0.9999
vn -0.0169 0.0162 -0.9997
s 0
f 3//1 1//1 5//1
f 3//2 7//2 2//2
f 3//3 5//3 6//3
f 3//1 2//1 1//1
f 3//4 6//4 7//4
f 6//5 4//5 7//5
f 6//6 5//6 4//6
f 5//7 1//7 4//7
f 4//8 1//8 2//8
f 2//9 7//9 4//9
