# Blender 4.0.0
# www.blender.org
o decimated_mesh
v -0.052801 0.011373 -0.004359
v -0.052800 0.010726 0.003622
v 0.059677 0.010599 -0.004004
v -0.052800 0.012019 0.003622
v 0.060447 0.011216 0.003623
v 0.057657 0.011875 -0.004003
vn -1.0000 -0.0000 -0.0000
vn 0.0071 0.9965 0.0836
vn 0.0043 -0.9968 0.0802
vn -0.0066 -0.9967 -0.0808
vn -0.0000 -0.0000 1.0000
vn 0.0032 0.0058 -1.0000
vn -0.0043 0.9967 -0.0808
vn 0.5303 0.8391 -0.1214
s 0
f 1//1 2//1 4//1
f 4//2 5//2 6//2
f 3//3 5//3 2//3
f 2//4 1//4 3//4
f 5//5 4//5 2//5
f 3//6 1//6 6//6
f 6//7 1//7 4//7
f 6//8 5//8 3//8
