# Blender 4.0.0
# www.blender.org
o decimated_mesh
v 0.054307 0.005869 -0.032135
v 0.054221 0.001667 -0.032149
v 0.053740 0.001604 -0.033880
v 0.053911 0.005866 -0.033836
v 0.000002 0.005866 -0.034451
v 0.000002 0.000902 -0.032143
v 0.000002 0.005866 -0.035944
v 0.000002 -0.000524 -0.032143
v 0.052307 -0.000327 -0.032144
v 0.051644 0.001548 -0.035520
v 0.051985 -0.000039 -0.033938
v 0.050058 0.005866 -0.035944
v 0.000002 -0.000298 -0.033911
v 0.051284 -0.000455 -0.033069
v 0.051943 0.005866 -0.035543
v 0.000002 0.001694 -0.035792
vn -0.0010 -0.9919 -0.1269
vn 0.0387 -0.4213 -0.9061
vn 0.7105 -0.6822 -0.1723
vn 0.0050 -0.0960 -0.9954
vn 0.2080 -0.0197 -0.9779
vn 0.0002 1.0000 -0.0010
vn 0.6552 -0.0183 -0.7553
vn 0.3008 -0.9317 -0.2038
vn 0.5273 -0.5405 -0.6556
vn 0.0019 -0.6866 -0.7270
vn 0.0060 -0.0035 1.0000
vn 1.0000 -0.0000 -0.0000
vn 0.9633 -0.0357 -0.2660
vn 0.0037 -0.9911 0.1330
vn 0.6684 -0.7061 -0.2337
vn -0.0000 -0.0366 -0.9993
vn -0.0000 1.0000 -0.0000
vn -0.0000 1.0000 -0.0007
vn 0.0011 1.0000 -0.0016
vn 0.6162 -0.0468 -0.7862
vn 0.0031 -0.7056 -0.7086
vn -0.0000 0.0016 -1.0000
vn -0.0000 -0.0000 -1.0000
vn -1.0000 -0.0000 -0.0000
vn 0.9738 -0.0192 -0.2267
vn 0.0043 -0.9032 -0.4291
vn -0.0000 1.0000 -0.0008
vn -0.0001 1.0000 -0.0000
vn 0.0002 -0.0000 -1.0000
s 0
f 14//1 8//1 13//1
f 1//2 6//2 5//2
f 3//3 2//3 9//3
f 16//4 12//4 10//4
f 15//5 10//5 12//5
f 15//6 12//6 1//6
f 3//7 15//7 4//7
f 11//8 9//8 14//8
f 3//9 11//9 10//9
f 10//10 13//10 16//10
f 9//11 2//11 1//11
f 5//12 16//12 7//12
f 4//13 2//13 3//13
f 14//14 9//14 8//14
f 11//15 3//15 9//15
f 16//16 7//16 12//16
f 12//17 7//17 5//17
f 5//18 1//18 12//18
f 4//19 15//19 1//19
f 3//20 10//20 15//20
f 10//21 11//21 13//21
f 1//22 9//22 6//22
f 6//23 9//23 8//23
f 16//12 6//12 13//12
f 13//24 8//24 6//24
f 6//12 16//12 5//12
f 4//25 1//25 2//25
f 13//26 11//26 14//26
f 12//27 7//27 1//27
f 7//28 5//28 1//28
f 6//29 1//29 8//29
f 8//22 1//22 9//22
f 16//12 7//12 13//12
f 13//12 7//12 5//12
f 13//12 5//12 6//12
