# Blender 4.0.0
# www.blender.org
o decimated_mesh
v -0.059134 0.012188 0.033955
v -0.000001 0.011516 0.033906
v 0.000001 0.005550 0.039265
v -0.059134 0.005522 0.038846
v 0.000001 0.010015 0.039298
v -0.059134 0.009898 0.039379
vn 0.0014 -0.0073 1.0000
vn 1.0000 -0.0000 -0.0003
vn -0.0013 0.9213 0.3889
vn -0.0074 -0.5916 -0.8062
vn -0.0070 -0.1210 0.9926
vn -1.0000 -0.0000 -0.0000
vn 0.0112 0.9633 0.2681
vn 0.0056 -0.6682 -0.7439
s 0
f 6//1 3//1 5//1
f 3//2 2//2 5//2
f 5//3 1//3 6//3
f 2//4 4//4 1//4
f 6//5 4//5 3//5
f 6//6 1//6 4//6
f 5//7 2//7 1//7
f 2//8 3//8 4//8
