# Blender 4.0.0
# www.blender.org
o decimated_mesh
v 0.051200 0.010606 -0.035004
v 0.053193 0.010602 -0.033188
v 0.056918 0.010599 -0.016577
v -0.051005 0.010330 -0.035284
v 0.050967 0.011428 -0.033897
v -0.050806 0.011348 -0.034086
v -0.057188 0.010330 -0.016590
v 0.050049 0.011823 -0.033149
v 0.051605 0.011667 -0.032212
v 0.054796 0.011835 -0.016577
v -0.052552 0.010330 -0.034416
v -0.050028 0.011815 -0.033149
v 0.050049 0.012071 -0.031778
v -0.050028 0.012073 -0.031778
v -0.051647 0.011538 -0.032771
v -0.054997 0.011659 -0.016592
v -0.053839 0.011987 -0.016590
v -0.053547 0.010330 -0.033140
vn 0.5052 0.8557 -0.1123
vn -0.4103 0.8280 -0.3822
vn -0.3255 0.7466 -0.5802
vn 0.4354 0.7641 -0.4759
vn -0.0001 0.9827 -0.1851
vn 0.2278 0.9484 -0.2207
vn -0.5155 0.8494 -0.1134
vn -0.2719 0.9603 -0.0628
vn -0.2246 0.9337 -0.2788
vn -0.0001 0.8951 -0.4458
vn 0.0005 0.8028 -0.5963
vn -0.0057 0.0114 0.9999
vn 0.2356 0.9701 -0.0585
vn 0.0014 0.9999 0.0151
vn 0.5000 0.8587 -0.1120
vn -0.4524 0.8192 -0.3526
vn -0.0000 0.9840 -0.1783
vn 0.2016 0.9638 -0.1746
vn -0.5173 0.8482 -0.1135
vn -0.2771 0.9587 -0.0646
vn -0.2066 0.9615 -0.1812
vn 0.0002 0.8846 -0.4663
vn 0.0024 1.0000 -0.0004
vn 0.0024 -1.0000 0.0008
vn -0.0000 1.0000 -0.0000
vn -0.0005 1.0000 -0.0006
vn -0.0027 1.0000 0.0012
vn -0.0003 0.7621 -0.6475
vn 0.0001 -0.0002 -1.0000
vn 0.0001 0.0002 -1.0000
vn 0.4111 0.8679 -0.2787
vn -0.0000 1.0000 0.0056
vn -0.0002 1.0000 -0.0001
vn -0.0027 1.0000 0.0053
vn -0.0026 1.0000 0.0007
vn -0.5155 0.8494 -0.1131
vn -0.5172 0.8482 -0.1138
vn 0.0004 1.0000 0.0001
vn 0.5048 0.8558 -0.1131
vn 0.5001 0.8588 -0.1113
s 0
f 9//1 10//1 2//1
f 11//2 15//2 6//2
f 4//3 11//3 6//3
f 5//4 2//4 1//4
f 14//5 8//5 12//5
f 8//6 9//6 5//6
f 18//7 7//7 16//7
f 14//8 16//8 17//8
f 15//9 12//9 6//9
f 8//10 6//10 12//10
f 6//11 5//11 1//11
f 16//12 7//12 17//12
f 9//13 13//13 10//13
f 13//14 17//14 10//14
f 10//15 3//15 2//15
f 11//16 18//16 15//16
f 14//17 13//17 8//17
f 8//18 13//18 9//18
f 16//19 15//19 18//19
f 14//20 15//20 16//20
f 15//21 14//21 12//21
f 8//22 5//22 6//22
f 2//23 1//23 3//23
f 3//24 7//24 4//24
f 7//25 4//25 18//25
f 4//26 11//26 18//26
f 4//27 3//27 1//27
f 1//28 4//28 6//28
f 7//29 17//29 3//29
f 17//30 10//30 3//30
f 9//31 2//31 5//31
f 13//32 14//32 17//32
f 7//33 4//33 11//33
f 1//34 4//34 2//34
f 2//35 4//35 3//35
f 16//36 15//36 7//36
f 15//37 18//37 7//37
f 18//38 7//38 11//38
f 3//30 7//30 10//30
f 10//29 7//29 17//29
f 9//39 3//39 2//39
f 9//40 10//40 3//40
