# Blender 4.0.0
# www.blender.org
o decimated_mesh
v 0.000001 0.010726 0.003625
v 0.000001 0.010110 0.036117
v 0.000001 0.012020 0.003625
v 0.000001 0.011635 0.036117
v 0.000001 0.011984 0.035033
v 0.058280 0.012037 0.003625
v 0.061949 0.010096 0.003626
v 0.065286 0.011980 0.034975
v 0.068877 0.010024 0.036113
v 0.060064 0.011549 0.003625
v 0.066954 0.011491 0.036087
vn 0.0002 0.0009 1.0000
vn 0.0005 -0.0000 1.0000
vn 1.0000 -0.0000 -0.0000
vn 0.0003 -1.0000 -0.0011
vn 0.0022 0.9520 0.3060
vn -0.0000 -0.0000 1.0000
vn -0.0000 0.0005 1.0000
vn 0.0001 0.0181 0.9998
vn -0.0001 -1.0000 -0.0018
vn 0.0004 0.9157 0.4018
vn 0.0012 1.0000 0.0020
vn 0.0102 0.9998 0.0190
vn 0.6028 0.7877 -0.1268
vn 0.6056 0.7855 -0.1271
vn 0.2633 0.9632 -0.0542
vn 0.3236 0.9436 -0.0706
vn 0.0003 0.9520 0.3060
vn 0.2632 0.9630 -0.0571
vn 0.6056 0.7855 -0.1274
vn 0.0001 -0.0000 1.0000
vn 0.0005 0.0186 0.9998
vn 0.0022 0.9167 0.3996
vn 0.3212 0.9447 -0.0665
vn 0.6028 0.7878 -0.1265
s 0
f 7//1 10//1 6//1
f 11//2 4//2 2//2
f 2//3 5//3 4//3
f 5//4 3//4 6//4
f 11//5 5//5 4//5
f 3//6 1//6 6//6
f 1//7 7//7 6//7
f 2//8 9//8 11//8
f 5//3 1//3 3//3
f 2//3 1//3 5//3
f 5//9 6//9 8//9
f 11//10 8//10 5//10
f 7//11 2//11 9//11
f 2//12 7//12 1//12
f 9//13 7//13 11//13
f 10//14 11//14 7//14
f 10//15 6//15 11//15
f 6//16 8//16 11//16
f 4//17 8//17 5//17
f 8//18 10//18 6//18
f 10//19 9//19 7//19
f 9//20 4//20 2//20
f 9//21 11//21 4//21
f 11//22 8//22 4//22
f 11//23 10//23 8//23
f 11//24 9//24 10//24
