# Blender 4.0.0
# www.blender.org
o Alarm_Clock_30_alarm_clock_30_2_collision_20
v 0.030941 0.011024 -0.016575
v 0.030391 0.010975 -0.004006
v 0.030941 0.011545 -0.016575
v 0.032357 0.010835 -0.016575
v 0.030391 0.011622 -0.004006
v 0.033606 0.010726 -0.016575
v 0.033606 0.010726 -0.004006
v 0.032237 0.011802 -0.016575
v 0.033257 0.012020 -0.004006
v 0.033606 0.012020 -0.016575
v 0.053428 0.010599 -0.016575
v 0.053640 0.010599 -0.015325
v 0.053929 0.010599 -0.013953
v 0.055170 0.010599 -0.008469
v 0.055792 0.010599 -0.005738
v 0.056265 0.010599 -0.004006
v 0.055193 0.012023 -0.004006
v 0.055542 0.012058 -0.007099
v 0.054170 0.012057 -0.013953
v 0.052680 0.012025 -0.016575
v 0.056918 0.010599 -0.016575
v 0.059663 0.010599 -0.004006
v 0.055542 0.012023 -0.004006
v 0.056912 0.011964 -0.004006
v 0.055542 0.012040 -0.008469
v 0.054170 0.012009 -0.015325
v 0.052800 0.012025 -0.016575
v 0.056118 0.011145 -0.016575
v 0.056818 0.010882 -0.015379
v 0.057098 0.010931 -0.013953
v 0.057405 0.010599 -0.014521
v 0.058726 0.010599 -0.008469
v 0.058399 0.010860 -0.008469
v 0.058551 0.010964 -0.007099
v 0.058912 0.011183 -0.004006
v 0.058250 0.011551 -0.004006
v 0.056912 0.011811 -0.007099
v 0.055542 0.011841 -0.012582
v 0.054170 0.011939 -0.016575
v 0.056299 0.011264 -0.014959
v 0.055534 0.011479 -0.016575
v 0.057626 0.011241 -0.009286
v 0.058548 0.011388 -0.004006
v 0.058187 0.011543 -0.004356
v 0.056912 0.011708 -0.008469
v 0.055542 0.011760 -0.013953
v 0.055439 0.011531 -0.016575
v 0.056414 0.011326 -0.013953
v 0.056726 0.011494 -0.011211
v 0.057007 0.011517 -0.009782
v 0.055660 0.011557 -0.015379
vn -0.9990 -0.0000 -0.0437
vn -0.0000 -0.0000 -1.0000
vn -0.1324 -0.9912 -0.0096
vn -0.0871 -0.9962 -0.0025
vn -0.0774 -0.9970 -0.0000
vn -0.0000 -0.0000 1.0000
vn -0.1943 0.9808 -0.0145
vn -0.1374 0.9905 -0.0038
vn -0.1570 0.9876 -0.0089
vn -0.0064 -1.0000 -0.0000
vn -0.0058 -1.0000 0.0010
vn -0.0056 -1.0000 0.0012
vn -0.0056 -1.0000 0.0013
vn -0.0056 -1.0000 0.0015
vn -0.0001 0.9999 0.0114
vn -0.0017 1.0000 0.0002
vn -0.0018 1.0000 -0.0001
vn -0.0003 0.9999 -0.0117
vn -0.0000 -1.0000 -0.0000
vn -0.0000 0.9999 0.0114
vn 0.0432 0.9990 0.0114
vn 0.0989 0.9950 -0.0134
vn 0.0660 0.9977 -0.0134
vn 0.1512 0.9879 -0.0348
vn 0.0444 0.9984 -0.0351
vn -0.0000 0.9999 -0.0119
vn 0.5574 0.8172 -0.1465
vn 0.5792 0.8028 -0.1413
vn 0.5942 0.7919 -0.1410
vn 0.6187 0.7748 -0.1299
vn 0.6095 0.7826 -0.1268
vn 0.6086 0.7833 -0.1264
vn 0.2944 0.9545 -0.0472
vn 0.2149 0.9755 -0.0482
vn 0.1982 0.9792 -0.0441
vn 0.2164 0.9751 -0.0487
vn 0.2266 0.9725 -0.0540
vn 0.0628 0.9965 -0.0553
vn 0.5070 0.8536 -0.1198
vn 0.5421 0.8294 -0.1349
vn 0.4935 0.8616 -0.1189
vn 0.5010 0.8579 -0.1137
vn 0.5072 0.8543 -0.1141
vn 0.5641 0.8164 -0.1236
vn 0.5693 0.8126 -0.1246
vn 0.6032 0.7865 -0.1330
vn 0.6183 0.7743 -0.1350
vn 0.4877 0.8662 -0.1092
vn 0.4777 0.8722 -0.1054
vn 0.4312 0.8970 -0.0976
vn 0.3436 0.9365 -0.0699
vn 0.3185 0.9453 -0.0706
vn 0.2487 0.9669 -0.0568
vn 0.2353 0.9703 -0.0570
vn 0.3046 0.9478 -0.0948
vn 0.4757 0.8730 -0.1077
vn 0.4768 0.8722 -0.1095
vn 0.4736 0.8742 -0.1075
vn 0.4755 0.8731 -0.1076
vn 0.4796 0.8708 -0.1080
vn 0.4748 0.8735 -0.1075
vn 0.4735 0.8742 -0.1073
vn 0.4638 0.8797 -0.1051
vn 0.4588 0.8824 -0.1040
vn 0.4321 0.8965 -0.0979
vn 0.4137 0.9055 -0.0948
vn 0.4091 0.9075 -0.0954
vn 0.4698 0.8763 -0.1065
vn 0.4733 0.8743 -0.1074
s 0
f 1//1 2//1 5//1
f 1//1 5//1 3//1
f 1//2 3//2 8//2
f 1//2 8//2 10//2
f 1//2 10//2 20//2
f 1//2 20//2 27//2
f 1//2 27//2 39//2
f 1//2 39//2 47//2
f 1//2 47//2 41//2
f 1//2 41//2 28//2
f 1//2 28//2 21//2
f 1//2 21//2 11//2
f 1//2 11//2 6//2
f 1//2 6//2 4//2
f 1//3 4//3 2//3
f 2//4 4//4 6//4
f 2//5 6//5 7//5
f 2//6 7//6 16//6
f 2//6 16//6 22//6
f 2//6 22//6 35//6
f 2//6 35//6 43//6
f 2//6 43//6 36//6
f 2//6 36//6 24//6
f 2//6 24//6 23//6
f 2//6 23//6 17//6
f 2//6 17//6 9//6
f 2//6 9//6 5//6
f 3//7 5//7 8//7
f 5//8 9//8 10//8
f 5//9 10//9 8//9
f 6//10 11//10 7//10
f 7//11 11//11 12//11
f 7//12 12//12 13//12
f 7//13 13//13 14//13
f 7//13 14//13 15//13
f 7//14 15//14 16//14
f 9//15 17//15 18//15
f 9//16 18//16 19//16
f 9//17 19//17 10//17
f 10//18 19//18 20//18
f 11//19 21//19 31//19
f 11//19 31//19 32//19
f 11//19 32//19 22//19
f 11//19 22//19 16//19
f 11//19 16//19 15//19
f 11//19 15//19 14//19
f 11//19 14//19 13//19
f 11//19 13//19 12//19
f 17//20 23//20 18//20
f 18//21 23//21 24//21
f 18//22 24//22 25//22
f 18//23 25//23 19//23
f 19//24 25//24 26//24
f 19//25 26//25 27//25
f 19//26 27//26 20//26
f 21//27 28//27 29//27
f 21//28 29//28 30//28
f 21//29 30//29 31//29
f 22//30 32//30 33//30
f 22//31 33//31 34//31
f 22//32 34//32 35//32
f 24//33 36//33 37//33
f 24//34 37//34 26//34
f 24//35 26//35 25//35
f 26//36 37//36 38//36
f 26//37 38//37 39//37
f 26//38 39//38 27//38
f 28//39 40//39 30//39
f 28//40 30//40 29//40
f 28//41 41//41 40//41
f 30//42 40//42 42//42
f 30//43 42//43 35//43
f 30//44 35//44 34//44
f 30//45 34//45 33//45
f 30//46 33//46 31//46
f 31//47 33//47 32//47
f 35//48 42//48 43//48
f 36//49 43//49 44//49
f 36//50 44//50 45//50
f 36//51 45//51 37//51
f 37//52 45//52 46//52
f 37//53 46//53 38//53
f 38//54 46//54 39//54
f 39//55 46//55 47//55
f 40//56 48//56 42//56
f 40//57 41//57 47//57
f 40//58 47//58 48//58
f 42//59 48//59 44//59
f 42//60 44//60 43//60
f 44//61 48//61 49//61
f 44//62 49//62 50//62
f 44//63 50//63 47//63
f 44//64 47//64 51//64
f 44//65 51//65 45//65
f 45//66 51//66 46//66
f 46//67 51//67 47//67
f 47//68 50//68 49//68
f 47//69 49//69 48//69
