# Blender 4.0.0
# www.blender.org
o decimated_mesh
v 0.068656 0.005709 0.037832
v 0.067198 0.001555 0.039177
v -0.000003 0.005709 0.038082
v 0.067156 0.005709 0.039381
v -0.000003 -0.000073 0.037832
v -0.000003 0.005709 0.039574
v 0.067935 0.000683 0.037966
v -0.000003 0.001625 0.039394
vn -0.0000 1.0000 -0.0000
vn 0.0029 -0.0442 0.9990
vn -1.0000 -0.0000 -0.0000
vn 0.8488 -0.0173 0.5285
vn -0.0000 1.0000 0.0004
vn 0.0032 -0.0491 0.9988
vn 0.7157 -0.0844 0.6933
vn 0.0010 -0.8111 0.5850
vn 0.0061 -0.6767 0.7362
vn -0.0015 -0.0430 0.9991
vn 0.0036 0.0259 0.9997
vn -0.0023 0.0268 0.9996
vn 0.0036 -0.0430 0.9991
vn -0.0000 1.0000 0.0005
vn 0.7180 -0.0269 0.6956
vn 0.8157 -0.1020 0.5694
vn 0.0079 -0.8091 0.5877
vn 0.0017 -0.6767 0.7362
s 0
f 3//1 6//1 4//1
f 8//2 4//2 6//2
f 8//3 3//3 5//3
f 4//4 2//4 7//4
f 1//5 3//5 4//5
f 8//6 2//6 4//6
f 8//3 6//3 3//3
f 1//7 4//7 7//7
f 2//8 8//8 7//8
f 8//9 5//9 7//9
f 7//10 3//10 5//10
f 3//11 7//11 1//11
f 7//12 1//12 5//12
f 5//13 1//13 3//13
f 3//1 6//1 1//1
f 6//14 4//14 1//14
f 4//15 2//15 1//15
f 2//16 7//16 1//16
f 2//17 5//17 7//17
f 2//18 8//18 5//18
