# Blender 4.0.0
# www.blender.org
o decimated_mesh
v -0.558802 -0.313904 -0.005397
v -0.562737 -0.302132 0.001377
v -0.558540 -0.289461 -0.005769
v 0.558674 -0.314312 -0.005133
v -0.553254 -0.320079 0.014338
v -0.561376 -0.316266 0.011340
v -0.564360 -0.307081 0.011340
v -0.550383 -0.277767 0.002197
v -0.559450 -0.278956 0.004245
v 0.558302 -0.288647 -0.005623
v 0.562770 -0.302735 0.001305
v 0.553164 -0.320082 0.014917
v -0.560164 -0.315497 0.029581
v -0.563476 -0.307081 0.022506
v -0.563843 -0.289973 0.012067
v 0.559210 -0.278154 0.004177
v 0.564360 -0.307081 0.011340
v 0.561376 -0.316266 0.011340
v -0.539149 -0.319195 0.043540
v -0.563476 -0.295915 0.022506
v -0.558926 -0.301665 0.038579
v -0.549279 -0.277325 0.041428
v -0.559161 -0.278378 0.020820
v 0.564242 -0.291930 0.015737
v 0.563476 -0.307081 0.022506
v 0.560160 -0.315496 0.029591
v -0.508001 -0.317585 0.055999
v -0.537179 -0.315489 0.053117
v 0.539545 -0.319198 0.043180
v -0.547386 -0.313040 0.050520
v -0.559220 -0.285735 0.032298
v -0.534652 -0.277114 0.052570
v 0.549244 -0.277343 0.041602
v 0.558964 -0.279295 0.024318
v 0.558933 -0.301529 0.038557
v -0.515490 -0.313596 0.062064
v 0.536476 -0.315597 0.053303
v 0.508001 -0.317589 0.055999
v -0.540620 -0.302447 0.054724
v 0.547386 -0.313043 0.050520
v -0.547214 -0.287860 0.050509
v -0.518303 -0.288899 0.061790
v -0.507968 -0.282566 0.059639
v 0.535481 -0.277125 0.052166
v 0.559171 -0.285839 0.032445
v 0.515260 -0.313691 0.062087
v 0.540542 -0.301623 0.054805
v 0.509123 -0.282575 0.059648
v 0.547315 -0.287892 0.050371
v 0.518355 -0.289270 0.061918
vn -0.5323 0.0040 0.8466
vn -0.0000 -0.8422 0.5392
vn -0.0060 0.9999 -0.0111
vn -0.9344 -0.3035 -0.1865
vn -0.9533 -0.1783 -0.2439
vn -0.3610 -0.9141 -0.1845
vn 0.1044 -0.8894 0.4450
vn -0.9505 0.1672 -0.2618
vn -0.9890 0.0360 -0.1433
vn -0.8635 0.0016 -0.5044
vn -0.9281 0.3723 0.0032
vn -0.1372 0.9900 -0.0322
vn 0.9484 0.1687 -0.2685
vn -0.2470 0.6573 -0.7120
vn 0.9496 -0.2033 -0.2385
vn 0.9339 -0.3034 -0.1892
vn 0.3546 -0.9200 -0.1673
vn -0.2738 -0.9482 0.1609
vn -0.0000 -0.9995 0.0303
vn -0.9451 -0.1145 0.3061
vn 0.9298 0.3666 0.0321
vn 0.3728 -0.8675 0.3292
vn -0.9418 0.1695 -0.2902
vn 0.2777 -0.9467 0.1634
vn -0.8078 -0.2689 0.5245
vn -0.9469 0.1027 0.3048
vn -0.9557 0.2500 0.1554
vn 0.2940 0.9541 0.0576
vn 0.9479 -0.3093 0.0762
vn 0.9449 -0.1140 0.3068
vn 0.0001 -0.9610 -0.2765
vn -0.1034 -0.9203 0.3774
vn -0.3164 -0.4124 0.8543
vn 0.3377 -0.1465 0.9298
vn -0.3709 -0.8687 0.3283
vn -0.3387 -0.1522 0.9285
vn -0.7699 0.5391 0.3416
vn -0.7734 0.3200 0.5472
vn -0.0001 0.0111 0.9999
vn -0.5326 0.4903 0.6899
vn 0.7165 0.0061 0.6976
vn 0.9451 0.2658 0.1899
vn 0.9616 0.0868 0.2602
vn 0.8087 -0.2659 0.5248
vn 0.3152 -0.4180 0.8520
vn 0.5384 0.0065 0.8427
vn -0.3465 0.2307 0.9092
vn 0.8422 0.0019 -0.5392
vn -0.0000 0.3210 0.9471
vn 0.5397 0.4776 0.6933
vn 0.7749 0.3143 0.5485
vn 0.7785 0.4985 0.3815
vn 0.1431 0.4890 0.8604
vn 0.4444 -0.8933 0.0673
vn -0.2894 -0.0224 0.9569
vn -0.0000 -0.9918 0.1281
vn 0.9895 0.0472 -0.1363
vn -0.9480 -0.3091 0.0760
vn -0.9994 -0.0000 0.0352
vn -0.3581 0.1061 0.9276
vn 0.3504 0.2340 0.9069
vn 0.2899 -0.0301 0.9566
vn -0.0001 -0.8355 0.5495
vn -0.0000 0.9999 -0.0130
vn -0.0879 0.9961 -0.0087
vn 0.0010 -0.9998 0.0219
vn -0.0004 -0.9998 0.0212
vn -0.9518 0.2511 0.1764
vn 0.0015 0.6825 -0.7309
vn -0.0003 0.5631 -0.8264
vn -0.8062 0.2041 0.5553
vn -0.4442 -0.8934 0.0672
vn -0.0000 -0.9995 0.0312
vn 0.3044 -0.8646 0.3998
vn -0.1081 -0.8866 0.4497
vn 0.9484 -0.3081 0.0751
vn -0.0003 -0.9544 -0.2985
vn -0.3086 -0.8640 0.3978
vn 0.8055 0.2044 0.5562
vn -0.0000 0.0069 1.0000
vn -0.0000 0.7919 0.6107
vn 0.0002 0.8079 0.5893
vn 0.0990 -0.9277 0.3600
vn 0.0001 -0.0152 -0.9999
vn 0.0002 -0.0191 -0.9998
vn -0.9622 -0.0000 0.2724
vn -0.7166 0.0052 0.6975
vn -0.0000 0.3216 0.9469
vn 0.9658 0.0634 0.2514
vn 0.9611 0.1651 -0.2217
vn -0.0000 -0.9922 0.1246
vn -0.9484 -0.3081 0.0751
vn -0.9965 0.0267 0.0789
vn 0.3628 0.1194 0.9242
vn 0.9968 -0.0152 0.0789
vn -0.1259 0.4971 0.8585
vn -0.9478 0.1575 -0.2773
vn -0.9441 0.1808 -0.2755
vn -0.0003 -0.9998 0.0202
vn -0.0004 -0.9998 0.0216
vn -0.9983 0.0280 0.0511
vn -0.9566 0.2375 0.1689
vn -0.9514 0.2613 0.1627
vn -0.9483 -0.3080 0.0760
vn -0.9478 -0.3099 0.0750
vn -0.9969 -0.0000 0.0789
vn 0.9477 -0.3102 0.0750
vn 0.9483 -0.3080 0.0762
vn -0.0000 -0.9995 0.0313
s 0
f 30//1 39//1 41//1
f 46//2 27//2 38//2
f 32//3 8//3 22//3
f 1//4 6//4 7//4
f 1//5 7//5 2//5
f 1//6 5//6 6//6
f 46//7 38//7 37//7
f 3//8 2//8 9//8
f 2//9 7//9 15//9
f 1//10 2//10 3//10
f 9//11 15//11 23//11
f 9//12 23//12 8//12
f 10//13 16//13 11//13
f 9//14 8//14 3//14
f 11//15 17//15 4//15
f 4//16 17//16 18//16
f 4//17 18//17 12//17
f 5//18 19//18 13//18
f 29//19 19//19 5//19
f 14//20 13//20 21//20
f 34//21 24//21 16//21
f 29//22 26//22 40//22
f 15//23 9//23 2//23
f 12//24 26//24 29//24
f 13//25 30//25 21//25
f 20//26 21//26 31//26
f 20//27 31//27 23//27
f 16//28 33//28 34//28
f 18//29 25//29 26//29
f 25//30 35//30 26//30
f 5//31 4//31 12//31
f 28//32 19//32 27//32
f 28//33 36//33 30//33
f 46//34 40//34 47//34
f 30//35 13//35 19//35
f 39//36 30//36 36//36
f 22//37 23//37 31//37
f 22//38 31//38 41//38
f 50//39 42//39 36//39
f 22//40 41//40 32//40
f 40//41 35//41 49//41
f 34//42 45//42 24//42
f 24//43 45//43 35//43
f 26//44 35//44 40//44
f 40//45 46//45 37//45
f 47//46 40//46 49//46
f 32//47 41//47 42//47
f 11//48 4//48 10//48
f 42//49 50//49 48//49
f 33//50 44//50 49//50
f 33//51 49//51 45//51
f 33//52 45//52 34//52
f 44//53 48//53 50//53
f 26//54 12//54 18//54
f 42//55 39//55 36//55
f 19//56 38//56 27//56
f 17//57 11//57 24//57
f 14//58 6//58 13//58
f 15//59 14//59 20//59
f 42//60 41//60 39//60
f 44//61 50//61 49//61
f 50//62 46//62 47//62
f 46//63 36//63 27//63
f 32//64 44//64 8//64
f 8//65 23//65 22//65
f 33//66 44//66 16//66
f 16//67 44//67 8//67
f 20//68 23//68 15//68
f 10//69 8//69 16//69
f 3//70 8//70 10//70
f 21//71 41//71 31//71
f 13//72 6//72 5//72
f 5//73 12//73 29//73
f 40//74 37//74 29//74
f 36//75 28//75 27//75
f 18//76 17//76 25//76
f 5//77 1//77 4//77
f 28//78 30//78 19//78
f 45//79 49//79 35//79
f 36//80 46//80 50//80
f 43//81 48//81 32//81
f 32//82 48//82 44//82
f 37//83 38//83 29//83
f 3//84 10//84 1//84
f 1//85 10//85 4//85
f 20//86 14//86 21//86
f 30//87 41//87 21//87
f 48//88 43//88 42//88
f 35//89 25//89 24//89
f 24//90 11//90 16//90
f 19//91 29//91 38//91
f 14//92 7//92 6//92
f 15//93 7//93 14//93
f 49//94 50//94 47//94
f 25//95 17//95 24//95
f 43//96 32//96 42//96
f 2//97 15//97 3//97
f 15//98 9//98 3//98
f 44//99 8//99 33//99
f 33//100 8//100 16//100
f 7//101 20//101 15//101
f 20//102 31//102 15//102
f 31//103 23//103 15//103
f 12//19 19//19 5//19
f 13//104 7//104 6//104
f 13//105 14//105 7//105
f 14//106 20//106 7//106
f 25//107 26//107 17//107
f 26//108 18//108 17//108
f 29//109 19//109 12//109
