# Blender 4.0.0
# www.blender.org
o Television_5_television_5_3_collision_1
v -0.000516 -0.023089 0.000171
v -0.000429 -0.022960 -0.005667
v 0.000516 -0.023089 0.000171
v -0.000259 -0.022713 0.005905
v -0.000516 -0.021974 0.000171
v 0.000429 -0.022960 -0.005667
v -0.000429 -0.022034 -0.005667
v 0.000516 -0.021974 0.000171
v 0.000259 -0.022713 0.005905
v -0.000259 -0.022154 0.005905
v 0.000429 -0.022034 -0.005667
v 0.000259 -0.022154 0.005905
vn -0.0000 -0.9998 -0.0220
vn -0.0000 -0.9979 0.0653
vn -0.9990 -0.0000 0.0448
vn -0.9999 -0.0000 -0.0149
vn -0.0000 -0.0000 -1.0000
vn 0.9999 -0.0000 -0.0149
vn 0.9990 -0.0000 0.0448
vn -0.0000 -0.0000 1.0000
vn -0.0000 0.9995 0.0313
vn -0.0000 0.9999 -0.0102
s 0
f 1//1 2//1 6//1
f 1//1 6//1 3//1
f 1//2 3//2 9//2
f 1//2 9//2 4//2
f 1//3 4//3 10//3
f 1//3 10//3 5//3
f 1//4 5//4 7//4
f 1//4 7//4 2//4
f 2//5 7//5 11//5
f 2//5 11//5 6//5
f 3//6 6//6 11//6
f 3//6 11//6 8//6
f 3//7 8//7 12//7
f 3//7 12//7 9//7
f 4//8 9//8 12//8
f 4//8 12//8 10//8
f 5//9 10//9 12//9
f 5//9 12//9 8//9
f 5//10 8//10 11//10
f 5//10 11//10 7//10
