# Blender 4.0.0
# www.blender.org
o decimated_mesh
v -0.098238 0.004619 0.527515
v -0.098235 0.004593 0.553840
v 0.000687 0.004619 0.552890
v 0.000688 -0.005998 0.569944
v -0.098238 -0.004851 0.543224
v 0.000688 0.004573 0.576225
v -0.098238 -0.001551 0.554346
v -0.098259 -0.005612 0.552251
v -0.090889 -0.004957 0.557514
v -0.082327 0.000239 0.561666
v 0.000687 -0.001551 0.576958
v 0.000687 -0.005518 0.575511
v -0.063923 -0.004983 0.567531
v -0.061854 0.001406 0.568600
v -0.033226 0.004446 0.574209
v -0.065454 0.004616 0.566781
v -0.015251 -0.001539 0.576594
v -0.031043 -0.004940 0.574653
vn -1.0000 0.0026 -0.0020
vn 1.0000 -0.0001 0.0002
vn 0.0111 -0.9964 -0.0840
vn -0.5113 -0.3920 0.7648
vn -0.4132 -0.0458 0.9095
vn -0.2136 0.2891 0.9332
vn -0.3248 0.1635 0.9315
vn -0.3174 -0.0555 0.9467
vn -0.0319 -0.3795 0.9246
vn -0.1317 0.8415 0.5239
vn -0.2117 -0.0031 0.9773
vn -0.0205 -0.9961 0.0858
vn -1.0000 0.0011 0.0076
vn -1.0000 0.0002 0.0001
vn -0.0039 1.0000 0.0020
vn -0.0000 1.0000 0.0001
vn -0.0011 1.0000 0.0010
vn 0.0025 0.9999 0.0121
vn 1.0000 0.0001 -0.0000
vn -0.3432 -0.1723 0.9233
vn -0.4237 0.0747 0.9027
vn -0.3490 0.3129 0.8834
vn -0.0226 0.1187 0.9927
vn -0.0588 0.2121 0.9755
vn -0.0217 -0.3426 0.9392
vn -0.1313 0.8490 0.5118
vn -0.1257 0.0176 0.9919
vn -0.1805 -0.1051 0.9780
vn -0.0192 -0.9953 0.0945
vn -0.0187 -0.9964 0.0831
vn -0.0947 -0.9629 0.2525
vn -1.0000 -0.0044 -0.0026
vn -1.0000 0.0023 0.0001
vn -0.1343 0.8412 0.5237
vn -0.1284 0.8493 0.5120
vn -0.0069 0.9986 0.0529
vn 0.0004 1.0000 0.0020
vn -0.0188 -0.9961 0.0858
vn -0.0209 -0.9945 0.1026
vn -0.2106 -0.0945 0.9730
vn -0.1925 0.0016 0.9813
s 0
f 5//1 8//1 2//1
f 6//2 11//2 4//2
f 5//3 4//3 8//3
f 7//4 8//4 9//4
f 9//5 10//5 7//5
f 14//6 15//6 16//6
f 10//7 14//7 16//7
f 14//8 10//8 13//8
f 12//9 17//9 18//9
f 5//10 4//10 3//10
f 15//11 13//11 18//11
f 12//12 18//12 4//12
f 7//13 2//13 8//13
f 2//14 1//14 5//14
f 15//15 6//15 3//15
f 3//16 1//16 16//16
f 2//17 16//17 1//17
f 16//18 15//18 3//18
f 11//2 12//2 4//2
f 4//19 3//19 6//19
f 9//20 13//20 10//20
f 7//21 10//21 2//21
f 16//22 2//22 10//22
f 11//23 6//23 17//23
f 6//24 15//24 17//24
f 12//25 11//25 17//25
f 5//26 3//26 1//26
f 18//27 17//27 15//27
f 15//28 14//28 13//28
f 18//29 13//29 4//29
f 4//30 13//30 8//30
f 13//31 9//31 8//31
f 5//32 8//32 1//32
f 8//33 2//33 1//33
f 3//34 1//34 4//34
f 4//35 1//35 5//35
f 15//36 6//36 16//36
f 6//37 3//37 16//37
f 12//38 13//38 4//38
f 12//39 18//39 13//39
f 18//40 14//40 13//40
f 18//41 15//41 14//41
