# Blender 4.0.0
# www.blender.org
o decimated_mesh
v 0.077009 0.003020 0.011565
v 0.073558 0.011266 0.125750
v 0.076722 -0.006986 0.015664
v 0.000627 0.011266 0.109437
v 0.000624 -0.006641 0.006094
v 0.071997 0.007860 0.012528
v 0.073477 0.011287 0.017060
v 0.076671 -0.006096 0.011873
v 0.000627 0.011266 0.011091
v 0.060384 0.001810 0.006733
v 0.076713 -0.001407 0.010494
v 0.030307 -0.005952 0.005623
v 0.063285 -0.004516 0.006858
v 0.047727 0.007747 0.008140
v 0.000627 -0.001552 0.003907
v 0.026194 -0.001552 0.004086
v 0.000627 0.006507 0.006034
v 0.045265 0.011266 0.012344
vn 0.0066 -0.3241 -0.9460
vn 0.0333 0.3335 -0.9422
vn 1.0000 -0.0002 0.0003
vn 0.0757 0.0150 -0.9970
vn 0.2405 0.0912 -0.9664
vn 0.4776 0.6187 -0.6238
vn 0.0554 -0.9005 -0.4314
vn 0.1088 0.7755 -0.6219
vn 0.9994 -0.0158 0.0313
vn 0.0201 -0.9849 -0.1719
vn 0.3095 -0.2710 -0.9115
vn -0.0259 -0.9850 0.1707
vn 0.0115 0.7282 -0.6853
vn 0.0484 -0.2886 -0.9562
vn -0.0054 -0.3947 -0.9188
vn 0.9998 -0.0140 -0.0168
vn 0.9969 -0.0525 -0.0584
vn -0.0008 1.0000 0.0002
vn -0.0000 1.0000 -0.0000
vn 0.0068 0.2552 -0.9669
vn 0.0424 0.3151 -0.9481
vn 1.0000 -0.0002 0.0008
vn 1.0000 -0.0002 -0.0000
vn 0.1003 0.7911 -0.6034
vn 0.0244 -0.9732 -0.2288
vn -0.0363 -0.9860 0.1624
vn 0.2586 0.2109 -0.9427
vn 0.1498 0.5187 -0.8417
vn 0.0178 0.7719 -0.6355
vn 0.9195 0.3932 -0.0006
vn 0.2268 0.4106 -0.8832
vn 0.9990 -0.0378 -0.0224
vn 0.9934 -0.0404 -0.1070
vn -0.0000 1.0000 0.0002
vn 0.0002 1.0000 -0.0054
vn -0.0003 1.0000 -0.0000
vn -0.0382 -0.9846 0.1706
vn -0.0249 -0.9863 0.1628
vn 0.0197 -0.9812 -0.1921
vn 0.0278 -0.9731 -0.2288
vn 1.0000 -0.0001 0.0001
vn 1.0000 -0.0003 0.0006
s 0
f 15//1 16//1 12//1
f 17//2 14//2 16//2
f 9//3 5//3 17//3
f 13//4 16//4 10//4
f 10//5 11//5 13//5
f 1//6 6//6 7//6
f 8//7 12//7 13//7
f 6//8 14//8 7//8
f 1//9 2//9 3//9
f 8//10 5//10 12//10
f 11//11 8//11 13//11
f 3//12 4//12 5//12
f 14//13 17//13 9//13
f 13//14 12//14 16//14
f 12//15 5//15 15//15
f 8//16 11//16 3//16
f 11//17 1//17 3//17
f 7//18 18//18 2//18
f 18//19 9//19 4//19
f 4//19 2//19 18//19
f 15//20 17//20 16//20
f 10//21 16//21 14//21
f 17//22 5//22 15//22
f 5//23 9//23 4//23
f 18//24 7//24 14//24
f 3//25 5//25 8//25
f 3//26 2//26 4//26
f 11//27 10//27 1//27
f 14//28 6//28 10//28
f 9//29 18//29 14//29
f 7//30 2//30 1//30
f 10//31 6//31 1//31
f 3//32 8//32 1//32
f 8//33 11//33 1//33
f 4//34 2//34 7//34
f 18//35 9//35 7//35
f 9//36 4//36 7//36
f 4//37 5//37 2//37
f 5//38 3//38 2//38
f 5//39 12//39 3//39
f 12//40 8//40 3//40
f 9//41 15//41 17//41
f 9//42 5//42 15//42
