# Blender 4.0.0
# www.blender.org
o decimated_mesh
v -0.209383 0.004619 0.383864
v -0.222992 -0.004367 0.383864
v -0.233113 -0.005018 0.296466
v -0.218928 0.004619 0.296467
v -0.233385 0.004535 0.383863
v -0.241347 0.004543 0.296467
v -0.237913 0.004569 0.362889
v -0.233760 -0.001551 0.383864
v -0.238243 -0.004165 0.362270
v -0.232290 -0.005517 0.383872
v -0.239015 -0.005153 0.296467
v -0.241153 -0.001551 0.296467
v -0.241181 0.004495 0.334441
v -0.238615 -0.005246 0.351463
v -0.241079 -0.001479 0.335037
vn -0.0000 0.0001 -1.0000
vn -0.5610 0.8257 0.0588
vn 0.1227 -0.9924 -0.0068
vn -0.9126 -0.3377 0.2304
vn -0.5561 -0.8249 0.1016
vn -0.8472 -0.5312 0.0053
vn -0.9999 -0.0169 0.0020
vn -0.0019 1.0000 0.0002
vn -0.0001 -0.0001 -1.0000
vn -0.0001 -0.0000 -1.0000
vn 0.0006 0.0023 1.0000
vn -0.0000 0.0001 1.0000
vn -0.0000 -0.0000 1.0000
vn -0.5500 0.8330 0.0601
vn -0.9416 -0.3304 0.0654
vn -0.9788 0.0603 0.1959
vn -0.9772 0.0220 0.2110
vn -0.8599 -0.5105 0.0026
vn -0.9995 -0.0318 0.0043
vn -0.9947 -0.0067 0.1029
vn -0.9930 0.0295 0.1140
vn -0.0034 1.0000 0.0013
vn -0.0084 1.0000 -0.0016
vn -0.0035 1.0000 0.0024
vn 0.0228 -0.9997 -0.0019
vn -0.0143 -0.9999 -0.0056
vn -0.0000 0.0009 1.0000
vn 0.0011 -0.0017 1.0000
vn -0.5501 0.8331 0.0575
vn -0.5609 0.8256 0.0613
vn -0.9794 0.0228 0.2006
vn -0.9757 0.0601 0.2107
vn -0.0034 1.0000 -0.0002
vn -0.0351 0.9994 0.0014
vn -0.0046 0.0004 1.0000
vn -0.0355 -0.9994 -0.0014
vn 0.0228 -0.9997 -0.0059
vn -0.9995 -0.0318 0.0020
vn -0.9999 -0.0166 0.0044
s 0
f 6//1 4//1 3//1
f 4//2 3//2 2//2
f 3//3 2//3 10//3
f 8//4 9//4 10//4
f 10//5 9//5 14//5
f 15//6 11//6 14//6
f 13//7 12//7 15//7
f 1//8 4//8 7//8
f 3//9 11//9 12//9
f 12//10 6//10 3//10
f 10//11 2//11 8//11
f 8//12 2//12 5//12
f 2//13 1//13 5//13
f 4//14 2//14 1//14
f 9//15 15//15 14//15
f 9//16 8//16 5//16
f 5//17 7//17 9//17
f 15//18 12//18 11//18
f 13//19 6//19 12//19
f 15//20 9//20 13//20
f 7//21 13//21 9//21
f 6//22 13//22 4//22
f 13//23 7//23 4//23
f 7//24 5//24 1//24
f 14//25 11//25 3//25
f 3//26 10//26 14//26
f 5//27 10//27 1//27
f 10//28 2//28 1//28
f 2//29 1//29 3//29
f 3//30 1//30 4//30
f 9//31 8//31 7//31
f 8//32 5//32 7//32
f 4//33 6//33 7//33
f 6//34 13//34 7//34
f 8//35 10//35 5//35
f 14//36 11//36 10//36
f 11//37 3//37 10//37
f 12//38 15//38 6//38
f 15//39 13//39 6//39
