# Blender 4.0.0
# www.blender.org
o decimated_mesh
v 0.000697 0.012908 0.296467
v 0.000697 0.010639 0.495167
v 0.000697 0.033101 0.296467
v 0.240251 -0.005252 0.296466
v 0.171332 -0.005435 0.495169
v 0.000697 0.027254 0.495167
v 0.137325 0.032805 0.296468
v 0.177616 -0.004741 0.495123
v 0.239765 -0.004832 0.359527
v 0.231748 -0.005064 0.394170
v 0.242452 -0.001549 0.296467
v 0.201781 -0.004849 0.462528
v 0.242485 -0.001490 0.333340
v 0.219495 -0.004873 0.428242
v 0.242785 0.004123 0.296467
v 0.192559 -0.001653 0.476647
v 0.178037 0.000207 0.495144
v 0.242586 0.004129 0.334089
v 0.227432 -0.003339 0.409560
v 0.217252 -0.001549 0.434555
v 0.000697 0.032679 0.457936
v 0.060234 0.032553 0.446577
v 0.128290 0.032447 0.372854
v 0.240649 0.009213 0.296467
v 0.192853 0.006942 0.474338
v 0.176436 0.006930 0.495161
v 0.240269 0.008833 0.338814
v 0.239197 0.006328 0.362049
v 0.234258 -0.001551 0.387396
v 0.227619 0.001193 0.409775
v 0.204551 0.000977 0.458750
v 0.235783 0.012745 0.348965
v 0.234405 0.007085 0.382974
v 0.217765 0.006862 0.431418
v 0.205515 0.007396 0.454398
v 0.237560 0.012464 0.296467
v 0.199526 0.012836 0.455583
v 0.226788 0.007267 0.408123
v 0.230422 0.015276 0.296467
v 0.071790 0.024863 0.495167
v 0.230422 0.014797 0.350154
v 0.169965 0.012720 0.495107
v 0.227989 0.012933 0.387339
v 0.218672 0.012758 0.416481
vn 1.0000 -0.0000 -0.0000
vn 0.0001 0.0001 -1.0000
vn 0.1850 0.9827 0.0088
vn 0.0039 1.0000 0.0021
vn 0.8752 -0.1107 0.4710
vn 0.7813 -0.0693 0.6203
vn 0.8129 -0.5822 0.0101
vn 0.0296 0.9891 0.1441
vn 0.7704 -0.5727 0.2803
vn 0.6700 0.6666 0.3267
vn 0.3591 0.9333 0.0083
vn 0.9222 -0.0912 0.3758
vn 0.9371 0.2051 0.2823
vn 0.9555 -0.0534 0.2900
vn 0.6524 0.6250 0.4286
vn 0.7342 0.6430 0.2177
vn 0.9927 0.0238 0.1185
vn 0.8185 0.2330 0.5251
vn 0.1218 0.9844 0.1268
vn 0.9245 0.3722 0.0828
vn 0.9499 -0.1356 0.2816
vn 0.0756 0.9968 0.0271
vn -1.0000 -0.0000 -0.0000
vn 0.0002 0.0001 -1.0000
vn 0.0006 -0.0000 -1.0000
vn -0.0000 -0.0001 1.0000
vn -0.0000 -0.0000 1.0000
vn -0.0000 -0.0000 -1.0000
vn -0.0000 0.0001 -1.0000
vn 0.0010 0.0035 1.0000
vn 0.0078 -0.0050 1.0000
vn 0.0047 -0.0013 1.0000
vn -0.0057 0.0030 1.0000
vn 0.0388 -0.9991 0.0196
vn 0.0448 -0.9987 0.0239
vn 0.1100 -0.9903 0.0848
vn -0.0224 0.9997 -0.0068
vn 0.0083 0.9999 0.0086
vn 0.1757 0.9841 0.0254
vn 0.1737 0.9813 0.0831
vn 0.1832 0.9812 0.0612
vn 0.1827 0.9811 0.0643
vn 0.3702 0.9263 0.0706
vn 0.8696 0.1808 0.4594
vn 0.0022 1.0000 0.0049
vn 0.0026 1.0000 0.0026
vn 0.9081 0.2211 0.3556
vn 0.9983 -0.0585 -0.0008
vn 0.9998 -0.0186 0.0053
vn 0.8571 -0.2629 0.4430
vn 0.9151 0.0907 0.3929
vn 0.8596 -0.5110 -0.0000
vn 0.0332 0.9884 0.1485
vn 0.6281 0.7100 0.3184
vn 0.7233 0.6262 0.2910
vn 0.3665 0.9304 0.0074
vn 0.9206 -0.0565 0.3864
vn 0.8158 0.1238 0.5649
vn 0.7859 0.1352 0.6034
vn 0.7721 0.1825 0.6088
vn 0.9811 0.0063 0.1932
vn 0.5884 0.6619 0.4643
vn 0.5633 0.7095 0.4234
vn 0.6948 0.6827 0.2263
vn 0.9946 -0.0310 0.0993
vn 0.8327 -0.0377 0.5525
vn 0.8845 0.1147 0.4523
vn 0.1431 0.9836 0.1099
vn 0.1269 0.9851 0.1157
vn 0.7180 0.6813 0.1425
vn 0.7248 0.6742 0.1416
vn 0.7758 0.6225 0.1029
vn 0.9221 0.3869 0.0048
vn 0.9017 0.4321 0.0120
vn 0.9422 -0.2559 0.2163
vn 0.9710 0.0956 0.2189
vn 0.9556 0.1213 0.2686
vn 0.7249 0.6887 0.0127
vn 0.6814 0.7316 0.0191
vn 0.0938 0.9955 0.0114
vn 0.7652 -0.3025 0.5683
vn 0.0596 -0.9982 0.0071
vn 0.0109 -0.9999 0.0029
vn -0.0000 0.0001 1.0000
vn 0.0002 0.0006 1.0000
vn 0.0022 1.0000 0.0026
vn 0.0027 1.0000 0.0031
vn 0.0076 1.0000 0.0056
vn 0.9233 -0.0563 0.3800
vn 0.9184 -0.1048 0.3815
vn 0.0020 0.0115 0.9999
vn 0.6681 0.6614 0.3408
vn 0.6446 0.6970 0.3142
s 0
f 2//1 1//1 21//1
f 36//2 24//2 4//2
f 41//3 39//3 7//3
f 23//4 3//4 22//4
f 20//5 31//5 12//5
f 17//6 8//6 16//6
f 4//7 13//7 9//7
f 6//8 22//8 21//8
f 10//9 19//9 14//9
f 44//10 37//10 35//10
f 32//11 39//11 41//11
f 14//12 30//12 20//12
f 30//13 33//13 38//13
f 29//14 30//14 19//14
f 25//15 35//15 37//15
f 38//16 33//16 43//16
f 18//17 28//17 9//17
f 25//18 31//18 35//18
f 22//19 40//19 42//19
f 27//20 28//20 18//20
f 29//21 19//21 10//21
f 5//22 4//22 1//22
f 6//23 21//23 2//23
f 21//1 1//1 3//1
f 24//24 15//24 4//24
f 15//25 11//25 4//25
f 4//26 7//26 1//26
f 1//27 7//27 3//27
f 7//28 39//28 4//28
f 39//29 36//29 4//29
f 40//27 6//27 2//27
f 2//27 5//27 40//27
f 40//30 5//30 42//30
f 8//31 17//31 5//31
f 17//32 26//32 5//32
f 26//33 42//33 5//33
f 10//34 14//34 5//34
f 14//35 12//35 5//35
f 12//36 8//36 5//36
f 5//37 9//37 4//37
f 5//38 10//38 9//38
f 7//39 23//39 41//39
f 23//40 37//40 44//40
f 41//41 23//41 43//41
f 44//42 43//42 23//42
f 43//43 32//43 41//43
f 31//44 34//44 35//44
f 7//45 3//45 23//45
f 3//46 21//46 22//46
f 30//47 38//47 34//47
f 11//48 15//48 13//48
f 15//49 18//49 13//49
f 12//50 14//50 20//50
f 34//51 20//51 30//51
f 4//52 11//52 13//52
f 6//53 40//53 22//53
f 35//54 34//54 44//54
f 34//55 38//55 44//55
f 32//56 36//56 39//56
f 14//57 19//57 30//57
f 16//58 31//58 25//58
f 25//59 17//59 16//59
f 25//60 26//60 17//60
f 28//61 29//61 9//61
f 42//62 26//62 25//62
f 37//63 42//63 25//63
f 43//64 44//64 38//64
f 9//65 13//65 18//65
f 31//66 16//66 12//66
f 20//67 34//67 31//67
f 37//68 23//68 42//68
f 23//69 22//69 42//69
f 32//70 43//70 33//70
f 33//71 28//71 32//71
f 28//72 27//72 32//72
f 18//73 15//73 24//73
f 27//74 18//74 24//74
f 9//75 29//75 10//75
f 28//76 33//76 29//76
f 33//77 30//77 29//77
f 27//78 24//78 36//78
f 36//79 32//79 27//79
f 5//80 1//80 2//80
f 16//81 8//81 12//81
f 9//82 10//82 4//82
f 10//83 5//83 4//83
f 1//27 4//27 3//27
f 3//26 4//26 7//26
f 40//84 6//84 5//84
f 6//27 2//27 5//27
f 26//85 40//85 5//85
f 2//1 3//1 21//1
f 2//1 1//1 3//1
f 21//86 7//86 3//86
f 21//87 22//87 7//87
f 22//88 23//88 7//88
f 30//89 20//89 19//89
f 20//90 14//90 19//90
f 26//91 42//91 40//91
f 35//92 34//92 37//92
f 34//93 44//93 37//93
