# Blender 4.0.0
# www.blender.org
o decimated_mesh
v -0.201981 -0.001551 0.460282
v -0.201366 0.004607 0.460281
v -0.199802 -0.005315 0.460279
v -0.197380 -0.004752 0.467188
v -0.195054 -0.000550 0.471525
v -0.176929 -0.004558 0.494696
v -0.191464 0.004559 0.475397
v -0.173476 0.004620 0.460282
v -0.192279 -0.005436 0.460282
v -0.098238 0.004620 0.527514
v -0.098209 -0.005677 0.552343
v -0.178748 0.004533 0.491944
v -0.098238 -0.004894 0.543357
v -0.098242 0.004604 0.553740
v -0.118178 -0.005056 0.543644
v -0.102331 -0.004818 0.551962
v -0.158310 -0.001495 0.514030
v -0.149226 -0.004717 0.521543
v -0.158729 0.004603 0.512772
v -0.098238 -0.001551 0.554347
v -0.115927 -0.002871 0.545583
v -0.142806 0.004512 0.526543
v -0.112235 0.004566 0.546890
v -0.124194 0.001367 0.540221
v -0.140193 -0.001542 0.529197
vn -0.0000 0.0001 1.0000
vn -0.8182 -0.4739 0.3255
vn -0.8516 0.0851 0.5172
vn -0.4382 0.0879 0.8946
vn -0.7847 0.0304 0.6191
vn -0.5569 -0.2909 0.7779
vn -0.6418 -0.0220 0.7666
vn -0.4349 -0.1079 0.8940
vn -0.2218 -0.8665 0.4473
vn -0.1717 -0.4314 0.8857
vn -0.6689 -0.2802 0.6885
vn -0.5048 0.1000 0.8574
vn -0.7902 -0.1702 0.5887
vn -0.4179 0.7788 0.4677
vn -0.0000 -0.0000 1.0000
vn -0.0003 -0.0008 1.0000
vn -0.4469 0.0651 0.8922
vn -0.7893 0.0947 0.6067
vn -1.0000 -0.0036 0.0029
vn -1.0000 -0.0003 -0.0002
vn 0.9999 0.0017 0.0111
vn -0.0005 1.0000 0.0035
vn -0.0013 1.0000 0.0025
vn -0.0054 1.0000 0.0019
vn -0.0026 0.9999 0.0097
vn 0.0004 -1.0000 -0.0004
vn -0.0025 1.0000 0.0010
vn -0.0031 1.0000 0.0006
vn -0.5253 0.3204 0.7883
vn -0.6407 0.0591 0.7655
vn -0.6498 0.1105 0.7520
vn -0.8242 0.1694 0.5404
vn -0.1841 -0.9723 0.1438
vn -0.0432 -0.9980 0.0454
vn -0.0757 -0.9945 0.0722
vn -0.5590 -0.1483 0.8158
vn -0.4401 -0.2985 0.8469
vn -0.5772 0.1059 0.8097
vn -0.7245 0.0912 0.6832
vn -0.7195 0.0653 0.6914
vn -0.8458 -0.0768 0.5280
vn -0.4170 0.7798 0.4670
vn -0.0823 0.9928 0.0867
vn -0.5608 -0.0482 0.8266
vn -0.0161 -0.9997 0.0188
vn -0.0538 -0.9972 0.0524
vn -0.0000 -0.0002 1.0000
vn -0.0003 0.0006 1.0000
vn -0.0161 -0.9998 0.0138
vn -0.0491 -0.9975 0.0503
vn 0.0011 -0.0000 1.0000
vn -0.0197 0.9997 0.0161
vn -0.0005 1.0000 0.0005
vn -0.0627 -0.9954 0.0728
vn -1.0000 0.0064 0.0038
vn -1.0000 -0.0032 -0.0002
vn -0.7238 0.0632 0.6871
vn -0.0257 0.9994 0.0214
vn -0.0268 0.9989 0.0376
vn -0.0100 0.9998 0.0147
vn -0.0004 1.0000 0.0006
vn -0.7180 0.0930 0.6898
s 0
f 1//1 9//1 2//1
f 1//2 3//2 4//2
f 1//3 5//3 2//3
f 23//4 20//4 14//4
f 5//5 6//5 12//5
f 25//6 18//6 15//6
f 17//7 18//7 25//7
f 21//8 16//8 20//8
f 16//9 15//9 11//9
f 11//10 20//10 16//10
f 6//11 18//11 17//11
f 21//12 23//12 24//12
f 5//13 4//13 6//13
f 13//14 10//14 8//14
f 2//15 9//15 8//15
f 9//16 1//16 3//16
f 23//17 21//17 20//17
f 12//18 7//18 5//18
f 11//19 14//19 13//19
f 13//20 14//20 10//20
f 14//21 20//21 11//21
f 2//22 7//22 8//22
f 7//23 12//23 8//23
f 12//24 19//24 8//24
f 19//25 22//25 10//25
f 8//26 10//26 19//26
f 22//27 23//27 10//27
f 23//28 14//28 10//28
f 23//29 22//29 24//29
f 25//30 22//30 17//30
f 22//31 19//31 17//31
f 7//32 2//32 5//32
f 4//33 3//33 6//33
f 15//34 18//34 3//34
f 18//35 6//35 3//35
f 21//36 25//36 15//36
f 21//37 15//37 16//37
f 25//38 24//38 22//38
f 17//39 19//39 6//39
f 19//40 12//40 6//40
f 5//41 1//41 4//41
f 13//42 8//42 9//42
f 9//43 11//43 13//43
f 24//44 25//44 21//44
f 15//45 3//45 9//45
f 9//46 11//46 15//46
f 2//47 3//47 8//47
f 8//48 3//48 9//48
f 9//49 11//49 3//49
f 11//50 18//50 3//50
f 1//51 3//51 2//51
f 7//52 19//52 2//52
f 19//53 8//53 2//53
f 15//54 18//54 11//54
f 13//55 11//55 10//55
f 10//56 11//56 14//56
f 17//57 12//57 6//57
f 12//58 19//58 7//58
f 22//59 23//59 19//59
f 23//60 14//60 19//60
f 14//61 10//61 19//61
f 12//62 17//62 19//62
