# Blender 4.0.0
# www.blender.org
o decimated_mesh
v 0.000697 0.004620 0.576147
v 0.000699 0.008576 0.574510
v 0.000697 0.012906 0.296467
v -0.024400 0.004853 0.575258
v -0.241319 0.004623 0.296470
v 0.000697 0.033098 0.296467
v -0.029687 0.012834 0.568843
v -0.239320 0.009212 0.296467
v 0.000697 0.013218 0.569493
v -0.062796 0.007820 0.566659
v -0.060679 0.012911 0.562566
v -0.235198 0.013318 0.296470
v -0.132651 0.032987 0.296467
v -0.045215 0.018345 0.545997
v -0.055930 0.004624 0.569319
v 0.000697 0.018258 0.551282
v -0.098122 0.007021 0.553276
v -0.103568 0.012816 0.545326
v -0.121315 0.032566 0.384208
v -0.087854 0.004620 0.558457
v -0.117252 0.007431 0.542754
v -0.142973 0.012764 0.519276
v -0.125336 0.018582 0.506843
v -0.240428 0.004628 0.344785
v -0.238145 0.010045 0.338502
v -0.232847 0.013214 0.355664
v -0.075949 0.032636 0.435253
v 0.000697 0.032220 0.463596
v -0.115529 0.004620 0.544792
v -0.139052 0.008111 0.527482
v -0.148959 0.004656 0.521674
v -0.157617 0.007040 0.512937
v -0.237825 0.007286 0.358861
v -0.227195 0.013268 0.383970
v -0.174673 0.012379 0.488571
v -0.233130 0.004620 0.384728
v -0.221913 0.004576 0.420206
v -0.230705 0.007557 0.391594
v -0.216964 0.013510 0.415076
v -0.191641 0.007408 0.473653
v -0.175266 0.007048 0.494897
v -0.216840 0.007226 0.429952
v -0.197070 0.013231 0.456556
v -0.204518 0.004989 0.455509
v -0.180196 0.004597 0.490276
vn -0.5694 0.8217 0.0241
vn -0.0023 0.0017 1.0000
vn -0.8934 0.0953 0.4391
vn -0.0162 0.9874 0.1572
vn -0.0292 0.3823 0.9236
vn -0.1793 0.9832 0.0339
vn 0.0035 1.0000 0.0053
vn -0.7098 0.1182 0.6945
vn -0.4946 0.7097 0.5017
vn -0.7324 0.6250 0.2701
vn -0.7429 0.6531 0.1471
vn -0.7058 0.7084 0.0057
vn -1.0000 -0.0000 -0.0000
vn -0.9836 0.0118 0.1797
vn -0.7254 0.3921 0.5657
vn -0.3304 0.4155 0.8474
vn -0.9139 0.4055 0.0175
vn -0.8288 0.4699 0.3037
vn -0.2737 0.6783 0.6819
vn -0.3895 0.7091 0.5878
vn -0.0238 0.7338 0.6789
vn -0.1482 0.6563 0.7398
vn -0.0000 0.0001 1.0000
vn -0.0000 -0.0000 1.0000
vn -0.7067 0.5888 0.3923
vn -0.6296 0.7138 0.3068
vn -0.0466 0.9890 0.1406
vn -0.0686 0.9868 0.1464
vn -0.9502 0.0819 0.3005
vn -0.5519 0.2404 0.7985
vn -0.1884 0.9821 0.0092
vn -0.1778 0.9837 0.0277
vn -0.1792 0.9825 0.0513
vn -0.5027 0.6266 0.5955
vn -0.0008 1.0000 0.0049
vn -0.0033 1.0000 0.0015
vn -0.7089 0.0101 0.7052
vn -0.6066 0.6351 0.4783
vn -0.5758 0.7006 0.4215
vn -0.6994 0.5788 0.4192
vn -0.5286 0.6729 0.5175
vn -0.8177 0.0574 0.5727
vn -0.1540 0.9607 0.2311
vn -0.0944 0.9687 0.2296
vn -0.0947 0.9753 0.1997
vn -0.0193 0.9995 0.0248
vn -0.0345 0.9994 0.0053
vn -0.0312 0.9995 0.0111
vn -0.0331 0.9994 0.0062
vn -0.0342 0.9994 0.0005
vn 0.0082 0.9995 0.0296
vn -0.0125 0.9995 0.0277
vn -0.0098 0.9996 0.0283
vn -0.0134 0.9995 0.0271
vn -0.0166 0.9995 0.0256
vn -0.0232 0.9995 0.0212
vn -0.7339 0.6715 0.1026
vn -0.7158 0.6819 0.1500
vn -1.0000 0.0014 0.0018
vn -0.9322 0.3015 0.2002
vn -0.4501 0.3265 0.8311
vn -0.4424 0.0414 0.8959
vn -0.3207 0.0957 0.9424
vn -0.0650 0.5987 0.7984
vn -0.6756 0.7047 0.2167
vn -0.1737 0.3824 0.9075
vn -0.9166 0.3994 0.0169
vn -0.8840 0.4612 0.0764
vn -0.1891 0.9647 0.1832
vn -0.1362 0.9832 0.1214
vn -0.1555 0.9841 0.0859
vn -0.1365 0.9834 0.1199
vn -0.1676 0.9820 0.0870
vn -0.2784 0.6694 0.6888
vn -0.3899 0.7086 0.5881
vn -0.5628 0.4637 0.6842
vn -0.1390 0.5629 0.8148
vn -0.0517 0.9622 0.2673
vn -0.0179 0.9636 0.2667
vn -0.0272 0.9674 0.2518
vn -0.3717 0.6104 0.6995
vn 1.0000 -0.0006 -0.0000
vn 1.0000 -0.0000 -0.0000
vn 1.0000 0.0001 -0.0000
vn 1.0000 0.0004 0.0001
vn 1.0000 0.0008 0.0002
vn -0.0130 -0.9941 0.1074
vn -0.0002 -1.0000 0.0009
vn -0.0001 -1.0000 0.0005
vn -0.0000 -1.0000 0.0003
vn 0.0005 -1.0000 -0.0005
vn 0.0342 -0.9990 -0.0296
vn -0.0000 0.0007 1.0000
vn -0.0008 1.0000 0.0029
vn -0.2764 0.6693 0.6897
vn -0.2758 0.6769 0.6824
vn -0.0005 -1.0000 0.0010
vn -0.0077 -0.9999 0.0096
vn -0.1103 -0.9917 0.0659
vn -0.0077 -1.0000 0.0012
vn -0.0035 -1.0000 0.0002
vn 0.0002 -0.0008 1.0000
vn -0.0081 1.0000 0.0058
vn -0.1235 0.9864 0.1084
vn -0.3897 0.7087 0.5881
vn -0.3895 0.7092 0.5876
vn -0.1485 0.9831 0.1072
vn -0.1780 0.9725 0.1504
vn -0.7361 0.6590 0.1546
vn -0.7189 0.6804 0.1423
s 0
f 12//1 25//1 26//1
f 5//2 12//2 8//2
f 37//3 44//3 42//3
f 14//4 16//4 28//4
f 2//5 4//5 1//5
f 19//6 26//6 34//6
f 27//7 28//7 6//7
f 45//8 32//8 41//8
f 35//9 32//9 22//9
f 42//10 39//10 38//10
f 38//11 34//11 26//11
f 12//12 8//12 25//12
f 1//13 28//13 3//13
f 36//14 33//14 24//14
f 40//15 45//15 41//15
f 10//16 17//16 20//16
f 25//17 8//17 24//17
f 37//18 42//18 38//18
f 10//19 18//19 17//19
f 18//20 22//20 21//20
f 2//21 9//21 7//21
f 7//22 11//22 10//22
f 12//23 5//23 13//23
f 13//24 3//24 6//24
f 5//23 3//23 13//23
f 42//25 44//25 43//25
f 39//26 42//26 43//26
f 28//27 27//27 14//27
f 27//28 23//28 14//28
f 36//29 37//29 38//29
f 31//30 29//30 21//30
f 21//30 30//30 31//30
f 13//31 12//31 26//31
f 13//32 26//32 19//32
f 34//33 39//33 19//33
f 22//34 32//34 30//34
f 13//35 19//35 6//35
f 19//36 27//36 6//36
f 45//37 31//37 32//37
f 40//38 41//38 35//38
f 35//39 43//39 40//39
f 43//40 44//40 40//40
f 35//41 41//41 32//41
f 44//42 45//42 40//42
f 22//43 18//43 23//43
f 11//44 14//44 18//44
f 14//45 23//45 18//45
f 45//46 3//46 44//46
f 44//47 3//47 37//47
f 37//48 3//48 36//48
f 36//49 3//49 24//49
f 24//50 3//50 5//50
f 3//51 4//51 1//51
f 4//52 3//52 15//52
f 15//53 3//53 20//53
f 20//54 3//54 29//54
f 29//55 3//55 31//55
f 31//56 3//56 45//56
f 26//57 25//57 33//57
f 33//58 38//58 26//58
f 3//13 28//13 6//13
f 28//13 1//13 16//13
f 16//13 1//13 9//13
f 1//59 2//59 9//59
f 36//60 38//60 33//60
f 17//61 21//61 29//61
f 29//62 20//62 17//62
f 20//63 15//63 10//63
f 7//64 4//64 2//64
f 39//65 34//65 38//65
f 15//66 4//66 10//66
f 8//67 5//67 24//67
f 24//68 33//68 25//68
f 35//69 22//69 23//69
f 43//70 35//70 27//70
f 23//71 27//71 35//71
f 27//72 19//72 43//72
f 19//73 39//73 43//73
f 10//74 11//74 18//74
f 30//75 21//75 22//75
f 30//76 32//76 31//76
f 7//77 10//77 4//77
f 11//78 7//78 14//78
f 7//79 9//79 16//79
f 16//80 14//80 7//80
f 21//81 17//81 18//81
f 1//82 3//82 2//82
f 3//83 6//83 2//83
f 6//84 28//84 2//84
f 28//85 16//85 2//85
f 16//86 9//86 2//86
f 15//87 1//87 4//87
f 15//88 20//88 1//88
f 20//89 45//89 1//89
f 45//90 37//90 1//90
f 37//91 5//91 1//91
f 5//92 3//92 1//92
f 5//93 3//93 8//93
f 8//24 6//24 13//24
f 8//24 3//24 6//24
f 13//94 27//94 6//94
f 17//95 10//95 11//95
f 18//96 17//96 11//96
f 29//97 45//97 20//97
f 29//98 31//98 45//98
f 44//99 37//99 45//99
f 36//100 24//100 37//100
f 24//101 5//101 37//101
f 12//102 8//102 13//102
f 19//103 27//103 13//103
f 19//104 23//104 27//104
f 22//105 30//105 18//105
f 30//106 21//106 18//106
f 19//107 43//107 23//107
f 43//108 35//108 23//108
f 34//109 33//109 38//109
f 33//110 34//110 26//110
