# Blender 4.0.0
# www.blender.org
o decimated_mesh
v -1.041364 0.292932 0.116219
v -1.041429 0.293018 0.135470
v -1.033429 0.305562 0.116224
v -1.033175 0.305294 0.142169
v -1.031846 0.292936 0.152894
v -1.018561 0.303433 0.152042
v -1.010449 0.313850 0.141220
v -1.010502 0.313868 0.116225
v -0.505456 0.302285 0.116225
v -0.505444 0.292091 0.153336
v -0.505456 0.313924 0.116225
v -0.505456 0.313868 0.141253
v -0.505456 0.304059 0.153012
vn 0.0001 -1.0000 -0.0007
vn 0.0008 -0.0271 -0.9996
vn 0.4074 -0.5733 -0.7109
vn 0.0022 -0.7213 -0.6926
vn -0.8285 0.5600 -0.0053
vn -0.0168 0.9641 0.2648
vn -0.3523 0.9359 0.0014
vn 0.2733 -0.7872 -0.5528
vn -0.0000 -1.0000 -0.0022
vn 0.8327 -0.3092 -0.4594
vn 0.0001 -0.7679 -0.6406
vn -0.8467 0.5320 0.0138
vn -0.3406 0.9401 0.0131
vn -1.0000 -0.0004 0.0002
vn -1.0000 -0.0000 -0.0000
vn -1.0000 -0.0010 -0.0008
vn 0.0020 -0.0834 -0.9965
vn 0.0164 0.9999 -0.0044
vn 0.0016 1.0000 -0.0005
vn 0.0002 -0.0005 1.0000
vn -0.0000 -0.0000 1.0000
vn -0.0000 -0.0003 1.0000
vn -0.8467 0.5320 -0.0052
vn -0.8333 0.5527 0.0139
vn -0.3518 0.9360 0.0131
vn -0.3406 0.9402 0.0014
vn -1.0000 -0.0005 -0.0000
vn -1.0000 -0.0000 0.0003
s 0
f 7//1 8//1 11//1
f 5//2 13//2 10//2
f 4//3 6//3 5//3
f 13//4 6//4 7//4
f 4//5 1//5 2//5
f 1//6 10//6 9//6
f 8//7 4//7 7//7
f 6//8 4//8 7//8
f 7//9 11//9 12//9
f 5//10 2//10 4//10
f 13//11 7//11 12//11
f 4//12 3//12 1//12
f 8//13 3//13 4//13
f 10//14 12//14 9//14
f 9//15 12//15 11//15
f 12//16 10//16 13//16
f 13//17 5//17 6//17
f 5//18 1//18 2//18
f 1//19 5//19 10//19
f 3//20 1//20 8//20
f 8//21 9//21 11//21
f 9//22 8//22 1//22
f 2//23 3//23 1//23
f 8//22 1//22 11//22
f 11//21 1//21 9//21
f 4//24 3//24 2//24
f 4//25 7//25 3//25
f 7//26 8//26 3//26
f 12//27 11//27 10//27
f 10//28 11//28 9//28
