# Blender 4.0.0
# www.blender.org
o decimated_mesh
v -1.046385 -0.045579 0.131526
v -1.040749 -0.345374 0.132299
v -1.025031 0.294527 0.116217
v -1.042101 0.292798 0.116191
v -1.041896 -0.345374 0.019547
v -1.024960 0.294465 0.019630
v -1.042708 0.293775 0.019653
vn -0.9998 -0.0188 0.0102
vn -0.0013 0.0002 -1.0000
vn 0.4614 0.0110 0.8871
vn -0.9996 0.0265 -0.0008
vn -0.0388 0.9992 -0.0007
vn -0.9999 0.0129 0.0064
vn -0.9993 -0.0013 -0.0367
vn -0.0061 0.0453 0.9990
vn -0.9996 0.0248 0.0102
vn -0.1008 0.9948 0.0107
vn -0.9996 0.0265 0.0102
vn -0.9997 0.0245 -0.0008
s 0
f 5//1 2//1 1//1
f 6//2 5//2 7//2
f 1//3 2//3 3//3
f 3//4 6//4 5//4
f 7//5 3//5 6//5
f 4//6 7//6 1//6
f 7//7 5//7 1//7
f 3//8 4//8 1//8
f 3//9 5//9 2//9
f 7//10 4//10 3//10
f 5//11 2//11 6//11
f 6//12 2//12 3//12
