# Blender 4.0.0
# www.blender.org
o decimated_mesh
v -0.001715 -0.386839 -0.003817
v -0.505405 -0.398851 -0.000537
v -0.505405 -0.390465 -0.003444
v -0.004065 -0.398451 -0.000252
v -0.003604 -0.404987 0.011958
v -0.505405 -0.404803 0.010442
v 0.009299 -0.386873 0.003585
v 0.006701 -0.396872 0.003254
v -0.505405 -0.392065 0.129053
v -0.505405 -0.405334 0.129053
v 0.010951 -0.386710 0.129052
v -0.002556 -0.404762 0.129053
v 0.007813 -0.398513 0.129053
vn 0.9663 -0.2569 -0.0124
vn 0.6104 -0.7920 -0.0157
vn 0.0008 -0.3276 -0.9448
vn 0.5537 -0.1166 -0.8245
vn 0.3359 -0.3379 -0.8792
vn 0.2741 -0.8435 -0.4618
vn -0.0004 -1.0000 -0.0045
vn 0.0011 -0.8791 -0.4766
vn -1.0000 -0.0000 -0.0000
vn 0.9679 -0.2511 -0.0118
vn 0.5162 -0.8565 -0.0030
vn 0.0014 -0.2938 -0.9559
vn 0.0072 -0.9999 -0.0121
vn 0.0104 -0.9999 -0.0000
vn 0.0041 1.0000 -0.0014
vn -0.0001 0.0001 1.0000
vn -0.0000 0.0001 1.0000
vn -0.0000 -0.0000 1.0000
vn 0.0011 -1.0000 0.0019
vn 0.0010 -0.8816 -0.4719
vn 0.0072 -1.0000 0.0003
vn 0.0104 -0.9999 -0.0121
vn 0.9664 -0.2569 -0.0119
vn 0.9679 -0.2510 -0.0124
vn 0.0010 -0.8791 -0.4766
vn 0.0011 -0.8816 -0.4719
s 0
f 7//1 11//1 13//1
f 13//2 5//2 8//2
f 3//3 4//3 2//3
f 1//4 7//4 8//4
f 1//5 8//5 4//5
f 8//6 5//6 4//6
f 5//7 10//7 6//7
f 2//8 5//8 6//8
f 6//9 10//9 9//9
f 13//10 8//10 7//10
f 13//11 12//11 5//11
f 3//12 1//12 4//12
f 1//13 9//13 3//13
f 9//14 1//14 11//14
f 11//15 7//15 1//15
f 12//16 13//16 11//16
f 11//17 9//17 12//17
f 9//18 10//18 12//18
f 5//19 12//19 10//19
f 2//20 4//20 5//20
f 9//9 3//9 6//9
f 3//9 2//9 6//9
f 3//21 1//21 11//21
f 3//22 11//22 9//22
f 13//23 8//23 11//23
f 8//24 7//24 11//24
f 6//25 2//25 4//25
f 5//26 6//26 4//26
f 2//9 6//9 10//9
f 2//9 10//9 9//9
f 2//9 9//9 3//9
