# Blender 4.0.0
# www.blender.org
o decimated_mesh
v -0.505456 0.309943 0.019210
v -0.505538 0.296198 0.143179
v -0.053681 0.305986 0.018956
v -0.053634 0.287613 0.144139
v -0.053634 0.313183 0.143093
vn 0.0185 0.9892 0.1452
vn 1.0000 -0.0000 -0.0004
vn -0.0013 0.0409 0.9992
vn -0.0373 0.9932 0.1101
vn 0.0088 0.9939 0.1102
vn 0.0087 0.9983 -0.0579
vn 0.0087 0.9894 0.1452
vn 0.0186 0.9937 0.1102
s 0
f 2//1 4//1 3//1
f 3//2 5//2 4//2
f 2//3 4//3 5//3
f 5//4 1//4 2//4
f 2//5 3//5 1//5
f 5//6 3//6 1//6
f 4//7 3//7 1//7
f 2//8 4//8 1//8
