# Blender 4.0.0
# www.blender.org
o decimated_mesh
v -0.983077 0.313924 0.116225
v -0.983077 0.302285 0.116225
v -1.040307 0.294022 0.116259
v -1.010547 0.313869 0.116225
v -1.009872 0.313781 0.012127
v -0.983078 0.313308 0.009772
v -1.039986 0.294594 0.011538
v -1.033767 0.305240 0.116225
v -1.011979 0.307206 -0.000423
v -1.032294 0.304378 0.003475
v -0.983047 0.294630 -0.004274
v -0.983077 0.307445 -0.000561
v -1.032566 0.294803 -0.001648
vn -0.0009 -1.0000 -0.0055
vn -1.0000 -0.0000 -0.0000
vn -0.3483 0.9374 -0.0030
vn 0.1427 -0.9878 0.0628
vn 0.0171 0.9998 -0.0058
vn -0.0248 0.8872 -0.4607
vn -0.0514 0.1824 -0.9819
vn -0.2288 0.4643 -0.8556
vn -0.8639 0.5036 0.0001
vn -0.0045 -0.9998 -0.0183
vn -0.0000 -0.0000 1.0000
vn -0.0015 0.0039 1.0000
vn 0.0005 0.0011 1.0000
vn -1.0000 -0.0016 -0.0002
vn 1.0000 0.0028 -0.0015
vn -0.3828 0.9238 -0.0121
vn -0.0020 1.0000 -0.0009
vn -0.0095 0.8697 -0.4935
vn -0.8399 0.2744 -0.4682
vn -0.0069 0.2783 -0.9605
vn -0.2046 0.8808 -0.4271
vn -0.7920 0.6103 -0.0150
vn -1.0000 -0.0017 -0.0000
vn -1.0000 -0.0000 -0.0003
vn -0.0000 0.0018 1.0000
vn 0.0006 -0.0000 1.0000
s 0
f 11//1 3//1 7//1
f 6//2 2//2 1//2
f 8//3 4//3 5//3
f 2//4 3//4 11//4
f 5//5 1//5 6//5
f 9//6 5//6 6//6
f 9//7 11//7 13//7
f 9//8 13//8 10//8
f 7//9 3//9 8//9
f 11//10 7//10 13//10
f 1//11 4//11 2//11
f 4//12 8//12 3//12
f 2//13 4//13 3//13
f 2//14 6//14 11//14
f 12//15 6//15 11//15
f 10//16 8//16 5//16
f 5//17 4//17 1//17
f 6//18 12//18 9//18
f 7//19 10//19 13//19
f 9//20 12//20 11//20
f 9//21 10//21 5//21
f 8//22 10//22 7//22
f 6//23 11//23 1//23
f 1//24 11//24 2//24
f 4//25 3//25 1//25
f 3//26 2//26 1//26
