# Blender 4.0.0
# www.blender.org
o decimated_mesh
v -0.505452 0.313502 0.020582
v -0.983122 0.314678 0.019976
v -0.505456 0.259326 0.009009
v -0.505456 0.313483 0.010375
v -0.982937 0.244979 0.009933
v -0.505461 0.260341 -0.003361
v -0.983076 0.245673 -0.002769
v -0.505456 0.305579 -0.002066
v -0.983075 0.305660 -0.002642
vn 0.0082 -0.2089 0.9779
vn 0.0008 0.8441 -0.5362
vn -0.0013 0.0021 -1.0000
vn -0.0306 0.9980 0.0548
vn -1.0000 -0.0000 0.0001
vn -1.0000 0.0001 0.0004
vn 1.0000 0.0006 -0.0004
vn -0.0016 -0.1426 0.9898
vn -0.9999 -0.0042 0.0108
vn -1.0000 -0.0000 -0.0021
vn 0.0025 1.0000 -0.0019
vn -0.0051 0.9289 -0.3704
vn 0.0012 0.0286 -0.9996
vn -0.0298 0.9962 0.0818
vn -0.0305 0.9962 0.0818
vn -0.0299 0.9980 0.0548
vn -1.0000 -0.0000 0.0004
vn -1.0000 0.0001 0.0001
s 0
f 1//1 5//1 3//1
f 9//2 4//2 8//2
f 9//3 6//3 7//3
f 6//4 7//4 5//4
f 1//5 8//5 3//5
f 6//6 3//6 8//6
f 8//7 4//7 1//7
f 5//8 1//8 2//8
f 5//9 2//9 7//9
f 9//10 7//10 2//10
f 2//11 1//11 4//11
f 9//12 2//12 4//12
f 9//13 8//13 6//13
f 6//14 5//14 3//14
f 6//15 7//15 3//15
f 3//16 7//16 5//16
f 3//17 1//17 6//17
f 6//18 1//18 8//18
