# Blender 4.0.0
# www.blender.org
o decimated_mesh
v 0.006653 0.149719 0.001022
v 0.000016 0.149715 0.007064
v 0.000016 0.153792 0.007068
v 0.000146 0.149711 0.009856
v 0.006793 0.153960 0.001022
v 0.009204 0.149715 0.001022
v 0.000036 0.154124 0.014119
v 0.000016 0.161260 0.011093
v 0.010959 0.161260 0.001022
v 0.014706 0.154896 0.001117
v 0.000060 0.161263 0.015879
v 0.015713 0.161260 0.001022
v 0.012447 0.154629 0.006950
v 0.004712 0.155084 0.013913
v 0.007189 0.149710 0.006352
v 0.014532 0.161262 0.006880
v 0.009703 0.161256 0.013105
v 0.009130 0.155148 0.011442
vn -0.0000 -0.0000 1.0000
vn 0.9996 0.0289 -0.0042
vn -0.3154 0.7060 -0.6341
vn -0.5638 0.6626 -0.4930
vn -0.6317 0.3605 -0.6863
vn -0.8997 0.2791 -0.3355
vn 0.6732 -0.0007 0.7395
vn -0.2750 0.0972 -0.9565
vn -0.6475 0.7219 -0.2441
vn -0.7682 0.2350 -0.5956
vn -0.0129 0.0073 0.9999
vn -0.0000 0.0149 0.9999
vn -0.0113 -0.0064 0.9999
vn 1.0000 -0.0010 -0.0092
vn 1.0000 0.0016 -0.0029
vn 0.9989 -0.0000 -0.0465
vn -0.3399 0.7333 -0.5888
vn 0.0005 1.0000 -0.0007
vn -0.0008 1.0000 0.0002
vn -0.0000 1.0000 -0.0003
vn 0.0003 1.0000 0.0003
vn -0.6233 0.3710 -0.6883
vn -0.1715 0.6823 -0.7107
vn -0.9691 0.1505 -0.1956
vn -0.0916 0.2386 -0.9668
vn 0.6659 -0.0219 0.7458
vn -0.0008 -1.0000 -0.0013
vn 0.0009 1.0000 0.0017
vn 0.0018 1.0000 0.0016
vn -0.6659 0.7112 -0.2252
vn -0.4727 0.2726 -0.8380
vn -0.7689 0.2341 -0.5949
vn -0.6266 0.3576 -0.6924
vn 0.0018 1.0000 0.0027
vn 1.0000 -0.0000 0.0001
vn -0.6295 0.3687 -0.6840
vn -0.0006 1.0000 -0.0007
vn -0.0000 1.0000 -0.0002
vn -0.0368 0.0208 0.9991
vn -0.0001 1.0000 -0.0003
vn 0.0008 1.0000 0.0012
vn 0.9965 0.0695 -0.0463
vn 1.0000 0.0013 -0.0037
vn 0.0013 1.0000 0.0018
vn -0.7683 0.2343 -0.5957
vn -0.7686 0.2352 -0.5949
vn -0.3547 0.7033 -0.6161
vn -0.3064 0.7256 -0.6162
s 0
f 6//1 5//1 1//1
f 4//2 3//2 7//2
f 4//3 18//3 15//3
f 18//4 13//4 15//4
f 5//5 8//5 9//5
f 16//6 10//6 13//6
f 3//7 2//7 1//7
f 11//8 17//8 14//8
f 13//9 6//9 15//9
f 17//10 16//10 13//10
f 5//11 10//11 9//11
f 9//12 10//12 12//12
f 10//13 5//13 6//13
f 11//14 7//14 8//14
f 8//15 7//15 3//15
f 3//16 4//16 2//16
f 14//17 18//17 4//17
f 11//18 17//18 8//18
f 17//19 16//19 9//19
f 16//20 12//20 9//20
f 9//21 8//21 17//21
f 5//22 3//22 8//22
f 14//23 4//23 7//23
f 12//24 10//24 16//24
f 7//25 11//25 14//25
f 3//26 1//26 5//26
f 15//27 4//27 2//27
f 2//28 15//28 1//28
f 1//29 15//29 6//29
f 6//30 13//30 10//30
f 17//31 18//31 14//31
f 17//32 13//32 18//32
f 3//33 9//33 5//33
f 9//1 5//1 12//1
f 12//1 5//1 6//1
f 6//34 1//34 2//34
f 2//35 3//35 8//35
f 8//36 9//36 3//36
f 8//37 11//37 9//37
f 11//38 12//38 9//38
f 10//39 12//39 6//39
f 11//40 16//40 12//40
f 15//41 6//41 2//41
f 4//42 2//42 7//42
f 7//43 2//43 8//43
f 17//44 16//44 11//44
f 17//45 16//45 18//45
f 18//46 16//46 13//46
f 18//47 15//47 14//47
f 14//48 15//48 4//48
