# Blender 4.0.0
# www.blender.org
o decimated_mesh
v -0.000046 0.134892 -0.017606
v -0.001964 0.139236 -0.017033
v -0.002436 0.131916 -0.016979
v 0.002138 0.132025 -0.017090
v -0.005792 0.134584 -0.016526
v 0.002147 0.139264 -0.016979
v 0.000393 0.131541 -0.015661
v -0.009323 0.132093 -0.014505
v -0.005864 0.138023 -0.016095
v -0.008714 0.136356 -0.015131
v -0.008895 0.139250 -0.014358
v 0.005799 0.134593 -0.016524
v -0.012888 0.132006 -0.011577
v 0.009332 0.132046 -0.014470
v -0.011902 0.139314 -0.012281
v -0.005871 0.140761 -0.008508
v 0.001171 0.140761 -0.010427
v 0.008085 0.137129 -0.015437
v 0.008964 0.139279 -0.014302
v -0.010557 0.131465 -0.010947
v -0.012183 0.136997 -0.012616
v 0.012894 0.131995 -0.011555
v -0.014022 0.139194 -0.009649
v 0.007264 0.140761 -0.007670
v 0.011902 0.139314 -0.012281
v 0.010557 0.131465 -0.010947
v -0.016423 0.132046 -0.005518
v -0.014685 0.136215 -0.009368
v 0.012139 0.137136 -0.012651
v -0.016461 0.139165 -0.005017
v 0.013968 0.139197 -0.009726
v -0.016740 0.131709 0.000393
v -0.016407 0.135530 -0.006195
v -0.017437 0.133537 -0.000308
v 0.014598 0.136362 -0.009497
v 0.016444 0.132118 -0.005544
v -0.010920 0.140783 0.000618
v 0.016414 0.139181 -0.005067
v -0.011472 0.131483 0.010387
v -0.017526 0.136977 -0.000038
v 0.016444 0.136060 -0.006068
v 0.017578 0.134190 -0.000037
v -0.016721 0.139442 -0.000225
v 0.010724 0.140763 -0.000475
v 0.016732 0.139432 -0.000183
v 0.017321 0.137835 -0.000392
v -0.011327 0.131894 0.012589
v 0.016738 0.131703 0.000265
v 0.012905 0.131483 0.007822
v -0.016362 0.132127 0.005685
v -0.016307 0.139211 0.005333
v -0.014068 0.131957 0.009661
v -0.002825 0.131729 0.016364
v 0.014109 0.131990 0.009619
v 0.011537 0.131874 0.012376
v 0.005309 0.131450 0.014108
v 0.016361 0.132128 0.005690
v -0.014165 0.139264 0.009361
v 0.016325 0.139196 0.005290
v -0.011751 0.133482 0.012827
v -0.007041 0.132155 0.016038
v -0.016403 0.135678 0.006563
v -0.011776 0.137228 0.012850
v -0.010570 0.139346 0.013187
v 0.014174 0.139258 0.009348
v -0.013699 0.135678 0.010774
v 0.000007 0.133598 0.017438
v 0.002785 0.131778 0.016486
v 0.011751 0.133482 0.012827
v 0.007041 0.132155 0.016038
v 0.016403 0.135678 0.006563
v 0.008811 0.140761 0.005489
v 0.010598 0.139339 0.013162
v 0.011735 0.137181 0.012902
v -0.007181 0.136777 0.016119
v -0.000038 0.137100 0.017501
v 0.013699 0.135678 0.010774
v -0.004987 0.140770 0.009481
v -0.005893 0.139219 0.016119
v 0.007083 0.137104 0.016152
v 0.004234 0.139420 0.016356
v 0.006819 0.138828 0.015877
v 0.003358 0.140761 0.009946
vn -0.7699 0.1819 -0.6117
vn 0.1903 -0.0243 0.9814
vn -0.0105 0.9785 0.2062
vn 0.1721 0.9750 0.1406
vn -0.8750 0.1515 -0.4598
vn -0.3321 -0.2640 -0.9055
vn 0.3453 0.3239 -0.8809
vn 0.4743 -0.0508 -0.8789
vn -0.1749 0.9799 -0.0963
vn -0.9827 -0.0311 -0.1824
vn 0.3301 -0.2712 -0.9042
vn -0.0003 1.0000 0.0003
vn -0.1130 0.9746 -0.1933
vn 0.9829 0.0649 -0.1722
vn 0.8390 -0.0754 0.5388
vn -0.1622 0.9780 0.1313
vn -0.2660 0.1146 -0.9572
vn 0.1926 0.9764 -0.0978
vn -0.1967 -0.9745 -0.1084
vn -0.1618 -0.9607 -0.2257
vn 0.7311 -0.0108 0.6822
vn -0.8668 -0.0914 -0.4903
vn 0.7971 0.1295 -0.5898
vn -0.7028 -0.2854 0.6516
vn -0.4615 -0.0639 -0.8849
vn -0.6320 -0.0713 -0.7717
vn -0.1902 -0.0230 0.9815
vn -0.9787 0.0907 0.1843
vn 0.9383 0.3355 0.0841
vn 0.0056 -0.9898 0.1423
vn -0.1086 -0.3662 0.9242
vn 0.2054 0.9742 0.0940
vn -0.2282 -0.9543 0.1929
vn 0.9847 0.0841 0.1525
vn -0.1066 0.9713 0.2125
vn 0.9468 -0.3089 0.0900
vn 0.8749 0.1558 -0.4586
vn -0.0022 -1.0000 0.0008
vn 0.0993 -0.9884 0.1148
vn -0.1984 0.9761 0.0887
vn -0.8610 -0.1315 0.4913
vn 0.9806 -0.0578 0.1875
vn -0.9454 0.3151 0.0834
vn 0.7083 -0.2767 0.6494
vn -0.5932 -0.2720 0.7577
vn 0.5548 0.1996 -0.8077
vn 0.7010 0.2910 0.6511
vn 0.2954 0.1388 -0.9452
vn 0.5728 -0.0143 0.8196
vn 0.0805 0.9742 -0.2107
vn 0.1262 -0.3017 0.9450
vn 0.8578 -0.0969 -0.5047
vn 0.5935 -0.2899 0.7508
vn 0.1309 -0.9633 0.2345
vn 0.7755 0.1421 0.6152
vn 0.1842 0.0483 -0.9817
vn -0.3745 0.1078 -0.9209
vn -0.7302 -0.0091 0.6832
vn 0.5508 0.2132 0.8069
vn -0.5570 0.1883 0.8089
vn -0.5803 -0.0089 0.8143
vn 0.1841 0.1411 0.9727
vn 0.2816 0.7924 0.5411
vn -0.9417 -0.3234 0.0928
vn 0.0120 0.1359 -0.9906
vn -0.6996 0.2946 0.6510
vn -0.3297 0.3974 -0.8564
vn -0.8003 0.1229 -0.5869
vn 0.1860 -0.0153 0.9824
vn -0.0246 0.9742 0.2243
vn 0.1248 0.9804 0.1526
vn 0.1075 0.9760 0.1895
vn -0.8828 0.1331 -0.4505
vn -0.1811 -0.0611 -0.9816
vn -0.1868 0.0468 -0.9813
vn -0.1899 0.9773 -0.0939
vn -0.2154 0.9742 -0.0680
vn -0.1745 0.9797 -0.0989
vn -0.0192 -0.1911 -0.9814
vn 0.1625 -0.9630 -0.2151
vn 0.0804 -0.9786 -0.1892
vn 0.0848 -0.9707 -0.2250
vn -0.9843 -0.0116 -0.1761
vn 0.0002 1.0000 -0.0004
vn -0.0000 1.0000 -0.0002
vn 0.0010 1.0000 0.0012
vn 0.0032 1.0000 -0.0006
vn 0.0005 1.0000 -0.0005
vn -0.0545 0.9783 -0.2000
vn -0.0036 0.9747 -0.2233
vn -0.0793 0.9743 -0.2106
vn 0.9843 0.0528 -0.1686
vn 0.8622 -0.1306 0.4895
vn -0.1623 0.9806 0.1101
vn -0.2018 0.9749 0.0945
vn -0.5549 0.1819 -0.8118
vn -0.5560 0.1847 -0.8104
vn 0.1932 0.9748 -0.1117
vn 0.1983 0.9755 -0.0956
vn 0.2189 0.9736 -0.0643
vn -0.1573 -0.9854 -0.0645
vn -0.0992 -0.9735 -0.2062
vn -0.0591 -0.9864 -0.1533
vn 0.7763 -0.1081 0.6210
vn 0.6311 -0.0719 -0.7723
vn 0.5664 -0.0178 -0.8240
vn -0.8594 -0.1040 -0.5006
vn 0.7679 0.1875 -0.6125
vn -0.5906 -0.0339 -0.8062
vn -0.1890 -0.0201 0.9818
vn 0.9810 -0.0255 -0.1923
vn 0.8369 0.1030 0.5375
vn 0.8695 0.1850 0.4581
vn 0.2133 0.9753 0.0579
vn 0.2051 0.9765 0.0662
vn 0.9424 -0.3269 -0.0709
vn -0.7766 0.1411 0.6140
vn 0.9318 0.3544 -0.0789
vn -0.0148 -0.4810 0.8766
vn 0.9844 0.0788 0.1574
vn 0.0154 -0.9527 -0.3037
vn 0.2460 -0.9633 0.1072
vn 0.1963 -0.9701 0.1424
vn 0.2375 -0.9670 0.0923
vn 0.8752 0.1575 -0.4574
vn -0.0000 -0.9999 -0.0161
vn 0.0475 -0.9989 -0.0050
vn 0.0046 -1.0000 0.0004
vn -0.0163 -0.9978 0.0645
vn -0.0411 -0.9992 -0.0009
vn -0.0000 -1.0000 -0.0006
vn -0.2328 0.9708 0.0576
vn -0.9808 0.0469 -0.1892
vn -0.9498 0.3050 -0.0692
vn -0.8388 -0.0781 0.5387
vn -0.0301 0.4865 0.8732
vn 0.7866 -0.0160 -0.6173
vn 0.1142 0.9721 -0.2051
vn 0.0919 0.9778 -0.1883
vn 0.5540 0.1976 -0.8087
vn -0.1671 0.9828 0.0787
vn 0.1988 0.9773 -0.0730
vn 0.2166 0.9719 -0.0922
vn 0.5677 -0.0238 0.8229
vn 0.0885 0.9767 -0.1956
vn 0.1177 0.9751 -0.1878
vn 0.8764 -0.0635 -0.4775
vn -0.7903 -0.0158 -0.6125
vn 0.1117 -0.9615 0.2511
vn -0.8688 0.1837 0.4598
vn -0.8369 0.1031 0.5375
vn 0.1799 -0.0396 -0.9829
vn -0.4209 0.2092 -0.8827
vn -0.7766 -0.1087 0.6206
vn 0.5592 0.1977 0.8051
vn -0.5065 0.2674 0.8197
vn -0.5691 -0.0317 0.8216
vn 0.2200 0.1866 0.9575
vn -0.1933 0.1021 0.9758
vn -0.9226 -0.3791 -0.0711
vn -0.9862 -0.0505 0.1578
vn -0.9851 -0.0386 0.1676
vn -0.1814 0.9802 0.0792
vn -0.1964 0.9758 0.0961
vn 0.8754 0.1555 -0.4577
vn 0.0010 1.0000 0.0007
vn 0.0009 1.0000 0.0009
vn 0.1954 0.9762 -0.0942
vn 0.0009 1.0000 -0.0007
vn 0.8746 0.1573 -0.4585
vn 0.1969 0.9753 -0.1000
vn 0.0006 1.0000 -0.0013
vn -0.0008 1.0000 -0.0028
vn -0.1736 0.9799 -0.0984
vn -0.1770 0.9793 -0.0981
vn 0.5550 0.1976 -0.8080
vn 0.5536 0.2004 -0.8083
vn 0.1148 0.9696 -0.2161
vn 0.1028 0.9766 -0.1888
vn 0.2017 0.9758 -0.0843
vn 0.2329 0.9680 -0.0931
vn -0.9863 -0.0381 0.1603
vn -0.9850 -0.0521 0.1644
s 0
f 21//1 23//1 15//1
f 67//2 70//2 80//2
f 78//3 81//3 83//3
f 73//4 65//4 72//4
f 28//5 30//5 23//5
f 3//6 8//6 5//6
f 18//7 6//7 19//7
f 12//8 18//8 14//8
f 16//9 15//9 23//9
f 33//10 27//10 34//10
f 4//11 12//11 14//11
f 72//12 44//12 16//12
f 11//13 15//13 16//13
f 41//14 38//14 46//14
f 54//15 71//15 77//15
f 58//16 64//16 78//16
f 9//17 2//17 5//17
f 44//18 38//18 31//18
f 27//19 13//19 20//19
f 20//20 13//20 8//20
f 69//21 77//21 74//21
f 28//22 27//22 33//22
f 29//23 31//23 35//23
f 52//24 47//24 60//24
f 10//25 5//25 8//25
f 8//26 13//26 21//26
f 75//27 61//27 67//27
f 51//28 40//28 62//28
f 59//29 46//29 45//29
f 56//30 68//30 53//30
f 53//31 67//31 61//31
f 65//32 59//32 72//32
f 47//33 52//33 39//33
f 59//34 42//34 46//34
f 79//35 78//35 64//35
f 42//36 57//36 48//36
f 31//37 38//37 41//37
f 56//38 39//38 20//38
f 56//39 49//39 55//39
f 22//40 26//40 48//40
f 62//41 50//41 52//41
f 57//42 42//42 71//42
f 51//43 43//43 40//43
f 55//44 54//44 69//44
f 47//45 61//45 60//45
f 18//46 19//46 29//46
f 65//47 73//47 74//47
f 6//48 18//48 12//48
f 80//49 69//49 74//49
f 19//50 6//50 17//50
f 67//51 68//51 70//51
f 35//52 36//52 22//52
f 55//53 69//53 70//53
f 55//54 70//54 56//54
f 74//55 77//55 65//55
f 1//56 6//56 12//56
f 9//57 5//57 10//57
f 66//58 60//58 63//58
f 80//59 73//59 82//59
f 75//60 64//60 63//60
f 60//61 75//61 63//61
f 80//62 81//62 76//62
f 73//63 81//63 82//63
f 50//64 34//64 32//64
f 1//65 2//65 6//65
f 64//66 58//66 63//66
f 11//67 2//67 9//67
f 21//68 28//68 23//68
f 76//69 67//69 80//69
f 79//70 81//70 78//70
f 72//71 83//71 73//71
f 81//72 73//72 83//72
f 28//73 33//73 30//73
f 5//74 1//74 3//74
f 1//75 5//75 2//75
f 23//76 30//76 37//76
f 30//77 43//77 37//77
f 37//78 16//78 23//78
f 3//79 1//79 4//79
f 22//80 26//80 14//80
f 26//81 7//81 14//81
f 7//82 4//82 14//82
f 34//83 40//83 33//83
f 24//84 17//84 44//84
f 17//85 16//85 44//85
f 78//86 83//86 72//86
f 16//87 37//87 78//87
f 78//88 72//88 16//88
f 16//89 17//89 2//89
f 17//90 6//90 2//90
f 2//91 11//91 16//91
f 46//92 42//92 41//92
f 54//93 57//93 71//93
f 78//94 37//94 58//94
f 37//95 51//95 58//95
f 10//96 21//96 11//96
f 21//97 15//97 11//97
f 25//98 24//98 31//98
f 24//99 44//99 31//99
f 44//100 45//100 38//100
f 32//101 27//101 20//101
f 8//102 3//102 20//102
f 3//103 7//103 20//103
f 69//104 54//104 77//104
f 22//105 14//105 29//105
f 29//106 14//106 18//106
f 28//107 13//107 27//107
f 29//108 25//108 31//108
f 21//109 10//109 8//109
f 67//110 76//110 75//110
f 36//111 41//111 42//111
f 77//112 71//112 65//112
f 71//113 59//113 65//113
f 45//114 44//114 59//114
f 44//115 72//115 59//115
f 48//116 36//116 42//116
f 63//117 58//117 66//117
f 46//118 38//118 45//118
f 67//119 53//119 68//119
f 59//120 71//120 42//120
f 4//121 7//121 3//121
f 57//122 54//122 49//122
f 54//123 55//123 49//123
f 49//124 48//124 57//124
f 35//125 31//125 41//125
f 7//126 26//126 20//126
f 49//127 26//127 48//127
f 49//128 56//128 26//128
f 56//129 53//129 39//129
f 39//130 32//130 20//130
f 20//131 26//131 56//131
f 43//132 51//132 37//132
f 30//133 33//133 40//133
f 43//134 30//134 40//134
f 66//135 62//135 52//135
f 81//136 79//136 76//136
f 35//137 22//137 29//137
f 39//138 61//138 53//138
f 61//139 39//139 47//139
f 19//140 25//140 29//140
f 22//141 48//141 36//141
f 52//142 39//142 50//142
f 39//143 32//143 50//143
f 80//144 70//144 69//144
f 17//145 24//145 19//145
f 24//146 25//146 19//146
f 35//147 41//147 36//147
f 13//148 28//148 21//148
f 70//149 68//149 56//149
f 58//150 51//150 62//150
f 62//151 66//151 58//151
f 1//152 12//152 4//152
f 11//153 9//153 10//153
f 66//154 52//154 60//154
f 80//155 74//155 73//155
f 75//156 79//156 64//156
f 60//157 61//157 75//157
f 80//158 82//158 81//158
f 75//159 76//159 79//159
f 27//160 32//160 34//160
f 62//161 40//161 50//161
f 40//162 34//162 50//162
f 26//163 48//163 36//163
f 26//164 36//164 22//164
f 35//165 38//165 41//165
f 44//166 37//166 72//166
f 37//167 78//167 72//167
f 38//168 24//168 44//168
f 24//169 37//169 44//169
f 31//170 38//170 35//170
f 31//171 24//171 38//171
f 24//172 17//172 37//172
f 17//173 16//173 37//173
f 16//174 15//174 37//174
f 15//175 23//175 37//175
f 18//176 25//176 29//176
f 18//177 19//177 25//177
f 61//178 53//178 47//178
f 47//179 53//179 39//179
f 52//180 39//180 32//180
f 52//181 32//181 50//181
f 40//182 34//182 62//182
f 34//183 50//183 62//183
