# Blender 4.0.0
# www.blender.org
o decimated_mesh
v -0.000118 0.140754 -0.010664
v 0.000074 0.149715 -0.009048
v -0.006492 0.149732 -0.007344
v -0.007614 0.140768 -0.007179
v 0.000091 0.140762 -0.006706
v 0.000091 0.149715 -0.006697
v -0.006682 0.140762 0.000054
v -0.006675 0.149715 0.000054
v -0.010684 0.140768 -0.000090
v -0.009547 0.149716 0.000026
vn 0.0009 1.0000 -0.0022
vn -0.4213 0.0360 -0.9062
vn 1.0000 -0.0000 -0.0072
vn -0.9170 0.1214 -0.3799
vn -0.0096 -0.0000 1.0000
vn -0.2468 0.1771 -0.9527
vn 0.7064 -0.0007 0.7078
vn 0.0007 1.0000 0.0007
vn 0.0014 1.0000 0.0007
vn 0.0006 1.0000 0.0023
vn 0.0023 1.0000 0.0023
vn 0.0026 1.0000 -0.0000
vn 0.9985 -0.0119 -0.0526
vn -0.9124 0.1069 -0.3951
vn -0.0357 -0.0084 0.9993
vn 0.7063 -0.0006 0.7079
vn -0.0020 1.0000 -0.0020
vn 0.0014 1.0000 0.0001
vn 0.0025 1.0000 0.0011
s 0
f 4//1 5//1 1//1
f 1//2 4//2 3//2
f 5//3 2//3 6//3
f 3//4 9//4 10//4
f 10//5 7//5 8//5
f 3//6 2//6 1//6
f 6//7 7//7 5//7
f 7//8 5//8 4//8
f 9//9 7//9 4//9
f 3//10 10//10 8//10
f 8//11 6//11 3//11
f 2//12 3//12 6//12
f 5//13 1//13 2//13
f 3//14 4//14 9//14
f 10//15 9//15 7//15
f 6//16 8//16 7//16
f 5//17 1//17 7//17
f 7//18 1//18 9//18
f 9//19 1//19 4//19
