# Blender 4.0.0
# www.blender.org
o decimated_mesh
v 0.021458 0.164782 0.016327
v 0.021527 0.172455 -0.024122
v 0.021253 0.167562 0.016461
v 0.018987 0.167777 0.020826
v 0.020848 0.162838 0.014862
v 0.019241 0.165895 0.020996
v 0.018826 0.162674 0.020667
v 0.021333 0.164652 -0.021386
v 0.017594 0.168572 0.019551
v 0.014406 0.167825 0.023478
v 0.015641 0.166200 0.023358
v 0.020848 0.162838 -0.015640
v 0.014307 0.162670 0.023282
v 0.020969 0.164982 -0.023955
v 0.021064 0.172398 -0.028293
v 0.012903 0.168599 0.021901
v 0.012903 0.166182 0.023992
v 0.015019 0.161261 0.005276
v 0.019553 0.162609 -0.017222
v 0.021137 0.167411 -0.026170
v -0.012903 0.168599 0.021901
v -0.014397 0.167784 0.023500
v -0.012903 0.166182 0.023992
v 0.015364 0.161261 -0.004061
v 0.017247 0.163558 -0.021616
v 0.002094 0.161235 -0.015723
v -0.014383 0.162640 0.023244
v 0.000079 0.161246 0.015859
v 0.018644 0.167561 -0.026721
v -0.017594 0.168572 0.019551
v -0.021254 0.172430 -0.022599
v -0.015610 0.166195 0.023368
v -0.017163 0.163575 -0.021694
v 0.017594 0.170429 -0.028352
v 0.019709 0.172420 -0.028780
v -0.018995 0.167773 0.020821
v -0.018824 0.162672 0.020668
v -0.021202 0.165069 -0.023891
v -0.021105 0.166983 -0.025966
v -0.017061 0.169724 -0.028126
v -0.021373 0.167406 0.016445
v -0.019245 0.165884 0.020992
v -0.021508 0.172444 -0.026621
v -0.020848 0.162838 0.014862
v -0.021305 0.164211 0.016244
v -0.019559 0.162610 -0.017221
v -0.020837 0.172435 -0.028569
v -0.020848 0.162838 -0.015640
v -0.015019 0.161261 0.005276
v -0.006630 0.161261 -0.014485
v -0.015360 0.161261 -0.004299
vn 0.3127 0.9428 0.1158
vn -0.0026 -0.7351 -0.6780
vn -0.0061 -0.6134 -0.7897
vn -0.0026 -0.8290 -0.5593
vn -0.0000 0.2934 0.9560
vn -0.0009 0.8913 0.4534
vn -0.2178 0.4208 0.8806
vn 0.0714 -0.9943 -0.0791
vn 0.4796 0.3038 0.8232
vn 0.5514 0.1481 0.8210
vn 0.2471 -0.9689 0.0091
vn 0.1875 0.9124 0.3638
vn -0.0877 -0.9933 -0.0752
vn 0.6269 -0.7566 -0.1859
vn 0.0524 0.9943 0.0931
vn 0.2239 0.0985 0.9696
vn 0.4247 -0.8781 -0.2202
vn -0.2239 -0.1111 0.9683
vn 0.9624 -0.2163 -0.1642
vn -0.0543 -0.9952 0.0814
vn -0.0021 -0.2082 -0.9781
vn -0.0011 -0.2064 0.9785
vn -0.9880 -0.0880 -0.1271
vn -0.2234 0.0895 0.9706
vn 0.2251 -0.1058 0.9686
vn 0.9997 -0.0259 -0.0032
vn -0.9837 -0.1795 -0.0064
vn -0.4811 0.2985 0.8243
vn -0.1832 -0.9362 -0.3000
vn -0.9401 -0.1080 -0.3233
vn -0.3601 0.9254 0.1180
vn -0.5499 0.1473 0.8221
vn 0.8795 0.1588 0.4486
vn -0.0512 -0.9703 -0.2366
vn -0.1978 -0.9794 0.0408
vn 0.8367 -0.4718 0.2781
vn 0.1743 -0.9396 -0.2945
vn 0.0558 -0.9695 -0.2387
vn 0.9972 0.0727 0.0155
vn -0.8032 -0.5337 0.2646
vn -0.4245 -0.8785 -0.2193
vn -0.8830 0.4659 0.0573
vn 0.8766 -0.1591 0.4542
vn -0.5230 0.2154 -0.8247
vn -0.9998 -0.0211 -0.0030
vn -0.9106 -0.0452 0.4109
vn -0.8837 -0.1601 0.4397
vn -0.0023 -0.7323 -0.6809
vn 0.0008 -0.8548 -0.5190
vn 0.0004 1.0000 0.0009
vn -0.0009 1.0000 -0.0072
vn 0.0205 0.9998 0.0023
vn 0.0225 0.9996 -0.0163
vn 0.0003 0.2983 0.9545
vn -0.0000 0.8976 0.4407
vn 0.3093 -0.3686 -0.8766
vn -0.1724 0.4161 0.8928
vn 0.2126 -0.9766 -0.0323
vn 0.2764 -0.9610 -0.0000
vn 0.1975 -0.9794 0.0410
vn 0.5223 0.2092 -0.8267
vn 0.4967 0.1512 -0.8547
vn 0.1784 0.9398 0.2914
vn 0.0527 -0.9946 0.0897
vn 0.0559 -0.9954 0.0775
vn 0.0024 0.9965 0.0839
vn -0.0537 0.9940 0.0956
vn -0.0000 0.9963 0.0858
vn -0.1884 0.9115 0.3656
vn -0.1811 0.9343 0.3070
vn 0.0044 -0.4930 -0.8700
vn -0.0015 -1.0000 -0.0000
vn -0.0034 -1.0000 -0.0029
vn -0.0012 -1.0000 0.0003
vn -0.0016 1.0000 -0.0005
vn -0.0010 1.0000 -0.0000
vn -0.8732 0.1574 0.4612
vn -0.0553 -0.9955 0.0775
vn -0.0052 -0.1681 -0.9858
vn -0.0000 -0.1981 0.9802
vn -0.9991 -0.0421 -0.0018
vn 0.1208 -0.6734 -0.7294
vn 0.0004 -0.9307 -0.3659
vn 0.9964 -0.0489 -0.0691
vn 0.9934 -0.0322 -0.1098
vn -0.9489 -0.3156 -0.0000
vn 0.4089 0.9050 0.1173
vn 0.9066 0.0465 0.4194
vn -0.0388 -0.9666 -0.2535
vn -0.2130 -0.9765 -0.0327
vn -0.2476 -0.9688 0.0088
vn -0.2762 -0.9611 -0.0000
vn -0.4087 0.9050 0.1183
vn 0.9642 -0.2650 -0.0023
vn 0.9542 -0.2992 -0.0000
vn -0.4952 0.1509 -0.8556
vn 0.0008 -0.9824 0.1869
vn -0.1937 -0.4149 -0.8890
vn 0.0003 1.0000 -0.0077
vn -0.0000 1.0000 -0.0048
vn -0.0005 1.0000 0.0037
vn 0.3529 0.9286 0.1144
vn -0.1686 0.4397 0.8822
vn -0.2023 0.4066 0.8910
vn -0.9991 -0.0427 -0.0035
vn -0.9998 -0.0213 0.0006
vn -0.3794 0.9178 0.1169
vn 0.1598 0.9378 0.3081
vn 0.2082 0.9159 0.3433
vn 0.3806 0.9121 0.1526
vn -0.3936 0.9090 0.1375
vn -0.2054 0.9145 0.3487
vn -0.1659 0.9327 0.3204
vn 0.5331 -0.1534 0.8321
vn 0.4905 -0.2035 0.8474
vn -0.0019 1.0000 -0.0001
vn -0.5313 -0.1536 0.8331
vn -0.4926 -0.1996 0.8471
vn -0.0013 1.0000 -0.0004
s 0
f 3//1 2//1 4//1
f 39//2 14//2 38//2
f 29//3 39//3 40//3
f 14//4 33//4 38//4
f 17//5 22//5 23//5
f 10//6 21//6 22//6
f 29//7 35//7 34//7
f 26//8 19//8 24//8
f 4//9 10//9 11//9
f 4//10 11//10 6//10
f 18//11 24//11 5//11
f 4//12 9//12 16//12
f 50//13 51//13 46//13
f 8//14 12//14 14//14
f 16//15 9//15 2//15
f 10//16 17//16 11//16
f 12//17 19//17 14//17
f 27//18 23//18 32//18
f 8//19 14//19 20//19
f 27//20 37//20 28//20
f 40//21 35//21 34//21
f 13//22 23//22 27//22
f 43//23 39//23 38//23
f 23//24 22//24 32//24
f 17//25 13//25 11//25
f 2//26 1//26 8//26
f 48//27 45//27 38//27
f 22//28 36//28 32//28
f 33//29 46//29 38//29
f 39//30 43//30 47//30
f 36//31 31//31 41//31
f 36//32 42//32 32//32
f 6//33 3//33 4//33
f 33//34 50//34 46//34
f 49//35 37//35 44//35
f 7//36 5//36 1//36
f 25//37 14//37 19//37
f 26//38 25//38 19//38
f 1//39 2//39 3//39
f 45//40 44//40 37//40
f 38//41 46//41 48//41
f 43//42 41//42 31//42
f 6//43 7//43 1//43
f 13//44 11//44 6//44
f 38//45 45//45 41//45
f 42//46 41//46 45//46
f 45//47 37//47 42//47
f 39//48 29//48 14//48
f 14//49 25//49 33//49
f 35//50 47//50 31//50
f 2//51 35//51 31//51
f 47//52 43//52 31//52
f 2//53 15//53 35//53
f 17//54 10//54 22//54
f 10//55 16//55 21//55
f 35//56 15//56 20//56
f 20//57 35//57 29//57
f 19//58 12//58 24//58
f 12//59 5//59 24//59
f 5//60 7//60 18//60
f 32//61 27//61 42//61
f 42//62 27//62 37//62
f 10//63 4//63 16//63
f 13//64 28//64 7//64
f 28//65 18//65 7//65
f 2//66 31//66 16//66
f 31//67 30//67 21//67
f 16//68 31//68 21//68
f 30//69 36//69 21//69
f 36//70 22//70 21//70
f 34//71 29//71 40//71
f 49//72 51//72 26//72
f 51//73 50//73 26//73
f 49//74 26//74 28//74
f 26//75 28//75 24//75
f 24//76 28//76 18//76
f 42//77 36//77 41//77
f 37//78 49//78 28//78
f 47//79 35//79 40//79
f 13//80 17//80 23//80
f 38//81 41//81 43//81
f 14//82 29//82 20//82
f 33//83 25//83 26//83
f 8//84 20//84 2//84
f 20//85 15//85 2//85
f 48//86 44//86 45//86
f 4//87 2//87 9//87
f 6//88 1//88 3//88
f 33//89 26//89 50//89
f 46//90 51//90 48//90
f 51//91 49//91 44//91
f 48//92 51//92 44//92
f 30//93 31//93 36//93
f 8//94 1//94 12//94
f 1//95 5//95 12//95
f 13//96 6//96 7//96
f 28//97 13//97 27//97
f 39//98 47//98 40//98
f 35//99 47//99 2//99
f 47//100 43//100 2//100
f 43//101 31//101 2//101
f 9//102 3//102 2//102
f 29//103 20//103 34//103
f 34//104 20//104 35//104
f 38//105 45//105 43//105
f 45//106 41//106 43//106
f 41//107 30//107 31//107
f 10//108 9//108 16//108
f 10//109 4//109 9//109
f 4//110 3//110 9//110
f 36//111 30//111 41//111
f 36//112 22//112 30//112
f 22//113 21//113 30//113
f 11//114 7//114 6//114
f 11//115 13//115 7//115
f 18//116 24//116 26//116
f 37//117 32//117 42//117
f 27//118 32//118 37//118
f 26//119 28//119 18//119
