mtllib material.mtl
usemtl material_0
v -0.00050000 0.00075760 0.00050003
v -0.00050000 0.00075760 -0.00050003
v 0.00050000 0.00075760 -0.00050003
v 0.00050000 0.00075760 0.00050003
v 0.00000000 0.21017000 -0.00729193
v 0.00279037 0.17864870 -0.00673730
v 0.00279037 0.21017000 -0.00673713
v 0.00000000 0.17654760 -0.00635721
v 0.00243267 0.17654760 -0.00587368
v 0.00116387 0.17383550 -0.00281030
v 0.00215056 0.17383550 -0.00215095
v 0.00449501 0.17654760 -0.00449549
v 0.00000000 0.17173440 -0.00224142
v 0.00085761 0.17173440 -0.00207089
v 0.00088429 0.15935100 -0.00207089
v 0.00088429 0.15935100 -0.00207089
v 0.00152895 0.14703170 -0.00207089
v 0.00225324 0.14709500 -0.00158504
v -0.00279037 0.17864870 -0.00673687
v -0.00449501 0.17654760 -0.00449532
v -0.00243267 0.17654760 -0.00587329
v -0.00515596 0.17864870 -0.00515628
v -0.00515596 0.21017000 -0.00515633
v -0.00279037 0.21017000 -0.00673700
v -0.00515596 0.17864870 0.00515560
v -0.00243267 0.17654760 0.00587257
v -0.00449501 0.17654760 0.00449464
v -0.00279037 0.17864870 0.00673614
v -0.00279037 0.21017000 0.00673614
v -0.00515596 0.21017000 0.00515560
v -0.00000000 0.17864870 0.00729147
v 0.00279037 0.17864870 0.00673666
v 0.00243268 0.17654770 0.00587304
v -0.00000000 0.17654760 0.00635673
v -0.00279037 0.17864870 0.00673614
v -0.00243267 0.17654760 0.00587257
v -0.00000000 0.17383550 0.00304110
v -0.00116387 0.17383550 0.00280945
v -0.00215056 0.17383550 0.00215020
v -0.00449501 0.17654760 0.00449464
v -0.00000000 0.17173450 0.00224079
v -0.00085761 0.17173450 0.00207008
v 0.00085761 0.17173440 0.00207020
v 0.00116386 0.17383550 0.00280962
v 0.00449501 0.17654760 0.00449489
v 0.00215056 0.17383550 0.00215035
v 0.00279037 0.17864870 0.00673666
v 0.00449501 0.17654760 0.00449489
v 0.00243268 0.17654770 0.00587304
v 0.00515596 0.17864870 0.00515587
v 0.00515596 0.21017000 0.00515587
v 0.00279037 0.21017000 0.00673640
v 0.00587301 0.17654760 0.00243244
v 0.00673659 0.17864870 0.00279019
v 0.00215056 0.17383550 0.00215035
v 0.00280984 0.17383550 0.00116353
v 0.00635688 0.17654760 -0.00000036
v 0.00304136 0.17383550 -0.00000033
v 0.00207047 0.17173440 0.00085723
v 0.00158466 0.17173440 0.00158443
v 0.00116386 0.17383550 0.00280962
v 0.00085761 0.17173440 0.00207020
v 0.00729161 0.17864870 -0.00000036
v 0.00587301 0.17654760 -0.00243295
v 0.00729161 0.21017000 -0.00000036
v 0.00673659 0.21017000 0.00279019
v 0.00215056 0.17383550 -0.00215095
v 0.00116387 0.17383550 -0.00281030
v 0.00085761 0.17173440 -0.00207089
v 0.00158466 0.17173440 -0.00158504
v 0.00280984 0.17383550 -0.00116415
v 0.00449501 0.17654760 -0.00449549
v 0.00161123 0.15936360 -0.00158504
v 0.00207047 0.17173450 -0.00085790
v 0.00224106 0.17173450 -0.00000033
v 0.00226753 0.15937500 -0.00000033
v 0.00209696 0.15937210 -0.00085790
v 0.00673659 0.17864870 -0.00279065
v 0.00273719 0.14713730 -0.00085790
v 0.00290714 0.14715220 -0.00000033
v 0.00273719 0.14713730 0.00085723
v 0.00422932 0.13497700 0.00085723
v 0.00439781 0.13500370 -0.00000033
v 0.00656607 0.12295050 0.00085723
v 0.00673659 0.21017000 -0.00279065
v 0.00515596 0.21017000 -0.00515646
v 0.00515596 0.17864870 -0.00515646
v 0.00279037 0.21017000 -0.00673713
v 0.00279037 0.17864870 -0.00673730
v 0.00243267 0.17654760 -0.00587368
v 0.00422932 0.13497700 -0.00085790
v 0.00673229 0.12298880 -0.00000033
v 0.00973606 0.11111620 0.00085723
v 0.00374949 0.13490100 -0.00158504
v 0.00303138 0.13478740 -0.00207089
v 0.00656607 0.12295050 -0.00085790
v 0.00989919 0.11116610 -0.00000033
v 0.01371131 0.09948885 0.00085723
v 0.00609271 0.12284120 -0.00158504
v 0.00538428 0.12267770 -0.00207089
v 0.00973605 0.11111620 -0.00085790
v 0.01387160 0.09954721 -0.00000033
v 0.01795184 0.08783805 0.00085723
v 0.00927147 0.11097420 -0.00158504
v 0.00857617 0.11076170 -0.00207089
v 0.01325480 0.09932269 -0.00158504
v 0.01371130 0.09948887 -0.00085790
v 0.01811214 0.08789641 -0.00000033
v 0.02326313 0.07462277 0.00085723
v 0.01795184 0.08783807 -0.00085790
v 0.01749534 0.08767191 -0.00158504
v 0.02341783 0.07469466 -0.00000033
v 0.03016202 0.05919012 0.00085723
v 0.02326313 0.07462277 -0.00085790
v 0.02282258 0.07441800 -0.00158504
v 0.03031672 0.05926202 -0.00000033
v 0.03839574 0.04083096 0.00085723
v 0.03016202 0.05919012 -0.00085790
v 0.02972146 0.05898537 -0.00158504
v 0.03855043 0.04090286 -0.00000033
v 0.04711176 0.02272036 0.00085718
v 0.04726647 0.02279226 -0.00000038
v 0.03839574 0.04083096 -0.00085790
v 0.03795519 0.04062621 -0.00158504
v 0.04711176 0.02272036 -0.00085794
v 0.04667125 0.02251562 -0.00158509
v -0.00116387 0.17383550 -0.00281013
v -0.00215056 0.17383550 -0.00215083
v -0.00158466 0.17173450 -0.00158493
v -0.00085761 0.17173440 -0.00207075
v -0.00083068 0.15932120 -0.00207075
v -0.00280984 0.17383550 0.00116353
v -0.00158466 0.17173450 0.00158430
v -0.00207047 0.17173440 0.00085723
v -0.00215056 0.17383550 0.00215020
v -0.00085761 0.17173450 0.00207008
v -0.00116387 0.17383550 0.00280945
v -0.00155762 0.15930860 0.00158430
v -0.00083068 0.15932120 0.00207008
v -0.00090405 0.14681910 0.00158430
v -0.00017976 0.14688240 0.00207008
v 0.00061914 0.13440550 0.00158430
v 0.00013932 0.13432960 0.00085723
v 0.00133725 0.13451920 0.00207008
v 0.00253120 0.12201930 0.00085723
v 0.00300455 0.12212850 0.00158430
v 0.00371298 0.12229200 0.00207008
v 0.00577597 0.10990580 0.00085723
v 0.00624055 0.11004780 0.00158430
v 0.00693585 0.11026040 0.00207008
v 0.00982010 0.09807257 0.00085723
v 0.01027660 0.09823874 0.00158430
v 0.01095980 0.09848741 0.00207008
v 0.01406064 0.08642177 0.00085723
v 0.01451714 0.08658794 0.00158430
v 0.01520035 0.08683661 0.00207008
v 0.01950795 0.07287748 0.00085723
v 0.01994850 0.07308224 0.00158430
v 0.02060782 0.07338867 0.00207008
v 0.02640685 0.05744484 0.00085723
v 0.02684738 0.05764959 0.00158430
v 0.02750672 0.05795603 0.00207008
v 0.03464057 0.03908569 0.00085723
v 0.03508110 0.03929044 0.00158430
v 0.04335660 0.02097509 0.00085718
v 0.03574043 0.03959687 0.00207008
v 0.04379712 0.02117984 0.00158425
v 0.04445649 0.02148627 0.00207004
v 0.00209696 0.15937200 0.00085723
v 0.00161123 0.15936360 0.00158443
v 0.00225324 0.14709500 0.00158443
v 0.00374949 0.13490100 0.00158443
v 0.00088429 0.15935100 0.00207020
v 0.00152895 0.14703170 0.00207020
v 0.00303138 0.13478740 0.00207020
v 0.00538428 0.12267770 0.00207020
v -0.00673659 0.21017000 -0.00279065
v -0.00673659 0.17864870 -0.00279065
v -0.00729161 0.21017000 -0.00000036
v -0.00587300 0.17654760 -0.00243298
v -0.00729161 0.17864870 -0.00000036
v -0.00673659 0.21017000 0.00279019
v -0.00635688 0.17654760 -0.00000036
v -0.00280983 0.17383550 -0.00116425
v -0.00673659 0.17864870 0.00279019
v -0.00587301 0.17654760 0.00243244
v -0.00304136 0.17383550 -0.00000033
v -0.00207045 0.17173450 -0.00085802
v -0.00224106 0.17173450 -0.00000033
v -0.00155762 0.15930860 -0.00158493
v -0.00017976 0.14688230 -0.00207075
v -0.00204333 0.15930010 -0.00085802
v -0.00090405 0.14681910 -0.00158493
v 0.00133726 0.13451920 -0.00207075
v -0.00221391 0.15929720 -0.00000033
v -0.00138799 0.14677680 -0.00085802
v 0.00061914 0.13440550 -0.00158493
v 0.00371299 0.12229200 -0.00207075
v -0.00204335 0.15930010 0.00085723
v -0.00155796 0.14676190 -0.00000033
v -0.00138801 0.14677670 0.00085723
v 0.00013934 0.13432960 -0.00085802
v 0.00300455 0.12212850 -0.00158493
v 0.00693586 0.11026030 -0.00207075
v -0.00002918 0.13430290 -0.00000033
v 0.00253121 0.12201930 -0.00085802
v 0.00624055 0.11004780 -0.00158493
v 0.01095981 0.09848738 -0.00207075
v 0.00236497 0.12198090 -0.00000033
v 0.00577598 0.10990580 -0.00085802
v 0.01027660 0.09823874 -0.00158493
v 0.01520035 0.08683659 -0.00207075
v 0.00561282 0.10985600 -0.00000033
v 0.00982011 0.09807260 -0.00085802
v 0.01451714 0.08658794 -0.00158493
v 0.02060783 0.07338867 -0.00207075
v 0.00965979 0.09801424 -0.00000033
v 0.01406066 0.08642180 -0.00085802
v 0.01994850 0.07308224 -0.00158493
v 0.01390033 0.08636343 -0.00000033
v 0.01950797 0.07287750 -0.00085802
v 0.02684738 0.05764959 -0.00158493
v 0.01935324 0.07280559 -0.00000033
v 0.02640686 0.05744485 -0.00085802
v 0.03508110 0.03929044 -0.00158493
v 0.02625214 0.05737295 -0.00000033
v 0.03464060 0.03908569 -0.00085802
v 0.04379712 0.02117984 -0.00158498
v 0.04335662 0.02097510 -0.00085807
v 0.03448586 0.03901379 -0.00000033
v 0.04320189 0.02090319 -0.00000038
v -0.00000000 0.21017000 0.00729147
v -0.00279037 0.21017000 0.00673614
v 0.00279037 0.21017000 0.00673640
v -0.00449501 0.17654760 -0.00449532
v -0.00215056 0.17383550 -0.00215083
v -0.00116387 0.17383550 -0.00281013
v -0.00243267 0.17654760 -0.00587329
v 0.00000000 0.17383550 -0.00304171
v -0.00085761 0.17173440 -0.00207075
v 0.00000000 0.17864870 -0.00729193
v -0.00279037 0.17864870 -0.00673687
v -0.00279037 0.21017000 -0.00673700
v 0.00002681 0.15933610 -0.00224142
v -0.00083068 0.15932120 -0.00207075
v 0.00152895 0.14703170 -0.00207089
v 0.00067459 0.14695700 -0.00224142
v -0.00017976 0.14688230 -0.00207075
v 0.00303138 0.13478740 -0.00207089
v 0.00218432 0.13465330 -0.00224142
v 0.00133726 0.13451920 -0.00207075
v 0.00538428 0.12267770 -0.00207089
v 0.00454863 0.12248490 -0.00224142
v 0.00371299 0.12229200 -0.00207075
v 0.00857617 0.11076170 -0.00207089
v 0.00775601 0.11051100 -0.00224142
v 0.00693586 0.11026030 -0.00207075
v 0.01257159 0.09907403 -0.00207089
v 0.01176570 0.09878071 -0.00224142
v 0.01095981 0.09848738 -0.00207075
v 0.01681213 0.08742324 -0.00207089
v 0.01600624 0.08712991 -0.00224142
v 0.01520035 0.08683659 -0.00207075
v 0.02216326 0.07411158 -0.00207089
v 0.02138554 0.07375012 -0.00224142
v 0.02060783 0.07338867 -0.00207075
v 0.02906215 0.05867894 -0.00207089
v 0.02828443 0.05831748 -0.00224142
v 0.02750672 0.05795603 -0.00207075
v 0.03729586 0.04031977 -0.00207089
v 0.03651815 0.03995832 -0.00224142
v 0.04601188 0.02220918 -0.00207093
v 0.03574043 0.03959687 -0.00207075
v 0.04523419 0.02184772 -0.00224147
v 0.04445649 0.02148627 -0.00207080
v 0.03729586 0.04031977 -0.00207089
v 0.04601188 0.02220918 -0.00207093
v 0.02906215 0.05867894 -0.00207089
v 0.02216326 0.07411158 -0.00207089
v 0.01681213 0.08742324 -0.00207089
v 0.01257159 0.09907403 -0.00207089
v 0.04445649 0.02148627 -0.00207080
v 0.03574043 0.03959687 -0.00207075
v 0.02750672 0.05795603 -0.00207075
v 0.03651815 0.03995832 0.00224079
v 0.04523419 0.02184772 0.00224074
v 0.04445649 0.02148627 0.00207004
v 0.03574043 0.03959687 0.00207008
v 0.02828443 0.05831748 0.00224079
v 0.02750672 0.05795603 0.00207008
v 0.02138554 0.07375012 0.00224079
v 0.02060782 0.07338867 0.00207008
v 0.01600624 0.08712993 0.00224079
v 0.01520035 0.08683661 0.00207008
v 0.01176569 0.09878073 0.00224079
v 0.01095980 0.09848741 0.00207008
v 0.00775601 0.11051100 0.00224079
v 0.00693585 0.11026040 0.00207008
v 0.00454863 0.12248490 0.00224079
v 0.00371298 0.12229200 0.00207008
v 0.00218432 0.13465330 0.00224079
v 0.00133725 0.13451920 0.00207008
v 0.00067459 0.14695700 0.00224079
v -0.00017976 0.14688240 0.00207008
v 0.00002681 0.15933610 0.00224079
v -0.00083068 0.15932120 0.00207008
v 0.03729586 0.04031977 0.00207020
v 0.04601188 0.02220918 0.00207015
v 0.02906215 0.05867894 0.00207020
v 0.02216326 0.07411158 0.00207020
v 0.01681213 0.08742324 0.00207020
v 0.01257159 0.09907403 0.00207020
v 0.00857617 0.11076170 0.00207020
v 0.00538428 0.12267770 0.00207020
v 0.04667125 0.02251562 0.00158439
v 0.03795519 0.04062621 0.00158443
v 0.04601188 0.02220918 0.00207015
v 0.03729586 0.04031977 0.00207020
v 0.02972146 0.05898537 0.00158443
v 0.02906215 0.05867894 0.00207020
v 0.02282258 0.07441800 0.00158443
v 0.02216326 0.07411158 0.00207020
v 0.01749534 0.08767191 0.00158443
v 0.01681213 0.08742324 0.00207020
v 0.01325480 0.09932269 0.00158443
v 0.01257159 0.09907403 0.00207020
v 0.00927147 0.11097420 0.00158443
v 0.00857617 0.11076170 0.00207020
v 0.00609271 0.12284120 0.00158443
v 0.00088429 0.15935100 0.00207020
v 0.00152895 0.14703170 0.00207020
v 0.00303138 0.13478740 0.00207020
v 0.04601188 0.02220918 -0.00207093
v 0.04523419 0.02184772 -0.00000039
v 0.04667125 0.02251562 -0.00158509
v 0.04523419 0.02184772 -0.00224147
v 0.04711176 0.02272036 -0.00085794
v 0.04445649 0.02148627 -0.00207080
v 0.04726647 0.02279226 -0.00000038
v 0.04379712 0.02117984 -0.00158498
v 0.04711176 0.02272036 0.00085718
v 0.04335662 0.02097510 -0.00085807
v 0.04667125 0.02251562 0.00158439
v 0.04320189 0.02090319 -0.00000038
v 0.04601188 0.02220918 0.00207015
v 0.04335660 0.02097509 0.00085718
v 0.04523419 0.02184772 0.00224074
v 0.04379712 0.02117984 0.00158425
v 0.04445649 0.02148627 0.00207004
vn 0.00000000 1.00000000 0.00000000
vn 0.00000000 1.00000000 0.00000000
vn 0.00000000 1.00000000 0.00000000
vn 0.00000000 1.00000000 0.00000000
vn -0.00005109 0.00000034 -1.00000000
vn 0.38253360 -0.02486733 -0.92360690
vn 0.38265240 0.00000252 -0.92389240
vn -0.00006188 -0.61590860 -0.78781750
vn 0.30145900 -0.61591460 -0.72785430
vn 0.27180230 -0.70390410 -0.65623350
vn 0.50229300 -0.70389480 -0.50222890
vn 0.55709960 -0.61591310 -0.55703770
vn -0.00039857 -0.06559455 -0.99784620
vn 0.38161000 -0.06497530 -0.92203690
vn 0.37963280 0.01029209 -0.92508000
vn 0.37963280 0.01029209 -0.92508000
vn 0.37712860 0.03296477 -0.92557410
vn 0.70206200 0.06136694 -0.70946680
vn -0.38255800 -0.02487177 -0.92359660
vn -0.55707050 -0.61590640 -0.55707440
vn -0.30148710 -0.61590820 -0.72784790
vn -0.70689390 -0.02487057 -0.70688230
vn -0.70711270 -0.00000135 -0.70710080
vn -0.38267520 -0.00000218 -0.92388300
vn -0.70686420 -0.02486955 0.70691200
vn -0.30151190 -0.61590580 0.72783980
vn -0.55705610 -0.61590860 0.55708620
vn -0.38259510 -0.02486980 0.92358130
vn -0.38271340 0.00000000 0.92386710
vn -0.70708280 0.00000000 0.70713070
vn -0.00007245 -0.02486789 0.99969080
vn 0.38255360 -0.02486664 0.92359860
vn 0.30147330 -0.61592050 0.72784320
vn -0.00007013 -0.61591630 0.78781160
vn -0.38259510 -0.02486980 0.92358130
vn -0.30151190 -0.61590580 0.72783980
vn -0.00006204 -0.70390000 0.71029910
vn -0.27185700 -0.70387820 0.65623860
vn -0.50225650 -0.70388700 0.50227620
vn -0.55705610 -0.61590860 0.55708620
vn -0.00038974 -0.06559822 0.99784600
vn -0.38218250 -0.06621793 0.92171130
vn 0.38159980 -0.06497446 0.92204120
vn 0.27180950 -0.70390270 0.65623220
vn 0.55708540 -0.61591740 0.55704700
vn 0.50227790 -0.70389750 0.50224010
vn 0.38255360 -0.02486664 0.92359860
vn 0.55708540 -0.61591740 0.55704700
vn 0.30147330 -0.61592050 0.72784320
vn 0.70690020 -0.02486887 0.70687600
vn 0.70711820 0.00000173 0.70709530
vn 0.38267250 0.00000377 0.92388410
vn 0.72785480 -0.61590870 0.30146960
vn 0.92360260 -0.02486959 0.38254380
vn 0.50227790 -0.70389750 0.50224010
vn 0.65625040 -0.70388510 0.27181100
vn 0.78782020 -0.61590520 0.00000133
vn 0.71031100 -0.70388790 0.00000233
vn 0.92194770 -0.06409903 0.38197380
vn 0.70552620 -0.06445186 0.70574690
vn 0.27180950 -0.70390270 0.65623220
vn 0.38159980 -0.06497446 0.92204120
vn 0.99969070 -0.02486953 -0.00000045
vn 0.72785340 -0.61590750 -0.30147530
vn 1.00000000 0.00000000 0.00000000
vn 0.92388830 0.00000000 0.38266240
vn 0.50229300 -0.70389480 -0.50222890
vn 0.27180230 -0.70390410 -0.65623350
vn 0.38161000 -0.06497530 -0.92203690
vn 0.70553420 -0.06444944 -0.70573920
vn 0.65625020 -0.70388400 -0.27181430
vn 0.55709960 -0.61591310 -0.55703770
vn 0.70518900 0.01913521 -0.70876100
vn 0.92194300 -0.06410055 -0.38198470
vn 0.99795120 -0.06398053 -0.00000133
vn 0.99963210 0.02712130 -0.00000016
vn 0.92304660 0.02504487 -0.38387200
vn 0.92359930 -0.02486960 -0.38255190
vn 0.91967070 0.08038787 -0.38437410
vn 0.99620160 0.08707719 -0.00000014
vn 0.91967550 0.08038882 0.38436260
vn 0.91182780 0.14434620 0.38436220
vn 0.98770070 0.15635660 -0.00000058
vn 0.89953790 0.20760030 0.38436160
vn 0.92388500 0.00000000 -0.38267040
vn 0.70713840 0.00000116 -0.70707510
vn 0.70692020 -0.02486880 -0.70685590
vn 0.38265240 0.00000252 -0.92389240
vn 0.38253360 -0.02486733 -0.92360690
vn 0.30145900 -0.61591460 -0.72785430
vn 0.91182330 0.14434510 -0.38437340
vn 0.97438780 0.22487420 -0.00000057
vn 0.88315180 0.26895840 0.38432300
vn 0.69607120 0.11019110 -0.70946650
vn 0.37391070 0.05919165 -0.92557390
vn 0.89953330 0.20759930 -0.38437270
vn 0.95662030 0.29133750 0.00000000
vn 0.87104510 0.30741580 0.38311350
vn 0.68668900 0.15847800 -0.70946670
vn 0.36887040 0.08512999 -0.92557410
vn 0.88314720 0.26895650 -0.38433500
vn 0.94299360 0.33281070 -0.00000109
vn 0.86214670 0.33120780 0.38341150
vn 0.67423430 0.20532460 -0.70940120
vn 0.36227890 0.11031940 -0.92551810
vn 0.66622250 0.23512410 -0.70771770
vn 0.87104020 0.30741390 -0.38312600
vn 0.93348760 0.35860970 -0.00000111
vn 0.84966920 0.36207840 0.38335550
vn 0.86214250 0.33120610 -0.38342230
vn 0.65908160 0.25320350 -0.70816630
vn 0.91995820 0.39201620 0.00000000
vn 0.84322150 0.37760990 0.38260710
vn 0.84966520 0.36207670 -0.38336600
vn 0.64959680 0.27685640 -0.70807810
vn 0.91266530 0.40870770 0.00000000
vn 0.83760110 0.38928460 0.38325160
vn 0.84321710 0.37760790 -0.38261880
vn 0.64545270 0.28904610 -0.70699580
vn 0.90684400 0.42146630 0.00000015
vn 0.83272960 0.40076400 0.38203370
vn 0.90107730 0.43365840 -0.00000030
vn 0.83759650 0.38928350 -0.38326310
vn 0.64050940 0.29768550 -0.70790620
vn 0.83272430 0.40076370 -0.38204530
vn 0.63797340 0.30703750 -0.70619970
vn -0.27183930 -0.70388110 -0.65624280
vn -0.50225820 -0.70388660 -0.50227520
vn -0.70567850 -0.06675273 -0.70538070
vn -0.38218200 -0.06621750 -0.92171150
vn -0.38550980 -0.01054025 -0.92264350
vn -0.65624170 -0.70388940 0.27182080
vn -0.70570550 -0.06675344 0.70535360
vn -0.92184690 -0.06710905 0.38169960
vn -0.50225650 -0.70388700 0.50227620
vn -0.38218250 -0.06621793 0.92171130
vn -0.27185700 -0.70387820 0.65623860
vn -0.70855750 -0.01935555 0.70538750
vn -0.38550950 -0.01054019 0.92264370
vn -0.70681930 -0.06178240 0.70469090
vn -0.38537280 -0.03368531 0.92214590
vn -0.70078810 -0.11093720 0.70469060
vn -0.91320980 -0.14456530 0.38098400
vn -0.38208400 -0.06048539 0.92214610
vn -0.90090130 -0.20791560 0.38098310
vn -0.69134230 -0.15955180 0.70469070
vn -0.37693430 -0.08699095 0.92214600
vn -0.88447520 -0.26922320 0.38108060
vn -0.67864170 -0.20657800 0.70481990
vn -0.36988940 -0.11259900 0.92222730
vn -0.87145890 -0.30744370 0.38214870
vn -0.66753300 -0.23550400 0.70635530
vn -0.36210370 -0.12774820 0.92334250
vn -0.86272620 -0.33169900 0.38167970
vn -0.66130240 -0.25425060 0.70571650
vn -0.35934550 -0.13816460 0.92292000
vn -0.85026910 -0.36233710 0.38177780
vn -0.65167120 -0.27766830 0.70585050
vn -0.35400630 -0.15078330 0.92300810
vn -0.84319160 -0.37759820 0.38268480
vn -0.64534850 -0.28899930 0.70711000
vn -0.34927550 -0.15641140 0.92387340
vn -0.83803510 -0.38948710 0.38209570
vn -0.64199490 -0.29837560 0.70626810
vn -0.83227550 -0.40054730 0.38324850
vn -0.34837250 -0.16191150 0.92326660
vn -0.63643040 -0.30629460 0.70791240
vn -0.34360770 -0.16536970 0.92443860
vn 0.92305140 0.02504552 0.38386040
vn 0.70518310 0.01913484 0.70876700
vn 0.70205540 0.06136620 0.70947340
vn 0.69606450 0.11019000 0.70947330
vn 0.37962370 0.01029188 0.92508380
vn 0.37712010 0.03296409 0.92557760
vn 0.37390230 0.05919033 0.92557750
vn 0.36886260 0.08512828 0.92557740
vn -0.92388080 -0.00000019 -0.38268020
vn -0.92359510 -0.02486954 -0.38256190
vn -1.00000000 0.00000000 0.00000000
vn -0.72785040 -0.61590600 -0.30148580
vn -0.99969070 -0.02486950 -0.00000010
vn -0.92388120 0.00000000 0.38267930
vn -0.78781900 -0.61590700 -0.00000269
vn -0.65624030 -0.70388700 -0.27183050
vn -0.92359550 -0.02486972 0.38256070
vn -0.72785000 -0.61590870 0.30148110
vn -0.71031370 -0.70388530 -0.00000380
vn -0.92184340 -0.06711087 -0.38170780
vn -0.99773710 -0.06723686 -0.00001130
vn -0.70852680 -0.01935487 -0.70541830
vn -0.38537400 -0.03368551 -0.92214550
vn -0.92403140 -0.02524210 -0.38148230
vn -0.70678920 -0.06177990 -0.70472150
vn -0.38208510 -0.06048592 -0.92214560
vn -0.99962710 -0.02730792 -0.00001127
vn -0.92106620 -0.08050999 -0.38099230
vn -0.70075810 -0.11093240 -0.70472130
vn -0.37693510 -0.08699127 -0.92214560
vn -0.92403410 -0.02524268 0.38147560
vn -0.99620160 -0.08707722 -0.00001139
vn -0.92106880 -0.08051091 0.38098560
vn -0.91320690 -0.14456430 -0.38099120
vn -0.69131260 -0.15954500 -0.70472130
vn -0.36989070 -0.11259970 -0.92222670
vn -0.98770070 -0.15635680 -0.00001164
vn -0.90089850 -0.20791430 -0.38099030
vn -0.67861290 -0.20656950 -0.70485010
vn -0.36210450 -0.12774850 -0.92334200
vn -0.97438790 -0.22487370 -0.00001218
vn -0.88447230 -0.26922160 -0.38108830
vn -0.66750550 -0.23549430 -0.70638440
vn -0.35934610 -0.13816490 -0.92291980
vn -0.95666490 -0.29119100 -0.00001385
vn -0.87145580 -0.30744250 -0.38215680
vn -0.66127570 -0.25424030 -0.70574520
vn -0.35400650 -0.15078350 -0.92300800
vn -0.94303520 -0.33269270 -0.00001392
vn -0.86272350 -0.33169780 -0.38168660
vn -0.65164400 -0.27765670 -0.70588020
vn -0.93338730 -0.35887040 -0.00001295
vn -0.85026650 -0.36233570 -0.38178480
vn -0.64532070 -0.28898680 -0.70714060
vn -0.91994610 -0.39204480 -0.00001327
vn -0.84318870 -0.37759680 -0.38269220
vn -0.64196860 -0.29836160 -0.70629780
vn -0.91266440 -0.40870980 -0.00001234
vn -0.83803270 -0.38948530 -0.38210270
vn -0.63640610 -0.30627940 -0.70794090
vn -0.83227320 -0.40054440 -0.38325650
vn -0.90684400 -0.42146650 -0.00001331
vn -0.90107730 -0.43365850 -0.00001561
vn -0.00007115 0.00000204 1.00000000
vn -0.38271340 0.00000000 0.92386710
vn 0.38267250 0.00000377 0.92388410
vn -0.55707050 -0.61590640 -0.55707440
vn -0.50225820 -0.70388660 -0.50227520
vn -0.27183930 -0.70388110 -0.65624280
vn -0.30148710 -0.61590820 -0.72784790
vn -0.00006000 -0.70388540 -0.71031350
vn -0.38218200 -0.06621750 -0.92171150
vn -0.00005278 -0.02486929 -0.99969080
vn -0.38255800 -0.02487177 -0.92359660
vn -0.38267520 -0.00000218 -0.92388300
vn -0.00348784 -0.00013056 -0.99999390
vn -0.38550980 -0.01054025 -0.92264350
vn 0.37712860 0.03296477 -0.92557410
vn -0.00487502 -0.00042615 -0.99998810
vn -0.38537400 -0.03368551 -0.92214550
vn 0.37391070 0.05919165 -0.92557390
vn -0.00483314 -0.00076507 -0.99998810
vn -0.38208510 -0.06048592 -0.92214560
vn 0.36887040 0.08512999 -0.92557410
vn -0.00476786 -0.00110037 -0.99998810
vn -0.37693510 -0.08699127 -0.92214560
vn 0.36227890 0.11031940 -0.92551810
vn -0.00449738 -0.00136125 -0.99998900
vn -0.36989070 -0.11259970 -0.92222670
vn 0.35977690 0.12697380 -0.92435830
vn -0.00140136 -0.00047860 -0.99999890
vn -0.36210450 -0.12774850 -0.92334200
vn 0.35536380 0.13651570 -0.92470540
vn -0.00238379 -0.00096001 -0.99999680
vn -0.35934610 -0.13816490 -0.92291980
vn 0.35034060 0.14936820 -0.92463540
vn -0.00219152 -0.00084485 -0.99999730
vn -0.35400650 -0.15078350 -0.92300800
vn 0.34934580 0.15644450 -0.92384120
vn -0.00000106 0.00000067 -1.00000000
vn -0.34927540 -0.15641130 -0.92387350
vn 0.34573180 0.16068410 -0.92447290
vn -0.00158929 -0.00073743 -0.99999850
vn 0.34613450 0.16658550 -0.92327680
vn -0.34837350 -0.16190960 -0.92326660
vn 0.00143722 0.00069415 -0.99999880
vn -0.34360850 -0.16536520 -0.92443900
vn 0.34573180 0.16068410 -0.92447290
vn 0.34613450 0.16658550 -0.92327680
vn 0.34934580 0.15644450 -0.92384120
vn 0.35034060 0.14936820 -0.92463540
vn 0.35536380 0.13651570 -0.92470540
vn 0.35977690 0.12697380 -0.92435830
vn -0.34360850 -0.16536520 -0.92443900
vn -0.34837350 -0.16190960 -0.92326660
vn -0.34927540 -0.15641130 -0.92387350
vn -0.00157880 -0.00073513 0.99999860
vn 0.00144931 0.00069482 0.99999870
vn -0.34360770 -0.16536970 0.92443860
vn -0.34837250 -0.16191150 0.92326660
vn 0.00000892 0.00000514 1.00000000
vn -0.34927550 -0.15641140 0.92387340
vn -0.00218198 -0.00084074 0.99999730
vn -0.35400630 -0.15078330 0.92300810
vn -0.00237441 -0.00095638 0.99999680
vn -0.35934550 -0.13816460 0.92292000
vn -0.00139184 -0.00047519 0.99999890
vn -0.36210370 -0.12774820 0.92334250
vn -0.00448830 -0.00135851 0.99998900
vn -0.36988940 -0.11259900 0.92222730
vn -0.00475860 -0.00109828 0.99998810
vn -0.37693430 -0.08699095 0.92214600
vn -0.00482353 -0.00076367 0.99998810
vn -0.38208400 -0.06048539 0.92214610
vn -0.00486502 -0.00042533 0.99998810
vn -0.38537280 -0.03368531 0.92214590
vn -0.00347776 -0.00013031 0.99999390
vn -0.38550950 -0.01054019 0.92264370
vn 0.34572400 0.16067810 0.92447690
vn 0.34612720 0.16657720 0.92328110
vn 0.34933710 0.15644060 0.92384510
vn 0.35033270 0.14936480 0.92463890
vn 0.35535510 0.13651230 0.92470930
vn 0.35976810 0.12697080 0.92436210
vn 0.36227150 0.11031720 0.92552110
vn 0.36886260 0.08512828 0.92557740
vn 0.63797040 0.30703230 0.70620470
vn 0.64050500 0.29768150 0.70791170
vn 0.34612720 0.16657720 0.92328110
vn 0.34572400 0.16067810 0.92447690
vn 0.64544830 0.28904410 0.70700070
vn 0.34933710 0.15644060 0.92384510
vn 0.64959120 0.27685400 0.70808420
vn 0.35033270 0.14936480 0.92463890
vn 0.65907510 0.25320090 0.70817310
vn 0.35535510 0.13651230 0.92470930
vn 0.66621740 0.23512220 0.70772300
vn 0.35976810 0.12697080 0.92436210
vn 0.67422880 0.20532270 0.70940690
vn 0.36227150 0.11031720 0.92552110
vn 0.68668250 0.15847640 0.70947330
vn 0.37962370 0.01029188 0.92508380
vn 0.37712010 0.03296409 0.92557760
vn 0.37390230 0.05919033 0.92557750
vn 0.42147200 -0.90684130 -0.00000465
vn 0.42146880 -0.90684290 -0.00000012
vn 0.42147200 -0.90684150 -0.00000330
vn 0.42146720 -0.90684360 0.00000039
vn 0.42147200 -0.90684150 -0.00000194
vn 0.42146230 -0.90684590 0.00000543
vn 0.42147150 -0.90684160 0.00000000
vn 0.42146570 -0.90684430 -0.00000019
vn 0.42147090 -0.90684190 0.00000174
vn 0.42146940 -0.90684260 -0.00000582
vn 0.42146940 -0.90684260 0.00000320
vn 0.42146970 -0.90684250 -0.00000039
vn 0.42146780 -0.90684340 0.00000465
vn 0.42147010 -0.90684240 0.00000504
vn 0.42146690 -0.90684380 -0.00000039
vn 0.42146800 -0.90684320 -0.00000019
vn 0.42146610 -0.90684410 -0.00000543
vt 0.35479500 -2.55392200
vt 0.35479500 -2.55196500
vt 0.35675150 -2.55196500
vt 0.35675150 -2.55392200
vt 0.73551930 0.01965100
vt 0.74110040 0.08269787
vt 0.74110040 0.01965100
vt 0.73551930 0.08690023
vt 0.74038510 0.08690023
vt 0.73784720 0.09232493
vt 0.73982080 0.09232490
vt 0.74450990 0.08690023
vt 0.73551930 0.09652726
vt 0.73723470 0.09652726
vt 0.73728800 0.12129590
vt 0.95214310 0.72090920
vt 0.95214310 0.69328220
vt 0.95105360 0.69342420
vt 0.68572920 0.35049800
vt 0.69075530 0.34578690
vt 0.68766560 0.34578690
vt 0.68927320 0.35049800
vt 0.68927310 0.42117640
vt 0.68572900 0.42117640
vt 0.71239500 0.35049800
vt 0.71400260 0.34578690
vt 0.71091290 0.34578690
vt 0.71593890 0.35049800
vt 0.71593890 0.42117640
vt 0.71239500 0.42117640
vt 0.85202290 0.33399790
vt 0.85760410 0.33399790
vt 0.85688870 0.32979550
vt 0.85202290 0.32979550
vt 0.84644190 0.33399780
vt 0.84715720 0.32979550
vt 0.85202290 0.32437080
vt 0.84969510 0.32437080
vt 0.84772150 0.32437080
vt 0.84303240 0.32979550
vt 0.85202290 0.32016840
vt 0.85030760 0.32016840
vt 0.85373830 0.32016840
vt 0.85435090 0.32437080
vt 0.86101360 0.32979550
vt 0.85632440 0.32437080
vt 0.93239150 0.76418580
vt 0.93741880 0.75947410
vt 0.93432820 0.75947410
vt 0.93593660 0.76418580
vt 0.93593660 0.83487470
vt 0.93239210 0.83487470
vt 0.94204400 0.75947410
vt 0.94124170 0.76418580
vt 0.94267670 0.75339190
vt 0.94488970 0.75339190
vt 0.94749980 0.75947410
vt 0.94749980 0.75339190
vt 0.94557660 0.74868010
vt 0.94394580 0.74868010
vt 0.94119820 0.75339180
vt 0.94285640 0.74868010
vt 0.94749980 0.76418580
vt 0.95295510 0.75947410
vt 0.94749980 0.83487470
vt 0.94124170 0.83487470
vt 0.95232270 0.75339190
vt 0.95380130 0.75339180
vt 0.95214310 0.74868010
vt 0.95105360 0.74868010
vt 0.95010970 0.75339190
vt 0.95758050 0.75947410
vt 0.95105360 0.72093750
vt 0.94942290 0.74868010
vt 0.94749980 0.74868010
vt 0.94749980 0.72096310
vt 0.94942290 0.72095640
vt 0.95375720 0.76418580
vt 0.94942290 0.69351910
vt 0.94749980 0.69355240
vt 0.94557660 0.69351910
vt 0.94557660 0.66624860
vt 0.94749980 0.66630850
vt 0.94557660 0.63927820
vt 0.95375720 0.83487470
vt 0.95906280 0.83487470
vt 0.95906280 0.76418580
vt 0.96260760 0.83487470
vt 0.96260790 0.76418580
vt 0.96067120 0.75947410
vt 0.94942290 0.66624870
vt 0.94749980 0.63936420
vt 0.94557660 0.61273880
vt 0.95105360 0.66607830
vt 0.95214310 0.66582330
vt 0.94942290 0.63927820
vt 0.94749980 0.61285070
vt 0.94557660 0.58666350
vt 0.95105360 0.63903310
vt 0.95214310 0.63866650
vt 0.94942290 0.61273880
vt 0.94749980 0.58679450
vt 0.94557660 0.56053580
vt 0.95105360 0.61242040
vt 0.95214310 0.61194380
vt 0.95105360 0.58629100
vt 0.94942290 0.58666360
vt 0.94749980 0.56066670
vt 0.94557660 0.53089940
vt 0.94942290 0.56053580
vt 0.95105360 0.56016310
vt 0.94749980 0.53106070
vt 0.94557660 0.49629050
vt 0.94942290 0.53089940
vt 0.95105360 0.53044030
vt 0.94749980 0.49645170
vt 0.94557660 0.45511870
vt 0.94942290 0.49629050
vt 0.95105360 0.49583130
vt 0.94749980 0.45527990
vt 0.94557670 0.41450420
vt 0.94749990 0.41466540
vt 0.94942290 0.45511870
vt 0.95105360 0.45465950
vt 0.94942300 0.41450420
vt 0.95105360 0.41404500
vt 0.69453380 0.33970560
vt 0.69601230 0.33970560
vt 0.69728110 0.33499460
vt 0.69619170 0.33499460
vt 0.69619170 0.30716100
vt 0.70344380 0.33970560
vt 0.70438720 0.33499460
vt 0.70275700 0.33499460
vt 0.70565620 0.33970560
vt 0.70547650 0.33499460
vt 0.70713440 0.33970560
vt 0.70438720 0.30713270
vt 0.70547650 0.30716100
vt 0.70438720 0.27912820
vt 0.70547650 0.27927010
vt 0.70438720 0.25129410
vt 0.70275700 0.25112370
vt 0.70547650 0.25154890
vt 0.70275700 0.22352100
vt 0.70438720 0.22376600
vt 0.70547650 0.22413260
vt 0.70275700 0.19635960
vt 0.70438720 0.19667810
vt 0.70547650 0.19715460
vt 0.70275700 0.16982660
vt 0.70438720 0.17019920
vt 0.70547650 0.17075680
vt 0.70275700 0.14370270
vt 0.70438720 0.14407530
vt 0.70547650 0.14463280
vt 0.70275700 0.11333310
vt 0.70438720 0.11379220
vt 0.70547650 0.11447930
vt 0.70275700 0.07872932
vt 0.70438720 0.07918842
vt 0.70547650 0.07987553
vt 0.70275700 0.03756362
vt 0.70438720 0.03802273
vt 0.70275690 -0.00304477
vt 0.70547650 0.03870982
vt 0.70438720 -0.00258568
vt 0.70547640 -0.00189860
vt 0.94557660 0.72095640
vt 0.94394580 0.72093750
vt 0.94394580 0.69342420
vt 0.94394580 0.66607830
vt 0.94285640 0.72090920
vt 0.94285640 0.69328220
vt 0.94285640 0.66582330
vt 0.94285640 0.63866650
vt 0.69457750 0.42117640
vt 0.69457750 0.35049800
vt 0.70083410 0.42117640
vt 0.69537960 0.34578690
vt 0.70083410 0.35049800
vt 0.70709120 0.42117640
vt 0.70083410 0.34578690
vt 0.69822440 0.33970560
vt 0.70709120 0.35049800
vt 0.70628910 0.34578690
vt 0.70083420 0.33970560
vt 0.69891100 0.33499460
vt 0.70083420 0.33499460
vt 0.69728110 0.30713270
vt 0.69619170 0.27927010
vt 0.69891100 0.30711380
vt 0.69728110 0.27912820
vt 0.69619170 0.25154890
vt 0.70083420 0.30710720
vt 0.69891100 0.27903340
vt 0.69728110 0.25129410
vt 0.69619170 0.22413250
vt 0.70275700 0.30711380
vt 0.70083420 0.27900000
vt 0.70275700 0.27903320
vt 0.69891100 0.25112370
vt 0.69728110 0.22376600
vt 0.69619170 0.19715450
vt 0.70083420 0.25106390
vt 0.69891100 0.22352110
vt 0.69728110 0.19667810
vt 0.69619170 0.17075680
vt 0.70083420 0.22343500
vt 0.69891100 0.19635970
vt 0.69728110 0.17019920
vt 0.69619170 0.14463280
vt 0.70083420 0.19624790
vt 0.69891100 0.16982670
vt 0.69728110 0.14407530
vt 0.69619170 0.11447930
vt 0.70083420 0.16969580
vt 0.69891100 0.14370270
vt 0.69728110 0.11379220
vt 0.70083420 0.14357190
vt 0.69891100 0.11333310
vt 0.69728110 0.07918842
vt 0.70083420 0.11317190
vt 0.69891100 0.07872935
vt 0.69728110 0.03802273
vt 0.70083420 0.07856812
vt 0.69891100 0.03756365
vt 0.69728100 -0.00258568
vt 0.69891100 -0.00304475
vt 0.70083420 0.03740241
vt 0.70083400 -0.00320600
vt 0.85202290 0.39704510
vt 0.84644190 0.39704510
vt 0.85760410 0.39704510
vt 0.72652870 0.08690023
vt 0.73121790 0.09232490
vt 0.73319140 0.09232490
vt 0.73065370 0.08690023
vt 0.73551930 0.09232487
vt 0.73380400 0.09652726
vt 0.73551930 0.08269787
vt 0.72993820 0.08269791
vt 0.72993820 0.01965100
vt 0.73557290 0.12132570
vt 0.73385790 0.12135550
vt 0.73857740 0.14593610
vt 0.73686860 0.14608550
vt 0.73515980 0.14623480
vt 0.74158250 0.17042640
vt 0.73988830 0.17069460
vt 0.73819400 0.17096280
vt 0.74628860 0.19464740
vt 0.74461720 0.19503310
vt 0.74294580 0.19541890
vt 0.75267280 0.21848110
vt 0.75103240 0.21898250
vt 0.74939200 0.21948390
vt 0.76066420 0.24185790
vt 0.75905240 0.24244460
vt 0.75744040 0.24303130
vt 0.76914590 0.26516110
vt 0.76753400 0.26574780
vt 0.76592210 0.26633450
vt 0.77984880 0.29178630
vt 0.77829330 0.29250920
vt 0.77673770 0.29323220
vt 0.79364760 0.32265360
vt 0.79209210 0.32337660
vt 0.79053650 0.32409950
vt 0.81011620 0.35937450
vt 0.80856070 0.36009740
vt 0.82754930 0.39559810
vt 0.80700500 0.36082040
vt 0.82599390 0.39632110
vt 0.82443840 0.39704410
vt 0.95214310 0.45397230
vt 0.95214330 0.41335780
vt 0.95214310 0.49514410
vt 0.95214310 0.52975300
vt 0.95214310 0.55960550
vt 0.95214310 0.58573330
vt 0.69619170 -0.00189860
vt 0.69619170 0.03870982
vt 0.69619170 0.07987553
vt 0.92506460 0.05659677
vt 0.94249790 0.02037291
vt 0.94094250 0.01964992
vt 0.92350910 0.05587380
vt 0.90859600 0.09331778
vt 0.90704040 0.09259485
vt 0.89479720 0.12418540
vt 0.89324160 0.12346240
vt 0.88403780 0.15094690
vt 0.88242590 0.15036020
vt 0.87555610 0.17425020
vt 0.87394420 0.17366360
vt 0.86753610 0.19771250
vt 0.86589570 0.19721110
vt 0.86112080 0.22166200
vt 0.85944940 0.22127630
vt 0.85639190 0.24600070
vt 0.85469760 0.24573250
vt 0.85337230 0.27061000
vt 0.85166340 0.27046050
vt 0.85207650 0.29536990
vt 0.85036150 0.29534010
vt 0.92662020 0.05731973
vt 0.94405350 0.02109587
vt 0.91015140 0.09404076
vt 0.89635270 0.12490830
vt 0.88564970 0.15153360
vt 0.87716810 0.17483690
vt 0.86917650 0.19821390
vt 0.86279230 0.22204780
vt 0.94394600 0.41404500
vt 0.94394580 0.45465950
vt 0.94285650 0.41335780
vt 0.94285640 0.45397230
vt 0.94394580 0.49583130
vt 0.94285640 0.49514410
vt 0.94394580 0.53044030
vt 0.94285640 0.52975300
vt 0.94394580 0.56016310
vt 0.94285640 0.55960550
vt 0.94394580 0.58629100
vt 0.94285640 0.58573330
vt 0.94394580 0.61242040
vt 0.94285640 0.61194380
vt 0.94394580 0.63903310
vt 0.85379170 0.29539970
vt 0.85508110 0.27075930
vt 0.85808620 0.24626890
vt 0.38502760 0.77588260
vt 0.38343300 0.78012820
vt 0.38637970 0.77687880
vt 0.38343300 0.77553290
vt 0.38728290 0.77836980
vt 0.38183830 0.77588280
vt 0.38760020 0.78012820
vt 0.38048620 0.77687910
vt 0.38728290 0.78188680
vt 0.37958300 0.77836950
vt 0.38637970 0.78337790
vt 0.37926570 0.78012820
vt 0.38502760 0.78437390
vt 0.37958290 0.78188680
vt 0.38343300 0.78472380
vt 0.38048620 0.78337760
vt 0.38183830 0.78437380
f 3/3/3 2/2/2 1/1/1
f 4/4/4 3/3/3 1/1/1
f 7/7/7 6/6/6 5/5/5
f 9/9/9 8/8/8 6/6/6
f 9/9/9 10/10/10 8/8/8
f 11/11/11 10/10/10 9/9/9
f 12/12/12 11/11/11 9/9/9
f 14/14/14 13/13/13 10/10/10
f 14/14/14 15/15/15 13/13/13
f 18/18/18 17/17/17 16/16/16
f 21/21/21 20/20/20 19/19/19
f 20/20/20 22/22/22 19/19/19
f 19/19/19 22/22/22 23/23/23
f 24/24/24 19/19/19 23/23/23
f 27/27/27 26/26/26 25/25/25
f 26/26/26 28/28/28 25/25/25
f 25/25/25 28/28/28 29/29/29
f 30/30/30 25/25/25 29/29/29
f 33/33/33 32/32/32 31/31/31
f 34/34/34 33/33/33 31/31/31
f 34/34/34 31/31/31 35/35/35
f 36/36/36 34/34/34 35/35/35
f 34/34/34 37/37/37 33/33/33
f 36/36/36 38/38/38 34/34/34
f 38/38/38 37/37/37 34/34/34
f 39/39/39 38/38/38 36/36/36
f 40/40/40 39/39/39 36/36/36
f 41/41/41 37/37/37 38/38/38
f 42/42/42 41/41/41 38/38/38
f 41/41/41 43/43/43 37/37/37
f 43/43/43 44/44/44 37/37/37
f 37/37/37 44/44/44 33/33/33
f 33/33/33 44/44/44 45/45/45
f 44/44/44 46/46/46 45/45/45
f 49/49/49 48/48/48 47/47/47
f 48/48/48 50/50/50 47/47/47
f 47/47/47 50/50/50 51/51/51
f 52/52/52 47/47/47 51/51/51
f 48/48/48 53/53/53 50/50/50
f 53/53/53 54/54/54 50/50/50
f 48/48/48 55/55/55 53/53/53
f 55/55/55 56/56/56 53/53/53
f 53/53/53 56/56/56 57/57/57
f 56/56/56 58/58/58 57/57/57
f 59/59/59 56/56/56 55/55/55
f 60/60/60 59/59/59 55/55/55
f 60/60/60 55/55/55 61/61/61
f 62/62/62 60/60/60 61/61/61
f 53/53/53 57/57/57 54/54/54
f 57/57/57 63/63/63 54/54/54
f 57/57/57 64/64/64 63/63/63
f 54/54/54 63/63/63 65/65/65
f 66/66/66 54/54/54 65/65/65
f 50/50/50 54/54/54 66/66/66
f 51/51/51 50/50/50 66/66/66
f 69/69/69 68/68/68 67/67/67
f 70/70/70 69/69/69 67/67/67
f 67/67/67 71/71/71 70/70/70
f 71/71/71 67/67/67 72/72/72
f 70/70/70 73/73/73 69/69/69
f 73/73/73 16/16/16 69/69/69
f 73/73/73 18/18/18 16/16/16
f 64/64/64 71/71/71 72/72/72
f 71/71/71 74/74/74 70/70/70
f 74/74/74 71/71/71 58/58/58
f 75/75/75 74/74/74 58/58/58
f 75/75/75 76/76/76 74/74/74
f 74/74/74 77/77/77 70/70/70
f 77/77/77 73/73/73 70/70/70
f 76/76/76 77/77/77 74/74/74
f 78/78/78 64/64/64 72/72/72
f 64/64/64 78/78/78 63/63/63
f 77/77/77 79/79/79 73/73/73
f 79/79/79 18/18/18 73/73/73
f 76/76/76 80/80/80 77/77/77
f 80/80/80 79/79/79 77/77/77
f 81/81/81 80/80/80 76/76/76
f 81/81/81 82/82/82 80/80/80
f 82/82/82 83/83/83 80/80/80
f 80/80/80 83/83/83 79/79/79
f 82/82/82 84/84/84 83/83/83
f 63/63/63 78/78/78 85/85/85
f 65/65/65 63/63/63 85/85/85
f 85/85/85 78/78/78 86/86/86
f 78/78/78 87/87/87 86/86/86
f 86/86/86 87/87/87 88/88/88
f 87/87/87 78/78/78 72/72/72
f 87/87/87 89/89/89 88/88/88
f 72/72/72 90/90/90 87/87/87
f 90/90/90 89/89/89 87/87/87
f 83/83/83 91/91/91 79/79/79
f 79/79/79 91/91/91 18/18/18
f 84/84/84 92/92/92 83/83/83
f 83/83/83 92/92/92 91/91/91
f 84/84/84 93/93/93 92/92/92
f 91/91/91 94/94/94 18/18/18
f 18/18/18 94/94/94 17/17/17
f 94/94/94 95/95/95 17/17/17
f 92/92/92 96/96/96 91/91/91
f 91/91/91 96/96/96 94/94/94
f 93/93/93 97/97/97 92/92/92
f 92/92/92 97/97/97 96/96/96
f 93/93/93 98/98/98 97/97/97
f 94/94/94 99/99/99 95/95/95
f 96/96/96 99/99/99 94/94/94
f 99/99/99 100/100/100 95/95/95
f 97/97/97 101/101/101 96/96/96
f 96/96/96 101/101/101 99/99/99
f 98/98/98 102/102/102 97/97/97
f 97/97/97 102/102/102 101/101/101
f 98/98/98 103/103/103 102/102/102
f 99/99/99 104/104/104 100/100/100
f 101/101/101 104/104/104 99/99/99
f 104/104/104 105/105/105 100/100/100
f 104/104/104 106/106/106 105/105/105
f 101/101/101 107/107/107 104/104/104
f 102/102/102 107/107/107 101/101/101
f 107/107/107 106/106/106 104/104/104
f 103/103/103 108/108/108 102/102/102
f 102/102/102 108/108/108 107/107/107
f 103/103/103 109/109/109 108/108/108
f 107/107/107 110/110/110 106/106/106
f 108/108/108 110/110/110 107/107/107
f 110/110/110 111/111/111 106/106/106
f 109/109/109 112/112/112 108/108/108
f 108/108/108 112/112/112 110/110/110
f 109/109/109 113/113/113 112/112/112
f 110/110/110 114/114/114 111/111/111
f 112/112/112 114/114/114 110/110/110
f 114/114/114 115/115/115 111/111/111
f 113/113/113 116/116/116 112/112/112
f 112/112/112 116/116/116 114/114/114
f 113/113/113 117/117/117 116/116/116
f 114/114/114 118/118/118 115/115/115
f 116/116/116 118/118/118 114/114/114
f 118/118/118 119/119/119 115/115/115
f 117/117/117 120/120/120 116/116/116
f 116/116/116 120/120/120 118/118/118
f 117/117/117 121/121/121 120/120/120
f 121/121/121 122/122/122 120/120/120
f 118/118/118 123/123/123 119/119/119
f 120/120/120 123/123/123 118/118/118
f 120/120/120 122/122/122 123/123/123
f 123/123/123 124/124/124 119/119/119
f 122/122/122 125/125/125 123/123/123
f 123/123/123 125/125/125 124/124/124
f 125/125/125 126/126/126 124/124/124
f 129/129/129 128/128/128 127/127/127
f 130/130/130 129/129/129 127/127/127
f 130/130/130 131/131/131 129/129/129
f 134/134/134 133/133/133 132/132/132
f 133/133/133 135/135/135 132/132/132
f 133/133/133 136/136/136 135/135/135
f 136/136/136 137/137/137 135/135/135
f 133/133/133 138/138/138 136/136/136
f 138/138/138 139/139/139 136/136/136
f 138/138/138 140/140/140 139/139/139
f 140/140/140 141/141/141 139/139/139
f 140/140/140 142/142/142 141/141/141
f 143/143/143 142/142/142 140/140/140
f 142/142/142 144/144/144 141/141/141
f 143/143/143 145/145/145 142/142/142
f 142/142/142 146/146/146 144/144/144
f 145/145/145 146/146/146 142/142/142
f 146/146/146 147/147/147 144/144/144
f 145/145/145 148/148/148 146/146/146
f 146/146/146 149/149/149 147/147/147
f 148/148/148 149/149/149 146/146/146
f 149/149/149 150/150/150 147/147/147
f 148/148/148 151/151/151 149/149/149
f 149/149/149 152/152/152 150/150/150
f 151/151/151 152/152/152 149/149/149
f 152/152/152 153/153/153 150/150/150
f 151/151/151 154/154/154 152/152/152
f 152/152/152 155/155/155 153/153/153
f 154/154/154 155/155/155 152/152/152
f 155/155/155 156/156/156 153/153/153
f 154/154/154 157/157/157 155/155/155
f 155/155/155 158/158/158 156/156/156
f 157/157/157 158/158/158 155/155/155
f 158/158/158 159/159/159 156/156/156
f 157/157/157 160/160/160 158/158/158
f 158/158/158 161/161/161 159/159/159
f 160/160/160 161/161/161 158/158/158
f 161/161/161 162/162/162 159/159/159
f 160/160/160 163/163/163 161/161/161
f 161/161/161 164/164/164 162/162/162
f 163/163/163 164/164/164 161/161/161
f 163/163/163 165/165/165 164/164/164
f 164/164/164 166/166/166 162/162/162
f 165/165/165 167/167/167 164/164/164
f 164/164/164 167/167/167 166/166/166
f 167/167/167 168/168/168 166/166/166
f 75/75/75 58/58/58 56/56/56
f 59/59/59 75/75/75 56/56/56
f 59/59/59 169/169/169 75/75/75
f 169/169/169 76/76/76 75/75/75
f 169/169/169 81/81/81 76/76/76
f 170/170/170 169/169/169 59/59/59
f 60/60/60 170/170/170 59/59/59
f 171/171/171 81/81/81 169/169/169
f 170/170/170 171/171/171 169/169/169
f 171/171/171 172/172/172 81/81/81
f 173/173/173 170/170/170 60/60/60
f 62/62/62 173/173/173 60/60/60
f 173/173/173 174/174/174 170/170/170
f 174/174/174 171/171/171 170/170/170
f 174/174/174 175/175/175 171/171/171
f 175/175/175 172/172/172 171/171/171
f 175/175/175 176/176/176 172/172/172
f 23/23/23 22/22/22 177/177/177
f 22/22/22 178/178/178 177/177/177
f 177/177/177 178/178/178 179/179/179
f 180/180/180 178/178/178 22/22/22
f 20/20/20 180/180/180 22/22/22
f 20/20/20 128/128/128 180/180/180
f 178/178/178 181/181/181 179/179/179
f 179/179/179 181/181/181 182/182/182
f 180/180/180 183/183/183 178/178/178
f 183/183/183 181/181/181 178/178/178
f 128/128/128 184/184/184 180/180/180
f 180/180/180 184/184/184 183/183/183
f 181/181/181 185/185/185 182/182/182
f 182/182/182 185/185/185 30/30/30
f 185/185/185 25/25/25 30/30/30
f 27/27/27 25/25/25 185/185/185
f 186/186/186 27/27/27 185/185/185
f 186/186/186 185/185/185 181/181/181
f 183/183/183 186/186/186 181/181/181
f 183/183/183 187/187/187 186/186/186
f 184/184/184 187/187/187 183/183/183
f 187/187/187 132/132/132 186/186/186
f 134/134/134 132/132/132 187/187/187
f 188/188/188 184/184/184 128/128/128
f 129/129/129 188/188/188 128/128/128
f 189/189/189 187/187/187 184/184/184
f 189/189/189 134/134/134 187/187/187
f 188/188/188 189/189/189 184/184/184
f 129/129/129 190/190/190 188/188/188
f 131/131/131 190/190/190 129/129/129
f 131/131/131 191/191/191 190/190/190
f 188/188/188 192/192/192 189/189/189
f 190/190/190 192/192/192 188/188/188
f 191/191/191 193/193/193 190/190/190
f 190/190/190 193/193/193 192/192/192
f 191/191/191 194/194/194 193/193/193
f 189/189/189 195/195/195 134/134/134
f 192/192/192 195/195/195 189/189/189
f 193/193/193 196/196/196 192/192/192
f 192/192/192 196/196/196 195/195/195
f 194/194/194 197/197/197 193/193/193
f 193/193/193 197/197/197 196/196/196
f 194/194/194 198/198/198 197/197/197
f 195/195/195 199/199/199 134/134/134
f 134/134/134 199/199/199 133/133/133
f 199/199/199 138/138/138 133/133/133
f 196/196/196 200/200/200 195/195/195
f 195/195/195 200/200/200 199/199/199
f 199/199/199 201/201/201 138/138/138
f 200/200/200 201/201/201 199/199/199
f 201/201/201 140/140/140 138/138/138
f 201/201/201 143/143/143 140/140/140
f 197/197/197 202/202/202 196/196/196
f 196/196/196 202/202/202 200/200/200
f 198/198/198 203/203/203 197/197/197
f 197/197/197 203/203/203 202/202/202
f 198/198/198 204/204/204 203/203/203
f 200/200/200 205/205/205 201/201/201
f 205/205/205 143/143/143 201/201/201
f 202/202/202 205/205/205 200/200/200
f 203/203/203 206/206/206 202/202/202
f 202/202/202 206/206/206 205/205/205
f 204/204/204 207/207/207 203/203/203
f 203/203/203 207/207/207 206/206/206
f 204/204/204 208/208/208 207/207/207
f 205/205/205 209/209/209 143/143/143
f 206/206/206 209/209/209 205/205/205
f 209/209/209 145/145/145 143/143/143
f 207/207/207 210/210/210 206/206/206
f 206/206/206 210/210/210 209/209/209
f 208/208/208 211/211/211 207/207/207
f 207/207/207 211/211/211 210/210/210
f 208/208/208 212/212/212 211/211/211
f 209/209/209 213/213/213 145/145/145
f 210/210/210 213/213/213 209/209/209
f 213/213/213 148/148/148 145/145/145
f 211/211/211 214/214/214 210/210/210
f 210/210/210 214/214/214 213/213/213
f 212/212/212 215/215/215 211/211/211
f 211/211/211 215/215/215 214/214/214
f 212/212/212 216/216/216 215/215/215
f 213/213/213 217/217/217 148/148/148
f 214/214/214 217/217/217 213/213/213
f 217/217/217 151/151/151 148/148/148
f 215/215/215 218/218/218 214/214/214
f 214/214/214 218/218/218 217/217/217
f 215/215/215 219/219/219 218/218/218
f 217/217/217 220/220/220 151/151/151
f 218/218/218 220/220/220 217/217/217
f 220/220/220 154/154/154 151/151/151
f 219/219/219 221/221/221 218/218/218
f 218/218/218 221/221/221 220/220/220
f 219/219/219 222/222/222 221/221/221
f 220/220/220 223/223/223 154/154/154
f 221/221/221 223/223/223 220/220/220
f 223/223/223 157/157/157 154/154/154
f 222/222/222 224/224/224 221/221/221
f 221/221/221 224/224/224 223/223/223
f 222/222/222 225/225/225 224/224/224
f 223/223/223 226/226/226 157/157/157
f 224/224/224 226/226/226 223/223/223
f 226/226/226 160/160/160 157/157/157
f 225/225/225 227/227/227 224/224/224
f 224/224/224 227/227/227 226/226/226
f 225/225/225 228/228/228 227/227/227
f 228/228/228 229/229/229 227/227/227
f 226/226/226 230/230/230 160/160/160
f 227/227/227 230/230/230 226/226/226
f 227/227/227 229/229/229 230/230/230
f 230/230/230 163/163/163 160/160/160
f 229/229/229 231/231/231 230/230/230
f 230/230/230 231/231/231 163/163/163
f 231/231/231 165/165/165 163/163/163
f 233/233/233 35/35/35 232/232/232
f 35/35/35 31/31/31 232/232/232
f 232/232/232 31/31/31 234/234/234
f 31/31/31 32/32/32 234/234/234
f 237/237/237 236/236/236 235/235/235
f 238/238/238 237/237/237 235/235/235
f 239/239/239 237/237/237 238/238/238
f 240/240/240 237/237/237 239/239/239
f 8/8/8 239/239/239 238/238/238
f 10/10/10 239/239/239 8/8/8
f 13/13/13 239/239/239 10/10/10
f 13/13/13 240/240/240 239/239/239
f 8/8/8 238/238/238 241/241/241
f 8/8/8 241/241/241 6/6/6
f 238/238/238 242/242/242 241/241/241
f 6/6/6 241/241/241 5/5/5
f 241/241/241 242/242/242 243/243/243
f 5/5/5 241/241/241 243/243/243
f 13/13/13 244/244/244 240/240/240
f 15/15/15 244/244/244 13/13/13
f 244/244/244 245/245/245 240/240/240
f 15/15/15 246/246/246 244/244/244
f 244/244/244 247/247/247 245/245/245
f 246/246/246 247/247/247 244/244/244
f 247/247/247 248/248/248 245/245/245
f 246/246/246 249/249/249 247/247/247
f 247/247/247 250/250/250 248/248/248
f 249/249/249 250/250/250 247/247/247
f 250/250/250 251/251/251 248/248/248
f 249/249/249 252/252/252 250/250/250
f 250/250/250 253/253/253 251/251/251
f 252/252/252 253/253/253 250/250/250
f 253/253/253 254/254/254 251/251/251
f 252/252/252 255/255/255 253/253/253
f 253/253/253 256/256/256 254/254/254
f 255/255/255 256/256/256 253/253/253
f 256/256/256 257/257/257 254/254/254
f 255/255/255 258/258/258 256/256/256
f 256/256/256 259/259/259 257/257/257
f 258/258/258 259/259/259 256/256/256
f 259/259/259 260/260/260 257/257/257
f 258/258/258 261/261/261 259/259/259
f 259/259/259 262/262/262 260/260/260
f 261/261/261 262/262/262 259/259/259
f 262/262/262 263/263/263 260/260/260
f 261/261/261 264/264/264 262/262/262
f 262/262/262 265/265/265 263/263/263
f 264/264/264 265/265/265 262/262/262
f 265/265/265 266/266/266 263/263/263
f 264/264/264 267/267/267 265/265/265
f 265/265/265 268/268/268 266/266/266
f 267/267/267 268/268/268 265/265/265
f 268/268/268 269/269/269 266/266/266
f 267/267/267 270/270/270 268/268/268
f 268/268/268 271/271/271 269/269/269
f 270/270/270 271/271/271 268/268/268
f 270/270/270 272/272/272 271/271/271
f 271/271/271 273/273/273 269/269/269
f 272/272/272 274/274/274 271/271/271
f 271/271/271 274/274/274 273/273/273
f 274/274/274 275/275/275 273/273/273
f 132/132/132 135/135/135 27/27/27
f 186/186/186 132/132/132 27/27/27
f 58/58/58 71/71/71 64/64/64
f 57/57/57 58/58/58 64/64/64
f 126/126/126 277/277/277 276/276/276
f 124/124/124 126/126/126 276/276/276
f 124/124/124 276/276/276 278/278/278
f 119/119/119 124/124/124 278/278/278
f 119/119/119 278/278/278 279/279/279
f 115/115/115 119/119/119 279/279/279
f 115/115/115 279/279/279 280/280/280
f 111/111/111 115/115/115 280/280/280
f 111/111/111 280/280/280 281/281/281
f 106/106/106 111/111/111 281/281/281
f 106/106/106 281/281/281 105/105/105
f 282/282/282 228/228/228 225/225/225
f 283/283/283 282/282/282 225/225/225
f 283/283/283 225/225/225 222/222/222
f 284/284/284 283/283/283 222/222/222
f 284/284/284 222/222/222 219/219/219
f 216/216/216 284/284/284 219/219/219
f 216/216/216 219/219/219 215/215/215
f 287/287/287 286/286/286 285/285/285
f 288/288/288 287/287/287 285/285/285
f 288/288/288 285/285/285 289/289/289
f 290/290/290 288/288/288 289/289/289
f 290/290/290 289/289/289 291/291/291
f 292/292/292 290/290/290 291/291/291
f 292/292/292 291/291/291 293/293/293
f 294/294/294 292/292/292 293/293/293
f 294/294/294 293/293/293 295/295/295
f 296/296/296 294/294/294 295/295/295
f 296/296/296 295/295/295 297/297/297
f 298/298/298 296/296/296 297/297/297
f 298/298/298 297/297/297 299/299/299
f 300/300/300 298/298/298 299/299/299
f 300/300/300 299/299/299 301/301/301
f 302/302/302 300/300/300 301/301/301
f 302/302/302 301/301/301 303/303/303
f 304/304/304 302/302/302 303/303/303
f 304/304/304 303/303/303 305/305/305
f 306/306/306 304/304/304 305/305/305
f 306/306/306 305/305/305 41/41/41
f 42/42/42 306/306/306 41/41/41
f 286/286/286 308/308/308 307/307/307
f 285/285/285 286/286/286 307/307/307
f 285/285/285 307/307/307 309/309/309
f 289/289/289 285/285/285 309/309/309
f 289/289/289 309/309/309 310/310/310
f 291/291/291 289/289/289 310/310/310
f 291/291/291 310/310/310 311/311/311
f 293/293/293 291/291/291 311/311/311
f 293/293/293 311/311/311 312/312/312
f 295/295/295 293/293/293 312/312/312
f 295/295/295 312/312/312 313/313/313
f 297/297/297 295/295/295 313/313/313
f 297/297/297 313/313/313 314/314/314
f 315/315/315 121/121/121 117/117/117
f 316/316/316 315/315/315 117/117/117
f 317/317/317 315/315/315 316/316/316
f 316/316/316 117/117/117 113/113/113
f 318/318/318 317/317/317 316/316/316
f 319/319/319 316/316/316 113/113/113
f 318/318/318 316/316/316 319/319/319
f 319/319/319 113/113/113 109/109/109
f 320/320/320 318/318/318 319/319/319
f 321/321/321 319/319/319 109/109/109
f 320/320/320 319/319/319 321/321/321
f 321/321/321 109/109/109 103/103/103
f 322/322/322 320/320/320 321/321/321
f 323/323/323 321/321/321 103/103/103
f 322/322/322 321/321/321 323/323/323
f 323/323/323 103/103/103 98/98/98
f 324/324/324 322/322/322 323/323/323
f 325/325/325 323/323/323 98/98/98
f 324/324/324 323/323/323 325/325/325
f 325/325/325 98/98/98 93/93/93
f 326/326/326 324/324/324 325/325/325
f 327/327/327 325/325/325 93/93/93
f 326/326/326 325/325/325 327/327/327
f 327/327/327 93/93/93 84/84/84
f 328/328/328 326/326/326 327/327/327
f 329/329/329 327/327/327 84/84/84
f 328/328/328 327/327/327 329/329/329
f 176/176/176 328/328/328 329/329/329
f 329/329/329 84/84/84 82/82/82
f 176/176/176 329/329/329 172/172/172
f 172/172/172 329/329/329 82/82/82
f 172/172/172 82/82/82 81/81/81
f 41/41/41 305/305/305 43/43/43
f 305/305/305 330/330/330 43/43/43
f 305/305/305 303/303/303 330/330/330
f 303/303/303 331/331/331 330/330/330
f 303/303/303 301/301/301 331/331/331
f 301/301/301 332/332/332 331/331/331
f 301/301/301 299/299/299 332/332/332
f 299/299/299 314/314/314 332/332/332
f 299/299/299 297/297/297 314/314/314
f 335/335/335 334/334/334 333/333/333
f 334/334/334 336/336/336 333/333/333
f 334/334/334 335/335/335 337/337/337
f 336/336/336 334/334/334 338/338/338
f 339/339/339 334/334/334 337/337/337
f 334/334/334 340/340/340 338/338/338
f 334/334/334 339/339/339 341/341/341
f 340/340/340 334/334/334 342/342/342
f 343/343/343 334/334/334 341/341/341
f 334/334/334 344/344/344 342/342/342
f 334/334/334 343/343/343 345/345/345
f 344/344/344 334/334/334 346/346/346
f 347/347/347 334/334/334 345/345/345
f 334/334/334 348/348/348 346/346/346
f 334/334/334 347/347/347 349/349/349
f 348/348/348 334/334/334 349/349/349

