# Blender 4.0.0
# www.blender.org
o decimated_mesh
v -0.219374 0.250038 0.247187
v -0.222198 0.250035 0.247019
v -0.221328 0.031976 0.247217
v -0.212094 0.031784 0.244263
v -0.210420 0.031784 0.239848
v -0.222985 0.035865 0.244263
v -0.211246 0.031785 0.223032
v -0.219145 0.250037 0.219367
v -0.222410 0.250036 0.219669
v -0.222985 0.035865 0.222191
v -0.221533 0.032055 0.219522
v -0.218953 0.031767 0.219350
vn -0.8738 -0.0030 0.4862
vn 0.3046 -0.0026 0.9525
vn 0.0253 0.9997 0.0027
vn 0.4311 0.0005 -0.9023
vn -0.9215 -0.3883 0.0057
vn -1.0000 0.0027 -0.0000
vn -0.8803 -0.0032 -0.4744
vn 0.9991 0.0407 0.0082
vn -0.0667 -0.0000 -0.9978
vn 0.9347 0.0264 0.3545
vn -0.0592 0.0007 0.9982
vn 0.0953 0.9743 -0.2043
vn 0.0170 0.9999 -0.0008
vn 0.0236 0.9997 0.0090
vn -0.9344 -0.3562 -0.0000
vn -1.0000 0.0036 0.0077
vn -0.0008 1.0000 -0.0000
vn -0.0003 1.0000 -0.0000
vn 0.9982 0.0353 -0.0491
vn -0.0920 0.0003 -0.9958
vn 0.1112 0.9938 0.0020
vn 0.0189 0.9998 -0.0059
vn -0.0025 1.0000 0.0002
vn -0.0011 1.0000 -0.0004
s 0
f 3//1 2//1 6//1
f 1//2 3//2 4//2
f 3//3 7//3 11//3
f 12//4 8//4 7//4
f 6//5 11//5 3//5
f 6//6 9//6 10//6
f 9//7 11//7 10//7
f 5//8 8//8 1//8
f 12//9 11//9 8//9
f 1//10 4//10 5//10
f 2//11 3//11 1//11
f 12//12 11//12 7//12
f 7//13 3//13 5//13
f 5//14 3//14 4//14
f 6//15 10//15 11//15
f 6//16 2//16 9//16
f 1//17 8//17 2//17
f 9//18 2//18 8//18
f 5//19 7//19 8//19
f 11//20 9//20 8//20
f 11//21 3//21 12//21
f 12//22 3//22 4//22
f 7//23 12//23 5//23
f 5//24 12//24 4//24
f 8//18 9//18 1//18
f 9//17 2//17 1//17
