# Blender 4.0.0
# www.blender.org
o decimated_mesh
v -0.217065 0.028440 0.219253
v -0.214215 0.026947 0.222435
v -0.221007 0.031793 0.219891
v 0.217085 0.028385 0.219278
v -0.219294 0.028772 0.222494
v 0.214260 0.026912 0.222566
v 0.219414 0.031782 0.219360
v -0.214046 0.026919 0.243958
v 0.219230 0.028786 0.222040
v 0.221747 0.031784 0.222191
v -0.217603 0.028263 0.246809
v 0.214138 0.026950 0.244051
v 0.219015 0.028608 0.244283
v -0.221747 0.031784 0.244263
v -0.219414 0.031782 0.247094
v 0.217064 0.028440 0.247201
v 0.221268 0.031788 0.246469
vn 0.0001 -1.0000 0.0018
vn 0.0001 -0.9126 -0.4088
vn -0.3365 -0.9318 -0.1361
vn -0.6362 -0.6780 -0.3682
vn 0.0014 0.2120 0.9773
vn 0.3381 -0.9325 -0.1273
vn -0.6578 -0.7526 0.0300
vn 0.6865 -0.4572 -0.5653
vn 0.6925 -0.5583 -0.4569
vn -0.3525 -0.9358 0.0015
vn 0.8150 -0.5795 0.0032
vn -0.0000 -0.9040 0.4276
vn -0.7042 -0.4095 0.5799
vn 0.3114 -0.9377 0.1543
vn 0.6170 -0.6931 0.3726
vn -0.0012 0.1856 -0.9826
vn -0.0001 -1.0000 -0.0013
vn -0.0001 -0.9052 -0.4249
vn -0.0010 1.0000 -0.0002
vn -0.0000 1.0000 0.0004
vn 0.0007 1.0000 0.0004
vn -0.0000 1.0000 -0.0003
vn -0.0009 -0.0811 0.9967
vn 0.3524 -0.9358 -0.0041
vn 0.3217 -0.9468 0.0035
vn -0.8596 -0.5102 -0.0263
vn -0.3382 -0.9411 0.0038
vn 0.7654 -0.6434 0.0152
vn -0.0000 -0.9045 0.4265
vn 0.0001 0.0241 -0.9997
vn -0.3382 -0.9411 0.0014
vn -0.3502 -0.9366 0.0047
vn -0.0000 1.0000 -0.0002
vn -0.0000 1.0000 -0.0010
vn -0.0000 1.0000 0.0010
vn 0.8107 -0.5853 0.0161
vn 0.7658 -0.6430 0.0023
s 0
f 8//1 6//1 12//1
f 2//2 4//2 6//2
f 2//3 5//3 1//3
f 1//4 5//4 3//4
f 15//5 16//5 17//5
f 6//6 4//6 9//6
f 14//7 5//7 11//7
f 7//8 10//8 4//8
f 4//9 10//9 9//9
f 2//10 8//10 11//10
f 9//11 17//11 13//11
f 11//12 12//12 16//12
f 11//13 15//13 14//13
f 12//14 13//14 16//14
f 16//15 13//15 17//15
f 7//16 1//16 3//16
f 8//17 2//17 6//17
f 2//18 1//18 4//18
f 17//19 10//19 7//19
f 7//20 3//20 15//20
f 3//21 14//21 15//21
f 15//22 17//22 7//22
f 11//23 16//23 15//23
f 9//24 13//24 6//24
f 6//25 13//25 12//25
f 14//26 3//26 5//26
f 11//27 5//27 2//27
f 9//28 10//28 17//28
f 11//29 8//29 12//29
f 4//30 1//30 7//30
f 8//31 5//31 2//31
f 8//32 11//32 5//32
f 14//20 17//20 3//20
f 17//33 10//33 3//33
f 10//34 7//34 3//34
f 15//35 17//35 14//35
f 13//36 10//36 17//36
f 13//37 9//37 10//37
