mtllib material.mtl
usemtl material_0
v -0.69999750 0.26474670 1.04268800
v -0.70233400 0.26926570 1.04268800
v -0.70000060 0.27378630 1.04268900
v -0.69435970 0.26287650 1.04269000
v -0.69436400 0.27566030 1.04268900
v -0.68872310 0.26475060 1.04268900
v -0.68872650 0.27379020 1.04268800
v -0.68638970 0.26927120 1.04268900
v -0.69998260 0.22138160 1.04268800
v -0.70231870 0.22590060 1.04268800
v -0.69998560 0.23042120 1.04268800
v -0.69434480 0.21951140 1.04268900
v -0.69434880 0.23229530 1.04268800
v -0.68870790 0.22138550 1.04268700
v -0.68871150 0.23042510 1.04268900
v -0.68637450 0.22590610 1.04268800
v 0.66190120 0.26521730 1.04268900
v 0.65956450 0.26973630 1.04268800
v 0.66189820 0.27425690 1.04268900
v 0.66753880 0.26334710 1.04268900
v 0.66753450 0.27613100 1.04268900
v 0.67317530 0.26522120 1.04268800
v 0.67317230 0.27426080 1.04268900
v 0.67550870 0.26974180 1.04268900
v 0.66191620 0.22185220 1.04269000
v 0.65957950 0.22637120 1.04269000
v 0.66191320 0.23089180 1.04268800
v 0.66755400 0.21998200 1.04268700
v 0.66754940 0.23276590 1.04268900
v 0.67319030 0.22185610 1.04269000
v 0.67318730 0.23089570 1.04268800
v 0.67552360 0.22637670 1.04268800
v -0.68638970 0.26927120 1.03896800
v -0.68872310 0.26475060 1.03896600
v -0.68872310 0.26475060 1.04268900
v -0.68638970 0.26927120 1.04268900
v -0.69435970 0.26287650 1.04269000
v -0.68872650 0.27379020 1.03896700
v -0.69435970 0.26287650 1.03896700
v -0.68872650 0.27379020 1.04268800
v -0.69999750 0.26474670 1.04268800
v -0.69436400 0.27566030 1.03896600
v -0.69999780 0.26474670 1.03896600
v -0.69436400 0.27566030 1.04268900
v -0.70233400 0.26926570 1.04268800
v -0.70000090 0.27378630 1.03896800
v -0.70233430 0.26926570 1.03896600
v -0.70000060 0.27378630 1.04268900
v -0.68637480 0.22590610 1.03896700
v -0.68870820 0.22138550 1.03896600
v -0.68870790 0.22138550 1.04268700
v -0.68637450 0.22590610 1.04268800
v -0.69434480 0.21951140 1.04268900
v -0.68871180 0.23042510 1.03896700
v -0.69434480 0.21951130 1.03896800
v -0.68871150 0.23042510 1.04268900
v -0.69998260 0.22138160 1.04268800
v -0.69434910 0.23229520 1.03896500
v -0.69998260 0.22138160 1.03896700
v -0.69434880 0.23229530 1.04268800
v -0.70231870 0.22590060 1.04268800
v -0.69998560 0.23042120 1.03896700
v -0.70231870 0.22590060 1.03896700
v -0.69998560 0.23042120 1.04268800
v 0.67550870 0.26974180 1.03896700
v 0.67317530 0.26522120 1.03896600
v 0.67317530 0.26522120 1.04268800
v 0.67550870 0.26974180 1.04268900
v 0.66753880 0.26334710 1.04268900
v 0.67317230 0.27426080 1.03896700
v 0.66753910 0.26334710 1.03896600
v 0.67317230 0.27426080 1.04268900
v 0.66190120 0.26521730 1.04268900
v 0.66753450 0.27613100 1.03896600
v 0.66190120 0.26521730 1.03896700
v 0.66753450 0.27613100 1.04268900
v 0.65956450 0.26973630 1.04268800
v 0.66189820 0.27425690 1.03896600
v 0.65956480 0.26973630 1.03896700
v 0.66189820 0.27425690 1.04268900
v 0.67552360 0.22637670 1.03896500
v 0.67319030 0.22185610 1.03896700
v 0.67319030 0.22185610 1.04269000
v 0.67552360 0.22637670 1.04268800
v 0.66755400 0.21998200 1.04268700
v 0.67318730 0.23089570 1.03896500
v 0.66755400 0.21998200 1.03896600
v 0.67318730 0.23089570 1.04268800
v 0.66191620 0.22185220 1.04269000
v 0.66754970 0.23276590 1.03896800
v 0.66191620 0.22185220 1.03896700
v 0.66754940 0.23276590 1.04268900
v 0.65957950 0.22637120 1.04269000
v 0.66191320 0.23089180 1.03896500
v 0.65957980 0.22637120 1.03896700
v 0.66191320 0.23089180 1.04268800
vn -0.00086761 -0.00013519 0.99999960
vn 0.00000000 -0.00013513 1.00000000
vn 0.00014589 0.00003733 1.00000000
vn -0.00014162 0.00004004 1.00000000
vn 0.00037685 0.00010503 1.00000000
vn 0.00010676 0.00010552 1.00000000
vn 0.00054228 0.00013512 0.99999990
vn 0.00000000 0.00013498 1.00000000
vn -0.00005468 0.00000000 1.00000000
vn -0.00057843 0.00000000 0.99999990
vn 0.00008398 0.00007139 1.00000000
vn 0.00003552 0.00007257 1.00000000
vn 0.00012193 0.00000758 1.00000000
vn 0.00006406 0.00000340 1.00000000
vn 0.00016315 -0.00027019 1.00000000
vn 0.00057828 -0.00027008 0.99999990
vn -0.00005469 0.00000000 1.00000000
vn -0.00057827 -0.00000018 0.99999990
vn -0.00023274 0.00000000 1.00000000
vn 0.00031925 0.00000000 1.00000000
vn 0.00000240 -0.00003246 1.00000000
vn 0.00046403 -0.00003400 0.99999990
vn -0.00005468 -0.00013506 1.00000000
vn -0.00057835 -0.00013513 0.99999990
vn 0.00010937 0.00027032 1.00000000
vn 0.00115655 0.00027025 0.99999930
vn 0.00027545 -0.00007472 1.00000000
vn -0.00031925 -0.00008016 1.00000000
vn 0.00014163 -0.00008014 1.00000000
vn -0.00031458 -0.00007486 1.00000000
vn 0.00065162 0.00027019 0.99999980
vn 0.00115671 0.00027026 0.99999930
vn 1.00000000 0.00019558 0.00000000
vn 0.62566010 -0.78009580 0.00000000
vn 0.62575370 -0.78002070 0.00000000
vn 1.00000000 0.00030405 0.00000000
vn 0.00025515 -1.00000000 0.00000000
vn 0.62523490 0.78043650 0.00000000
vn 0.00018732 -1.00000000 0.00000486
vn 0.62528780 0.78039420 0.00000000
vn -0.62520430 -0.78046110 0.00004729
vn -0.00040532 1.00000000 0.00000000
vn -0.62528610 -0.78039550 0.00005165
vn -0.00040449 1.00000000 0.00000486
vn -1.00000000 -0.00036109 0.00008051
vn -0.62575040 0.78002330 0.00004731
vn -1.00000000 -0.00040224 0.00008051
vn -0.62576660 0.78001040 0.00005167
vn 0.99999990 0.00045120 -0.00008107
vn 0.62586670 -0.77993010 -0.00003979
vn 0.62583820 -0.77995280 -0.00004615
vn 0.99999990 0.00049515 -0.00008336
vn 0.00031740 -1.00000000 -0.00000031
vn 0.62520240 0.78046270 -0.00005165
vn 0.00030905 -1.00000000 0.00000455
vn 0.62514690 0.78050710 -0.00005625
vn -0.62541690 -0.78029080 0.00000000
vn -0.00038384 1.00000000 -0.00001948
vn -0.62534430 -0.78034900 0.00000000
vn -0.00038655 1.00000000 -0.00002273
vn -1.00000000 -0.00038069 0.00000000
vn -0.62557910 0.78016070 0.00000000
vn -1.00000000 -0.00041730 0.00000000
vn -0.62578740 0.77999370 0.00000000
vn 1.00000000 0.00029686 0.00000000
vn 0.62571750 -0.78004970 0.00000536
vn 0.62575230 -0.78002190 0.00000000
vn 1.00000000 0.00035647 0.00000000
vn 0.00025099 -1.00000000 -0.00000486
vn 0.62528410 0.78039720 0.00000000
vn 0.00038258 -1.00000000 0.00000486
vn 0.62546030 0.78025590 0.00000000
vn -0.62523470 -0.78043680 -0.00000536
vn -0.00036270 1.00000000 0.00000000
vn -0.62518210 -0.78047900 -0.00001411
vn -0.00029080 1.00000000 0.00000000
vn -1.00000000 -0.00032788 -0.00006626
vn -0.62544530 0.78026810 0.00000000
vn -1.00000000 -0.00019976 -0.00006514
vn -0.62553050 0.78019980 -0.00001512
vn 1.00000000 0.00041411 0.00000000
vn 0.62570740 -0.78005780 0.00000000
vn 0.62573460 -0.78003600 0.00000000
vn 1.00000000 0.00023903 0.00000000
vn 0.00034950 -1.00000000 0.00000455
vn 0.62522440 0.78044500 0.00000000
vn 0.00029898 -1.00000000 0.00000293
vn 0.62519290 0.78047030 0.00000357
vn -0.62524860 -0.78042570 0.00000179
vn -0.00028128 1.00000000 -0.00001233
vn -0.62519530 -0.78046840 -0.00001512
vn -0.00036734 1.00000000 -0.00000261
vn -0.99999990 -0.00042893 -0.00006506
vn -0.62588450 0.77991590 -0.00000715
vn -1.00000000 -0.00022352 -0.00006619
vn -0.62588650 0.77991420 -0.00001412
vt 0.00000000 0.00000000
vt 0.00000000 0.00000000
vt 0.00000000 0.00000000
vt 0.00000000 0.00000000
vt 0.00000000 0.00000000
vt 0.00000000 0.00000000
vt 0.00000000 0.00000000
vt 0.00000000 0.00000000
vt 0.00000000 0.00000000
vt 0.00000000 0.00000000
vt 0.00000000 0.00000000
vt 0.00000000 0.00000000
vt 0.00000000 0.00000000
vt 0.00000000 0.00000000
vt 0.00000000 0.00000000
vt 0.00000000 0.00000000
vt 0.00000000 0.00000000
vt 0.00000000 0.00000000
vt 0.00000000 0.00000000
vt 0.00000000 0.00000000
vt 0.00000000 0.00000000
vt 0.00000000 0.00000000
vt 0.00000000 0.00000000
vt 0.00000000 0.00000000
vt 0.00000000 0.00000000
vt 0.00000000 0.00000000
vt 0.00000000 0.00000000
vt 0.00000000 0.00000000
vt 0.00000000 0.00000000
vt 0.00000000 0.00000000
vt 0.00000000 0.00000000
vt 0.00000000 0.00000000
vt 0.00000000 0.00000000
vt 0.00000000 0.00000000
vt 0.00000000 0.00000000
vt 0.00000000 0.00000000
vt 0.00000000 0.00000000
vt 0.00000000 0.00000000
vt 0.00000000 0.00000000
vt 0.00000000 0.00000000
vt 0.00000000 0.00000000
vt 0.00000000 0.00000000
vt 0.00000000 0.00000000
vt 0.00000000 0.00000000
vt 0.00000000 0.00000000
vt 0.00000000 0.00000000
vt 0.00000000 0.00000000
vt 0.00000000 0.00000000
vt 0.00000000 0.00000000
vt 0.00000000 0.00000000
vt 0.00000000 0.00000000
vt 0.00000000 0.00000000
vt 0.00000000 0.00000000
vt 0.00000000 0.00000000
vt 0.00000000 0.00000000
vt 0.00000000 0.00000000
vt 0.00000000 0.00000000
vt 0.00000000 0.00000000
vt 0.00000000 0.00000000
vt 0.00000000 0.00000000
vt 0.00000000 0.00000000
vt 0.00000000 0.00000000
vt 0.00000000 0.00000000
vt 0.00000000 0.00000000
vt 0.00000000 0.00000000
vt 0.00000000 0.00000000
vt 0.00000000 0.00000000
vt 0.00000000 0.00000000
vt 0.00000000 0.00000000
vt 0.00000000 0.00000000
vt 0.00000000 0.00000000
vt 0.00000000 0.00000000
vt 0.00000000 0.00000000
vt 0.00000000 0.00000000
vt 0.00000000 0.00000000
vt 0.00000000 0.00000000
vt 0.00000000 0.00000000
vt 0.00000000 0.00000000
vt 0.00000000 0.00000000
vt 0.00000000 0.00000000
vt 0.00000000 0.00000000
vt 0.00000000 0.00000000
vt 0.00000000 0.00000000
vt 0.00000000 0.00000000
vt 0.00000000 0.00000000
vt 0.00000000 0.00000000
vt 0.00000000 0.00000000
vt 0.00000000 0.00000000
vt 0.00000000 0.00000000
vt 0.00000000 0.00000000
vt 0.00000000 0.00000000
vt 0.00000000 0.00000000
vt 0.00000000 0.00000000
vt 0.00000000 0.00000000
vt 0.00000000 0.00000000
vt 0.00000000 0.00000000
f 3/3/3 2/2/2 1/1/1
f 1/1/1 4/4/4 3/3/3
f 4/4/4 5/5/5 3/3/3
f 4/4/4 6/6/6 5/5/5
f 6/6/6 7/7/7 5/5/5
f 6/6/6 8/8/8 7/7/7
f 11/11/11 10/10/10 9/9/9
f 9/9/9 12/12/12 11/11/11
f 12/12/12 13/13/13 11/11/11
f 12/12/12 14/14/14 13/13/13
f 14/14/14 15/15/15 13/13/13
f 14/14/14 16/16/16 15/15/15
f 19/19/19 18/18/18 17/17/17
f 17/17/17 20/20/20 19/19/19
f 20/20/20 21/21/21 19/19/19
f 20/20/20 22/22/22 21/21/21
f 22/22/22 23/23/23 21/21/21
f 22/22/22 24/24/24 23/23/23
f 27/27/27 26/26/26 25/25/25
f 25/25/25 28/28/28 27/27/27
f 28/28/28 29/29/29 27/27/27
f 28/28/28 30/30/30 29/29/29
f 30/30/30 31/31/31 29/29/29
f 30/30/30 32/32/32 31/31/31
f 35/35/35 34/34/34 33/33/33
f 36/36/36 35/35/35 33/33/33
f 35/35/35 37/37/37 34/34/34
f 36/36/36 33/33/33 38/38/38
f 37/37/37 39/39/39 34/34/34
f 40/40/40 36/36/36 38/38/38
f 37/37/37 41/41/41 39/39/39
f 40/40/40 38/38/38 42/42/42
f 41/41/41 43/43/43 39/39/39
f 44/44/44 40/40/40 42/42/42
f 41/41/41 45/45/45 43/43/43
f 44/44/44 42/42/42 46/46/46
f 45/45/45 47/47/47 43/43/43
f 48/48/48 44/44/44 46/46/46
f 48/48/48 46/46/46 47/47/47
f 45/45/45 48/48/48 47/47/47
f 51/51/51 50/50/50 49/49/49
f 52/52/52 51/51/51 49/49/49
f 51/51/51 53/53/53 50/50/50
f 52/52/52 49/49/49 54/54/54
f 53/53/53 55/55/55 50/50/50
f 56/56/56 52/52/52 54/54/54
f 53/53/53 57/57/57 55/55/55
f 56/56/56 54/54/54 58/58/58
f 57/57/57 59/59/59 55/55/55
f 60/60/60 56/56/56 58/58/58
f 57/57/57 61/61/61 59/59/59
f 60/60/60 58/58/58 62/62/62
f 61/61/61 63/63/63 59/59/59
f 64/64/64 60/60/60 62/62/62
f 64/64/64 62/62/62 63/63/63
f 61/61/61 64/64/64 63/63/63
f 67/67/67 66/66/66 65/65/65
f 68/68/68 67/67/67 65/65/65
f 67/67/67 69/69/69 66/66/66
f 68/68/68 65/65/65 70/70/70
f 69/69/69 71/71/71 66/66/66
f 72/72/72 68/68/68 70/70/70
f 69/69/69 73/73/73 71/71/71
f 72/72/72 70/70/70 74/74/74
f 73/73/73 75/75/75 71/71/71
f 76/76/76 72/72/72 74/74/74
f 73/73/73 77/77/77 75/75/75
f 76/76/76 74/74/74 78/78/78
f 77/77/77 79/79/79 75/75/75
f 80/80/80 76/76/76 78/78/78
f 80/80/80 78/78/78 79/79/79
f 77/77/77 80/80/80 79/79/79
f 83/83/83 82/82/82 81/81/81
f 84/84/84 83/83/83 81/81/81
f 83/83/83 85/85/85 82/82/82
f 84/84/84 81/81/81 86/86/86
f 85/85/85 87/87/87 82/82/82
f 88/88/88 84/84/84 86/86/86
f 85/85/85 89/89/89 87/87/87
f 88/88/88 86/86/86 90/90/90
f 89/89/89 91/91/91 87/87/87
f 92/92/92 88/88/88 90/90/90
f 89/89/89 93/93/93 91/91/91
f 92/92/92 90/90/90 94/94/94
f 93/93/93 95/95/95 91/91/91
f 96/96/96 92/92/92 94/94/94
f 96/96/96 94/94/94 95/95/95
f 93/93/93 96/96/96 95/95/95

