# Blender 4.0.0
# www.blender.org
o Sofa_207_4_sofa_207_0_collision_1
v 0.842371 0.574721 -0.151631
v 0.842207 0.526031 -0.136228
v 0.842371 0.409621 -0.119589
v 0.842535 0.376370 -0.119589
v 0.842371 0.574721 -0.169462
v 0.841552 0.574721 -0.136228
v 0.841880 0.559281 -0.136228
v 0.842044 0.459530 -0.119589
v 0.841716 0.392985 -0.102965
v 0.841716 0.359734 -0.102965
v 0.842371 0.359734 -0.119589
v 0.842371 0.376370 -0.136228
v 0.841552 0.574721 -0.184895
v 0.841389 0.574721 -0.135154
v 0.841225 0.509394 -0.119589
v 0.841880 0.476122 -0.119589
v 0.841389 0.409621 -0.102965
v 0.839423 0.376370 -0.089386
v 0.839423 0.359734 -0.088768
v 0.840078 0.348414 -0.093932
v 0.841389 0.348414 -0.102965
v 0.841716 0.348414 -0.108276
v 0.842044 0.348414 -0.119589
v 0.842044 0.348414 -0.124915
v 0.842044 0.359734 -0.136228
v 0.841389 0.376370 -0.152838
v 0.841061 0.559281 -0.186101
v 0.841389 0.574721 -0.186101
v 0.840570 0.526031 -0.119589
v 0.839259 0.574721 -0.123679
v 0.839096 0.509394 -0.108423
v 0.840897 0.426257 -0.102965
v 0.839096 0.409621 -0.091475
v 0.839259 0.392985 -0.090372
v 0.835820 0.359734 -0.080456
v 0.839259 0.348414 -0.089386
v 0.841716 0.348414 -0.136228
v 0.841389 0.348414 -0.141539
v 0.840733 0.359734 -0.152838
v 0.838768 0.359734 -0.162915
v 0.839259 0.574721 -0.197694
v 0.838932 0.574721 -0.123061
v 0.837458 0.549778 -0.111689
v 0.838604 0.526031 -0.109747
v 0.838277 0.442894 -0.093682
v 0.838768 0.426257 -0.092637
v 0.837785 0.454435 -0.094315
v 0.834838 0.376370 -0.081074
v 0.826485 0.376370 -0.075763
v 0.827468 0.359734 -0.075381
v 0.826649 0.348414 -0.075690
v 0.829269 0.348414 -0.077323
v 0.835001 0.348414 -0.081074
v 0.840078 0.348414 -0.152838
v 0.838277 0.348414 -0.162194
v 0.838277 0.542645 -0.195355
v 0.839096 0.574721 -0.198474
v 0.832709 0.574721 -0.115352
v 0.835984 0.559281 -0.113234
v 0.837294 0.465511 -0.095271
v 0.824520 0.574721 -0.109806
v 0.827795 0.559281 -0.108041
v 0.825011 0.492758 -0.092961
v 0.832872 0.392985 -0.082060
v 0.824520 0.392985 -0.076705
v 0.812728 0.376370 -0.073306
v 0.812728 0.359734 -0.072482
v 0.812728 0.348414 -0.072983
v 0.835329 0.348414 -0.164401
v 0.832545 0.574721 -0.206830
v 0.833364 0.574721 -0.206183
v 0.837785 0.533053 -0.194590
v 0.832217 0.574721 -0.114985
v 0.827795 0.476122 -0.091505
v 0.823373 0.574721 -0.109541
v 0.822555 0.504189 -0.094035
v 0.822555 0.404858 -0.077470
v 0.812728 0.392985 -0.075057
v 0.796023 0.392985 -0.074321
v 0.779318 0.392985 -0.073674
v 0.796023 0.376370 -0.072865
v 0.796023 0.359734 -0.072173
v 0.796023 0.348414 -0.072497
v 0.801428 0.348414 -0.072600
v 0.829269 0.348414 -0.167873
v 0.824192 0.574721 -0.212435
v 0.824847 0.574721 -0.212053
v 0.812728 0.574721 -0.107938
v 0.812728 0.559281 -0.104407
v 0.812728 0.542645 -0.100802
v 0.812728 0.526031 -0.097345
v 0.812728 0.515154 -0.095153
v 0.812728 0.506825 -0.093520
v 0.812728 0.492758 -0.090872
v 0.812728 0.476122 -0.087974
v 0.812728 0.459530 -0.085223
v 0.812728 0.442894 -0.082575
v 0.812728 0.415934 -0.078323
v 0.812728 0.407627 -0.077014
v 0.779318 0.409621 -0.075410
v 0.762777 0.409621 -0.075028
v 0.762777 0.392985 -0.073556
v 0.779318 0.376370 -0.072571
v 0.779318 0.359734 -0.072056
v 0.784723 0.348414 -0.072350
v 0.824029 0.348414 -0.169609
v 0.821899 0.382507 -0.178098
v 0.821899 0.566171 -0.211376
v 0.813875 0.574721 -0.214142
v 0.794877 0.574721 -0.107129
v 0.796023 0.559281 -0.103701
v 0.796023 0.542645 -0.100096
v 0.796023 0.526031 -0.096624
v 0.796023 0.516904 -0.094800
v 0.796023 0.508575 -0.093197
v 0.779318 0.476122 -0.086488
v 0.779318 0.459530 -0.083384
v 0.779318 0.442894 -0.080486
v 0.779318 0.431330 -0.078544
v 0.779318 0.423001 -0.077234
v 0.762777 0.424773 -0.076984
v -0.368077 0.376370 -0.068790
v -0.368077 0.359734 -0.067525
v 0.779318 0.348414 -0.072321
v 0.812728 0.348414 -0.172905
v 0.812728 0.359734 -0.175229
v 0.812728 0.574721 -0.214230
v 0.779318 0.574721 -0.106496
v 0.779318 0.559281 -0.103053
v 0.779318 0.542645 -0.099508
v 0.780629 0.524812 -0.095904
v 0.780629 0.510989 -0.093197
v 0.775879 0.518455 -0.094491
v 0.779318 0.492758 -0.089666
v 0.762777 0.459530 -0.083075
v 0.762777 0.442894 -0.079971
v 0.762777 0.433102 -0.078235
v -0.368077 0.392985 -0.071453
v -0.783734 0.542645 -0.096874
v -0.800439 0.406630 -0.077131
v -0.800439 0.392985 -0.075234
v -0.800439 0.376370 -0.073336
v -0.800439 0.359734 -0.072409
v -0.783734 0.348414 -0.072688
v -0.368077 0.348414 -0.068231
v 0.796023 0.348414 -0.173523
v 0.796023 0.359734 -0.175832
v 0.779318 0.574721 -0.215804
v 0.780956 0.574721 -0.215730
v 0.797825 0.574721 -0.214951
v 0.762777 0.574721 -0.106364
v 0.762777 0.559281 -0.102965
v -0.783734 0.559281 -0.099655
v -0.800439 0.542645 -0.097566
v -0.797655 0.521600 -0.094168
v -0.810429 0.404770 -0.077470
v -0.812394 0.392985 -0.076690
v -0.814523 0.376370 -0.075719
v -0.815506 0.359734 -0.075307
v -0.809774 0.348414 -0.074704
v -0.800439 0.348414 -0.072924
v 0.791110 0.348414 -0.173684
v 0.779482 0.348414 -0.174052
v 0.779482 0.361041 -0.176612
v 0.764251 0.574721 -0.216260
v -0.783734 0.574721 -0.103186
v -0.785044 0.574721 -0.103230
v -0.800439 0.574721 -0.103892
v -0.800439 0.559281 -0.100405
v -0.808627 0.517679 -0.094653
v -0.802077 0.526695 -0.095286
v -0.810756 0.506603 -0.093873
v -0.813213 0.492758 -0.092843
v -0.825168 0.466508 -0.094991
v -0.820747 0.392985 -0.081766
v -0.822876 0.376370 -0.080721
v -0.823695 0.359734 -0.080059
v -0.814523 0.348414 -0.075631
v 0.762777 0.348414 -0.174405
v 0.762777 0.358848 -0.176538
v 0.762777 0.574721 -0.216304
v -0.814360 0.574721 -0.108291
v -0.818126 0.558218 -0.107349
v -0.825496 0.551971 -0.111130
v -0.825660 0.455432 -0.094226
v -0.826151 0.442894 -0.093535
v -0.827134 0.409621 -0.091225
v -0.827298 0.392985 -0.090092
v -0.827298 0.376370 -0.089033
v -0.827298 0.359734 -0.088371
v -0.825987 0.348414 -0.086356
v -0.822876 0.348414 -0.080706
v 0.746072 0.348414 -0.174449
v 0.680891 0.574721 -0.217084
v 0.696285 0.574721 -0.216996
v 0.712826 0.574721 -0.216849
v 0.729531 0.574721 -0.216687
v 0.730842 0.574721 -0.216672
v 0.747546 0.574721 -0.216481
v 0.696285 0.358627 -0.176583
v 0.564448 0.574721 -0.217599
v 0.579843 0.574721 -0.217569
v 0.597694 0.574721 -0.217496
v 0.614235 0.574721 -0.217422
v -0.815015 0.574721 -0.108776
v -0.824513 0.563047 -0.112763
v -0.827134 0.574721 -0.122738
v -0.826479 0.526031 -0.109335
v -0.826970 0.509394 -0.108055
v -0.828772 0.526031 -0.119589
v -0.828935 0.426257 -0.102965
v -0.829427 0.409621 -0.102965
v -0.829754 0.392985 -0.102965
v -0.829918 0.376370 -0.102965
v -0.829754 0.359734 -0.102965
v -0.828772 0.348414 -0.098287
v -0.827134 0.348414 -0.089018
v 0.723799 0.348414 -0.174464
v 0.547743 0.574721 -0.217614
v 0.679581 0.348414 -0.174479
v 0.430154 0.358560 -0.176583
v -0.533161 0.574721 -0.217805
v 0.015644 0.574721 -0.217746
v -0.822548 0.574721 -0.114529
v -0.829590 0.574721 -0.136228
v -0.829263 0.509394 -0.119589
v -0.829918 0.476122 -0.119589
v -0.830082 0.459530 -0.119589
v -0.830409 0.409621 -0.119589
v -0.830573 0.376370 -0.119589
v -0.829427 0.348414 -0.102965
v -0.830409 0.359734 -0.119589
v -0.829918 0.348414 -0.114264
v -0.700701 0.348414 -0.174479
v 0.147481 0.358560 -0.176583
v -0.551012 0.574721 -0.217805
v -0.830409 0.574721 -0.152838
v -0.830409 0.492758 -0.136228
v -0.830409 0.574721 -0.169462
v -0.830409 0.376370 -0.136228
v -0.830082 0.359734 -0.136228
v -0.829918 0.348414 -0.130903
v -0.830082 0.348414 -0.119589
v -0.722974 0.348414 -0.174464
v -0.683996 0.358582 -0.176583
v -0.567553 0.574721 -0.217790
v -0.700701 0.358649 -0.176583
v -0.829427 0.574721 -0.186101
v -0.829590 0.392985 -0.152838
v -0.829263 0.376370 -0.152838
v -0.829754 0.348414 -0.136228
v -0.739515 0.348414 -0.174435
v -0.750488 0.358804 -0.176538
v -0.582948 0.574721 -0.217775
v -0.829099 0.559281 -0.186101
v -0.827134 0.574721 -0.198768
v -0.828772 0.359734 -0.152838
v -0.828116 0.348414 -0.152838
v -0.750488 0.348414 -0.174405
v -0.750488 0.574721 -0.216363
v -0.700701 0.574721 -0.217040
v -0.683996 0.574721 -0.217231
v -0.666145 0.574721 -0.217378
v -0.650750 0.574721 -0.217481
v -0.599653 0.574721 -0.217717
v -0.767193 0.348414 -0.174096
v -0.767357 0.361019 -0.176627
v -0.820419 0.574721 -0.207124
v -0.825660 0.532189 -0.194707
v -0.826151 0.542645 -0.195531
v -0.826151 0.348414 -0.162253
v -0.826970 0.376370 -0.164210
v -0.765883 0.574721 -0.215907
v -0.772434 0.348414 -0.173934
v -0.783734 0.348414 -0.173581
v -0.783734 0.359734 -0.175847
v -0.812230 0.574721 -0.212479
v -0.816980 0.348414 -0.167947
v -0.767193 0.574721 -0.215863
v -0.789138 0.348414 -0.173390
v -0.800439 0.359734 -0.175258
v -0.800439 0.574721 -0.214289
v -0.809774 0.566082 -0.211390
v -0.809774 0.382307 -0.178127
v -0.800439 0.348414 -0.172934
v -0.783734 0.574721 -0.215083
vn 0.9996 0.0053 0.0275
vn 0.9997 0.0049 0.0254
vn 1.0000 0.0008 -0.0000
vn -0.0000 1.0000 -0.0000
vn -0.0000 1.0000 -0.0001
vn -0.0000 1.0000 0.0001
vn -0.0000 1.0000 -0.0008
vn -0.0000 1.0000 0.0002
vn 0.9984 0.0212 0.0531
vn 0.9991 0.0098 0.0417
vn 0.9993 0.0066 0.0360
vn 0.9987 0.0098 0.0491
vn 0.9989 0.0066 0.0459
vn 0.9990 0.0049 0.0443
vn 0.9988 -0.0000 0.0492
vn 0.9992 -0.0098 0.0394
vn 0.9999 -0.0098 -0.0098
vn 1.0000 -0.0016 -0.0098
vn 0.9986 -0.0089 -0.0530
vn 0.9880 0.0334 0.1506
vn 0.9945 0.0211 0.1024
vn 0.9950 0.0196 0.0979
vn 0.9987 0.0099 0.0493
vn 0.9982 0.0099 0.0591
vn 0.9940 0.0196 0.1077
vn 0.9817 0.0193 0.1894
vn 0.9847 0.0065 0.1742
vn 0.9872 -0.0000 0.1594
vn 0.9871 -0.0156 0.1594
vn 0.9892 -0.0286 0.1435
vn 0.9977 -0.0289 0.0615
vn 0.9991 -0.0185 0.0394
vn 0.9992 -0.0289 0.0289
vn 0.9996 -0.0289 -0.0000
vn 0.9996 -0.0197 -0.0197
vn 0.9981 -0.0196 -0.0590
vn 0.9982 -0.0104 -0.0591
vn 0.9915 -0.0215 -0.1282
vn 0.9907 -0.0210 -0.1345
vn 0.9842 0.0388 0.1730
vn 0.9824 0.0417 0.1823
vn 0.9816 0.0387 0.1872
vn 0.9817 0.0336 0.1872
vn 0.9859 0.0291 0.1650
vn 0.9803 0.0290 0.1956
vn 0.9804 0.0226 0.1957
vn 0.9808 0.0212 0.1938
vn 0.9030 0.0343 0.4283
vn 0.9174 0.0148 0.3977
vn 0.9170 -0.0350 0.3975
vn 0.9839 -0.0239 0.1772
vn -0.0000 -1.0000 -0.0000
vn -0.0000 -1.0000 0.0001
vn -0.0000 -1.0000 -0.0001
vn 0.9992 -0.0289 -0.0289
vn 0.9977 -0.0289 -0.0615
vn 0.9975 -0.0267 -0.0661
vn 0.9945 -0.0392 -0.0969
vn 0.9808 -0.0386 -0.1913
vn 0.9796 -0.0343 -0.1981
vn 0.9796 -0.0342 -0.1978
vn 0.9833 -0.0209 -0.1806
vn 0.9803 0.0426 0.1928
vn 0.8723 0.1593 0.4624
vn 0.9550 0.0697 0.2885
vn 0.9780 0.0451 0.2035
vn 0.9580 0.0507 0.2821
vn 0.9661 0.0445 0.2544
vn 0.9788 0.0345 0.2018
vn 0.9789 0.0334 0.2018
vn 0.8695 0.0514 0.4913
vn 0.8979 0.0379 0.4386
vn 0.8054 0.0694 0.5887
vn 0.5355 0.0629 0.8422
vn 0.5187 0.0503 0.8535
vn 0.5183 -0.0608 0.8530
vn 0.5276 -0.0710 0.8465
vn 0.5456 -0.0850 0.8337
vn 0.8865 -0.0889 0.4541
vn 0.8509 0.0579 0.5222
vn 0.8206 0.0660 0.5677
vn 0.9917 -0.0574 -0.1150
vn 0.9804 -0.0567 -0.1888
vn 0.9800 -0.0547 -0.1911
vn 0.9248 -0.0640 -0.3750
vn 0.9417 -0.0563 -0.3316
vn 0.9780 -0.0355 -0.2054
vn 0.7546 0.2437 0.6092
vn 0.7886 0.2159 0.5758
vn 0.9112 0.0771 0.4047
vn 0.5348 0.2157 0.8169
vn 0.5153 0.2045 0.8322
vn 0.4921 0.1728 0.8532
vn 0.5185 0.1626 0.8395
vn 0.9155 0.0747 0.3953
vn 0.9463 0.0577 0.3180
vn 0.7090 0.0918 0.6992
vn 0.5615 0.1150 0.8194
vn 0.5363 0.1131 0.8364
vn 0.5333 0.1106 0.8387
vn 0.1753 0.0764 0.9816
vn 0.1756 0.0487 0.9833
vn 0.1928 0.0339 0.9806
vn 0.1928 -0.0407 0.9804
vn 0.1907 -0.0433 0.9807
vn 0.5933 -0.1413 -0.7925
vn 0.6142 -0.1377 -0.7770
vn 0.6995 -0.1217 -0.7042
vn 0.8683 -0.0835 -0.4890
vn 0.7805 -0.0893 -0.6188
vn 0.8000 -0.0783 -0.5949
vn 0.5831 0.2306 0.7790
vn 0.5440 0.2244 0.8086
vn 0.5128 0.1597 0.8435
vn 0.4909 0.1339 0.8609
vn 0.5359 0.1196 0.8358
vn 0.2202 0.2070 0.9532
vn 0.4069 0.1885 0.8938
vn 0.4518 0.1792 0.8740
vn 0.3170 0.1560 0.9355
vn 0.4090 0.1473 0.9006
vn 0.4804 0.1353 0.8666
vn 0.1574 0.0894 0.9835
vn 0.1168 0.1041 0.9877
vn 0.0438 0.1047 0.9935
vn 0.0385 0.0995 0.9943
vn 0.0263 0.0750 0.9968
vn 0.0264 0.0494 0.9984
vn 0.0185 0.0415 0.9990
vn 0.0185 -0.0286 0.9994
vn 0.0190 -0.0294 0.9994
vn 0.0338 -0.0441 0.9985
vn 0.4909 -0.1577 -0.8568
vn 0.4980 -0.1565 -0.8529
vn 0.5554 -0.1466 -0.8186
vn 0.1453 0.2206 0.9645
vn 0.1603 0.2102 0.9644
vn 0.1537 0.2092 0.9657
vn 0.1221 0.2022 0.9717
vn 0.1083 0.1964 0.9745
vn 0.1025 0.1914 0.9761
vn 0.1006 0.1841 0.9778
vn 0.1167 0.1705 0.9784
vn 0.1373 0.1629 0.9770
vn 0.1306 0.1622 0.9781
vn 0.0950 0.1565 0.9831
vn 0.0895 0.1552 0.9838
vn 0.0894 0.1551 0.9839
vn 0.0830 0.1320 0.9878
vn 0.0554 0.1322 0.9897
vn 0.0437 0.1089 0.9931
vn 0.0385 0.1037 0.9939
vn 0.0071 0.0881 0.9961
vn 0.0071 0.0663 0.9978
vn 0.0176 0.0663 0.9976
vn 0.0230 0.1038 0.9943
vn 0.0176 0.0415 0.9990
vn 0.0070 0.0309 0.9995
vn 0.0070 -0.0226 0.9997
vn 0.0130 -0.0286 0.9995
vn 0.3073 -0.2118 -0.9277
vn 0.4633 -0.1612 -0.8714
vn 0.2058 -0.1745 -0.9629
vn 0.1610 -0.1637 -0.9733
vn 0.0441 0.2227 0.9739
vn 0.0412 0.2195 0.9747
vn 0.0413 0.2116 0.9765
vn 0.0413 0.2044 0.9780
vn 0.0422 0.2035 0.9782
vn 0.0423 0.1974 0.9794
vn 0.0412 0.1958 0.9798
vn 0.0409 0.1922 0.9805
vn 0.0388 0.1889 0.9812
vn 0.0384 0.1849 0.9820
vn 0.0374 0.1838 0.9823
vn 0.0501 0.1714 0.9839
vn 0.0562 0.1654 0.9846
vn 0.0591 0.1633 0.9848
vn 0.0646 0.1569 0.9855
vn 0.0651 0.1555 0.9857
vn 0.0651 0.1554 0.9857
vn 0.0648 0.1550 0.9858
vn 0.0555 0.1349 0.9893
vn 0.0294 0.1350 0.9904
vn 0.0229 0.1280 0.9915
vn 0.0017 0.1281 0.9918
vn 0.0029 0.0881 0.9961
vn 0.0031 0.0758 0.9971
vn 0.0035 0.0627 0.9980
vn 0.0039 0.0309 0.9995
vn 0.0054 -0.0234 0.9997
vn 0.0039 -0.0234 0.9997
vn 0.2733 -0.2163 -0.9373
vn 0.1475 -0.1763 -0.9732
vn 0.1895 -0.1975 -0.9618
vn 0.1350 -0.1772 -0.9749
vn 0.0755 -0.1780 -0.9811
vn 0.0396 0.2194 0.9748
vn 0.0378 0.2175 0.9753
vn 0.0378 0.2116 0.9766
vn 0.0344 0.2083 0.9775
vn 0.0345 0.2044 0.9783
vn 0.0300 0.2001 0.9793
vn 0.0304 0.1959 0.9802
vn 0.0296 0.1890 0.9815
vn 0.0301 0.1953 0.9803
vn 0.0296 0.1891 0.9815
vn 0.0295 0.1880 0.9817
vn 0.0300 0.1875 0.9818
vn 0.0237 0.1876 0.9820
vn 0.0152 0.1869 0.9823
vn 0.0184 0.1839 0.9828
vn 0.0184 0.1834 0.9829
vn 0.0276 0.1745 0.9843
vn 0.0324 0.1715 0.9846
vn 0.0361 0.1655 0.9855
vn 0.0351 0.1552 0.9873
vn 0.0308 0.1484 0.9884
vn 0.0008 0.1485 0.9889
vn -0.0034 0.1583 0.9874
vn -0.0090 0.1447 0.9894
vn -0.0095 0.1377 0.9904
vn -0.0104 0.1135 0.9935
vn -0.0105 0.0758 0.9971
vn 0.0003 0.1583 0.9874
vn -0.0113 0.0556 0.9984
vn -0.0113 -0.0413 0.9991
vn -0.0107 -0.0623 0.9980
vn 0.0036 -0.0623 0.9981
vn 0.0362 -0.2010 -0.9789
vn 0.0354 -0.1998 -0.9792
vn 0.0355 -0.1800 -0.9830
vn 0.0441 -0.1786 -0.9829
vn 0.0454 -0.1785 -0.9829
vn 0.0475 -0.1783 -0.9828
vn 0.0078 0.2176 0.9760
vn 0.0052 0.2150 0.9766
vn 0.0052 0.2084 0.9780
vn 0.0239 0.1997 0.9796
vn 0.0021 0.2055 0.9787
vn 0.0021 0.2028 0.9792
vn 0.0281 0.1881 0.9817
vn 0.0017 0.1898 0.9818
vn 0.0013 0.1834 0.9830
vn 0.0006 0.1746 0.9846
vn -0.0000 0.1672 0.9859
vn -0.0010 0.1648 0.9863
vn -0.0408 0.1647 0.9855
vn -0.0409 0.1540 0.9872
vn -0.0303 0.1472 0.9886
vn -0.0610 0.1477 0.9871
vn -0.0591 0.1375 0.9887
vn -0.0882 0.1130 0.9897
vn -0.1508 0.0903 0.9844
vn -0.1663 0.0788 0.9829
vn -0.1666 0.0548 0.9845
vn -0.1888 0.0354 0.9814
vn -0.1887 -0.0433 0.9811
vn -0.1871 -0.0446 0.9813
vn -0.0141 -0.0454 0.9989
vn 0.0323 -0.1998 -0.9793
vn 0.0310 -0.1993 -0.9794
vn 0.0305 -0.1986 -0.9796
vn 0.0321 -0.1803 -0.9831
vn 0.0298 -0.1803 -0.9832
vn 0.0020 0.2229 0.9748
vn 0.0021 0.2150 0.9766
vn -0.0328 0.2228 0.9743
vn -0.0419 0.2220 0.9741
vn -0.0438 0.2201 0.9745
vn -0.0442 0.1681 0.9848
vn -0.1602 0.1661 0.9730
vn -0.1146 0.1521 0.9817
vn -0.0908 0.1500 0.9845
vn -0.0757 0.1492 0.9859
vn -0.1133 0.1513 0.9820
vn -0.4166 0.1433 0.8977
vn -0.4283 0.1424 0.8924
vn -0.4615 0.1385 0.8762
vn -0.4685 0.1359 0.8729
vn -0.5155 0.1216 0.8482
vn -0.5156 0.1194 0.8485
vn -0.5104 0.1152 0.8522
vn -0.5129 0.0593 0.8564
vn -0.5013 0.0510 0.8638
vn -0.1913 -0.0446 0.9805
vn -0.5007 -0.0681 0.8629
vn 0.0207 -0.2003 -0.9795
vn 0.0218 -0.1986 -0.9798
vn 0.0194 -0.1811 -0.9833
vn 0.0294 -0.1803 -0.9832
vn -0.2946 0.2105 0.9322
vn -0.3152 0.1906 0.9297
vn -0.4783 0.1584 0.8638
vn -0.4888 0.1544 0.8586
vn -0.4928 0.1533 0.8565
vn -0.4843 0.1500 0.8619
vn -0.5506 0.1529 0.8207
vn -0.9256 0.0668 0.3725
vn -0.7854 0.0773 0.6142
vn -0.5240 0.1202 0.8432
vn -0.8389 0.0628 0.5406
vn -0.8395 0.0627 0.5398
vn -0.8415 0.0621 0.5367
vn -0.8916 0.0395 0.4511
vn -0.9098 0.0264 0.4142
vn -0.9174 0.0158 0.3977
vn -0.9169 -0.0354 0.3975
vn -0.8723 -0.0906 0.4805
vn -0.5174 -0.0861 0.8514
vn 0.0026 -0.2003 -0.9797
vn 0.0056 -0.1825 -0.9832
vn 0.0087 -0.1816 -0.9833
vn 0.0095 -0.1814 -0.9834
vn 0.0110 -0.1812 -0.9834
vn 0.0113 -0.1812 -0.9834
vn 0.0114 -0.1811 -0.9834
vn 0.0013 -0.1983 -0.9801
vn 0.0013 -0.1857 -0.9826
vn 0.0019 -0.1852 -0.9827
vn 0.0041 -0.1834 -0.9830
vn 0.0044 -0.1832 -0.9831
vn 0.0050 -0.1828 -0.9831
vn -0.5828 0.2057 0.7862
vn -0.5572 0.1735 0.8121
vn -0.5597 0.1693 0.8112
vn -0.9054 0.1394 0.4011
vn -0.9690 0.0534 0.2414
vn -0.9447 0.0581 0.3228
vn -0.9511 0.0540 0.3041
vn -0.9577 0.0501 0.2834
vn -0.9617 0.0472 0.2702
vn -0.9781 0.0362 0.2050
vn -0.9792 0.0349 0.1997
vn -0.9810 0.0290 0.1916
vn -0.9812 0.0227 0.1916
vn -0.9821 0.0193 0.1874
vn -0.9822 0.0120 0.1874
vn -0.9827 0.0097 0.1848
vn -0.9827 0.0074 0.1848
vn -0.9861 -0.0097 0.1660
vn -0.9860 -0.0170 0.1660
vn -0.9845 -0.0242 0.1740
vn -0.9179 -0.0359 0.3952
vn 0.0006 -0.2014 -0.9795
vn 0.0009 -0.1860 -0.9826
vn 0.0003 -0.2023 -0.9793
vn 0.0001 -0.2018 -0.9794
vn -0.0000 -0.1871 -0.9823
vn 0.0001 -0.1868 -0.9824
vn 0.0002 -0.1864 -0.9825
vn -0.5924 0.2171 0.7759
vn -0.8525 0.2155 0.4762
vn -0.9828 0.0446 0.1790
vn -0.9748 0.0469 0.2180
vn -0.9749 0.0456 0.2180
vn -0.9905 0.0293 0.1343
vn -0.9859 0.0291 0.1650
vn -0.9859 0.0291 0.1651
vn -0.9940 0.0196 0.1077
vn -0.9982 0.0099 0.0591
vn -0.9982 0.0098 0.0590
vn -0.9991 0.0066 0.0426
vn -0.9992 0.0049 0.0394
vn -0.9992 -0.0098 0.0394
vn -0.9899 -0.0286 0.1386
vn -0.9989 -0.0248 0.0394
vn -0.9986 -0.0289 0.0434
vn -0.0000 -0.2030 -0.9792
vn -0.0000 -0.1873 -0.9823
vn -0.9987 0.0116 0.0492
vn -0.9951 0.0196 0.0965
vn -0.9990 0.0099 0.0440
vn -0.9994 0.0067 0.0330
vn -0.9994 0.0066 0.0328
vn -0.9997 0.0049 0.0246
vn -1.0000 -0.0017 -0.0098
vn -0.9999 -0.0098 -0.0098
vn -0.9997 0.0048 0.0236
vn -1.0000 0.0008 -0.0000
vn -0.9996 -0.0197 -0.0197
vn -0.9995 -0.0237 -0.0197
vn -0.9995 -0.0289 -0.0145
vn -0.9991 -0.0289 0.0307
vn -0.0006 -0.2016 -0.9795
vn -0.0000 -0.2026 -0.9793
vn -0.0007 -0.1869 -0.9824
vn -0.0009 -0.1868 -0.9824
vn -0.9982 -0.0099 -0.0589
vn -0.9982 -0.0099 -0.0591
vn -0.9974 -0.0196 -0.0688
vn -0.9974 -0.0197 -0.0689
vn -0.9965 -0.0288 -0.0780
vn -0.9991 -0.0289 -0.0307
vn -0.0008 -0.2010 -0.9796
vn -0.0017 -0.2002 -0.9797
vn -0.0015 -0.1996 -0.9799
vn -0.0015 -0.1865 -0.9825
vn -0.9925 -0.0211 -0.1207
vn -0.9935 -0.0196 -0.1119
vn -0.9838 -0.0209 -0.1781
vn -0.9859 -0.0291 -0.1649
vn -0.9964 -0.0294 -0.0790
vn -0.9935 -0.0575 -0.0980
vn -0.0026 -0.2011 -0.9796
vn -0.0134 -0.1814 -0.9833
vn -0.0113 -0.1818 -0.9833
vn -0.0081 -0.1828 -0.9831
vn -0.0066 -0.1834 -0.9830
vn -0.0045 -0.1843 -0.9829
vn -0.0035 -0.1850 -0.9827
vn -0.0181 -0.2011 -0.9794
vn -0.0207 -0.1970 -0.9802
vn -0.0187 -0.1814 -0.9832
vn -0.9805 -0.0338 -0.1934
vn -0.7766 -0.0865 -0.6240
vn -0.8009 -0.0844 -0.5928
vn -0.9149 -0.0682 -0.3979
vn -0.9636 -0.0466 -0.2632
vn -0.9771 -0.0373 -0.2093
vn -0.9748 -0.0439 -0.2186
vn -0.9773 -0.0566 -0.2040
vn -0.0291 -0.1805 -0.9831
vn -0.0303 -0.1971 -0.9799
vn -0.0306 -0.1970 -0.9799
vn -0.0313 -0.1962 -0.9801
vn -0.0326 -0.1805 -0.9830
vn -0.6859 -0.1248 -0.7169
vn -0.5411 -0.1503 -0.8274
vn -0.8889 -0.0773 -0.4514
vn -0.5211 -0.1542 -0.8394
vn -0.0331 -0.1804 -0.9830
vn -0.0347 -0.1964 -0.9799
vn -0.0345 -0.1961 -0.9800
vn -0.0346 -0.1803 -0.9830
vn -0.1496 -0.1654 -0.9748
vn -0.1869 -0.1750 -0.9667
vn -0.4694 -0.1610 -0.8682
vn -0.2816 -0.2206 -0.9338
vn -0.0463 -0.1785 -0.9829
vn -0.0395 -0.2010 -0.9788
vn -0.1823 -0.1978 -0.9632
vn -0.1285 -0.1771 -0.9758
vn -0.0467 -0.1784 -0.9828
vn -0.1393 -0.1764 -0.9744
s 0
f 1//1 2//1 3//1
f 1//2 3//2 4//2
f 1//3 4//3 5//3
f 1//4 5//4 13//4
f 1//4 13//4 28//4
f 1//4 28//4 41//4
f 1//4 41//4 57//4
f 1//4 57//4 71//4
f 1//4 71//4 70//4
f 1//4 70//4 87//4
f 1//4 87//4 86//4
f 1//4 86//4 109//4
f 1//4 109//4 127//4
f 1//4 127//4 150//4
f 1//4 150//4 149//4
f 1//4 149//4 148//4
f 1//4 148//4 165//4
f 1//4 165//4 181//4
f 1//4 181//4 199//4
f 1//4 199//4 198//4
f 1//5 198//5 197//5
f 1//4 197//4 196//4
f 1//4 196//4 195//4
f 1//4 195//4 194//4
f 1//4 194//4 204//4
f 1//4 204//4 203//4
f 1//4 203//4 202//4
f 1//4 202//4 201//4
f 1//4 201//4 219//4
f 1//4 219//4 223//4
f 1//4 223//4 222//4
f 1//5 222//5 236//5
f 1//6 236//6 246//6
f 1//4 246//4 254//4
f 1//4 254//4 265//4
f 1//4 265//4 264//4
f 1//4 264//4 263//4
f 1//4 263//4 262//4
f 1//4 262//4 261//4
f 1//4 261//4 260//4
f 1//4 260//4 273//4
f 1//7 273//7 279//7
f 1//4 279//4 286//4
f 1//4 286//4 282//4
f 1//4 282//4 277//4
f 1//4 277//4 268//4
f 1//4 268//4 256//4
f 1//4 256//4 248//4
f 1//4 248//4 239//4
f 1//4 239//4 237//4
f 1//4 237//4 225//4
f 1//4 225//4 207//4
f 1//4 207//4 224//4
f 1//4 224//4 205//4
f 1//8 205//8 182//8
f 1//4 182//4 168//4
f 1//4 168//4 167//4
f 1//7 167//7 166//7
f 1//4 166//4 151//4
f 1//4 151//4 128//4
f 1//4 128//4 110//4
f 1//4 110//4 88//4
f 1//4 88//4 75//4
f 1//4 75//4 61//4
f 1//4 61//4 73//4
f 1//4 73//4 58//4
f 1//4 58//4 42//4
f 1//4 42//4 30//4
f 1//4 30//4 14//4
f 1//4 14//4 6//4
f 1//9 6//9 7//9
f 1//10 7//10 2//10
f 2//11 8//11 3//11
f 2//12 7//12 8//12
f 3//13 8//13 9//13
f 3//14 9//14 4//14
f 4//15 9//15 10//15
f 4//16 10//16 11//16
f 4//17 11//17 12//17
f 4//18 12//18 5//18
f 5//19 12//19 13//19
f 6//20 14//20 15//20
f 6//21 15//21 7//21
f 7//22 15//22 16//22
f 7//23 16//23 8//23
f 8//24 16//24 9//24
f 9//25 16//25 15//25
f 9//25 15//25 17//25
f 9//26 17//26 18//26
f 9//27 18//27 19//27
f 9//28 19//28 10//28
f 10//29 19//29 20//29
f 10//30 20//30 21//30
f 10//31 21//31 22//31
f 10//32 22//32 11//32
f 11//33 22//33 23//33
f 11//34 23//34 24//34
f 11//35 24//35 12//35
f 12//35 24//35 25//35
f 12//36 25//36 26//36
f 12//37 26//37 13//37
f 13//38 26//38 27//38
f 13//39 27//39 28//39
f 14//40 29//40 15//40
f 14//41 30//41 29//41
f 15//42 29//42 31//42
f 15//43 31//43 32//43
f 15//44 32//44 17//44
f 17//45 32//45 33//45
f 17//46 33//46 34//46
f 17//47 34//47 18//47
f 18//48 34//48 35//48
f 18//49 35//49 19//49
f 19//50 35//50 36//50
f 19//51 36//51 20//51
f 20//52 36//52 53//52
f 20//52 53//52 52//52
f 20//52 52//52 51//52
f 20//52 51//52 68//52
f 20//52 68//52 84//52
f 20//52 84//52 83//52
f 20//52 83//52 105//52
f 20//52 105//52 124//52
f 20//52 124//52 145//52
f 20//52 145//52 144//52
f 20//52 144//52 161//52
f 20//52 161//52 160//52
f 20//53 160//53 178//53
f 20//52 178//52 192//52
f 20//52 192//52 191//52
f 20//52 191//52 217//52
f 20//52 217//52 216//52
f 20//52 216//52 231//52
f 20//52 231//52 233//52
f 20//52 233//52 243//52
f 20//52 243//52 242//52
f 20//52 242//52 251//52
f 20//52 251//52 258//52
f 20//52 258//52 271//52
f 20//52 271//52 278//52
f 20//52 278//52 285//52
f 20//52 285//52 280//52
f 20//53 280//53 275//53
f 20//52 275//52 274//52
f 20//54 274//54 266//54
f 20//52 266//52 259//52
f 20//52 259//52 252//52
f 20//52 252//52 244//52
f 20//53 244//53 234//53
f 20//52 234//52 220//52
f 20//52 220//52 218//52
f 20//52 218//52 193//52
f 20//52 193//52 179//52
f 20//52 179//52 163//52
f 20//52 163//52 162//52
f 20//52 162//52 146//52
f 20//52 146//52 125//52
f 20//52 125//52 106//52
f 20//52 106//52 85//52
f 20//52 85//52 69//52
f 20//52 69//52 55//52
f 20//52 55//52 54//52
f 20//52 54//52 38//52
f 20//52 38//52 37//52
f 20//52 37//52 24//52
f 20//52 24//52 23//52
f 20//52 23//52 22//52
f 20//52 22//52 21//52
f 24//55 37//55 25//55
f 25//56 37//56 38//56
f 25//57 38//57 26//57
f 26//58 38//58 39//58
f 26//59 39//59 40//59
f 26//60 40//60 41//60
f 26//61 41//61 27//61
f 27//62 41//62 28//62
f 29//63 30//63 31//63
f 30//64 42//64 43//64
f 30//65 43//65 44//65
f 30//66 44//66 31//66
f 31//67 44//67 45//67
f 31//68 45//68 46//68
f 31//69 46//69 32//69
f 32//70 46//70 33//70
f 33//71 46//71 35//71
f 33//72 35//72 34//72
f 35//73 47//73 48//73
f 35//74 48//74 49//74
f 35//75 49//75 50//75
f 35//76 50//76 51//76
f 35//77 51//77 52//77
f 35//78 52//78 53//78
f 35//79 53//79 36//79
f 35//80 46//80 45//80
f 35//81 45//81 47//81
f 38//82 54//82 39//82
f 39//83 54//83 55//83
f 39//84 55//84 40//84
f 40//85 55//85 56//85
f 40//86 56//86 57//86
f 40//87 57//87 41//87
f 42//88 58//88 59//88
f 42//89 59//89 43//89
f 43//90 60//90 44//90
f 43//91 59//91 61//91
f 43//92 61//92 62//92
f 43//93 62//93 63//93
f 43//94 63//94 60//94
f 44//95 60//95 47//95
f 44//96 47//96 45//96
f 47//97 60//97 48//97
f 48//98 60//98 64//98
f 48//99 64//99 65//99
f 48//100 65//100 49//100
f 49//101 65//101 66//101
f 49//102 66//102 67//102
f 49//103 67//103 50//103
f 50//104 67//104 51//104
f 51//105 67//105 68//105
f 55//106 69//106 70//106
f 55//107 70//107 71//107
f 55//108 71//108 72//108
f 55//109 72//109 56//109
f 56//110 72//110 71//110
f 56//111 71//111 57//111
f 58//112 73//112 59//112
f 59//113 73//113 61//113
f 60//114 63//114 74//114
f 60//115 74//115 65//115
f 60//116 65//116 64//116
f 61//117 75//117 76//117
f 61//118 76//118 62//118
f 62//119 76//119 63//119
f 63//120 76//120 77//120
f 63//121 77//121 74//121
f 65//122 74//122 77//122
f 65//123 77//123 66//123
f 66//124 77//124 78//124
f 66//125 78//125 79//125
f 66//126 79//126 80//126
f 66//127 80//127 81//127
f 66//128 81//128 67//128
f 67//129 81//129 82//129
f 67//130 82//130 83//130
f 67//131 83//131 84//131
f 67//132 84//132 68//132
f 69//133 85//133 86//133
f 69//134 86//134 87//134
f 69//135 87//135 70//135
f 75//136 88//136 89//136
f 75//137 89//137 76//137
f 76//138 89//138 90//138
f 76//139 90//139 91//139
f 76//140 91//140 92//140
f 76//141 92//141 93//141
f 76//142 93//142 94//142
f 76//143 94//143 95//143
f 76//144 95//144 77//144
f 77//145 95//145 96//145
f 77//146 96//146 97//146
f 77//147 97//147 98//147
f 77//148 98//148 99//148
f 77//149 99//149 78//149
f 78//150 99//150 100//150
f 78//151 100//151 79//151
f 79//152 100//152 80//152
f 80//153 101//153 102//153
f 80//154 102//154 103//154
f 80//155 103//155 81//155
f 80//156 100//156 101//156
f 81//157 103//157 82//157
f 82//158 103//158 104//158
f 82//159 104//159 105//159
f 82//160 105//160 83//160
f 85//161 106//161 107//161
f 85//162 107//162 86//162
f 86//163 107//163 108//163
f 86//164 108//164 109//164
f 88//165 110//165 89//165
f 89//166 110//166 111//166
f 89//167 111//167 112//167
f 89//167 112//167 90//167
f 90//168 112//168 113//168
f 90//169 113//169 91//169
f 91//170 113//170 92//170
f 92//171 113//171 114//171
f 92//172 114//172 93//172
f 93//173 114//173 115//173
f 93//174 115//174 94//174
f 94//175 115//175 116//175
f 94//175 116//175 117//175
f 94//176 117//176 118//176
f 94//176 118//176 95//176
f 95//177 118//177 119//177
f 95//178 119//178 96//178
f 96//179 119//179 97//179
f 97//180 119//180 98//180
f 98//181 119//181 99//181
f 99//182 119//182 120//182
f 99//183 120//183 100//183
f 100//184 120//184 121//184
f 100//185 121//185 101//185
f 101//186 121//186 122//186
f 101//187 122//187 102//187
f 102//188 122//188 123//188
f 102//189 123//189 103//189
f 103//190 123//190 104//190
f 104//191 124//191 105//191
f 104//192 123//192 124//192
f 106//193 125//193 107//193
f 107//194 109//194 108//194
f 107//195 125//195 126//195
f 107//196 126//196 109//196
f 109//197 126//197 127//197
f 110//198 128//198 111//198
f 111//199 128//199 129//199
f 111//200 129//200 112//200
f 112//201 129//201 130//201
f 112//202 130//202 113//202
f 113//203 130//203 131//203
f 113//204 131//204 114//204
f 114//205 132//205 115//205
f 114//206 131//206 133//206
f 114//207 133//207 132//207
f 115//208 132//208 134//208
f 115//209 134//209 116//209
f 116//210 134//210 133//210
f 116//211 133//211 135//211
f 116//212 135//212 117//212
f 117//213 135//213 136//213
f 117//214 136//214 137//214
f 117//215 137//215 118//215
f 118//216 137//216 119//216
f 119//217 137//217 120//217
f 120//218 137//218 121//218
f 121//219 137//219 122//219
f 122//220 138//220 139//220
f 122//221 139//221 140//221
f 122//222 140//222 141//222
f 122//223 141//223 142//223
f 122//224 142//224 123//224
f 122//225 137//225 138//225
f 123//226 142//226 143//226
f 123//227 143//227 144//227
f 123//228 144//228 145//228
f 123//229 145//229 124//229
f 125//230 146//230 126//230
f 126//231 146//231 147//231
f 126//232 147//232 148//232
f 126//233 148//233 149//233
f 126//234 149//234 150//234
f 126//235 150//235 127//235
f 128//236 151//236 129//236
f 129//237 151//237 152//237
f 129//238 152//238 130//238
f 130//239 133//239 131//239
f 130//240 152//240 153//240
f 130//241 153//241 133//241
f 132//242 133//242 134//242
f 133//243 153//243 135//243
f 135//244 153//244 136//244
f 136//245 153//245 137//245
f 137//246 153//246 138//246
f 138//247 153//247 139//247
f 139//248 153//248 154//248
f 139//249 154//249 155//249
f 139//250 155//250 140//250
f 140//251 155//251 156//251
f 140//252 156//252 141//252
f 141//253 156//253 142//253
f 142//254 156//254 157//254
f 142//255 157//255 158//255
f 142//256 158//256 143//256
f 143//257 158//257 159//257
f 143//258 159//258 160//258
f 143//259 160//259 161//259
f 143//260 161//260 144//260
f 146//261 162//261 147//261
f 147//262 162//262 163//262
f 147//263 163//263 164//263
f 147//264 164//264 148//264
f 148//265 164//265 165//265
f 151//266 166//266 153//266
f 151//267 153//267 152//267
f 153//268 166//268 167//268
f 153//269 167//269 168//269
f 153//270 168//270 169//270
f 153//271 169//271 154//271
f 154//272 169//272 170//272
f 154//273 170//273 171//273
f 154//274 171//274 156//274
f 154//275 156//275 155//275
f 156//276 171//276 170//276
f 156//277 170//277 172//277
f 156//278 172//278 173//278
f 156//279 173//279 174//279
f 156//280 174//280 157//280
f 157//281 174//281 175//281
f 157//282 175//282 176//282
f 157//283 176//283 158//283
f 158//284 176//284 177//284
f 158//285 177//285 159//285
f 159//286 178//286 160//286
f 159//287 177//287 178//287
f 163//288 179//288 180//288
f 163//289 180//289 164//289
f 164//290 180//290 181//290
f 164//291 181//291 165//291
f 168//292 182//292 169//292
f 169//293 182//293 170//293
f 170//294 182//294 183//294
f 170//295 183//295 172//295
f 172//296 183//296 174//296
f 172//297 174//297 173//297
f 174//298 183//298 184//298
f 174//299 184//299 185//299
f 174//300 185//300 176//300
f 174//301 176//301 175//301
f 176//302 185//302 177//302
f 177//303 185//303 186//303
f 177//304 186//304 187//304
f 177//305 187//305 188//305
f 177//306 188//306 189//306
f 177//307 189//307 190//307
f 177//308 190//308 191//308
f 177//309 191//309 192//309
f 177//310 192//310 178//310
f 179//311 193//311 180//311
f 180//312 194//312 195//312
f 180//313 195//313 196//313
f 180//314 196//314 197//314
f 180//315 197//315 198//315
f 180//316 198//316 199//316
f 180//317 199//317 181//317
f 180//318 193//318 200//318
f 180//319 200//319 201//319
f 180//320 201//320 202//320
f 180//321 202//321 203//321
f 180//322 203//322 204//322
f 180//323 204//323 194//323
f 182//324 205//324 206//324
f 182//325 206//325 183//325
f 183//326 206//326 184//326
f 184//327 206//327 207//327
f 184//328 207//328 208//328
f 184//329 208//329 185//329
f 185//330 208//330 186//330
f 186//331 208//331 209//331
f 186//332 209//332 187//332
f 187//333 209//333 210//333
f 187//334 210//334 211//334
f 187//335 211//335 212//335
f 187//336 212//336 188//336
f 188//337 212//337 213//337
f 188//338 213//338 189//338
f 189//339 213//339 214//339
f 189//340 214//340 190//340
f 190//341 214//341 215//341
f 190//342 215//342 216//342
f 190//343 216//343 217//343
f 190//344 217//344 191//344
f 193//345 218//345 200//345
f 200//346 219//346 201//346
f 200//347 218//347 220//347
f 200//348 220//348 221//348
f 200//349 221//349 222//349
f 200//350 222//350 223//350
f 200//351 223//351 219//351
f 205//352 224//352 206//352
f 206//353 224//353 207//353
f 207//354 225//354 210//354
f 207//355 210//355 208//355
f 208//356 210//356 209//356
f 210//357 225//357 226//357
f 210//358 226//358 212//358
f 210//359 212//359 211//359
f 212//360 226//360 227//360
f 212//360 227//360 213//360
f 213//361 227//361 228//361
f 213//362 228//362 214//362
f 214//363 228//363 229//363
f 214//364 229//364 230//364
f 214//365 230//365 232//365
f 214//365 232//365 215//365
f 215//366 231//366 216//366
f 215//367 232//367 233//367
f 215//368 233//368 231//368
f 220//369 234//369 235//369
f 220//369 235//369 221//369
f 221//370 235//370 236//370
f 221//370 236//370 222//370
f 225//371 237//371 227//371
f 225//372 227//372 226//372
f 227//373 237//373 228//373
f 228//374 237//374 238//374
f 228//375 238//375 229//375
f 229//376 238//376 230//376
f 230//377 239//377 240//377
f 230//378 240//378 232//378
f 230//379 238//379 237//379
f 230//380 237//380 239//380
f 232//381 240//381 241//381
f 232//382 241//382 242//382
f 232//383 242//383 243//383
f 232//384 243//384 233//384
f 234//385 244//385 245//385
f 234//386 245//386 235//386
f 235//370 245//370 236//370
f 236//387 245//387 247//387
f 236//388 247//388 246//388
f 239//389 248//389 240//389
f 240//390 248//390 249//390
f 240//391 249//391 241//391
f 241//392 249//392 250//392
f 241//393 250//393 251//393
f 241//394 251//394 242//394
f 244//395 247//395 245//395
f 244//396 252//396 253//396
f 244//397 253//397 247//397
f 246//388 247//388 254//388
f 247//398 253//398 254//398
f 248//399 255//399 250//399
f 248//400 250//400 249//400
f 248//401 256//401 255//401
f 250//402 255//402 257//402
f 250//403 257//403 251//403
f 251//404 257//404 258//404
f 252//405 259//405 253//405
f 253//406 260//406 261//406
f 253//407 261//407 262//407
f 253//408 262//408 263//408
f 253//409 263//409 264//409
f 253//410 264//410 265//410
f 253//411 265//411 254//411
f 253//412 259//412 266//412
f 253//413 266//413 267//413
f 253//414 267//414 260//414
f 255//415 256//415 257//415
f 256//416 268//416 269//416
f 256//417 269//417 270//417
f 256//418 270//418 271//418
f 256//419 271//419 272//419
f 256//420 272//420 257//420
f 257//421 272//421 271//421
f 257//422 271//422 258//422
f 260//423 267//423 273//423
f 266//424 274//424 267//424
f 267//425 274//425 275//425
f 267//426 275//426 276//426
f 267//427 276//427 273//427
f 268//428 271//428 269//428
f 268//429 277//429 271//429
f 269//430 271//430 270//430
f 271//431 277//431 278//431
f 273//432 276//432 279//432
f 275//433 280//433 281//433
f 275//434 281//434 276//434
f 276//435 281//435 279//435
f 277//436 282//436 283//436
f 277//437 283//437 284//437
f 277//438 284//438 278//438
f 278//439 284//439 285//439
f 279//440 281//440 286//440
f 280//441 285//441 281//441
f 281//442 285//442 284//442
f 281//443 284//443 282//443
f 281//444 282//444 286//444
f 282//445 284//445 283//445
