# Blender 4.0.0
# www.blender.org
o decimated_mesh
v -0.399405 0.802603 -0.207828
v -0.401301 0.804155 -0.219362
v -0.799834 0.790833 -0.201703
v -0.634177 0.787153 -0.191311
v -0.809437 0.784677 -0.193727
v 0.708167 0.789005 -0.189248
v -0.797672 0.794720 -0.219148
v -0.026392 0.750602 -0.160567
v -0.634177 0.782301 -0.275293
v -0.798763 0.785472 -0.244560
v -0.815963 0.786108 -0.204264
v -0.809717 0.762497 -0.178825
v -0.826443 0.766885 -0.195171
v 0.694666 0.775375 -0.176491
v 0.821088 0.784686 -0.193897
v 0.740215 0.801242 -0.211580
v 0.823125 0.787597 -0.200259
v 0.811700 0.793866 -0.219903
v 0.608474 0.780329 -0.276825
v -0.804672 0.767070 -0.277890
v -0.810715 0.784583 -0.238856
v -0.815139 0.788298 -0.219362
v -0.825579 0.775997 -0.221187
v 0.737862 0.750565 -0.161155
v -0.811766 0.675894 -0.137954
v 0.804827 0.788705 -0.239027
v 0.826787 0.788006 -0.219362
v 0.822982 0.784371 -0.237880
v -0.588870 0.767130 -0.293774
v 0.597453 0.766581 -0.294195
v -0.795285 0.759882 -0.282316
v -0.686689 0.758008 -0.291494
v -0.812359 0.767553 -0.270039
v -0.824879 0.764087 -0.249223
v -0.825482 0.699240 -0.155411
v -0.799764 0.720248 -0.155724
v 0.822511 0.762584 -0.179250
v -0.806680 0.599000 -0.110836
v 0.837839 0.768933 -0.198321
v 0.837226 0.775124 -0.219329
v 0.820910 0.766685 -0.276412
v -0.647534 0.750495 -0.294413
v -0.783860 0.742232 -0.282663
v -0.812481 0.751516 -0.280101
v -0.825894 0.750804 -0.262843
v -0.829387 0.742232 -0.219362
v -0.825447 0.608574 -0.124950
v 0.824331 0.687585 -0.143219
v -0.800161 0.574732 -0.103820
v 0.837710 0.719496 -0.164655
v 0.835794 0.762783 -0.252620
v 0.799493 0.769616 -0.278911
v 0.791788 0.759043 -0.284998
v 0.670665 0.750798 -0.294479
v -0.809895 0.574713 -0.213378
v -0.820544 0.574721 -0.207122
v -0.820073 0.574688 -0.111442
v 0.837911 0.632954 -0.131995
v 0.841199 0.742232 -0.202723
v 0.837923 0.750088 -0.263223
v 0.823093 0.757863 -0.279888
v 0.824167 0.746611 -0.279655
v 0.795999 0.742232 -0.282964
v -0.828032 0.574723 -0.197323
v -0.828184 0.574735 -0.125514
v 0.821469 0.574777 -0.108263
v 0.840871 0.742232 -0.236000
v 0.838460 0.574717 -0.200839
v 0.821924 0.574706 -0.213435
v -0.830370 0.574721 -0.152864
v 0.832683 0.574721 -0.115356
v 0.841526 0.574721 -0.186122
v 0.840140 0.574710 -0.125177
vn 0.7669 0.6213 0.1607
vn 0.2388 0.9125 -0.3321
vn 0.0059 -0.2688 -0.9632
vn -0.3020 0.9378 0.1715
vn -0.3126 0.8960 0.3153
vn 0.1597 0.3958 -0.9043
vn 0.9997 0.0042 0.0227
vn -0.0079 0.9024 -0.4308
vn -0.3315 0.9101 -0.2487
vn -0.3440 0.9317 0.1164
vn -0.8338 0.5291 0.1576
vn 0.0001 0.7841 -0.6207
vn 0.1722 0.8794 -0.4439
vn 0.0069 0.2794 0.9601
vn 0.3583 0.8994 -0.2502
vn 0.1296 -0.0870 -0.9877
vn -0.0000 -0.4186 -0.9082
vn 0.3611 0.4109 0.8371
vn -0.9985 -0.0150 -0.0525
vn -0.9958 0.0357 0.0848
vn 0.9838 0.0991 0.1494
vn -0.2449 0.2559 -0.9352
vn -0.6381 0.4127 -0.6500
vn -0.1952 -0.3488 -0.9167
vn -0.0848 -0.0353 -0.9958
vn -0.0196 0.8027 0.5960
vn 0.9923 0.1236 0.0075
vn -0.4808 -0.3157 -0.8180
vn 0.0364 0.7722 -0.6343
vn -0.7440 0.3592 -0.5634
vn 0.6233 0.4391 0.6471
vn 0.5782 -0.2998 -0.7588
vn 0.9491 0.2799 -0.1446
vn 0.7708 0.3894 -0.5042
vn 0.0001 1.0000 -0.0007
vn -0.7766 -0.2114 -0.5934
vn 0.7710 -0.2113 -0.6007
vn -0.4919 0.2605 0.8308
vn -0.0021 0.6844 0.7291
vn -0.2520 0.4179 0.8728
vn 0.7414 0.6182 -0.2611
vn 0.0007 0.5267 0.8501
vn 0.5256 0.1898 0.8293
vn -0.5821 0.4059 0.7046
vn -0.0713 0.8785 -0.4724
vn 0.7796 0.4733 -0.4101
vn 0.7667 0.6217 0.1603
vn 0.1295 0.4319 0.8926
vn 0.1623 0.4008 -0.9017
vn 1.0000 0.0010 -0.0098
vn 0.9774 -0.0568 -0.2036
vn 0.9921 -0.0392 -0.1188
vn -0.3525 0.1713 0.9200
vn -0.0030 0.9745 -0.2244
vn -0.0454 0.9394 -0.3399
vn 0.0659 0.9571 -0.2820
vn 0.0473 0.9195 -0.3902
vn 0.0011 0.9516 -0.3073
vn 0.7593 0.0591 -0.6481
vn -0.6521 0.5841 0.4832
vn -0.0522 0.7053 -0.7070
vn 0.0004 0.7735 -0.6339
vn -0.2775 0.8492 -0.4492
vn -0.3577 0.8429 -0.4020
vn 0.0171 0.2955 0.9552
vn 0.0008 0.2885 0.9575
vn -0.0045 0.3323 0.9432
vn -0.0089 0.3740 0.9274
vn 0.0026 0.2967 0.9550
vn -0.8647 0.0616 0.4986
vn 0.0843 -0.0988 -0.9915
vn -0.0571 -0.3740 -0.9257
vn 0.0001 -0.4180 -0.9084
vn 0.0594 -0.3748 -0.9252
vn 0.2359 0.8783 -0.4158
vn 0.0875 0.8949 0.4376
vn 0.0031 0.7370 0.6758
vn -0.0132 0.4773 0.8786
vn 0.1609 -0.0050 -0.9870
vn 0.6659 0.5744 0.4761
vn -0.9963 -0.0191 -0.0838
vn 0.5467 0.2968 0.7830
vn 0.3430 0.2701 0.8997
vn -0.9936 0.1124 0.0064
vn -0.9953 0.0409 0.0882
vn -0.9937 0.0790 0.0794
vn -0.9913 0.0415 0.1245
vn 0.9918 0.0473 0.1191
vn 0.9904 0.0528 0.1277
vn 0.1635 -0.3565 -0.9199
vn 0.1267 0.9640 0.2339
vn 0.3579 0.9296 0.0885
vn 0.0562 0.2778 -0.9590
vn -0.0830 -0.0458 -0.9955
vn -0.1045 -0.0481 -0.9934
vn -0.7897 0.4676 -0.3971
vn 0.0181 0.9124 -0.4088
vn -0.0161 0.8339 0.5516
vn -0.0021 0.7447 0.6674
vn -0.0670 0.4582 -0.8863
vn -0.0647 0.4748 -0.8777
vn -0.0394 0.1768 -0.9835
vn -0.0003 0.0164 -0.9999
vn -0.0001 0.0386 -0.9993
vn -0.9900 0.1308 -0.0538
vn -0.9916 0.1080 -0.0706
vn 0.9933 0.1150 -0.0098
vn 0.9876 0.1428 -0.0657
vn 0.0016 0.9911 0.1331
vn -0.0235 0.9903 0.1371
vn 0.7924 0.1007 0.6016
vn -0.0120 0.5187 0.8549
vn 0.0896 0.6319 0.7699
vn 0.0980 0.5541 0.8266
vn -0.0193 0.5577 0.8298
vn 0.0559 0.6169 0.7850
vn -0.0034 0.6096 0.7927
vn 0.6077 0.4655 0.6434
vn -0.7128 0.6389 -0.2892
vn -0.7099 0.6446 -0.2839
vn -0.6995 0.6421 -0.3138
vn -0.3765 0.4027 0.8343
vn 0.0038 1.0000 0.0003
vn 0.0082 1.0000 0.0051
vn -0.0000 1.0000 -0.0002
vn -0.0044 1.0000 0.0059
vn 0.0006 1.0000 0.0001
vn 0.0005 1.0000 -0.0005
vn -0.0001 1.0000 -0.0002
vn -0.0000 1.0000 -0.0007
vn 0.0006 -1.0000 0.0002
vn 0.0012 1.0000 0.0008
vn -0.0254 0.9764 0.2144
vn -0.7669 -0.2147 -0.6048
vn -0.5537 0.2650 0.7895
vn -0.4960 0.2525 0.8308
vn -0.2234 0.9190 -0.3248
vn 0.6954 0.6382 -0.3303
vn 0.7478 0.6054 -0.2725
vn 0.0598 0.4649 -0.8833
vn -0.7652 0.6418 0.0513
vn -0.5506 0.4703 0.6897
vn -0.0230 0.9599 -0.2793
vn 0.0046 0.9496 -0.3136
vn 0.0010 0.9300 -0.3676
vn 0.0005 0.7840 -0.6208
vn 0.0001 0.7731 -0.6343
vn 0.0026 0.8754 0.4834
vn 0.0543 0.8408 0.5387
vn 0.0291 0.9333 -0.3579
vn 0.0456 0.8987 -0.4362
vn -0.0001 0.0178 -0.9998
vn -0.0003 0.0396 -0.9992
vn -0.3845 0.8185 -0.4268
vn -0.2687 0.8626 -0.4286
vn 0.0561 0.6521 0.7561
vn 0.0649 0.6040 0.7943
vn 0.1603 0.4021 -0.9014
vn 0.1625 0.3962 -0.9037
vn -0.9792 0.1769 -0.0996
vn -0.9924 0.1088 -0.0583
vn -0.9959 0.0384 0.0820
vn -0.9961 0.0379 0.0796
vn -0.9936 0.0462 0.1026
vn 0.0007 0.3082 0.9513
vn 0.0028 0.2893 0.9572
vn 0.7510 0.6080 -0.2577
vn 0.7340 0.6219 -0.2729
vn -0.0010 1.0000 0.0002
vn -0.0000 1.0000 -0.0000
vn -0.0000 1.0000 0.0002
vn 0.0010 1.0000 0.0003
vn 0.0007 1.0000 0.0003
vn 0.0025 1.0000 0.0002
vn 0.0077 1.0000 -0.0011
vn -0.9717 0.0749 0.2239
vn 0.0026 0.2784 0.9605
vn -0.0000 1.0000 -0.0080
vn 0.9892 0.0538 0.1365
vn 0.9915 0.0495 0.1204
vn 0.9927 -0.0308 -0.1164
vn 0.9766 -0.0694 -0.2034
vn -0.0000 1.0000 -0.0011
vn -0.0000 1.0000 -0.0057
s 0
f 40//1 17//1 39//1
f 28//2 26//2 18//2
f 7//3 2//3 16//3
f 3//4 7//4 11//4
f 3//5 11//5 5//5
f 61//6 52//6 41//6
f 72//7 59//7 73//7
f 52//8 16//8 26//8
f 7//9 21//9 22//9
f 7//10 22//10 11//10
f 11//11 23//11 13//11
f 30//12 29//12 19//12
f 41//13 52//13 26//13
f 8//14 38//14 49//14
f 18//15 27//15 28//15
f 63//16 53//16 62//16
f 69//17 55//17 42//17
f 48//18 50//18 37//18
f 64//19 70//19 46//19
f 13//20 46//20 35//20
f 39//21 50//21 59//21
f 20//22 31//22 44//22
f 20//23 44//23 33//23
f 55//24 44//24 43//24
f 31//25 32//25 43//25
f 3//26 5//26 4//26
f 40//27 39//27 59//27
f 44//28 55//28 56//28
f 19//29 52//29 30//29
f 44//30 45//30 33//30
f 37//31 50//31 39//31
f 68//32 69//32 62//32
f 40//33 60//33 51//33
f 41//34 60//34 61//34
f 66//35 72//35 69//35
f 45//36 56//36 64//36
f 60//37 68//37 62//37
f 47//38 38//38 25//38
f 14//39 6//39 4//39
f 12//40 25//40 36//40
f 51//41 28//41 40//41
f 24//42 14//42 8//42
f 66//43 71//43 58//43
f 12//44 13//44 35//44
f 10//45 9//45 20//45
f 51//46 60//46 41//46
f 40//47 27//47 17//47
f 24//48 48//48 37//48
f 61//49 53//49 52//49
f 72//50 67//50 59//50
f 67//51 72//51 68//51
f 68//52 60//52 67//52
f 38//53 57//53 49//53
f 7//54 16//54 9//54
f 7//55 9//55 10//55
f 16//56 18//56 26//56
f 52//57 19//57 16//57
f 19//58 9//58 16//58
f 62//59 61//59 60//59
f 11//60 13//60 5//60
f 20//61 9//61 29//61
f 9//62 19//62 29//62
f 33//63 21//63 10//63
f 10//64 20//64 33//64
f 48//65 24//65 66//65
f 24//66 8//66 66//66
f 38//67 8//67 25//67
f 36//68 25//68 8//68
f 49//69 66//69 8//69
f 47//70 65//70 57//70
f 63//71 54//71 53//71
f 43//72 42//72 55//72
f 42//73 54//73 69//73
f 54//74 63//74 69//74
f 41//75 26//75 28//75
f 17//76 16//76 15//76
f 16//77 1//77 15//77
f 12//78 36//78 8//78
f 62//79 53//79 61//79
f 39//80 17//80 15//80
f 45//81 64//81 46//81
f 58//82 50//82 48//82
f 58//83 48//83 66//83
f 13//84 23//84 46//84
f 46//85 70//85 35//85
f 70//86 65//86 47//86
f 47//87 35//87 70//87
f 50//88 58//88 59//88
f 73//89 59//89 58//89
f 69//90 63//90 62//90
f 18//91 16//91 17//91
f 17//92 27//92 18//92
f 30//93 53//93 54//93
f 42//94 43//94 32//94
f 43//95 44//95 31//95
f 33//96 45//96 34//96
f 15//97 1//97 6//97
f 1//98 3//98 4//98
f 4//99 6//99 1//99
f 32//100 31//100 20//100
f 20//101 29//101 32//101
f 32//102 29//102 42//102
f 29//103 30//103 54//103
f 54//104 42//104 29//104
f 34//105 45//105 46//105
f 46//106 23//106 34//106
f 59//107 67//107 40//107
f 67//108 60//108 40//108
f 16//109 2//109 1//109
f 2//110 7//110 1//110
f 71//111 73//111 58//111
f 12//112 8//112 4//112
f 14//113 24//113 6//113
f 24//114 37//114 15//114
f 4//115 5//115 12//115
f 15//116 6//116 24//116
f 14//117 4//117 8//117
f 39//118 15//118 37//118
f 34//119 23//119 21//119
f 23//120 22//120 21//120
f 21//121 33//121 34//121
f 25//122 12//122 35//122
f 72//123 66//123 73//123
f 66//124 71//124 73//124
f 66//125 55//125 49//125
f 49//126 65//126 57//126
f 55//127 64//127 70//127
f 65//128 49//128 70//128
f 49//129 55//129 70//129
f 55//130 66//130 69//130
f 69//131 68//131 72//131
f 64//132 55//132 56//132
f 1//133 7//133 3//133
f 45//134 44//134 56//134
f 35//135 47//135 25//135
f 47//136 57//136 38//136
f 21//137 7//137 10//137
f 41//138 28//138 51//138
f 28//139 27//139 40//139
f 53//140 30//140 52//140
f 22//141 23//141 11//141
f 12//142 5//142 13//142
f 9//143 7//143 2//143
f 16//144 19//144 2//144
f 19//145 9//145 2//145
f 19//146 30//146 9//146
f 30//147 29//147 9//147
f 6//148 16//148 1//148
f 6//149 15//149 16//149
f 26//150 19//150 16//150
f 26//151 52//151 19//151
f 54//152 42//152 30//152
f 42//153 29//153 30//153
f 33//154 21//154 20//154
f 21//155 10//155 20//155
f 14//156 15//156 6//156
f 14//157 24//157 15//157
f 41//158 53//158 52//158
f 41//159 61//159 53//159
f 45//160 23//160 34//160
f 45//161 46//161 23//161
f 46//162 70//162 13//162
f 70//163 65//163 13//163
f 65//164 35//164 13//164
f 38//165 24//165 8//165
f 38//166 66//166 24//166
f 51//167 27//167 40//167
f 51//168 28//168 27//168
f 72//169 69//169 73//169
f 73//170 69//170 57//170
f 57//171 69//171 55//171
f 57//172 55//172 56//172
f 57//173 56//173 64//173
f 64//174 70//174 57//174
f 57//175 70//175 65//175
f 47//176 35//176 65//176
f 49//177 66//177 38//177
f 49//178 66//178 71//178
f 58//179 73//179 50//179
f 73//180 59//180 50//180
f 72//181 60//181 67//181
f 72//182 68//182 60//182
f 71//183 73//183 57//183
f 71//184 57//184 49//184
