# Blender 4.0.0
# www.blender.org
o decimated_mesh
v -0.000077 0.132802 0.007846
v -0.000023 0.132813 0.006723
v -0.004368 0.132900 0.006405
v -0.001337 0.108063 0.007709
v -0.000023 0.108063 0.007786
v -0.006486 0.133040 0.000011
v -0.007575 0.133087 0.000026
v -0.006845 0.132796 0.003941
v -0.000023 0.108063 0.006425
v -0.007670 0.132018 0.001376
v -0.006262 0.108063 0.000012
v -0.007054 0.108063 0.003465
v -0.007855 0.108063 0.000048
v -0.005017 0.108063 0.006083
vn -0.9523 0.0022 0.3052
vn 1.0000 0.0022 -0.0000
vn -0.0137 -0.0002 -0.9999
vn -0.7052 0.0093 0.7089
vn -0.1399 0.9852 0.0993
vn 0.7205 0.0083 -0.6934
vn -0.9233 0.3299 0.1965
vn -0.0585 -0.0026 0.9983
vn -0.3181 0.0109 0.9480
vn -0.9736 -0.0051 0.2282
vn 0.0432 0.9990 0.0076
vn 0.0193 0.9998 0.0107
vn 0.0189 0.9997 0.0157
vn 0.9988 -0.0006 0.0480
vn -0.0223 -0.0006 -0.9998
vn 0.7168 0.0064 -0.6973
vn -0.0000 1.0000 -0.0000
vn -0.0000 -1.0000 -0.0000
vn -0.7892 -0.0052 0.6141
vn -0.9981 0.0111 -0.0612
vn -0.4041 -0.0013 0.9147
vn 0.0265 0.9996 0.0110
vn 0.0156 0.9996 0.0215
vn 0.9988 0.0021 0.0481
vn 0.0430 0.9990 -0.0076
vn 1.0000 -0.0000 -0.0000
vn 0.0001 1.0000 -0.0001
s 0
f 10//1 12//1 8//1
f 1//2 5//2 9//2
f 6//3 11//3 7//3
f 14//4 3//4 8//4
f 7//5 8//5 3//5
f 9//6 6//6 2//6
f 10//7 8//7 7//7
f 5//8 1//8 4//8
f 4//9 1//9 3//9
f 10//10 13//10 12//10
f 7//11 3//11 6//11
f 3//12 1//12 2//12
f 6//13 3//13 2//13
f 9//14 2//14 1//14
f 11//15 13//15 7//15
f 9//16 11//16 6//16
f 14//17 11//17 12//17
f 12//17 11//17 13//17
f 11//17 14//17 9//17
f 9//18 5//18 4//18
f 14//17 4//17 9//17
f 12//19 14//19 8//19
f 10//20 7//20 13//20
f 3//21 14//21 4//21
f 2//22 7//22 1//22
f 7//23 3//23 1//23
f 5//24 2//24 1//24
f 6//25 7//25 2//25
f 5//26 9//26 2//26
f 11//17 4//17 9//17
f 14//27 4//27 12//27
f 12//17 4//17 13//17
f 13//17 4//17 11//17
