# Blender 4.0.0
# www.blender.org
o decimated_mesh
v 0.007314 0.133113 -0.000017
v 0.006417 0.133032 0.000001
v 0.007779 0.131829 -0.000017
v 0.007039 0.132790 -0.003387
v 0.005645 0.132875 -0.005314
v 0.004055 0.132915 -0.006552
v -0.000021 0.132788 -0.006729
v 0.000937 0.132756 -0.007767
v -0.000022 0.132820 -0.007750
v 0.007782 0.108051 -0.000056
v -0.000022 0.108052 -0.006427
v 0.006220 0.108052 0.000001
v 0.007089 0.108052 -0.003362
v 0.004986 0.108052 -0.006096
v -0.000022 0.108052 -0.007794
v 0.001056 0.108052 -0.007753
vn 0.0200 0.0076 0.9998
vn 0.2114 0.9712 -0.1102
vn 0.9346 0.3388 -0.1088
vn 0.3631 0.0012 -0.9317
vn -0.7174 0.0057 0.6966
vn 0.7927 -0.0018 -0.6097
vn 0.0593 0.9590 -0.2773
vn -0.0324 0.9990 0.0313
vn 0.9787 0.0018 -0.2051
vn -0.0000 1.0000 -0.0000
vn 0.0793 0.9944 -0.0696
vn 0.0132 -0.0001 0.9999
vn 0.0366 -0.0017 0.9993
vn 0.3885 -0.0023 -0.9215
vn -0.7227 0.0084 0.6911
vn 0.8103 0.0010 -0.5861
vn -1.0000 -0.0000 0.0010
vn -1.0000 -0.0000 -0.0000
vn 0.0375 -0.0004 -0.9993
vn -0.0174 0.0018 -0.9998
vn -0.0308 0.9995 -0.0067
vn -0.0896 0.9959 0.0146
vn 0.6144 0.0086 -0.7889
vn 0.9767 0.0004 -0.2145
vn 0.0001 1.0000 -0.0000
vn -0.0000 1.0000 0.0001
vn 0.9787 0.0004 -0.2051
vn 0.0001 1.0000 -0.0001
vn -1.0000 0.0001 0.0010
vn -0.0727 0.9969 0.0313
vn -0.0168 0.9996 -0.0218
vn 0.9768 0.0018 -0.2141
vn -0.0888 0.9948 0.0490
s 0
f 3//1 1//1 2//1
f 1//2 4//2 5//2
f 1//3 3//3 4//3
f 6//4 16//4 8//4
f 2//5 11//5 12//5
f 5//6 13//6 14//6
f 6//7 8//7 9//7
f 6//8 9//8 7//8
f 4//9 10//9 13//9
f 12//10 14//10 11//10
f 6//11 1//11 5//11
f 2//12 12//12 3//12
f 12//13 10//13 3//13
f 6//14 14//14 16//14
f 2//15 7//15 11//15
f 5//16 4//16 13//16
f 9//17 15//17 7//17
f 15//18 11//18 7//18
f 16//19 15//19 8//19
f 15//20 9//20 8//20
f 7//21 2//21 6//21
f 6//22 2//22 1//22
f 6//23 5//23 14//23
f 4//24 3//24 10//24
f 11//10 16//10 15//10
f 16//10 11//10 14//10
f 14//10 12//10 13//10
f 13//25 12//25 10//25
f 16//10 15//10 10//10
f 10//10 15//10 11//10
f 11//18 9//18 15//18
f 14//26 16//26 10//26
f 14//10 10//10 13//10
f 13//27 3//27 10//27
f 12//28 10//28 11//28
f 7//29 9//29 11//29
f 7//30 1//30 9//30
f 1//31 6//31 9//31
f 4//32 3//32 13//32
f 1//33 7//33 2//33
