# Blender 4.0.0
# www.blender.org
o decimated_mesh
v 0.000064 0.107973 0.008013
v -0.000022 0.108050 0.006425
v 0.006219 0.108050 0.000002
v 0.000018 0.089356 0.002872
v 0.004077 0.106322 0.006587
v 0.004954 0.108047 0.006142
v 0.007748 0.108050 0.000040
v -0.000023 0.099074 0.001113
v -0.000022 0.089356 0.001076
v 0.001671 0.089356 0.002380
v 0.007757 0.106374 0.000049
v 0.000831 0.098059 0.000006
v 0.000751 0.089356 0.000002
v 0.005664 0.106448 0.005336
v 0.007108 0.108050 0.003337
v 0.002774 0.089356 0.000002
v 0.006998 0.106284 0.003456
v 0.002696 0.089356 0.000982
vn -0.0045 -0.0014 1.0000
vn 0.9569 -0.2804 0.0763
vn 0.8150 -0.0119 0.5793
vn -0.0000 1.0000 0.0001
vn -0.7744 0.2791 -0.5678
vn 0.7911 -0.0023 0.6117
vn 0.2266 -0.2598 0.9387
vn 0.9416 -0.2689 0.2027
vn 0.9817 0.0063 0.1905
vn 0.3559 0.0597 0.9326
vn -0.6630 0.3813 -0.6443
vn 0.6094 -0.2712 0.7450
vn 0.0033 0.9988 0.0482
vn -0.0011 1.0000 0.0003
vn -0.0002 1.0000 -0.0000
vn 0.0006 1.0000 0.0006
vn 0.9981 0.0312 -0.0528
vn 0.9997 0.0002 -0.0224
vn 0.9999 0.0016 -0.0147
vn -0.0000 -0.0004 1.0000
vn -0.0190 0.0106 0.9998
vn -0.0247 0.0053 0.9997
vn 0.7924 0.0448 0.6084
vn -0.0000 -1.0000 -0.0000
vn -0.0000 1.0000 -0.0000
vn 0.0002 -1.0000 -0.0003
vn -0.7714 0.2795 -0.5716
vn 0.8117 -0.0077 0.5840
vn 0.2748 -0.2680 0.9234
vn 0.9753 -0.0463 0.2160
vn -0.5884 0.3171 -0.7438
vn 0.6209 -0.1156 0.7753
vn 0.9985 0.0124 -0.0537
vn 0.0007 1.0000 0.0017
vn 1.0000 0.0001 -0.0003
vn 0.9997 0.0064 -0.0224
vn -0.7716 0.2791 -0.5717
vn -0.7742 0.2797 -0.5677
vn -0.0247 0.0046 0.9997
vn -0.0000 -0.0000 1.0000
vn 0.0015 -0.0004 1.0000
vn -0.7887 0.0075 -0.6147
vn -0.8117 0.0022 -0.5841
vn -0.0274 0.0053 0.9996
s 0
f 11//1 12//1 16//1
f 16//2 11//2 18//2
f 15//3 14//3 17//3
f 13//4 18//4 16//4
f 18//5 10//5 14//5
f 12//6 8//6 9//6
f 4//7 5//7 1//7
f 18//8 11//8 17//8
f 15//9 11//9 7//9
f 1//10 5//10 6//10
f 3//11 8//11 2//11
f 10//12 14//12 5//12
f 1//13 6//13 2//13
f 6//14 15//14 3//14
f 15//15 7//15 3//15
f 3//16 2//16 6//16
f 2//17 1//17 8//17
f 8//18 4//18 9//18
f 4//19 8//19 1//19
f 16//20 12//20 13//20
f 12//21 11//21 3//21
f 3//22 11//22 7//22
f 15//23 6//23 14//23
f 18//24 10//24 9//24
f 13//25 9//25 18//25
f 10//26 4//26 9//26
f 18//27 14//27 17//27
f 12//28 9//28 13//28
f 4//29 10//29 5//29
f 15//30 17//30 11//30
f 3//31 12//31 8//31
f 6//32 5//32 14//32
f 2//33 1//33 4//33
f 15//34 2//34 6//34
f 15//25 3//25 2//25
f 8//35 2//35 9//35
f 9//36 2//36 4//36
f 9//25 16//25 13//25
f 9//4 18//4 16//4
f 10//37 14//37 17//37
f 18//38 10//38 17//38
f 7//39 3//39 16//39
f 16//40 3//40 13//40
f 13//41 3//41 12//41
f 12//42 13//42 8//42
f 13//43 9//43 8//43
f 16//44 11//44 7//44
