# Blender 4.0.0
# www.blender.org
o decimated_mesh
v -0.006260 0.107983 0.000012
v -0.000024 0.107983 -0.006424
v -0.007954 0.107944 -0.000015
v -0.000021 0.099656 -0.001214
v -0.000096 0.107982 -0.007866
v -0.000950 0.098512 0.000010
v -0.000050 0.106127 -0.007805
v -0.007414 0.106177 -0.002191
v -0.002795 0.089356 -0.000741
v -0.002888 0.089356 0.000012
v -0.000024 0.089356 -0.002646
v -0.002181 0.105558 -0.007160
v -0.001425 0.089354 -0.002470
v -0.004012 0.106341 -0.006644
v -0.007128 0.107955 -0.003367
v -0.000900 0.089356 0.000012
v -0.000024 0.089356 -0.001011
v -0.005944 0.106226 -0.004980
v -0.005654 0.107975 -0.005437
v -0.004009 0.107983 -0.006683
vn -0.9999 0.0064 0.0106
vn 0.6584 0.3994 0.6380
vn 0.0001 1.0000 0.0001
vn 0.7911 0.0119 0.6116
vn -0.2894 -0.0224 -0.9569
vn -0.2083 -0.2809 -0.9369
vn -0.9550 -0.2724 -0.1176
vn -0.8492 -0.2722 -0.4525
vn 0.5812 0.3256 0.7458
vn -0.6038 -0.0180 -0.7969
vn -0.3679 -0.2744 -0.8885
vn -0.6180 -0.2751 -0.7365
vn -0.2825 -0.0282 -0.9589
vn -0.6469 -0.0907 -0.7572
vn 0.0018 -1.0000 -0.0000
vn -0.0001 1.0000 -0.0001
vn -0.0002 1.0000 -0.0015
vn -0.0000 1.0000 -0.0003
vn 1.0000 -0.0002 -0.0000
vn -1.0000 -0.0004 0.0040
vn 0.9985 0.0232 -0.0504
vn -0.0000 -0.0003 -1.0000
vn 0.0159 0.0092 -0.9998
vn 0.0024 -0.0008 -1.0000
vn 0.0001 1.0000 -0.0004
vn -0.0067 1.0000 -0.0022
vn -0.0186 0.9998 -0.0035
vn -0.0227 0.9997 -0.0024
vn -0.8142 -0.0167 -0.5803
vn 0.7594 0.0043 0.6506
vn -0.2829 -0.0390 -0.9584
vn -0.9645 -0.2629 -0.0256
vn -0.8711 -0.1657 -0.4623
vn -0.1187 -0.2921 -0.9490
vn -0.9710 -0.0020 -0.2391
vn -0.7503 -0.2894 -0.5944
vn 0.0161 0.0029 -0.9999
vn 0.0015 1.0000 -0.0001
vn -0.0000 1.0000 -0.0010
vn -0.0000 -0.0000 -1.0000
vn -0.0010 -0.0003 -1.0000
vn -0.0009 1.0000 -0.0008
vn -1.0000 0.0001 0.0006
vn -0.9999 0.0031 0.0151
vn -0.2848 -0.0342 -0.9580
vn -0.2797 -0.0389 -0.9593
s 0
f 2//1 7//1 4//1
f 1//2 4//2 2//2
f 1//3 2//3 20//3
f 6//4 17//4 4//4
f 5//5 14//5 20//5
f 7//6 13//6 12//6
f 10//7 8//7 9//7
f 18//8 9//8 8//8
f 1//9 6//9 4//9
f 19//10 20//10 14//10
f 12//11 13//11 14//11
f 13//12 18//12 14//12
f 7//13 12//13 14//13
f 18//14 19//14 14//14
f 11//15 17//15 13//15
f 17//16 9//16 16//16
f 13//17 9//17 17//17
f 16//18 9//18 10//18
f 4//19 17//19 11//19
f 11//20 4//20 7//20
f 7//21 5//21 2//21
f 10//22 6//22 16//22
f 6//23 3//23 1//23
f 3//24 6//24 10//24
f 5//25 20//25 2//25
f 20//26 19//26 1//26
f 19//27 15//27 1//27
f 15//28 3//28 1//28
f 15//29 19//29 18//29
f 6//30 16//30 17//30
f 5//31 7//31 14//31
f 10//32 3//32 8//32
f 8//33 15//33 18//33
f 11//34 13//34 7//34
f 15//35 8//35 3//35
f 13//36 9//36 18//36
f 10//37 3//37 1//37
f 9//38 10//38 13//38
f 13//39 10//39 16//39
f 16//40 10//40 1//40
f 16//41 1//41 6//41
f 17//42 13//42 16//42
f 4//43 2//43 11//43
f 11//44 2//44 7//44
f 5//45 12//45 14//45
f 5//46 7//46 12//46
