mtllib material.mtl
usemtl material_0
v -0.00049988 0.17000000 0.00050003
v -0.00049988 0.17000000 -0.00050011
v 0.00049988 0.17000000 -0.00050011
v 0.00049988 0.17000000 0.00050003
v -0.04552307 0.00693901 0.04552200
v -0.04412628 0.00287176 0.04412582
v -0.04495025 0.00198474 0.03992256
v -0.04759094 0.00694574 0.04053085
v -0.05181732 0.05185637 0.05298973
v -0.04759094 0.00694574 -0.04052971
v -0.04495025 0.00198474 -0.03992149
v -0.05398010 0.05186141 0.04764465
v -0.05699280 0.09677372 0.05828873
v -0.04542755 0.00713699 -0.04556015
v -0.04405151 0.00295803 -0.04414497
v -0.05398010 0.05186141 -0.04775932
v -0.05174316 0.05200484 -0.05313530
v -0.05919769 0.09677707 0.05283974
v -0.06185211 0.14169110 0.06326370
v -0.05919769 0.09677707 -0.05295433
v -0.05694336 0.09687270 -0.05842415
v -0.06408569 0.14169280 0.05774338
v -0.06423950 0.18660840 0.06423988
v -0.06408569 0.14169280 -0.05645897
v -0.06182709 0.14174060 -0.06186119
v -0.06641815 0.18660840 0.05898033
v -0.06423950 0.19158140 0.06423988
v -0.06641815 0.18660840 -0.05897949
v -0.06423950 0.18660840 -0.06423904
v -0.06641815 0.19158140 0.05898033
v -0.06221191 0.19461030 0.06221237
v -0.06432190 0.19461030 0.05711876
v -0.06641815 0.19158140 -0.05897949
v -0.06423950 0.19158140 -0.06423904
v -0.06432190 0.19461030 -0.05711807
v -0.06221191 0.19461030 -0.06221153
v -0.04495025 0.00198474 0.03992256
v -0.04412628 0.00287176 0.04412582
v -0.03992218 0.00198474 0.04495071
v -0.03969055 0.00000000 0.03969116
v -0.04495025 0.00198474 -0.03992149
v 0.03969055 0.00000000 0.03969116
v 0.03974670 0.00209929 0.04496910
v -0.03969055 0.00000000 -0.03969024
v 0.04495025 0.00198474 0.03992256
v 0.04405151 0.00295803 0.04414620
v 0.03969055 0.00000000 -0.03969024
v 0.04495025 0.00198474 -0.03992149
v 0.03992218 0.00198474 -0.04494964
v 0.04412628 0.00287176 -0.04412476
v -0.03974670 0.00209929 -0.04496811
v -0.04405151 0.00295803 -0.04414497
v -0.03992218 0.00198474 0.04495071
v -0.04412628 0.00287176 0.04412582
v -0.04552307 0.00693901 0.04552200
v -0.04053039 0.00694574 0.04759132
v 0.03974670 0.00209929 0.04496910
v -0.04659485 0.05186141 0.05520523
v -0.05181732 0.05185637 0.05298973
v -0.05166931 0.09677707 0.06054680
v -0.05699280 0.09677372 0.05828873
v -0.05645935 0.14169280 0.06555084
v -0.06185211 0.14169110 0.06326370
v -0.05897979 0.18660840 0.06641845
v -0.06423950 0.18660840 0.06423988
v -0.05897979 0.19158140 0.06641845
v -0.06423950 0.19158140 0.06423988
v 0.05897979 0.19158140 0.06641845
v 0.05897979 0.18660840 0.06641845
v 0.06423950 0.19158140 0.06423988
v 0.06423950 0.18660840 0.06423988
v 0.05637360 0.14178570 0.06409851
v 0.06182709 0.14174060 0.06186210
v 0.05149811 0.09696286 0.06057236
v 0.05694336 0.09687270 0.05830948
v 0.04633972 0.05214009 0.05524330
v 0.05174316 0.05200484 0.05302063
v 0.04020050 0.00731732 0.04763939
v 0.04542755 0.00713699 0.04556099
v 0.04405151 0.00295803 0.04414620
v 0.04495025 0.00198474 0.03992256
v 0.04405151 0.00295803 0.04414620
v 0.04542755 0.00713699 0.04556099
v 0.04759094 0.00694574 0.04053085
v 0.04495025 0.00198474 -0.03992149
v 0.05398010 0.05186141 0.04764465
v 0.05174316 0.05200484 0.05302063
v 0.05919769 0.09677707 0.05283974
v 0.05694336 0.09687270 0.05830948
v 0.06408569 0.14169280 0.05645981
v 0.06182709 0.14174060 0.06186210
v 0.06641815 0.18660840 0.05898033
v 0.06423950 0.18660840 0.06423988
v 0.06641815 0.19158140 0.05898033
v 0.06423950 0.19158140 0.06423988
v 0.06432190 0.19461030 0.05711876
v 0.06221191 0.19461030 0.06221237
v 0.06432190 0.19461030 -0.05711807
v 0.06641815 0.19158140 -0.05897949
v 0.06221191 0.19461030 -0.06221153
v 0.06423950 0.19158140 -0.06423904
v 0.06641815 0.18660840 -0.05897949
v 0.06423950 0.18660840 -0.06423904
v 0.06408569 0.14169280 -0.05645897
v 0.06185211 0.14169110 -0.06185112
v 0.05919769 0.09677707 -0.05295433
v 0.05699280 0.09677372 -0.05840340
v 0.05398010 0.05186141 -0.04775932
v 0.05181732 0.05185637 -0.05310425
v 0.04759094 0.00694574 -0.04052971
v 0.04552307 0.00693901 -0.04552116
v 0.04412628 0.00287176 -0.04412476
v -0.04542755 0.00713699 -0.04556015
v -0.04405151 0.00295803 -0.04414497
v -0.03974670 0.00209929 -0.04496811
v -0.04020050 0.00731732 -0.04763840
v -0.05174316 0.05200484 -0.05313530
v 0.04053039 0.00694574 -0.04759026
v 0.03992218 0.00198474 -0.04494964
v -0.04633972 0.05214009 -0.05535782
v -0.05694336 0.09687270 -0.05842415
v 0.04552307 0.00693901 -0.04552116
v 0.04412628 0.00287176 -0.04412476
v 0.04659485 0.05186141 -0.05531967
v 0.05181732 0.05185637 -0.05310425
v -0.05149811 0.09696286 -0.06068695
v -0.06182709 0.14174060 -0.06186119
v 0.05166931 0.09677707 -0.06066132
v 0.05699280 0.09677372 -0.05840340
v -0.05637360 0.14178570 -0.06409767
v -0.06423950 0.18660840 -0.06423904
v 0.05645935 0.14169280 -0.06408516
v 0.06185211 0.14169110 -0.06185112
v -0.05897979 0.18660840 -0.06641754
v -0.06423950 0.19158140 -0.06423904
v -0.05897979 0.19158140 -0.06641754
v 0.05897979 0.18660840 -0.06641754
v 0.06423950 0.18660840 -0.06423904
v 0.05897979 0.19158140 -0.06641754
v 0.06423950 0.19158140 -0.06423904
v 0.05897979 0.19158140 0.06641845
v 0.06221191 0.19461030 0.06221237
v 0.06423950 0.19158140 0.06423988
v 0.05711822 0.19461030 0.06432213
v -0.05897979 0.19158140 0.06641845
v -0.05711822 0.19461030 0.06432213
v -0.06423950 0.19158140 0.06423988
v -0.06221191 0.19461030 0.06221237
v 0.05809021 0.19461030 0.05809067
v 0.06006042 0.19461030 0.05333443
v 0.06432190 0.19461030 0.05711876
v 0.06006042 0.19461030 -0.05333397
v 0.06432190 0.19461030 -0.05711807
v 0.05809021 0.19461030 -0.05808983
v 0.06221191 0.19461030 -0.06221153
v 0.05333404 0.19461030 0.06006058
v 0.05597321 0.19158140 0.05597366
v 0.05139038 0.19158140 0.05787170
v -0.05333404 0.19461030 0.06006058
v -0.05139038 0.19158140 0.05787170
v -0.05809021 0.19461030 0.05809067
v -0.05597321 0.19158140 0.05597366
v -0.06432190 0.19461030 0.05711876
v -0.06006042 0.19461030 0.05333443
v -0.06432190 0.19461030 -0.05711807
v -0.06006042 0.19461030 -0.05333397
v -0.06221191 0.19461030 -0.06221153
v -0.05809021 0.19461030 -0.05808983
v -0.05711822 0.19461030 -0.06432129
v -0.05897979 0.19158140 -0.06641754
v -0.06423950 0.19158140 -0.06423904
v 0.05897979 0.19158140 -0.06641754
v -0.05333404 0.19461030 -0.06006012
v -0.05597321 0.19158140 -0.05597267
v -0.05139038 0.19158140 -0.05787109
v 0.05711822 0.19461030 -0.06432129
v 0.06423950 0.19158140 -0.06423904
v 0.05333404 0.19461030 -0.06006012
v 0.05139038 0.19158140 -0.05787109
v 0.05597321 0.19158140 -0.05597267
v -0.06006042 0.19461030 0.05333443
v -0.05597321 0.19158140 0.05597366
v -0.05809021 0.19461030 0.05809067
v -0.05787140 0.19158140 0.05139069
v -0.05597321 0.17248420 0.05597366
v -0.06006042 0.19461030 -0.05333397
v -0.05787140 0.17248420 0.05139069
v -0.05787140 0.19158140 -0.05139015
v -0.05809021 0.19461030 -0.05808983
v -0.05787140 0.17248420 -0.05139015
v -0.05597321 0.19158140 -0.05597267
v -0.05597321 0.17248420 -0.05597267
v 0.06006042 0.19461030 -0.05333397
v 0.05597321 0.19158140 -0.05597267
v 0.05809021 0.19461030 -0.05808983
v 0.05787140 0.19158140 -0.05139015
v 0.05597321 0.17248420 -0.05597267
v 0.06006042 0.19461030 0.05333443
v 0.05787140 0.17248420 -0.05139015
v 0.05787140 0.19158140 0.05139069
v 0.05809021 0.19461030 0.05809067
v 0.05787140 0.17248420 0.05139069
v 0.05597321 0.19158140 0.05597366
v 0.05597321 0.17248420 0.05597366
v -0.05597321 0.19158140 0.05597366
v -0.05597321 0.17248420 0.05597366
v -0.05139038 0.17248420 0.05787170
v -0.05139038 0.19158140 0.05787170
v 0.05139038 0.17248420 0.05787170
v 0.05139038 0.19158140 0.05787170
v 0.05597321 0.17248420 0.05597366
v 0.05597321 0.19158140 0.05597366
v -0.05139038 0.19158140 -0.05787109
v -0.05597321 0.17248420 -0.05597267
v -0.05597321 0.19158140 -0.05597267
v -0.05139038 0.17248420 -0.05787109
v 0.05139038 0.19158140 -0.05787109
v 0.05139038 0.17248420 -0.05787109
v 0.05597321 0.19158140 -0.05597267
v 0.05597321 0.17248420 -0.05597267
vn 0.00000000 1.00000000 0.00000000
vn 0.00000000 1.00000000 0.00000000
vn 0.00000000 1.00000000 0.00000000
vn 0.00000000 1.00000000 0.00000000
vn -0.69431570 -0.23220280 0.68118110
vn -0.53326350 -0.65669440 0.53327520
vn -0.67261140 -0.73984560 0.01491422
vn -0.98471020 -0.17314300 0.01916570
vn -0.69969980 -0.18579490 0.68985540
vn -0.98466990 -0.17330150 -0.01978964
vn -0.67251600 -0.73990250 -0.01632631
vn -0.99137410 -0.12925520 0.02169134
vn -0.70640000 -0.15759600 0.69004540
vn -0.68177450 -0.23391590 -0.69315710
vn -0.52010480 -0.64483210 -0.56007390
vn -0.99132820 -0.12944340 -0.02264688
vn -0.68612160 -0.18732750 -0.70295490
vn -0.99333400 -0.11356950 0.01973580
vn -0.70742320 -0.10234990 0.69934030
vn -0.99333480 -0.11339910 -0.02065250
vn -0.69524690 -0.14594980 -0.70379720
vn -0.99664240 -0.07955507 0.01936885
vn -0.71353750 -0.04787594 0.69897930
vn -0.99665090 -0.07954664 -0.01895638
vn -0.70344810 -0.10234320 -0.70333960
vn -0.99872580 -0.04698230 0.01842218
vn -0.67449590 0.30015310 0.67450980
vn -0.99869150 -0.04744160 -0.01909370
vn -0.70393960 -0.06778973 -0.70701750
vn -0.97764730 0.20926580 0.02033810
vn -0.30156800 0.90449220 0.30158020
vn -0.60613850 0.79532680 0.00718282
vn -0.97764660 0.20926890 -0.02033800
vn -0.67449090 0.30014850 -0.67451670
vn -0.60613050 0.79533270 -0.00718322
vn -0.30156560 0.90449020 -0.30158840
vn -0.67261140 -0.73984560 0.01491422
vn -0.53326350 -0.65669440 0.53327520
vn -0.01389552 -0.73272070 0.68038760
vn -0.02340367 -0.99943620 0.02407136
vn -0.67251600 -0.73990250 -0.01632631
vn 0.02352283 -0.99944110 0.02375162
vn 0.01569126 -0.73589580 0.67691300
vn -0.02352289 -0.99944110 -0.02375178
vn 0.67252160 -0.73989730 0.01632656
vn 0.52008830 -0.64482870 0.56009290
vn 0.02340302 -0.99943620 -0.02407138
vn 0.67261240 -0.73984460 -0.01491439
vn 0.01389642 -0.73271610 -0.68039250
vn 0.53327970 -0.65668310 -0.53327290
vn -0.01569076 -0.73589080 -0.67691830
vn -0.52010480 -0.64483210 -0.56007390
vn -0.01389552 -0.73272070 0.68038760
vn -0.53326350 -0.65669440 0.53327520
vn -0.69431570 -0.23220280 0.68118110
vn -0.02000807 -0.19734400 0.98013010
vn 0.01569126 -0.73589580 0.67691300
vn -0.02220015 -0.14227550 0.98957810
vn -0.69969980 -0.18579490 0.68985540
vn -0.01715891 -0.10771710 0.99403350
vn -0.70640000 -0.15759600 0.69004540
vn -0.01337258 -0.06443803 0.99783210
vn -0.70742320 -0.10234990 0.69934030
vn -0.01408388 -0.03211855 0.99938490
vn -0.71353750 -0.04787594 0.69897930
vn -0.02033747 0.20925980 0.97764860
vn -0.67449590 0.30015310 0.67450980
vn 0.02033774 0.20926070 0.97764830
vn 0.02450570 -0.03344844 0.99913990
vn 0.67449490 0.30015460 0.67451010
vn 0.70394300 -0.06779084 0.70701400
vn 0.02559683 -0.06434557 0.99759930
vn 0.70322160 -0.10321220 0.70343910
vn 0.02393283 -0.10689760 0.99398190
vn 0.69530430 -0.14686980 0.70354900
vn 0.02206593 -0.14215710 0.98959800
vn 0.68640360 -0.18649480 0.70290100
vn 0.02033260 -0.19743950 0.98010420
vn 0.68181100 -0.23235550 0.69364600
vn 0.52008830 -0.64482870 0.56009290
vn 0.67252160 -0.73989730 0.01632656
vn 0.52008830 -0.64482870 0.56009290
vn 0.68181100 -0.23235550 0.69364600
vn 0.98467000 -0.17329510 0.01984225
vn 0.67261240 -0.73984460 -0.01491439
vn 0.99133190 -0.12941990 0.02261558
vn 0.68640360 -0.18649480 0.70290100
vn 0.99332970 -0.11343780 0.02068464
vn 0.69530430 -0.14686980 0.70354900
vn 0.99664780 -0.07955359 0.01908754
vn 0.70322160 -0.10321220 0.70343910
vn 0.99869100 -0.04741481 0.01918430
vn 0.70394300 -0.06779084 0.70701400
vn 0.97764940 0.20925590 0.02033822
vn 0.67449490 0.30015460 0.67451010
vn 0.60615560 0.79531370 0.00718305
vn 0.30157240 0.90448880 0.30158580
vn 0.60614600 0.79532090 -0.00718324
vn 0.97764860 0.20925960 -0.02033789
vn 0.30155850 0.90449580 -0.30157880
vn 0.67449010 0.30015710 -0.67451380
vn 0.99869380 -0.04739855 -0.01908605
vn 0.70548100 -0.06748755 -0.70550840
vn 0.99665640 -0.07950981 -0.01881720
vn 0.70733200 -0.10204080 -0.69947790
vn 0.99335130 -0.11334260 -0.02016981
vn 0.70354440 -0.14557380 -0.69558140
vn 0.99137020 -0.12928010 -0.02172140
vn 0.69943550 -0.18660120 -0.68990580
vn 0.98471140 -0.17314150 -0.01911523
vn 0.69430260 -0.23373340 -0.68067070
vn 0.53327970 -0.65668310 -0.53327290
vn -0.68177450 -0.23391590 -0.69315710
vn -0.52010480 -0.64483210 -0.56007390
vn -0.01569076 -0.73589080 -0.67691830
vn -0.02033535 -0.19966170 -0.97965380
vn -0.68612160 -0.18732750 -0.70295490
vn 0.02000080 -0.19956730 -0.97968000
vn 0.01389642 -0.73271610 -0.68039250
vn -0.02205461 -0.14323900 -0.98944230
vn -0.69524690 -0.14594980 -0.70379720
vn 0.69430260 -0.23373340 -0.68067070
vn 0.53327970 -0.65668310 -0.53327290
vn 0.02218421 -0.14336310 -0.98942150
vn 0.69943550 -0.18660120 -0.68990580
vn -0.02034973 -0.09694950 -0.99508120
vn -0.70344810 -0.10234320 -0.70333960
vn 0.02056453 -0.09700762 -0.99507120
vn 0.70354440 -0.14557380 -0.69558140
vn -0.01937953 -0.06450650 -0.99772910
vn -0.70393960 -0.06778973 -0.70701750
vn 0.01952829 -0.06451784 -0.99772540
vn 0.70733200 -0.10204080 -0.69947790
vn -0.01909311 -0.04733547 -0.99869660
vn -0.67449090 0.30014850 -0.67451670
vn -0.02033713 0.20925240 -0.97765020
vn 0.01913835 -0.04732373 -0.99869630
vn 0.70548100 -0.06748755 -0.70550840
vn 0.02033694 0.20925350 -0.97764990
vn 0.67449010 0.30015710 -0.67451380
vn 0.02033774 0.20926070 0.97764830
vn 0.30157240 0.90448880 0.30158580
vn 0.67449490 0.30015460 0.67451010
vn 0.00718266 0.79532960 0.60613470
vn -0.02033747 0.20925980 0.97764860
vn -0.00718242 0.79532940 0.60613480
vn -0.67449590 0.30015310 0.67450980
vn -0.30156800 0.90449220 0.30158020
vn -0.16919900 0.97094960 -0.16919940
vn -0.25791800 0.96613910 -0.00732034
vn 0.60615560 0.79531370 0.00718305
vn -0.25791610 0.96613960 0.00732068
vn 0.60614600 0.79532090 -0.00718324
vn -0.16920240 0.97094810 0.16920530
vn 0.30155850 0.90449580 -0.30157880
vn -0.00731974 0.96613970 -0.25791550
vn -0.69848610 0.15565410 -0.69849040
vn -0.01652432 0.12464680 -0.99206360
vn 0.00731974 0.96613970 -0.25791550
vn 0.01652432 0.12464680 -0.99206360
vn 0.16919900 0.97094980 -0.16919880
vn 0.69848610 0.15565410 -0.69849040
vn -0.60613850 0.79532680 0.00718282
vn 0.25791650 0.96613940 -0.00732053
vn -0.60613050 0.79533270 -0.00718322
vn 0.25791440 0.96614010 0.00732053
vn -0.30156560 0.90449020 -0.30158840
vn 0.16920030 0.97094790 0.16920820
vn -0.00718266 0.79530680 -0.60616470
vn -0.02033713 0.20925240 -0.97765020
vn -0.67449090 0.30014850 -0.67451670
vn 0.02033694 0.20925350 -0.97764990
vn 0.00732149 0.96613690 0.25792620
vn 0.69848220 0.15565490 0.69849410
vn 0.01652733 0.12465500 0.99206250
vn 0.00718250 0.79530700 -0.60616430
vn 0.67449010 0.30015710 -0.67451380
vn -0.00732140 0.96613690 0.25792610
vn -0.01652731 0.12465490 0.99206250
vn -0.69848340 0.15565730 0.69849240
vn 0.25791650 0.96613940 -0.00732053
vn 0.69848610 0.15565410 -0.69849040
vn 0.16919900 0.97094980 -0.16919880
vn 0.99206320 0.12464910 -0.01652569
vn 0.70710500 0.00000000 -0.70710850
vn 0.25791440 0.96614010 0.00732053
vn 0.99984370 0.00000000 -0.01767724
vn 0.99206310 0.12464990 0.01652572
vn 0.16920030 0.97094790 0.16920820
vn 0.99984370 0.00000000 0.01767731
vn 0.69848220 0.15565490 0.69849410
vn 0.70710060 0.00000000 0.70711280
vn -0.25791610 0.96613960 0.00732068
vn -0.69848340 0.15565730 0.69849240
vn -0.16920240 0.97094810 0.16920530
vn -0.99206100 0.12466660 0.01652568
vn -0.70710060 0.00000000 0.70711280
vn -0.25791800 0.96613910 -0.00732034
vn -0.99984370 0.00000000 0.01767731
vn -0.99206130 0.12466570 -0.01652556
vn -0.16919900 0.97094960 -0.16919940
vn -0.99984370 0.00000000 -0.01767724
vn -0.69848610 0.15565410 -0.69849040
vn -0.70710500 0.00000000 -0.70710850
vn 0.69848610 0.15565410 -0.69849040
vn 0.70710500 0.00000000 -0.70710850
vn 0.01767587 0.00000000 -0.99984370
vn 0.01652432 0.12464680 -0.99206360
vn -0.01767587 0.00000000 -0.99984370
vn -0.01652432 0.12464680 -0.99206360
vn -0.70710500 0.00000000 -0.70710850
vn -0.69848610 0.15565410 -0.69849040
vn 0.01652733 0.12465500 0.99206250
vn 0.70710060 0.00000000 0.70711280
vn 0.69848220 0.15565490 0.69849410
vn 0.01767884 0.00000000 0.99984370
vn -0.01652731 0.12465490 0.99206250
vn -0.01767884 0.00000000 0.99984370
vn -0.69848340 0.15565730 0.69849240
vn -0.70710060 0.00000000 0.70711280
vt -10.00000000 -5.00000000
vt -10.00000000 -4.00000000
vt -9.00000000 -4.00000000
vt -9.00000000 -5.00000000
vt -10.04676000 0.71510880
vt -10.05879000 0.71924040
vt -10.06142000 0.73167910
vt -10.04674000 0.72987810
vt -9.91385600 0.69301440
vt -10.04674000 0.96972600
vt -10.06142000 0.96792440
vt -9.91384100 0.70883070
vt -9.78095100 0.67733470
vt -10.04617000 0.98460980
vt -10.05854000 0.98042330
vt -9.91384100 0.99111810
vt -9.91341600 1.00702200
vt -9.78094200 0.69345820
vt -9.64804600 0.66261440
vt -9.78094000 1.00648700
vt -9.78065900 1.02267200
vt -9.64804200 0.67894880
vt -9.51514200 0.65972660
vt -9.64804200 1.01685900
vt -9.64790100 1.03284300
vt -9.51514200 0.67528950
vt -9.50042800 0.65972690
vt -9.51514200 1.02431400
vt -9.51514200 1.03987700
vt -9.50042800 0.67528880
vt -9.49146700 0.66572520
vt -9.49146700 0.68079700
vt -9.50042800 1.02431400
vt -9.50042800 1.03987600
vt -9.49146700 1.01880800
vt -9.49146700 1.03387800
vt -9.06979300 1.02677200
vt -9.05738200 1.02434000
vt -9.05494500 1.01192700
vt -9.07047700 1.01124300
vt -9.30555900 1.02677200
vt -9.07047700 0.77684210
vt -9.05489100 0.77667740
vt -9.30487500 1.01124200
vt -9.06979300 0.76131230
vt -9.05732200 0.76396610
vt -9.30487700 0.77684240
vt -9.30555900 0.76131250
vt -9.32040700 0.77615820
vt -9.31797100 0.76374420
vt -9.32046100 1.01140700
vt -9.31803100 1.02411900
vt -10.05996000 0.36336520
vt -10.05734000 0.37578330
vt -10.04532000 0.37990860
vt -10.04530000 0.36516020
vt -10.05962000 0.12801670
vt -9.91261800 0.38307610
vt -9.91263300 0.39850470
vt -9.77993500 0.39806670
vt -9.77994300 0.41379220
vt -9.64725000 0.41221590
vt -9.64725400 0.42814540
vt -9.51456500 0.41966130
vt -9.51456500 0.43519990
vt -9.49987600 0.41966180
vt -9.49987600 0.43519950
vt -9.49987600 0.07120170
vt -9.51456500 0.07120116
vt -9.49987600 0.05566481
vt -9.51456500 0.05566427
vt -9.64697600 0.07890017
vt -9.64710800 0.06279099
vt -9.77938500 0.09330298
vt -9.77965100 0.07721834
vt -9.91179400 0.10854030
vt -9.91219400 0.09257901
vt -10.04420000 0.12667630
vt -10.04474000 0.11123550
vt -10.05708000 0.11530130
vt -10.06142000 0.66564610
vt -10.05855000 0.67814220
vt -10.04618000 0.68232990
vt -10.04675000 0.66744520
vt -10.06142000 0.42939340
vt -9.91384300 0.68849510
vt -9.91342000 0.70440140
vt -9.78094200 0.70386620
vt -9.78065900 0.72005220
vt -9.64804100 0.71457800
vt -9.64789900 0.73056390
vt -9.51513800 0.72203590
vt -9.51513800 0.73759880
vt -9.50042300 0.72203640
vt -9.50042300 0.73759930
vt -9.49146200 0.71652780
vt -9.49146200 0.73159950
vt -9.49146000 0.37851000
vt -9.50042300 0.37300270
vt -9.49146200 0.36343990
vt -9.50042200 0.35743980
vt -9.51513800 0.37300220
vt -9.51513800 0.35744030
vt -9.64803900 0.38046090
vt -9.64804500 0.36450560
vt -9.78094200 0.39083080
vt -9.78095100 0.37470660
vt -9.91384300 0.40620330
vt -9.91385900 0.39038630
vt -10.04675000 0.42759330
vt -10.04677000 0.41282500
vt -10.05880000 0.41695640
vt -9.07628400 0.28263940
vt -9.06394200 0.27857410
vt -9.06140500 0.26586030
vt -9.07681800 0.26719870
vt -9.20881600 0.30129380
vt -9.07572000 0.02873816
vt -9.06106600 0.03053354
vt -9.20921400 0.28533150
vt -9.34134600 0.31665300
vt -9.07570100 0.01398973
vt -9.06368500 0.01811619
vt -9.20839000 0.01082321
vt -9.20837600 -0.00460261
vt -9.34161200 0.30057010
vt -9.47387500 0.33107950
vt -9.34106200 -0.00416550
vt -9.34105300 -0.01988931
vt -9.47400900 0.31497040
vt -9.60640500 0.33820480
vt -9.47373400 -0.01831454
vt -9.47372900 -0.03424317
vt -9.60640500 0.32266960
vt -9.62109400 0.33820500
vt -9.62109400 0.32266980
vt -9.60640500 -0.02575897
vt -9.60640500 -0.04129417
vt -9.62109600 -0.02575874
vt -9.62109600 -0.04129395
vt -9.61561500 0.25729310
vt -9.60191200 0.24676310
vt -9.60851700 0.24015620
vt -9.60878600 0.26335770
vt -9.61561500 0.64160670
vt -9.60878600 0.63554100
vt -9.60851800 0.65874250
vt -9.60191200 0.65213570
vt -9.58848300 0.26019170
vt -9.57298800 0.25377140
vt -9.58531600 0.23988860
vt -9.22546000 0.25377120
vt -9.21313100 0.23988890
vt -9.20996600 0.26019090
vt -9.19653700 0.24676230
vt -9.59490000 0.27568680
vt -9.58158500 0.26708770
vt -9.58777000 0.28201880
vt -9.59490000 0.62321140
vt -9.58777000 0.61687940
vt -9.58848300 0.63870880
vt -9.58158600 0.63181060
vt -9.58531600 0.65900950
vt -9.57298800 0.64512750
vt -9.21313100 0.65900980
vt -9.22546000 0.64512730
vt -9.19653700 0.65213580
vt -9.20996600 0.63870910
vt -9.18966300 0.63554150
vt -9.18283400 0.64160670
vt -9.18993100 0.65874200
vt -9.18283400 0.25729320
vt -9.20354700 0.62321190
vt -9.21686300 0.63181020
vt -9.21067800 0.61687960
vt -9.18966300 0.26335700
vt -9.18993200 0.24015660
vt -9.20354700 0.27568740
vt -9.21067800 0.28201920
vt -9.21686400 0.26708830
vt -9.25890400 0.59541350
vt -9.25101500 0.60446760
vt -9.24468600 0.59541310
vt -9.26471300 0.60446700
vt -9.25101500 0.66154960
vt -9.57774700 0.59541400
vt -9.26471300 0.66155000
vt -9.57193700 0.60446720
vt -9.59196300 0.59541400
vt -9.57193700 0.66154930
vt -9.58563400 0.60446740
vt -9.58563400 0.66154940
vt -9.25890500 0.65229490
vt -9.25101800 0.66134920
vt -9.24468900 0.65229490
vt -9.26471400 0.66134830
vt -9.25101800 0.71843290
vt -9.57774400 0.65229530
vt -9.26471600 0.71843320
vt -9.57193300 0.66134850
vt -9.59196000 0.65229570
vt -9.57193300 0.71843220
vt -9.58563200 0.66134900
vt -9.58563100 0.71843270
vt -9.25864000 0.76684150
vt -9.25864000 0.71070270
vt -9.27211200 0.71070280
vt -9.27211200 0.76684170
vt -9.57424700 0.71070260
vt -9.57424700 0.76684140
vt -9.58771900 0.71070270
vt -9.58771900 0.76684150
vt -9.27211100 0.76063870
vt -9.25863900 0.81677650
vt -9.25863900 0.76063840
vt -9.27211100 0.81677670
vt -9.57424800 0.76063850
vt -9.57424900 0.81677650
vt -9.58772000 0.76063870
vt -9.58772000 0.81677570
f 3/3/3 2/2/2 1/1/1
f 4/4/4 3/3/3 1/1/1
f 7/7/7 6/6/6 5/5/5
f 8/8/8 7/7/7 5/5/5
f 5/5/5 9/9/9 8/8/8
f 8/8/8 10/10/10 7/7/7
f 10/10/10 11/11/11 7/7/7
f 9/9/9 12/12/12 8/8/8
f 8/8/8 12/12/12 10/10/10
f 9/9/9 13/13/13 12/12/12
f 10/10/10 14/14/14 11/11/11
f 14/14/14 15/15/15 11/11/11
f 10/10/10 16/16/16 14/14/14
f 12/12/12 16/16/16 10/10/10
f 16/16/16 17/17/17 14/14/14
f 13/13/13 18/18/18 12/12/12
f 12/12/12 18/18/18 16/16/16
f 13/13/13 19/19/19 18/18/18
f 16/16/16 20/20/20 17/17/17
f 18/18/18 20/20/20 16/16/16
f 20/20/20 21/21/21 17/17/17
f 19/19/19 22/22/22 18/18/18
f 18/18/18 22/22/22 20/20/20
f 19/19/19 23/23/23 22/22/22
f 20/20/20 24/24/24 21/21/21
f 22/22/22 24/24/24 20/20/20
f 24/24/24 25/25/25 21/21/21
f 23/23/23 26/26/26 22/22/22
f 22/22/22 26/26/26 24/24/24
f 23/23/23 27/27/27 26/26/26
f 24/24/24 28/28/28 25/25/25
f 26/26/26 28/28/28 24/24/24
f 28/28/28 29/29/29 25/25/25
f 27/27/27 30/30/30 26/26/26
f 26/26/26 30/30/30 28/28/28
f 27/27/27 31/31/31 30/30/30
f 31/31/31 32/32/32 30/30/30
f 28/28/28 33/33/33 29/29/29
f 30/30/30 33/33/33 28/28/28
f 30/30/30 32/32/32 33/33/33
f 33/33/33 34/34/34 29/29/29
f 32/32/32 35/35/35 33/33/33
f 33/33/33 35/35/35 34/34/34
f 35/35/35 36/36/36 34/34/34
f 39/39/39 38/38/38 37/37/37
f 40/40/40 39/39/39 37/37/37
f 37/37/37 41/41/41 40/40/40
f 40/40/40 42/42/42 39/39/39
f 42/42/42 43/43/43 39/39/39
f 41/41/41 44/44/44 40/40/40
f 42/42/42 40/40/40 44/44/44
f 42/42/42 45/45/45 43/43/43
f 45/45/45 46/46/46 43/43/43
f 42/42/42 47/47/47 45/45/45
f 47/47/47 42/42/42 44/44/44
f 47/47/47 48/48/48 45/45/45
f 47/47/47 49/49/49 48/48/48
f 49/49/49 47/47/47 44/44/44
f 49/49/49 50/50/50 48/48/48
f 51/51/51 49/49/49 44/44/44
f 44/44/44 41/41/41 51/51/51
f 41/41/41 52/52/52 51/51/51
f 55/55/55 54/54/54 53/53/53
f 56/56/56 55/55/55 53/53/53
f 53/53/53 57/57/57 56/56/56
f 56/56/56 58/58/58 55/55/55
f 58/58/58 59/59/59 55/55/55
f 58/58/58 60/60/60 59/59/59
f 60/60/60 61/61/61 59/59/59
f 60/60/60 62/62/62 61/61/61
f 62/62/62 63/63/63 61/61/61
f 62/62/62 64/64/64 63/63/63
f 64/64/64 65/65/65 63/63/63
f 64/64/64 66/66/66 65/65/65
f 66/66/66 67/67/67 65/65/65
f 68/68/68 66/66/66 64/64/64
f 69/69/69 68/68/68 64/64/64
f 69/69/69 64/64/64 62/62/62
f 70/70/70 68/68/68 69/69/69
f 71/71/71 70/70/70 69/69/69
f 72/72/72 69/69/69 62/62/62
f 71/71/71 69/69/69 72/72/72
f 72/72/72 62/62/62 60/60/60
f 73/73/73 71/71/71 72/72/72
f 74/74/74 72/72/72 60/60/60
f 73/73/73 72/72/72 74/74/74
f 74/74/74 60/60/60 58/58/58
f 75/75/75 73/73/73 74/74/74
f 76/76/76 74/74/74 58/58/58
f 75/75/75 74/74/74 76/76/76
f 76/76/76 58/58/58 56/56/56
f 77/77/77 75/75/75 76/76/76
f 78/78/78 76/76/76 56/56/56
f 77/77/77 76/76/76 78/78/78
f 57/57/57 78/78/78 56/56/56
f 79/79/79 77/77/77 78/78/78
f 78/78/78 57/57/57 79/79/79
f 57/57/57 80/80/80 79/79/79
f 83/83/83 82/82/82 81/81/81
f 84/84/84 83/83/83 81/81/81
f 81/81/81 85/85/85 84/84/84
f 84/84/84 86/86/86 83/83/83
f 86/86/86 87/87/87 83/83/83
f 86/86/86 88/88/88 87/87/87
f 88/88/88 89/89/89 87/87/87
f 88/88/88 90/90/90 89/89/89
f 90/90/90 91/91/91 89/89/89
f 90/90/90 92/92/92 91/91/91
f 92/92/92 93/93/93 91/91/91
f 92/92/92 94/94/94 93/93/93
f 94/94/94 95/95/95 93/93/93
f 94/94/94 96/96/96 95/95/95
f 96/96/96 97/97/97 95/95/95
f 98/98/98 96/96/96 94/94/94
f 99/99/99 98/98/98 94/94/94
f 99/99/99 94/94/94 92/92/92
f 100/100/100 98/98/98 99/99/99
f 101/101/101 100/100/100 99/99/99
f 102/102/102 99/99/99 92/92/92
f 101/101/101 99/99/99 102/102/102
f 102/102/102 92/92/92 90/90/90
f 103/103/103 101/101/101 102/102/102
f 104/104/104 102/102/102 90/90/90
f 103/103/103 102/102/102 104/104/104
f 104/104/104 90/90/90 88/88/88
f 105/105/105 103/103/103 104/104/104
f 106/106/106 104/104/104 88/88/88
f 105/105/105 104/104/104 106/106/106
f 106/106/106 88/88/88 86/86/86
f 107/107/107 105/105/105 106/106/106
f 108/108/108 106/106/106 86/86/86
f 107/107/107 106/106/106 108/108/108
f 108/108/108 86/86/86 84/84/84
f 109/109/109 107/107/107 108/108/108
f 110/110/110 108/108/108 84/84/84
f 109/109/109 108/108/108 110/110/110
f 85/85/85 110/110/110 84/84/84
f 111/111/111 109/109/109 110/110/110
f 110/110/110 85/85/85 111/111/111
f 85/85/85 112/112/112 111/111/111
f 115/115/115 114/114/114 113/113/113
f 116/116/116 115/115/115 113/113/113
f 113/113/113 117/117/117 116/116/116
f 116/116/116 118/118/118 115/115/115
f 118/118/118 119/119/119 115/115/115
f 117/117/117 120/120/120 116/116/116
f 117/117/117 121/121/121 120/120/120
f 118/118/118 122/122/122 119/119/119
f 122/122/122 123/123/123 119/119/119
f 124/124/124 118/118/118 116/116/116
f 118/118/118 124/124/124 122/122/122
f 120/120/120 124/124/124 116/116/116
f 124/124/124 125/125/125 122/122/122
f 121/121/121 126/126/126 120/120/120
f 120/120/120 126/126/126 124/124/124
f 121/121/121 127/127/127 126/126/126
f 124/124/124 128/128/128 125/125/125
f 126/126/126 128/128/128 124/124/124
f 128/128/128 129/129/129 125/125/125
f 127/127/127 130/130/130 126/126/126
f 126/126/126 130/130/130 128/128/128
f 127/127/127 131/131/131 130/130/130
f 128/128/128 132/132/132 129/129/129
f 130/130/130 132/132/132 128/128/128
f 132/132/132 133/133/133 129/129/129
f 131/131/131 134/134/134 130/130/130
f 130/130/130 134/134/134 132/132/132
f 131/131/131 135/135/135 134/134/134
f 135/135/135 136/136/136 134/134/134
f 132/132/132 137/137/137 133/133/133
f 134/134/134 137/137/137 132/132/132
f 134/134/134 136/136/136 137/137/137
f 137/137/137 138/138/138 133/133/133
f 136/136/136 139/139/139 137/137/137
f 137/137/137 139/139/139 138/138/138
f 139/139/139 140/140/140 138/138/138
f 143/143/143 142/142/142 141/141/141
f 142/142/142 144/144/144 141/141/141
f 141/141/141 144/144/144 145/145/145
f 144/144/144 146/146/146 145/145/145
f 145/145/145 146/146/146 147/147/147
f 146/146/146 148/148/148 147/147/147
f 142/142/142 149/149/149 144/144/144
f 150/150/150 149/149/149 142/142/142
f 151/151/151 150/150/150 142/142/142
f 152/152/152 150/150/150 151/151/151
f 153/153/153 152/152/152 151/151/151
f 154/154/154 152/152/152 153/153/153
f 155/155/155 154/154/154 153/153/153
f 149/149/149 156/156/156 144/144/144
f 144/144/144 156/156/156 146/146/146
f 149/149/149 157/157/157 156/156/156
f 157/157/157 158/158/158 156/156/156
f 156/156/156 159/159/159 146/146/146
f 156/156/156 158/158/158 159/159/159
f 146/146/146 159/159/159 148/148/148
f 158/158/158 160/160/160 159/159/159
f 159/159/159 161/161/161 148/148/148
f 159/159/159 160/160/160 161/161/161
f 160/160/160 162/162/162 161/161/161
f 148/148/148 161/161/161 163/163/163
f 161/161/161 164/164/164 163/163/163
f 163/163/163 164/164/164 165/165/165
f 164/164/164 166/166/166 165/165/165
f 165/165/165 166/166/166 167/167/167
f 166/166/166 168/168/168 167/167/167
f 167/167/167 168/168/168 169/169/169
f 167/167/167 169/169/169 170/170/170
f 171/171/171 167/167/167 170/170/170
f 170/170/170 169/169/169 172/172/172
f 168/168/168 173/173/173 169/169/169
f 168/168/168 174/174/174 173/173/173
f 174/174/174 175/175/175 173/173/173
f 169/169/169 176/176/176 172/172/172
f 169/169/169 173/173/173 176/176/176
f 172/172/172 176/176/176 177/177/177
f 176/176/176 155/155/155 177/177/177
f 173/173/173 175/175/175 178/178/178
f 173/173/173 178/178/178 176/176/176
f 176/176/176 178/178/178 155/155/155
f 175/175/175 179/179/179 178/178/178
f 178/178/178 154/154/154 155/155/155
f 178/178/178 179/179/179 154/154/154
f 179/179/179 180/180/180 154/154/154
f 183/183/183 182/182/182 181/181/181
f 182/182/182 184/184/184 181/181/181
f 182/182/182 185/185/185 184/184/184
f 181/181/181 184/184/184 186/186/186
f 185/185/185 187/187/187 184/184/184
f 184/184/184 188/188/188 186/186/186
f 184/184/184 187/187/187 188/188/188
f 186/186/186 188/188/188 189/189/189
f 187/187/187 190/190/190 188/188/188
f 188/188/188 191/191/191 189/189/189
f 188/188/188 190/190/190 191/191/191
f 190/190/190 192/192/192 191/191/191
f 195/195/195 194/194/194 193/193/193
f 194/194/194 196/196/196 193/193/193
f 194/194/194 197/197/197 196/196/196
f 193/193/193 196/196/196 198/198/198
f 197/197/197 199/199/199 196/196/196
f 196/196/196 200/200/200 198/198/198
f 196/196/196 199/199/199 200/200/200
f 198/198/198 200/200/200 201/201/201
f 199/199/199 202/202/202 200/200/200
f 200/200/200 203/203/203 201/201/201
f 200/200/200 202/202/202 203/203/203
f 202/202/202 204/204/204 203/203/203
f 207/207/207 206/206/206 205/205/205
f 208/208/208 207/207/207 205/205/205
f 209/209/209 207/207/207 208/208/208
f 210/210/210 209/209/209 208/208/208
f 211/211/211 209/209/209 210/210/210
f 212/212/212 211/211/211 210/210/210
f 215/215/215 214/214/214 213/213/213
f 214/214/214 216/216/216 213/213/213
f 213/213/213 216/216/216 217/217/217
f 216/216/216 218/218/218 217/217/217
f 217/217/217 218/218/218 219/219/219
f 218/218/218 220/220/220 219/219/219

