# Blender 4.0.0
# www.blender.org
o decimated_mesh
v 0.313838 0.475120 0.008295
v 0.316094 0.470096 0.016613
v 0.316521 0.475097 0.014168
v -0.313339 0.475321 0.008562
v -0.315607 0.469957 0.016818
v 0.320781 0.474283 0.012930
v -0.316521 0.475097 0.014168
v 0.313688 0.467587 -0.000661
v 0.307433 0.468459 -0.001450
v 0.310100 0.393692 0.016223
v 0.316521 0.400091 0.016764
v 0.321120 0.395315 0.014098
v 0.321060 0.467844 0.007877
v -0.320588 0.474443 0.012761
v -0.320990 0.470424 0.014114
v 0.315025 0.461391 -0.001748
v 0.309922 0.462511 -0.003355
v -0.312347 0.468272 -0.001167
v 0.315388 0.390149 0.013956
v -0.310100 0.393692 0.016223
v -0.316521 0.400091 0.016764
v 0.321035 0.395445 0.009508
v -0.321058 0.467841 0.007846
v -0.320935 0.395341 0.014354
v 0.288710 0.449731 -0.005343
v -0.310190 0.462196 -0.003300
v -0.315025 0.461397 -0.001746
v 0.315093 0.389782 0.011372
v 0.311305 0.397412 -0.000572
v 0.318628 0.405823 0.002943
v -0.320876 0.395259 0.009448
v -0.315197 0.389477 0.012914
v 0.314734 0.402829 -0.001809
v 0.310100 0.406481 -0.003549
v -0.310264 0.397381 -0.000753
v 0.285126 0.412409 -0.005472
v -0.314717 0.402541 -0.001761
v -0.318347 0.406481 0.002433
v -0.310100 0.406481 -0.003549
v -0.285659 0.411153 -0.005116
vn 0.3544 0.0044 -0.9351
vn 0.3252 0.3928 0.8602
vn -0.8165 -0.1623 -0.5541
vn 0.1847 0.7506 -0.6344
vn 0.4647 0.6738 -0.5745
vn -0.3637 0.0036 -0.9315
vn 0.0002 -0.8427 -0.5384
vn -0.9999 -0.0028 -0.0121
vn 0.6552 0.4837 -0.5803
vn -0.3565 0.3771 0.8548
vn -0.4010 0.3282 0.8553
vn 0.7253 0.2677 -0.6343
vn 0.3383 0.2329 -0.9118
vn 0.1663 0.3631 -0.9168
vn -0.4122 0.7173 -0.5617
vn 0.2079 -0.2877 0.9349
vn 0.6841 -0.7287 -0.0333
vn 0.2375 -0.2890 0.9274
vn -0.4486 0.0025 0.8937
vn -0.0000 0.8255 -0.5643
vn -0.6392 0.4880 -0.5944
vn -0.0000 0.4581 0.8889
vn -0.6882 0.3228 -0.6497
vn -0.3302 0.2063 -0.9211
vn -0.2048 -0.2847 0.9365
vn 0.8443 0.0095 -0.5358
vn -0.0000 0.9992 0.0399
vn 0.9998 -0.0008 -0.0185
vn 0.0003 -0.0051 1.0000
vn -0.0006 -0.6170 0.7870
vn -0.3957 -0.7259 -0.5626
vn 0.0759 -0.0038 -0.9971
vn -0.7143 -0.6998 0.0030
vn -0.2164 -0.4274 0.8778
vn 0.1235 -0.2946 -0.9476
vn -0.0003 0.3101 0.9507
vn -0.0002 0.1540 -0.9881
vn 0.8115 -0.1662 -0.5603
vn 0.5053 0.0049 0.8629
vn -0.5095 -0.5663 -0.6479
vn -0.1206 -0.2896 -0.9495
vn -0.7579 -0.0038 -0.6523
vn -0.0006 0.0035 -1.0000
vn 0.3003 -0.0005 -0.9538
vn -0.1444 0.9886 -0.0425
vn 0.9345 -0.0083 -0.3558
vn -0.3058 -0.0014 -0.9521
vn -0.0008 -0.8655 -0.5009
vn -0.9999 -0.0007 0.0110
vn -0.0003 0.3313 -0.9435
vn -0.0005 0.3047 -0.9524
vn 0.6687 -0.7429 0.0295
vn -0.4838 0.0057 0.8752
vn 0.4614 -0.6740 -0.5769
vn -0.9955 0.0906 -0.0267
vn -0.0005 0.8098 -0.5868
vn 0.0002 0.4392 0.8984
vn 0.7745 -0.0032 -0.6326
vn 0.0003 1.0000 0.0038
vn 0.9988 0.0050 0.0488
vn 0.0821 -0.0018 0.9966
vn -0.0000 -0.0078 1.0000
vn -0.0855 0.0016 0.9963
vn -0.0000 -0.5389 0.8424
vn 0.1668 0.9833 -0.0723
vn -0.9354 -0.0101 -0.3535
vn 0.0911 0.0037 -0.9958
vn 0.0008 -0.9900 0.1407
vn -0.0052 -0.2936 -0.9559
vn 0.0001 -0.3021 -0.9533
vn 0.0009 0.3119 0.9501
vn 0.6099 0.0143 0.7924
vn 0.5683 -0.5076 -0.6476
vn -0.8434 0.0101 -0.5372
vn -0.0648 0.0043 -0.9979
vn -0.0027 0.0343 -0.9994
vn -0.0005 0.3312 -0.9436
vn -0.0002 0.3048 -0.9524
vn -0.3066 0.0037 -0.9518
vn -0.3598 -0.0017 -0.9330
vn -0.4811 0.0025 0.8766
vn -0.4484 0.0052 0.8938
vn -0.0000 -0.0008 1.0000
vn 0.0003 0.0022 1.0000
vn 0.3012 0.0043 -0.9535
vn -0.0000 -0.0842 0.9964
vn 0.3509 -0.0008 -0.9364
vn -0.0003 0.3118 0.9501
vn -0.0002 0.3077 0.9515
s 0
f 17//1 33//1 34//1
f 2//2 6//2 3//2
f 37//3 31//3 38//3
f 1//4 8//4 9//4
f 1//5 6//5 8//5
f 37//6 26//6 39//6
f 28//7 35//7 29//7
f 24//8 23//8 31//8
f 6//9 13//9 8//9
f 7//10 14//10 5//10
f 5//11 14//11 15//11
f 8//12 13//12 16//12
f 8//13 16//13 17//13
f 8//14 17//14 9//14
f 4//15 18//15 14//15
f 10//16 19//16 11//16
f 12//17 28//17 22//17
f 11//18 19//18 12//18
f 24//19 5//19 15//19
f 4//20 1//20 9//20
f 14//21 18//21 23//21
f 3//22 7//22 5//22
f 18//23 27//23 23//23
f 18//24 26//24 27//24
f 20//25 21//25 24//25
f 30//26 16//26 13//26
f 3//27 4//27 7//27
f 13//28 12//28 22//28
f 2//29 5//29 10//29
f 19//30 20//30 32//30
f 32//31 31//31 35//31
f 25//32 34//32 36//32
f 32//33 24//33 31//33
f 32//34 20//34 24//34
f 33//35 29//35 34//35
f 29//36 36//36 35//36
f 25//37 26//37 17//37
f 30//38 22//38 33//38
f 2//39 11//39 12//39
f 31//40 37//40 35//40
f 39//41 35//41 37//41
f 38//42 27//42 37//42
f 36//43 40//43 25//43
f 17//44 16//44 33//44
f 4//45 14//45 7//45
f 30//46 13//46 22//46
f 37//47 27//47 26//47
f 28//48 32//48 35//48
f 24//49 15//49 23//49
f 17//50 26//50 18//50
f 18//51 9//51 17//51
f 12//52 19//52 28//52
f 21//53 5//53 24//53
f 29//54 22//54 28//54
f 14//55 23//55 15//55
f 9//56 18//56 4//56
f 5//57 2//57 3//57
f 30//58 33//58 16//58
f 3//59 1//59 4//59
f 13//60 6//60 12//60
f 21//61 20//61 5//61
f 20//62 10//62 5//62
f 10//63 11//63 2//63
f 19//64 10//64 20//64
f 3//65 6//65 1//65
f 23//66 38//66 31//66
f 25//67 17//67 34//67
f 19//68 32//68 28//68
f 39//69 40//69 35//69
f 40//70 36//70 35//70
f 36//71 29//71 34//71
f 12//72 6//72 2//72
f 33//73 22//73 29//73
f 38//74 23//74 27//74
f 40//75 39//75 26//75
f 26//76 25//76 40//76
f 9//77 26//77 18//77
f 17//78 26//78 9//78
f 39//79 27//79 26//79
f 39//80 37//80 27//80
f 24//81 21//81 15//81
f 21//82 5//82 15//82
f 21//83 11//83 5//83
f 11//84 2//84 5//84
f 16//85 34//85 17//85
f 20//86 10//86 11//86
f 20//86 11//86 21//86
f 33//87 34//87 16//87
f 29//88 34//88 35//88
f 35//89 34//89 36//89
