# Blender 4.0.0
# www.blender.org
o decimated_mesh
v 0.229245 0.031857 -0.056975
v 0.228982 0.065541 -0.056422
v 0.283204 0.031856 -0.056828
v 0.221318 0.031857 -0.053338
v 0.282688 0.065540 -0.056713
v 0.222997 0.065543 -0.051854
v 0.290506 0.031857 -0.053409
v 0.289226 0.065545 -0.051922
v 0.221340 0.031858 -0.024086
v 0.224490 0.065542 -0.024261
v 0.290606 0.031863 -0.024412
v 0.229957 0.031857 -0.020828
v 0.288589 0.065543 -0.025811
v 0.282470 0.065539 -0.022255
v 0.283508 0.031857 -0.021003
vn -0.0344 0.0958 0.9948
vn -0.0054 0.0164 -0.9999
vn 0.0003 1.0000 -0.0000
vn -0.4169 0.0117 -0.9089
vn -0.6053 0.0651 -0.7933
vn 0.5900 0.0579 -0.8053
vn 0.4240 0.0096 -0.9056
vn 0.9979 0.0608 0.0244
vn 0.5014 0.0658 0.8627
vn -0.9988 0.0498 0.0008
vn -0.3534 0.0379 0.9347
vn 0.4325 0.0468 0.9004
vn 0.0033 0.0372 0.9993
vn 0.0027 0.0034 -1.0000
vn -0.0000 1.0000 -0.0000
vn -0.0006 1.0000 0.0001
vn -0.0008 1.0000 -0.0000
vn 0.0010 -1.0000 0.0002
vn 0.0002 1.0000 -0.0000
vn 0.0001 -1.0000 -0.0000
vn 0.9993 0.0381 -0.0035
vn -0.9942 0.0932 0.0538
vn -0.0000 1.0000 -0.0005
vn -0.0000 1.0000 -0.0011
vn 0.0001 1.0000 0.0002
vn -0.0000 1.0000 0.0001
vn -0.0000 1.0000 0.0011
s 0
f 12//1 14//1 10//1
f 5//2 1//2 2//2
f 2//3 6//3 10//3
f 1//4 4//4 2//4
f 4//5 6//5 2//5
f 8//6 7//6 5//6
f 3//7 5//7 7//7
f 11//8 8//8 13//8
f 13//9 14//9 11//9
f 9//10 6//10 4//10
f 9//11 12//11 10//11
f 11//12 14//12 15//12
f 12//13 15//13 14//13
f 5//14 3//14 1//14
f 10//15 14//15 5//15
f 13//16 8//16 14//16
f 5//15 2//15 10//15
f 8//17 5//17 14//17
f 7//18 11//18 15//18
f 15//15 1//15 12//15
f 1//15 4//15 12//15
f 9//19 12//19 4//19
f 1//15 15//15 3//15
f 15//20 3//20 7//20
f 11//21 7//21 8//21
f 9//22 10//22 6//22
f 3//15 1//15 4//15
f 3//15 4//15 9//15
f 6//23 8//23 2//23
f 8//24 5//24 2//24
f 15//15 3//15 12//15
f 12//25 3//25 9//25
f 10//15 8//15 6//15
f 10//26 13//26 8//26
f 14//27 13//27 10//27
