# Blender 4.0.0
# www.blender.org
o decimated_mesh
v 0.096993 0.074821 0.014435
v 0.096961 0.074820 0.011787
v -0.084787 0.074821 0.013844
v -0.084787 0.029331 0.028341
v -0.084787 0.074821 0.011633
v 0.096993 0.042889 0.025556
v 0.084027 0.028753 0.029475
v 0.096896 0.035166 0.025480
v 0.084376 0.030068 0.027246
vn -0.0046 -0.3448 -0.9387
vn -0.0000 1.0000 -0.0001
vn -0.0729 0.3280 0.9419
vn 0.0005 -0.8612 -0.5082
vn 0.2801 -0.8453 -0.4550
vn 0.9999 -0.0043 -0.0123
vn -0.0008 0.3267 0.9451
vn 0.0004 0.3264 0.9452
vn -0.0000 1.0000 -0.0000
vn -1.0000 -0.0000 -0.0000
vn -0.0031 0.3111 0.9504
vn -0.0054 0.3036 0.9528
vn 0.3023 -0.0131 0.9531
vn 0.9995 -0.0123 -0.0308
vn -0.0031 0.3289 0.9444
vn -0.0080 0.3036 0.9528
vn -0.0055 0.2719 0.9623
vn -0.0008 0.3264 0.9452
vn -0.0004 0.3281 0.9446
s 0
f 9//1 4//1 5//1
f 3//2 1//2 2//2
f 7//3 6//3 1//3
f 4//4 9//4 7//4
f 7//5 9//5 8//5
f 6//6 2//6 1//6
f 5//7 9//7 2//7
f 9//8 8//8 2//8
f 2//9 5//9 3//9
f 3//10 5//10 4//10
f 1//11 3//11 7//11
f 3//12 4//12 7//12
f 8//13 6//13 7//13
f 8//14 2//14 6//14
f 2//2 5//2 1//2
f 5//9 3//9 1//9
f 3//15 6//15 1//15
f 3//16 4//16 6//16
f 4//17 7//17 6//17
f 8//18 2//18 5//18
f 8//19 5//19 9//19
