# Blender 4.0.0
# www.blender.org
o decimated_mesh
v 0.098876 0.074829 0.030316
v 0.098056 0.079457 0.029394
v 0.096792 0.074829 0.030956
v 0.098019 0.101169 0.021915
v 0.098522 0.074829 0.016294
v 0.099225 0.103826 0.020054
v 0.096874 0.103819 0.020994
v 0.101008 0.074829 0.016294
v 0.096873 0.103819 0.018387
v 0.098659 0.103819 0.016294
v 0.100247 0.074829 0.029199
v 0.100152 0.103800 0.019219
v 0.101024 0.103820 0.016316
v 0.100983 0.074832 0.026707
vn 1.0000 -0.0006 0.0024
vn 0.3334 0.4349 0.8365
vn -0.7609 0.0036 -0.6489
vn -0.9920 -0.0480 -0.1170
vn 0.2856 0.2356 0.9289
vn 0.0001 -0.0000 -1.0000
vn 0.9542 0.0997 0.2819
vn 0.9525 0.1019 0.2868
vn 0.0045 1.0000 0.0039
vn -0.0029 1.0000 -0.0001
vn 0.0103 0.9998 -0.0186
vn -0.0007 1.0000 0.0065
vn -0.0007 1.0000 -0.0001
vn 0.0008 1.0000 0.0013
vn -0.0000 1.0000 -0.0003
vn -0.0002 -1.0000 -0.0002
vn -0.0088 0.3250 0.9457
vn -0.0236 0.3255 0.9452
vn 0.6574 0.2090 0.7240
vn 0.6125 0.2584 0.7470
vn 0.6105 0.2573 0.7491
vn 0.6197 0.2574 0.7414
vn -1.0000 0.0030 0.0004
vn 0.0091 0.0007 -1.0000
vn -0.0212 0.3250 0.9455
vn 0.0001 1.0000 -0.0000
vn 0.6110 0.2576 0.7485
vn 0.5945 0.2628 0.7600
vn -0.0072 0.3257 0.9455
vn -0.0018 1.0000 -0.0016
vn -0.0000 1.0000 -0.0000
vn -0.0046 1.0000 -0.0003
vn 0.6517 0.2489 0.7165
vn 0.0454 0.9988 0.0204
vn -0.0006 1.0000 -0.0018
s 0
f 13//1 14//1 8//1
f 4//2 6//2 7//2
f 5//3 9//3 10//3
f 3//4 9//4 5//4
f 1//5 2//5 3//5
f 10//6 8//6 5//6
f 14//7 13//7 11//7
f 13//8 12//8 11//8
f 10//9 9//9 12//9
f 6//10 9//10 7//10
f 6//11 12//11 9//11
f 12//12 13//12 10//12
f 3//13 14//13 5//13
f 11//14 14//14 3//14
f 8//15 5//15 14//15
f 11//16 1//16 3//16
f 7//17 3//17 4//17
f 4//18 3//18 2//18
f 6//19 4//19 12//19
f 4//20 2//20 11//20
f 2//21 1//21 11//21
f 11//22 12//22 4//22
f 7//23 9//23 3//23
f 13//24 8//24 10//24
f 2//25 7//25 3//25
f 5//26 3//26 11//26
f 11//27 6//27 2//27
f 6//28 4//28 2//28
f 4//29 7//29 2//29
f 6//30 10//30 9//30
f 8//31 5//31 11//31
f 8//32 11//32 14//32
f 12//33 6//33 11//33
f 12//34 13//34 6//34
f 13//35 10//35 6//35
