# Blender 4.0.0
# www.blender.org
o decimated_mesh
v -0.032524 0.078225 0.003789
v -0.036953 0.078208 0.010411
v -0.036953 0.084616 0.008219
v -0.036953 0.078229 0.012602
v -0.032908 0.084617 0.003801
v -0.027118 0.078209 0.003842
v -0.036914 0.084621 0.010429
v -0.030700 0.084616 0.003811
v -0.031422 0.078211 0.012230
v -0.032044 0.084623 0.009663
v -0.030898 0.084617 0.007363
v -0.027321 0.078208 0.008329
vn 0.0029 1.0000 0.0005
vn -0.8163 -0.1869 -0.5465
vn 0.8718 0.4875 0.0484
vn -0.0006 1.0000 -0.0033
vn -0.7368 -0.0430 -0.6747
vn 0.1436 0.3798 0.9138
vn 0.6493 0.3361 0.6822
vn 0.7791 0.4931 0.3871
vn 0.0021 1.0000 0.0013
vn -0.0025 -1.0000 0.0096
vn -0.0013 1.0000 0.0017
vn -0.9998 0.0122 0.0179
vn -1.0000 0.0001 0.0002
vn 0.0045 0.0022 -1.0000
vn 0.0100 0.0006 -1.0000
vn 0.8700 0.4914 0.0395
vn 0.0004 1.0000 -0.0001
vn -0.0001 1.0000 0.0002
vn -0.0009 1.0000 -0.0024
vn 0.0646 0.3208 0.9449
vn 0.0028 1.0000 0.0045
vn 0.0001 1.0000 0.0003
vn -0.0003 1.0000 -0.0012
vn -0.0029 1.0000 -0.0024
vn -0.0007 1.0000 -0.0010
vn 0.0004 1.0000 -0.0012
vn 0.0063 1.0000 0.0002
vn 0.8691 0.4922 0.0483
vn 0.8721 0.4877 0.0396
s 0
f 6//1 1//1 12//1
f 1//2 2//2 3//2
f 11//3 6//3 8//3
f 10//4 11//4 3//4
f 5//5 1//5 3//5
f 7//6 9//6 10//6
f 9//7 12//7 10//7
f 12//8 11//8 10//8
f 12//9 1//9 9//9
f 9//10 4//10 2//10
f 2//11 9//11 1//11
f 7//12 3//12 4//12
f 3//13 2//13 4//13
f 1//14 5//14 8//14
f 8//15 6//15 1//15
f 11//16 12//16 6//16
f 8//17 5//17 11//17
f 5//18 3//18 11//18
f 7//19 10//19 3//19
f 9//20 7//20 4//20
f 6//21 1//21 2//21
f 6//22 2//22 12//22
f 12//23 2//23 9//23
f 7//24 5//24 3//24
f 7//25 10//25 5//25
f 10//26 8//26 5//26
f 10//27 11//27 8//27
f 11//28 12//28 8//28
f 12//29 6//29 8//29
