# Blender 4.0.0
# www.blender.org
o decimated_mesh
v 0.088516 0.075078 0.030890
v 0.096871 0.074833 0.030959
v 0.086587 0.074518 0.029963
v 0.084209 0.065658 0.029177
v 0.084433 0.063798 0.029188
v 0.097346 0.071858 0.029140
v 0.082800 0.153603 0.003832
v 0.083058 0.138162 0.003804
v 0.096874 0.102934 0.021354
v 0.094975 0.153349 0.003819
v 0.096809 0.103976 0.018290
v 0.094975 0.147321 0.003805
vn -0.0013 0.0018 -1.0000
vn -0.4420 0.0391 0.8962
vn -0.3088 -0.0316 0.9506
vn 0.2929 -0.4643 0.8358
vn -0.0057 0.3254 0.9456
vn -0.4778 0.2549 0.8407
vn -0.7881 0.1588 0.5947
vn -0.9506 -0.1159 -0.2881
vn 0.9922 0.0003 -0.1247
vn 0.2304 -0.2996 -0.9258
vn -0.0010 0.0024 -1.0000
vn 0.0016 0.3234 0.9463
vn 0.0078 0.3288 0.9444
vn 0.9994 0.0344 -0.0093
vn 0.9998 0.0109 -0.0174
vn -0.0124 -0.1448 0.9894
vn -0.9999 -0.0167 -0.0023
vn 0.9847 0.0564 0.1652
vn -0.1909 0.3113 0.9309
vn -0.1993 0.3133 0.9285
vn -0.1924 0.3138 0.9298
vn -0.2068 0.3100 0.9280
s 0
f 8//1 7//1 12//1
f 1//2 3//2 4//2
f 1//3 4//3 5//3
f 2//4 5//4 6//4
f 7//5 1//5 9//5
f 1//6 7//6 3//6
f 4//7 3//7 7//7
f 4//8 8//8 5//8
f 12//9 10//9 11//9
f 12//10 11//10 8//10
f 7//11 10//11 12//11
f 2//12 9//12 1//12
f 9//13 10//13 7//13
f 10//14 9//14 11//14
f 9//15 6//15 11//15
f 5//16 2//16 1//16
f 8//17 4//17 7//17
f 6//18 9//18 2//18
f 6//19 11//19 5//19
f 5//20 11//20 8//20
f 8//21 5//21 6//21
f 8//22 6//22 11//22
