# Blender 4.0.0
# www.blender.org
o decimated_mesh
v 0.101009 0.074825 0.025557
v 0.100981 0.074825 0.015983
v 0.098674 0.074825 0.025557
v 0.096925 0.074825 0.011940
v 0.097011 0.042887 0.025557
v 0.100328 0.074824 0.013841
v 0.097019 0.035358 0.025558
v 0.100944 0.046998 0.025557
v 0.099464 0.074825 0.013001
v 0.100288 0.040571 0.025531
vn -0.0011 1.0000 0.0027
vn -0.9905 0.0516 0.1272
vn 1.0000 -0.0023 -0.0030
vn 0.9561 -0.0965 -0.2768
vn -1.0000 -0.0010 0.0041
vn -0.0000 1.0000 -0.0000
vn 0.0009 1.0000 -0.0009
vn 0.4629 -0.2946 -0.8360
vn 0.3675 -0.3026 -0.8794
vn 0.0048 -0.0046 1.0000
vn -0.0000 -0.0000 1.0000
vn 0.0082 0.0001 1.0000
vn 0.9518 -0.1001 -0.2899
vn 0.6766 -0.2385 -0.6966
vn 0.0178 -0.0060 0.9998
vn 0.0002 -0.0000 1.0000
vn -0.0015 0.0001 1.0000
s 0
f 6//1 9//1 4//1
f 5//2 3//2 4//2
f 8//3 2//3 1//3
f 2//4 8//4 10//4
f 4//5 7//5 5//5
f 4//6 3//6 2//6
f 3//6 1//6 2//6
f 2//7 6//7 4//7
f 9//8 10//8 7//8
f 4//9 9//9 7//9
f 10//10 8//10 5//10
f 8//11 1//11 3//11
f 5//11 8//11 3//11
f 7//12 10//12 5//12
f 10//13 6//13 2//13
f 6//14 10//14 9//14
f 10//15 8//15 7//15
f 8//16 1//16 7//16
f 1//11 3//11 7//11
f 3//17 5//17 7//17
f 4//6 3//6 1//6
f 2//6 4//6 1//6
