# Blender 4.0.0
# www.blender.org
o decimated_mesh
v 0.101009 0.103819 0.016294
v 0.098658 0.103819 0.016294
v 0.100990 0.103815 0.005966
v 0.094932 0.103806 0.003801
v 0.094913 0.074829 0.013851
v 0.098521 0.074829 0.016294
v 0.100273 0.103824 0.003862
v 0.094913 0.097511 0.003802
v 0.094910 0.074836 0.011579
v 0.101043 0.074826 0.016280
v 0.100166 0.103047 0.003825
v 0.096913 0.074829 0.011882
v 0.095943 0.081186 0.009322
v 0.100056 0.074837 0.013412
v 0.097937 0.098880 0.003804
v 0.097933 0.077179 0.011314
vn -0.5607 0.0026 0.8280
vn -0.0012 1.0000 -0.0007
vn -1.0000 0.0006 0.0013
vn 0.1387 -0.3516 -0.9258
vn 0.0056 -0.0000 1.0000
vn 0.1408 -0.3092 -0.9405
vn 0.9393 -0.1137 -0.3237
vn -0.9536 0.0992 0.2843
vn 0.4062 -0.3773 -0.8323
vn 0.0013 1.0000 0.0033
vn -0.0013 1.0000 0.0019
vn -0.0016 1.0000 -0.0016
vn -0.0028 -1.0000 -0.0029
vn 0.0048 0.0023 -1.0000
vn 0.0009 -0.0001 -1.0000
vn 0.0112 0.0466 -0.9989
vn -0.0000 1.0000 -0.0004
vn -0.0034 1.0000 0.0056
vn -1.0000 0.0030 0.0069
vn -0.0000 -0.0005 1.0000
vn -0.0722 -0.3236 -0.9434
vn 0.9402 -0.1146 -0.3208
vn 0.9402 -0.1127 -0.3215
vn 0.2763 -0.3143 -0.9082
vn 0.2502 -0.3285 -0.9107
vn 1.0000 0.0012 -0.0018
vn 0.5233 -0.2761 -0.8062
vn 0.4971 -0.2838 -0.8199
vn 0.0141 0.9999 -0.0004
vn -0.0000 1.0000 0.0004
vn -0.0000 -0.0000 1.0000
vn 0.0056 -0.0005 1.0000
vn 0.9404 -0.1125 -0.3209
vn 0.9387 -0.1142 -0.3251
vn -0.0034 1.0000 -0.0000
vn 0.0012 1.0000 -0.0018
vn 0.0004 1.0000 0.0004
vn -0.0051 1.0000 0.0055
s 0
f 2//1 5//1 6//1
f 4//2 2//2 3//2
f 9//3 5//3 8//3
f 12//4 9//4 13//4
f 10//5 2//5 6//5
f 8//6 15//6 13//6
f 10//7 14//7 11//7
f 4//8 5//8 2//8
f 12//9 16//9 14//9
f 14//10 6//10 10//10
f 6//11 14//11 5//11
f 14//12 12//12 5//12
f 5//13 9//13 12//13
f 11//14 15//14 4//14
f 15//15 8//15 4//15
f 4//16 7//16 11//16
f 1//17 3//17 2//17
f 3//18 7//18 4//18
f 5//19 4//19 8//19
f 10//20 1//20 2//20
f 9//21 8//21 13//21
f 7//22 3//22 11//22
f 3//23 10//23 11//23
f 15//24 16//24 13//24
f 16//25 12//25 13//25
f 1//26 10//26 3//26
f 11//27 14//27 15//27
f 16//28 15//28 14//28
f 3//29 7//29 1//29
f 7//30 2//30 1//30
f 2//31 6//31 1//31
f 6//32 10//32 1//32
f 10//33 7//33 3//33
f 10//7 14//7 7//7
f 14//34 11//34 7//34
f 4//35 2//35 7//35
f 5//36 6//36 10//36
f 5//37 10//37 12//37
f 12//38 10//38 14//38
