# Blender 4.0.0
# www.blender.org
o decimated_mesh
v -0.098340 0.043948 0.041443
v -0.098794 0.043948 0.029183
v -0.100999 0.043948 0.029183
v -0.100187 0.074801 0.029195
v -0.100562 0.043950 0.039443
v -0.098340 0.074826 0.029183
v -0.098354 0.074803 0.030664
v -0.100951 0.066219 0.029183
vn -0.6045 0.2577 0.7538
vn -0.9991 0.0021 0.0426
vn -0.0000 1.0000 -0.0002
vn 0.0008 1.0000 -0.0000
vn -0.0135 0.9998 0.0156
vn -0.9708 0.0862 0.2240
vn -0.9992 0.0125 0.0370
vn -0.9998 0.0147 -0.0093
vn -0.6476 0.2510 0.7194
vn -0.0000 -0.0000 -1.0000
vn -0.0064 0.0019 -1.0000
vn 0.0009 1.0000 -0.0002
vn -0.0000 1.0000 -0.0000
vn -0.9992 0.0147 0.0370
vn -0.9999 -0.0038 -0.0096
vn -0.6036 0.2627 0.7527
vn -0.6483 0.2471 0.7202
s 0
f 4//1 5//1 7//1
f 8//2 3//2 5//2
f 5//3 2//3 3//3
f 2//4 5//4 1//4
f 4//5 7//5 6//5
f 5//6 4//6 8//6
f 7//7 2//7 1//7
f 2//8 7//8 6//8
f 1//9 7//9 5//9
f 3//10 8//10 2//10
f 8//11 4//11 6//11
f 2//10 8//10 6//10
f 5//12 1//12 3//12
f 3//13 1//13 2//13
f 2//14 1//14 6//14
f 6//15 1//15 7//15
f 7//16 4//16 1//16
f 4//17 5//17 1//17
