# Blender 4.0.0
# www.blender.org
o decimated_mesh
v 0.101009 0.136791 0.003799
v 0.098780 0.136791 0.003799
v 0.100956 0.136790 -0.005797
v 0.094906 0.136790 -0.007737
v 0.094906 0.103770 0.003799
v 0.094906 0.097513 0.003769
v 0.100975 0.110714 0.003799
v 0.100195 0.136787 -0.007814
v 0.094906 0.136791 -0.009853
v 0.096252 0.098941 0.003246
v 0.100515 0.104991 0.003794
v 0.099939 0.102558 0.003793
v 0.097850 0.136788 -0.009447
v 0.097593 0.098512 0.003808
vn -0.9422 0.1105 0.3164
vn 1.0000 -0.0013 -0.0055
vn 0.1966 -0.4951 -0.8463
vn 0.0019 0.0027 1.0000
vn 0.0005 1.0000 -0.0014
vn 0.9736 -0.0781 -0.2143
vn 0.5498 -0.2719 -0.7898
vn 0.2793 -0.3159 -0.9068
vn 1.0000 -0.0000 -0.0000
vn 1.0000 -0.0000 -0.0001
vn 0.0011 -0.0006 1.0000
vn 0.0012 -0.0011 1.0000
vn -0.0000 -0.0000 1.0000
vn -0.0130 -0.0049 0.9999
vn 0.8135 -0.1922 -0.5489
vn 0.0005 1.0000 -0.0003
vn 0.0008 1.0000 0.0002
vn 0.0001 1.0000 -0.0001
vn -0.0000 1.0000 -0.0001
vn 0.1291 -0.3202 -0.9385
vn -0.0192 -0.3276 -0.9446
vn 0.9291 -0.1185 -0.3503
vn 0.4912 -0.2880 -0.8221
vn 0.0123 -0.0033 0.9999
vn 0.0088 -0.0017 1.0000
vn 0.0027 -0.0000 1.0000
vn -0.0000 0.0002 1.0000
vn -0.0027 0.0003 1.0000
vn 0.0010 1.0000 -0.0009
vn 0.0002 1.0000 -0.0001
vn -0.0000 1.0000 -0.0000
vn -0.0008 1.0000 0.0002
vn 0.0013 1.0000 -0.0017
s 0
f 4//1 5//1 2//1
f 3//2 1//2 7//2
f 10//3 14//3 6//3
f 14//4 12//4 5//4
f 3//5 8//5 4//5
f 3//6 7//6 11//6
f 8//7 12//7 13//7
f 13//8 14//8 10//8
f 5//9 9//9 4//9
f 9//10 5//10 6//10
f 12//11 11//11 5//11
f 11//12 7//12 5//12
f 7//13 1//13 2//13
f 2//13 5//13 7//13
f 5//14 6//14 14//14
f 12//15 8//15 11//15
f 8//16 13//16 4//16
f 13//17 9//17 4//17
f 4//18 2//18 3//18
f 2//19 1//19 3//19
f 13//20 10//20 9//20
f 10//21 6//21 9//21
f 11//22 8//22 3//22
f 14//23 13//23 12//23
f 12//24 11//24 14//24
f 11//25 7//25 14//25
f 7//26 1//26 14//26
f 1//27 2//27 14//27
f 2//28 5//28 14//28
f 5//10 6//10 4//10
f 4//9 6//9 9//9
f 9//29 8//29 13//29
f 3//30 9//30 1//30
f 9//31 2//31 1//31
f 9//32 4//32 2//32
f 3//33 8//33 9//33
