# Blender 4.0.0
# www.blender.org
o decimated_mesh
v -0.084205 0.064863 0.029623
v 0.083088 0.064204 0.029226
v -0.084209 0.061518 0.035534
v 0.083089 0.043638 0.040846
v 0.083089 0.061333 0.035641
v -0.084209 0.043947 0.039556
v -0.084209 0.043947 0.041735
vn 0.0058 -0.4919 -0.8706
vn 0.0006 0.8703 0.4925
vn -0.0002 0.3328 0.9430
vn -0.0019 -1.0000 -0.0000
vn -0.0038 -0.4290 -0.9033
vn -1.0000 -0.0002 -0.0008
vn -1.0000 -0.0000 -0.0000
vn 0.0046 0.9128 0.4085
vn 0.0056 0.2822 0.9593
vn 1.0000 -0.0000 -0.0002
vn -1.0000 0.0002 -0.0000
vn -1.0000 -0.0003 -0.0009
s 0
f 6//1 2//1 4//1
f 5//2 1//2 3//2
f 7//3 5//3 3//3
f 4//4 7//4 6//4
f 6//5 1//5 2//5
f 1//6 6//6 3//6
f 6//7 7//7 3//7
f 5//8 2//8 1//8
f 7//9 4//9 5//9
f 4//10 2//10 5//10
f 6//11 7//11 1//11
f 7//12 3//12 1//12
