# Blender 4.0.0
# www.blender.org
o Sofa_207_2_sofa_207_0_collision_2
v -0.834393 0.259940 -0.027495
v -0.834558 0.259940 -0.003157
v -0.834393 0.268854 -0.027495
v -0.834229 0.252237 -0.027495
v -0.834393 0.276557 -0.003157
v -0.834393 0.276557 -0.019749
v -0.833899 0.243310 -0.027495
v -0.833899 0.243310 0.030119
v -0.833735 0.243310 0.346058
v -0.834229 0.259940 0.346058
v -0.834229 0.276557 -0.027495
v -0.834064 0.276557 0.296189
v -0.833241 0.293187 0.246275
v -0.833406 0.293187 0.046757
v -0.833899 0.285484 -0.027495
v -0.832583 0.235607 -0.027495
v -0.832254 0.226680 0.395972
v -0.833570 0.243310 0.362696
v -0.834064 0.259940 0.362696
v -0.833899 0.276557 0.346058
v -0.833077 0.293187 0.279551
v -0.828962 0.307397 0.246275
v -0.828962 0.307553 0.229637
v -0.828962 0.307618 0.212999
v -0.831102 0.301099 -0.027495
v -0.833406 0.293187 -0.027495
v -0.830937 0.226680 -0.027495
v -0.833077 0.243310 0.395972
v -0.828468 0.212913 0.395972
v -0.827810 0.213238 0.412609
v -0.830772 0.226680 0.412609
v -0.833241 0.259940 0.395972
v -0.832912 0.276557 0.395972
v -0.832418 0.293187 0.346058
v -0.832747 0.293187 0.312827
v -0.828798 0.306577 0.296189
v -0.828798 0.306916 0.279551
v -0.821062 0.315868 0.229637
v -0.828962 0.307644 0.196453
v -0.821062 0.315933 0.212999
v -0.828962 0.307944 -0.027495
v -0.829127 0.222113 -0.027495
v -0.831431 0.243310 0.412609
v -0.826987 0.216830 -0.027495
v -0.820239 0.204923 0.412609
v -0.826329 0.215841 0.422006
v -0.827152 0.226680 0.422876
v -0.831595 0.259940 0.412609
v -0.831431 0.276557 0.412609
v -0.831924 0.293187 0.362696
v -0.830608 0.293187 0.395972
v -0.828304 0.305341 0.346058
v -0.828468 0.305823 0.329420
v -0.828633 0.306213 0.312827
v -0.820733 0.315725 0.246275
v -0.812504 0.319343 0.246275
v -0.812833 0.319421 0.229637
v -0.825341 0.311795 -0.027495
v -0.820898 0.316259 -0.027495
v -0.827481 0.243310 0.423472
v -0.827645 0.259940 0.423793
v -0.817112 0.212770 -0.027495
v -0.811846 0.200915 0.399776
v -0.812010 0.200863 0.412609
v -0.810035 0.201384 0.421318
v -0.816125 0.210193 0.423656
v -0.817112 0.226680 0.428147
v -0.817112 0.243310 0.429798
v -0.827645 0.276557 0.424068
v -0.826987 0.289258 0.423060
v -0.828304 0.294163 0.413251
v -0.827645 0.304053 0.379334
v -0.827975 0.304756 0.362696
v -0.826329 0.302491 0.408118
v -0.827152 0.303337 0.395972
v -0.819581 0.315231 0.279551
v -0.820239 0.315491 0.262913
v -0.812010 0.319160 0.262913
v -0.800490 0.320592 0.262913
v -0.800490 0.320826 0.246275
v -0.800490 0.320891 0.229637
v -0.812669 0.319082 -0.027495
v -0.817112 0.259940 0.430577
v -0.800490 0.210167 -0.027495
v -0.800490 0.200057 0.412609
v -0.800490 0.210050 0.426177
v -0.750458 0.199133 0.412609
v -0.767080 0.200915 0.421960
v -0.750458 0.210050 0.427781
v -0.767080 0.210050 0.427414
v -0.800490 0.226680 0.431906
v -0.800490 0.243310 0.434243
v -0.817112 0.276557 0.430806
v -0.817771 0.294163 0.425856
v -0.823860 0.300357 0.419210
v -0.817112 0.313058 0.346058
v -0.817935 0.314528 0.312827
v -0.818758 0.314892 0.296189
v -0.817771 0.304534 0.413251
v -0.817112 0.308295 0.395972
v -0.817112 0.310117 0.379334
v -0.817112 0.311743 0.362696
v -0.809706 0.318445 0.312827
v -0.810529 0.318705 0.296189
v -0.811352 0.318939 0.279551
v -0.800490 0.320293 0.279551
v -0.750458 0.322817 0.362696
v -0.733835 0.324014 0.362696
v -0.800490 0.319837 -0.027495
v -0.806908 0.319447 -0.027495
v -0.800490 0.259940 0.434977
v -0.767080 0.209269 -0.027495
v -0.783703 0.226680 0.432823
v -0.767080 0.226680 0.433648
v -0.758193 0.209139 -0.027495
v -0.750458 0.209035 -0.027495
v -0.733835 0.198976 0.412609
v -0.750458 0.200746 0.422143
v -0.750458 0.226680 0.433968
v -0.733835 0.200681 0.422235
v -0.367975 0.210050 0.429568
v -0.783703 0.243310 0.435389
v -0.800490 0.276557 0.434610
v -0.800490 0.293187 0.430118
v -0.812669 0.302648 0.422556
v -0.809048 0.318250 0.323232
v -0.815631 0.314814 0.329053
v -0.800490 0.308113 0.412609
v -0.800490 0.312303 0.395972
v -0.800490 0.314645 0.379334
v -0.806415 0.317937 0.334324
v -0.800490 0.319837 0.296189
v -0.767080 0.321047 0.362696
v -0.750458 0.321971 0.379334
v -0.733835 0.323442 0.379334
v -0.717213 0.323585 0.379334
v -0.168505 0.330260 0.312827
v -0.168505 0.330455 0.296189
v -0.168505 0.330442 0.279551
v -0.318107 0.326265 -0.003157
v -0.318107 0.326083 -0.019749
v -0.318107 0.325966 -0.027495
v -0.783703 0.259940 0.435939
v -0.767080 0.243310 0.436214
v -0.700590 0.208957 -0.027495
v -0.717213 0.198924 0.412609
v -0.750458 0.243310 0.436489
v -0.367975 0.228125 0.436169
v -0.362379 0.234644 0.437635
v -0.367975 0.200291 0.422922
v -0.218372 0.210050 0.430027
v -0.218372 0.226680 0.436123
v -0.767080 0.259940 0.436810
v -0.750458 0.276557 0.436810
v -0.733835 0.293187 0.433510
v -0.750458 0.293187 0.432777
v -0.800490 0.303337 0.423426
v -0.750458 0.305458 0.425122
v -0.767080 0.304743 0.424572
v -0.745520 0.318523 0.405093
v -0.756547 0.317872 0.402893
v -0.768068 0.317261 0.396797
v -0.763130 0.318861 0.391846
v -0.774322 0.317937 0.385934
v -0.800490 0.316454 0.362696
v -0.768068 0.319616 0.379975
v -0.750787 0.319590 0.396797
v -0.733835 0.321360 0.395972
v -0.717213 0.321581 0.395972
v -0.168505 0.329414 0.329420
v 0.729441 0.327762 0.312827
v 0.729441 0.328269 0.296189
v 0.746064 0.328660 0.279551
v 0.213978 0.331106 0.080033
v 0.197356 0.331080 0.080033
v 0.213978 0.331093 0.063395
v 0.213978 0.330976 0.046757
v 0.213978 0.330507 0.030119
v 0.213978 0.329740 0.013481
v 0.213978 0.328933 -0.003157
v 0.213978 0.328113 -0.019749
v 0.213978 0.327723 -0.027495
v -0.750458 0.259940 0.437269
v -0.683968 0.208944 -0.027495
v -0.384597 0.198612 0.412609
v -0.734987 0.259615 0.437406
v -0.367975 0.242100 0.438231
v -0.367975 0.259940 0.439331
v 0.746064 0.224169 0.436581
v 0.184518 0.233499 0.437864
v 0.197356 0.243310 0.439285
v 0.197356 0.259940 0.440752
v 0.563216 0.198183 0.412609
v 0.729441 0.200135 0.423289
v 0.746064 0.210050 0.430623
v -0.730214 0.270949 0.437681
v -0.734987 0.276518 0.437269
v -0.733835 0.306070 0.425535
v -0.351352 0.286447 0.438139
v -0.334730 0.286590 0.438139
v 0.463481 0.289258 0.439148
v 0.463481 0.297573 0.434702
v -0.733835 0.314385 0.414443
v -0.733835 0.319030 0.406147
v -0.717213 0.319134 0.406330
v 0.391395 0.318315 0.404726
v 0.380203 0.320280 0.395972
v 0.380203 0.323077 0.379334
v 0.729441 0.326578 0.329420
v 0.746064 0.327358 0.312827
v 0.746064 0.328165 0.296189
v 0.762686 0.327397 0.279551
v 0.762686 0.327606 0.262913
v 0.746064 0.328647 0.262913
v 0.746064 0.328308 0.246275
v 0.779473 0.322127 -0.027495
v 0.770421 0.322231 -0.027495
v 0.221713 0.327658 -0.027495
v -0.730214 0.264937 0.437681
v 0.696196 0.208944 -0.027495
v 0.563216 0.198495 0.395972
v -0.351352 0.259940 0.439377
v -0.351352 0.276557 0.439148
v 0.762686 0.210050 0.430348
v 0.762686 0.224976 0.436489
v 0.746064 0.232484 0.437956
v 0.746064 0.243310 0.438689
v 0.463481 0.276557 0.440477
v 0.197356 0.276557 0.440523
v 0.729441 0.198417 0.412609
v 0.746064 0.200161 0.423289
v -0.717213 0.306096 0.425535
v -0.717213 0.314411 0.414672
v 0.796096 0.269726 0.437773
v 0.480103 0.288828 0.439010
v 0.796096 0.293187 0.428560
v 0.809098 0.301802 0.421364
v 0.463481 0.304560 0.426406
v 0.446694 0.304873 0.426406
v 0.430071 0.305250 0.426314
v 0.413449 0.305549 0.426177
v 0.396826 0.305849 0.425993
v 0.380203 0.314229 0.413022
v 0.646329 0.309778 0.412609
v 0.662951 0.316050 0.396613
v 0.662951 0.318289 0.388317
v 0.662951 0.319902 0.379334
v 0.696196 0.322270 0.362696
v 0.729441 0.324418 0.346058
v 0.712819 0.324561 0.346058
v 0.746064 0.325953 0.329420
v 0.762686 0.325862 0.312827
v 0.762686 0.326760 0.296189
v 0.779473 0.325393 0.279551
v 0.779473 0.325732 0.262913
v 0.779473 0.325862 0.246275
v 0.779473 0.325836 0.229637
v 0.812718 0.322257 0.146539
v 0.762686 0.327528 0.246275
v 0.812718 0.320969 -0.027495
v 0.803666 0.321334 -0.027495
v 0.787044 0.321945 -0.027495
v 0.712819 0.208957 -0.027495
v 0.755116 0.209022 -0.027495
v 0.579838 0.198521 0.395972
v 0.762686 0.200278 0.423060
v 0.779473 0.200512 0.422693
v 0.779473 0.210050 0.429660
v 0.796096 0.226680 0.435619
v 0.780461 0.227851 0.436444
v 0.775523 0.234175 0.437681
v 0.762686 0.233291 0.437819
v 0.762686 0.243310 0.438460
v 0.796096 0.259940 0.438231
v 0.746064 0.259940 0.438598
v 0.762686 0.209035 -0.027495
v 0.746064 0.198534 0.412609
v 0.804983 0.269244 0.437681
v 0.796096 0.278041 0.436398
v 0.813870 0.294814 0.426406
v 0.820124 0.301437 0.420768
v 0.813870 0.304092 0.414168
v 0.672497 0.318198 0.387905
v 0.678751 0.319447 0.380434
v 0.712819 0.321932 0.362696
v 0.729441 0.321360 0.362696
v 0.746064 0.323494 0.346058
v 0.762686 0.321958 0.346058
v 0.762686 0.324379 0.329420
v 0.779473 0.322270 0.329420
v 0.779473 0.323715 0.312827
v 0.779473 0.324652 0.296189
v 0.819631 0.318015 0.318190
v 0.821276 0.318237 0.307098
v 0.822099 0.318458 0.296189
v 0.812718 0.320839 0.262913
v 0.812718 0.321256 0.246275
v 0.812718 0.321581 0.229637
v 0.812718 0.321828 0.212999
v 0.812718 0.322023 0.196453
v 0.812718 0.322114 0.179815
v 0.827860 0.320123 0.146539
v 0.827695 0.320058 0.129901
v 0.825391 0.319421 -0.027495
v 0.762686 0.198807 0.412609
v 0.779473 0.199198 0.412609
v 0.796096 0.200863 0.422189
v 0.796096 0.210050 0.428697
v 0.796096 0.236791 0.437406
v 0.812718 0.210050 0.427277
v 0.812718 0.226680 0.433923
v 0.796096 0.245106 0.438002
v 0.805806 0.248008 0.437864
v 0.805971 0.259940 0.437864
v 0.771738 0.209152 -0.027495
v 0.779473 0.209269 -0.027495
v 0.814200 0.259940 0.436031
v 0.811402 0.275490 0.435481
v 0.829341 0.290103 0.424389
v 0.829341 0.302908 0.408393
v 0.812718 0.309167 0.395972
v 0.838064 0.286369 0.421639
v 0.829341 0.298418 0.416689
v 0.837570 0.301528 0.404359
v 0.712819 0.317222 0.383917
v 0.729441 0.318900 0.374017
v 0.712819 0.319239 0.375575
v 0.742443 0.318523 0.372458
v 0.747216 0.319928 0.364116
v 0.812718 0.311952 0.379334
v 0.812718 0.314151 0.362696
v 0.812718 0.316076 0.346058
v 0.829341 0.308412 0.379334
v 0.829341 0.310234 0.362696
v 0.829341 0.311926 0.346058
v 0.829341 0.313487 0.329420
v 0.827860 0.315179 0.312690
v 0.830328 0.314879 0.296189
v 0.831316 0.315192 0.279551
v 0.823087 0.318757 0.279551
v 0.824568 0.319265 0.246275
v 0.825226 0.319473 0.229637
v 0.826378 0.319746 0.196453
v 0.836089 0.317274 0.146539
v 0.836089 0.317287 0.129901
v 0.829835 0.317716 -0.027495
v 0.812718 0.210154 -0.027495
v 0.796096 0.199731 0.412609
v 0.812718 0.201319 0.421501
v 0.821276 0.201631 0.421043
v 0.827860 0.210610 0.423610
v 0.829341 0.226680 0.428239
v 0.811895 0.242803 0.436123
v 0.829341 0.243310 0.429385
v 0.829341 0.259940 0.429339
v 0.829341 0.276557 0.428468
v 0.829341 0.305888 0.395972
v 0.838557 0.276557 0.422189
v 0.841520 0.276557 0.412609
v 0.839051 0.292420 0.410959
v 0.841520 0.293187 0.395972
v 0.838228 0.302257 0.395972
v 0.839380 0.303428 0.379334
v 0.839874 0.304248 0.362696
v 0.840368 0.304990 0.346058
v 0.840697 0.305719 0.329420
v 0.832139 0.315465 0.262913
v 0.835266 0.316792 0.179815
v 0.841026 0.306226 0.312827
v 0.841191 0.306877 0.279551
v 0.841355 0.308477 0.179815
v 0.841355 0.308946 0.146539
v 0.841355 0.308972 0.129901
v 0.833785 0.316181 -0.027495
v 0.841191 0.307866 -0.027495
v 0.829341 0.212796 -0.027495
v 0.822593 0.201332 0.400784
v 0.812718 0.200499 0.412609
v 0.822429 0.201358 0.412609
v 0.830658 0.205977 0.412609
v 0.838393 0.216543 0.421776
v 0.838886 0.226680 0.422464
v 0.838886 0.243310 0.422739
v 0.838722 0.259940 0.422556
v 0.842013 0.259940 0.412609
v 0.844318 0.276557 0.395972
v 0.843001 0.293187 0.379334
v 0.843824 0.293187 0.362696
v 0.844482 0.293187 0.346058
v 0.834114 0.316220 0.212999
v 0.844976 0.293187 0.329420
v 0.845141 0.293187 0.312827
v 0.845470 0.293187 0.279551
v 0.845634 0.293187 0.246275
v 0.845634 0.293187 -0.027495
v 0.839216 0.216856 -0.027495
v 0.828518 0.204598 0.395513
v 0.840532 0.213446 0.395972
v 0.839545 0.214292 0.412609
v 0.841849 0.226680 0.412609
v 0.842178 0.243310 0.412609
v 0.844811 0.259940 0.395972
v 0.845305 0.276557 0.379334
v 0.845799 0.276557 0.362696
v 0.846128 0.276557 0.346058
v 0.846457 0.276557 0.312827
v 0.846128 0.284261 -0.027495
v 0.843166 0.226680 -0.027495
v 0.844482 0.226680 0.379334
v 0.844153 0.226680 0.395972
v 0.844811 0.243310 0.395972
v 0.845799 0.259940 0.379334
v 0.846128 0.259940 0.362696
v 0.846622 0.259940 0.329420
v 0.846786 0.259940 0.279551
v 0.846457 0.276557 -0.027495
v 0.844482 0.234384 -0.027495
v 0.846128 0.243310 -0.019749
v 0.846128 0.243310 0.346058
v 0.845963 0.243310 0.362696
v 0.845634 0.243310 0.379334
v 0.846622 0.259940 -0.027495
v 0.846622 0.267631 -0.027495
v 0.845963 0.243310 -0.027495
v 0.846293 0.251014 -0.027495
vn -1.0000 -0.0000 -0.0068
vn -0.0000 -0.0000 -1.0000
vn -0.9997 -0.0214 -0.0068
vn -1.0000 0.0099 -0.0000
vn -1.0000 0.0050 -0.0049
vn -0.9993 -0.0369 -0.0018
vn -0.9992 -0.0396 -0.0000
vn -0.9993 -0.0385 0.0005
vn -0.9996 -0.0297 0.0009
vn -1.0000 0.0099 0.0009
vn -0.9995 0.0213 -0.0212
vn -0.9999 0.0132 0.0011
vn -0.9986 0.0527 0.0011
vn -0.9984 0.0568 0.0008
vn -0.9984 0.0571 0.0007
vn -0.9985 0.0552 -0.0000
vn -0.9991 0.0368 -0.0212
vn -0.9857 -0.1685 -0.0028
vn -0.9951 -0.0985 -0.0000
vn -0.9962 -0.0872 0.0005
vn -0.9982 -0.0592 0.0099
vn -0.9995 -0.0297 0.0099
vn -0.9998 0.0198 0.0099
vn -0.9998 0.0198 0.0033
vn -0.9982 0.0593 0.0033
vn -0.9575 0.2883 0.0047
vn -0.9575 0.2883 0.0027
vn -0.9580 0.2867 0.0011
vn -0.9582 0.2860 0.0008
vn -0.9976 0.0691 0.0049
vn -0.9582 0.2862 0.0008
vn -0.9601 0.2796 -0.0000
vn -0.9980 0.0640 -0.0000
vn -0.9834 -0.1813 -0.0031
vn -0.9987 -0.0494 0.0148
vn -0.9642 -0.2651 -0.0030
vn -0.9633 -0.2649 0.0433
vn -0.9729 -0.2144 0.0866
vn -0.9949 -0.0492 0.0886
vn -0.9995 -0.0297 0.0148
vn -0.9996 -0.0099 0.0247
vn -0.9995 0.0198 0.0247
vn -0.9994 0.0297 0.0198
vn -0.9959 0.0887 0.0197
vn -0.9960 0.0887 0.0099
vn -0.9558 0.2937 0.0095
vn -0.9553 0.2954 0.0080
vn -0.7648 0.6442 0.0131
vn -0.7178 0.6961 0.0136
vn -0.7250 0.6888 0.0065
vn -0.7250 0.6888 0.0027
vn -0.9551 0.2963 0.0005
vn -0.7250 0.6888 0.0011
vn -0.9545 0.2983 0.0004
vn -0.9296 -0.3685 -0.0066
vn -0.9944 -0.0394 0.0984
vn -0.9951 -0.0098 0.0984
vn -0.9269 -0.3753 -0.0067
vn -0.6870 -0.7266 -0.0091
vn -0.7388 -0.6726 0.0424
vn -0.7077 -0.6443 0.2900
vn -0.9550 -0.2105 0.2088
vn -0.9385 -0.0978 0.3310
vn -0.9424 -0.0373 0.3324
vn -0.9951 0.0098 0.0984
vn -0.9959 0.0197 0.0887
vn -0.9926 0.1179 0.0295
vn -0.9867 0.1367 0.0878
vn -0.9898 0.1371 0.0392
vn -0.9468 0.3205 0.0281
vn -0.9470 0.3206 0.0186
vn -0.9478 0.3185 0.0169
vn -0.9482 0.3172 0.0163
vn -0.6852 0.7280 0.0227
vn -0.6936 0.7201 0.0199
vn -0.7161 0.6978 0.0142
vn -0.4024 0.9153 0.0158
vn -0.3963 0.9180 0.0122
vn -0.3963 0.9181 0.0036
vn -0.7249 0.6888 0.0010
vn -0.7286 0.6849 0.0009
vn -0.7087 0.7055 0.0005
vn -0.3919 0.9200 0.0010
vn -0.9394 -0.0308 0.3416
vn -0.9397 -0.0159 0.3417
vn -0.9429 -0.0093 0.3330
vn -0.3802 -0.9247 -0.0210
vn -0.4521 -0.8918 -0.0172
vn -0.4424 -0.8968 -0.0093
vn -0.4373 -0.8864 0.1521
vn -0.5938 -0.6890 0.4157
vn -0.3923 -0.4795 0.7850
vn -0.2963 -0.2675 0.9168
vn -0.4622 -0.1058 0.8804
vn -0.4631 -0.0875 0.8820
vn -0.5204 -0.0409 0.8530
vn -0.9429 -0.0055 0.3330
vn -0.9495 0.0094 0.3137
vn -0.9469 0.0739 0.3128
vn -0.9637 0.1635 0.2111
vn -0.9781 0.1693 0.1209
vn -0.9480 0.3159 0.0375
vn -0.9459 0.3230 0.0324
vn -0.9459 0.3230 0.0301
vn -0.9497 0.2931 0.1101
vn -0.9431 0.3211 0.0863
vn -0.9458 0.3221 0.0419
vn -0.6006 0.7986 0.0400
vn -0.6143 0.7882 0.0366
vn -0.6485 0.7606 0.0300
vn -0.6587 0.7519 0.0283
vn -0.6801 0.7327 0.0240
vn -0.4071 0.9130 0.0249
vn -0.4023 0.9152 0.0220
vn -0.1233 0.9923 0.0145
vn -0.1225 0.9924 0.0140
vn -0.1225 0.9924 0.0071
vn -0.1183 0.9930 0.0039
vn -0.1183 0.9930 -0.0014
vn -0.3246 0.9459 -0.0015
vn -0.5204 -0.0400 0.8530
vn -0.5413 -0.0216 0.8405
vn -0.5414 -0.0139 0.8406
vn -0.1546 -0.9876 -0.0255
vn -0.0496 -0.9985 -0.0229
vn -0.0699 -0.9975 -0.0049
vn -0.0697 -0.9947 0.0753
vn -0.1522 -0.3504 0.9241
vn -0.0183 -0.9912 0.1310
vn -0.0132 -0.9863 0.1646
vn -0.0184 -0.5133 0.8580
vn -0.0190 -0.5107 0.8596
vn -0.0328 -0.4610 0.8868
vn -0.1536 -0.3219 0.9342
vn -0.2124 -0.2687 0.9395
vn -0.2185 -0.1358 0.9663
vn -0.2572 -0.0954 0.9616
vn -0.2581 -0.0452 0.9651
vn -0.5388 -0.0116 0.8423
vn -0.5364 0.0944 0.8386
vn -0.3946 0.2350 0.8883
vn -0.4555 0.4036 0.7935
vn -0.8879 0.3526 0.2956
vn -0.8863 0.3764 0.2697
vn -0.5486 0.8345 0.0522
vn -0.5520 0.8323 0.0505
vn -0.5694 0.8207 0.0461
vn -0.5705 0.8200 0.0459
vn -0.5742 0.8175 0.0450
vn -0.3659 0.8954 0.2537
vn -0.3335 0.9238 0.1883
vn -0.4346 0.8953 0.0980
vn -0.4477 0.8894 0.0923
vn -0.4549 0.8863 0.0867
vn -0.4976 0.8647 0.0683
vn -0.4271 0.9033 0.0395
vn -0.4130 0.9101 0.0347
vn -0.4106 0.9112 0.0331
vn -0.4107 0.9113 0.0305
vn -0.4071 0.9129 0.0282
vn -0.1236 0.9922 0.0181
vn -0.1233 0.9922 0.0178
vn -0.0801 0.9966 0.0179
vn -0.0724 0.9973 0.0140
vn -0.0718 0.9973 0.0138
vn -0.0546 0.9985 0.0039
vn -0.0607 0.9981 -0.0041
vn -0.0631 0.9980 -0.0040
vn -0.0386 0.9992 -0.0041
vn -0.2557 -0.0426 0.9658
vn -0.2559 -0.0133 0.9666
vn -0.0269 -0.9994 -0.0230
vn -0.0185 -0.9996 -0.0223
vn -0.0516 -0.3253 0.9442
vn -0.0347 -0.3508 0.9358
vn -0.0468 -0.3296 0.9430
vn -0.0135 -0.9997 -0.0225
vn -0.0094 -0.9997 -0.0225
vn -0.0093 -0.9859 0.1669
vn -0.0119 -0.9859 0.1669
vn -0.0146 -0.9996 -0.0225
vn -0.0147 -0.5182 0.8552
vn -0.0181 -0.3487 0.9371
vn -0.0207 -0.3509 0.9362
vn -0.0067 -0.5182 0.8552
vn -0.0040 -0.5146 0.8574
vn -0.0044 -0.3487 0.9372
vn -0.0539 -0.1523 0.9869
vn -0.0674 -0.1389 0.9880
vn -0.0680 -0.0440 0.9967
vn -0.2230 0.0215 0.9746
vn -0.2157 0.2546 0.9427
vn -0.2178 0.2566 0.9417
vn -0.1893 0.4528 0.8713
vn -0.3405 0.5116 0.7888
vn -0.2846 0.8971 0.3380
vn -0.3864 0.9195 0.0726
vn -0.4220 0.9048 0.0567
vn -0.4662 0.8832 0.0506
vn -0.4304 0.9015 0.0452
vn -0.4294 0.9021 0.0441
vn -0.4294 0.9022 0.0410
vn -0.1836 0.9389 0.2911
vn -0.1883 0.9524 0.2398
vn -0.2297 0.9528 0.1986
vn -0.2322 0.9632 0.1356
vn -0.2614 0.9595 0.1051
vn -0.2614 0.9595 0.1046
vn -0.2917 0.9517 0.0960
vn -0.3106 0.9460 0.0925
vn -0.1074 0.9939 0.0254
vn -0.1213 0.9924 0.0215
vn -0.1236 0.9921 0.0201
vn -0.0985 0.9948 0.0272
vn -0.0955 0.9951 0.0272
vn -0.1057 0.9931 0.0505
vn -0.0880 0.9948 0.0506
vn -0.0718 0.9968 0.0343
vn -0.0964 0.9950 0.0279
vn -0.1058 0.9935 0.0420
vn -0.0086 0.9994 0.0344
vn -0.0081 0.9994 0.0338
vn -0.0100 0.9999 0.0117
vn -0.0115 0.9999 -0.0008
vn -0.0126 0.9999 -0.0081
vn -0.0129 0.9999 -0.0085
vn -0.0128 0.9999 -0.0110
vn -0.0127 0.9998 -0.0151
vn -0.0572 -0.0330 0.9978
vn -0.0572 0.0220 0.9981
vn -0.0490 -0.1524 0.9871
vn -0.0191 -0.1525 0.9881
vn -0.0016 -0.9997 -0.0228
vn -0.0031 -0.9997 -0.0227
vn -0.0048 -0.9847 0.1744
vn -0.0031 -0.9847 0.1744
vn -0.0164 -0.1499 0.9886
vn -0.0041 -0.3430 0.9393
vn -0.0048 -0.2156 0.9765
vn -0.0063 -0.1499 0.9887
vn -0.0014 -0.9842 0.1772
vn -0.0022 -0.5667 0.8239
vn -0.0026 -0.5526 0.8334
vn -0.0029 -0.3442 0.9389
vn -0.0030 -0.3430 0.9393
vn -0.0495 -0.0358 0.9981
vn -0.0523 -0.0330 0.9981
vn -0.0523 0.0270 0.9983
vn -0.0439 0.0439 0.9981
vn -0.0427 0.2354 0.9710
vn -0.0428 0.2359 0.9708
vn -0.0512 0.2604 0.9641
vn -0.0905 0.5482 0.8315
vn -0.0450 0.5287 0.8476
vn -0.0512 0.5486 0.8345
vn -0.0517 0.5497 0.8338
vn -0.0836 0.8760 0.4750
vn -0.1259 0.9255 0.3573
vn -0.1279 0.9269 0.3528
vn -0.1189 0.9913 0.0561
vn -0.1593 0.9573 0.2411
vn -0.1531 0.9694 0.1921
vn -0.1532 0.9748 0.1624
vn -0.1559 0.9775 0.1423
vn -0.1577 0.9778 0.1377
vn -0.2594 0.9601 0.1044
vn -0.1528 0.9814 0.1161
vn -0.1527 0.9825 0.1068
vn -0.1393 0.9870 0.0807
vn -0.1318 0.9885 0.0743
vn -0.1295 0.9888 0.0745
vn -0.1275 0.9851 0.1157
vn -0.1112 0.9850 0.1322
vn -0.0965 0.9864 0.1327
vn -0.0874 0.9885 0.1237
vn -0.0132 0.9922 0.1242
vn -0.0085 0.9928 0.1196
vn 0.0003 0.9928 0.1196
vn -0.0060 0.9987 0.0509
vn 0.0028 0.9987 0.0509
vn 0.0028 0.9995 0.0305
vn 0.0027 0.9997 0.0262
vn 0.0022 0.9999 0.0117
vn 0.0021 1.0000 0.0067
vn -0.0016 1.0000 0.0002
vn -0.0022 1.0000 -0.0008
vn -0.0029 1.0000 -0.0021
vn -0.0057 1.0000 -0.0070
vn -0.0079 0.9999 -0.0106
vn -0.0078 0.9999 -0.0110
vn -0.0073 0.9999 -0.0151
vn -0.0055 0.9996 -0.0281
vn -0.0035 0.9989 -0.0461
vn -0.0034 0.9988 -0.0484
vn -0.0033 0.9988 -0.0494
vn -0.0033 0.9987 -0.0503
vn -0.0165 -0.0468 0.9988
vn -0.0275 -0.0358 0.9990
vn -0.0008 -0.9997 -0.0229
vn -0.0009 -0.9997 -0.0228
vn -0.0009 -0.9868 0.1621
vn -0.0099 -0.0468 0.9989
vn -0.0048 -0.0832 0.9965
vn -0.0047 -0.0615 0.9981
vn -0.0052 -0.0512 0.9987
vn -0.0018 -0.2180 0.9759
vn -0.0010 -0.2040 0.9790
vn -0.0008 -0.1831 0.9831
vn -0.0007 -0.1424 0.9898
vn -0.0016 -0.0879 0.9961
vn -0.0019 -0.0811 0.9967
vn -0.0004 -0.9869 0.1614
vn -0.0002 -0.9831 0.1828
vn -0.0004 -0.5943 0.8043
vn -0.0005 -0.5835 0.8121
vn -0.0006 -0.3888 0.9213
vn -0.0013 -0.3442 0.9389
vn -0.0276 0.0132 0.9995
vn -0.0336 0.0337 0.9989
vn -0.0295 0.0487 0.9984
vn -0.0283 0.2217 0.9747
vn -0.0375 0.5260 0.8497
vn -0.0079 0.2205 0.9754
vn -0.0036 0.4190 0.9080
vn -0.0027 0.4614 0.8872
vn -0.0026 0.4715 0.8819
vn -0.0028 0.5264 0.8503
vn -0.0405 0.5288 0.8478
vn -0.0542 0.7730 0.6321
vn -0.0541 0.8060 0.5894
vn -0.0785 0.8698 0.4871
vn -0.0812 0.8735 0.4800
vn -0.0443 0.7994 0.5992
vn -0.0623 0.9729 0.2227
vn -0.0931 0.9783 0.1850
vn -0.0948 0.9780 0.1860
vn -0.1222 0.9794 0.1605
vn -0.1430 0.9746 0.1725
vn -0.1461 0.9816 0.1232
vn -0.0130 0.9747 0.2231
vn -0.0086 0.9732 0.2298
vn 0.0011 0.9732 0.2298
vn 0.0012 0.9760 0.2176
vn 0.0012 0.9862 0.1658
vn 0.0005 0.9927 0.1208
vn 0.0031 0.9958 0.0918
vn 0.0032 0.9975 0.0712
vn 0.0242 0.9972 0.0712
vn 0.0242 0.9985 0.0484
vn 0.0063 0.9995 0.0305
vn 0.0063 0.9995 0.0297
vn 0.0757 0.9967 0.0296
vn 0.0757 0.9971 0.0125
vn 0.0625 0.9980 -0.0008
vn 0.0049 1.0000 -0.0008
vn -0.0016 1.0000 -0.0008
vn 0.0072 0.9999 -0.0070
vn 0.0126 0.9997 -0.0203
vn 0.0129 0.9997 -0.0210
vn 0.0119 0.9995 -0.0281
vn 0.0115 0.9994 -0.0326
vn 0.0101 0.9989 -0.0461
vn 0.0099 0.9988 -0.0484
vn 0.0099 0.9987 -0.0492
vn 0.0094 0.9987 -0.0493
vn 0.0084 0.9987 -0.0503
vn -0.0098 -0.0429 0.9990
vn -0.0204 -0.0000 0.9998
vn -0.0000 -0.9997 -0.0247
vn -0.0005 -0.9997 -0.0231
vn -0.0005 -0.9998 -0.0188
vn -0.0052 -0.0470 0.9989
vn -0.0028 -0.0615 0.9981
vn -0.0025 -0.0618 0.9981
vn -0.0028 0.0138 0.9999
vn -0.0041 0.0151 0.9999
vn -0.0046 -0.0000 1.0000
vn 0.0152 -0.3888 0.9212
vn 0.0236 -0.3804 0.9245
vn 0.0134 -0.1631 0.9865
vn -0.0005 -0.1632 0.9866
vn -0.0004 -0.1428 0.9898
vn 0.0007 -0.0879 0.9961
vn 0.0017 -0.0676 0.9977
vn 0.0029 -0.0294 0.9996
vn 0.0002 0.0138 0.9999
vn -0.0025 0.0138 0.9999
vn 0.0014 -0.9998 -0.0188
vn 0.0014 -0.9873 0.1588
vn 0.0015 -0.9873 0.1588
vn 0.0009 -0.5956 0.8032
vn 0.0133 -0.5956 0.8032
vn -0.0049 0.0697 0.9976
vn -0.0049 0.1014 0.9948
vn -0.0012 0.7941 0.6078
vn -0.0095 0.8001 0.5998
vn -0.0010 0.6623 0.7492
vn -0.0025 0.1014 0.9948
vn -0.0017 0.1432 0.9897
vn -0.0020 0.2330 0.9725
vn 0.0002 0.1041 0.9946
vn 0.0102 0.1041 0.9945
vn 0.0114 0.1248 0.9921
vn 0.0195 0.4714 0.8817
vn 0.0225 0.4760 0.8792
vn 0.0227 0.6206 0.7838
vn 0.0155 0.7647 0.6441
vn 0.0142 0.7648 0.6442
vn 0.0138 0.7643 0.6447
vn 0.0081 0.7535 0.6573
vn 0.0061 0.7479 0.6637
vn -0.0001 0.7244 0.6894
vn -0.0082 0.8702 0.4927
vn -0.0109 0.8725 0.4885
vn 0.0009 0.8702 0.4927
vn 0.0013 0.8964 0.4433
vn 0.0156 0.8885 0.4586
vn 0.0191 0.9239 0.3821
vn 0.0158 0.9654 0.2604
vn 0.0124 0.9789 0.2039
vn 0.0117 0.9842 0.1768
vn 0.0111 0.9861 0.1658
vn 0.0111 0.9866 0.1626
vn 0.0103 0.9889 0.1483
vn 0.0085 0.9915 0.1296
vn 0.0084 0.9917 0.1287
vn 0.0085 0.9916 0.1287
vn 0.0372 0.9910 0.1287
vn 0.0374 0.9957 0.0843
vn 0.0893 0.9924 0.0841
vn 0.0895 0.9945 0.0537
vn 0.0841 0.9953 0.0483
vn 0.0842 0.9957 0.0382
vn 0.1184 0.9922 0.0380
vn 0.1185 0.9927 0.0202
vn 0.1109 0.9938 0.0124
vn 0.1109 0.9938 0.0078
vn 0.1018 0.9948 -0.0016
vn 0.0965 0.9953 -0.0043
vn 0.0955 0.9954 -0.0047
vn 0.0625 0.9980 -0.0047
vn 0.0530 0.9985 -0.0142
vn 0.0402 0.9990 -0.0172
vn 0.0368 0.9992 -0.0179
vn 0.0241 0.9995 -0.0197
vn 0.0184 0.9996 -0.0203
vn 0.0008 -0.9997 -0.0244
vn 0.0015 -0.9997 -0.0242
vn 0.0016 -0.9997 -0.0241
vn 0.0016 -0.9998 -0.0203
vn 0.0153 -0.5977 0.8015
vn 0.0258 -0.5976 0.8014
vn 0.0331 -0.5895 0.8071
vn 0.0378 -0.3803 0.9241
vn 0.0433 -0.3750 0.9260
vn 0.0361 -0.2073 0.9776
vn 0.0299 -0.1694 0.9851
vn 0.0215 -0.1578 0.9872
vn 0.0158 -0.1578 0.9873
vn 0.0115 -0.0676 0.9976
vn 0.0138 -0.0639 0.9979
vn 0.0138 -0.0139 0.9998
vn 0.0073 0.0055 1.0000
vn 0.0070 0.0055 1.0000
vn 0.0073 0.0115 0.9999
vn 0.0091 0.0468 0.9989
vn 0.0070 -0.9997 -0.0236
vn 0.0070 -0.9886 0.1506
vn 0.0020 -0.9997 -0.0240
vn 0.0090 -0.9886 0.1506
vn -0.0001 0.7941 0.6078
vn 0.0010 0.8405 0.5418
vn 0.0128 0.0468 0.9988
vn 0.0190 0.1631 0.9864
vn 0.0137 0.1631 0.9865
vn 0.0230 0.4595 0.8879
vn 0.0654 0.4586 0.8862
vn 0.0414 0.6030 0.7966
vn 0.0628 0.6118 0.7885
vn 0.0491 0.9419 0.3323
vn 0.0370 0.9449 0.3253
vn 0.0244 0.9219 0.3868
vn 0.0152 0.8636 0.5039
vn 0.0146 0.8531 0.5216
vn 0.0150 0.8074 0.5898
vn 0.0150 0.8030 0.5958
vn 0.0109 0.8470 0.5314
vn 0.0093 0.8453 0.5342
vn 0.0430 0.9581 0.2833
vn 0.0205 0.9653 0.2604
vn 0.0171 0.9837 0.1788
vn 0.0161 0.9841 0.1768
vn 0.0164 0.9848 0.1729
vn 0.0200 0.9841 0.1764
vn 0.0201 0.9857 0.1673
vn 0.0339 0.9830 0.1807
vn 0.0546 0.9821 0.1805
vn 0.0549 0.9878 0.1460
vn 0.0910 0.9851 0.1456
vn 0.0933 0.9853 0.1433
vn 0.0939 0.9916 0.0887
vn 0.1241 0.9883 0.0884
vn 0.1264 0.9882 0.0860
vn 0.1267 0.9904 0.0558
vn 0.1244 0.9908 0.0535
vn 0.1245 0.9912 0.0442
vn 0.1393 0.9893 0.0441
vn 0.1424 0.9890 0.0409
vn 0.1486 0.9884 0.0313
vn 0.1497 0.9883 0.0285
vn 0.1478 0.9887 0.0247
vn 0.1433 0.9895 0.0201
vn 0.1429 0.9895 0.0193
vn 0.1384 0.9903 0.0147
vn 0.1339 0.9909 0.0117
vn 0.1262 0.9920 0.0078
vn 0.1227 0.9924 0.0054
vn 0.1204 0.9927 0.0043
vn 0.1032 0.9947 -0.0016
vn 0.1396 0.9902 0.0043
vn 0.1396 0.9902 -0.0053
vn 0.1387 0.9903 -0.0060
vn 0.1213 0.9926 -0.0073
vn 0.0902 0.9959 -0.0074
vn 0.0017 -0.9997 -0.0241
vn 0.0163 -0.9901 0.1393
vn 0.0169 -0.9901 0.1393
vn 0.0231 -0.9913 0.1292
vn 0.0249 -0.9913 0.1292
vn 0.0369 -0.5894 0.8070
vn 0.0472 -0.5774 0.8151
vn 0.0534 -0.3837 0.9219
vn 0.0389 -0.1740 0.9840
vn 0.0787 -0.3830 0.9204
vn 0.0943 -0.3694 0.9245
vn 0.1000 -0.1732 0.9798
vn 0.0343 -0.1661 0.9855
vn 0.0151 -0.0639 0.9978
vn 0.0224 -0.0715 0.9972
vn 0.0170 -0.0613 0.9980
vn 0.0145 -0.0154 0.9998
vn 0.0188 -0.0154 0.9997
vn 0.0371 -0.0005 0.9993
vn 0.0371 0.0236 0.9990
vn 0.0129 -0.9996 -0.0234
vn 0.0151 -0.9996 -0.0232
vn 0.0164 -0.9996 -0.0231
vn 0.2173 0.0423 0.9752
vn 0.2530 0.0796 0.9642
vn 0.0978 0.2397 0.9659
vn 0.1223 0.4091 0.9043
vn 0.2345 0.3885 0.8911
vn 0.2547 0.4760 0.8418
vn 0.1763 0.9535 0.2446
vn 0.1334 0.9568 0.2584
vn 0.4612 0.5875 0.6650
vn 0.4793 0.6073 0.6336
vn 0.4601 0.7382 0.4933
vn 0.3152 0.8860 0.3400
vn 0.0467 0.9629 0.2656
vn 0.0480 0.9674 0.2486
vn 0.0476 0.9686 0.2441
vn 0.0398 0.9763 0.2126
vn 0.0396 0.9765 0.2119
vn 0.0337 0.9794 0.1990
vn 0.0246 0.9825 0.1848
vn 0.0398 0.9764 0.2121
vn 0.0537 0.9758 0.2120
vn 0.0627 0.9777 0.2006
vn 0.0638 0.9798 0.1894
vn 0.0690 0.9796 0.1890
vn 0.0880 0.9825 0.1644
vn 0.0908 0.9831 0.1591
vn 0.1017 0.9845 0.1432
vn 0.1148 0.9848 0.1302
vn 0.1237 0.9854 0.1168
vn 0.1265 0.9854 0.1141
vn 0.1329 0.9859 0.1016
vn 0.1287 0.9879 0.0860
vn 0.1330 0.9895 0.0557
vn 0.1818 0.9768 0.1131
vn 0.2166 0.9691 0.1178
vn 0.2854 0.9527 0.1043
vn 0.3165 0.9437 0.0960
vn 0.3356 0.9379 0.0880
vn 0.3530 0.9329 0.0710
vn 0.3782 0.9238 0.0599
vn 0.3871 0.9208 0.0479
vn 0.3984 0.9162 0.0430
vn 0.3985 0.9163 0.0408
vn 0.3972 0.9168 0.0401
vn 0.1550 0.9875 0.0270
vn 0.1586 0.9870 0.0247
vn 0.1656 0.9859 0.0224
vn 0.1657 0.9860 0.0193
vn 0.1662 0.9859 0.0189
vn 0.1662 0.9860 0.0146
vn 0.1671 0.9858 0.0139
vn 0.1653 0.9862 0.0124
vn 0.1622 0.9867 0.0116
vn 0.1421 0.9898 0.0054
vn 0.3272 0.9448 0.0169
vn 0.3272 0.9449 0.0007
vn 0.3136 0.9495 -0.0068
vn 0.3136 0.9495 -0.0084
vn 0.3581 0.9336 -0.0117
vn 0.0232 -0.9995 -0.0229
vn 0.0321 -0.9992 -0.0225
vn 0.0319 -0.9926 0.1173
vn 0.0266 -0.9994 -0.0229
vn 0.0320 -0.9926 0.1173
vn 0.0495 -0.5774 0.8150
vn 0.0647 -0.5585 0.8270
vn 0.0714 -0.5457 0.8350
vn 0.1189 -0.1431 0.9825
vn 0.0355 -0.0714 0.9968
vn 0.2283 -0.4187 0.8790
vn 0.2321 -0.3610 0.9032
vn 0.3097 -0.2894 0.9057
vn 0.3215 -0.1119 0.9403
vn 0.1730 -0.1245 0.9770
vn 0.2521 -0.0287 0.9673
vn 0.2175 -0.0030 0.9761
vn 0.3610 -0.0436 0.9315
vn 0.4042 0.0025 0.9147
vn 0.4038 0.0479 0.9136
vn 0.3573 0.0972 0.9289
vn 0.3364 0.2715 0.9017
vn 0.3914 0.2654 0.8811
vn 0.1884 0.9550 0.2291
vn 0.2673 0.9370 0.2248
vn 0.1910 0.9681 0.1620
vn 0.0630 0.9776 0.2007
vn 0.0550 0.9733 0.2230
vn 0.0484 0.9682 0.2455
vn 0.9534 0.0645 0.2948
vn 0.9678 0.1700 0.1858
vn 0.8945 0.3485 0.2801
vn 0.5644 0.6285 0.5352
vn 0.5615 0.0744 0.8241
vn 0.9457 0.2769 0.1700
vn 0.9350 0.3393 0.1029
vn 0.4168 0.9022 0.1111
vn 0.3477 0.9270 0.1407
vn 0.2060 0.9675 0.1468
vn 0.2065 0.9700 0.1282
vn 0.4362 0.8945 0.0979
vn 0.4477 0.8893 0.0936
vn 0.4521 0.8874 0.0902
vn 0.4703 0.8786 0.0825
vn 0.5497 0.8334 0.0574
vn 0.5576 0.8284 0.0535
vn 0.5599 0.8270 0.0513
vn 0.4472 0.8930 0.0507
vn 0.5666 0.8226 0.0491
vn 0.5745 0.8172 0.0472
vn 0.5893 0.8068 0.0424
vn 0.3973 0.9170 0.0347
vn 0.3922 0.9193 0.0315
vn 0.3957 0.9179 0.0296
vn 0.3788 0.9251 0.0266
vn 0.3602 0.9326 0.0224
vn 0.3399 0.9403 0.0195
vn 0.6904 0.7229 0.0275
vn 0.8042 0.5941 0.0156
vn 0.8407 0.5414 0.0101
vn 0.8452 0.5345 0.0075
vn 0.8452 0.5345 0.0008
vn 0.8448 0.5351 0.0004
vn 0.3623 0.9320 -0.0119
vn 0.8448 0.5351 -0.0046
vn 0.7467 0.6650 -0.0156
vn 0.1569 -0.9873 -0.0240
vn 0.0580 -0.9981 -0.0219
vn 0.0461 -0.9987 -0.0219
vn 0.0460 -0.9952 0.0869
vn 0.0416 -0.9941 0.0997
vn 0.0880 -0.9951 0.0443
vn 0.4873 -0.8681 0.0947
vn 0.6162 -0.7227 0.3130
vn 0.4229 -0.5219 0.7408
vn 0.3200 -0.2894 0.9021
vn 0.5159 -0.0830 0.8526
vn 0.5167 -0.0589 0.8541
vn 0.3612 -0.0641 0.9303
vn 0.5713 -0.0136 0.8206
vn 0.5714 0.0023 0.8207
vn 0.5859 0.0147 0.8102
vn 0.5858 0.0237 0.8101
vn 0.5625 0.0433 0.8256
vn 0.9492 0.0163 0.3141
vn 0.9550 0.0284 0.2953
vn 0.9711 0.1687 0.1686
vn 0.9857 0.0293 0.1658
vn 0.9729 0.1637 0.1636
vn 0.9824 0.1653 0.0875
vn 0.9395 0.3322 0.0836
vn 0.9363 0.3398 0.0888
vn 0.9418 0.3330 0.0466
vn 0.9408 0.3360 0.0445
vn 0.9409 0.3360 0.0429
vn 0.9436 0.3289 0.0373
vn 0.9437 0.3290 0.0331
vn 0.6150 0.7877 0.0363
vn 0.9457 0.3237 0.0287
vn 0.4021 0.9151 0.0297
vn 0.6151 0.7876 0.0362
vn 0.6229 0.7815 0.0351
vn 0.9462 0.3224 0.0281
vn 0.9532 0.3023 0.0106
vn 0.9544 0.2984 0.0095
vn 0.9544 0.2983 0.0094
vn 0.9544 0.2983 0.0064
vn 0.9575 0.2885 0.0047
vn 0.9583 0.2857 0.0040
vn 0.9644 0.2645 0.0004
vn 0.9652 0.2617 -0.0000
vn 0.9571 0.2897 -0.0030
vn 0.3802 -0.9247 -0.0188
vn 0.4735 -0.8807 -0.0135
vn 0.4887 -0.8724 0.0087
vn 0.0881 -0.9961 0.0034
vn 0.4895 -0.8720 0.0091
vn 0.5943 -0.8042 -0.0083
vn 0.6812 -0.7280 0.0774
vn 0.6604 -0.7058 0.2563
vn 0.5890 -0.8081 -0.0085
vn 0.9695 -0.1803 0.1661
vn 0.9556 -0.0660 0.2873
vn 0.9575 -0.0189 0.2878
vn 0.9510 -0.0051 0.3090
vn 0.9510 0.0094 0.3090
vn 0.9493 0.0129 0.3142
vn 0.9861 0.0098 0.1658
vn 0.9978 0.0296 0.0592
vn 0.9888 0.1370 0.0587
vn 0.9894 0.1371 0.0489
vn 0.9911 0.1275 0.0392
vn 0.9937 0.1082 0.0295
vn 0.9959 0.0887 0.0197
vn 0.9968 0.0790 0.0099
vn 0.9968 0.0789 0.0099
vn 0.9976 0.0691 0.0049
vn 0.9987 0.0501 0.0002
vn 0.9985 0.0552 -0.0000
vn 0.9278 -0.3730 -0.0059
vn 0.9572 -0.2896 -0.0031
vn 0.9644 -0.2639 0.0191
vn 0.9621 -0.2633 0.0705
vn 0.9742 -0.1812 0.1349
vn 0.9898 -0.0392 0.1371
vn 0.9875 -0.0196 0.1563
vn 0.9877 -0.0000 0.1563
vn 0.9982 -0.0000 0.0592
vn 0.9991 0.0297 0.0297
vn 0.9996 0.0198 0.0198
vn 0.9998 0.0149 0.0148
vn 0.9998 0.0198 0.0099
vn 0.9999 0.0132 0.0033
vn 0.9998 0.0198 -0.0000
vn 0.9991 0.0427 -0.0000
vn 0.9856 -0.1684 -0.0153
vn 0.9848 -0.1739 -0.0032
vn 0.9951 -0.0985 -0.0000
vn 0.9968 -0.0789 0.0099
vn 0.9974 -0.0691 0.0197
vn 0.9980 -0.0395 0.0494
vn 0.9987 -0.0099 0.0494
vn 0.9998 -0.0099 0.0198
vn 0.9998 -0.0099 0.0148
vn 0.9998 -0.0198 0.0099
vn 0.9996 -0.0264 0.0033
vn 1.0000 -0.0000 -0.0005
vn 0.9998 0.0184 -0.0001
vn 0.9992 -0.0395 -0.0000
vn 0.9996 -0.0299 -0.0005
vn 0.9863 -0.1637 -0.0209
vn 0.9989 -0.0427 -0.0212
vn 0.9992 -0.0368 -0.0154
s 0
f 1//1 2//1 3//1
f 1//2 3//2 11//2
f 1//2 11//2 15//2
f 1//2 15//2 26//2
f 1//2 26//2 25//2
f 1//2 25//2 41//2
f 1//2 41//2 58//2
f 1//2 58//2 59//2
f 1//2 59//2 82//2
f 1//2 82//2 110//2
f 1//2 110//2 109//2
f 1//2 109//2 142//2
f 1//2 142//2 182//2
f 1//2 182//2 218//2
f 1//2 218//2 217//2
f 1//2 217//2 216//2
f 1//2 216//2 262//2
f 1//2 262//2 261//2
f 1//2 261//2 260//2
f 1//2 260//2 304//2
f 1//2 304//2 346//2
f 1//2 346//2 374//2
f 1//2 374//2 375//2
f 1//2 375//2 395//2
f 1//2 395//2 407//2
f 1//2 407//2 416//2
f 1//2 416//2 423//2
f 1//2 423//2 422//2
f 1//2 422//2 425//2
f 1//2 425//2 424//2
f 1//2 424//2 417//2
f 1//2 417//2 408//2
f 1//2 408//2 396//2
f 1//2 396//2 376//2
f 1//2 376//2 347//2
f 1//2 347//2 316//2
f 1//2 316//2 315//2
f 1//2 315//2 276//2
f 1//2 276//2 264//2
f 1//2 264//2 263//2
f 1//2 263//2 220//2
f 1//2 220//2 184//2
f 1//2 184//2 145//2
f 1//2 145//2 116//2
f 1//2 116//2 115//2
f 1//2 115//2 112//2
f 1//2 112//2 84//2
f 1//2 84//2 62//2
f 1//2 62//2 44//2
f 1//2 44//2 42//2
f 1//2 42//2 27//2
f 1//2 27//2 16//2
f 1//2 16//2 7//2
f 1//2 7//2 4//2
f 1//3 4//3 2//3
f 2//4 5//4 6//4
f 2//5 6//5 3//5
f 2//6 4//6 7//6
f 2//7 7//7 8//7
f 2//8 8//8 9//8
f 2//9 9//9 10//9
f 2//10 10//10 5//10
f 3//11 6//11 11//11
f 5//12 10//12 12//12
f 5//13 12//13 13//13
f 5//14 13//14 14//14
f 5//15 14//15 15//15
f 5//16 15//16 6//16
f 6//17 15//17 11//17
f 7//18 16//18 17//18
f 7//19 17//19 8//19
f 8//20 17//20 9//20
f 9//21 17//21 18//21
f 9//22 18//22 19//22
f 9//22 19//22 10//22
f 10//23 19//23 20//23
f 10//24 20//24 12//24
f 12//25 20//25 13//25
f 13//26 21//26 22//26
f 13//27 22//27 23//27
f 13//28 23//28 24//28
f 13//29 24//29 14//29
f 13//30 20//30 21//30
f 14//31 24//31 25//31
f 14//32 25//32 26//32
f 14//33 26//33 15//33
f 16//34 27//34 17//34
f 17//35 28//35 18//35
f 17//36 27//36 29//36
f 17//37 29//37 30//37
f 17//38 30//38 31//38
f 17//39 31//39 28//39
f 18//40 28//40 19//40
f 19//41 28//41 32//41
f 19//42 32//42 33//42
f 19//43 33//43 20//43
f 20//44 33//44 34//44
f 20//45 34//45 35//45
f 20//45 35//45 21//45
f 21//46 35//46 36//46
f 21//47 36//47 22//47
f 22//48 36//48 37//48
f 22//49 37//49 38//49
f 22//50 38//50 23//50
f 23//51 38//51 40//51
f 23//51 40//51 24//51
f 24//52 39//52 25//52
f 24//53 40//53 39//53
f 25//54 39//54 41//54
f 27//55 42//55 29//55
f 28//56 31//56 43//56
f 28//57 43//57 48//57
f 28//57 48//57 32//57
f 29//58 42//58 44//58
f 29//59 44//59 45//59
f 29//60 45//60 30//60
f 30//61 45//61 46//61
f 30//62 46//62 31//62
f 31//63 46//63 47//63
f 31//64 47//64 43//64
f 32//65 48//65 49//65
f 32//66 49//66 33//66
f 33//67 50//67 34//67
f 33//68 49//68 51//68
f 33//69 51//69 50//69
f 34//70 50//70 52//70
f 34//71 52//71 53//71
f 34//72 53//72 54//72
f 34//73 54//73 36//73
f 34//46 36//46 35//46
f 36//74 54//74 55//74
f 36//75 55//75 38//75
f 36//76 38//76 37//76
f 38//77 55//77 56//77
f 38//78 56//78 57//78
f 38//79 57//79 40//79
f 39//80 40//80 58//80
f 39//81 58//81 41//81
f 40//82 59//82 58//82
f 40//83 57//83 59//83
f 43//84 47//84 60//84
f 43//85 60//85 61//85
f 43//86 61//86 48//86
f 44//87 62//87 63//87
f 44//88 63//88 45//88
f 45//89 63//89 64//89
f 45//90 64//90 65//90
f 45//91 65//91 46//91
f 46//92 65//92 66//92
f 46//93 66//93 67//93
f 46//94 67//94 47//94
f 47//95 67//95 68//95
f 47//96 68//96 60//96
f 48//97 61//97 69//97
f 48//98 69//98 49//98
f 49//99 69//99 70//99
f 49//100 70//100 71//100
f 49//101 71//101 51//101
f 50//102 51//102 72//102
f 50//103 72//103 73//103
f 50//104 73//104 52//104
f 51//105 71//105 74//105
f 51//106 74//106 75//106
f 51//107 75//107 72//107
f 52//108 73//108 76//108
f 52//109 76//109 77//109
f 52//110 77//110 55//110
f 52//111 55//111 53//111
f 53//112 55//112 54//112
f 55//113 77//113 78//113
f 55//114 78//114 56//114
f 56//115 78//115 79//115
f 56//116 79//116 80//116
f 56//117 80//117 57//117
f 57//118 80//118 81//118
f 57//119 81//119 82//119
f 57//120 82//120 59//120
f 60//121 68//121 83//121
f 60//122 83//122 61//122
f 61//123 83//123 69//123
f 62//124 84//124 63//124
f 63//125 84//125 85//125
f 63//126 85//126 64//126
f 64//127 85//127 65//127
f 65//128 86//128 66//128
f 65//129 85//129 87//129
f 65//130 87//130 88//130
f 65//131 88//131 89//131
f 65//132 89//132 90//132
f 65//133 90//133 86//133
f 66//134 86//134 91//134
f 66//135 91//135 67//135
f 67//136 91//136 92//136
f 67//137 92//137 68//137
f 68//138 92//138 83//138
f 69//139 83//139 93//139
f 69//140 93//140 70//140
f 70//141 93//141 94//141
f 70//142 94//142 95//142
f 70//143 95//143 71//143
f 71//144 95//144 74//144
f 72//145 75//145 96//145
f 72//146 96//146 97//146
f 72//147 97//147 98//147
f 72//148 98//148 73//148
f 73//149 98//149 76//149
f 74//150 95//150 99//150
f 74//151 99//151 100//151
f 74//152 100//152 101//152
f 74//153 101//153 75//153
f 75//154 101//154 102//154
f 75//155 102//155 96//155
f 76//156 98//156 103//156
f 76//157 103//157 104//157
f 76//158 104//158 105//158
f 76//159 105//159 77//159
f 77//160 105//160 78//160
f 78//161 105//161 106//161
f 78//162 106//162 79//162
f 79//163 106//163 107//163
f 79//164 107//164 80//164
f 80//165 107//165 108//165
f 80//166 108//166 81//166
f 81//167 109//167 110//167
f 81//168 110//168 82//168
f 81//169 108//169 109//169
f 83//170 92//170 111//170
f 83//171 111//171 93//171
f 84//172 112//172 85//172
f 85//173 112//173 87//173
f 86//174 113//174 91//174
f 86//175 90//175 114//175
f 86//176 114//176 113//176
f 87//177 115//177 116//177
f 87//178 116//178 117//178
f 87//179 117//179 118//179
f 87//180 118//180 88//180
f 87//181 112//181 115//181
f 88//182 118//182 89//182
f 89//183 119//183 114//183
f 89//184 114//184 90//184
f 89//185 118//185 120//185
f 89//186 120//186 121//186
f 89//187 121//187 119//187
f 91//188 113//188 122//188
f 91//189 122//189 92//189
f 92//190 122//190 111//190
f 93//191 111//191 123//191
f 93//192 123//192 124//192
f 93//193 124//193 94//193
f 94//194 124//194 125//194
f 94//195 125//195 95//195
f 95//196 125//196 99//196
f 96//197 102//197 126//197
f 96//198 126//198 127//198
f 96//199 127//199 97//199
f 97//200 127//200 126//200
f 97//201 126//201 103//201
f 97//202 103//202 98//202
f 99//203 125//203 128//203
f 99//204 128//204 129//204
f 99//205 129//205 100//205
f 100//206 129//206 130//206
f 100//207 130//207 101//207
f 101//208 130//208 131//208
f 101//209 131//209 126//209
f 101//210 126//210 102//210
f 103//211 126//211 106//211
f 103//212 106//212 104//212
f 104//213 106//213 105//213
f 106//214 126//214 132//214
f 106//215 132//215 107//215
f 107//216 133//216 134//216
f 107//217 134//217 135//217
f 107//218 135//218 108//218
f 107//219 132//219 126//219
f 107//220 126//220 133//220
f 108//221 135//221 136//221
f 108//222 136//222 137//222
f 108//223 137//223 138//223
f 108//224 138//224 139//224
f 108//225 139//225 140//225
f 108//226 140//226 109//226
f 109//227 140//227 141//227
f 109//228 141//228 142//228
f 111//229 122//229 143//229
f 111//230 143//230 123//230
f 113//231 114//231 144//231
f 113//231 144//231 122//231
f 114//232 119//232 144//232
f 116//233 145//233 146//233
f 116//234 146//234 117//234
f 117//235 120//235 118//235
f 117//236 146//236 120//236
f 119//237 147//237 144//237
f 119//238 121//238 148//238
f 119//239 148//239 149//239
f 119//240 149//240 147//240
f 120//241 146//241 150//241
f 120//242 150//242 151//242
f 120//243 151//243 121//243
f 121//244 151//244 152//244
f 121//245 152//245 148//245
f 122//246 144//246 153//246
f 122//247 153//247 143//247
f 123//248 143//248 153//248
f 123//249 153//249 154//249
f 123//250 154//250 155//250
f 123//251 155//251 156//251
f 123//252 156//252 124//252
f 124//253 157//253 125//253
f 124//254 156//254 158//254
f 124//255 158//255 159//255
f 124//256 159//256 157//256
f 125//257 157//257 160//257
f 125//258 160//258 161//258
f 125//259 161//259 128//259
f 126//260 131//260 133//260
f 128//261 161//261 129//261
f 129//262 161//262 162//262
f 129//263 162//263 163//263
f 129//264 163//264 164//264
f 129//265 164//265 130//265
f 130//266 165//266 131//266
f 130//267 164//267 166//267
f 130//268 166//268 165//268
f 131//269 165//269 166//269
f 131//270 166//270 133//270
f 133//271 166//271 134//271
f 134//272 166//272 163//272
f 134//273 163//273 167//273
f 134//274 167//274 168//274
f 134//275 168//275 135//275
f 135//276 168//276 169//276
f 135//277 169//277 136//277
f 136//278 169//278 170//278
f 136//279 170//279 137//279
f 137//280 170//280 171//280
f 137//281 171//281 172//281
f 137//282 172//282 173//282
f 137//283 173//283 138//283
f 138//284 173//284 174//284
f 138//285 174//285 175//285
f 138//286 175//286 139//286
f 139//287 175//287 176//287
f 139//288 176//288 177//288
f 139//289 177//289 140//289
f 140//290 177//290 141//290
f 141//291 177//291 142//291
f 142//292 177//292 178//292
f 142//293 178//293 179//293
f 142//294 179//294 180//294
f 142//295 180//295 181//295
f 142//296 181//296 182//296
f 144//297 147//297 183//297
f 144//298 183//298 153//298
f 145//299 184//299 185//299
f 145//300 185//300 146//300
f 146//301 185//301 150//301
f 147//302 186//302 183//302
f 147//303 149//303 187//303
f 147//304 187//304 188//304
f 147//305 188//305 186//305
f 148//306 152//306 149//306
f 149//307 152//307 189//307
f 149//308 189//308 190//308
f 149//309 190//309 191//309
f 149//310 191//310 192//310
f 149//311 192//311 187//311
f 150//312 185//312 193//312
f 150//313 193//313 194//313
f 150//314 194//314 195//314
f 150//315 195//315 151//315
f 151//316 195//316 189//316
f 151//317 189//317 152//317
f 153//318 183//318 196//318
f 153//319 196//319 154//319
f 154//320 196//320 197//320
f 154//321 197//321 155//321
f 155//322 198//322 156//322
f 155//323 197//323 199//323
f 155//324 199//324 200//324
f 155//325 200//325 201//325
f 155//326 201//326 202//326
f 155//327 202//327 198//327
f 156//328 198//328 158//328
f 157//329 159//329 158//329
f 157//330 158//330 203//330
f 157//331 203//331 204//331
f 157//332 204//332 160//332
f 158//333 198//333 203//333
f 160//334 204//334 168//334
f 160//335 168//335 167//335
f 160//336 167//336 161//336
f 161//337 167//337 163//337
f 161//338 163//338 162//338
f 163//339 166//339 164//339
f 168//340 204//340 169//340
f 169//341 204//341 205//341
f 169//342 205//342 206//342
f 169//343 206//343 207//343
f 169//344 207//344 208//344
f 169//345 208//345 170//345
f 170//346 208//346 209//346
f 170//347 209//347 171//347
f 171//348 209//348 210//348
f 171//349 210//349 211//349
f 171//350 211//350 172//350
f 172//351 211//351 173//351
f 173//352 211//352 212//352
f 173//353 212//353 213//353
f 173//354 213//354 214//354
f 173//355 214//355 176//355
f 173//355 176//355 174//355
f 174//356 176//356 175//356
f 176//357 214//357 177//357
f 177//358 214//358 215//358
f 177//359 215//359 216//359
f 177//360 216//360 178//360
f 178//361 216//361 217//361
f 178//362 217//362 179//362
f 179//363 217//363 180//363
f 180//364 217//364 218//364
f 180//365 218//365 181//365
f 181//366 218//366 182//366
f 183//367 186//367 219//367
f 183//368 219//368 196//368
f 184//369 220//369 221//369
f 184//370 221//370 185//370
f 185//371 221//371 193//371
f 186//372 188//372 219//372
f 187//373 222//373 188//373
f 187//374 192//374 222//374
f 188//375 222//375 223//375
f 188//376 223//376 196//376
f 188//377 196//377 219//377
f 189//378 195//378 224//378
f 189//379 224//379 225//379
f 189//380 225//380 226//380
f 189//381 226//381 190//381
f 190//382 226//382 191//382
f 191//383 226//383 192//383
f 192//384 226//384 227//384
f 192//385 227//385 228//385
f 192//386 228//386 229//386
f 192//387 229//387 223//387
f 192//387 223//387 222//387
f 193//388 221//388 230//388
f 193//389 230//389 194//389
f 194//390 230//390 231//390
f 194//391 231//391 195//391
f 195//392 231//392 224//392
f 196//393 223//393 197//393
f 197//394 223//394 199//394
f 198//395 232//395 233//395
f 198//396 233//396 203//396
f 198//397 202//397 232//397
f 199//398 223//398 229//398
f 199//399 229//399 201//399
f 199//400 201//400 200//400
f 201//401 229//401 228//401
f 201//402 228//402 234//402
f 201//403 234//403 235//403
f 201//404 235//404 202//404
f 202//405 235//405 236//405
f 202//406 236//406 237//406
f 202//407 237//407 238//407
f 202//408 238//408 239//408
f 202//409 239//409 240//409
f 202//410 240//410 241//410
f 202//411 241//411 242//411
f 202//412 242//412 232//412
f 203//413 233//413 205//413
f 203//414 205//414 204//414
f 205//415 233//415 243//415
f 205//416 243//416 206//416
f 206//417 243//417 244//417
f 206//418 244//418 245//418
f 206//419 245//419 246//419
f 206//420 246//420 207//420
f 207//421 246//421 247//421
f 207//422 247//422 208//422
f 208//423 247//423 248//423
f 208//424 248//424 249//424
f 208//425 249//425 250//425
f 208//426 250//426 209//426
f 209//427 250//427 249//427
f 209//428 249//428 251//428
f 209//429 251//429 210//429
f 210//430 251//430 252//430
f 210//431 252//431 253//431
f 210//432 253//432 211//432
f 211//433 253//433 212//433
f 212//434 253//434 254//434
f 212//435 254//435 255//435
f 212//436 255//436 213//436
f 213//437 255//437 256//437
f 213//438 256//438 257//438
f 213//439 257//439 258//439
f 213//440 258//440 259//440
f 213//441 259//441 214//441
f 214//442 259//442 260//442
f 214//443 260//443 261//443
f 214//444 261//444 262//444
f 214//445 262//445 216//445
f 214//446 216//446 215//446
f 220//447 263//447 221//447
f 221//448 263//448 264//448
f 221//449 264//449 265//449
f 221//450 265//450 230//450
f 224//451 231//451 266//451
f 224//452 266//452 267//452
f 224//453 267//453 268//453
f 224//454 268//454 225//454
f 225//455 268//455 269//455
f 225//456 269//456 270//456
f 225//457 270//457 271//457
f 225//458 271//458 272//458
f 225//459 272//459 226//459
f 226//460 272//460 227//460
f 227//461 272//461 273//461
f 227//462 273//462 274//462
f 227//463 274//463 275//463
f 227//464 275//464 228//464
f 228//465 275//465 274//465
f 228//466 274//466 234//466
f 230//467 276//467 277//467
f 230//468 277//468 231//468
f 230//469 265//469 276//469
f 231//470 277//470 266//470
f 232//471 242//471 233//471
f 233//472 242//472 243//472
f 234//473 274//473 278//473
f 234//474 278//474 279//474
f 234//475 279//475 235//475
f 235//476 279//476 236//476
f 236//477 279//477 280//477
f 236//478 280//478 237//478
f 237//479 280//479 281//479
f 237//480 281//480 282//480
f 237//481 282//481 245//481
f 237//482 245//482 244//482
f 237//483 244//483 243//483
f 237//484 243//484 240//484
f 237//485 240//485 238//485
f 238//486 240//486 239//486
f 240//487 243//487 241//487
f 241//488 243//488 242//488
f 245//489 282//489 283//489
f 245//490 283//490 246//490
f 246//491 283//491 284//491
f 246//492 284//492 247//492
f 247//493 284//493 248//493
f 248//494 284//494 285//494
f 248//495 285//495 249//495
f 249//496 285//496 286//496
f 249//497 286//497 287//497
f 249//498 287//498 251//498
f 251//499 287//499 288//499
f 251//500 288//500 289//500
f 251//501 289//501 252//501
f 252//502 289//502 290//502
f 252//503 290//503 291//503
f 252//504 291//504 292//504
f 252//505 292//505 253//505
f 253//506 292//506 254//506
f 254//507 292//507 293//507
f 254//508 293//508 294//508
f 254//509 294//509 295//509
f 254//510 295//510 296//510
f 254//511 296//511 297//511
f 254//512 297//512 255//512
f 255//513 297//513 298//513
f 255//514 298//514 299//514
f 255//515 299//515 300//515
f 255//516 300//516 256//516
f 256//517 300//517 301//517
f 256//518 301//518 258//518
f 256//519 258//519 257//519
f 258//520 301//520 302//520
f 258//521 302//521 303//521
f 258//522 303//522 304//522
f 258//523 304//523 260//523
f 258//524 260//524 259//524
f 264//525 276//525 265//525
f 266//526 277//526 305//526
f 266//527 305//527 267//527
f 267//528 305//528 306//528
f 267//529 306//529 307//529
f 267//530 307//530 268//530
f 268//531 307//531 308//531
f 268//532 308//532 269//532
f 269//533 309//533 270//533
f 269//534 308//534 310//534
f 269//535 310//535 311//535
f 269//536 311//536 309//536
f 270//537 309//537 271//537
f 271//538 273//538 272//538
f 271//539 309//539 312//539
f 271//540 312//540 273//540
f 273//541 312//541 274//541
f 274//542 312//542 313//542
f 274//543 313//543 314//543
f 274//544 314//544 278//544
f 276//545 315//545 277//545
f 277//546 315//546 316//546
f 277//547 316//547 305//547
f 278//548 314//548 317//548
f 278//549 317//549 318//549
f 278//550 318//550 279//550
f 279//551 318//551 280//551
f 280//552 318//552 319//552
f 280//553 319//553 281//553
f 281//554 320//554 321//554
f 281//555 321//555 282//555
f 281//556 319//556 322//556
f 281//557 322//557 323//557
f 281//558 323//558 324//558
f 281//559 324//559 320//559
f 282//560 321//560 283//560
f 283//561 321//561 325//561
f 283//562 325//562 326//562
f 283//563 326//563 327//563
f 283//564 327//564 286//564
f 283//565 286//565 285//565
f 283//566 285//566 284//566
f 286//567 327//567 326//567
f 286//568 326//568 328//568
f 286//569 328//569 329//569
f 286//570 329//570 287//570
f 287//571 329//571 321//571
f 287//572 321//572 330//572
f 287//573 330//573 288//573
f 288//574 330//574 289//574
f 289//575 330//575 331//575
f 289//576 331//576 290//576
f 290//577 331//577 332//577
f 290//578 332//578 293//578
f 290//579 293//579 291//579
f 291//580 293//580 292//580
f 293//581 332//581 331//581
f 293//582 331//582 333//582
f 293//583 333//583 334//583
f 293//584 334//584 335//584
f 293//585 335//585 336//585
f 293//586 336//586 294//586
f 294//587 336//587 337//587
f 294//588 337//588 295//588
f 295//589 337//589 338//589
f 295//590 338//590 339//590
f 295//591 339//591 340//591
f 295//592 340//592 296//592
f 296//593 340//593 297//593
f 297//594 340//594 341//594
f 297//595 341//595 298//595
f 298//596 341//596 342//596
f 298//597 342//597 299//597
f 299//598 342//598 343//598
f 299//599 343//599 302//599
f 299//600 302//600 300//600
f 300//601 302//601 301//601
f 302//602 343//602 344//602
f 302//603 344//603 345//603
f 302//604 345//604 303//604
f 303//605 345//605 304//605
f 304//606 345//606 346//606
f 305//607 316//607 306//607
f 306//608 347//608 348//608
f 306//609 348//609 307//609
f 306//610 316//610 347//610
f 307//611 348//611 349//611
f 307//612 349//612 308//612
f 308//613 349//613 350//613
f 308//614 350//614 310//614
f 309//615 311//615 313//615
f 309//616 313//616 312//616
f 310//617 350//617 351//617
f 310//618 351//618 311//618
f 311//619 351//619 352//619
f 311//620 352//620 353//620
f 311//621 353//621 313//621
f 313//622 353//622 317//622
f 313//623 317//623 314//623
f 317//624 353//624 354//624
f 317//625 354//625 355//625
f 317//626 355//626 356//626
f 317//627 356//627 318//627
f 318//628 356//628 319//628
f 319//629 356//629 322//629
f 320//630 357//630 321//630
f 320//631 324//631 357//631
f 321//632 357//632 330//632
f 321//633 329//633 328//633
f 321//634 328//634 326//634
f 321//635 326//635 325//635
f 322//636 358//636 359//636
f 322//637 359//637 360//637
f 322//638 360//638 324//638
f 322//639 324//639 323//639
f 322//640 356//640 358//640
f 324//641 360//641 361//641
f 324//642 361//642 362//642
f 324//643 362//643 333//643
f 324//644 333//644 357//644
f 330//645 357//645 333//645
f 330//646 333//646 331//646
f 333//647 362//647 334//647
f 334//648 362//648 363//648
f 334//649 363//649 335//649
f 335//650 363//650 336//650
f 336//651 363//651 364//651
f 336//652 364//652 365//652
f 336//653 365//653 338//653
f 336//654 338//654 337//654
f 338//655 365//655 339//655
f 339//656 365//656 366//656
f 339//657 366//657 367//657
f 339//658 367//658 340//658
f 340//659 367//659 341//659
f 341//660 367//660 368//660
f 341//661 368//661 342//661
f 342//662 368//662 344//662
f 342//663 344//663 343//663
f 344//664 368//664 369//664
f 344//665 369//665 370//665
f 344//666 370//666 371//666
f 344//667 371//667 372//667
f 344//668 372//668 373//668
f 344//669 373//669 345//669
f 345//670 374//670 346//670
f 345//671 373//671 375//671
f 345//672 375//672 374//672
f 347//673 376//673 377//673
f 347//674 377//674 378//674
f 347//675 378//675 348//675
f 348//676 378//676 350//676
f 348//677 350//677 349//677
f 350//678 378//678 379//678
f 350//679 379//679 380//679
f 350//680 380//680 381//680
f 350//681 381//681 351//681
f 351//682 381//682 352//682
f 352//683 381//683 382//683
f 352//684 382//684 354//684
f 352//685 354//685 353//685
f 354//686 382//686 383//686
f 354//687 383//687 355//687
f 355//688 383//688 384//688
f 355//689 384//689 358//689
f 355//690 358//690 356//690
f 358//691 384//691 385//691
f 358//692 385//692 359//692
f 359//693 361//693 360//693
f 359//694 385//694 402//694
f 359//694 402//694 386//694
f 359//695 386//695 361//695
f 361//696 386//696 387//696
f 361//697 387//697 363//697
f 361//698 363//698 362//698
f 363//699 387//699 388//699
f 363//700 388//700 364//700
f 364//701 388//701 365//701
f 365//702 388//702 389//702
f 365//703 389//703 366//703
f 366//704 369//704 367//704
f 366//705 389//705 369//705
f 367//706 390//706 368//706
f 367//707 369//707 390//707
f 368//708 390//708 369//708
f 369//709 389//709 391//709
f 369//710 391//710 370//710
f 370//711 391//711 392//711
f 370//712 392//712 393//712
f 370//713 393//713 371//713
f 371//714 393//714 394//714
f 371//715 394//715 372//715
f 372//716 394//716 373//716
f 373//717 394//717 395//717
f 373//718 395//718 375//718
f 376//719 396//719 377//719
f 377//720 396//720 397//720
f 377//721 397//721 379//721
f 377//722 379//722 378//722
f 379//723 397//723 380//723
f 380//724 396//724 398//724
f 380//725 398//725 399//725
f 380//726 399//726 381//726
f 380//727 397//727 396//727
f 381//728 399//728 400//728
f 381//729 400//729 382//729
f 382//730 400//730 401//730
f 382//731 401//731 383//731
f 383//732 401//732 385//732
f 383//733 385//733 384//733
f 385//734 401//734 402//734
f 386//735 402//735 412//735
f 386//735 412//735 403//735
f 386//736 403//736 387//736
f 387//737 403//737 388//737
f 388//738 403//738 389//738
f 389//739 403//739 404//739
f 389//739 404//739 391//739
f 391//740 404//740 405//740
f 391//741 405//741 392//741
f 392//742 405//742 406//742
f 392//742 406//742 393//742
f 393//743 406//743 394//743
f 394//744 406//744 407//744
f 394//745 407//745 395//745
f 396//746 408//746 398//746
f 398//747 408//747 409//747
f 398//748 409//748 410//748
f 398//749 410//749 399//749
f 399//750 410//750 400//750
f 400//751 410//751 411//751
f 400//752 411//752 401//752
f 401//753 411//753 402//753
f 402//754 411//754 412//754
f 403//755 412//755 404//755
f 404//756 412//756 413//756
f 404//756 413//756 405//756
f 405//757 413//757 414//757
f 405//758 414//758 406//758
f 406//759 414//759 415//759
f 406//760 415//760 416//760
f 406//761 416//761 407//761
f 408//762 417//762 418//762
f 408//763 418//763 409//763
f 409//764 418//764 419//764
f 409//765 419//765 420//765
f 409//766 420//766 421//766
f 409//766 421//766 410//766
f 410//767 421//767 411//767
f 411//768 421//768 412//768
f 412//769 421//769 420//769
f 412//769 420//769 413//769
f 413//770 420//770 414//770
f 414//771 420//771 419//771
f 414//772 419//772 415//772
f 415//773 422//773 423//773
f 415//774 423//774 416//774
f 415//775 419//775 418//775
f 415//776 418//776 422//776
f 417//777 424//777 418//777
f 418//778 424//778 425//778
f 418//779 425//779 422//779
