# Blender 4.0.0
# www.blender.org
o Fridge_17_fridge_drawer1_10_131912c4_0_collision_8
v 0.138465 -0.093839 -0.276761
v 0.101280 -0.095815 -0.276761
v 0.138465 -0.108197 -0.276761
v 0.138465 -0.092901 -0.375147
v 0.101280 -0.108197 -0.276761
v 0.101280 -0.095853 -0.375147
v 0.138465 -0.108197 -0.372768
v 0.138465 -0.108192 -0.375147
v 0.101280 -0.108197 -0.372152
v 0.101280 -0.108192 -0.375147
v 0.101280 -0.108194 -0.374627
vn -0.0000 -0.0000 1.0000
vn 1.0000 -0.0000 -0.0000
vn -0.0531 0.9985 0.0095
vn -0.0791 0.9969 -0.0004
vn -1.0000 -0.0000 -0.0000
vn -1.0000 -0.0001 -0.0000
vn -0.0000 -1.0000 -0.0000
vn -0.0000 -0.0000 -1.0000
vn -0.0000 -1.0000 -0.0012
vn -0.0000 -1.0000 -0.0019
vn -0.0000 -1.0000 -0.0029
s 0
f 1//1 2//1 5//1
f 1//1 5//1 3//1
f 1//2 3//2 7//2
f 1//2 7//2 8//2
f 1//2 8//2 4//2
f 1//3 4//3 2//3
f 2//4 4//4 6//4
f 2//5 6//5 10//5
f 2//6 10//6 11//6
f 2//5 11//5 9//5
f 2//5 9//5 5//5
f 3//7 5//7 9//7
f 3//7 9//7 7//7
f 4//8 8//8 10//8
f 4//8 10//8 6//8
f 7//9 9//9 11//9
f 7//10 11//10 8//10
f 8//11 11//11 10//11
