# Blender 4.0.0
# www.blender.org
o Fridge_17_fridge_drawer1_10_131912c4_0_collision_12
v -0.179638 -0.108191 -0.375353
v -0.179638 -0.095691 -0.375353
v -0.178786 -0.108192 -0.375353
v -0.178786 -0.108198 -0.372153
v -0.179638 -0.108194 -0.372991
v -0.179638 -0.095068 -0.234868
v 0.101280 -0.095816 -0.375353
v 0.101280 -0.108192 -0.375353
v -0.179638 -0.108198 -0.305918
v -0.179638 -0.108196 -0.372153
v 0.101280 -0.108198 -0.372153
v -0.179638 -0.095194 -0.216663
v 0.101280 -0.095420 -0.216663
v -0.179638 -0.108198 -0.216663
v 0.101280 -0.108198 -0.216663
vn -0.0000 -0.0000 -1.0000
vn -0.0015 -1.0000 -0.0020
vn -0.0029 -1.0000 -0.0016
vn -1.0000 -0.0000 -0.0000
vn -1.0000 0.0056 -0.0000
vn -1.0000 0.0054 -0.0000
vn 0.0004 1.0000 -0.0044
vn -0.0000 -1.0000 -0.0020
vn -0.0030 -1.0000 -0.0000
vn -0.0030 -1.0000 -0.0015
vn -0.0000 -1.0000 -0.0000
vn 0.0008 1.0000 0.0069
vn 0.0014 1.0000 -0.0025
vn 1.0000 -0.0000 -0.0000
vn -0.0000 -0.0000 1.0000
s 0
f 1//1 2//1 7//1
f 1//1 7//1 8//1
f 1//1 8//1 3//1
f 1//2 3//2 4//2
f 1//3 4//3 5//3
f 1//4 5//4 10//4
f 1//5 10//5 9//5
f 1//6 9//6 14//6
f 1//4 14//4 12//4
f 1//4 12//4 6//4
f 1//4 6//4 2//4
f 2//7 6//7 7//7
f 3//8 8//8 11//8
f 3//8 11//8 4//8
f 4//9 9//9 10//9
f 4//10 10//10 5//10
f 4//11 11//11 15//11
f 4//11 15//11 14//11
f 4//11 14//11 9//11
f 6//12 12//12 13//12
f 6//13 13//13 7//13
f 7//14 13//14 15//14
f 7//14 15//14 11//14
f 7//14 11//14 8//14
f 12//15 14//15 15//15
f 12//15 15//15 13//15
