# Blender 4.0.0
# www.blender.org
o decimated_mesh
v 0.138463 -0.107785 -0.379232
v 0.138794 -0.108059 -0.043740
v 0.147906 -0.108148 -0.376541
v 0.147906 -0.107151 -0.380942
v 0.138802 -0.105987 -0.034243
v 0.151795 -0.105822 -0.379715
v 0.150948 -0.104169 -0.385214
v 0.150756 -0.105324 -0.034185
v 0.147920 -0.107978 -0.043170
v 0.138464 -0.104207 -0.385828
v 0.153235 -0.101582 -0.381756
v 0.141124 -0.009804 -0.034188
v 0.151783 -0.105537 -0.037927
v 0.150285 -0.093747 -0.393336
v 0.138460 -0.006476 -0.449958
v 0.143495 -0.007740 -0.034188
v 0.141374 -0.006717 -0.057244
v 0.153171 -0.100792 -0.034232
v 0.153200 -0.013884 -0.442736
v 0.150751 -0.011928 -0.449695
v 0.150634 -0.006471 -0.034180
v 0.153183 -0.011063 -0.034189
v 0.147906 -0.009086 -0.450505
v 0.150805 -0.006660 -0.449875
v 0.138465 -0.010833 -0.450439
v 0.152106 -0.009053 -0.446787
vn 0.3738 -0.9046 -0.2050
vn 0.3952 -0.8611 -0.3198
vn 0.0057 -0.0136 -0.9999
vn 0.8692 -0.4204 -0.2603
vn 0.8743 0.4854 0.0001
vn 0.6538 -0.7509 -0.0934
vn 0.8837 -0.2670 -0.3846
vn 0.0374 -0.2391 -0.9703
vn 0.7311 -0.3898 -0.5599
vn 0.9907 -0.1359 -0.0074
vn -0.0382 -0.9993 -0.0008
vn 0.5136 -0.8580 0.0004
vn -0.0046 -0.9770 0.2132
vn 0.0300 -0.8294 -0.5578
vn -0.0007 -0.5673 -0.8235
vn 0.2406 -0.0356 -0.9700
vn 0.0101 0.2401 -0.9707
vn 0.1747 -0.9828 -0.0596
vn -0.0001 0.0005 -1.0000
vn 0.0006 0.0023 -1.0000
vn -0.0001 0.0001 -1.0000
vn 0.0005 0.0006 -1.0000
vn 0.8784 0.4778 0.0001
vn 0.0254 -0.9997 0.0005
vn -0.0149 -0.9999 -0.0005
vn 0.8828 -0.2680 -0.3859
vn 0.9756 0.2195 -0.0015
vn 0.9997 -0.0241 0.0044
vn 1.0000 -0.0045 -0.0064
vn -1.0000 -0.0010 -0.0015
vn 0.9997 -0.0236 -0.0010
vn -1.0000 -0.0003 -0.0003
vn 0.0089 -1.0000 0.0005
vn 0.8533 -0.4521 0.2598
vn 0.5335 -0.8458 0.0007
vn 0.0521 -0.9621 0.2677
vn -0.0273 -0.8787 -0.4767
vn 0.0407 -0.6126 -0.7893
vn -0.0188 -0.5689 -0.8222
vn 0.9148 -0.0232 -0.4033
vn 0.9324 -0.0838 -0.3516
vn -0.0273 0.1095 -0.9936
vn 0.0255 -0.9750 -0.2209
vn 0.9596 -0.2815 0.0008
vn 0.9469 -0.3214 0.0003
vn 0.3704 -0.9161 0.1537
vn 1.0000 0.0004 -0.0000
vn 1.0000 -0.0001 0.0002
vn 1.0000 0.0007 -0.0010
vn 1.0000 -0.0007 -0.0010
vn -0.0207 0.0005 -0.9998
vn -0.0035 -0.0000 -1.0000
vn 0.0049 0.0001 -1.0000
vn 0.0006 0.0006 -1.0000
vn 0.9997 -0.0241 -0.0066
vn 0.0286 -0.9996 -0.0008
vn -0.0149 -0.9999 0.0004
vn 0.8828 -0.2679 -0.3859
vn 0.8837 -0.2670 -0.3845
vn 0.8785 0.4777 -0.0000
vn 0.0013 -0.0015 -1.0000
s 0
f 3//1 4//1 6//1
f 4//2 7//2 6//2
f 5//3 18//3 8//3
f 7//4 11//4 6//4
f 26//5 21//5 22//5
f 12//6 17//6 16//6
f 7//7 20//7 11//7
f 23//8 20//8 25//8
f 20//9 7//9 14//9
f 12//10 15//10 17//10
f 3//11 2//11 1//11
f 6//12 9//12 3//12
f 9//13 5//13 2//13
f 4//14 10//14 7//14
f 25//15 20//15 14//15
f 20//16 23//16 24//16
f 23//17 15//17 24//17
f 21//18 16//18 17//18
f 18//19 12//19 22//19
f 16//20 21//20 22//20
f 16//21 22//21 12//21
f 12//22 18//22 5//22
f 26//23 24//23 21//23
f 21//24 17//24 24//24
f 15//25 24//25 17//25
f 19//26 11//26 20//26
f 26//27 22//27 19//27
f 5//28 2//28 12//28
f 12//29 1//29 15//29
f 25//30 10//30 15//30
f 1//31 12//31 2//31
f 10//32 1//32 15//32
f 3//33 9//33 2//33
f 18//34 8//34 13//34
f 6//35 13//35 9//35
f 9//36 8//36 5//36
f 4//37 1//37 10//37
f 14//38 7//38 10//38
f 10//39 25//39 14//39
f 20//40 24//40 26//40
f 26//41 19//41 20//41
f 23//42 25//42 15//42
f 1//43 4//43 3//43
f 11//44 18//44 13//44
f 13//45 6//45 11//45
f 9//46 13//46 8//46
f 11//47 19//47 22//47
f 11//48 22//48 18//48
f 5//49 2//49 1//49
f 5//50 1//50 15//50
f 18//51 8//51 22//51
f 22//52 8//52 21//52
f 21//53 8//53 5//53
f 21//54 5//54 12//54
f 12//55 5//55 15//55
f 17//56 15//56 21//56
f 21//57 15//57 24//57
f 20//58 19//58 7//58
f 19//59 11//59 7//59
f 26//60 24//60 22//60
f 24//5 21//5 22//5
f 16//61 21//61 12//61
