# Blender 4.0.0
# www.blender.org
o decimated_mesh
v 0.101280 -0.105830 -0.034166
v 0.134695 -0.105935 -0.034041
v 0.101280 -0.085936 -0.034185
v 0.134695 -0.085965 -0.034185
v 0.101279 -0.101212 -0.026716
v 0.134696 -0.097094 -0.022978
v 0.134693 -0.006681 -0.017626
v 0.101280 -0.006593 -0.017400
v 0.101280 -0.093057 -0.021182
v 0.101278 -0.007015 -0.006728
v 0.134694 -0.006471 -0.007353
v 0.134696 -0.010605 -0.006094
vn -0.0061 0.2070 -0.9783
vn 0.0132 0.2914 0.9565
vn -0.0365 -0.1656 0.9855
vn -0.0156 0.9991 0.0395
vn -0.0234 -0.5614 0.8272
vn -0.0000 -0.0009 -1.0000
vn 0.0002 0.2044 -0.9789
vn -1.0000 -0.0000 -0.0002
vn 1.0000 -0.0000 0.0001
vn 1.0000 -0.0001 -0.0000
vn 1.0000 -0.0000 -0.0000
vn 1.0000 0.0001 -0.0002
vn 1.0000 0.0004 -0.0001
vn -0.0047 -0.8500 0.5268
vn 0.0296 -0.1915 0.9810
vn 0.0025 0.9998 -0.0205
vn 0.0264 -0.7809 0.6241
vn 0.0037 -0.0072 -1.0000
vn 1.0000 0.0001 -0.0003
vn 1.0000 -0.0000 -0.0001
s 0
f 7//1 3//1 8//1
f 11//2 10//2 12//2
f 9//3 12//3 10//3
f 8//4 10//4 11//4
f 6//5 9//5 5//5
f 4//6 1//6 3//6
f 7//7 4//7 3//7
f 8//8 3//8 10//8
f 5//9 1//9 3//9
f 5//10 3//10 9//10
f 9//11 3//11 10//11
f 6//11 2//11 4//11
f 4//12 7//12 12//12
f 7//13 11//13 12//13
f 12//11 6//11 4//11
f 5//14 1//14 2//14
f 9//15 6//15 12//15
f 7//16 8//16 11//16
f 5//17 2//17 6//17
f 4//18 2//18 1//18
f 3//9 10//9 1//9
f 1//9 10//9 5//9
f 5//19 10//19 9//19
f 2//11 4//11 12//11
f 6//20 2//20 12//20
