# Blender 4.0.0
# www.blender.org
o decimated_mesh
v 0.150867 -0.009592 -0.006539
v 0.134700 -0.010546 -0.006067
v 0.152599 -0.010111 -0.009787
v 0.150629 -0.006594 -0.007540
v 0.150814 -0.090611 -0.020713
v 0.134700 -0.006468 -0.007358
v 0.152228 -0.096913 -0.025928
v 0.153207 -0.089067 -0.024776
v 0.150625 -0.006463 -0.034204
v 0.153071 -0.010748 -0.034182
v 0.147907 -0.093950 -0.021653
v 0.150409 -0.099812 -0.025591
v 0.134697 -0.006559 -0.017387
v 0.134700 -0.093124 -0.021189
v 0.147664 -0.104733 -0.031710
v 0.151082 -0.105302 -0.034162
v 0.153333 -0.099492 -0.034188
v 0.141705 -0.008667 -0.034172
v 0.134700 -0.099765 -0.025420
v 0.134701 -0.105859 -0.034022
v 0.134700 -0.085966 -0.034185
vn 0.8757 0.2141 0.4329
vn 0.0045 -0.7803 0.6254
vn 0.0350 -0.9616 0.2723
vn 0.2349 -0.9475 0.2171
vn 0.8760 -0.1753 0.4493
vn 0.0100 0.3018 0.9533
vn -0.0040 -0.5373 0.8434
vn 0.8685 0.4958 0.0039
vn 0.2556 -0.4616 0.8494
vn 0.6921 -0.3617 0.6247
vn 0.0008 -1.0000 -0.0049
vn 0.2502 -0.8062 0.5361
vn 0.9159 -0.0831 0.3928
vn 0.9076 -0.3506 0.2309
vn -0.0027 -0.0034 -1.0000
vn -0.0010 -0.1801 0.9836
vn 0.9733 -0.1473 0.1762
vn 0.8723 -0.0847 0.4816
vn 0.8735 -0.0844 0.4795
vn -0.0322 -0.8156 0.5778
vn 0.8082 -0.4650 0.3614
vn 0.9999 0.0030 0.0101
vn 0.9998 0.0040 0.0192
vn 0.0134 0.3177 0.9481
vn 0.0074 -0.5555 0.8315
vn 0.8730 0.4877 0.0023
vn -0.0078 -0.9999 0.0091
vn 1.0000 -0.0000 -0.0000
vn -1.0000 0.0002 0.0004
vn 1.0000 0.0001 -0.0003
vn 0.0159 -0.2837 0.9588
vn -0.0001 0.0001 -1.0000
vn -0.0082 -0.0082 -0.9999
vn -0.0008 0.0002 -1.0000
vn -0.0020 -0.0062 -1.0000
vn 0.0389 -0.1722 0.9843
vn 0.8723 -0.0848 0.4815
vn 0.8735 -0.0843 0.4794
vn -0.0080 -1.0000 -0.0049
vn 0.0156 -0.9998 0.0091
vn 1.0000 -0.0000 0.0001
vn 0.8736 0.4867 0.0042
vn 0.8685 0.4958 0.0023
vn 0.0090 0.0001 -1.0000
vn -0.0003 -0.0002 -1.0000
vn -0.0037 0.0005 -1.0000
s 0
f 1//1 3//1 4//1
f 19//2 15//2 12//2
f 15//3 20//3 16//3
f 9//4 13//4 18//4
f 8//5 5//5 7//5
f 1//6 6//6 2//6
f 19//7 11//7 14//7
f 9//8 3//8 10//8
f 5//9 11//9 12//9
f 5//10 12//10 7//10
f 13//11 9//11 4//11
f 15//12 16//12 12//12
f 13//13 21//13 18//13
f 7//14 16//14 17//14
f 16//15 21//15 17//15
f 2//16 14//16 5//16
f 17//17 8//17 7//17
f 8//18 3//18 5//18
f 3//19 1//19 5//19
f 19//20 20//20 15//20
f 16//21 7//21 12//21
f 17//22 10//22 8//22
f 10//23 3//23 8//23
f 1//24 4//24 6//24
f 19//25 12//25 11//25
f 9//26 4//26 3//26
f 6//27 13//27 4//27
f 20//28 21//28 19//28
f 19//28 21//28 14//28
f 14//28 21//28 2//28
f 2//29 6//29 13//29
f 13//30 2//30 21//30
f 11//31 5//31 14//31
f 10//32 17//32 21//32
f 16//33 20//33 21//33
f 21//34 18//34 10//34
f 18//35 9//35 10//35
f 5//36 1//36 2//36
f 13//30 2//30 14//30
f 5//37 8//37 1//37
f 8//38 3//38 1//38
f 4//39 6//39 9//39
f 9//40 6//40 13//40
f 21//41 13//41 20//41
f 20//28 13//28 14//28
f 20//41 14//41 19//41
f 10//42 4//42 3//42
f 10//43 9//43 4//43
f 10//44 17//44 9//44
f 17//45 21//45 9//45
f 21//46 18//46 9//46
