# Blender 4.0.0
# www.blender.org
o decimated_mesh
v -0.027146 -0.003732 0.001146
v -0.027109 -0.003732 0.001917
v -0.026732 -0.007912 -0.003612
v -0.026409 0.003976 0.004737
v -0.026670 0.004867 0.000087
v -0.025820 -0.003850 0.008499
v -0.026378 -0.011658 0.001333
v -0.026333 -0.002960 -0.006511
v -0.026316 0.004180 -0.005051
v -0.026113 -0.002914 -0.007435
v -0.025281 -0.010240 0.008427
v -0.025237 -0.014480 0.004832
v -0.024856 0.011768 0.005176
v -0.025332 -0.010114 -0.008367
v -0.025456 0.011342 0.000390
v -0.024410 0.003956 0.011079
v -0.024566 0.012609 0.005106
v -0.025076 -0.014826 -0.005080
v -0.022953 -0.014712 0.011413
v -0.024032 0.003926 0.011876
v -0.022980 0.012711 0.009936
v -0.024898 0.011860 -0.004871
v -0.022953 -0.014719 -0.011416
v -0.022959 -0.003584 0.014540
v -0.023815 -0.019526 -0.001550
v -0.022098 -0.021172 0.006766
v -0.022959 0.011848 0.010653
v -0.024787 0.003531 -0.010356
v -0.024319 -0.003890 -0.012175
v -0.022917 -0.018851 -0.007573
v -0.022213 -0.010205 0.014715
v -0.022503 -0.003481 0.015251
v -0.022236 -0.019479 0.008464
v -0.022627 -0.021907 0.002120
v -0.021443 0.009794 0.014479
v -0.022368 0.013296 0.010841
v -0.020030 0.022109 0.007136
v -0.020530 0.021511 0.006508
v -0.021401 0.021786 0.001356
v -0.022255 -0.009940 -0.014748
v -0.020129 -0.017759 -0.014219
v -0.022334 -0.019964 -0.007700
v -0.020080 -0.017827 0.014236
v -0.021471 -0.021764 0.007694
v -0.020678 0.004773 0.016897
v -0.022910 0.011844 -0.010855
v -0.020831 0.022485 -0.002874
v -0.017603 -0.003486 0.020711
v -0.018455 -0.003415 0.019950
v -0.020414 -0.025456 -0.002450
v -0.017955 -0.027016 0.007593
v -0.019058 0.020959 0.010521
v -0.014930 0.029060 0.008524
v -0.019989 0.022300 -0.007009
v -0.022556 0.011960 -0.011498
v -0.022165 0.003720 -0.015179
v -0.019607 -0.025324 -0.006681
v -0.017690 -0.010083 0.019964
v -0.016900 -0.014939 0.019199
v -0.020052 -0.025737 -0.003445
v -0.018317 -0.023230 0.012110
v -0.020377 0.003203 0.017541
v -0.018431 0.014376 0.016138
v -0.018399 0.021950 0.010744
v -0.016813 0.028875 0.004205
v -0.017655 0.028117 -0.001686
v -0.017279 0.026940 -0.006898
v -0.020572 -0.003708 -0.017771
v -0.016900 -0.014939 -0.019196
v -0.013319 -0.003070 0.023649
v -0.015206 0.003662 0.022157
v -0.015943 -0.019023 0.018048
v -0.019203 -0.027229 0.001429
v -0.017171 0.009291 0.019443
v -0.016943 0.010622 0.019236
v -0.020005 -0.003255 -0.018389
v -0.020004 -0.004761 -0.018330
v -0.017655 -0.010074 -0.020006
v -0.017573 -0.023148 -0.013367
v -0.016103 -0.019456 -0.017639
v -0.016124 -0.017981 -0.018420
v -0.015945 0.021983 0.014199
v -0.012076 0.033196 0.005913
v -0.012277 0.028851 0.012274
v -0.017722 0.022030 -0.011870
v -0.017309 0.028792 -0.000977
v -0.014588 0.030395 -0.006952
v -0.015309 -0.007678 -0.022265
v -0.013352 -0.030185 -0.010218
v -0.015382 -0.030944 -0.004523
v -0.009092 0.003753 0.025292
v -0.011951 -0.009803 0.023881
v -0.013535 -0.022921 0.017649
v -0.013376 -0.029043 0.011846
v -0.011470 -0.014645 0.022949
v -0.016439 -0.030413 0.002215
v -0.013071 -0.032502 0.006094
v -0.013493 0.014891 0.020243
v -0.009087 0.028698 0.014865
v -0.017757 0.003653 -0.020121
v -0.015378 -0.027052 -0.011933
v -0.013063 -0.021023 -0.019180
v -0.011416 -0.014704 -0.022948
v -0.015476 -0.031079 -0.003445
v -0.008512 -0.003702 0.025826
v -0.011904 0.021770 0.017866
v -0.008279 0.029521 0.014631
v -0.019050 0.011709 -0.016835
v -0.013326 0.033182 -0.001392
v -0.017012 0.003161 -0.020796
v -0.012335 -0.021810 -0.019201
v -0.008772 -0.011932 -0.024794
v -0.011172 -0.033257 -0.007580
v -0.014036 -0.032714 -0.001144
v -0.010948 0.011555 0.022993
v -0.009627 -0.027466 0.016557
v -0.010672 -0.019388 0.021431
v -0.008786 -0.033359 0.010104
v -0.013084 0.033457 -0.000751
v -0.008293 0.028583 0.015369
v -0.008405 0.032966 0.010725
v -0.006710 0.035649 0.007783
v -0.014072 0.021882 -0.016116
v -0.013738 0.027240 -0.012197
v -0.015412 0.012143 -0.019993
v -0.016905 0.004478 -0.020721
v -0.012153 -0.003817 -0.024329
v -0.006849 -0.033282 -0.011533
v -0.009820 -0.029032 -0.014939
v -0.009149 -0.035548 -0.004647
v -0.013027 -0.033571 -0.001087
v -0.003388 0.003516 0.026633
v -0.013249 -0.033402 -0.000379
v -0.009848 -0.035551 0.002535
v -0.006673 -0.035511 0.007688
v -0.004584 0.032019 0.013910
v -0.004172 0.037301 0.006199
v -0.013547 0.026801 -0.012763
v -0.010013 0.031939 -0.010784
v -0.011339 0.033364 -0.006728
v -0.012186 0.008259 -0.023244
v -0.007765 -0.019167 -0.022745
v -0.006613 -0.025318 -0.019632
v -0.007721 -0.011499 -0.025293
v -0.008208 -0.030616 0.014204
v -0.007010 -0.023346 0.020734
v -0.006770 -0.016807 0.024024
v -0.006510 -0.009861 0.025815
v -0.007127 0.022102 0.020028
v -0.009352 0.035737 0.003813
v -0.010018 0.035767 -0.001470
v -0.006619 0.037312 0.003289
v -0.009125 0.028904 -0.014631
v -0.009178 0.031886 -0.011480
v -0.007845 0.035594 -0.006760
v -0.011477 0.007631 -0.023720
v -0.003970 -0.035582 -0.009280
v -0.006165 -0.037080 -0.003121
v -0.005047 0.011676 0.024899
v -0.006931 -0.037066 0.000336
v -0.005813 -0.037059 0.003757
v -0.006744 0.021088 0.020655
v -0.005664 0.037329 -0.004818
v -0.003444 0.025242 0.019326
v -0.010676 0.021765 -0.018562
v -0.009242 0.030403 -0.013064
v -0.009194 0.003555 -0.025286
v -0.004513 -0.030254 -0.016081
v -0.004376 -0.031067 -0.015310
v -0.003152 -0.037088 -0.006192
v -0.001584 -0.003767 0.027145
v -0.003646 -0.029003 0.017520
v -0.001576 -0.014800 0.025563
v -0.003125 -0.037072 0.006168
v -0.007032 0.037477 -0.000524
v -0.003855 0.038559 0.002046
v -0.000004 0.033522 0.013018
v -0.001827 0.035731 0.009985
v -0.003728 0.038507 0.002646
v -0.008380 0.029000 -0.015051
v -0.004357 0.033628 -0.012174
v -0.010798 0.014888 -0.021788
v -0.005440 -0.003796 -0.026650
v -0.001676 -0.015199 -0.025417
v -0.001708 -0.037825 -0.003619
v -0.003886 -0.037844 -0.000678
v 0.001848 0.003701 0.026793
v -0.001413 -0.019428 0.023865
v -0.001578 -0.009852 0.026637
v -0.002533 -0.037855 0.002959
v -0.003138 0.024624 0.019772
v 0.000154 0.029445 0.016880
v 0.000532 0.037442 0.007207
v 0.000832 0.038547 0.004314
v -0.004510 0.033028 -0.012832
v -0.001347 -0.025305 -0.020671
v -0.003569 -0.030827 -0.015710
v -0.001672 -0.009712 -0.026669
v -0.002058 -0.033308 -0.013203
v 0.001440 -0.037034 -0.006831
v -0.000028 -0.038214 -0.000032
v 0.002679 0.003926 0.026676
v 0.001627 0.011940 0.025307
v -0.002448 -0.033555 0.012917
v -0.000075 -0.024054 0.021522
v -0.001786 -0.035512 0.010033
v 0.000261 -0.037076 0.006909
v -0.003726 0.038544 -0.002302
v -0.004501 0.038007 -0.003748
v -0.003735 0.035736 -0.009355
v 0.000383 0.028571 0.017466
v -0.005424 0.011133 -0.024968
v -0.001492 -0.019454 -0.023856
v -0.001913 -0.032661 -0.013988
v 0.002126 -0.034663 -0.011456
v 0.005430 -0.003868 0.026643
v 0.002512 -0.029181 0.017575
v 0.005106 -0.014266 0.025217
v -0.000030 0.039144 0.000276
v 0.001327 0.021738 0.021426
v -0.007132 0.022109 -0.020030
v -0.002679 0.035639 -0.009827
v -0.002083 0.003243 -0.026826
v -0.002282 0.004298 -0.026685
v 0.000076 -0.002904 -0.027154
v 0.004523 -0.037050 -0.005305
v 0.001387 -0.037767 -0.003930
v 0.005381 -0.010115 0.026118
v 0.004643 -0.018816 0.023718
v 0.001493 -0.037829 0.003825
v -0.001576 0.037369 -0.007129
v -0.002392 0.036509 -0.008456
v -0.000054 0.039138 -0.000367
v 0.005951 0.033044 0.012219
v 0.003892 0.035777 0.009315
v 0.003693 0.038532 0.002333
v -0.006505 0.021511 -0.020525
v -0.004373 0.029016 -0.016679
v 0.001913 0.033399 -0.012989
v 0.000119 0.028993 -0.017240
v -0.001534 0.014413 -0.024435
v 0.004543 -0.020553 -0.022973
v 0.003621 -0.007739 -0.026744
v 0.004976 -0.014378 -0.025217
v 0.003089 -0.030774 -0.016015
v 0.006898 -0.035529 -0.007664
v 0.002386 -0.037844 -0.003169
v 0.007353 0.011012 0.024489
v 0.003736 -0.034757 0.010712
v 0.004209 -0.033153 0.012928
v 0.003161 -0.029160 0.017495
v 0.004602 -0.037065 0.005371
v 0.003899 -0.037844 0.000556
v 0.002794 -0.035621 0.009508
v 0.005510 0.021576 0.020771
v 0.005450 0.028816 0.016458
v 0.004989 0.037334 0.005435
v 0.004209 0.038424 0.001917
v 0.002627 0.033247 -0.013105
v 0.001427 0.035742 -0.009987
v 0.001750 0.011602 -0.025391
v 0.004397 -0.021771 -0.022399
v 0.006572 -0.037043 -0.002253
v 0.011107 -0.009861 0.024205
v 0.009194 0.003547 0.025283
v 0.004841 -0.033342 0.012418
v 0.003775 -0.035543 0.009328
v 0.007882 -0.035649 0.006130
v 0.000140 0.038521 -0.004466
v 0.006175 0.033452 0.011530
v 0.002280 0.037339 -0.007021
v 0.004705 0.003895 -0.026431
v 0.005096 -0.027502 -0.018404
v 0.007570 -0.033245 -0.011211
v 0.011526 -0.033310 -0.006810
v 0.012255 -0.004018 0.024266
v 0.012206 -0.009624 0.023774
v 0.012989 0.007217 0.022972
v 0.006940 -0.030728 0.014689
v 0.009205 -0.025578 0.018396
v 0.007020 -0.023346 0.020740
v 0.009981 -0.034008 0.007683
v 0.004033 0.038605 -0.001146
v 0.009393 0.028813 0.014574
v 0.008406 0.035687 0.005765
v 0.007035 0.037344 0.002223
v -0.001148 0.024682 -0.019733
v 0.005732 0.035690 -0.008428
v 0.009956 -0.021397 -0.020754
v 0.008409 -0.003763 -0.025861
v 0.008429 -0.010240 -0.025281
v 0.011476 -0.014591 0.022964
v 0.007635 -0.030090 0.014978
v 0.006776 -0.037069 0.001377
v 0.010703 -0.033221 0.008406
v 0.004030 0.038533 -0.001791
v 0.009414 0.021943 0.019184
v 0.010664 0.032944 0.008471
v 0.010030 0.035723 0.001339
v -0.001316 0.021906 -0.021340
v 0.007671 0.033261 -0.010792
v 0.004523 0.028774 -0.016799
v 0.011348 -0.014684 -0.022994
v 0.009779 -0.030073 -0.013701
v 0.014215 -0.030509 -0.008334
v 0.016318 -0.007989 0.021458
v 0.016248 0.003596 0.021395
v 0.011129 0.014648 0.021675
v 0.010672 -0.019388 0.021431
v 0.013218 -0.033299 0.002063
v 0.011405 -0.030883 0.011413
v 0.014161 0.021856 0.016048
v 0.009226 0.031152 -0.012282
v 0.008494 0.033003 -0.010559
v 0.005450 0.037282 -0.005114
v 0.004117 0.021764 -0.021039
v 0.010672 -0.020902 -0.020652
v 0.010400 -0.030213 -0.013149
v 0.010162 -0.035576 -0.000574
v 0.010013 0.019710 0.019959
v 0.013749 -0.025533 0.015287
v 0.014422 -0.022632 0.016801
v 0.015741 -0.017970 0.018849
v 0.014783 -0.030558 0.007054
v 0.013288 0.029113 0.010840
v 0.010877 0.033126 0.007839
v 0.012869 0.033393 0.002815
v 0.007043 0.037421 -0.001493
v 0.008161 0.011957 -0.023995
v 0.015381 -0.021139 -0.017326
v 0.013456 -0.002960 -0.023570
v 0.014757 -0.010078 -0.022221
v 0.011777 -0.027238 -0.015310
v 0.014586 -0.032093 -0.003026
v 0.017036 -0.025524 -0.011506
v 0.016821 0.011651 0.019087
v 0.013600 -0.033069 0.001146
v 0.012994 0.033399 0.001917
v 0.012843 0.033288 -0.003248
v 0.010103 0.029922 -0.012987
v 0.011522 0.032688 -0.007696
v 0.008408 0.026521 -0.016847
v 0.010751 0.033421 -0.007416
v 0.017556 -0.024990 -0.011352
v 0.020001 -0.010072 0.017649
v 0.017273 -0.025345 0.011419
v 0.016560 -0.030285 0.002237
v 0.009349 0.035773 -0.003923
v 0.020952 0.012077 0.014189
v 0.017666 0.022026 0.011949
v 0.013058 0.014315 -0.020705
v 0.010623 0.003493 -0.024675
v 0.016932 -0.014888 -0.019187
v 0.021600 -0.021681 -0.007486
v 0.018314 -0.027564 -0.005200
v 0.019148 -0.002919 0.019275
v 0.020073 0.003926 0.017769
v 0.019196 -0.014924 0.016903
v 0.021436 0.011541 0.013683
v 0.016815 0.027351 0.007292
v 0.015403 0.030384 0.004514
v 0.012346 0.033497 -0.004024
v 0.014612 0.028883 -0.009269
v 0.012380 0.024941 -0.015521
v 0.013555 0.015004 -0.020125
v 0.012970 0.007433 -0.022943
v 0.020109 -0.017794 -0.014210
v 0.017669 -0.004023 -0.020639
v 0.019970 -0.010161 -0.017657
v 0.018415 -0.027663 -0.004377
v 0.020026 -0.019142 0.013303
v 0.019618 -0.025323 0.006641
v 0.009356 0.022019 -0.019169
v 0.016202 0.028869 -0.005983
v 0.022118 -0.020940 -0.007124
v 0.023792 -0.009469 0.012200
v 0.022434 -0.003715 0.015348
v 0.020764 0.003926 0.016967
v 0.023846 0.005462 0.011668
v 0.017602 0.026498 0.006795
v 0.015502 0.030569 0.003447
v 0.017394 0.028757 -0.000189
v 0.016321 0.029109 -0.004975
v 0.017372 0.003962 -0.020464
v 0.018342 -0.004123 -0.020058
v 0.022969 -0.003732 0.014522
v 0.023967 -0.010106 0.011656
v 0.022345 -0.019914 0.007770
v 0.022953 -0.014727 0.011413
v 0.023778 0.012322 0.008377
v 0.019830 0.021814 0.007975
v 0.020803 0.021883 0.004909
v 0.020030 0.022109 -0.007128
v 0.018874 0.021142 -0.010710
v 0.016161 0.022041 -0.013882
v 0.023894 -0.007561 -0.012474
v 0.022953 -0.014719 -0.011416
v 0.020264 -0.025761 0.002049
v 0.022920 -0.018849 0.007567
v 0.020913 0.022115 0.003770
v 0.020525 0.021511 -0.006506
v 0.019211 0.012716 -0.016156
v 0.022343 -0.004255 -0.015429
v 0.025208 -0.014592 -0.004802
v 0.023826 -0.019511 0.001538
v 0.024263 0.003497 0.011571
v 0.017104 0.010125 -0.019285
v 0.022953 -0.004496 -0.014509
v 0.024484 -0.007561 -0.011395
v 0.025286 -0.010013 -0.008538
v 0.022590 -0.022014 -0.002062
v 0.026254 -0.012112 -0.001367
v 0.026118 -0.010177 0.005324
v 0.025827 -0.003787 0.008532
v 0.026450 0.003899 0.004602
v 0.025297 0.009730 0.005403
v 0.021367 0.021849 -0.001363
v 0.022977 0.011738 -0.010777
v 0.022415 0.011979 -0.011740
v 0.022132 0.003522 -0.015287
v 0.026339 -0.011390 -0.001909
v 0.025281 0.010433 0.004569
v 0.024884 0.011808 -0.004990
v 0.025293 0.003658 -0.009115
v 0.025081 -0.014814 0.005043
v 0.024479 0.014141 0.001917
v 0.026644 -0.004000 -0.005414
v 0.026455 -0.011294 -0.000837
v 0.026355 0.007437 0.000013
v 0.024500 0.014202 0.001146
v 0.027153 -0.003739 0.001556
v 0.026638 0.003472 -0.003541
vn 0.7815 -0.4492 -0.4330
vn 0.5131 -0.0795 0.8547
vn -0.1868 0.0228 0.9821
vn 0.7927 -0.2980 0.5319
vn -0.7762 0.6004 -0.1923
vn 0.6029 -0.7966 -0.0438
vn -0.5247 0.0902 -0.8465
vn -0.9811 0.0187 0.1925
vn 0.1686 0.1874 0.9677
vn -0.8293 -0.0461 -0.5568
vn -0.9776 0.1898 0.0911
vn -0.2050 -0.8809 0.4267
vn -0.2282 0.4484 0.8642
vn 0.2735 -0.5274 -0.8044
vn 0.3954 0.3587 -0.8456
vn 0.9293 0.2028 -0.3087
vn 0.5710 0.2473 -0.7828
vn 0.1440 0.5110 0.8475
vn -0.7563 -0.6477 -0.0922
vn 0.6978 0.6920 0.1848
vn -0.7894 0.4705 -0.3943
vn 0.7984 0.1776 0.5753
vn -0.8854 0.1857 0.4262
vn -0.2681 0.7869 0.5558
vn 0.6773 -0.3592 -0.6420
vn -0.0822 0.5563 0.8269
vn -0.0268 -0.7144 0.6993
vn -0.4675 -0.8226 0.3237
vn -0.1872 -0.0626 0.9803
vn -0.3515 -0.4744 -0.8071
vn -0.8003 -0.4269 0.4211
vn -0.1549 0.9879 -0.0081
vn 0.5791 -0.6450 -0.4986
vn 0.7400 0.2020 0.6416
vn 0.3291 0.0061 0.9443
vn 0.1435 0.9890 0.0348
vn -0.6358 0.3595 -0.6830
vn 0.3567 0.9143 -0.1919
vn 0.4439 0.4828 -0.7549
vn -0.3490 0.6972 0.6262
vn -0.3795 0.9216 0.0810
vn 0.6956 0.3656 0.6184
vn -0.2522 -0.8216 0.5112
vn -0.5445 -0.2193 -0.8096
vn 0.1129 -0.9629 -0.2452
vn -0.5578 -0.0848 0.8256
vn 0.0588 0.8269 0.5593
vn -0.6169 -0.5498 0.5632
vn 0.2629 0.7725 -0.5780
vn 0.7433 0.1750 -0.6456
vn 0.3716 0.1884 0.9091
vn 0.7171 0.6960 -0.0359
vn 0.8529 0.3709 -0.3674
vn 0.2688 -0.7456 0.6097
vn -0.1846 -0.9621 0.2006
vn -0.6886 -0.6450 -0.3313
vn -0.6615 0.4691 -0.5850
vn 0.0295 -0.4774 -0.8782
vn 0.5839 0.0235 0.8115
vn 0.9604 0.1626 -0.2263
vn 0.1078 0.9880 -0.1102
vn -0.1201 0.9445 0.3057
vn 0.1074 0.6597 -0.7438
vn 0.9971 0.0193 -0.0734
vn 0.4697 -0.5340 -0.7030
vn 0.7214 -0.6027 -0.3410
vn 0.5683 0.5238 0.6346
vn 0.3062 0.3631 0.8800
vn 0.8395 0.0694 0.5389
vn 0.1938 0.8394 -0.5077
vn -0.1490 0.8487 -0.5075
vn -0.2196 0.1598 0.9624
vn 0.3642 -0.7186 -0.5924
vn -0.7670 -0.5207 0.3750
vn 0.3004 -0.3258 0.8964
vn -0.7441 -0.2472 0.6207
vn -0.5665 0.0227 -0.8238
vn 0.9185 -0.0788 0.3875
vn -0.6618 -0.0568 -0.7475
vn 0.8469 0.5032 -0.1717
vn 0.4324 -0.1714 -0.8852
vn -0.1773 0.5099 -0.8418
vn -0.6114 0.3770 0.6958
vn -0.7543 -0.0853 0.6509
vn 0.0648 -0.2112 -0.9753
vn 0.8149 -0.5761 -0.0640
vn 0.4436 0.8157 -0.3713
vn -0.6670 0.1216 0.7351
vn 0.2491 -0.0856 -0.9647
vn 0.3156 -0.2177 0.9236
vn 0.5106 0.8376 0.1944
vn 0.5006 -0.3386 0.7968
vn -0.1495 -0.5541 0.8189
vn -0.6299 -0.7619 -0.1509
vn 0.9984 0.0530 0.0202
vn 0.2729 0.4857 -0.8304
vn 0.9614 0.2713 -0.0456
vn 0.8365 0.0326 -0.5470
vn 0.2854 -0.8730 0.3955
vn -0.3616 -0.8430 -0.3982
vn 0.5261 -0.3599 -0.7705
vn -0.6884 -0.3416 0.6399
vn 0.3725 -0.3623 -0.8544
vn 0.2567 0.8796 -0.4006
vn -0.4602 -0.7065 0.5376
vn -0.0488 -0.9028 -0.4274
vn -0.8411 0.5114 -0.1762
vn -0.2339 0.8820 -0.4092
vn 0.0699 -0.0829 0.9941
vn -0.6414 -0.6721 0.3701
vn -0.8381 0.3786 -0.3928
vn 0.3688 0.5187 0.7713
vn 0.4975 -0.8526 0.1600
vn 0.2878 -0.4161 0.8626
vn -0.8674 0.4964 -0.0348
vn -0.7934 -0.4423 -0.4181
vn 0.1452 0.7697 0.6217
vn -0.3487 0.7319 -0.5854
vn -0.2110 -0.7765 -0.5937
vn 0.8911 -0.1893 -0.4125
vn 0.7391 0.6634 -0.1170
vn -0.3727 0.7780 -0.5059
vn 0.3282 0.6491 0.6862
vn -0.0163 -0.9943 0.1055
vn -0.6126 0.6295 -0.4780
vn 0.5254 0.0602 -0.8487
vn 0.1456 -0.5540 0.8197
vn 0.4899 -0.7458 -0.4513
vn -0.7444 -0.2445 -0.6214
vn 0.5863 0.1843 0.7889
vn 0.9773 0.1772 0.1165
vn 0.1739 -0.9758 0.1325
vn 0.6665 0.6735 -0.3197
vn -0.0067 -0.9694 -0.2454
vn 0.9165 0.3954 0.0606
vn 0.0678 -0.2160 0.9740
vn 0.2880 0.0682 -0.9552
vn -0.6502 0.7280 -0.2174
vn -0.8050 -0.2588 0.5338
vn -0.8504 0.5210 0.0730
vn -0.3807 -0.9161 0.1262
vn 0.8244 0.3690 0.4292
vn -0.6724 -0.7398 0.0254
vn -0.8929 -0.1200 -0.4339
vn 0.9547 -0.2933 0.0511
vn 0.1680 0.9150 0.3668
vn -0.5685 -0.3913 -0.7237
vn -0.8577 -0.3973 0.3263
vn 0.7782 0.5041 -0.3745
vn 0.3673 -0.4781 0.7978
vn 0.5128 0.2705 0.8148
vn -0.8779 0.0610 -0.4749
vn -0.2855 0.6581 -0.6967
vn -0.7438 0.0724 -0.6645
vn 0.1790 -0.8861 -0.4276
vn -0.2365 0.8370 0.4935
vn -0.8864 0.3563 -0.2955
vn -0.0831 0.6837 0.7250
vn 0.8192 -0.1173 -0.5614
vn 0.0040 0.5018 0.8650
vn -0.4057 -0.8772 0.2569
vn -0.6232 -0.7148 -0.3173
vn -0.1663 0.5984 0.7837
vn 0.0187 0.9132 -0.4070
vn -0.9944 0.0235 -0.1032
vn -0.6939 0.3827 -0.6099
vn 0.9129 0.3563 0.1993
vn -0.3023 0.1896 -0.9342
vn 0.4853 0.7833 0.3885
vn -0.5757 0.1877 -0.7958
vn -0.0401 0.8496 -0.5259
vn -0.4178 -0.0536 0.9070
vn -0.4612 0.6580 0.5953
vn 0.9081 0.3809 -0.1737
vn -0.4476 0.8774 -0.1727
vn -0.6139 0.7826 -0.1030
vn -0.1096 -0.7387 -0.6651
vn -0.5240 -0.3313 -0.7847
vn 0.7788 0.5803 0.2381
vn 0.5259 0.3748 0.7635
vn 0.7837 0.4739 0.4015
vn 0.3008 0.6881 -0.6604
vn -0.9033 0.0229 0.4285
vn -0.8063 0.4495 0.3844
vn 0.5910 -0.6267 0.5079
vn -0.6932 -0.6814 0.2351
vn 0.9792 -0.1821 -0.0896
vn 0.8422 0.5077 -0.1814
vn 0.5990 0.5634 -0.5690
vn -0.3727 0.4981 -0.7829
vn 0.7330 -0.2689 -0.6248
vn -0.8125 -0.5477 0.1997
vn -0.0273 -0.6971 -0.7164
vn -0.6225 -0.7726 0.1246
vn -0.0578 -0.8513 -0.5215
vn -0.4413 0.6320 -0.6371
vn 0.2718 -0.6394 0.7192
vn -0.1745 -0.4741 -0.8630
vn -0.5402 0.2050 0.8162
vn -0.0592 0.7449 -0.6646
vn -0.8572 0.4839 0.1762
vn 0.7892 -0.4783 0.3853
vn -0.9329 0.0292 -0.3590
vn -0.3162 0.9097 0.2693
vn -0.8759 0.1707 -0.4512
vn -0.0837 -0.9941 -0.0686
vn 0.3763 0.8055 0.4577
vn -0.8850 -0.1717 0.4327
vn 0.5448 0.6742 -0.4986
vn -0.2072 -0.3074 -0.9287
vn 0.6191 -0.6565 0.4309
vn -0.1872 -0.4360 0.8803
vn 0.3996 0.8799 0.2571
vn 0.0443 -0.7514 0.6584
vn -0.9623 -0.1889 -0.1957
vn -0.5060 0.5903 -0.6288
vn 0.4818 0.0528 0.8747
vn -0.3872 0.4912 0.7803
vn 0.3631 -0.5722 -0.7354
vn 0.6790 0.6420 0.3561
vn -0.6566 -0.4663 0.5928
vn -0.2947 0.3482 0.8899
vn -0.8328 0.2775 0.4790
vn 0.2161 -0.9658 -0.1431
vn -0.0792 0.9852 -0.1520
vn 0.3191 -0.0819 0.9442
vn 0.7828 0.3596 -0.5079
vn 0.7726 -0.6339 -0.0347
vn -0.9069 0.3838 0.1737
vn -0.0883 -0.9127 0.3991
vn -0.9788 0.1829 -0.0919
vn -0.7001 0.6581 0.2772
vn -0.3090 -0.9022 -0.3009
vn -0.4512 -0.7284 -0.5155
vn -0.2932 0.5227 0.8005
vn 0.8887 0.0468 -0.4562
vn -0.8612 -0.4757 -0.1790
vn -0.8350 0.0760 0.5450
vn 0.2937 0.3849 -0.8750
vn 0.6866 -0.7270 -0.0077
vn 0.1977 -0.8136 0.5468
vn -0.0713 0.2121 -0.9746
vn -0.4572 0.6582 -0.5981
vn 0.6001 -0.5474 -0.5832
vn 0.4957 -0.4894 0.7175
vn -0.3154 -0.2989 -0.9006
vn 0.6693 -0.4893 -0.5591
vn 0.3403 0.6384 -0.6904
vn 0.3334 0.9179 0.2151
vn -0.4939 0.7651 0.4131
vn -0.7884 0.3305 0.5188
vn 0.0993 -0.9568 0.2732
vn 0.4540 0.5601 -0.6929
vn -0.0580 0.7053 -0.7065
vn -0.5881 0.8049 0.0787
vn 0.2878 0.4919 0.8217
vn -0.4183 -0.9039 -0.0890
vn 0.6844 -0.6842 -0.2521
vn 0.9403 0.0014 -0.3404
vn 0.6945 -0.0798 0.7151
vn -0.9564 0.0680 -0.2840
vn 0.0836 -0.9943 0.0661
vn 0.5733 0.7675 -0.2868
vn -0.3105 -0.7170 -0.6240
vn -0.5350 -0.7363 0.4143
vn -0.9548 -0.2930 -0.0491
vn 0.1805 0.3513 -0.9187
vn 0.7663 -0.6204 0.1669
vn 0.9653 0.2569 0.0468
vn -0.6899 -0.3391 -0.6396
vn -0.5121 0.8561 0.0694
vn 0.8214 -0.1121 0.5592
vn -0.8137 0.2044 -0.5441
vn 0.5851 0.1768 -0.7914
vn 0.4429 0.2721 -0.8543
vn -0.2816 0.3527 -0.8924
vn -0.7218 0.5235 -0.4527
vn -0.2920 -0.4212 0.8586
vn 0.3277 -0.8176 0.4734
vn -0.6335 0.0945 -0.7679
vn -0.4559 0.0688 0.8873
vn -0.1506 -0.6188 -0.7710
vn -0.0509 -0.9724 0.2278
vn -0.0413 -0.9743 0.2213
vn 0.8245 -0.3922 -0.4080
vn 0.8302 -0.3826 -0.4053
vn 0.8412 0.5083 0.1843
vn 0.8388 0.4687 0.2769
vn -0.2265 0.0521 0.9726
vn 0.8153 -0.2072 0.5408
vn 0.8090 -0.2181 0.5459
vn 0.8096 -0.2365 0.5372
vn -0.7386 0.6548 -0.1606
vn -0.7758 0.6012 -0.1917
vn -0.7410 0.6714 -0.0073
vn 0.4828 0.6752 0.5576
vn 0.4608 0.6875 0.5613
vn 0.4591 0.6904 0.5591
vn -0.0248 -0.6176 0.7861
vn -0.5111 0.0725 -0.8565
vn -0.4994 0.0526 -0.8648
vn -0.4995 0.0886 -0.8618
vn 0.2151 0.1557 0.9641
vn -0.8311 0.0158 -0.5560
vn -0.9781 0.1784 0.1068
vn -0.5285 -0.6443 -0.5528
vn 0.1109 0.5097 -0.8532
vn 0.0610 0.4906 -0.8693
vn -0.4030 0.3807 0.8322
vn -0.4021 0.3799 0.8330
vn 0.5610 -0.0540 -0.8260
vn 0.9398 -0.1182 0.3206
vn 0.1973 0.2050 -0.9587
vn 0.5416 0.2562 -0.8006
vn 0.1524 0.5068 0.8485
vn 0.1328 0.5757 0.8068
vn -0.9702 -0.0595 -0.2349
vn -0.9654 -0.0722 -0.2507
vn 0.2262 -0.7641 -0.6041
vn -0.7202 -0.6925 -0.0411
vn -0.7482 -0.6616 -0.0495
vn -0.7554 -0.6523 -0.0624
vn -0.9017 0.3829 -0.2007
vn 0.9245 -0.2191 0.3118
vn 0.9056 -0.2933 0.3065
vn 0.9217 -0.2252 0.3157
vn -0.2069 0.0906 -0.9742
vn -0.2079 0.0748 -0.9753
vn -0.2113 0.1457 -0.9665
vn -0.2080 0.9125 -0.3522
vn -0.1516 0.9391 -0.3085
vn -0.1475 0.9504 -0.2737
vn 0.8349 0.1507 0.5294
vn 0.8337 0.1549 0.5300
vn 0.4876 0.4875 0.7243
vn -0.8746 0.1875 0.4472
vn -0.2662 0.7837 0.5612
vn 0.2822 -0.4362 -0.8545
vn 0.0658 -0.4357 0.8977
vn -0.4884 -0.8713 -0.0479
vn -0.4884 -0.8713 -0.0477
vn -0.3133 0.9496 -0.0126
vn -0.1415 -0.3455 0.9277
vn -0.0663 0.5436 0.8367
vn -0.4657 -0.8349 0.2935
vn -0.1637 -0.0823 0.9831
vn 0.4101 0.0238 -0.9117
vn -0.9943 -0.0953 0.0480
vn -0.9953 -0.0966 -0.0019
vn 0.7196 -0.6734 -0.1694
vn -0.8001 -0.4142 0.4339
vn -0.8244 -0.3823 0.4173
vn -0.1576 0.9875 -0.0040
vn 0.1986 0.9393 0.2797
vn 0.5769 -0.6377 -0.5104
vn 0.7424 0.2007 0.6392
vn 0.2388 0.9701 0.0437
vn 0.1266 0.9919 -0.0147
vn 0.8695 -0.4920 0.0436
vn 0.4802 0.8770 0.0191
vn 0.4086 0.8873 -0.2138
vn -0.3484 0.2840 -0.8933
vn -0.3439 0.2695 -0.8995
vn -0.0674 0.1942 0.9787
vn -0.0362 0.1764 0.9836
vn -0.3480 0.9247 0.1543
vn 0.6988 0.3688 0.6129
vn -0.2732 -0.7813 0.5612
vn -0.2431 -0.8276 0.5060
vn -0.5470 -0.2247 -0.8064
vn 0.1146 -0.9636 -0.2417
vn -0.5588 -0.0861 0.8248
vn 0.1049 -0.7367 0.6680
vn 0.2017 -0.7141 0.6704
vn 0.0594 0.8235 0.5641
vn -0.8401 -0.5423 0.0143
vn 0.7335 0.1583 -0.6610
vn 0.8353 0.5299 0.1466
vn 0.8212 0.5496 0.1534
vn 0.8106 0.5597 0.1723
vn 0.4078 0.2551 0.8767
vn 0.7157 0.6906 0.1039
vn 0.7352 0.6763 0.0455
vn 0.8675 0.3327 -0.3697
vn 0.8875 0.3524 -0.2968
vn 0.8367 0.3817 -0.3929
vn -0.6899 -0.6357 -0.3464
vn -0.9089 -0.3773 -0.1777
vn 0.0534 -0.4307 -0.9009
vn 0.5868 -0.0024 0.8098
vn 0.0957 0.9850 -0.1437
vn 0.2655 0.7888 0.5543
vn -0.1604 -0.2093 0.9646
vn -0.1901 -0.2384 0.9524
vn -0.1021 0.9328 0.3456
vn 0.0716 0.0142 0.9973
vn 0.1283 0.0412 0.9909
vn 0.8695 0.4913 0.0514
vn 0.8798 0.3782 0.2879
vn 0.0893 0.1791 0.9798
vn -0.5235 0.8170 -0.2419
vn 0.4749 -0.5162 -0.7127
vn 0.7069 -0.6185 -0.3432
vn 0.7656 -0.5545 -0.3263
vn 0.8964 -0.3269 -0.2993
vn 0.9141 -0.2655 -0.3066
vn 0.3450 -0.6353 -0.6909
vn 0.4157 -0.6525 -0.6335
vn 0.2958 -0.7087 -0.6405
vn 0.3031 -0.6762 -0.6715
vn 0.3100 0.3659 0.8775
vn 0.3162 0.3854 0.8669
vn 0.8261 -0.5328 -0.1835
vn 0.8455 -0.5008 -0.1851
vn 0.8379 0.0710 0.5411
vn 0.2121 0.8013 -0.5594
vn -0.1780 0.8065 -0.5638
vn -0.7270 -0.5565 -0.4023
vn 0.6673 -0.4603 0.5855
vn 0.6592 -0.4707 0.5865
vn 0.6576 -0.4511 0.6034
vn 0.3537 0.9295 -0.1047
vn 0.3693 0.9287 0.0338
vn 0.3549 0.9347 0.0200
vn 0.3061 -0.3360 0.8907
vn -0.7363 -0.2206 0.6397
vn 0.1991 -0.1810 -0.9631
vn 0.9749 0.1830 -0.1267
vn 0.6435 0.7072 0.2928
vn 0.5748 0.7728 0.2690
vn 0.9025 0.0142 0.4304
vn 0.9015 -0.0450 0.4305
vn 0.0321 -0.8851 0.4642
vn -0.6613 0.0273 -0.7496
vn -0.6336 0.0054 -0.7737
vn -0.6530 -0.0301 -0.7568
vn -0.4891 0.7604 -0.4272
vn 0.8346 0.5058 -0.2183
vn 0.8454 0.5120 -0.1520
vn -0.2216 -0.7217 0.6558
vn 0.8616 -0.4768 0.1739
vn 0.8795 -0.4404 0.1805
vn 0.8660 -0.4714 0.1667
vn 0.8261 -0.1871 -0.5316
vn 0.7986 -0.2356 -0.5539
vn 0.4225 -0.0796 -0.9029
vn 0.4354 -0.0902 -0.8957
vn 0.6512 0.4926 0.5773
vn -0.6677 -0.0751 0.7406
vn -0.1033 0.5204 -0.8476
vn -0.1650 0.4832 -0.8598
vn -0.1714 0.5015 -0.8480
vn 0.9313 0.3553 -0.0802
vn -0.6226 0.3364 0.7066
vn -0.6143 0.3807 0.6911
vn -0.7539 -0.0844 0.6516
vn -0.7483 -0.1253 -0.6514
vn -0.7789 -0.0906 -0.6206
vn 0.0567 -0.2221 -0.9734
vn 0.8243 -0.5411 -0.1663
vn -0.8054 -0.2553 -0.5350
vn -0.7504 -0.6349 -0.1841
vn -0.7513 -0.6435 -0.1466
vn 0.4303 0.8274 -0.3608
vn 0.4427 0.7905 -0.4231
vn -0.7011 0.1515 0.6967
vn -0.6602 0.0802 0.7468
vn -0.6678 0.0741 0.7406
vn 0.3179 -0.2213 0.9219
vn 0.3058 -0.3578 -0.8823
vn 0.2944 -0.3446 -0.8914
vn -0.8663 0.3412 0.3648
vn -0.8864 0.3551 0.2972
vn -0.8979 0.3330 0.2879
vn -0.8689 0.3036 0.3909
vn -0.8425 0.4680 0.2668
vn -0.8493 0.3821 0.3642
vn 0.5529 0.8065 0.2096
vn 0.7035 -0.6228 0.3425
vn 0.5365 0.8417 -0.0614
vn -0.4527 0.1512 0.8787
vn -0.6365 -0.7584 -0.1404
vn 0.9963 0.0843 0.0185
vn 0.2719 0.4865 -0.8303
vn -0.3705 -0.8385 -0.3996
vn -0.9970 0.0612 0.0481
vn -0.9955 0.0654 0.0683
vn 0.1855 0.9417 -0.2805
vn 0.1865 0.9430 -0.2755
vn 0.5189 -0.3502 -0.7799
vn 0.9095 -0.3758 0.1779
vn 0.0996 -0.9942 -0.0404
vn 0.7374 0.0547 -0.6733
vn 0.7567 0.0324 -0.6530
vn -0.9692 -0.1652 0.1829
vn -0.9781 -0.0847 0.1900
vn -0.9797 -0.1031 0.1721
vn -0.4695 -0.6543 0.5928
vn -0.0302 -0.8877 -0.4595
vn -0.3338 -0.1102 0.9362
vn -0.8450 0.4982 -0.1943
vn -0.2443 0.8754 -0.4171
vn -0.2991 0.8534 -0.4269
vn 0.0709 -0.0841 0.9939
vn 0.4538 -0.8647 -0.2151
vn 0.4542 -0.8647 -0.2146
vn 0.9753 -0.1262 -0.1812
vn 0.9665 -0.2167 -0.1377
vn 0.9670 -0.1705 -0.1890
vn -0.5811 -0.7878 -0.2041
vn -0.5879 -0.7823 -0.2058
vn -0.8289 0.3828 -0.4079
vn 0.5135 -0.8367 0.1902
vn 0.4702 -0.8697 0.1505
vn -0.8690 0.4927 -0.0446
vn 0.6026 0.3930 -0.6946
vn 0.6292 0.3722 -0.6823
vn 0.6283 0.3362 -0.7016
vn -0.7867 -0.4752 -0.3940
vn -0.8264 -0.3858 -0.4102
vn -0.8251 -0.3887 -0.4101
vn -0.3502 0.6872 -0.6365
vn -0.3521 0.6902 -0.6322
vn -0.3550 -0.3388 0.8713
vn -0.2003 -0.8022 -0.5625
vn 0.8626 -0.1830 -0.4717
vn -0.3495 0.7857 -0.5104
vn -0.3561 0.7811 -0.5130
vn -0.5917 0.6803 -0.4326
vn 0.5773 0.0393 -0.8156
vn 0.5233 0.0844 -0.8480
vn 0.1437 -0.4900 0.8598
vn 0.1175 -0.5679 0.8147
vn -0.1015 0.9890 0.1077
vn -0.0672 0.9848 0.1601
vn 0.2400 -0.8363 -0.4930
vn -0.9396 0.1706 0.2968
vn -0.9289 0.1880 0.3190
vn -0.9186 0.2390 0.3146
vn 0.5097 -0.7339 -0.4490
vn 0.4543 -0.7857 -0.4199
vn -0.7368 -0.2207 -0.6390
vn 0.0511 0.0711 -0.9962
vn 0.0441 0.1401 -0.9892
vn 0.0446 0.1504 -0.9876
vn -0.1010 -0.9943 0.0346
vn 0.0285 0.6880 -0.7251
vn -0.5829 -0.5048 -0.6367
vn -0.5756 -0.5154 -0.6349
vn -0.5396 -0.5593 -0.6293
vn -0.5585 -0.5440 -0.6262
vn -0.4457 -0.1614 -0.8805
vn -0.4289 -0.1275 -0.8943
vn -0.3888 -0.1096 -0.9148
vn 0.9786 0.1661 0.1214
vn -0.8260 0.0712 0.5592
vn -0.7577 0.0175 0.6524
vn -0.7413 0.6685 0.0602
vn 0.2251 -0.9665 0.1236
vn 0.6666 0.6824 -0.3000
vn 0.6864 0.6805 -0.2564
vn 0.6940 0.6778 -0.2427
vn -0.0251 -0.9647 -0.2623
vn 0.9142 0.3709 0.1633
vn 0.9162 0.3966 0.0564
vn 0.0647 -0.2116 0.9752
vn -0.6062 0.7699 -0.1996
vn -0.2744 -0.5932 0.7569
vn -0.2811 -0.6523 0.7039
vn -0.1783 -0.9742 -0.1385
vn -0.1813 -0.9676 -0.1755
vn 0.6469 -0.1755 -0.7421
vn 0.6402 -0.1092 -0.7604
vn 0.6527 -0.1214 -0.7478
vn 0.8345 0.3557 0.4208
vn 0.8316 0.3637 0.4197
vn -0.6467 -0.7625 -0.0214
vn -0.8855 -0.1716 -0.4317
vn 0.9598 -0.2743 0.0600
vn 0.1848 0.8929 0.4106
vn 0.7762 0.4991 -0.3852
vn 0.7697 0.0332 0.6376
vn 0.7572 0.0410 0.6519
vn 0.7599 -0.0566 0.6476
vn 0.9709 0.0591 -0.2322
vn -0.7367 0.1505 -0.6592
vn -0.7657 0.0895 -0.6369
vn -0.9447 -0.3247 0.0463
vn -0.9324 -0.3540 0.0722
vn 0.5369 -0.2628 -0.8016
vn 0.2659 -0.9638 -0.0219
vn 0.0611 0.3796 -0.9232
vn 0.0582 0.3815 -0.9226
vn 0.0979 -0.5611 -0.8219
vn 0.0669 -0.6148 -0.7858
vn -0.0326 0.0621 0.9975
vn -0.5651 0.6826 0.4634
vn -0.5660 0.6977 0.4391
vn 0.1887 -0.9009 -0.3908
vn 0.6388 -0.2193 0.7375
vn 0.5424 -0.2123 0.8129
vn 0.5698 -0.2385 0.7864
vn 0.6241 -0.2312 0.7464
vn 0.6877 -0.3882 0.6134
vn -0.1875 0.3700 -0.9099
vn -0.1718 0.3804 -0.9087
vn -0.4307 0.8493 0.3054
vn -0.3713 0.8733 0.3155
vn -0.0034 0.5013 -0.8653
vn 0.9813 -0.0487 0.1861
vn 0.9823 0.0159 0.1867
vn -0.2737 -0.9138 0.3002
vn 0.8095 -0.1316 -0.5722
vn 0.6505 -0.7331 0.1985
vn 0.9704 -0.2227 0.0934
vn -0.1543 -0.2197 -0.9633
vn -0.2574 0.5996 0.7578
vn -0.2337 0.5827 0.7783
vn -0.0941 0.0201 -0.9954
vn -0.0828 -0.0496 -0.9953
vn -0.9944 0.0193 -0.1036
vn -0.9961 0.0460 -0.0748
vn 0.9310 0.2876 0.2248
vn 0.9204 0.3388 0.1952
vn -0.5498 -0.8349 0.0261
vn 0.4493 -0.6447 0.6185
vn 0.4408 -0.6344 0.6350
vn -0.3839 0.3977 -0.8333
vn 0.2907 0.1603 -0.9433
vn 0.3694 0.1807 -0.9115
vn 0.1587 -0.8567 0.4909
vn -0.0418 0.8475 -0.5292
vn 0.0204 0.8779 -0.4785
vn -0.4686 0.6349 0.6143
vn -0.4771 0.8499 -0.2239
vn 0.8373 -0.3766 0.3964
vn 0.8329 -0.3802 0.4022
vn -0.5469 -0.2164 0.8087
vn -0.5442 -0.2104 0.8122
vn -0.1574 -0.7477 -0.6451
vn 0.1577 0.3678 0.9164
vn 0.1883 0.3551 0.9157
vn -0.8339 -0.0795 0.5461
vn -0.5225 -0.3334 -0.7847
vn 0.5380 0.3664 0.7592
vn 0.5102 0.4007 0.7610
vn 0.7770 0.4802 0.4070
vn 0.3898 0.7054 -0.5921
vn 0.2994 0.6797 -0.6696
vn -0.9039 0.0222 0.4272
vn 0.9092 -0.3820 -0.1658
vn -0.7814 0.4985 0.3753
vn -0.7925 0.5170 0.3235
vn -0.4894 0.2836 -0.8246
vn -0.9105 -0.3797 0.1637
vn -0.7322 0.2017 0.6505
vn -0.7270 0.2257 0.6485
vn -0.7254 0.2438 0.6437
vn -0.7745 0.3524 -0.5253
vn 0.6434 0.5228 -0.5592
vn -0.3243 0.5147 -0.7937
vn -0.2235 -0.9718 0.0749
vn -0.2171 -0.9730 0.0779
vn -0.3268 0.0085 -0.9451
vn -0.3258 -0.0697 -0.9429
vn -0.3005 -0.6823 -0.6665
vn -0.2995 -0.6379 -0.7095
vn -0.8143 -0.5518 0.1800
vn -0.8156 -0.5486 0.1841
vn -0.7645 -0.6200 0.1763
vn -0.0929 -0.6445 -0.7589
vn -0.0291 -0.6616 -0.7493
vn -0.6936 0.7081 0.1327
vn 0.3497 -0.9075 -0.2329
vn -0.6048 -0.7864 0.1261
vn -0.3147 -0.2259 0.9219
vn -0.3294 -0.2099 0.9206
vn 0.2323 -0.5869 0.7756
vn 0.2771 -0.6303 0.7252
vn -0.1697 -0.4702 -0.8661
vn -0.5419 0.2485 0.8029
vn -0.5424 0.2193 0.8110
vn -0.0533 0.7767 -0.6276
vn -0.0437 0.7842 -0.6190
vn 0.3894 -0.9206 -0.0285
vn -0.8363 0.5215 0.1691
vn 0.1367 -0.9152 0.3791
vn 0.1431 -0.9133 0.3813
vn 0.7886 -0.4703 0.3962
vn 0.1564 0.0311 -0.9872
vn 0.1534 0.0006 -0.9882
vn -0.2644 -0.9629 -0.0547
vn -0.8690 0.1668 -0.4659
vn 0.8692 0.1662 -0.4658
vn 0.8774 0.1583 -0.4529
vn 0.8082 0.2045 -0.5522
vn 0.6200 -0.7389 -0.2639
vn -0.1434 -0.6935 -0.7060
vn 0.3574 0.8275 0.4331
vn 0.4042 0.7893 0.4622
vn -0.8950 -0.0892 0.4371
vn -0.8994 -0.0808 0.4296
vn 0.5412 0.6776 -0.4979
vn 0.5151 0.7196 -0.4657
vn 0.5619 0.6616 -0.4966
vn -0.8994 -0.3439 0.2697
vn -0.8982 -0.3210 0.3003
vn -0.9126 -0.2699 0.3071
vn -0.1789 -0.3457 -0.9211
vn -0.1273 0.7637 0.6329
vn 0.5900 -0.6983 0.4052
vn -0.1472 -0.4805 0.8645
vn -0.1218 0.8879 0.4436
vn -0.5358 0.5900 -0.6040
vn -0.5429 0.5999 -0.5877
vn 0.4809 0.0771 0.8734
vn -0.4116 0.4979 0.7633
vn 0.6203 0.6733 0.4023
vn 0.6609 0.6617 0.3541
vn 0.6833 0.0675 0.7270
vn -0.6719 -0.4506 0.5878
vn -0.3844 0.3763 0.8430
vn 0.4374 0.3733 -0.8181
vn 0.5132 0.4100 -0.7540
vn 0.2049 -0.9752 -0.0832
vn -0.9376 -0.0572 -0.3430
vn -0.6560 0.1970 -0.7286
vn -0.6783 0.1815 -0.7120
vn 0.3792 -0.0842 0.9215
vn 0.3266 -0.0740 0.9423
vn -0.9127 -0.2661 -0.3102
vn -0.9047 -0.2944 -0.3080
vn 0.7538 0.3777 -0.5377
vn 0.7476 -0.6621 -0.0529
vn -0.6733 -0.5923 0.4425
vn 0.9499 0.0778 0.3026
vn 0.3512 -0.9164 0.1922
vn 0.1503 0.6911 0.7070
vn 0.1384 0.6840 0.7162
vn -0.9786 0.1875 -0.0853
vn 0.0135 -0.0745 -0.9971
vn -0.3160 -0.8831 -0.3469
vn -0.5355 0.3664 -0.7609
vn -0.5218 0.3766 -0.7655
vn -0.3049 0.2017 0.9308
vn -0.4536 -0.7437 -0.4911
vn -0.2510 0.4819 0.8395
vn 0.6563 0.0409 -0.7534
vn 0.9053 0.0210 -0.4243
vn 0.8763 -0.0493 -0.4792
vn 0.0698 0.7919 -0.6066
vn -0.4254 -0.3712 -0.8254
vn -0.4204 -0.3813 -0.8233
vn -0.8653 -0.4698 -0.1749
vn -0.8797 -0.4400 -0.1804
vn -0.8627 -0.4730 -0.1792
vn 0.0703 -0.3409 -0.9375
vn 0.0741 -0.3452 -0.9356
vn -0.4735 0.5016 -0.7240
vn -0.4846 0.5274 -0.6979
vn -0.5272 0.4949 -0.6907
vn -0.6581 0.4708 -0.5876
vn -0.8344 0.1307 0.5354
vn -0.8443 0.0679 0.5315
vn -0.9313 0.1917 -0.3099
vn -0.9391 0.1802 -0.2927
vn 0.0745 -0.3188 0.9449
vn 0.0573 -0.3422 0.9379
vn 0.3057 -0.2692 -0.9133
vn 0.6642 -0.7420 0.0912
vn 0.9905 -0.1153 0.0750
vn 0.3769 -0.7612 0.5277
vn 0.3551 -0.7764 0.5207
vn 0.4039 -0.7043 0.5838
vn -0.9511 0.0727 0.3002
vn 0.7263 0.4897 -0.4824
vn -0.0729 0.2434 -0.9672
vn 0.7546 -0.0565 -0.6537
vn 0.7214 0.5177 0.4600
vn 0.0927 0.9876 0.1263
vn 0.5017 -0.4629 0.7307
vn 0.4913 -0.4745 0.7304
vn -0.3059 -0.2986 -0.9040
vn -0.9396 0.3307 0.0884
vn -0.9317 0.3543 0.0805
vn 0.6925 -0.4648 -0.5517
vn 0.5927 0.7878 -0.1673
vn 0.3512 0.6206 -0.7011
vn 0.3349 0.9260 0.1744
vn -0.1187 0.3904 0.9130
vn -0.0710 0.3654 0.9281
vn -0.1171 0.3512 0.9290
vn -0.4868 0.8039 0.3417
vn -0.7552 0.3821 0.5326
vn -0.7825 0.3593 0.5085
vn -0.7552 0.3824 0.5325
vn 0.9194 0.1775 0.3510
vn 0.8825 0.2105 0.4206
vn 0.9417 0.1445 0.3039
vn 0.9297 0.1694 0.3271
vn -0.5247 -0.3385 0.7811
vn -0.5214 -0.3424 0.7816
vn -0.5152 -0.3961 0.7601
vn -0.0866 0.6879 -0.7206
vn 0.7238 -0.6504 0.2302
vn -0.6239 0.7715 0.1247
vn -0.3720 0.9174 -0.1411
vn -0.3875 0.9088 -0.1547
vn 0.9488 -0.0526 -0.3114
vn 0.2124 0.0709 0.9746
vn 0.6719 0.1594 0.7233
vn 0.9951 -0.0698 -0.0700
vn 0.9912 -0.0881 -0.0993
vn -0.9720 0.0494 -0.2299
vn 0.5458 -0.8188 -0.1782
vn -0.4007 -0.5651 -0.7211
vn 0.5987 0.7434 -0.2982
vn 0.5769 -0.8160 0.0363
vn 0.6038 0.7921 0.0890
vn -0.9726 -0.2134 -0.0921
vn -0.6877 0.5117 0.5149
vn -0.7079 0.5009 0.4979
vn -0.5669 0.0235 0.8235
vn -0.3962 -0.5019 0.7688
vn -0.3926 -0.5199 0.7587
vn 0.9656 0.2529 0.0614
vn -0.9284 0.3662 -0.0623
vn -0.9279 0.3673 -0.0643
vn -0.6879 -0.3473 -0.6373
vn -0.6841 -0.4188 -0.5973
vn -0.8693 -0.4928 -0.0382
vn 0.9431 -0.3289 -0.0495
vn 0.9318 -0.3555 -0.0726
vn -0.4841 0.8703 0.0901
vn 0.8342 -0.0999 0.5423
vn 0.3951 -0.2042 0.8957
vn -0.3765 0.5760 0.7256
vn 0.3848 0.7830 -0.4887
vn 0.0146 -0.7729 -0.6343
vn 0.0264 -0.7633 -0.6455
vn -0.1875 -0.1164 -0.9753
vn -0.3251 0.3762 -0.8676
vn -0.7104 0.5463 -0.4438
vn 0.6209 0.7831 -0.0350
vn 0.5870 0.8067 -0.0683
vn 0.3243 -0.8351 0.4443
vn 0.3585 -0.7884 0.5000
vn 0.3261 -0.8206 0.4694
vn 0.0072 -0.9938 -0.1111
vn 0.0081 -0.9938 -0.1108
vn 0.0456 -0.8216 0.5682
vn 0.0398 -0.8262 0.5620
vn 0.0482 -0.8139 0.5789
vn -0.5201 -0.5946 0.6131
vn -0.5629 0.5104 0.6501
vn -0.5386 0.4815 0.6914
vn -0.7266 -0.0274 -0.6865
vn -0.4087 0.0336 0.9121
vn 0.5921 -0.7680 0.2441
vn 0.5852 -0.7741 0.2415
vn -0.9797 0.1795 0.0893
vn -0.9763 0.1887 0.1056
vn -0.7538 -0.0852 0.6516
vn -0.7544 -0.0844 0.6510
vn -0.8892 0.3583 0.2845
vn -0.8571 0.4860 0.1707
vn -0.8680 0.4953 -0.0351
vn -0.8651 0.4989 -0.0523
vn -0.7436 0.0755 -0.6643
vn -0.7582 0.0638 -0.6489
vn -0.8250 -0.3883 -0.4105
vn -0.8272 -0.3866 -0.4078
vn -0.8165 -0.5486 0.1797
vn -0.8140 -0.5510 0.1839
vn -0.8085 -0.4123 0.4200
vn -0.7966 -0.4280 0.4269
vn -0.6612 0.0706 0.7469
vn -0.6678 0.0757 0.7405
vn -0.5241 -0.3425 0.7798
vn -0.5223 -0.3385 0.7827
vn -0.8626 0.3727 0.3420
vn -0.8657 0.3716 0.3354
vn -0.8463 0.4915 0.2056
vn -0.7769 0.5998 -0.1915
vn -0.7758 0.6011 -0.1919
vn -0.5511 -0.2195 -0.8051
vn -0.5229 -0.3318 -0.7851
vn -0.5258 -0.3337 -0.7824
vn -0.5439 -0.2228 -0.8090
vn -0.8461 0.3811 0.3726
vn -0.5788 0.6818 0.4473
vn -0.5557 0.6947 0.4568
vn -0.5380 0.6035 -0.5885
vn -0.5327 0.5915 -0.6052
vn -0.5347 0.5706 -0.6233
vn -0.5333 0.3753 -0.7582
vn -0.5297 0.5156 -0.6735
vn -0.4951 0.4992 -0.7111
vn -0.5198 0.3703 -0.7699
vn -0.5134 0.0754 -0.8549
vn -0.4193 -0.3804 -0.8243
vn -0.4310 -0.3766 -0.8200
vn -0.5837 -0.7843 -0.2103
vn -0.5848 -0.7861 -0.2002
vn -0.4883 -0.8714 -0.0478
vn -0.6150 0.3773 0.6924
vn -0.7551 0.3824 0.5325
vn -0.7553 0.3823 0.5323
vn -0.6101 0.3810 0.6947
vn -0.5715 0.4898 0.6584
vn -0.5279 0.5090 0.6799
vn -0.2711 0.7839 0.5586
vn -0.2647 0.7865 0.5579
vn -0.3425 0.2715 -0.8994
vn -0.3594 0.2713 -0.8929
vn -0.5090 0.0757 -0.8575
vn -0.4702 0.0746 -0.8794
vn -0.1747 -0.4705 -0.8649
vn -0.1693 -0.4744 -0.8639
vn -0.4885 -0.8712 -0.0478
vn -0.0961 0.3787 0.9205
vn -0.1529 0.3833 0.9109
vn -0.2410 0.8791 -0.4112
vn -0.1998 0.4912 -0.8478
vn -0.1716 0.4875 -0.8561
vn -0.1401 -0.7513 -0.6449
vn -0.1142 -0.7328 -0.6708
vn 0.0426 -0.8220 0.5678
vn 0.0444 -0.8277 0.5594
vn 0.3151 -0.2213 0.9229
vn 0.3180 -0.2173 0.9228
vn -0.0626 0.5445 0.8365
vn -0.0858 0.5549 0.8274
vn 0.2707 -0.6380 0.7209
vn -0.1531 0.9882 -0.0042
vn -0.1555 0.9878 -0.0081
vn -0.0417 0.8487 -0.5272
vn -0.0278 0.8466 -0.5315
vn -0.2110 0.8744 -0.4369
vn -0.1333 0.5027 -0.8541
vn 0.0611 0.3808 -0.9226
vn 0.0565 0.3798 -0.9234
vn 0.1338 0.0142 -0.9909
vn 0.1152 -0.9632 -0.2430
vn 0.1103 -0.9640 -0.2419
vn 0.3178 -0.8207 0.4749
vn 0.5738 0.0079 0.8190
vn 0.4943 0.0676 0.8667
vn 0.4680 0.0709 0.8809
vn 0.2921 -0.6400 0.7106
vn 0.3669 -0.7603 0.5360
vn 0.1731 0.0104 -0.9848
vn 0.4635 -0.5225 -0.7156
vn 0.4764 -0.5167 -0.7114
vn 0.4537 -0.8649 -0.2147
vn 0.4542 -0.8646 -0.2149
vn 0.3274 -0.8194 0.4706
vn 0.3687 -0.7736 0.5154
vn 0.6018 0.0079 0.7986
vn 0.6586 -0.4625 0.5936
vn 0.6634 -0.4710 0.5815
vn 0.3681 0.9296 0.0200
vn 0.3534 0.9348 0.0350
vn 0.5070 0.0755 -0.8586
vn 0.5528 0.2662 -0.7897
vn 0.5433 0.2533 -0.8004
vn 0.5340 0.0758 -0.8421
vn 0.5869 -0.7731 0.2405
vn 0.5861 -0.7700 0.2522
vn 0.8132 -0.2109 0.5425
vn 0.8140 -0.1119 -0.5700
vn 0.8196 -0.1204 -0.5601
vn 0.8244 -0.3912 -0.4090
vn 0.8641 -0.4721 0.1748
vn 0.9232 -0.2253 0.3114
vn 0.9231 -0.2190 0.3161
vn 0.8325 -0.2095 0.5129
vn 0.8381 0.0686 0.5413
vn 0.8395 0.0698 0.5389
vn 0.8625 -0.4779 0.1668
vn 0.8434 0.5041 -0.1858
vn 0.8327 0.5086 -0.2188
vn 0.8673 0.3654 -0.3381
vn 0.8489 0.3730 -0.3746
vn 0.8399 0.3693 -0.3978
vn 0.8315 -0.3867 -0.3987
vn 0.9164 0.3957 0.0605
vn 0.9173 0.3943 0.0563
vn 0.9975 0.0711 -0.0001
vn 0.9963 0.0764 0.0383
vn 0.9777 0.1755 0.1151
vn 0.9760 0.1753 0.1292
s 0
f 354//1 344//1 367//1
f 277//2 306//2 276//2
f 105//3 171//3 132//3
f 358//4 371//4 389//4
f 87//5 66//5 86//5
f 334//6 337//6 319//6
f 110//7 126//7 141//7
f 4//8 2//8 6//8
f 248//9 203//9 202//9
f 29//10 68//10 40//10
f 5//11 4//11 13//11
f 174//12 206//12 135//12
f 191//13 149//13 162//13
f 273//14 262//14 289//14
f 351//15 329//15 373//15
f 424//16 418//16 423//16
f 366//17 351//17 365//17
f 256//18 211//18 220//18
f 50//19 60//19 104//19
f 381//20 327//20 361//20
f 54//21 67//21 85//21
f 359//22 349//22 378//22
f 20//23 27//23 16//23
f 121//24 136//24 178//24
f 367//25 330//25 353//25
f 191//26 211//26 164//26
f 172//27 204//27 217//27
f 135//28 118//28 97//28
f 148//29 171//29 105//29
f 111//30 142//30 143//30
f 33//31 61//31 43//31
f 219//32 208//32 176//32
f 335//33 305//33 318//33
f 349//34 336//34 357//34
f 216//35 276//35 265//35
f 219//36 236//36 283//36
f 108//37 123//37 125//37
f 328//38 315//38 296//38
f 364//39 373//39 342//39
f 107//40 136//40 121//40
f 176//41 175//41 152//41
f 349//42 312//42 336//42
f 118//43 135//43 204//43
f 78//44 103//44 69//44
f 226//45 247//45 227//45
f 92//46 70//46 48//46
f 193//47 178//47 235//47
f 94//48 93//48 61//48
f 301//49 259//49 288//49
f 420//50 407//50 402//50
f 278//51 248//51 265//51
f 382//52 339//52 338//52
f 419//53 394//53 401//53
f 266//54 279//54 250//54
f 190//55 174//55 161//55
f 57//56 89//56 90//56
f 124//57 123//57 85//57
f 196//58 213//58 262//58
f 356//59 276//59 306//59
f 432//60 424//60 423//60
f 296//61 233//61 283//61
f 194//62 179//62 137//62
f 302//63 240//63 259//63
f 431//64 427//64 432//64
f 289//65 317//65 330//65
f 335//66 344//66 355//66
f 325//67 284//67 312//67
f 255//68 248//68 308//68
f 377//69 406//69 378//69
f 288//70 260//70 271//70
f 222//71 210//71 232//71
f 91//72 132//72 159//72
f 318//73 274//73 304//73
f 51//74 61//74 44//74
f 218//75 229//75 292//75
f 31//76 43//76 59//76
f 127//77 88//77 110//77
f 387//78 414//78 376//78
f 78//79 77//79 88//79
f 417//80 401//80 383//80
f 332//81 303//81 291//81
f 237//82 221//82 287//82
f 82//83 63//83 106//83
f 58//84 49//84 32//84
f 243//85 244//85 198//85
f 411//86 398//86 370//86
f 288//87 348//87 343//87
f 71//88 74//88 62//88
f 291//89 243//89 290//89
f 218//90 292//90 264//90
f 285//91 299//91 286//91
f 292//92 309//92 323//92
f 172//93 205//93 146//93
f 131//94 104//94 90//94
f 429//95 415//95 432//95
f 342//96 373//96 316//96
f 429//97 423//97 430//97
f 408//98 403//98 420//98
f 267//99 252//99 268//99
f 130//100 128//100 157//100
f 317//101 353//101 330//101
f 43//102 72//102 59//102
f 303//103 317//103 289//103
f 315//104 288//104 271//104
f 94//105 118//105 145//105
f 157//106 200//106 170//106
f 67//107 47//107 66//107
f 163//108 232//108 210//108
f 189//109 216//109 171//109
f 97//110 94//110 51//110
f 54//111 55//111 46//111
f 284//112 256//112 297//112
f 310//113 268//113 319//113
f 309//114 229//114 281//114
f 66//115 47//115 39//115
f 41//116 79//116 42//116
f 235//117 177//117 234//117
f 154//118 181//118 195//118
f 169//119 199//119 128//119
f 410//120 397//120 409//120
f 383//121 339//121 382//121
f 154//122 139//122 155//122
f 234//123 256//123 284//123
f 201//124 230//124 190//124
f 139//125 124//125 87//125
f 352//126 366//126 384//126
f 251//127 281//127 205//127
f 318//128 275//128 274//128
f 40//129 69//129 41//129
f 336//130 278//130 307//130
f 429//131 416//131 415//131
f 252//132 230//132 253//132
f 374//133 363//133 341//133
f 200//134 227//134 185//134
f 430//135 417//135 400//135
f 228//136 173//136 218//136
f 352//137 290//137 272//137
f 140//138 87//138 109//138
f 43//139 31//139 19//139
f 86//140 39//140 65//140
f 160//141 161//141 134//141
f 350//142 349//142 391//142
f 96//143 114//143 133//143
f 14//144 29//144 40//144
f 412//145 425//145 405//145
f 257//146 194//146 193//146
f 81//147 102//147 80//147
f 44//148 33//148 26//148
f 363//149 374//149 393//149
f 309//150 281//150 280//150
f 308//151 278//151 336//151
f 29//152 28//152 56//152
f 180//153 195//153 238//153
f 68//154 56//154 100//154
f 215//155 246//155 200//155
f 178//156 137//156 122//156
f 22//157 54//157 46//157
f 136//158 192//158 177//158
f 403//159 396//159 369//159
f 211//160 191//160 220//160
f 161//161 135//161 134//161
f 90//162 89//162 113//162
f 164//163 192//163 136//163
f 271//164 231//164 269//164
f 9//165 8//165 1//165
f 108//166 85//166 123//166
f 426//167 392//167 390//167
f 167//168 156//168 212//168
f 326//169 285//169 298//169
f 125//170 141//170 126//170
f 232//171 231//171 260//171
f 105//172 70//172 92//172
f 84//173 107//173 121//173
f 401//174 417//174 423//174
f 175//175 163//175 151//175
f 151//176 109//176 119//176
f 199//177 169//177 197//177
f 81//178 103//178 102//178
f 361//179 360//179 380//179
f 320//180 308//180 312//180
f 350//181 391//181 380//181
f 259//182 301//182 313//182
f 24//183 20//183 16//183
f 37//184 52//184 64//184
f 311//185 346//185 321//185
f 51//186 96//186 97//186
f 412//187 421//187 428//187
f 393//188 374//188 401//188
f 363//189 364//189 340//189
f 221//190 165//190 180//190
f 367//191 353//191 369//191
f 51//192 44//192 26//192
f 245//193 214//193 197//193
f 96//194 133//194 97//194
f 157//195 199//195 215//195
f 180//196 153//196 166//196
f 293//197 280//197 251//197
f 142//198 213//198 196//198
f 74//199 71//199 115//199
f 239//200 195//200 181//200
f 39//201 37//201 65//201
f 372//202 388//202 346//202
f 29//203 10//203 28//203
f 152//204 137//204 179//204
f 55//205 28//205 46//205
f 185//206 201//206 186//206
f 235//207 270//207 285//207
f 11//208 19//208 31//208
f 341//209 340//209 313//209
f 142//210 144//210 184//210
f 324//211 346//211 311//211
f 146//212 188//212 147//212
f 257//213 285//213 286//213
f 250//214 217//214 204//214
f 3//215 14//215 18//215
f 124//216 139//216 138//216
f 307//217 278//217 265//217
f 120//218 106//218 149//218
f 333//219 273//219 289//219
f 325//220 360//220 361//220
f 61//221 93//221 72//221
f 162//222 115//222 159//222
f 36//223 27//223 35//223
f 247//224 226//224 263//224
f 233//225 269//225 208//225
f 216//226 228//226 264//226
f 394//227 419//227 402//227
f 370//228 398//228 347//228
f 39//229 17//229 38//229
f 207//230 206//230 174//230
f 9//231 5//231 22//231
f 53//232 83//232 65//232
f 158//233 130//233 170//233
f 128//234 89//234 129//234
f 149//235 164//235 120//235
f 408//236 420//236 424//236
f 57//237 60//237 50//237
f 32//238 45//238 20//238
f 329//239 316//239 373//239
f 347//240 337//240 334//240
f 249//241 266//241 250//241
f 261//242 224//242 212//242
f 154//243 166//243 139//243
f 335//244 333//244 330//244
f 280//245 321//245 322//245
f 112//246 142//246 103//246
f 344//247 335//247 330//247
f 340//248 302//248 313//248
f 236//249 257//249 286//249
f 83//250 121//250 122//250
f 36//251 35//251 63//251
f 252//252 207//252 230//252
f 342//253 340//253 364//253
f 195//254 239//254 240//254
f 151//255 119//255 150//255
f 297//256 256//256 255//256
f 158//257 160//257 130//257
f 305//258 355//258 334//258
f 409//259 424//259 427//259
f 345//260 356//260 306//260
f 28//261 10//261 9//261
f 201//262 253//262 230//262
f 348//263 362//263 343//263
f 169//264 128//264 129//264
f 97//265 118//265 94//265
f 25//266 7//266 18//266
f 316//267 329//267 261//267
f 347//268 398//268 372//268
f 429//269 430//269 426//269
f 41//270 69//270 81//270
f 175//271 151//271 150//271
f 377//272 345//272 376//272
f 55//273 108//273 56//273
f 407//274 384//274 366//274
f 329//275 351//275 366//275
f 182//276 237//276 212//276
f 67//277 124//277 85//277
f 117//278 146//278 147//278
f 249//279 267//279 282//279
f 110//280 100//280 126//280
f 71//281 70//281 91//281
f 196//282 168//282 143//282
f 207//283 174//283 190//283
f 190//284 230//284 207//284
f 397//285 375//285 367//285
f 375//286 354//286 367//286
f 400//287 380//287 392//287
f 380//288 391//288 392//288
f 132//289 91//289 105//289
f 389//290 387//290 345//290
f 358//291 389//291 345//291
f 376//292 345//292 387//292
f 109//293 87//293 86//293
f 87//294 67//294 66//294
f 86//295 119//295 109//295
f 325//296 298//296 284//296
f 284//297 298//297 234//297
f 298//298 270//298 234//298
f 205//299 172//299 217//299
f 141//300 156//300 110//300
f 156//301 167//301 110//301
f 167//302 127//302 110//302
f 265//303 248//303 202//303
f 29//304 56//304 68//304
f 13//305 15//305 5//305
f 101//306 129//306 89//306
f 302//307 316//307 240//307
f 300//308 240//308 316//308
f 106//309 98//309 149//309
f 149//310 98//310 115//310
f 332//311 331//311 368//311
f 387//312 413//312 414//312
f 272//313 261//313 329//313
f 365//314 407//314 366//314
f 256//315 220//315 255//315
f 256//316 192//316 211//316
f 3//317 8//317 10//317
f 10//318 14//318 3//318
f 245//319 274//319 215//319
f 114//320 96//320 104//320
f 96//321 73//321 104//321
f 73//322 50//322 104//322
f 22//323 47//323 54//323
f 387//324 389//324 425//324
f 389//325 399//325 425//325
f 413//326 387//326 425//326
f 224//327 223//327 167//327
f 223//328 183//328 167//328
f 167//329 212//329 224//329
f 231//330 163//330 209//330
f 269//331 231//331 209//331
f 209//332 208//332 269//332
f 378//333 406//333 379//333
f 379//334 359//334 378//334
f 312//335 284//335 297//335
f 20//336 35//336 27//336
f 122//337 121//337 178//337
f 242//338 289//338 262//338
f 205//339 229//339 188//339
f 130//340 160//340 131//340
f 160//341 134//341 131//341
f 208//342 175//342 176//342
f 147//343 188//343 173//343
f 192//344 164//344 211//344
f 97//345 134//345 135//345
f 148//346 189//346 171//346
f 331//347 290//347 352//347
f 2//348 1//348 7//348
f 1//349 3//349 7//349
f 334//350 355//350 370//350
f 33//351 44//351 61//351
f 43//352 19//352 33//352
f 219//353 233//353 208//353
f 194//354 257//354 236//354
f 333//355 335//355 318//355
f 357//356 378//356 349//356
f 258//357 283//357 236//357
f 283//358 233//358 219//358
f 405//359 398//359 411//359
f 328//360 286//360 299//360
f 328//361 348//361 315//361
f 156//362 141//362 212//362
f 141//363 182//363 212//363
f 203//364 159//364 132//364
f 132//365 187//365 203//365
f 152//366 179//366 176//366
f 349//367 350//367 312//367
f 204//368 145//368 118//368
f 135//369 206//369 204//369
f 78//370 88//370 103//370
f 200//371 226//371 227//371
f 48//372 58//372 92//372
f 251//373 217//373 250//373
f 250//374 279//374 251//374
f 178//375 177//375 235//375
f 34//376 50//376 73//376
f 420//377 384//377 407//377
f 400//378 382//378 380//378
f 380//379 382//379 381//379
f 381//380 361//380 380//380
f 278//381 308//381 248//381
f 338//382 327//382 381//382
f 381//383 382//383 338//383
f 393//384 401//384 394//384
f 401//385 423//385 418//385
f 419//386 401//386 418//386
f 57//387 101//387 89//387
f 25//388 18//388 30//388
f 213//389 242//389 262//389
f 356//390 307//390 276//390
f 296//391 269//391 233//391
f 270//392 235//392 234//392
f 173//393 189//393 148//393
f 147//394 173//394 148//394
f 193//395 194//395 137//395
f 171//396 216//396 187//396
f 216//397 202//397 187//397
f 382//398 400//398 417//398
f 391//399 390//399 392//399
f 187//400 202//400 203//400
f 155//401 140//401 151//401
f 330//402 333//402 289//402
f 305//403 335//403 355//403
f 344//404 354//404 355//404
f 397//405 404//405 375//405
f 397//406 410//406 404//406
f 273//407 333//407 304//407
f 333//408 318//408 304//408
f 274//409 245//409 304//409
f 245//410 273//410 304//410
f 308//411 320//411 255//411
f 320//412 297//412 255//412
f 355//413 354//413 411//413
f 375//414 411//414 354//414
f 386//415 406//415 377//415
f 288//416 259//416 260//416
f 222//417 181//417 210//417
f 79//418 101//418 57//418
f 322//419 321//419 346//419
f 346//420 371//420 322//420
f 371//421 323//421 322//421
f 296//422 283//422 328//422
f 283//423 258//423 328//423
f 258//424 286//424 328//424
f 229//425 309//425 292//425
f 59//426 58//426 31//426
f 243//427 291//427 244//427
f 429//428 432//428 423//428
f 326//429 361//429 327//429
f 327//430 285//430 326//430
f 406//431 386//431 414//431
f 386//432 376//432 414//432
f 207//433 254//433 206//433
f 76//434 100//434 110//434
f 88//435 76//435 110//435
f 77//436 76//436 88//436
f 139//437 140//437 155//437
f 374//438 383//438 401//438
f 383//439 382//439 417//439
f 145//440 204//440 172//440
f 398//441 405//441 388//441
f 405//442 399//442 388//442
f 388//443 372//443 398//443
f 396//444 397//444 369//444
f 397//445 367//445 369//445
f 290//446 331//446 291//446
f 331//447 332//447 291//447
f 325//448 312//448 350//448
f 49//449 58//449 48//449
f 238//450 240//450 287//450
f 221//451 238//451 287//451
f 300//452 237//452 287//452
f 423//453 417//453 430//453
f 63//454 75//454 98//454
f 98//455 106//455 63//455
f 32//456 31//456 58//456
f 77//457 78//457 40//457
f 40//458 68//458 77//458
f 244//459 184//459 198//459
f 355//460 411//460 370//460
f 41//461 23//461 40//461
f 57//462 90//462 60//462
f 90//463 104//463 60//463
f 288//464 315//464 348//464
f 343//465 314//465 288//465
f 74//466 45//466 62//466
f 62//467 49//467 48//467
f 48//468 71//468 62//468
f 264//469 228//469 218//469
f 289//470 242//470 303//470
f 242//471 244//471 303//471
f 52//472 37//472 38//472
f 38//473 17//473 36//473
f 17//474 13//474 21//474
f 21//475 27//475 36//475
f 17//476 21//476 36//476
f 36//477 52//477 38//477
f 285//478 327//478 299//478
f 324//479 372//479 346//479
f 328//480 299//480 348//480
f 115//481 71//481 91//481
f 131//482 114//482 104//482
f 431//483 432//483 415//483
f 342//484 316//484 302//484
f 130//485 113//485 128//485
f 1//486 2//486 5//486
f 2//487 4//487 5//487
f 315//488 271//488 269//488
f 296//489 315//489 269//489
f 317//490 303//490 353//490
f 399//491 405//491 425//491
f 247//492 253//492 201//492
f 385//493 384//493 420//493
f 420//494 403//494 385//494
f 12//495 11//495 7//495
f 11//496 6//496 2//496
f 7//497 11//497 2//497
f 94//498 145//498 116//498
f 157//499 215//499 200//499
f 105//500 92//500 148//500
f 67//501 54//501 47//501
f 231//502 232//502 163//502
f 210//503 155//503 163//503
f 189//504 228//504 216//504
f 319//505 263//505 275//505
f 263//506 246//506 275//506
f 421//507 410//507 427//507
f 421//508 412//508 404//508
f 404//509 410//509 421//509
f 90//510 113//510 131//510
f 113//511 130//511 131//511
f 54//512 85//512 55//512
f 310//513 282//513 268//513
f 268//514 294//514 319//514
f 39//515 86//515 66//515
f 365//516 364//516 395//516
f 395//517 402//517 365//517
f 402//518 407//518 365//518
f 57//519 42//519 79//519
f 42//520 30//520 41//520
f 30//521 23//521 41//521
f 195//522 180//522 166//522
f 166//523 154//523 195//523
f 95//524 117//524 147//524
f 199//525 157//525 128//525
f 396//526 409//526 397//526
f 155//527 210//527 181//527
f 181//528 154//528 155//528
f 140//529 139//529 87//529
f 368//530 331//530 384//530
f 331//531 352//531 384//531
f 229//532 205//532 281//532
f 205//533 217//533 251//533
f 219//534 176//534 179//534
f 194//535 219//535 179//535
f 246//536 215//536 274//536
f 4//537 16//537 13//537
f 16//538 27//538 13//538
f 27//539 21//539 13//539
f 318//540 305//540 275//540
f 275//541 246//541 274//541
f 40//542 78//542 69//542
f 272//543 225//543 223//543
f 223//544 224//544 272//544
f 261//545 272//545 224//545
f 190//546 186//546 201//546
f 240//547 239//547 259//547
f 79//548 80//548 102//548
f 102//549 111//549 79//549
f 111//550 129//550 101//550
f 101//551 79//551 111//551
f 103//552 88//552 112//552
f 88//553 127//553 112//553
f 127//554 144//554 112//554
f 429//555 422//555 416//555
f 62//556 45//556 32//556
f 49//557 62//557 32//557
f 86//558 65//558 119//558
f 294//559 252//559 253//559
f 341//560 362//560 374//560
f 362//561 339//561 374//561
f 339//562 383//562 374//562
f 185//563 170//563 200//563
f 392//564 426//564 400//564
f 426//565 430//565 400//565
f 228//566 189//566 173//566
f 109//567 151//567 140//567
f 146//568 116//568 172//568
f 116//569 145//569 172//569
f 186//570 158//570 185//570
f 158//571 170//571 185//571
f 369//572 353//572 332//572
f 332//573 368//573 385//573
f 385//574 369//574 332//574
f 359//575 390//575 349//575
f 390//576 391//576 349//576
f 114//577 131//577 133//577
f 40//578 23//578 14//578
f 428//579 425//579 412//579
f 193//580 235//580 257//580
f 394//581 363//581 393//581
f 377//582 378//582 356//582
f 378//583 357//583 356//583
f 356//584 345//584 377//584
f 424//585 432//585 427//585
f 56//586 108//586 100//586
f 100//587 76//587 68//587
f 7//588 25//588 12//588
f 25//589 34//589 12//589
f 303//590 332//590 353//590
f 253//591 263//591 294//591
f 241//592 300//592 316//592
f 316//593 261//593 241//593
f 262//594 273//594 196//594
f 273//595 245//595 196//595
f 187//596 132//596 171//596
f 83//597 53//597 121//597
f 121//598 53//598 84//598
f 246//599 226//599 200//599
f 345//600 306//600 358//600
f 306//601 277//601 292//601
f 306//602 292//602 323//602
f 323//603 358//603 306//603
f 323//604 371//604 358//604
f 212//605 237//605 241//605
f 237//606 300//606 241//606
f 152//607 150//607 122//607
f 122//608 137//608 152//608
f 240//609 300//609 287//609
f 431//610 414//610 413//610
f 415//611 414//611 431//611
f 161//612 174//612 135//612
f 408//613 396//613 403//613
f 324//614 310//614 347//614
f 425//615 428//615 413//615
f 144//616 198//616 184//616
f 107//617 120//617 136//617
f 120//618 164//618 136//618
f 183//619 223//619 225//619
f 225//620 198//620 183//620
f 3//621 1//621 8//621
f 1//622 5//622 9//622
f 390//623 416//623 422//623
f 426//624 390//624 422//624
f 131//625 134//625 133//625
f 311//626 321//626 293//626
f 321//627 280//627 293//627
f 182//628 165//628 221//628
f 272//629 329//629 352//629
f 329//630 366//630 352//630
f 249//631 254//631 267//631
f 260//632 222//632 232//632
f 231//633 271//633 260//633
f 84//634 99//634 107//634
f 163//635 155//635 151//635
f 399//636 389//636 388//636
f 389//637 371//637 388//637
f 58//638 59//638 95//638
f 95//639 92//639 58//639
f 197//640 214//640 199//640
f 255//641 220//641 203//641
f 203//642 248//642 255//642
f 31//643 32//643 24//643
f 81//644 69//644 103//644
f 336//645 312//645 308//645
f 312//646 297//646 320//646
f 350//647 380//647 360//647
f 301//648 314//648 313//648
f 313//649 302//649 259//649
f 16//650 6//650 24//650
f 375//651 404//651 411//651
f 64//652 53//652 37//652
f 53//653 65//653 37//653
f 182//654 141//654 125//654
f 26//655 12//655 34//655
f 45//656 74//656 35//656
f 74//657 75//657 35//657
f 75//658 63//658 35//658
f 55//659 85//659 108//659
f 395//660 364//660 363//660
f 180//661 238//661 221//661
f 161//662 160//662 186//662
f 186//663 190//663 161//663
f 167//664 183//664 127//664
f 183//665 144//665 127//665
f 168//666 169//666 129//666
f 143//667 168//667 129//667
f 26//668 34//668 51//668
f 34//669 73//669 51//669
f 73//670 96//670 51//670
f 197//671 168//671 196//671
f 196//672 245//672 197//672
f 83//673 119//673 65//673
f 263//674 226//674 246//674
f 133//675 134//675 97//675
f 147//676 148//676 95//676
f 148//677 92//677 95//677
f 281//678 251//678 280//678
f 251//679 279//679 293//679
f 196//680 143//680 142//680
f 115//681 98//681 75//681
f 75//682 74//682 115//682
f 181//683 222//683 239//683
f 222//684 260//684 239//684
f 319//685 294//685 263//685
f 39//686 38//686 37//686
f 254//687 207//687 252//687
f 252//688 267//688 254//688
f 371//689 346//689 388//689
f 243//690 225//690 290//690
f 225//691 272//691 290//691
f 158//692 186//692 160//692
f 55//693 56//693 28//693
f 419//694 418//694 420//694
f 418//695 424//695 420//695
f 420//696 402//696 419//696
f 334//697 275//697 305//697
f 168//698 197//698 169//698
f 285//699 257//699 235//699
f 298//700 285//700 270//700
f 31//701 24//701 11//701
f 24//702 6//702 11//702
f 313//703 314//703 341//703
f 314//704 343//704 341//704
f 341//705 363//705 340//705
f 12//706 26//706 33//706
f 33//707 19//707 12//707
f 19//708 11//708 12//708
f 213//709 142//709 184//709
f 136//710 177//710 178//710
f 295//711 324//711 311//711
f 146//712 205//712 188//712
f 137//713 178//713 193//713
f 166//714 153//714 138//714
f 166//715 138//715 139//715
f 265//716 276//716 307//716
f 120//717 99//717 106//717
f 298//718 325//718 326//718
f 361//719 326//719 325//719
f 356//720 357//720 307//720
f 61//721 72//721 43//721
f 162//722 149//722 115//722
f 351//723 373//723 365//723
f 373//724 364//724 365//724
f 253//725 247//725 263//725
f 29//726 14//726 10//726
f 125//727 126//727 108//727
f 126//728 100//728 108//728
f 277//729 276//729 264//729
f 276//730 216//730 264//730
f 14//731 23//731 18//731
f 23//732 30//732 18//732
f 402//733 395//733 394//733
f 347//734 334//734 370//734
f 51//735 94//735 61//735
f 415//736 406//736 414//736
f 252//737 294//737 268//737
f 234//738 177//738 256//738
f 177//739 192//739 256//739
f 15//740 22//740 5//740
f 225//741 243//741 198//741
f 130//742 157//742 170//742
f 165//743 182//743 123//743
f 182//744 125//744 123//744
f 115//745 91//745 159//745
f 128//746 113//746 89//746
f 191//747 164//747 149//747
f 384//748 385//748 368//748
f 424//749 409//749 408//749
f 409//750 396//750 408//750
f 239//751 260//751 259//751
f 111//752 102//752 142//752
f 102//753 103//753 142//753
f 50//754 25//754 42//754
f 25//755 30//755 42//755
f 42//756 57//756 50//756
f 213//757 184//757 244//757
f 244//758 242//758 213//758
f 180//759 165//759 153//759
f 165//760 123//760 138//760
f 153//761 165//761 138//761
f 123//762 124//762 138//762
f 35//763 20//763 45//763
f 20//764 24//764 32//764
f 22//765 46//765 28//765
f 28//766 9//766 22//766
f 229//767 218//767 173//767
f 173//768 188//768 229//768
f 303//769 244//769 291//769
f 310//770 337//770 347//770
f 431//771 413//771 428//771
f 279//772 266//772 295//772
f 295//773 311//773 279//773
f 311//774 293//774 279//774
f 16//775 4//775 6//775
f 395//776 363//776 394//776
f 241//777 261//777 212//777
f 403//778 369//778 385//778
f 350//779 360//779 325//779
f 236//780 219//780 194//780
f 322//781 323//781 309//781
f 280//782 322//782 309//782
f 112//783 144//783 142//783
f 13//784 17//784 15//784
f 17//785 39//785 15//785
f 367//786 344//786 330//786
f 348//787 339//787 362//787
f 340//788 342//788 302//788
f 258//789 236//789 286//789
f 162//790 159//790 220//790
f 159//791 203//791 220//791
f 162//792 220//792 191//792
f 122//793 150//793 83//793
f 64//794 52//794 82//794
f 52//795 36//795 63//795
f 82//796 52//796 63//796
f 406//797 390//797 379//797
f 359//798 379//798 390//798
f 415//799 416//799 406//799
f 416//800 390//800 406//800
f 117//801 95//801 72//801
f 95//802 59//802 72//802
f 72//803 93//803 117//803
f 238//804 195//804 240//804
f 347//805 372//805 324//805
f 119//806 83//806 150//806
f 208//807 209//807 175//807
f 209//808 163//808 175//808
f 427//809 410//809 409//809
f 216//810 265//810 202//810
f 307//811 357//811 336//811
f 431//812 428//812 427//812
f 428//813 421//813 427//813
f 8//814 9//814 10//814
f 319//815 275//815 334//815
f 129//816 111//816 143//816
f 362//817 341//817 343//817
f 319//818 337//818 310//818
f 338//819 299//819 327//819
f 3//820 18//820 7//820
f 84//821 53//821 82//821
f 53//822 64//822 82//822
f 70//823 71//823 48//823
f 117//824 93//824 146//824
f 93//825 116//825 146//825
f 426//826 422//826 429//826
f 15//827 39//827 22//827
f 39//828 47//828 22//828
f 81//829 80//829 41//829
f 80//830 79//830 41//830
f 50//831 34//831 25//831
f 412//832 405//832 404//832
f 405//833 411//833 404//833
f 150//834 152//834 175//834
f 376//835 386//835 377//835
f 277//836 264//836 292//836
f 107//837 99//837 120//837
f 288//838 314//838 301//838
f 199//839 214//839 215//839
f 214//840 245//840 215//840
f 183//841 198//841 144//841
f 182//842 221//842 237//842
f 87//843 124//843 67//843
f 338//844 339//844 299//844
f 299//845 339//845 348//845
f 268//846 282//846 267//846
f 282//847 295//847 266//847
f 249//848 282//848 266//848
f 185//849 227//849 201//849
f 227//850 247//850 201//850
f 204//851 206//851 254//851
f 254//852 249//852 204//852
f 249//853 250//853 204//853
f 93//854 94//854 116//854
f 106//855 99//855 82//855
f 82//856 99//856 84//856
f 77//857 68//857 76//857
f 70//858 105//858 91//858
f 282//859 310//859 295//859
f 310//860 324//860 295//860
f 4//861 15//861 5//861
f 13//862 15//862 4//862
f 58//863 49//863 31//863
f 49//864 32//864 31//864
f 21//865 38//865 17//865
f 38//866 65//866 39//866
f 86//867 47//867 39//867
f 86//868 66//868 47//868
f 100//869 76//869 56//869
f 76//870 68//870 56//870
f 41//871 42//871 23//871
f 42//872 30//872 23//872
f 73//873 26//873 34//873
f 73//874 51//874 26//874
f 44//875 43//875 33//875
f 44//876 61//876 43//876
f 48//877 71//877 49//877
f 71//878 62//878 49//878
f 72//879 117//879 59//879
f 117//880 95//880 59//880
f 36//881 37//881 21//881
f 37//882 38//882 21//882
f 37//883 65//883 38//883
f 67//884 66//884 86//884
f 87//885 67//885 86//885
f 88//886 69//886 78//886
f 103//887 102//887 69//887
f 102//888 81//888 69//888
f 88//889 103//889 69//889
f 52//890 37//890 36//890
f 84//891 83//891 53//891
f 84//892 121//892 83//892
f 139//893 166//893 124//893
f 166//894 153//894 124//894
f 153//895 138//895 124//895
f 165//896 125//896 123//896
f 138//897 153//897 123//897
f 153//898 165//898 123//898
f 165//899 182//899 125//899
f 141//900 127//900 110//900
f 142//901 111//901 103//901
f 111//902 102//902 103//902
f 113//903 130//903 90//903
f 130//904 131//904 90//904
f 130//905 134//905 131//905
f 98//906 82//906 63//906
f 82//907 64//907 63//907
f 64//908 52//908 63//908
f 98//909 106//909 82//909
f 106//910 84//910 82//910
f 106//911 99//911 84//911
f 121//912 136//912 122//912
f 136//913 178//913 122//913
f 212//914 156//914 182//914
f 156//915 141//915 182//915
f 156//916 127//916 141//916
f 156//917 167//917 127//917
f 213//918 143//918 142//918
f 213//919 196//919 143//919
f 160//920 134//920 130//920
f 220//921 191//921 159//921
f 191//922 162//922 159//922
f 231//923 210//923 163//923
f 238//924 237//924 221//924
f 238//925 300//925 237//925
f 214//926 199//926 169//926
f 197//927 214//927 169//927
f 249//928 204//928 206//928
f 254//929 249//929 206//929
f 218//930 292//930 228//930
f 292//931 264//931 228//931
f 211//932 192//932 191//932
f 192//933 164//933 191//933
f 279//934 280//934 251//934
f 219//935 233//935 176//935
f 233//936 208//936 176//936
f 260//937 222//937 231//937
f 222//938 232//938 231//938
f 232//939 210//939 231//939
f 287//940 300//940 238//940
f 316//941 261//941 300//941
f 261//942 241//942 300//942
f 272//943 243//943 225//943
f 226//944 247//944 200//944
f 247//945 227//945 200//945
f 267//946 266//946 249//946
f 306//947 307//947 276//947
f 307//948 278//948 276//948
f 278//949 265//949 276//949
f 279//950 293//950 280//950
f 266//951 311//951 279//951
f 290//952 243//952 272//952
f 317//953 333//953 289//953
f 317//954 330//954 333//954
f 319//955 263//955 246//955
f 275//956 319//956 246//956
f 267//957 282//957 266//957
f 295//958 311//958 266//958
f 356//959 307//959 306//959
f 321//960 371//960 322//960
f 346//961 371//961 321//961
f 328//962 283//962 286//962
f 283//963 258//963 286//963
f 366//964 331//964 352//964
f 365//965 407//965 351//965
f 407//966 366//966 351//966
f 384//967 331//967 366//967
f 310//968 324//968 282//968
f 324//969 295//969 282//969
f 389//970 376//970 345//970
f 403//971 408//971 369//971
f 408//972 396//972 369//972
f 397//973 354//973 367//973
f 372//974 405//974 388//974
f 425//975 413//975 389//975
f 413//976 387//976 389//976
f 387//977 376//977 389//977
f 386//978 378//978 377//978
f 386//979 406//979 378//979
f 398//980 405//980 372//980
f 401//981 393//981 383//981
f 393//982 374//982 383//982
f 401//983 418//983 393//983
f 418//984 394//984 393//984
f 418//985 419//985 394//985
f 375//986 354//986 397//986
f 426//987 417//987 400//987
f 426//988 430//988 417//988
f 432//989 429//989 431//989
f 429//990 415//990 431//990
f 429//991 422//991 415//991
f 422//992 416//992 415//992
