# Blender 4.0.0
# www.blender.org
o decimated_mesh
v 0.263598 0.001426 -0.002794
v 0.263598 -0.002404 -0.002794
v 0.252321 0.028948 -0.002837
v 0.252773 0.026507 0.008605
v 0.253530 -0.028420 -0.003667
v 0.252727 -0.027913 0.009930
v 0.257329 -0.000820 -0.058048
v 0.245865 0.026313 0.062752
v 0.257317 -0.000828 0.057653
v 0.245896 -0.027552 0.063758
v 0.252156 -0.000822 -0.078821
v 0.254549 0.002455 -0.068249
v 0.241975 0.031043 0.063967
v 0.255031 0.001779 0.065467
v 0.231138 -0.048160 -0.001553
v 0.241562 -0.032338 -0.063194
v 0.246410 -0.026521 -0.064884
v 0.252452 -0.000650 0.075177
v 0.246413 0.024294 -0.065780
v 0.243009 0.026749 -0.072661
v 0.241665 0.030764 -0.068676
v 0.220559 0.051681 -0.057971
v 0.242954 -0.027970 -0.073245
v 0.220009 -0.028039 -0.128250
v 0.222290 -0.049291 0.057636
v 0.231499 0.000273 -0.127318
v 0.218329 0.030474 0.123363
v 0.220404 0.051588 0.056934
v 0.220662 0.025670 0.126074
v 0.231551 -0.000589 0.126737
v 0.224636 -0.052789 -0.002794
v 0.222004 -0.049313 -0.060557
v 0.216636 -0.053050 0.056461
v 0.220446 0.025439 -0.128314
v 0.226458 -0.000759 -0.137375
v 0.217031 0.030319 -0.128044
v 0.179109 0.070587 -0.049406
v 0.227312 0.051849 -0.001307
v 0.225814 -0.000797 0.136415
v 0.216022 -0.053004 -0.061913
v 0.220714 -0.027318 0.126074
v 0.191729 -0.000571 -0.182575
v 0.197306 0.051696 -0.115229
v 0.199246 0.051513 0.109474
v 0.187578 -0.000795 0.186225
v 0.210238 -0.027337 -0.142211
v 0.199600 -0.048911 0.114078
v 0.179391 0.026297 0.179298
v 0.179945 -0.069690 0.044420
v 0.193672 -0.053124 -0.114596
v 0.199299 -0.048980 -0.117000
v 0.194193 -0.053116 0.111124
v 0.178236 0.025756 -0.182914
v 0.184448 -0.000610 -0.190532
v 0.177111 0.030435 -0.179649
v 0.160245 0.070434 -0.095682
v 0.186396 0.070087 -0.002794
v 0.178272 0.070847 0.046954
v 0.178081 0.030281 0.176661
v 0.179217 -0.027797 0.179721
v 0.185467 -0.069783 -0.002794
v 0.177797 -0.070427 -0.049047
v 0.162812 -0.069114 -0.094739
v 0.177623 -0.031799 -0.177686
v 0.178182 -0.027736 -0.182521
v 0.163028 -0.069174 0.090776
v 0.160129 0.070682 0.091685
v 0.161807 0.051761 0.159351
v 0.128439 0.026154 0.219189
v 0.137096 -0.000708 0.225854
v 0.136848 -0.084095 0.035025
v 0.126688 0.083380 -0.074829
v 0.133575 0.085199 -0.035191
v 0.127344 0.030283 0.216540
v 0.127338 -0.000876 0.231137
v 0.159417 -0.052069 -0.162328
v 0.140376 -0.027462 -0.211910
v 0.163225 -0.048383 0.162996
v 0.157806 -0.053440 0.157618
v 0.139693 -0.084508 -0.002794
v 0.126998 0.026451 -0.221383
v 0.131446 -0.000818 -0.231207
v 0.160591 0.051732 -0.163130
v 0.130627 0.070577 -0.133557
v 0.141001 0.084631 -0.003382
v 0.133861 0.070291 0.128452
v 0.115524 0.051714 0.196045
v 0.127794 -0.027963 0.219416
v 0.135268 -0.084648 -0.037089
v 0.126246 -0.028204 -0.221900
v 0.131952 -0.069337 0.131762
v 0.124322 0.030062 -0.220030
v 0.113046 0.051719 -0.199301
v 0.107646 0.084849 -0.092050
v 0.126843 0.083418 0.069707
v 0.073483 -0.027811 0.242809
v 0.071104 0.026002 0.243712
v 0.078508 -0.000815 0.251985
v 0.132571 -0.069541 -0.132851
v 0.112315 -0.052959 0.194144
v 0.079315 -0.000266 -0.252462
v 0.116006 -0.048346 0.199712
v 0.064096 0.024768 0.246424
v 0.065639 0.001779 0.255096
v 0.057915 -0.000840 0.257298
v 0.120444 -0.084805 -0.073071
v 0.111751 -0.052952 -0.196801
v 0.115273 -0.049126 -0.201064
v 0.064206 -0.027737 -0.247564
v 0.099371 -0.084362 0.099029
v 0.063768 0.030367 -0.244483
v 0.064612 0.025716 -0.247488
v 0.064307 -0.000799 -0.257809
v 0.068323 0.030690 0.241444
v 0.062314 -0.027264 0.246676
v 0.065433 -0.032898 0.240578
v 0.020948 -0.000768 0.262414
v 0.095054 -0.069244 -0.163361
v 0.094022 -0.069021 0.162376
v 0.057186 0.051534 -0.222536
v 0.069356 0.084863 -0.126283
v 0.094089 0.070652 0.159531
v 0.019764 0.025985 0.252131
v 0.097853 -0.084797 -0.103334
v 0.064555 -0.032859 -0.242326
v 0.022032 -0.001047 -0.262856
v 0.000334 0.001877 -0.264717
v 0.090730 0.072070 -0.159226
v 0.057692 0.051662 0.220346
v 0.005429 -0.028424 0.253590
v 0.058864 -0.051737 0.219136
v 0.000023 0.002548 0.263596
v 0.000002 0.029612 0.252423
v -0.000180 -0.024140 0.255825
v 0.060375 -0.052473 -0.219004
v 0.057166 -0.049337 -0.224551
v 0.027399 -0.027281 -0.252358
v 0.000062 -0.024289 -0.256131
v 0.049848 -0.094845 0.012927
v -0.000018 0.030087 -0.253514
v 0.000373 -0.002370 -0.264057
v 0.072015 0.084262 0.123663
v 0.048736 0.070795 0.178813
v 0.020845 0.051662 0.225620
v -0.018813 0.026077 0.252206
v 0.001182 -0.002745 0.263734
v 0.048591 -0.094908 -0.030113
v 0.002577 -0.028657 -0.253651
v 0.048698 -0.070478 0.177727
v -0.022090 -0.001047 -0.262856
v 0.000142 0.051861 -0.229534
v 0.049848 0.070310 -0.181305
v 0.023581 0.090817 -0.102547
v 0.038594 0.084797 -0.139741
v -0.001993 0.051448 0.228355
v -0.018773 -0.000657 0.262663
v -0.064104 0.024764 0.246426
v -0.022142 -0.027318 0.252045
v -0.001698 -0.029409 0.253010
v 0.068271 -0.084861 -0.126180
v 0.002577 -0.048681 -0.231880
v -0.027406 -0.027281 -0.252358
v 0.036484 -0.084368 0.136905
v -0.064469 -0.000785 -0.257808
v -0.000025 0.070366 0.186826
v 0.000115 -0.048476 0.231520
v -0.057619 -0.000856 0.257381
v -0.065645 0.001779 0.255096
v -0.064809 -0.026877 0.246317
v -0.064252 -0.027742 -0.247551
v -0.000920 -0.084770 0.141070
v 0.002577 -0.052975 0.224793
v -0.079321 -0.000266 -0.252462
v -0.064560 0.025885 -0.247408
v -0.063678 0.030412 -0.244448
v -0.057278 0.051591 -0.222454
v 0.000916 0.093745 0.057333
v -0.078607 -0.000824 0.251955
v -0.068329 0.030690 0.241393
v -0.071124 0.026076 0.243648
v -0.074116 -0.028260 0.242290
v -0.063271 -0.032394 0.241444
v 0.002577 -0.053050 -0.225313
v 0.000388 -0.091167 0.096745
v 0.000660 -0.069976 0.186048
v -0.064562 -0.032859 -0.242326
v -0.002583 0.083696 -0.148727
v -0.020397 0.094074 -0.055573
v 0.016717 0.093718 0.052900
v 0.013105 0.085128 0.138950
v -0.057698 0.051662 0.220346
v 0.002577 -0.095440 -0.058850
v 0.033171 -0.084646 -0.140912
v -0.056782 -0.049127 -0.224928
v -0.055118 -0.052901 -0.219728
v 0.032458 -0.094835 0.040856
v -0.131474 -0.000730 -0.231188
v -0.005781 0.085421 0.139092
v -0.128277 0.026250 0.219255
v -0.127007 0.030676 0.216330
v -0.127125 -0.027990 -0.221632
v -0.127004 0.026432 -0.221383
v -0.000033 0.071415 -0.186059
v -0.025819 0.091244 -0.098920
v -0.000174 0.091069 0.096650
v -0.059127 -0.051828 0.218897
v -0.126490 -0.000672 0.231526
v -0.136361 -0.000683 0.226395
v -0.126385 -0.027355 0.220552
v -0.049854 -0.094938 -0.018514
v 0.001549 -0.084808 -0.144518
v -0.049854 -0.069615 0.179596
v -0.123926 0.030276 -0.220054
v -0.050441 0.069943 -0.182063
v -0.037346 0.085096 -0.139227
v -0.050769 0.069482 0.181481
v -0.115366 0.051577 0.196348
v -0.187687 -0.000785 0.186177
v -0.179271 0.026202 0.179484
v -0.134879 -0.027840 0.214359
v -0.126179 -0.032431 0.215226
v -0.116012 -0.048346 0.199712
v -0.007869 -0.094762 0.056329
v -0.034114 -0.094845 0.039197
v 0.000076 -0.092021 -0.101933
v -0.032913 -0.084759 -0.140763
v -0.070823 -0.084209 0.122444
v -0.178035 -0.027691 -0.182683
v -0.184415 -0.000604 -0.190560
v -0.178433 0.025933 -0.182421
v -0.112383 0.051667 -0.199690
v -0.052847 0.093718 -0.017377
v -0.180472 -0.027864 0.178470
v -0.112852 -0.052036 -0.198133
v -0.191793 -0.000703 -0.182551
v -0.177168 0.030482 -0.179548
v -0.071014 0.084047 -0.128666
v -0.112157 -0.052928 0.194265
v -0.178018 0.030256 0.176745
v -0.225824 -0.000749 0.136403
v -0.085043 -0.091164 -0.048457
v -0.177629 -0.031799 -0.177686
v -0.203407 -0.027289 -0.151429
v -0.160619 0.051695 -0.163199
v -0.091603 0.070503 -0.163533
v -0.092946 0.070418 0.160995
v -0.161994 0.051809 0.159086
v -0.094028 -0.069021 0.162376
v -0.231306 -0.000628 0.127167
v -0.068277 -0.084861 -0.126180
v -0.100488 -0.084302 0.098037
v -0.226466 -0.000761 -0.137371
v -0.071328 0.084218 0.124336
v -0.220720 -0.027318 0.126074
v -0.220668 0.025670 0.126074
v -0.163231 -0.048383 0.162996
v -0.159064 -0.052881 0.158118
v -0.095060 -0.069244 -0.163361
v -0.131958 -0.069337 0.131762
v -0.163747 -0.048755 -0.163982
v -0.220130 -0.028127 -0.127980
v -0.231505 0.000273 -0.127318
v -0.220454 0.025471 -0.128276
v -0.217017 0.030312 -0.128066
v -0.218573 0.030331 0.123213
v -0.252335 -0.000672 0.075454
v -0.158298 -0.052874 -0.161363
v -0.107652 0.084849 -0.092050
v -0.130907 0.070479 -0.133595
v -0.133364 0.085256 -0.035001
v -0.139592 0.084850 -0.000023
v -0.124767 0.083865 0.070380
v -0.130685 0.070881 0.129908
v -0.254986 0.001779 0.065467
v -0.257321 -0.000861 0.057617
v -0.134848 -0.084564 -0.039510
v -0.136125 -0.084282 0.035217
v -0.120450 -0.084805 -0.073071
v -0.100013 -0.084795 -0.101165
v -0.199420 -0.048909 -0.116941
v -0.242816 -0.027956 -0.073568
v -0.252205 -0.000684 -0.078659
v -0.200021 -0.048738 0.113828
v -0.246408 0.025556 0.061816
v -0.245934 -0.027707 0.063073
v -0.131278 -0.069765 -0.133518
v -0.162993 -0.069043 0.091667
v -0.246418 -0.026524 -0.064942
v -0.257336 -0.000822 -0.057982
v -0.254819 0.002171 -0.067550
v -0.246519 0.023791 -0.066464
v -0.242188 0.026451 -0.075191
v -0.241672 0.030764 -0.068676
v -0.197115 0.051780 -0.115234
v -0.126695 0.083380 -0.074829
v -0.199252 0.051513 0.109474
v -0.243034 0.030442 0.062645
v -0.252692 -0.027926 0.010194
v -0.194242 -0.053106 0.111037
v -0.193679 -0.053124 -0.114596
v -0.241568 -0.032338 -0.063194
v -0.220623 0.051367 -0.060009
v -0.160219 0.070419 -0.095789
v -0.160135 0.070663 0.091685
v -0.178395 0.070832 0.046867
v -0.222165 -0.049499 0.056968
v -0.185422 -0.069783 -0.002794
v -0.179642 -0.069578 -0.050007
v -0.179907 -0.069608 0.046230
v -0.162818 -0.069114 -0.094739
v -0.218776 -0.051932 -0.059813
v -0.179487 0.070464 -0.049143
v -0.216605 -0.053038 0.056598
v -0.220410 0.051588 0.056934
v -0.253450 -0.028477 -0.004009
v -0.263604 0.001426 -0.002794
v -0.263604 -0.002404 -0.002794
v -0.186402 0.070087 -0.002794
v -0.231144 -0.048160 -0.001501
v -0.252363 0.028911 -0.002734
v -0.224642 -0.052789 -0.002794
v -0.227285 0.051855 -0.001350
vn -0.7564 0.5714 -0.3184
vn 0.8646 -0.3597 0.3509
vn 0.7384 -0.3635 0.5680
vn 0.2170 -0.6592 0.7200
vn 0.2237 0.5288 0.8188
vn -0.9326 -0.3449 0.1058
vn -0.5334 -0.7447 -0.4011
vn 0.2422 -0.7635 -0.5987
vn -0.3264 0.9126 0.2463
vn 0.0972 0.7302 0.6763
vn 0.4049 0.9129 0.0521
vn 0.2490 -0.9138 -0.3209
vn 0.9277 -0.3551 -0.1154
vn 0.3783 0.9122 -0.1572
vn -0.3089 -0.9503 0.0381
vn -0.6771 0.5182 -0.5224
vn 0.9936 -0.0000 -0.1127
vn -0.2785 0.9561 -0.0917
vn -0.2641 0.9620 0.0691
vn 0.1195 0.5866 0.8010
vn 0.8039 0.3456 0.4840
vn -0.2595 -0.9470 -0.1892
vn 0.1006 -0.9929 0.0630
vn -0.0892 -0.3544 -0.9308
vn 0.8595 -0.3649 -0.3581
vn -0.4007 -0.7509 -0.5250
vn -0.0587 0.9126 -0.4047
vn 0.8119 -0.3409 0.4739
vn 0.3989 -0.9156 0.0498
vn 0.5648 -0.7039 -0.4307
vn -0.0871 -0.7488 0.6570
vn 0.5742 0.3614 0.7347
vn -0.3209 -0.9157 0.2417
vn -0.2885 -0.9500 0.1192
vn 0.0622 0.9945 0.0842
vn 0.3489 -0.3602 -0.8651
vn 0.5767 -0.3557 0.7354
vn 0.3061 -0.9514 0.0334
vn 0.0640 -0.1525 -0.9862
vn 0.1241 0.9495 -0.2882
vn -0.6703 0.7375 -0.0823
vn -0.6633 0.5488 0.5087
vn -0.8613 0.3737 0.3443
vn -0.8650 -0.3575 0.3521
vn 0.2780 0.9561 -0.0922
vn 0.8309 0.5066 -0.2304
vn 0.2865 0.3538 0.8903
vn 0.9087 -0.3300 0.2556
vn 0.6547 -0.7514 -0.0822
vn 0.6738 0.5249 -0.5201
vn -0.6420 -0.7618 -0.0869
vn 0.7727 0.5521 0.3132
vn -0.9073 -0.3326 0.2571
vn -0.2479 -0.9156 0.3166
vn 0.1632 0.9117 0.3771
vn 0.2023 0.9606 0.1905
vn -0.3522 -0.8185 0.4538
vn -0.0606 -0.5190 -0.8526
vn 0.3659 0.3651 0.8560
vn -0.2499 0.9112 -0.3274
vn -0.7410 -0.3590 0.5675
vn 0.1547 -0.9138 0.3756
vn -0.8805 -0.3606 -0.3078
vn -0.0488 0.9509 0.3058
vn -0.2410 -0.7566 0.6078
vn 0.2363 -0.3283 0.9145
vn -0.2230 0.5338 0.8157
vn -0.0576 -0.9955 -0.0757
vn -0.4324 0.3501 0.8310
vn -0.5350 0.7456 0.3973
vn -0.2859 0.3549 0.8901
vn 0.3974 -0.9160 -0.0546
vn -0.0607 -0.9931 0.1007
vn 0.0005 -1.0000 0.0015
vn -0.1158 -0.9932 0.0110
vn -0.0717 0.9889 -0.1303
vn -0.5695 -0.8191 0.0687
vn -0.3641 -0.3555 0.8608
vn 0.0447 -0.9498 0.3098
vn 0.6617 0.5528 0.5066
vn -0.8738 0.3638 -0.3227
vn -0.2041 -0.6794 0.7048
vn 0.3314 0.9107 0.2464
vn -0.0520 0.0146 0.9985
vn 0.5342 -0.7440 -0.4014
vn -0.7446 -0.3442 -0.5719
vn 0.5697 -0.8189 0.0695
vn -0.1275 0.3611 0.9238
vn -0.2103 -0.8219 -0.5293
vn -0.8326 0.5408 -0.1198
vn -0.5764 -0.3621 0.7325
vn 0.0590 0.9112 0.4076
vn 0.5314 -0.7443 0.4044
vn -0.0879 -0.4495 0.8890
vn -0.6196 -0.7432 0.2526
vn 0.4517 -0.8229 0.3447
vn -0.4067 -0.7484 0.5239
vn 0.1107 0.3594 -0.9266
vn -0.6110 -0.7529 -0.2445
vn -0.3714 -0.9163 0.1497
vn -0.0069 -0.4696 0.8829
vn -0.2778 -0.6781 -0.6804
vn 0.8608 0.3709 0.3485
vn 0.6231 0.7405 0.2520
vn 0.1131 -0.3491 -0.9302
vn 0.4418 0.3476 0.8271
vn 0.0716 -0.4610 -0.8845
vn -0.9234 0.3610 -0.1300
vn -0.5705 -0.3512 -0.7424
vn -0.0577 -0.9146 0.4003
vn 0.4082 0.7358 -0.5404
vn 0.8791 0.3611 -0.3110
vn 0.1418 0.3577 0.9230
vn -0.1243 -0.3535 0.9271
vn -0.1111 0.3607 -0.9260
vn -0.3748 -0.9148 -0.1505
vn -0.3187 -0.9154 -0.2460
vn 0.4131 -0.7426 -0.5272
vn 0.7377 0.3677 0.5663
vn 0.0602 -0.9152 0.3986
vn 0.3179 -0.9179 0.2374
vn 0.6729 0.7350 0.0831
vn -0.3719 -0.7958 -0.4778
vn -0.0726 -0.7408 -0.6678
vn -0.2373 -0.3238 0.9159
vn 0.1624 0.9133 -0.3734
vn 0.0240 -0.9858 -0.1662
vn -0.0038 -0.9978 0.0656
vn -0.2011 -0.9464 -0.2527
vn 0.6928 -0.3468 -0.6322
vn -0.4572 -0.8175 -0.3503
vn -0.1982 0.9616 0.1900
vn -0.0585 -0.8312 -0.5529
vn 0.6245 0.7348 -0.2646
vn -0.9166 -0.3272 -0.2297
vn -0.3072 0.3448 -0.8870
vn -0.1037 -0.6785 0.7273
vn -0.7474 -0.6557 -0.1073
vn -0.0729 0.9960 0.0521
vn 0.1061 -0.9319 -0.3470
vn -0.4083 0.9113 -0.0535
vn -0.0971 0.7331 0.6732
vn -0.8104 -0.3409 0.4765
vn -0.8049 0.3457 0.4823
vn -0.1252 -0.9493 0.2883
vn 0.3544 0.3676 -0.8598
vn -0.1597 0.9101 -0.3823
vn 0.0626 0.0397 0.9972
vn -0.2473 0.9501 -0.1902
vn -0.4987 0.5858 0.6388
vn 0.4057 0.9126 -0.0511
vn -0.0670 -0.8405 0.5376
vn -0.9249 0.3655 0.1043
vn 0.4510 -0.3481 0.8219
vn 0.9235 0.3664 -0.1138
vn 0.5696 0.3492 -0.7440
vn -0.1574 -0.9147 0.3721
vn -0.2591 0.7323 -0.6297
vn 0.3765 0.9132 0.1561
vn 0.3156 0.5548 -0.7698
vn 0.2572 0.7347 -0.6277
vn -0.6266 0.7366 0.2544
vn 0.3436 -0.8221 -0.4540
vn -0.6253 0.7355 -0.2607
vn 0.1172 -0.3480 0.9301
vn 0.1140 0.2311 -0.9662
vn 0.0652 -0.8520 -0.5195
vn 0.2664 -0.7451 0.6114
vn 0.0299 -0.9961 0.0825
vn 0.9165 -0.3286 -0.2282
vn -0.0529 0.9464 -0.3186
vn -0.4327 -0.3444 0.8332
vn -0.7649 0.5570 -0.3235
vn 0.8648 -0.3593 0.3508
vn 0.7384 -0.3652 0.5669
vn -0.2847 -0.6995 0.6555
vn 0.3255 0.9116 -0.2511
vn 0.3282 0.9107 -0.2508
vn -0.9289 -0.3647 0.0638
vn -0.9225 -0.3670 0.1194
vn -0.5240 -0.7521 -0.3998
vn 0.2761 -0.7594 -0.5892
vn 0.2593 -0.7464 -0.6129
vn 0.2261 -0.8104 -0.5406
vn -0.3340 0.9101 0.2454
vn 0.0969 0.7299 0.6767
vn 0.0729 0.7416 0.6668
vn -0.4549 -0.8215 0.3438
vn -0.4639 -0.8126 0.3529
vn 0.4050 0.9128 0.0522
vn 0.2494 -0.9156 -0.3156
vn 0.6106 -0.7502 -0.2538
vn 0.6167 -0.7456 -0.2525
vn 0.6176 -0.7489 -0.2400
vn -0.1239 -0.9436 -0.3071
vn -0.1069 -0.9321 -0.3460
vn -0.1536 -0.9146 -0.3740
vn -0.0377 -0.9303 -0.3647
vn -0.0412 -0.9297 -0.3660
vn 0.9248 -0.3613 -0.1188
vn 0.3832 0.9105 -0.1554
vn -0.3082 -0.9504 -0.0418
vn -0.2813 -0.9596 -0.0012
vn -0.6828 0.5075 -0.5256
vn -0.2937 0.9550 -0.0412
vn -0.1394 0.9878 -0.0699
vn -0.2911 0.9490 -0.1212
vn -0.2986 0.9537 -0.0368
vn -0.5215 -0.8262 0.2132
vn -0.5147 -0.8308 0.2116
vn -0.2835 0.9516 0.1191
vn -0.3025 0.9525 0.0345
vn 0.1192 0.5878 0.8002
vn 0.3676 -0.3641 0.8557
vn 0.3660 -0.3599 0.8582
vn 0.2901 -0.3560 0.8883
vn -0.2912 -0.9493 -0.1181
vn -0.2898 -0.9497 -0.1189
vn -0.2538 -0.9483 -0.1905
vn 0.1140 -0.9935 -0.0019
vn 0.1167 -0.9931 -0.0110
vn 0.1177 -0.9929 0.0197
vn 0.1077 -0.9924 0.0589
vn 0.7810 0.6162 0.1018
vn 0.7790 0.6188 0.1012
vn -0.1130 -0.3493 -0.9302
vn -0.1166 -0.3540 -0.9279
vn -0.0701 -0.3384 -0.9384
vn 0.7360 0.3700 -0.5669
vn 0.7389 0.3654 -0.5662
vn 0.6913 0.3462 -0.6343
vn 0.8822 -0.3611 -0.3022
vn 0.8631 -0.3379 -0.3753
vn 0.8558 -0.3343 -0.3947
vn -0.3307 -0.7420 -0.5831
vn -0.4080 -0.7451 -0.5276
vn -0.0548 0.9105 -0.4098
vn 0.3975 -0.9163 0.0483
vn 0.6016 -0.6445 -0.4720
vn -0.0933 -0.7626 0.6402
vn 0.5748 0.3668 0.7315
vn -0.3177 -0.9168 0.2418
vn -0.2483 -0.9584 0.1406
vn -0.2509 -0.9497 0.1873
vn 0.0826 0.9942 0.0683
vn 0.0732 0.9973 0.0007
vn 0.0880 0.9956 0.0336
vn 0.0164 0.9908 0.1340
vn 0.0469 0.9911 0.1245
vn 0.0209 0.9974 0.0685
vn -0.9695 0.0473 -0.2403
vn 0.3266 -0.3370 -0.8830
vn 0.3558 -0.3502 -0.8665
vn 0.5689 -0.3679 0.7355
vn -0.3141 0.5617 -0.7654
vn -0.3198 0.5279 -0.7868
vn 0.0756 -0.8158 0.5733
vn 0.3079 -0.9508 -0.0358
vn 0.3093 -0.9502 0.0380
vn 0.3060 -0.9513 -0.0375
vn 0.8247 0.3444 -0.4487
vn 0.0422 0.9499 -0.3096
vn 0.1200 0.9471 -0.2976
vn 0.0511 0.9473 -0.3163
vn -0.2495 0.0771 0.9653
vn -0.6777 0.7299 -0.0894
vn -0.6437 0.5892 0.4885
vn -0.8739 0.3646 0.3214
vn -0.8630 0.3637 0.3506
vn -0.8640 -0.3640 0.3480
vn 0.2570 0.7471 0.6131
vn 0.2663 0.7389 0.6190
vn 0.3053 0.9515 -0.0375
vn 0.2906 0.9491 -0.1216
vn 0.1390 0.9878 -0.0695
vn 0.2907 0.9555 -0.0508
vn 0.2823 0.3551 0.8912
vn -0.5997 -0.6414 -0.4786
vn -0.5545 -0.7178 -0.4211
vn 0.0968 -0.7481 0.6564
vn -0.0411 -0.7443 0.6666
vn 0.0948 -0.7500 0.6546
vn 0.3045 0.9519 0.0352
vn 0.2649 0.9619 0.0673
vn 0.2852 0.9510 0.1192
vn 0.3687 -0.9178 -0.1473
vn 0.3733 -0.9145 -0.1563
vn 0.6465 -0.7581 -0.0853
vn 0.6832 0.5074 -0.5252
vn -0.5880 -0.8056 -0.0726
vn -0.6542 -0.7519 -0.0823
vn -0.7373 0.3701 0.5652
vn -0.7373 0.3659 0.5678
vn 0.7715 0.5542 0.3125
vn 0.1144 0.5537 -0.8248
vn 0.5361 0.7362 -0.4130
vn 0.5349 0.7390 -0.4095
vn -0.3992 -0.9155 0.0502
vn -0.3971 -0.9165 0.0479
vn -0.0592 0.9095 0.4115
vn -0.0552 0.9113 0.4080
vn -0.2479 -0.9143 0.3205
vn 0.1606 0.9092 0.3842
vn 0.2431 0.9524 0.1838
vn 0.1962 0.9507 0.2400
vn -0.3462 -0.8241 0.4482
vn 0.3655 0.3638 0.8568
vn -0.2496 0.9101 -0.3307
vn -0.7410 -0.3622 0.5654
vn 0.1557 -0.9147 0.3728
vn -0.8639 -0.3373 -0.3741
vn -0.8560 -0.3337 -0.3948
vn -0.8604 -0.3630 -0.3576
vn -0.9946 -0.0000 0.1034
vn -0.0796 0.9579 0.2757
vn -0.1187 0.9503 0.2878
vn -0.1646 0.9100 0.3805
vn -0.1625 0.9076 0.3872
vn -0.2547 -0.7535 0.6061
vn -0.2498 -0.7575 0.6032
vn -0.1198 0.5885 0.7996
vn -0.1189 0.5922 0.7970
vn 0.2467 0.9110 -0.3305
vn 0.2475 0.9125 -0.3256
vn -0.8245 0.3446 -0.4488
vn -0.1178 -0.9893 -0.0861
vn -0.0789 -0.9921 -0.0975
vn -0.0544 -0.9888 -0.1388
vn -0.0197 -0.9857 -0.1676
vn -0.0701 -0.9929 -0.0956
vn -0.0558 -0.9966 -0.0601
vn -0.3642 0.3658 0.8565
vn -0.3643 0.3661 0.8563
vn -0.5390 0.7361 0.4094
vn -0.3818 0.9110 -0.1557
vn -0.3781 0.9123 -0.1571
vn -0.2869 0.3546 0.8899
vn -0.2279 -0.8186 0.5273
vn 0.3992 -0.9153 -0.0535
vn -0.0456 -0.9889 0.1414
vn -0.0743 -0.9928 0.0941
vn -0.0619 -0.9931 0.0996
vn 0.0001 -1.0000 0.0005
vn -0.0000 -1.0000 0.0048
vn 0.0021 -0.9999 0.0152
vn 0.0005 -1.0000 0.0014
vn -0.1311 -0.9914 0.0015
vn -0.1406 -0.9886 -0.0532
vn -0.1041 -0.9941 0.0300
vn -0.1051 -0.9927 0.0593
vn -0.0937 0.9944 -0.0493
vn -0.0805 0.9950 -0.0591
vn -0.0824 0.9951 -0.0547
vn -0.0865 0.9904 -0.1082
vn 0.0555 0.9107 -0.4094
vn 0.0588 0.9124 -0.4050
vn 0.4172 0.7377 0.5308
vn 0.4170 0.7406 0.5269
vn -0.5324 -0.8437 0.0685
vn 0.1908 -0.9502 0.2462
vn 0.1271 -0.9500 0.2852
vn 0.1474 -0.9584 0.2445
vn -0.3247 -0.3611 0.8742
vn -0.3668 -0.3619 0.8570
vn 0.0439 -0.9495 0.3107
vn 0.6441 0.5886 0.4885
vn -0.8598 0.3634 -0.3587
vn -0.8599 0.3633 -0.3587
vn -0.8856 0.3550 -0.2996
vn 0.3339 0.9099 0.2461
vn 0.5116 -0.7613 -0.3983
vn -0.1141 0.5592 -0.8212
vn -0.7246 -0.3666 -0.5836
vn -0.7525 -0.3628 -0.5496
vn -0.6875 -0.3474 -0.6377
vn 0.3726 -0.9155 0.1519
vn 0.3689 -0.9181 0.1448
vn 0.5423 -0.8373 0.0695
vn 0.5340 0.7464 0.3971
vn 0.5380 0.7371 0.4089
vn -0.6693 0.7384 0.0823
vn -0.6753 0.7333 0.0792
vn -0.9274 -0.3558 -0.1155
vn -0.9251 -0.3609 -0.1183
vn -0.9619 0.0531 0.2683
vn -0.2646 0.7393 0.6192
vn -0.2566 0.7464 0.6141
vn -0.0821 0.3802 0.9212
vn -0.1077 0.3620 0.9259
vn -0.1283 0.3623 0.9232
vn -0.1452 0.3577 0.9225
vn -0.5343 -0.3667 0.7616
vn -0.5756 -0.3574 0.7355
vn 0.0413 0.9085 0.4158
vn 0.0583 0.9114 0.4073
vn 0.5333 -0.7429 0.4046
vn -0.0618 -0.1537 -0.9862
vn 0.5169 -0.8280 -0.2174
vn 0.5482 -0.8055 -0.2252
vn -0.6184 -0.7448 0.2508
vn 0.1986 -0.9465 -0.2545
vn 0.1995 -0.9463 -0.2545
vn 0.2537 -0.9483 -0.1907
vn 0.2547 -0.9481 -0.1904
vn -0.1930 -0.9491 0.2489
vn -0.1947 -0.9510 0.2403
vn 0.4401 -0.8317 0.3386
vn 0.9946 -0.0000 0.1033
vn -0.4137 -0.6671 0.6196
vn -0.4133 -0.7436 0.5256
vn -0.4460 -0.7544 0.4816
vn 0.1150 0.3679 -0.9227
vn -0.6078 -0.7534 -0.2510
vn -0.6169 -0.7468 -0.2485
vn -0.3727 -0.9154 0.1520
vn 0.8743 0.3624 0.3229
vn 0.8631 0.3667 0.3473
vn 0.6258 0.7367 0.2562
vn 0.2745 -0.7159 0.6419
vn 0.2473 -0.9160 0.3159
vn 0.2473 -0.9146 0.3200
vn 0.1165 -0.3534 -0.9282
vn 0.0897 -0.3541 -0.9309
vn 0.0728 -0.3401 -0.9376
vn -0.6609 -0.7454 0.0875
vn -0.6643 -0.7447 0.0644
vn -0.6576 -0.7487 0.0838
vn 0.9296 -0.3620 0.0684
vn 0.9327 -0.3447 0.1059
vn 0.9225 -0.3670 0.1195
vn 0.4861 0.5986 -0.6367
vn 0.4949 0.5741 -0.6523
vn 0.7274 -0.6604 -0.1863
vn 0.7482 -0.6548 -0.1073
vn 0.2470 -0.9588 0.1406
vn 0.2918 -0.9493 0.1170
vn 0.2508 -0.9499 0.1864
vn -0.9188 0.3761 -0.1197
vn -0.9234 0.3665 -0.1141
vn 0.6703 0.7375 -0.0821
vn 0.6778 0.7298 -0.0896
vn -0.5348 0.7398 -0.4082
vn -0.5362 0.7364 -0.4126
vn -0.8266 0.5529 0.1050
vn -0.0025 0.9885 -0.1510
vn 0.0078 0.9876 -0.1567
vn -0.0013 0.9886 -0.1504
vn -0.5704 -0.3504 -0.7429
vn -0.0555 -0.9133 0.4035
vn -0.4171 0.7386 0.5296
vn -0.4169 0.7411 0.5263
vn -0.1129 0.2543 -0.9605
vn 0.2767 -0.6778 -0.6812
vn 0.4118 0.7328 -0.5416
vn 0.8595 0.3651 -0.3578
vn 0.8603 0.3637 -0.3573
vn 0.8802 0.3625 -0.3062
vn 0.8251 0.5525 -0.1183
vn -0.3498 -0.3591 -0.8653
vn -0.3292 -0.3381 -0.8817
vn -0.3558 -0.3500 -0.8665
vn 0.1288 0.3611 0.9236
vn 0.0834 0.3803 0.9211
vn 0.1095 0.3608 0.9262
vn 0.1285 0.3607 0.9238
vn -0.1279 -0.3579 0.9249
vn -0.1082 -0.3560 0.9282
vn -0.0859 -0.3406 0.9363
vn -0.1135 0.3655 -0.9239
vn -0.3757 -0.9142 -0.1522
vn -0.0860 0.7379 -0.6694
vn -0.0926 0.7306 -0.6765
vn -0.3181 -0.9163 -0.2434
vn -0.7386 0.3656 -0.5664
vn -0.7350 0.3714 -0.5673
vn -0.6912 0.3497 -0.6324
vn 0.6180 -0.7445 0.2525
vn 0.6188 -0.7434 0.2538
vn -0.8031 0.4993 0.3252
vn -0.7804 0.5421 0.3116
vn 0.4038 -0.7482 -0.5264
vn 0.4124 -0.7423 -0.5281
vn 0.3321 -0.7407 -0.5840
vn 0.7377 0.3654 0.5677
vn 0.0596 -0.9148 0.3994
vn 0.3194 -0.9158 0.2436
vn 0.6758 0.7325 0.0817
vn 0.0623 -0.7150 -0.6964
vn -0.0783 -0.7373 -0.6710
vn -0.0628 -0.7346 -0.6756
vn 0.1575 0.9090 -0.3859
vn 0.6621 -0.7441 0.0890
vn 0.6633 -0.7453 0.0670
vn 0.6575 -0.7487 0.0840
vn 0.0534 -0.9885 -0.1417
vn 0.0711 -0.9935 -0.0893
vn 0.0964 -0.9927 -0.0722
vn 0.1141 -0.9926 -0.0427
vn 0.0631 -0.9946 -0.0826
vn 0.0727 -0.9934 -0.0890
vn 0.3202 -0.9138 -0.2500
vn 0.3187 -0.9163 -0.2426
vn -0.3806 0.9117 0.1546
vn -0.3759 0.9133 0.1566
vn 0.5241 -0.8243 0.2142
vn 0.5105 -0.8337 0.2108
vn 0.4088 -0.7454 0.5266
vn 0.4088 -0.7454 0.5265
vn -0.5177 -0.8270 -0.2192
vn 0.0598 0.9981 -0.0172
vn 0.0593 0.9981 -0.0136
vn 0.0818 0.9925 -0.0911
vn 0.0577 0.9889 -0.1368
vn 0.0758 0.9963 -0.0407
vn 0.0024 1.0000 0.0025
vn -0.0062 1.0000 0.0041
vn -0.9936 -0.0000 -0.1128
vn -0.1944 -0.9479 -0.2525
vn 0.7424 -0.3490 -0.5719
vn 0.7552 -0.3614 -0.5468
vn 0.7303 -0.3654 -0.5772
vn -0.4538 -0.8208 -0.3468
vn -0.1905 0.9505 0.2455
vn -0.2450 0.9520 0.1833
vn -0.0577 -0.8166 -0.5743
vn 0.5511 -0.3604 -0.7526
vn 0.5719 -0.3468 -0.7434
vn 0.5731 -0.3511 -0.7405
vn -0.4052 0.9128 0.0516
vn -0.4055 0.9126 0.0520
vn 0.6149 0.7481 -0.2495
vn -0.3238 0.5666 0.7577
vn -0.3170 0.5845 0.7469
vn 0.0489 -0.7451 0.6652
vn -0.2598 -0.7494 -0.6090
vn -0.2475 -0.7605 -0.6004
vn 0.2490 0.0773 0.9654
vn -0.3539 0.3685 -0.8596
vn -0.3552 0.3666 -0.8599
vn -0.1051 -0.6747 0.7306
vn 0.4563 -0.8200 -0.3456
vn -0.7243 -0.6621 -0.1925
vn 0.9627 0.0445 0.2668
vn -0.0716 0.9954 0.0644
vn -0.0465 0.9910 0.1257
vn -0.1030 0.9947 -0.0068
vn -0.0949 0.9949 0.0339
vn -0.0702 0.9954 0.0658
vn -0.2471 -0.9161 -0.3159
vn -0.2466 -0.9128 -0.3256
vn 0.9226 0.3669 0.1190
vn 0.9208 0.3605 0.1491
vn 0.9298 0.3514 0.1097
vn 0.9244 0.3788 0.0443
vn 0.0464 -0.9299 -0.3649
vn 0.0492 -0.9294 -0.3658
vn 0.1517 -0.9163 -0.3707
vn 0.1233 -0.9435 -0.3075
vn -0.4087 0.9111 -0.0540
vn -0.0947 0.7287 0.6783
vn -0.0808 -0.9582 0.2743
vn -0.0468 -0.9484 0.3136
vn 0.5878 -0.8055 -0.0753
vn 0.5360 -0.8409 -0.0750
vn 0.3045 0.3425 -0.8888
vn 0.3556 0.3659 -0.8601
vn 0.7666 0.5546 -0.3238
vn 0.7576 0.5697 -0.3186
vn -0.5654 0.3608 -0.7417
vn -0.5685 0.3557 -0.7419
vn -0.1582 0.9088 -0.3861
vn -0.5743 0.3664 0.7320
vn -0.5737 0.3612 0.7351
vn 0.2862 -0.9514 -0.1137
vn 0.2892 -0.9494 -0.1221
vn 0.1114 -0.5715 0.8130
vn -0.3278 0.9108 -0.2510
vn -0.3259 0.9114 -0.2512
vn -0.2470 0.9498 -0.1922
vn -0.1984 0.9553 -0.2194
vn -0.1938 0.9477 -0.2537
vn -0.5330 -0.7447 0.4017
vn -0.5293 -0.7475 0.4014
vn -0.5058 0.5719 0.6458
vn 0.4082 0.9113 -0.0540
vn 0.5138 0.5557 0.6536
vn 0.4983 0.5864 0.6386
vn -0.4085 0.7354 -0.5407
vn -0.4086 0.7353 -0.5407
vn 0.3217 0.5703 0.7558
vn 0.3251 0.5611 0.7613
vn -0.9201 0.3761 0.1099
vn -0.9216 0.3562 0.1544
vn -0.8295 0.4937 -0.2612
vn 0.9679 0.0709 -0.2411
vn 0.3423 -0.8317 0.4372
vn 0.3491 -0.8221 0.4497
vn 0.9188 0.3763 -0.1195
vn 0.9232 0.3593 -0.1363
vn 0.2278 -0.8186 0.5272
vn 0.5633 0.3599 -0.7438
vn -0.1559 -0.9132 0.3765
vn -0.2557 0.7354 -0.6275
vn -0.4809 0.6045 -0.6351
vn -0.5050 0.5569 -0.6594
vn 0.3803 0.9119 0.1544
vn 0.3196 0.5308 -0.7849
vn 0.0813 -0.7367 -0.6713
vn 0.0758 -0.7339 -0.6750
vn 0.0780 -0.7387 -0.6695
vn -0.0751 -0.7155 -0.6945
vn -0.2539 0.9116 0.3234
vn -0.2554 0.9111 0.3236
vn 0.2592 0.7329 -0.6291
vn -0.6257 0.7378 0.2530
vn -0.6178 0.7414 -0.2621
vn 0.1030 -0.3507 0.9308
vn 0.1200 -0.3530 0.9279
vn 0.0642 -0.8309 -0.5528
vn 0.2478 -0.7642 0.5955
vn -0.3994 -0.9152 -0.0529
vn -0.3970 -0.9162 -0.0546
vn 0.2588 0.9112 0.3206
vn 0.2524 0.9134 0.3195
vn 0.0657 -0.9919 0.1089
vn 0.0659 -0.9925 0.1029
vn 0.0266 -0.9893 0.1436
vn 0.2470 0.9498 -0.1921
vn 0.2473 0.9502 -0.1898
vn 0.1967 0.9555 -0.2196
vn 0.1926 0.9504 -0.2441
vn -0.1207 0.9473 -0.2967
vn -0.1228 0.9468 -0.2974
vn -0.0479 0.9478 -0.3151
vn 0.0864 0.7373 -0.6700
vn 0.0926 0.7304 -0.6767
vn 0.0417 0.9515 0.3048
vn 0.1239 0.9506 0.2845
vn 0.0841 0.9593 0.2697
vn 0.0170 0.9541 0.2989
vn 0.9235 0.3646 -0.1196
vn 0.9194 0.3765 -0.1141
vn 0.8618 0.3703 0.3468
vn 0.8624 0.3665 0.3492
vn 0.8647 -0.3593 0.3510
vn 0.8647 -0.3596 0.3508
vn 0.6191 -0.7435 0.2530
vn 0.8600 0.3635 -0.3581
vn 0.8598 0.3650 -0.3571
vn 0.4052 0.9126 -0.0536
vn 0.4081 0.9115 -0.0513
vn 0.4050 0.9128 0.0521
vn 0.4049 0.9129 0.0522
vn 0.7370 0.3677 0.5671
vn 0.7384 0.3652 0.5668
vn 0.6176 -0.7446 0.2533
vn 0.7390 -0.3633 0.5673
vn 0.7379 -0.3652 0.5675
vn 0.5326 -0.7430 0.4053
vn 0.5320 -0.7444 0.4036
vn 0.5232 -0.8244 0.2159
vn 0.5110 -0.8338 0.2088
vn 0.6152 -0.7458 -0.2557
vn 0.6122 -0.7499 -0.2507
vn 0.2551 0.9114 0.3229
vn 0.2557 0.9135 0.3166
vn 0.5007 0.5861 0.6370
vn 0.5114 0.5561 0.6552
vn 0.5729 0.3665 0.7331
vn 0.5761 0.3615 0.7331
vn 0.4089 -0.7454 0.5265
vn 0.3974 -0.9161 -0.0532
vn 0.3988 -0.9154 -0.0548
vn 0.4037 -0.7546 -0.5174
vn 0.4060 -0.7429 -0.5322
vn 0.4256 -0.7164 -0.5528
vn 0.4967 0.5738 -0.6512
vn 0.4843 0.5980 -0.6386
vn 0.4100 0.7330 -0.5428
vn 0.4098 0.7359 -0.5390
vn 0.2493 0.9112 -0.3280
vn 0.2481 0.9498 -0.1904
vn 0.0607 0.9980 -0.0159
vn 0.2458 0.9504 -0.1907
vn 0.3227 0.5703 0.7554
vn 0.3243 0.5608 0.7618
vn 0.3653 0.3651 0.8563
vn 0.3662 0.3637 0.8565
vn 0.3060 -0.9514 -0.0356
vn 0.3074 -0.9508 -0.0377
vn 0.4456 -0.6823 -0.5796
vn 0.2366 -0.7807 -0.5784
vn 0.2461 -0.7597 -0.6019
vn 0.3542 -0.3605 -0.8629
vn 0.3508 -0.3479 -0.8694
vn 0.3547 0.3655 -0.8606
vn 0.3553 0.3676 -0.8594
vn 0.3216 0.5317 -0.7835
vn 0.3139 0.5548 -0.7705
vn 0.2579 0.7329 -0.6295
vn 0.2584 0.7348 -0.6271
vn 0.2447 0.9127 -0.3272
vn 0.0567 0.9983 -0.0161
vn -0.0016 0.9885 -0.1515
vn -0.0025 0.9887 -0.1501
vn 0.0589 0.9114 0.4072
vn 0.0968 0.7304 0.6761
vn 0.0972 0.7299 0.6766
vn 0.0584 0.9112 0.4079
vn 0.1193 0.5877 0.8002
vn 0.0997 -0.7049 0.7022
vn 0.0870 -0.7477 0.6584
vn 0.0928 -0.7619 0.6410
vn 0.0603 -0.9149 0.3993
vn 0.0595 -0.9152 0.3986
vn 0.2541 -0.9483 -0.1899
vn 0.2542 -0.9481 -0.1910
vn 0.0796 -0.7473 -0.6597
vn 0.0758 -0.7254 -0.6842
vn 0.0823 -0.7099 -0.6995
vn 0.0736 -0.7340 -0.6751
vn 0.1150 0.3592 -0.9262
vn 0.1110 0.3680 -0.9232
vn -0.0826 0.9949 -0.0576
vn -0.0762 0.9956 -0.0555
vn -0.1212 0.9469 -0.2979
vn -0.1223 0.9474 -0.2958
vn -0.0588 0.9114 0.4074
vn -0.0557 0.9096 0.4117
vn 0.1193 0.5857 0.8017
vn -0.0940 0.7334 0.6732
vn -0.0978 0.7292 0.6772
vn -0.1193 0.5920 0.7971
vn -0.1193 0.5858 0.8017
vn 0.1288 0.3607 0.9237
vn 0.1285 0.3612 0.9236
vn 0.1277 -0.3515 0.9274
vn 0.1197 -0.3621 0.9244
vn 0.1007 -0.3533 0.9301
vn 0.0062 -1.0000 0.0042
vn 0.0109 -0.9999 0.0011
vn 0.0005 -1.0000 0.0059
vn 0.0721 -0.9934 -0.0887
vn 0.0721 -0.9933 -0.0906
vn -0.0378 -0.9299 -0.3660
vn -0.0557 -0.8313 -0.5530
vn -0.0610 -0.8170 -0.5735
vn -0.0722 -0.7444 -0.6638
vn -0.0699 -0.7391 -0.6700
vn -0.1135 0.3606 -0.9258
vn -0.1112 0.3656 -0.9241
vn -0.2460 0.9503 -0.1910
vn -0.3188 0.5845 0.7461
vn -0.3221 0.5661 0.7588
vn -0.2869 0.3549 0.8898
vn -0.2861 0.3545 0.8902
vn 0.0972 -0.3505 0.9315
vn -0.0006 -1.0000 0.0058
vn -0.0069 -1.0000 0.0035
vn -0.0410 -0.9305 -0.3639
vn -0.0824 -0.7096 -0.6997
vn -0.3542 0.3662 -0.8605
vn -0.3549 0.3686 -0.8592
vn -0.3224 0.5293 -0.7848
vn -0.3116 0.5618 -0.7664
vn -0.2569 0.7324 -0.6305
vn -0.2578 0.7355 -0.6265
vn -0.2480 0.9498 -0.1907
vn -0.4086 0.7353 -0.5408
vn -0.4086 0.7354 -0.5406
vn -0.2546 0.9116 0.3227
vn -0.2545 0.9111 0.3242
vn -0.3644 0.3658 0.8564
vn -0.4999 0.5857 0.6380
vn -0.5047 0.5721 0.6465
vn -0.5725 0.3663 0.7336
vn -0.3642 0.3662 0.8563
vn -0.3678 -0.3549 0.8595
vn -0.3633 -0.3619 0.8585
vn -0.4001 -0.7579 0.5153
vn -0.3188 -0.9169 0.2401
vn -0.3196 -0.9158 0.2431
vn -0.1982 -0.9480 -0.2489
vn -0.1970 -0.9465 -0.2556
vn -0.4003 -0.7515 -0.5244
vn -0.4004 -0.7509 -0.5252
vn -0.3545 -0.3592 -0.8633
vn -0.3514 -0.3481 -0.8691
vn -0.4274 -0.7151 -0.5531
vn -0.6233 0.7359 -0.2644
vn -0.6194 0.7414 -0.2581
vn -0.7360 0.3701 0.5668
vn -0.5755 0.3614 0.7336
vn -0.4321 -0.7152 0.5493
vn -0.4164 -0.7440 0.5226
vn -0.5211 -0.8262 0.2140
vn -0.5149 -0.8310 0.2105
vn -0.2902 -0.9497 -0.1176
vn -0.2559 -0.9485 -0.1865
vn -0.2907 -0.9494 -0.1192
vn -0.2562 -0.9473 -0.1925
vn -0.4535 -0.8208 -0.3474
vn -0.4575 -0.8176 -0.3496
vn -0.8039 0.5006 0.3211
vn -0.7781 0.5433 0.3153
vn -0.9194 0.3763 -0.1145
vn -0.9206 0.3763 0.1045
vn -0.7387 0.3656 0.5663
vn -0.3970 -0.9163 -0.0526
vn -0.3990 -0.9153 -0.0548
vn -0.6100 -0.7531 -0.2465
vn -0.6144 -0.7471 -0.2538
vn -0.9234 0.3646 -0.1197
vn -0.9247 0.3645 0.1100
s 0
f 264//1 292//1 293//1
f 30//2 10//2 18//2
f 39//3 60//3 41//3
f 116//4 96//4 115//4
f 114//5 103//5 97//5
f 275//6 317//6 298//6
f 280//7 261//7 242//7
f 135//8 125//8 108//8
f 247//9 273//9 304//9
f 114//10 144//10 133//10
f 38//11 58//11 28//11
f 76//12 118//12 107//12
f 7//13 2//13 5//13
f 43//14 56//14 37//14
f 309//15 307//15 277//15
f 264//16 236//16 230//16
f 2//17 7//17 1//17
f 270//18 295//18 312//18
f 305//19 272//19 271//19
f 133//20 123//20 114//20
f 29//21 39//21 30//21
f 279//22 278//22 286//22
f 110//23 196//23 139//23
f 138//24 162//24 150//24
f 11//25 23//25 24//25
f 234//26 260//26 201//26
f 176//27 214//27 203//27
f 30//28 39//28 41//28
f 33//29 49//29 31//29
f 24//30 64//30 46//30
f 182//31 166//31 159//31
f 48//32 69//32 45//32
f 287//33 259//33 257//33
f 287//34 309//34 277//34
f 142//35 189//35 205//35
f 101//36 82//36 90//36
f 45//37 70//37 60//37
f 71//38 80//38 61//38
f 141//39 127//39 126//39
f 154//40 121//40 128//40
f 320//41 322//41 302//41
f 255//42 219//42 239//42
f 255//43 284//43 266//43
f 266//44 254//44 249//44
f 37//45 72//45 73//45
f 20//46 21//46 19//46
f 97//47 104//47 98//47
f 18//48 10//48 9//48
f 15//49 16//49 5//49
f 53//50 55//50 36//50
f 311//51 319//51 301//51
f 29//52 8//52 27//52
f 266//53 275//53 285//53
f 259//54 248//54 257//54
f 143//55 87//55 122//55
f 142//56 86//56 95//56
f 222//57 256//57 257//57
f 138//58 148//58 162//58
f 98//59 75//59 97//59
f 244//60 269//60 245//60
f 240//61 233//61 218//61
f 149//62 100//62 131//62
f 281//63 288//63 282//63
f 216//64 165//64 198//64
f 206//65 182//65 181//65
f 105//66 115//66 98//66
f 157//67 179//67 180//67
f 225//68 192//68 241//68
f 199//69 208//69 207//69
f 296//70 265//70 247//70
f 180//71 168//71 157//71
f 61//72 40//72 31//72
f 223//73 184//73 227//73
f 224//74 210//74 139//74
f 241//75 210//75 277//75
f 204//76 215//76 237//76
f 321//77 306//77 319//77
f 207//78 209//78 181//78
f 171//79 163//79 149//79
f 48//80 29//80 59//80
f 291//81 292//81 282//81
f 181//82 182//82 169//82
f 86//83 68//83 67//83
f 132//84 156//84 146//84
f 24//85 51//85 64//85
f 252//86 235//86 243//86
f 25//87 31//87 15//87
f 167//88 156//88 145//88
f 195//89 234//89 194//89
f 291//90 320//90 293//90
f 220//91 218//91 233//91
f 144//92 143//92 165//92
f 60//93 47//93 41//93
f 158//94 159//94 134//94
f 254//95 285//95 283//95
f 52//96 47//96 78//96
f 256//97 222//97 220//97
f 113//98 140//98 112//98
f 281//99 311//99 301//99
f 313//100 309//100 287//100
f 130//101 134//101 159//101
f 201//102 170//102 186//102
f 30//103 18//103 8//103
f 13//104 28//104 44//104
f 126//105 113//105 137//105
f 69//106 75//106 70//106
f 148//107 138//107 137//107
f 291//108 290//108 289//108
f 229//109 197//109 201//109
f 185//110 206//110 212//110
f 55//111 92//111 83//111
f 11//112 20//112 12//112
f 105//113 104//113 103//113
f 156//114 167//114 158//114
f 140//115 164//115 174//115
f 310//116 308//116 311//116
f 267//117 286//117 300//117
f 76//118 108//118 77//118
f 48//119 45//119 39//119
f 131//120 172//120 185//120
f 91//121 66//121 52//121
f 38//122 28//122 13//122
f 260//123 234//123 267//123
f 161//124 194//124 162//124
f 169//125 167//125 178//125
f 93//126 152//126 128//126
f 225//127 211//127 193//127
f 153//128 188//128 204//128
f 279//129 258//129 250//129
f 65//130 54//130 42//130
f 280//131 267//131 300//131
f 253//132 272//132 273//132
f 183//133 194//133 161//133
f 36//134 43//134 21//134
f 288//135 289//135 282//135
f 174//136 164//136 173//136
f 159//137 158//137 182//137
f 315//138 288//138 301//138
f 177//139 232//139 272//139
f 118//140 193//140 135//140
f 312//141 322//141 318//141
f 179//142 133//142 155//142
f 240//143 249//143 254//143
f 240//144 255//144 249//144
f 212//145 248//145 227//145
f 81//146 82//146 101//146
f 231//147 245//147 214//147
f 117//148 132//148 146//148
f 269//149 303//149 268//149
f 199//150 239//150 219//150
f 38//151 22//151 37//151
f 206//152 172//152 166//152
f 320//153 275//153 284//153
f 88//154 70//154 75//154
f 7//155 19//155 3//155
f 53//156 54//156 82//156
f 212//157 238//157 248//157
f 231//158 176//158 175//158
f 67//159 44//159 58//159
f 81//160 112//160 111//160
f 92//161 111//161 93//161
f 296//162 297//162 265//162
f 76//163 107//163 108//163
f 264//164 302//164 294//164
f 130//165 105//165 146//165
f 113//166 126//166 127//166
f 136//167 135//167 183//167
f 102//168 88//168 116//168
f 184//169 223//169 196//169
f 7//170 17//170 11//170
f 215//171 203//171 214//171
f 208//172 209//172 207//172
f 264//173 263//173 292//173
f 41//174 10//174 30//174
f 39//175 45//175 60//175
f 181//176 209//176 221//176
f 84//177 56//177 83//177
f 43//178 83//178 56//178
f 317//179 315//179 298//179
f 298//180 285//180 275//180
f 242//181 260//181 280//181
f 135//182 136//182 125//182
f 125//183 90//183 108//183
f 107//184 135//184 108//184
f 304//185 296//185 247//185
f 114//186 129//186 144//186
f 155//187 133//187 144//187
f 299//188 257//188 283//188
f 283//189 257//189 256//189
f 57//190 58//190 38//190
f 76//191 99//191 118//191
f 24//192 23//192 32//192
f 51//193 24//193 32//193
f 16//194 32//194 23//194
f 226//195 250//195 258//195
f 226//196 258//196 195//196
f 234//197 195//197 258//197
f 195//198 183//198 226//198
f 183//199 211//199 226//199
f 5//200 17//200 7//200
f 37//201 22//201 43//201
f 308//202 276//202 307//202
f 276//203 277//203 307//203
f 230//204 263//204 264//204
f 271//205 270//205 312//205
f 270//206 268//206 295//206
f 295//207 303//207 312//207
f 318//208 271//208 312//208
f 313//209 299//209 283//209
f 306//210 313//210 283//210
f 305//211 304//211 272//211
f 318//212 305//212 271//212
f 123//213 103//213 114//213
f 96//214 88//214 75//214
f 98//215 96//215 75//215
f 98//216 115//216 96//216
f 278//217 276//217 310//217
f 276//218 308//218 310//218
f 310//219 286//219 278//219
f 139//220 147//220 80//220
f 80//221 147//221 89//221
f 80//222 71//222 139//222
f 71//223 110//223 139//223
f 8//224 4//224 13//224
f 13//225 4//225 3//225
f 164//226 150//226 162//226
f 170//227 164//227 162//227
f 150//228 141//228 138//228
f 53//229 34//229 42//229
f 34//230 35//230 42//230
f 42//231 54//231 53//231
f 11//232 17//232 23//232
f 26//233 11//233 24//233
f 24//234 35//234 26//234
f 260//235 242//235 228//235
f 228//236 201//236 260//236
f 203//237 151//237 176//237
f 61//238 31//238 49//238
f 65//239 46//239 64//239
f 182//240 206//240 166//240
f 70//241 45//241 69//241
f 257//242 299//242 287//242
f 277//243 251//243 287//243
f 259//244 287//244 251//244
f 142//245 95//245 189//245
f 85//246 73//246 189//246
f 95//247 85//247 189//247
f 198//248 190//248 205//248
f 190//249 142//249 205//249
f 189//250 177//250 205//250
f 282//251 289//251 290//251
f 113//252 101//252 109//252
f 90//253 109//253 101//253
f 70//254 88//254 60//254
f 174//255 202//255 175//255
f 175//256 202//256 213//256
f 166//257 172//257 131//257
f 80//258 89//258 62//258
f 61//259 49//259 71//259
f 62//260 61//260 80//260
f 26//261 35//261 34//261
f 187//262 154//262 203//262
f 128//263 152//263 154//263
f 152//264 203//264 154//264
f 168//265 178//265 167//265
f 302//266 293//266 320//266
f 239//267 265//267 255//267
f 274//268 266//268 284//268
f 266//269 249//269 255//269
f 266//270 285//270 254//270
f 129//271 114//271 87//271
f 114//272 74//272 87//272
f 85//273 57//273 37//273
f 37//274 56//274 72//274
f 72//275 94//275 73//275
f 73//276 85//276 37//276
f 97//277 103//277 104//277
f 228//278 242//278 243//278
f 242//279 261//279 243//279
f 166//280 131//280 130//280
f 131//281 116//281 115//281
f 115//282 130//282 131//282
f 57//283 85//283 58//283
f 85//284 95//284 58//284
f 95//285 67//285 58//285
f 62//286 63//286 40//286
f 63//287 50//287 40//287
f 15//288 32//288 16//288
f 34//289 53//289 36//289
f 311//290 321//290 319//290
f 319//291 315//291 301//291
f 240//292 218//292 219//292
f 219//293 255//293 240//293
f 13//294 27//294 8//294
f 140//295 111//295 112//295
f 36//296 55//296 83//296
f 83//297 43//297 36//297
f 313//298 321//298 309//298
f 321//299 307//299 309//299
f 165//300 216//300 155//300
f 216//301 191//301 155//301
f 238//302 257//302 248//302
f 143//303 129//303 87//303
f 67//304 95//304 86//304
f 122//305 86//305 142//305
f 257//306 238//306 222//306
f 69//307 97//307 75//307
f 231//308 244//308 245//308
f 254//309 233//309 240//309
f 149//310 119//310 100//310
f 282//311 262//311 261//311
f 252//312 261//312 262//312
f 261//313 281//313 282//313
f 275//314 316//314 317//314
f 198//315 253//315 216//315
f 246//316 216//316 253//316
f 216//317 246//317 217//317
f 217//318 191//318 216//318
f 221//319 222//319 181//319
f 222//320 206//320 181//320
f 133//321 179//321 145//321
f 179//322 157//322 145//322
f 128//323 84//323 83//323
f 83//324 93//324 128//324
f 263//325 252//325 262//325
f 241//326 278//326 279//326
f 279//327 250//327 241//327
f 250//328 226//328 225//328
f 226//329 211//329 225//329
f 241//330 250//330 225//330
f 192//331 210//331 241//331
f 207//332 178//332 180//332
f 180//333 199//333 207//333
f 265//334 239//334 247//334
f 294//335 302//335 312//335
f 294//336 312//336 303//336
f 180//337 178//337 168//337
f 206//338 222//338 238//338
f 61//339 62//339 40//339
f 171//340 227//340 184//340
f 251//341 224//341 227//341
f 224//342 223//342 227//342
f 139//343 196//343 224//343
f 196//344 223//344 224//344
f 192//345 147//345 210//345
f 147//346 139//346 210//346
f 277//347 276//347 241//347
f 276//348 278//348 241//348
f 210//349 224//349 277//349
f 224//350 251//350 277//350
f 268//351 270//351 232//351
f 232//352 188//352 268//352
f 188//353 204//353 268//353
f 237//354 268//354 204//354
f 120//355 151//355 203//355
f 152//356 120//356 203//356
f 74//357 59//357 87//357
f 87//358 59//358 68//358
f 321//359 313//359 306//359
f 91//360 119//360 110//360
f 119//361 149//361 163//361
f 110//362 119//362 163//362
f 181//363 169//363 178//363
f 178//364 207//364 181//364
f 149//365 185//365 171//365
f 27//366 59//366 29//366
f 292//367 263//367 262//367
f 262//368 282//368 292//368
f 282//369 290//369 291//369
f 68//370 44//370 67//370
f 51//371 76//371 64//371
f 140//372 174//372 175//372
f 228//373 243//373 235//373
f 243//374 261//374 252//374
f 235//375 229//375 228//375
f 33//376 52//376 66//376
f 49//377 33//377 66//377
f 25//378 33//378 31//378
f 44//379 68//379 27//379
f 68//380 59//380 27//380
f 314//381 322//381 297//381
f 297//382 322//382 320//382
f 317//383 289//383 315//383
f 315//384 289//384 288//384
f 275//385 266//385 274//385
f 200//386 179//386 217//386
f 179//387 191//387 217//387
f 133//388 145//388 132//388
f 132//389 145//389 156//389
f 145//390 157//390 167//390
f 167//391 157//391 168//391
f 220//392 209//392 208//392
f 208//393 218//393 220//393
f 155//394 144//394 165//394
f 144//395 129//395 143//395
f 60//396 78//396 47//396
f 150//397 127//397 141//397
f 40//398 50//398 51//398
f 51//399 32//399 40//399
f 285//400 306//400 283//400
f 124//401 160//401 118//401
f 99//402 124//402 118//402
f 99//403 63//403 106//403
f 106//404 124//404 99//404
f 248//405 259//405 227//405
f 259//406 251//406 227//406
f 78//407 79//407 52//407
f 2//408 1//408 9//408
f 221//409 209//409 220//409
f 220//410 233//410 256//410
f 221//411 220//411 222//411
f 113//412 127//412 140//412
f 281//413 261//413 311//413
f 280//414 311//414 261//414
f 299//415 313//415 287//415
f 18//416 14//416 8//416
f 8//417 29//417 30//417
f 27//418 13//418 44//418
f 116//419 88//419 96//419
f 91//420 79//420 119//420
f 79//421 100//421 119//421
f 109//422 137//422 113//422
f 137//423 138//423 126//423
f 138//424 141//424 126//424
f 285//425 298//425 306//425
f 319//426 298//426 315//426
f 319//427 306//427 298//427
f 5//428 2//428 6//428
f 2//429 9//429 6//429
f 6//430 9//430 10//430
f 53//431 81//431 92//431
f 55//432 53//432 92//432
f 16//433 23//433 17//433
f 17//434 5//434 16//434
f 110//435 71//435 66//435
f 71//436 49//436 66//436
f 66//437 91//437 110//437
f 289//438 316//438 320//438
f 320//439 291//439 289//439
f 38//440 3//440 22//440
f 3//441 21//441 22//441
f 294//442 244//442 264//442
f 236//443 264//443 244//443
f 320//444 284//444 297//444
f 204//445 153//445 187//445
f 153//446 154//446 187//446
f 215//447 204//447 187//447
f 201//448 228//448 229//448
f 172//449 206//449 185//449
f 239//450 200//450 217//450
f 217//451 247//451 239//451
f 164//452 127//452 150//452
f 109//453 90//453 125//453
f 93//454 83//454 92//454
f 11//455 26//455 20//455
f 26//456 34//456 20//456
f 20//457 19//457 12//457
f 19//458 21//458 3//458
f 197//459 173//459 201//459
f 164//460 170//460 173//460
f 173//461 170//461 201//461
f 103//462 123//462 105//462
f 123//463 133//463 132//463
f 117//464 123//464 132//464
f 117//465 105//465 123//465
f 169//466 158//466 167//466
f 158//467 134//467 156//467
f 134//468 146//468 156//468
f 140//469 127//469 164//469
f 311//470 300//470 310//470
f 176//471 151//471 140//471
f 175//472 176//472 140//472
f 286//473 310//473 300//473
f 252//474 263//474 235//474
f 263//475 230//475 235//475
f 230//476 229//476 235//476
f 10//477 41//477 47//477
f 47//478 25//478 10//478
f 297//479 284//479 265//479
f 284//480 255//480 265//480
f 77//481 65//481 76//481
f 90//482 77//482 108//482
f 64//483 76//483 65//483
f 29//484 48//484 39//484
f 185//485 149//485 131//485
f 79//486 91//486 52//486
f 13//487 3//487 38//487
f 194//488 186//488 170//488
f 162//489 194//489 170//489
f 162//490 148//490 161//490
f 93//491 120//491 152//491
f 6//492 10//492 25//492
f 5//493 6//493 15//493
f 25//494 15//494 6//494
f 193//495 160//495 225//495
f 160//496 124//496 147//496
f 124//497 106//497 147//497
f 106//498 89//498 147//498
f 147//499 192//499 225//499
f 225//500 160//500 147//500
f 76//501 50//501 99//501
f 50//502 63//502 99//502
f 305//503 314//503 296//503
f 296//504 304//504 305//504
f 52//505 33//505 47//505
f 25//506 47//506 33//506
f 102//507 78//507 60//507
f 60//508 88//508 102//508
f 311//509 280//509 300//509
f 189//510 73//510 188//510
f 188//511 73//511 153//511
f 94//512 121//512 153//512
f 121//513 154//513 153//513
f 94//514 153//514 73//514
f 177//515 189//515 188//515
f 188//516 232//516 177//516
f 317//517 316//517 289//517
f 279//518 286//518 258//518
f 42//519 35//519 46//519
f 35//520 24//520 46//520
f 46//521 65//521 42//521
f 280//522 260//522 267//522
f 273//523 246//523 253//523
f 272//524 304//524 273//524
f 183//525 195//525 194//525
f 77//526 90//526 82//526
f 82//527 54//527 77//527
f 54//528 65//528 77//528
f 305//529 318//529 322//529
f 322//530 314//530 305//530
f 43//531 22//531 21//531
f 179//532 200//532 180//532
f 200//533 199//533 180//533
f 166//534 130//534 159//534
f 201//535 186//535 234//535
f 186//536 194//536 234//536
f 98//537 104//537 105//537
f 197//538 202//538 173//538
f 202//539 174//539 173//539
f 158//540 169//540 182//540
f 51//541 50//541 76//541
f 288//542 281//542 301//542
f 18//543 9//543 14//543
f 272//544 253//544 177//544
f 253//545 198//545 205//545
f 232//546 270//546 271//546
f 271//547 272//547 232//547
f 205//548 177//548 253//548
f 258//549 286//549 267//549
f 258//550 267//550 234//550
f 4//551 8//551 9//551
f 9//552 8//552 14//552
f 9//553 1//553 4//553
f 1//554 3//554 4//554
f 193//555 211//555 183//555
f 135//556 193//556 183//556
f 135//557 107//557 118//557
f 118//558 160//558 193//558
f 312//559 302//559 322//559
f 155//560 191//560 179//560
f 227//561 171//561 212//561
f 171//562 185//562 212//562
f 32//563 15//563 31//563
f 31//564 40//564 32//564
f 113//565 112//565 101//565
f 112//566 81//566 101//566
f 20//567 34//567 36//567
f 36//568 21//568 20//568
f 202//569 197//569 230//569
f 197//570 229//570 230//570
f 176//571 231//571 214//571
f 218//572 208//572 199//572
f 219//573 218//573 199//573
f 89//574 106//574 62//574
f 106//575 63//575 62//575
f 146//576 105//576 117//576
f 244//577 294//577 303//577
f 269//578 244//578 303//578
f 295//579 268//579 303//579
f 268//580 237//580 269//580
f 237//581 245//581 269//581
f 233//582 254//582 283//582
f 283//583 256//583 233//583
f 200//584 239//584 199//584
f 57//585 38//585 37//585
f 59//586 74//586 69//586
f 69//587 48//587 59//587
f 213//588 236//588 244//588
f 231//589 213//589 244//589
f 69//590 74//590 97//590
f 74//591 114//591 97//591
f 316//592 275//592 320//592
f 275//593 274//593 284//593
f 293//594 292//594 291//594
f 7//595 11//595 12//595
f 79//596 78//596 100//596
f 78//597 102//597 100//597
f 3//598 1//598 7//598
f 7//599 12//599 19//599
f 100//600 102//600 131//600
f 82//601 81//601 53//601
f 212//602 206//602 238//602
f 175//603 213//603 231//603
f 213//604 202//604 236//604
f 202//605 230//605 236//605
f 44//606 28//606 58//606
f 111//607 92//607 81//607
f 136//608 161//608 137//608
f 161//609 148//609 137//609
f 137//610 109//610 136//610
f 109//611 125//611 136//611
f 247//612 217//612 273//612
f 217//613 246//613 273//613
f 120//614 93//614 111//614
f 296//615 314//615 297//615
f 264//616 293//616 302//616
f 146//617 134//617 130//617
f 130//618 115//618 105//618
f 183//619 161//619 136//619
f 131//620 102//620 116//620
f 308//621 307//621 311//621
f 307//622 321//622 311//622
f 86//623 122//623 87//623
f 87//624 68//624 86//624
f 110//625 163//625 184//625
f 196//626 110//626 184//626
f 163//627 171//627 184//627
f 94//628 72//628 56//628
f 56//629 84//629 94//629
f 121//630 94//630 84//630
f 84//631 128//631 121//631
f 245//632 237//632 214//632
f 214//633 237//633 215//633
f 215//634 187//634 203//634
f 151//635 120//635 140//635
f 111//636 140//636 120//636
f 165//637 143//637 190//637
f 143//638 122//638 142//638
f 190//639 143//639 142//639
f 190//640 198//640 165//640
f 7//641 19//641 1//641
f 19//642 3//642 1//642
f 29//643 18//643 8//643
f 29//644 30//644 18//644
f 30//645 41//645 18//645
f 41//646 10//646 18//646
f 41//647 25//647 10//647
f 26//648 34//648 11//648
f 34//649 20//649 11//649
f 37//650 57//650 22//650
f 57//651 38//651 22//651
f 57//652 28//652 38//652
f 57//653 58//653 28//653
f 48//654 45//654 29//654
f 45//655 39//655 29//655
f 47//656 25//656 41//656
f 39//657 45//657 41//657
f 45//658 60//658 41//658
f 60//659 78//659 41//659
f 78//660 47//660 41//660
f 47//661 52//661 25//661
f 52//662 33//662 25//662
f 51//663 24//663 23//663
f 32//664 51//664 23//664
f 122//665 87//665 68//665
f 86//666 122//666 68//666
f 74//667 48//667 59//667
f 74//668 69//668 48//668
f 69//669 70//669 48//669
f 70//670 45//670 48//670
f 88//671 78//671 60//671
f 88//508 102//508 78//508
f 61//672 62//672 31//672
f 62//673 40//673 31//673
f 76//674 108//674 64//674
f 108//675 90//675 64//675
f 90//676 65//676 64//676
f 81//677 55//677 53//677
f 81//678 92//678 55//678
f 92//679 93//679 55//679
f 93//680 83//680 55//680
f 93//681 84//681 83//681
f 84//682 72//682 56//682
f 153//683 189//683 73//683
f 84//684 94//684 72//684
f 114//685 69//685 74//685
f 114//686 97//686 69//686
f 97//687 98//687 69//687
f 98//688 75//688 69//688
f 80//689 89//689 61//689
f 89//690 62//690 61//690
f 90//691 77//691 65//691
f 135//692 136//692 108//692
f 136//693 125//693 108//693
f 109//694 82//694 90//694
f 109//695 101//695 82//695
f 101//696 112//696 82//696
f 112//697 81//697 82//697
f 112//698 92//698 81//698
f 112//699 111//699 92//699
f 111//700 120//700 92//700
f 120//701 93//701 92//701
f 128//702 84//702 93//702
f 188//703 189//703 153//703
f 187//704 215//704 153//704
f 215//705 204//705 153//705
f 165//706 129//706 143//706
f 144//707 133//707 129//707
f 133//708 114//708 129//708
f 165//709 144//709 129//709
f 133//710 103//710 114//710
f 115//711 130//711 116//711
f 130//712 166//712 116//712
f 166//713 131//713 116//713
f 172//714 149//714 131//714
f 172//715 185//715 149//715
f 124//716 63//716 106//716
f 124//717 99//717 63//717
f 161//718 125//718 136//718
f 148//719 137//719 125//719
f 137//720 109//720 125//720
f 161//721 148//721 125//721
f 113//722 127//722 112//722
f 127//723 140//723 112//723
f 268//724 232//724 204//724
f 232//725 188//725 204//725
f 214//726 245//726 215//726
f 245//727 237//727 215//727
f 216//728 191//728 165//728
f 191//729 155//729 165//729
f 123//730 103//730 133//730
f 155//731 191//731 133//731
f 191//732 179//732 133//732
f 179//733 157//733 133//733
f 157//734 145//734 133//734
f 123//735 117//735 103//735
f 117//736 105//736 103//736
f 117//737 115//737 105//737
f 117//738 130//738 115//738
f 117//739 134//739 130//739
f 196//740 192//740 139//740
f 192//741 147//741 139//741
f 223//742 192//742 196//742
f 225//743 124//743 147//743
f 225//744 160//744 124//744
f 211//745 195//745 183//745
f 195//746 161//746 183//746
f 195//747 194//747 161//747
f 194//748 186//748 161//748
f 186//749 162//749 161//749
f 164//750 174//750 127//750
f 174//751 140//751 127//751
f 269//752 295//752 268//752
f 200//753 199//753 179//753
f 199//754 180//754 179//754
f 178//755 168//755 157//755
f 180//756 178//756 157//756
f 146//757 134//757 117//757
f 223//758 224//758 192//758
f 224//759 210//759 192//759
f 226//760 195//760 211//760
f 170//761 162//761 186//761
f 173//762 197//762 174//762
f 197//763 202//763 174//763
f 202//764 213//764 174//764
f 213//765 175//765 174//765
f 213//766 176//766 175//766
f 213//767 231//767 176//767
f 303//768 295//768 269//768
f 213//769 236//769 231//769
f 236//770 244//770 231//770
f 247//771 246//771 273//771
f 247//772 217//772 246//772
f 199//773 178//773 180//773
f 239//774 219//774 200//774
f 219//775 199//775 200//775
f 219//776 208//776 199//776
f 207//777 178//777 199//777
f 207//778 209//778 178//778
f 209//779 181//779 178//779
f 221//780 256//780 222//780
f 299//781 287//781 259//781
f 257//782 299//782 259//782
f 279//783 286//783 250//783
f 286//784 258//784 250//784
f 260//785 242//785 234//785
f 242//786 201//786 234//786
f 201//787 197//787 170//787
f 197//788 173//788 170//788
f 242//789 228//789 201//789
f 293//790 294//790 264//790
f 293//791 302//791 294//791
f 255//792 218//792 219//792
f 218//793 208//793 219//793
f 220//794 233//794 221//794
f 233//795 256//795 221//795
f 283//796 306//796 299//796
f 306//797 313//797 299//797
f 308//798 278//798 276//798
f 310//799 279//799 278//799
f 308//800 310//800 278//800
f 310//801 286//801 279//801
f 300//802 260//802 267//802
f 300//803 280//803 260//803
f 284//804 255//804 297//804
f 255//805 265//805 297//805
f 291//806 316//806 320//806
f 316//807 284//807 320//807
f 240//808 218//808 255//808
f 321//809 308//809 307//809
f 321//810 311//810 308//810
f 311//811 281//811 280//811
f 281//812 261//812 280//812
f 289//813 316//813 291//813
f 316//814 275//814 284//814
