mtllib material.mtl
usemtl material_0
v -0.51955000 0.24571000 0.08316000
v -0.51955000 0.24571000 0.08315000
v -0.51953000 0.24571000 0.08315000
v -0.51953000 0.24571000 0.08316000
v -0.05896000 -0.33686000 -0.01720000
v -0.06494000 -0.34208000 -0.01717000
v -0.05327000 -0.35315000 0.00109000
v -0.04733000 -0.34797000 0.00107000
v -0.97188000 -0.34208000 -0.01717000
v -0.97787000 -0.33686000 -0.01720000
v -0.98949000 -0.34797000 0.00107000
v -0.98355000 -0.35315000 0.00109000
v -0.10085000 -0.30034000 -0.01740000
v -0.10683000 -0.30555000 -0.01737000
v -0.06494000 -0.34208000 -0.01717000
v -0.05896000 -0.33686000 -0.01720000
v -0.06033000 -0.07200000 -0.01847000
v -0.09128000 -0.07200000 -0.01847000
v -0.06052000 -0.04069000 -0.01864000
v -0.09150000 -0.04069000 -0.01864000
v -0.10213000 -0.08152000 -0.01841000
v -0.06181000 0.22835000 -0.01983000
v -0.10226000 -0.06248000 -0.01852000
v -0.11312000 -0.07200000 -0.01847000
v -0.10235000 -0.05021000 -0.01859000
v -0.11334000 -0.04069000 -0.01864000
v -0.10248000 -0.03117000 -0.01869000
v -0.10367000 0.19183000 -0.01963000
v -0.11173000 0.20858000 -0.01972000
v -0.06985000 0.24510000 -0.01992000
v -0.13099000 0.21551000 -0.01976000
v -0.08910000 0.25203000 -0.01996000
v -0.92999000 -0.30555000 -0.01737000
v -0.97787000 -0.33686000 -0.01720000
v -0.97188000 -0.34208000 -0.01717000
v -0.93598000 -0.30034000 -0.01740000
v -0.94555000 -0.07200000 -0.01847000
v -0.93469000 -0.08152000 -0.01841000
v -0.97650000 -0.07200000 -0.01847000
v -0.92370000 -0.07200000 -0.01847000
v -0.97631000 -0.04069000 -0.01864000
v -0.93456000 -0.06248000 -0.01852000
v -0.94533000 -0.04069000 -0.01864000
v -0.93447000 -0.05021000 -0.01859000
v -0.97502000 0.22835000 -0.01983000
v -0.93434000 -0.03117000 -0.01869000
v -0.92348000 -0.04069000 -0.01864000
v -0.93315000 0.19183000 -0.01963000
v -0.96697000 0.24510000 -0.01992000
v -0.92509000 0.20858000 -0.01972000
v -0.94772000 0.25203000 -0.01996000
v -0.90583000 0.21551000 -0.01976000
v -0.10085000 -0.29975000 0.10128000
v -0.10683000 -0.30497000 0.10131000
v -0.10683000 -0.30555000 -0.01737000
v -0.10085000 -0.30034000 -0.01740000
v -0.92999000 -0.30497000 0.10131000
v -0.93598000 -0.29975000 0.10128000
v -0.93598000 -0.30034000 -0.01740000
v -0.92999000 -0.30555000 -0.01737000
v -0.13099000 0.21609000 0.09892000
v -0.11173000 0.20917000 0.09896000
v -0.11173000 0.20858000 -0.01972000
v -0.13099000 0.21551000 -0.01976000
v -0.90583000 0.21551000 -0.01976000
v -0.90583000 0.21609000 0.09892000
v -0.92509000 0.20917000 0.09896000
v -0.92509000 0.20858000 -0.01972000
v -0.11173000 0.20917000 0.09896000
v -0.10367000 0.19183000 -0.01963000
v -0.11173000 0.20858000 -0.01972000
v -0.10367000 0.19242000 0.09905000
v -0.10248000 -0.03117000 0.09999000
v -0.10248000 -0.03117000 -0.01869000
v -0.92509000 0.20858000 -0.01972000
v -0.93315000 0.19242000 0.09905000
v -0.92509000 0.20917000 0.09896000
v -0.93315000 0.19183000 -0.01963000
v -0.93434000 -0.03117000 0.09999000
v -0.93434000 -0.03117000 -0.01869000
v -0.08910000 0.25203000 -0.01996000
v -0.06985000 0.24510000 -0.01992000
v -0.05815000 0.25643000 -0.00035000
v -0.07727000 0.26331000 -0.00037000
v -0.06985000 0.24510000 -0.01992000
v -0.05017000 0.23980000 -0.00030000
v -0.05815000 0.25643000 -0.00035000
v -0.06181000 0.22835000 -0.01983000
v -0.04794000 -0.04069000 0.00029000
v -0.06052000 -0.04069000 -0.01864000
v -0.04777000 -0.07200000 0.00046000
v -0.06033000 -0.07200000 -0.01847000
v -0.95956000 0.26331000 -0.00037000
v -0.97867000 0.25643000 -0.00035000
v -0.96697000 0.24510000 -0.01992000
v -0.94772000 0.25203000 -0.01996000
v -0.97867000 0.25643000 -0.00035000
v -0.97502000 0.22835000 -0.01983000
v -0.96697000 0.24510000 -0.01992000
v -0.98666000 0.23980000 -0.00030000
v -0.98888000 -0.04069000 0.00029000
v -0.97631000 -0.04069000 -0.01864000
v -0.97650000 -0.07200000 -0.01847000
v -0.98906000 -0.07200000 0.00046000
v -0.10683000 -0.30497000 0.10131000
v -0.92999000 -0.30497000 0.10131000
v -0.92999000 -0.30555000 -0.01737000
v -0.10683000 -0.30555000 -0.01737000
v -0.11312000 -0.07200000 -0.01847000
v -0.92370000 -0.07200000 -0.01847000
v -0.92371000 -0.07200000 0.10022000
v -0.11312000 -0.07200000 0.10022000
v -0.92348000 -0.04069000 -0.01864000
v -0.11334000 -0.04069000 -0.01864000
v -0.11334000 -0.04069000 0.10004000
v -0.92349000 -0.04069000 0.10004000
v -0.11334000 -0.04069000 0.10004000
v -0.10248000 -0.03117000 0.09999000
v -0.10367000 0.19242000 0.09905000
v -0.11173000 0.20917000 0.09896000
v -0.13099000 0.21609000 0.09892000
v -0.92349000 -0.04069000 0.10004000
v -0.90583000 0.21609000 0.09892000
v -0.92509000 0.20917000 0.09896000
v -0.93434000 -0.03117000 0.09999000
v -0.93315000 0.19242000 0.09905000
v -0.10683000 -0.30497000 0.10131000
v -0.10085000 -0.29975000 0.10128000
v -0.10213000 -0.08152000 0.10027000
v -0.11312000 -0.07200000 0.10022000
v -0.92999000 -0.30497000 0.10131000
v -0.92371000 -0.07200000 0.10022000
v -0.93470000 -0.08152000 0.10027000
v -0.93598000 -0.29975000 0.10128000
v -0.93598000 -0.29975000 0.10128000
v -0.93470000 -0.08152000 0.10027000
v -0.93469000 -0.08152000 -0.01841000
v -0.93598000 -0.30034000 -0.01740000
v -0.10213000 -0.08152000 0.10027000
v -0.10085000 -0.29975000 0.10128000
v -0.10085000 -0.30034000 -0.01740000
v -0.10213000 -0.08152000 -0.01841000
v -0.10213000 -0.08152000 -0.01841000
v -0.11312000 -0.07200000 -0.01847000
v -0.11312000 -0.07200000 0.10022000
v -0.10213000 -0.08152000 0.10027000
v -0.10248000 -0.03117000 0.09999000
v -0.11334000 -0.04069000 0.10004000
v -0.11334000 -0.04069000 -0.01864000
v -0.10248000 -0.03117000 -0.01869000
v -0.93470000 -0.08152000 0.10027000
v -0.92371000 -0.07200000 0.10022000
v -0.92370000 -0.07200000 -0.01847000
v -0.93469000 -0.08152000 -0.01841000
v -0.93434000 -0.03117000 -0.01869000
v -0.92348000 -0.04069000 -0.01864000
v -0.92349000 -0.04069000 0.10004000
v -0.93434000 -0.03117000 0.09999000
vn 0.00000000 1.00000000 0.00000000
vn 0.00000000 1.00000000 0.00000000
vn 0.00000000 1.00000000 0.00000000
vn 0.00000000 1.00000000 0.00000000
vn 0.83451040 -0.01328960 -0.55083190
vn 0.00350354 -0.85403350 -0.52020630
vn 0.00727035 -0.85294440 -0.52195110
vn 0.83154240 -0.02346367 -0.55496550
vn -0.00350356 -0.85403340 -0.52020640
vn -0.83450400 -0.01328954 -0.55084150
vn -0.83153620 -0.02346306 -0.55497470
vn -0.00727053 -0.85294430 -0.52195130
vn 0.00026250 -0.00474627 -0.99998870
vn 0.00000011 -0.00551424 -0.99998490
vn 0.00000042 -0.00551424 -0.99998490
vn 0.00025312 -0.00477516 -0.99998860
vn 0.00024212 -0.00480742 -0.99998840
vn 0.00023929 -0.00481565 -0.99998840
vn -0.00033615 -0.00447367 -0.99999000
vn -0.00033297 -0.00448346 -0.99998990
vn 0.00026637 -0.00473369 -0.99998880
vn -0.00031465 -0.00454658 -0.99998960
vn 0.00000000 -0.00553681 -0.99998470
vn 0.00000000 -0.00553675 -0.99998470
vn 0.00000000 -0.00553681 -0.99998470
vn 0.00000000 -0.00553675 -0.99998470
vn -0.00036970 -0.00436704 -0.99999050
vn -0.00035679 -0.00440976 -0.99999020
vn 0.00000393 -0.00554466 -0.99998460
vn 0.00000063 -0.00553950 -0.99998470
vn 0.00000036 -0.00554817 -0.99998460
vn 0.00000205 -0.00555014 -0.99998460
vn -0.00000011 -0.00551424 -0.99998490
vn -0.00025300 -0.00477517 -0.99998860
vn -0.00000042 -0.00551424 -0.99998490
vn -0.00026238 -0.00474627 -0.99998870
vn -0.00023916 -0.00481566 -0.99998840
vn -0.00026626 -0.00473370 -0.99998880
vn -0.00024197 -0.00480743 -0.99998840
vn 0.00000000 -0.00553675 -0.99998470
vn 0.00033618 -0.00447367 -0.99999000
vn 0.00000000 -0.00553681 -0.99998470
vn 0.00033300 -0.00448346 -0.99998990
vn 0.00000000 -0.00553681 -0.99998470
vn 0.00030920 -0.00455008 -0.99998960
vn 0.00036970 -0.00436704 -0.99999050
vn 0.00000000 -0.00553675 -0.99998470
vn 0.00035514 -0.00441082 -0.99999020
vn -0.00001087 -0.00553405 -0.99998470
vn -0.00001020 -0.00553450 -0.99998470
vn -0.00000053 -0.00554684 -0.99998460
vn 0.00000000 -0.00554763 -0.99998460
vn -0.65718140 0.75372330 -0.00372726
vn -0.00629061 0.99996790 -0.00495004
vn -0.00629409 0.99996790 -0.00495004
vn -0.65718140 0.75372330 -0.00372726
vn 0.00629060 0.99996790 -0.00495005
vn 0.65712480 0.75377260 -0.00372856
vn 0.65712480 0.75377260 -0.00372856
vn 0.00629407 0.99996790 -0.00495005
vn -0.00872271 -0.99994970 0.00494967
vn -0.65497950 -0.75563750 0.00373994
vn -0.65483590 -0.75576170 0.00374056
vn -0.00872017 -0.99994980 0.00494968
vn 0.00872044 -0.99994970 0.00494967
vn 0.00872265 -0.99994970 0.00494967
vn 0.65497110 -0.75564470 0.00374059
vn 0.65482720 -0.75576930 0.00374120
vn -0.65497950 -0.75563750 0.00373994
vn -0.99925820 -0.03850989 0.00019266
vn -0.65483590 -0.75576170 0.00374056
vn -0.99925790 -0.03851943 0.00019271
vn -0.99998580 -0.00533556 0.00002863
vn -0.99998580 -0.00533556 0.00002863
vn 0.65482720 -0.75576930 0.00374120
vn 0.99925800 -0.03851583 0.00019521
vn 0.65497110 -0.75564470 0.00374059
vn 0.99925820 -0.03850738 0.00019517
vn 0.99998580 -0.00533137 0.00003120
vn 0.99998580 -0.00533138 0.00003120
vn 0.00422422 0.86552800 -0.50084280
vn 0.49997670 0.58568360 -0.63796400
vn 0.51288850 0.57358460 -0.63870650
vn 0.01131512 0.86361180 -0.50403030
vn 0.49997670 0.58568360 -0.63796400
vn 0.83671050 0.03924334 -0.54623750
vn 0.51288850 0.57358460 -0.63870650
vn 0.84187420 0.01953648 -0.53932010
vn 0.84446220 0.00348647 -0.53560370
vn 0.84448280 0.00348952 -0.53557130
vn 0.83790520 0.00100274 -0.54581490
vn 0.83789690 0.00100414 -0.54582760
vn -0.01131503 0.86361160 -0.50403060
vn -0.51288310 0.57358760 -0.63870820
vn -0.49997120 0.58568640 -0.63796570
vn -0.00422418 0.86552790 -0.50084290
vn -0.51288310 0.57358760 -0.63870820
vn -0.84187980 0.01953639 -0.53931130
vn -0.49997120 0.58568640 -0.63796570
vn -0.83671570 0.03924457 -0.54622940
vn -0.84446770 0.00348580 -0.53559520
vn -0.84448830 0.00348884 -0.53556280
vn -0.83789150 0.00100515 -0.54583580
vn -0.83789970 0.00100375 -0.54582330
vn -0.00629061 0.99996790 -0.00495004
vn 0.00629060 0.99996790 -0.00495005
vn 0.00629407 0.99996790 -0.00495005
vn -0.00629409 0.99996790 -0.00495004
vn -0.01156311 -0.99993310 -0.00000063
vn 0.01156306 -0.99993310 -0.00000060
vn 0.01161653 -0.99993250 -0.00000059
vn -0.01161645 -0.99993250 -0.00000063
vn 0.01162379 0.99993240 0.00000046
vn -0.01162391 0.99993240 0.00000035
vn -0.01157112 0.99993310 0.00000034
vn 0.01157126 0.99993310 0.00000045
vn 0.00000000 -0.00438010 -0.99999050
vn 0.00000000 -0.00438010 -0.99999050
vn 0.00000000 -0.00438010 -0.99999050
vn 0.00000000 -0.00438010 -0.99999050
vn 0.00000000 -0.00438010 -0.99999050
vn 0.00000000 -0.00438010 -0.99999050
vn 0.00000000 -0.00438010 -0.99999050
vn 0.00000000 -0.00438010 -0.99999050
vn 0.00000000 -0.00438010 -0.99999050
vn 0.00000000 -0.00438010 -0.99999050
vn 0.00000000 -0.00467846 -0.99998900
vn 0.00000000 -0.00467846 -0.99998900
vn 0.00000000 -0.00467846 -0.99998900
vn 0.00000000 -0.00467846 -0.99998900
vn 0.00000000 -0.00467846 -0.99998900
vn 0.00000000 -0.00467846 -0.99998900
vn 0.00000000 -0.00467846 -0.99998900
vn 0.00000000 -0.00467846 -0.99998900
vn 0.99998280 -0.00586519 0.00002992
vn 0.99998280 -0.00586519 0.00002992
vn 0.99998280 -0.00586519 0.00002992
vn 0.99998280 -0.00586519 0.00002992
vn -0.99998280 -0.00586098 0.00003249
vn -0.99998280 -0.00586098 0.00003249
vn -0.99998280 -0.00586098 0.00003249
vn -0.99998280 -0.00586098 0.00003249
vn -0.65487880 -0.75573390 0.00002122
vn -0.01156311 -0.99993310 -0.00000063
vn -0.01161645 -0.99993250 -0.00000063
vn -0.65487880 -0.75573390 0.00002122
vn -0.65945850 0.75174090 0.00001959
vn -0.01157112 0.99993310 0.00000034
vn -0.01162391 0.99993240 0.00000035
vn -0.65945850 0.75174090 0.00001959
vn 0.65491050 -0.75570650 0.00002299
vn 0.01161653 -0.99993250 -0.00000059
vn 0.01156306 -0.99993310 -0.00000060
vn 0.65491050 -0.75570650 0.00002299
vn 0.65949020 0.75171320 0.00002582
vn 0.01162379 0.99993240 0.00000046
vn 0.01157126 0.99993310 0.00000045
vn 0.65949020 0.75171310 0.00002582
vt -87.24345000 -112.29950000
vt -87.24342000 -112.29950000
vt -87.24342000 -112.29960000
vt -87.24345000 -112.29960000
vt -90.22213000 0.01215780
vt -90.20839000 0.02793324
vt -90.17919000 -0.00282252
vt -90.19283000 -0.01848662
vt -90.20839000 2.41859100
vt -90.22213000 2.43436600
vt -90.19283000 2.46501200
vt -90.17919000 2.44934700
vt -90.31843000 0.12258200
vt -90.30466000 0.13835570
vt -90.20839000 0.02793324
vt -90.22213000 0.01215780
vt -90.92029000 0.01577318
vt -90.92029000 0.09735286
vt -91.00282000 0.01626825
vt -91.00282000 0.09793258
vt -90.89520000 0.12596360
vt -91.71204000 0.01967204
vt -90.94541000 0.12631630
vt -90.92029000 0.15492960
vt -90.97772000 0.12654390
vt -91.00282000 0.15550950
vt -91.02794000 0.12689570
vt -91.61574000 0.13003150
vt -91.65990000 0.15127900
vt -91.75616000 0.04087865
vt -91.67814000 0.20204620
vt -91.77443000 0.09162450
vt -90.30466000 2.30816800
vt -90.22213000 2.43436600
vt -90.20839000 2.41859100
vt -90.31843000 2.32394500
vt -90.92029000 2.34917400
vt -90.89520000 2.32056000
vt -90.92029000 2.43075100
vt -90.92029000 2.29159600
vt -91.00282000 2.43025600
vt -90.94541000 2.32020800
vt -91.00282000 2.34859300
vt -90.97772000 2.31998000
vt -91.71204000 2.42685300
vt -91.02794000 2.31962800
vt -91.00282000 2.29101600
vt -91.61574000 2.31649500
vt -91.75616000 2.40564600
vt -91.65990000 2.29524600
vt -91.77443000 2.35490000
vt -91.67814000 2.24447700
vt -90.43671000 1.23802900
vt -90.43661000 1.22491000
vt -90.73509000 1.22343300
vt -90.73516000 1.23655500
vt -90.81634000 1.22689500
vt -90.81624000 1.24001400
vt -90.51779000 1.23854000
vt -90.51785000 1.22541700
vt -90.20240000 0.22418040
vt -90.20231000 0.17645930
vt -90.49636000 0.17645930
vt -90.49648000 0.22418040
vt -90.49648000 2.14408700
vt -90.20240000 2.14408900
vt -90.20231000 2.19181100
vt -90.49636000 2.19181100
vt -90.28281000 1.83533300
vt -90.58018000 1.79185900
vt -90.58040000 1.83386000
vt -90.28256000 1.79333300
vt -90.28024000 1.23269000
vt -90.57781000 1.23269000
vt -90.35857000 1.83385900
vt -90.65639000 1.79333200
vt -90.65614000 1.83533200
vt -90.35880000 1.79185800
vt -90.65872000 1.23269100
vt -90.36115000 1.23269100
vt -90.75897000 0.07235730
vt -90.75910000 0.02104235
vt -90.81125000 -0.01014459
vt -90.81122000 0.04080486
vt -91.75616000 0.04087865
vt -91.74219000 -0.01100707
vt -91.78602000 0.01003718
vt -91.71204000 0.01967204
vt -91.00282000 -0.01686621
vt -91.00282000 0.01626825
vt -90.92029000 -0.01734102
vt -90.92029000 0.01577318
vt -90.81122000 2.39257100
vt -90.81125000 2.44352100
vt -90.75910000 2.41233300
vt -90.75897000 2.36101900
vt -91.78602000 2.43648600
vt -91.71204000 2.42685300
vt -91.75616000 2.40564600
vt -91.74219000 2.45753200
vt -91.00282000 2.46339100
vt -91.00282000 2.43025600
vt -90.92029000 2.43075100
vt -90.92029000 2.46386400
vt -90.57443000 0.16873190
vt -90.57443000 2.20549500
vt -90.28081000 2.20549500
vt -90.28081000 0.16873190
vt -90.42110000 0.67839770
vt -90.42110000 2.68392400
vt -90.12746000 2.68393400
vt -90.12746000 0.67838790
vt -90.20525000 2.68921200
vt -90.20525000 0.68475390
vt -90.49891000 0.68474420
vt -90.49891000 2.68922300
vt -90.22987000 0.18750790
vt -90.25346000 0.16065010
vt -90.80665000 0.16360280
vt -90.84810000 0.18354680
vt -90.86522000 0.23119940
vt -90.22987000 2.19200900
vt -90.86522000 2.14831500
vt -90.84810000 2.19596800
vt -90.25346000 2.21886400
vt -90.80665000 2.21591400
vt -90.41389000 0.17239810
vt -90.42680000 0.15759160
vt -90.96675000 0.16075550
vt -90.99031000 0.18794510
vt -90.41389000 2.20909900
vt -90.99031000 2.19355300
vt -90.96675000 2.22074200
vt -90.42680000 2.22390700
vt -90.81624000 1.24001400
vt -90.81371000 1.78884400
vt -90.51523000 1.78884400
vt -90.51779000 1.23854000
vt -90.43923000 1.78686000
vt -90.43671000 1.23802900
vt -90.73516000 1.23655500
vt -90.73772000 1.78686000
vt -90.73772000 1.78686000
vt -90.73784000 1.81080800
vt -90.43936000 1.81080800
vt -90.43923000 1.78686000
vt -90.28024000 1.23269000
vt -90.28008000 1.20881200
vt -90.57769000 1.20881200
vt -90.57781000 1.23269000
vt -90.81371000 1.78884400
vt -90.81358000 1.81279300
vt -90.51510000 1.81279300
vt -90.51523000 1.78884400
vt -90.36115000 1.23269100
vt -90.36128000 1.20881300
vt -90.65888000 1.20881300
vt -90.65872000 1.23269100
f 3/3/3 2/2/2 1/1/1
f 4/4/4 3/3/3 1/1/1
f 7/7/7 6/6/6 5/5/5
f 8/8/8 7/7/7 5/5/5
f 11/11/11 10/10/10 9/9/9
f 12/12/12 11/11/11 9/9/9
f 15/15/15 14/14/14 13/13/13
f 16/16/16 15/15/15 13/13/13
f 17/17/17 16/16/16 13/13/13
f 13/13/13 18/18/18 17/17/17
f 19/19/19 17/17/17 18/18/18
f 18/18/18 20/20/20 19/19/19
f 13/13/13 21/21/21 18/18/18
f 22/22/22 19/19/19 20/20/20
f 23/23/23 18/18/18 21/21/21
f 18/18/18 23/23/23 20/20/20
f 24/24/24 23/23/23 21/21/21
f 23/23/23 25/25/25 20/20/20
f 25/25/25 26/26/26 20/20/20
f 26/26/26 27/27/27 20/20/20
f 20/20/20 27/27/27 28/28/28
f 20/20/20 28/28/28 22/22/22
f 22/22/22 28/28/28 29/29/29
f 30/30/30 22/22/22 29/29/29
f 30/30/30 29/29/29 31/31/31
f 32/32/32 30/30/30 31/31/31
f 35/35/35 34/34/34 33/33/33
f 34/34/34 36/36/36 33/33/33
f 36/36/36 34/34/34 37/37/37
f 37/37/37 38/38/38 36/36/36
f 34/34/34 39/39/39 37/37/37
f 40/40/40 38/38/38 37/37/37
f 37/37/37 39/39/39 41/41/41
f 42/42/42 40/40/40 37/37/37
f 37/37/37 41/41/41 43/43/43
f 42/42/42 37/37/37 43/43/43
f 43/43/43 44/44/44 42/42/42
f 43/43/43 41/41/41 45/45/45
f 44/44/44 43/43/43 46/46/46
f 46/46/46 43/43/43 45/45/45
f 47/47/47 44/44/44 46/46/46
f 45/45/45 48/48/48 46/46/46
f 48/48/48 45/45/45 49/49/49
f 50/50/50 48/48/48 49/49/49
f 50/50/50 49/49/49 51/51/51
f 52/52/52 50/50/50 51/51/51
f 55/55/55 54/54/54 53/53/53
f 56/56/56 55/55/55 53/53/53
f 59/59/59 58/58/58 57/57/57
f 60/60/60 59/59/59 57/57/57
f 63/63/63 62/62/62 61/61/61
f 64/64/64 63/63/63 61/61/61
f 65/65/65 64/64/64 61/61/61
f 66/66/66 65/65/65 61/61/61
f 66/66/66 67/67/67 65/65/65
f 67/67/67 68/68/68 65/65/65
f 71/71/71 70/70/70 69/69/69
f 70/70/70 72/72/72 69/69/69
f 73/73/73 72/72/72 70/70/70
f 74/74/74 73/73/73 70/70/70
f 77/77/77 76/76/76 75/75/75
f 76/76/76 78/78/78 75/75/75
f 76/76/76 79/79/79 78/78/78
f 79/79/79 80/80/80 78/78/78
f 83/83/83 82/82/82 81/81/81
f 84/84/84 83/83/83 81/81/81
f 87/87/87 86/86/86 85/85/85
f 86/86/86 88/88/88 85/85/85
f 88/88/88 86/86/86 89/89/89
f 90/90/90 88/88/88 89/89/89
f 89/89/89 91/91/91 90/90/90
f 91/91/91 92/92/92 90/90/90
f 92/92/92 91/91/91 8/8/8
f 5/5/5 92/92/92 8/8/8
f 95/95/95 94/94/94 93/93/93
f 96/96/96 95/95/95 93/93/93
f 99/99/99 98/98/98 97/97/97
f 98/98/98 100/100/100 97/97/97
f 101/101/101 100/100/100 98/98/98
f 102/102/102 101/101/101 98/98/98
f 101/101/101 102/102/102 103/103/103
f 104/104/104 101/101/101 103/103/103
f 11/11/11 104/104/104 103/103/103
f 10/10/10 11/11/11 103/103/103
f 52/52/52 51/51/51 32/32/32
f 31/31/31 52/52/52 32/32/32
f 96/96/96 93/93/93 84/84/84
f 81/81/81 96/96/96 84/84/84
f 9/9/9 6/6/6 7/7/7
f 12/12/12 9/9/9 7/7/7
f 33/33/33 14/14/14 15/15/15
f 35/35/35 33/33/33 15/15/15
f 107/107/107 106/106/106 105/105/105
f 108/108/108 107/107/107 105/105/105
f 25/25/25 23/23/23 24/24/24
f 24/24/24 26/26/26 25/25/25
f 24/24/24 40/40/40 26/26/26
f 40/40/40 47/47/47 26/26/26
f 40/40/40 44/44/44 47/47/47
f 40/40/40 42/42/42 44/44/44
f 111/111/111 110/110/110 109/109/109
f 112/112/112 111/111/111 109/109/109
f 115/115/115 114/114/114 113/113/113
f 116/116/116 115/115/115 113/113/113
f 119/119/119 118/118/118 117/117/117
f 117/117/117 120/120/120 119/119/119
f 117/117/117 121/121/121 120/120/120
f 117/117/117 122/122/122 121/121/121
f 122/122/122 123/123/123 121/121/121
f 122/122/122 124/124/124 123/123/123
f 122/122/122 125/125/125 124/124/124
f 125/125/125 126/126/126 124/124/124
f 129/129/129 128/128/128 127/127/127
f 127/127/127 130/130/130 129/129/129
f 127/127/127 131/131/131 130/130/130
f 131/131/131 132/132/132 130/130/130
f 131/131/131 133/133/133 132/132/132
f 131/131/131 134/134/134 133/133/133
f 137/137/137 136/136/136 135/135/135
f 138/138/138 137/137/137 135/135/135
f 141/141/141 140/140/140 139/139/139
f 142/142/142 141/141/141 139/139/139
f 145/145/145 144/144/144 143/143/143
f 146/146/146 145/145/145 143/143/143
f 149/149/149 148/148/148 147/147/147
f 150/150/150 149/149/149 147/147/147
f 153/153/153 152/152/152 151/151/151
f 154/154/154 153/153/153 151/151/151
f 157/157/157 156/156/156 155/155/155
f 158/158/158 157/157/157 155/155/155

