mtllib material.mtl
usemtl material_0
v -0.51955000 0.24571000 0.08316000
v -0.51955000 0.24571000 0.08315000
v -0.51953000 0.24571000 0.08315000
v -0.51953000 0.24571000 0.08316000
v -0.11169000 -0.03521000 -0.06227000
v -0.10758000 0.05350000 -0.05054000
v -0.11169000 0.05350000 -0.06227000
v -0.10758000 -0.03521000 -0.05054000
v -0.10758000 0.05350000 0.10540000
v -0.10758000 -0.03521000 0.10540000
v -0.92484000 0.05350000 -0.06227000
v -0.92894000 -0.03521000 -0.05054000
v -0.92484000 -0.03521000 -0.06227000
v -0.92894000 0.05350000 -0.05054000
v -0.92894000 -0.03521000 0.10540000
v -0.92894000 0.05350000 0.10540000
v -0.12368000 -0.03521000 0.10540000
v -0.12368000 0.05350000 0.10540000
v -0.10758000 0.05350000 0.10540000
v -0.10758000 -0.03521000 0.10540000
v -0.91252000 0.05350000 -0.06640000
v -0.92894000 0.05350000 -0.05054000
v -0.92484000 0.05350000 -0.06227000
v -0.91252000 0.05350000 -0.05054000
v -0.92894000 0.05350000 0.10540000
v -0.91252000 0.05350000 0.10540000
v -0.12368000 0.05350000 -0.06640000
v -0.12368000 0.05350000 -0.05054000
v -0.11169000 0.05350000 -0.06227000
v -0.10758000 0.05350000 -0.05054000
v -0.12368000 0.05350000 0.10540000
v -0.10758000 0.05350000 0.10540000
v -0.91252000 -0.03521000 -0.06640000
v -0.92484000 0.05350000 -0.06227000
v -0.92484000 -0.03521000 -0.06227000
v -0.91252000 0.05350000 -0.06640000
v -0.12368000 -0.03521000 -0.06640000
v -0.12368000 0.05350000 -0.06640000
v -0.11169000 -0.03521000 -0.06227000
v -0.11169000 0.05350000 -0.06227000
v -0.91252000 -0.03521000 -0.05054000
v -0.91252000 0.05350000 -0.05054000
v -0.12368000 0.05350000 -0.05054000
v -0.12368000 -0.03521000 -0.05054000
v -0.91252000 0.05350000 0.10540000
v -0.91252000 -0.03521000 0.10540000
v -0.92894000 -0.03521000 0.10540000
v -0.92894000 0.05350000 0.10540000
v -0.12368000 -0.03521000 -0.06640000
v -0.10758000 -0.03521000 -0.05054000
v -0.11169000 -0.03521000 -0.06227000
v -0.12368000 -0.03521000 -0.05054000
v -0.10758000 -0.03521000 0.10540000
v -0.12368000 -0.03521000 0.10540000
v -0.91252000 -0.03521000 -0.06640000
v -0.91252000 -0.03521000 -0.05054000
v -0.92484000 -0.03521000 -0.06227000
v -0.92894000 -0.03521000 -0.05054000
v -0.91252000 -0.03521000 0.10540000
v -0.92894000 -0.03521000 0.10540000
v -0.12368000 0.05350000 -0.05054000
v -0.12368000 0.05350000 0.10540000
v -0.12368000 -0.03521000 0.10540000
v -0.12368000 -0.03521000 -0.05054000
v -0.91252000 -0.03521000 -0.05054000
v -0.91252000 -0.03521000 0.10540000
v -0.91252000 0.05350000 0.10540000
v -0.91252000 0.05350000 -0.05054000
v -0.11169000 -0.30221000 -0.06227000
v -0.10758000 -0.21351000 -0.05054000
v -0.11169000 -0.21351000 -0.06227000
v -0.10758000 -0.30221000 -0.05054000
v -0.10758000 -0.21351000 0.10540000
v -0.10758000 -0.30221000 0.10540000
v -0.92484000 -0.21351000 -0.06227000
v -0.92894000 -0.30221000 -0.05054000
v -0.92484000 -0.30221000 -0.06227000
v -0.92894000 -0.21351000 -0.05054000
v -0.92894000 -0.30221000 0.10540000
v -0.92894000 -0.21351000 0.10540000
v -0.12368000 -0.30221000 0.10540000
v -0.12368000 -0.21351000 0.10540000
v -0.10758000 -0.21351000 0.10540000
v -0.10758000 -0.30221000 0.10540000
v -0.91252000 -0.21351000 -0.06640000
v -0.92894000 -0.21351000 -0.05054000
v -0.92484000 -0.21351000 -0.06227000
v -0.91252000 -0.21351000 -0.05054000
v -0.92894000 -0.21351000 0.10540000
v -0.91252000 -0.21351000 0.10540000
v -0.12368000 -0.21351000 -0.06640000
v -0.12368000 -0.21351000 -0.05054000
v -0.11169000 -0.21351000 -0.06227000
v -0.10758000 -0.21351000 -0.05054000
v -0.12368000 -0.21351000 0.10540000
v -0.10758000 -0.21351000 0.10540000
v -0.91252000 -0.30221000 -0.06640000
v -0.92484000 -0.21351000 -0.06227000
v -0.92484000 -0.30221000 -0.06227000
v -0.91252000 -0.21351000 -0.06640000
v -0.12368000 -0.30221000 -0.06640000
v -0.12368000 -0.21351000 -0.06640000
v -0.11169000 -0.30221000 -0.06227000
v -0.11169000 -0.21351000 -0.06227000
v -0.91252000 -0.30221000 -0.05054000
v -0.91252000 -0.21351000 -0.05054000
v -0.12368000 -0.21351000 -0.05054000
v -0.12368000 -0.30221000 -0.05054000
v -0.91252000 -0.21351000 0.10540000
v -0.91252000 -0.30221000 0.10540000
v -0.92894000 -0.30221000 0.10540000
v -0.92894000 -0.21351000 0.10540000
v -0.12368000 -0.30221000 -0.06640000
v -0.10758000 -0.30221000 -0.05054000
v -0.11169000 -0.30221000 -0.06227000
v -0.12368000 -0.30221000 -0.05054000
v -0.10758000 -0.30221000 0.10540000
v -0.12368000 -0.30221000 0.10540000
v -0.91252000 -0.30221000 -0.06640000
v -0.91252000 -0.30221000 -0.05054000
v -0.92484000 -0.30221000 -0.06227000
v -0.92894000 -0.30221000 -0.05054000
v -0.91252000 -0.30221000 0.10540000
v -0.92894000 -0.30221000 0.10540000
v -0.12368000 -0.21351000 -0.05054000
v -0.12368000 -0.21351000 0.10540000
v -0.12368000 -0.30221000 0.10540000
v -0.12368000 -0.30221000 -0.05054000
v -0.91252000 -0.30221000 -0.05054000
v -0.91252000 -0.30221000 0.10540000
v -0.91252000 -0.21351000 0.10540000
v -0.91252000 -0.21351000 -0.05054000
vn 0.00000000 1.00000000 0.00000000
vn 0.00000000 1.00000000 0.00000000
vn 0.00000000 1.00000000 0.00000000
vn 0.00000000 1.00000000 0.00000000
vn 0.94383240 0.00000000 -0.33042440
vn 0.99970020 0.00000000 -0.02448390
vn 0.94383240 0.00000000 -0.33042440
vn 0.99970020 0.00000000 -0.02448390
vn 1.00000000 0.00000000 0.00000000
vn 1.00000000 0.00000000 0.00000000
vn -0.94381710 0.00000000 -0.33046820
vn -0.99970020 0.00000000 -0.02448754
vn -0.94381710 0.00000000 -0.33046820
vn -0.99970020 0.00000000 -0.02448754
vn -1.00000000 0.00000000 0.00000000
vn -1.00000000 0.00000000 0.00000000
vn 0.00000000 0.00000000 1.00000000
vn 0.00000000 0.00000000 1.00000000
vn 0.00000000 0.00000000 1.00000000
vn 0.00000000 0.00000000 1.00000000
vn 0.00000000 1.00000000 0.00000000
vn 0.00000000 1.00000000 0.00000000
vn 0.00000000 1.00000000 0.00000000
vn 0.00000000 1.00000000 0.00000000
vn 0.00000000 1.00000000 0.00000000
vn 0.00000000 1.00000000 0.00000000
vn 0.00000000 1.00000000 0.00000000
vn 0.00000000 1.00000000 0.00000010
vn 0.00000000 1.00000000 0.00000805
vn 0.00000000 1.00000000 0.00000045
vn 0.00000000 1.00000000 0.00000000
vn 0.00000000 1.00000000 0.00000000
vn -0.00516671 0.00000000 -0.99998660
vn -0.31849600 0.00000000 -0.94792420
vn -0.31849600 0.00000000 -0.94792420
vn -0.00516671 0.00000000 -0.99998660
vn 0.00516883 0.00000000 -0.99998660
vn 0.00516883 0.00000000 -0.99998660
vn 0.32628520 0.00000000 -0.94527140
vn 0.32628520 0.00000000 -0.94527140
vn 0.00000000 0.00000000 1.00000000
vn 0.00000000 0.00000000 1.00000000
vn 0.00000000 0.00000000 1.00000000
vn 0.00000000 0.00000000 1.00000000
vn 0.00000000 0.00000000 1.00000000
vn 0.00000000 0.00000000 1.00000000
vn 0.00000000 0.00000000 1.00000000
vn 0.00000000 0.00000000 1.00000000
vn 0.00000000 -1.00000000 0.00000000
vn 0.00000000 -1.00000000 0.00000000
vn 0.00000000 -1.00000000 0.00000000
vn 0.00000000 -1.00000000 0.00000000
vn 0.00000000 -1.00000000 0.00000000
vn 0.00000000 -1.00000000 0.00000000
vn 0.00000000 -1.00000000 0.00000000
vn 0.00000000 -1.00000000 0.00000000
vn 0.00000000 -1.00000000 -0.00000786
vn 0.00000000 -1.00000000 -0.00000044
vn 0.00000000 -1.00000000 0.00000000
vn 0.00000000 -1.00000000 0.00000000
vn -1.00000000 0.00000000 0.00000000
vn -1.00000000 0.00000000 0.00000000
vn -1.00000000 0.00000000 0.00000000
vn -1.00000000 0.00000000 0.00000000
vn 1.00000000 0.00000000 0.00000000
vn 1.00000000 0.00000000 0.00000000
vn 1.00000000 0.00000000 0.00000000
vn 1.00000000 0.00000000 0.00000000
vn 0.94383230 0.00000000 -0.33042480
vn 0.99970020 0.00000000 -0.02448393
vn 0.94383230 0.00000000 -0.33042480
vn 0.99970020 0.00000000 -0.02448393
vn 1.00000000 0.00000000 0.00000000
vn 1.00000000 0.00000000 0.00000000
vn -0.94381700 0.00000000 -0.33046850
vn -0.99970020 0.00000000 -0.02448757
vn -0.94381700 0.00000000 -0.33046850
vn -0.99970020 0.00000000 -0.02448757
vn -1.00000000 0.00000000 0.00000000
vn -1.00000000 0.00000000 0.00000000
vn 0.00000000 0.00000000 1.00000000
vn 0.00000000 0.00000000 1.00000000
vn 0.00000000 0.00000000 1.00000000
vn 0.00000000 0.00000000 1.00000000
vn 0.00000000 1.00000000 0.00000000
vn 0.00000000 1.00000000 0.00000000
vn 0.00000000 1.00000000 0.00000000
vn 0.00000000 1.00000000 0.00000000
vn 0.00000000 1.00000000 0.00000000
vn 0.00000000 1.00000000 0.00000000
vn 0.00000000 1.00000000 0.00000000
vn 0.00000000 1.00000000 0.00000000
vn 0.00000000 1.00000000 0.00000000
vn 0.00000000 1.00000000 0.00000000
vn 0.00000000 1.00000000 0.00000000
vn 0.00000000 1.00000000 0.00000000
vn -0.00516671 0.00000000 -0.99998660
vn -0.31849560 0.00000000 -0.94792430
vn -0.31849560 0.00000000 -0.94792430
vn -0.00516671 0.00000000 -0.99998660
vn 0.00516883 0.00000000 -0.99998660
vn 0.00516883 0.00000000 -0.99998660
vn 0.32628480 0.00000000 -0.94527160
vn 0.32628480 0.00000000 -0.94527160
vn 0.00000000 0.00000000 1.00000000
vn 0.00000000 0.00000000 1.00000000
vn 0.00000000 0.00000000 1.00000000
vn 0.00000000 0.00000000 1.00000000
vn 0.00000000 0.00000000 1.00000000
vn 0.00000000 0.00000000 1.00000000
vn 0.00000000 0.00000000 1.00000000
vn 0.00000000 0.00000000 1.00000000
vn 0.00000000 -1.00000000 0.00000000
vn 0.00000000 -1.00000000 0.00000000
vn 0.00000000 -1.00000000 0.00000000
vn 0.00000000 -1.00000000 0.00000000
vn 0.00000000 -1.00000000 0.00000000
vn 0.00000000 -1.00000000 0.00000000
vn 0.00000000 -1.00000000 0.00000000
vn 0.00000000 -1.00000000 0.00000000
vn 0.00000000 -1.00000000 0.00000000
vn 0.00000000 -1.00000000 0.00000000
vn 0.00000000 -1.00000000 0.00000000
vn 0.00000000 -1.00000000 0.00000000
vn -1.00000000 0.00000000 0.00000000
vn -1.00000000 0.00000000 0.00000000
vn -1.00000000 0.00000000 0.00000000
vn -1.00000000 0.00000000 0.00000000
vn 1.00000000 0.00000000 0.00000000
vn 1.00000000 0.00000000 0.00000000
vn 1.00000000 0.00000000 0.00000000
vn 1.00000000 0.00000000 0.00000000
vt -69.08303000 -112.06450000
vt -69.08302000 -112.06450000
vt -69.08302000 -112.06450000
vt -69.08303000 -112.06450000
vt -71.13877000 -0.09493107
vt -70.91884000 -0.06584769
vt -70.91884000 -0.09493107
vt -71.13877000 -0.06584769
vt -70.91884000 0.32078320
vt -71.13877000 0.32078320
vt -71.00437000 0.32078320
vt -71.22430000 0.29169980
vt -71.22430000 0.32078320
vt -71.00437000 0.29169980
vt -71.22430000 -0.09493107
vt -71.00437000 -0.09493107
vt -71.70045000 -0.00303751
vt -71.70045000 0.21643890
vt -71.66061000 0.21643890
vt -71.66061000 -0.00303751
vt -71.69569000 0.67091910
vt -71.73496000 0.71156310
vt -71.70594000 0.70140020
vt -71.73496000 0.67091910
vt -72.12079000 0.71156310
vt -72.12079000 0.67091910
vt -71.69569000 -1.28083300
vt -71.73496000 -1.28083300
vt -71.70594000 -1.31050300
vt -71.73496000 -1.32066400
vt -72.12079000 -1.28083300
vt -72.12079000 -1.32066400
vt -71.19030000 0.66807230
vt -71.40997000 0.69858030
vt -71.19030000 0.69858030
vt -71.40997000 0.66807230
vt -71.19030000 -1.28533700
vt -71.40997000 -1.28533700
vt -71.19030000 -1.31503300
vt -71.40997000 -1.31503300
vt -71.23837000 0.65677740
vt -71.01888000 0.65677740
vt -71.01888000 -1.29499000
vt -71.23837000 -1.29499000
vt -71.68090000 0.21643720
vt -71.68090000 -0.00303584
vt -71.72155000 -0.00303584
vt -71.72155000 0.21643720
vt -71.96078000 -1.28083300
vt -71.92152000 -1.32066500
vt -71.95054000 -1.31050400
vt -71.92152000 -1.28083300
vt -71.53569000 -1.32066500
vt -71.53569000 -1.28083300
vt -71.96078000 0.67091940
vt -71.92152000 0.67091940
vt -71.95054000 0.70140080
vt -71.92152000 0.71156370
vt -71.53569000 0.67091940
vt -71.53569000 0.71156370
vt -71.26118000 0.32970320
vt -71.26118000 -0.05612737
vt -71.48066000 -0.05612737
vt -71.48066000 0.32970320
vt -71.56618000 -0.05612671
vt -71.56618000 0.32970250
vt -71.34670000 0.32970250
vt -71.34670000 -0.05612671
vt -71.30983000 -0.07317191
vt -71.08990000 -0.04408854
vt -71.08990000 -0.07317191
vt -71.30983000 -0.04408854
vt -71.08990000 0.34254280
vt -71.30983000 0.34254280
vt -71.17542000 0.34254300
vt -71.39536000 0.31345950
vt -71.39536000 0.34254300
vt -71.17542000 0.31345950
vt -71.39536000 -0.07317209
vt -71.17542000 -0.07317209
vt -71.74183000 -0.00303930
vt -71.74183000 0.21644060
vt -71.70200000 0.21644060
vt -71.70200000 -0.00303930
vt -71.37392000 0.67091620
vt -71.41319000 0.71156020
vt -71.38417000 0.70139730
vt -71.41319000 0.67091620
vt -71.79901000 0.71156020
vt -71.79901000 0.67091620
vt -71.37392000 -1.28083000
vt -71.41319000 -1.28083000
vt -71.38417000 -1.31050100
vt -71.41319000 -1.32066200
vt -71.79901000 -1.28083000
vt -71.79901000 -1.32066200
vt -71.10455000 0.66806980
vt -71.32421000 0.69857780
vt -71.10455000 0.69857780
vt -71.32421000 0.66806980
vt -71.10455000 -1.28533500
vt -71.32421000 -1.28533500
vt -71.10455000 -1.31503100
vt -71.32421000 -1.31503100
vt -71.15261000 0.65677040
vt -70.93313000 0.65677040
vt -70.93313000 -1.29498300
vt -71.15261000 -1.29498300
vt -71.72228000 0.21643950
vt -71.72228000 -0.00303823
vt -71.76293000 -0.00303823
vt -71.76293000 0.21643950
vt -71.63725000 -1.28083800
vt -71.59799000 -1.32067000
vt -71.62701000 -1.31050900
vt -71.59799000 -1.28083800
vt -71.21216000 -1.32067000
vt -71.21216000 -1.28083800
vt -71.63725000 0.67092470
vt -71.59799000 0.67092470
vt -71.62701000 0.70140610
vt -71.59799000 0.71156910
vt -71.21216000 0.67092470
vt -71.21216000 0.71156910
vt -71.43223000 0.32970230
vt -71.43223000 -0.05612653
vt -71.65171000 -0.05612653
vt -71.65171000 0.32970230
vt -71.73724000 -0.05612671
vt -71.73724000 0.32970250
vt -71.51776000 0.32970250
vt -71.51776000 -0.05612671
f 3/3/3 2/2/2 1/1/1
f 4/4/4 3/3/3 1/1/1
f 7/7/7 6/6/6 5/5/5
f 6/6/6 8/8/8 5/5/5
f 6/6/6 9/9/9 8/8/8
f 9/9/9 10/10/10 8/8/8
f 13/13/13 12/12/12 11/11/11
f 12/12/12 14/14/14 11/11/11
f 12/12/12 15/15/15 14/14/14
f 15/15/15 16/16/16 14/14/14
f 19/19/19 18/18/18 17/17/17
f 20/20/20 19/19/19 17/17/17
f 23/23/23 22/22/22 21/21/21
f 22/22/22 24/24/24 21/21/21
f 22/22/22 25/25/25 24/24/24
f 25/25/25 26/26/26 24/24/24
f 27/27/27 21/21/21 24/24/24
f 28/28/28 27/27/27 24/24/24
f 29/29/29 27/27/27 28/28/28
f 30/30/30 29/29/29 28/28/28
f 28/28/28 31/31/31 30/30/30
f 31/31/31 32/32/32 30/30/30
f 35/35/35 34/34/34 33/33/33
f 34/34/34 36/36/36 33/33/33
f 37/37/37 33/33/33 36/36/36
f 38/38/38 37/37/37 36/36/36
f 39/39/39 37/37/37 38/38/38
f 40/40/40 39/39/39 38/38/38
f 43/43/43 42/42/42 41/41/41
f 44/44/44 43/43/43 41/41/41
f 47/47/47 46/46/46 45/45/45
f 48/48/48 47/47/47 45/45/45
f 51/51/51 50/50/50 49/49/49
f 50/50/50 52/52/52 49/49/49
f 50/50/50 53/53/53 52/52/52
f 53/53/53 54/54/54 52/52/52
f 49/49/49 52/52/52 55/55/55
f 52/52/52 56/56/56 55/55/55
f 57/57/57 55/55/55 56/56/56
f 58/58/58 57/57/57 56/56/56
f 56/56/56 59/59/59 58/58/58
f 59/59/59 60/60/60 58/58/58
f 63/63/63 62/62/62 61/61/61
f 64/64/64 63/63/63 61/61/61
f 67/67/67 66/66/66 65/65/65
f 68/68/68 67/67/67 65/65/65
f 71/71/71 70/70/70 69/69/69
f 70/70/70 72/72/72 69/69/69
f 70/70/70 73/73/73 72/72/72
f 73/73/73 74/74/74 72/72/72
f 77/77/77 76/76/76 75/75/75
f 76/76/76 78/78/78 75/75/75
f 76/76/76 79/79/79 78/78/78
f 79/79/79 80/80/80 78/78/78
f 83/83/83 82/82/82 81/81/81
f 84/84/84 83/83/83 81/81/81
f 87/87/87 86/86/86 85/85/85
f 86/86/86 88/88/88 85/85/85
f 86/86/86 89/89/89 88/88/88
f 89/89/89 90/90/90 88/88/88
f 91/91/91 85/85/85 88/88/88
f 92/92/92 91/91/91 88/88/88
f 93/93/93 91/91/91 92/92/92
f 94/94/94 93/93/93 92/92/92
f 92/92/92 95/95/95 94/94/94
f 95/95/95 96/96/96 94/94/94
f 99/99/99 98/98/98 97/97/97
f 98/98/98 100/100/100 97/97/97
f 101/101/101 97/97/97 100/100/100
f 102/102/102 101/101/101 100/100/100
f 103/103/103 101/101/101 102/102/102
f 104/104/104 103/103/103 102/102/102
f 107/107/107 106/106/106 105/105/105
f 108/108/108 107/107/107 105/105/105
f 111/111/111 110/110/110 109/109/109
f 112/112/112 111/111/111 109/109/109
f 115/115/115 114/114/114 113/113/113
f 114/114/114 116/116/116 113/113/113
f 114/114/114 117/117/117 116/116/116
f 117/117/117 118/118/118 116/116/116
f 113/113/113 116/116/116 119/119/119
f 116/116/116 120/120/120 119/119/119
f 121/121/121 119/119/119 120/120/120
f 122/122/122 121/121/121 120/120/120
f 120/120/120 123/123/123 122/122/122
f 123/123/123 124/124/124 122/122/122
f 127/127/127 126/126/126 125/125/125
f 128/128/128 127/127/127 125/125/125
f 131/131/131 130/130/130 129/129/129
f 132/132/132 131/131/131 129/129/129

