# Blender 4.0.0
# www.blender.org
o decimated_mesh
v 0.486539 -0.098067 -0.005834
v 0.487216 -0.233617 -0.002422
v 0.485014 -0.241010 -0.004967
v 0.485113 -0.233314 -0.008040
v 0.487021 -0.233617 0.012330
v 0.486733 -0.098067 0.014547
v 0.484539 -0.240973 0.012666
v 0.480408 -0.236485 -0.010186
v 0.482612 -0.098067 -0.009815
v 0.485426 -0.237039 0.016740
v 0.480480 -0.231858 0.025605
v 0.478984 -0.236259 0.022783
v 0.011794 -0.236604 -0.010193
v 0.466578 -0.220722 -0.012849
v 0.476059 -0.228650 0.028346
v 0.476281 -0.233294 0.026442
v 0.007920 -0.241115 0.012989
v 0.007323 -0.241038 -0.005137
v 0.029580 -0.222127 -0.012851
v 0.468057 -0.098067 -0.012851
v 0.478623 -0.098067 0.027599
v 0.015696 -0.234168 0.025880
v 0.007551 -0.237949 0.017208
v -0.008544 -0.215000 0.004286
v -0.008213 -0.215729 -0.005024
v -0.003129 -0.212480 -0.009778
v 0.023939 -0.098067 -0.012851
v 0.015667 -0.228617 0.028234
v 0.011718 -0.231808 0.025784
v -0.009364 -0.212801 -0.002311
v -0.002709 -0.138462 -0.010108
v 0.008903 -0.098069 -0.009648
v 0.015961 -0.098067 0.028314
v 0.011490 -0.098067 0.025909
v -0.008928 -0.137663 0.004059
v -0.008857 -0.136615 -0.004848
v 0.005064 -0.098071 -0.005060
v 0.005416 -0.098068 0.014456
vn 0.9476 -0.3185 0.0262
vn 0.9365 -0.0042 -0.3507
vn 0.0003 -0.7519 -0.6593
vn 0.9228 -0.1531 -0.3536
vn -0.6067 0.1832 -0.7736
vn -0.0000 -1.0000 -0.0000
vn 0.5607 -0.3133 -0.7665
vn 0.9443 -0.3142 0.0978
vn -0.5261 -0.0017 0.8504
vn -0.8532 -0.4501 0.2634
vn -0.7399 0.2638 -0.6188
vn 0.5192 -0.5793 0.6283
vn -0.7289 -0.0019 0.6846
vn 0.2042 -0.0025 -0.9789
vn 0.2969 -0.3501 0.8884
vn -0.2409 -0.7862 0.5691
vn -0.8495 -0.5270 0.0257
vn -0.0000 -0.0000 -1.0000
vn 0.0003 -1.0000 -0.0043
vn -0.0002 -0.0006 1.0000
vn 0.4173 -0.0042 -0.9088
vn -0.0008 -0.8801 0.4748
vn 0.4494 -0.6895 0.5680
vn 0.0007 -0.7767 0.6299
vn -0.9323 -0.3617 -0.0048
vn -0.2466 -0.3794 0.8918
vn -0.0947 -0.0039 -0.9955
vn -0.8668 0.1933 0.4597
vn 0.9999 0.0048 -0.0095
vn -0.5481 -0.3258 -0.7704
vn 0.8732 -0.0005 0.4874
vn 0.3466 -0.5869 0.7317
vn -1.0000 0.0064 -0.0072
vn 0.9415 -0.3366 -0.0169
vn 0.9571 -0.2894 0.0126
vn -0.6816 -0.0039 -0.7317
vn 0.0002 -0.7555 -0.6552
vn -0.0000 1.0000 -0.0000
vn -0.0000 -1.0000 -0.0006
vn 0.0003 -1.0000 0.0001
vn 0.0001 -1.0000 -0.0000
vn -0.0001 -1.0000 0.0001
vn -0.4737 0.0005 0.8807
vn -0.9233 -0.0067 -0.3841
vn -0.2078 0.0708 -0.9756
vn -0.7283 -0.0016 0.6852
vn 0.0005 -0.1661 -0.9861
vn 0.0001 -0.1807 -0.9835
vn 0.1886 -0.0004 -0.9820
vn -0.8522 -0.5232 0.0107
vn 0.5241 -0.0054 0.8517
vn 0.9412 -0.0035 0.3377
vn 0.0001 -1.0000 0.0021
vn 0.0015 0.0057 1.0000
vn -0.7934 -0.2419 0.5586
vn 0.0006 -0.9063 0.4226
vn 0.7120 0.0040 -0.7022
vn -0.6500 0.0003 -0.7600
vn -0.0959 -0.0044 -0.9954
vn -0.1080 -0.0497 -0.9929
vn -0.3976 -0.6436 0.6540
vn 0.9999 0.0019 0.0132
vn -0.5290 -0.3213 -0.7854
vn 0.8494 0.0039 0.5278
vn -0.0003 -0.3903 0.9207
vn -0.0004 -0.3794 0.9252
vn -0.9926 -0.0046 0.1217
vn 0.9400 -0.3397 -0.0325
vn -0.0000 -1.0000 -0.0004
vn -0.0000 -1.0000 -0.0005
vn -0.0000 -1.0000 0.0002
vn -0.0000 -1.0000 0.0001
vn 0.2042 -0.0006 -0.9789
vn 0.1865 -0.0023 -0.9824
vn -0.0948 -0.0043 -0.9955
vn -0.0966 -0.0039 -0.9953
vn 0.9404 -0.3397 -0.0169
vn 0.9424 -0.3331 -0.0317
vn -0.7292 -0.0016 0.6843
vn -0.7284 -0.0019 0.6851
vn 0.0003 -1.0000 0.0021
vn 0.0001 -1.0000 -0.0043
vn 0.0003 -0.7554 -0.6552
vn 0.0002 -0.7519 -0.6593
vn -0.5324 -0.3158 -0.7853
vn -0.0004 -0.3903 0.9207
vn -0.0003 -0.3794 0.9252
vn -0.5441 -0.3306 -0.7711
s 0
f 3//1 5//1 7//1
f 1//2 2//2 4//2
f 13//3 3//3 18//3
f 2//4 3//4 4//4
f 36//5 32//5 31//5
f 21//6 20//6 6//6
f 3//7 8//7 4//7
f 5//8 10//8 7//8
f 28//9 34//9 29//9
f 24//10 17//10 23//10
f 32//11 36//11 37//11
f 10//12 11//12 12//12
f 35//13 29//13 34//13
f 9//14 14//14 20//14
f 11//15 15//15 16//15
f 22//16 23//16 17//16
f 24//17 18//17 17//17
f 19//18 27//18 20//18
f 7//19 17//19 18//19
f 15//20 33//20 28//20
f 9//21 4//21 8//21
f 17//22 12//22 22//22
f 7//23 10//23 12//23
f 16//24 22//24 12//24
f 25//25 24//25 30//25
f 22//26 28//26 29//26
f 31//27 19//27 26//27
f 38//28 35//28 34//28
f 6//29 2//29 1//29
f 26//30 13//30 18//30
f 11//31 10//31 6//31
f 12//32 11//32 16//32
f 30//33 35//33 36//33
f 37//34 38//34 35//34
f 3//35 2//35 5//35
f 36//36 26//36 25//36
f 13//37 8//37 3//37
f 6//6 20//6 1//6
f 9//38 20//38 1//38
f 20//6 21//6 27//6
f 27//39 37//39 32//39
f 37//40 27//40 38//40
f 27//41 33//41 38//41
f 38//42 33//42 34//42
f 33//6 27//6 21//6
f 28//43 33//43 34//43
f 36//44 25//44 30//44
f 31//45 32//45 27//45
f 35//46 24//46 29//46
f 19//47 14//47 8//47
f 8//48 13//48 19//48
f 9//49 8//49 14//49
f 24//50 25//50 18//50
f 15//51 11//51 21//51
f 10//52 5//52 6//52
f 14//18 19//18 20//18
f 18//53 3//53 7//53
f 15//54 21//54 33//54
f 24//55 23//55 29//55
f 17//56 7//56 12//56
f 4//57 9//57 1//57
f 26//58 36//58 31//58
f 27//59 19//59 31//59
f 19//60 13//60 26//60
f 29//61 23//61 22//61
f 6//62 5//62 2//62
f 18//63 25//63 26//63
f 6//64 21//64 11//64
f 15//65 28//65 22//65
f 22//66 16//66 15//66
f 30//67 24//67 35//67
f 37//68 35//68 36//68
f 20//6 1//6 27//6
f 27//69 1//69 32//69
f 32//70 1//70 37//70
f 37//71 1//71 38//71
f 38//72 1//72 34//72
f 34//6 1//6 33//6
f 33//6 1//6 21//6
f 21//6 1//6 6//6
f 8//73 20//73 9//73
f 8//74 14//74 20//74
f 14//18 19//18 27//18
f 14//18 27//18 20//18
f 19//75 26//75 27//75
f 26//76 31//76 27//76
f 36//77 37//77 38//77
f 36//78 38//78 35//78
f 35//79 24//79 34//79
f 24//80 29//80 34//80
f 7//81 17//81 3//81
f 17//82 18//82 3//82
f 18//83 8//83 3//83
f 18//84 13//84 8//84
f 13//85 25//85 26//85
f 22//86 16//86 28//86
f 16//87 15//87 28//87
f 25//88 13//88 18//88
