# Blender 4.0.0
# www.blender.org
o decimated_mesh
v 0.486767 -0.007269 -0.005526
v 0.486602 -0.098067 -0.005517
v 0.486652 -0.007269 0.014430
v 0.486746 -0.098067 0.014487
v 0.482824 -0.098067 -0.009733
v 0.482848 -0.007269 -0.009657
v 0.480505 -0.007269 0.025925
v 0.480505 -0.098067 0.025925
v 0.468057 -0.007269 -0.012851
v 0.468057 -0.098067 -0.012851
v 0.476512 -0.007269 0.028183
v 0.475979 -0.098067 0.028377
v 0.023944 -0.007269 -0.012847
v 0.023939 -0.098067 -0.012851
v 0.009094 -0.098067 -0.009693
v -0.003028 -0.038170 -0.009955
v -0.003043 -0.014605 -0.009938
v 0.009392 -0.007269 -0.009850
v -0.008959 -0.013577 -0.004203
v -0.008943 -0.037423 -0.004943
v 0.004198 -0.007272 -0.005483
v 0.005144 -0.098066 -0.005071
v -0.008509 -0.013533 0.004240
v -0.009077 -0.036822 0.004084
v 0.013741 -0.007158 0.027985
v 0.005404 -0.007271 0.015047
v 0.005330 -0.098067 0.014290
v 0.013320 -0.098085 0.027558
vn -0.0018 -0.0047 1.0000
vn -0.6939 0.0219 -0.7197
vn -0.0000 -1.0000 -0.0000
vn -0.2079 -0.0463 -0.9771
vn -0.4264 0.9042 0.0250
vn 0.7448 -0.0014 -0.6673
vn 0.4921 -0.0000 0.8705
vn -0.0000 -0.0000 -1.0000
vn -0.1902 0.3334 -0.9234
vn -0.1074 0.0007 -0.9942
vn -0.9741 -0.2263 0.0006
vn -0.6117 0.6894 0.3881
vn -0.4146 0.7651 -0.4926
vn -0.7234 0.0001 0.6905
vn 0.2066 -0.0000 -0.9784
vn 1.0000 0.0010 0.0058
vn 0.8779 -0.0000 0.4789
vn -0.9999 -0.0002 -0.0148
vn -0.7489 -0.1726 -0.6398
vn -0.4182 0.7155 -0.5596
vn -0.0000 -1.0000 -0.0004
vn -0.0011 -1.0000 -0.0007
vn -0.0001 -1.0000 -0.0000
vn 0.0001 -1.0000 0.0003
vn -0.0004 0.0021 1.0000
vn -0.6464 0.0001 -0.7630
vn 0.0006 -1.0000 -0.0000
vn -0.0002 -1.0000 0.0027
vn -0.0000 -1.0000 -0.0001
vn 0.0067 -1.0000 0.0044
vn -0.4307 0.9023 0.0182
vn 0.7255 0.0004 -0.6883
vn 0.4762 -0.0009 0.8793
vn -0.1067 -0.0000 -0.9943
vn -0.9737 -0.2275 0.0093
vn -0.8511 -0.1148 0.5123
vn -0.7314 0.0133 0.6818
vn 0.2111 0.0008 -0.9775
vn 1.0000 -0.0018 -0.0072
vn 0.8819 0.0012 0.4715
vn -0.6504 -0.1349 -0.7475
vn -0.9983 0.0240 0.0530
vn 0.0027 -1.0000 0.0026
vn 0.0148 -0.9999 -0.0008
vn -0.0002 -1.0000 -0.0004
vn -0.0002 -1.0000 -0.0001
vn -0.0002 -1.0000 -0.0000
vn -0.0002 -1.0000 0.0002
vn -0.0002 -1.0000 0.0008
vn -0.0000 -1.0000 0.0027
vn 0.0006 -1.0000 0.0029
vn -0.0022 -1.0000 -0.0000
vn -0.0008 -1.0000 -0.0004
vn -0.0001 -1.0000 -0.0005
vn -0.0000 -1.0000 0.0002
s 0
f 12//1 25//1 28//1
f 17//2 20//2 19//2
f 11//3 9//3 3//3
f 16//4 14//4 15//4
f 21//5 23//5 26//5
f 5//6 1//6 2//6
f 11//7 8//7 7//7
f 13//8 9//8 10//8
f 13//9 17//9 18//9
f 13//10 16//10 17//10
f 22//11 24//11 20//11
f 26//12 23//12 25//12
f 19//13 21//13 18//13
f 24//14 28//14 25//14
f 9//15 5//15 10//15
f 4//16 1//16 3//16
f 4//17 7//17 8//17
f 24//18 19//18 20//18
f 15//19 22//19 20//19
f 18//20 17//20 19//20
f 12//21 28//21 14//21
f 28//22 27//22 14//22
f 27//23 22//23 14//23
f 15//24 14//24 22//24
f 14//3 10//3 12//3
f 10//3 5//3 2//3
f 12//3 10//3 4//3
f 2//3 4//3 10//3
f 4//23 8//23 12//23
f 12//25 11//25 25//25
f 17//26 16//26 20//26
f 21//27 18//27 26//27
f 25//28 13//28 11//28
f 7//3 11//3 3//3
f 3//3 9//3 1//3
f 6//3 1//3 9//3
f 9//3 11//3 13//3
f 13//29 26//29 18//29
f 26//30 13//30 25//30
f 21//31 19//31 23//31
f 5//32 6//32 1//32
f 11//33 12//33 8//33
f 10//8 14//8 13//8
f 13//34 14//34 16//34
f 22//35 27//35 24//35
f 24//36 27//36 28//36
f 25//37 23//37 24//37
f 9//38 6//38 5//38
f 4//39 2//39 1//39
f 4//40 3//40 7//40
f 15//41 20//41 16//41
f 24//42 23//42 19//42
f 18//43 25//43 21//43
f 21//44 25//44 26//44
f 11//45 25//45 7//45
f 7//46 25//46 3//46
f 3//47 25//47 1//47
f 1//48 25//48 6//48
f 6//49 25//49 9//49
f 9//50 25//50 13//50
f 13//51 25//51 18//51
f 27//52 22//52 28//52
f 22//53 15//53 28//53
f 15//54 14//54 28//54
f 14//21 10//21 28//21
f 10//29 5//29 28//29
f 5//3 2//3 28//3
f 2//3 4//3 28//3
f 4//3 8//3 28//3
f 8//55 12//55 28//55
f 10//8 14//8 9//8
f 14//8 13//8 9//8
