mtllib material.mtl
usemtl material_0
v -0.00850000 -0.00021000 0.00229000
v -0.00850000 0.00117000 0.00198000
v -0.00897000 0.00117000 0.00198000
v -0.00897000 -0.00021000 0.00229000
v -0.00850000 -0.00151000 0.00172000
v -0.00897000 -0.00151000 0.00172000
v -0.00850000 0.00117000 0.00198000
v -0.00897000 0.00211000 0.00092000
v -0.00897000 0.00117000 0.00198000
v -0.00850000 0.00211000 0.00092000
v -0.00897000 0.00224000 -0.00049000
v -0.00850000 0.00224000 -0.00049000
v -0.00897000 0.00152000 -0.00171000
v -0.00850000 0.00152000 -0.00171000
v -0.00850000 0.00152000 -0.00171000
v -0.00897000 0.00022000 -0.00228000
v -0.00897000 0.00152000 -0.00171000
v -0.00850000 0.00022000 -0.00228000
v -0.00897000 -0.00116000 -0.00197000
v -0.00850000 -0.00116000 -0.00197000
v -0.00850000 -0.00116000 -0.00197000
v -0.00897000 -0.00210000 -0.00091000
v -0.00897000 -0.00116000 -0.00197000
v -0.00850000 -0.00210000 -0.00091000
v -0.00897000 -0.00223000 0.00050000
v -0.00850000 -0.00223000 0.00050000
v -0.00897000 -0.00151000 0.00172000
v -0.00850000 -0.00151000 0.00172000
v -0.00876000 -0.00024000 0.00260000
v -0.00897000 0.00133000 0.00225000
v -0.00876000 0.00133000 0.00225000
v -0.00897000 -0.00024000 0.00260000
v -0.00876000 -0.00172000 0.00196000
v -0.00897000 -0.00172000 0.00196000
v -0.00876000 0.00133000 0.00225000
v -0.00897000 0.00133000 0.00225000
v -0.00897000 0.00240000 0.00104000
v -0.00876000 0.00240000 0.00104000
v -0.00897000 0.00255000 -0.00056000
v -0.00876000 0.00255000 -0.00056000
v -0.00897000 0.00173000 -0.00195000
v -0.00876000 0.00173000 -0.00195000
v -0.00876000 0.00173000 -0.00195000
v -0.00897000 0.00173000 -0.00195000
v -0.00897000 0.00025000 -0.00259000
v -0.00876000 0.00025000 -0.00259000
v -0.00897000 -0.00132000 -0.00224000
v -0.00876000 -0.00132000 -0.00224000
v -0.00876000 -0.00132000 -0.00224000
v -0.00897000 -0.00132000 -0.00224000
v -0.00897000 -0.00239000 -0.00103000
v -0.00876000 -0.00239000 -0.00103000
v -0.00897000 -0.00254000 0.00057000
v -0.00876000 -0.00254000 0.00057000
v -0.00897000 -0.00172000 0.00196000
v -0.00876000 -0.00172000 0.00196000
v 0.00898000 -0.00254000 0.00057000
v 0.00884000 -0.00172000 0.00196000
v 0.00898000 -0.00172000 0.00196000
v 0.00884000 -0.00254000 0.00057000
v -0.00876000 -0.00172000 0.00196000
v 0.00898000 -0.00239000 -0.00103000
v -0.00876000 -0.00254000 0.00057000
v 0.00884000 -0.00239000 -0.00103000
v 0.00898000 -0.00132000 -0.00224000
v -0.00876000 -0.00239000 -0.00103000
v 0.00884000 -0.00132000 -0.00224000
v -0.00876000 -0.00132000 -0.00224000
v 0.00898000 0.00025000 -0.00259000
v 0.00884000 -0.00132000 -0.00224000
v 0.00898000 -0.00132000 -0.00224000
v 0.00884000 0.00025000 -0.00259000
v 0.00898000 0.00173000 -0.00195000
v -0.00876000 -0.00132000 -0.00224000
v 0.00884000 0.00173000 -0.00195000
v -0.00876000 0.00025000 -0.00259000
v -0.00876000 0.00173000 -0.00195000
v 0.00898000 0.00255000 -0.00056000
v 0.00884000 0.00173000 -0.00195000
v 0.00898000 0.00173000 -0.00195000
v 0.00884000 0.00255000 -0.00056000
v -0.00876000 0.00173000 -0.00195000
v 0.00898000 0.00240000 0.00104000
v -0.00876000 0.00255000 -0.00056000
v 0.00884000 0.00240000 0.00104000
v 0.00898000 0.00133000 0.00225000
v -0.00876000 0.00240000 0.00104000
v 0.00884000 0.00133000 0.00225000
v -0.00876000 0.00133000 0.00225000
v 0.00898000 -0.00024000 0.00260000
v 0.00884000 0.00133000 0.00225000
v 0.00898000 0.00133000 0.00225000
v 0.00884000 -0.00024000 0.00260000
v 0.00898000 -0.00172000 0.00196000
v -0.00876000 0.00133000 0.00225000
v 0.00884000 -0.00172000 0.00196000
v -0.00876000 -0.00024000 0.00260000
v -0.00876000 -0.00172000 0.00196000
v 0.00898000 -0.00223000 0.00050000
v 0.00898000 -0.00151000 0.00172000
v 0.00839000 -0.00151000 0.00172000
v 0.00839000 -0.00223000 0.00050000
v -0.00850000 -0.00151000 0.00172000
v 0.00898000 -0.00210000 -0.00091000
v -0.00850000 -0.00223000 0.00050000
v 0.00839000 -0.00210000 -0.00091000
v 0.00898000 -0.00116000 -0.00197000
v -0.00850000 -0.00210000 -0.00091000
v 0.00839000 -0.00116000 -0.00197000
v -0.00850000 -0.00116000 -0.00197000
v 0.00898000 0.00022000 -0.00228000
v 0.00898000 -0.00116000 -0.00197000
v 0.00839000 -0.00116000 -0.00197000
v 0.00839000 0.00022000 -0.00228000
v 0.00898000 0.00152000 -0.00171000
v -0.00850000 -0.00116000 -0.00197000
v 0.00839000 0.00152000 -0.00171000
v -0.00850000 0.00022000 -0.00228000
v -0.00850000 0.00152000 -0.00171000
v 0.00898000 0.00224000 -0.00049000
v 0.00898000 0.00152000 -0.00171000
v 0.00839000 0.00152000 -0.00171000
v 0.00839000 0.00224000 -0.00049000
v -0.00850000 0.00152000 -0.00171000
v 0.00898000 0.00211000 0.00092000
v -0.00850000 0.00224000 -0.00049000
v 0.00839000 0.00211000 0.00092000
v 0.00898000 0.00117000 0.00198000
v -0.00850000 0.00211000 0.00092000
v 0.00839000 0.00117000 0.00198000
v -0.00850000 0.00117000 0.00198000
v 0.00898000 -0.00021000 0.00229000
v 0.00898000 0.00117000 0.00198000
v 0.00839000 0.00117000 0.00198000
v 0.00839000 -0.00021000 0.00229000
v 0.00898000 -0.00151000 0.00172000
v -0.00850000 0.00117000 0.00198000
v 0.00839000 -0.00151000 0.00172000
v -0.00850000 -0.00021000 0.00229000
v -0.00850000 -0.00151000 0.00172000
v 0.00898000 0.00224000 -0.00049000
v 0.00898000 0.00211000 0.00092000
v 0.00898000 0.00240000 0.00104000
v 0.00898000 0.00255000 -0.00056000
v 0.00898000 0.00133000 0.00225000
v 0.00898000 0.00152000 -0.00171000
v 0.00898000 0.00117000 0.00198000
v 0.00898000 0.00173000 -0.00195000
v 0.00898000 -0.00024000 0.00260000
v 0.00898000 0.00022000 -0.00228000
v 0.00898000 -0.00021000 0.00229000
v 0.00898000 0.00025000 -0.00259000
v 0.00898000 -0.00172000 0.00196000
v 0.00898000 -0.00116000 -0.00197000
v 0.00898000 -0.00151000 0.00172000
v 0.00898000 -0.00132000 -0.00224000
v 0.00898000 -0.00254000 0.00057000
v 0.00898000 -0.00210000 -0.00091000
v 0.00898000 -0.00223000 0.00050000
v 0.00898000 -0.00239000 -0.00103000
v -0.00897000 0.00117000 0.00198000
v -0.00897000 0.00211000 0.00092000
v -0.00897000 0.00240000 0.00104000
v -0.00897000 0.00133000 0.00225000
v -0.00897000 0.00255000 -0.00056000
v -0.00897000 -0.00021000 0.00229000
v -0.00897000 0.00224000 -0.00049000
v -0.00897000 -0.00024000 0.00260000
v -0.00897000 0.00173000 -0.00195000
v -0.00897000 -0.00151000 0.00172000
v -0.00897000 0.00152000 -0.00171000
v -0.00897000 -0.00172000 0.00196000
v -0.00897000 0.00025000 -0.00259000
v -0.00897000 -0.00223000 0.00050000
v -0.00897000 0.00022000 -0.00228000
v -0.00897000 -0.00254000 0.00057000
v -0.00897000 -0.00132000 -0.00224000
v -0.00897000 -0.00210000 -0.00091000
v -0.00897000 -0.00116000 -0.00197000
v -0.00897000 -0.00239000 -0.00103000
vn 0.00000000 0.09445623 -0.99552900
vn 0.00000000 -0.50890620 -0.86082200
vn -0.78373940 -0.31609000 -0.53463970
vn -0.78373430 0.05865800 -0.61832000
vn 0.00000000 0.66162970 -0.74983070
vn -0.78369710 0.41096870 -0.46575030
vn 0.00000000 -0.50890620 -0.86082200
vn -0.78370180 -0.57003710 -0.24671700
vn -0.78373940 -0.31609000 -0.53463970
vn 0.00000000 -0.91772620 -0.39721340
vn -0.78368260 -0.60624160 0.13532400
vn 0.00000000 -0.97597620 0.21787710
vn -0.78369710 -0.41096870 0.46575030
vn 0.00000000 -0.66162970 0.74983070
vn 0.00000000 -0.66162970 0.74983070
vn -0.78373430 -0.05865800 0.61832000
vn -0.78369710 -0.41096870 0.46575030
vn 0.00000000 -0.09445623 0.99552900
vn -0.78374700 0.31606250 0.53464490
vn 0.00000000 0.50890620 0.86082200
vn 0.00000000 0.50890620 0.86082200
vn -0.78370180 0.57003710 0.24671700
vn -0.78374700 0.31606250 0.53464490
vn 0.00000000 0.91772620 0.39721340
vn -0.78368260 0.60624160 -0.13532400
vn 0.00000000 0.97597620 -0.21787710
vn -0.78369710 0.41096870 -0.46575030
vn 0.00000000 0.66162970 -0.74983070
vn 0.00000000 -0.09445623 0.99552900
vn -0.64371100 0.38945550 0.65875690
vn 0.00000000 0.50890620 0.86082200
vn -0.64370850 -0.07229970 0.76184780
vn 0.00000000 -0.66162970 0.74983070
vn -0.64372590 -0.50632520 0.57380470
vn 0.00000000 0.50890620 0.86082200
vn -0.64371100 0.38945550 0.65875690
vn -0.64372520 0.70229280 0.30397790
vn 0.00000000 0.91772620 0.39721340
vn -0.64373850 0.74686230 -0.16672560
vn 0.00000000 0.97597620 -0.21787710
vn -0.64372590 0.50632520 -0.57380470
vn 0.00000000 0.66162970 -0.74983070
vn 0.00000000 0.66162970 -0.74983070
vn -0.64372590 0.50632520 -0.57380470
vn -0.64370850 0.07229970 -0.76184780
vn 0.00000000 0.09445623 -0.99552900
vn -0.64371100 -0.38945550 -0.65875690
vn 0.00000000 -0.50890620 -0.86082200
vn 0.00000000 -0.50890620 -0.86082200
vn -0.64371100 -0.38945550 -0.65875690
vn -0.64372520 -0.70229280 -0.30397790
vn 0.00000000 -0.91772620 -0.39721340
vn -0.64373850 -0.74686230 0.16672560
vn 0.00000000 -0.97597620 0.21787710
vn -0.64372590 -0.50632520 0.57380470
vn 0.00000000 -0.66162970 0.74983070
vn 0.64373850 -0.74686230 0.16672560
vn 0.00000000 -0.66162970 0.74983070
vn 0.64372590 -0.50632520 0.57380470
vn 0.00000000 -0.97597620 0.21787710
vn 0.00000000 -0.66162970 0.74983070
vn 0.64371140 -0.70230830 -0.30397140
vn 0.00000000 -0.97597620 0.21787710
vn 0.00000000 -0.91772620 -0.39721340
vn 0.64371100 -0.38945550 -0.65875690
vn 0.00000000 -0.91772620 -0.39721340
vn 0.00000000 -0.50890620 -0.86082200
vn 0.00000000 -0.50890620 -0.86082200
vn 0.64370850 0.07229970 -0.76184780
vn 0.00000000 -0.50890620 -0.86082200
vn 0.64371100 -0.38945550 -0.65875690
vn 0.00000000 0.09445623 -0.99552900
vn 0.64372590 0.50632520 -0.57380470
vn 0.00000000 -0.50890620 -0.86082200
vn 0.00000000 0.66162970 -0.74983070
vn 0.00000000 0.09445623 -0.99552900
vn 0.00000000 0.66162970 -0.74983070
vn 0.64373850 0.74686230 -0.16672560
vn 0.00000000 0.66162970 -0.74983070
vn 0.64372590 0.50632520 -0.57380470
vn 0.00000000 0.97597620 -0.21787710
vn 0.00000000 0.66162970 -0.74983070
vn 0.64371140 0.70230830 0.30397140
vn 0.00000000 0.97597620 -0.21787710
vn 0.00000000 0.91772620 0.39721340
vn 0.64371100 0.38945550 0.65875690
vn 0.00000000 0.91772620 0.39721340
vn 0.00000000 0.50890620 0.86082200
vn 0.00000000 0.50890620 0.86082200
vn 0.64370850 -0.07229970 0.76184780
vn 0.00000000 0.50890620 0.86082200
vn 0.64371100 0.38945550 0.65875690
vn 0.00000000 -0.09445623 0.99552900
vn 0.64372590 -0.50632520 0.57380470
vn 0.00000000 0.50890620 0.86082200
vn 0.00000000 -0.66162970 0.74983070
vn 0.00000000 -0.09445623 0.99552900
vn 0.00000000 -0.66162970 0.74983070
vn 0.78368260 0.60624160 -0.13532400
vn 0.78369710 0.41096870 -0.46575030
vn 0.00000000 0.66162970 -0.74983070
vn 0.00000000 0.97597620 -0.21787710
vn 0.00000000 0.66162970 -0.74983070
vn 0.78370180 0.57003710 0.24671700
vn 0.00000000 0.97597620 -0.21787710
vn 0.00000000 0.91772620 0.39721340
vn 0.78374700 0.31606250 0.53464490
vn 0.00000000 0.91772620 0.39721340
vn 0.00000000 0.50890620 0.86082200
vn 0.00000000 0.50890620 0.86082200
vn 0.78373430 -0.05865800 0.61832000
vn 0.78374700 0.31606250 0.53464490
vn 0.00000000 0.50890620 0.86082200
vn 0.00000000 -0.09445623 0.99552900
vn 0.78369710 -0.41096870 0.46575030
vn 0.00000000 0.50890620 0.86082200
vn 0.00000000 -0.66162970 0.74983070
vn 0.00000000 -0.09445623 0.99552900
vn 0.00000000 -0.66162970 0.74983070
vn 0.78368260 -0.60624160 0.13532400
vn 0.78369710 -0.41096870 0.46575030
vn 0.00000000 -0.66162970 0.74983070
vn 0.00000000 -0.97597620 0.21787710
vn 0.00000000 -0.66162970 0.74983070
vn 0.78370180 -0.57003710 -0.24671700
vn 0.00000000 -0.97597620 0.21787710
vn 0.00000000 -0.91772620 -0.39721340
vn 0.78374700 -0.31606250 -0.53464490
vn 0.00000000 -0.91772620 -0.39721340
vn 0.00000000 -0.50890620 -0.86082200
vn 0.00000000 -0.50890620 -0.86082200
vn 0.78373430 0.05865800 -0.61832000
vn 0.78374700 -0.31606250 -0.53464490
vn 0.00000000 -0.50890620 -0.86082200
vn 0.00000000 0.09445623 -0.99552900
vn 0.78369710 0.41096870 -0.46575030
vn 0.00000000 -0.50890620 -0.86082200
vn 0.00000000 0.66162970 -0.74983070
vn 0.00000000 0.09445623 -0.99552900
vn 0.00000000 0.66162970 -0.74983070
vn 0.78368260 -0.60624160 0.13532400
vn 0.78370180 -0.57003710 -0.24671700
vn 0.64371140 0.70230830 0.30397140
vn 0.64373850 0.74686230 -0.16672560
vn 0.64371100 0.38945550 0.65875690
vn 0.78369710 -0.41096870 0.46575030
vn 0.78374700 -0.31606250 -0.53464490
vn 0.64372590 0.50632520 -0.57380470
vn 0.64370850 -0.07229970 0.76184780
vn 0.78373430 -0.05865800 0.61832000
vn 0.78373430 0.05865800 -0.61832000
vn 0.64370850 0.07229970 -0.76184780
vn 0.64372590 -0.50632520 0.57380470
vn 0.78374700 0.31606250 0.53464490
vn 0.78369710 0.41096870 -0.46575030
vn 0.64371100 -0.38945550 -0.65875690
vn 0.64373850 -0.74686230 0.16672560
vn 0.78370180 0.57003710 0.24671700
vn 0.78368260 0.60624160 -0.13532400
vn 0.64371140 -0.70230830 -0.30397140
vn -0.78373940 -0.31609000 -0.53463970
vn -0.78370180 -0.57003710 -0.24671700
vn -0.64372520 0.70229280 0.30397790
vn -0.64371100 0.38945550 0.65875690
vn -0.64373850 0.74686230 -0.16672560
vn -0.78373430 0.05865800 -0.61832000
vn -0.78368260 -0.60624160 0.13532400
vn -0.64370850 -0.07229970 0.76184780
vn -0.64372590 0.50632520 -0.57380470
vn -0.78369710 0.41096870 -0.46575030
vn -0.78369710 -0.41096870 0.46575030
vn -0.64372590 -0.50632520 0.57380470
vn -0.64370850 0.07229970 -0.76184780
vn -0.78368260 0.60624160 -0.13532400
vn -0.78373430 -0.05865800 0.61832000
vn -0.64373850 -0.74686230 0.16672560
vn -0.64371100 -0.38945550 -0.65875690
vn -0.78370180 0.57003710 0.24671700
vn -0.78374700 0.31606250 0.53464490
vn -0.64372520 -0.70229280 -0.30397790
vt 0.39357800 0.32567670
vt 0.39357800 0.39473270
vt 0.37001010 0.39473270
vt 0.37001010 0.32567670
vt 0.39357800 0.26074270
vt 0.37001010 0.26074270
vt 0.39357800 0.95328050
vt 0.37001010 0.90019940
vt 0.37001010 0.95328050
vt 0.39357800 0.90019940
vt 0.37001010 0.82972900
vt 0.39357800 0.82972900
vt 0.37001010 0.76878670
vt 0.39357800 0.76878670
vt 0.39357800 0.41219600
vt 0.37001010 0.34726240
vt 0.37001010 0.41219600
vt 0.39357800 0.34726240
vt 0.37001010 0.27820650
vt 0.39357800 0.27820650
vt 0.39357800 0.75606760
vt 0.37001010 0.80914870
vt 0.37001010 0.75606760
vt 0.39357800 0.80914870
vt 0.37001010 0.87961910
vt 0.39357800 0.87961910
vt 0.37001010 0.94056140
vt 0.39357800 0.94056140
vt 0.38046950 0.32418660
vt 0.37001010 0.40275940
vt 0.38046950 0.40275940
vt 0.37001010 0.32418660
vt 0.38046950 0.25030740
vt 0.37001010 0.25030740
vt 0.38046950 0.96685780
vt 0.37001010 0.96685780
vt 0.37001010 0.90646430
vt 0.38046950 0.90646430
vt 0.37001010 0.82629260
vt 0.38046950 0.82629260
vt 0.37001010 0.75696070
vt 0.38046950 0.75696070
vt 0.38046950 0.42263130
vt 0.37001010 0.42263130
vt 0.37001010 0.34875250
vt 0.38046950 0.34875250
vt 0.37001010 0.27017970
vt 0.38046950 0.27017970
vt 0.38046950 0.74249040
vt 0.37001010 0.74249040
vt 0.37001010 0.80288370
vt 0.38046950 0.80288370
vt 0.37001010 0.88305540
vt 0.38046950 0.88305540
vt 0.37001010 0.95238730
vt 0.38046950 0.95238730
vt 0.26742110 0.88305540
vt 0.26064520 0.95238730
vt 0.26742110 0.95238730
vt 0.26064520 0.88305540
vt -0.61953060 0.95238730
vt 0.26742110 0.80288370
vt -0.61953060 0.88305540
vt 0.26064520 0.80288370
vt 0.26742110 0.74249040
vt -0.61953060 0.80288370
vt 0.26064520 0.74249040
vt -0.61953060 0.74249040
vt 0.26742110 0.34875250
vt 0.26064520 0.27017970
vt 0.26742110 0.27017970
vt 0.26064520 0.34875250
vt 0.26742110 0.42263130
vt -0.61953060 0.27017970
vt 0.26064520 0.42263130
vt -0.61953060 0.34875250
vt -0.61953060 0.42263130
vt 0.26742110 0.82629260
vt 0.26064520 0.75696070
vt 0.26742110 0.75696070
vt 0.26064520 0.82629260
vt -0.61953060 0.75696070
vt 0.26742110 0.90646430
vt -0.61953060 0.82629260
vt 0.26064520 0.90646430
vt 0.26742110 0.96685780
vt -0.61953060 0.90646430
vt 0.26064520 0.96685780
vt -0.61953060 0.96685780
vt 0.26742110 0.32418660
vt 0.26064520 0.40275940
vt 0.26742110 0.40275940
vt 0.26064520 0.32418660
vt 0.26742110 0.25030740
vt -0.61953060 0.40275940
vt 0.26064520 0.25030740
vt -0.61953060 0.32418660
vt -0.61953060 0.25030740
vt 0.26742110 0.87961910
vt 0.26742110 0.94056140
vt 0.23774030 0.94056140
vt 0.23774030 0.87961910
vt -0.60642190 0.94056140
vt 0.26742110 0.80914870
vt -0.60642190 0.87961910
vt 0.23774030 0.80914870
vt 0.26742110 0.75606760
vt -0.60642190 0.80914870
vt 0.23774030 0.75606760
vt -0.60642190 0.75606760
vt 0.26742110 0.34726240
vt 0.26742110 0.27820650
vt 0.23774030 0.27820650
vt 0.23774030 0.34726240
vt 0.26742110 0.41219600
vt -0.60642190 0.27820650
vt 0.23774030 0.41219600
vt -0.60642190 0.34726240
vt -0.60642190 0.41219600
vt 0.26742110 0.82972900
vt 0.26742110 0.76878670
vt 0.23774030 0.76878670
vt 0.23774030 0.82972900
vt -0.60642190 0.76878670
vt 0.26742110 0.90019940
vt -0.60642190 0.82972900
vt 0.23774030 0.90019940
vt 0.26742110 0.95328050
vt -0.60642190 0.90019940
vt 0.23774030 0.95328050
vt -0.60642190 0.95328050
vt 0.26742110 0.32567670
vt 0.26742110 0.39473270
vt 0.23774030 0.39473270
vt 0.23774030 0.32567670
vt 0.26742110 0.26074270
vt -0.60642190 0.39473270
vt 0.23774030 0.26074270
vt -0.60642190 0.32567670
vt -0.60642190 0.26074270
vt 0.44820480 0.82972900
vt 0.44153390 0.90019940
vt 0.45600800 0.90646430
vt 0.46359710 0.82629260
vt 0.40275940 0.96685780
vt 0.41219600 0.76878670
vt 0.39473270 0.95328050
vt 0.42263130 0.75696070
vt 0.32418660 0.98439930
vt 0.34726240 0.74065070
vt 0.32567670 0.96869740
vt 0.34875250 0.72494880
vt 0.25030740 0.95238730
vt 0.27820650 0.75606760
vt 0.26074270 0.94056140
vt 0.27017970 0.74249040
vt 0.20934200 0.88305540
vt 0.23140530 0.80914870
vt 0.22473440 0.87961910
vt 0.21693110 0.80288370
vt 0.39473270 0.95328050
vt 0.44153390 0.90019940
vt 0.45600800 0.90646430
vt 0.40275940 0.96685780
vt 0.46359710 0.82629260
vt 0.32567670 0.96869740
vt 0.44820480 0.82972900
vt 0.32418660 0.98439930
vt 0.42263130 0.75696070
vt 0.26074270 0.94056140
vt 0.41219600 0.76878670
vt 0.25030740 0.95238730
vt 0.34875250 0.72494880
vt 0.22473440 0.87961910
vt 0.34726240 0.74065070
vt 0.20934200 0.88305540
vt 0.27017970 0.74249040
vt 0.23140530 0.80914870
vt 0.27820650 0.75606760
vt 0.21693110 0.80288370
f 3/3/3 2/2/2 1/1/1
f 4/4/4 3/3/3 1/1/1
f 4/4/4 1/1/1 5/5/5
f 6/6/6 4/4/4 5/5/5
f 9/9/9 8/8/8 7/7/7
f 8/8/8 10/10/10 7/7/7
f 8/8/8 11/11/11 10/10/10
f 11/11/11 12/12/12 10/10/10
f 11/11/11 13/13/13 12/12/12
f 13/13/13 14/14/14 12/12/12
f 17/17/17 16/16/16 15/15/15
f 16/16/16 18/18/18 15/15/15
f 16/16/16 19/19/19 18/18/18
f 19/19/19 20/20/20 18/18/18
f 23/23/23 22/22/22 21/21/21
f 22/22/22 24/24/24 21/21/21
f 22/22/22 25/25/25 24/24/24
f 25/25/25 26/26/26 24/24/24
f 25/25/25 27/27/27 26/26/26
f 27/27/27 28/28/28 26/26/26
f 31/31/31 30/30/30 29/29/29
f 30/30/30 32/32/32 29/29/29
f 29/29/29 32/32/32 33/33/33
f 32/32/32 34/34/34 33/33/33
f 37/37/37 36/36/36 35/35/35
f 38/38/38 37/37/37 35/35/35
f 39/39/39 37/37/37 38/38/38
f 40/40/40 39/39/39 38/38/38
f 41/41/41 39/39/39 40/40/40
f 42/42/42 41/41/41 40/40/40
f 45/45/45 44/44/44 43/43/43
f 46/46/46 45/45/45 43/43/43
f 47/47/47 45/45/45 46/46/46
f 48/48/48 47/47/47 46/46/46
f 51/51/51 50/50/50 49/49/49
f 52/52/52 51/51/51 49/49/49
f 53/53/53 51/51/51 52/52/52
f 54/54/54 53/53/53 52/52/52
f 55/55/55 53/53/53 54/54/54
f 56/56/56 55/55/55 54/54/54
f 59/59/59 58/58/58 57/57/57
f 58/58/58 60/60/60 57/57/57
f 58/58/58 61/61/61 60/60/60
f 57/57/57 60/60/60 62/62/62
f 61/61/61 63/63/63 60/60/60
f 60/60/60 64/64/64 62/62/62
f 60/60/60 63/63/63 64/64/64
f 62/62/62 64/64/64 65/65/65
f 63/63/63 66/66/66 64/64/64
f 64/64/64 67/67/67 65/65/65
f 64/64/64 66/66/66 67/67/67
f 66/66/66 68/68/68 67/67/67
f 71/71/71 70/70/70 69/69/69
f 70/70/70 72/72/72 69/69/69
f 69/69/69 72/72/72 73/73/73
f 70/70/70 74/74/74 72/72/72
f 72/72/72 75/75/75 73/73/73
f 74/74/74 76/76/76 72/72/72
f 72/72/72 76/76/76 75/75/75
f 76/76/76 77/77/77 75/75/75
f 80/80/80 79/79/79 78/78/78
f 79/79/79 81/81/81 78/78/78
f 79/79/79 82/82/82 81/81/81
f 78/78/78 81/81/81 83/83/83
f 82/82/82 84/84/84 81/81/81
f 81/81/81 85/85/85 83/83/83
f 81/81/81 84/84/84 85/85/85
f 83/83/83 85/85/85 86/86/86
f 84/84/84 87/87/87 85/85/85
f 85/85/85 88/88/88 86/86/86
f 85/85/85 87/87/87 88/88/88
f 87/87/87 89/89/89 88/88/88
f 92/92/92 91/91/91 90/90/90
f 91/91/91 93/93/93 90/90/90
f 90/90/90 93/93/93 94/94/94
f 91/91/91 95/95/95 93/93/93
f 93/93/93 96/96/96 94/94/94
f 95/95/95 97/97/97 93/93/93
f 93/93/93 97/97/97 96/96/96
f 97/97/97 98/98/98 96/96/96
f 101/101/101 100/100/100 99/99/99
f 102/102/102 101/101/101 99/99/99
f 103/103/103 101/101/101 102/102/102
f 102/102/102 99/99/99 104/104/104
f 105/105/105 103/103/103 102/102/102
f 106/106/106 102/102/102 104/104/104
f 105/105/105 102/102/102 106/106/106
f 106/106/106 104/104/104 107/107/107
f 108/108/108 105/105/105 106/106/106
f 109/109/109 106/106/106 107/107/107
f 108/108/108 106/106/106 109/109/109
f 110/110/110 108/108/108 109/109/109
f 113/113/113 112/112/112 111/111/111
f 114/114/114 113/113/113 111/111/111
f 114/114/114 111/111/111 115/115/115
f 116/116/116 113/113/113 114/114/114
f 117/117/117 114/114/114 115/115/115
f 118/118/118 116/116/116 114/114/114
f 118/118/118 114/114/114 117/117/117
f 119/119/119 118/118/118 117/117/117
f 122/122/122 121/121/121 120/120/120
f 123/123/123 122/122/122 120/120/120
f 124/124/124 122/122/122 123/123/123
f 123/123/123 120/120/120 125/125/125
f 126/126/126 124/124/124 123/123/123
f 127/127/127 123/123/123 125/125/125
f 126/126/126 123/123/123 127/127/127
f 127/127/127 125/125/125 128/128/128
f 129/129/129 126/126/126 127/127/127
f 130/130/130 127/127/127 128/128/128
f 129/129/129 127/127/127 130/130/130
f 131/131/131 129/129/129 130/130/130
f 134/134/134 133/133/133 132/132/132
f 135/135/135 134/134/134 132/132/132
f 135/135/135 132/132/132 136/136/136
f 137/137/137 134/134/134 135/135/135
f 138/138/138 135/135/135 136/136/136
f 139/139/139 137/137/137 135/135/135
f 139/139/139 135/135/135 138/138/138
f 140/140/140 139/139/139 138/138/138
f 143/143/143 142/142/142 141/141/141
f 144/144/144 143/143/143 141/141/141
f 143/143/143 145/145/145 142/142/142
f 144/144/144 141/141/141 146/146/146
f 145/145/145 147/147/147 142/142/142
f 148/148/148 144/144/144 146/146/146
f 145/145/145 149/149/149 147/147/147
f 148/148/148 146/146/146 150/150/150
f 149/149/149 151/151/151 147/147/147
f 152/152/152 148/148/148 150/150/150
f 149/149/149 153/153/153 151/151/151
f 152/152/152 150/150/150 154/154/154
f 153/153/153 155/155/155 151/151/151
f 156/156/156 152/152/152 154/154/154
f 153/153/153 157/157/157 155/155/155
f 156/156/156 154/154/154 158/158/158
f 157/157/157 159/159/159 155/155/155
f 160/160/160 156/156/156 158/158/158
f 160/160/160 158/158/158 159/159/159
f 157/157/157 160/160/160 159/159/159
f 163/163/163 162/162/162 161/161/161
f 164/164/164 163/163/163 161/161/161
f 163/163/163 165/165/165 162/162/162
f 164/164/164 161/161/161 166/166/166
f 165/165/165 167/167/167 162/162/162
f 168/168/168 164/164/164 166/166/166
f 165/165/165 169/169/169 167/167/167
f 168/168/168 166/166/166 170/170/170
f 169/169/169 171/171/171 167/167/167
f 172/172/172 168/168/168 170/170/170
f 169/169/169 173/173/173 171/171/171
f 172/172/172 170/170/170 174/174/174
f 173/173/173 175/175/175 171/171/171
f 176/176/176 172/172/172 174/174/174
f 173/173/173 177/177/177 175/175/175
f 176/176/176 174/174/174 178/178/178
f 177/177/177 179/179/179 175/175/175
f 180/180/180 176/176/176 178/178/178
f 180/180/180 178/178/178 179/179/179
f 177/177/177 180/180/180 179/179/179

