# Blender 4.0.0
# www.blender.org
o decimated_mesh
v 0.051246 0.110958 0.061964
v 0.057534 0.111049 0.059470
v 0.055934 0.110541 0.061931
v 0.061343 0.110965 0.055458
v 0.061704 0.110596 0.047036
v 0.061399 0.107956 0.055551
v 0.062673 0.093850 0.038088
v 0.048002 0.110777 0.061964
v 0.055992 0.107226 0.061964
v 0.044683 0.010322 0.041655
v 0.045858 0.010323 0.038858
v 0.057118 0.064542 0.038081
v 0.061659 0.097163 0.038084
v 0.061690 0.108074 0.044356
v 0.048000 0.110573 0.061236
v 0.043070 0.038819 0.048049
v 0.048002 0.107265 0.061964
v 0.043069 0.030024 0.048035
v 0.043091 0.010330 0.043739
v 0.044066 0.010322 0.038857
v 0.043070 0.010322 0.040937
v 0.055034 0.063331 0.038089
vn -0.0000 -0.0000 1.0000
vn -0.0557 0.9948 -0.0855
vn -0.8027 0.1575 -0.5753
vn 0.0875 0.9628 0.2555
vn -0.5785 0.5956 -0.5573
vn 0.7751 -0.2172 0.5933
vn 0.7633 0.0198 0.6458
vn 0.8511 0.2599 -0.4562
vn -0.6985 0.3581 -0.6195
vn -0.2699 0.9274 -0.2590
vn -0.9973 0.0718 -0.0176
vn 0.9018 -0.2083 0.3786
vn -0.0009 -0.1774 0.9841
vn 0.9591 -0.1818 0.2168
vn -0.8967 0.1072 -0.4295
vn 0.2139 -0.2080 0.9545
vn -0.7823 0.1531 -0.6038
vn -0.9418 -0.0005 0.3361
vn 0.0079 0.0100 0.9999
vn -0.0364 0.9978 -0.0555
vn -0.0361 0.9983 -0.0452
vn 0.9989 0.0199 0.0420
vn 0.9984 0.0331 0.0461
vn -0.8069 0.1599 -0.5687
vn -0.0043 0.0007 -1.0000
vn 0.0028 -0.0003 -1.0000
vn 0.0050 -0.0154 -0.9999
vn 0.0008 -0.0147 -0.9999
vn 0.7584 -0.2166 0.6148
vn 0.7658 0.0342 0.6422
vn 0.9491 -0.1936 0.2484
vn -0.0001 1.0000 0.0001
vn -0.0004 1.0000 0.0002
vn -0.0013 -1.0000 0.0030
vn 0.9856 0.1204 -0.1186
vn -1.0000 -0.0027 0.0074
vn -1.0000 0.0001 -0.0003
vn 0.5283 0.6955 0.4870
vn -0.9425 -0.0000 0.3341
vn -0.0558 0.9964 -0.0633
vn -0.0332 0.9983 -0.0475
vn -0.0250 0.9987 -0.0448
vn 0.9985 0.0357 0.0413
vn 0.9982 0.0203 0.0564
vn -0.0004 1.0000 -0.0000
vn -0.0001 1.0000 0.0003
s 0
f 17//1 9//1 1//1
f 8//2 1//2 4//2
f 13//3 20//3 16//3
f 2//4 1//4 3//4
f 15//5 5//5 14//5
f 19//6 10//6 6//6
f 6//7 3//7 9//7
f 7//8 13//8 14//8
f 15//9 14//9 13//9
f 8//10 5//10 15//10
f 8//11 15//11 16//11
f 11//12 6//12 10//12
f 18//13 9//13 17//13
f 12//14 7//14 6//14
f 20//15 21//15 16//15
f 19//16 9//16 18//16
f 20//17 13//17 22//17
f 17//18 16//18 18//18
f 3//19 1//19 9//19
f 1//1 8//1 17//1
f 2//20 4//20 1//20
f 4//21 5//21 8//21
f 5//22 4//22 6//22
f 6//23 7//23 5//23
f 16//24 15//24 13//24
f 22//25 13//25 12//25
f 12//26 13//26 7//26
f 12//27 11//27 22//27
f 11//28 20//28 22//28
f 6//29 9//29 19//29
f 6//30 4//30 3//30
f 6//31 11//31 12//31
f 21//32 10//32 20//32
f 20//33 10//33 11//33
f 10//34 19//34 21//34
f 5//35 7//35 14//35
f 19//36 18//36 21//36
f 21//37 18//37 16//37
f 3//38 4//38 2//38
f 17//39 8//39 16//39
f 1//40 5//40 8//40
f 17//1 9//1 8//1
f 9//1 1//1 8//1
f 2//41 5//41 1//41
f 2//42 4//42 5//42
f 4//43 7//43 5//43
f 6//44 7//44 4//44
f 11//45 20//45 21//45
f 11//46 21//46 10//46
