# Blender 4.0.0
# www.blender.org
o decimated_mesh
v -0.046455 0.015356 0.039924
v -0.045105 0.015367 0.038786
v -0.045156 0.030403 0.047174
v -0.045105 0.040344 0.047447
v -0.039315 0.110523 0.064491
v 0.048000 0.106540 0.059754
v 0.048000 0.051379 0.048054
v 0.043054 0.010346 0.040934
v -0.044607 0.006992 0.039898
v -0.044846 0.021260 0.045196
v -0.039317 0.108010 0.067456
v -0.039319 0.110818 0.067430
v 0.048000 0.110555 0.061211
v 0.048000 0.042549 0.048054
v 0.023118 0.005724 0.048044
v 0.014682 0.005258 0.048257
v 0.043049 0.010344 0.043638
v -0.017146 0.005264 0.047450
v -0.024174 0.005560 0.047452
v -0.043071 0.007448 0.043078
v -0.015421 0.007359 0.051032
v -0.025393 0.108269 0.069895
v -0.035999 0.007122 0.046327
v -0.025320 0.110718 0.069873
v 0.048003 0.110955 0.063232
v 0.048000 0.104739 0.066756
v 0.026312 0.006463 0.048050
v 0.017669 0.005815 0.049408
v 0.028680 0.007414 0.048148
v -0.042828 0.006999 0.042839
v -0.040182 0.007104 0.044604
v -0.031696 0.007443 0.047713
v 0.000012 0.007448 0.052310
v -0.010933 0.110639 0.070440
v 0.024566 0.110664 0.070445
v 0.048000 0.108145 0.066756
v 0.027743 0.107120 0.070440
v 0.013850 0.007221 0.051105
v 0.033831 0.010409 0.047682
v 0.037442 0.010346 0.046340
v 0.041547 0.010346 0.044630
v 0.012089 0.005918 0.050465
v -0.016987 0.005735 0.049507
v -0.027085 0.005919 0.047594
v 0.027743 0.110111 0.070440
v 0.000773 0.005719 0.051050
v -0.005920 0.005814 0.050872
v -0.014145 0.006224 0.050464
v 0.044159 0.110599 0.066541
v 0.048000 0.110625 0.064910
vn -0.9844 0.0002 0.1760
vn -0.8839 0.1780 -0.4326
vn -0.0909 -0.9942 0.0576
vn 0.3125 -0.4035 0.8600
vn -0.0102 -0.9927 0.1203
vn 1.0000 -0.0066 0.0002
vn -0.1718 0.0137 0.9850
vn 0.8213 -0.0000 -0.5705
vn 0.9884 -0.1522 0.0016
vn -0.0403 0.2629 -0.9640
vn 0.7138 -0.2017 0.6707
vn -0.0076 0.9809 -0.1942
vn 0.1706 -0.5123 0.8417
vn -0.9622 0.0018 0.2724
vn -0.0420 -0.9963 -0.0752
vn -0.1921 -0.6397 0.7442
vn -0.6374 -0.1386 -0.7580
vn 0.0060 -0.9698 -0.2437
vn -0.0007 0.9880 0.1543
vn -0.8643 -0.1829 0.4686
vn -0.0393 0.0099 0.9992
vn 0.0523 -0.5732 0.8178
vn 0.2013 0.3937 0.8969
vn -0.4982 -0.1994 0.8438
vn -0.6267 0.2385 -0.7418
vn 0.0167 -0.1306 -0.9913
vn -0.4298 -0.5945 0.6796
vn 0.2258 -0.9742 -0.0004
vn 0.1789 -0.0000 0.9839
vn 0.5363 -0.2272 0.8129
vn 0.3181 -0.8154 0.4836
vn 0.0818 -0.2003 0.9763
vn -0.0064 0.9950 -0.0997
vn -0.0217 -0.5231 0.8520
vn -0.9964 0.0846 -0.0100
vn 0.0696 0.7897 -0.6096
vn -0.0369 0.8820 0.4699
vn 0.1979 -0.2127 0.9569
vn 0.1615 -0.7035 0.6921
vn 0.0171 0.2075 -0.9781
vn 0.0006 0.9991 0.0422
vn -0.1968 -0.1989 0.9601
vn -0.1653 -0.2020 0.9653
vn 0.0603 -0.9508 0.3040
vn 0.0462 -0.9409 0.3356
vn 0.0332 -0.9462 0.3219
vn -0.0163 -0.9964 0.0834
vn -0.0096 -0.9908 0.1351
vn 1.0000 0.0001 -0.0000
vn 1.0000 -0.0000 -0.0000
vn -0.1727 0.0090 0.9849
vn -0.1137 -0.9816 0.1535
vn -0.1499 -0.9479 0.2811
vn -0.0354 0.3410 -0.9394
vn 0.3140 -0.8300 0.4611
vn -0.0139 -0.1752 0.9844
vn -0.0799 -0.1908 0.9784
vn 0.1721 -0.5328 0.8286
vn 0.1409 -0.5831 0.8001
vn -0.9579 -0.0030 0.2872
vn -0.9044 -0.1193 0.4096
vn -0.8722 -0.1941 0.4491
vn 0.0749 0.9785 0.1921
vn 0.0318 0.9892 0.1432
vn -0.0133 -0.1463 0.9891
vn 0.0014 -0.0000 1.0000
vn -0.0001 -0.0013 1.0000
vn 0.0663 -0.5104 0.8574
vn -0.4762 -0.1928 0.8579
vn -0.4549 -0.1930 0.8694
vn -0.6872 -0.5947 0.4172
vn 0.3737 -0.2358 0.8971
vn 0.3350 -0.2348 0.9125
vn -0.0928 -0.9108 0.4023
vn 0.3327 -0.5016 0.7985
vn 0.2254 -0.9743 -0.0015
vn -0.2863 -0.2054 0.9359
vn -0.3722 -0.2020 0.9059
vn -0.0394 0.8856 0.4628
vn 0.1945 -0.1844 0.9634
vn 0.1498 -0.2175 0.9645
vn 0.3190 0.5658 0.7603
vn -0.1820 -0.8737 0.4511
vn 0.0335 0.1670 -0.9854
vn 0.1315 0.7508 0.6474
vn -0.1607 -0.5889 0.7920
vn -0.1671 -0.5688 0.8053
vn -0.1669 -0.5847 0.7939
vn -0.0682 -0.5083 0.8585
vn -0.0678 -0.5063 0.8597
vn -0.0298 -0.5974 0.8014
vn 0.0003 0.9992 0.0391
vn -0.5434 -0.1950 0.8165
vn -0.4762 -0.1962 0.8572
vn -0.0393 0.8846 0.4647
vn -0.0378 0.8908 0.4529
vn -0.1966 -0.2032 0.9592
vn -0.1656 -0.1970 0.9663
vn 1.0000 0.0013 0.0017
vn 1.0000 -0.0000 0.0007
vn 1.0000 -0.0001 0.0004
vn 1.0000 -0.0000 -0.0002
vn 1.0000 0.0002 -0.0009
vn 1.0000 0.0004 -0.0012
vn -0.0038 -0.9895 0.1443
vn -0.0197 -0.9750 0.2214
vn -0.0208 -0.9742 0.2248
vn -0.0409 -0.9732 0.2261
vn -0.1588 -0.6051 0.7802
vn -0.1630 -0.5818 0.7968
vn -0.0683 -0.5066 0.8595
vn 0.1513 -0.2081 0.9663
vn 0.1934 -0.2211 0.9559
vn 0.2167 -0.2247 0.9500
vn 0.1736 -0.5191 0.8369
vn 0.1701 -0.5361 0.8268
vn -0.0679 -0.5091 0.8581
s 0
f 1//1 3//1 4//1
f 1//2 4//2 5//2
f 19//3 30//3 9//3
f 39//4 29//4 40//4
f 19//5 16//5 43//5
f 25//6 50//6 13//6
f 12//7 22//7 24//7
f 7//8 14//8 8//8
f 8//9 14//9 17//9
f 5//10 6//10 2//10
f 14//11 26//11 17//11
f 5//12 25//12 13//12
f 28//13 27//13 29//13
f 4//14 11//14 12//14
f 19//15 9//15 18//15
f 44//16 32//16 23//16
f 2//17 9//17 1//17
f 9//18 16//18 18//18
f 24//19 34//19 35//19
f 20//20 10//20 1//20
f 34//21 24//21 22//21
f 33//22 46//22 42//22
f 49//23 45//23 36//23
f 3//24 10//24 31//24
f 5//25 2//25 1//25
f 9//26 2//26 8//26
f 30//27 31//27 20//27
f 27//28 8//28 17//28
f 37//29 36//29 45//29
f 17//30 26//30 41//30
f 17//31 41//31 29//31
f 37//32 33//32 38//32
f 25//33 5//33 12//33
f 18//34 16//34 19//34
f 5//35 4//35 12//35
f 48//36 47//36 43//36
f 16//37 15//37 8//37
f 38//38 39//38 37//38
f 28//39 15//39 27//39
f 7//40 2//40 6//40
f 35//41 25//41 24//41
f 21//42 22//42 32//42
f 22//43 11//43 32//43
f 16//44 15//44 28//44
f 28//45 42//45 16//45
f 42//46 46//46 16//46
f 46//47 47//47 16//47
f 47//48 43//48 16//48
f 50//49 36//49 13//49
f 36//50 26//50 6//50
f 13//50 36//50 6//50
f 26//50 14//50 7//50
f 7//50 6//50 26//50
f 12//51 11//51 22//51
f 19//52 44//52 30//52
f 44//53 31//53 30//53
f 5//54 13//54 6//54
f 29//55 27//55 17//55
f 33//56 37//56 22//56
f 22//57 21//57 33//57
f 29//58 38//58 28//58
f 42//59 28//59 38//59
f 4//60 3//60 11//60
f 3//61 1//61 10//61
f 1//62 9//62 20//62
f 50//63 25//63 49//63
f 49//64 25//64 35//64
f 22//65 37//65 34//65
f 37//66 45//66 35//66
f 35//67 34//67 37//67
f 33//68 42//68 38//68
f 20//69 31//69 10//69
f 31//70 11//70 3//70
f 30//71 20//71 9//71
f 40//72 41//72 26//72
f 26//73 39//73 40//73
f 43//74 44//74 19//74
f 29//75 41//75 40//75
f 27//76 15//76 8//76
f 23//77 32//77 11//77
f 11//78 31//78 23//78
f 37//29 26//29 36//29
f 16//79 8//79 9//79
f 38//80 29//80 39//80
f 39//81 26//81 37//81
f 36//82 50//82 49//82
f 44//83 23//83 31//83
f 7//84 8//84 2//84
f 49//85 35//85 45//85
f 44//86 43//86 21//86
f 32//87 44//87 21//87
f 43//88 48//88 21//88
f 33//89 21//89 47//89
f 48//90 47//90 21//90
f 33//91 47//91 46//91
f 25//92 12//92 24//92
f 20//93 3//93 10//93
f 20//94 31//94 3//94
f 8//95 9//95 15//95
f 15//96 9//96 16//96
f 32//97 21//97 11//97
f 21//98 22//98 11//98
f 50//99 36//99 25//99
f 36//100 26//100 25//100
f 26//101 14//101 25//101
f 14//102 7//102 25//102
f 7//103 6//103 25//103
f 6//104 13//104 25//104
f 46//105 18//105 16//105
f 46//106 47//106 18//106
f 47//107 43//107 18//107
f 43//108 19//108 18//108
f 43//109 48//109 44//109
f 48//110 21//110 44//110
f 48//111 33//111 21//111
f 45//29 37//29 26//29
f 45//29 26//29 36//29
f 37//112 38//112 26//112
f 38//113 29//113 26//113
f 29//114 39//114 26//114
f 29//115 38//115 27//115
f 38//116 28//116 27//116
f 33//117 48//117 47//117
