# Blender 4.0.0
# www.blender.org
o decimated_mesh
v 0.000004 0.006838 -0.052061
v 0.000006 0.006776 -0.048464
v 0.002588 0.006776 -0.047192
v -0.000000 0.109139 -0.068798
v 0.000006 0.108003 -0.071726
v 0.017436 0.107025 -0.071726
v 0.015117 0.006820 -0.050848
v 0.028292 0.006785 -0.043559
v 0.042272 0.008101 -0.040782
v 0.037795 0.110377 -0.064808
v 0.000014 0.110719 -0.071755
v 0.017436 0.109990 -0.071726
v 0.037791 0.105568 -0.069560
v 0.042238 0.008097 -0.043818
v 0.042272 0.015376 -0.043348
v 0.037791 0.108186 -0.063940
v 0.000007 0.110458 -0.070009
v 0.017436 0.110662 -0.071029
v 0.032745 0.110618 -0.069289
v 0.037792 0.108809 -0.069553
v 0.042274 0.014732 -0.045298
v 0.034486 0.008175 -0.047192
v 0.028805 0.006777 -0.047902
v 0.037791 0.110866 -0.066909
v 0.037791 0.110671 -0.068082
vn -1.0000 -0.0000 0.0005
vn -0.4352 0.1754 0.8831
vn -0.1196 -0.5177 0.8472
vn -0.0939 0.9955 -0.0129
vn -0.0291 0.9736 0.2265
vn -0.0994 0.6733 0.7326
vn 0.1973 -0.3334 -0.9219
vn 0.9835 0.0003 -0.1807
vn -0.0107 -0.1908 -0.9816
vn 0.3875 -0.2188 -0.8955
vn 0.0890 -0.2051 -0.9747
vn 0.6175 -0.1744 -0.7670
vn -0.1627 0.1998 0.9662
vn 0.2600 -0.7446 -0.6148
vn 0.0807 0.7172 -0.6922
vn 0.9558 0.1069 0.2740
vn 0.1783 0.6101 -0.7720
vn 0.1061 -0.0000 -0.9944
vn -1.0000 0.0029 -0.0033
vn -1.0000 0.0030 -0.0033
vn -1.0000 -0.0004 -0.0020
vn -0.0014 1.0000 0.0073
vn -0.0085 0.9998 0.0172
vn 0.0002 0.9999 0.0126
vn 0.0034 1.0000 -0.0014
vn 1.0000 0.0033 -0.0009
vn 0.9989 0.0440 -0.0138
vn 1.0000 0.0002 0.0007
vn 0.9999 -0.0078 -0.0112
vn 0.9989 0.0437 -0.0151
vn 1.0000 0.0012 -0.0011
vn 0.0017 -0.0000 -1.0000
vn -0.0006 -0.0108 -0.9999
vn -0.0936 0.9956 -0.0002
vn 0.1206 0.4645 -0.8773
vn 0.0067 0.9966 -0.0824
vn 0.0288 0.9861 -0.1637
vn 0.0191 0.9895 -0.1435
vn -0.0228 0.9887 0.1480
vn 0.0781 -0.2051 -0.9756
vn -0.1190 0.2188 0.9685
vn 0.0313 0.7192 -0.6941
vn -0.1096 0.3660 0.9241
vn 0.9312 0.1212 0.3437
vn 0.1059 0.0020 -0.9944
vn 0.1959 -0.2258 -0.9543
vn -0.0002 0.9999 0.0172
vn -0.0004 0.9999 0.0162
vn -0.0000 1.0000 0.0001
vn -0.0001 1.0000 -0.0018
vn -0.0912 0.9958 -0.0126
vn -0.0977 0.9952 -0.0002
vn 0.9987 0.0493 0.0098
vn 0.1058 -0.0000 -0.9944
vn 0.9983 0.0360 -0.0450
vn 0.9990 0.0434 -0.0136
vn 0.9990 0.0450 -0.0078
vn 0.1062 0.0020 -0.9943
s 0
f 2//1 4//1 1//1
f 2//2 3//2 4//2
f 3//3 8//3 9//3
f 14//4 23//4 8//4
f 17//5 10//5 24//5
f 4//6 10//6 17//6
f 7//7 22//7 23//7
f 13//8 20//8 21//8
f 1//9 5//9 6//9
f 14//10 22//10 13//10
f 7//11 6//11 13//11
f 21//12 14//12 13//12
f 4//13 3//13 9//13
f 22//14 14//14 23//14
f 12//15 18//15 19//15
f 16//16 15//16 10//16
f 19//17 25//17 20//17
f 20//18 6//18 12//18
f 5//19 4//19 17//19
f 17//20 11//20 5//20
f 5//21 1//21 4//21
f 8//22 7//22 3//22
f 3//23 1//23 2//23
f 7//24 1//24 3//24
f 7//25 8//25 23//25
f 24//26 10//26 25//26
f 10//27 15//27 21//27
f 15//28 9//28 21//28
f 21//29 9//29 14//29
f 21//30 20//30 10//30
f 10//31 20//31 25//31
f 11//32 12//32 6//32
f 6//33 5//33 11//33
f 14//34 8//34 9//34
f 20//35 12//35 19//35
f 11//36 24//36 18//36
f 24//37 25//37 19//37
f 18//38 24//38 19//38
f 24//39 11//39 17//39
f 7//40 1//40 6//40
f 9//41 16//41 4//41
f 12//42 11//42 18//42
f 4//43 16//43 10//43
f 16//44 9//44 15//44
f 20//45 13//45 6//45
f 7//46 13//46 22//46
f 7//47 1//47 2//47
f 7//48 2//48 23//48
f 23//49 2//49 3//49
f 23//50 3//50 8//50
f 8//51 9//51 23//51
f 23//52 9//52 14//52
f 15//53 24//53 10//53
f 12//54 13//54 6//54
f 20//55 25//55 21//55
f 25//56 15//56 21//56
f 25//57 24//57 15//57
f 20//58 13//58 12//58
