# Blender 4.0.0
# www.blender.org
o decimated_mesh
v 0.069268 0.110823 0.027424
v 0.069911 0.110450 0.000015
v 0.070817 0.110648 0.022606
v 0.072344 0.110729 0.000012
v 0.068948 0.109399 0.000012
v 0.066009 0.109378 0.027423
v 0.067195 0.110581 0.027420
v 0.070568 0.109783 0.027422
v 0.072331 0.110541 0.006527
v 0.074897 0.107418 0.000010
v 0.072314 0.108994 0.020111
v 0.072611 0.106612 0.027423
v 0.075758 0.100512 0.023092
v 0.074789 0.100812 0.027421
v 0.076911 0.101282 0.007697
v 0.077624 0.100222 0.000017
v 0.057404 0.063291 0.027423
v 0.060594 0.063291 0.000012
v 0.058988 0.063291 0.027423
v 0.062147 0.063291 0.000012
v 0.073566 0.093311 0.027420
v 0.074546 0.093300 0.021801
v 0.076191 0.093217 0.000012
v 0.060673 0.063291 0.017688
vn -0.0000 -0.0000 1.0000
vn 0.0002 -0.0015 1.0000
vn 0.7900 0.6090 0.0704
vn 0.6158 0.7694 0.1699
vn 0.9786 -0.1773 0.1048
vn -0.1137 0.9934 -0.0162
vn -0.7353 0.6735 -0.0761
vn 0.3593 0.9328 0.0276
vn 0.9018 -0.4265 0.0697
vn 0.1554 0.9877 0.0141
vn -0.0000 1.0000 -0.0000
vn 0.7918 0.6105 0.0192
vn 0.9924 0.0946 0.0791
vn 0.9104 0.4028 0.0942
vn -0.0009 -0.0004 1.0000
vn 0.0012 0.0004 1.0000
vn -0.0004 -0.0023 1.0000
vn 0.0007 0.0011 1.0000
vn 0.0001 0.0001 1.0000
vn -0.0027 0.0050 1.0000
vn 0.0003 -0.0000 1.0000
vn -0.0000 0.0001 1.0000
vn -0.0000 -0.0002 1.0000
vn -0.0001 -0.0003 1.0000
vn 0.9804 -0.1793 0.0815
vn 0.9770 -0.1999 0.0745
vn 0.8888 -0.4316 0.1538
vn 0.8883 -0.4320 0.1559
vn 0.9766 -0.1823 0.1137
vn -0.1157 0.9932 -0.0162
vn -0.7101 0.7000 -0.0756
vn 0.9027 -0.4236 0.0753
vn 0.9614 -0.1567 0.2261
vn 0.9666 -0.1926 0.1690
vn 0.9344 0.3541 0.0378
vn 0.8925 0.4480 0.0522
vn 0.8307 0.5384 0.1416
vn 0.8324 0.5364 0.1393
vn 0.9205 0.3456 0.1820
vn 0.8821 0.4528 0.1303
vn 0.9117 0.4012 0.0884
vn -0.0005 0.0001 1.0000
vn 0.0005 -0.0001 1.0000
vn 0.0003 -0.0002 1.0000
vn 0.0031 0.0020 1.0000
vn 0.8298 0.5403 0.1398
vn -0.0002 0.0004 -1.0000
vn -0.0017 0.0043 -1.0000
vn -0.7351 0.6734 -0.0783
vn -0.7102 0.7001 -0.0737
vn 0.9776 -0.1825 0.1047
vn 0.9776 -0.1771 0.1138
vn 0.8887 -0.4319 0.1538
vn 0.8886 -0.4315 0.1559
vn 0.0002 -0.0002 1.0000
vn 0.8322 0.5362 0.1408
vn 0.8323 0.5507 0.0638
vn 0.9101 0.4054 0.0852
vn -0.0024 -0.0001 1.0000
vn -0.0002 0.0001 1.0000
vn 0.0003 -0.0001 1.0000
vn 0.9012 -0.4269 0.0752
vn 0.9031 -0.4238 0.0698
s 0
f 23//1 18//1 20//1
f 8//2 1//2 6//2
f 11//3 9//3 3//3
f 1//4 8//4 3//4
f 18//5 5//5 6//5
f 1//6 4//6 2//6
f 2//7 5//7 7//7
f 9//8 4//8 3//8
f 22//9 24//9 23//9
f 4//10 1//10 3//10
f 18//11 17//11 24//11
f 4//12 9//12 10//12
f 13//13 16//13 15//13
f 11//14 12//14 13//14
f 18//1 23//1 5//1
f 23//15 16//15 5//15
f 2//16 10//16 4//16
f 2//17 5//17 10//17
f 10//18 5//18 16//18
f 12//19 8//19 6//19
f 1//20 7//20 6//20
f 6//21 17//21 21//21
f 17//22 19//22 21//22
f 21//23 14//23 6//23
f 14//24 12//24 6//24
f 16//25 13//25 22//25
f 23//26 16//26 22//26
f 19//27 24//27 21//27
f 24//28 22//28 21//28
f 18//29 6//29 17//29
f 2//30 7//30 1//30
f 5//31 6//31 7//31
f 24//32 20//32 23//32
f 20//11 18//11 24//11
f 24//11 17//11 19//11
f 13//33 14//33 21//33
f 21//34 22//34 13//34
f 15//35 16//35 10//35
f 9//36 11//36 15//36
f 11//37 3//37 12//37
f 3//38 8//38 12//38
f 12//39 14//39 13//39
f 10//40 9//40 15//40
f 13//41 15//41 11//41
f 6//42 17//42 1//42
f 17//1 19//1 1//1
f 19//43 21//43 1//43
f 21//44 12//44 1//44
f 12//45 8//45 1//45
f 8//46 11//46 3//46
f 10//47 5//47 4//47
f 5//48 2//48 4//48
f 5//49 6//49 2//49
f 6//50 7//50 2//50
f 5//51 6//51 17//51
f 18//11 19//11 24//11
f 18//11 17//11 19//11
f 5//52 17//52 18//52
f 24//53 22//53 19//53
f 22//54 21//54 19//54
f 14//55 12//55 21//55
f 11//56 8//56 12//56
f 11//57 10//57 9//57
f 15//58 10//58 11//58
f 16//59 10//59 23//59
f 23//60 10//60 20//60
f 20//1 10//1 18//1
f 18//61 10//61 5//61
f 20//62 22//62 24//62
f 20//63 23//63 22//63
