# Blender 4.0.0
# www.blender.org
o decimated_mesh
v -0.052562 0.069768 0.047444
v -0.054340 0.069768 0.047444
v -0.061617 0.069760 0.000016
v -0.045114 0.040346 0.047444
v -0.049137 0.006978 0.000016
v -0.063294 0.069768 0.000016
v -0.045104 0.031034 0.047406
v -0.041150 0.006978 0.039918
v -0.052122 0.007043 0.000017
v -0.058046 0.069768 0.038273
v -0.050973 0.052964 0.047444
v -0.045138 0.019112 0.044146
v -0.044660 0.007033 0.039910
v -0.047350 0.037442 0.047421
v -0.051044 0.007001 0.013177
v -0.046897 0.007096 0.034353
v -0.061876 0.069768 0.017695
vn -0.0001 -0.0000 -1.0000
vn -0.0063 -0.0029 1.0000
vn 0.8830 -0.0009 0.4693
vn -0.0219 -0.9998 -0.0014
vn 0.9578 0.1904 -0.2152
vn -0.9126 -0.1851 0.3645
vn 0.2129 -0.2583 0.9423
vn -0.0073 -0.3311 0.9436
vn 0.0048 1.0000 -0.0004
vn -0.9814 -0.1748 0.0798
vn -0.8277 -0.1940 0.5266
vn -0.0002 -0.0000 -1.0000
vn -0.0049 -0.0041 1.0000
vn -0.0000 -0.0000 1.0000
vn 0.0157 0.9999 0.0051
vn 0.0307 0.9995 -0.0105
vn -0.0052 -1.0000 0.0010
vn 0.9532 0.2413 -0.1820
vn 0.9681 0.1587 -0.1938
vn -0.9123 -0.1853 0.3652
vn -0.9116 -0.1826 0.3684
vn -0.5952 -0.2104 0.7756
vn -0.9665 -0.1832 0.1799
vn -0.9651 -0.1802 0.1898
vn -0.0000 1.0000 -0.0000
vn 0.0014 1.0000 -0.0004
vn -0.9814 -0.1750 0.0787
vn -0.8688 -0.1941 0.4556
vn 0.0048 1.0000 -0.0011
vn -0.0001 1.0000 -0.0000
vn -0.9815 -0.1748 0.0787
vn -0.9813 -0.1751 0.0798
vn -0.9671 -0.1799 0.1800
vn -0.9646 -0.1834 0.1897
vn 0.0157 0.9999 -0.0049
vn 0.0764 0.9969 -0.0194
s 0
f 3//1 5//1 9//1
f 11//2 14//2 4//2
f 4//3 7//3 8//3
f 15//4 9//4 5//4
f 3//5 4//5 5//5
f 16//6 11//6 10//6
f 8//7 7//7 12//7
f 8//8 12//8 13//8
f 3//9 6//9 17//9
f 6//10 9//10 15//10
f 14//11 11//11 12//11
f 9//12 6//12 3//12
f 14//13 7//13 4//13
f 4//14 1//14 11//14
f 1//14 2//14 11//14
f 13//15 8//15 16//15
f 16//16 8//16 15//16
f 8//17 15//17 5//17
f 1//18 4//18 3//18
f 4//19 8//19 5//19
f 13//20 11//20 16//20
f 11//21 2//21 10//21
f 14//22 12//22 7//22
f 10//23 17//23 16//23
f 16//24 17//24 15//24
f 17//25 10//25 1//25
f 10//25 2//25 1//25
f 1//26 3//26 17//26
f 15//27 17//27 6//27
f 11//28 13//28 12//28
f 2//14 11//14 4//14
f 2//14 4//14 1//14
f 3//29 6//29 1//29
f 6//25 17//25 2//25
f 6//25 2//25 1//25
f 17//30 10//30 2//30
f 9//31 17//31 6//31
f 9//32 15//32 17//32
f 15//33 10//33 17//33
f 15//34 16//34 10//34
f 13//35 8//35 15//35
f 13//36 15//36 16//36
