# Blender 4.0.0
# www.blender.org
o decimated_mesh
v -0.068876 0.109269 0.000006
v -0.069714 0.110225 0.000006
v -0.070855 0.110609 0.000010
v -0.070866 0.107934 0.000006
v -0.047886 0.006787 0.000012
v -0.047886 0.110627 -0.061399
v -0.057789 0.111093 -0.059177
v -0.052304 0.007469 0.000013
v -0.070866 0.104129 -0.033502
v -0.047891 0.005191 0.000013
v -0.040384 0.010322 -0.043301
v -0.047889 0.105373 -0.061402
v -0.052431 0.110940 -0.061402
v -0.056742 0.110648 -0.061402
v -0.070866 0.107778 -0.033502
v -0.063140 0.105197 -0.056286
v -0.047892 0.007229 -0.030049
v -0.051086 0.007269 -0.013730
v -0.043516 0.010320 -0.043287
v -0.048014 0.005279 -0.015779
v -0.047886 0.005769 -0.024257
v -0.057891 0.106814 -0.061402
v -0.057891 0.110691 -0.060602
v -0.061625 0.110674 -0.056197
v -0.063152 0.110630 -0.052518
v -0.069165 0.110616 -0.032787
v -0.070860 0.110620 -0.022192
v -0.063140 0.108514 -0.056286
v -0.044681 0.010322 -0.041648
v -0.047631 0.010124 -0.034344
v -0.050914 0.005581 0.000012
v -0.050417 0.005946 -0.012473
v -0.057887 0.109994 -0.061397
vn -0.7911 -0.2407 -0.5624
vn -0.0658 0.9720 -0.2256
vn 0.0321 0.9692 0.2443
vn 0.7259 0.6358 0.2622
vn -0.8127 -0.5610 -0.1577
vn -0.9531 -0.2339 -0.1921
vn -0.8287 -0.4395 -0.3466
vn -0.9470 -0.0000 -0.3211
vn -0.1445 0.9549 -0.2592
vn 0.9854 -0.0029 0.1704
vn -0.0044 -0.1874 -0.9823
vn 0.9231 -0.0004 -0.3846
vn -0.6976 0.0020 -0.7164
vn -0.7712 0.5540 -0.3136
vn -0.6172 0.5899 -0.5207
vn -0.1418 0.9889 -0.0433
vn 0.0006 0.0005 -1.0000
vn -0.1017 0.9944 -0.0303
vn -0.3965 0.6891 -0.6066
vn -0.9831 -0.1816 0.0206
vn -0.2886 0.9267 -0.2409
vn -0.6735 0.4951 -0.5488
vn -0.6411 -0.2328 -0.7313
vn -0.8034 0.5429 -0.2445
vn -0.7686 -0.6205 -0.1557
vn 0.5288 -0.8487 -0.0089
vn 0.4312 -0.9011 -0.0455
vn 0.9784 0.1053 0.1780
vn -0.4917 -0.7978 -0.3489
vn -0.8997 -0.2321 -0.3697
vn -0.0004 0.0002 1.0000
vn -1.0000 0.0038 0.0002
vn -0.3188 -0.9470 -0.0405
vn 0.9277 0.1900 0.3213
vn 0.0005 0.9738 0.2275
vn -0.9632 -0.1920 -0.1880
vn -0.0271 -0.1883 -0.9817
vn -0.6980 -0.0000 -0.7161
vn 0.0050 1.0000 0.0005
vn -0.0470 0.9989 -0.0022
vn -0.0000 -0.0000 -1.0000
vn -0.0057 0.0016 -1.0000
vn 0.0001 -0.0002 -1.0000
vn 0.3173 0.9408 0.1190
vn -0.1279 -0.9918 -0.0045
vn -0.9729 -0.2157 -0.0831
vn -0.8621 -0.5019 -0.0691
vn -0.8044 -0.5921 -0.0494
vn -0.8384 0.4741 -0.2690
vn -0.8349 0.5338 -0.1337
vn -0.9196 -0.2244 -0.3223
vn -0.0002 -0.0001 -1.0000
vn -0.0001 -0.0000 -1.0000
vn -0.0030 0.0015 -1.0000
vn -0.0000 -0.0001 -1.0000
vn -0.0000 -0.0008 1.0000
vn -1.0000 -0.0000 0.0005
vn -1.0000 0.0010 -0.0001
vn -0.3422 -0.9378 -0.0593
vn 0.0684 0.9930 0.0964
vn 0.0515 0.9985 0.0195
vn -0.0005 -0.0012 1.0000
vn 0.0002 0.0002 1.0000
vn 0.0002 0.0001 1.0000
vn -0.0082 -0.0014 1.0000
vn -0.9545 -0.2329 -0.1862
vn 0.0024 0.0006 1.0000
vn 0.0049 0.0042 1.0000
vn 0.0688 0.9973 0.0260
vn 0.0352 0.9993 0.0160
vn -0.0348 0.9994 0.0005
vn -1.0000 0.0020 -0.0000
vn -1.0000 -0.0000 -0.0000
vn -0.9487 -0.2326 -0.2144
vn -0.0545 -0.9682 -0.2441
vn -0.0005 -0.9725 -0.2327
vn 0.0003 -0.0030 -1.0000
vn 0.0003 0.0005 -1.0000
vn -0.1460 0.9881 -0.0488
vn -0.1363 0.9898 -0.0409
vn -0.0677 0.9976 -0.0111
s 0
f 29//1 16//1 19//1
f 13//2 14//2 7//2
f 11//3 17//3 21//3
f 1//4 6//4 2//4
f 17//5 32//5 18//5
f 18//6 9//6 30//6
f 29//7 17//7 30//7
f 16//8 15//8 28//8
f 7//9 14//9 23//9
f 5//10 10//10 11//10
f 19//11 12//11 11//11
f 6//12 11//12 12//12
f 22//13 28//13 33//13
f 25//14 24//14 28//14
f 33//15 24//15 23//15
f 7//16 24//16 26//16
f 13//17 6//17 12//17
f 26//18 24//18 25//18
f 14//19 33//19 23//19
f 8//20 4//20 9//20
f 7//21 23//21 24//21
f 24//22 33//22 28//22
f 16//23 22//23 19//23
f 25//24 15//24 26//24
f 32//25 17//25 21//25
f 20//26 11//26 10//26
f 21//27 11//27 20//27
f 11//28 6//28 5//28
f 17//29 29//29 19//29
f 16//30 29//30 30//30
f 31//31 10//31 5//31
f 3//32 27//32 4//32
f 20//33 31//33 32//33
f 5//34 6//34 1//34
f 17//35 11//35 19//35
f 17//36 18//36 30//36
f 16//8 9//8 15//8
f 19//37 22//37 12//37
f 22//38 16//38 28//38
f 26//39 27//39 3//39
f 3//40 7//40 26//40
f 12//41 22//41 13//41
f 22//42 33//42 14//42
f 14//43 13//43 22//43
f 3//44 2//44 6//44
f 31//45 20//45 10//45
f 8//46 9//46 18//46
f 8//47 18//47 32//47
f 32//48 31//48 8//48
f 25//49 28//49 15//49
f 27//50 26//50 15//50
f 9//51 16//51 30//51
f 5//52 8//52 1//52
f 1//53 4//53 2//53
f 2//54 4//54 3//54
f 4//55 1//55 8//55
f 8//56 31//56 5//56
f 15//57 9//57 27//57
f 9//58 4//58 27//58
f 21//59 20//59 32//59
f 6//60 13//60 7//60
f 7//61 3//61 6//61
f 31//62 10//62 8//62
f 10//63 5//63 8//63
f 5//64 3//64 8//64
f 3//65 4//65 8//65
f 9//66 17//66 18//66
f 1//67 3//67 5//67
f 1//68 2//68 3//68
f 6//69 13//69 3//69
f 13//70 7//70 3//70
f 7//71 27//71 3//71
f 27//72 15//72 4//72
f 15//73 9//73 4//73
f 30//74 17//74 9//74
f 19//75 21//75 17//75
f 19//76 11//76 21//76
f 14//77 13//77 6//77
f 12//78 14//78 6//78
f 24//79 25//79 7//79
f 25//80 26//80 7//80
f 26//81 27//81 7//81
f 22//55 14//55 12//55
