# Blender 4.0.0
# www.blender.org
o decimated_mesh
v 0.070393 0.069854 0.000012
v 0.055617 0.070005 0.059796
v 0.071257 0.069831 0.000016
v 0.053021 0.070055 0.059795
v 0.069389 0.069910 0.022988
v 0.066480 0.069910 0.038900
v 0.064670 0.069954 0.044363
v 0.060614 0.069983 0.054203
v 0.070179 0.071293 0.000012
v 0.052852 0.071088 0.059796
v 0.070742 0.070304 0.013189
v 0.060471 0.070265 0.055167
v 0.058261 0.070172 0.058324
v 0.056656 0.071281 0.059796
v 0.072331 0.073415 0.000012
v 0.063398 0.100598 0.059796
v 0.074606 0.093214 0.000012
v 0.066236 0.070375 0.041312
v 0.060009 0.079577 0.059796
v 0.068372 0.100526 0.048051
v 0.065358 0.100607 0.059795
v 0.070162 0.100529 0.048273
v 0.076256 0.093189 0.000024
v 0.065155 0.098449 0.059800
v 0.074541 0.093235 0.021626
v 0.071026 0.093984 0.042984
vn 0.0169 0.9888 -0.1483
vn -0.4371 0.8790 -0.1905
vn 0.4794 -0.8205 0.3114
vn 0.6089 -0.7915 0.0523
vn 0.8179 -0.2231 0.5303
vn -0.9200 0.3288 -0.2131
vn 0.9507 0.1419 0.2758
vn 0.7069 -0.6436 0.2933
vn 0.6123 -0.7625 0.2090
vn 0.9517 0.2977 0.0749
vn 0.9080 -0.3847 0.1660
vn -0.9431 0.1905 -0.2727
vn 0.9867 -0.0010 0.1624
vn 0.9142 -0.1748 0.3656
vn 0.5673 -0.2293 0.7910
vn 0.9194 -0.0859 0.3839
vn -0.0000 -0.0000 -1.0000
vn 0.9783 -0.1942 0.0721
vn 0.0159 0.9888 -0.1484
vn -0.0007 1.0000 -0.0070
vn -0.0043 1.0000 -0.0080
vn -0.0000 -0.0000 1.0000
vn 0.0005 0.0021 1.0000
vn -0.0005 -0.0017 1.0000
vn -0.0000 -0.0004 1.0000
vn -0.0017 0.0003 1.0000
vn 0.7995 -0.2352 0.5528
vn 0.9488 0.1542 0.2755
vn 0.0038 1.0000 -0.0023
vn 0.0273 0.9996 -0.0012
vn 0.0151 0.9999 0.0028
vn -0.0037 1.0000 -0.0093
vn 0.0105 0.9999 0.0014
vn 0.0191 0.9997 0.0130
vn 0.7612 -0.5684 0.3123
vn 0.9702 -0.2070 0.1256
vn 0.9649 -0.2035 0.1659
vn 0.9632 -0.2075 0.1710
vn 0.1278 -0.9847 0.1181
vn 0.9033 -0.2098 0.3742
vn 0.9040 -0.2113 0.3717
vn 0.4679 -0.3813 0.7973
vn 0.0072 -0.0008 -1.0000
vn -0.0015 0.0015 1.0000
vn -0.0044 -0.0006 1.0000
vn 0.9785 -0.1909 0.0781
vn 0.9569 -0.2865 0.0477
vn 0.0043 -0.0023 -1.0000
vn -0.0343 0.9994 -0.0062
vn 0.0064 1.0000 -0.0012
vn 0.0191 0.9998 0.0021
vn 0.0273 0.9996 0.0046
vn 0.9489 0.1542 0.2752
vn 0.9506 0.1419 0.2760
vn -0.0635 0.9976 -0.0291
vn -0.0015 1.0000 -0.0054
vn -0.0005 -0.0000 1.0000
vn 0.0024 -0.0012 1.0000
vn -0.0014 0.0005 1.0000
vn 0.9044 -0.2098 0.3715
vn 0.9029 -0.2116 0.3741
vn 0.0015 -0.0006 1.0000
s 0
f 22//1 17//1 20//1
f 16//2 20//2 17//2
f 12//3 13//3 8//3
f 5//4 3//4 11//4
f 19//5 12//5 24//5
f 10//6 16//6 17//6
f 4//7 1//7 9//7
f 8//8 7//8 12//8
f 6//9 18//9 7//9
f 22//10 25//10 23//10
f 6//11 5//11 18//11
f 17//12 9//12 10//12
f 26//13 25//13 22//13
f 26//14 22//14 24//14
f 19//15 14//15 13//15
f 22//16 21//16 24//16
f 9//17 17//17 15//17
f 23//18 11//18 15//18
f 22//19 23//19 17//19
f 21//20 22//20 20//20
f 20//21 16//21 21//21
f 16//22 10//22 19//22
f 21//23 16//23 24//23
f 4//24 2//24 10//24
f 10//25 2//25 14//25
f 14//22 19//22 10//22
f 19//26 24//26 16//26
f 19//27 13//27 12//27
f 4//28 9//28 10//28
f 4//29 5//29 1//29
f 5//30 3//30 1//30
f 5//31 4//31 6//31
f 6//32 4//32 7//32
f 7//33 4//33 8//33
f 8//34 4//34 2//34
f 18//35 12//35 7//35
f 5//36 11//36 25//36
f 25//37 26//37 5//37
f 5//38 26//38 18//38
f 2//39 8//39 13//39
f 12//40 18//40 26//40
f 12//41 26//41 24//41
f 14//42 2//42 13//42
f 23//43 15//43 17//43
f 15//44 9//44 3//44
f 3//45 9//45 1//45
f 25//46 11//46 23//46
f 11//47 3//47 15//47
f 1//48 15//48 3//48
f 5//49 3//49 6//49
f 6//50 3//50 2//50
f 2//51 3//51 4//51
f 4//52 3//52 1//52
f 9//17 15//17 1//17
f 4//53 1//53 10//53
f 10//54 1//54 9//54
f 7//55 6//55 8//55
f 8//56 6//56 2//56
f 14//57 24//57 2//57
f 24//57 4//57 2//57
f 24//58 10//58 4//58
f 24//59 16//59 10//59
f 24//60 18//60 26//60
f 24//61 12//61 18//61
f 19//62 24//62 14//62
