# Blender 4.0.0
# www.blender.org
o decimated_mesh
v 0.053627 0.110911 0.061966
v -0.025200 0.110725 0.069918
v 0.041463 0.110597 0.067689
v 0.064981 0.097713 0.059797
v 0.062967 0.097761 0.059800
v 0.024164 0.110620 0.070844
v 0.055701 0.110528 0.061975
v 0.063638 0.102216 0.061980
v 0.064090 0.100507 0.061966
v 0.057816 0.109360 0.061966
v 0.061517 0.106073 0.061967
v -0.039314 0.071293 0.065264
v 0.048467 0.110856 0.061963
v -0.024004 0.110625 0.070860
v -0.002593 0.110624 0.072525
v -0.000000 0.108964 0.073835
v 0.005007 0.110539 0.072444
v 0.042791 0.105843 0.070354
v 0.063200 0.101214 0.063215
v 0.063182 0.099303 0.063193
v 0.059249 0.106719 0.063091
v 0.054466 0.069943 0.059788
v -0.039314 0.107812 0.069901
v -0.031174 0.110082 0.069904
v 0.060303 0.102050 0.064800
v 0.060619 0.100507 0.064994
v 0.060497 0.098973 0.064923
v 0.060028 0.079511 0.059803
v -0.039312 0.069946 0.065656
v -0.023794 0.105923 0.073879
v -0.000766 0.106153 0.075518
v -0.039314 0.106173 0.070918
v 0.023470 0.105980 0.073882
v 0.041835 0.101426 0.072350
v 0.045323 0.101515 0.071205
v -0.039315 0.069921 0.066429
v 0.055896 0.070153 0.059813
v 0.055462 0.070046 0.060144
v -0.025033 0.101427 0.075467
v 0.024806 0.101492 0.075473
v 0.043073 0.100461 0.072184
v 0.041198 0.070311 0.066213
v -0.023020 0.069881 0.069539
v -0.028110 0.070492 0.068939
v 0.040371 0.069883 0.066139
v -0.039309 0.101133 0.072881
v -0.023730 0.100479 0.075751
v -0.000508 0.100887 0.077522
v 0.024681 0.100048 0.075677
v 0.007707 0.101269 0.076909
v 0.042753 0.099306 0.072233
v -0.003873 0.069862 0.071161
v -0.013488 0.070464 0.070768
v -0.039301 0.071709 0.067010
v -0.039314 0.098960 0.072823
v -0.025718 0.099578 0.075485
v 0.004024 0.069865 0.071158
v 0.023801 0.069906 0.069459
v -0.021582 0.073564 0.070766
v 0.000786 0.098965 0.077423
v 0.021571 0.073564 0.070768
v 0.013645 0.070488 0.070760
v 0.000786 0.073419 0.072331
vn -0.0743 0.0819 -0.9939
vn -0.3200 -0.3600 0.8763
vn -0.9646 -0.2546 -0.0682
vn -0.8103 0.0143 -0.5859
vn -0.3800 -0.1919 -0.9049
vn -0.1419 -0.2649 0.9538
vn -0.0759 0.7191 -0.6907
vn 0.3797 -0.2076 0.9015
vn 0.0131 0.9783 0.2069
vn 0.0780 -0.1867 -0.9793
vn -0.0028 -0.1696 0.9855
vn -0.0600 -0.2789 -0.9585
vn 0.0613 0.5175 0.8535
vn -0.8488 -0.2207 -0.4804
vn -0.0737 -0.3525 -0.9329
vn -1.0000 -0.0000 -0.0000
vn -0.0964 0.3470 -0.9329
vn -0.0736 -0.0180 -0.9971
vn -0.5152 -0.2103 -0.8308
vn -0.7989 -0.4380 0.4121
vn -0.0106 0.9966 -0.0816
vn -0.5703 0.0147 -0.8213
vn 0.0700 -0.3517 -0.9335
vn 0.1937 0.3019 -0.9335
vn -0.4960 -0.3950 -0.7733
vn -0.1506 0.5303 0.8343
vn 0.0009 0.9999 0.0132
vn -0.1463 0.9814 0.1247
vn 0.0694 0.5778 -0.8132
vn -0.6247 0.2750 -0.7308
vn 0.1792 -0.0760 -0.9809
vn 0.0760 0.1897 -0.9789
vn -0.0042 0.0009 1.0000
vn -0.1047 0.9660 0.2363
vn -0.1717 0.4803 -0.8601
vn -0.0812 -0.1328 -0.9878
vn 0.3791 -0.0652 0.9231
vn 0.0028 0.9991 0.0419
vn -0.0937 0.1254 -0.9877
vn -0.1755 0.1993 -0.9641
vn -0.1837 0.2300 -0.9557
vn -0.1880 0.2093 -0.9596
vn 0.1614 0.5197 -0.8390
vn -0.1860 -0.1794 0.9660
vn -0.1826 -0.2035 0.9619
vn -0.1790 -0.2053 0.9622
vn -0.8517 0.1237 -0.5092
vn -0.3786 -0.0499 -0.9242
vn -0.2989 -0.2235 -0.9278
vn 0.3687 -0.2136 0.9047
vn -0.8149 0.2216 -0.5356
vn 0.1647 0.9017 0.3997
vn -0.0011 0.1618 -0.9868
vn -0.0395 -0.1897 0.9811
vn -0.1066 0.2768 -0.9550
vn 0.0678 0.5394 0.8393
vn 0.0847 0.4948 0.8649
vn -0.0651 -0.3760 -0.9243
vn -0.0530 -0.3573 -0.9325
vn -1.0000 -0.0026 -0.0038
vn -1.0000 0.0002 -0.0006
vn -1.0000 0.0021 0.0078
vn -1.0000 -0.0000 0.0001
vn -0.5469 0.0823 -0.8332
vn 0.9968 0.0171 -0.0778
vn 0.0706 -0.3493 -0.9343
vn 0.3192 0.5279 0.7870
vn 0.2801 0.5008 0.8190
vn 0.3181 0.5296 0.7863
vn 0.1061 0.2766 -0.9551
vn 0.1441 0.2616 -0.9544
vn -0.5259 -0.3779 -0.7620
vn -0.0653 0.5366 0.8413
vn -0.0876 0.5292 0.8440
vn -0.0654 0.5371 0.8410
vn -0.1514 0.5293 0.8348
vn -0.1458 0.5218 0.8405
vn -0.1729 0.3699 0.9128
vn -0.1694 0.3575 0.9184
vn -0.0003 1.0000 0.0053
vn 0.0003 1.0000 0.0084
vn -0.0036 0.9995 0.0321
vn 0.0060 0.9997 0.0229
vn -0.0024 1.0000 -0.0039
vn -0.0592 0.9908 -0.1219
vn 0.1882 0.0274 0.9817
vn 0.1368 0.0047 0.9906
vn -0.1795 -0.1227 -0.9761
vn 0.0753 0.1260 -0.9892
vn 0.0739 0.1008 -0.9922
vn -0.5471 0.2253 -0.8062
vn -0.5322 0.2274 -0.8155
vn 0.1909 0.0259 -0.9813
vn 0.1636 -0.0702 -0.9840
vn -0.2821 0.6645 -0.6920
vn -0.7160 -0.3958 -0.5751
vn -0.0005 0.3131 -0.9497
vn -0.0569 0.2658 -0.9623
vn 0.0550 0.2462 -0.9677
vn -0.4912 -0.5531 -0.6729
vn 0.3571 0.3770 0.8546
vn 0.3501 0.3906 0.8514
vn -0.0730 0.0021 -0.9973
vn 0.0736 0.1917 -0.9787
vn 0.0668 0.1951 -0.9785
vn -0.0580 0.0181 -0.9982
vn 0.0012 -0.0000 1.0000
vn -0.0191 0.0095 0.9998
vn 0.0153 0.6341 0.7731
vn 0.1686 0.3754 0.9114
vn -0.2851 -0.3428 -0.8951
vn 0.1692 0.3735 0.9120
vn 0.0748 -0.1950 0.9779
vn -0.0801 0.1908 -0.9784
vn 0.0750 -0.1949 0.9779
vn 0.1544 0.5156 0.8428
vn 0.1566 0.5245 0.8369
vn -0.0091 0.9930 0.1178
vn -0.0710 0.5786 -0.8125
vn 0.3783 -0.0729 0.9228
vn 0.0185 0.9954 0.0939
vn 0.0008 0.9995 0.0317
vn -0.0406 -0.1960 0.9798
vn -0.0027 -0.1644 0.9864
vn -0.0645 0.5542 0.8299
vn 0.1534 0.5251 0.8371
vn 0.1574 0.5160 0.8420
vn 0.3156 0.5295 0.7874
vn 0.3114 0.5579 0.7693
vn -0.0062 0.0020 1.0000
vn 0.0012 -0.0008 1.0000
vn -1.0000 0.0001 -0.0007
vn -0.1518 0.5213 0.8398
vn -0.1496 0.5295 0.8350
vn -0.1513 0.5415 0.8270
vn -0.0671 0.5370 0.8409
vn -0.0656 0.5257 0.8481
vn 0.0619 0.5003 0.8637
vn 0.0662 0.5340 0.8429
vn 0.1687 0.3734 0.9122
vn 0.1691 0.3753 0.9114
vn 0.3531 0.3751 0.8571
vn 0.3541 0.3909 0.8496
vn 0.3233 0.5139 0.7946
vn 0.0005 0.9999 0.0107
vn 0.0020 0.9995 0.0321
vn -0.9999 0.0026 -0.0117
vn -1.0000 -0.0002 0.0019
vn 0.0005 0.9999 0.0103
vn -0.1735 0.3573 0.9177
vn -0.1684 0.3691 0.9140
vn 0.1847 0.0679 0.9804
vn 0.3785 -0.0650 0.9233
vn 0.3787 -0.0730 0.9226
vn 0.3693 -0.2079 0.9058
vn 0.3790 -0.2147 0.9002
vn -0.0047 0.9995 -0.0308
vn -0.0004 1.0000 0.0009
vn 0.0004 1.0000 0.0072
vn -0.1793 -0.2020 0.9628
vn -0.1878 -0.2050 0.9606
vn -0.1744 -0.2025 0.9636
vn 0.1868 -0.0095 0.9824
vn 0.0749 -0.1949 0.9779
vn 0.0749 -0.1953 0.9779
s 0
f 12//1 13//1 5//1
f 10//2 4//2 11//2
f 4//3 9//3 8//3
f 20//4 19//4 9//4
f 35//5 25//5 26//5
f 4//6 10//6 7//6
f 2//7 13//7 24//7
f 38//8 51//8 42//8
f 6//9 15//9 17//9
f 47//10 39//10 48//10
f 7//11 5//11 4//11
f 22//12 29//12 12//12
f 31//13 33//13 17//13
f 8//14 9//14 19//14
f 50//15 33//15 40//15
f 23//16 12//16 55//16
f 23//17 24//17 13//17
f 48//18 50//18 49//18
f 19//19 26//19 25//19
f 11//20 4//20 8//20
f 13//21 2//21 1//21
f 26//22 19//22 20//22
f 48//23 30//23 31//23
f 36//24 54//24 44//24
f 25//25 21//25 11//25
f 32//26 30//26 24//26
f 29//27 43//27 22//27
f 22//28 38//28 37//28
f 52//29 43//29 53//29
f 38//30 28//30 37//30
f 46//31 39//31 56//31
f 60//32 59//32 56//32
f 22//33 28//33 5//33
f 14//34 2//34 24//34
f 58//35 42//35 45//35
f 40//36 49//36 50//36
f 51//37 27//37 41//37
f 15//38 6//38 1//38
f 12//39 23//39 13//39
f 49//40 51//40 61//40
f 61//41 42//41 58//41
f 61//42 51//42 42//42
f 36//43 44//43 43//43
f 44//44 59//44 54//44
f 59//45 56//45 54//45
f 55//46 54//46 56//46
f 20//47 9//47 4//47
f 35//48 26//48 41//48
f 35//49 41//49 34//49
f 38//50 27//50 51//50
f 28//51 20//51 4//51
f 1//52 3//52 7//52
f 13//53 1//53 5//53
f 1//54 5//54 7//54
f 61//55 58//55 62//55
f 6//56 17//56 33//56
f 17//57 16//57 31//57
f 33//58 50//58 31//58
f 31//59 50//59 48//59
f 12//60 29//60 36//60
f 36//61 55//61 12//61
f 46//62 32//62 55//62
f 32//63 23//63 55//63
f 26//64 20//64 27//64
f 54//65 36//65 55//65
f 30//66 48//66 39//66
f 18//67 21//67 7//67
f 7//68 21//68 10//68
f 7//69 3//69 18//69
f 53//70 43//70 59//70
f 59//71 43//71 44//71
f 25//72 11//72 19//72
f 30//73 31//73 15//73
f 31//74 16//74 15//74
f 15//75 14//75 30//75
f 14//76 24//76 30//76
f 24//77 23//77 32//77
f 46//78 39//78 30//78
f 30//79 32//79 46//79
f 57//80 22//80 52//80
f 52//81 22//81 43//81
f 43//82 29//82 36//82
f 45//83 22//83 58//83
f 58//84 22//84 57//84
f 38//85 22//85 45//85
f 49//86 51//86 34//86
f 51//87 41//87 34//87
f 34//88 49//88 40//88
f 56//89 47//89 60//89
f 47//90 48//90 60//90
f 28//91 27//91 20//91
f 27//92 28//92 38//92
f 55//93 46//93 56//93
f 56//94 39//94 47//94
f 38//95 45//95 42//95
f 8//96 19//96 11//96
f 52//97 63//97 57//97
f 57//98 63//98 62//98
f 53//99 63//99 52//99
f 11//100 21//100 10//100
f 21//101 18//101 35//101
f 35//102 25//102 21//102
f 49//103 60//103 48//103
f 59//104 60//104 53//104
f 53//105 60//105 63//105
f 22//106 12//106 5//106
f 5//107 28//107 4//107
f 28//108 22//108 37//108
f 17//109 15//109 16//109
f 40//110 34//110 18//110
f 34//111 18//111 35//111
f 18//112 33//112 40//112
f 62//113 61//113 60//113
f 61//114 60//114 49//114
f 60//115 63//115 62//115
f 3//116 6//116 18//116
f 6//117 33//117 18//117
f 14//118 15//118 2//118
f 62//119 58//119 57//119
f 26//120 41//120 27//120
f 6//121 3//121 1//121
f 1//122 2//122 15//122
f 7//123 1//123 4//123
f 4//124 1//124 5//124
f 14//125 16//125 15//125
f 33//126 3//126 6//126
f 33//127 18//127 3//127
f 18//128 10//128 3//128
f 10//129 7//129 3//129
f 28//130 4//130 22//130
f 22//131 4//131 5//131
f 36//132 23//132 12//132
f 36//16 32//16 23//16
f 32//133 30//133 23//133
f 30//134 14//134 23//134
f 14//135 24//135 23//135
f 30//136 16//136 14//136
f 30//137 31//137 16//137
f 31//138 33//138 16//138
f 33//139 17//139 16//139
f 40//140 34//140 33//140
f 34//141 18//141 33//141
f 35//142 25//142 18//142
f 25//143 21//143 18//143
f 21//144 10//144 18//144
f 45//145 22//145 36//145
f 36//146 22//146 29//146
f 55//147 46//147 36//147
f 46//148 32//148 36//148
f 45//149 36//149 43//149
f 46//150 39//150 32//150
f 39//151 30//151 32//151
f 49//152 41//152 34//152
f 41//153 51//153 26//153
f 51//154 27//154 26//154
f 51//155 42//155 27//155
f 42//156 38//156 27//156
f 58//157 45//157 57//157
f 57//158 45//158 52//158
f 52//159 45//159 43//159
f 56//160 55//160 44//160
f 55//161 54//161 44//161
f 59//162 56//162 44//162
f 51//163 41//163 49//163
f 63//164 61//164 60//164
f 63//165 62//165 61//165
