# Blender 4.0.0
# www.blender.org
o decimated_mesh
v 0.000021 0.010321 -0.052760
v -0.000037 0.007460 -0.052297
v 0.052760 0.010328 0.000153
v 0.042261 0.008098 -0.043701
v 0.040375 0.008098 -0.044787
v 0.035995 0.008101 -0.046608
v 0.031082 0.008103 -0.047979
v 0.014138 0.006761 -0.050842
v -0.012801 0.006048 -0.050492
v -0.047876 0.010321 -0.025012
v 0.041552 0.010321 0.044603
v 0.043478 0.010321 0.043328
v 0.044645 0.010320 0.041670
v 0.047601 0.010321 0.034027
v 0.051424 0.010321 0.014617
v 0.052294 0.007456 0.000066
v 0.051008 0.006778 -0.011759
v 0.046598 0.006741 -0.034186
v 0.042368 0.007012 -0.043187
v 0.040159 0.007297 -0.044678
v 0.043991 0.006793 -0.040657
v 0.036566 0.007320 -0.046188
v 0.031697 0.007428 -0.047677
v 0.012760 0.006078 -0.050524
v -0.015365 0.005686 -0.049586
v -0.014638 0.007353 -0.051085
v -0.047816 0.010328 -0.033822
v -0.051965 0.006978 0.000093
v -0.051021 0.006962 0.012738
v -0.046697 0.006967 0.034430
v -0.043564 0.006970 0.041764
v 0.024160 0.010321 0.048050
v 0.032669 0.010325 0.047968
v 0.040067 0.007352 0.044635
v 0.043068 0.007435 0.043017
v 0.046253 0.007308 0.036327
v 0.051134 0.007331 0.013165
v 0.050489 0.005887 -0.011146
v 0.046145 0.005902 -0.033863
v 0.041046 0.005896 -0.043080
v 0.044262 0.006054 -0.038910
v 0.043034 0.005823 -0.040935
v 0.033848 0.005924 -0.046172
v 0.017123 0.005755 -0.049520
v 0.000137 0.005707 -0.051068
v -0.016101 0.010321 -0.051418
v -0.050634 0.006014 0.010893
v -0.046143 0.005901 0.033860
v -0.044084 0.006199 0.039459
v -0.042973 0.005836 0.040905
v -0.041775 0.006973 0.043570
v -0.035271 0.006975 0.046442
v -0.031422 0.006978 0.047438
v 0.029708 0.007497 0.048002
v 0.035537 0.007138 0.046347
v 0.039019 0.006038 0.044203
v 0.042851 0.005796 0.041170
v 0.044669 0.007300 0.040155
v 0.040859 0.005812 0.043055
v 0.047683 0.007409 0.030850
v 0.050650 0.005940 0.010675
v 0.051046 0.005724 -0.001363
v 0.041738 0.005638 -0.041831
v 0.000115 0.005362 -0.050060
v -0.034081 0.005846 -0.045910
v -0.047742 0.007348 -0.031168
v -0.051045 0.005705 0.000248
v -0.049654 0.005764 0.015434
v -0.045196 0.005395 0.032470
v -0.041699 0.005659 0.041841
v -0.041010 0.005872 0.043003
v -0.033771 0.005881 0.046145
v -0.012381 0.005249 0.048004
v 0.033839 0.005895 0.046149
v 0.046119 0.005871 0.033798
v 0.049623 0.005712 0.014859
v 0.050103 0.005374 -0.000511
v 0.048405 0.005344 -0.014982
v -0.038758 0.005972 -0.044275
v -0.036017 0.007248 -0.046299
v -0.047799 0.005809 -0.025070
v -0.046125 0.005865 -0.033769
v -0.046263 0.007293 -0.036359
v -0.047265 0.005334 -0.020853
v -0.049999 0.005351 0.000659
v -0.027904 0.005957 0.047434
v -0.024321 0.005544 0.047413
v 0.042281 0.005308 -0.039202
v 0.039206 0.005328 -0.042290
v -0.039214 0.005307 -0.042290
v -0.040840 0.005802 -0.043052
v -0.035057 0.010321 -0.047297
v -0.040065 0.007346 -0.044649
v -0.042984 0.005816 -0.041007
v -0.045375 0.005511 -0.033054
v -0.044667 0.010321 -0.041639
v -0.044482 0.007337 -0.040611
v -0.042289 0.005329 0.039218
v -0.039214 0.005327 0.042297
v 0.023754 0.005760 0.048051
v 0.039216 0.005320 0.042287
v 0.042281 0.005327 0.039218
v -0.041857 0.005645 -0.041729
v -0.043065 0.007433 -0.043030
v -0.041619 0.010321 -0.044566
v -0.042300 0.005328 -0.039212
v -0.043567 0.010321 -0.043232
v 0.016144 0.005325 0.048050
vn -0.6465 0.7629 -0.0037
vn -0.3145 -0.9469 -0.0666
vn 0.1008 0.9653 -0.2408
vn 0.1583 0.0982 -0.9825
vn -0.8738 -0.4820 0.0646
vn 0.9828 -0.1566 -0.0979
vn 0.9682 0.1619 -0.1907
vn 0.6538 0.7315 -0.1937
vn 0.8721 0.3433 -0.3486
vn -0.1672 -0.8969 -0.4095
vn 0.9234 -0.1404 0.3571
vn -0.2035 -0.9786 0.0321
vn 0.2642 -0.1833 -0.9469
vn 0.1418 -0.9302 -0.3385
vn -0.6825 -0.6328 0.3656
vn -0.3370 -0.9305 0.1431
vn 0.8434 -0.2354 0.4830
vn 0.6875 -0.5382 -0.4875
vn -0.3784 -0.1725 -0.9094
vn 0.0465 -0.8744 -0.4830
vn -0.3111 -0.6220 0.7186
vn -0.4680 -0.2208 -0.8557
vn 0.1368 0.8617 -0.4886
vn 0.5049 -0.6742 0.5391
vn 0.7060 -0.5689 0.4219
vn -0.0593 0.9893 0.1336
vn -0.1592 -0.9744 0.1585
vn -0.5368 -0.6691 0.5139
vn -0.3315 -0.5279 -0.7819
vn 0.3867 -0.8370 -0.3871
vn 0.8317 -0.5303 0.1647
vn -0.7931 -0.5931 0.1386
vn -0.8796 -0.4593 -0.1243
vn -0.1318 -0.9361 -0.3262
vn -0.7925 -0.5895 -0.1563
vn 0.1815 -0.9670 0.1790
vn 0.3193 -0.9384 0.1320
vn -0.5845 -0.7699 0.2560
vn -0.4014 -0.8287 0.3899
vn -0.0000 1.0000 -0.0000
vn 0.4106 -0.5413 0.7337
vn 0.5146 -0.8295 -0.2170
vn 0.4837 -0.2441 -0.8405
vn -0.9804 -0.1440 -0.1342
vn 0.4674 -0.2245 0.8551
vn -0.3005 0.9519 0.0597
vn -0.9302 -0.2568 -0.2623
vn -0.1378 0.9887 0.0585
vn -0.0550 -0.5210 0.8518
vn -0.0248 -0.9909 -0.1324
vn 0.7207 -0.6185 0.3131
vn -0.5585 -0.1539 -0.8151
vn 0.3499 -0.1550 0.9239
vn -0.0658 -0.9704 0.2326
vn 0.3101 -0.6121 -0.7274
vn 0.3763 -0.2232 -0.8992
vn -0.8336 -0.5012 -0.2322
vn -0.0609 0.9707 0.2325
vn 0.0011 1.0000 0.0013
vn -0.0968 -0.8653 0.4918
vn 0.2135 -0.8351 0.5070
vn 0.8024 -0.5757 -0.1568
vn -0.4277 -0.9029 0.0427
vn -0.4849 0.8738 0.0374
vn 0.7824 -0.5411 -0.3083
vn 0.0548 -0.9737 0.2211
vn -0.6967 -0.5738 -0.4306
vn 0.0084 -0.0004 1.0000
vn 0.5443 -0.1660 0.8223
vn -0.1676 -0.5805 0.7968
vn 0.8217 -0.1755 -0.5423
vn -0.3771 -0.8402 -0.3897
vn -0.5061 -0.6835 -0.5260
vn -0.7987 -0.2397 -0.5519
vn -0.1272 -0.9913 -0.0341
vn 0.0339 0.9977 -0.0588
vn 0.4131 -0.5588 -0.7191
vn -0.3174 -0.9392 -0.1314
vn -0.3694 -0.9266 -0.0706
vn -0.3069 -0.9510 -0.0383
vn -0.3906 -0.9190 -0.0538
vn -0.3325 -0.9425 0.0341
vn -0.8123 -0.5813 0.0482
vn 0.8051 -0.1755 0.5666
vn 0.9089 -0.1810 0.3757
vn -0.7169 -0.6260 -0.3067
vn -0.7172 -0.6256 -0.3070
vn 0.1676 -0.9430 -0.2875
vn 0.0274 -0.9895 -0.1419
vn 0.0549 -0.9728 -0.2252
vn -0.0297 -0.9454 -0.3246
vn 0.0321 -0.9457 -0.3234
vn -0.3769 -0.9229 0.0787
vn -0.3157 -0.9404 0.1267
vn -0.2628 -0.9482 0.1785
vn -0.3751 -0.1783 -0.9097
vn -0.3228 -0.6009 0.7313
vn -0.1404 -0.7163 -0.6836
vn 0.9860 -0.1397 0.0910
vn 0.9830 -0.1622 0.0855
vn 0.0520 -0.5698 -0.8201
vn 0.0617 -0.5207 -0.8515
vn -0.5391 -0.6504 0.5351
vn -0.2794 -0.5949 -0.7537
vn -0.0820 -0.1510 -0.9851
vn -0.0805 -0.1576 -0.9842
vn 0.8607 -0.4610 0.2162
vn 0.8107 -0.5640 0.1572
vn -0.8114 -0.5616 0.1619
vn -0.8374 -0.5216 0.1634
vn -0.0511 -0.9747 -0.2176
vn -0.1741 -0.9532 -0.2470
vn -0.7998 -0.5910 -0.1050
vn 0.2033 -0.9781 0.0458
vn -0.0542 0.9972 0.0522
vn -0.0005 1.0000 -0.0009
vn 0.0006 1.0000 0.0003
vn 0.0003 1.0000 0.0002
vn -0.0003 1.0000 -0.0005
vn 0.0007 1.0000 0.0005
vn 0.0002 1.0000 0.0002
vn -0.0008 1.0000 -0.0008
vn -0.0006 1.0000 -0.0012
vn 0.0015 1.0000 0.0008
vn -0.0543 0.9971 0.0535
vn -0.0002 1.0000 -0.0000
vn 0.3906 -0.5535 0.7356
vn 0.1671 -0.5676 -0.8062
vn 0.1313 -0.6234 -0.7708
vn 0.1671 -0.5656 -0.8076
vn 0.4984 -0.3302 -0.8016
vn -0.9156 -0.1604 -0.3687
vn -0.9053 -0.1874 -0.3811
vn 0.1809 -0.2600 -0.9485
vn 0.0929 -0.1609 -0.9826
vn 0.2454 -0.4874 -0.8380
vn 0.7133 -0.5990 -0.3638
vn 0.1634 -0.5367 0.8278
vn 0.2201 -0.4400 0.8706
vn -0.1876 -0.4944 -0.8488
vn -0.1646 -0.5903 -0.7902
vn 0.2737 -0.2925 -0.9163
vn 0.8925 -0.4449 0.0748
vn 0.3237 -0.5185 0.7914
vn 0.3079 -0.5454 0.7796
vn 0.2543 -0.9517 -0.1718
vn 0.3291 -0.9347 -0.1343
vn 0.3737 -0.9247 -0.0721
vn 0.3200 -0.9468 -0.0341
vn 0.3112 -0.9497 -0.0346
vn 0.2266 -0.9724 -0.0559
vn 0.3702 -0.9285 0.0289
vn 0.3365 -0.9412 0.0312
vn 0.9651 -0.1802 0.1901
vn 0.9411 -0.2368 0.2413
vn 0.9643 -0.1852 0.1890
vn 0.5288 -0.6760 -0.5133
vn 0.2501 -0.2505 0.9352
vn 0.7007 -0.6525 0.2884
vn -0.0432 -0.1525 0.9874
vn 0.7149 -0.6855 0.1380
vn 0.3554 -0.1677 0.9195
vn -0.1471 -0.9282 0.3416
vn -0.1770 -0.9441 0.2780
vn -0.0310 -0.9907 0.1323
vn 0.2974 -0.6301 -0.7173
vn 0.7961 -0.6040 0.0371
vn 0.1474 -0.9772 -0.1529
vn -0.1565 -0.9762 -0.1503
vn -0.0685 -0.4908 -0.8686
vn -0.0515 -0.5767 -0.8153
vn 0.3751 -0.2110 -0.9027
vn 0.1383 -0.9900 0.0261
vn -0.0086 -1.0000 -0.0020
vn -0.0018 1.0000 -0.0019
vn 0.0011 1.0000 -0.0010
vn 0.0105 0.9999 -0.0041
vn 0.0020 1.0000 -0.0023
vn 0.0003 1.0000 0.0012
vn 0.0010 1.0000 0.0033
vn -0.0026 1.0000 -0.0008
vn 0.0016 1.0000 0.0059
vn -0.0165 0.9997 0.0169
vn 0.0055 1.0000 -0.0022
vn -0.0011 1.0000 -0.0009
vn -0.0012 1.0000 0.0010
vn 0.8325 -0.5509 -0.0590
vn 0.8449 -0.5319 -0.0571
vn 0.8412 -0.5162 -0.1612
vn -0.2108 -0.2418 -0.9472
vn -0.2077 -0.2097 -0.9555
vn 0.8102 -0.4841 -0.3303
vn 0.0556 -0.9731 0.2234
vn 0.1895 -0.9596 0.2082
vn 0.1303 -0.9381 0.3210
vn -0.2497 -0.9543 -0.1640
vn -0.3209 -0.9378 -0.1324
vn 0.0096 0.0021 1.0000
vn -0.0183 0.1232 0.9922
vn -0.0016 0.0026 1.0000
vn -0.0003 0.0004 1.0000
vn -0.0443 -0.8782 -0.4763
vn -0.2138 -0.5183 0.8280
vn -0.8454 -0.1818 -0.5023
vn 0.0683 0.9953 -0.0682
vn -0.8042 -0.4849 0.3436
vn -0.7653 -0.5633 0.3114
vn -0.4092 -0.5485 -0.7291
vn -0.3836 -0.5638 -0.7314
vn -0.0000 1.0000 -0.0005
vn 0.0001 1.0000 -0.0002
vn 0.0667 0.9955 -0.0666
vn 0.0827 0.9861 -0.1438
vn -0.0002 1.0000 -0.0008
vn -0.0008 1.0000 0.0008
vn -0.0005 1.0000 0.0005
vn -0.0000 1.0000 0.0001
vn -0.0003 1.0000 -0.0008
vn -0.0012 1.0000 -0.0013
vn -0.0023 1.0000 -0.0019
vn 0.0005 1.0000 0.0003
vn 0.0007 1.0000 0.0003
vn 0.0046 1.0000 0.0009
vn -0.0556 0.9970 0.0536
vn -0.0013 0.0005 1.0000
vn 0.0011 1.0000 0.0017
vn -0.8093 -0.1795 -0.5593
vn -0.8371 -0.2239 -0.4991
vn -0.7174 -0.6255 -0.3069
vn 0.0010 1.0000 0.0004
vn 0.8317 -0.5523 -0.0567
vn 0.8434 -0.5338 -0.0611
vn 0.8038 -0.5746 -0.1541
vn 0.8402 -0.5168 -0.1643
vn 0.3060 -0.6253 -0.7179
vn 0.3056 -0.6035 -0.7365
vn -0.0005 1.0000 0.0068
vn -0.0002 1.0000 0.0058
vn -0.0000 1.0000 0.0007
vn 0.0027 1.0000 -0.0002
vn 0.0029 1.0000 -0.0002
vn -0.8086 -0.5666 0.1583
vn -0.8360 -0.5227 0.1668
vn -0.0017 0.0250 0.9997
vn 0.0556 -0.9726 0.2256
vn 0.0036 1.0000 -0.0031
vn -0.0014 1.0000 -0.0002
vn -0.0026 0.9999 -0.0113
vn -0.7169 -0.6260 -0.3069
vn -0.3203 -0.9380 -0.1326
vn -0.3179 -0.9391 -0.1308
vn -0.3647 -0.9280 -0.0762
vn -0.3279 -0.9425 -0.0644
vn 0.7373 -0.6035 0.3037
vn 0.7023 -0.6434 0.3047
vn -0.0049 1.0000 -0.0002
vn -0.0025 1.0000 -0.0002
vn 0.0402 0.9992 -0.0075
vn 0.0041 1.0000 -0.0002
vn 0.0552 -0.9735 0.2217
vn -0.0103 0.9999 -0.0009
s 0
f 28//1 10//1 27//1
f 81//2 82//2 84//2
f 1//3 5//3 6//3
f 1//4 7//4 8//4
f 28//5 47//5 29//5
f 3//6 16//6 17//6
f 3//7 17//7 18//7
f 3//8 18//8 4//8
f 4//9 18//9 21//9
f 91//10 79//10 65//10
f 36//11 14//11 13//11
f 85//12 69//12 68//12
f 23//13 7//13 6//13
f 43//14 40//14 89//14
f 31//15 49//15 50//15
f 48//16 98//16 50//16
f 58//17 13//17 35//17
f 21//18 42//18 19//18
f 92//19 93//19 105//19
f 24//20 44//20 45//20
f 71//21 72//21 52//21
f 105//22 93//22 104//22
f 6//23 7//23 1//23
f 35//24 59//24 57//24
f 58//25 35//25 57//25
f 51//26 52//26 32//26
f 70//27 98//27 99//27
f 71//28 31//28 50//28
f 80//29 79//29 93//29
f 42//30 63//30 40//30
f 37//31 60//31 75//31
f 47//32 68//32 29//32
f 66//33 81//33 28//33
f 91//34 65//34 90//34
f 81//35 66//35 82//35
f 101//36 102//36 57//36
f 75//37 57//37 102//37
f 50//38 49//38 48//38
f 50//39 70//39 71//39
f 10//40 32//40 1//40
f 59//41 35//41 34//41
f 42//42 41//42 39//42
f 4//43 20//43 5//43
f 66//44 28//44 27//44
f 11//45 34//45 35//45
f 30//46 10//46 29//46
f 27//47 83//47 66//47
f 30//48 31//48 10//48
f 73//49 86//49 87//49
f 64//50 90//50 25//50
f 36//51 57//51 75//51
f 107//52 105//52 104//52
f 55//53 11//53 33//53
f 87//54 72//54 99//54
f 40//55 43//55 22//55
f 22//56 5//56 20//56
f 66//57 83//57 82//57
f 53//58 32//58 52//58
f 85//59 73//59 64//59
f 86//60 72//60 87//60
f 59//61 56//61 74//61
f 17//62 38//62 18//62
f 68//63 47//63 67//63
f 28//64 29//64 10//64
f 18//65 39//65 41//65
f 74//66 100//66 101//66
f 104//67 94//67 97//67
f 100//68 54//68 32//68
f 35//69 12//69 11//69
f 53//70 72//70 86//70
f 19//71 4//71 21//71
f 103//72 94//72 91//72
f 104//73 91//73 94//73
f 107//74 97//74 96//74
f 106//75 84//75 95//75
f 5//76 3//76 4//76
f 19//77 40//77 20//77
f 82//78 94//78 95//78
f 95//79 84//79 82//79
f 84//80 85//80 67//80
f 81//81 84//81 67//81
f 85//82 68//82 67//82
f 67//83 47//83 28//83
f 35//84 13//84 12//84
f 13//85 58//85 36//85
f 83//86 97//86 94//86
f 94//87 82//87 83//87
f 63//88 89//88 40//88
f 89//89 64//89 44//89
f 43//90 89//90 44//90
f 64//91 25//91 45//91
f 45//92 44//92 64//92
f 48//93 68//93 69//93
f 69//94 98//94 48//94
f 98//95 70//95 50//95
f 92//96 80//96 93//96
f 52//97 51//97 71//97
f 25//98 65//98 9//98
f 15//99 37//99 3//99
f 37//100 16//100 3//100
f 24//101 45//101 2//101
f 8//102 24//102 2//102
f 71//103 51//103 31//103
f 65//104 79//104 80//104
f 46//105 1//105 26//105
f 26//106 1//106 2//106
f 36//107 75//107 60//107
f 75//108 61//108 37//108
f 30//109 29//109 68//109
f 48//110 30//110 68//110
f 65//111 25//111 90//111
f 90//112 103//112 91//112
f 81//113 67//113 28//113
f 75//114 102//114 76//114
f 51//115 32//115 31//115
f 32//116 33//116 14//116
f 33//117 11//117 14//117
f 14//118 11//118 13//118
f 12//119 13//119 11//119
f 14//40 15//40 32//40
f 15//120 3//120 32//120
f 1//40 46//40 10//40
f 46//40 92//40 10//40
f 92//121 105//121 96//121
f 107//122 96//122 105//122
f 96//123 27//123 92//123
f 27//124 10//124 92//124
f 10//125 31//125 32//125
f 3//126 1//126 32//126
f 34//127 56//127 59//127
f 43//128 44//128 23//128
f 44//129 24//129 8//129
f 23//130 44//130 8//130
f 4//131 19//131 20//131
f 27//132 96//132 83//132
f 83//133 96//133 97//133
f 23//134 8//134 7//134
f 8//135 2//135 1//135
f 23//136 22//136 43//136
f 21//137 41//137 42//137
f 100//138 74//138 54//138
f 74//139 55//139 54//139
f 80//140 26//140 65//140
f 65//141 26//141 9//141
f 23//142 6//142 22//142
f 61//143 16//143 37//143
f 34//144 55//144 56//144
f 56//145 55//145 74//145
f 63//146 42//146 88//146
f 42//147 39//147 88//147
f 39//148 38//148 78//148
f 38//149 62//149 77//149
f 77//150 78//150 38//150
f 78//151 88//151 39//151
f 62//152 61//152 77//152
f 76//153 77//153 61//153
f 15//154 14//154 60//154
f 60//155 14//155 36//155
f 60//156 37//156 15//156
f 19//157 42//157 40//157
f 54//158 55//158 33//158
f 36//159 58//159 57//159
f 86//160 73//160 53//160
f 76//161 61//161 75//161
f 55//162 34//162 11//162
f 72//163 71//163 99//163
f 71//164 70//164 99//164
f 99//165 73//165 87//165
f 22//166 20//166 40//166
f 61//167 62//167 16//167
f 63//168 88//168 89//168
f 106//169 103//169 90//169
f 26//170 2//170 9//170
f 45//171 9//171 2//171
f 22//172 6//172 5//172
f 102//173 77//173 76//173
f 106//174 90//174 84//174
f 90//175 84//175 64//175
f 64//176 78//176 89//176
f 89//177 78//177 88//177
f 78//178 64//178 77//178
f 77//179 108//179 102//179
f 102//180 108//180 101//180
f 108//181 77//181 73//181
f 73//182 69//182 99//182
f 99//183 69//183 98//183
f 69//184 73//184 85//184
f 85//185 64//185 84//185
f 73//186 77//186 64//186
f 17//187 16//187 62//187
f 62//188 38//188 17//188
f 38//189 39//189 18//189
f 26//190 80//190 92//190
f 92//191 46//191 26//191
f 21//192 18//192 41//192
f 100//193 108//193 101//193
f 101//194 57//194 59//194
f 59//195 74//195 101//195
f 94//196 103//196 106//196
f 106//197 95//197 94//197
f 33//198 32//198 54//198
f 32//199 53//199 73//199
f 73//200 108//200 32//200
f 108//201 100//201 32//201
f 45//202 25//202 9//202
f 53//203 52//203 72//203
f 107//204 104//204 97//204
f 5//205 1//205 3//205
f 31//206 30//206 49//206
f 48//207 49//207 30//207
f 91//208 104//208 93//208
f 93//209 79//209 91//209
f 46//210 27//210 1//210
f 27//211 3//211 1//211
f 3//212 4//212 1//212
f 4//213 5//213 1//213
f 92//214 27//214 46//214
f 10//215 32//215 27//215
f 32//216 33//216 27//216
f 33//217 3//217 27//217
f 92//218 105//218 27//218
f 105//219 107//219 27//219
f 107//220 96//220 27//220
f 33//221 12//221 3//221
f 12//222 14//222 3//222
f 14//223 15//223 3//223
f 31//224 51//224 10//224
f 51//125 32//125 10//125
f 73//225 100//225 32//225
f 11//226 12//226 33//226
f 104//227 96//227 107//227
f 104//228 97//228 96//228
f 97//229 82//229 83//229
f 13//230 14//230 12//230
f 62//231 38//231 16//231
f 38//232 17//232 16//232
f 38//233 39//233 17//233
f 39//234 18//234 17//234
f 40//235 43//235 20//235
f 43//236 22//236 20//236
f 89//237 64//237 88//237
f 88//238 64//238 90//238
f 88//239 90//239 73//239
f 73//240 90//240 98//240
f 98//241 90//241 84//241
f 68//242 48//242 29//242
f 48//243 30//243 29//243
f 73//244 108//244 100//244
f 108//245 74//245 100//245
f 99//246 73//246 98//246
f 88//247 73//247 101//247
f 101//248 73//248 108//248
f 94//249 82//249 97//249
f 94//250 106//250 82//250
f 106//251 95//251 82//251
f 95//252 81//252 82//252
f 95//253 84//253 81//253
f 58//254 75//254 36//254
f 58//255 57//255 75//255
f 78//256 88//256 102//256
f 102//257 88//257 101//257
f 69//258 98//258 85//258
f 85//259 98//259 84//259
f 101//260 74//260 108//260
f 78//261 102//261 77//261
