mtllib material.mtl
usemtl material_0
v -0.00049000 -0.13292000 0.01418000
v -0.00049000 -0.13292000 0.01318000
v 0.00051000 -0.13292000 0.01318000
v 0.00051000 -0.13292000 0.01418000
v -0.00845000 0.03545000 -0.00445000
v -0.00926000 0.03756000 -0.00505000
v -0.00926000 0.03582000 -0.00414000
v -0.00845000 0.03583000 -0.00016000
v -0.00926000 0.03523000 -0.00227000
v -0.00926000 0.03614000 -0.00053000
v 0.00927000 0.03582000 -0.00414000
v 0.00927000 0.03756000 -0.00505000
v 0.00846000 0.03752000 -0.00553000
v 0.00927000 0.03614000 -0.00053000
v 0.00846000 0.03475000 -0.00223000
v 0.00846000 0.03583000 -0.00016000
v -0.00845000 0.03752000 -0.00553000
v -0.00926000 0.03943000 -0.00446000
v -0.00845000 0.03974000 -0.00483000
v 0.00001000 0.03974000 -0.00483000
v 0.00001000 0.03752000 -0.00553000
v 0.00846000 0.03974000 -0.00483000
v 0.00927000 0.03943000 -0.00446000
v -0.00845000 0.03974000 -0.00483000
v -0.00926000 0.04034000 -0.00272000
v -0.00926000 0.03943000 -0.00446000
v -0.00845000 0.04082000 -0.00276000
v 0.00001000 0.04082000 -0.00276000
v 0.00001000 0.03974000 -0.00483000
v 0.00846000 0.04082000 -0.00276000
v 0.00846000 0.03974000 -0.00483000
v 0.00927000 0.03943000 -0.00446000
v 0.00927000 0.04034000 -0.00272000
v -0.00926000 0.03975000 -0.00085000
v -0.00845000 0.04012000 -0.00054000
v 0.00001000 0.04012000 -0.00054000
v 0.00846000 0.04012000 -0.00054000
v 0.00927000 0.03975000 -0.00085000
v -0.00845000 0.04012000 -0.00054000
v -0.00926000 0.03801000 0.00006000
v -0.00926000 0.03975000 -0.00085000
v -0.00845000 0.03805000 0.00054000
v 0.00001000 0.03805000 0.00054000
v 0.00001000 0.04012000 -0.00054000
v 0.00846000 0.03805000 0.00054000
v 0.00846000 0.04012000 -0.00054000
v 0.00927000 0.03975000 -0.00085000
v 0.00927000 0.03801000 0.00006000
v -0.00926000 0.03614000 -0.00053000
v -0.00845000 0.03583000 -0.00016000
v 0.00001000 0.03583000 -0.00016000
v 0.00846000 0.03583000 -0.00016000
v 0.00846000 0.03545000 -0.00445000
v 0.00927000 0.03523000 -0.00227000
v 0.00927000 0.03582000 -0.00414000
v 0.00001000 0.03475000 -0.00223000
v 0.00001000 0.03545000 -0.00445000
v 0.00846000 0.03545000 -0.00445000
v 0.00001000 0.03545000 -0.00445000
v 0.00927000 0.03614000 -0.00053000
v -0.00926000 0.04034000 -0.00272000
v -0.00976000 0.03878000 -0.00368000
v -0.00926000 0.03943000 -0.00446000
v -0.00976000 0.03933000 -0.00263000
v -0.00926000 0.03975000 -0.00085000
v -0.00976000 0.03897000 -0.00150000
v -0.00926000 0.03801000 0.00006000
v -0.00976000 0.03792000 -0.00095000
v -0.00926000 0.03614000 -0.00053000
v -0.00976000 0.03679000 -0.00131000
v -0.00926000 0.03523000 -0.00227000
v 0.00001000 0.03583000 -0.00016000
v -0.00845000 0.03475000 -0.00223000
v -0.00926000 0.03582000 -0.00414000
v -0.00845000 0.03545000 -0.00445000
v -0.00147000 0.03766000 -0.00396000
v -0.00147000 -0.00025000 -0.00143000
v 0.00001000 -0.00031000 -0.00203000
v 0.00001000 0.03761000 -0.00457000
v 0.00148000 -0.00025000 -0.00143000
v 0.00148000 0.03766000 -0.00396000
v 0.00148000 0.03766000 -0.00396000
v 0.00148000 -0.00025000 -0.00143000
v 0.00209000 -0.00012000 0.00004000
v 0.00209000 0.03779000 -0.00250000
v 0.00148000 0.00001000 0.00150000
v 0.00148000 0.03792000 -0.00103000
v 0.00148000 0.00001000 0.00150000
v 0.00001000 0.03797000 -0.00042000
v 0.00148000 0.03792000 -0.00103000
v 0.00001000 0.00006000 0.00211000
v -0.00147000 0.00001000 0.00150000
v -0.00147000 0.03792000 -0.00103000
v -0.00147000 0.03792000 -0.00103000
v -0.00147000 0.00001000 0.00150000
v -0.00208000 -0.00012000 0.00004000
v -0.00208000 0.03779000 -0.00250000
v -0.00147000 -0.00025000 -0.00143000
v -0.00147000 0.03766000 -0.00396000
v -0.00976000 0.03778000 -0.00250000
v -0.00976000 0.03765000 -0.00404000
v -0.00926000 0.03756000 -0.00505000
v -0.00976000 0.03660000 -0.00349000
v -0.00926000 0.03582000 -0.00414000
v -0.00976000 0.03624000 -0.00236000
v 0.00927000 0.03756000 -0.00505000
v 0.00977000 0.03765000 -0.00404000
v 0.00977000 0.03878000 -0.00368000
v 0.00977000 0.03778000 -0.00250000
v 0.00927000 0.03943000 -0.00446000
v 0.00927000 0.03582000 -0.00414000
v 0.00977000 0.03933000 -0.00263000
v 0.00927000 0.04034000 -0.00272000
v 0.00977000 0.03660000 -0.00349000
v 0.00927000 0.03523000 -0.00227000
v 0.00977000 0.03897000 -0.00150000
v 0.00927000 0.03975000 -0.00085000
v 0.00977000 0.03624000 -0.00236000
v 0.00927000 0.03614000 -0.00053000
v 0.00977000 0.03792000 -0.00095000
v 0.00927000 0.03801000 0.00006000
v 0.00977000 0.03679000 -0.00131000
vn 0.00000000 1.00000000 0.00000000
vn 0.00000000 1.00000000 0.00000000
vn 0.00000000 1.00000000 0.00000000
vn 0.00000000 1.00000000 0.00000000
vn -0.04304615 -0.76579490 -0.64164260
vn -0.68599630 -0.06393353 -0.72479070
vn -0.68599590 -0.55771140 -0.46729820
vn -0.04304647 -0.64164750 0.76579080
vn -0.68599490 -0.72479180 0.06393622
vn -0.68599610 -0.46729530 0.55771360
vn 0.68599690 -0.55771210 -0.46729590
vn 0.68599660 -0.06393362 -0.72479040
vn 0.04304704 -0.08778600 -0.99520880
vn 0.68599690 -0.46729670 0.55771150
vn 0.04304773 -0.99520840 0.08778914
vn 0.04304755 -0.64164810 0.76579030
vn -0.04304618 -0.08778610 -0.99520880
vn -0.68599740 0.46729670 -0.55771080
vn -0.04304638 0.64164500 -0.76579290
vn 0.00000000 0.64224030 -0.76650330
vn 0.00000000 -0.08786757 -0.99613210
vn 0.04304712 0.64164510 -0.76579280
vn 0.68599690 0.46729650 -0.55771170
vn -0.04304638 0.64164500 -0.76579290
vn -0.68599810 0.72478920 -0.06393109
vn -0.68599740 0.46729670 -0.55771080
vn -0.04304637 0.99520870 -0.08778798
vn 0.00000000 0.99613190 -0.08787023
vn 0.00000000 0.64224030 -0.76650330
vn 0.04304696 0.99520860 -0.08778888
vn 0.04304712 0.64164510 -0.76579280
vn 0.68599690 0.46729650 -0.55771170
vn 0.68599760 0.72478950 -0.06393316
vn -0.68599750 0.55771190 0.46729530
vn -0.04304611 0.76579240 0.64164560
vn 0.00000000 0.76650320 0.64224050
vn 0.04304687 0.76579300 0.64164470
vn 0.68599690 0.55771180 0.46729610
vn -0.04304611 0.76579240 0.64164560
vn -0.68599880 0.06393368 0.72478830
vn -0.68599750 0.55771190 0.46729530
vn -0.04304627 0.08778610 0.99520880
vn 0.00000000 0.08786754 0.99613210
vn 0.00000000 0.76650320 0.64224050
vn 0.04304706 0.08778593 0.99520880
vn 0.04304687 0.76579300 0.64164470
vn 0.68599690 0.55771180 0.46729610
vn 0.68599780 0.06393356 0.72478930
vn -0.68599610 -0.46729530 0.55771360
vn -0.04304647 -0.64164750 0.76579080
vn 0.00000000 -0.64224300 0.76650120
vn 0.04304755 -0.64164810 0.76579030
vn 0.04304735 -0.76579580 -0.64164130
vn 0.68599590 -0.72479090 0.06393551
vn 0.68599690 -0.55771210 -0.46729590
vn 0.00000000 -0.99613190 0.08787023
vn 0.00000000 -0.76650580 -0.64223740
vn 0.04304735 -0.76579580 -0.64164130
vn 0.00000000 -0.76650580 -0.64223740
vn 0.68599690 -0.46729670 0.55771150
vn -0.68599810 0.72478920 -0.06393109
vn -0.96103520 0.17753380 -0.21187990
vn -0.68599740 0.46729670 -0.55771080
vn -0.96103640 0.27535240 -0.02428908
vn -0.68599750 0.55771190 0.46729530
vn -0.96103550 0.21188190 0.17752940
vn -0.68599880 0.06393368 0.72478830
vn -0.96103650 0.02428827 0.27535240
vn -0.68599610 -0.46729530 0.55771360
vn -0.96103550 -0.17753140 0.21188070
vn -0.68599490 -0.72479180 0.06393622
vn 0.00000000 -0.64224300 0.76650120
vn -0.04304661 -0.99520860 0.08778848
vn -0.68599590 -0.55771140 -0.46729820
vn -0.04304615 -0.76579490 -0.64164260
vn -0.70960920 -0.04699613 -0.70302640
vn -0.70443550 -0.04734115 -0.70818750
vn 0.00000000 -0.06669948 -0.99777310
vn 0.00000000 -0.06669948 -0.99777310
vn 0.70443550 -0.04734114 -0.70818750
vn 0.70960920 -0.04699613 -0.70302640
vn 0.70960920 -0.04699613 -0.70302640
vn 0.70443550 -0.04734114 -0.70818750
vn 0.99998660 -0.00034511 -0.00516272
vn 0.99998660 0.00034511 0.00516241
vn 0.70960970 0.04699616 0.70302600
vn 0.70443600 0.04734117 0.70818690
vn 0.70960970 0.04699616 0.70302600
vn -0.00000014 0.06669954 0.99777310
vn 0.70443600 0.04734117 0.70818690
vn -0.00000010 0.06669953 0.99777310
vn -0.70960990 0.04699615 0.70302590
vn -0.70443600 0.04734116 0.70818690
vn -0.70443600 0.04734116 0.70818690
vn -0.70960990 0.04699615 0.70302590
vn -0.99998660 -0.00034511 -0.00516272
vn -0.99998660 0.00034511 0.00516241
vn -0.70443550 -0.04734115 -0.70818750
vn -0.70960920 -0.04699613 -0.70302640
vn -1.00000000 -0.00000011 0.00000000
vn -0.96103620 -0.02428836 -0.27535360
vn -0.68599630 -0.06393353 -0.72479070
vn -0.96103570 -0.21188000 -0.17753090
vn -0.68599590 -0.55771140 -0.46729820
vn -0.96103500 -0.27535750 0.02429055
vn 0.68599660 -0.06393362 -0.72479040
vn 0.96105820 -0.02428146 -0.27527740
vn 0.96105730 0.17748410 -0.21182110
vn 1.00000000 0.00000000 0.00000000
vn 0.68599690 0.46729650 -0.55771170
vn 0.68599690 -0.55771210 -0.46729590
vn 0.96105850 0.27527580 -0.02428296
vn 0.68599760 0.72478950 -0.06393316
vn 0.96105770 -0.21182140 -0.17748210
vn 0.68599590 -0.72479090 0.06393551
vn 0.96105770 0.21182300 0.17748020
vn 0.68599690 0.55771180 0.46729610
vn 0.96105660 -0.27528230 0.02428336
vn 0.68599690 -0.46729670 0.55771150
vn 0.96105820 0.02428150 0.27527740
vn 0.68599780 0.06393356 0.72478930
vn 0.96105730 -0.17748240 0.21182270
vt -7.09820700 -5.55440100
vt -7.07211500 -5.55440100
vt -7.07211500 -5.58049400
vt -7.09820700 -5.58049400
vt -7.23851800 0.25243300
vt -7.24068100 0.25326170
vt -7.23890100 0.25326170
vt -7.11935100 0.25243300
vt -7.12151400 0.25326170
vt -7.11973500 0.25326170
vt -7.23890100 0.23428600
vt -7.24068100 0.23428600
vt -7.24063700 0.23511480
vt -7.11973500 0.23428610
vt -7.12147000 0.23511480
vt -7.11935100 0.23511480
vt -7.24063700 0.25243300
vt -7.24259500 0.25326170
vt -7.24291600 0.25243300
vt -7.24291600 0.24377390
vt -7.24063700 0.24377390
vt -7.24291600 0.23511480
vt -7.24259500 0.23428600
vt -7.00018500 0.25243300
vt -7.00234800 0.25326170
vt -7.00056900 0.25326170
vt -7.00230400 0.25243300
vt -7.00230400 0.24377390
vt -7.00018500 0.24377390
vt -7.00230400 0.23511480
vt -7.00018500 0.23511480
vt -7.00056900 0.23428600
vt -7.00234800 0.23428600
vt -7.00426200 0.25326170
vt -7.00458400 0.25243300
vt -7.00458400 0.24377390
vt -7.00458400 0.23511480
vt -7.00426200 0.23428600
vt -6.88102000 0.25243300
vt -6.88318300 0.25326170
vt -6.88140300 0.25326170
vt -6.88313800 0.25243300
vt -6.88313800 0.24377390
vt -6.88102000 0.24377390
vt -6.88313800 0.23511480
vt -6.88102000 0.23511480
vt -6.88140300 0.23428610
vt -6.88318300 0.23428610
vt -6.88509700 0.25326170
vt -6.88541800 0.25243300
vt -6.88541800 0.24377390
vt -6.88541800 0.23511480
vt -7.12375000 0.23511480
vt -7.12151400 0.23428610
vt -7.12342800 0.23428610
vt -7.12147000 0.24377390
vt -7.12375000 0.24377390
vt -7.23851800 0.23511480
vt -7.23851800 0.24377390
vt -6.88509700 0.23428610
vt -6.85956000 0.55621720
vt -6.86114300 0.55719520
vt -6.86048200 0.55798420
vt -6.86058600 0.55612680
vt -6.86015800 0.55431620
vt -6.86094700 0.55497730
vt -6.86192500 0.55339490
vt -6.86201600 0.55442020
vt -6.86382600 0.55399270
vt -6.86316500 0.55478170
vt -6.86474800 0.55575970
vt -7.11935100 0.24377390
vt -7.12147000 0.25243300
vt -7.12342800 0.25326170
vt -7.12375000 0.25243300
vt -7.42632600 0.47801740
vt -7.42632600 0.51657960
vt -7.42482900 0.51663400
vt -7.42482900 0.47807180
vt -7.42333300 0.51657960
vt -7.42333300 0.47801740
vt -7.68818600 0.51912890
vt -7.69076100 0.48060850
vt -7.69224900 0.48073980
vt -7.68967400 0.51926020
vt -7.69373800 0.48087110
vt -7.69116300 0.51939150
vt -7.34010600 0.47801730
vt -7.34160200 0.51663410
vt -7.34010600 0.51657970
vt -7.34160200 0.47807180
vt -7.34309900 0.47801730
vt -7.34309900 0.51657970
vt -7.54114100 0.51939150
vt -7.53856600 0.48087110
vt -7.54005400 0.48073980
vt -7.54262900 0.51926020
vt -7.54154300 0.48060850
vt -7.54411800 0.51912890
vt -6.86215400 0.55598840
vt -6.86229200 0.55755670
vt -6.86238300 0.55858200
vt -6.86336100 0.55699960
vt -6.86415000 0.55766060
vt -6.86372200 0.55585010
vt -7.00145500 0.55339490
vt -7.00136500 0.55442020
vt -7.00021600 0.55478170
vt -7.00122600 0.55598840
vt -6.99955400 0.55399270
vt -7.00322200 0.55431630
vt -6.99965800 0.55585010
vt -6.99863300 0.55575970
vt -7.00243300 0.55497740
vt -7.00382000 0.55621720
vt -7.00002000 0.55699950
vt -6.99923100 0.55766060
vt -7.00279500 0.55612680
vt -7.00289900 0.55798410
vt -7.00108800 0.55755670
vt -7.00099800 0.55858190
vt -7.00223700 0.55719520
f 3/3/3 2/2/2 1/1/1
f 4/4/4 3/3/3 1/1/1
f 7/7/7 6/6/6 5/5/5
f 10/10/10 9/9/9 8/8/8
f 13/13/13 12/12/12 11/11/11
f 16/16/16 15/15/15 14/14/14
f 6/6/6 17/17/17 5/5/5
f 6/6/6 18/18/18 17/17/17
f 18/18/18 19/19/19 17/17/17
f 19/19/19 20/20/20 17/17/17
f 20/20/20 21/21/21 17/17/17
f 20/20/20 22/22/22 21/21/21
f 22/22/22 13/13/13 21/21/21
f 13/13/13 22/22/22 12/12/12
f 22/22/22 23/23/23 12/12/12
f 26/26/26 25/25/25 24/24/24
f 25/25/25 27/27/27 24/24/24
f 27/27/27 28/28/28 24/24/24
f 28/28/28 29/29/29 24/24/24
f 28/28/28 30/30/30 29/29/29
f 30/30/30 31/31/31 29/29/29
f 31/31/31 30/30/30 32/32/32
f 30/30/30 33/33/33 32/32/32
f 25/25/25 34/34/34 27/27/27
f 34/34/34 35/35/35 27/27/27
f 35/35/35 36/36/36 27/27/27
f 36/36/36 28/28/28 27/27/27
f 36/36/36 37/37/37 28/28/28
f 37/37/37 30/30/30 28/28/28
f 30/30/30 37/37/37 33/33/33
f 37/37/37 38/38/38 33/33/33
f 41/41/41 40/40/40 39/39/39
f 40/40/40 42/42/42 39/39/39
f 42/42/42 43/43/43 39/39/39
f 43/43/43 44/44/44 39/39/39
f 43/43/43 45/45/45 44/44/44
f 45/45/45 46/46/46 44/44/44
f 46/46/46 45/45/45 47/47/47
f 45/45/45 48/48/48 47/47/47
f 40/40/40 49/49/49 42/42/42
f 49/49/49 50/50/50 42/42/42
f 50/50/50 51/51/51 42/42/42
f 51/51/51 43/43/43 42/42/42
f 51/51/51 52/52/52 43/43/43
f 52/52/52 45/45/45 43/43/43
f 55/55/55 54/54/54 53/53/53
f 54/54/54 15/15/15 53/53/53
f 15/15/15 54/54/54 14/14/14
f 53/53/53 15/15/15 56/56/56
f 57/57/57 53/53/53 56/56/56
f 58/58/58 13/13/13 11/11/11
f 13/13/13 58/58/58 59/59/59
f 21/21/21 13/13/13 59/59/59
f 21/21/21 59/59/59 5/5/5
f 17/17/17 21/21/21 5/5/5
f 52/52/52 60/60/60 48/48/48
f 45/45/45 52/52/52 48/48/48
f 63/63/63 62/62/62 61/61/61
f 62/62/62 64/64/64 61/61/61
f 61/61/61 64/64/64 65/65/65
f 64/64/64 66/66/66 65/65/65
f 65/65/65 66/66/66 67/67/67
f 66/66/66 68/68/68 67/67/67
f 67/67/67 68/68/68 69/69/69
f 68/68/68 70/70/70 69/69/69
f 69/69/69 70/70/70 71/71/71
f 15/15/15 16/16/16 72/72/72
f 56/56/56 15/15/15 72/72/72
f 56/56/56 72/72/72 8/8/8
f 73/73/73 56/56/56 8/8/8
f 9/9/9 73/73/73 8/8/8
f 57/57/57 56/56/56 73/73/73
f 73/73/73 9/9/9 74/74/74
f 75/75/75 57/57/57 73/73/73
f 75/75/75 73/73/73 74/74/74
f 78/78/78 77/77/77 76/76/76
f 79/79/79 78/78/78 76/76/76
f 80/80/80 78/78/78 79/79/79
f 81/81/81 80/80/80 79/79/79
f 84/84/84 83/83/83 82/82/82
f 85/85/85 84/84/84 82/82/82
f 86/86/86 84/84/84 85/85/85
f 87/87/87 86/86/86 85/85/85
f 90/90/90 89/89/89 88/88/88
f 89/89/89 91/91/91 88/88/88
f 92/92/92 91/91/91 89/89/89
f 93/93/93 92/92/92 89/89/89
f 96/96/96 95/95/95 94/94/94
f 97/97/97 96/96/96 94/94/94
f 98/98/98 96/96/96 97/97/97
f 99/99/99 98/98/98 97/97/97
f 100/100/100 64/64/64 62/62/62
f 64/64/64 100/100/100 66/66/66
f 100/100/100 68/68/68 66/66/66
f 68/68/68 100/100/100 70/70/70
f 101/101/101 100/100/100 62/62/62
f 101/101/101 62/62/62 63/63/63
f 102/102/102 101/101/101 63/63/63
f 103/103/103 101/101/101 102/102/102
f 100/100/100 101/101/101 103/103/103
f 104/104/104 103/103/103 102/102/102
f 100/100/100 105/105/105 70/70/70
f 105/105/105 100/100/100 103/103/103
f 105/105/105 103/103/103 104/104/104
f 70/70/70 105/105/105 71/71/71
f 71/71/71 105/105/105 104/104/104
f 108/108/108 107/107/107 106/106/106
f 107/107/107 108/108/108 109/109/109
f 110/110/110 108/108/108 106/106/106
f 106/106/106 107/107/107 111/111/111
f 112/112/112 108/108/108 110/110/110
f 108/108/108 112/112/112 109/109/109
f 113/113/113 112/112/112 110/110/110
f 107/107/107 114/114/114 111/111/111
f 114/114/114 107/107/107 109/109/109
f 111/111/111 114/114/114 115/115/115
f 116/116/116 112/112/112 113/113/113
f 112/112/112 116/116/116 109/109/109
f 117/117/117 116/116/116 113/113/113
f 114/114/114 118/118/118 115/115/115
f 118/118/118 114/114/114 109/109/109
f 115/115/115 118/118/118 119/119/119
f 120/120/120 116/116/116 117/117/117
f 116/116/116 120/120/120 109/109/109
f 121/121/121 120/120/120 117/117/117
f 119/119/119 122/122/122 121/121/121
f 118/118/118 122/122/122 119/119/119
f 122/122/122 118/118/118 109/109/109
f 120/120/120 122/122/122 109/109/109
f 122/122/122 120/120/120 121/121/121

