# Blender 4.0.0
# www.blender.org
o Fridge_17_Mesh_8f481464_3_collision_33
v -0.942206 -0.045878 0.012128
v -0.930356 -0.045878 0.012128
v -0.941968 -0.045878 0.041994
v -0.942206 0.371734 0.012128
v -0.930353 -0.045878 0.012274
v -0.904181 -0.003160 0.012128
v -0.904181 -0.003201 0.012505
v -0.930349 -0.045878 0.041994
v -0.941968 0.371734 0.041994
v -0.930356 0.371734 0.012128
v -0.930349 -0.045878 0.012520
v -0.904181 0.049777 0.012128
v -0.904181 -0.003201 0.041983
v -0.906381 -0.003364 0.041994
v -0.930349 0.371734 0.041994
v -0.930349 0.371734 0.012497
v -0.904181 0.050186 0.012131
v -0.904181 0.008368 0.041994
v -0.904181 0.050186 0.041994
vn -0.0000 -1.0000 -0.0000
vn -1.0000 -0.0000 0.0080
vn -0.0000 -0.0000 -1.0000
vn 0.8513 -0.5216 -0.0565
vn 0.8523 -0.5226 -0.0216
vn -0.0000 -0.0000 1.0000
vn -0.0000 1.0000 -0.0000
vn -0.0000 1.0000 -0.0001
vn 0.8524 -0.5227 -0.0130
vn 1.0000 -0.0000 -0.0000
vn 1.0000 -0.0031 -0.0000
vn 0.8525 -0.5227 -0.0000
vn 0.0055 -0.0031 1.0000
vn 0.9965 0.0811 -0.0202
vn 0.0875 0.0071 -0.9961
vn 0.0054 -0.0010 1.0000
vn 0.9967 0.0811 -0.0000
s 0
f 1//1 2//1 5//1
f 1//1 5//1 11//1
f 1//1 11//1 8//1
f 1//1 8//1 3//1
f 1//2 3//2 9//2
f 1//2 9//2 4//2
f 1//3 4//3 10//3
f 1//3 10//3 12//3
f 1//3 12//3 6//3
f 1//3 6//3 2//3
f 2//4 6//4 7//4
f 2//5 7//5 5//5
f 3//6 8//6 14//6
f 3//6 14//6 18//6
f 3//6 18//6 19//6
f 3//6 19//6 15//6
f 3//6 15//6 9//6
f 4//7 9//7 15//7
f 4//7 15//7 16//7
f 4//8 16//8 10//8
f 5//9 7//9 11//9
f 6//10 12//10 17//10
f 6//10 17//10 19//10
f 6//10 19//10 18//10
f 6//10 18//10 13//10
f 6//11 13//11 7//11
f 7//12 13//12 8//12
f 7//12 8//12 11//12
f 8//13 13//13 14//13
f 10//14 16//14 17//14
f 10//15 17//15 12//15
f 13//16 18//16 14//16
f 15//17 19//17 17//17
f 15//17 17//17 16//17
