# Blender 4.0.0
# www.blender.org
o decimated_mesh
v -0.995478 0.051164 0.008702
v -0.995624 0.423716 0.007963
v -0.915011 0.051164 0.012128
v -0.925706 0.423716 0.012128
v -0.980888 0.051167 -0.014588
v -0.980786 0.423716 -0.014012
v -0.918110 0.051161 -0.001703
v -0.926081 0.423716 0.002161
v -0.940571 0.423717 -0.014112
v -0.935792 0.051164 -0.014308
vn 0.0003 1.0000 -0.0002
vn 0.0062 0.0006 -1.0000
vn 0.5805 0.0079 -0.8142
vn 0.9755 0.0231 -0.2186
vn 0.9989 0.0287 -0.0376
vn -0.8288 0.0011 -0.5596
vn -0.0595 0.0020 0.9982
vn 0.0001 1.0000 -0.0000
vn -0.0000 1.0000 0.0001
vn -0.0025 0.0015 -1.0000
vn -0.0000 1.0000 -0.0000
vn 0.7466 0.0229 -0.6648
vn -0.8474 -0.0014 -0.5309
vn -0.0425 -0.0012 0.9991
vn 0.0001 1.0000 0.0001
vn -0.0000 1.0000 0.0002
vn -0.0000 1.0000 -0.0002
s 0
f 3//1 7//1 10//1
f 5//2 9//2 10//2
f 7//3 10//3 9//3
f 3//4 7//4 8//4
f 3//5 8//5 4//5
f 5//6 2//6 6//6
f 1//7 4//7 2//7
f 5//8 3//8 10//8
f 3//9 5//9 1//9
f 5//10 6//10 9//10
f 9//9 6//9 4//9
f 2//11 4//11 6//11
f 8//8 9//8 4//8
f 7//12 9//12 8//12
f 5//13 1//13 2//13
f 1//14 3//14 4//14
f 4//11 9//11 2//11
f 9//11 6//11 2//11
f 10//15 5//15 7//15
f 7//16 5//16 1//16
f 7//17 1//17 3//17
