# Blender 4.0.0
# www.blender.org
o Fridge_17_Mesh_8f481464_3_collision_13
v -0.116863 0.060439 0.099497
v -0.116863 -0.015747 0.099497
v -0.116863 0.054025 0.041994
v -0.518527 0.057127 0.099497
v -0.116863 -0.006955 0.041994
v -0.518527 -0.009930 0.099497
v -0.518527 -0.003196 0.041994
v -0.518527 0.050170 0.041994
vn 1.0000 -0.0000 -0.0000
vn -0.0082 0.9938 -0.1108
vn -0.0000 -0.0000 1.0000
vn -0.0144 -0.9931 -0.1163
vn -0.0092 -0.9885 -0.1511
vn -0.0000 -0.0000 -1.0000
vn -0.0095 0.9927 -0.1201
vn -1.0000 -0.0000 -0.0000
s 0
f 1//1 2//1 5//1
f 1//1 5//1 3//1
f 1//2 3//2 4//2
f 1//3 4//3 6//3
f 1//3 6//3 2//3
f 2//4 6//4 7//4
f 2//5 7//5 5//5
f 3//6 5//6 7//6
f 3//6 7//6 8//6
f 3//7 8//7 4//7
f 4//8 8//8 7//8
f 4//8 7//8 6//8
