# Blender 4.0.0
# www.blender.org
o Fridge_17_Mesh_8f481464_3_collision_26
v -0.122471 0.441580 0.041994
v -0.122471 0.441806 0.012128
v -0.122655 0.441580 0.041994
v -0.111908 0.441566 0.041994
v -0.122655 0.441799 0.012137
v -0.111908 0.441792 0.012128
v -0.122655 0.437073 0.012128
v -0.122655 0.429906 0.041994
v -0.110695 0.441511 0.041994
v -0.106127 0.441285 0.041994
v -0.105992 0.441422 0.012128
v -0.122655 0.429919 0.012128
v -0.122655 0.429906 0.012514
v -0.106843 0.371741 0.041994
v -0.101953 0.437457 0.041994
v -0.100848 0.436442 0.041994
v -0.100894 0.436730 0.012128
v -0.106834 0.371741 0.012128
v -0.106840 0.371741 0.012497
v -0.106843 0.371741 0.022474
v -0.095221 0.371741 0.041994
v -0.099756 0.435338 0.041994
v -0.095497 0.431291 0.012128
v -0.100552 0.436387 0.012128
v -0.094980 0.371741 0.012128
v -0.095221 0.425159 0.041994
v -0.095644 0.431161 0.041994
v -0.094983 0.425159 0.012128
v -0.094980 0.414596 0.012128
vn -0.0000 1.0000 0.0076
vn -0.0000 -0.0000 1.0000
vn 0.0013 1.0000 0.0076
vn -0.0367 0.9993 0.0073
vn -0.0000 -0.0000 -1.0000
vn -0.0476 0.0019 -0.9989
vn -1.0000 -0.0000 -0.0000
vn -1.0000 0.0001 -0.0000
vn 0.0452 0.9990 0.0076
vn 0.0495 0.9987 0.0074
vn 0.0625 0.9980 0.0049
vn -0.9650 -0.2623 -0.0000
vn 0.6758 0.7371 0.0065
vn 0.6764 0.7365 0.0063
vn 0.6771 0.7358 0.0061
vn -0.9649 -0.2624 -0.0142
vn -0.9649 -0.2624 -0.0093
vn -0.9650 -0.2624 -0.0003
vn -0.0000 -1.0000 -0.0000
vn 0.7111 0.7030 0.0061
vn 0.7100 0.7042 0.0057
vn 0.7088 0.7054 0.0057
vn 1.0000 -0.0000 0.0081
vn 0.7126 0.7015 0.0066
vn 0.9965 0.0836 0.0052
vn 0.9975 0.0702 0.0080
vn 1.0000 0.0003 0.0080
s 0
f 1//1 2//1 3//1
f 1//2 3//2 8//2
f 1//2 8//2 14//2
f 1//2 14//2 21//2
f 1//2 21//2 26//2
f 1//2 26//2 27//2
f 1//2 27//2 22//2
f 1//2 22//2 16//2
f 1//2 16//2 15//2
f 1//2 15//2 10//2
f 1//2 10//2 9//2
f 1//2 9//2 4//2
f 1//3 4//3 6//3
f 1//3 6//3 2//3
f 2//4 5//4 3//4
f 2//5 6//5 11//5
f 2//5 11//5 17//5
f 2//5 17//5 24//5
f 2//5 24//5 23//5
f 2//5 23//5 28//5
f 2//5 28//5 29//5
f 2//5 29//5 25//5
f 2//5 25//5 18//5
f 2//5 18//5 12//5
f 2//5 12//5 7//5
f 2//6 7//6 5//6
f 3//7 5//7 7//7
f 3//7 7//7 12//7
f 3//8 12//8 13//8
f 3//7 13//7 8//7
f 4//9 9//9 6//9
f 6//10 9//10 10//10
f 6//11 10//11 11//11
f 8//12 13//12 20//12
f 8//12 20//12 14//12
f 10//13 15//13 11//13
f 11//14 15//14 16//14
f 11//15 16//15 17//15
f 12//16 18//16 19//16
f 12//17 19//17 13//17
f 13//18 19//18 20//18
f 14//19 20//19 19//19
f 14//19 19//19 18//19
f 14//19 18//19 25//19
f 14//19 25//19 21//19
f 16//20 22//20 23//20
f 16//21 23//21 24//21
f 16//22 24//22 17//22
f 21//23 25//23 29//23
f 21//23 29//23 26//23
f 22//24 27//24 23//24
f 23//25 27//25 28//25
f 26//26 28//26 27//26
f 26//27 29//27 28//27
