# Blender 4.0.0
# www.blender.org
o decimated_mesh
v -0.118697 -0.374409 0.105578
v -0.518663 -0.374202 0.105706
v -0.106383 -0.382378 0.113835
v -0.518663 -0.380374 0.113986
v -0.104647 -0.381169 0.105297
v -0.518663 -0.423340 0.105342
v -0.095709 -0.394405 0.106390
v -0.518663 -0.423340 0.114640
v -0.095635 -0.423340 0.105264
v -0.099325 -0.423345 0.112817
vn 0.6364 0.0906 0.7660
vn 0.4272 0.8791 0.2114
vn 0.7951 0.5568 0.2405
vn -1.0000 -0.0000 -0.0000
vn 0.0006 0.8018 0.5976
vn 0.0003 -0.0074 1.0000
vn 0.0043 -0.0241 0.9997
vn 0.8984 -0.0148 0.4390
vn -0.0000 -1.0000 -0.0000
vn -0.0000 -1.0000 -0.0007
vn 0.0038 0.7223 0.6916
vn 0.0873 0.1404 0.9862
vn -0.0691 -0.0390 0.9968
vn 0.0002 -0.0063 1.0000
vn 0.0004 0.0152 0.9999
vn 0.0003 -0.0409 0.9992
vn 0.0009 -0.0074 1.0000
vn 0.0002 -0.0008 1.0000
vn -0.1776 -0.0387 0.9833
s 0
f 10//1 7//1 3//1
f 1//2 3//2 5//2
f 3//3 7//3 5//3
f 2//4 6//4 4//4
f 4//5 1//5 2//5
f 6//6 1//6 2//6
f 3//7 8//7 10//7
f 7//8 10//8 9//8
f 6//4 8//4 4//4
f 10//9 8//9 6//9
f 9//10 10//10 6//10
f 4//11 3//11 1//11
f 1//12 7//12 5//12
f 7//13 1//13 9//13
f 9//14 1//14 6//14
f 3//15 4//15 8//15
f 6//4 8//4 2//4
f 8//4 4//4 2//4
f 1//16 2//16 5//16
f 5//17 2//17 6//17
f 5//18 6//18 9//18
f 7//19 5//19 9//19
