# Blender 4.0.0
# www.blender.org
o decimated_mesh
v -0.941751 -0.319828 0.042001
v -0.095437 -0.319845 0.042001
v -0.937171 -0.330031 0.042002
v -0.939392 -0.326273 0.097015
v -0.941189 -0.320030 0.106336
v -0.095725 -0.319974 0.105215
v -0.100312 -0.330355 0.042001
v -0.933627 -0.333047 0.104460
v -0.932040 -0.330390 0.113568
v -0.097885 -0.326287 0.097015
v -0.927052 -0.338519 0.097015
v -0.919996 -0.340896 0.112891
v -0.932851 -0.319800 0.114422
v -0.105504 -0.331115 0.113403
v -0.103464 -0.332979 0.104122
v -0.921744 -0.341859 0.042002
v -0.101858 -0.319799 0.113724
v -0.117209 -0.340703 0.112771
v -0.114874 -0.341397 0.098014
v -0.116193 -0.342185 0.042008
vn -0.0000 1.0000 -0.0006
vn 0.5946 -0.8040 -0.0027
vn -0.9579 -0.2869 0.0075
vn 0.5447 -0.8292 0.1252
vn 0.9447 -0.3278 0.0036
vn 0.7792 -0.2671 0.5670
vn -0.8087 -0.5116 0.2902
vn -0.6131 -0.7233 0.3178
vn -0.6904 -0.1106 0.7150
vn 0.0008 -0.0461 0.9989
vn -0.6507 -0.7592 -0.0167
vn 0.8142 -0.5080 0.2811
vn 0.7746 -0.6323 0.0126
vn -0.0309 0.9995 0.0034
vn -0.0000 1.0000 -0.0004
vn 0.0315 0.9995 0.0022
vn 0.5987 -0.7496 0.2822
vn 0.5974 -0.8020 -0.0036
vn -0.0006 0.0003 -1.0000
vn -0.0000 -0.0000 1.0000
vn -0.0001 -0.0000 1.0000
vn -0.0000 0.0003 1.0000
vn -0.9123 -0.4095 -0.0089
vn -0.3625 -0.9317 0.0216
vn 0.8396 -0.5142 0.1748
vn 0.9071 -0.4208 -0.0089
vn -0.0152 -0.0816 0.9966
vn -0.5505 -0.8260 0.1210
vn -0.7683 -0.6400 0.0127
vn 0.0002 -0.0723 0.9974
vn -0.0417 -0.0149 0.9990
vn -0.6085 -0.7936 -0.0038
vn -0.8386 -0.5134 0.1822
vn -0.0004 -0.9998 0.0209
vn -0.1786 -0.9838 0.0180
vn 0.0002 -0.9999 0.0136
vn -0.0000 0.0001 1.0000
vn -0.0004 -0.9999 0.0141
vn -0.0004 -0.9999 0.0136
vn -0.6084 -0.7935 -0.0105
vn -0.6402 -0.7682 -0.0008
vn 0.0008 -0.0286 0.9996
vn 0.0003 -0.0661 0.9978
vn 0.0002 -0.9989 0.0470
s 0
f 2//1 1//1 17//1
f 20//2 15//2 19//2
f 1//3 4//3 5//3
f 19//4 15//4 18//4
f 10//5 2//5 6//5
f 6//6 17//6 14//6
f 5//7 8//7 9//7
f 8//8 12//8 9//8
f 5//9 9//9 13//9
f 17//10 13//10 18//10
f 8//11 16//11 11//11
f 14//12 15//12 6//12
f 7//13 10//13 15//13
f 1//14 5//14 13//14
f 13//15 17//15 1//15
f 6//16 2//16 17//16
f 18//17 15//17 14//17
f 20//18 7//18 15//18
f 7//19 20//19 2//19
f 20//20 1//20 16//20
f 1//21 3//21 16//21
f 1//22 20//22 2//22
f 1//23 3//23 4//23
f 16//24 12//24 11//24
f 6//25 15//25 10//25
f 10//26 7//26 2//26
f 9//27 12//27 13//27
f 11//28 12//28 8//28
f 3//29 8//29 4//29
f 12//30 18//30 13//30
f 18//31 14//31 17//31
f 8//32 3//32 16//32
f 4//33 8//33 5//33
f 16//34 20//34 18//34
f 18//35 20//35 19//35
f 18//36 12//36 16//36
f 20//22 2//22 16//22
f 16//37 2//37 3//37
f 3//20 2//20 1//20
f 19//38 12//38 20//38
f 12//39 16//39 20//39
f 11//40 3//40 16//40
f 11//41 8//41 3//41
f 13//42 14//42 17//42
f 13//43 18//43 14//43
f 18//44 12//44 19//44
