# Blender 4.0.0
# www.blender.org
o decimated_mesh
v -0.116882 -0.423393 0.107215
v -0.116870 -0.509961 0.114640
v -0.920345 -0.423551 0.110909
v -0.116870 -0.509961 0.102690
v -0.920327 -0.509937 0.106695
vn -0.0099 -0.0487 0.9988
vn 0.0046 -0.0487 0.9988
vn 1.0000 0.0001 -0.0000
vn 0.0046 0.0855 0.9963
vn 0.0050 -0.0522 0.9986
vn -0.0000 -1.0000 -0.0000
vn 0.0046 -0.0522 0.9986
vn 0.0050 -0.0487 0.9988
s 0
f 2//1 3//1 5//1
f 1//2 3//2 5//2
f 2//3 4//3 1//3
f 2//4 1//4 3//4
f 1//5 5//5 4//5
f 5//6 4//6 2//6
f 4//7 1//7 3//7
f 4//8 3//8 5//8
