# Blender 4.0.0
# www.blender.org
o decimated_mesh
v -0.518676 0.485944 0.010458
v -0.518677 0.485797 0.001347
v -0.986118 0.485287 0.010044
v -0.518676 0.429972 0.012128
v -0.985521 0.485553 0.003974
v -0.995166 0.475378 0.007476
v -0.995834 0.423719 0.008638
v -0.518677 0.430806 -0.002808
v -0.973872 0.473144 -0.014898
v -0.987358 0.476810 -0.002621
v -0.980069 0.423421 -0.014777
v -0.518676 0.473396 -0.015164
v -0.982529 0.464209 -0.012281
v -0.518677 0.440990 -0.014692
vn -0.0006 0.9999 -0.0162
vn 0.0007 -0.0146 -0.9999
vn -1.0000 -0.0000 -0.0000
vn -0.7323 0.6796 -0.0422
vn -0.7134 0.5113 -0.4792
vn -0.4453 0.5969 -0.6674
vn -0.0035 0.8345 -0.5509
vn -0.0070 -0.0217 0.9997
vn -0.5791 0.3445 -0.7389
vn -0.7923 0.1497 -0.5915
vn 0.0290 -0.7590 -0.6505
vn -0.2985 0.0253 0.9541
vn -0.8427 -0.0012 -0.5384
vn -0.0014 0.9990 0.0437
vn -0.3252 0.0382 -0.9449
vn -0.0006 -0.0023 -1.0000
vn 1.0000 -0.0000 -0.0000
vn -0.0008 0.7996 -0.6005
vn -0.0009 0.0298 0.9996
vn 0.0174 -0.9983 -0.0557
vn 0.0129 -0.9997 0.0214
vn -0.8295 -0.0158 -0.5583
s 0
f 5//1 1//1 2//1
f 12//2 14//2 11//2
f 4//3 14//3 8//3
f 6//4 3//4 5//4
f 5//5 10//5 6//5
f 5//6 9//6 10//6
f 2//7 9//7 5//7
f 4//8 3//8 7//8
f 9//9 13//9 10//9
f 10//10 13//10 6//10
f 8//11 11//11 14//11
f 6//12 7//12 3//12
f 13//13 7//13 6//13
f 5//14 3//14 1//14
f 13//15 9//15 11//15
f 9//16 12//16 11//16
f 12//17 2//17 1//17
f 1//17 4//17 12//17
f 14//3 4//3 12//3
f 12//18 9//18 2//18
f 1//19 3//19 4//19
f 11//20 8//20 4//20
f 7//21 11//21 4//21
f 13//22 11//22 7//22
f 8//3 4//3 12//3
f 8//3 12//3 14//3
