# Blender 4.0.0
# www.blender.org
o decimated_mesh
v -0.921324 -0.380518 0.113935
v -0.932409 -0.381772 0.112909
v -0.920348 -0.523112 0.114429
v -0.921922 -0.375040 0.104611
v -0.939796 -0.398801 0.110651
v -0.941434 -0.392516 0.104063
v -0.933552 -0.522166 0.113658
v -0.921779 -0.374330 0.042000
v -0.940668 -0.519509 0.108205
v -0.920327 -0.531386 0.042001
v -0.933116 -0.380735 0.042001
v -0.941309 -0.391475 0.042001
v -0.931351 -0.530712 0.104460
v -0.920609 -0.530139 0.109125
v -0.931076 -0.531094 0.042001
v -0.941553 -0.520964 0.042001
vn -0.4918 0.8705 0.0176
vn -0.6951 -0.7189 0.0013
vn 0.0001 -0.0000 1.0000
vn 0.0451 -0.9988 0.0187
vn -0.0925 0.0028 0.9957
vn -0.9999 -0.0056 0.0135
vn -0.6109 -0.0116 0.7916
vn -0.2346 -0.7395 0.6309
vn -0.0894 -0.5980 0.7965
vn -0.5989 -0.6531 0.4635
vn 0.9999 0.0092 -0.0055
vn -0.8241 0.2933 0.4846
vn -0.7950 0.6064 0.0168
vn -0.1431 0.8493 0.5081
vn -0.5355 0.8445 0.0084
vn -0.7646 -0.6441 0.0244
vn -0.0000 -0.0000 1.0000
vn -0.0002 0.0002 -1.0000
vn -0.9700 0.0021 0.2431
vn -0.0271 -0.9996 0.0060
vn -0.0579 0.0058 0.9983
vn -1.0000 0.0019 -0.0020
vn -0.3082 0.0076 0.9513
vn 1.0000 0.0068 -0.0005
vn 0.9934 0.1147 0.0036
vn 0.9992 -0.0409 0.0050
vn -0.7694 0.6387 0.0092
vn -0.0581 0.0031 0.9983
vn -0.0929 0.0061 0.9957
vn -0.5302 0.8477 0.0177
vn -0.7724 0.6349 0.0170
vn -0.4919 0.8706 0.0088
vn -0.7951 0.6065 0.0086
s 0
f 2//1 8//1 11//1
f 13//2 16//2 15//2
f 8//3 12//3 10//3
f 13//4 10//4 14//4
f 3//5 1//5 2//5
f 6//6 16//6 9//6
f 7//7 5//7 9//7
f 7//8 13//8 14//8
f 7//9 14//9 3//9
f 7//10 9//10 13//10
f 10//11 8//11 1//11
f 6//12 5//12 2//12
f 12//13 2//13 11//13
f 4//14 2//14 1//14
f 2//15 4//15 8//15
f 13//16 9//16 16//16
f 15//17 10//17 16//17
f 16//17 10//17 12//17
f 12//18 11//18 8//18
f 5//19 6//19 9//19
f 13//20 15//20 10//20
f 2//21 7//21 3//21
f 6//22 12//22 16//22
f 7//23 2//23 5//23
f 1//24 3//24 10//24
f 4//25 1//25 8//25
f 14//26 10//26 3//26
f 12//27 6//27 2//27
f 1//28 7//28 3//28
f 1//29 2//29 7//29
f 15//17 10//17 8//17
f 4//30 11//30 2//30
f 11//31 6//31 2//31
f 11//32 4//32 8//32
f 15//17 8//17 16//17
f 16//3 8//3 12//3
f 11//33 12//33 6//33
