# Blender 4.0.0
# www.blender.org
o decimated_mesh
v -0.914169 -0.045477 0.114240
v -0.933486 -0.045475 0.114195
v -0.930349 -0.045475 0.042001
v -0.913692 -0.319780 0.114304
v -0.927021 -0.319785 0.042001
v -0.941970 -0.045475 0.042001
v -0.941626 -0.319785 0.042001
v -0.940583 -0.045476 0.109743
v -0.939418 -0.319532 0.111218
vn -0.0000 -0.0000 1.0000
vn -0.1192 -0.0082 0.9928
vn -0.0001 -1.0000 0.0002
vn -0.9995 -0.0013 0.0319
vn -0.9834 -0.0119 0.1813
vn -0.5314 0.0023 0.8471
vn -0.0000 -1.0000 0.0037
vn -0.0099 -0.9999 0.0019
vn -0.0024 0.0002 1.0000
vn -0.0000 -1.0000 -0.0000
vn -0.0001 -1.0000 -0.0000
vn -0.9998 -0.0041 0.0205
vn -0.9758 -0.0016 0.2186
vn -0.0101 -0.9999 0.0040
vn -0.0000 -1.0000 0.0001
vn -0.9834 -0.0017 0.1813
vn -0.9995 -0.0041 0.0319
vn -0.9998 -0.0013 0.0205
vn -0.9758 -0.0118 0.2186
s 0
f 7//1 5//1 3//1
f 4//2 2//2 9//2
f 1//3 2//3 8//3
f 9//4 6//4 7//4
f 3//5 5//5 4//5
f 2//6 8//6 9//6
f 9//7 7//7 5//7
f 5//8 4//8 9//8
f 7//1 3//1 6//1
f 4//9 1//9 2//9
f 3//10 8//10 6//10
f 1//11 8//11 3//11
f 9//12 8//12 6//12
f 3//13 4//13 1//13
f 9//14 7//14 4//14
f 7//15 5//15 4//15
f 5//16 4//16 1//16
f 8//17 7//17 9//17
f 8//18 6//18 7//18
f 6//1 5//1 3//1
f 6//1 7//1 5//1
f 3//19 5//19 1//19
f 3//11 1//11 2//11
f 3//10 2//10 6//10
f 6//10 2//10 8//10
