# Blender 4.0.0
# www.blender.org
o Fridge_17_Mesh_8f481464_3_collision_12
v -0.116863 0.197179 0.114640
v -0.116863 -0.045475 0.114640
v -0.518527 0.197179 0.114640
v -0.116863 -0.045475 0.103473
v -0.518527 -0.045475 0.114640
v -0.116863 0.197131 0.103473
v -0.116942 0.197179 0.103527
v -0.518527 0.197179 0.105342
v -0.116863 -0.015737 0.099499
v -0.518527 -0.045475 0.105342
v -0.518527 -0.009918 0.099499
v -0.116863 0.060460 0.099499
v -0.518527 0.057135 0.099499
vn -1.0000 -0.0000 -0.0000
vn -0.5151 -0.8571 0.0036
vn -0.0000 1.0000 -0.0000
vn -0.0000 -0.0000 1.0000
vn -0.0000 -1.0000 -0.0000
vn 0.0046 0.1622 0.9868
vn 0.0019 0.1325 0.9912
vn 0.0002 -0.0291 0.9996
vn 0.0046 -0.0417 0.9991
vn 0.0030 -0.7538 0.6571
s 0
f 1//1 4//1 2//1
f 1//1 9//1 4//1
f 1//1 12//1 9//1
f 1//1 6//1 12//1
f 1//2 7//2 6//2
f 1//3 7//3 8//3
f 1//3 8//3 3//3
f 1//4 3//4 5//4
f 1//4 5//4 2//4
f 2//5 5//5 10//5
f 2//5 10//5 4//5
f 3//1 8//1 13//1
f 3//1 13//1 11//1
f 3//1 11//1 10//1
f 3//1 10//1 5//1
f 4//6 11//6 10//6
f 4//7 9//7 11//7
f 6//8 13//8 12//8
f 6//9 8//9 13//9
f 6//10 7//10 8//10
f 9//4 13//4 11//4
f 9//4 12//4 13//4
f 7//3 8//3 3//3
f 7//3 3//3 1//3
f 3//4 5//4 2//4
f 3//4 2//4 1//4
f 2//1 9//1 4//1
f 2//1 12//1 9//1
f 2//1 6//1 12//1
f 2//1 1//1 6//1
f 8//1 13//1 11//1
f 8//1 11//1 10//1
f 8//1 10//1 5//1
f 8//1 5//1 3//1
f 5//5 10//5 4//5
f 5//5 4//5 2//5
