# Blender 4.0.0
# www.blender.org
o decimated_mesh
v -0.903949 0.040897 -0.014546
v -0.903972 -0.002786 -0.001792
v -0.133245 0.023743 -0.015660
v -0.133248 0.007467 -0.014423
v -0.903949 0.007144 -0.014462
v -0.904027 0.050162 0.041995
v -0.903951 0.049753 0.001880
v -0.133223 -0.002635 -0.002506
v -0.904027 -0.003199 0.041994
v -0.133170 0.050168 0.041993
v -0.133245 0.049753 0.001880
v -0.133245 0.041146 -0.013624
v -0.133170 -0.003207 0.041994
vn -1.0000 -0.0005 0.0007
vn 0.0004 -0.7628 -0.6466
vn 0.0003 0.8743 -0.4854
vn 0.0001 -0.0758 -0.9971
vn 0.0012 0.1162 -0.9932
vn -0.0000 0.9999 -0.0102
vn -0.0000 -0.0000 1.0000
vn -0.0004 -0.7870 -0.6169
vn 1.0000 -0.0003 -0.0024
vn -1.0000 -0.0000 -0.0000
vn -1.0000 -0.0006 0.0019
vn 1.0000 -0.0000 -0.0012
vn -1.0000 -0.0000 -0.0018
vn -1.0000 0.0004 -0.0004
vn -1.0000 -0.0000 -0.0012
vn -1.0000 0.0005 -0.0019
vn -0.0000 0.8802 -0.4746
vn -0.0015 -0.0025 -1.0000
vn -0.0000 -1.0000 -0.0094
vn 0.0002 -0.9999 -0.0129
vn -0.0000 0.9999 -0.0103
vn -1.0000 -0.0002 0.0014
vn -1.0000 -0.0034 0.0019
vn -1.0000 0.0001 -0.0014
vn -1.0000 0.0033 -0.0019
s 0
f 8//1 11//1 3//1
f 5//2 4//2 8//2
f 1//3 11//3 12//3
f 5//4 3//4 4//4
f 3//5 1//5 12//5
f 7//6 6//6 11//6
f 9//7 13//7 6//7
f 13//7 10//7 6//7
f 2//8 5//8 8//8
f 4//9 3//9 8//9
f 3//10 11//10 12//10
f 11//11 8//11 10//11
f 10//12 13//12 8//12
f 1//13 5//13 2//13
f 1//14 2//14 7//14
f 2//15 9//15 6//15
f 6//16 7//16 2//16
f 1//17 7//17 11//17
f 5//18 1//18 3//18
f 9//19 2//19 13//19
f 13//20 2//20 8//20
f 6//21 10//21 11//21
f 12//22 3//22 8//22
f 11//23 12//23 10//23
f 10//22 12//22 8//22
f 2//24 6//24 1//24
f 6//25 7//25 1//25
f 7//21 10//21 11//21
f 7//6 6//6 10//6
