# Blender 4.0.0
# www.blender.org
o Fridge_17_Mesh_8f481464_3_collision_19
v -0.518527 0.060398 0.103570
v -0.518527 -0.013605 0.103570
v -0.518527 0.050169 0.041994
v -0.901292 0.060398 0.103570
v -0.518527 -0.003195 0.041994
v -0.901292 -0.013605 0.103570
v -0.901292 -0.003202 0.041994
v -0.901292 0.050169 0.041994
vn 1.0000 -0.0000 -0.0000
vn -0.0000 0.9865 -0.1639
vn -0.0000 -0.0000 1.0000
vn -0.0000 -0.9860 -0.1666
vn -0.0000 -0.9860 -0.1667
vn -0.0000 -0.0000 -1.0000
vn -1.0000 -0.0000 -0.0000
s 0
f 1//1 2//1 5//1
f 1//1 5//1 3//1
f 1//2 3//2 8//2
f 1//2 8//2 4//2
f 1//3 4//3 6//3
f 1//3 6//3 2//3
f 2//4 6//4 7//4
f 2//5 7//5 5//5
f 3//6 5//6 7//6
f 3//6 7//6 8//6
f 4//7 8//7 7//7
f 4//7 7//7 6//7
