# Blender 4.0.0
# www.blender.org
o decimated_mesh
v -0.901292 0.435990 0.041572
v -0.901290 0.413555 0.114170
v -0.518576 0.436145 0.040592
v -0.518527 0.414040 0.114430
v -0.901291 0.438879 0.111962
v -0.518526 0.438333 0.111596
vn 0.0014 -0.9580 -0.2868
vn 0.0011 0.1159 0.9933
vn 0.0014 0.9995 -0.0308
vn -0.0004 -0.9554 -0.2953
vn -1.0000 -0.0000 -0.0000
vn -0.0008 0.0869 0.9962
vn -0.0005 0.9992 -0.0410
vn 1.0000 -0.0001 -0.0007
s 0
f 2//1 3//1 4//1
f 5//2 4//2 6//2
f 3//3 5//3 6//3
f 2//4 1//4 3//4
f 2//5 5//5 1//5
f 5//6 2//6 4//6
f 3//7 1//7 5//7
f 4//8 3//8 6//8
