# Blender 4.0.0
# www.blender.org
o Fridge_17_Mesh_8f481464_3_collision_15
v -0.901292 -0.045430 0.105342
v -0.901292 -0.045430 0.114639
v -0.901292 -0.013591 0.103570
v -0.518527 -0.045430 0.105342
v -0.518527 -0.045430 0.114639
v -0.901292 0.197169 0.114640
v -0.901292 0.060445 0.103570
v -0.518527 -0.013591 0.103570
v -0.518527 0.197169 0.114640
v -0.901292 0.414550 0.114640
v -0.518527 0.060445 0.103570
v -0.901292 0.414550 0.104938
v -0.518527 0.414550 0.114640
v -0.518527 0.414550 0.104938
vn -1.0000 -0.0000 -0.0000
vn -0.0000 -0.0556 -0.9985
vn -0.0000 -1.0000 -0.0000
vn -0.0000 -0.0000 1.0000
vn -0.0000 -0.0000 -1.0000
vn 1.0000 -0.0000 -0.0000
vn -0.0000 0.0039 -1.0000
vn -0.0000 1.0000 -0.0000
s 0
f 1//1 2//1 6//1
f 1//1 6//1 10//1
f 1//1 10//1 12//1
f 1//1 12//1 7//1
f 1//1 7//1 3//1
f 1//2 3//2 8//2
f 1//2 8//2 4//2
f 1//3 4//3 5//3
f 1//3 5//3 2//3
f 2//4 5//4 9//4
f 2//4 9//4 6//4
f 3//5 7//5 11//5
f 3//5 11//5 8//5
f 4//6 8//6 11//6
f 4//6 11//6 14//6
f 4//6 14//6 13//6
f 4//6 13//6 9//6
f 4//6 9//6 5//6
f 6//4 9//4 13//4
f 6//4 13//4 10//4
f 7//7 12//7 14//7
f 7//7 14//7 11//7
f 10//8 13//8 14//8
f 10//8 14//8 12//8
