# Blender 4.0.0
# www.blender.org
o decimated_mesh
v -0.901090 0.070642 0.114165
v -0.939529 0.070260 0.112269
v -0.900802 -0.045815 0.114179
v -0.939513 0.071410 0.041763
v -0.901296 0.050163 0.042001
v -0.939076 -0.045471 0.111794
v -0.901296 -0.003202 0.042001
v -0.939502 -0.046584 0.041353
vn 0.4726 0.8474 -0.2418
vn -1.0000 -0.0025 0.0054
vn -1.0000 -0.0039 0.0061
vn 0.7011 -0.6119 -0.3661
vn -0.0622 -0.0043 0.9981
vn -0.0107 0.9998 0.0163
vn -0.0100 -0.9998 0.0159
vn -1.0000 -0.0000 0.0029
vn -1.0000 -0.0001 -0.0002
vn -0.0493 -0.0000 0.9988
vn -0.0062 -0.0000 1.0000
vn -0.0130 -0.0035 0.9999
vn -1.0000 -0.0000 0.0068
vn -1.0000 -0.0025 0.0036
vn -0.0082 -0.0035 1.0000
vn -0.0170 -0.0000 0.9999
s 0
f 1//1 5//1 4//1
f 3//2 1//2 7//2
f 2//3 8//3 6//3
f 3//4 8//4 7//4
f 3//5 2//5 6//5
f 1//6 4//6 2//6
f 3//7 6//7 8//7
f 7//8 1//8 5//8
f 2//9 4//9 8//9
f 3//10 1//10 2//10
f 5//11 4//11 7//11
f 4//12 8//12 7//12
f 7//13 3//13 5//13
f 5//14 3//14 1//14
f 4//15 8//15 5//15
f 5//16 8//16 7//16
