# Blender 4.0.0
# www.blender.org
o decimated_mesh
v 0.173571 -0.007460 -0.006270
v 0.173571 -0.006561 -0.017425
v -0.099318 -0.005626 -0.008524
v 0.173571 -0.093570 -0.042808
v -0.099317 -0.093570 -0.042747
v 0.173571 -0.093548 -0.021414
v -0.099317 -0.093501 -0.021348
vn 0.0002 -0.1733 0.9849
vn -1.0000 -0.0000 -0.0000
vn -0.0002 -1.0000 0.0032
vn -0.0002 0.2801 -0.9600
vn 1.0000 -0.0000 -0.0000
vn -0.0091 -0.1444 0.9895
vn -0.0000 -1.0000 0.0010
vn -0.0291 0.3625 -0.9315
vn 0.0060 0.9967 0.0803
s 0
f 1//1 7//1 6//1
f 3//2 5//2 7//2
f 5//3 6//3 7//3
f 5//4 2//4 4//4
f 1//5 6//5 2//5
f 2//5 6//5 4//5
f 1//6 3//6 7//6
f 5//7 4//7 6//7
f 5//8 3//8 2//8
f 3//9 1//9 2//9
