# Blender 4.0.0
# www.blender.org
o decimated_mesh
v 0.050958 0.000008 -0.000860
v 0.041683 0.028198 -0.000771
v 0.052678 0.000005 -0.000722
v 0.052494 0.020486 -0.000817
v 0.049054 0.023980 -0.000758
v 0.052093 0.022182 0.000977
v 0.049925 0.000005 0.030705
v 0.053120 0.000005 0.030705
v 0.041870 0.024674 0.030705
v 0.052734 0.021415 0.030702
v 0.041870 0.028576 0.030705
vn 0.9695 0.2448 -0.0146
vn 0.6313 0.6291 -0.4535
vn 0.0801 -0.0039 -0.9968
vn 0.9501 0.3102 0.0311
vn 0.5503 0.8349 0.0097
vn 0.9999 0.0090 -0.0079
vn 0.0018 1.0000 -0.0000
vn -0.0000 1.0000 0.0001
vn -0.0026 0.0023 -1.0000
vn 0.0259 0.0423 -0.9988
vn 0.9495 0.3123 0.0293
vn 0.4964 0.8676 0.0299
vn 0.5020 0.8648 -0.0134
vn 0.9997 0.0180 -0.0141
vn -1.0000 -0.0000 0.0059
vn 0.0002 -0.0000 1.0000
vn 0.0002 0.0001 1.0000
vn -0.0000 0.0001 1.0000
vn 0.9999 0.0089 -0.0141
vn -0.0000 1.0000 -0.0000
vn 0.0018 1.0000 0.0002
vn 0.9495 0.3123 0.0311
vn 0.9998 0.0180 -0.0081
vn 0.0003 0.0001 1.0000
vn -0.0000 -0.0000 1.0000
vn 0.9502 0.3103 0.0291
vn 0.4966 0.8679 -0.0134
vn 0.5128 0.8585 -0.0083
s 0
f 6//1 10//1 4//1
f 5//2 6//2 4//2
f 4//3 3//3 1//3
f 9//4 7//4 1//4
f 11//5 10//5 6//5
f 10//6 3//6 4//6
f 3//7 1//7 8//7
f 8//8 1//8 7//8
f 1//9 2//9 4//9
f 4//10 2//10 5//10
f 9//11 1//11 2//11
f 5//12 2//12 6//12
f 2//13 11//13 6//13
f 10//14 8//14 3//14
f 2//15 9//15 11//15
f 10//16 11//16 9//16
f 9//17 7//17 10//17
f 7//18 8//18 10//18
f 4//19 8//19 3//19
f 8//20 3//20 7//20
f 7//21 3//21 1//21
f 7//22 1//22 2//22
f 10//23 8//23 4//23
f 10//24 11//24 8//24
f 11//25 9//25 7//25
f 11//25 7//25 8//25
f 9//26 7//26 2//26
f 11//27 5//27 2//27
f 11//28 6//28 5//28
