# Blender 4.0.0
# www.blender.org
o decimated_mesh
v 0.042595 -0.027991 -0.000822
v 0.043077 -0.025302 -0.000575
v 0.038242 -0.030219 0.001655
v 0.038657 -0.030152 0.030901
v 0.000026 -0.029043 -0.000549
v 0.042984 -0.023798 0.030901
v 0.000048 -0.026617 0.030901
v 0.042984 -0.027878 0.030901
v 0.000048 -0.030413 0.030901
vn -0.0864 0.9933 -0.0766
vn -0.0087 0.0927 -0.9957
vn -0.0282 -0.9987 -0.0435
vn 0.0145 -0.7560 -0.6544
vn 0.4651 -0.8852 -0.0026
vn 0.4536 -0.8912 -0.0044
vn -0.0655 0.9967 -0.0478
vn -0.0000 -0.0000 1.0000
vn 1.0000 -0.0000 0.0029
vn 0.9844 -0.1755 -0.0115
vn 0.0068 -1.0000 0.0022
vn -1.0000 -0.0000 0.0007
s 0
f 7//1 2//1 5//1
f 1//2 5//2 2//2
f 3//3 9//3 5//3
f 3//4 5//4 1//4
f 8//5 4//5 1//5
f 4//6 3//6 1//6
f 7//7 6//7 2//7
f 8//8 6//8 4//8
f 6//8 7//8 4//8
f 7//8 9//8 4//8
f 2//9 6//9 8//9
f 8//10 1//10 2//10
f 3//11 4//11 9//11
f 5//12 9//12 7//12
