# Blender 4.0.0
# www.blender.org
o decimated_mesh
v -0.036597 -0.027052 0.029542
v -0.044374 -0.027052 0.029542
v -0.050622 -0.020468 -0.000987
v -0.049655 -0.020465 0.029542
v -0.052848 -0.020573 0.029542
v -0.039264 -0.027039 -0.000811
v -0.051752 -0.022571 0.029542
v -0.052185 -0.022179 0.000957
v -0.043940 -0.027012 -0.000572
v -0.048965 -0.024191 -0.000890
v -0.052549 -0.020485 -0.000932
vn -0.5191 -0.8547 -0.0039
vn -0.0000 -0.0000 1.0000
vn -0.5009 -0.8654 0.0160
vn -0.6436 -0.6272 -0.4386
vn -0.0000 -1.0000 -0.0004
vn -0.0058 -1.0000 -0.0014
vn -0.0282 -0.0383 -0.9989
vn 0.0007 -0.0255 -0.9997
vn -0.0510 -0.2012 -0.9782
vn -0.4918 -0.8664 0.0867
vn -0.5068 -0.8620 -0.0084
vn -0.0340 0.9994 0.0026
vn -0.0091 1.0000 0.0002
vn -0.9753 -0.2207 -0.0102
vn -0.4501 -0.8921 0.0392
vn -0.8767 -0.4810 0.0067
vn -0.5008 -0.8645 0.0436
vn -0.4504 -0.8927 0.0144
vn -0.5191 -0.8547 -0.0020
vn -0.4890 -0.8722 -0.0082
vn -0.5314 -0.8471 -0.0036
s 0
f 2//1 7//1 8//1
f 7//2 4//2 5//2
f 4//3 3//3 6//3
f 10//4 8//4 11//4
f 6//5 1//5 2//5
f 9//6 6//6 2//6
f 10//7 11//7 3//7
f 3//8 6//8 10//8
f 6//9 9//9 10//9
f 8//10 10//10 9//10
f 9//11 2//11 8//11
f 11//12 5//12 4//12
f 4//13 3//13 11//13
f 7//2 2//2 4//2
f 2//2 1//2 4//2
f 5//14 11//14 8//14
f 4//15 6//15 1//15
f 8//16 7//16 5//16
f 6//17 1//17 3//17
f 3//18 1//18 4//18
f 7//19 10//19 2//19
f 10//20 9//20 2//20
f 8//21 10//21 7//21
