# Blender 4.0.0
# www.blender.org
o decimated_mesh
v -0.039967 0.028733 -0.000977
v 0.000048 0.027785 -0.000676
v -0.042598 0.027708 -0.000771
v -0.042207 0.028256 -0.000676
v -0.037420 0.030295 0.000879
v 0.000048 0.028940 -0.000676
v 0.000047 0.030291 0.000552
v 0.000048 0.027602 0.035277
v -0.040594 0.029306 0.031123
v 0.000048 0.028645 0.035142
v -0.036726 0.030327 0.032598
v -0.041962 0.027838 0.035037
v 0.000047 0.030355 0.032957
v -0.043477 0.027602 0.031134
vn -0.5087 0.8610 -0.0026
vn -0.1886 0.2965 -0.9362
vn -0.2422 0.8801 -0.4084
vn -0.3889 0.9212 -0.0107
vn -0.0066 0.7873 0.6165
vn 0.0021 0.6722 -0.7404
vn -0.3291 0.9162 0.2287
vn -0.0055 0.7688 -0.6395
vn 0.0075 -0.0000 -1.0000
vn -0.5030 0.8522 0.1439
vn -0.8123 0.5829 -0.0205
vn -0.0018 1.0000 0.0033
vn -0.0005 1.0000 0.0051
vn -0.0060 -0.9980 0.0625
vn 1.0000 0.0001 -0.0000
vn 1.0000 -0.0000 -0.0001
vn 1.0000 -0.0000 0.0003
vn -0.0049 0.1282 0.9917
vn -0.2569 0.9664 0.0046
vn -0.0155 0.7164 0.6976
vn 0.0026 -0.2028 -0.9792
vn -0.0008 1.0000 -0.0010
vn 0.0001 1.0000 -0.0020
vn -0.0018 1.0000 0.0051
vn -0.0003 1.0000 0.0033
vn 1.0000 0.0002 -0.0000
vn 1.0000 -0.0000 -0.0000
s 0
f 4//1 14//1 9//1
f 3//2 4//2 1//2
f 1//3 4//3 5//3
f 9//4 5//4 4//4
f 11//5 10//5 13//5
f 7//6 6//6 1//6
f 9//7 12//7 11//7
f 5//8 7//8 1//8
f 2//9 1//9 6//9
f 14//10 12//10 9//10
f 4//11 3//11 14//11
f 3//12 14//12 2//12
f 2//13 14//13 8//13
f 8//14 12//14 14//14
f 7//15 13//15 2//15
f 13//16 10//16 8//16
f 8//15 2//15 13//15
f 2//17 6//17 7//17
f 8//18 10//18 12//18
f 9//19 11//19 5//19
f 11//20 12//20 10//20
f 2//21 3//21 1//21
f 11//22 13//22 5//22
f 13//23 7//23 5//23
f 2//24 3//24 8//24
f 8//25 3//25 14//25
f 13//26 6//26 7//26
f 13//15 10//15 6//15
f 10//27 8//27 2//27
f 10//27 2//27 6//27
