# Blender 4.0.0
# www.blender.org
o decimated_mesh
v 0.049799 -0.023391 -0.000748
v 0.052090 -0.022076 0.000765
v 0.049830 -0.023491 0.034674
v 0.052270 -0.020728 -0.000907
v 0.053001 -0.018999 0.000717
v 0.051527 -0.022453 0.033656
v 0.051343 0.000005 -0.000962
v 0.052594 0.000005 -0.000805
v 0.052582 -0.020532 0.034761
v 0.050637 0.000005 0.000717
v 0.049833 -0.020403 0.037255
v 0.052845 0.000005 0.034333
v 0.049832 0.000005 0.037401
vn 0.6469 -0.6261 -0.4354
vn 0.9507 -0.2833 -0.1264
vn -0.9204 0.0572 -0.3867
vn 0.6469 -0.6148 0.4513
vn 0.7136 0.0055 0.7005
vn 0.4993 -0.8664 -0.0029
vn 0.5542 -0.5341 0.6385
vn 0.9999 -0.0126 0.0117
vn 0.8742 -0.4855 0.0094
vn 0.9589 -0.2838 -0.0010
vn 0.9998 -0.0027 0.0219
vn 0.9994 -0.0357 -0.0010
vn -1.0000 -0.0000 0.0011
vn 0.9167 -0.0124 -0.3995
vn 0.6718 -0.0053 0.7407
vn -0.0001 1.0000 -0.0000
vn -0.0000 1.0000 -0.0000
vn 0.5215 -0.8532 -0.0009
vn 0.9998 0.0208 -0.0071
vn -0.0585 -0.0053 -0.9983
vn 0.1245 0.0029 -0.9922
vn 1.0000 -0.0000 -0.0009
vn 0.9991 -0.0371 0.0219
s 0
f 1//1 4//1 2//1
f 2//2 4//2 5//2
f 1//3 10//3 7//3
f 6//4 9//4 3//4
f 9//5 12//5 13//5
f 3//6 1//6 2//6
f 11//7 3//7 9//7
f 5//8 12//8 9//8
f 2//9 9//9 6//9
f 2//10 5//10 9//10
f 13//11 3//11 10//11
f 1//12 10//12 3//12
f 13//13 3//13 11//13
f 5//14 4//14 8//14
f 13//15 11//15 9//15
f 7//16 10//16 8//16
f 10//17 13//17 12//17
f 12//17 8//17 10//17
f 2//18 6//18 3//18
f 5//19 8//19 12//19
f 1//20 7//20 4//20
f 7//21 8//21 4//21
f 13//22 3//22 1//22
f 8//16 10//16 13//16
f 10//23 13//23 1//23
f 12//17 8//17 13//17
