# Blender 4.0.0
# www.blender.org
o decimated_mesh
v -0.050997 -0.020405 -0.000721
v -0.051896 -0.000068 -0.001345
v -0.050286 -0.000082 0.029545
v -0.049655 -0.020464 0.029545
v -0.053145 -0.000082 0.029545
v -0.052942 -0.020368 0.029545
vn -0.9991 -0.0100 -0.0404
vn 0.9977 0.0425 -0.0520
vn -0.0000 -0.0000 1.0000
vn -0.0292 -0.9996 -0.0006
vn -0.0000 1.0000 0.0004
vn -0.9969 -0.0460 -0.0640
vn 0.9985 0.0309 -0.0442
s 0
f 2//1 6//1 5//1
f 3//2 1//2 2//2
f 3//3 6//3 4//3
f 4//4 6//4 1//4
f 5//5 3//5 2//5
f 2//6 1//6 6//6
f 3//7 4//7 1//7
f 5//3 6//3 3//3
