# Blender 4.0.0
# www.blender.org
o decimated_mesh
v -0.248464 0.006416 0.039951
v -0.262888 0.004181 0.034638
v -0.263828 0.012021 0.028862
v -0.248428 0.001184 0.040998
v -0.248443 -0.007104 0.039361
v -0.273793 0.000005 0.029851
v -0.248437 0.011792 0.035650
v -0.299546 -0.003865 0.016450
v -0.248429 0.016161 0.027669
v -0.321984 0.016832 -0.008722
v -0.321991 0.011241 -0.000749
v -0.301566 0.004133 0.015702
v -0.304185 -0.007541 0.012497
v -0.321983 0.003363 0.002238
v -0.248431 -0.012986 0.033654
v -0.321983 -0.001675 0.002282
v -0.321982 -0.010570 -0.000250
v -0.321984 0.018533 -0.015214
v -0.321985 -0.016884 -0.010654
v -0.248430 0.020553 0.011294
v -0.321983 0.018300 -0.021238
v -0.248431 0.020307 -0.015945
v -0.295537 0.018651 -0.031532
v -0.321984 0.016727 -0.026700
v -0.261069 0.019592 -0.022714
v -0.293867 0.016030 -0.039236
v -0.321987 -0.017771 -0.019922
v -0.248430 -0.020171 0.008642
v -0.248430 -0.018668 0.017483
v -0.293448 0.011882 -0.042672
v -0.262125 0.015831 -0.031173
v -0.261924 0.012263 -0.035029
v -0.321992 0.011137 -0.035830
v -0.296480 0.004914 -0.047187
v -0.248430 0.015448 -0.026693
v -0.248422 0.007170 -0.033473
v -0.296009 0.002405 -0.047555
v -0.258310 0.003149 -0.039063
v -0.321983 -0.000053 -0.038925
v -0.321983 0.006631 -0.038004
v -0.295500 -0.017790 -0.032781
v -0.264306 -0.019130 -0.023376
v -0.248431 -0.019775 -0.015531
v -0.294400 -0.004514 -0.046864
v -0.248430 -0.001675 -0.034623
v -0.321988 -0.008937 -0.037255
v -0.321983 -0.016230 -0.026302
v -0.293918 -0.015580 -0.038983
v -0.258852 -0.002005 -0.039304
v -0.293587 -0.011574 -0.042554
v -0.262622 -0.007536 -0.038627
v -0.248431 -0.006611 -0.033370
v -0.261974 -0.015465 -0.031234
v -0.321983 -0.012780 -0.032582
v -0.248431 -0.015568 -0.025829
vn -1.0000 -0.0003 0.0010
vn -0.0877 -0.9821 0.1669
vn -0.1977 -0.6432 -0.7398
vn 0.1112 0.9029 -0.4153
vn -0.5507 0.0074 0.8346
vn -0.1787 0.6630 0.7270
vn 0.2184 -0.2640 -0.9395
vn -0.3211 0.0786 -0.9438
vn -0.1935 -0.8599 -0.4724
vn -0.5331 0.2994 0.7913
vn 0.1476 -0.9156 -0.3740
vn -0.3890 -0.1778 0.9039
vn 0.4051 -0.2250 -0.8861
vn 0.4097 -0.0004 -0.9122
vn -0.1140 -0.9657 -0.2334
vn -0.2550 0.6015 -0.7571
vn -0.1196 0.9541 -0.2747
vn -0.1306 0.9296 -0.3446
vn 0.1740 0.6385 -0.7497
vn -0.2877 0.6168 0.7327
vn -0.3644 0.1805 0.9136
vn 0.2028 0.4688 -0.8597
vn -0.0222 0.9996 -0.0200
vn 0.3119 0.6022 -0.7349
vn 0.2127 0.1811 -0.9602
vn -0.1171 0.9607 0.2517
vn -0.2831 0.4162 -0.8641
vn -0.4367 0.1182 0.8918
vn -0.2985 -0.1761 -0.9380
vn 0.4532 0.1146 -0.8840
vn 0.2110 -0.0485 -0.9763
vn -0.2070 0.8345 -0.5107
vn 0.1728 -0.4986 -0.8494
vn 0.2766 0.4785 -0.8334
vn 0.3459 -0.3427 -0.8734
vn -0.2029 -0.5271 -0.8252
vn -0.2902 0.7836 0.5493
vn -0.2166 -0.7542 -0.6199
vn -0.3586 0.5842 0.7280
vn -1.0000 -0.0000 -0.0001
vn -1.0000 -0.0000 -0.0000
vn -1.0000 0.0006 -0.0019
vn -1.0000 -0.0000 0.0001
vn -1.0000 -0.0002 -0.0011
vn 0.9998 0.0107 0.0195
vn 1.0000 -0.0028 0.0049
vn 1.0000 -0.0006 -0.0018
vn 0.1667 0.8985 -0.4061
vn 0.1616 0.8941 -0.4177
vn -0.5370 -0.0570 0.8416
vn -0.1787 0.6631 0.7269
vn -1.0000 0.0001 -0.0000
vn -1.0000 -0.0003 0.0005
vn -1.0000 -0.0019 -0.0022
vn -1.0000 0.0001 -0.0001
vn -1.0000 -0.0035 0.0031
vn -1.0000 -0.0001 0.0001
vn -1.0000 0.0010 0.0020
vn -1.0000 -0.0000 -0.0005
vn -1.0000 -0.0000 0.0002
vn -0.1481 -0.9330 0.3279
vn -0.3282 0.1289 -0.9358
vn 0.0537 0.9488 -0.3112
vn 0.0994 -0.9128 -0.3962
vn 0.1456 -0.9125 -0.3823
vn 0.2193 0.0226 -0.9754
vn -0.4024 0.0013 0.9155
vn -0.4575 -0.0325 0.8886
vn -0.1983 0.6006 -0.7746
vn 0.0566 -0.9449 -0.3224
vn -0.3970 -0.3915 0.8301
vn -0.2582 -0.8259 0.5013
vn -0.3041 0.6362 0.7090
vn 0.2049 0.4629 -0.8624
vn -0.0267 -0.9982 -0.0535
vn -0.0326 -0.9993 -0.0163
vn -0.0248 -0.9995 -0.0202
vn -0.0283 0.9989 -0.0386
vn -0.0190 0.9995 -0.0235
vn -0.0517 0.9986 -0.0090
vn -0.0693 -0.9931 0.0951
vn -0.1185 0.9591 0.2572
vn -0.4066 -0.2919 0.8657
vn -0.3221 -0.6596 0.6791
vn -0.2972 -0.1631 -0.9408
vn -0.2984 -0.7470 0.5941
vn 0.2339 0.7198 -0.6536
vn 0.1732 0.7275 -0.6639
vn -0.1949 0.8604 0.4709
vn -0.2036 0.8806 0.4278
vn -0.5369 -0.2029 0.8189
vn -0.5404 -0.2304 0.8092
vn -0.1434 -0.9201 -0.3645
vn -0.3349 0.5326 0.7773
vn -0.3731 0.5883 0.7174
vn -0.3761 0.5200 0.7669
vn -1.0000 -0.0014 0.0005
vn -1.0000 -0.0007 -0.0000
vn -1.0000 -0.0002 -0.0001
vn -1.0000 0.0002 -0.0001
vn -1.0000 0.0003 -0.0000
vn -1.0000 0.0004 0.0002
vn -1.0000 0.0006 0.0007
vn -0.3094 0.6124 0.7275
vn -0.0005 0.9946 -0.1042
vn -0.0244 0.9992 -0.0323
vn -0.0242 0.9997 -0.0090
vn -1.0000 -0.0002 -0.0000
vn -1.0000 -0.0019 -0.0020
vn -1.0000 0.0003 -0.0002
vn -0.0263 -0.9995 -0.0163
vn -0.0254 -0.9992 -0.0309
vn -0.2798 0.6424 0.7135
vn -0.2023 0.5930 -0.7794
vn -0.1992 0.6131 -0.7644
vn -1.0000 0.0017 -0.0002
vn -1.0000 0.0010 -0.0000
vn -1.0000 0.0020 0.0006
vn -0.3647 0.5236 0.7699
vn -0.3174 0.5934 0.7397
vn -1.0000 0.0002 0.0002
vn -1.0000 -0.0004 0.0004
vn -1.0000 -0.0023 -0.0011
vn -1.0000 -0.0000 -0.0033
vn -1.0000 0.0006 -0.0055
vn -1.0000 0.0028 -0.0008
vn -1.0000 -0.0004 0.0008
vn -1.0000 0.0001 0.0031
vn -1.0000 -0.0042 -0.0023
s 0
f 15//1 4//1 7//1
f 28//2 29//2 19//2
f 48//3 46//3 50//3
f 31//4 26//4 25//4
f 16//5 12//5 14//5
f 51//6 50//6 48//6
f 51//7 44//7 49//7
f 39//8 34//8 37//8
f 54//9 48//9 47//9
f 12//10 11//10 14//10
f 55//11 43//11 42//11
f 4//12 6//12 5//12
f 49//13 45//13 52//13
f 49//14 38//14 45//14
f 27//15 47//15 41//15
f 26//16 30//16 34//16
f 21//17 23//17 24//17
f 24//18 23//18 26//18
f 26//19 32//19 30//19
f 53//20 55//20 52//20
f 2//21 4//21 1//21
f 32//22 34//22 30//22
f 23//23 20//23 25//23
f 35//24 36//24 32//24
f 34//25 38//25 37//25
f 10//26 20//26 18//26
f 34//27 40//27 33//27
f 6//28 2//28 12//28
f 39//29 44//29 46//29
f 36//30 45//30 38//30
f 37//31 49//31 44//31
f 33//32 24//32 26//32
f 44//33 51//33 50//33
f 36//34 38//34 32//34
f 49//35 52//35 51//35
f 44//36 50//36 46//36
f 11//37 3//37 10//37
f 48//38 54//38 46//38
f 2//39 1//39 7//39
f 15//40 9//40 29//40
f 29//41 20//41 28//41
f 28//41 22//41 43//41
f 43//41 35//41 55//41
f 36//42 52//42 35//42
f 35//40 43//40 22//40
f 22//41 28//41 20//41
f 20//43 29//43 9//43
f 9//44 15//44 7//44
f 7//45 1//45 4//45
f 5//46 15//46 4//46
f 55//41 35//41 52//41
f 52//47 45//47 36//47
f 25//48 22//48 35//48
f 35//49 31//49 25//49
f 16//50 8//50 12//50
f 51//51 48//51 53//51
f 16//52 14//52 19//52
f 17//53 16//53 19//53
f 11//54 10//54 14//54
f 14//43 10//43 19//43
f 10//41 18//41 19//41
f 18//55 21//55 27//55
f 21//52 24//52 27//52
f 24//56 33//56 40//56
f 40//57 39//57 24//57
f 24//40 39//40 54//40
f 39//58 46//58 54//58
f 54//41 47//41 24//41
f 47//59 27//59 24//59
f 27//60 19//60 18//60
f 29//61 15//61 19//61
f 39//62 40//62 34//62
f 23//63 25//63 26//63
f 48//64 53//64 42//64
f 53//65 55//65 42//65
f 49//66 37//66 38//66
f 2//67 6//67 4//67
f 6//68 12//68 8//68
f 34//69 33//69 26//69
f 42//70 41//70 48//70
f 13//71 5//71 8//71
f 15//72 17//72 19//72
f 53//73 52//73 51//73
f 38//74 34//74 32//74
f 41//75 42//75 27//75
f 42//76 43//76 28//76
f 28//77 27//77 42//77
f 23//78 21//78 18//78
f 18//79 20//79 23//79
f 20//80 22//80 25//80
f 19//81 27//81 28//81
f 10//82 9//82 20//82
f 8//83 5//83 6//83
f 5//84 13//84 15//84
f 39//85 37//85 44//85
f 15//86 13//86 17//86
f 35//87 32//87 31//87
f 32//88 26//88 31//88
f 3//89 7//89 9//89
f 9//90 10//90 3//90
f 8//91 16//91 13//91
f 16//92 17//92 13//92
f 47//93 48//93 41//93
f 7//94 3//94 2//94
f 3//95 11//95 12//95
f 2//96 3//96 12//96
f 35//97 36//97 22//97
f 22//98 36//98 9//98
f 9//99 36//99 4//99
f 4//100 36//100 28//100
f 28//101 36//101 43//101
f 43//102 36//102 55//102
f 55//103 36//103 52//103
f 55//104 52//104 51//104
f 25//105 23//105 22//105
f 23//106 18//106 22//106
f 18//107 20//107 22//107
f 20//108 22//108 9//108
f 7//109 9//109 4//109
f 15//110 4//110 29//110
f 29//52 4//52 28//52
f 27//111 43//111 28//111
f 27//112 42//112 43//112
f 53//113 55//113 51//113
f 53//51 51//51 50//51
f 33//114 30//114 34//114
f 33//115 26//115 30//115
f 21//116 33//116 18//116
f 33//117 11//117 18//117
f 11//118 10//118 18//118
f 2//119 1//119 3//119
f 1//120 7//120 3//120
f 17//121 27//121 19//121
f 17//122 11//122 27//122
f 11//108 33//108 27//108
f 33//108 46//108 27//108
f 46//123 47//123 27//123
f 48//6 53//6 50//6
f 46//124 33//124 39//124
f 33//125 40//125 39//125
f 21//126 24//126 33//126
f 17//127 16//127 11//127
f 16//128 14//128 11//128
f 54//129 47//129 46//129
