# Blender 4.0.0
# www.blender.org
o decimated_mesh
v -0.367617 0.011403 -0.077323
v -0.367885 0.008986 -0.097077
v -0.359352 0.008913 -0.077321
v -0.372440 0.008358 -0.096641
v -0.378408 0.007695 -0.077318
v -0.362910 0.007432 -0.096553
v -0.375476 0.005280 -0.096769
v -0.359251 0.002733 -0.094259
v -0.361034 0.000179 -0.097198
v -0.375993 0.000155 -0.097190
v -0.377601 0.002172 -0.094400
v -0.356800 0.005534 -0.077320
v -0.359183 -0.002372 -0.094142
v -0.362813 -0.007262 -0.096478
v -0.368161 -0.008608 -0.097019
v -0.377601 -0.001677 -0.094400
v -0.375485 -0.004813 -0.096739
v -0.380697 0.000356 -0.077319
v -0.356690 -0.003853 -0.077319
v -0.372527 -0.007854 -0.096693
v -0.378546 -0.007283 -0.077317
v -0.358551 -0.008323 -0.077315
v -0.362645 -0.010329 -0.077319
v -0.369295 -0.010915 -0.077321
vn -0.0002 -0.0001 -1.0000
vn -0.8716 0.4528 -0.1876
vn 0.8305 -0.5146 -0.2132
vn -0.3242 0.9435 -0.0678
vn -0.8177 -0.5423 0.1930
vn -0.8742 -0.4450 -0.1943
vn -0.0214 -0.0030 -0.9998
vn -0.2862 -0.9498 0.1261
vn -0.9529 -0.2685 -0.1408
vn 0.7205 0.2441 -0.6491
vn 0.8552 -0.0004 -0.5183
vn -0.6948 0.6935 -0.1908
vn -0.7012 -0.6851 -0.1976
vn -0.8162 0.1286 -0.5633
vn 0.7308 -0.2366 -0.6402
vn -0.8178 -0.1345 -0.5596
vn -0.9452 0.2948 -0.1400
vn 0.9894 0.0116 -0.1451
vn 0.9100 -0.3790 -0.1682
vn -0.0914 -0.1011 -0.9907
vn -0.9840 -0.0000 -0.1783
vn 0.4355 -0.8883 -0.1460
vn 0.1313 -0.1265 -0.9832
vn 0.0872 -0.9900 -0.1109
vn -0.3641 -0.9274 -0.0858
vn -0.8664 -0.0000 -0.4993
vn -0.1153 0.1546 -0.9812
vn -0.1778 -0.9762 -0.1245
vn -0.0006 0.0004 -1.0000
vn -0.0007 -0.0005 -1.0000
vn 0.0003 -0.0004 -1.0000
vn 0.0018 -0.0017 -1.0000
vn 0.0002 -0.0001 -1.0000
vn 0.0003 0.0002 -1.0000
vn -0.7802 -0.5892 0.2103
vn 0.0179 -0.0036 -0.9998
vn -0.3075 -0.9440 0.1197
vn 0.1424 0.1241 -0.9820
vn -0.1468 0.9821 -0.1181
vn 0.2558 -0.9542 -0.1550
vn 0.9893 0.0099 -0.1457
vn -0.0862 -0.0989 -0.9914
vn -0.0842 0.0900 -0.9924
vn -0.2864 -0.9505 0.1202
vn -0.0001 -0.0012 -1.0000
vn -0.0003 -0.0003 -1.0000
vn -0.7834 -0.5916 0.1905
vn -0.3081 -0.9425 0.1296
vn -0.0001 -0.0003 -1.0000
vn -0.0005 0.0133 -0.9999
vn 0.0010 -0.0001 -1.0000
vn 0.0001 -0.0001 -1.0000
vn -0.0020 -0.0001 -1.0000
vn 0.0002 0.0016 -1.0000
vn -0.8184 -0.5361 0.2071
vn -0.0005 -0.0200 -0.9998
vn -0.0892 -0.0991 -0.9911
vn -0.0919 -0.1044 -0.9903
s 0
f 18//1 1//1 24//1
f 5//2 7//2 11//2
f 22//3 14//3 13//3
f 1//4 4//4 5//4
f 6//5 8//5 3//5
f 17//6 21//6 16//6
f 15//7 2//7 9//7
f 1//8 6//8 3//8
f 21//9 18//9 16//9
f 6//10 8//10 9//10
f 9//11 8//11 13//11
f 7//12 5//12 4//12
f 21//13 17//13 20//13
f 7//14 10//14 11//14
f 9//15 13//15 14//15
f 10//16 17//16 16//16
f 11//17 18//17 5//17
f 19//18 8//18 12//18
f 13//19 19//19 22//19
f 20//20 10//20 15//20
f 16//21 18//21 11//21
f 14//22 22//22 23//22
f 15//23 9//23 14//23
f 23//24 24//24 15//24
f 20//25 24//25 21//25
f 10//26 16//26 11//26
f 4//27 2//27 7//27
f 24//28 20//28 15//28
f 5//29 1//29 18//29
f 18//30 24//30 21//30
f 24//31 19//31 23//31
f 23//32 19//32 22//32
f 19//33 1//33 12//33
f 1//34 3//34 12//34
f 24//33 1//33 19//33
f 3//35 8//35 12//35
f 15//36 10//36 2//36
f 2//37 6//37 1//37
f 6//38 9//38 2//38
f 2//39 4//39 1//39
f 14//40 23//40 15//40
f 19//41 13//41 8//41
f 20//42 17//42 10//42
f 2//43 10//43 7//43
f 3//44 1//44 2//44
f 5//45 1//45 3//45
f 22//46 3//46 12//46
f 12//47 3//47 6//47
f 6//48 3//48 2//48
f 5//49 3//49 22//49
f 9//50 10//50 2//50
f 18//51 5//51 21//51
f 21//52 5//52 22//52
f 19//53 22//53 12//53
f 21//54 22//54 24//54
f 24//54 22//54 23//54
f 8//55 12//55 6//55
f 15//56 10//56 9//56
f 15//57 17//57 10//57
f 20//58 17//58 15//58
