# Blender 4.0.0
# www.blender.org
o decimated_mesh
v 0.108541 0.035820 -0.006599
v 0.108571 0.035821 -0.004467
v 0.108740 -0.020698 0.005298
v 0.108939 0.027085 -0.004079
v 0.108887 0.023616 -0.005236
v 0.108634 -0.024279 0.005286
v 0.107239 0.035821 -0.007101
v 0.103545 0.035821 -0.002191
v 0.103045 -0.010642 0.005298
v 0.108724 -0.022498 0.003914
v 0.107221 0.025655 -0.005979
v 0.108793 -0.017666 0.001674
v 0.107320 -0.025841 0.005295
v 0.108348 -0.008726 -0.000300
v 0.107298 -0.017642 0.001306
v -0.107338 -0.017576 0.001256
v -0.107767 -0.025659 0.005295
v -0.108834 -0.022581 0.003913
v -0.108925 -0.017868 0.001716
v -0.102829 -0.010719 0.005298
v -0.108930 -0.022470 0.005361
v -0.108528 -0.008726 -0.000300
v -0.108521 0.018497 -0.004799
v -0.103387 0.035821 -0.002188
v -0.109084 0.025108 -0.005351
v -0.108798 0.035821 -0.004427
v -0.108794 0.035819 -0.006029
v -0.107695 0.035821 -0.006933
vn 0.9552 0.0531 0.2911
vn 0.0001 -0.4375 -0.8992
vn 0.2658 0.1506 0.9522
vn 0.2431 -0.1503 -0.9583
vn 0.5995 -0.5075 -0.6189
vn 0.2313 -0.1988 -0.9523
vn 0.3575 -0.1031 -0.9282
vn -0.9391 -0.3417 -0.0356
vn -0.2389 -0.1992 -0.9504
vn -0.2778 0.1493 0.9490
vn -0.1810 -0.4185 -0.8900
vn -0.7610 -0.1080 -0.6396
vn -0.0001 0.1588 0.9873
vn -0.0018 1.0000 -0.0008
vn -0.6355 -0.0316 -0.7715
vn 0.2115 -0.4134 -0.8856
vn -0.2850 -0.1038 -0.9529
vn 0.4073 0.1567 0.8997
vn -0.9996 0.0269 -0.0029
vn -1.0000 -0.0050 -0.0077
vn -0.9969 -0.0480 -0.0620
vn -0.9953 0.0183 0.0955
vn -0.0000 -0.0002 1.0000
vn -0.0010 -0.0005 1.0000
vn 0.0108 -0.0037 0.9999
vn 0.0294 -0.0099 0.9995
vn -0.0004 -0.4470 -0.8945
vn -0.0014 -0.1222 -0.9925
vn -0.0008 -0.1097 -0.9940
vn -0.0000 -0.1731 -0.9849
vn -0.0000 -0.1631 -0.9866
vn -0.0000 -0.1630 -0.9866
vn 0.0002 -0.1773 -0.9842
vn 0.7119 -0.1175 -0.6924
vn 0.3034 -0.0973 -0.9479
vn -0.1131 -0.4394 -0.8912
vn -0.6869 -0.1183 -0.7171
vn -0.0000 0.1591 0.9873
vn -0.0000 1.0000 -0.0000
vn 0.0005 1.0000 -0.0003
vn 0.1541 -0.4319 -0.8887
vn -0.3777 0.1542 0.9130
vn 0.9997 -0.0066 -0.0254
vn 0.9951 0.0174 -0.0970
vn 0.9999 -0.0121 0.0043
vn 0.9992 -0.0296 0.0271
vn 0.9990 0.0415 -0.0142
vn 0.9999 -0.0016 0.0131
vn -0.0001 1.0000 -0.0003
vn 0.0003 1.0000 0.0002
vn -0.0000 1.0000 0.0013
vn -0.0000 1.0000 -0.0008
vn 0.0003 0.0003 1.0000
vn 0.0003 -0.0008 1.0000
vn 0.3578 -0.0936 -0.9291
vn 0.2944 -0.1054 -0.9499
vn -0.0000 0.0054 1.0000
vn -0.0000 -0.0206 0.9998
s 0
f 3//1 4//1 2//1
f 13//2 16//2 15//2
f 3//3 8//3 9//3
f 11//4 5//4 14//4
f 6//5 13//5 10//5
f 12//6 15//6 14//6
f 11//7 7//7 1//7
f 18//8 17//8 21//8
f 19//9 22//9 16//9
f 20//10 24//10 21//10
f 16//11 18//11 19//11
f 25//12 22//12 19//12
f 9//13 24//13 20//13
f 27//14 26//14 28//14
f 25//15 27//15 28//15
f 15//16 12//16 10//16
f 23//17 25//17 28//17
f 2//18 8//18 3//18
f 27//19 25//19 26//19
f 25//20 19//20 21//20
f 19//21 18//21 21//21
f 21//22 26//22 25//22
f 17//23 13//23 20//23
f 9//24 13//24 3//24
f 6//25 3//25 13//25
f 9//23 20//23 13//23
f 20//26 21//26 17//26
f 13//27 17//27 16//27
f 23//28 28//28 11//28
f 28//29 7//29 11//29
f 16//30 22//30 14//30
f 22//31 23//31 11//31
f 14//32 22//32 11//32
f 14//33 15//33 16//33
f 5//34 12//34 14//34
f 1//35 5//35 11//35
f 16//36 17//36 18//36
f 25//37 23//37 22//37
f 9//38 8//38 24//38
f 26//39 24//39 28//39
f 24//39 8//39 7//39
f 28//39 24//39 7//39
f 8//39 2//39 7//39
f 2//40 1//40 7//40
f 13//41 15//41 10//41
f 21//42 24//42 26//42
f 12//43 5//43 4//43
f 5//44 1//44 4//44
f 10//45 12//45 3//45
f 3//46 6//46 10//46
f 2//47 4//47 1//47
f 4//48 3//48 12//48
f 2//49 1//49 8//49
f 1//50 7//50 8//50
f 7//39 28//39 8//39
f 28//51 27//51 8//51
f 27//52 26//52 8//52
f 26//39 24//39 8//39
f 9//53 21//53 3//53
f 21//54 13//54 3//54
f 5//55 7//55 1//55
f 5//56 11//56 7//56
f 20//57 21//57 9//57
f 17//58 13//58 21//58
f 14//32 23//32 11//32
f 14//31 22//31 23//31
