# Blender 4.0.0
# www.blender.org
o decimated_mesh
v 0.109014 0.058713 -0.006989
v 0.103816 0.035827 -0.002296
v 0.108560 0.035827 -0.004420
v 0.102083 0.058701 -0.004702
v 0.108973 0.049312 -0.007610
v 0.106941 0.058699 -0.008806
v 0.108378 0.035908 -0.007007
v -0.103646 0.058701 -0.004250
v -0.103334 0.035827 -0.002159
v -0.109077 0.058701 -0.006348
v -0.108788 0.035829 -0.004356
v -0.108433 0.035917 -0.006880
v -0.109046 0.058696 -0.008006
vn 0.0007 0.1046 0.9945
vn 0.4067 0.0940 0.9087
vn -0.0006 -0.0787 -0.9969
vn 0.3109 0.1227 0.9425
vn 0.6582 0.0468 -0.7514
vn 0.3007 -0.0562 -0.9521
vn -0.3593 0.0764 0.9301
vn -0.9997 -0.0143 -0.0188
vn 0.0022 0.0911 0.9958
vn -0.0000 1.0000 -0.0004
vn 0.0011 1.0000 -0.0028
vn -0.0000 1.0000 -0.0012
vn -0.0030 1.0000 -0.0039
vn 0.0135 0.9995 0.0303
vn -0.0000 0.9998 0.0190
vn -0.0127 0.9994 0.0328
vn 0.0001 0.9999 0.0172
vn -0.0037 -0.0495 -0.9988
vn -0.3725 0.0795 0.9246
vn 0.9962 -0.0100 0.0863
vn 0.9963 -0.0474 -0.0715
vn -0.9895 -0.0336 -0.1404
vn -0.0000 1.0000 -0.0073
vn -0.0001 1.0000 -0.0028
vn -0.0001 1.0000 0.0002
vn -0.0000 1.0000 0.0052
vn -0.0000 1.0000 0.0001
vn -0.0000 0.9995 0.0312
vn -0.3727 0.0758 0.9249
vn -0.3592 0.0801 0.9298
vn 0.0007 0.0911 0.9958
vn 0.0022 0.1047 0.9945
vn -0.0000 1.0000 0.0012
vn 0.0001 0.9994 0.0346
s 0
f 4//1 9//1 2//1
f 3//2 1//2 2//2
f 7//3 12//3 6//3
f 4//4 2//4 1//4
f 6//5 1//5 5//5
f 5//6 7//6 6//6
f 8//7 10//7 11//7
f 13//8 11//8 10//8
f 4//9 8//9 9//9
f 6//10 13//10 4//10
f 10//11 8//11 13//11
f 8//12 4//12 13//12
f 4//13 1//13 6//13
f 3//14 7//14 2//14
f 2//15 12//15 9//15
f 9//16 12//16 11//16
f 12//17 2//17 7//17
f 13//18 6//18 12//18
f 9//19 8//19 11//19
f 1//20 3//20 5//20
f 3//21 7//21 5//21
f 13//22 12//22 11//22
f 6//23 13//23 1//23
f 13//24 10//24 1//24
f 10//25 8//25 1//25
f 8//26 4//26 1//26
f 2//27 3//27 11//27
f 11//28 3//28 7//28
f 11//29 9//29 10//29
f 9//30 8//30 10//30
f 9//31 2//31 8//31
f 2//32 4//32 8//32
f 9//33 2//33 11//33
f 12//34 11//34 7//34
