# Blender 4.0.0
# www.blender.org
o decimated_mesh
v 0.042141 -0.080090 -0.062532
v 0.042134 -0.053902 -0.061270
v 0.042067 -0.080004 -0.059452
v 0.039517 -0.053895 -0.077463
v 0.040686 -0.081258 -0.062132
v 0.039624 -0.080056 -0.077531
v 0.039579 -0.080100 -0.046658
v 0.039270 -0.057235 -0.079476
v 0.036464 -0.053869 -0.083987
v 0.033048 -0.051866 -0.076008
v 0.034701 -0.051866 -0.062132
v 0.039517 -0.053931 -0.046800
v 0.039201 -0.057696 -0.044228
v 0.038215 -0.081702 -0.050874
v 0.038050 -0.081669 -0.074734
v 0.037948 -0.080562 -0.080670
v 0.036926 -0.079992 -0.083511
v 0.039317 -0.078339 -0.079361
v 0.039041 -0.078291 -0.043625
v 0.037843 -0.080486 -0.042247
v 0.030007 -0.053865 -0.094576
v 0.037076 -0.053750 -0.040961
v 0.037845 -0.055414 -0.041524
v 0.035999 -0.081732 -0.043380
v 0.035999 -0.081601 -0.080893
v 0.030183 -0.080370 -0.094335
v 0.031014 -0.080147 -0.030423
v 0.026137 -0.051866 -0.088084
v 0.031229 -0.051866 -0.044078
v 0.030867 -0.053851 -0.030596
v 0.028053 -0.081701 -0.030198
v 0.028964 -0.081656 -0.092611
v 0.026758 -0.080026 -0.097463
v 0.030337 -0.078443 -0.094588
v 0.029738 -0.078449 -0.028245
v 0.028795 -0.080488 -0.028077
v 0.017964 -0.055440 -0.104066
v 0.018512 -0.053810 -0.103340
v 0.027303 -0.053778 -0.026941
v 0.029584 -0.055198 -0.028370
v 0.017996 -0.080361 -0.103753
v 0.014210 -0.053909 -0.105491
v 0.014671 -0.051866 -0.097010
v 0.024550 -0.051866 -0.034123
v 0.014815 -0.081676 -0.020208
v 0.015894 -0.081626 -0.102844
v 0.014084 -0.080176 -0.105630
v 0.016208 -0.078233 -0.105253
v 0.023169 -0.079846 -0.023397
v 0.015936 -0.080161 -0.018344
v 0.017167 -0.080728 -0.019926
v 0.015679 -0.057447 -0.105412
v 0.002850 -0.053837 -0.108165
v 0.016319 -0.053869 -0.018646
v 0.004201 -0.080090 -0.107989
v 0.007156 -0.079983 -0.016317
v 0.003172 -0.081639 -0.017594
v -0.000080 -0.055271 -0.108590
v 0.012315 -0.051866 -0.025344
v -0.002159 -0.081715 -0.017476
v 0.000409 -0.081535 -0.106892
v 0.000824 -0.080555 -0.108287
v 0.001121 -0.078466 -0.108718
v 0.014894 -0.057447 -0.017915
v -0.000345 -0.078417 -0.014800
v 0.001607 -0.080705 -0.015693
v -0.002715 -0.053812 -0.107974
v -0.001507 -0.051866 -0.100178
v 0.005848 -0.053807 -0.016233
v -0.000394 -0.055184 -0.015114
v -0.012605 -0.081712 -0.103909
v -0.002589 -0.080320 -0.108121
v -0.001507 -0.078548 -0.108562
v 0.000824 -0.057447 -0.014903
v -0.002490 -0.080658 -0.015697
v -0.014816 -0.053839 -0.105510
v 0.000659 -0.051866 -0.022846
v -0.004127 -0.053770 -0.015934
v -0.015489 -0.081611 -0.020390
v -0.001507 -0.057447 -0.014921
v -0.007592 -0.079866 -0.016363
v -0.019867 -0.081707 -0.099750
v -0.014586 -0.080212 -0.105625
v -0.016658 -0.080194 -0.018686
v -0.015371 -0.051866 -0.096532
v -0.010328 -0.051866 -0.024968
v -0.028624 -0.081630 -0.030533
v -0.026970 -0.081242 -0.095661
v -0.031158 -0.081714 -0.088467
v -0.019319 -0.079947 -0.102973
v -0.016049 -0.078548 -0.105201
v -0.029060 -0.080031 -0.027998
v -0.016049 -0.057447 -0.105201
v -0.028317 -0.054003 -0.096257
v -0.024654 -0.051866 -0.089957
v -0.016714 -0.053920 -0.018729
v -0.030307 -0.053909 -0.029438
v -0.030956 -0.080143 -0.030143
v -0.036290 -0.081683 -0.043571
v -0.028644 -0.079965 -0.096099
v -0.036515 -0.081627 -0.080035
v -0.030611 -0.055896 -0.093813
v -0.032841 -0.053811 -0.089758
v -0.024828 -0.051866 -0.034160
v -0.038716 -0.080725 -0.045731
v -0.039052 -0.081744 -0.056881
v -0.038592 -0.080704 -0.078542
v -0.039030 -0.081721 -0.066825
v -0.030772 -0.078548 -0.093704
v -0.038112 -0.080158 -0.042461
v -0.038097 -0.055113 -0.081517
v -0.037922 -0.053864 -0.042316
v -0.040493 -0.080381 -0.052260
v -0.041236 -0.080738 -0.062768
v -0.038147 -0.079912 -0.081532
v -0.031828 -0.080297 -0.091444
v -0.040380 -0.080305 -0.072173
v -0.039220 -0.078310 -0.044382
v -0.038113 -0.053738 -0.080342
v -0.031756 -0.051866 -0.078441
v -0.031846 -0.051866 -0.045657
v -0.040323 -0.053816 -0.051782
v -0.039616 -0.056228 -0.046184
v -0.042245 -0.078396 -0.062311
v -0.039336 -0.078548 -0.078542
v -0.038757 -0.057447 -0.043380
v -0.039291 -0.056182 -0.078451
v -0.040297 -0.053835 -0.072118
v -0.042226 -0.057551 -0.062701
v -0.041894 -0.055242 -0.062427
v -0.040832 -0.053642 -0.062132
v -0.034765 -0.051866 -0.062132
vn 0.2093 -0.0025 0.9778
vn -0.2034 -0.1177 -0.9720
vn -0.2422 0.0033 0.9702
vn 0.8537 0.0117 -0.5206
vn -0.9554 0.0070 0.2954
vn -0.4709 -0.8330 -0.2906
vn 0.8335 -0.4008 -0.3804
vn 0.1634 -0.9614 0.2214
vn 0.9997 -0.0009 0.0240
vn 0.9003 -0.2845 0.3294
vn -0.0000 -1.0000 -0.0000
vn -0.4078 -0.7248 -0.5553
vn -0.5092 -0.8555 0.0936
vn -0.0608 -0.1937 -0.9792
vn -0.5352 -0.8402 -0.0874
vn -0.9830 -0.0034 -0.1835
vn -0.0455 0.9707 0.2359
vn -0.0103 -0.8604 0.5095
vn 0.1582 -0.7075 -0.6888
vn -0.8652 -0.0049 0.5015
vn 0.4619 -0.8379 0.2908
vn 0.7175 -0.2793 0.6381
vn -0.8366 0.5455 0.0504
vn -0.0050 -0.3674 0.9301
vn 0.1658 -0.9862 -0.0025
vn 0.6546 0.4180 0.6299
vn 0.2566 0.9652 0.0494
vn -0.2403 0.9603 -0.1419
vn -0.1327 -0.8049 0.5784
vn 0.9862 0.0013 -0.1654
vn -0.9854 -0.0070 0.1703
vn -0.9182 -0.3168 -0.2378
vn 0.4898 -0.5626 0.6660
vn 0.0521 0.9685 0.2433
vn -0.2685 -0.9623 0.0430
vn 0.6585 -0.1494 -0.7376
vn -0.4806 -0.8290 0.2860
vn -0.5881 0.0054 -0.8088
vn 0.2355 -0.9614 -0.1426
vn 0.0162 -0.9961 0.0862
vn -0.0593 0.0024 -0.9982
vn 0.4777 -0.8317 -0.2829
vn 0.1664 -0.6106 0.7743
vn 0.8431 -0.1357 -0.5204
vn -0.5926 -0.0089 -0.8055
vn 0.5955 -0.7958 0.1098
vn 0.3198 -0.8537 -0.4110
vn -0.0013 -1.0000 0.0016
vn 0.8868 0.2875 0.3618
vn -0.2581 -0.8551 -0.4497
vn -0.1908 -0.5390 0.8205
vn 0.1320 -0.8416 -0.5237
vn -0.1994 0.0529 -0.9785
vn -0.4866 -0.2122 -0.8474
vn 0.8366 0.2165 0.5033
vn 0.0270 0.5538 0.8322
vn -0.2657 0.9623 -0.0592
vn 0.6182 0.0100 -0.7860
vn -0.7936 0.2394 -0.5594
vn 0.2117 0.0071 -0.9773
vn 0.8959 0.0060 0.4443
vn 0.8771 -0.2680 -0.3986
vn -0.0307 0.3412 -0.9395
vn -0.2548 0.9660 0.0451
vn -0.5335 -0.8113 0.2391
vn -0.9080 -0.3512 0.2286
vn -0.1579 -0.9668 0.2010
vn -0.8333 -0.1747 -0.5245
vn 0.4077 -0.7448 -0.5282
vn -0.8541 0.0020 -0.5201
vn -0.9307 0.2782 0.2375
vn -0.9215 -0.3123 0.2310
vn -0.9313 0.2306 -0.2821
vn -0.3469 -0.8242 0.4476
vn -0.9286 0.0034 -0.3710
vn -0.0079 0.0053 1.0000
vn 0.8546 -0.0030 0.5192
vn -0.1515 -0.9767 -0.1521
vn -0.7311 0.0051 -0.6823
vn 0.4928 -0.8584 0.1423
vn -0.7923 -0.2442 -0.5591
vn -0.2780 -0.0000 -0.9606
vn 0.1406 -0.2537 0.9570
vn -0.3373 -0.8008 -0.4949
vn 0.3007 -0.8654 0.4007
vn 0.1385 0.1657 0.9764
vn 0.1970 -0.0062 0.9804
vn 0.2088 0.0682 0.9756
vn 0.2248 -0.0081 0.9744
vn 0.2238 0.1087 0.9685
vn 0.1154 -0.2167 -0.9694
vn -0.2194 0.0023 -0.9756
vn -0.2035 0.0113 -0.9790
vn -0.2281 -0.9615 -0.1531
vn 0.2028 0.9628 0.1785
vn -0.2231 -0.9643 -0.1431
vn -0.2482 0.0011 0.9687
vn -0.2097 -0.0060 0.9777
vn -0.2167 0.1126 0.9697
vn -0.1539 0.1589 0.9752
vn 0.8666 -0.0008 -0.4990
vn 0.8509 0.0055 -0.5252
vn 0.8598 0.0059 -0.5106
vn 0.8904 0.1848 -0.4160
vn -0.5547 -0.7801 -0.2894
vn -0.5373 -0.7835 -0.3121
vn -0.4913 -0.7781 -0.3914
vn -0.4315 -0.8483 -0.3068
vn 0.1632 -0.9593 0.2304
vn -0.1610 -0.2300 0.9598
vn 0.4054 -0.2739 -0.8722
vn 0.5035 0.0062 -0.8640
vn 0.4028 0.1473 -0.9034
vn -0.5624 -0.8241 0.0677
vn -0.4379 -0.8940 0.0949
vn 0.4784 -0.8618 -0.1688
vn 0.5510 -0.8187 -0.1620
vn 0.6146 -0.7818 -0.1049
vn 0.6059 -0.7891 -0.1010
vn -0.0514 -0.2115 -0.9760
vn -0.5005 -0.8598 -0.1014
vn -0.4463 -0.8922 -0.0693
vn -0.9870 0.0027 -0.1609
vn -0.9827 -0.0026 -0.1854
vn -0.9823 0.0591 -0.1779
vn -0.0669 0.9661 0.2495
vn 0.0229 -0.8897 0.4560
vn 0.5939 0.1616 0.7881
vn -0.8560 0.0073 0.5170
vn -0.8647 0.0037 0.5023
vn -0.8596 0.0494 0.5085
vn 0.4598 -0.8305 0.3143
vn 0.4265 -0.8666 0.2592
vn -0.6005 -0.0000 0.7997
vn -0.6188 0.0137 0.7854
vn 0.6001 0.1486 -0.7860
vn 0.2660 0.9605 0.0814
vn 0.2585 0.9648 0.0487
vn -0.2320 0.9621 -0.1431
vn -0.2313 0.9543 -0.1892
vn 0.1450 0.9686 0.2021
vn 0.1451 0.9684 0.2028
vn -0.1313 -0.8627 0.4884
vn -0.8458 0.1107 -0.5220
vn 0.9869 0.0230 -0.1595
vn 0.9876 0.0078 -0.1568
vn 0.9862 -0.0000 -0.1655
vn -0.4118 -0.9113 -0.0031
vn -0.9870 -0.0046 0.1607
vn -0.9878 0.0038 0.1558
vn -0.9218 -0.3181 -0.2216
vn 0.0117 0.9619 0.2731
vn 0.0635 0.9660 0.2508
vn 0.2716 0.9545 -0.1233
vn -0.2919 -0.9558 0.0348
vn 0.4190 -0.7010 0.5771
vn 0.9290 0.1525 0.3372
vn -0.5025 -0.8134 0.2929
vn -0.5631 -0.0000 -0.8264
vn -0.5933 0.0026 -0.8050
vn -0.5621 0.1220 -0.8180
vn -0.9341 0.1177 0.3370
vn 0.2365 -0.9608 -0.1444
vn 0.4760 -0.8329 -0.2822
vn -0.9100 -0.4073 0.0781
vn -0.1232 0.9732 0.1943
vn -0.1707 0.9610 0.2176
vn -0.0078 0.0888 0.9960
vn -0.5917 -0.0082 -0.8061
vn 0.5727 0.0011 0.8198
vn 0.5409 -0.8293 0.1403
vn 0.5659 -0.8193 0.0919
vn 0.6318 -0.7742 0.0368
vn 0.3260 -0.8457 -0.4225
vn 0.2702 -0.8204 0.5040
vn 0.6218 -0.6939 -0.3631
vn 0.1273 -0.8059 0.5782
vn 0.1283 -0.8442 0.5205
vn -0.0389 -0.9991 -0.0145
vn 0.0006 -1.0000 0.0001
vn 0.0045 -0.9992 -0.0397
vn 0.0004 -1.0000 0.0045
vn 0.0007 -1.0000 -0.0014
vn -0.0025 -1.0000 -0.0048
vn 0.0002 -1.0000 0.0045
vn 0.0063 -0.9999 -0.0131
vn 0.0033 -1.0000 -0.0072
vn 0.0007 -1.0000 -0.0001
vn 0.0007 -1.0000 0.0024
vn 0.0004 -1.0000 -0.0024
vn 0.0001 -1.0000 0.0040
vn -0.0020 -0.9996 -0.0268
vn -0.0013 -1.0000 0.0009
vn -0.0022 -1.0000 0.0047
vn 0.0426 0.9752 -0.2173
vn 0.0968 0.9664 -0.2380
vn 0.0619 0.9696 -0.2369
vn 0.1325 -0.8290 -0.5433
vn 0.2329 -0.7925 -0.5637
vn 0.9833 0.0391 0.1780
vn 0.9822 -0.0021 0.1880
vn 0.9851 0.0094 0.1717
vn 0.9813 -0.0276 0.1906
vn -0.9207 -0.3769 -0.1012
vn -0.9779 0.1570 -0.1383
vn -0.2806 0.9592 -0.0337
vn -0.2577 0.9651 -0.0475
vn -0.8274 0.5588 -0.0552
vn 0.6239 0.0088 -0.7815
vn 0.5834 -0.0793 -0.8083
vn 0.5936 -0.0038 -0.8048
vn -0.0572 0.9743 -0.2176
vn -0.0040 0.9704 -0.2416
vn -0.0499 0.9708 -0.2346
vn 0.2290 0.0736 -0.9706
vn 0.2239 -0.0018 -0.9746
vn 0.2311 -0.0642 -0.9708
vn 0.2240 -0.0129 -0.9745
vn 0.1375 0.0126 -0.9904
vn 0.6091 -0.2189 0.7623
vn 0.8537 -0.1536 0.4975
vn 0.4489 0.0037 0.8936
vn -0.2807 0.9593 0.0300
vn -0.2743 0.9587 0.0745
vn 0.2449 0.9580 -0.1490
vn 0.2410 0.9607 -0.1379
vn 0.4292 0.2433 -0.8698
vn -0.1582 -0.9663 0.2032
vn -0.8554 0.0036 -0.5179
vn -0.7491 0.0007 0.6625
vn -0.9339 0.2607 -0.2449
vn -0.4346 -0.7936 0.4258
vn -0.3507 -0.8181 0.4557
vn -0.1199 -0.8118 -0.5714
vn -0.1190 -0.8358 -0.5359
vn -0.0839 -0.8033 -0.5896
vn -0.9321 0.0021 -0.3621
vn 0.8643 0.0084 0.5029
vn 0.8433 0.0082 0.5373
vn 0.8656 0.0081 0.5007
vn -0.9837 0.1262 0.1282
vn -0.9866 0.0612 0.1510
vn -0.7471 0.0021 -0.6647
vn -0.8062 0.3791 -0.4543
vn -0.2487 0.0020 -0.9686
vn -0.3228 -0.8064 -0.4955
vn 0.2947 -0.8702 0.3948
vn 0.0589 -0.9978 -0.0306
vn 0.0087 -1.0000 -0.0015
vn 0.0024 -1.0000 -0.0019
vn 0.8596 0.0021 -0.5110
vn 0.8535 0.0117 -0.5210
vn 0.8537 0.0139 -0.5206
vn -0.2894 -0.9561 0.0464
vn -0.2674 -0.9631 0.0319
vn 0.4775 -0.8318 -0.2831
vn 0.4761 -0.8330 -0.2819
vn 0.0018 -1.0000 -0.0018
vn 0.0003 -1.0000 -0.0005
vn 0.0020 -1.0000 0.0036
vn -0.0000 -1.0000 0.0007
vn -0.1592 -0.9662 0.2027
vn 0.8556 -0.0028 0.5176
vn 0.8556 -0.0206 0.5173
vn -0.0024 -1.0000 -0.0029
vn -0.1253 -0.8140 -0.5671
vn -0.1135 -0.8310 -0.5446
vn -0.0009 -1.0000 -0.0012
vn -0.0053 -1.0000 0.0057
vn -0.0057 -1.0000 -0.0024
vn 0.2959 -0.8701 0.3943
vn 0.0035 -1.0000 0.0072
vn -0.1143 -0.8631 0.4919
vn -0.0115 -0.9998 0.0168
vn -0.0074 -0.9999 0.0084
vn -0.1570 -0.9668 0.2016
vn -0.2203 -0.9642 -0.1479
vn -0.2310 -0.9617 -0.1478
vn 0.8453 0.0707 0.5296
vn 0.8469 0.0084 0.5317
vn -0.5927 -0.0082 -0.8054
vn -0.0615 -0.2055 -0.9767
vn -0.9857 -0.0271 0.1664
vn -0.5213 -0.8483 -0.0931
vn -0.4598 -0.8830 -0.0938
vn 0.3002 -0.8647 0.4028
vn 0.1368 -0.8075 0.5738
vn 0.1121 -0.8522 0.5110
vn -0.1469 -0.8077 0.5710
vn -0.3453 -0.8243 0.4487
vn -0.3525 -0.8177 0.4551
vn -0.5917 -0.0086 -0.8061
vn 0.1677 -0.9592 0.2278
vn 0.1567 -0.9626 0.2212
vn -0.0521 -0.1950 -0.9794
vn -0.8647 -0.0043 0.5023
vn -0.8681 -0.0046 0.4963
vn -0.9861 -0.0041 0.1664
vn -0.9843 -0.0024 -0.1764
vn -0.9830 -0.0531 -0.1757
vn -0.9262 -0.2961 -0.2334
vn -0.9029 -0.3626 -0.2306
vn -0.9288 0.0021 -0.3705
vn -0.8553 0.0020 -0.5180
vn -0.8541 0.0035 -0.5202
vn 0.2349 -0.9614 -0.1434
vn 0.2370 -0.9608 -0.1435
vn -0.9831 0.0027 -0.1830
vn -0.9323 0.0034 -0.3617
s 0
f 56//1 64//1 74//1
f 73//2 72//2 83//2
f 96//3 81//3 80//3
f 34//4 21//4 9//4
f 118//5 126//5 123//5
f 89//6 101//6 116//6
f 6//7 16//7 17//7
f 85//8 94//8 76//8
f 3//9 1//9 2//9
f 7//10 19//10 20//10
f 28//11 120//11 85//11
f 90//12 88//12 100//12
f 105//13 113//13 106//13
f 63//14 62//14 72//14
f 114//15 117//15 108//15
f 117//16 129//16 127//16
f 86//17 78//17 77//17
f 66//18 75//18 60//18
f 47//19 62//19 55//19
f 126//20 118//20 98//20
f 20//21 27//21 31//21
f 27//22 35//22 36//22
f 122//23 131//23 130//23
f 66//24 65//24 75//24
f 15//25 5//25 14//25
f 30//26 39//26 40//26
f 12//27 11//27 29//27
f 103//28 119//28 120//28
f 79//29 60//29 84//29
f 18//30 8//30 1//30
f 124//31 113//31 123//31
f 125//32 107//32 117//32
f 36//33 49//33 50//33
f 77//34 69//34 59//34
f 11//35 4//35 2//35
f 33//36 34//36 26//36
f 87//37 98//37 99//37
f 93//38 90//38 94//38
f 112//39 104//39 97//39
f 45//40 57//40 60//40
f 73//41 58//41 63//41
f 26//42 25//42 32//42
f 56//43 66//43 50//43
f 26//44 34//44 17//44
f 35//45 49//45 54//45
f 3//46 7//46 14//46
f 46//47 26//47 32//47
f 31//48 87//48 24//48
f 22//49 23//49 12//49
f 71//50 82//50 83//50
f 81//51 84//51 75//51
f 47//52 46//52 61//52
f 76//53 67//53 58//53
f 83//54 90//54 91//54
f 30//55 23//55 22//55
f 78//56 70//56 69//56
f 120//57 119//57 128//57
f 33//58 37//58 21//58
f 94//59 102//59 103//59
f 53//60 52//60 63//60
f 23//61 19//61 13//61
f 18//62 6//62 17//62
f 67//63 53//63 58//63
f 121//64 132//64 122//64
f 99//65 110//65 105//65
f 105//66 110//66 113//66
f 21//67 43//67 38//67
f 109//68 116//68 115//68
f 26//69 41//69 33//69
f 115//70 111//70 102//70
f 112//71 122//71 123//71
f 110//72 118//72 113//72
f 127//73 119//73 111//73
f 84//74 92//74 79//74
f 127//75 115//75 125//75
f 65//76 74//76 80//76
f 27//77 19//77 23//77
f 88//78 82//78 89//78
f 100//79 102//79 94//79
f 20//80 24//80 14//80
f 116//81 109//81 100//81
f 93//82 83//82 91//82
f 66//83 56//83 65//83
f 90//84 82//84 88//84
f 51//85 45//85 31//85
f 70//86 74//86 69//86
f 74//87 65//87 56//87
f 69//88 74//88 64//88
f 56//89 50//89 64//89
f 64//90 54//90 69//90
f 62//91 63//91 55//91
f 83//92 76//92 73//92
f 76//93 58//93 73//93
f 29//94 22//94 44//94
f 44//95 39//95 30//95
f 22//96 30//96 44//96
f 96//97 84//97 81//97
f 81//98 65//98 80//98
f 96//99 80//99 78//99
f 80//100 70//100 78//100
f 8//101 18//101 17//101
f 9//102 8//102 17//102
f 17//103 34//103 9//103
f 8//104 9//104 4//104
f 107//105 115//105 101//105
f 115//106 116//106 101//106
f 116//107 100//107 88//107
f 89//108 116//108 88//108
f 95//109 94//109 85//109
f 81//110 75//110 65//110
f 48//111 41//111 47//111
f 52//112 37//112 48//112
f 10//11 120//11 28//11
f 28//11 68//11 43//11
f 85//11 68//11 28//11
f 85//11 120//11 95//11
f 120//11 11//11 132//11
f 132//11 11//11 121//11
f 120//11 10//11 11//11
f 121//11 44//11 104//11
f 104//11 44//11 86//11
f 86//11 59//11 77//11
f 59//11 86//11 44//11
f 44//11 121//11 29//11
f 29//11 121//11 11//11
f 52//113 42//113 37//113
f 114//114 106//114 113//114
f 106//115 99//115 105//115
f 16//116 15//116 25//116
f 16//117 6//117 15//117
f 6//118 1//118 15//118
f 1//119 5//119 15//119
f 73//120 63//120 72//120
f 101//121 108//121 117//121
f 107//122 101//122 117//122
f 127//123 125//123 117//123
f 117//124 124//124 129//124
f 129//125 128//125 127//125
f 96//126 78//126 86//126
f 60//127 57//127 66//127
f 54//128 40//128 39//128
f 98//129 97//129 126//129
f 110//130 98//130 118//130
f 97//131 112//131 126//131
f 27//132 36//132 31//132
f 31//133 24//133 20//133
f 84//134 96//134 92//134
f 96//135 97//135 92//135
f 37//136 38//136 21//136
f 29//137 22//137 12//137
f 12//138 2//138 11//138
f 120//139 95//139 103//139
f 95//140 94//140 103//140
f 44//141 59//141 39//141
f 39//142 59//142 54//142
f 75//143 84//143 60//143
f 103//144 102//144 111//144
f 8//145 4//145 2//145
f 2//146 1//146 8//146
f 1//147 6//147 18//147
f 108//148 106//148 114//148
f 118//149 123//149 113//149
f 123//150 129//150 124//150
f 125//151 115//151 107//151
f 78//152 69//152 77//152
f 69//153 54//153 59//153
f 9//154 10//154 4//154
f 10//155 4//155 11//155
f 50//156 51//156 36//156
f 13//157 12//157 23//157
f 98//158 110//158 99//158
f 93//159 91//159 90//159
f 90//160 100//160 94//160
f 94//161 76//161 93//161
f 126//162 112//162 123//162
f 104//163 112//163 121//163
f 26//164 16//164 25//164
f 114//165 113//165 124//165
f 86//166 104//166 96//166
f 104//167 97//167 96//167
f 80//168 74//168 70//168
f 40//169 35//169 54//169
f 54//170 50//170 49//170
f 7//171 20//171 14//171
f 14//172 5//172 3//172
f 5//173 1//173 3//173
f 46//174 41//174 26//174
f 45//175 51//175 50//175
f 17//176 16//176 26//176
f 45//177 50//177 57//177
f 50//178 66//178 57//178
f 101//179 89//179 108//179
f 89//180 82//180 15//180
f 71//181 61//181 46//181
f 32//182 25//182 82//182
f 15//183 14//183 106//183
f 14//184 24//184 87//184
f 106//185 14//185 99//185
f 25//186 15//186 82//186
f 71//187 46//187 32//187
f 89//188 15//188 108//188
f 82//189 71//189 32//189
f 106//190 108//190 15//190
f 87//191 99//191 14//191
f 60//192 79//192 45//192
f 31//193 45//193 87//193
f 45//194 79//194 87//194
f 68//195 43//195 53//195
f 43//196 38//196 42//196
f 53//197 43//197 42//197
f 61//198 62//198 47//198
f 47//199 41//199 46//199
f 12//200 13//200 2//200
f 13//201 19//201 3//201
f 2//202 13//202 3//202
f 19//203 7//203 3//203
f 117//204 114//204 124//204
f 128//205 129//205 130//205
f 131//206 132//206 128//206
f 132//207 120//207 128//207
f 131//208 128//208 130//208
f 21//209 34//209 33//209
f 33//210 41//210 48//210
f 48//211 37//211 33//211
f 85//212 68//212 76//212
f 68//213 53//213 67//213
f 76//214 68//214 67//214
f 53//215 42//215 52//215
f 52//216 48//216 63//216
f 48//217 47//217 55//217
f 63//218 48//218 55//218
f 58//219 53//219 63//219
f 35//220 49//220 36//220
f 19//221 27//221 20//221
f 54//222 64//222 50//222
f 131//223 122//223 132//223
f 122//224 112//224 121//224
f 21//225 28//225 9//225
f 28//226 10//226 9//226
f 42//227 38//227 37//227
f 43//228 21//228 28//228
f 102//229 109//229 115//229
f 98//230 92//230 97//230
f 127//231 128//231 119//231
f 98//232 87//232 92//232
f 87//233 79//233 92//233
f 71//234 83//234 61//234
f 83//235 72//235 61//235
f 72//236 62//236 61//236
f 127//237 111//237 115//237
f 30//238 40//238 35//238
f 23//239 30//239 27//239
f 35//240 27//240 30//240
f 130//241 129//241 122//241
f 129//242 123//242 122//242
f 100//243 109//243 102//243
f 111//244 119//244 103//244
f 93//245 76//245 83//245
f 90//246 83//246 82//246
f 36//247 51//247 31//247
f 32//248 25//248 15//248
f 14//249 24//249 15//249
f 24//250 32//250 15//250
f 17//251 34//251 8//251
f 34//252 21//252 8//252
f 21//253 9//253 8//253
f 4//254 2//254 10//254
f 10//255 2//255 11//255
f 26//256 16//256 32//256
f 16//257 25//257 32//257
f 24//258 71//258 32//258
f 106//259 71//259 24//259
f 31//260 60//260 24//260
f 60//261 106//261 24//261
f 38//262 21//262 28//262
f 10//11 43//11 28//11
f 10//11 68//11 43//11
f 10//11 85//11 68//11
f 10//11 95//11 85//11
f 10//11 120//11 95//11
f 10//11 132//11 120//11
f 10//11 121//11 132//11
f 10//11 104//11 121//11
f 10//11 86//11 104//11
f 10//11 77//11 86//11
f 10//11 59//11 77//11
f 10//11 44//11 59//11
f 10//11 29//11 44//11
f 10//11 11//11 29//11
f 23//263 35//263 19//263
f 35//264 27//264 19//264
f 89//265 82//265 71//265
f 83//266 72//266 71//266
f 72//267 61//267 71//267
f 106//268 89//268 71//268
f 60//269 99//269 106//269
f 108//270 89//270 106//270
f 36//271 45//271 31//271
f 45//272 60//272 31//272
f 75//273 79//273 60//273
f 79//274 87//274 60//274
f 87//275 99//275 60//275
f 43//276 38//276 28//276
f 44//277 29//277 30//277
f 30//278 29//278 22//278
f 30//279 40//279 23//279
f 40//280 35//280 23//280
f 40//281 35//281 49//281
f 73//282 62//282 72//282
f 118//283 124//283 113//283
f 117//284 107//284 108//284
f 107//285 101//285 108//285
f 51//286 45//286 36//286
f 50//287 66//287 45//287
f 66//288 57//288 45//288
f 84//289 79//289 75//289
f 84//290 87//290 79//290
f 84//291 92//291 87//291
f 54//292 40//292 49//292
f 94//293 76//293 95//293
f 95//294 76//294 85//294
f 63//295 62//295 73//295
f 126//296 110//296 98//296
f 126//297 118//297 110//297
f 118//298 123//298 124//298
f 129//299 125//299 124//299
f 125//300 117//300 124//300
f 125//301 115//301 117//301
f 115//302 107//302 117//302
f 125//303 111//303 115//303
f 111//304 109//304 115//304
f 111//305 102//305 109//305
f 104//306 97//306 121//306
f 121//307 97//307 112//307
f 127//308 125//308 129//308
f 127//309 111//309 125//309
