# Blender 4.0.0
# www.blender.org
o decimated_mesh
v -0.000124 0.031547 0.071982
v 0.000919 0.049103 0.050510
v -0.001473 0.049253 0.050510
v 0.006958 0.031547 0.074445
v -0.007515 0.031547 0.074714
v -0.008558 0.052747 0.050510
v 0.007772 0.052286 0.050510
v -0.012001 0.031547 0.078885
v -0.012639 0.055660 0.050510
v 0.011428 0.031547 0.077938
v -0.014281 0.057616 0.050510
v 0.013765 0.056555 0.050510
v 0.013130 0.031547 0.082679
v -0.013224 0.031539 0.084723
v -0.015708 0.062134 0.050510
v -0.015672 0.065058 0.050510
v 0.016118 0.063629 0.050533
v -0.011863 0.031547 0.089679
v -0.013905 0.039893 0.081936
v -0.015444 0.061618 0.057646
v 0.013171 0.031547 0.085615
v -0.014281 0.064048 0.060102
v -0.011999 0.041436 0.086592
v -0.012228 0.044805 0.084599
v -0.014424 0.046954 0.075084
v -0.014044 0.069397 0.050510
v 0.013896 0.038689 0.082556
v -0.010410 0.031547 0.092167
v -0.012253 0.066032 0.062525
v -0.013985 0.069498 0.050510
v 0.013743 0.065513 0.060962
v 0.013666 0.042709 0.082166
v 0.011302 0.031569 0.091306
v -0.010626 0.044296 0.086501
v -0.006470 0.031547 0.095636
v 0.013729 0.070679 0.050532
v 0.014969 0.062134 0.059793
v 0.011170 0.066678 0.062807
v 0.011248 0.032697 0.091263
v -0.007437 0.046933 0.086912
v -0.007976 0.068122 0.063250
v -0.012220 0.071545 0.050512
v 0.008223 0.068019 0.063351
v 0.011471 0.044524 0.085821
v 0.006486 0.031550 0.095722
v -0.006988 0.043703 0.089212
v 0.008798 0.073290 0.050511
v 0.007138 0.047033 0.086952
v 0.006777 0.035300 0.093855
v -0.000004 0.031548 0.097322
v 0.000067 0.046714 0.088704
v -0.007887 0.073446 0.050512
v 0.006397 0.044457 0.089044
v 0.009368 0.045104 0.086970
v -0.000091 0.069798 0.061777
v -0.000238 0.074382 0.050511
v -0.000519 0.068343 0.064494
vn 0.1237 0.9160 0.3815
vn -0.0001 -0.0001 1.0000
vn -0.2129 0.7615 0.6122
vn 0.9434 0.0577 0.3267
vn -0.4795 0.4637 0.7450
vn 0.9942 -0.1069 -0.0143
vn 0.4787 0.6706 0.5667
vn 0.3510 0.7118 0.6084
vn -0.9226 0.3461 0.1702
vn 0.4222 0.4953 0.7592
vn 0.9868 0.0875 0.1366
vn 0.1686 0.5918 0.7882
vn -0.6711 0.3432 0.6571
vn 0.4355 0.8252 0.3597
vn 0.6083 0.3222 0.7254
vn 0.0485 0.7721 0.6336
vn -0.9973 -0.0734 0.0068
vn -0.6138 0.3177 0.7227
vn 0.8803 0.1845 0.4370
vn -0.8545 0.1440 0.4991
vn 0.6746 0.0605 0.7357
vn -0.8173 0.5115 0.2653
vn 0.2259 0.7585 0.6113
vn 0.5141 0.6213 0.5914
vn 0.2169 0.4216 0.8804
vn -0.4577 0.8085 0.3698
vn -0.1325 0.7369 0.6629
vn 0.9318 0.2455 0.2674
vn 0.9349 0.2955 0.1964
vn 0.9495 0.0371 0.3117
vn 0.4819 0.4231 0.7673
vn -0.1780 0.5542 0.8131
vn -0.2258 0.4476 0.8652
vn -0.4767 0.6694 0.5697
vn 0.1113 0.9210 0.3733
vn 0.0952 0.8713 0.4814
vn -0.0000 -0.0000 1.0000
vn -0.0050 -0.0015 1.0000
vn -0.0051 -0.0016 1.0000
vn -0.0000 -0.0001 1.0000
vn 0.0001 0.0002 1.0000
vn 0.0002 0.0001 1.0000
vn -0.0005 0.0003 -1.0000
vn 0.0022 -0.0008 -1.0000
vn -0.0005 0.0007 -1.0000
vn 0.0002 -0.0001 1.0000
vn 0.0001 -0.0000 1.0000
vn -0.0004 0.0001 1.0000
vn -0.0002 1.0000 -0.0000
vn 0.0005 1.0000 -0.0004
vn -0.0000 1.0000 -0.0000
vn 0.0001 1.0000 -0.0000
vn -0.0000 1.0000 0.0001
vn -0.0003 1.0000 0.0003
vn 0.0106 0.9999 -0.0003
vn -0.0042 1.0000 -0.0002
vn -0.0003 1.0000 -0.0001
vn -0.0060 1.0000 0.0001
vn 0.0027 1.0000 -0.0020
vn 0.9348 0.0870 0.3442
vn 0.1141 0.7398 0.6631
vn 0.1298 0.7410 0.6589
vn -0.5485 0.5677 0.6139
vn -0.5478 0.6027 0.5802
vn 0.9942 -0.1069 -0.0139
vn 0.5113 0.6605 0.5498
vn -0.7262 0.6256 0.2851
vn -0.9444 0.2834 0.1668
vn 0.8724 0.3313 0.3594
vn 0.9908 0.0681 0.1168
vn 0.4407 0.8233 0.3577
vn -0.4294 0.6679 0.6079
vn 0.6069 0.3161 0.7292
vn -0.9319 0.1357 0.3363
vn -0.9320 0.0962 0.3494
vn 0.9355 0.3171 0.1558
vn 0.9442 0.2860 0.1634
vn -0.8376 0.3933 0.3791
vn -0.9963 -0.0852 -0.0122
vn -0.9990 -0.0278 0.0350
vn -0.9992 0.0125 0.0380
vn -0.3755 0.8561 0.3552
vn -0.6299 0.3021 0.7155
vn -0.9258 0.3071 0.2205
vn -0.8335 0.4910 0.2532
vn -0.9642 0.0099 0.2649
vn -0.1025 0.8836 0.4569
vn -0.1125 0.9199 0.3757
vn -0.1234 0.9159 0.3820
vn 0.5863 0.7262 0.3589
vn 0.4180 0.6692 0.6143
vn 0.5062 0.5910 0.6281
vn 0.1189 0.4656 0.8770
vn 0.1692 0.4863 0.8572
vn -0.1365 0.7371 0.6618
vn -0.9312 0.2446 0.2702
vn -0.9477 0.2149 0.2361
vn -0.9482 0.1826 0.2601
vn -0.3336 0.7181 0.6108
vn 0.9350 0.2954 0.1962
vn 0.5166 0.2514 0.8185
vn -0.5103 0.3847 0.7691
vn -0.1469 0.4892 0.8597
vn -0.8555 0.4169 0.3072
vn 0.6770 0.5683 0.4677
vn -0.4501 0.6824 0.5760
vn 0.6350 0.5607 0.5314
vn 0.0016 1.0000 0.0017
vn 0.0003 1.0000 0.0010
vn -0.0001 1.0000 0.0005
vn -0.0003 1.0000 0.0002
vn -0.0003 1.0000 -0.0002
vn -0.0003 1.0000 -0.0005
vn 0.0016 1.0000 -0.0017
vn 0.0046 1.0000 -0.0028
vn -0.9967 -0.0813 -0.0003
vn 0.9942 -0.1065 -0.0139
vn 0.9941 -0.1072 -0.0146
vn -0.0108 0.9999 -0.0074
vn -0.0002 1.0000 -0.0004
vn -0.0002 1.0000 0.0001
vn -0.9982 -0.0571 0.0169
vn 0.0003 0.0001 1.0000
vn -0.0000 0.0001 1.0000
vn 0.0001 0.0001 1.0000
vn -0.0051 -0.0015 1.0000
vn 0.9863 0.0919 0.1372
vn 0.9901 0.0686 0.1221
vn 0.1869 0.4630 0.8665
vn 0.1282 0.4895 0.8625
vn 0.0002 -0.0004 1.0000
vn 0.4357 0.8256 0.3584
vn 0.4407 0.8224 0.3599
vn 0.5220 0.3935 0.7567
vn 0.4522 0.4294 0.7817
vn 0.1308 0.7379 0.6621
vn 0.1139 0.7423 0.6604
vn -0.1324 0.7376 0.6622
vn -0.1367 0.7364 0.6626
s 0
f 55//1 43//1 47//1
f 52//2 15//2 9//2
f 1//3 4//3 2//3
f 27//4 39//4 33//4
f 34//5 46//5 40//5
f 13//6 17//6 27//6
f 5//7 6//7 9//7
f 5//8 3//8 6//8
f 16//9 22//9 26//9
f 48//10 53//10 54//10
f 37//11 27//11 17//11
f 51//12 53//12 48//12
f 23//13 34//13 24//13
f 36//14 47//14 38//14
f 44//15 49//15 39//15
f 2//16 3//16 1//16
f 15//17 14//17 25//17
f 23//18 35//18 34//18
f 39//19 32//19 44//19
f 28//20 23//20 18//20
f 33//21 39//21 45//21
f 29//22 30//22 22//22
f 5//23 1//23 3//23
f 44//24 38//24 48//24
f 50//25 45//25 49//25
f 42//26 29//26 41//26
f 40//27 57//27 41//27
f 37//28 31//28 32//28
f 15//29 14//29 8//29
f 27//30 33//30 21//30
f 53//31 49//31 44//31
f 40//32 46//32 51//32
f 35//33 50//33 46//33
f 10//34 12//34 7//34
f 47//35 56//35 55//35
f 55//36 57//36 43//36
f 56//37 7//37 47//37
f 56//37 6//37 7//37
f 47//38 17//38 36//38
f 17//39 47//39 12//39
f 7//40 6//40 2//40
f 3//41 2//41 6//41
f 6//2 52//2 9//2
f 11//42 9//42 15//42
f 16//43 26//43 30//43
f 16//44 30//44 42//44
f 42//45 52//45 16//45
f 52//46 6//46 56//46
f 47//47 7//47 12//47
f 15//48 52//48 16//48
f 50//49 5//49 35//49
f 35//50 18//50 28//50
f 35//51 5//51 18//51
f 8//52 18//52 5//52
f 5//53 4//53 1//53
f 4//54 13//54 10//54
f 21//55 13//55 33//55
f 33//56 4//56 45//56
f 4//57 50//57 45//57
f 50//51 4//51 5//51
f 18//58 8//58 14//58
f 13//59 4//59 33//59
f 32//60 39//60 27//60
f 48//61 43//61 57//61
f 57//62 51//62 48//62
f 24//63 34//63 40//63
f 40//64 29//64 24//64
f 27//65 21//65 13//65
f 5//66 9//66 8//66
f 29//67 42//67 30//67
f 20//68 22//68 16//68
f 32//69 31//69 44//69
f 37//70 32//70 27//70
f 47//71 43//71 38//71
f 29//72 40//72 41//72
f 49//73 45//73 39//73
f 23//74 24//74 19//74
f 19//75 18//75 23//75
f 36//76 31//76 17//76
f 31//77 37//77 17//77
f 24//78 29//78 22//78
f 19//79 25//79 14//79
f 25//80 20//80 15//80
f 20//81 16//81 15//81
f 42//82 41//82 52//82
f 23//83 28//83 35//83
f 13//84 17//84 12//84
f 26//85 22//85 30//85
f 14//86 18//86 19//86
f 57//87 55//87 41//87
f 55//88 56//88 52//88
f 41//89 55//89 52//89
f 31//90 36//90 38//90
f 43//91 48//91 38//91
f 48//92 54//92 44//92
f 49//93 53//93 51//93
f 51//94 50//94 49//94
f 40//95 51//95 57//95
f 24//96 22//96 25//96
f 25//97 22//97 20//97
f 25//98 19//98 24//98
f 4//99 7//99 2//99
f 15//100 8//100 11//100
f 44//101 54//101 53//101
f 46//102 34//102 35//102
f 50//103 51//103 46//103
f 12//104 10//104 13//104
f 11//105 8//105 9//105
f 10//106 7//106 4//106
f 38//107 44//107 31//107
f 8//108 14//108 5//108
f 5//109 14//109 1//109
f 1//110 14//110 4//110
f 4//111 14//111 10//111
f 10//111 14//111 13//111
f 13//112 14//112 21//112
f 21//113 14//113 35//113
f 35//114 14//114 28//114
f 28//115 14//115 18//115
f 19//116 15//116 14//116
f 15//100 14//100 11//100
f 11//29 14//29 8//29
f 17//117 21//117 13//117
f 17//118 27//118 21//118
f 33//119 21//119 45//119
f 45//120 21//120 35//120
f 45//121 35//121 50//121
f 25//122 15//122 19//122
f 16//123 15//123 11//123
f 16//42 11//42 9//42
f 16//124 9//124 6//124
f 16//37 6//37 3//37
f 16//125 3//125 2//125
f 16//37 2//37 7//37
f 16//37 7//37 12//37
f 16//40 12//40 47//40
f 47//38 12//38 36//38
f 36//126 12//126 17//126
f 37//127 32//127 17//127
f 32//128 27//128 17//128
f 49//129 53//129 50//129
f 53//130 51//130 50//130
f 52//131 16//131 56//131
f 56//37 16//37 47//37
f 43//132 36//132 47//132
f 43//133 38//133 36//133
f 44//134 54//134 49//134
f 54//135 53//135 49//135
f 48//136 43//136 51//136
f 43//137 57//137 51//137
f 57//138 41//138 51//138
f 41//139 40//139 51//139
