# Blender 4.0.0
# www.blender.org
o decimated_mesh
v 0.034709 -0.051866 -0.062131
v 0.030982 -0.003518 -0.062131
v 0.033153 -0.051866 -0.075687
v 0.030130 -0.004349 -0.075740
v 0.028296 0.004832 -0.074403
v 0.033294 -0.051866 -0.050377
v 0.030819 -0.051866 -0.080418
v 0.028079 0.009499 -0.059514
v 0.027158 0.009442 -0.043818
v 0.031233 -0.051866 -0.044072
v 0.022236 0.009456 -0.033003
v 0.025325 -0.026714 -0.088041
v 0.025246 -0.004757 -0.085905
v 0.025405 0.002197 -0.081986
v 0.025419 0.004658 -0.079682
v 0.025684 -0.025918 -0.034868
v 0.027639 -0.051866 -0.037877
v 0.023337 -0.004047 -0.088005
v 0.025388 0.007420 -0.072879
v 0.023319 0.002687 -0.084846
v 0.022590 0.004555 -0.083398
v 0.025504 -0.051865 -0.088907
v 0.020279 0.006966 -0.081024
v 0.023186 -0.051865 -0.032719
v 0.014580 -0.051867 -0.097076
v 0.011558 -0.004496 -0.093869
v 0.023120 0.009453 -0.068057
v 0.011977 0.002424 -0.090143
v 0.002281 0.009517 -0.083279
v 0.012320 -0.051866 -0.025346
v 0.007369 -0.051866 -0.099325
v 0.011811 0.004379 -0.088441
v 0.011823 0.007143 -0.084593
v 0.011681 0.009453 -0.026484
v -0.000058 -0.003783 -0.095543
v 0.000385 -0.051866 -0.022868
v -0.000391 -0.006481 -0.096150
v -0.000316 0.009453 -0.024290
v -0.000055 -0.051866 -0.100282
v -0.011585 -0.004610 -0.093808
v -0.008451 -0.051866 -0.099143
v 0.000394 0.003091 -0.091572
v -0.004047 0.009455 -0.082798
v -0.010328 -0.051866 -0.024967
v -0.015075 -0.051867 -0.096709
v -0.012259 0.007083 -0.084495
v -0.011756 0.009454 -0.026596
v -0.014968 -0.051866 -0.026978
v -0.011959 0.002302 -0.090236
v -0.011749 0.004081 -0.088709
v -0.020307 0.006901 -0.080984
v -0.024714 -0.051866 -0.089905
v -0.023809 -0.019665 -0.089010
v -0.024057 -0.004025 -0.087509
v -0.022707 0.004437 -0.083467
v -0.023762 0.002524 -0.084721
v -0.022176 0.009453 -0.032952
v -0.025696 -0.051865 -0.034933
v -0.031927 -0.051866 -0.078096
v -0.028545 0.004587 -0.073787
v -0.026297 0.004838 -0.077720
v -0.025566 0.007476 -0.072357
v -0.025957 -0.024616 -0.035531
v -0.030819 -0.025768 -0.077379
v -0.028617 -0.004133 -0.078926
v -0.026499 0.009456 -0.063065
v -0.031853 -0.051866 -0.045656
v -0.033962 -0.051866 -0.070899
v -0.028494 0.007059 -0.065829
v -0.028003 0.009455 -0.057877
v -0.030987 -0.022170 -0.046225
v -0.029980 -0.004411 -0.075641
v -0.031052 -0.004227 -0.060777
v -0.033764 -0.051866 -0.052946
v -0.026871 0.009456 -0.042583
v -0.034771 -0.051866 -0.062131
vn -0.8672 0.0026 0.4979
vn 0.2967 0.0833 -0.9513
vn 0.7495 0.0668 -0.6586
vn -0.5525 -0.0212 -0.8333
vn -0.9942 0.0797 -0.0727
vn 0.9856 0.0829 0.1471
vn 0.3135 0.6384 -0.7030
vn -0.6186 0.7515 -0.2294
vn 0.2033 0.0203 0.9789
vn 0.0007 1.0000 0.0004
vn 0.1295 0.6572 -0.7425
vn -0.0000 -1.0000 -0.0000
vn 0.8753 0.2220 -0.4295
vn -0.5909 0.7529 -0.2898
vn 0.6170 0.6182 -0.4869
vn -0.8660 0.2592 -0.4277
vn 0.3067 0.9201 -0.2437
vn -0.1976 0.0214 0.9800
vn 0.1757 0.9118 -0.3711
vn 0.1639 0.9615 -0.2204
vn 0.9487 0.0618 0.3101
vn -0.0536 0.7952 -0.6040
vn 0.9759 0.2057 -0.0736
vn -0.4661 0.8174 -0.3386
vn -0.3437 0.0828 -0.9354
vn 0.7568 -0.0188 0.6534
vn 0.5326 0.7850 -0.3163
vn 0.1207 0.8061 -0.5794
vn 0.9915 0.0629 -0.1138
vn -0.3162 0.6358 -0.7042
vn -0.9612 0.0483 -0.2717
vn -0.7976 0.4241 -0.4289
vn -0.6331 0.6371 -0.4397
vn 0.2548 0.7850 -0.5647
vn -0.1612 0.2353 -0.9585
vn -0.1846 0.9079 -0.3763
vn -0.1225 0.6547 -0.7459
vn -0.5205 0.0220 0.8536
vn -0.9824 0.1717 -0.0730
vn -0.9668 0.0330 0.2534
vn -0.9077 0.2186 -0.3581
vn 0.7937 0.4134 -0.4463
vn -0.5762 0.0389 -0.8164
vn 0.1518 0.1989 -0.9682
vn -0.8969 0.0664 0.4372
vn 0.9204 -0.0554 -0.3870
vn -0.5614 -0.0145 -0.8274
vn -0.5255 -0.0064 -0.8508
vn -0.9930 0.0742 -0.0917
vn 0.9899 0.0763 0.1191
vn 0.3114 0.6550 -0.6885
vn -0.6399 0.7458 -0.1852
vn -0.6070 0.7626 -0.2235
vn 0.9768 0.2062 0.0581
vn 0.8474 0.0243 -0.5304
vn 0.1798 0.0249 0.9834
vn -0.0015 1.0000 -0.0020
vn -0.0142 0.9999 0.0028
vn -0.0085 0.9998 0.0158
vn 0.0001 1.0000 -0.0000
vn 0.0002 1.0000 -0.0001
vn -0.0000 1.0000 0.0001
vn -0.0003 1.0000 0.0004
vn -0.0001 1.0000 -0.0008
vn 0.0001 1.0000 0.0004
vn -0.0000 1.0000 -0.0000
vn -0.0001 -1.0000 0.0003
vn 0.0001 -1.0000 -0.0000
vn -0.0001 -1.0000 -0.0000
vn -0.0000 -1.0000 -0.0002
vn -0.0000 -1.0000 0.0001
vn -0.0000 -1.0000 -0.0001
vn -0.0003 -1.0000 0.0002
vn 0.0002 -1.0000 -0.0002
vn 0.3921 0.4177 -0.8196
vn 0.3815 0.3935 -0.8364
vn -0.1246 0.5025 -0.8556
vn -0.1645 0.4458 -0.8799
vn -0.9766 0.2023 0.0723
vn 0.8779 0.2360 -0.4167
vn 0.1538 0.4867 -0.8599
vn 0.1348 0.4635 -0.8758
vn -0.4041 0.3737 -0.8349
vn -0.3801 0.4083 -0.8299
vn -0.9236 0.0670 -0.3776
vn -0.8602 0.2321 -0.4540
vn 0.3598 0.9082 -0.2137
vn -0.4877 0.0757 -0.8697
vn -0.8393 0.0387 -0.5423
vn 0.5733 0.7842 -0.2374
vn 0.8911 0.0562 -0.4503
vn 0.8950 0.0616 -0.4417
vn 0.8997 0.0455 -0.4341
vn -0.1923 0.0206 0.9811
vn -0.8659 0.0369 -0.4988
vn -0.8523 0.0505 -0.5206
vn -0.8820 0.0563 -0.4678
vn -0.2695 0.9360 -0.2266
vn -0.0800 0.7872 -0.6115
vn -0.1111 0.8031 -0.5854
vn 0.9719 0.2283 -0.0574
vn -0.4699 0.8104 -0.3499
vn 0.7987 -0.0348 -0.6007
vn 0.4593 0.8066 -0.3720
vn 0.4572 0.8247 -0.3328
vn -0.1339 0.0889 -0.9870
vn -0.1881 0.0979 -0.9773
vn 0.0828 0.7786 -0.6221
vn -0.9835 0.1117 0.1421
vn -0.9925 0.0747 0.0966
vn -0.9917 0.0681 0.1087
vn 0.9948 0.0767 -0.0669
vn -0.3157 0.6392 -0.7013
vn 0.9202 0.0596 0.3869
vn 0.9082 0.0667 0.4132
vn 0.8649 0.0070 0.5018
vn -0.4458 0.0876 -0.8908
vn -0.9695 0.0575 -0.2384
vn 0.7557 0.2799 -0.5921
vn 0.7974 0.2823 -0.5333
vn 0.2491 0.7902 -0.5600
vn 0.4412 0.0886 -0.8930
vn -0.1736 0.9648 -0.1976
vn -0.5956 0.0082 0.8032
vn -0.9758 0.2187 -0.0057
vn -0.9788 0.1973 -0.0550
vn -0.3976 0.0151 0.9174
vn 0.5986 0.0318 -0.8004
vn 0.5698 0.0512 -0.8202
vn 0.7588 0.4429 -0.4776
vn 0.1709 0.0978 -0.9804
vn 0.1273 0.0909 -0.9877
vn -0.6297 0.0110 0.7768
vn -0.2404 0.7952 -0.5567
vn -0.2703 0.7685 -0.5800
vn -0.0002 -1.0000 -0.0001
vn 0.0002 -1.0000 0.0002
vn 0.0001 -1.0000 -0.0001
vn -0.0002 -1.0000 -0.0000
vn 0.8954 0.0544 -0.4419
vn 0.8990 0.0567 -0.4342
vn -0.0002 1.0000 0.0011
vn 0.0003 1.0000 0.0016
vn 0.0008 1.0000 0.0018
vn 0.0126 0.9999 0.0044
vn 0.0121 0.9998 -0.0124
vn -0.0003 1.0000 0.0010
vn 0.8801 0.0491 -0.4722
vn -0.0006 1.0000 0.0010
vn -0.5253 -0.0213 -0.8506
vn -0.5614 -0.0125 -0.8274
vn -0.5732 -0.0127 -0.8193
vn -0.0106 0.9999 -0.0122
vn -0.0023 1.0000 -0.0003
vn -0.0020 1.0000 0.0001
vn -0.0010 1.0000 0.0008
vn 0.3983 0.3905 -0.8300
vn 0.3756 0.4217 -0.8253
vn 0.2520 0.7908 -0.5578
vn -0.8969 0.0664 0.4371
vn 0.2516 0.7857 -0.5652
vn 0.1345 0.4891 -0.8618
vn 0.1543 0.4612 -0.8738
vn -0.9013 0.0346 0.4319
vn -0.3148 0.6393 -0.7015
vn -0.2530 0.7733 -0.5814
vn -0.2557 0.7984 -0.5451
vn -0.3169 0.6359 -0.7037
vn -0.8772 0.0503 -0.4775
vn -0.8528 0.0378 -0.5209
s 0
f 67//1 58//1 63//1
f 31//2 26//2 25//2
f 12//3 18//3 13//3
f 34//4 16//4 30//4
f 72//5 76//5 73//5
f 9//6 6//6 2//6
f 20//7 28//7 32//7
f 62//8 60//8 69//8
f 34//9 36//9 30//9
f 9//10 27//10 38//10
f 32//11 28//11 42//11
f 45//12 7//12 59//12
f 14//13 4//13 13//13
f 62//14 61//14 60//14
f 15//15 20//15 21//15
f 65//16 60//16 56//16
f 27//17 19//17 23//17
f 44//18 38//18 47//18
f 23//19 33//19 29//19
f 27//20 23//20 29//20
f 10//21 6//21 9//21
f 43//22 29//22 42//22
f 5//23 2//23 4//23
f 62//24 51//24 61//24
f 41//25 45//25 40//25
f 24//26 17//26 16//26
f 15//27 19//27 5//27
f 29//28 33//28 32//28
f 4//29 1//29 3//29
f 50//30 56//30 55//30
f 68//31 64//31 59//31
f 56//32 60//32 61//32
f 56//33 61//33 55//33
f 33//34 23//34 32//34
f 40//35 35//35 37//35
f 43//36 46//36 51//36
f 42//37 49//37 50//37
f 48//38 47//38 57//38
f 60//39 72//39 73//39
f 67//40 71//40 74//40
f 72//41 60//41 65//41
f 14//42 15//42 5//42
f 53//43 45//43 52//43
f 37//44 35//44 26//44
f 63//45 57//45 75//45
f 75//46 63//46 67//46
f 24//47 30//47 16//47
f 16//48 34//48 11//48
f 72//49 68//49 76//49
f 6//50 1//50 2//50
f 32//51 21//51 20//51
f 70//52 66//52 69//52
f 66//53 62//53 69//53
f 9//54 2//54 8//54
f 22//55 12//55 7//55
f 34//56 38//56 36//56
f 11//57 9//57 34//57
f 9//58 8//58 27//58
f 27//59 29//59 43//59
f 66//60 27//60 43//60
f 70//61 75//61 38//61
f 38//62 75//62 47//62
f 75//63 57//63 47//63
f 38//64 34//64 9//64
f 27//65 66//65 70//65
f 38//66 27//66 70//66
f 31//67 25//67 22//67
f 3//68 1//68 7//68
f 1//12 6//12 74//12
f 74//12 6//12 17//12
f 6//69 10//69 17//69
f 24//70 30//70 36//70
f 17//71 24//71 74//71
f 36//72 44//72 24//72
f 24//12 44//12 48//12
f 58//73 67//73 48//73
f 48//12 67//12 24//12
f 67//12 74//12 24//12
f 74//12 76//12 1//12
f 1//12 76//12 68//12
f 68//12 59//12 7//12
f 59//12 52//12 45//12
f 45//12 41//12 39//12
f 31//72 45//72 39//72
f 31//74 22//74 7//74
f 7//12 45//12 31//12
f 7//12 1//12 68//12
f 26//75 28//75 18//75
f 28//76 20//76 18//76
f 42//77 35//77 49//77
f 35//78 40//78 49//78
f 73//79 75//79 70//79
f 14//80 5//80 4//80
f 26//81 35//81 42//81
f 42//82 28//82 26//82
f 40//83 54//83 56//83
f 49//84 40//84 56//84
f 65//85 64//85 72//85
f 54//86 65//86 56//86
f 27//87 8//87 19//87
f 54//88 45//88 53//88
f 52//89 54//89 53//89
f 19//90 8//90 5//90
f 4//91 3//91 12//91
f 3//92 7//92 12//92
f 12//93 13//93 4//93
f 44//94 36//94 38//94
f 54//95 52//95 64//95
f 52//96 59//96 64//96
f 64//97 65//97 54//97
f 66//98 51//98 62//98
f 42//99 50//99 43//99
f 50//100 46//100 43//100
f 5//101 8//101 2//101
f 55//102 61//102 51//102
f 67//103 71//103 75//103
f 15//104 21//104 23//104
f 23//105 19//105 15//105
f 39//106 41//106 37//106
f 41//107 40//107 37//107
f 32//108 42//108 29//108
f 71//109 75//109 73//109
f 73//110 76//110 71//110
f 76//111 74//111 71//111
f 4//112 2//112 1//112
f 49//113 56//113 50//113
f 10//114 9//114 16//114
f 16//115 9//115 11//115
f 16//116 17//116 10//116
f 45//117 54//117 40//117
f 68//118 72//118 64//118
f 18//119 20//119 13//119
f 20//120 14//120 13//120
f 21//121 32//121 23//121
f 18//122 25//122 26//122
f 51//123 66//123 43//123
f 57//124 58//124 48//124
f 70//125 69//125 73//125
f 69//126 60//126 73//126
f 47//127 48//127 44//127
f 12//128 22//128 25//128
f 25//129 18//129 12//129
f 14//130 20//130 15//130
f 26//131 31//131 37//131
f 31//132 39//132 37//132
f 58//133 57//133 63//133
f 50//134 55//134 51//134
f 51//135 46//135 50//135
f 6//136 17//136 24//136
f 6//137 24//137 30//137
f 6//12 30//12 36//12
f 6//12 36//12 44//12
f 6//12 44//12 48//12
f 6//72 48//72 58//72
f 6//71 58//71 67//71
f 6//12 67//12 74//12
f 6//12 74//12 76//12
f 6//12 76//12 68//12
f 6//12 68//12 59//12
f 6//12 59//12 52//12
f 6//12 52//12 45//12
f 6//12 45//12 41//12
f 6//12 41//12 39//12
f 6//12 39//12 31//12
f 6//12 31//12 25//12
f 6//138 25//138 22//138
f 6//139 22//139 7//139
f 6//68 7//68 3//68
f 6//69 3//69 1//69
f 7//140 13//140 3//140
f 13//141 4//141 3//141
f 47//142 38//142 8//142
f 38//143 34//143 8//143
f 34//144 11//144 8//144
f 11//145 9//145 8//145
f 27//146 29//146 8//146
f 29//147 47//147 8//147
f 12//148 13//148 7//148
f 29//149 57//149 47//149
f 30//150 34//150 11//150
f 30//151 11//151 24//151
f 24//152 11//152 16//152
f 43//153 66//153 29//153
f 66//154 70//154 29//154
f 70//155 75//155 29//155
f 75//156 57//156 29//156
f 18//157 26//157 20//157
f 26//158 28//158 20//158
f 21//159 33//159 23//159
f 71//160 63//160 75//160
f 21//161 32//161 33//161
f 28//162 35//162 42//162
f 35//163 28//163 26//163
f 71//164 67//164 63//164
f 49//165 55//165 50//165
f 55//166 46//166 50//166
f 55//167 51//167 46//167
f 56//168 55//168 49//168
f 54//169 59//169 64//169
f 52//170 59//170 54//170
