mtllib material.mtl
usemtl material_0
v -0.00050003 0.00075760 0.00049988
v -0.00050003 0.00075760 -0.00049988
v 0.00050003 0.00075760 -0.00049988
v 0.00050003 0.00075760 0.00049988
v 0.00766876 0.13838850 -0.00317688
v 0.00586945 0.15457350 -0.00586975
v 0.00586945 0.13838850 -0.00586975
v 0.00766876 0.15457350 -0.00317688
v 0.00830048 0.13838850 0.00000000
v 0.00830048 0.15457350 0.00000000
v 0.00766876 0.13838850 0.00317688
v 0.00766876 0.15457350 0.00317688
v 0.00586945 0.13838850 0.00586914
v 0.00317642 0.15457350 -0.00766968
v 0.00317642 0.13838850 -0.00766968
v 0.00317642 0.13838850 -0.00766968
v 0.00317642 0.15457350 -0.00766968
v 0.00000000 0.15457350 -0.00830078
v 0.00000000 0.13838850 -0.00830078
v -0.00317642 0.15457350 -0.00766968
v -0.00317642 0.13838850 -0.00766968
v -0.00317642 0.13838850 -0.00766968
v -0.00317642 0.15457350 -0.00766968
v -0.00586929 0.15457350 -0.00586975
v -0.00586929 0.13838850 -0.00586975
v -0.00766876 0.15457350 -0.00317688
v -0.00766876 0.13838850 -0.00317688
v -0.00830048 0.15457350 0.00000000
v -0.00830048 0.13838850 0.00000000
v -0.00766876 0.15457350 0.00317688
v -0.00766876 0.13838850 0.00317688
v -0.00586929 0.15457350 0.00586914
v -0.00586929 0.13838850 0.00586914
v -0.00317642 0.15457350 0.00766846
v -0.00317642 0.13838850 0.00766846
v -0.00317642 0.13838850 0.00766846
v -0.00317642 0.15457350 0.00766846
v 0.00000000 0.15457350 0.00830078
v 0.00000000 0.13838850 0.00830078
v 0.00317642 0.15457350 0.00766846
v 0.00317642 0.13838850 0.00766846
v 0.00317642 0.13838850 0.00766846
v 0.00317642 0.15457350 0.00766846
v 0.00586945 0.15457350 0.00586914
v 0.00627716 0.13838850 -0.01515503
v 0.00627716 0.13271550 -0.01515503
v 0.01159851 0.13271550 -0.01159851
v 0.01159851 0.13838850 -0.01159851
v 0.01515442 0.13271550 -0.00627685
v 0.01515442 0.13838850 -0.00627685
v 0.01640289 0.13271550 0.00000000
v 0.01640289 0.13838850 0.00000000
v 0.00000000 0.13838850 -0.01640320
v 0.00627716 0.13271550 -0.01515503
v 0.00627716 0.13838850 -0.01515503
v 0.00000000 0.13271550 -0.01640320
v -0.00627716 0.13838850 -0.01515503
v -0.00627716 0.13271550 -0.01515503
v -0.01159866 0.13838850 -0.01159851
v -0.00627716 0.13271550 -0.01515503
v -0.00627716 0.13838850 -0.01515503
v -0.01159866 0.13271550 -0.01159851
v -0.01515442 0.13838850 -0.00627685
v -0.01515442 0.13271550 -0.00627685
v -0.01640305 0.13838850 0.00000000
v -0.01640305 0.13271550 0.00000000
v -0.01515442 0.13838850 0.00627685
v -0.01515442 0.13271550 0.00627685
v -0.01159866 0.13838850 0.01159851
v -0.01159866 0.13271550 0.01159851
v -0.00627716 0.13838850 0.01515503
v -0.00627716 0.13271550 0.01515503
v 0.00000000 0.13838850 0.01640198
v 0.00000000 0.13271550 0.01640198
v -0.00627716 0.13271550 0.01515503
v -0.00627716 0.13838850 0.01515503
v 0.00627716 0.13838850 0.01515503
v 0.00627716 0.13271550 0.01515503
v 0.01159851 0.13838850 0.01159851
v 0.00627716 0.13271550 0.01515503
v 0.00627716 0.13838850 0.01515503
v 0.01159851 0.13271550 0.01159851
v 0.01515442 0.13838850 0.00627685
v 0.01515442 0.13271550 0.00627685
v -0.01810913 0.16370530 0.02035400
v -0.01433914 0.16743350 0.02270691
v -0.01433914 0.16370530 0.02270691
v -0.01810913 0.16743350 0.02035400
v -0.02024048 0.16370530 0.01662842
v -0.02024048 0.16743350 0.01662842
v -0.02024048 0.16370530 -0.01742065
v -0.02024048 0.16743350 -0.01478088
v -0.02024048 0.16518310 -0.02266235
v -0.02024048 0.16816540 -0.01990723
v -0.02024048 0.16922070 -0.02669983
v -0.02024048 0.17214530 -0.02311340
v -0.02024048 0.17481870 -0.02817810
v -0.02024048 0.17795740 -0.02464844
v -0.02024048 0.20784710 -0.02464844
v -0.02024048 0.21152730 -0.02817810
v -0.02024048 0.21692370 -0.02703369
v -0.02024048 0.21360780 -0.02345398
v -0.02024048 0.22139140 -0.02379822
v -0.02024048 0.21808380 -0.02106567
v -0.02024048 0.22500990 -0.01806458
v -0.02024048 0.22128930 -0.01609131
v -0.02024048 0.23035470 0.01168457
v -0.02024048 0.23381250 0.01031616
v -0.01827087 0.23136960 0.01479431
v -0.01827087 0.23479800 0.01349365
v -0.01827087 0.23136960 0.01479431
v -0.01827087 0.23479800 0.01349365
v -0.01433914 0.23540080 0.01543823
v -0.01433914 0.23199040 0.01669678
v 0.00000000 0.23199040 0.01669678
v 0.00000000 0.23540080 0.01543823
v 0.01433914 0.23199040 0.01669678
v 0.01433914 0.23540080 0.01543823
v 0.01827103 0.23136960 0.01479431
v 0.01827103 0.23479810 0.01349426
v -0.02024048 0.16370530 0.01662842
v -0.01810913 0.16370530 0.02035400
v -0.01433914 0.16370530 0.02270691
v -0.01433914 0.16370530 0.01662842
v -0.02024048 0.16370530 -0.01742065
v 0.00000000 0.16370530 0.01662842
v 0.00000000 0.16370530 0.02270691
v -0.01433914 0.16370530 -0.01742065
v 0.01433914 0.16370530 0.01662842
v 0.01433914 0.16370530 0.02270691
v -0.01433914 0.16518320 -0.02266235
v -0.02024048 0.16518310 -0.02266235
v 0.00000000 0.16518320 -0.02266235
v 0.00000000 0.16370530 -0.01742065
v 0.01433914 0.16518320 -0.02266235
v 0.01433914 0.16370530 -0.01742004
v 0.02024048 0.16518330 -0.02266235
v 0.02024048 0.16370530 -0.01742004
v 0.02024048 0.16370530 0.01662842
v 0.01810913 0.16370530 0.02035400
v 0.01810913 0.16370530 0.02035400
v 0.01810913 0.16743350 0.02035400
v 0.02024048 0.16743350 0.01662842
v 0.02024048 0.16370530 0.01662842
v 0.02024048 0.16370530 -0.01742004
v 0.02024048 0.16743350 -0.01478210
v 0.02024048 0.16816530 -0.01990723
v 0.02024048 0.16518330 -0.02266235
v 0.02024048 0.17214480 -0.02311340
v 0.02024048 0.16922110 -0.02669983
v 0.02024048 0.17795630 -0.02464844
v 0.02024048 0.17481950 -0.02817810
v 0.02024048 0.21151850 -0.02817810
v 0.02024048 0.20784710 -0.02464844
v 0.02024048 0.21360780 -0.02345398
v 0.02024048 0.21691990 -0.02703308
v 0.02024048 0.21808380 -0.02106567
v 0.02024048 0.22139160 -0.02379395
v 0.02024048 0.22128930 -0.01609131
v 0.02024048 0.22501270 -0.01805481
v 0.02024048 0.23381290 0.01031799
v 0.02024048 0.23035470 0.01168457
v 0.01827103 0.23479810 0.01349426
v 0.01827103 0.23136960 0.01479431
v -0.02024048 0.17795740 -0.02464844
v -0.01433914 0.17214520 -0.02311340
v -0.02024048 0.17214530 -0.02311340
v -0.01433914 0.17795710 -0.02464844
v 0.00000000 0.17214510 -0.02311340
v -0.01433914 0.20784710 -0.02464844
v -0.02024048 0.20784710 -0.02464844
v -0.02024048 0.21360780 -0.02345398
v -0.01433914 0.21360780 -0.02345398
v 0.00000000 0.17795690 -0.02464844
v 0.01433914 0.17214490 -0.02311340
v 0.00000000 0.20784710 -0.02464844
v 0.00000000 0.21360780 -0.02345398
v 0.01433914 0.17795660 -0.02464844
v 0.02024048 0.17214480 -0.02311340
v 0.02024048 0.17795630 -0.02464844
v 0.01433914 0.20784710 -0.02464844
v 0.02024048 0.20784710 -0.02464844
v 0.01433914 0.21360780 -0.02345398
v 0.02024048 0.21360780 -0.02345398
v 0.00000000 0.21808380 -0.02106567
v -0.01433914 0.21808380 -0.02106567
v -0.02024048 0.17214530 -0.02311340
v -0.01433914 0.16816540 -0.01990723
v -0.02024048 0.16816540 -0.01990723
v -0.01433914 0.17214520 -0.02311340
v 0.00000000 0.16816540 -0.01990723
v 0.00000000 0.17214510 -0.02311340
v 0.01433914 0.16816540 -0.01990723
v 0.01433914 0.17214490 -0.02311340
v 0.02024048 0.16816530 -0.01990723
v 0.02024048 0.17214480 -0.02311340
v -0.01433914 0.16922080 -0.02669983
v -0.02024048 0.16922070 -0.02669983
v 0.00000000 0.16922090 -0.02669983
v 0.01433914 0.16922100 -0.02669983
v 0.02024048 0.16922110 -0.02669983
v -0.02024048 0.22128930 -0.01609131
v -0.01433914 0.21808380 -0.02106567
v -0.02024048 0.21808380 -0.02106567
v -0.01433914 0.22128930 -0.01609131
v 0.00000000 0.21808380 -0.02106567
v -0.01433914 0.23035470 0.01168457
v -0.02024048 0.23035470 0.01168457
v 0.00000000 0.22128930 -0.01609131
v 0.01433914 0.21808380 -0.02106567
v -0.01433914 0.23199040 0.01669678
v -0.01827087 0.23136960 0.01479431
v 0.00000000 0.23035470 0.01168457
v 0.00000000 0.23199040 0.01669678
v 0.01433914 0.22128930 -0.01609131
v 0.02024048 0.21808380 -0.02106567
v 0.02024048 0.22128930 -0.01609131
v 0.01433914 0.23035470 0.01168457
v 0.01433914 0.23199040 0.01669678
v 0.02024048 0.23035470 0.01168457
v 0.01827103 0.23136960 0.01479431
v -0.02024048 0.21808380 -0.02106567
v -0.01433914 0.22139140 -0.02379700
v -0.02024048 0.22139140 -0.02379822
v -0.02024048 0.21692370 -0.02703369
v -0.01433914 0.21692280 -0.02703308
v -0.01433914 0.21692280 -0.02703308
v -0.02024048 0.21692370 -0.02703369
v -0.02024048 0.21152730 -0.02817810
v -0.01433914 0.21152510 -0.02817810
v 0.00000000 0.21692180 -0.02703308
v -0.01433914 0.17481890 -0.02817810
v -0.02024048 0.17481870 -0.02817810
v -0.02024048 0.16922070 -0.02669983
v -0.01433914 0.16922080 -0.02669983
v 0.00000000 0.17481910 -0.02817810
v 0.00000000 0.16922090 -0.02669983
v 0.00000000 0.21152290 -0.02817810
v 0.01433914 0.21692090 -0.02703308
v 0.01433914 0.17481930 -0.02817810
v 0.01433914 0.16922100 -0.02669983
v 0.01433914 0.21152070 -0.02817810
v 0.02024048 0.21691990 -0.02703308
v 0.02024048 0.21151850 -0.02817810
v 0.02024048 0.17481950 -0.02817810
v 0.02024048 0.16922110 -0.02669983
v 0.02024048 0.22139160 -0.02379395
v 0.01433914 0.21692090 -0.02703308
v 0.02024048 0.21691990 -0.02703308
v 0.01433914 0.22139150 -0.02379395
v 0.00000000 0.21692180 -0.02703308
v 0.02024048 0.22501270 -0.01805481
v 0.00000000 0.22139150 -0.02379639
v 0.01433914 0.22501200 -0.01805786
v 0.00000000 0.22501130 -0.01806091
v 0.01433914 0.23381280 0.01031799
v 0.02024048 0.23381290 0.01031799
v 0.01433914 0.23540080 0.01543823
v 0.01827103 0.23479810 0.01349426
v 0.00000000 0.23540080 0.01543823
v 0.00000000 0.23381270 0.01031799
v -0.01433914 0.23540080 0.01543823
v -0.01433914 0.23381260 0.01031677
v -0.01827087 0.23479800 0.01349365
v -0.02024048 0.23381250 0.01031616
v -0.01433914 0.22501060 -0.01806274
v -0.02024048 0.22500990 -0.01806458
v 0.01433914 0.16743350 0.02270691
v 0.01433914 0.16370530 0.02270691
v 0.02024048 0.16743350 -0.01478210
v 0.01433914 0.16743350 -0.01478210
v 0.02024048 0.16743350 0.01662842
v 0.00000000 0.16743350 -0.01478088
v 0.01433914 0.16743350 0.01662842
v 0.01810913 0.16743350 0.02035400
v 0.01433914 0.16743350 0.02270691
v 0.00000000 0.16743350 0.01662842
v 0.00000000 0.16743350 0.02270691
v -0.01433914 0.16743350 -0.01478088
v -0.02024048 0.16743350 -0.01478088
v -0.02024048 0.16743350 0.01662842
v -0.01433914 0.16743350 0.01662842
v -0.01433914 0.16743350 0.02270691
v -0.01810913 0.16743350 0.02035400
v 0.01433914 0.21808380 -0.02106567
v 0.02024048 0.21808380 -0.02106567
v 0.00000000 0.16743350 0.02270691
v 0.01433914 0.16743350 0.02270691
v 0.01433914 0.16370530 0.02270691
v 0.00000000 0.16370530 0.02270691
v -0.01433914 0.16743350 0.02270691
v -0.01433914 0.16370530 0.02270691
v 0.00968735 0.15457350 0.00968750
v 0.01265717 0.16438760 0.00524353
v 0.01265717 0.15457350 0.00524353
v 0.00968735 0.16438760 0.00968750
v 0.00524277 0.15457350 0.01265747
v 0.00524277 0.16438760 0.01265747
v 0.00000000 0.15457350 0.01369934
v 0.00524277 0.16438760 0.01265747
v 0.00524277 0.15457350 0.01265747
v 0.00000000 0.16438760 0.01369934
v -0.00524277 0.15457350 0.01265747
v -0.00524277 0.16438760 0.01265747
v -0.00968750 0.15457350 0.00968750
v -0.00524277 0.16438760 0.01265747
v -0.00524277 0.15457350 0.01265747
v -0.00968750 0.16438760 0.00968750
v -0.01265717 0.15457350 0.00524353
v -0.01265717 0.16438760 0.00524353
v -0.01370010 0.15457350 0.00000000
v -0.01370010 0.16438760 0.00000000
v -0.01265717 0.15457350 -0.00524353
v -0.01265717 0.16438760 -0.00524353
v -0.00968750 0.15457350 -0.00968811
v -0.00968750 0.16438760 -0.00968811
v -0.00524277 0.15457350 -0.01265747
v -0.00524277 0.16438760 -0.01265747
v 0.00000000 0.15457350 -0.01370056
v -0.00524277 0.16438760 -0.01265747
v -0.00524277 0.15457350 -0.01265747
v 0.00000000 0.16438760 -0.01370056
v 0.00524277 0.15457350 -0.01265747
v 0.00524277 0.16438760 -0.01265747
v 0.00968735 0.15457350 -0.00968811
v 0.00524277 0.16438760 -0.01265747
v 0.00524277 0.15457350 -0.01265747
v 0.00968735 0.16438760 -0.00968811
v 0.01265717 0.15457350 -0.00524353
v 0.01265717 0.16438760 -0.00524353
v 0.01369995 0.15457350 0.00000000
v 0.01369995 0.16438760 0.00000000
v 0.00627716 0.13271550 -0.01515503
v 0.00274094 0.13271550 -0.00661743
v 0.00506470 0.13271550 -0.00506470
v 0.01159851 0.13271550 -0.01159851
v 0.00000000 0.13271550 -0.01640320
v 0.00661728 0.13271550 -0.00274109
v 0.00000000 0.13271550 -0.00716309
v 0.01515442 0.13271550 -0.00627685
v -0.00627716 0.13271550 -0.01515503
v 0.00716263 0.13271550 0.00000000
v -0.00274094 0.13271550 -0.00661743
v 0.01640289 0.13271550 0.00000000
v -0.01159866 0.13271550 -0.01159851
v 0.00661728 0.13271550 0.00274109
v -0.00506470 0.13271550 -0.00506470
v 0.01515442 0.13271550 0.00627685
v -0.01515442 0.13271550 -0.00627685
v 0.00506470 0.13271550 0.00506409
v -0.00661728 0.13271550 -0.00274109
v 0.01159851 0.13271550 0.01159851
v -0.01640305 0.13271550 0.00000000
v 0.00274094 0.13271550 0.00661743
v -0.00716247 0.13271550 0.00000000
v 0.00627716 0.13271550 0.01515503
v -0.01515442 0.13271550 0.00627685
v 0.00000000 0.13271550 0.00716186
v -0.00661728 0.13271550 0.00274109
v 0.00000000 0.13271550 0.01640198
v -0.01159866 0.13271550 0.01159851
v -0.00274094 0.13271550 0.00661743
v -0.00506470 0.13271550 0.00506409
v -0.00627716 0.13271550 0.01515503
v 0.01159851 0.13838850 -0.01159851
v 0.01515442 0.13838850 -0.00627685
v 0.00766876 0.13838850 -0.00317688
v 0.00586945 0.13838850 -0.00586975
v 0.00830048 0.13838850 0.00000000
v 0.00627716 0.13838850 -0.01515503
v 0.01640289 0.13838850 0.00000000
v 0.00317642 0.13838850 -0.00766968
v 0.00766876 0.13838850 0.00317688
v 0.00000000 0.13838850 -0.01640320
v 0.01515442 0.13838850 0.00627685
v 0.00000000 0.13838850 -0.00830078
v 0.00586945 0.13838850 0.00586914
v -0.00627716 0.13838850 -0.01515503
v 0.01159851 0.13838850 0.01159851
v -0.00317642 0.13838850 -0.00766968
v 0.00317642 0.13838850 0.00766846
v -0.01159866 0.13838850 -0.01159851
v 0.00627716 0.13838850 0.01515503
v -0.00586929 0.13838850 -0.00586975
v 0.00000000 0.13838850 0.00830078
v -0.01515442 0.13838850 -0.00627685
v 0.00000000 0.13838850 0.01640198
v -0.00766876 0.13838850 -0.00317688
v -0.00317642 0.13838850 0.00766846
v -0.01640305 0.13838850 0.00000000
v -0.00627716 0.13838850 0.01515503
v -0.00830048 0.13838850 0.00000000
v -0.00586929 0.13838850 0.00586914
v -0.01515442 0.13838850 0.00627685
v -0.01159866 0.13838850 0.01159851
v -0.00766876 0.13838850 0.00317688
v 0.00968735 0.15457350 -0.00968811
v 0.00586945 0.15457350 -0.00586975
v 0.00766876 0.15457350 -0.00317688
v 0.01265717 0.15457350 -0.00524353
v 0.00524277 0.15457350 -0.01265747
v 0.00830048 0.15457350 0.00000000
v 0.00317642 0.15457350 -0.00766968
v 0.01369995 0.15457350 0.00000000
v 0.00000000 0.15457350 -0.01370056
v 0.00766876 0.15457350 0.00317688
v 0.00000000 0.15457350 -0.00830078
v 0.01265717 0.15457350 0.00524353
v -0.00524277 0.15457350 -0.01265747
v 0.00586945 0.15457350 0.00586914
v -0.00317642 0.15457350 -0.00766968
v 0.00968735 0.15457350 0.00968750
v -0.00968750 0.15457350 -0.00968811
v 0.00317642 0.15457350 0.00766846
v -0.00586929 0.15457350 -0.00586975
v 0.00524277 0.15457350 0.01265747
v -0.01265717 0.15457350 -0.00524353
v 0.00000000 0.15457350 0.00830078
v -0.00766876 0.15457350 -0.00317688
v 0.00000000 0.15457350 0.01369934
v -0.01370010 0.15457350 0.00000000
v -0.00317642 0.15457350 0.00766846
v -0.00830048 0.15457350 0.00000000
v -0.00524277 0.15457350 0.01265747
v -0.01265717 0.15457350 0.00524353
v -0.00586929 0.15457350 0.00586914
v -0.00766876 0.15457350 0.00317688
v -0.00968750 0.15457350 0.00968750
vn 0.00000000 1.00000000 0.00000000
vn 0.00000000 1.00000000 0.00000000
vn 0.00000000 1.00000000 0.00000000
vn 0.00000000 1.00000000 0.00000000
vn 0.92388680 0.00000000 -0.38266580
vn 0.70715000 0.00000000 -0.70706350
vn 0.70715000 0.00000000 -0.70706350
vn 0.92388680 0.00000000 -0.38266580
vn 1.00000000 0.00000000 0.00000000
vn 1.00000000 0.00000000 0.00000000
vn 0.92388680 0.00000000 0.38266580
vn 0.92388680 0.00000000 0.38266580
vn 0.70703130 0.00000000 0.70718230
vn 0.38273740 0.00000000 -0.92385720
vn 0.38273740 0.00000000 -0.92385720
vn 0.38273740 0.00000000 -0.92385720
vn 0.38273740 0.00000000 -0.92385720
vn 0.00000000 0.00000000 -1.00000000
vn 0.00000000 0.00000000 -1.00000000
vn -0.38274590 0.00000000 -0.92385360
vn -0.38274590 0.00000000 -0.92385360
vn -0.38274590 0.00000000 -0.92385360
vn -0.38274590 0.00000000 -0.92385360
vn -0.70715000 0.00000000 -0.70706350
vn -0.70715000 0.00000000 -0.70706350
vn -0.92387830 0.00000000 -0.38268640
vn -0.92387830 0.00000000 -0.38268640
vn -1.00000000 0.00000000 0.00000000
vn -1.00000000 0.00000000 0.00000000
vn -0.92387830 0.00000000 0.38268640
vn -0.92387830 0.00000000 0.38268640
vn -0.70703130 0.00000000 0.70718230
vn -0.70703130 0.00000000 0.70718230
vn -0.38274600 0.00000000 0.92385370
vn -0.38274600 0.00000000 0.92385370
vn -0.38274600 0.00000000 0.92385370
vn -0.38274600 0.00000000 0.92385370
vn 0.00000000 0.00000000 1.00000000
vn 0.00000000 0.00000000 1.00000000
vn 0.38273740 0.00000000 0.92385720
vn 0.38273740 0.00000000 0.92385720
vn 0.38273740 0.00000000 0.92385720
vn 0.38273740 0.00000000 0.92385720
vn 0.70703130 0.00000000 0.70718230
vn 0.38272430 0.00000000 -0.92386260
vn 0.38272430 0.00000000 -0.92386260
vn 0.70714160 0.00000000 -0.70707200
vn 0.70714160 0.00000000 -0.70707200
vn 0.92387590 0.00000000 -0.38269230
vn 0.92387590 0.00000000 -0.38269230
vn 1.00000000 0.00000000 0.00000000
vn 1.00000000 0.00000000 0.00000000
vn 0.00000000 0.00000000 -1.00000000
vn 0.38272430 0.00000000 -0.92386260
vn 0.38272430 0.00000000 -0.92386260
vn 0.00000000 0.00000000 -1.00000000
vn -0.38271990 0.00000000 -0.92386440
vn -0.38271990 0.00000000 -0.92386440
vn -0.70714150 0.00000000 -0.70707200
vn -0.38271990 0.00000000 -0.92386440
vn -0.38271990 0.00000000 -0.92386440
vn -0.70714150 0.00000000 -0.70707200
vn -0.92387570 0.00000000 -0.38269240
vn -0.92387570 0.00000000 -0.38269240
vn -1.00000000 0.00000000 0.00000000
vn -1.00000000 0.00000000 0.00000000
vn -0.92387570 0.00000000 0.38269240
vn -0.92387570 0.00000000 0.38269240
vn -0.70714150 0.00000000 0.70707200
vn -0.70714150 0.00000000 0.70707200
vn -0.38261030 0.00000000 0.92390980
vn -0.38261030 0.00000000 0.92390980
vn 0.00000000 0.00000000 1.00000000
vn 0.00000000 0.00000000 1.00000000
vn -0.38261030 0.00000000 0.92390980
vn -0.38261030 0.00000000 0.92390980
vn 0.38261450 0.00000000 0.92390800
vn 0.38261450 0.00000000 0.92390800
vn 0.70714160 0.00000000 0.70707200
vn 0.38261450 0.00000000 0.92390800
vn 0.38261450 0.00000000 0.92390800
vn 0.70714160 0.00000000 0.70707200
vn 0.92387590 0.00000000 0.38269230
vn 0.92387590 0.00000000 0.38269230
vn -0.71749250 0.00000000 0.69656620
vn -0.12887080 0.00000000 0.99166140
vn -0.12887080 0.00000000 0.99166140
vn -0.71749250 0.00000000 0.69656620
vn -0.99829520 0.00000000 0.05836611
vn -0.99829520 0.00000000 0.05836611
vn -1.00000000 0.00000000 0.00000000
vn -1.00000000 0.00000000 0.00000000
vn -1.00000000 0.00003008 0.00000000
vn -1.00000000 0.00002326 0.00000000
vn -1.00000000 0.00001286 0.00000000
vn -1.00000000 0.00000310 0.00000000
vn -1.00000000 -0.00001038 0.00000000
vn -1.00000000 -0.00000283 0.00000000
vn -1.00000000 0.00000244 0.00000000
vn -1.00000000 0.00001167 0.00000000
vn -1.00000000 0.00001225 0.00000000
vn -1.00000000 0.00001982 0.00000000
vn -1.00000000 0.00000791 0.00000000
vn -1.00000000 0.00000706 0.00000000
vn -1.00000000 0.00000285 0.00000000
vn -1.00000000 0.00000257 0.00000000
vn -0.99816090 0.02190679 0.05652326
vn -0.99862920 0.01891562 0.04880553
vn -0.66581050 0.26417430 0.69778810
vn -0.67546280 0.26124830 0.68956460
vn -0.66581050 0.26417430 0.69778810
vn -0.67546280 0.26124830 0.68956460
vn -0.11131950 0.34498810 0.93198250
vn -0.10906550 0.34505580 0.93222370
vn 0.00000000 0.34620880 0.93815760
vn 0.00000000 0.34620880 0.93815760
vn 0.10910020 0.34503540 0.93222730
vn 0.11135410 0.34496730 0.93198600
vn 0.66576110 0.26407800 0.69787170
vn 0.67537440 0.26116290 0.68968360
vn 0.00000000 -1.00000000 0.00000000
vn 0.00000000 -1.00000000 0.00000106
vn 0.00000000 -1.00000000 0.00000015
vn 0.00000000 -1.00000000 0.00000000
vn 0.00000658 -0.99929340 -0.03758612
vn 0.00000000 -1.00000000 0.00000000
vn 0.00000000 -1.00000000 0.00000000
vn 0.00000192 -0.99929330 -0.03758715
vn 0.00000000 -1.00000000 0.00000000
vn 0.00000000 -1.00000000 0.00000030
vn 0.00001851 -0.85961000 -0.51095080
vn 0.00005310 -0.85961130 -0.51094850
vn -0.00000172 -0.85961050 -0.51094990
vn 0.00000000 -0.99929330 -0.03758883
vn 0.00000454 -0.85961260 -0.51094630
vn 0.00000192 -0.99929330 -0.03758730
vn 0.00003433 -0.85961470 -0.51094290
vn 0.00000658 -0.99929330 -0.03758895
vn 0.00000000 -1.00000000 0.00000015
vn 0.00000000 -1.00000000 0.00000212
vn 0.71749250 0.00000000 0.69656620
vn 0.71749250 0.00000000 0.69656620
vn 0.99829520 0.00000000 0.05836611
vn 0.99829520 0.00000000 0.05836611
vn 1.00000000 0.00000000 0.00000000
vn 1.00000000 0.00000000 0.00000000
vn 1.00000000 0.00000000 0.00000000
vn 1.00000000 0.00000000 0.00000000
vn 1.00000000 -0.00001765 0.00000000
vn 1.00000000 -0.00001389 0.00000000
vn 1.00000000 -0.00000283 0.00000000
vn 1.00000000 -0.00001038 0.00000000
vn 1.00000000 0.00001166 0.00000000
vn 1.00000000 0.00000245 0.00000000
vn 1.00000000 0.00001982 0.00000000
vn 1.00000000 0.00001226 0.00000000
vn 1.00000000 0.00000000 0.00000000
vn 1.00000000 0.00000000 0.00000000
vn 1.00000000 -0.00004321 0.00000000
vn 1.00000000 -0.00004221 0.00000000
vn 0.99862740 0.01887165 0.04885897
vn 0.99816230 0.02184038 0.05652360
vn 0.67537440 0.26116290 0.68968360
vn 0.66576110 0.26407800 0.69787170
vn 0.00000088 0.04295414 0.99907710
vn 0.00003397 0.43580700 0.90004010
vn 0.00002032 0.43579640 0.90004520
vn -0.00002651 0.04295612 0.99907700
vn 0.00001410 0.43581450 0.90003660
vn -0.00003381 -0.03348568 0.99943920
vn 0.00000000 -0.03348628 0.99943920
vn 0.00000000 -0.33034940 0.94385870
vn 0.00000000 -0.33034390 0.94386070
vn -0.00001991 0.04295591 0.99907700
vn 0.00000599 0.43582180 0.90003300
vn -0.00002387 -0.03348532 0.99943920
vn 0.00000000 -0.33034170 0.94386140
vn 0.00000384 0.04295588 0.99907700
vn 0.00004820 0.43583190 0.90002800
vn 0.00001813 0.04295773 0.99907680
vn 0.00000000 -0.03348529 0.99943920
vn 0.00000000 -0.03348552 0.99943920
vn 0.00000000 -0.33034390 0.94386070
vn 0.00000000 -0.33034940 0.94385870
vn 0.00000000 -0.69196210 0.72193390
vn 0.00000000 -0.69196360 0.72193240
vn 0.00002032 0.43579640 0.90004520
vn 0.00001154 0.87047420 0.49221410
vn 0.00001981 0.87046870 0.49222380
vn 0.00003397 0.43580700 0.90004010
vn 0.00000696 0.87047110 0.49221940
vn 0.00001410 0.43581450 0.90003660
vn -0.00000164 0.87046260 0.49223450
vn 0.00000599 0.43582180 0.90003300
vn -0.00001969 0.87045520 0.49224770
vn 0.00004820 0.43583190 0.90002800
vn 0.00001683 -0.49679170 -0.86786980
vn 0.00005157 -0.49680020 -0.86786490
vn -0.00000329 -0.49678650 -0.86787280
vn -0.00000467 -0.49678190 -0.86787550
vn 0.00000616 -0.49677560 -0.86787890
vn 0.00000000 -0.93642400 0.35087060
vn 0.00000000 -0.69196360 0.72193240
vn 0.00000000 -0.69196770 0.72192850
vn 0.00000000 -0.93642640 0.35086390
vn 0.00000000 -0.69196210 0.72193390
vn 0.00000000 -0.95064960 0.31026650
vn 0.00000000 -0.95064680 0.31027520
vn 0.00000000 -0.93642750 0.35086120
vn 0.00000000 -0.69196360 0.72193240
vn 0.00000000 -0.95065700 0.31024380
vn 0.00000000 -0.95065690 0.31024420
vn 0.00000000 -0.95065060 0.31026360
vn 0.00000000 -0.95065710 0.31024370
vn 0.00000000 -0.93642640 0.35086390
vn 0.00000000 -0.69196770 0.72192850
vn 0.00000000 -0.93642400 0.35087060
vn 0.00000000 -0.95064960 0.31026660
vn 0.00000000 -0.95065690 0.31024420
vn 0.00000000 -0.95064680 0.31027530
vn 0.00000000 -0.95065590 0.31024720
vn 0.00000000 -0.69196770 0.72192850
vn 0.00004737 0.74269910 -0.66962520
vn 0.00016691 0.74268970 -0.66963560
vn 0.00025144 0.40583660 -0.91394560
vn 0.00007092 0.40582230 -0.91395200
vn 0.00007092 0.40582230 -0.91395200
vn 0.00025144 0.40583660 -0.91394560
vn 0.00002520 0.02718829 -0.99963030
vn 0.00000961 0.02718314 -0.99963050
vn 0.00003213 0.40583920 -0.91394450
vn 0.00000148 -0.03492288 -0.99939000
vn 0.00000609 -0.03492308 -0.99939000
vn 0.00005157 -0.49680020 -0.86786490
vn 0.00001683 -0.49679170 -0.86786980
vn -0.00002054 -0.03492429 -0.99939000
vn -0.00000329 -0.49678650 -0.86787280
vn -0.00001701 0.02718585 -0.99963050
vn 0.00005947 0.40586530 -0.91393290
vn -0.00002910 -0.03492592 -0.99938990
vn -0.00000467 -0.49678190 -0.86787550
vn -0.00002411 0.02718649 -0.99963030
vn 0.00003971 0.40586240 -0.91393430
vn 0.00000777 0.02717591 -0.99963070
vn -0.00000103 -0.03492603 -0.99938990
vn 0.00000616 -0.49677560 -0.86787890
vn 0.00008113 0.74276800 -0.66954880
vn 0.00005947 0.40586530 -0.91393290
vn 0.00003971 0.40586240 -0.91393430
vn 0.00010132 0.74273970 -0.66958030
vn 0.00003213 0.40583920 -0.91394450
vn 0.00005269 0.93965400 -0.34212600
vn 0.00005391 0.74270310 -0.66962070
vn 0.00002959 0.93964710 -0.34214510
vn 0.00001796 0.93964900 -0.34214000
vn 0.00000546 0.95511720 -0.29622840
vn 0.00002967 0.95511570 -0.29623330
vn -0.00002259 0.95511620 -0.29623140
vn -0.00003749 0.95511050 -0.29624970
vn 0.00000000 0.95511900 -0.29622240
vn 0.00000607 0.95511810 -0.29622550
vn 0.00001676 0.95512070 -0.29621690
vn 0.00001092 0.95511750 -0.29622700
vn 0.00000000 0.95512070 -0.29621710
vn 0.00000000 0.95511560 -0.29623370
vn 0.00001413 0.93965140 -0.34213360
vn 0.00001000 0.93964560 -0.34214920
vn 0.12887080 0.00000000 0.99166140
vn 0.12887080 0.00000000 0.99166140
vn -0.00000178 0.99979940 0.02002769
vn 0.00000154 0.99979940 0.02002914
vn 0.00000000 1.00000000 0.00000000
vn 0.00000145 0.99979940 0.02002755
vn 0.00000000 1.00000000 0.00000000
vn 0.00000000 1.00000000 0.00000000
vn 0.00000000 1.00000000 0.00000000
vn 0.00000000 1.00000000 0.00000000
vn 0.00000000 1.00000000 0.00000000
vn 0.00000000 0.99979940 0.02002928
vn 0.00000000 0.99979940 0.02002976
vn 0.00000000 1.00000000 -0.00000016
vn 0.00000000 1.00000000 0.00000000
vn 0.00000000 1.00000000 -0.00000030
vn 0.00000000 1.00000000 -0.00000212
vn 0.00000000 -0.69196360 0.72193240
vn 0.00000000 -0.69196770 0.72192850
vn 0.00000000 0.00000000 1.00000000
vn 0.12887080 0.00000000 0.99166140
vn 0.12887080 0.00000000 0.99166140
vn 0.00000000 0.00000000 1.00000000
vn -0.12887080 0.00000000 0.99166140
vn -0.12887080 0.00000000 0.99166140
vn 0.70707920 0.00000000 0.70713430
vn 0.92388310 0.00000000 0.38267490
vn 0.92388310 0.00000000 0.38267490
vn 0.70707920 0.00000000 0.70713430
vn 0.38262850 0.00000000 0.92390230
vn 0.38262850 0.00000000 0.92390230
vn 0.00000000 0.00000000 1.00000000
vn 0.38262850 0.00000000 0.92390230
vn 0.38262850 0.00000000 0.92390230
vn 0.00000000 0.00000000 1.00000000
vn -0.38262350 0.00000000 0.92390440
vn -0.38262350 0.00000000 0.92390440
vn -0.70707920 0.00000000 0.70713440
vn -0.38262350 0.00000000 0.92390440
vn -0.38262350 0.00000000 0.92390440
vn -0.70707920 0.00000000 0.70713440
vn -0.92388300 0.00000000 0.38267510
vn -0.92388300 0.00000000 0.38267510
vn -1.00000000 0.00000000 0.00000000
vn -1.00000000 0.00000000 0.00000000
vn -0.92389160 0.00000000 -0.38265410
vn -0.92389160 0.00000000 -0.38265410
vn -0.70707920 0.00000000 -0.70713430
vn -0.70707920 0.00000000 -0.70713430
vn -0.38262340 0.00000000 -0.92390440
vn -0.38262340 0.00000000 -0.92390440
vn 0.00000000 0.00000000 -1.00000000
vn -0.38262340 0.00000000 -0.92390440
vn -0.38262340 0.00000000 -0.92390440
vn 0.00000000 0.00000000 -1.00000000
vn 0.38262850 0.00000000 -0.92390230
vn 0.38262850 0.00000000 -0.92390230
vn 0.70707920 0.00000000 -0.70713430
vn 0.38262850 0.00000000 -0.92390230
vn 0.38262850 0.00000000 -0.92390230
vn 0.70707920 0.00000000 -0.70713430
vn 0.92389170 0.00000000 -0.38265400
vn 0.92389170 0.00000000 -0.38265400
vn 1.00000000 0.00000000 0.00000000
vn 1.00000000 0.00000000 0.00000000
vn 0.00000000 -1.00000000 0.00000000
vn 0.00000000 -1.00000000 0.00000000
vn 0.00000000 -1.00000000 0.00000000
vn 0.00000000 -1.00000000 0.00000000
vn 0.00000000 -1.00000000 0.00000000
vn 0.00000000 -1.00000000 0.00000000
vn 0.00000000 -1.00000000 0.00000000
vn 0.00000000 -1.00000000 0.00000000
vn 0.00000000 -1.00000000 0.00000000
vn 0.00000000 -1.00000000 0.00000000
vn 0.00000000 -1.00000000 0.00000000
vn 0.00000000 -1.00000000 0.00000000
vn 0.00000000 -1.00000000 0.00000000
vn 0.00000000 -1.00000000 0.00000000
vn 0.00000000 -1.00000000 0.00000000
vn 0.00000000 -1.00000000 0.00000000
vn 0.00000000 -1.00000000 0.00000000
vn 0.00000000 -1.00000000 0.00000000
vn 0.00000000 -1.00000000 0.00000000
vn 0.00000000 -1.00000000 0.00000000
vn 0.00000000 -1.00000000 0.00000000
vn 0.00000000 -1.00000000 0.00000000
vn 0.00000000 -1.00000000 0.00000000
vn 0.00000000 -1.00000000 0.00000000
vn 0.00000000 -1.00000000 0.00000000
vn 0.00000000 -1.00000000 0.00000000
vn 0.00000000 -1.00000000 0.00000000
vn 0.00000000 -1.00000000 0.00000000
vn 0.00000000 -1.00000000 0.00000000
vn 0.00000000 -1.00000000 0.00000114
vn 0.00000000 -1.00000000 0.00000000
vn 0.00000000 -1.00000000 0.00000114
vn 0.00000000 1.00000000 0.00000000
vn 0.00000000 1.00000000 0.00000000
vn 0.00000000 1.00000000 0.00000000
vn 0.00000000 1.00000000 0.00000000
vn 0.00000000 1.00000000 0.00000031
vn 0.00000000 1.00000000 0.00000124
vn 0.00000000 1.00000000 0.00000031
vn 0.00000000 1.00000000 0.00000124
vn 0.00000000 1.00000000 0.00000000
vn 0.00000000 1.00000000 0.00000000
vn 0.00000000 1.00000000 0.00000000
vn 0.00000000 1.00000000 0.00000000
vn 0.00000000 1.00000000 0.00000000
vn 0.00000000 1.00000000 0.00000000
vn 0.00000000 1.00000000 0.00000000
vn 0.00000000 1.00000000 0.00000000
vn 0.00000000 1.00000000 0.00000000
vn 0.00000000 1.00000000 0.00000124
vn 0.00000000 1.00000000 0.00000000
vn 0.00000000 1.00000000 0.00000124
vn 0.00000000 1.00000000 0.00000000
vn 0.00000000 1.00000000 0.00000125
vn 0.00000000 1.00000000 0.00000000
vn 0.00000000 1.00000000 0.00000125
vn 0.00000000 1.00000000 0.00000000
vn 0.00000000 1.00000000 -0.00000156
vn 0.00000000 1.00000000 0.00000000
vn 0.00000000 1.00000000 -0.00000156
vn 0.00000000 1.00000000 0.00000000
vn 0.00000000 1.00000000 0.00000156
vn 0.00000000 1.00000000 0.00000000
vn 0.00000000 1.00000000 0.00000156
vn 0.00000000 -1.00000000 0.00000000
vn 0.00000000 -1.00000000 0.00000000
vn 0.00000000 -1.00000000 0.00000000
vn 0.00000000 -1.00000000 0.00000000
vn 0.00000000 -1.00000000 0.00000000
vn 0.00000000 -1.00000000 0.00000420
vn 0.00000000 -1.00000000 0.00000000
vn 0.00000000 -1.00000000 0.00000420
vn 0.00000000 -1.00000000 0.00000210
vn 0.00000000 -1.00000000 0.00000000
vn 0.00000000 -1.00000000 0.00000210
vn 0.00000000 -1.00000000 0.00000000
vn 0.00000000 -1.00000000 0.00000210
vn 0.00000000 -1.00000000 0.00000000
vn 0.00000000 -1.00000000 0.00000210
vn 0.00000000 -1.00000000 0.00000000
vn 0.00000000 -1.00000000 -0.00000420
vn 0.00000000 -1.00000000 -0.00000210
vn 0.00000000 -1.00000000 -0.00000420
vn 0.00000000 -1.00000000 -0.00000210
vn 0.00000000 -1.00000000 0.00000210
vn 0.00000000 -1.00000000 -0.00000210
vn 0.00000000 -1.00000000 0.00000210
vn 0.00000000 -1.00000000 -0.00000210
vn 0.00000000 -1.00000000 0.00000000
vn 0.00000000 -1.00000000 0.00000210
vn 0.00000000 -1.00000000 0.00000000
vn 0.00000000 -1.00000000 0.00000210
vn 0.00000000 -1.00000000 0.00000000
vn 0.00000000 -1.00000000 -0.00000210
vn 0.00000000 -1.00000000 0.00000000
vn 0.00000000 -1.00000000 -0.00000210
vt -7.78475500 -2.39906600
vt -7.78177500 -2.39906600
vt -7.78177500 -2.40204800
vt -7.78475500 -2.40204800
vt -7.86633100 0.86422490
vt -7.86040900 0.89980920
vt -7.86040900 0.86422490
vt -7.86633100 0.89980920
vt -7.87331400 0.86422490
vt -7.87331400 0.89980920
vt -7.88029900 0.86422490
vt -7.88029900 0.89980920
vt -7.88621800 0.86422490
vt -7.85645400 0.89980920
vt -7.85645400 0.86422490
vt -7.90516300 0.89796350
vt -7.90516300 0.86607050
vt -7.91142300 0.86607050
vt -7.91142300 0.89796350
vt -7.91768200 0.86607050
vt -7.91768200 0.89796350
vt -7.96639200 0.86422690
vt -7.96639200 0.89980720
vt -7.96243700 0.89980720
vt -7.96243700 0.86422690
vt -7.95651500 0.89980720
vt -7.95651500 0.86422690
vt -7.94953300 0.89980720
vt -7.94953300 0.86422690
vt -7.94254900 0.89980720
vt -7.94254900 0.86422690
vt -7.93663100 0.89980720
vt -7.93663100 0.86422690
vt -7.93267400 0.89980720
vt -7.93267400 0.86422690
vt -7.97656800 0.91805360
vt -7.97656800 0.94998680
vt -7.97030100 0.94998680
vt -7.97030100 0.91805360
vt -7.96403400 0.94998680
vt -7.96403400 0.91805360
vt -7.89017500 0.86422490
vt -7.89017500 0.89980920
vt -7.88621800 0.89980920
vt -7.51236300 0.85754510
vt -7.52483700 0.85754510
vt -7.52483700 0.86536500
vt -7.51236300 0.86536500
vt -7.52483700 0.87706720
vt -7.51236300 0.87706720
vt -7.52483700 0.89086830
vt -7.51236300 0.89086830
vt -7.95099600 0.92860940
vt -7.93980100 0.91622170
vt -7.95099600 0.91622170
vt -7.93980100 0.92860940
vt -7.95099600 0.94099750
vt -7.93980100 0.94099750
vt -7.53505800 0.91636760
vt -7.54753100 0.92418620
vt -7.53505800 0.92418620
vt -7.54753100 0.91636760
vt -7.53505800 0.90466730
vt -7.54753100 0.90466730
vt -7.53505800 0.89086830
vt -7.54753100 0.89086830
vt -7.53505800 0.87706780
vt -7.54753100 0.87706780
vt -7.53505800 0.86536750
vt -7.54753100 0.86536750
vt -7.53505800 0.85755030
vt -7.54753100 0.85755030
vt -7.91590600 0.92860940
vt -7.92710100 0.92860940
vt -7.92710100 0.94099750
vt -7.91590600 0.94099750
vt -7.91590600 0.91622170
vt -7.92710100 0.91622170
vt -7.51236300 0.91637310
vt -7.52483700 0.92419140
vt -7.51236300 0.92419140
vt -7.52483700 0.91637310
vt -7.51236300 0.90467090
vt -7.52483700 0.90467090
vt -7.85833000 0.67797860
vt -7.85368500 0.68534240
vt -7.85368500 0.67797860
vt -7.85833000 0.68534240
vt -7.86569200 0.67797860
vt -7.86569200 0.68534240
vt -7.93294400 0.67797860
vt -7.92772900 0.68534240
vt -7.94329600 0.68089760
vt -7.93785300 0.68678810
vt -7.95127200 0.68887250
vt -7.94418700 0.69464900
vt -7.95419000 0.69992940
vt -7.94722000 0.70612880
vt -7.94722000 0.76516570
vt -7.95419000 0.77243490
vt -7.95193000 0.78309370
vt -7.94486000 0.77654410
vt -7.94553900 0.79191800
vt -7.94014200 0.78538500
vt -7.93421400 0.79906530
vt -7.93031700 0.79171650
vt -7.87545600 0.80962210
vt -7.87815900 0.81645170
vt -7.86931300 0.81162670
vt -7.87188200 0.81839820
vt -7.29534800 0.96795580
vt -7.28834200 0.96795580
vt -7.28711000 0.95992170
vt -7.29407900 0.95992170
vt -7.29407900 0.93062060
vt -7.28711000 0.93062060
vt -7.29407900 0.90131980
vt -7.28711000 0.90131980
vt -7.29534800 0.89328560
vt -7.28834200 0.89328560
vt -7.56253300 0.80537780
vt -7.55829100 0.81279560
vt -7.55078800 0.81747660
vt -7.55078800 0.80537780
vt -7.56253300 0.73760770
vt -7.52224700 0.80537780
vt -7.52224700 0.81747660
vt -7.55078800 0.73760770
vt -7.49370700 0.80537780
vt -7.49370700 0.81747660
vt -7.55078800 0.72717600
vt -7.56253300 0.72717600
vt -7.52224700 0.72717600
vt -7.52224700 0.73760770
vt -7.49370700 0.72717600
vt -7.49370700 0.73760910
vt -7.48196100 0.72717600
vt -7.48196100 0.73761050
vt -7.48196100 0.80537780
vt -7.48620300 0.81279560
vt -7.86821700 0.46233610
vt -7.86821700 0.46969860
vt -7.86085700 0.46969860
vt -7.86085700 0.46233610
vt -7.79361900 0.46233610
vt -7.79882700 0.46969860
vt -7.78870600 0.47114390
vt -7.78326600 0.46525490
vt -7.78237400 0.47900270
vt -7.77529100 0.47322890
vt -7.77934200 0.49047950
vt -7.77237200 0.48428480
vt -7.77237200 0.55675910
vt -7.77934200 0.54950850
vt -7.78170200 0.56088500
vt -7.77463500 0.56742580
vt -7.78641800 0.56972430
vt -7.78103000 0.57625660
vt -7.79624200 0.57605480
vt -7.79236300 0.58340760
vt -7.84839600 0.60078670
vt -7.85109400 0.59395730
vt -7.85466900 0.60273220
vt -7.85723500 0.59596150
vt -7.30852700 0.77009740
vt -7.29688600 0.75863230
vt -7.30852700 0.75863250
vt -7.29688600 0.77009700
vt -7.26860100 0.75863210
vt -7.29688600 0.82905730
vt -7.30852700 0.82905730
vt -7.30852700 0.84042080
vt -7.29688600 0.84042080
vt -7.26860100 0.77009640
vt -7.24031500 0.75863190
vt -7.26860100 0.82905730
vt -7.26860100 0.84042080
vt -7.24031500 0.77009580
vt -7.22867400 0.75863160
vt -7.22867400 0.77009530
vt -7.24031500 0.82905730
vt -7.22867400 0.82905730
vt -7.24031500 0.84042080
vt -7.22867400 0.84042080
vt -7.26860100 0.84925010
vt -7.29688600 0.84925010
vt -7.18215800 0.84508260
vt -7.17038400 0.83868660
vt -7.18215800 0.83868520
vt -7.17038400 0.84508260
vt -7.14177800 0.83868660
vt -7.14177800 0.84508260
vt -7.11317200 0.83868660
vt -7.11317200 0.84508260
vt -7.10139800 0.83868660
vt -7.10139800 0.84508260
vt -7.55078800 0.71913880
vt -7.56253300 0.71913880
vt -7.52224700 0.71913880
vt -7.49370700 0.71913880
vt -7.48196100 0.71913880
vt -7.25126200 0.97739060
vt -7.26131400 0.96546630
vt -7.26131400 0.97739060
vt -7.25126200 0.96546630
vt -7.26131400 0.93649130
vt -7.19513600 0.96546630
vt -7.19513600 0.97739060
vt -7.25126200 0.93649130
vt -7.26131400 0.90751620
vt -7.18500800 0.96546630
vt -7.18885300 0.97341200
vt -7.19513600 0.93649130
vt -7.18500800 0.93649130
vt -7.25126200 0.90751620
vt -7.26131400 0.89559190
vt -7.25126200 0.89559190
vt -7.19513600 0.90751620
vt -7.18500800 0.90751620
vt -7.19513600 0.89559190
vt -7.18885300 0.89957180
vt -7.30852700 0.84925010
vt -7.13036200 0.97185740
vt -7.14254000 0.97185890
vt -7.14254000 0.97853650
vt -7.13036200 0.97853500
vt -7.42352300 0.75983350
vt -7.43508600 0.75983150
vt -7.43508600 0.77040610
vt -7.42352300 0.77041040
vt -7.39542400 0.75983530
vt -7.42352300 0.84233800
vt -7.43508600 0.84233840
vt -7.43508600 0.85330780
vt -7.42352300 0.85330760
vt -7.39542400 0.84233750
vt -7.39542400 0.85330740
vt -7.39542400 0.77041470
vt -7.36732600 0.75983730
vt -7.36732600 0.84233720
vt -7.36732600 0.85330720
vt -7.36732600 0.77041900
vt -7.35576200 0.75983920
vt -7.35576200 0.77042320
vt -7.35576200 0.84233680
vt -7.35576200 0.85330710
vt -7.05900500 0.97185160
vt -7.07118400 0.97853500
vt -7.05900500 0.97853360
vt -7.07118400 0.97185310
vt -7.10077300 0.97853500
vt -7.05900500 0.96000920
vt -7.10077300 0.97185450
vt -7.07118400 0.96001490
vt -7.10077300 0.96001920
vt -7.07118400 0.90146080
vt -7.05900500 0.90145940
vt -7.07118400 0.89089560
vt -7.06307100 0.89490540
vt -7.10077300 0.89089560
vt -7.10077300 0.90146080
vt -7.13036200 0.89089560
vt -7.13036200 0.90146230
vt -7.13847600 0.89490690
vt -7.14254000 0.90146370
vt -7.13036200 0.96002350
vt -7.14254000 0.96002790
vt -7.87286100 0.46969860
vt -7.87286100 0.46233610
vt -7.10139800 0.82846260
vt -7.11317200 0.82846120
vt -7.10139800 0.76579890
vt -7.14177800 0.82845980
vt -7.11317200 0.76579890
vt -7.10565000 0.75836380
vt -7.11317200 0.75367210
vt -7.14177800 0.76579890
vt -7.14177800 0.75367210
vt -7.17038400 0.82845980
vt -7.18215800 0.82845980
vt -7.18215800 0.76579890
vt -7.17038400 0.76579890
vt -7.17038400 0.75367210
vt -7.17790600 0.75836380
vt -7.24031500 0.84925010
vt -7.22867400 0.84925010
vt -7.55745100 0.88843800
vt -7.55745100 0.86044760
vt -7.56472800 0.86044760
vt -7.56472800 0.88843800
vt -7.55745100 0.91642860
vt -7.56472800 0.91642860
vt -7.68529500 0.94590110
vt -7.66372200 0.93613050
vt -7.68529500 0.93613050
vt -7.66372200 0.94590110
vt -7.68529500 0.95243000
vt -7.66372200 0.95243000
vt -7.90111400 0.92552640
vt -7.88176300 0.91518870
vt -7.90111400 0.91518870
vt -7.88176300 0.92552640
vt -7.90111400 0.93586460
vt -7.88176300 0.93586460
vt -7.72033000 0.90330980
vt -7.69875700 0.89678080
vt -7.72033000 0.89678080
vt -7.69875700 0.90330980
vt -7.72033000 0.91308030
vt -7.69875700 0.91308030
vt -7.72033000 0.92460620
vt -7.69875700 0.92460620
vt -7.72033000 0.93613060
vt -7.69875700 0.93613060
vt -7.72033000 0.94590260
vt -7.69875700 0.94590260
vt -7.72033000 0.95243000
vt -7.69875700 0.95243000
vt -7.84500200 0.94730270
vt -7.86435500 0.95764120
vt -7.84500200 0.95764120
vt -7.86435500 0.94730270
vt -7.84500200 0.93696460
vt -7.86435500 0.93696460
vt -7.68529500 0.90330830
vt -7.66372200 0.89678080
vt -7.68529500 0.89678080
vt -7.66372200 0.90330830
vt -7.68529500 0.91308030
vt -7.66372200 0.91308030
vt -7.68529500 0.92460470
vt -7.66372200 0.92460470
vt -7.38151000 0.91805150
vt -7.36483500 0.92495960
vt -7.36180200 0.92042040
vt -7.37456500 0.90765800
vt -7.38394900 0.93031210
vt -7.35726400 0.91738780
vt -7.36590100 0.93031210
vt -7.36417000 0.90071310
vt -7.38151000 0.94257270
vt -7.35191000 0.91632180
vt -7.36483500 0.93566590
vt -7.35191000 0.89827350
vt -7.37456500 0.95296750
vt -7.34655600 0.91738780
vt -7.36180200 0.94020520
vt -7.33965000 0.90071310
vt -7.36417000 0.95991240
vt -7.34201900 0.92042040
vt -7.35726400 0.94323770
vt -7.32925500 0.90765800
vt -7.35191000 0.96235200
vt -7.33898400 0.92495960
vt -7.35191000 0.94430250
vt -7.32231000 0.91805150
vt -7.33965000 0.95991240
vt -7.33792000 0.93031210
vt -7.34655600 0.94323770
vt -7.31987200 0.93031210
vt -7.32925500 0.95296750
vt -7.33898400 0.93566590
vt -7.34201900 0.94020520
vt -7.32231000 0.94257270
vt -7.43282000 0.90766050
vt -7.44321500 0.90071650
vt -7.44926900 0.91533480
vt -7.44400900 0.91884960
vt -7.45547200 0.91410150
vt -7.42587500 0.91805290
vt -7.45547200 0.89827720
vt -7.44049600 0.92410900
vt -7.46167800 0.91533480
vt -7.42343800 0.93031210
vt -7.46773100 0.90071650
vt -7.43926200 0.93031210
vt -7.46693500 0.91884960
vt -7.42587500 0.94257130
vt -7.47812600 0.90766050
vt -7.44049600 0.93651650
vt -7.47045000 0.92410900
vt -7.43282000 0.95296500
vt -7.48507000 0.91805290
vt -7.44400900 0.94177460
vt -7.47168400 0.93031210
vt -7.44321500 0.95990910
vt -7.48750700 0.93031210
vt -7.44926900 0.94528940
vt -7.47045000 0.93651650
vt -7.45547200 0.96234840
vt -7.48507000 0.94257130
vt -7.45547200 0.94652270
vt -7.46693500 0.94177460
vt -7.46773100 0.95990910
vt -7.47812600 0.95296500
vt -7.46167800 0.94528940
vt -7.59434000 0.90878730
vt -7.60179900 0.91624550
vt -7.59828400 0.92150740
vt -7.58853900 0.91747080
vt -7.60302300 0.90298680
vt -7.59705100 0.92771170
vt -7.60705900 0.91273120
vt -7.58650100 0.92771170
vt -7.61326400 0.90094950
vt -7.59828400 0.93391740
vt -7.61326400 0.91149770
vt -7.58853900 0.93795390
vt -7.62350600 0.90298680
vt -7.60179900 0.93917660
vt -7.61946900 0.91273120
vt -7.59434000 0.94663620
vt -7.63218800 0.90878730
vt -7.60705900 0.94269230
vt -7.62472900 0.91624550
vt -7.60302300 0.95243810
vt -7.63798900 0.91747080
vt -7.61326400 0.94392710
vt -7.62824400 0.92150740
vt -7.61326400 0.95447390
vt -7.64002700 0.92771170
vt -7.61946900 0.94269230
vt -7.62947800 0.92771170
vt -7.62350600 0.95243810
vt -7.63798900 0.93795390
vt -7.62472900 0.93917660
vt -7.62824400 0.93391740
vt -7.63218800 0.94663620
f 3/3/3 2/2/2 1/1/1
f 4/4/4 3/3/3 1/1/1
f 7/7/7 6/6/6 5/5/5
f 6/6/6 8/8/8 5/5/5
f 5/5/5 8/8/8 9/9/9
f 8/8/8 10/10/10 9/9/9
f 9/9/9 10/10/10 11/11/11
f 10/10/10 12/12/12 11/11/11
f 11/11/11 12/12/12 13/13/13
f 14/14/14 6/6/6 7/7/7
f 15/15/15 14/14/14 7/7/7
f 18/18/18 17/17/17 16/16/16
f 19/19/19 18/18/18 16/16/16
f 20/20/20 18/18/18 19/19/19
f 21/21/21 20/20/20 19/19/19
f 24/24/24 23/23/23 22/22/22
f 25/25/25 24/24/24 22/22/22
f 26/26/26 24/24/24 25/25/25
f 27/27/27 26/26/26 25/25/25
f 28/28/28 26/26/26 27/27/27
f 29/29/29 28/28/28 27/27/27
f 30/30/30 28/28/28 29/29/29
f 31/31/31 30/30/30 29/29/29
f 32/32/32 30/30/30 31/31/31
f 33/33/33 32/32/32 31/31/31
f 34/34/34 32/32/32 33/33/33
f 35/35/35 34/34/34 33/33/33
f 38/38/38 37/37/37 36/36/36
f 39/39/39 38/38/38 36/36/36
f 40/40/40 38/38/38 39/39/39
f 41/41/41 40/40/40 39/39/39
f 44/44/44 43/43/43 42/42/42
f 13/13/13 44/44/44 42/42/42
f 12/12/12 44/44/44 13/13/13
f 47/47/47 46/46/46 45/45/45
f 48/48/48 47/47/47 45/45/45
f 49/49/49 47/47/47 48/48/48
f 50/50/50 49/49/49 48/48/48
f 51/51/51 49/49/49 50/50/50
f 52/52/52 51/51/51 50/50/50
f 55/55/55 54/54/54 53/53/53
f 54/54/54 56/56/56 53/53/53
f 53/53/53 56/56/56 57/57/57
f 56/56/56 58/58/58 57/57/57
f 61/61/61 60/60/60 59/59/59
f 60/60/60 62/62/62 59/59/59
f 59/59/59 62/62/62 63/63/63
f 62/62/62 64/64/64 63/63/63
f 63/63/63 64/64/64 65/65/65
f 64/64/64 66/66/66 65/65/65
f 65/65/65 66/66/66 67/67/67
f 66/66/66 68/68/68 67/67/67
f 67/67/67 68/68/68 69/69/69
f 68/68/68 70/70/70 69/69/69
f 69/69/69 70/70/70 71/71/71
f 70/70/70 72/72/72 71/71/71
f 75/75/75 74/74/74 73/73/73
f 76/76/76 75/75/75 73/73/73
f 74/74/74 78/78/78 77/77/77
f 73/73/73 74/74/74 77/77/77
f 81/81/81 80/80/80 79/79/79
f 80/80/80 82/82/82 79/79/79
f 79/79/79 82/82/82 83/83/83
f 82/82/82 84/84/84 83/83/83
f 83/83/83 84/84/84 52/52/52
f 84/84/84 51/51/51 52/52/52
f 87/87/87 86/86/86 85/85/85
f 86/86/86 88/88/88 85/85/85
f 85/85/85 88/88/88 89/89/89
f 88/88/88 90/90/90 89/89/89
f 89/89/89 90/90/90 91/91/91
f 90/90/90 92/92/92 91/91/91
f 93/93/93 91/91/91 92/92/92
f 94/94/94 93/93/93 92/92/92
f 95/95/95 93/93/93 94/94/94
f 96/96/96 95/95/95 94/94/94
f 97/97/97 95/95/95 96/96/96
f 98/98/98 97/97/97 96/96/96
f 98/98/98 99/99/99 97/97/97
f 99/99/99 100/100/100 97/97/97
f 101/101/101 100/100/100 99/99/99
f 102/102/102 101/101/101 99/99/99
f 103/103/103 101/101/101 102/102/102
f 104/104/104 103/103/103 102/102/102
f 105/105/105 103/103/103 104/104/104
f 106/106/106 105/105/105 104/104/104
f 106/106/106 107/107/107 105/105/105
f 107/107/107 108/108/108 105/105/105
f 107/107/107 109/109/109 108/108/108
f 109/109/109 110/110/110 108/108/108
f 113/113/113 112/112/112 111/111/111
f 114/114/114 113/113/113 111/111/111
f 114/114/114 115/115/115 113/113/113
f 115/115/115 116/116/116 113/113/113
f 115/115/115 117/117/117 116/116/116
f 117/117/117 118/118/118 116/116/116
f 117/117/117 119/119/119 118/118/118
f 119/119/119 120/120/120 118/118/118
f 123/123/123 122/122/122 121/121/121
f 124/124/124 123/123/123 121/121/121
f 124/124/124 121/121/121 125/125/125
f 124/124/124 126/126/126 123/123/123
f 126/126/126 127/127/127 123/123/123
f 128/128/128 124/124/124 125/125/125
f 124/124/124 128/128/128 126/126/126
f 126/126/126 129/129/129 127/127/127
f 129/129/129 130/130/130 127/127/127
f 131/131/131 128/128/128 125/125/125
f 132/132/132 131/131/131 125/125/125
f 131/131/131 133/133/133 128/128/128
f 128/128/128 134/134/134 126/126/126
f 133/133/133 134/134/134 128/128/128
f 126/126/126 134/134/134 129/129/129
f 133/133/133 135/135/135 134/134/134
f 135/135/135 136/136/136 134/134/134
f 134/134/134 136/136/136 129/129/129
f 135/135/135 137/137/137 136/136/136
f 137/137/137 138/138/138 136/136/136
f 136/136/136 138/138/138 139/139/139
f 129/129/129 136/136/136 139/139/139
f 129/129/129 139/139/139 130/130/130
f 139/139/139 140/140/140 130/130/130
f 143/143/143 142/142/142 141/141/141
f 144/144/144 143/143/143 141/141/141
f 144/144/144 145/145/145 143/143/143
f 145/145/145 146/146/146 143/143/143
f 146/146/146 145/145/145 147/147/147
f 145/145/145 148/148/148 147/147/147
f 147/147/147 148/148/148 149/149/149
f 148/148/148 150/150/150 149/149/149
f 149/149/149 150/150/150 151/151/151
f 150/150/150 152/152/152 151/151/151
f 152/152/152 153/153/153 151/151/151
f 153/153/153 154/154/154 151/151/151
f 154/154/154 153/153/153 155/155/155
f 153/153/153 156/156/156 155/155/155
f 155/155/155 156/156/156 157/157/157
f 156/156/156 158/158/158 157/157/157
f 157/157/157 158/158/158 159/159/159
f 158/158/158 160/160/160 159/159/159
f 160/160/160 161/161/161 159/159/159
f 161/161/161 162/162/162 159/159/159
f 161/161/161 163/163/163 162/162/162
f 163/163/163 164/164/164 162/162/162
f 167/167/167 166/166/166 165/165/165
f 166/166/166 168/168/168 165/165/165
f 166/166/166 169/169/169 168/168/168
f 168/168/168 170/170/170 165/165/165
f 170/170/170 171/171/171 165/165/165
f 171/171/171 170/170/170 172/172/172
f 170/170/170 173/173/173 172/172/172
f 169/169/169 174/174/174 168/168/168
f 168/168/168 174/174/174 170/170/170
f 169/169/169 175/175/175 174/174/174
f 170/170/170 176/176/176 173/173/173
f 174/174/174 176/176/176 170/170/170
f 176/176/176 177/177/177 173/173/173
f 175/175/175 178/178/178 174/174/174
f 174/174/174 178/178/178 176/176/176
f 175/175/175 179/179/179 178/178/178
f 179/179/179 180/180/180 178/178/178
f 178/178/178 181/181/181 176/176/176
f 178/178/178 180/180/180 181/181/181
f 176/176/176 181/181/181 177/177/177
f 180/180/180 182/182/182 181/181/181
f 181/181/181 182/182/182 183/183/183
f 181/181/181 183/183/183 177/177/177
f 182/182/182 184/184/184 183/183/183
f 177/177/177 183/183/183 185/185/185
f 177/177/177 185/185/185 186/186/186
f 189/189/189 188/188/188 187/187/187
f 188/188/188 190/190/190 187/187/187
f 188/188/188 191/191/191 190/190/190
f 191/191/191 192/192/192 190/190/190
f 191/191/191 193/193/193 192/192/192
f 193/193/193 194/194/194 192/192/192
f 193/193/193 195/195/195 194/194/194
f 195/195/195 196/196/196 194/194/194
f 198/198/198 197/197/197 132/132/132
f 197/197/197 131/131/131 132/132/132
f 197/197/197 199/199/199 131/131/131
f 199/199/199 133/133/133 131/131/131
f 199/199/199 200/200/200 133/133/133
f 200/200/200 135/135/135 133/133/133
f 200/200/200 201/201/201 135/135/135
f 201/201/201 137/137/137 135/135/135
f 204/204/204 203/203/203 202/202/202
f 203/203/203 205/205/205 202/202/202
f 203/203/203 206/206/206 205/205/205
f 205/205/205 207/207/207 202/202/202
f 207/207/207 208/208/208 202/202/202
f 206/206/206 209/209/209 205/205/205
f 205/205/205 209/209/209 207/207/207
f 206/206/206 210/210/210 209/209/209
f 207/207/207 211/211/211 208/208/208
f 211/211/211 212/212/212 208/208/208
f 207/207/207 213/213/213 211/211/211
f 209/209/209 213/213/213 207/207/207
f 213/213/213 214/214/214 211/211/211
f 210/210/210 215/215/215 209/209/209
f 209/209/209 215/215/215 213/213/213
f 210/210/210 216/216/216 215/215/215
f 216/216/216 217/217/217 215/215/215
f 213/213/213 218/218/218 214/214/214
f 215/215/215 218/218/218 213/213/213
f 215/215/215 217/217/217 218/218/218
f 218/218/218 219/219/219 214/214/214
f 217/217/217 220/220/220 218/218/218
f 218/218/218 220/220/220 219/219/219
f 220/220/220 221/221/221 219/219/219
f 172/172/172 173/173/173 222/222/222
f 173/173/173 186/186/186 222/222/222
f 173/173/173 177/177/177 186/186/186
f 225/225/225 224/224/224 223/223/223
f 226/226/226 225/225/225 223/223/223
f 229/229/229 228/228/228 227/227/227
f 230/230/230 229/229/229 227/227/227
f 230/230/230 227/227/227 231/231/231
f 229/229/229 230/230/230 232/232/232
f 233/233/233 229/229/229 232/232/232
f 233/233/233 232/232/232 234/234/234
f 232/232/232 235/235/235 234/234/234
f 232/232/232 236/236/236 235/235/235
f 232/232/232 230/230/230 236/236/236
f 236/236/236 237/237/237 235/235/235
f 238/238/238 230/230/230 231/231/231
f 230/230/230 238/238/238 236/236/236
f 238/238/238 231/231/231 239/239/239
f 236/236/236 240/240/240 237/237/237
f 236/236/236 238/238/238 240/240/240
f 240/240/240 241/241/241 237/237/237
f 242/242/242 238/238/238 239/239/239
f 238/238/238 242/242/242 240/240/240
f 242/242/242 239/239/239 243/243/243
f 244/244/244 242/242/242 243/243/243
f 242/242/242 244/244/244 245/245/245
f 240/240/240 242/242/242 245/245/245
f 240/240/240 245/245/245 241/241/241
f 245/245/245 246/246/246 241/241/241
f 249/249/249 248/248/248 247/247/247
f 248/248/248 250/250/250 247/247/247
f 248/248/248 251/251/251 250/250/250
f 247/247/247 250/250/250 252/252/252
f 251/251/251 253/253/253 250/250/250
f 251/251/251 226/226/226 253/253/253
f 226/226/226 223/223/223 253/253/253
f 250/250/250 254/254/254 252/252/252
f 250/250/250 253/253/253 254/254/254
f 253/253/253 223/223/223 255/255/255
f 253/253/253 255/255/255 254/254/254
f 254/254/254 256/256/256 252/252/252
f 256/256/256 257/257/257 252/252/252
f 256/256/256 258/258/258 257/257/257
f 258/258/258 259/259/259 257/257/257
f 260/260/260 258/258/258 256/256/256
f 261/261/261 256/256/256 254/254/254
f 261/261/261 260/260/260 256/256/256
f 255/255/255 261/261/261 254/254/254
f 262/262/262 260/260/260 261/261/261
f 263/263/263 262/262/262 261/261/261
f 263/263/263 261/261/261 255/255/255
f 264/264/264 262/262/262 263/263/263
f 265/265/265 264/264/264 263/263/263
f 223/223/223 266/266/266 255/255/255
f 266/266/266 263/263/263 255/255/255
f 265/265/265 263/263/263 266/266/266
f 223/223/223 224/224/224 266/266/266
f 267/267/267 265/265/265 266/266/266
f 224/224/224 267/267/267 266/266/266
f 141/141/141 142/142/142 268/268/268
f 269/269/269 141/141/141 268/268/268
f 270/270/270 195/195/195 193/193/193
f 271/271/271 270/270/270 193/193/193
f 271/271/271 193/193/193 191/191/191
f 272/272/272 270/270/270 271/271/271
f 273/273/273 271/271/271 191/191/191
f 273/273/273 191/191/191 188/188/188
f 274/274/274 272/272/272 271/271/271
f 274/274/274 271/271/271 273/273/273
f 275/275/275 272/272/272 274/274/274
f 276/276/276 275/275/275 274/274/274
f 276/276/276 274/274/274 277/277/277
f 277/277/277 274/274/274 273/273/273
f 278/278/278 276/276/276 277/277/277
f 279/279/279 273/273/273 188/188/188
f 277/277/277 273/273/273 279/279/279
f 279/279/279 188/188/188 189/189/189
f 280/280/280 279/279/279 189/189/189
f 279/279/279 280/280/280 281/281/281
f 278/278/278 277/277/277 282/282/282
f 282/282/282 277/277/277 279/279/279
f 282/282/282 279/279/279 281/281/281
f 283/283/283 278/278/278 282/282/282
f 282/282/282 281/281/281 284/284/284
f 283/283/283 282/282/282 284/284/284
f 184/184/184 286/286/286 285/285/285
f 183/183/183 184/184/184 285/285/285
f 183/183/183 285/285/285 185/185/185
f 289/289/289 288/288/288 287/287/287
f 290/290/290 289/289/289 287/287/287
f 290/290/290 287/287/287 291/291/291
f 292/292/292 290/290/290 291/291/291
f 295/295/295 294/294/294 293/293/293
f 294/294/294 296/296/296 293/293/293
f 293/293/293 296/296/296 297/297/297
f 296/296/296 298/298/298 297/297/297
f 301/301/301 300/300/300 299/299/299
f 300/300/300 302/302/302 299/299/299
f 299/299/299 302/302/302 303/303/303
f 302/302/302 304/304/304 303/303/303
f 307/307/307 306/306/306 305/305/305
f 306/306/306 308/308/308 305/305/305
f 305/305/305 308/308/308 309/309/309
f 308/308/308 310/310/310 309/309/309
f 309/309/309 310/310/310 311/311/311
f 310/310/310 312/312/312 311/311/311
f 311/311/311 312/312/312 313/313/313
f 312/312/312 314/314/314 313/313/313
f 313/313/313 314/314/314 315/315/315
f 314/314/314 316/316/316 315/315/315
f 316/316/316 318/318/318 317/317/317
f 315/315/315 316/316/316 317/317/317
f 321/321/321 320/320/320 319/319/319
f 320/320/320 322/322/322 319/319/319
f 319/319/319 322/322/322 323/323/323
f 322/322/322 324/324/324 323/323/323
f 327/327/327 326/326/326 325/325/325
f 326/326/326 328/328/328 325/325/325
f 325/325/325 328/328/328 329/329/329
f 328/328/328 330/330/330 329/329/329
f 329/329/329 330/330/330 331/331/331
f 330/330/330 332/332/332 331/331/331
f 331/331/331 332/332/332 295/295/295
f 332/332/332 294/294/294 295/295/295
f 335/335/335 334/334/334 333/333/333
f 336/336/336 335/335/335 333/333/333
f 333/333/333 334/334/334 337/337/337
f 338/338/338 335/335/335 336/336/336
f 334/334/334 339/339/339 337/337/337
f 340/340/340 338/338/338 336/336/336
f 337/337/337 339/339/339 341/341/341
f 342/342/342 338/338/338 340/340/340
f 339/339/339 343/343/343 341/341/341
f 344/344/344 342/342/342 340/340/340
f 341/341/341 343/343/343 345/345/345
f 346/346/346 342/342/342 344/344/344
f 343/343/343 347/347/347 345/345/345
f 348/348/348 346/346/346 344/344/344
f 345/345/345 347/347/347 349/349/349
f 350/350/350 346/346/346 348/348/348
f 347/347/347 351/351/351 349/349/349
f 352/352/352 350/350/350 348/348/348
f 349/349/349 351/351/351 353/353/353
f 354/354/354 350/350/350 352/352/352
f 351/351/351 355/355/355 353/353/353
f 356/356/356 354/354/354 352/352/352
f 353/353/353 355/355/355 357/357/357
f 358/358/358 354/354/354 356/356/356
f 355/355/355 359/359/359 357/357/357
f 360/360/360 358/358/358 356/356/356
f 357/357/357 359/359/359 361/361/361
f 362/362/362 358/358/358 360/360/360
f 359/359/359 363/363/363 361/361/361
f 364/364/364 362/362/362 360/360/360
f 361/361/361 363/363/363 364/364/364
f 363/363/363 362/362/362 364/364/364
f 367/367/367 366/366/366 365/365/365
f 368/368/368 367/367/367 365/365/365
f 367/367/367 369/369/369 366/366/366
f 368/368/368 365/365/365 370/370/370
f 369/369/369 371/371/371 366/366/366
f 372/372/372 368/368/368 370/370/370
f 369/369/369 373/373/373 371/371/371
f 372/372/372 370/370/370 374/374/374
f 373/373/373 375/375/375 371/371/371
f 376/376/376 372/372/372 374/374/374
f 373/373/373 377/377/377 375/375/375
f 376/376/376 374/374/374 378/378/378
f 377/377/377 379/379/379 375/375/375
f 380/380/380 376/376/376 378/378/378
f 377/377/377 381/381/381 379/379/379
f 380/380/380 378/378/378 382/382/382
f 381/381/381 383/383/383 379/379/379
f 384/384/384 380/380/380 382/382/382
f 381/381/381 385/385/385 383/383/383
f 384/384/384 382/382/382 386/386/386
f 385/385/385 387/387/387 383/383/383
f 388/388/388 384/384/384 386/386/386
f 385/385/385 389/389/389 387/387/387
f 388/388/388 386/386/386 390/390/390
f 389/389/389 391/391/391 387/387/387
f 392/392/392 388/388/388 390/390/390
f 389/389/389 393/393/393 391/391/391
f 392/392/392 390/390/390 394/394/394
f 393/393/393 395/395/395 391/391/391
f 396/396/396 392/392/392 394/394/394
f 396/396/396 394/394/394 395/395/395
f 393/393/393 396/396/396 395/395/395
f 399/399/399 398/398/398 397/397/397
f 400/400/400 399/399/399 397/397/397
f 397/397/397 398/398/398 401/401/401
f 402/402/402 399/399/399 400/400/400
f 398/398/398 403/403/403 401/401/401
f 404/404/404 402/402/402 400/400/400
f 401/401/401 403/403/403 405/405/405
f 406/406/406 402/402/402 404/404/404
f 403/403/403 407/407/407 405/405/405
f 408/408/408 406/406/406 404/404/404
f 405/405/405 407/407/407 409/409/409
f 410/410/410 406/406/406 408/408/408
f 407/407/407 411/411/411 409/409/409
f 412/412/412 410/410/410 408/408/408
f 409/409/409 411/411/411 413/413/413
f 414/414/414 410/410/410 412/412/412
f 411/411/411 415/415/415 413/413/413
f 416/416/416 414/414/414 412/412/412
f 413/413/413 415/415/415 417/417/417
f 418/418/418 414/414/414 416/416/416
f 415/415/415 419/419/419 417/417/417
f 420/420/420 418/418/418 416/416/416
f 417/417/417 419/419/419 421/421/421
f 422/422/422 418/418/418 420/420/420
f 419/419/419 423/423/423 421/421/421
f 424/424/424 422/422/422 420/420/420
f 421/421/421 423/423/423 425/425/425
f 426/426/426 422/422/422 424/424/424
f 423/423/423 427/427/427 425/425/425
f 428/428/428 426/426/426 424/424/424
f 425/425/425 427/427/427 428/428/428
f 427/427/427 426/426/426 428/428/428

