mtllib material.mtl
usemtl material_0
v -0.00050003 0.00075760 0.00049988
v -0.00050003 0.00075760 -0.00049988
v 0.00050003 0.00075760 -0.00049988
v 0.00050003 0.00075760 0.00049988
v 0.00453705 0.10426590 0.00453674
v 0.00207550 0.10067810 0.00207520
v 0.00112320 0.10067810 0.00271118
v -0.00121094 0.06168153 0.00448425
v -0.00276855 0.05263374 0.00568176
v -0.00204742 0.06171760 0.00431519
v -0.01278275 -0.00556950 0.01955627
v -0.01291565 -0.00523272 0.02032959
v -0.01076858 -0.00565295 0.02041077
v -0.01234329 -0.00591907 0.01891235
v -0.01166412 -0.00622790 0.01849670
v -0.01084854 -0.00644933 0.01837280
v -0.01002075 -0.00654953 0.01855835
v -0.00930679 -0.00651336 0.01902466
v -0.00881546 -0.00634598 0.01970398
v -0.00862137 -0.00607318 0.02048950
v -0.00875427 -0.00573637 0.02126282
v -0.00919372 -0.00538683 0.02190796
v -0.00987305 -0.00507796 0.02232239
v -0.01068848 -0.00485639 0.02244751
v -0.01151627 -0.00475633 0.02226135
v -0.01223022 -0.00479254 0.02179443
v -0.01272156 -0.00495988 0.02111511
v -0.01223022 -0.00479254 0.02179443
v -0.01076858 -0.00565295 0.02041077
v -0.01291565 -0.00523272 0.02032959
v 0.00453705 0.10426590 -0.00453735
v 0.00592834 0.10426590 -0.00245544
v 0.00661728 0.10647720 -0.00274109
v 0.00506470 0.10647720 -0.00506470
v 0.00245575 0.10426590 -0.00592834
v 0.00274094 0.10647720 -0.00661743
v 0.00274094 0.13271550 -0.00661743
v 0.00506470 0.13271550 -0.00506470
v 0.00661728 0.13271550 -0.00274109
v -0.00274094 0.10647720 -0.00661743
v -0.00453720 0.10426590 -0.00453735
v -0.00245560 0.10426590 -0.00592834
v -0.00506470 0.10647720 -0.00506470
v -0.00506470 0.13271550 -0.00506470
v -0.00274094 0.13271550 -0.00661743
v -0.00661728 0.13271550 -0.00274109
v -0.00592819 0.10426590 -0.00245544
v -0.00207550 0.10067810 -0.00207642
v -0.00661728 0.10647720 -0.00274109
v -0.00716247 0.13271550 0.00000000
v -0.00716247 0.10647720 0.00000000
v -0.00661728 0.13271550 0.00274109
v -0.00661728 0.10647720 0.00274109
v -0.00641663 0.10426590 0.00000000
v -0.00271179 0.10067810 -0.00112366
v -0.00293518 0.10067810 0.00000000
v -0.00218933 0.09846678 0.00000000
v -0.00202271 0.09846678 -0.00083801
v -0.00154800 0.09846678 -0.00154907
v -0.00112305 0.10067810 -0.00271240
v -0.00083786 0.09846678 -0.00202271
v -0.00089096 0.08912414 -0.00192139
v -0.00160111 0.08914737 -0.00144775
v -0.00111176 0.07978120 -0.00150268
v -0.00182114 0.07983389 -0.00103088
v -0.00207550 0.08917366 -0.00073792
v -0.00224197 0.08919898 0.00009888
v -0.00229462 0.07989352 -0.00032227
v -0.00246033 0.07995098 0.00051392
v -0.00268387 0.07063903 0.00041504
v -0.00221176 0.07054613 -0.00029114
v -0.00284820 0.07072853 0.00124817
v -0.00277237 0.06129844 0.00077271
v -0.00324249 0.06142445 0.00147461
v -0.00340500 0.06154586 0.00230408
v -0.00350205 0.05210508 0.00215515
v -0.00396957 0.05226402 0.00285217
v -0.00412949 0.05241714 0.00367737
v -0.00439972 0.04298026 0.00385681
v -0.00486404 0.04317187 0.00454834
v -0.00502090 0.04335647 0.00536743
v -0.00546402 0.03393807 0.00587341
v -0.00592453 0.03416207 0.00655762
v -0.00607773 0.03437786 0.00736999
v -0.00669327 0.02499246 0.00820374
v -0.00714935 0.02524850 0.00887939
v -0.00729828 0.02549516 0.00968384
v -0.00808563 0.01615727 0.01084229
v -0.00853668 0.01644494 0.01150879
v -0.00868088 0.01672208 0.01230347
v -0.00963883 0.00744612 0.01378662
v -0.01008438 0.00776499 0.01444214
v -0.01022308 0.00807219 0.01522705
v -0.01278275 -0.00556950 0.01955627
v -0.01291565 -0.00523272 0.02032959
v -0.01234329 -0.00591907 0.01891235
v -0.01166412 -0.00622790 0.01849670
v -0.00895416 0.00716442 0.01336121
v -0.00274094 0.10647720 0.00661743
v 0.00000000 0.10426590 0.00641601
v -0.00245560 0.10426590 0.00592834
v 0.00000000 0.10647720 0.00716186
v 0.00000000 0.13271550 0.00716186
v -0.00274094 0.13271550 0.00661743
v 0.00274094 0.13271550 0.00661743
v 0.00274094 0.10647720 0.00661743
v 0.00245575 0.10426590 0.00592834
v 0.00000000 0.10067810 0.00293518
v 0.00083786 0.09846678 0.00202209
v 0.00000000 0.09846678 0.00218994
v -0.00112320 0.10067810 0.00271118
v -0.00005249 0.08922728 0.00228882
v 0.00078506 0.08921062 0.00212219
v -0.00027008 0.08001519 0.00270203
v -0.00110764 0.08003226 0.00253418
v 0.00056717 0.07997739 0.00253601
v -0.00149353 0.07085513 0.00326538
v -0.00065643 0.07082854 0.00343445
v 0.00018005 0.07076965 0.00326904
v -0.00037598 0.06160165 0.00432190
v -0.00193268 0.05258825 0.00585205
v -0.00109940 0.05248751 0.00569458
v -0.00365555 0.04361761 0.00736267
v -0.00282059 0.04356276 0.00753479
v -0.00470718 0.03468315 0.00935669
v -0.00198929 0.04344131 0.00738037
v -0.00387329 0.03461901 0.00953125
v -0.00304443 0.03447706 0.00938049
v -0.00508926 0.02577079 0.01183533
v -0.00426300 0.02560851 0.01169128
v -0.00646637 0.01703178 0.01444519
v -0.00564331 0.01684944 0.01430725
v -0.00729752 0.01711412 0.01426575
v -0.00592178 0.02584408 0.01165893
v -0.00800262 0.00841546 0.01735657
v -0.00718323 0.00821335 0.01722534
v -0.01068848 -0.00485639 0.02244751
v -0.00987305 -0.00507796 0.02232239
v 0.00274094 0.10647720 0.00661743
v 0.00453705 0.10426590 0.00453674
v 0.00245575 0.10426590 0.00592834
v 0.00506470 0.10647720 0.00506409
v 0.00506470 0.13271550 0.00506409
v 0.00274094 0.13271550 0.00661743
v 0.00207550 0.10067810 -0.00207642
v 0.00112289 0.10067810 -0.00271240
v 0.00083786 0.09846678 -0.00202271
v 0.00154800 0.09846678 -0.00154907
v 0.00271179 0.10067810 -0.00112366
v 0.00149460 0.08910268 -0.00144775
v 0.00196930 0.08911525 -0.00073730
v 0.00078445 0.08909995 -0.00192139
v 0.00174835 0.07976106 -0.00031738
v 0.00127335 0.07973249 -0.00102783
v 0.00056320 0.07972632 -0.00150085
v 0.00135620 0.07043266 0.00042542
v 0.00088028 0.07038819 -0.00028320
v 0.00079300 0.06114454 0.00149231
v 0.00016983 0.07037858 -0.00075745
v 0.00031631 0.06108419 0.00078613
v -0.00039429 0.06107116 0.00031311
v -0.00041779 0.05183488 0.00217834
v -0.00112885 0.05181843 0.00170532
v -0.00132095 0.04265450 0.00388916
v -0.00084152 0.04274625 0.00458984
v -0.00203232 0.04263467 0.00341675
v -0.00239181 0.03355725 0.00591919
v -0.00310349 0.03353408 0.00544739
v -0.00362854 0.02455719 0.00826233
v -0.00314514 0.02467979 0.00895691
v -0.00434067 0.02453071 0.00779236
v -0.00454346 0.01580595 0.01160706
v -0.00502930 0.01566821 0.01091736
v -0.00574188 0.01563844 0.01044861
v -0.00610352 0.00705671 0.01456421
v -0.00659195 0.00690402 0.01388000
v -0.00881546 -0.00634598 0.01970398
v -0.00730514 0.00687104 0.01341125
v -0.00930679 -0.00651336 0.01902466
v -0.01002075 -0.00654953 0.01855835
v -0.00207550 0.10067810 0.00207520
v -0.00112320 0.10067810 0.00271118
v -0.00083786 0.09846678 0.00202209
v -0.00154800 0.09846678 0.00154785
v -0.00271179 0.10067810 0.00112366
v -0.00453720 0.10426590 0.00453674
v -0.00160049 0.08923208 0.00164673
v -0.00089020 0.08923481 0.00212219
v -0.00181793 0.08002608 0.00205872
v -0.00207504 0.08921949 0.00093750
v -0.00110764 0.08003226 0.00253418
v -0.00220398 0.07084551 0.00279114
v -0.00149353 0.07085513 0.00326538
v -0.00202271 0.09846678 0.00083740
v -0.00267975 0.07080104 0.00208252
v -0.00229294 0.07999754 0.00135010
v -0.00275818 0.06170454 0.00384155
v -0.00204742 0.06171760 0.00431519
v -0.00323486 0.06164422 0.00313538
v -0.00347946 0.05261728 0.00520874
v -0.00276855 0.05263374 0.00568176
v -0.00395737 0.05254120 0.00450501
v -0.00436676 0.04359777 0.00689148
v -0.00365555 0.04361761 0.00736267
v -0.00484634 0.04350606 0.00618958
v -0.00541885 0.03465992 0.00888428
v -0.00470718 0.03468315 0.00935669
v -0.00590012 0.03455272 0.00818726
v -0.00663391 0.02581756 0.01118774
v -0.00592178 0.02584408 0.01165893
v -0.00711731 0.02569503 0.01049438
v -0.00801010 0.01708432 0.01379578
v -0.00729752 0.01711412 0.01426575
v -0.00849594 0.01694665 0.01310608
v -0.00954544 0.00847371 0.01670532
v -0.00883209 0.00850673 0.01717407
v -0.01223022 -0.00479254 0.02179443
v -0.01151627 -0.00475633 0.02226135
v -0.01272156 -0.00495988 0.02111511
v -0.01003387 0.00832110 0.01602173
v -0.00592819 0.10426590 0.00245483
v -0.00506470 0.10647720 0.00506409
v -0.00245560 0.10426590 0.00592834
v -0.00274094 0.10647720 0.00661743
v -0.00274094 0.13271550 0.00661743
v -0.00506470 0.13271550 0.00506409
v 0.00112320 0.10067810 0.00271118
v 0.00207550 0.10067810 0.00207520
v 0.00154800 0.09846678 0.00154785
v 0.00083786 0.09846678 0.00202209
v 0.00078506 0.08921062 0.00212219
v 0.00149536 0.08918738 0.00164795
v 0.00202271 0.09846678 0.00083740
v 0.00056717 0.07997739 0.00253601
v 0.00127655 0.07992469 0.00206299
v 0.00018005 0.07076965 0.00326904
v 0.00088806 0.07068757 0.00279907
v -0.00037598 0.06160165 0.00432190
v 0.00033051 0.06149030 0.00385559
v 0.00136017 0.07059468 0.00209351
v -0.00109940 0.05248751 0.00569458
v -0.00039520 0.05234707 0.00523071
v -0.00198929 0.04344131 0.00738037
v -0.00128799 0.04327200 0.00692383
v 0.00007217 0.05218816 0.00453491
v -0.00304443 0.03447706 0.00938049
v -0.00234650 0.03427911 0.00892944
v -0.00082367 0.04308043 0.00623352
v -0.00426300 0.02560851 0.01169128
v -0.00356903 0.02538229 0.01124695
v -0.00188599 0.03405517 0.00824524
v -0.00564331 0.01684944 0.01430725
v -0.00311295 0.02512632 0.01057129
v -0.00495377 0.01659526 0.01387146
v -0.00718323 0.00821335 0.01722534
v -0.00450272 0.01630766 0.01320557
v -0.00649857 0.00793161 0.01679870
v -0.00987305 -0.00507796 0.02232239
v -0.00605301 0.00761282 0.01614380
v -0.00919372 -0.00538683 0.02190796
v 0.00271179 0.10067810 0.00112366
v 0.00592834 0.10426590 0.00245483
v 0.00661728 0.10647720 0.00274109
v 0.00661728 0.13271550 0.00274109
v 0.00716263 0.13271550 0.00000000
v 0.00641663 0.10426590 0.00000000
v 0.00716263 0.10647720 0.00000000
v 0.00293518 0.10067810 0.00000000
v 0.00218933 0.09846678 0.00000000
v 0.00202271 0.09846678 -0.00083801
v 0.00196976 0.08916111 0.00093750
v 0.00213623 0.08913578 0.00010010
v 0.00175003 0.07986505 0.00135437
v 0.00191574 0.07980759 0.00051758
v 0.00152451 0.07050517 0.00125977
v 0.00080063 0.06136430 0.00315369
v 0.00096329 0.06124289 0.00232300
v 0.00023224 0.05203501 0.00370911
v 0.00006012 0.05191098 0.00288208
v -0.00066696 0.04289578 0.00541321
v -0.00173279 0.03383931 0.00743408
v -0.00191040 0.03366451 0.00661682
v -0.00296402 0.02487959 0.00976746
v -0.00435852 0.01603044 0.01241028
v -0.00591415 0.00730554 0.01535889
v -0.00875427 -0.00573637 0.02126282
v -0.00862137 -0.00607318 0.02048950
v 0.00000000 0.13271550 -0.00716309
v 0.00274094 0.10647720 -0.00661743
v 0.00274094 0.13271550 -0.00661743
v 0.00000000 0.10647720 -0.00716309
v -0.00274094 0.13271550 -0.00661743
v -0.00274094 0.10647720 -0.00661743
v -0.00245560 0.10426590 -0.00592834
v 0.00000000 0.10426590 -0.00641724
v 0.00245575 0.10426590 -0.00592834
v 0.00000000 0.10067810 -0.00293457
v -0.00112305 0.10067810 -0.00271240
v -0.00083786 0.09846678 -0.00202271
v 0.00112289 0.10067810 -0.00271240
v 0.00207550 0.10067810 -0.00207642
v 0.00453705 0.10426590 -0.00453735
v 0.00000000 0.09846678 -0.00218933
v 0.00083786 0.09846678 -0.00202271
v 0.00078445 0.08909995 -0.00192139
v -0.00005325 0.08910748 -0.00208740
v -0.00089096 0.08912414 -0.00192139
v 0.00056320 0.07972632 -0.00150085
v -0.00027451 0.07974342 -0.00166870
v -0.00111176 0.07978120 -0.00150268
v 0.00016983 0.07037858 -0.00075745
v -0.00066727 0.07040521 -0.00092407
v -0.00150360 0.07046404 -0.00075989
v -0.00039429 0.06107116 0.00031311
v -0.00123093 0.06110727 0.00014404
v -0.00206589 0.06118710 0.00030518
v -0.00112885 0.05181843 0.00170532
v -0.00196457 0.05186398 0.00153442
v -0.00279800 0.05196466 0.00169250
v -0.00203232 0.04263467 0.00341675
v -0.00286713 0.04268960 0.00324524
v -0.00369842 0.04281097 0.00339966
v -0.00310349 0.03353408 0.00544739
v -0.00393722 0.03359829 0.00527405
v -0.00476608 0.03374017 0.00542236
v -0.00434067 0.02453071 0.00779236
v -0.00517319 0.02460409 0.00761597
v -0.00599930 0.02476628 0.00776001
v -0.00574188 0.01563844 0.01044861
v -0.00657303 0.01572090 0.01026917
v -0.00739594 0.01590312 0.01040771
v -0.00730514 0.00687104 0.01341125
v -0.00813461 0.00696243 0.01322815
v -0.01002075 -0.00654953 0.01855835
v -0.00895416 0.00716442 0.01336121
v -0.01084854 -0.00644933 0.01837280
v -0.01166412 -0.00622790 0.01849670
v -0.00453720 0.10426590 -0.00453735
v -0.00207550 0.10067810 -0.00207642
v -0.00207550 0.10067810 0.00207520
v -0.00453720 0.10426590 0.00453674
v -0.00083786 0.09846678 0.00202209
v -0.00089020 0.08923481 0.00212219
v -0.01151627 -0.00475633 0.02226135
v -0.00883209 0.00850673 0.01717407
v -0.00160049 0.08923208 0.00164673
v -0.00181793 0.08002608 0.00205872
v -0.00229294 0.07999754 0.00135010
v -0.00207504 0.08921949 0.00093750
v -0.00150360 0.07046404 -0.00075989
v -0.00206589 0.06118710 0.00030518
v -0.00279800 0.05196466 0.00169250
v -0.00369842 0.04281097 0.00339966
v -0.00476608 0.03374017 0.00542236
v -0.00599930 0.02476628 0.00776001
v -0.00739594 0.01590312 0.01040771
vn 0.00000000 1.00000000 0.00000000
vn 0.00000000 1.00000000 0.00000000
vn 0.00000000 1.00000000 0.00000000
vn 0.00000000 1.00000000 0.00000000
vn 0.59264580 -0.54550420 0.59261800
vn 0.54549910 -0.63628110 0.54550640
vn 0.29523150 -0.63632150 0.71269430
vn 0.00646453 0.13102830 0.99135760
vn -0.37394400 0.18620670 0.90856650
vn -0.37726580 0.14764690 0.91425980
vn -0.19195610 -0.91147950 0.36381040
vn -0.19216020 -0.91143560 0.36381260
vn -0.19194900 -0.91147300 0.36383050
vn -0.19205980 -0.91147820 0.36375910
vn -0.19216350 -0.91147670 0.36370770
vn -0.19196410 -0.91150450 0.36374340
vn -0.19176470 -0.91153230 0.36377920
vn -0.19161820 -0.91157700 0.36374410
vn -0.19147170 -0.91162180 0.36370910
vn -0.19158520 -0.91158910 0.36373120
vn -0.19169870 -0.91155640 0.36375330
vn -0.19185600 -0.91145900 0.36391450
vn -0.19201340 -0.91136130 0.36407610
vn -0.19208630 -0.91136260 0.36403430
vn -0.19215910 -0.91136400 0.36399260
vn -0.19226180 -0.91137780 0.36390370
vn -0.19236450 -0.91139160 0.36381490
vn -0.19226180 -0.91137780 0.36390370
vn -0.19194900 -0.91147300 0.36383050
vn -0.19216020 -0.91143560 0.36381260
vn 0.59264970 -0.54548390 -0.59263280
vn 0.77433860 -0.54547890 -0.32070630
vn 0.92360560 -0.02402714 -0.38259030
vn 0.70690940 -0.02402650 -0.70689590
vn 0.32074320 -0.54549020 -0.77431530
vn 0.38262460 -0.02402486 -0.92359140
vn 0.38273940 0.00000000 -0.92385630
vn 0.70710900 0.00000000 -0.70710450
vn 0.92387240 0.00000000 -0.38270070
vn -0.38262480 -0.02402656 -0.92359140
vn -0.59265610 -0.54548860 -0.59262220
vn -0.32072810 -0.54549940 -0.77431510
vn -0.70690910 -0.02402778 -0.70689620
vn -0.70710900 0.00000000 -0.70710450
vn -0.38273940 0.00000000 -0.92385630
vn -0.92388220 0.00000000 -0.38267690
vn -0.77434170 -0.54548330 -0.32069110
vn -0.54546920 -0.63631970 -0.54549120
vn -0.92361560 -0.02402711 -0.38256630
vn -1.00000000 0.00000000 0.00000000
vn -0.99971130 -0.02402312 0.00000000
vn -0.92385730 0.00000000 0.38273690
vn -0.92359020 -0.02403264 0.38262720
vn -0.83812580 -0.54547690 -0.00000056
vn -0.71276870 -0.63627100 -0.29516100
vn -0.77146520 -0.63627150 0.00000011
vn -0.99745410 -0.07130139 -0.00113454
vn -0.92083180 -0.07467050 -0.38274430
vn -0.70392050 -0.07823578 -0.70595690
vn -0.29507470 -0.63633920 -0.71274350
vn -0.37986220 -0.08133832 -0.92146020
vn -0.38085830 -0.02014553 -0.92441390
vn -0.70535270 -0.00938609 -0.70879440
vn -0.38120220 -0.04495072 -0.92339820
vn -0.70538040 -0.02092696 -0.70851990
vn -0.92284290 0.00281452 -0.38516600
vn -0.99989060 0.01456604 -0.00257122
vn -0.92271520 0.00631884 -0.38543060
vn -0.99946310 0.03257858 -0.00347815
vn -0.92257100 0.00982458 -0.38570230
vn -0.70562530 -0.03262180 -0.70783390
vn -0.99869720 0.05078714 -0.00495183
vn -0.70665410 -0.04420843 -0.70617670
vn -0.92237660 0.01331862 -0.38606220
vn -0.99759880 0.06890004 -0.00701727
vn -0.70759900 -0.05571365 -0.70441430
vn -0.92210530 0.01682413 -0.38657290
vn -0.99617490 0.08683695 -0.00974014
vn -0.70875640 -0.06716193 -0.70224910
vn -0.92177810 0.02029044 -0.38718670
vn -0.99442270 0.10465710 -0.01305235
vn -0.71010420 -0.07852001 -0.69970470
vn -0.92134740 0.02374268 -0.38801460
vn -0.99234320 0.12232690 -0.01705771
vn -0.71159330 -0.08976775 -0.69683340
vn -0.92086990 0.02714578 -0.38892370
vn -0.98993740 0.13984140 -0.02164131
vn -0.71342280 -0.10089550 -0.69343210
vn -0.92040400 0.03049486 -0.38977750
vn -0.98719910 0.15722610 -0.02679471
vn -0.71555020 -0.11394230 -0.68920610
vn -0.91958360 0.03424520 -0.39139930
vn -0.98356160 0.17736270 -0.03389894
vn -0.91963140 0.03604413 -0.39112520
vn -0.98208230 0.18503500 -0.03572906
vn -0.71714560 -0.11828640 -0.68681180
vn -0.40518890 -0.25460540 -0.87806490
vn -0.40267320 -0.24464200 -0.88204570
vn -0.38262520 -0.02402525 0.92359130
vn 0.00000039 -0.54551870 0.83809860
vn -0.32072310 -0.54550490 0.77431330
vn 0.00000000 -0.02402499 0.99971130
vn 0.00000000 0.00000000 1.00000000
vn -0.38273940 0.00000000 0.92385630
vn 0.38273940 0.00000000 0.92385630
vn 0.38262490 -0.02402516 0.92359140
vn 0.32073290 -0.54550250 0.77431090
vn 0.00000047 -0.63633890 0.77140970
vn 0.38300200 -0.06968968 0.92111500
vn 0.00085504 -0.06749214 0.99771930
vn -0.29522590 -0.63632580 0.71269290
vn 0.00151797 0.02773680 0.99961410
vn 0.38493100 0.02000221 0.92272860
vn 0.00233836 0.06203675 0.99807110
vn -0.38190450 0.06988556 0.92155580
vn 0.38559390 0.04468900 0.92158570
vn -0.37998160 0.10884490 0.91856780
vn 0.00450274 0.09655569 0.99531750
vn 0.38676750 0.06954779 0.91955100
vn 0.38801060 0.09443043 0.91680460
vn 0.00862871 0.16528040 0.98620890
vn 0.38963530 0.11914800 0.91322950
vn -0.36986110 0.22453540 0.90154680
vn 0.01218885 0.19928930 0.97986500
vn -0.36599610 0.26247740 0.89283390
vn 0.39217070 0.14361150 0.90861320
vn 0.01633785 0.23299890 0.97233980
vn 0.39559450 0.16782720 0.90296120
vn 0.02086138 0.26627370 0.96367170
vn 0.39892790 0.19182030 0.89669480
vn 0.02559876 0.29920520 0.95384530
vn 0.40234560 0.21555860 0.88974860
vn -0.35512850 0.33699360 0.87196270
vn -0.36119840 0.29994050 0.88293340
vn 0.03264188 0.33766100 0.94070160
vn 0.40771340 0.24320160 0.88012650
vn 0.03505776 0.35178320 0.93542480
vn 0.40902460 0.25357990 0.87658200
vn 0.38262490 -0.02402516 0.92359140
vn 0.59264580 -0.54550420 0.59261800
vn 0.32073290 -0.54550250 0.77431090
vn 0.70690930 -0.02403297 0.70689570
vn 0.70710900 0.00000000 0.70710450
vn 0.38273940 0.00000000 0.92385630
vn 0.54546050 -0.63631310 -0.54550780
vn 0.29507970 -0.63633220 -0.71274770
vn 0.38088570 -0.08454493 -0.92074870
vn 0.70414210 -0.08419792 -0.70504930
vn 0.71276040 -0.63627680 -0.29516850
vn 0.70624580 -0.03003118 -0.70732950
vn 0.92310210 -0.02419509 -0.38379330
vn 0.38219730 -0.03129977 -0.92355050
vn 0.92233850 -0.05408064 -0.38257950
vn 0.70547910 -0.06705295 -0.70555160
vn 0.38127210 -0.06985191 -0.92182010
vn 0.92099070 -0.08427543 -0.38036010
vn 0.70399020 -0.10443380 -0.70248940
vn 0.91920220 -0.11428690 -0.37683650
vn 0.37966800 -0.10884080 -0.91869800
vn 0.70148510 -0.14173820 -0.69844750
vn 0.37733890 -0.14770280 -0.91422060
vn 0.69838410 -0.17874130 -0.69304470
vn 0.37440800 -0.18619630 -0.90837750
vn 0.69491800 -0.21544970 -0.68605410
vn 0.91395720 -0.17375280 -0.36673170
vn 0.37069930 -0.22447690 -0.90121700
vn 0.69053430 -0.25195110 -0.67799930
vn 0.36574340 -0.26247710 -0.89293750
vn 0.68574140 -0.28790160 -0.66848450
vn 0.90656520 -0.23213760 -0.35249370
vn 0.36068250 -0.29997750 -0.88313170
vn 0.90203220 -0.26082920 -0.34395640
vn 0.68023830 -0.32345170 -0.65776510
vn 0.35517580 -0.33706900 -0.87191430
vn 0.89582930 -0.29445790 -0.33284290
vn 0.67225800 -0.36515020 -0.64399870
vn 0.89360520 -0.30660380 -0.32781670
vn 0.34722970 -0.38036280 -0.85717890
vn 0.66923070 -0.38039450 -0.63830260
vn 0.34392240 -0.39620380 -0.85131660
vn -0.54548410 -0.63630310 0.54549560
vn -0.29522590 -0.63632580 0.71269290
vn -0.38226170 -0.06644257 0.92166230
vn -0.70594530 -0.06683434 0.70510580
vn -0.71264990 -0.63634960 0.29527850
vn -0.59264550 -0.54550730 0.59261540
vn -0.70759450 0.02993426 0.70598440
vn -0.38274000 0.03122795 0.92332820
vn -0.70671640 0.06701735 0.70431580
vn -0.92435040 0.02408542 0.38078350
vn -0.38190450 0.06988556 0.92155580
vn -0.70521640 0.10440080 0.70126330
vn -0.37998160 0.10884490 0.91856780
vn -0.92199360 -0.06855207 0.38108870
vn -0.92240540 0.08401485 0.37697470
vn -0.92369140 0.05390697 0.37932600
vn -0.70299020 0.14159880 0.69696090
vn -0.37726580 0.14764690 0.91425980
vn -0.92059960 0.11394550 0.37351400
vn -0.69985410 0.17864710 0.69158470
vn -0.37394400 0.18620670 0.90856650
vn -0.91820880 0.14374460 0.36909350
vn -0.69594850 0.21543060 0.68501480
vn -0.36986110 0.22453540 0.90154680
vn -0.91535610 0.17324550 0.36346830
vn -0.69184000 0.25177090 0.67673390
vn -0.36599610 0.26247740 0.89283390
vn -0.91196650 0.20244220 0.35683930
vn -0.68700210 0.28776000 0.66724980
vn -0.36119840 0.29994050 0.88293340
vn -0.90785650 0.23152810 0.34955860
vn -0.68143090 0.32326670 0.65662060
vn -0.35512850 0.33699360 0.87196270
vn -0.90332560 0.26017970 0.34104150
vn -0.67391000 0.36482660 0.64245370
vn -0.34681140 0.38040520 0.85732940
vn -0.67045280 0.38008840 0.63720150
vn -0.34354970 0.39623850 0.85145090
vn -0.89473310 0.30586250 0.32542400
vn -0.89744120 0.29350470 0.32932420
vn -0.77427910 -0.54553930 0.32074730
vn -0.70690890 -0.02403214 0.70689620
vn -0.32072310 -0.54550490 0.77431330
vn -0.38262520 -0.02402525 0.92359130
vn -0.38273940 0.00000000 0.92385630
vn -0.70710900 0.00000000 0.70710450
vn 0.29523150 -0.63632150 0.71269430
vn 0.54549910 -0.63628110 0.54550640
vn 0.70618330 -0.07280210 0.70427630
vn 0.38300200 -0.06968968 0.92111500
vn 0.38493100 0.02000221 0.92272860
vn 0.70908250 0.00921156 0.70506540
vn 0.92168900 -0.07634230 0.38034360
vn 0.38559390 0.04468900 0.92158570
vn 0.70932360 0.02055769 0.70458320
vn 0.38676750 0.06954779 0.91955100
vn 0.70967630 0.03200480 0.70380060
vn 0.38801060 0.09443043 0.91680460
vn 0.71045920 0.04345525 0.70239540
vn 0.92476500 -0.01044962 0.38039510
vn 0.38963530 0.11914800 0.91322950
vn 0.71130080 0.05483961 0.70074510
vn 0.39217070 0.14361150 0.90861320
vn 0.71215400 0.06609632 0.69890490
vn 0.92414850 -0.01781786 0.38161760
vn 0.39559450 0.16782720 0.90296120
vn 0.71389230 0.07717143 0.69599020
vn 0.92378740 -0.02152145 0.38230030
vn 0.39892790 0.19182030 0.89669480
vn 0.71562490 0.08815345 0.69289970
vn 0.92333480 -0.02514654 0.38317190
vn 0.40234560 0.21555860 0.88974860
vn 0.92282560 -0.02873324 0.38414490
vn 0.71717320 0.09905694 0.68981910
vn 0.40771340 0.24320160 0.88012650
vn 0.92228420 -0.03233080 0.38515780
vn 0.71982500 0.11171750 0.68510650
vn 0.40902460 0.25357990 0.87658200
vn 0.92165600 -0.03658095 0.38627980
vn 0.72004460 0.11680110 0.68402730
vn 0.71265640 -0.63633280 0.29529870
vn 0.77428070 -0.54552410 0.32076920
vn 0.92358030 -0.02403268 0.38265120
vn 0.92384750 0.00000000 0.38276070
vn 1.00000000 0.00000000 0.00000000
vn 0.83812370 -0.54548010 0.00000050
vn 0.99971130 -0.02402268 0.00000000
vn 0.77146490 -0.63627180 0.00000117
vn 0.99681200 -0.07977486 -0.00128158
vn 0.92042410 -0.08246968 -0.38212330
vn 0.92491850 -0.00299535 0.38015390
vn 0.99988930 -0.01472077 -0.00220180
vn 0.92491070 -0.00670769 0.38012510
vn 0.99945790 -0.03289242 -0.00141603
vn 0.99868530 -0.05126108 0.00007058
vn 0.92450610 -0.01414080 0.38090490
vn 0.99757780 -0.06952767 0.00212171
vn 0.99613890 -0.08765516 0.00489431
vn 0.91687760 -0.14409150 -0.37225420
vn 0.99436340 -0.10570540 0.00823437
vn 0.99225710 -0.12359980 0.01220074
vn 0.91051080 -0.20315110 -0.36013850
vn 0.98983170 -0.14124620 0.01681603
vn 0.98708190 -0.15869390 0.02203317
vn 0.98340300 -0.17913890 0.02877034
vn 0.92102240 -0.03768977 0.38768180
vn 0.98196290 -0.18629600 0.03229222
vn 0.00000000 0.00000000 -1.00000000
vn 0.38262460 -0.02402486 -0.92359140
vn 0.38273940 0.00000000 -0.92385630
vn 0.00000000 -0.02402589 -0.99971130
vn -0.38273940 0.00000000 -0.92385630
vn -0.38262480 -0.02402656 -0.92359140
vn -0.32072810 -0.54549940 -0.77431510
vn 0.00000014 -0.54550790 -0.83810570
vn 0.32074320 -0.54549020 -0.77431530
vn 0.00000050 -0.63631870 -0.77142630
vn -0.29507470 -0.63633920 -0.71274350
vn -0.37986220 -0.08133832 -0.92146020
vn 0.29507970 -0.63633220 -0.71274770
vn 0.54546050 -0.63631310 -0.54550780
vn 0.59264970 -0.54548390 -0.59263280
vn 0.00084308 -0.08353393 -0.99650470
vn 0.38088570 -0.08454493 -0.92074870
vn 0.38219730 -0.03129977 -0.92355050
vn 0.00111247 -0.02782480 -0.99961230
vn -0.38085830 -0.02014553 -0.92441390
vn 0.38127210 -0.06985191 -0.92182010
vn -0.00002867 -0.06208410 -0.99807100
vn -0.38120220 -0.04495072 -0.92339820
vn 0.37966800 -0.10884080 -0.91869800
vn -0.00196658 -0.09670848 -0.99531080
vn -0.38187700 -0.07001185 -0.92155760
vn 0.37733890 -0.14770280 -0.91422060
vn -0.00351633 -0.13123220 -0.99134540
vn -0.38376220 -0.09492771 -0.91853980
vn 0.37440800 -0.18619630 -0.90837750
vn -0.00565670 -0.16553240 -0.98618810
vn -0.38588170 -0.11974470 -0.91474400
vn 0.37069930 -0.22447690 -0.90121700
vn -0.00916318 -0.19957730 -0.97983930
vn -0.38823050 -0.14440180 -0.91017870
vn 0.36574340 -0.26247710 -0.89293750
vn -0.01306287 -0.23332030 -0.97231220
vn -0.39065050 -0.16886420 -0.90491830
vn 0.36068250 -0.29997750 -0.88313170
vn -0.01772868 -0.26667440 -0.96362360
vn -0.39398260 -0.19301130 -0.89862360
vn 0.35517580 -0.33706900 -0.87191430
vn -0.02316801 -0.29959380 -0.95378550
vn -0.39802760 -0.21678980 -0.89139010
vn 0.34722970 -0.38036280 -0.85717890
vn -0.02968602 -0.33804880 -0.94066030
vn 0.34392240 -0.39620380 -0.85131660
vn -0.40267320 -0.24464200 -0.88204570
vn -0.03254461 -0.35207550 -0.93540560
vn -0.40518890 -0.25460540 -0.87806490
vn -0.59265610 -0.54548860 -0.59262220
vn -0.54546920 -0.63631970 -0.54549120
vn -0.54548410 -0.63630310 0.54549560
vn -0.59264550 -0.54550730 0.59261540
vn -0.38226170 -0.06644257 0.92166230
vn -0.38274000 0.03122795 0.92332820
vn -0.34354970 0.39623850 0.85145090
vn -0.34681140 0.38040520 0.85732940
vn -0.70759450 0.02993426 0.70598440
vn -0.70671640 0.06701735 0.70431580
vn -0.92369140 0.05390697 0.37932600
vn -0.92435040 0.02408542 0.38078350
vn -0.38187700 -0.07001185 -0.92155760
vn -0.38376220 -0.09492771 -0.91853980
vn -0.38588170 -0.11974470 -0.91474400
vn -0.38823050 -0.14440180 -0.91017870
vn -0.39065050 -0.16886420 -0.90491830
vn -0.39398260 -0.19301130 -0.89862360
vn -0.39802760 -0.21678980 -0.89139010
vt 0.20608240 -2.39906600
vt 0.20906220 -2.39906600
vt 0.20906220 -2.40204800
vt 0.20608240 -2.40204800
vt 0.75901450 0.28898150
vt 0.75404520 0.28173930
vt 0.75212310 0.28173930
vt 0.74741130 0.20302260
vt 0.74426720 0.18475920
vt 0.74572310 0.20309550
vt 0.16262110 0.94219710
vt 0.16420350 0.94246910
vt 0.16436720 0.93807660
vt 0.16130360 0.94129830
vt 0.16045330 0.93990820
vt 0.16019830 0.93823890
vt 0.16058000 0.93654690
vt 0.16153430 0.93508560
vt 0.16292300 0.93408010
vt 0.16452960 0.93368410
vt 0.16611340 0.93395470
vt 0.16743090 0.93485490
vt 0.16828120 0.93624350
vt 0.16853610 0.93791140
vt 0.16815580 0.93960620
vt 0.16720010 0.94106610
vt 0.17896640 0.93667500
vt 0.18035450 0.93566980
vt 0.17752280 0.93268160
vt 0.17735910 0.93707220
vt 0.54863470 0.30059680
vt 0.54403000 0.30059680
vt 0.54466280 0.30548660
vt 0.54980010 0.30548660
vt 0.55171070 0.30059680
vt 0.55323330 0.30548660
vt 0.55323330 0.36350680
vt 0.54980010 0.36350680
vt 0.54466280 0.36350680
vt 0.63808550 0.30468070
vt 0.64268540 0.29978940
vt 0.63960860 0.29978940
vt 0.64151970 0.30468070
vt 0.64151970 0.36271840
vt 0.63808550 0.36271840
vt 0.64665870 0.36271840
vt 0.64729150 0.29978940
vt 0.64813080 0.29185320
vt 0.64665870 0.30468070
vt 0.65272160 0.36271840
vt 0.65272160 0.30468070
vt 0.65878460 0.36271840
vt 0.65878460 0.30468070
vt 0.65272160 0.29978940
vt 0.65023600 0.29185320
vt 0.65272160 0.29185320
vt 0.65272160 0.28696200
vt 0.65086900 0.28696200
vt 0.64929660 0.28696200
vt 0.64672330 0.29185320
vt 0.64824790 0.28696200
vt 0.64847120 0.26629650
vt 0.64951990 0.26634790
vt 0.64939670 0.24563040
vt 0.65044240 0.24574690
vt 0.65109070 0.26640610
vt 0.65294180 0.26646210
vt 0.65201010 0.24587890
vt 0.65385970 0.24600590
vt 0.65364100 0.22540840
vt 0.65207940 0.22520290
vt 0.65548440 0.22560630
vt 0.65442940 0.20474740
vt 0.65598330 0.20502620
vt 0.65781900 0.20529470
vt 0.65748940 0.18441220
vt 0.65903090 0.18476370
vt 0.66085580 0.18510240
vt 0.66125150 0.16422850
vt 0.66278080 0.16465230
vt 0.66459340 0.16506070
vt 0.66571610 0.14422760
vt 0.66722680 0.14472310
vt 0.66902390 0.14520040
vt 0.67086890 0.12444040
vt 0.67236260 0.12500670
vt 0.67414130 0.12555230
vt 0.67670540 0.10489740
vt 0.67817920 0.10553370
vt 0.67993630 0.10614670
vt 0.68321800 0.08562871
vt 0.68466720 0.08633403
vt 0.68640420 0.08701354
vt 0.69598000 0.05683881
vt 0.69769090 0.05758373
vt 0.69455550 0.05606556
vt 0.69363610 0.05538246
vt 0.68227550 0.08500560
vt 0.74432300 0.29344520
vt 0.74985590 0.28898150
vt 0.74489890 0.28898150
vt 0.74985590 0.29344520
vt 0.74985590 0.34640850
vt 0.74432300 0.34640850
vt 0.75538840 0.34640850
vt 0.75538840 0.29344520
vt 0.75481250 0.28898150
vt 0.74985590 0.28173930
vt 0.75154720 0.27727570
vt 0.74985590 0.27727570
vt 0.74758870 0.28173930
vt 0.74974980 0.25862530
vt 0.75144080 0.25859170
vt 0.74931060 0.24003010
vt 0.74762000 0.24006460
vt 0.75100050 0.23995380
vt 0.74684110 0.22154010
vt 0.74853060 0.22148640
vt 0.75021880 0.22136750
vt 0.74909700 0.20286140
vt 0.74595460 0.18466740
vt 0.74763650 0.18446400
vt 0.74247680 0.16655970
vt 0.74416210 0.16644900
vt 0.74035400 0.14852500
vt 0.74584040 0.16620380
vt 0.74203720 0.14839550
vt 0.74371030 0.14810900
vt 0.73958280 0.13053490
vt 0.74125060 0.13020730
vt 0.73680300 0.11289470
vt 0.73846450 0.11252670
vt 0.73512540 0.11306090
vt 0.73790230 0.13068280
vt 0.73370210 0.09550223
vt 0.73535620 0.09509427
vt 0.72828060 0.06871228
vt 0.72992660 0.06826502
vt 0.52396840 0.30548660
vt 0.52856850 0.30059680
vt 0.52549100 0.30059680
vt 0.52740310 0.30548660
vt 0.52740310 0.36350680
vt 0.52396840 0.36350680
vt 0.54319100 0.29266310
vt 0.54459810 0.29266310
vt 0.54307390 0.28777330
vt 0.54202550 0.28777330
vt 0.54108640 0.29266310
vt 0.54180230 0.26706660
vt 0.54023190 0.26709450
vt 0.54284910 0.26706060
vt 0.53930370 0.24640970
vt 0.54087390 0.24634650
vt 0.54192080 0.24633290
vt 0.53766100 0.22578200
vt 0.53922670 0.22568370
vt 0.53529940 0.20524330
vt 0.54027510 0.22566240
vt 0.53686200 0.20510990
vt 0.53791040 0.20508110
vt 0.53378600 0.18465710
vt 0.53483130 0.18462070
vt 0.53000030 0.16435670
vt 0.52845000 0.16455960
vt 0.53104410 0.16431280
vt 0.52551260 0.14424010
vt 0.52655480 0.14418890
vt 0.52032900 0.12433840
vt 0.51879410 0.12460950
vt 0.52136970 0.12427990
vt 0.51293460 0.10498700
vt 0.51445880 0.10468240
vt 0.51549800 0.10461660
vt 0.50639470 0.08563995
vt 0.50790810 0.08530232
vt 0.49503000 0.05600284
vt 0.50894420 0.08522937
vt 0.49653100 0.05563271
vt 0.49756250 0.05555274
vt 0.65731230 0.29185320
vt 0.65871990 0.29185320
vt 0.65719530 0.28696200
vt 0.65614660 0.28696200
vt 0.65520560 0.29185320
vt 0.66275770 0.29978940
vt 0.65636680 0.26653530
vt 0.65741550 0.26654130
vt 0.65727690 0.24617210
vt 0.65479590 0.26650740
vt 0.65832570 0.24618570
vt 0.65889700 0.22586510
vt 0.65994570 0.22588630
vt 0.65457420 0.28696200
vt 0.65732930 0.22576670
vt 0.65570920 0.24610890
vt 0.66121920 0.20564570
vt 0.66226640 0.20567460
vt 0.65965770 0.20551230
vt 0.66424380 0.18554510
vt 0.66528940 0.18558150
vt 0.66268690 0.18537680
vt 0.66796440 0.16559440
vt 0.66900860 0.16563830
vt 0.66641360 0.16539150
vt 0.67237340 0.14582430
vt 0.67341750 0.14587570
vt 0.67083190 0.14558720
vt 0.67746930 0.12626540
vt 0.67851030 0.12632410
vt 0.67593540 0.12599440
vt 0.68323800 0.10694800
vt 0.68427750 0.10701390
vt 0.68171340 0.10664340
vt 0.68967520 0.08790168
vt 0.69071010 0.08797473
vt 0.70093100 0.05855739
vt 0.70196430 0.05863748
vt 0.69942950 0.05818723
vt 0.68816140 0.08756413
vt 0.65815160 0.29978940
vt 0.66392340 0.30468070
vt 0.66583620 0.29978940
vt 0.66735920 0.30468070
vt 0.66735920 0.36271840
vt 0.66392340 0.36271840
vt 0.53260520 0.29266310
vt 0.53401230 0.29266310
vt 0.53517780 0.28777330
vt 0.53412930 0.28777330
vt 0.53390910 0.26730530
vt 0.53495760 0.26725400
vt 0.53674950 0.28777330
vt 0.53299470 0.24688810
vt 0.53403850 0.24677150
vt 0.53137210 0.22652720
vt 0.53241120 0.22634570
vt 0.52904280 0.20625410
vt 0.53007580 0.20600790
vt 0.53397230 0.22614030
vt 0.52600980 0.18610020
vt 0.52703360 0.18578970
vt 0.52228110 0.16609650
vt 0.52329110 0.16572210
vt 0.52857470 0.18543830
vt 0.51785810 0.14627400
vt 0.51885570 0.14583630
vt 0.52481820 0.16529850
vt 0.51274990 0.12666320
vt 0.51373060 0.12616300
vt 0.52036750 0.14534110
vt 0.50696440 0.10729440
vt 0.51522550 0.12559690
vt 0.50792660 0.10673240
vt 0.50051080 0.08819762
vt 0.50939990 0.10609640
vt 0.50145290 0.08757461
vt 0.48923830 0.05880678
vt 0.50290320 0.08686967
vt 0.49015740 0.05812378
vt 0.53611840 0.29266310
vt 0.53317330 0.30059680
vt 0.53254050 0.30548660
vt 0.53254050 0.36350680
vt 0.53860160 0.36350680
vt 0.53860160 0.30059680
vt 0.53860160 0.30548660
vt 0.53860160 0.29266310
vt 0.53860160 0.28777330
vt 0.54045360 0.28777330
vt 0.53652790 0.26719590
vt 0.53838000 0.26713990
vt 0.53560570 0.24663970
vt 0.53745470 0.24651260
vt 0.53581510 0.22594230
vt 0.53162760 0.20572930
vt 0.53346270 0.20546080
vt 0.53039900 0.18509960
vt 0.53222800 0.18482530
vt 0.52663030 0.16489020
vt 0.52216410 0.14486380
vt 0.52396990 0.14447730
vt 0.51700210 0.12505130
vt 0.51115800 0.10548340
vt 0.50463820 0.08619020
vt 0.49158150 0.05735087
vt 0.49329340 0.05660607
vt 0.60318360 0.06898642
vt 0.60871550 0.12194460
vt 0.60871550 0.06898642
vt 0.60318360 0.12194460
vt 0.59765120 0.06898642
vt 0.59765120 0.12194460
vt 0.59822700 0.12640790
vt 0.60318360 0.12640790
vt 0.60813970 0.12640790
vt 0.60318360 0.13364940
vt 0.60091660 0.13364940
vt 0.60149240 0.13811250
vt 0.60545020 0.13364940
vt 0.60737250 0.13364940
vt 0.61234130 0.12640790
vt 0.60318360 0.13811250
vt 0.60487470 0.13811250
vt 0.60476690 0.15701820
vt 0.60307610 0.15700300
vt 0.60138520 0.15696930
vt 0.60432000 0.17593750
vt 0.60262950 0.17590300
vt 0.60093950 0.17582670
vt 0.60352610 0.19480460
vt 0.60183670 0.19475080
vt 0.60014860 0.19463210
vt 0.60238750 0.21359030
vt 0.60069910 0.21351740
vt 0.59901360 0.21335630
vt 0.60090500 0.23226560
vt 0.59921840 0.23217370
vt 0.59753600 0.23197050
vt 0.59908140 0.25080170
vt 0.59739660 0.25069080
vt 0.59571870 0.25044590
vt 0.59691950 0.26917000
vt 0.59523670 0.26904040
vt 0.59356380 0.26875400
vt 0.59442240 0.28734200
vt 0.59274210 0.28719390
vt 0.59107480 0.28686660
vt 0.59159440 0.30528980
vt 0.58991660 0.30512340
vt 0.58825560 0.30475560
vt 0.58843900 0.32298560
vt 0.58676470 0.32280110
vt 0.58295800 0.35007310
vt 0.58511080 0.32239340
vt 0.58128720 0.34987090
vt 0.57964100 0.34942390
vt 0.59402580 0.12640790
vt 0.59899430 0.13364940
vt 0.74566620 0.28173930
vt 0.74069720 0.28898150
vt 0.74816450 0.27727570
vt 0.74805880 0.25864040
vt 0.72660970 0.06891426
vt 0.73202760 0.09568647
vt 0.15109470 0.95533490
vt 0.15197660 0.93560360
vt 0.15045750 0.93554240
vt 0.14957270 0.95530800
vt 0.65103990 0.22502130
vt 0.65339770 0.20450110
vt 0.65646530 0.18410160
vt 0.66024140 0.16385410
vt 0.66471810 0.14378990
vt 0.66988640 0.12394010
vt 0.67574290 0.10433520
f 3/3/3 2/2/2 1/1/1
f 4/4/4 3/3/3 1/1/1
f 7/7/7 6/6/6 5/5/5
f 10/10/10 9/9/9 8/8/8
f 13/13/13 12/12/12 11/11/11
f 14/14/14 13/13/13 11/11/11
f 13/13/13 14/14/14 15/15/15
f 16/16/16 13/13/13 15/15/15
f 13/13/13 16/16/16 17/17/17
f 18/18/18 13/13/13 17/17/17
f 13/13/13 18/18/18 19/19/19
f 20/20/20 13/13/13 19/19/19
f 13/13/13 20/20/20 21/21/21
f 22/22/22 13/13/13 21/21/21
f 13/13/13 22/22/22 23/23/23
f 24/24/24 13/13/13 23/23/23
f 13/13/13 24/24/24 25/25/25
f 26/26/26 13/13/13 25/25/25
f 29/29/29 28/28/28 27/27/27
f 30/30/30 29/29/29 27/27/27
f 33/33/33 32/32/32 31/31/31
f 34/34/34 33/33/33 31/31/31
f 31/31/31 35/35/35 34/34/34
f 35/35/35 36/36/36 34/34/34
f 34/34/34 36/36/36 37/37/37
f 38/38/38 34/34/34 37/37/37
f 33/33/33 34/34/34 38/38/38
f 39/39/39 33/33/33 38/38/38
f 42/42/42 41/41/41 40/40/40
f 41/41/41 43/43/43 40/40/40
f 40/40/40 43/43/43 44/44/44
f 45/45/45 40/40/40 44/44/44
f 44/44/44 43/43/43 46/46/46
f 41/41/41 47/47/47 43/43/43
f 41/41/41 48/48/48 47/47/47
f 43/43/43 49/49/49 46/46/46
f 47/47/47 49/49/49 43/43/43
f 46/46/46 49/49/49 50/50/50
f 49/49/49 51/51/51 50/50/50
f 50/50/50 51/51/51 52/52/52
f 51/51/51 53/53/53 52/52/52
f 54/54/54 51/51/51 49/49/49
f 47/47/47 54/54/54 49/49/49
f 47/47/47 55/55/55 54/54/54
f 48/48/48 55/55/55 47/47/47
f 55/55/55 56/56/56 54/54/54
f 57/57/57 56/56/56 55/55/55
f 58/58/58 55/55/55 48/48/48
f 58/58/58 57/57/57 55/55/55
f 59/59/59 58/58/58 48/48/48
f 59/59/59 48/48/48 60/60/60
f 61/61/61 59/59/59 60/60/60
f 61/61/61 62/62/62 59/59/59
f 62/62/62 63/63/63 59/59/59
f 59/59/59 63/63/63 58/58/58
f 62/62/62 64/64/64 63/63/63
f 64/64/64 65/65/65 63/63/63
f 58/58/58 66/66/66 57/57/57
f 63/63/63 66/66/66 58/58/58
f 63/63/63 65/65/65 66/66/66
f 66/66/66 67/67/67 57/57/57
f 65/65/65 68/68/68 66/66/66
f 66/66/66 68/68/68 67/67/67
f 68/68/68 69/69/69 67/67/67
f 68/68/68 70/70/70 69/69/69
f 71/71/71 70/70/70 68/68/68
f 70/70/70 72/72/72 69/69/69
f 71/71/71 73/73/73 70/70/70
f 70/70/70 74/74/74 72/72/72
f 73/73/73 74/74/74 70/70/70
f 74/74/74 75/75/75 72/72/72
f 73/73/73 76/76/76 74/74/74
f 74/74/74 77/77/77 75/75/75
f 76/76/76 77/77/77 74/74/74
f 77/77/77 78/78/78 75/75/75
f 76/76/76 79/79/79 77/77/77
f 77/77/77 80/80/80 78/78/78
f 79/79/79 80/80/80 77/77/77
f 80/80/80 81/81/81 78/78/78
f 79/79/79 82/82/82 80/80/80
f 80/80/80 83/83/83 81/81/81
f 82/82/82 83/83/83 80/80/80
f 83/83/83 84/84/84 81/81/81
f 82/82/82 85/85/85 83/83/83
f 83/83/83 86/86/86 84/84/84
f 85/85/85 86/86/86 83/83/83
f 86/86/86 87/87/87 84/84/84
f 85/85/85 88/88/88 86/86/86
f 86/86/86 89/89/89 87/87/87
f 88/88/88 89/89/89 86/86/86
f 89/89/89 90/90/90 87/87/87
f 88/88/88 91/91/91 89/89/89
f 89/89/89 92/92/92 90/90/90
f 91/91/91 92/92/92 89/89/89
f 92/92/92 93/93/93 90/90/90
f 92/92/92 94/94/94 93/93/93
f 94/94/94 95/95/95 93/93/93
f 96/96/96 94/94/94 92/92/92
f 91/91/91 96/96/96 92/92/92
f 97/97/97 96/96/96 91/91/91
f 98/98/98 97/97/97 91/91/91
f 101/101/101 100/100/100 99/99/99
f 100/100/100 102/102/102 99/99/99
f 99/99/99 102/102/102 103/103/103
f 104/104/104 99/99/99 103/103/103
f 103/103/103 102/102/102 105/105/105
f 102/102/102 106/106/106 105/105/105
f 107/107/107 106/106/106 102/102/102
f 100/100/100 107/107/107 102/102/102
f 100/100/100 108/108/108 107/107/107
f 108/108/108 7/7/7 107/107/107
f 107/107/107 7/7/7 5/5/5
f 109/109/109 7/7/7 108/108/108
f 110/110/110 109/109/109 108/108/108
f 110/110/110 108/108/108 111/111/111
f 110/110/110 112/112/112 109/109/109
f 112/112/112 113/113/113 109/109/109
f 112/112/112 114/114/114 113/113/113
f 115/115/115 114/114/114 112/112/112
f 114/114/114 116/116/116 113/113/113
f 115/115/115 117/117/117 114/114/114
f 114/114/114 118/118/118 116/116/116
f 117/117/117 118/118/118 114/114/114
f 117/117/117 10/10/10 118/118/118
f 118/118/118 119/119/119 116/116/116
f 10/10/10 8/8/8 118/118/118
f 118/118/118 8/8/8 119/119/119
f 8/8/8 120/120/120 119/119/119
f 8/8/8 121/121/121 120/120/120
f 9/9/9 121/121/121 8/8/8
f 121/121/121 122/122/122 120/120/120
f 9/9/9 123/123/123 121/121/121
f 121/121/121 124/124/124 122/122/122
f 123/123/123 124/124/124 121/121/121
f 123/123/123 125/125/125 124/124/124
f 124/124/124 126/126/126 122/122/122
f 125/125/125 127/127/127 124/124/124
f 124/124/124 127/127/127 126/126/126
f 127/127/127 128/128/128 126/126/126
f 127/127/127 129/129/129 128/128/128
f 129/129/129 130/130/130 128/128/128
f 129/129/129 131/131/131 130/130/130
f 131/131/131 132/132/132 130/130/130
f 133/133/133 131/131/131 129/129/129
f 134/134/134 133/133/133 129/129/129
f 131/131/131 135/135/135 132/132/132
f 135/135/135 136/136/136 132/132/132
f 135/135/135 137/137/137 136/136/136
f 137/137/137 138/138/138 136/136/136
f 141/141/141 140/140/140 139/139/139
f 140/140/140 142/142/142 139/139/139
f 139/139/139 142/142/142 143/143/143
f 144/144/144 139/139/139 143/143/143
f 147/147/147 146/146/146 145/145/145
f 148/148/148 147/147/147 145/145/145
f 145/145/145 149/149/149 148/148/148
f 148/148/148 150/150/150 147/147/147
f 151/151/151 150/150/150 148/148/148
f 150/150/150 152/152/152 147/147/147
f 151/151/151 153/153/153 150/150/150
f 150/150/150 154/154/154 152/152/152
f 153/153/153 154/154/154 150/150/150
f 154/154/154 155/155/155 152/152/152
f 153/153/153 156/156/156 154/154/154
f 154/154/154 157/157/157 155/155/155
f 156/156/156 157/157/157 154/154/154
f 156/156/156 158/158/158 157/157/157
f 157/157/157 159/159/159 155/155/155
f 157/157/157 160/160/160 159/159/159
f 160/160/160 161/161/161 159/159/159
f 160/160/160 162/162/162 161/161/161
f 162/162/162 163/163/163 161/161/161
f 162/162/162 164/164/164 163/163/163
f 165/165/165 164/164/164 162/162/162
f 164/164/164 166/166/166 163/163/163
f 164/164/164 167/167/167 166/166/166
f 167/167/167 168/168/168 166/166/166
f 167/167/167 169/169/169 168/168/168
f 170/170/170 169/169/169 167/167/167
f 169/169/169 171/171/171 168/168/168
f 170/170/170 172/172/172 169/169/169
f 169/169/169 173/173/173 171/171/171
f 172/172/172 173/173/173 169/169/169
f 173/173/173 174/174/174 171/171/171
f 172/172/172 175/175/175 173/173/173
f 173/173/173 176/176/176 174/174/174
f 175/175/175 176/176/176 173/173/173
f 175/175/175 177/177/177 176/176/176
f 176/176/176 178/178/178 174/174/174
f 177/177/177 179/179/179 176/176/176
f 176/176/176 179/179/179 178/178/178
f 179/179/179 180/180/180 178/178/178
f 183/183/183 182/182/182 181/181/181
f 184/184/184 183/183/183 181/181/181
f 184/184/184 181/181/181 185/185/185
f 185/185/185 181/181/181 186/186/186
f 184/184/184 187/187/187 183/183/183
f 187/187/187 188/188/188 183/183/183
f 187/187/187 189/189/189 188/188/188
f 190/190/190 187/187/187 184/184/184
f 189/189/189 191/191/191 188/188/188
f 189/189/189 192/192/192 191/191/191
f 192/192/192 193/193/193 191/191/191
f 194/194/194 184/184/184 185/185/185
f 194/194/194 190/190/190 184/184/184
f 195/195/195 192/192/192 189/189/189
f 196/196/196 195/195/195 189/189/189
f 192/192/192 197/197/197 193/193/193
f 197/197/197 198/198/198 193/193/193
f 195/195/195 199/199/199 192/192/192
f 199/199/199 197/197/197 192/192/192
f 197/197/197 200/200/200 198/198/198
f 200/200/200 201/201/201 198/198/198
f 199/199/199 202/202/202 197/197/197
f 202/202/202 200/200/200 197/197/197
f 200/200/200 203/203/203 201/201/201
f 203/203/203 204/204/204 201/201/201
f 202/202/202 205/205/205 200/200/200
f 205/205/205 203/203/203 200/200/200
f 203/203/203 206/206/206 204/204/204
f 206/206/206 207/207/207 204/204/204
f 205/205/205 208/208/208 203/203/203
f 208/208/208 206/206/206 203/203/203
f 206/206/206 209/209/209 207/207/207
f 209/209/209 210/210/210 207/207/207
f 208/208/208 211/211/211 206/206/206
f 211/211/211 209/209/209 206/206/206
f 209/209/209 212/212/212 210/210/210
f 212/212/212 213/213/213 210/210/210
f 211/211/211 214/214/214 209/209/209
f 214/214/214 212/212/212 209/209/209
f 212/212/212 215/215/215 213/213/213
f 215/215/215 216/216/216 213/213/213
f 215/215/215 217/217/217 216/216/216
f 217/217/217 218/218/218 216/216/216
f 219/219/219 217/217/217 215/215/215
f 220/220/220 215/215/215 212/212/212
f 220/220/220 219/219/219 215/215/215
f 214/214/214 220/220/220 212/212/212
f 95/95/95 219/219/219 220/220/220
f 93/93/93 95/95/95 220/220/220
f 93/93/93 220/220/220 214/214/214
f 90/90/90 93/93/93 214/214/214
f 90/90/90 214/214/214 211/211/211
f 87/87/87 90/90/90 211/211/211
f 87/87/87 211/211/211 208/208/208
f 84/84/84 87/87/87 208/208/208
f 84/84/84 208/208/208 205/205/205
f 81/81/81 84/84/84 205/205/205
f 81/81/81 205/205/205 202/202/202
f 78/78/78 81/81/81 202/202/202
f 78/78/78 202/202/202 199/199/199
f 75/75/75 78/78/78 199/199/199
f 75/75/75 199/199/199 195/195/195
f 72/72/72 75/75/75 195/195/195
f 72/72/72 195/195/195 196/196/196
f 69/69/69 72/72/72 196/196/196
f 69/69/69 196/196/196 190/190/190
f 67/67/67 69/69/69 190/190/190
f 67/67/67 190/190/190 194/194/194
f 57/57/57 67/67/67 194/194/194
f 57/57/57 194/194/194 56/56/56
f 194/194/194 185/185/185 56/56/56
f 56/56/56 185/185/185 221/221/221
f 54/54/54 56/56/56 221/221/221
f 54/54/54 221/221/221 51/51/51
f 221/221/221 185/185/185 186/186/186
f 221/221/221 53/53/53 51/51/51
f 221/221/221 186/186/186 53/53/53
f 186/186/186 222/222/222 53/53/53
f 186/186/186 223/223/223 222/222/222
f 223/223/223 224/224/224 222/222/222
f 222/222/222 224/224/224 225/225/225
f 226/226/226 222/222/222 225/225/225
f 53/53/53 222/222/222 226/226/226
f 52/52/52 53/53/53 226/226/226
f 229/229/229 228/228/228 227/227/227
f 230/230/230 229/229/229 227/227/227
f 230/230/230 231/231/231 229/229/229
f 231/231/231 232/232/232 229/229/229
f 229/229/229 232/232/232 233/233/233
f 231/231/231 234/234/234 232/232/232
f 234/234/234 235/235/235 232/232/232
f 234/234/234 236/236/236 235/235/235
f 236/236/236 237/237/237 235/235/235
f 236/236/236 238/238/238 237/237/237
f 238/238/238 239/239/239 237/237/237
f 237/237/237 239/239/239 240/240/240
f 238/238/238 241/241/241 239/239/239
f 241/241/241 242/242/242 239/239/239
f 241/241/241 243/243/243 242/242/242
f 243/243/243 244/244/244 242/242/242
f 242/242/242 244/244/244 245/245/245
f 243/243/243 246/246/246 244/244/244
f 246/246/246 247/247/247 244/244/244
f 244/244/244 247/247/247 248/248/248
f 246/246/246 249/249/249 247/247/247
f 249/249/249 250/250/250 247/247/247
f 247/247/247 250/250/250 251/251/251
f 249/249/249 252/252/252 250/250/250
f 250/250/250 253/253/253 251/251/251
f 252/252/252 254/254/254 250/250/250
f 250/250/250 254/254/254 253/253/253
f 252/252/252 255/255/255 254/254/254
f 254/254/254 256/256/256 253/253/253
f 255/255/255 257/257/257 254/254/254
f 254/254/254 257/257/257 256/256/256
f 255/255/255 258/258/258 257/257/257
f 257/257/257 259/259/259 256/256/256
f 258/258/258 260/260/260 257/257/257
f 257/257/257 260/260/260 259/259/259
f 229/229/229 233/233/233 228/228/228
f 233/233/233 261/261/261 228/228/228
f 228/228/228 261/261/261 262/262/262
f 140/140/140 228/228/228 262/262/262
f 140/140/140 262/262/262 142/142/142
f 262/262/262 263/263/263 142/142/142
f 142/142/142 263/263/263 264/264/264
f 143/143/143 142/142/142 264/264/264
f 264/264/264 263/263/263 265/265/265
f 262/262/262 266/266/266 263/263/263
f 262/262/262 261/261/261 266/266/266
f 263/263/263 267/267/267 265/265/265
f 266/266/266 267/267/267 263/263/263
f 265/265/265 267/267/267 39/39/39
f 267/267/267 33/33/33 39/39/39
f 32/32/32 33/33/33 267/267/267
f 266/266/266 32/32/32 267/267/267
f 261/261/261 268/268/268 266/266/266
f 266/266/266 268/268/268 32/32/32
f 233/233/233 269/269/269 261/261/261
f 269/269/269 268/268/268 261/261/261
f 268/268/268 149/149/149 32/32/32
f 32/32/32 149/149/149 31/31/31
f 149/149/149 145/145/145 31/31/31
f 270/270/270 149/149/149 268/268/268
f 269/269/269 270/270/270 268/268/268
f 149/149/149 270/270/270 148/148/148
f 270/270/270 151/151/151 148/148/148
f 233/233/233 271/271/271 269/269/269
f 232/232/232 271/271/271 233/233/233
f 232/232/232 235/235/235 271/271/271
f 269/269/269 272/272/272 270/270/270
f 272/272/272 151/151/151 270/270/270
f 271/271/271 272/272/272 269/269/269
f 235/235/235 273/273/273 271/271/271
f 271/271/271 273/273/273 272/272/272
f 235/235/235 237/237/237 273/273/273
f 237/237/237 240/240/240 273/273/273
f 272/272/272 274/274/274 151/151/151
f 273/273/273 274/274/274 272/272/272
f 273/273/273 240/240/240 274/274/274
f 274/274/274 153/153/153 151/151/151
f 274/274/274 275/275/275 153/153/153
f 240/240/240 275/275/275 274/274/274
f 275/275/275 156/156/156 153/153/153
f 240/240/240 276/276/276 275/275/275
f 239/239/239 276/276/276 240/240/240
f 239/239/239 242/242/242 276/276/276
f 242/242/242 245/245/245 276/276/276
f 275/275/275 277/277/277 156/156/156
f 276/276/276 277/277/277 275/275/275
f 276/276/276 245/245/245 277/277/277
f 277/277/277 158/158/158 156/156/156
f 245/245/245 278/278/278 277/277/277
f 277/277/277 278/278/278 158/158/158
f 245/245/245 248/248/248 278/278/278
f 244/244/244 248/248/248 245/245/245
f 278/278/278 279/279/279 158/158/158
f 248/248/248 280/280/280 278/278/278
f 278/278/278 280/280/280 279/279/279
f 158/158/158 279/279/279 160/160/160
f 158/158/158 160/160/160 157/157/157
f 279/279/279 162/162/162 160/160/160
f 279/279/279 165/165/165 162/162/162
f 280/280/280 165/165/165 279/279/279
f 248/248/248 251/251/251 280/280/280
f 247/247/247 251/251/251 248/248/248
f 251/251/251 281/281/281 280/280/280
f 280/280/280 281/281/281 165/165/165
f 251/251/251 253/253/253 281/281/281
f 281/281/281 282/282/282 165/165/165
f 165/165/165 282/282/282 164/164/164
f 282/282/282 167/167/167 164/164/164
f 282/282/282 170/170/170 167/167/167
f 253/253/253 283/283/283 281/281/281
f 281/281/281 283/283/283 282/282/282
f 283/283/283 170/170/170 282/282/282
f 253/253/253 256/256/256 283/283/283
f 283/283/283 284/284/284 170/170/170
f 256/256/256 284/284/284 283/283/283
f 284/284/284 172/172/172 170/170/170
f 256/256/256 259/259/259 284/284/284
f 284/284/284 285/285/285 172/172/172
f 259/259/259 285/285/285 284/284/284
f 285/285/285 175/175/175 172/172/172
f 259/259/259 286/286/286 285/285/285
f 260/260/260 286/286/286 259/259/259
f 286/286/286 287/287/287 285/285/285
f 285/285/285 287/287/287 175/175/175
f 287/287/287 177/177/177 175/175/175
f 290/290/290 289/289/289 288/288/288
f 289/289/289 291/291/291 288/288/288
f 288/288/288 291/291/291 292/292/292
f 291/291/291 293/293/293 292/292/292
f 294/294/294 293/293/293 291/291/291
f 295/295/295 291/291/291 289/289/289
f 295/295/295 294/294/294 291/291/291
f 296/296/296 295/295/295 289/289/289
f 295/295/295 297/297/297 294/294/294
f 297/297/297 298/298/298 294/294/294
f 299/299/299 298/298/298 297/297/297
f 296/296/296 300/300/300 295/295/295
f 300/300/300 297/297/297 295/295/295
f 301/301/301 300/300/300 296/296/296
f 302/302/302 301/301/301 296/296/296
f 303/303/303 297/297/297 300/300/300
f 303/303/303 299/299/299 297/297/297
f 304/304/304 303/303/303 300/300/300
f 304/304/304 305/305/305 303/303/303
f 303/303/303 306/306/306 299/299/299
f 305/305/305 306/306/306 303/303/303
f 306/306/306 307/307/307 299/299/299
f 305/305/305 308/308/308 306/306/306
f 306/306/306 309/309/309 307/307/307
f 308/308/308 309/309/309 306/306/306
f 309/309/309 310/310/310 307/307/307
f 308/308/308 311/311/311 309/309/309
f 309/309/309 312/312/312 310/310/310
f 311/311/311 312/312/312 309/309/309
f 312/312/312 313/313/313 310/310/310
f 311/311/311 314/314/314 312/312/312
f 312/312/312 315/315/315 313/313/313
f 314/314/314 315/315/315 312/312/312
f 315/315/315 316/316/316 313/313/313
f 314/314/314 317/317/317 315/315/315
f 315/315/315 318/318/318 316/316/316
f 317/317/317 318/318/318 315/315/315
f 318/318/318 319/319/319 316/316/316
f 317/317/317 320/320/320 318/318/318
f 318/318/318 321/321/321 319/319/319
f 320/320/320 321/321/321 318/318/318
f 321/321/321 322/322/322 319/319/319
f 320/320/320 323/323/323 321/321/321
f 321/321/321 324/324/324 322/322/322
f 323/323/323 324/324/324 321/321/321
f 324/324/324 325/325/325 322/322/322
f 323/323/323 326/326/326 324/324/324
f 324/324/324 327/327/327 325/325/325
f 326/326/326 327/327/327 324/324/324
f 327/327/327 328/328/328 325/325/325
f 326/326/326 329/329/329 327/327/327
f 327/327/327 330/330/330 328/328/328
f 329/329/329 330/330/330 327/327/327
f 330/330/330 331/331/331 328/328/328
f 329/329/329 332/332/332 330/330/330
f 330/330/330 333/333/333 331/331/331
f 332/332/332 333/333/333 330/330/330
f 332/332/332 334/334/334 333/333/333
f 333/333/333 335/335/335 331/331/331
f 334/334/334 336/336/336 333/333/333
f 333/333/333 336/336/336 335/335/335
f 336/336/336 337/337/337 335/335/335
f 298/298/298 339/339/339 338/338/338
f 294/294/294 298/298/298 338/338/338
f 341/341/341 340/340/340 101/101/101
f 340/340/340 111/111/111 101/101/101
f 101/101/101 111/111/111 100/100/100
f 111/111/111 108/108/108 100/100/100
f 342/342/342 110/110/110 111/111/111
f 342/342/342 343/343/343 110/110/110
f 343/343/343 112/112/112 110/110/110
f 343/343/343 115/115/115 112/112/112
f 344/344/344 137/137/137 135/135/135
f 345/345/345 344/344/344 135/135/135
f 345/345/345 135/135/135 131/131/131
f 133/133/133 345/345/345 131/131/131
f 348/348/348 347/347/347 346/346/346
f 349/349/349 348/348/348 346/346/346
f 65/65/65 71/71/71 68/68/68
f 350/350/350 71/71/71 65/65/65
f 64/64/64 350/350/350 65/65/65
f 350/350/350 351/351/351 71/71/71
f 351/351/351 73/73/73 71/71/71
f 351/351/351 352/352/352 73/73/73
f 352/352/352 76/76/76 73/73/73
f 352/352/352 353/353/353 76/76/76
f 353/353/353 79/79/79 76/76/76
f 353/353/353 354/354/354 79/79/79
f 354/354/354 82/82/82 79/79/79
f 354/354/354 355/355/355 82/82/82
f 355/355/355 85/85/85 82/82/82
f 355/355/355 356/356/356 85/85/85
f 356/356/356 88/88/88 85/85/85
f 356/356/356 98/98/98 88/88/88
f 98/98/98 91/91/91 88/88/88
f 134/134/134 129/129/129 127/127/127
f 125/125/125 134/134/134 127/127/127

