mtllib material.mtl
usemtl material_0
v 0.23550050 0.01806208 0.22563720
v 0.23550050 0.01043761 0.22871980
v 0.24692960 0.01806936 0.22871980
v 0.24213050 0.01806207 0.22563720
v -0.23201500 0.01806210 -0.23971620
v -0.23201500 0.01043763 -0.24279910
v -0.24277570 0.01806209 -0.24279910
v -0.23797680 0.01806208 -0.23971620
v -0.24063900 0.59492110 0.22810330
v -0.23201500 0.59031280 0.22853940
v -0.24131760 0.59453030 0.22853940
v 0.24692950 -0.00000002 0.22380070
v 0.24692950 -0.00000002 -0.23840610
v 0.00405922 -0.00000004 -0.23840610
v 0.00371277 -0.00000003 0.22380070
v 0.23550050 0.01043761 0.22871980
v 0.23550050 0.01134270 0.09383240
v -0.23201500 0.01134270 0.09383240
v -0.23201500 0.01043764 0.22871980
v -0.23201500 0.01043763 -0.24279910
v -0.23201500 0.01134270 -0.10734710
v 0.23550050 0.01134270 -0.10734710
v 0.23550050 0.01043759 -0.24279910
v 0.00091026 0.00000002 0.22380070
v 0.00125671 0.00000002 -0.23840610
v -0.24277570 0.00000000 -0.23840610
v -0.24159870 0.00000000 0.22380070
v 0.24692950 0.01806207 0.22380070
v 0.24692950 -0.00000002 -0.23840610
v 0.24692950 -0.00000002 0.22380070
v 0.24692950 0.01806936 -0.23840610
v 0.24692950 0.59358660 0.22380070
v 0.24692960 0.01806936 0.22871980
v 0.24692960 0.59358660 0.22871980
v 0.24664860 0.59453020 0.22853940
v 0.24664860 0.59453020 0.22380070
v 0.24692950 0.59358660 -0.23840610
v 0.24692950 0.01806933 -0.24279910
v 0.24664860 0.59453020 -0.23840610
v 0.24692960 0.59358660 -0.24279910
v 0.24664860 0.59453020 -0.24261870
v -0.24159870 0.00000000 0.22380070
v -0.24277570 0.00000000 -0.23840610
v -0.24277570 0.01806206 -0.23840610
v -0.24159870 0.01806209 0.22380070
v -0.24277570 0.59358660 -0.23840610
v -0.24277570 0.59358670 -0.24279910
v -0.24277570 0.01806209 -0.24279910
v -0.24249470 0.59453030 -0.24261870
v -0.24249470 0.59453020 -0.23840610
v -0.24159870 0.59358660 0.22380070
v -0.24131760 0.59453020 0.22380070
v -0.24159870 0.59358670 0.22871980
v -0.24159870 0.01806211 0.22871980
v -0.24131760 0.59453030 0.22853940
v 0.00371277 0.00667255 0.22380070
v 0.00405930 0.00667254 -0.23840610
v 0.24213050 0.00667255 -0.23840610
v 0.24213050 0.00667255 0.22380070
v 0.23550050 0.01806208 0.22563720
v -0.23201500 0.01806210 0.22563720
v -0.23201500 0.01795637 0.09424102
v 0.23550050 0.01795637 0.09424102
v -0.23201500 0.01806210 -0.23971620
v 0.23550050 0.01806208 -0.23971620
v 0.23550050 0.01795637 -0.10775570
v -0.23201500 0.01795637 -0.10775570
v -0.23679960 0.00667257 0.22380070
v -0.23797680 0.00667257 -0.23840610
v 0.00125671 0.00667258 -0.23840610
v 0.00091026 0.00667258 0.22380070
v 0.24213050 0.00667255 0.22380070
v 0.24213050 0.00667255 -0.23840610
v 0.24213050 0.01806207 -0.23840610
v 0.24213050 0.01806207 0.22380070
v 0.24213050 0.59358660 -0.23840610
v 0.24213050 0.01806207 -0.23971620
v 0.24213050 0.59358660 -0.23971620
v 0.24241160 0.59453020 -0.23989710
v 0.24241160 0.59453020 -0.23840610
v 0.24213050 0.59358660 0.22380070
v 0.24213050 0.01806207 0.22563720
v 0.24241160 0.59453020 0.22380070
v 0.24213050 0.59358660 0.22563720
v 0.24241160 0.59453020 0.22581820
v -0.23679960 0.01806209 0.22380070
v -0.23797680 0.00667257 -0.23840610
v -0.23679960 0.00667257 0.22380070
v -0.23797680 0.01806209 -0.23840610
v -0.23679960 0.59358670 0.22380070
v -0.23679960 0.59358670 0.22563720
v -0.23679960 0.01806210 0.22563720
v -0.23708080 0.59453030 0.22581820
v -0.23708080 0.59453030 0.22380070
v -0.23797680 0.59358670 -0.23840610
v -0.23825790 0.59453030 -0.23840610
v -0.23797680 0.59358670 -0.23971620
v -0.23797680 0.01806208 -0.23971620
v -0.23825790 0.59453030 -0.23989710
v -0.23679960 0.01806209 0.22380070
v -0.24159870 0.01806209 0.22380070
v -0.24159870 0.01806211 0.22871980
v -0.23679960 0.01806210 0.22563720
v 0.24213050 0.00667255 0.22380070
v 0.00371277 -0.00000003 0.22380070
v 0.00371277 0.00667255 0.22380070
v 0.24692950 -0.00000002 0.22380070
v 0.24213050 0.01806207 0.22380070
v 0.24692950 0.01806207 0.22380070
v 0.00371277 -0.00000003 0.22380070
v 0.00405922 -0.00000004 -0.23840610
v 0.00405930 0.00667254 -0.23840610
v 0.00371277 0.00667255 0.22380070
v 0.00405930 0.00667254 -0.23840610
v 0.00405922 -0.00000004 -0.23840610
v 0.24692950 -0.00000002 -0.23840610
v 0.24213050 0.00667255 -0.23840610
v 0.24692950 0.01806936 -0.23840610
v 0.24213050 0.01806207 -0.23840610
v -0.23201500 0.01806210 0.22563720
v -0.23201500 0.01043764 0.22871980
v -0.23201500 0.01134270 0.09383240
v -0.23201500 0.01795637 0.09424102
v -0.23201500 0.01795637 0.09424102
v -0.23201500 0.01134270 0.09383240
v 0.23550050 0.01134270 0.09383240
v 0.23550050 0.01795637 0.09424102
v 0.23550050 0.01795637 0.09424102
v 0.23550050 0.01134270 0.09383240
v 0.23550050 0.01043761 0.22871980
v 0.23550050 0.01806208 0.22563720
v 0.23550050 0.01806208 -0.23971620
v 0.23550050 0.01043759 -0.24279910
v 0.23550050 0.01134270 -0.10734710
v 0.23550050 0.01795637 -0.10775570
v 0.23550050 0.01795637 -0.10775570
v 0.23550050 0.01134270 -0.10734710
v -0.23201500 0.01134270 -0.10734710
v -0.23201500 0.01795637 -0.10775570
v -0.23201500 0.01795637 -0.10775570
v -0.23201500 0.01134270 -0.10734710
v -0.23201500 0.01043763 -0.24279910
v -0.23201500 0.01806210 -0.23971620
v 0.24213050 0.01806207 -0.23971620
v 0.24692950 0.01806933 -0.24279910
v 0.23550050 0.01043759 -0.24279910
v 0.23550050 0.01806208 -0.23971620
v -0.23679960 0.01806210 0.22563720
v -0.24159870 0.01806211 0.22871980
v -0.23201500 0.01043764 0.22871980
v -0.23201500 0.01806210 0.22563720
v -0.23797680 0.01806208 -0.23971620
v -0.24277570 0.01806209 -0.24279910
v -0.24277570 0.01806206 -0.23840610
v -0.23797680 0.01806209 -0.23840610
v 0.24213050 0.01806207 -0.23840610
v 0.24692950 0.01806936 -0.23840610
v 0.24692950 0.01806933 -0.24279910
v 0.24213050 0.01806207 -0.23971620
v 0.24213050 0.01806207 0.22563720
v 0.24692960 0.01806936 0.22871980
v 0.24692950 0.01806207 0.22380070
v 0.24213050 0.01806207 0.22380070
v 0.00091026 0.00667258 0.22380070
v 0.00091026 0.00000002 0.22380070
v -0.24159870 0.00000000 0.22380070
v -0.23679960 0.00667257 0.22380070
v -0.24159870 0.01806209 0.22380070
v -0.23679960 0.01806209 0.22380070
v -0.23797680 0.00667257 -0.23840610
v 0.00125671 0.00000002 -0.23840610
v 0.00125671 0.00667258 -0.23840610
v -0.24277570 0.00000000 -0.23840610
v -0.23797680 0.01806209 -0.23840610
v -0.24277570 0.01806206 -0.23840610
v 0.00091026 0.00667258 0.22380070
v 0.00125671 0.00667258 -0.23840610
v 0.00125671 0.00000002 -0.23840610
v 0.00091026 0.00000002 0.22380070
v 0.23550050 0.01043759 -0.24279910
v 0.24692950 0.01806933 -0.24279910
v 0.24692960 0.59358660 -0.24279910
v 0.23550050 0.58936920 -0.24279910
v 0.24664860 0.59453020 -0.24261870
v 0.23550050 0.59031280 -0.24261900
v -0.23201500 0.58936920 -0.24279910
v -0.23201500 0.01043763 -0.24279910
v -0.24277570 0.01806209 -0.24279910
v -0.23201500 0.59031280 -0.24261870
v -0.24277570 0.59358670 -0.24279910
v -0.24249470 0.59453030 -0.24261870
v -0.23201500 0.01043764 0.22871980
v -0.24159870 0.01806211 0.22871980
v -0.24159870 0.59358670 0.22871980
v -0.23201500 0.58936920 0.22871980
v -0.24131760 0.59453030 0.22853940
v -0.23201500 0.59031280 0.22853940
v 0.23550050 0.58936920 0.22871980
v 0.23550050 0.01043761 0.22871980
v 0.24692960 0.01806936 0.22871980
v 0.23550050 0.59031280 0.22853940
v 0.24692960 0.59358660 0.22871980
v 0.24664860 0.59453020 0.22853940
v 0.23550050 0.01806208 -0.23971620
v 0.24213050 0.59358660 -0.23971620
v 0.24213050 0.01806207 -0.23971620
v 0.23550050 0.58936920 -0.23971620
v 0.23550050 0.59031280 -0.23989710
v 0.24241160 0.59453020 -0.23989710
v -0.23201500 0.59031280 -0.23989710
v -0.23201500 0.58936920 -0.23971620
v -0.23201500 0.01806210 -0.23971620
v -0.23825790 0.59453030 -0.23989710
v -0.23797680 0.01806208 -0.23971620
v -0.23797680 0.59358670 -0.23971620
v -0.23201500 0.01806210 0.22563720
v -0.23679960 0.59358670 0.22563720
v -0.23679960 0.01806210 0.22563720
v -0.23201500 0.58936920 0.22563720
v -0.23201500 0.59031280 0.22581820
v -0.23708080 0.59453030 0.22581820
v 0.23550050 0.59031280 0.22581820
v 0.23550050 0.58936920 0.22563720
v 0.23550050 0.01806208 0.22563720
v 0.24241160 0.59453020 0.22581820
v 0.24213050 0.01806207 0.22563720
v 0.24213050 0.59358660 0.22563720
v 0.24664860 0.59453020 0.22380070
v 0.24664860 0.59453020 0.22853940
v 0.24596980 0.59492100 0.22810330
v 0.24596980 0.59492100 0.22380070
v 0.24664860 0.59453020 -0.23840610
v 0.24596980 0.59492100 -0.23840610
v 0.24664860 0.59453020 -0.24261870
v 0.24596980 0.59492100 -0.24218260
v 0.24309010 0.59492100 0.22380070
v 0.24309010 0.59492100 -0.23840610
v 0.24309010 0.59492100 -0.24033320
v 0.24309010 0.59492100 0.22625400
v 0.23550050 0.59070370 0.22810330
v 0.23550050 0.59070370 -0.24033320
v 0.23550050 0.59070370 -0.24218260
v 0.24241160 0.59453020 -0.23840610
v 0.24241160 0.59453020 -0.23989710
v 0.24241160 0.59453020 0.22380070
v 0.24241160 0.59453020 0.22581820
v 0.23550050 0.59031280 0.22581820
v 0.23550050 0.59070370 0.22625400
v 0.23550050 0.59031280 -0.23989710
v -0.23201500 0.59070370 0.22810330
v 0.23550050 0.59031280 0.22853940
v -0.23201500 0.59070370 0.22625400
v -0.23775940 0.59492110 0.22625370
v -0.23201500 0.59070370 -0.24033320
v -0.23201500 0.59031280 -0.23989710
v -0.23893650 0.59492110 -0.24033320
v -0.24063900 0.59492100 0.22380070
v -0.23775940 0.59492110 0.22380070
v -0.24131760 0.59453020 0.22380070
v -0.23893650 0.59492110 -0.23840610
v -0.24181610 0.59492100 -0.23840610
v -0.24249470 0.59453020 -0.23840610
v -0.24181610 0.59492110 -0.24218260
v -0.24249470 0.59453030 -0.24261870
v -0.23201500 0.59070350 -0.24218260
v -0.23201500 0.59031280 -0.24261870
v 0.23550050 0.59031280 -0.24261900
v -0.23708080 0.59453030 0.22581820
v -0.23201500 0.59031280 0.22581820
v -0.23708080 0.59453030 0.22380070
v -0.23825790 0.59453030 -0.23840610
v -0.23825790 0.59453030 -0.23989710
vn 0.14667050 -0.56481460 -0.81207900
vn 0.14667050 -0.56481450 -0.81207910
vn 0.14667040 -0.56481440 -0.81207910
vn 0.14667050 -0.56481460 -0.81207900
vn -0.18169070 -0.54657890 0.81745950
vn -0.18169070 -0.54657890 0.81745940
vn -0.18169060 -0.54657890 0.81745940
vn -0.18169070 -0.54657890 0.81745940
vn 0.15393110 0.90672100 0.39263520
vn 0.00351537 0.41696570 0.90891550
vn -0.29350580 0.51908800 0.80274650
vn 0.00000000 -1.00000000 0.00000000
vn 0.00000000 -1.00000000 0.00000000
vn 0.00000000 -1.00000000 0.00000000
vn 0.00000000 -1.00000000 0.00000000
vn 0.00000000 -0.96054510 -0.27812430
vn 0.00000000 -0.96054510 -0.27812430
vn 0.00000000 -0.96054510 -0.27812430
vn 0.00000000 -0.96054510 -0.27812430
vn 0.00000000 -0.96054510 0.27812440
vn 0.00000000 -0.96054510 0.27812440
vn 0.00000000 -0.96054510 0.27812440
vn 0.00000000 -0.96054510 0.27812440
vn 0.00000000 -1.00000000 0.00000000
vn 0.00000000 -1.00000000 0.00000000
vn 0.00000000 -1.00000000 0.00000000
vn 0.00000000 -1.00000000 0.00000000
vn 1.00000000 0.00000000 -0.00000015
vn 1.00000000 0.00000000 0.00000000
vn 1.00000000 0.00000000 0.00000000
vn 1.00000000 0.00000000 0.00000000
vn 0.99999990 0.00048737 -0.00000016
vn 1.00000000 0.00000000 -0.00001551
vn 0.99999990 0.00042352 -0.00001550
vn 0.25603940 0.49388520 0.83097610
vn 0.81192950 0.58375560 0.00000000
vn 0.99999990 0.00048737 0.00000000
vn 1.00000000 -0.00000015 0.00000868
vn 0.81192950 0.58375550 0.00000000
vn 1.00000000 0.00042253 0.00000868
vn 0.22041550 0.48035320 -0.84892740
vn -0.99999670 0.00000000 0.00260319
vn -0.99999670 0.00000000 0.00260319
vn -0.99999680 0.00000000 0.00255161
vn -0.99999680 0.00000000 0.00254879
vn -0.99999680 0.00048723 0.00252263
vn -1.00000000 0.00042256 0.00000000
vn -1.00000000 0.00000000 0.00000000
vn -0.23144440 0.48872530 -0.84117840
vn -0.81215550 0.58343740 0.00204965
vn -0.99999680 0.00048768 0.00251979
vn -0.81173110 0.58402770 0.00204612
vn -0.99999990 0.00042350 0.00000000
vn -1.00000000 0.00000000 0.00000000
vn -0.29350580 0.51908800 0.80274650
vn 0.00000000 1.00000000 0.00000000
vn 0.00000000 1.00000000 0.00000000
vn 0.00000000 1.00000000 0.00000000
vn 0.00000000 1.00000000 0.00000000
vn 0.00000000 0.96054510 0.27812440
vn 0.00000000 0.96054510 0.27812440
vn 0.00000000 0.96054510 0.27812440
vn 0.00000000 0.96054510 0.27812440
vn 0.00000000 0.96054510 -0.27812440
vn 0.00000000 0.96054510 -0.27812440
vn 0.00000000 0.96054510 -0.27812440
vn 0.00000000 0.96054510 -0.27812440
vn 0.00000000 1.00000000 0.00000000
vn 0.00000000 1.00000000 0.00000000
vn 0.00000000 1.00000000 0.00000000
vn 0.00000000 1.00000000 0.00000000
vn -1.00000000 0.00000000 0.00000000
vn -1.00000000 0.00000000 0.00000000
vn -1.00000000 0.00000000 0.00000000
vn -1.00000000 0.00000000 0.00000000
vn -0.99999990 0.00048756 0.00000000
vn -1.00000000 0.00000000 0.00000000
vn -0.99999990 0.00058148 0.00000000
vn -0.50874540 0.71869860 0.47397290
vn -0.81180790 0.58392450 0.00000000
vn -0.99999990 0.00048756 0.00000000
vn -1.00000000 0.00000000 0.00000000
vn -0.81180820 0.58392420 0.00000000
vn -0.99999990 0.00057078 0.00000000
vn -0.53450470 0.72080990 -0.44129110
vn 0.99999680 0.00000000 -0.00256514
vn 0.99999670 0.00000000 -0.00260331
vn 0.99999670 0.00000000 -0.00260331
vn 0.99999680 0.00000000 -0.00256803
vn 0.99999670 0.00048761 -0.00253686
vn 0.99999990 0.00057107 0.00000000
vn 1.00000000 0.00000000 0.00000000
vn 0.64360710 0.71016800 -0.28536170
vn 0.81195870 0.58371110 -0.00205889
vn 0.99999670 0.00048805 -0.00253974
vn 0.81153230 0.58430400 -0.00206015
vn 0.99999990 0.00058120 0.00000000
vn 1.00000000 0.00000000 0.00000000
vn 0.54850020 0.72031930 0.42460280
vn 0.00000000 -1.00000000 0.00000000
vn 0.00000000 -1.00000000 0.00000000
vn 0.00000000 -1.00000000 0.00000000
vn 0.00000000 -1.00000000 0.00000000
vn 0.00000019 0.00000000 1.00000000
vn 0.00000019 0.00000000 1.00000000
vn 0.00000019 0.00000000 1.00000000
vn 0.00000019 0.00000000 1.00000000
vn 0.00000000 0.00000000 1.00000000
vn 0.00000000 0.00000000 1.00000000
vn -0.99999980 0.00000000 -0.00076605
vn -0.99999980 0.00000000 -0.00076605
vn -0.99999980 0.00000000 -0.00076605
vn -0.99999980 0.00000000 -0.00076605
vn 0.00000000 -0.00000174 -1.00000000
vn 0.00000000 -0.00000174 -1.00000000
vn 0.00000047 -0.00000167 -1.00000000
vn 0.00000047 -0.00000167 -1.00000000
vn 0.00000883 0.00000000 -1.00000000
vn 0.00000883 0.00000000 -1.00000000
vn -1.00000000 -0.00000090 0.00000000
vn -1.00000000 -0.00000090 0.00000000
vn -1.00000000 -0.00000090 0.00000000
vn -1.00000000 -0.00000090 0.00000000
vn 0.00000000 0.06167023 -0.99809660
vn 0.00000000 0.06167023 -0.99809660
vn 0.00000000 0.06167023 -0.99809660
vn 0.00000000 0.06167023 -0.99809660
vn 0.99999980 0.00013010 0.00068721
vn 0.99999980 0.00013010 0.00068721
vn 0.99999980 0.00013010 0.00068721
vn 0.99999980 0.00013010 0.00068721
vn 0.99999980 0.00012921 -0.00068617
vn 0.99999980 0.00012921 -0.00068617
vn 0.99999980 0.00012921 -0.00068617
vn 0.99999980 0.00012921 -0.00068617
vn 0.00000000 0.06166846 0.99809660
vn 0.00000000 0.06166846 0.99809660
vn 0.00000000 0.06166846 0.99809660
vn 0.00000000 0.06166846 0.99809660
vn -1.00000000 -0.00000049 -0.00000035
vn -1.00000000 -0.00000049 -0.00000035
vn -1.00000000 -0.00000049 -0.00000035
vn -1.00000000 -0.00000049 -0.00000035
vn 0.11575990 -0.57977690 0.80651000
vn 0.11575990 -0.57977690 0.80651000
vn 0.11575990 -0.57977690 0.80651000
vn 0.11575990 -0.57977690 0.80651000
vn -0.14634500 -0.56463280 -0.81226400
vn -0.14634500 -0.56463300 -0.81226400
vn -0.14634500 -0.56463300 -0.81226400
vn -0.14634500 -0.56463280 -0.81226400
vn 0.00000000 -1.00000000 0.00000000
vn 0.00000000 -1.00000000 0.00000000
vn 0.00000000 -1.00000000 0.00000000
vn 0.00000000 -1.00000000 0.00000000
vn 0.00151857 -0.99999890 0.00000020
vn 0.00151857 -0.99999890 0.00000020
vn 0.00151857 -0.99999890 0.00000020
vn 0.00151857 -0.99999890 0.00000020
vn 0.00062005 -0.99999980 0.00043384
vn 0.00062005 -0.99999980 0.00043384
vn 0.00062005 -0.99999980 0.00043384
vn 0.00062005 -0.99999980 0.00043384
vn 0.00000000 -0.00000177 1.00000000
vn 0.00000000 -0.00000177 1.00000000
vn 0.00000000 -0.00000170 1.00000000
vn 0.00000000 -0.00000170 1.00000000
vn -0.00000221 0.00000000 1.00000000
vn -0.00000221 0.00000000 1.00000000
vn 0.00000000 0.00000000 -1.00000000
vn 0.00000000 0.00000000 -1.00000000
vn 0.00000000 0.00000000 -1.00000000
vn 0.00000000 0.00000000 -1.00000000
vn 0.00000441 0.00000000 -1.00000000
vn 0.00000441 0.00000000 -1.00000000
vn 0.99999980 0.00000000 0.00076605
vn 0.99999980 0.00000000 0.00076605
vn 0.99999980 0.00000000 0.00076605
vn 0.99999980 0.00000000 0.00076605
vn 0.00000102 0.00000000 -1.00000000
vn 0.00002082 0.00000000 -1.00000000
vn -0.00013316 0.00041291 -0.99999990
vn -0.00000082 0.00030744 -1.00000000
vn 0.22041550 0.48035320 -0.84892740
vn -0.00352686 0.41695400 -0.90892070
vn 0.00000197 0.00030746 -1.00000000
vn 0.00000030 0.00000000 -1.00000000
vn -0.00002972 0.00000000 -1.00000000
vn 0.00352321 0.41696150 -0.90891730
vn 0.00013924 0.00042488 -0.99999990
vn -0.23144440 0.48872530 -0.84117840
vn 0.00000053 0.00000000 1.00000000
vn 0.00004579 0.00000000 1.00000000
vn 0.00024639 0.00044988 0.99999990
vn 0.00000318 0.00030774 1.00000000
vn -0.29350580 0.51908800 0.80274650
vn 0.00351537 0.41696570 0.90891550
vn -0.00000161 0.00030770 1.00000000
vn 0.00000027 0.00000000 1.00000000
vn 0.00001781 0.00000000 1.00000000
vn -0.00352726 0.41694160 0.90892640
vn -0.00013678 0.00041325 0.99999990
vn 0.25603940 0.49388520 0.83097610
vn 0.00000048 0.00000000 1.00000000
vn -0.00042825 0.00076996 0.99999960
vn 0.00005137 0.00000000 1.00000000
vn -0.00000108 0.00031314 1.00000000
vn -0.00350985 0.41971300 0.90765010
vn -0.50874540 0.71869860 0.47397290
vn 0.00349874 0.41973620 0.90763940
vn 0.00000148 0.00031321 1.00000000
vn -0.00000024 0.00000000 1.00000000
vn 0.54850020 0.72031930 0.42460280
vn 0.00000000 0.00000000 1.00000000
vn 0.00057146 0.00082718 0.99999950
vn 0.00000094 0.00000000 -1.00000000
vn 0.00090540 0.00097494 -0.99999920
vn 0.00007119 0.00000000 -1.00000000
vn 0.00000281 0.00031338 -1.00000000
vn 0.00347739 0.41962130 -0.90769270
vn 0.64360710 0.71016800 -0.28536170
vn -0.00350679 0.41954240 -0.90772890
vn -0.00000257 0.00031314 -1.00000000
vn -0.00000051 0.00000000 -1.00000000
vn -0.53450470 0.72080990 -0.44129110
vn -0.00005137 0.00000000 -1.00000000
vn -0.00053063 0.00076997 -0.99999960
vn 0.81192950 0.58375560 0.00000000
vn 0.25603940 0.49388520 0.83097610
vn -0.13422530 0.90952660 0.39337620
vn 0.10939670 0.99399820 0.00000000
vn 0.81192950 0.58375550 0.00000000
vn 0.10939690 0.99399820 0.00000000
vn 0.22041550 0.48035320 -0.84892740
vn -0.15203560 0.89786490 -0.41318740
vn -0.10893970 0.99404840 0.00000000
vn -0.10893950 0.99404840 0.00000000
vn -0.31160150 0.92623880 -0.21209920
vn -0.29921780 0.93266550 0.20150400
vn -0.00896482 0.98429570 0.17629980
vn -0.00908309 0.98681760 0.16158120
vn -0.00896644 0.98429400 -0.17630930
vn -0.81180790 0.58392450 0.00000000
vn -0.50874540 0.71869860 0.47397290
vn -0.81180820 0.58392420 0.00000000
vn -0.53450470 0.72080990 -0.44129110
vn -0.00350679 0.41954240 -0.90772890
vn -0.00908223 0.98681070 -0.16162380
vn -0.00350985 0.41971300 0.90765010
vn 0.00904999 0.98428490 0.17635540
vn -0.00352726 0.41694160 0.90892640
vn 0.00920143 0.98682980 -0.16149990
vn 0.33479790 0.91375790 0.23012350
vn 0.00912256 0.98682380 0.16154160
vn 0.00349874 0.41973620 0.90763940
vn 0.32507110 0.91901210 -0.22303700
vn -0.10914250 0.99402610 0.00027507
vn 0.10920540 0.99401920 -0.00027693
vn -0.81173110 0.58402770 0.00204612
vn 0.10868040 0.99407670 -0.00027568
vn -0.10966770 0.99396820 0.00027700
vn -0.81215550 0.58343740 0.00204965
vn 0.15930950 0.89647520 -0.41346430
vn -0.23144440 0.48872530 -0.84117840
vn 0.00899271 0.98429030 -0.17632860
vn 0.00352321 0.41696150 -0.90891730
vn -0.00352686 0.41695400 -0.90892070
vn 0.64360710 0.71016800 -0.28536170
vn 0.00347739 0.41962130 -0.90769270
vn 0.81195870 0.58371110 -0.00205889
vn 0.81153230 0.58430400 -0.00206015
vn 0.54850020 0.72031930 0.42460280
vt 0.91320840 0.87248750
vt 0.91983030 0.87248750
vt 0.91983030 0.85671750
vt 0.91320840 0.86333920
vt 0.89795270 0.85701190
vt 0.89131430 0.85701190
vt 0.89131430 0.87189750
vt 0.89795270 0.86525880
vt 0.19038070 -0.30896560
vt 0.20152570 -0.30984260
vt 0.18950370 -0.30984260
vt 0.90613370 0.94449940
vt 0.90613370 0.02702701
vt 0.59649500 0.02702701
vt 0.59605340 0.94449940
vt 0.75744520 0.45800710
vt 0.48969530 0.45800710
vt 0.48969530 1.05405100
vt 0.75744520 1.05405100
vt 0.79336600 1.05271800
vt 1.06223700 1.05271800
vt 1.06223700 0.45667580
vt 0.79336600 0.45667580
vt 0.79232660 0.94824740
vt 0.79276820 0.03077453
vt 0.48164770 0.03077453
vt 0.48314850 0.94824740
vt -0.15947780 0.62252570
vt -0.17604060 -0.29500700
vt -0.17604060 0.62252570
vt -0.15947110 -0.29500700
vt 0.36827610 0.62252570
vt -0.15947110 0.63229060
vt 0.36827610 0.63229060
vt 0.36914130 0.63193230
vt 0.36914130 0.62252570
vt 0.36827610 -0.29500710
vt -0.15947120 -0.30372720
vt 0.36914130 -0.29500710
vt 0.36827610 -0.30372720
vt 0.36914130 -0.30336880
vt 0.02099824 -0.29396270
vt 0.02099824 0.62357070
vt 0.03756109 0.62357070
vt 0.03756109 -0.29396270
vt 0.56531540 0.62357070
vt 0.56531540 0.63229100
vt 0.03756109 0.63229100
vt 0.56618060 0.63193260
vt 0.56618060 0.62357070
vt 0.56531540 -0.29396270
vt 0.56618060 -0.29396270
vt 0.56531540 -0.30372760
vt 0.03756115 -0.30372760
vt 0.56618060 -0.30336920
vt 0.37240250 0.03077468
vt 0.37284420 0.94824730
vt 0.67636450 0.94824730
vt 0.67636450 0.03077468
vt 0.59135510 0.45800790
vt 0.59135510 1.05405000
vt 0.85217470 1.05405000
vt 0.85217470 0.45800790
vt 0.95037720 1.05271800
vt 0.95037720 0.45667660
vt 0.68843670 0.45667660
vt 0.68843670 1.05271800
vt 0.26162010 0.03102309
vt 0.26011940 0.94849620
vt 0.56512140 0.94849620
vt 0.56467990 0.03102314
vt 0.44397010 -0.29596070
vt 0.44397010 0.62157240
vt 0.45441430 0.62157240
vt 0.45441430 -0.29596070
vt 0.98216840 0.62157240
vt 0.45441430 0.62417390
vt 0.98216840 0.62417390
vt 0.98303370 0.62453240
vt 0.98303370 0.62157240
vt 0.98216840 -0.29596070
vt 0.45441430 -0.29960690
vt 0.98303370 -0.29596070
vt 0.98216840 -0.29960690
vt 0.98303370 -0.29996530
vt 0.64542290 0.94521570
vt 0.63497890 0.02768192
vt 0.63497890 0.94521570
vt 0.64542290 0.02768192
vt 1.17317800 0.94521570
vt 1.17317800 0.94886190
vt 0.64542290 0.94886190
vt 1.17404300 0.94922030
vt 1.17404300 0.94521570
vt 1.17317800 0.02768192
vt 1.17404300 0.02768192
vt 1.17317800 0.02508035
vt 0.64542290 0.02508035
vt 1.17404300 0.02472201
vt 0.88137040 0.86418440
vt 0.88137040 0.87086790
vt 0.89203660 0.87086790
vt 0.88535310 0.86418440
vt 0.98109190 0.76692770
vt 0.97497300 1.07091100
vt 0.98109190 1.07091100
vt 0.97497300 0.76080880
vt 0.99153600 0.76692770
vt 0.99153600 0.76080880
vt 0.34946070 0.03102151
vt 0.34946060 0.94849780
vt 0.35557900 0.94849780
vt 0.35557900 0.03102151
vt 0.97353880 1.07059600
vt 0.97965670 1.07059600
vt 0.97965670 0.76097110
vt 0.97353880 0.76708900
vt 0.96308870 0.76097110
vt 0.96309560 0.76708900
vt 0.93564380 0.78077390
vt 0.92865340 0.77465630
vt 0.92948310 1.04237900
vt 0.93554710 1.04156800
vt 0.98051620 1.05404500
vt 0.98660750 1.05404500
vt 0.98660750 0.45534920
vt 0.98051620 0.45534920
vt 0.92698660 0.77545770
vt 0.92092240 0.77464660
vt 0.92009250 1.04238800
vt 0.92708360 1.03627000
vt 0.95276530 0.78040270
vt 0.94577460 0.77428470
vt 0.94660450 1.04313900
vt 0.95266840 1.04232800
vt 0.87551730 0.45534930
vt 0.86942600 0.45534930
vt 0.86942600 1.05404500
vt 0.87551730 1.05404500
vt 0.94410810 0.77508620
vt 0.93804340 0.77427540
vt 0.93721370 1.04314800
vt 0.94420480 1.03703000
vt 0.90712160 0.86333050
vt 0.90045340 0.85666190
vt 0.90045340 0.87254290
vt 0.90712160 0.87254290
vt 0.88535310 0.86418440
vt 0.89203660 0.87086790
vt 0.89203660 0.85752070
vt 0.88535310 0.85752070
vt 0.89795270 0.86525880
vt 0.89131430 0.87189750
vt 0.90077540 0.87189750
vt 0.90077540 0.86525880
vt 0.90995680 0.86333050
vt 0.90995680 0.85666190
vt 0.90045340 0.85666190
vt 0.90712160 0.86333050
vt 0.91320840 0.86333920
vt 0.91983030 0.85671750
vt 0.90926270 0.85671750
vt 0.90926270 0.86333920
vt 0.95732790 0.76110670
vt 0.95120940 0.76110670
vt 0.95120940 1.07030000
vt 0.95732790 1.06418200
vt 0.96777190 1.07030000
vt 0.96777190 1.06418200
vt 0.99729780 0.85470670
vt 1.00341500 0.54972770
vt 0.99729780 0.54972790
vt 1.00341500 0.86082450
vt 0.98685510 0.85470670
vt 0.98685510 0.86082450
vt 0.34732110 0.94849610
vt 0.34732110 0.03102317
vt 0.34120290 0.03102317
vt 0.34120290 0.94849610
vt 0.51197300 0.14129820
vt 0.50497470 0.12672610
vt -0.02277336 0.12672590
vt -0.01890603 0.14129820
vt -0.02363858 0.12708430
vt -0.01977128 0.14129820
vt -0.01890600 0.73738010
vt 0.51197300 0.73738010
vt 0.50498140 0.75110000
vt -0.01977122 0.73738010
vt -0.02277344 0.75110000
vt -0.02363864 0.75074170
vt -0.17291560 0.95844860
vt -0.16592400 0.97066780
vt 0.36183100 0.97066780
vt 0.35796350 0.95844860
vt 0.36269620 0.97030960
vt 0.35882880 0.95844860
vt 0.35796350 0.36236660
vt -0.17291560 0.36236660
vt -0.16591730 0.34779440
vt 0.35882880 0.36236660
vt 0.36183090 0.34779440
vt 0.36269610 0.34815270
vt 0.02250826 0.46157100
vt 0.55026410 0.45311780
vt 0.02250826 0.45311780
vt 0.54639670 0.46157100
vt 0.54726200 0.46157100
vt 0.55112930 0.45275940
vt 0.54726200 1.05765400
vt 0.54639670 1.05765400
vt 0.02250832 1.05765400
vt 0.55112930 1.06561400
vt 0.02250826 1.06525500
vt 0.55026410 1.06525500
vt 0.74212650 1.05814400
vt 0.21437080 1.06424500
vt 0.74212650 1.06424500
vt 0.21823820 1.05814400
vt 0.21737300 1.05814400
vt 0.21350560 1.06460300
vt 0.21737300 0.46206120
vt 0.21823820 0.46206120
vt 0.74212660 0.46206120
vt 0.21350560 0.45324950
vt 0.74212660 0.45360790
vt 0.21437080 0.45360790
vt 0.82010640 -0.30030830
vt 0.82010640 -0.30984260
vt 0.81922940 -0.30896560
vt 0.81922940 -0.30030830
vt 0.82010640 0.62968190
vt 0.81922940 0.62968190
vt 0.82010640 0.63815720
vt 0.81922940 0.63728020
vt 0.81550790 -0.30030830
vt 0.81550790 0.62968190
vt 0.81550790 0.63355900
vt 0.81550790 -0.30524430
vt 0.80569970 -0.30896560
vt 0.80569970 0.63355900
vt 0.80569970 0.63728030
vt 0.81463100 0.62968190
vt 0.81463100 0.63268200
vt 0.81463100 -0.30030830
vt 0.81463100 -0.30436730
vt 0.80569970 -0.30436730
vt 0.80569970 -0.30524430
vt 0.80569970 0.63268200
vt 0.20152570 -0.30896560
vt 0.80569970 -0.30984260
vt 0.20152570 -0.30524430
vt 0.19410220 -0.30524420
vt 0.20152570 0.63355900
vt 0.20152570 0.63268200
vt 0.19258090 0.63355900
vt 0.19038070 -0.30030840
vt 0.19410220 -0.30030840
vt 0.18950370 -0.30030840
vt 0.19258090 0.62968190
vt 0.18885960 0.62968190
vt 0.18798260 0.62968190
vt 0.18885960 0.63728020
vt 0.18798260 0.63815720
vt 0.20152570 0.63728020
vt 0.20152570 0.63815720
vt 0.80569970 0.63815740
vt 0.19497910 -0.30436720
vt 0.20152570 -0.30436730
vt 0.19497910 -0.30030840
vt 0.19345790 0.62968190
vt 0.19345790 0.63268200
f 3/3/3 2/2/2 1/1/1
f 4/4/4 3/3/3 1/1/1
f 7/7/7 6/6/6 5/5/5
f 8/8/8 7/7/7 5/5/5
f 11/11/11 10/10/10 9/9/9
f 14/14/14 13/13/13 12/12/12
f 15/15/15 14/14/14 12/12/12
f 18/18/18 17/17/17 16/16/16
f 19/19/19 18/18/18 16/16/16
f 22/22/22 21/21/21 20/20/20
f 23/23/23 22/22/22 20/20/20
f 26/26/26 25/25/25 24/24/24
f 27/27/27 26/26/26 24/24/24
f 30/30/30 29/29/29 28/28/28
f 29/29/29 31/31/31 28/28/28
f 28/28/28 31/31/31 32/32/32
f 28/28/28 32/32/32 33/33/33
f 32/32/32 34/34/34 33/33/33
f 35/35/35 34/34/34 32/32/32
f 36/36/36 35/35/35 32/32/32
f 31/31/31 37/37/37 32/32/32
f 36/36/36 32/32/32 37/37/37
f 31/31/31 38/38/38 37/37/37
f 39/39/39 36/36/36 37/37/37
f 38/38/38 40/40/40 37/37/37
f 37/37/37 40/40/40 39/39/39
f 40/40/40 41/41/41 39/39/39
f 44/44/44 43/43/43 42/42/42
f 45/45/45 44/44/44 42/42/42
f 46/46/46 44/44/44 45/45/45
f 46/46/46 47/47/47 44/44/44
f 47/47/47 48/48/48 44/44/44
f 47/47/47 46/46/46 49/49/49
f 46/46/46 50/50/50 49/49/49
f 50/50/50 46/46/46 51/51/51
f 51/51/51 46/46/46 45/45/45
f 52/52/52 50/50/50 51/51/51
f 51/51/51 45/45/45 53/53/53
f 52/52/52 51/51/51 53/53/53
f 45/45/45 54/54/54 53/53/53
f 55/55/55 52/52/52 53/53/53
f 58/58/58 57/57/57 56/56/56
f 59/59/59 58/58/58 56/56/56
f 62/62/62 61/61/61 60/60/60
f 63/63/63 62/62/62 60/60/60
f 66/66/66 65/65/65 64/64/64
f 67/67/67 66/66/66 64/64/64
f 70/70/70 69/69/69 68/68/68
f 71/71/71 70/70/70 68/68/68
f 74/74/74 73/73/73 72/72/72
f 75/75/75 74/74/74 72/72/72
f 76/76/76 74/74/74 75/75/75
f 77/77/77 74/74/74 76/76/76
f 78/78/78 77/77/77 76/76/76
f 79/79/79 78/78/78 76/76/76
f 80/80/80 79/79/79 76/76/76
f 81/81/81 76/76/76 75/75/75
f 76/76/76 81/81/81 80/80/80
f 81/81/81 75/75/75 82/82/82
f 81/81/81 83/83/83 80/80/80
f 84/84/84 81/81/81 82/82/82
f 81/81/81 84/84/84 83/83/83
f 84/84/84 85/85/85 83/83/83
f 88/88/88 87/87/87 86/86/86
f 87/87/87 89/89/89 86/86/86
f 86/86/86 89/89/89 90/90/90
f 86/86/86 90/90/90 91/91/91
f 92/92/92 86/86/86 91/91/91
f 91/91/91 90/90/90 93/93/93
f 90/90/90 94/94/94 93/93/93
f 90/90/90 95/95/95 94/94/94
f 89/89/89 95/95/95 90/90/90
f 95/95/95 96/96/96 94/94/94
f 97/97/97 95/95/95 89/89/89
f 96/96/96 95/95/95 97/97/97
f 98/98/98 97/97/97 89/89/89
f 99/99/99 96/96/96 97/97/97
f 102/102/102 101/101/101 100/100/100
f 103/103/103 102/102/102 100/100/100
f 106/106/106 105/105/105 104/104/104
f 105/105/105 107/107/107 104/104/104
f 104/104/104 107/107/107 108/108/108
f 107/107/107 109/109/109 108/108/108
f 112/112/112 111/111/111 110/110/110
f 113/113/113 112/112/112 110/110/110
f 116/116/116 115/115/115 114/114/114
f 117/117/117 116/116/116 114/114/114
f 118/118/118 116/116/116 117/117/117
f 119/119/119 118/118/118 117/117/117
f 122/122/122 121/121/121 120/120/120
f 123/123/123 122/122/122 120/120/120
f 126/126/126 125/125/125 124/124/124
f 127/127/127 126/126/126 124/124/124
f 130/130/130 129/129/129 128/128/128
f 131/131/131 130/130/130 128/128/128
f 134/134/134 133/133/133 132/132/132
f 135/135/135 134/134/134 132/132/132
f 138/138/138 137/137/137 136/136/136
f 139/139/139 138/138/138 136/136/136
f 142/142/142 141/141/141 140/140/140
f 143/143/143 142/142/142 140/140/140
f 146/146/146 145/145/145 144/144/144
f 147/147/147 146/146/146 144/144/144
f 150/150/150 149/149/149 148/148/148
f 151/151/151 150/150/150 148/148/148
f 154/154/154 153/153/153 152/152/152
f 155/155/155 154/154/154 152/152/152
f 158/158/158 157/157/157 156/156/156
f 159/159/159 158/158/158 156/156/156
f 162/162/162 161/161/161 160/160/160
f 163/163/163 162/162/162 160/160/160
f 166/166/166 165/165/165 164/164/164
f 167/167/167 166/166/166 164/164/164
f 168/168/168 166/166/166 167/167/167
f 169/169/169 168/168/168 167/167/167
f 172/172/172 171/171/171 170/170/170
f 171/171/171 173/173/173 170/170/170
f 170/170/170 173/173/173 174/174/174
f 173/173/173 175/175/175 174/174/174
f 178/178/178 177/177/177 176/176/176
f 179/179/179 178/178/178 176/176/176
f 182/182/182 181/181/181 180/180/180
f 183/183/183 182/182/182 180/180/180
f 184/184/184 182/182/182 183/183/183
f 185/185/185 184/184/184 183/183/183
f 186/186/186 183/183/183 180/180/180
f 185/185/185 183/183/183 186/186/186
f 187/187/187 186/186/186 180/180/180
f 187/187/187 188/188/188 186/186/186
f 189/189/189 185/185/185 186/186/186
f 188/188/188 190/190/190 186/186/186
f 186/186/186 190/190/190 189/189/189
f 190/190/190 191/191/191 189/189/189
f 194/194/194 193/193/193 192/192/192
f 195/195/195 194/194/194 192/192/192
f 194/194/194 195/195/195 196/196/196
f 195/195/195 197/197/197 196/196/196
f 198/198/198 195/195/195 192/192/192
f 197/197/197 195/195/195 198/198/198
f 199/199/199 198/198/198 192/192/192
f 199/199/199 200/200/200 198/198/198
f 201/201/201 197/197/197 198/198/198
f 200/200/200 202/202/202 198/198/198
f 198/198/198 202/202/202 201/201/201
f 202/202/202 203/203/203 201/201/201
f 206/206/206 205/205/205 204/204/204
f 205/205/205 207/207/207 204/204/204
f 207/207/207 205/205/205 208/208/208
f 205/205/205 209/209/209 208/208/208
f 208/208/208 210/210/210 207/207/207
f 207/207/207 211/211/211 204/204/204
f 210/210/210 211/211/211 207/207/207
f 211/211/211 212/212/212 204/204/204
f 210/210/210 213/213/213 211/211/211
f 214/214/214 212/212/212 211/211/211
f 213/213/213 215/215/215 211/211/211
f 215/215/215 214/214/214 211/211/211
f 218/218/218 217/217/217 216/216/216
f 217/217/217 219/219/219 216/216/216
f 220/220/220 219/219/219 217/217/217
f 221/221/221 220/220/220 217/217/217
f 219/219/219 220/220/220 222/222/222
f 219/219/219 223/223/223 216/216/216
f 223/223/223 219/219/219 222/222/222
f 223/223/223 224/224/224 216/216/216
f 222/222/222 225/225/225 223/223/223
f 226/226/226 224/224/224 223/223/223
f 225/225/225 227/227/227 223/223/223
f 227/227/227 226/226/226 223/223/223
f 230/230/230 229/229/229 228/228/228
f 231/231/231 230/230/230 228/228/228
f 231/231/231 228/228/228 232/232/232
f 233/233/233 231/231/231 232/232/232
f 232/232/232 234/234/234 233/233/233
f 234/234/234 235/235/235 233/233/233
f 230/230/230 231/231/231 236/236/236
f 233/233/233 237/237/237 231/231/231
f 237/237/237 236/236/236 231/231/231
f 233/233/233 235/235/235 238/238/238
f 237/237/237 233/233/233 238/238/238
f 239/239/239 230/230/230 236/236/236
f 240/240/240 230/230/230 239/239/239
f 238/238/238 235/235/235 241/241/241
f 235/235/235 242/242/242 241/241/241
f 237/237/237 238/238/238 243/243/243
f 238/238/238 244/244/244 243/243/243
f 244/244/244 238/238/238 241/241/241
f 243/243/243 245/245/245 237/237/237
f 245/245/245 236/236/236 237/237/237
f 245/245/245 246/246/246 236/236/236
f 246/246/246 239/239/239 236/236/236
f 239/239/239 246/246/246 247/247/247
f 248/248/248 240/240/240 239/239/239
f 249/249/249 244/244/244 241/241/241
f 240/240/240 248/248/248 250/250/250
f 240/240/240 250/250/250 251/251/251
f 250/250/250 10/10/10 251/251/251
f 248/248/248 252/252/252 250/250/250
f 10/10/10 250/250/250 9/9/9
f 9/9/9 250/250/250 252/252/252
f 253/253/253 9/9/9 252/252/252
f 241/241/241 254/254/254 249/249/249
f 254/254/254 255/255/255 249/249/249
f 254/254/254 241/241/241 242/242/242
f 254/254/254 256/256/256 255/255/255
f 257/257/257 9/9/9 253/253/253
f 258/258/258 257/257/257 253/253/253
f 9/9/9 257/257/257 11/11/11
f 257/257/257 259/259/259 11/11/11
f 258/258/258 260/260/260 257/257/257
f 257/257/257 261/261/261 259/259/259
f 260/260/260 261/261/261 257/257/257
f 261/261/261 262/262/262 259/259/259
f 263/263/263 261/261/261 260/260/260
f 262/262/262 261/261/261 263/263/263
f 256/256/256 263/263/263 260/260/260
f 264/264/264 262/262/262 263/263/263
f 265/265/265 263/263/263 256/256/256
f 254/254/254 265/265/265 256/256/256
f 265/265/265 254/254/254 242/242/242
f 265/265/265 242/242/242 266/266/266
f 242/242/242 267/267/267 266/266/266
f 235/235/235 234/234/234 267/267/267
f 242/242/242 235/235/235 267/267/267
f 229/229/229 230/230/230 240/240/240
f 251/251/251 229/229/229 240/240/240
f 264/264/264 263/263/263 265/265/265
f 266/266/266 264/264/264 265/265/265
f 252/252/252 269/269/269 268/268/268
f 269/269/269 252/252/252 248/248/248
f 247/247/247 269/269/269 248/248/248
f 248/248/248 239/239/239 247/247/247
f 253/253/253 252/252/252 268/268/268
f 268/268/268 270/270/270 253/253/253
f 270/270/270 258/258/258 253/253/253
f 270/270/270 271/271/271 258/258/258
f 271/271/271 260/260/260 258/258/258
f 260/260/260 271/271/271 272/272/272
f 256/256/256 260/260/260 272/272/272
f 256/256/256 272/272/272 255/255/255

