mtllib material.mtl
usemtl material_0
v -0.41795000 0.85324000 0.16939000
v -0.41795000 0.85335000 -0.13757000
v -0.41795000 0.86649000 -0.13757000
v -0.41795000 0.86638000 0.16939000
v -0.00002000 0.85335000 -0.13962000
v 0.41792000 0.85335000 -0.13757000
v 0.41792000 0.86649000 -0.13757000
v -0.00002000 0.86649000 -0.13962000
v 0.41792000 0.85335000 -0.13757000
v 0.41792000 0.85324000 0.16939000
v 0.41792000 0.86638000 0.16939000
v 0.41792000 0.86649000 -0.13757000
v -0.00002000 0.85323000 0.18592000
v -0.41795000 0.85324000 0.16939000
v -0.41795000 0.86638000 0.16939000
v -0.00002000 0.86637000 0.18592000
v 0.40756000 0.85334000 -0.12443000
v 0.40756000 0.78832000 0.15622000
v 0.40756000 0.85324000 0.15625000
v 0.40756000 0.78842000 -0.12446000
v 0.40756000 0.72350000 -0.12448000
v 0.40756000 0.72341000 0.15620000
v -0.00002000 0.86649000 -0.13962000
v -0.41795000 0.86638000 0.16939000
v -0.41795000 0.86649000 -0.13757000
v -0.00002000 0.86637000 0.18592000
v 0.41792000 0.86649000 -0.13757000
v 0.41792000 0.86638000 0.16939000
v -0.40760000 0.85334000 -0.12443000
v -0.41795000 0.85335000 -0.13757000
v -0.41795000 0.85324000 0.16939000
v -0.40760000 0.85324000 0.15625000
v -0.00002000 0.85323000 0.18592000
v -0.00002000 0.85324000 0.17198000
v -0.00002000 0.85334000 -0.12568000
v -0.41795000 0.85335000 -0.13757000
v -0.40760000 0.85334000 -0.12443000
v -0.00002000 0.85335000 -0.13962000
v 0.40756000 0.85334000 -0.12443000
v 0.41792000 0.85335000 -0.13757000
v 0.40756000 0.85324000 0.15625000
v 0.41792000 0.85324000 0.16939000
v -0.00002000 0.85324000 0.17198000
v -0.00002000 0.85323000 0.18592000
v -0.40760000 0.85324000 0.15625000
v -0.40760000 0.78842000 -0.12446000
v -0.40760000 0.85334000 -0.12443000
v -0.40760000 0.78832000 0.15622000
v -0.40760000 0.72341000 0.15620000
v -0.40760000 0.72350000 -0.12448000
v -0.00002000 0.72340000 0.17193000
v -0.00002000 0.73678000 0.17194000
v 0.39306000 0.73678000 0.15621000
v 0.40756000 0.72341000 0.15620000
v 0.39306000 0.78832000 0.15622000
v 0.40756000 0.78832000 0.15622000
v 0.39306000 0.83987000 0.15624000
v 0.40756000 0.85324000 0.15625000
v -0.00002000 0.83986000 0.17197000
v -0.00002000 0.85324000 0.17198000
v -0.00002000 0.85334000 -0.12568000
v 0.40756000 0.78842000 -0.12446000
v 0.40756000 0.85334000 -0.12443000
v -0.00002000 0.78842000 -0.12571000
v -0.00002000 0.72350000 -0.12573000
v 0.40756000 0.72350000 -0.12448000
v -0.41795000 0.72340000 0.16934000
v -0.41795000 0.71026000 0.16934000
v -0.41795000 0.71037000 -0.13762000
v -0.41795000 0.72351000 -0.13762000
v -0.00002000 0.72351000 -0.13967000
v -0.00002000 0.71037000 -0.13967000
v 0.41792000 0.71037000 -0.13762000
v 0.41792000 0.72351000 -0.13762000
v 0.41792000 0.72351000 -0.13762000
v 0.41792000 0.71037000 -0.13762000
v 0.41792000 0.71026000 0.16934000
v 0.41792000 0.72340000 0.16934000
v -0.00002000 0.72340000 0.18587000
v -0.00002000 0.71025000 0.18587000
v -0.41795000 0.71026000 0.16934000
v -0.41795000 0.72340000 0.16934000
v -0.00002000 0.71037000 -0.13967000
v -0.41795000 0.71037000 -0.13762000
v -0.41795000 0.71026000 0.16934000
v -0.00002000 0.71025000 0.18587000
v 0.41792000 0.71037000 -0.13762000
v 0.41792000 0.71026000 0.16934000
v -0.40760000 0.72350000 -0.12448000
v -0.41795000 0.72340000 0.16934000
v -0.41795000 0.72351000 -0.13762000
v -0.40760000 0.72341000 0.15620000
v -0.00002000 0.72340000 0.18587000
v -0.00002000 0.72340000 0.17193000
v -0.00002000 0.72350000 -0.12573000
v -0.40760000 0.72350000 -0.12448000
v -0.41795000 0.72351000 -0.13762000
v -0.00002000 0.72351000 -0.13967000
v 0.40756000 0.72350000 -0.12448000
v 0.41792000 0.72351000 -0.13762000
v 0.40756000 0.72341000 0.15620000
v 0.41792000 0.72340000 0.16934000
v -0.00002000 0.72340000 0.17193000
v -0.00002000 0.72340000 0.18587000
v -0.40760000 0.85324000 0.15625000
v -0.39309000 0.83987000 0.15624000
v -0.39309000 0.78832000 0.15622000
v -0.40760000 0.78832000 0.15622000
v -0.39309000 0.73678000 0.15621000
v -0.40760000 0.72341000 0.15620000
v -0.00002000 0.73678000 0.17194000
v -0.00002000 0.72340000 0.17193000
v -0.00002000 0.85324000 0.17198000
v -0.00002000 0.83986000 0.17197000
v -0.39309000 0.83987000 0.15624000
v -0.40760000 0.85324000 0.15625000
v -0.39309000 0.83987000 0.15624000
v -0.39309000 0.83997000 -0.11092000
v -0.39309000 0.78843000 -0.11093000
v -0.39309000 0.78832000 0.15622000
v -0.39309000 0.73689000 -0.11095000
v -0.39309000 0.73678000 0.15621000
v -0.00002000 0.73678000 0.17194000
v -0.00002000 0.73689000 -0.11307000
v 0.39306000 0.73689000 -0.11095000
v 0.39306000 0.73678000 0.15621000
v 0.39306000 0.78832000 0.15622000
v 0.39306000 0.83997000 -0.11092000
v 0.39306000 0.83987000 0.15624000
v 0.39306000 0.78843000 -0.11093000
v 0.39306000 0.73678000 0.15621000
v 0.39306000 0.73689000 -0.11095000
v -0.00002000 0.83986000 0.17197000
v -0.39309000 0.83997000 -0.11092000
v -0.39309000 0.83987000 0.15624000
v -0.00002000 0.83997000 -0.11303000
v 0.39306000 0.83987000 0.15624000
v 0.39306000 0.83997000 -0.11092000
v -0.39309000 0.78843000 -0.11093000
v -0.39309000 0.83997000 -0.11092000
v -0.00002000 0.83997000 -0.11303000
v -0.39309000 0.73689000 -0.11095000
v -0.00002000 0.73689000 -0.11307000
v 0.39306000 0.78843000 -0.11093000
v 0.39306000 0.73689000 -0.11095000
v 0.39306000 0.83997000 -0.11092000
v -0.39309000 0.73678000 0.15621000
v -0.39309000 0.73689000 -0.11095000
v -0.00002000 0.73689000 -0.11307000
v -0.00002000 0.73678000 0.17194000
v -0.40760000 0.72350000 -0.12448000
v -0.00002000 0.72350000 -0.12573000
v -0.00002000 0.78842000 -0.12571000
v -0.40760000 0.78842000 -0.12446000
v -0.40760000 0.85334000 -0.12443000
v -0.00002000 0.85334000 -0.12568000
v 0.41792000 0.72340000 0.16934000
v 0.41792000 0.71026000 0.16934000
v -0.00002000 0.71025000 0.18587000
v -0.00002000 0.72340000 0.18587000
v -0.41795000 0.72351000 -0.13762000
v -0.41795000 0.71037000 -0.13762000
v -0.00002000 0.71037000 -0.13967000
v -0.00002000 0.72351000 -0.13967000
v 0.41792000 0.85324000 0.16939000
v -0.00002000 0.85323000 0.18592000
v -0.00002000 0.86637000 0.18592000
v 0.41792000 0.86638000 0.16939000
v -0.41795000 0.85335000 -0.13757000
v -0.00002000 0.85335000 -0.13962000
v -0.00002000 0.86649000 -0.13962000
v -0.41795000 0.86649000 -0.13757000
v 0.37210000 0.00000000 0.15595000
v 0.37210000 0.00002000 0.12328000
v 0.36650000 0.71172000 0.11792000
v 0.36650000 0.71170000 0.16179000
v 0.37210000 0.00002000 0.12328000
v 0.40477000 0.00002000 0.12328000
v 0.41037000 0.71172000 0.11792000
v 0.36650000 0.71172000 0.11792000
v 0.40477000 0.00002000 0.12328000
v 0.40477000 0.00000000 0.15595000
v 0.41037000 0.71170000 0.16179000
v 0.41037000 0.71172000 0.11792000
v 0.40477000 0.00000000 0.15595000
v 0.37210000 0.00000000 0.15595000
v 0.36650000 0.71170000 0.16179000
v 0.41037000 0.71170000 0.16179000
v 0.37210000 0.00002000 0.12328000
v 0.37210000 0.00000000 0.15595000
v 0.40477000 0.00000000 0.15595000
v 0.40477000 0.00002000 0.12328000
v 0.41037000 0.71172000 0.11792000
v 0.41037000 0.71170000 0.16179000
v 0.36650000 0.71170000 0.16179000
v 0.36650000 0.71172000 0.11792000
v -0.40463000 0.00000000 0.15595000
v -0.40463000 0.00002000 0.12328000
v -0.41023000 0.71172000 0.11792000
v -0.41023000 0.71170000 0.16179000
v -0.40463000 0.00002000 0.12328000
v -0.37197000 0.00002000 0.12328000
v -0.36637000 0.71172000 0.11792000
v -0.41023000 0.71172000 0.11792000
v -0.37197000 0.00002000 0.12328000
v -0.37197000 0.00000000 0.15595000
v -0.36637000 0.71170000 0.16179000
v -0.36637000 0.71172000 0.11792000
v -0.37197000 0.00000000 0.15595000
v -0.40463000 0.00000000 0.15595000
v -0.41023000 0.71170000 0.16179000
v -0.36637000 0.71170000 0.16179000
v -0.40463000 0.00002000 0.12328000
v -0.40463000 0.00000000 0.15595000
v -0.37197000 0.00000000 0.15595000
v -0.37197000 0.00002000 0.12328000
v -0.36637000 0.71172000 0.11792000
v -0.36637000 0.71170000 0.16179000
v -0.41023000 0.71170000 0.16179000
v -0.41023000 0.71172000 0.11792000
v 0.37210000 0.00009000 -0.09007000
v 0.37210000 0.00010000 -0.12274000
v 0.36650000 0.71180000 -0.12809000
v 0.36650000 0.71179000 -0.08423000
v 0.37210000 0.00010000 -0.12274000
v 0.40477000 0.00010000 -0.12274000
v 0.41037000 0.71180000 -0.12809000
v 0.36650000 0.71180000 -0.12809000
v 0.40477000 0.00010000 -0.12274000
v 0.40477000 0.00009000 -0.09007000
v 0.41037000 0.71179000 -0.08423000
v 0.41037000 0.71180000 -0.12809000
v 0.40477000 0.00009000 -0.09007000
v 0.37210000 0.00009000 -0.09007000
v 0.36650000 0.71179000 -0.08423000
v 0.41037000 0.71179000 -0.08423000
v 0.37210000 0.00010000 -0.12274000
v 0.37210000 0.00009000 -0.09007000
v 0.40477000 0.00009000 -0.09007000
v 0.40477000 0.00010000 -0.12274000
v 0.41037000 0.71180000 -0.12809000
v 0.41037000 0.71179000 -0.08423000
v 0.36650000 0.71179000 -0.08423000
v 0.36650000 0.71180000 -0.12809000
v -0.40463000 0.00009000 -0.09007000
v -0.40463000 0.00010000 -0.12274000
v -0.41023000 0.71180000 -0.12809000
v -0.41023000 0.71179000 -0.08423000
v -0.40463000 0.00010000 -0.12274000
v -0.37197000 0.00010000 -0.12274000
v -0.36637000 0.71180000 -0.12809000
v -0.41023000 0.71180000 -0.12809000
v -0.37197000 0.00010000 -0.12274000
v -0.37197000 0.00009000 -0.09007000
v -0.36637000 0.71179000 -0.08423000
v -0.36637000 0.71180000 -0.12809000
v -0.37197000 0.00009000 -0.09007000
v -0.40463000 0.00009000 -0.09007000
v -0.41023000 0.71179000 -0.08423000
v -0.36637000 0.71179000 -0.08423000
v -0.40463000 0.00010000 -0.12274000
v -0.40463000 0.00009000 -0.09007000
v -0.37197000 0.00009000 -0.09007000
v -0.37197000 0.00010000 -0.12274000
v -0.36637000 0.71180000 -0.12809000
v -0.36637000 0.71179000 -0.08423000
v -0.41023000 0.71179000 -0.08423000
v -0.41023000 0.71180000 -0.12809000
v 0.37385000 0.06635000 -0.09156000
v -0.37371000 0.06635000 -0.09156000
v -0.37371000 0.06636000 -0.12121000
v 0.37385000 0.06636000 -0.12121000
v 0.37385000 0.06636000 -0.12121000
v -0.37371000 0.06636000 -0.12121000
v -0.37371000 0.04836000 -0.11743000
v 0.37385000 0.04836000 -0.11743000
v 0.37385000 0.04836000 -0.11743000
v -0.37371000 0.04836000 -0.11743000
v -0.37371000 0.04835000 -0.09535000
v 0.37385000 0.04835000 -0.09535000
v 0.37385000 0.04835000 -0.09535000
v -0.37371000 0.04835000 -0.09535000
v -0.37371000 0.06635000 -0.09156000
v 0.37385000 0.06635000 -0.09156000
vn -1.00000000 0.00000000 0.00000000
vn -1.00000000 0.00000000 0.00000000
vn -1.00000000 0.00000000 0.00000000
vn -1.00000000 0.00000000 0.00000000
vn 0.00489584 0.00034557 -0.99998800
vn 0.00489584 0.00034557 -0.99998800
vn 0.00489584 0.00034557 -0.99998800
vn 0.00489584 0.00034557 -0.99998800
vn 1.00000000 0.00000000 0.00000000
vn 1.00000000 0.00000000 0.00000000
vn 1.00000000 0.00000000 0.00000000
vn 1.00000000 0.00000000 0.00000000
vn -0.03951573 -0.00034531 0.99921890
vn -0.03951573 -0.00034531 0.99921890
vn -0.03951573 -0.00034531 0.99921890
vn -0.03951573 -0.00034531 0.99921890
vn 1.00000000 0.00000000 0.00000000
vn 1.00000000 0.00000000 0.00000000
vn 1.00000000 0.00000000 0.00000000
vn 1.00000000 0.00000000 0.00000000
vn 1.00000000 0.00000000 0.00000000
vn 1.00000000 0.00000000 0.00000000
vn 0.00000000 1.00000000 0.00034558
vn 0.00000000 1.00000000 0.00034558
vn 0.00000000 1.00000000 0.00034558
vn 0.00000000 1.00000000 0.00034558
vn 0.00000000 1.00000000 0.00034558
vn 0.00000000 1.00000000 0.00034558
vn 0.00000000 -1.00000000 -0.00034558
vn 0.00000000 -1.00000000 -0.00034558
vn 0.00000000 -1.00000000 -0.00034558
vn 0.00000000 -1.00000000 -0.00034558
vn 0.00000000 -1.00000000 -0.00034558
vn 0.00000000 -1.00000000 -0.00034558
vn 0.00000000 -1.00000000 -0.00034558
vn 0.00000000 -1.00000000 -0.00034558
vn 0.00000000 -1.00000000 -0.00034558
vn 0.00000000 -1.00000000 -0.00034558
vn 0.00000000 -1.00000000 -0.00034558
vn 0.00000000 -1.00000000 -0.00034558
vn 0.00000000 -1.00000000 -0.00034558
vn 0.00000000 -1.00000000 -0.00034558
vn 0.00000000 -1.00000000 -0.00034558
vn 0.00000000 -1.00000000 -0.00034558
vn -1.00000000 0.00000000 0.00000000
vn -1.00000000 0.00000000 0.00000000
vn -1.00000000 0.00000000 0.00000000
vn -1.00000000 0.00000000 0.00000000
vn -1.00000000 0.00000000 0.00000000
vn -1.00000000 0.00000000 0.00000000
vn 0.03926016 0.02093829 0.99900960
vn 0.03926016 0.02093829 0.99900960
vn 0.03926016 0.02093829 0.99900960
vn 0.03926016 0.02093829 0.99900960
vn 0.00000000 -0.00034558 1.00000000
vn 0.00000000 -0.00034558 1.00000000
vn 0.00000000 -0.00034558 1.00000000
vn 0.00000000 -0.00034558 1.00000000
vn 0.03926014 -0.02162866 0.99899490
vn 0.03926014 -0.02162866 0.99899490
vn 0.00306927 0.00034557 -0.99999520
vn 0.00306927 0.00034557 -0.99999520
vn 0.00306927 0.00034557 -0.99999520
vn 0.00306927 0.00034557 -0.99999520
vn 0.00306927 0.00034557 -0.99999520
vn 0.00306927 0.00034557 -0.99999520
vn -1.00000000 0.00000000 0.00000000
vn -1.00000000 0.00000000 0.00000000
vn -1.00000000 0.00000000 0.00000000
vn -1.00000000 0.00000000 0.00000000
vn 0.00489583 0.00034557 -0.99998800
vn 0.00489583 0.00034557 -0.99998800
vn 0.00489583 0.00034557 -0.99998800
vn 0.00489583 0.00034557 -0.99998800
vn 1.00000000 0.00000000 0.00000000
vn 1.00000000 0.00000000 0.00000000
vn 1.00000000 0.00000000 0.00000000
vn 1.00000000 0.00000000 0.00000000
vn -0.03951574 -0.00034531 0.99921890
vn -0.03951574 -0.00034531 0.99921890
vn -0.03951574 -0.00034531 0.99921890
vn -0.03951574 -0.00034531 0.99921890
vn 0.00000000 -1.00000000 -0.00034558
vn 0.00000000 -1.00000000 -0.00034558
vn 0.00000000 -1.00000000 -0.00034558
vn 0.00000000 -1.00000000 -0.00034558
vn 0.00000000 -1.00000000 -0.00034558
vn 0.00000000 -1.00000000 -0.00034558
vn -0.00000024 1.00000000 0.00034558
vn -0.00000024 1.00000000 0.00034558
vn -0.00000024 1.00000000 0.00034558
vn -0.00000024 1.00000000 0.00034558
vn 0.00000000 1.00000000 0.00034558
vn 0.00000000 1.00000000 0.00034558
vn 0.00000000 1.00000000 0.00034558
vn -0.00000024 1.00000000 0.00034558
vn -0.00000024 1.00000000 0.00034558
vn 0.00000000 1.00000000 0.00034558
vn 0.00000024 1.00000000 0.00034558
vn 0.00000024 1.00000000 0.00034558
vn 0.00000024 1.00000000 0.00034558
vn 0.00000024 1.00000000 0.00034558
vn 0.00000000 1.00000000 0.00034558
vn 0.00000000 1.00000000 0.00034558
vn 0.00000000 -0.00034558 1.00000000
vn 0.00000000 -0.00034558 1.00000000
vn 0.00000000 -0.00034558 1.00000000
vn 0.00000000 -0.00034558 1.00000000
vn 0.00000000 -0.00034558 1.00000000
vn 0.00000000 -0.00034558 1.00000000
vn -0.03926015 0.02093829 0.99900960
vn -0.03926015 0.02093829 0.99900960
vn -0.03926014 -0.02162866 0.99899490
vn -0.03926014 -0.02162866 0.99899490
vn -0.03926014 -0.02162866 0.99899490
vn -0.03926014 -0.02162866 0.99899490
vn 1.00000000 0.00000000 0.00000000
vn 1.00000000 0.00000000 0.00000000
vn 1.00000000 0.00000000 0.00000000
vn 1.00000000 0.00000000 0.00000000
vn 1.00000000 0.00000000 0.00000000
vn 1.00000000 0.00000000 0.00000000
vn 0.00000000 1.00000000 0.00034558
vn 0.00000000 1.00000000 0.00034558
vn 0.00000000 1.00000000 0.00034558
vn 0.00000000 1.00000000 0.00034558
vn -1.00000000 0.00000000 0.00000000
vn -1.00000000 0.00000000 0.00000000
vn -1.00000000 0.00000000 0.00000000
vn -1.00000000 0.00000000 0.00000000
vn -1.00000000 0.00000000 0.00000000
vn -1.00000000 0.00000000 0.00000000
vn 0.00000000 -1.00000000 -0.00034558
vn 0.00000000 -1.00000000 -0.00034558
vn 0.00000000 -1.00000000 -0.00034558
vn 0.00000000 -1.00000000 -0.00034558
vn 0.00000000 -1.00000000 -0.00034558
vn 0.00000000 -1.00000000 -0.00034558
vn 0.00537896 -0.00034557 0.99998550
vn 0.00537896 -0.00034557 0.99998550
vn 0.00537896 -0.00034557 0.99998550
vn 0.00537896 -0.00034557 0.99998550
vn 0.00537896 -0.00034557 0.99998550
vn -0.00537896 -0.00034557 0.99998550
vn -0.00537896 -0.00034557 0.99998550
vn -0.00537896 -0.00034557 0.99998550
vn 0.00000000 1.00000000 0.00034558
vn 0.00000000 1.00000000 0.00034558
vn 0.00000000 1.00000000 0.00034558
vn 0.00000000 1.00000000 0.00034558
vn -0.00306927 0.00034557 -0.99999520
vn -0.00306927 0.00034557 -0.99999520
vn -0.00306927 0.00034557 -0.99999520
vn -0.00306927 0.00034557 -0.99999520
vn -0.00306927 0.00034557 -0.99999520
vn -0.00306927 0.00034557 -0.99999520
vn 0.03951574 -0.00034531 0.99921890
vn 0.03951574 -0.00034531 0.99921890
vn 0.03951574 -0.00034531 0.99921890
vn 0.03951574 -0.00034531 0.99921890
vn -0.00489583 0.00034557 -0.99998800
vn -0.00489583 0.00034557 -0.99998800
vn -0.00489583 0.00034557 -0.99998800
vn -0.00489583 0.00034557 -0.99998800
vn 0.03951573 -0.00034531 0.99921890
vn 0.03951573 -0.00034531 0.99921890
vn 0.03951573 -0.00034531 0.99921890
vn 0.03951573 -0.00034531 0.99921890
vn -0.00489583 0.00034557 -0.99998800
vn -0.00489583 0.00034557 -0.99998800
vn -0.00489583 0.00034557 -0.99998800
vn -0.00489583 0.00034557 -0.99998800
vn -0.99996910 -0.00786660 -0.00000272
vn -0.99996910 -0.00786660 -0.00000272
vn -0.99996910 -0.00786660 -0.00000272
vn -0.99996910 -0.00786660 -0.00000272
vn 0.00000000 -0.00752103 -0.99997170
vn 0.00000000 -0.00752103 -0.99997170
vn 0.00000000 -0.00752103 -0.99997170
vn 0.00000000 -0.00752103 -0.99997170
vn 0.99996910 -0.00786660 -0.00000272
vn 0.99996910 -0.00786660 -0.00000272
vn 0.99996910 -0.00786660 -0.00000272
vn 0.99996910 -0.00786660 -0.00000272
vn 0.00000000 -0.00821220 0.99996630
vn 0.00000000 -0.00821220 0.99996630
vn 0.00000000 -0.00821220 0.99996630
vn 0.00000000 -0.00821220 0.99996630
vn 0.00000000 -1.00000000 -0.00034558
vn 0.00000000 -1.00000000 -0.00034558
vn 0.00000000 -1.00000000 -0.00034558
vn 0.00000000 -1.00000000 -0.00034558
vn 0.00000000 1.00000000 0.00034558
vn 0.00000000 1.00000000 0.00034558
vn 0.00000000 1.00000000 0.00034558
vn 0.00000000 1.00000000 0.00034558
vn -0.99996910 -0.00786660 -0.00000272
vn -0.99996910 -0.00786660 -0.00000272
vn -0.99996910 -0.00786660 -0.00000272
vn -0.99996910 -0.00786660 -0.00000272
vn 0.00000000 -0.00752103 -0.99997170
vn 0.00000000 -0.00752103 -0.99997170
vn 0.00000000 -0.00752103 -0.99997170
vn 0.00000000 -0.00752103 -0.99997170
vn 0.99996910 -0.00786660 -0.00000272
vn 0.99996910 -0.00786660 -0.00000272
vn 0.99996910 -0.00786660 -0.00000272
vn 0.99996910 -0.00786660 -0.00000272
vn 0.00000000 -0.00821220 0.99996630
vn 0.00000000 -0.00821220 0.99996630
vn 0.00000000 -0.00821220 0.99996630
vn 0.00000000 -0.00821220 0.99996630
vn 0.00000000 -1.00000000 -0.00034558
vn 0.00000000 -1.00000000 -0.00034558
vn 0.00000000 -1.00000000 -0.00034558
vn 0.00000000 -1.00000000 -0.00034558
vn 0.00000000 1.00000000 0.00034558
vn 0.00000000 1.00000000 0.00034558
vn 0.00000000 1.00000000 0.00034558
vn 0.00000000 1.00000000 0.00034558
vn -0.99996910 -0.00786660 -0.00000272
vn -0.99996910 -0.00786660 -0.00000272
vn -0.99996910 -0.00786660 -0.00000272
vn -0.99996910 -0.00786660 -0.00000272
vn 0.00000000 -0.00752104 -0.99997170
vn 0.00000000 -0.00752104 -0.99997170
vn 0.00000000 -0.00752104 -0.99997170
vn 0.00000000 -0.00752104 -0.99997170
vn 0.99996910 -0.00786660 -0.00000272
vn 0.99996910 -0.00786660 -0.00000272
vn 0.99996910 -0.00786660 -0.00000272
vn 0.99996910 -0.00786660 -0.00000272
vn 0.00000000 -0.00821217 0.99996630
vn 0.00000000 -0.00821217 0.99996630
vn 0.00000000 -0.00821217 0.99996630
vn 0.00000000 -0.00821217 0.99996630
vn 0.00000000 -1.00000000 -0.00034558
vn 0.00000000 -1.00000000 -0.00034558
vn 0.00000000 -1.00000000 -0.00034558
vn 0.00000000 -1.00000000 -0.00034558
vn 0.00000000 1.00000000 0.00034558
vn 0.00000000 1.00000000 0.00034558
vn 0.00000000 1.00000000 0.00034558
vn 0.00000000 1.00000000 0.00034558
vn -0.99996910 -0.00786660 -0.00000272
vn -0.99996910 -0.00786660 -0.00000272
vn -0.99996910 -0.00786660 -0.00000272
vn -0.99996910 -0.00786660 -0.00000272
vn 0.00000000 -0.00752104 -0.99997170
vn 0.00000000 -0.00752104 -0.99997170
vn 0.00000000 -0.00752104 -0.99997170
vn 0.00000000 -0.00752104 -0.99997170
vn 0.99996910 -0.00786660 -0.00000272
vn 0.99996910 -0.00786660 -0.00000272
vn 0.99996910 -0.00786660 -0.00000272
vn 0.99996910 -0.00786660 -0.00000272
vn 0.00000000 -0.00821217 0.99996630
vn 0.00000000 -0.00821217 0.99996630
vn 0.00000000 -0.00821217 0.99996630
vn 0.00000000 -0.00821217 0.99996630
vn 0.00000000 -1.00000000 -0.00034558
vn 0.00000000 -1.00000000 -0.00034558
vn 0.00000000 -1.00000000 -0.00034558
vn 0.00000000 -1.00000000 -0.00034558
vn 0.00000000 1.00000000 0.00034558
vn 0.00000000 1.00000000 0.00034558
vn 0.00000000 1.00000000 0.00034558
vn 0.00000000 1.00000000 0.00034558
vn 0.00000000 1.00000000 0.00034558
vn 0.00000000 1.00000000 0.00034558
vn 0.00000000 1.00000000 0.00034558
vn 0.00000000 1.00000000 0.00034558
vn 0.00000000 -0.20534060 -0.97869050
vn 0.00000000 -0.20534060 -0.97869050
vn 0.00000000 -0.20534060 -0.97869050
vn 0.00000000 -0.20534060 -0.97869050
vn 0.00000000 -1.00000000 -0.00034558
vn 0.00000000 -1.00000000 -0.00034558
vn 0.00000000 -1.00000000 -0.00034558
vn 0.00000000 -1.00000000 -0.00034558
vn 0.00000000 -0.20601730 0.97854840
vn 0.00000000 -0.20601730 0.97854840
vn 0.00000000 -0.20601730 0.97854840
vn 0.00000000 -0.20601730 0.97854840
vt 0.34386270 0.92248680
vt 0.48840740 0.92248680
vt 0.48840740 0.92867480
vt 0.34386270 0.92867480
vt 0.01431322 0.92248680
vt 0.21111270 0.92248680
vt 0.21111270 0.92867480
vt 0.01431322 0.92867480
vt 0.48840740 0.92248680
vt 0.34386270 0.92248680
vt 0.34386270 0.92867480
vt 0.48840740 0.92867480
vt 0.01431322 0.92248680
vt -0.18248640 0.92248680
vt -0.18248640 0.92867480
vt 0.01431322 0.92867480
vt 0.48221940 0.92248680
vt 0.35005060 0.89191710
vt 0.35005060 0.92248680
vt 0.48221940 0.89191710
vt 0.48221940 0.86134790
vt 0.35005060 0.86134790
vt 0.01431322 0.48937090
vt -0.18248640 0.34386270
vt -0.18248640 0.48840740
vt 0.01431322 0.33607990
vt 0.21111270 0.48840740
vt 0.21111270 0.34386270
vt 0.82238790 0.48221940
vt 0.81751360 0.48840740
vt 0.81751360 0.34386270
vt 0.82238790 0.35005060
vt 1.01431300 0.33607990
vt 1.01431300 0.34264230
vt 0.01431322 0.48280850
vt -0.18248640 0.48840740
vt -0.17761210 0.48221940
vt 0.01431322 0.48937090
vt 0.20623850 0.48221940
vt 0.21111270 0.48840740
vt 0.20623850 0.35005060
vt 0.21111270 0.34386270
vt 0.01431322 0.34264230
vt 0.01431322 0.33607990
vt 0.35005060 0.92248680
vt 0.48221940 0.89191710
vt 0.48221940 0.92248680
vt 0.35005060 0.89191710
vt 0.35005060 0.86134790
vt 0.48221940 0.86134790
vt 0.01431322 0.86134790
vt 0.01431322 0.86764730
vt 0.19940870 0.86764730
vt 0.20623850 0.86134790
vt 0.19940870 0.89191710
vt 0.20623850 0.89191710
vt 0.19940870 0.91618740
vt 0.20623850 0.92248680
vt 0.01431322 0.91618740
vt 0.01431322 0.92248680
vt 0.01431322 0.92248680
vt 0.20623850 0.89191710
vt 0.20623850 0.92248680
vt 0.01431322 0.89191710
vt 0.01431322 0.86134790
vt 0.20623850 0.86134790
vt 0.34386270 0.86134790
vt 0.34386270 0.85515980
vt 0.48840740 0.85515980
vt 0.48840740 0.86134790
vt 0.01431322 0.86134790
vt 0.01431322 0.85515980
vt 0.21111270 0.85515980
vt 0.21111270 0.86134790
vt 0.48840740 0.86134790
vt 0.48840740 0.85515980
vt 0.34386270 0.85515980
vt 0.34386270 0.86134790
vt 0.01431322 0.86134790
vt 0.01431322 0.85515980
vt -0.18248640 0.85515980
vt -0.18248640 0.86134790
vt 0.01431322 0.48937090
vt -0.18248640 0.48840740
vt -0.18248640 0.34386270
vt 0.01431322 0.33607990
vt 0.21111270 0.48840740
vt 0.21111270 0.34386270
vt 0.82238790 0.48221940
vt 0.81751360 0.34386270
vt 0.81751360 0.48840740
vt 0.82238790 0.35005060
vt 1.01431300 0.33607990
vt 1.01431300 0.34264230
vt 0.01431322 0.48280850
vt -0.17761210 0.48221940
vt -0.18248640 0.48840740
vt 0.01431322 0.48937090
vt 0.20623850 0.48221940
vt 0.21111270 0.48840740
vt 0.20623850 0.35005060
vt 0.21111270 0.34386270
vt 0.01431322 0.34264230
vt 0.01431322 0.33607990
vt 0.82238790 0.92248680
vt 0.82921770 0.91618740
vt 0.82921770 0.89191710
vt 0.82238790 0.89191710
vt 0.82921770 0.86764730
vt 0.82238790 0.86134790
vt 1.01431300 0.86764730
vt 1.01431300 0.86134790
vt 0.01431322 0.92248680
vt 0.01431322 0.91618740
vt -0.17078230 0.91618740
vt -0.17761210 0.92248680
vt 0.35005060 0.91618740
vt 0.48893860 0.91618740
vt 0.48893860 0.89191710
vt 0.35005060 0.89191710
vt 0.48893860 0.86764730
vt 0.35005060 0.86764730
vt 0.01431322 0.34264230
vt 0.01431322 0.48993420
vt 0.19940870 0.48893860
vt 0.19940870 0.35005060
vt 0.35005060 0.89191710
vt 0.48893860 0.91618740
vt 0.35005060 0.91618740
vt 0.48893860 0.89191710
vt 0.35005060 0.86764730
vt 0.48893860 0.86764730
vt 0.01431322 0.34264230
vt -0.17078230 0.48893860
vt -0.17078230 0.35005060
vt 0.01431322 0.48993420
vt 0.19940870 0.35005060
vt 0.19940870 0.48893860
vt -0.17078230 0.89191710
vt -0.17078230 0.91618740
vt 0.01431322 0.91618740
vt -0.17078230 0.86764730
vt 0.01431322 0.86764730
vt 0.19940870 0.89191710
vt 0.19940870 0.86764730
vt 0.19940870 0.91618740
vt 0.82921770 0.35005060
vt 0.82921770 0.48893860
vt 1.01431300 0.48993420
vt 1.01431300 0.34264230
vt 0.82238790 0.86134790
vt 1.01431300 0.86134790
vt 1.01431300 0.89191710
vt 0.82238790 0.89191710
vt 0.82238790 0.92248680
vt 1.01431300 0.92248680
vt 0.21111270 0.86134790
vt 0.21111270 0.85515980
vt 0.01431322 0.85515980
vt 0.01431322 0.86134790
vt 0.81751360 0.86134790
vt 0.81751360 0.85515980
vt 1.01431300 0.85515980
vt 1.01431300 0.86134790
vt 0.21111270 0.92248680
vt 0.01431322 0.92248680
vt 0.01431322 0.92867480
vt 0.21111270 0.92867480
vt 0.81751360 0.92248680
vt 1.01431300 0.92248680
vt 1.01431300 0.92867480
vt 0.81751360 0.92867480
vt 0.35005350 0.52070640
vt 0.36543630 0.52070640
vt 0.36807270 0.85583670
vt 0.34741710 0.85583670
vt 0.18953920 0.52070640
vt 0.20492200 0.52070640
vt 0.20755840 0.85583670
vt 0.18690280 0.85583670
vt 0.36543630 0.52070640
vt 0.35005350 0.52070640
vt 0.34741710 0.85583670
vt 0.36807270 0.85583670
vt 0.20492200 0.52070640
vt 0.18953920 0.52070640
vt 0.18690280 0.85583670
vt 0.20755840 0.85583670
vt 0.18953920 0.36543630
vt 0.18953920 0.35005350
vt 0.20492200 0.35005350
vt 0.20492200 0.36543630
vt 0.20755840 0.36807270
vt 0.20755840 0.34741710
vt 0.18690280 0.34741710
vt 0.18690280 0.36807270
vt 0.35005350 0.52070640
vt 0.36543630 0.52070640
vt 0.36807270 0.85583670
vt 0.34741710 0.85583670
vt 0.82378320 0.52070640
vt 0.83916600 0.52070640
vt 0.84180250 0.85583670
vt 0.82114680 0.85583670
vt 0.36543630 0.52070640
vt 0.35005350 0.52070640
vt 0.34741710 0.85583670
vt 0.36807270 0.85583670
vt 0.83916600 0.52070640
vt 0.82378320 0.52070640
vt 0.82114680 0.85583670
vt 0.84180250 0.85583670
vt 0.82378320 0.36543630
vt 0.82378320 0.35005350
vt 0.83916600 0.35005350
vt 0.83916600 0.36543630
vt 0.84180250 0.36807270
vt 0.84180250 0.34741710
vt 0.82114680 0.34741710
vt 0.82114680 0.36807270
vt 0.46590050 0.52070640
vt 0.48128330 0.52070640
vt 0.48391980 0.85583670
vt 0.46326410 0.85583670
vt 0.18953920 0.52070640
vt 0.20492200 0.52070640
vt 0.20755840 0.85583670
vt 0.18690280 0.85583670
vt 0.48128330 0.52070640
vt 0.46590050 0.52070640
vt 0.46326410 0.85583670
vt 0.48391980 0.85583670
vt 0.20492200 0.52070640
vt 0.18953920 0.52070640
vt 0.18690280 0.85583670
vt 0.20755840 0.85583670
vt 0.18953920 0.48128330
vt 0.18953920 0.46590050
vt 0.20492200 0.46590050
vt 0.20492200 0.48128330
vt 0.20755840 0.48391980
vt 0.20755840 0.46326410
vt 0.18690280 0.46326410
vt 0.18690280 0.48391980
vt 0.46590050 0.52070640
vt 0.48128330 0.52070640
vt 0.48391980 0.85583670
vt 0.46326410 0.85583670
vt 0.82378320 0.52070640
vt 0.83916600 0.52070640
vt 0.84180250 0.85583670
vt 0.82114680 0.85583670
vt 0.48128330 0.52070640
vt 0.46590050 0.52070640
vt 0.46326410 0.85583670
vt 0.48391980 0.85583670
vt 0.83916600 0.52070640
vt 0.82378320 0.52070640
vt 0.82114680 0.85583670
vt 0.84180250 0.85583670
vt 0.82378320 0.48128330
vt 0.82378320 0.46590050
vt 0.83916600 0.46590050
vt 0.83916600 0.48128330
vt 0.84180250 0.48391980
vt 0.84180250 0.46326410
vt 0.82114680 0.46326410
vt 0.82114680 0.48391980
vt 0.19036100 0.46661140
vt -0.16165580 0.46661140
vt -0.16165580 0.48057240
vt 0.19036100 0.48057240
vt 0.19036100 0.55190870
vt -0.16165580 0.55190870
vt -0.16165580 0.54343030
vt 0.19036100 0.54343030
vt 0.19036100 0.47879050
vt -0.16165580 0.47879050
vt -0.16165580 0.46839340
vt 0.19036100 0.46839340
vt 0.19036100 0.54343030
vt -0.16165580 0.54343030
vt -0.16165580 0.55190870
vt 0.19036100 0.55190870
f 3/3/3 2/2/2 1/1/1
f 4/4/4 3/3/3 1/1/1
f 7/7/7 6/6/6 5/5/5
f 8/8/8 7/7/7 5/5/5
f 11/11/11 10/10/10 9/9/9
f 12/12/12 11/11/11 9/9/9
f 15/15/15 14/14/14 13/13/13
f 16/16/16 15/15/15 13/13/13
f 19/19/19 18/18/18 17/17/17
f 18/18/18 20/20/20 17/17/17
f 20/20/20 18/18/18 21/21/21
f 18/18/18 22/22/22 21/21/21
f 25/25/25 24/24/24 23/23/23
f 24/24/24 26/26/26 23/23/23
f 23/23/23 26/26/26 27/27/27
f 26/26/26 28/28/28 27/27/27
f 31/31/31 30/30/30 29/29/29
f 32/32/32 31/31/31 29/29/29
f 33/33/33 31/31/31 32/32/32
f 34/34/34 33/33/33 32/32/32
f 37/37/37 36/36/36 35/35/35
f 36/36/36 38/38/38 35/35/35
f 35/35/35 38/38/38 39/39/39
f 38/38/38 40/40/40 39/39/39
f 39/39/39 40/40/40 41/41/41
f 40/40/40 42/42/42 41/41/41
f 41/41/41 42/42/42 43/43/43
f 42/42/42 44/44/44 43/43/43
f 47/47/47 46/46/46 45/45/45
f 46/46/46 48/48/48 45/45/45
f 48/48/48 46/46/46 49/49/49
f 46/46/46 50/50/50 49/49/49
f 53/53/53 52/52/52 51/51/51
f 54/54/54 53/53/53 51/51/51
f 55/55/55 53/53/53 54/54/54
f 56/56/56 55/55/55 54/54/54
f 57/57/57 55/55/55 56/56/56
f 58/58/58 57/57/57 56/56/56
f 59/59/59 57/57/57 58/58/58
f 60/60/60 59/59/59 58/58/58
f 63/63/63 62/62/62 61/61/61
f 62/62/62 64/64/64 61/61/61
f 64/64/64 62/62/62 65/65/65
f 62/62/62 66/66/66 65/65/65
f 69/69/69 68/68/68 67/67/67
f 70/70/70 69/69/69 67/67/67
f 73/73/73 72/72/72 71/71/71
f 74/74/74 73/73/73 71/71/71
f 77/77/77 76/76/76 75/75/75
f 78/78/78 77/77/77 75/75/75
f 81/81/81 80/80/80 79/79/79
f 82/82/82 81/81/81 79/79/79
f 85/85/85 84/84/84 83/83/83
f 86/86/86 85/85/85 83/83/83
f 86/86/86 83/83/83 87/87/87
f 88/88/88 86/86/86 87/87/87
f 91/91/91 90/90/90 89/89/89
f 90/90/90 92/92/92 89/89/89
f 90/90/90 93/93/93 92/92/92
f 93/93/93 94/94/94 92/92/92
f 97/97/97 96/96/96 95/95/95
f 98/98/98 97/97/97 95/95/95
f 98/98/98 95/95/95 99/99/99
f 100/100/100 98/98/98 99/99/99
f 100/100/100 99/99/99 101/101/101
f 102/102/102 100/100/100 101/101/101
f 102/102/102 101/101/101 103/103/103
f 104/104/104 102/102/102 103/103/103
f 107/107/107 106/106/106 105/105/105
f 108/108/108 107/107/107 105/105/105
f 109/109/109 107/107/107 108/108/108
f 110/110/110 109/109/109 108/108/108
f 111/111/111 109/109/109 110/110/110
f 112/112/112 111/111/111 110/110/110
f 115/115/115 114/114/114 113/113/113
f 116/116/116 115/115/115 113/113/113
f 119/119/119 118/118/118 117/117/117
f 120/120/120 119/119/119 117/117/117
f 121/121/121 119/119/119 120/120/120
f 122/122/122 121/121/121 120/120/120
f 125/125/125 124/124/124 123/123/123
f 126/126/126 125/125/125 123/123/123
f 129/129/129 128/128/128 127/127/127
f 128/128/128 130/130/130 127/127/127
f 127/127/127 130/130/130 131/131/131
f 130/130/130 132/132/132 131/131/131
f 135/135/135 134/134/134 133/133/133
f 134/134/134 136/136/136 133/133/133
f 133/133/133 136/136/136 137/137/137
f 136/136/136 138/138/138 137/137/137
f 141/141/141 140/140/140 139/139/139
f 141/141/141 139/139/139 142/142/142
f 142/142/142 143/143/143 141/141/141
f 144/144/144 141/141/141 143/143/143
f 143/143/143 145/145/145 144/144/144
f 144/144/144 146/146/146 141/141/141
f 149/149/149 148/148/148 147/147/147
f 150/150/150 149/149/149 147/147/147
f 153/153/153 152/152/152 151/151/151
f 154/154/154 153/153/153 151/151/151
f 153/153/153 154/154/154 155/155/155
f 156/156/156 153/153/153 155/155/155
f 159/159/159 158/158/158 157/157/157
f 160/160/160 159/159/159 157/157/157
f 163/163/163 162/162/162 161/161/161
f 164/164/164 163/163/163 161/161/161
f 167/167/167 166/166/166 165/165/165
f 168/168/168 167/167/167 165/165/165
f 171/171/171 170/170/170 169/169/169
f 172/172/172 171/171/171 169/169/169
f 175/175/175 174/174/174 173/173/173
f 176/176/176 175/175/175 173/173/173
f 179/179/179 178/178/178 177/177/177
f 180/180/180 179/179/179 177/177/177
f 183/183/183 182/182/182 181/181/181
f 184/184/184 183/183/183 181/181/181
f 187/187/187 186/186/186 185/185/185
f 188/188/188 187/187/187 185/185/185
f 191/191/191 190/190/190 189/189/189
f 192/192/192 191/191/191 189/189/189
f 195/195/195 194/194/194 193/193/193
f 196/196/196 195/195/195 193/193/193
f 199/199/199 198/198/198 197/197/197
f 200/200/200 199/199/199 197/197/197
f 203/203/203 202/202/202 201/201/201
f 204/204/204 203/203/203 201/201/201
f 207/207/207 206/206/206 205/205/205
f 208/208/208 207/207/207 205/205/205
f 211/211/211 210/210/210 209/209/209
f 212/212/212 211/211/211 209/209/209
f 215/215/215 214/214/214 213/213/213
f 216/216/216 215/215/215 213/213/213
f 219/219/219 218/218/218 217/217/217
f 220/220/220 219/219/219 217/217/217
f 223/223/223 222/222/222 221/221/221
f 224/224/224 223/223/223 221/221/221
f 227/227/227 226/226/226 225/225/225
f 228/228/228 227/227/227 225/225/225
f 231/231/231 230/230/230 229/229/229
f 232/232/232 231/231/231 229/229/229
f 235/235/235 234/234/234 233/233/233
f 236/236/236 235/235/235 233/233/233
f 239/239/239 238/238/238 237/237/237
f 240/240/240 239/239/239 237/237/237
f 243/243/243 242/242/242 241/241/241
f 244/244/244 243/243/243 241/241/241
f 247/247/247 246/246/246 245/245/245
f 248/248/248 247/247/247 245/245/245
f 251/251/251 250/250/250 249/249/249
f 252/252/252 251/251/251 249/249/249
f 255/255/255 254/254/254 253/253/253
f 256/256/256 255/255/255 253/253/253
f 259/259/259 258/258/258 257/257/257
f 260/260/260 259/259/259 257/257/257
f 263/263/263 262/262/262 261/261/261
f 264/264/264 263/263/263 261/261/261
f 267/267/267 266/266/266 265/265/265
f 268/268/268 267/267/267 265/265/265
f 271/271/271 270/270/270 269/269/269
f 272/272/272 271/271/271 269/269/269
f 275/275/275 274/274/274 273/273/273
f 276/276/276 275/275/275 273/273/273
f 279/279/279 278/278/278 277/277/277
f 280/280/280 279/279/279 277/277/277
f 283/283/283 282/282/282 281/281/281
f 284/284/284 283/283/283 281/281/281

