# Blender 4.0.0
# www.blender.org
o decimated_mesh
v -0.004224 0.004459 0.009053
v -0.004479 0.006176 0.007303
v -0.004479 0.006007 0.007551
v -0.004479 0.005903 0.007679
v -0.004479 0.004459 0.009234
v -0.005792 0.002168 0.009053
v -0.004480 0.007833 0.003376
v -0.004480 0.008123 0.003376
v -0.004479 0.007128 0.005532
v -0.007653 0.007187 0.003375
v -0.005237 0.003853 0.009053
v -0.005315 0.003728 0.009053
v -0.006130 0.002168 0.009053
v -0.007630 0.002168 0.006045
v -0.009769 0.002545 0.000801
v -0.009854 0.002545 0.000687
v -0.007017 0.007187 0.000809
v -0.007154 0.007187 0.000679
v -0.007348 0.007187 0.000533
v -0.007716 0.007187 0.000282
v -0.007908 0.007187 0.000173
v -0.008106 0.007187 0.000166
v -0.008331 0.007187 0.000216
v -0.008601 0.007187 0.000326
v -0.008785 0.007187 0.000519
v -0.008866 0.007187 0.000750
v -0.008867 0.007187 0.000978
v -0.008790 0.007187 0.001227
v -0.009114 0.006832 0.001299
v -0.008428 0.006376 0.003375
v -0.008634 0.006104 0.003375
v -0.009449 0.004459 0.003773
v -0.006414 0.002168 0.008658
v -0.010060 0.003254 0.003773
v -0.010099 0.003081 0.003773
v -0.010164 0.002545 0.003773
v -0.007898 0.002168 0.006045
v -0.010451 0.002545 0.000156
v -0.010338 0.002545 0.000232
v -0.008961 0.006273 0.000161
v -0.008256 0.007114 0.000169
v -0.008709 0.006657 0.000169
v -0.008729 0.007132 0.000362
v -0.008882 0.007056 0.000444
v -0.009166 0.006885 0.000750
v -0.009166 0.006885 0.000978
v -0.009323 0.006576 0.001206
v -0.010771 0.003775 0.001204
v -0.010860 0.003537 0.001206
v -0.010952 0.002982 0.001323
v -0.011041 0.002545 0.001206
v -0.007256 0.002168 0.007394
v -0.007132 0.002168 0.007610
v -0.007070 0.002168 0.007707
v -0.011080 0.002545 0.000978
v -0.011082 0.002545 0.000750
v -0.011037 0.002545 0.000522
v -0.010978 0.002545 0.000372
v -0.010836 0.002545 0.000281
v -0.010563 0.002545 0.000156
v -0.010304 0.003725 0.000167
v -0.008922 0.006423 0.000171
v -0.009004 0.006499 0.000220
v -0.009024 0.006743 0.000318
v -0.009171 0.006675 0.000363
v -0.009109 0.006827 0.000446
v -0.009345 0.006607 0.000654
v -0.009366 0.006639 0.000806
v -0.009366 0.006639 0.000924
v -0.010748 0.003929 0.000978
v -0.010826 0.003765 0.000978
v -0.010962 0.003465 0.000918
v -0.010959 0.002793 0.000395
v -0.010495 0.003426 0.000179
v -0.009363 0.006406 0.000395
v -0.009324 0.006566 0.000522
v -0.009596 0.006189 0.000932
v -0.009827 0.005738 0.000940
v -0.010828 0.003765 0.000750
v -0.010962 0.003465 0.000806
v -0.010945 0.002945 0.000418
v -0.010958 0.003246 0.000609
v -0.010773 0.003537 0.000353
v -0.010586 0.003516 0.000238
v -0.010745 0.003695 0.000381
v -0.010770 0.003769 0.000528
v -0.010856 0.003537 0.000522
v -0.010937 0.003398 0.000655
vn 0.8608 0.4205 0.2867
vn 0.6995 0.5539 0.4516
vn 0.7844 -0.1152 -0.6095
vn 0.5376 -0.3680 0.7586
vn 0.9990 -0.0000 -0.0451
vn 0.0671 -0.9759 0.2075
vn -0.8663 0.4462 0.2245
vn -0.3983 0.7578 0.5167
vn -0.4776 0.6809 0.5552
vn -0.4184 0.2625 0.8695
vn -0.0000 -0.0789 0.9969
vn -0.7758 0.6310 -0.0000
vn -0.3272 0.9236 0.1999
vn 0.5149 0.5114 -0.6880
vn 0.7111 -0.0000 -0.7031
vn 0.6882 0.1032 -0.7181
vn -0.8679 0.4457 -0.2192
vn -0.9083 0.3548 0.2215
vn -0.1310 0.9835 -0.1249
vn 0.9659 0.2353 0.1082
vn -0.3305 0.3211 -0.8875
vn -0.7406 0.5620 0.3682
vn 0.3702 -0.1915 0.9090
vn -0.0974 0.9892 0.1096
vn -0.0107 -0.9992 -0.0394
vn 0.5467 -0.3016 -0.7811
vn -0.7209 -0.4606 0.5178
vn -0.8934 0.4492 -0.0086
vn -0.2616 -0.9598 0.1015
vn -0.2069 0.9662 0.1539
vn 0.0029 -0.0025 1.0000
vn -0.4221 0.4118 -0.8076
vn -0.9404 0.1334 -0.3129
vn -0.2029 0.3839 -0.9008
vn -0.9741 0.1354 -0.1811
vn -0.4525 0.7803 -0.4317
vn -0.5784 0.6847 -0.4434
vn -0.8888 0.3339 0.3140
vn -0.6465 0.1194 -0.7535
vn 0.9729 -0.1412 -0.1831
vn -0.2464 0.1279 -0.9607
vn -0.4088 -0.8815 0.2364
vn -0.4982 -0.8081 0.3143
vn -0.7747 0.5770 -0.2587
vn -0.5688 0.5835 0.5797
vn -0.1178 0.0957 -0.9884
vn -0.9314 0.2473 -0.2671
vn -0.6988 0.4132 0.5839
vn -0.5831 0.5662 -0.5825
vn 0.9365 0.3088 0.1661
vn -0.2746 0.8615 0.4271
vn -0.8455 0.4351 -0.3097
vn 0.2763 -0.9508 -0.1400
vn -0.7084 0.3655 0.6038
vn 0.4342 0.6603 0.6128
vn -0.7674 0.5090 -0.3898
vn -0.3646 0.1906 0.9114
vn 0.6679 -0.6521 -0.3587
vn 0.7472 -0.5487 -0.3749
vn 0.6372 -0.3719 -0.6751
vn -0.5250 0.0948 -0.8458
vn -0.9918 0.1281 0.0039
vn 0.8831 -0.4524 -0.1244
vn 0.4441 0.6158 -0.6509
vn 0.1893 -0.9813 0.0337
vn -0.6891 0.6783 -0.2549
vn -0.6952 0.6842 0.2203
vn -0.9403 0.1101 0.3222
vn -0.7867 0.1633 -0.5953
vn -0.4373 0.0653 -0.8970
vn 0.3227 0.7580 -0.5669
vn 0.8904 -0.2105 0.4036
vn 0.9257 -0.2169 -0.3098
vn 0.6621 -0.4702 -0.5835
vn -0.7096 0.7046 -0.0010
vn -0.9010 0.3480 -0.2591
vn -0.7859 0.5725 0.2337
vn -0.8301 0.4490 0.3307
vn -0.6341 -0.6376 0.4375
vn 0.1040 0.9945 0.0080
vn 0.4778 -0.2588 -0.8395
vn 0.0104 0.9567 -0.2908
vn -0.4759 0.2484 -0.8437
vn -0.7732 0.5292 0.3494
vn -0.5307 0.6212 0.5766
vn -0.5884 0.5628 0.5806
vn -0.5891 0.5618 0.5808
vn -0.0000 1.0000 -0.0000
vn -0.7398 0.5540 0.3819
vn -0.7142 0.4557 0.5312
vn -0.6979 0.4111 0.5865
vn -0.0509 0.9728 -0.2262
vn -0.0786 0.9778 -0.1940
vn -0.1733 0.9830 -0.0609
vn -0.2084 0.9780 -0.0006
vn -0.2478 0.9658 0.0762
vn -0.2799 0.9485 0.1482
vn -0.2589 0.8771 0.4045
vn -0.2925 0.8422 0.4529
vn -0.6476 0.4914 0.5823
vn -0.6633 0.4693 0.5830
vn -0.6820 0.4278 0.5931
vn -0.7063 0.3692 0.6040
vn -0.7112 0.3607 0.6034
vn -0.7719 0.1767 0.6107
vn -0.7878 0.0948 0.6086
vn -0.6562 0.6698 0.3475
vn -0.6731 0.6438 0.3639
vn -0.0000 0.9980 0.0639
vn -0.0633 0.9936 0.0939
vn -0.1071 0.9877 0.1140
vn -0.6416 0.3745 0.6694
vn -0.6359 0.3712 0.6766
vn -0.5683 0.3169 0.7593
vn -0.5384 0.2957 0.7891
vn -0.5341 0.2932 0.7930
vn 0.0359 -0.0160 -0.9992
vn 0.0064 -0.0011 -1.0000
vn -0.0371 0.0396 -0.9985
vn -0.2956 0.2936 -0.9091
vn -0.3236 0.3122 -0.8932
vn -0.3378 0.3261 -0.8829
vn -0.3515 0.3509 -0.8680
vn -0.4026 0.3989 -0.8239
vn -0.6814 0.6728 -0.2882
vn -0.6909 0.6753 -0.2580
vn -0.6882 0.6840 -0.2420
vn -0.7092 0.7050 -0.0021
vn -0.6937 0.6880 0.2134
vn -0.7100 0.7042 -0.0000
vn -0.6963 0.6816 0.2251
vn -0.7820 0.5093 0.3592
vn -0.7991 0.4823 0.3588
vn -0.8423 0.4353 0.3179
vn -0.8447 0.4284 0.3209
vn -0.9244 0.2188 0.3124
vn -0.9256 0.2118 0.3136
vn -0.9398 0.1131 0.3225
vn -0.3003 -0.9431 0.1429
vn -0.9408 0.1067 0.3217
vn -0.2448 -0.9660 0.0837
vn -0.7797 0.5851 0.2230
vn -0.7923 0.5588 0.2450
vn 0.1605 0.9867 -0.0274
vn 0.1188 0.9929 -0.0007
vn 0.0891 0.9959 0.0174
vn 0.0705 0.9971 0.0280
vn 0.0315 0.9983 0.0493
vn 0.0243 0.9983 0.0529
vn -0.0000 0.0014 -1.0000
vn -0.0361 0.0170 -0.9992
vn -0.0549 0.0545 -0.9970
vn -0.3014 0.2632 -0.9165
vn -0.4689 0.2437 -0.8490
vn -0.4075 0.3105 -0.8588
vn -0.3664 0.1899 -0.9109
vn -0.3842 0.1984 -0.9017
vn -0.4388 0.4228 -0.7929
vn -0.5799 0.5596 -0.5921
vn -0.5896 0.5797 -0.5625
vn -0.7776 0.5558 -0.2940
vn -0.7703 0.5843 -0.2556
vn -0.7650 0.5202 -0.3797
vn -0.7799 0.5818 -0.2308
vn -0.8642 0.4470 0.2310
vn -0.8642 0.4467 0.2315
vn -0.8686 0.4468 0.2142
vn -0.8840 0.4240 0.1970
vn -0.9065 0.3690 0.2050
vn -0.9096 0.3408 0.2375
vn -0.9364 0.2136 0.2783
vn -0.9694 0.1455 0.1978
vn -0.9766 0.1363 0.1665
vn -0.8899 0.4561 -0.0000
vn -0.9918 0.1277 0.0059
vn -0.9917 0.1288 -0.0000
vn -0.9753 0.1372 -0.1731
vn -0.9728 0.1334 -0.1895
vn -0.9456 0.1431 -0.2922
vn -0.9388 0.1351 -0.3169
vn -0.9241 0.1044 -0.3677
vn -0.5365 0.0950 -0.8385
vn -0.5162 0.0947 -0.8512
vn -0.4787 0.0840 -0.8739
vn -0.4169 0.0562 -0.9072
vn -0.1203 0.0354 -0.9921
vn -0.3242 0.1677 -0.9310
vn -0.4926 0.2333 -0.8384
vn -0.4792 0.2480 -0.8419
vn -0.5070 0.2628 -0.8209
vn -0.7694 0.4994 -0.3983
vn -0.8486 0.4379 -0.2968
vn -0.8556 0.4416 -0.2701
vn -0.8687 0.4462 -0.2152
vn -0.8674 0.4454 -0.2220
vn -0.8909 0.4540 -0.0090
vn -0.8911 0.4537 -0.0118
vn -0.8911 0.4536 -0.0110
vn -0.9016 0.4325 0.0079
vn -0.9116 0.4110 0.0080
vn -0.9133 0.4073 -0.0000
vn -0.9036 0.3595 -0.2329
vn -0.9050 0.3420 -0.2529
vn -0.9216 0.2724 -0.2766
vn -0.9449 0.2086 -0.2522
vn -0.9189 0.2261 -0.3233
vn -0.9016 0.2023 -0.3824
vn -0.8774 0.2075 -0.4327
vn -0.8728 0.2300 -0.4304
vn -0.8853 0.3366 -0.3207
vn -0.8318 0.4259 -0.3560
s 0
f 1//1 2//1 3//1
f 1//2 3//2 4//2
f 36//3 35//3 34//3 13//3
f 1//4 5//4 6//4
f 1//5 7//5 8//5
f 24//6 23//6 22//6 8//6
f 69//7 77//7 70//7 71//7 48//7 47//7
f 2//8 10//8 3//8
f 3//9 10//9 4//9
f 5//10 11//10 12//10
f 5//11 13//11 6//11
f 69//12 46//12 45//12 68//12
f 6//13 15//13 14//13
f 18//14 19//14 8//14
f 7//15 17//15 8//15
f 8//16 17//16 18//16
f 67//17 86//17 79//17 68//17
f 72//18 49//18 48//18 71//18
f 8//19 24//19 25//19
f 8//20 9//20 1//20
f 23//21 41//21 42//21 62//21 63//21 64//21 24//21
f 30//22 29//22 31//22
f 63//23 84//23 74//23 61//23 62//23
f 39//24 38//24 14//24 16//24
f 59//25 60//25 38//25 14//25 6//25 13//25 33//25 54//25 53//25 52//25 37//25 58//25
f 19//26 18//26 39//26 38//26 20//26
f 13//27 36//27 33//27
f 71//28 70//28 78//28 77//28 69//28 68//28 79//28 80//28 72//28
f 37//29 52//29 36//29 51//29
f 14//30 15//30 16//30
f 74//31 60//31 38//31 21//31 22//31 41//31 42//31 40//31 61//31
f 64//32 65//32 43//32 24//32
f 82//33 81//33 73//33 58//33 57//33
f 22//34 41//34 23//34
f 82//35 57//35 56//35 80//35
f 24//36 43//36 25//36
f 25//37 43//37 44//37
f 48//38 49//38 34//38
f 83//39 58//39 73//39
f 50//40 51//40 55//40 72//40
f 61//41 62//41 40//41
f 36//42 52//42 53//42
f 36//43 53//43 54//43
f 67//44 68//44 45//44 66//44 76//44
f 10//45 30//45 11//45 5//45 4//45
f 40//46 62//46 42//46
f 82//47 80//47 87//47 88//47
f 16//48 15//48 7//48 17//48
f 44//49 43//49 65//49 66//49
f 9//50 2//50 1//50
f 10//51 2//51 9//51 8//51
f 76//52 75//52 85//52 86//52 67//52
f 28//53 27//53 8//53 10//53
f 13//54 12//54 32//54 34//54
f 5//55 1//55 4//55
f 76//56 66//56 65//56 75//56
f 12//57 13//57 5//57
f 29//58 28//58 10//58 30//58
f 6//59 15//59 7//59 1//59
f 39//60 18//60 17//60 16//60
f 59//61 58//61 83//61 84//61
f 72//62 80//62 56//62 55//62
f 70//63 78//63 77//63
f 19//64 20//64 8//64
f 26//65 25//65 8//65 27//65
f 45//66 26//66 25//66 44//66 66//66
f 29//67 28//67 27//67 46//67
f 51//68 36//68 35//68 50//68
f 73//69 81//69 83//69
f 59//70 84//70 74//70 60//70
f 21//71 8//71 20//71
f 81//72 83//72 85//72 87//72 88//72 82//72
f 34//73 35//73 50//73 72//73 49//73
f 31//74 30//74 11//74 12//74 32//74
f 46//75 27//75 26//75 45//75
f 87//76 80//76 79//76 86//76 85//76
f 46//77 69//77 47//77 29//77
f 34//78 32//78 31//78 29//78 47//78 48//78
f 36//79 54//79 33//79
f 56//80 55//80 51//80 37//80 58//80 57//80
f 38//81 21//81 20//81
f 21//82 22//82 8//82
f 75//83 65//83 64//83 63//83 84//83 83//83 85//83
f 6//84 1//84 7//84
f 4//85 10//85 5//85
f 10//86 30//86 5//86
f 30//87 11//87 5//87
f 13//88 54//88 33//88
f 13//88 53//88 54//88
f 13//88 52//88 53//88
f 13//88 37//88 52//88
f 13//88 14//88 37//88
f 13//88 6//88 14//88
f 15//89 6//89 7//89
f 15//90 7//90 16//90
f 16//91 7//91 17//91
f 22//92 23//92 8//92
f 23//93 24//93 8//93
f 25//94 26//94 8//94
f 26//95 27//95 8//95
f 27//96 28//96 8//96
f 28//97 10//97 8//97
f 10//98 9//98 8//98
f 10//99 2//99 9//99
f 30//100 31//100 11//100
f 31//101 32//101 11//101
f 32//102 12//102 11//102
f 32//103 13//103 12//103
f 32//104 34//104 13//104
f 34//105 35//105 13//105
f 35//106 36//106 13//106
f 28//107 29//107 10//107
f 29//108 30//108 10//108
f 37//109 38//109 60//109
f 37//109 14//109 38//109
f 38//110 14//110 39//110
f 39//111 14//111 16//111
f 16//112 17//112 18//112
f 39//113 16//113 18//113
f 39//114 18//114 19//114
f 39//115 19//115 20//115
f 39//116 20//116 38//116
f 38//117 22//117 21//117
f 38//118 40//118 22//118
f 40//119 41//119 22//119
f 41//120 42//120 23//120
f 42//121 63//121 23//121
f 63//122 64//122 23//122
f 64//123 24//123 23//123
f 64//124 43//124 24//124
f 44//125 66//125 25//125
f 66//126 45//126 25//126
f 45//127 26//127 25//127
f 45//128 27//128 26//128
f 46//129 28//129 27//129
f 45//130 46//130 27//130
f 46//131 29//131 28//131
f 29//132 47//132 31//132
f 47//133 32//133 31//133
f 47//134 48//134 32//134
f 48//135 34//135 32//135
f 49//136 50//136 34//136
f 50//137 35//137 34//137
f 50//138 36//138 35//138
f 37//139 52//139 36//139
f 50//140 51//140 36//140
f 51//141 37//141 36//141
f 46//142 69//142 29//142
f 69//143 47//143 29//143
f 51//144 37//144 55//144
f 55//145 37//145 56//145
f 56//146 37//146 57//146
f 57//147 37//147 58//147
f 58//148 37//148 59//148
f 59//149 37//149 60//149
f 60//150 40//150 38//150
f 60//151 61//151 40//151
f 42//152 41//152 40//152
f 62//153 63//153 42//153
f 84//154 65//154 63//154
f 65//155 64//155 63//155
f 62//156 74//156 63//156
f 74//157 84//157 63//157
f 65//158 43//158 64//158
f 65//159 66//159 43//159
f 66//160 44//160 43//160
f 76//161 67//161 66//161
f 67//162 45//162 66//162
f 65//163 76//163 66//163
f 67//164 68//164 45//164
f 68//12 69//12 46//12
f 68//12 46//12 45//12
f 69//165 77//165 47//165
f 77//166 48//166 47//166
f 77//167 70//167 48//167
f 70//168 71//168 48//168
f 71//169 72//169 48//169
f 72//170 49//170 48//170
f 72//171 50//171 49//171
f 72//172 51//172 50//172
f 72//173 55//173 51//173
f 68//174 77//174 69//174
f 72//175 56//175 55//175
f 72//176 80//176 56//176
f 80//177 82//177 56//177
f 82//178 57//178 56//178
f 82//179 81//179 57//179
f 81//180 73//180 57//180
f 73//181 58//181 57//181
f 83//182 59//182 58//182
f 83//183 84//183 59//183
f 84//184 74//184 59//184
f 74//185 60//185 59//185
f 74//186 61//186 60//186
f 74//187 62//187 61//187
f 83//188 85//188 84//188
f 85//189 65//189 84//189
f 85//190 75//190 65//190
f 75//191 76//191 65//191
f 75//192 86//192 76//192
f 86//193 67//193 76//193
f 79//194 68//194 67//194
f 86//195 79//195 67//195
f 78//196 77//196 68//196
f 79//197 78//197 68//197
f 78//198 79//198 70//198
f 79//199 71//199 70//199
f 79//200 72//200 71//200
f 79//201 80//201 72//201
f 79//202 86//202 80//202
f 86//203 87//203 80//203
f 87//204 88//204 80//204
f 88//205 82//205 80//205
f 88//206 87//206 82//206
f 87//207 81//207 82//207
f 87//208 83//208 81//208
f 87//209 85//209 83//209
f 87//210 86//210 85//210
f 86//211 75//211 85//211
