# Blender 4.0.0
# www.blender.org
o decimated_mesh
v 0.005789 -0.000002 0.014745
v 0.005789 -0.000002 0.014457
v 0.005789 -0.000114 0.014745
v 0.005789 -0.004449 0.013463
v 0.000002 -0.001768 0.015445
v 0.005589 -0.000002 0.014865
v 0.005789 -0.004449 0.013797
v 0.000002 -0.004449 0.014972
v 0.000002 -0.001768 0.015547
v 0.001710 -0.000002 0.015515
v 0.005589 -0.000114 0.014865
v 0.005359 -0.000002 0.014972
v 0.005789 -0.002395 0.014467
v 0.000002 -0.004449 0.015220
v 0.000002 -0.001939 0.015622
v 0.001696 -0.000002 0.015645
v 0.005345 -0.000131 0.014975
v 0.002167 -0.004449 0.015105
v 0.001871 -0.000002 0.015704
v 0.005258 -0.000002 0.015011
v 0.005150 -0.002404 0.014842
v 0.005789 -0.004203 0.013900
v 0.002396 -0.004449 0.015085
v 0.003079 -0.000002 0.015570
v 0.004810 -0.002313 0.015014
v 0.004894 -0.002392 0.014961
v 0.005084 -0.002623 0.014816
v 0.002640 -0.004449 0.015044
v 0.001255 -0.002851 0.015580
v 0.000002 -0.003080 0.015568
v 0.002852 -0.001255 0.015584
v 0.004905 -0.002623 0.014890
v 0.001483 -0.002851 0.015563
v 0.000002 -0.003192 0.015551
v 0.002780 -0.004449 0.015014
vn 1.0000 -0.0000 -0.0000
vn -0.0005 -1.0000 -0.0010
vn 0.0223 -0.0346 0.9992
vn 0.7187 -0.6953 -0.0000
vn -0.2363 0.2074 -0.9493
vn 0.4268 -0.3635 -0.8281
vn 0.7173 -0.6924 0.0780
vn 0.4180 -0.0120 0.9084
vn 0.0001 -1.0000 0.0003
vn 0.4736 -0.0993 0.8751
vn 0.0534 -0.2551 0.9654
vn -0.3440 0.3415 -0.8747
vn 0.5138 -0.0000 0.8579
vn 0.1840 -0.1740 0.9674
vn 0.4941 -0.2590 0.8299
vn 0.3878 -0.2399 0.8900
vn -0.0000 1.0000 -0.0000
vn 0.2546 -0.0439 0.9660
vn -0.0000 -1.0000 -0.0000
vn 0.2271 -0.2125 0.9504
vn 0.2416 -0.2704 0.9319
vn 0.4229 -0.0000 0.9062
vn 0.5110 -0.1041 0.8532
vn 0.2487 -0.1685 0.9538
vn 0.7216 -0.6923 -0.0000
vn 0.7150 -0.6948 0.0778
vn 0.3578 -0.0155 0.9337
vn 0.4139 -0.0220 0.9100
vn 0.4161 -0.0861 0.9052
vn 0.4297 -0.0914 0.8983
vn 0.5046 -0.1053 0.8569
vn 0.4928 -0.2499 0.8335
vn 0.4942 -0.2600 0.8296
vn 0.3494 -0.3631 0.8637
vn -0.3097 0.2601 0.9146
vn 0.3029 -0.0575 0.9513
vn 0.2486 -0.0347 0.9680
vn 0.2551 -0.0483 0.9657
vn 0.3295 -0.2624 0.9070
vn 0.4074 -0.1722 0.8969
vn 0.1877 -0.1734 0.9668
vn 0.1883 -0.1778 0.9659
vn 0.2027 -0.1925 0.9601
vn 0.2919 -0.2773 0.9154
vn 0.4003 -0.2281 0.8875
vn 0.3598 -0.3423 0.8680
vn 0.3503 -0.3485 0.8694
vn 0.3702 -0.2562 0.8929
vn 0.0511 -0.2575 0.9649
vn 0.0474 -0.2548 0.9658
vn -0.0008 -0.0477 0.9989
vn 0.0019 -0.0440 0.9990
vn 0.1100 -0.0093 0.9939
vn 0.0522 -0.0548 0.9971
vn 0.0708 -0.0735 0.9948
vn 0.0688 -0.2478 0.9664
vn 0.0860 -0.2406 0.9668
vn 0.1619 -0.1972 0.9669
vn 0.0059 -0.9989 0.0459
vn 0.0170 -0.1450 0.9893
s 0
f 22//1 7//1 4//1 2//1 1//1 3//1 13//1
f 28//2 23//2 4//2 7//2 35//2
f 31//3 24//3 19//3 16//3 15//3 30//3 34//3 29//3
f 15//1 30//1 34//1 14//1 8//1 5//1 9//1
f 5//4 10//4 9//4
f 5//5 10//5 2//5 4//5 8//5
f 9//6 16//6 15//6
f 9//7 10//7 16//7
f 12//8 17//8 11//8 6//8
f 14//9 8//9 4//9 23//9 18//9
f 21//10 13//10 3//10 11//10 17//10 25//10 26//10
f 33//11 29//11 34//11 14//11 18//11 23//11
f 22//12 7//12 35//12 25//12 26//12 32//12 27//12
f 11//13 3//13 1//13 6//13
f 28//14 35//14 25//14 31//14 29//14 33//14 23//14
f 21//15 27//15 22//15 13//15
f 26//16 32//16 27//16 21//16
f 10//17 16//17 19//17 24//17 20//17 12//17 6//17 1//17 2//17
f 20//18 24//18 31//18 25//18 17//18 12//18
f 2//19 16//19 10//19
f 2//19 19//19 16//19
f 2//19 24//19 19//19
f 2//19 20//19 24//19
f 2//19 12//19 20//19
f 2//19 6//19 12//19
f 2//19 1//19 6//19
f 6//13 11//13 3//13
f 6//13 3//13 1//13
f 3//1 13//1 22//1
f 3//1 22//1 7//1
f 3//1 7//1 4//1
f 3//1 4//1 2//1
f 3//1 2//1 1//1
f 4//20 2//20 5//20
f 5//21 2//21 10//21
f 12//22 11//22 6//22
f 11//23 13//23 3//23
f 7//19 35//19 28//19
f 7//19 28//19 18//19
f 7//19 18//19 14//19
f 7//19 14//19 8//19
f 7//19 8//19 4//19
f 8//24 4//24 5//24
f 8//1 34//1 14//1
f 8//1 30//1 34//1
f 8//1 15//1 30//1
f 8//1 9//1 15//1
f 8//1 5//1 9//1
f 9//25 5//25 16//25
f 16//26 5//26 10//26
f 20//27 17//27 12//27
f 17//28 11//28 12//28
f 17//29 25//29 11//29
f 25//30 21//30 11//30
f 21//31 13//31 11//31
f 21//32 27//32 13//32
f 27//33 22//33 13//33
f 22//34 35//34 7//34
f 15//35 19//35 16//35
f 25//36 17//36 20//36
f 24//37 31//37 20//37
f 31//38 25//38 20//38
f 32//39 26//39 25//39
f 26//40 21//40 25//40
f 31//41 33//41 25//41
f 33//42 28//42 25//42
f 28//43 35//43 25//43
f 35//44 32//44 25//44
f 26//45 27//45 21//45
f 27//46 32//46 22//46
f 32//47 35//47 22//47
f 26//48 32//48 27//48
f 18//49 29//49 14//49
f 29//50 34//50 14//50
f 30//51 29//51 15//51
f 29//52 19//52 15//52
f 31//53 24//53 19//53
f 29//54 31//54 19//54
f 29//55 33//55 31//55
f 29//56 18//56 33//56
f 18//57 23//57 33//57
f 23//58 28//58 33//58
f 23//59 18//59 28//59
f 30//60 34//60 29//60
