# Blender 4.0.0
# www.blender.org
o decimated_mesh
v 0.005947 -0.009730 0.000836
v 0.005946 -0.009606 0.000391
v 0.005789 -0.004447 0.013798
v 0.006590 -0.009338 0.000535
v 0.006754 -0.009301 0.000758
v 0.005946 -0.007796 0.008379
v 0.005948 -0.006493 0.011375
v 0.005789 -0.003139 0.013954
v 0.005946 -0.008981 0.000169
v 0.005947 -0.009230 0.000181
v 0.006652 -0.009198 0.000357
v 0.006722 -0.009326 0.000953
v 0.005966 -0.004577 0.013637
v 0.006173 -0.004275 0.013649
v 0.008906 -0.003139 0.002498
v 0.005946 -0.007163 0.002724
v 0.005946 -0.008348 0.000667
v 0.005787 -0.003141 0.014257
v 0.010142 -0.003139 0.000317
v 0.010345 -0.003139 0.000174
v 0.006417 -0.008939 0.000167
v 0.006834 -0.009113 0.000434
v 0.009166 -0.006887 0.000978
v 0.007193 -0.005214 0.011384
v 0.009629 -0.003139 0.000857
v 0.010544 -0.003139 0.000175
v 0.009165 -0.006887 0.000751
v 0.009376 -0.006635 0.000871
v 0.005937 -0.004114 0.013868
v 0.007536 -0.005484 0.010004
v 0.010489 -0.003443 0.000175
v 0.008938 -0.006394 0.000165
v 0.009156 -0.006721 0.000378
v 0.006725 -0.003139 0.013683
v 0.010762 -0.003660 0.000376
v 0.009310 -0.006524 0.000406
v 0.008275 -0.003140 0.011376
v 0.010895 -0.003140 0.000410
v 0.010908 -0.003451 0.000593
v 0.010947 -0.003546 0.000843
v 0.009318 -0.003139 0.008276
v 0.011020 -0.003140 0.000836
vn 0.9522 -0.1242 -0.2791
vn 0.4656 -0.8843 -0.0351
vn 0.5246 -0.5247 -0.6704
vn 0.8670 -0.4431 -0.2281
vn 0.5032 -0.2689 0.8213
vn -0.7924 0.5707 -0.2156
vn 0.7671 -0.5452 0.3380
vn -0.5264 0.3970 -0.7518
vn -0.9999 -0.0037 -0.0107
vn 0.4229 -0.8778 0.2250
vn 0.6390 -0.4738 0.6060
vn 0.6781 -0.6653 -0.3123
vn 0.7180 -0.6563 0.2317
vn 0.4762 -0.3796 0.7932
vn 0.7624 -0.3955 0.5122
vn -0.9847 -0.1594 0.0699
vn -0.0055 0.0050 -1.0000
vn 0.7931 -0.5637 0.2308
vn 0.8921 -0.2004 -0.4048
vn -0.9966 -0.0799 0.0205
vn 0.8526 -0.4367 0.2870
vn 0.5553 -0.0870 -0.8271
vn 0.9609 -0.1682 0.2197
vn 0.7672 -0.6414 -0.0017
vn 0.7076 -0.7066 -0.0016
vn 0.4188 -0.8746 -0.2442
vn 0.3433 -0.3398 -0.8756
vn 0.4659 -0.2421 -0.8511
vn 0.9601 -0.1749 -0.2180
vn 0.8660 -0.4416 -0.2346
vn 0.5746 -0.2260 0.7866
vn -0.0001 -1.0000 -0.0000
vn -0.0003 -1.0000 -0.0002
vn -0.0002 -1.0000 -0.0000
vn -0.0003 -1.0000 -0.0003
vn -0.0003 -1.0000 -0.0005
vn -0.0002 -1.0000 -0.0004
vn -0.0003 -1.0000 -0.0001
vn -0.0000 -1.0000 -0.0000
vn 0.0018 1.0000 0.0058
vn 0.7682 -0.5547 0.3196
vn 0.5745 -0.7618 -0.2994
vn 0.9999 -0.0018 0.0146
vn 1.0000 0.0001 -0.0000
vn 0.9998 -0.0127 0.0173
vn 1.0000 -0.0000 -0.0002
vn 1.0000 -0.0004 -0.0006
vn -1.0000 0.0008 -0.0061
vn 0.5190 -0.7507 -0.4086
vn 0.0244 -0.7629 0.6461
vn 0.6401 -0.4749 0.6039
vn 0.6944 -0.4983 0.5192
vn 0.6886 -0.6883 -0.2284
vn 0.2384 -0.4240 -0.8737
vn 0.4271 -0.7774 -0.4618
vn 0.6826 -0.6665 0.2998
vn 0.6799 -0.6726 0.2922
vn 0.6889 -0.6924 0.2145
vn 0.4709 -0.3554 0.8074
vn 0.7691 -0.3887 0.5074
vn -0.0029 0.0016 1.0000
vn -0.0062 0.0001 1.0000
vn -0.0042 0.0035 -1.0000
vn 0.0004 -0.0466 -0.9989
vn 0.2835 -0.3179 0.9047
vn 0.7979 -0.5512 -0.2442
vn 0.7760 -0.5690 -0.2722
vn 0.8473 -0.4406 0.2966
vn 0.8490 -0.4753 0.2309
vn 0.8713 -0.4412 0.2150
vn 0.5364 -0.0992 -0.8381
vn 0.2343 -0.4759 -0.8477
vn 0.7061 -0.7076 0.0264
vn 0.8991 -0.3431 -0.2719
vn 0.6163 -0.6032 0.5063
vn 0.4462 -0.8753 -0.1864
vn 0.3389 -0.3364 -0.8786
vn 0.4465 -0.2356 -0.8632
vn 0.4659 -0.2422 -0.8511
vn 0.9998 0.0185 0.0046
vn 0.9999 0.0035 0.0104
vn 0.4569 -0.3740 0.8071
vn 0.9999 -0.0015 0.0120
vn 0.9998 -0.0136 0.0172
vn 0.6404 -0.4748 0.6037
vn 0.6389 -0.4741 0.6059
vn 0.4863 -0.3655 0.7937
vn 0.5393 -0.2856 0.7922
vn 0.5055 -0.2520 0.8252
vn 0.9973 -0.0641 0.0369
vn 0.0002 -1.0000 0.0002
vn 0.0001 -1.0000 -0.0000
vn -0.0002 -1.0000 -0.0001
vn 0.0004 -1.0000 -0.0000
vn -0.0005 -1.0000 -0.0001
vn -0.0004 -1.0000 -0.0002
vn -0.0002 -1.0000 -0.0006
vn -0.0029 -0.0014 1.0000
vn -0.0126 0.0034 0.9999
vn 0.4485 -0.2329 -0.8629
vn 0.4638 -0.2440 -0.8517
vn 0.7724 -0.5503 0.3171
vn 0.7632 -0.5518 0.3362
vn 0.4735 -0.2491 -0.8449
vn 0.7653 -0.3871 0.5142
vn 0.7643 -0.3966 0.5085
s 0
f 42//1 39//1 38//1
f 12//2 1//2 5//2
f 33//3 22//3 11//3
f 36//4 40//4 28//4
f 14//5 34//5 18//5
f 8//6 15//6 16//6
f 25//7 15//7 16//7
f 9//8 19//8 20//8
f 2//9 9//9 10//9
f 12//10 6//10 1//10
f 19//11 25//11 17//11
f 27//12 22//12 33//12
f 23//13 30//13 6//13
f 14//14 29//14 3//14
f 37//15 34//15 24//15
f 6//16 7//16 3//16
f 9//17 20//17 32//17
f 23//18 28//18 30//18
f 39//19 35//19 38//19
f 6//20 3//20 1//20
f 41//21 37//21 30//21
f 35//22 26//22 38//22
f 42//23 41//23 40//23
f 28//24 23//24 27//24
f 23//25 5//25 27//25
f 4//26 1//26 2//26
f 11//27 32//27 33//27
f 32//28 31//28 36//28
f 42//29 40//29 39//29
f 36//30 35//30 40//30
f 18//31 29//31 14//31
f 34//32 8//32 37//32
f 37//33 8//33 41//33
f 41//34 15//34 42//34
f 42//35 19//35 38//35
f 38//36 19//36 26//36
f 19//37 20//37 26//37
f 19//35 42//35 25//35
f 25//38 42//38 15//38
f 15//39 41//39 8//39
f 8//40 18//40 34//40
f 25//41 16//41 17//41
f 4//42 22//42 5//42
f 8//43 3//43 16//43
f 16//44 1//44 17//44
f 3//45 1//45 16//45
f 17//46 1//46 9//46
f 2//47 9//47 1//47
f 3//48 18//48 8//48
f 11//49 22//49 4//49
f 3//50 7//50 13//50
f 19//51 17//51 9//51
f 24//52 14//52 13//52
f 27//53 5//53 22//53
f 10//54 21//54 11//54
f 4//55 2//55 11//55
f 24//56 7//56 30//56
f 7//57 6//57 30//57
f 6//58 12//58 23//58
f 3//59 13//59 14//59
f 34//60 14//60 24//60
f 26//61 20//61 31//61
f 31//62 20//62 32//62
f 32//63 21//63 9//63
f 21//64 10//64 9//64
f 29//65 18//65 3//65
f 36//66 28//66 27//66
f 27//67 33//67 36//67
f 37//68 24//68 30//68
f 30//69 28//69 41//69
f 28//70 40//70 41//70
f 35//71 31//71 26//71
f 10//72 11//72 2//72
f 23//73 12//73 5//73
f 40//74 35//74 39//74
f 13//75 7//75 24//75
f 4//76 5//76 1//76
f 21//77 32//77 11//77
f 35//78 36//78 31//78
f 36//79 33//79 32//79
f 3//80 1//80 2//80
f 3//81 2//81 9//81
f 13//82 29//82 3//82
f 8//83 3//83 9//83
f 8//84 9//84 17//84
f 17//85 9//85 25//85
f 25//86 9//86 19//86
f 14//87 29//87 13//87
f 14//88 34//88 29//88
f 34//89 18//89 29//89
f 16//90 8//90 17//90
f 34//32 8//32 20//32
f 20//39 8//39 15//39
f 25//91 19//91 20//91
f 25//92 20//92 15//92
f 34//93 20//93 37//93
f 37//94 20//94 41//94
f 41//95 20//95 42//95
f 42//96 20//96 38//96
f 38//97 20//97 26//97
f 26//98 20//98 32//98
f 26//99 32//99 31//99
f 31//100 35//100 32//100
f 35//101 33//101 32//101
f 16//102 17//102 15//102
f 15//103 17//103 25//103
f 35//104 36//104 33//104
f 34//105 14//105 37//105
f 14//106 24//106 37//106
