mtllib material.mtl
usemtl material_0
v -0.00009000 -0.03188000 0.10831000
v -0.38989000 -0.03181000 -0.11766000
v -0.38989000 -0.03188000 0.09271000
v -0.00009000 -0.03181000 -0.11766000
v 0.38971000 -0.03188000 0.09271000
v 0.38971000 -0.03181000 -0.11766000
v 0.38971000 0.05899000 0.09274000
v 0.38971000 0.05906000 -0.11763000
v 0.38971000 -0.03181000 -0.11766000
v 0.38971000 -0.03188000 0.09271000
v -0.00009000 0.07085000 0.11378000
v -0.00009000 -0.04375000 0.11374000
v -0.40196000 -0.04374000 0.09765000
v -0.40196000 0.07085000 0.09769000
v -0.00009000 -0.04375000 0.11374000
v -0.00009000 0.07085000 0.11378000
v 0.40178000 0.07085000 0.09769000
v 0.40178000 -0.04374000 0.09765000
v -0.40174000 -0.04374000 0.09223000
v -0.40196000 -0.04374000 0.09765000
v -0.00009000 -0.04375000 0.11374000
v -0.00009000 -0.04375000 0.10831000
v -0.00009000 -0.04375000 0.10831000
v -0.00009000 -0.04375000 0.11374000
v 0.40178000 -0.04374000 0.09765000
v 0.40157000 -0.04374000 0.09223000
v 0.40157000 -0.04374000 0.09223000
v 0.40178000 -0.04374000 0.09765000
v 0.40178000 0.07085000 0.09769000
v 0.40157000 0.07085000 0.09227000
v -0.40174000 0.07085000 0.09227000
v -0.40196000 0.07085000 0.09769000
v -0.40196000 -0.04374000 0.09765000
v -0.40174000 -0.04374000 0.09223000
v -0.00009000 0.07085000 0.10835000
v -0.40196000 0.07085000 0.09769000
v -0.40174000 0.07085000 0.09227000
v -0.00009000 0.07085000 0.11378000
v 0.40157000 0.07085000 0.09227000
v 0.40178000 0.07085000 0.09769000
v 0.38971000 0.05899000 0.09274000
v -0.00009000 0.07085000 0.10835000
v -0.00009000 0.05899000 0.10834000
v 0.40157000 0.07085000 0.09227000
v 0.38971000 -0.03188000 0.09271000
v 0.40157000 -0.04374000 0.09223000
v -0.00009000 -0.03188000 0.10831000
v -0.00009000 -0.04375000 0.10831000
v -0.00009000 0.05899000 0.10834000
v -0.00009000 0.07085000 0.10835000
v -0.40174000 0.07085000 0.09227000
v -0.38989000 0.05899000 0.09274000
v -0.38989000 -0.03188000 0.09271000
v -0.00009000 -0.04375000 0.10831000
v -0.00009000 -0.03188000 0.10831000
v -0.40174000 -0.04374000 0.09223000
v -0.38989000 0.05899000 0.09274000
v -0.40174000 0.07085000 0.09227000
v -0.00009000 0.05906000 -0.11763000
v -0.38989000 0.05906000 -0.11763000
v -0.38989000 -0.03181000 -0.11766000
v -0.00009000 -0.03181000 -0.11766000
v 0.38971000 0.05906000 -0.11763000
v 0.38971000 -0.03181000 -0.11766000
v -0.38989000 -0.03188000 0.09271000
v -0.38989000 -0.03181000 -0.11766000
v -0.38989000 0.05906000 -0.11763000
v -0.38989000 0.05899000 0.09274000
v 0.37909000 0.05906000 -0.10701000
v 0.37909000 -0.01926000 -0.10704000
v 0.01053000 -0.01926000 -0.10704000
v 0.01053000 0.05906000 -0.10701000
v 0.01053000 0.05906000 -0.10701000
v 0.01053000 -0.01926000 -0.10704000
v 0.01053000 -0.01933000 0.09727000
v 0.01053000 0.05899000 0.09729000
v -0.01071000 0.05899000 0.09729000
v -0.38989000 0.05899000 0.09274000
v -0.37927000 0.05900000 0.08254000
v -0.00009000 0.05899000 0.10834000
v -0.01071000 0.05906000 -0.10701000
v -0.00009000 0.05906000 -0.11763000
v 0.01053000 0.05899000 0.09729000
v 0.37909000 0.05900000 0.08254000
v 0.01053000 0.05906000 -0.10701000
v 0.38971000 0.05899000 0.09274000
v 0.38971000 0.05906000 -0.11763000
v 0.37909000 0.05906000 -0.10701000
v -0.37927000 0.05906000 -0.10701000
v -0.00009000 0.05906000 -0.11763000
v -0.01071000 0.05906000 -0.10701000
v -0.38989000 0.05906000 -0.11763000
v -0.37927000 0.05900000 0.08254000
v -0.38989000 0.05899000 0.09274000
v -0.37927000 -0.01932000 0.08251000
v -0.37927000 -0.01926000 -0.10704000
v -0.01071000 -0.01926000 -0.10704000
v -0.01071000 -0.01933000 0.09727000
v 0.01053000 -0.01933000 0.09727000
v 0.01053000 -0.01926000 -0.10704000
v 0.37909000 -0.01926000 -0.10704000
v 0.37909000 -0.01932000 0.08251000
v -0.37927000 0.05906000 -0.10701000
v -0.37927000 -0.01926000 -0.10704000
v -0.37927000 -0.01932000 0.08251000
v -0.37927000 0.05900000 0.08254000
v -0.37927000 0.05900000 0.08254000
v -0.37927000 -0.01932000 0.08251000
v -0.01071000 -0.01933000 0.09727000
v -0.01071000 0.05899000 0.09729000
v 0.37909000 0.05900000 0.08254000
v 0.37909000 -0.01932000 0.08251000
v 0.37909000 -0.01926000 -0.10704000
v 0.37909000 0.05906000 -0.10701000
v -0.01071000 0.05899000 0.09729000
v -0.01071000 -0.01933000 0.09727000
v -0.01071000 -0.01926000 -0.10704000
v -0.01071000 0.05906000 -0.10701000
v 0.01053000 0.05899000 0.09729000
v 0.01053000 -0.01933000 0.09727000
v 0.37909000 -0.01932000 0.08251000
v 0.37909000 0.05900000 0.08254000
v -0.01071000 0.05906000 -0.10701000
v -0.01071000 -0.01926000 -0.10704000
v -0.37927000 -0.01926000 -0.10704000
v -0.37927000 0.05906000 -0.10701000
vn 0.00000000 -1.00000000 -0.00034558
vn 0.00000000 -1.00000000 -0.00034558
vn 0.00000000 -1.00000000 -0.00034558
vn 0.00000000 -1.00000000 -0.00034558
vn 0.00000000 -1.00000000 -0.00034558
vn 0.00000000 -1.00000000 -0.00034558
vn 1.00000000 0.00000000 0.00000000
vn 1.00000000 0.00000000 0.00000000
vn 1.00000000 0.00000000 0.00000000
vn 1.00000000 0.00000000 0.00000000
vn -0.03999237 -0.00034530 0.99919990
vn -0.03999237 -0.00034530 0.99919990
vn -0.03999237 -0.00034530 0.99919990
vn -0.03999237 -0.00034530 0.99919990
vn 0.03999237 -0.00034530 0.99919990
vn 0.03999237 -0.00034530 0.99919990
vn 0.03999237 -0.00034530 0.99919990
vn 0.03999237 -0.00034530 0.99919990
vn 0.00000000 -1.00000000 -0.00034558
vn 0.00000000 -1.00000000 -0.00034558
vn 0.00000000 -1.00000000 -0.00034558
vn 0.00000000 -1.00000000 -0.00034558
vn 0.00000000 -1.00000000 -0.00034558
vn 0.00000000 -1.00000000 -0.00034558
vn 0.00000000 -1.00000000 -0.00034558
vn 0.00000000 -1.00000000 -0.00034558
vn 0.99919980 0.00001382 -0.03999620
vn 0.99919980 0.00001382 -0.03999620
vn 0.99919980 0.00001382 -0.03999620
vn 0.99919980 0.00001382 -0.03999620
vn -0.99919980 0.00001382 -0.03999620
vn -0.99919980 0.00001382 -0.03999620
vn -0.99919980 0.00001382 -0.03999620
vn -0.99919980 0.00001382 -0.03999620
vn 0.00000000 1.00000000 0.00034558
vn 0.00000000 1.00000000 0.00034558
vn 0.00000000 1.00000000 0.00034558
vn 0.00000000 1.00000000 0.00034558
vn 0.00000000 1.00000000 0.00034558
vn 0.00000000 1.00000000 0.00034558
vn -0.03999241 0.00034530 -0.99919990
vn -0.03999241 0.00034530 -0.99919990
vn -0.03999241 0.00034530 -0.99919990
vn -0.03999241 0.00034530 -0.99919990
vn -0.03999241 0.00034530 -0.99919990
vn -0.03999241 0.00034530 -0.99919990
vn -0.03999241 0.00034530 -0.99919990
vn -0.03999241 0.00034530 -0.99919990
vn 0.03999241 0.00034530 -0.99919990
vn 0.03999241 0.00034530 -0.99919990
vn 0.03999241 0.00034530 -0.99919990
vn 0.03999241 0.00034530 -0.99919990
vn 0.03999241 0.00034530 -0.99919990
vn 0.03999241 0.00034530 -0.99919990
vn 0.03999241 0.00034530 -0.99919990
vn 0.03999241 0.00034530 -0.99919990
vn 0.03999241 0.00034530 -0.99919990
vn 0.03999241 0.00034530 -0.99919990
vn 0.00000000 0.00034558 -1.00000000
vn 0.00000000 0.00034558 -1.00000000
vn 0.00000000 0.00034558 -1.00000000
vn 0.00000000 0.00034558 -1.00000000
vn 0.00000000 0.00034558 -1.00000000
vn 0.00000000 0.00034558 -1.00000000
vn -1.00000000 0.00000000 0.00000000
vn -1.00000000 0.00000000 0.00000000
vn -1.00000000 0.00000000 0.00000000
vn -1.00000000 0.00000000 0.00000000
vn 0.00000000 -0.00034558 1.00000000
vn 0.00000000 -0.00034558 1.00000000
vn 0.00000000 -0.00034558 1.00000000
vn 0.00000000 -0.00034558 1.00000000
vn 1.00000000 0.00000000 0.00000000
vn 1.00000000 0.00000000 0.00000000
vn 1.00000000 0.00000000 0.00000000
vn 1.00000000 0.00000000 0.00000000
vn 0.00000000 1.00000000 0.00034558
vn 0.00000000 1.00000000 0.00034558
vn 0.00000000 1.00000000 0.00034558
vn 0.00000000 1.00000000 0.00034558
vn -0.00000046 1.00000000 0.00034558
vn 0.00000000 1.00000000 0.00034558
vn 0.00000000 1.00000000 0.00034558
vn 0.00000000 1.00000000 0.00034558
vn 0.00000000 1.00000000 0.00034558
vn 0.00000000 1.00000000 0.00034558
vn 0.00000000 1.00000000 0.00034558
vn 0.00000000 1.00000000 0.00034558
vn 0.00000000 1.00000000 0.00034558
vn 0.00000000 1.00000000 0.00034558
vn -0.00000046 1.00000000 0.00034558
vn 0.00000000 1.00000000 0.00034558
vn 0.00000000 1.00000000 0.00034558
vn 0.00000000 1.00000000 0.00034558
vn 0.00000000 1.00000000 0.00034558
vn 0.00000000 1.00000000 0.00034558
vn 0.00000000 1.00000000 0.00034558
vn 0.00000000 1.00000000 0.00034558
vn 0.00000000 1.00000000 0.00034558
vn 0.00000000 1.00000000 0.00034558
vn 0.00000000 1.00000000 0.00034558
vn 0.00000000 1.00000000 0.00034558
vn 1.00000000 0.00000000 0.00000000
vn 1.00000000 0.00000000 0.00000000
vn 1.00000000 0.00000000 0.00000000
vn 1.00000000 0.00000000 0.00000000
vn 0.03999240 0.00034530 -0.99919990
vn 0.03999240 0.00034530 -0.99919990
vn 0.03999240 0.00034530 -0.99919990
vn 0.03999240 0.00034530 -0.99919990
vn -1.00000000 0.00000000 0.00000000
vn -1.00000000 0.00000000 0.00000000
vn -1.00000000 0.00000000 0.00000000
vn -1.00000000 0.00000000 0.00000000
vn -1.00000000 0.00000000 0.00000000
vn -1.00000000 0.00000000 0.00000000
vn -1.00000000 0.00000000 0.00000000
vn -1.00000000 0.00000000 0.00000000
vn -0.03999240 0.00034530 -0.99919990
vn -0.03999240 0.00034530 -0.99919990
vn -0.03999240 0.00034530 -0.99919990
vn -0.03999240 0.00034530 -0.99919990
vn 0.00000000 -0.00034558 1.00000000
vn 0.00000000 -0.00034558 1.00000000
vn 0.00000000 -0.00034558 1.00000000
vn 0.00000000 -0.00034558 1.00000000
vt 0.01431525 0.34070560
vt -0.16923750 0.44711570
vt -0.16923750 0.34805220
vt 0.01431525 0.44711570
vt 0.19786800 0.34805220
vt 0.19786800 0.44711570
vt 0.34805220 0.91633990
vt 0.44711570 0.91633990
vt 0.44711570 0.87354970
vt 0.34805220 0.87354970
vt 0.01431525 0.92192580
vt 0.01431525 0.86796380
vt -0.17492100 0.86796380
vt -0.17492100 0.92192580
vt 0.01431525 0.86796380
vt 0.01431525 0.92192580
vt 0.20355150 0.92192580
vt 0.20355150 0.86796380
vt 0.82518110 0.34827560
vt 0.82507900 0.34572310
vt 1.01431500 0.33814900
vt 1.01431500 0.34070560
vt 0.01431525 0.34070560
vt 0.01431525 0.33814900
vt 0.20355150 0.34572310
vt 0.20344940 0.34827560
vt 0.34827560 0.86796380
vt 0.34572310 0.86796380
vt 0.34572310 0.92192580
vt 0.34827560 0.92192580
vt 0.34827560 0.92192580
vt 0.34572310 0.92192580
vt 0.34572310 0.86796380
vt 0.34827560 0.86796380
vt 0.01431525 0.34070560
vt -0.17492100 0.34572310
vt -0.17481890 0.34827560
vt 0.01431525 0.33814900
vt 0.20344940 0.34827560
vt 0.20355150 0.34572310
vt 0.19786800 0.91633990
vt 0.01431525 0.92192580
vt 0.01431525 0.91633990
vt 0.20344940 0.92192580
vt 0.19786800 0.87354970
vt 0.20344940 0.86796380
vt 0.01431525 0.87354970
vt 0.01431525 0.86796380
vt 0.01431525 0.91633990
vt 0.01431525 0.92192580
vt -0.17481890 0.92192580
vt -0.16923750 0.91633990
vt 0.83076250 0.87354970
vt 1.01431500 0.86796380
vt 1.01431500 0.87354970
vt 0.82518110 0.86796380
vt 0.83076250 0.91633990
vt 0.82518110 0.92192580
vt 0.01431525 0.91633990
vt -0.16923750 0.91633990
vt -0.16923750 0.87354970
vt 0.01431525 0.87354970
vt 0.19786800 0.91633990
vt 0.19786800 0.87354970
vt 0.34805220 0.87354970
vt 0.44711570 0.87354970
vt 0.44711570 0.91633990
vt 0.34805220 0.91633990
vt 0.19286800 0.91633990
vt 0.19286800 0.87945970
vt 0.01931524 0.87945970
vt 0.01931524 0.91633990
vt 0.44211570 0.91633990
vt 0.44211570 0.87945970
vt 0.34590970 0.87945970
vt 0.34590970 0.91633990
vt 0.00931525 0.34590970
vt -0.16923750 0.34805220
vt -0.16423750 0.35285610
vt 0.01431525 0.34070560
vt 0.00931525 0.44211570
vt 0.01431525 0.44711570
vt 0.01931524 0.34590970
vt 0.19286800 0.35285610
vt 0.01931524 0.44211570
vt 0.19786800 0.34805220
vt 0.19786800 0.44711570
vt 0.19286800 0.44211570
vt 0.83576250 0.44211570
vt 1.01431500 0.44711570
vt 1.00931500 0.44211570
vt 0.83076250 0.44711570
vt 0.83576250 0.35285610
vt 0.83076250 0.34805220
vt 0.83576250 0.35285610
vt 0.83576250 0.44211570
vt 1.00931500 0.44211570
vt 1.00931500 0.34590970
vt 0.01931524 0.34590970
vt 0.01931524 0.44211570
vt 0.19286800 0.44211570
vt 0.19286800 0.35285610
vt 0.44211570 0.91633990
vt 0.44211570 0.87945970
vt 0.35285610 0.87945970
vt 0.35285610 0.91633990
vt 0.83576250 0.91633990
vt 0.83576250 0.87945970
vt 1.00931500 0.87945970
vt 1.00931500 0.91633990
vt 0.35285610 0.91633990
vt 0.35285610 0.87945970
vt 0.44211570 0.87945970
vt 0.44211570 0.91633990
vt 0.34590970 0.91633990
vt 0.34590970 0.87945970
vt 0.44211570 0.87945970
vt 0.44211570 0.91633990
vt 0.01931524 0.91633990
vt 0.01931524 0.87945970
vt 0.19286800 0.87945970
vt 0.19286800 0.91633990
vt 0.00931525 0.91633990
vt 0.00931525 0.87945970
vt -0.16423750 0.87945970
vt -0.16423750 0.91633990
f 3/3/3 2/2/2 1/1/1
f 2/2/2 4/4/4 1/1/1
f 1/1/1 4/4/4 5/5/5
f 4/4/4 6/6/6 5/5/5
f 9/9/9 8/8/8 7/7/7
f 10/10/10 9/9/9 7/7/7
f 13/13/13 12/12/12 11/11/11
f 14/14/14 13/13/13 11/11/11
f 17/17/17 16/16/16 15/15/15
f 18/18/18 17/17/17 15/15/15
f 21/21/21 20/20/20 19/19/19
f 22/22/22 21/21/21 19/19/19
f 25/25/25 24/24/24 23/23/23
f 26/26/26 25/25/25 23/23/23
f 29/29/29 28/28/28 27/27/27
f 30/30/30 29/29/29 27/27/27
f 33/33/33 32/32/32 31/31/31
f 34/34/34 33/33/33 31/31/31
f 37/37/37 36/36/36 35/35/35
f 36/36/36 38/38/38 35/35/35
f 35/35/35 38/38/38 39/39/39
f 38/38/38 40/40/40 39/39/39
f 43/43/43 42/42/42 41/41/41
f 42/42/42 44/44/44 41/41/41
f 41/41/41 44/44/44 45/45/45
f 44/44/44 46/46/46 45/45/45
f 45/45/45 46/46/46 47/47/47
f 46/46/46 48/48/48 47/47/47
f 51/51/51 50/50/50 49/49/49
f 52/52/52 51/51/51 49/49/49
f 55/55/55 54/54/54 53/53/53
f 54/54/54 56/56/56 53/53/53
f 53/53/53 56/56/56 57/57/57
f 56/56/56 58/58/58 57/57/57
f 61/61/61 60/60/60 59/59/59
f 62/62/62 61/61/61 59/59/59
f 59/59/59 63/63/63 62/62/62
f 63/63/63 64/64/64 62/62/62
f 67/67/67 66/66/66 65/65/65
f 68/68/68 67/67/67 65/65/65
f 71/71/71 70/70/70 69/69/69
f 72/72/72 71/71/71 69/69/69
f 75/75/75 74/74/74 73/73/73
f 76/76/76 75/75/75 73/73/73
f 79/79/79 78/78/78 77/77/77
f 78/78/78 80/80/80 77/77/77
f 77/77/77 80/80/80 81/81/81
f 80/80/80 82/82/82 81/81/81
f 82/82/82 80/80/80 83/83/83
f 83/83/83 80/80/80 84/84/84
f 85/85/85 82/82/82 83/83/83
f 80/80/80 86/86/86 84/84/84
f 87/87/87 82/82/82 85/85/85
f 84/84/84 86/86/86 88/88/88
f 88/88/88 87/87/87 85/85/85
f 86/86/86 87/87/87 88/88/88
f 91/91/91 90/90/90 89/89/89
f 90/90/90 92/92/92 89/89/89
f 89/89/89 92/92/92 93/93/93
f 92/92/92 94/94/94 93/93/93
f 97/97/97 96/96/96 95/95/95
f 98/98/98 97/97/97 95/95/95
f 101/101/101 100/100/100 99/99/99
f 102/102/102 101/101/101 99/99/99
f 105/105/105 104/104/104 103/103/103
f 106/106/106 105/105/105 103/103/103
f 109/109/109 108/108/108 107/107/107
f 110/110/110 109/109/109 107/107/107
f 113/113/113 112/112/112 111/111/111
f 114/114/114 113/113/113 111/111/111
f 117/117/117 116/116/116 115/115/115
f 118/118/118 117/117/117 115/115/115
f 121/121/121 120/120/120 119/119/119
f 122/122/122 121/121/121 119/119/119
f 125/125/125 124/124/124 123/123/123
f 126/126/126 125/125/125 123/123/123

