# Blender 4.0.0
# www.blender.org
o decimated_mesh
v 0.011235 0.102951 0.029131
v 0.005356 -0.101703 0.030341
v 0.010677 -0.102850 0.029237
v 0.009152 0.104521 0.029346
v 0.005356 0.103559 0.030242
v 0.005365 -0.104957 0.029673
v 0.013501 -0.103617 0.027723
v 0.013105 -0.101703 0.028274
v 0.013910 0.104614 0.027505
v 0.012238 -0.105261 0.027608
v 0.020488 0.104605 0.023120
v 0.012649 0.105638 0.025850
v 0.011011 0.105109 0.028071
v 0.005355 -0.105854 0.027681
v 0.011011 -0.105951 0.026173
v 0.019735 -0.105009 0.022960
v 0.020696 -0.102838 0.023144
v 0.022638 0.104576 0.021136
v 0.020879 0.105444 0.020728
v 0.005356 0.104992 0.029713
v 0.021901 -0.105161 0.020848
v 0.022716 -0.102894 0.021221
v 0.028340 0.104687 0.011815
v 0.005356 0.105596 0.028061
v 0.005356 -0.105992 0.017798
v 0.026533 -0.105107 0.013790
v 0.005356 0.105625 0.016651
v 0.017707 -0.105956 -0.000552
v 0.005356 -0.105120 0.014416
v 0.029854 -0.105930 0.003143
v 0.025667 -0.105909 0.011518
v 0.028592 -0.102662 0.011812
v 0.031451 0.104696 0.005793
v 0.017293 0.105586 -0.000552
v 0.027760 -0.105992 -0.000552
v 0.015762 -0.105267 -0.000552
v 0.031475 -0.105619 0.002305
v 0.031459 -0.104929 0.005296
v 0.031475 0.105441 0.001524
v 0.031465 0.105497 -0.000550
v 0.015092 -0.103796 -0.000552
v 0.031475 -0.105371 -0.000552
v 0.015713 0.105006 -0.000552
v 0.015041 0.103472 -0.000552
v 0.005356 0.104487 0.014128
vn 0.1530 -0.9857 -0.0701
vn 0.8245 -0.3128 0.4716
vn -0.8382 -0.0008 -0.5453
vn 0.2422 -0.4309 0.8693
vn 0.3692 -0.3444 0.8632
vn 0.3165 0.9342 0.1648
vn 0.2505 0.6868 0.6823
vn 0.1555 0.7909 0.5918
vn 0.0828 -0.9088 0.4090
vn 0.0837 -0.9240 0.3730
vn 0.4867 -0.4275 0.7618
vn -1.0000 -0.0044 0.0073
vn 0.8530 0.0010 0.5219
vn 0.2031 -0.0000 0.9792
vn 0.6430 -0.3441 0.6842
vn 0.6782 0.0008 0.7349
vn 0.1367 -0.9815 0.1340
vn -0.7742 0.3395 -0.5342
vn -0.3259 -0.9200 -0.2175
vn 0.0104 0.9999 0.0049
vn 0.5600 0.0007 0.8285
vn 0.1326 0.3430 0.9299
vn -0.3351 0.9125 -0.2346
vn 0.0012 -1.0000 0.0031
vn 0.2502 -0.9598 0.1275
vn -0.0000 -0.0002 -1.0000
vn -0.7705 -0.3508 -0.5322
vn 0.1579 -0.1981 0.9674
vn 0.5190 0.0012 0.8548
vn 0.0800 0.9362 0.3421
vn 0.2030 -0.9395 0.2757
vn -0.5323 0.7716 -0.3483
vn 0.1644 -0.9827 -0.0854
vn 0.5347 -0.3038 0.7885
vn 0.8171 -0.2810 0.5033
vn 0.7798 -0.3645 0.5090
vn -0.8347 -0.0002 -0.5507
vn 0.2813 0.9470 0.1550
vn 0.3829 0.8907 0.2449
vn 0.2429 0.9023 0.3562
vn 0.2274 0.8962 0.3810
vn 0.2461 0.8970 0.3673
vn 0.3444 0.8669 0.3604
vn 1.0000 -0.0000 -0.0000
vn 1.0000 -0.0005 -0.0004
vn 1.0000 -0.0001 -0.0000
vn 1.0000 -0.0004 0.0001
vn 0.8482 0.0005 0.5297
vn 0.1857 0.0005 0.9826
vn 0.6427 -0.3428 0.6852
vn 0.6895 0.0006 0.7243
vn 0.3921 -0.8959 0.2087
vn 0.3215 -0.9247 0.2040
vn 0.3488 -0.9175 0.1910
vn -0.3455 -0.9087 -0.2344
vn -0.0050 1.0000 0.0026
vn 0.0152 0.9998 -0.0134
vn 0.0486 0.9985 0.0267
vn 0.0063 1.0000 0.0056
vn 0.3358 0.3247 0.8842
vn 0.5547 0.0009 0.8321
vn 0.5423 -0.1268 0.8306
vn 0.4305 -0.1661 0.8872
vn 0.0046 -1.0000 0.0018
vn -0.0133 -0.9998 0.0139
vn 0.0044 -1.0000 0.0010
vn -0.0036 -0.9998 0.0189
vn 0.0002 0.0001 -1.0000
vn -0.0000 -0.0000 -1.0000
vn 0.0002 -0.0002 -1.0000
vn 0.0001 -0.0000 -1.0000
vn 0.3690 -0.0005 0.9294
vn 0.1969 0.1285 0.9720
vn 0.9152 -0.0009 0.4030
vn 0.8885 0.0011 0.4589
vn 1.0000 -0.0000 0.0029
vn 0.9999 0.0164 0.0016
vn 1.0000 0.0001 0.0021
vn 0.9972 -0.0738 -0.0072
vn 0.0817 0.9543 0.2874
vn 0.2036 -0.9389 0.2776
vn 1.0000 -0.0000 -0.0005
vn 1.0000 -0.0000 0.0010
vn 1.0000 -0.0000 -0.0002
vn 1.0000 -0.0000 0.0001
vn 1.0000 0.0004 0.0001
vn 0.0026 -1.0000 0.0032
vn -0.3494 -0.9073 -0.2340
vn -0.3257 -0.9193 -0.2210
vn -0.0036 -1.0000 -0.0044
vn 0.0117 -0.9999 0.0089
vn 0.0006 1.0000 -0.0019
vn 0.0363 0.9991 0.0205
vn 0.0063 1.0000 -0.0009
vn -0.0000 -0.0007 -1.0000
vn 0.0134 -0.9999 0.0092
vn 0.0002 -0.0000 -1.0000
vn 1.0000 0.0001 -0.0052
vn 1.0000 -0.0000 0.0002
vn 1.0000 -0.0000 0.0054
vn 1.0000 -0.0000 0.0057
s 0
f 35//1 37//1 30//1
f 26//2 38//2 32//2
f 45//3 41//3 29//3
f 6//4 10//4 3//4
f 3//5 10//5 7//5
f 23//6 33//6 39//6
f 9//7 13//7 4//7
f 4//8 13//8 20//8
f 6//9 14//9 10//9
f 10//10 14//10 15//10
f 10//11 16//11 7//11
f 6//12 2//12 14//12
f 18//13 32//13 23//13
f 1//14 2//14 3//14
f 22//15 16//15 21//15
f 17//16 18//16 11//16
f 31//17 21//17 15//17
f 45//18 43//18 44//18
f 28//19 29//19 36//19
f 34//20 27//20 19//20
f 17//21 11//21 8//21
f 20//22 5//22 4//22
f 27//23 34//23 43//23
f 30//24 31//24 28//24
f 31//25 30//25 37//25
f 41//26 35//26 28//26
f 41//27 36//27 29//27
f 6//28 3//28 2//28
f 9//29 1//29 8//29
f 24//30 20//30 13//30
f 15//31 21//31 16//31
f 43//32 45//32 27//32
f 35//33 42//33 37//33
f 17//34 7//34 16//34
f 32//35 22//35 26//35
f 22//36 21//36 26//36
f 45//37 44//37 41//37
f 39//38 19//38 23//38
f 19//39 18//39 23//39
f 19//40 12//40 11//40
f 12//41 13//41 9//41
f 11//42 12//42 9//42
f 11//43 18//43 19//43
f 2//44 45//44 5//44
f 20//45 5//45 24//45
f 24//46 5//46 27//46
f 5//46 45//46 27//46
f 45//44 2//44 29//44
f 25//47 2//47 14//47
f 29//44 2//44 25//44
f 18//48 22//48 32//48
f 5//49 2//49 1//49
f 22//50 17//50 16//50
f 17//51 22//51 18//51
f 38//52 26//52 37//52
f 26//53 21//53 31//53
f 31//54 37//54 26//54
f 28//55 25//55 29//55
f 24//56 12//56 27//56
f 12//57 19//57 27//57
f 19//58 39//58 40//58
f 40//59 34//59 19//59
f 9//60 4//60 1//60
f 11//61 9//61 8//61
f 8//62 7//62 17//62
f 7//63 8//63 3//63
f 31//64 15//64 25//64
f 15//65 14//65 25//65
f 25//66 28//66 31//66
f 28//67 35//67 30//67
f 36//68 41//68 28//68
f 41//69 44//69 42//69
f 44//69 43//69 34//69
f 34//70 40//70 44//70
f 40//71 42//71 44//71
f 42//69 35//69 41//69
f 1//72 3//72 8//72
f 4//73 5//73 1//73
f 38//74 33//74 32//74
f 33//75 23//75 32//75
f 33//76 38//76 42//76
f 37//77 42//77 38//77
f 42//78 40//78 33//78
f 40//79 39//79 33//79
f 12//80 24//80 13//80
f 16//81 10//81 15//81
f 5//82 2//82 14//82
f 20//83 5//83 14//83
f 20//84 14//84 24//84
f 24//44 14//44 27//44
f 27//44 14//44 45//44
f 45//85 14//85 29//85
f 29//86 14//86 25//86
f 35//87 15//87 25//87
f 29//88 36//88 25//88
f 36//89 28//89 25//89
f 28//90 35//90 25//90
f 35//91 31//91 15//91
f 12//92 34//92 27//92
f 19//93 40//93 12//93
f 40//94 34//94 12//94
f 28//95 36//95 35//95
f 36//69 41//69 44//69
f 36//69 44//69 43//69
f 36//69 43//69 34//69
f 36//69 34//69 42//69
f 36//69 42//69 35//69
f 30//96 31//96 35//96
f 40//97 42//97 34//97
f 39//98 42//98 40//98
f 39//99 37//99 42//99
f 39//100 38//100 37//100
f 33//101 38//101 39//101
