# Blender 4.0.0
# www.blender.org
o decimated_mesh
v 0.031476 -0.103696 0.005869
v 0.033892 -0.103796 0.001046
v 0.033922 0.103479 0.001046
v 0.033162 0.104901 0.002136
v 0.033093 -0.105276 0.002052
v 0.041946 0.104716 -0.028690
v 0.031490 0.104769 0.005426
v 0.031476 -0.105331 0.004401
v 0.041967 -0.105240 -0.029948
v 0.042085 -0.103796 -0.028267
v 0.041920 0.104830 -0.030106
v 0.031472 -0.105557 0.000466
v 0.040326 -0.105489 -0.028267
v 0.042079 -0.103796 -0.030337
v 0.040326 0.103479 -0.030455
v 0.039512 0.104727 -0.029678
v 0.040326 0.105172 -0.028267
v 0.031438 0.105464 0.000443
v 0.036331 -0.105206 -0.024922
v 0.032965 -0.104918 -0.014793
v 0.039545 -0.105077 -0.029684
v 0.040326 -0.103796 -0.030455
v 0.036290 0.104896 -0.024715
v 0.031478 -0.103192 -0.005717
v 0.032966 0.104573 -0.014801
v 0.031476 0.103479 -0.005508
vn -0.9565 -0.2723 -0.1050
vn 0.1161 -0.9916 0.0567
vn 0.9655 0.0012 0.2606
vn 0.0672 -0.0000 -0.9977
vn 0.7411 -0.4484 0.4997
vn 0.8941 -0.0001 0.4479
vn 0.2874 0.9551 0.0716
vn -0.2865 -0.9557 -0.0681
vn 0.9970 -0.0780 -0.0030
vn -0.0863 0.9634 -0.2538
vn -0.1756 0.4347 -0.8833
vn -0.3594 0.9288 -0.0903
vn 0.1865 0.9733 0.1337
vn -0.0907 -0.9685 -0.2319
vn 0.0649 -0.2637 -0.9624
vn -0.1267 -0.4533 -0.8823
vn 0.9998 0.0008 -0.0185
vn -0.0978 -0.9947 -0.0325
vn -0.8289 -0.0001 -0.5594
vn 0.9128 -0.3207 0.2528
vn -0.9874 0.0002 -0.1582
vn 0.8826 0.1237 0.4536
vn -0.1057 0.9935 -0.0428
vn -0.7025 -0.0001 -0.7117
vn -0.9405 0.3205 -0.1130
vn 1.0000 -0.0001 0.0001
vn 1.0000 -0.0000 -0.0013
vn -1.0000 -0.0011 0.0011
vn 0.9994 0.0355 -0.0054
vn 1.0000 -0.0023 -0.0000
vn 0.1335 -0.9903 0.0388
vn 0.8792 -0.1727 0.4440
vn 0.9631 -0.0001 0.2692
vn 0.2125 0.0012 -0.9772
vn 0.8744 0.0010 0.4852
vn 0.2493 0.9661 0.0674
vn 0.2885 0.9544 0.0765
vn 0.2054 -0.9771 0.0559
vn -0.2076 -0.9640 -0.1663
vn 1.0000 0.0007 -0.0030
vn -0.9481 0.0001 -0.3179
vn -0.9490 -0.0000 -0.3153
vn -0.8388 0.0004 -0.5445
vn 0.8966 -0.3650 0.2506
vn -0.9868 -0.0000 -0.1618
vn -0.2201 0.9595 -0.1755
vn -0.6904 -0.0000 -0.7234
vn 0.9203 0.2918 0.2605
vn 0.9999 -0.0001 -0.0104
vn 1.0000 0.0002 -0.0008
vn 1.0000 0.0002 0.0009
vn 0.8981 -0.3628 0.2486
vn 0.9127 -0.3191 0.2551
vn 1.0000 -0.0000 0.0064
vn 0.2734 0.9592 0.0722
vn 0.2941 0.9526 0.0778
s 0
f 12//1 24//1 20//1
f 12//2 5//2 8//2
f 3//3 10//3 6//3
f 15//4 14//4 22//4
f 1//5 8//5 5//5
f 1//6 2//6 3//6
f 6//7 11//7 17//7
f 20//8 19//8 12//8
f 10//9 9//9 14//9
f 11//10 16//10 17//10
f 11//11 15//11 16//11
f 18//12 23//12 25//12
f 4//13 18//13 7//13
f 13//14 21//14 9//14
f 9//15 22//15 14//15
f 9//16 21//16 22//16
f 6//17 14//17 11//17
f 19//18 13//18 12//18
f 19//19 16//19 21//19
f 9//20 2//20 5//20
f 25//21 24//21 26//21
f 4//22 7//22 3//22
f 17//23 23//23 18//23
f 16//24 22//24 21//24
f 25//25 26//25 18//25
f 1//26 24//26 7//26
f 24//27 26//27 7//27
f 12//28 8//28 1//28
f 18//29 7//29 26//29
f 24//30 1//30 12//30
f 12//31 13//31 5//31
f 5//32 2//32 1//32
f 3//33 2//33 10//33
f 15//34 11//34 14//34
f 7//35 1//35 3//35
f 18//36 4//36 17//36
f 4//37 6//37 17//37
f 9//38 5//38 13//38
f 19//39 21//39 13//39
f 6//40 10//40 14//40
f 23//41 19//41 25//41
f 25//42 19//42 20//42
f 19//43 23//43 16//43
f 10//44 2//44 9//44
f 25//45 20//45 24//45
f 16//46 23//46 17//46
f 16//47 15//47 22//47
f 6//48 4//48 3//48
f 7//49 1//49 18//49
f 18//50 1//50 12//50
f 18//51 12//51 24//51
f 9//52 10//52 5//52
f 10//53 2//53 5//53
f 26//54 18//54 24//54
f 11//55 4//55 6//55
f 11//56 17//56 4//56
