# Blender 4.0.0
# www.blender.org
o decimated_mesh
v -0.027881 0.103721 -0.013600
v -0.022024 0.103317 -0.022107
v -0.023128 -0.102437 -0.020780
v -0.027810 -0.103175 -0.013612
v -0.024874 0.104655 -0.017780
v -0.021638 0.104946 -0.021690
v -0.021539 -0.102797 -0.022467
v -0.026888 0.105068 -0.013623
v -0.018677 0.104686 -0.024228
v -0.021716 -0.105072 -0.021439
v -0.026650 -0.105241 -0.013630
v -0.024587 0.105669 -0.013618
v -0.020398 0.105669 -0.019893
v -0.013105 0.104899 -0.027657
v -0.020398 -0.105930 -0.019893
v -0.024587 -0.105930 -0.013618
v -0.009085 0.104591 -0.029355
v -0.011200 0.103328 -0.029032
v -0.013807 0.103472 -0.027714
v -0.012022 0.105607 -0.026174
v -0.013892 -0.101703 -0.027768
v -0.012629 -0.105071 -0.027676
v -0.011615 -0.105976 -0.025874
v -0.011856 0.105683 -0.013604
v -0.001281 0.105168 -0.030117
v -0.000030 0.103366 -0.031147
v -0.003649 0.105648 -0.028268
v -0.011144 -0.101650 -0.029171
v 0.001164 -0.105989 -0.028331
v 0.005355 0.105619 -0.016661
v 0.005354 0.104435 -0.014101
v -0.008281 -0.104501 -0.029299
v 0.005355 -0.105878 -0.027593
v -0.000613 -0.105417 -0.029963
v 0.005356 -0.105982 -0.017450
v -0.011549 -0.105952 -0.013608
v 0.005352 0.105617 -0.028105
v 0.005356 0.104743 -0.029957
v -0.000256 -0.103149 -0.031138
v 0.005356 -0.105118 -0.014564
v 0.005356 -0.105033 -0.029604
v 0.005356 -0.103395 -0.013867
v 0.005356 -0.101703 -0.030343
vn 0.1403 -0.0002 -0.9901
vn -0.4511 0.0004 -0.8925
vn -0.4317 0.8529 -0.2938
vn -0.3419 0.3490 -0.8725
vn -0.7375 0.5363 -0.4106
vn -0.5978 0.3286 -0.7312
vn -0.5697 0.0001 -0.8219
vn -0.2211 -0.9204 -0.3223
vn -0.5620 0.1025 -0.8208
vn 0.1905 -0.2125 -0.9584
vn -0.7617 -0.4233 -0.4905
vn -0.4265 0.2449 -0.8707
vn -0.7324 -0.2324 -0.6400
vn -0.1453 -0.7452 -0.6508
vn -0.4438 -0.1903 -0.8757
vn -0.3082 -0.9267 -0.2148
vn -0.1075 0.9021 -0.4180
vn -0.1859 0.0602 -0.9807
vn -0.0017 -1.0000 -0.0011
vn -0.1191 0.4291 -0.8954
vn -0.1776 0.0006 -0.9841
vn 0.0777 0.9049 0.4185
vn -0.2026 0.9331 -0.2971
vn 1.0000 0.0040 0.0002
vn -0.5376 -0.3122 -0.7833
vn 0.0830 -0.9088 -0.4089
vn 0.0633 -0.9561 0.2861
vn 0.0077 0.9702 -0.2421
vn -0.1961 -0.1536 -0.9685
vn -0.2483 0.9526 -0.1760
vn -0.8180 0.0931 -0.5676
vn 0.0707 -0.3737 0.9249
vn 0.2153 0.0018 -0.9766
vn -0.4550 0.0005 -0.8905
vn -0.3062 -0.2666 -0.9139
vn -0.5637 0.0004 -0.8260
vn -0.2300 -0.9153 -0.3306
vn -0.8372 -0.0003 -0.5468
vn -0.8237 0.0008 -0.5671
vn -0.5104 0.2838 -0.8118
vn -0.7884 -0.2863 -0.5444
vn -0.1295 -0.4400 -0.8886
vn -0.3343 -0.9157 -0.2232
vn -0.0542 -0.9593 -0.2771
vn -0.1024 -0.9107 -0.4001
vn 0.0830 -0.4687 -0.8795
vn -0.5337 -0.2223 -0.8159
vn -0.0039 -1.0000 0.0020
vn -0.0008 -1.0000 0.0009
vn -0.0013 -1.0000 0.0020
vn 0.0282 -0.9995 -0.0103
vn -0.1861 0.0002 -0.9825
vn -0.3033 0.8450 -0.4404
vn -0.7281 -0.0005 -0.6855
vn 0.0680 0.9023 -0.4258
vn -0.0080 -0.0483 -0.9988
vn -0.0151 -0.0011 -0.9999
vn -0.0180 0.1455 -0.9892
vn -0.0011 0.0111 0.9999
vn -0.0087 0.0240 0.9997
vn -0.0077 0.0001 -1.0000
vn -0.0110 -0.0151 0.9998
vn -0.0008 -0.0031 1.0000
vn -0.1839 0.9494 -0.2547
vn 0.0540 0.5235 -0.8503
vn 1.0000 -0.0000 0.0001
vn 1.0000 0.0003 -0.0001
vn 1.0000 0.0002 0.0007
vn 1.0000 -0.0014 -0.0003
vn 1.0000 -0.0000 -0.0000
vn 1.0000 -0.0003 -0.0000
vn -0.0978 0.9242 -0.3693
vn -0.0953 0.9270 -0.3627
vn -0.7402 0.3257 -0.5883
vn 0.0922 -0.9180 -0.3856
vn -0.2789 0.9421 -0.1862
vn -0.0065 1.0000 -0.0060
vn 0.0028 1.0000 -0.0061
vn -0.0012 1.0000 -0.0008
vn 0.0037 1.0000 -0.0004
vn 0.0034 1.0000 -0.0002
vn 0.0002 0.0001 -1.0000
vn -0.0002 -0.0000 -1.0000
vn 0.0037 1.0000 -0.0002
vn 0.0034 1.0000 -0.0005
vn -0.0000 1.0000 -0.0024
vn -0.0154 -0.0000 -0.9999
vn -0.0290 -0.0011 -0.9996
vn -0.2488 0.9542 -0.1661
vn -0.2721 0.9431 -0.1913
vn -0.0017 -1.0000 0.0020
vn -0.0006 -1.0000 0.0020
vn -0.0015 -1.0000 0.0012
vn 1.0000 -0.0000 0.0004
vn 1.0000 0.0050 -0.0003
vn -0.0111 0.9996 -0.0247
vn -0.4511 0.0005 -0.8925
vn -0.4550 0.0004 -0.8905
vn -0.2277 -0.9154 -0.3319
vn -0.2232 -0.9205 -0.3206
vn -0.3292 -0.9163 -0.2279
vn -0.3088 -0.9285 -0.2062
vn -0.0097 -0.9999 -0.0065
vn 1.0000 -0.0019 -0.0001
vn 1.0000 0.0003 -0.0000
vn 1.0000 -0.0000 -0.0002
vn -0.1861 0.0006 -0.9825
vn -0.1777 0.0001 -0.9841
s 0
f 26//1 43//1 39//1
f 18//2 21//2 19//2
f 5//3 8//3 6//3
f 17//4 18//4 14//4
f 1//5 8//5 5//5
f 6//6 9//6 2//6
f 2//7 21//7 7//7
f 15//8 10//8 22//8
f 19//9 2//9 9//9
f 43//10 41//10 39//10
f 4//11 10//11 11//11
f 19//12 14//12 18//12
f 7//13 10//13 3//13
f 22//14 32//14 34//14
f 22//15 21//15 28//15
f 16//16 11//16 10//16
f 25//17 17//17 14//17
f 18//18 17//18 26//18
f 36//19 16//19 15//19
f 25//20 26//20 17//20
f 18//21 39//21 28//21
f 24//22 31//22 30//22
f 6//23 20//23 14//23
f 38//24 37//24 31//24
f 22//25 10//25 7//25
f 34//26 41//26 29//26
f 36//27 35//27 40//27
f 37//28 25//28 27//28
f 39//29 32//29 28//29
f 6//30 8//30 12//30
f 1//31 5//31 2//31
f 36//32 40//32 42//32
f 26//33 38//33 43//33
f 18//34 28//34 21//34
f 32//35 22//35 28//35
f 2//36 19//36 21//36
f 23//37 15//37 22//37
f 4//38 1//38 3//38
f 3//39 1//39 2//39
f 19//40 9//40 14//40
f 10//41 4//41 3//41
f 34//42 32//42 39//42
f 15//43 16//43 10//43
f 29//44 23//44 34//44
f 34//45 23//45 22//45
f 41//46 34//46 39//46
f 21//47 22//47 7//47
f 15//48 23//48 36//48
f 23//49 29//49 35//49
f 36//50 23//50 35//50
f 29//51 33//51 35//51
f 18//52 26//52 39//52
f 6//53 14//53 9//53
f 7//54 3//54 2//54
f 25//55 37//55 38//55
f 36//56 4//56 42//56
f 42//57 1//57 31//57
f 1//58 24//58 31//58
f 24//59 12//59 1//59
f 12//60 8//60 1//60
f 1//61 42//61 4//61
f 4//62 11//62 16//62
f 16//63 36//63 4//63
f 13//64 20//64 6//64
f 25//65 38//65 26//65
f 40//66 35//66 42//66
f 35//67 33//67 42//67
f 43//68 33//68 41//68
f 43//66 38//66 31//66
f 37//69 30//69 31//69
f 31//70 42//70 43//70
f 43//71 42//71 33//71
f 25//72 14//72 20//72
f 27//73 25//73 20//73
f 5//74 6//74 2//74
f 33//75 29//75 41//75
f 12//76 13//76 6//76
f 27//77 20//77 24//77
f 20//78 13//78 24//78
f 13//79 12//79 24//79
f 24//80 30//80 27//80
f 30//81 37//81 27//81
f 4//82 1//82 36//82
f 36//83 1//83 24//83
f 30//84 37//84 24//84
f 37//85 27//85 24//85
f 27//86 13//86 24//86
f 36//87 24//87 42//87
f 42//88 24//88 31//88
f 13//89 8//89 12//89
f 13//90 6//90 8//90
f 16//91 23//91 36//91
f 23//92 29//92 36//92
f 29//93 35//93 36//93
f 42//70 41//70 31//70
f 41//94 30//94 31//94
f 38//95 37//95 30//95
f 41//66 38//66 30//66
f 20//96 13//96 27//96
f 40//70 41//70 42//70
f 18//97 28//97 19//97
f 28//98 21//98 19//98
f 22//99 23//99 10//99
f 23//100 15//100 10//100
f 15//101 11//101 10//101
f 15//102 16//102 11//102
f 15//103 23//103 16//103
f 33//104 41//104 35//104
f 41//105 40//105 35//105
f 43//106 38//106 41//106
f 26//107 28//107 18//107
f 26//108 39//108 28//108
