mtllib material.mtl
usemtl material_0
v -0.00067880 -0.02494293 0.00067841
v -0.00067880 -0.02494293 -0.00067841
v 0.00067880 -0.02494293 -0.00067841
v 0.00067880 -0.02494293 0.00067841
v -0.45078700 -0.25968920 0.05685547
v -0.43350730 -0.23978300 0.03516083
v 0.00006204 -0.23978300 0.03516083
v 0.00006204 -0.25968920 0.05685547
v 0.45081100 -0.25968920 0.05685547
v 0.43353510 -0.23978300 0.03516083
v 0.00006204 0.25968920 0.05685547
v -0.43350730 0.23978290 0.03516083
v -0.45078700 0.25968920 0.05685547
v 0.00006204 0.23978290 0.03516083
v 0.43353510 0.23978290 0.03516083
v 0.45081100 0.25968920 0.05685547
v -0.53613980 -0.28007430 0.05153900
v -0.55095410 -0.28007430 0.04034485
v -0.55095410 -0.00438663 0.04034485
v -0.53613980 -0.00438663 0.05153900
v -0.55095410 0.00438650 0.04034485
v -0.53613980 0.00438650 0.05153900
v -0.53613980 0.28007420 0.05153900
v -0.55095410 0.28007420 0.04034485
v -0.43350730 -0.23978300 0.03516083
v -0.45078700 -0.25968920 0.05685547
v -0.45078700 -0.00438663 0.05685547
v -0.43350730 -0.00438663 0.03516083
v -0.45078700 0.00438650 0.05685547
v -0.43350730 0.00438650 0.03516083
v -0.43350730 0.23978290 0.03516083
v -0.45078700 0.25968920 0.05685547
v 0.53614480 -0.28007430 0.05153900
v 0.55095570 -0.00438663 0.04034485
v 0.55095570 -0.28007430 0.04034485
v 0.53614480 -0.00438663 0.05153900
v 0.53614480 0.00438650 0.05153900
v 0.55095570 0.00438650 0.04034485
v 0.55095570 0.28007420 0.04034485
v 0.53614480 0.28007420 0.05153900
v 0.43353510 -0.23978300 0.03516083
v 0.45081100 -0.00438663 0.05685547
v 0.45081100 -0.25968920 0.05685547
v 0.43353510 -0.00438663 0.03516083
v 0.43353510 0.00438650 0.03516083
v 0.45081100 0.00438650 0.05685547
v 0.45081100 0.25968920 0.05685547
v 0.43353510 0.23978290 0.03516083
v -0.55832860 -0.28007430 0.01153168
v -0.55832860 -0.28007430 0.00000061
v -0.55832860 -0.00438663 0.00000061
v -0.55832860 -0.00438663 0.01153168
v -0.55832860 0.00438650 0.00000061
v -0.55832860 -0.00438663 0.02240387
v -0.55832860 -0.28007430 0.02240387
v -0.55095410 -0.28007430 0.04034485
v -0.55095410 -0.00438663 0.04034485
v -0.55832860 0.00438650 0.01153168
v -0.55832860 0.00438650 0.02240387
v -0.55095410 0.00438650 0.04034485
v -0.55095410 0.28007420 0.04034485
v -0.55832860 0.28007420 0.02240387
v -0.55832860 0.28007420 0.01153168
v -0.55832860 0.28007420 0.00000061
v -0.51276990 0.28007420 0.05685547
v -0.53613980 0.00438650 0.05153900
v -0.53613980 0.28007420 0.05153900
v -0.51276990 0.00438650 0.05685547
v -0.45872250 0.26579920 0.05685547
v 0.00006204 0.28007420 0.05685547
v -0.51276990 -0.00438663 0.05685547
v -0.53613980 -0.00438663 0.05153900
v -0.53613980 -0.28007430 0.05153900
v -0.51276990 -0.28007430 0.05685547
v -0.45872250 -0.00438663 0.05685547
v -0.45872250 -0.26579930 0.05685547
v -0.45872250 0.00438650 0.05685547
v 0.00006086 -0.26579930 0.05685547
v 0.00006204 -0.28007430 0.05685547
v 0.51278010 -0.28007430 0.05685547
v -0.45078700 -0.00438663 0.05685547
v -0.45078700 0.00438650 0.05685547
v -0.45078700 -0.25968920 0.05685547
v 0.00006204 -0.25968920 0.05685547
v -0.45078700 0.25968920 0.05685547
v 0.45081100 -0.25968920 0.05685547
v 0.00006086 0.26579920 0.05685547
v 0.00006204 0.25968920 0.05685547
v 0.45874230 -0.26579930 0.05685547
v 0.45081100 -0.00438663 0.05685547
v 0.45874230 0.26579920 0.05685547
v 0.45081100 0.25968920 0.05685547
v 0.51278010 0.28007420 0.05685547
v 0.45874230 -0.00438663 0.05685547
v 0.45081100 0.00438650 0.05685547
v 0.45874230 0.00438650 0.05685547
v 0.51278010 -0.00438663 0.05685547
v 0.53614480 -0.28007430 0.05153900
v 0.53614480 -0.00438663 0.05153900
v 0.51278010 0.00438650 0.05685547
v 0.53614480 0.00438650 0.05153900
v 0.53614480 0.28007420 0.05153900
v -0.55095410 0.28007420 0.00000061
v -0.55832860 0.28007420 0.00000061
v -0.55832860 0.00438650 0.00000061
v -0.55095410 0.00438650 0.00000061
v -0.53613980 0.28007420 0.00000061
v -0.55832860 -0.00438663 0.00000061
v -0.53613980 0.00438650 0.00000061
v -0.51276990 0.28007420 0.00000061
v -0.55095410 -0.00438663 0.00000061
v -0.55832860 -0.28007430 0.00000061
v -0.55095410 -0.28007430 0.00000061
v -0.53613980 -0.00438663 0.00000061
v -0.53613980 -0.28007430 0.00000061
v -0.51276990 0.00438650 0.00000061
v 0.00006204 0.28007420 0.00000061
v -0.51276990 -0.00438663 0.00000061
v -0.51276990 -0.28007430 0.00000061
v 0.00006204 0.00438650 0.00000061
v 0.00006204 -0.00438663 0.00000061
v 0.00006204 -0.28007430 0.00000061
v 0.51278010 -0.28007430 0.00000061
v 0.51278010 0.00438650 0.00000061
v 0.51278010 0.28007420 0.00000061
v 0.51278010 -0.00438663 0.00000061
v 0.53614480 -0.28007430 0.00000061
v 0.53614480 0.00438650 0.00000061
v 0.53614480 0.28007420 0.00000061
v 0.53614480 -0.00438663 0.00000061
v 0.55095570 -0.28007430 0.00000061
v 0.55095570 0.00438650 0.00000061
v 0.55095570 0.28007420 0.00000061
v 0.55095570 -0.00438663 0.00000061
v 0.55832850 -0.28007430 0.00000061
v 0.55832850 -0.00438663 0.00000061
v 0.55832850 0.00438650 0.00000061
v 0.55832850 0.28007420 0.00000061
v 0.55832850 0.28007420 0.01153168
v 0.55832850 0.28007420 0.00000061
v 0.55832850 0.00438650 0.00000061
v 0.55832850 0.00438650 0.01153168
v 0.55832850 -0.00438663 0.00000061
v 0.55832850 0.28007420 0.02240387
v 0.55832850 -0.00438663 0.01153168
v 0.55832850 -0.28007430 0.00000061
v 0.55832850 -0.28007430 0.01153168
v 0.55832850 0.00438650 0.02240387
v 0.55832850 -0.00438663 0.02240387
v 0.55832850 -0.28007430 0.02240387
v 0.55095570 -0.28007430 0.04034485
v 0.55095570 -0.00438663 0.04034485
v 0.55095570 0.00438650 0.04034485
v 0.55095570 0.28007420 0.04034485
v -0.55832860 -0.28007430 0.02240387
v -0.55366050 -0.28007430 0.01469818
v -0.55832860 -0.28007430 0.01153168
v -0.55832860 -0.28007430 0.00000061
v -0.55400080 -0.28007430 0.02155029
v -0.55366050 -0.28007430 0.00316711
v -0.55095410 -0.28007430 0.04034485
v -0.55095410 -0.28007430 0.00316711
v -0.54751910 -0.28007430 0.03769592
v -0.55095410 -0.28007430 0.00000061
v -0.53613980 -0.28007430 0.05153900
v -0.53613980 -0.28007430 0.00316711
v -0.53428570 -0.28007430 0.04755310
v -0.53613980 -0.28007430 0.00000061
v -0.51276990 -0.28007430 0.05685547
v -0.51276990 -0.28007430 0.00316711
v -0.51227130 -0.28007430 0.05241485
v -0.51276990 -0.28007430 0.00000061
v 0.00006204 -0.28007430 0.05685547
v 0.00006204 -0.28007430 0.05235931
v 0.51228170 -0.28007430 0.05241485
v 0.51278010 -0.28007430 0.05685547
v 0.53429110 -0.28007430 0.04755310
v 0.53614480 -0.28007430 0.05153900
v 0.54752150 -0.28007430 0.03769592
v 0.55095570 -0.28007430 0.04034485
v 0.55400170 -0.28007430 0.02155029
v 0.55832850 -0.28007430 0.02240387
v 0.55366150 -0.28007430 0.01469818
v 0.55832850 -0.28007430 0.01153168
v 0.55366150 -0.28007430 0.00316711
v 0.55832850 -0.28007430 0.00000061
v 0.55095570 -0.28007430 0.00316711
v 0.55095570 -0.28007430 0.00000061
v 0.53614480 -0.28007430 0.00316711
v 0.53614480 -0.28007430 0.00000061
v 0.51278010 -0.28007430 0.00316711
v 0.51278010 -0.28007430 0.00000061
v 0.00006204 -0.28007430 0.00316711
v 0.00006204 -0.28007430 0.00000061
v -0.51276990 0.28007420 0.05685547
v 0.00006204 0.28007420 0.05241485
v 0.00006204 0.28007420 0.05685547
v 0.51278010 0.28007420 0.05685547
v -0.51227130 0.28007420 0.05241485
v 0.51228150 0.28007420 0.05241485
v -0.53613980 0.28007420 0.05153900
v 0.53614480 0.28007420 0.05153900
v -0.53428570 0.28007420 0.04755310
v 0.53429110 0.28007420 0.04755310
v -0.55095410 0.28007420 0.04034485
v 0.55095570 0.28007420 0.04034485
v -0.54751910 0.28007420 0.03769592
v 0.54752150 0.28007420 0.03769592
v -0.55832860 0.28007420 0.02240387
v 0.55832850 0.28007420 0.02240387
v -0.55400080 0.28007420 0.02155029
v 0.55400170 0.28007420 0.02155029
v 0.55832850 0.28007420 0.01153168
v 0.55366150 0.28007420 0.01469818
v 0.55832850 0.28007420 0.00000061
v 0.55366150 0.28007420 0.00316711
v 0.55095570 0.28007420 0.00000061
v 0.55095570 0.28007420 0.00316711
v 0.53614480 0.28007420 0.00000061
v 0.53614480 0.28007420 0.00316711
v 0.51278010 0.28007420 0.00000061
v 0.51278010 0.28007420 0.00316711
v -0.55832860 0.28007420 0.01153168
v -0.55366050 0.28007420 0.01469818
v 0.00006204 0.28007420 0.00000061
v 0.00006204 0.28007420 0.00316711
v -0.51276990 0.28007420 0.00316711
v -0.51276990 0.28007420 0.00000061
v -0.53613980 0.28007420 0.00316711
v -0.53613980 0.28007420 0.00000061
v -0.55095410 0.28007420 0.00316711
v -0.55095410 0.28007420 0.00000061
v -0.55366050 0.28007420 0.00316711
v -0.55832860 0.28007420 0.00000061
vn 0.00000000 1.00000000 0.00000000
vn 0.00000000 1.00000000 0.00000000
vn 0.00000000 1.00000000 0.00000000
vn 0.00000000 1.00000000 0.00000000
vn 0.00000000 0.73682480 0.67608390
vn 0.00000000 0.73682480 0.67608380
vn 0.00000000 0.73682480 0.67608370
vn 0.00000000 0.73682480 0.67608370
vn 0.00000000 0.73682490 0.67608370
vn 0.00000000 0.73682490 0.67608370
vn 0.00000000 -0.73682440 0.67608420
vn 0.00000000 -0.73682440 0.67608420
vn 0.00000000 -0.73682440 0.67608420
vn 0.00000000 -0.73682440 0.67608420
vn 0.00000000 -0.73682440 0.67608420
vn 0.00000000 -0.73682440 0.67608420
vn -0.39688060 0.00000000 0.91787020
vn -0.60286600 0.00000000 0.79784240
vn -0.60286620 0.00000000 0.79784230
vn -0.39688070 0.00000000 0.91787020
vn -0.60286610 0.00000000 0.79784240
vn -0.39688060 0.00000000 0.91787020
vn -0.39688040 0.00000000 0.91787020
vn -0.60286580 0.00000000 0.79784260
vn 0.78220440 0.00000000 0.62302190
vn 0.78220440 0.00000000 0.62302190
vn 0.78220460 0.00000000 0.62302180
vn 0.78220460 0.00000000 0.62302180
vn 0.78220850 0.00000000 0.62301680
vn 0.78220850 0.00000000 0.62301680
vn 0.78220850 0.00000000 0.62301670
vn 0.78220860 0.00000000 0.62301670
vn 0.39695570 0.00000000 0.91783770
vn 0.60295310 0.00000000 0.79777660
vn 0.60295290 0.00000000 0.79777680
vn 0.39695590 0.00000000 0.91783760
vn 0.39695580 0.00000000 0.91783770
vn 0.60295300 0.00000000 0.79777660
vn 0.60295270 0.00000000 0.79777690
vn 0.39695560 0.00000000 0.91783780
vn -0.78227070 0.00000000 0.62293870
vn -0.78227080 0.00000000 0.62293850
vn -0.78227070 0.00000000 0.62293860
vn -0.78227080 0.00000000 0.62293850
vn -0.78227620 0.00000000 0.62293180
vn -0.78227620 0.00000000 0.62293180
vn -0.78227630 0.00000000 0.62293170
vn -0.78227630 0.00000000 0.62293170
vn -1.00000000 0.00000000 0.00000000
vn -1.00000000 0.00000000 0.00000000
vn -1.00000000 0.00000000 0.00000000
vn -1.00000000 0.00000000 0.00000000
vn -1.00000000 0.00000000 0.00000000
vn -0.96877340 0.00000000 0.24794780
vn -0.96877340 0.00000000 0.24794770
vn -0.92491620 0.00000000 0.38017100
vn -0.92491620 0.00000000 0.38017120
vn -1.00000000 0.00000000 0.00000000
vn -0.96877340 0.00000000 0.24794780
vn -0.92491350 0.00000000 0.38017740
vn -0.92491350 0.00000000 0.38017750
vn -0.96877340 0.00000000 0.24794780
vn -1.00000000 0.00000000 0.00000000
vn -1.00000000 0.00000000 0.00000000
vn -0.07415089 0.00000000 0.99724700
vn -0.39688060 0.00000000 0.91787020
vn -0.39688040 0.00000000 0.91787020
vn -0.06972441 0.00000000 0.99756630
vn 0.00000178 0.00000000 1.00000000
vn 0.00000000 0.00000000 1.00000000
vn -0.06972890 0.00000000 0.99756600
vn -0.39688070 0.00000000 0.91787020
vn -0.39688060 0.00000000 0.91787020
vn -0.07415500 0.00000000 0.99724670
vn 0.00000000 0.00000000 1.00000000
vn 0.00000000 0.00000000 1.00000000
vn 0.00000000 0.00000000 1.00000000
vn 0.00000000 0.00000000 1.00000000
vn 0.00000000 0.00000000 1.00000000
vn 0.07417025 0.00000000 0.99724560
vn 0.00000000 0.00000000 1.00000000
vn -0.00004607 0.00000000 1.00000000
vn 0.00000000 0.00000000 1.00000000
vn 0.00000000 0.00000000 1.00000000
vn -0.00001896 0.00000000 1.00000000
vn 0.00000000 0.00000000 1.00000000
vn 0.00000000 0.00000000 1.00000000
vn 0.00000000 0.00000000 1.00000000
vn 0.00000000 0.00000000 1.00000000
vn 0.00000000 0.00000000 1.00000000
vn -0.00000050 0.00000000 1.00000000
vn 0.00001600 0.00000000 1.00000000
vn 0.07416793 0.00000000 0.99724580
vn 0.00000000 0.00000000 1.00000000
vn 0.00003889 0.00000000 1.00000000
vn 0.00000161 0.00000000 1.00000000
vn 0.06974225 0.00000000 0.99756500
vn 0.39695570 0.00000000 0.91783770
vn 0.39695590 0.00000000 0.91783760
vn 0.06973972 0.00000000 0.99756530
vn 0.39695580 0.00000000 0.91783770
vn 0.39695560 0.00000000 0.91783780
vn 0.00000000 0.00000000 -1.00000000
vn 0.00000000 0.00000000 -1.00000000
vn 0.00000000 0.00000000 -1.00000000
vn 0.00000000 0.00000000 -1.00000000
vn 0.00000000 0.00000000 -1.00000000
vn 0.00000000 0.00000000 -1.00000000
vn 0.00000000 0.00000000 -1.00000000
vn 0.00000000 0.00000000 -1.00000000
vn 0.00000000 0.00000000 -1.00000000
vn 0.00000000 0.00000000 -1.00000000
vn 0.00000000 0.00000000 -1.00000000
vn 0.00000000 0.00000000 -1.00000000
vn 0.00000000 0.00000000 -1.00000000
vn 0.00000000 0.00000000 -1.00000000
vn 0.00000000 0.00000000 -1.00000000
vn 0.00000000 0.00000000 -1.00000000
vn 0.00000000 0.00000000 -1.00000000
vn 0.00000000 0.00000000 -1.00000000
vn 0.00000000 0.00000000 -1.00000000
vn 0.00000000 0.00000000 -1.00000000
vn 0.00000000 0.00000000 -1.00000000
vn 0.00000000 0.00000000 -1.00000000
vn 0.00000000 0.00000000 -1.00000000
vn 0.00000000 0.00000000 -1.00000000
vn 0.00000000 0.00000000 -1.00000000
vn 0.00000000 0.00000000 -1.00000000
vn 0.00000000 0.00000000 -1.00000000
vn 0.00000000 0.00000000 -1.00000000
vn 0.00000000 0.00000000 -1.00000000
vn 0.00000000 0.00000000 -1.00000000
vn 0.00000000 0.00000000 -1.00000000
vn 0.00000000 0.00000000 -1.00000000
vn 0.00000000 0.00000000 -1.00000000
vn 0.00000000 0.00000000 -1.00000000
vn 0.00000000 0.00000000 -1.00000000
vn 0.00000000 0.00000000 -1.00000000
vn 1.00000000 0.00000000 0.00000000
vn 1.00000000 0.00000000 0.00000000
vn 1.00000000 0.00000000 0.00000000
vn 1.00000000 0.00000000 0.00000000
vn 1.00000000 0.00000000 0.00000000
vn 0.96878660 0.00000000 0.24789600
vn 1.00000000 0.00000000 0.00000000
vn 1.00000000 0.00000000 0.00000000
vn 1.00000000 0.00000000 0.00000000
vn 0.96878660 0.00000000 0.24789610
vn 0.96878660 0.00000000 0.24789600
vn 0.96878660 0.00000000 0.24789590
vn 0.92494600 0.00000000 0.38009860
vn 0.92494590 0.00000000 0.38009880
vn 0.92494320 0.00000000 0.38010520
vn 0.92494330 0.00000000 0.38010520
vn 0.00000000 -1.00000000 -0.00000081
vn 0.00000000 -1.00000000 0.00000000
vn 0.00000000 -1.00000000 0.00000000
vn 0.00000000 -1.00000000 0.00000598
vn 0.00000000 -1.00000000 -0.00000080
vn 0.00000000 -1.00000000 0.00000598
vn 0.00000000 -1.00000000 0.00000187
vn 0.00000000 -1.00000000 0.00000152
vn 0.00000000 -1.00000000 0.00000187
vn 0.00000000 -1.00000000 0.00000152
vn 0.00000000 -1.00000000 0.00000203
vn 0.00000000 -1.00000000 0.00000000
vn 0.00000000 -1.00000000 0.00000202
vn 0.00000000 -1.00000000 0.00000000
vn 0.00000000 -1.00000000 -0.00000511
vn 0.00000000 -1.00000000 0.00000000
vn 0.00000000 -1.00000000 -0.00000511
vn 0.00000000 -1.00000000 0.00000000
vn 0.00000000 -1.00000000 -0.00000267
vn 0.00000000 -1.00000000 -0.00000267
vn 0.00000000 -1.00000000 -0.00000032
vn 0.00000000 -1.00000000 -0.00000032
vn 0.00000000 -1.00000000 -0.00000435
vn 0.00000000 -1.00000000 -0.00000434
vn 0.00000000 -1.00000000 -0.00000125
vn 0.00000000 -1.00000000 -0.00000125
vn 0.00000000 -1.00000000 -0.00000159
vn 0.00000000 -1.00000000 -0.00000161
vn 0.00000000 -1.00000000 0.00000000
vn 0.00000000 -1.00000000 0.00000000
vn 0.00000000 -1.00000000 0.00000000
vn 0.00000000 -1.00000000 0.00000000
vn 0.00000000 -1.00000000 0.00000000
vn 0.00000000 -1.00000000 0.00000000
vn 0.00000000 -1.00000000 0.00000000
vn 0.00000000 -1.00000000 0.00000000
vn 0.00000000 -1.00000000 0.00000000
vn 0.00000000 -1.00000000 0.00000000
vn 0.00000000 -1.00000000 0.00000000
vn 0.00000000 -1.00000000 0.00000000
vn 0.00000000 1.00000000 -0.00000469
vn 0.00000000 1.00000000 0.00000042
vn 0.00000000 1.00000000 0.00000042
vn 0.00000000 1.00000000 0.00000000
vn 0.00000000 1.00000000 -0.00000469
vn 0.00000000 1.00000000 0.00000000
vn 0.00000000 1.00000000 -0.00000379
vn 0.00000000 1.00000000 0.00000000
vn 0.00000000 1.00000000 -0.00000380
vn 0.00000000 1.00000000 0.00000000
vn 0.00000000 1.00000000 -0.00000062
vn 0.00000000 1.00000000 0.00000000
vn 0.00000000 1.00000000 -0.00000062
vn 0.00000000 1.00000000 0.00000000
vn 0.00000000 1.00000000 0.00000081
vn 0.00000000 1.00000000 0.00000000
vn 0.00000000 1.00000000 0.00000080
vn 0.00000000 1.00000000 0.00000000
vn 0.00000000 1.00000000 0.00000000
vn 0.00000000 1.00000000 0.00000000
vn 0.00000000 1.00000000 0.00000000
vn 0.00000000 1.00000000 0.00000000
vn 0.00000000 1.00000000 0.00000000
vn 0.00000000 1.00000000 0.00000000
vn 0.00000000 1.00000000 0.00000000
vn 0.00000000 1.00000000 0.00000000
vn 0.00000000 1.00000000 0.00000000
vn 0.00000000 1.00000000 0.00000000
vn 0.00000000 1.00000000 0.00000000
vn 0.00000000 1.00000000 0.00000000
vn 0.00000000 1.00000000 0.00000000
vn 0.00000000 1.00000000 0.00000000
vn 0.00000000 1.00000000 0.00000000
vn 0.00000000 1.00000000 0.00000000
vn 0.00000000 1.00000000 0.00000000
vn 0.00000000 1.00000000 0.00000000
vn 0.00000000 1.00000000 -0.00000076
vn 0.00000000 1.00000000 -0.00000076
vn 0.00000000 1.00000000 -0.00000299
vn 0.00000000 1.00000000 -0.00000299
vt -43.65164000 -17.75517000
vt -43.65064000 -17.75517000
vt -43.65064000 -17.75617000
vt -43.65164000 -17.75617000
vt -45.16684000 0.16161850
vt -45.13062000 0.20334190
vt -44.22199000 0.20334570
vt -44.22199000 0.16161970
vt -43.27735000 0.16161530
vt -43.31356000 0.20334560
vt -44.22199000 1.25009500
vt -45.13062000 1.20836900
vt -45.16684000 1.25008900
vt -44.22199000 1.20836500
vt -43.31356000 1.20836900
vt -43.27735000 1.25009100
vt -43.44040000 0.99488530
vt -43.44040000 0.97122750
vt -44.02317000 0.97122310
vt -44.02317000 0.99488630
vt -44.04171000 0.97122400
vt -44.04172000 0.99488590
vt -44.62449000 0.99488260
vt -44.62450000 0.97122700
vt -45.13062000 0.20334190
vt -45.16684000 0.16161850
vt -45.16684000 0.69666390
vt -45.13063000 0.69666470
vt -45.16684000 0.71504320
vt -45.13062000 0.71504920
vt -45.13062000 1.20836900
vt -45.16684000 1.25008900
vt -43.85928000 0.90028700
vt -44.44207000 0.92394940
vt -43.85929000 0.92394730
vt -44.44207000 0.90028470
vt -44.46061000 0.90028720
vt -44.46061000 0.92394750
vt -45.04339000 0.92394950
vt -45.04339000 0.90028490
vt -43.31356000 0.20334560
vt -43.27736000 0.69666390
vt -43.27735000 0.16161530
vt -43.31356000 0.69666420
vt -43.31355000 0.71504400
vt -43.27736000 0.71504320
vt -43.27735000 1.25009100
vt -43.31356000 1.20836900
vt -43.44040000 0.91031950
vt -43.44039000 0.88594010
vt -44.02317000 0.88594320
vt -44.02317000 0.91031780
vt -44.04171000 0.88593800
vt -44.02317000 0.93329880
vt -43.44039000 0.93329570
vt -43.44040000 0.97122750
vt -44.02317000 0.97122310
vt -44.04171000 0.91031590
vt -44.04172000 0.93329850
vt -44.04171000 0.97122400
vt -44.62450000 0.97122700
vt -44.62449000 0.93329940
vt -44.62449000 0.91031410
vt -44.62449000 0.88594380
vt -45.29674000 1.29281100
vt -45.34571000 0.71504750
vt -45.34571000 1.29280800
vt -45.29674000 0.71504930
vt -45.18346000 1.26288800
vt -44.22199000 1.29281100
vt -45.29674000 0.69666460
vt -45.34571000 0.69666640
vt -45.34571000 0.11889980
vt -45.29674000 0.11889820
vt -45.18346000 0.69666140
vt -45.18346000 0.14881420
vt -45.18347000 0.71504330
vt -44.22200000 0.14881700
vt -44.22199000 0.11889390
vt -43.14749000 0.11889780
vt -45.16684000 0.69666390
vt -45.16684000 0.71504320
vt -45.16684000 0.16161850
vt -44.22199000 0.16161970
vt -45.16684000 1.25008900
vt -43.27735000 0.16161530
vt -44.22200000 1.26289100
vt -44.22199000 1.25009500
vt -43.26073000 0.14881680
vt -43.27736000 0.69666390
vt -43.26073000 1.26289100
vt -43.27735000 1.25009100
vt -43.14749000 1.29281000
vt -43.26073000 0.69666400
vt -43.27736000 0.71504320
vt -43.26073000 0.71504380
vt -43.14749000 0.69666430
vt -43.09851000 0.11889470
vt -43.09851000 0.69666120
vt -43.14748000 0.71504390
vt -43.09852000 0.71504720
vt -43.09851000 1.29280700
vt -45.31463000 -0.26408480
vt -45.32903000 -0.26408650
vt -45.32903000 0.27435570
vt -45.31463000 0.27435940
vt -45.28569000 -0.26409040
vt -45.32903000 0.29150170
vt -45.28569000 0.27435640
vt -45.24005000 -0.26408640
vt -45.31462000 0.29149860
vt -45.32903000 0.82994590
vt -45.31462000 0.82994270
vt -45.28569000 0.29149780
vt -45.28569000 0.82994200
vt -45.24005000 0.27435980
vt -44.23843000 -0.26408450
vt -45.24005000 0.29150190
vt -45.24005000 0.82994590
vt -44.23843000 0.27435960
vt -44.23843000 0.29150100
vt -44.23843000 0.82994780
vt -43.23702000 0.82994230
vt -43.23703000 0.27435900
vt -43.23702000 -0.26409000
vt -43.23702000 0.29149820
vt -43.19139000 0.82994190
vt -43.19139000 0.27436020
vt -43.19139000 -0.26409050
vt -43.19139000 0.29149770
vt -43.16246000 0.82994210
vt -43.16246000 0.27435660
vt -43.16246000 -0.26409000
vt -43.16247000 0.29149760
vt -43.14807000 0.82994570
vt -43.14807000 0.29150160
vt -43.14806000 0.27436020
vt -43.14807000 -0.26408670
vt -45.04339000 0.98485340
vt -45.04340000 1.00923300
vt -44.46061000 1.00923000
vt -44.46061000 0.98485760
vt -44.44207000 1.00923300
vt -45.04340000 0.96187720
vt -44.44207000 0.98485740
vt -43.85928000 1.00923000
vt -43.85928000 0.98485740
vt -44.46061000 0.96187470
vt -44.44206000 0.96187490
vt -43.85928000 0.96187450
vt -43.85929000 0.92394730
vt -44.44207000 0.92394940
vt -44.46061000 0.92394750
vt -45.04339000 0.92394950
vt -45.32872000 0.03604609
vt -45.31961000 0.02100891
vt -45.32872000 0.01482683
vt -45.32872000 -0.00769114
vt -45.32027000 0.03438306
vt -45.31960000 -0.00150913
vt -45.31432000 0.07108563
vt -45.31432000 -0.00150716
vt -45.30762000 0.06590784
vt -45.31432000 -0.00769496
vt -45.28540000 0.09294027
vt -45.28539000 -0.00150704
vt -45.28177000 0.08515012
vt -45.28539000 -0.00769484
vt -45.23977000 0.10331700
vt -45.23977000 -0.00150377
vt -45.23880000 0.09464782
vt -45.23977000 -0.00769126
vt -44.23843000 0.10331700
vt -44.23843000 0.09453690
vt -43.23828000 0.09464881
vt -43.23731000 0.10331120
vt -43.19531000 0.08515323
vt -43.19169000 0.09293836
vt -43.16948000 0.06590753
vt -43.16277000 0.07108968
vt -43.15683000 0.03438308
vt -43.14838000 0.03605254
vt -43.15749000 0.02100930
vt -43.14837000 0.01482736
vt -43.15749000 -0.00150710
vt -43.14837000 -0.00769068
vt -43.16277000 -0.00150589
vt -43.16277000 -0.00769089
vt -43.19169000 -0.00150549
vt -43.19169000 -0.00769174
vt -43.23731000 -0.00150345
vt -43.23731000 -0.00769113
vt -44.23843000 -0.00150365
vt -44.23843000 -0.00769132
vt -45.24004000 -0.05663383
vt -44.23843000 -0.04796121
vt -44.23842000 -0.05663335
vt -43.23703000 -0.05663584
vt -45.23907000 -0.04796010
vt -43.23801000 -0.04796010
vt -45.28569000 -0.04623920
vt -43.19140000 -0.04624364
vt -45.28207000 -0.03846550
vt -43.19502000 -0.03846937
vt -45.31462000 -0.02438492
vt -43.16247000 -0.02438910
vt -45.30791000 -0.01921564
vt -43.16918000 -0.01921568
vt -45.32903000 0.01066130
vt -43.14807000 0.01065986
vt -45.32057000 0.01231706
vt -43.15652000 0.01232078
vt -43.14808000 0.03189300
vt -43.15719000 0.02571088
vt -43.14808000 0.05441408
vt -43.15719000 0.04823086
vt -43.16248000 0.05440991
vt -43.16248000 0.04823177
vt -43.19140000 0.05441397
vt -43.19140000 0.04823172
vt -43.23703000 0.05441044
vt -43.23704000 0.04823177
vt -45.32902000 0.03188986
vt -45.31991000 0.02570862
vt -44.23843000 0.05441022
vt -44.23843000 0.04823154
vt -45.24004000 0.04823142
vt -45.24004000 0.05441433
vt -45.28568000 0.04822749
vt -45.28568000 0.05441028
vt -45.31462000 0.04823136
vt -45.31462000 0.05441421
vt -45.31991000 0.04823142
vt -45.32903000 0.05441415
f 3/3/3 2/2/2 1/1/1
f 4/4/4 3/3/3 1/1/1
f 7/7/7 6/6/6 5/5/5
f 8/8/8 7/7/7 5/5/5
f 7/7/7 8/8/8 9/9/9
f 10/10/10 7/7/7 9/9/9
f 13/13/13 12/12/12 11/11/11
f 12/12/12 14/14/14 11/11/11
f 14/14/14 15/15/15 11/11/11
f 15/15/15 16/16/16 11/11/11
f 19/19/19 18/18/18 17/17/17
f 20/20/20 19/19/19 17/17/17
f 21/21/21 19/19/19 20/20/20
f 22/22/22 21/21/21 20/20/20
f 22/22/22 23/23/23 21/21/21
f 23/23/23 24/24/24 21/21/21
f 27/27/27 26/26/26 25/25/25
f 28/28/28 27/27/27 25/25/25
f 29/29/29 27/27/27 28/28/28
f 30/30/30 29/29/29 28/28/28
f 30/30/30 31/31/31 29/29/29
f 31/31/31 32/32/32 29/29/29
f 35/35/35 34/34/34 33/33/33
f 34/34/34 36/36/36 33/33/33
f 37/37/37 36/36/36 34/34/34
f 38/38/38 37/37/37 34/34/34
f 38/38/38 39/39/39 37/37/37
f 39/39/39 40/40/40 37/37/37
f 43/43/43 42/42/42 41/41/41
f 42/42/42 44/44/44 41/41/41
f 45/45/45 44/44/44 42/42/42
f 46/46/46 45/45/45 42/42/42
f 46/46/46 47/47/47 45/45/45
f 47/47/47 48/48/48 45/45/45
f 51/51/51 50/50/50 49/49/49
f 52/52/52 51/51/51 49/49/49
f 53/53/53 51/51/51 52/52/52
f 52/52/52 49/49/49 54/54/54
f 49/49/49 55/55/55 54/54/54
f 54/54/54 55/55/55 56/56/56
f 57/57/57 54/54/54 56/56/56
f 58/58/58 53/53/53 52/52/52
f 58/58/58 52/52/52 54/54/54
f 59/59/59 54/54/54 57/57/57
f 59/59/59 58/58/58 54/54/54
f 60/60/60 59/59/59 57/57/57
f 60/60/60 61/61/61 59/59/59
f 61/61/61 62/62/62 59/59/59
f 58/58/58 59/59/59 62/62/62
f 63/63/63 58/58/58 62/62/62
f 58/58/58 63/63/63 53/53/53
f 63/63/63 64/64/64 53/53/53
f 67/67/67 66/66/66 65/65/65
f 66/66/66 68/68/68 65/65/65
f 69/69/69 65/65/65 68/68/68
f 65/65/65 69/69/69 70/70/70
f 68/68/68 66/66/66 71/71/71
f 66/66/66 72/72/72 71/71/71
f 72/72/72 73/73/73 71/71/71
f 73/73/73 74/74/74 71/71/71
f 68/68/68 71/71/71 75/75/75
f 71/71/71 74/74/74 76/76/76
f 75/75/75 71/71/71 76/76/76
f 77/77/77 68/68/68 75/75/75
f 77/77/77 69/69/69 68/68/68
f 78/78/78 76/76/76 74/74/74
f 79/79/79 78/78/78 74/74/74
f 78/78/78 79/79/79 80/80/80
f 77/77/77 75/75/75 81/81/81
f 75/75/75 76/76/76 81/81/81
f 82/82/82 77/77/77 81/81/81
f 76/76/76 83/83/83 81/81/81
f 84/84/84 83/83/83 76/76/76
f 78/78/78 84/84/84 76/76/76
f 77/77/77 82/82/82 85/85/85
f 69/69/69 77/77/77 85/85/85
f 86/86/86 84/84/84 78/78/78
f 69/69/69 85/85/85 87/87/87
f 69/69/69 87/87/87 70/70/70
f 85/85/85 88/88/88 87/87/87
f 89/89/89 86/86/86 78/78/78
f 86/86/86 89/89/89 90/90/90
f 89/89/89 78/78/78 80/80/80
f 87/87/87 91/91/91 70/70/70
f 87/87/87 88/88/88 91/91/91
f 88/88/88 92/92/92 91/91/91
f 91/91/91 93/93/93 70/70/70
f 89/89/89 94/94/94 90/90/90
f 89/89/89 80/80/80 94/94/94
f 95/95/95 90/90/90 94/94/94
f 95/95/95 96/96/96 92/92/92
f 96/96/96 91/91/91 92/92/92
f 96/96/96 95/95/95 94/94/94
f 80/80/80 97/97/97 94/94/94
f 96/96/96 94/94/94 97/97/97
f 80/80/80 98/98/98 97/97/97
f 98/98/98 99/99/99 97/97/97
f 96/96/96 100/100/100 91/91/91
f 100/100/100 96/96/96 97/97/97
f 100/100/100 97/97/97 99/99/99
f 100/100/100 93/93/93 91/91/91
f 101/101/101 100/100/100 99/99/99
f 100/100/100 101/101/101 93/93/93
f 101/101/101 102/102/102 93/93/93
f 105/105/105 104/104/104 103/103/103
f 106/106/106 105/105/105 103/103/103
f 106/106/106 103/103/103 107/107/107
f 105/105/105 106/106/106 108/108/108
f 109/109/109 106/106/106 107/107/107
f 109/109/109 107/107/107 110/110/110
f 106/106/106 111/111/111 108/108/108
f 106/106/106 109/109/109 111/111/111
f 112/112/112 108/108/108 111/111/111
f 113/113/113 112/112/112 111/111/111
f 113/113/113 111/111/111 114/114/114
f 109/109/109 114/114/114 111/111/111
f 115/115/115 113/113/113 114/114/114
f 116/116/116 109/109/109 110/110/110
f 109/109/109 116/116/116 114/114/114
f 116/116/116 110/110/110 117/117/117
f 115/115/115 114/114/114 118/118/118
f 116/116/116 118/118/118 114/114/114
f 119/119/119 115/115/115 118/118/118
f 120/120/120 116/116/116 117/117/117
f 116/116/116 120/120/120 118/118/118
f 119/119/119 118/118/118 121/121/121
f 120/120/120 121/121/121 118/118/118
f 122/122/122 119/119/119 121/121/121
f 123/123/123 122/122/122 121/121/121
f 124/124/124 120/120/120 117/117/117
f 120/120/120 124/124/124 121/121/121
f 125/125/125 124/124/124 117/117/117
f 126/126/126 123/123/123 121/121/121
f 124/124/124 126/126/126 121/121/121
f 127/127/127 123/123/123 126/126/126
f 128/128/128 124/124/124 125/125/125
f 124/124/124 128/128/128 126/126/126
f 129/129/129 128/128/128 125/125/125
f 130/130/130 127/127/127 126/126/126
f 128/128/128 130/130/130 126/126/126
f 131/131/131 127/127/127 130/130/130
f 132/132/132 128/128/128 129/129/129
f 128/128/128 132/132/132 130/130/130
f 133/133/133 132/132/132 129/129/129
f 134/134/134 131/131/131 130/130/130
f 132/132/132 134/134/134 130/130/130
f 135/135/135 131/131/131 134/134/134
f 136/136/136 135/135/135 134/134/134
f 137/137/137 136/136/136 134/134/134
f 132/132/132 137/137/137 134/134/134
f 137/137/137 132/132/132 133/133/133
f 138/138/138 137/137/137 133/133/133
f 141/141/141 140/140/140 139/139/139
f 142/142/142 141/141/141 139/139/139
f 141/141/141 142/142/142 143/143/143
f 142/142/142 139/139/139 144/144/144
f 142/142/142 145/145/145 143/143/143
f 146/146/146 143/143/143 145/145/145
f 147/147/147 146/146/146 145/145/145
f 148/148/148 142/142/142 144/144/144
f 142/142/142 148/148/148 145/145/145
f 147/147/147 145/145/145 149/149/149
f 148/148/148 149/149/149 145/145/145
f 150/150/150 147/147/147 149/149/149
f 150/150/150 149/149/149 151/151/151
f 149/149/149 152/152/152 151/151/151
f 153/153/153 152/152/152 149/149/149
f 148/148/148 153/153/153 149/149/149
f 148/148/148 144/144/144 153/153/153
f 144/144/144 154/154/154 153/153/153
f 157/157/157 156/156/156 155/155/155
f 157/157/157 158/158/158 156/156/156
f 156/156/156 159/159/159 155/155/155
f 158/158/158 160/160/160 156/156/156
f 155/155/155 159/159/159 161/161/161
f 162/162/162 160/160/160 158/158/158
f 159/159/159 163/163/163 161/161/161
f 164/164/164 162/162/162 158/158/158
f 161/161/161 163/163/163 165/165/165
f 166/166/166 162/162/162 164/164/164
f 163/163/163 167/167/167 165/165/165
f 168/168/168 166/166/166 164/164/164
f 165/165/165 167/167/167 169/169/169
f 170/170/170 166/166/166 168/168/168
f 167/167/167 171/171/171 169/169/169
f 172/172/172 170/170/170 168/168/168
f 169/169/169 171/171/171 173/173/173
f 171/171/171 174/174/174 173/173/173
f 174/174/174 175/175/175 173/173/173
f 175/175/175 176/176/176 173/173/173
f 175/175/175 177/177/177 176/176/176
f 177/177/177 178/178/178 176/176/176
f 177/177/177 179/179/179 178/178/178
f 179/179/179 180/180/180 178/178/178
f 179/179/179 181/181/181 180/180/180
f 181/181/181 182/182/182 180/180/180
f 181/181/181 183/183/183 182/182/182
f 183/183/183 184/184/184 182/182/182
f 183/183/183 185/185/185 184/184/184
f 185/185/185 186/186/186 184/184/184
f 185/185/185 187/187/187 186/186/186
f 187/187/187 188/188/188 186/186/186
f 187/187/187 189/189/189 188/188/188
f 189/189/189 190/190/190 188/188/188
f 189/189/189 191/191/191 190/190/190
f 191/191/191 192/192/192 190/190/190
f 191/191/191 193/193/193 192/192/192
f 193/193/193 194/194/194 192/192/192
f 194/194/194 193/193/193 172/172/172
f 193/193/193 170/170/170 172/172/172
f 197/197/197 196/196/196 195/195/195
f 196/196/196 197/197/197 198/198/198
f 196/196/196 199/199/199 195/195/195
f 200/200/200 196/196/196 198/198/198
f 195/195/195 199/199/199 201/201/201
f 200/200/200 198/198/198 202/202/202
f 199/199/199 203/203/203 201/201/201
f 204/204/204 200/200/200 202/202/202
f 201/201/201 203/203/203 205/205/205
f 204/204/204 202/202/202 206/206/206
f 203/203/203 207/207/207 205/205/205
f 208/208/208 204/204/204 206/206/206
f 205/205/205 207/207/207 209/209/209
f 208/208/208 206/206/206 210/210/210
f 207/207/207 211/211/211 209/209/209
f 212/212/212 208/208/208 210/210/210
f 212/212/212 210/210/210 213/213/213
f 214/214/214 212/212/212 213/213/213
f 213/213/213 215/215/215 214/214/214
f 215/215/215 216/216/216 214/214/214
f 216/216/216 215/215/215 217/217/217
f 218/218/218 216/216/216 217/217/217
f 218/218/218 217/217/217 219/219/219
f 220/220/220 218/218/218 219/219/219
f 220/220/220 219/219/219 221/221/221
f 222/222/222 220/220/220 221/221/221
f 209/209/209 211/211/211 223/223/223
f 211/211/211 224/224/224 223/223/223
f 222/222/222 221/221/221 225/225/225
f 226/226/226 222/222/222 225/225/225
f 227/227/227 226/226/226 225/225/225
f 228/228/228 227/227/227 225/225/225
f 229/229/229 227/227/227 228/228/228
f 230/230/230 229/229/229 228/228/228
f 231/231/231 229/229/229 230/230/230
f 232/232/232 231/231/231 230/230/230
f 224/224/224 233/233/233 223/223/223
f 233/233/233 231/231/231 232/232/232
f 233/233/233 234/234/234 223/223/223
f 234/234/234 233/233/233 232/232/232

