mtllib material.mtl
usemtl material_0
v 0.08233520 0.00000000 0.12129680
v 0.08233520 0.00214204 0.12129680
v 0.08233520 0.00214204 -0.12129680
v 0.08233520 0.00000000 -0.12129680
v -0.08260254 0.01391746 0.12129680
v -0.08205017 0.01458915 0.12089650
v -0.08067108 0.01458906 0.12089650
v -0.08006317 0.01391746 0.12129680
v -0.07970947 0.00934343 0.12129680
v -0.08222564 0.00894001 0.12129680
v -0.07858399 0.00443612 0.12129680
v -0.08081604 0.00402456 0.12129680
v -0.07848693 0.00082437 0.12129680
v -0.07732849 0.00278189 0.12129680
v -0.07751526 0.00057450 0.12008390
v -0.07751465 0.00057418 -0.12008390
v -0.07803711 0.00082206 -0.12008390
v -0.07803772 0.00082236 0.12008390
v -0.07803772 0.00082236 0.12008390
v -0.07726166 0.00201585 0.12008390
v -0.07673401 0.00177569 0.12008390
v -0.07751526 0.00057450 0.12008390
v -0.07726166 0.00201585 0.12008390
v -0.07726105 0.00201556 -0.12008380
v -0.07673340 0.00177539 -0.12008390
v -0.07673401 0.00177569 0.12008390
v -0.07726105 0.00201556 -0.12008380
v -0.07803711 0.00082206 -0.12008390
v -0.07751465 0.00057418 -0.12008390
v -0.07673340 0.00177539 -0.12008390
v -0.07715759 0.00000000 0.12129680
v -0.07576813 0.00214204 0.12129680
v 0.08233520 0.00214204 0.12129680
v 0.08233520 0.00000000 0.12129680
v -0.07576813 0.00214204 0.12129680
v -0.07576813 0.00214204 -0.12129680
v 0.08233520 0.00214204 -0.12129680
v 0.08233520 0.00214204 0.12129680
v -0.07576813 0.00214204 -0.12129680
v -0.07715759 0.00000000 -0.12129680
v 0.08233520 0.00000000 -0.12129680
v 0.08233520 0.00214204 -0.12129680
v -0.07715759 0.00000000 -0.12129680
v -0.07715759 0.00000000 0.12129680
v 0.08233520 0.00000000 0.12129680
v 0.08233520 0.00000000 -0.12129680
v -0.07732849 0.00278189 0.12129680
v -0.07858399 0.00443612 -0.12129680
v -0.07732849 0.00278189 -0.12129680
v -0.07858399 0.00443612 0.12129680
v -0.07970947 0.00934343 0.12129680
v -0.07970947 0.00934343 -0.12129680
v -0.08006317 0.01391746 -0.12129680
v -0.08006317 0.01391746 0.12129680
v -0.08067108 0.01458906 0.12089650
v -0.08067108 0.01458906 -0.12089650
v -0.08205017 0.01458915 -0.12089650
v -0.08205017 0.01458915 0.12089650
v -0.07732849 0.00278189 -0.12129680
v -0.08081604 0.00402456 -0.12129680
v -0.07848693 0.00082439 -0.12129680
v -0.07858399 0.00443612 -0.12129680
v -0.07970947 0.00934343 -0.12129680
v -0.08222564 0.00894001 -0.12129680
v -0.08006317 0.01391746 -0.12129680
v -0.08260254 0.01391746 -0.12129680
v -0.08205017 0.01458915 -0.12089650
v -0.08067108 0.01458906 -0.12089650
v -0.07848693 0.00082439 -0.12129680
v -0.08081604 0.00402456 0.12129680
v -0.07848693 0.00082437 0.12129680
v -0.08081604 0.00402456 -0.12129680
v -0.08222564 0.00894001 -0.12129680
v -0.08222564 0.00894001 0.12129680
v -0.08260254 0.01391746 -0.12129680
v -0.08260254 0.01391746 0.12129680
v -0.08205017 0.01458915 -0.12089650
v -0.08205017 0.01458915 0.12089650
v -0.07848693 0.00082437 0.12129680
v -0.07803772 0.00082236 0.12008390
v -0.07803711 0.00082206 -0.12008390
v -0.07848693 0.00082439 -0.12129680
v -0.07715759 0.00000000 -0.12129680
v -0.07751465 0.00057418 -0.12008390
v -0.07751526 0.00057450 0.12008390
v -0.07715759 0.00000000 0.12129680
v -0.07715759 0.00000000 0.12129680
v -0.07751526 0.00057450 0.12008390
v -0.07673401 0.00177569 0.12008390
v -0.07576813 0.00214204 0.12129680
v -0.07732849 0.00278189 0.12129680
v -0.07726166 0.00201585 0.12008390
v -0.07803772 0.00082236 0.12008390
v -0.07848693 0.00082437 0.12129680
v -0.07576813 0.00214204 0.12129680
v -0.07673401 0.00177569 0.12008390
v -0.07673340 0.00177539 -0.12008390
v -0.07576813 0.00214204 -0.12129680
v -0.07732849 0.00278189 -0.12129680
v -0.07726105 0.00201556 -0.12008380
v -0.07726166 0.00201585 0.12008390
v -0.07732849 0.00278189 0.12129680
v -0.07576813 0.00214204 -0.12129680
v -0.07673340 0.00177539 -0.12008390
v -0.07751465 0.00057418 -0.12008390
v -0.07715759 0.00000000 -0.12129680
v -0.07848693 0.00082439 -0.12129680
v -0.07803711 0.00082206 -0.12008390
v -0.07726105 0.00201556 -0.12008380
v -0.07732849 0.00278189 -0.12129680
vn 1.00000000 0.00000000 0.00000000
vn 1.00000000 0.00000000 0.00000000
vn 1.00000000 0.00000000 0.00000000
vn 1.00000000 0.00000000 0.00000000
vn 0.00000171 0.03924435 0.99922970
vn 0.00001260 0.51209100 0.85893120
vn 0.00001260 0.51209100 0.85893120
vn 0.00000160 0.03446186 0.99940600
vn 0.00000157 0.00000000 1.00000000
vn 0.00000159 0.00000000 1.00000000
vn 0.00000143 0.00000000 1.00000000
vn 0.00000174 0.00000000 1.00000000
vn 0.00000000 0.00000000 1.00000000
vn 0.00000000 0.00000000 1.00000000
vn -0.42847860 -0.90355190 0.00000000
vn -0.42847860 -0.90355190 0.00000000
vn -0.42847860 -0.90355190 0.00000000
vn -0.42847860 -0.90355190 0.00000000
vn 0.00000000 0.00000000 1.00000000
vn 0.00000000 0.00000000 1.00000000
vn 0.00000000 0.00000000 1.00000000
vn 0.00000000 0.00000000 1.00000000
vn 0.41432030 0.91013120 -0.00000011
vn 0.41432030 0.91013120 -0.00000011
vn 0.41432030 0.91013120 -0.00000011
vn 0.41432050 0.91013110 -0.00000011
vn -0.00003535 0.00005984 -1.00000000
vn -0.00003535 0.00005984 -1.00000000
vn -0.00003535 0.00005984 -1.00000000
vn -0.00003535 0.00005984 -1.00000000
vn 0.00000000 0.00000000 1.00000000
vn 0.00000000 0.00000000 1.00000000
vn 0.00000000 0.00000000 1.00000000
vn 0.00000000 0.00000000 1.00000000
vn 0.00000000 1.00000000 0.00000000
vn 0.00000000 1.00000000 0.00000000
vn 0.00000000 1.00000000 0.00000000
vn 0.00000000 1.00000000 0.00000000
vn 0.00000000 0.00000000 -1.00000000
vn 0.00000000 0.00000000 -1.00000000
vn 0.00000000 0.00000000 -1.00000000
vn 0.00000000 0.00000000 -1.00000000
vn 0.00000000 -1.00000000 0.00000000
vn 0.00000000 -1.00000000 0.00000000
vn 0.00000000 -1.00000000 0.00000000
vn 0.00000000 -1.00000000 0.00000000
vn 0.79665040 0.60444030 0.00000000
vn 0.94004280 0.34105670 0.00000000
vn 0.79665040 0.60444030 0.00000000
vn 0.94004280 0.34105670 0.00000000
vn 0.98803310 0.15424230 0.00000000
vn 0.98803310 0.15424230 0.00000000
vn 0.98761930 0.15687030 0.00000000
vn 0.98761930 0.15687030 0.00000000
vn 0.36680810 0.93029660 0.00000000
vn 0.36680810 0.93029660 0.00000000
vn -0.37890510 0.92543550 0.00000000
vn -0.37890510 0.92543550 0.00000000
vn 0.00000000 0.00000000 -1.00000000
vn 0.00000174 0.00000000 -1.00000000
vn 0.00000000 0.00000000 -1.00000000
vn 0.00000143 0.00000000 -1.00000000
vn 0.00000157 0.00000000 -1.00000000
vn 0.00000159 0.00000000 -1.00000000
vn 0.00000160 0.03446186 -0.99940600
vn 0.00000171 0.03924437 -0.99922970
vn 0.00001260 0.51209120 -0.85893100
vn 0.00001260 0.51209120 -0.85893100
vn -0.80857500 -0.58839310 0.00000000
vn -0.90825580 -0.41841530 0.00000000
vn -0.80857500 -0.58839320 0.00000000
vn -0.90825580 -0.41841530 0.00000000
vn -0.98407880 -0.17773290 0.00000000
vn -0.98407880 -0.17773290 0.00000000
vn -0.99998650 0.00519169 0.00000000
vn -0.99998650 0.00519169 0.00000000
vn -0.37890510 0.92543550 0.00000000
vn -0.37890510 0.92543550 0.00000000
vn -0.00482975 -0.99998830 0.00000057
vn -0.00482975 -0.99998830 0.00000057
vn -0.00482975 -0.99998830 0.00000057
vn -0.00482975 -0.99998830 0.00000057
vn -0.84902330 -0.52835550 -0.00000071
vn -0.84902330 -0.52835540 -0.00000071
vn -0.84902330 -0.52835550 -0.00000071
vn -0.84902330 -0.52835550 -0.00000071
vn -0.74885430 0.48620540 0.45035710
vn -0.74885430 0.48620530 0.45035710
vn -0.74885440 0.48620530 0.45035710
vn -0.74885430 0.48620530 0.45035710
vn 0.80509110 -0.49444280 0.32765020
vn 0.80509110 -0.49444270 0.32765020
vn 0.80509110 -0.49444270 0.32765020
vn 0.80509110 -0.49444270 0.32765020
vn -0.35478460 0.93494810 -0.00000102
vn -0.35478460 0.93494810 -0.00000102
vn -0.35478460 0.93494810 -0.00000102
vn -0.35478460 0.93494810 -0.00000102
vn 0.99616820 0.08745858 0.00000118
vn 0.99616820 0.08745858 0.00000118
vn 0.99616820 0.08745858 0.00000118
vn 0.99616820 0.08745860 0.00000118
vn -0.74901850 0.48631420 -0.44996630
vn -0.74901840 0.48631420 -0.44996640
vn -0.74901850 0.48631410 -0.44996630
vn -0.74901850 0.48631410 -0.44996630
vn 0.80494720 -0.49434190 -0.32815570
vn 0.80494720 -0.49434190 -0.32815570
vn 0.80494720 -0.49434190 -0.32815570
vn 0.80494720 -0.49434190 -0.32815570
vt 0.25062890 0.50045870
vt 0.25062890 0.50045870
vt 0.25062890 0.74955090
vt 0.25062890 0.74955090
vt 0.27416220 0.50045870
vt 0.27615330 0.50045870
vt 0.27615310 0.49922010
vt 0.27416220 0.49922010
vt 0.26721680 0.49922010
vt 0.26721670 0.50045870
vt 0.25888190 0.49922010
vt 0.25888190 0.50045870
vt 0.25397960 0.50045870
vt 0.25397960 0.49922010
vt 0.25222440 0.50045870
vt 0.25222440 0.74955090
vt 0.25307050 0.74955090
vt 0.25307050 0.50045870
vt 0.25307050 0.50045870
vt 0.25307050 0.49922010
vt 0.25222440 0.49922010
vt 0.25222440 0.50045870
vt 0.11574400 0.11387250
vt 0.11559280 0.03518933
vt 0.11536720 0.03518933
vt 0.11551830 0.11387250
vt 0.25307050 0.75074050
vt 0.25307050 0.74955090
vt 0.25222440 0.74955090
vt 0.25222440 0.75074050
vt 0.25122480 0.50045870
vt 0.25122480 0.49922010
vt 0.25062890 0.49922010
vt 0.25062890 0.50045870
vt 0.11512050 0.11387250
vt 0.11496810 0.03518933
vt 0.05557740 0.03518933
vt 0.05557740 0.11387250
vt 0.25122480 0.75074050
vt 0.25122480 0.74955090
vt 0.25062890 0.74955090
vt 0.25062890 0.75074050
vt 0.25122480 0.74955090
vt 0.25122480 0.50045870
vt 0.25062890 0.50045870
vt 0.25062890 0.74955090
vt 0.11608820 0.11387250
vt 0.11681300 0.03518933
vt 0.11593560 0.03518933
vt 0.11696550 0.11387250
vt 0.11919990 0.11387250
vt 0.11904730 0.03518933
vt 0.13780240 0.03518933
vt 0.13795510 0.11387250
vt 0.14070860 0.11387250
vt 0.14055650 0.03518933
vt 0.14710970 0.03518933
vt 0.14726170 0.11387250
vt 0.25397960 0.75074050
vt 0.25888190 0.74955090
vt 0.25397960 0.74955090
vt 0.25888190 0.75074050
vt 0.26721680 0.75074050
vt 0.26721680 0.74955090
vt 0.27388780 0.75074050
vt 0.27388830 0.74955090
vt 0.27615330 0.74955090
vt 0.27615230 0.75074050
vt 0.25397960 0.74955090
vt 0.25888190 0.50045870
vt 0.25397960 0.50045870
vt 0.25888190 0.74955090
vt 0.26721680 0.74955090
vt 0.26721670 0.50045870
vt 0.27388830 0.74955090
vt 0.27416220 0.50045870
vt 0.27615330 0.74955090
vt 0.27615330 0.50045870
vt 0.25397960 0.50045870
vt 0.25307050 0.50045870
vt 0.25307050 0.74955090
vt 0.25397960 0.74955090
vt 0.25122480 0.74955090
vt 0.25222440 0.74955090
vt 0.25222440 0.50045870
vt 0.25122480 0.50045870
vt 0.25122480 0.50045870
vt 0.25222440 0.50045870
vt 0.25222440 0.49922010
vt 0.25122480 0.49922010
vt 0.25397960 0.49922010
vt 0.25307050 0.49922010
vt 0.25307050 0.50045870
vt 0.25397960 0.50045870
vt 0.11512050 0.11387250
vt 0.11551830 0.11387250
vt 0.11536720 0.03518933
vt 0.11496810 0.03518933
vt 0.11593560 0.03518933
vt 0.11559280 0.03518933
vt 0.11574400 0.11387250
vt 0.11608820 0.11387250
vt 0.25122480 0.75074050
vt 0.25222440 0.75074050
vt 0.25222440 0.74955090
vt 0.25122480 0.74955090
vt 0.25397960 0.74955090
vt 0.25307050 0.74955090
vt 0.25307050 0.75074050
vt 0.25397960 0.75074050
f 3/3/3 2/2/2 1/1/1
f 4/4/4 3/3/3 1/1/1
f 7/7/7 6/6/6 5/5/5
f 8/8/8 7/7/7 5/5/5
f 8/8/8 5/5/5 9/9/9
f 5/5/5 10/10/10 9/9/9
f 9/9/9 10/10/10 11/11/11
f 10/10/10 12/12/12 11/11/11
f 11/11/11 12/12/12 13/13/13
f 14/14/14 11/11/11 13/13/13
f 17/17/17 16/16/16 15/15/15
f 18/18/18 17/17/17 15/15/15
f 21/21/21 20/20/20 19/19/19
f 22/22/22 21/21/21 19/19/19
f 25/25/25 24/24/24 23/23/23
f 26/26/26 25/25/25 23/23/23
f 29/29/29 28/28/28 27/27/27
f 30/30/30 29/29/29 27/27/27
f 33/33/33 32/32/32 31/31/31
f 34/34/34 33/33/33 31/31/31
f 37/37/37 36/36/36 35/35/35
f 38/38/38 37/37/37 35/35/35
f 41/41/41 40/40/40 39/39/39
f 42/42/42 41/41/41 39/39/39
f 45/45/45 44/44/44 43/43/43
f 46/46/46 45/45/45 43/43/43
f 49/49/49 48/48/48 47/47/47
f 48/48/48 50/50/50 47/47/47
f 50/50/50 48/48/48 51/51/51
f 48/48/48 52/52/52 51/51/51
f 51/51/51 52/52/52 53/53/53
f 54/54/54 51/51/51 53/53/53
f 54/54/54 53/53/53 55/55/55
f 53/53/53 56/56/56 55/55/55
f 55/55/55 56/56/56 57/57/57
f 58/58/58 55/55/55 57/57/57
f 61/61/61 60/60/60 59/59/59
f 60/60/60 62/62/62 59/59/59
f 62/62/62 60/60/60 63/63/63
f 60/60/60 64/64/64 63/63/63
f 65/65/65 63/63/63 64/64/64
f 66/66/66 65/65/65 64/64/64
f 66/66/66 67/67/67 65/65/65
f 67/67/67 68/68/68 65/65/65
f 71/71/71 70/70/70 69/69/69
f 70/70/70 72/72/72 69/69/69
f 73/73/73 72/72/72 70/70/70
f 74/74/74 73/73/73 70/70/70
f 75/75/75 73/73/73 74/74/74
f 76/76/76 75/75/75 74/74/74
f 75/75/75 76/76/76 77/77/77
f 76/76/76 78/78/78 77/77/77
f 81/81/81 80/80/80 79/79/79
f 82/82/82 81/81/81 79/79/79
f 85/85/85 84/84/84 83/83/83
f 86/86/86 85/85/85 83/83/83
f 89/89/89 88/88/88 87/87/87
f 90/90/90 89/89/89 87/87/87
f 93/93/93 92/92/92 91/91/91
f 94/94/94 93/93/93 91/91/91
f 97/97/97 96/96/96 95/95/95
f 98/98/98 97/97/97 95/95/95
f 101/101/101 100/100/100 99/99/99
f 102/102/102 101/101/101 99/99/99
f 105/105/105 104/104/104 103/103/103
f 106/106/106 105/105/105 103/103/103
f 109/109/109 108/108/108 107/107/107
f 110/110/110 109/109/109 107/107/107

