# Blender 4.0.0
# www.blender.org
o decimated_mesh
v -0.061447 0.019477 0.044376
v -0.060713 0.018135 0.044386
v -0.055458 0.019477 0.044376
v -0.053660 0.018108 0.053666
v -0.000013 0.019349 0.071317
v -0.000013 0.007929 0.051291
v -0.025733 0.007929 0.044376
v -0.053956 0.019477 0.054019
v -0.000027 0.019351 0.076295
v -0.000013 0.007929 0.058433
v -0.044375 0.010399 0.044376
v -0.038117 0.018143 0.065576
v -0.037896 0.019493 0.066303
v -0.037501 0.007930 0.044376
v -0.019721 0.019350 0.073668
v -0.000019 0.018078 0.075791
v -0.019764 0.018116 0.073183
v -0.029209 0.007929 0.050614
v -0.014920 0.007929 0.056505
vn 1.0000 -0.0000 -0.0000
vn 0.2359 0.8442 -0.4814
vn 0.2159 0.5556 -0.8029
vn -0.3090 -0.8603 0.4055
vn -0.4071 -0.8603 0.3070
vn -0.0000 -0.0000 1.0000
vn -0.0655 -0.8599 0.5062
vn -0.0000 1.0000 -0.0000
vn -0.5760 -0.3190 0.7526
vn -0.1233 -0.3595 0.9250
vn -0.1963 -0.8603 0.4704
vn 0.0018 0.9999 0.0151
vn 1.0000 0.0049 0.0029
vn 1.0000 -0.0012 0.0011
vn -0.3055 -0.8613 0.4060
vn -0.3087 -0.8604 0.4054
vn 0.0014 0.0017 1.0000
vn -0.0000 0.0071 1.0000
vn -0.7261 -0.3931 0.5641
vn -0.7568 -0.3120 0.5744
vn -0.0682 -0.8613 0.5035
vn -0.0001 -1.0000 -0.0001
vn -0.5770 -0.3119 0.7548
vn -0.1226 -0.3658 0.9226
vn -0.1937 -0.8613 0.4698
vn -0.0000 1.0000 -0.0003
vn 0.0044 1.0000 -0.0042
vn -0.0012 1.0000 0.0002
vn -0.3566 -0.3313 0.8735
vn -0.3517 -0.3984 0.8471
vn -0.7316 -0.3961 0.5549
vn -0.7501 -0.3127 0.5827
vn -0.0026 1.0000 0.0020
vn -0.0000 1.0000 -0.0007
vn 0.0053 0.0100 0.9999
vn -0.3091 -0.8604 0.4051
vn -0.3088 -0.8604 0.4055
vn -0.0040 0.9996 0.0293
vn 0.0038 1.0000 -0.0003
vn -0.0684 -0.8601 0.5055
vn -0.0651 -0.8615 0.5036
s 0
f 10//1 6//1 5//1
f 3//2 5//2 6//2
f 3//3 6//3 7//3
f 14//4 12//4 11//4
f 11//5 4//5 2//5
f 3//6 11//6 7//6
f 19//7 10//7 17//7
f 7//8 19//8 6//8
f 8//9 4//9 12//9
f 9//10 15//10 17//10
f 17//11 12//11 18//11
f 13//12 15//12 5//12
f 9//13 16//13 5//13
f 16//14 10//14 5//14
f 14//15 18//15 12//15
f 12//16 4//16 11//16
f 14//6 7//6 11//6
f 11//17 3//17 2//17
f 2//18 3//18 1//18
f 8//19 1//19 2//19
f 2//20 4//20 8//20
f 16//21 17//21 10//21
f 10//8 6//8 19//8
f 19//8 7//8 18//8
f 18//22 14//22 7//22
f 12//23 13//23 8//23
f 17//24 16//24 9//24
f 18//25 19//25 17//25
f 15//26 9//26 5//26
f 5//27 3//27 13//27
f 3//8 1//8 8//8
f 8//28 13//28 3//28
f 15//29 13//29 17//29
f 12//30 17//30 13//30
f 2//31 4//31 1//31
f 4//32 8//32 1//32
f 8//33 13//33 1//33
f 13//34 3//34 1//34
f 3//6 14//6 7//6
f 3//6 11//6 14//6
f 3//6 1//6 11//6
f 11//35 1//35 2//35
f 11//36 14//36 4//36
f 14//37 12//37 4//37
f 15//38 9//38 13//38
f 9//39 5//39 13//39
f 19//40 16//40 17//40
f 10//8 18//8 19//8
f 10//8 7//8 18//8
f 10//8 6//8 7//8
f 10//41 16//41 19//41
