# Blender 4.0.0
# www.blender.org
o decimated_mesh
v -0.000007 0.028348 -0.079218
v 0.000013 0.028350 -0.074625
v 0.000013 0.008675 -0.053632
v -0.065803 0.028350 -0.034631
v 0.000013 0.008675 -0.059713
v -0.040385 0.008677 -0.034622
v -0.070757 0.028350 -0.034631
v 0.000006 0.018084 -0.075795
v -0.014046 0.018136 -0.074079
v -0.048185 0.008677 -0.034622
v -0.021222 0.018084 -0.072648
v -0.020105 0.019138 -0.073461
v -0.020580 0.028346 -0.076537
v -0.068542 0.028346 -0.039794
v -0.065693 0.018151 -0.037948
v -0.029695 0.008675 -0.051884
v -0.042262 0.008677 -0.042268
v -0.067117 0.018243 -0.034631
v -0.053659 0.018111 -0.053662
v -0.014993 0.008675 -0.057808
v -0.038144 0.018154 -0.065563
v -0.058404 0.013440 -0.034622
v -0.056061 0.028347 -0.056054
v -0.039719 0.028346 -0.068591
vn -0.1162 -0.3144 -0.9422
vn 0.3837 0.6738 0.6315
vn 0.3730 0.4823 0.7926
vn -0.1677 -0.4849 -0.8584
vn -0.7529 -0.3150 -0.5779
vn -0.0000 -1.0000 0.0001
vn -0.4017 -0.8612 -0.3112
vn -0.5781 -0.3132 -0.7535
vn -0.1887 -0.8633 -0.4682
vn -0.3080 -0.8610 -0.4047
vn -0.0647 -0.8613 -0.5039
vn -0.1483 -0.3202 -0.9356
vn -0.1230 -0.3060 -0.9440
vn 1.0000 -0.0000 -0.0000
vn 1.0000 -0.0006 -0.0008
vn 1.0000 -0.0002 -0.0044
vn -0.7547 -0.3120 -0.5772
vn -0.3646 -0.3100 -0.8781
vn -0.3481 -0.3131 -0.8836
vn -0.3674 -0.3166 -0.8745
vn -0.0000 1.0000 -0.0000
vn 0.0001 1.0000 -0.0000
vn -0.0000 -1.0000 -0.0000
vn -0.4015 -0.8613 -0.3114
vn -0.4110 -0.8564 -0.3125
vn -0.4748 -0.8615 -0.1800
vn -0.5777 -0.3118 -0.7543
vn -0.0000 -0.0004 -1.0000
vn -0.0000 -0.0000 -1.0000
vn 0.0010 -0.0001 -1.0000
vn -0.0004 -0.0008 -1.0000
vn -0.0002 1.0000 -0.0005
vn -0.0001 1.0000 -0.0002
vn -0.0006 1.0000 -0.0004
vn -0.0000 1.0000 -0.0007
vn -0.0002 1.0000 -0.0004
vn -0.8725 -0.3142 -0.3741
vn -0.8763 -0.3114 -0.3675
vn -0.2008 -0.8589 -0.4712
vn -0.3099 -0.8603 -0.4048
vn -0.0640 -0.8611 -0.5044
vn -0.0944 -0.8582 -0.5045
vn -0.0001 1.0000 -0.0004
vn -0.0640 -0.8614 -0.5039
vn -0.0648 -0.8610 -0.5044
vn -0.5783 -0.3118 -0.7538
vn -0.0002 1.0000 -0.0002
vn -0.5774 -0.3133 -0.7540
vn -0.3087 -0.8604 -0.4056
vn -0.3091 -0.8611 -0.4038
vn -0.4016 -0.8612 -0.3114
vn -0.7539 -0.3151 -0.5765
vn -0.7536 -0.3120 -0.5785
vn -0.0023 1.0000 -0.0017
vn -0.8732 -0.3118 -0.3744
vn -0.8752 -0.3152 -0.3670
vn 0.0013 0.0005 -1.0000
vn -0.0000 -0.0006 -1.0000
vn -0.0002 -0.0007 -1.0000
vn -0.0000 1.0000 -0.0001
vn 0.0004 1.0000 0.0003
vn -0.4015 -0.8614 -0.3111
s 0
f 8//1 9//1 1//1
f 2//2 4//2 3//2
f 3//3 4//3 6//3
f 11//4 12//4 9//4
f 23//5 15//5 14//5
f 3//6 6//6 16//6
f 19//7 17//7 10//7
f 24//8 21//8 23//8
f 20//9 16//9 11//9
f 17//10 19//10 21//10
f 9//11 8//11 5//11
f 12//12 13//12 9//12
f 13//13 1//13 9//13
f 2//14 3//14 5//14
f 5//15 8//15 2//15
f 8//16 1//16 2//16
f 23//17 19//17 15//17
f 24//18 13//18 11//18
f 13//19 12//19 11//19
f 11//20 21//20 24//20
f 10//21 6//21 17//21
f 17//22 6//22 16//22
f 16//23 20//23 3//23
f 20//23 5//23 3//23
f 10//24 22//24 19//24
f 19//25 22//25 15//25
f 22//26 18//26 15//26
f 21//27 19//27 23//27
f 10//28 4//28 6//28
f 4//29 18//29 7//29
f 18//30 4//30 22//30
f 22//31 4//31 10//31
f 13//32 24//32 2//32
f 24//33 23//33 4//33
f 23//34 14//34 4//34
f 14//35 7//35 4//35
f 4//33 2//33 24//33
f 1//36 13//36 2//36
f 18//37 7//37 14//37
f 14//38 15//38 18//38
f 21//39 11//39 16//39
f 16//40 17//40 21//40
f 5//41 20//41 9//41
f 20//42 11//42 9//42
f 13//32 24//32 1//32
f 24//43 2//43 1//43
f 5//44 20//44 8//44
f 20//45 9//45 8//45
f 19//46 23//46 24//46
f 23//47 7//47 24//47
f 7//33 2//33 24//33
f 21//48 19//48 24//48
f 7//21 4//21 2//21
f 21//49 16//49 19//49
f 16//50 17//50 19//50
f 17//51 22//51 19//51
f 15//52 14//52 19//52
f 14//53 23//53 19//53
f 14//54 7//54 23//54
f 14//55 15//55 7//55
f 15//56 18//56 7//56
f 18//57 7//57 22//57
f 22//58 7//58 4//58
f 22//59 4//59 6//59
f 6//60 16//60 10//60
f 10//61 16//61 17//61
f 10//62 22//62 17//62
f 10//29 22//29 6//29
