# Blender 4.0.0
# www.blender.org
o decimated_mesh
v -0.070766 0.028349 -0.034622
v -0.065810 0.028349 -0.034622
v -0.040386 0.008677 -0.034622
v -0.074625 0.028349 0.000009
v -0.076537 0.028346 -0.020592
v -0.053633 0.008677 0.000009
v -0.048192 0.008677 -0.034622
v -0.079213 0.028335 -0.000014
v -0.073213 0.018126 -0.019779
v -0.059712 0.008677 0.000009
v -0.067059 0.018152 -0.034612
v -0.075798 0.018085 0.000000
v -0.057811 0.008677 -0.014988
v -0.051880 0.008677 -0.029686
v -0.061450 0.014961 -0.034622
vn -0.0000 1.0000 -0.0000
vn -0.0000 1.0000 0.0002
vn 0.6047 0.7815 0.1539
vn 0.6615 0.7059 0.2531
vn -0.0000 -0.0000 1.0000
vn -0.4702 -0.8621 -0.1888
vn -0.8753 -0.3186 -0.3637
vn -0.5037 -0.8612 -0.0676
vn -0.4079 -0.8606 -0.3048
vn -0.0000 -0.0000 -1.0000
vn -0.0023 -0.0007 -1.0000
vn -0.0000 -0.0010 -1.0000
vn -0.0000 -1.0000 -0.0000
vn -0.0029 1.0000 0.0001
vn -0.0004 1.0000 -0.0001
vn -0.0051 -0.0003 1.0000
vn -0.0010 -0.0008 1.0000
vn -0.9409 -0.3157 -0.1225
vn -0.9414 -0.3138 -0.1237
vn -0.4845 -0.8510 -0.2025
vn -0.4689 -0.8627 -0.1892
vn -0.8780 -0.3142 -0.3612
vn -0.5072 -0.8594 -0.0643
vn -0.0007 1.0000 -0.0001
vn -0.0031 -0.0021 -1.0000
vn -0.5063 -0.8597 -0.0679
vn -0.9408 -0.3157 -0.1236
vn -0.9415 -0.3139 -0.1226
vn -0.5038 -0.8614 -0.0639
s 0
f 6//1 13//1 10//1
f 2//2 1//2 5//2
f 2//3 4//3 3//3
f 3//4 4//4 6//4
f 10//5 6//5 4//5
f 9//6 15//6 13//6
f 11//7 9//7 1//7
f 12//8 9//8 10//8
f 14//9 15//9 7//9
f 2//10 3//10 7//10
f 7//10 15//10 2//10
f 15//11 11//11 2//11
f 11//12 1//12 2//12
f 13//1 3//1 14//1
f 14//13 7//13 3//13
f 3//1 13//1 6//1
f 5//14 8//14 4//14
f 4//15 2//15 5//15
f 8//16 12//16 4//16
f 12//17 10//17 4//17
f 8//18 5//18 9//18
f 9//19 12//19 8//19
f 9//20 11//20 15//20
f 15//21 14//21 13//21
f 5//22 1//22 9//22
f 13//23 10//23 9//23
f 5//24 4//24 1//24
f 4//1 2//1 1//1
f 2//10 15//10 1//10
f 15//25 11//25 1//25
f 13//26 12//26 9//26
f 12//27 5//27 9//27
f 12//28 8//28 5//28
f 10//29 12//29 13//29
f 14//1 6//1 3//1
f 14//1 10//1 6//1
f 14//1 13//1 10//1
