# Blender 4.0.0
# www.blender.org
o decimated_mesh
v -0.050792 0.024742 -0.000000
v -0.049562 0.023740 -0.006839
v -0.050306 0.022871 -0.000000
v -0.047855 0.023723 -0.015396
v -0.049588 0.021851 -0.001106
v -0.049562 0.023740 0.006839
v -0.047043 0.025045 -0.019025
v -0.046488 0.022685 -0.018975
v -0.049684 0.021967 0.001041
v -0.048780 0.021457 -0.000101
v -0.047855 0.023723 0.015396
v -0.042405 0.190348 -0.000854
v -0.046217 0.023604 -0.020617
v -0.046061 0.021890 -0.018856
v -0.045904 0.021551 0.017113
v -0.047059 0.025006 0.019003
v -0.046489 0.022694 0.018982
v -0.042405 0.190348 0.000854
v -0.041205 0.192986 0.000036
v -0.041084 0.191349 -0.006976
v -0.046076 0.021935 0.018936
v -0.044407 0.021163 -0.018182
v -0.046217 0.023604 0.020617
v -0.041083 0.191341 0.006992
v -0.039182 0.191283 -0.016219
v -0.035943 0.023621 -0.035943
v -0.044425 0.021166 0.018200
v -0.039191 0.191273 0.016174
v -0.038005 0.193113 -0.015362
v -0.034266 0.021906 -0.035875
v -0.036106 0.021891 -0.033950
v -0.035943 0.023621 0.035943
v -0.037981 0.193131 0.015352
v -0.038439 0.193835 -0.003767
v -0.036622 0.193678 -0.015261
v -0.030742 0.172184 -0.030742
v -0.020617 0.023604 -0.046217
v -0.034212 0.021298 -0.034212
v -0.035878 0.021906 0.034260
v -0.033966 0.021905 0.036106
v -0.036616 0.193678 0.015279
v -0.038468 0.193833 0.003705
v -0.030762 0.191211 -0.029054
v -0.029054 0.191211 -0.030762
v -0.019017 0.025050 -0.047047
v -0.018960 0.022686 -0.046493
v -0.018939 0.021940 -0.046078
v -0.034216 0.021298 0.034203
v -0.020617 0.023604 0.046217
v -0.030742 0.172184 0.030742
v -0.030762 0.191211 0.029054
v -0.028191 0.193630 -0.028191
v -0.029076 0.193037 -0.029081
v -0.015396 0.023723 -0.047855
v -0.017108 0.021547 -0.045901
v -0.019076 0.025047 0.047027
v -0.018856 0.021889 0.046059
v -0.018960 0.022686 0.046493
v -0.029054 0.191211 0.030762
v -0.029050 0.193042 0.029093
v -0.028191 0.193630 0.028191
v -0.016219 0.191283 -0.039182
v -0.006839 0.023740 -0.049562
v -0.000961 0.021942 -0.049677
v -0.018218 0.021166 -0.044415
v -0.015396 0.023723 0.047855
v -0.015271 0.193678 -0.036618
v -0.000854 0.024602 -0.050694
v 0.000002 0.022857 -0.050300
v -0.018185 0.021163 0.044404
v -0.006839 0.023740 0.049562
v -0.001092 0.021860 0.049592
v -0.015275 0.193677 0.036619
v -0.015368 0.193115 -0.038001
v -0.006992 0.191341 -0.041083
v 0.000854 0.024602 -0.050704
v 0.001197 0.021853 -0.049564
v -0.000092 0.021454 -0.048759
v 0.000004 0.022871 0.050305
v -0.000000 0.024742 0.050792
v -0.016154 0.191243 0.039228
v -0.015347 0.193121 0.038003
v -0.003678 0.193835 -0.038456
v -0.000854 0.190348 -0.042405
v 0.006839 0.023740 -0.049562
v 0.000092 0.021454 0.048759
v 0.000955 0.021952 0.049690
v -0.006992 0.191341 0.041083
v -0.003749 0.193828 0.038479
v 0.003035 0.193839 -0.038578
v 0.000011 0.193002 -0.041192
v 0.000854 0.190348 -0.042405
v 0.015396 0.023723 -0.047855
v 0.018840 0.021890 -0.046067
v 0.006839 0.023740 0.049562
v -0.000854 0.190348 0.042405
v -0.000067 0.192985 0.041203
v 0.003667 0.193837 0.038446
v 0.006976 0.191349 -0.041084
v 0.019076 0.025047 -0.047027
v 0.018975 0.022685 -0.046489
v 0.018173 0.021163 -0.044411
v 0.015396 0.023723 0.047855
v 0.000854 0.190348 0.042405
v 0.016154 0.191243 -0.039228
v 0.020617 0.023604 -0.046217
v 0.018206 0.021166 0.044423
v 0.018791 0.021840 0.046055
v 0.018996 0.022692 0.046484
v 0.019082 0.025014 0.047036
v 0.006750 0.191336 0.041135
v 0.015268 0.193678 -0.036619
v 0.015348 0.193124 -0.037999
v 0.020617 0.023604 0.046217
v 0.016180 0.191235 0.039223
v 0.015265 0.193679 0.036618
v 0.035943 0.023621 -0.035943
v 0.033952 0.021891 -0.036103
v 0.034212 0.021298 -0.034212
v 0.015349 0.193112 0.038020
v 0.028191 0.193630 -0.028191
v 0.029054 0.191211 -0.030762
v 0.035875 0.021906 -0.034266
v 0.034212 0.021298 0.034212
v 0.034268 0.021905 0.035872
v 0.035943 0.023621 0.035943
v 0.028191 0.193630 0.028191
v 0.036430 0.193671 -0.015725
v 0.029081 0.193037 -0.029076
v 0.030762 0.191211 -0.029054
v 0.030742 0.172184 -0.030742
v 0.046217 0.023604 -0.020617
v 0.044413 0.021166 -0.018221
v 0.036126 0.021896 0.033928
v 0.029054 0.191211 0.030762
v 0.029076 0.193037 0.029081
v 0.036619 0.193676 0.015279
v 0.038445 0.193835 -0.003734
v 0.037975 0.193127 -0.015364
v 0.047043 0.025045 -0.019026
v 0.046493 0.022686 -0.018960
v 0.046078 0.021939 -0.018937
v 0.045899 0.021550 -0.017129
v 0.044406 0.021162 0.018177
v 0.046217 0.023604 0.020617
v 0.030742 0.172184 0.030742
v 0.030762 0.191211 0.029054
v 0.038473 0.193829 0.003755
v 0.037830 0.193149 0.015654
v 0.039179 0.191273 -0.016228
v 0.047855 0.023723 -0.015396
v 0.047029 0.025049 0.019073
v 0.046057 0.021889 0.018859
v 0.046493 0.022686 0.018960
v 0.039404 0.191394 0.015360
v 0.041202 0.192985 0.000016
v 0.049562 0.023740 -0.006839
v 0.049676 0.021941 -0.000960
v 0.048758 0.021454 -0.000168
v 0.047855 0.023723 0.015396
v 0.038093 0.191219 0.018007
v 0.041135 0.191336 -0.006750
v 0.042405 0.190348 -0.000854
v 0.050792 0.024742 -0.000000
v 0.050302 0.022861 -0.000002
v 0.049562 0.023740 0.006839
v 0.049569 0.021852 0.001185
v 0.041083 0.191341 0.006992
v 0.042405 0.190348 0.000854
vn -0.9589 -0.2489 0.1359
vn -0.1530 -0.4538 0.8779
vn 0.9588 -0.2496 0.1358
vn -0.4295 0.6220 -0.6547
vn 0.8764 -0.4565 0.1534
vn -0.5787 -0.8074 0.1153
vn 0.0784 -0.9077 0.4123
vn 0.9098 0.4151 -0.0000
vn 0.8884 0.4433 0.1196
vn -0.9801 0.0486 -0.1923
vn -0.0669 -0.9978 -0.0000
vn 0.1191 0.4438 -0.8882
vn 0.4852 -0.4918 -0.7230
vn -0.0000 1.0000 -0.0000
vn -0.8350 0.0477 -0.5481
vn 0.8936 0.0509 0.4459
vn -0.7188 -0.5006 0.4824
vn -0.5812 -0.5906 -0.5598
vn 0.5501 0.0493 0.8336
vn -0.5497 0.0494 -0.8339
vn 0.7025 -0.5404 0.4632
vn 0.1569 0.6101 -0.7767
vn -0.8205 -0.5715 -0.0063
vn 0.7483 0.6451 0.1546
vn 0.0711 0.9270 -0.3683
vn -0.3234 -0.8921 -0.3157
vn 0.5481 0.0477 -0.8350
vn -0.5481 0.0477 0.8350
vn -0.5605 -0.5907 0.5804
vn 0.7189 -0.5004 -0.4825
vn -0.0000 0.0499 -0.9988
vn 0.3787 0.9226 0.0732
vn 0.6565 0.6175 0.4332
vn 0.7058 0.0619 -0.7058
vn -0.7820 -0.4798 -0.3979
vn 0.3984 -0.4810 -0.7809
vn -0.5949 0.5405 -0.5949
vn -0.3676 0.9273 0.0713
vn 0.2112 -0.9235 -0.3202
vn 0.4824 -0.5007 0.7187
vn 0.2839 -0.2315 0.9305
vn 0.7058 0.0619 0.7058
vn -0.5939 0.5428 0.5939
vn -0.2072 0.9282 -0.3091
vn -0.0128 -0.8878 -0.4600
vn -0.4321 0.6156 0.6591
vn 0.1954 0.0627 0.9787
vn 0.1689 -0.5042 -0.8469
vn -0.0057 -0.2226 -0.9749
vn 0.0178 -0.8886 0.4582
vn 0.1359 -0.2489 0.9589
vn -0.1926 0.0486 0.9801
vn 0.9589 -0.2492 -0.1359
vn -0.0743 -0.9079 -0.4125
vn -0.6545 0.6223 -0.4294
vn 0.0188 -0.5764 -0.8169
vn -0.0001 -0.9978 -0.0665
vn -0.1524 -0.4419 -0.8840
vn 0.4158 -0.9064 -0.0752
vn 0.1964 0.0490 -0.9793
vn -0.1192 0.4446 -0.8877
vn -0.9790 0.0575 0.1955
vn 0.0001 -0.9978 0.0665
vn 0.8183 -0.5745 0.0172
vn 0.8339 0.0494 -0.5497
vn -0.7757 0.6115 -0.1562
vn 0.3571 -0.9198 -0.1627
vn -0.9987 0.0506 -0.0000
vn -0.0716 0.9269 0.3684
vn -0.4825 -0.5004 -0.7189
vn 0.3195 -0.9238 0.2110
vn 0.4321 0.6156 -0.6590
vn -0.7026 -0.5399 -0.4635
vn 0.5598 -0.5906 -0.5812
vn 0.1394 -0.2871 -0.9477
vn -0.4633 -0.5403 0.7024
vn 0.0162 0.9997 0.0161
vn 0.5949 0.5405 -0.5949
vn 0.3157 -0.8921 -0.3232
vn 0.3255 -0.8915 0.3152
vn 0.5817 -0.5911 0.5587
vn -0.8345 0.0495 0.5489
vn 0.8322 0.0481 0.5523
vn -0.1388 -0.2821 -0.9493
vn -0.7058 0.0619 0.7058
vn 0.9786 0.0643 -0.1954
vn -0.1201 0.4412 0.8893
vn 0.5949 0.5405 0.5949
vn -0.7058 0.0619 -0.7058
vn 0.6537 0.6240 -0.4281
vn -0.3199 -0.9237 -0.2111
vn 0.0665 -0.9978 -0.0001
vn -0.9303 -0.2319 0.2842
vn 0.4026 -0.4880 0.7744
vn 0.4328 0.6145 0.6595
vn -0.1625 -0.9197 -0.3575
vn 0.8674 0.0494 -0.4951
vn -0.9590 -0.2488 -0.1359
vn -0.8438 -0.5098 -0.1674
vn -0.8880 0.4441 -0.1190
vn -0.1954 0.0625 -0.9787
vn -0.0141 -0.5662 0.8241
vn -0.1358 -0.2494 0.9588
vn -0.0000 0.0506 0.9987
vn 0.8837 -0.4425 -0.1525
vn 0.9801 0.0486 0.1926
vn -0.8891 0.4417 0.1200
vn -0.1673 -0.5105 0.8435
vn -0.1836 -0.4888 0.8528
vn -0.1693 -0.5041 0.8469
vn -0.4388 0.6057 -0.6637
vn -0.0000 0.4157 -0.9095
vn 0.8432 -0.5110 0.1672
vn 0.8523 -0.4899 0.1831
vn 0.8468 -0.5042 0.1693
vn 0.5803 -0.8061 -0.1161
vn 0.9302 -0.2249 -0.2899
vn 0.9331 -0.2253 -0.2804
vn 0.8013 -0.4566 -0.3866
vn -0.0162 0.9997 -0.0162
vn -0.0108 0.9999 -0.0108
vn -0.0161 0.9997 -0.0162
vn -0.9778 0.0573 -0.2016
vn -0.9781 0.0497 -0.2021
vn -0.9786 0.0643 -0.1954
vn -0.9762 0.1035 -0.1907
vn -0.0697 -0.9322 0.3550
vn -0.0760 -0.9240 0.3747
vn -0.9331 -0.2253 -0.2804
vn -0.9303 -0.2248 -0.2899
vn 0.7833 -0.4791 0.3961
vn 0.5051 0.0493 0.8616
vn 0.4630 -0.5411 -0.7021
vn 0.0001 1.0000 -0.0002
vn 0.0230 -0.9995 -0.0230
vn 0.0002 1.0000 0.0001
vn 0.0229 -0.9995 0.0230
vn -0.0001 1.0000 0.0002
vn -0.0230 -0.9995 0.0229
vn -0.0002 1.0000 -0.0001
vn -0.0229 -0.9995 -0.0230
vn -0.8297 0.0485 -0.5561
vn -0.8339 0.0494 -0.5497
vn 0.0711 -0.9306 0.3589
vn 0.8641 0.0497 0.5008
vn -0.7057 -0.5314 0.4686
vn 0.5561 0.0485 0.8297
vn 0.5487 0.0478 0.8347
vn -0.5561 0.0485 -0.8297
vn -0.5481 0.0477 -0.8350
vn 0.2115 0.9236 -0.3196
vn 0.2130 0.9223 -0.3224
vn 0.7235 -0.4907 0.4856
vn -0.5007 -0.0494 0.8642
vn 0.1668 0.5884 -0.7912
vn 0.0714 0.9230 -0.3781
vn -0.3508 0.9068 0.2338
vn -0.3632 0.9002 0.2403
vn 0.5561 0.0485 -0.8297
vn 0.5497 0.0494 -0.8339
vn -0.5561 0.0485 0.8297
vn -0.5497 0.0494 0.8339
vn 0.7057 -0.5314 -0.4686
vn -0.3622 0.9008 -0.2396
vn -0.3530 0.9057 -0.2348
vn -0.0058 0.0500 -0.9987
vn 0.3852 0.9199 0.0734
vn 0.9332 -0.2249 0.2802
vn 0.9303 -0.2247 0.2900
vn 0.3814 0.9217 -0.0715
vn 0.3463 0.9354 -0.0709
vn 0.2951 0.9555 -0.0004
vn 0.6629 0.6056 0.4403
vn 0.7164 0.5766 0.3929
vn -0.3149 -0.8914 0.3259
vn -0.6619 0.6096 0.4361
vn -0.6570 0.6186 0.4310
vn 0.0711 0.9218 0.3812
vn 0.0710 0.9262 0.3703
vn 0.0001 0.9554 0.2954
vn -0.3809 0.9218 0.0715
vn 0.2105 -0.9242 -0.3188
vn 0.4629 -0.5437 0.7001
vn 0.2875 -0.2314 0.9294
vn -0.2885 -0.9560 0.0534
vn -0.4948 0.0494 -0.8676
vn -0.1668 0.5881 -0.7914
vn -0.1567 0.6100 -0.7767
vn -0.2173 0.9190 -0.3289
vn -0.4373 0.6064 0.6641
vn -0.0716 0.9231 -0.3777
vn -0.0715 0.9255 -0.3720
vn -0.0060 0.9543 -0.2987
vn 0.2003 0.0495 0.9785
vn 0.1989 0.0695 0.9775
vn 0.1922 0.0486 0.9801
vn 0.1907 0.1033 0.9762
vn 0.1537 -0.4587 -0.8752
vn 0.1675 -0.5087 -0.8445
vn 0.1859 -0.4843 -0.8549
vn -0.4166 -0.9060 0.0746
vn -0.4653 -0.8848 0.0266
vn 0.0156 0.9998 -0.0158
vn 0.0105 0.9999 -0.0103
vn 0.0165 0.9997 -0.0164
vn -0.2384 0.9019 0.3603
vn -0.2339 0.9064 0.3518
vn -0.8675 0.0494 -0.4950
vn 0.1674 0.5836 0.7946
vn 0.1554 0.6104 0.7767
vn -0.0532 -0.9569 -0.2854
vn -0.3574 -0.9202 0.1599
vn -0.3287 -0.9191 0.2173
vn -0.3305 -0.9183 0.2182
vn 0.1701 -0.4989 0.8498
vn 0.1893 -0.4786 0.8574
vn 0.1678 -0.5063 0.8459
vn 0.1519 -0.4363 0.8869
vn -0.2346 0.9058 -0.3527
vn -0.2394 0.9010 -0.3618
vn -0.0156 0.9998 0.0158
vn -0.0159 0.9997 0.0159
vn -0.0106 0.9999 0.0106
vn -0.1987 0.0726 0.9774
vn -0.2003 0.0494 0.9785
vn -0.1954 0.0684 0.9783
vn -0.1909 0.1053 0.9759
vn 0.2865 -0.9566 -0.0537
vn -0.8497 -0.4989 0.1704
vn -0.8575 -0.4785 0.1892
vn -0.8446 -0.5086 0.1675
vn -0.8873 -0.4354 0.1518
vn -0.7907 0.5890 0.1673
vn -0.7769 0.6096 0.1578
vn -0.3729 0.9251 -0.0716
vn -0.3814 0.9216 -0.0717
vn -0.2944 0.9557 -0.0008
vn -0.6635 0.6061 -0.4387
vn -0.1698 -0.5011 -0.8486
vn -0.1871 -0.4814 -0.8563
vn -0.1675 -0.5086 -0.8445
vn 0.1985 0.0756 -0.9772
vn 0.2003 0.0494 -0.9785
vn 0.1954 0.0684 -0.9783
vn 0.1959 0.0641 -0.9785
vn -0.9781 0.0497 0.2022
vn -0.9779 0.0533 0.2019
vn -0.9802 0.0487 0.1919
vn -0.9765 0.1012 0.1904
vn 0.4590 -0.8883 -0.0139
vn 0.3466 -0.9356 0.0674
vn 0.3751 -0.9238 0.0765
vn 0.1166 0.4454 0.8877
vn -0.2899 -0.2249 -0.9302
vn -0.2805 -0.2253 -0.9330
vn -0.3866 -0.4566 -0.8013
vn 0.8297 0.0485 -0.5561
vn 0.8350 0.0477 -0.5482
vn 0.8884 0.4439 -0.1170
vn -0.7917 0.5877 -0.1671
vn 0.3289 -0.9190 -0.2174
vn 0.3319 -0.9176 -0.2189
vn -0.3959 -0.4787 0.7836
vn 0.2802 -0.2249 -0.9332
vn 0.2900 -0.2246 -0.9303
vn -0.1163 -0.8053 -0.5813
vn -0.0718 0.9214 0.3820
vn -0.0004 1.0000 0.0003
vn -0.0012 1.0000 0.0014
vn 0.0010 1.0000 0.0007
vn -0.0005 1.0000 0.0007
vn -0.4686 -0.5313 -0.7057
vn 0.3201 -0.9235 0.2113
vn -0.8672 0.0495 0.4955
vn 0.7895 0.5906 -0.1669
vn 0.7747 0.6125 -0.1569
vn 0.2396 0.9008 -0.3622
vn 0.2337 0.9068 -0.3508
vn 0.4372 0.6066 -0.6640
vn -0.7232 -0.4914 -0.4853
vn -0.4855 -0.4907 0.7235
vn 0.3730 0.8941 -0.2478
vn 0.3602 0.9012 -0.2411
vn 0.0107 0.9999 0.0106
vn 0.0160 0.9997 0.0159
vn -0.8297 0.0485 0.5561
vn -0.8357 0.0477 0.5471
vn 0.8297 0.0485 0.5561
vn 0.8316 0.0489 0.5532
vn -0.9102 0.4141 -0.0000
vn 0.9781 0.0497 -0.2022
vn 0.9780 0.0508 -0.2022
vn 0.9801 0.0486 -0.1923
vn 0.9762 0.1035 -0.1907
vn -0.2802 -0.2249 0.9332
vn -0.2900 -0.2247 0.9303
vn -0.7990 -0.4588 0.3887
vn -0.0000 0.4148 0.9099
vn 0.2344 0.9061 0.3523
vn 0.2394 0.9010 0.3619
vn 0.3622 0.9008 0.2397
vn 0.3300 0.9173 0.2229
vn 0.6638 0.6058 -0.4386
vn -0.3188 -0.9241 -0.2105
vn -0.9294 -0.2317 0.2874
vn 0.9987 0.0506 -0.0000
vn 0.4376 0.6061 0.6641
vn -0.3632 -0.9289 -0.0727
vn -0.3749 -0.9239 -0.0765
vn 0.7870 0.5974 0.1542
vn 0.0689 -0.9335 -0.3518
vn 0.0762 -0.9240 -0.3747
vn -0.2174 -0.9190 -0.3289
vn -0.2190 -0.9175 -0.3320
vn -0.1577 0.6074 0.7786
vn -0.1666 0.5879 0.7916
vn -0.8539 -0.4866 -0.1849
vn -0.8475 -0.5031 -0.1695
vn -0.8783 -0.4530 -0.1531
vn -0.5007 0.0494 0.8642
vn -0.2021 0.0497 -0.9781
vn -0.2018 0.0540 -0.9779
vn -0.1954 0.0490 -0.9795
vn -0.1948 0.0679 -0.9785
vn 0.8486 -0.5011 -0.1698
vn 0.8564 -0.4812 -0.1872
vn 0.8446 -0.5085 -0.1675
vn 0.9764 0.0918 0.1954
vn 0.9788 0.0493 0.1990
vn 0.9784 0.0678 0.1954
vn 0.9760 0.1050 0.1909
vn -0.9818 0.0488 -0.1837
vn -0.9818 0.0488 0.1837
vn -0.9795 0.0491 0.1955
vn -0.9789 0.0493 0.1983
vn -0.9784 0.0495 -0.2007
vn -0.9795 0.0491 -0.1955
vn -0.8494 -0.5001 -0.1685
vn -0.8526 -0.4944 0.1691
vn -0.8459 -0.5057 0.1697
vn -0.8356 0.0495 0.5471
vn -0.8350 0.0494 -0.5481
vn -0.9328 -0.2171 -0.2877
vn -0.9286 -0.2364 -0.2859
vn -0.8448 -0.5078 -0.1689
vn -0.8291 0.0485 0.5569
vn -0.2391 0.9019 0.3597
vn -0.3623 0.9003 0.2413
vn -0.3510 0.9071 0.2324
vn -0.3532 0.9059 -0.2337
vn -0.3616 0.9008 -0.2403
vn -0.0000 1.0000 0.0001
vn 0.0002 1.0000 0.0003
vn -0.0196 0.9997 0.0165
vn -0.0141 0.9998 0.0142
vn -0.0006 1.0000 -0.0006
vn -0.0144 0.9998 -0.0145
vn -0.0200 0.9997 -0.0168
vn -0.8291 0.0485 -0.5569
vn -0.2401 0.9011 -0.3612
vn -0.0000 1.0000 -0.0001
vn -0.5569 0.0485 0.8291
vn -0.5481 0.0494 0.8350
vn -0.2329 0.9066 0.3519
vn -0.0162 0.9997 0.0192
vn -0.2021 0.0495 0.9781
vn -0.2003 0.0495 0.9785
vn -0.0167 0.9997 -0.0199
vn -0.2336 0.9061 -0.3529
vn -0.0012 1.0000 -0.0000
vn 0.0002 1.0000 -0.0000
vn -0.0006 1.0000 0.0007
vn 0.0143 0.9998 -0.0144
vn 0.0162 0.9997 -0.0190
vn -0.5481 0.0494 -0.8350
vn -0.5569 0.0485 -0.8291
vn -0.2021 0.0496 -0.9781
vn -0.2001 0.0497 -0.9785
vn 0.0001 1.0000 -0.0000
vn -0.0001 1.0000 -0.0003
vn -0.0002 1.0000 0.0001
vn 0.2113 0.9236 -0.3198
vn 0.2134 0.9222 -0.3225
vn -0.2859 -0.2365 0.9286
vn -0.2877 -0.2167 0.9329
vn -0.1688 -0.5085 0.8443
vn -0.1684 -0.5013 0.8487
vn -0.1955 0.0491 0.9795
vn -0.1837 0.0488 0.9818
vn 0.0168 0.9997 0.0199
vn 0.0144 0.9998 0.0142
vn 0.0197 0.9997 0.0164
vn 0.0209 0.9996 -0.0171
vn 0.2405 0.9009 -0.3614
vn 0.2323 0.9071 -0.3510
vn -0.2859 -0.2365 -0.9286
vn -0.2877 -0.2172 -0.9328
vn -0.0000 0.0500 -0.9987
vn -0.0058 0.0499 -0.9987
vn -0.1924 0.0490 -0.9801
vn -0.1955 0.0491 -0.9795
vn -0.1688 -0.4976 -0.8508
vn -0.1692 -0.5063 -0.8456
vn -0.2053 0.9283 -0.3099
vn 0.8488 -0.5013 0.1684
vn 0.8441 -0.5089 0.1688
vn -0.2200 0.9185 -0.3286
vn 0.1837 0.0488 0.9818
vn 0.1955 0.0491 0.9795
vn 0.2401 0.9011 0.3611
vn 0.2333 0.9063 0.3525
vn 0.3312 0.9177 0.2195
vn 0.3598 0.9010 0.2422
vn 0.5481 0.0494 -0.8350
vn 0.2021 0.0495 -0.9781
vn 0.2003 0.0495 -0.9785
vn 0.1955 0.0491 -0.9795
vn 0.1939 0.0491 -0.9798
vn 0.1683 -0.5023 -0.8482
vn 0.1686 -0.5074 -0.8451
vn 0.1695 -0.5042 0.8468
vn 0.8456 -0.5062 -0.1692
vn 0.8508 -0.4976 -0.1688
vn 0.9818 0.0488 0.1837
vn 0.9795 0.0491 0.1955
vn 0.9286 -0.2365 0.2859
vn 0.9788 0.0494 0.1989
vn 0.9782 0.0493 0.2020
vn 0.9329 -0.2167 0.2877
vn 0.8322 0.0489 0.5523
vn 0.8291 0.0485 0.5569
vn 0.5569 0.0485 0.8291
vn 0.1691 -0.4953 0.8521
vn 0.2000 0.0495 0.9785
vn 0.5487 0.0493 0.8346
vn 0.2860 -0.2357 0.9288
vn 0.2867 -0.2284 0.9304
vn 0.9818 0.0488 -0.1837
vn 0.9795 0.0491 -0.1955
vn 0.9784 0.0495 -0.2007
vn 0.8349 0.0494 -0.5482
vn 0.8291 0.0485 -0.5569
vn 0.5569 0.0485 -0.8291
vn 0.2859 -0.2364 -0.9286
vn 0.2877 -0.2166 -0.9329
vn 0.9328 -0.2171 -0.2877
vn 0.9286 -0.2365 -0.2859
s 0
f 3//1 6//1 1//1
f 79//2 71//2 72//2
f 166//3 165//3 164//3
f 53//4 74//4 62//4
f 165//5 166//5 167//5
f 15//6 21//6 9//6
f 86//7 108//7 87//7
f 163//8 156//8 169//8
f 168//9 169//9 156//9
f 1//10 12//10 7//10
f 10//11 22//11 27//11
f 99//12 92//12 91//12
f 118//13 106//13 117//13
f 65//14 27//14 107//14
f 25//15 43//15 36//15
f 152//16 155//16 161//16
f 23//17 39//17 32//17
f 26//18 30//18 31//18
f 115//19 114//19 146//19
f 62//20 37//20 36//20
f 145//21 134//21 153//21
f 113//22 99//22 91//22
f 3//23 5//23 9//23
f 149//24 155//24 156//24
f 90//25 112//25 113//25
f 31//26 30//26 38//26
f 105//27 122//27 131//27
f 81//28 59//28 50//28
f 32//29 39//29 40//29
f 132//30 123//30 117//30
f 92//31 68//31 84//31
f 148//32 137//32 149//32
f 149//33 136//33 161//33
f 131//34 122//34 130//34
f 14//35 8//35 13//35
f 94//36 101//36 106//36
f 43//37 53//37 44//37
f 33//38 41//38 42//38
f 94//39 118//39 102//39
f 114//40 125//40 126//40
f 109//41 114//41 110//41
f 146//42 147//42 135//42
f 59//43 60//43 51//43
f 108//44 125//44 107//44
f 78//45 64//45 77//45
f 82//46 60//46 81//46
f 95//47 103//47 110//47
f 94//48 77//48 85//48
f 69//49 68//49 76//49
f 86//50 87//50 72//50
f 79//51 95//51 80//51
f 80//52 96//52 56//52
f 165//53 157//53 164//53
f 55//54 64//54 78//54
f 29//55 53//55 25//55
f 64//56 69//56 77//56
f 65//57 78//57 102//57
f 63//58 69//58 64//58
f 158//59 159//59 143//59
f 76//60 92//60 100//60
f 84//61 75//61 91//61
f 6//62 11//62 16//62
f 86//63 70//63 107//63
f 158//64 165//64 167//64
f 150//65 132//65 131//65
f 20//66 19//66 29//66
f 142//67 143//67 133//67
f 1//68 18//68 12//68
f 89//69 73//69 82//69
f 98//14 138//14 83//14
f 37//70 30//70 26//70
f 153//71 134//71 144//71
f 113//72 129//72 105//72
f 13//73 31//73 14//73
f 117//74 123//74 118//74
f 85//75 69//75 76//75
f 49//76 40//76 57//76
f 116//77 137//77 98//77
f 129//78 130//78 122//78
f 118//79 123//79 119//79
f 134//80 125//80 124//80
f 126//81 125//81 134//81
f 28//82 23//82 50//82
f 161//83 147//83 146//83
f 69//84 63//84 68//84
f 59//85 51//85 50//85
f 157//86 151//86 140//86
f 88//87 96//87 97//87
f 147//88 136//88 135//88
f 43//89 44//89 36//89
f 129//90 139//90 150//90
f 14//91 31//91 22//91
f 159//92 144//92 133//92
f 17//93 23//93 16//93
f 109//94 108//94 114//94
f 136//95 120//95 115//95
f 47//96 55//96 65//96
f 150//97 140//97 132//97
f 2//98 3//98 1//98
f 2//99 4//99 14//99
f 20//100 12//100 19//100
f 63//101 54//101 45//101
f 79//102 72//102 87//102
f 71//103 79//103 80//103
f 80//104 104//104 96//104
f 157//105 165//105 158//105
f 164//106 169//106 152//106
f 18//107 24//107 19//107
f 71//108 66//108 57//108
f 66//109 58//109 57//109
f 57//110 72//110 71//110
f 62//111 44//111 53//111
f 92//112 84//112 91//112
f 166//113 160//113 153//113
f 160//114 154//114 153//114
f 153//115 167//115 166//115
f 142//116 158//116 143//116
f 140//117 151//117 141//117
f 141//118 132//118 140//118
f 142//119 132//119 141//119
f 34//120 83//120 35//120
f 67//121 52//121 35//121
f 83//122 67//122 35//122
f 20//123 25//123 12//123
f 25//124 7//124 12//124
f 4//125 2//125 7//125
f 2//126 1//126 7//126
f 86//127 72//127 70//127
f 72//128 57//128 70//128
f 13//129 8//129 7//129
f 8//130 4//130 7//130
f 154//131 145//131 153//131
f 114//132 115//132 110//132
f 118//133 94//133 106//133
f 65//134 133//134 102//134
f 119//135 133//135 102//135
f 133//136 107//136 144//136
f 124//137 107//137 144//137
f 107//138 27//138 70//138
f 48//139 27//139 70//139
f 27//140 65//140 22//140
f 38//141 65//141 22//141
f 65//14 107//14 133//14
f 36//142 26//142 13//142
f 13//143 25//143 36//143
f 108//144 86//144 107//144
f 161//145 145//145 152//145
f 23//146 21//146 39//146
f 114//147 126//147 146//147
f 146//148 135//148 115//148
f 37//149 26//149 36//149
f 36//150 44//150 62//150
f 57//151 70//151 40//151
f 40//152 70//152 48//152
f 145//153 126//153 134//153
f 105//154 100//154 106//154
f 105//155 99//155 113//155
f 113//156 91//156 90//156
f 33//157 60//157 41//157
f 60//158 61//158 41//158
f 131//159 117//159 106//159
f 106//160 105//160 131//160
f 50//161 32//161 49//161
f 49//162 81//162 50//162
f 132//163 142//163 123//163
f 52//164 53//164 35//164
f 53//165 29//165 35//165
f 92//166 76//166 68//166
f 149//167 156//167 148//167
f 145//168 154//168 152//168
f 154//169 160//169 152//169
f 156//170 139//170 138//170
f 139//171 128//171 138//171
f 138//172 148//172 156//172
f 136//173 147//173 161//173
f 161//174 155//174 149//174
f 40//175 39//175 48//175
f 28//176 51//176 60//176
f 60//177 33//177 28//177
f 97//178 120//178 98//178
f 120//179 116//179 98//179
f 98//180 89//180 97//180
f 19//181 33//181 42//181
f 119//182 102//182 118//182
f 114//183 108//183 125//183
f 110//184 103//184 109//184
f 15//185 10//185 27//185
f 37//186 62//186 45//186
f 62//187 74//187 75//187
f 74//188 91//188 75//188
f 107//189 125//189 124//189
f 60//190 59//190 81//190
f 91//191 74//191 83//191
f 74//192 67//192 83//192
f 83//193 90//193 91//193
f 110//194 115//194 104//194
f 115//195 111//195 104//195
f 104//196 80//196 110//196
f 80//197 95//197 110//197
f 69//198 85//198 77//198
f 85//199 93//199 94//199
f 93//200 101//200 94//200
f 10//201 15//201 9//201
f 9//202 5//202 10//202
f 90//203 138//203 112//203
f 128//204 121//204 112//204
f 138//205 128//205 112//205
f 61//206 60//206 73//206
f 60//207 82//207 73//207
f 25//208 13//208 7//208
f 115//209 120//209 111//209
f 120//210 97//210 111//210
f 78//211 65//211 55//211
f 15//212 27//212 21//212
f 27//213 48//213 39//213
f 21//214 27//214 39//214
f 87//215 108//215 95//215
f 108//216 109//216 103//216
f 95//217 108//217 103//217
f 95//218 79//218 87//218
f 74//219 53//219 67//219
f 53//220 52//220 67//220
f 89//221 42//221 73//221
f 73//222 42//222 41//222
f 41//223 61//223 73//223
f 88//224 81//224 96//224
f 81//225 56//225 96//225
f 66//226 71//226 56//226
f 71//227 80//227 56//227
f 159//228 133//228 143//228
f 9//229 21//229 6//229
f 21//230 17//230 11//230
f 6//231 21//231 11//231
f 6//232 3//232 9//232
f 28//233 33//233 24//233
f 33//234 19//234 24//234
f 35//235 29//235 34//235
f 29//236 19//236 34//236
f 42//237 34//237 19//237
f 43//238 25//238 53//238
f 64//239 47//239 63//239
f 47//240 46//240 54//240
f 63//241 47//241 54//241
f 99//242 105//242 92//242
f 105//243 100//243 92//243
f 93//244 85//244 100//244
f 85//245 76//245 100//245
f 16//246 28//246 18//246
f 28//247 24//247 18//247
f 18//248 1//248 16//248
f 1//249 6//249 16//249
f 158//250 167//250 159//250
f 144//251 159//251 167//251
f 167//252 153//252 144//252
f 111//253 97//253 104//253
f 45//254 54//254 46//254
f 46//255 37//255 45//255
f 47//256 37//256 46//256
f 132//257 117//257 131//257
f 131//258 130//258 150//258
f 162//259 156//259 163//259
f 29//260 25//260 20//260
f 133//261 119//261 123//261
f 123//262 142//262 133//262
f 58//263 49//263 57//263
f 106//264 101//264 100//264
f 101//265 93//265 100//265
f 47//266 64//266 55//266
f 82//267 97//267 89//267
f 83//14 34//14 98//14
f 34//268 42//268 98//268
f 42//269 89//269 98//269
f 98//270 148//270 138//270
f 138//271 90//271 83//271
f 37//272 47//272 30//272
f 134//273 124//273 144//273
f 23//274 28//274 16//274
f 150//275 139//275 162//275
f 139//276 156//276 162//276
f 121//277 129//277 112//277
f 129//278 113//278 112//278
f 122//279 105//279 129//279
f 13//280 26//280 31//280
f 49//281 32//281 40//281
f 139//282 129//282 128//282
f 129//283 121//283 128//283
f 116//284 127//284 137//284
f 148//285 98//285 137//285
f 23//286 32//286 50//286
f 50//287 51//287 28//287
f 146//288 126//288 145//288
f 145//289 161//289 146//289
f 19//290 12//290 18//290
f 140//291 150//291 163//291
f 150//292 162//292 163//292
f 163//293 164//293 140//293
f 164//294 157//294 140//294
f 49//295 58//295 56//295
f 58//296 66//296 56//296
f 21//297 23//297 17//297
f 97//298 96//298 104//298
f 120//299 136//299 116//299
f 136//300 127//300 116//300
f 127//301 136//301 137//301
f 136//302 149//302 137//302
f 150//303 130//303 129//303
f 38//304 22//304 31//304
f 16//305 11//305 17//305
f 163//306 169//306 164//306
f 115//307 135//307 136//307
f 10//308 5//308 22//308
f 5//309 14//309 22//309
f 156//310 155//310 168//310
f 78//311 77//311 102//311
f 77//312 94//312 102//312
f 65//313 38//313 30//313
f 30//314 47//314 65//314
f 97//315 82//315 88//315
f 82//316 81//316 88//316
f 8//317 14//317 4//317
f 14//318 5//318 2//318
f 3//319 2//319 5//319
f 81//320 49//320 56//320
f 45//321 62//321 84//321
f 62//322 75//322 84//322
f 84//323 68//323 45//323
f 68//324 63//324 45//324
f 158//325 142//325 157//325
f 142//326 141//326 151//326
f 157//327 142//327 151//327
f 168//328 155//328 169//328
f 155//329 152//329 169//329
f 160//330 166//330 152//330
f 166//331 164//331 152//331
f 12//332 2//332 1//332
f 6//333 18//333 1//333
f 6//334 11//334 18//334
f 11//335 16//335 18//335
f 7//336 4//336 12//336
f 4//337 2//337 12//337
f 4//338 5//338 2//338
f 9//339 11//339 6//339
f 9//340 21//340 11//340
f 23//341 51//341 28//341
f 43//342 13//342 25//342
f 13//343 4//343 7//343
f 13//344 8//344 4//344
f 14//345 5//345 4//345
f 32//286 51//286 23//286
f 32//346 50//346 51//346
f 82//347 61//347 60//347
f 61//348 33//348 60//348
f 61//349 41//349 33//349
f 35//350 52//350 29//350
f 52//351 53//351 29//351
f 89//352 90//352 42//352
f 90//353 34//353 42//353
f 41//354 61//354 42//354
f 61//355 89//355 42//355
f 90//356 83//356 34//356
f 83//357 52//357 34//357
f 52//358 35//358 34//358
f 36//359 26//359 43//359
f 26//142 13//142 43//142
f 52//360 74//360 53//360
f 65//352 22//352 144//352
f 144//361 22//361 27//361
f 144//352 27//352 70//352
f 49//161 59//161 32//161
f 59//362 50//362 32//362
f 49//363 81//363 59//363
f 73//364 61//364 82//364
f 73//365 89//365 61//365
f 56//366 66//366 81//366
f 66//367 96//367 81//367
f 83//368 67//368 52//368
f 67//369 74//369 52//369
f 98//370 90//370 89//370
f 98//371 148//371 90//371
f 148//372 138//372 90//372
f 138//373 121//373 90//373
f 121//374 112//374 90//374
f 62//375 37//375 44//375
f 37//149 26//149 44//149
f 26//376 36//376 44//376
f 84//377 54//377 62//377
f 54//378 45//378 62//378
f 102//379 65//379 144//379
f 107//380 144//380 70//380
f 102//381 144//381 133//381
f 57//382 70//382 48//382
f 57//383 48//383 40//383
f 58//384 66//384 49//384
f 66//385 56//385 49//385
f 57//386 72//386 66//386
f 72//387 71//387 66//387
f 71//388 96//388 66//388
f 71//389 80//389 96//389
f 116//390 127//390 98//390
f 127//391 148//391 98//391
f 127//392 137//392 148//392
f 128//393 121//393 138//393
f 129//394 113//394 121//394
f 113//395 112//395 121//395
f 54//396 46//396 37//396
f 45//397 54//397 37//397
f 92//398 76//398 84//398
f 76//399 68//399 84//399
f 68//400 63//400 84//400
f 63//401 54//401 84//401
f 63//402 64//402 54//402
f 64//403 47//403 54//403
f 124//404 107//404 108//404
f 166//405 160//405 167//405
f 160//406 153//406 167//406
f 125//407 124//407 108//407
f 80//408 95//408 104//408
f 95//409 103//409 104//409
f 103//194 115//194 104//194
f 136//410 127//410 120//410
f 127//411 116//411 120//411
f 149//412 137//412 127//412
f 136//413 149//413 127//413
f 122//414 106//414 105//414
f 100//415 93//415 105//415
f 93//416 92//416 105//416
f 93//417 85//417 92//417
f 85//418 76//418 92//418
f 85//419 93//419 77//419
f 93//420 94//420 77//420
f 103//421 87//421 108//421
f 151//422 158//422 142//422
f 151//423 157//423 158//423
f 164//424 169//424 166//424
f 169//425 160//425 166//425
f 145//426 154//426 160//426
f 169//427 155//427 160//427
f 155//428 152//428 160//428
f 152//429 145//429 160//429
f 161//430 147//430 145//430
f 147//288 126//288 145//288
f 147//431 146//431 126//431
f 146//432 135//432 126//432
f 135//147 114//147 126//147
f 103//433 95//433 87//433
f 103//434 110//434 115//434
f 114//435 135//435 115//435
f 109//436 114//436 103//436
f 114//437 110//437 103//437
f 164//438 157//438 163//438
f 157//439 151//439 163//439
f 151//440 140//440 163//440
f 132//441 130//441 150//441
f 132//257 117//257 130//257
f 117//442 131//442 130//442
f 131//443 117//443 122//443
f 117//159 106//159 122//159
f 101//444 93//444 106//444
f 93//445 100//445 106//445
f 140//446 151//446 132//446
f 151//447 141//447 132//447
