mtllib material.mtl
usemtl material_0
v -0.02360504 0.17054710 -0.04951263
v -0.02269256 0.17054710 -0.04852142
v -0.03067444 0.17054710 -0.04391311
v 0.03027252 0.17054710 -0.04262726
v 0.05089355 0.16951100 -0.00462280
v 0.02945007 0.16951100 -0.04176392
v 0.00000000 0.00103737 -0.03369736
v -0.01411682 0.00103256 -0.03369674
v -0.01377747 0.00000000 -0.03255005
v 0.00000000 0.00000000 -0.03255096
v 0.01411682 0.00103256 -0.03369674
v 0.01377991 0.00000000 -0.03255798
v 0.00000000 0.00103737 0.03369705
v 0.01411682 0.00103256 0.03369644
v 0.01377747 0.00000000 0.03255005
v 0.00000000 0.00000000 0.03255081
v -0.01411682 0.00103256 0.03369644
v -0.01377991 0.00000000 0.03255768
v 0.02212341 0.00103256 0.02907394
v 0.02130005 -0.00000000 0.02820679
v 0.00000000 0.00000000 0.00462250
v 0.03507782 0.00000000 0.00434296
v 0.03507782 0.00000000 -0.00434296
v 0.00000000 0.00000000 -0.00462265
v 0.02130554 0.00000000 -0.02821274
v -0.02130005 0.00000000 -0.02820694
v -0.02212341 0.00103256 -0.02907410
v -0.03507782 0.00000000 -0.00434296
v -0.03624054 0.00103256 -0.00462265
v -0.03507782 0.00000000 0.00434296
v -0.02130554 0.00000000 0.02821258
v -0.02212341 0.00103256 0.02907394
v 0.02212341 0.00103256 -0.02907410
v 0.03624054 0.00103256 -0.00462265
v -0.03624054 0.00103256 0.00462250
v 0.03624054 0.00103256 0.00462250
v 0.03185425 0.16939720 -0.04592773
v 0.05468170 0.17054710 -0.00431366
v 0.03107635 0.17054710 -0.04519897
v 0.05570190 0.16939720 -0.00462265
v 0.05468170 0.17054710 0.00431366
v 0.05570190 0.16939720 0.00462250
v 0.03107635 0.17054710 0.04519897
v 0.03185425 0.16939720 0.04592773
v 0.03107635 0.17054710 -0.04519897
v 0.02384766 0.16939720 -0.05055054
v 0.03185425 0.16939720 -0.04592773
v 0.02360504 0.17054710 -0.04951263
v 0.00000000 0.16940070 -0.05055084
v 0.00000000 0.17054710 -0.04951355
v -0.02384766 0.16939720 -0.05055054
v 0.02269287 0.17054710 -0.04852142
v 0.03067413 0.17054710 -0.04391311
v 0.00000000 0.17054710 -0.04852157
v 0.05336700 0.17054710 -0.00460831
v 0.05468170 0.17054710 -0.00431366
v 0.05468170 0.17054710 0.00431366
v 0.05336731 0.17054710 0.00460815
v 0.03067474 0.17054710 0.04391327
v 0.03107635 0.17054710 0.04519897
v 0.02360504 0.17054710 0.04951263
v 0.03185425 0.16939720 0.04592773
v 0.02269287 0.17054710 0.04852142
v 0.02384766 0.16939720 0.05055054
v 0.00000000 0.17054710 0.04852173
v 0.00000000 0.17054710 0.04951355
v 0.00000000 0.16940070 0.05055084
v -0.02360504 0.17054710 0.04951263
v -0.02384766 0.16939720 0.05055054
v -0.02269287 0.17054710 0.04852142
v -0.03107635 0.17054710 0.04519897
v -0.03185425 0.16939720 0.04592773
v -0.03067444 0.17054710 0.04391327
v -0.05336700 0.17054710 0.00460831
v -0.05468170 0.17054710 0.00431366
v -0.05468170 0.17054710 -0.00431366
v -0.05336700 0.17054710 -0.00460831
v -0.03107635 0.17054710 -0.04519897
v 0.02178070 0.17054710 0.04752991
v 0.02269287 0.17054710 0.04852142
v 0.00000000 0.17054710 0.04752930
v 0.00000000 0.16950640 0.04638611
v -0.02269287 0.17054710 0.04852142
v -0.02144348 0.16951100 0.04638672
v -0.02178040 0.17054710 0.04752991
v -0.02945007 0.16951100 0.04176392
v -0.03067444 0.17054710 0.04391327
v -0.03027222 0.17054710 0.04262726
v -0.05336700 0.17054710 0.00460831
v -0.05205261 0.17054710 0.00490280
v -0.05336700 0.17054710 -0.00460831
v -0.05205230 0.17054710 -0.00490295
v -0.03067444 0.17054710 -0.04391311
v 0.03027252 0.17054710 0.04262726
v 0.03067474 0.17054710 0.04391327
v 0.05205261 0.17054710 0.00490280
v 0.02945038 0.16951100 0.04176392
v 0.05089386 0.16951100 0.00462250
v 0.05336731 0.17054710 0.00460815
v 0.05205261 0.17054710 -0.00490295
v 0.05336700 0.17054710 -0.00460831
v 0.03067413 0.17054710 -0.04391311
v 0.02178040 0.17054710 -0.04753021
v 0.02144348 0.16951100 -0.04638641
v 0.02269287 0.17054710 -0.04852142
v 0.00000000 0.17054710 -0.04752945
v -0.02177978 0.17054710 -0.04753021
v -0.02269256 0.17054710 -0.04852142
v -0.03185425 0.16939720 -0.04592773
v -0.03507782 0.00000000 0.00434296
v -0.03507782 0.00000000 -0.00434296
v -0.03624054 0.00103256 -0.00462265
v -0.03624054 0.00103256 0.00462250
v -0.05468170 0.17054710 -0.00431366
v -0.05468170 0.17054710 0.00431366
v -0.05570190 0.16939720 0.00462250
v -0.05570190 0.16939720 -0.00462265
v -0.03107635 0.17054710 -0.04519897
v -0.03185425 0.16939720 -0.04592773
v -0.02212341 0.00103256 -0.02907410
v -0.03185425 0.16939720 0.04592773
v -0.02212341 0.00103256 0.02907394
v -0.03107635 0.17054710 0.04519897
v 0.03507782 0.00000000 -0.00434296
v 0.03507782 0.00000000 0.00434296
v 0.03624054 0.00103256 0.00462250
v 0.03624054 0.00103256 -0.00462265
v 0.02212341 0.00103256 -0.02907410
v 0.02212341 0.00103256 0.02907394
v 0.02212341 0.00103256 -0.02907410
v 0.03185425 0.16939720 -0.04592773
v 0.02384766 0.16939720 -0.05055054
v 0.01411682 0.00103256 -0.03369674
v 0.00000000 0.00103737 -0.03369736
v 0.00000000 0.16940070 -0.05055084
v -0.02384766 0.16939720 -0.05055054
v -0.01411682 0.00103256 -0.03369674
v -0.03185425 0.16939720 -0.04592773
v -0.02212341 0.00103256 -0.02907410
v -0.02212341 0.00103256 0.02907394
v -0.03185425 0.16939720 0.04592773
v -0.02384766 0.16939720 0.05055054
v -0.01411682 0.00103256 0.03369644
v 0.00000000 0.00103737 0.03369705
v 0.00000000 0.16940070 0.05055084
v 0.02384766 0.16939720 0.05055054
v 0.01411682 0.00103256 0.03369644
v 0.03185425 0.16939720 0.04592773
v 0.02212341 0.00103256 0.02907394
v 0.00000000 0.00554062 0.03091888
v -0.01251282 0.00553604 0.03091842
v -0.01217590 0.00449997 0.02977463
v -0.01969727 0.00449997 0.02543243
v -0.02051971 0.00553604 0.02629593
v 0.00000000 0.00449997 0.00462250
v -0.03187378 0.00449997 0.00434235
v 0.00000000 0.00449997 0.02977524
v -0.03187378 0.00449997 -0.00434235
v 0.00000000 0.00449997 -0.00462265
v -0.01970306 0.00449997 -0.02543808
v -0.01217804 0.00449997 -0.02978271
v 0.00000000 0.00449997 -0.02977585
v 0.01217651 0.00449997 -0.02977508
v 0.01217834 0.00449997 0.02978226
v 0.01969757 0.00449997 -0.02543274
v 0.01251343 0.00553604 -0.03091888
v 0.02052002 0.00553604 -0.02629608
v 0.03187439 0.00449997 -0.00434235
v 0.03187408 0.00449997 0.00434235
v 0.01970337 0.00449997 0.02543808
v 0.02052002 0.00553604 0.02629593
v 0.01251312 0.00553604 0.03091842
v 0.00000000 0.00554062 -0.03091934
v -0.01251282 0.00553604 -0.03091888
v -0.02051971 0.00553604 -0.02629608
v 0.03303314 0.00553604 -0.00462265
v -0.03303283 0.00553604 -0.00462265
v -0.03303283 0.00553604 0.00462250
v 0.03303283 0.00553604 0.00462250
v 0.00000000 0.16950640 -0.04638611
v -0.02144287 0.16951100 -0.04638641
v -0.03027222 0.17054710 -0.04262726
v -0.02944977 0.16951100 -0.04176392
v -0.05089355 0.16951100 -0.00462265
v -0.05089355 0.16951100 -0.00462265
v -0.05089355 0.16951100 0.00462250
v -0.05205261 0.17054710 0.00490280
v -0.05205230 0.17054710 -0.00490295
v -0.05089355 0.16951100 0.00462250
v 0.02144379 0.16951100 0.04638672
v 0.05089386 0.16951100 0.00462250
v 0.05089355 0.16951100 -0.00462280
v 0.05205261 0.17054710 -0.00490295
v 0.05205261 0.17054710 0.00490280
v -0.03187378 0.00449997 -0.00434235
v -0.03187378 0.00449997 0.00434235
v -0.03303283 0.00553604 0.00462250
v -0.03303283 0.00553604 -0.00462265
v 0.03187408 0.00449997 0.00434235
v 0.03187439 0.00449997 -0.00434235
v 0.03303314 0.00553604 -0.00462265
v 0.03303283 0.00553604 0.00462250
v 0.02945007 0.16951100 -0.04176392
v 0.02052002 0.00553604 -0.02629608
v 0.01251343 0.00553604 -0.03091888
v 0.02144348 0.16951100 -0.04638641
v -0.02051971 0.00553604 -0.02629608
v -0.02944977 0.16951100 -0.04176392
v -0.02945007 0.16951100 0.04176392
v -0.02051971 0.00553604 0.02629593
v -0.02144287 0.16951100 -0.04638641
v -0.02051971 0.00553604 -0.02629608
v -0.02944977 0.16951100 -0.04176392
v -0.01251282 0.00553604 -0.03091888
v 0.00000000 0.00554062 -0.03091934
v 0.00000000 0.16950640 -0.04638611
v -0.02945007 0.16951100 0.04176392
v -0.02051971 0.00553604 0.02629593
v -0.01251282 0.00553604 0.03091842
v -0.02144348 0.16951100 0.04638672
v 0.02144379 0.16951100 0.04638672
v 0.02052002 0.00553604 0.02629593
v 0.02945038 0.16951100 0.04176392
v 0.01251312 0.00553604 0.03091842
v 0.00000000 0.00554062 0.03091888
v 0.00000000 0.16950640 0.04638611
v 0.02052002 0.00553604 0.02629593
v 0.02945038 0.16951100 0.04176392
v 0.02945007 0.16951100 -0.04176392
v 0.02052002 0.00553604 -0.02629608
vn -0.07756499 0.84106780 -0.53533980
vn 0.00000000 1.00000000 -0.00000757
vn 0.00000000 1.00000000 -0.00000483
vn -0.27770160 0.94017230 0.19737750
vn -0.91133560 0.10841210 0.39713250
vn -0.79959480 0.10841090 0.59067360
vn -0.00000058 -0.10405520 -0.99457150
vn -0.16386700 -0.11194680 -0.98010990
vn -0.00894226 -0.99899110 -0.04401016
vn -0.00000596 -0.99911790 -0.04199360
vn 0.16386680 -0.11192630 -0.98011230
vn 0.00893495 -0.99899110 -0.04401185
vn 0.00000055 -0.10405640 0.99457140
vn 0.16386450 -0.11194760 0.98011030
vn 0.00894191 -0.99899110 0.04401083
vn 0.00000572 -0.99911790 0.04199387
vn -0.16386430 -0.11192760 0.98011260
vn -0.00893472 -0.99899110 0.04401153
vn 0.80846140 -0.10875300 0.57841410
vn 0.05032060 -0.99801070 0.03798110
vn 0.00000000 -1.00000000 0.00000000
vn 0.06034470 -0.99785030 0.02555908
vn 0.06034190 -0.99785080 -0.02554905
vn 0.00000000 -1.00000000 0.00000000
vn 0.05032152 -0.99801090 -0.03797378
vn -0.05032092 -0.99801070 -0.03798129
vn -0.80846150 -0.10875280 -0.57841400
vn -0.06034330 -0.99785040 -0.02555772
vn -0.90515040 -0.10875330 -0.41094460
vn -0.06034327 -0.99785070 0.02555041
vn -0.05032161 -0.99801090 0.03797421
vn -0.80846320 -0.10873630 0.57841470
vn 0.80846320 -0.10873600 -0.57841490
vn 0.90515170 -0.10874220 -0.41094480
vn -0.90515210 -0.10874210 0.41094410
vn 0.90515070 -0.10875320 0.41094400
vn 0.80609930 -0.09738681 -0.58371200
vn 0.51304420 0.82347590 -0.24222510
vn 0.46627450 0.82348550 -0.32320240
vn 0.90855770 -0.09738781 -0.40624930
vn 0.51308260 0.82344540 0.24224740
vn 0.90855790 -0.09738851 0.40624860
vn 0.46634370 0.82342790 0.32324940
vn 0.80609920 -0.09738746 0.58371200
vn 0.46627450 0.82348550 -0.32320240
vn 0.17200640 -0.10064350 -0.97994120
vn 0.80609930 -0.09738681 -0.58371200
vn 0.07756430 0.84107230 -0.53533280
vn 0.00000000 -0.09123507 -0.99582940
vn 0.00000000 0.86779550 -0.49692160
vn -0.17200620 -0.10064350 -0.97994120
vn 0.00000000 1.00000000 0.00000048
vn 0.00000000 1.00000000 -0.00000047
vn 0.00000000 1.00000000 -0.00000291
vn 0.00000000 1.00000000 -0.00000022
vn 0.51304420 0.82347590 -0.24222510
vn 0.51308260 0.82344540 0.24224740
vn 0.00000000 1.00000000 0.00000025
vn 0.00000000 1.00000000 0.00000025
vn 0.46634370 0.82342790 0.32324940
vn 0.07756680 0.84106150 0.53534930
vn 0.80609920 -0.09738746 0.58371200
vn 0.00000000 1.00000000 0.00000000
vn 0.17200350 -0.10064500 0.97994150
vn 0.00000000 1.00000000 -0.00000132
vn 0.00000000 0.86778950 0.49693190
vn 0.00000000 -0.09123685 0.99582930
vn -0.07756623 0.84106340 0.53534640
vn -0.17200370 -0.10064500 0.97994150
vn 0.00000000 1.00000000 -0.00000097
vn -0.46631000 0.82345510 0.32322820
vn -0.80609920 -0.09738746 0.58371200
vn 0.00000000 1.00000000 0.00000331
vn 0.00000000 1.00000000 0.00000336
vn -0.51306250 0.82346030 0.24223970
vn -0.51304950 0.82347140 -0.24222920
vn 0.00000000 1.00000000 -0.00000513
vn -0.46629780 0.82346530 -0.32322000
vn -0.05524898 0.93874360 -0.34015860
vn 0.00000000 1.00000000 0.00000000
vn 0.00000000 0.90156950 -0.43263440
vn 0.00000000 0.10184760 -0.99480000
vn 0.00000000 1.00000000 -0.00000097
vn 0.18474520 0.11107510 -0.97648940
vn 0.05524827 0.93874560 -0.34015350
vn 0.79959430 0.10841220 -0.59067400
vn 0.00000000 1.00000000 0.00000331
vn 0.27767090 0.94018420 -0.19736400
vn 0.00000000 1.00000000 0.00000336
vn 0.30974890 0.94018720 -0.14178720
vn 0.00000000 1.00000000 -0.00000513
vn 0.30974670 0.94018790 0.14178820
vn 0.00000000 1.00000000 -0.00000483
vn -0.27766870 0.94018610 -0.19735810
vn 0.00000000 1.00000000 0.00000025
vn -0.30975170 0.94018650 -0.14178580
vn -0.79959600 0.10841200 -0.59067180
vn -0.91133740 0.10841180 -0.39712830
vn 0.00000000 1.00000000 0.00000025
vn -0.30978040 0.94017550 0.14179570
vn 0.00000000 1.00000000 -0.00000022
vn 0.00000000 1.00000000 -0.00000047
vn -0.05524431 0.93874280 0.34016190
vn -0.18474980 0.11107440 0.97648860
vn 0.00000000 1.00000000 0.00000048
vn 0.00000000 0.90157380 0.43262540
vn 0.05524321 0.93874690 0.34015070
vn 0.00000000 1.00000000 -0.00000757
vn -0.80609930 -0.09738680 -0.58371200
vn -0.06034327 -0.99785070 0.02555041
vn -0.06034330 -0.99785040 -0.02555772
vn -0.90515040 -0.10875330 -0.41094460
vn -0.90515210 -0.10874210 0.41094410
vn -0.51304950 0.82347140 -0.24222920
vn -0.51306250 0.82346030 0.24223970
vn -0.90855800 -0.09738850 0.40624860
vn -0.90855770 -0.09738781 -0.40624940
vn -0.46629780 0.82346530 -0.32322000
vn -0.80609930 -0.09738680 -0.58371200
vn -0.80846150 -0.10875280 -0.57841400
vn -0.80609920 -0.09738746 0.58371200
vn -0.80846320 -0.10873630 0.57841470
vn -0.46631000 0.82345510 0.32322820
vn 0.06034190 -0.99785080 -0.02554905
vn 0.06034470 -0.99785030 0.02555908
vn 0.90515070 -0.10875320 0.41094400
vn 0.90515170 -0.10874220 -0.41094480
vn 0.80846320 -0.10873600 -0.57841490
vn 0.80846140 -0.10875300 0.57841410
vn 0.80846320 -0.10873600 -0.57841490
vn 0.80609930 -0.09738681 -0.58371200
vn 0.17200640 -0.10064350 -0.97994120
vn 0.16386680 -0.11192630 -0.98011230
vn -0.00000058 -0.10405520 -0.99457150
vn 0.00000000 -0.09123507 -0.99582940
vn -0.17200620 -0.10064350 -0.97994120
vn -0.16386700 -0.11194680 -0.98010990
vn -0.80609930 -0.09738680 -0.58371200
vn -0.80846150 -0.10875280 -0.57841400
vn -0.80846320 -0.10873630 0.57841470
vn -0.80609920 -0.09738746 0.58371200
vn -0.17200370 -0.10064500 0.97994150
vn -0.16386430 -0.11192760 0.98011260
vn 0.00000055 -0.10405640 0.99457140
vn 0.00000000 -0.09123685 0.99582930
vn 0.17200350 -0.10064500 0.97994150
vn 0.16386450 -0.11194760 0.98011030
vn 0.80609920 -0.09738746 0.58371200
vn 0.80846140 -0.10875300 0.57841410
vn 0.00000070 0.09845749 -0.99514130
vn 0.17709900 0.10646420 -0.97841780
vn 0.01065374 0.99876640 -0.04849811
vn 0.05507822 0.99757130 -0.04263724
vn 0.80341070 0.10333300 -0.58639030
vn 0.00000000 1.00000000 0.00000000
vn 0.06419507 0.99759150 -0.02627337
vn 0.00000685 0.99901350 -0.04440640
vn 0.06419189 0.99759200 0.02626163
vn 0.00000000 1.00000000 0.00000000
vn 0.05508636 0.99757110 0.04263084
vn 0.01064533 0.99876640 0.04850100
vn -0.00000684 0.99901350 0.04440670
vn -0.01065436 0.99876640 0.04849774
vn -0.01064397 0.99876640 -0.04850130
vn -0.05507543 0.99757150 0.04263467
vn -0.17710460 0.10646010 0.97841720
vn -0.80341150 0.10333050 0.58638960
vn -0.06419361 0.99759160 0.02627105
vn -0.06419092 0.99759200 -0.02626204
vn -0.05508555 0.99757110 -0.04263136
vn -0.80341400 0.10331530 -0.58638880
vn -0.17709670 0.10644300 -0.97842040
vn -0.00000070 0.09845385 0.99514160
vn 0.17710650 0.10643940 0.97841920
vn 0.80340860 0.10331370 0.58639660
vn -0.90953450 0.10333050 0.40257900
vn 0.90953430 0.10332040 0.40258230
vn 0.90953460 0.10333220 -0.40257840
vn -0.90953730 0.10332090 -0.40257500
vn 0.00000000 0.10184710 0.99480010
vn 0.18475200 0.11107440 0.97648820
vn 0.27767010 0.94018540 0.19735890
vn 0.79959030 0.10841090 0.59067970
vn 0.91133440 0.10841140 0.39713550
vn 0.91133440 0.10841140 0.39713550
vn 0.91133590 0.10841240 -0.39713180
vn 0.30974890 0.94018720 -0.14178720
vn 0.30974670 0.94018790 0.14178820
vn 0.91133590 0.10841240 -0.39713180
vn -0.18474310 0.11107500 -0.97648980
vn -0.91133740 0.10841180 -0.39712830
vn -0.91133560 0.10841210 0.39713250
vn -0.30978040 0.94017550 0.14179570
vn -0.30975170 0.94018650 -0.14178580
vn 0.06419189 0.99759200 0.02626163
vn 0.06419507 0.99759150 -0.02627337
vn 0.90953460 0.10333220 -0.40257840
vn 0.90953430 0.10332040 0.40258230
vn -0.06419092 0.99759200 -0.02626204
vn -0.06419361 0.99759160 0.02627105
vn -0.90953450 0.10333050 0.40257900
vn -0.90953730 0.10332090 -0.40257500
vn -0.79959480 0.10841090 0.59067360
vn -0.80341150 0.10333050 0.58638960
vn -0.17710460 0.10646010 0.97841720
vn -0.18474980 0.11107440 0.97648860
vn 0.80340860 0.10331370 0.58639660
vn 0.79959030 0.10841090 0.59067970
vn 0.79959430 0.10841220 -0.59067400
vn 0.80341070 0.10333300 -0.58639030
vn 0.18475200 0.11107440 0.97648820
vn 0.80340860 0.10331370 0.58639660
vn 0.79959030 0.10841090 0.59067970
vn 0.17710650 0.10643940 0.97841920
vn -0.00000070 0.09845385 0.99514160
vn 0.00000000 0.10184710 0.99480010
vn 0.79959430 0.10841220 -0.59067400
vn 0.80341070 0.10333300 -0.58639030
vn 0.17709900 0.10646420 -0.97841780
vn 0.18474520 0.11107510 -0.97648940
vn -0.18474310 0.11107500 -0.97648980
vn -0.80341400 0.10331530 -0.58638880
vn -0.79959600 0.10841200 -0.59067180
vn -0.17709670 0.10644300 -0.97842040
vn 0.00000070 0.09845749 -0.99514130
vn 0.00000000 0.10184760 -0.99480000
vn -0.80341400 0.10331530 -0.58638880
vn -0.79959600 0.10841200 -0.59067180
vn -0.79959480 0.10841090 0.59067360
vn -0.80341150 0.10333050 0.58638960
vt -3.78290500 0.87564720
vt -3.78419400 0.87446060
vt -3.79018700 0.88484080
vt -3.79100400 0.80497250
vt -3.84119100 0.77774060
vt -3.79214400 0.80605830
vt -3.63240700 0.79441060
vt -3.63240600 0.81179110
vt -3.63099500 0.81137340
vt -3.63099600 0.79441060
vt -3.63240600 0.77702980
vt -3.63100400 0.77744480
vt -3.54943200 0.79441060
vt -3.54943300 0.77702980
vt -3.55084400 0.77744780
vt -3.55084300 0.79441060
vt -3.54943300 0.81179110
vt -3.55083400 0.81137610
vt -3.55512400 0.76717230
vt -3.55619100 0.76818610
vt -3.58522800 0.79441060
vt -3.58557200 0.75122310
vt -3.59626600 0.75122310
vt -3.59661100 0.79441060
vt -3.62565500 0.76817920
vt -3.62564700 0.82063480
vt -3.62671500 0.82164880
vt -3.59626600 0.83759800
vt -3.59661100 0.83902960
vt -3.58557200 0.83759800
vt -3.55618400 0.82064180
vt -3.55512400 0.82164880
vt -3.62671500 0.76717230
vt -3.59661100 0.74979160
vt -3.58522800 0.83902960
vt -3.58522800 0.74979160
vt -3.78799400 0.26784500
vt -3.85414400 0.26907460
vt -3.78915300 0.26907460
vt -3.85365300 0.26784500
vt -3.86785800 0.26907460
vt -3.86834900 0.26784500
vt -3.93284900 0.26907460
vt -3.93400800 0.26784500
vt -3.78851500 0.80453450
vt -3.78155500 0.81393540
vt -3.78756700 0.80352310
vt -3.78290500 0.81425100
vt -3.78155500 0.84494910
vt -3.78290400 0.84494910
vt -3.78155500 0.87596270
vt -3.78419400 0.81543740
vt -3.79018700 0.80505730
vt -3.78419400 0.84494910
vt -3.84130300 0.77554560
vt -3.84168600 0.77383610
vt -3.85290600 0.77383610
vt -3.85328900 0.77554550
vt -3.90440400 0.80505720
vt -3.90607700 0.80453450
vt -3.91168600 0.81425100
vt -3.90702500 0.80352310
vt -3.91039800 0.81543730
vt -3.91303600 0.81393540
vt -3.91039800 0.84494910
vt -3.91168800 0.84494910
vt -3.91303700 0.84494910
vt -3.91168600 0.87564720
vt -3.91303600 0.87596270
vt -3.91039800 0.87446080
vt -3.90607700 0.88536380
vt -3.90702500 0.88637520
vt -3.90440400 0.88484100
vt -3.85328900 0.91435270
vt -3.85290600 0.91606220
vt -3.84168600 0.91606220
vt -3.84130300 0.91435250
vt -3.78851500 0.88536380
vt -3.91006300 0.81618640
vt -3.91137100 0.81498160
vt -3.91006200 0.84494910
vt -3.90855200 0.84494910
vt -3.91137100 0.87491640
vt -3.90855200 0.87326670
vt -3.91006300 0.87371160
vt -3.90244800 0.88383980
vt -3.90528600 0.88545670
vt -3.90358800 0.88492580
vt -3.85338100 0.91542390
vt -3.85377000 0.91368800
vt -3.84121000 0.91542380
vt -3.84082100 0.91368760
vt -3.78930600 0.88545660
vt -3.90358800 0.80497210
vt -3.90528600 0.80444140
vt -3.85377000 0.77620990
vt -3.90244800 0.80605820
vt -3.85340000 0.77774030
vt -3.85338100 0.77447420
vt -3.84082100 0.77621020
vt -3.84121000 0.77447430
vt -3.78930600 0.80444150
vt -3.78452900 0.81618650
vt -3.78603900 0.81663160
vt -3.78322000 0.81498190
vt -3.78453000 0.84494910
vt -3.78452900 0.87371100
vt -3.78322000 0.87491610
vt -3.78756700 0.88637520
vt -3.57454400 0.08669035
vt -3.58835100 0.08669035
vt -3.58879600 0.08779456
vt -3.57410000 0.08779456
vt -3.58830500 0.26907460
vt -3.57459100 0.26907460
vt -3.57410000 0.26784500
vt -3.58879600 0.26784500
vt -3.65329600 0.26907460
vt -3.65445500 0.26784500
vt -3.62766400 0.08779456
vt -3.50844100 0.26784500
vt -3.53523200 0.08779456
vt -3.50959900 0.26907460
vt -3.85409700 0.08669040
vt -3.86790500 0.08669040
vt -3.86834900 0.08779463
vt -3.85365300 0.08779463
vt -3.81478500 0.08779463
vt -3.90721700 0.08779463
vt -3.31010600 0.26199040
vt -3.29528100 0.08943237
vt -3.30747900 0.08943237
vt -3.32230300 0.26199040
vt -3.34381000 0.26198550
vt -3.34381000 0.08942881
vt -3.38014000 0.08943237
vt -3.36531600 0.26199040
vt -3.39233800 0.08943237
vt -3.37751400 0.26199040
vt -3.18234300 0.08942879
vt -3.19716700 0.26198690
vt -3.18497000 0.26198690
vt -3.17014500 0.08942879
vt -3.14863900 0.08943369
vt -3.14863900 0.26199040
vt -3.11230800 0.26198690
vt -3.12713200 0.08942879
vt -3.10011100 0.26198690
vt -3.11493500 0.08942879
vt -3.43060600 0.78490150
vt -3.43060600 0.80032140
vt -3.42919600 0.79990630
vt -3.42384500 0.80917480
vt -3.42490900 0.81018820
vt -3.39820100 0.78490150
vt -3.39785600 0.82418010
vt -3.42919700 0.78490150
vt -3.38715300 0.82418010
vt -3.38680800 0.78490150
vt -3.36115600 0.80918190
vt -3.35580300 0.79990880
vt -3.35581100 0.78490150
vt -3.35581200 0.76989620
vt -3.42920500 0.76989390
vt -3.36116300 0.76062780
vt -3.35440300 0.76948090
vt -3.36009900 0.75961450
vt -3.38715300 0.74562230
vt -3.39785600 0.74562260
vt -3.42385200 0.76062080
vt -3.42490900 0.75961450
vt -3.43060600 0.76948120
vt -3.35440200 0.78490150
vt -3.35440300 0.80032140
vt -3.36009900 0.81018820
vt -3.38680800 0.74419410
vt -3.38680800 0.82560800
vt -3.39820100 0.82560800
vt -3.39820100 0.74419450
vt -3.78604000 0.84494910
vt -3.78603900 0.87326620
vt -3.79100400 0.88492540
vt -3.79214400 0.88383960
vt -3.84119100 0.91215730
vt -3.13577900 0.60058670
vt -3.15044000 0.60058670
vt -3.15088500 0.60169210
vt -3.13533400 0.60169210
vt -3.85340000 0.91215770
vt -3.90855200 0.81663110
vt -3.38943200 0.60493270
vt -3.40409400 0.60493270
vt -3.40453800 0.60603800
vt -3.38898800 0.60603800
vt -3.13622300 0.42454450
vt -3.14999600 0.42454450
vt -3.15044000 0.42564980
vt -3.13577900 0.42564980
vt -3.38987700 0.42889020
vt -3.40364900 0.42889020
vt -3.40409300 0.42999560
vt -3.38943200 0.42999560
vt -3.56897800 0.59955050
vt -3.58260300 0.43124470
vt -3.59481800 0.43124470
vt -3.58119300 0.59955050
vt -3.10140900 0.42564980
vt -3.07688000 0.60058670
vt -3.20933900 0.60058670
vt -3.18481000 0.42564980
vt -3.64662600 0.59955050
vt -3.64521600 0.43124470
vt -3.65884100 0.59955050
vt -3.63300100 0.43124470
vt -3.61391000 0.43124940
vt -3.61391000 0.59954600
vt -3.83948200 0.43124490
vt -3.82585700 0.59955040
vt -3.81364200 0.59955040
vt -3.82726700 0.43124490
vt -3.76183400 0.43124490
vt -3.76324400 0.59955040
vt -3.74961900 0.43124490
vt -3.77545900 0.59955040
vt -3.79455100 0.59954580
vt -3.79455100 0.43124960
vt -3.35506200 0.42999560
vt -3.33053400 0.60493270
vt -3.46299200 0.60493270
vt -3.43846300 0.42999560
f 3/3/3 2/2/2 1/1/1
f 6/6/6 5/5/5 4/4/4
f 9/9/9 8/8/8 7/7/7
f 10/10/10 9/9/9 7/7/7
f 7/7/7 11/11/11 10/10/10
f 11/11/11 12/12/12 10/10/10
f 15/15/15 14/14/14 13/13/13
f 16/16/16 15/15/15 13/13/13
f 13/13/13 17/17/17 16/16/16
f 17/17/17 18/18/18 16/16/16
f 20/20/20 19/19/19 14/14/14
f 15/15/15 20/20/20 14/14/14
f 15/15/15 16/16/16 20/20/20
f 16/16/16 21/21/21 20/20/20
f 21/21/21 22/22/22 20/20/20
f 22/22/22 21/21/21 23/23/23
f 21/21/21 24/24/24 23/23/23
f 25/25/25 23/23/23 24/24/24
f 12/12/12 25/25/25 24/24/24
f 10/10/10 12/12/12 24/24/24
f 16/16/16 18/18/18 21/21/21
f 10/10/10 24/24/24 26/26/26
f 9/9/9 10/10/10 26/26/26
f 9/9/9 26/26/26 8/8/8
f 26/26/26 27/27/27 8/8/8
f 26/26/26 28/28/28 27/27/27
f 24/24/24 28/28/28 26/26/26
f 28/28/28 29/29/29 27/27/27
f 28/28/28 24/24/24 30/30/30
f 24/24/24 21/21/21 30/30/30
f 31/31/31 30/30/30 21/21/21
f 18/18/18 31/31/31 21/21/21
f 32/32/32 31/31/31 18/18/18
f 17/17/17 32/32/32 18/18/18
f 11/11/11 33/33/33 12/12/12
f 33/33/33 25/25/25 12/12/12
f 33/33/33 34/34/34 25/25/25
f 34/34/34 23/23/23 25/25/25
f 35/35/35 30/30/30 31/31/31
f 32/32/32 35/35/35 31/31/31
f 22/22/22 36/36/36 19/19/19
f 20/20/20 22/22/22 19/19/19
f 39/39/39 38/38/38 37/37/37
f 38/38/38 40/40/40 37/37/37
f 40/40/40 38/38/38 41/41/41
f 42/42/42 40/40/40 41/41/41
f 42/42/42 41/41/41 43/43/43
f 44/44/44 42/42/42 43/43/43
f 47/47/47 46/46/46 45/45/45
f 46/46/46 48/48/48 45/45/45
f 46/46/46 49/49/49 48/48/48
f 49/49/49 50/50/50 48/48/48
f 50/50/50 49/49/49 51/51/51
f 1/1/1 50/50/50 51/51/51
f 52/52/52 48/48/48 50/50/50
f 48/48/48 52/52/52 45/45/45
f 52/52/52 53/53/53 45/45/45
f 54/54/54 52/52/52 50/50/50
f 54/54/54 50/50/50 1/1/1
f 53/53/53 55/55/55 45/45/45
f 55/55/55 56/56/56 45/45/45
f 2/2/2 54/54/54 1/1/1
f 56/56/56 55/55/55 57/57/57
f 55/55/55 58/58/58 57/57/57
f 58/58/58 59/59/59 57/57/57
f 59/59/59 60/60/60 57/57/57
f 60/60/60 59/59/59 61/61/61
f 62/62/62 60/60/60 61/61/61
f 59/59/59 63/63/63 61/61/61
f 64/64/64 62/62/62 61/61/61
f 63/63/63 65/65/65 61/61/61
f 61/61/61 66/66/66 64/64/64
f 65/65/65 66/66/66 61/61/61
f 66/66/66 67/67/67 64/64/64
f 67/67/67 66/66/66 68/68/68
f 69/69/69 67/67/67 68/68/68
f 70/70/70 68/68/68 66/66/66
f 65/65/65 70/70/70 66/66/66
f 69/69/69 68/68/68 71/71/71
f 68/68/68 70/70/70 71/71/71
f 72/72/72 69/69/69 71/71/71
f 70/70/70 73/73/73 71/71/71
f 73/73/73 74/74/74 71/71/71
f 74/74/74 75/75/75 71/71/71
f 75/75/75 74/74/74 76/76/76
f 74/74/74 77/77/77 76/76/76
f 77/77/77 3/3/3 76/76/76
f 3/3/3 78/78/78 76/76/76
f 78/78/78 3/3/3 1/1/1
f 80/80/80 79/79/79 65/65/65
f 79/79/79 81/81/81 65/65/65
f 82/82/82 81/81/81 79/79/79
f 65/65/65 81/81/81 83/83/83
f 81/81/81 82/82/82 84/84/84
f 81/81/81 85/85/85 83/83/83
f 85/85/85 81/81/81 84/84/84
f 85/85/85 84/84/84 86/86/86
f 83/83/83 85/85/85 87/87/87
f 88/88/88 85/85/85 86/86/86
f 85/85/85 88/88/88 87/87/87
f 87/87/87 88/88/88 89/89/89
f 88/88/88 90/90/90 89/89/89
f 89/89/89 90/90/90 91/91/91
f 90/90/90 92/92/92 91/91/91
f 91/91/91 92/92/92 93/93/93
f 95/95/95 94/94/94 80/80/80
f 96/96/96 94/94/94 95/95/95
f 94/94/94 96/96/96 97/97/97
f 96/96/96 98/98/98 97/97/97
f 99/99/99 96/96/96 95/95/95
f 100/100/100 96/96/96 99/99/99
f 101/101/101 100/100/100 99/99/99
f 4/4/4 100/100/100 101/101/101
f 5/5/5 100/100/100 4/4/4
f 102/102/102 4/4/4 101/101/101
f 103/103/103 4/4/4 102/102/102
f 6/6/6 4/4/4 103/103/103
f 104/104/104 6/6/6 103/103/103
f 105/105/105 103/103/103 102/102/102
f 106/106/106 103/103/103 105/105/105
f 54/54/54 106/106/106 105/105/105
f 107/107/107 106/106/106 54/54/54
f 108/108/108 107/107/107 54/54/54
f 109/109/109 78/78/78 1/1/1
f 51/51/51 109/109/109 1/1/1
f 112/112/112 111/111/111 110/110/110
f 113/113/113 112/112/112 110/110/110
f 116/116/116 115/115/115 114/114/114
f 117/117/117 116/116/116 114/114/114
f 117/117/117 114/114/114 118/118/118
f 119/119/119 117/117/117 118/118/118
f 112/112/112 117/117/117 119/119/119
f 116/116/116 117/117/117 112/112/112
f 120/120/120 112/112/112 119/119/119
f 113/113/113 116/116/116 112/112/112
f 121/121/121 116/116/116 113/113/113
f 122/122/122 121/121/121 113/113/113
f 121/121/121 123/123/123 115/115/115
f 116/116/116 121/121/121 115/115/115
f 126/126/126 125/125/125 124/124/124
f 127/127/127 126/126/126 124/124/124
f 127/127/127 40/40/40 126/126/126
f 37/37/37 40/40/40 127/127/127
f 128/128/128 37/37/37 127/127/127
f 40/40/40 42/42/42 126/126/126
f 126/126/126 42/42/42 44/44/44
f 129/129/129 126/126/126 44/44/44
f 132/132/132 131/131/131 130/130/130
f 133/133/133 132/132/132 130/130/130
f 133/133/133 134/134/134 132/132/132
f 134/134/134 135/135/135 132/132/132
f 136/136/136 135/135/135 134/134/134
f 137/137/137 136/136/136 134/134/134
f 138/138/138 136/136/136 137/137/137
f 139/139/139 138/138/138 137/137/137
f 142/142/142 141/141/141 140/140/140
f 143/143/143 142/142/142 140/140/140
f 143/143/143 144/144/144 142/142/142
f 144/144/144 145/145/145 142/142/142
f 146/146/146 145/145/145 144/144/144
f 147/147/147 146/146/146 144/144/144
f 148/148/148 146/146/146 147/147/147
f 149/149/149 148/148/148 147/147/147
f 152/152/152 151/151/151 150/150/150
f 152/152/152 153/153/153 151/151/151
f 153/153/153 154/154/154 151/151/151
f 153/153/153 152/152/152 155/155/155
f 156/156/156 153/153/153 155/155/155
f 152/152/152 157/157/157 155/155/155
f 156/156/156 155/155/155 158/158/158
f 155/155/155 159/159/159 158/158/158
f 160/160/160 158/158/158 159/159/159
f 160/160/160 159/159/159 161/161/161
f 159/159/159 162/162/162 161/161/161
f 163/163/163 162/162/162 159/159/159
f 155/155/155 157/157/157 164/164/164
f 165/165/165 163/163/163 159/159/159
f 163/163/163 165/165/165 166/166/166
f 165/165/165 167/167/167 166/166/166
f 168/168/168 165/165/165 159/159/159
f 168/168/168 159/159/159 169/169/169
f 159/159/159 155/155/155 169/169/169
f 170/170/170 169/169/169 155/155/155
f 170/170/170 155/155/155 164/164/164
f 171/171/171 170/170/170 164/164/164
f 172/172/172 171/171/171 164/164/164
f 157/157/157 152/152/152 150/150/150
f 150/150/150 172/172/172 157/157/157
f 172/172/172 164/164/164 157/157/157
f 163/163/163 166/166/166 173/173/173
f 162/162/162 163/163/163 173/173/173
f 173/173/173 174/174/174 162/162/162
f 174/174/174 161/161/161 162/162/162
f 174/174/174 175/175/175 161/161/161
f 175/175/175 160/160/160 161/161/161
f 168/168/168 176/176/176 167/167/167
f 165/165/165 168/168/168 167/167/167
f 177/177/177 158/158/158 160/160/160
f 175/175/175 177/177/177 160/160/160
f 156/156/156 178/178/178 154/154/154
f 153/153/153 156/156/156 154/154/154
f 179/179/179 169/169/169 170/170/170
f 171/171/171 179/179/179 170/170/170
f 103/103/103 106/106/106 104/104/104
f 106/106/106 180/180/180 104/104/104
f 180/180/180 106/106/106 107/107/107
f 181/181/181 180/180/180 107/107/107
f 181/181/181 107/107/107 182/182/182
f 183/183/183 181/181/181 182/182/182
f 182/182/182 107/107/107 108/108/108
f 92/92/92 184/184/184 183/183/183
f 182/182/182 92/92/92 183/183/183
f 92/92/92 182/182/182 93/93/93
f 93/93/93 182/182/182 108/108/108
f 187/187/187 186/186/186 185/185/185
f 188/188/188 187/187/187 185/185/185
f 88/88/88 86/86/86 189/189/189
f 90/90/90 88/88/88 189/189/189
f 190/190/190 82/82/82 79/79/79
f 79/79/79 94/94/94 190/190/190
f 94/94/94 97/97/97 190/190/190
f 94/94/94 79/79/79 80/80/80
f 193/193/193 192/192/192 191/191/191
f 194/194/194 193/193/193 191/191/191
f 197/197/197 196/196/196 195/195/195
f 198/198/198 197/197/197 195/195/195
f 201/201/201 200/200/200 199/199/199
f 202/202/202 201/201/201 199/199/199
f 205/205/205 204/204/204 203/203/203
f 206/206/206 205/205/205 203/203/203
f 197/197/197 198/198/198 185/185/185
f 185/185/185 198/198/198 207/207/207
f 208/208/208 185/185/185 207/207/207
f 186/186/186 197/197/197 185/185/185
f 186/186/186 209/209/209 197/197/197
f 209/209/209 210/210/210 197/197/197
f 213/213/213 212/212/212 211/211/211
f 212/212/212 214/214/214 211/211/211
f 211/211/211 214/214/214 215/215/215
f 216/216/216 211/211/211 215/215/215
f 216/216/216 215/215/215 205/205/205
f 206/206/206 216/216/216 205/205/205
f 219/219/219 218/218/218 217/217/217
f 220/220/220 219/219/219 217/217/217
f 223/223/223 222/222/222 221/221/221
f 222/222/222 224/224/224 221/221/221
f 221/221/221 224/224/224 225/225/225
f 226/226/226 221/221/221 225/225/225
f 226/226/226 225/225/225 219/219/219
f 220/220/220 226/226/226 219/219/219
f 201/201/201 202/202/202 191/191/191
f 191/191/191 202/202/202 227/227/227
f 228/228/228 191/191/191 227/227/227
f 192/192/192 201/201/201 191/191/191
f 192/192/192 229/229/229 201/201/201
f 229/229/229 230/230/230 201/201/201

