mtllib material.mtl
usemtl material_0
v 0.06015074 0.06913842 0.00356762
v 0.05573807 0.05389387 0.00000001
v 0.05519190 0.05463410 0.00357346
v 0.05849058 0.07052427 0.00577918
v 0.06175399 0.07966357 0.00578682
v 0.06354478 0.07894379 0.00357182
v 0.05378690 0.05661758 0.00578780
v 0.05006756 0.04035798 0.00358899
v 0.06215525 0.08619841 0.00579335
v 0.06415319 0.08619606 0.00357614
v 0.04891871 0.04267313 0.00581266
v 0.04425225 0.03046790 0.00360075
v 0.05931853 0.09191859 0.00579641
v 0.06102371 0.09281410 0.00357787
v 0.04362034 0.03323517 0.00582880
v 0.04064912 0.02780433 0.00360440
v 0.05416031 0.09570422 0.00579587
v 0.05529746 0.09707799 0.00357621
v 0.04035197 0.03083201 0.00583303
v 0.03769193 0.02636585 0.00360312
v 0.03767048 0.02944548 0.00583308
v 0.03997117 0.03494677 0.00582818
v 0.03762563 0.03356528 0.00583154
v 0.04282355 0.03721399 0.00582437
v 0.04753074 0.04632228 0.00580510
v 0.05211284 0.05952580 0.00578073
v 0.05633777 0.07240234 0.00577467
v 0.05931408 0.08068168 0.00578377
v 0.05964069 0.08632763 0.00579026
v 0.05717152 0.09104951 0.00579220
v 0.05266732 0.09423864 0.00579115
v 0.04693788 0.09569745 0.00578904
v 0.04764431 0.09735002 0.00579323
v 0.04185812 0.09545333 0.00578630
v 0.04194159 0.09710967 0.00579099
v 0.04046796 0.09536547 0.00578616
v 0.04037877 0.09703333 0.00579064
v 0.05006756 0.04035798 -0.00358897
v 0.04891871 0.04267313 -0.00581264
v 0.04362034 0.03323516 -0.00582877
v 0.04282355 0.03721399 -0.00582435
v 0.04753074 0.04632228 -0.00580509
v 0.05378690 0.05661759 -0.00578779
v 0.05211284 0.05952581 -0.00578071
v 0.05849058 0.07052426 -0.00577917
v 0.05633777 0.07240235 -0.00577466
v 0.06175399 0.07966357 -0.00578681
v 0.05931408 0.08068168 -0.00578376
v 0.06215525 0.08619843 -0.00579334
v 0.05964069 0.08632762 -0.00579026
v 0.05931853 0.09191859 -0.00579641
v 0.05717152 0.09104948 -0.00579221
v 0.05416031 0.09570422 -0.00579587
v 0.05266732 0.09423864 -0.00579115
v 0.04764431 0.09735002 -0.00579323
v 0.04693788 0.09569745 -0.00578904
v 0.04194159 0.09710967 -0.00579100
v 0.04185812 0.09545333 -0.00578630
v 0.04637085 0.09450293 -0.00356217
v 0.04037878 0.09703333 -0.00579064
v 0.04046796 0.09536547 -0.00578617
v 0.04181926 0.09425103 -0.00356097
v 0.04057945 0.09415063 -0.00356121
v 0.04187326 0.09386902 -0.00000000
v 0.04069205 0.09376919 0.00000000
v 0.04619383 0.09412412 -0.00000000
v 0.04425225 0.03046790 -0.00360073
v 0.05050592 0.03974178 0.00000001
v 0.04448973 0.02947972 0.00000001
v 0.04064912 0.02780433 -0.00360438
v 0.04075860 0.02677076 0.00000001
v 0.03769193 0.02636585 -0.00360310
v 0.03769610 0.02534420 0.00000001
v 0.05519190 0.05463411 -0.00357345
v 0.06079603 0.06855516 0.00000000
v 0.06015074 0.06913842 -0.00356761
v 0.06416545 0.07853144 0.00000000
v 0.06354478 0.07894378 -0.00357181
v 0.06488369 0.08620925 0.00000000
v 0.06166359 0.09319592 0.00000000
v 0.06415319 0.08619605 -0.00357614
v 0.06102371 0.09281411 -0.00357787
v 0.03767048 0.02944548 -0.00583306
v 0.04035197 0.03083200 -0.00583301
v 0.03762563 0.03356527 -0.00583152
v 0.03997117 0.03494676 -0.00582816
v 0.03757886 0.03715035 -0.00360335
v 0.03967164 0.03861504 -0.00359898
v 0.03756383 0.03873697 0.00000001
v 0.03956212 0.04020749 0.00000001
v 0.04221014 0.04087992 -0.00359321
v 0.04198457 0.04243824 0.00000001
v 0.04649137 0.04967582 -0.00357733
v 0.04611997 0.05099106 0.00000001
v 0.05080365 0.06226584 -0.00356315
v 0.05030156 0.06322000 0.00000000
v 0.05455306 0.07413007 -0.00356147
v 0.05390539 0.07472490 0.00000000
v 0.05724026 0.08155809 -0.00356728
v 0.05646651 0.08191667 -0.00000000
v 0.05759291 0.08655974 -0.00356954
v 0.05677240 0.08666553 -0.00000000
v 0.05542463 0.09051545 -0.00356755
v 0.05149193 0.09327199 -0.00356462
v 0.05472848 0.09035493 -0.00000000
v 0.05759291 0.08655974 0.00356954
v 0.03757886 0.03715035 0.00360337
v 0.03967164 0.03861504 0.00359900
v 0.04221014 0.04087990 0.00359324
v 0.04649137 0.04967583 0.00357735
v 0.05080365 0.06226584 0.00356316
v 0.05455306 0.07413005 0.00356148
v 0.05724010 0.08155809 0.00356728
v 0.05542463 0.09051544 0.00356756
v 0.04637085 0.09450293 0.00356216
v 0.04181926 0.09425103 0.00356096
v 0.04057945 0.09415063 0.00356120
v 0.04203622 0.09855689 0.00357068
v 0.04842141 0.09923902 -0.00000000
v 0.04822357 0.09879406 0.00357271
v 0.04210638 0.09912617 -0.00000000
v 0.04033835 0.09847975 0.00357093
v 0.04822357 0.09879406 -0.00357271
v 0.04037008 0.09908588 -0.00000000
v 0.04203622 0.09855689 -0.00357069
v 0.04033835 0.09847975 -0.00357094
v 0.05149193 0.09327198 0.00356462
v 0.05102587 0.09294344 -0.00000000
v 0.05564032 0.09763835 -0.00000000
v 0.05529746 0.09707799 -0.00357622
v -0.00000000 0.10017150 -0.04437726
v 0.01148744 0.10290050 -0.04287104
v -0.00000000 0.10290050 -0.04438336
v 0.01148581 0.10017150 -0.04286514
v -0.00000000 0.07377250 -0.04189025
v 0.02219187 0.10290050 -0.03843712
v 0.01084225 0.07377251 -0.04046288
v -0.00000000 0.00584711 -0.04029509
v 0.01042936 0.00584711 -0.03892206
v 0.02218887 0.10017150 -0.03843184
v 0.03138388 0.10290050 -0.03138378
v 0.02094523 0.07377250 -0.03627802
v 0.02014767 0.00584711 -0.03489657
v 0.04286533 0.10017150 0.01148566
v 0.03843202 0.10017150 0.02218860
v 0.03843712 0.10290050 0.02219165
v 0.04287133 0.10290050 0.01148723
v 0.04437727 0.10017150 -0.00000002
v 0.04438328 0.10290050 -0.00000002
v 0.04189045 0.07377251 -0.00000001
v 0.04286533 0.10017150 -0.01148569
v 0.04287133 0.10290050 -0.01148727
v 0.04046318 0.07377251 -0.01084200
v 0.03892222 0.00584710 -0.01042914
v 0.03489669 0.00584711 -0.02014754
v 0.03627812 0.07377251 -0.02094513
v 0.02849301 0.00584711 -0.02849293
v 0.03843202 0.10017150 -0.02218864
v 0.03843712 0.10290050 -0.02219169
v 0.02962094 0.07377251 -0.02962088
v 0.03137967 0.10017150 -0.03137947
v 0.03138388 0.10290050 0.03138374
v 0.03137967 0.10017150 0.03137943
v 0.02219187 0.10290050 0.03843708
v 0.02218887 0.10017150 0.03843180
v 0.01148744 0.10290050 0.04287100
v 0.01148596 0.10017150 0.04286511
v -0.00000000 0.10290050 0.04438334
v -0.00000000 0.10017150 0.04437723
v 0.02094523 0.07377253 0.03627800
v 0.02962094 0.07377251 0.02962085
v 0.03627812 0.07377251 0.02094511
v 0.02849301 0.00584712 0.02849293
v 0.02014767 0.00584712 0.03489657
v 0.03489669 0.00584711 0.02014754
v 0.03892222 0.00584711 0.01042913
v 0.04046318 0.07377251 0.01084198
v 0.04029519 0.00584711 -0.00000000
v -0.01148714 0.10290050 0.04287101
v -0.01148551 0.10017150 0.04286511
v -0.02219157 0.10290050 0.03843709
v -0.02218841 0.10017150 0.03843182
v -0.03138358 0.10290050 0.03138377
v -0.03137921 0.10017150 0.03137946
v -0.03843713 0.10290050 0.02219167
v -0.03843172 0.10017150 0.02218862
v -0.04287087 0.10290050 0.01148725
v -0.04286502 0.10017150 0.01148568
v -0.03627781 0.07377251 0.02094512
v -0.04046258 0.07377251 0.01084200
v -0.02962079 0.07377252 0.02962088
v -0.03489639 0.00584712 0.02014756
v -0.03892207 0.00584711 0.01042915
v -0.02849286 0.00584712 0.02849295
v -0.02014736 0.00584712 0.03489658
v -0.02094492 0.07377252 0.03627801
v -0.01042891 0.00584712 0.03892207
v -0.01084195 0.07377253 0.04046286
v -0.00000000 0.00584712 0.04029509
v -0.00000000 0.07377253 0.04189023
v 0.01042936 0.00584712 0.03892207
v 0.01084225 0.07377253 0.04046285
v -0.04438313 0.10290050 0.00000000
v -0.04437697 0.10017150 0.00000000
v -0.04287086 0.10290050 -0.01148725
v -0.04189015 0.07377251 0.00000001
v -0.04029489 0.00584712 0.00000002
v -0.04286502 0.10017150 -0.01148567
v -0.03843713 0.10290050 -0.02219166
v -0.04046258 0.07377252 -0.01084198
v -0.03892207 0.00584712 -0.01042912
v -0.03843187 0.10017150 -0.02218862
v -0.03138357 0.10290050 -0.03138376
v -0.03627781 0.07377251 -0.02094511
v -0.03489639 0.00584711 -0.02014752
v -0.03137936 0.10017150 -0.03137945
v -0.02219156 0.10290050 -0.03843711
v -0.02218856 0.10017150 -0.03843183
v -0.02962079 0.07377251 -0.02962087
v -0.02849286 0.00584711 -0.02849291
v -0.02094492 0.07377250 -0.03627801
v -0.02014752 0.00584711 -0.03489656
v -0.01148713 0.10290050 -0.04287104
v -0.01148566 0.10017150 -0.04286514
v -0.00000000 0.10290050 -0.04438336
v -0.00000000 0.10017150 -0.04437726
v -0.01084195 0.07377251 -0.04046287
v -0.00000000 0.07377250 -0.04189025
v -0.01042906 0.00584711 -0.03892206
v -0.00000000 0.00584711 -0.04029509
v 0.00000000 0.10017700 -0.04007566
v 0.00000000 0.10289510 -0.04010151
v 0.01037918 0.10289510 -0.03873508
v 0.01037263 0.10017700 -0.03871012
v 0.00000000 0.08710083 -0.03816239
v 0.00987724 0.08710084 -0.03686204
v 0.00000000 0.01375867 -0.03646763
v 0.02003770 0.10017700 -0.03470654
v 0.00943866 0.01375867 -0.03522503
v 0.01908137 0.08710084 -0.03304960
v 0.01823400 0.01375867 -0.03158190
v 0.02833798 0.10017700 -0.02833778
v 0.02698495 0.08710083 -0.02698489
v 0.02005097 0.10289510 -0.03472893
v 0.02835619 0.10289510 -0.02835605
v 0.03472917 0.10289510 -0.02005076
v 0.03470675 0.10017700 -0.02003784
v 0.03873490 0.10289510 -0.01037905
v 0.03871015 0.10017700 -0.01037236
v 0.04010163 0.10289510 -0.00000002
v 0.03304974 0.08710084 -0.01908120
v 0.04007585 0.10017700 -0.00000002
v 0.03873490 0.10289510 0.01037901
v 0.03686233 0.08710083 -0.00987716
v 0.03871015 0.10017700 0.01037232
v 0.03472917 0.10289510 0.02005073
v 0.03816245 0.08710084 -0.00000002
v 0.03470675 0.10017700 0.02003780
v 0.02835619 0.10289510 0.02835602
v 0.02833798 0.10017700 0.02833774
v 0.03686233 0.08710085 0.00987713
v 0.03304974 0.08710085 0.01908117
v 0.02698495 0.08710085 0.02698485
v 0.03158223 0.01375867 0.01823381
v 0.02578665 0.01375868 0.02578650
v 0.03522501 0.01375867 0.00943851
v 0.03646770 0.01375867 -0.00000000
v 0.03522501 0.01375867 -0.00943852
v 0.03158223 0.01375867 -0.01823381
v 0.02578635 0.01375867 -0.02578651
v 0.02005097 0.10289510 0.03472889
v 0.02003770 0.10017700 0.03470651
v 0.01037918 0.10289510 0.03873505
v 0.01908138 0.08710085 0.03304957
v 0.01823400 0.01375868 0.03158189
v 0.01037263 0.10017700 0.03871009
v 0.00000000 0.10289510 0.04010148
v 0.00987724 0.08710085 0.03686202
v 0.00943866 0.01375868 0.03522502
v 0.00000000 0.10017700 0.04007563
v -0.01037887 0.10289510 0.03873506
v 0.00000000 0.08710085 0.03816237
v 0.00000000 0.01375868 0.03646763
v -0.01037217 0.10017700 0.03871009
v -0.02005051 0.10289510 0.03472891
v -0.00987693 0.08710085 0.03686202
v -0.00943820 0.01375868 0.03522503
v -0.02003769 0.10017700 0.03470652
v -0.02835588 0.10289510 0.02835605
v -0.01908107 0.08710084 0.03304958
v -0.01823370 0.01375868 0.03158190
v -0.02833752 0.10017700 0.02833776
v -0.03472872 0.10289510 0.02005075
v -0.03470629 0.10017700 0.02003782
v -0.03873491 0.10289510 0.01037903
v -0.03870984 0.10017700 0.01037234
v -0.04010133 0.10289510 0.00000000
v -0.04007554 0.10017700 0.00000000
v -0.03686203 0.08710083 0.00987715
v -0.03873491 0.10289510 -0.01037903
v -0.03816214 0.08710084 0.00000000
v -0.03870984 0.10017700 -0.01037233
v -0.03472887 0.10289510 -0.02005075
v -0.03470629 0.10017700 -0.02003782
v -0.02835604 0.10289510 -0.02835604
v -0.03686203 0.08710083 -0.00987714
v -0.02833752 0.10017700 -0.02833776
v -0.02005066 0.10289510 -0.03472891
v -0.03646755 0.01375867 0.00000002
v -0.03522485 0.01375867 0.00943853
v -0.03522485 0.01375866 -0.00943850
v -0.03304944 0.08710083 -0.01908118
v -0.03158177 0.01375866 -0.01823380
v -0.02698479 0.08710084 -0.02698487
v -0.02578635 0.01375867 -0.02578649
v -0.02003769 0.10017700 -0.03470653
v -0.01037887 0.10289510 -0.03873507
v -0.01908107 0.08710083 -0.03304959
v -0.01823370 0.01375867 -0.03158188
v 0.00000000 0.10289510 -0.04010151
v 0.00944038 0.01033827 -0.03523111
v 0.01823400 0.01375867 -0.03158190
v 0.01823718 0.01033827 -0.03158735
v 0.00943866 0.01375867 -0.03522503
v 0.00000000 0.01033827 -0.03647393
v 0.00000000 0.01375867 -0.03646763
v -0.00944008 0.01033827 -0.03523110
v -0.00943836 0.01375867 -0.03522502
v -0.01823687 0.01033827 -0.03158734
v -0.01823370 0.01375867 -0.03158188
v 0.02578635 0.01375867 -0.02578651
v 0.02579081 0.01033827 -0.02579096
v 0.03158223 0.01375867 -0.01823381
v 0.03158760 0.01033827 -0.01823696
v 0.03522501 0.01375867 -0.00943852
v 0.03523120 0.01033828 -0.00944015
v 0.03646770 0.01375867 -0.00000000
v 0.03647405 0.01033828 -0.00000000
v 0.03522501 0.01375867 0.00943851
v 0.03523120 0.01033828 0.00944014
v 0.03158223 0.01375867 0.01823381
v 0.03158775 0.01033828 0.01823696
v 0.02578665 0.01375868 0.02578650
v 0.02579112 0.01033828 0.02579095
v 0.01823400 0.01375868 0.03158189
v 0.01823718 0.01033828 0.03158734
v 0.00943866 0.01375868 0.03522502
v 0.00944038 0.01033829 0.03523111
v 0.00000000 0.01375868 0.03646763
v 0.00000000 0.01033829 0.03647393
v -0.00943820 0.01375868 0.03522503
v -0.00943993 0.01033829 0.03523111
v -0.01823370 0.01375868 0.03158190
v -0.01823688 0.01033829 0.03158735
v -0.02578635 0.01375868 0.02578652
v -0.02579081 0.01033829 0.02579098
v -0.03158177 0.01375868 0.01823382
v -0.03158730 0.01033828 0.01823697
v -0.03522485 0.01375867 0.00943853
v -0.03523104 0.01033828 0.00944016
v -0.03646755 0.01375867 0.00000002
v -0.03647390 0.01033827 0.00000002
v -0.03522485 0.01375866 -0.00943850
v -0.03523104 0.01033827 -0.00944013
v -0.03158177 0.01375866 -0.01823380
v -0.03158730 0.01033827 -0.01823695
v -0.02578635 0.01375867 -0.02578649
v -0.02579081 0.01033828 -0.02579095
v -0.03158177 0.01375868 0.01823382
v -0.03304944 0.08710083 0.01908119
v -0.02578635 0.01375868 0.02578652
v -0.02698479 0.08710084 0.02698488
v -0.00943836 0.01375867 -0.03522502
v 0.00000000 0.08710083 -0.03816239
v 0.00000000 0.01375867 -0.03646763
v -0.00987693 0.08710084 -0.03686203
v 0.00000000 0.10017700 -0.04007566
v -0.01037232 0.10017700 -0.03871011
v 0.00895485 0.00955458 -0.03341921
v 0.00944038 0.01033827 -0.03523111
v 0.01823718 0.01033827 -0.03158735
v 0.00000000 0.00955457 -0.03459812
v 0.00000000 0.01033827 -0.03647393
v 0.01729923 0.00955457 -0.02996284
v 0.02579081 0.01033827 -0.02579096
v -0.00895454 0.00955457 -0.03341921
v -0.00944008 0.01033827 -0.03523110
v 0.02446475 0.00955458 -0.02446456
v 0.03158760 0.01033827 -0.01823696
v -0.01729892 0.00955458 -0.02996284
v -0.01823687 0.01033827 -0.03158734
v 0.02996279 0.00955458 -0.01729906
v 0.03523120 0.01033828 -0.00944015
v -0.02446445 0.00955458 -0.02446455
v -0.02579081 0.01033828 -0.02579095
v 0.03341930 0.00955458 -0.00895465
v 0.03647405 0.01033828 -0.00000000
v -0.02996279 0.00955458 -0.01729904
v -0.03158730 0.01033827 -0.01823695
v 0.03459815 0.00955458 -0.00000000
v 0.03523120 0.01033828 0.00944014
v -0.03341914 0.00955458 -0.00895463
v -0.03523104 0.01033827 -0.00944013
v 0.03341930 0.00955459 0.00895465
v 0.03158775 0.01033828 0.01823696
v -0.03459800 0.00955458 0.00000002
v -0.03647390 0.01033827 0.00000002
v 0.02996280 0.00955459 0.01729906
v 0.02579112 0.01033828 0.02579095
v -0.03341914 0.00955459 0.00895467
v -0.03523104 0.01033828 0.00944016
v 0.02446475 0.00955459 0.02446456
v 0.01823718 0.01033828 0.03158734
v -0.02996264 0.00955459 0.01729907
v -0.03158730 0.01033828 0.01823697
v 0.01729923 0.00955459 0.02996284
v 0.00944038 0.01033829 0.03523111
v -0.02446445 0.00955458 0.02446458
v -0.02579081 0.01033829 0.02579098
v 0.00895485 0.00955459 0.03341921
v 0.00000000 0.01033829 0.03647393
v -0.01729892 0.00955459 0.02996285
v -0.01823688 0.01033829 0.03158735
v 0.00000000 0.00955459 0.03459812
v -0.00943993 0.01033829 0.03523111
v -0.00895439 0.00955459 0.03341922
v 0.01711631 0.00571663 0.01711622
v 0.01210294 0.00571664 0.02096300
v -0.00000000 0.00571748 0.00000001
v 0.02096336 0.00571663 0.01210300
v 0.00626505 0.00571664 0.02338119
v 0.02338151 0.00571663 0.00626497
v 0.00000000 0.00571664 0.02420600
v 0.02420617 0.00571663 0.00000000
v -0.00626474 0.00571664 0.02338120
v 0.02338151 0.00571663 -0.00626497
v -0.01210278 0.00571664 0.02096301
v 0.02096336 0.00571663 -0.01210299
v -0.01711601 0.00571663 0.01711624
v 0.01711631 0.00571663 -0.01711622
v -0.02096290 0.00571663 0.01210301
v 0.01210294 0.00571663 -0.02096300
v -0.02338106 0.00571663 0.00626498
v 0.00626505 0.00571663 -0.02338119
v -0.02420587 0.00571663 0.00000001
v 0.00000000 0.00571663 -0.02420599
v -0.02338106 0.00571663 -0.00626496
v -0.00626474 0.00571663 -0.02338119
v -0.02096290 0.00571663 -0.01210298
v -0.01210278 0.00571663 -0.02096299
v -0.01711616 0.00571663 -0.01711621
vn 0.84253670 -0.28947220 0.45424410
vn 0.94247370 -0.33428040 0.00000000
vn 0.84502170 -0.29640450 0.44506480
vn 0.38299050 -0.13282120 0.91415360
vn 0.43112010 -0.08594308 0.89819220
vn 0.87907250 -0.18580030 0.43898700
vn 0.38853820 -0.13297140 0.91178760
vn 0.81070970 -0.38606670 0.44011620
vn 0.45452180 0.09659326 0.88548270
vn 0.88980380 0.15659160 0.42863530
vn 0.39552710 -0.16663390 0.90321180
vn 0.64440430 -0.58913480 0.48750730
vn 0.35667990 0.30952750 0.88146020
vn 0.70480630 0.57293360 0.41832420
vn 0.33278540 -0.25642530 0.90746900
vn 0.43520330 -0.72611180 0.53231540
vn 0.19648270 0.44387160 0.87428400
vn 0.39299350 0.83222350 0.39110120
vn 0.19144730 -0.29713530 0.93544570
vn 0.37688650 -0.77943990 0.50042990
vn 0.18759990 -0.37425360 0.90815230
vn -0.16788760 0.23890650 0.95641910
vn -0.11395930 0.17948450 0.97713800
vn -0.20808210 0.19187640 0.95910640
vn -0.33134960 0.15296360 0.93102620
vn -0.37147800 0.12650160 0.91978340
vn -0.36833400 0.12390730 0.92139950
vn -0.34660390 0.07498526 0.93500960
vn -0.33967390 -0.06268540 0.93845210
vn -0.30293410 -0.24909800 0.91988100
vn -0.19428470 -0.39534460 0.89775060
vn -0.05295037 -0.46855720 0.88184490
vn 0.04223848 0.49791980 0.86619390
vn 0.03109867 -0.51228860 0.85825010
vn -0.02111898 0.47758820 0.87832990
vn 0.03647029 -0.51110270 0.85874560
vn -0.02246203 0.47469360 0.87986440
vn 0.81070970 -0.38606690 -0.44011600
vn 0.39552700 -0.16663420 -0.90321170
vn 0.33278540 -0.25642560 -0.90746890
vn -0.20808210 0.19187610 -0.95910660
vn -0.33134960 0.15296330 -0.93102620
vn 0.38853820 -0.13297170 -0.91178760
vn -0.37147800 0.12650140 -0.91978340
vn 0.38299050 -0.13282140 -0.91415360
vn -0.36833410 0.12390710 -0.92139960
vn 0.43112010 -0.08594339 -0.89819220
vn -0.34660390 0.07498495 -0.93500960
vn 0.45452170 0.09659299 -0.88548280
vn -0.33967390 -0.06268571 -0.93845210
vn 0.35667980 0.30952720 -0.88146040
vn -0.30293420 -0.24909830 -0.91988100
vn 0.19648270 0.44387140 -0.87428410
vn -0.19428470 -0.39534490 -0.89775040
vn 0.04223848 0.49791950 -0.86619410
vn -0.05295036 -0.46855740 -0.88184480
vn -0.02111929 0.47756440 -0.87834290
vn 0.03109867 -0.51228890 -0.85825000
vn -0.08243190 -0.94779920 -0.30802840
vn -0.02246203 0.47469330 -0.87986460
vn 0.03647028 -0.51110300 -0.85874540
vn 0.06293008 -0.95344280 -0.29493500
vn 0.07367215 -0.95135960 -0.29914420
vn 0.06961380 -0.99757400 0.00000016
vn 0.08243171 -0.99659680 0.00000016
vn -0.08652030 -0.99625010 0.00000016
vn 0.64440430 -0.58913490 -0.48750710
vn 0.90223900 -0.43123630 0.00000000
vn 0.72909350 -0.68441410 0.00000011
vn 0.43520330 -0.72611190 -0.53231520
vn 0.50659720 -0.86218290 0.00000014
vn 0.37688650 -0.77944000 -0.50042960
vn 0.42958530 -0.90302630 0.00000015
vn 0.84502170 -0.29640470 -0.44506470
vn 0.94598530 -0.32420960 0.00000000
vn 0.84253670 -0.28947230 -0.45424400
vn 0.97702770 -0.21311250 0.00000000
vn 0.87907250 -0.18580040 -0.43898700
vn 0.98581120 0.16785740 0.00000000
vn 0.77735500 0.62906220 -0.00000010
vn 0.88980380 0.15659150 -0.42863540
vn 0.70480620 0.57293350 -0.41832440
vn 0.18759990 -0.37425390 -0.90815210
vn 0.19144730 -0.29713550 -0.93544550
vn -0.11395930 0.17948410 -0.97713800
vn -0.16788760 0.23890630 -0.95641920
vn -0.42137900 0.62189010 -0.66007000
vn -0.48773710 0.62379410 -0.61073190
vn -0.58251920 0.81281690 -0.00000013
vn -0.63476210 0.77270750 -0.00000013
vn -0.66355640 0.48828260 -0.56680950
vn -0.82163920 0.57000800 0.00000000
vn -0.80898260 0.33055750 -0.48608540
vn -0.92877320 0.37064870 0.00000000
vn -0.83676620 0.27619560 -0.47279830
vn -0.95057340 0.31049970 0.00000000
vn -0.83025550 0.28154330 -0.48105010
vn -0.94736900 0.32014370 0.00000000
vn -0.85268380 0.17386940 -0.49264550
vn -0.97985340 0.19971850 0.00000000
vn -0.85846450 -0.20212640 -0.47136350
vn -0.97306310 -0.23053940 0.00000000
vn -0.67481960 -0.61893820 -0.40191300
vn -0.37938610 -0.85921170 -0.34325110
vn -0.73448050 -0.67862990 0.00000011
vn -0.85846460 -0.20212620 0.47136350
vn -0.42137890 0.62189040 0.66006980
vn -0.48773710 0.62379440 0.61073170
vn -0.66355640 0.48828270 0.56680940
vn -0.80898250 0.33055760 0.48608530
vn -0.83676620 0.27619580 0.47279830
vn -0.83025550 0.28154350 0.48105000
vn -0.85268390 0.17386960 0.49264550
vn -0.67481960 -0.61893810 0.40191320
vn -0.08243190 -0.94779910 0.30802870
vn 0.06293008 -0.95344270 0.29493530
vn 0.07367215 -0.95135960 0.29914450
vn -0.03445579 0.93448780 0.35432390
vn 0.10306260 0.99467480 -0.00000016
vn 0.09702064 0.92836470 0.35878390
vn -0.03103752 0.99951820 -0.00000016
vn -0.03741680 0.93130000 0.36232630
vn 0.09702064 0.92836460 -0.35878430
vn -0.03412065 0.99941770 -0.00000016
vn -0.03448629 0.93448670 -0.35432390
vn -0.03741680 0.93129990 -0.36232660
vn -0.37938620 -0.85921170 0.34325140
vn -0.40282560 -0.91527680 0.00000015
vn 0.42150490 0.90682610 -0.00000015
vn 0.39299350 0.83222330 -0.39110150
vn 0.00000000 -0.04953288 -0.99877240
vn 0.19037870 0.67737320 -0.71057830
vn 0.00000000 0.67737570 -0.73563720
vn 0.25849730 -0.04953276 -0.96474120
vn 0.00000000 -0.05884026 -0.99826740
vn 0.36781630 0.67737160 -0.63708640
vn 0.25837480 -0.05884099 -0.96425120
vn 0.00000000 -0.01175005 -0.99993100
vn 0.25879960 -0.01174990 -0.96585950
vn 0.49938020 -0.04953227 -0.86496580
vn 0.52017260 0.67737800 -0.52017270
vn 0.49914280 -0.05884131 -0.86451970
vn 0.49995820 -0.01174986 -0.86596970
vn 0.96474120 -0.04953256 0.25849730
vn 0.86496590 -0.04953206 0.49938030
vn 0.63708630 0.67737170 0.36781620
vn 0.71057820 0.67737330 0.19037860
vn 0.99877240 -0.04953271 0.00000000
vn 0.73563710 0.67737590 -0.00000011
vn 0.99826740 -0.05884010 0.00000000
vn 0.96474120 -0.04953265 -0.25849730
vn 0.71057810 0.67737330 -0.19037880
vn 0.96425120 -0.05884088 -0.25837470
vn 0.96585950 -0.01174979 -0.25879960
vn 0.86596970 -0.01174980 -0.49995820
vn 0.86451970 -0.05884125 -0.49914280
vn 0.70705800 -0.01174982 -0.70705800
vn 0.86496580 -0.04953221 -0.49938020
vn 0.63708630 0.67737160 -0.36781640
vn 0.70588160 -0.05884141 -0.70588160
vn 0.70623880 -0.04953236 -0.70623880
vn 0.52017260 0.67737800 0.52017250
vn 0.70623880 -0.04953213 0.70623880
vn 0.36781630 0.67737170 0.63708630
vn 0.49938030 -0.04953200 0.86496590
vn 0.19037860 0.67737330 0.71057810
vn 0.25849730 -0.04953244 0.96474120
vn 0.00000000 0.67737600 0.73563690
vn 0.00000000 -0.04953255 0.99877240
vn 0.49914280 -0.05884103 0.86451970
vn 0.70588170 -0.05884118 0.70588170
vn 0.86451970 -0.05884109 0.49914280
vn 0.70705800 -0.01174959 0.70705800
vn 0.49995830 -0.01174958 0.86596970
vn 0.86596970 -0.01174964 0.49995820
vn 0.96585950 -0.01174971 0.25879960
vn 0.96425120 -0.05884080 0.25837480
vn 0.99993100 -0.01174989 0.00000000
vn -0.19037860 0.67737330 0.71057810
vn -0.25849730 -0.04953244 0.96474120
vn -0.36781630 0.67737170 0.63708630
vn -0.49938030 -0.04953200 0.86496590
vn -0.52017260 0.67737800 0.52017250
vn -0.70623880 -0.04953213 0.70623880
vn -0.63708630 0.67737170 0.36781620
vn -0.86496590 -0.04953206 0.49938030
vn -0.71057820 0.67737330 0.19037860
vn -0.96474120 -0.04953256 0.25849730
vn -0.86451970 -0.05884109 0.49914280
vn -0.96425120 -0.05884080 0.25837480
vn -0.70588170 -0.05884118 0.70588170
vn -0.86596970 -0.01174964 0.49995820
vn -0.96585950 -0.01174971 0.25879960
vn -0.70705800 -0.01174959 0.70705800
vn -0.49995830 -0.01174958 0.86596970
vn -0.49914280 -0.05884103 0.86451970
vn -0.25879960 -0.01174959 0.96585950
vn -0.25837480 -0.05884068 0.96425120
vn 0.00000000 -0.01174973 0.99993100
vn 0.00000000 -0.05883994 0.99826740
vn 0.25879960 -0.01174959 0.96585950
vn 0.25837480 -0.05884068 0.96425120
vn -0.73563710 0.67737590 -0.00000011
vn -0.99877240 -0.04953271 0.00000000
vn -0.71057810 0.67737330 -0.19037880
vn -0.99826740 -0.05884010 0.00000000
vn -0.99993100 -0.01174989 0.00000000
vn -0.96474120 -0.04953265 -0.25849730
vn -0.63708630 0.67737160 -0.36781640
vn -0.96425120 -0.05884088 -0.25837470
vn -0.96585950 -0.01174979 -0.25879960
vn -0.86496580 -0.04953221 -0.49938020
vn -0.52017260 0.67737800 -0.52017270
vn -0.86451970 -0.05884125 -0.49914280
vn -0.86596970 -0.01174980 -0.49995820
vn -0.70623880 -0.04953236 -0.70623880
vn -0.36781630 0.67737160 -0.63708640
vn -0.49938020 -0.04953227 -0.86496580
vn -0.70588160 -0.05884141 -0.70588160
vn -0.70705800 -0.01174982 -0.70705800
vn -0.49914280 -0.05884131 -0.86451970
vn -0.49995820 -0.01174986 -0.86596970
vn -0.19037870 0.67737320 -0.71057830
vn -0.25849730 -0.04953276 -0.96474120
vn 0.00000000 0.67737570 -0.73563720
vn 0.00000000 -0.04953288 -0.99877240
vn -0.25837480 -0.05884099 -0.96425120
vn 0.00000000 -0.05884026 -0.99826740
vn -0.25879960 -0.01174990 -0.96585950
vn 0.00000000 -0.01175005 -0.99993100
vn 0.00000000 0.07501621 0.99718240
vn 0.00000000 0.73905150 0.67364880
vn -0.17432580 0.73905350 0.65070000
vn -0.25806850 0.07501584 0.96320990
vn 0.00000000 0.08447764 0.99642530
vn -0.25788490 0.08447657 0.96247550
vn 0.00000000 0.01153645 0.99993350
vn -0.49858480 0.07501521 0.86358900
vn -0.25880020 0.01153630 0.96586200
vn -0.49819940 0.08447796 0.86293730
vn -0.49995960 0.01153626 0.86597200
vn -0.70511440 0.07501618 0.70511440
vn -0.70457910 0.08447879 0.70457910
vn -0.33680960 0.73905250 0.58340440
vn -0.47634230 0.73905090 0.47634220
vn -0.58340450 0.73905240 0.33680950
vn -0.86358900 0.07501516 0.49858480
vn -0.65070030 0.73905330 0.17432570
vn -0.96320990 0.07501572 0.25806850
vn -0.67364900 0.73905150 -0.00000012
vn -0.86293730 0.08447789 0.49819940
vn -0.99718240 0.07501604 0.00000000
vn -0.65070020 0.73905320 -0.17432590
vn -0.96247550 0.08447645 0.25788490
vn -0.96320990 0.07501562 -0.25806860
vn -0.58340450 0.73905230 -0.33680980
vn -0.99642530 0.08447748 0.00000000
vn -0.86358900 0.07501499 -0.49858480
vn -0.47634230 0.73905070 -0.47634240
vn -0.70511440 0.07501595 -0.70511440
vn -0.96247550 0.08447635 -0.25788500
vn -0.86293730 0.08447774 -0.49819940
vn -0.70457910 0.08447857 -0.70457910
vn -0.86597200 0.01153604 -0.49995960
vn -0.70705970 0.01153600 -0.70705970
vn -0.96586200 0.01153610 -0.25880020
vn -0.99993350 0.01153629 0.00000000
vn -0.96586200 0.01153619 0.25880020
vn -0.86597200 0.01153620 0.49995960
vn -0.70705970 0.01153622 0.70705970
vn -0.33680960 0.73905230 -0.58340470
vn -0.49858480 0.07501493 -0.86358900
vn -0.17432580 0.73905320 -0.65070020
vn -0.49819940 0.08447768 -0.86293730
vn -0.49995960 0.01153598 -0.86597200
vn -0.25806850 0.07501552 -0.96320990
vn 0.00000000 0.73905130 -0.67364910
vn -0.25788490 0.08447623 -0.96247550
vn -0.25880020 0.01153599 -0.96586200
vn 0.00000000 0.07501589 -0.99718240
vn 0.17432580 0.73905320 -0.65070020
vn 0.00000000 0.08447733 -0.99642530
vn 0.00000000 0.01153612 -0.99993350
vn 0.25806850 0.07501552 -0.96320990
vn 0.33680960 0.73905230 -0.58340470
vn 0.25788490 0.08447623 -0.96247550
vn 0.25880020 0.01153599 -0.96586200
vn 0.49858480 0.07501493 -0.86358900
vn 0.47634230 0.73905070 -0.47634240
vn 0.49819940 0.08447768 -0.86293730
vn 0.49995960 0.01153598 -0.86597200
vn 0.70511440 0.07501595 -0.70511440
vn 0.58340450 0.73905230 -0.33680980
vn 0.86358900 0.07501499 -0.49858480
vn 0.65070020 0.73905320 -0.17432590
vn 0.96320990 0.07501562 -0.25806860
vn 0.67364900 0.73905150 -0.00000012
vn 0.99718240 0.07501604 0.00000000
vn 0.96247550 0.08447635 -0.25788500
vn 0.65070030 0.73905330 0.17432570
vn 0.99642530 0.08447748 0.00000000
vn 0.96320990 0.07501572 0.25806850
vn 0.58340450 0.73905240 0.33680950
vn 0.86358900 0.07501516 0.49858480
vn 0.47634230 0.73905090 0.47634220
vn 0.96247550 0.08447645 0.25788490
vn 0.70511440 0.07501618 0.70511440
vn 0.33680960 0.73905250 0.58340440
vn 0.99993350 0.01153629 0.00000000
vn 0.96586200 0.01153610 -0.25880020
vn 0.96586200 0.01153619 0.25880020
vn 0.86293730 0.08447789 0.49819940
vn 0.86597200 0.01153620 0.49995960
vn 0.70457910 0.08447879 0.70457910
vn 0.70705970 0.01153622 0.70705970
vn 0.49858480 0.07501521 0.86358900
vn 0.17435540 0.73904950 0.65069650
vn 0.49819940 0.08447796 0.86293730
vn 0.49995960 0.01153626 0.86597200
vn 0.00000000 0.73905150 0.67364880
vn -0.21909720 0.53222420 0.81776150
vn -0.49995960 0.01153626 0.86597200
vn -0.42330680 0.53223120 0.73317210
vn -0.25880020 0.01153630 0.96586200
vn 0.00000000 0.53222480 0.84660320
vn 0.00000000 0.01153645 0.99993350
vn 0.21909720 0.53222420 0.81776150
vn 0.25880020 0.01153630 0.96586200
vn 0.42330680 0.53223120 0.73317210
vn 0.49995960 0.01153626 0.86597200
vn -0.70705970 0.01153622 0.70705970
vn -0.59863770 0.53222750 0.59863750
vn -0.86597200 0.01153620 0.49995960
vn -0.73317210 0.53223120 0.42330660
vn -0.96586200 0.01153619 0.25880020
vn -0.81776150 0.53222410 0.21909720
vn -0.99993350 0.01153629 0.00000000
vn -0.84660320 0.53222470 0.00000000
vn -0.96586200 0.01153610 -0.25880020
vn -0.81776150 0.53222390 -0.21909730
vn -0.86597200 0.01153604 -0.49995960
vn -0.73317220 0.53223100 -0.42330680
vn -0.70705970 0.01153600 -0.70705970
vn -0.59863770 0.53222730 -0.59863770
vn -0.49995960 0.01153598 -0.86597200
vn -0.42330680 0.53223100 -0.73317220
vn -0.25880020 0.01153599 -0.96586200
vn -0.21909730 0.53222390 -0.81776170
vn 0.00000000 0.01153612 -0.99993350
vn 0.00000000 0.53222450 -0.84660320
vn 0.25880020 0.01153599 -0.96586200
vn 0.21909730 0.53222390 -0.81776170
vn 0.49995960 0.01153598 -0.86597200
vn 0.42330680 0.53223100 -0.73317220
vn 0.70705970 0.01153600 -0.70705970
vn 0.59863770 0.53222730 -0.59863770
vn 0.86597200 0.01153604 -0.49995960
vn 0.73317220 0.53223100 -0.42330680
vn 0.96586200 0.01153610 -0.25880020
vn 0.81776150 0.53222390 -0.21909730
vn 0.99993350 0.01153629 0.00000000
vn 0.84660320 0.53222470 0.00000000
vn 0.96586200 0.01153619 0.25880020
vn 0.81776150 0.53222410 0.21909720
vn 0.86597200 0.01153620 0.49995960
vn 0.73317210 0.53223120 0.42330660
vn 0.70705970 0.01153622 0.70705970
vn 0.59863770 0.53222750 0.59863750
vn 0.86597200 0.01153604 -0.49995960
vn 0.86293730 0.08447774 -0.49819940
vn 0.70705970 0.01153600 -0.70705970
vn 0.70457910 0.08447857 -0.70457910
vn 0.25880020 0.01153630 0.96586200
vn 0.00000000 0.08447764 0.99642530
vn 0.00000000 0.01153645 0.99993350
vn 0.25788490 0.08447657 0.96247550
vn 0.00000000 0.07501621 0.99718240
vn 0.25806850 0.07501584 0.96320990
vn -0.09570698 0.92911460 0.35719200
vn -0.21909720 0.53222420 0.81776150
vn -0.42330680 0.53223120 0.73317210
vn 0.00000000 0.92911310 0.36979570
vn 0.00000000 0.53222480 0.84660320
vn -0.18488250 0.92911240 0.32026340
vn -0.59863770 0.53222750 0.59863750
vn 0.09570698 0.92911460 0.35719200
vn 0.21909720 0.53222420 0.81776150
vn -0.26148480 0.92911330 0.26148460
vn -0.73317210 0.53223120 0.42330660
vn 0.18488250 0.92911240 0.32026340
vn 0.42330680 0.53223120 0.73317210
vn -0.32026360 0.92911240 0.18488240
vn -0.81776150 0.53222410 0.21909720
vn 0.26148480 0.92911330 0.26148460
vn 0.59863770 0.53222750 0.59863750
vn -0.35719220 0.92911460 0.09570685
vn -0.84660320 0.53222470 0.00000000
vn 0.32026360 0.92911240 0.18488240
vn 0.73317210 0.53223120 0.42330660
vn -0.36979580 0.92911310 -0.00000015
vn -0.81776150 0.53222390 -0.21909730
vn 0.35719220 0.92911460 0.09570685
vn 0.81776150 0.53222410 0.21909720
vn -0.35719220 0.92911460 -0.09570713
vn -0.73317220 0.53223100 -0.42330680
vn 0.36979580 0.92911310 -0.00000015
vn 0.84660320 0.53222470 0.00000000
vn -0.32026350 0.92911230 -0.18488270
vn -0.59863770 0.53222730 -0.59863770
vn 0.35719220 0.92911460 -0.09570713
vn 0.81776150 0.53222390 -0.21909730
vn -0.26148480 0.92911320 -0.26148490
vn -0.42330680 0.53223100 -0.73317220
vn 0.32026350 0.92911230 -0.18488270
vn 0.73317220 0.53223100 -0.42330680
vn -0.18488250 0.92911230 -0.32026370
vn -0.21909730 0.53222390 -0.81776170
vn 0.26148480 0.92911320 -0.26148490
vn 0.59863770 0.53222730 -0.59863770
vn -0.09570700 0.92911450 -0.35719230
vn 0.00000000 0.53222450 -0.84660320
vn 0.18488250 0.92911230 -0.32026370
vn 0.42330680 0.53223100 -0.73317220
vn 0.00000000 0.92911300 -0.36979590
vn 0.21909730 0.53222390 -0.81776170
vn 0.09570700 0.92911450 -0.35719230
vn -0.13440610 0.98176870 -0.13440620
vn -0.09503686 0.98177280 -0.16459030
vn 0.00000000 1.00000000 -0.00000016
vn -0.16459020 0.98177280 -0.09503701
vn -0.04919676 0.98176860 -0.18360300
vn -0.18360280 0.98176860 -0.04919693
vn 0.00000000 0.98176990 -0.19007330
vn -0.19007310 0.98177000 -0.00000016
vn 0.04919676 0.98176860 -0.18360300
vn -0.18360280 0.98176860 0.04919661
vn 0.09503686 0.98177280 -0.16459030
vn -0.16459020 0.98177300 0.09503672
vn 0.13440610 0.98176870 -0.13440620
vn -0.13440610 0.98176880 0.13440590
vn 0.16459020 0.98177280 -0.09503701
vn -0.09503686 0.98177300 0.16459000
vn 0.18360280 0.98176860 -0.04919693
vn -0.04919677 0.98176860 0.18360270
vn 0.19007310 0.98177000 -0.00000016
vn 0.00000000 0.98177000 0.19007300
vn 0.18360310 0.98177010 0.04916616
vn 0.04919677 0.98176860 0.18360270
vn 0.16459020 0.98177300 0.09503672
vn 0.09503686 0.98177300 0.16459000
vn 0.13440610 0.98176880 0.13440590
vt 0.74946120 2.73141200
vt 0.75785340 2.63605900
vt 0.74869250 2.64067900
vt 0.74392820 2.74003600
vt 0.74464180 2.79719400
vt 0.74989660 2.79272200
vt 0.74269530 2.65303900
vt 0.74771400 2.55139600
vt 0.74471000 2.83802200
vt 0.74996210 2.83799000
vt 0.74112650 2.56581400
vt 0.74635760 2.48958600
vt 0.74407800 2.87374400
vt 0.74955290 2.87926900
vt 0.73906730 2.50679600
vt 0.74533990 2.47296200
vt 0.74277670 2.89738500
vt 0.74870010 2.90586700
vt 0.73755860 2.49177700
vt 0.74436380 2.46398000
vt 0.73612900 2.48312800
vt 0.73739620 2.51736100
vt 0.73612900 2.50873700
vt 0.73875500 2.53155600
vt 0.74068060 2.58854600
vt 0.74224140 2.67115400
vt 0.74341920 2.75170800
vt 0.74411990 2.80351600
vt 0.74417750 2.83887900
vt 0.74358480 2.86847800
vt 0.74237020 2.88847800
vt 0.74049970 2.89762600
vt 0.74074070 2.90766100
vt 0.73842170 2.89610600
vt 0.73844790 2.90615800
vt 0.73776610 2.89555600
vt 0.73770830 2.90567900
vt 0.76799570 2.55139600
vt 0.77458040 2.56581400
vt 0.77663980 2.50679600
vt 0.77695190 2.53155600
vt 0.77502640 2.58854600
vt 0.77301140 2.65304000
vt 0.77346540 2.67115400
vt 0.77178110 2.74003600
vt 0.77228750 2.75170800
vt 0.77106760 2.79719400
vt 0.77158980 2.80351600
vt 0.77099670 2.83802200
vt 0.77152930 2.83887900
vt 0.77163150 2.87374400
vt 0.77212490 2.86847800
vt 0.77293040 2.89738500
vt 0.77333690 2.88847800
vt 0.77496860 2.90766100
vt 0.77521000 2.89762600
vt 0.77725880 2.90615800
vt 0.77728510 2.89610600
vt 0.76873550 2.89028100
vt 0.77799860 2.90567900
vt 0.77794370 2.89555600
vt 0.76991330 2.88870600
vt 0.77028040 2.88807800
vt 0.75785340 2.88632400
vt 0.75785340 2.88569900
vt 0.75785340 2.88792000
vt 0.76935180 2.48958600
vt 0.75785340 2.54755400
vt 0.75785340 2.48343100
vt 0.77036710 2.47296300
vt 0.75785340 2.46653700
vt 0.77134570 2.46398000
vt 0.75785340 2.45762300
vt 0.76701690 2.64067900
vt 0.75785340 2.72777200
vt 0.76624560 2.73141200
vt 0.75785340 2.79015100
vt 0.76581020 2.79272200
vt 0.75785340 2.83807000
vt 0.75785340 2.88164200
vt 0.76574720 2.83799000
vt 0.76615380 2.87926900
vt 0.77957790 2.48312800
vt 0.77814820 2.49177600
vt 0.77957790 2.50873700
vt 0.77831090 2.51736100
vt 0.77134310 2.53103700
vt 0.77062690 2.54020000
vt 0.75785340 2.54090700
vt 0.75785340 2.55011900
vt 0.76985040 2.55440700
vt 0.75785340 2.56413600
vt 0.76871420 2.60947800
vt 0.75785340 2.61769400
vt 0.76775940 2.68825300
vt 0.75785340 2.69421300
vt 0.76707470 2.76247000
vt 0.75785340 2.76618200
vt 0.76665520 2.80897200
vt 0.75785340 2.81121000
vt 0.76661310 2.84037300
vt 0.75785340 2.84104100
vt 0.76695930 2.86524000
vt 0.76765700 2.88255600
vt 0.75785340 2.86424900
vt 0.74909650 2.84037300
vt 0.74436650 2.53103700
vt 0.74508000 2.54020000
vt 0.74585660 2.55440700
vt 0.74699250 2.60947800
vt 0.74795010 2.68825300
vt 0.74863200 2.76247200
vt 0.74905200 2.80897200
vt 0.74874760 2.86524200
vt 0.74697160 2.89028100
vt 0.74579340 2.88870600
vt 0.74542620 2.88807800
vt 0.74583830 2.91508600
vt 0.75785340 2.91934000
vt 0.74736760 2.91657200
vt 0.75785340 2.91863400
vt 0.74533450 2.91460400
vt 0.76833940 2.91657200
vt 0.75785340 2.91838000
vt 0.76987120 2.91508600
vt 0.77037230 2.91460400
vt 0.74805220 2.88255600
vt 0.75785340 2.88051100
vt 0.75785340 2.90935200
vt 0.76700920 2.90586700
vt 0.99875060 2.98367300
vt 0.95719800 2.99593500
vt 0.99875060 2.99593500
vt 0.95719810 2.98367300
vt 0.99875060 2.86346600
vt 0.91564570 2.99593500
vt 0.95719760 2.86346600
vt 0.99875060 2.52859400
vt 0.95719760 2.52859400
vt 0.91564560 2.98367300
vt 0.87409380 2.99593500
vt 0.91564580 2.86346600
vt 0.91564560 2.52859400
vt 0.70788540 2.98367300
vt 0.66633340 2.98367300
vt 0.66633310 2.99593500
vt 0.70788560 2.99593500
vt 0.74943760 2.98367300
vt 0.74943760 2.99593500
vt 0.74943760 2.86346600
vt 0.79098960 2.98367300
vt 0.79098950 2.99593500
vt 0.79098950 2.86346600
vt 0.79098960 2.52859400
vt 0.83254160 2.52859400
vt 0.83254160 2.86346600
vt 0.87409390 2.52859400
vt 0.83254160 2.98367300
vt 0.83254190 2.99593500
vt 0.87409400 2.86346600
vt 0.87409350 2.98367300
vt 0.62478140 2.99593500
vt 0.62478160 2.98367300
vt 0.58322930 2.99593500
vt 0.58322930 2.98367300
vt 0.54167700 2.99593500
vt 0.54167730 2.98367300
vt 0.50012440 2.99593500
vt 0.50012440 2.98367300
vt 0.58322910 2.86346600
vt 0.62478090 2.86346600
vt 0.66633340 2.86346600
vt 0.62478110 2.52859400
vt 0.58322920 2.52859400
vt 0.66633340 2.52859400
vt 0.70788540 2.52859400
vt 0.70788560 2.86346600
vt 0.74943750 2.52859400
vt 0.45857280 2.99593500
vt 0.45857300 2.98367300
vt 0.41702060 2.99593500
vt 0.41702090 2.98367300
vt 0.37546830 2.99593500
vt 0.37546840 2.98367300
vt 0.33391580 2.99593500
vt 0.33391590 2.98367300
vt 0.29236370 2.99593500
vt 0.29236360 2.98367300
vt 0.33391610 2.86346600
vt 0.29236380 2.86346600
vt 0.37546830 2.86346600
vt 0.33391610 2.52859400
vt 0.29236360 2.52859400
vt 0.37546820 2.52859400
vt 0.41702070 2.52859400
vt 0.41702080 2.86346600
vt 0.45857330 2.52859400
vt 0.45857260 2.86346600
vt 0.50012440 2.52859400
vt 0.50012440 2.86346600
vt 0.54167720 2.52859400
vt 0.54167730 2.86346600
vt 0.25081130 2.99593500
vt 0.25081130 2.98367300
vt 0.20925900 2.99593500
vt 0.25081140 2.86346600
vt 0.25081140 2.52859400
vt 0.20925910 2.98367300
vt 0.16770690 2.99593500
vt 0.20925890 2.86346600
vt 0.20925920 2.52859400
vt 0.16770700 2.98367300
vt 0.12615440 2.99593500
vt 0.16770670 2.86346600
vt 0.16770670 2.52859400
vt 0.12615460 2.98367300
vt 0.08460212 2.99593500
vt 0.08460224 2.98367300
vt 0.12615440 2.86346600
vt 0.12615460 2.52859400
vt 0.08460191 2.86346600
vt 0.08460259 2.52859400
vt 0.04304981 2.99593500
vt 0.04305011 2.98367300
vt 0.00149822 2.99593500
vt 0.00149822 2.98367300
vt 0.04305008 2.86346600
vt 0.00149822 2.86346600
vt 0.04304996 2.52859400
vt 0.00149822 2.52859400
vt 0.99875060 2.98367500
vt 0.99875060 2.99590400
vt 0.95719750 2.99590400
vt 0.95719720 2.98367600
vt 0.99875060 2.92411500
vt 0.95719800 2.92411500
vt 0.99875060 2.56460100
vt 0.91564660 2.98367500
vt 0.95719750 2.56460100
vt 0.91564550 2.92411500
vt 0.91564550 2.56460100
vt 0.87409340 2.98367500
vt 0.87409400 2.92411500
vt 0.91564540 2.99590400
vt 0.87409390 2.99590400
vt 0.83254150 2.99590400
vt 0.83254160 2.98367500
vt 0.79098990 2.99590400
vt 0.79098960 2.98367600
vt 0.74943760 2.99590400
vt 0.83254160 2.92411500
vt 0.74943760 2.98367600
vt 0.70788520 2.99590400
vt 0.79098950 2.92411500
vt 0.70788540 2.98367600
vt 0.66633360 2.99590400
vt 0.74943760 2.92411500
vt 0.66633340 2.98367600
vt 0.62478140 2.99590400
vt 0.62478170 2.98367600
vt 0.70788560 2.92411500
vt 0.66633340 2.92411500
vt 0.62478090 2.92411500
vt 0.66633390 2.56460100
vt 0.62478150 2.56460100
vt 0.70788530 2.56460100
vt 0.74943750 2.56460000
vt 0.79098960 2.56460000
vt 0.83254110 2.56460100
vt 0.87409450 2.56460100
vt 0.58322970 2.99590400
vt 0.58322860 2.98367500
vt 0.54167740 2.99590400
vt 0.58322950 2.92411500
vt 0.58322950 2.56460100
vt 0.54167770 2.98367600
vt 0.50012440 2.99590400
vt 0.54167700 2.92411500
vt 0.54167730 2.56460000
vt 0.50012440 2.98367600
vt 0.45857260 2.99590400
vt 0.50012440 2.92411500
vt 0.50012440 2.56460000
vt 0.45857290 2.98367600
vt 0.41702080 2.99590400
vt 0.45857300 2.92411500
vt 0.45857340 2.56460100
vt 0.41702030 2.98367600
vt 0.37546840 2.99590400
vt 0.41702040 2.92411500
vt 0.41702060 2.56460100
vt 0.37546840 2.98367600
vt 0.33391610 2.99590400
vt 0.33391600 2.98367600
vt 0.29236360 2.99590400
vt 0.29236370 2.98367500
vt 0.25081130 2.99590400
vt 0.25081130 2.98367600
vt 0.29236360 2.92411500
vt 0.20925910 2.99590400
vt 0.25081130 2.92411500
vt 0.20925890 2.98367500
vt 0.16770690 2.99590400
vt 0.16770670 2.98367500
vt 0.12615470 2.99590400
vt 0.20925920 2.92411500
vt 0.12615430 2.98367500
vt 0.08460236 2.99590400
vt 0.25081140 2.56460100
vt 0.29236370 2.56460100
vt 0.20925910 2.56460000
vt 0.16770680 2.92411500
vt 0.16770680 2.56460100
vt 0.12615440 2.92411500
vt 0.12615440 2.56460100
vt 0.08460236 2.98367600
vt 0.04305011 2.99590400
vt 0.08460221 2.92411500
vt 0.08460218 2.56460100
vt 0.00149822 2.99590400
vt 0.00000000 0.00000000
vt 0.00000000 0.00000000
vt 0.00000000 0.00000000
vt 0.00000000 0.00000000
vt 0.00000000 0.00000000
vt 0.00000000 0.00000000
vt 0.00000000 0.00000000
vt 0.00000000 0.00000000
vt 0.00000000 0.00000000
vt 0.00000000 0.00000000
vt 0.00000000 0.00000000
vt 0.00000000 0.00000000
vt 0.00000000 0.00000000
vt 0.00000000 0.00000000
vt 0.00000000 0.00000000
vt 0.00000000 0.00000000
vt 0.00000000 0.00000000
vt 0.00000000 0.00000000
vt 0.00000000 0.00000000
vt 0.00000000 0.00000000
vt 0.00000000 0.00000000
vt 0.00000000 0.00000000
vt 0.00000000 0.00000000
vt 0.00000000 0.00000000
vt 0.00000000 0.00000000
vt 0.00000000 0.00000000
vt 0.00000000 0.00000000
vt 0.00000000 0.00000000
vt 0.00000000 0.00000000
vt 0.00000000 0.00000000
vt 0.00000000 0.00000000
vt 0.00000000 0.00000000
vt 0.00000000 0.00000000
vt 0.00000000 0.00000000
vt 0.00000000 0.00000000
vt 0.00000000 0.00000000
vt 0.00000000 0.00000000
vt 0.00000000 0.00000000
vt 0.00000000 0.00000000
vt 0.00000000 0.00000000
vt 0.00000000 0.00000000
vt 0.00000000 0.00000000
vt 0.00000000 0.00000000
vt 0.00000000 0.00000000
vt 0.00000000 0.00000000
vt 0.00000000 0.00000000
vt 0.00000000 0.00000000
vt 0.00000000 0.00000000
vt 0.33391600 2.56460100
vt 0.33391590 2.92411500
vt 0.37546840 2.56460100
vt 0.37546840 2.92411500
vt 0.04304993 2.56460100
vt 0.00149822 2.92411500
vt 0.00149822 2.56460100
vt 0.04304972 2.92411500
vt 0.00149822 2.98367500
vt 0.04305035 2.98367500
vt 0.29183760 2.44439100
vt 0.29475260 2.45527100
vt 0.34709670 2.43358900
vt 0.23857890 2.45140200
vt 0.23857890 2.46266600
vt 0.34146450 2.42383400
vt 0.39204420 2.39909800
vt 0.18532210 2.44439100
vt 0.18240710 2.45527100
vt 0.38408080 2.39113300
vt 0.42653760 2.35414900
vt 0.13569490 2.42383400
vt 0.13006270 2.43358900
vt 0.41678040 2.34851700
vt 0.44821770 2.30180500
vt 0.09307860 2.39113300
vt 0.08511375 2.39909800
vt 0.43733780 2.29888900
vt 0.45561290 2.24563200
vt 0.06037733 2.34851700
vt 0.05062306 2.35414900
vt 0.44434850 2.24563200
vt 0.44821770 2.18946000
vt 0.03982092 2.29888900
vt 0.02894107 2.30180500
vt 0.43733780 2.19237500
vt 0.42653760 2.13711500
vt 0.03281018 2.24563200
vt 0.02154568 2.24563200
vt 0.41678040 2.14274700
vt 0.39204580 2.09216600
vt 0.03982092 2.19237500
vt 0.02894107 2.18946000
vt 0.38408080 2.10013100
vt 0.34709670 2.05767500
vt 0.06037811 2.14274700
vt 0.05062306 2.13711500
vt 0.34146450 2.06743000
vt 0.29475260 2.03599400
vt 0.09307860 2.10013100
vt 0.08511375 2.09216600
vt 0.29183760 2.04687400
vt 0.23857890 2.02859800
vt 0.13569490 2.06743000
vt 0.13006270 2.05767500
vt 0.23857890 2.03986200
vt 0.18240800 2.03599400
vt 0.18532300 2.04687400
vt 0.34035270 2.14385900
vt 0.31054370 2.12098600
vt 0.23857890 2.24563200
vt 0.36322710 2.17366700
vt 0.27583130 2.10660700
vt 0.37760600 2.20838000
vt 0.23857890 2.10170300
vt 0.38250920 2.24563200
vt 0.20132810 2.10660700
vt 0.37760600 2.28288400
vt 0.16661500 2.12098600
vt 0.36322710 2.31759700
vt 0.13680690 2.14385900
vt 0.34035270 2.34740500
vt 0.11393330 2.17366700
vt 0.31054370 2.37027900
vt 0.09955429 2.20838000
vt 0.27583130 2.38465700
vt 0.09465034 2.24563200
vt 0.23857890 2.38956100
vt 0.09955429 2.28288400
vt 0.20132810 2.38465700
vt 0.11393330 2.31759700
vt 0.16661500 2.37027900
vt 0.13680590 2.34740500
f 3/3/3 2/2/2 1/1/1
f 3/3/3 1/1/1 4/4/4
f 4/4/4 1/1/1 5/5/5
f 1/1/1 6/6/6 5/5/5
f 7/7/7 3/3/3 4/4/4
f 8/8/8 3/3/3 7/7/7
f 5/5/5 6/6/6 9/9/9
f 6/6/6 10/10/10 9/9/9
f 11/11/11 8/8/8 7/7/7
f 12/12/12 8/8/8 11/11/11
f 9/9/9 10/10/10 13/13/13
f 10/10/10 14/14/14 13/13/13
f 15/15/15 12/12/12 11/11/11
f 16/16/16 12/12/12 15/15/15
f 13/13/13 14/14/14 17/17/17
f 14/14/14 18/18/18 17/17/17
f 19/19/19 16/16/16 15/15/15
f 20/20/20 16/16/16 19/19/19
f 21/21/21 20/20/20 19/19/19
f 21/21/21 19/19/19 22/22/22
f 23/23/23 21/21/21 22/22/22
f 22/22/22 19/19/19 24/24/24
f 19/19/19 15/15/15 24/24/24
f 24/24/24 15/15/15 25/25/25
f 15/15/15 11/11/11 25/25/25
f 25/25/25 11/11/11 26/26/26
f 11/11/11 7/7/7 26/26/26
f 26/26/26 7/7/7 27/27/27
f 7/7/7 4/4/4 27/27/27
f 27/27/27 4/4/4 28/28/28
f 4/4/4 5/5/5 28/28/28
f 28/28/28 5/5/5 29/29/29
f 5/5/5 9/9/9 29/29/29
f 29/29/29 9/9/9 30/30/30
f 9/9/9 13/13/13 30/30/30
f 30/30/30 13/13/13 31/31/31
f 13/13/13 17/17/17 31/31/31
f 31/31/31 17/17/17 32/32/32
f 17/17/17 33/33/33 32/32/32
f 32/32/32 33/33/33 34/34/34
f 33/33/33 35/35/35 34/34/34
f 34/34/34 35/35/35 36/36/36
f 35/35/35 37/37/37 36/36/36
f 40/40/40 39/39/39 38/38/38
f 40/40/40 41/41/41 39/39/39
f 41/41/41 42/42/42 39/39/39
f 39/39/39 42/42/42 43/43/43
f 42/42/42 44/44/44 43/43/43
f 43/43/43 44/44/44 45/45/45
f 44/44/44 46/46/46 45/45/45
f 45/45/45 46/46/46 47/47/47
f 46/46/46 48/48/48 47/47/47
f 47/47/47 48/48/48 49/49/49
f 48/48/48 50/50/50 49/49/49
f 49/49/49 50/50/50 51/51/51
f 50/50/50 52/52/52 51/51/51
f 51/51/51 52/52/52 53/53/53
f 52/52/52 54/54/54 53/53/53
f 53/53/53 54/54/54 55/55/55
f 54/54/54 56/56/56 55/55/55
f 55/55/55 56/56/56 57/57/57
f 56/56/56 58/58/58 57/57/57
f 56/56/56 59/59/59 58/58/58
f 57/57/57 58/58/58 60/60/60
f 58/58/58 61/61/61 60/60/60
f 58/58/58 62/62/62 61/61/61
f 62/62/62 63/63/63 61/61/61
f 62/62/62 64/64/64 63/63/63
f 64/64/64 65/65/65 63/63/63
f 66/66/66 64/64/64 62/62/62
f 67/67/67 40/40/40 38/38/38
f 67/67/67 38/38/38 68/68/68
f 69/69/69 67/67/67 68/68/68
f 70/70/70 67/67/67 69/69/69
f 71/71/71 70/70/70 69/69/69
f 72/72/72 70/70/70 71/71/71
f 73/73/73 72/72/72 71/71/71
f 73/73/73 71/71/71 16/16/16
f 20/20/20 73/73/73 16/16/16
f 16/16/16 71/71/71 12/12/12
f 71/71/71 69/69/69 12/12/12
f 12/12/12 69/69/69 8/8/8
f 69/69/69 68/68/68 8/8/8
f 8/8/8 68/68/68 3/3/3
f 68/68/68 2/2/2 3/3/3
f 68/68/68 38/38/38 2/2/2
f 38/38/38 74/74/74 2/2/2
f 38/38/38 39/39/39 74/74/74
f 39/39/39 43/43/43 74/74/74
f 2/2/2 74/74/74 75/75/75
f 2/2/2 75/75/75 1/1/1
f 74/74/74 43/43/43 76/76/76
f 74/74/74 76/76/76 75/75/75
f 43/43/43 45/45/45 76/76/76
f 1/1/1 75/75/75 77/77/77
f 75/75/75 76/76/76 77/77/77
f 6/6/6 1/1/1 77/77/77
f 6/6/6 77/77/77 10/10/10
f 76/76/76 45/45/45 78/78/78
f 76/76/76 78/78/78 77/77/77
f 45/45/45 47/47/47 78/78/78
f 77/77/77 79/79/79 10/10/10
f 77/77/77 78/78/78 79/79/79
f 10/10/10 79/79/79 14/14/14
f 79/79/79 80/80/80 14/14/14
f 78/78/78 47/47/47 81/81/81
f 78/78/78 81/81/81 79/79/79
f 79/79/79 81/81/81 80/80/80
f 47/47/47 49/49/49 81/81/81
f 81/81/81 82/82/82 80/80/80
f 81/81/81 49/49/49 82/82/82
f 49/49/49 51/51/51 82/82/82
f 72/72/72 83/83/83 70/70/70
f 83/83/83 84/84/84 70/70/70
f 70/70/70 84/84/84 67/67/67
f 83/83/83 85/85/85 84/84/84
f 84/84/84 40/40/40 67/67/67
f 85/85/85 86/86/86 84/84/84
f 84/84/84 86/86/86 40/40/40
f 86/86/86 41/41/41 40/40/40
f 85/85/85 87/87/87 86/86/86
f 87/87/87 88/88/88 86/86/86
f 87/87/87 89/89/89 88/88/88
f 86/86/86 88/88/88 41/41/41
f 89/89/89 90/90/90 88/88/88
f 88/88/88 91/91/91 41/41/41
f 88/88/88 90/90/90 91/91/91
f 41/41/41 91/91/91 42/42/42
f 90/90/90 92/92/92 91/91/91
f 91/91/91 93/93/93 42/42/42
f 91/91/91 92/92/92 93/93/93
f 42/42/42 93/93/93 44/44/44
f 92/92/92 94/94/94 93/93/93
f 93/93/93 95/95/95 44/44/44
f 93/93/93 94/94/94 95/95/95
f 44/44/44 95/95/95 46/46/46
f 94/94/94 96/96/96 95/95/95
f 95/95/95 97/97/97 46/46/46
f 95/95/95 96/96/96 97/97/97
f 46/46/46 97/97/97 48/48/48
f 96/96/96 98/98/98 97/97/97
f 97/97/97 99/99/99 48/48/48
f 97/97/97 98/98/98 99/99/99
f 48/48/48 99/99/99 50/50/50
f 98/98/98 100/100/100 99/99/99
f 99/99/99 101/101/101 50/50/50
f 99/99/99 100/100/100 101/101/101
f 50/50/50 101/101/101 52/52/52
f 100/100/100 102/102/102 101/101/101
f 101/101/101 103/103/103 52/52/52
f 101/101/101 102/102/102 103/103/103
f 52/52/52 103/103/103 54/54/54
f 103/103/103 104/104/104 54/54/54
f 103/103/103 105/105/105 104/104/104
f 102/102/102 105/105/105 103/103/103
f 102/102/102 106/106/106 105/105/105
f 89/89/89 107/107/107 90/90/90
f 107/107/107 108/108/108 90/90/90
f 107/107/107 23/23/23 108/108/108
f 90/90/90 108/108/108 92/92/92
f 23/23/23 22/22/22 108/108/108
f 108/108/108 109/109/109 92/92/92
f 108/108/108 22/22/22 109/109/109
f 92/92/92 109/109/109 94/94/94
f 22/22/22 24/24/24 109/109/109
f 109/109/109 110/110/110 94/94/94
f 109/109/109 24/24/24 110/110/110
f 94/94/94 110/110/110 96/96/96
f 24/24/24 25/25/25 110/110/110
f 110/110/110 111/111/111 96/96/96
f 110/110/110 25/25/25 111/111/111
f 96/96/96 111/111/111 98/98/98
f 25/25/25 26/26/26 111/111/111
f 111/111/111 112/112/112 98/98/98
f 111/111/111 26/26/26 112/112/112
f 98/98/98 112/112/112 100/100/100
f 26/26/26 27/27/27 112/112/112
f 112/112/112 113/113/113 100/100/100
f 112/112/112 27/27/27 113/113/113
f 100/100/100 113/113/113 102/102/102
f 27/27/27 28/28/28 113/113/113
f 113/113/113 106/106/106 102/102/102
f 113/113/113 28/28/28 106/106/106
f 28/28/28 29/29/29 106/106/106
f 106/106/106 29/29/29 114/114/114
f 106/106/106 114/114/114 105/105/105
f 29/29/29 30/30/30 114/114/114
f 59/59/59 62/62/62 58/58/58
f 59/59/59 66/66/66 62/62/62
f 66/66/66 115/115/115 64/64/64
f 115/115/115 116/116/116 64/64/64
f 64/64/64 116/116/116 65/65/65
f 115/115/115 32/32/32 116/116/116
f 116/116/116 117/117/117 65/65/65
f 32/32/32 34/34/34 116/116/116
f 116/116/116 34/34/34 117/117/117
f 34/34/34 36/36/36 117/117/117
f 120/120/120 119/119/119 118/118/118
f 119/119/119 121/121/121 118/118/118
f 118/118/118 121/121/121 122/122/122
f 119/119/119 123/123/123 121/121/121
f 121/121/121 124/124/124 122/122/122
f 123/123/123 125/125/125 121/121/121
f 121/121/121 125/125/125 124/124/124
f 125/125/125 126/126/126 124/124/124
f 104/104/104 59/59/59 56/56/56
f 54/54/54 104/104/104 56/56/56
f 31/31/31 32/32/32 115/115/115
f 127/127/127 31/31/31 115/115/115
f 30/30/30 31/31/31 127/127/127
f 127/127/127 115/115/115 66/66/66
f 114/114/114 30/30/30 127/127/127
f 128/128/128 127/127/127 66/66/66
f 114/114/114 127/127/127 128/128/128
f 128/128/128 66/66/66 59/59/59
f 105/105/105 114/114/114 128/128/128
f 104/104/104 128/128/128 59/59/59
f 105/105/105 128/128/128 104/104/104
f 17/17/17 18/18/18 33/33/33
f 18/18/18 120/120/120 33/33/33
f 33/33/33 120/120/120 35/35/35
f 120/120/120 118/118/118 35/35/35
f 35/35/35 118/118/118 37/37/37
f 118/118/118 122/122/122 37/37/37
f 18/18/18 129/129/129 120/120/120
f 129/129/129 119/119/119 120/120/120
f 80/80/80 129/129/129 18/18/18
f 14/14/14 80/80/80 18/18/18
f 80/80/80 82/82/82 129/129/129
f 129/129/129 130/130/130 119/119/119
f 82/82/82 130/130/130 129/129/129
f 82/82/82 51/51/51 130/130/130
f 51/51/51 53/53/53 130/130/130
f 130/130/130 123/123/123 119/119/119
f 130/130/130 53/53/53 123/123/123
f 53/53/53 55/55/55 123/123/123
f 123/123/123 55/55/55 125/125/125
f 55/55/55 57/57/57 125/125/125
f 125/125/125 57/57/57 126/126/126
f 57/57/57 60/60/60 126/126/126
f 133/133/133 132/132/132 131/131/131
f 132/132/132 134/134/134 131/131/131
f 131/131/131 134/134/134 135/135/135
f 132/132/132 136/136/136 134/134/134
f 134/134/134 137/137/137 135/135/135
f 135/135/135 137/137/137 138/138/138
f 137/137/137 139/139/139 138/138/138
f 136/136/136 140/140/140 134/134/134
f 134/134/134 140/140/140 137/137/137
f 136/136/136 141/141/141 140/140/140
f 140/140/140 142/142/142 137/137/137
f 137/137/137 142/142/142 139/139/139
f 142/142/142 143/143/143 139/139/139
f 146/146/146 145/145/145 144/144/144
f 147/147/147 146/146/146 144/144/144
f 147/147/147 144/144/144 148/148/148
f 149/149/149 147/147/147 148/148/148
f 148/148/148 144/144/144 150/150/150
f 149/149/149 148/148/148 151/151/151
f 152/152/152 149/149/149 151/151/151
f 148/148/148 150/150/150 153/153/153
f 151/151/151 148/148/148 153/153/153
f 153/153/153 150/150/150 154/154/154
f 153/153/153 154/154/154 155/155/155
f 156/156/156 153/153/153 155/155/155
f 151/151/151 153/153/153 156/156/156
f 156/156/156 155/155/155 157/157/157
f 152/152/152 151/151/151 158/158/158
f 158/158/158 151/151/151 156/156/156
f 159/159/159 152/152/152 158/158/158
f 160/160/160 156/156/156 157/157/157
f 158/158/158 156/156/156 160/160/160
f 160/160/160 157/157/157 143/143/143
f 142/142/142 160/160/160 143/143/143
f 159/159/159 158/158/158 161/161/161
f 161/161/161 158/158/158 160/160/160
f 161/161/161 160/160/160 142/142/142
f 141/141/141 159/159/159 161/161/161
f 140/140/140 161/161/161 142/142/142
f 141/141/141 161/161/161 140/140/140
f 146/146/146 162/162/162 145/145/145
f 162/162/162 163/163/163 145/145/145
f 162/162/162 164/164/164 163/163/163
f 164/164/164 165/165/165 163/163/163
f 164/164/164 166/166/166 165/165/165
f 166/166/166 167/167/167 165/165/165
f 166/166/166 168/168/168 167/167/167
f 168/168/168 169/169/169 167/167/167
f 165/165/165 167/167/167 170/170/170
f 163/163/163 165/165/165 171/171/171
f 165/165/165 170/170/170 171/171/171
f 145/145/145 163/163/163 172/172/172
f 163/163/163 171/171/171 172/172/172
f 171/171/171 170/170/170 173/173/173
f 170/170/170 174/174/174 173/173/173
f 171/171/171 173/173/173 175/175/175
f 172/172/172 171/171/171 175/175/175
f 172/172/172 175/175/175 176/176/176
f 145/145/145 172/172/172 177/177/177
f 177/177/177 172/172/172 176/176/176
f 144/144/144 145/145/145 177/177/177
f 177/177/177 176/176/176 178/178/178
f 144/144/144 177/177/177 150/150/150
f 150/150/150 177/177/177 178/178/178
f 150/150/150 178/178/178 154/154/154
f 168/168/168 179/179/179 169/169/169
f 179/179/179 180/180/180 169/169/169
f 179/179/179 181/181/181 180/180/180
f 181/181/181 182/182/182 180/180/180
f 181/181/181 183/183/183 182/182/182
f 183/183/183 184/184/184 182/182/182
f 183/183/183 185/185/185 184/184/184
f 185/185/185 186/186/186 184/184/184
f 185/185/185 187/187/187 186/186/186
f 187/187/187 188/188/188 186/186/186
f 186/186/186 188/188/188 189/189/189
f 188/188/188 190/190/190 189/189/189
f 184/184/184 186/186/186 191/191/191
f 186/186/186 189/189/189 191/191/191
f 189/189/189 190/190/190 192/192/192
f 190/190/190 193/193/193 192/192/192
f 189/189/189 192/192/192 194/194/194
f 191/191/191 189/189/189 194/194/194
f 191/191/191 194/194/194 195/195/195
f 184/184/184 191/191/191 196/196/196
f 196/196/196 191/191/191 195/195/195
f 182/182/182 184/184/184 196/196/196
f 196/196/196 195/195/195 197/197/197
f 182/182/182 196/196/196 198/198/198
f 198/198/198 196/196/196 197/197/197
f 180/180/180 182/182/182 198/198/198
f 198/198/198 197/197/197 199/199/199
f 180/180/180 198/198/198 200/200/200
f 200/200/200 198/198/198 199/199/199
f 169/169/169 180/180/180 200/200/200
f 200/200/200 199/199/199 201/201/201
f 169/169/169 200/200/200 202/202/202
f 202/202/202 200/200/200 201/201/201
f 167/167/167 169/169/169 202/202/202
f 202/202/202 201/201/201 174/174/174
f 167/167/167 202/202/202 170/170/170
f 170/170/170 202/202/202 174/174/174
f 187/187/187 203/203/203 188/188/188
f 203/203/203 204/204/204 188/188/188
f 188/188/188 204/204/204 190/190/190
f 203/203/203 205/205/205 204/204/204
f 204/204/204 206/206/206 190/190/190
f 190/190/190 206/206/206 193/193/193
f 206/206/206 207/207/207 193/193/193
f 205/205/205 208/208/208 204/204/204
f 204/204/204 208/208/208 206/206/206
f 205/205/205 209/209/209 208/208/208
f 206/206/206 210/210/210 207/207/207
f 208/208/208 210/210/210 206/206/206
f 210/210/210 211/211/211 207/207/207
f 209/209/209 212/212/212 208/208/208
f 208/208/208 212/212/212 210/210/210
f 209/209/209 213/213/213 212/212/212
f 210/210/210 214/214/214 211/211/211
f 212/212/212 214/214/214 210/210/210
f 214/214/214 215/215/215 211/211/211
f 213/213/213 216/216/216 212/212/212
f 212/212/212 216/216/216 214/214/214
f 213/213/213 217/217/217 216/216/216
f 217/217/217 218/218/218 216/216/216
f 214/214/214 219/219/219 215/215/215
f 216/216/216 219/219/219 214/214/214
f 216/216/216 218/218/218 219/219/219
f 219/219/219 220/220/220 215/215/215
f 218/218/218 221/221/221 219/219/219
f 219/219/219 221/221/221 220/220/220
f 221/221/221 222/222/222 220/220/220
f 217/217/217 223/223/223 218/218/218
f 223/223/223 224/224/224 218/218/218
f 223/223/223 225/225/225 224/224/224
f 218/218/218 224/224/224 221/221/221
f 225/225/225 226/226/226 224/224/224
f 224/224/224 227/227/227 221/221/221
f 224/224/224 226/226/226 227/227/227
f 221/221/221 227/227/227 222/222/222
f 226/226/226 228/228/228 227/227/227
f 227/227/227 229/229/229 222/222/222
f 227/227/227 228/228/228 229/229/229
f 228/228/228 230/230/230 229/229/229
f 233/233/233 232/232/232 231/231/231
f 234/234/234 233/233/233 231/231/231
f 234/234/234 231/231/231 235/235/235
f 236/236/236 234/234/234 235/235/235
f 236/236/236 235/235/235 237/237/237
f 238/238/238 234/234/234 236/236/236
f 239/239/239 236/236/236 237/237/237
f 240/240/240 238/238/238 236/236/236
f 240/240/240 236/236/236 239/239/239
f 241/241/241 240/240/240 239/239/239
f 242/242/242 238/238/238 240/240/240
f 243/243/243 242/242/242 240/240/240
f 244/244/244 233/233/233 234/234/234
f 238/238/238 244/244/244 234/234/234
f 245/245/245 244/244/244 238/238/238
f 242/242/242 245/245/245 238/238/238
f 246/246/246 245/245/245 242/242/242
f 247/247/247 246/246/246 242/242/242
f 248/248/248 246/246/246 247/247/247
f 247/247/247 242/242/242 243/243/243
f 249/249/249 248/248/248 247/247/247
f 250/250/250 248/248/248 249/249/249
f 251/251/251 247/247/247 243/243/243
f 249/249/249 247/247/247 251/251/251
f 252/252/252 250/250/250 249/249/249
f 253/253/253 250/250/250 252/252/252
f 254/254/254 249/249/249 251/251/251
f 252/252/252 249/249/249 254/254/254
f 255/255/255 253/253/253 252/252/252
f 256/256/256 253/253/253 255/255/255
f 257/257/257 252/252/252 254/254/254
f 255/255/255 252/252/252 257/257/257
f 258/258/258 256/256/256 255/255/255
f 259/259/259 256/256/256 258/258/258
f 260/260/260 259/259/259 258/258/258
f 258/258/258 255/255/255 261/261/261
f 261/261/261 255/255/255 257/257/257
f 260/260/260 258/258/258 262/262/262
f 262/262/262 258/258/258 261/261/261
f 263/263/263 260/260/260 262/262/262
f 263/263/263 262/262/262 264/264/264
f 265/265/265 263/263/263 264/264/264
f 264/264/264 262/262/262 266/266/266
f 262/262/262 261/261/261 266/266/266
f 266/266/266 261/261/261 267/267/267
f 261/261/261 257/257/257 267/267/267
f 267/267/267 257/257/257 268/268/268
f 257/257/257 254/254/254 268/268/268
f 268/268/268 254/254/254 269/269/269
f 254/254/254 251/251/251 269/269/269
f 269/269/269 251/251/251 270/270/270
f 251/251/251 243/243/243 270/270/270
f 270/270/270 243/243/243 241/241/241
f 243/243/243 240/240/240 241/241/241
f 271/271/271 259/259/259 260/260/260
f 272/272/272 271/271/271 260/260/260
f 272/272/272 260/260/260 263/263/263
f 273/273/273 271/271/271 272/272/272
f 274/274/274 272/272/272 263/263/263
f 274/274/274 263/263/263 265/265/265
f 275/275/275 274/274/274 265/265/265
f 276/276/276 273/273/273 272/272/272
f 276/276/276 272/272/272 274/274/274
f 277/277/277 273/273/273 276/276/276
f 278/278/278 274/274/274 275/275/275
f 278/278/278 276/276/276 274/274/274
f 279/279/279 278/278/278 275/275/275
f 280/280/280 277/277/277 276/276/276
f 280/280/280 276/276/276 278/278/278
f 281/281/281 277/277/277 280/280/280
f 282/282/282 278/278/278 279/279/279
f 282/282/282 280/280/280 278/278/278
f 283/283/283 282/282/282 279/279/279
f 284/284/284 281/281/281 280/280/280
f 284/284/284 280/280/280 282/282/282
f 285/285/285 281/281/281 284/284/284
f 286/286/286 282/282/282 283/283/283
f 286/286/286 284/284/284 282/282/282
f 287/287/287 286/286/286 283/283/283
f 288/288/288 285/285/285 284/284/284
f 288/288/288 284/284/284 286/286/286
f 289/289/289 285/285/285 288/288/288
f 290/290/290 286/286/286 287/287/287
f 290/290/290 288/288/288 286/286/286
f 291/291/291 290/290/290 287/287/287
f 292/292/292 288/288/288 290/290/290
f 292/292/292 289/289/289 288/288/288
f 293/293/293 289/289/289 292/292/292
f 294/294/294 293/293/293 292/292/292
f 295/295/295 293/293/293 294/294/294
f 296/296/296 295/295/295 294/294/294
f 297/297/297 295/295/295 296/296/296
f 298/298/298 297/297/297 296/296/296
f 298/298/298 296/296/296 299/299/299
f 300/300/300 297/297/297 298/298/298
f 301/301/301 298/298/298 299/299/299
f 302/302/302 300/300/300 298/298/298
f 302/302/302 298/298/298 301/301/301
f 303/303/303 300/300/300 302/302/302
f 304/304/304 303/303/303 302/302/302
f 305/305/305 303/303/303 304/304/304
f 306/306/306 302/302/302 301/301/301
f 304/304/304 302/302/302 306/306/306
f 307/307/307 305/305/305 304/304/304
f 308/308/308 305/305/305 307/307/307
f 306/306/306 301/301/301 309/309/309
f 309/309/309 301/301/301 310/310/310
f 311/311/311 306/306/306 309/309/309
f 312/312/312 304/304/304 306/306/306
f 312/312/312 306/306/306 311/311/311
f 307/307/307 304/304/304 312/312/312
f 313/313/313 312/312/312 311/311/311
f 314/314/314 312/312/312 313/313/313
f 314/314/314 307/307/307 312/312/312
f 315/315/315 314/314/314 313/313/313
f 316/316/316 308/308/308 307/307/307
f 316/316/316 307/307/307 314/314/314
f 317/317/317 308/308/308 316/316/316
f 318/318/318 316/316/316 314/314/314
f 318/318/318 314/314/314 315/315/315
f 319/319/319 318/318/318 315/315/315
f 133/133/133 232/232/232 132/132/132
f 232/232/232 233/233/233 132/132/132
f 132/132/132 233/233/233 136/136/136
f 233/233/233 244/244/244 136/136/136
f 136/136/136 244/244/244 141/141/141
f 244/244/244 245/245/245 141/141/141
f 141/141/141 245/245/245 159/159/159
f 245/245/245 246/246/246 159/159/159
f 159/159/159 246/246/246 152/152/152
f 246/246/246 248/248/248 152/152/152
f 152/152/152 248/248/248 149/149/149
f 248/248/248 250/250/250 149/149/149
f 149/149/149 250/250/250 147/147/147
f 250/250/250 253/253/253 147/147/147
f 147/147/147 253/253/253 146/146/146
f 253/253/253 256/256/256 146/146/146
f 146/146/146 256/256/256 162/162/162
f 256/256/256 259/259/259 162/162/162
f 162/162/162 259/259/259 164/164/164
f 259/259/259 271/271/271 164/164/164
f 164/164/164 271/271/271 166/166/166
f 271/271/271 273/273/273 166/166/166
f 166/166/166 273/273/273 168/168/168
f 273/273/273 277/277/277 168/168/168
f 168/168/168 277/277/277 179/179/179
f 277/277/277 281/281/281 179/179/179
f 179/179/179 281/281/281 181/181/181
f 281/281/281 285/285/285 181/181/181
f 181/181/181 285/285/285 183/183/183
f 285/285/285 289/289/289 183/183/183
f 183/183/183 289/289/289 185/185/185
f 289/289/289 293/293/293 185/185/185
f 185/185/185 293/293/293 187/187/187
f 293/293/293 295/295/295 187/187/187
f 187/187/187 295/295/295 203/203/203
f 295/295/295 297/297/297 203/203/203
f 203/203/203 297/297/297 205/205/205
f 297/297/297 300/300/300 205/205/205
f 205/205/205 300/300/300 209/209/209
f 300/300/300 303/303/303 209/209/209
f 209/209/209 303/303/303 213/213/213
f 303/303/303 305/305/305 213/213/213
f 213/213/213 305/305/305 217/217/217
f 305/305/305 308/308/308 217/217/217
f 217/217/217 308/308/308 223/223/223
f 308/308/308 317/317/317 223/223/223
f 223/223/223 317/317/317 225/225/225
f 317/317/317 320/320/320 225/225/225
f 323/323/323 322/322/322 321/321/321
f 322/322/322 324/324/324 321/321/321
f 321/321/321 324/324/324 325/325/325
f 324/324/324 326/326/326 325/325/325
f 325/325/325 326/326/326 327/327/327
f 326/326/326 328/328/328 327/327/327
f 327/327/327 328/328/328 329/329/329
f 328/328/328 330/330/330 329/329/329
f 331/331/331 322/322/322 323/323/323
f 332/332/332 331/331/331 323/323/323
f 333/333/333 331/331/331 332/332/332
f 334/334/334 333/333/333 332/332/332
f 335/335/335 333/333/333 334/334/334
f 336/336/336 335/335/335 334/334/334
f 337/337/337 335/335/335 336/336/336
f 338/338/338 337/337/337 336/336/336
f 339/339/339 337/337/337 338/338/338
f 340/340/340 339/339/339 338/338/338
f 341/341/341 339/339/339 340/340/340
f 342/342/342 341/341/341 340/340/340
f 343/343/343 341/341/341 342/342/342
f 344/344/344 343/343/343 342/342/342
f 345/345/345 343/343/343 344/344/344
f 346/346/346 345/345/345 344/344/344
f 347/347/347 345/345/345 346/346/346
f 348/348/348 347/347/347 346/346/346
f 349/349/349 347/347/347 348/348/348
f 350/350/350 349/349/349 348/348/348
f 351/351/351 349/349/349 350/350/350
f 352/352/352 351/351/351 350/350/350
f 353/353/353 351/351/351 352/352/352
f 354/354/354 353/353/353 352/352/352
f 355/355/355 353/353/353 354/354/354
f 356/356/356 355/355/355 354/354/354
f 357/357/357 355/355/355 356/356/356
f 358/358/358 357/357/357 356/356/356
f 359/359/359 357/357/357 358/358/358
f 360/360/360 359/359/359 358/358/358
f 361/361/361 359/359/359 360/360/360
f 362/362/362 361/361/361 360/360/360
f 363/363/363 361/361/361 362/362/362
f 364/364/364 363/363/363 362/362/362
f 365/365/365 363/363/363 364/364/364
f 366/366/366 365/365/365 364/364/364
f 367/367/367 365/365/365 366/366/366
f 368/368/368 367/367/367 366/366/366
f 330/330/330 367/367/367 368/368/368
f 329/329/329 330/330/330 368/368/368
f 301/301/301 299/299/299 310/310/310
f 310/310/310 299/299/299 369/369/369
f 299/299/299 370/370/370 369/369/369
f 299/299/299 296/296/296 370/370/370
f 369/369/369 370/370/370 371/371/371
f 296/296/296 294/294/294 370/370/370
f 370/370/370 372/372/372 371/371/371
f 370/370/370 294/294/294 372/372/372
f 371/371/371 372/372/372 291/291/291
f 294/294/294 292/292/292 372/372/372
f 372/372/372 290/290/290 291/291/291
f 372/372/372 292/292/292 290/290/290
f 375/375/375 374/374/374 373/373/373
f 374/374/374 376/376/376 373/373/373
f 373/373/373 376/376/376 319/319/319
f 374/374/374 377/377/377 376/376/376
f 376/376/376 318/318/318 319/319/319
f 377/377/377 378/378/378 376/376/376
f 376/376/376 378/378/378 318/318/318
f 377/377/377 320/320/320 378/378/378
f 378/378/378 316/316/316 318/318/318
f 320/320/320 317/317/317 378/378/378
f 378/378/378 317/317/317 316/316/316
f 381/381/381 380/380/380 379/379/379
f 379/379/379 380/380/380 382/382/382
f 380/380/380 383/383/383 382/382/382
f 384/384/384 381/381/381 379/379/379
f 385/385/385 381/381/381 384/384/384
f 382/382/382 383/383/383 386/386/386
f 383/383/383 387/387/387 386/386/386
f 388/388/388 385/385/385 384/384/384
f 389/389/389 385/385/385 388/388/388
f 386/386/386 387/387/387 390/390/390
f 387/387/387 391/391/391 390/390/390
f 392/392/392 389/389/389 388/388/388
f 393/393/393 389/389/389 392/392/392
f 390/390/390 391/391/391 394/394/394
f 391/391/391 395/395/395 394/394/394
f 396/396/396 393/393/393 392/392/392
f 397/397/397 393/393/393 396/396/396
f 394/394/394 395/395/395 398/398/398
f 395/395/395 399/399/399 398/398/398
f 400/400/400 397/397/397 396/396/396
f 401/401/401 397/397/397 400/400/400
f 398/398/398 399/399/399 402/402/402
f 399/399/399 403/403/403 402/402/402
f 404/404/404 401/401/401 400/400/400
f 405/405/405 401/401/401 404/404/404
f 402/402/402 403/403/403 406/406/406
f 403/403/403 407/407/407 406/406/406
f 408/408/408 405/405/405 404/404/404
f 409/409/409 405/405/405 408/408/408
f 406/406/406 407/407/407 410/410/410
f 407/407/407 411/411/411 410/410/410
f 412/412/412 409/409/409 408/408/408
f 413/413/413 409/409/409 412/412/412
f 410/410/410 411/411/411 414/414/414
f 411/411/411 415/415/415 414/414/414
f 416/416/416 413/413/413 412/412/412
f 417/417/417 413/413/413 416/416/416
f 414/414/414 415/415/415 418/418/418
f 415/415/415 419/419/419 418/418/418
f 420/420/420 417/417/417 416/416/416
f 421/421/421 417/417/417 420/420/420
f 418/418/418 419/419/419 422/422/422
f 419/419/419 423/423/423 422/422/422
f 424/424/424 421/421/421 420/420/420
f 425/425/425 421/421/421 424/424/424
f 423/423/423 425/425/425 426/426/426
f 422/422/422 423/423/423 426/426/426
f 426/426/426 425/425/425 424/424/424
f 416/416/416 412/412/412 427/427/427
f 420/420/420 416/416/416 428/428/428
f 428/428/428 416/416/416 427/427/427
f 428/428/428 427/427/427 429/429/429
f 427/427/427 412/412/412 430/430/430
f 427/427/427 430/430/430 429/429/429
f 412/412/412 408/408/408 430/430/430
f 431/431/431 420/420/420 428/428/428
f 424/424/424 420/420/420 431/431/431
f 431/431/431 428/428/428 429/429/429
f 430/430/430 408/408/408 432/432/432
f 429/429/429 430/430/430 432/432/432
f 408/408/408 404/404/404 432/432/432
f 433/433/433 424/424/424 431/431/431
f 426/426/426 424/424/424 433/433/433
f 433/433/433 431/431/431 429/429/429
f 432/432/432 404/404/404 434/434/434
f 434/434/434 429/429/429 432/432/432
f 404/404/404 400/400/400 434/434/434
f 435/435/435 426/426/426 433/433/433
f 435/435/435 433/433/433 429/429/429
f 429/429/429 434/434/434 436/436/436
f 434/434/434 400/400/400 436/436/436
f 437/437/437 435/435/435 429/429/429
f 422/422/422 426/426/426 435/435/435
f 437/437/437 422/422/422 435/435/435
f 400/400/400 396/396/396 436/436/436
f 418/418/418 422/422/422 437/437/437
f 436/436/436 396/396/396 438/438/438
f 438/438/438 429/429/429 436/436/436
f 396/396/396 392/392/392 438/438/438
f 439/439/439 418/418/418 437/437/437
f 437/437/437 429/429/429 439/439/439
f 414/414/414 418/418/418 439/439/439
f 438/438/438 392/392/392 440/440/440
f 438/438/438 440/440/440 429/429/429
f 392/392/392 388/388/388 440/440/440
f 441/441/441 414/414/414 439/439/439
f 429/429/429 441/441/441 439/439/439
f 410/410/410 414/414/414 441/441/441
f 440/440/440 388/388/388 442/442/442
f 440/440/440 442/442/442 429/429/429
f 388/388/388 384/384/384 442/442/442
f 441/441/441 429/429/429 443/443/443
f 443/443/443 410/410/410 441/441/441
f 429/429/429 442/442/442 444/444/444
f 442/442/442 384/384/384 444/444/444
f 429/429/429 445/445/445 443/443/443
f 406/406/406 410/410/410 443/443/443
f 445/445/445 406/406/406 443/443/443
f 384/384/384 379/379/379 444/444/444
f 402/402/402 406/406/406 445/445/445
f 444/444/444 379/379/379 446/446/446
f 446/446/446 429/429/429 444/444/444
f 379/379/379 382/382/382 446/446/446
f 447/447/447 402/402/402 445/445/445
f 445/445/445 429/429/429 447/447/447
f 398/398/398 402/402/402 447/447/447
f 446/446/446 382/382/382 448/448/448
f 446/446/446 448/448/448 429/429/429
f 382/382/382 386/386/386 448/448/448
f 449/449/449 398/398/398 447/447/447
f 429/429/429 449/449/449 447/447/447
f 394/394/394 398/398/398 449/449/449
f 448/448/448 386/386/386 450/450/450
f 448/448/448 450/450/450 429/429/429
f 386/386/386 390/390/390 450/450/450
f 451/451/451 449/449/449 429/429/429
f 451/451/451 394/394/394 449/449/449
f 450/450/450 451/451/451 429/429/429
f 390/390/390 394/394/394 451/451/451
f 450/450/450 390/390/390 451/451/451

