mtllib material.mtl
usemtl material_0
v 0.05083197 0.00068113 -0.02362492
v 0.03792167 0.00068120 -0.04127903
v 0.03792167 0.00003950 -0.04127919
v 0.05083197 0.00003957 -0.02362492
v 0.05600348 0.00068113 -0.00237401
v 0.05083197 0.00068113 -0.02362492
v 0.05083197 0.00003957 -0.02362492
v 0.05600348 0.00003942 -0.00237401
v 0.05264884 0.00068113 0.01923839
v 0.05600348 0.00068113 -0.00237401
v 0.05600348 0.00003942 -0.00237401
v 0.05264884 0.00003950 0.01923824
v 0.04127921 0.00068113 0.03792186
v 0.05264884 0.00068113 0.01923839
v 0.05264884 0.00003950 0.01923824
v 0.04127921 0.00003957 0.03792171
v 0.02362494 0.00068113 0.05083202
v 0.04127921 0.00068113 0.03792186
v 0.04127921 0.00003957 0.03792171
v 0.02362494 0.00003957 0.05083202
v 0.00237403 0.00068113 0.05600353
v 0.02362494 0.00068113 0.05083202
v 0.02362494 0.00003957 0.05083202
v 0.00237403 0.00003957 0.05600337
v -0.01923821 0.00068113 0.05264904
v 0.00237403 0.00068113 0.05600353
v 0.00237403 0.00003957 0.05600337
v -0.01923821 0.00003950 0.05264888
v -0.03792169 0.00068113 0.04127910
v -0.01923821 0.00068113 0.05264904
v -0.01923821 0.00003950 0.05264888
v -0.03792169 0.00003942 0.04127910
v -0.05083199 0.00068113 0.02362483
v -0.03792169 0.00068113 0.04127910
v -0.03792169 0.00003942 0.04127910
v -0.05083199 0.00003957 0.02362483
v -0.05600335 0.00068120 0.00237392
v -0.05083199 0.00068113 0.02362483
v -0.05083199 0.00003957 0.02362483
v -0.05600335 0.00003950 0.00237392
v -0.05264886 0.00068120 -0.01923832
v -0.05600335 0.00068120 0.00237392
v -0.05600335 0.00003950 0.00237392
v -0.05264886 0.00003950 -0.01923848
v -0.00237389 0.00068113 -0.05600346
v -0.02362481 0.00068128 -0.05083195
v -0.02362481 0.00003942 -0.05083210
v -0.00237389 0.00003942 -0.05600361
v -0.04127908 0.00068113 -0.03792179
v -0.05264886 0.00068120 -0.01923832
v -0.05264886 0.00003950 -0.01923848
v -0.04127908 0.00003942 -0.03792195
v 0.01923835 0.00068120 -0.05264897
v -0.00237389 0.00068113 -0.05600346
v -0.00237389 0.00003942 -0.05600361
v 0.01923835 0.00003950 -0.05264912
v -0.02362481 0.00068128 -0.05083195
v -0.04127908 0.00068113 -0.03792179
v -0.04127908 0.00003942 -0.03792195
v -0.02362481 0.00003942 -0.05083210
v 0.03792167 0.00068120 -0.04127903
v 0.01923835 0.00068120 -0.05264897
v 0.01923835 0.00003950 -0.05264912
v 0.03792167 0.00003950 -0.04127919
v -0.00910867 0.00068769 -0.01959858
v -0.02362481 0.00068128 -0.05083195
v -0.00237389 0.00068113 -0.05600346
v -0.00091531 0.00068777 -0.02159245
v -0.01591546 0.00068777 -0.01462101
v 0.01923835 0.00068120 -0.05264897
v -0.04127908 0.00068113 -0.03792179
v 0.00741752 0.00068761 -0.02029911
v -0.02029916 0.00068761 -0.00741749
v 0.03792167 0.00068120 -0.04127903
v -0.05264886 0.00068120 -0.01923832
v 0.01462089 0.00068761 -0.01591542
v -0.02159234 0.00068761 0.00091533
v 0.05083197 0.00068113 -0.02362492
v -0.05600335 0.00068120 0.00237392
v 0.01959861 0.00068784 -0.00910878
v -0.01959863 0.00068784 0.00910869
v 0.05600348 0.00068113 -0.00237401
v -0.05083199 0.00068113 0.02362483
v 0.02159232 0.00068777 -0.00091526
v -0.01462090 0.00068777 0.01591533
v 0.05264884 0.00068113 0.01923839
v -0.03792169 0.00068113 0.04127910
v 0.02029914 0.00068777 0.00741741
v -0.00741754 0.00068777 0.02029918
v 0.04127921 0.00068113 0.03792186
v -0.01923821 0.00068113 0.05264904
v 0.01591544 0.00068769 0.01462093
v 0.00091529 0.00068769 0.02159252
v 0.02362494 0.00068113 0.05083202
v 0.00237403 0.00068113 0.05600353
v 0.00910865 0.00068777 0.01959850
v -0.00910867 -0.00001338 -0.01959858
v -0.00091531 -0.00001330 -0.02159245
v -0.00237389 0.00003942 -0.05600361
v -0.02362481 0.00003942 -0.05083210
v 0.01923835 0.00003950 -0.05264912
v -0.01591546 -0.00001330 -0.01462101
v 0.00741752 -0.00001330 -0.02029911
v -0.04127908 0.00003942 -0.03792195
v 0.03792167 0.00003950 -0.04127919
v -0.02029916 -0.00001330 -0.00741749
v 0.01462089 -0.00001330 -0.01591542
v -0.05264886 0.00003950 -0.01923848
v 0.05083197 0.00003957 -0.02362492
v -0.02159234 -0.00001330 0.00091533
v 0.01959861 -0.00001322 -0.00910862
v -0.05600335 0.00003950 0.00237392
v 0.05600348 0.00003942 -0.00237401
v -0.01959863 -0.00001322 0.00910869
v 0.02159232 -0.00001322 -0.00091526
v -0.05083199 0.00003957 0.02362483
v 0.05264884 0.00003950 0.01923824
v -0.01462090 -0.00001322 0.01591548
v 0.02029914 -0.00001322 0.00741741
v -0.03792169 0.00003942 0.04127910
v 0.04127921 0.00003957 0.03792171
v -0.00741754 -0.00001322 0.02029918
v 0.01591544 -0.00001322 0.01462093
v -0.01923821 0.00003950 0.05264888
v 0.02362494 0.00003957 0.05083202
v 0.00091529 -0.00001322 0.02159252
v 0.00910865 -0.00001330 0.01959865
v 0.00237403 0.00003957 0.05600337
vn 0.80719420 0.00000000 -0.59028580
vn 0.80719420 0.00000000 -0.59028580
vn 0.80719420 0.00000000 -0.59028580
vn 0.80719420 0.00000000 -0.59028580
vn 0.97164280 0.00000000 -0.23645330
vn 0.97164280 0.00000000 -0.23645330
vn 0.97164280 0.00000000 -0.23645330
vn 0.97164280 0.00000000 -0.23645330
vn 0.98816770 0.00000000 0.15337740
vn 0.98816770 0.00000000 0.15337740
vn 0.98816770 0.00000000 0.15337740
vn 0.98816770 0.00000000 0.15337740
vn 0.85425320 0.00000000 0.51985720
vn 0.85425320 0.00000000 0.51985720
vn 0.85425320 0.00000000 0.51985720
vn 0.85425320 0.00000000 0.51985720
vn 0.59028610 0.00000000 0.80719410
vn 0.59028610 0.00000000 0.80719410
vn 0.59028610 0.00000000 0.80719410
vn 0.59028610 0.00000000 0.80719410
vn 0.23645340 0.00000000 0.97164280
vn 0.23645340 0.00000000 0.97164280
vn 0.23645340 0.00000000 0.97164280
vn 0.23645340 0.00000000 0.97164280
vn -0.15337700 0.00000000 0.98816770
vn -0.15337700 0.00000000 0.98816770
vn -0.15337700 0.00000000 0.98816770
vn -0.15337700 0.00000000 0.98816770
vn -0.51985750 0.00000000 0.85425300
vn -0.51985750 0.00000000 0.85425300
vn -0.51985750 0.00000000 0.85425300
vn -0.51985750 0.00000000 0.85425300
vn -0.80719440 0.00000000 0.59028580
vn -0.80719440 0.00000000 0.59028580
vn -0.80719440 0.00000000 0.59028580
vn -0.80719440 0.00000000 0.59028580
vn -0.97164290 0.00000000 0.23645320
vn -0.97164290 0.00000000 0.23645320
vn -0.97164290 0.00000000 0.23645320
vn -0.97164290 0.00000000 0.23645320
vn -0.98816770 0.00000000 -0.15337750
vn -0.98816770 0.00000000 -0.15337750
vn -0.98816770 0.00000000 -0.15337750
vn -0.98816770 0.00000000 -0.15337750
vn -0.23645310 0.00000000 -0.97164290
vn -0.23645310 0.00000000 -0.97164290
vn -0.23645310 0.00000000 -0.97164290
vn -0.23645310 0.00000000 -0.97164290
vn -0.85425280 0.00000000 -0.51985780
vn -0.85425280 0.00000000 -0.51985780
vn -0.85425280 0.00000000 -0.51985780
vn -0.85425280 0.00000000 -0.51985780
vn 0.15337750 0.00000000 -0.98816770
vn 0.15337750 0.00000000 -0.98816770
vn 0.15337750 0.00000000 -0.98816770
vn 0.15337750 0.00000000 -0.98816770
vn -0.59028580 0.00000000 -0.80719440
vn -0.59028580 0.00000000 -0.80719440
vn -0.59028580 0.00000000 -0.80719440
vn -0.59028580 0.00000000 -0.80719440
vn 0.51985780 0.00000000 -0.85425280
vn 0.51985780 0.00000000 -0.85425280
vn 0.51985780 0.00000000 -0.85425280
vn 0.51985780 0.00000000 -0.85425280
vn -0.00004617 1.00000000 -0.00018970
vn -0.00011524 1.00000000 -0.00015760
vn -0.00004617 1.00000000 -0.00018970
vn -0.00004617 1.00000000 -0.00018970
vn -0.00016678 1.00000000 -0.00010150
vn 0.00002995 1.00000000 -0.00019293
vn -0.00016678 1.00000000 -0.00010150
vn 0.00002995 1.00000000 -0.00019293
vn -0.00019293 1.00000000 -0.00002995
vn 0.00010150 1.00000000 -0.00016678
vn -0.00019293 1.00000000 -0.00002995
vn 0.00010150 1.00000000 -0.00016678
vn -0.00018970 1.00000000 0.00004616
vn 0.00015759 1.00000000 -0.00011524
vn -0.00018970 1.00000000 0.00004616
vn 0.00015759 1.00000000 -0.00011524
vn -0.00015760 1.00000000 0.00011525
vn 0.00018970 1.00000000 -0.00004616
vn -0.00015760 1.00000000 0.00011525
vn 0.00018970 1.00000000 -0.00004616
vn -0.00010150 1.00000000 0.00016678
vn 0.00019293 1.00000000 0.00002995
vn -0.00010150 1.00000000 0.00016678
vn 0.00019293 1.00000000 0.00002995
vn -0.00002995 1.00000000 0.00019293
vn 0.00016679 1.00000000 0.00010149
vn -0.00002995 1.00000000 0.00019293
vn 0.00016679 1.00000000 0.00010149
vn 0.00004616 1.00000000 0.00018970
vn 0.00011525 1.00000000 0.00015759
vn 0.00004616 1.00000000 0.00018970
vn 0.00011525 1.00000000 0.00015759
vn -0.00036931 -0.99999880 -0.00151759
vn -0.00036931 -0.99999880 -0.00151759
vn -0.00036931 -0.99999880 -0.00151759
vn -0.00036931 -0.99999880 -0.00151759
vn 0.00023956 -0.99999880 -0.00154340
vn -0.00133424 -0.99999880 -0.00081196
vn 0.00023956 -0.99999880 -0.00154340
vn -0.00133424 -0.99999880 -0.00081196
vn 0.00081196 -0.99999880 -0.00133424
vn -0.00154340 -0.99999880 -0.00023956
vn 0.00081196 -0.99999880 -0.00133424
vn -0.00154340 -0.99999880 -0.00023956
vn 0.00126074 -0.99999880 -0.00092196
vn -0.00151759 -0.99999880 0.00036931
vn 0.00126074 -0.99999880 -0.00092196
vn -0.00151759 -0.99999880 0.00036931
vn 0.00151759 -0.99999880 -0.00036931
vn -0.00126074 -0.99999880 0.00092196
vn 0.00151759 -0.99999880 -0.00036931
vn -0.00126074 -0.99999880 0.00092196
vn 0.00154340 -0.99999880 0.00023956
vn -0.00081196 -0.99999880 0.00133424
vn 0.00154340 -0.99999880 0.00023956
vn -0.00081196 -0.99999880 0.00133424
vn 0.00133424 -0.99999880 0.00081196
vn -0.00023956 -0.99999880 0.00154340
vn 0.00133424 -0.99999880 0.00081196
vn -0.00023956 -0.99999880 0.00154340
vn 0.00092196 -0.99999880 0.00126074
vn 0.00036931 -0.99999880 0.00151759
vn 0.00092196 -0.99999880 0.00126074
vn 0.00036931 -0.99999880 0.00151759
vt 0.89765690 0.50000010
vt 0.86738720 0.65217670
vt 0.86738720 0.65217670
vt 0.89765690 0.50000010
vt 0.86738720 0.34782330
vt 0.89765690 0.50000010
vt 0.89765690 0.50000010
vt 0.86738720 0.34782330
vt 0.78118600 0.21881410
vt 0.86738720 0.34782330
vt 0.86738720 0.34782330
vt 0.78118600 0.21881410
vt 0.65217670 0.13261300
vt 0.78118600 0.21881410
vt 0.78118600 0.21881410
vt 0.65217670 0.13261300
vt 0.50000010 0.10234310
vt 0.65217670 0.13261300
vt 0.65217670 0.13261300
vt 0.50000010 0.10234310
vt 0.34782340 0.13261290
vt 0.50000010 0.10234310
vt 0.50000010 0.10234310
vt 0.34782340 0.13261290
vt 0.21881420 0.21881400
vt 0.34782340 0.13261290
vt 0.34782340 0.13261290
vt 0.21881420 0.21881400
vt 0.13261290 0.34782330
vt 0.21881420 0.21881400
vt 0.21881420 0.21881400
vt 0.13261290 0.34782330
vt 0.10234310 0.50000010
vt 0.13261290 0.34782330
vt 0.13261290 0.34782330
vt 0.10234310 0.50000010
vt 0.13261290 0.65217690
vt 0.10234310 0.50000010
vt 0.10234310 0.50000010
vt 0.13261290 0.65217690
vt 0.21881420 0.78118600
vt 0.13261290 0.65217690
vt 0.13261290 0.65217690
vt 0.21881420 0.78118600
vt 0.65217670 0.86738720
vt 0.50000010 0.89765690
vt 0.50000010 0.89765690
vt 0.65217670 0.86738720
vt 0.34782350 0.86738720
vt 0.21881420 0.78118600
vt 0.21881420 0.78118600
vt 0.34782350 0.86738720
vt 0.78118600 0.78118600
vt 0.65217670 0.86738720
vt 0.65217670 0.86738720
vt 0.78118600 0.78118600
vt 0.50000010 0.89765690
vt 0.34782350 0.86738720
vt 0.34782350 0.86738720
vt 0.50000010 0.89765690
vt 0.86738720 0.65217670
vt 0.78118600 0.78118600
vt 0.78118600 0.78118600
vt 0.86738720 0.65217670
vt 0.49999980 0.70876590
vt 0.50000010 0.89765690
vt 0.65217670 0.86738720
vt 0.57989130 0.69287460
vt 0.42010890 0.69287460
vt 0.78118600 0.78118600
vt 0.34782350 0.86738720
vt 0.64761970 0.64761970
vt 0.35238030 0.64762000
vt 0.86738720 0.65217670
vt 0.21881420 0.78118600
vt 0.69287430 0.57989120
vt 0.30712550 0.57989120
vt 0.89765690 0.50000010
vt 0.13261290 0.65217690
vt 0.70876590 0.50000010
vt 0.29123420 0.50000010
vt 0.86738720 0.34782330
vt 0.10234310 0.50000010
vt 0.69287430 0.42010870
vt 0.30712550 0.42010870
vt 0.78118600 0.21881410
vt 0.13261290 0.34782330
vt 0.64761970 0.35238040
vt 0.35238030 0.35238030
vt 0.65217670 0.13261300
vt 0.21881420 0.21881400
vt 0.57989130 0.30712550
vt 0.42010880 0.30712560
vt 0.50000010 0.10234310
vt 0.34782340 0.13261290
vt 0.50000010 0.29123430
vt 0.49999980 0.70876590
vt 0.57989130 0.69287460
vt 0.65217670 0.86738720
vt 0.50000010 0.89765690
vt 0.78118600 0.78118600
vt 0.42010890 0.69287460
vt 0.64761970 0.64761970
vt 0.34782350 0.86738720
vt 0.86738720 0.65217670
vt 0.35238030 0.64762000
vt 0.69287430 0.57989120
vt 0.21881420 0.78118600
vt 0.89765690 0.50000010
vt 0.30712550 0.57989120
vt 0.70876590 0.50000010
vt 0.13261290 0.65217690
vt 0.86738720 0.34782330
vt 0.29123420 0.50000010
vt 0.69287430 0.42010870
vt 0.10234310 0.50000010
vt 0.78118600 0.21881410
vt 0.30712550 0.42010870
vt 0.64761970 0.35238040
vt 0.13261290 0.34782330
vt 0.65217670 0.13261300
vt 0.35238030 0.35238030
vt 0.57989130 0.30712550
vt 0.21881420 0.21881400
vt 0.50000010 0.10234310
vt 0.42010880 0.30712560
vt 0.50000010 0.29123430
vt 0.34782340 0.13261290
f 3/3/3 2/2/2 1/1/1
f 4/4/4 3/3/3 1/1/1
f 7/7/7 6/6/6 5/5/5
f 8/8/8 7/7/7 5/5/5
f 11/11/11 10/10/10 9/9/9
f 12/12/12 11/11/11 9/9/9
f 15/15/15 14/14/14 13/13/13
f 16/16/16 15/15/15 13/13/13
f 19/19/19 18/18/18 17/17/17
f 20/20/20 19/19/19 17/17/17
f 23/23/23 22/22/22 21/21/21
f 24/24/24 23/23/23 21/21/21
f 27/27/27 26/26/26 25/25/25
f 28/28/28 27/27/27 25/25/25
f 31/31/31 30/30/30 29/29/29
f 32/32/32 31/31/31 29/29/29
f 35/35/35 34/34/34 33/33/33
f 36/36/36 35/35/35 33/33/33
f 39/39/39 38/38/38 37/37/37
f 40/40/40 39/39/39 37/37/37
f 43/43/43 42/42/42 41/41/41
f 44/44/44 43/43/43 41/41/41
f 47/47/47 46/46/46 45/45/45
f 48/48/48 47/47/47 45/45/45
f 51/51/51 50/50/50 49/49/49
f 52/52/52 51/51/51 49/49/49
f 55/55/55 54/54/54 53/53/53
f 56/56/56 55/55/55 53/53/53
f 59/59/59 58/58/58 57/57/57
f 60/60/60 59/59/59 57/57/57
f 63/63/63 62/62/62 61/61/61
f 64/64/64 63/63/63 61/61/61
f 67/67/67 66/66/66 65/65/65
f 68/68/68 67/67/67 65/65/65
f 65/65/65 66/66/66 69/69/69
f 70/70/70 67/67/67 68/68/68
f 66/66/66 71/71/71 69/69/69
f 72/72/72 70/70/70 68/68/68
f 69/69/69 71/71/71 73/73/73
f 74/74/74 70/70/70 72/72/72
f 71/71/71 75/75/75 73/73/73
f 76/76/76 74/74/74 72/72/72
f 73/73/73 75/75/75 77/77/77
f 78/78/78 74/74/74 76/76/76
f 75/75/75 79/79/79 77/77/77
f 80/80/80 78/78/78 76/76/76
f 77/77/77 79/79/79 81/81/81
f 82/82/82 78/78/78 80/80/80
f 79/79/79 83/83/83 81/81/81
f 84/84/84 82/82/82 80/80/80
f 81/81/81 83/83/83 85/85/85
f 86/86/86 82/82/82 84/84/84
f 83/83/83 87/87/87 85/85/85
f 88/88/88 86/86/86 84/84/84
f 85/85/85 87/87/87 89/89/89
f 90/90/90 86/86/86 88/88/88
f 87/87/87 91/91/91 89/89/89
f 92/92/92 90/90/90 88/88/88
f 89/89/89 91/91/91 93/93/93
f 94/94/94 90/90/90 92/92/92
f 91/91/91 95/95/95 93/93/93
f 96/96/96 94/94/94 92/92/92
f 93/93/93 95/95/95 96/96/96
f 95/95/95 94/94/94 96/96/96
f 99/99/99 98/98/98 97/97/97
f 100/100/100 99/99/99 97/97/97
f 99/99/99 101/101/101 98/98/98
f 100/100/100 97/97/97 102/102/102
f 101/101/101 103/103/103 98/98/98
f 104/104/104 100/100/100 102/102/102
f 101/101/101 105/105/105 103/103/103
f 104/104/104 102/102/102 106/106/106
f 105/105/105 107/107/107 103/103/103
f 108/108/108 104/104/104 106/106/106
f 105/105/105 109/109/109 107/107/107
f 108/108/108 106/106/106 110/110/110
f 109/109/109 111/111/111 107/107/107
f 112/112/112 108/108/108 110/110/110
f 109/109/109 113/113/113 111/111/111
f 112/112/112 110/110/110 114/114/114
f 113/113/113 115/115/115 111/111/111
f 116/116/116 112/112/112 114/114/114
f 113/113/113 117/117/117 115/115/115
f 116/116/116 114/114/114 118/118/118
f 117/117/117 119/119/119 115/115/115
f 120/120/120 116/116/116 118/118/118
f 117/117/117 121/121/121 119/119/119
f 120/120/120 118/118/118 122/122/122
f 121/121/121 123/123/123 119/119/119
f 124/124/124 120/120/120 122/122/122
f 121/121/121 125/125/125 123/123/123
f 124/124/124 122/122/122 126/126/126
f 125/125/125 127/127/127 123/123/123
f 128/128/128 124/124/124 126/126/126
f 128/128/128 126/126/126 127/127/127
f 125/125/125 128/128/128 127/127/127

