# Blender 4.0.0
# www.blender.org
o decimated_mesh
v -0.006847 0.000003 0.013792
v -0.001742 0.000003 0.015444
v -0.006847 0.000003 0.014069
v -0.006846 0.004457 0.012015
v 0.000002 0.001795 0.015452
v 0.000002 0.001686 0.015571
v -0.001742 0.000003 0.015545
v -0.006846 0.004457 0.012502
v -0.004367 0.006137 0.013645
v -0.002376 0.007134 0.013650
v -0.000710 0.007427 0.013645
v 0.000002 0.007428 0.013640
v 0.000002 0.007113 0.013640
v 0.000003 0.001720 0.015712
v -0.001940 0.000003 0.015616
v -0.005306 0.000906 0.014998
v -0.006847 0.000244 0.014095
v -0.006126 0.004384 0.013629
v -0.004365 0.005604 0.013959
v -0.005096 0.000003 0.015032
v -0.005557 0.001031 0.014870
v -0.002839 0.001185 0.015591
v -0.003180 0.000002 0.015561
v 0.000002 0.003339 0.015528
v -0.001199 0.002923 0.015575
v -0.005730 0.004363 0.013881
v -0.006847 0.002963 0.013651
v -0.006847 0.002238 0.013882
v -0.003693 0.003957 0.014988
v -0.000757 0.005600 0.014866
v 0.000002 0.004220 0.015307
v -0.000758 0.005323 0.015000
v 0.000002 0.005299 0.014969
vn 0.6056 -0.5866 -0.5377
vn 0.6946 -0.7194 -0.0000
vn -0.5609 0.8279 -0.0000
vn -0.0076 0.4933 -0.8698
vn 0.2309 -0.0000 -0.9730
vn 1.0000 0.0002 0.0004
vn 0.6840 -0.7108 0.1641
vn 0.3072 -0.3961 0.8653
vn -0.1622 0.1615 0.9734
vn 0.3261 -0.3130 -0.8920
vn -0.0430 0.2403 0.9697
vn -0.4844 -0.0802 0.8712
vn -0.5523 0.0883 0.8290
vn -0.5068 0.2692 0.8189
vn -0.0538 0.0594 0.9968
vn 0.0487 0.2989 0.9531
vn 0.0508 0.4356 0.8987
vn -0.1169 0.6526 -0.7487
vn -0.2661 -0.0260 0.9636
vn 0.0077 -0.0259 0.9996
vn 1.0000 -0.0000 -0.0000
vn 1.0000 0.0002 -0.0035
vn 1.0000 -0.0058 -0.0052
vn 1.0000 -0.0000 0.0001
vn -0.2456 0.1330 0.9602
vn 0.2878 -0.3549 -0.8895
vn 0.3301 -0.3045 -0.8935
vn -0.7627 0.3944 0.5126
vn -0.0455 0.2425 0.9691
vn -0.1214 0.2524 0.9600
vn -0.4699 -0.0946 0.8776
vn -0.4805 -0.0781 0.8735
vn -0.0444 -0.0124 0.9989
vn -0.0409 -0.0097 0.9991
vn -0.4350 0.8694 -0.2343
vn -0.5010 0.2637 0.8243
vn -0.3854 0.3706 0.8450
vn 0.0003 0.1130 0.9936
vn 0.0945 0.5273 0.8444
vn -0.2526 0.4230 0.8702
vn -0.2489 0.4921 0.8342
vn -0.2143 0.4534 0.8652
vn -0.2144 0.4531 0.8653
vn -0.0001 1.0000 0.0005
vn -0.0000 1.0000 -0.0000
vn -0.0001 1.0000 -0.0001
vn -0.4548 0.4519 0.7674
vn -0.4606 0.4556 0.7618
vn -0.6338 0.6322 0.4457
vn -0.2380 0.0443 0.9703
vn -0.4271 0.2368 0.8727
vn -0.4439 0.2337 0.8651
vn -0.3664 0.1966 0.9095
vn -1.0000 0.0004 -0.0000
vn -1.0000 -0.0001 -0.0005
vn -1.0000 0.0003 -0.0001
vn -1.0000 -0.0000 -0.0000
vn -1.0000 -0.0001 0.0001
vn -0.0674 0.5750 0.8154
vn -1.0000 -0.0001 -0.0000
vn -1.0000 -0.0000 0.0005
vn -1.0000 0.0003 -0.0002
vn 0.0001 -1.0000 -0.0003
vn -0.0000 -1.0000 -0.0000
vn -0.4799 -0.0940 0.8723
vn -0.0002 -1.0000 0.0003
vn -0.4789 -0.0788 0.8744
vn -0.4814 -0.0717 0.8735
vn 0.0001 -1.0000 -0.0000
vn 0.0001 -1.0000 0.0003
vn -0.2027 0.4279 0.8808
vn -0.2169 0.4520 0.8652
vn -0.2164 0.4557 0.8634
vn -0.0948 0.5549 0.8265
vn 0.0053 0.5556 0.8314
vn 1.0000 0.0005 0.0008
vn 1.0000 -0.0000 -0.0004
vn 1.0000 -0.0013 -0.0039
vn -0.0448 0.2406 0.9696
vn -0.0396 0.2425 0.9693
vn 1.0000 0.0007 0.0017
vn 1.0000 0.0011 0.0042
s 0
f 2//1 5//1 6//1
f 2//2 6//2 7//2
f 4//3 8//3 9//3
f 4//4 11//4 12//4
f 4//5 12//5 13//5
f 33//6 31//6 13//6
f 6//7 14//7 7//7
f 7//8 14//8 15//8
f 29//9 22//9 25//9
f 2//10 4//10 5//10
f 25//11 31//11 32//11
f 20//12 16//12 21//12
f 21//13 28//13 17//13
f 27//14 26//14 18//14
f 25//15 22//15 14//15
f 33//16 32//16 31//16
f 30//17 32//17 33//17
f 10//18 11//18 4//18
f 16//19 20//19 23//19
f 11//20 10//20 12//20
f 31//21 24//21 5//21
f 24//22 14//22 5//22
f 5//23 14//23 6//23
f 5//21 13//21 31//21
f 12//24 33//24 13//24
f 29//25 16//25 22//25
f 1//26 4//26 2//26
f 4//27 13//27 5//27
f 18//28 8//28 27//28
f 25//29 24//29 31//29
f 32//30 29//30 25//30
f 21//31 17//31 3//31
f 20//32 21//32 3//32
f 23//33 15//33 22//33
f 15//34 14//34 22//34
f 9//35 10//35 4//35
f 28//36 26//36 27//36
f 26//37 29//37 19//37
f 14//38 24//38 25//38
f 12//39 30//39 33//39
f 32//40 30//40 10//40
f 10//41 9//41 19//41
f 10//42 19//42 32//42
f 19//43 29//43 32//43
f 23//44 2//44 20//44
f 20//45 1//45 3//45
f 1//45 20//45 2//45
f 2//45 15//45 7//45
f 15//46 2//46 23//46
f 26//47 19//47 9//47
f 9//48 18//48 26//48
f 9//49 8//49 18//49
f 23//50 22//50 16//50
f 29//51 26//51 21//51
f 26//52 28//52 21//52
f 21//53 16//53 29//53
f 8//54 4//54 27//54
f 4//55 1//55 28//55
f 27//56 4//56 28//56
f 1//57 3//57 17//57
f 17//58 28//58 1//58
f 12//59 10//59 30//59
f 1//60 3//60 28//60
f 3//61 17//61 28//61
f 27//62 8//62 28//62
f 8//54 4//54 28//54
f 2//63 23//63 1//63
f 23//64 3//64 1//64
f 20//65 17//65 3//65
f 23//66 20//66 3//66
f 20//67 16//67 17//67
f 16//68 21//68 17//68
f 7//69 23//69 2//69
f 7//70 15//70 23//70
f 32//71 30//71 29//71
f 30//72 19//72 29//72
f 30//73 10//73 19//73
f 30//74 11//74 10//74
f 30//75 12//75 11//75
f 33//76 14//76 12//76
f 14//77 13//77 12//77
f 14//78 5//78 13//78
f 25//79 24//79 32//79
f 24//80 31//80 32//80
f 31//81 14//81 33//81
f 31//82 24//82 14//82
