# Blender 4.0.0
# www.blender.org
o decimated_mesh
v -0.005223 0.000001 0.014987
v -0.003245 0.000002 0.015557
v -0.001940 0.000001 0.015616
v -0.001716 0.000002 0.015512
v -0.001584 -0.000441 0.015708
v 0.000003 -0.001812 0.015588
v -0.003409 -0.000899 0.015502
v -0.002242 -0.002157 0.015586
v 0.000002 -0.001768 0.015445
v -0.008132 0.000002 0.012143
v -0.004918 -0.002419 0.014958
v -0.000476 -0.001557 0.015711
v 0.000002 -0.004456 0.014969
v -0.007964 -0.003146 0.011339
v -0.008132 -0.000000 0.012631
v 0.000003 -0.003147 0.015561
v -0.007135 -0.002246 0.013704
v -0.000001 -0.004454 0.015230
v -0.005715 -0.004456 0.013505
v -0.007964 -0.003146 0.011837
v -0.008132 -0.002130 0.011627
v -0.007518 0.000001 0.013662
v -0.002647 -0.004456 0.015049
v -0.005715 -0.004456 0.013828
v -0.008132 -0.002130 0.012096
v -0.000490 -0.003651 0.015469
v -0.006793 -0.003061 0.013652
v -0.007960 -0.002615 0.012239
vn -0.9999 0.0002 0.0105
vn 0.3703 0.4664 0.8033
vn 0.4183 0.4362 -0.7967
vn -0.3469 -0.3475 0.8711
vn -0.5032 -0.8641 -0.0000
vn -0.8469 -0.1295 0.5158
vn 0.4309 0.1573 -0.8886
vn 0.4101 0.2463 -0.8782
vn 0.4732 0.4709 0.7445
vn -0.9866 -0.1632 -0.0000
vn -0.0643 -0.3201 0.9452
vn 0.1607 -0.7619 -0.6275
vn 0.0690 -0.2453 0.9670
vn 0.7067 0.6782 0.2013
vn -0.7195 -0.4951 0.4871
vn -0.4951 -0.0728 0.8658
vn -0.9194 -0.2330 0.3169
vn -0.0486 -0.1345 0.9897
vn -0.2401 0.2283 -0.9435
vn -0.4905 -0.2591 0.8320
vn -0.0003 -1.0000 -0.0000
vn 0.0003 -1.0000 -0.0010
vn 0.0005 -1.0000 0.0060
vn 0.9999 -0.0053 0.0102
vn -1.0000 -0.0005 0.0026
vn 0.2380 -0.0196 0.9711
vn 0.0002 -1.0000 -0.0004
vn -0.0001 -1.0000 0.0018
vn 0.0003 1.0000 0.0062
vn -0.0100 0.9999 0.0043
vn -0.7725 -0.3575 0.5248
vn -0.7681 -0.3828 0.5132
vn -0.8452 -0.1492 0.5133
vn -0.8512 -0.1356 0.5071
vn 0.4369 0.4467 0.7808
vn -1.0000 -0.0000 -0.0000
vn -1.0000 -0.0000 0.0002
vn -0.1045 -0.0311 0.9940
vn -0.0534 -0.0509 0.9973
vn -0.1018 -0.0415 0.9939
vn -0.0444 0.1704 0.9844
vn -0.2139 -0.1343 0.9676
vn -0.2070 -0.1876 0.9602
vn -0.1117 -0.2071 0.9719
vn -0.4988 -0.0686 0.8640
vn -0.2953 -0.0487 0.9542
vn -0.2768 -0.0076 0.9609
vn -0.0351 -0.1040 0.9940
vn -0.4858 -0.2709 0.8310
vn -0.1133 -0.0394 0.9928
vn -0.0996 -0.0330 0.9945
vn 0.0002 1.0000 -0.0003
vn -0.0004 1.0000 0.0004
vn -0.0008 1.0000 0.0014
vn 0.4309 0.4291 0.7939
vn 0.4636 0.4708 0.7506
vn -0.8521 -0.1275 0.5076
vn -0.8465 -0.1346 0.5151
vn -1.0000 0.0004 0.0007
vn -0.9999 -0.0018 0.0099
s 0
f 16//1 6//1 9//1
f 3//2 5//2 4//2
f 4//3 9//3 10//3
f 23//4 11//4 24//4
f 20//5 19//5 24//5
f 25//6 17//6 15//6
f 9//7 13//7 14//7
f 9//8 14//8 10//8
f 12//9 4//9 5//9
f 21//10 20//10 25//10
f 23//11 18//11 26//11
f 13//12 19//12 14//12
f 18//13 16//13 26//13
f 9//14 4//14 6//14
f 27//15 20//15 24//15
f 17//16 11//16 1//16
f 28//17 25//17 20//17
f 8//18 26//18 16//18
f 14//19 21//19 10//19
f 27//20 11//20 17//20
f 23//21 24//21 19//21
f 19//22 13//22 23//22
f 18//23 23//23 13//23
f 16//24 18//24 13//24
f 13//25 16//25 9//25
f 12//26 16//26 6//26
f 22//27 10//27 1//27
f 1//28 4//28 2//28
f 2//29 3//29 4//29
f 4//27 1//27 10//27
f 10//30 15//30 22//30
f 20//5 14//5 19//5
f 17//31 28//31 27//31
f 28//32 20//32 27//32
f 28//33 17//33 25//33
f 17//34 22//34 15//34
f 12//35 6//35 4//35
f 21//36 25//36 10//36
f 25//37 15//37 10//37
f 7//38 8//38 5//38
f 8//39 12//39 5//39
f 5//40 2//40 7//40
f 3//41 2//41 5//41
f 21//10 14//10 20//10
f 7//42 11//42 8//42
f 11//43 23//43 8//43
f 23//44 26//44 8//44
f 1//45 22//45 17//45
f 11//46 7//46 1//46
f 7//47 2//47 1//47
f 16//48 12//48 8//48
f 27//49 24//49 11//49
f 7//50 8//50 2//50
f 8//51 5//51 2//51
f 4//52 10//52 2//52
f 10//53 22//53 2//53
f 22//54 1//54 2//54
f 12//55 6//55 5//55
f 6//56 4//56 5//56
f 15//57 25//57 22//57
f 25//58 17//58 22//58
f 13//59 16//59 6//59
f 13//60 6//60 9//60
