mtllib material.mtl
usemtl material_0
v 0.00995000 0.86467000 0.04956000
v 0.00995000 0.86156000 0.04956000
v 0.00000000 0.86156000 0.05153000
v -0.00586000 0.99612000 -0.20261000
v -0.00605000 0.99646000 -0.20127000
v -0.01048000 1.00038000 -0.20334000
v 0.01303000 1.00599000 -0.20568000
v 0.01208000 0.99956000 -0.20291000
v 0.01129000 1.00023000 -0.20263000
v 0.00000000 0.86467000 -0.00042000
v 0.00000000 0.86156000 -0.00042000
v 0.00995000 0.86156000 0.00156000
v 0.00995000 0.86467000 0.00156000
v -0.00994000 0.86467000 0.00156000
v -0.00994000 0.86156000 0.00156000
v -0.01836000 0.86467000 0.00719000
v -0.00994000 0.86156000 0.00156000
v -0.00994000 0.86467000 0.00156000
v -0.01836000 0.86156000 0.00719000
v -0.02399000 0.86467000 0.01562000
v -0.02399000 0.86156000 0.01562000
v -0.00994000 0.82570000 0.00156000
v -0.01836000 0.82570000 0.00719000
v -0.00994000 0.82280000 0.00156000
v -0.01836000 0.82280000 0.00719000
v -0.02399000 0.82570000 0.01562000
v -0.02399000 0.82280000 0.01562000
v -0.02597000 0.82570000 0.02556000
v -0.02597000 0.82280000 0.02556000
v -0.02399000 0.82570000 0.03550000
v -0.02597000 0.86467000 0.02556000
v -0.02597000 0.86156000 0.02556000
v -0.02399000 0.86467000 0.03550000
v -0.02399000 0.86156000 0.03550000
v -0.01836000 0.86467000 0.04392000
v -0.01836000 0.86156000 0.04392000
v -0.00994000 0.86467000 0.04956000
v -0.00994000 0.86156000 0.04956000
v -0.01836000 0.82570000 0.04392000
v -0.00994000 0.82570000 0.04956000
v -0.01836000 0.82280000 0.04392000
v -0.00994000 0.82280000 0.04956000
v -0.02399000 0.82280000 0.03550000
v 0.00000000 0.86467000 0.05153000
v -0.00994000 0.86156000 0.04956000
v -0.00994000 0.86467000 0.04956000
v 0.01837000 0.86467000 0.04392000
v 0.00995000 0.86156000 0.04956000
v 0.00995000 0.86467000 0.04956000
v 0.01837000 0.86156000 0.04392000
v 0.02400000 0.86467000 0.03550000
v 0.02400000 0.86156000 0.03550000
v 0.00995000 0.82570000 0.04956000
v 0.01837000 0.82570000 0.04392000
v 0.00995000 0.82280000 0.04956000
v 0.01837000 0.82280000 0.04392000
v 0.02400000 0.82570000 0.03550000
v 0.02400000 0.82280000 0.03550000
v 0.02598000 0.82570000 0.02556000
v 0.02598000 0.82280000 0.02556000
v 0.02598000 0.86467000 0.02556000
v 0.02598000 0.86156000 0.02556000
v 0.02400000 0.86467000 0.01562000
v 0.02400000 0.86156000 0.01562000
v 0.01837000 0.86467000 0.00719000
v 0.01837000 0.86156000 0.00719000
v 0.00995000 0.86467000 0.00156000
v 0.00995000 0.86156000 0.00156000
v 0.01837000 0.82570000 0.00719000
v 0.00995000 0.82570000 0.00156000
v 0.01837000 0.82280000 0.00719000
v 0.00995000 0.82280000 0.00156000
v 0.02400000 0.82280000 0.01562000
v 0.02400000 0.82570000 0.01562000
v 0.00752000 0.86156000 0.04669000
v 0.00752000 0.82570000 0.04669000
v 0.00000000 0.82570000 0.04897000
v 0.00000000 0.86156000 0.04897000
v -0.00751000 0.82570000 0.04669000
v -0.00751000 0.86156000 0.04669000
v 0.02164000 0.86156000 0.03452000
v 0.01664000 0.82570000 0.04091000
v 0.01664000 0.86156000 0.04091000
v 0.02164000 0.82570000 0.03452000
v 0.02342000 0.86156000 0.02556000
v 0.02342000 0.82570000 0.02556000
v 0.02164000 0.86156000 0.01660000
v 0.02164000 0.82570000 0.01660000
v 0.01664000 0.86156000 0.01020000
v 0.01664000 0.82570000 0.01020000
v 0.00000000 0.86156000 0.00215000
v 0.00752000 0.82570000 0.00442000
v 0.00752000 0.86156000 0.00442000
v 0.00000000 0.82570000 0.00215000
v -0.00751000 0.86156000 0.00442000
v -0.00751000 0.82570000 0.00442000
v -0.02163000 0.86156000 0.01660000
v -0.01663000 0.82570000 0.01020000
v -0.01663000 0.86156000 0.01020000
v -0.02163000 0.82570000 0.01660000
v -0.02341000 0.86156000 0.02556000
v -0.02341000 0.82570000 0.02556000
v -0.02163000 0.86156000 0.03452000
v -0.02163000 0.82570000 0.03452000
v -0.01663000 0.86156000 0.04091000
v -0.01663000 0.82570000 0.04091000
v 0.00995000 0.82570000 0.04956000
v 0.00995000 0.82280000 0.04956000
v 0.00000000 0.82280000 0.05153000
v 0.00000000 0.82570000 0.05153000
v -0.00994000 0.82280000 0.04956000
v -0.00994000 0.82570000 0.04956000
v 0.00000000 0.82570000 -0.00042000
v 0.00995000 0.82280000 0.00156000
v 0.00995000 0.82570000 0.00156000
v 0.00000000 0.82280000 -0.00042000
v -0.00994000 0.82570000 0.00156000
v -0.00994000 0.82280000 0.00156000
v 0.00995000 0.86156000 0.04956000
v 0.00752000 0.86156000 0.04669000
v 0.00000000 0.86156000 0.04897000
v 0.00000000 0.86156000 0.05153000
v -0.00751000 0.86156000 0.04669000
v -0.00994000 0.86156000 0.04956000
v 0.00000000 0.82570000 0.05153000
v 0.00752000 0.82570000 0.04669000
v 0.00995000 0.82570000 0.04956000
v 0.00000000 0.82570000 0.04897000
v -0.00994000 0.82570000 0.04956000
v -0.00751000 0.82570000 0.04669000
v 0.00995000 0.82570000 0.04956000
v 0.00752000 0.82570000 0.04669000
v 0.00752000 0.86156000 0.04669000
v 0.00995000 0.86156000 0.04956000
v -0.00994000 0.86156000 0.04956000
v -0.00751000 0.86156000 0.04669000
v -0.00751000 0.82570000 0.04669000
v -0.00994000 0.82570000 0.04956000
v 0.02400000 0.86156000 0.03550000
v 0.01664000 0.86156000 0.04091000
v 0.01837000 0.86156000 0.04392000
v 0.02164000 0.86156000 0.03452000
v 0.02598000 0.86156000 0.02556000
v 0.02342000 0.86156000 0.02556000
v 0.02400000 0.86156000 0.01562000
v 0.02164000 0.86156000 0.01660000
v 0.01837000 0.86156000 0.00719000
v 0.01664000 0.86156000 0.01020000
v 0.01837000 0.86156000 0.04392000
v 0.01664000 0.86156000 0.04091000
v 0.01664000 0.82570000 0.04091000
v 0.01837000 0.82570000 0.04392000
v 0.01837000 0.82570000 0.04392000
v 0.01664000 0.82570000 0.04091000
v 0.02164000 0.82570000 0.03452000
v 0.02400000 0.82570000 0.03550000
v 0.02342000 0.82570000 0.02556000
v 0.02598000 0.82570000 0.02556000
v 0.02164000 0.82570000 0.01660000
v 0.02400000 0.82570000 0.01562000
v 0.01664000 0.82570000 0.01020000
v 0.01837000 0.82570000 0.00719000
v 0.01837000 0.82570000 0.00719000
v 0.01664000 0.82570000 0.01020000
v 0.01664000 0.86156000 0.01020000
v 0.01837000 0.86156000 0.00719000
v 0.00000000 0.86156000 -0.00042000
v 0.00752000 0.86156000 0.00442000
v 0.00995000 0.86156000 0.00156000
v 0.00000000 0.86156000 0.00215000
v -0.00994000 0.86156000 0.00156000
v -0.00751000 0.86156000 0.00442000
v 0.00995000 0.86156000 0.00156000
v 0.00752000 0.86156000 0.00442000
v 0.00752000 0.82570000 0.00442000
v 0.00995000 0.82570000 0.00156000
v 0.00995000 0.82570000 0.00156000
v 0.00752000 0.82570000 0.00442000
v 0.00000000 0.82570000 0.00215000
v 0.00000000 0.82570000 -0.00042000
v -0.00751000 0.82570000 0.00442000
v -0.00994000 0.82570000 0.00156000
v -0.00994000 0.82570000 0.00156000
v -0.00751000 0.82570000 0.00442000
v -0.00751000 0.86156000 0.00442000
v -0.00994000 0.86156000 0.00156000
v -0.02399000 0.86156000 0.01562000
v -0.01663000 0.86156000 0.01020000
v -0.01836000 0.86156000 0.00719000
v -0.02163000 0.86156000 0.01660000
v -0.02597000 0.86156000 0.02556000
v -0.02341000 0.86156000 0.02556000
v -0.02399000 0.86156000 0.03550000
v -0.02163000 0.86156000 0.03452000
v -0.01836000 0.86156000 0.04392000
v -0.01663000 0.86156000 0.04091000
v -0.01836000 0.86156000 0.00719000
v -0.01663000 0.86156000 0.01020000
v -0.01663000 0.82570000 0.01020000
v -0.01836000 0.82570000 0.00719000
v -0.01836000 0.82570000 0.00719000
v -0.01663000 0.82570000 0.01020000
v -0.02163000 0.82570000 0.01660000
v -0.02399000 0.82570000 0.01562000
v -0.02341000 0.82570000 0.02556000
v -0.02597000 0.82570000 0.02556000
v -0.02163000 0.82570000 0.03452000
v -0.02399000 0.82570000 0.03550000
v -0.01663000 0.82570000 0.04091000
v -0.01836000 0.82570000 0.04392000
v -0.01836000 0.82570000 0.04392000
v -0.01663000 0.82570000 0.04091000
v -0.01663000 0.86156000 0.04091000
v -0.01836000 0.86156000 0.04392000
v 0.00587000 1.01408000 -0.21211000
v 0.00606000 1.01500000 -0.21107000
v 0.01049000 1.01108000 -0.20900000
v 0.01016000 1.01028000 -0.21010000
v 0.01211000 1.00573000 -0.20617000
v 0.01173000 1.00510000 -0.20736000
v 0.01303000 1.00599000 -0.20568000
v 0.01129000 1.01175000 -0.20872000
v 0.01129000 1.00023000 -0.20263000
v 0.01049000 1.00038000 -0.20334000
v 0.01016000 0.99992000 -0.20462000
v 0.00000000 1.01547000 -0.21284000
v 0.00000000 1.01643000 -0.21183000
v 0.00606000 1.01500000 -0.21107000
v 0.00587000 1.01408000 -0.21211000
v -0.00586000 1.01408000 -0.21211000
v -0.00605000 1.01500000 -0.21107000
v -0.01015000 1.01028000 -0.21010000
v -0.00605000 1.01500000 -0.21107000
v -0.00586000 1.01408000 -0.21211000
v -0.01048000 1.01108000 -0.20900000
v -0.01210000 1.00573000 -0.20617000
v -0.01128000 1.01175000 -0.20872000
v -0.01302000 1.00599000 -0.20568000
v 0.00606000 0.99646000 -0.20127000
v 0.00587000 0.99612000 -0.20261000
v 0.01049000 0.99912000 -0.20572000
v 0.00606000 0.99520000 -0.20365000
v 0.01211000 1.00447000 -0.20855000
v 0.01303000 1.00421000 -0.20904000
v 0.01129000 0.99845000 -0.20600000
v 0.00606000 1.01500000 -0.21107000
v 0.01129000 1.01175000 -0.20872000
v 0.01049000 1.01108000 -0.20900000
v 0.00652000 1.01596000 -0.21095000
v 0.00000000 1.01643000 -0.21183000
v 0.00000000 1.01751000 -0.21177000
v -0.00605000 1.01500000 -0.21107000
v -0.00651000 1.01596000 -0.21095000
v -0.01048000 1.01108000 -0.20900000
v -0.01128000 1.01175000 -0.20872000
v -0.01128000 1.00023000 -0.20263000
v -0.01015000 0.99992000 -0.20462000
v -0.00605000 0.99520000 -0.20365000
v -0.01048000 0.99912000 -0.20572000
v -0.01172000 1.00510000 -0.20736000
v -0.01210000 1.00447000 -0.20855000
v -0.01048000 1.00982000 -0.21138000
v -0.00605000 0.99646000 -0.20127000
v -0.01128000 1.00023000 -0.20263000
v -0.01048000 1.00038000 -0.20334000
v -0.00651000 0.99602000 -0.20041000
v 0.00000000 0.99503000 -0.20051000
v 0.00000000 0.99447000 -0.19959000
v 0.00000000 0.99474000 -0.20188000
v -0.00586000 0.99612000 -0.20261000
v 0.00000000 0.99377000 -0.20289000
v -0.00605000 0.99520000 -0.20365000
v 0.00587000 0.99612000 -0.20261000
v 0.00606000 0.99646000 -0.20127000
v 0.00652000 0.99602000 -0.20041000
v 0.01049000 1.00038000 -0.20334000
v 0.01129000 1.00023000 -0.20263000
v 0.00652000 1.01596000 -0.21095000
v 0.01208000 1.01190000 -0.20943000
v 0.01129000 1.01175000 -0.20872000
v 0.00698000 1.01641000 -0.21182000
v 0.00000000 1.01751000 -0.21177000
v 0.00000000 1.01806000 -0.21269000
v -0.00651000 1.01596000 -0.21095000
v -0.00697000 1.01641000 -0.21182000
v -0.01128000 1.01175000 -0.20872000
v -0.01207000 1.01190000 -0.20943000
v -0.01302000 1.00599000 -0.20568000
v -0.01394000 1.00573000 -0.20617000
v -0.01207000 1.01190000 -0.20943000
v -0.01128000 1.01175000 -0.20872000
v -0.01128000 1.00023000 -0.20263000
v -0.01207000 0.99956000 -0.20291000
v -0.01433000 1.00510000 -0.20736000
v -0.01241000 1.01144000 -0.21071000
v -0.01241000 0.99877000 -0.20401000
v -0.00697000 0.99505000 -0.20053000
v -0.00716000 0.99413000 -0.20156000
v -0.00651000 0.99602000 -0.20041000
v -0.01207000 0.99956000 -0.20291000
v -0.01128000 1.00023000 -0.20263000
v -0.00697000 0.99505000 -0.20053000
v 0.00000000 0.99447000 -0.19959000
v 0.00000000 0.99340000 -0.19965000
v 0.00652000 0.99602000 -0.20041000
v 0.00698000 0.99505000 -0.20053000
v 0.01129000 1.00023000 -0.20263000
v 0.01208000 0.99956000 -0.20291000
v 0.01395000 1.00573000 -0.20617000
v 0.01242000 0.99877000 -0.20401000
v 0.01434000 1.00510000 -0.20736000
v 0.01208000 1.01190000 -0.20943000
v 0.01208000 0.99831000 -0.20529000
v 0.01129000 1.01175000 -0.20872000
v 0.00717000 1.01607000 -0.21316000
v 0.00000000 1.01777000 -0.21406000
v -0.00716000 1.01607000 -0.21316000
v 0.00698000 1.01515000 -0.21420000
v 0.00000000 1.01680000 -0.21507000
v -0.00716000 1.01607000 -0.21316000
v -0.00697000 1.01641000 -0.21182000
v -0.00697000 1.01515000 -0.21420000
v -0.01207000 1.01064000 -0.21181000
v 0.00000000 0.99340000 -0.19965000
v -0.00716000 0.99413000 -0.20156000
v -0.00697000 0.99505000 -0.20053000
v 0.00000000 0.99243000 -0.20066000
v 0.00698000 0.99505000 -0.20053000
v 0.00717000 0.99413000 -0.20156000
v 0.00000000 0.99214000 -0.20203000
v 0.00698000 0.99379000 -0.20290000
v 0.00717000 0.99413000 -0.20156000
v 0.00698000 0.99505000 -0.20053000
v 0.00698000 0.99379000 -0.20290000
v 0.01242000 1.01144000 -0.21071000
v 0.00698000 1.01641000 -0.21182000
v 0.00717000 1.01607000 -0.21316000
v 0.01208000 1.01064000 -0.21181000
v 0.00698000 1.01515000 -0.21420000
v -0.00697000 1.01515000 -0.21420000
v -0.00697000 0.99379000 -0.20290000
v -0.01207000 0.99831000 -0.20529000
v -0.01394000 1.00447000 -0.20855000
v -0.01128000 1.00997000 -0.21209000
v -0.01302000 1.00421000 -0.20904000
v -0.01128000 0.99845000 -0.20600000
v -0.00697000 0.99379000 -0.20290000
v -0.00651000 0.99424000 -0.20377000
v -0.01128000 0.99845000 -0.20600000
v -0.01207000 0.99831000 -0.20529000
v 0.00000000 0.99270000 -0.20295000
v 0.00652000 0.99424000 -0.20377000
v 0.01208000 0.99831000 -0.20529000
v 0.01129000 0.99845000 -0.20600000
v 0.00698000 1.01515000 -0.21420000
v 0.01129000 1.00997000 -0.21209000
v 0.01208000 1.01064000 -0.21181000
v 0.00652000 1.01419000 -0.21432000
v 0.00000000 1.01680000 -0.21507000
v 0.00000000 1.01573000 -0.21513000
v -0.00697000 1.01515000 -0.21420000
v -0.00651000 1.01419000 -0.21432000
v -0.01207000 1.01064000 -0.21181000
v -0.01128000 1.00997000 -0.21209000
v 0.01129000 1.00997000 -0.21209000
v 0.01303000 1.00421000 -0.20904000
v 0.01395000 1.00447000 -0.20855000
v 0.01129000 0.99845000 -0.20600000
v 0.00652000 1.01419000 -0.21432000
v 0.01049000 1.00982000 -0.21138000
v 0.01129000 1.00997000 -0.21209000
v 0.00606000 1.01374000 -0.21345000
v 0.00000000 1.01573000 -0.21513000
v 0.00000000 1.01518000 -0.21421000
v -0.00651000 1.01419000 -0.21432000
v -0.00605000 1.01374000 -0.21345000
v -0.01128000 1.00997000 -0.21209000
v -0.01048000 1.00982000 -0.21138000
v -0.01302000 1.00421000 -0.20904000
v -0.01128000 1.00997000 -0.21209000
v -0.01128000 0.99845000 -0.20600000
v -0.00605000 1.01374000 -0.21345000
v -0.00651000 0.99424000 -0.20377000
v -0.00605000 0.99520000 -0.20365000
v -0.01048000 0.99912000 -0.20572000
v -0.01128000 0.99845000 -0.20600000
v 0.00000000 0.99270000 -0.20295000
v 0.00000000 0.99377000 -0.20289000
v 0.00652000 0.99424000 -0.20377000
v 0.00606000 0.99520000 -0.20365000
v 0.01129000 0.99845000 -0.20600000
v 0.01049000 0.99912000 -0.20572000
v 0.01129000 1.00997000 -0.21209000
v 0.01049000 1.00982000 -0.21138000
v 0.00606000 1.01374000 -0.21345000
v 0.00606000 0.99520000 -0.20365000
v 0.02883000 0.86467000 0.01362000
v 0.02266000 0.86986000 0.01618000
v 0.01734000 0.86986000 0.00822000
v 0.02207000 0.86467000 0.00349000
v 0.03121000 0.86467000 0.02556000
v 0.00939000 0.86986000 0.00291000
v 0.01195000 0.86467000 -0.00327000
v 0.02452000 0.86986000 0.02556000
v 0.02883000 0.86467000 0.03750000
v 0.00000000 0.86986000 0.00104000
v 0.00000000 0.86467000 -0.00565000
v 0.02266000 0.86986000 0.03494000
v 0.02207000 0.86467000 0.04762000
v -0.00938000 0.86986000 0.00291000
v -0.01194000 0.86467000 -0.00327000
v 0.01734000 0.86986000 0.04289000
v 0.01195000 0.86467000 0.05439000
v -0.01733000 0.86986000 0.00822000
v -0.02206000 0.86467000 0.00349000
v 0.00939000 0.86986000 0.04821000
v 0.00000000 0.86467000 0.05676000
v -0.02264000 0.86986000 0.01618000
v -0.02882000 0.86467000 0.01362000
v 0.00000000 0.86986000 0.05007000
v -0.01194000 0.86467000 0.05439000
v -0.02451000 0.86986000 0.02556000
v -0.03120000 0.86467000 0.02556000
v -0.00938000 0.86986000 0.04821000
v -0.02206000 0.86467000 0.04762000
v -0.02264000 0.86986000 0.03494000
v -0.02882000 0.86467000 0.03750000
v -0.01733000 0.86986000 0.04289000
v -0.01560000 0.87372000 0.01910000
v -0.01688000 0.87372000 0.02556000
v -0.01560000 0.87372000 0.03202000
v -0.01194000 0.87372000 0.03750000
v -0.00646000 0.87372000 0.04116000
v 0.00000000 0.87372000 0.04245000
v -0.01194000 0.87372000 0.01362000
v 0.00647000 0.87372000 0.04116000
v -0.00646000 0.87372000 0.00996000
v 0.01195000 0.87372000 0.03750000
v 0.00000000 0.87372000 0.00867000
v 0.01561000 0.87372000 0.03202000
v 0.00647000 0.87372000 0.00996000
v 0.01689000 0.87372000 0.02556000
v 0.01195000 0.87372000 0.01362000
v 0.01561000 0.87372000 0.01910000
v -0.00329000 0.87610000 0.01760000
v 0.00000000 0.87610000 0.01695000
v 0.00000000 0.87690000 0.02556000
v -0.00608000 0.87610000 0.01947000
v 0.00330000 0.87610000 0.01760000
v -0.00795000 0.87610000 0.02226000
v 0.00609000 0.87610000 0.01947000
v -0.00860000 0.87610000 0.02556000
v 0.00796000 0.87610000 0.02226000
v -0.00795000 0.87610000 0.02885000
v 0.00862000 0.87610000 0.02556000
v -0.00608000 0.87610000 0.03165000
v 0.00796000 0.87610000 0.02885000
v -0.00329000 0.87610000 0.03351000
v 0.00609000 0.87610000 0.03165000
v 0.00000000 0.87610000 0.03417000
v 0.00330000 0.87610000 0.03351000
v 0.02207000 0.86467000 0.00349000
v 0.01837000 0.86467000 0.00719000
v 0.02400000 0.86467000 0.01562000
v 0.02883000 0.86467000 0.01362000
v 0.01195000 0.86467000 -0.00327000
v 0.02598000 0.86467000 0.02556000
v 0.00995000 0.86467000 0.00156000
v 0.03121000 0.86467000 0.02556000
v 0.00000000 0.86467000 -0.00565000
v 0.02400000 0.86467000 0.03550000
v 0.00000000 0.86467000 -0.00042000
v 0.02883000 0.86467000 0.03750000
v -0.01194000 0.86467000 -0.00327000
v 0.01837000 0.86467000 0.04392000
v -0.00994000 0.86467000 0.00156000
v 0.02207000 0.86467000 0.04762000
v -0.02206000 0.86467000 0.00349000
v 0.00995000 0.86467000 0.04956000
v -0.01836000 0.86467000 0.00719000
v 0.01195000 0.86467000 0.05439000
v -0.02882000 0.86467000 0.01362000
v 0.00000000 0.86467000 0.05153000
v -0.02399000 0.86467000 0.01562000
v 0.00000000 0.86467000 0.05676000
v -0.03120000 0.86467000 0.02556000
v -0.00994000 0.86467000 0.04956000
v -0.02597000 0.86467000 0.02556000
v -0.01194000 0.86467000 0.05439000
v -0.02882000 0.86467000 0.03750000
v -0.01836000 0.86467000 0.04392000
v -0.02399000 0.86467000 0.03550000
v -0.02206000 0.86467000 0.04762000
vn 0.38268290 0.00000000 0.92387970
vn 0.53171100 0.00000000 0.84692590
vn 0.00000000 0.00000000 1.00000000
vn 0.49998910 0.76560680 -0.40479260
vn 0.39925900 0.89271010 0.20895180
vn 0.69153460 0.63433890 0.34553420
vn 0.10620630 0.46475680 0.87904580
vn 0.73629030 -0.12973110 0.66411320
vn 0.09198302 0.41780200 0.90386980
vn 0.00000000 0.00000000 -1.00000000
vn 0.00000000 0.00000000 -1.00000000
vn 0.53171100 0.00000000 -0.84692590
vn 0.38268290 0.00000000 -0.92387970
vn -0.38268700 0.00000000 -0.92387810
vn -0.53171510 0.00000000 -0.84692320
vn -0.70710720 0.00000000 -0.70710630
vn -0.53171510 0.00000000 -0.84692320
vn -0.38268700 0.00000000 -0.92387810
vn -0.57898690 0.00000000 -0.81533690
vn -0.92387490 0.00000000 -0.38269490
vn -0.92387490 0.00000000 -0.38269490
vn -0.53306520 0.00000000 -0.84607420
vn -0.57768610 0.00000000 -0.81625910
vn -0.38268610 0.00000000 -0.92387840
vn -0.70710720 0.00000000 -0.70710630
vn -0.92387490 0.00000000 -0.38269490
vn -0.92387490 0.00000000 -0.38269490
vn -1.00000000 0.00000000 0.00000000
vn -1.00000000 0.00000000 0.00000000
vn -0.92387490 0.00000000 0.38269490
vn -1.00000000 0.00000000 0.00000000
vn -1.00000000 0.00000000 0.00000000
vn -0.92387490 0.00000000 0.38269490
vn -0.92387490 0.00000000 0.38269490
vn -0.70710770 0.00000000 0.70710580
vn -0.57898690 0.00000000 0.81533690
vn -0.38268700 0.00000000 0.92387810
vn -0.53171510 0.00000000 0.84692320
vn -0.57768610 0.00000000 0.81625910
vn -0.53306580 0.00000000 0.84607370
vn -0.70710770 0.00000000 0.70710580
vn -0.38268700 0.00000000 0.92387810
vn -0.92387490 0.00000000 0.38269490
vn 0.00000000 0.00000000 1.00000000
vn -0.53171510 0.00000000 0.84692320
vn -0.38268700 0.00000000 0.92387810
vn 0.70710770 0.00000000 0.70710580
vn 0.53171100 0.00000000 0.84692590
vn 0.38268290 0.00000000 0.92387970
vn 0.57898280 0.00000000 0.81533980
vn 0.92387860 0.00000000 0.38268580
vn 0.92387860 0.00000000 0.38268580
vn 0.53306090 0.00000000 0.84607680
vn 0.57768200 0.00000100 0.81626190
vn 0.38268290 -0.00000100 0.92387970
vn 0.70710770 0.00000500 0.70710580
vn 0.92387890 0.00000600 0.38268490
vn 0.92387890 0.00000600 0.38268490
vn 1.00000000 0.00000000 0.00000000
vn 1.00000000 0.00000000 0.00000000
vn 1.00000000 0.00000000 0.00000000
vn 1.00000000 0.00000000 0.00000000
vn 0.92387860 0.00000000 -0.38268580
vn 0.92387860 0.00000000 -0.38268580
vn 0.70710770 0.00000000 -0.70710580
vn 0.57898320 0.00000000 -0.81533950
vn 0.38268290 0.00000000 -0.92387970
vn 0.53171100 0.00000000 -0.84692590
vn 0.57768200 0.00000000 -0.81626190
vn 0.53306090 0.00000000 -0.84607680
vn 0.70710830 0.00000000 -0.70710520
vn 0.38268410 0.00000000 -0.92387930
vn 0.92387860 0.00000000 -0.38268580
vn 0.92387860 0.00000000 -0.38268580
vn 0.28979190 0.00000000 0.95708970
vn 0.28979190 0.00000000 0.95708970
vn 0.00000100 0.00000000 1.00000000
vn 0.00000100 0.00000000 1.00000000
vn -0.28979400 -0.00000100 0.95708910
vn -0.28979400 -0.00000100 0.95708910
vn 0.91490510 -0.00000100 0.40366910
vn 0.78826410 -0.00000300 0.61533710
vn 0.78826410 -0.00000300 0.61533710
vn 0.91490600 -0.00000100 0.40366700
vn 1.00000000 0.00000000 0.00000300
vn 1.00000000 0.00000000 0.00000300
vn 0.91490730 0.00000300 -0.40366410
vn 0.91490690 0.00000300 -0.40366490
vn 0.78826490 0.00000600 -0.61533590
vn 0.78826540 0.00000600 -0.61533530
vn 0.00000100 0.00000000 -1.00000000
vn 0.28979190 0.00000000 -0.95708970
vn 0.28979190 0.00000000 -0.95708970
vn 0.00000100 0.00000000 -1.00000000
vn -0.28979310 0.00000000 -0.95708940
vn -0.28979310 0.00000000 -0.95708940
vn -0.91490510 -0.00000100 -0.40366910
vn -0.78826320 0.00000000 -0.61533820
vn -0.78826320 0.00000000 -0.61533820
vn -0.91490510 -0.00000100 -0.40366910
vn -1.00000000 -0.00000300 0.00000300
vn -1.00000000 -0.00000300 0.00000300
vn -0.91490510 -0.00000400 0.40366910
vn -0.91490510 -0.00000400 0.40366910
vn -0.78825800 -0.00000300 0.61534490
vn -0.78825800 -0.00000300 0.61534490
vn 0.53306090 0.00000000 0.84607680
vn 0.38268290 -0.00000100 0.92387970
vn 0.00000000 0.00000000 1.00000000
vn 0.00000000 0.00000000 1.00000000
vn -0.38268700 0.00000000 0.92387810
vn -0.53306580 0.00000000 0.84607370
vn 0.00000000 0.00000000 -1.00000000
vn 0.38268410 0.00000000 -0.92387930
vn 0.53306090 0.00000000 -0.84607680
vn 0.00000000 0.00000000 -1.00000000
vn -0.53306520 0.00000000 -0.84607420
vn -0.38268610 0.00000000 -0.92387840
vn 0.00000000 -1.00000000 0.00000000
vn 0.00000000 -1.00000000 0.00000000
vn 0.00000000 -1.00000000 0.00000000
vn 0.00000000 -1.00000000 0.00000000
vn 0.00000000 -1.00000000 0.00000000
vn 0.00000000 -1.00000000 0.00000000
vn 0.00000000 1.00000000 0.00000000
vn 0.00000000 1.00000000 0.00000000
vn 0.00000000 1.00000000 0.00000000
vn 0.00000000 1.00000000 0.00000000
vn 0.00000000 1.00000000 0.00000000
vn 0.00000000 1.00000000 0.00000000
vn -0.76256440 0.00000000 0.64691230
vn -0.76256440 0.00000000 0.64691230
vn -0.76256440 0.00000000 0.64691230
vn -0.76256440 0.00000000 0.64691230
vn 0.76256300 0.00000000 0.64691390
vn 0.76256300 0.00000000 0.64691390
vn 0.76256300 0.00000000 0.64691390
vn 0.76256300 0.00000000 0.64691390
vn -0.00000700 -1.00000000 -0.00000300
vn -0.00000600 -1.00000000 -0.00000500
vn -0.00000600 -1.00000000 -0.00000500
vn -0.00000700 -1.00000000 -0.00000300
vn -0.00000600 -1.00000000 0.00000000
vn -0.00000600 -1.00000000 0.00000000
vn -0.00000200 -1.00000000 0.00000100
vn -0.00000200 -1.00000000 0.00000100
vn 0.00000000 -1.00000000 0.00000000
vn 0.00000000 -1.00000000 0.00000000
vn 0.86720070 0.00000300 -0.49795880
vn 0.86720070 0.00000300 -0.49795880
vn 0.86720070 0.00000300 -0.49795880
vn 0.86720070 0.00000300 -0.49795880
vn 0.00000500 1.00000000 0.00000500
vn 0.00000500 1.00000000 0.00000500
vn 0.00000700 1.00000000 0.00000300
vn 0.00000700 1.00000000 0.00000300
vn 0.00000700 1.00000000 0.00000000
vn 0.00000700 1.00000000 0.00000000
vn 0.00000200 1.00000000 -0.00000100
vn 0.00000200 1.00000000 -0.00000100
vn 0.00000000 1.00000000 0.00000000
vn 0.00000000 1.00000000 0.00000000
vn 0.86720740 0.00000000 0.49794720
vn 0.86720740 0.00000000 0.49794720
vn 0.86720740 0.00000000 0.49794720
vn 0.86720740 0.00000000 0.49794720
vn 0.00000000 -1.00000000 0.00000000
vn 0.00000000 -1.00000000 0.00000000
vn 0.00000000 -1.00000000 0.00000000
vn 0.00000000 -1.00000000 0.00000000
vn 0.00000000 -1.00000000 0.00000000
vn 0.00000000 -1.00000000 0.00000000
vn -0.76256490 0.00000000 -0.64691170
vn -0.76256490 0.00000000 -0.64691170
vn -0.76256490 0.00000000 -0.64691170
vn -0.76256490 0.00000000 -0.64691170
vn 0.00000000 1.00000000 0.00000000
vn 0.00000000 1.00000000 0.00000000
vn 0.00000000 1.00000000 0.00000000
vn 0.00000000 1.00000000 0.00000000
vn 0.00000000 1.00000000 0.00000000
vn 0.00000000 1.00000000 0.00000000
vn 0.76256300 0.00000000 -0.64691390
vn 0.76256300 0.00000000 -0.64691390
vn 0.76256300 0.00000000 -0.64691390
vn 0.76256300 0.00000000 -0.64691390
vn 0.00000000 -1.00000000 0.00000000
vn 0.00000000 -1.00000000 0.00000000
vn 0.00000000 -1.00000000 0.00000000
vn 0.00000000 -1.00000000 0.00000000
vn 0.00000000 -1.00000000 0.00000000
vn 0.00000000 -1.00000000 0.00000000
vn 0.00000000 -1.00000000 0.00000000
vn 0.00000000 -1.00000000 0.00000000
vn 0.00000000 -1.00000000 0.00000000
vn 0.00000000 -1.00000000 0.00000000
vn -0.86719930 0.00000300 0.49796120
vn -0.86719930 0.00000300 0.49796120
vn -0.86719930 0.00000300 0.49796120
vn -0.86719930 0.00000300 0.49796120
vn 0.00000000 1.00000000 0.00000000
vn 0.00000000 1.00000000 0.00000000
vn 0.00000000 1.00000000 0.00000000
vn 0.00000000 1.00000000 0.00000000
vn 0.00000000 1.00000000 0.00000000
vn 0.00000000 1.00000000 0.00000000
vn 0.00000000 1.00000000 0.00000000
vn 0.00000000 1.00000000 0.00000000
vn 0.00000000 1.00000000 0.00000000
vn 0.00000000 1.00000000 0.00000000
vn -0.86719550 0.00000000 -0.49796760
vn -0.86719550 0.00000000 -0.49796760
vn -0.86719550 0.00000000 -0.49796760
vn -0.86719550 0.00000000 -0.49796760
vn -0.49999210 -0.76560690 0.40478890
vn -0.39927260 -0.32999080 0.85538730
vn -0.69154760 -0.07159074 0.71877440
vn -0.86601850 -0.44202710 0.23371770
vn -0.79852680 0.28136650 0.53215400
vn -1.00000000 -0.00000151 -0.00000261
vn 0.10620630 0.46475680 0.87904580
vn 0.09197718 0.51170310 0.85422480
vn 0.09198302 0.41780200 0.90386980
vn -0.69153230 0.63433390 0.34554820
vn -0.86602220 0.44202240 -0.23371320
vn 0.00000055 -0.88404740 0.46739720
vn -0.00000050 -0.42456330 0.90539820
vn -0.39927260 -0.32999080 0.85538730
vn -0.49999210 -0.76560690 0.40478890
vn 0.49998670 -0.76561470 0.40478070
vn 0.39927950 -0.32999480 0.85538250
vn 0.86602480 -0.44202460 0.23369920
vn 0.39927950 -0.32999480 0.85538250
vn 0.49998670 -0.76561470 0.40478070
vn 0.69155270 -0.07160751 0.71876780
vn 0.79852740 0.28136240 0.53215530
vn -0.09198322 0.51171390 0.85421780
vn -0.10621570 0.46475540 0.87904520
vn -0.39925360 0.89271140 0.20895690
vn -0.49999140 0.76559810 -0.40480630
vn -0.69154070 0.07160033 -0.71878020
vn -0.39926000 0.32997940 -0.85539760
vn -0.79852250 -0.28136350 -0.53216210
vn 0.10620660 -0.46476140 -0.87904330
vn 0.09197654 -0.51170400 -0.85422440
vn -0.39927260 -0.32999080 0.85538730
vn 0.09197718 0.51170310 0.85422480
vn -0.69154760 -0.07159074 0.71877440
vn 0.05310090 0.54606410 0.83605870
vn -0.00000050 -0.42456330 0.90539820
vn -0.00000112 0.55864420 0.82940730
vn 0.39927950 -0.32999480 0.85538250
vn -0.05311061 0.54607320 0.83605220
vn 0.69155270 -0.07160751 0.71876780
vn -0.09198322 0.51171390 0.85421780
vn -0.09199137 0.41779470 0.90387240
vn 0.86602930 0.44201560 -0.23370000
vn 0.39926730 0.32998120 -0.85539350
vn 0.69154800 0.07161433 -0.71877180
vn 1.00000000 -0.00000089 -0.00000437
vn 0.79852630 -0.28136250 -0.53215660
vn 0.69155060 -0.63433190 -0.34551520
vn 0.39925900 0.89271010 0.20895180
vn -0.09199137 0.41779470 0.90387240
vn 0.69153460 0.63433890 0.34553420
vn -0.05311090 0.38343630 0.92203900
vn 0.00000059 0.98728470 0.15896200
vn 0.00000108 0.37085430 0.92869100
vn -0.00000088 0.88403670 -0.46741750
vn 0.49998910 0.76560680 -0.40479260
vn -0.00000056 0.42454980 -0.90540460
vn 0.39926730 0.32998120 -0.85539350
vn -0.49999140 0.76559810 -0.40480630
vn -0.39925360 0.89271140 0.20895690
vn 0.05310364 0.38343110 0.92204160
vn -0.69153230 0.63433390 0.34554820
vn 0.09198302 0.41780200 0.90386980
vn 0.05310090 0.54606410 0.83605870
vn 0.73630090 0.62187100 0.26671640
vn 0.09197718 0.51170310 0.85422480
vn 0.42509890 0.89698690 0.12126590
vn -0.00000112 0.55864420 0.82940730
vn 0.00000032 0.99768350 0.06802677
vn -0.05311061 0.54607320 0.83605220
vn -0.42509230 0.89698870 0.12127530
vn -0.09198322 0.51171390 0.85421780
vn -0.73629210 0.62187350 0.26673460
vn -0.10621570 0.46475540 0.87904520
vn -0.85019230 0.24607170 0.46542630
vn -0.73629210 0.62187350 0.26673460
vn -0.09198322 0.51171390 0.85421780
vn -0.09199137 0.41779470 0.90387240
vn -0.73627690 -0.12972080 0.66413000
vn -1.00000000 0.00000000 -0.00000159
vn -0.86603300 0.44201240 -0.23369200
vn -0.86602910 -0.44201510 0.23370130
vn -0.42508480 -0.40482680 0.80957910
vn -0.50000580 -0.76559820 0.40478810
vn -0.05311090 0.38343630 0.92203900
vn -0.73627690 -0.12972080 0.66413000
vn -0.09199137 0.41779470 0.90387240
vn -0.42508480 -0.40482680 0.80957910
vn 0.00000108 0.37085430 0.92869100
vn 0.00000044 -0.50552890 0.86280970
vn 0.05310364 0.38343110 0.92204160
vn 0.42509530 -0.40484110 0.80956630
vn 0.09198302 0.41780200 0.90386980
vn 0.73629030 -0.12973110 0.66411320
vn 0.85019740 0.24606760 0.46541920
vn 0.86602870 -0.44202080 0.23369220
vn 1.00000000 -0.00000125 -0.00000771
vn 0.73630090 0.62187100 0.26671640
vn 0.73628290 -0.62188280 -0.26673810
vn 0.09197718 0.51170310 0.85422480
vn 0.50000150 0.76558240 -0.40482340
vn -0.00000013 0.88400940 -0.46746930
vn -0.50001360 0.76558600 -0.40480160
vn 0.42508830 0.40483340 -0.80957380
vn 0.00000028 0.50553010 -0.86280900
vn -0.50001360 0.76558600 -0.40480160
vn -0.42509230 0.89698870 0.12127530
vn -0.42508920 0.40483500 -0.80957260
vn -0.73628140 0.12971960 -0.66412540
vn 0.00000044 -0.50552890 0.86280970
vn -0.50000580 -0.76559820 0.40478810
vn -0.42508480 -0.40482680 0.80957910
vn 0.00000014 -0.88403500 0.46742080
vn 0.42509530 -0.40484110 0.80956630
vn 0.50000170 -0.76560120 0.40478770
vn 0.00000086 -0.99768070 -0.06806770
vn 0.42509430 -0.89698700 -0.12128130
vn 0.50000170 -0.76560120 0.40478770
vn 0.42509530 -0.40484110 0.80956630
vn 0.42509430 -0.89698700 -0.12128130
vn 0.86602670 0.44201720 -0.23370630
vn 0.42509890 0.89698690 0.12126590
vn 0.50000150 0.76558240 -0.40482340
vn 0.73628780 0.12972570 -0.66411730
vn 0.42508830 0.40483340 -0.80957380
vn -0.42508920 0.40483500 -0.80957260
vn -0.42508640 -0.89698890 -0.12129510
vn -0.73627910 -0.62188880 -0.26673450
vn -0.85018740 -0.24608450 -0.46542860
vn -0.09196706 -0.41781490 -0.90386550
vn -0.10621070 -0.46476440 -0.87904110
vn -0.09198289 -0.51170990 -0.85422010
vn -0.42508640 -0.89698890 -0.12129510
vn -0.05310966 -0.54606180 -0.83605970
vn -0.09198289 -0.51170990 -0.85422010
vn -0.73627910 -0.62188880 -0.26673450
vn 0.00000159 -0.55863520 -0.82941350
vn 0.05310346 -0.54607110 -0.83605410
vn 0.73628290 -0.62188280 -0.26673810
vn 0.09197654 -0.51170400 -0.85422440
vn 0.42508830 0.40483340 -0.80957380
vn 0.09197173 -0.41780870 -0.90386790
vn 0.73628780 0.12972570 -0.66411730
vn 0.05310400 -0.38344530 -0.92203560
vn 0.00000028 0.50553010 -0.86280900
vn 0.00000167 -0.37089310 -0.92867560
vn -0.42508920 0.40483500 -0.80957260
vn -0.05310303 -0.38345590 -0.92203120
vn -0.73628140 0.12971960 -0.66412540
vn -0.09196706 -0.41781490 -0.90386550
vn 0.09197173 -0.41780870 -0.90386790
vn 0.10620660 -0.46476140 -0.87904330
vn 0.85018760 -0.24608310 -0.46542900
vn 0.09197654 -0.51170400 -0.85422440
vn 0.05310400 -0.38344530 -0.92203560
vn -0.69154950 -0.63432510 -0.34552970
vn 0.09197173 -0.41780870 -0.90386790
vn -0.39926870 -0.89271030 -0.20893200
vn 0.00000167 -0.37089310 -0.92867560
vn 0.00000038 -0.98728580 -0.15895540
vn -0.05310303 -0.38345590 -0.92203120
vn 0.39927450 -0.89270880 -0.20892790
vn -0.09196706 -0.41781490 -0.90386550
vn 0.69155060 -0.63433190 -0.34551520
vn -0.10621070 -0.46476440 -0.87904110
vn -0.09196706 -0.41781490 -0.90386550
vn -0.09198289 -0.51170990 -0.85422010
vn 0.39927450 -0.89270880 -0.20892790
vn -0.05310966 -0.54606180 -0.83605970
vn 0.39926730 0.32998120 -0.85539350
vn 0.69154800 0.07161433 -0.71877180
vn -0.09198289 -0.51170990 -0.85422010
vn 0.00000159 -0.55863520 -0.82941350
vn -0.00000056 0.42454980 -0.90540460
vn 0.05310346 -0.54607110 -0.83605410
vn -0.39926000 0.32997940 -0.85539760
vn 0.09197654 -0.51170400 -0.85422440
vn -0.69154070 0.07160033 -0.71878020
vn 0.09197173 -0.41780870 -0.90386790
vn -0.69154950 -0.63432510 -0.34552970
vn -0.39926870 -0.89271030 -0.20893200
vn -0.39926000 0.32997940 -0.85539760
vn 0.56674000 0.78974500 -0.23475200
vn 0.51242700 0.83208510 -0.21225700
vn 0.39219500 0.83208400 -0.39219810
vn 0.43376810 0.78973810 -0.43377310
vn 0.61343510 0.78974520 0.00000000
vn 0.21225590 0.83208480 -0.51242780
vn 0.23475310 0.78973730 -0.56675030
vn 0.55464800 0.83208510 0.00000200
vn 0.56674400 0.78974190 0.23475300
vn 0.00000000 0.83208510 -0.55464800
vn 0.00000000 0.78973980 -0.61344190
vn 0.51242510 0.83208610 0.21225710
vn 0.43376820 0.78973730 0.43377430
vn -0.21225500 0.83208500 -0.51242790
vn -0.23475410 0.78973720 -0.56675020
vn 0.39219610 0.83208400 0.39219700
vn 0.23475200 0.78973700 0.56675110
vn -0.39219420 0.83208620 -0.39219420
vn -0.43376810 0.78973810 -0.43377310
vn 0.21225600 0.83208410 0.51242910
vn 0.00000000 0.78973980 0.61344190
vn -0.51242310 0.83208820 -0.21225400
vn -0.56674400 0.78974190 -0.23475300
vn 0.00000000 0.83208510 0.55464800
vn -0.23475390 0.78973890 0.56674790
vn -0.55464320 0.83208830 0.00000000
vn -0.61343510 0.78974520 -0.00000100
vn -0.21225590 0.83208480 0.51242780
vn -0.43376730 0.78973950 0.43377130
vn -0.51242490 0.83208690 0.21225500
vn -0.56674490 0.78974100 0.23475400
vn -0.39219420 0.83208620 0.39219420
vn -0.36510100 0.91860200 -0.15123300
vn -0.39518690 0.91860070 0.00000000
vn -0.36510320 0.91860130 0.15123300
vn -0.27943800 0.91860100 0.27944000
vn -0.15123200 0.91860030 0.36510600
vn 0.00000000 0.91859980 0.39518890
vn -0.27943700 0.91860190 -0.27943800
vn 0.15123300 0.91859890 0.36510900
vn -0.15123100 0.91860120 -0.36510400
vn 0.27943890 0.91859980 0.27944290
vn 0.00000000 0.91860030 -0.39518800
vn 0.36510490 0.91859980 0.15123700
vn 0.15123100 0.91860090 -0.36510500
vn 0.39519310 0.91859820 0.00000500
vn 0.27943500 0.91860100 -0.27944300
vn 0.36511000 0.91859790 -0.15123700
vn -0.08166302 0.97696620 -0.19715010
vn 0.00000000 0.97748190 -0.21101900
vn 0.00000000 1.00000000 0.00000000
vn -0.14921200 0.97748180 -0.14921500
vn 0.08166198 0.97696680 -0.19714800
vn -0.19715290 0.97696570 -0.08166198
vn 0.14921100 0.97748180 -0.14921600
vn -0.21101310 0.97748330 0.00000000
vn 0.19714790 0.97696680 -0.08166097
vn -0.19715390 0.97696550 0.08166197
vn 0.21101100 0.97748370 0.00000300
vn -0.14921290 0.97748140 0.14921590
vn 0.19715200 0.97696600 0.08166200
vn -0.08166303 0.97696640 0.19714910
vn 0.14921290 0.97748140 0.14921590
vn 0.00000000 0.97748180 0.21101990
vn 0.08166301 0.97696610 0.19715100
vn 0.00000000 -1.00000000 0.00000000
vn 0.00000000 -1.00000000 0.00000000
vn 0.00000000 -1.00000000 0.00000000
vn 0.00000000 -1.00000000 0.00000000
vn 0.00000000 -1.00000000 0.00000000
vn 0.00000000 -1.00000000 0.00000000
vn 0.00000000 -1.00000000 0.00000000
vn 0.00000000 -1.00000000 0.00000000
vn 0.00000000 -1.00000000 0.00000000
vn 0.00000000 -1.00000000 0.00000000
vn 0.00000000 -1.00000000 0.00000000
vn 0.00000000 -1.00000000 0.00000000
vn 0.00000000 -1.00000000 0.00000000
vn 0.00000000 -1.00000000 0.00000000
vn 0.00000000 -1.00000000 0.00000000
vn 0.00000000 -1.00000000 0.00000000
vn 0.00000000 -1.00000000 0.00000000
vn 0.00000000 -1.00000000 0.00000000
vn 0.00000000 -1.00000000 0.00000000
vn 0.00000000 -1.00000000 0.00000000
vn 0.00000000 -1.00000000 0.00000000
vn 0.00000000 -1.00000000 0.00000000
vn 0.00000000 -1.00000000 0.00000000
vn 0.00000000 -1.00000000 0.00000000
vn 0.00000000 -1.00000000 0.00000000
vn 0.00000000 -1.00000000 0.00000000
vn 0.00000000 -1.00000000 0.00000000
vn 0.00000000 -1.00000000 0.00000000
vn 0.00000000 -1.00000000 0.00000000
vn 0.00000000 -1.00000000 0.00000000
vn 0.00000000 -1.00000000 0.00000000
vn 0.00000000 -1.00000000 0.00000000
vt -19.13958000 0.76130680
vt -19.14695000 0.76130680
vt -19.14695000 0.78486920
vt -19.36157000 0.90926940
vt -19.36527000 0.91019650
vt -19.35957000 0.92099080
vt -19.39842000 0.79611060
vt -19.40602000 0.77846840
vt -19.40678000 0.78030210
vt -19.17396000 0.78486690
vt -19.16660000 0.78486690
vt -19.16660000 0.76133420
vt -19.17396000 0.76133420
vt -19.17396000 0.80839440
vt -19.16660000 0.80839440
vt -19.43253000 0.61123130
vt -19.44078000 0.62618050
vt -19.43253000 0.62618050
vt -19.44078000 0.61123130
vt -19.43253000 0.58885960
vt -19.44078000 0.58885960
vt -19.53598000 0.62618050
vt -19.53598000 0.61123130
vt -19.54370000 0.62618050
vt -19.54370000 0.61123130
vt -19.53598000 0.58885960
vt -19.54370000 0.58885960
vt -19.53598000 0.56246910
vt -19.54370000 0.56246910
vt -19.53598000 0.53607860
vt -19.43253000 0.56246910
vt -19.44078000 0.56246910
vt -19.43253000 0.53607860
vt -19.44078000 0.53607860
vt -19.43253000 0.51370540
vt -19.44078000 0.51370540
vt -19.43253000 0.49875620
vt -19.44078000 0.49875620
vt -19.53598000 0.51370540
vt -19.53598000 0.49875620
vt -19.54370000 0.51370540
vt -19.54370000 0.49875620
vt -19.54370000 0.53607860
vt -19.13958000 0.78486920
vt -19.14695000 0.80842900
vt -19.13958000 0.80842900
vt -19.15705000 0.61123500
vt -19.16530000 0.62618350
vt -19.15705000 0.62618350
vt -19.16530000 0.61123500
vt -19.15705000 0.58886440
vt -19.16530000 0.58886440
vt -19.26049000 0.62618350
vt -19.26049000 0.61123500
vt -19.26821000 0.62618350
vt -19.26821000 0.61123500
vt -19.26049000 0.58886440
vt -19.26821000 0.58886440
vt -19.26049000 0.56247530
vt -19.26821000 0.56247530
vt -19.15705000 0.56247530
vt -19.16530000 0.56247530
vt -19.15705000 0.53608610
vt -19.16530000 0.53608610
vt -19.15705000 0.51371260
vt -19.16530000 0.51371260
vt -19.15705000 0.49876410
vt -19.16530000 0.49876410
vt -19.26049000 0.51371260
vt -19.26049000 0.49876410
vt -19.26821000 0.51371260
vt -19.26821000 0.49876410
vt -19.26821000 0.53608610
vt -19.26049000 0.53608610
vt -19.91507000 0.80914090
vt -19.91507000 0.71835360
vt -19.93410000 0.71835360
vt -19.93410000 0.80914090
vt -19.95312000 0.71835360
vt -19.95312000 0.80914090
vt -19.16530000 0.58625910
vt -19.26049000 0.60323630
vt -19.16530000 0.60323630
vt -19.26049000 0.58625910
vt -19.16530000 0.56247530
vt -19.26049000 0.56247530
vt -19.16530000 0.53868850
vt -19.26049000 0.53868850
vt -19.16530000 0.52171130
vt -19.26049000 0.52171130
vt -19.79884000 0.71835140
vt -19.77981000 0.80913940
vt -19.77981000 0.71835140
vt -19.79884000 0.80913940
vt -19.81786000 0.71835140
vt -19.81786000 0.80913940
vt -19.44078000 0.58625410
vt -19.53598000 0.60323370
vt -19.44078000 0.60323370
vt -19.53598000 0.58625410
vt -19.44078000 0.56246910
vt -19.53598000 0.56246910
vt -19.44078000 0.53868260
vt -19.53598000 0.53868260
vt -19.44078000 0.52170290
vt -19.53598000 0.52170290
vt -19.11346000 0.76135960
vt -19.12034000 0.76135960
vt -19.12034000 0.78486920
vt -19.11346000 0.78486920
vt -19.12034000 0.80837620
vt -19.11346000 0.80837620
vt -19.09513000 0.78486690
vt -19.08825000 0.76135000
vt -19.09513000 0.76135000
vt -19.08825000 0.78486690
vt -19.09513000 0.80837850
vt -19.08825000 0.80837850
vt -19.09228000 0.89336790
vt -19.09899000 0.89905990
vt -19.09365000 0.91668470
vt -19.08764000 0.91668470
vt -19.09899000 0.93430510
vt -19.09228000 0.93999900
vt -19.13584000 0.91668120
vt -19.12449000 0.89905520
vt -19.13120000 0.89336450
vt -19.12983000 0.91668120
vt -19.13120000 0.93999520
vt -19.12449000 0.93430190
vt -19.90892000 0.71835360
vt -19.91507000 0.71835360
vt -19.91507000 0.80914090
vt -19.90892000 0.80914090
vt -19.95927000 0.80914090
vt -19.95312000 0.80914090
vt -19.95312000 0.71835360
vt -19.95927000 0.71835360
vt -19.65246000 0.54948660
vt -19.66972000 0.56217870
vt -19.66566000 0.56924120
vt -19.65800000 0.54718660
vt -19.64783000 0.52618350
vt -19.65384000 0.52618410
vt -19.65246000 0.50288160
vt -19.65800000 0.50518170
vt -19.66566000 0.48312650
vt -19.66972000 0.49018880
vt -19.16530000 0.61123500
vt -19.16530000 0.60323630
vt -19.26049000 0.60323630
vt -19.26049000 0.61123500
vt -19.73150000 0.48312510
vt -19.73556000 0.49018820
vt -19.72384000 0.50517970
vt -19.71830000 0.50287900
vt -19.71967000 0.52618160
vt -19.71367000 0.52618160
vt -19.72384000 0.54718610
vt -19.71830000 0.54948410
vt -19.73556000 0.56217760
vt -19.73150000 0.56924070
vt -19.26049000 0.51371260
vt -19.26049000 0.52171130
vt -19.16530000 0.52171130
vt -19.16530000 0.51371260
vt -19.17269000 0.93394540
vt -19.16134000 0.91632040
vt -19.16805000 0.91062840
vt -19.16667000 0.93394540
vt -19.16805000 0.95725980
vt -19.16134000 0.95156580
vt -19.77366000 0.71835140
vt -19.77981000 0.71835140
vt -19.77981000 0.80913940
vt -19.77366000 0.80913940
vt -19.20282000 0.91062280
vt -19.20953000 0.91631410
vt -19.20420000 0.93394180
vt -19.19818000 0.93394180
vt -19.20953000 0.95156440
vt -19.20282000 0.95725820
vt -19.82401000 0.80913940
vt -19.81786000 0.80913940
vt -19.81786000 0.71835140
vt -19.82401000 0.71835140
vt -19.79675000 0.50289140
vt -19.77951000 0.49020500
vt -19.78356000 0.48314580
vt -19.79122000 0.50519040
vt -19.80139000 0.52618350
vt -19.79538000 0.52618410
vt -19.79675000 0.54947550
vt -19.79122000 0.54717710
vt -19.78356000 0.56922180
vt -19.77951000 0.56216320
vt -19.44078000 0.61123130
vt -19.44078000 0.60323370
vt -19.53598000 0.60323370
vt -19.53598000 0.61123130
vt -19.84939000 0.56924050
vt -19.84534000 0.56217750
vt -19.85705000 0.54718600
vt -19.86259000 0.54948410
vt -19.86122000 0.52618160
vt -19.86722000 0.52618160
vt -19.85705000 0.50517980
vt -19.86259000 0.50287910
vt -19.84534000 0.49018830
vt -19.84939000 0.48312530
vt -19.53598000 0.51370540
vt -19.53598000 0.52170290
vt -19.44078000 0.52170290
vt -19.44078000 0.51370540
vt -19.27743000 0.95840850
vt -19.27458000 0.96094500
vt -19.26887000 0.95015080
vt -19.27190000 0.94795530
vt -19.26108000 0.93540760
vt -19.26435000 0.93367580
vt -19.25972000 0.93612550
vt -19.26811000 0.95199120
vt -19.25133000 0.92025980
vt -19.25328000 0.92066440
vt -19.25680000 0.91939620
vt -19.32863000 0.79350190
vt -19.32600000 0.79350190
vt -19.32402000 0.77771970
vt -19.32672000 0.77821710
vt -19.32672000 0.80878660
vt -19.32402000 0.80928400
vt -19.34095000 0.94828180
vt -19.33827000 0.96127140
vt -19.33542000 0.95873490
vt -19.34398000 0.95047720
vt -19.35177000 0.93573400
vt -19.34474000 0.95231760
vt -19.35313000 0.93645190
vt -19.24758000 0.90987030
vt -19.25127000 0.90894310
vt -19.25983000 0.91720080
vt -19.25412000 0.90640660
vt -19.26763000 0.93194400
vt -19.26898000 0.93122600
vt -19.26060000 0.91536040
vt -19.25516000 0.77898290
vt -19.26295000 0.76644120
vt -19.26455000 0.76835510
vt -19.25284000 0.77787880
vt -19.25172000 0.79350190
vt -19.24915000 0.79350190
vt -19.25516000 0.80802080
vt -19.25284000 0.80912630
vt -19.26455000 0.81864860
vt -19.26295000 0.82056250
vt -19.36152000 0.92058610
vt -19.35604000 0.91972260
vt -19.35872000 0.90673290
vt -19.35302000 0.91752710
vt -19.34850000 0.93400220
vt -19.34522000 0.93227030
vt -19.33743000 0.94701350
vt -19.29780000 0.80927530
vt -19.29425000 0.82290800
vt -19.29240000 0.82083050
vt -19.30006000 0.81047830
vt -19.29978000 0.79349460
vt -19.30219000 0.79349460
vt -19.29622000 0.79349460
vt -19.29430000 0.80877940
vt -19.29358000 0.79349460
vt -19.29160000 0.80927530
vt -19.29430000 0.77820980
vt -19.29780000 0.77771390
vt -19.30006000 0.77651080
vt -19.29240000 0.76615860
vt -19.29425000 0.76408120
vt -19.70983000 0.70911200
vt -19.71379000 0.69462350
vt -19.71563000 0.69670330
vt -19.70758000 0.70791390
vt -19.70771000 0.72606710
vt -19.70531000 0.72606710
vt -19.70983000 0.74302220
vt -19.70758000 0.74422030
vt -19.71563000 0.75543090
vt -19.71379000 0.75750780
vt -19.48465000 0.79609860
vt -19.48600000 0.79538460
vt -19.49494000 0.81227850
vt -19.49299000 0.81187610
vt -19.47631000 0.78032090
vt -19.47707000 0.77849080
vt -19.48926000 0.79366240
vt -19.49844000 0.81101730
vt -19.48008000 0.77630760
vt -19.47053000 0.76612530
vt -19.47337000 0.76360140
vt -19.66089000 0.74167010
vt -19.65239000 0.75499980
vt -19.65079000 0.75309000
vt -19.66320000 0.74277260
vt -19.66459000 0.72606810
vt -19.66716000 0.72606810
vt -19.66089000 0.71046740
vt -19.66320000 0.70936360
vt -19.65079000 0.69904620
vt -19.65239000 0.69713500
vt -19.39707000 0.79539530
vt -19.40300000 0.77628100
vt -19.39380000 0.79366970
vt -19.38812000 0.81232210
vt -19.39949000 0.77501730
vt -19.39006000 0.81191890
vt -19.70408000 0.70741890
vt -19.70175000 0.72606710
vt -19.70408000 0.74471530
vt -19.70139000 0.70791390
vt -19.69912000 0.72606710
vt -19.50515000 0.82372360
vt -19.50147000 0.82464560
vt -19.50799000 0.82119950
vt -19.50145000 0.80883410
vt -19.60184000 0.79864270
vt -19.60682000 0.81733790
vt -19.60412000 0.81684010
vt -19.60448000 0.79864270
vt -19.60412000 0.78044530
vt -19.60682000 0.77994750
vt -19.60805000 0.79864270
vt -19.61032000 0.78044530
vt -19.40973000 0.76354990
vt -19.41257000 0.76607880
vt -19.40604000 0.76262750
vt -19.38461000 0.81105850
vt -19.38157000 0.82471340
vt -19.37788000 0.82378950
vt -19.38159000 0.80887100
vt -19.37504000 0.82126060
vt -19.70139000 0.74422030
vt -19.47705000 0.76268080
vt -19.48359000 0.77504630
vt -19.49252000 0.79194030
vt -19.50221000 0.80700390
vt -19.49387000 0.79122630
vt -19.48553000 0.77544880
vt -19.61032000 0.81684010
vt -19.61258000 0.81563910
vt -19.61840000 0.82807950
vt -19.61655000 0.83016010
vt -19.61045000 0.79864270
vt -19.61258000 0.78164780
vt -19.61655000 0.76712390
vt -19.61840000 0.76920590
vt -19.56595000 0.78191020
vt -19.55352000 0.77157640
vt -19.55512000 0.76965970
vt -19.56363000 0.78301170
vt -19.56991000 0.79863660
vt -19.56733000 0.79863660
vt -19.56595000 0.81536290
vt -19.56363000 0.81426140
vt -19.55512000 0.82761340
vt -19.55352000 0.82569670
vt -19.38083000 0.80703730
vt -19.38919000 0.79122890
vt -19.39054000 0.79194410
vt -19.39754000 0.77542050
vt -19.33248000 0.77651960
vt -19.32482000 0.76616740
vt -19.32667000 0.76408700
vt -19.33022000 0.77771970
vt -19.33461000 0.79350190
vt -19.33220000 0.79350190
vt -19.33248000 0.81048560
vt -19.33022000 0.80928400
vt -19.32667000 0.82291670
vt -19.32482000 0.82083630
vt -19.34387000 0.93155250
vt -19.33547000 0.94741820
vt -19.35225000 0.91568670
vt -19.33172000 0.95780780
vt -19.20422000 0.80912730
vt -19.20653000 0.80802050
vt -19.21593000 0.81865160
vt -19.21432000 0.82056300
vt -19.20051000 0.79350190
vt -19.20309000 0.79350190
vt -19.20422000 0.77787640
vt -19.20653000 0.77898320
vt -19.21432000 0.76644070
vt -19.21593000 0.76835210
vt -19.27737000 0.94709180
vt -19.27542000 0.94668710
vt -19.28113000 0.95748130
vt -19.29160000 0.77771390
vt -19.72446000 0.23315130
vt -19.74002000 0.22670620
vt -19.75341000 0.24674490
vt -19.74149000 0.25865690
vt -19.71847000 0.20306640
vt -19.77345000 0.26013420
vt -19.76700000 0.27569850
vt -19.73532000 0.20306640
vt -19.72446000 0.17298140
vt -19.79709000 0.26483560
vt -19.79709000 0.28168430
vt -19.74002000 0.17942940
vt -19.74149000 0.14747860
vt -19.82072000 0.26013420
vt -19.82717000 0.27569850
vt -19.75341000 0.15939070
vt -19.76700000 0.13043710
vt -19.84076000 0.24674490
vt -19.85268000 0.25865690
vt -19.77345000 0.14600130
vt -19.79709000 0.12445130
vt -19.85415000 0.22670620
vt -19.86971000 0.23315130
vt -19.79709000 0.14130000
vt -19.82717000 0.13043710
vt -19.85885000 0.20306640
vt -19.87570000 0.20306640
vt -19.82072000 0.14600130
vt -19.85268000 0.14747860
vt -19.85415000 0.17942940
vt -19.86971000 0.17298140
vt -19.84076000 0.15939070
vt -19.83639000 0.21934800
vt -19.83963000 0.20306640
vt -19.83639000 0.18678470
vt -19.82717000 0.17298140
vt -19.81337000 0.16376020
vt -19.79709000 0.16052210
vt -19.82717000 0.23315130
vt -19.78080000 0.16376020
vt -19.81337000 0.24237530
vt -19.76700000 0.17298140
vt -19.79709000 0.24561350
vt -19.75778000 0.18678470
vt -19.78080000 0.24237530
vt -19.75454000 0.20306640
vt -19.76700000 0.23315130
vt -19.75778000 0.21934800
vt -19.80539000 0.22310510
vt -19.79709000 0.22475820
vt -19.79709000 0.20306640
vt -19.81242000 0.21840380
vt -19.78878000 0.22310510
vt -19.81713000 0.21136880
vt -19.78175000 0.21840380
vt -19.81878000 0.20306640
vt -19.77704000 0.21136880
vt -19.81713000 0.19476680
vt -19.77539000 0.20306640
vt -19.81242000 0.18772900
vt -19.77704000 0.19476680
vt -19.80539000 0.18302770
vt -19.78175000 0.18772900
vt -19.79709000 0.18137740
vt -19.78878000 0.18302770
vt -19.33635000 0.15135600
vt -19.34502000 0.16002180
vt -19.33182000 0.17977250
vt -19.32050000 0.17508240
vt -19.36008000 0.13550270
vt -19.32719000 0.20306890
vt -19.36477000 0.14682480
vt -19.31493000 0.20306890
vt -19.38807000 0.12993560
vt -19.33182000 0.22636670
vt -19.38807000 0.14219090
vt -19.32050000 0.23105610
vt -19.41605000 0.13550270
vt -19.34502000 0.24611670
vt -19.41137000 0.14682480
vt -19.33635000 0.25478320
vt -19.43978000 0.15135600
vt -19.36477000 0.25931370
vt -19.43112000 0.16002180
vt -19.36008000 0.27063650
vt -19.45563000 0.17508240
vt -19.38807000 0.26394770
vt -19.44431000 0.17977180
vt -19.38807000 0.27620360
vt -19.46120000 0.20306890
vt -19.41137000 0.25931370
vt -19.44894000 0.20306890
vt -19.41605000 0.27063650
vt -19.45563000 0.23105610
vt -19.43112000 0.24611670
vt -19.44431000 0.22636610
vt -19.43978000 0.25478320
f 3/3/3 2/2/2 1/1/1
f 6/6/6 5/5/5 4/4/4
f 9/9/9 8/8/8 7/7/7
f 12/12/12 11/11/11 10/10/10
f 13/13/13 12/12/12 10/10/10
f 11/11/11 15/15/15 14/14/14
f 10/10/10 11/11/11 14/14/14
f 18/18/18 17/17/17 16/16/16
f 17/17/17 19/19/19 16/16/16
f 16/16/16 19/19/19 20/20/20
f 19/19/19 21/21/21 20/20/20
f 17/17/17 22/22/22 19/19/19
f 22/22/22 23/23/23 19/19/19
f 22/22/22 24/24/24 23/23/23
f 24/24/24 25/25/25 23/23/23
f 23/23/23 25/25/25 26/26/26
f 25/25/25 27/27/27 26/26/26
f 26/26/26 27/27/27 28/28/28
f 27/27/27 29/29/29 28/28/28
f 28/28/28 29/29/29 30/30/30
f 20/20/20 21/21/21 31/31/31
f 21/21/21 32/32/32 31/31/31
f 31/31/31 32/32/32 33/33/33
f 32/32/32 34/34/34 33/33/33
f 33/33/33 34/34/34 35/35/35
f 34/34/34 36/36/36 35/35/35
f 35/35/35 36/36/36 37/37/37
f 36/36/36 38/38/38 37/37/37
f 36/36/36 39/39/39 38/38/38
f 39/39/39 40/40/40 38/38/38
f 39/39/39 41/41/41 40/40/40
f 41/41/41 42/42/42 40/40/40
f 43/43/43 41/41/41 39/39/39
f 30/30/30 43/43/43 39/39/39
f 29/29/29 43/43/43 30/30/30
f 46/46/46 45/45/45 44/44/44
f 45/45/45 3/3/3 44/44/44
f 44/44/44 3/3/3 1/1/1
f 49/49/49 48/48/48 47/47/47
f 48/48/48 50/50/50 47/47/47
f 47/47/47 50/50/50 51/51/51
f 50/50/50 52/52/52 51/51/51
f 48/48/48 53/53/53 50/50/50
f 53/53/53 54/54/54 50/50/50
f 53/53/53 55/55/55 54/54/54
f 55/55/55 56/56/56 54/54/54
f 54/54/54 56/56/56 57/57/57
f 56/56/56 58/58/58 57/57/57
f 57/57/57 58/58/58 59/59/59
f 58/58/58 60/60/60 59/59/59
f 51/51/51 52/52/52 61/61/61
f 52/52/52 62/62/62 61/61/61
f 61/61/61 62/62/62 63/63/63
f 62/62/62 64/64/64 63/63/63
f 63/63/63 64/64/64 65/65/65
f 64/64/64 66/66/66 65/65/65
f 65/65/65 66/66/66 67/67/67
f 66/66/66 68/68/68 67/67/67
f 66/66/66 69/69/69 68/68/68
f 69/69/69 70/70/70 68/68/68
f 69/69/69 71/71/71 70/70/70
f 71/71/71 72/72/72 70/70/70
f 73/73/73 71/71/71 69/69/69
f 74/74/74 73/73/73 69/69/69
f 60/60/60 73/73/73 74/74/74
f 59/59/59 60/60/60 74/74/74
f 77/77/77 76/76/76 75/75/75
f 78/78/78 77/77/77 75/75/75
f 79/79/79 77/77/77 78/78/78
f 80/80/80 79/79/79 78/78/78
f 83/83/83 82/82/82 81/81/81
f 82/82/82 84/84/84 81/81/81
f 81/81/81 84/84/84 85/85/85
f 84/84/84 86/86/86 85/85/85
f 85/85/85 86/86/86 87/87/87
f 86/86/86 88/88/88 87/87/87
f 87/87/87 88/88/88 89/89/89
f 88/88/88 90/90/90 89/89/89
f 93/93/93 92/92/92 91/91/91
f 92/92/92 94/94/94 91/91/91
f 91/91/91 94/94/94 95/95/95
f 94/94/94 96/96/96 95/95/95
f 99/99/99 98/98/98 97/97/97
f 98/98/98 100/100/100 97/97/97
f 97/97/97 100/100/100 101/101/101
f 100/100/100 102/102/102 101/101/101
f 101/101/101 102/102/102 103/103/103
f 102/102/102 104/104/104 103/103/103
f 103/103/103 104/104/104 105/105/105
f 104/104/104 106/106/106 105/105/105
f 109/109/109 108/108/108 107/107/107
f 110/110/110 109/109/109 107/107/107
f 111/111/111 109/109/109 110/110/110
f 112/112/112 111/111/111 110/110/110
f 115/115/115 114/114/114 113/113/113
f 114/114/114 116/116/116 113/113/113
f 113/113/113 116/116/116 117/117/117
f 116/116/116 118/118/118 117/117/117
f 121/121/121 120/120/120 119/119/119
f 122/122/122 121/121/121 119/119/119
f 123/123/123 121/121/121 122/122/122
f 124/124/124 123/123/123 122/122/122
f 127/127/127 126/126/126 125/125/125
f 126/126/126 128/128/128 125/125/125
f 125/125/125 128/128/128 129/129/129
f 128/128/128 130/130/130 129/129/129
f 133/133/133 132/132/132 131/131/131
f 134/134/134 133/133/133 131/131/131
f 137/137/137 136/136/136 135/135/135
f 138/138/138 137/137/137 135/135/135
f 141/141/141 140/140/140 139/139/139
f 140/140/140 142/142/142 139/139/139
f 139/139/139 142/142/142 143/143/143
f 142/142/142 144/144/144 143/143/143
f 143/143/143 144/144/144 145/145/145
f 144/144/144 146/146/146 145/145/145
f 145/145/145 146/146/146 147/147/147
f 146/146/146 148/148/148 147/147/147
f 151/151/151 150/150/150 149/149/149
f 152/152/152 151/151/151 149/149/149
f 155/155/155 154/154/154 153/153/153
f 156/156/156 155/155/155 153/153/153
f 157/157/157 155/155/155 156/156/156
f 158/158/158 157/157/157 156/156/156
f 159/159/159 157/157/157 158/158/158
f 160/160/160 159/159/159 158/158/158
f 161/161/161 159/159/159 160/160/160
f 162/162/162 161/161/161 160/160/160
f 165/165/165 164/164/164 163/163/163
f 166/166/166 165/165/165 163/163/163
f 169/169/169 168/168/168 167/167/167
f 168/168/168 170/170/170 167/167/167
f 167/167/167 170/170/170 171/171/171
f 170/170/170 172/172/172 171/171/171
f 175/175/175 174/174/174 173/173/173
f 176/176/176 175/175/175 173/173/173
f 179/179/179 178/178/178 177/177/177
f 180/180/180 179/179/179 177/177/177
f 181/181/181 179/179/179 180/180/180
f 182/182/182 181/181/181 180/180/180
f 185/185/185 184/184/184 183/183/183
f 186/186/186 185/185/185 183/183/183
f 189/189/189 188/188/188 187/187/187
f 188/188/188 190/190/190 187/187/187
f 187/187/187 190/190/190 191/191/191
f 190/190/190 192/192/192 191/191/191
f 191/191/191 192/192/192 193/193/193
f 192/192/192 194/194/194 193/193/193
f 193/193/193 194/194/194 195/195/195
f 194/194/194 196/196/196 195/195/195
f 199/199/199 198/198/198 197/197/197
f 200/200/200 199/199/199 197/197/197
f 203/203/203 202/202/202 201/201/201
f 204/204/204 203/203/203 201/201/201
f 205/205/205 203/203/203 204/204/204
f 206/206/206 205/205/205 204/204/204
f 207/207/207 205/205/205 206/206/206
f 208/208/208 207/207/207 206/206/206
f 209/209/209 207/207/207 208/208/208
f 210/210/210 209/209/209 208/208/208
f 213/213/213 212/212/212 211/211/211
f 214/214/214 213/213/213 211/211/211
f 217/217/217 216/216/216 215/215/215
f 218/218/218 217/217/217 215/215/215
f 219/219/219 217/217/217 218/218/218
f 220/220/220 219/219/219 218/218/218
f 219/219/219 221/221/221 217/217/217
f 221/221/221 222/222/222 217/217/217
f 223/223/223 221/221/221 219/219/219
f 224/224/224 223/223/223 219/219/219
f 224/224/224 219/219/219 220/220/220
f 225/225/225 224/224/224 220/220/220
f 228/228/228 227/227/227 226/226/226
f 229/229/229 228/228/228 226/226/226
f 227/227/227 231/231/231 230/230/230
f 226/226/226 227/227/227 230/230/230
f 234/234/234 233/233/233 232/232/232
f 233/233/233 235/235/235 232/232/232
f 235/235/235 237/237/237 236/236/236
f 237/237/237 238/238/238 236/236/236
f 239/239/239 224/224/224 225/225/225
f 240/240/240 239/239/239 225/225/225
f 240/240/240 225/225/225 241/241/241
f 242/242/242 240/240/240 241/241/241
f 241/241/241 225/225/225 243/243/243
f 225/225/225 220/220/220 243/243/243
f 241/241/241 243/243/243 244/244/244
f 245/245/245 241/241/241 244/244/244
f 248/248/248 247/247/247 246/246/246
f 247/247/247 249/249/249 246/246/246
f 246/246/246 249/249/249 250/250/250
f 249/249/249 251/251/251 250/250/250
f 250/250/250 251/251/251 252/252/252
f 251/251/251 253/253/253 252/252/252
f 252/252/252 253/253/253 254/254/254
f 253/253/253 255/255/255 254/254/254
f 238/238/238 256/256/256 6/6/6
f 236/236/236 238/238/238 6/6/6
f 236/236/236 6/6/6 257/257/257
f 257/257/257 6/6/6 4/4/4
f 257/257/257 4/4/4 258/258/258
f 259/259/259 257/257/257 258/258/258
f 260/260/260 257/257/257 259/259/259
f 260/260/260 236/236/236 257/257/257
f 235/235/235 236/236/236 260/260/260
f 232/232/232 235/235/235 260/260/260
f 232/232/232 260/260/260 261/261/261
f 262/262/262 232/232/232 261/261/261
f 265/265/265 264/264/264 263/263/263
f 264/264/264 266/266/266 263/263/263
f 263/263/263 266/266/266 267/267/267
f 266/266/266 268/268/268 267/267/267
f 263/263/263 267/267/267 269/269/269
f 270/270/270 263/263/263 269/269/269
f 270/270/270 269/269/269 271/271/271
f 272/272/272 270/270/270 271/271/271
f 269/269/269 267/267/267 273/273/273
f 267/267/267 274/274/274 273/273/273
f 267/267/267 268/268/268 274/274/274
f 268/268/268 275/275/275 274/274/274
f 274/274/274 275/275/275 276/276/276
f 275/275/275 277/277/277 276/276/276
f 280/280/280 279/279/279 278/278/278
f 279/279/279 281/281/281 278/278/278
f 278/278/278 281/281/281 282/282/282
f 281/281/281 283/283/283 282/282/282
f 282/282/282 283/283/283 284/284/284
f 283/283/283 285/285/285 284/284/284
f 284/284/284 285/285/285 286/286/286
f 285/285/285 287/287/287 286/286/286
f 290/290/290 289/289/289 288/288/288
f 291/291/291 290/290/290 288/288/288
f 288/288/288 289/289/289 292/292/292
f 289/289/289 293/293/293 292/292/292
f 289/289/289 294/294/294 293/293/293
f 295/295/295 294/294/294 289/289/289
f 290/290/290 295/295/295 289/289/289
f 294/294/294 296/296/296 293/293/293
f 293/293/293 296/296/296 297/297/297
f 296/296/296 298/298/298 297/297/297
f 301/301/301 300/300/300 299/299/299
f 300/300/300 302/302/302 299/299/299
f 299/299/299 302/302/302 303/303/303
f 302/302/302 304/304/304 303/303/303
f 303/303/303 304/304/304 305/305/305
f 304/304/304 306/306/306 305/305/305
f 305/305/305 306/306/306 307/307/307
f 306/306/306 308/308/308 307/307/307
f 8/8/8 309/309/309 7/7/7
f 8/8/8 310/310/310 309/309/309
f 310/310/310 311/311/311 309/309/309
f 309/309/309 311/311/311 312/312/312
f 310/310/310 313/313/313 311/311/311
f 309/309/309 312/312/312 314/314/314
f 7/7/7 309/309/309 314/314/314
f 281/281/281 315/315/315 283/283/283
f 315/315/315 316/316/316 283/283/283
f 283/283/283 316/316/316 285/285/285
f 316/316/316 317/317/317 285/285/285
f 315/315/315 318/318/318 316/316/316
f 318/318/318 319/319/319 316/316/316
f 321/321/321 320/320/320 290/290/290
f 320/320/320 295/295/295 290/290/290
f 320/320/320 322/322/322 295/295/295
f 322/322/322 323/323/323 295/295/295
f 295/295/295 323/323/323 294/294/294
f 326/326/326 325/325/325 324/324/324
f 325/325/325 327/327/327 324/324/324
f 324/324/324 327/327/327 328/328/328
f 327/327/327 329/329/329 328/328/328
f 327/327/327 330/330/330 329/329/329
f 330/330/330 331/331/331 329/329/329
f 333/333/333 332/332/332 8/8/8
f 332/332/332 310/310/310 8/8/8
f 332/332/332 334/334/334 310/310/310
f 334/334/334 313/313/313 310/310/310
f 311/311/311 335/335/335 312/312/312
f 312/312/312 335/335/335 336/336/336
f 335/335/335 337/337/337 336/336/336
f 335/335/335 338/338/338 337/337/337
f 338/338/338 339/339/339 337/337/337
f 319/319/319 340/340/340 317/317/317
f 316/316/316 319/319/319 317/317/317
f 342/342/342 341/341/341 298/298/298
f 296/296/296 342/342/342 298/298/298
f 343/343/343 342/342/342 296/296/296
f 294/294/294 343/343/343 296/296/296
f 323/323/323 343/343/343 294/294/294
f 323/323/323 344/344/344 343/343/343
f 344/344/344 345/345/345 343/343/343
f 343/343/343 345/345/345 342/342/342
f 345/345/345 346/346/346 342/342/342
f 325/325/325 347/347/347 327/327/327
f 347/347/347 330/330/330 327/327/327
f 347/347/347 348/348/348 330/330/330
f 349/349/349 348/348/348 347/347/347
f 350/350/350 349/349/349 347/347/347
f 348/348/348 351/351/351 330/330/330
f 330/330/330 351/351/351 331/331/331
f 351/351/351 352/352/352 331/331/331
f 331/331/331 352/352/352 353/353/353
f 352/352/352 354/354/354 353/353/353
f 357/357/357 356/356/356 355/355/355
f 356/356/356 358/358/358 355/355/355
f 355/355/355 358/358/358 359/359/359
f 358/358/358 360/360/360 359/359/359
f 359/359/359 360/360/360 361/361/361
f 360/360/360 362/362/362 361/361/361
f 362/362/362 364/364/364 363/363/363
f 361/361/361 362/362/362 363/363/363
f 366/366/366 365/365/365 338/338/338
f 367/367/367 366/366/366 338/338/338
f 367/367/367 338/338/338 335/335/335
f 368/368/368 366/366/366 367/367/367
f 311/311/311 367/367/367 335/335/335
f 313/313/313 368/368/368 367/367/367
f 313/313/313 367/367/367 311/311/311
f 371/371/371 370/370/370 369/369/369
f 370/370/370 372/372/372 369/369/369
f 369/369/369 372/372/372 373/373/373
f 372/372/372 374/374/374 373/373/373
f 372/372/372 229/229/229 374/374/374
f 229/229/229 226/226/226 374/374/374
f 373/373/373 374/374/374 375/375/375
f 374/374/374 376/376/376 375/375/375
f 375/375/375 376/376/376 377/377/377
f 376/376/376 378/378/378 377/377/377
f 374/374/374 226/226/226 376/376/376
f 226/226/226 230/230/230 376/376/376
f 380/380/380 262/262/262 379/379/379
f 262/262/262 261/261/261 379/379/379
f 379/379/379 261/261/261 381/381/381
f 261/261/261 259/259/259 381/381/381
f 261/261/261 260/260/260 259/259/259
f 234/234/234 232/232/232 262/262/262
f 382/382/382 234/234/234 262/262/262
f 385/385/385 384/384/384 383/383/383
f 386/386/386 385/385/385 383/383/383
f 383/383/383 384/384/384 387/387/387
f 384/384/384 388/388/388 387/387/387
f 387/387/387 388/388/388 389/389/389
f 388/388/388 390/390/390 389/389/389
f 389/389/389 390/390/390 391/391/391
f 390/390/390 392/392/392 391/391/391
f 244/244/244 243/243/243 393/393/393
f 243/243/243 394/394/394 393/393/393
f 243/243/243 220/220/220 394/394/394
f 220/220/220 218/218/218 394/394/394
f 394/394/394 218/218/218 395/395/395
f 218/218/218 215/215/215 395/395/395
f 269/269/269 273/273/273 396/396/396
f 271/271/271 269/269/269 396/396/396
f 399/399/399 398/398/398 397/397/397
f 400/400/400 399/399/399 397/397/397
f 397/397/397 398/398/398 401/401/401
f 402/402/402 399/399/399 400/400/400
f 403/403/403 402/402/402 400/400/400
f 398/398/398 404/404/404 401/401/401
f 401/401/401 404/404/404 405/405/405
f 406/406/406 402/402/402 403/403/403
f 407/407/407 406/406/406 403/403/403
f 404/404/404 408/408/408 405/405/405
f 405/405/405 408/408/408 409/409/409
f 410/410/410 406/406/406 407/407/407
f 411/411/411 410/410/410 407/407/407
f 408/408/408 412/412/412 409/409/409
f 409/409/409 412/412/412 413/413/413
f 414/414/414 410/410/410 411/411/411
f 415/415/415 414/414/414 411/411/411
f 412/412/412 416/416/416 413/413/413
f 413/413/413 416/416/416 417/417/417
f 418/418/418 414/414/414 415/415/415
f 419/419/419 418/418/418 415/415/415
f 416/416/416 420/420/420 417/417/417
f 417/417/417 420/420/420 421/421/421
f 422/422/422 418/418/418 419/419/419
f 423/423/423 422/422/422 419/419/419
f 420/420/420 424/424/424 421/421/421
f 421/421/421 424/424/424 425/425/425
f 426/426/426 422/422/422 423/423/423
f 427/427/427 426/426/426 423/423/423
f 425/425/425 428/428/428 427/427/427
f 424/424/424 428/428/428 425/425/425
f 428/428/428 426/426/426 427/427/427
f 418/418/418 429/429/429 414/414/414
f 422/422/422 430/430/430 418/418/418
f 430/430/430 429/429/429 418/418/418
f 426/426/426 431/431/431 422/422/422
f 431/431/431 430/430/430 422/422/422
f 428/428/428 432/432/432 426/426/426
f 432/432/432 431/431/431 426/426/426
f 424/424/424 433/433/433 428/428/428
f 433/433/433 432/432/432 428/428/428
f 420/420/420 434/434/434 424/424/424
f 434/434/434 433/433/433 424/424/424
f 429/429/429 435/435/435 414/414/414
f 414/414/414 435/435/435 410/410/410
f 436/436/436 434/434/434 420/420/420
f 416/416/416 436/436/436 420/420/420
f 435/435/435 437/437/437 410/410/410
f 410/410/410 437/437/437 406/406/406
f 438/438/438 436/436/436 416/416/416
f 412/412/412 438/438/438 416/416/416
f 437/437/437 439/439/439 406/406/406
f 406/406/406 439/439/439 402/402/402
f 440/440/440 438/438/438 412/412/412
f 408/408/408 440/440/440 412/412/412
f 439/439/439 441/441/441 402/402/402
f 402/402/402 441/441/441 399/399/399
f 442/442/442 440/440/440 408/408/408
f 404/404/404 442/442/442 408/408/408
f 441/441/441 443/443/443 399/399/399
f 399/399/399 443/443/443 398/398/398
f 398/398/398 444/444/444 404/404/404
f 444/444/444 442/442/442 404/404/404
f 443/443/443 444/444/444 398/398/398
f 437/437/437 445/445/445 439/439/439
f 439/439/439 446/446/446 441/441/441
f 445/445/445 446/446/446 439/439/439
f 446/446/446 445/445/445 447/447/447
f 448/448/448 445/445/445 437/437/437
f 445/445/445 448/448/448 447/447/447
f 435/435/435 448/448/448 437/437/437
f 446/446/446 449/449/449 441/441/441
f 441/441/441 449/449/449 443/443/443
f 449/449/449 446/446/446 447/447/447
f 450/450/450 448/448/448 435/435/435
f 448/448/448 450/450/450 447/447/447
f 429/429/429 450/450/450 435/435/435
f 449/449/449 451/451/451 443/443/443
f 443/443/443 451/451/451 444/444/444
f 451/451/451 449/449/449 447/447/447
f 452/452/452 450/450/450 429/429/429
f 450/450/450 452/452/452 447/447/447
f 430/430/430 452/452/452 429/429/429
f 451/451/451 453/453/453 444/444/444
f 453/453/453 451/451/451 447/447/447
f 452/452/452 454/454/454 447/447/447
f 454/454/454 452/452/452 430/430/430
f 455/455/455 453/453/453 447/447/447
f 444/444/444 453/453/453 442/442/442
f 453/453/453 455/455/455 442/442/442
f 431/431/431 454/454/454 430/430/430
f 442/442/442 455/455/455 440/440/440
f 456/456/456 454/454/454 431/431/431
f 454/454/454 456/456/456 447/447/447
f 432/432/432 456/456/456 431/431/431
f 455/455/455 457/457/457 440/440/440
f 457/457/457 455/455/455 447/447/447
f 440/440/440 457/457/457 438/438/438
f 458/458/458 456/456/456 432/432/432
f 456/456/456 458/458/458 447/447/447
f 433/433/433 458/458/458 432/432/432
f 457/457/457 459/459/459 438/438/438
f 459/459/459 457/457/457 447/447/447
f 438/438/438 459/459/459 436/436/436
f 460/460/460 458/458/458 433/433/433
f 458/458/458 460/460/460 447/447/447
f 434/434/434 460/460/460 433/433/433
f 436/436/436 461/461/461 434/434/434
f 459/459/459 461/461/461 436/436/436
f 461/461/461 459/459/459 447/447/447
f 461/461/461 460/460/460 434/434/434
f 460/460/460 461/461/461 447/447/447
f 464/464/464 463/463/463 462/462/462
f 465/465/465 464/464/464 462/462/462
f 462/462/462 463/463/463 466/466/466
f 467/467/467 464/464/464 465/465/465
f 463/463/463 468/468/468 466/466/466
f 469/469/469 467/467/467 465/465/465
f 466/466/466 468/468/468 470/470/470
f 471/471/471 467/467/467 469/469/469
f 468/468/468 472/472/472 470/470/470
f 473/473/473 471/471/471 469/469/469
f 470/470/470 472/472/472 474/474/474
f 475/475/475 471/471/471 473/473/473
f 472/472/472 476/476/476 474/474/474
f 477/477/477 475/475/475 473/473/473
f 474/474/474 476/476/476 478/478/478
f 479/479/479 475/475/475 477/477/477
f 476/476/476 480/480/480 478/478/478
f 481/481/481 479/479/479 477/477/477
f 478/478/478 480/480/480 482/482/482
f 483/483/483 479/479/479 481/481/481
f 480/480/480 484/484/484 482/482/482
f 485/485/485 483/483/483 481/481/481
f 482/482/482 484/484/484 486/486/486
f 487/487/487 483/483/483 485/485/485
f 484/484/484 488/488/488 486/486/486
f 489/489/489 487/487/487 485/485/485
f 486/486/486 488/488/488 490/490/490
f 491/491/491 487/487/487 489/489/489
f 488/488/488 492/492/492 490/490/490
f 493/493/493 491/491/491 489/489/489
f 490/490/490 492/492/492 493/493/493
f 492/492/492 491/491/491 493/493/493

