mtllib material.mtl
usemtl material_0
v -0.44018790 -0.00000002 -0.01994263
v -0.44018790 -0.00000002 -0.05994263
v -0.44708810 -0.00000002 -0.05994263
v -0.44708810 -0.00000002 -0.02665802
v -0.45918800 -0.00000002 -0.01994263
v -0.51237160 -0.00000002 -0.05994263
v -0.51237150 -0.00000002 -0.07193817
v -0.44708800 -0.00000002 -0.07193817
v -0.46566070 -0.00000002 -0.02665802
v -0.46579410 -0.00000002 0.02005646
v -0.45918800 -0.00000002 0.02005646
v -0.51237160 -0.00000002 0.02005646
v -0.52076490 -0.00000002 -0.05994263
v -0.52076490 -0.00000002 0.02005646
v -0.46579360 -0.00000002 0.03206085
v -0.51237110 -0.00000002 0.03206085
v -0.51237110 2.09317600 0.03277924
v -0.46579360 -0.00000002 0.03206085
v -0.51237110 -0.00000002 0.03206085
v -0.46579410 2.04141700 0.03275757
v 0.46579360 2.04141800 0.03275757
v 0.51237160 2.09317500 0.03277924
v 0.46579360 -0.00000416 0.03206085
v 0.51237110 -0.00000416 0.03206085
v -0.45918800 2.03090200 0.02075470
v -0.45918800 -0.00000002 0.02005646
v -0.46579410 -0.00000002 0.02005646
v -0.46579410 2.04142200 0.02075775
v 0.45918800 2.03090200 0.02075470
v 0.46579410 2.04142200 0.02075775
v 0.45918800 -0.00000003 0.02005859
v 0.46579410 -0.00000002 0.02005859
v -0.45918800 2.03090100 -0.01924438
v -0.45918800 -0.00000002 -0.01994263
v -0.45918800 -0.00000002 0.02005646
v -0.45918800 2.03090200 0.02075470
v -0.44018790 2.00180300 -0.01924805
v -0.44018790 -0.00000002 -0.01994263
v -0.45918800 -0.00000002 -0.01994263
v -0.45918800 2.03090100 -0.01924438
v 0.44018790 2.00180300 -0.01924805
v 0.45918800 2.03090100 -0.01924438
v 0.45918800 -0.00000003 -0.01994049
v 0.44018790 -0.00000003 -0.01994049
v -0.44018790 2.00181700 -0.05924805
v -0.44018790 -0.00000002 -0.05994263
v -0.44018790 -0.00000002 -0.01994263
v -0.44018790 2.00180300 -0.01924805
v -0.44708810 -0.00000002 -0.05994263
v -0.44018790 -0.00000002 -0.05994263
v -0.44018790 2.00181700 -0.05924805
v -0.44708810 2.01530600 -0.05924469
v 0.44708810 2.01530600 -0.05924469
v 0.44018790 2.00181700 -0.05924805
v 0.44018790 -0.00000003 -0.05994049
v 0.44708810 -0.00000002 -0.05994049
v -0.52076500 2.10378000 0.02078217
v -0.52076490 -0.00000002 0.02005646
v -0.52076490 -0.00000002 -0.05994263
v -0.52076500 2.10380700 -0.05921692
v -0.51237160 -0.00000002 0.02005646
v -0.52076490 -0.00000002 0.02005646
v -0.52076500 2.10378000 0.02078217
v -0.51237160 2.09318000 0.02077942
v 0.51237160 2.09318000 0.02077942
v 0.52076500 2.10378000 0.02078217
v 0.51237160 -0.00000002 0.02005890
v 0.52076490 -0.00000002 0.02005890
v -0.51237150 2.08782100 -0.07122070
v -0.51237150 -0.00000002 -0.07193817
v -0.44708800 -0.00000002 -0.07193817
v -0.44708800 2.01531000 -0.07124451
v 0.51237150 2.08782100 -0.07122070
v 0.44708810 2.01531000 -0.07124451
v 0.44708800 0.00000412 -0.07193817
v 0.51237150 0.00000412 -0.07193817
v -0.52076490 -0.00000002 -0.05994263
v -0.51237160 -0.00000002 -0.05994263
v -0.51237150 2.08781700 -0.05922058
v -0.52076500 2.10380700 -0.05921692
v 0.52076500 2.10380700 -0.05921692
v 0.51237150 2.08781700 -0.05922058
v 0.51237160 -0.00000002 -0.05994019
v 0.52076490 -0.00000002 -0.05994019
v -0.44018790 2.00180300 -0.01924805
v 0.44018790 2.00180300 -0.01924805
v 0.44018790 2.00181700 -0.05924805
v -0.44018790 2.00181700 -0.05924805
v -0.45918800 2.03090200 0.02075470
v 0.45918800 2.03090200 0.02075470
v 0.45918800 2.03090100 -0.01924438
v -0.45918800 2.03090100 -0.01924438
v -0.52076500 2.10380700 -0.05921692
v 0.52076500 2.10380700 -0.05921692
v 0.52076500 2.10378000 0.02078217
v -0.52076500 2.10378000 0.02078217
v 0.44018790 -0.00000003 -0.01994049
v 0.44708810 -0.00000002 -0.05994049
v 0.44018790 -0.00000003 -0.05994049
v 0.44708810 -0.00000002 -0.02665802
v 0.45918800 -0.00000003 -0.01994049
v 0.51237160 -0.00000002 -0.05994019
v 0.51237150 0.00000412 -0.07193817
v 0.44708800 0.00000412 -0.07193817
v 0.46566070 -0.00000002 -0.02665802
v 0.46579410 -0.00000002 0.02005859
v 0.45918800 -0.00000003 0.02005859
v 0.51237160 -0.00000002 0.02005890
v 0.52076490 -0.00000002 -0.05994019
v 0.52076490 -0.00000002 0.02005890
v 0.46579360 -0.00000416 0.03206085
v 0.51237110 -0.00000416 0.03206085
v 0.45918800 -0.00000003 -0.01994049
v 0.45918800 2.03090100 -0.01924438
v 0.45918800 2.03090200 0.02075470
v 0.45918800 -0.00000003 0.02005859
v 0.44018790 -0.00000003 -0.05994049
v 0.44018790 2.00181700 -0.05924805
v 0.44018790 2.00180300 -0.01924805
v 0.44018790 -0.00000003 -0.01994049
v 0.52076500 2.10380700 -0.05921692
v 0.52076490 -0.00000002 -0.05994019
v 0.52076490 -0.00000002 0.02005890
v 0.52076500 2.10378000 0.02078217
v -0.51237160 2.09318000 0.02077942
v -0.51237110 2.09317600 0.03277924
v -0.51237110 -0.00000002 0.03206085
v -0.51237160 -0.00000002 0.02005646
v -0.46579410 -0.00000002 0.02005646
v -0.46579360 -0.00000002 0.03206085
v -0.46579410 2.04141700 0.03275757
v -0.46579410 2.04142200 0.02075775
v -0.46579410 2.04142200 0.02075775
v -0.46579410 2.04141700 0.03275757
v 0.46579360 2.04141800 0.03275757
v 0.46579410 2.04142200 0.02075775
v 0.51237160 2.09318000 0.02077942
v 0.51237160 2.09317500 0.03277924
v -0.51237110 2.09317600 0.03277924
v -0.51237160 2.09318000 0.02077942
v 0.46579410 2.04142200 0.02075775
v 0.46579360 2.04141800 0.03275757
v 0.46579360 -0.00000416 0.03206085
v 0.46579410 -0.00000002 0.02005859
v 0.51237160 -0.00000002 0.02005890
v 0.51237110 -0.00000416 0.03206085
v 0.51237160 2.09317500 0.03277924
v 0.51237160 2.09318000 0.02077942
v -0.44708810 2.01530600 -0.05924469
v -0.44708800 2.01531000 -0.07124451
v -0.44708800 -0.00000002 -0.07193817
v -0.44708810 -0.00000002 -0.05994263
v -0.51237160 -0.00000002 -0.05994263
v -0.51237150 -0.00000002 -0.07193817
v -0.51237150 2.08782100 -0.07122070
v -0.51237150 2.08781700 -0.05922058
v -0.51237150 2.08781700 -0.05922058
v -0.51237150 2.08782100 -0.07122070
v 0.51237150 2.08782100 -0.07122070
v 0.51237150 2.08781700 -0.05922058
v 0.44708810 2.01530600 -0.05924469
v 0.44708810 2.01531000 -0.07124451
v -0.44708800 2.01531000 -0.07124451
v -0.44708810 2.01530600 -0.05924469
v 0.51237150 2.08781700 -0.05922058
v 0.51237150 2.08782100 -0.07122070
v 0.51237150 0.00000412 -0.07193817
v 0.51237160 -0.00000002 -0.05994019
v 0.44708810 -0.00000002 -0.05994049
v 0.44708800 0.00000412 -0.07193817
v 0.44708810 2.01531000 -0.07124451
v 0.44708810 2.01530600 -0.05924469
vn 0.00000000 -1.00000000 0.00000000
vn 0.00000000 -1.00000000 0.00000000
vn 0.00000000 -1.00000000 0.00000000
vn 0.00000000 -1.00000000 0.00000000
vn 0.00000000 -1.00000000 0.00000000
vn 0.00000000 -1.00000000 0.00000000
vn 0.00000000 -1.00000000 0.00000000
vn 0.00000000 -1.00000000 0.00000000
vn 0.00000000 -1.00000000 0.00000000
vn 0.00000000 -1.00000000 0.00000000
vn 0.00000000 -1.00000000 0.00000000
vn 0.00000000 -1.00000000 0.00000000
vn 0.00000000 -1.00000000 0.00000000
vn 0.00000000 -1.00000000 0.00000000
vn 0.00000000 -1.00000000 0.00000000
vn 0.00000000 -1.00000000 0.00000000
vn 0.00004424 -0.00034226 1.00000000
vn 0.00004424 -0.00034226 1.00000000
vn 0.00004424 -0.00034226 1.00000000
vn 0.00004424 -0.00034226 1.00000000
vn 0.00000013 -0.00041863 1.00000000
vn 0.00000013 -0.00041863 1.00000000
vn -0.00004868 -0.00034226 1.00000000
vn -0.00004868 -0.00034226 1.00000000
vn -0.00002904 -0.00034367 1.00000000
vn -0.00002904 -0.00034367 1.00000000
vn -0.00002904 -0.00034367 1.00000000
vn -0.00002904 -0.00034367 1.00000000
vn 0.00000000 -0.00029008 1.00000000
vn 0.00000000 -0.00029008 1.00000000
vn 0.00000000 -0.00034262 1.00000000
vn 0.00000000 -0.00034262 1.00000000
vn 1.00000000 0.00000000 0.00000000
vn 1.00000000 0.00000000 0.00000000
vn 1.00000000 0.00000000 0.00000000
vn 1.00000000 0.00000000 0.00000000
vn -0.00016314 -0.00034538 1.00000000
vn -0.00016314 -0.00034538 1.00000000
vn -0.00016314 -0.00034538 1.00000000
vn -0.00016314 -0.00034538 1.00000000
vn 0.00000000 -0.00012585 1.00000000
vn 0.00000000 -0.00012585 1.00000000
vn 0.00017254 -0.00034432 1.00000000
vn 0.00017254 -0.00034432 1.00000000
vn 1.00000000 0.00000000 0.00000000
vn 1.00000000 0.00000000 0.00000000
vn 1.00000000 0.00000000 0.00000000
vn 1.00000000 0.00000000 0.00000000
vn 0.00008455 0.00034664 -1.00000000
vn 0.00008455 0.00034664 -1.00000000
vn 0.00008455 0.00034665 -1.00000000
vn 0.00008455 0.00034664 -1.00000000
vn 0.00000000 0.00024887 -1.00000000
vn 0.00000000 0.00024887 -1.00000000
vn -0.00012969 0.00034558 -1.00000000
vn -0.00012969 0.00034558 -1.00000000
vn -1.00000000 0.00000000 0.00000000
vn -1.00000000 0.00000000 0.00000000
vn -1.00000000 0.00000000 0.00000000
vn -1.00000000 0.00000000 0.00000000
vn -0.00008871 -0.00034517 1.00000000
vn -0.00008871 -0.00034517 1.00000000
vn -0.00008871 -0.00034517 1.00000000
vn -0.00008871 -0.00034517 1.00000000
vn 0.00000000 -0.00025913 1.00000000
vn 0.00000000 -0.00025913 1.00000000
vn 0.00006653 -0.00034401 1.00000000
vn 0.00006653 -0.00034401 1.00000000
vn 0.00001458 0.00034392 -1.00000000
vn 0.00001458 0.00034392 -1.00000000
vn 0.00001458 0.00034392 -1.00000000
vn 0.00001458 0.00034392 -1.00000000
vn 0.00000000 0.00032828 -1.00000000
vn 0.00000000 0.00032828 -1.00000000
vn -0.00001531 0.00034392 -1.00000000
vn -0.00001531 0.00034392 -1.00000000
vn 0.00008882 0.00034539 -1.00000000
vn 0.00008882 0.00034539 -1.00000000
vn 0.00008882 0.00034539 -1.00000000
vn 0.00008882 0.00034539 -1.00000000
vn 0.00000000 0.00022902 -1.00000000
vn 0.00000000 0.00022902 -1.00000000
vn -0.00012005 0.00034423 -1.00000000
vn -0.00012005 0.00034423 -1.00000000
vn 0.00000000 -1.00000000 -0.00034942
vn 0.00000000 -1.00000000 -0.00034942
vn 0.00000000 -1.00000000 -0.00034942
vn 0.00000000 -1.00000000 -0.00034942
vn 0.00000000 -1.00000000 0.00000000
vn 0.00000000 -1.00000000 0.00000000
vn 0.00000000 -1.00000000 0.00000000
vn 0.00000000 -1.00000000 0.00000000
vn 0.00000000 1.00000000 0.00034692
vn 0.00000000 1.00000000 0.00034692
vn 0.00000000 1.00000000 0.00034692
vn 0.00000000 1.00000000 0.00034692
vn 0.00000047 -1.00000000 -0.00000030
vn 0.00000000 -1.00000000 -0.00011119
vn 0.00000068 -1.00000000 0.00000000
vn 0.00000014 -1.00000000 0.00000000
vn 0.00000040 -1.00000000 -0.00000036
vn 0.00000000 -1.00000000 -0.00007128
vn 0.00000000 -1.00000000 -0.00034547
vn 0.00000000 -1.00000000 -0.00034547
vn 0.00000000 -1.00000000 0.00000000
vn 0.00000000 -1.00000000 0.00000000
vn 0.00000056 -1.00000000 0.00000000
vn 0.00000000 -1.00000000 0.00000000
vn 0.00000000 -1.00000000 0.00000000
vn 0.00000000 -1.00000000 0.00000000
vn 0.00000000 -1.00000000 -0.00034450
vn 0.00000000 -1.00000000 -0.00034450
vn -1.00000000 0.00000000 0.00000000
vn -1.00000000 0.00000000 0.00000000
vn -1.00000000 0.00000000 0.00000000
vn -1.00000000 0.00000000 0.00000000
vn -1.00000000 0.00000000 0.00000000
vn -1.00000000 0.00000000 0.00000000
vn -1.00000000 0.00000000 0.00000000
vn -1.00000000 0.00000000 0.00000000
vn 1.00000000 0.00000000 0.00000000
vn 1.00000000 0.00000000 0.00000000
vn 1.00000000 0.00000000 0.00000000
vn 1.00000000 0.00000000 0.00000000
vn -1.00000000 0.00000000 0.00004132
vn -1.00000000 0.00000000 0.00004132
vn -1.00000000 0.00000000 0.00004132
vn -1.00000000 0.00000000 0.00004132
vn 1.00000000 0.00000012 -0.00001907
vn 1.00000000 0.00000012 -0.00001907
vn 1.00000000 0.00000012 -0.00001907
vn 1.00000000 0.00000012 -0.00001907
vn 0.00000049 -1.00000000 -0.00036690
vn 0.00000049 -1.00000000 -0.00036690
vn 0.00000049 -1.00000000 -0.00036690
vn 0.00000049 -1.00000000 -0.00036690
vn 0.00000045 1.00000000 0.00038120
vn 0.00000045 1.00000000 0.00038120
vn 0.00000045 1.00000000 0.00038120
vn 0.00000045 1.00000000 0.00038120
vn -1.00000000 0.00000000 -0.00003973
vn -1.00000000 0.00000000 -0.00003973
vn -1.00000000 0.00000000 -0.00003973
vn -1.00000000 0.00000000 -0.00003973
vn 1.00000000 -0.00000011 0.00002066
vn 1.00000000 -0.00000011 0.00002066
vn 1.00000000 -0.00000011 0.00002066
vn 1.00000000 -0.00000011 0.00002066
vn 1.00000000 0.00000000 0.00000636
vn 1.00000000 0.00000000 0.00000636
vn 1.00000000 0.00000000 0.00000636
vn 1.00000000 0.00000000 0.00000636
vn -1.00000000 0.00000000 -0.00000318
vn -1.00000000 0.00000000 -0.00000318
vn -1.00000000 0.00000000 -0.00000318
vn -1.00000000 0.00000000 -0.00000318
vn 0.00000000 1.00000000 0.00033354
vn 0.00000000 1.00000000 0.00033354
vn 0.00000000 1.00000000 0.00033354
vn 0.00000000 1.00000000 0.00033354
vn 0.00000000 -1.00000000 -0.00032765
vn 0.00000000 -1.00000000 -0.00032765
vn 0.00000000 -1.00000000 -0.00032765
vn 0.00000000 -1.00000000 -0.00032765
vn 1.00000000 0.00000000 -0.00000636
vn 1.00000000 0.00000000 -0.00000636
vn 1.00000000 0.00000000 -0.00000636
vn 1.00000000 0.00000000 -0.00000636
vn -1.00000000 0.00000000 0.00000318
vn -1.00000000 0.00000000 0.00000318
vn -1.00000000 0.00000000 0.00000318
vn -1.00000000 0.00000000 0.00000318
vt -9.87285300 0.83410600
vt -9.87285300 0.77160660
vt -9.88363600 0.77160660
vt -9.88363600 0.82361360
vt -9.90254100 0.83410600
vt -9.98564000 0.77160660
vt -9.98564000 0.75286380
vt -9.88363600 0.75286380
vt -9.91265400 0.82361360
vt -9.91286400 0.89660390
vt -9.90254100 0.89660390
vt -9.98564000 0.89660390
vt -9.99875500 0.77160660
vt -9.99875500 0.89660390
vt -9.91286300 0.91536090
vt -9.98563900 0.91536090
vt -10.21941000 1.84428500
vt -10.14664000 -1.42631100
vt -10.21941000 -1.42631100
vt -10.14664000 1.76341000
vt -8.69102700 1.76341200
vt -8.61824900 1.84428400
vt -8.69102700 -1.42631800
vt -8.61824900 -1.42631800
vt -10.14549000 2.19982500
vt -10.14549000 -0.97339590
vt -10.15581000 -0.97339590
vt -10.15581000 2.21626300
vt -8.71055600 2.19982500
vt -8.70023300 2.21626300
vt -8.71055600 -0.97339590
vt -8.70023300 -0.97339590
vt -9.50699900 2.20913100
vt -9.50590900 -0.96415210
vt -9.56840700 -0.96415210
vt -9.56949800 2.20913100
vt -10.32585000 2.16366400
vt -10.32585000 -0.96415130
vt -10.35554000 -0.96415130
vt -10.35554000 2.20913000
vt -8.95026200 2.16366400
vt -8.92057400 2.20913000
vt -8.92057400 -0.96415130
vt -8.95026200 -0.96415130
vt -9.91965800 2.18353200
vt -9.91857100 -0.94429540
vt -9.98107200 -0.94429540
vt -9.98215900 2.18351000
vt -10.55099000 2.19541900
vt -10.54021000 2.19541900
vt -10.54021000 -0.93243860
vt -10.55099000 -0.95351470
vt -9.15382800 -0.95351470
vt -9.16460900 -0.93243860
vt -9.16460900 2.19541900
vt -9.15382800 2.19541900
vt -9.92716200 1.85359200
vt -9.92829500 -1.43356600
vt -10.05330000 -1.43356600
vt -10.05216000 1.85363500
vt -10.43831000 -1.43355900
vt -10.45143000 -1.43355900
vt -10.45143000 1.85362300
vt -10.43831000 1.83706200
vt -8.83713900 1.83706200
vt -8.82402400 1.85362300
vt -8.83713900 -1.43355900
vt -8.82402400 -1.43355900
vt -10.00556000 -1.00508500
vt -10.00556000 2.25712900
vt -9.90355300 2.25712900
vt -9.90355300 -0.89178650
vt -8.40440100 -1.00508500
vt -8.50640700 -0.89178650
vt -8.50640700 2.25712200
vt -8.40440100 2.25712200
vt -10.68598000 1.85364300
vt -10.67287000 1.85364300
vt -10.67287000 -1.40859000
vt -10.68598000 -1.43357400
vt -9.05858500 -1.43357400
vt -9.07170000 -1.40859000
vt -9.07170000 1.85364300
vt -9.05858500 1.85364300
vt -9.92257000 1.59600900
vt -9.92257000 0.22042970
vt -9.98507000 0.22042970
vt -9.98507000 1.59600900
vt -9.94532800 1.43954000
vt -9.94532800 0.00456923
vt -10.00783000 0.00456923
vt -10.00783000 1.43954000
vt -9.91887000 1.33835500
vt -9.91887000 -0.28904010
vt -10.04387000 -0.28904010
vt -10.04387000 1.33835500
vt -9.97599900 0.83410980
vt -9.96521700 0.77161010
vt -9.97599900 0.77161010
vt -9.96521800 0.82361360
vt -9.94631100 0.83410980
vt -9.86321300 0.77161010
vt -9.86321300 0.75286330
vt -9.96521800 0.75286330
vt -9.93619800 0.82361360
vt -9.93598900 0.89660760
vt -9.94631100 0.89660760
vt -9.86321300 0.89660810
vt -9.85009700 0.77161010
vt -9.85009700 0.89660810
vt -9.93599000 0.91536130
vt -9.86321400 0.91536130
vt -9.77020000 -0.96414400
vt -9.76911300 2.20912300
vt -9.70661400 2.20912300
vt -9.70770200 -0.96414400
vt -9.99571400 -0.94430280
vt -9.99463200 2.18354000
vt -9.93213300 2.18351700
vt -9.93321400 -0.94430280
vt -9.69356000 1.85364200
vt -9.69243000 -1.43357300
vt -9.81742900 -1.43357300
vt -9.81855900 1.85359900
vt -9.31941400 1.84427200
vt -9.30066500 1.84426600
vt -9.30178800 -1.42630500
vt -9.32054500 -1.42630500
vt -9.51699000 -0.97339450
vt -9.53574600 -0.97339450
vt -9.53683600 2.21625500
vt -9.51808500 2.21626300
vt -9.99747200 1.45114300
vt -9.97872200 1.45114300
vt -9.97872200 -0.00441974
vt -9.99747200 -0.00442070
vt -9.98660100 -0.27756000
vt -10.00535000 -0.27756000
vt -10.00535000 1.32355400
vt -9.98660100 1.32355400
vt -9.33796200 2.21627700
vt -9.31921100 2.21627100
vt -9.32030100 -0.97340940
vt -9.33905300 -0.97340270
vt -9.51772100 -1.42628100
vt -9.53647500 -1.42628700
vt -9.53759800 1.84424800
vt -9.51884700 1.84425500
vt -9.75911400 2.19541500
vt -9.74036300 2.19542200
vt -9.73928000 -0.95351550
vt -9.75802300 -0.95351550
vt -9.30427600 -1.00504400
vt -9.32301900 -1.00504400
vt -9.32189800 2.25708700
vt -9.30314800 2.25708100
vt -10.00640000 1.52982000
vt -9.98764800 1.52982000
vt -9.98764800 -0.07131469
vt -10.00640000 -0.07131505
vt -9.95596500 0.21103100
vt -9.97471600 0.21103100
vt -9.97471600 1.60813700
vt -9.95596500 1.60813700
vt -9.33104400 2.25711100
vt -9.31229400 2.25711700
vt -9.31117300 -1.00506700
vt -9.32992100 -1.00507400
vt -9.74838800 -0.95348720
vt -9.76713400 -0.95348060
vt -9.76604900 2.19539300
vt -9.74730100 2.19538700
f 3/3/3 2/2/2 1/1/1
f 4/4/4 3/3/3 1/1/1
f 1/1/1 5/5/5 4/4/4
f 3/3/3 4/4/4 6/6/6
f 6/6/6 7/7/7 3/3/3
f 7/7/7 8/8/8 3/3/3
f 5/5/5 9/9/9 4/4/4
f 4/4/4 9/9/9 6/6/6
f 9/9/9 5/5/5 10/10/10
f 9/9/9 10/10/10 6/6/6
f 5/5/5 11/11/11 10/10/10
f 10/10/10 12/12/12 6/6/6
f 6/6/6 12/12/12 13/13/13
f 12/12/12 14/14/14 13/13/13
f 10/10/10 15/15/15 12/12/12
f 15/15/15 16/16/16 12/12/12
f 19/19/19 18/18/18 17/17/17
f 18/18/18 20/20/20 17/17/17
f 20/20/20 21/21/21 17/17/17
f 21/21/21 22/22/22 17/17/17
f 21/21/21 23/23/23 22/22/22
f 23/23/23 24/24/24 22/22/22
f 27/27/27 26/26/26 25/25/25
f 28/28/28 27/27/27 25/25/25
f 25/25/25 29/29/29 28/28/28
f 29/29/29 30/30/30 28/28/28
f 29/29/29 31/31/31 30/30/30
f 31/31/31 32/32/32 30/30/30
f 35/35/35 34/34/34 33/33/33
f 36/36/36 35/35/35 33/33/33
f 39/39/39 38/38/38 37/37/37
f 40/40/40 39/39/39 37/37/37
f 37/37/37 41/41/41 40/40/40
f 41/41/41 42/42/42 40/40/40
f 43/43/43 42/42/42 41/41/41
f 44/44/44 43/43/43 41/41/41
f 47/47/47 46/46/46 45/45/45
f 48/48/48 47/47/47 45/45/45
f 51/51/51 50/50/50 49/49/49
f 52/52/52 51/51/51 49/49/49
f 52/52/52 53/53/53 51/51/51
f 53/53/53 54/54/54 51/51/51
f 55/55/55 54/54/54 53/53/53
f 56/56/56 55/55/55 53/53/53
f 59/59/59 58/58/58 57/57/57
f 60/60/60 59/59/59 57/57/57
f 63/63/63 62/62/62 61/61/61
f 64/64/64 63/63/63 61/61/61
f 64/64/64 65/65/65 63/63/63
f 65/65/65 66/66/66 63/63/63
f 65/65/65 67/67/67 66/66/66
f 67/67/67 68/68/68 66/66/66
f 71/71/71 70/70/70 69/69/69
f 72/72/72 71/71/71 69/69/69
f 69/69/69 73/73/73 72/72/72
f 73/73/73 74/74/74 72/72/72
f 75/75/75 74/74/74 73/73/73
f 76/76/76 75/75/75 73/73/73
f 79/79/79 78/78/78 77/77/77
f 80/80/80 79/79/79 77/77/77
f 80/80/80 81/81/81 79/79/79
f 81/81/81 82/82/82 79/79/79
f 83/83/83 82/82/82 81/81/81
f 84/84/84 83/83/83 81/81/81
f 87/87/87 86/86/86 85/85/85
f 88/88/88 87/87/87 85/85/85
f 91/91/91 90/90/90 89/89/89
f 92/92/92 91/91/91 89/89/89
f 95/95/95 94/94/94 93/93/93
f 96/96/96 95/95/95 93/93/93
f 99/99/99 98/98/98 97/97/97
f 98/98/98 100/100/100 97/97/97
f 101/101/101 97/97/97 100/100/100
f 100/100/100 98/98/98 102/102/102
f 102/102/102 98/98/98 103/103/103
f 98/98/98 104/104/104 103/103/103
f 105/105/105 101/101/101 100/100/100
f 105/105/105 100/100/100 102/102/102
f 101/101/101 105/105/105 106/106/106
f 106/106/106 105/105/105 102/102/102
f 107/107/107 101/101/101 106/106/106
f 108/108/108 106/106/106 102/102/102
f 108/108/108 102/102/102 109/109/109
f 110/110/110 108/108/108 109/109/109
f 106/106/106 108/108/108 111/111/111
f 108/108/108 112/112/112 111/111/111
f 115/115/115 114/114/114 113/113/113
f 116/116/116 115/115/115 113/113/113
f 119/119/119 118/118/118 117/117/117
f 120/120/120 119/119/119 117/117/117
f 123/123/123 122/122/122 121/121/121
f 124/124/124 123/123/123 121/121/121
f 127/127/127 126/126/126 125/125/125
f 128/128/128 127/127/127 125/125/125
f 131/131/131 130/130/130 129/129/129
f 132/132/132 131/131/131 129/129/129
f 135/135/135 134/134/134 133/133/133
f 136/136/136 135/135/135 133/133/133
f 139/139/139 138/138/138 137/137/137
f 140/140/140 139/139/139 137/137/137
f 143/143/143 142/142/142 141/141/141
f 144/144/144 143/143/143 141/141/141
f 147/147/147 146/146/146 145/145/145
f 148/148/148 147/147/147 145/145/145
f 151/151/151 150/150/150 149/149/149
f 152/152/152 151/151/151 149/149/149
f 155/155/155 154/154/154 153/153/153
f 156/156/156 155/155/155 153/153/153
f 159/159/159 158/158/158 157/157/157
f 160/160/160 159/159/159 157/157/157
f 163/163/163 162/162/162 161/161/161
f 164/164/164 163/163/163 161/161/161
f 167/167/167 166/166/166 165/165/165
f 168/168/168 167/167/167 165/165/165
f 171/171/171 170/170/170 169/169/169
f 172/172/172 171/171/171 169/169/169

