# Blender 4.0.0
# www.blender.org
o decimated_mesh
v 0.000442 0.000495 0.002779
v -0.000418 0.000465 0.002781
v 0.001388 0.001730 0.002400
v 0.001916 0.020915 0.000931
v 0.000006 0.032859 0.000846
v -0.001377 0.001730 0.002400
v -0.001868 0.022033 0.000882
v 0.001849 -0.000958 0.000914
v 0.002182 0.000825 0.001524
v 0.002232 0.032902 -0.000383
v -0.002229 0.001730 0.001532
v -0.001913 -0.000866 0.001040
v -0.002222 0.032902 -0.000383
v 0.002653 0.000695 -0.000034
v 0.003045 0.032902 -0.001729
v -0.003039 0.032902 -0.001745
v -0.002642 0.000692 -0.000034
v 0.001887 -0.000970 -0.001126
v 0.001974 0.000823 -0.002088
v 0.002795 0.032902 -0.003496
v -0.002783 0.032902 -0.003506
v -0.001933 0.000784 -0.002103
v -0.001877 -0.000970 -0.001125
v 0.000011 -0.000928 -0.002745
v 0.001428 0.032902 -0.004800
v -0.001504 0.032902 -0.004745
vn 0.5898 -0.3579 0.7238
vn 0.5976 -0.2215 0.7706
vn -0.6972 -0.2149 0.6840
vn -0.6285 -0.2556 0.7346
vn 0.9144 -0.2731 0.2988
vn -0.9153 -0.1801 0.3604
vn -0.9447 -0.0392 -0.3255
vn 0.9900 -0.0194 -0.1397
vn 0.4803 0.0830 0.8732
vn 0.9035 -0.4281 0.0194
vn 0.9231 -0.2156 -0.3184
vn -0.4798 0.0860 0.8732
vn -0.9219 -0.2106 -0.3253
vn -0.9071 -0.4209 0.0055
vn 0.5928 -0.4029 -0.6973
vn -0.9673 0.0016 0.2537
vn -0.6947 -0.0497 -0.7176
vn -0.5894 -0.4074 -0.6976
vn -0.8577 0.0317 0.5132
vn -0.0190 -0.0598 -0.9980
vn -0.7134 0.0351 0.6999
vn -0.9894 -0.0198 -0.1437
vn 0.7554 0.0293 0.6546
vn 0.0007 -0.7949 0.6068
vn 0.8557 0.0340 0.5164
vn 0.0001 1.0000 0.0075
vn -0.0172 0.9998 0.0031
vn -0.0000 1.0000 -0.0000
vn 0.0174 0.9998 0.0029
vn -0.0001 1.0000 -0.0000
vn 0.3374 0.0607 0.9394
vn 0.2968 0.0648 0.9527
vn -0.2937 0.0642 0.9537
vn -0.3319 0.0606 0.9414
vn 0.0001 0.0596 0.9982
vn 0.9481 -0.0381 -0.3156
vn 0.9574 0.0035 0.2887
vn -0.0230 -0.9986 0.0477
vn -0.0000 -0.9997 -0.0262
vn -0.0000 -1.0000 0.0058
vn -0.8574 0.0318 0.5137
vn -0.3691 -0.0713 -0.9266
vn 0.3736 -0.0718 -0.9248
vn 0.0282 -0.7781 0.6275
vn 0.8729 0.0260 0.4873
vn 0.6894 -0.0494 -0.7227
vn -0.2978 0.0608 0.9527
vn 0.3014 0.0609 0.9516
vn -0.3400 0.0620 0.9384
vn 0.3467 0.0621 0.9359
vn -0.0000 0.9994 0.0343
s 0
f 1//1 8//1 9//1
f 1//2 9//2 3//2
f 6//3 11//3 12//3
f 6//4 12//4 2//4
f 8//5 14//5 9//5
f 17//6 12//6 11//6
f 21//7 22//7 17//7
f 20//8 15//8 14//8
f 10//9 5//9 4//9
f 8//10 18//10 14//10
f 14//11 18//11 19//11
f 5//12 13//12 7//12
f 17//13 22//13 23//13
f 17//14 23//14 12//14
f 18//15 24//15 19//15
f 16//16 17//16 11//16
f 26//17 22//17 21//17
f 23//18 22//18 24//18
f 7//19 16//19 11//19
f 24//20 26//20 25//20
f 11//21 6//21 7//21
f 21//22 17//22 16//22
f 4//23 3//23 9//23
f 8//24 2//24 12//24
f 15//25 10//25 4//25
f 25//26 26//26 5//26
f 10//27 25//27 5//27
f 26//28 21//28 13//28
f 16//28 13//28 21//28
f 13//29 5//29 26//29
f 10//30 15//30 20//30
f 25//28 10//28 20//28
f 5//31 1//31 4//31
f 1//32 3//32 4//32
f 6//33 2//33 7//33
f 2//34 5//34 7//34
f 1//35 5//35 2//35
f 20//36 14//36 19//36
f 15//37 9//37 14//37
f 12//38 23//38 8//38
f 24//39 18//39 23//39
f 18//40 8//40 23//40
f 7//41 13//41 16//41
f 26//42 24//42 22//42
f 24//43 25//43 19//43
f 8//44 1//44 2//44
f 4//45 9//45 15//45
f 25//46 20//46 19//46
f 5//47 6//47 2//47
f 3//48 5//48 1//48
f 7//49 6//49 5//49
f 3//50 4//50 5//50
f 10//51 13//51 5//51
f 15//28 13//28 10//28
f 15//28 16//28 13//28
f 15//28 21//28 16//28
f 15//28 26//28 21//28
f 25//28 15//28 20//28
f 25//28 26//28 15//28
