# Blender 4.0.0
# www.blender.org
o decimated_mesh
v 0.008812 0.040991 -0.000638
v 0.007823 0.041467 -0.001756
v 0.008881 0.041022 -0.004319
v 0.007823 0.040154 0.000309
v 0.009169 0.041130 -0.001756
v -0.007813 0.041383 -0.003493
v -0.008922 0.041278 -0.001524
v -0.008791 0.040873 -0.000446
v 0.008850 0.039077 0.000965
v 0.010473 0.039011 -0.000673
v 0.010413 0.039678 -0.001584
v 0.010452 0.039363 -0.004213
v 0.007725 0.039134 -0.005984
v 0.008870 0.037400 -0.006318
v -0.008910 0.041002 -0.004292
v 0.007823 0.038213 0.001179
v 0.010705 0.038273 -0.002450
v 0.010443 0.036501 -0.004401
v -0.007648 0.039200 -0.005969
v -0.008857 0.037371 -0.006323
v -0.010440 0.039369 -0.004214
v -0.010462 0.039385 -0.000965
v -0.008792 0.039206 0.000914
v -0.008912 0.038065 0.001099
v 0.010462 0.036789 -0.000669
v 0.009163 0.035236 -0.004757
v 0.010404 0.035436 -0.002821
v -0.010459 0.036961 -0.004503
v -0.010694 0.038303 -0.002405
v -0.010476 0.036943 -0.000601
v 0.000018 0.032850 0.000680
v 0.008850 0.036627 0.000987
v -0.008800 0.036597 0.000985
v 0.009167 0.035218 -0.000363
v 0.010323 0.035871 -0.001352
v 0.007823 0.034175 -0.003493
v 0.001300 0.032890 -0.004833
v 0.009180 0.034708 -0.001650
v -0.009153 0.035236 -0.004757
v -0.010142 0.035375 -0.003420
v -0.010401 0.035446 -0.002190
v -0.009157 0.035218 -0.000363
v -0.001644 0.032891 -0.004738
v -0.007813 0.034175 -0.003493
v 0.002955 0.032909 -0.000998
v -0.007813 0.034147 -0.001756
v -0.002903 0.032909 -0.000919
vn 0.2716 -0.8532 0.4453
vn 0.0022 0.7479 0.6638
vn 0.2377 0.9517 0.1942
vn 0.7108 0.5894 0.3838
vn 0.7054 0.6399 0.3048
vn 0.6210 0.5104 0.5949
vn -0.7771 0.6294 -0.0083
vn -0.0016 0.9039 -0.4277
vn 0.2417 0.9680 -0.0680
vn 0.0021 0.6607 -0.7506
vn -0.0061 0.1607 0.9870
vn -0.7259 0.1841 0.6627
vn 0.4938 0.4191 -0.7619
vn 0.7619 0.6444 -0.0658
vn -0.6831 0.6523 0.3285
vn -0.6266 0.4928 0.6038
vn 0.7104 0.0063 0.7038
vn -0.6951 -0.1081 0.7107
vn 0.9913 -0.0047 0.1315
vn 0.0131 0.9861 -0.1656
vn 0.9929 -0.1109 0.0433
vn -0.9935 -0.1053 -0.0443
vn 0.5995 -0.4135 -0.6853
vn -0.9343 -0.3085 -0.1788
vn -0.7284 -0.4795 -0.4894
vn 0.7814 0.0383 -0.6228
vn -0.4884 0.4205 -0.7646
vn 0.6452 -0.7081 0.2870
vn -0.7642 0.0994 0.6373
vn -0.0001 0.1891 -0.9820
vn 0.6672 -0.4316 0.6071
vn -0.0078 0.6322 0.7748
vn 0.4731 -0.8543 -0.2153
vn 0.2601 -0.8575 -0.4439
vn -0.1748 -0.5664 -0.8053
vn 0.0008 -0.3140 -0.9494
vn -0.4467 -0.8946 -0.0147
vn -0.6450 -0.3918 -0.6560
vn 0.2836 -0.9566 0.0677
vn -0.0025 0.9359 0.3523
vn -0.9941 -0.0985 0.0461
vn -0.2484 -0.6434 0.7241
vn 0.7101 -0.4858 0.5097
vn -0.2622 0.9601 -0.0968
vn -0.6669 -0.4254 0.6118
vn -0.2162 -0.9741 -0.0669
vn 0.1750 -0.5604 -0.8095
vn -0.2670 -0.8586 -0.4376
vn -0.4501 -0.8590 -0.2438
vn 0.0040 0.0868 -0.9962
vn 0.4287 0.4356 -0.7915
vn -0.2873 -0.8731 0.3940
vn -0.4666 -0.8591 0.2103
vn -0.9755 0.2200 -0.0077
vn 0.2937 -0.8877 0.3545
vn 0.1836 0.6332 0.7519
vn -0.7297 0.6800 -0.0710
vn 0.1971 0.0088 0.9803
vn -0.4285 0.4363 -0.7912
vn -0.0019 0.6806 -0.7327
vn -0.0010 0.2420 0.9703
vn -0.9898 0.0266 0.1400
vn 0.9637 -0.2367 0.1232
vn 0.7253 0.6796 -0.1102
vn -0.9918 0.0229 -0.1261
vn 0.7166 -0.0023 0.6975
vn 0.4537 -0.8878 -0.0775
vn 0.9839 0.1688 0.0584
vn -0.0106 0.9988 0.0471
vn 0.9904 0.0059 -0.1385
vn 0.6586 -0.7109 0.2467
vn 0.9941 -0.0997 -0.0431
vn -0.0000 0.1898 -0.9818
vn 0.0014 0.5211 0.8535
vn -0.7411 -0.5057 0.4416
vn -0.0300 -0.3760 -0.9261
vn -0.4586 -0.8875 -0.0453
vn 0.2095 -0.9741 -0.0856
vn 0.2486 -0.6403 0.7268
vn -0.0049 0.9187 0.3949
vn 0.9777 0.2099 -0.0105
vn -0.0007 -1.0000 -0.0074
vn -0.0191 -0.9998 -0.0018
vn 0.0183 -0.9998 -0.0030
vn -0.2419 -0.9702 -0.0160
vn -0.7573 0.0838 -0.6476
vn -0.0018 0.0770 -0.9970
vn 0.0133 -0.1118 0.9936
vn -0.2705 -0.8440 0.4632
vn 0.7004 -0.5995 -0.3874
vn -0.0056 0.9357 0.3527
vn -0.0019 0.9197 0.3927
vn -0.0000 0.1892 -0.9819
vn -0.0001 0.1899 -0.9818
vn 0.0041 0.0774 -0.9970
vn 0.0030 0.0882 -0.9961
s 0
f 45//1 34//1 31//1
f 1//2 8//2 4//2
f 2//3 1//3 5//3
f 1//4 10//4 11//4
f 1//5 11//5 5//5
f 1//6 9//6 10//6
f 7//7 21//7 22//7
f 3//8 15//8 6//8
f 3//9 2//9 5//9
f 19//10 3//10 13//10
f 16//11 23//11 24//11
f 24//12 23//12 22//12
f 12//13 14//13 3//13
f 12//14 5//14 11//14
f 7//15 22//15 8//15
f 8//16 22//16 23//16
f 32//17 10//17 9//17
f 33//18 24//18 30//18
f 10//19 25//19 17//19
f 6//20 2//20 3//20
f 17//21 25//21 27//21
f 28//22 41//22 29//22
f 14//23 18//23 26//23
f 41//24 28//24 40//24
f 40//25 28//25 39//25
f 18//26 14//26 12//26
f 20//27 21//27 15//27
f 38//28 35//28 34//28
f 22//29 30//29 24//29
f 14//30 19//30 13//30
f 32//31 34//31 25//31
f 23//32 4//32 8//32
f 26//33 27//33 36//33
f 26//34 36//34 37//34
f 20//35 43//35 39//35
f 37//36 20//36 14//36
f 41//37 44//37 46//37
f 20//38 39//38 28//38
f 45//39 36//39 38//39
f 1//40 7//40 8//40
f 29//41 41//41 30//41
f 31//42 33//42 42//42
f 35//43 25//43 34//43
f 15//44 7//44 6//44
f 33//45 30//45 42//45
f 47//46 44//46 43//46
f 26//47 37//47 14//47
f 39//48 43//48 44//48
f 39//49 44//49 40//49
f 16//50 31//50 24//50
f 13//51 3//51 14//51
f 47//52 42//52 46//52
f 42//53 41//53 46//53
f 29//54 22//54 21//54
f 45//55 38//55 34//55
f 4//56 9//56 1//56
f 7//57 15//57 21//57
f 32//58 9//58 16//58
f 19//59 20//59 15//59
f 19//60 15//60 3//60
f 16//61 9//61 23//61
f 29//62 30//62 22//62
f 27//63 25//63 35//63
f 12//64 3//64 5//64
f 21//65 28//65 29//65
f 32//66 25//66 10//66
f 36//67 27//67 38//67
f 17//68 11//68 10//68
f 6//69 7//69 2//69
f 17//70 18//70 12//70
f 38//71 27//71 35//71
f 18//72 17//72 27//72
f 14//73 20//73 19//73
f 23//74 9//74 4//74
f 41//75 42//75 30//75
f 37//76 43//76 20//76
f 41//77 40//77 44//77
f 45//78 37//78 36//78
f 31//79 34//79 32//79
f 1//80 2//80 7//80
f 12//81 11//81 17//81
f 43//82 37//82 31//82
f 43//83 31//83 47//83
f 45//84 31//84 37//84
f 47//85 46//85 44//85
f 28//86 21//86 20//86
f 33//87 24//87 31//87
f 31//88 32//88 16//88
f 47//89 31//89 42//89
f 27//90 26//90 18//90
f 7//91 8//91 2//91
f 8//92 1//92 2//92
f 20//93 13//93 14//93
f 20//94 19//94 13//94
f 24//95 16//95 33//95
f 33//96 16//96 31//96
