# Blender 4.0.0
# www.blender.org
o decimated_mesh
v -0.393921 0.719683 -0.173829
v -0.398733 0.714562 -0.171155
v -0.400402 0.719495 -0.171493
v -0.399549 0.725288 -0.171989
v 0.393931 0.719683 -0.173829
v -0.393921 0.727748 -0.166391
v 0.399549 0.725404 -0.171838
v 0.400409 0.719514 -0.171502
v 0.398721 0.714387 -0.170975
v -0.401126 0.719610 0.229413
v 0.393931 0.727748 -0.166391
v -0.399655 0.725423 0.232528
v -0.390121 0.727516 0.242587
v 0.401136 0.719610 0.229413
v -0.378361 0.713845 0.253597
v -0.398409 0.715413 0.239243
v -0.398027 0.723782 0.243665
v 0.390298 0.727494 0.242669
v 0.399667 0.725492 0.231526
v 0.398278 0.715330 0.239951
v -0.390510 0.715546 0.252142
v -0.390621 0.724702 0.252332
v -0.370032 0.727466 0.255421
v 0.398090 0.723769 0.243582
v -0.374818 0.715146 0.260161
v -0.378421 0.719733 0.259944
v 0.390526 0.715547 0.252136
v -0.374169 0.725012 0.260905
v 0.390608 0.724704 0.252354
v 0.370042 0.727466 0.255421
v -0.367311 0.719641 0.262483
v 0.378431 0.719733 0.259944
v 0.375329 0.714528 0.259756
v 0.374227 0.725119 0.260830
v 0.367485 0.719936 0.262524
vn -0.3292 -0.1751 -0.9279
vn -0.3380 -0.0308 -0.9406
vn 0.0001 -0.4742 -0.8804
vn 0.0369 -0.9993 0.0023
vn 0.3379 -0.0045 -0.9412
vn 0.3264 -0.2023 -0.9233
vn 0.0001 0.3285 -0.9445
vn -0.0000 0.9186 -0.3951
vn -0.8285 -0.2315 0.5098
vn -0.3979 0.8975 0.1904
vn -0.9735 0.1577 0.1655
vn 0.4068 0.8954 0.1811
vn -0.2170 0.9762 0.0026
vn -0.8413 -0.5405 0.0018
vn 0.7595 -0.0223 0.6501
vn -0.1702 0.9409 0.2927
vn -0.9894 0.1454 -0.0018
vn 0.9703 0.1871 0.1536
vn -0.9690 -0.0794 0.2339
vn -0.4395 -0.3053 0.8448
vn -0.0001 0.9128 0.4084
vn 0.9697 -0.0779 0.2314
vn 0.8235 -0.2086 0.5276
vn -0.4550 0.2089 0.8656
vn 0.1674 0.9488 0.2680
vn 0.3847 0.9231 -0.0003
vn -0.2219 -0.1286 0.9665
vn -0.7589 -0.0228 0.6508
vn 0.4439 -0.2952 0.8460
vn -0.2227 0.0020 0.9749
vn 0.9895 0.1444 -0.0018
vn -0.5362 -0.0241 0.8437
vn 0.4534 0.2114 0.8659
vn 0.8341 -0.5517 0.0022
vn 0.2232 -0.1678 0.9602
vn 0.5361 -0.0249 0.8438
vn 0.0001 -0.4555 0.8902
vn 0.2297 0.0192 0.9731
vn -0.0795 -0.9968 0.0021
vn -0.0000 -0.4628 -0.8865
vn 0.1104 -0.9900 0.0879
vn -0.0000 0.3118 -0.9501
vn -0.0001 0.9156 -0.4022
vn -0.3882 0.8905 0.2371
vn 0.0001 0.3106 0.9506
vn -0.0002 0.2817 0.9595
vn 0.3951 0.8860 0.2426
vn -0.4001 0.9165 -0.0004
vn -0.9472 -0.3205 -0.0016
vn -0.1673 0.9495 0.2655
vn -0.9694 0.2456 -0.0003
vn -0.1657 -0.9465 0.2770
vn -0.0000 0.9174 0.3980
vn 0.0009 -1.0000 0.0004
vn -0.0002 -1.0000 -0.0017
vn 0.1686 0.9452 0.2796
vn -0.0000 1.0000 0.0007
vn -0.0010 1.0000 0.0006
vn 0.0021 1.0000 0.0005
vn 0.2118 0.9773 0.0025
vn -0.0007 -0.9809 0.1948
vn 0.9702 0.2424 -0.0003
vn 0.9498 -0.3128 -0.0016
vn 0.0001 -0.4591 0.8884
vn -0.1499 -0.9834 0.1019
vn -0.0000 1.0000 0.0006
vn -0.0000 1.0000 0.0039
vn -0.0000 1.0000 0.0023
s 0
f 1//1 2//1 3//1
f 1//2 3//2 4//2
f 2//3 5//3 9//3
f 33//4 9//4 20//4
f 5//5 7//5 8//5
f 5//6 8//6 9//6
f 5//7 4//7 7//7
f 7//8 6//8 11//8
f 16//9 21//9 17//9
f 13//10 12//10 17//10
f 10//11 17//11 12//11
f 24//12 19//12 18//12
f 6//13 12//13 13//13
f 10//14 2//14 16//14
f 24//15 29//15 27//15
f 23//16 22//16 28//16
f 4//17 3//17 10//17
f 19//18 24//18 14//18
f 16//19 17//19 10//19
f 21//20 25//20 26//20
f 34//21 23//21 28//21
f 24//22 20//22 14//22
f 27//23 20//23 24//23
f 22//24 26//24 28//24
f 29//25 18//25 30//25
f 11//26 19//26 7//26
f 25//27 31//27 26//27
f 22//28 17//28 21//28
f 27//29 32//29 33//29
f 28//30 26//30 31//30
f 14//31 8//31 7//31
f 21//32 26//32 22//32
f 29//33 34//33 32//33
f 9//34 14//34 20//34
f 33//35 32//35 35//35
f 29//36 32//36 27//36
f 31//37 33//37 35//37
f 34//38 35//38 32//38
f 2//39 15//39 16//39
f 2//40 1//40 5//40
f 20//41 27//41 33//41
f 5//42 1//42 4//42
f 7//43 4//43 6//43
f 17//44 22//44 13//44
f 34//45 28//45 35//45
f 35//46 28//46 31//46
f 18//47 29//47 24//47
f 6//48 4//48 12//48
f 10//49 3//49 2//49
f 23//50 13//50 22//50
f 12//51 4//51 10//51
f 25//52 21//52 15//52
f 34//53 30//53 23//53
f 33//54 15//54 9//54
f 9//55 15//55 2//55
f 34//56 29//56 30//56
f 23//57 30//57 11//57
f 11//58 30//58 18//58
f 11//57 6//57 23//57
f 6//59 13//59 23//59
f 11//60 18//60 19//60
f 33//61 25//61 15//61
f 7//62 19//62 14//62
f 9//63 8//63 14//63
f 31//64 25//64 33//64
f 16//65 15//65 21//65
f 13//66 11//66 6//66
f 23//67 30//67 13//67
f 30//68 18//68 13//68
f 18//66 11//66 13//66
