mtllib material.mtl
usemtl material_0
v -0.00071944 0.46146550 0.00071938
v -0.00071944 0.46146550 -0.00071945
v 0.00071944 0.46146550 -0.00071945
v 0.00071944 0.46146550 0.00071938
v -0.20437590 0.00652029 -0.08682289
v -0.20437590 0.00652029 -0.06952560
v 0.20437590 0.00652029 -0.06952560
v 0.20437590 0.00652029 -0.08682289
v -0.20437590 0.38966590 -0.03580078
v 0.20437590 0.38966590 0.00702209
v -0.20437590 0.38966590 0.00702209
v 0.20437590 0.38966590 -0.03580078
v 0.20437590 0.38321780 -0.04533180
v -0.20437590 0.38321780 -0.04533180
v 0.20437590 0.38966590 -0.03580078
v 0.20437590 0.37681170 0.00702209
v 0.20437590 0.38966590 0.00702209
v 0.20437590 0.37681170 -0.02422676
v 0.20437590 0.37266360 -0.03315208
v 0.20437590 0.38321780 -0.04533180
v 0.20437590 0.37210800 -0.05240395
v 0.20437590 0.36907240 -0.03618118
v 0.20437590 0.35949780 -0.03967979
v 0.20437590 0.35949780 -0.05697678
v 0.20437590 0.00652029 -0.08682289
v 0.20437590 0.00652029 -0.06952560
v 0.20437590 0.37681170 -0.02422676
v -0.20437590 0.37681170 0.00702209
v 0.20437590 0.37681170 0.00702209
v -0.20437590 0.37681170 -0.02422676
v -0.20437590 0.37266360 -0.03315208
v 0.20437590 0.37266360 -0.03315208
v -0.20437590 0.37681170 -0.02422676
v -0.20437590 0.38966590 0.00702209
v -0.20437590 0.37681170 0.00702209
v -0.20437590 0.38966590 -0.03580078
v -0.20437590 0.38321780 -0.04533180
v -0.20437590 0.37266360 -0.03315208
v -0.20437590 0.36907240 -0.03618118
v -0.20437590 0.37210800 -0.05240395
v -0.20437590 0.35949780 -0.05697678
v -0.20437590 0.35949780 -0.03967979
v -0.20437590 0.00652029 -0.06952560
v -0.20437590 0.00652029 -0.08682289
v -0.20437590 0.38966590 0.00702209
v 0.20437590 0.38966590 0.00702209
v 0.20437590 0.37681170 0.00702209
v -0.20437590 0.37681170 0.00702209
v 0.20437590 0.36907240 -0.03618118
v -0.20437590 0.36907240 -0.03618118
v -0.20437590 0.37210800 -0.05240395
v 0.20437590 0.37210800 -0.05240395
v -0.20437590 0.35949780 -0.03967979
v 0.20437590 0.00652029 -0.06952560
v -0.20437590 0.00652029 -0.06952560
v 0.20437590 0.35949780 -0.03967979
v 0.20437590 0.36907240 -0.03618118
v -0.20437590 0.36907240 -0.03618118
v 0.20437590 0.35949780 -0.05697678
v -0.20437590 0.00652029 -0.08682289
v 0.20437590 0.00652029 -0.08682289
v -0.20437590 0.35949780 -0.05697678
v -0.20437590 0.37210800 -0.05240395
v 0.20437590 0.37210800 -0.05240395
vn 0.00000000 1.00000000 0.00000000
vn 0.00000000 1.00000000 0.00000000
vn 0.00000000 1.00000000 0.00000000
vn 0.00000000 1.00000000 0.00000000
vn 0.00000000 -1.00000000 0.00000000
vn 0.00000000 -1.00000000 0.00000000
vn 0.00000000 -1.00000000 0.00000000
vn 0.00000000 -1.00000000 0.00000000
vn 0.00000000 0.99250060 -0.12223930
vn 0.00000000 1.00000000 0.00000000
vn 0.00000000 1.00000000 0.00000000
vn 0.00000000 0.99250060 -0.12223930
vn 0.00000000 0.68707660 -0.72658500
vn 0.00000000 0.68707660 -0.72658500
vn 1.00000000 0.00000000 0.00000000
vn 1.00000000 0.00000000 0.00000000
vn 1.00000000 0.00000000 0.00000000
vn 1.00000000 0.00000000 0.00000000
vn 1.00000000 0.00000000 0.00000000
vn 1.00000000 0.00000000 0.00000000
vn 1.00000000 -0.00000100 0.00000000
vn 1.00000000 -0.00000072 0.00000000
vn 1.00000000 0.00000000 0.00000000
vn 1.00000000 0.00000000 0.00000000
vn 1.00000000 0.00000000 0.00000000
vn 1.00000000 0.00000000 0.00000000
vn 0.00000000 -0.99471180 0.10270600
vn 0.00000000 -1.00000000 0.00000000
vn 0.00000000 -1.00000000 0.00000000
vn 0.00000000 -0.99471180 0.10270600
vn 0.00000000 -0.83943810 0.54345520
vn 0.00000000 -0.83943810 0.54345520
vn -1.00000000 0.00000000 0.00000000
vn -1.00000000 0.00000000 0.00000000
vn -1.00000000 0.00000000 0.00000000
vn -1.00000000 0.00000000 0.00000000
vn -1.00000000 0.00000129 0.00000000
vn -1.00000000 0.00000108 0.00000000
vn -1.00000000 0.00000070 0.00000000
vn -1.00000000 0.00000000 0.00000000
vn -1.00000000 0.00000000 0.00000000
vn -1.00000000 0.00000000 0.00000000
vn -1.00000000 0.00000000 0.00000000
vn -1.00000000 0.00000000 0.00000000
vn 0.00000000 0.00000000 1.00000000
vn 0.00000000 0.00000000 1.00000000
vn 0.00000000 0.00000000 1.00000000
vn 0.00000000 0.00000000 1.00000000
vn 0.00000000 -0.44420510 0.89592520
vn 0.00000000 -0.44420510 0.89592520
vn 0.00000000 0.44069100 -0.89765890
vn 0.00000000 0.44069100 -0.89765890
vn 0.00000000 -0.09158487 0.99579730
vn 0.00000000 -0.08425377 0.99644430
vn 0.00000000 -0.08425377 0.99644430
vn 0.00000000 -0.09158487 0.99579730
vn 0.00000000 -0.44420510 0.89592520
vn 0.00000000 -0.44420510 0.89592520
vn 0.00000000 0.09373238 -0.99559740
vn 0.00000000 0.08425464 -0.99644430
vn 0.00000000 0.08425464 -0.99644430
vn 0.00000000 0.09373238 -0.99559740
vn 0.00000000 0.44069100 -0.89765890
vn 0.00000000 0.44069100 -0.89765890
vt -44.35269000 -17.67310000
vt -44.35094000 -17.67310000
vt -44.35094000 -17.67485000
vt -44.35269000 -17.67485000
vt -44.47255000 -0.02867228
vt -44.47255000 0.00511351
vt -43.67421000 0.00510983
vt -43.67421000 -0.02866848
vt -44.49881000 0.06886888
vt -43.64796000 -0.02027752
vt -44.49880000 -0.02027684
vt -43.64795000 0.06886959
vt -43.64795000 0.08870620
vt -44.49881000 0.08870548
vt -44.93184000 0.40367340
vt -44.90674000 0.32004710
vt -44.93185000 0.32005100
vt -44.90674000 0.38107200
vt -44.89864000 0.39849940
vt -44.91925000 0.42229060
vt -44.89755000 0.43609490
vt -44.89163000 0.40441750
vt -44.87293000 0.41124600
vt -44.87293000 0.44502570
vt -44.18362000 0.50331250
vt -44.18362000 0.46953000
vt -43.66243000 0.09145862
vt -44.48432000 0.15429480
vt -43.66244000 0.15429870
vt -44.48433000 0.09146211
vt -44.48432000 0.07351649
vt -43.66244000 0.07351026
vt -44.90681000 0.32259680
vt -44.93192000 0.38363140
vt -44.90680000 0.38362810
vt -44.93192000 0.29999060
vt -44.91932000 0.28137160
vt -44.89870000 0.30516280
vt -44.89169000 0.29924720
vt -44.89762000 0.26756240
vt -44.87299000 0.25862450
vt -44.87299000 0.29241530
vt -44.18355000 0.23411330
vt -44.18355000 0.20033540
vt -44.47251000 0.16387880
vt -43.67424000 0.16387340
vt -43.67425000 0.13877780
vt -44.47252000 0.13877730
vt -43.66243000 0.06742361
vt -44.48432000 0.06742039
vt -44.49880000 0.10342590
vt -43.64796000 0.10342530
vt -44.47359000 0.72185220
vt -43.67318000 0.03066552
vt -44.47358000 0.03065982
vt -43.67317000 0.72184880
vt -43.67318000 0.74060250
vt -44.47358000 0.74059850
vt -44.17297000 0.36296690
vt -44.97357000 1.05432300
vt -44.17297000 1.05432000
vt -44.97357000 0.36296270
vt -44.97357000 0.33826610
vt -44.17297000 0.33826320
f 3/3/3 2/2/2 1/1/1
f 4/4/4 3/3/3 1/1/1
f 7/7/7 6/6/6 5/5/5
f 8/8/8 7/7/7 5/5/5
f 11/11/11 10/10/10 9/9/9
f 10/10/10 12/12/12 9/9/9
f 12/12/12 13/13/13 9/9/9
f 13/13/13 14/14/14 9/9/9
f 17/17/17 16/16/16 15/15/15
f 16/16/16 18/18/18 15/15/15
f 18/18/18 19/19/19 15/15/15
f 19/19/19 20/20/20 15/15/15
f 20/20/20 19/19/19 21/21/21
f 19/19/19 22/22/22 21/21/21
f 21/21/21 22/22/22 23/23/23
f 24/24/24 21/21/21 23/23/23
f 25/25/25 24/24/24 23/23/23
f 26/26/26 25/25/25 23/23/23
f 29/29/29 28/28/28 27/27/27
f 28/28/28 30/30/30 27/27/27
f 30/30/30 31/31/31 27/27/27
f 31/31/31 32/32/32 27/27/27
f 35/35/35 34/34/34 33/33/33
f 34/34/34 36/36/36 33/33/33
f 36/36/36 37/37/37 33/33/33
f 37/37/37 38/38/38 33/33/33
f 38/38/38 37/37/37 39/39/39
f 37/37/37 40/40/40 39/39/39
f 39/39/39 40/40/40 41/41/41
f 42/42/42 39/39/39 41/41/41
f 43/43/43 42/42/42 41/41/41
f 44/44/44 43/43/43 41/41/41
f 47/47/47 46/46/46 45/45/45
f 48/48/48 47/47/47 45/45/45
f 31/31/31 50/50/50 49/49/49
f 32/32/32 31/31/31 49/49/49
f 13/13/13 52/52/52 51/51/51
f 14/14/14 13/13/13 51/51/51
f 55/55/55 54/54/54 53/53/53
f 54/54/54 56/56/56 53/53/53
f 56/56/56 57/57/57 53/53/53
f 57/57/57 58/58/58 53/53/53
f 61/61/61 60/60/60 59/59/59
f 60/60/60 62/62/62 59/59/59
f 62/62/62 63/63/63 59/59/59
f 63/63/63 64/64/64 59/59/59

