mtllib material.mtl
usemtl material_0
v -0.19021000 -0.28779000 -0.27443000
v -0.19021000 -0.28779000 -0.27444000
v -0.19020000 -0.28779000 -0.27444000
v -0.19020000 -0.28779000 -0.27443000
v 0.18197000 0.01453000 -0.45251000
v 0.18432000 -0.00849000 -0.43887000
v -0.14881000 -0.00849000 -0.43887000
v -0.14645000 0.01453000 -0.45251000
v -0.14645000 0.01574000 -0.01126000
v 0.18197000 0.01574000 -0.01126000
v 0.19022000 0.01453000 -0.00375000
v -0.15470000 0.01453000 -0.00375000
v -0.15470000 0.01453000 0.01143000
v 0.19022000 0.01453000 0.01143000
v -0.14645000 0.01453000 -0.45251000
v -0.15470000 0.01453000 -0.38406000
v -0.15470000 0.01453000 -0.46012000
v -0.14304000 0.01453000 -0.38406000
v -0.15470000 0.01453000 -0.37865000
v -0.14304000 0.01453000 -0.37865000
v 0.19022000 0.01453000 -0.37865000
v 0.17855000 0.01453000 -0.37865000
v 0.19022000 0.01453000 -0.38406000
v 0.17855000 0.01453000 -0.38406000
v 0.19022000 0.01453000 -0.46012000
v 0.18197000 0.01453000 -0.45251000
v -0.15470000 0.00698000 -0.46012000
v 0.19022000 0.01453000 -0.46012000
v -0.15470000 0.01453000 -0.46012000
v 0.19022000 0.00698000 -0.46012000
v 0.19022000 -0.00849000 -0.44942000
v -0.15470000 -0.00849000 -0.44942000
v -0.14645000 0.01574000 -0.01126000
v -0.14370000 -0.00849000 -0.37828000
v -0.14720000 -0.00849000 -0.01614000
v -0.14304000 0.01453000 -0.37865000
v -0.14304000 0.01453000 -0.38406000
v -0.14371000 -0.00849000 -0.38302000
v -0.14881000 -0.00849000 -0.43887000
v -0.14645000 0.01453000 -0.45251000
v 0.17855000 0.01453000 -0.38406000
v 0.18432000 -0.00849000 -0.43887000
v 0.18197000 0.01453000 -0.45251000
v 0.17922000 -0.00849000 -0.38302000
v 0.17922000 -0.00849000 -0.37828000
v 0.17855000 0.01453000 -0.37865000
v 0.18197000 0.01574000 -0.01126000
v 0.18271000 -0.00849000 -0.01614000
v -0.14720000 -0.00849000 -0.01614000
v 0.18271000 -0.00849000 -0.01614000
v 0.18197000 0.01574000 -0.01126000
v -0.14645000 0.01574000 -0.01126000
v -0.15470000 -0.00849000 0.00726000
v -0.15470000 0.01453000 0.01143000
v 0.19022000 0.01453000 0.01143000
v 0.19022000 -0.00849000 0.00726000
v -0.15470000 0.00698000 -0.46012000
v -0.15470000 0.01453000 -0.46012000
v -0.15470000 0.01453000 -0.38406000
v -0.15470000 -0.00849000 -0.44942000
v -0.15470000 -0.00849000 -0.38406000
v -0.15470000 -0.00849000 -0.37865000
v -0.15470000 0.01453000 -0.37865000
v -0.15470000 0.01453000 -0.00375000
v -0.15470000 -0.00849000 -0.00792000
v -0.15470000 -0.00849000 0.00726000
v -0.15470000 0.01453000 0.01143000
v 0.19022000 0.00698000 -0.46012000
v 0.19022000 -0.00849000 -0.44942000
v 0.19022000 -0.00849000 -0.38406000
v 0.19022000 0.01453000 -0.38406000
v 0.19022000 0.01453000 -0.46012000
v 0.19022000 0.01453000 -0.37865000
v 0.19022000 -0.00849000 -0.37865000
v 0.19022000 -0.00849000 -0.00792000
v 0.19022000 0.01453000 -0.00375000
v 0.19022000 0.01453000 0.01143000
v 0.19022000 -0.00849000 0.00726000
v -0.15470000 -0.00849000 -0.00792000
v -0.15470000 -0.00849000 0.00726000
v 0.19022000 -0.00849000 0.00726000
v 0.19022000 -0.00849000 -0.00792000
vn 0.00000000 1.00000000 0.00000000
vn 0.00000000 1.00000000 0.00000000
vn 0.00000000 1.00000000 0.00000000
vn 0.00000000 1.00000000 0.00000000
vn 0.00000000 0.50974820 0.86032370
vn 0.00000000 0.54799850 0.83647940
vn 0.00000000 0.54799850 0.83647940
vn 0.00000000 0.50974820 0.86032370
vn -0.03593016 0.99718610 0.06579316
vn 0.03592991 0.99718610 0.06579325
vn 0.01443350 0.99964110 0.02256845
vn -0.01443337 0.99964110 0.02256880
vn 0.00000000 1.00000000 0.00000000
vn 0.00000000 1.00000000 0.00000000
vn 0.00000000 1.00000000 0.00000000
vn 0.00000000 1.00000000 -0.00000025
vn 0.00000000 1.00000000 0.00000000
vn 0.00000000 1.00000000 -0.00000025
vn -0.06045375 0.99816920 -0.00188173
vn -0.06044771 0.99816950 -0.00188154
vn 0.06045342 0.99816920 -0.00188174
vn 0.06044738 0.99816970 -0.00188155
vn 0.00000000 1.00000000 0.00000000
vn 0.00000000 1.00000000 0.00000000
vn 0.00000000 1.00000000 0.00000000
vn 0.00000000 1.00000000 0.00000000
vn 0.00000000 -0.42155510 -0.90680280
vn 0.00000000 0.00000000 -1.00000000
vn 0.00000000 0.00000000 -1.00000000
vn 0.00000000 -0.42155510 -0.90680280
vn 0.00000000 -0.56879030 -0.82248260
vn 0.00000000 -0.56879030 -0.82248260
vn 0.99948070 -0.03078821 0.00952203
vn 0.99952280 -0.02931183 0.00974751
vn 0.99951910 -0.02939232 0.00987827
vn 0.99948250 -0.03076622 0.00938339
vn 0.99454170 -0.08295601 -0.06328648
vn 0.99590200 -0.05005896 -0.07532150
vn 0.99494030 -0.06291509 -0.07832934
vn 0.99387400 -0.08706277 -0.06807917
vn -0.99454150 -0.08296076 -0.06328405
vn -0.99494060 -0.06291647 -0.07832423
vn -0.99387380 -0.08706771 -0.06807426
vn -0.99590210 -0.05005879 -0.07532058
vn -0.99952280 -0.02931163 0.00974700
vn -0.99948250 -0.03076778 0.00938256
vn -0.99948050 -0.03078975 0.00952160
vn -0.99951910 -0.02939220 0.00987816
vn 0.00000000 0.19764640 -0.98027340
vn 0.00000000 0.19764640 -0.98027340
vn 0.00000000 0.19764810 -0.98027300
vn 0.00000000 0.19764810 -0.98027300
vn 0.00000000 -0.17802120 0.98402670
vn 0.00000000 -0.17802120 0.98402670
vn 0.00000000 -0.17802120 0.98402670
vn 0.00000000 -0.17802120 0.98402670
vn -1.00000000 0.00000011 0.00000000
vn -1.00000000 0.00000011 0.00000000
vn -1.00000000 0.00000011 0.00000000
vn -1.00000000 0.00000000 0.00000000
vn -1.00000000 0.00000000 0.00000000
vn -1.00000000 0.00000000 0.00000000
vn -1.00000000 0.00000019 0.00000000
vn -1.00000000 0.00000018 0.00000000
vn -1.00000000 0.00000000 0.00000000
vn -1.00000000 0.00000000 0.00000000
vn -1.00000000 0.00000000 0.00000000
vn 1.00000000 0.00000000 0.00000000
vn 1.00000000 0.00000000 0.00000000
vn 1.00000000 0.00000000 0.00000000
vn 1.00000000 0.00000000 0.00000000
vn 1.00000000 0.00000000 0.00000000
vn 1.00000000 -0.00000280 0.00000000
vn 1.00000000 -0.00000055 0.00000000
vn 1.00000000 -0.00000068 0.00000000
vn 1.00000000 -0.00000281 0.00000000
vn 1.00000000 -0.00000218 0.00000000
vn 1.00000000 -0.00000218 0.00000000
vn 0.00000000 -1.00000000 -0.00000350
vn 0.00000000 -1.00000000 -0.00000350
vn 0.00000000 -1.00000000 -0.00000350
vn 0.00000000 -1.00000000 -0.00000350
vt -170.88590000 -111.20600000
vt -170.88580000 -111.20600000
vt -170.88580000 -111.20610000
vt -170.88590000 -111.20610000
vt -170.12290000 -0.68083460
vt -170.17350000 -0.68956420
vt -170.17350000 0.54653360
vt -170.12290000 0.53780450
vt -171.15500000 -0.52772520
vt -170.28390000 -0.52772520
vt -170.26200000 -0.54762580
vt -171.17690000 -0.54762580
vt -171.17690000 -0.58789270
vt -170.26200000 -0.58789270
vt -171.15500000 0.64275240
vt -171.17690000 0.46118420
vt -171.17690000 0.66294220
vt -171.14600000 0.46118420
vt -171.17690000 0.44682670
vt -171.14600000 0.44682670
vt -170.26200000 0.44682670
vt -170.29290000 0.44682670
vt -170.26200000 0.46118420
vt -170.29290000 0.46118420
vt -170.26200000 0.66294220
vt -170.28390000 0.64275240
vt -170.26410000 0.42674310
vt -170.28550000 -0.55118640
vt -170.28550000 0.42674310
vt -170.26410000 -0.55118640
vt -170.22020000 -0.55118640
vt -170.22020000 0.42674310
vt -170.30670000 0.59854910
vt -170.37090000 -0.37442860
vt -170.37090000 0.58559870
vt -170.30990000 -0.37541800
vt -170.30990000 -0.38976680
vt -170.37090000 -0.38701100
vt -170.37090000 -0.53507360
vt -170.30990000 -0.57122600
vt -170.26640000 0.41709620
vt -170.32750000 0.56240520
vt -170.26640000 0.59855810
vt -170.32750000 0.41434030
vt -170.32750000 0.40175770
vt -170.26640000 0.40274720
vt -170.26320000 -0.57123500
vt -170.32750000 -0.55828420
vt -170.15080000 0.91410290
vt -170.15080000 0.03146219
vt -170.21570000 0.03345390
vt -170.21570000 0.91211170
vt -170.24190000 0.39841550
vt -170.18040000 0.39841550
vt -170.18040000 -0.52285880
vt -170.24190000 -0.52285880
vt -170.41280000 0.66197570
vt -170.39280000 0.66197570
vt -170.39280000 0.46052940
vt -170.45380000 0.63363760
vt -170.45380000 0.46052940
vt -170.45380000 0.44619440
vt -170.39280000 0.44619440
vt -170.39280000 -0.54672160
vt -170.45380000 -0.53569380
vt -170.45380000 -0.57589820
vt -170.39280000 -0.58692630
vt -170.37100000 -0.58718540
vt -170.41200000 -0.55883540
vt -170.41200000 -0.38565550
vt -170.35100000 -0.38565550
vt -170.35100000 -0.58718540
vt -170.35100000 -0.37131430
vt -170.41200000 -0.37131430
vt -170.41200000 0.61098110
vt -170.35100000 0.62201360
vt -170.35100000 0.66223490
vt -170.41200000 0.65120230
vt -170.19560000 0.39470760
vt -170.15540000 0.39470760
vt -170.15540000 -0.51915090
vt -170.19560000 -0.51915090
f 3/3/3 2/2/2 1/1/1
f 4/4/4 3/3/3 1/1/1
f 7/7/7 6/6/6 5/5/5
f 8/8/8 7/7/7 5/5/5
f 11/11/11 10/10/10 9/9/9
f 12/12/12 11/11/11 9/9/9
f 12/12/12 13/13/13 11/11/11
f 13/13/13 14/14/14 11/11/11
f 17/17/17 16/16/16 15/15/15
f 16/16/16 18/18/18 15/15/15
f 16/16/16 19/19/19 18/18/18
f 19/19/19 20/20/20 18/18/18
f 19/19/19 12/12/12 20/20/20
f 12/12/12 9/9/9 20/20/20
f 11/11/11 21/21/21 10/10/10
f 21/21/21 22/22/22 10/10/10
f 21/21/21 23/23/23 22/22/22
f 23/23/23 24/24/24 22/22/22
f 23/23/23 25/25/25 24/24/24
f 25/25/25 26/26/26 24/24/24
f 17/17/17 15/15/15 26/26/26
f 25/25/25 17/17/17 26/26/26
f 29/29/29 28/28/28 27/27/27
f 28/28/28 30/30/30 27/27/27
f 27/27/27 30/30/30 31/31/31
f 32/32/32 27/27/27 31/31/31
f 35/35/35 34/34/34 33/33/33
f 34/34/34 36/36/36 33/33/33
f 36/36/36 34/34/34 37/37/37
f 34/34/34 38/38/38 37/37/37
f 38/38/38 39/39/39 37/37/37
f 39/39/39 40/40/40 37/37/37
f 43/43/43 42/42/42 41/41/41
f 42/42/42 44/44/44 41/41/41
f 44/44/44 45/45/45 41/41/41
f 45/45/45 46/46/46 41/41/41
f 46/46/46 45/45/45 47/47/47
f 45/45/45 48/48/48 47/47/47
f 51/51/51 50/50/50 49/49/49
f 52/52/52 51/51/51 49/49/49
f 55/55/55 54/54/54 53/53/53
f 56/56/56 55/55/55 53/53/53
f 59/59/59 58/58/58 57/57/57
f 59/59/59 57/57/57 60/60/60
f 60/60/60 61/61/61 59/59/59
f 59/59/59 61/61/61 62/62/62
f 63/63/63 59/59/59 62/62/62
f 63/63/63 62/62/62 64/64/64
f 62/62/62 65/65/65 64/64/64
f 65/65/65 66/66/66 64/64/64
f 66/66/66 67/67/67 64/64/64
f 70/70/70 69/69/69 68/68/68
f 68/68/68 71/71/71 70/70/70
f 68/68/68 72/72/72 71/71/71
f 71/71/71 73/73/73 70/70/70
f 73/73/73 74/74/74 70/70/70
f 75/75/75 74/74/74 73/73/73
f 76/76/76 75/75/75 73/73/73
f 76/76/76 77/77/77 75/75/75
f 77/77/77 78/78/78 75/75/75
f 81/81/81 80/80/80 79/79/79
f 82/82/82 81/81/81 79/79/79

