# Blender 4.0.0
# www.blender.org
o decimated_mesh
v -0.897749 0.197252 0.102982
v -0.925702 0.197721 0.103478
v -0.897977 0.214391 0.102580
v -0.925856 0.210998 0.099770
v -0.908230 0.219853 0.098197
v -0.925555 0.213351 0.092110
v -0.933181 0.203962 0.097477
v -0.924307 0.197556 0.032846
v -0.897958 0.212720 0.032846
v -0.898003 0.220808 0.098672
v -0.908412 0.219917 0.032846
v -0.927874 0.211737 0.032841
v -0.935061 0.197588 0.098834
v -0.935895 0.197620 0.032845
v -0.897981 0.221009 0.032846
vn -0.0879 0.5178 0.8510
vn 0.9998 0.0136 0.0155
vn -0.1286 0.2654 0.9555
vn 0.0002 -0.0003 -1.0000
vn -0.3875 0.9219 0.0020
vn -0.4164 0.8736 0.2521
vn -0.7102 0.6803 0.1812
vn -0.4345 0.2376 0.8688
vn 0.4898 -0.8511 -0.1892
vn -0.5534 0.3264 0.7663
vn 0.0181 0.0237 0.9996
vn -0.0931 0.9957 0.0012
vn -0.1430 0.4420 0.8855
vn -0.9999 -0.0107 0.0006
vn -1.0000 -0.0027 -0.0004
vn -0.0000 -0.0003 -1.0000
vn -0.0001 -0.0002 1.0000
vn -0.0000 -0.0000 1.0000
vn -0.3476 0.9376 -0.0119
vn -0.9584 0.2852 0.0122
vn -0.7726 0.6348 0.0129
vn -0.1042 0.9946 0.0030
vn -0.8694 0.4939 -0.0120
vn 0.0055 1.0000 0.0004
vn 0.0089 1.0000 0.0010
vn -0.0157 -0.9981 0.0602
vn 0.0090 1.0000 0.0004
vn 0.0055 1.0000 0.0022
vn -1.0000 -0.0027 0.0024
vn -0.9999 -0.0109 -0.0004
vn -0.0001 -0.0000 1.0000
vn 0.0001 -0.0007 1.0000
vn -0.1042 0.9946 0.0013
vn -0.0932 0.9956 0.0030
vn -0.3519 0.9360 0.0019
vn -0.3875 0.9218 -0.0100
s 0
f 5//1 3//1 10//1
f 10//2 3//2 1//2
f 2//3 3//3 4//3
f 9//4 8//4 12//4
f 12//5 5//5 11//5
f 4//6 5//6 6//6
f 4//7 6//7 7//7
f 4//8 13//8 2//8
f 1//9 8//9 9//9
f 7//10 13//10 4//10
f 1//11 3//11 2//11
f 10//12 11//12 5//12
f 5//13 4//13 3//13
f 1//14 10//14 9//14
f 9//15 10//15 15//15
f 14//16 12//16 8//16
f 12//17 9//17 11//17
f 11//18 9//18 15//18
f 12//19 6//19 5//19
f 13//20 7//20 14//20
f 7//21 6//21 12//21
f 10//22 15//22 11//22
f 12//23 14//23 7//23
f 13//24 8//24 14//24
f 8//25 13//25 1//25
f 13//26 1//26 2//26
f 13//27 1//27 14//27
f 14//28 1//28 8//28
f 9//29 1//29 15//29
f 15//30 1//30 10//30
f 12//31 9//31 15//31
f 12//32 15//32 11//32
f 11//33 5//33 15//33
f 5//34 10//34 15//34
f 11//35 6//35 5//35
f 6//36 11//36 12//36
