# Blender 4.0.0
# www.blender.org
o decimated_mesh
v -0.939330 -0.096863 0.032732
v -0.938330 -0.096757 0.094915
v -0.937000 -0.080330 0.094987
v -0.934132 -0.074171 0.032847
v -0.858736 -0.077183 0.032846
v -0.858736 -0.095920 0.095072
v -0.858736 -0.067846 0.032846
v -0.858735 -0.068171 0.094803
v -0.922927 -0.068180 0.032846
v -0.929458 -0.070732 0.094970
vn -0.0032 0.0058 -1.0000
vn 0.0105 -0.9999 0.0015
vn 0.2281 -0.9323 -0.2807
vn 1.0000 -0.0000 -0.0000
vn 0.0020 0.0097 1.0000
vn -0.9745 0.2233 -0.0228
vn -0.0052 1.0000 0.0052
vn -0.0005 -0.0037 1.0000
vn -0.0000 -0.0000 1.0000
vn -0.9966 0.0806 0.0159
vn 0.0087 -0.0050 0.9999
vn -0.0019 -0.0014 1.0000
vn -0.7860 0.6177 0.0249
vn -0.0361 0.9987 0.0372
vn -0.4715 0.8818 -0.0133
vn -0.0000 -0.0040 1.0000
vn -0.0014 -0.0000 1.0000
vn -0.0019 -0.0042 1.0000
vn -0.0006 0.0023 1.0000
s 0
f 9//1 1//1 4//1
f 2//2 1//2 6//2
f 1//3 5//3 6//3
f 5//4 7//4 8//4
f 6//5 8//5 10//5
f 1//6 3//6 4//6
f 9//7 8//7 7//7
f 5//8 9//8 1//8
f 9//9 5//9 7//9
f 2//10 3//10 1//10
f 6//4 5//4 8//4
f 3//11 2//11 10//11
f 2//12 6//12 10//12
f 10//13 4//13 3//13
f 9//14 10//14 8//14
f 10//15 9//15 4//15
f 9//16 1//16 7//16
f 7//17 1//17 5//17
f 6//18 3//18 2//18
f 6//19 10//19 3//19
