# Blender 4.0.0
# www.blender.org
o decimated_mesh
v -0.933177 -0.086264 0.032842
v -0.927808 -0.086224 0.004647
v -0.931561 -0.309896 0.032857
v -0.938624 -0.086275 0.004648
v -0.934604 -0.308855 0.004642
v -0.939910 -0.294571 0.032840
vn 0.9937 -0.0303 -0.1083
vn -0.8756 -0.4769 0.0768
vn -0.9814 0.0317 0.1896
vn -0.0001 -0.0000 -1.0000
vn 0.9823 0.0071 0.1871
vn -0.0020 0.0001 1.0000
vn -0.0047 1.0000 0.0005
vn -0.9842 -0.0178 -0.1762
s 0
f 2//1 3//1 5//1
f 6//2 5//2 3//2
f 4//3 6//3 1//3
f 5//4 4//4 2//4
f 2//5 1//5 3//5
f 3//6 1//6 6//6
f 1//7 2//7 4//7
f 4//8 5//8 6//8
