# Blender 4.0.0
# www.blender.org
o decimated_mesh
v -0.919859 -0.310427 0.032846
v -0.919859 -0.300745 0.032846
v -0.919849 -0.284022 0.105034
v -0.518522 -0.284773 0.104717
v -0.518515 -0.305201 0.032429
v -0.919852 -0.307743 0.102336
v -0.518524 -0.307924 0.103191
vn -0.0010 -0.0000 -1.0000
vn -0.0016 -0.9623 0.2719
vn -0.0005 -0.9993 0.0386
vn -0.0022 -0.1130 0.9936
vn -1.0000 0.0001 0.0001
vn -1.0000 -0.0000 0.0001
vn 1.0000 -0.0001 0.0001
vn -0.0106 -0.9741 0.2257
vn 0.0130 -0.9992 -0.0384
vn 0.0007 -0.0658 0.9978
vn -0.0104 -0.9623 0.2719
vn -0.0016 -0.9742 0.2257
s 0
f 5//1 1//1 2//1
f 5//2 4//2 3//2
f 1//3 7//3 6//3
f 7//4 3//4 6//4
f 3//5 2//5 6//5
f 2//6 1//6 6//6
f 5//7 4//7 7//7
f 5//8 3//8 2//8
f 1//9 5//9 7//9
f 7//10 4//10 3//10
f 2//11 5//11 4//11
f 2//12 4//12 3//12
f 6//5 3//5 1//5
f 3//6 2//6 1//6
