# Blender 4.0.0
# www.blender.org
o decimated_mesh
v -0.921490 -0.307278 0.104747
v -0.938219 -0.295053 0.100390
v -0.938040 -0.189749 0.099418
v -0.934385 -0.308674 0.097516
v -0.920698 -0.189708 0.105703
v -0.939910 -0.294588 0.032846
v -0.934172 -0.309117 0.032845
v -0.938617 -0.189753 0.032846
v -0.930146 -0.189753 0.032846
v -0.919687 -0.310362 0.032823
vn 0.1037 -0.9946 0.0072
vn -0.9997 0.0019 0.0250
vn 0.9880 0.0857 -0.1282
vn -0.3407 0.0093 0.9401
vn -0.9301 -0.3673 -0.0005
vn -0.0855 -0.9955 0.0406
vn 0.0022 -1.0000 0.0003
vn -0.0000 -1.0000 0.0001
vn 0.9997 -0.0069 0.0254
vn -0.0016 -0.0006 -1.0000
vn -0.0000 -0.0000 1.0000
vn 0.0011 -0.0001 1.0000
vn -0.9999 0.0123 0.0087
vn -0.4411 -0.3025 0.8450
vn -0.2562 -0.0061 0.9666
vn -0.9611 -0.2752 0.0222
vn -0.0000 -1.0000 0.0006
vn 0.0023 -1.0000 -0.0000
vn -0.0000 -0.0002 1.0000
vn 0.0011 -0.0000 1.0000
vn 0.0827 -0.9956 0.0448
vn -0.0856 -0.9963 0.0066
s 0
f 4//1 7//1 1//1
f 3//2 6//2 2//2
f 5//3 10//3 9//3
f 2//4 5//4 3//4
f 4//5 6//5 7//5
f 10//6 1//6 7//6
f 5//7 3//7 9//7
f 9//8 3//8 8//8
f 10//9 5//9 1//9
f 7//10 6//10 10//10
f 6//11 9//11 8//11
f 10//12 9//12 6//12
f 3//13 8//13 6//13
f 2//14 4//14 1//14
f 2//15 1//15 5//15
f 4//16 2//16 6//16
f 9//17 5//17 8//17
f 8//18 5//18 3//18
f 10//19 9//19 8//19
f 10//20 8//20 6//20
f 4//21 10//21 1//21
f 4//22 7//22 10//22
