# Blender 4.0.0
# www.blender.org
o decimated_mesh
v -0.924417 -0.030397 0.004644
v -0.924417 -0.080448 0.004644
v -0.127343 -0.035591 0.004644
v -0.127345 -0.038990 -0.019920
v -0.127343 -0.077205 0.004644
v -0.924418 -0.032147 -0.018553
v -0.127342 -0.074418 -0.020741
v -0.924416 -0.079046 -0.018185
v -0.924417 -0.068470 -0.022702
vn -0.0007 0.1135 -0.9935
vn -0.0000 -0.0000 1.0000
vn -0.0007 -0.3927 -0.9196
vn 0.0065 0.9971 -0.0752
vn 0.0054 -0.9940 -0.1091
vn -1.0000 -0.0000 -0.0000
vn -1.0000 -0.0002 -0.0001
vn 0.0026 0.0232 -0.9997
vn -1.0000 -0.0001 -0.0000
vn -1.0000 -0.0000 0.0001
vn 0.0083 0.9905 -0.1371
vn 0.0041 -0.9981 -0.0613
vn -1.0000 -0.0001 0.0002
vn -1.0000 -0.0001 -0.0001
vn -1.0000 -0.0001 0.0001
s 0
f 4//1 9//1 6//1
f 3//2 2//2 5//2
f 7//3 8//3 9//3
f 3//4 6//4 1//4
f 5//5 8//5 7//5
f 6//6 9//6 2//6
f 2//7 9//7 8//7
f 2//6 1//6 6//6
f 4//8 7//8 9//8
f 3//2 1//2 2//2
f 7//9 5//9 4//9
f 3//10 4//10 5//10
f 3//11 4//11 6//11
f 5//12 2//12 8//12
f 9//13 8//13 6//13
f 8//14 2//14 6//14
f 7//15 3//15 4//15
f 5//6 3//6 7//6
