# Blender 4.0.0
# www.blender.org
o decimated_mesh
v -0.106195 0.209631 0.086761
v -0.111715 0.209752 0.102138
v -0.101776 0.197932 0.099267
v -0.108638 0.092548 0.083493
v -0.098625 0.190716 0.086815
v -0.519036 0.210079 0.088146
v -0.097863 0.098547 0.087832
v -0.519036 0.210079 0.102855
v -0.108638 -0.021002 0.084824
v -0.518460 -0.021002 0.094655
v -0.518460 -0.021002 0.103045
v -0.108638 -0.021002 0.103904
vn -1.0000 -0.0025 -0.0000
vn 0.0729 0.0263 -0.9970
vn 0.9282 0.3715 0.0196
vn 0.9960 -0.0898 -0.0000
vn -0.0000 -1.0000 -0.0000
vn 0.8874 -0.0181 0.4606
vn 0.2898 0.0112 0.9570
vn 0.3769 -0.0071 -0.9262
vn 0.0240 0.0117 0.9996
vn 0.0194 0.0282 0.9994
vn -0.0033 0.0280 -0.9996
vn 0.7681 0.5800 0.2712
vn 0.0018 0.0008 1.0000
vn -0.0021 0.0076 1.0000
vn 0.9708 0.0107 0.2395
vn 0.3787 -0.0108 -0.9255
vn 0.0011 1.0000 -0.0075
vn 0.0008 1.0000 -0.0000
vn -0.0021 0.0008 1.0000
vn 0.0018 0.0077 1.0000
vn 0.0147 0.0117 0.9998
vn 0.0240 0.0282 0.9993
s 0
f 8//1 10//1 11//1
f 5//2 4//2 1//2
f 3//3 5//3 1//3
f 9//4 7//4 12//4
f 10//5 12//5 11//5
f 7//6 3//6 12//6
f 3//7 2//7 12//7
f 7//8 4//8 5//8
f 8//1 6//1 10//1
f 4//9 10//9 9//9
f 10//10 4//10 6//10
f 6//11 1//11 4//11
f 2//12 3//12 1//12
f 2//13 8//13 11//13
f 11//14 12//14 2//14
f 10//5 9//5 12//5
f 7//15 5//15 3//15
f 7//16 9//16 4//16
f 1//17 6//17 2//17
f 6//18 8//18 2//18
f 11//19 12//19 8//19
f 12//20 2//20 8//20
f 6//1 10//1 11//1
f 6//1 11//1 8//1
f 4//21 6//21 9//21
f 9//22 6//22 10//22
