# Blender 4.0.0
# www.blender.org
o decimated_mesh
v -0.928247 0.092543 0.103553
v -0.897962 0.092543 0.102812
v -0.897137 0.197543 0.101718
v -0.927084 0.197493 0.103155
v -0.936502 0.197291 0.098128
v -0.936540 0.092543 0.099750
v -0.897962 0.092543 0.094271
v -0.928495 0.092543 0.032852
v -0.924305 0.197556 0.032852
v -0.936567 0.197184 0.032853
v -0.938224 0.092543 0.032852
vn -0.0000 1.0000 -0.0000
vn -0.9999 0.0158 0.0010
vn -0.4168 0.0081 0.9090
vn 0.8949 -0.0357 -0.4449
vn -0.0033 0.9994 -0.0341
vn -0.0000 -0.0000 1.0000
vn -0.0000 1.0000 0.0001
vn -0.9997 0.0008 0.0252
vn 1.0000 -0.0079 -0.0000
vn -0.4711 0.0138 0.8820
vn 0.9301 0.0187 -0.3669
vn 0.0244 0.0035 0.9997
vn 0.0479 0.0100 0.9988
vn -0.0067 1.0000 0.0028
vn -0.0303 0.9995 -0.0016
vn 0.0001 1.0000 -0.0000
vn -0.0016 1.0000 0.0008
vn -0.0215 0.9998 -0.0000
s 0
f 7//1 1//1 2//1
f 11//2 5//2 10//2
f 6//3 1//3 4//3
f 9//4 7//4 8//4
f 4//5 3//5 5//5
f 9//6 10//6 8//6
f 6//1 8//1 11//1
f 1//7 7//7 6//7
f 8//1 6//1 7//1
f 11//8 6//8 5//8
f 3//9 2//9 7//9
f 5//10 6//10 4//10
f 9//11 3//11 7//11
f 1//12 2//12 4//12
f 2//13 3//13 4//13
f 3//14 9//14 5//14
f 9//15 10//15 5//15
f 11//6 8//6 10//6
f 6//16 1//16 11//16
f 11//1 7//1 8//1
f 11//1 2//1 7//1
f 11//1 1//1 2//1
f 3//17 9//17 4//17
f 9//18 5//18 4//18
f 10//6 11//6 9//6
f 9//6 11//6 8//6
