# Blender 4.0.0
# www.blender.org
o decimated_mesh
v -0.928315 -0.021820 0.084285
v -0.897483 -0.021818 0.100476
v -0.928310 -0.021820 0.103882
v -0.897453 0.092530 0.097483
v -0.926105 0.092566 0.097627
vn -0.0050 -0.0262 -0.9996
vn 0.0001 -1.0000 -0.0000
vn -0.0048 0.1159 -0.9932
vn -0.9998 0.0193 0.0003
vn -0.1097 -0.0522 -0.9926
vn 0.4648 -0.0233 -0.8851
vn 0.1098 0.0260 0.9936
vn 0.0051 0.0545 0.9985
s 0
f 5//1 4//1 2//1
f 2//2 3//2 1//2
f 4//3 1//3 5//3
f 1//4 3//4 5//4
f 5//5 2//5 3//5
f 4//6 2//6 1//6
f 2//7 4//7 3//7
f 4//8 5//8 3//8
