# Blender 4.0.0
# www.blender.org
o decimated_mesh
v -0.938397 -0.086221 0.004647
v -0.938836 -0.085631 0.032840
v -0.933245 -0.072692 0.004647
v -0.100550 -0.078442 0.004647
v -0.929946 -0.070173 0.032842
v -0.100607 -0.078451 0.032840
v -0.918794 -0.067628 0.004647
v -0.107847 -0.069377 0.032831
v -0.108258 -0.069742 0.004642
vn -0.8655 0.4978 0.0568
vn -0.0000 -0.0000 1.0000
vn 0.0026 0.9999 -0.0130
vn 0.7484 0.6630 -0.0195
vn 0.0086 -0.9997 0.0211
vn -0.0000 -0.0001 1.0000
vn -0.0000 0.0010 1.0000
vn -0.0000 -0.0005 -1.0000
vn -0.0010 0.9960 0.0895
vn 0.7816 0.6237 0.0018
vn -0.9343 0.3558 -0.0220
vn -0.3304 0.9427 -0.0456
vn 0.0093 -1.0000 -0.0003
s 0
f 5//1 3//1 2//1
f 7//2 1//2 9//2
f 7//3 8//3 9//3
f 8//4 4//4 9//4
f 1//5 6//5 2//5
f 8//6 5//6 2//6
f 2//7 6//7 8//7
f 4//8 1//8 9//8
f 3//2 1//2 7//2
f 7//9 5//9 8//9
f 8//10 6//10 4//10
f 2//11 3//11 1//11
f 5//12 7//12 3//12
f 1//13 4//13 6//13
f 1//2 9//2 3//2
f 3//6 9//6 7//6
f 5//7 6//7 8//7
f 2//6 6//6 5//6
