# Blender 4.0.0
# www.blender.org
o decimated_mesh
v -0.898140 -0.042574 0.032422
v -0.898108 -0.043505 0.101241
v -0.898112 -0.020820 0.102959
v -0.108613 -0.023553 0.032846
v -0.109509 -0.044107 0.032846
v -0.109500 -0.043971 0.099002
v -0.108401 -0.022082 0.104849
vn -0.0229 0.9553 -0.2946
vn 0.0016 0.9998 -0.0204
vn -0.0019 -1.0000 0.0021
vn -0.0025 -0.0755 0.9971
vn -1.0000 -0.0002 0.0005
vn 0.0005 -0.0000 -1.0000
vn -0.9991 0.0435 -0.0000
vn -0.9988 0.0496 0.0019
vn -0.0006 -0.9999 -0.0135
vn 0.0026 -0.2582 0.9661
vn -0.0019 -0.9999 -0.0135
vn -0.0006 -1.0000 0.0021
vn -0.9991 0.0435 0.0021
vn -0.9987 0.0501 -0.0000
s 0
f 1//1 3//1 4//1
f 3//2 7//2 4//2
f 6//3 1//3 5//3
f 7//4 3//4 2//4
f 3//5 1//5 2//5
f 1//6 4//6 5//6
f 6//7 4//7 5//7
f 4//8 6//8 7//8
f 6//9 2//9 1//9
f 6//10 7//10 2//10
f 5//11 2//11 1//11
f 5//12 6//12 2//12
f 7//13 4//13 5//13
f 7//14 5//14 6//14
