# Blender 4.0.0
# www.blender.org
o decimated_mesh
v -0.128122 -0.310656 0.004647
v -0.128332 -0.310338 0.032844
v -0.106678 -0.189933 0.004647
v -0.100686 -0.308237 0.004653
v -0.102352 -0.189668 0.032848
v -0.098088 -0.189933 0.004647
v -0.099192 -0.306089 0.032835
vn -0.9845 0.1749 -0.0093
vn 0.9884 0.0268 0.1492
vn 0.1440 -0.9873 0.0676
vn -0.0002 -0.0000 1.0000
vn -0.0000 0.0001 1.0000
vn 0.0003 -0.0001 1.0000
vn -0.9671 0.2082 0.1464
vn 0.9984 -0.0219 -0.0513
vn 0.0878 -0.9961 0.0119
vn -0.0000 1.0000 -0.0094
vn -0.0002 0.0001 1.0000
vn -0.0000 -0.0000 1.0000
s 0
f 2//1 3//1 1//1
f 7//2 6//2 5//2
f 2//3 4//3 7//3
f 1//4 4//4 3//4
f 3//5 4//5 6//5
f 5//6 2//6 7//6
f 2//7 5//7 3//7
f 7//8 4//8 6//8
f 2//9 1//9 4//9
f 5//10 6//10 3//10
f 1//11 4//11 6//11
f 6//12 3//12 1//12
