# Blender 4.0.0
# www.blender.org
o decimated_mesh
v -0.118166 -0.356765 -0.000700
v -0.118148 -0.356829 0.004057
v -0.055407 -0.357298 0.002275
v -0.061912 -0.347014 -0.017215
v -0.045538 -0.348137 0.004370
v -0.118148 -0.347668 -0.017503
v -0.046198 -0.347903 -0.005413
v -0.070887 -0.341693 -0.020299
v -0.107181 -0.104583 0.004644
v -0.118633 -0.337784 -0.021358
v -0.061466 -0.332261 -0.021232
v -0.054400 -0.337594 -0.017958
v -0.045115 -0.104583 -0.004151
v -0.045663 -0.104583 0.004337
v -0.106239 -0.104585 -0.018058
v -0.057396 -0.104583 -0.020715
v -0.099148 -0.104583 -0.022375
vn -0.0091 -0.3637 -0.9315
vn 0.3512 -0.7746 -0.5259
vn -0.5196 0.0397 -0.8535
vn 0.1699 -0.2637 -0.9495
vn 0.2360 -0.2619 -0.9358
vn 0.5141 -0.4667 -0.7196
vn 0.8367 -0.0009 -0.5477
vn 0.0127 -0.8793 -0.4760
vn -0.0001 -1.0000 0.0001
vn 0.6862 -0.7247 -0.0637
vn 0.4171 -0.0054 -0.9088
vn -0.0041 -0.0022 1.0000
vn 0.0397 -0.0077 -0.9992
vn 0.0020 0.0022 -1.0000
vn 0.0101 -0.4885 -0.8725
vn -0.9977 0.0433 0.0515
vn -0.9977 0.0536 -0.0414
vn -0.9998 -0.0206 0.0036
vn -0.9974 -0.0626 -0.0350
vn 0.9979 0.0005 0.0644
vn 0.9977 -0.0041 -0.0674
vn 0.8033 0.0033 -0.5956
vn 0.0148 -0.8823 -0.4705
vn -0.0079 -0.9999 -0.0133
vn -0.0000 -1.0000 -0.0000
vn -0.0004 1.0000 -0.0001
vn 0.0129 -0.1113 -0.9937
vn 0.0256 -0.2490 0.9682
vn 0.0050 0.0001 1.0000
vn 0.0026 -0.0046 -1.0000
vn -0.0000 -1.0000 0.0001
vn 0.0397 0.0016 -0.9992
s 0
f 8//1 6//1 10//1
f 7//2 3//2 4//2
f 17//3 10//3 15//3
f 8//4 11//4 4//4
f 4//5 11//5 12//5
f 4//6 12//6 7//6
f 12//7 13//7 7//7
f 4//8 1//8 6//8
f 14//9 16//9 13//9
f 5//10 3//10 7//10
f 11//11 16//11 12//11
f 9//12 2//12 5//12
f 10//13 17//13 16//13
f 16//14 11//14 10//14
f 8//15 4//15 6//15
f 2//16 9//16 10//16
f 9//17 15//17 10//17
f 2//18 10//18 1//18
f 10//19 6//19 1//19
f 14//20 5//20 13//20
f 13//21 5//21 7//21
f 12//22 16//22 13//22
f 4//23 3//23 1//23
f 3//24 2//24 1//24
f 16//25 9//25 17//25
f 9//26 17//26 15//26
f 9//25 16//25 14//25
f 10//27 11//27 8//27
f 3//28 5//28 2//28
f 5//29 14//29 9//29
f 17//30 11//30 10//30
f 14//25 9//25 17//25
f 14//31 17//31 13//31
f 13//25 17//25 16//25
f 16//32 11//32 17//32
