# Blender 4.0.0
# www.blender.org
o decimated_mesh
v 0.056620 0.136444 -0.053187
v 0.054381 0.136444 -0.053187
v 0.049952 0.136442 -0.057830
v 0.049952 0.120563 -0.056458
v 0.067959 0.120561 -0.053099
v 0.066793 0.123125 -0.053187
v 0.056346 0.136444 -0.056057
v 0.049951 0.120640 -0.058036
v 0.066750 0.122905 -0.055380
v 0.049962 0.136447 -0.059396
v 0.065145 0.120576 -0.057905
v 0.067856 0.120563 -0.055360
v 0.067081 0.120637 -0.056971
v 0.055153 0.136435 -0.058594
v 0.052681 0.136440 -0.059344
vn 0.7224 -0.0595 -0.6889
vn 0.1813 0.1497 -0.9720
vn 0.0186 -0.0857 -0.9961
vn 0.0041 1.0000 0.0008
vn -0.0000 -0.0000 -1.0000
vn 0.0027 1.0000 0.0034
vn 0.8362 0.3916 -0.3841
vn 0.2879 0.1403 -0.9473
vn 0.7924 0.6052 -0.0762
vn 1.0000 -0.0001 -0.0008
vn 0.7499 0.5585 -0.3545
vn 0.9028 0.4258 -0.0604
vn 0.0082 -0.0839 -0.9964
vn 0.0038 0.9988 0.0482
vn -0.0005 1.0000 0.0035
vn 0.0690 -0.9945 -0.0786
vn -0.0710 -0.0662 -0.9953
vn 0.0004 1.0000 -0.0007
vn -0.0000 1.0000 -0.0000
vn -0.0028 1.0000 -0.0019
vn 0.0022 1.0000 -0.0012
vn 0.7925 0.6052 -0.0757
vn 1.0000 -0.0002 0.0060
vn 0.7015 0.4751 -0.5312
vn 0.4177 0.2250 -0.8803
vn 0.9100 0.4125 -0.0411
vn -0.0039 1.0000 0.0034
vn -0.0000 1.0000 0.0006
vn 0.0006 1.0000 -0.0001
vn 0.0028 1.0000 -0.0043
vn 0.0186 -0.0758 -0.9969
vn 0.0082 -0.0857 -0.9963
vn -0.0000 -0.0055 -1.0000
vn -0.1092 -0.0834 -0.9905
vn 0.7924 0.6053 -0.0757
vn 0.0032 1.0000 -0.0047
vn -0.0003 1.0000 0.0055
vn -0.0000 1.0000 0.0010
s 0
f 2//1 4//1 3//1
f 2//2 5//2 4//2
f 15//3 8//3 10//3
f 11//4 5//4 12//4
f 2//5 1//5 6//5
f 15//6 10//6 3//6
f 9//7 12//7 13//7
f 14//8 11//8 15//8
f 9//9 1//9 6//9
f 3//10 4//10 8//10
f 9//11 14//11 7//11
f 6//12 12//12 9//12
f 15//13 11//13 8//13
f 8//14 4//14 11//14
f 4//15 5//15 11//15
f 11//16 13//16 12//16
f 2//17 6//17 5//17
f 3//18 2//18 15//18
f 2//19 1//19 7//19
f 7//20 14//20 2//20
f 14//21 15//21 2//21
f 9//22 7//22 1//22
f 10//23 3//23 8//23
f 9//24 13//24 14//24
f 11//25 14//25 13//25
f 6//26 5//26 12//26
f 3//27 2//27 10//27
f 2//28 1//28 10//28
f 1//29 7//29 10//29
f 7//30 15//30 10//30
f 15//31 11//31 10//31
f 11//32 8//32 10//32
f 5//33 2//33 1//33
f 5//34 1//34 6//34
f 6//35 7//35 1//35
f 14//36 15//36 7//36
f 6//9 9//9 7//9
f 12//37 11//37 4//37
f 12//38 4//38 5//38
