# Blender 4.0.0
# www.blender.org
o decimated_mesh
v 0.043779 0.021115 -0.047709
v 0.043785 0.022013 -0.048889
v 0.054122 0.029097 -0.048960
v 0.064279 0.044276 -0.047786
v 0.043776 0.086401 -0.053446
v 0.054360 0.032591 -0.050357
v 0.064281 0.041252 -0.047797
v 0.064279 0.086401 -0.053446
v 0.043776 0.086401 -0.055103
v 0.043776 0.023762 -0.049492
v 0.054752 0.029151 -0.047784
v 0.064278 0.043107 -0.050739
v 0.064279 0.086401 -0.055103
v 0.064265 0.041665 -0.049218
v 0.064279 0.051103 -0.052085
vn -0.0947 0.0871 0.9917
vn 0.1368 -0.1645 -0.9768
vn -0.0000 1.0000 -0.0000
vn -0.0000 0.1332 0.9911
vn -0.0000 -0.0852 -0.9964
vn 0.4765 -0.7008 -0.5309
vn -0.0057 0.0035 -1.0000
vn -0.0125 0.0077 -0.9999
vn 1.0000 -0.0000 -0.0000
vn 1.0000 -0.0001 -0.0016
vn -0.9999 -0.0090 -0.0120
vn 0.7720 -0.6081 -0.1849
vn 1.0000 -0.0002 -0.0004
vn 0.9999 0.0006 -0.0106
vn 1.0000 -0.0063 0.0021
vn 0.5680 -0.7781 -0.2680
vn 0.2502 -0.3741 -0.8930
vn 0.3568 -0.3676 -0.8588
vn -0.0070 -0.0892 -0.9960
vn 0.6632 -0.5457 -0.5123
vn 0.1902 -0.3191 -0.9284
vn 0.7226 -0.5905 -0.3594
vn -0.0143 0.0102 -0.9998
vn -0.0077 0.0035 -1.0000
vn 1.0000 -0.0000 -0.0005
vn 1.0000 -0.0004 -0.0013
vn 0.9994 -0.0286 -0.0191
vn 1.0000 0.0006 0.0041
s 0
f 1//1 4//1 5//1
f 12//2 6//2 15//2
f 9//3 8//3 13//3
f 4//4 8//4 5//4
f 9//5 13//5 15//5
f 2//6 3//6 1//6
f 11//7 4//7 7//7
f 4//8 11//8 1//8
f 5//9 1//9 9//9
f 9//10 1//10 10//10
f 10//11 2//11 1//11
f 14//12 7//12 11//12
f 9//3 5//3 8//3
f 12//13 15//13 4//13
f 15//9 13//9 8//9
f 4//9 15//9 8//9
f 7//14 14//14 4//14
f 14//15 12//15 4//15
f 11//16 1//16 3//16
f 6//17 3//17 2//17
f 3//18 6//18 12//18
f 15//19 6//19 9//19
f 6//19 10//19 9//19
f 14//20 3//20 12//20
f 6//21 2//21 10//21
f 14//22 11//22 3//22
f 1//10 10//10 5//10
f 5//9 10//9 9//9
f 11//23 1//23 7//23
f 7//24 1//24 4//24
f 13//25 7//25 15//25
f 7//26 12//26 15//26
f 7//27 14//27 12//27
f 13//9 8//9 7//9
f 8//28 4//28 7//28
