# Blender 4.0.0
# www.blender.org
o decimated_mesh
v 0.021065 0.160606 0.007021
v 0.020985 0.162288 0.006934
v -0.010933 0.162494 0.007025
v -0.004660 0.164553 0.007057
v 0.004831 0.164543 0.007061
v -0.000027 0.166130 0.005675
v -0.010917 0.164205 0.006460
v 0.021054 0.162928 0.006047
v 0.017846 0.164214 0.005164
v 0.000009 0.166502 0.004183
v -0.006433 0.165763 0.005082
v 0.021058 0.163515 0.003848
v 0.006447 0.165762 0.005082
v -0.010920 0.165050 0.004267
v -0.010920 0.158454 -0.053187
v 0.021065 0.156581 -0.053187
v -0.010920 0.160037 -0.053187
v 0.021060 0.158389 -0.053186
v 0.000048 0.161435 -0.053187
vn 1.0000 0.0061 0.0033
vn -0.2089 0.9125 0.3518
vn 0.3016 0.9211 0.2462
vn 0.0005 0.6585 0.7526
vn 0.1117 0.7648 0.6345
vn -0.0776 0.9679 0.2392
vn -0.0583 -0.9961 0.0666
vn -0.0000 0.0002 -1.0000
vn 0.1358 0.9761 -0.1695
vn 0.0152 0.0528 0.9985
vn -0.1260 0.9883 -0.0862
vn -0.1006 0.8058 0.5836
vn -0.1002 0.8060 0.5834
vn 0.9917 0.0537 0.1168
vn 1.0000 0.0023 -0.0002
vn 1.0000 0.0029 -0.0002
vn 0.0772 0.9670 0.2427
vn -0.9999 0.0106 0.0051
vn -1.0000 -0.0000 -0.0000
vn -1.0000 0.0046 -0.0005
vn -0.1075 0.3122 0.9439
vn 0.1575 0.7948 0.5860
vn 0.1052 0.8060 0.5825
vn 0.0991 0.8091 0.5793
vn -0.0588 -0.9960 0.0668
vn -0.0000 -0.0000 -1.0000
vn 0.1429 0.9858 -0.0886
vn 0.1386 0.9865 -0.0870
vn 0.1334 0.9724 -0.1913
vn -0.0004 -0.0148 0.9999
vn -0.0006 -0.0127 0.9999
vn -0.1315 0.9821 -0.1352
vn -0.1318 0.9874 -0.0873
vn -0.0004 -0.0115 0.9999
vn -0.0007 -0.0138 0.9999
vn -0.1005 0.8064 0.5828
vn -1.0000 0.0047 -0.0004
vn -1.0000 -0.0000 -0.0002
vn 0.1429 0.9856 -0.0905
vn 0.1774 0.9802 -0.0881
vn 0.1346 0.9870 -0.0881
vn 0.1257 0.9882 -0.0872
vn -0.1003 0.8054 0.5841
vn -0.1411 0.9863 -0.0861
vn -0.1260 0.9882 -0.0874
vn -0.1255 0.9882 -0.0874
s 0
f 12//1 8//1 1//1
f 14//2 7//2 11//2
f 8//3 12//3 9//3
f 5//4 6//4 4//4
f 5//5 2//5 9//5
f 6//6 10//6 11//6
f 1//7 15//7 16//7
f 19//8 18//8 16//8
f 10//9 13//9 12//9
f 2//10 5//10 1//10
f 19//11 17//11 14//11
f 7//12 4//12 11//12
f 4//13 6//13 11//13
f 8//14 2//14 1//14
f 1//15 16//15 12//15
f 18//16 12//16 16//16
f 6//17 13//17 10//17
f 7//18 14//18 3//18
f 14//19 17//19 15//19
f 3//20 14//20 15//20
f 4//21 7//21 3//21
f 8//22 9//22 2//22
f 9//23 13//23 5//23
f 13//24 6//24 5//24
f 1//25 3//25 15//25
f 16//26 15//26 19//26
f 15//26 17//26 19//26
f 18//27 19//27 12//27
f 19//28 10//28 12//28
f 9//29 12//29 13//29
f 5//30 4//30 3//30
f 3//31 1//31 5//31
f 11//32 10//32 14//32
f 10//33 19//33 14//33
f 5//34 4//34 1//34
f 4//35 3//35 1//35
f 16//16 18//16 1//16
f 18//15 12//15 1//15
f 6//36 7//36 4//36
f 14//37 17//37 3//37
f 17//38 15//38 3//38
f 19//39 9//39 18//39
f 9//40 12//40 18//40
f 19//41 13//41 9//41
f 19//42 10//42 13//42
f 11//43 7//43 6//43
f 11//44 17//44 14//44
f 11//45 19//45 17//45
f 11//46 10//46 19//46
