# Blender 4.0.0
# www.blender.org
o decimated_mesh
v 0.038516 0.021288 -0.047785
v 0.038516 0.018709 -0.044496
v 0.038500 0.017519 -0.047805
v -0.010899 0.018667 -0.047785
v 0.038514 0.016612 -0.044501
v -0.010899 0.009550 -0.044496
v 0.038461 0.016815 -0.046995
v -0.010899 0.009178 -0.047785
v -0.010900 0.007824 -0.044507
v 0.027080 0.011828 -0.045826
v 0.021197 0.010036 -0.047362
v 0.000020 0.007027 -0.047282
v 0.000798 0.007773 -0.047654
v -0.010900 0.008401 -0.047269
v -0.004973 0.007081 -0.045792
v 0.020007 0.009069 -0.044498
v 0.013819 0.008741 -0.047313
v -0.000162 0.006395 -0.044508
v 0.017594 0.008680 -0.045756
v 0.019257 0.010256 -0.047798
v 0.004992 0.007082 -0.045790
vn 0.0004 -0.0000 1.0000
vn 0.0417 -0.7862 -0.6166
vn 0.0628 -0.3387 -0.9388
vn -0.3519 0.8787 0.3225
vn -0.0022 0.0744 0.9972
vn 0.1648 0.9654 0.2019
vn -0.3288 0.9278 0.1765
vn 0.0394 0.4130 0.9099
vn 0.1170 0.9261 0.3586
vn 0.0780 0.9709 0.2264
vn -0.1197 0.9373 0.3273
vn -0.0759 0.9733 0.2168
vn -1.0000 0.0013 -0.0002
vn -0.1040 0.6219 0.7762
vn -0.0023 0.0051 -1.0000
vn -0.0001 0.0013 -1.0000
vn 0.9998 -0.0010 -0.0212
vn 0.9990 -0.0432 0.0108
vn 1.0000 -0.0042 -0.0033
vn -0.0011 0.0024 -1.0000
vn -0.0001 0.0003 -1.0000
vn 0.0008 0.0065 -1.0000
vn -0.0000 0.0039 -1.0000
vn -0.2613 0.9423 0.2094
vn -0.1253 0.9899 -0.0660
vn -0.1315 0.9913 0.0032
vn 0.0706 0.5527 0.8304
vn -0.1549 0.8983 0.4111
vn -0.2987 0.7272 0.6180
vn -0.3928 0.9159 0.0828
vn -0.3760 0.9226 -0.0861
vn 0.1318 0.9906 0.0353
vn -0.1552 0.4119 0.8979
vn -0.1148 0.9305 0.3480
vn 1.0000 -0.0003 -0.0003
vn -1.0000 -0.0000 -0.0000
vn 0.0589 -0.4902 -0.8696
vn 0.0598 -0.4949 -0.8669
vn 1.0000 -0.0011 -0.0009
vn 1.0000 -0.0042 -0.0052
vn -0.0003 0.0051 -1.0000
vn 0.9957 -0.0877 -0.0282
vn -0.0004 0.0001 -1.0000
vn -1.0000 -0.0000 -0.0022
vn -1.0000 0.0001 0.0004
vn -0.1312 0.9898 -0.0547
vn 0.0593 -0.4913 -0.8690
vn -0.1258 0.9917 0.0262
vn 0.0595 -0.4946 -0.8671
s 0
f 20//1 4//1 8//1
f 1//2 2//2 4//2
f 2//3 6//3 4//3
f 11//4 10//4 7//4
f 13//5 20//5 8//5
f 9//6 15//6 14//6
f 16//7 10//7 11//7
f 13//8 8//8 12//8
f 15//9 12//9 14//9
f 18//10 12//10 15//10
f 17//11 21//11 19//11
f 12//12 18//12 21//12
f 14//13 6//13 8//13
f 20//14 17//14 11//14
f 3//15 20//15 1//15
f 1//16 20//16 4//16
f 5//17 7//17 2//17
f 7//18 3//18 2//18
f 3//19 1//19 2//19
f 16//20 2//20 5//20
f 2//21 16//21 6//21
f 6//22 18//22 9//22
f 18//23 6//23 16//23
f 19//24 16//24 11//24
f 19//25 21//25 16//25
f 16//26 21//26 18//26
f 12//27 8//27 14//27
f 19//28 11//28 17//28
f 7//29 3//29 11//29
f 7//30 10//30 5//30
f 5//31 10//31 16//31
f 18//32 15//32 9//32
f 20//33 11//33 3//33
f 12//34 21//34 17//34
f 14//35 6//35 9//35
f 6//36 4//36 8//36
f 17//37 12//37 20//37
f 12//38 13//38 20//38
f 2//39 5//39 1//39
f 5//40 3//40 1//40
f 3//41 4//41 1//41
f 7//42 3//42 5//42
f 20//43 4//43 3//43
f 8//44 14//44 4//44
f 14//45 6//45 4//45
f 18//46 16//46 19//46
f 17//47 13//47 20//47
f 21//48 18//48 19//48
f 12//49 13//49 17//49
