# Blender 4.0.0
# www.blender.org
o decimated_mesh
v 0.064283 0.042999 -0.050623
v 0.064279 0.052756 -0.050595
v 0.066466 0.045444 -0.050583
v 0.075525 0.086401 -0.050595
v 0.064278 0.045035 -0.051235
v 0.077163 0.086401 -0.050613
v 0.064279 0.086401 -0.053446
v 0.067053 0.052016 -0.052136
v 0.077340 0.083359 -0.050607
v 0.064279 0.086401 -0.055103
v 0.073270 0.061802 -0.052132
v 0.076928 0.086401 -0.052841
v 0.077119 0.083420 -0.052825
v 0.073101 0.070216 -0.053680
v 0.074491 0.064771 -0.051940
v 0.074663 0.063294 -0.050603
v 0.076423 0.086401 -0.053943
v 0.074612 0.086401 -0.054898
v 0.075471 0.082601 -0.054406
v 0.076741 0.076361 -0.050609
v 0.076531 0.082638 -0.053933
vn 0.9087 0.0250 -0.4167
vn -0.0001 1.0000 -0.0001
vn 0.4669 0.0112 -0.8842
vn -0.2450 0.0819 0.9661
vn 0.5039 -0.1524 -0.8502
vn 0.9936 0.0575 -0.0977
vn -1.0000 -0.0004 0.0061
vn 1.0000 -0.0000 -0.0000
vn 1.0000 -0.0001 -0.0005
vn 0.0108 0.0024 0.9999
vn -0.0031 0.0010 -1.0000
vn -0.0004 -0.0004 -1.0000
vn -0.0150 -0.0029 0.9999
vn 0.0007 -0.0014 -1.0000
vn -0.0055 0.0007 -1.0000
vn 0.8662 0.0527 -0.4968
vn 0.1667 -0.0895 -0.9819
vn 0.0002 1.0000 -0.0001
vn 0.0001 1.0000 0.0001
vn -0.0000 1.0000 -0.0000
vn -0.0000 1.0000 0.0001
vn 0.0035 -0.0857 -0.9963
vn -0.0888 -0.0927 -0.9917
vn 0.0197 -0.0769 -0.9968
vn 0.4084 -0.0259 -0.9125
vn 0.2669 -0.1692 -0.9488
vn 0.3186 -0.2449 -0.9157
vn 0.3211 -0.2720 -0.9071
vn 0.3857 -0.2447 -0.8896
vn 0.9912 -0.0849 -0.1013
vn 0.8376 -0.3851 -0.3874
vn 0.8340 -0.3137 -0.4538
vn 0.9925 0.0629 -0.1050
vn 0.4781 -0.1496 -0.8655
vn 0.4080 -0.1311 -0.9035
vn 0.9147 -0.1648 -0.3690
vn 0.9458 -0.1505 -0.2879
vn 0.9332 -0.1433 -0.3295
vn 1.0000 -0.0001 -0.0006
vn 0.0026 -0.0009 -1.0000
vn -0.0035 0.0005 -1.0000
vn -0.0058 0.0006 -1.0000
vn -0.0001 1.0000 0.0001
vn -0.0101 0.0011 -0.9999
vn 0.9076 0.0558 -0.4162
vn 0.8760 0.0239 -0.4817
vn 0.9129 -0.1467 -0.3809
vn 0.9399 -0.1470 -0.3081
s 0
f 12//1 21//1 17//1
f 12//2 4//2 6//2
f 21//3 18//3 17//3
f 4//4 7//4 2//4
f 11//5 21//5 15//5
f 13//6 6//6 9//6
f 1//7 2//7 5//7
f 2//8 10//8 7//8
f 10//9 2//9 5//9
f 6//10 4//10 9//10
f 4//11 20//11 2//11
f 20//12 16//12 2//12
f 2//13 1//13 3//13
f 3//14 2//14 16//14
f 20//15 4//15 9//15
f 12//16 13//16 21//16
f 19//17 14//17 18//17
f 17//18 18//18 12//18
f 12//19 18//19 4//19
f 18//20 10//20 7//20
f 7//21 4//21 18//21
f 14//22 8//22 10//22
f 8//23 5//23 10//23
f 10//24 18//24 14//24
f 19//25 18//25 21//25
f 14//26 11//26 8//26
f 8//27 3//27 5//27
f 3//28 1//28 5//28
f 8//29 11//29 3//29
f 20//30 13//30 9//30
f 16//31 3//31 11//31
f 11//32 15//32 16//32
f 13//33 12//33 6//33
f 21//34 11//34 14//34
f 19//35 21//35 14//35
f 21//36 13//36 20//36
f 20//37 16//37 15//37
f 21//38 20//38 15//38
f 2//39 5//39 7//39
f 7//8 5//8 10//8
f 3//40 2//40 4//40
f 16//41 3//41 4//41
f 16//42 4//42 9//42
f 6//43 18//43 4//43
f 6//18 12//18 18//18
f 20//44 16//44 9//44
f 13//45 17//45 12//45
f 13//46 21//46 17//46
f 13//47 15//47 21//47
f 13//48 20//48 15//48
