# Blender 4.0.0
# www.blender.org
o decimated_mesh
v -0.010907 0.014417 0.019863
v -0.010920 0.016122 0.019710
v -0.019239 0.015586 0.019808
v -0.010907 0.013406 0.018540
v -0.035451 0.023948 0.019472
v -0.035459 0.022658 0.019565
v -0.010907 0.009537 -0.043865
v -0.035459 0.020965 0.017913
v -0.020582 0.014667 0.017878
v -0.035459 0.017231 -0.043865
v -0.010907 0.007858 -0.043865
v -0.035459 0.015453 -0.043865
v -0.019878 0.009085 -0.043865
vn 0.1350 0.9870 -0.0877
vn 0.2976 0.9496 -0.0983
vn 0.0164 0.0718 0.9973
vn -1.0000 -0.0074 0.0061
vn 0.3168 0.7516 -0.5785
vn 0.1454 0.8501 -0.5061
vn 0.1346 0.9870 -0.0878
vn -1.0000 -0.0000 -0.0000
vn -1.0000 0.0028 -0.0002
vn -1.0000 0.0061 -0.0066
vn -0.0000 -0.0000 -1.0000
vn -0.0000 -0.0001 -1.0000
vn 0.3033 0.9476 -0.1005
vn 0.0059 0.0891 0.9960
vn 0.0081 0.0557 0.9984
vn -1.0000 -0.0049 0.0003
vn 0.3006 0.6660 -0.6827
vn 0.1147 0.7893 -0.6031
vn 0.3883 0.9179 -0.0819
vn 0.3771 0.9228 -0.0791
vn 0.2975 0.9494 -0.1007
vn 0.3033 0.9478 -0.0981
vn -1.0000 -0.0079 0.0006
vn -1.0000 0.0007 -0.0001
vn -1.0000 0.0066 -0.0006
vn 0.0120 0.0718 0.9973
vn 0.0188 0.0892 0.9958
vn -0.0027 0.0281 0.9996
vn -1.0000 -0.0004 -0.0000
s 0
f 9//1 11//1 13//1
f 10//2 2//2 7//2
f 6//3 3//3 5//3
f 1//4 2//4 4//4
f 9//5 8//5 3//5
f 9//6 3//6 4//6
f 4//7 11//7 9//7
f 12//8 8//8 10//8
f 10//9 8//9 5//9
f 8//10 6//10 5//10
f 13//11 12//11 10//11
f 10//12 7//12 13//12
f 7//11 11//11 13//11
f 10//13 5//13 2//13
f 1//14 2//14 3//14
f 2//15 5//15 3//15
f 4//8 7//8 11//8
f 2//16 7//16 4//16
f 3//17 8//17 6//17
f 1//18 4//18 3//18
f 9//19 12//19 8//19
f 12//20 9//20 13//20
f 11//11 12//11 10//11
f 11//11 10//11 7//11
f 10//21 5//21 7//21
f 5//22 2//22 7//22
f 2//23 7//23 1//23
f 1//8 7//8 11//8
f 1//24 11//24 4//24
f 13//12 12//12 11//12
f 6//25 5//25 10//25
f 12//8 6//8 10//8
f 6//26 1//26 5//26
f 1//27 2//27 5//27
f 6//28 3//28 1//28
f 8//29 6//29 12//29
