# Blender 4.0.0
# www.blender.org
o decimated_mesh
v -0.035459 0.018523 -0.047111
v -0.035459 0.017232 -0.043865
v -0.010907 0.014583 -0.047112
v -0.035451 0.015718 -0.047108
v -0.035459 0.015451 -0.043865
v -0.010907 0.009537 -0.043865
v -0.010913 0.008235 -0.047119
v -0.035452 0.015246 -0.045898
v -0.010905 0.007791 -0.043903
v -0.021475 0.010013 -0.047088
v -0.020385 0.009167 -0.043876
v -0.017579 0.008679 -0.045758
vn -1.0000 -0.0026 -0.0011
vn -0.1475 -0.9190 -0.3657
vn 0.0010 0.0032 -1.0000
vn -1.0000 -0.0007 0.0024
vn -0.1672 -0.5336 -0.8291
vn -0.1435 -0.9888 0.0423
vn -0.0936 -0.9863 -0.1360
vn -0.3572 -0.9260 -0.1226
vn -0.3831 -0.9192 0.0912
vn -1.0000 -0.0029 -0.0020
vn -1.0000 -0.0000 -0.0037
vn 0.0010 -0.0010 -1.0000
vn -0.0006 -0.0037 -1.0000
vn -0.0027 0.0011 -1.0000
vn -0.0007 -0.0000 -1.0000
vn -0.0003 -0.0219 0.9998
vn -1.0000 0.0011 0.0017
vn -0.1499 -0.8826 -0.4455
vn -0.3550 -0.8709 -0.3398
vn -0.2710 -0.9495 -0.1580
vn -1.0000 -0.0029 -0.0028
vn -1.0000 -0.0000 -0.0001
vn 0.0001 0.0011 -1.0000
vn -0.0007 -0.0010 -1.0000
vn -1.0000 -0.0058 -0.0031
vn -0.0060 -0.0182 -0.9998
vn 0.0010 0.0041 -1.0000
vn -0.0000 -0.0000 -1.0000
vn -1.0000 -0.0006 -0.0010
vn -1.0000 0.0011 0.0026
s 0
f 8//1 2//1 1//1
f 1//2 3//2 2//2
f 6//3 11//3 2//3
f 7//4 9//4 6//4
f 2//5 3//5 6//5
f 9//6 11//6 12//6
f 12//7 7//7 9//7
f 8//8 10//8 11//8
f 5//9 8//9 11//9
f 1//10 4//10 8//10
f 8//11 5//11 2//11
f 10//12 4//12 1//12
f 1//13 3//13 10//13
f 10//14 3//14 7//14
f 5//15 2//15 11//15
f 11//16 9//16 6//16
f 7//17 6//17 3//17
f 12//18 10//18 7//18
f 4//19 10//19 8//19
f 10//20 12//20 11//20
f 4//21 5//21 1//21
f 5//22 2//22 1//22
f 3//23 7//23 1//23
f 7//24 4//24 1//24
f 8//25 5//25 4//25
f 7//26 10//26 4//26
f 11//27 5//27 6//27
f 6//28 5//28 2//28
f 6//29 3//29 9//29
f 9//30 3//30 7//30
