# Blender 4.0.0
# www.blender.org
o decimated_mesh
v 0.053701 0.041852 -0.020040
v 0.051128 0.041856 -0.019941
v 0.039511 0.041856 -0.038358
v 0.038204 0.022614 -0.038353
v 0.050001 0.022614 -0.019945
v 0.054031 0.022638 -0.022195
v 0.042343 0.041856 -0.038358
v 0.054493 0.022667 -0.019946
v 0.043317 0.022625 -0.038357
vn -0.0384 0.0025 -0.9993
vn -0.0008 -0.0002 -1.0000
vn -0.0043 1.0000 0.0027
vn 0.8406 -0.0572 -0.5387
vn -0.0001 -0.0049 -1.0000
vn -0.0000 1.0000 0.0002
vn 0.0017 1.0000 -0.0011
vn 0.9787 0.0394 -0.2015
vn 0.8327 0.0422 -0.5521
vn 0.8476 0.0735 -0.5255
vn -0.0000 -0.0000 -1.0000
vn -0.0022 1.0000 0.0007
vn 0.0117 -0.9999 0.0105
vn 0.8448 -0.0494 -0.5329
vn -0.0000 1.0000 -0.0000
vn 0.8444 -0.0575 -0.5326
vn 0.8409 -0.0491 -0.5389
vn -0.0002 0.0002 -1.0000
vn -0.0384 -0.0065 -0.9992
vn 0.0017 1.0000 -0.0008
vn -0.0022 1.0000 0.0014
vn -0.0046 1.0000 0.0023
s 0
f 2//1 1//1 5//1
f 9//2 4//2 3//2
f 5//3 6//3 4//3
f 5//4 4//4 3//4
f 8//5 5//5 1//5
f 1//6 7//6 3//6
f 2//7 1//7 3//7
f 6//8 1//8 8//8
f 6//9 9//9 7//9
f 7//10 1//10 6//10
f 3//11 7//11 9//11
f 9//12 4//12 6//12
f 6//13 8//13 5//13
f 5//14 3//14 2//14
f 7//15 3//15 2//15
f 3//16 2//16 4//16
f 4//17 2//17 5//17
f 5//18 2//18 8//18
f 8//19 2//19 1//19
f 1//20 7//20 2//20
f 9//21 4//21 5//21
f 9//22 5//22 6//22
