# Blender 4.0.0
# www.blender.org
o decimated_mesh
v 0.035314 0.041885 0.044331
v 0.031475 0.214309 0.032706
v 0.035311 0.041873 0.041522
v 0.037801 0.025538 0.043676
v 0.035300 0.208406 0.034021
v 0.035552 0.214300 0.032643
v 0.045575 0.214309 0.000099
v 0.035430 0.187337 0.035625
v 0.055850 0.025546 0.000522
v 0.037801 0.025538 0.040817
v 0.048232 0.214309 0.000109
v 0.041259 0.025538 0.041245
v 0.042365 0.214284 0.022914
v 0.048742 0.212681 0.000120
v 0.058303 0.025539 0.000532
v 0.045471 0.206939 0.018987
v 0.045230 0.214279 0.017860
v 0.047488 0.214293 0.006767
v 0.057289 0.046808 0.000131
v 0.053921 0.025539 0.022335
vn -0.9998 -0.0222 0.0011
vn 0.9792 0.0504 0.1968
vn 0.0154 0.2270 0.9738
vn 0.0050 1.0000 0.0018
vn -0.3112 0.0570 0.9486
vn -0.9886 -0.1507 -0.0000
vn -0.9060 -0.1206 -0.4058
vn 0.5629 0.0489 0.8251
vn 0.8295 0.0475 0.5565
vn 0.9813 0.0506 0.1855
vn 0.9835 0.0274 0.1788
vn 0.9780 0.0627 0.1991
vn 0.9794 0.0492 0.1957
vn -0.0000 1.0000 0.0023
vn 0.0037 1.0000 0.0016
vn 0.0022 1.0000 0.0017
vn 0.0021 1.0000 -0.0002
vn 0.0042 -0.0186 -0.9998
vn -0.1309 -0.0093 -0.9913
vn -0.0040 0.0054 1.0000
vn -0.0069 -0.0003 1.0000
vn -0.0000 1.0000 -0.0000
vn -0.0000 -1.0000 -0.0000
vn 0.0004 1.0000 0.0004
vn 0.0030 1.0000 0.0006
vn -0.9886 -0.1505 0.0017
vn -0.9171 -0.0407 -0.3966
vn -0.9008 -0.0500 -0.4313
vn 0.9487 0.2977 0.1067
vn 0.5742 0.0546 0.8169
vn -0.2222 0.0726 0.9723
vn 0.8299 0.0492 0.5557
vn 0.8286 0.0489 0.5577
vn 0.8653 0.1037 0.4904
vn 0.8152 0.0987 0.5707
vn 0.8295 0.0535 0.5559
vn 0.5464 0.0496 0.8361
vn 0.5744 0.0491 0.8171
vn 0.8101 0.0495 0.5843
vn 0.0021 1.0000 0.0007
vn 0.0033 1.0000 0.0014
vn 0.8299 0.0489 0.5557
vn 0.8295 0.0490 0.5564
vn 0.0042 1.0000 0.0013
vn 0.0061 1.0000 0.0025
vn 0.9802 0.0498 0.1918
vn 0.9820 0.0503 0.1818
vn 0.9836 0.0507 0.1732
vn 0.0040 0.0001 -1.0000
vn 0.0030 1.0000 0.0016
vn 0.9792 0.0492 0.1968
vn 0.0253 0.0012 -0.9997
s 0
f 1//1 2//1 3//1
f 15//2 19//2 20//2
f 2//3 5//3 6//3
f 7//4 13//4 17//4
f 1//5 8//5 2//5
f 4//6 3//6 10//6
f 9//7 10//7 3//7
f 12//8 8//8 1//8
f 5//9 8//9 16//9
f 19//10 14//10 16//10
f 14//11 18//11 16//11
f 17//12 16//12 18//12
f 16//13 20//13 19//13
f 18//14 11//14 7//14
f 7//15 2//15 13//15
f 18//16 7//16 17//16
f 6//17 13//17 2//17
f 19//18 15//18 9//18
f 9//19 7//19 19//19
f 7//20 14//20 11//20
f 14//21 7//21 19//21
f 20//22 10//22 12//22
f 12//23 4//23 10//23
f 10//24 20//24 9//24
f 15//25 9//25 20//25
f 4//26 1//26 3//26
f 2//27 7//27 3//27
f 7//28 9//28 3//28
f 14//29 11//29 18//29
f 1//30 4//30 12//30
f 2//31 8//31 5//31
f 8//32 12//32 20//32
f 20//33 16//33 8//33
f 16//34 17//34 13//34
f 13//35 6//35 5//35
f 16//36 13//36 5//36
f 4//37 8//37 1//37
f 4//38 12//38 8//38
f 12//39 5//39 8//39
f 6//40 18//40 2//40
f 18//41 7//41 2//41
f 10//22 12//22 15//22
f 15//22 12//22 20//22
f 20//42 16//42 12//42
f 16//43 5//43 12//43
f 13//44 17//44 6//44
f 17//45 18//45 6//45
f 16//46 15//46 18//46
f 15//47 19//47 18//47
f 19//48 14//48 18//48
f 11//49 19//49 7//49
f 15//50 9//50 10//50
f 16//51 20//51 15//51
f 14//52 19//52 11//52
