# Blender 4.0.0
# www.blender.org
o decimated_mesh
v -0.000620 0.214311 0.048468
v -0.000610 0.214915 0.029659
v -0.000606 0.216273 0.047321
v -0.020377 0.215097 0.020449
v -0.015587 0.216410 0.044231
v -0.020377 0.214256 0.043662
v -0.000603 0.215989 0.027810
v -0.000608 0.217258 0.044490
v -0.017591 0.214255 0.045269
v -0.019176 0.216199 0.043191
v -0.020383 0.215340 0.043201
v -0.020377 0.216738 0.020377
v -0.017783 0.217141 0.041665
v -0.020377 0.216465 0.041902
v -0.020377 0.217224 0.022612
v -0.000606 0.216819 0.029071
v -0.000606 0.217272 0.031224
v -0.020377 0.217138 0.039836
vn -1.0000 0.0018 -0.0002
vn -0.3502 0.0412 0.9358
vn -0.1708 0.4981 0.8501
vn -0.4692 0.3433 0.8136
vn -0.0591 0.9456 0.3199
vn -1.0000 0.0002 -0.0000
vn -0.2201 0.8440 0.4891
vn -0.0892 -0.9732 0.2119
vn -0.1693 0.9002 0.4013
vn -0.2318 -0.8125 0.5349
vn -0.4706 0.6682 0.5763
vn -0.0046 1.0000 0.0050
vn -0.9999 0.0098 0.0042
vn -1.0000 0.0036 -0.0005
vn -1.0000 0.0011 -0.0030
vn -1.0000 0.0019 -0.0004
vn -0.1572 0.5434 0.8246
vn -0.0590 0.9428 0.3282
vn -0.2548 0.6016 0.7571
vn -0.3662 0.5237 0.7692
vn -1.0000 -0.0000 -0.0000
vn 1.0000 -0.0002 -0.0000
vn -0.9998 -0.0117 -0.0147
vn -1.0000 0.0001 0.0001
vn -0.0870 -0.9749 0.2051
vn -0.0077 0.9993 0.0362
vn -0.0147 0.9995 0.0263
vn -0.0094 0.9994 0.0321
vn -0.2017 0.9050 0.3746
vn -0.2145 0.9287 0.3025
vn -0.0048 1.0000 0.0050
vn -0.0070 1.0000 0.0011
vn -1.0000 -0.0051 0.0011
vn -1.0000 -0.0019 -0.0001
vn -1.0000 0.0059 -0.0002
vn -0.0029 1.0000 0.0011
vn -1.0000 -0.0027 -0.0002
vn -1.0000 0.0072 -0.0003
vn -0.1642 0.5478 0.8204
vn -0.1621 0.4988 0.8514
vn -0.0106 0.9994 0.0321
vn -1.0000 0.0004 -0.0002
vn -1.0000 -0.0055 -0.0002
vn -1.0000 0.0033 -0.0000
vn -0.0072 1.0000 0.0050
vn -0.0085 0.9999 0.0102
vn -0.0052 0.9999 0.0098
vn -1.0000 0.0086 0.0028
s 0
f 17//1 2//1 8//1
f 12//2 4//2 7//2
f 3//3 5//3 1//3
f 6//4 9//4 11//4
f 8//5 13//5 5//5
f 18//6 15//6 4//6
f 2//7 7//7 4//7
f 15//8 12//8 16//8
f 13//9 10//9 5//9
f 12//10 7//10 16//10
f 10//11 14//11 11//11
f 17//12 15//12 13//12
f 8//13 1//13 3//13
f 1//14 8//14 2//14
f 16//15 7//15 2//15
f 16//16 2//16 17//16
f 9//17 1//17 5//17
f 5//18 3//18 8//18
f 5//19 10//19 9//19
f 11//20 9//20 10//20
f 4//21 6//21 18//21
f 12//22 15//22 4//22
f 11//23 14//23 6//23
f 14//24 18//24 6//24
f 15//25 16//25 17//25
f 6//26 2//26 4//26
f 9//27 2//27 6//27
f 9//28 1//28 2//28
f 13//29 14//29 10//29
f 14//30 13//30 18//30
f 15//31 18//31 13//31
f 13//32 8//32 17//32
f 16//33 7//33 17//33
f 17//34 7//34 3//34
f 3//35 7//35 2//35
f 15//36 8//36 17//36
f 8//37 17//37 3//37
f 1//38 3//38 2//38
f 5//39 9//39 3//39
f 9//40 1//40 3//40
f 1//41 2//41 6//41
f 11//42 15//42 4//42
f 6//43 11//43 4//43
f 11//44 18//44 15//44
f 18//45 8//45 15//45
f 18//46 13//46 8//46
f 9//47 1//47 6//47
f 14//48 18//48 11//48
