# Blender 4.0.0
# www.blender.org
o decimated_mesh
v 0.048278 0.214463 0.000078
v 0.047408 0.216294 0.000093
v 0.029434 0.214965 0.000098
v 0.022667 0.214820 -0.018857
v 0.022673 0.214405 -0.042206
v 0.044142 0.217272 0.000099
v 0.047599 0.214370 -0.005810
v 0.044273 0.216332 -0.015718
v 0.027873 0.215742 0.000099
v 0.022669 0.216304 -0.040790
v 0.043239 0.216129 -0.019212
v 0.041780 0.217137 -0.017608
v 0.031224 0.217272 0.000099
v 0.044864 0.214368 -0.018608
v 0.027949 0.216362 0.000099
v 0.022668 0.216469 -0.016346
v 0.022668 0.215454 -0.016354
v 0.033551 0.216080 -0.033637
v 0.022667 0.217199 -0.019614
v 0.034430 0.214370 -0.034380
v 0.032519 0.216959 -0.032309
v 0.022668 0.217222 -0.037682
vn -0.9455 0.1157 0.3044
vn -0.2660 0.9574 0.1119
vn -0.4391 -0.8834 0.1635
vn -1.0000 -0.0019 -0.0000
vn 0.4745 0.5268 -0.7053
vn 0.0306 0.9995 -0.0067
vn 0.0031 1.0000 0.0013
vn 0.8079 0.5675 -0.1588
vn -0.5509 0.8144 0.1822
vn 0.7194 0.4973 -0.4849
vn -0.5857 -0.7857 0.1991
vn 0.2866 0.9570 -0.0455
vn 0.1773 0.9438 -0.2788
vn 0.4211 0.8898 -0.1761
vn -0.0009 0.0061 -1.0000
vn 0.0005 0.0083 -1.0000
vn -0.0000 -0.0002 1.0000
vn 0.0001 -0.0002 1.0000
vn 0.0002 -0.0000 1.0000
vn 0.0507 0.9977 -0.0441
vn -0.9534 -0.0025 0.3017
vn -1.0000 -0.0015 -0.0002
vn -1.0000 0.0001 0.0003
vn -1.0000 -0.0000 0.0003
vn -1.0000 -0.0001 -0.0001
vn 0.4664 0.5432 -0.6982
vn 0.0205 0.9997 -0.0150
vn -0.0266 -0.9995 0.0188
vn 0.0148 0.9997 -0.0177
vn 0.0205 0.9997 -0.0134
vn 0.0038 1.0000 -0.0054
vn -0.0000 1.0000 -0.0076
vn 0.8975 0.4271 -0.1102
vn 0.8378 0.5158 -0.1791
vn 0.7526 0.6059 -0.2578
vn 0.6934 0.5557 -0.4587
vn 0.2674 0.8860 -0.3789
vn 0.3530 0.9332 -0.0678
vn 0.3984 0.8764 -0.2707
vn 0.3609 0.9017 -0.2383
vn -0.0009 0.0076 -1.0000
vn 0.0270 0.9995 -0.0176
vn 0.0044 1.0000 -0.0020
vn 0.0007 1.0000 -0.0003
vn -0.0006 0.0043 -1.0000
vn -0.0000 -0.0004 1.0000
vn 0.0282 0.9994 -0.0177
vn 0.4718 0.5276 -0.7064
vn 0.4688 0.5436 -0.6962
vn 0.6890 0.5561 -0.4647
vn 0.7214 0.5018 -0.4772
vn 0.0145 0.9998 -0.0096
vn -0.0000 -0.0000 1.0000
vn -0.0000 1.0000 -0.0013
vn -0.0115 0.9999 0.0013
s 0
f 16//1 9//1 15//1
f 19//2 15//2 13//2
f 3//3 9//3 4//3
f 22//4 10//4 5//4
f 10//5 18//5 5//5
f 14//6 3//6 7//6
f 12//7 22//7 19//7
f 8//8 2//8 7//8
f 19//9 16//9 15//9
f 14//10 18//10 11//10
f 9//11 17//11 4//11
f 12//12 6//12 2//12
f 22//13 21//13 10//13
f 12//14 8//14 11//14
f 3//15 6//15 1//15
f 2//16 1//16 6//16
f 6//17 13//17 3//17
f 13//18 15//18 3//18
f 3//19 15//19 9//19
f 22//20 12//20 21//20
f 16//21 17//21 9//21
f 5//22 4//22 22//22
f 4//23 17//23 19//23
f 17//24 16//24 19//24
f 19//25 22//25 4//25
f 18//26 20//26 5//26
f 3//27 14//27 4//27
f 1//28 3//28 7//28
f 5//29 4//29 20//29
f 20//30 4//30 14//30
f 19//31 13//31 12//31
f 13//32 6//32 12//32
f 1//33 7//33 2//33
f 7//34 14//34 8//34
f 11//35 8//35 14//35
f 14//36 20//36 18//36
f 18//37 10//37 21//37
f 2//38 8//38 12//38
f 11//39 18//39 21//39
f 12//40 11//40 21//40
f 2//41 1//41 3//41
f 3//42 7//42 5//42
f 5//43 7//43 20//43
f 20//44 7//44 14//44
f 6//45 2//45 3//45
f 6//46 9//46 3//46
f 4//47 3//47 5//47
f 10//48 20//48 5//48
f 10//49 18//49 20//49
f 18//50 11//50 20//50
f 11//51 14//51 20//51
f 22//52 6//52 12//52
f 13//53 9//53 6//53
f 22//54 13//54 6//54
f 13//53 15//53 9//53
f 19//55 13//55 22//55
