# Blender 4.0.0
# www.blender.org
o decimated_mesh
v 0.020386 0.215192 0.020361
v -0.000605 0.214951 0.029451
v -0.000608 0.215989 0.027812
v 0.020392 0.216740 0.020361
v 0.022608 0.214785 0.020361
v 0.022672 0.217233 0.020361
v 0.043745 0.214345 0.020374
v -0.000606 0.216819 0.029072
v -0.000600 0.214310 0.048252
v -0.000606 0.217272 0.031225
v 0.042385 0.216240 0.020362
v -0.000597 0.217253 0.044586
v 0.001097 0.215184 0.047932
v 0.039884 0.217135 0.020361
v 0.034454 0.214309 0.034410
v -0.000568 0.216161 0.047562
v 0.032345 0.216953 0.032518
v 0.033661 0.216054 0.033558
v 0.017717 0.217132 0.041720
v 0.015436 0.216413 0.044258
v 0.006149 0.214309 0.047564
v 0.019146 0.216184 0.043228
v 0.017505 0.214308 0.045266
v 0.021365 0.214309 0.043247
vn 0.4641 0.5565 0.6892
vn -0.0940 0.9742 -0.2050
vn 0.3287 0.9190 0.2176
vn 0.0131 0.9996 0.0256
vn -0.2196 0.8147 -0.5366
vn -0.0036 0.3494 0.9370
vn 0.1572 0.5717 0.8053
vn -0.1648 -0.8996 -0.4045
vn 0.7122 0.5141 0.4781
vn 0.3887 0.8811 0.2694
vn 0.0999 0.1645 0.9813
vn 0.0044 1.0000 0.0057
vn 0.4046 0.4870 0.7741
vn 0.2474 0.6054 0.7565
vn 0.4673 0.5501 0.6921
vn -0.9995 0.0239 0.0186
vn -1.0000 -0.0007 0.0006
vn -1.0000 -0.0002 0.0001
vn -1.0000 0.0002 0.0021
vn -1.0000 0.0012 0.0003
vn 0.0156 0.9996 0.0216
vn 0.0146 0.9997 0.0216
vn 0.0208 0.9997 0.0163
vn 0.0067 0.9994 0.0329
vn 0.0035 0.9994 0.0341
vn -0.1874 0.8681 -0.4596
vn 0.1579 0.5741 0.8034
vn 0.1653 0.5534 0.8163
vn -0.0005 0.0037 1.0000
vn -0.0000 -0.0000 -1.0000
vn -0.0000 -0.0000 1.0000
vn 0.0030 0.0085 1.0000
vn -0.3344 0.0013 -0.9424
vn -0.2165 -0.8251 -0.5219
vn 0.0562 0.9374 0.3436
vn 0.0561 0.9463 0.3185
vn 0.6990 0.5441 0.4641
vn 0.0068 1.0000 0.0014
vn 0.0178 0.9998 0.0089
vn 0.0057 0.9998 0.0185
vn 0.2766 0.8722 0.4035
vn 0.2317 0.9074 0.3507
vn 0.1680 0.8985 0.4055
vn -0.0000 0.0001 1.0000
vn -0.0000 0.0003 1.0000
vn -0.0005 0.0061 1.0000
vn 0.0208 0.9992 0.0348
vn -1.0000 -0.0028 0.0002
vn 0.0206 0.9992 0.0341
vn -1.0000 0.0008 0.0005
vn -1.0000 0.0048 -0.0010
vn 0.0024 1.0000 0.0014
vn 0.0057 1.0000 0.0046
vn 0.6961 0.5446 0.4678
vn 0.7140 0.5153 0.4739
vn 0.0014 1.0000 0.0035
vn -1.0000 0.0016 0.0006
vn 0.0001 1.0000 0.0002
vn 0.0001 1.0000 -0.0002
vn 0.0079 0.9999 0.0083
vn 0.0355 0.9987 0.0370
vn -0.0014 1.0000 -0.0022
vn 0.1575 0.5711 0.8057
vn 0.1570 0.5730 0.8044
s 0
f 24//1 18//1 22//1
f 8//2 10//2 6//2
f 17//3 11//3 14//3
f 24//4 2//4 23//4
f 8//5 4//5 3//5
f 16//6 9//6 13//6
f 20//7 16//7 21//7
f 2//8 1//8 5//8
f 18//9 7//9 11//9
f 11//10 17//10 18//10
f 9//11 21//11 13//11
f 6//12 10//12 19//12
f 23//13 24//13 22//13
f 22//14 20//14 23//14
f 24//15 15//15 18//15
f 16//16 12//16 9//16
f 12//17 10//17 2//17
f 10//18 8//18 2//18
f 3//19 2//19 8//19
f 2//20 9//20 12//20
f 2//21 24//21 5//21
f 24//22 15//22 5//22
f 7//23 5//23 15//23
f 23//24 2//24 21//24
f 21//25 2//25 9//25
f 8//26 6//26 4//26
f 13//27 21//27 16//27
f 21//28 23//28 20//28
f 7//29 14//29 5//29
f 5//30 1//30 4//30
f 4//31 5//31 6//31
f 6//31 5//31 14//31
f 14//32 7//32 11//32
f 4//33 1//33 3//33
f 2//34 3//34 1//34
f 16//35 20//35 12//35
f 12//36 20//36 19//36
f 15//37 7//37 18//37
f 12//38 19//38 10//38
f 19//39 17//39 6//39
f 14//40 6//40 17//40
f 22//41 18//41 17//41
f 17//42 19//42 22//42
f 19//43 20//43 22//43
f 4//44 14//44 6//44
f 4//45 11//45 14//45
f 4//31 5//31 11//31
f 11//46 5//46 7//46
f 7//47 5//47 2//47
f 9//48 3//48 2//48
f 7//49 2//49 9//49
f 9//50 10//50 3//50
f 10//51 8//51 3//51
f 10//52 12//52 6//52
f 12//53 14//53 6//53
f 18//54 15//54 11//54
f 15//55 7//55 11//55
f 15//56 7//56 9//56
f 12//57 10//57 9//57
f 15//58 9//58 23//58
f 23//59 9//59 21//59
f 12//60 19//60 14//60
f 19//61 17//61 14//61
f 24//62 15//62 23//62
f 20//63 13//63 21//63
f 20//64 16//64 13//64
