# Blender 4.0.0
# www.blender.org
o Soap_Bottle_1_soap_bottle_1_2_collision_17
v -0.000606 0.048220 -0.054800
v -0.000985 0.024194 -0.055209
v -0.000606 0.024194 -0.055475
v -0.000606 0.048220 -0.057036
v -0.039019 0.048220 -0.038325
v -0.039019 0.024194 -0.039497
v -0.000606 0.024194 -0.058305
v -0.000606 0.026689 -0.058252
v -0.001079 0.048220 -0.057036
v -0.039019 0.048220 -0.041519
v -0.039019 0.024194 -0.042927
v -0.000606 0.025523 -0.058281
v -0.000895 0.024194 -0.058305
v -0.000764 0.025523 -0.058281
v -0.003230 0.048220 -0.056664
v -0.037785 0.047053 -0.042419
v -0.038075 0.040593 -0.042611
v -0.038778 0.024685 -0.043082
v -0.039019 0.044240 -0.041756
v -0.036657 0.048220 -0.043103
v -0.039019 0.024899 -0.042902
v -0.038793 0.024194 -0.043090
v -0.009690 0.025523 -0.056519
v -0.011698 0.024194 -0.056167
v -0.003230 0.044899 -0.056830
v -0.003230 0.047053 -0.056723
v -0.007539 0.027675 -0.056840
v -0.005385 0.047053 -0.056294
v -0.006377 0.048220 -0.056038
v -0.036710 0.047053 -0.043139
v -0.032946 0.047053 -0.045654
v -0.031431 0.044899 -0.046794
v -0.034597 0.034135 -0.045318
v -0.039019 0.038439 -0.042100
v -0.039019 0.039659 -0.042028
v -0.031119 0.027675 -0.048025
v -0.025870 0.024796 -0.051700
v -0.032157 0.048220 -0.046112
v -0.025885 0.024194 -0.051710
v -0.011574 0.025523 -0.056146
v -0.020455 0.024194 -0.054418
v -0.020455 0.025523 -0.054377
v -0.007539 0.034135 -0.056515
v -0.008690 0.039814 -0.056001
v -0.019478 0.039892 -0.053851
v -0.013999 0.047053 -0.054581
v -0.013999 0.048220 -0.054522
v -0.025704 0.048220 -0.050423
v -0.024475 0.031981 -0.052206
v -0.024663 0.027675 -0.052333
v -0.024956 0.025516 -0.052255
v -0.025403 0.024194 -0.052021
v -0.018304 0.027675 -0.054698
v -0.021015 0.024194 -0.054272
v -0.021910 0.025523 -0.053998
v -0.021579 0.031310 -0.053851
v -0.020455 0.027675 -0.054270
v -0.020199 0.034135 -0.053996
v -0.020621 0.032009 -0.054018
v -0.020455 0.048220 -0.052991
v -0.017349 0.048220 -0.053855
v -0.017105 0.048220 -0.053904
v -0.023753 0.048220 -0.051725
v -0.022989 0.025523 -0.053462
v -0.024836 0.024194 -0.052382
v -0.021967 0.024194 -0.054019
v -0.022380 0.024194 -0.053814
v -0.022865 0.027675 -0.053409
v -0.022715 0.048220 -0.052296
v -0.023042 0.024194 -0.053482
vn 0.5736 -0.0230 0.8188
vn 1.0000 -0.0000 -0.0000
vn -0.0000 1.0000 -0.0000
vn 0.3941 -0.0219 0.9188
vn 0.3814 -0.0450 0.9233
vn -0.0000 -1.0000 -0.0000
vn -0.0000 0.0564 -0.9984
vn -1.0000 -0.0000 -0.0000
vn -0.0000 0.0177 -0.9998
vn -0.0000 0.0251 -0.9997
vn -0.1854 0.0498 -0.9814
vn -0.1700 0.0519 -0.9841
vn -0.5576 0.0496 -0.8286
vn -0.5592 0.0492 -0.8276
vn -0.5603 0.0492 -0.8268
vn -0.5564 0.0514 -0.8293
vn -0.5839 0.0292 -0.8113
vn -0.1936 0.0365 -0.9804
vn -0.1940 0.0334 -0.9804
vn -0.1922 0.0489 -0.9801
vn -0.1892 0.0493 -0.9807
vn -0.1935 0.0473 -0.9800
vn -0.1930 0.0488 -0.9800
vn -0.1948 0.0493 -0.9796
vn -0.1948 0.0494 -0.9796
vn -0.5555 0.0501 -0.8300
vn -0.5555 0.0495 -0.8300
vn -0.5550 0.0494 -0.8304
vn -0.5549 0.0493 -0.8305
vn -0.5550 0.0491 -0.8304
vn -0.5809 0.0307 -0.8134
vn -0.5701 0.0486 -0.8202
vn -0.5680 0.0487 -0.8216
vn -0.5663 0.0488 -0.8228
vn -0.5549 0.0485 -0.8305
vn -0.5552 0.0302 -0.8312
vn -0.5550 0.0501 -0.8304
vn -0.5551 0.0274 -0.8313
vn -0.1944 0.0340 -0.9803
vn -0.1943 0.0482 -0.9798
vn -0.1957 0.0303 -0.9802
vn -0.1951 0.0341 -0.9802
vn -0.1934 0.0489 -0.9799
vn -0.1947 0.0492 -0.9796
vn -0.1948 0.0492 -0.9796
vn -0.1949 0.0492 -0.9796
vn -0.5549 0.0498 -0.8304
vn -0.5548 0.0497 -0.8305
vn -0.5548 0.0494 -0.8305
vn -0.5548 0.0493 -0.8305
vn -0.5547 0.0492 -0.8306
vn -0.5546 0.0491 -0.8306
vn -0.5529 0.0487 -0.8318
vn -0.5438 0.0435 -0.8381
vn -0.5377 0.0324 -0.8425
vn -0.5425 0.0272 -0.8396
vn -0.1950 0.0489 -0.9796
vn -0.2532 0.0288 -0.9670
vn -0.2522 0.0299 -0.9672
vn -0.2521 0.0389 -0.9669
vn -0.2059 0.0489 -0.9774
vn -0.1951 0.0490 -0.9796
vn -0.1951 0.0492 -0.9796
vn -0.1968 0.0493 -0.9792
vn -0.2022 0.0499 -0.9781
vn -0.2062 0.0505 -0.9772
vn -0.2737 0.0670 -0.9595
vn -0.2675 0.0679 -0.9612
vn -0.1960 0.0496 -0.9794
vn -0.1949 0.0493 -0.9796
vn -0.5545 0.0493 -0.8307
vn -0.5142 0.0482 -0.8563
vn -0.5156 0.0478 -0.8555
vn -0.5227 0.0401 -0.8516
vn -0.5228 0.0343 -0.8517
vn -0.5372 0.0322 -0.8429
vn -0.2563 0.0265 -0.9662
vn -0.4445 0.0334 -0.8952
vn -0.4445 0.0334 -0.8951
vn -0.4443 0.0476 -0.8946
vn -0.4435 0.0480 -0.8950
vn -0.2052 0.0491 -0.9775
vn -0.4519 0.0516 -0.8906
vn -0.2930 0.0680 -0.9537
vn -0.1992 0.0494 -0.9787
vn -0.4815 0.0509 -0.8750
vn -0.4942 0.0498 -0.8679
vn -0.4488 0.0309 -0.8931
vn -0.5223 0.0332 -0.8521
s 0
f 1//1 2//1 3//1
f 1//2 3//2 7//2
f 1//2 7//2 12//2
f 1//2 12//2 8//2
f 1//2 8//2 4//2
f 1//3 4//3 9//3
f 1//3 9//3 15//3
f 1//3 15//3 29//3
f 1//3 29//3 47//3
f 1//3 47//3 62//3
f 1//3 62//3 61//3
f 1//3 61//3 60//3
f 1//3 60//3 69//3
f 1//3 69//3 63//3
f 1//3 63//3 48//3
f 1//3 48//3 38//3
f 1//3 38//3 20//3
f 1//3 20//3 10//3
f 1//3 10//3 5//3
f 1//4 5//4 2//4
f 2//5 5//5 6//5
f 2//6 6//6 11//6
f 2//6 11//6 22//6
f 2//6 22//6 39//6
f 2//6 39//6 52//6
f 2//6 52//6 65//6
f 2//6 65//6 70//6
f 2//6 70//6 67//6
f 2//6 67//6 66//6
f 2//6 66//6 54//6
f 2//6 54//6 41//6
f 2//6 41//6 24//6
f 2//6 24//6 13//6
f 2//6 13//6 7//6
f 2//6 7//6 3//6
f 4//7 8//7 9//7
f 5//8 10//8 19//8
f 5//8 19//8 35//8
f 5//8 35//8 34//8
f 5//8 34//8 21//8
f 5//8 21//8 11//8
f 5//8 11//8 6//8
f 7//9 13//9 14//9
f 7//9 14//9 12//9
f 8//10 12//10 14//10
f 8//11 14//11 15//11
f 8//12 15//12 9//12
f 10//13 16//13 17//13
f 10//14 17//14 18//14
f 10//15 18//15 19//15
f 10//16 20//16 16//16
f 11//17 21//17 22//17
f 13//18 23//18 14//18
f 13//19 24//19 23//19
f 14//20 25//20 26//20
f 14//21 26//21 15//21
f 14//22 23//22 27//22
f 14//23 27//23 25//23
f 15//24 26//24 28//24
f 15//25 28//25 29//25
f 16//26 20//26 30//26
f 16//27 30//27 17//27
f 17//28 30//28 31//28
f 17//29 31//29 32//29
f 17//29 32//29 33//29
f 17//30 33//30 18//30
f 18//31 22//31 21//31
f 18//32 21//32 34//32
f 18//33 34//33 35//33
f 18//34 35//34 19//34
f 18//30 33//30 36//30
f 18//35 36//35 37//35
f 18//36 37//36 22//36
f 20//37 38//37 30//37
f 22//38 37//38 39//38
f 23//39 24//39 40//39
f 23//40 40//40 27//40
f 24//41 41//41 42//41
f 24//42 42//42 40//42
f 25//43 27//43 26//43
f 26//44 27//44 43//44
f 26//45 43//45 28//45
f 27//46 40//46 43//46
f 28//24 43//24 44//24
f 28//24 44//24 45//24
f 28//24 45//24 46//24
f 28//24 46//24 47//24
f 28//25 47//25 29//25
f 30//47 38//47 31//47
f 31//48 38//48 48//48
f 31//49 48//49 32//49
f 32//50 48//50 36//50
f 32//29 36//29 33//29
f 36//51 48//51 49//51
f 36//52 49//52 37//52
f 37//53 49//53 50//53
f 37//54 50//54 51//54
f 37//55 51//55 52//55
f 37//56 52//56 39//56
f 40//57 42//57 53//57
f 40//46 53//46 45//46
f 40//46 45//46 43//46
f 41//58 54//58 55//58
f 41//59 55//59 42//59
f 42//60 55//60 56//60
f 42//61 56//61 57//61
f 42//62 57//62 53//62
f 43//24 45//24 44//24
f 45//63 53//63 57//63
f 45//64 57//64 58//64
f 45//65 58//65 59//65
f 45//66 59//66 56//66
f 45//67 56//67 60//67
f 45//68 60//68 61//68
f 45//69 61//69 62//69
f 45//70 62//70 47//70
f 45//70 47//70 46//70
f 48//71 63//71 49//71
f 49//72 63//72 64//72
f 49//73 64//73 50//73
f 50//74 64//74 51//74
f 51//75 64//75 65//75
f 51//76 65//76 52//76
f 54//77 66//77 55//77
f 55//78 66//78 67//78
f 55//79 67//79 64//79
f 55//80 64//80 68//80
f 55//81 68//81 56//81
f 56//82 59//82 57//82
f 56//83 68//83 69//83
f 56//84 69//84 60//84
f 57//85 59//85 58//85
f 63//86 69//86 68//86
f 63//87 68//87 64//87
f 64//88 67//88 70//88
f 64//89 70//89 65//89
