# Blender 4.0.0
# www.blender.org
o Mug_3_mug_3_0_collision_7
v -0.000130 0.014566 -0.041025
v -0.000130 0.014426 -0.041024
v -0.000271 0.014566 -0.041016
v 0.000962 0.014566 -0.040972
v -0.000130 0.013333 -0.041004
v -0.001224 0.014566 -0.040944
v 0.002075 0.014566 -0.040832
v 0.000962 0.013333 -0.040949
v 0.000807 0.009118 -0.040858
v -0.000130 0.011535 -0.040962
v -0.000517 0.011535 -0.040931
v -0.001224 0.012241 -0.040890
v -0.009962 0.014566 -0.039793
v 0.002075 0.014566 -0.035730
v 0.002053 0.014426 -0.040832
v 0.002075 0.011129 -0.040752
v 0.000962 0.011535 -0.040907
v -0.000130 0.009118 -0.040905
v 0.000962 0.009118 -0.040850
v -0.001224 0.009118 -0.040817
v -0.008874 0.009118 -0.039809
v -0.009255 0.011535 -0.039815
v -0.009962 0.011148 -0.039713
v -0.010847 0.009118 -0.039464
v -0.010879 0.010056 -0.039475
v -0.010925 0.011535 -0.039493
v -0.010982 0.013333 -0.039514
v -0.011012 0.014426 -0.039527
v -0.011032 0.014566 -0.039522
v 0.002075 0.014445 -0.035603
v 0.002071 0.014566 -0.035606
v 0.002075 0.010036 -0.040726
v 0.001899 0.009118 -0.040727
v -0.009962 0.009118 -0.039664
v -0.009962 0.010056 -0.039687
v -0.013241 0.009118 -0.038488
v -0.013241 0.010056 -0.038513
v -0.013241 0.013333 -0.038596
v -0.013241 0.014566 -0.038625
v 0.002075 0.009118 -0.031572
v -0.020141 0.014566 -0.029385
v -0.020141 0.009118 -0.024391
v 0.002053 0.009118 -0.040706
v -0.018632 0.009118 -0.036254
v -0.013841 0.010056 -0.038265
v -0.013978 0.014566 -0.038321
v -0.019343 0.014426 -0.036096
v -0.020141 0.014566 -0.035713
v -0.020141 0.009118 -0.035533
v -0.018665 0.010056 -0.036265
v -0.019691 0.011197 -0.035848
v -0.019735 0.011535 -0.035844
v -0.019824 0.012241 -0.035832
v -0.019189 0.011535 -0.036086
v -0.019348 0.014566 -0.036096
v -0.019856 0.013333 -0.035844
v -0.019893 0.014566 -0.035853
v -0.020141 0.013333 -0.035687
v -0.020141 0.012241 -0.035660
vn -0.0689 -0.0116 -0.9976
vn -0.0000 1.0000 0.0022
vn -0.0000 1.0000 -0.0000
vn 0.0492 -0.0116 -0.9987
vn -0.0750 -0.0178 -0.9970
vn -0.0750 -0.0177 -0.9970
vn 0.0500 -0.0179 -0.9986
vn 0.1248 -0.0183 -0.9920
vn 0.0507 -0.0185 -0.9985
vn 0.0504 -0.0235 -0.9985
vn -0.0796 -0.0235 -0.9965
vn -0.0806 -0.0233 -0.9965
vn -0.0808 -0.0230 -0.9965
vn 0.0506 -0.0235 -0.9984
vn -0.1306 -0.0229 -0.9912
vn -1.0000 -0.0000 -0.0000
vn -1.0000 0.0040 0.0024
vn 0.0875 -0.0233 -0.9959
vn 0.1482 -0.0229 -0.9887
vn 0.1260 -0.0195 -0.9918
vn 0.1296 -0.0231 -0.9913
vn 0.1292 -0.0233 -0.9913
vn 0.0519 -0.0235 -0.9984
vn 0.0503 -0.0235 -0.9985
vn 0.0527 -0.0235 -0.9983
vn -0.0000 1.0000 0.0002
vn -0.0000 1.0000 -0.0002
vn -0.0797 -0.0235 -0.9965
vn -0.0801 -0.0236 -0.9965
vn -0.0807 -0.0234 -0.9965
vn -0.1306 -0.0233 -0.9912
vn -0.1306 -0.0232 -0.9912
vn -0.1306 -0.0230 -0.9912
vn -0.1312 -0.0231 -0.9911
vn -0.2222 -0.0228 -0.9747
vn -0.2375 -0.0201 -0.9712
vn -0.2413 -0.0192 -0.9703
vn -0.2419 -0.0190 -0.9701
vn -0.2427 -0.0183 -0.9699
vn -0.2450 -0.0005 -0.9695
vn 0.9987 0.0368 0.0351
vn 0.1324 -0.0236 -0.9909
vn 0.1292 -0.0234 -0.9913
vn -0.1321 -0.0241 -0.9909
vn -0.1317 -0.0236 -0.9910
vn -0.1311 -0.0233 -0.9911
vn -0.2211 -0.0233 -0.9750
vn -0.2207 -0.0237 -0.9751
vn -0.3772 -0.0244 -0.9258
vn -0.3773 -0.0241 -0.9258
vn -0.3773 -0.0235 -0.9258
vn -0.3766 -0.0229 -0.9261
vn -0.3765 -0.0227 -0.9261
vn -0.3765 -0.0220 -0.9262
vn -0.3763 -0.0215 -0.9263
vn -0.3762 -0.0202 -0.9263
vn 0.9981 0.0372 0.0492
vn 0.2022 0.6618 0.7219
vn 0.2514 0.5760 0.7778
vn 0.1358 -0.0243 -0.9904
vn -0.3827 -0.0253 -0.9235
vn -0.3811 -0.0241 -0.9242
vn -0.3811 -0.0234 -0.9242
vn -0.3817 -0.0220 -0.9240
vn -0.3825 -0.0231 -0.9237
vn -0.3824 -0.0225 -0.9237
vn -0.3829 -0.0245 -0.9235
vn -0.4309 -0.0437 -0.9014
vn -0.4285 -0.0422 -0.9026
vn -0.4218 -0.0386 -0.9058
vn -0.3980 -0.0281 -0.9169
vn -0.3848 -0.0246 -0.9227
vn -0.3829 -0.0238 -0.9235
vn -0.3828 -0.0236 -0.9235
vn -0.3827 -0.0118 -0.9238
vn -0.3944 -0.0242 -0.9186
vn -0.4038 -0.0216 -0.9146
vn -0.4076 -0.0195 -0.9130
vn -0.4062 -0.0125 -0.9137
vn -0.4918 -0.0184 -0.8705
vn -0.4774 -0.0357 -0.8780
vn -0.4409 -0.0412 -0.8966
vn -0.4335 -0.0429 -0.9001
vn -0.4775 -0.0234 -0.8783
vn -0.4810 -0.0222 -0.8765
vn -0.4810 -0.0214 -0.8765
vn -0.0742 -0.0171 -0.9971
vn 0.0492 -0.0171 -0.9986
vn -0.0000 1.0000 0.0014
vn 1.0000 -0.0000 -0.0000
vn -0.3857 -0.0218 -0.9224
vn -0.3762 -0.0214 -0.9263
vn 0.9997 -0.0237 -0.0024
vn -0.3831 -0.0230 -0.9234
vn -0.4246 -0.0399 -0.9045
vn -0.3829 -0.0237 -0.9235
vn -0.3824 -0.0230 -0.9237
vn -0.3822 -0.0235 -0.9238
vn -0.4378 -0.0417 -0.8981
s 0
f 1//1 2//1 3//1
f 1//2 3//2 6//2
f 1//3 6//3 13//3
f 1//3 13//3 29//3
f 1//3 29//3 39//3
f 1//3 39//3 46//3
f 1//3 46//3 55//3
f 1//3 55//3 57//3
f 1//3 57//3 48//3
f 1//3 48//3 41//3
f 1//3 41//3 31//3
f 1//3 31//3 14//3
f 1//3 14//3 7//3
f 1//3 7//3 4//3
f 1//4 4//4 2//4
f 2//5 5//5 6//5
f 2//6 6//6 3//6
f 2//7 4//7 5//7
f 4//8 7//8 8//8
f 4//9 8//9 5//9
f 5//10 9//10 10//10
f 5//11 10//11 11//11
f 5//12 11//12 12//12
f 5//13 12//13 6//13
f 5//14 8//14 9//14
f 6//15 12//15 13//15
f 7//16 30//16 14//16
f 7//16 40//16 30//16
f 7//17 43//17 40//17
f 7//18 32//18 43//18
f 7//16 16//16 32//16
f 7//19 16//19 15//19
f 7//20 15//20 8//20
f 8//21 15//21 16//21
f 8//22 16//22 17//22
f 8//23 17//23 9//23
f 9//24 18//24 10//24
f 9//25 17//25 19//25
f 9//26 33//26 19//26
f 9//27 43//27 33//27
f 9//3 40//3 43//3
f 9//3 42//3 40//3
f 9//3 49//3 42//3
f 9//3 44//3 49//3
f 9//3 36//3 44//3
f 9//3 24//3 36//3
f 9//3 34//3 24//3
f 9//3 21//3 34//3
f 9//3 20//3 21//3
f 9//3 18//3 20//3
f 10//28 18//28 11//28
f 11//29 18//29 20//29
f 11//30 20//30 12//30
f 12//31 20//31 21//31
f 12//32 21//32 22//32
f 12//33 22//33 13//33
f 13//34 22//34 23//34
f 13//35 23//35 24//35
f 13//36 24//36 25//36
f 13//37 25//37 26//37
f 13//38 26//38 27//38
f 13//39 27//39 28//39
f 13//40 28//40 29//40
f 14//41 31//41 30//41
f 16//42 32//42 33//42
f 16//43 33//43 17//43
f 17//43 33//43 19//43
f 21//44 34//44 35//44
f 21//45 35//45 23//45
f 21//46 23//46 22//46
f 23//47 35//47 24//47
f 24//48 35//48 34//48
f 24//49 36//49 25//49
f 25//50 36//50 37//50
f 25//51 37//51 38//51
f 25//52 38//52 26//52
f 26//53 38//53 27//53
f 27//54 38//54 39//54
f 27//55 39//55 28//55
f 28//56 39//56 29//56
f 30//57 31//57 40//57
f 31//58 41//58 42//58
f 31//59 42//59 40//59
f 32//60 43//60 33//60
f 36//61 44//61 45//61
f 36//62 45//62 37//62
f 37//63 45//63 38//63
f 38//64 46//64 39//64
f 38//65 45//65 47//65
f 38//66 47//66 46//66
f 41//16 48//16 58//16
f 41//16 58//16 59//16
f 41//16 59//16 49//16
f 41//16 49//16 42//16
f 44//67 50//67 45//67
f 44//68 49//68 51//68
f 44//69 51//69 52//69
f 44//70 52//70 53//70
f 44//71 53//71 54//71
f 44//72 54//72 50//72
f 45//73 50//73 54//73
f 45//74 54//74 47//74
f 46//75 47//75 55//75
f 47//76 54//76 53//76
f 47//77 53//77 56//77
f 47//78 56//78 57//78
f 47//79 57//79 55//79
f 48//80 57//80 58//80
f 49//81 59//81 53//81
f 49//82 53//82 52//82
f 49//83 52//83 51//83
f 53//84 59//84 56//84
f 56//85 59//85 58//85
f 56//86 58//86 57//86
f 5//87 6//87 1//87
f 6//3 13//3 29//3
f 6//3 29//3 39//3
f 6//3 39//3 46//3
f 6//3 46//3 55//3
f 6//3 55//3 57//3
f 6//3 57//3 48//3
f 6//3 48//3 41//3
f 6//3 41//3 31//3
f 6//3 31//3 14//3
f 6//3 14//3 7//3
f 6//3 7//3 4//3
f 6//3 4//3 1//3
f 4//88 5//88 1//88
f 19//89 43//89 33//89
f 19//3 40//3 43//3
f 19//3 42//3 40//3
f 19//3 49//3 42//3
f 19//3 44//3 49//3
f 19//3 36//3 44//3
f 19//3 24//3 36//3
f 19//3 34//3 24//3
f 19//3 21//3 34//3
f 19//3 20//3 21//3
f 19//3 18//3 20//3
f 19//3 9//3 18//3
f 14//90 30//90 40//90
f 14//90 40//90 32//90
f 14//90 32//90 16//90
f 14//90 16//90 7//90
f 16//43 19//43 17//43
f 33//43 19//43 16//43
f 29//91 28//91 27//91
f 39//92 29//92 27//92
f 40//93 43//93 32//93
f 45//94 46//94 38//94
f 51//95 53//95 44//95
f 50//96 47//96 45//96
f 47//97 46//97 45//97
f 48//16 58//16 59//16
f 48//16 59//16 49//16
f 48//16 49//16 42//16
f 48//16 42//16 41//16
f 54//98 47//98 50//98
f 53//99 51//99 49//99
