# Blender 4.0.0
# www.blender.org
o decimated_mesh
v 0.019681 0.019252 -0.036037
v 0.019681 0.019252 -0.029903
v 0.021370 0.019252 -0.035109
v 0.029142 0.019252 -0.020674
v 0.035591 0.019252 -0.020683
v 0.019681 0.101832 -0.040109
v 0.022158 0.102500 -0.039055
v 0.019703 0.103457 -0.039485
v 0.023310 0.103478 -0.037711
v 0.028752 0.019252 -0.029428
v 0.039672 0.101832 -0.020672
v 0.031091 0.087186 -0.020672
v 0.031675 0.103470 -0.031179
v 0.031795 0.102346 -0.031742
v 0.038617 0.102408 -0.022871
v 0.038695 0.103461 -0.021925
v 0.039041 0.103374 -0.020680
v 0.019682 0.102778 -0.034387
v 0.019681 0.086914 -0.031832
v 0.034174 0.103445 -0.020672
v 0.019681 0.103473 -0.034983
vn -0.0000 1.0000 -0.0000
vn 1.0000 -0.0000 -0.0000
vn 0.2891 0.3396 -0.8950
vn 0.0146 0.9978 0.0654
vn 0.9022 0.3683 -0.2244
vn 0.5697 0.3507 -0.7433
vn 0.8956 0.2586 -0.3618
vn -0.6961 0.1141 0.7088
vn 0.3555 0.5842 -0.7296
vn 0.6994 -0.0200 -0.7145
vn -0.0001 -0.0000 1.0000
vn 0.4014 -0.0451 -0.9148
vn -0.9999 0.0152 -0.0049
vn -0.0027 1.0000 0.0030
vn -0.0003 1.0000 0.0016
vn -0.0041 1.0000 -0.0035
vn -0.0006 1.0000 0.0025
vn 0.5594 0.4178 -0.7159
vn 0.7920 -0.0448 -0.6088
vn 0.7869 -0.0459 -0.6154
vn 0.7372 0.3636 -0.5695
vn 0.7174 0.4354 -0.5438
vn 0.8962 -0.0442 -0.4415
vn -0.5991 0.5214 0.6077
vn -0.6847 0.1299 0.7172
vn 0.6093 -0.0444 -0.7917
vn 0.6035 -0.0435 -0.7962
vn 0.6982 -0.0204 -0.7156
vn 0.4812 -0.0460 -0.8754
vn -0.0014 0.0001 -1.0000
vn -0.0002 0.0001 -1.0000
vn 0.0016 0.0058 1.0000
vn -0.0014 0.0002 -1.0000
vn 0.6982 -0.0200 -0.7156
vn 0.6994 -0.0204 -0.7145
vn -0.0000 -0.0000 -1.0000
vn 1.0000 -0.0000 -0.0001
vn -0.0023 1.0000 0.0043
vn -0.0001 1.0000 0.0011
s 0
f 4//1 10//1 2//1
f 18//2 6//2 21//2
f 7//3 6//3 8//3
f 20//4 17//4 16//4
f 16//5 17//5 11//5
f 14//6 7//6 9//6
f 15//7 16//7 11//7
f 12//8 18//8 19//8
f 9//9 7//9 8//9
f 19//10 12//10 4//10
f 20//11 12//11 11//11
f 6//12 7//12 1//12
f 1//1 2//1 3//1
f 3//1 2//1 10//1
f 10//1 4//1 5//1
f 8//13 6//13 21//13
f 6//2 19//2 1//2
f 1//2 19//2 2//2
f 19//2 6//2 18//2
f 16//14 13//14 20//14
f 13//15 9//15 21//15
f 9//16 8//16 21//16
f 21//17 20//17 13//17
f 9//18 13//18 14//18
f 15//19 5//19 14//19
f 5//20 10//20 14//20
f 15//21 14//21 13//21
f 13//22 16//22 15//22
f 15//23 11//23 5//23
f 20//24 21//24 18//24
f 12//25 20//25 18//25
f 10//26 3//26 14//26
f 3//27 7//27 14//27
f 19//28 4//28 2//28
f 3//29 1//29 7//29
f 4//30 12//30 5//30
f 5//31 12//31 11//31
f 11//32 17//32 20//32
f 5//1 1//1 2//1
f 2//2 21//2 19//2
f 2//2 6//2 21//2
f 2//2 1//2 6//2
f 3//1 1//1 5//1
f 3//1 5//1 10//1
f 11//33 5//33 4//33
f 4//1 5//1 2//1
f 4//34 2//34 12//34
f 12//35 2//35 19//35
f 12//36 11//36 4//36
f 18//37 19//37 21//37
f 20//38 16//38 21//38
f 16//39 13//39 21//39
