# Blender 4.0.0
# www.blender.org
o decimated_mesh
v 0.045180 0.036269 -0.006313
v 0.045180 0.034116 -0.005679
v 0.045180 0.031644 -0.004238
v 0.045192 0.030906 -0.003423
v 0.045180 0.029598 0.000009
v 0.045180 0.040100 -0.006402
v 0.045179 0.050361 -0.000005
v 0.045180 0.047609 -0.004088
v 0.045180 0.042633 -0.006067
v 0.059963 0.082232 -0.006380
v 0.061056 0.082232 -0.006388
v 0.048787 0.042169 -0.006209
v 0.049746 0.039612 -0.004356
v 0.050682 0.040112 -0.003279
v 0.050712 0.038927 0.000009
v 0.055886 0.082227 0.000008
v 0.056464 0.082232 -0.002731
v 0.056966 0.082232 -0.003953
v 0.058583 0.082232 -0.005778
v 0.062149 0.082232 -0.006101
v 0.060989 0.078402 -0.006352
v 0.049569 0.042098 -0.005744
v 0.050809 0.042130 -0.004467
v 0.045182 0.030898 0.003440
v 0.050682 0.040106 0.003279
v 0.062853 0.082232 -0.005638
v 0.056149 0.055380 -0.003300
v 0.056149 0.055380 0.003298
v 0.050278 0.040569 0.004314
v 0.065057 0.082230 -0.000038
v 0.056561 0.082221 0.003092
v 0.057145 0.082222 0.004270
v 0.058677 0.082222 0.005830
v 0.059963 0.082222 0.006378
v 0.061058 0.082222 0.006389
v 0.045178 0.047892 0.003928
v 0.064048 0.078535 -0.003345
v 0.045177 0.031875 0.004402
v 0.064049 0.078565 0.003350
v 0.062473 0.082221 0.005931
v 0.064078 0.082222 0.004111
v 0.064586 0.082222 0.002731
v 0.045178 0.042908 0.006065
v 0.045178 0.040577 0.006404
v 0.064081 0.082232 -0.004160
v 0.062424 0.079381 -0.005787
v 0.063701 0.079120 -0.004284
v 0.063678 0.078890 0.004193
v 0.049496 0.041969 0.005749
v 0.045178 0.034589 0.005849
v 0.064915 0.080251 0.000000
v 0.060949 0.078091 0.006329
v 0.062150 0.079980 0.005998
v 0.048515 0.042246 0.006342
v 0.064571 0.078287 -0.000613
v 0.064558 0.078215 0.000592
v 0.062572 0.079286 0.005649
v 0.045178 0.036462 0.006338
v 0.064604 0.082232 -0.002731
vn -0.0000 1.0000 0.0001
vn 0.4735 -0.1490 0.8681
vn 0.7529 -0.0791 -0.6534
vn 0.6328 -0.3643 0.6833
vn 0.9431 -0.3322 -0.0097
vn 0.0127 -0.0039 -0.9999
vn 1.0000 -0.0002 0.0002
vn 0.7832 -0.2721 0.5591
vn 0.4919 -0.1690 -0.8541
vn 0.9293 -0.3129 -0.1963
vn 0.7833 -0.0790 0.6166
vn 0.0212 -0.0070 0.9998
vn 0.9273 -0.3104 0.2094
vn 0.3745 -0.1335 -0.9176
vn 0.9742 -0.1147 0.1943
vn 0.8446 -0.5011 0.1884
vn 0.9359 -0.0837 -0.3422
vn 0.8448 -0.5010 -0.1880
vn 0.7565 -0.2577 -0.6011
vn 0.7249 -0.2493 0.6422
vn 0.5484 -0.0389 -0.8353
vn 0.9368 -0.3318 0.1111
vn 0.9261 -0.3163 -0.2058
vn 0.2971 -0.0217 0.9546
vn 0.4016 -0.0617 -0.9137
vn 0.9355 -0.0792 0.3444
vn 0.3959 -0.1406 0.9075
vn 0.8034 -0.2774 -0.5268
vn 0.9744 -0.1097 -0.1963
vn 0.8566 -0.2944 -0.4237
vn -0.0004 1.0000 0.0020
vn -0.0001 1.0000 -0.0007
vn -0.0000 1.0000 -0.0000
vn 0.0001 1.0000 -0.0006
vn 0.0001 1.0000 0.0004
vn -0.0000 1.0000 -0.0001
vn -0.0000 1.0000 0.0031
vn -0.0000 1.0000 0.0007
vn -0.0004 1.0000 0.0018
vn 0.4758 -0.1647 0.8640
vn 0.4831 -0.1670 0.8595
vn 0.7674 -0.0683 -0.6376
vn 0.6505 -0.3825 -0.6561
vn 0.6218 -0.3477 -0.7018
vn 0.6277 -0.3580 0.6913
vn 0.8817 -0.3016 0.3627
vn -0.0080 -0.0095 -0.9999
vn 0.0592 -0.0231 -0.9980
vn 0.4472 -0.2529 -0.8579
vn 0.4726 -0.2741 -0.8375
vn 1.0000 -0.0000 0.0002
vn 1.0000 0.0001 0.0001
vn 1.0000 -0.0004 0.0002
vn 1.0000 0.0001 0.0002
vn 1.0000 -0.0003 0.0003
vn 1.0000 -0.0056 0.0014
vn 0.9998 0.0185 0.0015
vn 1.0000 -0.0001 0.0002
vn 1.0000 0.0050 0.0001
vn 0.8358 -0.2997 0.4600
vn 0.8321 -0.2846 0.4761
vn 0.9849 -0.1729 0.0003
vn 0.4525 -0.1570 -0.8778
vn 0.9280 -0.3117 -0.2040
vn 0.7520 -0.4406 0.4903
vn 0.7690 -0.4465 0.4575
vn 0.7494 -0.0383 0.6610
vn -0.0092 -0.0142 0.9999
vn 0.0221 -0.0072 0.9997
vn 0.0264 -0.0159 0.9995
vn 0.9296 -0.3124 0.1957
vn 0.3884 -0.1388 -0.9110
vn 0.9836 -0.0673 0.1671
vn 0.9743 -0.1099 0.1967
vn 0.8446 -0.5008 0.1892
vn 0.7353 -0.2551 0.6280
vn 0.7248 -0.2522 0.6411
vn 0.8448 -0.5009 -0.1881
vn 0.7312 -0.2521 0.6339
vn 0.6922 -0.2417 -0.6800
vn 0.8966 -0.0971 0.4321
vn 0.9336 -0.3343 0.1291
vn 0.9252 -0.3157 0.2108
vn 0.9370 -0.3317 -0.1093
vn 0.9335 -0.3345 -0.1289
vn 0.3079 -0.0158 0.9513
vn 0.2547 -0.0138 -0.9669
vn 0.7811 -0.3526 -0.5154
vn 0.0787 -0.0304 -0.9964
vn 0.7831 -0.4551 -0.4238
vn 0.7667 -0.4501 -0.4577
vn 0.5776 -0.0587 0.8142
vn 0.3489 -0.1229 0.9291
vn 0.8285 -0.2836 -0.4830
vn 0.8509 -0.3053 -0.4275
vn 0.9127 -0.0957 -0.3972
vn 0.9743 -0.1141 -0.1940
vn 0.9834 -0.0737 -0.1657
vn 0.4009 -0.2318 0.8863
vn 0.4480 -0.2505 0.8582
vn 0.7170 -0.2467 -0.6520
vn 0.6991 -0.2418 -0.6729
vn 0.6841 -0.3179 -0.6564
vn 1.0000 0.0006 0.0003
vn 0.9999 0.0092 -0.0042
vn 0.7657 -0.4493 0.4602
vn 0.7541 -0.4375 0.4897
vn 1.0000 -0.0005 0.0005
vn 1.0000 0.0001 -0.0009
vn 1.0000 -0.0000 -0.0003
vn 1.0000 -0.0000 -0.0000
vn 1.0000 0.0001 0.0003
vn 1.0000 0.0002 0.0003
vn 0.7674 -0.4466 -0.4600
vn 0.7797 -0.4583 -0.4267
vn 0.9992 0.0360 0.0173
vn 0.8447 -0.5009 0.1884
vn 0.8445 -0.5011 0.1892
vn 0.0226 -0.0082 0.9997
vn -0.0092 0.0039 1.0000
vn 0.9277 -0.3126 -0.2039
vn 0.9296 -0.3123 -0.1958
vn 1.0000 -0.0001 0.0003
vn -0.0080 0.0034 -1.0000
vn 0.0277 -0.0101 -0.9996
vn 0.4403 -0.2539 -0.8612
vn 0.4740 -0.2675 -0.8389
vn 0.0463 -0.0157 0.9988
vn 0.0006 1.0000 0.0009
vn -0.0000 1.0000 0.0020
vn -0.0003 1.0000 0.0015
vn -0.0015 1.0000 0.0016
vn -0.0097 0.9999 0.0040
vn 0.7321 -0.2517 0.6329
vn 0.7248 -0.2500 0.6420
vn -0.0032 1.0000 0.0012
vn -0.0008 1.0000 0.0006
vn -0.0003 1.0000 0.0004
vn -0.0001 1.0000 0.0003
vn -0.0000 1.0000 0.0003
vn 0.0001 1.0000 0.0002
vn 0.0002 1.0000 0.0001
vn 0.4518 -0.1556 -0.8785
vn 0.4917 -0.1705 -0.8539
vn 0.9739 -0.1137 -0.1965
vn 0.9751 -0.1112 -0.1919
vn 0.0161 0.9999 0.0058
s 0
f 18//1 17//1 59//1
f 57//2 53//2 52//2
f 26//3 47//3 46//3
f 50//4 38//4 29//4
f 56//5 15//5 55//5
f 21//6 6//6 10//6
f 1//7 50//7 2//7
f 48//8 29//8 28//8
f 12//9 21//9 22//9
f 7//10 31//10 36//10
f 41//11 57//11 48//11
f 54//12 52//12 34//12
f 7//13 8//13 17//13
f 34//14 44//14 43//14
f 39//15 56//15 51//15
f 15//16 25//16 24//16
f 37//17 45//17 59//17
f 15//18 5//18 4//18
f 36//19 32//19 43//19
f 8//20 19//20 18//20
f 46//21 20//21 26//21
f 28//22 15//22 56//22
f 27//23 37//23 55//23
f 53//24 35//24 52//24
f 21//25 20//25 46//25
f 41//26 39//26 42//26
f 10//27 19//27 9//27
f 23//28 47//28 27//28
f 51//29 55//29 37//29
f 36//30 31//30 32//30
f 16//31 31//31 30//31
f 31//32 32//32 42//32
f 32//33 33//33 41//33
f 33//33 34//33 35//33
f 33//34 35//34 40//34
f 40//35 41//35 33//35
f 41//36 42//36 32//36
f 42//37 30//37 31//37
f 30//38 59//38 17//38
f 59//33 45//33 18//33
f 45//33 26//33 19//33
f 26//33 20//33 11//33
f 19//33 26//33 11//33
f 11//33 10//33 19//33
f 19//33 18//33 45//33
f 17//39 16//39 30//39
f 52//40 54//40 49//40
f 49//41 57//41 52//41
f 26//42 45//42 47//42
f 3//43 2//43 13//43
f 2//44 22//44 13//44
f 49//45 50//45 29//45
f 8//46 18//46 17//46
f 10//47 11//47 21//47
f 21//48 1//48 6//48
f 22//49 2//49 1//49
f 12//50 22//50 1//50
f 9//51 44//51 6//51
f 6//52 44//52 1//52
f 58//53 50//53 1//53
f 2//54 50//54 3//54
f 50//55 38//55 3//55
f 4//56 24//56 5//56
f 4//57 3//57 24//57
f 58//52 1//52 44//52
f 44//54 9//54 43//54
f 43//54 8//54 36//54
f 43//58 9//58 8//58
f 36//51 8//51 7//51
f 3//59 38//59 24//59
f 25//60 28//60 29//60
f 28//61 39//61 48//61
f 51//62 56//62 55//62
f 46//63 22//63 21//63
f 16//64 31//64 7//64
f 25//65 29//65 24//65
f 29//66 38//66 24//66
f 41//67 40//67 57//67
f 52//68 35//68 34//68
f 34//69 44//69 54//69
f 44//70 58//70 54//70
f 7//71 17//71 16//71
f 34//72 43//72 33//72
f 51//73 30//73 42//73
f 42//74 39//74 51//74
f 5//75 15//75 24//75
f 29//76 48//76 57//76
f 57//77 49//77 29//77
f 4//78 14//78 15//78
f 19//79 8//79 9//79
f 33//80 43//80 32//80
f 48//81 39//81 41//81
f 28//82 25//82 15//82
f 39//83 28//83 56//83
f 55//84 15//84 27//84
f 15//85 14//85 27//85
f 53//86 40//86 35//86
f 21//87 11//87 20//87
f 13//88 23//88 14//88
f 1//89 21//89 12//89
f 3//90 13//90 4//90
f 13//91 14//91 4//91
f 57//92 40//92 53//92
f 10//93 9//93 6//93
f 37//94 27//94 47//94
f 27//95 14//95 23//95
f 45//96 37//96 47//96
f 37//97 59//97 51//97
f 59//98 30//98 51//98
f 58//99 50//99 54//99
f 50//100 49//100 54//100
f 47//101 23//101 46//101
f 22//102 46//102 23//102
f 13//103 22//103 23//103
f 3//104 38//104 5//104
f 5//105 38//105 24//105
f 24//106 25//106 38//106
f 25//107 29//107 38//107
f 50//108 38//108 58//108
f 58//109 38//109 44//109
f 44//110 38//110 43//110
f 43//111 38//111 36//111
f 36//51 38//51 7//51
f 7//51 38//51 6//51
f 6//112 38//112 1//112
f 1//7 38//7 2//7
f 2//113 38//113 3//113
f 13//114 14//114 3//114
f 14//115 4//115 3//115
f 4//116 3//116 5//116
f 15//117 25//117 5//117
f 25//118 24//118 5//118
f 54//119 35//119 44//119
f 35//120 34//120 44//120
f 31//121 36//121 16//121
f 16//122 36//122 7//122
f 8//123 7//123 9//123
f 9//51 7//51 6//51
f 10//124 11//124 6//124
f 11//125 21//125 6//125
f 12//126 2//126 1//126
f 12//127 22//127 2//127
f 52//128 35//128 54//128
f 40//129 41//129 35//129
f 41//33 32//33 35//33
f 32//33 34//33 35//33
f 32//33 33//33 34//33
f 41//130 30//130 32//130
f 30//131 17//131 32//131
f 17//132 16//132 32//132
f 16//133 31//133 32//133
f 18//134 8//134 9//134
f 18//135 9//135 19//135
f 30//136 59//136 45//136
f 30//137 45//137 26//137
f 30//138 26//138 20//138
f 30//139 20//139 11//139
f 30//140 11//140 10//140
f 30//141 10//141 19//141
f 30//142 19//142 18//142
f 30//142 18//142 17//142
f 46//143 12//143 21//143
f 46//144 22//144 12//144
f 37//145 59//145 55//145
f 59//146 51//146 55//146
f 42//147 30//147 41//147
