# Blender 4.0.0
# www.blender.org
o decimated_mesh
v 0.019681 0.101832 0.040107
v 0.022153 0.102505 0.039059
v 0.023303 0.103478 0.037713
v 0.019688 0.103454 0.039494
v 0.019724 0.019251 0.036130
v 0.031583 0.103463 0.031276
v 0.019684 0.019252 0.029903
v 0.031842 0.102378 0.031677
v 0.035069 0.019252 0.006979
v 0.028752 0.019252 0.029426
v 0.038757 0.102375 0.022688
v 0.019680 0.103460 0.035020
v 0.040287 0.019252 0.006979
v 0.038719 0.103466 0.021869
v 0.043013 0.103468 0.011242
v 0.039637 0.103467 0.006979
v 0.043204 0.102445 0.012249
v 0.043930 0.102318 0.006978
v 0.043072 0.103481 0.006979
v 0.038613 0.102541 0.006979
v 0.039807 0.019252 0.010422
v 0.019681 0.101832 0.034139
v 0.035469 0.019252 0.020890
vn 0.2878 0.3375 0.8963
vn 1.0000 0.0017 -0.0018
vn -0.6054 0.6693 -0.4307
vn 0.5956 -0.0439 0.8021
vn 0.9466 0.2980 0.1232
vn 0.3544 0.5877 0.7274
vn -0.8203 0.0349 -0.5709
vn 0.5626 0.4014 0.7227
vn 0.9895 -0.0434 0.1382
vn 0.8046 0.5937 0.0129
vn 0.7178 0.4338 0.5446
vn -0.7881 0.2923 -0.5417
vn 0.4000 -0.0439 0.9155
vn 0.8151 0.4766 0.3294
vn 1.0000 0.0004 -0.0065
vn 1.0000 0.0005 -0.0000
vn 1.0000 -0.0044 -0.0000
vn -0.0000 1.0000 -0.0000
vn -0.0000 1.0000 0.0001
vn 0.8735 0.3113 0.3742
vn -0.0060 1.0000 0.0015
vn -0.0016 1.0000 -0.0044
vn -0.0002 1.0000 0.0001
vn -0.0003 1.0000 0.0001
vn -0.0040 1.0000 0.0030
vn 0.6050 -0.0456 0.7949
vn -0.0000 -0.0000 -1.0000
vn -0.0002 -0.0000 -1.0000
vn -0.0002 0.0003 -1.0000
vn -0.0000 0.0010 -1.0000
vn 0.7851 -0.0459 0.6177
vn 0.7918 -0.0445 0.6091
vn 0.9192 -0.0448 0.3913
vn 0.9228 -0.0461 0.3824
vn -0.8300 0.0285 -0.5570
vn 0.5700 0.3528 0.7420
vn 0.9896 -0.0434 0.1373
vn 0.7323 0.3829 0.5632
vn 1.0000 -0.0000 -0.0000
vn 1.0000 0.0008 -0.0065
vn 1.0000 -0.0050 -0.0018
vn 1.0000 0.0007 -0.0000
vn 0.0001 1.0000 0.0001
vn -0.0001 1.0000 -0.0000
vn -0.0001 1.0000 -0.0001
vn 0.5956 -0.0456 0.8020
vn 0.6051 -0.0440 0.7949
vn -0.0033 1.0000 -0.0021
vn -0.0040 1.0000 -0.0026
vn 0.0026 1.0000 0.0018
vn 0.0048 1.0000 0.0039
vn 0.0073 1.0000 0.0032
s 0
f 2//1 4//1 1//1
f 22//2 12//2 4//2
f 16//3 20//3 12//3
f 8//4 5//4 10//4
f 18//5 15//5 17//5
f 2//6 3//6 4//6
f 9//7 22//7 20//7
f 3//8 8//8 6//8
f 18//9 21//9 13//9
f 19//10 15//10 18//10
f 14//11 6//11 11//11
f 20//12 22//12 12//12
f 2//13 1//13 5//13
f 15//14 14//14 17//14
f 22//15 5//15 7//15
f 5//16 22//16 1//16
f 1//17 22//17 4//17
f 21//18 9//18 23//18
f 23//18 7//18 10//18
f 9//18 7//18 23//18
f 10//19 7//19 5//19
f 9//18 21//18 13//18
f 17//20 14//20 11//20
f 4//21 3//21 12//21
f 3//22 6//22 12//22
f 6//23 14//23 12//23
f 14//24 15//24 16//24
f 15//25 19//25 16//25
f 16//23 12//23 14//23
f 8//26 2//26 5//26
f 13//27 9//27 18//27
f 9//28 20//28 18//28
f 20//29 16//29 18//29
f 16//30 19//30 18//30
f 10//31 23//31 8//31
f 23//32 11//32 8//32
f 11//33 23//33 17//33
f 23//34 21//34 17//34
f 9//35 7//35 22//35
f 2//36 8//36 3//36
f 18//37 17//37 21//37
f 8//38 11//38 6//38
f 22//39 1//39 7//39
f 7//40 1//40 5//40
f 4//41 1//41 12//41
f 12//42 1//42 22//42
f 9//43 7//43 5//43
f 9//18 5//18 13//18
f 13//18 5//18 21//18
f 21//44 5//44 23//44
f 23//45 5//45 10//45
f 10//46 2//46 5//46
f 10//47 8//47 2//47
f 3//48 19//48 12//48
f 19//49 16//49 12//49
f 18//37 17//37 13//37
f 17//9 21//9 13//9
f 14//50 19//50 3//50
f 6//51 14//51 3//51
f 14//52 15//52 19//52
