# Blender 4.0.0
# www.blender.org
o decimated_mesh
v -0.038769 0.103450 0.010112
v -0.034404 0.103482 -0.020882
v -0.044491 0.103467 -0.000018
v -0.043099 0.103454 0.010105
v -0.033450 0.102617 -0.020882
v -0.042906 0.103470 -0.011281
v -0.043618 0.102626 0.010113
v -0.039006 0.103453 -0.020886
v -0.043325 0.102487 -0.011875
v -0.031004 0.087588 -0.020882
v -0.039608 0.102299 -0.020871
v -0.044947 0.102419 -0.000110
v -0.036202 0.087634 0.010111
v -0.033191 0.010344 0.010111
v -0.040169 0.010343 -0.006341
v -0.040602 0.010344 0.002730
v -0.039535 0.010344 0.010111
v -0.033898 0.010343 -0.006341
v -0.028827 0.014575 -0.020882
v -0.040602 0.010344 -0.002731
v -0.039354 0.014575 -0.011471
v -0.035360 0.014584 -0.020871
vn -0.0015 0.0104 0.9999
vn -0.6688 -0.7374 -0.0950
vn -0.0000 1.0000 -0.0000
vn 0.0019 0.9600 0.2800
vn -0.9138 0.3860 0.1262
vn -0.8854 0.4492 -0.1195
vn -0.9858 -0.0294 -0.1653
vn -0.0017 -0.0018 -1.0000
vn -0.8822 -0.2847 -0.3751
vn -0.9860 -0.0419 -0.1612
vn -0.9739 -0.1581 -0.1629
vn -0.5961 0.8025 0.0256
vn -0.9989 -0.0471 -0.0000
vn 0.0002 -0.0000 1.0000
vn -0.0000 -0.0000 1.0000
vn -0.0000 -1.0000 -0.0000
vn -0.0000 0.9599 0.2802
vn -0.9906 -0.0427 0.1296
vn -0.9888 -0.0438 0.1430
vn -0.7783 0.5325 -0.3327
vn -0.8357 0.4313 -0.3401
vn -0.8426 0.5294 0.0988
vn -0.0002 1.0000 0.0010
vn 0.0064 -1.0000 0.0044
vn 0.0019 1.0000 0.0006
vn 0.0011 1.0000 0.0011
vn -0.9055 0.4048 -0.1273
vn -0.9888 -0.0385 -0.1445
vn -0.0017 -0.0003 -1.0000
vn -0.0017 -0.0001 -1.0000
vn -0.0014 -0.0001 -1.0000
vn 0.0011 -0.0139 -0.9999
vn -0.9896 -0.0453 -0.1367
vn -0.9918 0.0470 -0.1189
vn -0.9738 -0.1585 -0.1631
vn -0.9195 -0.0445 -0.3907
vn -0.9237 -0.0435 -0.3807
vn -0.8409 0.5285 0.1163
vn -0.9150 0.3879 0.1110
vn 0.0003 -0.0000 1.0000
vn 0.0009 1.0000 0.0012
vn -0.9739 -0.1581 -0.1631
vn -0.9738 -0.1585 -0.1629
vn -0.0012 1.0000 0.0002
vn -0.8837 0.4513 -0.1242
vn -0.9062 0.4047 -0.1226
vn -0.9897 -0.0421 -0.1367
vn -0.9919 -0.0434 -0.1190
vn -0.9892 -0.0295 -0.1433
vn -0.9855 -0.0384 -0.1652
vn 0.0010 0.0011 -1.0000
vn 0.0006 -0.0000 -1.0000
vn 0.0008 0.0001 -1.0000
vn -0.7863 0.5284 -0.3202
vn -0.8316 0.4290 -0.3526
vn -0.9801 -0.0452 -0.1931
vn 0.0019 0.9598 0.2808
vn -0.0000 0.9602 0.2794
vn -0.0017 -0.0002 -1.0000
vn -0.0234 -0.0011 -0.9997
s 0
f 1//1 4//1 7//1
f 1//2 2//2 5//2
f 16//3 18//3 20//3
f 18//4 19//4 22//4
f 4//5 3//5 12//5
f 12//6 6//6 9//6
f 13//7 10//7 19//7
f 11//8 2//8 5//8
f 15//9 21//9 22//9
f 20//10 12//10 21//10
f 13//11 1//11 5//11
f 14//12 19//12 18//12
f 16//13 12//13 20//13
f 7//14 17//14 13//14
f 17//15 14//15 13//15
f 13//14 1//14 7//14
f 20//16 15//16 18//16
f 18//3 16//3 14//3
f 14//3 16//3 17//3
f 18//17 22//17 15//17
f 12//18 16//18 7//18
f 16//19 17//19 7//19
f 11//20 9//20 6//20
f 6//21 8//21 11//21
f 12//22 7//22 4//22
f 1//23 2//23 6//23
f 2//24 6//24 8//24
f 6//25 3//25 1//25
f 3//26 4//26 1//26
f 12//27 3//27 6//27
f 13//28 19//28 14//28
f 5//29 10//29 11//29
f 10//30 19//30 22//30
f 22//31 11//31 10//31
f 11//32 8//32 2//32
f 9//33 21//33 12//33
f 21//34 15//34 20//34
f 13//35 5//35 10//35
f 11//36 22//36 21//36
f 9//37 11//37 21//37
f 4//38 3//38 7//38
f 3//39 12//39 7//39
f 17//15 14//15 7//15
f 14//40 13//40 7//40
f 2//41 3//41 1//41
f 13//42 1//42 10//42
f 10//43 1//43 5//43
f 2//44 6//44 3//44
f 6//45 9//45 3//45
f 9//46 12//46 3//46
f 9//47 15//47 12//47
f 15//48 20//48 12//48
f 20//3 14//3 18//3
f 20//3 17//3 14//3
f 20//3 16//3 17//3
f 19//49 14//49 10//49
f 10//50 14//50 13//50
f 5//51 8//51 2//51
f 19//52 8//52 10//52
f 8//53 5//53 10//53
f 8//54 9//54 6//54
f 8//55 11//55 9//55
f 21//56 15//56 9//56
f 22//57 15//57 19//57
f 19//58 15//58 18//58
f 22//59 8//59 19//59
f 22//60 11//60 8//60
