# Blender 4.0.0
# www.blender.org
o decimated_mesh
v -0.020141 0.009118 -0.024389
v -0.020152 0.009118 -0.035572
v -0.020141 0.014566 -0.029383
v -0.031051 0.009118 -0.006344
v -0.020169 0.014567 -0.035744
v -0.035072 0.014566 -0.006344
v -0.040567 0.009115 -0.006501
v -0.040504 0.014564 -0.006534
v -0.033347 0.014566 -0.024472
v -0.032013 0.009116 -0.025988
vn 1.0000 0.0030 -0.0043
vn 0.7733 0.4284 0.4675
vn -0.0350 0.0065 0.9994
vn 0.7134 0.5265 0.4624
vn -0.9288 0.0085 -0.3706
vn -0.6491 0.0522 -0.7589
vn 1.0000 -0.0008 -0.0009
vn -0.0165 -0.0122 0.9998
vn -0.0001 1.0000 -0.0000
vn -0.0001 1.0000 -0.0001
vn -0.0003 1.0000 -0.0000
vn -0.9099 -0.1116 -0.3995
vn -0.0004 1.0000 -0.0001
vn -0.0000 1.0000 -0.0000
vn -0.6283 -0.0266 -0.7775
vn -0.0003 1.0000 -0.0002
s 0
f 3//1 2//1 5//1
f 1//2 3//2 4//2
f 7//3 6//3 8//3
f 3//4 6//4 4//4
f 7//5 8//5 9//5
f 5//6 10//6 9//6
f 3//7 1//7 2//7
f 7//8 4//8 6//8
f 10//9 1//9 2//9
f 1//10 10//10 4//10
f 7//11 4//11 10//11
f 10//12 7//12 9//12
f 9//13 8//13 6//13
f 6//9 3//9 9//9
f 9//14 3//14 5//14
f 5//15 2//15 10//15
f 4//16 1//16 7//16
f 7//9 1//9 2//9
f 10//9 7//9 2//9
f 5//14 6//14 3//14
f 5//9 9//9 6//9
