# Blender 4.0.0
# www.blender.org
o decimated_mesh
v -0.016514 0.007315 0.037071
v -0.015137 0.101714 0.042012
v -0.015132 0.103432 0.041492
v -0.015129 0.103473 0.037044
v -0.015135 0.102644 0.036328
v -0.015136 0.087623 0.034148
v -0.015135 0.010346 0.031064
v -0.012757 0.102785 0.042817
v 0.002071 0.103468 0.040252
v 0.002071 0.102592 0.039275
v 0.002071 0.089803 0.037700
v 0.002075 0.010346 0.034528
v -0.016059 0.005998 0.037129
v -0.012148 0.101827 0.043184
v -0.009392 0.102451 0.043741
v -0.012149 0.103467 0.042556
v -0.006179 0.103476 0.043709
v 0.002079 0.103405 0.043895
v 0.002068 0.005936 0.040068
v -0.014334 0.005860 0.037110
v -0.010578 0.006021 0.039417
v -0.000133 0.103156 0.044319
v 0.000316 0.102474 0.044955
v 0.002074 0.005981 0.040569
v -0.009871 0.005804 0.039348
v -0.000335 0.005828 0.040660
v 0.002071 0.101827 0.044620
v -0.000010 0.006803 0.040860
vn -0.9955 0.0137 -0.0936
vn -0.1679 -0.1205 0.9784
vn -0.4137 0.2650 0.8710
vn -1.0000 0.0065 0.0007
vn 1.0000 -0.0000 0.0002
vn 0.0574 0.7010 0.7109
vn -0.8763 -0.3184 -0.3617
vn -0.2394 0.2115 0.9476
vn -0.0036 0.8708 0.4916
vn 0.1972 0.0391 -0.9796
vn -0.0711 -0.8055 -0.5883
vn 0.3110 0.3953 0.8643
vn 0.0005 1.0000 -0.0011
vn 0.0508 -0.2171 0.9748
vn -0.2075 -0.8376 0.5054
vn -0.1151 0.3901 0.9135
vn -0.0398 0.6674 0.7436
vn 0.1726 -0.0416 0.9841
vn -0.3664 0.1211 0.9225
vn -0.1073 -0.6023 0.7910
vn -0.1152 0.7773 0.6185
vn -0.1322 -0.0411 0.9904
vn 0.1305 0.6475 -0.7508
vn 0.1219 -0.0429 0.9916
vn 0.0666 -0.9937 0.0897
vn -0.1829 -0.1412 0.9729
vn -0.1613 0.5322 0.8311
vn -0.1852 0.4908 0.8513
vn -1.0000 0.0029 -0.0006
vn -0.9999 0.0145 0.0020
vn 1.0000 -0.0000 -0.0000
vn 1.0000 0.0001 -0.0000
vn 1.0000 -0.0061 -0.0023
vn 1.0000 -0.0000 -0.0001
vn 0.9998 -0.0152 -0.0108
vn -0.2855 0.5538 0.7821
vn -0.3833 -0.0922 0.9190
vn -0.3634 -0.0425 0.9307
vn -0.3753 -0.0430 0.9259
vn -0.0150 0.9998 0.0092
vn -0.0019 1.0000 0.0022
vn 0.0082 0.9998 0.0173
vn -0.0176 0.9938 0.1096
vn -0.0142 0.9985 0.0530
vn -0.0781 -0.9883 0.1313
vn -0.1211 0.7894 0.6018
vn -0.1384 -0.0419 0.9895
vn -0.1167 -0.3229 0.9392
vn -0.1219 -0.1605 0.9795
vn -0.9756 0.0087 -0.2194
vn 0.1237 0.7389 -0.6624
vn -0.9994 0.0129 0.0324
vn -0.9999 0.0144 -0.0005
vn -0.9999 0.0144 -0.0084
vn -0.1675 -0.1416 0.9757
vn -0.1860 -0.1201 0.9752
vn -0.1243 0.7764 0.6178
vn -0.1122 0.7908 0.6017
vn -0.1321 -0.0428 0.9903
vn -0.1888 -0.0417 0.9811
vn 1.0000 0.0026 -0.0022
vn 1.0000 0.0002 -0.0018
vn 1.0000 0.0001 -0.0015
vn 1.0000 -0.0001 0.0001
vn -0.0215 0.9954 0.0937
vn -0.0081 0.9991 0.0408
vn -0.1239 -0.0420 0.9914
vn 0.9999 -0.0004 0.0101
s 0
f 1//1 5//1 6//1
f 11//2 10//2 5//2
f 2//3 8//3 3//3
f 4//4 5//4 2//4
f 12//5 11//5 24//5
f 22//6 23//6 18//6
f 1//7 7//7 13//7
f 8//8 14//8 15//8
f 17//9 22//9 18//9
f 6//10 11//10 12//10
f 7//11 20//11 13//11
f 18//12 23//12 27//12
f 9//13 4//13 17//13
f 26//14 24//14 28//14
f 25//15 21//15 13//15
f 23//16 17//16 15//16
f 17//17 23//17 22//17
f 23//18 24//18 27//18
f 2//19 14//19 8//19
f 21//20 25//20 26//20
f 20//21 19//21 12//21
f 14//22 21//22 28//22
f 4//23 10//23 5//23
f 28//24 24//24 23//24
f 19//25 24//25 26//25
f 11//26 5//26 6//26
f 15//27 17//27 16//27
f 8//28 15//28 16//28
f 3//29 4//29 2//29
f 5//30 1//30 2//30
f 11//31 10//31 27//31
f 10//32 9//32 27//32
f 9//33 18//33 27//33
f 27//34 24//34 11//34
f 19//35 12//35 24//35
f 16//36 3//36 8//36
f 7//10 6//10 12//10
f 13//37 21//37 1//37
f 21//38 14//38 2//38
f 2//39 1//39 21//39
f 4//40 3//40 16//40
f 16//41 17//41 4//41
f 17//42 18//42 9//42
f 26//43 19//43 25//43
f 19//44 20//44 25//44
f 25//45 13//45 20//45
f 20//46 12//46 7//46
f 28//47 23//47 14//47
f 15//48 14//48 23//48
f 21//49 26//49 28//49
f 1//50 6//50 7//50
f 4//51 9//51 10//51
f 2//52 3//52 1//52
f 3//53 4//53 1//53
f 4//54 5//54 1//54
f 10//55 5//55 6//55
f 10//56 6//56 11//56
f 12//57 7//57 19//57
f 19//58 7//58 20//58
f 28//59 15//59 21//59
f 15//60 14//60 21//60
f 18//61 10//61 9//61
f 18//62 11//62 10//62
f 18//63 12//63 11//63
f 18//64 24//64 12//64
f 26//65 19//65 20//65
f 26//66 20//66 25//66
f 23//67 15//67 28//67
f 27//68 24//68 18//68
