# Blender 4.0.0
# www.blender.org
o decimated_mesh
v 0.045177 0.100061 -0.000096
v 0.045178 0.099614 -0.003565
v 0.049010 0.099692 0.000006
v 0.045178 0.098258 -0.005773
v 0.045178 0.097260 -0.006313
v 0.045178 0.096347 -0.006424
v 0.048871 0.099150 -0.003727
v 0.054716 0.097875 -0.003257
v 0.049034 0.099142 0.003651
v 0.045176 0.099615 0.003542
v 0.045176 0.093244 0.001117
v 0.045178 0.095126 -0.005850
v 0.045178 0.094213 -0.004588
v 0.045178 0.093345 -0.001479
v 0.048540 0.097853 -0.005778
v 0.054059 0.095310 -0.006361
v 0.060985 0.087439 -0.006374
v 0.061056 0.082233 -0.006388
v 0.059964 0.082233 -0.006379
v 0.058703 0.082233 -0.005863
v 0.055946 0.098063 0.000010
v 0.055898 0.082228 0.000055
v 0.056802 0.082233 -0.003758
v 0.059336 0.091645 -0.006274
v 0.062209 0.086105 -0.006172
v 0.062565 0.082233 -0.005906
v 0.055265 0.097070 -0.004544
v 0.056093 0.097158 -0.003541
v 0.054296 0.097958 0.003442
v 0.055961 0.097277 0.003448
v 0.064054 0.082233 -0.004160
v 0.064607 0.082233 -0.002732
v 0.065047 0.082229 -0.000031
v 0.054727 0.096321 -0.005654
v 0.060004 0.092418 -0.005654
v 0.062931 0.086367 -0.005701
v 0.045176 0.098298 0.005720
v 0.048739 0.097855 0.005755
v 0.056828 0.082224 0.003812
v 0.045176 0.093931 0.003822
v 0.064245 0.085432 -0.004270
v 0.064890 0.086022 -0.002782
v 0.065370 0.085366 -0.000023
v 0.060631 0.093214 -0.004403
v 0.060485 0.094803 0.000007
v 0.061232 0.093433 -0.003221
v 0.055385 0.097059 0.004452
v 0.060581 0.093154 0.004517
v 0.061241 0.093455 0.003147
v 0.045176 0.097504 0.006209
v 0.064149 0.086701 -0.004163
v 0.065173 0.086853 -0.000015
v 0.064892 0.085992 0.002760
v 0.064585 0.082224 0.002731
v 0.061643 0.092536 -0.003852
v 0.061891 0.093562 -0.000611
v 0.054659 0.096386 0.005627
v 0.061689 0.092502 0.003783
v 0.061911 0.093544 0.000572
v 0.045176 0.096347 0.006424
v 0.049043 0.096373 0.006383
v 0.063848 0.088303 -0.003398
v 0.064101 0.086747 0.004220
v 0.064238 0.085423 0.004263
v 0.064052 0.082224 0.004138
v 0.060049 0.092411 0.005634
v 0.045175 0.094925 0.005691
v 0.059964 0.082224 0.006378
v 0.061056 0.082224 0.006388
v 0.061816 0.086364 0.006312
v 0.054504 0.095282 0.006275
v 0.063844 0.088296 0.003391
v 0.059256 0.091709 0.006275
v 0.058724 0.082224 0.005871
v 0.062923 0.086133 0.005731
v 0.062534 0.082224 0.005898
vn 0.4574 0.6185 -0.6389
vn 0.8071 0.3712 -0.4592
vn 0.0560 0.4751 -0.8782
vn 0.0212 0.1206 -0.9925
vn 0.1162 0.9822 0.1476
vn 0.5301 0.7131 0.4588
vn -0.6634 -0.6606 0.3515
vn 0.1678 0.0049 -0.9858
vn 0.8120 0.3744 0.4478
vn 0.5737 0.7991 -0.1797
vn 0.8925 0.3188 0.3190
vn 0.0985 0.9870 -0.1273
vn 0.2248 0.8663 -0.4461
vn 0.3654 0.8512 -0.3767
vn 0.4175 0.8846 -0.2080
vn 0.6618 0.7497 -0.0001
vn -0.6975 -0.6902 -0.1926
vn 0.3142 -0.0403 0.9485
vn 0.2226 0.9642 0.1441
vn 0.0253 0.0128 -0.9996
vn -0.6976 -0.6956 0.1719
vn 0.0990 0.4054 0.9088
vn 0.4774 0.2345 0.8468
vn 0.3037 -0.0374 -0.9520
vn 0.9792 -0.0756 -0.1883
vn -0.0092 0.0200 0.9998
vn -0.4040 -0.4194 0.8129
vn 0.2969 0.4071 -0.8638
vn 0.9812 -0.1014 0.1639
vn -0.6213 -0.6347 -0.4596
vn 0.8985 0.4389 -0.0087
vn 0.8914 0.3207 -0.3201
vn 0.6857 0.3366 -0.6454
vn 0.9816 0.1301 -0.1398
vn 0.5174 0.7022 -0.4890
vn 0.7262 -0.0301 -0.6868
vn -0.3766 -0.3942 -0.8383
vn 0.8915 0.4198 0.1702
vn 0.6530 0.6125 -0.4455
vn 0.0838 0.8492 -0.5214
vn 0.0093 0.1827 0.9831
vn 0.5484 -0.0069 -0.8362
vn -0.0001 1.0000 0.0013
vn 0.9241 -0.0687 0.3759
vn 0.9818 0.1288 0.1394
vn 0.2221 0.9637 -0.1483
vn 0.7556 -0.0697 0.6513
vn 0.2127 0.8096 0.5472
vn 0.8963 0.1072 0.4304
vn -0.5814 -0.6126 0.5355
vn 0.9103 0.3612 -0.2019
vn 0.6957 0.3397 0.6329
vn 0.9300 -0.0742 -0.3600
vn 0.4921 0.2444 -0.8355
vn 0.0885 0.8442 0.5287
vn 0.3700 0.9060 0.2056
vn 0.5821 0.7885 0.1985
vn 0.4631 -0.0082 0.8863
vn 0.3323 0.4422 0.8331
vn 1.0000 0.0001 0.0003
vn 1.0000 -0.0000 -0.0001
vn 1.0000 -0.0000 -0.0000
vn 1.0000 -0.0000 0.0008
vn 1.0000 -0.0000 0.0002
vn -1.0000 0.0001 0.0003
vn -1.0000 0.0001 0.0002
vn -1.0000 0.0001 0.0001
vn 1.0000 -0.0001 0.0003
vn 1.0000 0.0001 0.0002
vn 0.4644 0.6233 -0.6291
vn 0.8970 0.1040 -0.4297
vn 0.3123 0.1447 -0.9389
vn 0.0919 0.9883 0.1214
vn 0.5472 0.7227 0.4221
vn 0.3484 0.8546 0.3851
vn 0.6015 0.7759 -0.1901
vn 0.5833 0.7875 -0.1993
vn 0.1169 0.9822 -0.1471
vn 0.4598 0.6224 0.6334
vn 0.4567 0.6204 0.6376
vn -0.6982 -0.6963 -0.1664
vn 0.2264 0.9642 0.1383
vn -0.0081 0.0025 -1.0000
vn 0.0077 0.0049 -1.0000
vn -0.0387 0.0086 -0.9992
vn -0.6976 -0.6945 0.1763
vn 0.0767 0.4023 0.9123
vn 0.1951 0.8144 -0.5466
vn 0.2014 0.7639 -0.6131
vn 0.4894 0.2371 0.8392
vn 0.9819 -0.1006 -0.1602
vn 0.0085 0.0114 0.9999
vn 0.0097 0.0115 0.9999
vn 0.0233 0.0176 0.9996
vn 0.0107 0.0079 0.9999
vn 0.6553 0.6075 0.4489
vn -0.3514 -0.3708 0.8597
vn 0.3090 0.4178 -0.8544
vn -0.7177 -0.6959 -0.0276
vn 0.9791 -0.0813 0.1863
vn 0.1414 0.5023 -0.8530
vn 0.7671 0.1114 -0.6318
vn 0.1394 0.4865 0.8625
vn 0.6420 0.4594 -0.6138
vn 0.7018 0.3350 -0.6287
vn 0.5510 0.7244 -0.4143
vn 0.7592 -0.0677 -0.6473
vn -0.3513 -0.3708 -0.8597
vn 0.8793 0.4318 0.2010
vn 0.9109 0.3588 0.2036
vn 0.0998 0.8336 -0.5434
vn 0.0791 0.3825 -0.9206
vn 0.7647 0.1002 0.6365
vn -0.0000 1.0000 -0.0000
vn -0.0000 1.0000 0.0001
vn -0.0000 1.0000 -0.0001
vn -0.0002 1.0000 0.0016
vn 0.0002 1.0000 0.0017
vn 0.0001 1.0000 0.0001
vn 0.0001 1.0000 -0.0003
vn -0.0001 1.0000 0.0011
vn 0.9322 -0.0788 0.3533
vn 0.0568 0.5241 0.8498
vn 0.2265 0.9638 -0.1406
vn 0.7334 -0.0441 0.6783
vn 0.1523 0.8141 0.5604
vn 0.2059 0.8217 0.5314
vn 0.8769 0.4348 -0.2047
vn 0.8912 0.4211 -0.1688
vn 0.8126 0.5355 0.2301
vn 0.6615 0.4395 0.6076
vn 0.6794 0.3213 0.6597
vn 0.9251 -0.0682 -0.3736
vn -0.5859 -0.6140 -0.5289
vn 0.4723 0.2292 -0.8511
vn 0.1007 0.8514 0.5147
vn 0.8126 0.5349 -0.2315
vn 0.6082 0.7719 0.1851
vn 0.5739 0.7989 0.1801
vn 0.3120 0.4245 0.8500
vn 1.0000 -0.0005 0.0003
vn 1.0000 -0.0001 0.0002
vn 1.0000 0.0001 0.0001
vn 1.0000 -0.0004 0.0002
vn 1.0000 0.0009 -0.0003
vn 0.0898 0.8523 0.5152
vn 0.0082 0.0089 -0.9999
vn 0.0047 0.0027 -1.0000
vn -0.0081 -0.0116 -0.9999
vn -0.0092 -0.0129 0.9999
vn 0.0107 0.0094 0.9999
vn 0.0995 0.8426 0.5292
vn 1.0000 0.0008 0.0005
vn 1.0000 0.0035 0.0010
vn 0.0001 1.0000 -0.0001
vn 0.0004 1.0000 0.0010
vn 0.0001 1.0000 0.0009
vn 0.0001 1.0000 -0.0002
vn 0.2074 0.8310 0.5161
vn 0.2027 0.8225 0.5314
vn 0.0451 0.0414 -0.9981
vn -0.0003 1.0000 0.0011
vn -0.0000 1.0000 0.0010
vn 0.0020 1.0000 0.0017
vn 0.0270 0.0361 0.9990
vn 0.0174 0.0151 0.9997
vn 0.0175 0.0153 0.9997
vn -0.0000 1.0000 -0.0005
vn 0.2080 0.7878 0.5798
vn -0.0016 1.0000 0.0014
vn -0.0017 1.0000 0.0014
vn 0.3160 0.4205 0.8505
vn 0.3263 0.4439 0.8346
vn -0.0071 1.0000 0.0027
s 0
f 35//1 34//1 27//1
f 55//2 62//2 51//2
f 4//3 15//3 5//3
f 5//4 16//4 6//4
f 3//5 10//5 9//5
f 48//6 30//6 47//6
f 40//7 39//7 67//7
f 25//8 18//8 17//8
f 63//9 72//9 58//9
f 28//10 21//10 45//10
f 72//11 63//11 53//11
f 3//12 2//12 1//12
f 8//13 27//13 7//13
f 8//14 28//14 27//14
f 21//15 28//15 8//15
f 45//16 59//16 56//16
f 23//17 14//17 13//17
f 76//18 70//18 69//18
f 3//19 9//19 29//19
f 16//20 24//20 19//20
f 39//21 11//21 22//21
f 38//22 61//22 71//22
f 70//23 66//23 73//23
f 25//24 26//24 18//24
f 43//25 32//25 42//25
f 68//26 69//26 70//26
f 74//27 60//27 67//27
f 16//28 34//28 24//28
f 54//29 33//29 43//29
f 23//30 13//30 12//30
f 59//31 52//31 56//31
f 42//32 51//32 62//32
f 36//33 35//33 55//33
f 43//34 42//34 52//34
f 28//35 44//35 27//35
f 41//36 26//36 36//36
f 6//37 20//37 12//37
f 59//38 72//38 52//38
f 46//39 55//39 44//39
f 7//40 4//40 2//40
f 50//41 60//41 61//41
f 36//42 26//42 25//42
f 22//43 33//43 23//43
f 65//44 53//44 64//44
f 43//45 52//45 53//45
f 8//46 7//46 3//46
f 64//47 76//47 65//47
f 38//48 57//48 29//48
f 63//49 64//49 53//49
f 39//50 74//50 67//50
f 52//51 42//51 62//51
f 63//52 58//52 66//52
f 31//53 42//53 32//53
f 35//54 36//54 24//54
f 38//55 9//55 10//55
f 30//56 21//56 29//56
f 49//57 45//57 30//57
f 76//58 75//58 70//58
f 57//59 71//59 73//59
f 6//60 5//60 12//60
f 5//61 4//61 12//61
f 12//61 4//61 13//61
f 13//62 2//62 14//62
f 14//63 1//63 11//63
f 11//61 10//61 40//61
f 40//64 10//64 67//64
f 67//65 60//65 50//65
f 50//66 37//66 67//66
f 37//67 10//67 67//67
f 10//68 11//68 1//68
f 1//69 14//69 2//69
f 2//62 13//62 4//62
f 27//70 44//70 35//70
f 41//71 51//71 42//71
f 24//72 25//72 17//72
f 3//73 1//73 10//73
f 48//74 49//74 30//74
f 47//75 30//75 29//75
f 45//76 56//76 46//76
f 46//77 28//77 45//77
f 3//78 7//78 2//78
f 48//79 47//79 66//79
f 66//80 47//80 57//80
f 23//81 22//81 14//81
f 21//82 3//82 29//82
f 17//83 18//83 19//83
f 19//84 6//84 16//84
f 17//85 19//85 24//85
f 39//86 40//86 11//86
f 38//87 50//87 61//87
f 7//88 27//88 15//88
f 27//89 34//89 15//89
f 75//90 66//90 70//90
f 43//91 33//91 32//91
f 73//92 71//92 68//92
f 70//93 73//93 68//93
f 71//94 61//94 68//94
f 61//95 60//95 68//95
f 58//96 49//96 48//96
f 74//97 68//97 60//97
f 34//98 35//98 24//98
f 11//99 14//99 22//99
f 53//100 54//100 43//100
f 15//101 34//101 16//101
f 36//102 51//102 41//102
f 71//103 57//103 38//103
f 44//104 55//104 35//104
f 55//105 51//105 36//105
f 28//106 46//106 44//106
f 41//107 31//107 26//107
f 6//108 19//108 20//108
f 58//109 72//109 59//109
f 72//110 53//110 52//110
f 7//111 15//111 4//111
f 16//112 5//112 15//112
f 64//113 63//113 75//113
f 23//114 31//114 20//114
f 26//115 18//115 20//115
f 20//114 18//114 19//114
f 26//116 20//116 31//116
f 31//116 23//116 32//116
f 32//117 23//117 33//117
f 33//118 39//118 54//118
f 54//115 39//115 65//115
f 65//119 74//119 76//119
f 69//114 74//114 68//114
f 76//120 74//120 69//120
f 74//114 65//114 39//114
f 39//121 33//121 22//121
f 65//122 54//122 53//122
f 38//123 37//123 50//123
f 3//124 21//124 8//124
f 64//125 75//125 76//125
f 57//126 47//126 29//126
f 29//127 9//127 38//127
f 62//128 55//128 56//128
f 56//129 52//129 62//129
f 49//130 58//130 59//130
f 48//131 66//131 58//131
f 66//132 75//132 63//132
f 31//133 41//133 42//133
f 20//134 23//134 12//134
f 25//135 24//135 36//135
f 10//136 37//136 38//136
f 56//137 55//137 46//137
f 49//138 59//138 45//138
f 45//139 21//139 30//139
f 73//140 66//140 57//140
f 67//60 1//60 10//60
f 2//141 1//141 4//141
f 4//142 1//142 5//142
f 5//143 1//143 6//143
f 6//142 1//142 67//142
f 6//64 67//64 12//64
f 12//144 67//144 11//144
f 11//145 67//145 40//145
f 37//146 9//146 10//146
f 16//147 17//147 6//147
f 17//148 18//148 6//148
f 18//149 19//149 6//149
f 68//150 69//150 60//150
f 69//151 61//151 60//151
f 38//152 9//152 37//152
f 13//153 12//153 11//153
f 13//154 11//154 14//154
f 76//155 39//155 74//155
f 22//156 39//156 19//156
f 19//157 39//157 54//157
f 54//115 39//115 76//115
f 76//158 74//158 68//158
f 47//159 29//159 9//159
f 38//160 47//160 9//160
f 24//161 17//161 16//161
f 26//162 18//162 54//162
f 54//163 18//163 19//163
f 22//156 19//156 20//156
f 22//164 20//164 23//164
f 73//165 71//165 61//165
f 69//166 70//166 61//166
f 70//167 73//167 61//167
f 76//168 68//168 69//168
f 57//169 47//169 38//169
f 54//115 76//115 65//115
f 26//170 54//170 33//170
f 31//171 26//171 33//171
f 66//172 71//172 73//172
f 66//173 57//173 71//173
f 31//174 33//174 32//174
