# Blender 4.0.0
# www.blender.org
o decimated_mesh
v -0.010881 0.011074 0.033913
v 0.002423 0.011074 0.035348
v -0.010878 0.011074 0.039485
v 0.002423 0.011074 0.040658
v -0.010882 0.102139 0.043526
v 0.002423 0.086902 0.037299
v 0.000147 0.011074 0.040925
v -0.010881 0.087029 0.035866
v 0.000224 0.102874 0.044876
v 0.002423 0.102205 0.044617
v -0.010881 0.102902 0.038010
v 0.002423 0.102895 0.039296
v -0.010840 0.102964 0.043277
v 0.002428 0.103288 0.043924
v -0.010877 0.103464 0.042283
v -0.010881 0.103405 0.039015
v 0.002423 0.103452 0.040811
vn -1.0000 0.0001 -0.0001
vn -0.0295 0.9399 0.3403
vn 1.0000 -0.0000 -0.0000
vn -0.0956 -0.1234 0.9877
vn -0.1073 -0.0256 0.9939
vn 0.2544 0.5206 0.8150
vn 0.0068 0.9986 0.0525
vn 0.1042 -0.0429 0.9936
vn 0.0432 0.9376 -0.3449
vn -0.1294 -0.0440 0.9906
vn -0.0000 1.0000 -0.0000
vn -1.0000 -0.0000 -0.0001
vn -1.0000 -0.0000 0.0006
vn -1.0000 -0.0000 -0.0000
vn -0.9947 0.0724 0.0734
vn -1.0000 0.0046 0.0011
vn 1.0000 -0.0063 -0.0021
vn -0.1074 -0.1330 0.9853
vn -0.1072 -0.0256 0.9939
vn -0.0011 0.9998 -0.0182
vn 0.1166 -0.0431 0.9922
vn 0.0437 0.8936 -0.4468
vn -0.0578 0.8910 0.4502
vn -0.1178 -0.0426 0.9921
vn -0.1345 0.2922 0.9469
vn -1.0000 -0.0001 0.0006
vn -0.0955 -0.1332 0.9865
vn -0.1074 -0.1232 0.9865
vn 1.0000 0.0042 -0.0015
vn 1.0000 0.0001 -0.0012
vn 1.0000 -0.0000 -0.0009
vn 1.0000 -0.0001 -0.0000
vn 1.0000 -0.0003 0.0073
s 0
f 5//1 16//1 11//1
f 15//2 9//2 14//2
f 10//3 12//3 17//3
f 6//4 12//4 11//4
f 6//5 8//5 1//5
f 10//6 14//6 9//6
f 15//7 14//7 17//7
f 7//8 10//8 9//8
f 16//9 17//9 12//9
f 5//10 3//10 7//10
f 7//11 1//11 3//11
f 1//11 7//11 2//11
f 2//11 7//11 4//11
f 11//12 8//12 5//12
f 8//13 1//13 3//13
f 5//14 8//14 3//14
f 5//15 13//15 15//15
f 15//16 16//16 5//16
f 17//17 14//17 10//17
f 10//3 4//3 6//3
f 4//3 2//3 6//3
f 6//3 12//3 10//3
f 6//18 11//18 8//18
f 6//19 1//19 2//19
f 17//20 16//20 15//20
f 7//21 4//21 10//21
f 12//22 11//22 16//22
f 13//23 9//23 15//23
f 7//24 9//24 5//24
f 9//25 13//25 5//25
f 8//12 1//12 5//12
f 1//26 3//26 5//26
f 11//27 8//27 12//27
f 12//28 8//28 6//28
f 6//5 8//5 2//5
f 2//19 8//19 1//19
f 2//11 1//11 4//11
f 4//11 1//11 3//11
f 4//11 3//11 7//11
f 17//29 14//29 12//29
f 14//30 6//30 12//30
f 14//31 2//31 6//31
f 14//32 4//32 2//32
f 14//33 10//33 4//33
