# Blender 4.0.0
# www.blender.org
o decimated_mesh
v 0.054888 0.089032 0.000073
v 0.054887 0.090174 0.003627
v 0.045391 0.093872 0.003583
v 0.045391 0.093414 0.000006
v 0.045391 0.093819 -0.003313
v 0.054887 0.089703 -0.002701
v 0.045390 0.095181 0.005940
v 0.045390 0.094884 -0.005625
v 0.054887 0.090649 -0.004365
v 0.054887 0.091934 0.005780
v 0.045391 0.095655 -0.006144
v 0.054887 0.091838 -0.005710
v 0.054890 0.094017 0.006387
v 0.045391 0.096749 0.006367
v 0.054887 0.093180 -0.006299
v 0.045391 0.097759 0.005956
v 0.048639 0.096711 0.006317
v 0.045391 0.096857 -0.006354
v 0.053373 0.095655 0.006265
v 0.054882 0.095879 0.005852
v 0.048498 0.097714 0.005843
v 0.048192 0.098479 0.004981
v 0.048610 0.096713 -0.006316
v 0.054880 0.094947 -0.006282
v 0.053373 0.096533 0.005817
v 0.045391 0.098814 0.004673
v 0.045391 0.097761 -0.005957
v 0.048088 0.097935 -0.005723
v 0.054888 0.097355 0.004263
v 0.045391 0.098591 -0.005042
v 0.054866 0.096183 -0.005709
v 0.048665 0.099230 0.003381
v 0.054885 0.097512 -0.004011
v 0.045391 0.099647 -0.002858
v 0.048837 0.098894 -0.004145
v 0.054885 0.097916 0.002606
v 0.054887 0.098326 -0.000067
v 0.045390 0.100067 0.001314
v 0.048921 0.099327 -0.002660
v 0.049057 0.099590 0.000557
v 0.045390 0.100122 -0.000982
vn 0.0307 0.4471 -0.8940
vn 1.0000 0.0028 -0.0050
vn -0.0792 -0.2788 0.9571
vn -0.4157 -0.9028 -0.1103
vn -0.0773 -0.2617 0.9621
vn -0.0609 -0.1721 -0.9832
vn -0.1834 -0.5491 -0.8154
vn 0.0347 0.1063 0.9937
vn 0.2167 0.2707 0.9380
vn 0.0161 0.0632 0.9979
vn 0.0343 0.8998 -0.4350
vn 0.2246 0.9631 0.1482
vn 0.1948 0.8646 0.4632
vn 0.2334 0.9212 0.3111
vn 0.0347 0.7535 0.6566
vn -0.2390 -0.7274 -0.6432
vn 0.0189 0.9367 0.3495
vn -0.3443 -0.8527 -0.3928
vn 0.1227 0.4187 -0.8998
vn 0.1105 0.4515 0.8854
vn -0.3242 -0.8271 0.4591
vn 0.0388 0.4313 0.9014
vn -0.2462 -0.7504 0.6134
vn -0.4168 -0.9016 0.1155
vn 0.0128 0.0181 -0.9998
vn -0.3066 -0.8274 -0.4705
vn -0.1189 -0.3994 -0.9090
vn 0.1790 0.9799 -0.0877
vn 0.0536 0.4017 -0.9142
vn 1.0000 -0.0000 0.0001
vn 0.9999 0.0063 0.0106
vn 1.0000 0.0038 0.0050
vn 0.9999 0.0009 -0.0118
vn 1.0000 0.0001 -0.0006
vn 1.0000 0.0003 0.0009
vn 1.0000 0.0001 0.0004
vn 1.0000 -0.0005 0.0032
vn 1.0000 -0.0020 0.0015
vn 1.0000 0.0001 -0.0005
vn 1.0000 0.0002 0.0001
vn 1.0000 -0.0000 -0.0018
vn 1.0000 -0.0000 -0.0001
vn 1.0000 -0.0000 -0.0000
vn 1.0000 0.0001 0.0001
vn 1.0000 -0.0000 -0.0002
vn 1.0000 -0.0001 0.0004
vn -1.0000 0.0004 0.0005
vn -1.0000 0.0004 0.0010
vn 1.0000 0.0001 0.0003
vn 1.0000 -0.0001 0.0001
vn 1.0000 -0.0000 -0.0004
vn 1.0000 -0.0000 0.0004
vn 0.1943 0.7668 0.6117
vn 0.1917 0.7779 0.5984
vn 0.2889 0.7008 0.6523
vn 0.0674 0.8381 -0.5414
vn 0.2226 0.9627 0.1536
vn -0.3488 -0.8923 0.2867
vn 0.0590 0.8969 0.4382
vn -0.3763 -0.9005 -0.2178
vn 0.0224 0.7721 0.6351
vn 0.1247 0.4759 -0.8706
vn 0.1739 0.4473 0.8773
vn 0.1107 0.4372 0.8925
vn 0.2196 0.9332 -0.2845
vn 0.1573 0.9767 0.1464
vn 0.0187 0.3772 0.9259
vn 0.0107 0.7404 -0.6721
vn 0.0080 0.0095 -0.9999
vn 0.1195 0.9625 -0.2435
vn 0.0806 0.9557 -0.2833
vn 0.2053 0.7900 -0.5777
vn 0.1899 0.7722 -0.6064
vn 0.2445 0.9496 -0.1963
vn 0.1338 0.9907 0.0237
vn 0.2019 0.9754 -0.0883
vn 1.0000 -0.0015 0.0009
vn 1.0000 -0.0014 -0.0008
vn 1.0000 -0.0007 -0.0006
vn 1.0000 -0.0001 -0.0003
vn 1.0000 -0.0001 -0.0002
vn 1.0000 0.0002 -0.0003
vn 1.0000 0.0006 -0.0000
vn 0.9999 0.0072 0.0103
vn 1.0000 0.0005 -0.0000
vn 1.0000 0.0003 0.0001
vn 1.0000 -0.0003 -0.0003
vn 1.0000 0.0003 0.0003
vn 0.0095 0.0095 -0.9999
vn 1.0000 0.0039 -0.0066
vn 1.0000 0.0008 -0.0007
vn 0.9999 0.0145 0.0031
vn 0.1946 0.7759 0.6001
vn 0.1140 0.4513 0.8851
vn 0.1073 0.4370 0.8931
vn 1.0000 0.0002 0.0009
vn 0.1012 0.9645 -0.2439
vn 1.0000 -0.0006 0.0003
vn 0.0133 0.0284 -0.9995
vn 1.0000 -0.0003 0.0003
vn 0.0290 0.4021 -0.9151
vn 0.9992 0.0257 -0.0313
vn 0.2003 0.7705 -0.6052
vn 0.1943 0.7946 -0.5752
vn 0.1025 0.9534 -0.2838
vn 0.1890 0.7667 0.6135
vn 0.0482 0.4528 -0.8903
s 0
f 28//1 23//1 18//1
f 20//2 13//2 2//2
f 13//3 7//3 10//3
f 4//4 5//4 1//4
f 13//5 14//5 7//5
f 15//6 11//6 18//6
f 12//7 8//7 11//7
f 17//8 13//8 19//8
f 13//9 20//9 19//9
f 13//10 17//10 14//10
f 35//11 30//11 34//11
f 36//12 37//12 40//12
f 29//13 32//13 22//13
f 29//14 36//14 32//14
f 21//15 22//15 16//15
f 12//16 9//16 8//16
f 32//17 38//17 26//17
f 8//18 6//18 5//18
f 24//19 23//19 31//19
f 17//20 19//20 25//20
f 3//21 2//21 7//21
f 16//22 17//22 21//22
f 2//23 10//23 7//23
f 3//24 4//24 1//24
f 23//25 15//25 18//25
f 8//26 9//26 6//26
f 15//27 12//27 11//27
f 39//28 41//28 40//28
f 18//29 27//29 28//29
f 9//30 12//30 15//30
f 24//31 31//31 9//31
f 24//32 9//32 15//32
f 31//33 33//33 9//33
f 33//34 37//34 6//34
f 37//35 36//35 2//35
f 1//36 37//36 2//36
f 29//37 20//37 2//37
f 13//38 10//38 2//38
f 1//39 6//39 37//39
f 6//40 9//40 33//40
f 36//41 29//41 2//41
f 8//42 30//42 5//42
f 30//43 34//43 5//43
f 5//42 41//42 4//42
f 4//44 38//44 3//44
f 38//45 26//45 3//45
f 3//46 26//46 7//46
f 26//47 7//47 16//47
f 7//48 14//48 16//48
f 38//49 4//49 41//49
f 41//30 5//30 34//30
f 30//50 8//50 27//50
f 27//51 11//51 18//51
f 11//52 27//52 8//52
f 29//53 22//53 21//53
f 25//54 29//54 21//54
f 25//55 20//55 29//55
f 35//56 28//56 30//56
f 32//57 36//57 40//57
f 3//58 1//58 2//58
f 32//59 26//59 22//59
f 6//60 1//60 5//60
f 22//61 26//61 16//61
f 28//62 31//62 23//62
f 20//63 25//63 19//63
f 25//64 21//64 17//64
f 35//65 39//65 33//65
f 32//66 40//66 38//66
f 14//67 17//67 16//67
f 27//68 30//68 28//68
f 23//69 24//69 15//69
f 35//70 34//70 41//70
f 41//71 39//71 35//71
f 31//72 28//72 35//72
f 35//73 33//73 31//73
f 37//74 33//74 39//74
f 41//75 38//75 40//75
f 37//76 39//76 40//76
f 13//77 2//77 1//77
f 6//78 9//78 1//78
f 9//79 12//79 1//79
f 12//80 13//80 1//80
f 12//81 15//81 13//81
f 15//82 37//82 13//82
f 37//83 29//83 13//83
f 29//84 20//84 13//84
f 7//83 3//83 5//83
f 5//85 3//85 4//85
f 7//86 5//86 8//86
f 26//87 7//87 38//87
f 38//88 7//88 41//88
f 41//50 7//50 18//50
f 18//50 7//50 8//50
f 18//89 24//89 15//89
f 24//90 33//90 15//90
f 33//91 37//91 15//91
f 36//92 29//92 37//92
f 22//93 25//93 29//93
f 25//94 21//94 19//94
f 21//95 17//95 19//95
f 18//96 8//96 11//96
f 39//97 34//97 41//97
f 34//98 41//98 30//98
f 30//50 41//50 18//50
f 23//99 24//99 18//99
f 30//100 18//100 27//100
f 27//101 23//101 18//101
f 31//102 33//102 24//102
f 31//103 28//103 33//103
f 28//104 35//104 33//104
f 35//105 34//105 39//105
f 21//106 25//106 22//106
f 27//107 28//107 23//107
