# Blender 4.0.0
# www.blender.org
o decimated_mesh
v 0.024004 0.102242 0.037750
v 0.031812 0.102104 0.031715
v 0.029214 0.102870 0.033672
v 0.024017 0.102932 0.037550
v 0.031619 0.103006 0.031572
v 0.024004 0.103406 0.036388
v 0.028941 0.014362 0.029046
v 0.034213 0.102824 0.028554
v 0.024004 0.014362 0.032885
v 0.037621 0.102905 0.024029
v 0.031431 0.103437 0.030335
v 0.024004 0.014362 0.026475
v 0.038397 0.103437 0.020870
v 0.038862 0.102110 0.022517
v 0.035369 0.014362 0.020767
v 0.039068 0.102947 0.021766
v 0.024004 0.103441 0.032487
v 0.034138 0.014362 0.010536
v 0.042500 0.103428 0.010533
v 0.039176 0.103402 0.010530
v 0.039639 0.014362 0.010537
v 0.035946 0.085825 0.010529
v 0.043133 0.102935 0.011981
v 0.043277 0.103070 0.010530
v 0.043553 0.102198 0.010530
v 0.038255 0.102997 0.010530
v 0.043273 0.102291 0.011911
v 0.024004 0.103009 0.031328
v 0.024004 0.102198 0.030982
vn 0.6133 -0.0441 0.7886
vn 1.0000 -0.0001 -0.0000
vn 0.0002 -0.0001 -1.0000
vn 0.9219 -0.0444 0.3848
vn 0.9647 0.1893 0.1833
vn 0.5370 0.7330 0.4175
vn 0.0001 1.0000 -0.0000
vn 0.6112 0.0557 0.7895
vn 0.3743 0.9154 0.1478
vn 0.2753 0.8910 0.3611
vn 0.9162 0.1182 0.3830
vn 0.0005 1.0000 0.0004
vn 0.7935 0.0243 0.6081
vn 0.9785 -0.0436 0.2018
vn -0.4534 0.8352 -0.3112
vn 0.8090 0.2695 0.5223
vn 0.9464 0.2990 0.1222
vn 0.8558 -0.0216 0.5169
vn 0.6104 -0.0438 0.7909
vn 1.0000 -0.0001 0.0001
vn 1.0000 -0.0000 -0.0000
vn -0.9995 0.0242 0.0206
vn 1.0000 0.0002 -0.0001
vn -0.0000 -0.0000 1.0000
vn -0.0008 -0.0027 1.0000
vn 0.0039 0.0012 1.0000
vn 0.0003 -0.0001 -1.0000
vn 0.7403 0.2576 0.6209
vn 0.9227 -0.0441 0.3829
vn 0.2317 0.9289 0.2890
vn 0.7891 -0.0445 0.6127
vn 0.7930 -0.0437 0.6077
vn 0.3447 0.9013 0.2622
vn 0.3455 0.9078 0.2378
vn 0.3162 0.9197 0.2326
vn -0.0000 1.0000 -0.0000
vn -0.3871 0.8819 -0.2691
vn 0.5855 0.2160 0.7814
vn 0.6286 0.2519 0.7359
vn 0.4149 0.9012 0.1252
vn 0.4196 0.8910 0.1732
vn 0.9122 0.1565 0.3787
vn -0.0079 1.0000 -0.0040
vn -0.0027 1.0000 -0.0036
vn 0.0030 1.0000 0.0088
vn 0.7941 0.0988 0.5998
vn -0.8018 0.2347 -0.5495
vn 0.3404 0.8293 0.4432
vn 0.8436 -0.0275 0.5363
vn -0.8175 0.1100 -0.5653
vn 1.0000 0.0005 -0.0001
vn 1.0000 -0.0000 0.0001
vn 0.8437 -0.0213 0.5364
vn 0.0001 1.0000 0.0001
vn 0.8538 -0.0267 0.5199
vn -0.0007 1.0000 -0.0012
vn -0.0079 0.9999 -0.0072
vn -0.0000 -0.0001 1.0000
vn -0.0001 -0.0000 1.0000
vn -0.0007 -0.0087 1.0000
s 0
f 2//1 9//1 7//1
f 29//2 6//2 1//2
f 18//3 22//3 21//3
f 21//4 14//4 15//4
f 23//5 27//5 25//5
f 5//6 8//6 10//6
f 21//7 18//7 15//7
f 1//8 2//8 3//8
f 23//9 19//9 13//9
f 5//10 6//10 4//10
f 27//11 16//11 14//11
f 11//12 13//12 17//12
f 14//13 8//13 2//13
f 27//14 21//14 25//14
f 17//15 26//15 28//15
f 14//16 16//16 10//16
f 24//17 23//17 25//17
f 29//18 18//18 22//18
f 2//19 1//19 9//19
f 28//20 17//20 29//20
f 29//21 9//21 12//21
f 1//21 9//21 29//21
f 4//22 6//22 1//22
f 6//23 29//23 17//23
f 22//24 25//24 26//24
f 25//24 20//24 26//24
f 20//25 25//25 19//25
f 19//26 25//26 24//26
f 25//27 21//27 22//27
f 8//28 5//28 2//28
f 27//29 14//29 21//29
f 11//30 6//30 5//30
f 7//31 15//31 2//31
f 15//32 14//32 2//32
f 5//33 10//33 11//33
f 10//34 16//34 13//34
f 11//35 10//35 13//35
f 7//36 12//36 9//36
f 12//36 15//36 18//36
f 7//36 15//36 12//36
f 20//37 26//37 17//37
f 3//38 4//38 1//38
f 5//39 3//39 2//39
f 23//40 24//40 19//40
f 16//41 23//41 13//41
f 27//42 23//42 16//42
f 13//43 19//43 20//43
f 20//44 17//44 13//44
f 17//45 6//45 11//45
f 14//46 10//46 8//46
f 29//47 28//47 26//47
f 4//48 3//48 5//48
f 12//49 18//49 29//49
f 29//50 26//50 22//50
f 6//51 28//51 17//51
f 6//21 29//21 28//21
f 6//21 12//21 29//21
f 6//21 9//21 12//21
f 6//52 1//52 9//52
f 12//36 9//36 21//36
f 21//36 9//36 7//36
f 21//36 7//36 15//36
f 22//53 12//53 18//53
f 18//54 12//54 21//54
f 29//55 12//55 22//55
f 13//56 19//56 17//56
f 19//57 20//57 17//57
f 26//58 22//58 20//58
f 20//24 22//24 24//24
f 24//59 22//59 25//59
f 24//60 19//60 20//60
