# Blender 4.0.0
# www.blender.org
o Mug_3_mug_3_1_collision_19
v -0.019585 0.006281 -0.012816
v -0.023127 0.006281 -0.000007
v -0.019585 0.006281 -0.035733
v -0.019585 0.010795 -0.029460
v -0.035502 0.010795 -0.000007
v -0.040792 0.006281 -0.000007
v -0.019781 0.006281 -0.035652
v -0.019585 0.006963 -0.035751
v -0.019585 0.010795 -0.035849
v -0.040896 0.010795 -0.000007
v -0.040792 0.006281 -0.000548
v -0.020676 0.006281 -0.035175
v -0.019781 0.010492 -0.035758
v -0.019752 0.010795 -0.035775
v -0.040894 0.010795 -0.000548
v -0.040888 0.010492 -0.000548
v -0.040794 0.010795 -0.001337
v -0.040671 0.006281 -0.001484
v -0.021306 0.010795 -0.034852
v -0.020756 0.010492 -0.035228
v -0.021223 0.006281 -0.034786
v -0.020057 0.010795 -0.035614
v -0.040754 0.010795 -0.001639
v -0.040604 0.010492 -0.002730
v -0.040364 0.006281 -0.003824
v -0.021965 0.010795 -0.034347
v -0.020912 0.010795 -0.035126
v -0.021934 0.006281 -0.034242
v -0.020760 0.010795 -0.035231
v -0.040460 0.010492 -0.003824
v -0.039749 0.010795 -0.009283
v -0.040005 0.006281 -0.006550
v -0.024385 0.006281 -0.032362
v -0.023822 0.010795 -0.032923
v -0.039559 0.010795 -0.010374
v -0.039553 0.010492 -0.010374
v -0.039644 0.006281 -0.009283
v -0.039920 0.006281 -0.007199
v -0.027516 0.006281 -0.029958
v -0.027539 0.010795 -0.030071
v -0.039313 0.010795 -0.011164
v -0.039452 0.006281 -0.010374
v -0.028054 0.006281 -0.029544
v -0.028134 0.010492 -0.029604
v -0.028138 0.010795 -0.029607
v -0.039217 0.010795 -0.011466
v -0.039211 0.010492 -0.011466
v -0.039127 0.007217 -0.011466
v -0.039067 0.006281 -0.011560
v -0.028601 0.006281 -0.029064
v -0.028684 0.010795 -0.029141
v -0.028290 0.010795 -0.029478
v -0.038939 0.010795 -0.012139
v -0.038883 0.006281 -0.012006
v -0.029175 0.006281 -0.028520
v -0.028839 0.010795 -0.028990
v -0.038314 0.010795 -0.013651
v -0.037886 0.006281 -0.014416
v -0.029264 0.006281 -0.028408
v -0.029221 0.009400 -0.028572
v -0.029239 0.010795 -0.028594
v -0.029235 0.010492 -0.028590
v -0.036553 0.010795 -0.017900
v -0.036661 0.006281 -0.017370
v -0.029719 0.006281 -0.027825
v -0.029782 0.010492 -0.027902
v -0.029392 0.010795 -0.028404
v -0.036052 0.010795 -0.019107
v -0.036430 0.006281 -0.017928
v -0.030141 0.006281 -0.027278
v -0.030205 0.010795 -0.027362
v -0.029903 0.010795 -0.027755
v -0.029786 0.010795 -0.027906
v -0.035662 0.006281 -0.019766
v -0.035704 0.006281 -0.019668
v -0.035940 0.006281 -0.019107
v -0.035719 0.010795 -0.019886
v -0.035714 0.010492 -0.019879
v -0.032487 0.006281 -0.024219
v -0.034481 0.010795 -0.021787
v -0.035441 0.010492 -0.020426
v -0.035381 0.006281 -0.020310
v -0.035445 0.010795 -0.020433
v -0.034417 0.006281 -0.021703
v -0.034901 0.010795 -0.021240
v -0.034836 0.006281 -0.021156
v -0.034913 0.006281 -0.021036
v -0.035051 0.010795 -0.021019
vn -0.0000 -1.0000 -0.0000
vn 1.0000 -0.0000 -0.0000
vn 0.6875 0.7009 0.1901
vn -0.0000 -0.0000 1.0000
vn 0.3370 0.9237 0.1821
vn -0.3804 -0.0238 -0.9245
vn -0.0000 1.0000 -0.0000
vn -0.9997 -0.0231 -0.0000
vn -0.4704 -0.0220 -0.8822
vn -0.3922 -0.0230 -0.9196
vn -0.3806 -0.0237 -0.9244
vn -0.4038 -0.0140 -0.9147
vn -0.9998 -0.0207 -0.0039
vn -0.9997 -0.0228 -0.0027
vn -0.9917 -0.0226 -0.1266
vn -0.9915 -0.0229 -0.1281
vn -0.5710 -0.0210 -0.8207
vn -0.4776 -0.0200 -0.8783
vn -0.5801 -0.0227 -0.8142
vn -0.4777 -0.0171 -0.8784
vn -0.4682 -0.0060 -0.8836
vn -0.9918 -0.0205 -0.1258
vn -0.9912 -0.0226 -0.1302
vn -0.9913 -0.0228 -0.1299
vn -0.5701 -0.0186 -0.8213
vn -0.6072 -0.0230 -0.7942
vn -0.6081 -0.0227 -0.7935
vn -0.4778 -0.0167 -0.8783
vn -0.5685 -0.0174 -0.8225
vn -0.9912 -0.0219 -0.1303
vn -0.9912 -0.0218 -0.1304
vn -0.9912 -0.0226 -0.1303
vn -0.9912 -0.0226 -0.1304
vn -0.9912 -0.0226 -0.1305
vn -0.6085 -0.0227 -0.7932
vn -0.6086 -0.0227 -0.7932
vn -0.9850 -0.0203 -0.1714
vn -0.9851 -0.0228 -0.1707
vn -0.9911 -0.0229 -0.1310
vn -0.9912 -0.0227 -0.1306
vn -0.6087 -0.0228 -0.7931
vn -0.9545 -0.0197 -0.2976
vn -0.9541 -0.0227 -0.2987
vn -0.9846 -0.0234 -0.1732
vn -0.6096 -0.0228 -0.7924
vn -0.6101 -0.0227 -0.7920
vn -0.6118 -0.0176 -0.7908
vn -0.9528 -0.0196 -0.3030
vn -0.9537 -0.0229 -0.3000
vn -0.9521 -0.0243 -0.3048
vn -0.9505 -0.0301 -0.3093
vn -0.6602 -0.0250 -0.7507
vn -0.6508 -0.0230 -0.7589
vn -0.6494 -0.0184 -0.7602
vn -0.6486 -0.0177 -0.7609
vn -0.9245 -0.0191 -0.3808
vn -0.9244 -0.0230 -0.3808
vn -0.9324 -0.0238 -0.3606
vn -0.9238 -0.0228 -0.3822
vn -0.6878 -0.0251 -0.7255
vn -0.6987 -0.0225 -0.7150
vn -0.9238 -0.0227 -0.3823
vn -0.7810 -0.0220 -0.6241
vn -0.6995 -0.0223 -0.7143
vn -0.7022 -0.0208 -0.7116
vn -0.7034 -0.0179 -0.7106
vn -0.9236 -0.0226 -0.3827
vn -0.9235 -0.0227 -0.3828
vn -0.7880 -0.0230 -0.6153
vn -0.7837 -0.0218 -0.6207
vn -0.7831 -0.0210 -0.6216
vn -0.7812 -0.0205 -0.6239
vn -0.7793 -0.0180 -0.6264
vn -0.9234 -0.0228 -0.3831
vn -0.9234 -0.0229 -0.3833
vn -0.7922 -0.0230 -0.6099
vn -0.7930 -0.0227 -0.6088
vn -0.7923 -0.0197 -0.6099
vn -0.7906 -0.0179 -0.6121
vn -0.7840 -0.0180 -0.6205
vn -0.9202 -0.0224 -0.3908
vn -0.9218 -0.0230 -0.3871
vn -0.9231 -0.0230 -0.3839
vn -0.9189 -0.0218 -0.3938
vn -0.9190 -0.0219 -0.3937
vn -0.7932 -0.0227 -0.6085
vn -0.8944 -0.0230 -0.4466
vn -0.8877 -0.0254 -0.4597
vn -0.8944 -0.0226 -0.4466
vn -0.8944 -0.0227 -0.4466
vn -0.7936 -0.0227 -0.6080
vn -0.8339 -0.0242 -0.5514
vn -0.8393 -0.0265 -0.5430
vn -0.8407 -0.0269 -0.5409
vn -0.8294 -0.0226 -0.5581
vn -0.8269 -0.0223 -0.5619
s 0
f 1//1 2//1 6//1
f 1//1 6//1 11//1
f 1//1 11//1 18//1
f 1//1 18//1 25//1
f 1//1 25//1 32//1
f 1//1 32//1 38//1
f 1//1 38//1 37//1
f 1//1 37//1 42//1
f 1//1 42//1 49//1
f 1//1 49//1 54//1
f 1//1 54//1 58//1
f 1//1 58//1 64//1
f 1//1 64//1 69//1
f 1//1 69//1 76//1
f 1//1 76//1 75//1
f 1//1 75//1 74//1
f 1//1 74//1 82//1
f 1//1 82//1 87//1
f 1//1 87//1 86//1
f 1//1 86//1 84//1
f 1//1 84//1 79//1
f 1//1 79//1 70//1
f 1//1 70//1 65//1
f 1//1 65//1 59//1
f 1//1 59//1 55//1
f 1//1 55//1 50//1
f 1//1 50//1 43//1
f 1//1 43//1 39//1
f 1//1 39//1 33//1
f 1//1 33//1 28//1
f 1//1 28//1 21//1
f 1//1 21//1 12//1
f 1//1 12//1 7//1
f 1//1 7//1 3//1
f 1//2 3//2 8//2
f 1//2 8//2 9//2
f 1//2 9//2 4//2
f 1//3 4//3 2//3
f 2//4 5//4 10//4
f 2//4 10//4 6//4
f 2//5 4//5 5//5
f 3//6 7//6 8//6
f 4//7 9//7 14//7
f 4//7 14//7 22//7
f 4//7 22//7 29//7
f 4//7 29//7 27//7
f 4//7 27//7 19//7
f 4//7 19//7 26//7
f 4//7 26//7 34//7
f 4//7 34//7 40//7
f 4//7 40//7 45//7
f 4//7 45//7 52//7
f 4//7 52//7 51//7
f 4//7 51//7 56//7
f 4//7 56//7 61//7
f 4//7 61//7 67//7
f 4//7 67//7 73//7
f 4//7 73//7 72//7
f 4//7 72//7 71//7
f 4//7 71//7 80//7
f 4//7 80//7 85//7
f 4//7 85//7 88//7
f 4//7 88//7 83//7
f 4//7 83//7 77//7
f 4//7 77//7 68//7
f 4//7 68//7 63//7
f 4//7 63//7 57//7
f 4//7 57//7 53//7
f 4//7 53//7 46//7
f 4//7 46//7 41//7
f 4//7 41//7 35//7
f 4//7 35//7 31//7
f 4//7 31//7 23//7
f 4//7 23//7 17//7
f 4//7 17//7 15//7
f 4//7 15//7 10//7
f 4//7 10//7 5//7
f 6//8 10//8 11//8
f 7//9 12//9 13//9
f 7//10 13//10 9//10
f 7//11 9//11 8//11
f 9//12 13//12 14//12
f 10//13 15//13 16//13
f 10//14 16//14 11//14
f 11//15 16//15 17//15
f 11//16 17//16 18//16
f 12//17 19//17 20//17
f 12//18 20//18 13//18
f 12//19 21//19 19//19
f 13//20 20//20 22//20
f 13//21 22//21 14//21
f 15//22 17//22 16//22
f 17//23 23//23 24//23
f 17//23 24//23 25//23
f 17//24 25//24 18//24
f 19//25 27//25 20//25
f 19//26 21//26 28//26
f 19//27 28//27 26//27
f 20//28 29//28 22//28
f 20//29 27//29 29//29
f 23//30 30//30 24//30
f 23//31 31//31 30//31
f 24//32 30//32 25//32
f 25//33 30//33 31//33
f 25//34 31//34 32//34
f 26//35 28//35 33//35
f 26//36 33//36 34//36
f 31//37 35//37 36//37
f 31//38 36//38 37//38
f 31//39 37//39 38//39
f 31//40 38//40 32//40
f 33//41 39//41 40//41
f 33//36 40//36 34//36
f 35//42 41//42 36//42
f 36//43 41//43 42//43
f 36//44 42//44 37//44
f 39//45 43//45 40//45
f 40//46 43//46 44//46
f 40//47 44//47 45//47
f 41//48 46//48 47//48
f 41//49 47//49 42//49
f 42//50 47//50 48//50
f 42//51 48//51 49//51
f 43//52 50//52 51//52
f 43//53 51//53 44//53
f 44//54 51//54 52//54
f 44//55 52//55 45//55
f 46//56 53//56 47//56
f 47//57 54//57 49//57
f 47//58 49//58 48//58
f 47//59 53//59 54//59
f 50//60 55//60 51//60
f 51//61 55//61 56//61
f 53//62 57//62 58//62
f 53//59 58//59 54//59
f 55//63 59//63 60//63
f 55//64 60//64 56//64
f 56//65 60//65 62//65
f 56//66 62//66 61//66
f 57//67 63//67 58//67
f 58//68 63//68 64//68
f 59//69 65//69 66//69
f 59//70 66//70 60//70
f 60//71 66//71 67//71
f 60//72 67//72 62//72
f 61//73 62//73 67//73
f 63//74 68//74 64//74
f 64//75 68//75 69//75
f 65//76 70//76 66//76
f 66//77 70//77 71//77
f 66//78 71//78 72//78
f 66//79 72//79 73//79
f 66//80 73//80 67//80
f 68//81 74//81 75//81
f 68//82 75//82 76//82
f 68//83 76//83 69//83
f 68//84 77//84 78//84
f 68//85 78//85 74//85
f 70//86 79//86 71//86
f 71//86 79//86 80//86
f 74//87 78//87 81//87
f 74//88 81//88 82//88
f 77//89 83//89 81//89
f 77//90 81//90 78//90
f 79//86 84//86 80//86
f 80//91 84//91 86//91
f 80//91 86//91 85//91
f 81//92 83//92 86//92
f 81//93 86//93 87//93
f 81//94 87//94 82//94
f 83//95 88//95 86//95
f 85//96 86//96 88//96
