# Blender 4.0.0
# www.blender.org
o decimated_mesh
v 0.040177 0.014354 0.008360
v 0.034099 0.010508 0.008192
v 0.034843 0.014353 0.008192
v 0.018192 0.010756 0.030427
v 0.018192 0.014353 0.030874
v 0.040019 0.010506 0.008242
v 0.033000 0.010768 0.025228
v 0.018383 0.014349 0.036673
v 0.018247 0.010754 0.036550
v 0.033117 0.014352 0.024664
vn -0.9988 0.0368 0.0330
vn 0.6286 0.1009 0.7712
vn 0.0085 -0.0016 -1.0000
vn -0.8108 0.0721 -0.5808
vn 0.9228 -0.0495 0.3821
vn -1.0000 -0.0011 0.0089
vn -0.0006 1.0000 0.0004
vn -0.0063 0.9999 -0.0157
vn 0.0003 0.9999 -0.0152
vn 0.6081 -0.0503 0.7923
vn 0.0314 0.0291 -0.9991
vn -0.7965 0.1541 -0.5847
vn 0.0003 1.0000 0.0006
vn -0.0002 1.0000 -0.0000
vn -0.0000 1.0000 -0.0000
vn 0.9172 0.0326 0.3972
vn -0.0002 1.0000 -0.0001
vn 0.0001 1.0000 0.0001
vn -0.0186 0.9996 -0.0231
vn 0.0003 1.0000 -0.0085
vn 0.0160 0.9999 0.0002
s 0
f 5//1 9//1 8//1
f 8//2 7//2 10//2
f 3//3 6//3 2//3
f 5//4 2//4 4//4
f 7//5 6//5 1//5
f 5//6 4//6 9//6
f 7//7 4//7 9//7
f 4//8 7//8 2//8
f 6//9 2//9 7//9
f 8//10 9//10 7//10
f 3//11 1//11 6//11
f 5//12 3//12 2//12
f 8//13 10//13 5//13
f 10//14 1//14 3//14
f 3//15 5//15 10//15
f 1//16 10//16 7//16
f 3//17 5//17 1//17
f 5//18 10//18 1//18
f 9//19 7//19 6//19
f 9//20 6//20 2//20
f 4//21 9//21 2//21
