# Blender 4.0.0
# www.blender.org
o decimated_mesh
v -0.040305 0.103411 0.016264
v -0.037250 0.103453 0.016272
v -0.043799 0.103426 -0.000007
v -0.036185 0.103110 0.016272
v -0.044616 0.103087 -0.000005
v -0.042461 0.103382 0.011267
v -0.041333 0.102955 0.016271
v -0.040524 0.103417 -0.000007
v -0.035674 0.102204 0.016272
v -0.039652 0.102993 -0.000007
v -0.044930 0.102071 -0.000002
v -0.041486 0.102327 0.016272
v -0.043332 0.102850 0.011737
v -0.044375 0.102854 0.004153
v -0.033629 0.086920 0.016272
v -0.037546 0.086920 -0.000007
v -0.040921 0.011074 -0.000003
v -0.039494 0.011074 0.010711
v -0.031598 0.011074 0.016272
v -0.035728 0.011074 -0.000007
v -0.037234 0.011074 0.016272
vn 0.0002 0.0079 1.0000
vn 0.4351 0.8949 -0.0991
vn -0.9641 -0.1290 0.2320
vn 0.8557 0.4829 -0.1857
vn 0.3067 0.9497 -0.0638
vn -0.9690 -0.0259 0.2458
vn -0.9271 -0.0429 0.3723
vn -0.5708 0.8173 0.0789
vn 0.0007 -0.0000 1.0000
vn -0.0000 1.0000 -0.0000
vn -0.8946 0.2194 0.3893
vn -0.0000 -0.0000 1.0000
vn -0.0028 -0.0035 1.0000
vn 0.0062 0.0013 1.0000
vn -0.9650 -0.1265 0.2297
vn -0.4921 0.8676 0.0713
vn -0.3830 0.9225 0.0491
vn -0.9528 0.2949 0.0717
vn -0.9720 -0.0233 0.2339
vn -0.9255 -0.0431 0.3762
vn -0.4431 0.8792 0.1750
vn -0.3984 0.9019 0.1668
vn -0.9904 -0.0213 0.1363
vn -0.9903 -0.0436 0.1319
vn -0.9896 -0.0429 0.1376
vn 0.0027 0.0014 1.0000
vn -0.0000 0.0036 1.0000
vn 0.0007 0.0013 1.0000
vn 0.0009 0.0001 1.0000
vn -0.0143 0.9999 0.0007
vn 0.0028 1.0000 0.0036
vn -0.0140 0.9999 0.0003
vn -0.0008 0.0030 1.0000
vn -0.9719 -0.0260 0.2338
vn -0.9690 -0.0232 0.2458
vn -0.9645 -0.1264 0.2320
vn -0.9647 -0.1291 0.2295
vn -0.0140 0.9999 0.0040
vn -0.0032 0.0224 0.9997
vn 0.0028 1.0000 -0.0028
vn -0.0062 -0.0003 -1.0000
vn -0.0032 -0.0001 -1.0000
vn -0.0007 -0.0001 -1.0000
vn -0.0000 -0.0000 -1.0000
vn -0.0000 0.0001 -1.0000
vn -0.0307 0.9995 0.0076
s 0
f 12//1 9//1 1//1
f 8//2 4//2 10//2
f 16//3 15//3 9//3
f 4//4 9//4 10//4
f 4//5 8//5 2//5
f 20//6 19//6 15//6
f 18//7 12//7 13//7
f 14//8 13//8 5//8
f 17//9 16//9 11//9
f 19//10 18//10 21//10
f 12//11 7//11 13//11
f 9//12 4//12 2//12
f 2//13 1//13 9//13
f 1//14 7//14 12//14
f 12//12 21//12 15//12
f 21//12 19//12 15//12
f 15//12 9//12 12//12
f 16//15 9//15 10//15
f 5//16 13//16 6//16
f 6//17 3//17 5//17
f 14//18 5//18 11//18
f 20//19 15//19 16//19
f 18//20 21//20 12//20
f 13//21 7//21 6//21
f 1//22 6//22 7//22
f 13//23 14//23 11//23
f 11//24 17//24 18//24
f 18//25 13//25 11//25
f 11//26 3//26 5//26
f 3//27 11//27 8//27
f 11//28 10//28 8//28
f 10//29 11//29 16//29
f 16//9 17//9 20//9
f 18//10 20//10 17//10
f 20//10 18//10 19//10
f 2//30 8//30 6//30
f 8//31 3//31 6//31
f 6//32 1//32 2//32
f 21//12 19//12 12//12
f 19//12 15//12 12//12
f 9//12 4//12 12//12
f 4//12 2//12 12//12
f 2//33 7//33 12//33
f 17//10 18//10 21//10
f 17//10 19//10 20//10
f 17//10 21//10 19//10
f 16//34 19//34 15//34
f 20//35 19//35 16//35
f 16//36 15//36 10//36
f 10//37 15//37 9//37
f 3//38 1//38 2//38
f 1//39 7//39 2//39
f 8//40 3//40 2//40
f 5//41 17//41 11//41
f 5//42 3//42 17//42
f 3//43 20//43 17//43
f 20//44 10//44 16//44
f 3//44 10//44 20//44
f 3//45 8//45 10//45
f 6//46 1//46 3//46
