# Blender 4.0.0
# www.blender.org
o decimated_mesh
v -0.025026 0.010795 -0.025168
v -0.025026 0.010795 -0.031999
v -0.011984 0.010795 -0.033161
v -0.011984 0.010795 -0.039003
v -0.011984 0.086925 -0.035405
v -0.025026 0.086916 -0.027810
v -0.025009 0.102847 -0.036943
v -0.022437 0.102120 -0.038891
v -0.020483 0.010795 -0.035419
v -0.011984 0.103004 -0.037730
v -0.021841 0.102909 -0.039092
v -0.011985 0.102173 -0.043242
v -0.025026 0.102862 -0.030319
v -0.012005 0.103012 -0.043000
v -0.021201 0.103441 -0.038237
v -0.025026 0.103420 -0.035560
v -0.011984 0.103427 -0.042050
v -0.011984 0.103438 -0.038792
v -0.025026 0.103422 -0.031559
vn -0.0000 1.0000 -0.0000
vn -0.9997 -0.0235 -0.0025
vn 0.3598 -0.2500 0.8989
vn -1.0000 0.0001 0.0001
vn -0.6109 -0.0431 -0.7906
vn 0.3838 0.0428 0.9224
vn -0.4891 -0.1248 -0.8632
vn -0.5031 -0.0255 -0.8639
vn 0.0001 1.0000 -0.0034
vn -0.1651 0.9052 -0.3916
vn 0.2042 0.9063 0.3701
vn 0.5517 -0.2105 0.8071
vn -1.0000 -0.0000 -0.0000
vn -1.0000 -0.0004 -0.0025
vn -1.0000 -0.0009 -0.0001
vn -1.0000 0.0001 -0.0017
vn -1.0000 -0.0000 0.0001
vn -0.9987 -0.0349 0.0369
vn -0.6009 -0.0428 -0.7982
vn 0.3882 0.0433 0.9206
vn 0.3840 -0.0545 0.9217
vn -0.4986 -0.1347 -0.8563
vn -0.5223 -0.0296 -0.8523
vn -0.0057 1.0000 -0.0005
vn 0.0005 1.0000 0.0031
vn -0.1737 0.8893 -0.4231
vn 0.2185 0.8894 0.4016
vn -0.2621 0.8951 -0.3607
vn -0.2651 0.8896 -0.3719
vn -0.5224 -0.0251 -0.8524
vn -0.5030 -0.0300 -0.8638
vn -0.6107 -0.0424 -0.7907
vn -0.6009 -0.0432 -0.7981
vn -1.0000 -0.0000 -0.0001
vn -0.9999 -0.0005 -0.0120
vn -1.0000 -0.0000 0.0002
vn -0.4993 -0.1240 -0.8575
vn -0.4883 -0.1356 -0.8620
vn -1.0000 0.0001 0.0004
vn -0.2693 0.8885 -0.3715
vn -0.2589 0.8951 -0.3631
vn -0.1608 0.9058 -0.3920
vn -0.1767 0.8896 -0.4211
s 0
f 3//1 9//1 1//1
f 7//2 13//2 16//2
f 14//3 11//3 12//3
f 18//4 12//4 10//4
f 7//5 8//5 9//5
f 4//6 12//6 8//6
f 13//7 10//7 5//7
f 6//8 5//8 3//8
f 15//9 18//9 17//9
f 17//10 14//10 11//10
f 19//11 10//11 18//11
f 11//12 7//12 8//12
f 1//1 9//1 2//1
f 9//1 3//1 4//1
f 2//13 1//13 6//13
f 6//14 13//14 7//14
f 19//15 16//15 13//15
f 7//16 2//16 6//16
f 4//17 5//17 12//17
f 12//18 17//18 14//18
f 5//17 10//17 12//17
f 17//4 12//4 18//4
f 5//13 4//13 3//13
f 9//19 2//19 7//19
f 9//20 4//20 8//20
f 8//21 12//21 11//21
f 13//22 5//22 6//22
f 6//23 3//23 1//23
f 15//24 16//24 19//24
f 19//25 18//25 15//25
f 15//26 17//26 11//26
f 19//27 13//27 10//27
f 11//28 7//28 15//28
f 7//29 16//29 15//29
f 2//1 3//1 4//1
f 2//1 1//1 3//1
f 3//30 1//30 5//30
f 5//31 1//31 6//31
f 6//13 19//13 1//13
f 19//13 2//13 1//13
f 7//32 8//32 2//32
f 8//33 9//33 2//33
f 9//1 2//1 4//1
f 19//34 16//34 2//34
f 16//35 7//35 2//35
f 12//36 5//36 17//36
f 17//17 5//17 18//17
f 18//13 5//13 10//13
f 10//37 5//37 6//37
f 10//38 6//38 13//38
f 13//39 19//39 6//39
f 16//40 11//40 7//40
f 15//41 11//41 16//41
f 14//42 15//42 17//42
f 14//43 11//43 15//43
