# Blender 4.0.0
# www.blender.org
o Mug_3_mug_3_1_collision_1
v 0.025787 0.007351 0.007706
v 0.018968 0.007351 0.019138
v 0.034139 0.010508 0.007706
v 0.039874 0.007351 0.007706
v 0.029206 0.010508 0.019138
v 0.035951 0.007351 0.019138
v 0.039950 0.010508 0.007706
v 0.039886 0.007814 0.007706
v 0.039829 0.007351 0.008063
v 0.035976 0.008308 0.019138
v 0.039697 0.010492 0.009617
v 0.039685 0.009400 0.009519
v 0.039746 0.007351 0.008683
v 0.036045 0.010508 0.019107
v 0.036321 0.007351 0.018250
v 0.039555 0.010508 0.010364
v 0.039500 0.008308 0.010373
v 0.039498 0.007351 0.010256
v 0.039670 0.008308 0.009422
v 0.039670 0.007351 0.009251
v 0.039685 0.007351 0.009144
v 0.038307 0.010508 0.013648
v 0.038769 0.007351 0.012339
v 0.038781 0.008308 0.012369
v 0.039173 0.007351 0.011330
v 0.039475 0.007351 0.010373
v 0.039155 0.008308 0.011465
v 0.039210 0.010508 0.011465
v 0.039130 0.007351 0.011465
vn 0.3459 -0.9153 0.2063
vn -0.0000 -0.0000 -1.0000
vn -0.0000 -1.0000 -0.0000
vn 0.2922 -0.9480 0.1261
vn -0.0000 -0.0000 1.0000
vn -0.0008 0.0143 0.9999
vn 0.0046 -0.0149 0.9999
vn -0.0000 1.0000 -0.0000
vn 0.0093 0.9998 -0.0189
vn -0.0000 1.0000 0.0081
vn 0.9917 -0.0264 0.1255
vn 0.9911 -0.0229 0.1309
vn 0.9912 -0.0233 0.1306
vn 0.9913 -0.0234 0.1293
vn 0.9911 -0.0238 0.1313
vn 0.9230 -0.0238 0.3840
vn 0.9821 -0.0240 0.1867
vn 0.9825 -0.0248 0.1846
vn 0.9841 -0.0267 0.1754
vn 0.9848 -0.0282 0.1713
vn 0.9891 -0.0260 0.1452
vn 0.9907 -0.0245 0.1340
vn 0.9909 -0.0242 0.1324
vn 0.9236 -0.0239 0.3826
vn 0.9236 -0.0222 0.3826
vn 0.9236 -0.0235 0.3827
vn 0.9236 -0.0231 0.3828
vn 0.9540 -0.0228 0.2989
vn 0.9532 -0.0241 0.3012
vn 0.9534 -0.0245 0.3008
vn 0.9817 -0.0253 0.1887
vn 0.9851 -0.0303 0.1691
vn 0.9237 -0.0233 0.3823
vn 0.9536 -0.0240 0.3001
vn 0.9238 -0.0238 0.3821
vn 0.9237 -0.0235 0.3823
vn 0.9526 -0.0245 0.3034
vn -0.0000 -1.0000 -0.0002
vn 0.9912 -0.0239 0.1303
vn 0.9912 -0.0238 0.1302
vn 0.9211 -0.0237 0.3885
vn 0.0046 0.0141 0.9999
vn 0.4474 0.8919 0.0664
vn 0.9236 -0.0234 0.3826
vn 0.9236 -0.0235 0.3826
vn 0.9236 -0.0231 0.3826
vn 0.9533 -0.0240 0.3011
vn 0.9533 -0.0242 0.3011
s 0
f 1//1 3//1 2//1
f 1//2 3//2 7//2
f 1//2 7//2 8//2
f 1//2 8//2 4//2
f 1//3 4//3 9//3
f 1//3 9//3 13//3
f 1//3 13//3 21//3
f 1//3 21//3 20//3
f 1//3 20//3 18//3
f 1//3 18//3 26//3
f 1//3 26//3 25//3
f 1//3 25//3 29//3
f 1//3 29//3 23//3
f 1//3 23//3 15//3
f 1//3 15//3 6//3
f 1//3 6//3 2//3
f 2//4 3//4 5//4
f 2//5 6//5 10//5
f 2//6 10//6 14//6
f 2//7 14//7 5//7
f 3//8 5//8 14//8
f 3//8 14//8 22//8
f 3//8 22//8 28//8
f 3//8 28//8 16//8
f 3//9 16//9 11//9
f 3//10 11//10 7//10
f 4//11 8//11 9//11
f 7//12 11//12 12//12
f 7//13 12//13 9//13
f 7//14 9//14 8//14
f 9//15 12//15 13//15
f 6//16 15//16 10//16
f 11//17 16//17 17//17
f 11//18 17//18 18//18
f 11//19 18//19 12//19
f 12//20 18//20 19//20
f 12//21 19//21 20//21
f 12//22 20//22 21//22
f 12//23 21//23 13//23
f 14//24 10//24 28//24
f 14//3 28//3 22//3
f 10//25 15//25 23//25
f 10//26 23//26 24//26
f 10//27 24//27 28//27
f 16//28 28//28 17//28
f 17//29 28//29 25//29
f 17//30 25//30 26//30
f 17//31 26//31 18//31
f 18//32 20//32 19//32
f 28//33 24//33 27//33
f 28//34 27//34 25//34
f 23//35 29//35 27//35
f 23//36 27//36 24//36
f 25//37 27//37 29//37
f 3//2 7//2 4//2
f 3//2 4//2 1//2
f 4//38 21//38 20//38
f 4//3 20//3 18//3
f 4//3 18//3 26//3
f 4//3 26//3 25//3
f 4//3 25//3 29//3
f 4//3 29//3 23//3
f 4//3 23//3 15//3
f 4//3 15//3 6//3
f 4//3 6//3 2//3
f 4//3 2//3 1//3
f 6//5 10//5 5//5
f 6//5 5//5 2//5
f 5//8 14//8 28//8
f 5//8 28//8 16//8
f 5//8 16//8 7//8
f 5//8 7//8 3//8
f 7//39 12//39 4//39
f 12//40 21//40 4//40
f 14//41 10//41 6//41
f 15//16 14//16 6//16
f 10//42 14//42 5//42
f 16//43 11//43 7//43
f 15//44 28//44 14//44
f 23//45 24//45 15//45
f 24//46 28//46 15//46
f 27//47 17//47 28//47
f 27//48 25//48 17//48
