# Blender 4.0.0
# www.blender.org
o decimated_mesh
v 0.059422 0.090786 0.006327
v 0.054903 0.094872 0.006249
v 0.054887 0.093471 0.006319
v 0.059925 0.081751 0.006323
v 0.061016 0.081751 0.006345
v 0.059467 0.091865 0.006090
v 0.054887 0.096051 0.005728
v 0.054885 0.092161 0.005912
v 0.058636 0.081751 0.005753
v 0.062108 0.085830 0.006170
v 0.060300 0.091995 0.005540
v 0.059227 0.093043 0.005606
v 0.057025 0.081751 0.004132
v 0.062493 0.081751 0.005851
v 0.062909 0.086319 0.005689
v 0.061021 0.092897 0.004286
v 0.055850 0.081749 0.000035
v 0.056384 0.081751 0.002684
v 0.064130 0.086342 0.004323
v 0.061505 0.093155 0.003290
v 0.055861 0.097377 0.003305
v 0.054887 0.090305 0.003821
v 0.062634 0.092347 -0.000021
v 0.054894 0.097506 0.004097
v 0.056714 0.081752 -0.003649
v 0.054887 0.089703 -0.002700
v 0.064893 0.086239 0.002625
v 0.063739 0.088544 0.003240
v 0.061657 0.093793 -0.000009
v 0.056056 0.097860 0.000574
v 0.054875 0.092790 -0.006210
v 0.063960 0.081751 0.004138
v 0.064502 0.081751 0.002729
v 0.065327 0.085743 -0.000006
v 0.064976 0.087310 -0.000020
v 0.061500 0.093155 -0.003305
v 0.056049 0.097844 -0.000677
v 0.063742 0.088551 -0.003256
v 0.060554 0.093120 -0.004530
v 0.061450 0.092130 -0.004312
v 0.054887 0.098315 0.000004
v 0.056079 0.097279 -0.003213
v 0.064962 0.081751 -0.000028
v 0.064893 0.086242 -0.002641
v 0.060424 0.091794 -0.005568
v 0.059191 0.093043 -0.005638
v 0.054891 0.097474 -0.004107
v 0.059925 0.081751 -0.006333
v 0.058533 0.081751 -0.005710
v 0.064519 0.081751 -0.002729
v 0.064138 0.086305 -0.004320
v 0.059202 0.091665 -0.006267
v 0.056470 0.096280 -0.004385
v 0.062855 0.086325 -0.005739
v 0.054887 0.094283 -0.006344
v 0.061016 0.081751 -0.006345
v 0.063992 0.081751 -0.004111
v 0.054887 0.095837 -0.005907
v 0.062108 0.085830 -0.006173
v 0.062522 0.081751 -0.005858
vn 0.6997 0.3354 0.6308
vn -0.0114 0.0058 -0.9999
vn -0.3983 -0.1709 0.9012
vn 0.7904 0.3776 0.4824
vn 0.5219 -0.0172 0.8529
vn 0.3959 0.1806 0.9004
vn 0.5052 0.2539 0.8248
vn 0.8918 0.4146 -0.1811
vn -0.8856 -0.2491 0.3920
vn -0.0205 -0.0016 0.9998
vn -0.9709 -0.1794 0.1584
vn 0.2791 0.9419 0.1867
vn 0.5900 0.7870 -0.1805
vn -0.6855 -0.2574 0.6811
vn 0.4293 0.3778 -0.8203
vn 0.5903 0.7871 0.1793
vn 0.2944 0.3897 0.8726
vn 0.8191 0.5546 -0.1463
vn 0.3073 -0.0423 -0.9507
vn -0.0000 1.0000 0.0001
vn 0.4717 0.6569 0.5882
vn 0.4670 0.6321 -0.6183
vn 0.8652 0.3310 -0.3766
vn 0.6800 0.4970 -0.5391
vn -0.6151 -0.2331 0.7532
vn 0.6362 0.4359 -0.6365
vn 0.9823 -0.0907 0.1640
vn 0.9687 0.2182 0.1186
vn 0.8106 0.3901 -0.4369
vn 0.7586 -0.0543 0.6493
vn 0.7410 -0.0364 -0.6706
vn 0.3056 0.9302 -0.2033
vn 0.9098 -0.0503 0.4119
vn -0.9608 -0.1985 0.1938
vn 0.8667 0.3355 0.3692
vn 0.3166 -0.0440 0.9475
vn -0.2107 -0.0856 -0.9738
vn 0.5374 0.5072 0.6738
vn 0.4772 0.7408 -0.4728
vn 0.5084 0.6965 0.5064
vn -0.4023 -0.1741 -0.8988
vn 0.9691 0.2162 -0.1187
vn 0.8204 0.5532 0.1446
vn -0.9518 -0.2104 -0.2232
vn -0.9752 -0.1677 -0.1442
vn 0.0756 0.0217 -0.9969
vn 0.9103 -0.0481 -0.4111
vn 0.9829 -0.0890 -0.1612
vn -0.9931 -0.1166 0.0108
vn 0.6924 0.3351 0.6390
vn 0.0228 0.0083 -0.9997
vn -1.0000 0.0008 0.0026
vn -0.9978 0.0149 0.0643
vn 1.0000 -0.0005 0.0037
vn 1.0000 -0.0009 -0.0020
vn 1.0000 -0.0003 0.0011
vn -1.0000 0.0044 -0.0020
vn -0.9998 0.0062 -0.0204
vn 1.0000 -0.0014 -0.0047
vn 1.0000 -0.0000 -0.0000
vn 1.0000 -0.0011 0.0019
vn 0.7905 0.3777 0.4821
vn 0.0918 0.0182 0.9956
vn 0.4135 0.1960 0.8892
vn 0.8979 0.3970 -0.1902
vn 0.8819 0.4273 -0.1993
vn 0.5866 0.8098 -0.0143
vn 0.0278 0.0498 0.9984
vn -0.0020 -0.0005 1.0000
vn 0.2760 0.9431 0.1857
vn 0.5951 0.7859 -0.1677
vn 0.5893 0.7872 0.1815
vn 0.4000 0.1848 -0.8977
vn 0.3027 0.4142 0.8584
vn -0.0000 1.0000 -0.0000
vn 0.0001 1.0000 -0.0002
vn -0.0003 1.0000 -0.0009
vn -0.0003 1.0000 0.0008
vn 0.0001 1.0000 -0.0001
vn -0.0000 1.0000 -0.0002
vn 0.0001 1.0000 0.0002
vn 0.0001 1.0000 -0.0000
vn 0.4792 0.6607 0.5778
vn 0.4447 0.6230 -0.6435
vn 0.4034 0.6766 -0.6160
vn 0.7035 0.3254 -0.6318
vn 0.6875 0.3258 -0.6490
vn -0.7221 -0.2682 -0.6376
vn 0.9808 -0.0814 0.1771
vn 0.5338 0.4882 -0.6905
vn 0.7961 0.3679 -0.4805
vn 0.7453 -0.0442 0.6652
vn 0.4642 0.2330 -0.8545
vn 0.7642 -0.0540 -0.6427
vn 0.2696 0.9435 -0.1926
vn 0.9309 -0.0728 0.3580
vn 0.4552 0.4161 0.7872
vn 0.8917 0.4147 0.1814
vn 0.8831 0.4257 0.1971
vn 0.8972 0.3988 0.1895
vn 0.1783 0.2660 -0.9474
vn 0.1680 0.2042 0.9644
vn 0.5408 0.7204 -0.4342
vn 0.5404 0.7186 -0.4376
vn 0.5367 0.7160 0.4464
vn 0.5102 -0.0146 -0.8599
vn 0.3683 0.9296 -0.0146
vn 0.9319 -0.0705 -0.3559
vn 0.9812 -0.0782 -0.1765
vn 0.3115 0.3965 -0.8636
vn -0.0005 0.0020 1.0000
vn -0.0205 -0.0085 0.9998
vn -0.0000 1.0000 -0.0004
vn 0.4151 0.1933 0.8890
vn 0.3879 0.1816 0.9036
vn 0.0003 1.0000 -0.0006
vn -0.0000 1.0000 0.0004
vn -0.0002 1.0000 0.0001
vn -0.0003 1.0000 -0.0000
vn -0.0003 1.0000 -0.0001
vn -0.0002 1.0000 -0.0001
vn 0.0009 1.0000 -0.0009
vn 0.0040 1.0000 -0.0018
vn 0.0015 1.0000 0.0012
vn 0.0004 1.0000 0.0007
vn 0.3112 0.4146 0.8551
vn 0.2876 0.3904 0.8746
vn 1.0000 -0.0085 -0.0035
vn 1.0000 -0.0014 -0.0007
vn 1.0000 -0.0007 -0.0009
vn 1.0000 0.0019 -0.0007
vn -0.0114 -0.0055 -0.9999
vn 0.0254 0.0125 -0.9996
vn 1.0000 0.0036 -0.0003
vn 1.0000 -0.0043 0.0019
vn 0.5903 0.7894 -0.1686
vn 0.5937 0.7843 -0.1801
s 0
f 16//1 15//1 19//1
f 52//2 56//2 48//2
f 3//3 9//3 4//3
f 16//4 19//4 28//4
f 14//5 15//5 10//5
f 15//6 6//6 1//6
f 11//7 6//7 15//7
f 23//8 35//8 38//8
f 13//9 8//9 18//9
f 4//10 5//10 1//10
f 8//11 22//11 17//11
f 30//12 24//12 21//12
f 36//13 37//13 29//13
f 13//14 9//14 8//14
f 45//15 52//15 46//15
f 30//16 20//16 29//16
f 2//17 12//17 7//17
f 36//18 29//18 23//18
f 59//19 60//19 56//19
f 33//20 13//20 32//20
f 12//21 24//21 7//21
f 53//22 39//22 46//22
f 44//23 51//23 38//23
f 36//24 40//24 39//24
f 8//25 9//25 3//25
f 39//26 40//26 45//26
f 34//27 33//27 43//27
f 34//28 35//28 27//28
f 36//29 38//29 40//29
f 19//30 14//30 32//30
f 51//31 60//31 54//31
f 47//32 37//32 42//32
f 32//33 27//33 19//33
f 17//34 18//34 8//34
f 27//35 28//35 19//35
f 10//36 5//36 14//36
f 31//37 55//37 48//37
f 11//38 16//38 12//38
f 53//39 47//39 42//39
f 16//40 21//40 24//40
f 49//41 31//41 48//41
f 44//42 35//42 34//42
f 20//43 23//43 29//43
f 31//44 25//44 17//44
f 26//45 31//45 17//45
f 56//46 52//46 59//46
f 44//47 57//47 51//47
f 50//48 34//48 43//48
f 26//49 17//49 22//49
f 16//50 11//50 15//50
f 48//51 55//51 52//51
f 8//52 3//52 7//52
f 3//53 2//53 7//53
f 7//54 8//54 24//54
f 24//55 22//55 41//55
f 41//56 26//56 47//56
f 47//57 58//57 31//57
f 31//58 58//58 55//58
f 31//59 47//59 26//59
f 26//60 41//60 22//60
f 22//61 24//61 8//61
f 28//62 20//62 16//62
f 5//63 10//63 1//63
f 1//64 10//64 15//64
f 44//65 38//65 35//65
f 36//66 23//66 38//66
f 29//67 37//67 30//67
f 2//68 3//68 1//68
f 3//69 4//69 1//69
f 41//70 24//70 30//70
f 36//71 42//71 37//71
f 30//72 21//72 20//72
f 54//73 59//73 52//73
f 2//74 6//74 12//74
f 32//20 9//20 14//20
f 5//75 9//75 4//75
f 14//76 9//76 5//76
f 9//75 32//75 13//75
f 13//75 33//75 18//75
f 18//77 43//77 17//77
f 17//78 43//78 25//78
f 25//79 57//79 49//79
f 49//80 56//80 48//80
f 60//76 49//76 57//76
f 60//81 56//81 49//81
f 57//79 25//79 50//79
f 50//82 25//82 43//82
f 43//75 18//75 33//75
f 12//83 16//83 24//83
f 46//84 58//84 53//84
f 58//85 47//85 53//85
f 51//86 54//86 40//86
f 54//87 45//87 40//87
f 49//88 25//88 31//88
f 34//89 27//89 33//89
f 45//90 46//90 39//90
f 51//91 40//91 38//91
f 19//92 15//92 14//92
f 54//93 52//93 45//93
f 51//94 57//94 60//94
f 47//95 41//95 37//95
f 32//96 33//96 27//96
f 11//97 12//97 6//97
f 35//98 23//98 28//98
f 23//99 20//99 28//99
f 28//100 27//100 35//100
f 52//101 55//101 58//101
f 1//102 6//102 2//102
f 42//103 36//103 53//103
f 53//104 36//104 39//104
f 16//105 20//105 21//105
f 60//106 59//106 54//106
f 30//107 37//107 41//107
f 44//108 50//108 57//108
f 50//109 44//109 34//109
f 52//110 58//110 46//110
f 1//111 3//111 5//111
f 3//112 4//112 5//112
f 4//113 5//113 17//113
f 17//113 5//113 14//113
f 15//114 6//114 10//114
f 6//115 1//115 10//115
f 9//116 4//116 17//116
f 56//117 17//117 60//117
f 60//118 17//118 57//118
f 57//119 17//119 50//119
f 50//119 17//119 43//119
f 43//120 17//120 33//120
f 33//120 17//120 32//120
f 32//121 17//121 14//121
f 9//122 17//122 13//122
f 13//123 17//123 18//123
f 25//124 17//124 49//124
f 49//125 17//125 48//125
f 48//117 17//117 56//117
f 12//126 7//126 6//126
f 7//127 2//127 6//127
f 24//128 7//128 41//128
f 41//129 7//129 31//129
f 31//130 7//130 8//130
f 31//131 8//131 22//131
f 48//132 55//132 56//132
f 55//133 52//133 56//133
f 31//134 22//134 26//134
f 41//135 31//135 47//135
f 29//136 42//136 37//136
f 29//137 36//137 42//137
