# Blender 4.0.0
# www.blender.org
o decimated_mesh
v -0.011982 0.010800 -0.039004
v -0.011982 0.010800 -0.033160
v -0.011979 0.102010 -0.043289
v -0.010547 0.010800 -0.039550
v -0.000125 0.010800 -0.040898
v 0.014630 0.010764 -0.032072
v 0.010427 0.010763 -0.039566
v 0.014630 0.010764 -0.037908
v 0.014630 0.086883 -0.034309
v -0.011982 0.086919 -0.035407
v 0.011532 0.102109 -0.043373
v 0.000148 0.102813 -0.044892
v 0.014630 0.102913 -0.036558
v -0.011982 0.102995 -0.037723
v -0.008772 0.102928 -0.043757
v 0.009030 0.102910 -0.043702
v 0.014611 0.102910 -0.042170
v -0.011985 0.103236 -0.042736
v -0.000251 0.103415 -0.043811
v 0.014630 0.103417 -0.037669
v 0.011882 0.103426 -0.042035
v 0.014630 0.103408 -0.040943
v -0.011983 0.103443 -0.038822
vn 0.0011 1.0000 -0.0030
vn -0.0406 0.1388 0.9895
vn 1.0000 -0.0074 -0.0033
vn 0.1371 0.8554 -0.4994
vn -0.0408 0.0294 0.9987
vn -0.0000 1.0000 -0.0000
vn -0.0525 0.8642 -0.5005
vn -0.0153 0.9106 0.4131
vn -0.3553 -0.0439 -0.9337
vn 0.2431 0.3960 -0.8855
vn -0.2431 0.3977 -0.8847
vn -1.0000 -0.0055 0.0010
vn -1.0000 -0.0000 -0.0004
vn -1.0000 -0.0000 -0.0000
vn -1.0000 -0.0001 -0.0006
vn -1.0000 -0.0011 -0.0004
vn 0.0077 1.0000 -0.0028
vn -0.0013 1.0000 0.0029
vn -0.0201 0.9984 -0.0528
vn 0.0534 0.8807 -0.4706
vn -0.0429 0.1424 0.9889
vn 1.0000 -0.0005 -0.0034
vn 1.0000 -0.0000 -0.0000
vn 1.0000 0.0001 -0.0022
vn 0.9993 -0.0380 0.0001
vn 0.0547 0.9236 -0.3795
vn -0.0412 0.0295 0.9987
vn 0.0038 1.0000 -0.0022
vn 0.0002 -1.0000 -0.0000
vn 0.0013 1.0000 0.0020
vn 0.1546 0.9145 -0.3738
vn -0.0155 0.9257 0.3778
vn -0.0540 0.8963 -0.4402
vn 0.1327 0.0078 -0.9911
vn 0.1295 -0.0429 -0.9907
vn 0.1250 -0.0434 -0.9912
vn -0.1267 -0.0629 -0.9899
vn -0.1282 -0.0426 -0.9908
vn -0.1281 -0.0426 -0.9908
vn 0.3666 -0.0429 -0.9294
vn 0.3734 -0.0431 -0.9267
vn -0.9999 -0.0004 -0.0102
vn -1.0000 -0.0000 0.0004
vn -1.0000 0.0001 0.0006
vn -1.0000 0.0016 0.0007
vn -0.0001 1.0000 -0.0058
vn 0.0009 1.0000 0.0015
vn -0.1266 -0.0426 -0.9910
vn -0.1281 -0.0428 -0.9908
vn -0.1326 -0.0427 -0.9903
vn 0.0018 1.0000 0.0046
vn 0.0016 1.0000 -0.0000
vn 0.0014 1.0000 -0.0009
vn 0.0018 0.9999 0.0137
vn 0.3666 -0.0432 -0.9294
vn 0.9999 -0.0005 -0.0151
vn 0.3733 -0.0428 -0.9267
s 0
f 23//1 20//1 19//1
f 13//2 10//2 9//2
f 20//3 13//3 17//3
f 21//4 17//4 16//4
f 9//5 2//5 6//5
f 2//6 4//6 1//6
f 15//7 19//7 12//7
f 20//8 14//8 13//8
f 3//9 4//9 1//9
f 17//10 11//10 16//10
f 18//11 15//11 3//11
f 23//12 18//12 3//12
f 3//13 1//13 10//13
f 1//14 2//14 10//14
f 10//15 14//15 3//15
f 3//16 14//16 23//16
f 20//17 22//17 21//17
f 21//18 19//18 20//18
f 19//19 18//19 23//19
f 19//20 16//20 12//20
f 13//21 14//21 10//21
f 13//22 9//22 17//22
f 9//23 6//23 8//23
f 17//24 9//24 8//24
f 22//25 20//25 17//25
f 19//26 21//26 16//26
f 9//27 10//27 2//27
f 4//6 2//6 5//6
f 5//28 6//28 7//28
f 7//29 8//29 6//29
f 6//30 5//30 2//30
f 21//31 22//31 17//31
f 20//32 23//32 14//32
f 15//33 18//33 19//33
f 16//34 11//34 12//34
f 11//35 7//35 12//35
f 7//36 5//36 12//36
f 15//37 12//37 3//37
f 12//38 5//38 3//38
f 5//39 4//39 3//39
f 8//40 7//40 17//40
f 7//41 11//41 17//41
f 3//42 1//42 18//42
f 1//14 2//14 18//14
f 2//43 10//43 18//43
f 10//44 14//44 18//44
f 14//45 23//45 18//45
f 21//46 19//46 23//46
f 20//47 21//47 23//47
f 12//48 5//48 15//48
f 5//49 4//49 15//49
f 4//50 3//50 15//50
f 4//51 1//51 7//51
f 7//52 1//52 2//52
f 7//53 2//53 6//53
f 13//23 9//23 6//23
f 13//23 6//23 8//23
f 13//23 8//23 22//23
f 13//23 22//23 20//23
f 7//54 5//54 4//54
f 11//55 8//55 7//55
f 8//56 17//56 22//56
f 8//57 11//57 17//57
