# Blender 4.0.0
# www.blender.org
o decimated_mesh
v 0.039661 0.040522 -0.014465
v 0.039879 0.017709 -0.013122
v 0.039857 0.040549 0.013169
v 0.039025 0.017709 0.015474
v 0.026233 0.017709 -0.032157
v 0.026233 0.040549 -0.032157
v 0.026233 0.040549 0.032157
v 0.020943 0.017709 0.036256
v 0.014175 0.040549 -0.039002
v 0.014146 0.017709 -0.038987
v 0.006966 0.040566 0.041339
v -0.000002 0.017709 0.041506
v 0.000002 0.017709 -0.041506
v 0.000000 0.040549 -0.041478
v -0.014146 0.017709 0.038987
v -0.014175 0.040549 0.039002
v -0.014073 0.040549 -0.039019
v -0.020943 0.017709 -0.036256
v -0.026233 0.040549 -0.032157
v -0.036274 0.017709 -0.020065
v -0.026233 0.040549 0.032157
v -0.026233 0.017709 0.032157
v -0.036285 0.040549 0.020065
v -0.040666 0.040549 0.007945
v -0.039275 0.017709 0.014450
v -0.039301 0.040549 -0.014242
v -0.040675 0.017709 -0.007922
vn 0.0003 1.0000 -0.0000
vn 0.9990 -0.0334 0.0298
vn -0.9395 -0.0377 -0.3405
vn -0.1722 0.0012 -0.9851
vn -0.4937 -0.0000 0.8697
vn 0.7965 -0.0000 -0.6046
vn -0.9972 0.0430 -0.0614
vn 0.1721 0.0012 -0.9851
vn -0.8071 0.0432 -0.5888
vn -0.8045 -0.0403 0.5926
vn 0.4937 -0.0000 -0.8697
vn -0.1754 -0.0009 0.9845
vn 0.7532 -0.0568 0.6553
vn -0.0000 1.0000 -0.0000
vn 0.0003 1.0000 0.0003
vn 0.0013 1.0000 0.0010
vn -0.0001 1.0000 -0.0007
vn -0.0015 1.0000 0.0027
vn -0.0009 1.0000 0.0011
vn -0.0001 1.0000 -0.0010
vn -0.0000 1.0000 0.0011
vn 0.9999 0.0091 -0.0071
vn -0.0000 -1.0000 -0.0000
vn -0.2429 -0.0442 -0.9690
vn 0.4294 0.0623 0.9010
vn -0.4920 -0.0012 0.8706
vn 0.8124 -0.0265 -0.5825
vn -0.9971 -0.0430 0.0624
vn 0.1754 -0.0009 -0.9845
vn -0.7254 -0.0447 -0.6869
vn -0.7690 -0.0000 0.6393
vn -0.9397 0.0395 0.3397
vn -0.4910 0.0425 -0.8701
vn 0.4920 -0.0012 -0.8706
vn -0.1098 0.0407 0.9931
vn 0.2426 -0.0669 0.9678
vn 0.8121 0.0292 0.5828
vn 0.0034 1.0000 -0.0010
vn 0.0004 1.0000 -0.0001
vn -0.0005 1.0000 0.0002
vn -0.0004 1.0000 -0.0000
vn -0.0002 1.0000 -0.0001
vn -0.0001 1.0000 -0.0002
vn -0.0000 1.0000 -0.0002
vn 0.0001 1.0000 -0.0002
vn -0.0007 1.0000 0.0005
vn -0.0010 1.0000 0.0018
s 0
f 26//1 23//1 1//1
f 2//2 3//2 4//2
f 26//3 20//3 27//3
f 13//4 17//4 14//4
f 22//5 16//5 21//5
f 1//6 5//6 6//6
f 27//7 24//7 26//7
f 9//8 13//8 14//8
f 19//9 20//9 26//9
f 22//10 23//10 25//10
f 5//11 9//11 6//11
f 12//12 16//12 15//12
f 4//13 7//13 8//13
f 19//14 26//14 17//14
f 17//15 26//15 1//15
f 23//14 21//14 16//14
f 11//16 7//16 3//16
f 11//17 3//17 23//17
f 1//18 6//18 9//18
f 14//14 17//14 9//14
f 24//14 23//14 26//14
f 23//19 16//19 11//19
f 23//20 3//20 1//20
f 1//21 9//21 17//21
f 2//22 1//22 3//22
f 15//14 25//14 22//14
f 10//14 18//14 20//14
f 10//23 5//23 2//23
f 4//14 25//14 8//14
f 8//14 15//14 12//14
f 4//14 2//14 25//14
f 15//14 8//14 25//14
f 20//14 2//14 10//14
f 27//14 25//14 20//14
f 18//14 10//14 13//14
f 20//14 25//14 2//14
f 13//24 18//24 17//24
f 7//25 11//25 8//25
f 22//26 15//26 16//26
f 1//27 2//27 5//27
f 27//28 25//28 24//28
f 9//29 10//29 13//29
f 19//30 18//30 20//30
f 22//31 21//31 23//31
f 23//32 24//32 25//32
f 19//33 17//33 18//33
f 5//34 10//34 9//34
f 12//35 11//35 16//35
f 12//36 8//36 11//36
f 4//37 3//37 7//37
f 27//14 2//14 20//14
f 20//14 2//14 18//14
f 18//14 2//14 13//14
f 13//14 2//14 10//14
f 4//14 2//14 8//14
f 8//14 2//14 12//14
f 12//14 2//14 15//14
f 15//14 2//14 22//14
f 22//14 2//14 25//14
f 25//14 2//14 27//14
f 6//38 3//38 1//38
f 6//39 11//39 3//39
f 23//40 11//40 24//40
f 11//41 26//41 24//41
f 11//42 19//42 26//42
f 11//43 17//43 19//43
f 11//44 14//44 17//44
f 11//44 9//44 14//44
f 11//45 6//45 9//45
f 23//46 21//46 11//46
f 21//47 16//47 11//47
