# Blender 4.0.0
# www.blender.org
o decimated_mesh
v 0.161946 -0.007124 -0.170446
v 0.166109 -0.005280 -0.167682
v 0.165256 -0.007682 -0.167726
v 0.161203 -0.010720 -0.166826
v 0.022776 -0.037832 -0.144554
v 0.165676 -0.003074 -0.167384
v 0.168680 -0.000235 -0.163387
v 0.168807 -0.004037 -0.164178
v 0.163166 -0.010403 -0.163917
v 0.123501 -0.044396 -0.096736
v 0.004657 -0.041975 -0.140047
v 0.004657 -0.014249 -0.151658
v 0.004657 0.022415 -0.145662
v 0.004657 -0.039479 -0.142194
v 0.163342 0.001093 -0.163714
v 0.172015 -0.003599 -0.147067
v 0.049054 -0.041263 -0.140293
v 0.004657 -0.007728 -0.152477
v 0.099051 -0.003204 -0.163369
v 0.004652 0.026054 -0.143026
v 0.172587 -0.005692 -0.134053
v 0.099874 -0.043207 -0.127908
v 0.150940 -0.028651 -0.110344
v 0.123118 0.014710 -0.153993
v 0.166604 0.007207 -0.132983
v 0.139347 0.022193 -0.127647
v 0.172726 -0.002183 -0.133207
v 0.004657 -0.055052 -0.114901
v 0.046640 0.035123 -0.131911
v 0.116963 0.044580 -0.046502
v 0.135289 0.037468 -0.008244
v 0.138411 0.035120 -0.008244
v 0.095677 0.036046 -0.121320
v 0.172574 -0.004931 -0.129875
v 0.148050 -0.027990 -0.008244
v 0.142251 -0.037898 -0.008244
v 0.138404 -0.041890 -0.008241
v 0.123794 -0.052135 -0.026813
v 0.112102 0.048135 -0.034190
v 0.141129 0.031193 -0.008244
v 0.149062 -0.023195 -0.008245
v 0.154727 -0.007008 -0.018851
v 0.004657 -0.059859 -0.101532
v 0.059121 -0.057886 -0.092457
v 0.004657 0.045720 -0.110343
v 0.155923 -0.001560 -0.022019
v 0.143396 0.025673 -0.008260
v 0.023919 0.048348 -0.104781
v 0.075112 -0.066267 -0.008270
v 0.085357 0.056979 -0.008244
v 0.149809 -0.001861 -0.008244
v 0.004657 -0.066737 -0.055508
v 0.122967 -0.051360 -0.008244
v 0.004660 0.055866 -0.068576
v 0.067093 0.059658 -0.008244
v 0.004657 -0.067048 -0.008244
v 0.004657 0.059434 -0.008244
vn 0.6018 -0.1994 -0.7734
vn 0.3841 -0.6933 -0.6098
vn 0.4751 0.2086 -0.8548
vn 0.6936 0.2283 -0.6833
vn 0.7546 0.1577 -0.6369
vn 0.8064 -0.2766 -0.5227
vn 0.5367 -0.7976 -0.2752
vn -0.0036 0.9982 -0.0590
vn 0.3634 0.9299 0.0576
vn 0.5045 0.8595 -0.0819
vn -0.0000 -0.0000 -1.0000
vn 1.0000 -0.0000 -0.0000
vn 0.8366 0.5438 0.0663
vn -0.1122 -0.1239 -0.9859
vn 0.2726 0.9441 -0.1853
vn 0.0234 -0.7032 -0.7106
vn 0.0513 0.6762 -0.7349
vn 0.0672 0.9179 -0.3911
vn 0.9231 0.3591 0.1375
vn 0.1970 -0.9744 -0.1087
vn -0.1222 0.2189 -0.9681
vn -0.0955 -0.3496 -0.9320
vn 0.0266 -0.7120 -0.7017
vn -0.0395 -0.6515 -0.7576
vn 0.0113 0.7534 -0.6574
vn 0.0117 -0.8871 -0.4614
vn 0.4060 -0.8893 -0.2103
vn 0.8923 0.2081 0.4006
vn 0.7200 -0.6940 -0.0016
vn 0.2178 0.7110 -0.6686
vn 0.9132 0.0358 0.4060
vn 0.9800 -0.1248 0.1552
vn 0.8344 0.5458 -0.0766
vn 0.5220 -0.8509 0.0588
vn 0.4575 -0.8836 -0.0997
vn 0.9800 0.0712 -0.1856
vn 0.8604 -0.5035 0.0780
vn 0.5404 0.8374 -0.0819
vn 0.2458 0.8990 -0.3624
vn 0.1458 0.9729 -0.1792
vn -0.0196 0.5792 -0.8149
vn -0.0188 0.5866 -0.8097
vn 0.0007 0.6026 -0.7980
vn 0.6005 0.7984 -0.0429
vn 0.0833 -0.9899 -0.1144
vn 0.0603 -0.9872 -0.1475
vn 0.3110 -0.9111 -0.2705
vn 0.3403 0.9185 -0.2016
vn 0.4763 0.8769 -0.0651
vn -0.0043 -0.0016 -1.0000
vn 0.0053 0.0051 -1.0000
vn -0.0003 -0.0002 -1.0000
vn -0.0000 0.0002 -1.0000
vn -0.0004 0.0002 -1.0000
vn 0.0005 0.0002 -1.0000
vn 0.0004 -0.0004 -1.0000
vn 0.0003 -0.0002 -1.0000
vn -0.0014 0.0006 -1.0000
vn 1.0000 -0.0000 0.0001
vn 1.0000 -0.0000 -0.0001
vn 1.0000 0.0002 -0.0003
vn -1.0000 0.0006 -0.0027
vn 1.0000 -0.0002 -0.0001
vn 0.5993 -0.7999 -0.0301
vn 0.8209 0.5681 0.0584
vn 0.2450 0.9530 -0.1784
vn 0.0084 -0.7528 -0.6582
vn 0.0032 0.8999 -0.4360
vn 0.9213 0.3782 0.0903
vn 0.2269 -0.9640 -0.1391
vn 0.1902 -0.9649 -0.1809
vn -0.0835 -0.3935 -0.9155
vn 0.8920 0.4427 -0.0910
vn 0.4289 -0.8824 -0.1932
vn 0.0997 -0.8355 -0.5403
vn 0.7777 -0.6144 -0.1330
vn 0.7700 -0.6249 -0.1284
vn 0.7275 -0.6861 -0.0002
vn 0.9990 -0.0422 0.0109
vn -0.1134 -0.0259 -0.9932
vn 0.9812 0.1246 0.1476
vn 0.2970 -0.9534 0.0530
vn -0.0845 0.3367 -0.9378
vn 0.9984 -0.0279 -0.0484
vn -0.0643 0.9697 -0.2355
vn -0.0485 0.8558 -0.5150
vn 0.0901 -0.9372 -0.3370
vn 0.0932 -0.9342 -0.3443
vn 0.0460 -0.9405 -0.3365
vn 0.9008 -0.0316 0.4330
vn 0.0111 -0.9999 -0.0066
vn 0.8753 -0.4752 0.0894
vn 0.2110 0.8984 -0.3852
vn 0.2260 0.8916 -0.3924
vn 0.1308 0.9784 -0.1604
vn 0.0909 0.9836 -0.1559
vn 0.1426 0.9724 -0.1845
vn 0.0897 0.8667 -0.4907
vn 0.9580 -0.2022 0.2031
vn 0.9615 -0.2301 0.1503
vn 0.7058 -0.6995 -0.1123
vn 0.6726 -0.7337 -0.0964
vn 0.0280 -0.7121 -0.7015
vn 0.0232 -0.7038 -0.7100
vn 0.7709 -0.6233 -0.1310
vn 0.4368 -0.8772 -0.1991
vn 0.4070 -0.8894 -0.2084
vn 0.0605 -0.9178 -0.3925
vn 1.0000 0.0001 0.0002
vn 1.0000 -0.0000 0.0004
vn 0.2016 0.8890 -0.4112
vn 0.2312 0.8989 -0.3721
vn 0.4457 0.8761 -0.1840
vn 0.7854 -0.6048 -0.1318
vn 0.8788 -0.4689 0.0883
vn 0.8604 -0.5035 0.0786
vn 0.2391 -0.9650 -0.1078
vn 0.1947 -0.9717 -0.1337
vn 0.0840 -0.9511 -0.2973
vn 0.0707 -0.9387 -0.3375
vn 1.0000 0.0001 -0.0000
vn 1.0000 -0.0005 0.0001
vn 1.0000 -0.0001 -0.0001
vn 0.1279 0.9768 -0.1716
vn 0.1431 0.9754 -0.1675
vn 0.1613 0.9729 -0.1654
vn 0.4611 0.8798 -0.1155
vn 0.9171 0.3763 0.1314
vn 0.9244 0.3556 0.1377
vn -0.0002 -0.0001 -1.0000
vn -0.0019 0.0011 -1.0000
vn -0.0001 -0.0000 -1.0000
vn -0.0002 -0.0000 -1.0000
vn -0.0004 0.0022 -1.0000
vn 0.0009 -0.0012 -1.0000
vn -0.0004 -0.0000 -1.0000
vn -0.0194 -0.0051 -0.9998
s 0
f 1//1 2//1 3//1
f 1//2 3//2 4//2
f 1//3 6//3 2//3
f 2//4 6//4 7//4
f 2//5 7//5 8//5
f 2//6 8//6 3//6
f 3//7 9//7 4//7
f 54//8 57//8 55//8
f 50//9 31//9 39//9
f 30//10 31//10 25//10
f 53//11 50//11 51//11
f 18//12 45//12 28//12
f 40//13 27//13 25//13
f 1//14 12//14 18//14
f 33//15 30//15 26//15
f 5//16 4//16 17//16
f 6//17 24//17 15//17
f 48//18 33//18 29//18
f 46//19 27//19 40//19
f 10//20 38//20 44//20
f 19//21 18//21 13//21
f 1//22 14//22 12//22
f 5//23 1//23 4//23
f 5//24 11//24 14//24
f 20//25 29//25 24//25
f 17//26 28//26 11//26
f 23//27 10//27 9//27
f 46//28 47//28 51//28
f 36//29 37//29 23//29
f 15//30 7//30 6//30
f 51//31 42//31 46//31
f 34//32 46//32 42//32
f 25//33 27//33 7//33
f 37//34 53//34 38//34
f 10//35 23//35 38//35
f 8//36 7//36 16//36
f 36//37 34//37 35//37
f 26//38 30//38 7//38
f 26//39 7//39 15//39
f 48//40 55//40 39//40
f 1//41 13//41 24//41
f 13//42 20//42 24//42
f 24//43 6//43 1//43
f 31//44 32//44 25//44
f 49//45 52//45 44//45
f 52//46 43//46 44//46
f 22//47 4//47 10//47
f 25//48 7//48 30//48
f 30//49 39//49 31//49
f 51//50 31//50 47//50
f 47//51 31//51 40//51
f 40//52 31//52 32//52
f 31//11 51//11 50//11
f 50//53 49//53 55//53
f 55//11 56//11 57//11
f 56//54 55//54 49//54
f 49//55 50//55 53//55
f 53//56 41//56 37//56
f 36//57 41//57 35//57
f 41//11 53//11 51//11
f 41//58 36//58 37//58
f 57//59 52//59 54//59
f 54//60 43//60 45//60
f 45//61 18//61 20//61
f 45//12 43//12 28//12
f 13//62 18//62 20//62
f 12//12 28//12 14//12
f 18//12 28//12 12//12
f 11//63 14//63 28//63
f 43//12 54//12 52//12
f 52//12 57//12 56//12
f 38//64 23//64 37//64
f 25//65 32//65 40//65
f 33//66 39//66 30//66
f 17//67 11//67 5//67
f 29//68 45//68 48//68
f 40//69 47//69 46//69
f 38//70 49//70 44//70
f 44//71 22//71 10//71
f 14//72 1//72 5//72
f 7//73 27//73 16//73
f 10//74 4//74 9//74
f 4//75 22//75 17//75
f 21//76 3//76 16//76
f 3//77 8//77 16//77
f 21//78 36//78 23//78
f 27//79 34//79 21//79
f 1//80 18//80 19//80
f 27//81 46//81 34//81
f 38//82 53//82 49//82
f 13//83 1//83 19//83
f 21//84 16//84 27//84
f 48//85 45//85 54//85
f 20//86 45//86 29//86
f 43//87 28//87 44//87
f 28//88 17//88 44//88
f 22//89 44//89 17//89
f 51//90 41//90 42//90
f 56//91 52//91 49//91
f 36//92 21//92 34//92
f 15//93 24//93 26//93
f 24//94 33//94 26//94
f 39//95 33//95 48//95
f 48//96 54//96 55//96
f 55//97 50//97 39//97
f 29//98 33//98 24//98
f 42//99 41//99 35//99
f 34//100 42//100 35//100
f 3//101 21//101 9//101
f 9//102 21//102 23//102
f 4//103 17//103 1//103
f 17//104 5//104 1//104
f 8//105 21//105 3//105
f 9//106 23//106 4//106
f 23//107 10//107 4//107
f 22//108 28//108 17//108
f 11//109 14//109 20//109
f 20//109 14//109 12//109
f 20//110 12//110 18//110
f 33//111 15//111 24//111
f 33//112 26//112 15//112
f 26//113 25//113 7//113
f 16//114 21//114 8//114
f 34//115 35//115 21//115
f 35//116 36//116 21//116
f 38//117 49//117 10//117
f 49//118 44//118 10//118
f 44//119 43//119 22//119
f 43//120 28//120 22//120
f 43//121 28//121 20//121
f 20//121 28//121 11//121
f 43//121 20//121 52//121
f 52//121 20//121 56//121
f 56//12 20//12 57//12
f 57//122 20//122 54//122
f 54//123 20//123 45//123
f 48//124 55//124 33//124
f 55//125 50//125 33//125
f 50//126 39//126 33//126
f 30//127 25//127 26//127
f 40//128 47//128 27//128
f 47//129 46//129 27//129
f 41//130 35//130 37//130
f 37//131 35//131 36//131
f 40//132 37//132 32//132
f 32//133 37//133 31//133
f 31//11 37//11 50//11
f 50//11 37//11 55//11
f 55//11 37//11 57//11
f 57//11 37//11 56//11
f 56//134 37//134 49//134
f 49//135 37//135 53//135
f 41//136 37//136 51//136
f 51//132 37//132 40//132
f 51//137 40//137 47//137
