# Blender 4.0.0
# www.blender.org
o decimated_mesh
v -0.156089 -0.008657 -0.172819
v -0.158573 -0.006131 -0.171005
v -0.152084 -0.005550 -0.172534
v -0.158584 -0.011664 -0.171422
v -0.161767 -0.011011 -0.170874
v -0.161607 -0.009183 -0.171015
v -0.153276 -0.002793 -0.170555
v -0.149319 -0.002459 -0.171377
v -0.134379 -0.003560 -0.170621
v 0.004657 -0.008183 -0.152531
v -0.112291 -0.014109 -0.166800
v 0.004676 -0.041379 -0.140781
v -0.027868 -0.045818 -0.136437
v -0.165321 -0.010430 -0.166764
v -0.161347 -0.007212 -0.169876
v 0.004657 0.022525 -0.145592
v 0.004657 -0.015041 -0.151437
v -0.023381 -0.048095 -0.133245
v -0.169168 -0.011326 -0.159892
v -0.166028 -0.006805 -0.162006
v 0.004664 0.025982 -0.143102
v -0.148263 -0.027119 -0.153379
v -0.168711 -0.013735 -0.156221
v -0.170937 -0.008716 -0.154626
v -0.169132 -0.009443 -0.160093
v -0.169271 -0.003177 -0.149244
v -0.127357 0.013702 -0.149618
v -0.046404 0.037819 -0.126791
v -0.094078 -0.045652 -0.131028
v -0.170128 -0.012158 -0.154626
v -0.171247 -0.008716 -0.151180
v -0.170897 -0.005244 -0.146792
v -0.169605 -0.005333 -0.152868
v -0.101818 0.030657 -0.125788
v 0.004657 0.045581 -0.110546
v 0.004657 -0.055054 -0.114898
v -0.123962 -0.048775 -0.083970
v -0.134009 -0.047487 -0.008249
v -0.137352 -0.044911 -0.008239
v -0.168662 -0.014005 -0.141512
v -0.169598 -0.002443 -0.144669
v -0.124960 -0.052234 -0.026452
v -0.148348 -0.027789 -0.008256
v -0.155650 -0.008776 -0.025786
v -0.155030 -0.004806 -0.024834
v -0.145867 -0.032848 -0.008244
v -0.140619 0.029188 -0.008244
v -0.072006 0.044043 -0.100938
v -0.094743 -0.063859 -0.025934
v -0.018507 -0.060472 -0.105261
v -0.145823 0.018211 -0.008240
v -0.133028 0.036168 -0.008239
v 0.004657 -0.059805 -0.101763
v -0.116035 0.043482 -0.041491
v -0.085659 -0.065788 -0.008244
v -0.149875 -0.006853 -0.008244
v -0.087600 0.052746 -0.034332
v 0.004643 0.055719 -0.070703
v 0.004645 -0.066857 -0.054873
v -0.055246 0.058835 -0.008244
v -0.070089 0.057494 -0.008245
v 0.004657 0.059444 -0.008244
v -0.053231 -0.067493 -0.008244
v 0.004657 -0.067058 -0.008244
vn -0.2152 -0.2588 -0.9417
vn -0.7237 0.5784 -0.3764
vn -0.9487 0.2922 0.1211
vn -0.2574 -0.8017 -0.5394
vn 0.0778 0.4425 -0.8934
vn 0.1274 -0.1563 -0.9795
vn -0.8747 0.4447 -0.1926
vn -0.8943 -0.4382 0.0910
vn -0.7440 0.4053 -0.5312
vn -0.9501 -0.0153 -0.3117
vn -0.3196 0.9465 0.0448
vn -0.3574 -0.9319 -0.0622
vn -0.5401 0.8366 -0.0920
vn -0.8284 -0.5100 -0.2317
vn -0.9740 0.2089 -0.0876
vn -0.9697 -0.2280 -0.0872
vn 0.1253 -0.0953 -0.9875
vn -0.0290 -0.7673 -0.6406
vn 0.1330 0.2185 -0.9667
vn -0.8998 0.4265 0.0922
vn -0.8527 0.5028 -0.1417
vn -0.2440 0.3958 -0.8853
vn 1.0000 -0.0000 -0.0000
vn 0.0858 -0.8809 -0.4654
vn -0.7478 0.4699 -0.4691
vn -0.0088 -0.0068 -0.9999
vn -0.4676 0.7943 -0.3878
vn -0.2410 0.4950 -0.8348
vn 0.1180 -0.3724 -0.9206
vn -0.6766 0.7358 -0.0269
vn -0.9842 0.1231 0.1276
vn 0.0782 -0.9375 -0.3390
vn -0.3065 -0.0463 -0.9508
vn -0.0687 0.9668 -0.2460
vn -0.0441 -0.9165 -0.3977
vn -0.9453 -0.0691 0.3188
vn 0.0509 -0.9876 -0.1485
vn -0.2670 0.9450 -0.1888
vn -0.9908 -0.0558 0.1232
vn -0.0908 0.9845 -0.1499
vn -0.1652 -0.9716 -0.1694
vn -0.9496 0.0754 0.3044
vn -0.5570 -0.7244 -0.4062
vn -0.8700 -0.0360 -0.4917
vn -0.4716 -0.7995 -0.3721
vn -0.9323 0.3412 0.1201
vn -0.7486 -0.6629 -0.0097
vn -0.9520 -0.2238 -0.2090
vn -0.0251 0.7700 -0.6375
vn -0.1709 0.8657 -0.4705
vn -0.1207 0.8654 -0.4864
vn -0.1047 0.8461 -0.5227
vn -0.8689 0.4564 -0.1915
vn -0.9385 0.1517 0.3103
vn -0.0588 -0.9934 -0.0989
vn -0.0532 -0.9954 -0.0796
vn -0.0523 -0.9953 -0.0817
vn -0.3206 0.9462 0.0430
vn -0.0075 1.0000 0.0043
vn -0.6778 -0.7351 -0.0112
vn -0.8156 -0.5757 0.0581
vn -0.9587 -0.2581 0.1195
vn -0.9605 -0.2513 0.1194
vn -0.9325 -0.3572 0.0539
vn 0.1233 -0.0995 -0.9874
vn 0.1134 -0.0552 -0.9920
vn 0.0338 0.8562 -0.5155
vn 0.0411 0.5838 -0.8109
vn -0.2364 -0.9480 -0.2130
vn -0.3218 0.3227 -0.8901
vn 0.0029 -0.7101 -0.7041
vn -0.6241 0.6954 -0.3563
vn 1.0000 0.0013 0.0014
vn 1.0000 0.0009 -0.0042
vn 1.0000 -0.0003 0.0004
vn 1.0000 -0.0000 0.0003
vn 1.0000 -0.0000 -0.0002
vn 1.0000 -0.0000 -0.0003
vn 0.0423 -0.9110 -0.4103
vn -0.7204 0.4959 -0.4849
vn -0.0073 -0.0056 -1.0000
vn 0.0002 0.0002 -1.0000
vn -0.0000 -0.0000 -1.0000
vn 0.0001 -0.0000 -1.0000
vn -0.0001 -0.0000 -1.0000
vn 0.0017 -0.0012 -1.0000
vn -0.0003 0.0002 -1.0000
vn 0.0001 0.0001 -1.0000
vn 0.0014 0.0007 -1.0000
vn -0.4751 0.8177 -0.3250
vn -0.4870 0.7997 -0.3511
vn -0.7552 0.0157 -0.6553
vn -0.2162 0.5059 -0.8351
vn 0.0528 -0.5614 -0.8259
vn 0.0638 -0.4634 -0.8839
vn -0.5708 -0.8189 -0.0591
vn -0.6076 -0.7883 -0.0965
vn -0.5576 -0.8282 -0.0563
vn -0.5391 -0.8391 -0.0731
vn 0.0276 -0.7952 -0.6057
vn -0.0459 -0.8428 -0.5363
vn -0.0483 -0.8233 -0.5656
vn -0.0101 0.9982 -0.0595
vn -0.3529 -0.9323 0.0796
vn -0.3593 -0.9310 0.0642
vn -0.0397 0.9618 -0.2708
vn 0.0699 0.2943 -0.9532
vn -0.2620 0.9472 -0.1851
vn -0.0893 0.9887 -0.1200
vn -0.0825 0.9883 -0.1284
vn -0.1335 -0.9764 -0.1700
vn -0.8063 0.4899 -0.3315
vn -0.4853 0.4847 -0.7277
vn -0.5861 -0.7001 -0.4079
vn -0.1263 0.9287 -0.3487
vn -0.3838 0.9011 -0.2018
vn -0.3710 0.8969 -0.2406
vn -0.3711 0.8954 -0.2461
vn -0.2504 0.9529 -0.1708
vn -0.5660 -0.7198 -0.4020
vn -0.6020 -0.6760 -0.4250
vn 1.0000 0.0002 -0.0000
vn 1.0000 -0.0000 0.0001
vn 1.0000 -0.0022 -0.0003
vn 1.0000 -0.0007 0.0002
vn 1.0000 -0.0043 -0.0016
vn 1.0000 -0.0005 -0.0030
vn 1.0000 0.0001 -0.0012
vn -0.5541 -0.8303 -0.0595
vn -0.5546 -0.8300 -0.0593
vn -0.6099 -0.7916 -0.0375
vn -0.7471 0.4462 -0.4928
vn -0.7226 0.5189 -0.4567
vn -0.5272 0.7727 -0.3536
vn -0.4735 0.8123 -0.3407
vn -0.3630 0.8958 -0.2563
vn 1.0000 -0.0004 0.0004
vn 1.0000 0.0015 -0.0003
vn -0.0000 0.0002 -1.0000
vn -0.0524 -0.9955 -0.0786
vn -0.0536 -0.9953 -0.0810
vn 0.0031 0.0080 -1.0000
vn -0.0006 -0.0001 -1.0000
vn 0.0006 0.0001 -1.0000
vn 0.0007 0.0001 -1.0000
vn -0.0000 0.0003 -1.0000
vn 0.0001 -0.0001 -1.0000
vn 0.0006 -0.0000 -1.0000
vn -0.4276 0.8873 -0.1730
vn -0.3822 0.9018 -0.2017
vn -0.3637 0.8976 -0.2489
vn -0.0549 0.9570 -0.2847
vn -0.0503 0.9679 -0.2463
vn -0.9309 0.3486 0.1094
vn -0.9488 0.2913 0.1224
vn 0.0073 0.0011 -1.0000
vn -0.3190 0.9468 0.0418
vn -0.3206 0.9462 0.0443
s 0
f 1//1 4//1 5//1
f 25//2 33//2 20//2
f 51//3 41//3 45//3
f 22//4 5//4 4//4
f 16//5 9//5 8//5
f 11//6 10//6 17//6
f 32//7 33//7 24//7
f 46//8 43//8 40//8
f 6//9 14//9 15//9
f 19//10 24//10 25//10
f 57//11 54//11 52//11
f 37//12 49//12 42//12
f 54//13 41//13 52//13
f 23//14 30//14 19//14
f 24//15 31//15 32//15
f 24//16 30//16 31//16
f 9//17 10//17 11//17
f 4//18 13//18 22//18
f 16//19 10//19 9//19
f 51//20 47//20 41//20
f 32//21 41//21 26//21
f 2//22 3//22 1//22
f 35//23 36//23 10//23
f 18//24 12//24 36//24
f 20//25 15//25 14//25
f 43//26 38//26 46//26
f 15//27 7//27 2//27
f 7//28 3//28 2//28
f 11//29 17//29 12//29
f 41//30 47//30 52//30
f 44//31 45//31 32//31
f 36//32 53//32 50//32
f 5//33 6//33 1//33
f 28//34 58//34 35//34
f 50//35 29//35 18//35
f 43//36 56//36 44//36
f 53//37 59//37 50//37
f 34//38 54//38 48//38
f 31//39 44//39 32//39
f 57//40 58//40 48//40
f 29//41 49//41 37//41
f 44//42 56//42 45//42
f 23//43 19//43 14//43
f 14//44 19//44 25//44
f 5//45 22//45 23//45
f 32//46 45//46 41//46
f 23//47 40//47 30//47
f 19//48 30//48 24//48
f 8//49 28//49 21//49
f 7//50 27//50 8//50
f 27//51 34//51 28//51
f 28//52 8//52 27//52
f 32//53 26//53 33//53
f 56//54 51//54 45//54
f 49//55 50//55 59//55
f 59//56 63//56 49//56
f 63//57 55//57 49//57
f 61//58 57//58 52//58
f 63//59 64//59 59//59
f 40//60 23//60 39//60
f 39//61 46//61 40//61
f 43//62 44//62 40//62
f 44//63 31//63 40//63
f 31//64 30//64 40//64
f 11//65 1//65 9//65
f 1//66 3//66 9//66
f 28//67 35//67 21//67
f 21//68 16//68 8//68
f 37//69 22//69 29//69
f 6//70 2//70 1//70
f 4//71 12//71 13//71
f 20//72 33//72 26//72
f 53//23 36//23 35//23
f 12//73 17//73 36//73
f 36//23 17//23 10//23
f 10//74 16//74 21//74
f 21//75 35//75 10//75
f 35//76 58//76 53//76
f 58//77 62//77 59//77
f 62//78 64//78 59//78
f 59//76 53//76 58//76
f 36//79 50//79 18//79
f 14//80 25//80 20//80
f 46//81 38//81 39//81
f 38//82 56//82 55//82
f 55//83 61//83 63//83
f 63//83 60//83 64//83
f 64//83 60//83 62//83
f 60//84 63//84 61//84
f 61//85 55//85 52//85
f 47//86 52//86 51//86
f 51//87 52//87 56//87
f 52//88 55//88 56//88
f 56//89 38//89 43//89
f 15//90 20//90 7//90
f 20//91 26//91 7//91
f 14//92 6//92 5//92
f 7//93 8//93 3//93
f 12//94 4//94 11//94
f 11//95 4//95 1//95
f 37//96 42//96 39//96
f 42//97 38//97 39//97
f 39//98 23//98 37//98
f 37//99 23//99 22//99
f 13//100 12//100 18//100
f 18//101 29//101 13//101
f 29//102 22//102 13//102
f 58//103 60//103 62//103
f 55//104 38//104 49//104
f 49//105 38//105 42//105
f 28//106 48//106 58//106
f 8//107 9//107 3//107
f 54//108 57//108 48//108
f 57//109 61//109 60//109
f 60//110 58//110 57//110
f 29//111 50//111 49//111
f 33//112 25//112 24//112
f 15//113 2//113 6//113
f 14//114 5//114 23//114
f 28//115 34//115 48//115
f 41//116 54//116 34//116
f 34//117 27//117 41//117
f 27//118 7//118 41//118
f 41//119 7//119 26//119
f 23//120 19//120 5//120
f 19//121 14//121 5//121
f 21//122 62//122 12//122
f 62//123 64//123 12//123
f 64//124 59//124 12//124
f 59//125 53//125 12//125
f 53//126 36//126 12//126
f 17//127 10//127 12//127
f 10//128 21//128 12//128
f 37//129 42//129 23//129
f 42//130 38//130 23//130
f 38//131 39//131 23//131
f 25//132 15//132 14//132
f 25//133 20//133 15//133
f 20//134 26//134 15//134
f 26//135 7//135 15//135
f 26//136 27//136 7//136
f 35//137 58//137 21//137
f 58//138 62//138 21//138
f 60//83 62//83 39//83
f 39//83 62//83 64//83
f 39//139 64//139 63//139
f 63//140 55//140 59//140
f 55//141 49//141 59//141
f 55//142 38//142 39//142
f 47//143 39//143 51//143
f 51//144 39//144 56//144
f 56//145 39//145 46//145
f 55//146 39//146 63//146
f 60//147 39//147 61//147
f 61//85 39//85 52//85
f 52//148 39//148 47//148
f 41//149 54//149 26//149
f 54//150 34//150 26//150
f 34//151 27//151 26//151
f 48//152 35//152 28//152
f 48//153 58//153 35//153
f 41//154 32//154 51//154
f 32//155 45//155 51//155
f 43//156 56//156 46//156
f 57//157 54//157 61//157
f 54//158 52//158 61//158
