# Blender 4.0.0
# www.blender.org
o decimated_mesh
v 0.487289 0.052998 -0.301010
v 0.378948 0.053318 -0.303802
v 0.496263 0.044719 -0.294506
v 0.488058 0.052244 -0.305879
v 0.479062 0.043628 -0.310951
v 0.378936 -0.002953 -0.294279
v 0.496697 0.031368 -0.300325
v 0.378970 0.043087 -0.310627
v 0.490714 0.018536 -0.307916
v 0.495847 0.012506 -0.294918
v 0.478984 0.009892 -0.311194
v 0.378970 0.003110 -0.309567
v 0.486933 -0.000938 -0.295043
v 0.486213 0.001508 -0.305849
vn -1.0000 -0.0003 -0.0028
vn 0.6804 0.7328 -0.0061
vn -0.0187 0.6051 0.7959
vn -0.0658 0.1665 0.9838
vn 0.8551 0.2303 -0.4646
vn 0.6946 0.0978 -0.7127
vn 0.4241 0.0879 -0.9014
vn -0.0011 -0.9296 -0.3687
vn 0.8897 -0.1624 -0.4267
vn -0.0145 -0.0265 -0.9995
vn 0.9942 -0.0142 0.1067
vn 0.0068 0.9884 -0.1520
vn -0.0057 0.5549 -0.8319
vn 0.8210 -0.5427 -0.1776
vn 0.8421 -0.2787 -0.4618
vn 0.4067 -0.2153 -0.8878
vn -1.0000 -0.0001 -0.0023
vn -0.0073 0.0133 -0.9999
vn -0.0054 0.0129 -0.9999
vn 0.0166 -0.9750 -0.2218
vn 0.0217 -0.5241 -0.8514
vn 0.2648 0.0063 -0.9643
vn -0.0033 0.0072 -1.0000
vn -0.0112 0.5159 -0.8565
vn -0.0104 0.5549 -0.8319
vn -0.0055 0.5116 -0.8592
vn -0.0073 0.0141 -0.9999
vn -0.0072 0.0129 -0.9999
s 0
f 6//1 2//1 8//1
f 1//2 3//2 4//2
f 1//3 2//3 3//3
f 2//4 6//4 3//4
f 3//5 7//5 4//5
f 7//6 9//6 4//6
f 4//7 9//7 5//7
f 14//8 6//8 12//8
f 7//9 10//9 9//9
f 8//10 11//10 12//10
f 7//11 3//11 10//11
f 4//12 2//12 1//12
f 2//13 5//13 8//13
f 10//14 13//14 14//14
f 10//15 14//15 9//15
f 9//16 14//16 11//16
f 8//17 12//17 6//17
f 3//18 13//18 6//18
f 3//19 10//19 13//19
f 14//20 13//20 6//20
f 11//21 14//21 12//21
f 11//22 5//22 9//22
f 8//23 5//23 11//23
f 2//24 4//24 5//24
f 4//25 8//25 2//25
f 4//26 5//26 8//26
f 13//27 6//27 10//27
f 10//28 6//28 3//28
