# Blender 4.0.0
# www.blender.org
o decimated_mesh
v -0.264436 0.052375 -0.305532
v -0.272862 0.046263 -0.309531
v -0.478266 0.042809 -0.311325
v -0.265214 0.052880 -0.294888
v -0.261415 0.045727 -0.295035
v -0.283911 0.028832 -0.312313
v -0.490439 0.041149 -0.307927
v -0.487104 0.053353 -0.304665
v -0.497352 0.046612 -0.285196
v -0.264928 0.034659 -0.305802
v -0.297090 0.009893 -0.311726
v -0.279670 0.010655 -0.306173
v -0.496392 0.031478 -0.300668
v -0.497501 0.044103 -0.293739
v -0.380917 -0.002929 -0.285032
v -0.263673 0.031958 -0.294979
v -0.289869 0.001468 -0.306398
v -0.478966 0.009893 -0.311179
v -0.297388 -0.002821 -0.295394
v -0.280909 0.002848 -0.294994
v -0.478966 -0.002238 -0.297431
v -0.487556 0.001893 -0.306059
v -0.496733 0.013862 -0.293858
v -0.486931 -0.000980 -0.285287
v -0.496949 0.012749 -0.285289
vn 0.8247 -0.5025 -0.2596
vn -0.2950 0.3212 -0.8999
vn -0.0121 0.9468 0.3215
vn -0.8332 -0.5453 -0.0918
vn -0.0026 -0.9311 -0.3647
vn 0.3043 -0.2404 -0.9217
vn -0.8649 0.1810 -0.4682
vn -0.8084 0.3478 -0.4748
vn -0.7504 0.6376 -0.1742
vn 0.0390 0.0949 0.9947
vn -0.2691 0.0014 -0.9631
vn 0.3009 -0.3120 -0.9012
vn 0.1136 -0.3946 0.9118
vn 0.6173 -0.6755 -0.4033
vn 0.3250 -0.9349 -0.1423
vn -0.8602 -0.1693 -0.4810
vn 0.8827 0.4680 0.0423
vn -0.0030 -0.0044 -1.0000
vn 0.0042 0.9989 -0.0471
vn -0.0026 -0.5371 -0.8435
vn -0.0019 0.5494 -0.8356
vn 0.4277 0.0019 -0.9039
vn -0.9932 -0.0248 -0.1138
vn 0.3756 -0.2168 -0.9011
vn -0.7116 -0.0855 -0.6974
vn 0.0060 0.1539 -0.9881
vn -0.8065 -0.5885 -0.0571
vn 0.9569 -0.0222 -0.2895
vn 0.8392 -0.4968 -0.2212
vn 0.0020 -0.9012 -0.4334
vn -0.3302 -0.9363 -0.1196
vn -0.0025 -0.0024 1.0000
vn -0.0040 -0.0028 1.0000
vn -0.4575 -0.0758 -0.8860
vn -0.0185 -0.9957 0.0910
vn -0.0028 -0.9994 -0.0333
vn -0.1010 0.0338 -0.9943
vn -0.0057 0.0039 -1.0000
vn -0.0354 0.0017 -0.9994
vn -0.9993 -0.0253 -0.0284
vn -0.9997 -0.0120 0.0209
vn -0.0070 -0.0262 -0.9996
vn 0.9751 -0.1605 -0.1531
vn -0.0025 -0.5360 -0.8442
vn -0.0009 0.5335 -0.8458
vn 0.3421 -0.0673 -0.9372
vn -0.0008 0.5483 -0.8363
vn -0.0016 0.5331 -0.8461
vn -0.0054 -0.0043 -1.0000
vn -0.0755 -0.0196 -0.9970
vn -0.0030 -0.0289 -0.9996
vn -0.0027 -0.9030 -0.4297
vn -0.1024 0.0612 -0.9929
vn -0.0876 0.0103 -0.9961
vn 0.0011 -0.9320 -0.3625
s 0
f 20//1 12//1 10//1
f 3//2 7//2 8//2
f 4//3 8//3 9//3
f 25//4 23//4 22//4
f 19//5 22//5 17//5
f 6//6 12//6 11//6
f 7//7 13//7 14//7
f 7//8 14//8 8//8
f 8//9 14//9 9//9
f 4//10 9//10 15//10
f 18//11 7//11 3//11
f 11//12 12//12 17//12
f 15//13 19//13 20//13
f 12//14 20//14 17//14
f 17//15 20//15 19//15
f 13//16 22//16 23//16
f 5//17 1//17 4//17
f 11//18 18//18 3//18
f 1//19 8//19 4//19
f 18//20 17//20 22//20
f 3//21 1//21 2//21
f 10//22 2//22 1//22
f 23//23 14//23 13//23
f 6//24 10//24 12//24
f 7//25 22//25 13//25
f 3//26 2//26 6//26
f 22//27 24//27 25//27
f 10//28 1//28 5//28
f 16//29 20//29 10//29
f 19//30 21//30 22//30
f 22//31 21//31 24//31
f 15//32 9//32 24//32
f 24//33 9//33 25//33
f 22//34 7//34 18//34
f 24//35 21//35 15//35
f 21//36 19//36 15//36
f 4//37 20//37 15//37
f 4//38 16//38 20//38
f 16//39 4//39 5//39
f 23//40 25//40 14//40
f 25//41 9//41 14//41
f 3//42 6//42 11//42
f 5//43 16//43 10//43
f 18//44 11//44 17//44
f 3//45 8//45 1//45
f 6//46 2//46 10//46
f 1//47 2//47 8//47
f 2//48 3//48 8//48
f 6//49 18//49 3//49
f 15//50 4//50 5//50
f 6//51 11//51 18//51
f 17//52 21//52 22//52
f 20//53 15//53 16//53
f 16//54 15//54 5//54
f 19//55 21//55 17//55
