# Blender 4.0.0
# www.blender.org
o decimated_mesh
v -0.458194 0.009413 0.274592
v -0.489322 0.013262 0.045847
v -0.495896 0.009836 0.274592
v -0.496024 0.047122 0.274596
v -0.493632 0.047347 0.046043
vn -0.0000 -0.0001 1.0000
vn 0.9834 0.1251 -0.1317
vn 0.7060 0.7082 0.0081
vn -0.9996 -0.0034 -0.0288
vn -0.0112 -0.9998 -0.0153
vn -0.9921 -0.1254 -0.0105
vn -0.9999 -0.0034 -0.0105
vn -0.9917 -0.1252 -0.0304
s 0
f 4//1 3//1 1//1
f 1//2 2//2 5//2
f 1//3 5//3 4//3
f 4//4 2//4 3//4
f 3//5 2//5 1//5
f 4//6 5//6 2//6
f 5//7 3//7 4//7
f 5//8 2//8 3//8
