# Blender 4.0.0
# www.blender.org
o decimated_mesh
v 0.511867 1.207026 0.326833
v -0.511849 1.205594 0.327943
v 0.511863 1.199415 0.308987
v -0.511850 1.204532 0.310688
v 0.511864 1.180886 0.310363
v -0.511849 1.184944 0.309049
v -0.511853 1.177567 0.326788
v 0.511863 1.178817 0.327941
vn -0.0012 0.0393 0.9992
vn 0.0020 0.0741 0.9973
vn 0.0039 0.9198 -0.3923
vn 0.0013 -0.9931 -0.1169
vn -0.0032 -0.9233 -0.3840
vn -0.0015 0.9981 -0.0614
vn -1.0000 0.0001 -0.0000
vn -1.0000 -0.0000 -0.0002
vn 0.0011 -0.0412 0.9992
vn -0.0016 -0.0834 0.9965
vn 1.0000 -0.0001 -0.0000
vn 1.0000 -0.0000 -0.0002
vn 0.0010 0.0393 0.9992
vn -0.0010 0.0741 0.9973
vn 0.0012 -0.0834 0.9965
vn -0.0011 -0.0412 0.9992
s 0
f 1//1 7//1 8//1
f 5//2 3//2 4//2
f 4//3 1//3 3//3
f 7//4 5//4 8//4
f 6//5 5//5 7//5
f 1//6 4//6 2//6
f 2//7 4//7 7//7
f 4//8 6//8 7//8
f 1//9 2//9 7//9
f 5//10 4//10 6//10
f 8//11 5//11 1//11
f 1//12 5//12 3//12
f 2//13 8//13 1//13
f 5//14 3//14 6//14
f 6//15 3//15 4//15
f 7//16 8//16 2//16
