# Blender 4.0.0
# www.blender.org
o decimated_mesh
v 0.511863 1.205644 -0.328764
v -0.511852 1.206192 -0.319464
v 0.511864 1.203963 -0.311737
v -0.511849 1.199411 -0.309649
v -0.511849 1.205659 -0.328718
v 0.511863 1.184995 -0.309678
v -0.511849 1.185010 -0.309675
v 0.511863 1.178770 -0.328741
v -0.511849 1.178437 -0.315405
v -0.511849 1.178804 -0.328794
v 0.511863 1.178455 -0.319225
vn -0.0000 -0.6571 0.7538
vn -0.0000 -0.0018 1.0000
vn -1.0000 -0.0000 -0.0000
vn 0.0001 0.9995 0.0331
vn 0.0014 0.9952 0.0982
vn 0.0021 -0.8250 0.5651
vn -0.0025 0.8228 0.5684
vn -0.0000 0.0028 -1.0000
vn 1.0000 -0.0000 -0.0000
vn 1.0000 -0.0001 -0.0000
vn 0.0015 0.1079 0.9942
vn -1.0000 -0.0002 0.0002
vn -1.0000 -0.0000 -0.0003
vn -0.0000 0.9996 0.0274
vn -0.0000 0.9984 -0.0574
vn 0.0001 -0.0009 -1.0000
vn -1.0000 -0.0001 0.0001
vn -1.0000 -0.0000 0.0003
vn -1.0000 -0.0001 -0.0000
vn 0.0001 0.9996 0.0274
vn -0.0000 0.9995 0.0331
s 0
f 6//1 7//1 9//1
f 6//2 4//2 7//2
f 10//3 9//3 7//3
f 8//4 9//4 11//4
f 1//5 2//5 3//5
f 6//6 9//6 11//6
f 2//7 4//7 3//7
f 10//8 5//8 1//8
f 8//9 1//9 6//9
f 1//9 3//9 6//9
f 6//10 11//10 8//10
f 6//11 3//11 4//11
f 4//12 2//12 10//12
f 5//13 10//13 2//13
f 10//3 7//3 4//3
f 9//14 8//14 10//14
f 1//15 5//15 2//15
f 1//16 8//16 10//16
f 9//17 7//17 2//17
f 7//18 4//18 2//18
f 10//19 9//19 2//19
f 10//20 9//20 11//20
f 6//9 11//9 3//9
f 11//9 8//9 3//9
f 8//9 1//9 3//9
f 8//21 10//21 11//21
