# Blender 4.0.0
# www.blender.org
o decimated_mesh
v -0.275960 0.045656 0.308055
v -0.265470 0.053341 0.303981
v -0.286462 0.025266 0.309367
v -0.265993 0.052420 0.274594
v -0.264567 0.040969 0.304374
v -0.478632 0.028403 0.309657
v -0.262339 0.046266 0.296755
v -0.262131 0.046266 0.274595
v -0.497556 0.046338 0.274587
v -0.486249 0.053562 0.304894
v -0.297251 0.009427 0.308128
v -0.280058 0.009829 0.303307
v -0.489367 0.042054 0.305710
v -0.262703 0.033271 0.291324
v -0.262085 0.034139 0.274595
v -0.497633 0.045413 0.290863
v -0.486773 0.009425 0.306167
v -0.495503 0.029630 0.298508
v -0.496002 0.010734 0.291604
v -0.275362 0.009402 0.274652
v -0.496038 0.009521 0.274648
vn 0.8466 0.5313 -0.0317
vn -0.9991 -0.0412 -0.0071
vn -0.0102 -0.1766 0.9842
vn 0.3270 0.0538 0.9435
vn 0.9406 0.0791 0.3302
vn -0.0001 0.0014 1.0000
vn 0.8273 -0.4242 0.3683
vn -0.8181 0.2581 0.5139
vn 0.2763 -0.0807 0.9577
vn -0.8537 0.1292 0.5045
vn -0.2470 -0.9665 0.0697
vn -0.8395 -0.1668 0.5171
vn -0.0256 0.9745 -0.2228
vn 0.9176 0.3973 0.0086
vn -0.9993 -0.0038 -0.0372
vn 0.8811 -0.4729 0.0081
vn 0.2666 -0.2543 0.9296
vn -0.2006 0.1233 0.9719
vn -0.6151 0.7873 0.0418
vn -0.3627 -0.0158 0.9318
vn -0.9989 -0.0469 0.0054
vn 0.0002 -0.0781 0.9969
vn 0.0005 -0.0000 -1.0000
vn 0.0029 0.0007 1.0000
vn -0.0000 0.0016 1.0000
vn 0.8291 -0.5402 0.1439
vn 0.0009 0.9995 -0.0313
vn 0.3575 -0.2090 0.9102
vn 0.9721 -0.1132 0.2056
vn 0.0041 0.4640 0.8858
vn -0.0079 0.1837 0.9829
vn 0.0025 0.0629 0.9980
vn 0.0005 1.0000 -0.0004
vn -0.0000 1.0000 0.0030
vn 0.0289 -0.9994 0.0197
vn -0.7185 -0.0474 0.6940
vn -0.9816 -0.0422 0.1864
vn -0.9994 0.0320 -0.0094
vn -0.0000 0.0001 1.0000
vn -0.0000 0.0017 1.0000
vn -0.0000 0.0023 1.0000
vn 0.0005 1.0000 0.0029
vn -0.9999 -0.0038 -0.0094
vn -0.9985 0.0425 -0.0347
vn -0.0000 1.0000 -0.0008
s 0
f 8//1 4//1 2//1
f 16//2 9//2 21//2
f 11//3 6//3 17//3
f 1//4 5//4 2//4
f 2//5 5//5 7//5
f 9//6 20//6 4//6
f 14//7 5//7 12//7
f 10//8 16//8 13//8
f 5//9 1//9 3//9
f 13//10 16//10 18//10
f 19//11 21//11 17//11
f 18//12 19//12 17//12
f 4//13 9//13 10//13
f 2//14 7//14 8//14
f 8//15 15//15 14//15
f 14//16 20//16 15//16
f 11//17 12//17 3//17
f 13//18 6//18 10//18
f 16//19 10//19 9//19
f 13//20 17//20 6//20
f 21//21 19//21 16//21
f 11//22 3//22 6//22
f 8//23 15//23 4//23
f 15//24 4//24 20//24
f 20//25 9//25 21//25
f 20//26 14//26 12//26
f 10//27 2//27 4//27
f 12//28 5//28 3//28
f 5//29 14//29 7//29
f 1//30 2//30 10//30
f 1//31 10//31 6//31
f 6//32 3//32 1//32
f 21//33 11//33 20//33
f 17//34 11//34 21//34
f 20//35 12//35 11//35
f 18//36 17//36 13//36
f 18//37 16//37 19//37
f 8//38 14//38 7//38
f 4//39 9//39 15//39
f 15//40 9//40 21//40
f 15//41 21//41 20//41
f 20//42 21//42 17//42
f 8//43 15//43 7//43
f 7//44 15//44 14//44
f 20//45 17//45 11//45
