# Blender 4.0.0
# www.blender.org
o decimated_mesh
v 0.378986 0.053008 0.305738
v 0.378985 0.053628 0.301136
v 0.275189 0.046200 0.307759
v 0.378985 0.029846 0.309853
v 0.266032 0.052444 0.284507
v 0.265384 0.053368 0.303967
v 0.286871 0.025700 0.309493
v 0.378985 0.009731 0.284517
v 0.264605 0.040861 0.304371
v 0.297107 0.009892 0.308237
v 0.378985 0.009892 0.308402
v 0.262129 0.046265 0.284517
v 0.378985 -0.003059 0.284518
v 0.262335 0.046265 0.296758
v 0.290122 0.001536 0.304124
v 0.378986 -0.000093 0.303379
v 0.262286 0.031517 0.284905
v 0.297098 -0.003050 0.284517
v 0.280629 0.008357 0.302827
v 0.280231 0.002754 0.284507
vn -0.9998 -0.0102 0.0168
vn 1.0000 0.0001 -0.0000
vn 0.1328 0.3509 -0.9269
vn -0.0160 -0.9748 0.2223
vn -0.3277 0.0509 0.9434
vn -0.0125 0.4542 0.8908
vn -0.9244 0.3811 0.0156
vn -0.3583 -0.2197 0.9074
vn -0.8443 0.5333 -0.0534
vn -0.9415 0.0693 0.3299
vn -0.8473 -0.4323 0.3085
vn -0.0020 -0.0805 0.9968
vn -0.2705 -0.0730 0.9599
vn -0.2601 -0.2426 0.9346
vn -0.3237 -0.9404 0.1048
vn -0.0008 -0.4494 0.8933
vn 0.0077 0.1749 0.9846
vn -0.5874 -0.7703 0.2483
vn -0.8338 -0.5226 0.1780
vn 0.0409 0.0117 0.9991
vn -0.0386 0.0259 0.9989
vn -0.0000 0.0001 1.0000
vn -0.0007 -0.0002 1.0000
vn 1.0000 -0.0000 -0.0000
vn 1.0000 -0.0000 -0.0001
vn -0.0001 -0.9879 0.1553
vn -0.3021 -0.2453 0.9212
vn -0.0006 -0.0725 0.9974
vn -0.0018 -0.4404 0.8978
vn 0.0011 0.9910 0.1335
vn -0.0035 0.9989 -0.0475
vn -0.0075 0.0800 0.9968
vn -0.9716 -0.1462 0.1860
vn 1.0000 -0.0000 0.0002
vn 1.0000 -0.0000 0.0001
vn -0.0001 0.0001 1.0000
vn -0.0001 -0.0000 1.0000
vn 0.0017 0.0005 1.0000
vn -0.0000 0.0017 1.0000
vn 0.0654 0.0270 0.9975
s 0
f 12//1 17//1 14//1
f 11//2 16//2 8//2
f 2//3 8//3 5//3
f 18//4 16//4 15//4
f 3//5 6//5 9//5
f 3//6 1//6 6//6
f 14//7 6//7 12//7
f 19//8 7//8 9//8
f 5//9 12//9 6//9
f 6//10 14//10 9//10
f 17//11 19//11 9//11
f 11//12 7//12 10//12
f 9//13 7//13 3//13
f 15//14 10//14 7//14
f 18//15 15//15 20//15
f 11//16 15//16 16//16
f 4//17 1//17 3//17
f 15//18 19//18 20//18
f 20//19 19//19 17//19
f 20//20 5//20 17//20
f 17//21 5//21 12//21
f 5//22 18//22 8//22
f 8//22 18//22 13//22
f 5//23 20//23 18//23
f 8//24 2//24 4//24
f 13//24 8//24 16//24
f 1//25 4//25 2//25
f 4//24 11//24 8//24
f 18//26 13//26 16//26
f 19//27 15//27 7//27
f 11//28 4//28 7//28
f 11//29 10//29 15//29
f 6//30 1//30 2//30
f 2//31 5//31 6//31
f 7//32 4//32 3//32
f 14//33 17//33 9//33
f 1//25 16//25 2//25
f 16//24 8//24 2//24
f 4//34 16//34 1//34
f 4//35 11//35 16//35
f 13//36 8//36 20//36
f 20//37 8//37 5//37
f 20//38 5//38 12//38
f 20//39 18//39 13//39
f 17//40 20//40 12//40
