# Blender 4.0.0
# www.blender.org
o Fridge_17_FridgeBodyMesh_3a0c63c3_5_collision_4
v -0.262085 0.034140 0.274592
v -0.262112 0.044180 0.274592
v -0.265973 0.026615 0.274592
v -0.262085 0.034140 0.046066
v -0.262121 0.046266 0.274592
v -0.262108 0.042306 0.046066
v -0.262121 0.046266 0.046066
v -0.268714 0.021597 0.274592
v -0.268202 0.022533 0.046066
v -0.265973 0.026615 0.046066
v -0.266005 0.052455 0.274592
v -0.266005 0.052455 0.046066
v -0.269285 0.020552 0.274592
v -0.269285 0.020552 0.046066
v -0.266903 0.052455 0.274592
v -0.266899 0.052455 0.046066
v -0.270326 0.018753 0.274592
v -0.275347 0.010108 0.046066
v -0.309142 0.009413 0.274592
v -0.308442 0.009413 0.046066
v -0.275347 0.010104 0.274592
v -0.275347 0.010104 0.248241
v -0.275776 0.009413 0.046066
v -0.275776 0.009413 0.274592
vn -0.0067 -0.0000 1.0000
vn -0.0000 -0.0000 1.0000
vn 0.0006 -0.0000 1.0000
vn -0.0003 -0.0000 1.0000
vn -0.0002 -0.0000 1.0000
vn 0.8884 -0.4590 -0.0000
vn 1.0000 0.0028 -0.0000
vn 1.0000 0.0035 -0.0000
vn 1.0000 0.0044 -0.0000
vn 0.8776 -0.4794 -0.0000
vn 0.8776 -0.4793 -0.0000
vn 0.0001 -0.0000 -1.0000
vn -0.0000 -0.0000 -1.0000
vn -0.0001 -0.0000 -1.0000
vn -0.0013 -0.0000 -1.0000
vn 0.8471 0.5315 -0.0000
vn 0.8775 -0.4797 -0.0000
vn 0.8774 -0.4797 -0.0000
vn -0.0000 1.0000 -0.0000
vn 0.8655 -0.5009 -0.0000
vn 0.8649 -0.5020 -0.0000
vn -0.7137 0.7004 -0.0000
vn -0.7195 0.6945 -0.0022
vn 0.8648 -0.5020 -0.0000
vn 0.8514 -0.5246 -0.0000
vn -0.0000 -1.0000 -0.0000
vn 0.8499 -0.5269 -0.0000
vn 0.8498 -0.5271 -0.0000
s 0
f 1//1 2//1 5//1
f 1//2 5//2 11//2
f 1//2 11//2 15//2
f 1//2 15//2 19//2
f 1//2 19//2 24//2
f 1//3 24//3 21//3
f 1//2 21//2 17//2
f 1//4 17//4 13//4
f 1//5 13//5 8//5
f 1//2 8//2 3//2
f 1//6 3//6 10//6
f 1//6 10//6 4//6
f 1//7 4//7 2//7
f 2//7 4//7 6//7
f 2//8 6//8 7//8
f 2//9 7//9 5//9
f 3//10 8//10 9//10
f 3//11 9//11 10//11
f 4//12 10//12 9//12
f 4//13 9//13 14//13
f 4//13 14//13 18//13
f 4//14 18//14 23//14
f 4//13 23//13 20//13
f 4//13 20//13 16//13
f 4//13 16//13 12//13
f 4//13 12//13 7//13
f 4//15 7//15 6//15
f 5//16 7//16 12//16
f 5//16 12//16 11//16
f 8//17 13//17 14//17
f 8//18 14//18 9//18
f 11//19 12//19 16//19
f 11//19 16//19 15//19
f 13//20 17//20 14//20
f 14//21 17//21 18//21
f 15//22 16//22 19//22
f 16//23 20//23 19//23
f 17//24 21//24 22//24
f 17//21 22//21 18//21
f 18//25 22//25 23//25
f 19//26 20//26 23//26
f 19//26 23//26 24//26
f 21//27 24//27 23//27
f 21//28 23//28 22//28
