mtllib material.mtl
usemtl material_0
v -0.00063217 0.01664929 -0.00097717
v -0.00063217 0.01791394 -0.00097717
v 0.00063232 0.01791394 -0.00097717
v 0.00063232 0.01664929 -0.00097717
v -0.04787170 0.01120728 0.00426636
v -0.04787170 0.00833984 -0.00898926
v -0.04787170 0.01120728 -0.00426392
v -0.04787170 0.00833496 0.00860229
v -0.04787170 0.00383545 0.01130127
v -0.04787170 0.00384155 -0.01166504
v -0.04787170 -0.00276733 0.01130127
v -0.04787170 -0.00273926 -0.01171631
v -0.04787170 -0.00740478 0.00860229
v -0.04787170 -0.00738525 -0.00901367
v -0.04787170 -0.01038208 0.00426636
v -0.04787170 -0.01038208 -0.00426392
v 0.04787231 -0.01038208 0.00426636
v 0.04787231 -0.00738403 -0.00901489
v 0.04787231 -0.01038208 -0.00426392
v 0.04787231 -0.00740356 0.00860229
v 0.04787231 -0.00276611 0.01130127
v 0.04787231 -0.00273682 -0.01171631
v 0.04787231 0.00384399 -0.01166504
v 0.04787231 0.00383667 0.01130127
v 0.04787231 0.00833618 0.00860229
v 0.04787231 0.00834106 -0.00898926
v 0.04787231 0.01120728 0.00426636
v 0.04787231 0.01120728 -0.00426392
v 0.04787231 0.00383667 0.01130127
v 0.04787231 -0.00276611 0.01130127
v 0.00000000 -0.00276611 0.01130127
v 0.00000000 0.00392456 0.01130127
v -0.04787170 -0.00276733 0.01130127
v -0.04787170 0.00383545 0.01130127
v 0.04787231 0.00833618 0.00860229
v -0.04787170 0.00833496 0.00860229
v 0.00000000 0.00839600 0.00860229
v 0.04787231 0.01120728 0.00426636
v -0.04787170 0.01120728 0.00426636
v 0.00000031 0.01120728 0.00426636
v 0.04787231 -0.00740356 0.00860229
v 0.00000000 -0.00276611 0.01130127
v 0.04787231 -0.00276611 0.01130127
v 0.00000000 -0.00740356 0.00860229
v -0.04787170 -0.00276733 0.01130127
v -0.04787170 -0.00740478 0.00860229
v -0.04787170 -0.01038208 0.00426636
v 0.00000031 -0.01038208 0.00426636
v 0.04787231 -0.01038208 0.00426636
v -0.04787170 -0.01038208 -0.00426392
v 0.00000031 -0.01038208 -0.00426392
v 0.04787231 -0.01038208 -0.00426392
v 0.04787231 -0.00738403 -0.00901489
v 0.00000031 -0.00738403 -0.00901489
v -0.04787170 -0.00738525 -0.00901367
v 0.04787231 -0.00273682 -0.01171631
v -0.04787170 -0.00273926 -0.01171631
v 0.00000000 -0.00273804 -0.01171631
v -0.04787170 0.00833984 -0.00898926
v 0.00000031 0.01120728 -0.00426392
v -0.04787170 0.01120728 -0.00426392
v 0.00000000 0.00833984 -0.00899048
v 0.04787231 0.01120728 -0.00426392
v 0.04787231 0.00834106 -0.00898926
v 0.00000031 0.00384277 -0.01166504
v 0.04787231 0.00384399 -0.01166504
v 0.04787231 -0.00273682 -0.01171631
v -0.04787170 0.00384155 -0.01166504
v 0.00000000 -0.00273804 -0.01171631
v -0.04787170 -0.00273926 -0.01171631
vn 0.00000000 0.00000000 1.00000000
vn 0.00000000 0.00000000 1.00000000
vn 0.00000000 0.00000000 1.00000000
vn 0.00000000 0.00000000 1.00000000
vn -1.00000000 0.00000000 0.00000000
vn -1.00000000 -0.00003023 0.00000000
vn -1.00000000 0.00000000 0.00000000
vn -1.00000000 -0.00003003 0.00000000
vn -1.00000000 0.00000497 0.00000000
vn -1.00000000 0.00000498 0.00000000
vn -1.00000000 0.00001424 0.00000000
vn -1.00000000 0.00001423 0.00000000
vn -1.00000000 -0.00000831 0.00000000
vn -1.00000000 -0.00000780 0.00000000
vn -1.00000000 -0.00007815 0.00000000
vn -1.00000000 -0.00007815 0.00000000
vn 1.00000000 0.00000000 0.00000000
vn 1.00000000 0.00000000 0.00000000
vn 1.00000000 0.00000000 0.00000000
vn 1.00000000 0.00000000 0.00000000
vn 1.00000000 -0.00000361 0.00000000
vn 1.00000000 -0.00000361 0.00000000
vn 1.00000000 -0.00000367 0.00000000
vn 1.00000000 -0.00000367 0.00000000
vn 1.00000000 0.00000000 0.00000000
vn 1.00000000 0.00000000 0.00000000
vn 1.00000000 0.00000000 0.00000000
vn 1.00000000 0.00000000 0.00000000
vn 0.00035574 0.23533280 0.97191480
vn 0.00000000 -0.23262070 0.97256760
vn 0.00000287 -0.23261880 0.97256800
vn -0.00000396 0.23591160 0.97177450
vn 0.00000575 -0.23262480 0.97256650
vn -0.00036364 0.23532900 0.97191570
vn 0.00066534 0.69250640 0.72141130
vn -0.00068170 0.69247510 0.72144150
vn -0.00000820 0.69267690 0.72124800
vn 0.00051649 0.83642550 0.54808030
vn -0.00053106 0.83637150 0.54816270
vn -0.00000728 0.83639870 0.54812160
vn 0.00000000 -0.67852900 0.73457350
vn 0.00000287 -0.23261880 0.97256800
vn 0.00000000 -0.23262070 0.97256760
vn 0.00000629 -0.67854300 0.73456070
vn 0.00000575 -0.23262480 0.97256650
vn 0.00001258 -0.67856070 0.73454430
vn 0.00000483 -0.97424540 0.22549010
vn 0.00000241 -0.97424020 0.22551270
vn 0.00000000 -0.97423510 0.22553530
vn 0.00000000 -0.97546340 -0.22016170
vn 0.00000000 -0.97545960 -0.22017850
vn 0.00000000 -0.97545580 -0.22019530
vn 0.00000104 -0.69804470 -0.71605430
vn 0.00000052 -0.69807140 -0.71602820
vn 0.00000000 -0.69810590 -0.71599450
vn 0.00000096 -0.22972570 -0.97325540
vn 0.00000000 -0.22979470 -0.97323910
vn 0.00000048 -0.22976020 -0.97324730
vn -0.00000916 0.70883070 -0.70537870
vn -0.00000577 0.85496400 -0.51868730
vn -0.00000577 0.85493960 -0.51872740
vn -0.00000585 0.70885520 -0.70535410
vn -0.00000577 0.85498830 -0.51864740
vn -0.00000254 0.70889150 -0.70531760
vn -0.00000256 0.23897780 -0.97102510
vn 0.00000047 0.23898830 -0.97102240
vn 0.00000096 -0.22972570 -0.97325540
vn -0.00000559 0.23896730 -0.97102760
vn 0.00000048 -0.22976020 -0.97324730
vn 0.00000000 -0.22979470 -0.97323910
vt -85.46436000 -19.67397000
vt -85.46436000 -18.67397000
vt -84.46436000 -18.67397000
vt -84.46436000 -19.67397000
vt -84.74949000 0.10860790
vt -84.75790000 0.14743920
vt -84.74949000 0.13360320
vt -84.75792000 0.09590964
vt -84.77110000 0.08800431
vt -84.77106000 0.15527540
vt -84.79044000 0.08800431
vt -84.79034000 0.15543150
vt -84.80402000 0.09590986
vt -84.80395000 0.14750690
vt -84.81272000 0.10860720
vt -84.81272000 0.13360240
vt -84.64260000 0.37803460
vt -84.63384000 0.33916570
vt -84.64260000 0.35306710
vt -84.63391000 0.39072500
vt -84.62033000 0.39861620
vt -84.62024000 0.33126930
vt -84.60098000 0.33141800
vt -84.60100000 0.39861670
vt -84.58784000 0.39072400
vt -84.58781000 0.33924320
vt -84.57944000 0.37803170
vt -84.57944000 0.35307410
vt -85.12450000 0.34496870
vt -85.14587000 0.34496800
vt -85.14587000 0.49999940
vt -85.12421000 0.49999870
vt -85.14588000 0.65502720
vt -85.12450000 0.65502100
vt -85.10992000 0.34496810
vt -85.10993000 0.65502740
vt -85.10973000 0.50000080
vt -85.10062000 0.34496880
vt -85.10062000 0.65502110
vt -85.10062000 0.49999990
vt -85.29221000 0.33947750
vt -85.28316000 0.49999960
vt -85.28316000 0.33946900
vt -85.29221000 0.50000800
vt -85.28316000 0.66052960
vt -85.29223000 0.66053230
vt -85.30674000 0.66053100
vt -85.30674000 0.50000680
vt -85.30674000 0.33947620
vt -85.33534000 0.66053080
vt -85.33534000 0.50000080
vt -85.33534000 0.33947600
vt -85.35126000 0.33946790
vt -85.35126000 0.50000820
vt -85.35126000 0.66052850
vt -85.36033000 0.33946770
vt -85.36033000 0.66052830
vt -85.36033000 0.50000800
vt -84.98554000 0.65639650
vt -84.99491000 0.49999790
vt -84.99491000 0.65639600
vt -84.98554000 0.49999870
vt -84.99491000 0.34359970
vt -84.98554000 0.34360020
vt -84.97085000 0.49999810
vt -84.97086000 0.34360100
vt -84.94936000 0.34360950
vt -84.97085000 0.65639630
vt -84.94936000 0.49999820
vt -84.94935000 0.65638910
f 3/3/3 2/2/2 1/1/1
f 4/4/4 3/3/3 1/1/1
f 7/7/7 6/6/6 5/5/5
f 6/6/6 8/8/8 5/5/5
f 9/9/9 8/8/8 6/6/6
f 10/10/10 9/9/9 6/6/6
f 11/11/11 9/9/9 10/10/10
f 12/12/12 11/11/11 10/10/10
f 13/13/13 11/11/11 12/12/12
f 14/14/14 13/13/13 12/12/12
f 15/15/15 13/13/13 14/14/14
f 16/16/16 15/15/15 14/14/14
f 19/19/19 18/18/18 17/17/17
f 18/18/18 20/20/20 17/17/17
f 21/21/21 20/20/20 18/18/18
f 22/22/22 21/21/21 18/18/18
f 21/21/21 22/22/22 23/23/23
f 24/24/24 21/21/21 23/23/23
f 25/25/25 24/24/24 23/23/23
f 26/26/26 25/25/25 23/23/23
f 27/27/27 25/25/25 26/26/26
f 28/28/28 27/27/27 26/26/26
f 31/31/31 30/30/30 29/29/29
f 32/32/32 31/31/31 29/29/29
f 33/33/33 31/31/31 32/32/32
f 34/34/34 33/33/33 32/32/32
f 29/29/29 35/35/35 32/32/32
f 36/36/36 34/34/34 32/32/32
f 35/35/35 37/37/37 32/32/32
f 37/37/37 36/36/36 32/32/32
f 35/35/35 38/38/38 37/37/37
f 39/39/39 36/36/36 37/37/37
f 38/38/38 40/40/40 37/37/37
f 40/40/40 39/39/39 37/37/37
f 43/43/43 42/42/42 41/41/41
f 42/42/42 44/44/44 41/41/41
f 42/42/42 45/45/45 44/44/44
f 45/45/45 46/46/46 44/44/44
f 44/44/44 46/46/46 47/47/47
f 41/41/41 44/44/44 48/48/48
f 48/48/48 44/44/44 47/47/47
f 49/49/49 41/41/41 48/48/48
f 47/47/47 50/50/50 48/48/48
f 48/48/48 51/51/51 49/49/49
f 50/50/50 51/51/51 48/48/48
f 51/51/51 52/52/52 49/49/49
f 52/52/52 51/51/51 53/53/53
f 54/54/54 51/51/51 50/50/50
f 51/51/51 54/54/54 53/53/53
f 55/55/55 54/54/54 50/50/50
f 53/53/53 54/54/54 56/56/56
f 54/54/54 55/55/55 57/57/57
f 54/54/54 58/58/58 56/56/56
f 58/58/58 54/54/54 57/57/57
f 61/61/61 60/60/60 59/59/59
f 60/60/60 62/62/62 59/59/59
f 62/62/62 60/60/60 63/63/63
f 64/64/64 62/62/62 63/63/63
f 62/62/62 65/65/65 59/59/59
f 65/65/65 62/62/62 64/64/64
f 66/66/66 65/65/65 64/64/64
f 66/66/66 67/67/67 65/65/65
f 65/65/65 68/68/68 59/59/59
f 67/67/67 69/69/69 65/65/65
f 65/65/65 69/69/69 68/68/68
f 69/69/69 70/70/70 68/68/68

