# Blender 4.0.0
# www.blender.org
o decimated_mesh
v 0.223495 0.033885 0.245099
v 0.223763 0.033885 0.252535
v 0.223011 0.148754 0.239630
v 0.246742 0.033885 0.233984
v 0.225599 0.468212 0.251164
v 0.247249 0.250048 0.227250
v 0.244984 0.033876 0.248100
v 0.251742 0.467970 0.226365
v 0.251086 0.467996 0.239385
v 0.238243 0.467997 0.251918
vn -0.4309 -0.0447 -0.9013
vn 0.6984 0.0046 0.7157
vn -0.0003 -1.0000 -0.0007
vn -0.3586 -0.0282 -0.9331
vn -0.6877 0.0318 -0.7253
vn 0.9986 -0.0130 0.0504
vn -0.4754 0.0062 -0.8797
vn 0.9923 -0.0093 0.1236
vn -0.0004 -1.0000 0.0001
vn 0.0166 0.9998 0.0077
vn -0.0021 1.0000 -0.0021
vn 0.8289 -0.0194 -0.5590
vn -0.9993 -0.0025 0.0361
vn -0.9952 0.0045 0.0982
vn 0.2046 -0.0054 0.9788
vn -0.0595 0.0034 0.9982
vn 0.9987 -0.0106 0.0504
vn 0.9923 -0.0115 0.1236
vn 0.0160 0.9997 0.0164
vn 0.0077 1.0000 -0.0016
s 0
f 1//1 3//1 4//1
f 10//2 7//2 9//2
f 1//3 4//3 7//3
f 4//4 3//4 6//4
f 3//5 5//5 8//5
f 9//6 7//6 8//6
f 3//7 8//7 6//7
f 4//8 8//8 7//8
f 7//9 2//9 1//9
f 8//10 5//10 10//10
f 10//11 9//11 8//11
f 8//12 4//12 6//12
f 3//13 1//13 2//13
f 2//14 5//14 3//14
f 10//15 2//15 7//15
f 2//16 10//16 5//16
f 8//17 9//17 4//17
f 9//18 7//18 4//18
f 10//19 9//19 5//19
f 9//20 8//20 5//20
