# Blender 4.0.0
# www.blender.org
o decimated_mesh
v -0.221663 0.250041 -0.219794
v -0.217965 0.250041 -0.221851
v -0.222860 0.250019 0.217447
v -0.222792 0.465564 -0.211401
v -0.218376 0.250020 0.221194
v -0.221430 0.250019 0.221352
v -0.222514 0.465992 0.217494
v -0.220882 0.465351 -0.220120
v -0.217970 0.466611 -0.221433
v -0.221327 0.465496 0.221251
v -0.220122 0.470128 -0.217478
v -0.220490 0.470439 0.220361
v -0.217972 0.471419 -0.216559
v -0.217989 0.471085 0.220940
vn -0.9390 0.0006 0.3438
vn -0.5241 0.4745 -0.7072
vn -1.0000 0.0016 0.0006
vn -1.0000 -0.0000 -0.0003
vn -0.9768 0.0032 -0.2140
vn 0.0912 0.0010 0.9958
vn -0.9230 0.2140 0.3198
vn -0.8638 0.5038 -0.0011
vn 0.0001 1.0000 -0.0000
vn -0.2725 0.2150 0.9378
vn -0.2502 0.9682 0.0007
vn -0.1261 0.7062 -0.6967
vn -0.9535 0.0015 0.3014
vn -1.0000 -0.0051 -0.0027
vn -1.0000 0.0018 -0.0000
vn -1.0000 -0.0000 -0.0009
vn -0.4861 0.0017 -0.8739
vn -0.4110 0.0001 -0.9116
vn 0.0519 0.0004 0.9987
vn -0.9400 0.2670 -0.2124
vn -0.9102 0.4142 0.0002
vn 0.0003 -1.0000 -0.0001
vn -0.0003 1.0000 -0.0000
vn -0.5144 0.8576 -0.0010
vn 0.0001 1.0000 0.0001
vn -1.0000 0.0017 -0.0009
vn -0.4861 0.0004 -0.8739
vn -0.4116 0.0017 -0.9114
vn -1.0000 -0.0000 -0.0000
vn -1.0000 -0.0003 -0.0000
s 0
f 10//1 3//1 6//1
f 9//2 8//2 11//2
f 4//3 3//3 7//3
f 2//4 13//4 9//4
f 8//5 1//5 4//5
f 10//6 5//6 14//6
f 10//7 12//7 7//7
f 4//8 12//8 11//8
f 2//9 1//9 5//9
f 14//10 12//10 10//10
f 14//11 13//11 12//11
f 11//12 13//12 9//12
f 10//13 7//13 3//13
f 4//14 1//14 3//14
f 13//15 5//15 14//15
f 5//16 13//16 2//16
f 9//17 2//17 1//17
f 1//18 8//18 9//18
f 10//19 6//19 5//19
f 4//20 11//20 8//20
f 4//21 7//21 12//21
f 6//22 3//22 5//22
f 3//23 5//23 1//23
f 13//24 11//24 12//24
f 1//25 3//25 2//25
f 2//23 3//23 5//23
f 2//26 5//26 14//26
f 8//27 2//27 1//27
f 8//28 9//28 2//28
f 9//29 2//29 14//29
f 9//30 14//30 13//30
