# Blender 4.0.0
# www.blender.org
o decimated_mesh
v 0.249084 0.250040 -0.227494
v 0.247074 0.022641 -0.227489
v 0.252749 0.022634 -0.227492
v 0.245150 0.012496 0.232340
v 0.247599 0.033338 0.243492
v 0.246746 0.250041 0.243924
v 0.252246 0.012592 0.232137
v 0.252163 0.250041 0.237518
vn 0.7636 0.0017 0.6457
vn -0.0128 0.9997 0.0220
vn 0.9998 0.0161 -0.0066
vn 0.0315 -0.4744 0.8797
vn -0.9750 -0.0043 0.2221
vn -0.0005 -0.0000 -1.0000
vn 1.0000 -0.0088 0.0040
vn 1.0000 -0.0070 0.0050
vn 0.0012 0.9998 0.0218
vn 1.0000 0.0003 0.0011
vn 0.9199 -0.0086 0.3921
vn -0.0000 1.0000 -0.0000
vn 1.0000 -0.0069 0.0040
vn 0.0012 0.9998 0.0221
vn -0.0128 0.9997 0.0218
vn 0.9999 -0.0088 0.0050
s 0
f 6//1 5//1 8//1
f 4//2 7//2 2//2
f 8//3 3//3 1//3
f 7//4 5//4 4//4
f 5//5 6//5 4//5
f 3//6 2//6 1//6
f 2//7 1//7 4//7
f 4//8 1//8 6//8
f 3//9 2//9 7//9
f 8//10 7//10 3//10
f 5//11 7//11 8//11
f 6//12 8//12 1//12
f 6//13 4//13 2//13
f 2//14 4//14 3//14
f 3//15 4//15 7//15
f 1//16 6//16 2//16
