# Blender 4.0.0
# www.blender.org
o decimated_mesh
v 0.252750 0.482423 -0.218022
v 0.247164 0.482423 -0.218022
v 0.252750 0.482423 -0.232473
v 0.250524 0.490061 -0.235274
v 0.240323 0.500380 -0.234714
v 0.236497 0.501737 -0.234056
v 0.247248 0.249996 -0.218022
v 0.223157 -0.002717 -0.232628
v 0.252741 0.023237 -0.227308
v 0.236467 0.500455 -0.239416
v 0.223206 -0.001066 -0.239378
v 0.232508 -0.002723 -0.232626
v 0.239379 -0.001117 -0.232634
v 0.251182 0.010804 -0.232749
v 0.252721 0.017519 -0.232626
v 0.250804 0.485904 -0.239488
v 0.239310 0.499083 -0.239327
v 0.236496 0.492627 -0.247409
v 0.223199 0.017519 -0.252747
v 0.235519 -0.000690 -0.239689
v 0.240248 -0.000205 -0.235641
v 0.250189 0.010240 -0.237298
v 0.250670 0.014749 -0.239784
v 0.242048 0.490308 -0.246114
v 0.246166 0.491112 -0.241165
v 0.243087 0.485875 -0.247424
v 0.232508 0.017519 -0.252747
v 0.223199 0.010941 -0.251228
v 0.239567 0.012861 -0.250440
v 0.235301 0.010170 -0.250653
v 0.239882 0.001647 -0.239921
vn 0.3620 0.7566 0.5445
vn -0.0000 0.6387 0.7694
vn -0.8192 0.0233 0.5731
vn 0.3129 0.0037 -0.9498
vn -0.1394 -0.0439 0.9893
vn 0.6510 -0.6747 -0.3477
vn 0.9466 -0.2213 0.2344
vn 0.0580 -0.2435 0.9682
vn 0.4196 -0.4076 0.8111
vn 0.6661 -0.4134 -0.6208
vn 1.0000 -0.0001 -0.0037
vn 0.7169 0.0002 -0.6971
vn 0.2730 -0.9396 -0.2063
vn 0.7244 -0.6894 0.0001
vn 0.3229 -0.6692 -0.6693
vn 0.6598 0.6532 -0.3714
vn 0.9613 -0.2044 -0.1846
vn 0.9622 0.2232 -0.1561
vn -0.0110 -0.7024 -0.7117
vn 0.5578 0.6097 -0.5632
vn 0.0226 -0.9633 -0.2675
vn 0.0089 0.0110 -0.9999
vn 0.3459 0.3396 -0.8747
vn 0.7008 0.6813 0.2112
vn 0.0290 -0.2637 -0.9642
vn 0.9636 -0.0000 -0.2672
vn 0.5996 -0.5385 -0.5920
vn 0.2913 0.9300 -0.2241
vn 0.9600 0.2799 -0.0000
vn 0.6708 0.3504 -0.6536
vn -0.9993 0.0265 0.0245
vn 0.9999 0.0125 -0.0086
vn 0.9994 -0.0282 0.0192
vn -1.0000 -0.0006 -0.0028
vn -0.9999 -0.0103 -0.0099
vn 0.4185 -0.8199 -0.3906
vn -0.0003 -0.2004 0.9797
vn 1.0000 -0.0000 -0.0000
vn 0.6925 -0.0006 -0.7214
vn 0.7087 -0.7023 -0.0678
vn 0.1783 -0.2063 -0.9621
vn 0.6612 0.6718 -0.3340
vn 0.7335 0.5076 -0.4519
vn 0.2236 -0.9579 -0.1803
vn 0.9576 -0.2160 -0.1909
vn 0.4185 0.8462 -0.3297
vn 0.6724 0.3977 -0.6242
vn 0.0039 -0.7104 -0.7038
vn -0.0006 -0.9714 -0.2376
vn 0.6498 -0.0154 0.7600
vn -0.0000 -0.0000 1.0000
vn 0.4167 0.6339 -0.6515
vn 0.3443 0.6714 -0.6563
vn -0.0000 0.0114 -0.9999
vn -0.5170 -0.0002 0.8560
vn 0.4209 -0.6142 -0.6675
vn -0.0000 -0.2250 -0.9744
vn 0.9613 -0.0001 -0.2755
vn 0.9996 -0.0275 0.0010
vn 0.9991 -0.0283 0.0314
vn -0.0000 0.0112 -0.9999
vn 0.7106 -0.7036 -0.0082
vn 0.9591 -0.2165 -0.1827
vn 0.7170 -0.6935 -0.0707
vn 0.9585 -0.2091 -0.1938
vn 0.0091 0.0112 -0.9999
s 0
f 1//1 5//1 6//1
f 1//2 6//2 2//2
f 2//3 6//3 8//3
f 29//4 27//4 26//4
f 7//5 8//5 9//5
f 21//6 31//6 22//6
f 9//7 14//7 15//7
f 9//8 12//8 13//8
f 14//9 9//9 13//9
f 23//10 22//10 29//10
f 3//11 9//11 15//11
f 23//12 26//12 16//12
f 13//13 20//13 21//13
f 22//14 13//14 21//14
f 31//15 20//15 30//15
f 17//16 4//16 25//16
f 23//17 14//17 22//17
f 16//18 4//18 3//18
f 30//19 11//19 28//19
f 25//20 24//20 17//20
f 12//21 11//21 20//21
f 18//22 26//22 19//22
f 18//23 24//23 26//23
f 4//24 5//24 1//24
f 28//25 27//25 30//25
f 15//26 16//26 3//26
f 31//27 29//27 22//27
f 10//28 6//28 5//28
f 4//29 1//29 3//29
f 26//30 24//30 16//30
f 8//31 6//31 19//31
f 10//32 6//32 18//32
f 18//33 6//33 19//33
f 19//34 28//34 8//34
f 28//35 11//35 8//35
f 31//36 21//36 20//36
f 9//37 8//37 12//37
f 3//38 1//38 9//38
f 29//39 26//39 23//39
f 22//40 14//40 13//40
f 30//41 27//41 29//41
f 5//42 4//42 17//42
f 4//43 16//43 25//43
f 13//44 12//44 20//44
f 23//45 15//45 14//45
f 5//46 17//46 10//46
f 16//47 24//47 25//47
f 30//48 20//48 11//48
f 12//49 8//49 11//49
f 9//50 1//50 7//50
f 1//51 2//51 7//51
f 24//52 18//52 17//52
f 18//53 10//53 17//53
f 26//54 27//54 19//54
f 7//55 2//55 8//55
f 29//56 31//56 30//56
f 28//57 19//57 27//57
f 15//58 23//58 16//58
f 10//59 6//59 19//59
f 18//60 10//60 19//60
f 18//61 27//61 19//61
f 21//62 14//62 13//62
f 22//63 15//63 14//63
f 21//64 22//64 14//64
f 22//65 23//65 15//65
f 27//66 18//66 26//66
