# Blender 4.0.0
# www.blender.org
o decimated_mesh
v 0.252710 0.033894 0.232365
v 0.251115 0.033884 0.239153
v 0.252162 0.012825 0.232416
v 0.203956 -0.002719 0.226899
v 0.250367 0.012768 0.239552
v 0.000104 0.002751 0.227037
v -0.212346 0.030966 0.244114
v 0.204406 -0.002750 0.232501
v -0.212346 0.007234 0.240190
v -0.212346 0.030748 0.247582
v 0.204383 -0.001094 0.239386
v -0.212349 -0.000479 0.240291
v 0.232340 0.033909 0.252763
v 0.239647 0.014558 0.250703
v 0.236690 0.012352 0.251145
v -0.212346 0.026942 0.251370
v -0.212347 0.020530 0.253000
v 0.239322 0.033883 0.251139
v 0.232447 0.017497 0.252747
v 0.204360 0.009625 0.250363
v -0.212346 0.010874 0.251201
vn 0.2665 -0.0173 0.9637
vn 0.9694 -0.0298 0.2437
vn 0.0005 -0.7155 0.6986
vn -0.0055 -1.0000 -0.0050
vn -0.0258 0.3682 -0.9294
vn -0.0575 0.1628 -0.9850
vn 0.0006 -0.0010 1.0000
vn -0.0009 -0.9723 0.2339
vn 0.7128 -0.0120 0.7013
vn 0.0032 0.1435 -0.9896
vn 0.2286 -0.1125 0.9670
vn -0.0133 0.7054 0.7087
vn -0.0069 0.2463 0.9692
vn 0.5319 -0.5913 0.6062
vn -0.0007 -0.1832 0.9831
vn -1.0000 0.0003 -0.0001
vn 0.2265 0.0005 0.9740
vn -0.0226 -0.8262 -0.5629
vn -0.0621 -0.0130 -0.9980
vn 0.9732 -0.0248 0.2286
vn 0.0434 -0.7147 0.6980
vn -0.0006 -0.6929 0.7211
vn -0.0078 0.9980 0.0628
vn -0.0065 1.0000 -0.0072
vn 0.0046 1.0000 0.0038
vn 0.0017 1.0000 0.0018
vn 0.2805 -0.9330 0.2253
vn 0.0011 -0.2873 0.9579
vn 0.7206 -0.0035 0.6933
vn 0.3094 -0.9483 0.0703
vn 0.3099 -0.9503 -0.0301
vn 0.1154 -0.0054 -0.9933
vn 0.2751 -0.9161 0.2917
vn 0.0011 -0.2964 0.9551
vn -1.0000 -0.0001 -0.0000
vn -1.0000 0.0001 0.0001
vn -1.0000 0.0002 0.0001
vn -1.0000 -0.0000 -0.0000
vn 0.0048 1.0000 0.0048
vn 0.0028 1.0000 0.0021
vn 0.0010 -0.2932 0.9560
vn 0.0019 -0.2959 0.9552
vn 0.7128 -0.0039 0.7013
vn 0.7198 -0.0124 0.6940
vn -1.0000 0.0003 -0.0015
vn -1.0000 0.0001 -0.0000
vn -1.0000 -0.0001 0.0003
s 0
f 18//1 19//1 14//1
f 3//2 2//2 5//2
f 20//3 12//3 11//3
f 4//4 8//4 12//4
f 1//5 6//5 7//5
f 6//6 9//6 7//6
f 13//7 17//7 19//7
f 8//8 11//8 12//8
f 18//9 5//9 2//9
f 1//10 4//10 6//10
f 15//11 14//11 19//11
f 10//12 16//12 13//12
f 13//13 16//13 17//13
f 15//14 5//14 14//14
f 21//15 19//15 17//15
f 12//16 21//16 9//16
f 18//17 13//17 19//17
f 4//18 12//18 6//18
f 12//19 9//19 6//19
f 3//20 1//20 2//20
f 11//21 15//21 20//21
f 20//22 21//22 12//22
f 10//23 13//23 7//23
f 7//24 13//24 1//24
f 13//25 18//25 1//25
f 18//26 2//26 1//26
f 5//27 11//27 8//27
f 20//28 15//28 21//28
f 18//29 14//29 5//29
f 5//30 8//30 3//30
f 8//31 4//31 3//31
f 4//32 1//32 3//32
f 5//33 15//33 11//33
f 21//34 15//34 19//34
f 21//35 17//35 9//35
f 17//36 16//36 7//36
f 16//37 10//37 7//37
f 7//38 9//38 17//38
f 18//39 2//39 13//39
f 2//40 1//40 13//40
f 21//41 20//41 19//41
f 20//42 15//42 19//42
f 14//43 2//43 18//43
f 14//44 5//44 2//44
f 9//45 12//45 7//45
f 12//36 10//36 7//36
f 12//46 16//46 10//46
f 12//46 17//46 16//46
f 12//47 21//47 17//47
