# Blender 4.0.0
# www.blender.org
o Safe_18_1_safe_18_1_collision_12
v 0.207400 0.457999 -0.218020
v 0.207400 0.466231 -0.216246
v 0.207400 0.466231 -0.218020
v 0.208061 0.250041 -0.218020
v 0.216229 0.466231 -0.180122
v 0.252746 0.466231 -0.218020
v 0.252746 0.250041 -0.218020
v 0.218018 0.250041 -0.180122
v 0.252746 0.466231 -0.180122
v 0.252746 0.250041 -0.180122
vn -1.0000 -0.0000 -0.0000
vn -0.0000 -0.0000 -1.0000
vn -0.9999 -0.0032 0.0148
vn -0.0000 1.0000 -0.0000
vn -0.9714 -0.0049 0.2374
vn -0.0000 -1.0000 -0.0000
vn -0.9671 -0.0080 0.2541
vn -0.0000 -0.0000 1.0000
vn 1.0000 -0.0000 -0.0000
s 0
f 1//1 2//1 3//1
f 1//2 3//2 6//2
f 1//2 6//2 7//2
f 1//2 7//2 4//2
f 1//3 4//3 2//3
f 2//4 5//4 9//4
f 2//4 9//4 6//4
f 2//4 6//4 3//4
f 2//5 4//5 5//5
f 4//6 7//6 10//6
f 4//6 10//6 8//6
f 4//7 8//7 5//7
f 5//8 8//8 10//8
f 5//8 10//8 9//8
f 6//9 9//9 10//9
f 6//9 10//9 7//9
