# Blender 4.0.0
# www.blender.org
o decimated_mesh
v -0.212366 0.027040 -0.212362
v -0.219854 0.028718 -0.212390
v -0.222754 0.034505 -0.212493
v -0.220034 0.028824 0.217967
v -0.217718 0.250019 -0.212567
v -0.222983 0.036946 0.251341
v -0.222927 0.250019 -0.212564
v -0.212303 0.027296 0.218416
v -0.219490 0.036927 0.247872
v -0.222983 0.250019 0.251296
v -0.219325 0.250023 0.247605
vn -0.1939 -0.9810 0.0002
vn 0.9715 -0.0005 0.2372
vn -0.2013 -0.9557 0.2148
vn 0.0122 -0.0006 -0.9999
vn 0.7048 0.0003 0.7094
vn -0.8940 -0.4481 -0.0003
vn -1.0000 -0.0008 -0.0001
vn -0.2186 -0.9758 0.0006
vn 0.9997 0.0240 -0.0002
vn 0.9995 0.0311 0.0035
vn -0.0004 -0.0181 -0.9998
vn -0.0004 -0.0003 -1.0000
vn -0.0009 1.0000 -0.0000
vn -0.0000 1.0000 -0.0000
vn 0.7103 0.0002 0.7039
vn 0.3613 -0.8567 0.3683
vn -0.9382 -0.3461 0.0014
vn -1.0000 -0.0000 -0.0005
vn -0.1939 -0.9810 0.0006
vn -0.2186 -0.9758 0.0001
vn -1.0000 -0.0008 -0.0005
vn -1.0000 -0.0000 -0.0001
vn 0.7048 0.0002 0.7094
vn 0.7103 0.0003 0.7039
s 0
f 2//1 8//1 4//1
f 11//2 9//2 8//2
f 8//3 6//3 4//3
f 5//4 1//4 3//4
f 11//5 6//5 9//5
f 4//6 3//6 2//6
f 3//7 10//7 7//7
f 2//8 1//8 8//8
f 1//9 5//9 8//9
f 8//10 5//10 11//10
f 2//11 3//11 1//11
f 3//12 7//12 5//12
f 7//13 10//13 11//13
f 11//14 5//14 7//14
f 11//15 10//15 6//15
f 8//16 9//16 6//16
f 4//17 6//17 3//17
f 3//18 6//18 10//18
f 8//19 4//19 1//19
f 4//20 2//20 1//20
f 6//21 7//21 3//21
f 10//22 7//22 6//22
f 9//23 10//23 6//23
f 10//24 9//24 11//24
