# Blender 4.0.0
# www.blender.org
o decimated_mesh
v 0.236330 0.502173 0.232482
v 0.236244 0.500916 0.239027
v 0.000075 0.502750 0.227187
v 0.236408 0.496029 0.232472
v 0.000075 0.497241 0.227187
v -0.217432 0.503158 0.227418
v -0.234230 0.496579 0.244027
v -0.218323 0.500967 0.239564
v 0.236043 0.467995 0.245189
v -0.234231 0.496586 0.232670
v 0.236304 0.488563 0.251303
v 0.235954 0.467996 0.252323
v -0.217922 0.497241 0.227340
v -0.234231 0.467573 0.246662
v -0.221654 0.467573 0.244222
v -0.234180 0.467572 0.252497
v -0.234157 0.489246 0.251083
v -0.234188 0.482247 0.252548
vn 0.0004 -0.0035 1.0000
vn -1.0000 0.0057 0.0063
vn -0.0006 -0.4945 -0.8692
vn -0.2213 0.9624 0.1574
vn 0.0003 0.9841 0.1776
vn -0.0224 -0.0019 0.9997
vn -0.0002 0.2049 0.9788
vn -0.3118 0.0384 -0.9494
vn -0.2669 -0.4186 -0.8681
vn -0.1679 -0.4715 -0.8657
vn 0.0009 0.7049 0.7093
vn 0.0020 0.0495 0.9988
vn -1.0000 -0.0100 -0.0000
vn -1.0000 0.0016 0.0033
vn -1.0000 -0.0005 0.0087
vn 0.0182 -0.4132 -0.9104
vn 0.0023 -0.5107 -0.8597
vn 0.9998 -0.0164 0.0124
vn 0.9999 -0.0128 0.0005
vn 0.9998 0.0127 0.0157
vn 0.9998 0.0172 0.0123
vn -0.0000 0.9820 0.1888
vn 0.0007 -0.0133 0.9999
vn 0.0011 -0.0000 1.0000
vn -0.0224 -0.0000 0.9997
vn 0.0019 0.9997 0.0239
vn -0.0009 1.0000 -0.0001
vn -0.0000 -1.0000 -0.0001
vn -0.0009 1.0000 -0.0013
vn -0.3642 0.9313 0.0007
vn 0.0109 0.6934 0.7205
vn 0.0007 0.7004 0.7137
vn 0.0010 -0.0133 0.9999
vn 0.0002 0.9841 0.1776
vn 0.0003 0.9820 0.1887
vn 0.9996 0.0223 0.0175
vn 0.9999 0.0127 0.0106
vn 0.0007 -0.0000 1.0000
vn -0.0224 -0.0000 0.9998
vn -1.0000 -0.0029 -0.0000
vn -0.9998 0.0084 0.0192
vn 0.0007 0.6934 0.7206
vn 0.0010 0.7049 0.7093
vn 0.0009 0.7114 0.7028
s 0
f 12//1 18//1 16//1
f 10//2 18//2 17//2
f 5//3 15//3 13//3
f 6//4 7//4 8//4
f 2//5 6//5 8//5
f 1//6 5//6 4//6
f 11//7 17//7 18//7
f 6//8 13//8 10//8
f 10//9 13//9 14//9
f 13//10 15//10 14//10
f 11//11 2//11 8//11
f 12//12 11//12 18//12
f 17//13 7//13 10//13
f 10//14 14//14 18//14
f 14//15 16//15 18//15
f 9//16 5//16 4//16
f 5//17 9//17 15//17
f 11//18 12//18 9//18
f 9//19 4//19 11//19
f 1//20 2//20 4//20
f 2//21 11//21 4//21
f 2//22 1//22 6//22
f 5//23 6//23 13//23
f 6//24 5//24 3//24
f 3//25 5//25 1//25
f 6//26 1//26 3//26
f 12//27 9//27 16//27
f 14//28 15//28 16//28
f 15//29 16//29 9//29
f 10//30 7//30 6//30
f 8//31 7//31 17//31
f 17//32 11//32 8//32
f 3//33 6//33 13//33
f 8//34 1//34 6//34
f 4//6 1//6 3//6
f 8//35 2//35 1//35
f 2//36 11//36 1//36
f 11//37 4//37 1//37
f 5//38 3//38 13//38
f 4//39 3//39 5//39
f 18//40 7//40 10//40
f 18//41 17//41 7//41
f 17//42 11//42 7//42
f 11//43 2//43 7//43
f 2//44 8//44 7//44
f 9//27 15//27 12//27
f 12//29 15//29 16//29
