# Blender 4.0.0
# www.blender.org
o decimated_mesh
v 0.220440 0.249970 -0.180048
v 0.207786 0.467996 -0.180118
v 0.222183 0.467864 -0.180119
v 0.221631 0.249958 0.249747
v 0.207834 0.467996 0.217479
v 0.226407 0.467998 0.252712
v 0.216117 0.467996 0.247119
vn -0.4776 -0.0015 0.8786
vn -0.9629 -0.0211 0.2691
vn 0.0005 1.0000 -0.0003
vn 0.0092 1.0000 -0.0000
vn -0.0002 1.0000 -0.0000
vn -0.0001 -0.0003 -1.0000
vn 0.9998 -0.0219 -0.0028
vn 0.9999 -0.0080 -0.0098
vn -0.9983 -0.0579 0.0001
vn -0.9980 -0.0627 0.0028
vn 0.0092 1.0000 -0.0004
vn -0.0001 1.0000 -0.0000
s 0
f 7//1 4//1 6//1
f 7//2 5//2 4//2
f 6//3 3//3 5//3
f 3//4 2//4 5//4
f 5//5 7//5 6//5
f 1//6 2//6 3//6
f 4//7 1//7 6//7
f 1//8 3//8 6//8
f 2//9 1//9 5//9
f 1//10 4//10 5//10
f 3//11 2//11 6//11
f 2//12 5//12 6//12
