# Blender 4.0.0
# www.blender.org
o decimated_mesh
v -0.252750 0.250019 -0.227310
v -0.247249 0.250019 -0.227310
v -0.249080 0.250012 0.228184
v -0.251814 0.487825 -0.234124
v -0.234798 0.502870 -0.233953
v -0.251128 0.483444 0.228230
v -0.234232 0.502372 -0.000078
vn -0.9999 -0.0088 0.0081
vn -0.6624 0.7491 0.0081
vn 0.9988 -0.0492 -0.0025
vn -1.0000 0.0040 0.0015
vn 0.0348 -0.0280 -0.9990
vn -0.0000 -0.0286 -0.9996
vn -0.0000 -1.0000 -0.0000
vn 0.9972 0.0087 0.0745
vn 0.9985 -0.0551 0.0040
vn -0.7264 0.6873 0.0032
vn -0.6972 0.7168 0.0078
vn -0.6624 0.7491 0.0032
s 0
f 6//1 1//1 3//1
f 4//2 6//2 5//2
f 5//3 7//3 2//3
f 6//4 4//4 1//4
f 5//5 2//5 4//5
f 2//6 1//6 4//6
f 3//7 1//7 2//7
f 6//8 3//8 7//8
f 3//9 2//9 7//9
f 5//10 6//10 7//10
f 7//11 4//11 6//11
f 5//12 4//12 7//12
