# Blender 4.0.0
# www.blender.org
o decimated_mesh
v -0.009061 0.002435 0.000002
v -0.009056 0.002249 0.000002
v -0.009065 0.002222 0.001097
v -0.009028 0.001228 0.001844
v -0.009001 0.002391 0.001156
v -0.009057 0.001595 0.001844
v -0.008995 0.002115 0.000002
v -0.008880 0.001139 0.001844
v -0.008975 0.002522 0.000762
v -0.008991 0.002586 0.000002
v -0.008984 0.001812 0.001843
v -0.008879 0.002496 0.000992
v 0.009004 0.002582 0.000002
v 0.009000 0.002110 0.000001
v 0.008959 0.002501 0.000933
v 0.009002 0.001171 0.001844
v 0.008997 0.001805 0.001843
v 0.009022 0.002397 0.001105
v 0.008963 0.002388 0.001194
v 0.009075 0.002229 0.001075
v 0.009085 0.002352 0.000001
v 0.009080 0.001509 0.001844
vn 0.0003 0.7445 0.6676
vn 0.9426 0.3314 0.0404
vn 0.9297 -0.3279 -0.1679
vn 0.0011 0.0021 1.0000
vn -0.9412 0.3344 0.0485
vn -0.4729 -0.7904 -0.3893
vn -0.0003 -0.8836 -0.4682
vn 0.7807 0.6182 0.0914
vn -0.8882 -0.4074 -0.2123
vn -0.9139 0.3058 0.2669
vn -0.4004 0.8776 0.2636
vn -0.0036 -0.0008 1.0000
vn -0.0000 0.9959 0.0903
vn 0.0011 0.9167 0.3996
vn 0.4130 0.8371 0.3588
vn 0.9338 0.2646 0.2410
vn 0.9402 -0.3347 -0.0624
vn 0.9690 -0.2258 -0.1007
vn 0.9546 0.2948 0.0426
vn -0.0012 0.7643 0.6449
vn -0.0000 0.0019 1.0000
vn -0.0000 0.0007 1.0000
vn 0.0127 0.0012 0.9999
vn -0.0107 0.0007 0.9999
vn 0.0016 -0.8910 -0.4539
vn -0.9314 0.2669 0.2473
vn 0.6491 0.5827 0.4889
vn -0.0000 -0.0010 1.0000
vn 0.0102 -0.0011 0.9999
vn -0.0000 -0.0008 1.0000
vn -0.0000 -0.0001 1.0000
vn 0.9997 0.0196 0.0115
vn 0.0002 0.9962 0.0868
vn 0.0647 0.9945 0.0828
vn -0.9038 0.4233 0.0638
vn -0.0010 0.8427 0.5384
vn 0.9378 0.2547 0.2360
vn -0.9957 -0.0763 -0.0531
vn -0.9996 -0.0277 -0.0084
vn -0.9990 -0.0431 -0.0088
vn -0.0000 -0.0025 -1.0000
vn -0.0000 -0.0000 -1.0000
vn -0.0000 0.0025 -1.0000
vn -0.0000 0.0047 -1.0000
vn 0.9384 0.2555 0.2325
vn 0.9331 0.2644 0.2436
vn -0.0000 0.0037 1.0000
vn -0.0000 0.0002 1.0000
vn -0.0000 -0.0019 1.0000
vn -0.9967 -0.0763 -0.0272
vn -0.9996 -0.0277 -0.0100
vn -0.9997 -0.0217 -0.0072
vn -0.9248 0.3753 0.0631
vn -0.9042 0.4235 0.0553
vn 0.0002 0.9964 0.0843
vn 0.0003 0.9962 0.0868
vn -0.0000 0.0054 1.0000
vn -0.9107 0.3048 0.2789
vn -0.9328 0.2708 0.2376
vn 0.0001 0.9940 0.1096
s 0
f 11//1 17//1 19//1
f 18//2 21//2 13//2
f 21//3 16//3 14//3
f 4//4 8//4 11//4
f 10//5 5//5 9//5
f 4//6 7//6 8//6
f 8//7 7//7 14//7
f 15//8 18//8 13//8
f 7//9 4//9 2//9
f 11//10 3//10 6//10
f 5//11 12//11 9//11
f 1//12 7//12 10//12
f 12//13 15//13 10//13
f 12//14 19//14 15//14
f 15//15 19//15 18//15
f 20//16 17//16 22//16
f 3//17 1//17 5//17
f 16//18 21//18 22//18
f 18//19 20//19 21//19
f 19//20 5//20 11//20
f 17//21 11//21 8//21
f 16//22 17//22 8//22
f 6//23 4//23 11//23
f 16//24 22//24 17//24
f 16//25 8//25 14//25
f 11//26 5//26 3//26
f 17//27 18//27 19//27
f 10//28 14//28 13//28
f 14//29 21//29 13//29
f 14//30 10//30 7//30
f 1//31 2//31 7//31
f 22//32 21//32 20//32
f 13//33 10//33 15//33
f 10//34 9//34 12//34
f 5//35 10//35 1//35
f 12//36 5//36 19//36
f 20//37 18//37 17//37
f 6//38 3//38 4//38
f 3//39 1//39 2//39
f 4//40 3//40 2//40
f 14//41 7//41 21//41
f 7//42 2//42 21//42
f 2//42 1//42 21//42
f 1//43 10//43 21//43
f 10//44 13//44 21//44
f 20//45 18//45 22//45
f 18//46 17//46 22//46
f 17//47 6//47 22//47
f 6//48 4//48 22//48
f 4//48 8//48 22//48
f 8//49 16//49 22//49
f 4//50 6//50 2//50
f 6//51 1//51 2//51
f 6//52 3//52 1//52
f 5//53 9//53 1//53
f 9//54 10//54 1//54
f 9//55 13//55 10//55
f 9//56 15//56 13//56
f 11//57 6//57 17//57
f 11//58 5//58 6//58
f 5//59 3//59 6//59
f 12//60 15//60 9//60
