# Blender 4.0.0
# www.blender.org
o decimated_mesh
v 0.954746 0.020102 0.363784
v 0.951046 0.006237 0.355235
v 0.948425 0.020016 0.341858
v 0.950245 0.033668 0.349008
v 0.949735 0.053510 0.372640
v 0.950472 0.029729 0.392032
v 0.950931 0.013503 0.389049
v 0.951450 0.005976 0.379053
v 0.943498 -0.003960 0.363784
v 0.934649 0.006293 0.332180
v 0.930606 0.068378 0.334443
v 0.932931 -0.008938 0.384089
v 0.932779 -0.009615 0.357237
v 0.925790 -0.006355 0.340064
v 0.910608 -0.008597 0.332361
v 0.919061 0.022953 0.320272
v 0.938555 0.022882 0.330608
v 0.910735 0.071252 0.344561
v 0.936449 0.069446 0.375602
v 0.931268 0.069403 0.395558
v 0.929154 0.026485 0.413792
v 0.927867 0.009102 0.412589
v 0.919768 -0.008962 0.396609
v 0.901792 0.020102 0.319475
v 0.901792 0.039074 0.322251
v 0.892498 0.068880 0.332423
v 0.911105 0.054436 0.412723
v 0.900953 -0.008179 0.401651
v 0.901280 -0.012217 0.371489
v 0.871469 0.007458 0.333452
v 0.891524 -0.007361 0.337826
v 0.882441 0.023328 0.325032
v 0.882155 0.071062 0.374249
v 0.901792 0.069305 0.398701
v 0.901792 0.020102 0.417580
v 0.895093 0.005774 0.413897
v 0.879594 -0.004845 0.391897
v 0.870889 -0.009356 0.370952
v 0.868296 0.019536 0.333903
v 0.870797 0.040438 0.334716
v 0.875972 0.061220 0.338077
v 0.870627 0.068811 0.354607
v 0.872500 0.068140 0.392562
v 0.886458 0.034181 0.412621
v 0.878972 0.020023 0.410594
v 0.870296 0.006382 0.396713
v 0.860871 0.039074 0.363784
v 0.859032 0.022951 0.380936
v 0.869646 0.021873 0.401644
v 0.858264 0.020102 0.363784
vn 0.9574 -0.0856 -0.2757
vn 0.9607 0.0170 -0.2770
vn 0.9748 0.1809 -0.1308
vn 0.9393 -0.1291 0.3178
vn 0.9876 -0.0965 0.1239
vn 0.9689 -0.2468 -0.0191
vn 0.7955 -0.6057 -0.0201
vn 0.7540 -0.3781 -0.5372
vn 0.6473 -0.2386 -0.7239
vn 0.1595 -0.6933 0.7028
vn 0.4570 -0.8892 0.0198
vn 0.2431 -0.4032 -0.8822
vn 0.4593 -0.1904 -0.8676
vn 0.7020 -0.2292 -0.6743
vn -0.3109 0.2187 -0.9249
vn 0.0218 0.1447 -0.9892
vn 0.7508 0.6489 -0.1234
vn 0.7704 0.6049 0.2013
vn 0.6695 0.2623 0.6950
vn -0.3176 0.3821 0.8678
vn -0.8776 0.1439 0.4573
vn -0.9905 0.1361 0.0217
vn 0.2814 -0.9153 -0.2883
vn -0.0911 -0.9894 -0.1133
vn 0.8794 0.3738 -0.2949
vn 0.9869 0.1192 0.1087
vn 0.1549 -0.0797 0.9847
vn 0.1216 0.9917 -0.0430
vn 0.9606 -0.2729 -0.0522
vn 0.5840 -0.7203 -0.3744
vn -0.3072 -0.2716 -0.9121
vn 0.7604 0.2189 -0.6114
vn 0.3871 -0.2403 0.8901
vn -0.2101 -0.4535 -0.8661
vn -0.9231 -0.3706 0.1029
vn 0.0249 0.9734 -0.2276
vn 0.0950 -0.6338 0.7676
vn -0.0986 -0.9878 -0.1209
vn 0.9888 0.0005 0.1494
vn -0.5088 -0.1017 -0.8548
vn -0.2555 -0.3827 0.8879
vn -0.4990 0.7150 -0.4897
vn -0.5475 0.0978 -0.8311
vn -0.1857 0.6101 0.7703
vn -0.8673 0.2823 -0.4100
vn -0.1506 0.1784 0.9724
vn -0.2928 0.0179 0.9560
vn -0.2907 -0.1085 0.9507
vn -0.4485 -0.6393 0.6246
vn -0.2845 -0.9060 0.3134
vn -0.5237 -0.4207 0.7408
vn -0.6134 -0.6802 0.4014
vn -0.0952 -0.9868 0.1311
vn -0.5023 -0.7861 -0.3602
vn -0.9283 0.2098 -0.3072
vn -0.0777 0.9946 -0.0684
vn 0.6236 -0.6086 0.4906
vn -0.6962 -0.2441 0.6751
vn -0.8795 -0.1775 0.4415
vn -0.8915 -0.3955 0.2211
vn 0.0218 0.9994 0.0274
vn -0.8805 -0.4273 -0.2052
vn 0.7201 -0.1057 0.6858
vn 0.9407 -0.1248 0.3154
vn -0.9236 -0.2312 -0.3057
vn 0.6293 -0.1869 -0.7543
vn 0.5004 -0.6886 0.5248
vn 0.0731 -0.9945 0.0750
vn 0.0933 -0.9953 0.0245
vn -0.0057 -0.9911 0.1326
vn -0.3857 -0.6948 0.6071
vn 0.5937 -0.7276 -0.3437
vn -0.2388 0.9706 0.0289
vn 0.0040 0.9976 0.0685
vn -0.0653 0.9902 0.1235
vn 0.1112 0.1096 0.9877
vn 0.0725 0.7079 0.7025
vn 0.1052 -0.3803 -0.9189
vn 0.0664 -0.2774 0.9584
vn 0.0514 0.9986 0.0155
vn 0.8933 -0.3712 -0.2532
vn 0.5953 -0.6819 -0.4250
vn 0.0455 -0.9957 -0.0813
vn 0.7761 0.1864 -0.6024
vn 0.4116 -0.6720 -0.6156
vn 0.4099 -0.2336 0.8817
vn -0.2589 -0.5787 -0.7734
vn -0.0545 -0.2847 0.9571
vn 0.6447 -0.7492 0.1518
vn 0.4592 0.3281 0.8255
vn -0.0793 0.9940 -0.0751
vn 0.6211 -0.6076 0.4950
vn 0.4633 0.1545 -0.8726
vn -0.2516 0.1401 -0.9576
vn 0.8321 0.3657 0.4169
vn 0.7182 -0.1009 0.6885
vn 0.7616 0.1854 -0.6210
vn 0.7871 0.2006 -0.5833
vn -0.1364 -0.2633 0.9550
vn -0.0543 -0.3376 0.9397
vn 0.4135 -0.2448 0.8770
vn 0.3977 -0.2318 0.8878
vn 0.9399 -0.1248 0.3179
vn 0.9402 -0.1292 0.3150
vn 0.9440 -0.3259 -0.0523
vn 0.9586 -0.2514 -0.1335
vn 0.6614 -0.1835 -0.7272
vn 0.6020 -0.2079 -0.7709
s 0
f 1//1 2//1 3//1
f 1//2 3//2 4//2
f 1//3 4//3 5//3
f 47//4 50//4 39//4
f 1//5 7//5 8//5
f 1//6 8//6 2//6
f 2//7 8//7 9//7
f 2//8 10//8 3//8
f 44//9 45//9 49//9
f 28//10 23//10 22//10
f 9//11 12//11 13//11
f 10//12 15//12 16//12
f 10//13 16//13 17//13
f 10//14 17//14 3//14
f 32//15 26//15 25//15
f 25//16 16//16 24//16
f 5//17 11//17 19//17
f 5//18 19//18 20//18
f 20//19 21//19 6//19
f 43//20 44//20 27//20
f 49//21 43//21 48//21
f 48//22 47//22 50//22
f 13//23 15//23 14//23
f 29//24 38//24 15//24
f 4//25 11//25 5//25
f 6//26 1//26 5//26
f 35//27 22//27 21//27
f 19//28 11//28 18//28
f 42//29 43//29 48//29
f 14//30 2//30 13//30
f 30//31 32//31 24//31
f 17//32 4//32 3//32
f 41//33 40//33 32//33
f 15//34 30//34 24//34
f 50//35 38//35 48//35
f 18//36 11//36 26//36
f 22//37 36//37 28//37
f 31//38 15//38 38//38
f 6//39 7//39 1//39
f 32//40 30//40 39//40
f 26//41 25//41 16//41
f 26//42 41//42 42//42
f 32//43 39//43 40//43
f 34//44 43//44 27//44
f 41//45 40//45 42//45
f 27//46 44//46 35//46
f 35//47 44//47 45//47
f 35//48 45//48 36//48
f 37//49 36//49 46//49
f 28//50 37//50 38//50
f 36//51 45//51 46//51
f 38//52 37//52 46//52
f 29//53 28//53 38//53
f 30//54 31//54 38//54
f 42//55 40//55 47//55
f 33//56 18//56 42//56
f 7//57 12//57 8//57
f 46//58 45//58 49//58
f 46//59 49//59 48//59
f 46//60 48//60 38//60
f 20//61 18//61 33//61
f 38//62 50//62 30//62
f 22//63 7//63 6//63
f 47//64 39//64 40//64
f 30//65 50//65 39//65
f 44//66 49//66 43//66
f 23//67 12//67 22//67
f 12//68 23//68 29//68
f 13//69 12//69 29//69
f 23//70 28//70 29//70
f 36//71 37//71 28//71
f 9//72 13//72 2//72
f 33//73 42//73 43//73
f 20//74 33//74 34//74
f 34//75 33//75 43//75
f 21//76 27//76 35//76
f 27//77 20//77 34//77
f 24//78 16//78 15//78
f 35//79 36//79 22//79
f 18//80 20//80 19//80
f 42//81 48//81 47//81
f 14//82 10//82 2//82
f 15//83 13//83 29//83
f 17//84 11//84 4//84
f 15//85 10//85 14//85
f 41//86 32//86 26//86
f 31//87 30//87 15//87
f 26//88 16//88 11//88
f 9//89 8//89 12//89
f 27//90 21//90 20//90
f 26//91 42//91 18//91
f 7//92 22//92 12//92
f 11//93 17//93 16//93
f 25//94 24//94 32//94
f 20//95 6//95 5//95
f 21//96 22//96 6//96
f 17//97 11//97 3//97
f 11//98 4//98 3//98
f 16//99 11//99 25//99
f 25//100 11//100 26//100
f 40//101 26//101 41//101
f 32//102 26//102 40//102
f 39//103 40//103 50//103
f 50//104 40//104 47//104
f 47//105 42//105 43//105
f 47//106 43//106 48//106
f 49//107 43//107 45//107
f 45//108 43//108 44//108
