mtllib material.mtl
usemtl material_0
v -0.22076460 0.03347561 0.22069470
v -0.21652440 0.02923546 0.22069470
v -0.21652440 0.02923546 0.24575980
v -0.22076460 0.03347562 0.24575980
v -0.22076460 0.46652450 0.24575980
v -0.22076460 0.46652450 0.22069460
v -0.21652440 0.47076460 0.22069460
v -0.21652440 0.47076460 0.24575980
v 0.22076460 0.46652450 0.22069460
v 0.21652440 0.47076460 0.22069460
v 0.21652440 0.47076460 0.24575980
v 0.22076460 0.46652450 0.24575980
v 0.22076460 0.03347562 0.24575980
v 0.22076460 0.03347561 0.22069470
v 0.21652440 0.02923546 0.22069470
v 0.21652440 0.02923546 0.24575980
v -0.21652440 0.02923546 0.24575980
v -0.21652440 0.02923546 0.22069470
v 0.21652440 0.02923546 0.22069470
v 0.21652440 0.02923546 0.24575980
v 0.21652440 0.47076460 0.24575980
v 0.21652440 0.47076460 0.22069460
v -0.21652440 0.47076460 0.22069460
v -0.21652440 0.47076460 0.24575980
vn 0.98850920 -0.12973120 -0.07758412
vn -0.12895320 0.98818700 -0.08280940
vn 0.20064190 0.40619670 0.89148580
vn 0.47026500 0.01055260 0.88246220
vn 0.40619650 -0.20064120 0.89148610
vn 0.98818730 0.12895210 -0.08280928
vn -0.12973220 -0.98850910 -0.07758398
vn 0.01055309 -0.47026540 0.88246190
vn -0.98850950 0.12972990 -0.07758416
vn 0.12895430 -0.98818690 -0.08280908
vn -0.20064250 -0.40619680 0.89148580
vn -0.47026550 -0.01055262 0.88246190
vn -0.40619600 0.20064110 0.89148640
vn -0.98818700 -0.12895340 -0.08280922
vn 0.12973110 0.98850920 -0.07758431
vn -0.01055266 0.47026540 0.88246200
vn 0.20064190 0.40619670 0.89148580
vn -0.12895320 0.98818700 -0.08280940
vn 0.12973110 0.98850920 -0.07758431
vn -0.01055266 0.47026540 0.88246200
vn -0.20064250 -0.40619680 0.89148580
vn 0.12895430 -0.98818690 -0.08280908
vn -0.12973220 -0.98850910 -0.07758398
vn 0.01055309 -0.47026540 0.88246190
vt 0.85781560 0.01840328
vt 0.86033880 0.01840328
vt 0.86033880 0.00266275
vt 0.85781560 0.00266275
vt 0.60011980 0.00266278
vt 0.60011980 0.01840331
vt 0.59759650 0.01840331
vt 0.59759660 0.00266278
vt 0.26274220 0.45079750
vt 0.26526540 0.45079750
vt 0.26526540 0.43505700
vt 0.26274220 0.43505700
vt 0.00504640 0.43505700
vt 0.00504640 0.45079750
vt 0.00252319 0.45079750
vt 0.00252319 0.43505700
vt 1.00000000 0.60965000
vt 0.98945310 0.60965000
vt 0.98945310 0.88159790
vt 1.00000000 0.88159790
vt 0.19453670 0.72805190
vt 0.18398980 0.72805190
vt 0.18398980 0.99999990
vt 0.19453670 0.99999990
f 3/3/3 2/2/2 1/1/1
f 4/4/4 3/3/3 1/1/1
f 4/4/4 1/1/1 5/5/5
f 1/1/1 6/6/6 5/5/5
f 5/5/5 6/6/6 7/7/7
f 8/8/8 5/5/5 7/7/7
f 11/11/11 10/10/10 9/9/9
f 12/12/12 11/11/11 9/9/9
f 12/12/12 9/9/9 13/13/13
f 9/9/9 14/14/14 13/13/13
f 14/14/14 15/15/15 13/13/13
f 15/15/15 16/16/16 13/13/13
f 19/19/19 18/18/18 17/17/17
f 20/20/20 19/19/19 17/17/17
f 23/23/23 22/22/22 21/21/21
f 24/24/24 23/23/23 21/21/21

