# Blender 4.0.0
# www.blender.org
o decimated_mesh
v 0.170605 0.008230 0.043741
v 0.176068 0.008165 -0.001651
v 0.169334 0.006358 -0.042931
v 0.169976 0.008267 -0.046000
v 0.043478 0.008247 -0.172440
v 0.150786 0.008264 -0.091460
v 0.123490 0.008265 -0.126445
v 0.085017 0.008265 -0.155581
v -0.001390 0.008232 0.178185
v 0.043548 0.008177 0.172198
v 0.088531 0.008237 0.153242
v 0.124558 0.008240 0.125131
v 0.150715 0.008239 0.090931
v 0.154907 0.008239 0.083079
v 0.170192 0.000490 -0.001282
v 0.165512 0.003520 -0.049370
v -0.003308 0.008246 -0.178490
v 0.149575 0.005517 -0.090072
v 0.120095 0.004753 -0.126473
v 0.085457 0.004240 -0.152171
v -0.047974 0.008223 0.172211
v 0.046921 0.002100 0.166493
v 0.086790 0.004569 0.151503
v 0.119886 0.004930 0.126349
v 0.124939 0.004893 0.121363
v 0.150131 0.004539 0.087568
v 0.165062 0.000376 0.040986
v 0.166741 -0.001235 0.013337
v 0.167154 -0.001342 -0.008571
v 0.166063 -0.000942 -0.023531
v 0.164699 0.000550 -0.042931
v 0.040652 -0.000105 -0.166696
v 0.143763 -0.000142 -0.090394
v 0.145931 -0.000792 -0.086009
v 0.119628 -0.000261 -0.121259
v 0.085457 -0.000615 -0.147219
v 0.078828 -0.000386 -0.151186
v -0.179556 0.007111 -0.002695
v -0.180100 0.008217 0.004478
v -0.174131 0.008234 0.047166
v -0.156504 0.008231 0.089226
v -0.127815 0.008146 0.126531
v -0.090405 0.008233 0.154728
v -0.044314 0.005580 0.171293
v -0.001536 0.004793 0.175960
v 0.041538 0.000249 0.166481
v 0.085224 -0.000760 0.147183
v 0.120009 -0.000358 0.120669
v 0.161172 -0.000831 0.049331
v 0.162120 -0.001347 0.042912
v 0.162528 -0.002701 0.012733
v 0.162563 -0.002695 -0.013123
v 0.161336 -0.001152 -0.048691
v 0.046532 -0.001140 -0.163119
v -0.003033 -0.000167 -0.172105
v 0.106011 -0.000766 -0.131446
v -0.178338 0.004768 0.000115
v -0.172935 0.005266 0.044167
v -0.153589 0.005219 0.090304
v -0.090680 0.005095 0.152303
v -0.045387 0.000001 0.166574
v 0.046498 -0.001164 0.163099
v 0.145850 -0.000763 0.085938
v 0.149750 0.000302 0.080150
v 0.157119 -0.002662 0.046725
v 0.157050 -0.002645 -0.047629
v 0.041384 -0.002264 -0.161695
v 0.022554 -0.001144 -0.167944
v -0.003926 -0.001578 -0.169151
v -0.024138 -0.001225 -0.168105
v -0.046080 -0.000164 -0.166402
v 0.142467 -0.002474 -0.083343
v 0.117202 -0.002067 -0.118663
v 0.081867 -0.002465 -0.143872
v -0.178903 0.008279 -0.015079
v -0.167592 -0.000646 0.046047
v -0.152365 -0.000198 0.083316
v -0.123251 -0.000641 0.121519
v -0.084829 -0.000002 0.150722
v -0.049312 -0.001285 0.163483
v -0.022553 -0.001132 0.168420
v -0.001367 -0.000459 0.171666
v 0.019347 -0.001189 0.168105
v 0.046560 -0.002713 0.158453
v 0.081867 -0.002553 0.143888
v 0.117202 -0.002093 0.118678
v 0.019362 -0.002746 0.163807
v -0.049935 0.008249 -0.172048
v 0.016215 -0.002629 -0.164095
v -0.052071 -0.000981 -0.163386
v -0.173864 0.006450 -0.044641
v -0.173807 -0.000634 0.001521
v -0.148786 -0.000669 0.088379
v -0.120072 -0.002440 0.118678
v -0.088274 -0.000910 0.147619
v -0.049402 -0.002636 0.159055
v -0.024138 -0.002574 0.164111
v 0.142467 -0.002461 0.083323
v -0.081799 -0.002625 0.145910
v -0.120072 -0.002380 -0.118663
v -0.083081 -0.000585 -0.150929
v -0.174058 0.008270 -0.047451
v -0.168079 -0.000681 -0.044071
v -0.170600 -0.001967 0.002501
v -0.150598 -0.001215 0.083149
v -0.094843 -0.002261 0.138867
v -0.089381 -0.002532 -0.142371
v -0.064560 -0.002397 -0.154018
v -0.165691 -0.002104 -0.038933
v -0.165548 -0.002581 0.027779
v -0.124364 -0.000488 -0.120874
v -0.128586 0.008173 -0.126121
v -0.091455 -0.000489 -0.146553
v -0.158743 0.008208 -0.085569
v -0.151904 -0.000548 -0.084199
v -0.150633 -0.001246 -0.083308
v -0.138576 -0.000631 -0.102066
v -0.152933 0.005020 -0.090874
v -0.092368 0.004985 -0.151508
v -0.091913 0.008262 -0.154273
v -0.153665 0.008269 -0.093349
vn 0.6623 -0.5585 0.4995
vn 0.1111 -0.5996 0.7925
vn -0.2073 -0.9750 0.0800
vn -0.4737 -0.8568 0.2039
vn 0.5838 -0.8054 -0.1030
vn 0.3516 -0.9247 0.1458
vn 0.7775 -0.6205 -0.1024
vn -0.1519 -0.9238 0.3514
vn -0.0872 -0.7480 -0.6580
vn -0.6244 -0.6057 0.4932
vn 0.7116 -0.6678 -0.2182
vn 0.7448 -0.5952 0.3017
vn -0.0991 -0.9862 0.1326
vn -0.1128 -0.4615 0.8799
vn 0.7065 -0.7027 0.0839
vn 0.5076 -0.5539 0.6600
vn 0.1392 -0.9389 0.3148
vn 0.4720 -0.6347 0.6119
vn -0.5233 -0.4919 0.6958
vn -0.3309 -0.9120 -0.2426
vn 0.0341 -0.9058 -0.4222
vn 0.4663 -0.6350 -0.6159
vn -0.7344 -0.5926 0.3308
vn 0.2168 -0.9331 0.2869
vn 0.6370 -0.5902 -0.4959
vn 0.7934 -0.5084 -0.3349
vn -0.9381 -0.3165 -0.1403
vn 0.4396 -0.8311 -0.3406
vn -0.2539 -0.9089 0.3308
vn -0.9939 -0.0921 -0.0611
vn -0.1471 -0.9301 -0.3367
vn 0.0972 -0.6988 0.7087
vn -0.4254 -0.9035 -0.0525
vn 0.6789 -0.6520 0.3375
vn 0.3407 -0.9291 -0.1436
vn 0.0890 -0.6972 -0.7113
vn -0.0006 -1.0000 -0.0003
vn 0.7259 -0.6162 -0.3056
vn -0.2883 -0.5696 0.7697
vn 0.0001 1.0000 -0.0000
vn 0.3264 -0.5443 0.7728
vn -0.3541 -0.6595 -0.6631
vn 0.0923 -0.8633 0.4962
vn -0.2013 -0.8571 0.4743
vn 0.0398 -0.9984 -0.0400
vn 0.5707 -0.8075 0.1492
vn 0.2741 -0.7099 0.6488
vn -0.2517 -0.7378 0.6264
vn -0.3109 -0.9208 0.2354
vn 0.2093 -0.9373 -0.2786
vn 0.1102 -0.5432 0.8323
vn -0.0952 -0.6364 0.7655
vn 0.5229 -0.4998 -0.6905
vn 0.3193 -0.9462 -0.0521
vn 0.2909 -0.9293 0.2273
vn -0.0204 -0.9898 -0.1410
vn -0.8718 -0.4744 0.1221
vn -0.0750 -0.9148 -0.3969
vn -0.4009 -0.6579 0.6376
vn 0.3601 -0.8892 -0.2821
vn -0.7545 -0.5914 0.2845
vn 0.5665 -0.5868 0.5786
vn -0.0562 -0.9546 0.2924
vn -0.3883 -0.9200 0.0539
vn -0.4818 -0.6310 -0.6081
vn 0.2468 -0.7440 -0.6210
vn -0.2523 -0.9129 -0.3208
vn 0.7926 -0.6023 0.0946
vn 0.6831 -0.5104 0.5224
vn 0.3018 -0.6523 0.6953
vn 0.1036 -0.6276 0.7716
vn -0.0997 -0.9937 0.0514
vn 0.3025 -0.5949 -0.7447
vn 0.3055 -0.5959 -0.7426
vn 0.2953 -0.6072 -0.7377
vn -0.0816 -0.8793 0.4693
vn -0.6346 -0.6025 -0.4841
vn -0.6085 -0.6529 -0.4509
vn -0.7139 -0.5190 -0.4701
vn -0.6349 -0.6022 -0.4841
vn -0.6367 -0.5529 -0.5375
vn 0.3403 -0.9319 0.1251
vn 0.3311 -0.9331 0.1403
vn 0.7808 -0.6166 -0.1004
vn 0.7870 -0.6077 -0.1069
vn -0.1766 -0.9441 0.2783
vn -0.1188 -0.9490 0.2920
vn -0.6445 -0.6548 0.3948
vn -0.6046 -0.6457 0.4664
vn 0.7462 -0.5950 0.2985
vn 0.7444 -0.6159 0.2579
vn 0.7472 -0.5939 0.2983
vn -0.1012 -0.5374 0.8372
vn 0.5326 -0.5006 0.6825
vn -0.7297 -0.6163 -0.2962
vn -0.7300 -0.6159 -0.2962
vn -0.5247 -0.5052 -0.6852
vn 0.0636 -0.9383 0.3400
vn 0.0634 -0.9465 0.3164
vn 0.1490 -0.9244 0.3512
vn 0.4700 -0.6410 0.6069
vn 0.6139 -0.6385 0.4643
vn 0.6141 -0.6381 0.4644
vn -0.7751 -0.6235 0.1021
vn -0.7542 -0.6482 0.1051
vn -0.2921 -0.9289 -0.2278
vn -0.2749 -0.9388 -0.2075
vn -0.0384 -0.8972 -0.4400
vn 0.4666 -0.6581 -0.5910
vn 0.4697 -0.6304 -0.6181
vn 0.3668 -0.6643 -0.6513
vn -0.7471 -0.5864 0.3130
vn -0.7459 -0.5885 0.3119
vn 0.2884 -0.8852 0.3649
vn 0.6183 -0.5935 -0.5153
vn 0.6347 -0.5931 -0.4953
vn 0.6465 -0.6405 -0.4145
vn 0.5750 -0.5565 -0.5998
vn 0.7886 -0.5163 -0.3341
vn -0.2423 -0.9190 0.3110
vn -0.1449 -0.9364 -0.3197
vn 0.0423 -0.9535 -0.2983
vn 0.0299 -0.9481 -0.3165
vn -0.8115 -0.5752 -0.1027
vn -0.8317 -0.5470 -0.0955
vn -0.3728 -0.9270 -0.0411
vn 0.2870 -0.9333 -0.2160
vn 0.2968 -0.9458 -0.1316
vn 0.7812 -0.5901 -0.2037
vn 0.7680 -0.6129 -0.1858
vn -0.4651 -0.8493 0.2499
vn -0.7507 -0.6540 -0.0936
vn -0.7687 -0.6316 -0.1006
vn 0.0417 -0.9983 0.0402
vn 0.0014 -1.0000 0.0010
vn -0.0038 -0.9999 0.0150
vn 0.0051 -0.9999 -0.0134
vn -0.0092 -0.9999 0.0062
vn -0.0863 -0.9962 -0.0069
vn -0.0013 -1.0000 0.0005
vn -0.0185 -0.9998 -0.0071
vn -0.0079 -1.0000 -0.0038
vn -0.0059 -0.9997 -0.0242
vn -0.0011 -1.0000 -0.0008
vn 0.0199 -0.9982 -0.0563
vn 0.0078 -0.9999 -0.0079
vn 0.0041 -1.0000 -0.0050
vn 0.0013 -1.0000 -0.0017
vn -0.0002 -1.0000 -0.0002
vn 0.0020 -1.0000 0.0015
vn 0.0116 -0.9999 0.0101
vn 0.0073 -1.0000 0.0068
vn -0.0001 -1.0000 -0.0004
vn 0.6885 -0.6593 -0.3019
vn -0.3111 -0.5777 0.7546
vn -0.2978 -0.6018 0.7411
vn -0.2414 -0.5992 0.7633
vn -0.7702 -0.5582 -0.3085
vn 0.5431 -0.8357 0.0817
vn 0.0017 1.0000 -0.0006
vn -0.0096 0.9999 0.0097
vn -0.0004 1.0000 0.0015
vn 0.0024 1.0000 0.0089
vn -0.0003 1.0000 -0.0003
vn -0.0000 1.0000 -0.0000
vn -0.0002 1.0000 -0.0002
vn 0.0144 0.9999 0.0003
vn 0.0003 1.0000 -0.0002
vn -0.0002 1.0000 0.0001
vn 0.0002 1.0000 -0.0014
vn -0.0001 1.0000 -0.0008
vn -0.0113 0.9999 -0.0116
vn 0.0002 1.0000 0.0001
vn -0.0381 0.9991 -0.0169
vn -0.0008 1.0000 -0.0004
vn -0.0006 1.0000 0.0006
vn -0.0001 1.0000 -0.0000
vn -0.0004 1.0000 0.0004
vn -0.0003 1.0000 0.0004
vn -0.0097 1.0000 0.0025
vn -0.0001 1.0000 0.0003
vn 0.0001 1.0000 -0.0001
vn 0.0001 1.0000 0.0001
vn -0.6950 -0.4820 0.5334
vn 0.3275 -0.5272 0.7841
vn 0.4924 -0.8703 0.0135
vn -0.8888 -0.4582 0.0033
vn 0.2441 -0.7139 0.6564
vn 0.7673 -0.4934 0.4097
vn 0.1038 -0.5872 -0.8028
vn 0.0992 -0.5995 -0.7942
vn -0.1107 -0.5883 -0.8010
vn -0.1048 -0.6034 -0.7905
vn -0.2335 -0.9554 0.1807
vn 0.1377 -0.9362 -0.3234
vn 0.1280 -0.9495 -0.2864
vn 0.1674 -0.9278 -0.3333
vn 0.2135 -0.9338 -0.2872
vn 0.2925 -0.8912 -0.3467
vn -0.0935 -0.6324 0.7689
vn -0.0977 -0.6319 0.7689
vn 0.2068 -0.6062 0.7680
vn 0.5134 -0.5215 -0.6816
vn -0.6925 -0.6029 -0.3962
vn 0.3224 -0.9455 0.0468
vn 0.2872 -0.9567 0.0468
vn 0.2826 -0.9592 0.0002
vn 0.3170 -0.9470 -0.0520
vn 0.3269 -0.9438 -0.0491
vn 0.3273 -0.9448 0.0108
vn 0.3619 -0.8929 0.2679
vn -0.0432 -0.9777 -0.2053
vn -0.0232 -0.9932 -0.1140
vn -0.8238 -0.5566 0.1073
vn -0.4852 -0.6096 0.6269
vn -0.4558 -0.6537 0.6040
vn 0.6275 -0.7758 -0.0665
vn 0.0802 -0.9109 -0.4049
vn 0.0865 -0.9100 -0.4054
vn 0.5593 -0.6007 0.5713
vn -0.3927 -0.9072 -0.1508
vn -0.0973 -0.9939 -0.0522
vn -0.2985 -0.9464 -0.1234
vn 0.8665 -0.4845 -0.1201
vn -0.0019 -0.9615 0.2749
vn 0.0254 -0.9399 0.3405
vn -0.0195 -0.9459 0.3237
vn -0.0565 -0.9404 0.3355
vn -0.3981 -0.9156 0.0574
vn -0.4857 -0.6138 -0.6224
vn -0.2438 -0.9181 -0.3124
vn -0.1940 -0.9160 -0.3512
vn -0.2834 -0.6205 -0.7312
vn -0.3008 -0.6147 -0.7292
vn -0.3063 -0.5886 -0.7481
vn -0.3140 -0.5936 -0.7410
vn 0.5713 -0.7847 0.2406
vn 0.7968 -0.5964 0.0967
vn 0.7875 -0.6078 -0.1018
vn 0.7707 -0.6289 -0.1025
vn 0.7774 -0.6204 -0.1034
vn -0.0000 1.0000 0.0002
vn 0.0004 1.0000 0.0003
vn 0.0006 1.0000 0.0003
vn 0.0016 1.0000 0.0004
vn 0.7464 -0.5950 0.2980
vn 0.7472 -0.5936 0.2988
vn 0.6916 -0.6606 -0.2919
vn 0.7212 -0.6181 -0.3127
vn -0.0175 0.9998 0.0021
vn -0.0018 1.0000 0.0009
vn 0.0001 1.0000 0.0002
vn -0.0000 1.0000 -0.0001
vn 0.6585 -0.5498 -0.5138
vn 0.6339 -0.5908 -0.4992
vn -0.0000 1.0000 -0.0007
vn 0.3019 -0.5969 -0.7433
vn 0.3499 -0.9250 0.1482
vn 0.3324 -0.9330 0.1382
vn 0.0001 -1.0000 -0.0002
vn 0.2982 -0.9461 -0.1263
vn 0.3374 -0.9296 -0.1482
vn 0.6236 -0.6129 -0.4853
vn -0.7457 -0.5884 0.3125
vn -0.7475 -0.5862 0.3125
vn -0.3150 -0.5629 0.7641
vn 0.3304 -0.5278 0.7825
vn -0.6693 -0.5398 -0.5106
vn -0.7298 -0.6163 -0.2961
vn -0.7300 -0.6159 -0.2963
vn 0.6141 -0.6381 0.4645
vn 0.6139 -0.6385 0.4642
vn 0.4663 -0.6370 -0.6138
vn 0.4683 -0.6309 -0.6186
vn 0.3033 -0.5934 -0.7455
vn -0.3162 -0.5857 -0.7463
vn 0.3564 -0.8928 0.2756
vn 0.2958 -0.9293 0.2210
vn 0.1342 -0.9396 0.3150
vn -0.0037 -0.9995 0.0309
vn -0.0019 -1.0000 0.0038
vn -0.0191 -0.9913 -0.1302
vn -0.3976 -0.9159 0.0552
vn -0.3846 -0.9215 0.0545
vn -0.3070 -0.5852 0.7505
vn 0.3243 -0.5455 0.7728
vn -0.0955 -0.6321 0.7690
vn -0.0956 -0.6319 0.7691
vn -0.6299 -0.6033 -0.4891
vn -0.6154 -0.6329 -0.4698
vn -0.4887 -0.6138 -0.6200
vn -0.3873 -0.9081 -0.1591
vn -0.3029 -0.9453 -0.1211
vn 0.1526 -0.9250 0.3479
vn 0.1419 -0.9351 -0.3248
vn -0.3119 -0.5970 -0.7392
vn -0.4765 -0.6324 -0.6107
vn -0.0930 -0.6615 0.7441
vn 0.1252 -0.9473 -0.2950
vn -0.2447 -0.9184 -0.3109
vn -0.2509 -0.9130 -0.3216
vn -0.0252 -0.9877 -0.1546
vn -0.2569 -0.9480 0.1880
vn -0.3083 -0.9210 0.2383
s 0
f 13//1 25//1 26//1
f 46//2 10//2 45//2
f 110//3 105//3 76//3
f 105//4 77//4 76//4
f 30//5 53//5 31//5
f 63//6 98//6 65//6
f 30//7 31//7 3//7
f 80//8 95//8 99//8
f 70//9 71//9 55//9
f 42//10 59//10 78//10
f 53//11 16//11 31//11
f 14//12 26//12 64//12
f 106//13 94//13 99//13
f 21//14 44//14 9//14
f 28//15 15//15 27//15
f 24//16 11//16 23//16
f 47//17 62//17 84//17
f 23//18 47//18 24//18
f 42//19 60//19 43//19
f 116//20 115//20 117//20
f 55//21 68//21 69//21
f 20//22 19//22 56//22
f 77//23 59//23 41//23
f 85//24 86//24 47//24
f 33//25 35//25 7//25
f 16//26 6//26 4//26
f 102//27 91//27 75//27
f 34//28 35//28 33//28
f 78//29 106//29 95//29
f 38//30 39//30 75//30
f 101//31 90//31 108//31
f 83//32 46//32 82//32
f 92//33 103//33 109//33
f 63//34 64//34 26//34
f 66//35 72//35 34//35
f 32//36 68//36 55//36
f 87//37 110//37 89//37
f 53//38 34//38 18//38
f 43//39 60//39 79//39
f 17//40 75//40 1//40
f 11//41 10//41 22//41
f 113//42 119//42 101//42
f 62//43 46//43 83//43
f 80//44 79//44 95//44
f 72//45 74//45 73//45
f 50//46 27//46 49//46
f 22//47 62//47 47//47
f 79//48 80//48 61//48
f 94//49 78//49 105//49
f 56//50 73//50 74//50
f 45//51 10//51 9//51
f 45//52 44//52 81//52
f 19//53 8//53 7//53
f 53//54 30//54 52//54
f 98//55 63//55 48//55
f 70//56 89//56 108//56
f 40//57 39//57 58//57
f 90//58 71//58 70//58
f 95//59 79//59 60//59
f 73//60 35//60 34//60
f 58//61 76//61 40//61
f 25//62 12//62 24//62
f 80//63 96//63 97//63
f 76//64 92//64 110//64
f 119//65 113//65 112//65
f 37//66 54//66 32//66
f 107//67 100//67 113//67
f 27//68 15//68 2//68
f 13//69 12//69 25//69
f 22//70 47//70 23//70
f 45//71 82//71 46//71
f 110//72 94//72 105//72
f 5//73 8//73 37//73
f 8//74 20//74 37//74
f 37//75 32//75 5//75
f 81//76 61//76 80//76
f 111//77 117//77 112//77
f 117//78 115//78 118//78
f 118//79 114//79 121//79
f 121//80 112//80 117//80
f 117//81 118//81 121//81
f 50//82 49//82 65//82
f 49//83 63//83 65//83
f 3//84 2//84 30//84
f 2//85 15//85 30//85
f 95//86 106//86 99//86
f 99//87 96//87 80//87
f 77//88 93//88 59//88
f 93//89 78//89 59//89
f 64//90 49//90 14//90
f 49//91 27//91 1//91
f 1//92 14//92 49//92
f 45//93 9//93 44//93
f 24//94 12//94 11//94
f 115//95 103//95 114//95
f 103//96 91//96 114//96
f 120//97 119//97 112//97
f 62//98 83//98 87//98
f 87//99 84//99 62//99
f 84//100 85//100 47//100
f 47//101 48//101 24//101
f 26//102 25//102 63//102
f 25//103 48//103 63//103
f 58//104 57//104 92//104
f 92//105 76//105 58//105
f 117//106 111//106 100//106
f 100//107 116//107 117//107
f 69//108 70//108 55//108
f 19//109 35//109 56//109
f 56//110 36//110 20//110
f 36//111 37//111 20//111
f 41//112 40//112 77//112
f 40//113 76//113 77//113
f 48//114 47//114 86//114
f 35//115 19//115 7//115
f 7//116 6//116 33//116
f 18//117 34//117 33//117
f 6//118 18//118 33//118
f 16//119 18//119 6//119
f 78//120 94//120 106//120
f 108//121 107//121 101//121
f 68//122 67//122 89//122
f 89//123 69//123 68//123
f 91//124 57//124 75//124
f 38//125 75//125 57//125
f 109//126 104//126 92//126
f 72//127 73//127 34//127
f 34//128 53//128 66//128
f 4//129 3//129 16//129
f 3//130 31//130 16//130
f 105//131 93//131 77//131
f 92//132 57//132 103//132
f 57//133 91//133 103//133
f 98//134 86//134 85//134
f 84//135 87//135 51//135
f 87//136 97//136 99//136
f 97//137 96//137 99//137
f 99//138 94//138 110//138
f 110//139 104//139 109//139
f 99//140 110//140 87//140
f 109//141 100//141 110//141
f 100//142 107//142 110//142
f 107//143 108//143 89//143
f 110//144 107//144 89//144
f 89//145 67//145 74//145
f 66//146 74//146 72//146
f 89//147 74//147 66//147
f 66//148 52//148 89//148
f 52//149 51//149 89//149
f 51//150 65//150 84//150
f 65//151 98//151 85//151
f 84//152 65//152 85//152
f 87//153 89//153 51//153
f 18//154 16//154 53//154
f 21//155 43//155 79//155
f 79//156 61//156 21//156
f 61//157 44//157 21//157
f 114//158 91//158 102//158
f 50//159 28//159 27//159
f 39//160 40//160 41//160
f 41//161 42//161 43//161
f 21//162 9//162 43//162
f 9//163 10//163 11//163
f 9//164 14//164 1//164
f 12//165 13//165 14//165
f 12//166 14//166 11//166
f 1//167 2//167 4//167
f 6//168 7//168 4//168
f 4//169 7//169 17//169
f 8//170 5//170 17//170
f 17//171 88//171 120//171
f 112//172 121//172 120//172
f 120//173 121//173 17//173
f 114//174 102//174 121//174
f 102//175 75//175 121//175
f 75//176 41//176 43//176
f 9//177 11//177 14//177
f 1//178 4//178 17//178
f 17//179 7//179 8//179
f 75//180 39//180 41//180
f 43//181 9//181 75//181
f 121//182 75//182 17//182
f 9//183 1//183 75//183
f 42//184 41//184 59//184
f 22//185 23//185 11//185
f 15//186 28//186 29//186
f 39//187 38//187 57//187
f 22//188 46//188 62//188
f 26//189 14//189 13//189
f 17//190 5//190 32//190
f 32//191 55//191 17//191
f 88//192 17//192 71//192
f 71//193 17//193 55//193
f 78//194 93//194 105//194
f 74//195 67//195 37//195
f 37//196 67//196 54//196
f 37//197 36//197 74//197
f 36//198 56//198 74//198
f 56//199 35//199 73//199
f 61//200 81//200 44//200
f 81//201 82//201 45//201
f 10//202 46//202 22//202
f 19//203 20//203 8//203
f 118//204 115//204 114//204
f 28//205 50//205 51//205
f 51//206 50//206 65//206
f 51//207 52//207 29//207
f 52//208 66//208 53//208
f 29//209 52//209 30//209
f 28//210 51//210 29//210
f 48//211 86//211 98//211
f 108//212 90//212 70//212
f 70//213 69//213 89//213
f 57//214 58//214 39//214
f 60//215 42//215 78//215
f 95//216 60//216 78//216
f 15//217 29//217 30//217
f 68//218 32//218 67//218
f 32//219 54//219 67//219
f 24//220 48//220 25//220
f 115//221 116//221 109//221
f 116//222 100//222 109//222
f 115//223 109//223 103//223
f 2//224 3//224 4//224
f 97//225 87//225 82//225
f 83//226 82//226 87//226
f 82//227 81//227 97//227
f 81//228 80//228 97//228
f 92//229 104//229 110//229
f 113//230 111//230 112//230
f 111//231 113//231 100//231
f 113//232 101//232 107//232
f 71//233 90//233 88//233
f 90//234 101//234 88//234
f 101//235 119//235 120//235
f 120//236 88//236 101//236
f 49//237 64//237 63//237
f 2//238 1//238 27//238
f 15//239 3//239 2//239
f 30//240 31//240 15//240
f 31//241 3//241 15//241
f 75//242 12//242 4//242
f 12//243 13//243 4//243
f 13//244 14//244 4//244
f 14//245 1//245 4//245
f 7//165 8//165 4//165
f 8//165 75//165 4//165
f 14//246 64//246 1//246
f 64//247 49//247 1//247
f 53//248 34//248 16//248
f 34//249 18//249 16//249
f 39//250 40//250 75//250
f 40//251 41//251 75//251
f 9//242 11//242 75//242
f 11//252 12//252 75//252
f 8//253 121//253 75//253
f 18//254 7//254 6//254
f 18//255 35//255 7//255
f 17//256 120//256 8//256
f 120//253 121//253 8//253
f 20//257 5//257 8//257
f 63//258 98//258 49//258
f 98//259 65//259 49//259
f 87//260 52//260 51//260
f 87//153 89//153 52//153
f 66//261 72//261 53//261
f 72//262 34//262 53//262
f 33//263 35//263 18//263
f 76//264 41//264 40//264
f 76//265 77//265 41//265
f 60//266 21//266 43//266
f 10//267 23//267 11//267
f 112//268 118//268 121//268
f 114//269 115//269 91//269
f 115//270 103//270 91//270
f 48//271 26//271 25//271
f 48//272 63//272 26//272
f 56//273 36//273 19//273
f 36//274 20//274 19//274
f 20//275 37//275 5//275
f 88//276 119//276 120//276
f 48//277 86//277 63//277
f 86//278 98//278 63//278
f 85//279 62//279 84//279
f 97//280 96//280 87//280
f 96//281 99//281 87//281
f 108//282 69//282 89//282
f 92//283 104//283 76//283
f 104//284 110//284 76//284
f 79//285 21//285 60//285
f 22//286 23//286 10//286
f 61//287 45//287 44//287
f 61//288 82//288 45//288
f 112//289 111//289 118//289
f 111//290 117//290 118//290
f 119//291 111//291 112//291
f 116//292 103//292 115//292
f 116//293 109//293 103//293
f 62//294 85//294 47//294
f 74//295 54//295 37//295
f 101//296 119//296 88//296
f 113//297 111//297 119//297
f 61//298 81//298 82//298
f 54//299 74//299 67//299
f 100//300 111//300 107//300
f 111//301 113//301 107//301
f 70//302 69//302 108//302
f 94//303 93//303 105//303
f 93//304 94//304 78//304
