# Blender 4.0.0
# www.blender.org
o decimated_mesh
v -0.175661 0.506550 -0.001008
v -0.120552 0.506636 -0.128265
v -0.180046 0.506317 -0.001028
v -0.171858 0.504398 -0.001008
v -0.120553 0.505661 -0.123853
v -0.119864 0.012755 -0.134382
v -0.183533 0.501397 -0.001010
v -0.119864 0.008269 -0.104938
v -0.120551 0.497379 -0.136366
v -0.120550 0.502966 -0.135018
v -0.120549 0.505994 -0.132218
v -0.173959 0.506088 -0.048376
v -0.169369 0.497379 -0.001008
v -0.150431 0.506599 -0.093424
v -0.160747 0.008269 -0.001021
v -0.120554 0.502465 -0.119828
v -0.132904 0.500160 -0.126416
v -0.123045 0.505282 -0.131596
v -0.130531 0.505517 -0.125037
v -0.178367 0.505233 -0.026673
v -0.183767 0.468439 -0.062087
v -0.119874 0.008292 -0.132765
v -0.123045 0.009684 -0.131570
v -0.128818 0.012660 -0.127250
v -0.158081 0.505449 -0.088537
v -0.177788 0.501718 -0.045150
v -0.181571 0.012662 -0.001029
v -0.159004 0.501291 -0.091094
v -0.137822 0.010074 -0.116160
v -0.158072 0.012937 -0.089218
v -0.175819 0.013116 -0.045864
v -0.128210 0.008399 -0.126650
v -0.153018 0.009977 -0.096047
v -0.158760 0.008405 -0.086089
v -0.173893 0.008342 -0.048658
v -0.178336 0.009830 -0.026434
v -0.180215 0.008223 -0.001048
vn -0.5855 0.4353 -0.6839
vn 0.8746 0.3101 0.3726
vn -0.1605 0.9742 -0.1585
vn 0.8269 0.4403 0.3499
vn -0.3523 0.6355 -0.6870
vn -0.9190 -0.1198 -0.3757
vn -1.0000 0.0001 -0.0002
vn -0.5088 0.8581 -0.0696
vn -0.7931 0.5934 -0.1377
vn -0.5825 -0.6812 -0.4434
vn 0.8005 -0.0789 0.5941
vn -0.0532 0.9985 -0.0117
vn -0.7118 0.4534 -0.5364
vn -0.5897 0.1896 -0.7851
vn -0.9916 -0.0218 -0.1274
vn -0.3443 0.8381 -0.4231
vn -0.7159 -0.6915 -0.0968
vn -0.9638 0.2361 -0.1237
vn -0.9247 -0.0128 -0.3804
vn -0.4959 -0.5571 -0.6662
vn 0.4815 0.8510 0.2098
vn -0.7384 -0.1962 -0.6452
vn -0.8273 -0.2286 -0.5131
vn -0.6210 -0.0718 -0.7805
vn -0.2090 0.9730 -0.0981
vn -0.6230 -0.0041 -0.7822
vn -0.5820 0.4103 -0.7021
vn -0.1516 0.9800 -0.1290
vn -0.8666 0.3411 -0.3643
vn -0.8172 0.4721 -0.3306
vn -0.8704 0.3832 -0.3090
vn -0.0024 1.0000 0.0022
vn 0.0054 1.0000 0.0039
vn 0.0134 0.9999 0.0008
vn 0.0023 1.0000 0.0009
vn -0.8135 0.5763 -0.0776
vn -0.9161 -0.1527 -0.3707
vn -0.9251 -0.0296 -0.3786
vn -1.0000 0.0015 -0.0010
vn -1.0000 -0.0014 -0.0002
vn 1.0000 -0.0024 -0.0004
vn -1.0000 -0.0014 0.0003
vn -1.0000 0.0003 -0.0003
vn -1.0000 0.0002 -0.0003
vn -0.6188 -0.6324 -0.4660
vn -0.7976 0.0282 -0.6025
vn -0.7844 0.1394 -0.6044
vn -0.7926 -0.0084 -0.6096
vn -0.7831 -0.0055 -0.6219
vn -0.0013 -0.0046 1.0000
vn 0.0004 -0.0000 -1.0000
vn 0.0002 0.0001 -1.0000
vn 0.0002 -0.0000 -1.0000
vn -0.0002 -0.0001 1.0000
vn -0.0050 0.0073 1.0000
vn -0.0009 1.0000 0.0003
vn -0.0434 0.9990 -0.0113
vn -0.6975 0.4813 -0.5308
vn -0.9919 0.0077 -0.1272
vn -0.8886 0.4447 -0.1124
vn -1.0000 -0.0040 0.0060
vn -0.9304 -0.0164 -0.3661
vn 0.4454 0.8742 0.1935
vn -0.6502 -0.1961 -0.7340
vn -0.9527 -0.2906 -0.0889
vn -0.4499 -0.3034 -0.8400
vn -0.9444 -0.2815 -0.1699
vn -0.6278 -0.0039 -0.7783
vn -0.2711 0.9409 -0.2029
vn -0.0001 -0.0000 -1.0000
vn -0.9921 -0.0214 -0.1240
vn -0.0024 1.0000 -0.0009
vn -0.9305 -0.0123 -0.3661
vn -0.9246 -0.0163 -0.3806
vn -1.0000 -0.0001 -0.0003
vn -1.0000 -0.0014 -0.0010
vn -0.8459 0.4027 -0.3496
vn -0.8698 0.3388 -0.3588
vn -0.7978 -0.0089 -0.6028
vn -0.8059 -0.0102 -0.5920
vn -0.9910 -0.0220 -0.1321
vn -0.7832 -0.0052 -0.6218
vn 0.0061 1.0000 0.0033
vn 0.0006 1.0000 0.0008
vn -1.0000 -0.0014 -0.0005
vn -0.7006 0.4801 -0.5279
vn -0.7099 0.4532 -0.5391
vn -0.7757 -0.0054 -0.6311
vn -0.6285 -0.6138 -0.4778
vn -0.5959 -0.6660 -0.4487
vn 0.0096 0.9999 0.0056
vn 0.0285 0.9994 0.0213
vn -1.0000 -0.0014 0.0065
vn -1.0000 -0.0014 0.0021
s 0
f 19//1 18//1 17//1
f 16//2 4//2 13//2
f 2//3 11//3 19//3
f 4//4 16//4 5//4
f 10//5 18//5 11//5
f 34//6 31//6 30//6
f 5//7 9//7 16//7
f 12//8 20//8 3//8
f 12//9 26//9 20//9
f 33//10 29//10 34//10
f 21//11 17//11 28//11
f 12//12 3//12 1//12
f 25//13 19//13 17//13
f 10//14 9//14 17//14
f 31//15 27//15 21//15
f 11//16 18//16 19//16
f 35//17 37//17 36//17
f 26//18 21//18 7//18
f 13//19 16//19 8//19
f 32//20 23//20 22//20
f 5//21 1//21 4//21
f 32//22 29//22 24//22
f 30//23 33//23 34//23
f 23//24 24//24 6//24
f 25//25 12//25 14//25
f 24//26 9//26 6//26
f 10//27 17//27 18//27
f 19//28 14//28 2//28
f 21//29 26//29 25//29
f 26//30 12//30 25//30
f 21//31 25//31 28//31
f 37//32 15//32 35//32
f 35//33 8//33 34//33
f 34//33 8//33 32//33
f 22//34 32//34 8//34
f 8//35 35//35 15//35
f 3//36 20//36 7//36
f 35//37 31//37 34//37
f 31//38 21//38 30//38
f 11//39 10//39 2//39
f 16//40 6//40 8//40
f 8//41 22//41 6//41
f 6//42 16//42 9//42
f 9//43 2//43 10//43
f 2//44 9//44 5//44
f 32//45 34//45 29//45
f 29//46 33//46 30//46
f 29//47 30//47 24//47
f 30//48 21//48 24//48
f 17//49 24//49 21//49
f 27//50 37//50 15//50
f 15//51 27//51 13//51
f 13//52 7//52 4//52
f 27//53 7//53 13//53
f 4//54 1//54 7//54
f 1//55 3//55 7//55
f 1//56 2//56 14//56
f 14//57 12//57 1//57
f 17//58 28//58 25//58
f 31//59 36//59 27//59
f 26//60 7//60 20//60
f 27//61 7//61 21//61
f 13//62 8//62 15//62
f 5//63 2//63 1//63
f 23//64 32//64 24//64
f 27//65 36//65 37//65
f 22//66 23//66 6//66
f 35//67 36//67 31//67
f 24//68 17//68 9//68
f 19//69 25//69 14//69
f 7//53 4//53 27//53
f 27//51 4//51 15//51
f 15//70 4//70 13//70
f 21//71 36//71 27//71
f 37//72 15//72 8//72
f 8//73 15//73 16//73
f 16//74 15//74 13//74
f 2//75 16//75 5//75
f 8//76 16//76 2//76
f 25//77 28//77 26//77
f 28//78 21//78 26//78
f 29//79 33//79 21//79
f 33//80 30//80 21//80
f 31//81 36//81 21//81
f 17//82 29//82 21//82
f 35//83 37//83 22//83
f 22//84 37//84 8//84
f 6//40 8//40 2//40
f 6//85 2//85 11//85
f 19//86 28//86 25//86
f 19//87 17//87 28//87
f 17//88 24//88 29//88
f 32//89 33//89 29//89
f 32//90 34//90 33//90
f 34//91 35//91 22//91
f 34//92 22//92 32//92
f 9//93 6//93 10//93
f 10//94 6//94 11//94
