# Blender 4.0.0
# www.blender.org
o decimated_mesh
v 0.157278 0.008667 -0.078794
v 0.156517 0.500739 -0.086975
v 0.153589 0.505788 -0.087001
v 0.148114 0.506440 -0.086993
v 0.155165 0.500003 -0.091161
v 0.150559 0.505602 -0.092912
v 0.081138 0.506619 -0.154202
v 0.081130 0.505576 -0.149495
v 0.143176 0.504326 -0.086975
v 0.132578 0.008269 -0.078975
v 0.152494 0.013026 -0.090971
v 0.140003 0.500014 -0.111153
v 0.122290 0.506698 -0.123725
v 0.081137 0.505825 -0.157541
v 0.081109 0.501249 -0.145253
v 0.140333 0.497380 -0.086976
v 0.150813 0.008316 -0.091641
v 0.124887 0.010003 -0.126624
v 0.124607 0.505579 -0.126355
v 0.081128 0.500799 -0.160534
v 0.102355 0.008269 -0.113891
v 0.125101 0.496869 -0.129354
v 0.123486 0.008275 -0.126479
v 0.102316 0.008490 -0.143251
v 0.085627 0.505464 -0.156207
v 0.081130 0.046227 -0.146140
v 0.123449 0.500728 -0.130617
v 0.089763 0.500129 -0.156707
v 0.081130 0.046227 -0.158472
v 0.086194 0.046304 -0.156233
vn 0.8720 0.4895 -0.0000
vn 0.7638 0.5009 -0.4071
vn -0.3633 0.8518 0.3775
vn -0.2094 0.9547 0.2112
vn 0.1559 0.9658 -0.2073
vn -0.5755 0.5739 0.5826
vn -0.8359 -0.0011 0.5489
vn 0.8127 0.4696 -0.3451
vn 0.7588 0.1150 -0.6411
vn 0.6480 -0.5678 -0.5076
vn 0.7859 -0.0046 -0.6183
vn 0.7834 -0.1956 -0.5900
vn -0.7561 0.0090 0.6544
vn -0.0149 0.9997 0.0175
vn 0.7037 0.4542 -0.5464
vn -0.6658 0.2724 0.6947
vn 0.1178 0.9901 -0.0758
vn 0.8719 0.4897 0.0025
vn 0.8679 -0.2485 -0.4300
vn 0.4023 -0.1391 -0.9049
vn 0.1453 0.9625 -0.2291
vn 0.1806 0.9522 -0.2463
vn 0.2471 0.9508 -0.1871
vn 0.1151 0.9893 -0.0900
vn 0.5940 -0.0228 -0.8042
vn 0.6118 -0.0056 -0.7910
vn 0.6123 0.0033 -0.7906
vn 0.6049 -0.0047 -0.7963
vn -1.0000 -0.0000 -0.0000
vn 1.0000 -0.0034 0.0013
vn 1.0000 -0.0028 0.0011
vn 1.0000 -0.0021 0.0004
vn -1.0000 -0.0000 -0.0012
vn -0.0022 -0.0065 -1.0000
vn -0.0014 -0.0053 -1.0000
vn 0.0001 0.0001 -1.0000
vn 0.0076 -0.0165 -0.9998
vn 0.0035 -0.0166 -0.9999
vn 0.3986 0.3869 -0.8315
vn 0.2842 0.4903 -0.8239
vn 0.5372 -0.4929 -0.6844
vn 0.7908 -0.0038 -0.6120
vn 0.7678 -0.2670 -0.5825
vn 0.7222 0.4228 -0.5475
vn 0.7188 0.3540 -0.5983
vn -0.7004 0.0228 0.7133
vn 0.9301 -0.0052 -0.3673
vn 0.9518 -0.0036 -0.3068
vn 0.4049 -0.0041 -0.9143
vn 0.4045 -0.0041 -0.9145
vn 0.0002 -1.0000 -0.0002
vn -0.0042 -1.0000 -0.0075
vn 0.0022 -1.0000 -0.0006
vn 0.0160 -0.9997 0.0192
vn 0.5311 0.4841 -0.6954
vn 0.5324 0.4783 -0.6984
vn -0.0197 -0.0166 -0.9997
vn -0.0034 -0.0165 -0.9999
vn 0.0034 -0.0164 -0.9999
vn 0.0076 -0.0163 -0.9998
vn 0.0418 -0.0170 -0.9990
vn 0.7909 -0.0051 -0.6120
vn 0.7968 -0.0046 -0.6043
vn 0.1620 0.9802 -0.1138
vn 0.8728 0.4881 -0.0000
vn 0.8715 0.4903 0.0025
vn 1.0000 -0.0039 0.0008
vn 1.0000 -0.0026 0.0013
vn 0.6044 -0.0056 -0.7967
vn 0.6118 -0.0047 -0.7910
vn 0.7741 -0.0039 -0.6331
vn 0.2439 0.9510 -0.1900
vn 0.1837 0.9523 -0.2436
vn 0.1542 0.9653 -0.2108
s 0
f 24//1 29//1 26//1
f 5//2 6//2 3//2
f 4//3 8//3 9//3
f 8//4 4//4 7//4
f 19//5 25//5 7//5
f 8//6 15//6 9//6
f 26//7 21//7 15//7
f 3//8 2//8 5//8
f 22//9 27//9 12//9
f 18//10 17//10 23//10
f 5//11 11//11 22//11
f 17//12 18//12 11//12
f 10//13 15//13 21//13
f 13//14 7//14 4//14
f 6//15 12//15 19//15
f 15//16 16//16 9//16
f 4//17 3//17 13//17
f 24//18 26//18 21//18
f 1//19 17//19 11//19
f 29//20 30//20 24//20
f 25//21 14//21 7//21
f 7//22 13//22 19//22
f 13//23 3//23 19//23
f 3//24 6//24 19//24
f 24//25 30//25 18//25
f 30//26 28//26 22//26
f 22//27 28//27 27//27
f 22//28 18//28 30//28
f 29//29 26//29 15//29
f 15//30 20//30 8//30
f 8//31 20//31 7//31
f 7//32 20//32 14//32
f 20//33 29//33 15//33
f 3//34 2//34 4//34
f 2//35 9//35 4//35
f 9//36 2//36 16//36
f 16//37 1//37 10//37
f 1//38 16//38 2//38
f 25//39 28//39 20//39
f 14//40 25//40 20//40
f 24//41 18//41 23//41
f 18//42 22//42 11//42
f 22//43 12//43 5//43
f 5//44 12//44 6//44
f 12//45 27//45 19//45
f 16//46 15//46 10//46
f 11//47 5//47 1//47
f 1//48 5//48 2//48
f 28//49 30//49 20//49
f 30//50 29//50 20//50
f 10//51 21//51 23//51
f 23//52 21//52 24//52
f 23//53 17//53 10//53
f 17//54 1//54 10//54
f 25//55 19//55 27//55
f 28//56 25//56 27//56
f 2//57 1//57 3//57
f 3//58 1//58 4//58
f 4//59 1//59 9//59
f 9//60 1//60 10//60
f 9//61 10//61 16//61
f 18//62 12//62 11//62
f 12//63 5//63 11//63
f 6//64 13//64 3//64
f 26//65 21//65 29//65
f 29//66 21//66 24//66
f 8//67 15//67 7//67
f 7//67 15//67 14//67
f 14//68 15//68 20//68
f 30//69 28//69 18//69
f 28//70 22//70 18//70
f 22//71 12//71 18//71
f 19//72 13//72 6//72
f 19//73 25//73 13//73
f 25//74 7//74 13//74
