# Blender 4.0.0
# www.blender.org
o decimated_mesh
v -0.049450 0.046214 -0.161521
v -0.049444 0.046232 -0.173102
v -0.001473 0.046216 -0.168243
v -0.049447 0.500914 -0.160589
v -0.049442 0.497354 -0.175224
v -0.001475 0.500609 -0.167406
v -0.049447 0.502498 -0.174353
v -0.042107 0.500037 -0.176788
v -0.001489 0.500281 -0.181891
v -0.001513 0.046216 -0.179568
v -0.049447 0.505288 -0.163997
v -0.049402 0.506033 -0.172280
v -0.001565 0.506183 -0.178712
v -0.001469 0.506391 -0.172364
v -0.049447 0.506616 -0.168935
vn -1.0000 -0.0000 -0.0006
vn -0.0000 1.0000 -0.0000
vn 0.0231 0.9654 0.2598
vn -0.1128 0.4700 -0.8754
vn -0.1388 0.0018 -0.9903
vn 0.1152 0.6106 0.7835
vn -0.1337 -0.0047 -0.9910
vn -1.0000 -0.0001 -0.0003
vn -1.0000 -0.0000 -0.0000
vn -0.9996 0.0231 -0.0175
vn -1.0000 -0.0010 0.0003
vn -1.0000 -0.0000 -0.0003
vn -1.0000 0.0018 0.0009
vn -1.0000 -0.0000 0.0035
vn -1.0000 0.0001 0.0009
vn 0.9996 0.0213 -0.0158
vn 0.0006 1.0000 0.0016
vn -0.1168 0.5022 -0.8568
vn -0.1151 0.5038 -0.8561
vn 0.0024 0.9995 -0.0328
vn -0.0262 0.9847 -0.1722
vn -0.1407 0.0020 -0.9901
vn -0.2618 0.1609 -0.9516
vn 0.1166 0.6464 0.7540
vn -0.1198 -0.2348 -0.9646
vn -0.1374 -0.0051 -0.9905
vn 0.0003 1.0000 -0.0000
vn 0.0002 1.0000 0.0016
vn -0.1388 0.0020 -0.9903
vn -1.0000 -0.0000 -0.0001
vn -1.0000 -0.0000 -0.0057
vn -0.2069 -0.0046 -0.9783
vn -0.1337 -0.0059 -0.9910
vn -1.0000 0.0001 0.0035
vn -1.0000 -0.0000 0.0021
vn -1.0000 -0.0000 -0.0013
vn -0.1407 0.0018 -0.9901
vn -0.1246 -0.0051 -0.9922
s 0
f 2//1 1//1 4//1
f 10//2 1//2 3//2
f 14//3 15//3 11//3
f 9//4 8//4 13//4
f 6//5 3//5 1//5
f 6//6 11//6 4//6
f 10//7 2//7 5//7
f 5//8 4//8 11//8
f 11//9 15//9 7//9
f 15//10 12//10 7//10
f 7//11 5//11 11//11
f 5//12 2//12 4//12
f 14//13 9//13 6//13
f 6//14 10//14 3//14
f 10//15 6//15 9//15
f 9//16 13//16 14//16
f 1//17 10//17 2//17
f 12//18 13//18 8//18
f 7//19 12//19 8//19
f 15//20 14//20 13//20
f 13//21 12//21 15//21
f 6//22 1//22 4//22
f 7//23 8//23 5//23
f 6//24 14//24 11//24
f 8//25 9//25 5//25
f 9//26 10//26 5//26
f 2//27 3//27 10//27
f 2//28 1//28 3//28
f 3//29 1//29 4//29
f 4//30 11//30 1//30
f 11//9 15//9 1//9
f 15//9 7//9 1//9
f 7//1 2//1 1//1
f 7//31 5//31 2//31
f 5//32 8//32 2//32
f 8//33 10//33 2//33
f 10//34 3//34 9//34
f 9//35 3//35 14//35
f 14//36 3//36 6//36
f 6//37 3//37 4//37
f 8//38 9//38 10//38
