# Blender 4.0.0
# www.blender.org
o decimated_mesh
v -0.155163 0.506456 0.085929
v -0.158826 0.505704 0.085913
v -0.149657 0.505227 0.085941
v -0.175671 0.506540 -0.001008
v -0.173885 0.505970 0.049437
v -0.172847 0.505216 -0.001008
v -0.179825 0.506323 -0.001005
v -0.179229 0.506149 0.015274
v -0.177684 0.500782 0.047093
v -0.161299 0.501238 0.085940
v -0.145962 0.500555 0.085941
v -0.170845 0.502483 -0.001008
v -0.183501 0.501628 -0.000995
v -0.169379 0.497402 -0.001008
v -0.183648 0.500760 0.003412
v -0.183752 0.467422 0.053784
v -0.159294 0.070416 0.085941
v -0.170381 0.070416 -0.001008
v -0.175460 0.070416 0.046597
v -0.146632 0.070416 0.085941
v -0.181655 0.070413 -0.000978
vn 0.2178 0.9747 -0.0504
vn -0.0500 0.9987 0.0131
vn -0.9967 -0.0668 -0.0463
vn -0.8214 0.4570 0.3411
vn 0.7674 0.6071 -0.2062
vn -0.9246 -0.0262 0.3799
vn -0.7869 0.6161 0.0354
vn -0.9914 -0.0230 0.1291
vn -0.9702 0.2030 0.1323
vn -0.8808 0.4580 0.1200
vn -0.0010 -0.0003 -1.0000
vn 0.9656 -0.0015 -0.2600
vn -0.8273 0.5460 0.1323
vn 0.4217 0.8997 -0.1126
vn -0.8959 0.2382 0.3751
vn -0.0515 0.9986 0.0131
vn -0.2009 0.9755 0.0901
vn -0.0521 0.9986 0.0126
vn -1.0000 -0.0043 -0.0072
vn -0.8249 0.4487 0.3438
vn 0.9279 0.2677 -0.2596
vn 0.7888 0.5776 -0.2104
vn -0.8180 -0.0038 0.5752
vn -0.8464 0.5272 0.0758
vn -0.0027 -0.0000 -1.0000
vn -0.0009 -0.0000 -1.0000
vn -0.0006 -0.0016 -1.0000
vn -0.0007 -0.0015 -1.0000
vn -0.0010 -0.0007 -1.0000
vn 0.9647 -0.0023 -0.2635
vn -0.0000 -0.0000 1.0000
vn -0.0001 -0.0000 1.0000
vn -0.0014 0.0037 1.0000
vn -0.0064 0.0096 0.9999
vn -0.0001 -0.0001 1.0000
vn -0.0000 1.0000 -0.0000
vn -0.0002 1.0000 -0.0000
vn 0.7677 0.6072 -0.2048
vn 0.7883 0.5773 -0.2128
vn -0.0000 -0.0000 -1.0000
vn -0.0003 -0.0000 -1.0000
vn -0.0007 -0.0008 -1.0000
vn -0.8211 0.4568 0.3423
vn -0.8250 0.4493 0.3427
vn -0.0026 -0.0001 -1.0000
vn -1.0000 -0.0046 -0.0051
vn 0.0002 1.0000 -0.0001
vn -0.0002 1.0000 0.0001
vn -0.0027 -0.0001 -1.0000
vn -0.9994 -0.0043 -0.0340
s 0
f 1//1 3//1 4//1
f 4//2 8//2 5//2
f 15//3 13//3 16//3
f 9//4 10//4 2//4
f 12//5 3//5 11//5
f 19//6 17//6 16//6
f 7//7 13//7 8//7
f 19//8 16//8 21//8
f 9//9 15//9 16//9
f 15//10 9//10 8//10
f 12//11 14//11 13//11
f 20//12 14//12 11//12
f 8//13 9//13 5//13
f 6//14 4//14 3//14
f 10//15 9//15 16//15
f 1//16 4//16 5//16
f 2//17 1//17 5//17
f 4//18 7//18 8//18
f 21//19 16//19 13//19
f 2//20 5//20 9//20
f 14//21 12//21 11//21
f 12//22 6//22 3//22
f 16//23 17//23 10//23
f 8//24 13//24 15//24
f 18//25 21//25 14//25
f 21//26 13//26 14//26
f 13//27 7//27 4//27
f 6//28 13//28 4//28
f 6//29 12//29 13//29
f 20//30 18//30 14//30
f 10//31 17//31 20//31
f 20//32 11//32 10//32
f 3//33 1//33 10//33
f 10//34 1//34 2//34
f 11//35 3//35 10//35
f 18//36 19//36 20//36
f 21//37 19//37 18//37
f 20//36 19//36 17//36
f 11//38 6//38 3//38
f 11//39 12//39 6//39
f 12//40 14//40 18//40
f 12//41 18//41 7//41
f 12//42 7//42 4//42
f 12//40 4//40 6//40
f 2//43 5//43 10//43
f 5//44 9//44 10//44
f 18//45 13//45 7//45
f 15//46 21//46 16//46
f 19//47 17//47 21//47
f 21//36 17//36 20//36
f 21//48 20//48 18//48
f 18//49 21//49 13//49
f 21//50 15//50 13//50
