mtllib material.mtl
usemtl material_0
v -0.14749570 -0.00266577 -0.18818850
v -0.19802220 -0.00137990 -0.18269440
v -0.19684940 -0.00262396 -0.18138580
v -0.14716220 -0.00145648 -0.19179690
v -0.07267975 -0.00157664 -0.19575530
v -0.07269836 -0.00272601 -0.19213560
v -0.14721310 -0.00007522 -0.19178220
v 0.00018921 -0.00167730 -0.19754180
v 0.00016998 -0.00276983 -0.19387330
v -0.07268188 -0.00009306 -0.19578550
v 0.07750976 -0.00170296 -0.19528410
v 0.07752044 -0.00275340 -0.19158450
v 0.00012177 -0.00014931 -0.19759890
v 0.14754490 -0.00163051 -0.19053620
v 0.14764590 -0.00272161 -0.18685030
v 0.19280120 -0.00270990 -0.17739530
v 0.07749023 -0.00021757 -0.19537140
v 0.19422940 -0.00147412 -0.17901730
v 0.20372010 -0.00316442 -0.13352330
v 0.14739070 -0.00023618 -0.19070500
v 0.20720980 -0.00161822 -0.13356750
v 0.20732670 0.00026433 -0.13351750
v 0.20850280 -0.00367330 -0.06586761
v 0.21197050 -0.00175170 -0.06587250
v 0.21020110 -0.00392181 -0.00009033
v 0.21368010 -0.00192206 -0.00004517
v 0.20791110 -0.00389191 0.06654999
v 0.19407810 -0.00012776 -0.17899660
v 0.21185030 0.00064146 -0.06587250
v 0.21141240 -0.00202513 0.06655395
v 0.20328030 -0.00359582 0.13335660
v 0.21359500 0.00072890 -0.00005035
v 0.20673130 -0.00197593 0.13338900
v 0.19253660 -0.00321359 0.17734500
v 0.19395600 -0.00191702 0.17891820
v 0.21136140 0.00042820 0.06655701
v 0.14750730 0.00106350 -0.18719760
v 0.19264530 0.00115706 -0.17742220
v 0.07750519 0.00103588 -0.19184690
v 0.20382570 0.00179074 -0.13347410
v 0.20824950 0.00232390 -0.06586853
v 0.00013886 0.00103979 -0.19401340
v 0.20998720 0.00248222 -0.00004944
v -0.07270081 0.00105851 -0.19215910
v 0.20778260 0.00214888 0.06655243
v -0.14753940 0.00109029 -0.18812870
v -0.19686400 0.00114956 -0.18136570
v -0.19806000 -0.00006407 -0.18269160
v 0.20295590 0.00143340 0.13346370
v 0.20651370 -0.00002436 0.13348970
v 0.19400480 -0.00045092 0.17902860
v 0.19253720 0.00078116 0.17745270
v 0.14730130 -0.00044746 0.19083590
v 0.14737430 0.00068958 0.18719080
v 0.07748718 0.00067154 0.19205840
v 0.07747955 -0.00040346 0.19573760
v 0.00004639 0.00069889 0.19427250
v 0.00006439 -0.00036775 0.19796450
v -0.07268829 0.00068988 0.19230040
v -0.07268524 -0.00038794 0.19597840
v -0.14739380 0.00072249 0.18701570
v 0.14719240 -0.00197357 0.19093320
v 0.07746796 -0.00202526 0.19580290
v 0.14728670 -0.00323523 0.18738310
v 0.19253660 -0.00321359 0.17734500
v 0.07747833 -0.00326444 0.19225490
v 0.00008667 -0.00326776 0.19450350
v 0.00006927 -0.00203960 0.19806330
v -0.07268249 -0.00324981 0.19254730
v -0.07267914 -0.00201623 0.19610020
v -0.14728910 -0.00320708 0.18725680
v -0.14720370 -0.00195118 0.19081240
v -0.19250000 -0.00322776 0.17725740
v -0.14732360 -0.00042261 0.19065520
v -0.19399990 -0.00051708 0.17881200
v -0.19259120 0.00077102 0.17722440
v -0.19397220 -0.00198426 0.17883850
v -0.20305910 -0.00367285 0.13337520
v -0.20692320 -0.00033005 0.13318150
v -0.20353970 0.00138331 0.13317840
v -0.20666110 -0.00230988 0.13342560
v -0.21134370 -0.00242540 0.06655487
v -0.20770020 -0.00402490 0.06654999
v -0.21146180 0.00001074 0.06654693
v -0.20804050 0.00201646 0.06654419
v -0.21360840 -0.00235840 -0.00010712
v -0.20997340 -0.00405901 -0.00011505
v -0.21373350 0.00029237 -0.00012115
v -0.21028470 0.00234807 -0.00015900
v -0.21189390 -0.00199809 -0.06587280
v -0.20831970 -0.00375686 -0.06587524
v -0.21199550 0.00036466 -0.06587463
v -0.20848850 0.00224190 -0.06587555
v -0.20825840 -0.00161674 -0.13338840
v -0.20475680 -0.00320880 -0.13360350
v -0.19684940 -0.00262396 -0.18138580
v -0.20817470 0.00027115 -0.13348480
v -0.20460110 0.00174831 -0.13368410
v -0.19686400 0.00114956 -0.18136570
v -0.14753940 0.00109029 -0.18812870
v -0.16962860 0.02284730 -0.15709990
v -0.19686400 0.00114956 -0.18136570
v -0.20460110 0.00174831 -0.13368410
v -0.17333620 0.02920765 -0.12554140
v -0.20848850 0.00224190 -0.06587555
v -0.14032440 0.02492815 -0.15990840
v -0.07230591 0.02650874 -0.16382540
v -0.07270081 0.00105851 -0.19215910
v -0.17716740 0.03539977 -0.06571838
v -0.21028470 0.00234807 -0.00015900
v -0.13923400 0.03673773 -0.12964750
v 0.00005219 0.02701127 -0.16640960
v 0.00013886 0.00103979 -0.19401340
v -0.17980680 0.03801300 -0.00006287
v -0.20804050 0.00201646 0.06654419
v -0.14471010 0.04813702 -0.06580688
v -0.07225220 0.04097158 -0.13444400
v 0.07656494 0.02628854 -0.16382420
v 0.07750519 0.00103588 -0.19184690
v -0.17706630 0.03506314 0.06629425
v -0.20353970 0.00138331 0.13317840
v -0.14717130 0.05212920 -0.00001251
v -0.07255065 0.05723152 -0.06590088
v 0.00008270 0.04227415 -0.13681670
v 0.13926180 0.02460782 -0.15997470
v 0.14750730 0.00106350 -0.18719760
v 0.19264530 0.00115706 -0.17742220
v -0.14467470 0.04790361 0.06644531
v -0.07268249 0.05936016 -0.00000793
v 0.00013428 0.05703008 -0.06595032
v 0.07653289 0.04058628 -0.13429440
v -0.07254822 0.05741633 0.06660370
v -0.00011810 0.05985789 0.00009491
v 0.07718628 0.05684293 -0.06589752
v 0.00012177 0.05716309 0.06668884
v 0.07745972 0.05900032 -0.00001343
v 0.13893040 0.03627692 -0.12958280
v 0.14462650 0.04823568 -0.06580688
v 0.14708740 0.05234974 0.00006073
v 0.16903140 0.02213004 -0.15685580
v 0.17301150 0.02886816 -0.12554110
v 0.20382570 0.00179074 -0.13347410
v 0.20824950 0.00232390 -0.06586853
v 0.17696170 0.03541652 -0.06571716
v 0.20998720 0.00248222 -0.00004944
v 0.17949890 0.03813347 0.00004700
v 0.20778260 0.00214888 0.06655243
v 0.17685640 0.03526668 0.06630950
v 0.20295590 0.00143340 0.13346370
v 0.14454620 0.04812502 0.06646027
v 0.17314910 0.02874142 0.12584350
v 0.07717804 0.05663117 0.06660461
v 0.13917020 0.03625217 0.13011810
v 0.16899480 0.02236806 0.15713440
v 0.19253720 0.00078116 0.17745270
v 0.13994380 0.02443615 0.16004360
v 0.14737430 0.00068958 0.18719080
v 0.07664154 0.02596945 0.16381040
v 0.07748718 0.00067154 0.19205840
v 0.07656128 0.04026085 0.13453580
v -0.00002197 0.02667754 0.16634890
v 0.00004639 0.00069889 0.19427250
v 0.00004242 0.04193391 0.13699520
v -0.07224243 0.02611987 0.16382450
v -0.07268829 0.00068988 0.19230040
v -0.07225098 0.04055000 0.13456630
v -0.13917210 0.02439696 0.15961030
v -0.14739380 0.00072249 0.18701570
v -0.13917790 0.03599876 0.12964200
v -0.16891240 0.02194855 0.15646760
v -0.19259120 0.00077102 0.17722440
v -0.17325260 0.02850386 0.12542240
v -0.14749570 -0.00266577 -0.18818850
v -0.19684940 -0.00262396 -0.18138580
v -0.16910310 -0.02274360 -0.15691310
v -0.20475680 -0.00320880 -0.13360350
v -0.13915470 -0.02523949 -0.16008700
v -0.07269836 -0.00272601 -0.19213560
v -0.07224090 -0.02709485 -0.16425200
v 0.00016998 -0.00276983 -0.19387330
v -0.13885770 -0.03674173 -0.12970150
v -0.17296750 -0.02933919 -0.12560730
v 0.00012817 -0.02773475 -0.16662660
v 0.07752044 -0.00275340 -0.19158450
v -0.17685120 -0.03590680 -0.06571838
v -0.20831970 -0.00375686 -0.06587524
v -0.07223266 -0.04141377 -0.13481450
v 0.07667664 -0.02711865 -0.16381800
v 0.14764590 -0.00272161 -0.18685030
v -0.14444490 -0.04871564 -0.06580902
v -0.17930420 -0.03897247 -0.00005035
v -0.20997340 -0.00405901 -0.00011505
v 0.00010193 -0.04287262 -0.13712460
v 0.14022520 -0.02558007 -0.16008480
v 0.19280120 -0.00270990 -0.17739530
v -0.07253631 -0.05793596 -0.06590942
v -0.14684360 -0.05326351 -0.00008759
v -0.17663180 -0.03687086 0.06630829
v -0.20770020 -0.00402490 0.06654999
v 0.00008545 -0.05775016 -0.06595916
v -0.07266510 -0.06047533 -0.00018097
v -0.14433750 -0.04992916 0.06645691
v -0.17314760 -0.03125889 0.12577540
v -0.20305910 -0.00367285 0.13337520
v -0.19250000 -0.00322776 0.17725740
v -0.07252990 -0.05927130 0.06660919
v -0.13923650 -0.03915368 0.13007780
v -0.16900180 -0.02535513 0.15729160
v -0.14728910 -0.00320708 0.18725680
v -0.13965300 -0.02754492 0.15998660
v -0.07225250 -0.04369324 0.13477290
v -0.07226746 -0.02939565 0.16403010
v -0.07268249 -0.00324981 0.19254730
v 0.00001678 -0.04520797 0.13702790
v 0.00006287 -0.03006509 0.16640010
v 0.00008667 -0.00326776 0.19450350
v 0.00000244 -0.05934470 0.06668579
v 0.07648560 -0.02930793 0.16380460
v 0.07747833 -0.00326444 0.19225490
v 0.07655304 -0.04337968 0.13443240
v 0.00036041 -0.06089415 -0.00000061
v 0.13859160 -0.02763300 0.16025630
v 0.14728670 -0.00323523 0.18738310
v 0.19253660 -0.00321359 0.17734500
v 0.07716186 -0.05890713 0.06659821
v 0.13908510 -0.03875165 0.12986970
v 0.07744934 -0.06006195 -0.00015167
v 0.16892880 -0.02499747 0.15702940
v 0.17273410 -0.03079462 0.12559360
v 0.20328030 -0.00359582 0.13335660
v 0.14441190 -0.04965122 0.06645325
v 0.17675510 -0.03658348 0.06630066
v 0.20791110 -0.00389191 0.06654999
v 0.07720062 -0.05725748 -0.06590179
v 0.14699860 -0.05299281 -0.00003998
v 0.17959110 -0.03876659 -0.00004150
v 0.21020110 -0.00392181 -0.00009033
v 0.07659119 -0.04129335 -0.13440860
v 0.14472960 -0.04862856 -0.06580963
v 0.17717990 -0.03583938 -0.06571960
v 0.20850280 -0.00367330 -0.06586761
v 0.13942600 -0.03721463 -0.12977510
v 0.17349950 -0.02962786 -0.12558750
v 0.20372010 -0.00316442 -0.13352330
v 0.16991820 -0.02339643 -0.15714110
vn -0.05844724 -0.83112440 -0.55300640
vn -0.59799560 -0.49153710 -0.63308180
vn -0.10342670 -0.76712290 -0.63310770
vn -0.07995318 -0.57063920 -0.81729950
vn -0.03225158 -0.60798560 -0.79329270
vn -0.02152457 -0.87176600 -0.48944950
vn -0.07874784 0.57969410 -0.81102000
vn 0.00191415 -0.61311820 -0.78998890
vn 0.00050330 -0.88292420 -0.46951520
vn -0.03105640 0.60076200 -0.79882450
vn 0.03688502 -0.63342670 -0.77292310
vn 0.02297060 -0.89069190 -0.45402700
vn 0.00273127 0.57781320 -0.81616450
vn 0.10630060 -0.61123200 -0.78428030
vn 0.07246425 -0.86561240 -0.49544360
vn 0.38265240 -0.84186690 -0.38057490
vn 0.03871051 0.57124650 -0.81986520
vn 0.59625350 -0.51865240 -0.61276540
vn 0.55200860 -0.82938920 -0.08602298
vn 0.10707130 0.54226620 -0.83335650
vn 0.82312200 -0.55472050 -0.12147180
vn 0.81275840 0.57001910 -0.12042380
vn 0.52625370 -0.84989520 -0.02711341
vn 0.81908580 -0.57229500 -0.03970709
vn 0.52856500 -0.84889270 0.00032021
vn 0.82917860 -0.55897890 0.00232794
vn 0.52443930 -0.85106170 0.02564028
vn 0.58904300 0.49529510 -0.63852250
vn 0.78975580 0.61227180 -0.03753722
vn 0.82442210 -0.56445240 0.04149347
vn 0.56370370 -0.82166460 0.08429378
vn 0.79263550 0.60968180 0.00413623
vn 0.84025410 -0.52885630 0.11951640
vn 0.61899160 -0.76905960 0.15936390
vn 0.60817550 -0.47778870 0.63390900
vn 0.78893990 0.61290810 0.04378853
vn 0.07953134 0.81825410 -0.56932850
vn 0.38968550 0.82087050 -0.41751280
vn 0.02600634 0.84887120 -0.52795950
vn 0.53261150 0.84189620 -0.08680782
vn 0.47749830 0.87831620 -0.02358203
vn 0.00239102 0.85942490 -0.51125650
vn 0.47142150 0.88190190 0.00327170
vn -0.01959139 0.87020800 -0.49229480
vn 0.47660990 0.87862680 0.02929191
vn -0.05479637 0.84138190 -0.53765590
vn -0.09828542 0.78297050 -0.61424520
vn -0.59430630 0.50733480 -0.62402830
vn 0.51990640 0.84999260 0.08491220
vn 0.80565180 0.57964760 0.12220370
vn 0.59286210 0.50391560 0.62815900
vn 0.37270400 0.84442570 0.38475570
vn 0.11102620 0.57595290 0.80990830
vn 0.07402795 0.85707060 0.50985280
vn 0.02372913 0.88636340 0.46238170
vn 0.03864055 0.60702700 0.79374120
vn 0.00089979 0.88790720 0.46002170
vn 0.00148870 0.60113480 0.79914620
vn -0.02407900 0.88553730 0.46394380
vn -0.03914057 0.60966980 0.79168850
vn -0.07463367 0.85502940 0.51318090
vn 0.11306020 -0.53826690 0.83515630
vn 0.04048198 -0.55703930 0.82949900
vn 0.08294239 -0.82679360 0.55635670
vn 0.14988760 -0.78020940 0.60729470
vn 0.02693427 -0.85266670 0.52176030
vn 0.00099824 -0.85231420 0.52302910
vn 0.00146294 -0.54677030 0.83728150
vn -0.02752995 -0.85359380 0.52021130
vn -0.04150364 -0.55252470 0.83246270
vn -0.07951820 -0.83181130 0.54933310
vn -0.11112330 -0.53268330 0.83898760
vn -0.36840450 -0.84131330 0.39556310
vn -0.10927890 0.58456900 0.80395090
vn -0.61030050 0.48081780 0.62956140
vn -0.40775170 0.82161720 0.39835100
vn -0.59107180 -0.49871270 0.63397150
vn -0.49556880 -0.86522350 0.07615606
vn -0.85525830 0.50339190 0.12300360
vn -0.58804440 0.80344580 0.09315915
vn -0.79119750 -0.59995100 0.11859670
vn -0.77299510 -0.63324890 0.03839717
vn -0.44920240 -0.89316330 0.02182985
vn -0.83943690 0.54161440 0.04471557
vn -0.55302990 0.83256370 0.03155121
vn -0.78482140 -0.61972050 0.00138591
vn -0.46108680 -0.88735470 -0.00091918
vn -0.83563630 0.54926130 0.00489007
vn -0.54127750 0.84083310 0.00427980
vn -0.79162770 -0.61005040 -0.03411930
vn -0.48857630 -0.87221580 -0.02308242
vn -0.81418470 0.57968870 -0.03262132
vn -0.51700280 0.85573100 -0.02079576
vn -0.82693900 -0.55470540 -0.09205380
vn -0.56473180 -0.82244710 -0.06825566
vn -0.64710200 -0.75226680 -0.12390970
vn -0.82134180 0.56311110 -0.09112355
vn -0.55191580 0.83147730 -0.06351639
vn -0.62105830 0.77512430 -0.11605570
vn -0.08099479 0.63061940 -0.77185430
vn -0.42027240 0.79357490 -0.44001130
vn -0.48275140 0.74246650 -0.46442910
vn -0.73882070 0.66778420 -0.09060040
vn -0.59226980 0.79859940 -0.10703070
vn -0.76750580 0.63954880 -0.04372743
vn -0.10298810 0.76936910 -0.63044790
vn -0.05266169 0.74467710 -0.66534410
vn -0.04338885 0.60077970 -0.79823630
vn -0.62582580 0.77814950 -0.05315419
vn -0.77885230 0.62720010 0.00302458
vn -0.17365880 0.96613740 -0.19084320
vn 0.00208828 0.73071460 -0.68267990
vn 0.00156473 0.58626340 -0.81011900
vn -0.64552470 0.76373400 0.00285988
vn -0.76987430 0.63617250 0.05077389
vn -0.21128520 0.97514170 -0.06676243
vn -0.06573109 0.97215860 -0.22491600
vn 0.05640762 0.74410250 -0.66567990
vn 0.04707521 0.59764320 -0.80037900
vn -0.62724510 0.77645680 0.06065005
vn -0.74457200 0.65780560 0.11359630
vn -0.22516850 0.97431950 0.00089830
vn -0.06541173 0.99561360 -0.06689432
vn 0.00321244 0.97189410 -0.23539610
vn 0.11882690 0.76823350 -0.62904480
vn 0.10300350 0.62182730 -0.77635120
vn 0.50094450 0.71478870 -0.48798750
vn -0.21513080 0.97382960 0.07331288
vn -0.06424879 0.99793360 -0.00069991
vn 0.00308537 0.99788660 -0.06490678
vn 0.06822647 0.97168250 -0.22622620
vn -0.06792833 0.99508790 0.07201278
vn 0.00352863 0.99999360 -0.00066815
vn 0.06592954 0.99544630 -0.06884774
vn 0.00429066 0.99762180 0.06879050
vn 0.06291947 0.99801840 0.00068073
vn 0.18166360 0.96395020 -0.19441820
vn 0.21762200 0.97342650 -0.07128426
vn 0.22961780 0.97328000 0.00128367
vn 0.43362860 0.77563290 -0.45865010
vn 0.59047520 0.79763600 -0.12294680
vn 0.74099420 0.66228620 -0.11092540
vn 0.76720650 0.63970150 -0.04664837
vn 0.62611560 0.77762410 -0.05727225
vn 0.77897980 0.62704420 0.00247065
vn 0.64697480 0.76250860 0.00206162
vn 0.77214730 0.63342780 0.05057577
vn 0.62984110 0.77442340 0.05973842
vn 0.75180980 0.64997550 0.11096730
vn 0.21654580 0.97358440 0.07239589
vn 0.59921650 0.79115330 0.12254010
vn 0.06605057 0.99525270 0.07147950
vn 0.17815980 0.96405430 0.19712510
vn 0.44018190 0.76864800 0.46413380
vn 0.50966920 0.70401690 0.49456800
vn 0.11533860 0.76341210 0.63553050
vn 0.09988368 0.61589800 0.78146850
vn 0.05476169 0.74187990 0.66829290
vn 0.04673776 0.59868160 0.79962240
vn 0.06678939 0.97041620 0.23201610
vn 0.00146721 0.73032500 0.68309820
vn 0.00120072 0.58956130 0.80772270
vn 0.00353017 0.96984180 0.24370980
vn -0.05724807 0.74329820 0.66650620
vn -0.04851894 0.60126110 0.79757820
vn -0.06929658 0.96964090 0.23450920
vn -0.11724480 0.76533150 0.63286760
vn -0.10253000 0.62275000 0.77567390
vn -0.18001050 0.96294250 0.20084330
vn -0.43423120 0.77352540 0.46162940
vn -0.50055410 0.71264240 0.49151420
vn -0.59394770 0.79466120 0.12545760
vn -0.08682651 -0.65084510 -0.75422930
vn -0.46424400 -0.76449070 -0.44724860
vn -0.40421140 -0.80840020 -0.42790460
vn -0.71661670 -0.69097590 -0.09493539
vn -0.10904610 -0.77996580 -0.61624850
vn -0.04461178 -0.61245940 -0.78924230
vn -0.05554245 -0.75248680 -0.65626110
vn 0.00263723 -0.59563580 -0.80325030
vn -0.17972570 -0.96351550 -0.19833420
vn -0.57519110 -0.80994990 -0.11461280
vn 0.00248444 -0.73690470 -0.67599200
vn 0.04707772 -0.60575090 -0.79426040
vn -0.61593340 -0.78560660 -0.05872326
vn -0.75444940 -0.65476380 -0.04572108
vn -0.06980364 -0.97068100 -0.23001290
vn 0.05542283 -0.74956200 -0.65960990
vn 0.09882626 -0.62492430 -0.77440490
vn -0.21451490 -0.97368000 -0.07700907
vn -0.64122470 -0.76734350 -0.00384578
vn -0.77115640 -0.63664510 -0.00094901
vn 0.00306367 -0.97123650 -0.23809740
vn 0.11534390 -0.77266540 -0.62424670
vn 0.50314640 -0.71495340 -0.48547440
vn -0.06736357 -0.99490180 -0.07505024
vn -0.22741030 -0.97374730 -0.01003549
vn -0.62929430 -0.77566460 0.04830199
vn -0.76888840 -0.63793780 0.04296711
vn 0.00376815 -0.99748920 -0.07071849
vn -0.06450526 -0.99784700 -0.01186019
vn -0.21709520 -0.97462400 0.05456899
vn -0.60427640 -0.78932760 0.10868250
vn -0.75504420 -0.64780730 0.10126210
vn -0.52010870 -0.69749770 0.49293400
vn -0.06842852 -0.99626980 0.05257278
vn -0.18132720 -0.96681110 0.17999090
vn -0.44688050 -0.76479810 0.46409230
vn -0.10170660 -0.60782690 0.78752920
vn -0.11785500 -0.76008550 0.63904640
vn -0.06998973 -0.97410970 0.21496900
vn -0.05757920 -0.73957280 0.67060920
vn -0.04884046 -0.59180460 0.80460050
vn 0.00303405 -0.97427320 0.22534980
vn 0.00219427 -0.72807890 0.68548970
vn 0.00167750 -0.58177510 0.81334800
vn 0.00299980 -0.99878200 0.04924980
vn 0.05731494 -0.74156650 0.66842660
vn 0.04768617 -0.59140500 0.80496350
vn 0.07236741 -0.97429340 0.21334280
vn 0.00349798 -0.99990330 -0.01345893
vn 0.12227190 -0.76547380 0.63174310
vn 0.10656000 -0.61116030 0.78430100
vn 0.51512180 -0.70518000 0.48720710
vn 0.07111301 -0.99604390 0.05328633
vn 0.19083020 -0.96557190 0.17679000
vn 0.06640349 -0.99771080 -0.01279229
vn 0.44574620 -0.77029510 0.45602170
vn 0.59871630 -0.79330340 0.11049150
vn 0.74694830 -0.65697500 0.10223580
vn 0.22606940 -0.97244170 0.05700740
vn 0.62657970 -0.77764820 0.05158590
vn 0.76482700 -0.64261020 0.04573756
vn 0.06712938 -0.99509670 -0.07263606
vn 0.23401920 -0.97218640 -0.00941224
vn 0.64024340 -0.76816910 -0.00216137
vn 0.77095950 -0.63688410 0.00030388
vn 0.06715714 -0.97181590 -0.22597290
vn 0.21792130 -0.97329010 -0.07222667
vn 0.61944540 -0.78297920 -0.05684140
vn 0.76006190 -0.64815280 -0.04694550
vn 0.17884510 -0.96521640 -0.19071380
vn 0.58732730 -0.80080340 -0.11730520
vn 0.73979440 -0.66439510 -0.10622360
vn 0.43483380 -0.77834250 -0.45288250
vt 0.59664380 0.96102100
vt 0.54725930 0.93950470
vt 0.54575230 0.94109990
vt 0.59827940 0.95681630
vt 0.67821870 0.96577510
vt 0.67771940 0.97021260
vt 0.59877880 0.95413290
vt 0.75997450 0.96789710
vt 0.75997450 0.97234220
vt 0.67843790 0.96274910
vt 0.83694620 0.96182340
vt 0.83769750 0.96615550
vt 0.75997450 0.96474220
vt 0.90436600 0.95157670
vt 0.90592220 0.95547000
vt 0.95361960 0.93792020
vt 0.83654890 0.95885140
vt 0.95186360 0.93600080
vt 0.97913870 0.88722370
vt 0.90359030 0.94909660
vt 0.97508850 0.88568870
vt 0.97245100 0.88495450
vt 0.98635520 0.81540140
vt 0.98217590 0.81540140
vt 0.99349740 0.74775650
vt 0.98919210 0.74775650
vt 0.99314280 0.67885980
vt 0.95021220 0.93422260
vt 0.97930590 0.81540140
vt 0.98884400 0.67885980
vt 0.98470910 0.60013890
vt 0.98608560 0.74775650
vt 0.98095570 0.60086050
vt 0.96033700 0.54320400
vt 0.95865290 0.54496860
vt 0.98582510 0.67885980
vt 0.90318990 0.94493880
vt 0.94804690 0.93165020
vt 0.83618740 0.95446260
vt 0.96822390 0.88442840
vt 0.97514520 0.81540140
vt 0.75997450 0.96030780
vt 0.98185140 0.74775650
vt 0.67858840 0.95832180
vt 0.98156600 0.67885980
vt 0.59894590 0.94971440
vt 0.55050620 0.93571940
vt 0.54868930 0.93785730
vt 0.97430250 0.60152950
vt 0.97832840 0.60117590
vt 0.95708910 0.54665010
vt 0.95517410 0.54881630
vt 0.90451750 0.52834750
vt 0.90424350 0.53262470
vt 0.84064960 0.51086810
vt 0.84147030 0.50640920
vt 0.75972590 0.50752160
vt 0.75972590 0.50276670
vt 0.67912570 0.50735030
vt 0.67946060 0.50185420
vt 0.58245180 0.52171750
vt 0.90485640 0.52547550
vt 0.84222600 0.50309400
vt 0.90577340 0.52143210
vt 0.96033700 0.54320400
vt 0.84347500 0.49865700
vt 0.75972590 0.49422450
vt 0.75972590 0.49904460
vt 0.67950930 0.49206860
vt 0.67957600 0.49769070
vt 0.57757590 0.50834160
vt 0.58004780 0.51311860
vt 0.52516370 0.54424850
vt 0.58117950 0.51656790
vt 0.52947780 0.54750040
vt 0.53214370 0.54957180
vt 0.52736780 0.54587870
vt 0.50784130 0.60407330
vt 0.51520400 0.60487140
vt 0.51978440 0.60495030
vt 0.51222830 0.60456090
vt 0.50680070 0.67885980
vt 0.50216830 0.67885980
vt 0.51005300 0.67885980
vt 0.51471750 0.67885980
vt 0.50727060 0.74775650
vt 0.50278590 0.74775650
vt 0.51053920 0.74775650
vt 0.51504140 0.74775650
vt 0.51151010 0.81540140
vt 0.50721120 0.81540140
vt 0.51443380 0.81540140
vt 0.51877240 0.81540140
vt 0.52395980 0.88930390
vt 0.51977680 0.89111240
vt 0.54575230 0.94109990
vt 0.52674320 0.88868020
vt 0.53118030 0.88818410
vt 0.55050620 0.93571940
vt 0.59894590 0.94971440
vt 0.58549630 0.90216680
vt 0.55050620 0.93571940
vt 0.53118030 0.88818410
vt 0.57993750 0.87260770
vt 0.51877240 0.81540140
vt 0.61015010 0.90423610
vt 0.68120280 0.90832540
vt 0.67858840 0.95832180
vt 0.57578570 0.81540140
vt 0.51504140 0.74775650
vt 0.61137090 0.87301780
vt 0.75997450 0.90965420
vt 0.75997450 0.96030780
vt 0.56833480 0.74775650
vt 0.51471750 0.67885980
vt 0.60838690 0.81540140
vt 0.68162930 0.87492590
vt 0.83090320 0.90569200
vt 0.83618740 0.95446260
vt 0.56896560 0.67885980
vt 0.51978440 0.60495030
vt 0.60375930 0.74775650
vt 0.68242830 0.81540140
vt 0.75997450 0.87557860
vt 0.88736520 0.90289960
vt 0.90318990 0.94493880
vt 0.94804690 0.93165020
vt 0.60475960 0.67885980
vt 0.68067620 0.74775650
vt 0.75972590 0.81540140
vt 0.82938280 0.87323800
vt 0.67996680 0.67885980
vt 0.75972590 0.74775650
vt 0.82722650 0.81540140
vt 0.75972590 0.67885980
vt 0.82880630 0.74775650
vt 0.88629860 0.87124750
vt 0.88856130 0.81540140
vt 0.89085110 0.74775650
vt 0.91871890 0.89952120
vt 0.92332740 0.86991100
vt 0.96822390 0.88442840
vt 0.97514520 0.81540140
vt 0.92596590 0.81540140
vt 0.98185140 0.74775650
vt 0.93128280 0.74775650
vt 0.98156600 0.67885980
vt 0.93146840 0.67885980
vt 0.97430250 0.60152950
vt 0.89108440 0.67885980
vt 0.93106680 0.60820790
vt 0.83068450 0.67885980
vt 0.89136180 0.60810740
vt 0.92519800 0.57860180
vt 0.95517410 0.54881630
vt 0.89193700 0.57630500
vt 0.90424350 0.53262470
vt 0.83502420 0.57083370
vt 0.84064960 0.51086810
vt 0.83082620 0.60699530
vt 0.75972590 0.56782180
vt 0.75972590 0.50752160
vt 0.75972590 0.60675760
vt 0.67961010 0.56640300
vt 0.67912570 0.50735030
vt 0.67983140 0.60672270
vt 0.60171460 0.57108570
vt 0.58245180 0.52171750
vt 0.60537320 0.60738890
vt 0.57164530 0.57753840
vt 0.53214370 0.54957180
vt 0.57017920 0.60928730
vt 0.39253020 0.94365420
vt 0.44596970 0.93072160
vt 0.40980990 0.89552750
vt 0.46274840 0.87994830
vt 0.37931770 0.89792760
vt 0.31269210 0.95096950
vt 0.31062780 0.90168900
vt 0.23524440 0.95212770
vt 0.37831580 0.86514220
vt 0.41459250 0.86369390
vt 0.23662560 0.90233840
vt 0.15368280 0.94604280
vt 0.42212810 0.80225000
vt 0.47441930 0.80741830
vt 0.31039660 0.86803730
vt 0.15878610 0.89749630
vt 0.07999334 0.93415660
vt 0.38536800 0.80005530
vt 0.42685190 0.73404430
vt 0.48047030 0.73607890
vt 0.23745440 0.86839180
vt 0.09493178 0.89052090
vt 0.03276061 0.91616340
vt 0.31180510 0.79779300
vt 0.38930590 0.73298100
vt 0.42556290 0.66451290
vt 0.47972360 0.66254840
vt 0.23889010 0.79653230
vt 0.31327600 0.73151700
vt 0.38808070 0.66457960
vt 0.42076070 0.60284370
vt 0.47174830 0.58702620
vt 0.45303000 0.53521170
vt 0.31378140 0.66382410
vt 0.38357790 0.59850460
vt 0.41545050 0.56720400
vt 0.40100140 0.51622020
vt 0.38573470 0.56480160
vt 0.31421730 0.59354010
vt 0.31519180 0.55949740
vt 0.31835140 0.50637780
vt 0.24050410 0.59168790
vt 0.24017410 0.55767700
vt 0.23931130 0.50434520
vt 0.24050300 0.66315150
vt 0.16185280 0.56133150
vt 0.15665560 0.50993190
vt 0.16323150 0.59443950
vt 0.23957100 0.73029350
vt 0.09928937 0.56740070
vt 0.08264289 0.52183770
vt 0.03504476 0.54048650
vt 0.16322430 0.66296270
vt 0.10056430 0.59902800
vt 0.16229030 0.72958860
vt 0.06983130 0.57109670
vt 0.06542542 0.60163930
vt 0.01765171 0.58704950
vt 0.09536608 0.66235550
vt 0.05924532 0.66125580
vt 0.00762281 0.65776410
vt 0.16183770 0.79516830
vt 0.09235419 0.72886900
vt 0.05570894 0.72867180
vt 0.00375071 0.72853810
vt 0.16072020 0.86428840
vt 0.09382906 0.79471980
vt 0.05776149 0.79544000
vt 0.00658186 0.79835150
vt 0.09800049 0.85867960
vt 0.06272434 0.85564430
vt 0.01590987 0.86975790
vt 0.06618441 0.88647320
f 3/3/3 2/2/2 1/1/1
f 2/2/2 4/4/4 1/1/1
f 1/1/1 4/4/4 5/5/5
f 6/6/6 1/1/1 5/5/5
f 7/7/7 4/4/4 2/2/2
f 4/4/4 7/7/7 5/5/5
f 6/6/6 5/5/5 8/8/8
f 9/9/9 6/6/6 8/8/8
f 7/7/7 10/10/10 5/5/5
f 5/5/5 10/10/10 8/8/8
f 9/9/9 8/8/8 11/11/11
f 12/12/12 9/9/9 11/11/11
f 10/10/10 13/13/13 8/8/8
f 8/8/8 13/13/13 11/11/11
f 12/12/12 11/11/11 14/14/14
f 15/15/15 12/12/12 14/14/14
f 15/15/15 14/14/14 16/16/16
f 13/13/13 17/17/17 11/11/11
f 11/11/11 17/17/17 14/14/14
f 14/14/14 18/18/18 16/16/16
f 16/16/16 18/18/18 19/19/19
f 17/17/17 20/20/20 14/14/14
f 14/14/14 20/20/20 18/18/18
f 18/18/18 21/21/21 19/19/19
f 21/21/21 18/18/18 22/22/22
f 23/23/23 19/19/19 21/21/21
f 24/24/24 23/23/23 21/21/21
f 24/24/24 21/21/21 22/22/22
f 25/25/25 23/23/23 24/24/24
f 26/26/26 25/25/25 24/24/24
f 27/27/27 25/25/25 26/26/26
f 20/20/20 28/28/28 18/18/18
f 18/18/18 28/28/28 22/22/22
f 29/29/29 24/24/24 22/22/22
f 26/26/26 24/24/24 29/29/29
f 30/30/30 27/27/27 26/26/26
f 31/31/31 27/27/27 30/30/30
f 32/32/32 26/26/26 29/29/29
f 30/30/30 26/26/26 32/32/32
f 33/33/33 31/31/31 30/30/30
f 31/31/31 33/33/33 34/34/34
f 33/33/33 35/35/35 34/34/34
f 36/36/36 30/30/30 32/32/32
f 33/33/33 30/30/30 36/36/36
f 28/28/28 20/20/20 37/37/37
f 38/38/38 28/28/28 37/37/37
f 22/22/22 28/28/28 38/38/38
f 39/39/39 37/37/37 20/20/20
f 40/40/40 22/22/22 38/38/38
f 17/17/17 39/39/39 20/20/20
f 40/40/40 41/41/41 22/22/22
f 42/42/42 39/39/39 17/17/17
f 41/41/41 29/29/29 22/22/22
f 13/13/13 42/42/42 17/17/17
f 41/41/41 43/43/43 29/29/29
f 44/44/44 42/42/42 13/13/13
f 43/43/43 32/32/32 29/29/29
f 10/10/10 44/44/44 13/13/13
f 43/43/43 45/45/45 32/32/32
f 46/46/46 44/44/44 10/10/10
f 45/45/45 36/36/36 32/32/32
f 7/7/7 46/46/46 10/10/10
f 46/46/46 7/7/7 47/47/47
f 7/7/7 48/48/48 47/47/47
f 45/45/45 49/49/49 36/36/36
f 48/48/48 7/7/7 2/2/2
f 49/49/49 50/50/50 36/36/36
f 50/50/50 33/33/33 36/36/36
f 51/51/51 50/50/50 49/49/49
f 33/33/33 50/50/50 51/51/51
f 52/52/52 51/51/51 49/49/49
f 53/53/53 51/51/51 52/52/52
f 35/35/35 33/33/33 51/51/51
f 35/35/35 51/51/51 53/53/53
f 54/54/54 53/53/53 52/52/52
f 54/54/54 55/55/55 53/53/53
f 55/55/55 56/56/56 53/53/53
f 55/55/55 57/57/57 56/56/56
f 57/57/57 58/58/58 56/56/56
f 57/57/57 59/59/59 58/58/58
f 59/59/59 60/60/60 58/58/58
f 59/59/59 61/61/61 60/60/60
f 62/62/62 35/35/35 53/53/53
f 56/56/56 63/63/63 53/53/53
f 63/63/63 62/62/62 53/53/53
f 35/35/35 62/62/62 64/64/64
f 65/65/65 35/35/35 64/64/64
f 66/66/66 64/64/64 62/62/62
f 63/63/63 66/66/66 62/62/62
f 67/67/67 66/66/66 63/63/63
f 68/68/68 63/63/63 56/56/56
f 68/68/68 67/67/67 63/63/63
f 58/58/58 68/68/68 56/56/56
f 69/69/69 67/67/67 68/68/68
f 70/70/70 68/68/68 58/58/58
f 70/70/70 69/69/69 68/68/68
f 60/60/60 70/70/70 58/58/58
f 71/71/71 69/69/69 70/70/70
f 72/72/72 71/71/71 70/70/70
f 72/72/72 70/70/70 60/60/60
f 71/71/71 72/72/72 73/73/73
f 74/74/74 72/72/72 60/60/60
f 61/61/61 74/74/74 60/60/60
f 75/75/75 74/74/74 61/61/61
f 72/72/72 74/74/74 75/75/75
f 76/76/76 75/75/75 61/61/61
f 72/72/72 77/77/77 73/73/73
f 77/77/77 72/72/72 75/75/75
f 73/73/73 77/77/77 78/78/78
f 79/79/79 75/75/75 76/76/76
f 75/75/75 79/79/79 77/77/77
f 80/80/80 79/79/79 76/76/76
f 77/77/77 81/81/81 78/78/78
f 79/79/79 81/81/81 77/77/77
f 78/78/78 81/81/81 82/82/82
f 81/81/81 79/79/79 82/82/82
f 83/83/83 78/78/78 82/82/82
f 79/79/79 80/80/80 84/84/84
f 79/79/79 84/84/84 82/82/82
f 80/80/80 85/85/85 84/84/84
f 83/83/83 82/82/82 86/86/86
f 82/82/82 84/84/84 86/86/86
f 87/87/87 83/83/83 86/86/86
f 84/84/84 85/85/85 88/88/88
f 84/84/84 88/88/88 86/86/86
f 85/85/85 89/89/89 88/88/88
f 87/87/87 86/86/86 90/90/90
f 86/86/86 88/88/88 90/90/90
f 91/91/91 87/87/87 90/90/90
f 88/88/88 89/89/89 92/92/92
f 88/88/88 92/92/92 90/90/90
f 89/89/89 93/93/93 92/92/92
f 91/91/91 90/90/90 94/94/94
f 90/90/90 92/92/92 94/94/94
f 95/95/95 91/91/91 94/94/94
f 95/95/95 94/94/94 96/96/96
f 94/94/94 2/2/2 96/96/96
f 92/92/92 93/93/93 97/97/97
f 92/92/92 97/97/97 94/94/94
f 94/94/94 97/97/97 2/2/2
f 93/93/93 98/98/98 97/97/97
f 97/97/97 48/48/48 2/2/2
f 48/48/48 97/97/97 98/98/98
f 99/99/99 48/48/48 98/98/98
f 102/102/102 101/101/101 100/100/100
f 102/102/102 103/103/103 101/101/101
f 103/103/103 104/104/104 101/101/101
f 104/104/104 103/103/103 105/105/105
f 101/101/101 106/106/106 100/100/100
f 106/106/106 101/101/101 104/104/104
f 106/106/106 107/107/107 100/100/100
f 107/107/107 108/108/108 100/100/100
f 109/109/109 104/104/104 105/105/105
f 109/109/109 105/105/105 110/110/110
f 111/111/111 106/106/106 104/104/104
f 106/106/106 111/111/111 107/107/107
f 107/107/107 112/112/112 108/108/108
f 112/112/112 113/113/113 108/108/108
f 114/114/114 109/109/109 110/110/110
f 114/114/114 110/110/110 115/115/115
f 109/109/109 116/116/116 104/104/104
f 116/116/116 111/111/111 104/104/104
f 111/111/111 117/117/117 107/107/107
f 107/107/107 117/117/117 112/112/112
f 112/112/112 118/118/118 113/113/113
f 118/118/118 119/119/119 113/113/113
f 120/120/120 114/114/114 115/115/115
f 120/120/120 115/115/115 121/121/121
f 114/114/114 122/122/122 109/109/109
f 122/122/122 116/116/116 109/109/109
f 116/116/116 123/123/123 111/111/111
f 123/123/123 117/117/117 111/111/111
f 117/117/117 124/124/124 112/112/112
f 112/112/112 124/124/124 118/118/118
f 118/118/118 125/125/125 119/119/119
f 125/125/125 126/126/126 119/119/119
f 126/126/126 125/125/125 127/127/127
f 120/120/120 128/128/128 114/114/114
f 128/128/128 122/122/122 114/114/114
f 122/122/122 129/129/129 116/116/116
f 129/129/129 123/123/123 116/116/116
f 123/123/123 130/130/130 117/117/117
f 130/130/130 124/124/124 117/117/117
f 124/124/124 131/131/131 118/118/118
f 118/118/118 131/131/131 125/125/125
f 128/128/128 132/132/132 122/122/122
f 132/132/132 129/129/129 122/122/122
f 129/129/129 133/133/133 123/123/123
f 133/133/133 130/130/130 123/123/123
f 130/130/130 134/134/134 124/124/124
f 134/134/134 131/131/131 124/124/124
f 135/135/135 133/133/133 129/129/129
f 132/132/132 135/135/135 129/129/129
f 133/133/133 136/136/136 130/130/130
f 136/136/136 134/134/134 130/130/130
f 136/136/136 133/133/133 135/135/135
f 131/131/131 137/137/137 125/125/125
f 134/134/134 138/138/138 131/131/131
f 138/138/138 137/137/137 131/131/131
f 136/136/136 139/139/139 134/134/134
f 139/139/139 138/138/138 134/134/134
f 140/140/140 125/125/125 137/137/137
f 125/125/125 140/140/140 127/127/127
f 140/140/140 141/141/141 127/127/127
f 141/141/141 140/140/140 137/137/137
f 141/141/141 142/142/142 127/127/127
f 143/143/143 142/142/142 141/141/141
f 144/144/144 141/141/141 137/137/137
f 144/144/144 143/143/143 141/141/141
f 138/138/138 144/144/144 137/137/137
f 145/145/145 143/143/143 144/144/144
f 146/146/146 144/144/144 138/138/138
f 146/146/146 145/145/145 144/144/144
f 139/139/139 146/146/146 138/138/138
f 147/147/147 145/145/145 146/146/146
f 148/148/148 147/147/147 146/146/146
f 148/148/148 146/146/146 139/139/139
f 149/149/149 147/147/147 148/148/148
f 150/150/150 148/148/148 139/139/139
f 150/150/150 139/139/139 136/136/136
f 151/151/151 149/149/149 148/148/148
f 151/151/151 148/148/148 150/150/150
f 152/152/152 150/150/150 136/136/136
f 152/152/152 136/136/136 135/135/135
f 153/153/153 150/150/150 152/152/152
f 153/153/153 151/151/151 150/150/150
f 151/151/151 154/154/154 149/149/149
f 154/154/154 155/155/155 149/149/149
f 154/154/154 151/151/151 156/156/156
f 154/154/154 156/156/156 155/155/155
f 151/151/151 153/153/153 156/156/156
f 156/156/156 157/157/157 155/155/155
f 156/156/156 158/158/158 157/157/157
f 158/158/158 156/156/156 153/153/153
f 158/158/158 159/159/159 157/157/157
f 160/160/160 153/153/153 152/152/152
f 160/160/160 152/152/152 135/135/135
f 160/160/160 158/158/158 153/153/153
f 158/158/158 161/161/161 159/159/159
f 161/161/161 158/158/158 160/160/160
f 161/161/161 162/162/162 159/159/159
f 163/163/163 160/160/160 135/135/135
f 163/163/163 161/161/161 160/160/160
f 163/163/163 135/135/135 132/132/132
f 161/161/161 164/164/164 162/162/162
f 164/164/164 161/161/161 163/163/163
f 164/164/164 165/165/165 162/162/162
f 166/166/166 163/163/163 132/132/132
f 166/166/166 164/164/164 163/163/163
f 166/166/166 132/132/132 128/128/128
f 164/164/164 167/167/167 165/165/165
f 167/167/167 164/164/164 166/166/166
f 167/167/167 168/168/168 165/165/165
f 169/169/169 166/166/166 128/128/128
f 169/169/169 167/167/167 166/166/166
f 169/169/169 128/128/128 120/120/120
f 167/167/167 170/170/170 168/168/168
f 167/167/167 169/169/169 170/170/170
f 170/170/170 171/171/171 168/168/168
f 172/172/172 169/169/169 120/120/120
f 169/169/169 172/172/172 170/170/170
f 171/171/171 170/170/170 172/172/172
f 172/172/172 120/120/120 121/121/121
f 121/121/121 171/171/171 172/172/172
f 175/175/175 174/174/174 173/173/173
f 174/174/174 175/175/175 176/176/176
f 177/177/177 175/175/175 173/173/173
f 173/173/173 178/178/178 177/177/177
f 178/178/178 179/179/179 177/177/177
f 178/178/178 180/180/180 179/179/179
f 175/175/175 177/177/177 181/181/181
f 177/177/177 179/179/179 181/181/181
f 175/175/175 182/182/182 176/176/176
f 182/182/182 175/175/175 181/181/181
f 180/180/180 183/183/183 179/179/179
f 180/180/180 184/184/184 183/183/183
f 176/176/176 182/182/182 185/185/185
f 186/186/186 176/176/176 185/185/185
f 179/179/179 187/187/187 181/181/181
f 179/179/179 183/183/183 187/187/187
f 184/184/184 188/188/188 183/183/183
f 184/184/184 189/189/189 188/188/188
f 182/182/182 181/181/181 190/190/190
f 185/185/185 182/182/182 190/190/190
f 186/186/186 185/185/185 191/191/191
f 192/192/192 186/186/186 191/191/191
f 183/183/183 193/193/193 187/187/187
f 183/183/183 188/188/188 193/193/193
f 189/189/189 194/194/194 188/188/188
f 194/194/194 189/189/189 195/195/195
f 181/181/181 187/187/187 196/196/196
f 190/190/190 181/181/181 196/196/196
f 185/185/185 190/190/190 197/197/197
f 191/191/191 185/185/185 197/197/197
f 192/192/192 191/191/191 198/198/198
f 199/199/199 192/192/192 198/198/198
f 196/196/196 187/187/187 200/200/200
f 187/187/187 193/193/193 200/200/200
f 190/190/190 196/196/196 201/201/201
f 197/197/197 190/190/190 201/201/201
f 201/201/201 196/196/196 200/200/200
f 191/191/191 197/197/197 202/202/202
f 198/198/198 191/191/191 202/202/202
f 199/199/199 198/198/198 203/203/203
f 204/204/204 199/199/199 203/203/203
f 204/204/204 203/203/203 205/205/205
f 197/197/197 201/201/201 206/206/206
f 202/202/202 197/197/197 206/206/206
f 198/198/198 202/202/202 207/207/207
f 203/203/203 198/198/198 207/207/207
f 203/203/203 208/208/208 205/205/205
f 205/205/205 208/208/208 209/209/209
f 208/208/208 203/203/203 210/210/210
f 203/203/203 207/207/207 210/210/210
f 208/208/208 210/210/210 209/209/209
f 207/207/207 202/202/202 211/211/211
f 207/207/207 211/211/211 210/210/210
f 202/202/202 206/206/206 211/211/211
f 210/210/210 212/212/212 209/209/209
f 211/211/211 212/212/212 210/210/210
f 212/212/212 213/213/213 209/209/209
f 211/211/211 206/206/206 214/214/214
f 211/211/211 214/214/214 212/212/212
f 212/212/212 215/215/215 213/213/213
f 214/214/214 215/215/215 212/212/212
f 215/215/215 216/216/216 213/213/213
f 206/206/206 217/217/217 214/214/214
f 206/206/206 201/201/201 217/217/217
f 215/215/215 218/218/218 216/216/216
f 218/218/218 219/219/219 216/216/216
f 214/214/214 220/220/220 215/215/215
f 214/214/214 217/217/217 220/220/220
f 220/220/220 218/218/218 215/215/215
f 201/201/201 221/221/221 217/217/217
f 221/221/221 201/201/201 200/200/200
f 218/218/218 222/222/222 219/219/219
f 222/222/222 223/223/223 219/219/219
f 223/223/223 222/222/222 224/224/224
f 217/217/217 225/225/225 220/220/220
f 217/217/217 221/221/221 225/225/225
f 220/220/220 226/226/226 218/218/218
f 226/226/226 222/222/222 218/218/218
f 220/220/220 225/225/225 226/226/226
f 221/221/221 200/200/200 227/227/227
f 221/221/221 227/227/227 225/225/225
f 222/222/222 228/228/228 224/224/224
f 222/222/222 226/226/226 228/228/228
f 228/228/228 229/229/229 224/224/224
f 226/226/226 229/229/229 228/228/228
f 229/229/229 230/230/230 224/224/224
f 225/225/225 231/231/231 226/226/226
f 226/226/226 231/231/231 229/229/229
f 225/225/225 227/227/227 231/231/231
f 229/229/229 232/232/232 230/230/230
f 231/231/231 232/232/232 229/229/229
f 232/232/232 233/233/233 230/230/230
f 200/200/200 234/234/234 227/227/227
f 200/200/200 193/193/193 234/234/234
f 227/227/227 235/235/235 231/231/231
f 231/231/231 235/235/235 232/232/232
f 227/227/227 234/234/234 235/235/235
f 232/232/232 236/236/236 233/233/233
f 235/235/235 236/236/236 232/232/232
f 236/236/236 237/237/237 233/233/233
f 193/193/193 238/238/238 234/234/234
f 188/188/188 238/238/238 193/193/193
f 188/188/188 194/194/194 238/238/238
f 234/234/234 239/239/239 235/235/235
f 235/235/235 239/239/239 236/236/236
f 234/234/234 238/238/238 239/239/239
f 236/236/236 240/240/240 237/237/237
f 239/239/239 240/240/240 236/236/236
f 240/240/240 241/241/241 237/237/237
f 238/238/238 242/242/242 239/239/239
f 239/239/239 242/242/242 240/240/240
f 194/194/194 242/242/242 238/238/238
f 240/240/240 243/243/243 241/241/241
f 242/242/242 243/243/243 240/240/240
f 242/242/242 194/194/194 243/243/243
f 243/243/243 244/244/244 241/241/241
f 195/195/195 244/244/244 243/243/243
f 245/245/245 194/194/194 195/195/195
f 194/194/194 245/245/245 243/243/243
f 245/245/245 195/195/195 243/243/243

