mtllib material.mtl
usemtl material_0
v 0.00381838 0.00450000 0.02324466
v -0.00000000 0.00450000 0.02189315
v -0.00381838 0.00450000 0.02324466
v 0.00540000 0.00450000 0.02650750
v -0.00540000 0.00450000 0.02650750
v 0.00381838 0.00450000 0.02977034
v -0.00381838 0.00450000 0.02977034
v -0.00000000 0.00450000 0.03112184
v -0.00000000 0.01080000 0.02189315
v -0.00381838 0.01080000 0.02324466
v -0.00381838 0.00450000 0.02324466
v -0.00000000 0.00450000 0.02189315
v 0.00381838 0.01080000 0.02324466
v 0.00381838 0.00450000 0.02324466
v -0.00381838 0.01080000 0.02324466
v -0.00540000 0.01080000 0.02650750
v -0.00540000 0.00450000 0.02650750
v -0.00381838 0.00450000 0.02324466
v -0.00540000 0.01080000 0.02650750
v -0.00381838 0.01080000 0.02977034
v -0.00381838 0.00450000 0.02977034
v -0.00540000 0.00450000 0.02650750
v -0.00381838 0.01080000 0.02977034
v -0.00000000 0.00450000 0.03112184
v -0.00381838 0.00450000 0.02977034
v -0.00000000 0.01080000 0.03112184
v 0.00381838 0.00450000 0.02977034
v 0.00381838 0.01080000 0.02977034
v 0.00381838 0.01080000 0.02977034
v 0.00540000 0.01080000 0.02650750
v 0.00540000 0.00450000 0.02650750
v 0.00381838 0.00450000 0.02977034
v 0.00540000 0.01080000 0.02650750
v 0.00381838 0.01080000 0.02324466
v 0.00381838 0.00450000 0.02324466
v 0.00540000 0.00450000 0.02650750
v -0.00898163 0.00450000 0.02324466
v -0.01280000 0.00450000 0.02189315
v -0.01661838 0.00450000 0.02324466
v -0.00740000 0.00450000 0.02650750
v -0.01820000 0.00450000 0.02650750
v -0.00898163 0.00450000 0.02977034
v -0.01661838 0.00450000 0.02977034
v -0.01280000 0.00450000 0.03112184
v -0.01280000 0.01080000 0.02189315
v -0.01661838 0.01080000 0.02324466
v -0.01661838 0.00450000 0.02324466
v -0.01280000 0.00450000 0.02189315
v -0.00898163 0.01080000 0.02324466
v -0.00898163 0.00450000 0.02324466
v -0.01661838 0.01080000 0.02324466
v -0.01820000 0.01080000 0.02650750
v -0.01820000 0.00450000 0.02650750
v -0.01661838 0.00450000 0.02324466
v -0.01820000 0.01080000 0.02650750
v -0.01661838 0.01080000 0.02977034
v -0.01661838 0.00450000 0.02977034
v -0.01820000 0.00450000 0.02650750
v -0.01661838 0.01080000 0.02977034
v -0.01280000 0.00450000 0.03112184
v -0.01661838 0.00450000 0.02977034
v -0.01280000 0.01080000 0.03112184
v -0.00898163 0.00450000 0.02977034
v -0.00898163 0.01080000 0.02977034
v -0.00898163 0.01080000 0.02977034
v -0.00740000 0.01080000 0.02650750
v -0.00740000 0.00450000 0.02650750
v -0.00898163 0.00450000 0.02977034
v -0.00740000 0.01080000 0.02650750
v -0.00898163 0.01080000 0.02324466
v -0.00898163 0.00450000 0.02324466
v -0.00740000 0.00450000 0.02650750
v 0.01671837 0.00450000 0.02324466
v 0.01290000 0.00450000 0.02189315
v 0.00908162 0.00450000 0.02324466
v 0.01830000 0.00450000 0.02650750
v 0.00750000 0.00450000 0.02650750
v 0.01671837 0.00450000 0.02977034
v 0.00908162 0.00450000 0.02977034
v 0.01290000 0.00450000 0.03112184
v 0.01290000 0.01080000 0.02189315
v 0.00908162 0.01080000 0.02324466
v 0.00908162 0.00450000 0.02324466
v 0.01290000 0.00450000 0.02189315
v 0.01671837 0.01080000 0.02324466
v 0.01671837 0.00450000 0.02324466
v 0.00908162 0.01080000 0.02324466
v 0.00750000 0.01080000 0.02650750
v 0.00750000 0.00450000 0.02650750
v 0.00908162 0.00450000 0.02324466
v 0.00750000 0.01080000 0.02650750
v 0.00908162 0.01080000 0.02977034
v 0.00908162 0.00450000 0.02977034
v 0.00750000 0.00450000 0.02650750
v 0.00908162 0.01080000 0.02977034
v 0.01290000 0.00450000 0.03112184
v 0.00908162 0.00450000 0.02977034
v 0.01290000 0.01080000 0.03112184
v 0.01671837 0.00450000 0.02977034
v 0.01671837 0.01080000 0.02977034
v 0.01671837 0.01080000 0.02977034
v 0.01830000 0.01080000 0.02650750
v 0.01830000 0.00450000 0.02650750
v 0.01671837 0.00450000 0.02977034
v 0.01830000 0.01080000 0.02650750
v 0.01671837 0.01080000 0.02324466
v 0.01671837 0.00450000 0.02324466
v 0.01830000 0.00450000 0.02650750
v 0.00381838 0.00450000 0.03464466
v -0.00000000 0.00450000 0.03329315
v -0.00381838 0.00450000 0.03464466
v 0.00540000 0.00450000 0.03790750
v -0.00540000 0.00450000 0.03790750
v 0.00381838 0.00450000 0.04117034
v -0.00381838 0.00450000 0.04117034
v -0.00000000 0.00450000 0.04252185
v -0.00000000 0.01080000 0.03329315
v -0.00381838 0.01080000 0.03464466
v -0.00381838 0.00450000 0.03464466
v -0.00000000 0.00450000 0.03329315
v 0.00381838 0.01080000 0.03464466
v 0.00381838 0.00450000 0.03464466
v -0.00381838 0.01080000 0.03464466
v -0.00540000 0.01080000 0.03790750
v -0.00540000 0.00450000 0.03790750
v -0.00381838 0.00450000 0.03464466
v -0.00540000 0.01080000 0.03790750
v -0.00381838 0.01080000 0.04117034
v -0.00381838 0.00450000 0.04117034
v -0.00540000 0.00450000 0.03790750
v -0.00381838 0.01080000 0.04117034
v -0.00000000 0.00450000 0.04252185
v -0.00381838 0.00450000 0.04117034
v -0.00000000 0.01080000 0.04252185
v 0.00381838 0.00450000 0.04117034
v 0.00381838 0.01080000 0.04117034
v 0.00381838 0.01080000 0.04117034
v 0.00540000 0.01080000 0.03790750
v 0.00540000 0.00450000 0.03790750
v 0.00381838 0.00450000 0.04117034
v 0.00540000 0.01080000 0.03790750
v 0.00381838 0.01080000 0.03464466
v 0.00381838 0.00450000 0.03464466
v 0.00540000 0.00450000 0.03790750
v -0.00898163 0.00450000 0.03464466
v -0.01280000 0.00450000 0.03329315
v -0.01661838 0.00450000 0.03464466
v -0.00740000 0.00450000 0.03790750
v -0.01820000 0.00450000 0.03790750
v -0.00898163 0.00450000 0.04117034
v -0.01661838 0.00450000 0.04117034
v -0.01280000 0.00450000 0.04252185
v -0.01280000 0.01080000 0.03329315
v -0.01661838 0.01080000 0.03464466
v -0.01661838 0.00450000 0.03464466
v -0.01280000 0.00450000 0.03329315
v -0.00898163 0.01080000 0.03464466
v -0.00898163 0.00450000 0.03464466
v -0.01661838 0.01080000 0.03464466
v -0.01820000 0.01080000 0.03790750
v -0.01820000 0.00450000 0.03790750
v -0.01661838 0.00450000 0.03464466
v -0.01820000 0.01080000 0.03790750
v -0.01661838 0.01080000 0.04117034
v -0.01661838 0.00450000 0.04117034
v -0.01820000 0.00450000 0.03790750
v -0.01661838 0.01080000 0.04117034
v -0.01280000 0.00450000 0.04252185
v -0.01661838 0.00450000 0.04117034
v -0.01280000 0.01080000 0.04252185
v -0.00898163 0.00450000 0.04117034
v -0.00898163 0.01080000 0.04117034
v -0.00898163 0.01080000 0.04117034
v -0.00740000 0.01080000 0.03790750
v -0.00740000 0.00450000 0.03790750
v -0.00898163 0.00450000 0.04117034
v -0.00740000 0.01080000 0.03790750
v -0.00898163 0.01080000 0.03464466
v -0.00898163 0.00450000 0.03464466
v -0.00740000 0.00450000 0.03790750
v 0.01671837 0.00450000 0.03464466
v 0.01290000 0.00450000 0.03329315
v 0.00908162 0.00450000 0.03464466
v 0.01830000 0.00450000 0.03790750
v 0.00750000 0.00450000 0.03790750
v 0.01671837 0.00450000 0.04117034
v 0.00908162 0.00450000 0.04117034
v 0.01290000 0.00450000 0.04252185
v 0.01290000 0.01080000 0.03329315
v 0.00908162 0.01080000 0.03464466
v 0.00908162 0.00450000 0.03464466
v 0.01290000 0.00450000 0.03329315
v 0.01671837 0.01080000 0.03464466
v 0.01671837 0.00450000 0.03464466
v 0.00908162 0.01080000 0.03464466
v 0.00750000 0.01080000 0.03790750
v 0.00750000 0.00450000 0.03790750
v 0.00908162 0.00450000 0.03464466
v 0.00750000 0.01080000 0.03790750
v 0.00908162 0.01080000 0.04117034
v 0.00908162 0.00450000 0.04117034
v 0.00750000 0.00450000 0.03790750
v 0.00908162 0.01080000 0.04117034
v 0.01290000 0.00450000 0.04252185
v 0.00908162 0.00450000 0.04117034
v 0.01290000 0.01080000 0.04252185
v 0.01671837 0.00450000 0.04117034
v 0.01671837 0.01080000 0.04117034
v 0.01671837 0.01080000 0.04117034
v 0.01830000 0.01080000 0.03790750
v 0.01830000 0.00450000 0.03790750
v 0.01671837 0.00450000 0.04117034
v 0.01830000 0.01080000 0.03790750
v 0.01671837 0.01080000 0.03464466
v 0.01671837 0.00450000 0.03464466
v 0.01830000 0.00450000 0.03790750
v 0.00381838 0.00450000 0.04654466
v -0.00000000 0.00450000 0.04519315
v -0.00381838 0.00450000 0.04654466
v 0.00540000 0.00450000 0.04980750
v -0.00540000 0.00450000 0.04980750
v 0.00381838 0.00450000 0.05307034
v -0.00381838 0.00450000 0.05307034
v -0.00000000 0.00450000 0.05442185
v -0.00000000 0.01080000 0.04519315
v -0.00381838 0.01080000 0.04654466
v -0.00381838 0.00450000 0.04654466
v -0.00000000 0.00450000 0.04519315
v 0.00381838 0.01080000 0.04654466
v 0.00381838 0.00450000 0.04654466
v -0.00381838 0.01080000 0.04654466
v -0.00540000 0.01080000 0.04980750
v -0.00540000 0.00450000 0.04980750
v -0.00381838 0.00450000 0.04654466
v -0.00540000 0.01080000 0.04980750
v -0.00381838 0.01080000 0.05307034
v -0.00381838 0.00450000 0.05307034
v -0.00540000 0.00450000 0.04980750
v -0.00381838 0.01080000 0.05307034
v -0.00000000 0.00450000 0.05442185
v -0.00381838 0.00450000 0.05307034
v -0.00000000 0.01080000 0.05442185
v 0.00381838 0.00450000 0.05307034
v 0.00381838 0.01080000 0.05307034
v 0.00381838 0.01080000 0.05307034
v 0.00540000 0.01080000 0.04980750
v 0.00540000 0.00450000 0.04980750
v 0.00381838 0.00450000 0.05307034
v 0.00540000 0.01080000 0.04980750
v 0.00381838 0.01080000 0.04654466
v 0.00381838 0.00450000 0.04654466
v 0.00540000 0.00450000 0.04980750
v -0.00898163 0.00450000 0.04654466
v -0.01280000 0.00450000 0.04519315
v -0.01661838 0.00450000 0.04654466
v -0.00740000 0.00450000 0.04980750
v -0.01820000 0.00450000 0.04980750
v -0.00898163 0.00450000 0.05307034
v -0.01661838 0.00450000 0.05307034
v -0.01280000 0.00450000 0.05442185
v -0.01280000 0.01080000 0.04519315
v -0.01661838 0.01080000 0.04654466
v -0.01661838 0.00450000 0.04654466
v -0.01280000 0.00450000 0.04519315
v -0.00898163 0.01080000 0.04654466
v -0.00898163 0.00450000 0.04654466
v -0.01661838 0.01080000 0.04654466
v -0.01820000 0.01080000 0.04980750
v -0.01820000 0.00450000 0.04980750
v -0.01661838 0.00450000 0.04654466
v -0.01820000 0.01080000 0.04980750
v -0.01661838 0.01080000 0.05307034
v -0.01661838 0.00450000 0.05307034
v -0.01820000 0.00450000 0.04980750
v -0.01661838 0.01080000 0.05307034
v -0.01280000 0.00450000 0.05442185
v -0.01661838 0.00450000 0.05307034
v -0.01280000 0.01080000 0.05442185
v -0.00898163 0.00450000 0.05307034
v -0.00898163 0.01080000 0.05307034
v -0.00898163 0.01080000 0.05307034
v -0.00740000 0.01080000 0.04980750
v -0.00740000 0.00450000 0.04980750
v -0.00898163 0.00450000 0.05307034
v -0.00740000 0.01080000 0.04980750
v -0.00898163 0.01080000 0.04654466
v -0.00898163 0.00450000 0.04654466
v -0.00740000 0.00450000 0.04980750
v 0.01671837 0.00450000 0.04654466
v 0.01290000 0.00450000 0.04519315
v 0.00908162 0.00450000 0.04654466
v 0.01830000 0.00450000 0.04980750
v 0.00750000 0.00450000 0.04980750
v 0.01671837 0.00450000 0.05307034
v 0.00908162 0.00450000 0.05307034
v 0.01290000 0.00450000 0.05442185
v 0.01290000 0.01080000 0.04519315
v 0.00908162 0.01080000 0.04654466
v 0.00908162 0.00450000 0.04654466
v 0.01290000 0.00450000 0.04519315
v 0.01671837 0.01080000 0.04654466
v 0.01671837 0.00450000 0.04654466
v 0.00908162 0.01080000 0.04654466
v 0.00750000 0.01080000 0.04980750
v 0.00750000 0.00450000 0.04980750
v 0.00908162 0.00450000 0.04654466
v 0.00750000 0.01080000 0.04980750
v 0.00908162 0.01080000 0.05307034
v 0.00908162 0.00450000 0.05307034
v 0.00750000 0.00450000 0.04980750
v 0.00908162 0.01080000 0.05307034
v 0.01290000 0.00450000 0.05442185
v 0.00908162 0.00450000 0.05307034
v 0.01290000 0.01080000 0.05442185
v 0.01671837 0.00450000 0.05307034
v 0.01671837 0.01080000 0.05307034
v 0.01671837 0.01080000 0.05307034
v 0.01830000 0.01080000 0.04980750
v 0.01830000 0.00450000 0.04980750
v 0.01671837 0.00450000 0.05307034
v 0.01830000 0.01080000 0.04980750
v 0.01671837 0.01080000 0.04654466
v 0.01671837 0.00450000 0.04654466
v 0.01830000 0.00450000 0.04980750
v 0.00381838 0.00450000 0.05834466
v -0.00000000 0.00450000 0.05699315
v -0.00381838 0.00450000 0.05834466
v 0.00540000 0.00450000 0.06160750
v -0.00540000 0.00450000 0.06160750
v 0.00381838 0.00450000 0.06487034
v -0.00381838 0.00450000 0.06487034
v -0.00000000 0.00450000 0.06622185
v -0.00000000 0.01080000 0.05699315
v -0.00381838 0.01080000 0.05834466
v -0.00381838 0.00450000 0.05834466
v -0.00000000 0.00450000 0.05699315
v 0.00381838 0.01080000 0.05834466
v 0.00381838 0.00450000 0.05834466
v -0.00381838 0.01080000 0.05834466
v -0.00540000 0.01080000 0.06160750
v -0.00540000 0.00450000 0.06160750
v -0.00381838 0.00450000 0.05834466
v -0.00540000 0.01080000 0.06160750
v -0.00381838 0.01080000 0.06487034
v -0.00381838 0.00450000 0.06487034
v -0.00540000 0.00450000 0.06160750
v -0.00381838 0.01080000 0.06487034
v -0.00000000 0.00450000 0.06622185
v -0.00381838 0.00450000 0.06487034
v -0.00000000 0.01080000 0.06622185
v 0.00381838 0.00450000 0.06487034
v 0.00381838 0.01080000 0.06487034
v 0.00381838 0.01080000 0.06487034
v 0.00540000 0.01080000 0.06160750
v 0.00540000 0.00450000 0.06160750
v 0.00381838 0.00450000 0.06487034
v 0.00540000 0.01080000 0.06160750
v 0.00381838 0.01080000 0.05834466
v 0.00381838 0.00450000 0.05834466
v 0.00540000 0.00450000 0.06160750
v -0.00898163 0.00450000 0.05834466
v -0.01280000 0.00450000 0.05699315
v -0.01661838 0.00450000 0.05834466
v -0.00740000 0.00450000 0.06160750
v -0.01820000 0.00450000 0.06160750
v -0.00898163 0.00450000 0.06487034
v -0.01661838 0.00450000 0.06487034
v -0.01280000 0.00450000 0.06622185
v -0.01280000 0.01080000 0.05699315
v -0.01661838 0.01080000 0.05834466
v -0.01661838 0.00450000 0.05834466
v -0.01280000 0.00450000 0.05699315
v -0.00898163 0.01080000 0.05834466
v -0.00898163 0.00450000 0.05834466
v -0.01661838 0.01080000 0.05834466
v -0.01820000 0.01080000 0.06160750
v -0.01820000 0.00450000 0.06160750
v -0.01661838 0.00450000 0.05834466
v -0.01820000 0.01080000 0.06160750
v -0.01661838 0.01080000 0.06487034
v -0.01661838 0.00450000 0.06487034
v -0.01820000 0.00450000 0.06160750
v -0.01661838 0.01080000 0.06487034
v -0.01280000 0.00450000 0.06622185
v -0.01661838 0.00450000 0.06487034
v -0.01280000 0.01080000 0.06622185
v -0.00898163 0.00450000 0.06487034
v -0.00898163 0.01080000 0.06487034
v -0.00898163 0.01080000 0.06487034
v -0.00740000 0.01080000 0.06160750
v -0.00740000 0.00450000 0.06160750
v -0.00898163 0.00450000 0.06487034
v -0.00740000 0.01080000 0.06160750
v -0.00898163 0.01080000 0.05834466
v -0.00898163 0.00450000 0.05834466
v -0.00740000 0.00450000 0.06160750
v 0.01671837 0.00450000 0.05834466
v 0.01290000 0.00450000 0.05699315
v 0.00908162 0.00450000 0.05834466
v 0.01830000 0.00450000 0.06160750
v 0.00750000 0.00450000 0.06160750
v 0.01671837 0.00450000 0.06487034
v 0.00908162 0.00450000 0.06487034
v 0.01290000 0.00450000 0.06622185
v 0.01290000 0.01080000 0.05699315
v 0.00908162 0.01080000 0.05834466
v 0.00908162 0.00450000 0.05834466
v 0.01290000 0.00450000 0.05699315
v 0.01671837 0.01080000 0.05834466
v 0.01671837 0.00450000 0.05834466
v 0.00908162 0.01080000 0.05834466
v 0.00750000 0.01080000 0.06160750
v 0.00750000 0.00450000 0.06160750
v 0.00908162 0.00450000 0.05834466
v 0.00750000 0.01080000 0.06160750
v 0.00908162 0.01080000 0.06487034
v 0.00908162 0.00450000 0.06487034
v 0.00750000 0.00450000 0.06160750
v 0.00908162 0.01080000 0.06487034
v 0.01290000 0.00450000 0.06622185
v 0.00908162 0.00450000 0.06487034
v 0.01290000 0.01080000 0.06622185
v 0.01671837 0.00450000 0.06487034
v 0.01671837 0.01080000 0.06487034
v 0.01671837 0.01080000 0.06487034
v 0.01830000 0.01080000 0.06160750
v 0.01830000 0.00450000 0.06160750
v 0.01671837 0.00450000 0.06487034
v 0.01830000 0.01080000 0.06160750
v 0.01671837 0.01080000 0.05834466
v 0.01671837 0.00450000 0.05834466
v 0.01830000 0.00450000 0.06160750
v -0.00000000 0.01080000 0.02189315
v -0.00000000 0.01180000 0.02338887
v -0.00280212 0.01180000 0.02438067
v 0.00381838 0.01080000 0.02324466
v -0.00381838 0.01080000 0.02324466
v 0.00280212 0.01180000 0.02438067
v 0.00540000 0.01080000 0.02650750
v -0.00383308 0.01180000 0.02650750
v -0.00540000 0.01080000 0.02650750
v 0.00383308 0.01180000 0.02650750
v 0.00381838 0.01080000 0.02977034
v -0.00280212 0.01180000 0.02863432
v -0.00381838 0.01080000 0.02977034
v 0.00280212 0.01180000 0.02863432
v -0.00000000 0.01080000 0.03112184
v -0.00000000 0.01180000 0.02962613
v -0.01280000 0.01080000 0.02189315
v -0.01280000 0.01180000 0.02338887
v -0.01560212 0.01180000 0.02438067
v -0.00898163 0.01080000 0.02324466
v -0.01661838 0.01080000 0.02324466
v -0.00999788 0.01180000 0.02438067
v -0.00740000 0.01080000 0.02650750
v -0.01663308 0.01180000 0.02650750
v -0.01820000 0.01080000 0.02650750
v -0.00896692 0.01180000 0.02650750
v -0.00898163 0.01080000 0.02977034
v -0.01560212 0.01180000 0.02863432
v -0.01661838 0.01080000 0.02977034
v -0.00999788 0.01180000 0.02863432
v -0.01280000 0.01080000 0.03112184
v -0.01280000 0.01180000 0.02962613
v 0.01290000 0.01080000 0.02189315
v 0.01290000 0.01180000 0.02338887
v 0.01009788 0.01180000 0.02438067
v 0.01671837 0.01080000 0.02324466
v 0.00908162 0.01080000 0.02324466
v 0.01570212 0.01180000 0.02438067
v 0.01830000 0.01080000 0.02650750
v 0.00906692 0.01180000 0.02650750
v 0.00750000 0.01080000 0.02650750
v 0.01673308 0.01180000 0.02650750
v 0.01671837 0.01080000 0.02977034
v 0.01009788 0.01180000 0.02863432
v 0.00908162 0.01080000 0.02977034
v 0.01570212 0.01180000 0.02863432
v 0.01290000 0.01080000 0.03112184
v 0.01290000 0.01180000 0.02962613
v -0.00000000 0.01080000 0.03329315
v -0.00000000 0.01180000 0.03478887
v -0.00280212 0.01180000 0.03578068
v 0.00381838 0.01080000 0.03464466
v -0.00381838 0.01080000 0.03464466
v 0.00280212 0.01180000 0.03578068
v 0.00540000 0.01080000 0.03790750
v -0.00383308 0.01180000 0.03790750
v -0.00540000 0.01080000 0.03790750
v 0.00383308 0.01180000 0.03790750
v 0.00381838 0.01080000 0.04117034
v -0.00280212 0.01180000 0.04003432
v -0.00381838 0.01080000 0.04117034
v 0.00280212 0.01180000 0.04003432
v -0.00000000 0.01080000 0.04252185
v -0.00000000 0.01180000 0.04102613
v -0.01280000 0.01080000 0.03329315
v -0.01280000 0.01180000 0.03478887
v -0.01560212 0.01180000 0.03578068
v -0.00898163 0.01080000 0.03464466
v -0.01661838 0.01080000 0.03464466
v -0.00999788 0.01180000 0.03578068
v -0.00740000 0.01080000 0.03790750
v -0.01663308 0.01180000 0.03790750
v -0.01820000 0.01080000 0.03790750
v -0.00896692 0.01180000 0.03790750
v -0.00898163 0.01080000 0.04117034
v -0.01560212 0.01180000 0.04003432
v -0.01661838 0.01080000 0.04117034
v -0.00999788 0.01180000 0.04003432
v -0.01280000 0.01080000 0.04252185
v -0.01280000 0.01180000 0.04102613
v 0.01290000 0.01080000 0.03329315
v 0.01290000 0.01180000 0.03478887
v 0.01009788 0.01180000 0.03578068
v 0.01671837 0.01080000 0.03464466
v 0.00908162 0.01080000 0.03464466
v 0.01570212 0.01180000 0.03578068
v 0.01830000 0.01080000 0.03790750
v 0.00906692 0.01180000 0.03790750
v 0.00750000 0.01080000 0.03790750
v 0.01673308 0.01180000 0.03790750
v 0.01671837 0.01080000 0.04117034
v 0.01009788 0.01180000 0.04003432
v 0.00908162 0.01080000 0.04117034
v 0.01570212 0.01180000 0.04003432
v 0.01290000 0.01080000 0.04252185
v 0.01290000 0.01180000 0.04102613
v -0.00000000 0.01080000 0.04519315
v -0.00000000 0.01180000 0.04668887
v -0.00280212 0.01180000 0.04768067
v 0.00381838 0.01080000 0.04654466
v -0.00381838 0.01080000 0.04654466
v 0.00280212 0.01180000 0.04768067
v 0.00540000 0.01080000 0.04980750
v -0.00383308 0.01180000 0.04980750
v -0.00540000 0.01080000 0.04980750
v 0.00383308 0.01180000 0.04980750
v 0.00381838 0.01080000 0.05307034
v -0.00280212 0.01180000 0.05193432
v -0.00381838 0.01080000 0.05307034
v 0.00280212 0.01180000 0.05193432
v -0.00000000 0.01080000 0.05442185
v -0.00000000 0.01180000 0.05292613
v -0.01280000 0.01080000 0.04519315
v -0.01280000 0.01180000 0.04668887
v -0.01560212 0.01180000 0.04768067
v -0.00898163 0.01080000 0.04654466
v -0.01661838 0.01080000 0.04654466
v -0.00999788 0.01180000 0.04768067
v -0.00740000 0.01080000 0.04980750
v -0.01663308 0.01180000 0.04980750
v -0.01820000 0.01080000 0.04980750
v -0.00896692 0.01180000 0.04980750
v -0.00898163 0.01080000 0.05307034
v -0.01560212 0.01180000 0.05193432
v -0.01661838 0.01080000 0.05307034
v -0.00999788 0.01180000 0.05193432
v -0.01280000 0.01080000 0.05442185
v -0.01280000 0.01180000 0.05292613
v 0.01290000 0.01080000 0.04519315
v 0.01290000 0.01180000 0.04668887
v 0.01009788 0.01180000 0.04768067
v 0.01671837 0.01080000 0.04654466
v 0.00908162 0.01080000 0.04654466
v 0.01570212 0.01180000 0.04768067
v 0.01830000 0.01080000 0.04980750
v 0.00906692 0.01180000 0.04980750
v 0.00750000 0.01080000 0.04980750
v 0.01673308 0.01180000 0.04980750
v 0.01671837 0.01080000 0.05307034
v 0.01009788 0.01180000 0.05193432
v 0.00908162 0.01080000 0.05307034
v 0.01570212 0.01180000 0.05193432
v 0.01290000 0.01080000 0.05442185
v 0.01290000 0.01180000 0.05292613
v -0.00000000 0.01080000 0.05699315
v -0.00000000 0.01180000 0.05848886
v -0.00280212 0.01180000 0.05948067
v 0.00381838 0.01080000 0.05834466
v -0.00381838 0.01080000 0.05834466
v 0.00280212 0.01180000 0.05948067
v 0.00540000 0.01080000 0.06160750
v -0.00383308 0.01180000 0.06160750
v -0.00540000 0.01080000 0.06160750
v 0.00383308 0.01180000 0.06160750
v 0.00381838 0.01080000 0.06487034
v -0.00280212 0.01180000 0.06373432
v -0.00381838 0.01080000 0.06487034
v 0.00280212 0.01180000 0.06373432
v -0.00000000 0.01080000 0.06622185
v -0.00000000 0.01180000 0.06472613
v -0.01280000 0.01080000 0.05699315
v -0.01280000 0.01180000 0.05848886
v -0.01560212 0.01180000 0.05948067
v -0.00898163 0.01080000 0.05834466
v -0.01661838 0.01080000 0.05834466
v -0.00999788 0.01180000 0.05948067
v -0.00740000 0.01080000 0.06160750
v -0.01663308 0.01180000 0.06160750
v -0.01820000 0.01080000 0.06160750
v -0.00896692 0.01180000 0.06160750
v -0.00898163 0.01080000 0.06487034
v -0.01560212 0.01180000 0.06373432
v -0.01661838 0.01080000 0.06487034
v -0.00999788 0.01180000 0.06373432
v -0.01280000 0.01080000 0.06622185
v -0.01280000 0.01180000 0.06472613
v 0.01290000 0.01080000 0.05699315
v 0.01290000 0.01180000 0.05848886
v 0.01009788 0.01180000 0.05948067
v 0.01671837 0.01080000 0.05834466
v 0.00908162 0.01080000 0.05834466
v 0.01570212 0.01180000 0.05948067
v 0.01830000 0.01080000 0.06160750
v 0.00906692 0.01180000 0.06160750
v 0.00750000 0.01080000 0.06160750
v 0.01673308 0.01180000 0.06160750
v 0.01671837 0.01080000 0.06487034
v 0.01009788 0.01180000 0.06373432
v 0.00908162 0.01080000 0.06487034
v 0.01570212 0.01180000 0.06373432
v 0.01290000 0.01080000 0.06622185
v 0.01290000 0.01180000 0.06472613
vn 0.00000000 -1.00000000 0.00000000
vn 0.00000000 -1.00000000 0.00000000
vn 0.00000000 -1.00000000 0.00000000
vn 0.00000000 -1.00000000 0.00000000
vn 0.00000000 -1.00000000 0.00000000
vn 0.00000000 -1.00000000 0.00000000
vn 0.00000000 -1.00000000 0.00000000
vn 0.00000000 -1.00000000 0.00000000
vn 0.00000000 0.00000000 -1.00000000
vn -0.33366420 0.00000000 -0.94269200
vn -0.33366420 0.00000000 -0.94269200
vn 0.00000000 0.00000000 -1.00000000
vn 0.33366410 0.00000000 -0.94269200
vn 0.33366410 0.00000000 -0.94269200
vn -0.89985300 0.00000000 -0.43619330
vn -0.89985300 0.00000000 -0.43619330
vn -0.89985300 0.00000000 -0.43619330
vn -0.89985300 0.00000000 -0.43619330
vn -0.89985300 0.00000000 0.43619330
vn -0.89985300 0.00000000 0.43619330
vn -0.89985300 0.00000000 0.43619330
vn -0.89985300 0.00000000 0.43619330
vn -0.33366420 0.00000000 0.94269200
vn 0.00000000 0.00000000 1.00000000
vn -0.33366420 0.00000000 0.94269200
vn 0.00000000 0.00000000 1.00000000
vn 0.33366410 0.00000000 0.94269200
vn 0.33366410 0.00000000 0.94269200
vn 0.89985290 0.00000000 0.43619330
vn 0.89985290 0.00000000 0.43619330
vn 0.89985290 0.00000000 0.43619330
vn 0.89985290 0.00000000 0.43619330
vn 0.89985290 0.00000000 -0.43619330
vn 0.89985290 0.00000000 -0.43619330
vn 0.89985290 0.00000000 -0.43619330
vn 0.89985290 0.00000000 -0.43619330
vn 0.00000000 -1.00000000 0.00000000
vn 0.00000000 -1.00000000 0.00000000
vn 0.00000000 -1.00000000 0.00000000
vn 0.00000000 -1.00000000 0.00000000
vn 0.00000000 -1.00000000 0.00000000
vn 0.00000000 -1.00000000 0.00000000
vn 0.00000000 -1.00000000 0.00000000
vn 0.00000000 -1.00000000 0.00000000
vn 0.00000000 0.00000000 -1.00000000
vn -0.33366420 0.00000000 -0.94269200
vn -0.33366420 0.00000000 -0.94269200
vn 0.00000000 0.00000000 -1.00000000
vn 0.33366410 0.00000000 -0.94269200
vn 0.33366410 0.00000000 -0.94269200
vn -0.89985290 0.00000000 -0.43619330
vn -0.89985290 0.00000000 -0.43619330
vn -0.89985290 0.00000000 -0.43619330
vn -0.89985290 0.00000000 -0.43619330
vn -0.89985290 0.00000000 0.43619330
vn -0.89985290 0.00000000 0.43619330
vn -0.89985290 0.00000000 0.43619330
vn -0.89985290 0.00000000 0.43619330
vn -0.33366420 0.00000000 0.94269200
vn 0.00000000 0.00000000 1.00000000
vn -0.33366420 0.00000000 0.94269200
vn 0.00000000 0.00000000 1.00000000
vn 0.33366410 0.00000000 0.94269200
vn 0.33366410 0.00000000 0.94269200
vn 0.89985300 0.00000000 0.43619330
vn 0.89985300 0.00000000 0.43619330
vn 0.89985300 0.00000000 0.43619330
vn 0.89985300 0.00000000 0.43619330
vn 0.89985300 0.00000000 -0.43619330
vn 0.89985300 0.00000000 -0.43619330
vn 0.89985300 0.00000000 -0.43619330
vn 0.89985300 0.00000000 -0.43619330
vn 0.00000000 -1.00000000 0.00000000
vn 0.00000000 -1.00000000 0.00000000
vn 0.00000000 -1.00000000 0.00000000
vn 0.00000000 -1.00000000 0.00000000
vn 0.00000000 -1.00000000 0.00000000
vn 0.00000000 -1.00000000 0.00000000
vn 0.00000000 -1.00000000 0.00000000
vn 0.00000000 -1.00000000 0.00000000
vn 0.00000000 0.00000000 -1.00000000
vn -0.33366420 0.00000000 -0.94269200
vn -0.33366420 0.00000000 -0.94269200
vn 0.00000000 0.00000000 -1.00000000
vn 0.33366420 0.00000000 -0.94269200
vn 0.33366420 0.00000000 -0.94269200
vn -0.89985290 0.00000000 -0.43619330
vn -0.89985290 0.00000000 -0.43619330
vn -0.89985290 0.00000000 -0.43619330
vn -0.89985290 0.00000000 -0.43619330
vn -0.89985290 0.00000000 0.43619330
vn -0.89985290 0.00000000 0.43619330
vn -0.89985290 0.00000000 0.43619330
vn -0.89985290 0.00000000 0.43619330
vn -0.33366420 0.00000000 0.94269200
vn 0.00000000 0.00000000 1.00000000
vn -0.33366420 0.00000000 0.94269200
vn 0.00000000 0.00000000 1.00000000
vn 0.33366420 0.00000000 0.94269200
vn 0.33366420 0.00000000 0.94269200
vn 0.89985290 0.00000000 0.43619330
vn 0.89985290 0.00000000 0.43619330
vn 0.89985290 0.00000000 0.43619330
vn 0.89985290 0.00000000 0.43619330
vn 0.89985290 0.00000000 -0.43619330
vn 0.89985290 0.00000000 -0.43619330
vn 0.89985290 0.00000000 -0.43619330
vn 0.89985290 0.00000000 -0.43619330
vn 0.00000000 -1.00000000 0.00000000
vn 0.00000000 -1.00000000 0.00000000
vn 0.00000000 -1.00000000 0.00000000
vn 0.00000000 -1.00000000 0.00000000
vn 0.00000000 -1.00000000 0.00000000
vn 0.00000000 -1.00000000 0.00000000
vn 0.00000000 -1.00000000 0.00000000
vn 0.00000000 -1.00000000 0.00000000
vn 0.00000000 0.00000000 -1.00000000
vn -0.33366470 0.00000000 -0.94269180
vn -0.33366470 0.00000000 -0.94269180
vn 0.00000000 0.00000000 -1.00000000
vn 0.33366460 0.00000000 -0.94269190
vn 0.33366460 0.00000000 -0.94269190
vn -0.89985300 0.00000000 -0.43619330
vn -0.89985300 0.00000000 -0.43619330
vn -0.89985300 0.00000000 -0.43619330
vn -0.89985300 0.00000000 -0.43619330
vn -0.89985300 0.00000000 0.43619330
vn -0.89985300 0.00000000 0.43619330
vn -0.89985300 0.00000000 0.43619330
vn -0.89985300 0.00000000 0.43619330
vn -0.33366470 0.00000000 0.94269180
vn 0.00000000 0.00000000 1.00000000
vn -0.33366470 0.00000000 0.94269180
vn 0.00000000 0.00000000 1.00000000
vn 0.33366460 0.00000000 0.94269190
vn 0.33366460 0.00000000 0.94269190
vn 0.89985290 0.00000000 0.43619330
vn 0.89985290 0.00000000 0.43619330
vn 0.89985290 0.00000000 0.43619330
vn 0.89985290 0.00000000 0.43619330
vn 0.89985290 0.00000000 -0.43619330
vn 0.89985290 0.00000000 -0.43619330
vn 0.89985290 0.00000000 -0.43619330
vn 0.89985290 0.00000000 -0.43619330
vn 0.00000000 -1.00000000 0.00000000
vn 0.00000000 -1.00000000 0.00000000
vn 0.00000000 -1.00000000 0.00000000
vn 0.00000000 -1.00000000 0.00000000
vn 0.00000000 -1.00000000 0.00000000
vn 0.00000000 -1.00000000 0.00000000
vn 0.00000000 -1.00000000 0.00000000
vn 0.00000000 -1.00000000 0.00000000
vn 0.00000000 0.00000000 -1.00000000
vn -0.33366470 0.00000000 -0.94269180
vn -0.33366470 0.00000000 -0.94269180
vn 0.00000000 0.00000000 -1.00000000
vn 0.33366450 0.00000000 -0.94269190
vn 0.33366450 0.00000000 -0.94269190
vn -0.89985290 0.00000000 -0.43619330
vn -0.89985290 0.00000000 -0.43619330
vn -0.89985290 0.00000000 -0.43619330
vn -0.89985290 0.00000000 -0.43619330
vn -0.89985290 0.00000000 0.43619330
vn -0.89985290 0.00000000 0.43619330
vn -0.89985290 0.00000000 0.43619330
vn -0.89985290 0.00000000 0.43619330
vn -0.33366470 0.00000000 0.94269180
vn 0.00000000 0.00000000 1.00000000
vn -0.33366470 0.00000000 0.94269180
vn 0.00000000 0.00000000 1.00000000
vn 0.33366450 0.00000000 0.94269190
vn 0.33366450 0.00000000 0.94269190
vn 0.89985300 0.00000000 0.43619330
vn 0.89985300 0.00000000 0.43619330
vn 0.89985300 0.00000000 0.43619330
vn 0.89985300 0.00000000 0.43619330
vn 0.89985300 0.00000000 -0.43619330
vn 0.89985300 0.00000000 -0.43619330
vn 0.89985300 0.00000000 -0.43619330
vn 0.89985300 0.00000000 -0.43619330
vn 0.00000000 -1.00000000 0.00000000
vn 0.00000000 -1.00000000 0.00000000
vn 0.00000000 -1.00000000 0.00000000
vn 0.00000000 -1.00000000 0.00000000
vn 0.00000000 -1.00000000 0.00000000
vn 0.00000000 -1.00000000 0.00000000
vn 0.00000000 -1.00000000 0.00000000
vn 0.00000000 -1.00000000 0.00000000
vn 0.00000000 0.00000000 -1.00000000
vn -0.33366470 0.00000000 -0.94269180
vn -0.33366470 0.00000000 -0.94269180
vn 0.00000000 0.00000000 -1.00000000
vn 0.33366460 0.00000000 -0.94269190
vn 0.33366460 0.00000000 -0.94269190
vn -0.89985290 0.00000000 -0.43619330
vn -0.89985290 0.00000000 -0.43619330
vn -0.89985290 0.00000000 -0.43619330
vn -0.89985290 0.00000000 -0.43619330
vn -0.89985290 0.00000000 0.43619330
vn -0.89985290 0.00000000 0.43619330
vn -0.89985290 0.00000000 0.43619330
vn -0.89985290 0.00000000 0.43619330
vn -0.33366470 0.00000000 0.94269180
vn 0.00000000 0.00000000 1.00000000
vn -0.33366470 0.00000000 0.94269180
vn 0.00000000 0.00000000 1.00000000
vn 0.33366460 0.00000000 0.94269190
vn 0.33366460 0.00000000 0.94269190
vn 0.89985290 0.00000000 0.43619330
vn 0.89985290 0.00000000 0.43619330
vn 0.89985290 0.00000000 0.43619330
vn 0.89985290 0.00000000 0.43619330
vn 0.89985290 0.00000000 -0.43619330
vn 0.89985290 0.00000000 -0.43619330
vn 0.89985290 0.00000000 -0.43619330
vn 0.89985290 0.00000000 -0.43619330
vn 0.00000000 -1.00000000 0.00000000
vn 0.00000000 -1.00000000 0.00000000
vn 0.00000000 -1.00000000 0.00000000
vn 0.00000000 -1.00000000 0.00000000
vn 0.00000000 -1.00000000 0.00000000
vn 0.00000000 -1.00000000 0.00000000
vn 0.00000000 -1.00000000 0.00000000
vn 0.00000000 -1.00000000 0.00000000
vn 0.00000000 0.00000000 -1.00000000
vn -0.33366470 0.00000000 -0.94269180
vn -0.33366470 0.00000000 -0.94269180
vn 0.00000000 0.00000000 -1.00000000
vn 0.33366460 0.00000000 -0.94269190
vn 0.33366460 0.00000000 -0.94269190
vn -0.89985300 0.00000000 -0.43619330
vn -0.89985300 0.00000000 -0.43619330
vn -0.89985300 0.00000000 -0.43619330
vn -0.89985300 0.00000000 -0.43619330
vn -0.89985300 0.00000000 0.43619330
vn -0.89985300 0.00000000 0.43619330
vn -0.89985300 0.00000000 0.43619330
vn -0.89985300 0.00000000 0.43619330
vn -0.33366470 0.00000000 0.94269180
vn 0.00000000 0.00000000 1.00000000
vn -0.33366470 0.00000000 0.94269180
vn 0.00000000 0.00000000 1.00000000
vn 0.33366460 0.00000000 0.94269190
vn 0.33366460 0.00000000 0.94269190
vn 0.89985290 0.00000000 0.43619330
vn 0.89985290 0.00000000 0.43619330
vn 0.89985290 0.00000000 0.43619330
vn 0.89985290 0.00000000 0.43619330
vn 0.89985290 0.00000000 -0.43619330
vn 0.89985290 0.00000000 -0.43619330
vn 0.89985290 0.00000000 -0.43619330
vn 0.89985290 0.00000000 -0.43619330
vn 0.00000000 -1.00000000 0.00000000
vn 0.00000000 -1.00000000 0.00000000
vn 0.00000000 -1.00000000 0.00000000
vn 0.00000000 -1.00000000 0.00000000
vn 0.00000000 -1.00000000 0.00000000
vn 0.00000000 -1.00000000 0.00000000
vn 0.00000000 -1.00000000 0.00000000
vn 0.00000000 -1.00000000 0.00000000
vn 0.00000000 0.00000000 -1.00000000
vn -0.33366470 0.00000000 -0.94269180
vn -0.33366470 0.00000000 -0.94269180
vn 0.00000000 0.00000000 -1.00000000
vn 0.33366450 0.00000000 -0.94269190
vn 0.33366450 0.00000000 -0.94269190
vn -0.89985290 0.00000000 -0.43619330
vn -0.89985290 0.00000000 -0.43619330
vn -0.89985290 0.00000000 -0.43619330
vn -0.89985290 0.00000000 -0.43619330
vn -0.89985290 0.00000000 0.43619330
vn -0.89985290 0.00000000 0.43619330
vn -0.89985290 0.00000000 0.43619330
vn -0.89985290 0.00000000 0.43619330
vn -0.33366470 0.00000000 0.94269180
vn 0.00000000 0.00000000 1.00000000
vn -0.33366470 0.00000000 0.94269180
vn 0.00000000 0.00000000 1.00000000
vn 0.33366450 0.00000000 0.94269190
vn 0.33366450 0.00000000 0.94269190
vn 0.89985300 0.00000000 0.43619330
vn 0.89985300 0.00000000 0.43619330
vn 0.89985300 0.00000000 0.43619330
vn 0.89985300 0.00000000 0.43619330
vn 0.89985300 0.00000000 -0.43619330
vn 0.89985300 0.00000000 -0.43619330
vn 0.89985300 0.00000000 -0.43619330
vn 0.89985300 0.00000000 -0.43619330
vn 0.00000000 -1.00000000 0.00000000
vn 0.00000000 -1.00000000 0.00000000
vn 0.00000000 -1.00000000 0.00000000
vn 0.00000000 -1.00000000 0.00000000
vn 0.00000000 -1.00000000 0.00000000
vn 0.00000000 -1.00000000 0.00000000
vn 0.00000000 -1.00000000 0.00000000
vn 0.00000000 -1.00000000 0.00000000
vn 0.00000000 0.00000000 -1.00000000
vn -0.33366470 0.00000000 -0.94269180
vn -0.33366470 0.00000000 -0.94269180
vn 0.00000000 0.00000000 -1.00000000
vn 0.33366460 0.00000000 -0.94269190
vn 0.33366460 0.00000000 -0.94269190
vn -0.89985290 0.00000000 -0.43619330
vn -0.89985290 0.00000000 -0.43619330
vn -0.89985290 0.00000000 -0.43619330
vn -0.89985290 0.00000000 -0.43619330
vn -0.89985290 0.00000000 0.43619330
vn -0.89985290 0.00000000 0.43619330
vn -0.89985290 0.00000000 0.43619330
vn -0.89985290 0.00000000 0.43619330
vn -0.33366470 0.00000000 0.94269180
vn 0.00000000 0.00000000 1.00000000
vn -0.33366470 0.00000000 0.94269180
vn 0.00000000 0.00000000 1.00000000
vn 0.33366460 0.00000000 0.94269190
vn 0.33366460 0.00000000 0.94269190
vn 0.89985290 0.00000000 0.43619330
vn 0.89985290 0.00000000 0.43619330
vn 0.89985290 0.00000000 0.43619330
vn 0.89985290 0.00000000 0.43619330
vn 0.89985290 0.00000000 -0.43619330
vn 0.89985290 0.00000000 -0.43619330
vn 0.89985290 0.00000000 -0.43619330
vn 0.89985290 0.00000000 -0.43619330
vn 0.00000000 -1.00000000 0.00000000
vn 0.00000000 -1.00000000 0.00000000
vn 0.00000000 -1.00000000 0.00000000
vn 0.00000000 -1.00000000 0.00000000
vn 0.00000000 -1.00000000 0.00000000
vn 0.00000000 -1.00000000 0.00000000
vn 0.00000000 -1.00000000 0.00000000
vn 0.00000000 -1.00000000 0.00000000
vn 0.00000000 0.00000000 -1.00000000
vn -0.33366470 0.00000000 -0.94269180
vn -0.33366470 0.00000000 -0.94269180
vn 0.00000000 0.00000000 -1.00000000
vn 0.33366460 0.00000000 -0.94269190
vn 0.33366460 0.00000000 -0.94269190
vn -0.89985300 0.00000000 -0.43619330
vn -0.89985300 0.00000000 -0.43619330
vn -0.89985300 0.00000000 -0.43619330
vn -0.89985300 0.00000000 -0.43619330
vn -0.89985280 0.00000000 0.43619360
vn -0.89985280 0.00000000 0.43619360
vn -0.89985280 0.00000000 0.43619360
vn -0.89985280 0.00000000 0.43619360
vn -0.33366550 0.00000000 0.94269150
vn 0.00000000 0.00000000 1.00000000
vn -0.33366550 0.00000000 0.94269150
vn 0.00000000 0.00000000 1.00000000
vn 0.33366530 0.00000000 0.94269160
vn 0.33366530 0.00000000 0.94269160
vn 0.89985280 0.00000000 0.43619380
vn 0.89985280 0.00000000 0.43619380
vn 0.89985280 0.00000000 0.43619380
vn 0.89985280 0.00000000 0.43619380
vn 0.89985290 0.00000000 -0.43619330
vn 0.89985290 0.00000000 -0.43619330
vn 0.89985290 0.00000000 -0.43619330
vn 0.89985290 0.00000000 -0.43619330
vn 0.00000000 -1.00000000 0.00000000
vn 0.00000000 -1.00000000 0.00000000
vn 0.00000000 -1.00000000 0.00000000
vn 0.00000000 -1.00000000 0.00000000
vn 0.00000000 -1.00000000 0.00000000
vn 0.00000000 -1.00000000 0.00000000
vn 0.00000000 -1.00000000 0.00000000
vn 0.00000000 -1.00000000 0.00000000
vn 0.00000000 0.00000000 -1.00000000
vn -0.33366470 0.00000000 -0.94269180
vn -0.33366470 0.00000000 -0.94269180
vn 0.00000000 0.00000000 -1.00000000
vn 0.33366450 0.00000000 -0.94269190
vn 0.33366450 0.00000000 -0.94269190
vn -0.89985290 0.00000000 -0.43619330
vn -0.89985290 0.00000000 -0.43619330
vn -0.89985290 0.00000000 -0.43619330
vn -0.89985290 0.00000000 -0.43619330
vn -0.89985280 0.00000000 0.43619380
vn -0.89985280 0.00000000 0.43619380
vn -0.89985280 0.00000000 0.43619380
vn -0.89985280 0.00000000 0.43619380
vn -0.33366550 0.00000000 0.94269150
vn 0.00000000 0.00000000 1.00000000
vn -0.33366550 0.00000000 0.94269150
vn 0.00000000 0.00000000 1.00000000
vn 0.33366530 0.00000000 0.94269160
vn 0.33366530 0.00000000 0.94269160
vn 0.89985280 0.00000000 0.43619360
vn 0.89985280 0.00000000 0.43619360
vn 0.89985280 0.00000000 0.43619360
vn 0.89985280 0.00000000 0.43619360
vn 0.89985300 0.00000000 -0.43619330
vn 0.89985300 0.00000000 -0.43619330
vn 0.89985300 0.00000000 -0.43619330
vn 0.89985300 0.00000000 -0.43619330
vn 0.00000000 -1.00000000 0.00000000
vn 0.00000000 -1.00000000 0.00000000
vn 0.00000000 -1.00000000 0.00000000
vn 0.00000000 -1.00000000 0.00000000
vn 0.00000000 -1.00000000 0.00000000
vn 0.00000000 -1.00000000 0.00000000
vn 0.00000000 -1.00000000 0.00000000
vn 0.00000000 -1.00000000 0.00000000
vn 0.00000000 0.00000000 -1.00000000
vn -0.33366470 0.00000000 -0.94269180
vn -0.33366470 0.00000000 -0.94269180
vn 0.00000000 0.00000000 -1.00000000
vn 0.33366460 0.00000000 -0.94269190
vn 0.33366460 0.00000000 -0.94269190
vn -0.89985290 0.00000000 -0.43619330
vn -0.89985290 0.00000000 -0.43619330
vn -0.89985290 0.00000000 -0.43619330
vn -0.89985290 0.00000000 -0.43619330
vn -0.89985280 0.00000000 0.43619380
vn -0.89985280 0.00000000 0.43619380
vn -0.89985280 0.00000000 0.43619380
vn -0.89985280 0.00000000 0.43619380
vn -0.33366550 0.00000000 0.94269150
vn 0.00000000 0.00000000 1.00000000
vn -0.33366550 0.00000000 0.94269150
vn 0.00000000 0.00000000 1.00000000
vn 0.33366540 0.00000000 0.94269160
vn 0.33366540 0.00000000 0.94269160
vn 0.89985280 0.00000000 0.43619380
vn 0.89985280 0.00000000 0.43619380
vn 0.89985280 0.00000000 0.43619380
vn 0.89985280 0.00000000 0.43619380
vn 0.89985290 0.00000000 -0.43619330
vn 0.89985290 0.00000000 -0.43619330
vn 0.89985290 0.00000000 -0.43619330
vn 0.89985290 0.00000000 -0.43619330
vn 0.00000000 0.83131710 -0.55579850
vn 0.00000000 0.92378710 -0.38290650
vn -0.25120120 0.92630800 -0.28080480
vn 0.36573280 0.83611860 -0.40883400
vn -0.36573280 0.83611860 -0.40883390
vn 0.25120120 0.92630800 -0.28080490
vn 0.53797300 0.84296210 0.00000000
vn -0.36790950 0.92986160 0.00000000
vn -0.53797310 0.84296210 0.00000000
vn 0.36790950 0.92986160 0.00000000
vn 0.36573280 0.83611860 0.40883390
vn -0.25120120 0.92630800 0.28080490
vn -0.36573300 0.83611860 0.40883400
vn 0.25120120 0.92630800 0.28080480
vn 0.00000000 0.83131710 0.55579850
vn 0.00000000 0.92378710 0.38290650
vn 0.00000000 0.83131700 -0.55579850
vn 0.00000000 0.92378710 -0.38290660
vn -0.25120120 0.92630800 -0.28080490
vn 0.36573280 0.83611860 -0.40883400
vn -0.36573290 0.83611860 -0.40883400
vn 0.25120120 0.92630800 -0.28080490
vn 0.53797310 0.84296210 0.00000000
vn -0.36790960 0.92986160 0.00000000
vn -0.53797310 0.84296200 0.00000000
vn 0.36790950 0.92986160 0.00000000
vn 0.36573290 0.83611860 0.40883390
vn -0.25120120 0.92630800 0.28080490
vn -0.36573300 0.83611850 0.40883400
vn 0.25120120 0.92630800 0.28080480
vn 0.00000000 0.83131710 0.55579850
vn 0.00000000 0.92378710 0.38290650
vn 0.00000000 0.83131710 -0.55579850
vn 0.00000000 0.92378710 -0.38290650
vn -0.25120120 0.92630800 -0.28080490
vn 0.36573290 0.83611850 -0.40883400
vn -0.36573290 0.83611860 -0.40883400
vn 0.25120120 0.92630800 -0.28080490
vn 0.53797310 0.84296200 0.00000000
vn -0.36790960 0.92986160 0.00000000
vn -0.53797310 0.84296200 0.00000000
vn 0.36790960 0.92986160 0.00000000
vn 0.36573290 0.83611860 0.40883400
vn -0.25120120 0.92630800 0.28080490
vn -0.36573300 0.83611850 0.40883400
vn 0.25120120 0.92630800 0.28080490
vn 0.00000000 0.83131710 0.55579850
vn 0.00000000 0.92378710 0.38290650
vn -0.00000011 0.83131690 -0.55579860
vn 0.00000000 0.92378710 -0.38290660
vn -0.25120130 0.92630790 -0.28080500
vn 0.36573300 0.83611860 -0.40883390
vn -0.36573310 0.83611840 -0.40883400
vn 0.25120120 0.92630800 -0.28080480
vn 0.53797300 0.84296210 0.00000000
vn -0.36790950 0.92986160 0.00000000
vn -0.53797310 0.84296210 0.00000000
vn 0.36790950 0.92986160 0.00000000
vn 0.36573300 0.83611840 0.40883410
vn -0.25120130 0.92630800 0.28080480
vn -0.36573310 0.83611860 0.40883390
vn 0.25120130 0.92630800 0.28080500
vn 0.00000000 0.83131690 0.55579860
vn 0.00000000 0.92378710 0.38290660
vn -0.00000014 0.83131690 -0.55579860
vn 0.00000000 0.92378710 -0.38290660
vn -0.25120130 0.92630800 -0.28080500
vn 0.36573290 0.83611860 -0.40883380
vn -0.36573300 0.83611840 -0.40883400
vn 0.25120130 0.92630810 -0.28080480
vn 0.53797300 0.84296210 0.00000000
vn -0.36790950 0.92986160 0.00000000
vn -0.53797300 0.84296210 0.00000000
vn 0.36790950 0.92986160 0.00000000
vn 0.36573300 0.83611840 0.40883400
vn -0.25120130 0.92630800 0.28080480
vn -0.36573310 0.83611860 0.40883390
vn 0.25120130 0.92630800 0.28080500
vn 0.00000000 0.83131690 0.55579860
vn 0.00000000 0.92378710 0.38290660
vn -0.00000011 0.83131690 -0.55579880
vn 0.00000000 0.92378710 -0.38290670
vn -0.25120130 0.92630800 -0.28080500
vn 0.36573300 0.83611850 -0.40883390
vn -0.36573300 0.83611840 -0.40883400
vn 0.25120130 0.92630800 -0.28080490
vn 0.53797310 0.84296200 0.00000000
vn -0.36790950 0.92986160 0.00000000
vn -0.53797300 0.84296210 0.00000000
vn 0.36790960 0.92986160 0.00000000
vn 0.36573310 0.83611840 0.40883410
vn -0.25120130 0.92630800 0.28080480
vn -0.36573310 0.83611860 0.40883390
vn 0.25120140 0.92630790 0.28080500
vn 0.00000000 0.83131690 0.55579860
vn 0.00000000 0.92378710 0.38290660
vn -0.00000011 0.83131690 -0.55579860
vn 0.00000000 0.92378710 -0.38290660
vn -0.25120130 0.92630790 -0.28080500
vn 0.36573300 0.83611860 -0.40883390
vn -0.36573310 0.83611840 -0.40883400
vn 0.25120120 0.92630800 -0.28080480
vn 0.53797300 0.84296210 0.00000000
vn -0.36790950 0.92986160 0.00000000
vn -0.53797310 0.84296210 0.00000000
vn 0.36790950 0.92986160 0.00000000
vn 0.36573300 0.83611840 0.40883410
vn -0.25120130 0.92630800 0.28080480
vn -0.36573310 0.83611860 0.40883390
vn 0.25120130 0.92630800 0.28080500
vn 0.00000000 0.83131690 0.55579860
vn 0.00000000 0.92378710 0.38290660
vn -0.00000014 0.83131690 -0.55579860
vn 0.00000000 0.92378710 -0.38290660
vn -0.25120130 0.92630800 -0.28080500
vn 0.36573290 0.83611860 -0.40883380
vn -0.36573300 0.83611840 -0.40883400
vn 0.25120130 0.92630810 -0.28080480
vn 0.53797300 0.84296210 0.00000000
vn -0.36790950 0.92986160 0.00000000
vn -0.53797300 0.84296210 0.00000000
vn 0.36790950 0.92986160 0.00000000
vn 0.36573300 0.83611840 0.40883400
vn -0.25120130 0.92630800 0.28080480
vn -0.36573310 0.83611860 0.40883390
vn 0.25120130 0.92630800 0.28080500
vn 0.00000000 0.83131690 0.55579860
vn 0.00000000 0.92378710 0.38290660
vn -0.00000011 0.83131690 -0.55579880
vn 0.00000000 0.92378710 -0.38290670
vn -0.25120130 0.92630800 -0.28080500
vn 0.36573300 0.83611850 -0.40883390
vn -0.36573300 0.83611840 -0.40883400
vn 0.25120130 0.92630800 -0.28080490
vn 0.53797310 0.84296200 0.00000000
vn -0.36790950 0.92986160 0.00000000
vn -0.53797300 0.84296210 0.00000000
vn 0.36790960 0.92986160 0.00000000
vn 0.36573310 0.83611840 0.40883410
vn -0.25120130 0.92630800 0.28080480
vn -0.36573310 0.83611860 0.40883390
vn 0.25120140 0.92630790 0.28080500
vn 0.00000000 0.83131690 0.55579860
vn 0.00000000 0.92378710 0.38290660
vn -0.00000011 0.83131690 -0.55579860
vn 0.00000000 0.92378710 -0.38290660
vn -0.25120130 0.92630790 -0.28080500
vn 0.36573300 0.83611860 -0.40883390
vn -0.36573310 0.83611840 -0.40883400
vn 0.25120120 0.92630800 -0.28080480
vn 0.53797320 0.84296200 0.00000018
vn -0.36790950 0.92986160 0.00000000
vn -0.53797300 0.84296210 0.00000014
vn 0.36790960 0.92986160 0.00000013
vn 0.36573320 0.83611850 0.40883380
vn -0.25120160 0.92630790 0.28080510
vn -0.36573330 0.83611820 0.40883430
vn 0.25120150 0.92630800 0.28080480
vn -0.00000022 0.83131700 0.55579850
vn -0.00000015 0.92378710 0.38290650
vn -0.00000014 0.83131690 -0.55579860
vn 0.00000000 0.92378710 -0.38290660
vn -0.25120130 0.92630800 -0.28080500
vn 0.36573290 0.83611860 -0.40883380
vn -0.36573300 0.83611840 -0.40883400
vn 0.25120130 0.92630810 -0.28080480
vn 0.53797310 0.84296200 0.00000018
vn -0.36790950 0.92986160 0.00000014
vn -0.53797300 0.84296210 0.00000020
vn 0.36790960 0.92986160 0.00000013
vn 0.36573320 0.83611860 0.40883370
vn -0.25120160 0.92630790 0.28080520
vn -0.36573340 0.83611820 0.40883430
vn 0.25120150 0.92630800 0.28080480
vn -0.00000024 0.83131700 0.55579850
vn -0.00000017 0.92378710 0.38290650
vn -0.00000011 0.83131690 -0.55579880
vn 0.00000000 0.92378710 -0.38290670
vn -0.25120130 0.92630800 -0.28080500
vn 0.36573300 0.83611850 -0.40883390
vn -0.36573300 0.83611840 -0.40883400
vn 0.25120130 0.92630800 -0.28080490
vn 0.53797320 0.84296190 0.00000020
vn -0.36790940 0.92986160 0.00000011
vn -0.53797290 0.84296210 0.00000015
vn 0.36790970 0.92986160 0.00000014
vn 0.36573330 0.83611850 0.40883380
vn -0.25120150 0.92630790 0.28080510
vn -0.36573320 0.83611820 0.40883430
vn 0.25120150 0.92630800 0.28080480
vn -0.00000022 0.83131700 0.55579850
vn -0.00000015 0.92378710 0.38290650
vt 2.34154900 1.32287400
vt 2.27788400 1.29650400
vt 2.21422000 1.32287400
vt 2.36791900 1.38653900
vt 2.18785000 1.38653900
vt 2.34154900 1.45020300
vt 2.21422000 1.45020300
vt 2.27788400 1.47657300
vt 1.48557700 1.97251600
vt 1.57561200 1.97251600
vt 1.57561200 1.88998400
vt 1.48557700 1.88998400
vt 1.39554200 1.97251600
vt 1.39554200 1.88998400
vt 1.69190700 0.58597760
vt 1.73317300 0.58597760
vt 1.73317300 0.50344550
vt 1.69190700 0.50344550
vt 1.73317300 0.58597760
vt 1.77443900 0.58597760
vt 1.77443900 0.50344550
vt 1.73317300 0.50344550
vt 2.38592700 1.97251600
vt 2.47596100 1.88998400
vt 2.38592700 1.88998400
vt 2.47596100 1.97251600
vt 2.56599600 1.88998400
vt 2.56599600 1.97251600
vt 2.48421500 0.48693910
vt 2.52548100 0.48693910
vt 2.52548100 0.40440710
vt 2.48421500 0.40440710
vt 2.52548100 0.48693910
vt 2.56674700 0.48693910
vt 2.56674700 0.40440710
vt 2.52548100 0.40440710
vt 1.35116400 1.02575900
vt 1.28750000 0.99938810
vt 1.22383600 1.02575900
vt 1.37753500 1.08942300
vt 1.19746500 1.08942300
vt 1.35116400 1.15308700
vt 1.22383600 1.15308700
vt 1.28750000 1.17945800
vt 1.68365400 1.87347800
vt 1.77368900 1.87347800
vt 1.77368900 1.79094600
vt 1.68365400 1.79094600
vt 1.59361900 1.87347800
vt 1.59361900 1.79094600
vt 2.18709900 2.26963100
vt 2.22836500 2.26963100
vt 2.22836500 2.18709900
vt 2.18709900 2.18709900
vt 2.22836500 2.26963100
vt 2.26963100 2.26963100
vt 2.26963100 2.18709900
vt 2.22836500 2.18709900
vt 2.38592700 1.87347800
vt 2.47596100 1.79094600
vt 2.38592700 1.79094600
vt 2.47596100 1.87347800
vt 2.56599600 1.79094600
vt 2.56599600 1.87347800
vt 1.88998400 0.88309290
vt 1.93125000 0.88309290
vt 1.93125000 0.80056090
vt 1.88998400 0.80056090
vt 1.93125000 0.88309290
vt 1.97251600 0.88309290
vt 1.97251600 0.80056090
vt 1.93125000 0.80056090
vt 0.75693360 1.22383600
vt 0.69326920 1.19746500
vt 0.62960490 1.22383600
vt 0.78330420 1.28750000
vt 0.60323420 1.28750000
vt 0.75693360 1.35116400
vt 0.62960490 1.35116400
vt 0.69326920 1.37753500
vt 2.47596200 2.07155400
vt 2.56599600 2.07155400
vt 2.56599600 1.98902200
vt 2.47596200 1.98902200
vt 2.38592700 2.07155400
vt 2.38592700 1.98902200
vt 2.48421500 0.98213140
vt 2.52548100 0.98213140
vt 2.52548100 0.89959940
vt 2.48421500 0.89959940
vt 2.52548100 0.98213140
vt 2.56674700 0.98213140
vt 2.56674700 0.89959940
vt 2.52548100 0.89959940
vt 1.98977300 2.07155400
vt 2.07980800 1.98902200
vt 1.98977300 1.98902200
vt 2.07980800 2.07155400
vt 2.16984300 1.98902200
vt 2.16984300 2.07155400
vt 2.28613800 2.26963100
vt 2.32740400 2.26963100
vt 2.32740400 2.18709900
vt 2.28613800 2.18709900
vt 2.32740400 2.26963100
vt 2.36867000 2.26963100
vt 2.36867000 2.18709900
vt 2.32740400 2.18709900
vt 1.35116400 1.22383600
vt 1.28750000 1.19746500
vt 1.22383600 1.22383600
vt 1.37753500 1.28750000
vt 1.19746500 1.28750000
vt 1.35116400 1.35116400
vt 1.22383600 1.35116400
vt 1.28750000 1.37753500
vt 1.68365400 1.97251600
vt 1.77368900 1.97251600
vt 1.77368900 1.88998400
vt 1.68365400 1.88998400
vt 1.59361900 1.97251600
vt 1.59361900 1.88998400
vt 2.48421500 0.28886220
vt 2.52548100 0.28886220
vt 2.52548100 0.20633010
vt 2.48421500 0.20633010
vt 2.52548100 0.28886220
vt 2.56674700 0.28886220
vt 2.56674700 0.20633010
vt 2.52548100 0.20633010
vt 1.79169600 1.97251600
vt 1.88173100 1.88998400
vt 1.79169600 1.88998400
vt 1.88173100 1.97251600
vt 1.97176600 1.88998400
vt 1.97176600 1.97251600
vt 1.29575300 0.38790070
vt 1.33701900 0.38790070
vt 1.33701900 0.30536860
vt 1.29575300 0.30536860
vt 1.33701900 0.38790070
vt 1.37828500 0.38790070
vt 1.37828500 0.30536860
vt 1.33701900 0.30536860
vt 0.36077970 1.02575900
vt 0.29711540 0.99938810
vt 0.23345110 1.02575900
vt 0.38715030 1.08942300
vt 0.20708040 1.08942300
vt 0.36077970 1.15308700
vt 0.23345110 1.15308700
vt 0.29711540 1.17945800
vt 2.07980800 1.87347800
vt 2.16984300 1.87347800
vt 2.16984300 1.79094600
vt 2.07980800 1.79094600
vt 1.98977300 1.87347800
vt 1.98977300 1.79094600
vt 1.29575300 0.48693910
vt 1.33701900 0.48693910
vt 1.33701900 0.40440710
vt 1.29575300 0.40440710
vt 1.33701900 0.48693910
vt 1.37828500 0.48693910
vt 1.37828500 0.40440710
vt 1.33701900 0.40440710
vt 2.18785000 1.87347800
vt 2.27788400 1.79094600
vt 2.18785000 1.79094600
vt 2.27788400 1.87347800
vt 2.36791900 1.79094600
vt 2.36791900 1.87347800
vt 2.48421500 0.18982370
vt 2.52548100 0.18982370
vt 2.52548100 0.10729170
vt 2.48421500 0.10729170
vt 2.52548100 0.18982370
vt 2.56674700 0.18982370
vt 2.56674700 0.10729170
vt 2.52548100 0.10729170
vt 2.53962600 1.12479700
vt 2.47596100 1.09842700
vt 2.41229700 1.12479700
vt 2.56599600 1.18846200
vt 2.38592700 1.18846200
vt 2.53962600 1.25212600
vt 2.41229700 1.25212600
vt 2.47596100 1.27849700
vt 1.88173100 2.07155400
vt 1.97176600 2.07155400
vt 1.97176600 1.98902200
vt 1.88173100 1.98902200
vt 1.79169600 2.07155400
vt 1.79169600 1.98902200
vt 2.48421500 0.09078526
vt 2.52548100 0.09078526
vt 2.52548100 0.00825321
vt 2.48421500 0.00825321
vt 2.52548100 0.09078526
vt 2.56674700 0.09078526
vt 2.56674700 0.00825321
vt 2.52548100 0.00825321
vt 1.19746500 2.07155400
vt 1.28750000 1.98902200
vt 1.19746500 1.98902200
vt 1.28750000 2.07155400
vt 1.37753500 1.98902200
vt 1.37753500 2.07155400
vt 1.98902200 2.26963100
vt 2.03028800 2.26963100
vt 2.03028800 2.18709900
vt 1.98902200 2.18709900
vt 2.03028800 2.26963100
vt 2.07155400 2.26963100
vt 2.07155400 2.18709900
vt 2.03028800 2.18709900
vt 2.53962600 1.32287400
vt 2.47596100 1.29650400
vt 2.41229700 1.32287400
vt 2.56599600 1.38653900
vt 2.38592700 1.38653900
vt 2.53962600 1.45020300
vt 2.41229700 1.45020300
vt 2.47596100 1.47657300
vt 2.27788400 1.97251600
vt 2.36791900 1.97251600
vt 2.36791900 1.88998400
vt 2.27788400 1.88998400
vt 2.18785000 1.97251600
vt 2.18785000 1.88998400
vt 2.48421500 0.88309290
vt 2.52548100 0.88309290
vt 2.52548100 0.80056090
vt 2.48421500 0.80056090
vt 2.52548100 0.88309290
vt 2.56674700 0.88309290
vt 2.56674700 0.80056090
vt 2.52548100 0.80056090
vt 1.98977300 1.97251600
vt 2.07980800 1.88998400
vt 1.98977300 1.88998400
vt 2.07980800 1.97251600
vt 2.16984300 1.88998400
vt 2.16984300 1.97251600
vt 2.48421500 0.38790070
vt 2.52548100 0.38790070
vt 2.52548100 0.30536860
vt 2.48421500 0.30536860
vt 2.52548100 0.38790070
vt 2.56674700 0.38790070
vt 2.56674700 0.30536860
vt 2.52548100 0.30536860
vt 1.74731800 1.02575900
vt 1.68365400 0.99938810
vt 1.61999000 1.02575900
vt 1.77368900 1.08942300
vt 1.59361900 1.08942300
vt 1.74731800 1.15308700
vt 1.61999000 1.15308700
vt 1.68365400 1.17945800
vt 1.88173100 1.87347800
vt 1.97176600 1.87347800
vt 1.97176600 1.79094600
vt 1.88173100 1.79094600
vt 1.79169600 1.87347800
vt 1.79169600 1.79094600
vt 2.08806100 2.26963100
vt 2.12932700 2.26963100
vt 2.12932700 2.18709900
vt 2.08806100 2.18709900
vt 2.12932700 2.26963100
vt 2.17059300 2.26963100
vt 2.17059300 2.18709900
vt 2.12932700 2.18709900
vt 0.20708040 1.97251600
vt 0.29711540 1.88998400
vt 0.20708040 1.88998400
vt 0.29711540 1.97251600
vt 0.38715030 1.88998400
vt 0.38715030 1.97251600
vt 2.48421500 0.78405450
vt 2.52548100 0.78405450
vt 2.52548100 0.70152250
vt 2.48421500 0.70152250
vt 2.52548100 0.78405450
vt 2.56674700 0.78405450
vt 2.56674700 0.70152250
vt 2.52548100 0.70152250
vt 2.34154900 1.12479700
vt 2.27788400 1.09842700
vt 2.21422000 1.12479700
vt 2.36791900 1.18846200
vt 2.18785000 1.18846200
vt 2.34154900 1.25212600
vt 2.21422000 1.25212600
vt 2.27788400 1.27849700
vt 0.89134620 2.07155400
vt 0.98138120 2.07155400
vt 0.98138120 1.98902200
vt 0.89134620 1.98902200
vt 0.80131120 2.07155400
vt 0.80131120 1.98902200
vt 1.79094600 1.08117000
vt 1.83221100 1.08117000
vt 1.83221100 0.99863780
vt 1.79094600 0.99863780
vt 1.83221100 1.08117000
vt 1.87347800 1.08117000
vt 1.87347800 0.99863780
vt 1.83221100 0.99863780
vt 1.59361900 2.07155400
vt 1.68365400 1.98902200
vt 1.59361900 1.98902200
vt 1.68365400 2.07155400
vt 1.77368900 1.98902200
vt 1.77368900 2.07155400
vt 2.48421500 1.08117000
vt 2.52548100 1.08117000
vt 2.52548100 0.99863780
vt 2.48421500 0.99863780
vt 2.52548100 1.08117000
vt 2.56674700 1.08117000
vt 2.56674700 0.99863780
vt 2.52548100 0.99863780
vt 0.36077970 1.22383600
vt 0.29711540 1.19746500
vt 0.23345110 1.22383600
vt 0.38715030 1.28750000
vt 0.20708040 1.28750000
vt 0.36077970 1.35116400
vt 0.23345110 1.35116400
vt 0.29711540 1.37753500
vt 0.49519230 2.07155400
vt 0.58522730 2.07155400
vt 0.58522730 1.98902200
vt 0.49519230 1.98902200
vt 0.40515740 2.07155400
vt 0.40515740 1.98902200
vt 0.20633010 2.36867000
vt 0.24759620 2.36867000
vt 0.24759620 2.28613800
vt 0.20633010 2.28613800
vt 0.24759620 2.36867000
vt 0.28886220 2.36867000
vt 0.28886220 2.28613800
vt 0.24759620 2.28613800
vt 0.20708040 2.07155400
vt 0.29711540 1.98902200
vt 0.20708040 1.98902200
vt 0.29711540 2.07155400
vt 0.38715030 1.98902200
vt 0.38715030 2.07155400
vt 2.48421500 2.26963100
vt 2.52548100 2.26963100
vt 2.52548100 2.18709900
vt 2.48421500 2.18709900
vt 2.52548100 2.26963100
vt 2.56674700 2.26963100
vt 2.56674700 2.18709900
vt 2.52548100 2.18709900
vt 1.54924100 1.02575900
vt 1.48557700 0.99938810
vt 1.42191300 1.02575900
vt 1.57561200 1.08942300
vt 1.39554200 1.08942300
vt 1.54924100 1.15308700
vt 1.42191300 1.15308700
vt 1.48557700 1.17945800
vt 1.48557700 1.87347800
vt 1.57561200 1.87347800
vt 1.57561200 1.79094600
vt 1.48557700 1.79094600
vt 1.39554200 1.87347800
vt 1.39554200 1.79094600
vt 0.10729170 2.36867000
vt 0.14855770 2.36867000
vt 0.14855770 2.28613800
vt 0.10729170 2.28613800
vt 0.14855770 2.36867000
vt 0.18982370 2.36867000
vt 0.18982370 2.28613800
vt 0.14855770 2.28613800
vt 0.40515740 1.87347800
vt 0.49519230 1.79094600
vt 0.40515740 1.79094600
vt 0.49519230 1.87347800
vt 0.58522730 1.79094600
vt 0.58522730 1.87347800
vt 0.30536860 2.36867000
vt 0.34663460 2.36867000
vt 0.34663460 2.28613800
vt 0.30536860 2.28613800
vt 0.34663460 2.36867000
vt 0.38790070 2.36867000
vt 0.38790070 2.28613800
vt 0.34663460 2.28613800
vt 0.95501050 1.22383600
vt 0.89134620 1.19746500
vt 0.82768180 1.22383600
vt 0.98138120 1.28750000
vt 0.80131120 1.28750000
vt 0.95501050 1.35116400
vt 0.82768180 1.35116400
vt 0.89134620 1.37753500
vt 1.48557700 2.07155400
vt 1.57561200 2.07155400
vt 1.57561200 1.98902200
vt 1.48557700 1.98902200
vt 1.39554200 2.07155400
vt 1.39554200 1.98902200
vt 0.00825321 2.36867000
vt 0.04951926 2.36867000
vt 0.04951926 2.28613800
vt 0.00825321 2.28613800
vt 0.04951926 2.36867000
vt 0.09078526 2.36867000
vt 0.09078526 2.28613800
vt 0.04951926 2.28613800
vt 2.18785000 2.07155400
vt 2.27788400 1.98902200
vt 2.18785000 1.98902200
vt 2.27788400 2.07155400
vt 2.36791900 1.98902200
vt 2.36791900 2.07155400
vt 2.38517600 2.26963100
vt 2.42644200 2.26963100
vt 2.42644200 2.18709900
vt 2.38517600 2.18709900
vt 2.42644200 2.26963100
vt 2.46770800 2.26963100
vt 2.46770800 2.18709900
vt 2.42644200 2.18709900
vt 1.68365400 1.19746500
vt 1.68365400 1.22664900
vt 1.73037400 1.24600100
vt 1.61999000 1.22383600
vt 1.74731800 1.22383600
vt 1.63693400 1.24600100
vt 1.59361900 1.28750000
vt 1.74756300 1.28750000
vt 1.77368900 1.28750000
vt 1.61974400 1.28750000
vt 1.61999000 1.35116400
vt 1.73037400 1.32899800
vt 1.74731800 1.35116400
vt 1.63693400 1.32899800
vt 1.68365400 1.37753500
vt 1.68365400 1.34835100
vt 0.69326930 0.99938810
vt 0.69326930 1.02857200
vt 0.73998940 1.04792500
vt 0.62960490 1.02575900
vt 0.75693360 1.02575900
vt 0.64654900 1.04792500
vt 0.60323420 1.08942300
vt 0.75717870 1.08942300
vt 0.78330420 1.08942300
vt 0.62935980 1.08942300
vt 0.62960490 1.15308700
vt 0.73998940 1.13092200
vt 0.75693360 1.15308700
vt 0.64654900 1.13092200
vt 0.69326930 1.17945800
vt 0.69326930 1.15027400
vt 0.09903847 1.19746500
vt 0.09903847 1.22664900
vt 0.14575870 1.24600100
vt 0.03537414 1.22383600
vt 0.16270280 1.22383600
vt 0.05231825 1.24600100
vt 0.00900350 1.28750000
vt 0.16294790 1.28750000
vt 0.18907340 1.28750000
vt 0.03512901 1.28750000
vt 0.03537414 1.35116400
vt 0.14575870 1.32899800
vt 0.16270280 1.35116400
vt 0.05231825 1.32899800
vt 0.09903847 1.37753500
vt 0.09903847 1.34835100
vt 0.49519230 1.19746500
vt 0.49519230 1.22664900
vt 0.54191260 1.24600200
vt 0.43152800 1.22383600
vt 0.55885660 1.22383600
vt 0.44847210 1.24600200
vt 0.40515740 1.28750000
vt 0.55910180 1.28750000
vt 0.58522730 1.28750000
vt 0.43128280 1.28750000
vt 0.43152800 1.35116400
vt 0.54191260 1.32899800
vt 0.55885660 1.35116400
vt 0.44847210 1.32899800
vt 0.49519230 1.37753500
vt 0.49519230 1.34835100
vt 0.89134620 0.99938810
vt 0.89134620 1.02857200
vt 0.93806630 1.04792500
vt 0.82768180 1.02575900
vt 0.95501050 1.02575900
vt 0.84462590 1.04792500
vt 0.80131120 1.08942300
vt 0.95525560 1.08942300
vt 0.98138120 1.08942300
vt 0.82743670 1.08942300
vt 0.82768180 1.15308700
vt 0.93806630 1.13092100
vt 0.95501050 1.15308700
vt 0.84462590 1.13092100
vt 0.89134620 1.17945800
vt 0.89134620 1.15027400
vt 1.48557700 1.19746500
vt 1.48557700 1.22664900
vt 1.53229700 1.24600200
vt 1.42191300 1.22383600
vt 1.54924100 1.22383600
vt 1.43885700 1.24600200
vt 1.39554200 1.28750000
vt 1.54948600 1.28750000
vt 1.57561200 1.28750000
vt 1.42166700 1.28750000
vt 1.42191300 1.35116400
vt 1.53229700 1.32899800
vt 1.54924100 1.35116400
vt 1.43885700 1.32899800
vt 1.48557700 1.37753500
vt 1.48557700 1.34835100
vt 1.08942300 1.19746500
vt 1.08942300 1.22664900
vt 1.13614300 1.24600200
vt 1.02575900 1.22383600
vt 1.15308700 1.22383600
vt 1.04270300 1.24600200
vt 0.99938810 1.28750000
vt 1.15333200 1.28750000
vt 1.17945800 1.28750000
vt 1.02551400 1.28750000
vt 1.02575900 1.35116400
vt 1.13614300 1.32899800
vt 1.15308700 1.35116400
vt 1.04270300 1.32899800
vt 1.08942300 1.37753500
vt 1.08942300 1.34835100
vt 1.08942300 0.99938810
vt 1.08942300 1.02857200
vt 1.13614300 1.04792500
vt 1.02575900 1.02575900
vt 1.15308700 1.02575900
vt 1.04270300 1.04792500
vt 0.99938810 1.08942300
vt 1.15333200 1.08942300
vt 1.17945800 1.08942300
vt 1.02551400 1.08942300
vt 1.02575900 1.15308700
vt 1.13614300 1.13092100
vt 1.15308700 1.15308700
vt 1.04270300 1.13092100
vt 1.08942300 1.17945800
vt 1.08942300 1.15027400
vt 2.07980800 1.29650400
vt 2.07980800 1.32568800
vt 2.12652800 1.34504000
vt 2.01614300 1.32287400
vt 2.14347200 1.32287400
vt 2.03308700 1.34504000
vt 1.98977300 1.38653900
vt 2.14371700 1.38653900
vt 2.16984300 1.38653900
vt 2.01589800 1.38653900
vt 2.01614300 1.45020300
vt 2.12652800 1.42803700
vt 2.14347200 1.45020300
vt 2.03308700 1.42803700
vt 2.07980800 1.47657300
vt 2.07980800 1.44738900
vt 0.09903847 1.39554200
vt 0.09903847 1.42472600
vt 0.14575870 1.44407800
vt 0.03537414 1.42191300
vt 0.16270280 1.42191300
vt 0.05231826 1.44407800
vt 0.00900350 1.48557700
vt 0.16294790 1.48557700
vt 0.18907340 1.48557700
vt 0.03512902 1.48557700
vt 0.03537414 1.54924100
vt 0.14575870 1.52707500
vt 0.16270280 1.54924100
vt 0.05231826 1.52707500
vt 0.09903847 1.57561200
vt 0.09903847 1.54642700
vt 0.49519230 0.99938810
vt 0.49519230 1.02857200
vt 0.54191250 1.04792500
vt 0.43152800 1.02575900
vt 0.55885660 1.02575900
vt 0.44847210 1.04792500
vt 0.40515740 1.08942300
vt 0.55910180 1.08942300
vt 0.58522730 1.08942300
vt 0.43128280 1.08942300
vt 0.43152800 1.15308700
vt 0.54191260 1.13092100
vt 0.55885660 1.15308700
vt 0.44847210 1.13092100
vt 0.49519230 1.17945800
vt 0.49519230 1.15027400
vt 1.88173100 1.29650400
vt 1.88173100 1.32568800
vt 1.92845100 1.34504000
vt 1.81806600 1.32287400
vt 1.94539500 1.32287400
vt 1.83501100 1.34504000
vt 1.79169600 1.38653900
vt 1.94564000 1.38653900
vt 1.97176600 1.38653900
vt 1.81782100 1.38653900
vt 1.81806600 1.45020300
vt 1.92845100 1.42803700
vt 1.94539500 1.45020300
vt 1.83501100 1.42803700
vt 1.88173100 1.47657300
vt 1.88173100 1.44738900
f 3/3/3 2/2/2 1/1/1
f 1/1/1 4/4/4 3/3/3
f 4/4/4 5/5/5 3/3/3
f 4/4/4 6/6/6 5/5/5
f 6/6/6 7/7/7 5/5/5
f 6/6/6 8/8/8 7/7/7
f 11/11/11 10/10/10 9/9/9
f 12/12/12 11/11/11 9/9/9
f 12/12/12 9/9/9 13/13/13
f 14/14/14 12/12/12 13/13/13
f 17/17/17 16/16/16 15/15/15
f 18/18/18 17/17/17 15/15/15
f 21/21/21 20/20/20 19/19/19
f 22/22/22 21/21/21 19/19/19
f 25/25/25 24/24/24 23/23/23
f 24/24/24 26/26/26 23/23/23
f 24/24/24 27/27/27 26/26/26
f 27/27/27 28/28/28 26/26/26
f 31/31/31 30/30/30 29/29/29
f 32/32/32 31/31/31 29/29/29
f 35/35/35 34/34/34 33/33/33
f 36/36/36 35/35/35 33/33/33
f 39/39/39 38/38/38 37/37/37
f 37/37/37 40/40/40 39/39/39
f 40/40/40 41/41/41 39/39/39
f 40/40/40 42/42/42 41/41/41
f 42/42/42 43/43/43 41/41/41
f 42/42/42 44/44/44 43/43/43
f 47/47/47 46/46/46 45/45/45
f 48/48/48 47/47/47 45/45/45
f 48/48/48 45/45/45 49/49/49
f 50/50/50 48/48/48 49/49/49
f 53/53/53 52/52/52 51/51/51
f 54/54/54 53/53/53 51/51/51
f 57/57/57 56/56/56 55/55/55
f 58/58/58 57/57/57 55/55/55
f 61/61/61 60/60/60 59/59/59
f 60/60/60 62/62/62 59/59/59
f 60/60/60 63/63/63 62/62/62
f 63/63/63 64/64/64 62/62/62
f 67/67/67 66/66/66 65/65/65
f 68/68/68 67/67/67 65/65/65
f 71/71/71 70/70/70 69/69/69
f 72/72/72 71/71/71 69/69/69
f 75/75/75 74/74/74 73/73/73
f 73/73/73 76/76/76 75/75/75
f 76/76/76 77/77/77 75/75/75
f 76/76/76 78/78/78 77/77/77
f 78/78/78 79/79/79 77/77/77
f 78/78/78 80/80/80 79/79/79
f 83/83/83 82/82/82 81/81/81
f 84/84/84 83/83/83 81/81/81
f 84/84/84 81/81/81 85/85/85
f 86/86/86 84/84/84 85/85/85
f 89/89/89 88/88/88 87/87/87
f 90/90/90 89/89/89 87/87/87
f 93/93/93 92/92/92 91/91/91
f 94/94/94 93/93/93 91/91/91
f 97/97/97 96/96/96 95/95/95
f 96/96/96 98/98/98 95/95/95
f 96/96/96 99/99/99 98/98/98
f 99/99/99 100/100/100 98/98/98
f 103/103/103 102/102/102 101/101/101
f 104/104/104 103/103/103 101/101/101
f 107/107/107 106/106/106 105/105/105
f 108/108/108 107/107/107 105/105/105
f 111/111/111 110/110/110 109/109/109
f 109/109/109 112/112/112 111/111/111
f 112/112/112 113/113/113 111/111/111
f 112/112/112 114/114/114 113/113/113
f 114/114/114 115/115/115 113/113/113
f 114/114/114 116/116/116 115/115/115
f 119/119/119 118/118/118 117/117/117
f 120/120/120 119/119/119 117/117/117
f 120/120/120 117/117/117 121/121/121
f 122/122/122 120/120/120 121/121/121
f 125/125/125 124/124/124 123/123/123
f 126/126/126 125/125/125 123/123/123
f 129/129/129 128/128/128 127/127/127
f 130/130/130 129/129/129 127/127/127
f 133/133/133 132/132/132 131/131/131
f 132/132/132 134/134/134 131/131/131
f 132/132/132 135/135/135 134/134/134
f 135/135/135 136/136/136 134/134/134
f 139/139/139 138/138/138 137/137/137
f 140/140/140 139/139/139 137/137/137
f 143/143/143 142/142/142 141/141/141
f 144/144/144 143/143/143 141/141/141
f 147/147/147 146/146/146 145/145/145
f 145/145/145 148/148/148 147/147/147
f 148/148/148 149/149/149 147/147/147
f 148/148/148 150/150/150 149/149/149
f 150/150/150 151/151/151 149/149/149
f 150/150/150 152/152/152 151/151/151
f 155/155/155 154/154/154 153/153/153
f 156/156/156 155/155/155 153/153/153
f 156/156/156 153/153/153 157/157/157
f 158/158/158 156/156/156 157/157/157
f 161/161/161 160/160/160 159/159/159
f 162/162/162 161/161/161 159/159/159
f 165/165/165 164/164/164 163/163/163
f 166/166/166 165/165/165 163/163/163
f 169/169/169 168/168/168 167/167/167
f 168/168/168 170/170/170 167/167/167
f 168/168/168 171/171/171 170/170/170
f 171/171/171 172/172/172 170/170/170
f 175/175/175 174/174/174 173/173/173
f 176/176/176 175/175/175 173/173/173
f 179/179/179 178/178/178 177/177/177
f 180/180/180 179/179/179 177/177/177
f 183/183/183 182/182/182 181/181/181
f 181/181/181 184/184/184 183/183/183
f 184/184/184 185/185/185 183/183/183
f 184/184/184 186/186/186 185/185/185
f 186/186/186 187/187/187 185/185/185
f 186/186/186 188/188/188 187/187/187
f 191/191/191 190/190/190 189/189/189
f 192/192/192 191/191/191 189/189/189
f 192/192/192 189/189/189 193/193/193
f 194/194/194 192/192/192 193/193/193
f 197/197/197 196/196/196 195/195/195
f 198/198/198 197/197/197 195/195/195
f 201/201/201 200/200/200 199/199/199
f 202/202/202 201/201/201 199/199/199
f 205/205/205 204/204/204 203/203/203
f 204/204/204 206/206/206 203/203/203
f 204/204/204 207/207/207 206/206/206
f 207/207/207 208/208/208 206/206/206
f 211/211/211 210/210/210 209/209/209
f 212/212/212 211/211/211 209/209/209
f 215/215/215 214/214/214 213/213/213
f 216/216/216 215/215/215 213/213/213
f 219/219/219 218/218/218 217/217/217
f 217/217/217 220/220/220 219/219/219
f 220/220/220 221/221/221 219/219/219
f 220/220/220 222/222/222 221/221/221
f 222/222/222 223/223/223 221/221/221
f 222/222/222 224/224/224 223/223/223
f 227/227/227 226/226/226 225/225/225
f 228/228/228 227/227/227 225/225/225
f 228/228/228 225/225/225 229/229/229
f 230/230/230 228/228/228 229/229/229
f 233/233/233 232/232/232 231/231/231
f 234/234/234 233/233/233 231/231/231
f 237/237/237 236/236/236 235/235/235
f 238/238/238 237/237/237 235/235/235
f 241/241/241 240/240/240 239/239/239
f 240/240/240 242/242/242 239/239/239
f 240/240/240 243/243/243 242/242/242
f 243/243/243 244/244/244 242/242/242
f 247/247/247 246/246/246 245/245/245
f 248/248/248 247/247/247 245/245/245
f 251/251/251 250/250/250 249/249/249
f 252/252/252 251/251/251 249/249/249
f 255/255/255 254/254/254 253/253/253
f 253/253/253 256/256/256 255/255/255
f 256/256/256 257/257/257 255/255/255
f 256/256/256 258/258/258 257/257/257
f 258/258/258 259/259/259 257/257/257
f 258/258/258 260/260/260 259/259/259
f 263/263/263 262/262/262 261/261/261
f 264/264/264 263/263/263 261/261/261
f 264/264/264 261/261/261 265/265/265
f 266/266/266 264/264/264 265/265/265
f 269/269/269 268/268/268 267/267/267
f 270/270/270 269/269/269 267/267/267
f 273/273/273 272/272/272 271/271/271
f 274/274/274 273/273/273 271/271/271
f 277/277/277 276/276/276 275/275/275
f 276/276/276 278/278/278 275/275/275
f 276/276/276 279/279/279 278/278/278
f 279/279/279 280/280/280 278/278/278
f 283/283/283 282/282/282 281/281/281
f 284/284/284 283/283/283 281/281/281
f 287/287/287 286/286/286 285/285/285
f 288/288/288 287/287/287 285/285/285
f 291/291/291 290/290/290 289/289/289
f 289/289/289 292/292/292 291/291/291
f 292/292/292 293/293/293 291/291/291
f 292/292/292 294/294/294 293/293/293
f 294/294/294 295/295/295 293/293/293
f 294/294/294 296/296/296 295/295/295
f 299/299/299 298/298/298 297/297/297
f 300/300/300 299/299/299 297/297/297
f 300/300/300 297/297/297 301/301/301
f 302/302/302 300/300/300 301/301/301
f 305/305/305 304/304/304 303/303/303
f 306/306/306 305/305/305 303/303/303
f 309/309/309 308/308/308 307/307/307
f 310/310/310 309/309/309 307/307/307
f 313/313/313 312/312/312 311/311/311
f 312/312/312 314/314/314 311/311/311
f 312/312/312 315/315/315 314/314/314
f 315/315/315 316/316/316 314/314/314
f 319/319/319 318/318/318 317/317/317
f 320/320/320 319/319/319 317/317/317
f 323/323/323 322/322/322 321/321/321
f 324/324/324 323/323/323 321/321/321
f 327/327/327 326/326/326 325/325/325
f 325/325/325 328/328/328 327/327/327
f 328/328/328 329/329/329 327/327/327
f 328/328/328 330/330/330 329/329/329
f 330/330/330 331/331/331 329/329/329
f 330/330/330 332/332/332 331/331/331
f 335/335/335 334/334/334 333/333/333
f 336/336/336 335/335/335 333/333/333
f 336/336/336 333/333/333 337/337/337
f 338/338/338 336/336/336 337/337/337
f 341/341/341 340/340/340 339/339/339
f 342/342/342 341/341/341 339/339/339
f 345/345/345 344/344/344 343/343/343
f 346/346/346 345/345/345 343/343/343
f 349/349/349 348/348/348 347/347/347
f 348/348/348 350/350/350 347/347/347
f 348/348/348 351/351/351 350/350/350
f 351/351/351 352/352/352 350/350/350
f 355/355/355 354/354/354 353/353/353
f 356/356/356 355/355/355 353/353/353
f 359/359/359 358/358/358 357/357/357
f 360/360/360 359/359/359 357/357/357
f 363/363/363 362/362/362 361/361/361
f 361/361/361 364/364/364 363/363/363
f 364/364/364 365/365/365 363/363/363
f 364/364/364 366/366/366 365/365/365
f 366/366/366 367/367/367 365/365/365
f 366/366/366 368/368/368 367/367/367
f 371/371/371 370/370/370 369/369/369
f 372/372/372 371/371/371 369/369/369
f 372/372/372 369/369/369 373/373/373
f 374/374/374 372/372/372 373/373/373
f 377/377/377 376/376/376 375/375/375
f 378/378/378 377/377/377 375/375/375
f 381/381/381 380/380/380 379/379/379
f 382/382/382 381/381/381 379/379/379
f 385/385/385 384/384/384 383/383/383
f 384/384/384 386/386/386 383/383/383
f 384/384/384 387/387/387 386/386/386
f 387/387/387 388/388/388 386/386/386
f 391/391/391 390/390/390 389/389/389
f 392/392/392 391/391/391 389/389/389
f 395/395/395 394/394/394 393/393/393
f 396/396/396 395/395/395 393/393/393
f 399/399/399 398/398/398 397/397/397
f 397/397/397 400/400/400 399/399/399
f 400/400/400 401/401/401 399/399/399
f 400/400/400 402/402/402 401/401/401
f 402/402/402 403/403/403 401/401/401
f 402/402/402 404/404/404 403/403/403
f 407/407/407 406/406/406 405/405/405
f 408/408/408 407/407/407 405/405/405
f 408/408/408 405/405/405 409/409/409
f 410/410/410 408/408/408 409/409/409
f 413/413/413 412/412/412 411/411/411
f 414/414/414 413/413/413 411/411/411
f 417/417/417 416/416/416 415/415/415
f 418/418/418 417/417/417 415/415/415
f 421/421/421 420/420/420 419/419/419
f 420/420/420 422/422/422 419/419/419
f 420/420/420 423/423/423 422/422/422
f 423/423/423 424/424/424 422/422/422
f 427/427/427 426/426/426 425/425/425
f 428/428/428 427/427/427 425/425/425
f 431/431/431 430/430/430 429/429/429
f 432/432/432 431/431/431 429/429/429
f 435/435/435 434/434/434 433/433/433
f 433/433/433 434/434/434 436/436/436
f 437/437/437 435/435/435 433/433/433
f 434/434/434 438/438/438 436/436/436
f 438/438/438 434/434/434 435/435/435
f 436/436/436 438/438/438 439/439/439
f 440/440/440 435/435/435 437/437/437
f 435/435/435 440/440/440 438/438/438
f 441/441/441 440/440/440 437/437/437
f 438/438/438 442/442/442 439/439/439
f 440/440/440 442/442/442 438/438/438
f 439/439/439 442/442/442 443/443/443
f 444/444/444 440/440/440 441/441/441
f 440/440/440 444/444/444 442/442/442
f 445/445/445 444/444/444 441/441/441
f 442/442/442 446/446/446 443/443/443
f 444/444/444 446/446/446 442/442/442
f 443/443/443 446/446/446 447/447/447
f 448/448/448 444/444/444 445/445/445
f 447/447/447 448/448/448 445/445/445
f 444/444/444 448/448/448 446/446/446
f 446/446/446 448/448/448 447/447/447
f 451/451/451 450/450/450 449/449/449
f 449/449/449 450/450/450 452/452/452
f 453/453/453 451/451/451 449/449/449
f 450/450/450 454/454/454 452/452/452
f 454/454/454 450/450/450 451/451/451
f 452/452/452 454/454/454 455/455/455
f 456/456/456 451/451/451 453/453/453
f 451/451/451 456/456/456 454/454/454
f 457/457/457 456/456/456 453/453/453
f 454/454/454 458/458/458 455/455/455
f 456/456/456 458/458/458 454/454/454
f 455/455/455 458/458/458 459/459/459
f 460/460/460 456/456/456 457/457/457
f 456/456/456 460/460/460 458/458/458
f 461/461/461 460/460/460 457/457/457
f 458/458/458 462/462/462 459/459/459
f 460/460/460 462/462/462 458/458/458
f 459/459/459 462/462/462 463/463/463
f 464/464/464 460/460/460 461/461/461
f 463/463/463 464/464/464 461/461/461
f 460/460/460 464/464/464 462/462/462
f 462/462/462 464/464/464 463/463/463
f 467/467/467 466/466/466 465/465/465
f 465/465/465 466/466/466 468/468/468
f 469/469/469 467/467/467 465/465/465
f 466/466/466 470/470/470 468/468/468
f 470/470/470 466/466/466 467/467/467
f 468/468/468 470/470/470 471/471/471
f 472/472/472 467/467/467 469/469/469
f 467/467/467 472/472/472 470/470/470
f 473/473/473 472/472/472 469/469/469
f 470/470/470 474/474/474 471/471/471
f 472/472/472 474/474/474 470/470/470
f 471/471/471 474/474/474 475/475/475
f 476/476/476 472/472/472 473/473/473
f 472/472/472 476/476/476 474/474/474
f 477/477/477 476/476/476 473/473/473
f 474/474/474 478/478/478 475/475/475
f 476/476/476 478/478/478 474/474/474
f 475/475/475 478/478/478 479/479/479
f 480/480/480 476/476/476 477/477/477
f 479/479/479 480/480/480 477/477/477
f 476/476/476 480/480/480 478/478/478
f 478/478/478 480/480/480 479/479/479
f 483/483/483 482/482/482 481/481/481
f 481/481/481 482/482/482 484/484/484
f 485/485/485 483/483/483 481/481/481
f 482/482/482 486/486/486 484/484/484
f 486/486/486 482/482/482 483/483/483
f 484/484/484 486/486/486 487/487/487
f 488/488/488 483/483/483 485/485/485
f 483/483/483 488/488/488 486/486/486
f 489/489/489 488/488/488 485/485/485
f 486/486/486 490/490/490 487/487/487
f 488/488/488 490/490/490 486/486/486
f 487/487/487 490/490/490 491/491/491
f 492/492/492 488/488/488 489/489/489
f 488/488/488 492/492/492 490/490/490
f 493/493/493 492/492/492 489/489/489
f 490/490/490 494/494/494 491/491/491
f 492/492/492 494/494/494 490/490/490
f 491/491/491 494/494/494 495/495/495
f 496/496/496 492/492/492 493/493/493
f 495/495/495 496/496/496 493/493/493
f 492/492/492 496/496/496 494/494/494
f 494/494/494 496/496/496 495/495/495
f 499/499/499 498/498/498 497/497/497
f 497/497/497 498/498/498 500/500/500
f 501/501/501 499/499/499 497/497/497
f 498/498/498 502/502/502 500/500/500
f 502/502/502 498/498/498 499/499/499
f 500/500/500 502/502/502 503/503/503
f 504/504/504 499/499/499 501/501/501
f 499/499/499 504/504/504 502/502/502
f 505/505/505 504/504/504 501/501/501
f 502/502/502 506/506/506 503/503/503
f 504/504/504 506/506/506 502/502/502
f 503/503/503 506/506/506 507/507/507
f 508/508/508 504/504/504 505/505/505
f 504/504/504 508/508/508 506/506/506
f 509/509/509 508/508/508 505/505/505
f 506/506/506 510/510/510 507/507/507
f 508/508/508 510/510/510 506/506/506
f 507/507/507 510/510/510 511/511/511
f 512/512/512 508/508/508 509/509/509
f 511/511/511 512/512/512 509/509/509
f 508/508/508 512/512/512 510/510/510
f 510/510/510 512/512/512 511/511/511
f 515/515/515 514/514/514 513/513/513
f 513/513/513 514/514/514 516/516/516
f 517/517/517 515/515/515 513/513/513
f 514/514/514 518/518/518 516/516/516
f 518/518/518 514/514/514 515/515/515
f 516/516/516 518/518/518 519/519/519
f 520/520/520 515/515/515 517/517/517
f 515/515/515 520/520/520 518/518/518
f 521/521/521 520/520/520 517/517/517
f 518/518/518 522/522/522 519/519/519
f 520/520/520 522/522/522 518/518/518
f 519/519/519 522/522/522 523/523/523
f 524/524/524 520/520/520 521/521/521
f 520/520/520 524/524/524 522/522/522
f 525/525/525 524/524/524 521/521/521
f 522/522/522 526/526/526 523/523/523
f 524/524/524 526/526/526 522/522/522
f 523/523/523 526/526/526 527/527/527
f 528/528/528 524/524/524 525/525/525
f 527/527/527 528/528/528 525/525/525
f 524/524/524 528/528/528 526/526/526
f 526/526/526 528/528/528 527/527/527
f 531/531/531 530/530/530 529/529/529
f 529/529/529 530/530/530 532/532/532
f 533/533/533 531/531/531 529/529/529
f 530/530/530 534/534/534 532/532/532
f 534/534/534 530/530/530 531/531/531
f 532/532/532 534/534/534 535/535/535
f 536/536/536 531/531/531 533/533/533
f 531/531/531 536/536/536 534/534/534
f 537/537/537 536/536/536 533/533/533
f 534/534/534 538/538/538 535/535/535
f 536/536/536 538/538/538 534/534/534
f 535/535/535 538/538/538 539/539/539
f 540/540/540 536/536/536 537/537/537
f 536/536/536 540/540/540 538/538/538
f 541/541/541 540/540/540 537/537/537
f 538/538/538 542/542/542 539/539/539
f 540/540/540 542/542/542 538/538/538
f 539/539/539 542/542/542 543/543/543
f 544/544/544 540/540/540 541/541/541
f 543/543/543 544/544/544 541/541/541
f 540/540/540 544/544/544 542/542/542
f 542/542/542 544/544/544 543/543/543
f 547/547/547 546/546/546 545/545/545
f 545/545/545 546/546/546 548/548/548
f 549/549/549 547/547/547 545/545/545
f 546/546/546 550/550/550 548/548/548
f 550/550/550 546/546/546 547/547/547
f 548/548/548 550/550/550 551/551/551
f 552/552/552 547/547/547 549/549/549
f 547/547/547 552/552/552 550/550/550
f 553/553/553 552/552/552 549/549/549
f 550/550/550 554/554/554 551/551/551
f 552/552/552 554/554/554 550/550/550
f 551/551/551 554/554/554 555/555/555
f 556/556/556 552/552/552 553/553/553
f 552/552/552 556/556/556 554/554/554
f 557/557/557 556/556/556 553/553/553
f 554/554/554 558/558/558 555/555/555
f 556/556/556 558/558/558 554/554/554
f 555/555/555 558/558/558 559/559/559
f 560/560/560 556/556/556 557/557/557
f 559/559/559 560/560/560 557/557/557
f 556/556/556 560/560/560 558/558/558
f 558/558/558 560/560/560 559/559/559
f 563/563/563 562/562/562 561/561/561
f 561/561/561 562/562/562 564/564/564
f 565/565/565 563/563/563 561/561/561
f 562/562/562 566/566/566 564/564/564
f 566/566/566 562/562/562 563/563/563
f 564/564/564 566/566/566 567/567/567
f 568/568/568 563/563/563 565/565/565
f 563/563/563 568/568/568 566/566/566
f 569/569/569 568/568/568 565/565/565
f 566/566/566 570/570/570 567/567/567
f 568/568/568 570/570/570 566/566/566
f 567/567/567 570/570/570 571/571/571
f 572/572/572 568/568/568 569/569/569
f 568/568/568 572/572/572 570/570/570
f 573/573/573 572/572/572 569/569/569
f 570/570/570 574/574/574 571/571/571
f 572/572/572 574/574/574 570/570/570
f 571/571/571 574/574/574 575/575/575
f 576/576/576 572/572/572 573/573/573
f 575/575/575 576/576/576 573/573/573
f 572/572/572 576/576/576 574/574/574
f 574/574/574 576/576/576 575/575/575
f 579/579/579 578/578/578 577/577/577
f 577/577/577 578/578/578 580/580/580
f 581/581/581 579/579/579 577/577/577
f 578/578/578 582/582/582 580/580/580
f 582/582/582 578/578/578 579/579/579
f 580/580/580 582/582/582 583/583/583
f 584/584/584 579/579/579 581/581/581
f 579/579/579 584/584/584 582/582/582
f 585/585/585 584/584/584 581/581/581
f 582/582/582 586/586/586 583/583/583
f 584/584/584 586/586/586 582/582/582
f 583/583/583 586/586/586 587/587/587
f 588/588/588 584/584/584 585/585/585
f 584/584/584 588/588/588 586/586/586
f 589/589/589 588/588/588 585/585/585
f 586/586/586 590/590/590 587/587/587
f 588/588/588 590/590/590 586/586/586
f 587/587/587 590/590/590 591/591/591
f 592/592/592 588/588/588 589/589/589
f 591/591/591 592/592/592 589/589/589
f 588/588/588 592/592/592 590/590/590
f 590/590/590 592/592/592 591/591/591
f 595/595/595 594/594/594 593/593/593
f 593/593/593 594/594/594 596/596/596
f 597/597/597 595/595/595 593/593/593
f 594/594/594 598/598/598 596/596/596
f 598/598/598 594/594/594 595/595/595
f 596/596/596 598/598/598 599/599/599
f 600/600/600 595/595/595 597/597/597
f 595/595/595 600/600/600 598/598/598
f 601/601/601 600/600/600 597/597/597
f 598/598/598 602/602/602 599/599/599
f 600/600/600 602/602/602 598/598/598
f 599/599/599 602/602/602 603/603/603
f 604/604/604 600/600/600 601/601/601
f 600/600/600 604/604/604 602/602/602
f 605/605/605 604/604/604 601/601/601
f 602/602/602 606/606/606 603/603/603
f 604/604/604 606/606/606 602/602/602
f 603/603/603 606/606/606 607/607/607
f 608/608/608 604/604/604 605/605/605
f 607/607/607 608/608/608 605/605/605
f 604/604/604 608/608/608 606/606/606
f 606/606/606 608/608/608 607/607/607
f 611/611/611 610/610/610 609/609/609
f 609/609/609 610/610/610 612/612/612
f 613/613/613 611/611/611 609/609/609
f 610/610/610 614/614/614 612/612/612
f 614/614/614 610/610/610 611/611/611
f 612/612/612 614/614/614 615/615/615
f 616/616/616 611/611/611 613/613/613
f 611/611/611 616/616/616 614/614/614
f 617/617/617 616/616/616 613/613/613
f 614/614/614 618/618/618 615/615/615
f 616/616/616 618/618/618 614/614/614
f 615/615/615 618/618/618 619/619/619
f 620/620/620 616/616/616 617/617/617
f 616/616/616 620/620/620 618/618/618
f 621/621/621 620/620/620 617/617/617
f 618/618/618 622/622/622 619/619/619
f 620/620/620 622/622/622 618/618/618
f 619/619/619 622/622/622 623/623/623
f 624/624/624 620/620/620 621/621/621
f 623/623/623 624/624/624 621/621/621
f 620/620/620 624/624/624 622/622/622
f 622/622/622 624/624/624 623/623/623

