# Blender 4.0.0
# www.blender.org
o Soap_Bar_1_Cube.1291_collision_3
v -0.003195 -0.000003 0.001917
v 0.003199 -0.000003 0.001916
v -0.003195 0.009825 0.001915
v -0.003193 0.009957 0.001913
v 0.003199 0.009965 0.001911
v 0.003199 -0.000003 0.007214
v -0.003036 -0.000003 0.007185
v -0.003195 -0.000002 0.007212
v -0.003195 0.009957 0.002322
v 0.000002 0.009965 0.001965
v 0.003199 0.009965 0.007218
v -0.003193 0.009957 0.007216
v -0.003195 0.009827 0.007215
v 0.000002 0.009965 0.007164
vn -0.0000 -1.0000 -0.0000
vn -1.0000 -0.0000 -0.0000
vn -0.6301 -0.0002 -0.7765
vn -0.0003 -0.0004 -1.0000
vn -0.0002 -0.0005 -1.0000
vn 1.0000 -0.0000 -0.0000
vn -0.0061 -1.0000 0.0002
vn -0.9999 0.0142 -0.0046
vn -0.0028 1.0000 -0.0000
vn -0.0014 0.9966 -0.0827
vn -0.0000 1.0000 -0.0000
vn -0.0002 -0.0005 1.0000
vn -0.0002 -0.9994 0.0349
vn -0.0003 -0.0004 1.0000
vn -0.6303 -0.0002 0.7763
vn -0.9999 0.0145 0.0004
vn -0.0027 1.0000 -0.0000
vn -0.0014 0.9966 0.0827
s 0
f 1//1 2//1 6//1
f 1//1 6//1 7//1
f 1//2 8//2 13//2
f 1//2 13//2 9//2
f 1//2 9//2 3//2
f 1//3 3//3 4//3
f 1//4 4//4 5//4
f 1//5 5//5 2//5
f 2//6 5//6 11//6
f 2//6 11//6 6//6
f 1//7 7//7 8//7
f 3//8 9//8 4//8
f 4//9 9//9 10//9
f 4//10 10//10 5//10
f 5//11 10//11 14//11
f 5//11 14//11 11//11
f 6//12 11//12 8//12
f 6//13 8//13 7//13
f 8//14 11//14 12//14
f 8//15 12//15 13//15
f 9//16 13//16 12//16
f 9//9 12//9 14//9
f 9//17 14//17 10//17
f 11//18 14//18 12//18
f 8//2 13//2 9//2
f 8//2 9//2 3//2
f 8//2 3//2 1//2
f 2//1 6//1 7//1
f 2//1 7//1 1//1
f 10//11 14//11 11//11
f 10//11 11//11 5//11
