# Blender 4.0.0
# www.blender.org
o decimated_mesh
v 0.005819 0.009981 -0.000116
v 0.003199 0.012612 -0.000061
v 0.003199 0.013009 -0.000124
v 0.003199 0.009981 0.001910
v 0.003199 0.009981 0.007222
v 0.003199 0.015294 0.000092
v 0.008192 0.015056 0.000057
v 0.005819 0.009981 0.009246
v 0.003199 0.012613 0.009191
v 0.008439 0.015300 0.000138
v 0.008416 0.009981 0.000094
v 0.009882 0.015229 0.001084
v 0.003199 0.013009 0.009254
v 0.008405 0.016888 0.001178
v 0.008161 0.016995 0.001349
v 0.008506 0.016951 0.001500
v 0.009791 0.015534 0.001197
v 0.010161 0.015227 0.001467
v 0.010093 0.015036 0.001271
v 0.010070 0.009981 0.001230
v 0.008229 0.017062 0.001700
v 0.009960 0.015497 0.001499
v 0.003199 0.016946 0.001203
v 0.008212 0.017069 0.007429
v 0.008515 0.016948 0.007625
v 0.010176 0.009981 0.001494
v 0.008192 0.015056 0.009072
v 0.003199 0.015292 0.009039
v 0.003199 0.017080 0.001694
v 0.008390 0.016908 0.007939
v 0.010161 0.015251 0.007651
v 0.010171 0.009981 0.007651
v 0.008416 0.009981 0.009036
v 0.008439 0.015300 0.008992
v 0.003199 0.017080 0.007436
v 0.003199 0.016957 0.007912
v 0.009791 0.015534 0.007932
v 0.009883 0.015229 0.008045
v 0.010093 0.015036 0.007859
v 0.010070 0.009981 0.007899
vn -0.1757 -0.1546 -0.9722
vn 0.4957 0.4862 0.7196
vn 0.4966 0.4829 -0.7212
vn -0.0001 1.0000 0.0001
vn 1.0000 -0.0000 -0.0000
vn -0.0024 0.0941 -0.9956
vn -0.5263 -0.5097 -0.6806
vn -0.5261 -0.5094 0.6809
vn 0.0022 0.5580 -0.8298
vn 0.0081 0.3064 0.9519
vn 0.6704 0.6822 -0.2919
vn -0.1756 -0.1545 0.9723
vn 0.9251 0.0018 0.3796
vn 0.0009 0.5606 0.8281
vn 0.2306 0.9384 -0.2573
vn 0.7304 0.4189 0.5395
vn 0.7724 0.3010 -0.5593
vn 0.6695 0.6550 0.3503
vn -0.0017 0.9649 -0.2626
vn 0.2176 0.9499 -0.2243
vn 0.7363 0.4175 -0.5325
vn 0.3716 0.9284 -0.0000
vn 0.0021 1.0000 -0.0000
vn 1.0000 0.0020 0.0008
vn 0.2397 0.9466 0.2157
vn 0.0024 0.9683 0.2497
vn 0.7177 0.6963 0.0044
vn 0.0070 0.8530 -0.5219
vn 0.7356 0.5858 -0.3402
vn 0.7720 0.2969 0.5621
vn 0.9274 0.0008 -0.3741
vn -0.0022 0.0938 0.9956
vn 0.4184 0.4228 0.8039
vn 0.4250 0.4236 -0.8000
vn 0.3046 0.0067 -0.9525
vn -0.0000 1.0000 0.0001
vn -0.0000 1.0000 -0.0000
vn -0.0000 1.0000 -0.0001
vn -0.0001 1.0000 -0.0001
vn 0.0805 -0.0036 -0.9967
vn 0.0277 0.0212 -0.9994
vn 0.0067 0.5479 -0.8365
vn 0.3031 0.0066 0.9529
vn 0.6652 0.0029 0.7467
vn 0.6650 0.6652 -0.3395
vn 0.9505 -0.0019 0.3106
vn 0.6651 0.0029 -0.7468
vn 0.0067 0.5477 0.8366
vn 0.6865 0.6993 0.1995
vn 0.0037 0.9819 -0.1893
vn 0.3711 0.9286 -0.0001
vn 0.0035 1.0000 -0.0012
vn 1.0000 0.0030 -0.0001
vn 0.0074 0.9542 0.2991
vn 0.7071 0.7071 -0.0006
vn 0.5486 0.0046 0.8361
vn 0.5664 -0.0027 0.8241
vn 0.8027 0.5964 -0.0024
vn 0.5664 -0.0027 -0.8241
vn 0.5483 0.0046 -0.8363
vn 0.0080 0.3061 -0.9520
vn 0.9459 -0.0017 -0.3246
vn 0.0277 0.0212 0.9994
vn 0.0806 -0.0036 0.9967
vn -0.0001 1.0000 -0.0000
vn 0.0001 1.0000 -0.0000
vn 0.9274 -0.0013 -0.3741
vn 0.9450 0.0011 -0.3270
vn 1.0000 0.0001 -0.0000
vn 0.4852 0.4862 -0.7267
vn 0.5100 0.4288 -0.7457
vn 0.6962 0.6791 0.2327
vn 0.9494 0.0019 0.3141
vn 0.9251 -0.0012 0.3796
vn 0.4836 0.4897 0.7255
vn 0.6574 0.6689 0.3472
vn 0.6598 0.6707 -0.3389
vn 0.6754 0.6756 -0.2956
vn 0.5100 0.4288 0.7457
s 0
f 1//1 2//1 3//1
f 38//2 30//2 34//2
f 12//3 10//3 14//3
f 1//4 26//4 11//4
f 6//5 29//5 2//5
f 3//6 6//6 7//6
f 1//7 4//7 2//7
f 5//8 8//8 9//8
f 14//9 6//9 23//9
f 28//10 27//10 34//10
f 22//11 17//11 14//11
f 9//12 8//12 13//12
f 31//13 40//13 32//13
f 28//14 30//14 36//14
f 14//15 15//15 16//15
f 37//16 38//16 31//16
f 12//17 18//17 19//17
f 30//18 31//18 25//18
f 29//19 15//19 23//19
f 15//20 21//20 16//20
f 17//21 18//21 12//21
f 16//22 24//22 25//22
f 24//23 29//23 35//23
f 26//24 31//24 32//24
f 24//25 30//25 25//25
f 36//26 24//26 35//26
f 25//27 31//27 22//27
f 23//28 15//28 14//28
f 22//29 18//29 17//29
f 31//30 38//30 39//30
f 20//31 18//31 26//31
f 27//32 28//32 13//32
f 37//33 30//33 38//33
f 14//34 17//34 12//34
f 7//35 10//35 11//35
f 8//36 32//36 5//36
f 5//37 26//37 4//37
f 4//38 26//38 1//38
f 11//37 26//37 20//37
f 26//37 5//37 32//37
f 40//37 32//37 33//37
f 33//39 32//39 8//39
f 28//5 35//5 36//5
f 35//5 5//5 29//5
f 23//5 29//5 6//5
f 6//5 2//5 3//5
f 2//5 29//5 4//5
f 4//5 29//5 5//5
f 5//5 35//5 9//5
f 35//5 28//5 9//5
f 13//5 9//5 28//5
f 11//40 1//40 7//40
f 1//41 3//41 7//41
f 14//42 10//42 6//42
f 33//43 34//43 27//43
f 39//44 38//44 40//44
f 16//45 22//45 14//45
f 31//46 39//46 40//46
f 20//47 12//47 19//47
f 28//48 34//48 30//48
f 30//49 37//49 31//49
f 29//50 21//50 15//50
f 16//51 21//51 24//51
f 24//52 21//52 29//52
f 26//53 18//53 31//53
f 36//54 30//54 24//54
f 22//55 16//55 25//55
f 34//56 33//56 38//56
f 33//57 40//57 38//57
f 18//58 22//58 31//58
f 12//59 20//59 11//59
f 11//60 10//60 12//60
f 6//61 10//61 7//61
f 20//62 19//62 18//62
f 13//63 8//63 27//63
f 8//64 33//64 27//64
f 11//4 1//4 20//4
f 20//65 1//65 26//65
f 26//37 1//37 8//37
f 8//66 4//66 5//66
f 8//66 1//66 4//66
f 4//5 2//5 36//5
f 36//5 2//5 3//5
f 36//5 3//5 6//5
f 19//67 26//67 20//67
f 19//68 18//68 26//68
f 32//37 26//37 8//37
f 32//65 8//65 40//65
f 40//39 8//39 33//39
f 5//5 4//5 36//5
f 35//5 36//5 29//5
f 29//69 36//69 23//69
f 23//5 36//5 6//5
f 5//5 36//5 9//5
f 9//5 36//5 13//5
f 13//5 36//5 28//5
f 14//70 17//70 10//70
f 17//71 12//71 10//71
f 25//72 37//72 31//72
f 39//73 32//73 31//73
f 39//74 40//74 32//74
f 34//75 37//75 30//75
f 37//76 25//76 30//76
f 16//77 17//77 14//77
f 16//78 22//78 17//78
f 34//79 38//79 37//79
