# Blender 4.0.0
# www.blender.org
o decimated_mesh
v 0.010186 -0.009968 0.007436
v 0.010161 -0.009968 0.007690
v 0.010186 -0.015036 0.007436
v 0.010186 -0.009968 0.002031
v 0.010093 -0.009968 0.007859
v 0.010161 -0.015036 0.007690
v 0.010152 -0.015234 0.007662
v 0.010186 -0.015036 0.001694
v 0.010185 -0.009968 0.001693
v 0.010093 -0.015036 0.007859
v 0.009924 -0.009968 0.008029
v 0.010039 -0.015418 0.007436
v 0.009882 -0.015309 0.008000
v 0.009846 -0.015590 0.007707
v 0.010152 -0.015234 0.001467
v 0.010161 -0.015036 0.001440
v 0.010161 -0.009968 0.001440
v 0.009924 -0.015036 0.008029
v 0.009869 -0.015613 0.007436
v 0.010039 -0.015418 0.001694
v 0.009791 -0.015535 0.007932
v 0.009491 -0.015246 0.008302
v 0.009701 -0.015783 0.007436
v 0.009846 -0.015590 0.001422
v 0.009882 -0.015309 0.001129
v 0.010093 -0.015036 0.001271
v 0.010093 -0.009968 0.001271
v 0.008502 -0.009968 0.008992
v 0.009869 -0.015613 0.001694
v 0.008484 -0.015254 0.008980
v 0.008687 -0.016796 0.007436
v 0.009701 -0.015783 0.001694
v 0.009791 -0.015535 0.001197
v 0.009924 -0.015036 0.001101
v 0.009491 -0.015246 0.000828
v 0.009924 -0.009968 0.001101
v 0.008278 -0.009968 0.009060
v 0.008777 -0.016548 0.007932
v 0.008278 -0.015036 0.009056
v 0.008278 -0.015301 0.009005
v 0.008278 -0.015470 0.008914
v 0.008442 -0.015879 0.008618
v 0.008494 -0.016936 0.007707
v 0.008517 -0.016956 0.007436
v 0.008687 -0.016796 0.001694
v 0.008484 -0.015254 0.000150
v 0.008552 -0.016661 0.008014
v 0.008415 -0.016887 0.007932
v 0.007940 -0.015036 0.009088
v 0.008293 -0.016964 0.007802
v 0.008278 -0.017049 0.007436
v 0.008517 -0.016956 0.001694
v 0.008494 -0.016936 0.001422
v 0.008777 -0.016548 0.001197
v 0.008278 -0.015301 0.000125
v 0.008278 -0.015036 0.000073
v 0.008442 -0.015879 0.000512
v 0.008278 -0.015470 0.000216
v 0.008502 -0.009968 0.000138
v 0.008189 -0.016908 0.007954
v 0.002918 -0.015323 0.009017
v 0.002918 -0.015492 0.008926
v 0.007940 -0.017008 0.007774
v 0.007940 -0.017080 0.007436
v 0.008278 -0.017049 0.001694
v 0.008293 -0.016964 0.001328
v 0.008415 -0.016887 0.001197
v 0.008552 -0.016661 0.001115
v 0.007940 -0.015036 0.000042
v 0.008278 -0.009968 0.000070
v 0.002918 -0.015036 0.009090
v 0.002918 -0.017008 0.007774
v 0.002918 -0.017080 0.007436
v 0.007940 -0.017080 0.001694
v 0.007940 -0.017008 0.001355
v 0.008189 -0.016908 0.001175
v 0.002918 -0.015323 0.000113
v 0.002918 -0.015492 0.000204
v 0.005913 -0.009968 0.009254
v 0.002918 -0.016915 0.007960
v 0.002918 -0.017080 0.001694
v 0.002918 -0.017008 0.001355
v 0.002918 -0.015036 0.000039
v 0.002918 -0.012671 0.009208
v 0.002918 -0.013009 0.009254
v 0.005576 -0.009968 0.009114
v 0.002918 -0.016915 0.001170
v 0.002918 -0.012389 0.009053
v 0.002918 -0.009968 0.007172
v 0.002918 -0.013009 -0.000124
v 0.005913 -0.009968 -0.000124
v 0.002918 -0.009968 0.001957
v 0.002918 -0.012671 -0.000078
v 0.005576 -0.009968 0.000015
v 0.002918 -0.012389 0.000077
vn -0.0000 0.9782 0.2074
vn -0.0000 -1.0000 -0.0000
vn 0.3169 -0.0020 0.9484
vn 0.0903 -0.9959 -0.0000
vn -0.0039 0.4737 0.8807
vn 0.9953 -0.0010 -0.0965
vn -0.9272 -0.0000 0.3745
vn 0.9233 -0.0916 0.3729
vn 0.7111 -0.7030 -0.0000
vn 0.7748 -0.3118 0.5500
vn 0.7365 -0.5937 -0.3242
vn 0.1140 -0.5583 0.8218
vn -0.9861 0.1662 -0.0000
vn 0.0039 -0.4737 0.8807
vn 0.6985 -0.1793 0.6927
vn 0.5835 -0.1722 0.7936
vn 0.7082 -0.6940 0.1296
vn 0.1166 -0.1892 0.9750
vn 0.0008 -0.8841 -0.4672
vn 0.7438 -0.4495 0.4947
vn 0.7748 -0.3118 -0.5500
vn 0.9233 -0.0916 -0.3729
vn 0.6985 -0.1793 -0.6927
vn 0.5835 -0.1722 -0.7936
vn 0.4093 -0.5208 0.7491
vn 0.3169 -0.0020 -0.9484
vn 0.1166 -0.1892 -0.9750
vn 0.3603 -0.9328 -0.0000
vn 0.7438 -0.4495 -0.4947
vn -0.5561 0.0029 0.8311
vn 0.5153 -0.5515 0.6559
vn -0.5561 0.0029 -0.8311
vn -0.0000 0.9782 -0.2074
vn 0.0019 -0.2709 -0.9626
vn 0.1140 -0.5583 -0.8218
vn 0.2677 -0.9180 0.2926
vn 0.2337 -0.9492 0.2109
vn 0.3584 -0.9279 0.1025
vn -0.8502 0.5265 -0.0000
vn 0.4953 -0.4706 0.7302
vn 0.2443 -0.4901 0.8367
vn 0.0029 -0.5585 0.8295
vn 0.0980 -0.9101 -0.4027
vn 0.7100 -0.0000 0.7042
vn 0.1356 -0.1336 0.9817
vn 0.0963 -0.9720 -0.2142
vn 0.3584 -0.9279 -0.1025
vn 0.2677 -0.9180 -0.2926
vn 0.6648 -0.6722 -0.3260
vn 0.2337 -0.9492 -0.2109
vn 0.5153 -0.5515 -0.6559
vn 0.4179 -0.4384 0.7957
vn 0.0019 -0.2709 0.9626
vn 0.2443 -0.4901 -0.8367
vn 0.6648 -0.6722 0.3260
vn 0.7365 -0.5937 0.3242
vn 0.0963 -0.9720 0.2142
vn 1.0000 -0.0000 -0.0000
vn 0.7100 -0.0000 -0.7042
vn 0.4093 -0.5208 -0.7491
vn 0.0029 -0.5585 -0.8295
vn 0.0980 -0.9101 0.4027
vn 0.4953 -0.4706 -0.7302
vn -0.9272 -0.0000 -0.3745
vn 0.9952 -0.0011 0.0977
vn 0.0008 -0.8841 0.4672
vn 1.0000 -0.0000 -0.0001
vn -0.1356 0.1336 0.9817
vn -0.3538 0.3774 0.8558
vn 0.0365 -0.0292 0.9989
vn 0.7082 -0.6940 -0.1296
vn -0.4179 0.4384 0.7957
vn -0.4999 0.5312 0.6840
vn 0.3538 -0.3774 0.8558
vn 0.4999 -0.5312 0.6840
vn 0.0365 -0.0292 -0.9989
vn 0.9952 -0.0000 0.0977
vn 0.9272 -0.0000 0.3745
vn 0.9936 -0.0563 0.0975
vn 0.9861 -0.1662 -0.0000
vn 1.0000 0.0001 -0.0021
vn 0.8502 -0.5265 -0.0000
vn 0.7589 -0.6369 0.1357
vn 0.9936 -0.0563 -0.0975
vn 0.9952 -0.0000 -0.0977
vn 0.9955 0.0001 -0.0953
vn 0.5607 -0.0000 0.8280
vn 0.7505 -0.6496 0.1217
vn 0.7561 -0.6544 -0.0000
vn 0.7589 -0.6369 -0.1357
vn 0.5081 -0.4253 0.7490
vn 0.5068 -0.4299 0.7473
vn 0.6684 -0.6685 0.3260
vn 0.4929 -0.4606 0.7382
vn 0.4914 -0.4879 0.7215
vn 0.5079 -0.5080 0.6956
vn 0.6698 -0.6728 0.3143
vn 0.6989 -0.7020 0.1365
vn 0.7016 -0.7017 0.1235
vn 0.7030 -0.7007 0.1220
vn 0.9272 -0.0000 -0.3745
vn 0.5516 -0.0037 0.8341
vn 0.5576 -0.0758 0.8266
vn 0.2904 -0.0007 0.9569
vn 0.3437 -0.0033 0.9391
vn 0.7083 -0.7059 -0.0000
vn 0.7505 -0.6496 -0.1217
vn 0.7030 -0.7007 -0.1220
vn 0.7016 -0.7017 -0.1235
vn 0.6989 -0.7020 -0.1365
vn 0.6698 -0.6728 -0.3143
vn 0.6684 -0.6685 -0.3260
vn 0.5080 -0.5080 -0.6956
vn 0.4914 -0.4879 -0.7215
vn 0.4929 -0.4606 -0.7382
vn 0.5068 -0.4299 -0.7473
vn 0.5081 -0.4253 -0.7490
vn 0.2543 -0.4974 0.8294
vn 0.1591 -0.1881 0.9692
vn 0.2083 -0.4633 0.8614
vn 0.6344 -0.6790 0.3694
vn 0.0989 -0.5566 0.8249
vn 0.1319 -0.5601 0.8178
vn 0.6826 -0.7218 0.1147
vn 0.6871 -0.7266 -0.0000
vn 0.7071 -0.7072 -0.0000
vn 0.0817 -0.0000 0.9967
vn 0.0921 -0.0007 0.9958
vn 0.0904 -0.1897 0.9777
vn 0.6826 -0.7218 -0.1147
vn 0.6344 -0.6790 -0.3694
vn 0.1319 -0.5601 -0.8178
vn 0.0989 -0.5566 -0.8249
vn 0.2543 -0.4974 -0.8294
vn 0.5576 -0.0758 -0.8266
vn 0.2083 -0.4633 -0.8614
vn 0.1591 -0.1881 -0.9692
vn 0.3437 -0.0033 -0.9391
vn 0.5516 -0.0037 -0.8341
vn 0.5607 -0.0000 -0.8280
vn 0.0042 -0.5553 0.8317
vn 0.0034 -0.2938 0.9559
vn 0.1242 -0.9005 0.4168
vn 0.0016 -0.5618 0.8273
vn 0.0017 -0.8748 0.4845
vn 0.0829 -0.9152 0.3944
vn 0.1033 -0.9698 0.2210
vn 0.0883 -0.9744 0.2066
vn 0.0237 -0.0233 0.9994
vn 0.0005 -0.0805 0.9968
vn 0.0005 -0.2478 0.9688
vn 0.1033 -0.9698 -0.2210
vn 0.0829 -0.9152 -0.3944
vn 0.1242 -0.9005 -0.4168
vn 0.0883 -0.9744 -0.2066
vn 0.0017 -0.8748 -0.4845
vn 0.0016 -0.5618 -0.8273
vn 0.0042 -0.5553 -0.8317
vn 0.0039 -0.4737 -0.8807
vn 0.0034 -0.2938 -0.9559
vn 0.0904 -0.1897 -0.9777
vn 0.2904 -0.0007 -0.9569
vn 0.0921 -0.0007 -0.9958
vn -0.0000 -0.8935 0.4490
vn -0.0000 -0.9782 0.2074
vn -0.0000 -0.8935 -0.4490
vn -0.0000 -0.9782 -0.2074
vn 0.0005 -0.2478 -0.9688
vn 0.0005 -0.0805 -0.9968
vn 0.0237 -0.0233 -0.9994
vn 0.0817 -0.0000 -0.9967
s 0
f 82//1 81//1 74//1 75//1
f 36//2 27//2 17//2 9//2 4//2 1//2 2//2 5//2 11//2 28//2 37//2 79//2 86//2 89//2 92//2 94//2 91//2 70//2 59//2
f 30//3 28//3 37//3 39//3
f 74//4 65//4 51//4 64//4
f 58//5 55//5 77//5 78//5
f 17//6 9//6 8//6 15//6 16//6
f 27//7 26//7 16//7 17//7
f 6//8 10//8 7//8
f 45//9 32//9 29//9 20//9 12//9 19//9 23//9 31//9 44//9 52//9
f 7//10 10//10 13//10
f 24//11 33//11 15//11
f 41//12 60//12 48//12 42//12
f 8//13 15//13 7//13 3//13
f 40//14 61//14 62//14 41//14
f 10//15 18//15 13//15
f 13//16 18//16 22//16
f 31//17 23//17 19//17 12//17 7//17 14//17 43//17 44//17
f 39//18 49//18 40//18 30//18
f 75//19 82//19 87//19 76//19
f 13//20 21//20 7//20
f 15//21 25//21 26//21
f 15//22 26//22 16//22
f 25//23 34//23 26//23
f 25//24 35//24 34//24
f 48//25 47//25 42//25
f 70//26 59//26 46//26 56//26
f 55//27 69//27 56//27 46//27
f 65//28 52//28 44//28 51//28
f 15//29 33//29 25//29
f 46//30 35//30 34//30 36//30 59//30
f 38//31 47//31 48//31
f 18//32 22//32 30//32 28//32 11//32
f 64//33 73//33 72//33 63//33
f 83//34 69//34 55//34 77//34
f 76//35 58//35 57//35 67//35
f 43//36 48//36 50//36
f 43//37 50//37 51//37
f 43//38 51//38 44//38
f 15//39 20//39 12//39 7//39
f 22//40 30//40 42//40 47//40 38//40 21//40 13//40
f 41//41 42//41 30//41 40//41
f 60//42 41//42 62//42 80//42
f 76//43 67//43 66//43 75//43
f 18//44 10//44 5//44 11//44
f 93//45 90//45 91//45
f 75//46 66//46 65//46 74//46
f 52//47 65//47 53//47
f 53//48 66//48 67//48
f 33//49 24//49 53//49 67//49 54//49
f 53//50 65//50 66//50
f 54//51 67//51 68//51
f 93//52 94//52 95//52
f 71//53 61//53 40//53 49//53
f 58//54 55//54 46//54 57//54
f 14//55 21//55 38//55 48//55 43//55
f 7//56 21//56 14//56
f 63//57 64//57 51//57 50//57
f 82//58 87//58 78//58 77//58 83//58 90//58 93//58 95//58 92//58 89//58 88//58 84//58 85//58 71//58 61//58 62//58 80//58 72//58 73//58 81//58
f 36//59 27//59 26//59 34//59
f 68//60 67//60 57//60
f 58//61 76//61 87//61 78//61
f 60//62 63//62 50//62 48//62
f 46//63 35//63 25//63 33//63 54//63 68//63 57//63
f 10//64 5//64 2//64 6//64
f 3//65 1//65 2//65 6//65 7//65
f 81//2 74//2 64//2 73//2
f 80//66 72//66 63//66 60//66
f 9//67 4//67 1//67 3//67 8//67
f 79//68 84//68 85//68
f 79//69 86//69 84//69
f 49//70 39//70 37//70 79//70 85//70 71//70
f 32//71 45//71 52//71 53//71 24//71 15//71 20//71 29//71
f 84//72 86//72 88//72
f 86//73 89//73 88//73
f 91//74 94//74 93//74
f 92//75 95//75 94//75
f 69//76 83//76 90//76 91//76 70//76 56//76
f 2//77 6//77 3//77
f 2//77 3//77 1//77
f 3//58 8//58 4//58
f 3//58 4//58 1//58
f 4//2 17//2 9//2
f 4//2 27//2 17//2
f 4//2 36//2 27//2
f 4//2 59//2 36//2
f 4//2 70//2 59//2
f 4//2 91//2 70//2
f 4//2 94//2 91//2
f 4//2 92//2 94//2
f 4//2 89//2 92//2
f 4//2 86//2 89//2
f 4//2 79//2 86//2
f 4//2 37//2 79//2
f 4//2 28//2 37//2
f 4//2 11//2 28//2
f 4//2 5//2 11//2
f 4//2 2//2 5//2
f 4//2 1//2 2//2
f 5//78 10//78 6//78
f 5//78 6//78 2//78
f 6//79 7//79 3//79
f 7//80 15//80 8//80
f 7//80 8//80 3//80
f 8//81 9//81 4//81
f 11//44 18//44 10//44
f 11//44 10//44 5//44
f 12//82 20//82 15//82
f 12//82 15//82 7//82
f 14//83 12//83 7//83
f 15//84 16//84 8//84
f 16//85 17//85 8//85
f 17//86 9//86 8//86
f 28//87 18//87 11//87
f 14//88 19//88 12//88
f 19//89 29//89 20//89
f 19//89 20//89 12//89
f 20//90 24//90 15//90
f 22//91 30//91 13//91
f 30//92 21//92 13//92
f 38//93 14//93 21//93
f 30//94 42//94 21//94
f 42//95 47//95 21//95
f 47//96 38//96 21//96
f 38//97 43//97 14//97
f 43//98 31//98 14//98
f 31//99 23//99 14//99
f 23//100 19//100 14//100
f 26//101 27//101 17//101
f 26//101 17//101 16//101
f 28//102 30//102 18//102
f 30//103 22//103 18//103
f 37//104 39//104 28//104
f 39//105 30//105 28//105
f 23//106 32//106 29//106
f 23//106 29//106 19//106
f 29//107 24//107 20//107
f 29//108 32//108 24//108
f 32//109 45//109 24//109
f 45//110 53//110 24//110
f 53//111 54//111 24//111
f 54//112 33//112 24//112
f 54//113 68//113 33//113
f 68//114 57//114 33//114
f 57//115 46//115 33//115
f 46//116 25//116 33//116
f 46//117 35//117 25//117
f 34//59 36//59 27//59
f 34//59 27//59 26//59
f 41//118 42//118 30//118
f 39//119 40//119 30//119
f 40//120 41//120 30//120
f 48//121 43//121 38//121
f 41//122 60//122 42//122
f 60//123 48//123 42//123
f 44//124 31//124 43//124
f 44//125 52//125 45//125
f 44//125 45//125 31//125
f 45//126 32//126 23//126
f 45//126 23//126 31//126
f 79//127 49//127 37//127
f 49//128 39//128 37//128
f 49//129 40//129 39//129
f 52//130 53//130 45//130
f 67//131 54//131 53//131
f 67//132 76//132 57//132
f 76//133 58//133 57//133
f 58//134 46//134 57//134
f 34//135 35//135 46//135
f 58//136 55//136 46//136
f 55//137 56//137 46//137
f 56//138 59//138 46//138
f 59//139 34//139 46//139
f 59//140 36//140 34//140
f 40//14 61//14 62//14
f 40//14 62//14 41//14
f 62//141 60//141 41//141
f 49//142 61//142 40//142
f 60//143 50//143 48//143
f 62//144 80//144 60//144
f 80//145 63//145 60//145
f 63//146 50//146 60//146
f 63//147 51//147 50//147
f 63//148 64//148 51//148
f 64//4 74//4 65//4
f 64//4 65//4 51//4
f 65//28 52//28 44//28
f 65//28 44//28 51//28
f 85//149 49//149 79//149
f 85//150 71//150 49//150
f 71//151 61//151 49//151
f 65//152 75//152 66//152
f 75//153 76//153 66//153
f 76//154 67//154 66//154
f 74//155 75//155 65//155
f 75//156 87//156 76//156
f 87//157 78//157 76//157
f 78//158 58//158 76//158
f 78//159 77//159 55//159
f 78//159 55//159 58//159
f 77//160 69//160 55//160
f 69//161 56//161 55//161
f 70//162 59//162 56//162
f 69//163 70//163 56//163
f 61//58 85//58 71//58
f 61//58 84//58 85//58
f 61//58 88//58 84//58
f 61//58 89//58 88//58
f 61//58 92//58 89//58
f 61//58 95//58 92//58
f 61//58 93//58 95//58
f 61//58 90//58 93//58
f 61//58 83//58 90//58
f 61//58 77//58 83//58
f 61//58 78//58 77//58
f 61//58 87//58 78//58
f 61//58 82//58 87//58
f 61//58 81//58 82//58
f 61//58 73//58 81//58
f 61//58 72//58 73//58
f 61//58 80//58 72//58
f 61//58 62//58 80//58
f 72//164 63//164 80//164
f 72//165 73//165 64//165
f 72//165 64//165 63//165
f 73//2 81//2 74//2
f 73//2 74//2 64//2
f 82//166 87//166 75//166
f 74//167 81//167 82//167
f 74//167 82//167 75//167
f 83//168 69//168 77//168
f 83//169 90//169 69//169
f 90//170 91//170 69//170
f 91//171 70//171 69//171
