mtllib material.mtl
usemtl material_0
v -0.00105571 -1.00000000 0.00049927
v -0.00105571 -1.00000000 -0.00050049
v -0.00005571 -1.00000000 -0.00050049
v -0.00005571 -1.00000000 0.00049927
v 0.36436740 0.53973510 0.02747559
v 0.36436740 -0.53946720 0.02747314
v -0.36436730 -0.53946730 0.02747314
v -0.36436730 0.53973510 0.02747559
vn 0.00000000 1.00000000 0.00000000
vn 0.00000000 1.00000000 0.00000000
vn 0.00000000 1.00000000 0.00000000
vn 0.00000000 1.00000000 0.00000000
vn 0.00000000 -0.00000028 1.00000000
vn 0.00000000 -0.00000028 1.00000000
vn 0.00000000 -0.00000028 1.00000000
vn 0.00000000 -0.00000028 1.00000000
vt -9.41095400 -9.75546600
vt -9.41048000 -9.75546600
vt -9.41048000 -9.75594000
vt -9.41095400 -9.75594000
vt -9.00000000 1.00000000
vt -9.00000000 0.00000000
vt -10.00000000 0.00000000
vt -10.00000000 1.00000000
f 3/3/3 2/2/2 1/1/1
f 4/4/4 3/3/3 1/1/1
f 7/7/7 6/6/6 5/5/5
f 8/8/8 7/7/7 5/5/5

