mtllib material.mtl
usemtl material_0
v -0.01800000 0.00580000 -0.08650000
v -0.01800000 0.00580000 -0.07950000
v -0.00850000 0.00580000 -0.07950000
v -0.00850000 0.00580000 -0.08650000
v -0.01800000 0.01030000 -0.08650000
v -0.01800000 0.00580000 -0.08650000
v -0.00850000 0.00580000 -0.08650000
v -0.00850000 0.01030000 -0.08650000
v -0.00850000 0.01030000 -0.08650000
v -0.00850000 0.00580000 -0.08650000
v -0.00850000 0.00580000 -0.07950000
v -0.00850000 0.01030000 -0.07950000
v -0.00850000 0.01030000 -0.07950000
v -0.00850000 0.00580000 -0.07950000
v -0.01800000 0.00580000 -0.07950000
v -0.01800000 0.01030000 -0.07950000
v -0.01800000 0.01030000 -0.07950000
v -0.01800000 0.00580000 -0.07950000
v -0.01800000 0.00580000 -0.08650000
v -0.01800000 0.01030000 -0.08650000
v -0.00380000 0.00580000 -0.08650000
v -0.00380000 0.00580000 -0.07950000
v 0.00570000 0.00580000 -0.07950000
v 0.00570000 0.00580000 -0.08650000
v -0.00380000 0.01030000 -0.08650000
v -0.00380000 0.00580000 -0.08650000
v 0.00570000 0.00580000 -0.08650000
v 0.00570000 0.01030000 -0.08650000
v 0.00570000 0.01030000 -0.08650000
v 0.00570000 0.00580000 -0.08650000
v 0.00570000 0.00580000 -0.07950000
v 0.00570000 0.01030000 -0.07950000
v 0.00570000 0.01030000 -0.07950000
v 0.00570000 0.00580000 -0.07950000
v -0.00380000 0.00580000 -0.07950000
v -0.00380000 0.01030000 -0.07950000
v -0.00380000 0.01030000 -0.07950000
v -0.00380000 0.00580000 -0.07950000
v -0.00380000 0.00580000 -0.08650000
v -0.00380000 0.01030000 -0.08650000
v 0.01000000 0.00580000 -0.08650000
v 0.01000000 0.00580000 -0.07950000
v 0.01950000 0.00580000 -0.07950000
v 0.01950000 0.00580000 -0.08650000
v 0.01000000 0.01030000 -0.08650000
v 0.01000000 0.00580000 -0.08650000
v 0.01950000 0.00580000 -0.08650000
v 0.01950000 0.01030000 -0.08650000
v 0.01950000 0.01030000 -0.08650000
v 0.01950000 0.00580000 -0.08650000
v 0.01950000 0.00580000 -0.07950000
v 0.01950000 0.01030000 -0.07950000
v 0.01950000 0.01030000 -0.07950000
v 0.01950000 0.00580000 -0.07950000
v 0.01000000 0.00580000 -0.07950000
v 0.01000000 0.01030000 -0.07950000
v 0.01000000 0.01030000 -0.07950000
v 0.01000000 0.00580000 -0.07950000
v 0.01000000 0.00580000 -0.08650000
v 0.01000000 0.01030000 -0.08650000
v -0.01800000 0.00580000 -0.07690001
v -0.01800000 0.00580000 -0.06990000
v -0.00850000 0.00580000 -0.06990000
v -0.00850000 0.00580000 -0.07690001
v -0.01800000 0.01030000 -0.07690001
v -0.01800000 0.00580000 -0.07690001
v -0.00850000 0.00580000 -0.07690001
v -0.00850000 0.01030000 -0.07690001
v -0.00850000 0.01030000 -0.07690001
v -0.00850000 0.00580000 -0.07690001
v -0.00850000 0.00580000 -0.06990000
v -0.00850000 0.01030000 -0.06990000
v -0.00850000 0.01030000 -0.06990000
v -0.00850000 0.00580000 -0.06990000
v -0.01800000 0.00580000 -0.06990000
v -0.01800000 0.01030000 -0.06990000
v -0.01800000 0.01030000 -0.06990000
v -0.01800000 0.00580000 -0.06990000
v -0.01800000 0.00580000 -0.07690001
v -0.01800000 0.01030000 -0.07690001
v -0.00380000 0.00580000 -0.07690001
v -0.00380000 0.00580000 -0.06990000
v 0.00570000 0.00580000 -0.06990000
v 0.00570000 0.00580000 -0.07690001
v -0.00380000 0.01030000 -0.07690001
v -0.00380000 0.00580000 -0.07690001
v 0.00570000 0.00580000 -0.07690001
v 0.00570000 0.01030000 -0.07690001
v 0.00570000 0.01030000 -0.07690001
v 0.00570000 0.00580000 -0.07690001
v 0.00570000 0.00580000 -0.06990000
v 0.00570000 0.01030000 -0.06990000
v 0.00570000 0.01030000 -0.06990000
v 0.00570000 0.00580000 -0.06990000
v -0.00380000 0.00580000 -0.06990000
v -0.00380000 0.01030000 -0.06990000
v -0.00380000 0.01030000 -0.06990000
v -0.00380000 0.00580000 -0.06990000
v -0.00380000 0.00580000 -0.07690001
v -0.00380000 0.01030000 -0.07690001
v 0.01000000 0.00580000 -0.07690001
v 0.01000000 0.00580000 -0.06990000
v 0.01950000 0.00580000 -0.06990000
v 0.01950000 0.00580000 -0.07690001
v 0.01000000 0.01030000 -0.07690001
v 0.01000000 0.00580000 -0.07690001
v 0.01950000 0.00580000 -0.07690001
v 0.01950000 0.01030000 -0.07690001
v 0.01950000 0.01030000 -0.07690001
v 0.01950000 0.00580000 -0.07690001
v 0.01950000 0.00580000 -0.06990000
v 0.01950000 0.01030000 -0.06990000
v 0.01950000 0.01030000 -0.06990000
v 0.01950000 0.00580000 -0.06990000
v 0.01000000 0.00580000 -0.06990000
v 0.01000000 0.01030000 -0.06990000
v 0.01000000 0.01030000 -0.06990000
v 0.01000000 0.00580000 -0.06990000
v 0.01000000 0.00580000 -0.07690001
v 0.01000000 0.01030000 -0.07690001
v -0.01800000 0.00580000 -0.06710000
v -0.01800000 0.00580000 -0.06010000
v -0.00850000 0.00580000 -0.06010000
v -0.00850000 0.00580000 -0.06710000
v -0.01800000 0.01030000 -0.06710000
v -0.01800000 0.00580000 -0.06710000
v -0.00850000 0.00580000 -0.06710000
v -0.00850000 0.01030000 -0.06710000
v -0.00850000 0.01030000 -0.06710000
v -0.00850000 0.00580000 -0.06710000
v -0.00850000 0.00580000 -0.06010000
v -0.00850000 0.01030000 -0.06010000
v -0.00850000 0.01030000 -0.06010000
v -0.00850000 0.00580000 -0.06010000
v -0.01800000 0.00580000 -0.06010000
v -0.01800000 0.01030000 -0.06010000
v -0.01800000 0.01030000 -0.06010000
v -0.01800000 0.00580000 -0.06010000
v -0.01800000 0.00580000 -0.06710000
v -0.01800000 0.01030000 -0.06710000
v -0.00380000 0.00580000 -0.06710000
v -0.00380000 0.00580000 -0.06010000
v 0.00570000 0.00580000 -0.06010000
v 0.00570000 0.00580000 -0.06710000
v -0.00380000 0.01030000 -0.06710000
v -0.00380000 0.00580000 -0.06710000
v 0.00570000 0.00580000 -0.06710000
v 0.00570000 0.01030000 -0.06710000
v 0.00570000 0.01030000 -0.06710000
v 0.00570000 0.00580000 -0.06710000
v 0.00570000 0.00580000 -0.06010000
v 0.00570000 0.01030000 -0.06010000
v 0.00570000 0.01030000 -0.06010000
v 0.00570000 0.00580000 -0.06010000
v -0.00380000 0.00580000 -0.06010000
v -0.00380000 0.01030000 -0.06010000
v -0.00380000 0.01030000 -0.06010000
v -0.00380000 0.00580000 -0.06010000
v -0.00380000 0.00580000 -0.06710000
v -0.00380000 0.01030000 -0.06710000
v 0.01000000 0.00580000 -0.06710000
v 0.01000000 0.00580000 -0.06010000
v 0.01950000 0.00580000 -0.06010000
v 0.01950000 0.00580000 -0.06710000
v 0.01000000 0.01030000 -0.06710000
v 0.01000000 0.00580000 -0.06710000
v 0.01950000 0.00580000 -0.06710000
v 0.01950000 0.01030000 -0.06710000
v 0.01950000 0.01030000 -0.06710000
v 0.01950000 0.00580000 -0.06710000
v 0.01950000 0.00580000 -0.06010000
v 0.01950000 0.01030000 -0.06010000
v 0.01950000 0.01030000 -0.06010000
v 0.01950000 0.00580000 -0.06010000
v 0.01000000 0.00580000 -0.06010000
v 0.01000000 0.01030000 -0.06010000
v 0.01000000 0.01030000 -0.06010000
v 0.01000000 0.00580000 -0.06010000
v 0.01000000 0.00580000 -0.06710000
v 0.01000000 0.01030000 -0.06710000
v -0.01800000 0.00580000 -0.05431501
v -0.01800000 0.00580000 -0.03688499
v -0.00850000 0.00580000 -0.03688499
v -0.00850000 0.00580000 -0.05431501
v -0.01800000 0.01030000 -0.05431501
v -0.01800000 0.00580000 -0.05431501
v -0.00850000 0.00580000 -0.05431501
v -0.00850000 0.01030000 -0.05431501
v -0.00850000 0.01030000 -0.05431501
v -0.00850000 0.00580000 -0.05431501
v -0.00850000 0.00580000 -0.03688499
v -0.00850000 0.01030000 -0.03688499
v -0.00850000 0.01030000 -0.03688499
v -0.00850000 0.00580000 -0.03688499
v -0.01800000 0.00580000 -0.03688499
v -0.01800000 0.01030000 -0.03688499
v -0.01800000 0.01030000 -0.03688499
v -0.01800000 0.00580000 -0.03688499
v -0.01800000 0.00580000 -0.05431501
v -0.01800000 0.01030000 -0.05431501
v 0.01000000 0.00580000 -0.05431501
v 0.01000000 0.00580000 -0.03688499
v 0.01950000 0.00580000 -0.03688499
v 0.01950000 0.00580000 -0.05431501
v 0.01000000 0.01030000 -0.05431501
v 0.01000000 0.00580000 -0.05431501
v 0.01950000 0.00580000 -0.05431501
v 0.01950000 0.01030000 -0.05431501
v 0.01950000 0.01030000 -0.05431501
v 0.01950000 0.00580000 -0.05431501
v 0.01950000 0.00580000 -0.03688499
v 0.01950000 0.01030000 -0.03688499
v 0.01950000 0.01030000 -0.03688499
v 0.01950000 0.00580000 -0.03688499
v 0.01000000 0.00580000 -0.03688499
v 0.01000000 0.01030000 -0.03688499
v 0.01000000 0.01030000 -0.03688499
v 0.01000000 0.00580000 -0.03688499
v 0.01000000 0.00580000 -0.05431501
v 0.01000000 0.01030000 -0.05431501
v -0.00380000 0.00580000 -0.05290165
v -0.00380000 0.00580000 -0.04749834
v 0.00570000 0.00580000 -0.04749834
v 0.00570000 0.00580000 -0.05290165
v -0.00380000 0.01030000 -0.05290165
v -0.00380000 0.00580000 -0.05290165
v 0.00570000 0.00580000 -0.05290165
v 0.00570000 0.01030000 -0.05290165
v 0.00570000 0.01030000 -0.05290165
v 0.00570000 0.00580000 -0.05290165
v 0.00570000 0.00580000 -0.04749834
v 0.00570000 0.01030000 -0.04749834
v 0.00570000 0.01030000 -0.04749834
v 0.00570000 0.00580000 -0.04749834
v -0.00380000 0.00580000 -0.04749834
v -0.00380000 0.01030000 -0.04749834
v -0.00380000 0.01030000 -0.04749834
v -0.00380000 0.00580000 -0.04749834
v -0.00380000 0.00580000 -0.05290165
v -0.00380000 0.01030000 -0.05290165
v -0.00380000 0.00580000 -0.04360165
v -0.00380000 0.00580000 -0.03819834
v 0.00570000 0.00580000 -0.03819834
v 0.00570000 0.00580000 -0.04360165
v -0.00380000 0.01030000 -0.04360165
v -0.00380000 0.00580000 -0.04360165
v 0.00570000 0.00580000 -0.04360165
v 0.00570000 0.01030000 -0.04360165
v 0.00570000 0.01030000 -0.04360165
v 0.00570000 0.00580000 -0.04360165
v 0.00570000 0.00580000 -0.03819834
v 0.00570000 0.01030000 -0.03819834
v 0.00570000 0.01030000 -0.03819834
v 0.00570000 0.00580000 -0.03819834
v -0.00380000 0.00580000 -0.03819834
v -0.00380000 0.01030000 -0.03819834
v -0.00380000 0.01030000 -0.03819834
v -0.00380000 0.00580000 -0.03819834
v -0.00380000 0.00580000 -0.04360165
v -0.00380000 0.01030000 -0.04360165
v -0.02081250 0.00580000 -0.03142000
v -0.02081250 0.00580000 -0.02638000
v -0.00988750 0.00580000 -0.02638000
v -0.00988750 0.00580000 -0.03142000
v -0.02081250 0.01030000 -0.03142000
v -0.02081250 0.00580000 -0.03142000
v -0.00988750 0.00580000 -0.03142000
v -0.00988750 0.01030000 -0.03142000
v -0.00988750 0.01030000 -0.03142000
v -0.00988750 0.00580000 -0.03142000
v -0.00988750 0.00580000 -0.02638000
v -0.00988750 0.01030000 -0.02638000
v -0.00988750 0.01030000 -0.02638000
v -0.00988750 0.00580000 -0.02638000
v -0.02081250 0.00580000 -0.02638000
v -0.02081250 0.01030000 -0.02638000
v -0.02081250 0.01030000 -0.02638000
v -0.02081250 0.00580000 -0.02638000
v -0.02081250 0.00580000 -0.03142000
v -0.02081250 0.01030000 -0.03142000
v -0.00448250 0.00580000 -0.03142000
v -0.00448250 0.00580000 -0.02638000
v 0.00644250 0.00580000 -0.02638000
v 0.00644250 0.00580000 -0.03142000
v -0.00448250 0.01030000 -0.03142000
v -0.00448250 0.00580000 -0.03142000
v 0.00644250 0.00580000 -0.03142000
v 0.00644250 0.01030000 -0.03142000
v 0.00644250 0.01030000 -0.03142000
v 0.00644250 0.00580000 -0.03142000
v 0.00644250 0.00580000 -0.02638000
v 0.00644250 0.01030000 -0.02638000
v 0.00644250 0.01030000 -0.02638000
v 0.00644250 0.00580000 -0.02638000
v -0.00448250 0.00580000 -0.02638000
v -0.00448250 0.01030000 -0.02638000
v -0.00448250 0.01030000 -0.02638000
v -0.00448250 0.00580000 -0.02638000
v -0.00448250 0.00580000 -0.03142000
v -0.00448250 0.01030000 -0.03142000
v 0.01138750 0.00580000 -0.03142000
v 0.01138750 0.00580000 -0.02638000
v 0.02231250 0.00580000 -0.02638000
v 0.02231250 0.00580000 -0.03142000
v 0.01138750 0.01030000 -0.03142000
v 0.01138750 0.00580000 -0.03142000
v 0.02231250 0.00580000 -0.03142000
v 0.02231250 0.01030000 -0.03142000
v 0.02231250 0.01030000 -0.03142000
v 0.02231250 0.00580000 -0.03142000
v 0.02231250 0.00580000 -0.02638000
v 0.02231250 0.01030000 -0.02638000
v 0.02231250 0.01030000 -0.02638000
v 0.02231250 0.00580000 -0.02638000
v 0.01138750 0.00580000 -0.02638000
v 0.01138750 0.01030000 -0.02638000
v 0.01138750 0.01030000 -0.02638000
v 0.01138750 0.00580000 -0.02638000
v 0.01138750 0.00580000 -0.03142000
v 0.01138750 0.01030000 -0.03142000
v -0.00448250 0.00580000 0.01478000
v -0.00448250 0.00580000 0.01982000
v 0.00644250 0.00580000 0.01982000
v 0.00644250 0.00580000 0.01478000
v -0.00448250 0.01030000 0.01478000
v -0.00448250 0.00580000 0.01478000
v 0.00644250 0.00580000 0.01478000
v 0.00644250 0.01030000 0.01478000
v 0.00644250 0.01030000 0.01478000
v 0.00644250 0.00580000 0.01478000
v 0.00644250 0.00580000 0.01982000
v 0.00644250 0.01030000 0.01982000
v 0.00644250 0.01030000 0.01982000
v 0.00644250 0.00580000 0.01982000
v -0.00448250 0.00580000 0.01982000
v -0.00448250 0.01030000 0.01982000
v -0.00448250 0.01030000 0.01982000
v -0.00448250 0.00580000 0.01982000
v -0.00448250 0.00580000 0.01478000
v -0.00448250 0.01030000 0.01478000
v -0.02081250 0.00580000 0.02378000
v -0.02081250 0.00580000 0.02882000
v -0.00988750 0.00580000 0.02882000
v -0.00988750 0.00580000 0.02378000
v -0.02081250 0.01030000 0.02378000
v -0.02081250 0.00580000 0.02378000
v -0.00988750 0.00580000 0.02378000
v -0.00988750 0.01030000 0.02378000
v -0.00988750 0.01030000 0.02378000
v -0.00988750 0.00580000 0.02378000
v -0.00988750 0.00580000 0.02882000
v -0.00988750 0.01030000 0.02882000
v -0.00988750 0.01030000 0.02882000
v -0.00988750 0.00580000 0.02882000
v -0.02081250 0.00580000 0.02882000
v -0.02081250 0.01030000 0.02882000
v -0.02081250 0.01030000 0.02882000
v -0.02081250 0.00580000 0.02882000
v -0.02081250 0.00580000 0.02378000
v -0.02081250 0.01030000 0.02378000
v -0.00448250 0.00580000 0.02378000
v -0.00448250 0.00580000 0.02882000
v 0.00644250 0.00580000 0.02882000
v 0.00644250 0.00580000 0.02378000
v -0.00448250 0.01030000 0.02378000
v -0.00448250 0.00580000 0.02378000
v 0.00644250 0.00580000 0.02378000
v 0.00644250 0.01030000 0.02378000
v 0.00644250 0.01030000 0.02378000
v 0.00644250 0.00580000 0.02378000
v 0.00644250 0.00580000 0.02882000
v 0.00644250 0.01030000 0.02882000
v 0.00644250 0.01030000 0.02882000
v 0.00644250 0.00580000 0.02882000
v -0.00448250 0.00580000 0.02882000
v -0.00448250 0.01030000 0.02882000
v -0.00448250 0.01030000 0.02882000
v -0.00448250 0.00580000 0.02882000
v -0.00448250 0.00580000 0.02378000
v -0.00448250 0.01030000 0.02378000
v 0.01138750 0.00580000 0.02378000
v 0.01138750 0.00580000 0.02882000
v 0.02231250 0.00580000 0.02882000
v 0.02231250 0.00580000 0.02378000
v 0.01138750 0.01030000 0.02378000
v 0.01138750 0.00580000 0.02378000
v 0.02231250 0.00580000 0.02378000
v 0.02231250 0.01030000 0.02378000
v 0.02231250 0.01030000 0.02378000
v 0.02231250 0.00580000 0.02378000
v 0.02231250 0.00580000 0.02882000
v 0.02231250 0.01030000 0.02882000
v 0.02231250 0.01030000 0.02882000
v 0.02231250 0.00580000 0.02882000
v 0.01138750 0.00580000 0.02882000
v 0.01138750 0.01030000 0.02882000
v 0.01138750 0.01030000 0.02882000
v 0.01138750 0.00580000 0.02882000
v 0.01138750 0.00580000 0.02378000
v 0.01138750 0.01030000 0.02378000
v -0.00850000 0.01030000 -0.08650000
v -0.01710000 0.01090000 -0.08560000
v -0.01800000 0.01030000 -0.08650000
v -0.00940000 0.01090000 -0.08560000
v -0.00940000 0.01090000 -0.08040000
v -0.00850000 0.01030000 -0.07950000
v -0.00850000 0.01030000 -0.08650000
v -0.01710000 0.01090000 -0.08040000
v -0.01800000 0.01030000 -0.08650000
v -0.01800000 0.01030000 -0.07950000
v -0.01800000 0.01030000 -0.07950000
v -0.00850000 0.01030000 -0.07950000
v 0.00570000 0.01030000 -0.08650000
v -0.00290000 0.01090000 -0.08560000
v -0.00380000 0.01030000 -0.08650000
v 0.00480000 0.01090000 -0.08560000
v 0.00480000 0.01090000 -0.08040000
v 0.00570000 0.01030000 -0.07950000
v 0.00570000 0.01030000 -0.08650000
v -0.00290000 0.01090000 -0.08040000
v -0.00380000 0.01030000 -0.08650000
v -0.00380000 0.01030000 -0.07950000
v -0.00380000 0.01030000 -0.07950000
v 0.00570000 0.01030000 -0.07950000
v 0.01950000 0.01030000 -0.08650000
v 0.01090000 0.01090000 -0.08560000
v 0.01000000 0.01030000 -0.08650000
v 0.01860000 0.01090000 -0.08560000
v 0.01860000 0.01090000 -0.08040000
v 0.01950000 0.01030000 -0.07950000
v 0.01950000 0.01030000 -0.08650000
v 0.01090000 0.01090000 -0.08040000
v 0.01000000 0.01030000 -0.08650000
v 0.01000000 0.01030000 -0.07950000
v 0.01000000 0.01030000 -0.07950000
v 0.01950000 0.01030000 -0.07950000
v -0.00850000 0.01030000 -0.07690001
v -0.01710000 0.01090000 -0.07600001
v -0.01800000 0.01030000 -0.07690001
v -0.00940000 0.01090000 -0.07600001
v -0.00940000 0.01090000 -0.07080000
v -0.00850000 0.01030000 -0.06990000
v -0.00850000 0.01030000 -0.07690001
v -0.01710000 0.01090000 -0.07080000
v -0.01800000 0.01030000 -0.07690001
v -0.01800000 0.01030000 -0.06990000
v -0.01800000 0.01030000 -0.06990000
v -0.00850000 0.01030000 -0.06990000
v 0.00570000 0.01030000 -0.07690001
v -0.00290000 0.01090000 -0.07600001
v -0.00380000 0.01030000 -0.07690001
v 0.00480000 0.01090000 -0.07600001
v 0.00480000 0.01090000 -0.07080000
v 0.00570000 0.01030000 -0.06990000
v 0.00570000 0.01030000 -0.07690001
v -0.00290000 0.01090000 -0.07080000
v -0.00380000 0.01030000 -0.07690001
v -0.00380000 0.01030000 -0.06990000
v -0.00380000 0.01030000 -0.06990000
v 0.00570000 0.01030000 -0.06990000
v 0.01950000 0.01030000 -0.07690001
v 0.01090000 0.01090000 -0.07600001
v 0.01000000 0.01030000 -0.07690001
v 0.01860000 0.01090000 -0.07600001
v 0.01860000 0.01090000 -0.07080000
v 0.01950000 0.01030000 -0.06990000
v 0.01950000 0.01030000 -0.07690001
v 0.01090000 0.01090000 -0.07080000
v 0.01000000 0.01030000 -0.07690001
v 0.01000000 0.01030000 -0.06990000
v 0.01000000 0.01030000 -0.06990000
v 0.01950000 0.01030000 -0.06990000
v -0.00850000 0.01030000 -0.06710000
v -0.01710000 0.01090000 -0.06620000
v -0.01800000 0.01030000 -0.06710000
v -0.00940000 0.01090000 -0.06620000
v -0.00940000 0.01090000 -0.06100000
v -0.00850000 0.01030000 -0.06010000
v -0.00850000 0.01030000 -0.06710000
v -0.01710000 0.01090000 -0.06100000
v -0.01800000 0.01030000 -0.06710000
v -0.01800000 0.01030000 -0.06010000
v -0.01800000 0.01030000 -0.06010000
v -0.00850000 0.01030000 -0.06010000
v 0.00570000 0.01030000 -0.06710000
v -0.00290000 0.01090000 -0.06620000
v -0.00380000 0.01030000 -0.06710000
v 0.00480000 0.01090000 -0.06620000
v 0.00480000 0.01090000 -0.06100000
v 0.00570000 0.01030000 -0.06010000
v 0.00570000 0.01030000 -0.06710000
v -0.00290000 0.01090000 -0.06100000
v -0.00380000 0.01030000 -0.06710000
v -0.00380000 0.01030000 -0.06010000
v -0.00380000 0.01030000 -0.06010000
v 0.00570000 0.01030000 -0.06010000
v 0.01950000 0.01030000 -0.06710000
v 0.01090000 0.01090000 -0.06620000
v 0.01000000 0.01030000 -0.06710000
v 0.01860000 0.01090000 -0.06620000
v 0.01860000 0.01090000 -0.06100000
v 0.01950000 0.01030000 -0.06010000
v 0.01950000 0.01030000 -0.06710000
v 0.01090000 0.01090000 -0.06100000
v 0.01000000 0.01030000 -0.06710000
v 0.01000000 0.01030000 -0.06010000
v 0.01000000 0.01030000 -0.06010000
v 0.01950000 0.01030000 -0.06010000
v -0.00850000 0.01030000 -0.05431501
v -0.01710000 0.01090000 -0.05341501
v -0.01800000 0.01030000 -0.05431501
v -0.00940000 0.01090000 -0.05341501
v -0.00940000 0.01090000 -0.03778499
v -0.00850000 0.01030000 -0.03688499
v -0.00850000 0.01030000 -0.05431501
v -0.01710000 0.01090000 -0.03778499
v -0.01800000 0.01030000 -0.05431501
v -0.01800000 0.01030000 -0.03688499
v -0.01800000 0.01030000 -0.03688499
v -0.00850000 0.01030000 -0.03688499
v 0.01950000 0.01030000 -0.05431501
v 0.01090000 0.01090000 -0.05341501
v 0.01000000 0.01030000 -0.05431501
v 0.01860000 0.01090000 -0.05341501
v 0.01860000 0.01090000 -0.03778499
v 0.01950000 0.01030000 -0.03688499
v 0.01950000 0.01030000 -0.05431501
v 0.01090000 0.01090000 -0.03778499
v 0.01000000 0.01030000 -0.05431501
v 0.01000000 0.01030000 -0.03688499
v 0.01000000 0.01030000 -0.03688499
v 0.01950000 0.01030000 -0.03688499
v 0.00570000 0.01030000 -0.05290165
v -0.00290000 0.01090000 -0.05200165
v -0.00380000 0.01030000 -0.05290165
v 0.00480000 0.01090000 -0.05200165
v 0.00480000 0.01090000 -0.04839834
v 0.00570000 0.01030000 -0.04749834
v 0.00570000 0.01030000 -0.05290165
v -0.00290000 0.01090000 -0.04839834
v -0.00380000 0.01030000 -0.05290165
v -0.00380000 0.01030000 -0.04749834
v -0.00380000 0.01030000 -0.04749834
v 0.00570000 0.01030000 -0.04749834
v 0.00570000 0.01030000 -0.04360165
v -0.00290000 0.01090000 -0.04270165
v -0.00380000 0.01030000 -0.04360165
v 0.00480000 0.01090000 -0.04270165
v 0.00480000 0.01090000 -0.03909834
v 0.00570000 0.01030000 -0.03819834
v 0.00570000 0.01030000 -0.04360165
v -0.00290000 0.01090000 -0.03909834
v -0.00380000 0.01030000 -0.04360165
v -0.00380000 0.01030000 -0.03819834
v -0.00380000 0.01030000 -0.03819834
v 0.00570000 0.01030000 -0.03819834
v -0.00988750 0.01030000 -0.03142000
v -0.01991250 0.01090000 -0.03052000
v -0.02081250 0.01030000 -0.03142000
v -0.01078750 0.01090000 -0.03052000
v -0.01078750 0.01090000 -0.02728000
v -0.00988750 0.01030000 -0.02638000
v -0.00988750 0.01030000 -0.03142000
v -0.01991250 0.01090000 -0.02728000
v -0.02081250 0.01030000 -0.03142000
v -0.02081250 0.01030000 -0.02638000
v -0.02081250 0.01030000 -0.02638000
v -0.00988750 0.01030000 -0.02638000
v 0.00644250 0.01030000 -0.03142000
v -0.00358250 0.01090000 -0.03052000
v -0.00448250 0.01030000 -0.03142000
v 0.00554250 0.01090000 -0.03052000
v 0.00554250 0.01090000 -0.02728000
v 0.00644250 0.01030000 -0.02638000
v 0.00644250 0.01030000 -0.03142000
v -0.00358250 0.01090000 -0.02728000
v -0.00448250 0.01030000 -0.03142000
v -0.00448250 0.01030000 -0.02638000
v -0.00448250 0.01030000 -0.02638000
v 0.00644250 0.01030000 -0.02638000
v 0.02231250 0.01030000 -0.03142000
v 0.01228750 0.01090000 -0.03052000
v 0.01138750 0.01030000 -0.03142000
v 0.02141250 0.01090000 -0.03052000
v 0.02141250 0.01090000 -0.02728000
v 0.02231250 0.01030000 -0.02638000
v 0.02231250 0.01030000 -0.03142000
v 0.01228750 0.01090000 -0.02728000
v 0.01138750 0.01030000 -0.03142000
v 0.01138750 0.01030000 -0.02638000
v 0.01138750 0.01030000 -0.02638000
v 0.02231250 0.01030000 -0.02638000
v 0.00644250 0.01030000 0.01478000
v -0.00358250 0.01090000 0.01568000
v -0.00448250 0.01030000 0.01478000
v 0.00554250 0.01090000 0.01568000
v 0.00554250 0.01090000 0.01892000
v 0.00644250 0.01030000 0.01982000
v 0.00644250 0.01030000 0.01478000
v -0.00358250 0.01090000 0.01892000
v -0.00448250 0.01030000 0.01478000
v -0.00448250 0.01030000 0.01982000
v -0.00448250 0.01030000 0.01982000
v 0.00644250 0.01030000 0.01982000
v -0.00988750 0.01030000 0.02378000
v -0.01991250 0.01090000 0.02468000
v -0.02081250 0.01030000 0.02378000
v -0.01078750 0.01090000 0.02468000
v -0.01078750 0.01090000 0.02792000
v -0.00988750 0.01030000 0.02882000
v -0.00988750 0.01030000 0.02378000
v -0.01991250 0.01090000 0.02792000
v -0.02081250 0.01030000 0.02378000
v -0.02081250 0.01030000 0.02882000
v -0.02081250 0.01030000 0.02882000
v -0.00988750 0.01030000 0.02882000
v 0.00644250 0.01030000 0.02378000
v -0.00358250 0.01090000 0.02468000
v -0.00448250 0.01030000 0.02378000
v 0.00554250 0.01090000 0.02468000
v 0.00554250 0.01090000 0.02792000
v 0.00644250 0.01030000 0.02882000
v 0.00644250 0.01030000 0.02378000
v -0.00358250 0.01090000 0.02792000
v -0.00448250 0.01030000 0.02378000
v -0.00448250 0.01030000 0.02882000
v -0.00448250 0.01030000 0.02882000
v 0.00644250 0.01030000 0.02882000
v 0.02231250 0.01030000 0.02378000
v 0.01228750 0.01090000 0.02468000
v 0.01138750 0.01030000 0.02378000
v 0.02141250 0.01090000 0.02468000
v 0.02141250 0.01090000 0.02792000
v 0.02231250 0.01030000 0.02882000
v 0.02231250 0.01030000 0.02378000
v 0.01228750 0.01090000 0.02792000
v 0.01138750 0.01030000 0.02378000
v 0.01138750 0.01030000 0.02882000
v 0.01138750 0.01030000 0.02882000
v 0.02231250 0.01030000 0.02882000
vn 0.00000000 -1.00000000 0.00000000
vn 0.00000000 -1.00000000 0.00000000
vn 0.00000000 -1.00000000 0.00000000
vn 0.00000000 -1.00000000 0.00000000
vn 0.00000000 0.00000000 -1.00000000
vn 0.00000000 0.00000000 -1.00000000
vn 0.00000000 0.00000000 -1.00000000
vn 0.00000000 0.00000000 -1.00000000
vn 1.00000000 0.00000000 0.00000000
vn 1.00000000 0.00000000 0.00000000
vn 1.00000000 0.00000000 0.00000000
vn 1.00000000 0.00000000 0.00000000
vn 0.00000000 0.00000000 1.00000000
vn 0.00000000 0.00000000 1.00000000
vn 0.00000000 0.00000000 1.00000000
vn 0.00000000 0.00000000 1.00000000
vn -1.00000000 0.00000000 0.00000000
vn -1.00000000 0.00000000 0.00000000
vn -1.00000000 0.00000000 0.00000000
vn -1.00000000 0.00000000 0.00000000
vn 0.00000000 -1.00000000 0.00000000
vn 0.00000000 -1.00000000 0.00000000
vn 0.00000000 -1.00000000 0.00000000
vn 0.00000000 -1.00000000 0.00000000
vn 0.00000000 0.00000000 -1.00000000
vn 0.00000000 0.00000000 -1.00000000
vn 0.00000000 0.00000000 -1.00000000
vn 0.00000000 0.00000000 -1.00000000
vn 1.00000000 0.00000000 0.00000000
vn 1.00000000 0.00000000 0.00000000
vn 1.00000000 0.00000000 0.00000000
vn 1.00000000 0.00000000 0.00000000
vn 0.00000000 0.00000000 1.00000000
vn 0.00000000 0.00000000 1.00000000
vn 0.00000000 0.00000000 1.00000000
vn 0.00000000 0.00000000 1.00000000
vn -1.00000000 0.00000000 0.00000000
vn -1.00000000 0.00000000 0.00000000
vn -1.00000000 0.00000000 0.00000000
vn -1.00000000 0.00000000 0.00000000
vn 0.00000000 -1.00000000 0.00000000
vn 0.00000000 -1.00000000 0.00000000
vn 0.00000000 -1.00000000 0.00000000
vn 0.00000000 -1.00000000 0.00000000
vn 0.00000000 0.00000000 -1.00000000
vn 0.00000000 0.00000000 -1.00000000
vn 0.00000000 0.00000000 -1.00000000
vn 0.00000000 0.00000000 -1.00000000
vn 1.00000000 0.00000000 0.00000000
vn 1.00000000 0.00000000 0.00000000
vn 1.00000000 0.00000000 0.00000000
vn 1.00000000 0.00000000 0.00000000
vn 0.00000000 0.00000000 1.00000000
vn 0.00000000 0.00000000 1.00000000
vn 0.00000000 0.00000000 1.00000000
vn 0.00000000 0.00000000 1.00000000
vn -1.00000000 0.00000000 0.00000000
vn -1.00000000 0.00000000 0.00000000
vn -1.00000000 0.00000000 0.00000000
vn -1.00000000 0.00000000 0.00000000
vn 0.00000000 -1.00000000 0.00000000
vn 0.00000000 -1.00000000 0.00000000
vn 0.00000000 -1.00000000 0.00000000
vn 0.00000000 -1.00000000 0.00000000
vn 0.00000000 0.00000000 -1.00000000
vn 0.00000000 0.00000000 -1.00000000
vn 0.00000000 0.00000000 -1.00000000
vn 0.00000000 0.00000000 -1.00000000
vn 1.00000000 0.00000000 0.00000000
vn 1.00000000 0.00000000 0.00000000
vn 1.00000000 0.00000000 0.00000000
vn 1.00000000 0.00000000 0.00000000
vn 0.00000000 0.00000000 1.00000000
vn 0.00000000 0.00000000 1.00000000
vn 0.00000000 0.00000000 1.00000000
vn 0.00000000 0.00000000 1.00000000
vn -1.00000000 0.00000000 0.00000000
vn -1.00000000 0.00000000 0.00000000
vn -1.00000000 0.00000000 0.00000000
vn -1.00000000 0.00000000 0.00000000
vn 0.00000000 -1.00000000 0.00000000
vn 0.00000000 -1.00000000 0.00000000
vn 0.00000000 -1.00000000 0.00000000
vn 0.00000000 -1.00000000 0.00000000
vn 0.00000000 0.00000000 -1.00000000
vn 0.00000000 0.00000000 -1.00000000
vn 0.00000000 0.00000000 -1.00000000
vn 0.00000000 0.00000000 -1.00000000
vn 1.00000000 0.00000000 0.00000000
vn 1.00000000 0.00000000 0.00000000
vn 1.00000000 0.00000000 0.00000000
vn 1.00000000 0.00000000 0.00000000
vn 0.00000000 0.00000000 1.00000000
vn 0.00000000 0.00000000 1.00000000
vn 0.00000000 0.00000000 1.00000000
vn 0.00000000 0.00000000 1.00000000
vn -1.00000000 0.00000000 0.00000000
vn -1.00000000 0.00000000 0.00000000
vn -1.00000000 0.00000000 0.00000000
vn -1.00000000 0.00000000 0.00000000
vn 0.00000000 -1.00000000 0.00000000
vn 0.00000000 -1.00000000 0.00000000
vn 0.00000000 -1.00000000 0.00000000
vn 0.00000000 -1.00000000 0.00000000
vn 0.00000000 0.00000000 -1.00000000
vn 0.00000000 0.00000000 -1.00000000
vn 0.00000000 0.00000000 -1.00000000
vn 0.00000000 0.00000000 -1.00000000
vn 1.00000000 0.00000000 0.00000000
vn 1.00000000 0.00000000 0.00000000
vn 1.00000000 0.00000000 0.00000000
vn 1.00000000 0.00000000 0.00000000
vn 0.00000000 0.00000000 1.00000000
vn 0.00000000 0.00000000 1.00000000
vn 0.00000000 0.00000000 1.00000000
vn 0.00000000 0.00000000 1.00000000
vn -1.00000000 0.00000000 0.00000000
vn -1.00000000 0.00000000 0.00000000
vn -1.00000000 0.00000000 0.00000000
vn -1.00000000 0.00000000 0.00000000
vn 0.00000000 -1.00000000 0.00000000
vn 0.00000000 -1.00000000 0.00000000
vn 0.00000000 -1.00000000 0.00000000
vn 0.00000000 -1.00000000 0.00000000
vn 0.00000000 0.00000000 -1.00000000
vn 0.00000000 0.00000000 -1.00000000
vn 0.00000000 0.00000000 -1.00000000
vn 0.00000000 0.00000000 -1.00000000
vn 1.00000000 0.00000000 0.00000000
vn 1.00000000 0.00000000 0.00000000
vn 1.00000000 0.00000000 0.00000000
vn 1.00000000 0.00000000 0.00000000
vn 0.00000000 0.00000000 1.00000000
vn 0.00000000 0.00000000 1.00000000
vn 0.00000000 0.00000000 1.00000000
vn 0.00000000 0.00000000 1.00000000
vn -1.00000000 0.00000000 0.00000000
vn -1.00000000 0.00000000 0.00000000
vn -1.00000000 0.00000000 0.00000000
vn -1.00000000 0.00000000 0.00000000
vn 0.00000000 -1.00000000 0.00000000
vn 0.00000000 -1.00000000 0.00000000
vn 0.00000000 -1.00000000 0.00000000
vn 0.00000000 -1.00000000 0.00000000
vn 0.00000000 0.00000000 -1.00000000
vn 0.00000000 0.00000000 -1.00000000
vn 0.00000000 0.00000000 -1.00000000
vn 0.00000000 0.00000000 -1.00000000
vn 1.00000000 0.00000000 0.00000000
vn 1.00000000 0.00000000 0.00000000
vn 1.00000000 0.00000000 0.00000000
vn 1.00000000 0.00000000 0.00000000
vn 0.00000000 0.00000000 1.00000000
vn 0.00000000 0.00000000 1.00000000
vn 0.00000000 0.00000000 1.00000000
vn 0.00000000 0.00000000 1.00000000
vn -1.00000000 0.00000000 0.00000000
vn -1.00000000 0.00000000 0.00000000
vn -1.00000000 0.00000000 0.00000000
vn -1.00000000 0.00000000 0.00000000
vn 0.00000000 -1.00000000 0.00000000
vn 0.00000000 -1.00000000 0.00000000
vn 0.00000000 -1.00000000 0.00000000
vn 0.00000000 -1.00000000 0.00000000
vn 0.00000000 0.00000000 -1.00000000
vn 0.00000000 0.00000000 -1.00000000
vn 0.00000000 0.00000000 -1.00000000
vn 0.00000000 0.00000000 -1.00000000
vn 1.00000000 0.00000000 0.00000000
vn 1.00000000 0.00000000 0.00000000
vn 1.00000000 0.00000000 0.00000000
vn 1.00000000 0.00000000 0.00000000
vn 0.00000000 0.00000000 1.00000000
vn 0.00000000 0.00000000 1.00000000
vn 0.00000000 0.00000000 1.00000000
vn 0.00000000 0.00000000 1.00000000
vn -1.00000000 0.00000000 0.00000000
vn -1.00000000 0.00000000 0.00000000
vn -1.00000000 0.00000000 0.00000000
vn -1.00000000 0.00000000 0.00000000
vn 0.00000000 -1.00000000 0.00000000
vn 0.00000000 -1.00000000 0.00000000
vn 0.00000000 -1.00000000 0.00000000
vn 0.00000000 -1.00000000 0.00000000
vn 0.00000000 0.00000000 -1.00000000
vn 0.00000000 0.00000000 -1.00000000
vn 0.00000000 0.00000000 -1.00000000
vn 0.00000000 0.00000000 -1.00000000
vn 1.00000000 0.00000000 0.00000000
vn 1.00000000 0.00000000 0.00000000
vn 1.00000000 0.00000000 0.00000000
vn 1.00000000 0.00000000 0.00000000
vn 0.00000000 0.00000000 1.00000000
vn 0.00000000 0.00000000 1.00000000
vn 0.00000000 0.00000000 1.00000000
vn 0.00000000 0.00000000 1.00000000
vn -1.00000000 0.00000000 0.00000000
vn -1.00000000 0.00000000 0.00000000
vn -1.00000000 0.00000000 0.00000000
vn -1.00000000 0.00000000 0.00000000
vn 0.00000000 -1.00000000 0.00000000
vn 0.00000000 -1.00000000 0.00000000
vn 0.00000000 -1.00000000 0.00000000
vn 0.00000000 -1.00000000 0.00000000
vn 0.00000000 0.00000000 -1.00000000
vn 0.00000000 0.00000000 -1.00000000
vn 0.00000000 0.00000000 -1.00000000
vn 0.00000000 0.00000000 -1.00000000
vn 1.00000000 0.00000000 0.00000000
vn 1.00000000 0.00000000 0.00000000
vn 1.00000000 0.00000000 0.00000000
vn 1.00000000 0.00000000 0.00000000
vn 0.00000000 0.00000000 1.00000000
vn 0.00000000 0.00000000 1.00000000
vn 0.00000000 0.00000000 1.00000000
vn 0.00000000 0.00000000 1.00000000
vn -1.00000000 0.00000000 0.00000000
vn -1.00000000 0.00000000 0.00000000
vn -1.00000000 0.00000000 0.00000000
vn -1.00000000 0.00000000 0.00000000
vn 0.00000000 -1.00000000 0.00000000
vn 0.00000000 -1.00000000 0.00000000
vn 0.00000000 -1.00000000 0.00000000
vn 0.00000000 -1.00000000 0.00000000
vn 0.00000000 0.00000000 -1.00000000
vn 0.00000000 0.00000000 -1.00000000
vn 0.00000000 0.00000000 -1.00000000
vn 0.00000000 0.00000000 -1.00000000
vn 1.00000000 0.00000000 0.00000000
vn 1.00000000 0.00000000 0.00000000
vn 1.00000000 0.00000000 0.00000000
vn 1.00000000 0.00000000 0.00000000
vn 0.00000000 0.00000000 1.00000000
vn 0.00000000 0.00000000 1.00000000
vn 0.00000000 0.00000000 1.00000000
vn 0.00000000 0.00000000 1.00000000
vn -1.00000000 0.00000000 0.00000000
vn -1.00000000 0.00000000 0.00000000
vn -1.00000000 0.00000000 0.00000000
vn -1.00000000 0.00000000 0.00000000
vn 0.00000000 -1.00000000 0.00000000
vn 0.00000000 -1.00000000 0.00000000
vn 0.00000000 -1.00000000 0.00000000
vn 0.00000000 -1.00000000 0.00000000
vn 0.00000000 0.00000000 -1.00000000
vn 0.00000000 0.00000000 -1.00000000
vn 0.00000000 0.00000000 -1.00000000
vn 0.00000000 0.00000000 -1.00000000
vn 1.00000000 0.00000000 0.00000000
vn 1.00000000 0.00000000 0.00000000
vn 1.00000000 0.00000000 0.00000000
vn 1.00000000 0.00000000 0.00000000
vn 0.00000000 0.00000000 1.00000000
vn 0.00000000 0.00000000 1.00000000
vn 0.00000000 0.00000000 1.00000000
vn 0.00000000 0.00000000 1.00000000
vn -1.00000000 0.00000000 0.00000000
vn -1.00000000 0.00000000 0.00000000
vn -1.00000000 0.00000000 0.00000000
vn -1.00000000 0.00000000 0.00000000
vn 0.00000000 -1.00000000 0.00000000
vn 0.00000000 -1.00000000 0.00000000
vn 0.00000000 -1.00000000 0.00000000
vn 0.00000000 -1.00000000 0.00000000
vn 0.00000000 0.00000000 -1.00000000
vn 0.00000000 0.00000000 -1.00000000
vn 0.00000000 0.00000000 -1.00000000
vn 0.00000000 0.00000000 -1.00000000
vn 1.00000000 0.00000000 0.00000000
vn 1.00000000 0.00000000 0.00000000
vn 1.00000000 0.00000000 0.00000000
vn 1.00000000 0.00000000 0.00000000
vn 0.00000000 0.00000000 1.00000000
vn 0.00000000 0.00000000 1.00000000
vn 0.00000000 0.00000000 1.00000000
vn 0.00000000 0.00000000 1.00000000
vn -1.00000000 0.00000000 0.00000000
vn -1.00000000 0.00000000 0.00000000
vn -1.00000000 0.00000000 0.00000000
vn -1.00000000 0.00000000 0.00000000
vn 0.00000000 -1.00000000 0.00000000
vn 0.00000000 -1.00000000 0.00000000
vn 0.00000000 -1.00000000 0.00000000
vn 0.00000000 -1.00000000 0.00000000
vn 0.00000000 0.00000000 -1.00000000
vn 0.00000000 0.00000000 -1.00000000
vn 0.00000000 0.00000000 -1.00000000
vn 0.00000000 0.00000000 -1.00000000
vn 1.00000000 0.00000000 0.00000000
vn 1.00000000 0.00000000 0.00000000
vn 1.00000000 0.00000000 0.00000000
vn 1.00000000 0.00000000 0.00000000
vn 0.00000000 0.00000000 1.00000000
vn 0.00000000 0.00000000 1.00000000
vn 0.00000000 0.00000000 1.00000000
vn 0.00000000 0.00000000 1.00000000
vn -1.00000000 0.00000000 0.00000000
vn -1.00000000 0.00000000 0.00000000
vn -1.00000000 0.00000000 0.00000000
vn -1.00000000 0.00000000 0.00000000
vn 0.00000000 -1.00000000 0.00000000
vn 0.00000000 -1.00000000 0.00000000
vn 0.00000000 -1.00000000 0.00000000
vn 0.00000000 -1.00000000 0.00000000
vn 0.00000000 0.00000000 -1.00000000
vn 0.00000000 0.00000000 -1.00000000
vn 0.00000000 0.00000000 -1.00000000
vn 0.00000000 0.00000000 -1.00000000
vn 1.00000000 0.00000000 0.00000000
vn 1.00000000 0.00000000 0.00000000
vn 1.00000000 0.00000000 0.00000000
vn 1.00000000 0.00000000 0.00000000
vn 0.00000000 0.00000000 1.00000000
vn 0.00000000 0.00000000 1.00000000
vn 0.00000000 0.00000000 1.00000000
vn 0.00000000 0.00000000 1.00000000
vn -1.00000000 0.00000000 0.00000000
vn -1.00000000 0.00000000 0.00000000
vn -1.00000000 0.00000000 0.00000000
vn -1.00000000 0.00000000 0.00000000
vn 0.00000000 -1.00000000 0.00000000
vn 0.00000000 -1.00000000 0.00000000
vn 0.00000000 -1.00000000 0.00000000
vn 0.00000000 -1.00000000 0.00000000
vn 0.00000000 0.00000000 -1.00000000
vn 0.00000000 0.00000000 -1.00000000
vn 0.00000000 0.00000000 -1.00000000
vn 0.00000000 0.00000000 -1.00000000
vn 1.00000000 0.00000000 0.00000000
vn 1.00000000 0.00000000 0.00000000
vn 1.00000000 0.00000000 0.00000000
vn 1.00000000 0.00000000 0.00000000
vn 0.00000000 0.00000000 1.00000000
vn 0.00000000 0.00000000 1.00000000
vn 0.00000000 0.00000000 1.00000000
vn 0.00000000 0.00000000 1.00000000
vn -1.00000000 0.00000000 0.00000000
vn -1.00000000 0.00000000 0.00000000
vn -1.00000000 0.00000000 0.00000000
vn -1.00000000 0.00000000 0.00000000
vn 0.00000000 -1.00000000 0.00000000
vn 0.00000000 -1.00000000 0.00000000
vn 0.00000000 -1.00000000 0.00000000
vn 0.00000000 -1.00000000 0.00000000
vn 0.00000000 0.00000000 -1.00000000
vn 0.00000000 0.00000000 -1.00000000
vn 0.00000000 0.00000000 -1.00000000
vn 0.00000000 0.00000000 -1.00000000
vn 1.00000000 0.00000000 0.00000000
vn 1.00000000 0.00000000 0.00000000
vn 1.00000000 0.00000000 0.00000000
vn 1.00000000 0.00000000 0.00000000
vn 0.00000000 0.00000000 1.00000000
vn 0.00000000 0.00000000 1.00000000
vn 0.00000000 0.00000000 1.00000000
vn 0.00000000 0.00000000 1.00000000
vn -1.00000000 0.00000000 0.00000000
vn -1.00000000 0.00000000 0.00000000
vn -1.00000000 0.00000000 0.00000000
vn -1.00000000 0.00000000 0.00000000
vn 0.00000000 -1.00000000 0.00000000
vn 0.00000000 -1.00000000 0.00000000
vn 0.00000000 -1.00000000 0.00000000
vn 0.00000000 -1.00000000 0.00000000
vn 0.00000000 0.00000000 -1.00000000
vn 0.00000000 0.00000000 -1.00000000
vn 0.00000000 0.00000000 -1.00000000
vn 0.00000000 0.00000000 -1.00000000
vn 1.00000000 0.00000000 0.00000000
vn 1.00000000 0.00000000 0.00000000
vn 1.00000000 0.00000000 0.00000000
vn 1.00000000 0.00000000 0.00000000
vn 0.00000000 0.00000000 1.00000000
vn 0.00000000 0.00000000 1.00000000
vn 0.00000000 0.00000000 1.00000000
vn 0.00000000 0.00000000 1.00000000
vn -1.00000000 0.00000000 0.00000000
vn -1.00000000 0.00000000 0.00000000
vn -1.00000000 0.00000000 0.00000000
vn -1.00000000 0.00000000 0.00000000
vn 0.00000000 -1.00000000 0.00000000
vn 0.00000000 -1.00000000 0.00000000
vn 0.00000000 -1.00000000 0.00000000
vn 0.00000000 -1.00000000 0.00000000
vn 0.00000000 0.00000000 -1.00000000
vn 0.00000000 0.00000000 -1.00000000
vn 0.00000000 0.00000000 -1.00000000
vn 0.00000000 0.00000000 -1.00000000
vn 1.00000000 0.00000000 0.00000000
vn 1.00000000 0.00000000 0.00000000
vn 1.00000000 0.00000000 0.00000000
vn 1.00000000 0.00000000 0.00000000
vn 0.00000000 0.00000000 1.00000000
vn 0.00000000 0.00000000 1.00000000
vn 0.00000000 0.00000000 1.00000000
vn 0.00000000 0.00000000 1.00000000
vn -1.00000000 0.00000000 0.00000000
vn -1.00000000 0.00000000 0.00000000
vn -1.00000000 0.00000000 0.00000000
vn -1.00000000 0.00000000 0.00000000
vn 0.00000000 0.83205040 -0.55470000
vn -0.19973380 0.95927720 -0.19973380
vn 0.00000000 0.83205040 -0.55470000
vn 0.19973380 0.95927720 -0.19973380
vn 0.19973380 0.95927720 0.19973380
vn 0.55470000 0.83205040 0.00000000
vn 0.55470000 0.83205040 0.00000000
vn -0.19973380 0.95927720 0.19973380
vn -0.55470000 0.83205040 0.00000000
vn -0.55470000 0.83205040 0.00000000
vn 0.00000000 0.83205040 0.55470000
vn 0.00000000 0.83205040 0.55470000
vn 0.00000000 0.83205040 -0.55470000
vn -0.19973390 0.95927720 -0.19973380
vn 0.00000000 0.83205040 -0.55470000
vn 0.19973390 0.95927720 -0.19973380
vn 0.19973390 0.95927720 0.19973380
vn 0.55470030 0.83205030 0.00000000
vn 0.55470030 0.83205030 0.00000000
vn -0.19973390 0.95927720 0.19973380
vn -0.55470010 0.83205040 0.00000000
vn -0.55470010 0.83205040 0.00000000
vn 0.00000000 0.83205040 0.55470000
vn 0.00000000 0.83205040 0.55470000
vn 0.00000000 0.83205040 -0.55470000
vn -0.19973380 0.95927720 -0.19973380
vn 0.00000000 0.83205040 -0.55470000
vn 0.19973380 0.95927720 -0.19973380
vn 0.19973380 0.95927720 0.19973380
vn 0.55470000 0.83205040 0.00000000
vn 0.55470000 0.83205040 0.00000000
vn -0.19973380 0.95927720 0.19973380
vn -0.55470000 0.83205040 0.00000000
vn -0.55470000 0.83205040 0.00000000
vn 0.00000000 0.83205040 0.55470000
vn 0.00000000 0.83205040 0.55470000
vn 0.00000000 0.83205040 -0.55470000
vn -0.19973380 0.95927720 -0.19973380
vn 0.00000000 0.83205040 -0.55470000
vn 0.19973380 0.95927720 -0.19973380
vn 0.19973380 0.95927720 0.19973380
vn 0.55470000 0.83205040 0.00000000
vn 0.55470000 0.83205040 0.00000000
vn -0.19973380 0.95927720 0.19973380
vn -0.55470000 0.83205040 0.00000000
vn -0.55470000 0.83205040 0.00000000
vn 0.00000000 0.83205040 0.55470000
vn 0.00000000 0.83205040 0.55470000
vn 0.00000000 0.83205040 -0.55470000
vn -0.19973390 0.95927720 -0.19973380
vn 0.00000000 0.83205040 -0.55470000
vn 0.19973390 0.95927720 -0.19973380
vn 0.19973390 0.95927720 0.19973380
vn 0.55470030 0.83205030 0.00000000
vn 0.55470030 0.83205030 0.00000000
vn -0.19973390 0.95927720 0.19973380
vn -0.55470010 0.83205040 0.00000000
vn -0.55470010 0.83205040 0.00000000
vn 0.00000000 0.83205040 0.55470000
vn 0.00000000 0.83205040 0.55470000
vn 0.00000000 0.83205040 -0.55470000
vn -0.19973380 0.95927720 -0.19973380
vn 0.00000000 0.83205040 -0.55470000
vn 0.19973380 0.95927720 -0.19973380
vn 0.19973380 0.95927720 0.19973380
vn 0.55470000 0.83205040 0.00000000
vn 0.55470000 0.83205040 0.00000000
vn -0.19973380 0.95927720 0.19973380
vn -0.55470000 0.83205040 0.00000000
vn -0.55470000 0.83205040 0.00000000
vn 0.00000000 0.83205040 0.55470000
vn 0.00000000 0.83205040 0.55470000
vn 0.00000000 0.83205040 -0.55470000
vn -0.19973380 0.95927720 -0.19973380
vn 0.00000000 0.83205040 -0.55470000
vn 0.19973380 0.95927720 -0.19973380
vn 0.19973380 0.95927720 0.19973380
vn 0.55470000 0.83205040 0.00000000
vn 0.55470000 0.83205040 0.00000000
vn -0.19973380 0.95927720 0.19973380
vn -0.55470000 0.83205040 0.00000000
vn -0.55470000 0.83205040 0.00000000
vn 0.00000000 0.83205040 0.55470000
vn 0.00000000 0.83205040 0.55470000
vn 0.00000000 0.83205040 -0.55470000
vn -0.19973390 0.95927720 -0.19973380
vn 0.00000000 0.83205040 -0.55470000
vn 0.19973390 0.95927720 -0.19973380
vn 0.19973390 0.95927720 0.19973380
vn 0.55470030 0.83205030 0.00000000
vn 0.55470030 0.83205030 0.00000000
vn -0.19973390 0.95927720 0.19973380
vn -0.55470010 0.83205040 0.00000000
vn -0.55470010 0.83205040 0.00000000
vn 0.00000000 0.83205040 0.55470000
vn 0.00000000 0.83205040 0.55470000
vn 0.00000000 0.83205040 -0.55470000
vn -0.19973380 0.95927720 -0.19973380
vn 0.00000000 0.83205040 -0.55470000
vn 0.19973380 0.95927720 -0.19973380
vn 0.19973380 0.95927720 0.19973380
vn 0.55470000 0.83205040 0.00000000
vn 0.55470000 0.83205040 0.00000000
vn -0.19973380 0.95927720 0.19973380
vn -0.55470000 0.83205040 0.00000000
vn -0.55470000 0.83205040 0.00000000
vn 0.00000000 0.83205040 0.55470000
vn 0.00000000 0.83205040 0.55470000
vn 0.00000000 0.83205040 -0.55470000
vn -0.19973380 0.95927720 -0.19973380
vn 0.00000000 0.83205040 -0.55470000
vn 0.19973380 0.95927720 -0.19973380
vn 0.19973380 0.95927720 0.19973380
vn 0.55470000 0.83205040 0.00000000
vn 0.55470000 0.83205040 0.00000000
vn -0.19973380 0.95927720 0.19973380
vn -0.55470000 0.83205040 0.00000000
vn -0.55470000 0.83205040 0.00000000
vn 0.00000000 0.83205040 0.55470000
vn 0.00000000 0.83205040 0.55470000
vn 0.00000000 0.83205040 -0.55470000
vn -0.19973380 0.95927720 -0.19973380
vn 0.00000000 0.83205040 -0.55470000
vn 0.19973380 0.95927720 -0.19973380
vn 0.19973380 0.95927720 0.19973380
vn 0.55470000 0.83205040 0.00000000
vn 0.55470000 0.83205040 0.00000000
vn -0.19973380 0.95927720 0.19973380
vn -0.55470000 0.83205040 0.00000000
vn -0.55470000 0.83205040 0.00000000
vn 0.00000000 0.83205040 0.55470000
vn 0.00000000 0.83205040 0.55470000
vn 0.00000000 0.83205040 -0.55470000
vn -0.19973390 0.95927720 -0.19973380
vn 0.00000000 0.83205040 -0.55470000
vn 0.19973390 0.95927720 -0.19973380
vn 0.19973390 0.95927720 0.19973380
vn 0.55470030 0.83205030 0.00000000
vn 0.55470030 0.83205030 0.00000000
vn -0.19973390 0.95927720 0.19973380
vn -0.55470010 0.83205040 0.00000000
vn -0.55470010 0.83205040 0.00000000
vn 0.00000000 0.83205040 0.55470000
vn 0.00000000 0.83205040 0.55470000
vn 0.00000000 0.83205040 -0.55470000
vn -0.19973390 0.95927720 -0.19973380
vn 0.00000000 0.83205040 -0.55470000
vn 0.19973390 0.95927720 -0.19973380
vn 0.19973390 0.95927720 0.19973380
vn 0.55470030 0.83205030 0.00000000
vn 0.55470030 0.83205030 0.00000000
vn -0.19973390 0.95927720 0.19973380
vn -0.55470010 0.83205040 0.00000000
vn -0.55470010 0.83205040 0.00000000
vn 0.00000000 0.83205040 0.55470000
vn 0.00000000 0.83205040 0.55470000
vn 0.00000000 0.83205040 -0.55470000
vn -0.19973380 0.95927720 -0.19973380
vn 0.00000000 0.83205040 -0.55470000
vn 0.19973380 0.95927720 -0.19973380
vn 0.19973380 0.95927720 0.19973380
vn 0.55470000 0.83205040 0.00000000
vn 0.55470000 0.83205040 0.00000000
vn -0.19973380 0.95927720 0.19973380
vn -0.55470000 0.83205040 0.00000000
vn -0.55470000 0.83205040 0.00000000
vn 0.00000000 0.83205040 0.55470000
vn 0.00000000 0.83205040 0.55470000
vn 0.00000000 0.83205040 -0.55470000
vn -0.19973390 0.95927720 -0.19973380
vn 0.00000000 0.83205040 -0.55470000
vn 0.19973390 0.95927720 -0.19973390
vn 0.19973390 0.95927720 0.19973390
vn 0.55470030 0.83205030 0.00000000
vn 0.55470030 0.83205030 0.00000000
vn -0.19973390 0.95927720 0.19973380
vn -0.55470010 0.83205030 0.00000000
vn -0.55470010 0.83205030 0.00000000
vn 0.00000000 0.83205040 0.55470000
vn 0.00000000 0.83205040 0.55470000
vn 0.00000000 0.83205040 -0.55470000
vn -0.19973380 0.95927720 -0.19973380
vn 0.00000000 0.83205040 -0.55470000
vn 0.19973380 0.95927720 -0.19973380
vn 0.19973380 0.95927720 0.19973380
vn 0.55470000 0.83205040 0.00000000
vn 0.55470000 0.83205040 0.00000000
vn -0.19973380 0.95927720 0.19973380
vn -0.55470000 0.83205040 0.00000000
vn -0.55470000 0.83205040 0.00000000
vn 0.00000000 0.83205040 0.55470000
vn 0.00000000 0.83205040 0.55470000
vn 0.00000000 0.83205040 -0.55470000
vn -0.19973390 0.95927720 -0.19973380
vn 0.00000000 0.83205040 -0.55470000
vn 0.19973390 0.95927720 -0.19973390
vn 0.19973390 0.95927720 0.19973390
vn 0.55470030 0.83205030 0.00000000
vn 0.55470030 0.83205030 0.00000000
vn -0.19973390 0.95927720 0.19973380
vn -0.55470010 0.83205030 0.00000000
vn -0.55470010 0.83205030 0.00000000
vn 0.00000000 0.83205040 0.55470000
vn 0.00000000 0.83205040 0.55470000
vn 0.00000000 0.83205040 -0.55470000
vn -0.19973380 0.95927720 -0.19973380
vn 0.00000000 0.83205040 -0.55470000
vn 0.19973380 0.95927720 -0.19973380
vn 0.19973380 0.95927720 0.19973380
vn 0.55470000 0.83205040 0.00000000
vn 0.55470000 0.83205040 0.00000000
vn -0.19973380 0.95927720 0.19973380
vn -0.55470000 0.83205040 0.00000000
vn -0.55470000 0.83205040 0.00000000
vn 0.00000000 0.83205040 0.55470000
vn 0.00000000 0.83205040 0.55470000
vn 0.00000000 0.83205040 -0.55470000
vn -0.19973390 0.95927720 -0.19973380
vn 0.00000000 0.83205040 -0.55470000
vn 0.19973390 0.95927720 -0.19973390
vn 0.19973390 0.95927720 0.19973390
vn 0.55470030 0.83205030 0.00000000
vn 0.55470030 0.83205030 0.00000000
vn -0.19973390 0.95927720 0.19973380
vn -0.55470010 0.83205030 0.00000000
vn -0.55470010 0.83205030 0.00000000
vn 0.00000000 0.83205040 0.55470000
vn 0.00000000 0.83205040 0.55470000
vn 0.00000000 0.83205040 -0.55470000
vn -0.19973380 0.95927720 -0.19973380
vn 0.00000000 0.83205040 -0.55470000
vn 0.19973380 0.95927720 -0.19973380
vn 0.19973380 0.95927720 0.19973380
vn 0.55470000 0.83205040 0.00000000
vn 0.55470000 0.83205040 0.00000000
vn -0.19973380 0.95927720 0.19973380
vn -0.55470000 0.83205040 0.00000000
vn -0.55470000 0.83205040 0.00000000
vn 0.00000000 0.83205040 0.55470000
vn 0.00000000 0.83205040 0.55470000
vt 1.98977300 1.29650400
vt 1.98977300 1.47657300
vt 2.16984300 1.47657300
vt 2.16984300 1.29650400
vt 1.77368900 1.27924700
vt 1.77368900 1.19671500
vt 1.59361900 1.19671500
vt 1.59361900 1.27924700
vt 0.38715030 2.26963100
vt 0.38715030 2.18709900
vt 0.20708040 2.18709900
vt 0.20708040 2.26963100
vt 1.17945800 1.27924700
vt 1.17945800 1.19671500
vt 0.99938810 1.19671500
vt 0.99938810 1.27924700
vt 2.36791900 2.17059300
vt 2.36791900 2.08806100
vt 2.18785000 2.08806100
vt 2.18785000 2.17059300
vt 0.80131120 1.19746500
vt 0.80131120 1.37753500
vt 0.98138120 1.37753500
vt 0.98138120 1.19746500
vt 2.36791900 1.37828500
vt 2.36791900 1.29575300
vt 2.18785000 1.29575300
vt 2.18785000 1.37828500
vt 0.58522730 2.26963100
vt 0.58522730 2.18709900
vt 0.40515740 2.18709900
vt 0.40515740 2.26963100
vt 1.17945800 1.37828500
vt 1.17945800 1.29575300
vt 0.99938810 1.29575300
vt 0.99938810 1.37828500
vt 0.78330420 2.26963100
vt 0.78330420 2.18709900
vt 0.60323420 2.18709900
vt 0.60323420 2.26963100
vt 2.18785000 0.99938810
vt 2.18785000 1.17945800
vt 2.36791900 1.17945800
vt 2.36791900 0.99938810
vt 1.97176600 1.08117000
vt 1.97176600 0.99863780
vt 1.79169600 0.99863780
vt 1.79169600 1.08117000
vt 2.16984300 2.17059300
vt 2.16984300 2.08806100
vt 1.98977300 2.08806100
vt 1.98977300 2.17059300
vt 1.57561200 1.08117000
vt 1.57561200 0.99863780
vt 1.39554200 0.99863780
vt 1.39554200 1.08117000
vt 2.56599600 2.17059300
vt 2.56599600 2.08806100
vt 2.38592700 2.08806100
vt 2.38592700 2.17059300
vt 2.38592700 1.19746500
vt 2.38592700 1.37753500
vt 2.56599600 1.37753500
vt 2.56599600 1.19746500
vt 1.97176600 1.27924700
vt 1.97176600 1.19671500
vt 1.79169600 1.19671500
vt 1.79169600 1.27924700
vt 2.16984300 2.07155400
vt 2.16984300 1.98902200
vt 1.98977300 1.98902200
vt 1.98977300 2.07155400
vt 0.78330420 1.37828500
vt 0.78330420 1.29575300
vt 0.60323420 1.29575300
vt 0.60323420 1.37828500
vt 1.97176600 2.07155400
vt 1.97176600 1.98902200
vt 1.79169600 1.98902200
vt 1.79169600 2.07155400
vt 1.79169600 1.39554200
vt 1.79169600 1.57561200
vt 1.97176600 1.57561200
vt 1.97176600 1.39554200
vt 1.57561200 1.27924700
vt 1.57561200 1.19671500
vt 1.39554200 1.19671500
vt 1.39554200 1.27924700
vt 0.18907340 2.26963100
vt 0.18907340 2.18709900
vt 0.00900350 2.18709900
vt 0.00900350 2.26963100
vt 2.36791900 1.27924700
vt 2.36791900 1.19671500
vt 2.18785000 1.19671500
vt 2.18785000 1.27924700
vt 1.37753500 2.17059300
vt 1.37753500 2.08806100
vt 1.19746500 2.08806100
vt 1.19746500 2.17059300
vt 1.59361900 0.99938810
vt 1.59361900 1.17945800
vt 1.77368900 1.17945800
vt 1.77368900 0.99938810
vt 0.18907340 1.18020800
vt 0.18907340 1.09767600
vt 0.00900350 1.09767600
vt 0.00900350 1.18020800
vt 2.36791900 2.07155400
vt 2.36791900 1.98902200
vt 2.18785000 1.98902200
vt 2.18785000 2.07155400
vt 2.56599600 1.08117000
vt 2.56599600 0.99863780
vt 2.38592700 0.99863780
vt 2.38592700 1.08117000
vt 1.17945800 2.17059300
vt 1.17945800 2.08806100
vt 0.99938810 2.08806100
vt 0.99938810 2.17059300
vt 0.40515740 1.39554200
vt 0.40515740 1.57561200
vt 0.58522730 1.57561200
vt 0.58522730 1.39554200
vt 1.97176600 1.37828500
vt 1.97176600 1.29575300
vt 1.79169600 1.29575300
vt 1.79169600 1.37828500
vt 0.78330420 2.17059300
vt 0.78330420 2.08806100
vt 0.60323420 2.08806100
vt 0.60323420 2.17059300
vt 0.58522730 1.37828500
vt 0.58522730 1.29575300
vt 0.40515740 1.29575300
vt 0.40515740 1.37828500
vt 0.38715030 2.17059300
vt 0.38715030 2.08806100
vt 0.20708040 2.08806100
vt 0.20708040 2.17059300
vt 0.60323420 1.39554200
vt 0.60323420 1.57561200
vt 0.78330420 1.57561200
vt 0.78330420 1.39554200
vt 0.18907340 1.47732400
vt 0.18907340 1.39479200
vt 0.00900350 1.39479200
vt 0.00900350 1.47732400
vt 1.57561200 2.17059300
vt 1.57561200 2.08806100
vt 1.39554200 2.08806100
vt 1.39554200 2.17059300
vt 0.18907340 1.37828500
vt 0.18907340 1.29575300
vt 0.00900350 1.29575300
vt 0.00900350 1.37828500
vt 1.77368900 2.17059300
vt 1.77368900 2.08806100
vt 1.59361900 2.08806100
vt 1.59361900 2.17059300
vt 0.80131120 0.99938810
vt 0.80131120 1.17945800
vt 0.98138120 1.17945800
vt 0.98138120 0.99938810
vt 0.58522730 1.08117000
vt 0.58522730 0.99863780
vt 0.40515740 0.99863780
vt 0.40515740 1.08117000
vt 1.97176600 2.17059300
vt 1.97176600 2.08806100
vt 1.79169600 2.08806100
vt 1.79169600 2.17059300
vt 1.17945800 1.08117000
vt 1.17945800 0.99863780
vt 0.99938810 0.99863780
vt 0.99938810 1.08117000
vt 0.18907340 2.17059300
vt 0.18907340 2.08806100
vt 0.00900350 2.08806100
vt 0.00900350 2.17059300
vt 2.18785000 0.30654760
vt 2.18785000 0.68383710
vt 2.36791900 0.68383710
vt 2.36791900 0.30654760
vt 1.77368900 1.37828500
vt 1.77368900 1.29575300
vt 1.59361900 1.29575300
vt 1.59361900 1.37828500
vt 0.78287550 0.48693910
vt 0.78287550 0.40440710
vt 0.40558610 0.40440710
vt 0.40558610 0.48693910
vt 1.57561200 1.37828500
vt 1.57561200 1.29575300
vt 1.39554200 1.29575300
vt 1.39554200 1.37828500
vt 0.38672160 0.48693910
vt 0.38672160 0.40440710
vt 0.00943224 0.40440710
vt 0.00943224 0.48693910
vt 2.38592700 0.40558610
vt 2.38592700 0.78287550
vt 2.56599600 0.78287550
vt 2.56599600 0.40558610
vt 0.78330420 1.27924700
vt 0.78330420 1.19671500
vt 0.60323420 1.19671500
vt 0.60323420 1.27924700
vt 1.57518300 0.48693910
vt 1.57518300 0.40440710
vt 1.19789400 0.40440710
vt 1.19789400 0.48693910
vt 0.58522730 1.27924700
vt 0.58522730 1.19671500
vt 0.40515740 1.19671500
vt 0.40515740 1.27924700
vt 0.38672160 0.58597760
vt 0.38672160 0.50344550
vt 0.00943224 0.50344550
vt 0.00943224 0.58597760
vt 0.00900350 1.19671500
vt 0.00900350 1.27924700
vt 0.18907340 1.27924700
vt 0.18907340 1.19671500
vt 1.97176600 1.18020800
vt 1.97176600 1.09767600
vt 1.79169600 1.09767600
vt 1.79169600 1.18020800
vt 2.26963100 2.36867000
vt 2.26963100 2.28613800
vt 2.18709900 2.28613800
vt 2.18709900 2.36867000
vt 0.38715030 1.18020800
vt 0.38715030 1.09767600
vt 0.20708040 1.09767600
vt 0.20708040 1.18020800
vt 2.07155400 2.36867000
vt 2.07155400 2.28613800
vt 1.98902200 2.28613800
vt 1.98902200 2.36867000
vt 0.20708040 1.19671500
vt 0.20708040 1.27924700
vt 0.38715030 1.27924700
vt 0.38715030 1.19671500
vt 1.17945800 1.18020800
vt 1.17945800 1.09767600
vt 0.99938810 1.09767600
vt 0.99938810 1.18020800
vt 2.36867000 2.36867000
vt 2.36867000 2.28613800
vt 2.28613800 2.28613800
vt 2.28613800 2.36867000
vt 1.57561200 1.18020800
vt 1.57561200 1.09767600
vt 1.39554200 1.09767600
vt 1.39554200 1.18020800
vt 2.17059300 2.36867000
vt 2.17059300 2.28613800
vt 2.08806100 2.28613800
vt 2.08806100 2.36867000
vt 0.99938810 0.89959940
vt 0.99938810 0.98213140
vt 1.17945800 0.98213140
vt 1.17945800 0.89959940
vt 1.37753500 0.98213140
vt 1.37753500 0.89959940
vt 1.19746500 0.89959940
vt 1.19746500 0.98213140
vt 1.18020800 2.46770800
vt 1.18020800 2.38517600
vt 1.09767600 2.38517600
vt 1.09767600 2.46770800
vt 0.78330420 0.98213140
vt 0.78330420 0.89959940
vt 0.60323420 0.89959940
vt 0.60323420 0.98213140
vt 1.27924700 2.46770800
vt 1.27924700 2.38517600
vt 1.19671500 2.38517600
vt 1.19671500 2.46770800
vt 1.39554200 0.80056090
vt 1.39554200 0.88309290
vt 1.57561200 0.88309290
vt 1.57561200 0.80056090
vt 1.77368900 0.88309290
vt 1.77368900 0.80056090
vt 1.59361900 0.80056090
vt 1.59361900 0.88309290
vt 0.18982370 2.46770800
vt 0.18982370 2.38517600
vt 0.10729170 2.38517600
vt 0.10729170 2.46770800
vt 1.37753500 0.88309290
vt 1.37753500 0.80056090
vt 1.19746500 0.80056090
vt 1.19746500 0.88309290
vt 2.56674700 2.36867000
vt 2.56674700 2.28613800
vt 2.48421500 2.28613800
vt 2.48421500 2.36867000
vt 2.18785000 0.70152250
vt 2.18785000 0.78405450
vt 2.36791900 0.78405450
vt 2.36791900 0.70152250
vt 0.68426570 0.78405450
vt 0.68426570 0.70152250
vt 0.50419580 0.70152250
vt 0.50419580 0.78405450
vt 2.46770800 2.36867000
vt 2.46770800 2.28613800
vt 2.38517600 2.28613800
vt 2.38517600 2.36867000
vt 1.57561200 0.78405450
vt 1.57561200 0.70152250
vt 1.39554200 0.70152250
vt 1.39554200 0.78405450
vt 0.09078526 2.46770800
vt 0.09078526 2.38517600
vt 0.00825321 2.38517600
vt 0.00825321 2.46770800
vt 2.38592700 0.80056090
vt 2.38592700 0.88309290
vt 2.56599600 0.88309290
vt 2.56599600 0.80056090
vt 0.98138120 0.88309290
vt 0.98138120 0.80056090
vt 0.80131120 0.80056090
vt 0.80131120 0.88309290
vt 0.78405450 2.46770800
vt 0.78405450 2.38517600
vt 0.70152250 2.38517600
vt 0.70152250 2.46770800
vt 0.38715030 0.98213140
vt 0.38715030 0.89959940
vt 0.20708040 0.89959940
vt 0.20708040 0.98213140
vt 1.08117000 2.46770800
vt 1.08117000 2.38517600
vt 0.99863780 2.38517600
vt 0.99863780 2.46770800
vt 0.00900350 0.99863780
vt 0.00900350 1.08117000
vt 0.18907340 1.08117000
vt 0.18907340 0.99863780
vt 0.38715030 1.08117000
vt 0.38715030 0.99863780
vt 0.20708040 0.99863780
vt 0.20708040 1.08117000
vt 0.58597760 2.46770800
vt 0.58597760 2.38517600
vt 0.50344550 2.38517600
vt 0.50344550 2.46770800
vt 1.97176600 0.98213140
vt 1.97176600 0.89959940
vt 1.79169600 0.89959940
vt 1.79169600 0.98213140
vt 0.98213140 2.46770800
vt 0.98213140 2.38517600
vt 0.89959940 2.38517600
vt 0.89959940 2.46770800
vt 0.40515740 0.89959940
vt 0.40515740 0.98213140
vt 0.58522730 0.98213140
vt 0.58522730 0.89959940
vt 1.17945800 0.88309290
vt 1.17945800 0.80056090
vt 0.99938810 0.80056090
vt 0.99938810 0.88309290
vt 0.38790070 2.46770800
vt 0.38790070 2.38517600
vt 0.30536860 2.38517600
vt 0.30536860 2.46770800
vt 2.16984300 0.88309290
vt 2.16984300 0.80056090
vt 1.98977300 0.80056090
vt 1.98977300 0.88309290
vt 1.47732400 2.46770800
vt 1.47732400 2.38517600
vt 1.39479200 2.38517600
vt 1.39479200 2.46770800
vt 0.20708040 0.80056090
vt 0.20708040 0.88309290
vt 0.38715030 0.88309290
vt 0.38715030 0.80056090
vt 2.16984300 0.78405450
vt 2.16984300 0.70152250
vt 1.98977300 0.70152250
vt 1.98977300 0.78405450
vt 0.88309290 2.46770800
vt 0.88309290 2.38517600
vt 0.80056090 2.38517600
vt 0.80056090 2.46770800
vt 0.48618880 0.78405450
vt 0.48618880 0.70152250
vt 0.30611890 0.70152250
vt 0.30611890 0.78405450
vt 0.68501600 2.46770800
vt 0.68501600 2.38517600
vt 0.60248390 2.38517600
vt 0.60248390 2.46770800
vt 1.39554200 1.49458100
vt 1.55855300 1.51773200
vt 1.57561200 1.49458100
vt 1.41260100 1.51773200
vt 1.41260100 1.65149900
vt 1.39554200 1.67465000
vt 1.39554200 1.49458100
vt 1.55855300 1.65149900
vt 1.57561200 1.49458100
vt 1.57561200 1.67465000
vt 1.57561200 1.67465000
vt 1.39554200 1.67465000
vt 0.00900350 1.59361900
vt 0.17201420 1.61677100
vt 0.18907340 1.59361900
vt 0.02606275 1.61677100
vt 0.02606275 1.75053700
vt 0.00900350 1.77368900
vt 0.00900350 1.59361900
vt 0.17201420 1.75053700
vt 0.18907340 1.59361900
vt 0.18907340 1.77368900
vt 0.18907340 1.77368900
vt 0.00900350 1.77368900
vt 1.98977300 0.99938810
vt 2.15278300 1.02254000
vt 2.16984300 0.99938810
vt 2.00683200 1.02254000
vt 2.00683200 1.15630600
vt 1.98977300 1.17945800
vt 1.98977300 0.99938810
vt 2.15278300 1.15630600
vt 2.16984300 0.99938810
vt 2.16984300 1.17945800
vt 2.16984300 1.17945800
vt 1.98977300 1.17945800
vt 1.98977300 1.49458100
vt 2.15278300 1.51773200
vt 2.16984300 1.49458100
vt 2.00683200 1.51773200
vt 2.00683200 1.65149900
vt 1.98977300 1.67465000
vt 1.98977300 1.49458100
vt 2.15278300 1.65149900
vt 2.16984300 1.49458100
vt 2.16984300 1.67465000
vt 2.16984300 1.67465000
vt 1.98977300 1.67465000
vt 2.38592700 1.39554200
vt 2.54893700 1.41869400
vt 2.56599600 1.39554200
vt 2.40298600 1.41869400
vt 2.40298600 1.55246000
vt 2.38592700 1.57561200
vt 2.38592700 1.39554200
vt 2.54893700 1.55246000
vt 2.56599600 1.39554200
vt 2.56599600 1.57561200
vt 2.56599600 1.57561200
vt 2.38592700 1.57561200
vt 1.19746500 0.99938810
vt 1.36047600 1.02254000
vt 1.37753500 0.99938810
vt 1.21452400 1.02254000
vt 1.21452400 1.15630600
vt 1.19746500 1.17945800
vt 1.19746500 0.99938810
vt 1.36047600 1.15630600
vt 1.37753500 0.99938810
vt 1.37753500 1.17945800
vt 1.37753500 1.17945800
vt 1.19746500 1.17945800
vt 1.19746500 1.19746500
vt 1.36047600 1.22061700
vt 1.37753500 1.19746500
vt 1.21452400 1.22061700
vt 1.21452400 1.35438300
vt 1.19746500 1.37753500
vt 1.19746500 1.19746500
vt 1.36047600 1.35438300
vt 1.37753500 1.19746500
vt 1.37753500 1.37753500
vt 1.37753500 1.37753500
vt 1.19746500 1.37753500
vt 0.20708040 1.29650400
vt 0.37009110 1.31965500
vt 0.38715030 1.29650400
vt 0.22413970 1.31965500
vt 0.22413970 1.45342100
vt 0.20708040 1.47657300
vt 0.20708040 1.29650400
vt 0.37009110 1.45342100
vt 0.38715030 1.29650400
vt 0.38715030 1.47657300
vt 0.38715030 1.47657300
vt 0.20708040 1.47657300
vt 0.60323420 0.99938810
vt 0.76624490 1.02254000
vt 0.78330420 0.99938810
vt 0.62029360 1.02254000
vt 0.62029360 1.15630600
vt 0.60323420 1.17945800
vt 0.60323420 0.99938810
vt 0.76624490 1.15630600
vt 0.78330420 0.99938810
vt 0.78330420 1.17945800
vt 0.78330420 1.17945800
vt 0.60323420 1.17945800
vt 0.99938810 0.40558610
vt 1.16239900 0.42506750
vt 1.17945800 0.40558610
vt 1.01644700 0.42506750
vt 1.01644700 0.76339410
vt 0.99938810 0.78287550
vt 0.99938810 0.40558610
vt 1.16239900 0.76339410
vt 1.17945800 0.40558610
vt 1.17945800 0.78287550
vt 1.17945800 0.78287550
vt 0.99938810 0.78287550
vt 1.59361900 0.40558610
vt 1.75663000 0.42506750
vt 1.77368900 0.40558610
vt 1.61067800 0.42506750
vt 1.61067800 0.76339410
vt 1.59361900 0.78287550
vt 1.59361900 0.40558610
vt 1.75663000 0.76339410
vt 1.77368900 0.40558610
vt 1.77368900 0.78287550
vt 1.77368900 0.78287550
vt 1.59361900 0.78287550
vt 0.40515740 1.09767600
vt 0.56816800 1.11142300
vt 0.58522730 1.09767600
vt 0.42221660 1.11142300
vt 0.42221660 1.16646100
vt 0.40515740 1.18020800
vt 0.40515740 1.09767600
vt 0.56816800 1.16646100
vt 0.58522730 1.09767600
vt 0.58522730 1.18020800
vt 0.58522730 1.18020800
vt 0.40515740 1.18020800
vt 2.38592700 1.09767600
vt 2.54893700 1.11142300
vt 2.56599600 1.09767600
vt 2.40298600 1.11142300
vt 2.40298600 1.16646100
vt 2.38592700 1.18020800
vt 2.38592700 1.09767600
vt 2.54893700 1.16646100
vt 2.56599600 1.09767600
vt 2.56599600 1.18020800
vt 2.56599600 1.18020800
vt 2.38592700 1.18020800
vt 0.80131120 0.89959940
vt 0.96654700 0.91433720
vt 0.98138120 0.89959940
vt 0.81614530 0.91433720
vt 0.81614530 0.96739360
vt 0.80131120 0.98213140
vt 0.80131120 0.89959940
vt 0.96654700 0.96739360
vt 0.98138120 0.89959940
vt 0.98138120 0.98213140
vt 0.98138120 0.98213140
vt 0.80131120 0.98213140
vt 1.79169600 0.80056090
vt 1.95693100 0.81529880
vt 1.97176600 0.80056090
vt 1.80653000 0.81529880
vt 1.80653000 0.86835510
vt 1.79169600 0.88309290
vt 1.79169600 0.80056090
vt 1.95693100 0.86835510
vt 1.97176600 0.80056090
vt 1.97176600 0.88309290
vt 1.97176600 0.88309290
vt 1.79169600 0.88309290
vt 0.40515740 0.80056090
vt 0.57039310 0.81529880
vt 0.58522730 0.80056090
vt 0.41999150 0.81529880
vt 0.41999150 0.86835510
vt 0.40515740 0.88309290
vt 0.40515740 0.80056090
vt 0.57039310 0.86835510
vt 0.58522730 0.80056090
vt 0.58522730 0.88309290
vt 0.58522730 0.88309290
vt 0.40515740 0.88309290
vt 2.18785000 0.80056090
vt 2.35308600 0.81529880
vt 2.36791900 0.80056090
vt 2.20268400 0.81529880
vt 2.20268400 0.86835510
vt 2.18785000 0.88309290
vt 2.18785000 0.80056090
vt 2.35308600 0.86835510
vt 2.36791900 0.80056090
vt 2.36791900 0.88309290
vt 2.36791900 0.88309290
vt 2.18785000 0.88309290
vt 2.38592700 0.89959940
vt 2.55116200 0.91433720
vt 2.56599600 0.89959940
vt 2.40076100 0.91433720
vt 2.40076100 0.96739360
vt 2.38592700 0.98213140
vt 2.38592700 0.89959940
vt 2.55116200 0.96739360
vt 2.56599600 0.89959940
vt 2.56599600 0.98213140
vt 2.56599600 0.98213140
vt 2.38592700 0.98213140
vt 0.00900350 0.89959940
vt 0.17423930 0.91433720
vt 0.18907340 0.89959940
vt 0.02383763 0.91433720
vt 0.02383763 0.96739360
vt 0.00900350 0.98213140
vt 0.00900350 0.89959940
vt 0.17423930 0.96739360
vt 0.18907340 0.89959940
vt 0.18907340 0.98213140
vt 0.18907340 0.98213140
vt 0.00900350 0.98213140
vt 0.00900350 0.80056090
vt 0.17423930 0.81529880
vt 0.18907340 0.80056090
vt 0.02383764 0.81529880
vt 0.02383764 0.86835510
vt 0.00900350 0.88309290
vt 0.00900350 0.80056090
vt 0.17423930 0.86835510
vt 0.18907340 0.80056090
vt 0.18907340 0.88309290
vt 0.18907340 0.88309290
vt 0.00900350 0.88309290
f 3/3/3 2/2/2 1/1/1
f 4/4/4 3/3/3 1/1/1
f 7/7/7 6/6/6 5/5/5
f 8/8/8 7/7/7 5/5/5
f 11/11/11 10/10/10 9/9/9
f 12/12/12 11/11/11 9/9/9
f 15/15/15 14/14/14 13/13/13
f 16/16/16 15/15/15 13/13/13
f 19/19/19 18/18/18 17/17/17
f 20/20/20 19/19/19 17/17/17
f 23/23/23 22/22/22 21/21/21
f 24/24/24 23/23/23 21/21/21
f 27/27/27 26/26/26 25/25/25
f 28/28/28 27/27/27 25/25/25
f 31/31/31 30/30/30 29/29/29
f 32/32/32 31/31/31 29/29/29
f 35/35/35 34/34/34 33/33/33
f 36/36/36 35/35/35 33/33/33
f 39/39/39 38/38/38 37/37/37
f 40/40/40 39/39/39 37/37/37
f 43/43/43 42/42/42 41/41/41
f 44/44/44 43/43/43 41/41/41
f 47/47/47 46/46/46 45/45/45
f 48/48/48 47/47/47 45/45/45
f 51/51/51 50/50/50 49/49/49
f 52/52/52 51/51/51 49/49/49
f 55/55/55 54/54/54 53/53/53
f 56/56/56 55/55/55 53/53/53
f 59/59/59 58/58/58 57/57/57
f 60/60/60 59/59/59 57/57/57
f 63/63/63 62/62/62 61/61/61
f 64/64/64 63/63/63 61/61/61
f 67/67/67 66/66/66 65/65/65
f 68/68/68 67/67/67 65/65/65
f 71/71/71 70/70/70 69/69/69
f 72/72/72 71/71/71 69/69/69
f 75/75/75 74/74/74 73/73/73
f 76/76/76 75/75/75 73/73/73
f 79/79/79 78/78/78 77/77/77
f 80/80/80 79/79/79 77/77/77
f 83/83/83 82/82/82 81/81/81
f 84/84/84 83/83/83 81/81/81
f 87/87/87 86/86/86 85/85/85
f 88/88/88 87/87/87 85/85/85
f 91/91/91 90/90/90 89/89/89
f 92/92/92 91/91/91 89/89/89
f 95/95/95 94/94/94 93/93/93
f 96/96/96 95/95/95 93/93/93
f 99/99/99 98/98/98 97/97/97
f 100/100/100 99/99/99 97/97/97
f 103/103/103 102/102/102 101/101/101
f 104/104/104 103/103/103 101/101/101
f 107/107/107 106/106/106 105/105/105
f 108/108/108 107/107/107 105/105/105
f 111/111/111 110/110/110 109/109/109
f 112/112/112 111/111/111 109/109/109
f 115/115/115 114/114/114 113/113/113
f 116/116/116 115/115/115 113/113/113
f 119/119/119 118/118/118 117/117/117
f 120/120/120 119/119/119 117/117/117
f 123/123/123 122/122/122 121/121/121
f 124/124/124 123/123/123 121/121/121
f 127/127/127 126/126/126 125/125/125
f 128/128/128 127/127/127 125/125/125
f 131/131/131 130/130/130 129/129/129
f 132/132/132 131/131/131 129/129/129
f 135/135/135 134/134/134 133/133/133
f 136/136/136 135/135/135 133/133/133
f 139/139/139 138/138/138 137/137/137
f 140/140/140 139/139/139 137/137/137
f 143/143/143 142/142/142 141/141/141
f 144/144/144 143/143/143 141/141/141
f 147/147/147 146/146/146 145/145/145
f 148/148/148 147/147/147 145/145/145
f 151/151/151 150/150/150 149/149/149
f 152/152/152 151/151/151 149/149/149
f 155/155/155 154/154/154 153/153/153
f 156/156/156 155/155/155 153/153/153
f 159/159/159 158/158/158 157/157/157
f 160/160/160 159/159/159 157/157/157
f 163/163/163 162/162/162 161/161/161
f 164/164/164 163/163/163 161/161/161
f 167/167/167 166/166/166 165/165/165
f 168/168/168 167/167/167 165/165/165
f 171/171/171 170/170/170 169/169/169
f 172/172/172 171/171/171 169/169/169
f 175/175/175 174/174/174 173/173/173
f 176/176/176 175/175/175 173/173/173
f 179/179/179 178/178/178 177/177/177
f 180/180/180 179/179/179 177/177/177
f 183/183/183 182/182/182 181/181/181
f 184/184/184 183/183/183 181/181/181
f 187/187/187 186/186/186 185/185/185
f 188/188/188 187/187/187 185/185/185
f 191/191/191 190/190/190 189/189/189
f 192/192/192 191/191/191 189/189/189
f 195/195/195 194/194/194 193/193/193
f 196/196/196 195/195/195 193/193/193
f 199/199/199 198/198/198 197/197/197
f 200/200/200 199/199/199 197/197/197
f 203/203/203 202/202/202 201/201/201
f 204/204/204 203/203/203 201/201/201
f 207/207/207 206/206/206 205/205/205
f 208/208/208 207/207/207 205/205/205
f 211/211/211 210/210/210 209/209/209
f 212/212/212 211/211/211 209/209/209
f 215/215/215 214/214/214 213/213/213
f 216/216/216 215/215/215 213/213/213
f 219/219/219 218/218/218 217/217/217
f 220/220/220 219/219/219 217/217/217
f 223/223/223 222/222/222 221/221/221
f 224/224/224 223/223/223 221/221/221
f 227/227/227 226/226/226 225/225/225
f 228/228/228 227/227/227 225/225/225
f 231/231/231 230/230/230 229/229/229
f 232/232/232 231/231/231 229/229/229
f 235/235/235 234/234/234 233/233/233
f 236/236/236 235/235/235 233/233/233
f 239/239/239 238/238/238 237/237/237
f 240/240/240 239/239/239 237/237/237
f 243/243/243 242/242/242 241/241/241
f 244/244/244 243/243/243 241/241/241
f 247/247/247 246/246/246 245/245/245
f 248/248/248 247/247/247 245/245/245
f 251/251/251 250/250/250 249/249/249
f 252/252/252 251/251/251 249/249/249
f 255/255/255 254/254/254 253/253/253
f 256/256/256 255/255/255 253/253/253
f 259/259/259 258/258/258 257/257/257
f 260/260/260 259/259/259 257/257/257
f 263/263/263 262/262/262 261/261/261
f 264/264/264 263/263/263 261/261/261
f 267/267/267 266/266/266 265/265/265
f 268/268/268 267/267/267 265/265/265
f 271/271/271 270/270/270 269/269/269
f 272/272/272 271/271/271 269/269/269
f 275/275/275 274/274/274 273/273/273
f 276/276/276 275/275/275 273/273/273
f 279/279/279 278/278/278 277/277/277
f 280/280/280 279/279/279 277/277/277
f 283/283/283 282/282/282 281/281/281
f 284/284/284 283/283/283 281/281/281
f 287/287/287 286/286/286 285/285/285
f 288/288/288 287/287/287 285/285/285
f 291/291/291 290/290/290 289/289/289
f 292/292/292 291/291/291 289/289/289
f 295/295/295 294/294/294 293/293/293
f 296/296/296 295/295/295 293/293/293
f 299/299/299 298/298/298 297/297/297
f 300/300/300 299/299/299 297/297/297
f 303/303/303 302/302/302 301/301/301
f 304/304/304 303/303/303 301/301/301
f 307/307/307 306/306/306 305/305/305
f 308/308/308 307/307/307 305/305/305
f 311/311/311 310/310/310 309/309/309
f 312/312/312 311/311/311 309/309/309
f 315/315/315 314/314/314 313/313/313
f 316/316/316 315/315/315 313/313/313
f 319/319/319 318/318/318 317/317/317
f 320/320/320 319/319/319 317/317/317
f 323/323/323 322/322/322 321/321/321
f 324/324/324 323/323/323 321/321/321
f 327/327/327 326/326/326 325/325/325
f 328/328/328 327/327/327 325/325/325
f 331/331/331 330/330/330 329/329/329
f 332/332/332 331/331/331 329/329/329
f 335/335/335 334/334/334 333/333/333
f 336/336/336 335/335/335 333/333/333
f 339/339/339 338/338/338 337/337/337
f 340/340/340 339/339/339 337/337/337
f 343/343/343 342/342/342 341/341/341
f 344/344/344 343/343/343 341/341/341
f 347/347/347 346/346/346 345/345/345
f 348/348/348 347/347/347 345/345/345
f 351/351/351 350/350/350 349/349/349
f 352/352/352 351/351/351 349/349/349
f 355/355/355 354/354/354 353/353/353
f 356/356/356 355/355/355 353/353/353
f 359/359/359 358/358/358 357/357/357
f 360/360/360 359/359/359 357/357/357
f 363/363/363 362/362/362 361/361/361
f 364/364/364 363/363/363 361/361/361
f 367/367/367 366/366/366 365/365/365
f 368/368/368 367/367/367 365/365/365
f 371/371/371 370/370/370 369/369/369
f 372/372/372 371/371/371 369/369/369
f 375/375/375 374/374/374 373/373/373
f 376/376/376 375/375/375 373/373/373
f 379/379/379 378/378/378 377/377/377
f 380/380/380 379/379/379 377/377/377
f 383/383/383 382/382/382 381/381/381
f 384/384/384 383/383/383 381/381/381
f 387/387/387 386/386/386 385/385/385
f 388/388/388 387/387/387 385/385/385
f 391/391/391 390/390/390 389/389/389
f 392/392/392 391/391/391 389/389/389
f 395/395/395 394/394/394 393/393/393
f 396/396/396 395/395/395 393/393/393
f 399/399/399 398/398/398 397/397/397
f 400/400/400 399/399/399 397/397/397
f 403/403/403 402/402/402 401/401/401
f 402/402/402 404/404/404 401/401/401
f 405/405/405 404/404/404 402/402/402
f 404/404/404 405/405/405 406/406/406
f 407/407/407 404/404/404 406/406/406
f 408/408/408 405/405/405 402/402/402
f 408/408/408 402/402/402 409/409/409
f 410/410/410 408/408/408 409/409/409
f 405/405/405 408/408/408 411/411/411
f 412/412/412 405/405/405 411/411/411
f 415/415/415 414/414/414 413/413/413
f 414/414/414 416/416/416 413/413/413
f 417/417/417 416/416/416 414/414/414
f 416/416/416 417/417/417 418/418/418
f 419/419/419 416/416/416 418/418/418
f 420/420/420 417/417/417 414/414/414
f 420/420/420 414/414/414 421/421/421
f 422/422/422 420/420/420 421/421/421
f 417/417/417 420/420/420 423/423/423
f 424/424/424 417/417/417 423/423/423
f 427/427/427 426/426/426 425/425/425
f 426/426/426 428/428/428 425/425/425
f 429/429/429 428/428/428 426/426/426
f 428/428/428 429/429/429 430/430/430
f 431/431/431 428/428/428 430/430/430
f 432/432/432 429/429/429 426/426/426
f 432/432/432 426/426/426 433/433/433
f 434/434/434 432/432/432 433/433/433
f 429/429/429 432/432/432 435/435/435
f 436/436/436 429/429/429 435/435/435
f 439/439/439 438/438/438 437/437/437
f 438/438/438 440/440/440 437/437/437
f 441/441/441 440/440/440 438/438/438
f 440/440/440 441/441/441 442/442/442
f 443/443/443 440/440/440 442/442/442
f 444/444/444 441/441/441 438/438/438
f 444/444/444 438/438/438 445/445/445
f 446/446/446 444/444/444 445/445/445
f 441/441/441 444/444/444 447/447/447
f 448/448/448 441/441/441 447/447/447
f 451/451/451 450/450/450 449/449/449
f 450/450/450 452/452/452 449/449/449
f 453/453/453 452/452/452 450/450/450
f 452/452/452 453/453/453 454/454/454
f 455/455/455 452/452/452 454/454/454
f 456/456/456 453/453/453 450/450/450
f 456/456/456 450/450/450 457/457/457
f 458/458/458 456/456/456 457/457/457
f 453/453/453 456/456/456 459/459/459
f 460/460/460 453/453/453 459/459/459
f 463/463/463 462/462/462 461/461/461
f 462/462/462 464/464/464 461/461/461
f 465/465/465 464/464/464 462/462/462
f 464/464/464 465/465/465 466/466/466
f 467/467/467 464/464/464 466/466/466
f 468/468/468 465/465/465 462/462/462
f 468/468/468 462/462/462 469/469/469
f 470/470/470 468/468/468 469/469/469
f 465/465/465 468/468/468 471/471/471
f 472/472/472 465/465/465 471/471/471
f 475/475/475 474/474/474 473/473/473
f 474/474/474 476/476/476 473/473/473
f 477/477/477 476/476/476 474/474/474
f 476/476/476 477/477/477 478/478/478
f 479/479/479 476/476/476 478/478/478
f 480/480/480 477/477/477 474/474/474
f 480/480/480 474/474/474 481/481/481
f 482/482/482 480/480/480 481/481/481
f 477/477/477 480/480/480 483/483/483
f 484/484/484 477/477/477 483/483/483
f 487/487/487 486/486/486 485/485/485
f 486/486/486 488/488/488 485/485/485
f 489/489/489 488/488/488 486/486/486
f 488/488/488 489/489/489 490/490/490
f 491/491/491 488/488/488 490/490/490
f 492/492/492 489/489/489 486/486/486
f 492/492/492 486/486/486 493/493/493
f 494/494/494 492/492/492 493/493/493
f 489/489/489 492/492/492 495/495/495
f 496/496/496 489/489/489 495/495/495
f 499/499/499 498/498/498 497/497/497
f 498/498/498 500/500/500 497/497/497
f 501/501/501 500/500/500 498/498/498
f 500/500/500 501/501/501 502/502/502
f 503/503/503 500/500/500 502/502/502
f 504/504/504 501/501/501 498/498/498
f 504/504/504 498/498/498 505/505/505
f 506/506/506 504/504/504 505/505/505
f 501/501/501 504/504/504 507/507/507
f 508/508/508 501/501/501 507/507/507
f 511/511/511 510/510/510 509/509/509
f 510/510/510 512/512/512 509/509/509
f 513/513/513 512/512/512 510/510/510
f 512/512/512 513/513/513 514/514/514
f 515/515/515 512/512/512 514/514/514
f 516/516/516 513/513/513 510/510/510
f 516/516/516 510/510/510 517/517/517
f 518/518/518 516/516/516 517/517/517
f 513/513/513 516/516/516 519/519/519
f 520/520/520 513/513/513 519/519/519
f 523/523/523 522/522/522 521/521/521
f 522/522/522 524/524/524 521/521/521
f 525/525/525 524/524/524 522/522/522
f 524/524/524 525/525/525 526/526/526
f 527/527/527 524/524/524 526/526/526
f 528/528/528 525/525/525 522/522/522
f 528/528/528 522/522/522 529/529/529
f 530/530/530 528/528/528 529/529/529
f 525/525/525 528/528/528 531/531/531
f 532/532/532 525/525/525 531/531/531
f 535/535/535 534/534/534 533/533/533
f 534/534/534 536/536/536 533/533/533
f 537/537/537 536/536/536 534/534/534
f 536/536/536 537/537/537 538/538/538
f 539/539/539 536/536/536 538/538/538
f 540/540/540 537/537/537 534/534/534
f 540/540/540 534/534/534 541/541/541
f 542/542/542 540/540/540 541/541/541
f 537/537/537 540/540/540 543/543/543
f 544/544/544 537/537/537 543/543/543
f 547/547/547 546/546/546 545/545/545
f 546/546/546 548/548/548 545/545/545
f 549/549/549 548/548/548 546/546/546
f 548/548/548 549/549/549 550/550/550
f 551/551/551 548/548/548 550/550/550
f 552/552/552 549/549/549 546/546/546
f 552/552/552 546/546/546 553/553/553
f 554/554/554 552/552/552 553/553/553
f 549/549/549 552/552/552 555/555/555
f 556/556/556 549/549/549 555/555/555
f 559/559/559 558/558/558 557/557/557
f 558/558/558 560/560/560 557/557/557
f 561/561/561 560/560/560 558/558/558
f 560/560/560 561/561/561 562/562/562
f 563/563/563 560/560/560 562/562/562
f 564/564/564 561/561/561 558/558/558
f 564/564/564 558/558/558 565/565/565
f 566/566/566 564/564/564 565/565/565
f 561/561/561 564/564/564 567/567/567
f 568/568/568 561/561/561 567/567/567
f 571/571/571 570/570/570 569/569/569
f 570/570/570 572/572/572 569/569/569
f 573/573/573 572/572/572 570/570/570
f 572/572/572 573/573/573 574/574/574
f 575/575/575 572/572/572 574/574/574
f 576/576/576 573/573/573 570/570/570
f 576/576/576 570/570/570 577/577/577
f 578/578/578 576/576/576 577/577/577
f 573/573/573 576/576/576 579/579/579
f 580/580/580 573/573/573 579/579/579
f 583/583/583 582/582/582 581/581/581
f 582/582/582 584/584/584 581/581/581
f 585/585/585 584/584/584 582/582/582
f 584/584/584 585/585/585 586/586/586
f 587/587/587 584/584/584 586/586/586
f 588/588/588 585/585/585 582/582/582
f 588/588/588 582/582/582 589/589/589
f 590/590/590 588/588/588 589/589/589
f 585/585/585 588/588/588 591/591/591
f 592/592/592 585/585/585 591/591/591
f 595/595/595 594/594/594 593/593/593
f 594/594/594 596/596/596 593/593/593
f 597/597/597 596/596/596 594/594/594
f 596/596/596 597/597/597 598/598/598
f 599/599/599 596/596/596 598/598/598
f 600/600/600 597/597/597 594/594/594
f 600/600/600 594/594/594 601/601/601
f 602/602/602 600/600/600 601/601/601
f 597/597/597 600/600/600 603/603/603
f 604/604/604 597/597/597 603/603/603
f 607/607/607 606/606/606 605/605/605
f 606/606/606 608/608/608 605/605/605
f 609/609/609 608/608/608 606/606/606
f 608/608/608 609/609/609 610/610/610
f 611/611/611 608/608/608 610/610/610
f 612/612/612 609/609/609 606/606/606
f 612/612/612 606/606/606 613/613/613
f 614/614/614 612/612/612 613/613/613
f 609/609/609 612/612/612 615/615/615
f 616/616/616 609/609/609 615/615/615
f 619/619/619 618/618/618 617/617/617
f 618/618/618 620/620/620 617/617/617
f 621/621/621 620/620/620 618/618/618
f 620/620/620 621/621/621 622/622/622
f 623/623/623 620/620/620 622/622/622
f 624/624/624 621/621/621 618/618/618
f 624/624/624 618/618/618 625/625/625
f 626/626/626 624/624/624 625/625/625
f 621/621/621 624/624/624 627/627/627
f 628/628/628 621/621/621 627/627/627
f 631/631/631 630/630/630 629/629/629
f 630/630/630 632/632/632 629/629/629
f 633/633/633 632/632/632 630/630/630
f 632/632/632 633/633/633 634/634/634
f 635/635/635 632/632/632 634/634/634
f 636/636/636 633/633/633 630/630/630
f 636/636/636 630/630/630 637/637/637
f 638/638/638 636/636/636 637/637/637
f 633/633/633 636/636/636 639/639/639
f 640/640/640 633/633/633 639/639/639

