mtllib material.mtl
usemtl material_0
v -0.02081250 0.00580000 0.01478000
v -0.02081250 0.00580000 0.01982000
v -0.00988750 0.00580000 0.01982000
v -0.00988750 0.00580000 0.01478000
v -0.02081250 0.01030000 0.01478000
v -0.02081250 0.00580000 0.01478000
v -0.00988750 0.00580000 0.01478000
v -0.00988750 0.01030000 0.01478000
v -0.00988750 0.01030000 0.01478000
v -0.00988750 0.00580000 0.01478000
v -0.00988750 0.00580000 0.01982000
v -0.00988750 0.01030000 0.01982000
v -0.00988750 0.01030000 0.01982000
v -0.00988750 0.00580000 0.01982000
v -0.02081250 0.00580000 0.01982000
v -0.02081250 0.01030000 0.01982000
v -0.02081250 0.01030000 0.01982000
v -0.02081250 0.00580000 0.01982000
v -0.02081250 0.00580000 0.01478000
v -0.02081250 0.01030000 0.01478000
v 0.01138750 0.00580000 0.01478000
v 0.01138750 0.00580000 0.01982000
v 0.02231250 0.00580000 0.01982000
v 0.02231250 0.00580000 0.01478000
v 0.01138750 0.01030000 0.01478000
v 0.01138750 0.00580000 0.01478000
v 0.02231250 0.00580000 0.01478000
v 0.02231250 0.01030000 0.01478000
v 0.02231250 0.01030000 0.01478000
v 0.02231250 0.00580000 0.01478000
v 0.02231250 0.00580000 0.01982000
v 0.02231250 0.01030000 0.01982000
v 0.02231250 0.01030000 0.01982000
v 0.02231250 0.00580000 0.01982000
v 0.01138750 0.00580000 0.01982000
v 0.01138750 0.01030000 0.01982000
v 0.01138750 0.01030000 0.01982000
v 0.01138750 0.00580000 0.01982000
v 0.01138750 0.00580000 0.01478000
v 0.01138750 0.01030000 0.01478000
v -0.00988750 0.01030000 0.01478000
v -0.01991250 0.01090000 0.01568000
v -0.02081250 0.01030000 0.01478000
v -0.01078750 0.01090000 0.01568000
v -0.01078750 0.01090000 0.01892000
v -0.00988750 0.01030000 0.01982000
v -0.00988750 0.01030000 0.01478000
v -0.01991250 0.01090000 0.01892000
v -0.02081250 0.01030000 0.01478000
v -0.02081250 0.01030000 0.01982000
v -0.02081250 0.01030000 0.01982000
v -0.00988750 0.01030000 0.01982000
v 0.02231250 0.01030000 0.01478000
v 0.01228750 0.01090000 0.01568000
v 0.01138750 0.01030000 0.01478000
v 0.02141250 0.01090000 0.01568000
v 0.02141250 0.01090000 0.01892000
v 0.02231250 0.01030000 0.01982000
v 0.02231250 0.01030000 0.01478000
v 0.01228750 0.01090000 0.01892000
v 0.01138750 0.01030000 0.01478000
v 0.01138750 0.01030000 0.01982000
v 0.01138750 0.01030000 0.01982000
v 0.02231250 0.01030000 0.01982000
v -0.02020000 0.00580000 0.04365249
v -0.02020000 0.00580000 0.04914750
v -0.01070000 0.00580000 0.04914750
v -0.01070000 0.00580000 0.04365249
v -0.02020000 0.01030000 0.04365249
v -0.02020000 0.00580000 0.04365249
v -0.01070000 0.00580000 0.04365249
v -0.01070000 0.01030000 0.04365249
v -0.01070000 0.01030000 0.04365249
v -0.01070000 0.00580000 0.04365249
v -0.01070000 0.00580000 0.04914750
v -0.01070000 0.01030000 0.04914750
v -0.01070000 0.01030000 0.04914750
v -0.01070000 0.00580000 0.04914750
v -0.02020000 0.00580000 0.04914750
v -0.02020000 0.01030000 0.04914750
v -0.02020000 0.01030000 0.04914750
v -0.02020000 0.00580000 0.04914750
v -0.02020000 0.00580000 0.04365249
v -0.02020000 0.01030000 0.04365249
v -0.00960000 0.00580000 0.04365249
v -0.00960000 0.00580000 0.04914750
v -0.00010000 0.00580000 0.04914750
v -0.00010000 0.00580000 0.04365249
v -0.00960000 0.01030000 0.04365249
v -0.00960000 0.00580000 0.04365249
v -0.00010000 0.00580000 0.04365249
v -0.00010000 0.01030000 0.04365249
v -0.00010000 0.01030000 0.04365249
v -0.00010000 0.00580000 0.04365249
v -0.00010000 0.00580000 0.04914750
v -0.00010000 0.01030000 0.04914750
v -0.00010000 0.01030000 0.04914750
v -0.00010000 0.00580000 0.04914750
v -0.00960000 0.00580000 0.04914750
v -0.00960000 0.01030000 0.04914750
v -0.00960000 0.01030000 0.04914750
v -0.00960000 0.00580000 0.04914750
v -0.00960000 0.00580000 0.04365249
v -0.00960000 0.01030000 0.04365249
v 0.00120000 0.00580000 0.04365249
v 0.00120000 0.00580000 0.04914750
v 0.01070000 0.00580000 0.04914750
v 0.01070000 0.00580000 0.04365249
v 0.00120000 0.01030000 0.04365249
v 0.00120000 0.00580000 0.04365249
v 0.01070000 0.00580000 0.04365249
v 0.01070000 0.01030000 0.04365249
v 0.01070000 0.01030000 0.04365249
v 0.01070000 0.00580000 0.04365249
v 0.01070000 0.00580000 0.04914750
v 0.01070000 0.01030000 0.04914750
v 0.01070000 0.01030000 0.04914750
v 0.01070000 0.00580000 0.04914750
v 0.00120000 0.00580000 0.04914750
v 0.00120000 0.01030000 0.04914750
v 0.00120000 0.01030000 0.04914750
v 0.00120000 0.00580000 0.04914750
v 0.00120000 0.00580000 0.04365249
v 0.00120000 0.01030000 0.04365249
v 0.01190000 0.00580000 0.04365249
v 0.01190000 0.00580000 0.04914750
v 0.02140000 0.00580000 0.04914750
v 0.02140000 0.00580000 0.04365249
v 0.01190000 0.01030000 0.04365249
v 0.01190000 0.00580000 0.04365249
v 0.02140000 0.00580000 0.04365249
v 0.02140000 0.01030000 0.04365249
v 0.02140000 0.01030000 0.04365249
v 0.02140000 0.00580000 0.04365249
v 0.02140000 0.00580000 0.04914750
v 0.02140000 0.01030000 0.04914750
v 0.02140000 0.01030000 0.04914750
v 0.02140000 0.00580000 0.04914750
v 0.01190000 0.00580000 0.04914750
v 0.01190000 0.01030000 0.04914750
v 0.01190000 0.01030000 0.04914750
v 0.01190000 0.00580000 0.04914750
v 0.01190000 0.00580000 0.04365249
v 0.01190000 0.01030000 0.04365249
v -0.02020000 0.00580000 0.05245250
v -0.02020000 0.00580000 0.05794750
v -0.01070000 0.00580000 0.05794750
v -0.01070000 0.00580000 0.05245250
v -0.02020000 0.01030000 0.05245250
v -0.02020000 0.00580000 0.05245250
v -0.01070000 0.00580000 0.05245250
v -0.01070000 0.01030000 0.05245250
v -0.01070000 0.01030000 0.05245250
v -0.01070000 0.00580000 0.05245250
v -0.01070000 0.00580000 0.05794750
v -0.01070000 0.01030000 0.05794750
v -0.01070000 0.01030000 0.05794750
v -0.01070000 0.00580000 0.05794750
v -0.02020000 0.00580000 0.05794750
v -0.02020000 0.01030000 0.05794750
v -0.02020000 0.01030000 0.05794750
v -0.02020000 0.00580000 0.05794750
v -0.02020000 0.00580000 0.05245250
v -0.02020000 0.01030000 0.05245250
v -0.00960000 0.00580000 0.05245250
v -0.00960000 0.00580000 0.05794750
v -0.00010000 0.00580000 0.05794750
v -0.00010000 0.00580000 0.05245250
v -0.00960000 0.01030000 0.05245250
v -0.00960000 0.00580000 0.05245250
v -0.00010000 0.00580000 0.05245250
v -0.00010000 0.01030000 0.05245250
v -0.00010000 0.01030000 0.05245250
v -0.00010000 0.00580000 0.05245250
v -0.00010000 0.00580000 0.05794750
v -0.00010000 0.01030000 0.05794750
v -0.00010000 0.01030000 0.05794750
v -0.00010000 0.00580000 0.05794750
v -0.00960000 0.00580000 0.05794750
v -0.00960000 0.01030000 0.05794750
v -0.00960000 0.01030000 0.05794750
v -0.00960000 0.00580000 0.05794750
v -0.00960000 0.00580000 0.05245250
v -0.00960000 0.01030000 0.05245250
v 0.00120000 0.00580000 0.05245250
v 0.00120000 0.00580000 0.05794750
v 0.01070000 0.00580000 0.05794750
v 0.01070000 0.00580000 0.05245250
v 0.00120000 0.01030000 0.05245250
v 0.00120000 0.00580000 0.05245250
v 0.01070000 0.00580000 0.05245250
v 0.01070000 0.01030000 0.05245250
v 0.01070000 0.01030000 0.05245250
v 0.01070000 0.00580000 0.05245250
v 0.01070000 0.00580000 0.05794750
v 0.01070000 0.01030000 0.05794750
v 0.01070000 0.01030000 0.05794750
v 0.01070000 0.00580000 0.05794750
v 0.00120000 0.00580000 0.05794750
v 0.00120000 0.01030000 0.05794750
v 0.00120000 0.01030000 0.05794750
v 0.00120000 0.00580000 0.05794750
v 0.00120000 0.00580000 0.05245250
v 0.00120000 0.01030000 0.05245250
v 0.01190000 0.00580000 0.05245250
v 0.01190000 0.00580000 0.05794750
v 0.02140000 0.00580000 0.05794750
v 0.02140000 0.00580000 0.05245250
v 0.01190000 0.01030000 0.05245250
v 0.01190000 0.00580000 0.05245250
v 0.02140000 0.00580000 0.05245250
v 0.02140000 0.01030000 0.05245250
v 0.02140000 0.01030000 0.05245250
v 0.02140000 0.00580000 0.05245250
v 0.02140000 0.00580000 0.05794750
v 0.02140000 0.01030000 0.05794750
v 0.02140000 0.01030000 0.05794750
v 0.02140000 0.00580000 0.05794750
v 0.01190000 0.00580000 0.05794750
v 0.01190000 0.01030000 0.05794750
v 0.01190000 0.01030000 0.05794750
v 0.01190000 0.00580000 0.05794750
v 0.01190000 0.00580000 0.05245250
v 0.01190000 0.01030000 0.05245250
v -0.02020000 0.00580000 0.06205250
v -0.02020000 0.00580000 0.06754750
v -0.01070000 0.00580000 0.06754750
v -0.01070000 0.00580000 0.06205250
v -0.02020000 0.01030000 0.06205250
v -0.02020000 0.00580000 0.06205250
v -0.01070000 0.00580000 0.06205250
v -0.01070000 0.01030000 0.06205250
v -0.01070000 0.01030000 0.06205250
v -0.01070000 0.00580000 0.06205250
v -0.01070000 0.00580000 0.06754750
v -0.01070000 0.01030000 0.06754750
v -0.01070000 0.01030000 0.06754750
v -0.01070000 0.00580000 0.06754750
v -0.02020000 0.00580000 0.06754750
v -0.02020000 0.01030000 0.06754750
v -0.02020000 0.01030000 0.06754750
v -0.02020000 0.00580000 0.06754750
v -0.02020000 0.00580000 0.06205250
v -0.02020000 0.01030000 0.06205250
v -0.00960000 0.00580000 0.06205250
v -0.00960000 0.00580000 0.06754750
v -0.00010000 0.00580000 0.06754750
v -0.00010000 0.00580000 0.06205250
v -0.00960000 0.01030000 0.06205250
v -0.00960000 0.00580000 0.06205250
v -0.00010000 0.00580000 0.06205250
v -0.00010000 0.01030000 0.06205250
v -0.00010000 0.01030000 0.06205250
v -0.00010000 0.00580000 0.06205250
v -0.00010000 0.00580000 0.06754750
v -0.00010000 0.01030000 0.06754750
v -0.00010000 0.01030000 0.06754750
v -0.00010000 0.00580000 0.06754750
v -0.00960000 0.00580000 0.06754750
v -0.00960000 0.01030000 0.06754750
v -0.00960000 0.01030000 0.06754750
v -0.00960000 0.00580000 0.06754750
v -0.00960000 0.00580000 0.06205250
v -0.00960000 0.01030000 0.06205250
v 0.00120000 0.00580000 0.06205250
v 0.00120000 0.00580000 0.06754750
v 0.01070000 0.00580000 0.06754750
v 0.01070000 0.00580000 0.06205250
v 0.00120000 0.01030000 0.06205250
v 0.00120000 0.00580000 0.06205250
v 0.01070000 0.00580000 0.06205250
v 0.01070000 0.01030000 0.06205250
v 0.01070000 0.01030000 0.06205250
v 0.01070000 0.00580000 0.06205250
v 0.01070000 0.00580000 0.06754750
v 0.01070000 0.01030000 0.06754750
v 0.01070000 0.01030000 0.06754750
v 0.01070000 0.00580000 0.06754750
v 0.00120000 0.00580000 0.06754750
v 0.00120000 0.01030000 0.06754750
v 0.00120000 0.01030000 0.06754750
v 0.00120000 0.00580000 0.06754750
v 0.00120000 0.00580000 0.06205250
v 0.00120000 0.01030000 0.06205250
v 0.01190000 0.00580000 0.06205250
v 0.01190000 0.00580000 0.06754750
v 0.02140000 0.00580000 0.06754750
v 0.02140000 0.00580000 0.06205250
v 0.01190000 0.01030000 0.06205250
v 0.01190000 0.00580000 0.06205250
v 0.02140000 0.00580000 0.06205250
v 0.02140000 0.01030000 0.06205250
v 0.02140000 0.01030000 0.06205250
v 0.02140000 0.00580000 0.06205250
v 0.02140000 0.00580000 0.06754750
v 0.02140000 0.01030000 0.06754750
v 0.02140000 0.01030000 0.06754750
v 0.02140000 0.00580000 0.06754750
v 0.01190000 0.00580000 0.06754750
v 0.01190000 0.01030000 0.06754750
v 0.01190000 0.01030000 0.06754750
v 0.01190000 0.00580000 0.06754750
v 0.01190000 0.00580000 0.06205250
v 0.01190000 0.01030000 0.06205250
v -0.01070000 0.01030000 0.04365249
v -0.01930000 0.01090000 0.04455250
v -0.02020000 0.01030000 0.04365249
v -0.01160000 0.01090000 0.04455250
v -0.01160000 0.01090000 0.04824750
v -0.01070000 0.01030000 0.04914750
v -0.01070000 0.01030000 0.04365249
v -0.01930000 0.01090000 0.04824750
v -0.02020000 0.01030000 0.04365249
v -0.02020000 0.01030000 0.04914750
v -0.02020000 0.01030000 0.04914750
v -0.01070000 0.01030000 0.04914750
v -0.00010000 0.01030000 0.04365249
v -0.00870000 0.01090000 0.04455250
v -0.00960000 0.01030000 0.04365249
v -0.00100000 0.01090000 0.04455250
v -0.00100000 0.01090000 0.04824750
v -0.00010000 0.01030000 0.04914750
v -0.00010000 0.01030000 0.04365249
v -0.00870000 0.01090000 0.04824750
v -0.00960000 0.01030000 0.04365249
v -0.00960000 0.01030000 0.04914750
v -0.00960000 0.01030000 0.04914750
v -0.00010000 0.01030000 0.04914750
v 0.01070000 0.01030000 0.04365249
v 0.00210000 0.01090000 0.04455250
v 0.00120000 0.01030000 0.04365249
v 0.00980000 0.01090000 0.04455250
v 0.00980000 0.01090000 0.04824750
v 0.01070000 0.01030000 0.04914750
v 0.01070000 0.01030000 0.04365249
v 0.00210000 0.01090000 0.04824750
v 0.00120000 0.01030000 0.04365249
v 0.00120000 0.01030000 0.04914750
v 0.00120000 0.01030000 0.04914750
v 0.01070000 0.01030000 0.04914750
v 0.02140000 0.01030000 0.04365249
v 0.01280000 0.01090000 0.04455250
v 0.01190000 0.01030000 0.04365249
v 0.02050000 0.01090000 0.04455250
v 0.02050000 0.01090000 0.04824750
v 0.02140000 0.01030000 0.04914750
v 0.02140000 0.01030000 0.04365249
v 0.01280000 0.01090000 0.04824750
v 0.01190000 0.01030000 0.04365249
v 0.01190000 0.01030000 0.04914750
v 0.01190000 0.01030000 0.04914750
v 0.02140000 0.01030000 0.04914750
v -0.01070000 0.01030000 0.05245250
v -0.01930000 0.01090000 0.05335250
v -0.02020000 0.01030000 0.05245250
v -0.01160000 0.01090000 0.05335250
v -0.01160000 0.01090000 0.05704750
v -0.01070000 0.01030000 0.05794750
v -0.01070000 0.01030000 0.05245250
v -0.01930000 0.01090000 0.05704750
v -0.02020000 0.01030000 0.05245250
v -0.02020000 0.01030000 0.05794750
v -0.02020000 0.01030000 0.05794750
v -0.01070000 0.01030000 0.05794750
v -0.00010000 0.01030000 0.05245250
v -0.00870000 0.01090000 0.05335250
v -0.00960000 0.01030000 0.05245250
v -0.00100000 0.01090000 0.05335250
v -0.00100000 0.01090000 0.05704750
v -0.00010000 0.01030000 0.05794750
v -0.00010000 0.01030000 0.05245250
v -0.00870000 0.01090000 0.05704750
v -0.00960000 0.01030000 0.05245250
v -0.00960000 0.01030000 0.05794750
v -0.00960000 0.01030000 0.05794750
v -0.00010000 0.01030000 0.05794750
v 0.01070000 0.01030000 0.05245250
v 0.00210000 0.01090000 0.05335250
v 0.00120000 0.01030000 0.05245250
v 0.00980000 0.01090000 0.05335250
v 0.00980000 0.01090000 0.05704750
v 0.01070000 0.01030000 0.05794750
v 0.01070000 0.01030000 0.05245250
v 0.00210000 0.01090000 0.05704750
v 0.00120000 0.01030000 0.05245250
v 0.00120000 0.01030000 0.05794750
v 0.00120000 0.01030000 0.05794750
v 0.01070000 0.01030000 0.05794750
v 0.02140000 0.01030000 0.05245250
v 0.01280000 0.01090000 0.05335250
v 0.01190000 0.01030000 0.05245250
v 0.02050000 0.01090000 0.05335250
v 0.02050000 0.01090000 0.05704750
v 0.02140000 0.01030000 0.05794750
v 0.02140000 0.01030000 0.05245250
v 0.01280000 0.01090000 0.05704750
v 0.01190000 0.01030000 0.05245250
v 0.01190000 0.01030000 0.05794750
v 0.01190000 0.01030000 0.05794750
v 0.02140000 0.01030000 0.05794750
v -0.01070000 0.01030000 0.06205250
v -0.01930000 0.01090000 0.06295250
v -0.02020000 0.01030000 0.06205250
v -0.01160000 0.01090000 0.06295250
v -0.01160000 0.01090000 0.06664750
v -0.01070000 0.01030000 0.06754750
v -0.01070000 0.01030000 0.06205250
v -0.01930000 0.01090000 0.06664750
v -0.02020000 0.01030000 0.06205250
v -0.02020000 0.01030000 0.06754750
v -0.02020000 0.01030000 0.06754750
v -0.01070000 0.01030000 0.06754750
v -0.00010000 0.01030000 0.06205250
v -0.00870000 0.01090000 0.06295250
v -0.00960000 0.01030000 0.06205250
v -0.00100000 0.01090000 0.06295250
v -0.00100000 0.01090000 0.06664750
v -0.00010000 0.01030000 0.06754750
v -0.00010000 0.01030000 0.06205250
v -0.00870000 0.01090000 0.06664750
v -0.00960000 0.01030000 0.06205250
v -0.00960000 0.01030000 0.06754750
v -0.00960000 0.01030000 0.06754750
v -0.00010000 0.01030000 0.06754750
v 0.01070000 0.01030000 0.06205250
v 0.00210000 0.01090000 0.06295250
v 0.00120000 0.01030000 0.06205250
v 0.00980000 0.01090000 0.06295250
v 0.00980000 0.01090000 0.06664750
v 0.01070000 0.01030000 0.06754750
v 0.01070000 0.01030000 0.06205250
v 0.00210000 0.01090000 0.06664750
v 0.00120000 0.01030000 0.06205250
v 0.00120000 0.01030000 0.06754750
v 0.00120000 0.01030000 0.06754750
v 0.01070000 0.01030000 0.06754750
v 0.02140000 0.01030000 0.06205250
v 0.01280000 0.01090000 0.06295250
v 0.01190000 0.01030000 0.06205250
v 0.02050000 0.01090000 0.06295250
v 0.02050000 0.01090000 0.06664750
v 0.02140000 0.01030000 0.06754750
v 0.02140000 0.01030000 0.06205250
v 0.01280000 0.01090000 0.06664750
v 0.01190000 0.01030000 0.06205250
v 0.01190000 0.01030000 0.06754750
v 0.01190000 0.01030000 0.06754750
v 0.02140000 0.01030000 0.06754750
vn 0.00000000 -1.00000000 0.00000000
vn 0.00000000 -1.00000000 0.00000000
vn 0.00000000 -1.00000000 0.00000000
vn 0.00000000 -1.00000000 0.00000000
vn 0.00000000 0.00000000 -1.00000000
vn 0.00000000 0.00000000 -1.00000000
vn 0.00000000 0.00000000 -1.00000000
vn 0.00000000 0.00000000 -1.00000000
vn 1.00000000 0.00000000 0.00000000
vn 1.00000000 0.00000000 0.00000000
vn 1.00000000 0.00000000 0.00000000
vn 1.00000000 0.00000000 0.00000000
vn 0.00000000 0.00000000 1.00000000
vn 0.00000000 0.00000000 1.00000000
vn 0.00000000 0.00000000 1.00000000
vn 0.00000000 0.00000000 1.00000000
vn -1.00000000 0.00000000 0.00000000
vn -1.00000000 0.00000000 0.00000000
vn -1.00000000 0.00000000 0.00000000
vn -1.00000000 0.00000000 0.00000000
vn 0.00000000 -1.00000000 0.00000000
vn 0.00000000 -1.00000000 0.00000000
vn 0.00000000 -1.00000000 0.00000000
vn 0.00000000 -1.00000000 0.00000000
vn 0.00000000 0.00000000 -1.00000000
vn 0.00000000 0.00000000 -1.00000000
vn 0.00000000 0.00000000 -1.00000000
vn 0.00000000 0.00000000 -1.00000000
vn 1.00000000 0.00000000 0.00000000
vn 1.00000000 0.00000000 0.00000000
vn 1.00000000 0.00000000 0.00000000
vn 1.00000000 0.00000000 0.00000000
vn 0.00000000 0.00000000 1.00000000
vn 0.00000000 0.00000000 1.00000000
vn 0.00000000 0.00000000 1.00000000
vn 0.00000000 0.00000000 1.00000000
vn -1.00000000 0.00000000 0.00000000
vn -1.00000000 0.00000000 0.00000000
vn -1.00000000 0.00000000 0.00000000
vn -1.00000000 0.00000000 0.00000000
vn 0.00000000 0.83205040 -0.55470000
vn -0.19973380 0.95927720 -0.19973380
vn 0.00000000 0.83205040 -0.55470000
vn 0.19973380 0.95927720 -0.19973380
vn 0.19973380 0.95927720 0.19973380
vn 0.55470000 0.83205040 0.00000000
vn 0.55470000 0.83205040 0.00000000
vn -0.19973380 0.95927720 0.19973380
vn -0.55470000 0.83205040 0.00000000
vn -0.55470000 0.83205040 0.00000000
vn 0.00000000 0.83205040 0.55470000
vn 0.00000000 0.83205040 0.55470000
vn 0.00000000 0.83205040 -0.55470000
vn -0.19973380 0.95927720 -0.19973380
vn 0.00000000 0.83205040 -0.55470000
vn 0.19973380 0.95927720 -0.19973380
vn 0.19973380 0.95927720 0.19973380
vn 0.55470000 0.83205040 0.00000000
vn 0.55470000 0.83205040 0.00000000
vn -0.19973380 0.95927720 0.19973380
vn -0.55470000 0.83205040 0.00000000
vn -0.55470000 0.83205040 0.00000000
vn 0.00000000 0.83205040 0.55470000
vn 0.00000000 0.83205040 0.55470000
vn 0.00000000 -1.00000000 0.00000000
vn 0.00000000 -1.00000000 0.00000000
vn 0.00000000 -1.00000000 0.00000000
vn 0.00000000 -1.00000000 0.00000000
vn 0.00000000 0.00000000 -1.00000000
vn 0.00000000 0.00000000 -1.00000000
vn 0.00000000 0.00000000 -1.00000000
vn 0.00000000 0.00000000 -1.00000000
vn 1.00000000 0.00000000 0.00000000
vn 1.00000000 0.00000000 0.00000000
vn 1.00000000 0.00000000 0.00000000
vn 1.00000000 0.00000000 0.00000000
vn 0.00000000 0.00000000 1.00000000
vn 0.00000000 0.00000000 1.00000000
vn 0.00000000 0.00000000 1.00000000
vn 0.00000000 0.00000000 1.00000000
vn -1.00000000 0.00000000 0.00000000
vn -1.00000000 0.00000000 0.00000000
vn -1.00000000 0.00000000 0.00000000
vn -1.00000000 0.00000000 0.00000000
vn 0.00000000 -1.00000000 0.00000000
vn 0.00000000 -1.00000000 0.00000000
vn 0.00000000 -1.00000000 0.00000000
vn 0.00000000 -1.00000000 0.00000000
vn 0.00000000 0.00000000 -1.00000000
vn 0.00000000 0.00000000 -1.00000000
vn 0.00000000 0.00000000 -1.00000000
vn 0.00000000 0.00000000 -1.00000000
vn 1.00000000 0.00000000 0.00000000
vn 1.00000000 0.00000000 0.00000000
vn 1.00000000 0.00000000 0.00000000
vn 1.00000000 0.00000000 0.00000000
vn 0.00000000 0.00000000 1.00000000
vn 0.00000000 0.00000000 1.00000000
vn 0.00000000 0.00000000 1.00000000
vn 0.00000000 0.00000000 1.00000000
vn -1.00000000 0.00000000 0.00000000
vn -1.00000000 0.00000000 0.00000000
vn -1.00000000 0.00000000 0.00000000
vn -1.00000000 0.00000000 0.00000000
vn 0.00000000 -1.00000000 0.00000000
vn 0.00000000 -1.00000000 0.00000000
vn 0.00000000 -1.00000000 0.00000000
vn 0.00000000 -1.00000000 0.00000000
vn 0.00000000 0.00000000 -1.00000000
vn 0.00000000 0.00000000 -1.00000000
vn 0.00000000 0.00000000 -1.00000000
vn 0.00000000 0.00000000 -1.00000000
vn 1.00000000 0.00000000 0.00000000
vn 1.00000000 0.00000000 0.00000000
vn 1.00000000 0.00000000 0.00000000
vn 1.00000000 0.00000000 0.00000000
vn 0.00000000 0.00000000 1.00000000
vn 0.00000000 0.00000000 1.00000000
vn 0.00000000 0.00000000 1.00000000
vn 0.00000000 0.00000000 1.00000000
vn -1.00000000 0.00000000 0.00000000
vn -1.00000000 0.00000000 0.00000000
vn -1.00000000 0.00000000 0.00000000
vn -1.00000000 0.00000000 0.00000000
vn 0.00000000 -1.00000000 0.00000000
vn 0.00000000 -1.00000000 0.00000000
vn 0.00000000 -1.00000000 0.00000000
vn 0.00000000 -1.00000000 0.00000000
vn 0.00000000 0.00000000 -1.00000000
vn 0.00000000 0.00000000 -1.00000000
vn 0.00000000 0.00000000 -1.00000000
vn 0.00000000 0.00000000 -1.00000000
vn 1.00000000 0.00000000 0.00000000
vn 1.00000000 0.00000000 0.00000000
vn 1.00000000 0.00000000 0.00000000
vn 1.00000000 0.00000000 0.00000000
vn 0.00000000 0.00000000 1.00000000
vn 0.00000000 0.00000000 1.00000000
vn 0.00000000 0.00000000 1.00000000
vn 0.00000000 0.00000000 1.00000000
vn -1.00000000 0.00000000 0.00000000
vn -1.00000000 0.00000000 0.00000000
vn -1.00000000 0.00000000 0.00000000
vn -1.00000000 0.00000000 0.00000000
vn 0.00000000 -1.00000000 0.00000000
vn 0.00000000 -1.00000000 0.00000000
vn 0.00000000 -1.00000000 0.00000000
vn 0.00000000 -1.00000000 0.00000000
vn 0.00000000 0.00000000 -1.00000000
vn 0.00000000 0.00000000 -1.00000000
vn 0.00000000 0.00000000 -1.00000000
vn 0.00000000 0.00000000 -1.00000000
vn 1.00000000 0.00000000 0.00000000
vn 1.00000000 0.00000000 0.00000000
vn 1.00000000 0.00000000 0.00000000
vn 1.00000000 0.00000000 0.00000000
vn 0.00000000 0.00000000 1.00000000
vn 0.00000000 0.00000000 1.00000000
vn 0.00000000 0.00000000 1.00000000
vn 0.00000000 0.00000000 1.00000000
vn -1.00000000 0.00000000 0.00000000
vn -1.00000000 0.00000000 0.00000000
vn -1.00000000 0.00000000 0.00000000
vn -1.00000000 0.00000000 0.00000000
vn 0.00000000 -1.00000000 0.00000000
vn 0.00000000 -1.00000000 0.00000000
vn 0.00000000 -1.00000000 0.00000000
vn 0.00000000 -1.00000000 0.00000000
vn 0.00000000 0.00000000 -1.00000000
vn 0.00000000 0.00000000 -1.00000000
vn 0.00000000 0.00000000 -1.00000000
vn 0.00000000 0.00000000 -1.00000000
vn 1.00000000 0.00000000 0.00000000
vn 1.00000000 0.00000000 0.00000000
vn 1.00000000 0.00000000 0.00000000
vn 1.00000000 0.00000000 0.00000000
vn 0.00000000 0.00000000 1.00000000
vn 0.00000000 0.00000000 1.00000000
vn 0.00000000 0.00000000 1.00000000
vn 0.00000000 0.00000000 1.00000000
vn -1.00000000 0.00000000 0.00000000
vn -1.00000000 0.00000000 0.00000000
vn -1.00000000 0.00000000 0.00000000
vn -1.00000000 0.00000000 0.00000000
vn 0.00000000 -1.00000000 0.00000000
vn 0.00000000 -1.00000000 0.00000000
vn 0.00000000 -1.00000000 0.00000000
vn 0.00000000 -1.00000000 0.00000000
vn 0.00000000 0.00000000 -1.00000000
vn 0.00000000 0.00000000 -1.00000000
vn 0.00000000 0.00000000 -1.00000000
vn 0.00000000 0.00000000 -1.00000000
vn 1.00000000 0.00000000 0.00000000
vn 1.00000000 0.00000000 0.00000000
vn 1.00000000 0.00000000 0.00000000
vn 1.00000000 0.00000000 0.00000000
vn 0.00000000 0.00000000 1.00000000
vn 0.00000000 0.00000000 1.00000000
vn 0.00000000 0.00000000 1.00000000
vn 0.00000000 0.00000000 1.00000000
vn -1.00000000 0.00000000 0.00000000
vn -1.00000000 0.00000000 0.00000000
vn -1.00000000 0.00000000 0.00000000
vn -1.00000000 0.00000000 0.00000000
vn 0.00000000 -1.00000000 0.00000000
vn 0.00000000 -1.00000000 0.00000000
vn 0.00000000 -1.00000000 0.00000000
vn 0.00000000 -1.00000000 0.00000000
vn 0.00000000 0.00000000 -1.00000000
vn 0.00000000 0.00000000 -1.00000000
vn 0.00000000 0.00000000 -1.00000000
vn 0.00000000 0.00000000 -1.00000000
vn 1.00000000 0.00000000 0.00000000
vn 1.00000000 0.00000000 0.00000000
vn 1.00000000 0.00000000 0.00000000
vn 1.00000000 0.00000000 0.00000000
vn 0.00000000 0.00000000 1.00000000
vn 0.00000000 0.00000000 1.00000000
vn 0.00000000 0.00000000 1.00000000
vn 0.00000000 0.00000000 1.00000000
vn -1.00000000 0.00000000 0.00000000
vn -1.00000000 0.00000000 0.00000000
vn -1.00000000 0.00000000 0.00000000
vn -1.00000000 0.00000000 0.00000000
vn 0.00000000 -1.00000000 0.00000000
vn 0.00000000 -1.00000000 0.00000000
vn 0.00000000 -1.00000000 0.00000000
vn 0.00000000 -1.00000000 0.00000000
vn 0.00000000 0.00000000 -1.00000000
vn 0.00000000 0.00000000 -1.00000000
vn 0.00000000 0.00000000 -1.00000000
vn 0.00000000 0.00000000 -1.00000000
vn 1.00000000 0.00000000 0.00000000
vn 1.00000000 0.00000000 0.00000000
vn 1.00000000 0.00000000 0.00000000
vn 1.00000000 0.00000000 0.00000000
vn 0.00000000 0.00000000 1.00000000
vn 0.00000000 0.00000000 1.00000000
vn 0.00000000 0.00000000 1.00000000
vn 0.00000000 0.00000000 1.00000000
vn -1.00000000 0.00000000 0.00000000
vn -1.00000000 0.00000000 0.00000000
vn -1.00000000 0.00000000 0.00000000
vn -1.00000000 0.00000000 0.00000000
vn 0.00000000 -1.00000000 0.00000000
vn 0.00000000 -1.00000000 0.00000000
vn 0.00000000 -1.00000000 0.00000000
vn 0.00000000 -1.00000000 0.00000000
vn 0.00000000 0.00000000 -1.00000000
vn 0.00000000 0.00000000 -1.00000000
vn 0.00000000 0.00000000 -1.00000000
vn 0.00000000 0.00000000 -1.00000000
vn 1.00000000 0.00000000 0.00000000
vn 1.00000000 0.00000000 0.00000000
vn 1.00000000 0.00000000 0.00000000
vn 1.00000000 0.00000000 0.00000000
vn 0.00000000 0.00000000 1.00000000
vn 0.00000000 0.00000000 1.00000000
vn 0.00000000 0.00000000 1.00000000
vn 0.00000000 0.00000000 1.00000000
vn -1.00000000 0.00000000 0.00000000
vn -1.00000000 0.00000000 0.00000000
vn -1.00000000 0.00000000 0.00000000
vn -1.00000000 0.00000000 0.00000000
vn 0.00000000 -1.00000000 0.00000000
vn 0.00000000 -1.00000000 0.00000000
vn 0.00000000 -1.00000000 0.00000000
vn 0.00000000 -1.00000000 0.00000000
vn 0.00000000 0.00000000 -1.00000000
vn 0.00000000 0.00000000 -1.00000000
vn 0.00000000 0.00000000 -1.00000000
vn 0.00000000 0.00000000 -1.00000000
vn 1.00000000 0.00000000 0.00000000
vn 1.00000000 0.00000000 0.00000000
vn 1.00000000 0.00000000 0.00000000
vn 1.00000000 0.00000000 0.00000000
vn 0.00000000 0.00000000 1.00000000
vn 0.00000000 0.00000000 1.00000000
vn 0.00000000 0.00000000 1.00000000
vn 0.00000000 0.00000000 1.00000000
vn -1.00000000 0.00000000 0.00000000
vn -1.00000000 0.00000000 0.00000000
vn -1.00000000 0.00000000 0.00000000
vn -1.00000000 0.00000000 0.00000000
vn 0.00000000 -1.00000000 0.00000000
vn 0.00000000 -1.00000000 0.00000000
vn 0.00000000 -1.00000000 0.00000000
vn 0.00000000 -1.00000000 0.00000000
vn 0.00000000 0.00000000 -1.00000000
vn 0.00000000 0.00000000 -1.00000000
vn 0.00000000 0.00000000 -1.00000000
vn 0.00000000 0.00000000 -1.00000000
vn 1.00000000 0.00000000 0.00000000
vn 1.00000000 0.00000000 0.00000000
vn 1.00000000 0.00000000 0.00000000
vn 1.00000000 0.00000000 0.00000000
vn 0.00000000 0.00000000 1.00000000
vn 0.00000000 0.00000000 1.00000000
vn 0.00000000 0.00000000 1.00000000
vn 0.00000000 0.00000000 1.00000000
vn -1.00000000 0.00000000 0.00000000
vn -1.00000000 0.00000000 0.00000000
vn -1.00000000 0.00000000 0.00000000
vn -1.00000000 0.00000000 0.00000000
vn 0.00000000 0.83205040 -0.55470000
vn -0.19973380 0.95927720 -0.19973380
vn 0.00000000 0.83205040 -0.55470000
vn 0.19973380 0.95927720 -0.19973380
vn 0.19973380 0.95927720 0.19973380
vn 0.55470000 0.83205040 0.00000000
vn 0.55470000 0.83205040 0.00000000
vn -0.19973380 0.95927720 0.19973380
vn -0.55470000 0.83205040 0.00000000
vn -0.55470000 0.83205040 0.00000000
vn 0.00000000 0.83205040 0.55470000
vn 0.00000000 0.83205040 0.55470000
vn 0.00000000 0.83205040 -0.55470000
vn -0.19973380 0.95927720 -0.19973380
vn 0.00000000 0.83205040 -0.55470000
vn 0.19973390 0.95927720 -0.19973380
vn 0.19973390 0.95927720 0.19973380
vn 0.55470010 0.83205030 0.00000000
vn 0.55470010 0.83205030 0.00000000
vn -0.19973380 0.95927720 0.19973380
vn -0.55470000 0.83205040 0.00000000
vn -0.55470000 0.83205040 0.00000000
vn 0.00000000 0.83205040 0.55470000
vn 0.00000000 0.83205040 0.55470000
vn 0.00000000 0.83205040 -0.55470000
vn -0.19973390 0.95927720 -0.19973380
vn 0.00000000 0.83205040 -0.55470000
vn 0.19973380 0.95927720 -0.19973380
vn 0.19973380 0.95927720 0.19973380
vn 0.55470000 0.83205040 0.00000000
vn 0.55470000 0.83205040 0.00000000
vn -0.19973390 0.95927720 0.19973380
vn -0.55470010 0.83205030 0.00000000
vn -0.55470010 0.83205030 0.00000000
vn 0.00000000 0.83205040 0.55470000
vn 0.00000000 0.83205040 0.55470000
vn 0.00000000 0.83205040 -0.55470000
vn -0.19973380 0.95927720 -0.19973380
vn 0.00000000 0.83205040 -0.55470000
vn 0.19973380 0.95927720 -0.19973380
vn 0.19973380 0.95927720 0.19973380
vn 0.55470000 0.83205040 0.00000000
vn 0.55470000 0.83205040 0.00000000
vn -0.19973380 0.95927720 0.19973380
vn -0.55470000 0.83205040 0.00000000
vn -0.55470000 0.83205040 0.00000000
vn 0.00000000 0.83205040 0.55470000
vn 0.00000000 0.83205040 0.55470000
vn 0.00000000 0.83205040 -0.55470000
vn -0.19973380 0.95927720 -0.19973380
vn 0.00000000 0.83205040 -0.55470000
vn 0.19973380 0.95927720 -0.19973380
vn 0.19973380 0.95927720 0.19973380
vn 0.55470000 0.83205040 0.00000000
vn 0.55470000 0.83205040 0.00000000
vn -0.19973380 0.95927720 0.19973380
vn -0.55470000 0.83205040 0.00000000
vn -0.55470000 0.83205040 0.00000000
vn 0.00000000 0.83205040 0.55470000
vn 0.00000000 0.83205040 0.55470000
vn 0.00000000 0.83205040 -0.55470000
vn -0.19973380 0.95927720 -0.19973380
vn 0.00000000 0.83205040 -0.55470000
vn 0.19973390 0.95927720 -0.19973380
vn 0.19973390 0.95927720 0.19973380
vn 0.55470010 0.83205030 0.00000000
vn 0.55470010 0.83205030 0.00000000
vn -0.19973380 0.95927720 0.19973380
vn -0.55470000 0.83205040 0.00000000
vn -0.55470000 0.83205040 0.00000000
vn 0.00000000 0.83205040 0.55470000
vn 0.00000000 0.83205040 0.55470000
vn 0.00000000 0.83205040 -0.55470000
vn -0.19973390 0.95927720 -0.19973380
vn 0.00000000 0.83205040 -0.55470000
vn 0.19973380 0.95927720 -0.19973380
vn 0.19973380 0.95927720 0.19973380
vn 0.55470000 0.83205040 0.00000000
vn 0.55470000 0.83205040 0.00000000
vn -0.19973390 0.95927720 0.19973380
vn -0.55470010 0.83205030 0.00000000
vn -0.55470010 0.83205030 0.00000000
vn 0.00000000 0.83205040 0.55470000
vn 0.00000000 0.83205040 0.55470000
vn 0.00000000 0.83205040 -0.55470000
vn -0.19973380 0.95927720 -0.19973380
vn 0.00000000 0.83205040 -0.55470000
vn 0.19973380 0.95927720 -0.19973380
vn 0.19973380 0.95927720 0.19973380
vn 0.55470000 0.83205040 0.00000000
vn 0.55470000 0.83205040 0.00000000
vn -0.19973380 0.95927720 0.19973380
vn -0.55470000 0.83205040 0.00000000
vn -0.55470000 0.83205040 0.00000000
vn 0.00000000 0.83205040 0.55470000
vn 0.00000000 0.83205040 0.55470000
vn 0.00000000 0.83204940 -0.55470150
vn -0.19973390 0.95927720 -0.19973450
vn 0.00000000 0.83204940 -0.55470150
vn 0.19973390 0.95927720 -0.19973450
vn 0.19973380 0.95927720 0.19973380
vn 0.55470000 0.83205040 0.00000000
vn 0.55470000 0.83205040 0.00000000
vn -0.19973380 0.95927720 0.19973380
vn -0.55470000 0.83205040 0.00000000
vn -0.55470000 0.83205040 0.00000000
vn 0.00000000 0.83205040 0.55470000
vn 0.00000000 0.83205040 0.55470000
vn 0.00000000 0.83204940 -0.55470160
vn -0.19973390 0.95927720 -0.19973450
vn 0.00000000 0.83204940 -0.55470160
vn 0.19973390 0.95927700 -0.19973450
vn 0.19973390 0.95927720 0.19973380
vn 0.55470010 0.83205030 0.00000000
vn 0.55470010 0.83205030 0.00000000
vn -0.19973380 0.95927720 0.19973380
vn -0.55470000 0.83205040 0.00000000
vn -0.55470000 0.83205040 0.00000000
vn 0.00000000 0.83205040 0.55470000
vn 0.00000000 0.83205040 0.55470000
vn 0.00000000 0.83204940 -0.55470150
vn -0.19973390 0.95927720 -0.19973450
vn 0.00000000 0.83204940 -0.55470150
vn 0.19973390 0.95927720 -0.19973450
vn 0.19973380 0.95927720 0.19973380
vn 0.55470000 0.83205040 0.00000000
vn 0.55470000 0.83205040 0.00000000
vn -0.19973390 0.95927720 0.19973380
vn -0.55470010 0.83205030 0.00000000
vn -0.55470010 0.83205030 0.00000000
vn 0.00000000 0.83205040 0.55470000
vn 0.00000000 0.83205040 0.55470000
vn 0.00000000 0.83204940 -0.55470160
vn -0.19973390 0.95927720 -0.19973450
vn 0.00000000 0.83204940 -0.55470160
vn 0.19973390 0.95927720 -0.19973450
vn 0.19973380 0.95927720 0.19973380
vn 0.55470000 0.83205040 0.00000000
vn 0.55470000 0.83205040 0.00000000
vn -0.19973380 0.95927720 0.19973380
vn -0.55470000 0.83205040 0.00000000
vn -0.55470000 0.83205040 0.00000000
vn 0.00000000 0.83205040 0.55470000
vn 0.00000000 0.83205040 0.55470000
vt 2.18785000 0.89959940
vt 2.18785000 0.98213140
vt 2.36791900 0.98213140
vt 2.36791900 0.89959940
vt 2.16984300 0.98213140
vt 2.16984300 0.89959940
vt 1.98977300 0.89959940
vt 1.98977300 0.98213140
vt 1.37828500 2.46770800
vt 1.37828500 2.38517600
vt 1.29575300 2.38517600
vt 1.29575300 2.46770800
vt 1.57561200 0.98213140
vt 1.57561200 0.89959940
vt 1.39554200 0.89959940
vt 1.39554200 0.98213140
vt 0.28886220 2.46770800
vt 0.28886220 2.38517600
vt 0.20633010 2.38517600
vt 0.20633010 2.46770800
vt 0.70227280 0.70152250
vt 0.70227280 0.78405450
vt 0.88234270 0.78405450
vt 0.88234270 0.70152250
vt 1.37753500 0.78405450
vt 1.37753500 0.70152250
vt 1.19746500 0.70152250
vt 1.19746500 0.78405450
vt 0.48693910 2.46770800
vt 0.48693910 2.38517600
vt 0.40440710 2.38517600
vt 0.40440710 2.46770800
vt 1.97176600 0.78405450
vt 1.97176600 0.70152250
vt 1.79169600 0.70152250
vt 1.79169600 0.78405450
vt 1.57636200 2.46770800
vt 1.57636200 2.38517600
vt 1.49383000 2.38517600
vt 1.49383000 2.46770800
vt 1.59361900 0.89959940
vt 1.75885500 0.91433720
vt 1.77368900 0.89959940
vt 1.60845300 0.91433720
vt 1.60845300 0.96739360
vt 1.59361900 0.98213140
vt 1.59361900 0.89959940
vt 1.75885500 0.96739360
vt 1.77368900 0.89959940
vt 1.77368900 0.98213140
vt 1.77368900 0.98213140
vt 1.59361900 0.98213140
vt 0.60323420 0.80056090
vt 0.76847000 0.81529880
vt 0.78330420 0.80056090
vt 0.61806840 0.81529880
vt 0.61806840 0.86835510
vt 0.60323420 0.88309290
vt 0.60323420 0.80056090
vt 0.76847000 0.86835510
vt 0.78330420 0.80056090
vt 0.78330420 0.88309290
vt 0.78330420 0.88309290
vt 0.60323420 0.88309290
vt 1.19746500 1.39554200
vt 1.19746500 1.57561200
vt 1.37753500 1.57561200
vt 1.37753500 1.39554200
vt 2.16984300 1.27924700
vt 2.16984300 1.19671500
vt 1.98977300 1.19671500
vt 1.98977300 1.27924700
vt 0.98138120 2.26963100
vt 0.98138120 2.18709900
vt 0.80131120 2.18709900
vt 0.80131120 2.26963100
vt 0.98138120 1.47732400
vt 0.98138120 1.39479200
vt 0.80131120 1.39479200
vt 0.80131120 1.47732400
vt 2.16984300 2.26963100
vt 2.16984300 2.18709900
vt 1.98977300 2.18709900
vt 1.98977300 2.26963100
vt 0.40515740 1.79169600
vt 0.40515740 1.97176600
vt 0.58522730 1.97176600
vt 0.58522730 1.79169600
vt 1.17945800 1.87347800
vt 1.17945800 1.79094600
vt 0.99938810 1.79094600
vt 0.99938810 1.87347800
vt 2.56599600 2.26963100
vt 2.56599600 2.18709900
vt 2.38592700 2.18709900
vt 2.38592700 2.26963100
vt 1.57561200 1.87347800
vt 1.57561200 1.79094600
vt 1.39554200 1.79094600
vt 1.39554200 1.87347800
vt 0.38715030 2.36867000
vt 0.38715030 2.28613800
vt 0.20708040 2.28613800
vt 0.20708040 2.36867000
vt 0.60323420 1.69265700
vt 0.60323420 1.87272700
vt 0.78330420 1.87272700
vt 0.78330420 1.69265700
vt 1.97176600 1.67540100
vt 1.97176600 1.59286900
vt 1.79169600 1.59286900
vt 1.79169600 1.67540100
vt 1.17945800 2.36867000
vt 1.17945800 2.28613800
vt 0.99938810 2.28613800
vt 0.99938810 2.36867000
vt 1.37753500 1.67540100
vt 1.37753500 1.59286900
vt 1.19746500 1.59286900
vt 1.19746500 1.67540100
vt 0.98138120 2.36867000
vt 0.98138120 2.28613800
vt 0.80131120 2.28613800
vt 0.80131120 2.36867000
vt 0.80131120 1.89073400
vt 0.80131120 2.07080400
vt 0.98138120 2.07080400
vt 0.98138120 1.89073400
vt 1.37753500 2.07155400
vt 1.37753500 1.98902200
vt 1.19746500 1.98902200
vt 1.19746500 2.07155400
vt 0.58522730 2.36867000
vt 0.58522730 2.28613800
vt 0.40515740 2.28613800
vt 0.40515740 2.36867000
vt 1.37753500 1.97251600
vt 1.37753500 1.88998400
vt 1.19746500 1.88998400
vt 1.19746500 1.97251600
vt 1.37753500 2.36867000
vt 1.37753500 2.28613800
vt 1.19746500 2.28613800
vt 1.19746500 2.36867000
vt 1.59361900 1.39554200
vt 1.59361900 1.57561200
vt 1.77368900 1.57561200
vt 1.77368900 1.39554200
vt 2.36791900 1.57636200
vt 2.36791900 1.49383000
vt 2.18785000 1.49383000
vt 2.18785000 1.57636200
vt 1.57561200 2.26963100
vt 1.57561200 2.18709900
vt 1.39554200 2.18709900
vt 1.39554200 2.26963100
vt 0.38715030 1.57636200
vt 0.38715030 1.49383000
vt 0.20708040 1.49383000
vt 0.20708040 1.57636200
vt 1.97176600 2.26963100
vt 1.97176600 2.18709900
vt 1.79169600 2.18709900
vt 1.79169600 2.26963100
vt 0.00900350 1.89073400
vt 0.00900350 2.07080400
vt 0.18907340 2.07080400
vt 0.18907340 1.89073400
vt 2.56599600 1.87347800
vt 2.56599600 1.79094600
vt 2.38592700 1.79094600
vt 2.38592700 1.87347800
vt 0.78330420 2.36867000
vt 0.78330420 2.28613800
vt 0.60323420 2.28613800
vt 0.60323420 2.36867000
vt 0.38715030 1.87347800
vt 0.38715030 1.79094600
vt 0.20708040 1.79094600
vt 0.20708040 1.87347800
vt 2.36791900 2.26963100
vt 2.36791900 2.18709900
vt 2.18785000 2.18709900
vt 2.18785000 2.26963100
vt 0.80131120 1.59361900
vt 0.80131120 1.77368900
vt 0.98138120 1.77368900
vt 0.98138120 1.59361900
vt 0.58522730 1.77443900
vt 0.58522730 1.69190700
vt 0.40515740 1.69190700
vt 0.40515740 1.77443900
vt 0.18907340 2.36867000
vt 0.18907340 2.28613800
vt 0.00900350 2.28613800
vt 0.00900350 2.36867000
vt 1.57561200 1.77443900
vt 1.57561200 1.69190700
vt 1.39554200 1.69190700
vt 1.39554200 1.77443900
vt 1.37753500 2.26963100
vt 1.37753500 2.18709900
vt 1.19746500 2.18709900
vt 1.19746500 2.26963100
vt 0.40515740 1.98977300
vt 0.40515740 2.16984300
vt 0.58522730 2.16984300
vt 0.58522730 1.98977300
vt 2.36791900 1.97251600
vt 2.36791900 1.88998400
vt 2.18785000 1.88998400
vt 2.18785000 1.97251600
vt 1.17945800 2.26963100
vt 1.17945800 2.18709900
vt 0.99938810 2.18709900
vt 0.99938810 2.26963100
vt 1.97176600 1.97251600
vt 1.97176600 1.88998400
vt 1.79169600 1.88998400
vt 1.79169600 1.97251600
vt 1.77368900 2.26963100
vt 1.77368900 2.18709900
vt 1.59361900 2.18709900
vt 1.59361900 2.26963100
vt 2.18785000 1.39479200
vt 2.18785000 1.47732400
vt 2.36791900 1.47732400
vt 2.36791900 1.39479200
vt 1.57561200 1.47732400
vt 1.57561200 1.39479200
vt 1.39554200 1.39479200
vt 1.39554200 1.47732400
vt 1.97251600 2.36867000
vt 1.97251600 2.28613800
vt 1.88998400 2.28613800
vt 1.88998400 2.36867000
vt 0.98138120 1.57636200
vt 0.98138120 1.49383000
vt 0.80131120 1.49383000
vt 0.80131120 1.57636200
vt 1.47732400 2.36867000
vt 1.47732400 2.28613800
vt 1.39479200 2.28613800
vt 1.39479200 2.36867000
vt 0.00900350 1.79094600
vt 0.00900350 1.87347800
vt 0.18907340 1.87347800
vt 0.18907340 1.79094600
vt 2.16984300 1.87347800
vt 2.16984300 1.79094600
vt 1.98977300 1.79094600
vt 1.98977300 1.87347800
vt 1.87347800 2.36867000
vt 1.87347800 2.28613800
vt 1.79094600 2.28613800
vt 1.79094600 2.36867000
vt 2.16984300 1.77443900
vt 2.16984300 1.69190700
vt 1.98977300 1.69190700
vt 1.98977300 1.77443900
vt 1.67540100 2.36867000
vt 1.67540100 2.28613800
vt 1.59286900 2.28613800
vt 1.59286900 2.36867000
vt 0.40515740 1.59286900
vt 0.40515740 1.67540100
vt 0.58522730 1.67540100
vt 0.58522730 1.59286900
vt 0.78330420 1.67540100
vt 0.78330420 1.59286900
vt 0.60323420 1.59286900
vt 0.60323420 1.67540100
vt 1.77443900 2.36867000
vt 1.77443900 2.28613800
vt 1.69190700 2.28613800
vt 1.69190700 2.36867000
vt 1.17945800 1.77443900
vt 1.17945800 1.69190700
vt 0.99938810 1.69190700
vt 0.99938810 1.77443900
vt 1.57636200 2.36867000
vt 1.57636200 2.28613800
vt 1.49383000 2.28613800
vt 1.49383000 2.36867000
vt 1.59361900 1.88998400
vt 1.59361900 1.97251600
vt 1.77368900 1.97251600
vt 1.77368900 1.88998400
vt 2.56599600 1.97251600
vt 2.56599600 1.88998400
vt 2.38592700 1.88998400
vt 2.38592700 1.97251600
vt 0.98213140 0.78405450
vt 0.98213140 0.70152250
vt 0.89959940 0.70152250
vt 0.89959940 0.78405450
vt 2.16984300 1.97251600
vt 2.16984300 1.88998400
vt 1.98977300 1.88998400
vt 1.98977300 1.97251600
vt 0.38790070 0.68501600
vt 0.38790070 0.60248390
vt 0.30536860 0.60248390
vt 0.30536860 0.68501600
vt 0.20708040 1.59361900
vt 0.37009110 1.62311200
vt 0.38715030 1.59361900
vt 0.22413970 1.62311200
vt 0.22413970 1.74419600
vt 0.20708040 1.77368900
vt 0.20708040 1.59361900
vt 0.37009110 1.74419600
vt 0.38715030 1.59361900
vt 0.38715030 1.77368900
vt 0.38715030 1.77368900
vt 0.20708040 1.77368900
vt 0.20708040 1.89073400
vt 0.37009110 1.92022700
vt 0.38715030 1.89073400
vt 0.22413970 1.92022700
vt 0.22413970 2.04131200
vt 0.20708040 2.07080400
vt 0.20708040 1.89073400
vt 0.37009110 2.04131200
vt 0.38715030 1.89073400
vt 0.38715030 2.07080400
vt 0.38715030 2.07080400
vt 0.20708040 2.07080400
vt 1.79169600 1.69265700
vt 1.95470700 1.72215000
vt 1.97176600 1.69265700
vt 1.80875500 1.72215000
vt 1.80875500 1.84323500
vt 1.79169600 1.87272700
vt 1.79169600 1.69265700
vt 1.95470700 1.84323500
vt 1.97176600 1.69265700
vt 1.97176600 1.87272700
vt 1.97176600 1.87272700
vt 1.79169600 1.87272700
vt 0.99938810 1.89073400
vt 1.16239900 1.92022700
vt 1.17945800 1.89073400
vt 1.01644700 1.92022700
vt 1.01644700 2.04131200
vt 0.99938810 2.07080400
vt 0.99938810 1.89073400
vt 1.16239900 2.04131200
vt 1.17945800 1.89073400
vt 1.17945800 2.07080400
vt 1.17945800 2.07080400
vt 0.99938810 2.07080400
vt 0.99938810 1.39554200
vt 1.16239900 1.42503500
vt 1.17945800 1.39554200
vt 1.01644700 1.42503500
vt 1.01644700 1.54611900
vt 0.99938810 1.57561200
vt 0.99938810 1.39554200
vt 1.16239900 1.54611900
vt 1.17945800 1.39554200
vt 1.17945800 1.57561200
vt 1.17945800 1.57561200
vt 0.99938810 1.57561200
vt 2.18785000 1.69265700
vt 2.35086000 1.72215000
vt 2.36791900 1.69265700
vt 2.20490900 1.72215000
vt 2.20490900 1.84323500
vt 2.18785000 1.87272700
vt 2.18785000 1.69265700
vt 2.35086000 1.84323500
vt 2.36791900 1.69265700
vt 2.36791900 1.87272700
vt 2.36791900 1.87272700
vt 2.18785000 1.87272700
vt 1.19746500 1.69265700
vt 1.36047600 1.72215000
vt 1.37753500 1.69265700
vt 1.21452400 1.72215000
vt 1.21452400 1.84323500
vt 1.19746500 1.87272700
vt 1.19746500 1.69265700
vt 1.36047600 1.84323500
vt 1.37753500 1.69265700
vt 1.37753500 1.87272700
vt 1.37753500 1.87272700
vt 1.19746500 1.87272700
vt 0.60323420 1.89073400
vt 0.76624490 1.92022700
vt 0.78330420 1.89073400
vt 0.62029360 1.92022700
vt 0.62029360 2.04131200
vt 0.60323420 2.07080400
vt 0.60323420 1.89073400
vt 0.76624490 2.04131200
vt 0.78330420 1.89073400
vt 0.78330420 2.07080400
vt 0.78330420 2.07080400
vt 0.60323420 2.07080400
vt 0.00900350 1.49383000
vt 0.17201420 1.50734800
vt 0.18907340 1.49383000
vt 0.02606276 1.50734800
vt 0.02606276 1.56284500
vt 0.00900350 1.57636200
vt 0.00900350 1.49383000
vt 0.17201420 1.56284500
vt 0.18907340 1.49383000
vt 0.18907340 1.57636200
vt 0.18907340 1.57636200
vt 0.00900350 1.57636200
vt 0.80131120 1.79094600
vt 0.96432190 1.80446300
vt 0.98138120 1.79094600
vt 0.81837040 1.80446300
vt 0.81837040 1.85996000
vt 0.80131120 1.87347800
vt 0.80131120 1.79094600
vt 0.96432190 1.85996000
vt 0.98138120 1.79094600
vt 0.98138120 1.87347800
vt 0.98138120 1.87347800
vt 0.80131120 1.87347800
vt 2.18785000 1.59286900
vt 2.35086000 1.60638600
vt 2.36791900 1.59286900
vt 2.20490900 1.60638600
vt 2.20490900 1.66188300
vt 2.18785000 1.67540100
vt 2.18785000 1.59286900
vt 2.35086000 1.66188300
vt 2.36791900 1.59286900
vt 2.36791900 1.67540100
vt 2.36791900 1.67540100
vt 2.18785000 1.67540100
vt 1.39554200 1.88998400
vt 1.55855300 1.90350100
vt 1.57561200 1.88998400
vt 1.41260100 1.90350100
vt 1.41260100 1.95899800
vt 1.39554200 1.97251600
vt 1.39554200 1.88998400
vt 1.55855300 1.95899800
vt 1.57561200 1.88998400
vt 1.57561200 1.97251600
vt 1.57561200 1.97251600
vt 1.39554200 1.97251600
f 3/3/3 2/2/2 1/1/1
f 4/4/4 3/3/3 1/1/1
f 7/7/7 6/6/6 5/5/5
f 8/8/8 7/7/7 5/5/5
f 11/11/11 10/10/10 9/9/9
f 12/12/12 11/11/11 9/9/9
f 15/15/15 14/14/14 13/13/13
f 16/16/16 15/15/15 13/13/13
f 19/19/19 18/18/18 17/17/17
f 20/20/20 19/19/19 17/17/17
f 23/23/23 22/22/22 21/21/21
f 24/24/24 23/23/23 21/21/21
f 27/27/27 26/26/26 25/25/25
f 28/28/28 27/27/27 25/25/25
f 31/31/31 30/30/30 29/29/29
f 32/32/32 31/31/31 29/29/29
f 35/35/35 34/34/34 33/33/33
f 36/36/36 35/35/35 33/33/33
f 39/39/39 38/38/38 37/37/37
f 40/40/40 39/39/39 37/37/37
f 43/43/43 42/42/42 41/41/41
f 42/42/42 44/44/44 41/41/41
f 45/45/45 44/44/44 42/42/42
f 44/44/44 45/45/45 46/46/46
f 47/47/47 44/44/44 46/46/46
f 48/48/48 45/45/45 42/42/42
f 48/48/48 42/42/42 49/49/49
f 50/50/50 48/48/48 49/49/49
f 45/45/45 48/48/48 51/51/51
f 52/52/52 45/45/45 51/51/51
f 55/55/55 54/54/54 53/53/53
f 54/54/54 56/56/56 53/53/53
f 57/57/57 56/56/56 54/54/54
f 56/56/56 57/57/57 58/58/58
f 59/59/59 56/56/56 58/58/58
f 60/60/60 57/57/57 54/54/54
f 60/60/60 54/54/54 61/61/61
f 62/62/62 60/60/60 61/61/61
f 57/57/57 60/60/60 63/63/63
f 64/64/64 57/57/57 63/63/63
f 67/67/67 66/66/66 65/65/65
f 68/68/68 67/67/67 65/65/65
f 71/71/71 70/70/70 69/69/69
f 72/72/72 71/71/71 69/69/69
f 75/75/75 74/74/74 73/73/73
f 76/76/76 75/75/75 73/73/73
f 79/79/79 78/78/78 77/77/77
f 80/80/80 79/79/79 77/77/77
f 83/83/83 82/82/82 81/81/81
f 84/84/84 83/83/83 81/81/81
f 87/87/87 86/86/86 85/85/85
f 88/88/88 87/87/87 85/85/85
f 91/91/91 90/90/90 89/89/89
f 92/92/92 91/91/91 89/89/89
f 95/95/95 94/94/94 93/93/93
f 96/96/96 95/95/95 93/93/93
f 99/99/99 98/98/98 97/97/97
f 100/100/100 99/99/99 97/97/97
f 103/103/103 102/102/102 101/101/101
f 104/104/104 103/103/103 101/101/101
f 107/107/107 106/106/106 105/105/105
f 108/108/108 107/107/107 105/105/105
f 111/111/111 110/110/110 109/109/109
f 112/112/112 111/111/111 109/109/109
f 115/115/115 114/114/114 113/113/113
f 116/116/116 115/115/115 113/113/113
f 119/119/119 118/118/118 117/117/117
f 120/120/120 119/119/119 117/117/117
f 123/123/123 122/122/122 121/121/121
f 124/124/124 123/123/123 121/121/121
f 127/127/127 126/126/126 125/125/125
f 128/128/128 127/127/127 125/125/125
f 131/131/131 130/130/130 129/129/129
f 132/132/132 131/131/131 129/129/129
f 135/135/135 134/134/134 133/133/133
f 136/136/136 135/135/135 133/133/133
f 139/139/139 138/138/138 137/137/137
f 140/140/140 139/139/139 137/137/137
f 143/143/143 142/142/142 141/141/141
f 144/144/144 143/143/143 141/141/141
f 147/147/147 146/146/146 145/145/145
f 148/148/148 147/147/147 145/145/145
f 151/151/151 150/150/150 149/149/149
f 152/152/152 151/151/151 149/149/149
f 155/155/155 154/154/154 153/153/153
f 156/156/156 155/155/155 153/153/153
f 159/159/159 158/158/158 157/157/157
f 160/160/160 159/159/159 157/157/157
f 163/163/163 162/162/162 161/161/161
f 164/164/164 163/163/163 161/161/161
f 167/167/167 166/166/166 165/165/165
f 168/168/168 167/167/167 165/165/165
f 171/171/171 170/170/170 169/169/169
f 172/172/172 171/171/171 169/169/169
f 175/175/175 174/174/174 173/173/173
f 176/176/176 175/175/175 173/173/173
f 179/179/179 178/178/178 177/177/177
f 180/180/180 179/179/179 177/177/177
f 183/183/183 182/182/182 181/181/181
f 184/184/184 183/183/183 181/181/181
f 187/187/187 186/186/186 185/185/185
f 188/188/188 187/187/187 185/185/185
f 191/191/191 190/190/190 189/189/189
f 192/192/192 191/191/191 189/189/189
f 195/195/195 194/194/194 193/193/193
f 196/196/196 195/195/195 193/193/193
f 199/199/199 198/198/198 197/197/197
f 200/200/200 199/199/199 197/197/197
f 203/203/203 202/202/202 201/201/201
f 204/204/204 203/203/203 201/201/201
f 207/207/207 206/206/206 205/205/205
f 208/208/208 207/207/207 205/205/205
f 211/211/211 210/210/210 209/209/209
f 212/212/212 211/211/211 209/209/209
f 215/215/215 214/214/214 213/213/213
f 216/216/216 215/215/215 213/213/213
f 219/219/219 218/218/218 217/217/217
f 220/220/220 219/219/219 217/217/217
f 223/223/223 222/222/222 221/221/221
f 224/224/224 223/223/223 221/221/221
f 227/227/227 226/226/226 225/225/225
f 228/228/228 227/227/227 225/225/225
f 231/231/231 230/230/230 229/229/229
f 232/232/232 231/231/231 229/229/229
f 235/235/235 234/234/234 233/233/233
f 236/236/236 235/235/235 233/233/233
f 239/239/239 238/238/238 237/237/237
f 240/240/240 239/239/239 237/237/237
f 243/243/243 242/242/242 241/241/241
f 244/244/244 243/243/243 241/241/241
f 247/247/247 246/246/246 245/245/245
f 248/248/248 247/247/247 245/245/245
f 251/251/251 250/250/250 249/249/249
f 252/252/252 251/251/251 249/249/249
f 255/255/255 254/254/254 253/253/253
f 256/256/256 255/255/255 253/253/253
f 259/259/259 258/258/258 257/257/257
f 260/260/260 259/259/259 257/257/257
f 263/263/263 262/262/262 261/261/261
f 264/264/264 263/263/263 261/261/261
f 267/267/267 266/266/266 265/265/265
f 268/268/268 267/267/267 265/265/265
f 271/271/271 270/270/270 269/269/269
f 272/272/272 271/271/271 269/269/269
f 275/275/275 274/274/274 273/273/273
f 276/276/276 275/275/275 273/273/273
f 279/279/279 278/278/278 277/277/277
f 280/280/280 279/279/279 277/277/277
f 283/283/283 282/282/282 281/281/281
f 284/284/284 283/283/283 281/281/281
f 287/287/287 286/286/286 285/285/285
f 288/288/288 287/287/287 285/285/285
f 291/291/291 290/290/290 289/289/289
f 292/292/292 291/291/291 289/289/289
f 295/295/295 294/294/294 293/293/293
f 296/296/296 295/295/295 293/293/293
f 299/299/299 298/298/298 297/297/297
f 300/300/300 299/299/299 297/297/297
f 303/303/303 302/302/302 301/301/301
f 304/304/304 303/303/303 301/301/301
f 307/307/307 306/306/306 305/305/305
f 306/306/306 308/308/308 305/305/305
f 309/309/309 308/308/308 306/306/306
f 308/308/308 309/309/309 310/310/310
f 311/311/311 308/308/308 310/310/310
f 312/312/312 309/309/309 306/306/306
f 312/312/312 306/306/306 313/313/313
f 314/314/314 312/312/312 313/313/313
f 309/309/309 312/312/312 315/315/315
f 316/316/316 309/309/309 315/315/315
f 319/319/319 318/318/318 317/317/317
f 318/318/318 320/320/320 317/317/317
f 321/321/321 320/320/320 318/318/318
f 320/320/320 321/321/321 322/322/322
f 323/323/323 320/320/320 322/322/322
f 324/324/324 321/321/321 318/318/318
f 324/324/324 318/318/318 325/325/325
f 326/326/326 324/324/324 325/325/325
f 321/321/321 324/324/324 327/327/327
f 328/328/328 321/321/321 327/327/327
f 331/331/331 330/330/330 329/329/329
f 330/330/330 332/332/332 329/329/329
f 333/333/333 332/332/332 330/330/330
f 332/332/332 333/333/333 334/334/334
f 335/335/335 332/332/332 334/334/334
f 336/336/336 333/333/333 330/330/330
f 336/336/336 330/330/330 337/337/337
f 338/338/338 336/336/336 337/337/337
f 333/333/333 336/336/336 339/339/339
f 340/340/340 333/333/333 339/339/339
f 343/343/343 342/342/342 341/341/341
f 342/342/342 344/344/344 341/341/341
f 345/345/345 344/344/344 342/342/342
f 344/344/344 345/345/345 346/346/346
f 347/347/347 344/344/344 346/346/346
f 348/348/348 345/345/345 342/342/342
f 348/348/348 342/342/342 349/349/349
f 350/350/350 348/348/348 349/349/349
f 345/345/345 348/348/348 351/351/351
f 352/352/352 345/345/345 351/351/351
f 355/355/355 354/354/354 353/353/353
f 354/354/354 356/356/356 353/353/353
f 357/357/357 356/356/356 354/354/354
f 356/356/356 357/357/357 358/358/358
f 359/359/359 356/356/356 358/358/358
f 360/360/360 357/357/357 354/354/354
f 360/360/360 354/354/354 361/361/361
f 362/362/362 360/360/360 361/361/361
f 357/357/357 360/360/360 363/363/363
f 364/364/364 357/357/357 363/363/363
f 367/367/367 366/366/366 365/365/365
f 366/366/366 368/368/368 365/365/365
f 369/369/369 368/368/368 366/366/366
f 368/368/368 369/369/369 370/370/370
f 371/371/371 368/368/368 370/370/370
f 372/372/372 369/369/369 366/366/366
f 372/372/372 366/366/366 373/373/373
f 374/374/374 372/372/372 373/373/373
f 369/369/369 372/372/372 375/375/375
f 376/376/376 369/369/369 375/375/375
f 379/379/379 378/378/378 377/377/377
f 378/378/378 380/380/380 377/377/377
f 381/381/381 380/380/380 378/378/378
f 380/380/380 381/381/381 382/382/382
f 383/383/383 380/380/380 382/382/382
f 384/384/384 381/381/381 378/378/378
f 384/384/384 378/378/378 385/385/385
f 386/386/386 384/384/384 385/385/385
f 381/381/381 384/384/384 387/387/387
f 388/388/388 381/381/381 387/387/387
f 391/391/391 390/390/390 389/389/389
f 390/390/390 392/392/392 389/389/389
f 393/393/393 392/392/392 390/390/390
f 392/392/392 393/393/393 394/394/394
f 395/395/395 392/392/392 394/394/394
f 396/396/396 393/393/393 390/390/390
f 396/396/396 390/390/390 397/397/397
f 398/398/398 396/396/396 397/397/397
f 393/393/393 396/396/396 399/399/399
f 400/400/400 393/393/393 399/399/399
f 403/403/403 402/402/402 401/401/401
f 402/402/402 404/404/404 401/401/401
f 405/405/405 404/404/404 402/402/402
f 404/404/404 405/405/405 406/406/406
f 407/407/407 404/404/404 406/406/406
f 408/408/408 405/405/405 402/402/402
f 408/408/408 402/402/402 409/409/409
f 410/410/410 408/408/408 409/409/409
f 405/405/405 408/408/408 411/411/411
f 412/412/412 405/405/405 411/411/411
f 415/415/415 414/414/414 413/413/413
f 414/414/414 416/416/416 413/413/413
f 417/417/417 416/416/416 414/414/414
f 416/416/416 417/417/417 418/418/418
f 419/419/419 416/416/416 418/418/418
f 420/420/420 417/417/417 414/414/414
f 420/420/420 414/414/414 421/421/421
f 422/422/422 420/420/420 421/421/421
f 417/417/417 420/420/420 423/423/423
f 424/424/424 417/417/417 423/423/423
f 427/427/427 426/426/426 425/425/425
f 426/426/426 428/428/428 425/425/425
f 429/429/429 428/428/428 426/426/426
f 428/428/428 429/429/429 430/430/430
f 431/431/431 428/428/428 430/430/430
f 432/432/432 429/429/429 426/426/426
f 432/432/432 426/426/426 433/433/433
f 434/434/434 432/432/432 433/433/433
f 429/429/429 432/432/432 435/435/435
f 436/436/436 429/429/429 435/435/435
f 439/439/439 438/438/438 437/437/437
f 438/438/438 440/440/440 437/437/437
f 441/441/441 440/440/440 438/438/438
f 440/440/440 441/441/441 442/442/442
f 443/443/443 440/440/440 442/442/442
f 444/444/444 441/441/441 438/438/438
f 444/444/444 438/438/438 445/445/445
f 446/446/446 444/444/444 445/445/445
f 441/441/441 444/444/444 447/447/447
f 448/448/448 441/441/441 447/447/447

