# Blender 4.0.0
# www.blender.org
o decimated_mesh
v 0.364930 1.004629 0.026507
v 0.364629 1.002816 -0.152139
v 0.362023 1.048994 -0.152139
v 0.338056 0.926986 0.026507
v 0.359648 1.050901 0.026478
v 0.300206 1.041047 -0.152135
v 0.336993 0.926111 -0.152133
v 0.300001 1.040539 0.026507
v 0.203724 0.920843 0.026507
v 0.201610 0.920843 -0.152139
vn -0.7731 0.6342 0.0092
vn -0.1712 0.9852 0.0026
vn 0.9408 -0.3390 -0.0039
vn 0.0389 -0.9992 -0.0005
vn 0.9984 0.0563 -0.0023
vn 0.0004 0.0007 1.0000
vn -0.0000 -0.0000 1.0000
vn -0.7792 0.6268 0.0009
vn -0.0001 -0.0000 -1.0000
vn -0.0000 -0.0000 -1.0000
vn -0.1275 0.9918 -0.0123
vn 0.9450 -0.3271 0.0017
vn 0.0457 -0.9989 0.0046
vn 0.9935 0.1134 0.0120
vn -0.7732 0.6342 0.0009
vn -0.7792 0.6267 0.0092
vn -0.0001 0.0001 -1.0000
vn -0.0000 -0.0001 -1.0000
s 0
f 9//1 6//1 10//1
f 5//2 6//2 8//2
f 2//3 4//3 7//3
f 7//4 9//4 10//4
f 3//5 1//5 2//5
f 5//6 8//6 1//6
f 8//7 9//7 4//7
f 4//7 1//7 8//7
f 9//8 8//8 6//8
f 2//9 7//9 6//9
f 7//10 10//10 6//10
f 6//9 3//9 2//9
f 5//11 3//11 6//11
f 2//12 1//12 4//12
f 7//13 4//13 9//13
f 3//14 5//14 1//14
f 6//15 10//15 8//15
f 10//16 9//16 8//16
f 7//9 3//9 2//9
f 10//17 6//17 3//17
f 7//18 10//18 3//18
