# Blender 4.0.0
# www.blender.org
o decimated_mesh
v -0.028916 0.413398 0.106583
v 0.058294 0.413484 0.099969
v -0.027785 0.684928 0.104804
v -0.077624 0.413399 0.079083
v 0.057253 0.684929 0.094568
v -0.076330 0.684928 0.076682
v -0.106574 0.413397 0.029128
v 0.104556 0.684928 0.028516
v 0.106595 0.413397 0.029332
v -0.097036 0.413391 -0.056458
v -0.111230 0.684919 0.004040
v 0.106372 0.413397 -0.030744
v 0.104953 0.684928 -0.027524
v 0.054603 0.413399 -0.098016
v 0.075511 0.684928 -0.077541
v -0.075521 0.684928 -0.077541
v -0.027879 0.413397 -0.107143
v 0.000029 0.684941 -0.109659
vn 0.1100 -0.0205 -0.9937
vn 0.3912 0.0392 -0.9195
vn -0.0006 1.0000 -0.0002
vn -0.0000 1.0000 0.0001
vn 0.1195 0.0202 0.9926
vn -0.3910 0.0317 -0.9198
vn -0.5013 0.0078 0.8653
vn 1.0000 0.0053 -0.0037
vn 0.8129 0.0147 0.5822
vn 0.7924 -0.0150 -0.6098
vn -0.9153 0.0414 -0.4006
vn -0.8648 0.0315 0.5012
vn -0.9013 0.0081 0.4330
vn -0.0000 1.0000 -0.0004
vn -0.0001 -1.0000 0.0001
vn -0.0000 1.0000 -0.0000
vn 0.0011 1.0000 -0.0004
vn -0.0009 1.0000 0.0016
vn -0.0001 1.0000 -0.0000
vn 0.0002 1.0000 -0.0000
vn -0.0002 1.0000 -0.0000
vn 0.0756 0.0062 0.9971
vn -0.5911 -0.0158 -0.8065
vn -0.9935 -0.0273 -0.1107
vn -0.4916 0.0100 0.8708
vn 0.9999 0.0075 0.0071
vn 0.8254 0.0079 0.5644
vn 0.8617 0.0105 -0.5073
vn -0.9011 0.0245 0.4329
vn -0.8652 0.0086 0.5014
vn -0.5012 0.0100 0.8652
vn 0.0002 1.0000 -0.0002
vn 0.0001 1.0000 -0.0000
vn 0.0001 1.0000 -0.0001
vn -0.4916 0.0078 0.8708
vn -0.0011 1.0000 -0.0020
s 0
f 17//1 18//1 14//1
f 15//2 14//2 18//2
f 4//3 2//3 17//3
f 6//4 5//4 18//4
f 3//5 2//5 5//5
f 17//6 16//6 18//6
f 6//7 1//7 3//7
f 13//8 9//8 12//8
f 2//9 8//9 5//9
f 15//10 12//10 14//10
f 16//11 10//11 11//11
f 11//12 7//12 4//12
f 4//13 6//13 11//13
f 17//14 2//14 14//14
f 10//15 4//15 7//15
f 14//16 9//16 12//16
f 14//17 2//17 9//17
f 4//18 1//18 2//18
f 4//19 17//19 10//19
f 3//16 5//16 6//16
f 5//16 8//16 13//16
f 13//16 15//16 5//16
f 15//20 18//20 5//20
f 18//21 16//21 11//21
f 6//21 18//21 11//21
f 3//22 1//22 2//22
f 17//23 10//23 16//23
f 11//24 10//24 7//24
f 6//25 4//25 1//25
f 13//26 8//26 9//26
f 2//27 9//27 8//27
f 15//28 13//28 12//28
f 7//29 6//29 11//29
f 7//30 4//30 6//30
f 4//31 3//31 6//31
f 3//4 18//4 6//4
f 13//32 15//32 18//32
f 3//4 5//4 18//4
f 5//33 8//33 18//33
f 8//33 13//33 18//33
f 17//4 10//4 14//4
f 14//4 10//4 12//4
f 12//16 10//16 9//16
f 9//16 10//16 1//16
f 1//34 10//34 4//34
f 1//35 3//35 4//35
f 2//36 9//36 1//36
