# Blender 4.0.0
# www.blender.org
o decimated_mesh
v -0.162627 1.004381 0.387029
v -0.162626 1.050175 0.384522
v -0.244258 1.002751 0.386778
v -0.244165 1.050878 0.385125
v -0.162568 1.041194 0.329996
v -0.162627 0.930518 0.364043
v -0.244257 1.041898 0.332658
v -0.244410 0.929560 0.363314
v -0.244258 0.973037 0.216794
v -0.162627 0.915044 0.216794
v -0.244258 0.902026 0.216794
v -0.244253 0.902499 0.273955
v -0.164136 0.847953 0.216514
vn -0.0038 0.0343 0.9994
vn 0.0059 -0.8726 0.4883
vn -0.0092 0.8596 -0.5109
vn 0.4286 0.6033 -0.6725
vn -0.4061 -0.8748 0.2642
vn -0.5594 -0.8289 0.0069
vn -0.0049 -0.3053 0.9523
vn 0.0030 0.9857 -0.1687
vn 0.0079 0.0547 0.9985
vn -1.0000 -0.0000 -0.0000
vn -1.0000 -0.0000 0.0001
vn -1.0000 0.0008 -0.0020
vn -1.0000 0.0017 0.0012
vn -1.0000 0.0020 0.0014
vn 1.0000 -0.0003 0.0009
vn 0.9997 -0.0225 0.0024
vn 1.0000 -0.0005 0.0001
vn 1.0000 -0.0000 0.0011
vn 0.0007 -0.0042 1.0000
vn -0.0000 -0.0000 1.0000
vn 0.0030 -0.2971 0.9548
vn 0.0073 0.9867 -0.1625
vn -1.0000 0.0012 -0.0007
vn -1.0000 -0.0000 -0.0010
vn -1.0000 -0.0063 0.0001
vn 0.0035 -0.0000 1.0000
vn -0.0029 -0.0041 1.0000
s 0
f 1//1 4//1 3//1
f 6//2 8//2 13//2
f 5//3 9//3 7//3
f 9//4 5//4 10//4
f 13//5 8//5 12//5
f 13//6 12//6 11//6
f 6//7 3//7 8//7
f 4//8 5//8 7//8
f 1//9 2//9 4//9
f 7//10 9//10 12//10
f 9//11 11//11 12//11
f 12//12 8//12 7//12
f 7//13 8//13 3//13
f 4//14 7//14 3//14
f 1//15 6//15 5//15
f 6//16 13//16 10//16
f 10//17 5//17 6//17
f 5//18 2//18 1//18
f 13//19 10//19 11//19
f 11//20 10//20 9//20
f 6//21 1//21 3//21
f 4//22 2//22 5//22
f 9//23 8//23 7//23
f 9//24 11//24 8//24
f 11//25 12//25 8//25
f 11//26 13//26 9//26
f 9//27 13//27 10//27
