# Blender 4.0.0
# www.blender.org
o Sink_1_sinkmesh_1_collision_22
v 0.014847 0.920843 -0.226636
v 0.014847 0.866431 -0.173864
v 0.014847 0.920843 -0.158797
v 0.152228 0.920843 -0.226636
v 0.014847 0.866431 -0.129377
v 0.152228 0.866431 -0.173864
v 0.152228 0.866431 -0.129339
v 0.152228 0.920843 -0.158797
vn -1.0000 -0.0000 -0.0000
vn -0.0000 1.0000 -0.0000
vn -0.0000 -0.6962 -0.7178
vn -0.0000 -1.0000 -0.0000
vn -0.0002 0.4756 0.8797
vn -0.0000 0.4761 0.8794
vn 1.0000 -0.0000 -0.0000
s 0
f 1//1 2//1 5//1
f 1//1 5//1 3//1
f 1//2 3//2 8//2
f 1//2 8//2 4//2
f 1//3 4//3 6//3
f 1//3 6//3 2//3
f 2//4 6//4 7//4
f 2//4 7//4 5//4
f 3//5 5//5 7//5
f 3//6 7//6 8//6
f 4//7 8//7 7//7
f 4//7 7//7 6//7
