# Blender 4.0.0
# www.blender.org
o decimated_mesh
v 0.245836 0.903191 0.232621
v 0.245836 0.978289 0.232621
v 0.245838 1.042019 0.332367
v 0.338467 0.927928 0.232621
v 0.337726 0.928005 0.311029
v 0.245837 0.903467 0.274088
v 0.286974 0.929753 0.362924
v 0.245722 1.051381 0.375329
v 0.301399 1.041120 0.232617
v 0.364586 1.002191 0.232621
v 0.364962 1.005716 0.326629
v 0.358994 1.004585 0.340329
v 0.245835 0.929455 0.363416
v 0.305411 1.050990 0.377819
v 0.350388 1.051658 0.232621
v 0.313482 1.002776 0.385473
v 0.245835 1.047370 0.386403
v 0.358477 1.050072 0.328696
v 0.312661 1.046422 0.386048
v 0.360159 1.048795 0.232621
v 0.358072 1.046310 0.340859
v 0.245835 1.003096 0.386867
v 0.364963 1.040685 0.232621
v 0.364917 1.040685 0.327235
vn -0.0000 -0.0000 1.0000
vn 0.6446 -0.4293 0.6326
vn 1.0000 -0.0000 -0.0000
vn 0.0206 -0.0128 0.9997
vn 0.8621 -0.3714 0.3449
vn 1.0000 0.0013 0.0005
vn -0.2079 0.9665 -0.1506
vn -0.6899 0.6101 -0.3898
vn 0.0150 0.8798 0.4751
vn 0.0182 -0.3010 0.9534
vn 0.8251 0.5649 0.0069
vn 0.8958 0.0142 0.4442
vn 0.9431 -0.3323 0.0087
vn -0.2567 0.9665 -0.0034
vn 0.8229 0.5345 0.1927
vn 0.1753 -0.9632 0.2038
vn -0.0001 -0.0000 1.0000
vn 0.6406 -0.4231 0.6408
vn 0.0070 0.9999 -0.0111
vn 0.0178 0.9997 0.0150
vn -0.9999 0.0001 0.0103
vn 1.0000 0.0028 0.0021
vn 0.7054 0.0066 0.7088
vn 0.7041 0.0039 0.7100
vn 0.2812 0.9596 -0.0078
vn 0.0055 0.0105 0.9999
vn 0.9999 -0.0098 -0.0036
vn -0.3455 0.9167 -0.2007
vn -0.0080 0.9402 0.3406
vn 0.0136 -0.3034 0.9528
vn 0.8604 0.5096 0.0004
vn 0.9170 -0.0057 0.3990
vn 0.0103 -0.9601 0.2793
vn 0.9433 -0.3318 0.0093
vn -0.2580 0.9661 -0.0064
vn 0.2700 0.9229 0.2744
vn 0.2923 0.9108 0.2914
vn -0.2580 0.9661 -0.0034
vn -0.2556 0.9668 -0.0064
vn 1.0000 0.0008 -0.0000
vn 1.0000 -0.0000 0.0008
vn 0.0001 -0.0000 1.0000
vn 0.9433 -0.3318 0.0087
vn 0.9431 -0.3324 0.0093
vn 0.6467 -0.4226 0.6350
vn 0.6385 -0.4291 0.6389
vn 1.0000 0.0010 -0.0003
vn 1.0000 -0.0064 0.0041
vn 1.0000 0.0013 -0.0042
vn 0.0063 1.0000 0.0065
vn -0.0000 -0.0001 1.0000
vn 0.0302 0.9994 0.0140
s 0
f 23//1 15//1 10//1
f 7//2 12//2 16//2
f 13//3 3//3 22//3
f 16//4 19//4 22//4
f 5//5 11//5 12//5
f 11//6 23//6 24//6
f 8//7 15//7 9//7
f 3//8 9//8 2//8
f 19//9 14//9 17//9
f 22//10 7//10 16//10
f 24//11 20//11 18//11
f 12//12 24//12 21//12
f 10//13 11//13 5//13
f 4//14 6//14 5//14
f 18//15 21//15 24//15
f 7//16 6//16 5//16
f 4//1 2//1 1//1
f 2//1 4//1 9//1
f 4//1 10//1 9//1
f 9//17 10//17 15//17
f 15//1 23//1 20//1
f 7//18 5//18 12//18
f 14//19 18//19 8//19
f 18//20 15//20 8//20
f 22//21 17//21 8//21
f 3//22 8//22 22//22
f 3//3 13//3 2//3
f 13//3 6//3 2//3
f 2//3 6//3 1//3
f 21//23 19//23 12//23
f 19//24 16//24 12//24
f 20//25 15//25 18//25
f 19//26 17//26 22//26
f 11//27 10//27 23//27
f 3//28 8//28 9//28
f 14//29 8//29 17//29
f 22//30 13//30 7//30
f 24//31 23//31 20//31
f 12//32 11//32 24//32
f 13//33 6//33 7//33
f 4//34 10//34 5//34
f 6//35 4//35 1//35
f 18//36 14//36 19//36
f 19//37 21//37 18//37
f 4//38 1//38 5//38
f 5//39 1//39 6//39
f 6//40 1//40 8//40
f 8//41 1//41 2//41
f 2//42 1//42 9//42
f 9//1 1//1 4//1
f 10//43 11//43 4//43
f 11//44 5//44 4//44
f 12//45 16//45 5//45
f 16//46 7//46 5//46
f 13//47 6//47 8//47
f 3//48 8//48 2//48
f 13//49 8//49 22//49
f 14//50 15//50 8//50
f 15//51 9//51 20//51
f 20//17 9//17 23//17
f 23//1 9//1 10//1
f 14//52 18//52 15//52
