# Blender 4.0.0
# www.blender.org
o decimated_mesh
v 0.192289 0.927342 -0.347586
v 0.271864 0.928250 -0.348685
v 0.192299 0.920856 -0.192391
v 0.271348 0.920513 -0.192398
v 0.192291 0.985609 -0.192391
v 0.271836 1.007723 -0.192391
v 0.271836 1.041754 -0.225016
v 0.192263 1.040554 -0.222634
v 0.271838 1.048666 -0.348283
v 0.192314 1.049389 -0.348535
vn -0.1329 0.4779 0.8683
vn 0.0032 0.0033 -1.0000
vn -0.0129 0.9975 0.0700
vn 1.0000 0.0001 0.0001
vn 0.0112 0.6920 0.7218
vn -1.0000 0.0002 -0.0004
vn -0.0043 -0.9991 -0.0418
vn 0.0107 -0.9987 -0.0494
vn -0.0137 -0.0078 -0.9999
vn 0.0089 0.9984 0.0560
vn -0.0000 0.0001 -1.0000
vn -0.0001 -0.0000 -1.0000
vn 1.0000 -0.0056 0.0030
vn 1.0000 0.0002 -0.0000
vn 1.0000 0.0001 -0.0001
vn 1.0000 0.0004 -0.0002
vn -0.0001 0.0001 -1.0000
vn -0.0000 -0.0000 -1.0000
vn 1.0000 0.0001 -0.0007
vn 1.0000 0.0003 -0.0001
s 0
f 5//1 6//1 8//1
f 2//2 10//2 9//2
f 7//3 10//3 8//3
f 7//4 6//4 2//4
f 6//5 7//5 8//5
f 8//6 10//6 1//6
f 3//7 1//7 4//7
f 1//8 2//8 4//8
f 2//9 1//9 10//9
f 7//10 9//10 10//10
f 6//11 4//11 5//11
f 5//12 4//12 3//12
f 6//13 4//13 2//13
f 9//14 7//14 2//14
f 3//15 1//15 5//15
f 1//16 8//16 5//16
f 6//17 4//17 3//17
f 5//18 6//18 3//18
f 5//19 3//19 8//19
f 8//20 3//20 1//20
