# Blender 4.0.0
# www.blender.org
o decimated_mesh
v 0.161623 0.852528 0.025975
v 0.261394 0.993455 0.026507
v 0.162702 0.925927 0.232605
v 0.261394 0.914168 0.026507
v 0.260791 0.952321 0.232878
v 0.165482 0.854574 0.231035
vn -0.7998 0.5670 -0.1972
vn -0.2557 0.9483 0.1883
vn 0.0053 -0.0000 -1.0000
vn 0.7087 -0.6934 0.1303
vn 1.0000 -0.0000 0.0029
vn -0.9990 -0.0394 0.0192
vn 0.0031 -0.0219 0.9998
vn 0.5256 -0.8507 -0.0014
s 0
f 1//1 3//1 2//1
f 2//2 3//2 5//2
f 4//3 1//3 2//3
f 6//4 4//4 5//4
f 5//5 4//5 2//5
f 3//6 1//6 6//6
f 6//7 5//7 3//7
f 6//8 1//8 4//8
