# Blender 4.0.0
# www.blender.org
o decimated_mesh
v -0.162413 1.049453 0.391210
v 0.000060 1.048855 0.388787
v -0.162627 0.930171 0.363840
v 0.000083 1.040839 0.328882
v 0.000064 0.930032 0.363819
v -0.162627 1.040786 0.329602
v -0.162627 0.890601 0.267319
v 0.000064 0.890601 0.267319
v -0.162627 0.890601 0.178001
v 0.000064 0.890601 0.208225
vn 0.1434 0.6197 -0.7716
vn -0.0009 0.9902 -0.1393
vn -0.0033 0.7104 -0.7038
vn 0.0138 -0.2056 0.9785
vn -0.0000 -1.0000 -0.0000
vn -0.0000 -0.9257 0.3783
vn 1.0000 -0.0002 0.0001
vn 1.0000 -0.0001 -0.0000
vn 1.0000 -0.0001 0.0004
vn -1.0000 -0.0000 -0.0000
vn -1.0000 0.0010 0.0033
vn 0.0017 0.9912 -0.1326
vn -0.0001 -0.2236 0.9747
vn -0.0007 -0.9253 0.3793
s 0
f 10//1 9//1 4//1
f 1//2 4//2 6//2
f 6//3 4//3 9//3
f 1//4 5//4 2//4
f 10//5 7//5 9//5
f 5//6 7//6 8//6
f 5//7 8//7 4//7
f 8//8 10//8 4//8
f 5//9 4//9 2//9
f 6//10 9//10 7//10
f 7//10 3//10 6//10
f 6//11 3//11 1//11
f 1//12 2//12 4//12
f 1//13 3//13 5//13
f 10//5 8//5 7//5
f 5//14 3//14 7//14
