# Blender 4.0.0
# www.blender.org
o decimated_mesh
v -0.171556 0.850464 -0.136188
v -0.171556 0.850464 0.026507
v -0.171556 0.886205 -0.136188
v -0.133429 0.809943 -0.011619
v -0.171556 0.880668 0.026507
v -0.130614 0.810088 0.026507
v 0.014834 0.877314 -0.136188
v -0.137392 0.828105 -0.135915
v 0.014833 0.858303 0.026492
v 0.014834 0.810088 0.026507
v 0.014710 0.810089 -0.133624
v -0.116566 0.810088 -0.066880
v -0.048983 0.810147 -0.126589
vn -0.0000 -0.0000 1.0000
vn 0.0476 0.9983 0.0340
vn -1.0000 -0.0000 -0.0000
vn -0.7011 -0.7110 0.0545
vn -0.1749 -0.9643 -0.1989
vn -0.5440 -0.8325 -0.1043
vn -0.0000 0.0003 1.0000
vn 0.0001 0.0001 1.0000
vn 0.0080 -0.0000 -1.0000
vn -0.0002 -0.0048 -1.0000
vn 0.0105 -0.0381 -0.9992
vn -0.0015 1.0000 0.0022
vn -0.0004 1.0000 0.0005
vn 0.0009 1.0000 -0.0000
vn -0.0000 -1.0000 0.0038
vn -0.3888 -0.9133 -0.1211
vn 1.0000 -0.0000 -0.0008
vn 1.0000 -0.0018 -0.0002
vn -0.7283 -0.6853 -0.0000
vn 0.1184 0.9863 0.1153
vn -0.0759 -0.7278 -0.6816
vn -0.0000 -0.0000 -1.0000
vn 0.0014 -0.0100 -0.9999
vn 1.0000 -0.0000 -0.0000
vn 1.0000 -0.0019 -0.0008
vn 0.0020 1.0000 0.0032
vn 0.0012 1.0000 0.0027
vn -0.0010 1.0000 -0.0000
vn 0.0001 0.0003 1.0000
s 0
f 5//1 2//1 6//1
f 3//2 5//2 7//2
f 5//3 1//3 2//3
f 4//4 6//4 2//4
f 12//5 8//5 13//5
f 4//6 1//6 8//6
f 10//7 9//7 6//7
f 9//8 5//8 6//8
f 5//3 3//3 1//3
f 8//9 1//9 3//9
f 3//10 7//10 8//10
f 7//11 11//11 8//11
f 4//12 10//12 12//12
f 12//13 10//13 13//13
f 13//14 10//14 11//14
f 10//15 6//15 4//15
f 12//16 4//16 8//16
f 10//17 11//17 9//17
f 11//18 7//18 9//18
f 2//19 1//19 4//19
f 9//20 7//20 5//20
f 11//21 13//21 8//21
f 3//22 7//22 1//22
f 7//23 8//23 1//23
f 2//3 5//3 3//3
f 2//3 3//3 1//3
f 9//24 10//24 7//24
f 10//25 11//25 7//25
f 12//26 4//26 13//26
f 13//27 4//27 11//27
f 11//28 4//28 10//28
f 6//1 10//1 5//1
f 10//29 9//29 5//29
