# Blender 4.0.0
# www.blender.org
o decimated_mesh
v -0.330431 0.925743 -0.341044
v -0.259201 0.925234 -0.339925
v -0.259197 0.922433 -0.136189
v -0.337212 0.926345 -0.136192
v -0.259197 0.991000 -0.136189
v -0.338632 0.928224 -0.337860
v -0.335751 0.929849 -0.349108
v -0.259192 1.042765 -0.228415
v -0.364599 1.007824 -0.339521
v -0.364827 1.003555 -0.136188
v -0.358909 1.006294 -0.348402
v -0.259197 0.929351 -0.349032
v -0.300338 1.040902 -0.136196
v -0.350370 1.051673 -0.136189
v -0.259194 1.047169 -0.349265
v -0.357724 1.046803 -0.348806
v -0.259186 1.050546 -0.341892
v -0.358640 1.049358 -0.342402
v -0.360148 1.048788 -0.136189
v -0.364077 1.040642 -0.341077
v -0.365073 1.040462 -0.136189
vn -0.0052 0.9286 -0.3712
vn 1.0000 -0.0001 0.0004
vn -0.0047 0.0017 -1.0000
vn -0.7788 0.0165 -0.6270
vn 0.0072 1.0000 -0.0027
vn -0.3606 -0.9056 -0.2232
vn -0.9117 -0.3032 -0.2773
vn -0.8345 -0.2483 -0.4919
vn 0.2091 0.9714 0.1129
vn -0.9416 -0.3368 0.0035
vn 0.7266 0.5991 0.3363
vn -0.8487 0.5289 -0.0037
vn -0.0054 -0.8926 -0.4509
vn -0.8280 0.4700 -0.3059
vn -0.0087 0.9091 -0.4164
vn -1.0000 0.0001 -0.0000
vn 1.0000 -0.0000 -0.0011
vn 1.0000 -0.0000 0.0001
vn 0.0010 -0.0020 -1.0000
vn -0.8429 -0.0121 -0.5379
vn -0.2830 0.9591 0.0006
vn -0.0000 -0.0000 -1.0000
vn -0.0000 0.0002 1.0000
vn -0.0001 0.0002 -1.0000
vn -0.0001 -0.0000 -1.0000
vn -0.2920 -0.9564 -0.0069
vn 0.0501 0.9987 0.0137
vn 0.1644 0.9841 0.0675
vn -0.9506 -0.3103 -0.0076
vn -0.8607 0.5091 -0.0049
vn -0.0000 -0.9112 -0.4119
vn -0.0577 -0.0083 -0.9983
vn -0.0119 0.9999 -0.0107
vn -1.0000 -0.0067 -0.0013
vn -0.9999 0.0157 -0.0048
vn -0.0000 0.0001 -1.0000
vn 0.0501 0.9987 -0.0013
vn 0.0069 0.9999 0.0137
vn -1.0000 -0.0000 -0.0001
vn -0.0053 0.9092 -0.4164
vn -0.0092 0.9283 -0.3717
vn -0.8488 0.5288 -0.0047
vn -0.8607 0.5091 -0.0037
s 0
f 18//1 15//1 16//1
f 2//2 12//2 17//2
f 15//3 7//3 16//3
f 11//4 20//4 16//4
f 2//5 1//5 4//5
f 6//6 7//6 1//6
f 9//7 7//7 6//7
f 7//8 9//8 11//8
f 8//9 14//9 13//9
f 10//10 6//10 4//10
f 5//11 8//11 13//11
f 21//12 18//12 20//12
f 12//13 1//13 7//13
f 20//14 18//14 16//14
f 18//15 17//15 15//15
f 17//16 2//16 8//16
f 15//17 17//17 12//17
f 8//18 5//18 3//18
f 3//16 8//16 2//16
f 15//19 12//19 7//19
f 11//20 9//20 20//20
f 19//21 14//21 18//21
f 4//22 5//22 3//22
f 5//23 13//23 10//23
f 4//22 10//22 5//22
f 13//24 21//24 14//24
f 14//22 21//22 19//22
f 21//25 13//25 10//25
f 4//26 6//26 1//26
f 2//27 4//27 3//27
f 8//28 17//28 14//28
f 10//29 9//29 6//29
f 21//30 19//30 18//30
f 12//31 2//31 1//31
f 16//32 7//32 11//32
f 18//33 14//33 17//33
f 9//34 10//34 21//34
f 20//35 9//35 21//35
f 5//22 3//22 10//22
f 10//36 3//36 4//36
f 4//37 3//37 1//37
f 1//38 3//38 2//38
f 2//16 3//16 17//16
f 17//39 3//39 8//39
f 14//22 10//22 19//22
f 19//22 10//22 21//22
f 13//25 10//25 14//25
f 15//40 16//40 17//40
f 16//41 18//41 17//41
f 18//42 20//42 19//42
f 20//43 21//43 19//43
