# Blender 4.0.0
# www.blender.org
o decimated_mesh
v -0.244266 0.902024 0.216794
v -0.244266 0.973054 0.216794
v -0.338441 0.927876 0.216794
v -0.300497 1.040723 0.216792
v -0.244266 1.042608 0.334215
v -0.244266 0.902522 0.273490
v -0.337742 0.927965 0.310870
v -0.244268 0.929529 0.363342
v -0.244146 1.051395 0.375523
v -0.286924 0.929757 0.362938
v -0.358959 1.004613 0.340383
v -0.364976 1.005790 0.326557
v -0.364559 1.002162 0.216794
v -0.357649 1.051215 0.216733
v -0.306481 1.050971 0.377232
v -0.313559 1.002972 0.385527
v -0.358236 1.050205 0.329288
v -0.364950 1.040686 0.216794
v -0.244265 1.047312 0.386425
v -0.244265 1.003097 0.386867
v -0.312535 1.046288 0.386115
v -0.358151 1.046289 0.340805
v -0.364914 1.040686 0.327231
vn -0.0008 0.0014 1.0000
vn 0.7193 0.5977 -0.3540
vn 0.3746 0.9067 -0.1940
vn -0.9171 -0.0061 0.3986
vn -1.0000 0.0018 0.0003
vn -0.7047 0.0070 0.7095
vn -0.8626 -0.3711 0.3438
vn -0.1788 -0.9617 0.2076
vn 0.1792 0.9753 -0.1292
vn -0.6445 -0.4296 0.6325
vn -0.0179 -0.3007 0.9535
vn 0.0032 0.9365 0.3508
vn -0.0193 -0.0131 0.9997
vn -0.8226 0.5364 0.1884
vn -0.8187 0.5742 0.0009
vn -0.9434 -0.3316 0.0074
vn -0.2821 0.9145 0.2899
vn -1.0000 -0.0000 -0.0000
vn -1.0000 0.0030 0.0023
vn 0.9999 0.0001 0.0110
vn -0.0000 -0.0000 1.0000
vn -0.0083 -0.0001 -1.0000
vn -0.8971 0.0129 0.4416
vn -0.9999 -0.0101 -0.0035
vn -0.0078 -0.9576 0.2878
vn 0.2647 0.9643 -0.0085
vn 0.2616 0.9652 -0.0029
vn -0.7050 0.0065 0.7092
vn -0.6408 -0.4238 0.6401
vn -0.0106 -0.3046 0.9524
vn -0.0154 0.8888 0.4581
vn -0.0047 0.0100 0.9999
vn -0.8218 0.5698 0.0003
vn -0.0140 0.9999 0.0089
vn -0.0070 0.9999 -0.0084
vn -0.9434 -0.3317 0.0073
vn -0.3063 0.9006 0.3084
vn -0.0005 -0.0000 1.0000
vn -1.0000 -0.0000 0.0008
vn -1.0000 0.0008 -0.0000
vn 0.2595 0.9657 -0.0085
vn 0.2647 0.9643 -0.0029
vn 0.0001 0.0005 1.0000
vn 0.0026 0.0009 1.0000
vn -0.0230 0.9997 0.0088
vn -0.0067 1.0000 0.0037
vn -0.0012 -0.0010 1.0000
vn -1.0000 -0.0077 0.0045
vn -1.0000 0.0014 -0.0044
vn -1.0000 0.0010 -0.0003
vn -0.6389 -0.4294 0.6383
vn -0.6464 -0.4233 0.6347
vn -0.9434 -0.3316 0.0073
vn -0.9434 -0.3317 0.0074
s 0
f 14//1 13//1 4//1
f 2//2 4//2 5//2
f 5//3 4//3 9//3
f 11//4 23//4 12//4
f 18//5 12//5 23//5
f 16//6 21//6 22//6
f 7//7 11//7 12//7
f 7//8 6//8 10//8
f 4//9 14//9 9//9
f 11//10 10//10 16//10
f 10//11 20//11 16//11
f 15//12 19//12 9//12
f 21//13 16//13 20//13
f 17//14 23//14 22//14
f 14//15 23//15 17//15
f 7//16 12//16 13//16
f 21//17 15//17 17//17
f 8//18 5//18 6//18
f 6//18 2//18 1//18
f 2//18 6//18 5//18
f 8//18 20//18 5//18
f 5//19 20//19 9//19
f 19//20 20//20 9//20
f 4//21 3//21 2//21
f 2//21 3//21 1//21
f 3//21 4//21 13//21
f 13//22 18//22 14//22
f 11//23 22//23 23//23
f 18//24 13//24 12//24
f 10//25 6//25 8//25
f 3//26 6//26 1//26
f 6//27 3//27 7//27
f 11//28 16//28 22//28
f 11//29 7//29 10//29
f 10//30 8//30 20//30
f 15//31 21//31 19//31
f 19//32 21//32 20//32
f 14//33 18//33 23//33
f 14//34 17//34 9//34
f 17//35 15//35 9//35
f 13//36 3//36 7//36
f 22//37 21//37 17//37
f 14//38 1//38 2//38
f 2//39 1//39 9//39
f 9//40 1//40 6//40
f 6//41 1//41 7//41
f 7//42 1//42 3//42
f 3//43 1//43 14//43
f 3//44 14//44 13//44
f 17//45 15//45 14//45
f 15//46 9//46 14//46
f 4//47 14//47 2//47
f 5//48 2//48 9//48
f 20//49 9//49 8//49
f 8//50 9//50 6//50
f 10//51 16//51 7//51
f 16//52 11//52 7//52
f 12//53 3//53 7//53
f 12//54 13//54 3//54
