# Blender 4.0.0
# www.blender.org
o decimated_mesh
v -0.026261 -0.004129 0.001157
v -0.026229 -0.004234 0.001821
v -0.025149 -0.003838 0.007525
v -0.025501 0.004359 0.004760
v -0.025819 0.004894 0.000043
v -0.025516 0.004317 -0.004730
v -0.025878 -0.008199 -0.003291
v -0.025511 -0.012053 0.001333
v -0.024817 -0.003918 0.008640
v -0.024542 -0.010463 0.007854
v -0.025404 -0.002922 -0.006694
v -0.023660 0.003659 0.010749
v -0.024064 0.012267 0.004861
v -0.024576 -0.010293 -0.007874
v -0.024351 -0.015097 -0.004758
v -0.024318 -0.015178 0.004807
v -0.022031 0.012915 0.010368
v -0.024656 0.011677 0.000033
v -0.024069 0.012267 -0.004830
v -0.023324 0.003287 0.011483
v -0.022141 -0.003838 0.014187
v -0.021440 -0.010344 0.014375
v -0.022172 -0.015297 0.011072
v -0.023790 0.003878 -0.010344
v -0.023036 -0.020172 -0.001532
v -0.022175 -0.021980 0.002037
v -0.021354 -0.021678 0.007022
v -0.021599 -0.003798 0.014943
v -0.019435 -0.018357 0.013782
v -0.022099 0.012186 -0.010734
v -0.023510 -0.003763 -0.011796
v -0.017512 -0.010069 0.018939
v -0.020645 0.010306 0.014070
v -0.019834 0.022215 0.006542
v -0.020610 0.022740 0.001441
v -0.020517 0.022497 -0.002771
v -0.019737 0.022564 -0.006343
v -0.022172 -0.015297 -0.011073
v -0.019757 -0.026260 -0.002493
v -0.021781 -0.022852 0.001815
v -0.016466 -0.010224 0.019826
v -0.017365 -0.003927 0.019773
v -0.018244 0.021950 0.010342
v -0.021384 0.003942 -0.014768
v -0.021540 0.012790 -0.011320
v -0.021442 -0.010459 -0.014329
v -0.022169 -0.019399 -0.007480
v -0.017427 -0.027992 0.007130
v -0.019868 0.004176 0.016710
v -0.017464 0.015130 0.015881
v -0.016675 0.029041 0.004441
v -0.016324 0.029830 0.003875
v -0.016692 0.027697 -0.007070
v -0.019457 -0.018193 -0.013849
v -0.019067 -0.019396 -0.013546
v -0.018986 -0.026189 -0.006312
v -0.017506 -0.024213 0.011814
v -0.016646 -0.012997 0.019025
v -0.013045 -0.003162 0.022804
v -0.016661 -0.015391 0.018248
v -0.015224 -0.019933 0.017491
v -0.015503 0.022712 0.013686
v -0.016682 0.029889 -0.000391
v -0.018453 0.012183 -0.016231
v -0.017373 0.022537 -0.011344
v -0.019771 -0.003738 -0.017353
v -0.016967 -0.010083 -0.019514
v -0.012967 -0.024174 0.016755
v -0.015771 -0.031542 0.002210
v -0.015818 -0.015274 0.018999
v -0.016443 0.010109 0.018834
v -0.016658 0.029859 -0.001435
v -0.015912 0.029828 0.005137
v -0.014260 0.031414 -0.006339
v -0.016651 -0.013005 -0.019020
v -0.016661 -0.015391 -0.018249
v -0.015109 -0.020154 -0.017473
v -0.016844 -0.024393 -0.012674
v -0.018155 -0.028710 0.001387
v -0.015052 -0.031957 -0.003964
v -0.012962 -0.029998 0.011446
v -0.012720 -0.033559 0.005812
v -0.014806 0.003896 0.021356
v -0.011322 -0.010464 0.023161
v -0.012635 -0.023567 0.017387
v -0.011885 0.029834 0.011890
v -0.014464 0.030050 0.008230
v -0.012951 0.034383 -0.000770
v -0.014817 0.012504 -0.019431
v -0.014037 0.031255 -0.007125
v -0.013461 0.022688 -0.015692
v -0.015823 -0.015274 -0.018994
v -0.012166 -0.022438 -0.018476
v -0.016748 -0.023408 -0.013587
v -0.015078 -0.028031 -0.011129
v -0.011058 -0.034311 -0.007058
v -0.012961 -0.034403 -0.001100
v -0.011068 -0.015289 0.022171
v -0.008268 -0.003699 0.024974
v -0.010364 -0.020146 0.020639
v -0.012687 0.017178 0.019025
v -0.011286 0.022467 0.017452
v -0.008518 0.030007 0.014332
v -0.011556 0.034502 0.005582
v -0.016661 0.004117 -0.019926
v -0.011189 0.034475 -0.006279
v -0.013386 0.027893 -0.011979
v -0.014807 -0.007753 -0.021534
v -0.011829 -0.022008 -0.018923
v -0.015103 -0.027272 -0.011937
v -0.013009 -0.030911 -0.010156
v -0.011885 -0.032755 -0.008719
v -0.010370 -0.034383 -0.007773
v -0.012992 -0.034385 -0.000504
v -0.008629 -0.034431 0.009700
v -0.012811 0.014981 0.019893
v -0.010015 0.036709 -0.000039
v -0.011854 0.008653 -0.022418
v -0.008621 0.029945 -0.014299
v -0.010343 0.021957 -0.018244
v -0.011073 -0.015289 -0.022171
v -0.008836 -0.036655 -0.004785
v -0.009246 -0.028632 0.015825
v -0.009541 -0.036736 0.002472
v -0.010785 0.012022 0.022130
v -0.006729 -0.010174 0.024859
v -0.006415 -0.015438 0.023790
v -0.008643 0.003654 0.024547
v -0.006814 -0.024418 0.019861
v -0.004731 0.033034 0.013468
v -0.007962 0.034261 0.010304
v -0.009655 0.036985 -0.001562
v -0.011053 0.007696 -0.023002
v -0.008718 0.036162 -0.006344
v -0.012682 -0.005090 -0.022978
v -0.006535 -0.026129 -0.018956
v -0.009609 -0.030034 -0.014350
v -0.006493 -0.034421 -0.011196
v -0.007888 -0.031812 0.013587
v -0.006406 -0.036680 0.007510
v -0.006305 -0.017490 0.023270
v -0.006588 0.023589 0.019091
v -0.009096 0.036890 0.003842
v -0.010452 0.014988 -0.021228
v -0.009537 0.033012 -0.010618
v -0.008318 -0.011754 -0.024155
v -0.007463 -0.019747 -0.022013
v -0.007217 -0.037534 -0.004056
v -0.008318 -0.037127 -0.003563
v -0.007521 -0.037847 0.000395
v -0.006565 -0.038323 0.000332
v -0.001555 -0.010198 0.025768
v -0.006723 0.022160 0.019790
v -0.003135 0.025678 0.019027
v -0.006278 0.036985 0.007472
v -0.006415 0.038586 0.003300
v -0.009109 0.037358 -0.000391
v -0.006970 0.038676 -0.000559
v -0.008735 0.003775 -0.024496
v -0.005572 0.038555 -0.004786
v -0.007641 0.036684 -0.006716
v -0.006495 0.022610 -0.019668
v -0.011531 -0.003838 -0.023621
v -0.007260 -0.011720 -0.024531
v -0.005485 -0.038277 0.003881
v -0.001603 -0.015327 0.024703
v -0.001590 -0.003883 0.026258
v -0.003369 0.003724 0.025752
v -0.005152 0.012322 0.023966
v -0.001466 0.037047 0.009546
v -0.002328 0.036944 0.009489
v -0.007171 0.038563 0.000205
v -0.005416 0.011121 -0.024204
v -0.004431 0.029880 -0.016157
v -0.004288 0.034398 -0.012220
v -0.003973 -0.031965 -0.015052
v -0.003903 -0.036745 -0.008970
v -0.006106 -0.038298 -0.002681
v -0.001909 -0.036736 0.009580
v -0.002460 -0.034520 0.012670
v -0.003955 -0.039091 -0.000803
v -0.001467 -0.020184 0.023027
v 0.004880 -0.010178 0.025348
v -0.004354 0.012001 0.024186
v 0.000044 0.029978 0.016671
v -0.000015 0.034584 0.012712
v -0.003940 0.038514 0.006141
v -0.003800 0.039852 0.002026
v -0.005329 -0.003916 -0.025764
v -0.001336 0.022701 -0.020641
v -0.001701 -0.010534 -0.025731
v -0.001593 -0.015537 -0.024638
v -0.001578 -0.020151 -0.023041
v -0.002952 -0.038298 -0.006052
v -0.003197 -0.030377 0.016639
v -0.002323 -0.039083 0.003151
v -0.002902 -0.038325 0.005926
v 0.004846 -0.014750 0.024421
v 0.005223 -0.004130 0.025783
v 0.000003 -0.024966 0.020737
v 0.000658 0.022724 0.020608
v 0.001522 0.022721 0.020610
v 0.000053 0.030876 0.015992
v 0.000883 0.038583 0.007198
v -0.000216 0.038571 0.007186
v -0.003439 0.039804 0.002760
v -0.003403 0.039880 -0.002433
v -0.002229 0.004095 -0.025863
v -0.003262 0.036792 -0.009500
v -0.001609 0.018751 -0.022182
v -0.001637 -0.034184 -0.013124
v 0.001907 -0.035917 -0.010912
v -0.001609 -0.039057 -0.003594
v -0.000053 -0.039480 0.000008
v 0.004771 -0.016924 0.023769
v 0.001876 0.003675 0.025933
v 0.001599 0.012050 0.024562
v 0.005435 0.029833 0.015875
v -0.002447 0.040135 0.001660
v -0.002406 0.040127 -0.001620
v -0.001593 0.038539 -0.007130
v 0.000023 0.029958 -0.016697
v -0.001552 0.029818 -0.016630
v 0.003377 -0.008140 -0.025877
v -0.001167 -0.026367 -0.019859
v 0.001582 -0.038265 -0.006577
v 0.000325 -0.038259 0.006729
v 0.004088 -0.034332 0.012420
v 0.002704 -0.030102 0.017029
v 0.001188 -0.039059 0.003757
v 0.004474 -0.019833 0.022775
v 0.003783 0.037032 0.008988
v 0.000797 0.039355 0.005532
v 0.000359 0.039893 0.004038
v 0.000012 0.040483 0.000274
v -0.000024 0.040475 -0.000388
v -0.001187 0.014644 -0.023729
v -0.000395 0.039775 -0.004354
v 0.001980 0.034519 -0.012605
v 0.004003 -0.021736 -0.022067
v 0.003189 -0.036702 0.009282
v 0.004453 -0.034666 0.011863
v 0.011468 -0.004017 0.023648
v 0.005207 0.034524 0.011645
v 0.005917 0.034315 0.011587
v 0.004835 0.038559 0.005407
v 0.001186 0.039890 0.003947
v 0.000447 0.039899 -0.004061
v 0.001873 0.011874 -0.024586
v -0.000017 -0.002958 -0.026273
v 0.001450 0.036952 -0.009659
v 0.002771 0.034456 -0.012538
v 0.004083 0.022487 -0.020372
v 0.004769 -0.015368 -0.024279
v 0.003091 -0.031684 -0.015582
v 0.006893 -0.024371 0.019868
v 0.002386 -0.039090 -0.003177
v 0.003981 -0.039089 0.000690
v 0.011069 -0.015297 0.022171
v 0.011714 -0.009903 0.023055
v 0.012245 -0.004171 0.023249
v 0.007305 0.011667 0.023557
v 0.009609 0.022692 0.018303
v 0.001188 0.039697 -0.004354
v 0.000324 0.039470 -0.005218
v 0.004266 0.030236 -0.015947
v 0.004838 -0.020944 -0.022207
v 0.004915 -0.022540 -0.021441
v 0.004755 -0.028521 -0.017787
v 0.007059 -0.034311 -0.011058
v 0.004006 -0.038323 0.005276
v 0.006967 -0.031503 0.014317
v 0.004615 -0.038248 -0.005072
v 0.006385 -0.038316 0.001691
v 0.010302 -0.020057 0.020724
v 0.008816 0.004105 0.024426
v 0.005480 0.022365 0.020044
v 0.009333 0.029879 0.013892
v 0.008070 0.036994 0.005489
v 0.003791 0.039941 -0.001399
v 0.007866 -0.010487 -0.024541
v 0.008719 -0.032755 -0.011885
v 0.006517 -0.036872 -0.007158
v 0.011027 -0.031918 0.011036
v 0.006371 -0.038285 -0.002165
v 0.004756 -0.038293 0.004755
v 0.015195 -0.018421 0.018314
v 0.015931 -0.008182 0.020669
v 0.007861 0.009936 0.023749
v 0.003563 0.039728 0.002770
v 0.003796 0.039804 0.002074
v 0.004483 0.039737 -0.001418
v 0.004819 0.003799 -0.025543
v 0.002097 0.038641 -0.006772
v 0.007740 0.034477 -0.010194
v 0.009973 -0.021891 -0.020051
v 0.010267 -0.034582 0.007781
v 0.007922 -0.036660 0.006001
v 0.009423 -0.026434 0.017475
v 0.008544 -0.027123 0.017359
v 0.013526 -0.025708 0.015108
v 0.012657 0.007566 0.022171
v 0.010292 0.014769 0.021384
v 0.010385 0.016490 0.020649
v 0.013439 0.022792 0.015640
v 0.010383 0.034158 0.008013
v 0.012850 0.030139 0.010493
v 0.006584 0.038719 0.002131
v 0.007896 0.012431 -0.023189
v 0.005537 0.038532 -0.004740
v 0.005569 0.036961 -0.008083
v 0.007938 0.028254 -0.015854
v 0.008760 0.021950 -0.019025
v 0.011069 -0.015289 -0.022166
v 0.008082 -0.003818 -0.025033
v 0.011453 -0.027980 -0.014926
v 0.010175 -0.030813 -0.013091
v 0.012958 -0.026457 0.014997
v 0.009709 -0.036840 -0.000498
v 0.015845 0.003780 0.020598
v 0.019425 -0.010035 0.017045
v 0.018142 -0.003838 0.018947
v 0.008932 0.037043 -0.003822
v 0.009573 0.031287 -0.012419
v 0.009573 0.022779 -0.018265
v 0.014309 -0.010464 -0.021450
v 0.013438 -0.031941 -0.007876
v 0.011186 -0.034495 -0.006350
v 0.014359 -0.031277 0.007299
v 0.012770 -0.034413 0.001979
v 0.019121 -0.020221 0.012857
v 0.018592 -0.015180 0.016408
v 0.016205 0.012103 0.018504
v 0.009830 0.036853 0.001379
v 0.012683 0.034349 0.002711
v 0.007131 0.038539 -0.001589
v 0.010039 0.003590 -0.023972
v 0.011956 0.025769 -0.015077
v 0.012731 0.015426 -0.019747
v 0.016070 -0.015097 -0.018880
v 0.013170 -0.003248 -0.022733
v 0.016585 -0.026357 0.011011
v 0.012947 -0.034353 0.001245
v 0.019021 -0.012997 0.016650
v 0.023023 -0.009943 0.011744
v 0.018888 -0.003547 0.018239
v 0.017283 0.022591 0.011444
v 0.012611 0.034519 0.001979
v 0.014946 0.031582 0.003974
v 0.010684 0.034413 -0.007098
v 0.016686 -0.015227 -0.018292
v 0.015078 -0.021703 -0.016661
v 0.016703 -0.026134 -0.011088
v 0.013837 -0.033349 -0.003068
v 0.015906 -0.031238 0.002770
v 0.022173 -0.015297 0.011072
v 0.019845 0.004103 0.016764
v 0.022045 -0.004042 0.014362
v 0.018980 0.017092 0.012625
v 0.016698 0.027542 0.007243
v 0.016616 0.028215 0.006245
v 0.016714 0.029917 -0.000089
v 0.012662 0.007589 -0.022171
v 0.012436 0.034419 -0.003280
v 0.013594 0.030524 -0.008822
v 0.013991 0.029803 -0.009272
v 0.013660 0.015168 -0.019180
v 0.018915 -0.018270 -0.014453
v 0.017479 -0.028844 -0.004874
v 0.014484 -0.032756 -0.003002
v 0.018988 -0.026167 0.006359
v 0.015891 -0.031463 0.001777
v 0.023443 -0.009807 0.010866
v 0.020605 0.012115 0.013419
v 0.019032 0.022740 0.007967
v 0.015609 0.022530 -0.013674
v 0.016313 0.010471 -0.018867
v 0.017420 -0.004116 -0.019719
v 0.019532 -0.018314 -0.013662
v 0.018199 -0.027960 -0.004596
v 0.022133 -0.019482 0.007470
v 0.016736 0.004149 -0.019861
v 0.019229 -0.010131 -0.017233
v 0.019657 -0.010176 -0.016726
v 0.022173 -0.015297 -0.011073
v 0.021870 -0.022704 -0.001921
v 0.025017 -0.003894 0.008119
v 0.016631 0.029818 -0.001568
v 0.015839 0.029826 -0.005542
v 0.018242 0.021995 -0.010298
v 0.018230 0.012681 -0.016215
v 0.021359 -0.021671 -0.007037
v 0.019788 -0.026350 0.001636
v 0.024206 -0.015549 0.004775
v 0.023587 0.003729 0.010929
v 0.022891 0.012967 0.008220
v 0.020533 0.022158 0.003979
v 0.020629 0.022687 -0.001439
v 0.018996 0.013150 -0.015026
v 0.018803 0.011914 -0.015776
v 0.021999 -0.003834 -0.014455
v 0.024338 -0.015164 -0.004693
v 0.023025 -0.020180 0.001539
v 0.025356 -0.010218 0.004882
v 0.019751 0.022498 -0.006418
v 0.021532 0.012592 -0.011500
v 0.023568 -0.007756 -0.011282
v 0.025536 -0.011970 -0.001150
v 0.026259 -0.003819 0.001526
v 0.025576 0.003860 0.004652
v 0.023528 0.015238 0.001511
v 0.022083 0.012162 -0.010790
v 0.024540 -0.010019 -0.008159
v 0.024574 0.010092 0.004816
v 0.024072 0.012270 -0.004808
v 0.021378 0.004112 -0.014729
v 0.024496 0.003810 -0.008709
v 0.025746 -0.003885 -0.005367
v 0.025787 0.003519 -0.003285
v 0.025488 0.007752 0.000047
vn -0.8812 0.4704 -0.0465
vn -0.9675 -0.0697 -0.2429
vn 0.3125 0.4644 0.8287
vn -0.2506 0.8245 0.5073
vn 0.5135 -0.7262 -0.4571
vn -0.1843 -0.3219 -0.9286
vn -0.2529 0.4444 0.8594
vn 0.1819 0.1658 0.9692
vn -0.0377 -0.9660 0.2557
vn 0.3198 -0.6612 -0.6786
vn -0.7644 0.6406 0.0730
vn 0.4728 -0.8526 -0.2225
vn 0.7607 0.6449 0.0741
vn 0.7028 -0.0775 0.7072
vn -0.0320 -0.6419 -0.7661
vn -0.3022 -0.6181 -0.7257
vn 0.2160 -0.7501 -0.6251
vn -0.6675 -0.6661 -0.3328
vn 0.3041 -0.2833 0.9096
vn 0.7326 0.4642 -0.4978
vn 0.4008 -0.9161 -0.0090
vn -0.8913 -0.1528 0.4268
vn 0.7332 -0.2333 -0.6387
vn -0.1786 0.3681 -0.9125
vn -0.3480 0.4860 -0.8017
vn 0.0819 -0.9931 0.0844
vn -0.8114 0.4694 0.3482
vn 0.2905 0.1540 -0.9444
vn 0.9923 -0.1081 0.0610
vn 0.9165 0.3596 -0.1752
vn -0.0154 0.8438 0.5364
vn -0.1836 -0.4463 -0.8759
vn 0.3006 -0.8741 0.3817
vn 0.0469 -0.7289 0.6831
vn 0.3701 0.9022 0.2215
vn -0.4230 -0.8641 0.2728
vn -0.1349 0.9323 0.3356
vn -0.9007 0.0153 0.4342
vn 0.9952 -0.0642 -0.0734
vn -0.0476 0.7659 -0.6412
vn -0.9142 0.3563 -0.1929
vn 0.6262 -0.7389 0.2486
vn -0.8034 -0.4447 -0.3960
vn 0.7198 -0.5988 -0.3510
vn 0.6029 0.7479 -0.2778
vn 0.1540 0.0253 -0.9878
vn 0.4380 0.4686 -0.7672
vn -0.5777 0.1741 -0.7975
vn -0.6873 -0.5401 -0.4858
vn 0.0456 -0.8035 0.5936
vn -0.6999 0.4873 0.5221
vn -0.0257 -0.9590 -0.2822
vn 0.0346 -0.8699 0.4919
vn -0.4746 0.8613 -0.1816
vn 0.8539 0.4535 0.2553
vn 0.7252 -0.5926 0.3506
vn 0.8609 0.4795 -0.1699
vn 0.3785 0.8060 0.4550
vn -0.4089 -0.8960 -0.1730
vn 0.1205 0.4901 -0.8633
vn 0.1394 0.7563 0.6392
vn -0.3598 0.7635 -0.5363
vn 0.2901 -0.4017 0.8686
vn -0.5417 -0.1963 0.8174
vn 0.7402 -0.6251 0.2475
vn -0.0149 0.9069 0.4210
vn 0.5892 0.0026 0.8080
vn 0.0571 -0.3243 0.9442
vn -0.3487 0.2576 -0.9011
vn -0.6426 0.0035 -0.7662
vn -0.8689 0.1547 -0.4702
vn -0.9552 0.0655 0.2887
vn 0.6634 -0.4235 0.6169
vn -0.8969 0.3320 0.2921
vn -0.8809 -0.4411 0.1717
vn -0.7516 0.0170 0.6594
vn -0.3178 -0.6918 -0.6484
vn 0.1137 0.7760 -0.6205
vn 0.5552 0.2612 -0.7896
vn -0.7243 0.2340 0.6485
vn 0.3487 -0.8050 0.4801
vn -0.1959 -0.7834 -0.5898
vn -0.6723 0.0708 0.7369
vn -0.7357 -0.6761 -0.0402
vn 0.6664 -0.6988 -0.2598
vn -0.7362 -0.4200 -0.5307
vn 0.5937 -0.6185 -0.5148
vn -0.5572 -0.7126 0.4264
vn -0.7454 -0.5324 -0.4013
vn 0.7167 0.1450 -0.6821
vn -0.4567 0.0681 0.8870
vn 0.5702 -0.2229 0.7907
vn 0.9510 -0.3058 -0.0458
vn 0.0689 -0.3348 -0.9398
vn -0.7510 0.6395 -0.1645
vn -0.0823 -0.9933 -0.0810
vn -0.4631 -0.7101 -0.5303
vn -0.5212 0.3544 -0.7763
vn -0.3814 0.6613 0.6459
vn 0.9293 -0.2033 0.3083
vn -0.5286 -0.5720 0.6272
vn 0.1335 0.9909 -0.0193
vn -0.3155 0.8276 -0.4642
vn 0.9683 0.2403 0.0678
vn -0.6127 0.3200 0.7226
vn 0.4964 0.4679 0.7312
vn 0.7785 -0.6248 -0.0601
vn 0.8825 0.4664 0.0611
vn 0.4147 0.8709 0.2637
vn 0.3191 -0.1905 0.9284
vn -0.5131 -0.3874 0.7659
vn -0.8575 0.4821 -0.1798
vn 0.1664 0.4813 0.8606
vn -0.5421 -0.1967 -0.8170
vn 0.1510 -0.5252 0.8375
vn 0.5877 0.1639 -0.7923
vn -0.7368 -0.1991 0.6461
vn 0.0048 0.4778 0.8785
vn -0.7983 0.5639 -0.2115
vn -0.8374 0.0614 0.5431
vn -0.9969 0.0557 0.0559
vn -0.3789 -0.8200 -0.4289
vn -0.3992 -0.5034 0.7663
vn 0.2827 0.9585 0.0374
vn -0.5246 -0.8499 -0.0489
vn -0.5003 0.7838 0.3679
vn 0.8094 0.2072 -0.5495
vn 0.8474 -0.4977 -0.1849
vn 0.9063 0.0212 -0.4221
vn 0.0201 0.9880 0.1529
vn 0.1406 -0.9075 0.3959
vn 0.5927 0.1724 0.7868
vn -0.2795 0.7638 0.5817
vn 0.4097 0.0224 -0.9119
vn -0.2004 -0.9616 -0.1875
vn -0.8088 -0.0704 0.5839
vn -0.4076 -0.3599 -0.8393
vn 0.2462 -0.0792 -0.9660
vn -0.0967 0.6584 0.7464
vn 0.3901 0.4925 0.7780
vn -0.8522 0.3582 0.3814
vn -0.8321 -0.5275 0.1715
vn 0.2430 -0.8259 -0.5087
vn -0.6269 -0.2372 -0.7421
vn 0.6470 0.7616 -0.0360
vn -0.5108 0.7307 -0.4530
vn -0.5754 0.4625 0.6745
vn 0.4476 0.2607 -0.8554
vn 0.5269 0.3576 0.7710
vn -0.6107 -0.7643 -0.2069
vn -0.0347 -0.8777 -0.4780
vn 0.0630 -0.4152 0.9075
vn -0.4679 -0.8026 -0.3700
vn -0.3923 -0.4979 -0.7734
vn 0.5260 -0.3373 -0.7807
vn 0.8233 -0.1107 0.5568
vn -0.9820 0.1685 0.0852
vn 0.3821 0.1682 0.9087
vn 0.0392 0.9437 0.3284
vn -0.9105 -0.4134 0.0103
vn -0.2719 -0.7958 0.5412
vn -0.8430 0.3594 -0.4004
vn -0.1900 -0.0626 0.9798
vn 0.6482 -0.1660 -0.7432
vn -0.8074 -0.2407 -0.5386
vn -0.2252 -0.9697 0.0949
vn -0.6596 -0.6478 0.3811
vn 0.8163 -0.1976 0.5427
vn 0.1684 -0.3415 -0.9247
vn -0.5472 0.2332 0.8039
vn -0.1499 -0.5390 0.8289
vn 0.1119 0.9279 -0.3556
vn 0.6951 -0.3638 0.6200
vn 0.3986 0.3370 -0.8530
vn -0.0580 0.6804 -0.7305
vn -0.5462 0.8324 0.0939
vn -0.1746 0.5692 0.8034
vn 0.5820 -0.8098 0.0744
vn 0.6258 -0.7782 -0.0521
vn 0.6578 -0.1869 0.7296
vn 0.6311 -0.6285 0.4547
vn -0.2763 -0.9036 0.3274
vn 0.3126 -0.5306 0.7878
vn 0.7411 0.1977 0.6417
vn -0.3250 -0.8746 -0.3597
vn 0.8547 0.4978 0.1471
vn 0.9390 0.3352 -0.0766
vn 0.9157 -0.3594 0.1800
vn 0.7414 0.0349 -0.6702
vn -0.1350 -0.3267 0.9354
vn -0.2311 -0.6943 0.6816
vn 0.6007 0.5423 -0.5874
vn 0.5147 0.2582 0.8175
vn -0.0691 0.3412 0.9375
vn 0.5110 -0.4416 0.7375
vn -0.2023 0.1589 0.9664
vn 0.9966 0.0792 0.0231
vn -0.1422 0.9898 -0.0043
vn 0.6007 0.7460 0.2875
vn -0.4061 0.3569 0.8413
vn -0.1471 0.8664 0.4772
vn 0.9036 -0.3055 -0.3003
vn 0.6763 -0.3333 -0.6569
vn -0.0134 -0.9932 0.1159
vn 0.5144 -0.0766 0.8541
vn 0.5371 0.2450 -0.8072
vn -0.7186 0.6802 0.1451
vn 0.8700 0.4863 -0.0813
vn 0.9233 0.3286 0.1989
vn 0.6005 -0.5976 0.5313
vn 0.2498 -0.9581 0.1402
vn 0.2164 -0.6860 0.6947
vn -0.5292 0.0521 -0.8469
vn -0.2965 -0.4040 0.8654
vn -0.4871 -0.8156 0.3122
vn -0.9130 -0.2692 -0.3065
vn -0.7809 -0.6014 -0.1687
vn 0.3820 -0.4609 0.8010
vn 0.6611 0.6826 0.3114
vn 0.1328 0.5969 0.7912
vn -0.1333 0.7516 0.6460
vn -0.9162 0.3598 0.1763
vn -0.3148 0.9015 0.2971
vn 0.4522 -0.6229 0.6384
vn -0.4736 0.6373 0.6079
vn 0.1194 0.9855 0.1208
vn 0.4555 0.8075 -0.3748
vn -0.0171 0.9382 -0.3457
vn 0.5467 0.6672 -0.5060
vn 0.9232 0.3805 0.0535
vn 0.1853 0.3350 0.9238
vn 0.1434 0.6572 0.7400
vn -0.4397 -0.1310 -0.8886
vn 0.2259 0.9342 -0.2760
vn -0.1810 0.9251 -0.3338
vn 0.0258 0.8604 -0.5090
vn 0.0675 -0.2030 -0.9769
vn -0.1881 0.0212 0.9819
vn -0.3308 0.9434 -0.0235
vn -0.4425 -0.8955 0.0485
vn -0.1704 -0.1986 0.9651
vn -0.1589 -0.5962 -0.7870
vn -0.0647 -0.8333 -0.5490
vn -0.7140 0.6379 0.2884
vn 0.7911 0.4474 0.4171
vn -0.7481 -0.2307 -0.6222
vn 0.5568 0.3874 -0.7348
vn 0.7908 -0.5994 0.1240
vn 0.9718 0.0588 -0.2282
vn -0.5270 -0.3223 -0.7864
vn -0.2792 -0.6296 0.7250
vn -0.9826 0.0200 0.1848
vn 0.7204 0.3467 -0.6007
vn 0.2194 -0.9715 -0.0902
vn -0.6582 0.1877 -0.7290
vn -0.4556 0.8259 0.3320
vn -0.5230 -0.7362 -0.4295
vn -0.1648 0.9756 0.1453
vn 0.4687 0.5394 -0.6996
vn 0.5031 -0.3243 0.8011
vn 0.8817 0.1427 -0.4496
vn 0.8418 0.0695 0.5353
vn 0.8375 0.1411 0.5280
vn -0.3337 0.9155 0.2246
vn 0.4796 0.0744 0.8743
vn 0.4793 0.0395 0.8768
vn 0.4666 0.0679 0.8819
vn -0.8795 0.4747 -0.0335
vn 0.5302 -0.6972 -0.4825
vn 0.4669 -0.7675 -0.4392
vn 0.4806 -0.7523 -0.4506
vn -0.2113 -0.2877 -0.9341
vn 0.1816 0.1647 0.9695
vn 0.2014 0.1455 0.9686
vn -0.0419 -0.9678 0.2484
vn 0.3070 -0.6810 -0.6648
vn 0.3220 -0.6496 -0.6887
vn 0.3512 -0.6153 -0.7058
vn 0.4447 -0.0714 0.8929
vn -0.6645 0.6731 -0.3246
vn 0.9038 -0.0395 0.4262
vn 0.9026 -0.0412 0.4286
vn 0.9028 0.0108 0.4299
vn 0.6562 0.4922 -0.5720
vn 0.4796 -0.8480 -0.2258
vn 0.8345 -0.5463 -0.0717
vn 0.7581 0.6490 0.0639
vn 0.6991 -0.0730 0.7113
vn -0.0287 -0.6727 -0.7394
vn -0.5258 0.8502 -0.0259
vn -0.5252 0.8509 -0.0120
vn -0.0859 -0.0521 -0.9949
vn -0.1001 0.0265 -0.9946
vn -0.9185 -0.3523 -0.1796
vn -0.6524 -0.6874 -0.3192
vn -0.7076 -0.6204 -0.3383
vn -0.7074 -0.6217 -0.3363
vn 0.3011 -0.3358 0.8925
vn 0.3102 -0.3217 0.8946
vn -0.8677 0.4796 0.1307
vn -0.8705 0.4582 0.1795
vn 0.3138 -0.3273 -0.8913
vn 0.3110 -0.2465 -0.9179
vn 0.3033 -0.3359 -0.8917
vn -0.8970 -0.0842 0.4339
vn -0.8988 -0.0893 0.4292
vn 0.7587 -0.2397 -0.6058
vn 0.7426 -0.2433 -0.6240
vn -0.1723 0.3318 -0.9275
vn -0.2007 0.3433 -0.9175
vn 0.0649 -0.5934 -0.8023
vn 0.7519 0.6537 -0.0858
vn 0.7577 0.6352 -0.1497
vn -0.3753 0.4742 -0.7964
vn -0.7962 0.4814 0.3666
vn -0.8080 0.4785 0.3438
vn 0.3681 0.1701 -0.9141
vn 0.1913 0.9147 0.3559
vn 0.1889 0.8947 0.4048
vn 0.2020 0.8780 0.4339
vn -0.9764 -0.1975 -0.0872
vn -0.7536 -0.0750 0.6531
vn -0.7510 -0.0711 0.6565
vn -0.5800 0.6616 0.4753
vn -0.5821 0.6771 0.4503
vn -0.1672 -0.4580 -0.8731
vn 0.2914 -0.8646 0.4093
vn 0.8897 0.3586 0.2826
vn 0.0265 -0.4541 -0.8906
vn 0.0041 -0.9930 -0.1183
vn -0.0152 -0.6932 0.7205
vn -0.8291 -0.3715 0.4178
vn -0.8048 -0.4095 0.4296
vn 0.3489 0.9084 0.2304
vn 0.6769 -0.7354 -0.0316
vn 0.7018 -0.7122 -0.0139
vn 0.6867 -0.7191 0.1070
vn -0.1168 0.9231 0.3663
vn -0.1167 0.9230 0.3666
vn -0.9051 0.0200 0.4248
vn -0.0545 0.7596 -0.6481
vn 0.6842 -0.7134 0.1515
vn 0.6657 -0.7126 0.2213
vn -0.8272 -0.3706 -0.4224
vn -0.8256 -0.3742 -0.4224
vn -0.8040 -0.4293 -0.4114
vn 0.0653 0.8040 0.5911
vn 0.0656 0.8019 0.5939
vn 0.7131 0.3313 0.6178
vn 0.6990 0.3497 0.6238
vn 0.6984 0.3483 0.6253
vn 0.2760 0.4717 -0.8374
vn 0.2974 0.4577 -0.8379
vn 0.2935 0.4741 -0.8301
vn 0.9180 -0.3610 -0.1644
vn -0.6383 0.3388 -0.6912
vn 0.1954 -0.1757 -0.9649
vn -0.8771 -0.4431 -0.1852
vn -0.8772 -0.4430 -0.1853
vn 0.1512 -0.0014 -0.9885
vn -0.9655 -0.1721 -0.1955
vn 0.8744 -0.4561 0.1658
vn 0.8773 -0.4433 0.1841
vn 0.5828 0.0342 -0.8119
vn 0.5700 -0.0558 -0.8197
vn 0.9380 0.0019 -0.3467
vn 0.9457 -0.0393 -0.3226
vn -0.5808 -0.6023 -0.5477
vn -0.6906 -0.3262 0.6455
vn 0.1337 -0.8090 0.5725
vn 0.0398 -0.8085 0.5871
vn -0.7705 0.6365 -0.0356
vn -0.7321 0.4702 0.4929
vn -0.8112 0.2288 -0.5382
vn -0.8174 0.1944 -0.5423
vn 0.9699 -0.1610 -0.1827
vn 0.9786 -0.1147 -0.1710
vn 0.0699 0.0107 0.9975
vn 0.0169 -0.9707 -0.2397
vn -0.6350 0.7623 0.1252
vn -0.6471 0.7532 0.1183
vn -0.5122 0.8223 -0.2481
vn -0.5511 0.7976 -0.2453
vn -0.4895 0.8382 -0.2402
vn -0.6230 0.6014 -0.5001
vn 0.8536 0.4618 0.2411
vn -0.9523 0.0661 -0.2981
vn -0.9794 0.1771 -0.0966
vn -0.9823 0.1683 -0.0826
vn -0.3275 -0.2065 0.9220
vn -0.3254 -0.2488 0.9123
vn -0.3277 -0.2068 0.9219
vn 0.9508 0.0668 0.3027
vn 0.8606 0.4798 -0.1705
vn -0.0325 0.1604 0.9865
vn -0.0636 0.1783 0.9819
vn -0.9441 -0.3236 0.0639
vn -0.9503 -0.3073 0.0498
vn 0.4014 0.7779 0.4834
vn 0.4150 0.7700 0.4847
vn -0.4076 -0.8974 -0.1691
vn 0.0622 0.4676 -0.8818
vn 0.8850 -0.4636 0.0426
vn -0.3133 0.1886 0.9307
vn -0.3648 0.7600 -0.5379
vn -0.5395 -0.2012 0.8176
vn -0.5438 -0.2069 0.8133
vn -0.7892 -0.4844 0.3774
vn -0.8649 0.4956 0.0794
vn 0.5884 0.0209 0.8083
vn 0.0594 -0.3282 0.9427
vn 0.0676 -0.2887 0.9550
vn -0.3457 0.2466 -0.9054
vn -0.6611 -0.0369 -0.7494
vn 0.9815 0.1549 0.1123
vn -0.9521 0.0601 0.2998
vn 0.5200 0.0430 -0.8531
vn 0.5164 0.0820 -0.8524
vn 0.9636 0.1503 -0.2213
vn 0.6230 -0.5534 0.5528
vn 0.6779 -0.4542 0.5781
vn -0.5503 -0.5339 -0.6419
vn -0.5763 -0.5118 -0.6372
vn -0.5628 -0.5316 -0.6330
vn -0.5918 -0.4774 -0.6495
vn -0.9171 -0.3594 0.1727
vn -0.7985 0.5425 0.2611
vn 0.6008 0.3706 -0.7083
vn 0.6360 0.3471 -0.6893
vn 0.6301 0.3086 -0.7126
vn 0.4310 -0.0916 -0.8977
vn 0.4278 -0.1551 -0.8905
vn 0.4180 -0.0803 -0.9049
vn -0.7326 0.1889 0.6540
vn 0.8329 -0.3656 0.4155
vn 0.8007 -0.4500 0.3954
vn 0.8066 -0.4442 0.3900
vn 0.3829 -0.7567 0.5299
vn 0.3783 -0.7361 0.5613
vn 0.3370 -0.8125 0.4757
vn -0.2087 -0.7573 -0.6188
vn -0.6673 0.1223 0.7346
vn -0.7225 -0.6912 -0.0160
vn -0.7578 -0.6509 -0.0445
vn -0.7781 -0.6239 -0.0727
vn 0.2053 0.1887 -0.9603
vn 0.6393 -0.7221 -0.2644
vn 0.7020 -0.6625 -0.2614
vn -0.6239 -0.5267 0.5773
vn 0.6088 -0.6060 -0.5120
vn 0.2683 0.8729 -0.4074
vn 0.0959 -0.9538 0.2846
vn 0.9773 0.1694 -0.1275
vn 0.2788 0.7516 -0.5978
vn 0.2199 0.7848 -0.5794
vn 0.7335 0.1532 -0.6622
vn 0.7347 0.1553 -0.6604
vn 0.8574 0.3484 -0.3787
vn 0.8294 0.3657 -0.4222
vn -0.4104 0.0320 0.9114
vn -0.4511 0.1392 0.8816
vn 0.5428 -0.1988 0.8160
vn 0.9400 -0.3337 -0.0706
vn -0.3397 -0.0974 0.9355
vn 0.0618 -0.3262 -0.9433
vn -0.5771 0.0236 0.8164
vn -0.4596 -0.7254 -0.5125
vn -0.4737 -0.7026 -0.5310
vn -0.5479 0.3365 -0.7659
vn 0.2726 0.7683 0.5791
vn -0.6891 -0.5697 0.4479
vn 0.9278 -0.2062 0.3108
vn 0.8965 -0.1923 0.3990
vn 0.9126 -0.2717 0.3056
vn 0.9732 -0.2116 0.0905
vn 0.9595 -0.2779 0.0474
vn 0.8386 0.3421 0.4240
vn 0.8309 0.3495 0.4329
vn 0.8385 0.3414 0.4247
vn -0.0738 0.2196 -0.9728
vn -0.0718 0.1983 -0.9775
vn 0.1586 0.9866 0.0387
vn -0.2603 0.8556 -0.4475
vn -0.5675 -0.4245 0.7055
vn 0.7096 0.6099 0.3529
vn 0.7144 0.5986 0.3623
vn 0.6796 0.6391 0.3601
vn 0.3178 0.6613 -0.6794
vn 0.3215 0.6590 -0.6800
vn 0.3492 0.6136 -0.7082
vn -0.6067 0.3699 0.7036
vn -0.6157 0.3619 0.7000
vn -0.6169 0.3019 0.7268
vn -0.0254 -0.5939 0.8041
vn -0.5790 0.0200 -0.8151
vn 0.7829 -0.6196 -0.0570
vn 0.7939 -0.6064 -0.0458
vn 0.3190 -0.1904 0.9284
vn -0.5260 -0.3242 0.7862
vn -0.5246 -0.3219 0.7882
vn 0.0055 -0.0726 -0.9973
vn -0.9598 -0.2770 -0.0443
vn 0.4855 -0.8600 0.1574
vn -0.8572 0.4833 -0.1780
vn 0.1399 0.4942 0.8580
vn 0.2076 0.0702 0.9757
vn 0.1914 -0.8690 -0.4563
vn 0.2045 -0.8925 -0.4020
vn -0.5447 -0.2010 -0.8142
vn -0.5443 -0.2078 -0.8128
vn 0.1504 -0.4752 0.8669
vn -0.7490 -0.2333 0.6201
vn -0.7374 -0.2041 0.6439
vn -0.0002 0.4717 0.8818
vn -0.8296 0.0136 -0.5582
vn -0.8287 -0.0449 -0.5579
vn -0.9390 -0.0509 -0.3401
vn -0.9352 0.0328 -0.3525
vn -0.8374 0.1233 0.5326
vn -0.8117 0.0846 0.5779
vn -0.9955 0.0591 0.0737
vn 0.7639 0.3537 -0.5398
vn 0.7878 0.3412 -0.5127
vn 0.7613 -0.0497 -0.6464
vn 0.7549 -0.0434 -0.6544
vn -0.3789 -0.8246 -0.4200
vn -0.4019 -0.4765 0.7820
vn -0.4409 -0.5205 0.7312
vn 0.0495 -0.7462 -0.6638
vn -0.5269 -0.8479 -0.0591
vn -0.5345 -0.8451 -0.0018
vn -0.5404 -0.8361 -0.0941
vn 0.2707 -0.6130 0.7423
vn 0.2455 -0.5685 0.7852
vn -0.3519 -0.4455 -0.8232
vn -0.5052 0.7522 0.4230
vn 0.2961 0.3601 -0.8847
vn 0.8148 0.1956 -0.5458
vn 0.8228 0.1483 -0.5487
vn 0.0923 0.6428 -0.7605
vn 0.1148 0.6485 -0.7525
vn 0.7779 -0.5250 -0.3454
vn -0.6061 0.6548 -0.4515
vn -0.6360 0.7477 -0.1911
vn -0.6883 0.6947 -0.2087
vn 0.8878 0.0536 -0.4572
vn -0.5449 0.5726 -0.6126
vn -0.0498 0.9860 0.1590
vn -0.0933 0.9734 0.2091
vn 0.7865 -0.5240 -0.3267
vn -0.7796 0.3319 -0.5311
vn -0.2839 0.7699 0.5715
vn -0.9396 0.3342 0.0742
vn -0.3036 -0.2782 -0.9113
vn -0.3153 -0.2656 -0.9111
vn -0.1990 -0.9636 -0.1788
vn 0.5514 -0.8062 0.2144
vn 0.5256 -0.8340 0.1677
vn -0.7777 -0.6040 0.1742
vn -0.1718 0.4676 -0.8671
vn -0.1316 0.4837 -0.8653
vn -0.0805 0.4876 -0.8694
vn 0.8868 0.1904 0.4211
vn -0.0339 0.0583 0.9977
vn 0.6235 0.7730 0.1173
vn -0.2797 0.3297 -0.9017
vn -0.8359 -0.5167 0.1851
vn -0.6518 -0.1712 0.7388
vn -0.6517 -0.0867 0.7535
vn -0.6054 -0.3163 -0.7304
vn -0.3771 0.3695 -0.8493
vn -0.5126 0.7355 -0.4431
vn -0.5302 0.4830 0.6968
vn 0.5427 0.3456 0.7656
vn -0.3063 0.6310 -0.7128
vn -0.6035 -0.7707 -0.2046
vn -0.2555 0.5470 0.7972
vn -0.2940 0.5107 0.8079
vn -0.0465 -0.8880 -0.4576
vn -0.3062 0.1756 -0.9356
vn 0.0645 -0.1986 0.9780
vn 0.0610 -0.2033 0.9772
vn -0.0851 -0.9050 0.4168
vn -0.4153 -0.5381 -0.7334
vn -0.3979 0.9130 0.0902
vn -0.3751 0.9262 0.0388
vn 0.5289 -0.3405 -0.7774
vn -0.4180 -0.0543 0.9068
vn -0.6988 0.3636 -0.6160
vn -0.6773 0.4337 -0.5943
vn 0.4131 0.9105 0.0168
vn 0.3612 0.9309 0.0534
vn -0.9793 0.1767 0.0984
vn 0.5222 0.8302 0.1952
vn 0.3199 -0.0818 0.9439
vn 0.3236 -0.0862 0.9423
vn 0.5393 -0.2425 -0.8064
vn -0.7593 0.5615 -0.3289
vn 0.4046 0.2295 0.8852
vn 0.4063 0.2284 0.8847
vn 0.1003 0.9848 -0.1415
vn -0.8056 -0.2416 0.5409
vn -0.5448 -0.0878 0.8339
vn -0.5641 -0.0736 0.8224
vn -0.8496 -0.5272 0.0179
vn -0.2554 -0.8066 0.5331
vn -0.2865 -0.7683 0.5724
vn -0.8322 0.3657 -0.4168
vn -0.8158 0.4290 -0.3879
vn 0.6157 -0.5195 -0.5925
vn -0.1728 -0.0772 0.9819
vn -0.4911 0.4685 -0.7343
vn -0.5432 0.4928 -0.6797
vn 0.6509 -0.1143 -0.7505
vn 0.6595 -0.1774 -0.7305
vn 0.1364 -0.9548 -0.2641
vn 0.8306 -0.3696 -0.4164
vn 0.7909 -0.4296 -0.4358
vn -0.3320 -0.0712 -0.9406
vn -0.3266 0.0113 -0.9451
vn -0.3267 -0.0681 -0.9427
vn -0.2461 -0.9653 0.0873
vn 0.8148 -0.1843 0.5497
vn 0.8078 -0.2196 0.5470
vn -0.1088 -0.9930 0.0469
vn 0.6641 0.4640 0.5863
vn -0.5414 0.1898 0.8191
vn -0.1622 -0.2140 -0.9633
vn -0.8936 0.3315 -0.3028
vn 0.1172 0.9255 -0.3603
vn 0.4960 -0.4855 -0.7199
vn 0.4242 0.3506 -0.8350
vn -0.1927 -0.9561 0.2206
vn -0.0906 0.6622 -0.7438
vn -0.1086 0.6551 -0.7477
vn -0.5557 0.8261 0.0932
vn -0.5137 0.8496 0.1190
vn -0.1462 0.5977 0.7883
vn 0.2899 0.0602 -0.9551
vn 0.0604 0.3590 -0.9314
vn 0.0621 0.3571 -0.9320
vn 0.0615 0.3575 -0.9319
vn -0.6878 -0.3296 -0.6468
vn -0.6852 -0.3896 -0.6154
vn -0.6874 -0.3790 -0.6196
vn 0.6789 0.0460 0.7328
vn 0.6887 0.0531 0.7231
vn 0.6392 -0.2079 0.7404
vn 0.6270 -0.2171 0.7481
vn 0.6002 -0.6820 0.4180
vn 0.6774 0.6609 -0.3229
vn 0.7081 0.6107 -0.3546
vn 0.6869 0.6543 -0.3163
vn 0.1843 0.3293 -0.9261
vn 0.9819 -0.0419 0.1846
vn 0.9826 0.0120 0.1853
vn -0.3176 -0.8791 -0.3554
vn 0.8406 0.5198 0.1527
vn 0.9647 0.2603 -0.0392
vn -0.2101 0.1335 -0.9685
vn -0.2084 0.0687 -0.9756
vn 0.7521 0.0509 -0.6570
vn 0.0506 0.1357 -0.9895
vn 0.0482 0.0731 -0.9962
vn -0.8660 0.1553 0.4753
vn -0.8763 0.1728 0.4498
vn -0.3878 0.9088 -0.1543
vn 0.5257 0.3101 0.7921
vn -0.1290 0.3341 0.9337
vn -0.1302 0.3697 0.9200
vn -0.0007 0.3473 0.9377
vn -0.0599 0.4581 0.8869
vn 0.5052 -0.4461 0.7387
vn 0.5000 -0.4845 0.7179
vn -0.2221 0.1540 0.9628
vn -0.9942 0.0214 -0.1052
vn -0.9969 0.0404 -0.0681
vn -0.9942 0.0134 -0.1065
vn 0.9984 0.0513 0.0244
vn -0.2124 -0.8736 0.4378
vn -0.2294 0.9732 -0.0143
vn -0.2060 0.9785 -0.0049
vn -0.1423 0.9898 -0.0041
vn 0.5823 0.7819 0.2226
vn 0.8298 -0.1106 -0.5470
vn 0.8345 -0.1690 -0.5245
vn 0.8001 -0.2220 -0.5573
vn -0.4066 0.3577 0.8407
vn -0.4094 0.3552 0.8404
vn -0.1361 0.8637 0.4853
vn -0.1906 -0.4221 0.8863
vn -0.1496 -0.4640 0.8731
vn 0.9304 0.1909 -0.3128
vn 0.1034 -0.9937 -0.0424
vn 0.9201 -0.2430 -0.3072
vn 0.6133 -0.3326 -0.7164
vn 0.7044 -0.4185 -0.5733
vn -0.9367 0.3478 -0.0407
vn -0.9377 0.3401 -0.0718
vn 0.6775 0.1518 0.7197
vn 0.7314 0.4894 0.4749
vn -0.4483 -0.8907 -0.0756
vn -0.4437 -0.8932 -0.0731
vn -0.8774 0.0584 -0.4762
vn -0.0810 0.9803 -0.1803
vn -0.0859 0.9777 -0.1918
vn -0.0598 0.9850 -0.1621
vn 0.5036 0.8633 0.0324
vn 0.7903 -0.2952 0.5369
vn 0.9294 0.3138 0.1945
vn -0.1877 -0.1078 -0.9763
vn -0.9299 0.1770 0.3226
vn -0.9369 0.1663 0.3075
vn 0.1519 -0.9750 0.1622
vn 0.1670 -0.9726 0.1617
vn -0.9689 -0.1650 0.1842
vn -0.9573 -0.0738 0.2794
vn -0.9783 -0.0801 0.1909
vn -0.9803 -0.1007 0.1702
vn -0.7612 0.3542 0.5432
vn -0.7877 0.3316 0.5192
vn -0.7885 0.3235 0.5231
vn -0.5196 0.0835 -0.8503
vn -0.4980 0.0358 -0.8664
vn -0.4951 0.0824 -0.8649
vn -0.4883 -0.8067 0.3328
vn -0.4772 -0.6839 0.5519
vn -0.4819 -0.6326 0.6064
vn -0.9191 -0.2438 -0.3095
vn 0.2960 -0.7212 0.6263
vn 0.7854 0.4791 -0.3920
vn 0.7996 0.4714 -0.3721
vn 0.7711 0.2380 -0.5905
vn -0.9368 0.1765 -0.3020
vn -0.9347 0.1662 -0.3142
vn 0.2153 0.9270 0.3072
vn 0.5682 -0.8033 -0.1786
vn -0.2920 -0.9166 -0.2732
vn 0.3231 0.0149 0.9462
vn -0.7487 -0.1081 -0.6540
vn 0.7071 -0.4384 -0.5548
vn -0.3730 0.6651 -0.6469
vn -0.9018 -0.3080 0.3030
vn -0.9188 -0.2441 0.3101
vn -0.8904 -0.1540 -0.4283
vn -0.8949 -0.1131 -0.4316
vn -0.1416 0.7475 0.6490
vn 0.0196 0.8911 -0.4534
vn -0.3083 0.3295 0.8924
vn 0.2000 0.8256 -0.5277
vn -0.3692 0.8635 0.3436
vn 0.7709 -0.0530 0.6347
vn 0.7766 0.0241 0.6295
vn 0.5837 0.8088 -0.0713
vn 0.6051 0.7926 -0.0756
vn 0.4313 -0.6540 0.6215
vn 0.4426 -0.6136 0.6539
vn -0.3536 -0.3276 0.8762
vn 0.3468 0.6286 0.6961
vn 0.1428 0.9778 0.1536
vn 0.4699 0.7939 -0.3859
vn 0.4677 0.7730 -0.4287
vn -0.0670 0.9219 -0.3815
vn -0.5797 0.8148 0.0105
vn -0.6202 0.7844 -0.0045
vn 0.1071 -0.5205 -0.8471
vn 0.1128 -0.5274 -0.8421
vn 0.5715 0.6498 -0.5011
vn 0.5778 0.6365 -0.5109
vn 0.8961 -0.1771 -0.4070
vn -0.7324 0.4891 -0.4737
vn -0.7149 0.5263 -0.4604
vn -0.5548 -0.6009 -0.5754
vn -0.6275 -0.2365 0.7418
vn -0.6066 -0.3137 0.7305
vn 0.1632 0.3437 0.9248
vn 0.2503 0.6551 0.7129
vn 0.1568 0.6656 0.7296
vn -0.3035 -0.9513 -0.0540
vn -0.3993 -0.1005 -0.9113
vn -0.4470 -0.1469 -0.8824
vn -0.4920 0.2647 -0.8294
vn 0.2663 0.9301 -0.2531
vn 0.2186 0.9217 -0.3205
vn 0.1703 0.9584 -0.2291
vn 0.9448 -0.1078 0.3094
vn 0.9971 0.0154 -0.0743
vn -0.1955 0.9206 -0.3381
vn -0.0471 0.8195 -0.5711
vn 0.0605 -0.2119 -0.9754
vn -0.2231 0.0452 0.9737
vn -0.6827 -0.4247 0.5946
vn -0.6546 -0.4534 0.6050
vn -0.1779 -0.2060 0.9622
vn -0.1750 -0.2507 0.9521
vn 0.8940 0.3300 -0.3032
vn -0.3887 0.4706 0.7922
vn -0.3874 0.4345 0.8131
vn 0.4801 0.6662 0.5707
vn 0.4991 0.6557 0.5665
vn -0.7220 0.6503 0.2363
vn -0.9920 -0.1231 0.0272
vn -0.9958 -0.0917 0.0026
vn 0.3095 -0.9509 -0.0090
vn 0.0665 -0.0768 0.9948
vn 0.0652 -0.0753 0.9950
vn 0.3661 -0.5457 -0.7538
vn -0.8825 -0.4682 -0.0442
vn -0.7365 -0.1895 -0.6494
vn -0.7381 -0.2046 -0.6429
vn 0.3808 -0.8926 -0.2413
vn 0.5353 0.3783 -0.7552
vn 0.7908 -0.5917 0.1568
vn -0.5287 -0.3205 -0.7860
vn -0.5412 -0.3648 -0.7576
vn -0.2707 -0.5797 0.7686
vn 0.2331 -0.9604 -0.1529
vn 0.2677 0.3663 0.8911
vn 0.3017 0.3435 0.8894
vn 0.3359 0.3697 0.8663
vn -0.3914 -0.9109 0.1308
vn -0.6311 -0.7652 0.1271
vn -0.6464 -0.7525 0.1261
vn 0.3816 -0.9002 0.2099
vn 0.4418 0.8683 -0.2256
vn 0.3931 0.8973 -0.2010
vn -0.7140 -0.6594 0.2355
vn -0.7324 0.1423 -0.6658
vn -0.7368 0.0715 -0.6723
vn 0.7375 0.6743 -0.0373
vn 0.9425 0.1437 0.3017
vn 0.9323 0.1647 0.3219
vn 0.5839 0.4967 0.6421
vn 0.2883 -0.5048 -0.8136
vn 0.2414 -0.4104 -0.8794
vn 0.2902 -0.4027 -0.8681
vn 0.0652 -0.0768 0.9949
vn 0.0666 -0.0754 0.9949
vn -0.3278 -0.2065 0.9219
vn -0.3275 -0.2068 0.9220
vn 0.3200 -0.0861 0.9435
vn 0.3190 -0.1905 0.9284
vn 0.3191 -0.1904 0.9284
vn 0.3237 -0.0815 0.9427
vn -0.5399 -0.1964 0.8185
vn -0.5425 -0.2005 0.8158
vn -0.5265 -0.3218 0.7869
vn -0.5242 -0.3243 0.7874
vn 0.4662 0.0647 0.8823
vn 0.4606 0.0657 0.8852
vn -0.0621 0.3419 0.9377
vn -0.1067 0.3592 0.9271
vn -0.1106 0.3594 0.9266
vn -0.1614 0.3636 0.9175
vn 0.6032 0.0091 0.7976
vn 0.5799 0.0090 0.8146
vn 0.6989 -0.0738 0.7114
vn 0.4996 0.0619 0.8640
vn 0.2929 0.3431 0.8925
vn 0.3200 0.3576 0.8774
vn 0.7020 -0.0722 0.7085
vn 0.3933 -0.6158 0.6827
vn 0.4481 -0.6189 0.6451
vn -0.8375 0.0668 0.5423
vn -0.8128 0.0477 0.5806
vn -0.1422 0.7485 0.6477
vn -0.1331 0.7460 0.6526
vn -0.9519 0.0619 0.3000
vn -0.9559 0.0561 0.2882
vn 0.9287 -0.2063 0.3082
vn 0.9285 -0.2031 0.3108
vn 0.9039 -0.0429 0.4257
vn 0.9026 -0.0407 0.4286
vn -0.5709 0.6739 0.4690
vn -0.5945 0.6608 0.4581
vn -0.9951 -0.0935 0.0321
vn -0.9956 -0.0942 0.0005
vn 0.7119 0.6017 0.3622
vn -0.8020 0.4703 0.3683
vn -0.8076 0.4795 0.3433
vn -0.6430 0.7553 0.1271
vn -0.1164 0.9231 0.3665
vn -0.1168 0.9231 0.3665
vn -0.9947 0.0171 -0.1013
vn -0.9933 0.0155 -0.1143
vn -0.8771 -0.4431 -0.1853
vn -0.8772 -0.4430 -0.1852
vn -0.7081 -0.6203 -0.3374
vn -0.7065 -0.6217 -0.3381
vn -0.5256 -0.8492 -0.0515
vn -0.5610 -0.8278 -0.0036
vn -0.5203 -0.8525 -0.0502
vn 0.9966 0.0717 0.0417
vn 0.9977 0.0670 0.0044
vn 0.7802 -0.5319 -0.3294
vn 0.7867 -0.5228 -0.3283
vn 0.7321 0.5912 0.3384
vn 0.7591 0.6477 0.0649
vn 0.7546 0.6518 0.0763
vn 0.3503 0.9114 0.2159
vn 0.3522 0.9067 0.2321
vn -0.6342 0.7646 0.1147
vn -0.9386 0.1670 -0.3018
vn -0.8579 0.4820 -0.1782
vn -0.9332 0.1752 -0.3139
vn -0.3840 -0.8193 -0.4258
vn -0.3750 -0.8243 -0.4242
vn -0.3222 -0.8752 -0.3609
vn -0.3211 -0.8804 -0.3491
vn -0.4431 -0.8934 -0.0748
vn -0.4483 -0.8910 -0.0717
vn -0.0434 -0.9661 0.2545
vn -0.0367 -0.9676 0.2498
vn 0.1601 -0.9716 0.1741
vn 0.1646 -0.9734 0.1594
vn 0.4779 -0.8504 -0.2203
vn 0.5992 -0.6182 -0.5087
vn 0.5966 -0.6081 -0.5238
vn 0.6823 0.6602 -0.3141
vn -0.5134 0.7349 -0.4432
vn -0.8570 0.4829 -0.1801
vn -0.5088 0.8262 -0.2419
vn -0.8424 0.3610 -0.4001
vn -0.8315 0.3544 -0.4279
vn -0.5913 -0.5163 -0.6195
vn -0.5716 -0.5159 -0.6381
vn 0.4729 -0.8514 -0.2270
vn 0.8310 0.3464 -0.4351
vn 0.8555 0.3532 -0.3786
vn 0.8276 0.1865 -0.5294
vn 0.6814 0.6549 -0.3269
vn -0.0873 0.9779 -0.1901
vn -0.0794 0.9796 -0.1845
vn -0.5105 0.7360 -0.4446
vn -0.4942 0.8260 -0.2710
vn -0.5481 -0.1967 -0.8129
vn -0.5427 -0.2000 -0.8158
vn -0.5292 -0.3222 -0.7849
vn 0.7530 0.0362 -0.6570
vn 0.8126 0.1944 -0.5495
vn 0.7409 0.0498 -0.6697
vn 0.1062 -0.5221 -0.8463
vn 0.1217 -0.5199 -0.8455
vn 0.3111 -0.3363 -0.8889
vn -0.5124 0.0672 -0.8561
vn -0.5419 0.3523 -0.7631
vn -0.5179 0.3435 -0.7834
vn -0.5272 -0.3210 -0.7868
vn 0.7334 0.1532 -0.6623
vn 0.5354 0.0687 -0.8418
vn 0.7292 0.1646 -0.6642
vn 0.3041 -0.3285 -0.8942
vn 0.5571 0.3761 -0.7404
vn 0.5325 0.3811 -0.7558
vn 0.3107 0.4592 -0.8322
vn 0.2941 0.4599 -0.8378
vn -0.3587 0.2484 -0.8998
vn -0.3441 0.2486 -0.9054
vn -0.4587 0.0666 -0.8861
vn 0.4921 0.0680 -0.8679
vn 0.1334 0.0116 -0.9910
vn 0.1704 0.0070 -0.9854
s 0
f 35//1 72//1 36//1
f 7//2 11//2 14//2
f 277//3 263//3 218//3
f 155//4 171//4 187//4
f 327//5 328//5 282//5
f 147//6 192//6 193//6
f 142//7 153//7 154//7
f 289//8 262//8 217//8
f 197//9 196//9 230//9
f 317//10 282//10 255//10
f 63//11 52//11 88//11
f 283//12 328//12 319//12
f 348//13 335//13 362//13
f 346//14 322//14 288//14
f 255//15 176//15 225//15
f 137//16 136//16 176//16
f 255//17 270//17 212//17
f 111//18 112//18 80//18
f 259//19 198//19 215//19
f 390//20 376//20 366//20
f 319//21 274//21 285//21
f 10//22 23//22 22//22
f 351//23 383//23 384//23
f 162//24 190//24 210//24
f 174//25 162//25 119//25
f 214//26 258//26 230//26
f 87//27 51//27 43//27
f 337//28 293//28 309//28
f 404//29 408//29 409//29
f 398//30 415//30 405//30
f 205//31 170//31 204//31
f 136//32 147//32 193//32
f 271//33 286//33 298//33
f 180//34 228//34 229//34
f 246//35 291//35 290//35
f 140//36 124//36 165//36
f 234//37 206//37 187//37
f 9//38 21//38 20//38
f 409//39 408//39 418//39
f 209//40 251//40 239//40
f 37//41 19//41 36//41
f 297//42 330//42 329//42
f 78//43 56//43 47//43
f 369//44 327//44 353//44
f 323//45 364//45 350//45
f 224//46 250//46 315//46
f 338//47 325//47 312//47
f 105//48 89//48 118//48
f 110//49 95//49 78//49
f 228//50 180//50 241//50
f 62//51 86//51 87//51
f 213//52 194//52 226//52
f 241//53 179//53 227//53
f 132//54 158//54 160//54
f 397//55 360//55 375//55
f 371//56 342//56 329//56
f 405//57 388//57 398//57
f 279//58 246//58 232//58
f 149//59 122//59 148//59
f 222//60 266//60 253//60
f 186//61 244//61 232//61
f 175//62 161//62 209//62
f 231//63 256//63 275//63
f 98//64 84//64 58//64
f 355//65 371//65 329//65
f 233//66 205//66 204//66
f 261//67 322//67 320//67
f 166//68 182//68 215//68
f 118//69 173//69 133//69
f 66//70 105//70 108//70
f 24//71 30//71 44//71
f 3//72 9//72 12//72
f 331//73 287//73 301//73
f 34//74 13//74 17//74
f 40//75 27//75 26//75
f 28//76 42//76 49//76
f 176//77 138//77 137//77
f 239//78 251//78 252//78
f 377//79 339//79 367//79
f 71//80 50//80 33//80
f 297//81 242//81 298//81
f 138//82 211//82 177//82
f 49//83 42//83 83//83
f 80//84 97//84 69//84
f 354//85 327//85 370//85
f 94//86 78//86 55//86
f 316//87 353//87 327//87
f 115//88 81//88 82//88
f 56//89 78//89 95//89
f 391//90 400//90 416//90
f 83//91 59//91 128//91
f 288//92 259//92 287//92
f 408//93 403//93 402//93
f 193//94 254//94 240//94
f 72//95 88//95 74//95
f 213//96 214//96 181//96
f 138//97 112//97 137//97
f 91//98 144//98 89//98
f 103//99 130//99 131//99
f 394//100 373//100 356//100
f 123//101 68//101 81//101
f 235//102 280//102 236//102
f 160//103 209//103 161//103
f 414//104 420//104 411//104
f 116//105 101//105 50//105
f 278//106 263//106 305//106
f 372//107 370//107 369//107
f 398//108 362//108 397//108
f 279//109 308//109 246//109
f 260//110 183//110 198//110
f 61//111 85//111 100//111
f 53//112 36//112 72//112
f 218//113 202//113 277//113
f 75//114 67//114 121//114
f 256//115 200//115 229//115
f 363//116 377//116 382//116
f 58//117 32//117 22//117
f 202//118 185//118 154//118
f 53//119 72//119 74//119
f 49//120 20//120 28//120
f 2//121 5//121 1//121
f 122//122 113//122 177//122
f 129//123 85//123 123//123
f 291//124 292//124 280//124
f 149//125 150//125 97//125
f 104//126 155//126 143//126
f 400//127 399//127 406//127
f 386//128 380//128 392//128
f 417//129 407//129 401//129
f 234//130 247//130 235//130
f 271//131 241//131 227//131
f 302//132 320//132 333//132
f 171//133 131//133 130//133
f 337//134 341//134 315//134
f 178//135 194//135 213//135
f 22//136 28//136 21//136
f 147//137 109//137 121//137
f 281//138 224//138 315//138
f 130//139 203//139 186//139
f 218//140 263//140 278//140
f 17//141 43//141 34//141
f 48//142 40//142 79//142
f 212//143 270//143 283//143
f 92//144 76//144 75//144
f 348//145 364//145 334//145
f 161//146 106//146 134//146
f 62//147 102//147 86//147
f 339//148 363//148 309//148
f 305//149 263//149 304//149
f 80//150 96//150 97//150
f 212//151 226//151 177//151
f 231//152 182//152 200//152
f 96//153 113//153 122//153
f 93//154 109//154 136//154
f 296//155 314//155 340//155
f 345//156 358//156 321//156
f 5//157 4//157 18//157
f 289//158 276//158 302//158
f 234//159 233//159 247//159
f 40//160 26//160 25//160
f 140//161 180//161 115//161
f 65//162 45//162 37//162
f 126//163 167//163 99//163
f 340//164 326//164 383//164
f 54//165 38//165 46//165
f 165//166 181//166 196//166
f 82//167 81//167 48//167
f 344//168 356//168 345//168
f 254//169 267//169 240//169
f 116//170 71//170 125//170
f 195//171 200//171 129//171
f 265//172 248//172 264//172
f 332//173 287//173 331//173
f 339//174 309//174 313//174
f 175//175 239//175 222//175
f 172//176 157//176 143//176
f 130//177 154//177 185//177
f 343//178 330//178 319//178
f 319//179 354//179 343//179
f 344//180 321//180 288//180
f 284//181 329//181 342//181
f 140//182 165//182 197//182
f 256//183 300//183 299//183
f 333//184 357//184 374//184
f 148//185 177//185 194//185
f 397//186 362//186 361//186
f 415//187 398//187 411//187
f 394//188 381//188 403//188
f 401//189 382//189 416//189
f 141//190 182//190 166//190
f 139//191 180//191 195//191
f 366//192 338//192 324//192
f 303//193 302//193 333//193
f 201//194 169//194 217//194
f 301//195 287//195 275//195
f 169//196 168//196 184//196
f 419//197 410//197 409//197
f 235//198 236//198 220//198
f 306//199 335//199 279//199
f 125//200 153//200 101//200
f 171//201 205//201 187//201
f 402//202 392//202 385//202
f 351//203 368//203 352//203
f 214//204 230//204 196//204
f 261//205 260//205 288//205
f 363//206 339//206 377//206
f 104//207 88//207 52//207
f 398//208 388//208 362//208
f 396//209 411//209 397//209
f 318//210 284//210 342//210
f 258//211 274//211 286//211
f 228//212 272//212 229//212
f 163//213 135//213 105//213
f 129//214 141//214 100//214
f 140//215 82//215 124//215
f 38//216 47//216 15//216
f 39//217 56//217 80//217
f 299//218 275//218 256//218
f 349//219 335//219 306//219
f 218//220 203//220 185//220
f 170//221 171//221 186//221
f 34//222 35//222 13//222
f 156//223 187//223 206//223
f 284//224 318//224 272//224
f 103//225 131//225 86//225
f 247//226 291//226 235//226
f 311//227 310//227 323//227
f 265//228 238//228 248//228
f 324//229 295//229 350//229
f 398//230 397//230 411//230
f 217//231 262//231 277//231
f 186//232 203//232 218//232
f 135//233 146//233 108//233
f 264//234 280//234 310//234
f 207//235 238//235 221//235
f 251//236 221//236 294//236
f 254//237 191//237 224//237
f 99//238 167//238 168//238
f 188//239 207//239 158//239
f 124//240 150//240 151//240
f 126//241 166//241 152//241
f 225//242 176//242 136//242
f 177//243 211//243 212//243
f 87//244 104//244 73//244
f 347//245 375//245 360//245
f 76//246 54//246 46//246
f 339//247 325//247 367//247
f 355//248 372//248 393//248
f 417//249 419//249 418//249
f 77//250 92//250 121//250
f 195//251 123//251 139//251
f 2//252 3//252 4//252
f 391//253 376//253 399//253
f 285//254 258//254 257//254
f 89//255 105//255 64//255
f 143//256 155//256 156//256
f 113//257 96//257 112//257
f 188//258 206//258 219//258
f 324//259 338//259 312//259
f 275//260 287//260 259//260
f 417//261 416//261 412//261
f 395//262 357//262 358//262
f 395//263 374//263 357//263
f 188//264 156//264 206//264
f 261//265 320//265 276//265
f 320//266 302//266 276//266
f 276//267 243//267 261//267
f 63//268 72//268 35//268
f 282//269 317//269 327//269
f 283//270 270//270 328//270
f 270//271 282//271 328//271
f 147//272 164//272 192//272
f 217//273 216//273 289//273
f 216//274 276//274 289//274
f 230//275 227//275 197//275
f 282//276 270//276 255//276
f 255//277 269//277 317//277
f 269//278 316//278 317//278
f 260//279 261//279 243//279
f 74//280 106//280 90//280
f 345//281 373//281 358//281
f 373//282 387//282 358//282
f 395//283 358//283 387//283
f 376//284 338//284 366//284
f 319//285 285//285 283//285
f 393//286 380//286 386//286
f 335//287 349//287 362//287
f 288//288 321//288 346//288
f 211//289 176//289 255//289
f 158//290 132//290 157//290
f 157//291 172//291 158//291
f 191//292 189//292 250//292
f 189//293 208//293 250//293
f 47//294 25//294 15//294
f 96//295 80//295 112//295
f 80//296 56//296 111//296
f 56//297 95//297 111//297
f 215//298 231//298 275//298
f 275//299 259//299 215//299
f 52//300 35//300 51//300
f 35//301 34//301 51//301
f 267//302 254//302 296//302
f 254//303 281//303 314//303
f 314//304 296//304 254//304
f 22//305 21//305 9//305
f 9//306 10//306 22//306
f 379//307 368//307 384//307
f 384//308 368//308 351//308
f 237//309 173//309 210//309
f 173//310 162//310 210//310
f 225//311 269//311 255//311
f 362//312 388//312 364//312
f 388//313 389//313 364//313
f 162//314 120//314 119//314
f 34//315 43//315 51//315
f 87//316 73//316 51//316
f 309//317 363//317 337//317
f 246//318 247//318 233//318
f 233//319 204//319 246//319
f 204//320 232//320 246//320
f 8//321 7//321 15//321
f 28//322 22//322 32//322
f 32//323 42//323 28//323
f 104//324 87//324 131//324
f 131//325 87//325 86//325
f 193//326 225//326 136//326
f 241//327 271//327 298//327
f 375//328 396//328 397//328
f 240//329 225//329 193//329
f 213//330 257//330 214//330
f 229//331 195//331 180//331
f 23//332 27//332 29//332
f 57//333 29//333 27//333
f 246//334 308//334 291//334
f 343//335 354//335 370//335
f 343//336 370//336 372//336
f 372//337 330//337 343//337
f 187//338 205//338 233//338
f 233//339 234//339 187//339
f 20//340 12//340 9//340
f 175//341 209//341 239//341
f 372//342 355//342 330//342
f 355//343 329//343 330//343
f 47//344 38//344 54//344
f 54//345 55//345 47//345
f 55//346 78//346 47//346
f 204//347 170//347 232//347
f 186//348 232//348 170//348
f 333//349 374//349 359//349
f 359//350 347//350 305//350
f 305//351 333//351 359//351
f 266//352 312//352 253//352
f 312//353 325//353 253//353
f 325//354 313//354 253//354
f 402//355 386//355 392//355
f 91//356 89//356 64//356
f 254//357 224//357 281//357
f 39//358 25//358 56//358
f 56//359 25//359 47//359
f 250//360 293//360 315//360
f 15//361 7//361 14//361
f 393//362 403//362 371//362
f 371//363 403//363 381//363
f 341//364 382//364 378//364
f 378//365 326//365 341//365
f 417//366 418//366 407//366
f 418//367 413//367 407//367
f 110//368 111//368 95//368
f 61//369 60//369 29//369
f 241//370 242//370 228//370
f 180//371 179//371 241//371
f 88//372 72//372 63//372
f 87//373 43//373 62//373
f 45//374 64//374 30//374
f 44//375 30//375 64//375
f 408//376 402//376 413//376
f 418//377 408//377 413//377
f 216//378 167//378 199//378
f 257//379 213//379 226//379
f 117//380 88//380 104//380
f 104//381 143//381 117//381
f 160//382 161//382 132//382
f 134//383 106//383 132//383
f 161//384 134//384 132//384
f 145//385 107//385 90//385
f 397//386 361//386 360//386
f 11//387 6//387 24//387
f 18//388 19//388 6//388
f 5//389 18//389 6//389
f 84//390 98//390 127//390
f 98//391 141//391 127//391
f 127//392 126//392 84//392
f 387//393 410//393 395//393
f 405//394 389//394 388//394
f 168//395 216//395 217//395
f 217//396 184//396 168//396
f 26//397 16//397 25//397
f 8//398 25//398 16//398
f 232//399 245//399 279//399
f 245//400 306//400 279//400
f 148//401 178//401 149//401
f 222//402 253//402 190//402
f 403//403 393//403 386//403
f 128//404 169//404 125//404
f 145//405 161//405 175//405
f 41//406 58//406 84//406
f 58//407 70//407 98//407
f 27//408 48//408 57//408
f 52//409 63//409 35//409
f 261//410 288//410 322//410
f 182//411 231//411 215//411
f 215//412 198//412 166//412
f 118//413 144//413 173//413
f 67//414 66//414 108//414
f 410//415 420//415 414//415
f 4//416 3//416 12//416
f 337//417 363//417 382//417
f 341//418 337//418 382//418
f 419//419 417//419 415//419
f 301//420 318//420 342//420
f 342//421 331//421 301//421
f 93//422 137//422 110//422
f 110//423 78//423 93//423
f 78//424 94//424 93//424
f 94//425 77//425 93//425
f 27//426 16//426 26//426
f 73//427 52//427 51//427
f 338//428 376//428 367//428
f 376//429 391//429 367//429
f 367//430 391//430 377//430
f 341//431 326//431 281//431
f 326//432 314//432 281//432
f 281//433 315//433 341//433
f 33//434 49//434 71//434
f 356//435 331//435 381//435
f 331//436 342//436 371//436
f 381//437 331//437 371//437
f 297//438 284//438 242//438
f 284//439 272//439 242//439
f 242//440 241//440 298//440
f 138//441 176//441 211//441
f 83//442 71//442 49//442
f 97//443 114//443 69//443
f 69//444 79//444 80//444
f 79//445 39//445 80//445
f 249//446 309//446 293//446
f 354//447 328//447 327//447
f 327//448 369//448 370//448
f 81//449 68//449 57//449
f 327//450 317//450 316//450
f 311//451 294//451 310//451
f 227//452 230//452 271//452
f 419//453 415//453 420//453
f 295//454 252//454 311//454
f 252//455 251//455 311//455
f 382//456 377//456 416//456
f 377//457 391//457 416//457
f 406//458 390//458 405//458
f 405//459 412//459 406//459
f 59//460 99//460 128//460
f 128//461 125//461 83//461
f 288//462 260//462 259//462
f 403//463 386//463 402//463
f 84//464 126//464 99//464
f 193//465 192//465 254//465
f 59//466 83//466 42//466
f 113//467 112//467 138//467
f 112//468 111//468 137//468
f 91//469 120//469 144//469
f 244//470 245//470 232//470
f 57//471 48//471 81//471
f 394//472 404//472 373//472
f 373//473 345//473 356//473
f 356//474 381//474 394//474
f 408//475 404//475 394//475
f 403//476 408//476 394//476
f 396//477 375//477 359//477
f 375//478 347//478 359//478
f 359//479 374//479 396//479
f 237//480 249//480 173//480
f 249//481 208//481 173//481
f 235//482 291//482 280//482
f 160//483 221//483 209//483
f 85//484 61//484 68//484
f 307//485 360//485 361//485
f 361//486 349//486 307//486
f 349//487 306//487 307//487
f 266//488 252//488 295//488
f 266//489 295//489 324//489
f 312//490 266//490 324//490
f 101//491 102//491 62//491
f 62//492 50//492 101//492
f 50//493 71//493 116//493
f 195//494 229//494 200//494
f 108//495 105//495 135//495
f 369//496 380//496 372//496
f 380//497 393//497 372//497
f 259//498 260//498 198//498
f 98//499 70//499 100//499
f 70//500 61//500 100//500
f 191//501 250//501 224//501
f 25//502 8//502 15//502
f 319//503 298//503 274//503
f 53//504 37//504 36//504
f 218//505 185//505 202//505
f 199//506 276//506 216//506
f 226//507 212//507 283//507
f 283//508 273//508 226//508
f 108//509 121//509 67//509
f 121//510 92//510 75//510
f 231//511 200//511 256//511
f 60//512 22//512 29//512
f 60//513 58//513 22//513
f 154//514 201//514 202//514
f 44//515 66//515 31//515
f 66//516 46//516 31//516
f 14//517 11//517 31//517
f 11//518 24//518 31//518
f 33//519 20//519 49//519
f 20//520 21//520 28//520
f 2//521 4//521 5//521
f 376//522 390//522 399//522
f 390//523 406//523 399//523
f 384//524 383//524 401//524
f 383//525 378//525 401//525
f 113//526 138//526 177//526
f 129//527 100//527 85//527
f 85//528 68//528 123//528
f 255//529 212//529 211//529
f 124//530 114//530 150//530
f 114//531 97//531 150//531
f 97//532 122//532 149//532
f 272//533 300//533 229//533
f 256//534 229//534 300//534
f 136//535 109//535 147//535
f 104//536 131//536 155//536
f 313//537 309//537 253//537
f 412//538 416//538 400//538
f 406//539 412//539 400//539
f 222//540 239//540 266//540
f 239//541 252//541 266//541
f 380//542 369//542 392//542
f 145//543 90//543 106//543
f 132//544 106//544 88//544
f 106//545 74//545 88//545
f 401//546 416//546 417//546
f 145//547 119//547 107//547
f 235//548 219//548 234//548
f 219//549 206//549 234//549
f 392//550 369//550 353//550
f 65//551 64//551 45//551
f 171//552 155//552 131//552
f 35//553 18//553 13//553
f 164//554 147//554 121//554
f 121//555 146//555 164//555
f 213//556 181//556 178//556
f 297//557 298//557 330//557
f 298//558 319//558 330//558
f 69//559 48//559 79//559
f 190//560 162//560 174//560
f 174//561 223//561 190//561
f 223//562 222//562 190//562
f 395//563 396//563 374//563
f 168//564 167//564 216//564
f 335//565 348//565 334//565
f 144//566 162//566 173//566
f 48//567 27//567 40//567
f 32//568 58//568 41//568
f 41//569 42//569 32//569
f 92//570 77//570 76//570
f 144//571 120//571 162//571
f 161//572 145//572 106//572
f 102//573 103//573 86//573
f 333//574 305//574 304//574
f 174//575 119//575 175//575
f 96//576 122//576 97//576
f 154//577 130//577 103//577
f 103//578 142//578 154//578
f 194//579 177//579 226//579
f 133//580 173//580 159//580
f 183//581 152//581 198//581
f 152//582 166//582 198//582
f 227//583 179//583 197//583
f 136//584 137//584 93//584
f 156//585 188//585 172//585
f 188//586 158//586 172//586
f 340//587 352//587 296//587
f 84//588 99//588 59//588
f 91//589 64//589 65//589
f 65//590 107//590 91//590
f 336//591 292//591 308//591
f 292//592 291//592 308//592
f 4//593 13//593 18//593
f 308//594 279//594 334//594
f 183//595 260//595 243//595
f 243//596 199//596 183//596
f 314//597 326//597 340//597
f 90//598 53//598 74//598
f 302//599 303//599 289//599
f 303//600 262//600 289//600
f 280//601 248//601 236//601
f 22//602 23//602 29//602
f 84//603 59//603 41//603
f 59//604 42//604 41//604
f 40//605 39//605 79//605
f 179//606 180//606 140//606
f 180//607 139//607 115//607
f 30//608 37//608 45//608
f 37//609 53//609 65//609
f 352//610 353//610 316//610
f 126//611 152//611 167//611
f 119//612 120//612 91//612
f 91//613 107//613 119//613
f 326//614 378//614 383//614
f 383//615 351//615 340//615
f 257//616 226//616 273//616
f 385//617 392//617 379//617
f 353//618 379//618 392//618
f 146//619 163//619 164//619
f 189//620 163//620 159//620
f 189//621 164//621 163//621
f 165//622 151//622 181//622
f 321//623 344//623 345//623
f 344//624 332//624 356//624
f 214//625 196//625 181//625
f 305//626 347//626 307//626
f 83//627 125//627 71//627
f 191//628 192//628 164//628
f 37//629 30//629 19//629
f 294//630 265//630 264//630
f 352//631 316//631 296//631
f 313//632 325//632 339//632
f 197//633 165//633 196//633
f 222//634 223//634 175//634
f 223//635 174//635 175//635
f 117//636 143//636 157//636
f 172//637 143//637 156//637
f 185//638 203//638 130//638
f 315//639 293//639 337//639
f 190//640 253//640 210//640
f 253//641 249//641 237//641
f 210//642 253//642 237//642
f 76//643 77//643 54//643
f 77//644 94//644 55//644
f 54//645 77//645 55//645
f 320//646 322//646 346//646
f 346//647 357//647 320//647
f 332//648 344//648 288//648
f 287//649 332//649 288//649
f 284//650 297//650 329//650
f 364//651 389//651 365//651
f 389//652 366//652 365//652
f 365//653 350//653 364//653
f 249//654 253//654 309//654
f 387//655 404//655 409//655
f 409//656 410//656 387//656
f 148//657 122//657 177//657
f 362//658 349//658 361//658
f 420//659 415//659 411//659
f 159//660 173//660 208//660
f 208//661 189//661 159//661
f 378//662 382//662 401//662
f 249//663 293//663 208//663
f 293//664 250//664 208//664
f 20//665 33//665 12//665
f 33//666 17//666 12//666
f 207//667 160//667 158//667
f 333//668 304//668 303//668
f 154//669 153//669 201//669
f 153//670 169//670 201//670
f 217//671 202//671 201//671
f 169//672 184//672 217//672
f 275//673 299//673 301//673
f 299//674 318//674 301//674
f 169//675 128//675 168//675
f 7//676 1//676 11//676
f 6//677 1//677 5//677
f 6//678 11//678 1//678
f 420//679 410//679 419//679
f 179//680 140//680 197//680
f 207//681 188//681 220//681
f 188//682 219//682 220//682
f 219//683 235//683 220//683
f 335//684 334//684 279//684
f 384//685 401//685 407//685
f 407//686 385//686 384//686
f 385//687 379//687 384//687
f 153//688 102//688 101//688
f 101//689 116//689 125//689
f 171//690 170//690 205//690
f 141//691 129//691 182//691
f 129//692 200//692 182//692
f 415//693 417//693 412//693
f 214//694 257//694 258//694
f 413//695 402//695 385//695
f 340//696 351//696 352//696
f 368//697 379//697 352//697
f 35//698 36//698 18//698
f 36//699 19//699 18//699
f 357//700 333//700 320//700
f 307//701 347//701 360//701
f 151//702 150//702 178//702
f 150//703 149//703 178//703
f 24//704 44//704 31//704
f 238//705 207//705 248//705
f 207//706 220//706 248//706
f 220//707 236//707 248//707
f 334//708 336//708 308//708
f 332//709 331//709 356//709
f 396//710 414//710 411//710
f 191//711 164//711 189//711
f 12//712 17//712 13//712
f 13//713 4//713 12//713
f 286//714 271//714 258//714
f 271//715 230//715 258//715
f 16//716 10//716 8//716
f 10//717 9//717 3//717
f 10//718 3//718 2//718
f 2//719 8//719 10//719
f 50//720 62//720 43//720
f 43//721 17//721 50//721
f 17//722 33//722 50//722
f 118//723 133//723 105//723
f 133//724 159//724 105//724
f 159//725 163//725 105//725
f 115//726 82//726 140//726
f 81//727 115//727 139//727
f 139//728 123//728 81//728
f 15//729 14//729 38//729
f 272//730 228//730 242//730
f 390//731 366//731 389//731
f 389//732 405//732 390//732
f 399//733 400//733 391//733
f 30//734 24//734 6//734
f 6//735 19//735 30//735
f 246//736 290//736 247//736
f 328//737 354//737 319//737
f 148//738 194//738 178//738
f 276//739 199//739 243//739
f 66//740 67//740 46//740
f 353//741 352//741 379//741
f 145//742 175//742 119//742
f 27//743 23//743 16//743
f 23//744 10//744 16//744
f 46//745 38//745 14//745
f 31//746 46//746 14//746
f 130//747 186//747 171//747
f 221//748 265//748 294//748
f 153//749 125//749 169//749
f 311//750 251//750 294//750
f 156//751 155//751 187//751
f 358//752 346//752 321//752
f 358//753 357//753 346//753
f 323//754 336//754 334//754
f 334//755 364//755 323//755
f 318//756 299//756 300//756
f 300//757 272//757 318//757
f 98//758 100//758 141//758
f 278//759 245//759 218//759
f 247//760 290//760 291//760
f 323//761 350//761 311//761
f 350//762 295//762 311//762
f 265//763 221//763 238//763
f 117//764 157//764 132//764
f 132//765 88//765 117//765
f 269//766 225//766 268//766
f 225//767 240//767 268//767
f 350//768 365//768 324//768
f 365//769 366//769 324//769
f 385//770 407//770 413//770
f 65//771 53//771 107//771
f 53//772 90//772 107//772
f 111//773 110//773 137//773
f 58//774 60//774 70//774
f 60//775 61//775 70//775
f 277//776 202//776 217//776
f 245//777 244//777 218//777
f 244//778 186//778 218//778
f 151//779 178//779 181//779
f 163//780 146//780 135//780
f 146//781 121//781 108//781
f 144//782 118//782 89//782
f 292//783 310//783 280//783
f 310//784 294//784 264//784
f 264//785 248//785 280//785
f 373//786 404//786 387//786
f 419//787 409//787 418//787
f 160//788 207//788 221//788
f 251//789 209//789 221//789
f 254//790 192//790 191//790
f 168//791 128//791 99//791
f 29//792 57//792 61//792
f 57//793 68//793 61//793
f 126//794 127//794 166//794
f 127//795 141//795 166//795
f 412//796 405//796 415//796
f 103//797 102//797 142//797
f 102//798 153//798 142//798
f 245//799 278//799 306//799
f 306//800 278//800 307//800
f 52//801 73//801 104//801
f 1//802 7//802 2//802
f 7//803 8//803 2//803
f 258//804 285//804 274//804
f 167//805 152//805 199//805
f 199//806 152//806 183//806
f 316//807 269//807 296//807
f 25//808 39//808 40//808
f 46//809 67//809 75//809
f 76//810 46//810 75//810
f 273//811 283//811 285//811
f 338//812 367//812 325//812
f 393//813 371//813 355//813
f 121//814 109//814 77//814
f 109//815 93//815 77//815
f 195//816 129//816 123//816
f 257//817 273//817 285//817
f 262//818 303//818 304//818
f 277//819 262//819 304//819
f 304//820 263//820 277//820
f 165//821 124//821 151//821
f 124//822 82//822 114//822
f 82//823 69//823 114//823
f 286//824 274//824 298//824
f 336//825 323//825 310//825
f 310//826 292//826 336//826
f 69//827 82//827 48//827
f 44//828 64//828 105//828
f 105//829 66//829 44//829
f 348//830 362//830 364//830
f 410//831 414//831 395//831
f 396//832 395//832 414//832
f 305//833 307//833 278//833
f 269//834 268//834 296//834
f 268//835 240//835 267//835
f 267//836 296//836 268//836
f 152//837 183//837 167//837
f 183//838 199//838 167//838
f 84//839 98//839 126//839
f 98//840 127//840 126//840
f 260//841 199//841 183//841
f 198//842 259//842 183//842
f 259//843 260//843 183//843
f 260//844 243//844 199//844
f 41//845 98//845 84//845
f 41//846 58//846 98//846
f 70//847 61//847 98//847
f 61//848 100//848 98//848
f 261//849 302//849 243//849
f 302//850 276//850 243//850
f 201//851 184//851 217//851
f 201//852 154//852 184//852
f 154//853 169//853 184//853
f 154//854 153//854 169//854
f 322//855 320//855 288//855
f 320//856 261//856 288//856
f 321//857 322//857 288//857
f 320//858 302//858 261//858
f 303//859 277//859 262//859
f 304//860 277//860 303//860
f 321//861 346//861 322//861
f 300//862 272//862 299//862
f 272//863 318//863 299//863
f 20//864 21//864 49//864
f 21//865 28//865 49//865
f 186//866 170//866 130//866
f 170//867 171//867 130//867
f 12//868 4//868 9//868
f 4//869 3//869 9//869
f 394//870 404//870 356//870
f 404//871 373//871 356//871
f 373//872 387//872 345//872
f 387//873 358//873 345//873
f 104//874 86//874 131//874
f 104//875 87//875 86//875
f 2//876 1//876 8//876
f 1//877 7//877 8//877
f 360//878 349//878 307//878
f 87//879 34//879 43//879
f 51//880 34//880 87//880
f 143//881 88//881 104//881
f 233//882 234//882 205//882
f 234//883 187//883 205//883
f 6//884 7//884 1//884
f 6//885 11//885 7//885
f 47//886 39//886 25//886
f 47//887 56//887 39//887
f 56//888 95//888 80//888
f 95//889 111//889 80//889
f 149//890 124//890 97//890
f 124//891 114//891 97//891
f 149//892 150//892 124//892
f 409//893 420//893 410//893
f 419//894 420//894 409//894
f 369//895 353//895 380//895
f 353//896 392//896 380//896
f 361//897 349//897 360//897
f 362//898 348//898 349//898
f 348//899 335//899 349//899
f 291//900 290//900 308//900
f 290//901 246//901 308//901
f 117//902 88//902 143//902
f 19//903 24//903 6//903
f 72//904 37//904 36//904
f 30//905 24//905 19//905
f 113//906 138//906 122//906
f 138//907 177//907 122//907
f 177//908 194//908 122//908
f 194//909 148//909 122//909
f 178//910 151//910 149//910
f 151//911 150//911 149//911
f 196//912 227//912 197//912
f 196//913 230//913 227//913
f 230//914 286//914 271//914
f 230//915 258//915 286//915
f 285//916 328//916 319//916
f 327//917 317//917 353//917
f 317//918 316//918 353//918
f 389//919 350//919 364//919
f 134//920 145//920 106//920
f 53//921 37//921 72//921
f 160//922 134//922 132//922
f 65//923 30//923 37//923
f 65//924 45//924 30//924
f 94//925 110//925 78//925
f 94//926 93//926 110//926
f 283//927 328//927 285//927
f 406//928 390//928 412//928
f 390//929 405//929 412//929
f 416//930 406//930 412//930
f 365//931 350//931 389//931
f 220//932 238//932 207//932
f 248//933 238//933 220//933
f 134//934 161//934 145//934
f 160//935 161//935 134//935
f 108//936 75//936 67//936
f 108//937 121//937 75//937
f 92//938 109//938 77//938
f 378//939 416//939 401//939
f 382//456 400//456 416//456
f 400//940 406//940 416//940
f 378//941 382//941 416//941
f 225//942 240//942 269//942
f 240//943 268//943 269//943
f 267//944 314//944 296//944
f 133//945 163//945 105//945
f 120//946 89//946 91//946
f 120//947 144//947 89//947
f 109//948 92//948 121//948
f 377//949 400//949 382//949
f 341//950 363//950 382//950
f 377//951 391//951 400//951
f 254//952 314//952 267//952
f 367//953 339//953 338//953
f 339//954 325//954 338//954
f 325//955 313//955 312//955
f 313//956 253//956 312//956
f 144//957 133//957 118//957
f 144//958 173//958 133//958
f 159//959 163//959 133//959
f 337//960 363//960 341//960
f 250//961 293//961 224//961
f 293//962 315//962 224//962
