# Blender 4.0.0
# www.blender.org
o decimated_mesh
v -0.403154 1.353575 -0.173375
v -0.423731 1.353610 -0.174413
v -0.403528 1.352438 0.297752
v -0.432361 1.365205 -0.162149
v -0.423644 1.353486 0.299703
v -0.408416 1.364998 -0.178159
v -0.374592 1.385373 -0.155954
v -0.432395 1.365280 0.287525
v -0.405363 1.430174 -0.176915
v -0.374579 1.385303 0.284488
v -0.408416 1.364998 0.303579
v -0.374568 1.398279 0.290291
v -0.432164 1.431361 -0.162001
v -0.407282 1.442128 0.297355
v -0.408416 1.414929 0.304525
v -0.423310 1.442102 -0.173279
v -0.432124 1.431393 0.287485
v -0.410622 1.442719 -0.172683
v -0.400349 1.439513 -0.161986
v -0.374577 1.410503 0.283567
v -0.423821 1.441616 0.298566
v -0.374244 1.406897 -0.157987
vn -0.0520 -0.9986 -0.0003
vn 0.0462 -0.3677 -0.9288
vn 0.5138 -0.1884 0.8370
vn -0.8031 -0.5958 -0.0000
vn -0.7717 0.6360 -0.0002
vn 0.7810 0.6245 -0.0045
vn 0.6616 -0.3066 0.6843
vn 0.0680 -0.3980 0.9149
vn -0.0487 0.9988 0.0016
vn 0.6413 0.3702 0.6721
vn 0.3803 -0.0175 0.9247
vn -0.0282 -0.3301 0.9435
vn 0.7018 0.4737 -0.5321
vn 0.6899 0.4865 -0.5361
vn -1.0000 0.0030 -0.0001
vn -0.2589 0.0306 -0.9654
vn -0.2336 -0.0184 0.9722
vn 0.2987 0.9543 -0.0009
vn 0.7504 -0.6610 -0.0001
vn -0.0016 -1.0000 -0.0024
vn -0.7918 0.0116 -0.6106
vn -0.8161 0.0037 -0.5778
vn -0.8022 -0.5971 -0.0000
vn -0.7762 0.6304 -0.0000
vn 0.6965 0.7175 0.0064
vn -0.0309 0.9995 0.0010
vn 0.4642 0.2076 0.8610
vn -0.8029 0.0061 0.5961
vn -0.8104 0.0037 0.5859
vn -0.5056 0.0253 0.8624
vn -0.6532 0.0161 0.7570
vn -1.0000 0.0041 0.0001
vn -0.9999 0.0161 -0.0009
vn -1.0000 0.0001 0.0016
vn -1.0000 0.0001 -0.0000
vn -0.1900 0.0135 -0.9817
vn -0.3435 0.0114 0.9391
vn 0.7442 -0.6679 -0.0010
vn 0.0629 0.2519 0.9657
vn 0.5865 -0.0855 -0.8054
vn -0.9999 0.0161 -0.0000
vn -1.0000 0.0012 -0.0007
vn -1.0000 -0.0011 -0.0007
vn -0.2471 0.0136 -0.9689
vn -0.5747 0.0765 0.8148
vn -0.5154 0.0078 0.8569
vn 0.6884 0.4739 -0.5491
vn 0.6964 0.4935 -0.5210
vn -0.0308 0.9995 0.0015
vn -0.0486 0.9988 0.0010
vn -0.1811 0.0273 -0.9831
s 0
f 2//1 3//1 5//1
f 2//2 6//2 1//2
f 12//3 11//3 3//3
f 4//4 5//4 8//4
f 13//5 21//5 16//5
f 19//6 20//6 22//6
f 10//7 12//7 3//7
f 3//8 11//8 5//8
f 16//9 14//9 18//9
f 20//10 14//10 12//10
f 12//11 15//11 11//11
f 9//12 18//12 16//12
f 9//13 18//13 19//13
f 9//14 19//14 22//14
f 8//15 13//15 4//15
f 2//16 9//16 6//16
f 15//17 5//17 11//17
f 18//18 14//18 19//18
f 3//19 7//19 10//19
f 2//20 1//20 3//20
f 16//21 2//21 13//21
f 13//22 2//22 4//22
f 4//23 2//23 5//23
f 13//24 17//24 21//24
f 19//25 14//25 20//25
f 16//26 21//26 14//26
f 15//27 12//27 14//27
f 5//28 21//28 17//28
f 5//29 17//29 8//29
f 22//30 9//30 1//30
f 1//31 9//31 6//31
f 8//32 17//32 13//32
f 22//33 7//33 20//33
f 10//34 12//34 20//34
f 10//35 20//35 7//35
f 2//36 16//36 9//36
f 15//37 21//37 5//37
f 3//38 1//38 7//38
f 21//39 15//39 14//39
f 1//40 22//40 7//40
f 7//41 10//41 22//41
f 22//42 10//42 12//42
f 22//43 12//43 20//43
f 16//44 6//44 2//44
f 6//45 1//45 22//45
f 6//46 22//46 9//46
f 9//47 18//47 22//47
f 18//48 19//48 22//48
f 18//49 21//49 14//49
f 18//50 16//50 21//50
f 9//51 6//51 16//51
