# Blender 4.0.0
# www.blender.org
o decimated_mesh
v 0.431167 1.365232 0.287588
v 0.430981 1.431353 0.287417
v 0.422484 1.353498 0.299666
v 0.431202 1.365208 -0.161959
v 0.419616 1.444162 0.299558
v 0.407227 1.414929 0.304525
v 0.407227 1.364998 0.303579
v 0.408550 1.351984 0.298102
v 0.422070 1.353233 -0.174379
v 0.430935 1.431403 -0.162048
v 0.306594 1.398279 0.290291
v 0.306593 1.385326 0.284449
v 0.406650 1.352196 -0.172500
v 0.407227 1.364998 -0.178159
v 0.407227 1.414929 -0.178538
v 0.306594 1.409779 0.283686
v 0.420908 1.443287 -0.173894
v 0.306591 1.386395 -0.155988
v 0.306451 1.408502 -0.157687
vn -0.2022 -0.0074 -0.9793
vn -0.3109 -0.9504 0.0008
vn 0.2414 -0.0074 -0.9704
vn 0.8039 -0.5948 0.0001
vn 0.8045 0.0025 -0.5939
vn -0.0603 -0.3924 0.9178
vn 0.7484 0.6633 0.0008
vn -0.1743 0.2363 0.9559
vn -0.0843 -0.3997 -0.9127
vn 1.0000 0.0040 -0.0001
vn -0.1370 -0.0188 0.9904
vn 0.0670 -0.9978 -0.0007
vn -0.2907 0.9568 -0.0027
vn -0.2752 -0.3783 -0.8838
vn -0.2299 -0.0760 -0.9702
vn -0.2115 0.2565 -0.9431
vn 0.3474 0.0121 0.9376
vn 0.2483 0.3982 -0.8830
vn -0.2636 0.4804 0.8365
vn -0.3238 -0.9461 -0.0023
vn 0.3045 0.0091 -0.9525
vn 0.7425 0.0243 0.6695
vn 0.8102 0.0038 0.5862
vn 0.7953 -0.6062 -0.0004
vn 0.7698 0.0134 -0.6382
vn 1.0000 -0.0000 -0.0003
vn -1.0000 -0.0063 -0.0000
vn 1.0000 -0.0000 -0.0000
vn 0.7643 0.6449 -0.0000
vn 1.0000 0.0028 0.0001
vn 0.1080 -0.9941 0.0005
vn -0.2911 0.9567 -0.0026
vn 0.2354 -0.0184 0.9717
vn 0.2482 0.3971 -0.8836
vn -0.2911 0.9567 -0.0027
vn -0.2907 0.9568 -0.0026
vn 0.2480 0.3971 -0.8836
vn 0.2485 0.3982 -0.8830
vn 1.0000 0.0001 -0.0003
vn 1.0000 -0.0002 -0.0003
s 0
f 19//1 15//1 14//1
f 12//2 13//2 8//2
f 15//3 9//3 14//3
f 3//4 4//4 1//4
f 10//5 4//5 9//5
f 3//6 7//6 8//6
f 2//7 17//7 5//7
f 6//8 5//8 11//8
f 9//9 13//9 14//9
f 2//10 4//10 10//10
f 6//11 11//11 7//11
f 9//12 8//12 13//12
f 5//13 19//13 16//13
f 13//14 18//14 14//14
f 14//15 18//15 19//15
f 15//16 19//16 17//16
f 6//17 3//17 5//17
f 12//18 11//18 7//18
f 11//19 5//19 16//19
f 12//20 18//20 13//20
f 15//21 17//21 9//21
f 5//22 3//22 2//22
f 2//23 3//23 1//23
f 3//24 9//24 4//24
f 9//25 17//25 10//25
f 16//26 12//26 19//26
f 12//27 19//27 18//27
f 12//28 16//28 11//28
f 2//29 10//29 17//29
f 2//30 1//30 4//30
f 9//31 3//31 8//31
f 5//32 17//32 19//32
f 6//33 7//33 3//33
f 12//34 7//34 8//34
f 19//35 16//35 17//35
f 16//36 5//36 17//36
f 7//37 8//37 11//37
f 11//38 8//38 12//38
f 11//39 12//39 19//39
f 11//40 19//40 16//40
