# Blender 4.0.0
# www.blender.org
o Fridge_17_FridgeBodyMesh_3a0c63c3_4_collision_3
v -0.375123 1.614684 -0.158905
v -0.375123 1.603474 -0.156575
v -0.375123 1.625162 -0.155959
v 0.307307 1.625034 -0.155915
v 0.307307 1.614684 -0.158773
v 0.307307 1.603571 -0.156531
v -0.375123 1.600553 -0.145361
v -0.375123 1.627126 -0.145361
v 0.307307 1.626953 -0.145361
v 0.307307 1.600745 -0.145361
v -0.375123 1.599908 0.270755
v 0.307307 1.600087 0.270711
v -0.375123 1.627587 0.270755
v 0.307307 1.627405 0.270755
v -0.375123 1.602655 0.285266
v 0.307307 1.602777 0.285222
v -0.375123 1.625785 0.284079
v 0.307307 1.625625 0.284123
v -0.142057 1.614684 0.290323
v -0.208657 1.614684 0.290323
v -0.375123 1.614684 0.290279
v 0.290674 1.602785 0.285266
v 0.307307 1.614646 0.290279
v 0.290674 1.614684 0.290279
vn -1.0000 -0.0000 -0.0000
vn 0.0001 0.2707 -0.9627
vn 0.0002 0.2662 -0.9639
vn 0.0002 -0.1978 -0.9802
vn 0.0001 -0.2036 -0.9791
vn 0.0002 -0.9677 -0.2521
vn 0.0002 0.9832 -0.1823
vn 1.0000 -0.0000 -0.0000
vn 0.0002 0.9839 -0.1788
vn 0.0003 -0.9694 -0.2453
vn 0.0003 -1.0000 -0.0016
vn 0.0003 -1.0000 -0.0015
vn 0.0003 1.0000 -0.0011
vn 0.0003 -0.9832 0.1823
vn 0.0002 -0.9825 0.1860
vn 0.0002 0.9910 0.1340
vn 0.0003 0.9912 0.1320
vn -0.0000 -0.3876 0.9218
vn -0.0002 -0.3847 0.9230
vn 0.0002 -0.9683 0.2498
vn 0.0001 -0.3894 0.9211
vn 0.0001 -0.3885 0.9214
vn 0.0022 -0.3920 0.9200
vn -0.0002 0.4876 0.8731
vn -0.0000 0.4902 0.8716
vn 0.0001 0.4912 0.8711
vn 0.0011 0.4891 0.8723
vn 0.0001 0.4902 0.8716
vn 0.0001 0.0446 0.9990
s 0
f 1//1 2//1 7//1
f 1//1 7//1 11//1
f 1//1 11//1 15//1
f 1//1 15//1 21//1
f 1//1 21//1 17//1
f 1//1 17//1 13//1
f 1//1 13//1 8//1
f 1//1 8//1 3//1
f 1//2 3//2 4//2
f 1//3 4//3 5//3
f 1//4 5//4 6//4
f 1//5 6//5 2//5
f 2//6 6//6 7//6
f 3//7 8//7 4//7
f 4//8 9//8 14//8
f 4//8 14//8 18//8
f 4//8 18//8 23//8
f 4//8 23//8 16//8
f 4//8 16//8 12//8
f 4//8 12//8 10//8
f 4//8 10//8 6//8
f 4//8 6//8 5//8
f 4//9 8//9 9//9
f 6//10 10//10 7//10
f 7//11 10//11 12//11
f 7//12 12//12 11//12
f 8//13 13//13 9//13
f 9//13 13//13 14//13
f 11//14 12//14 16//14
f 11//15 16//15 15//15
f 13//16 17//16 18//16
f 13//17 18//17 14//17
f 15//18 19//18 20//18
f 15//19 20//19 21//19
f 15//20 16//20 22//20
f 15//21 22//21 23//21
f 15//22 23//22 19//22
f 16//23 23//23 22//23
f 17//24 21//24 20//24
f 17//25 20//25 19//25
f 17//26 19//26 18//26
f 18//27 24//27 23//27
f 18//28 19//28 24//28
f 19//29 23//29 24//29
