# Blender 4.0.0
# www.blender.org
o decimated_mesh
v 0.072812 0.069927 -0.047590
v 0.081490 0.069927 -0.047590
v 0.087006 0.069927 -0.000016
v 0.091623 0.094931 -0.000016
v 0.077523 0.093110 -0.047590
v 0.094685 0.069927 -0.000024
v 0.078713 0.095159 -0.047590
v 0.095503 0.096105 -0.000012
v 0.080828 0.096002 -0.047590
v 0.087390 0.069927 -0.036395
v 0.083262 0.095769 -0.047584
v 0.084489 0.081471 -0.047590
v 0.089894 0.081389 -0.037382
v 0.097497 0.082140 -0.000023
v 0.098352 0.094430 -0.000039
v 0.085513 0.094428 -0.047535
v 0.088492 0.095888 -0.037188
v 0.094146 0.095868 -0.019425
v 0.090975 0.094433 -0.037088
v 0.096147 0.094508 -0.019834
v 0.095503 0.082254 -0.019710
v 0.092828 0.069927 -0.018522
vn -0.0009 0.0002 -1.0000
vn 0.9699 -0.2232 -0.0974
vn 0.8599 -0.2273 -0.4572
vn 0.9309 -0.2294 -0.2842
vn -0.2885 0.9535 0.0869
vn -0.0000 1.0000 -0.0000
vn -0.8416 0.4884 0.2307
vn 0.9517 -0.0721 -0.2985
vn 0.4962 0.8286 -0.2591
vn 0.9406 -0.1912 -0.2806
vn -0.0013 -0.0386 -0.9993
vn 0.8844 -0.0629 -0.4624
vn 0.9925 -0.0692 -0.1009
vn 0.0234 0.9997 -0.0063
vn -0.0011 0.0003 -1.0000
vn -0.0035 -0.0010 -1.0000
vn -0.0025 0.0118 -0.9999
vn 0.9704 -0.2201 -0.0996
vn 0.8622 -0.2239 -0.4544
vn 0.9315 -0.2280 -0.2834
vn 0.5318 0.8311 -0.1630
vn 0.5041 0.8488 -0.1595
vn 0.5059 0.8610 -0.0529
vn 0.5547 0.8306 -0.0489
vn -0.3681 0.9239 0.1043
vn -0.0000 -1.0000 -0.0000
vn 0.9566 -0.0532 -0.2865
vn 0.4983 0.8268 -0.2609
vn 0.9458 -0.1747 -0.2736
vn 0.0062 0.0037 -1.0000
vn 0.0085 -0.0097 -0.9999
vn -0.0000 -0.0000 -1.0000
vn -0.0001 0.0001 -1.0000
vn 0.8815 -0.0677 -0.4673
vn 0.9924 -0.0533 -0.1107
vn 0.0419 0.9990 -0.0151
vn 0.0953 0.9937 -0.0593
vn 0.9436 -0.1742 -0.2815
vn 0.9430 -0.1916 -0.2721
vn 0.8606 -0.2235 -0.4575
vn 0.8615 -0.2273 -0.4540
vn 0.0011 -0.0005 1.0000
vn -0.0011 0.0002 1.0000
vn 0.0025 0.0006 -1.0000
vn 0.0232 0.0024 -0.9997
vn 0.9312 -0.2280 -0.2844
vn 0.9312 -0.2293 -0.2834
vn 0.0020 -0.0005 1.0000
vn 0.0098 0.0006 1.0000
vn 0.5061 0.8612 -0.0459
vn 0.0535 0.9984 -0.0159
vn 0.0305 0.9995 -0.0116
vn 0.5531 0.8310 -0.0583
s 0
f 4//1 14//1 3//1
f 22//2 14//2 6//2
f 13//3 10//3 12//3
f 22//4 13//4 21//4
f 9//5 4//5 8//5
f 1//6 10//6 2//6
f 5//7 4//7 7//7
f 19//8 21//8 13//8
f 11//9 17//9 19//9
f 3//10 1//10 5//10
f 9//11 11//11 16//11
f 13//12 16//12 19//12
f 15//13 14//13 21//13
f 18//14 17//14 9//14
f 3//15 14//15 6//15
f 14//16 4//16 15//16
f 8//17 15//17 4//17
f 22//18 21//18 14//18
f 2//19 12//19 10//19
f 22//20 10//20 13//20
f 20//21 19//21 18//21
f 19//22 17//22 18//22
f 15//23 20//23 8//23
f 18//24 8//24 20//24
f 9//25 7//25 4//25
f 10//6 1//6 22//6
f 22//26 6//26 3//26
f 3//6 22//6 1//6
f 19//27 20//27 21//27
f 19//28 16//28 11//28
f 3//29 5//29 4//29
f 16//30 12//30 5//30
f 9//31 16//31 5//31
f 12//32 2//32 1//32
f 1//32 5//32 12//32
f 5//33 7//33 9//33
f 13//34 12//34 16//34
f 21//35 20//35 15//35
f 9//36 8//36 18//36
f 17//37 11//37 9//37
f 5//32 9//32 12//32
f 5//32 12//32 2//32
f 5//32 2//32 1//32
f 2//6 22//6 10//6
f 2//6 3//6 22//6
f 2//6 1//6 3//6
f 3//38 1//38 4//38
f 4//39 1//39 5//39
f 12//40 13//40 2//40
f 13//41 10//41 2//41
f 6//42 8//42 3//42
f 8//43 4//43 3//43
f 9//44 11//44 12//44
f 11//45 16//45 12//45
f 21//46 10//46 13//46
f 21//47 22//47 10//47
f 14//48 8//48 6//48
f 14//49 15//49 8//49
f 15//50 18//50 8//50
f 18//51 17//51 8//51
f 17//52 9//52 8//52
f 20//53 18//53 15//53
