# Blender 4.0.0
# www.blender.org
o decimated_mesh
v -0.000017 0.069759 0.094744
v -0.000016 0.069829 0.086954
v -0.046914 0.069829 0.073133
v -0.046914 0.040548 0.047550
v -0.046914 0.069760 0.081953
v -0.000019 0.026134 0.056059
v -0.000016 0.007840 0.047550
v -0.046907 0.022291 0.047648
v -0.000975 0.066671 0.093637
v -0.000016 -0.001081 0.047556
v -0.018502 0.069829 0.092798
v -0.018637 0.066807 0.091871
v -0.035715 0.069820 0.087701
v -0.035768 0.066422 0.086480
v -0.000016 0.054061 0.087277
v -0.016103 -0.000795 0.047549
v -0.046914 0.031818 0.057703
v -0.030261 0.003141 0.047525
v -0.022181 0.002643 0.051355
v -0.046914 0.051549 0.071953
v -0.013842 0.032658 0.073860
v -0.000108 0.003015 0.056311
v -0.010223 -0.000475 0.049685
v -0.000016 -0.000662 0.050231
v -0.011982 0.002630 0.054586
vn -0.0011 0.0020 1.0000
vn 1.0000 -0.0038 0.0033
vn 0.2167 0.6423 -0.7352
vn -1.0000 -0.0000 -0.0000
vn 0.2822 0.4046 -0.8699
vn -0.7471 -0.3438 0.5690
vn -0.2686 -0.3220 0.9078
vn -0.0300 -0.9731 0.2284
vn -0.2537 -0.4789 0.8404
vn -0.1558 -0.8587 0.4882
vn -0.4563 -0.5210 0.7214
vn 0.3096 0.5490 -0.7764
vn -0.0970 -0.3090 0.9461
vn -0.0009 1.0000 0.0013
vn 0.0028 1.0000 0.0089
vn -0.0000 1.0000 -0.0000
vn -0.0094 0.9999 0.0078
vn -0.3486 -0.5080 0.7876
vn -0.4473 -0.4305 0.7840
vn -0.3921 -0.5184 0.7599
vn -0.0135 -0.0053 -0.9999
vn 0.0007 0.0010 -1.0000
vn -0.0004 0.0006 1.0000
vn 0.9999 0.0039 0.0127
vn 1.0000 -0.0000 0.0003
vn 1.0000 -0.0038 0.0085
vn 1.0000 -0.0000 -0.0001
vn 1.0000 -0.0000 0.0001
vn -0.0433 -0.8552 0.5165
vn -0.0483 -0.8515 0.5221
vn -1.0000 -0.0004 -0.0003
vn 0.3229 -0.4065 0.8547
vn -0.2835 -0.2696 0.9203
vn -0.3236 -0.5084 0.7980
vn -0.2561 -0.5333 0.8062
vn -0.4345 -0.2986 0.8497
vn -0.2457 -0.8812 0.4038
vn -0.1453 -0.8383 0.5254
vn -0.1036 -0.5418 0.8341
vn 0.0109 -0.5057 0.8627
vn -0.0912 -0.4745 0.8755
vn -0.6388 -0.5587 0.5289
vn -0.0176 -0.9878 0.1546
vn -0.1013 -0.2876 0.9524
vn -1.0000 -0.0002 0.0003
vn -1.0000 0.0001 -0.0001
vn -1.0000 -0.0003 0.0005
vn -0.2732 -0.2709 0.9230
vn -0.0921 -0.4540 0.8862
vn -0.2777 -0.3210 0.9054
vn -0.1103 -0.4757 0.8726
vn -0.0268 -0.5184 0.8547
vn -0.9995 0.0173 -0.0255
vn -1.0000 0.0002 -0.0003
vn -0.0003 0.0049 1.0000
vn -0.0009 0.0006 1.0000
vn -1.0000 -0.0000 -0.0004
vn -0.1334 -0.8581 0.4958
vn -0.1617 -0.8468 0.5068
s 0
f 18//1 16//1 7//1
f 15//2 22//2 6//2
f 2//3 4//3 3//3
f 17//4 20//4 4//4
f 4//5 6//5 7//5
f 15//6 9//6 22//6
f 11//7 13//7 14//7
f 23//8 16//8 24//8
f 21//9 12//9 14//9
f 23//10 25//10 19//10
f 17//11 18//11 20//11
f 2//12 6//12 4//12
f 12//13 9//13 1//13
f 13//14 11//14 3//14
f 11//15 1//15 2//15
f 2//16 3//16 11//16
f 3//17 5//17 13//17
f 19//18 14//18 20//18
f 5//19 20//19 14//19
f 20//20 18//20 19//20
f 18//21 8//21 4//21
f 7//22 18//22 4//22
f 7//23 16//23 10//23
f 22//24 24//24 7//24
f 24//25 10//25 7//25
f 7//26 6//26 22//26
f 6//27 2//27 15//27
f 15//28 2//28 1//28
f 24//29 22//29 23//29
f 22//30 25//30 23//30
f 20//4 5//4 3//4
f 3//4 4//4 20//4
f 8//31 17//31 4//31
f 15//32 1//32 9//32
f 14//33 12//33 11//33
f 14//34 19//34 21//34
f 21//35 19//35 25//35
f 13//36 5//36 14//36
f 19//37 18//37 16//37
f 16//38 23//38 19//38
f 25//39 22//39 21//39
f 22//40 9//40 21//40
f 9//41 12//41 21//41
f 17//42 8//42 18//42
f 24//43 16//43 10//43
f 1//44 11//44 12//44
f 15//45 1//45 10//45
f 10//46 1//46 2//46
f 10//47 2//47 6//47
f 13//48 12//48 11//48
f 15//49 9//49 12//49
f 13//50 14//50 12//50
f 21//51 15//51 12//51
f 21//52 22//52 15//52
f 22//53 15//53 24//53
f 24//54 15//54 10//54
f 16//55 10//55 18//55
f 18//56 10//56 7//56
f 7//57 10//57 6//57
f 17//4 20//4 3//4
f 17//4 3//4 4//4
f 23//58 25//58 16//58
f 25//59 19//59 16//59
