# Blender 4.0.0
# www.blender.org
o decimated_mesh
v -0.085583 0.093275 0.047546
v -0.081712 0.094320 0.054804
v -0.083823 0.094353 0.050792
v -0.084897 0.094923 0.047545
v -0.072157 0.094360 0.066345
v -0.084618 0.081888 0.047544
v -0.080801 0.082816 0.054733
v -0.069164 0.094509 0.069672
v -0.069566 0.093093 0.069465
v -0.080449 0.095569 0.053747
v -0.082796 0.095896 0.047547
v -0.080716 0.095929 0.051431
v -0.080798 0.096001 0.047547
v -0.068343 0.095665 0.068225
v -0.067815 0.095991 0.066922
v -0.046923 0.095968 0.080966
v -0.078724 0.095151 0.047546
v -0.069013 0.081606 0.068702
v -0.054697 0.094330 0.081765
v -0.053788 0.095576 0.080408
v -0.046923 0.095929 0.082905
v -0.046920 0.095065 0.078903
v -0.046922 0.094326 0.085919
v -0.051462 0.095941 0.080652
v -0.054500 0.082569 0.080934
v -0.046920 0.095194 0.084746
v -0.046920 0.040558 0.047550
v -0.077846 0.067107 0.052506
v -0.046925 0.022573 0.047548
v -0.080853 0.067654 0.047548
v -0.050062 0.024550 0.047550
v -0.056667 0.031144 0.047549
v -0.071599 0.051514 0.047569
v -0.048654 0.024174 0.048654
v -0.066324 0.066819 0.066326
v -0.046920 0.082379 0.085041
v -0.046920 0.024517 0.050573
v -0.052787 0.031730 0.052788
v -0.052507 0.067107 0.077847
v -0.048699 0.053354 0.072064
v -0.046923 0.067347 0.081051
v -0.046920 0.031992 0.057858
v -0.046920 0.051557 0.071952
vn -0.4768 -0.2308 0.8482
vn -0.8649 0.3605 0.3492
vn -0.4628 0.8007 0.3804
vn -0.6053 -0.6061 0.5160
vn -0.3891 0.9024 0.1850
vn -0.8767 -0.0744 0.4752
vn -0.5567 -0.4917 0.6696
vn -0.4745 -0.5145 0.7142
vn -0.1731 0.9623 0.2096
vn -0.8841 0.0415 0.4655
vn -0.2926 0.7939 0.5331
vn 0.6503 0.3788 -0.6585
vn -0.1818 0.9119 0.3680
vn -0.4613 0.8022 0.3791
vn -0.9999 0.0103 0.0060
vn -0.3969 -0.7719 0.4967
vn -0.6140 0.7175 0.3290
vn -0.4767 -0.0645 0.8767
vn -0.6627 -0.4781 0.5764
vn -0.5067 -0.6018 0.6174
vn -0.7849 -0.4495 0.4265
vn -0.4302 -0.4485 0.7834
vn 0.3540 0.8640 -0.3580
vn -0.4961 -0.7879 0.3649
vn -0.4684 -0.2266 0.8540
vn -0.6205 -0.2297 0.7498
vn -0.6176 -0.2330 0.7511
vn -0.6393 0.0693 0.7658
vn -0.5827 -0.6116 0.5352
vn -0.7824 -0.0787 0.6178
vn -0.7653 -0.0705 0.6398
vn -0.7685 -0.0648 0.6365
vn -0.4107 0.8867 0.2123
vn -0.8757 -0.0723 0.4774
vn -0.5671 -0.4477 0.6913
vn -0.5800 -0.4782 0.6595
vn -0.2134 0.9614 0.1739
vn -0.1997 0.9666 0.1606
vn -0.1473 0.9720 0.1831
vn -0.3024 0.7665 0.5666
vn -0.0066 0.9999 0.0115
vn -0.0072 0.9998 0.0198
vn 0.0014 1.0000 -0.0004
vn -0.0524 0.9984 0.0195
vn -0.0275 0.9994 0.0190
vn 0.0005 -0.0006 1.0000
vn 0.0018 0.0023 1.0000
vn -0.0001 -0.0000 1.0000
vn 0.0005 -0.0001 1.0000
vn 0.0001 -0.0005 1.0000
vn -0.0000 0.0001 1.0000
vn -0.0006 0.0001 1.0000
vn -0.0010 0.0007 1.0000
vn -0.0000 -0.0002 1.0000
vn -0.7527 -0.2356 0.6148
vn -0.7500 -0.2290 0.6205
vn -0.7412 0.1135 0.6616
vn -0.1788 0.9136 0.3651
vn -0.4661 0.7968 0.3845
vn -0.8435 -0.2276 0.4865
vn -0.8484 -0.2243 0.4795
vn -0.5324 0.7918 0.2993
vn -1.0000 -0.0001 -0.0003
vn -1.0000 -0.0016 -0.0003
vn -1.0000 0.0001 0.0002
vn -1.0000 -0.0003 0.0001
vn -1.0000 -0.0000 -0.0000
vn 1.0000 -0.0000 -0.0000
vn 1.0000 -0.0003 -0.0014
vn -1.0000 0.0001 -0.0002
vn -1.0000 -0.0021 -0.0005
vn -0.4701 -0.0700 0.8798
vn -0.6887 -0.4547 0.5647
vn -0.6719 -0.4930 0.5527
vn -0.5296 -0.6114 0.5880
vn -0.6328 -0.0651 0.7715
vn -0.6391 -0.0816 0.7647
vn -0.4100 -0.4555 0.7902
vn 0.3693 0.8515 -0.3722
vn -0.3877 0.7935 0.4690
vn -0.3634 0.8175 0.4469
vn 0.0009 -0.0001 1.0000
vn -0.7711 -0.0650 0.6334
vn -0.7702 -0.0047 0.6377
vn -0.4668 0.7968 0.3837
vn -0.4116 0.8886 0.2026
vn -0.0006 -0.0001 1.0000
vn -0.0002 -0.0001 1.0000
vn 0.0010 0.0007 1.0000
vn -0.0001 0.0001 1.0000
vn 0.0007 0.0005 1.0000
vn 0.0001 -0.0002 1.0000
vn 0.0003 -0.0003 1.0000
vn -0.7536 -0.2291 0.6161
vn -0.7652 -0.0793 0.6389
vn -0.4655 0.7979 0.3830
vn -0.2158 0.9608 0.1741
vn -0.3573 0.9158 0.1834
vn -0.4605 0.8023 0.3797
vn 0.0143 0.0095 0.9999
vn -0.7488 -0.2357 0.6194
vn -0.6199 -0.2331 0.7493
vn -0.6183 -0.2297 0.7516
vn -0.4766 -0.0699 0.8763
vn -0.4703 -0.0647 0.8801
vn -0.3843 0.7937 0.4715
vn -0.3671 0.8171 0.4445
vn -0.1734 0.9613 0.2142
vn -0.1499 0.9718 0.1820
vn -0.1982 0.9668 0.1612
vn -1.0000 0.0006 -0.0017
vn -1.0000 -0.0000 -0.0003
vn -1.0000 -0.0007 0.0016
vn -1.0000 0.0005 -0.0012
vn -1.0000 -0.0002 0.0003
vn -1.0000 0.0004 -0.0008
vn -1.0000 -0.0010 0.0013
s 0
f 25//1 39//1 41//1
f 1//2 3//2 4//2
f 8//3 2//3 5//3
f 38//4 32//4 31//4
f 10//5 12//5 4//5
f 7//6 1//6 6//6
f 38//7 42//7 40//7
f 43//8 40//8 42//8
f 20//9 24//9 15//9
f 2//10 3//10 1//10
f 20//11 19//11 26//11
f 27//12 17//12 22//12
f 24//13 20//13 26//13
f 2//14 8//14 14//14
f 21//15 23//15 26//15
f 29//16 37//16 34//16
f 4//17 3//17 2//17
f 36//18 23//18 25//18
f 38//19 35//19 33//19
f 37//20 42//20 38//20
f 30//21 33//21 28//21
f 41//22 39//22 40//22
f 16//23 17//23 13//23
f 34//24 31//24 29//24
f 41//25 36//25 25//25
f 35//26 39//26 25//26
f 18//27 35//27 25//27
f 9//28 19//28 8//28
f 34//29 38//29 31//29
f 18//30 9//30 5//30
f 7//31 18//31 5//31
f 5//32 2//32 7//32
f 12//33 11//33 4//33
f 7//34 2//34 1//34
f 40//35 39//35 35//35
f 35//36 38//36 40//36
f 15//37 12//37 10//37
f 10//38 14//38 15//38
f 14//39 20//39 15//39
f 19//40 23//40 26//40
f 15//41 24//41 16//41
f 24//42 21//42 16//42
f 16//43 13//43 15//43
f 13//44 11//44 12//44
f 12//45 15//45 13//45
f 32//46 27//46 33//46
f 33//47 27//47 30//47
f 31//48 27//48 32//48
f 29//49 27//49 31//49
f 13//50 1//50 17//50
f 17//51 30//51 27//51
f 6//52 30//52 17//52
f 4//53 1//53 11//53
f 11//50 1//50 13//50
f 6//54 17//54 1//54
f 18//55 7//55 35//55
f 35//56 7//56 28//56
f 5//57 9//57 8//57
f 26//58 21//58 24//58
f 14//59 10//59 2//59
f 28//60 7//60 30//60
f 6//61 30//61 7//61
f 4//62 2//62 10//62
f 23//63 22//63 36//63
f 21//64 16//64 23//64
f 36//65 22//65 41//65
f 41//66 27//66 43//66
f 43//67 27//67 42//67
f 42//68 37//68 27//68
f 37//69 29//69 27//69
f 27//70 41//70 22//70
f 22//71 23//71 16//71
f 19//72 25//72 23//72
f 28//73 33//73 35//73
f 33//74 32//74 38//74
f 38//75 34//75 37//75
f 19//76 9//76 25//76
f 9//77 18//77 25//77
f 43//78 41//78 40//78
f 16//79 22//79 17//79
f 20//80 14//80 19//80
f 19//81 14//81 8//81
f 4//82 1//82 6//82
f 7//83 9//83 2//83
f 9//84 5//84 2//84
f 5//85 10//85 2//85
f 10//86 11//86 4//86
f 11//87 4//87 6//87
f 27//88 6//88 29//88
f 29//89 6//89 31//89
f 31//90 6//90 32//90
f 32//91 6//91 30//91
f 11//92 6//92 13//92
f 13//93 6//93 17//93
f 17//88 6//88 27//88
f 28//94 18//94 7//94
f 18//95 9//95 7//95
f 8//96 10//96 5//96
f 14//97 12//97 10//97
f 12//98 11//98 10//98
f 8//99 14//99 10//99
f 22//67 27//67 42//67
f 33//100 32//100 30//100
f 35//101 18//101 28//101
f 35//102 39//102 18//102
f 39//103 25//103 18//103
f 25//104 36//104 19//104
f 36//105 23//105 19//105
f 20//106 8//106 19//106
f 20//107 14//107 8//107
f 20//108 24//108 14//108
f 24//109 15//109 14//109
f 15//110 12//110 14//110
f 22//111 42//111 16//111
f 16//112 42//112 21//112
f 21//113 42//113 26//113
f 26//114 42//114 23//114
f 23//115 42//115 36//115
f 36//116 42//116 41//116
f 41//117 42//117 43//117
