# Blender 4.0.0
# www.blender.org
o decimated_mesh
v -0.078220 0.063729 -0.049039
v -0.067701 0.063593 -0.049041
v -0.077230 0.094713 -0.049040
v -0.090793 0.095112 -0.013874
v -0.082482 0.063593 -0.013874
v -0.090821 0.063593 -0.013874
v -0.079306 0.095864 -0.049041
v -0.087175 0.067678 -0.035318
v -0.093429 0.096084 -0.013862
v -0.085007 0.063601 -0.035569
v -0.082196 0.095940 -0.049040
v -0.092026 0.067255 -0.018725
v -0.090213 0.063593 -0.018504
v -0.092848 0.067964 -0.013874
v -0.089864 0.081438 -0.037472
v -0.094341 0.095803 -0.019146
v -0.096681 0.094625 -0.013878
v -0.088516 0.095882 -0.037188
v -0.083818 0.081915 -0.049041
v -0.095502 0.082252 -0.019709
v -0.096279 0.094392 -0.019468
v -0.084709 0.094352 -0.049025
v -0.091025 0.094419 -0.036983
v -0.096073 0.081594 -0.013874
vn -0.0000 -1.0000 -0.0000
vn -0.0003 -0.0010 -1.0000
vn -0.8565 -0.2390 -0.4575
vn -0.9315 -0.2342 -0.2783
vn -0.0004 0.0117 -0.9999
vn -0.9653 -0.2316 -0.1205
vn -0.5786 0.8121 -0.0754
vn -0.9068 -0.2391 -0.3471
vn 0.0263 0.9996 0.0043
vn -0.9515 -0.0738 -0.2986
vn -0.8834 -0.0627 -0.4643
vn -0.5019 0.8238 -0.2636
vn -0.5070 0.8470 -0.1599
vn 0.3435 0.9298 0.1321
vn -0.9927 -0.0615 -0.1040
vn -0.0003 1.0000 0.0004
vn -0.0130 -0.9998 -0.0160
vn 0.0008 1.0000 0.0003
vn -0.0002 -0.0002 -1.0000
vn -0.0020 0.0011 -1.0000
vn -0.0000 -0.0000 -1.0000
vn -0.0017 -0.0064 -1.0000
vn -0.8873 -0.4463 -0.1165
vn -0.9034 -0.4189 -0.0918
vn -0.8140 -0.4075 -0.4140
vn -0.8413 -0.2590 -0.4745
vn -0.9313 -0.2267 -0.2852
vn -0.8586 -0.4406 -0.2622
vn -0.8584 -0.4408 -0.2622
vn 0.0006 -0.0003 -1.0000
vn -0.9649 -0.2283 -0.1300
vn -0.4094 0.9121 0.0221
vn -0.8872 -0.2716 -0.3729
vn -0.9563 -0.0555 -0.2870
vn -0.8841 -0.0616 -0.4633
vn -0.5148 0.8122 -0.2745
vn -0.5618 0.8102 -0.1673
vn 0.4773 0.8613 0.1743
vn -0.9965 -0.0465 -0.0696
vn -0.0419 0.9990 -0.0175
vn -0.1154 0.9928 -0.0329
vn -0.8981 -0.2750 -0.3433
vn -0.8958 -0.2362 -0.3765
vn -0.0000 1.0000 -0.0000
vn 0.0012 1.0000 0.0009
vn -0.0062 0.0008 -1.0000
vn -0.0003 0.0001 -1.0000
vn 0.0002 -0.0001 -1.0000
vn -0.0052 -0.0014 -1.0000
vn -0.0000 0.0004 -1.0000
vn 0.0049 -0.0001 -1.0000
vn 0.0020 0.0005 -1.0000
vn 0.0010 0.0004 -1.0000
vn -0.9641 -0.2319 -0.1294
vn -0.9661 -0.2286 -0.1202
s 0
f 5//1 6//1 13//1
f 3//2 11//2 7//2
f 19//3 8//3 15//3
f 8//4 12//4 20//4
f 9//5 4//5 17//5
f 12//6 24//6 20//6
f 21//7 17//7 16//7
f 5//8 4//8 3//8
f 7//9 11//9 9//9
f 23//10 15//10 20//10
f 15//11 22//11 19//11
f 23//12 18//12 11//12
f 16//13 18//13 23//13
f 4//14 7//14 9//14
f 24//15 21//15 20//15
f 13//16 5//16 10//16
f 10//17 1//17 2//17
f 5//18 2//18 10//18
f 1//19 19//19 2//19
f 19//20 22//20 3//20
f 3//21 2//21 19//21
f 22//22 11//22 3//22
f 12//23 13//23 6//23
f 6//24 14//24 12//24
f 8//25 1//25 10//25
f 19//26 1//26 8//26
f 20//27 15//27 8//27
f 10//28 13//28 8//28
f 8//29 13//29 12//29
f 24//21 5//21 14//21
f 14//21 5//21 6//21
f 5//21 24//21 4//21
f 17//30 4//30 24//30
f 12//31 14//31 24//31
f 17//32 9//32 16//32
f 5//33 3//33 2//33
f 20//34 21//34 23//34
f 15//35 23//35 22//35
f 22//36 23//36 11//36
f 23//37 21//37 16//37
f 4//38 3//38 7//38
f 24//39 17//39 21//39
f 9//40 11//40 18//40
f 18//41 16//41 9//41
f 3//42 2//42 4//42
f 4//43 2//43 5//43
f 5//44 2//44 13//44
f 13//45 2//45 10//45
f 22//46 11//46 19//46
f 11//47 7//47 19//47
f 7//48 3//48 19//48
f 9//49 4//49 5//49
f 9//50 5//50 6//50
f 17//51 9//51 24//51
f 24//52 9//52 14//52
f 14//53 9//53 6//53
f 14//54 20//54 12//54
f 14//55 24//55 20//55
