# Blender 4.0.0
# www.blender.org
o decimated_mesh
v 0.031559 0.008385 0.037362
v 0.045401 0.008385 0.037362
v 0.049025 0.042268 0.047431
v 0.052377 0.018749 -0.000016
v 0.049025 0.008205 -0.000016
v 0.048978 -0.000224 0.014996
v 0.049685 0.002426 0.025542
v 0.049229 0.023773 0.047442
v 0.056841 0.031329 0.047431
v 0.072843 0.069837 0.047431
v 0.086956 0.069837 -0.000016
v 0.036906 0.019116 0.037362
v 0.094750 0.069766 -0.000014
v 0.058810 0.030429 -0.000016
v 0.049249 -0.001003 -0.000021
v 0.072263 0.052487 0.047431
v 0.054568 0.002584 0.011917
v 0.086484 0.066411 0.035742
v 0.073771 0.032503 0.013813
v 0.093636 0.066673 0.000978
v 0.056383 0.003101 0.000052
v 0.081772 0.069701 0.047429
v 0.087701 0.069828 0.035716
v 0.092949 0.069767 0.018535
v 0.086363 0.052376 -0.000016
vn -0.0000 -0.5480 0.8365
vn -0.4923 -0.0049 0.8704
vn -0.9058 -0.0219 -0.4231
vn 0.0076 -0.0024 -1.0000
vn -0.0000 -0.0000 1.0000
vn -0.7382 0.6378 -0.2196
vn -0.8939 0.4453 0.0519
vn 0.7188 -0.5240 0.4569
vn -0.7766 0.5547 -0.2986
vn 0.9057 -0.3203 0.2778
vn -0.0029 1.0000 -0.0044
vn 0.5175 -0.8374 0.1758
vn -0.1511 -0.9563 0.2504
vn -0.8222 0.4529 -0.3448
vn 0.5467 -0.5497 0.6316
vn -0.8701 0.2766 -0.4079
vn -0.4007 -0.9153 0.0402
vn 0.9459 -0.3111 0.0919
vn 0.7996 -0.5310 0.2804
vn 0.8533 -0.4682 0.2293
vn 0.7958 -0.5098 0.3269
vn -0.0000 -0.0000 -1.0000
vn 0.0002 -0.0000 -1.0000
vn 0.0021 -0.0027 -1.0000
vn 0.0054 -0.0030 -1.0000
vn 0.0098 0.0007 -1.0000
vn 0.0002 -0.0000 1.0000
vn 0.0009 0.0006 1.0000
vn 0.7863 -0.4343 0.4393
vn 0.7863 -0.5082 0.3513
vn 0.6545 -0.5527 0.5159
vn 0.8520 -0.4109 -0.3244
vn 0.5467 -0.3315 0.7689
vn -0.7867 0.5411 -0.2973
vn 0.0091 1.0000 0.0008
vn 0.0061 1.0000 0.0018
vn 0.0152 0.9997 0.0185
vn -0.0000 -0.8930 0.4502
vn 0.4979 -0.8664 0.0385
vn 0.4719 -0.8800 0.0541
vn 0.8340 -0.5419 0.1040
vn 0.8628 -0.5054 -0.0102
vn 0.8770 -0.4661 0.1165
vn -0.8381 0.4176 -0.3510
vn 0.8524 -0.3002 0.4282
vn -0.0006 0.0003 -1.0000
vn -0.0015 0.0005 -1.0000
vn -0.0004 0.0003 -1.0000
vn -0.0000 0.0001 -1.0000
vn 0.0170 -0.0117 -0.9998
vn 0.0054 -0.0039 1.0000
vn 0.0011 -0.0005 1.0000
vn 0.0002 0.0001 1.0000
vn -0.0007 0.0006 1.0000
vn 0.0008 1.0000 0.0002
vn 0.0091 1.0000 0.0001
vn 0.0167 0.9999 0.0016
vn 0.8821 -0.4567 0.1150
vn 0.8754 -0.4666 0.1266
vn 0.8539 -0.5195 0.0310
s 0
f 1//1 2//1 8//1
f 1//2 8//2 3//2
f 1//3 5//3 15//3
f 5//4 4//4 21//4
f 9//5 16//5 3//5
f 3//6 10//6 11//6
f 3//7 12//7 1//7
f 9//8 7//8 16//8
f 14//9 3//9 11//9
f 24//10 23//10 18//10
f 23//11 24//11 10//11
f 17//12 7//12 6//12
f 6//13 7//13 1//13
f 4//14 12//14 14//14
f 9//15 8//15 2//15
f 4//16 5//16 1//16
f 6//17 1//17 15//17
f 20//18 13//18 24//18
f 17//19 19//19 7//19
f 19//20 24//20 18//20
f 18//21 7//21 19//21
f 14//22 11//22 25//22
f 25//23 11//23 13//23
f 25//24 21//24 14//24
f 14//25 21//25 4//25
f 21//26 15//26 5//26
f 10//5 3//5 16//5
f 22//27 10//27 16//27
f 8//28 9//28 3//28
f 22//29 16//29 18//29
f 7//30 18//30 16//30
f 9//31 2//31 7//31
f 13//32 20//32 25//32
f 20//33 21//33 25//33
f 14//34 12//34 3//34
f 24//35 13//35 11//35
f 11//36 10//36 24//36
f 10//37 22//37 23//37
f 7//38 2//38 1//38
f 21//39 17//39 15//39
f 15//40 17//40 6//40
f 17//41 21//41 19//41
f 21//42 20//42 19//42
f 20//43 24//43 19//43
f 4//44 1//44 12//44
f 23//45 22//45 18//45
f 14//46 15//46 4//46
f 15//47 5//47 4//47
f 14//48 11//48 15//48
f 11//23 13//23 15//23
f 13//49 25//49 15//49
f 25//50 21//50 15//50
f 9//51 16//51 8//51
f 16//52 22//52 8//52
f 22//53 10//53 8//53
f 10//54 3//54 8//54
f 10//55 23//55 11//55
f 23//56 13//56 11//56
f 23//57 24//57 13//57
f 20//58 24//58 25//58
f 24//59 19//59 25//59
f 19//60 21//60 25//60
