mtllib material.mtl
usemtl material_0
v -0.85513120 -0.10477540 -1.70245900
v -0.86580630 -0.14593410 -1.40859200
v -0.86281730 -0.14869650 -1.70165400
v -0.85983280 -0.10150960 -1.40873900
v -0.81560790 -0.02212914 -1.70378100
v -0.86586180 -0.14457630 0.11154140
v -0.81674190 -0.01702019 -1.40924700
v -0.77734490 -0.00658119 -1.70386400
v -0.85848810 -0.10007180 0.11152040
v -0.86676030 -0.14550250 0.84623960
v -0.77902100 0.00015030 -1.40935100
v -0.69657280 0.00313492 -1.70361300
v -0.81575560 -0.01577492 0.11145870
v -0.85833920 -0.10117030 0.84683810
v -0.88634880 -0.14467300 1.23642700
v -0.69757260 0.00923859 -1.40942300
v -0.61501890 0.00586761 -1.70336500
v -0.77741520 -0.00004158 0.11146760
v -0.81630490 -0.01658699 0.84786800
v -0.86334470 -0.10331610 1.23827900
v -0.90870730 -0.11630870 1.36185600
v -0.61572330 0.01311905 -1.40939700
v 0.03984985 0.01080414 -1.70337600
v -0.69617120 0.00976959 0.11146210
v -0.77778870 -0.00085876 0.84780970
v -0.81543210 -0.02173088 1.24035900
v -0.86215570 -0.09023602 1.37974200
v -0.92921260 -0.10105420 1.39805500
v 0.03987793 0.01542099 -1.40932600
v 0.53125790 0.00892013 -1.70349200
v -0.61451170 0.01405792 0.11146210
v -0.69662230 0.01011703 0.84784180
v -0.77735230 -0.00510887 1.24060900
v -0.81211730 -0.02352775 1.38661700
v -0.88331970 -0.07262642 1.41359200
v -0.85798520 -0.21295690 1.46007900
v 0.53158200 0.01565315 -1.40946000
v 0.61305840 0.00714767 -1.70352900
v 0.04000488 0.01631203 0.11143920
v -0.61490600 0.01340805 0.84792080
v -0.69700930 0.00665123 1.24107500
v -0.77822260 -0.00848946 1.38848600
v -0.81363090 -0.02618370 1.43578600
v -0.82469970 -0.19419460 1.49749500
v -0.80787040 -0.26655420 1.49545000
v -0.77535150 -0.23049070 1.53151700
v -0.76150570 -0.14484370 1.53024700
v -0.72496030 -0.17338310 1.57226600
v -0.77855900 -0.01270302 1.43785800
v -0.74940910 -0.12270920 1.54937400
v -0.71776120 -0.15466530 1.59764500
v -0.69699520 -0.00151863 1.38867300
v -0.69657960 -0.00869904 1.43718000
v -0.68543700 -0.13892430 1.51758900
v -0.66803470 -0.17683580 1.55649600
v -0.61528620 0.00921127 1.24112800
v -0.61499080 0.00227554 1.38843300
v -0.61459590 -0.00283066 1.43744900
v -0.60823970 -0.13204270 1.54725700
v -0.59682920 -0.17662520 1.57763500
v 0.03989868 0.01641266 0.84793640
v 0.03977234 0.01248657 1.24060900
v 0.03970154 0.00338211 1.38765400
v 0.03968750 -0.00313675 1.43634900
v 0.03962402 -0.13527930 1.54010000
v 0.03918457 -0.18233350 1.55733600
v 0.53101130 0.01598785 0.11138460
v 0.53094850 0.01643356 0.84797540
v 0.53118040 0.01198524 1.24101500
v 0.53084960 0.00408234 1.38808100
v 0.53055360 -0.00392487 1.43650200
v 0.52907470 -0.13663660 1.53837600
v 0.52387820 -0.18354210 1.55621400
v 0.61353760 0.01419647 -1.40952100
v 0.77621580 -0.00076134 -1.70387500
v 0.61277710 0.01427887 0.11138310
v 0.77701840 0.00245140 -1.40953200
v 0.84848080 -0.03779869 -1.70379300
v 0.60836180 -0.13419050 1.54908500
v 0.59935360 -0.17962000 1.57663100
v 0.61255130 -0.00408043 1.43703000
v 0.61265020 0.01315048 0.84794740
v 0.85001650 -0.03394157 -1.40932300
v 0.87704590 -0.13548790 -1.70162900
v 0.88408940 -0.13201590 -1.40915900
v 0.77586360 0.00335777 0.11140590
v 0.84743160 -0.03462494 0.11139010
v 0.88323910 -0.13137720 0.11168760
v 0.61309390 0.01215424 1.24122100
v 0.77572260 0.00328743 0.84781740
v 0.84866390 -0.03355881 0.84773070
v 0.88328120 -0.13124640 0.84750550
v 0.61286870 0.00397499 1.38853000
v 0.77587770 -0.00051140 1.24079900
v 0.84907220 -0.03479484 1.24026500
v 0.90632870 -0.12720110 1.23587600
v 0.77659540 -0.00555252 1.38848300
v 0.83173700 -0.04186283 1.38562700
v 0.91018860 -0.10909920 1.37254300
v 0.77671810 -0.01024368 1.43738900
v 0.84300230 -0.03337784 1.43225000
v 0.93423220 -0.08821491 1.40008300
v 0.75051510 -0.13129840 1.53253400
v 0.72870180 -0.17348000 1.56385400
v 0.80087640 -0.15570310 1.51928100
v 0.86343200 -0.20225190 1.45866900
v 0.78307490 -0.18453280 1.56590000
v 0.82693420 -0.25823420 1.49991800
vn -0.93533360 0.35344290 -0.01513434
vn -0.98881870 0.14910730 -0.00210330
vn -0.98817680 0.15262980 -0.01451920
vn -0.93358530 0.35834850 -0.00218054
vn -0.78318220 0.62154010 -0.01770458
vn -0.98757540 0.15714610 0.00010510
vn -0.78000210 0.62577120 -0.00265605
vn -0.21145420 0.97714560 -0.02176465
vn -0.93269110 0.36067620 0.00024090
vn -0.97196570 0.23489900 -0.01025933
vn -0.21190430 0.97728410 -0.00351090
vn -0.07781779 0.99671360 -0.02250296
vn -0.77920470 0.62676960 0.00030790
vn -0.92118970 0.38910010 -0.00326200
vn -0.89054510 0.45034600 -0.06416984
vn -0.08192350 0.99663120 -0.00382576
vn -0.00938985 0.99974630 -0.02047667
vn -0.21238830 0.97718530 0.00014688
vn -0.77359280 0.63368100 0.00158955
vn -0.87369250 0.48586780 -0.02436874
vn -0.58441880 0.76775720 -0.26268520
vn -0.00876377 0.99995430 -0.00380457
vn -0.00243667 0.99980100 -0.01980487
vn -0.08399659 0.99646600 -0.00007806
vn -0.21752520 0.97604690 0.00391280
vn -0.75540910 0.65524810 0.00267149
vn -0.73935970 0.65904930 -0.13784490
vn -0.69488880 0.41741200 0.58557400
vn -0.00202637 0.99999130 -0.00364146
vn 0.00424736 0.99979310 -0.01989082
vn -0.00865743 0.99996260 -0.00027827
vn -0.08703846 0.99619870 0.00351762
vn -0.22112180 0.97510820 0.01641112
vn -0.68215530 0.72991750 -0.04341290
vn -0.65684110 0.43430160 0.61639420
vn -0.62759890 0.07712300 0.77470740
vn 0.00307213 0.99998900 -0.00352865
vn 0.04659620 0.99872320 -0.01951308
vn -0.00201718 0.99999800 -0.00033007
vn -0.00854749 0.99995630 0.00380205
vn -0.08466570 0.99622170 0.01933830
vn -0.19924350 0.97871580 0.04916815
vn -0.61930070 0.48592420 0.61672060
vn -0.60232340 0.16753950 0.78047230
vn -0.66489360 -0.17516850 0.72610770
vn -0.63441220 0.01822791 0.77278000
vn -0.60185440 0.25738800 0.75599120
vn -0.71203060 0.00637559 0.70211950
vn -0.08812871 0.76815800 0.63416610
vn -0.02863355 0.63206250 0.77438830
vn 0.24720690 0.79208330 0.55811530
vn -0.07335206 0.99526150 0.06382980
vn -0.01484834 0.75139920 0.65968080
vn 0.03521145 0.65410090 0.75558720
vn 0.06272565 0.74200730 0.66745090
vn -0.00796467 0.99972130 0.02221863
vn -0.00715737 0.99750270 0.07026490
vn -0.01391421 0.75169220 0.65936730
vn -0.01438258 0.59825710 0.80117510
vn -0.00183433 0.47183250 0.88168620
vn -0.00229031 0.99999060 0.00367871
vn -0.00238240 0.99973640 0.02283755
vn -0.00155369 0.99721040 0.07462567
vn 0.00393630 0.74513280 0.66690450
vn 0.00711070 0.57951870 0.81492790
vn 0.01440161 0.41602500 0.90923910
vn 0.00342168 0.99999420 -0.00032710
vn 0.00410278 0.99998590 0.00335947
vn 0.00220180 0.99973340 0.02298493
vn -0.00020351 0.99675580 0.08048517
vn -0.00550019 0.73727640 0.67556880
vn -0.01156199 0.56574860 0.82449670
vn -0.02239064 0.36477930 0.93082480
vn 0.05165067 0.99865960 -0.00335497
vn 0.19364850 0.98093790 -0.01616175
vn 0.05259623 0.99861590 0.00007472
vn 0.20039680 0.97971120 -0.00263926
vn 0.79022700 0.61258710 -0.01668340
vn 0.00250284 0.60547570 0.79585980
vn -0.03998901 0.50879130 0.85996060
vn 0.01493598 0.75565530 0.65479910
vn 0.05247637 0.99861860 0.00266082
vn 0.78332900 0.62160420 -0.00193124
vn 0.95234420 0.30450990 -0.01772246
vn 0.94316300 0.33232470 -0.00195577
vn 0.20080160 0.97963200 0.00006313
vn 0.78194090 0.62335250 0.00023299
vn 0.94094040 0.33857200 0.00036280
vn 0.05034392 0.99857510 0.01770313
vn 0.19734590 0.98033150 0.00222448
vn 0.76639570 0.64234220 -0.00584117
vn 0.92716900 0.37448800 -0.01079177
vn 0.04177746 0.99658370 0.07124229
vn 0.19548890 0.98054070 0.01800102
vn 0.71633370 0.69775550 -0.00177949
vn 0.87155880 0.48992090 -0.01904221
vn 0.18933520 0.98032690 0.05578123
vn 0.59982130 0.79803290 -0.05794740
vn 0.70939990 0.69670620 -0.10654700
vn 0.14984040 0.74729110 0.64738240
vn 0.57166790 0.51055210 0.64228680
vn 0.69443080 0.41775110 0.58587530
vn 0.12956750 0.60047200 0.78907900
vn 0.12232460 0.56228380 0.81784700
vn 0.57153660 0.30219340 0.76290580
vn 0.65231500 0.17127470 0.73834280
vn 0.65165950 0.32239050 0.68658880
vn 0.80408670 0.09347831 0.58711710
vt 0.04000011 1.00000000
vt 0.00000000 0.91428580
vt 0.00000006 0.99999990
vt 0.04000005 0.91428570
vt 0.10000010 0.99999990
vt 0.00000012 0.47142860
vt 0.10000010 0.91428570
vt 0.12000010 1.00000000
vt 0.04000008 0.47142860
vt 0.00000012 0.25714280
vt 0.12000000 0.91428580
vt 0.16000010 1.00000000
vt 0.10000010 0.47142860
vt 0.04000011 0.25714290
vt 0.00000006 0.14285720
vt 0.16000010 0.91428570
vt 0.20000010 1.00000000
vt 0.12000010 0.47142860
vt 0.10000010 0.25714290
vt 0.04000011 0.14285720
vt 0.00000006 0.10000010
vt 0.20000010 0.91428570
vt 0.52000010 1.00000000
vt 0.16000010 0.47142860
vt 0.12000010 0.25714290
vt 0.10000010 0.14285720
vt 0.04000002 0.10000000
vt 0.00000006 0.08571437
vt 0.52000010 0.91428570
vt 0.76000000 1.00000000
vt 0.20000010 0.47142860
vt 0.16000010 0.25714280
vt 0.12000000 0.14285720
vt 0.10000010 0.10000010
vt 0.04000008 0.08571434
vt 0.00000006 0.02857149
vt 0.76000010 0.91428570
vt 0.80000000 1.00000000
vt 0.52000000 0.47142860
vt 0.20000010 0.25714290
vt 0.16000010 0.14285710
vt 0.12000010 0.10000010
vt 0.10000010 0.08571431
vt 0.04000005 0.02857152
vt 0.00000009 0.00000009
vt 0.04000014 0.00000012
vt 0.10000010 0.02857146
vt 0.10000010 0.00000009
vt 0.12000000 0.08571437
vt 0.12000000 0.02857152
vt 0.12000010 0.00000012
vt 0.16000010 0.10000010
vt 0.16000000 0.08571440
vt 0.16000000 0.02857155
vt 0.16000010 0.00000003
vt 0.20000020 0.14285710
vt 0.20000020 0.10000000
vt 0.20000010 0.08571440
vt 0.20000000 0.02857146
vt 0.20000010 0.00000000
vt 0.52000000 0.25714280
vt 0.52000010 0.14285710
vt 0.52000010 0.10000000
vt 0.52000000 0.08571440
vt 0.52000000 0.02857155
vt 0.52000010 0.00000003
vt 0.76000000 0.47142860
vt 0.76000000 0.25714280
vt 0.75999990 0.14285710
vt 0.75999990 0.10000000
vt 0.76000000 0.08571434
vt 0.76000000 0.02857149
vt 0.76000010 0.00000000
vt 0.80000010 0.91428570
vt 0.88000010 1.00000000
vt 0.80000000 0.47142860
vt 0.88000000 0.91428570
vt 0.92000000 1.00000000
vt 0.80000010 0.02857146
vt 0.80000000 0.00000012
vt 0.80000000 0.08571434
vt 0.80000000 0.25714290
vt 0.92000010 0.91428570
vt 1.00000000 1.00000000
vt 1.00000000 0.91428570
vt 0.88000000 0.47142860
vt 0.92000000 0.47142860
vt 1.00000000 0.47142860
vt 0.80000000 0.14285720
vt 0.88000000 0.25714280
vt 0.92000000 0.25714300
vt 0.99999990 0.25714290
vt 0.80000000 0.10000010
vt 0.88000010 0.14285730
vt 0.92000000 0.14285720
vt 1.00000000 0.14285720
vt 0.87999990 0.10000000
vt 0.92000000 0.10000010
vt 0.99999990 0.10000010
vt 0.88000000 0.08571437
vt 0.92000000 0.08571434
vt 1.00000000 0.08571434
vt 0.88000000 0.02857152
vt 0.87999990 0.00000006
vt 0.92000000 0.02857137
vt 1.00000000 0.02857149
vt 0.92000000 0.00000012
vt 1.00000000 0.00000000
f 3/3/3 2/2/2 1/1/1
f 2/2/2 4/4/4 1/1/1
f 1/1/1 4/4/4 5/5/5
f 2/2/2 6/6/6 4/4/4
f 4/4/4 7/7/7 5/5/5
f 5/5/5 7/7/7 8/8/8
f 6/6/6 9/9/9 4/4/4
f 4/4/4 9/9/9 7/7/7
f 6/6/6 10/10/10 9/9/9
f 7/7/7 11/11/11 8/8/8
f 8/8/8 11/11/11 12/12/12
f 9/9/9 13/13/13 7/7/7
f 7/7/7 13/13/13 11/11/11
f 10/10/10 14/14/14 9/9/9
f 9/9/9 14/14/14 13/13/13
f 10/10/10 15/15/15 14/14/14
f 11/11/11 16/16/16 12/12/12
f 12/12/12 16/16/16 17/17/17
f 13/13/13 18/18/18 11/11/11
f 11/11/11 18/18/18 16/16/16
f 14/14/14 19/19/19 13/13/13
f 13/13/13 19/19/19 18/18/18
f 15/15/15 20/20/20 14/14/14
f 14/14/14 20/20/20 19/19/19
f 15/15/15 21/21/21 20/20/20
f 16/16/16 22/22/22 17/17/17
f 17/17/17 22/22/22 23/23/23
f 18/18/18 24/24/24 16/16/16
f 16/16/16 24/24/24 22/22/22
f 19/19/19 25/25/25 18/18/18
f 18/18/18 25/25/25 24/24/24
f 20/20/20 26/26/26 19/19/19
f 19/19/19 26/26/26 25/25/25
f 21/21/21 27/27/27 20/20/20
f 20/20/20 27/27/27 26/26/26
f 21/21/21 28/28/28 27/27/27
f 22/22/22 29/29/29 23/23/23
f 23/23/23 29/29/29 30/30/30
f 24/24/24 31/31/31 22/22/22
f 22/22/22 31/31/31 29/29/29
f 25/25/25 32/32/32 24/24/24
f 24/24/24 32/32/32 31/31/31
f 26/26/26 33/33/33 25/25/25
f 25/25/25 33/33/33 32/32/32
f 27/27/27 34/34/34 26/26/26
f 26/26/26 34/34/34 33/33/33
f 28/28/28 35/35/35 27/27/27
f 27/27/27 35/35/35 34/34/34
f 28/28/28 36/36/36 35/35/35
f 29/29/29 37/37/37 30/30/30
f 30/30/30 37/37/37 38/38/38
f 31/31/31 39/39/39 29/29/29
f 29/29/29 39/39/39 37/37/37
f 32/32/32 40/40/40 31/31/31
f 31/31/31 40/40/40 39/39/39
f 33/33/33 41/41/41 32/32/32
f 32/32/32 41/41/41 40/40/40
f 34/34/34 42/42/42 33/33/33
f 33/33/33 42/42/42 41/41/41
f 35/35/35 43/43/43 34/34/34
f 34/34/34 43/43/43 42/42/42
f 36/36/36 44/44/44 35/35/35
f 35/35/35 44/44/44 43/43/43
f 36/36/36 45/45/45 44/44/44
f 45/45/45 46/46/46 44/44/44
f 44/44/44 46/46/46 47/47/47
f 44/44/44 47/47/47 43/43/43
f 46/46/46 48/48/48 47/47/47
f 43/43/43 49/49/49 42/42/42
f 43/43/43 47/47/47 49/49/49
f 47/47/47 48/48/48 50/50/50
f 47/47/47 50/50/50 49/49/49
f 48/48/48 51/51/51 50/50/50
f 42/42/42 52/52/52 41/41/41
f 42/42/42 49/49/49 52/52/52
f 49/49/49 50/50/50 53/53/53
f 49/49/49 53/53/53 52/52/52
f 50/50/50 51/51/51 54/54/54
f 50/50/50 54/54/54 53/53/53
f 51/51/51 55/55/55 54/54/54
f 41/41/41 52/52/52 56/56/56
f 41/41/41 56/56/56 40/40/40
f 52/52/52 53/53/53 57/57/57
f 52/52/52 57/57/57 56/56/56
f 53/53/53 54/54/54 58/58/58
f 53/53/53 58/58/58 57/57/57
f 54/54/54 55/55/55 59/59/59
f 54/54/54 59/59/59 58/58/58
f 55/55/55 60/60/60 59/59/59
f 40/40/40 56/56/56 61/61/61
f 40/40/40 61/61/61 39/39/39
f 56/56/56 57/57/57 62/62/62
f 56/56/56 62/62/62 61/61/61
f 57/57/57 58/58/58 63/63/63
f 57/57/57 63/63/63 62/62/62
f 58/58/58 59/59/59 64/64/64
f 58/58/58 64/64/64 63/63/63
f 59/59/59 60/60/60 65/65/65
f 59/59/59 65/65/65 64/64/64
f 60/60/60 66/66/66 65/65/65
f 39/39/39 61/61/61 67/67/67
f 39/39/39 67/67/67 37/37/37
f 61/61/61 62/62/62 68/68/68
f 61/61/61 68/68/68 67/67/67
f 62/62/62 63/63/63 69/69/69
f 62/62/62 69/69/69 68/68/68
f 63/63/63 64/64/64 70/70/70
f 63/63/63 70/70/70 69/69/69
f 64/64/64 65/65/65 71/71/71
f 64/64/64 71/71/71 70/70/70
f 65/65/65 66/66/66 72/72/72
f 65/65/65 72/72/72 71/71/71
f 66/66/66 73/73/73 72/72/72
f 37/37/37 67/67/67 74/74/74
f 37/37/37 74/74/74 38/38/38
f 38/38/38 74/74/74 75/75/75
f 67/67/67 68/68/68 76/76/76
f 67/67/67 76/76/76 74/74/74
f 74/74/74 77/77/77 75/75/75
f 74/74/74 76/76/76 77/77/77
f 75/75/75 77/77/77 78/78/78
f 72/72/72 73/73/73 79/79/79
f 73/73/73 80/80/80 79/79/79
f 71/71/71 72/72/72 81/81/81
f 72/72/72 79/79/79 81/81/81
f 68/68/68 82/82/82 76/76/76
f 68/68/68 69/69/69 82/82/82
f 77/77/77 83/83/83 78/78/78
f 78/78/78 83/83/83 84/84/84
f 83/83/83 85/85/85 84/84/84
f 76/76/76 86/86/86 77/77/77
f 77/77/77 86/86/86 83/83/83
f 76/76/76 82/82/82 86/86/86
f 83/83/83 87/87/87 85/85/85
f 86/86/86 87/87/87 83/83/83
f 87/87/87 88/88/88 85/85/85
f 69/69/69 89/89/89 82/82/82
f 69/69/69 70/70/70 89/89/89
f 82/82/82 90/90/90 86/86/86
f 86/86/86 90/90/90 87/87/87
f 82/82/82 89/89/89 90/90/90
f 87/87/87 91/91/91 88/88/88
f 90/90/90 91/91/91 87/87/87
f 91/91/91 92/92/92 88/88/88
f 70/70/70 93/93/93 89/89/89
f 70/70/70 71/71/71 93/93/93
f 71/71/71 81/81/81 93/93/93
f 89/89/89 94/94/94 90/90/90
f 90/90/90 94/94/94 91/91/91
f 89/89/89 93/93/93 94/94/94
f 91/91/91 95/95/95 92/92/92
f 94/94/94 95/95/95 91/91/91
f 95/95/95 96/96/96 92/92/92
f 93/93/93 97/97/97 94/94/94
f 93/93/93 81/81/81 97/97/97
f 94/94/94 97/97/97 95/95/95
f 95/95/95 98/98/98 96/96/96
f 97/97/97 98/98/98 95/95/95
f 98/98/98 99/99/99 96/96/96
f 81/81/81 100/100/100 97/97/97
f 97/97/97 100/100/100 98/98/98
f 81/81/81 79/79/79 100/100/100
f 98/98/98 101/101/101 99/99/99
f 100/100/100 101/101/101 98/98/98
f 101/101/101 102/102/102 99/99/99
f 79/79/79 103/103/103 100/100/100
f 100/100/100 103/103/103 101/101/101
f 79/79/79 80/80/80 103/103/103
f 80/80/80 104/104/104 103/103/103
f 101/101/101 105/105/105 102/102/102
f 103/103/103 105/105/105 101/101/101
f 103/103/103 104/104/104 105/105/105
f 105/105/105 106/106/106 102/102/102
f 104/104/104 107/107/107 105/105/105
f 105/105/105 107/107/107 106/106/106
f 107/107/107 108/108/108 106/106/106

