mtllib material.mtl
usemtl material_0
v 0.10913180 0.00109415 -0.14991180
v 0.10913180 0.00000000 -0.14991180
v 0.10913180 0.00000000 0.14991210
v 0.10913180 0.00109415 0.14991210
v -0.10925540 0.00244951 -0.14991180
v -0.10702510 0.00000000 0.14991210
v -0.10702510 0.00000000 -0.14991180
v -0.10925540 0.00244951 0.14991210
v -0.10987730 0.00636140 0.14991210
v -0.10987730 0.00636140 -0.14991180
v -0.11055050 0.01027329 0.14991210
v -0.11055050 0.01027329 -0.14991180
v -0.11074520 0.01418518 0.14991210
v -0.11074520 0.01418518 -0.14991180
v -0.11094180 0.01809709 0.14991210
v -0.11094180 0.01809709 -0.14991180
v -0.11054930 0.01877694 -0.14968690
v -0.11054930 0.01877694 0.14968660
v 0.10913180 0.00000000 0.14991210
v 0.10913180 0.00000000 -0.14991180
v -0.10702510 0.00000000 -0.14991180
v 0.10913180 0.00000000 -0.14991180
v 0.10913180 0.00109415 -0.14991180
v -0.10583130 0.00109415 -0.14991180
v -0.10828460 0.00365737 -0.14991180
v -0.10925540 0.00244951 -0.14991180
v -0.10987730 0.00636140 -0.14991180
v -0.10879300 0.00726730 -0.14991180
v -0.11055050 0.01027329 -0.14991180
v -0.10925020 0.01087722 -0.14991180
v -0.11074520 0.01418518 -0.14991180
v -0.10946110 0.01448714 -0.14991180
v -0.11094180 0.01809709 -0.14991180
v -0.10963320 0.01809708 -0.14991180
v -0.11054930 0.01877694 -0.14968690
v -0.11002590 0.01877694 -0.14968690
v 0.10913180 0.00109415 0.14991210
v 0.10913180 0.00000000 0.14991210
v -0.10702510 0.00000000 0.14991210
v -0.10583130 0.00109415 0.14991210
v -0.10925540 0.00244951 0.14991210
v -0.10828460 0.00365737 0.14991210
v -0.10879300 0.00726730 0.14991210
v -0.10987730 0.00636140 0.14991210
v -0.10925020 0.01087722 0.14991210
v -0.11055050 0.01027329 0.14991210
v -0.10946110 0.01448714 0.14991210
v -0.11074520 0.01418518 0.14991210
v -0.10963320 0.01809708 0.14991210
v -0.11094180 0.01809709 0.14991210
v -0.11002590 0.01877694 0.14968660
v -0.11054930 0.01877694 0.14968660
v -0.11002590 0.01877694 -0.14968690
v -0.11002590 0.01877694 0.14968660
v -0.10963320 0.01809708 -0.14991180
v -0.10963320 0.01809708 0.14991210
vn 1.00000000 0.00000000 0.00000000
vn 1.00000000 0.00000000 0.00000000
vn 1.00000000 0.00000000 0.00000000
vn 1.00000000 0.00000000 0.00000000
vn -0.91246940 -0.40914500 0.00000000
vn -0.01121565 -0.99993720 0.00000000
vn -0.01121565 -0.99993720 0.00000000
vn -0.91246940 -0.40914500 0.00000000
vn -0.98657520 -0.16330820 0.00000000
vn -0.98657520 -0.16330820 0.00000000
vn -0.99390170 -0.11026920 0.00000000
vn -0.99390170 -0.11026920 0.00000000
vn -0.99875320 -0.04992180 0.00000000
vn -0.99875320 -0.04992180 0.00000000
vn -0.99962780 0.02727891 0.00000000
vn -0.99962790 0.02727384 0.00000000
vn -0.63268790 0.77440690 0.00000000
vn -0.63267780 0.77441510 0.00000000
vn 0.00000000 -1.00000000 0.00000000
vn 0.00000000 -1.00000000 0.00000000
vn 0.00000137 0.00000000 -1.00000000
vn 0.00000000 0.00000000 -1.00000000
vn 0.00000000 0.00000000 -1.00000000
vn 0.00000023 0.00000000 -1.00000000
vn 0.00001031 0.00000000 -1.00000000
vn 0.00001306 0.00000000 -1.00000000
vn 0.00000000 0.00000000 -1.00000000
vn 0.00000000 0.00000000 -1.00000000
vn 0.00000000 0.00000000 -1.00000000
vn 0.00000000 0.00000000 -1.00000000
vn 0.00000000 0.00000000 -1.00000000
vn 0.00000000 0.00000000 -1.00000000
vn 0.00000000 0.02452925 -0.99969910
vn 0.00000000 0.02270174 -0.99974230
vn 0.00000000 0.31467610 -0.94919910
vn 0.00000000 0.31467610 -0.94919910
vn 0.00000000 0.00000000 1.00000000
vn 0.00000000 0.00000000 1.00000000
vn -0.00000069 0.00000000 1.00000000
vn -0.00000012 0.00000000 1.00000000
vn -0.00000653 0.00000000 1.00000000
vn -0.00000515 0.00000000 1.00000000
vn 0.00000000 0.00000000 1.00000000
vn 0.00000000 0.00000000 1.00000000
vn 0.00000000 0.00000000 1.00000000
vn 0.00000000 0.00000000 1.00000000
vn -0.00002433 0.00000000 1.00000000
vn -0.00002126 0.00000000 1.00000000
vn -0.00004273 0.02269376 0.99974240
vn -0.00004248 0.02452064 0.99969940
vn 0.00000000 0.31458230 0.94923030
vn 0.00000000 0.31458220 0.94923030
vn 0.63269690 0.77439960 0.00000000
vn 0.63268670 0.77440790 0.00000000
vn 0.86610200 0.49986720 0.00000000
vn 0.86610200 0.49986730 0.00000000
vt 0.01191705 0.33125160
vt 0.01395679 0.33126340
vt 0.01399827 0.16860650
vt 0.01195878 0.16861770
vt 0.02057040 0.33126340
vt 0.01943612 0.16860650
vt 0.01943612 0.33126340
vt 0.02057028 0.16860650
vt 0.02310598 0.16860650
vt 0.02310598 0.33126340
vt 0.02564150 0.16860650
vt 0.02564150 0.33126340
vt 0.02817702 0.16860650
vt 0.02817714 0.33126340
vt 0.03061724 0.16854780
vt 0.03061247 0.33126340
vt 0.03120953 0.33173250
vt 0.03120947 0.16825870
vt 0.01399827 0.16860650
vt 0.01395679 0.33126340
vt 0.01943612 0.33126340
vt 0.01395679 0.33126340
vt 0.01398611 0.33284540
vt 0.01943243 0.33282700
vt 0.02063936 0.33282700
vt 0.02057040 0.33126340
vt 0.02310598 0.33126340
vt 0.02315873 0.33282700
vt 0.02564150 0.33126340
vt 0.02567828 0.33282700
vt 0.02817714 0.33126340
vt 0.02819765 0.33282700
vt 0.03061247 0.33126340
vt 0.03060222 0.33282700
vt 0.03120953 0.33173250
vt 0.03120953 0.33238430
vt 0.01403522 0.16728730
vt 0.01399827 0.16860650
vt 0.01943612 0.16860650
vt 0.01943243 0.16730200
vt 0.02057028 0.16860650
vt 0.02063930 0.16730200
vt 0.02322978 0.16730200
vt 0.02310598 0.16860650
vt 0.02582037 0.16730200
vt 0.02564150 0.16860650
vt 0.02841079 0.16730200
vt 0.02817702 0.16860650
vt 0.03061724 0.16730200
vt 0.03061724 0.16854780
vt 0.03120947 0.16766010
vt 0.03120947 0.16825870
vt 0.03199857 0.33173250
vt 0.03199857 0.16825870
vt 0.03289896 0.33173250
vt 0.03291392 0.16825870
f 3/3/3 2/2/2 1/1/1
f 4/4/4 3/3/3 1/1/1
f 7/7/7 6/6/6 5/5/5
f 6/6/6 8/8/8 5/5/5
f 8/8/8 9/9/9 5/5/5
f 9/9/9 10/10/10 5/5/5
f 9/9/9 11/11/11 10/10/10
f 11/11/11 12/12/12 10/10/10
f 11/11/11 13/13/13 12/12/12
f 13/13/13 14/14/14 12/12/12
f 13/13/13 15/15/15 14/14/14
f 15/15/15 16/16/16 14/14/14
f 17/17/17 16/16/16 15/15/15
f 18/18/18 17/17/17 15/15/15
f 19/19/19 6/6/6 7/7/7
f 20/20/20 19/19/19 7/7/7
f 23/23/23 22/22/22 21/21/21
f 24/24/24 23/23/23 21/21/21
f 24/24/24 21/21/21 25/25/25
f 21/21/21 26/26/26 25/25/25
f 25/25/25 26/26/26 27/27/27
f 28/28/28 25/25/25 27/27/27
f 28/28/28 27/27/27 29/29/29
f 30/30/30 28/28/28 29/29/29
f 30/30/30 29/29/29 31/31/31
f 32/32/32 30/30/30 31/31/31
f 32/32/32 31/31/31 33/33/33
f 34/34/34 32/32/32 33/33/33
f 33/33/33 35/35/35 34/34/34
f 35/35/35 36/36/36 34/34/34
f 39/39/39 38/38/38 37/37/37
f 40/40/40 39/39/39 37/37/37
f 41/41/41 39/39/39 40/40/40
f 42/42/42 41/41/41 40/40/40
f 42/42/42 43/43/43 41/41/41
f 43/43/43 44/44/44 41/41/41
f 43/43/43 45/45/45 44/44/44
f 45/45/45 46/46/46 44/44/44
f 45/45/45 47/47/47 46/46/46
f 47/47/47 48/48/48 46/46/46
f 47/47/47 49/49/49 48/48/48
f 49/49/49 50/50/50 48/48/48
f 49/49/49 51/51/51 50/50/50
f 51/51/51 52/52/52 50/50/50
f 54/54/54 53/53/53 17/17/17
f 18/18/18 54/54/54 17/17/17
f 55/55/55 53/53/53 54/54/54
f 56/56/56 55/55/55 54/54/54

